<svg width="96" height="65" viewBox="0 0 96 65" fill="none" xmlns="http://www.w3.org/2000/svg">
<rect width="96" height="64" transform="translate(0 0.859985)" fill="white"/>
<g clip-path="url(#clip0_6744_64804)">
<g clip-path="url(#clip1_6744_64804)">
<path d="M69.3605 42.6941V23.0088C69.3605 21.4709 68.5402 20.0526 67.2074 19.2665L50.1536 9.44098C48.8208 8.67202 47.1803 8.67202 45.8475 9.44098L28.7937 19.2836C27.4608 20.0526 26.6406 21.4709 26.6406 23.0088V42.6941C26.6406 44.232 27.4608 45.6503 28.7937 46.4363L45.8475 56.279C47.1803 57.048 48.8208 57.048 50.1536 56.279L67.2074 46.4363C68.5402 45.6674 69.3605 44.232 69.3605 42.6941Z" fill="#D40A58"/>
<path d="M69.3614 42.6941V37.9095L52.9399 21.488L48.497 21.1121L43.7978 22.9917C43.7978 22.9917 42.1403 28.0839 42.1403 28.4086C42.1403 28.7333 42.5333 32.8686 42.5333 32.8686L39.5942 36.1665C39.5942 36.1665 39.2866 42.6941 39.1328 43.1384C38.979 43.5827 39.1328 45.7016 39.1328 45.7016L49.864 56.4328C49.9666 56.3816 50.052 56.3474 50.1545 56.2961L67.2083 46.4535C68.5411 45.6674 69.3614 44.232 69.3614 42.6941Z" fill="#AB0746"/>
<path d="M55.6553 46.18H40.3445C39.3876 46.18 38.6016 45.3939 38.6016 44.437V32.8856C38.6016 31.9287 39.3876 31.1426 40.3445 31.1426H55.6553C56.6122 31.1426 57.3983 31.9287 57.3983 32.8856V44.437C57.3983 45.3939 56.6122 46.18 55.6553 46.18Z" fill="#F7F7F7"/>
<path d="M43.8649 31.1597V26.4605C43.8649 24.1024 45.7788 22.1885 48.1369 22.1885C50.4951 22.1885 52.4089 24.1024 52.4089 26.4605V31.1426H55.0575V26.4605C55.0575 22.6499 51.9304 19.5228 48.1198 19.5228C44.3092 19.5228 41.1992 22.6499 41.1992 26.4605V31.1426H43.8649V31.1597Z" fill="#F7F7F7"/>
<path d="M42.8231 41.1733L41.2168 36.1836H42.4471L43.0623 38.2854C43.2332 38.8835 43.387 39.4474 43.5066 40.0626H43.5237C43.6433 39.4645 43.7971 38.8664 43.968 38.3025L44.6002 36.1665H45.7964L44.1217 41.1562H42.8231V41.1733Z" fill="#D40A58"/>
<path d="M46.3433 36.2519C46.685 36.2007 47.1806 36.1494 47.8641 36.1494C48.5647 36.1494 49.0602 36.2861 49.3849 36.5424C49.7096 36.7988 49.9146 37.2089 49.9146 37.7044C49.9146 38.2 49.7438 38.6101 49.4533 38.8835C49.0602 39.2423 48.4963 39.4132 47.8299 39.4132C47.6761 39.4132 47.5565 39.4132 47.4369 39.3961V41.1733H46.3262V36.2519H46.3433ZM47.4711 38.5246C47.5736 38.5417 47.6932 38.5588 47.847 38.5588C48.4451 38.5588 48.821 38.2512 48.821 37.7386C48.821 37.2772 48.4963 37.0038 47.9324 37.0038C47.7103 37.0038 47.5394 37.0209 47.4711 37.0551V38.5246Z" fill="#D40A58"/>
<path d="M50.6484 41.1733V36.1836H51.9642L53.0066 38.012C53.2971 38.5417 53.6047 39.1569 53.8268 39.7208H53.8439C53.7755 39.0544 53.7414 38.3879 53.7414 37.6361V36.1836H54.7837V41.1733H53.6046L52.5452 39.2423C52.2547 38.7126 51.93 38.0633 51.6737 37.4823H51.6566C51.6908 38.1487 51.7079 38.8493 51.7079 39.6524V41.1562H50.6484V41.1733Z" fill="#D40A58"/>
</g>
</g>
<defs>
<clipPath id="clip0_6744_64804">
<rect width="72" height="48" fill="white" transform="translate(12 8.85999)"/>
</clipPath>
<clipPath id="clip1_6744_64804">
<rect width="42.7198" height="48" fill="white" transform="translate(26.6406 8.85999)"/>
</clipPath>
</defs>
</svg>
