<svg width="96" height="65" viewBox="0 0 96 65" fill="none" xmlns="http://www.w3.org/2000/svg">
<rect width="96" height="64" transform="translate(0 0.859985)" fill="white"/>
<g clip-path="url(#clip0_6744_64818)">
<g clip-path="url(#clip1_6744_64818)">
<path d="M68.9601 16.9154L48.5675 8.95775C48.2155 8.82089 47.8049 8.82089 47.453 8.95775L27.0408 16.9154L24.5381 17.8734C23.9516 18.1081 23.5605 18.6751 23.5605 19.3007V25.616C23.5605 46.2628 43.7577 55.2567 47.4335 56.7231C47.8049 56.8795 48.2155 56.8795 48.5675 56.7231C52.2432 55.2763 72.4404 46.2824 72.4404 25.6356V19.3203C72.4404 18.6946 72.0493 18.1081 71.4628 17.893L68.9601 16.9154Z" fill="url(#paint0_linear_6744_64818)"/>
<path d="M30.7559 24.1301C31.7139 23.9736 33.1412 23.8563 34.7054 23.8563C36.6605 23.8563 38.0096 24.1496 38.9481 24.8926C39.7302 25.5182 40.1603 26.4372 40.1603 27.6298C40.1603 29.3113 38.9677 30.4453 37.8337 30.8559V30.9146C38.7526 31.2861 39.261 32.1659 39.5933 33.3781C40.0039 34.8641 40.4145 36.5651 40.6687 37.0734H37.6381C37.4231 36.7019 37.1102 35.6266 36.7192 34.0233C36.3673 32.381 35.8003 31.9313 34.588 31.9117H33.6886V37.0734H30.7559V24.1301ZM33.7082 29.7806H34.8813C36.3673 29.7806 37.2276 29.0376 37.2276 27.884C37.2276 26.6718 36.4064 26.0657 35.0377 26.0461C34.3143 26.0461 33.9037 26.1048 33.6886 26.1439V29.7806H33.7082Z" fill="#F7F7F7"/>
<path d="M42.3105 24.1301C43.2295 23.9736 44.5199 23.8563 46.3187 23.8563C48.1566 23.8563 49.447 24.2083 50.3268 24.9121C51.1676 25.5769 51.7346 26.6718 51.7346 27.9427C51.7346 29.2331 51.3044 30.3085 50.5224 31.0514C49.5057 32.0095 48.0197 32.4396 46.26 32.4396C45.869 32.4396 45.5171 32.4201 45.2433 32.381V37.0734H42.3105V24.1301ZM45.2629 30.0738C45.5171 30.1325 45.8299 30.152 46.26 30.152C47.8437 30.152 48.8018 29.3504 48.8018 28.0013C48.8018 26.7891 47.9611 26.0657 46.4947 26.0657C45.8886 26.0657 45.478 26.1243 45.2629 26.183V30.0738Z" fill="#F7F7F7"/>
<path d="M53.6309 24.1301C54.7258 23.9541 56.1335 23.8563 57.639 23.8563C60.1221 23.8563 61.7449 24.306 63.0158 25.2641C64.3844 26.2808 65.2447 27.884 65.2447 30.2107C65.2447 32.7134 64.3258 34.4535 63.0549 35.5288C61.6667 36.6824 59.5746 37.2298 56.9938 37.2298C55.4492 37.2298 54.3738 37.1321 53.6309 37.0343V24.1301ZM56.6028 34.825C56.8569 34.8836 57.2675 34.8836 57.639 34.8836C60.3176 34.9032 62.0773 33.4172 62.0773 30.2889C62.0968 27.5712 60.4936 26.1243 57.9518 26.1243C57.2871 26.1243 56.8569 26.183 56.6028 26.2417V34.825Z" fill="#F7F7F7"/>
</g>
</g>
<defs>
<linearGradient id="paint0_linear_6744_64818" x1="30.3241" y1="46.0928" x2="64.7135" y2="11.3566" gradientUnits="userSpaceOnUse">
<stop stop-color="#27489B"/>
<stop offset="1" stop-color="#1B97C2"/>
</linearGradient>
<clipPath id="clip0_6744_64818">
<rect width="72" height="48" fill="white" transform="translate(12 8.85999)"/>
</clipPath>
<clipPath id="clip1_6744_64818">
<rect width="48.8798" height="48" fill="white" transform="translate(23.5605 8.85999)"/>
</clipPath>
</defs>
</svg>
