<svg width="38" height="38" viewBox="0 0 38 38" fill="none" xmlns="http://www.w3.org/2000/svg">
<g clip-path="url(#clip0_1117_44244)">
<path d="M16.1436 27.0017C16.937 27.4045 17.6511 27.8989 18.2859 28.4848C18.9207 29.0708 19.47 29.7299 19.9338 30.4624C20.3977 31.1948 20.7456 31.976 20.9775 32.8061C21.2095 33.6362 21.3315 34.5029 21.3438 35.4062H19C19 34.4419 18.8169 33.5324 18.4507 32.6779C18.0845 31.8234 17.584 31.0788 16.9492 30.4441C16.3145 29.8093 15.5637 29.3027 14.697 28.9243C13.8303 28.5459 12.9209 28.3628 11.9688 28.375C10.9922 28.375 10.0828 28.5581 9.24048 28.9243C8.39819 29.2905 7.65356 29.791 7.00659 30.4257C6.35962 31.0605 5.85303 31.8112 5.48682 32.6779C5.12061 33.5446 4.9375 34.4541 4.9375 35.4062H2.59375C2.59375 34.5151 2.71582 33.6545 2.95996 32.8244C3.2041 31.9943 3.552 31.2131 4.00366 30.4807C4.45532 29.7483 4.99854 29.0891 5.6333 28.5031C6.26807 27.9172 6.98828 27.4167 7.79395 27.0017C6.89062 26.3303 6.18872 25.5002 5.68823 24.5114C5.18774 23.5227 4.9375 22.4668 4.9375 21.3437C4.9375 20.3794 5.12061 19.4699 5.48682 18.6154C5.85303 17.7609 6.35352 17.0163 6.98828 16.3816C7.62305 15.7468 8.36768 15.2402 9.22217 14.8618C10.0767 14.4834 10.9922 14.3003 11.9688 14.3125C13.0918 14.3125 14.1477 14.5627 15.1365 15.0632C16.1252 15.5637 16.9553 16.2656 17.6267 17.1689C18.0906 16.2534 18.6826 15.4355 19.4028 14.7153C20.123 13.9951 20.9409 13.403 21.8564 12.9392C20.9531 12.2678 20.2512 11.4377 19.7507 10.4489C19.2502 9.46017 19 8.40426 19 7.28121C19 6.31686 19.1831 5.40743 19.5493 4.55294C19.9155 3.69845 20.416 2.95382 21.0508 2.31905C21.6855 1.68429 22.4302 1.1777 23.2847 0.799278C24.1392 0.42086 25.0547 0.237755 26.0312 0.249962C26.9956 0.249962 27.905 0.433067 28.7595 0.799278C29.614 1.16549 30.3586 1.66598 30.9934 2.30074C31.6282 2.93551 32.1348 3.68624 32.5132 4.55294C32.8916 5.41964 33.0747 6.32906 33.0625 7.28121C33.0625 8.40426 32.8123 9.46017 32.3118 10.4489C31.8113 11.4377 31.1094 12.2678 30.2061 12.9392C30.9995 13.342 31.7136 13.8364 32.3484 14.4223C32.9832 15.0083 33.5325 15.6674 33.9963 16.3999C34.4602 17.1323 34.8081 17.9135 35.04 18.7436C35.272 19.5737 35.394 20.4404 35.4062 21.3437H33.0625C33.0625 20.3794 32.8794 19.4699 32.5132 18.6154C32.147 17.7609 31.6465 17.0163 31.0117 16.3816C30.377 15.7468 29.6262 15.2402 28.7595 14.8618C27.8928 14.4834 26.9834 14.3003 26.0312 14.3125C25.0547 14.3125 24.1453 14.4956 23.303 14.8618C22.4607 15.228 21.7161 15.7285 21.0691 16.3632C20.4221 16.998 19.9155 17.7487 19.5493 18.6154C19.1831 19.4821 19 20.3916 19 21.3437C19 22.4668 18.7498 23.5227 18.2493 24.5114C17.7488 25.5002 17.0469 26.3303 16.1436 27.0017ZM21.3438 7.28121C21.3438 7.92818 21.4658 8.53243 21.71 9.09396C21.9541 9.65548 22.2898 10.156 22.717 10.5954C23.1443 11.0349 23.6387 11.3706 24.2002 11.6025C24.7617 11.8344 25.3721 11.9565 26.0312 11.9687C26.6782 11.9687 27.2825 11.8466 27.844 11.6025C28.4055 11.3584 28.906 11.0227 29.3455 10.5954C29.7849 10.1682 30.1206 9.67379 30.3525 9.11227C30.5845 8.55074 30.7065 7.94039 30.7188 7.28121C30.7188 6.63424 30.5967 6.02999 30.3525 5.46847C30.1084 4.90694 29.7727 4.40646 29.3455 3.967C28.9182 3.52755 28.4238 3.19186 27.8623 2.95992C27.3008 2.72799 26.6904 2.60592 26.0312 2.59371C25.3843 2.59371 24.78 2.71578 24.2185 2.95992C23.657 3.20406 23.1565 3.53976 22.717 3.967C22.2776 4.39425 21.9419 4.88863 21.71 5.45016C21.478 6.01168 21.356 6.62203 21.3438 7.28121ZM7.28125 21.3437C7.28125 21.9907 7.40332 22.5949 7.64746 23.1565C7.8916 23.718 8.22729 24.2185 8.65454 24.6579C9.08179 25.0974 9.57617 25.4331 10.1377 25.665C10.6992 25.8969 11.3096 26.019 11.9688 26.0312C12.6157 26.0312 13.22 25.9091 13.7815 25.665C14.343 25.4209 14.8435 25.0852 15.283 24.6579C15.7224 24.2307 16.0581 23.7363 16.29 23.1748C16.522 22.6132 16.644 22.0029 16.6562 21.3437C16.6562 20.6967 16.5342 20.0925 16.29 19.531C16.0459 18.9694 15.7102 18.469 15.283 18.0295C14.8557 17.59 14.3613 17.2544 13.7998 17.0224C13.2383 16.7905 12.6279 16.6684 11.9688 16.6562C11.3218 16.6562 10.7175 16.7783 10.156 17.0224C9.59448 17.2666 9.09399 17.6023 8.65454 18.0295C8.21509 18.4567 7.87939 18.9511 7.64746 19.5127C7.41553 20.0742 7.29346 20.6845 7.28125 21.3437ZM34.8203 37.75L29.5469 33.6301L24.2734 37.75L26.3975 31.1582L21.3438 27.2031H27.6609L29.5469 21.3437L31.4329 27.2031H37.75L32.6963 31.1582L34.8203 37.75Z" fill="white"/>
</g>
<defs>
<clipPath id="clip0_1117_44244">
<rect width="37.5" height="37.5" fill="white" transform="translate(0.25 0.25)"/>
</clipPath>
</defs>
</svg>
