<svg width="51" height="51" viewBox="0 0 51 51" fill="none" xmlns="http://www.w3.org/2000/svg">
<path d="M44.2083 26.2917L47.125 29.2292L33.5208 42.9584L26.2917 35.6667L29.2083 32.7292L33.5208 37.0625L44.2083 26.2917ZM23.1667 8.58337C25.3768 8.58337 27.4964 9.46135 29.0592 11.0242C30.622 12.587 31.5 14.7066 31.5 16.9167C31.5 19.1268 30.622 21.2465 29.0592 22.8093C27.4964 24.3721 25.3768 25.25 23.1667 25.25C20.9565 25.25 18.8369 24.3721 17.2741 22.8093C15.7113 21.2465 14.8333 19.1268 14.8333 16.9167C14.8333 14.7066 15.7113 12.587 17.2741 11.0242C18.8369 9.46135 20.9565 8.58337 23.1667 8.58337ZM23.1667 12.75C22.0616 12.75 21.0018 13.189 20.2204 13.9704C19.439 14.7518 19 15.8116 19 16.9167C19 18.0218 19.439 19.0816 20.2204 19.863C21.0018 20.6444 22.0616 21.0834 23.1667 21.0834C24.2717 21.0834 25.3315 20.6444 26.1129 19.863C26.8943 19.0816 27.3333 18.0218 27.3333 16.9167C27.3333 15.8116 26.8943 14.7518 26.1129 13.9704C25.3315 13.189 24.2717 12.75 23.1667 12.75ZM23.1667 27.3334C24.5833 27.3334 26.2917 27.5209 28.1875 27.875L24.7083 31.3542L23.1667 31.2917C16.9792 31.2917 10.4583 34.3334 10.4583 35.6667V37.9584H23.375L27.3333 41.9167H6.5V35.6667C6.5 30.125 17.6042 27.3334 23.1667 27.3334Z" fill="white"/>
</svg>
