<svg width="38" height="38" viewBox="0 0 38 38" fill="none" xmlns="http://www.w3.org/2000/svg">
<path d="M29.4995 23.3123C30.0464 21.9842 30.3433 20.5623 30.3433 18.9998C30.3433 17.8748 30.1714 16.7967 29.8745 15.7967C28.8589 16.0311 27.7964 16.1561 26.687 16.1561C24.4151 16.1585 22.1759 15.6147 20.1581 14.5705C18.1404 13.5263 16.4033 12.0123 15.0933 10.1561C13.6918 13.547 11.0481 16.2745 7.70264 17.7811C7.64014 18.1717 7.64014 18.5936 7.64014 18.9998C7.64014 20.4916 7.93396 21.9687 8.50482 23.3469C9.07568 24.7251 9.9124 25.9773 10.9672 27.0321C13.0975 29.1624 15.9868 30.3592 18.9995 30.3592C20.6401 30.3592 22.2183 29.9998 23.6401 29.3592C24.5308 31.0623 24.937 31.9061 24.9058 31.9061C22.3433 32.7655 20.3589 33.1873 18.9995 33.1873C15.2183 33.1873 11.6089 31.703 8.95264 29.0311C7.33701 27.4204 6.13603 25.442 5.45264 23.2655H3.37451V16.1561H5.07764C5.59364 13.6444 6.77997 11.3192 8.51075 9.42733C10.2415 7.53542 12.4522 6.14735 14.9081 5.4104C17.3641 4.67345 19.9738 4.61511 22.4602 5.24157C24.9467 5.86803 27.2172 7.15592 29.0308 8.96859C30.9999 10.9299 32.343 13.4312 32.8901 16.1561H34.6245V23.2655H34.5308L28.9683 28.3748L20.687 27.4373V24.828H28.2339L29.4995 23.3123ZM14.7339 18.6405C15.2026 18.6405 15.6558 18.828 15.9839 19.1717C16.3136 19.5042 16.4987 19.9535 16.4987 20.4217C16.4987 20.89 16.3136 21.3393 15.9839 21.6717C15.6558 21.9998 15.2026 22.1873 14.7339 22.1873C13.7495 22.1873 12.9526 21.4061 12.9526 20.4217C12.9526 19.4373 13.7495 18.6405 14.7339 18.6405ZM23.2495 18.6405C24.2339 18.6405 25.0151 19.4373 25.0151 20.4217C25.0151 21.4061 24.2339 22.1873 23.2495 22.1873C22.2651 22.1873 21.4683 21.4061 21.4683 20.4217C21.4683 19.9493 21.6559 19.4962 21.99 19.1622C22.324 18.8281 22.7771 18.6405 23.2495 18.6405Z" fill="white"/>
</svg>
