<svg width="38" height="38" viewBox="0 0 38 38" fill="none" xmlns="http://www.w3.org/2000/svg">
<path d="M27.2089 16.2719C28.1245 15.3562 28.1245 13.8844 28.1245 10.9375C28.1245 7.99062 28.1245 6.51875 27.2089 5.60312M27.2089 16.2719C26.2933 17.1875 24.8214 17.1875 21.8745 17.1875H15.6245C12.6776 17.1875 11.2058 17.1875 10.2901 16.2719M27.2089 5.60312C26.2933 4.6875 24.8214 4.6875 21.8745 4.6875H15.6245C12.6776 4.6875 11.2058 4.6875 10.2901 5.60312M10.2901 5.60312C9.37451 6.51875 9.37451 7.99062 9.37451 10.9375C9.37451 13.8844 9.37451 15.3562 10.2901 16.2719M20.312 10.9375C20.312 11.3519 20.1474 11.7493 19.8544 12.0424C19.5613 12.3354 19.1639 12.5 18.7495 12.5C18.3351 12.5 17.9377 12.3354 17.6447 12.0424C17.3516 11.7493 17.187 11.3519 17.187 10.9375C17.187 10.5231 17.3516 10.1257 17.6447 9.83265C17.9377 9.53962 18.3351 9.375 18.7495 9.375C19.1639 9.375 19.5613 9.53962 19.8544 9.83265C20.1474 10.1257 20.312 10.5231 20.312 10.9375Z" stroke="white" stroke-width="2.34375"/>
<path d="M28.124 9.375C26.8808 9.375 25.6885 8.88114 24.8095 8.00206C23.9304 7.12299 23.4365 5.9307 23.4365 4.6875M28.124 12.5C26.8808 12.5 25.6885 12.9939 24.8095 13.8729C23.9304 14.752 23.4365 15.9443 23.4365 17.1875M9.37402 9.375C10.6172 9.375 11.8095 8.88114 12.6886 8.00206C13.5677 7.12299 14.0615 5.9307 14.0615 4.6875M9.37402 12.5C10.6172 12.5 11.8095 12.9939 12.6886 13.8729C13.5677 14.752 14.0615 15.9443 14.0615 17.1875M7.81152 31.8562H11.3428C12.9209 31.8562 14.5193 32.0219 16.0553 32.3375C18.7975 32.9008 21.619 32.9633 24.3834 32.5219C25.7396 32.3031 27.0709 31.9672 28.2771 31.3859C29.3646 30.8594 30.6975 30.1203 31.5928 29.2906C32.4865 28.4625 33.4178 27.1078 34.0771 26.0484C34.6459 25.1391 34.3709 24.025 33.474 23.3484C32.97 22.9818 32.3629 22.7844 31.7396 22.7844C31.1164 22.7844 30.5093 22.9818 30.0053 23.3484L27.1818 25.4812C26.0881 26.3094 24.8928 27.0703 23.4693 27.2969C23.2975 27.3234 23.1178 27.3484 22.9303 27.3703M22.9303 27.3703C22.873 27.3769 22.8157 27.3832 22.7584 27.3891M22.9303 27.3703C23.1804 27.3027 23.4097 27.1738 23.5975 26.9953C23.8329 26.7916 24.0252 26.5428 24.1629 26.2636C24.3006 25.9844 24.3811 25.6805 24.3994 25.3697C24.4178 25.0589 24.3737 24.7476 24.2698 24.4541C24.1658 24.1606 24.0042 23.8909 23.7943 23.6609C23.5907 23.4349 23.3536 23.2415 23.0912 23.0875C18.7209 20.4797 11.9193 22.4656 7.81152 25.3797M22.9303 27.3703C22.8738 27.3826 22.8162 27.3889 22.7584 27.3891M22.7584 27.3891C21.8161 27.4838 20.8667 27.4859 19.924 27.3953" stroke="white" stroke-width="2.34375" stroke-linecap="round"/>
<path d="M7.81152 24.2188C7.81152 22.9243 6.76219 21.875 5.46777 21.875C4.17336 21.875 3.12402 22.9243 3.12402 24.2188V32.0312C3.12402 33.3257 4.17336 34.375 5.46777 34.375C6.76219 34.375 7.81152 33.3257 7.81152 32.0312V24.2188Z" stroke="white" stroke-width="2.34375"/>
</svg>
