<svg width="50" height="50" viewBox="0 0 50 50" fill="none" xmlns="http://www.w3.org/2000/svg">
<path d="M25.0001 6.25C13.5417 6.25 4.16675 13.75 4.16675 22.9167C4.16675 27.5 6.45842 31.6667 10.0001 34.375C10.0001 35.625 9.16675 38.9583 4.16675 43.75C9.16675 43.5417 13.7501 41.6667 17.7084 38.5417C20.0001 39.1667 22.5001 39.5833 25.0001 39.5833C36.4584 39.5833 45.8334 32.0833 45.8334 22.9167C45.8334 13.75 36.4584 6.25 25.0001 6.25ZM25.0001 35.4167C15.8334 35.4167 8.33341 29.7917 8.33341 22.9167C8.33341 16.0417 15.8334 10.4167 25.0001 10.4167C34.1667 10.4167 41.6667 16.0417 41.6667 22.9167C41.6667 29.7917 34.1667 35.4167 25.0001 35.4167ZM25.4167 13.5417C23.5417 13.5417 22.0834 13.9583 21.0417 14.5833C19.7917 15.4167 19.1667 16.6667 19.3751 18.125H23.5417C23.5417 17.5 23.7501 17.0833 24.1667 16.875C24.5834 16.6667 25.0001 16.4583 25.6251 16.4583C26.2501 16.4583 26.8751 16.6667 27.2917 17.0833C27.7084 17.5 27.9167 17.9167 27.9167 18.5417C27.9167 19.1667 27.7084 19.5833 27.5001 20C27.0834 20.4167 26.6667 20.8333 26.2501 21.0417C25.2084 21.6667 24.3751 22.2917 23.9584 22.7083C23.1251 23.3333 22.9167 23.9583 22.9167 25H27.0834C27.0834 24.375 27.2917 23.9583 27.2917 23.5417C27.5001 23.125 27.9167 22.9167 28.3334 22.5C29.3751 22.0833 30.0001 21.4583 30.6251 20.625C31.2501 19.7917 31.4584 18.9583 31.4584 18.125C31.4584 16.6667 30.8334 15.4167 29.7917 14.5833C28.9584 13.9583 27.2917 13.5417 25.4167 13.5417ZM22.9167 27.0833V31.25H27.0834V27.0833H22.9167Z" fill="#EB1A26"/>
</svg>
