<svg width="96" height="112" viewBox="0 0 96 112" fill="none" xmlns="http://www.w3.org/2000/svg">
<path d="M38.4457 81.6422C34.0461 79.1129 30.4321 76.9459 30.4321 76.8272C30.4321 76.5836 46.3964 67.3409 46.6038 67.4595C46.8112 67.5782 46.7735 86.0387 46.6038 86.1449C46.5284 86.1949 42.8327 84.159 38.4331 81.6297L38.4457 81.6422ZM48.8036 86.1387C48.747 86.0825 48.703 81.8733 48.703 76.771C48.703 68.2714 48.703 67.5157 48.9733 67.5157C49.2436 67.5157 64.0577 75.9466 64.8496 76.5399C65.1324 76.746 65.1387 76.8022 64.925 77.0146C64.7113 77.2269 50.7206 85.3018 49.4195 85.9638C49.1367 86.1262 48.8602 86.1824 48.8036 86.1387ZM29.2128 74.7101C28.9425 74.2105 28.974 56.7679 29.2442 56.4119C29.4265 56.1683 30.3001 56.6305 37.4149 60.7335C42.9144 63.8936 45.3908 65.4049 45.3593 65.5735C45.3279 65.7421 35.0643 71.8186 29.967 74.6914C29.3385 75.0286 29.3385 75.0286 29.1877 74.6914L29.2128 74.7101ZM58.0428 70.4135C53.6432 67.9154 50.0795 65.7109 50.0481 65.5735C50.0166 65.4361 52.449 63.9248 57.9925 60.7398C65.0821 56.6742 66.0061 56.1808 66.1632 56.4181C66.3203 56.6555 66.3706 58.7101 66.3706 65.5735C66.3706 72.4369 66.3266 74.529 66.1632 74.7351C65.9998 74.9412 65.145 74.5228 58.0428 70.4135ZM18.7983 70.2823C14.4741 67.7843 10.9356 65.6547 10.9356 65.5548C10.9356 65.4548 26.6485 56.2995 26.9313 56.2995C27.013 56.2995 27.0758 60.3588 27.0758 65.5797C27.0758 72.899 27.0319 74.86 26.8684 74.8475C26.705 74.835 23.1225 72.7866 18.7983 70.2823ZM68.363 65.5735C68.363 57.7608 68.4007 56.2683 68.5892 56.3182C68.7778 56.3682 72.3603 58.3854 76.6971 60.8459C81.7755 63.7312 84.5661 65.4049 84.541 65.5548C84.5158 65.7046 69.2806 74.6289 68.6458 74.81C68.3755 74.885 68.3567 74.3666 68.3567 65.5797L68.363 65.5735ZM9.54028 54.2573V44.8897L10.3196 45.2893C12.8023 46.5384 25.6805 54.1449 25.6805 54.326C25.6805 54.5071 10.1311 63.6125 9.74769 63.6188C9.58428 63.625 9.54028 61.6453 9.54028 54.2573ZM38.2948 59.0786C33.9707 56.5805 30.4321 54.4509 30.4321 54.3323C30.4321 54.0825 46.3838 44.8647 46.5912 44.9646C46.6667 45.0146 46.7295 49.2238 46.7295 54.3323C46.7295 63.0754 46.7295 63.6 46.4404 63.5938C46.2895 63.6125 42.6253 61.5704 38.2948 59.0786ZM48.703 54.3323C48.703 49.2238 48.7659 45.0208 48.8476 44.9646C49.1053 44.8022 65.0067 53.995 65.0067 54.3323C65.0067 54.6695 49.451 63.6063 48.9922 63.6125C48.7219 63.6125 48.703 63.0692 48.703 54.3448V54.3323ZM77.7027 59.0723C73.058 56.4494 69.7709 54.4759 69.7709 54.3323C69.7709 54.1886 81.8006 47.1192 85.3895 45.1957C85.7037 45.027 85.798 45.0333 85.9174 45.2269C86.0368 45.4205 86.1374 62.938 85.974 63.3377C85.9174 63.4814 85.8294 63.5938 85.7666 63.5938C85.7037 63.5938 82.0835 61.5579 77.7153 59.0661L77.7027 59.0723ZM19.0434 47.906C14.7695 45.4517 11.1744 43.3346 11.0424 43.2097C10.9104 43.0848 10.8664 42.9474 11.1996 42.7413C12.576 41.8795 26.7616 33.8358 26.9124 33.8358C27.0633 33.8358 27.1576 52.1652 26.9501 52.2964C26.881 52.3401 23.3236 50.3666 19.0497 47.9248L19.0434 47.906ZM29.1374 52.134C29.0054 51.7968 29.0117 34.5103 29.1374 34.0231C29.2065 33.7608 29.3196 33.6797 29.5019 33.7484C29.6842 33.8171 33.273 35.8717 37.5972 38.351C42.8013 41.3424 45.4222 42.9349 45.3908 43.0911C45.3593 43.2472 29.8099 52.3963 29.4453 52.3963C29.3766 52.3844 29.3123 52.3543 29.2592 52.3093C29.2062 52.2642 29.1663 52.2058 29.1437 52.1402L29.1374 52.134ZM57.9548 47.8623C52.581 44.7398 50.0921 43.2472 50.0921 43.0661C50.0921 42.885 52.6061 41.3549 58.0365 38.2324C62.4361 35.7343 66.0312 33.6672 66.0878 33.6672C66.1443 33.6672 66.2386 33.8295 66.2889 34.0294C66.4209 34.5103 66.4209 51.7905 66.2889 52.1402C66.2679 52.2046 66.2301 52.2622 66.1793 52.3072C66.1284 52.3522 66.0665 52.3829 65.9998 52.3963C65.8929 52.3963 62.2727 50.3604 57.9485 47.8686L57.9548 47.8623ZM68.363 43.0911C68.363 36.4275 68.4133 33.8108 68.5453 33.8108C68.9475 33.8108 84.5849 42.8537 84.5472 43.0661C84.5095 43.2784 68.8344 52.3713 68.5138 52.3713C68.4258 52.3713 68.363 48.6242 68.363 43.0911ZM9.54028 31.7936C9.54028 22.9568 9.54028 22.426 9.8294 22.5571C10.3008 22.732 25.3349 31.4064 25.5926 31.6562C25.7434 31.7999 25.7748 31.9373 25.6743 32.0247C25.3726 32.2995 10.1122 41.0302 9.8294 41.0864C9.54657 41.1426 9.54028 40.6117 9.54028 31.7999V31.7936ZM38.452 36.5961C34.1278 34.0981 30.5892 31.9685 30.5892 31.8498C30.5892 31.5751 46.2204 22.5571 46.5095 22.6695C46.6918 22.7382 46.7232 24.3494 46.6855 31.8998C46.6855 37.8264 46.5849 41.0614 46.4781 41.0864C46.3713 41.1114 42.7761 39.0879 38.452 36.5899V36.5961ZM48.8853 40.9677C48.6528 40.7366 48.615 23.1504 48.8413 22.7944C48.8701 22.7396 48.915 22.6947 48.9699 22.6658C49.0249 22.6368 49.0875 22.625 49.1493 22.632C49.2436 22.6633 52.8261 24.7054 57.1126 27.1722C61.9773 29.9701 64.8936 31.7312 64.8684 31.8686C64.8433 32.006 61.3613 34.0793 57.1251 36.5149L49.2624 41.0302C49.2006 41.0584 49.1314 41.0663 49.0647 41.0529C48.998 41.0394 48.9374 41.0052 48.8916 40.9552L48.8853 40.9677ZM77.6964 36.5961C73.2968 34.0981 69.7331 31.9685 69.708 31.8436C69.6829 31.7187 72.4735 30.02 77.3822 27.2222C81.6246 24.8053 85.2449 22.7569 85.4209 22.6758C85.5969 22.5946 85.7854 22.5883 85.8923 22.7569C85.9991 22.9256 86.106 40.4681 85.9488 40.8678C85.8923 41.0114 85.8043 41.1238 85.7414 41.1176C85.6786 41.1114 82.0583 39.0692 77.6901 36.5836L77.6964 36.5961ZM19.0434 25.4361C14.7695 22.9818 11.1744 20.8647 11.0424 20.7398C10.9104 20.6149 10.8664 20.4775 11.1996 20.2651C12.4566 19.4595 26.5353 11.4595 26.7804 11.3971C27.0256 11.3346 27.0758 11.7718 27.0758 20.5274C27.0758 25.5922 27.0193 29.7702 26.9439 29.8139C26.8684 29.8576 23.3173 27.8842 19.0434 25.4423V25.4361ZM29.3134 29.8077C29.2505 29.7452 29.2065 25.5735 29.2065 20.5274C29.2065 12.9396 29.2442 11.3534 29.4265 11.3534C29.6088 11.3534 43.3041 19.1535 45.0765 20.2589C45.4033 20.465 45.4285 20.5337 45.2399 20.7273C45.0514 20.9209 29.5459 29.9263 29.4516 29.9263C29.3995 29.8995 29.3527 29.8635 29.3134 29.8202V29.8077ZM58.225 25.4361C53.9574 22.9755 50.3623 20.8647 50.2366 20.7398C50.1109 20.6149 50.0606 20.4775 50.3937 20.2714C51.8519 19.3596 65.6855 11.4783 65.9432 11.4096C66.2009 11.3409 66.2637 11.4658 66.2637 20.5337C66.2637 25.5985 66.2009 29.7827 66.1255 29.8264C66.05 29.8701 62.4612 27.9029 58.1936 25.4423L58.225 25.4361ZM68.363 20.6086C68.363 11.4907 68.363 11.3096 68.6835 11.3908C69.4063 11.5782 84.5849 20.39 84.5472 20.6024C84.5095 20.8147 68.7904 29.9263 68.5138 29.9263C68.4195 29.9263 68.363 25.7421 68.363 20.6086ZM38.3891 14.1324C34.0272 11.6344 30.4195 9.53602 30.3693 9.48606C30.319 9.4361 30.3693 9.29871 30.5201 9.17381C30.8029 8.87404 46.057 0.105891 46.4404 -0.00027628C46.7232 -0.0752177 46.7358 0.343205 46.7358 9.30495C46.7358 16.7429 46.6918 18.6726 46.5284 18.6726C46.365 18.6726 42.7447 16.6367 38.3891 14.1324ZM48.8162 18.5852C48.6213 18.3916 48.6779 0.162097 48.8727 0.0434396C49.0676 -0.0752177 65.0884 9.09262 65.0884 9.34867C65.0884 9.5048 49.9538 18.3167 49.187 18.6039C49.1299 18.634 49.0662 18.6497 49.0016 18.6497C48.9369 18.6497 48.8733 18.634 48.8162 18.6039V18.5852Z" fill="#34A9D8"/>
<path d="M38.4961 81.4359C34.197 78.9379 30.6773 76.8957 30.6773 76.827C30.6773 76.7583 46.2582 67.6967 46.4656 67.6967C46.5222 67.6967 46.5725 71.7997 46.5725 76.8145C46.5725 81.8294 46.5159 85.9324 46.4405 85.9324C46.3651 85.9324 42.7951 83.909 38.4961 81.4359ZM48.9734 85.8075C48.8163 85.6514 48.8414 67.8778 48.9734 67.7778C49.1054 67.6779 64.68 76.6022 64.68 76.8145C64.68 77.0269 49.3442 85.9262 49.118 85.9262C49.0628 85.9012 49.0136 85.865 48.9734 85.82V85.8075ZM29.37 65.5733C29.37 60.5772 29.414 56.4367 29.4706 56.4367C29.5272 56.4367 33.1034 58.4664 37.4213 60.9457C43.6185 64.5054 45.2275 65.4984 45.064 65.6545C44.9006 65.8106 30.0362 74.4539 29.6214 74.61C29.4014 74.6974 29.37 73.6795 29.37 65.5733ZM58.2063 70.2572C54.0141 67.8341 50.4944 65.7607 50.3813 65.6545C50.2681 65.5483 51.764 64.5429 58.0303 60.9457C62.3545 58.4476 65.9307 56.4367 65.981 56.4367C66.0313 56.4367 66.069 60.5398 66.069 65.5546C66.069 70.5694 66.0124 74.6725 65.9433 74.6662C65.8742 74.66 62.3922 72.6803 58.2 70.2572H58.2063ZM38.5401 58.9785C34.2599 56.5179 30.7402 54.4383 30.715 54.3633C30.6899 54.2884 45.8874 45.3704 46.3588 45.2579C46.5348 45.2142 46.5725 46.8754 46.5725 54.3321C46.5725 59.3282 46.5159 63.4562 46.4468 63.4562C46.3776 63.4562 42.8202 61.4391 38.5401 58.9785ZM48.9671 63.3501C48.8037 63.1877 48.8414 45.4203 49.0111 45.3204C49.1808 45.2205 64.636 54.0636 64.724 54.3134C64.7617 54.4258 52.3422 61.6826 49.1808 63.4C49.1452 63.4135 49.1063 63.4159 49.0693 63.407C49.0323 63.3981 48.9988 63.3782 48.9734 63.3501H48.9671ZM29.37 43.0909C29.37 34.6662 29.37 33.9668 29.6403 34.0604C29.7911 34.1166 33.3674 36.1526 37.5973 38.5757C43.7882 42.1354 45.2589 43.0347 45.0703 43.1971C44.8818 43.3594 29.546 52.2275 29.4329 52.2275C29.3197 52.2275 29.37 48.087 29.37 43.0909ZM58.156 47.756C53.9387 45.3141 50.4127 43.247 50.3247 43.1533C50.2367 43.0597 52.6691 41.5483 57.8669 38.5694C62.1031 36.1401 65.6856 34.1042 65.8239 34.0542C65.9622 34.0042 66.0753 34.966 66.0753 43.0909C66.0753 48.087 66.0187 52.2213 65.9496 52.2088C65.8804 52.1963 62.3733 50.1978 58.156 47.756ZM38.4269 13.9262C34.1719 11.4843 30.715 9.41719 30.7402 9.32976C30.803 9.12992 46.0759 0.305562 46.3651 0.299316C46.5285 0.299316 46.5725 2.21032 46.5725 9.32976C46.5725 16.4492 46.5159 18.3665 46.3651 18.3602C46.2142 18.354 42.682 16.368 38.4269 13.9262ZM48.8666 9.36723C48.8666 2.22906 48.9105 0.311807 49.074 0.318052C49.3631 0.318052 64.6486 9.1549 64.7114 9.3485C64.7743 9.5421 49.7905 18.1604 49.1871 18.3165C48.8728 18.4039 48.8666 18.2853 48.8666 9.36723Z" fill="#024561"/>
<path d="M46.6165 111.788C45.6093 111.499 44.6621 111.033 43.8196 110.414C43.1911 109.964 42.6443 109.352 42.6443 109.165C43.0112 108.7 43.4333 108.28 43.9013 107.916C44.1097 108.054 44.3053 108.211 44.4858 108.384C45.8183 109.558 46.9308 110.02 48.2569 109.951C50.4127 109.839 51.7075 108.29 51.1732 106.46C50.8464 105.336 49.9162 104.624 47.8421 103.9C45.328 103.032 44.2973 102.264 43.6185 100.84C43.3262 100.297 43.2119 99.6768 43.2917 99.0662C43.2295 98.0822 43.5164 97.1077 44.1024 96.3121C44.6657 95.6134 45.4147 95.0855 46.2645 94.7883C47.7589 94.3935 49.3434 94.5078 50.7647 95.1131C51.4265 95.4293 52.0317 95.8512 52.556 96.3621C52.2384 96.8968 51.8494 97.3863 51.3995 97.8172C51.1758 97.7251 50.9647 97.6055 50.771 97.4612C50.0097 96.8993 49.079 96.6108 48.1312 96.6431C47.667 96.5865 47.1961 96.6623 46.7736 96.8617C46.3601 97.0831 46.0173 97.4151 45.784 97.8202C45.5507 98.2253 45.4363 98.6873 45.4537 99.1537C45.4113 99.5381 45.495 99.9258 45.6926 100.259C46.0383 100.884 46.4782 101.133 48.1438 101.764C48.9357 102.064 49.8408 102.439 50.155 102.601C52.5937 103.819 53.7187 105.686 53.3793 107.953C53.2768 108.933 52.8347 109.847 52.1286 110.539C51.6195 111.041 51.0105 111.432 50.3405 111.687C49.6706 111.941 48.9545 112.055 48.2381 112.019C47.6907 112 47.147 111.923 46.6165 111.788Z" fill="#34A9D8"/>
<path d="M76.7411 101.071C76.2075 99.2152 75.1099 97.5684 73.5986 96.356C72.6956 95.6323 71.6569 95.0941 70.5428 94.7727C69.4287 94.4513 68.2614 94.3531 67.1088 94.4839C65.9561 94.6146 64.8412 94.9717 63.8286 95.5343C62.8161 96.0969 61.9261 96.8538 61.2105 97.7611C60.4819 98.7221 59.9229 99.7991 59.5575 100.946C59.2834 102.287 59.2473 103.665 59.4507 105.018C59.7144 106.246 60.2351 107.406 60.979 108.422C61.7228 109.437 62.6733 110.286 63.7686 110.913C64.6265 111.357 65.5394 111.687 66.4838 111.894C67.5799 112.033 68.6902 112.023 69.7835 111.863C71.418 111.524 72.9274 110.746 74.1467 109.612C75.366 108.479 76.2483 107.034 76.6971 105.436C77.0173 104 77.0323 102.513 76.7411 101.071ZM74.1265 106.217C73.6837 107.096 73.0561 107.87 72.2863 108.488C71.5164 109.105 70.6222 109.551 69.6641 109.795C68.6147 110.005 67.5323 109.988 66.4901 109.746C65.581 109.505 64.7325 109.078 63.9988 108.493C63.265 107.908 62.6622 107.178 62.2287 106.348C61.7116 105.403 61.4557 104.338 61.4871 103.263C61.4571 102.368 61.6212 101.477 61.9682 100.651C62.3152 99.8242 62.8371 99.0815 63.4983 98.4731C64.0796 97.8508 64.7865 97.3573 65.5728 97.0247C66.359 96.6922 67.207 96.5282 68.0614 96.5433C69.1771 96.4967 70.2835 96.7629 71.2542 97.3115C72.4763 97.9481 73.461 98.9571 74.0637 100.19C74.5609 101.116 74.8262 102.147 74.8372 103.196C74.8481 104.245 74.6043 105.281 74.1265 106.217Z" fill="#34A9D8"/>
<path d="M86.0306 111.787C85.141 111.536 84.2938 111.155 83.5165 110.657C82.888 110.226 82.1086 109.408 82.1086 109.221C82.2641 108.92 82.4777 108.652 82.7372 108.434L83.3657 107.809L83.7553 108.171C85.3455 109.658 86.9733 110.195 88.5761 109.764C89.1546 109.652 89.6787 109.35 90.0648 108.908C90.451 108.465 90.6769 107.907 90.7067 107.322C90.7519 106.926 90.6981 106.525 90.5501 106.155C90.4021 105.784 90.1645 105.456 89.8582 105.199C89.1586 104.553 88.3037 104.097 87.3756 103.875C84.9621 103.044 83.7491 102.214 83.1331 100.952C82.6159 99.7326 82.5889 98.3625 83.0577 97.1238C83.4034 96.3551 83.9558 95.696 84.6541 95.219C85.5201 94.7565 86.4837 94.5035 87.4666 94.4807C88.4496 94.4579 89.424 94.6659 90.3108 95.0879C90.9551 95.3807 91.5293 95.8065 91.9952 96.3369C91.7071 96.854 91.3403 97.3238 90.9078 97.7296C90.6749 97.6842 90.4582 97.5786 90.2793 97.4236C88.8777 96.4243 87.0048 96.262 85.8797 97.0489C85.5736 97.2905 85.3284 97.5998 85.1636 97.9522C84.9989 98.3045 84.9191 98.6902 84.9307 99.0785C84.9276 99.4129 84.9764 99.7457 85.0752 100.065C85.3078 100.627 85.9866 101.102 87.143 101.533C88.3327 101.915 89.4738 102.432 90.5433 103.075C91.3679 103.561 92.0271 104.281 92.4359 105.142C92.8448 106.004 92.9845 106.967 92.837 107.908C92.6895 108.849 92.2617 109.724 91.6086 110.421C90.9555 111.119 90.1072 111.605 89.1731 111.819C88.1349 112.029 87.0634 112.016 86.0306 111.781V111.787Z" fill="#34A9D8"/>
<path d="M1.26268 111.738C1.22497 111.7 1.18726 109.102 1.18726 105.967C1.18726 101.177 1.18726 100.271 1.33181 100.271C1.74484 100.642 2.11007 101.061 2.41914 101.521L3.36192 102.77V107.254V111.738H2.37515C2.00588 111.785 1.63195 111.785 1.26268 111.738Z" fill="#34A9D8"/>
<path d="M17.2334 111.738C17.1957 111.7 17.158 109.058 17.158 105.867C17.158 102.676 17.1202 100.072 17.0825 100.072C16.7253 100.464 16.3975 100.881 16.1021 101.321C15.6055 102.014 14.2605 103.763 13.1166 105.205C10.1752 108.921 10.3323 108.74 10.15 108.584C9.96775 108.428 4.4054 101.246 2.78383 98.9726L1.20626 96.7993V95.4004C1.1695 94.9317 1.20339 94.4602 1.30682 94.0015C1.45138 94.0015 1.72792 94.3449 6.15895 100.072C8.37132 102.932 10.2254 105.268 10.2757 105.268C10.326 105.268 12.2555 102.826 14.5685 99.8469C16.8814 96.868 18.8612 94.3262 18.9681 94.2263C19.0749 94.1264 19.2069 94.0452 19.2509 94.0951C19.2949 94.1451 19.3263 98.1357 19.3075 102.976V111.769H18.3207C17.9662 111.798 17.6094 111.783 17.2585 111.725L17.2334 111.738Z" fill="#34A9D8"/>
<path d="M26.0136 111.675C26.0136 111.606 25.9759 107.747 26.0136 103.107V94.6694H36.5852V96.6242L32.393 96.6741L28.2008 96.7241V102.076L31.9279 102.126L35.655 102.176V104.131L31.9279 104.181L28.2008 104.231V106.985V109.739H32.5501C36.7423 109.739 36.9057 109.739 37.0063 109.939C37.1323 110.473 37.1473 111.028 37.0503 111.569L36.9875 111.8H31.4942C27.2455 111.8 26.0513 111.8 26.0136 111.669V111.675Z" fill="#34A9D8"/>
<path d="M47.1129 111.788C46.1712 111.581 45.2706 111.22 44.448 110.72C43.7063 110.245 42.8516 109.471 42.8516 109.24C43.1203 108.786 43.4848 108.396 43.92 108.097C44.1931 108.266 44.4498 108.461 44.6868 108.678C46.6352 110.32 49.0487 110.551 50.5572 109.227C50.8606 108.983 51.097 108.667 51.2443 108.307C51.3916 107.948 51.4449 107.558 51.3994 107.172C51.4667 106.702 51.3667 106.223 51.1165 105.817C50.5949 104.943 49.6898 104.362 47.7917 103.713C45.6107 102.963 44.4417 102.139 43.8383 100.927C43.5816 100.421 43.4644 99.8568 43.4989 99.2911C43.3916 98.331 43.613 97.363 44.1274 96.5433C45.2273 94.8259 47.8545 94.1764 50.2932 95.0257C51.0563 95.3207 51.7559 95.7573 52.3547 96.3122C52.4176 96.4746 51.4936 97.7361 51.3679 97.6549L50.7394 97.2427C49.2373 96.2373 47.0123 96.2185 46.1073 97.2053C45.7756 97.5848 45.5444 98.0406 45.4347 98.5313C45.3249 99.022 45.3401 99.5321 45.4788 100.016C45.7579 100.601 46.2272 101.076 46.8112 101.365C46.9935 101.446 47.8043 101.77 48.615 102.083C49.3433 102.362 50.0547 102.683 50.7457 103.044C51.6582 103.599 52.4165 104.372 52.9518 105.293C53.2472 105.88 53.2598 105.967 53.2598 107.166C53.3224 107.801 53.2386 108.442 53.0146 109.04C52.5763 109.929 51.8945 110.678 51.0474 111.201C49.8313 111.805 48.4525 112.006 47.1129 111.775V111.788Z" fill="#024561"/>
<path d="M76.6216 101.239C76.2158 99.6304 75.365 98.1665 74.1654 97.0132C72.9658 95.8599 71.4653 95.0631 69.8337 94.7131C68.7001 94.5468 67.5481 94.5468 66.4145 94.7131C64.9306 95.0457 63.5502 95.7315 62.392 96.7116C61.0897 97.9211 60.148 99.4639 59.6706 101.171C59.4174 102.543 59.4174 103.951 59.6706 105.324C60.032 106.869 60.8506 108.272 62.0212 109.352C63.2857 110.677 64.9525 111.555 66.7665 111.85C67.9742 111.975 69.1942 111.907 70.3805 111.65C71.8889 111.246 73.2621 110.451 74.359 109.346C75.4558 108.241 76.2368 106.865 76.6216 105.361C76.9086 104.002 76.9086 102.598 76.6216 101.239ZM74.2144 106.342C73.7622 107.198 73.1388 107.954 72.3822 108.563C71.6257 109.172 70.7521 109.621 69.8148 109.883C68.6742 110.181 67.4743 110.173 66.3379 109.859C65.2015 109.545 64.1695 108.937 63.3474 108.096C62.5448 107.311 61.949 106.342 61.6127 105.274C61.2662 104.052 61.2316 102.764 61.5121 101.527C61.9709 99.9457 62.9488 98.5629 64.2902 97.5984C65.2719 96.9047 66.4265 96.4925 67.628 96.4066C68.8295 96.3207 70.0317 96.5644 71.1033 97.1112C72.3727 97.7895 73.4246 98.8088 74.139 100.053C74.6546 101.019 74.9304 102.094 74.9435 103.188C74.9567 104.282 74.7067 105.363 74.2144 106.342Z" fill="#024561"/>
<path d="M86.3952 111.75C85.5107 111.55 84.6626 111.215 83.8811 110.757C83.2212 110.371 82.6462 109.857 82.1904 109.246C82.4636 108.796 82.8248 108.405 83.2526 108.096C83.5348 108.256 83.7983 108.447 84.0383 108.665C86.1501 110.413 88.7018 110.538 90.1034 109.014C90.3402 108.787 90.5241 108.511 90.6424 108.206C90.7607 107.901 90.8106 107.573 90.7885 107.247C90.8257 106.908 90.7888 106.565 90.6803 106.242C90.5718 105.919 90.3944 105.622 90.16 105.374C89.5315 104.693 88.9344 104.343 87.2311 103.712C85.2764 102.988 84.5914 102.619 83.9377 101.939C83.5866 101.595 83.3075 101.186 83.1165 100.735C82.9256 100.284 82.8266 99.7991 82.8252 99.3095C82.6618 96.4805 84.4342 94.6881 87.4134 94.6632C88.8623 94.6038 90.2819 95.0799 91.3982 95.9996L91.8193 96.3618L91.5427 96.7365C91.3919 96.9426 91.1468 97.2361 91.0022 97.3923L90.7445 97.6733L90.3988 97.411C88.8527 96.2369 86.5649 96.112 85.5279 97.1362C85.2572 97.4029 85.0457 97.7229 84.9072 98.0757C84.7686 98.4285 84.706 98.8063 84.7233 99.1846C84.6881 99.3928 84.6972 99.606 84.7503 99.8105C84.8034 100.015 84.8991 100.206 85.0313 100.371C85.4273 100.933 86.0998 101.339 87.4762 101.839C90.8577 103.088 92.3158 104.368 92.6615 106.448C92.7687 107.163 92.7113 107.893 92.4936 108.583C92.2759 109.273 91.9035 109.906 91.4045 110.432C90.7381 111.036 89.9346 111.472 89.0624 111.701C88.1903 111.931 87.2752 111.947 86.3952 111.75Z" fill="#024561"/>
<path d="M1.38211 111.631C1.26898 111.519 1.29412 100.478 1.38211 100.478C1.74677 100.845 2.07706 101.244 2.36888 101.67L3.26137 102.863V107.235V111.606H2.37516C2.05619 111.635 1.73483 111.62 1.41982 111.563L1.38211 111.631Z" fill="#024561"/>
<path d="M17.334 111.631C17.29 111.588 17.2648 108.915 17.2648 105.686C17.2648 102.189 17.2648 99.8032 17.1768 99.7845C16.7695 100.19 16.4071 100.638 16.0958 101.121C15.5553 101.87 14.3736 103.419 13.4686 104.556C12.5635 105.692 11.5013 107.054 11.0991 107.56C10.8609 107.905 10.5824 108.222 10.2694 108.503C10.1437 108.503 5.02764 101.864 2.89697 98.9351L1.36339 96.7993L1.32568 95.5503C1.32568 94.5261 1.32568 94.3013 1.42625 94.3013C1.52681 94.3013 2.1239 95.0444 7.04517 101.414C8.99985 103.913 10.1877 105.399 10.2883 105.38C10.3889 105.361 12.3624 102.882 14.6879 99.8532C17.0134 96.8243 19.0121 94.3325 19.0875 94.3138C19.1629 94.295 19.2132 96.0249 19.1881 102.951V111.631H18.3019C17.9808 111.661 17.6572 111.647 17.3402 111.588L17.334 111.631Z" fill="#024561"/>
<path d="M26.1142 111.569C26.1142 111.5 26.0765 107.691 26.1142 103.1V94.7632H36.4595V96.5118H32.2485H28.0374L27.9746 96.7429C27.8929 97.0427 27.8929 101.639 27.9746 101.939L28.0374 102.17H31.8085H35.5796V103.919H31.8085H28.0374L27.9746 104.15C27.9431 104.275 27.9117 105.524 27.9117 106.922C27.9117 109.096 27.9117 109.483 28.0751 109.627C28.2386 109.77 28.7665 109.789 32.5313 109.789H36.8241V111.538H31.5068C27.3335 111.538 26.1582 111.538 26.1205 111.406L26.1142 111.569Z" fill="#024561"/>
<path d="M0.634277 88.9615L2.88436 83.1348H3.72028L6.12121 88.9615H5.24129L4.55621 87.1941H2.105L1.47649 88.9615H0.634277ZM2.32498 86.5696H4.31737L3.68886 84.9583C3.5003 84.4671 3.36203 84.0632 3.27404 83.7468C3.19848 84.1249 3.09341 84.4965 2.95978 84.8584L2.32498 86.5696Z" fill="#024561"/>
<path d="M6.64917 90.5541V84.7149H7.27768V85.2645C7.41344 85.0677 7.59165 84.9034 7.79935 84.7836C8.01815 84.6698 8.26273 84.6139 8.50957 84.6212C8.85144 84.6154 9.18696 84.7134 9.4712 84.9023C9.75522 85.0962 9.97416 85.3703 10.0997 85.6892C10.2446 86.0419 10.3172 86.4198 10.3134 86.8008C10.3203 87.2021 10.241 87.6002 10.0809 87.9686C9.95219 88.2978 9.72657 88.5808 9.43349 88.7805C9.15395 88.9587 8.8291 89.054 8.497 89.0553C8.27838 89.0566 8.06271 89.0051 7.86849 88.9054C7.68639 88.8124 7.52583 88.6826 7.3971 88.5244V90.5541H6.64917ZM7.27768 86.8508C7.24344 87.2789 7.36131 87.7054 7.6108 88.0561C7.70642 88.1772 7.82858 88.275 7.968 88.3421C8.10741 88.4092 8.26039 88.4438 8.4153 88.4433C8.57462 88.4425 8.73166 88.4056 8.87439 88.3352C9.01711 88.2649 9.14171 88.163 9.23865 88.0373C9.49401 87.6726 9.61398 87.2311 9.57805 86.7883C9.61061 86.3584 9.49295 85.9305 9.24494 85.5767C9.1519 85.4535 9.03145 85.3533 8.89298 85.2839C8.75451 85.2146 8.60178 85.178 8.44672 85.1771C8.28679 85.1804 8.12982 85.2205 7.98807 85.2942C7.84633 85.3679 7.72366 85.4731 7.62965 85.6017C7.37394 85.9729 7.25821 86.4219 7.30283 86.8695L7.27768 86.8508Z" fill="#024561"/>
<path d="M13.9838 88.4371C13.7552 88.6378 13.4937 88.7983 13.2107 88.9117C12.9574 89.0049 12.689 89.0515 12.4188 89.0491C12.0306 89.0751 11.6469 88.9547 11.3441 88.7119C11.2215 88.6031 11.1243 88.4691 11.0592 88.3191C10.9941 88.1692 10.9626 88.007 10.967 87.8438C10.9652 87.6452 11.015 87.4494 11.1115 87.2755C11.2001 87.1106 11.3273 86.9692 11.4823 86.8633C11.64 86.7569 11.8141 86.6768 11.9977 86.626C12.2048 86.5778 12.4147 86.5423 12.6262 86.5198C13.0522 86.4794 13.4732 86.3978 13.8833 86.2763C13.8833 86.1764 13.8833 86.1139 13.8833 86.0889C13.8965 85.9766 13.8854 85.8628 13.8507 85.7551C13.816 85.6473 13.7585 85.5482 13.6821 85.4644C13.4487 85.2871 13.1582 85.2005 12.8651 85.2209C12.6035 85.2002 12.342 85.2613 12.1171 85.3957C11.9295 85.5572 11.8031 85.7775 11.7589 86.0202L11.0549 85.9266C11.1024 85.6643 11.2099 85.4164 11.3692 85.2021C11.5347 85.005 11.7524 84.8579 11.9977 84.7775C12.3072 84.6729 12.6325 84.6222 12.9593 84.6276C13.2598 84.617 13.5599 84.6593 13.8455 84.7525C14.0382 84.8134 14.2115 84.9232 14.3484 85.071C14.4622 85.2128 14.5399 85.38 14.5746 85.5581C14.6055 85.7773 14.6181 85.9988 14.6123 86.2201V87.1756C14.6011 87.5924 14.6158 88.0096 14.6563 88.4246C14.6877 88.6023 14.7493 88.7734 14.8386 88.9305H14.0844C14.0235 88.7727 13.9895 88.606 13.9838 88.4371ZM13.921 86.8383C13.5408 86.9721 13.1465 87.0622 12.7456 87.1069C12.5312 87.1298 12.3202 87.1781 12.1171 87.2505C12.0019 87.2979 11.9034 87.3784 11.8343 87.4816C11.7479 87.6088 11.7117 87.7632 11.7326 87.9152C11.7535 88.0673 11.8299 88.2063 11.9474 88.3059C12.1265 88.4439 12.3498 88.5127 12.5759 88.4995C12.8348 88.5045 13.0905 88.4421 13.3176 88.3184C13.5251 88.208 13.6922 88.0354 13.7953 87.8251C13.8837 87.5963 13.9223 87.3515 13.9084 87.1069L13.921 86.8383Z" fill="#024561"/>
<path d="M18.5408 87.4315L19.251 87.5252C19.197 87.9634 18.9848 88.3672 18.6539 88.6618C18.3273 88.9396 17.9083 89.0866 17.4786 89.074C17.2176 89.0845 16.9574 89.0393 16.7156 88.9412C16.4738 88.8432 16.256 88.6946 16.077 88.5057C15.6978 88.0518 15.5088 87.4704 15.549 86.8819C15.5393 86.4709 15.6164 86.0624 15.7753 85.6829C15.9129 85.3572 16.1563 85.0868 16.4667 84.9147C16.7763 84.7445 17.1247 84.6563 17.4786 84.6587C17.885 84.6423 18.2846 84.7659 18.6099 85.0084C18.9141 85.2571 19.1154 85.6083 19.1756 85.9951L18.4779 86.1013C18.4301 85.8613 18.3068 85.6427 18.1259 85.4768C17.9504 85.3305 17.7263 85.2548 17.4974 85.2644C17.33 85.2589 17.1634 85.2908 17.01 85.3579C16.8566 85.4249 16.7203 85.5253 16.6112 85.6516C16.3524 86.0147 16.2321 86.4575 16.2718 86.9007C16.2285 87.3423 16.3443 87.7849 16.5986 88.1497C16.702 88.2747 16.8328 88.3745 16.9809 88.4416C17.1291 88.5087 17.2907 88.5413 17.4534 88.5369C17.7146 88.5458 17.9691 88.4541 18.1636 88.2808C18.3914 88.0542 18.5258 87.7514 18.5408 87.4315Z" fill="#024561"/>
<path d="M19.8606 88.9615V83.1348H20.5834V85.2269C20.7361 85.0431 20.9282 84.8956 21.1457 84.7951C21.3632 84.6946 21.6006 84.6437 21.8404 84.6461C22.1242 84.6404 22.4049 84.7048 22.6575 84.8334C22.8761 84.944 23.051 85.1243 23.154 85.3455C23.2694 85.6483 23.3208 85.9714 23.3049 86.2948V88.9677H22.6323V86.2948C22.6576 86.0147 22.5744 85.7355 22.3998 85.5142C22.313 85.43 22.2095 85.3648 22.0958 85.3229C21.9821 85.2809 21.8609 85.2631 21.7399 85.2706C21.5191 85.2647 21.3012 85.321 21.1113 85.433C20.9308 85.5345 20.7894 85.6926 20.7091 85.8826C20.6189 86.1327 20.5783 86.3978 20.5897 86.6633V88.974L19.8606 88.9615Z" fill="#024561"/>
<path d="M27.3274 87.6001L28.069 87.6938C27.9792 88.0896 27.7578 88.4438 27.4405 88.6993C27.0308 88.9652 26.5438 89.0886 26.0559 89.0502C25.568 89.0118 25.1067 88.8137 24.7442 88.4869C24.358 88.0459 24.1616 87.4717 24.1974 86.8882C24.1598 86.2863 24.358 85.6932 24.7505 85.2332C24.9338 85.0401 25.1564 84.8878 25.4035 84.7866C25.6505 84.6854 25.9164 84.6375 26.1835 84.6462C26.4439 84.6369 26.7033 84.6834 26.9441 84.7825C27.1848 84.8817 27.4013 85.0311 27.5788 85.2207C27.9631 85.6724 28.1567 86.2542 28.1193 86.8445C28.1193 86.8882 28.1193 86.9506 28.1193 87.0381H24.9767C24.9742 87.4299 25.1149 87.8094 25.3727 88.106C25.4862 88.2256 25.6238 88.3203 25.7764 88.3837C25.9291 88.4472 26.0935 88.4781 26.2589 88.4744C26.5019 88.4822 26.7406 88.4097 26.9377 88.2684C27.1292 88.0872 27.2645 87.8553 27.3274 87.6001ZM24.9642 86.4448H27.34C27.3328 86.1574 27.2386 85.8788 27.0697 85.6454C26.963 85.5129 26.827 85.4068 26.6721 85.3353C26.5173 85.2638 26.3479 85.2288 26.1772 85.2332C26.0226 85.2294 25.8688 85.2567 25.7251 85.3136C25.5814 85.3705 25.4509 85.4558 25.3413 85.5642C25.1079 85.7997 24.9731 86.1144 24.9642 86.4448Z" fill="#024561"/>
<path d="M92.9506 91.8031V90.2793H92.3975V90.0732H93.7739V90.2793H93.202V91.8031H92.9506Z" fill="#024561"/>
<path d="M93.9812 91.8032V90.0796H94.3269L94.7354 91.3286L94.8171 91.5847L94.9114 91.3099L95.3262 90.1108H95.6342V91.8032H95.4142V90.3606L94.9114 91.8032H94.704L94.2012 90.3356V91.8032H93.9812Z" fill="#024561"/>
</svg>
