<svg width="283" height="112" viewBox="0 0 283 112" fill="none" xmlns="http://www.w3.org/2000/svg">
<g clip-path="url(#clip0_874_20308)">
<path d="M282.129 52.5737C281.952 52.8518 281.699 53.0747 281.401 53.2168C281.103 53.3589 280.77 53.4144 280.441 53.377C279.158 53.3466 277.874 53.377 276.584 53.377C275.294 53.377 275.086 53.0727 275.086 51.9043C275.086 46.5895 275.086 41.2747 275.086 35.9599C275.081 34.9943 274.924 34.0354 274.621 33.1179C274.502 32.622 274.227 32.1772 273.835 31.8486C273.443 31.5201 272.956 31.3251 272.445 31.2922C271.891 31.2289 271.331 31.3361 270.84 31.5994C270.35 31.8628 269.952 32.2695 269.7 32.7649C268.954 34.1199 268.57 35.6438 268.588 37.1892C268.557 42.0577 268.588 46.9262 268.588 51.7947C268.588 52.951 268.307 53.2309 267.145 53.2309C265.684 53.2309 264.223 53.2309 262.756 53.2309C261.912 53.2309 261.533 52.8597 261.533 52.0138C261.533 43.4939 261.533 34.9598 261.533 26.4115C261.533 25.5413 261.906 25.1944 262.792 25.1944C264.166 25.1944 265.539 25.1944 266.913 25.1944C267.836 25.1944 268.172 25.5474 268.178 26.4724C268.184 27.3974 268.178 28.2981 268.178 29.29C268.484 28.9456 268.726 28.55 268.893 28.1216C269.269 27.3369 269.81 26.6421 270.48 26.0845C271.15 25.5268 271.933 25.1195 272.775 24.8901C277.22 23.7886 281.102 25.9916 281.756 30.4828C281.923 31.3679 282.008 32.2661 282.012 33.1666C282.012 33.337 282.012 33.5256 282.141 33.6595L282.129 52.5737Z" fill="#201C1D"/>
<path d="M155.04 28.6023C156.556 25.9733 158.647 24.5615 161.765 24.6041C164.883 24.6467 166.753 26.4298 168.062 29.1744C168.367 28.6693 168.606 28.2372 168.875 27.8234C169.474 26.9382 170.261 26.1947 171.181 25.6451C172.1 25.0955 173.129 24.7533 174.196 24.6425C175.262 24.5317 176.34 24.655 177.354 25.0037C178.367 25.3525 179.292 25.9182 180.062 26.661C181.165 27.7529 181.819 29.2157 181.896 30.7627C182.214 34.3228 181.988 37.8951 182.024 41.4613C182.061 45.0275 182.024 48.4719 182.024 51.9773C182.024 52.9266 181.749 53.1944 180.802 53.1944H176.149C175.385 53.1944 174.982 52.8353 174.976 52.0929C174.976 47.2609 174.945 42.435 174.976 37.603C175.007 36.228 174.958 34.8524 174.829 33.483C174.639 31.706 173.087 30.8905 171.454 31.3165C170.807 31.4749 170.223 31.8259 169.781 32.3227C169.338 32.8195 169.059 33.4386 168.979 34.0977C168.779 35.1098 168.685 36.1396 168.697 37.1709C168.697 42.0394 168.697 46.8714 168.697 51.7217C168.697 52.9388 168.422 53.1883 167.218 53.1883H163.03C161.961 53.1883 161.649 52.884 161.649 51.8251C161.649 46.774 161.649 41.725 161.649 36.678C161.732 35.6051 161.666 34.5259 161.453 33.4708C161.333 32.8952 161.031 32.3731 160.591 31.981C160.15 31.5889 159.596 31.3475 159.008 31.2922C158.357 31.2272 157.704 31.3798 157.15 31.7258C156.597 32.0719 156.175 32.5917 155.951 33.2031C155.641 34.0697 155.47 34.9795 155.444 35.899C155.169 41.3396 155.401 46.7801 155.322 52.2207C155.322 52.9814 155.065 53.2431 154.282 53.2492C152.73 53.2492 151.183 53.2492 149.63 53.2492C148.664 53.2492 148.407 52.9996 148.407 52.032C148.407 46.8065 148.407 41.581 148.407 36.3554C148.407 33.0489 148.407 29.7404 148.407 26.4298C148.407 25.383 148.609 25.2126 149.63 25.2126H153.909C154.777 25.2126 155.071 25.5048 155.077 26.3507C155.083 27.1966 155.04 27.8599 155.04 28.6023Z" fill="#201C1D"/>
<path d="M208.085 38.7349C208.085 40.4997 208.122 41.9542 208.085 43.4086C208.05 45.0934 208.663 46.7278 209.797 47.9789C209.933 48.0993 210.039 48.2499 210.106 48.4186C210.173 48.5873 210.2 48.7694 210.183 48.9501C210.166 49.1309 210.107 49.3051 210.01 49.4589C209.913 49.6126 209.782 49.7415 209.625 49.8351C208.623 50.6931 207.633 51.5695 206.673 52.4762C205.554 53.5412 205.169 53.5534 204.05 52.4762C203.408 51.9038 202.844 51.2489 202.375 50.5288C202.112 50.0785 201.898 50.0359 201.55 50.4375C199.832 52.2691 197.467 53.3645 194.954 53.4925C193.542 53.6185 192.119 53.457 190.772 53.0178C189.644 52.6153 188.646 51.9152 187.886 50.9924C187.126 50.0696 186.632 48.9586 186.456 47.7781C185.977 45.7596 186.144 43.6425 186.933 41.7229C187.429 40.555 188.18 39.512 189.131 38.6697C190.083 37.8275 191.212 37.2073 192.435 36.8544C194.586 36.2198 196.789 35.7738 199.019 35.5216C199.527 35.5358 200.036 35.495 200.535 35.3999C200.78 35.3147 200.908 35.2295 200.92 34.9618C200.985 33.9053 200.869 32.8456 200.578 31.8277C200.034 30.1359 198.047 29.649 196.873 29.8498C196.068 29.96 195.317 30.3186 194.728 30.8753C194.138 31.4321 193.738 32.1588 193.584 32.9535C193.376 33.7568 193.01 33.9455 192.184 33.8298C190.901 33.6473 189.611 33.4951 188.315 33.3917C187.318 33.3126 186.884 32.844 187.092 31.8946C187.359 30.4378 188 29.0745 188.952 27.9368C189.904 26.7991 191.136 25.9257 192.527 25.4012C195.728 24.0355 199.327 23.9139 202.614 25.0604C206.165 26.3445 207.755 28.3771 207.95 32.4423C208.079 34.6453 208.048 36.8422 208.085 38.7349ZM200.902 41.5099C200.902 41.0231 200.902 40.5423 200.902 40.0554C200.902 39.7025 200.725 39.5443 200.413 39.6173C199.636 39.8059 198.836 39.6903 198.053 39.8668C196.788 40.1528 195.541 40.518 194.703 41.5403C194.136 42.2185 193.769 43.04 193.642 43.9134C193.516 44.7869 193.636 45.6781 193.988 46.488C194.158 46.9627 194.454 47.3831 194.844 47.7051C196.457 49.0318 198.585 48.0337 199.441 46.8653C200.515 45.2925 201.029 43.4073 200.902 41.5099Z" fill="#201C1D"/>
<path d="M142.545 37.7006C142.545 39.5262 142.545 41.3519 142.545 43.1776C142.519 44.9337 143.158 46.6352 144.336 47.9427C144.456 48.0567 144.551 48.1946 144.614 48.3475C144.677 48.5003 144.708 48.6646 144.703 48.8298C144.698 48.995 144.659 49.1575 144.587 49.3065C144.516 49.4556 144.413 49.5881 144.287 49.6953C143.065 50.807 141.832 51.9024 140.589 52.9816C140.383 53.1667 140.113 53.2651 139.836 53.256C139.559 53.2469 139.296 53.1311 139.103 52.9329C138.223 52.2006 137.459 51.3411 136.835 50.383C136.646 50.1274 136.56 49.9449 136.224 50.2917C134.681 52.0435 132.539 53.1625 130.214 53.4319C127.549 53.7179 124.927 53.5232 122.879 51.4541C121.713 50.2097 120.997 48.6146 120.843 46.9203C120.628 45.5298 120.72 44.1094 121.112 42.7577C121.49 41.3394 122.237 40.0451 123.277 39.0047C124.316 37.9643 125.613 37.2144 127.036 36.8303C129.168 36.2063 131.35 35.7645 133.558 35.5097C134.066 35.5205 134.574 35.4818 135.075 35.3941C135.356 35.3028 135.478 35.1933 135.478 34.9012C135.514 33.8916 135.409 32.8819 135.166 31.9009C134.702 30.2335 132.721 29.6067 131.462 29.844C129.677 30.1787 128.478 31.1768 128.148 33.045C128.126 33.1808 128.076 33.3107 128.001 33.4266C127.927 33.5426 127.829 33.6423 127.715 33.7197C127.601 33.7971 127.472 33.8505 127.336 33.8768C127.2 33.9031 127.061 33.9017 126.926 33.8727C125.575 33.6901 124.223 33.5136 122.872 33.3737C121.858 33.2702 121.521 32.8321 121.76 31.8401C122.75 27.6714 125.55 25.4441 129.621 24.653C131.87 24.1365 134.212 24.1825 136.438 24.7868C138.528 25.3954 140.472 26.3509 141.591 28.3956C142.19 29.521 142.509 30.7733 142.52 32.047C142.582 33.9518 142.545 35.8262 142.545 37.7006ZM128.332 44.6443C128.254 45.3967 128.403 46.1551 128.76 46.8229C128.999 47.3094 129.381 47.7129 129.854 47.981C130.327 48.249 130.87 48.3693 131.413 48.3261C132.096 48.2498 132.747 47.9997 133.305 47.6001C133.863 47.2004 134.308 46.6645 134.598 46.044C135.435 44.1309 135.745 42.0303 135.496 39.9583C135.496 39.648 135.27 39.5871 135.038 39.6297C134.011 39.7102 132.991 39.8524 131.981 40.0557C129.615 40.7373 128.215 42.07 128.332 44.6443Z" fill="#201C1D"/>
<path d="M235.203 39.4107C235.136 35.9054 235.711 32.8078 237.331 29.9597C238.951 27.1116 241.304 25.2494 244.63 24.7747C247.173 24.318 249.796 24.7982 252.009 26.1258C254.026 27.4151 255.581 29.3067 256.453 31.5298C257.642 34.4042 258.141 37.5155 257.908 40.6157C257.822 43.7227 256.83 46.7378 255.053 49.2938C254.124 50.6641 252.873 51.7872 251.407 52.5648C249.942 53.3424 248.308 53.7509 246.647 53.7545C245.198 53.8243 243.751 53.5746 242.41 53.0234C241.069 52.4721 239.867 51.6329 238.89 50.5657C237.168 48.6315 236.032 46.2514 235.613 43.7011C235.293 42.2942 235.156 40.8524 235.203 39.4107ZM247.002 48.3383C247.391 48.2886 247.765 48.1537 248.096 47.9433C248.427 47.7328 248.706 47.4521 248.915 47.1212C250.059 45.5694 250.26 43.7498 250.327 41.9362C250.443 40.2955 250.457 38.6493 250.37 37.0069C250.278 35.4108 250.004 33.8305 249.551 32.2966C249.031 30.7082 247.717 30.1484 246.201 30.1301C244.978 30.1301 244.233 30.8665 243.682 31.8767C242.971 33.3673 242.623 35.0041 242.668 36.6539C242.538 38.872 242.622 41.0973 242.918 43.2994C243.057 44.4972 243.417 45.659 243.982 46.7256C244.55 47.7298 245.351 48.3627 247.002 48.3383Z" fill="#201C1D"/>
<path d="M223.24 30.8726H215.25C214.412 30.8726 214.106 30.7022 214.027 29.9049C213.874 28.5725 213.874 27.227 214.027 25.8945C214.119 25.2494 214.516 25.0547 215.085 25.0547H230.838C232 25.0547 232.281 25.3346 232.281 26.4848C232.281 27.0934 232.238 27.7019 232.281 28.2679C232.347 29.4386 231.974 30.5921 231.236 31.5055C229.481 33.9762 227.788 36.4896 226.076 38.9847L223.062 43.3846C222.965 43.5246 222.769 43.6524 222.848 43.841C222.928 44.0297 223.197 43.9749 223.38 43.9688C226.28 43.915 229.147 44.5933 231.713 45.9406C232.05 46.0815 232.335 46.3224 232.53 46.6306C232.725 46.9388 232.819 47.2992 232.801 47.6628C232.801 48.9165 232.801 50.1762 232.801 51.4298C232.801 52.3792 232.189 52.7747 231.315 52.3609C229.467 51.4357 227.481 50.8111 225.434 50.5109C222.253 50.0568 219.008 50.4625 216.038 51.6854C215.427 51.941 214.816 52.2453 214.155 52.4826C214.038 52.5293 213.911 52.5483 213.784 52.5382C213.658 52.5281 213.536 52.4891 213.427 52.4244C213.318 52.3597 213.226 52.2708 213.157 52.1649C213.088 52.0589 213.045 51.9386 213.031 51.8132C213.031 50.0545 212.847 48.2896 213.141 46.5431C213.36 45.6892 213.765 44.8936 214.327 44.2123C217.179 39.9969 220.032 35.7857 222.885 31.5785C223.058 31.3743 223.179 31.1324 223.24 30.8726Z" fill="#201C1D"/>
<path d="M64.5093 111.976H65.8787L88.2104 100.857L88.5833 100.334V11.6296L88.2104 11.1063L65.8787 0H64.491V111.976" fill="#5294CF"/>
<path d="M35.4469 111.976H34.0653L11.7519 100.857L11.2996 100.084L11.0673 12.0861L11.7519 11.1063L34.0653 0H35.4713V111.976" fill="#1F5B98"/>
<path d="M34.1021 0H65.8542V111.976H34.1021V0Z" fill="#2D72B8"/>
<path d="M99.8927 53.4805L99.1408 53.3162L88.3693 52.3364L88.2103 52.4155L65.8603 51.527H34.102L11.752 52.3972V35.4305V35.3818L34.102 30.2273H65.8542L88.2042 35.3818L96.4204 39.727V36.9458L99.8927 36.5685L99.5321 35.8687L88.5282 28.0425L88.192 28.1521L65.8542 21.2571H34.102L11.752 28.1521V11.1123L0.0634766 24.738V36.6415L0.155175 36.5746L3.5358 36.9397V39.7939L0.0634766 41.6439V53.4927H0.155175L3.5358 53.5535V58.5255L0.619782 58.5681L0.0634766 58.495V70.3438L3.5358 72.1999V75.0845L0.210194 75.4618L0.0634766 75.3462V87.2497L11.752 100.881V83.8417L34.102 90.7367H65.8542L88.2715 83.8235L88.571 83.9512L99.422 76.2408L99.8989 75.474L96.4265 75.0906V72.2607L95.9742 72.0782L88.5405 76.0704L88.2715 76.6302L65.8542 81.7543H34.102L11.752 76.6059V59.5661L34.102 60.4546H65.8542L88.2042 59.5479L88.7116 59.7791L99.153 58.8845L99.8927 58.5255L96.4204 58.4768V53.5535L99.8927 53.5048" fill="#1A476F"/>
<path d="M88.2042 83.8417V100.882L99.8928 87.2497V75.4253L88.2776 83.8235H88.2103" fill="#2D72B8"/>
<path d="M88.2042 76.6423H88.2715L99.8866 70.4227V58.501L88.1981 59.572V76.6118" fill="#2D72B8"/>
<path d="M88.2715 35.4062H88.2042V52.3973L99.8928 53.4867V41.5893L88.2776 35.4062" fill="#2D72B8"/>
<path d="M88.2715 28.2192L99.8866 36.5687V24.7383L88.1981 11.1064V28.1462H88.2654V28.1888" fill="#2D72B8"/>
<path d="M122.781 86.0934V63.4487H129.346C137.734 63.4487 141.927 67.1285 141.927 74.4881C141.927 77.9853 140.764 80.7928 138.437 82.9106C136.11 85.0284 132.982 86.0893 129.053 86.0934H122.781ZM126.54 66.6193V82.9045H129.554C132.207 82.9045 134.272 82.1783 135.747 80.7258C137.222 79.2734 137.96 77.2205 137.96 74.5672C137.96 69.2727 135.205 66.6254 129.695 66.6254L126.54 66.6193Z" fill="#201C1D"/>
<path d="M159.747 69.9238L152.412 88.6858C150.891 92.041 148.756 93.7187 146.005 93.7187C145.353 93.7317 144.702 93.6622 144.067 93.5117V90.4689C144.578 90.6469 145.115 90.7435 145.656 90.755C146.31 90.7602 146.951 90.5706 147.495 90.2106C148.04 89.8505 148.464 89.3364 148.713 88.7345L149.807 86.0812L143.376 69.9238H147.454L151.323 81.6752C151.364 81.8212 151.46 82.2107 151.611 82.8436H151.672C151.725 82.6002 151.821 82.2209 151.959 81.7056L156.018 69.9238H159.747Z" fill="#201C1D"/>
<path d="M176.388 86.0937H172.72V76.9652C172.72 73.9427 171.646 72.4314 169.498 72.4314C168.971 72.4196 168.447 72.5262 167.967 72.7432C167.486 72.9602 167.061 73.2821 166.723 73.685C165.976 74.5684 165.586 75.6962 165.628 76.8496V86.0754H161.96V69.9241H165.628V72.6079H165.69C166.197 71.6633 166.959 70.8782 167.89 70.3407C168.821 69.8032 169.883 69.5346 170.959 69.5651C171.721 69.5166 172.485 69.6466 173.187 69.9446C173.89 70.2426 174.513 70.7004 175.006 71.2812C175.935 72.4253 176.4 74.0766 176.4 76.2349L176.388 86.0937Z" fill="#201C1D"/>
<path d="M192.918 86.0937H189.348V83.5681H189.287C188.823 84.4661 188.114 85.2152 187.241 85.7289C186.368 86.2425 185.367 86.4998 184.353 86.471C182.979 86.5509 181.629 86.0847 180.6 85.1747C180.145 84.7302 179.789 84.1954 179.555 83.6052C179.322 83.0149 179.215 82.3824 179.243 81.7485C179.243 78.6935 181.009 76.9145 184.543 76.4114L189.366 75.7298C189.366 73.4254 188.266 72.2732 186.065 72.2732C184.136 72.2671 182.273 72.9691 180.832 74.2449V71.0378C182.635 70.0035 184.688 69.4795 186.768 69.5225C190.872 69.5225 192.924 71.5328 192.924 75.5533L192.918 86.0937ZM189.366 78.1519L185.955 78.6266C185.109 78.6918 184.29 78.9545 183.565 79.3934C183.278 79.6296 183.055 79.9328 182.916 80.2758C182.776 80.6189 182.724 80.991 182.764 81.359C182.755 81.6759 182.817 81.9908 182.945 82.2811C183.073 82.5715 183.264 82.8301 183.504 83.0387C184.055 83.4974 184.76 83.7321 185.478 83.6959C185.999 83.708 186.516 83.6095 186.996 83.407C187.476 83.2045 187.906 82.9026 188.26 82.5214C189.002 81.7152 189.397 80.6509 189.36 79.5577L189.366 78.1519Z" fill="#201C1D"/>
<path d="M221.155 86.0935H217.487V77.2876C217.487 75.5918 217.247 74.3746 216.766 73.6362C216.498 73.2461 216.129 72.9347 215.699 72.7345C215.269 72.5344 214.793 72.4527 214.32 72.4982C213.824 72.5121 213.339 72.6511 212.912 72.9023C212.484 73.1535 212.127 73.5086 211.875 73.9344C211.185 74.9494 210.833 76.154 210.866 77.3789V86.13H207.198V77.0016C207.198 73.9912 206.131 72.4861 203.995 72.4861C203.505 72.4876 203.024 72.613 202.597 72.8504C202.169 73.0877 201.809 73.4293 201.55 73.8431C200.869 74.8896 200.534 76.1214 200.59 77.3667V86.1179H196.922V69.924H200.59V72.48H200.651C201.147 71.5653 201.889 70.806 202.794 70.2869C203.699 69.7679 204.73 69.5095 205.774 69.5406C206.829 69.5208 207.862 69.8457 208.715 70.4656C209.544 71.0643 210.151 71.9206 210.439 72.8999C211.661 70.6685 213.458 69.5528 215.83 69.5528C219.405 69.5528 221.192 71.7477 221.192 76.1374L221.155 86.0935Z" fill="#201C1D"/>
<path d="M232.367 86.4705C231.264 86.5232 230.161 86.3495 229.129 85.96C228.096 85.5705 227.155 84.9737 226.364 84.2067C225.603 83.4072 225.012 82.4632 224.627 81.4311C224.241 80.399 224.069 79.3001 224.12 78.2002C224.12 75.4819 224.9 73.3601 226.461 71.8346C228.022 70.3091 230.125 69.5464 232.77 69.5464C235.309 69.5464 237.288 70.2888 238.706 71.7737C240.124 73.2586 240.834 75.3176 240.834 77.9506C240.834 80.531 240.069 82.598 238.541 84.1519C237.013 85.7058 234.955 86.4786 232.367 86.4705ZM232.544 72.4736C231.898 72.4456 231.253 72.5667 230.662 72.8274C230.07 73.0882 229.547 73.4815 229.133 73.9767C228.236 75.1651 227.792 76.6314 227.88 78.115C227.797 79.5596 228.25 80.9843 229.151 82.1193C229.571 82.5997 230.094 82.9803 230.681 83.2331C231.268 83.4858 231.905 83.6043 232.544 83.5799C233.174 83.6163 233.805 83.5053 234.384 83.256C234.964 83.0066 235.477 82.6257 235.882 82.1436C236.66 81.1862 237.049 79.823 237.049 78.0541C237.049 76.2852 236.66 74.9119 235.882 73.9341C235.483 73.4469 234.975 73.0598 234.398 72.804C233.822 72.5482 233.193 72.4308 232.562 72.4614L232.544 72.4736Z" fill="#201C1D"/>
<path d="M244.434 86.0934V63.4487H251C259.387 63.4487 263.581 67.1285 263.581 74.4881C263.581 77.9853 262.417 80.7928 260.09 82.9106C257.763 85.0284 254.635 86.0893 250.706 86.0934H244.434ZM248.194 66.6193V82.9045H251.208C253.861 82.9045 255.925 82.1783 257.4 80.7258C258.876 79.2734 259.613 77.2205 259.613 74.5672C259.613 69.2727 256.858 66.6254 251.348 66.6254L248.194 66.6193Z" fill="#201C1D"/>
<path d="M267.041 86.0934V63.4487H274.261C276.462 63.4487 278.204 63.9275 279.488 64.8849C280.093 65.3035 280.585 65.8639 280.92 66.5166C281.256 67.1693 281.426 67.8943 281.413 68.6276C281.439 69.8343 281.053 71.0141 280.319 71.9747C279.541 72.9542 278.471 73.6618 277.262 73.9951V74.056C278.681 74.1661 280.013 74.7794 281.016 75.7843C281.49 76.2938 281.858 76.8916 282.1 77.5433C282.341 78.195 282.451 78.8878 282.422 79.5817C282.444 80.4916 282.246 81.3933 281.847 82.2117C281.447 83.0301 280.856 83.7413 280.123 84.2859C278.455 85.5398 276.405 86.1844 274.316 86.1116L267.041 86.0934ZM270.801 66.4611V72.9058H273.246C274.342 72.9626 275.424 72.6353 276.303 71.9808C276.678 71.6603 276.974 71.2581 277.168 70.8053C277.362 70.3526 277.449 69.8615 277.421 69.37C277.421 67.4348 276.121 66.4672 273.521 66.4672L270.801 66.4611ZM270.801 75.9182V83.0871H274.022C275.191 83.1611 276.347 82.8156 277.281 82.1134C277.664 81.7832 277.967 81.3705 278.166 80.9065C278.365 80.4426 278.455 79.9396 278.43 79.4357C278.43 77.0866 276.8 75.9121 273.539 75.9121L270.801 75.9182Z" fill="#201C1D"/>
</g>
<defs>
<clipPath id="clip0_874_20308">
<rect width="282.383" height="112" fill="white" transform="translate(0.0634766)"/>
</clipPath>
</defs>
</svg>
