<svg width="216" height="132" viewBox="0 0 216 132" fill="none" xmlns="http://www.w3.org/2000/svg">
<g clip-path="url(#clip0_874_20524)">
<path d="M9.59714 131.914C6.67314 131.914 4.35114 131.052 2.71714 129.373C1.04014 127.693 0.223145 125.324 0.223145 122.31C0.223145 119.252 1.04014 116.797 2.54514 115.031C4.05014 113.266 6.15714 112.404 8.86615 112.404C11.3171 112.404 13.2951 113.136 14.7571 114.644C16.2191 116.151 16.9501 118.218 16.9501 120.888V123.085H4.35114C4.43714 124.894 4.95314 126.272 5.81314 127.305C6.67314 128.339 8.04914 128.77 9.72614 128.77C10.8011 128.77 11.9191 128.684 12.8651 128.468C13.8111 128.253 14.8431 127.865 16.0041 127.435V130.708C15.0581 131.138 14.0261 131.526 13.0371 131.741C12.0051 132 10.8441 131.914 9.59714 131.914ZM8.78014 115.462C7.49014 115.462 6.45814 115.893 5.72714 116.711C4.99614 117.529 4.48014 118.692 4.35114 120.286H12.9081C12.9081 118.778 12.5641 117.529 11.8331 116.711C11.1021 115.936 10.1131 115.462 8.78014 115.462Z" fill="black"/>
<path d="M25.4211 131.612H21.4221V105.083H25.4211V131.612Z" fill="black"/>
<path d="M42.9221 131.612L42.1051 128.985H41.9761C41.1161 130.148 40.1701 130.966 39.2241 131.311C38.2781 131.655 37.1171 131.957 35.6551 131.957C33.8491 131.957 32.3871 131.44 31.3121 130.45C30.2371 129.416 29.8071 128.038 29.8071 126.229C29.8071 124.248 30.5381 122.827 32.0001 121.879C33.4621 120.932 35.6121 120.372 38.6221 120.286L41.8901 120.2V119.166C41.8901 117.917 41.5891 117.056 41.0301 116.453C40.4711 115.85 39.5681 115.591 38.4071 115.591C37.4611 115.591 36.5151 115.721 35.6551 116.022C34.7951 116.324 33.8921 116.668 33.1181 117.056L31.8281 114.213C32.8601 113.697 33.9351 113.266 35.1821 112.964C36.4291 112.663 37.5041 112.534 38.5791 112.534C40.9871 112.534 42.7931 113.05 44.0401 114.127C45.2871 115.204 45.8461 116.84 45.8461 119.08V131.612H42.9221ZM36.9881 128.856C38.4501 128.856 39.6111 128.425 40.4711 127.607C41.3311 126.789 41.7611 125.626 41.7611 124.205V122.611L39.3531 122.697C37.4611 122.784 36.0851 123.042 35.2251 123.645C34.3651 124.248 33.9351 125.109 33.9351 126.272C33.9351 127.133 34.1501 127.779 34.6661 128.253C35.1391 128.641 35.9561 128.856 36.9881 128.856Z" fill="black"/>
<path d="M63.992 126.229C63.992 128.038 63.347 129.502 61.971 130.45C60.595 131.397 58.703 131.914 56.252 131.914C53.715 131.914 51.737 131.569 50.232 130.751V127.263C52.425 128.296 54.532 128.77 56.424 128.77C58.875 128.77 60.122 128.038 60.122 126.531C60.122 126.014 59.993 125.669 59.692 125.368C59.391 125.066 58.961 124.722 58.316 124.334C57.671 123.99 56.811 123.602 55.693 123.171C53.5 122.31 52.081 121.492 51.264 120.63C50.447 119.769 50.103 118.649 50.103 117.357C50.103 115.764 50.748 114.515 52.081 113.567C53.371 112.62 55.134 112.275 57.37 112.275C59.563 112.275 61.67 112.706 63.605 113.654L62.315 116.625C60.294 115.764 58.617 115.376 57.155 115.376C55.048 115.376 53.973 115.979 53.973 117.185C53.973 117.788 54.274 118.262 54.79 118.692C55.306 119.123 56.553 119.64 58.402 120.372C59.907 120.975 61.111 121.535 61.799 122.052C62.53 122.568 63.046 123.128 63.39 123.817C63.863 124.593 63.992 125.325 63.992 126.229Z" fill="black"/>
<path d="M75.3441 128.726C76.2901 128.726 77.3221 128.597 78.2681 128.296V131.267C77.8381 131.483 77.2361 131.612 76.5051 131.784C75.7741 131.913 75.0431 132 74.3121 132C70.5281 132 68.6361 129.975 68.6361 126.013V115.849H66.0991V114.084L68.8511 112.619L70.2271 108.614H72.6781V112.835H78.0531V115.893H72.6781V126.013C72.6781 126.961 72.8931 127.693 73.4091 128.124C73.9681 128.597 74.6131 128.726 75.3441 128.726Z" fill="black"/>
<path d="M81.7942 107.753C81.7942 107.021 82.0092 106.504 82.3962 106.074C82.7402 105.643 83.3422 105.471 84.0732 105.471C84.8042 105.471 85.3202 105.686 85.7502 106.074C86.1802 106.418 86.3522 107.021 86.3522 107.753C86.3522 108.399 86.1372 109.002 85.7502 109.347C85.4062 109.691 84.8042 109.95 84.0732 109.95C83.3422 109.95 82.7832 109.734 82.3962 109.347C82.0092 109.002 81.7942 108.442 81.7942 107.753ZM86.0942 131.612H82.0952V112.749H86.0942V131.612Z" fill="black"/>
<path d="M99.3811 131.914C96.5431 131.914 94.3501 131.095 92.9311 129.459C91.4691 127.779 90.6951 125.368 90.6951 122.267C90.6951 119.08 91.5121 116.668 93.0171 114.902C94.5221 113.137 96.8011 112.361 99.6821 112.361C101.66 112.361 103.466 112.706 105.057 113.438L103.81 116.625C102.133 115.979 100.757 115.591 99.5961 115.591C96.3281 115.591 94.7371 117.788 94.7371 122.051C94.7371 124.162 95.1671 125.755 95.9841 126.832C96.8011 127.908 98.0051 128.425 99.5531 128.425C101.359 128.425 103.036 127.995 104.627 127.133V130.622C103.896 131.052 103.165 131.354 102.305 131.483C101.402 131.698 100.542 131.914 99.3811 131.914Z" fill="black"/>
<path d="M121.655 126.229C121.655 128.038 121.01 129.502 119.634 130.45C118.258 131.397 116.366 131.914 113.915 131.914C111.378 131.914 109.4 131.569 107.895 130.751V127.263C110.088 128.296 112.195 128.77 114.087 128.77C116.538 128.77 117.785 128.038 117.785 126.531C117.785 126.014 117.656 125.669 117.355 125.368C117.054 125.066 116.624 124.722 115.979 124.334C115.334 123.99 114.474 123.602 113.356 123.171C111.163 122.31 109.744 121.492 108.927 120.63C108.11 119.769 107.766 118.649 107.766 117.357C107.766 115.764 108.411 114.515 109.744 113.567C111.034 112.62 112.797 112.275 115.033 112.275C117.226 112.275 119.333 112.706 121.268 113.654L119.978 116.625C117.957 115.764 116.28 115.376 114.818 115.376C112.711 115.376 111.636 115.979 111.636 117.185C111.636 117.788 111.937 118.262 112.453 118.692C112.969 119.123 114.216 119.64 116.065 120.372C117.57 120.975 118.774 121.535 119.462 122.052C120.15 122.568 120.709 123.128 121.053 123.817C121.526 124.593 121.655 125.325 121.655 126.229Z" fill="black"/>
<path d="M134.254 131.914C131.33 131.914 129.008 131.052 127.374 129.373C125.697 127.693 124.923 125.281 124.923 122.31C124.923 119.252 125.74 116.797 127.245 115.031C128.75 113.266 130.857 112.404 133.566 112.404C136.017 112.404 137.995 113.136 139.457 114.644C140.919 116.151 141.65 118.218 141.65 120.888V123.085H129.094C129.18 124.894 129.696 126.272 130.556 127.305C131.416 128.339 132.792 128.77 134.469 128.77C135.544 128.77 136.662 128.684 137.608 128.468C138.554 128.253 139.586 127.865 140.747 127.435V130.708C139.801 131.138 138.769 131.526 137.78 131.741C136.619 132 135.544 131.914 134.254 131.914ZM133.523 115.462C132.233 115.462 131.201 115.893 130.47 116.711C129.739 117.529 129.223 118.692 129.094 120.286H137.651C137.651 118.778 137.307 117.529 136.576 116.711C135.845 115.936 134.727 115.462 133.523 115.462Z" fill="black"/>
<path d="M157.861 131.612L157.044 128.985H156.915C156.055 130.148 155.109 130.966 154.163 131.311C153.217 131.655 152.056 131.957 150.594 131.957C148.788 131.957 147.326 131.44 146.251 130.45C145.176 129.416 144.746 128.038 144.746 126.229C144.746 124.248 145.477 122.827 146.939 121.879C148.401 120.932 150.551 120.372 153.561 120.286L156.829 120.2V119.166C156.829 117.917 156.528 117.056 155.969 116.453C155.41 115.85 154.507 115.591 153.346 115.591C152.4 115.591 151.454 115.721 150.594 116.022C149.734 116.324 148.831 116.668 148.057 117.056L146.767 114.213C147.799 113.697 148.874 113.266 150.121 112.964C151.368 112.663 152.443 112.534 153.518 112.534C155.926 112.534 157.732 113.05 158.979 114.127C160.226 115.204 160.785 116.84 160.785 119.08V131.612H157.861ZM151.884 128.856C153.346 128.856 154.507 128.425 155.367 127.607C156.227 126.789 156.657 125.626 156.657 124.205V122.611L154.249 122.697C152.357 122.784 150.981 123.042 150.121 123.645C149.261 124.248 148.831 125.109 148.831 126.272C148.831 127.133 149.046 127.779 149.562 128.253C150.078 128.727 150.938 128.856 151.884 128.856Z" fill="black"/>
<path d="M175.835 112.447C176.652 112.447 177.297 112.533 177.813 112.576L177.469 116.28C176.867 116.151 176.308 116.065 175.706 116.065C174.115 116.065 172.782 116.582 171.793 117.658C170.761 118.735 170.288 120.07 170.288 121.75V131.655H166.289V112.792H169.428L169.944 116.151H170.159C170.804 115.074 171.621 114.127 172.61 113.438C173.599 112.792 174.674 112.447 175.835 112.447Z" fill="black"/>
<path d="M188.95 131.914C186.112 131.914 183.919 131.095 182.5 129.459C181.038 127.779 180.264 125.368 180.264 122.267C180.264 119.08 181.081 116.668 182.586 114.902C184.091 113.137 186.37 112.361 189.251 112.361C191.229 112.361 193.035 112.706 194.626 113.438L193.379 116.625C191.702 115.979 190.326 115.591 189.165 115.591C185.897 115.591 184.306 117.788 184.306 122.051C184.306 124.162 184.736 125.755 185.553 126.832C186.37 127.908 187.574 128.425 189.122 128.425C190.928 128.425 192.605 127.995 194.196 127.133V130.622C193.465 131.052 192.734 131.354 191.874 131.483C190.971 131.698 190.111 131.914 188.95 131.914Z" fill="black"/>
<path d="M215.137 131.612H211.138V119.984C211.138 118.52 210.837 117.443 210.278 116.711C209.676 115.979 208.773 115.634 207.526 115.634C205.849 115.634 204.602 116.151 203.828 117.142C203.054 118.132 202.667 119.855 202.667 122.181V131.655H198.668V105.083H202.667V111.845C202.667 112.921 202.581 114.084 202.452 115.333H202.753C203.355 114.472 204.043 113.739 204.989 113.223C205.935 112.706 207.096 112.491 208.386 112.491C212.944 112.491 215.223 114.816 215.223 119.381V131.612H215.137Z" fill="black"/>
<path d="M128.965 32.3862H104.842C104.971 32.9461 105.186 33.549 105.315 34.0228C106.132 36.7791 106.605 39.7076 106.82 42.6792C106.949 43.842 106.949 45.091 106.949 46.2538C106.949 47.4166 106.949 48.6655 106.82 49.8283C106.605 52.843 106.132 55.7285 105.315 58.4848C105.186 59.0446 104.971 59.6476 104.842 60.1213H128.965C136.576 60.1213 142.725 53.8766 142.725 46.2538C142.725 38.6309 136.576 32.3862 128.965 32.3862Z" fill="#00A9E5"/>
<path d="M106.82 49.8283C106.949 48.6655 106.949 47.4166 106.949 46.2538C106.949 45.091 106.949 43.842 106.82 42.6792C106.605 39.6645 106.132 36.7791 105.315 34.0228C105.186 33.4629 104.971 32.86 104.842 32.3862H67.5611C66.1851 36.7791 65.4971 41.3872 65.4971 46.2538C65.4971 51.1203 66.1851 55.7285 67.5611 60.1213H104.842C104.971 59.5614 105.186 58.9585 105.315 58.4848C106.089 55.7285 106.562 52.843 106.82 49.8283Z" fill="#353535"/>
<path d="M133.136 64.7725H103.122C102.219 66.8397 101.144 68.8208 99.983 70.6726C98.263 73.5581 96.156 76.0991 93.877 78.5539C93.06 79.3721 92.243 80.0612 91.469 80.8795C89.835 82.3868 87.986 83.6358 86.137 84.9278C93.404 89.7943 102.176 92.5506 111.55 92.5506C127.589 92.5506 141.693 84.3248 149.992 71.9646C145.692 67.5287 139.715 64.7725 133.136 64.7725Z" fill="#00BFB3"/>
<path d="M99.983 70.6726C101.144 68.8208 102.176 66.8397 103.122 64.7725H69.281C72.85 72.9982 78.741 80.0181 86.266 84.8847C88.115 83.5927 89.835 82.3438 91.598 80.8364C92.415 80.1473 93.232 79.3291 94.006 78.5108C96.156 76.2283 98.263 73.5581 99.983 70.6726Z" fill="#019B8F"/>
<path d="M93.8771 13.9969C93.0601 13.1787 92.2431 12.4896 91.4691 11.6713C89.8351 10.164 87.9861 8.91505 86.1371 7.62305C78.7411 12.4896 72.8501 19.5526 69.1521 27.7353H102.993C102.09 25.6681 101.015 23.687 99.8541 21.8351C98.2631 18.9496 96.1561 16.3226 93.8771 13.9969Z" fill="#F9B110"/>
<path d="M111.55 0C102.176 0 93.4042 2.75628 86.1372 7.62284C87.9862 8.91485 89.7062 10.1638 91.4692 11.6711C92.2862 12.3602 93.1032 13.1785 93.8772 13.9967C96.1562 16.4085 98.2632 18.9494 99.9832 21.878C101.144 23.7299 102.176 25.7109 103.122 27.7781H133.136C139.715 27.7781 145.735 25.0219 149.992 20.629C141.65 8.22578 127.589 0 111.55 0Z" fill="#FED10A"/>
</g>
<defs>
<clipPath id="clip0_874_20524">
<rect width="215" height="132" fill="white" transform="translate(0.223145)"/>
</clipPath>
</defs>
</svg>
