<svg width="132" height="132" viewBox="0 0 132 132" fill="none" xmlns="http://www.w3.org/2000/svg">
<g clip-path="url(#clip0_874_20518)">
<path d="M28.7758 97.1852L35.9337 95.9446C39.4337 99.8511 38.0653 101.408 41.0653 103.626C46.039 107.321 52.3021 105.684 54.4074 102.649C56.9074 99.0856 56.7495 95.6807 55.96 92.4605L64.0653 91.0616L65.0653 99.5079L111.25 91.0088L108.513 57.0916L106.934 57.3819L102.013 2.98242L18.6179 11.851L28.7758 97.1852Z" fill="white"/>
<path d="M65.6178 32.8878C66.3284 32.2016 62.0652 31.2777 58.7494 33.6005C56.3021 35.2897 56.2231 38.9586 58.5652 41.0174C58.7576 41.1875 58.9597 41.3461 59.1705 41.4925C59.9401 41.1281 60.731 40.8108 61.5389 40.5423C62.7797 40.123 64.0574 39.8225 65.3547 39.6449C65.8547 39.0906 66.4336 38.0876 66.2757 36.2927C66.0652 33.838 64.2494 34.2076 65.6178 32.8878ZM88.0652 46.1644C87.6705 45.9268 85.7757 46.0324 84.4336 46.1908C81.9073 46.5075 79.1705 47.4049 78.5652 47.88C77.4863 48.751 77.9599 50.2292 78.7757 50.8626C81.0389 52.5783 83.0126 53.7397 85.1178 53.4493C86.4073 53.2645 87.5389 51.2058 88.3284 49.3317C88.881 48.012 88.881 46.6131 88.0652 46.1644ZM79.4073 30.8818C79.2494 31.225 79.0389 31.4361 79.381 32.5447L79.4073 32.5975L79.46 32.7295L79.5915 33.0726C80.2231 34.3659 80.881 35.5801 82.0389 36.2136C82.3284 36.1608 82.6442 36.1344 82.96 36.108C84.0389 36.0552 84.6968 36.24 85.1442 36.4775C85.1839 36.1447 85.1927 35.8089 85.1705 35.4745C85.0915 33.838 85.4863 31.0402 82.4073 29.5885C81.2494 29.0342 79.5915 29.219 79.0652 29.9052C79.1553 29.9076 79.2443 29.9255 79.3284 29.958C80.1178 30.222 79.5652 30.5123 79.4073 30.8818ZM111.223 53.3173L108.565 53.8452L103.46 0L16.3284 10.2939L27.0652 99.033L37.2494 97.5285C36.4336 96.3407 35.1705 94.9154 33.0126 93.0678C30.0126 90.5339 31.0652 86.2052 32.8547 83.4865C35.1968 78.8674 47.2757 73.0342 46.5915 65.6701C46.3547 63.0042 45.9336 59.5201 43.4863 57.1182C43.4426 57.7702 43.4691 58.425 43.5652 59.0714C42.8903 58.1371 42.3827 57.0921 42.0652 55.9832C41.5652 55.2969 41.1705 55.0858 40.6442 54.162C40.415 54.896 40.3083 55.663 40.3284 56.4319C40.3284 56.4319 39.5126 54.4523 39.381 52.7894C38.9073 53.5285 38.7757 54.9538 38.7757 54.9538C38.7757 54.9538 37.7231 51.8392 37.9599 50.1764C37.4863 48.7247 36.0389 45.8212 36.4336 39.249C39.0915 41.1494 44.9336 40.7007 47.2231 37.2693C47.9863 36.1344 48.4863 33.0462 46.8547 26.949C45.8021 23.0426 43.1705 17.2094 42.1442 14.9922L42.0126 15.0714C42.5389 16.8398 43.6705 20.5879 44.0915 22.3827C45.381 27.8728 45.7231 29.7732 45.1178 32.3071C44.5915 34.4979 43.3547 35.9496 40.2231 37.5597C37.0915 39.1698 32.9073 35.237 32.6442 35.0258C29.5915 32.5447 27.2231 28.5063 26.9599 26.5267C26.6968 24.3887 28.1705 23.0954 28.9336 21.3269C28.1614 21.5682 27.4054 21.8591 26.6705 22.198C27.6594 21.1774 28.7238 20.2333 29.8547 19.3737C30.5275 18.9346 31.1694 18.4496 31.7757 17.922C30.6705 17.8956 29.7494 17.922 29.7494 17.922C30.9767 17.2582 32.2421 16.6677 33.5389 16.1536C32.1178 16.1008 30.7757 16.1536 30.7757 16.1536C30.7757 16.1536 34.9336 14.2531 38.1968 12.8806C40.46 11.9304 42.6442 12.2208 43.881 14.042C45.5126 16.4175 47.1968 17.7373 50.8284 18.5291C53.0389 17.5261 53.7231 17.0246 56.5126 16.2328C58.9599 13.4877 60.881 13.1182 60.881 13.1182C60.2673 13.7521 59.8472 14.5489 59.6705 15.4145C61.0652 14.3059 62.5915 13.3557 62.5915 13.3557C62.1488 13.957 61.7696 14.6027 61.4599 15.2825L61.5915 15.4673C62.723 14.7935 63.9015 14.2025 65.1178 13.6989C65.1178 13.6989 64.5652 14.4115 63.9336 15.3089C65.1442 15.3089 67.6442 15.3617 68.5915 15.4673C74.2757 15.5993 75.46 9.29094 77.6442 8.4991C80.381 7.4961 81.5915 6.91542 86.2494 11.5609C90.2494 15.5729 93.3547 22.7259 91.8284 24.3095C90.5389 25.6293 87.9599 23.7816 85.1178 20.192C83.4934 18.1451 82.4076 15.7219 81.96 13.1446C81.6691 11.6635 80.9018 10.319 79.7757 9.31734C79.7757 9.31734 80.7757 11.6137 80.7757 13.6461C80.7757 14.7547 80.9073 18.8986 82.6442 21.2214C82.46 21.5645 82.381 22.9106 82.1968 23.1482C80.1705 20.6407 75.8021 18.8722 75.0915 18.3443C77.4863 20.3503 83.0126 24.9694 85.1442 29.3773C87.1442 33.5477 85.96 37.3749 86.9863 38.3779C87.2757 38.6683 91.3021 43.7625 92.0652 46.3491C93.4073 50.8362 92.1442 55.5345 90.381 58.4379L85.4336 59.2298C84.7847 59.0802 84.157 58.8497 83.5652 58.5435C83.9336 57.91 84.6442 56.2999 84.6442 55.9568L84.3547 55.4553C82.8284 57.6725 80.2494 59.8368 78.0915 61.0774C75.3021 62.6875 72.0652 62.4499 69.9599 61.79C63.9863 59.916 58.3547 55.7984 57.0126 54.7427C57.0126 54.7427 56.96 55.6137 57.2231 55.7984C58.7231 57.5141 62.1705 60.6551 65.5126 62.8194L58.4073 63.6113L61.7757 90.2436C60.3021 90.4547 60.0652 90.5603 58.4336 90.7978C56.9863 85.6245 54.2494 82.246 51.2494 80.2927C48.5915 78.5507 44.9599 78.1812 41.4599 78.8674L41.2494 79.1314C44.1446 78.8102 47.0603 79.5203 49.4863 81.1374C52.381 83.0114 54.6968 87.8152 55.5652 90.7187C56.6705 94.4139 57.4336 98.3731 54.46 102.57C52.3547 105.552 46.2231 107.189 41.2494 103.626C42.5652 105.79 44.3547 107.585 46.7757 107.902C50.3547 108.403 53.7494 107.77 56.0915 105.315C58.0915 103.23 59.1442 98.8482 58.8547 94.2556L62.0126 93.7804L63.1442 102.042L115.46 95.6281L111.223 53.3173ZM61.1442 65.5381L67.7231 64.6143C68.7136 65.0506 69.745 65.3866 70.8021 65.6173C72.8021 66.1452 75.0915 66.6467 78.5126 64.9046C79.3021 64.5087 80.9599 62.9778 81.6178 62.0804L108.592 57.0918L111.328 91.009L65.1442 99.4817L61.1442 65.5381ZM99.4073 76.8086L90.5652 70.8698L83.1968 83.4073L74.6178 80.847L67.0652 92.5927L67.4599 96.2879L108.486 88.5807L106.118 62.4499L99.4073 76.8086Z" fill="#75459B"/>
<path d="M127.592 123.818V128.463C126.862 128.667 126.111 128.782 125.355 128.806C120.907 128.806 118.697 126.431 118.697 121.653C118.697 117.245 121.039 115.055 125.749 115.055C127.631 115.037 129.496 115.414 131.223 116.163V112.837C129.38 112.154 127.425 111.823 125.46 111.861C118.434 111.861 114.916 115.125 114.907 121.653C114.907 128.542 118.364 131.991 125.276 132C127.644 132 129.644 131.657 131.223 130.944V120.545H125.355L124.118 123.818H127.592ZM102.749 128.78C106.697 128.78 108.671 126.484 108.671 121.864C108.671 117.325 106.697 115.028 102.749 115.028C98.6968 115.028 96.6705 117.298 96.6705 121.864C96.6968 126.484 98.6968 128.78 102.749 128.78ZM92.9074 121.944C92.9074 115.213 96.1881 111.843 102.749 111.834C109.197 111.834 112.425 115.204 112.434 121.944C112.434 128.648 109.206 132 102.749 132C96.4863 131.974 93.1968 128.648 92.9074 121.944ZM76.4074 128.648H80.7231C84.7758 128.648 86.8284 126.22 86.8284 121.363C86.8284 117.219 84.8021 115.16 80.7231 115.16H76.4074V128.648ZM81.2758 131.842H72.7758V111.993H81.2758C87.4074 111.993 90.4688 115.125 90.46 121.389C90.46 128.358 87.3986 131.842 81.2758 131.842ZM53.381 131.842H49.6442L57.96 111.993H61.8547L70.3547 131.842H66.46L63.9863 126.431H57.7231L58.96 123.237H63.0389L59.8284 115.767L53.381 131.842ZM36.6442 111.993H51.5126V115.187H45.9074V131.842H42.2758V115.187H36.6442V111.993ZM21.6968 131.842H17.96L26.2758 111.993H30.1705L38.6705 131.842H34.8021L32.3284 126.431H26.0389L27.2758 123.237H31.3547L28.1705 115.767L21.6968 131.842ZM3.85472 128.648H8.17051C12.2495 128.648 14.2758 126.22 14.2758 121.363C14.2758 117.219 12.2495 115.16 8.17051 115.16H3.85472V128.648ZM8.72314 131.842H0.223145V111.993H8.72314C14.8635 111.993 17.9249 115.125 17.9074 121.389C17.9074 128.358 14.8284 131.842 8.72314 131.842Z" fill="#75459B"/>
</g>
<defs>
<clipPath id="clip0_874_20518">
<rect width="131" height="132" fill="white" transform="translate(0.223145)"/>
</clipPath>
</defs>
</svg>
