<svg width="124" height="132" viewBox="0 0 124 132" fill="none" xmlns="http://www.w3.org/2000/svg">
<g clip-path="url(#clip0_874_20473)">
<path d="M0.300415 117.092V117.014C0.300415 108.784 6.4852 102.028 15.2985 102.028C20.7102 102.028 23.9572 103.814 26.6631 106.532L22.643 111.191C20.401 109.172 18.159 107.93 15.2985 107.93C10.428 107.93 6.94906 111.967 6.94906 116.937V117.014C6.94906 121.984 10.3507 126.099 15.2985 126.099C18.6229 126.099 20.6329 124.779 22.8749 122.682L26.895 126.798C23.9572 129.981 20.6329 132 15.0666 132C6.63982 132 0.300415 125.4 0.300415 117.092ZM35.2445 102.572H41.5839V114.064H53.2577V102.572H59.5971V131.534H53.2577V119.887H41.5839V131.534H35.2445V102.572ZM69.802 102.572H91.9126V108.318H76.2187V114.297H90.0572V120.042H76.2187V126.254H92.1445V132H69.802V102.572ZM101.344 102.572H123.3V108.395H107.684V114.53H121.445V120.353H107.684V131.534H101.344V102.572Z" fill="#435363"/>
<path d="M62.6895 61.7292C52.1754 61.7292 43.594 53.1104 43.594 42.5504C43.594 31.9904 52.1754 23.3716 62.6895 23.3716C71.3482 23.3716 78.6927 29.1951 81.012 37.1927H88.4337C85.9598 25.1575 75.3684 16.1504 62.6895 16.1504C48.2326 16.1504 36.4042 27.9527 36.4042 42.5504C36.4042 57.0704 48.1553 68.9504 62.6895 68.9504C75.3684 68.9504 85.9598 59.8657 88.4337 47.908H81.012C78.6927 55.828 71.3482 61.7292 62.6895 61.7292Z" fill="#435363"/>
<path d="M49.8561 55.4402C53.1804 58.779 57.6644 60.7978 62.6895 60.7978V53.1884C59.9064 53.1884 57.2005 52.1013 55.1905 50.0825L49.8561 55.4402Z" fill="#435363"/>
<path d="M44.5216 42.5508C44.5216 45.1908 45.0628 47.6755 46.0678 49.9272L53.0257 46.8214C52.4072 45.5014 52.098 44.0261 52.098 42.5508C52.098 36.6496 56.8139 31.9131 62.6894 31.9131V24.3037C52.6391 24.3037 44.5216 32.4567 44.5216 42.5508Z" fill="#F38B00"/>
<path d="M69.2608 25.5459L66.5549 32.6118C68.7969 33.4659 70.6523 35.0965 71.8893 37.193H80.1615C78.4606 31.8353 74.4405 27.5647 69.2608 25.5459Z" fill="#435363"/>
<path d="M66.5549 52.4894L69.3381 59.6329C74.5178 57.6141 78.538 53.2659 80.1615 47.9082H71.8893C70.6523 49.927 68.7969 51.5576 66.5549 52.4894Z" fill="#F38B00"/>
<path d="M29.0597 52.8002C28.9051 52.412 28.8278 52.0237 28.7505 51.5579V51.4802C28.6732 51.092 28.5959 50.7037 28.4413 50.3155C28.364 49.9273 28.2866 49.539 28.2093 49.0731C28.2093 48.9179 28.132 48.7626 28.132 48.6073C28.0547 48.3743 28.0547 48.0637 27.9774 47.8308C27.9774 47.5978 27.9001 47.3649 27.9001 47.132C27.6682 45.579 27.5909 44.0261 27.5909 42.4731H20.3237C20.3237 44.1814 20.401 45.8896 20.633 47.5978V47.6755C20.7103 48.1414 20.7876 48.6073 20.7876 49.0731C20.7876 49.2284 20.8649 49.3061 20.8649 49.4614C20.9422 49.8496 21.0195 50.2378 21.0968 50.5484C21.0968 50.7814 21.1741 50.9367 21.2514 51.1696C21.3288 51.4802 21.4061 51.7908 21.4061 52.0237C21.4834 52.2567 21.5607 52.5673 21.5607 52.8002C21.638 53.0331 21.638 53.2661 21.7153 53.499C21.7926 53.8096 21.8699 54.1202 21.9472 54.4308C21.9472 54.5861 22.0245 54.6637 22.0245 54.819C22.4884 56.4496 23.1069 58.0802 23.8027 59.6331L30.374 56.7602C29.9102 55.4402 29.4463 54.1202 29.0597 52.8002Z" fill="#435363"/>
<path d="M62.6894 77.88C53.0257 77.88 44.2124 73.92 37.7956 67.5529L32.6932 72.6777C40.3469 80.3647 50.9383 85.1788 62.6121 85.1788C84.1816 85.1788 102.04 68.9506 104.669 47.9082H97.4016C94.9276 64.8353 80.3161 77.88 62.6894 77.88ZM62.6894 7.22118C70.575 7.22118 77.8422 9.86118 83.7177 14.2871L88.0471 8.46353C80.9345 3.10588 72.1985 0 62.6894 0C44.7535 0 29.3689 11.2588 23.1841 27.0988L29.91 29.7388C35.0125 16.5388 47.7686 7.22118 62.6894 7.22118Z" fill="#F38B00"/>
<path d="M97.479 37.2704H104.746C103.973 31.1362 101.886 25.3127 98.6386 20.0327L92.5311 23.8374C95.0824 27.9527 96.7832 32.4562 97.479 37.2704Z" fill="#435363"/>
<path d="M89.2841 37.2707H96.5512C94.6185 25.0024 86.269 14.9083 75.0591 10.4824L72.4305 17.1601C81.0119 20.4989 87.506 28.0307 89.2841 37.2707Z" fill="#F38B00"/>
<path d="M62.6895 15.2964V8.0752C48.1552 8.0752 35.7083 17.1599 30.7605 30.0493L37.4091 32.6893C41.3519 22.5175 51.1703 15.2964 62.6895 15.2964Z" fill="#435363"/>
<path d="M35.5537 42.5508H28.3639C28.3639 56.9931 37.3318 69.4167 49.9333 74.5414L52.5619 67.8637C42.6662 63.8261 35.5537 53.9649 35.5537 42.5508Z" fill="#F38B00"/>
<path d="M62.6895 69.8047V77.0258C79.7749 77.0258 93.9999 64.3694 96.5512 47.9082H89.284C86.8101 60.3317 75.8321 69.8047 62.6895 69.8047Z" fill="#435363"/>
</g>
<defs>
<clipPath id="clip0_874_20473">
<rect width="123" height="132" fill="white" transform="translate(0.223145)"/>
</clipPath>
</defs>
</svg>
