<svg width="95" height="132" viewBox="0 0 95 132" fill="none" xmlns="http://www.w3.org/2000/svg">
<g clip-path="url(#clip0_874_20511)">
<path d="M46.8348 132.258L8.50969 121.667L-0.0357666 25.8315H93.9642L85.4188 121.409L46.8348 132.258Z" fill="#264DE4"/>
<path d="M77.9092 115.468L85.1599 33.5811H47.0938V123.992L77.9092 115.468Z" fill="#2965F1"/>
<path d="M19.3857 69.229L20.4215 81.1116H46.8347V69.229H19.3857ZM17.3141 45.4639L18.3499 57.3465H46.8347V45.4639H17.3141ZM46.8347 99.9688L33.6281 96.3523L32.8513 87.0529H20.9394L22.7521 105.393L46.8347 112.11V99.9688Z" fill="#EBEBEB"/>
<path d="M21.9752 0H36.2176V5.94129H27.9311V11.8826H36.2176V17.8239H21.9752V0ZM39.0661 0H53.3086V5.16634H45.0221V6.19961H53.3086V18.0822H39.0661V12.6575H47.3526V11.6243H39.0661V0ZM56.157 0H70.3995V5.16634H62.113V6.19961H70.3995V18.0822H56.157V12.6575H64.4435V11.6243H56.157V0Z" fill="black"/>
<path d="M74.2838 69.229L76.3554 45.4639H46.8347V57.3465H63.4077L62.3719 69.229H46.8347V81.1116H61.3361L60.0413 96.3523L46.8347 99.9688V112.368L70.9174 105.652L71.1763 103.585L74.0248 72.5872L74.2838 69.229Z" fill="white"/>
</g>
<defs>
<clipPath id="clip0_874_20511">
<rect width="94" height="132" fill="white" transform="translate(0.223145)"/>
</clipPath>
</defs>
</svg>
