<svg width="143" height="132" viewBox="0 0 143 132" fill="none" xmlns="http://www.w3.org/2000/svg">
<g clip-path="url(#clip0_874_20489)">
<path d="M110.425 98.5241H93.7277L94.8898 84.4511H86.6815L85.5194 98.5241H50.916L49.7539 84.4511H41.5522L42.7143 98.5241H26.0171L16.6666 37.5168L40.0962 0H96.3458L119.775 37.5168L110.425 98.5241ZM91.6372 18.7818H76.5897L77.6115 25.8216H58.8305L59.8524 18.7818H44.8048L35.3876 37.4834L40.0628 75.0001H96.3124L100.988 37.4834L91.6372 18.7818ZM83.4355 62.6103C82.0998 62.6103 81.1046 58.7297 81.1046 53.874C81.1046 49.0183 82.1732 45.1377 83.4355 45.1377C84.6979 45.1377 85.7665 49.0183 85.7665 53.874C85.7665 58.7297 84.7446 62.6103 83.4355 62.6103ZM53.8748 63.3384C52.539 63.3384 51.5438 59.4578 51.5438 54.602C51.5438 49.7463 52.6124 45.8657 53.8748 45.8657C55.1371 45.8657 56.2057 49.7463 56.2057 54.602C56.2057 59.4578 55.1371 63.3384 53.8748 63.3384Z" fill="#32383D"/>
<path d="M0.630599 107.889L2.39383 104.061C2.40122 104.042 2.41517 104.025 2.43338 104.014C2.45158 104.003 2.47297 103.998 2.49401 104.001H2.55412C2.57516 103.998 2.59655 104.003 2.61476 104.014C2.63296 104.025 2.64691 104.042 2.6543 104.061L4.3975 107.889C4.43757 107.969 4.3975 108.029 4.29731 108.029H3.80975C3.72961 108.029 3.68953 107.989 3.64946 107.909L3.36895 107.301H1.65915L1.37864 107.909C1.36761 107.943 1.34628 107.973 1.31758 107.994C1.28887 108.016 1.25421 108.028 1.21834 108.029H0.730782C0.713998 108.029 0.697498 108.024 0.68262 108.017C0.667743 108.009 0.654906 107.998 0.645149 107.984C0.635392 107.97 0.628991 107.955 0.626463 107.938C0.623935 107.921 0.625352 107.905 0.630599 107.889ZM3.10179 106.673L2.53408 105.417L1.96638 106.673H3.10179Z" fill="#A5B0B8"/>
<path d="M5.49284 104.162C5.4907 104.139 5.49699 104.116 5.51053 104.098C5.52408 104.079 5.54392 104.066 5.56631 104.061H6.90209C7.07603 104.049 7.25071 104.072 7.41522 104.13C7.57974 104.188 7.73055 104.279 7.85826 104.398C7.98597 104.517 8.08783 104.66 8.15748 104.82C8.22713 104.98 8.26308 105.153 8.26308 105.327C8.26308 105.502 8.22713 105.674 8.15748 105.834C8.08783 105.994 7.98597 106.138 7.85826 106.256C7.73055 106.375 7.57974 106.466 7.41522 106.524C7.25071 106.582 7.07603 106.605 6.90209 106.593H6.2342V107.929C6.23262 107.955 6.22155 107.979 6.2031 107.998C6.18464 108.016 6.16007 108.027 6.13402 108.029H5.61306C5.58701 108.027 5.56244 108.016 5.54398 107.998C5.52553 107.979 5.51446 107.955 5.51288 107.929V104.162H5.49284ZM6.90209 105.885C7.05797 105.885 7.20746 105.823 7.31769 105.713C7.42791 105.602 7.48983 105.453 7.48983 105.297C7.48725 105.223 7.46999 105.149 7.43904 105.081C7.4081 105.013 7.36407 104.952 7.30949 104.901C7.2549 104.851 7.19082 104.811 7.12092 104.785C7.05101 104.759 6.97665 104.747 6.90209 104.749H6.2342V105.885H6.90209Z" fill="#A5B0B8"/>
<path d="M8.69203 107.889L10.4553 104.061C10.4626 104.042 10.4766 104.025 10.4948 104.014C10.513 104.003 10.5344 103.998 10.5554 104.001H10.6155C10.6366 103.998 10.658 104.003 10.6762 104.014C10.6944 104.025 10.7083 104.042 10.7157 104.061L12.4589 107.889C12.499 107.969 12.4589 108.029 12.3587 108.029H11.8712C11.791 108.029 11.751 107.989 11.7109 107.909L11.4304 107.301H9.72726L9.44674 107.909C9.43572 107.943 9.41439 107.973 9.38568 107.994C9.35698 108.016 9.32231 108.028 9.28645 108.029H8.79889C8.69871 108.029 8.65863 107.949 8.69871 107.889H8.69203ZM11.1432 106.673L10.5755 105.417L10.0078 106.673H11.1632H11.1432Z" fill="#A5B0B8"/>
<path d="M15.2774 103.994C15.7875 103.983 16.2817 104.172 16.6533 104.522C16.6671 104.53 16.6786 104.542 16.6865 104.556C16.6944 104.57 16.6986 104.586 16.6986 104.602C16.6986 104.618 16.6944 104.634 16.6865 104.648C16.6786 104.662 16.6671 104.674 16.6533 104.682L16.306 105.05C16.2873 105.068 16.2621 105.078 16.2358 105.078C16.2096 105.078 16.1844 105.068 16.1657 105.05C15.9234 104.84 15.6176 104.718 15.2975 104.702C14.9879 104.757 14.7073 104.918 14.5052 105.159C14.303 105.4 14.1922 105.704 14.1922 106.018C14.1922 106.333 14.303 106.637 14.5052 106.877C14.7073 107.118 14.9879 107.28 15.2975 107.334C15.6167 107.332 15.9247 107.216 16.1657 107.007C16.1844 106.988 16.2096 106.978 16.2358 106.978C16.2621 106.978 16.2873 106.988 16.306 107.007L16.6533 107.374C16.673 107.396 16.6839 107.425 16.6839 107.454C16.6839 107.484 16.673 107.512 16.6533 107.534C16.4724 107.713 16.2574 107.854 16.021 107.948C15.7846 108.042 15.5318 108.088 15.2774 108.082C14.7345 108.082 14.2138 107.866 13.8299 107.483C13.446 107.099 13.2303 106.578 13.2303 106.035C13.2303 105.492 13.446 104.971 13.8299 104.587C14.2138 104.203 14.7345 103.988 15.2774 103.988V103.994Z" fill="#A5B0B8"/>
<path d="M17.9757 104.161C17.9773 104.135 17.9884 104.111 18.0068 104.092C18.0253 104.074 18.0498 104.063 18.0759 104.061H18.6035C18.6296 104.063 18.6541 104.074 18.6726 104.092C18.6911 104.111 18.7021 104.135 18.7037 104.161V105.664H20.5471V104.161C20.5461 104.148 20.548 104.135 20.5527 104.122C20.5574 104.109 20.5647 104.098 20.5742 104.088C20.5837 104.079 20.5952 104.072 20.6078 104.067C20.6204 104.062 20.6339 104.06 20.6473 104.061H21.1749C21.201 104.063 21.2255 104.074 21.244 104.092C21.2624 104.111 21.2735 104.135 21.2751 104.161V107.929C21.2735 107.955 21.2624 107.979 21.244 107.998C21.2255 108.016 21.201 108.027 21.1749 108.029H20.6473C20.6212 108.027 20.5966 108.016 20.5782 107.998C20.5597 107.979 20.5487 107.955 20.5471 107.929V106.366H18.7037V107.929C18.7047 107.942 18.7028 107.955 18.6981 107.968C18.6934 107.981 18.6861 107.992 18.6766 108.002C18.6671 108.011 18.6556 108.018 18.643 108.023C18.6304 108.028 18.6169 108.03 18.6035 108.029H18.0759C18.0498 108.027 18.0253 108.016 18.0068 107.998C17.9884 107.979 17.9773 107.955 17.9757 107.929V104.161Z" fill="#A5B0B8"/>
<path d="M22.9314 104.161C22.9305 104.148 22.9324 104.135 22.937 104.122C22.9417 104.109 22.9491 104.098 22.9586 104.088C22.9681 104.079 22.9795 104.072 22.9921 104.067C23.0048 104.062 23.0182 104.06 23.0316 104.061H25.3425C25.3686 104.063 25.3932 104.074 25.4116 104.092C25.4301 104.111 25.4411 104.135 25.4427 104.161V104.629C25.4437 104.642 25.4418 104.656 25.4371 104.669C25.4324 104.681 25.4251 104.693 25.4156 104.702C25.4061 104.712 25.3946 104.719 25.382 104.724C25.3694 104.728 25.3559 104.73 25.3425 104.729H23.6461V105.664H25.042C25.068 105.666 25.0926 105.677 25.1111 105.695C25.1295 105.714 25.1406 105.738 25.1422 105.764V106.232C25.1406 106.258 25.1295 106.283 25.1111 106.301C25.0926 106.32 25.068 106.331 25.042 106.332H23.6461V107.347H25.3292C25.3552 107.349 25.3798 107.36 25.3983 107.379C25.4167 107.397 25.4278 107.422 25.4294 107.448V107.915C25.4304 107.929 25.4284 107.942 25.4238 107.955C25.4191 107.967 25.4117 107.979 25.4022 107.988C25.3927 107.998 25.3813 108.005 25.3687 108.01C25.3561 108.014 25.3426 108.016 25.3292 108.015H23.0183C22.9922 108.014 22.9677 108.003 22.9492 107.984C22.9307 107.966 22.9197 107.941 22.9181 107.915L22.9314 104.161Z" fill="#A5B0B8"/>
<path d="M137.501 112.73H135.371C135.317 112.73 135.266 112.752 135.229 112.789C135.191 112.827 135.17 112.878 135.17 112.931V113.338C135.17 113.391 135.191 113.442 135.229 113.48C135.266 113.518 135.317 113.539 135.371 113.539H136.038V116.17C136.038 116.197 136.044 116.223 136.054 116.247C136.064 116.271 136.079 116.293 136.097 116.312C136.116 116.331 136.138 116.345 136.162 116.355C136.186 116.365 136.213 116.371 136.239 116.371H136.686C136.713 116.371 136.739 116.365 136.763 116.355C136.787 116.345 136.809 116.331 136.828 116.312C136.847 116.293 136.861 116.271 136.871 116.247C136.882 116.223 136.887 116.197 136.887 116.17V113.545H137.555C137.581 113.545 137.607 113.54 137.631 113.53C137.656 113.52 137.678 113.505 137.696 113.487C137.715 113.468 137.73 113.446 137.74 113.422C137.75 113.397 137.755 113.371 137.755 113.345V112.938C137.743 112.886 137.716 112.839 137.676 112.803C137.637 112.767 137.587 112.744 137.535 112.737L137.501 112.73Z" fill="#32383D"/>
<path d="M142.223 116.117L141.655 112.858C141.65 112.813 141.629 112.772 141.596 112.743C141.563 112.713 141.52 112.697 141.475 112.697H141.395C141.359 112.697 141.323 112.707 141.292 112.724C141.26 112.742 141.234 112.767 141.215 112.798L140.219 114.928L139.224 112.798C139.205 112.767 139.179 112.742 139.147 112.724C139.116 112.707 139.08 112.697 139.044 112.697H138.984C138.961 112.696 138.939 112.698 138.917 112.705C138.896 112.713 138.876 112.724 138.859 112.739C138.843 112.754 138.829 112.772 138.819 112.793C138.81 112.813 138.804 112.835 138.804 112.858L138.216 116.137C138.208 116.194 138.222 116.251 138.256 116.297C138.274 116.317 138.295 116.332 138.32 116.342C138.344 116.353 138.37 116.358 138.396 116.358H138.844C138.888 116.358 138.931 116.342 138.965 116.312C138.998 116.282 139.019 116.241 139.024 116.197L139.264 114.654L139.992 116.277C140.012 116.308 140.038 116.333 140.07 116.351C140.101 116.368 140.137 116.377 140.173 116.378H140.253C140.292 116.38 140.331 116.369 140.363 116.348C140.396 116.326 140.42 116.294 140.433 116.257L141.161 114.634L141.402 116.177C141.413 116.217 141.437 116.252 141.469 116.277C141.501 116.302 141.541 116.316 141.582 116.317H142.029C142.089 116.319 142.146 116.297 142.19 116.257C142.19 116.257 142.19 116.177 142.19 116.117H142.223Z" fill="#32383D"/>
<path d="M15.037 126.389C14.8742 126.232 14.6556 126.145 14.4292 126.149C14.2129 126.148 14.0037 126.226 13.8414 126.369C12.804 127.262 11.4831 127.756 10.1146 127.765C8.67055 127.695 7.3089 127.071 6.31178 126.024C5.31465 124.978 4.75848 123.587 4.75848 122.141C4.75848 120.695 5.31465 119.305 6.31178 118.258C7.3089 117.211 8.67055 116.588 10.1146 116.517C11.485 116.535 12.805 117.037 13.8414 117.933C14.0045 118.093 14.2212 118.186 14.4492 118.194C14.5645 118.192 14.6783 118.167 14.783 118.118C14.8877 118.07 14.9811 118 15.057 117.913L16.6399 116.29C16.7291 116.204 16.7986 116.1 16.8435 115.985C16.8885 115.87 16.9079 115.746 16.9004 115.622C16.8994 115.496 16.8715 115.371 16.8185 115.255C16.7655 115.14 16.6887 115.038 16.5932 114.954C14.8228 113.282 12.4622 112.379 10.0278 112.443C7.43092 112.443 4.94011 113.473 3.10196 115.308C1.26381 117.142 0.228489 119.631 0.223182 122.228C0.219621 123.512 0.470571 124.784 0.961528 125.971C1.45248 127.157 2.17371 128.235 3.08353 129.141C3.99336 130.047 5.07373 130.764 6.26222 131.25C7.45071 131.736 8.72374 131.982 10.0078 131.973C12.4702 132 14.8438 131.054 16.6132 129.341C16.795 129.151 16.8956 128.897 16.8937 128.633C16.8933 128.526 16.8699 128.419 16.825 128.321C16.78 128.223 16.7146 128.136 16.6332 128.066L15.0303 126.362L15.037 126.389Z" fill="#32383D"/>
<path d="M28.6285 112.43C26.6933 112.427 24.8008 112.999 23.1902 114.072C21.5797 115.145 20.3235 116.671 19.5805 118.458C18.8375 120.245 18.641 122.212 19.016 124.111C19.3909 126.009 20.3204 127.754 21.687 129.124C23.0535 130.495 24.7957 131.429 26.6932 131.809C28.5907 132.189 30.5583 131.998 32.3472 131.26C34.1361 130.522 35.666 129.27 36.7433 127.662C37.8206 126.055 38.3971 124.164 38.3997 122.228C38.4131 120.94 38.1696 119.662 37.6837 118.469C37.1977 117.276 36.4789 116.192 35.5692 115.28C34.6595 114.367 33.5773 113.646 32.3856 113.156C31.1939 112.667 29.9167 112.42 28.6285 112.43ZM28.6285 127.792C27.1503 127.792 25.7327 127.205 24.6874 126.159C23.6422 125.114 23.055 123.697 23.055 122.218C23.055 120.74 23.6422 119.322 24.6874 118.277C25.7327 117.232 27.1503 116.645 28.6285 116.645C30.1017 116.667 31.5082 117.263 32.5495 118.305C33.5907 119.348 34.1847 120.755 34.2054 122.228C34.1983 123.702 33.6072 125.112 32.5617 126.15C31.5162 127.188 30.1017 127.769 28.6285 127.765V127.792Z" fill="#32383D"/>
<path d="M57.9689 118.688C57.969 117.893 57.8113 117.106 57.505 116.372C57.1988 115.639 56.75 114.973 56.1848 114.414C55.6195 113.855 54.949 113.414 54.2119 113.115C53.4749 112.817 52.6861 112.668 51.8911 112.677H43.4423C43.2078 112.681 42.9839 112.775 42.818 112.941C42.6522 113.107 42.5575 113.331 42.554 113.565V130.771C42.5575 131.005 42.6522 131.229 42.818 131.395C42.9839 131.561 43.2078 131.656 43.4423 131.659H45.8334C46.0679 131.656 46.2918 131.561 46.4577 131.395C46.6235 131.229 46.7182 131.005 46.7216 130.771V124.566H49.7605L53.307 131.245C53.3771 131.388 53.4867 131.508 53.6228 131.591C53.7589 131.674 53.9158 131.716 54.0751 131.713H56.8135C56.9707 131.716 57.1262 131.679 57.2644 131.604C57.4027 131.529 57.5189 131.419 57.6016 131.285C57.6817 131.142 57.7238 130.981 57.7238 130.818C57.7238 130.654 57.6817 130.493 57.6016 130.35L54.2621 124.132C55.3426 123.684 56.2689 122.93 56.9273 121.963C57.5857 120.996 57.9477 119.858 57.9689 118.688ZM53.7946 118.748C53.7969 119.328 53.575 119.886 53.1754 120.305C52.7758 120.725 52.2295 120.973 51.6507 120.999H46.7684V116.625H51.6507C52.2132 116.633 52.7506 116.859 53.1503 117.255C53.55 117.651 53.7809 118.186 53.7946 118.748Z" fill="#32383D"/>
<path d="M69.4833 112.69H63.3187C63.0871 112.697 62.8673 112.794 62.7054 112.959C62.5434 113.125 62.4521 113.347 62.4504 113.579V130.784C62.4521 131.016 62.5434 131.238 62.7054 131.403C62.8673 131.569 63.0871 131.665 63.3187 131.672H69.4766C71.9946 131.672 74.4095 130.672 76.1899 128.892C77.9704 127.111 78.9707 124.696 78.9707 122.178C78.9707 119.66 77.9704 117.245 76.1899 115.464C74.4095 113.684 71.9946 112.684 69.4766 112.684L69.4833 112.69ZM74.6127 122.175C74.6411 122.903 74.5203 123.629 74.2578 124.308C73.9952 124.988 73.5965 125.607 73.0861 126.127C72.5756 126.646 71.9643 127.056 71.2896 127.331C70.6149 127.606 69.8911 127.74 69.1627 127.725H66.6047V116.644H69.1561C69.8827 116.629 70.6047 116.763 71.278 117.036C71.9513 117.31 72.5617 117.718 73.0719 118.236C73.582 118.754 73.9812 119.37 74.245 120.047C74.5088 120.724 74.6316 121.448 74.606 122.175H74.6127Z" fill="#32383D"/>
<path d="M91.8309 112.43C89.8954 112.426 88.0022 112.996 86.3908 114.069C84.7794 115.141 83.5222 116.667 82.7782 118.454C82.0341 120.24 81.8367 122.208 82.2109 124.107C82.5851 126.006 83.5141 127.751 84.8803 129.122C86.2466 130.493 87.9888 131.428 89.8865 131.809C91.7841 132.19 93.7521 131.999 95.5414 131.261C97.3307 130.523 98.8609 129.271 99.9386 127.663C101.016 126.055 101.593 124.164 101.595 122.229C101.607 120.942 101.362 119.666 100.876 118.475C100.39 117.284 99.6712 116.202 98.7625 115.291C97.8537 114.38 96.7728 113.659 95.5828 113.171C94.3928 112.682 93.1174 112.435 91.8309 112.444V112.43ZM91.8309 127.792C90.3527 127.792 88.9351 127.205 87.8898 126.16C86.8446 125.114 86.2574 123.697 86.2574 122.218C86.2574 120.74 86.8446 119.323 87.8898 118.277C88.9351 117.232 90.3527 116.645 91.8309 116.645C93.303 116.669 94.7078 117.265 95.7476 118.308C96.7874 119.35 97.3805 120.756 97.4011 122.229C97.3941 123.701 96.8039 125.11 95.7598 126.148C94.7158 127.186 93.303 127.767 91.8309 127.766V127.792Z" fill="#32383D"/>
<path d="M120.604 113.098C120.522 112.969 120.408 112.863 120.274 112.792C120.139 112.72 119.988 112.685 119.836 112.69H117.164C116.992 112.687 116.822 112.735 116.678 112.829C116.534 112.923 116.422 113.059 116.356 113.218L111.634 123.778L106.959 113.238C106.892 113.078 106.78 112.941 106.637 112.843C106.493 112.746 106.324 112.693 106.15 112.69H103.479C103.326 112.685 103.175 112.72 103.041 112.792C102.906 112.863 102.792 112.969 102.711 113.098C102.63 113.223 102.584 113.368 102.577 113.517C102.57 113.665 102.602 113.814 102.671 113.946L110.685 131.452C110.756 131.606 110.87 131.737 111.014 131.827C111.157 131.917 111.324 131.963 111.494 131.96H111.761C111.932 131.961 112.1 131.911 112.244 131.817C112.388 131.724 112.501 131.59 112.569 131.432L120.63 113.946C120.691 113.811 120.717 113.662 120.707 113.514C120.696 113.366 120.649 113.223 120.57 113.098H120.604Z" fill="#32383D"/>
<path d="M136.526 130.464L128.511 112.958C128.442 112.803 128.328 112.672 128.184 112.582C128.04 112.491 127.873 112.446 127.703 112.45H127.443C127.271 112.449 127.103 112.498 126.959 112.592C126.816 112.686 126.703 112.82 126.635 112.978L118.553 130.444C118.485 130.576 118.452 130.724 118.459 130.873C118.466 131.022 118.513 131.166 118.593 131.292C118.678 131.418 118.792 131.521 118.926 131.592C119.06 131.663 119.21 131.7 119.361 131.699H121.632C121.872 131.704 122.108 131.635 122.308 131.501C122.508 131.368 122.661 131.175 122.748 130.951L123.923 128.38H131.176L132.352 130.951C132.437 131.176 132.591 131.369 132.79 131.503C132.99 131.637 133.227 131.705 133.467 131.699H135.718C135.87 131.704 136.021 131.669 136.156 131.598C136.291 131.526 136.405 131.421 136.486 131.292C136.562 131.168 136.605 131.028 136.612 130.883C136.619 130.738 136.59 130.594 136.526 130.464ZM129.513 124.686H125.539L127.503 120.271L129.507 124.686H129.513Z" fill="#32383D"/>
</g>
<defs>
<clipPath id="clip0_874_20489">
<rect width="142" height="132" fill="white" transform="translate(0.223145)"/>
</clipPath>
</defs>
</svg>
