<svg width="146" height="112" viewBox="0 0 146 112" fill="none" xmlns="http://www.w3.org/2000/svg">
<path d="M28.7266 112H26.0311V97.8468H28.7358L28.7266 112ZM26.0586 97.8468V89.0805H28.7633V97.856L26.0586 97.8468ZM26.0586 112H23.3263V103.188H5.95201V112H0.634277V89.0713H5.95201V97.8375H26.0311V111.991L26.0586 112ZM26.0586 89.0805H23.3263V97.856H26.0769L26.0586 89.0805Z" fill="#BA160C"/>
<path d="M56.6905 100.37C57.5839 100.919 58.3118 101.702 58.7963 102.634C59.2808 103.567 59.5036 104.615 59.441 105.665C59.4634 106.511 59.3117 107.353 58.9954 108.139C58.679 108.924 58.2049 109.635 57.6026 110.228C57.0003 110.82 56.2828 111.282 55.4949 111.584C54.7069 111.886 53.8655 112.021 53.0231 111.981H45.239V106.641H53.0598C53.8299 106.641 54.215 106.061 54.215 104.9C54.215 103.74 53.8299 103.163 53.0598 103.169H45.239V97.8836H52.6655C53.4357 97.8836 53.8207 97.3035 53.8207 96.1433C53.8207 94.983 53.4357 94.406 52.6655 94.4121H45.239V89.0713H52.6655C53.5617 89.0259 54.457 89.1779 55.2885 89.5168C56.12 89.8556 56.8676 90.373 57.479 91.0327C58.5464 92.2295 59.1172 93.7912 59.0743 95.3974C59.112 96.3588 58.9144 97.3148 58.4988 98.1817C58.0833 99.0486 57.4623 99.7999 56.6905 100.37ZM45.239 112H30.9453V97.8836H45.239V103.178H36.263V106.65H45.239V111.991V112ZM45.239 94.4213H36.263V98.0586L30.9453 97.9297V89.0897H45.239V94.4305V94.4213Z" fill="#BA160C"/>
<path d="M61.9349 83.1135V80.6733H65.9049V79.1907C65.9049 78.6628 65.7276 78.3988 65.3731 78.3988H61.9349V75.9586H65.3731C65.7766 75.9409 66.1788 76.0145 66.5502 76.1738C66.9215 76.3332 67.2524 76.5744 67.5185 76.8795C68.0652 77.5121 68.3591 78.3256 68.3437 79.1631V86.4653H65.9049V83.1135H61.9349ZM94.3364 86.4653H86.2498C85.3533 86.4927 84.4827 86.1615 83.8293 85.5444C83.5048 85.2421 83.2478 84.8739 83.0756 84.4644C82.9033 84.0548 82.8196 83.6132 82.8299 83.1687V79.2828C82.8196 78.8383 82.9033 78.3967 83.0756 77.9872C83.2478 77.5776 83.5048 77.2095 83.8293 76.9071C84.4827 76.2901 85.3533 75.9588 86.2498 75.9863H94.3364V78.4357H86.2498C85.6019 78.4357 85.2779 78.7426 85.2779 79.3565V83.2147C85.2779 83.8286 85.6019 84.1356 86.2498 84.1356H94.3364V86.4653ZM120.008 86.4653H117.551V82.4228H111.298V86.4653H108.823V75.9586H111.261V79.9734H117.514V75.9586H119.972L120.008 86.4653ZM145.68 78.408H136.97V79.9827H145.112V82.432H136.97V84.0251H145.662V86.4653H134.494V75.9586H145.643V78.408H145.68ZM61.9349 75.9586V78.408H58.4692C58.133 78.408 57.9649 78.672 57.9649 79.1999V80.6733H61.9349V83.1227H57.9649V86.4653H55.5261V79.1907C55.5107 78.3533 55.8047 77.5397 56.3513 76.9071C56.6132 76.6042 56.9394 76.3642 57.306 76.2048C57.6726 76.0454 58.0701 75.9707 58.4692 75.9863H61.9349V75.9586ZM34.4844 83.0398V80.5904H38.0601C38.4146 80.5904 38.5919 80.2313 38.5919 79.513C38.5919 78.7948 38.4146 78.4265 38.0601 78.408H34.4844V75.9586H38.0601C38.4893 75.95 38.9139 76.048 39.2962 76.244C39.6785 76.44 40.0066 76.7279 40.2514 77.082C40.7725 77.7826 41.0438 78.6388 41.0215 79.513C41.0525 80.3913 40.7805 81.2533 40.2514 81.9532C40.0066 82.3074 39.6785 82.5952 39.2962 82.7912C38.9139 82.9872 38.4893 83.0853 38.0601 83.0766L34.4844 83.0398ZM13.4702 86.4653H11.013V83.1135H7.0522V80.6733H11.0222V79.1907C11.0222 78.6628 10.8449 78.3988 10.4904 78.3988H7.0522V75.9586H10.4904C10.8938 75.9409 11.2961 76.0145 11.6674 76.1738C12.0388 76.3332 12.3697 76.5744 12.6358 76.8795C13.1922 77.5178 13.4899 78.3426 13.4702 79.1907V86.4653ZM34.4844 75.9586V78.408H30.3861V80.5904H34.4844V83.0398H30.3861V86.4653H27.9472V75.9586H34.4844ZM7.0522 83.1135H3.07307V86.4653H0.634244V79.1907C0.618822 78.3533 0.912784 77.5397 1.45941 76.9071C1.72129 76.6042 2.04754 76.3642 2.41411 76.2048C2.78068 76.0454 3.1782 75.9707 3.57734 75.9863H7.0522V78.4357H3.57734C3.24116 78.4357 3.07307 78.6996 3.07307 79.2276V80.7009H7.0522V83.1135Z" fill="#666666"/>
<path d="M89.5689 112H84.2511V104.698H75.5961V99.3568H84.2603V96.1523C84.2603 94.9982 83.8752 94.4212 83.1051 94.4212H75.5961V89.0804H83.1509C84.03 89.0566 84.9031 89.2312 85.706 89.5914C86.509 89.9516 87.2212 90.4881 87.7902 91.1615C88.9969 92.5353 89.6507 94.3114 89.6239 96.1431L89.5689 112ZM75.5961 104.698H66.9318V112H61.6141V96.1523C61.5873 94.3206 62.241 92.5445 63.4478 91.1707C64.0127 90.4943 64.7227 89.9549 65.5245 89.593C66.3262 89.231 67.1991 89.0558 68.0779 89.0804H75.6327V94.4212H68.0412C67.3016 94.4212 66.9318 94.9982 66.9318 96.1523V99.3568H75.5961V104.698Z" fill="#BA160C"/>
<path d="M119.091 104.919C119.137 106.724 118.52 108.484 117.359 109.863C116.784 110.549 116.065 111.096 115.252 111.466C114.44 111.835 113.556 112.018 112.664 112H92.9887V106.659H112.664C113.404 106.659 113.774 106.079 113.774 104.919C113.774 103.758 113.404 103.181 112.664 103.187H98.3523C97.4607 103.205 96.5764 103.023 95.7641 102.653C94.9519 102.284 94.2323 101.736 93.658 101.051C92.4712 99.7024 91.8387 97.9514 91.8885 96.1523C91.8617 94.3205 92.5154 92.5444 93.7222 91.1706C94.2931 90.4941 95.008 89.9551 95.8142 89.5933C96.6204 89.2315 97.4971 89.0562 98.3798 89.0803H117.991V94.4211H98.3523C97.6127 94.4211 97.2429 94.9982 97.2429 96.1523C97.2429 97.3064 97.6127 97.8711 98.3523 97.8466H112.664C113.556 97.8285 114.44 98.0109 115.252 98.3806C116.065 98.7502 116.784 99.2977 117.359 99.9829C118.518 101.36 119.135 103.116 119.091 104.919Z" fill="#BA160C"/>
<path d="M121.301 112V89.0713H145.634V94.4121H126.619V97.8468H144.387V103.188H126.619V106.659H145.588V112H121.301Z" fill="#BA160C"/>
<path d="M116.332 48.1774C116.188 47.9901 116.074 47.7821 115.992 47.5605C115.666 46.9075 115.096 46.4109 114.406 46.1792C113.944 45.9838 113.507 45.7334 113.104 45.4333C112.38 44.8716 111.775 44.7704 109.666 44.8348C107.356 44.9085 106.531 44.577 105.898 43.3339L105.586 42.7169L105.394 43.3983C105.018 44.7335 104.578 45.0742 103.413 44.9545C103.117 44.8944 102.811 44.9047 102.52 44.9847C102.229 45.0646 101.96 45.212 101.735 45.4149C101.442 45.6728 101.378 45.6912 101.094 45.5623C100.809 45.4333 100.764 45.4333 100.488 45.7464C100.277 45.9925 99.977 46.1448 99.6541 46.17C98.9757 46.2897 98.7373 46.5936 98.4989 47.4315C98.123 49.0061 97.3437 48.6102 96.6652 46.5107C95.8675 44.1534 96.5277 42.4407 99.214 39.8531C100.598 38.5272 101.167 37.7721 101.414 36.9802C101.598 36.3632 101.625 36.3356 101.855 36.5013C103.049 37.5616 104.173 38.6998 105.219 39.9084C106.338 41.2068 106.622 41.4278 106.778 41.1147C106.934 40.8016 105.962 39.6229 104.394 38.0023C100.498 33.9875 95.9684 31.7038 91.1457 31.3355C89.1958 31.1249 87.2246 31.4132 85.4154 32.1735C84.1655 32.5337 82.9691 33.0601 81.858 33.7389C79.7558 35.0437 77.7655 36.5221 75.9077 38.1588C73.5605 40.157 73.5605 40.157 70.5074 40.1018C69.2697 40.1018 67.7569 40.1018 67.2434 40.1018C66.0121 40.2169 64.8171 40.5835 63.7319 41.1791C62.3965 42.2023 61.2459 43.4481 60.3304 44.8624C59.318 46.4579 57.9996 47.8352 56.4521 48.9141C55.2694 49.6876 54.8201 50.1756 54.6826 50.811C54.6167 51.0241 54.6109 51.2514 54.6659 51.4676C54.721 51.6838 54.8346 51.8805 54.9943 52.0357C56.1402 52.5901 57.3601 52.9747 58.6159 53.1775C58.954 53.2372 59.2857 53.3298 59.6061 53.4537C59.7436 53.5642 58.0566 55.2954 56.773 56.3267C53.9885 58.4743 50.9563 60.2768 47.742 61.6951C45.9439 62.4765 44.2474 63.4753 42.6902 64.6694C41.9383 65.2219 40.8565 65.9678 40.2147 66.3269C37.5466 67.9015 34.7136 68.0764 33.7967 66.7228C33.6587 66.505 33.4851 66.312 33.2833 66.1519C32.8635 65.826 32.5244 65.4071 32.2922 64.928C32.06 64.4488 31.9411 63.9223 31.9447 63.3894C31.9218 62.6822 31.8483 61.9774 31.7246 61.2808C31.2397 58.8939 31.19 56.4385 31.5779 54.0339C32.2564 49.8257 34.4752 44.0153 37.5925 38.2693C39.6554 34.4755 41.7825 31.3723 46.8893 24.724C50.0433 20.6171 50.0708 20.5711 50.0983 19.0977C50.0983 18.7662 49.9791 16.722 49.8141 14.5489C49.3098 7.77158 49.539 5.06435 50.8318 2.57813C51.5836 1.30739 53.0781 0.0918964 54.16 -0.000186117C54.7743 -0.0462274 54.9026 0.220812 55.0768 1.94276C55.2149 4.31783 55.6745 6.66293 56.4429 8.91341C57.2223 11.2431 57.6715 12.0903 58.5884 12.9927C59.8444 14.2266 60.4221 14.3463 63.6127 13.9135C74.7891 12.5046 82.8666 13.3702 89.4954 16.676C95.6475 19.7331 101.827 25.7001 107.282 33.8309L108.318 35.3779L109.437 35.7555C111.927 36.4703 114.1 38.0164 115.598 40.1386C116.546 41.8002 117.127 43.6465 117.304 45.5531C117.414 47.3487 117.304 48.1682 116.818 48.3155C116.734 48.3284 116.648 48.3171 116.57 48.2829C116.492 48.2486 116.425 48.1929 116.377 48.1222L116.332 48.1774ZM115.36 44.6691C115.227 44.1092 115.049 43.561 114.828 43.03C114.065 40.8938 112.493 39.1465 110.455 38.168C108.758 37.2472 105.953 36.4369 105.32 36.6579C105.082 36.7408 105.082 36.7868 105.32 37.2932C105.665 37.8852 106.061 38.4459 106.503 38.9692C106.944 39.4895 107.34 40.0471 107.686 40.6358C107.906 41.1055 107.915 41.2252 107.741 41.5567C107.567 41.8882 107.154 42.1828 106.512 42.0447C106.246 41.9895 106.017 41.971 105.999 42.0447C106.029 42.2317 106.098 42.4104 106.2 42.5696C106.686 43.4904 107.365 43.6654 109.703 43.5825C113.123 43.4444 113.902 43.6562 114.892 44.9545C115.103 45.2308 115.396 45.065 115.36 44.6783V44.6691ZM39.8296 65.4797C40.5904 65.033 41.3279 64.5474 42.0392 64.0248C43.9702 62.6517 46.0128 61.4442 48.1454 60.4152C50.6652 59.2009 53.0815 57.7811 55.3702 56.1702C56.4338 55.3783 57.3506 54.5219 57.2956 54.3285C56.9863 54.1868 56.6594 54.0877 56.3237 54.0339C55.545 53.8206 54.787 53.537 54.0591 53.1867C53.5996 52.941 53.1176 52.7406 52.6197 52.5882C51.9585 53.081 51.4086 53.7086 51.006 54.4298C48.9706 57.3488 48.1546 58.1131 44.148 60.4612C42.8339 61.1172 41.6598 62.0243 40.6914 63.1316C40.1051 63.9683 39.3644 64.6842 38.5093 65.2403C37.9717 65.5813 37.4001 65.8652 36.804 66.0875C35.5662 66.511 35.5571 66.9438 36.804 66.7505C37.8785 66.503 38.9064 66.0833 39.8479 65.5073L39.8296 65.4797ZM98.6181 45.2216C98.7539 44.9753 98.9306 44.7542 99.1407 44.5678L99.5716 44.1718H100.773C102.276 44.1258 104.083 43.5733 104.44 43.0576L104.963 42.3117C105.146 42.0539 105.366 41.879 105.504 41.879C105.641 41.879 105.733 41.879 105.733 41.879C105.733 41.879 102.726 38.4903 102.487 38.3062L102.203 38.0852L101.772 38.7574C101.534 39.1257 100.663 40.2215 99.8467 41.1976C97.7471 43.693 97.1878 44.7888 97.6646 45.5162C97.8021 45.728 97.9121 45.7648 98.178 45.6728C98.363 45.6093 98.517 45.4777 98.6089 45.3044L98.6181 45.2216ZM46.5501 55.3506C46.7503 55.1592 46.9122 54.931 47.0269 54.6784C47.2469 53.6839 45.294 54.439 45.0373 55.4519C44.9731 55.719 45.0373 55.7742 45.2115 55.8847C45.3857 55.9952 46.0367 55.8847 46.5409 55.3506H46.5501ZM49.4015 51.4924C50.3095 50.8827 51.1707 50.2055 51.9779 49.4666C52.6838 48.6732 53.126 47.6787 53.2431 46.6212C53.317 46.1299 53.4622 45.6521 53.674 45.2031C53.8221 44.9713 53.9074 44.7047 53.9216 44.4296C53.6099 43.5088 50.3092 44.1626 48.4938 45.507C46.2934 47.1369 44.8264 50.4703 45.3765 52.404C45.7341 53.5919 46.3942 53.4261 49.374 51.4279L49.4015 51.4924ZM96.6744 31.3079C96.108 30.7493 95.4466 30.2971 94.7215 29.9727C93.0967 29.2658 91.339 28.9203 89.5688 28.9598C88.1385 28.9045 87.5242 28.794 87.4417 28.5546C87.4482 28.409 87.489 28.2669 87.5609 28.1402C88.0009 27.2194 91.4575 26.9892 94.1714 27.643C95.3573 27.94 96.5141 28.3438 97.6279 28.8493C98.4806 29.236 98.5997 29.2637 98.5447 29.0334C97.9807 28.2518 97.2669 27.5912 96.4451 27.0905C93.5878 25.247 90.2008 24.4112 86.8182 24.7148C84.3669 24.7998 81.9869 25.5647 79.9418 26.9248C77.995 28.4963 76.3936 30.4558 75.2384 32.6799C74.2769 34.5557 73.1862 36.3618 71.9744 38.0852C71.7223 38.3484 71.5286 38.6622 71.4059 39.006C71.6873 39.0947 71.9834 39.126 72.277 39.0981H73.0654L74.5416 37.6892C76.9161 35.3141 79.6216 33.2979 82.5732 31.7038C86.4859 30.006 90.8767 29.7804 94.9415 31.0685C96.3076 31.4552 96.7752 31.5197 96.6744 31.3263V31.3079ZM68.0503 52.2382C64.2901 53.0469 60.3917 52.9395 56.6813 51.9252C55.8837 51.695 55.6269 51.566 55.5077 51.3082C55.2143 50.6728 55.6819 50.0835 57.1764 49.1903C58.4967 48.4076 59.276 47.6065 60.9172 45.3505C63.1359 42.3117 64.1261 41.4462 66.0607 40.9121C66.9776 40.6635 67.5735 40.6174 70.8467 40.6082C75.7518 40.6082 80.9962 40.6635 81.4271 40.774C82.4082 41.0134 81.6563 43.3891 79.9327 45.4978C78.4433 47.2438 76.6509 48.704 74.6424 49.8073C72.5209 50.8116 70.3148 51.6251 68.0503 52.2382ZM34.3468 43.1681C34.1464 42.7538 33.9927 42.3183 33.8884 41.8698C33.1896 38.9864 33.5578 35.9463 34.9244 33.3153C35.3632 32.4603 35.9904 31.7171 36.7581 31.1421C37.1432 31.0132 37.5283 31.3355 38.2068 32.3852C38.4889 32.8491 38.8311 33.2734 39.2245 33.6468C39.4262 33.7849 39.582 33.923 39.5637 33.9506L38.6469 35.3411C37.3414 37.4111 36.1714 39.5642 35.1445 41.7869C34.576 43.0668 34.4293 43.297 34.301 43.1405L34.3468 43.1681Z" fill="#050505"/>
</svg>
