<svg width="93" height="112" viewBox="0 0 93 112" fill="none" xmlns="http://www.w3.org/2000/svg">
<path d="M24.8134 111.908C24.6141 111.908 24.4148 111.842 24.282 111.644L18.0379 103.475V111.776H16.5765V101.498C16.5765 101.103 16.9087 100.773 17.3072 100.773C17.5065 100.773 17.7058 100.839 17.9051 101.037L24.1491 109.206V100.905H25.544V111.117C25.544 111.578 25.2119 111.908 24.8134 111.908Z" fill="#1A1918"/>
<path d="M36.6371 111.973C35.2422 111.973 33.7144 111.71 32.3195 111.183L32.6516 109.997C33.9137 110.392 35.3086 110.722 36.6371 110.722C38.4306 110.722 39.3606 110.063 39.3606 109.206C39.3606 108.416 38.6299 107.955 36.1057 106.835C33.5816 105.649 32.5852 104.924 32.5852 103.409C32.5852 101.564 33.9801 100.839 36.7036 100.839C37.8328 100.839 39.5599 101.037 40.5563 101.366L40.357 102.552C39.2942 102.289 37.8992 102.091 36.77 102.091C34.8436 102.091 34.113 102.421 34.113 103.343C34.113 104.199 34.7108 104.595 37.3678 105.846C40.1577 107.164 40.8884 107.757 40.8884 109.141C40.822 111.051 39.0285 111.973 36.6371 111.973Z" fill="#1A1918"/>
<path d="M47.5974 100.971H49.0588V111.842H47.5974V100.971Z" fill="#1A1918"/>
<path d="M61.6133 106.901H57.9599V110.59H61.6133C62.8754 110.59 63.6061 109.799 63.6061 108.745C63.6061 107.691 62.809 106.901 61.6133 106.901ZM60.8826 102.223H57.9599V105.715H60.8826C62.0783 105.715 62.9419 104.99 62.9419 103.936C62.9419 102.816 62.2112 102.223 60.8826 102.223ZM61.6133 111.842H57.2292C56.8307 111.842 56.4985 111.512 56.4985 111.117V101.696C56.4985 101.301 56.8307 100.971 57.2292 100.971H60.8826C63.1411 100.971 64.4697 102.091 64.4697 103.804C64.4697 104.726 63.9382 105.583 63.0747 106.11C64.3368 106.505 65.1339 107.494 65.1339 108.745C65.1339 110.458 63.6725 111.842 61.6133 111.842Z" fill="#1A1918"/>
<path d="M72.2416 111.842C71.843 111.842 71.5109 111.512 71.5109 111.117V100.971H72.9722V110.524H78.8177V111.842H72.2416Z" fill="#1A1918"/>
<path d="M88.9144 111.973C85.9252 111.973 84.0653 110.853 84.0653 108.613C84.0653 107.559 84.6631 106.571 85.8588 106.044C84.9288 105.451 84.4639 104.595 84.4639 103.738C84.4639 101.696 86.0581 100.773 88.9808 100.773C89.9772 100.773 91.3722 100.905 92.5014 101.169L92.3686 102.355C91.1065 102.157 89.9772 102.025 88.848 102.025C86.9216 102.025 85.9252 102.552 85.9252 103.804C85.9252 104.792 86.8552 105.583 88.1173 105.583H90.6415C90.9736 105.583 91.3057 105.846 91.3057 106.176C91.3057 106.505 91.04 106.835 90.6415 106.835H87.918C86.5231 106.835 85.5931 107.559 85.5931 108.613C85.5931 110.195 87.0545 110.656 88.9144 110.656C89.9108 110.656 91.3057 110.524 92.3686 110.26L92.5678 111.446C91.505 111.776 90.1101 111.973 88.9144 111.973Z" fill="#1A1918"/>
<path d="M5.61625 103.014L8.20686 109.404L4.28773 106.308L5.61625 103.014ZM10.1996 110.919L6.21408 101.301C6.08123 101.037 5.88195 100.905 5.61625 100.905C5.35054 100.905 5.08484 101.037 4.95199 101.301L0.567871 111.842H2.02924L3.75632 107.494L8.93755 111.71C9.13682 111.908 9.26968 111.974 9.46895 111.974C9.86751 111.974 10.1996 111.71 10.1996 111.249C10.2661 111.117 10.2661 110.985 10.1996 110.919Z" fill="#1A1918"/>
<path d="M92.6343 45.5247C92.6343 70.6918 72.1087 91.0494 46.734 91.0494C21.3592 91.0494 0.833618 70.6918 0.833618 45.5247C0.833618 20.3576 21.3592 0 46.734 0C72.0423 0 92.6343 20.3576 92.6343 45.5247Z" fill="#1A1918"/>
<path d="M47.4647 27.8023L59.355 56.8565L41.4199 42.8235L47.4647 27.8023ZM68.5882 63.5765L50.321 19.9623C49.7896 18.7106 48.7268 18.0518 47.4647 18.0518C46.2026 18.0518 45.0734 18.7106 44.542 19.9623L24.5477 67.7929H31.3896L39.3607 48.0941L63.0748 67.0682C64.0048 67.8588 64.7355 68.1882 65.599 68.1882C67.3925 68.1882 68.9203 66.8706 68.9203 64.96C68.9203 64.6306 68.7874 64.1035 68.5882 63.5765Z" fill="white"/>
</svg>
