<svg width="129" height="112" viewBox="0 0 129 112" fill="none" xmlns="http://www.w3.org/2000/svg">
<path d="M9.56829 92.7029C5.16405 92.7029 0.634277 96.2392 0.634277 102.428C0.634277 108.085 4.61705 112.081 9.56829 112.081C13.6561 112.081 15.4778 109.332 15.4778 109.332V110.531C15.4778 111.097 16.0119 111.729 16.6742 111.729H19.6283V93.1238H15.4778V95.4848C15.4778 95.4848 13.6407 92.7017 9.56829 92.7017V92.7029ZM10.3075 96.5061C13.9341 96.5061 15.8352 99.6998 15.8352 102.425C15.8352 105.46 13.5767 108.342 10.3151 108.342C7.58907 108.343 4.86173 106.131 4.86173 102.385C4.86173 99.0095 7.20732 96.5074 10.3075 96.5074V96.5061Z" fill="black"/>
<path d="M25.3969 111.728C25.2384 111.733 25.0807 111.705 24.9334 111.646C24.786 111.588 24.6522 111.5 24.5401 111.387C24.4281 111.275 24.3401 111.141 24.2817 110.994C24.2232 110.846 24.1956 110.688 24.2004 110.529V93.1263H28.3509V95.4282C29.2912 94.0168 31.1295 92.6978 33.9491 92.6978C38.5609 92.6978 41.0141 96.379 41.0141 99.8204V111.729H38.1305C37.7952 111.728 37.474 111.594 37.237 111.356C36.9999 111.119 36.8661 110.797 36.8648 110.461V100.737C36.8648 98.8285 35.6977 96.5112 32.9986 96.5112C30.0868 96.5112 28.3522 99.2673 28.3522 101.863V111.728H25.3969Z" fill="black"/>
<path d="M53.1149 92.7031C48.7107 92.7031 44.1809 96.2381 44.1809 102.427C44.1809 108.084 48.1637 112.08 53.1149 112.08C57.2027 112.08 59.0244 109.331 59.0244 109.331V110.53C59.0244 111.095 59.5586 111.728 60.2209 111.728H63.175V83.8252H59.0244V95.4862C59.0244 95.4862 57.1874 92.7031 53.1149 92.7031ZM53.8541 96.5063C57.4807 96.5063 59.3818 99.7 59.3818 102.425C59.3818 105.46 57.1233 108.342 53.8618 108.342C51.1344 108.342 48.4032 106.13 48.4032 102.386C48.4032 99.0097 50.754 96.5076 53.8541 96.5076V96.5063Z" fill="black"/>
<path d="M68.9421 111.728C68.7837 111.733 68.626 111.705 68.4787 111.647C68.3313 111.588 68.1975 111.5 68.0854 111.388C67.9734 111.276 67.8854 111.142 67.827 110.994C67.7685 110.846 67.7409 110.688 67.7456 110.53V93.1268H71.8962V96.2268C72.6111 94.4894 74.1522 92.915 76.8923 92.915C77.3878 92.9197 77.8819 92.9669 78.3694 93.0562V97.3546C77.7371 97.1269 77.071 97.0076 76.3991 97.0018C73.4873 97.0018 71.8962 99.7579 71.8962 102.354V111.728H68.9421Z" fill="black"/>
<path d="M103.553 111.728C103.395 111.733 103.237 111.705 103.09 111.646C102.943 111.588 102.809 111.5 102.697 111.388C102.585 111.275 102.497 111.141 102.438 110.994C102.38 110.846 102.352 110.688 102.357 110.529V93.1265H106.508V111.732L103.553 111.728Z" fill="black"/>
<path d="M118.679 92.7031C114.273 92.7031 109.745 96.2381 109.745 102.427C109.745 108.084 113.728 112.08 118.679 112.08C122.767 112.08 124.588 109.331 124.588 109.331V110.53C124.588 111.095 125.122 111.728 125.785 111.728H128.739V83.8252H124.588V95.4862C124.588 95.4862 122.751 92.7031 118.679 92.7031ZM119.418 96.5063C123.045 96.5063 124.946 99.7 124.946 102.425C124.946 105.46 122.687 108.342 119.426 108.342C116.698 108.342 113.967 106.13 113.967 102.386C113.967 99.0097 116.313 96.5076 119.418 96.5076V96.5063Z" fill="black"/>
<path d="M104.4 89.1142C105.916 89.1142 107.146 87.8831 107.146 86.3645C107.146 84.8458 105.916 83.6147 104.4 83.6147C102.884 83.6147 101.655 84.8458 101.655 86.3645C101.655 87.8831 102.884 89.1142 104.4 89.1142Z" fill="black"/>
<path d="M89.316 92.6978C84.7042 92.6978 79.6351 96.1468 79.6351 102.394C79.6351 108.088 83.9523 112.082 89.307 112.082C95.9057 112.082 99.1275 106.768 99.1275 102.43C99.1275 97.1078 94.9782 92.6978 89.3173 92.6978H89.316ZM89.3314 96.5805C92.5212 96.5805 94.9014 99.1557 94.9014 102.407C94.9014 105.715 92.3751 108.267 89.3416 108.267C86.5233 108.267 83.787 105.972 83.787 102.464C83.787 98.8965 86.3914 96.5818 89.3326 96.5818L89.3314 96.5805Z" fill="black"/>
<path d="M95.9518 21.664L106.577 3.23838C106.864 2.74327 106.942 2.15446 106.796 1.60117C106.65 1.04787 106.29 0.57531 105.797 0.287193C105.553 0.143296 105.283 0.0494797 105.003 0.0112254C104.723 -0.027029 104.437 -0.00895445 104.164 0.0643931C103.891 0.137741 103.635 0.26489 103.411 0.438415C103.188 0.611939 103.001 0.828359 102.862 1.07503L92.101 19.7381C83.892 15.9836 74.6531 13.8896 64.7161 13.8896C54.779 13.8896 45.5439 15.9836 37.3363 19.7381L26.5755 1.07503C26.2758 0.609051 25.8082 0.276726 25.2701 0.147162C24.732 0.0175983 24.1648 0.100768 23.6863 0.379375C23.2079 0.657983 22.8551 1.11059 22.7013 1.64307C22.5475 2.17555 22.6045 2.74692 22.8605 3.23838L33.4803 21.664C15.1627 31.6031 2.75957 50.1699 0.711182 71.9022H128.73C126.682 50.1699 114.278 31.6031 95.9518 21.664ZM35.3289 53.891C34.2678 53.891 33.2305 53.5758 32.3482 52.9853C31.466 52.3949 30.7783 51.5556 30.3722 50.5737C29.9662 49.5918 29.8599 48.5113 30.0669 47.4689C30.274 46.4265 30.7849 45.469 31.5352 44.7174C32.2855 43.9659 33.2415 43.4541 34.2822 43.2468C35.3229 43.0394 36.4017 43.1458 37.382 43.5526C38.3623 43.9593 39.2002 44.6481 39.7897 45.5318C40.3792 46.4155 40.6939 47.4544 40.6939 48.5172C40.6932 49.9422 40.1278 51.3087 39.1218 52.3163C38.1158 53.3239 36.7516 53.8903 35.3289 53.891ZM94.0981 53.891C93.037 53.891 91.9998 53.5758 91.1175 52.9853C90.2352 52.3949 89.5476 51.5556 89.1415 50.5737C88.7354 49.5918 88.6292 48.5113 88.8362 47.4689C89.0432 46.4265 89.5542 45.469 90.3045 44.7174C91.0548 43.9659 92.0108 43.4541 93.0515 43.2468C94.0922 43.0394 95.1709 43.1458 96.1512 43.5526C97.1316 43.9593 97.9695 44.6481 98.559 45.5318C99.1485 46.4155 99.4632 47.4544 99.4632 48.5172C99.4625 49.9422 98.897 51.3087 97.891 52.3163C96.885 53.3239 95.5208 53.8903 94.0981 53.891Z" fill="#32DE84"/>
</svg>
