<svg width="271" height="113" viewBox="0 0 271 113" fill="none" xmlns="http://www.w3.org/2000/svg">
<path d="M8.31262 19.6353L0.73877 23.3729V89.4801L8.31262 93.2248L8.35493 93.1687V19.6353H8.31262Z" fill="#8C3123"/>
<path d="M48.8475 83.6317L8.31262 93.2248V19.6353L48.8475 28.99V83.6246" fill="#E05243"/>
<path d="M30.5547 68.6106L47.7475 70.7845L47.8532 70.539L47.952 42.4889L47.7475 42.2715L30.5547 44.4243V68.6106Z" fill="#8C3123"/>
<path d="M47.7474 83.7366L87.1752 93.2666L87.2387 93.1684V19.67L87.1752 19.6069L47.7474 29.1019V83.7366Z" fill="#8C3123"/>
<path d="M64.912 68.6109L47.7122 70.7848V42.2788L64.912 44.4246V68.6109Z" fill="#E05243"/>
<path d="M64.912 32.7347L47.7475 35.8483L30.5547 32.7347L47.7263 28.2607L64.912 32.7347Z" fill="#5E1F18"/>
<path d="M64.912 80.2723L47.7475 77.1377L30.5547 80.2723L47.7263 85.0408L64.912 80.2723Z" fill="#F2B0A9"/>
<path d="M30.5547 32.7345L47.7475 28.527L47.8885 28.4849V0.112201L47.7475 0L30.5547 8.54828V32.7345Z" fill="#8C3123"/>
<path d="M64.912 32.7345L47.7122 28.527V0L64.912 8.54828V32.7345Z" fill="#E05243"/>
<path d="M47.7474 113L30.5476 104.487V80.2725L47.7404 84.48L47.9943 84.7675L47.9237 112.488L47.7404 112.979" fill="#8C3123"/>
<path d="M47.7474 113L64.912 104.487V80.2727L47.7122 84.4802V112.979M87.1752 19.6353L94.7561 23.401V89.4801L87.1752 93.2669V19.6353Z" fill="#E05243"/>
<path d="M204.704 31.858V28.3517C204.7 28.2328 204.721 28.1143 204.765 28.0036C204.809 27.893 204.875 27.7924 204.959 27.7083C205.044 27.6242 205.145 27.5582 205.256 27.5145C205.368 27.4707 205.487 27.4502 205.606 27.4541H221.53C221.65 27.4503 221.77 27.4708 221.882 27.5143C221.994 27.5579 222.096 27.6237 222.182 27.7076C222.267 27.7915 222.335 27.8919 222.381 28.0026C222.426 28.1133 222.449 28.2321 222.447 28.3517V31.346C222.447 31.8509 222.009 32.5171 221.248 33.569L213.004 45.287C216.151 45.1107 219.289 45.7792 222.087 47.2224C222.341 47.3599 222.553 47.5625 222.702 47.8091C222.851 48.0557 222.931 48.3374 222.933 48.6249V52.3977C222.933 52.9096 222.362 53.5127 221.763 53.2041C219.163 51.8696 216.279 51.1733 213.353 51.1733C210.427 51.1733 207.544 51.8696 204.944 53.2041C204.394 53.5057 203.815 52.9026 203.815 52.3907V48.8073C203.762 47.9563 203.966 47.1089 204.401 46.3739L213.956 32.7415H205.621C205.501 32.7463 205.381 32.7267 205.269 32.6839C205.157 32.6411 205.055 32.5761 204.969 32.4927C204.883 32.4093 204.816 32.3094 204.77 32.199C204.724 32.0887 204.702 31.9702 204.704 31.8509" fill="#201C1D"/>
<path d="M146.623 53.9195H141.779C141.559 53.9088 141.351 53.8201 141.192 53.6695C141.033 53.5189 140.933 53.3164 140.911 53.099V28.3798C140.913 28.2604 140.939 28.1426 140.987 28.033C141.035 27.9235 141.104 27.8245 141.19 27.7417C141.277 27.6589 141.379 27.594 141.491 27.5507C141.603 27.5073 141.722 27.4864 141.842 27.4892H146.356C146.579 27.4953 146.792 27.5831 146.955 27.7357C147.118 27.8883 147.218 28.0952 147.237 28.3167V31.5565H147.329C148.506 28.4359 150.721 26.9773 153.675 26.9773C156.63 26.9773 158.612 28.4359 159.966 31.5565C160.415 30.3805 161.17 29.3441 162.154 28.5529C163.137 27.7618 164.314 27.2443 165.565 27.0532C166.815 26.8621 168.094 27.0043 169.271 27.4653C170.448 27.9263 171.481 28.6895 172.265 29.6771C173.795 31.7809 173.485 34.7753 173.485 37.426V53.0289C173.483 53.1486 173.457 53.2668 173.409 53.3767C173.362 53.4866 173.293 53.5861 173.206 53.6694C173.12 53.7528 173.018 53.8184 172.906 53.8625C172.794 53.9066 172.674 53.9284 172.554 53.9265H167.716C167.483 53.9142 167.264 53.8148 167.102 53.6483C166.939 53.4819 166.847 53.2606 166.842 53.0289V39.9225C166.914 38.3762 166.869 36.8268 166.708 35.2872C166.348 33.6252 165.297 33.1834 163.887 33.1834C163.257 33.2018 162.647 33.4037 162.132 33.764C161.616 34.1243 161.219 34.6271 160.988 35.21C160.488 36.4583 160.537 38.541 160.537 39.9435V53.0289C160.535 53.1486 160.51 53.2668 160.462 53.3767C160.414 53.4866 160.345 53.5861 160.259 53.6694C160.172 53.7528 160.07 53.8184 159.958 53.8625C159.846 53.9066 159.727 53.9284 159.606 53.9265H154.769C154.535 53.9158 154.315 53.817 154.152 53.6501C153.99 53.4833 153.897 53.2611 153.894 53.0289V39.9225C153.894 37.1665 154.352 33.1063 150.911 33.1063C147.47 33.1063 147.568 37.0613 147.568 39.9225V53.0289C147.567 53.1486 147.541 53.2668 147.493 53.3767C147.446 53.4866 147.376 53.5861 147.29 53.6694C147.204 53.7528 147.101 53.8184 146.99 53.8625C146.878 53.9066 146.758 53.9284 146.638 53.9265" fill="#201C1D"/>
<path d="M236.149 26.9702C243.335 26.9702 247.227 33.1062 247.227 40.9111C247.227 48.4496 242.926 54.4313 236.149 54.4313C229.097 54.4313 225.246 48.2953 225.246 40.6447C225.246 32.994 229.139 26.9702 236.149 26.9702ZM236.191 32.0192C232.623 32.0192 232.397 36.8579 232.397 39.8733C232.397 42.8887 232.348 49.3402 236.149 49.3402C239.95 49.3402 240.077 44.1369 240.077 40.9672C240.162 38.7593 239.924 36.5507 239.372 34.4105C239.222 33.6995 238.819 33.0661 238.237 32.6268C237.656 32.1875 236.934 31.9717 236.205 32.0192" fill="#201C1D"/>
<path d="M256.543 53.9193H251.72C251.487 53.907 251.267 53.8076 251.105 53.6412C250.943 53.4747 250.85 53.2534 250.845 53.0217V28.3025C250.872 28.0745 250.984 27.8648 251.159 27.7153C251.334 27.5658 251.559 27.4875 251.79 27.4961H256.282C256.484 27.5027 256.678 27.5748 256.835 27.7014C256.991 27.8281 257.102 28.0023 257.15 28.1973V31.9771H257.241C258.595 28.5971 260.499 26.9842 263.842 26.9842C264.957 26.9333 266.065 27.1756 267.055 27.6865C268.046 28.1974 268.883 28.959 269.484 29.8944C270.753 31.8719 270.753 35.1959 270.753 37.6082V53.1409C270.717 53.3601 270.604 53.5593 270.433 53.7022C270.262 53.8451 270.045 53.9222 269.822 53.9193H264.963C264.751 53.9086 264.55 53.8251 264.393 53.6832C264.236 53.5413 264.134 53.3496 264.103 53.1409V39.7119C264.103 37.0121 264.413 33.05 261.07 33.05C260.458 33.073 259.866 33.272 259.365 33.623C258.865 33.974 258.477 34.4619 258.25 35.0276C257.652 36.5143 257.389 38.1133 257.481 39.7119V53.0357C257.474 53.2788 257.37 53.5092 257.194 53.6772C257.017 53.8451 256.781 53.9372 256.536 53.9334" fill="#201C1D"/>
<path d="M137.139 49.3893C136.25 48.1691 135.312 47.1803 135.312 44.9223V37.4189C135.312 34.2422 135.538 31.325 133.196 29.1371C131.335 27.3629 128.26 26.7388 125.898 26.7388C121.293 26.7388 116.152 28.4428 115.066 34.1089C115.043 34.2215 115.044 34.3373 115.068 34.4496C115.091 34.5618 115.137 34.6682 115.203 34.7624C115.269 34.8566 115.353 34.9367 115.451 34.9979C115.548 35.0591 115.657 35.1002 115.771 35.1187L120.475 35.6166C120.695 35.5827 120.897 35.4779 121.051 35.3182C121.206 35.1586 121.303 34.953 121.328 34.7331C121.73 32.7836 123.38 31.8439 125.228 31.8439C125.748 31.8209 126.267 31.9229 126.74 32.1414C127.212 32.3599 127.625 32.6884 127.943 33.0991C128.648 34.0879 128.528 35.4413 128.528 36.6054V37.2295C125.707 37.5451 122.047 37.7484 119.417 38.9055C117.847 39.5315 116.509 40.6234 115.585 42.0325C114.662 43.4416 114.197 45.0995 114.255 46.7806C114.255 51.7875 117.428 54.284 121.504 54.284C124.953 54.284 126.829 53.4776 129.487 50.7777C130.207 52.0068 131.143 53.0971 132.252 53.9965C132.431 54.0955 132.636 54.1379 132.84 54.1178C133.044 54.0978 133.238 54.0163 133.394 53.8843C134.36 53.0288 136.116 51.507 137.103 50.6866C137.193 50.6046 137.265 50.5057 137.315 50.3955C137.366 50.2854 137.393 50.1663 137.397 50.0453C137.4 49.9244 137.379 49.804 137.334 49.6913C137.29 49.5786 137.224 49.4759 137.139 49.3893ZM127.604 47.2224C127.295 47.8525 126.82 48.3881 126.231 48.7731C125.642 49.1581 124.959 49.3782 124.255 49.4103C122.393 49.4103 121.314 48.0078 121.314 45.904C121.314 41.8017 125.016 41.0514 128.514 41.0514V42.0962C128.514 43.9896 128.556 45.5814 127.604 47.2224Z" fill="#201C1D"/>
<path d="M200.635 49.3893C199.746 48.1691 198.808 47.1803 198.808 44.9223V37.4189C198.808 34.2422 199.034 31.325 196.693 29.1371C194.831 27.3629 191.756 26.7388 189.394 26.7388C184.789 26.7388 179.641 28.4428 178.562 34.1089C178.539 34.2216 178.539 34.3377 178.562 34.4503C178.585 34.563 178.631 34.6698 178.697 34.7642C178.763 34.8586 178.847 34.9388 178.945 34.9997C179.043 35.0607 179.153 35.1012 179.267 35.1187L183.964 35.6166C184.183 35.5813 184.384 35.4758 184.536 35.3163C184.689 35.1568 184.785 34.952 184.81 34.7331C185.212 32.7836 186.855 31.8439 188.703 31.8439C189.224 31.8191 189.743 31.9203 190.216 32.139C190.689 32.3576 191.101 32.6871 191.418 33.0991C192.123 34.0879 192.01 35.4413 192.01 36.6054V37.2295C189.189 37.5451 185.529 37.7484 182.899 38.9055C181.334 39.5302 180.001 40.618 179.079 42.0216C178.156 43.4252 177.691 45.0768 177.744 46.7525C177.744 51.7595 180.91 54.256 184.993 54.256C188.435 54.256 190.318 53.4495 192.976 50.7497C193.693 51.9909 194.633 53.0913 195.748 53.9965C195.927 54.0955 196.132 54.1379 196.337 54.1178C196.541 54.0978 196.734 54.0163 196.89 53.8843C197.856 53.0288 199.612 51.507 200.6 50.6866C200.688 50.6041 200.76 50.505 200.809 50.3949C200.859 50.2848 200.887 50.1659 200.89 50.0452C200.893 49.9246 200.872 49.8044 200.829 49.6918C200.785 49.5792 200.719 49.4764 200.635 49.3893ZM191.108 47.2224C190.798 47.852 190.323 48.3873 189.734 48.7722C189.145 49.1571 188.462 49.3774 187.758 49.4103C185.896 49.4103 184.81 48.0078 184.81 45.904C184.81 41.8017 188.512 41.0514 192.017 41.0514V42.0962C192.01 43.9896 192.06 45.5814 191.1 47.2224H191.108Z" fill="#201C1D"/>
<path d="M130.764 80.3638C130.23 79.3127 129.452 78.4038 128.493 77.7131C127.218 76.8746 125.859 76.1696 124.438 75.6093C122.922 75.0594 121.496 74.289 120.207 73.3232C119.841 72.9854 119.554 72.573 119.364 72.1142C119.174 71.6554 119.086 71.1612 119.107 70.6655C119.097 69.6908 119.44 68.7451 120.073 68.0007C120.412 67.607 120.838 67.2961 121.317 67.0918C121.796 66.8875 122.316 66.7954 122.837 66.8226C123.394 66.7942 123.95 66.8812 124.471 67.078C124.991 67.2747 125.465 67.577 125.862 67.9656C126.68 68.9093 127.262 70.0312 127.562 71.2405L130.926 69.9502C129.762 65.5112 127.097 63.2672 123.013 63.2672C121.963 63.2231 120.916 63.4044 119.942 63.7989C118.969 64.1934 118.092 64.7918 117.372 65.5533C116.238 66.8589 115.522 68.4707 115.313 70.183C115.105 71.8953 115.414 73.6306 116.201 75.1675C116.741 76.2134 117.53 77.1115 118.5 77.7832C119.933 78.6406 121.436 79.3772 122.992 79.9851C125.016 80.8406 126.257 81.626 126.779 82.3904C127.285 83.1205 127.556 83.9863 127.555 84.8729C127.585 85.9999 127.181 87.0957 126.427 87.9373C126 88.3685 125.485 88.7032 124.917 88.9186C124.349 89.1341 123.74 89.2251 123.133 89.1856C120.263 89.1856 118.444 87.4114 117.724 83.9121L114.198 85.0061C115.348 90.1603 118.282 92.776 122.936 92.776C125.658 92.776 127.809 91.9345 129.283 90.2795C130.793 88.6207 131.608 86.4506 131.561 84.2137C131.609 82.8854 131.336 81.565 130.764 80.3638Z" fill="black"/>
<path d="M146.165 77.4534L145.721 77.3202L146.144 77.1238C147.382 76.6104 148.428 75.7273 149.14 74.5968C149.851 73.4662 150.191 72.1439 150.114 70.8126C150.164 69.8079 150.013 68.8033 149.672 67.8564C149.331 66.9095 148.805 66.0386 148.126 65.2937C147.401 64.6 146.541 64.0621 145.598 63.7134C144.655 63.3648 143.651 63.2128 142.646 63.2671C138.641 63.2671 136.003 65.5251 134.819 69.9781L138.105 70.8196C138.81 68.0146 140.22 66.57 142.336 66.57C142.877 66.5435 143.416 66.6477 143.907 66.8736C144.398 67.0996 144.827 67.4405 145.157 67.8673C145.747 68.7957 146.087 69.8599 146.142 70.957C146.198 72.054 145.968 73.1468 145.474 74.1295C145.117 74.7886 144.542 75.3041 143.845 75.5881C142.992 75.8397 142.104 75.951 141.215 75.9177H139.748V79.0733H141.215C143.274 79.0733 144.741 79.5432 145.495 80.4758C146.301 81.4859 146.716 82.7498 146.666 84.0382C146.666 85.8685 146.229 87.2219 145.375 88.0774C144.978 88.4864 144.501 88.811 143.974 89.0316C143.446 89.2521 142.88 89.3641 142.308 89.3607C139.783 89.3607 138.168 87.7198 137.491 84.4519L134.12 85.3355C134.543 87.9161 135.531 89.8095 137.005 90.9456C138.604 92.1584 140.572 92.7895 142.583 92.7338C143.679 92.7733 144.772 92.5946 145.798 92.208C146.824 91.8214 147.761 91.2348 148.556 90.4827C150.093 88.9891 150.876 86.9133 150.876 84.2977C150.834 80.6441 149.31 78.3931 146.165 77.4534Z" fill="black"/>
</svg>
