<svg width="102" height="112" viewBox="0 0 102 112" fill="none" xmlns="http://www.w3.org/2000/svg">
<path d="M66.5779 18.8386C67.1237 18.8386 67.5482 18.393 67.5482 17.8663V10.4928C67.5482 4.65886 56.9355 0.101074 43.3715 0.101074C29.8074 0.101074 19.1948 4.65886 19.1948 10.4928V61.9857C19.1948 67.8196 29.8074 72.3774 43.3715 72.3774C56.9355 72.3774 67.5482 67.8196 67.5482 61.9857V60.75C67.5482 60.2031 67.1035 59.7777 66.5779 59.7777C66.0321 59.7777 65.6076 60.2233 65.6076 60.75V61.9857C65.6076 66.0573 56.6727 70.4125 43.3917 70.4125C30.1107 70.4125 21.1556 66.0573 21.1556 61.9857V49.7911C24.8346 53.4778 33.2844 56.0099 43.3715 56.0099C45.0695 56.0099 46.7877 55.9289 48.4453 55.7871C48.9911 55.7466 49.3752 55.2604 49.3348 54.7135C49.2944 54.1665 48.8092 53.7817 48.2634 53.8222C46.6665 53.964 45.0291 54.045 43.3715 54.045C30.0905 54.045 21.1556 49.6898 21.1556 45.6182V32.7551C24.8346 36.4418 33.2844 38.9739 43.3715 38.9739C45.0897 38.9739 46.7877 38.8929 48.4453 38.7511C48.9911 38.7106 49.3752 38.2244 49.3348 37.6775C49.2944 37.1306 48.8092 36.7457 48.2634 36.7862C46.6665 36.928 45.0089 37.009 43.3513 37.009C30.0702 37.009 21.1354 32.6538 21.1354 28.5822V14.6657C24.8144 18.3525 33.2641 20.8846 43.3513 20.8846C53.4384 20.8846 61.9083 18.3525 65.5671 14.6657V17.8663C65.5874 18.393 66.0321 18.8386 66.5779 18.8386ZM43.3715 18.9197C30.0905 18.9197 21.1556 14.5644 21.1556 10.4928C21.1556 6.4212 30.0905 2.06599 43.3715 2.06599C56.6525 2.06599 65.5873 6.4212 65.5873 10.4928C65.5873 14.5644 56.6525 18.9197 43.3715 18.9197Z" fill="url(#paint0_linear_874_20284)"/>
<path d="M82.8102 33.2617C82.79 33.1807 82.7698 33.0997 82.7294 33.0186C82.7294 32.9984 82.7091 32.9781 82.6889 32.9579C82.6485 32.8768 82.5879 32.8161 82.5272 32.7553L77.5948 27.8126L74.3201 24.531L71.0453 21.2494C70.8634 21.0671 70.6208 20.9658 70.358 20.9658H54.3076C53.7618 20.9658 53.3373 21.4115 53.3373 21.9381V50.7434C53.3373 51.2903 53.782 51.7157 54.3076 51.7157H56.5918V54.0047C56.5918 54.5516 57.0366 54.977 57.5621 54.977H59.8464V57.2661C59.8464 57.813 60.2911 58.2384 60.8167 58.2384H81.8197C82.3655 58.2384 82.79 57.7927 82.79 57.2661V33.444C82.8304 33.3833 82.8102 33.3225 82.8102 33.2617ZM77.8778 30.8714L79.4748 32.4717H77.8778V30.8714ZM55.2981 49.771V22.9307H69.9537L71.2677 24.2474H57.5824C57.0366 24.2474 56.612 24.6931 56.612 25.2198V49.771H55.2981ZM58.5729 53.0526V26.2123H73.2285L74.5424 27.529H60.8571C60.3113 27.529 59.8868 27.9747 59.8868 28.5014V53.0526H58.5729ZM61.8274 56.3342V29.4737H75.917V33.444C75.917 33.991 76.3617 34.4164 76.8873 34.4164H80.8494V56.314H61.8274V56.3342Z" fill="url(#paint1_linear_874_20284)"/>
<path d="M69.2664 38.0223C69.7313 37.759 69.9133 37.1513 69.6505 36.6853C69.3877 36.2194 68.7812 36.0371 68.3163 36.3005C68.2354 36.341 66.1938 37.5159 66.1938 40.4329C66.1938 42.7421 65.0415 42.9244 64.6777 42.9852C64.1925 43.0662 63.8489 43.4714 63.8489 43.9575C63.8489 44.4437 64.1925 44.8488 64.6777 44.9299C65.0618 44.9906 66.1938 45.173 66.1938 47.4822C66.1938 50.3992 68.2152 51.5741 68.3163 51.6146C68.4578 51.6957 68.6397 51.7362 68.8015 51.7362C69.1451 51.7362 69.4888 51.5539 69.6505 51.2297C69.9133 50.7638 69.7515 50.1561 69.2664 49.8928C69.2462 49.8928 68.1546 49.2243 68.1546 47.4822C68.1546 45.6996 67.6088 44.626 66.9417 43.9575C67.6088 43.3093 68.1546 42.2155 68.1546 40.4329C68.1546 38.711 69.226 38.0426 69.2664 38.0223Z" fill="url(#paint2_linear_874_20284)"/>
<path d="M78.0396 43.005C77.6555 42.9443 76.5235 42.7619 76.5235 40.4527C76.5235 37.5357 74.502 36.3608 74.4009 36.3203C73.936 36.0569 73.3296 36.219 73.0668 36.7052C72.804 37.1711 72.9657 37.7788 73.4509 38.0421C73.4711 38.0421 74.5627 38.7106 74.5627 40.4527C74.5627 42.2353 75.1085 43.3089 75.7755 43.9774C75.1085 44.6256 74.5627 45.7194 74.5627 47.502C74.5627 49.2036 73.5115 49.8923 73.4509 49.9329C72.9859 50.1962 72.8242 50.7836 73.087 51.2698C73.2689 51.5939 73.5924 51.7762 73.936 51.7762C74.0977 51.7762 74.2594 51.7357 74.4212 51.6547C74.502 51.6142 76.5437 50.4393 76.5437 47.5223C76.5437 45.213 77.6959 45.0307 78.0598 44.9699C78.5449 44.8889 78.8886 44.4838 78.8886 43.9976C78.8482 43.4912 78.5045 43.0658 78.0396 43.005Z" fill="url(#paint3_linear_874_20284)"/>
<path d="M28.1094 92.5735L26.9571 89.3729H22.5706L21.4386 92.5735H19.4575L23.7632 81.0068H25.8049L30.1106 92.5735H28.1094ZM26.4518 87.7524L25.3804 84.6126C25.2995 84.41 25.1985 84.0656 25.057 83.62C24.9155 83.1743 24.8144 82.83 24.774 82.6274C24.6325 83.2756 24.4303 83.9846 24.1473 84.7543L23.1164 87.7524H26.4518Z" fill="black"/>
<path d="M38.7423 92.5737H36.8826V87.2056C36.8826 86.5371 36.7613 86.051 36.4985 85.7066C36.2559 85.3825 35.8516 85.2204 35.3261 85.2204C34.6185 85.2204 34.093 85.4433 33.7493 85.9092C33.4259 86.3751 33.244 87.1448 33.244 88.2184V92.5737H31.4044V83.8632H32.8599L33.1227 84.9976H33.2237C33.4663 84.5925 33.81 84.2684 34.2749 84.0455C34.7398 83.8227 35.2452 83.7012 35.791 83.7012C37.1252 83.7012 38.0146 84.1671 38.4391 85.0786H38.5604C38.8232 84.6532 39.1871 84.3089 39.652 84.0658C40.1169 83.8227 40.6425 83.7012 41.2489 83.7012C42.2799 83.7012 43.0481 83.9645 43.513 84.4912C43.9779 85.0179 44.2205 85.8079 44.2205 86.9017V92.5737H42.381V87.2056C42.381 86.5371 42.2597 86.051 41.9969 85.7066C41.7341 85.3825 41.35 85.2204 40.8042 85.2204C40.0765 85.2204 39.5711 85.4433 39.2275 85.8889C38.904 86.3346 38.7221 87.0233 38.7221 87.9551V92.5737H38.7423Z" fill="black"/>
<path d="M52.2457 92.5737L51.8818 91.3582H51.8212C51.3966 91.8849 50.9721 92.2495 50.5476 92.4319C50.1231 92.6142 49.5773 92.7155 48.9103 92.7155C48.0612 92.7155 47.3942 92.4926 46.909 92.0267C46.4238 91.5608 46.1813 90.9126 46.1813 90.0618C46.1813 89.1705 46.5047 88.4818 47.1718 88.0361C47.8389 87.5702 48.8496 87.3271 50.204 87.2866L51.6999 87.2461V86.7802C51.6999 86.2333 51.5786 85.8079 51.3158 85.5243C51.053 85.2407 50.6487 85.1191 50.1029 85.1191C49.6582 85.1191 49.2337 85.1799 48.8294 85.3217C48.4251 85.4433 48.0208 85.6053 47.6569 85.7876L47.0505 84.4709C47.5154 84.2278 48.041 84.0455 48.607 83.9037C49.173 83.7822 49.6986 83.7012 50.204 83.7012C51.3158 83.7012 52.1446 83.9442 52.7106 84.4304C53.2766 84.9166 53.5596 85.6661 53.5596 86.6992V92.5737H52.2457ZM49.4965 91.3177C50.1636 91.3177 50.7094 91.1354 51.1136 90.7505C51.5179 90.3657 51.7201 89.839 51.7201 89.1705V88.421L50.6083 88.4615C49.739 88.502 49.1124 88.6438 48.7081 88.9072C48.3038 89.1705 48.1219 89.5554 48.1219 90.1023C48.1219 90.4872 48.2432 90.7911 48.4655 90.9936C48.6879 91.2165 49.0315 91.3177 49.4965 91.3177Z" fill="black"/>
<path d="M61.9487 92.5737H55.3588V91.4393L59.7453 85.2813H55.6216V83.8633H61.8274V85.1597L57.5217 91.1557H61.9487V92.5737Z" fill="black"/>
<path d="M71.5507 88.1982C71.5507 89.6162 71.1868 90.7303 70.4591 91.5203C69.7313 92.3103 68.7206 92.7155 67.4269 92.7155C66.6183 92.7155 65.8906 92.5331 65.2639 92.1685C64.6373 91.8039 64.1521 91.2772 63.8287 90.5885C63.485 89.8998 63.3233 89.1097 63.3233 88.1982C63.3233 86.7802 63.6872 85.6863 64.4149 84.8963C65.1426 84.1063 66.1534 83.7012 67.4673 83.7012C68.7206 83.7012 69.7111 84.1063 70.4591 84.9166C71.1666 85.7269 71.5507 86.8207 71.5507 88.1982ZM65.2235 88.1982C65.2235 90.2036 65.9714 91.2164 67.4471 91.2164C68.9228 91.2164 69.6505 90.2036 69.6505 88.1982C69.6505 86.213 68.9025 85.2204 67.4269 85.2204C66.6587 85.2204 66.0927 85.4838 65.7491 85.9902C65.3852 86.4966 65.2235 87.2461 65.2235 88.1982Z" fill="black"/>
<path d="M81.3143 92.5737H79.4546V87.2259C79.4546 86.5574 79.313 86.051 79.0503 85.7269C78.7875 85.4027 78.3427 85.2204 77.7565 85.2204C76.9682 85.2204 76.4021 85.4433 76.0383 85.9092C75.6744 86.3751 75.4925 87.1448 75.4925 88.2387V92.5737H73.653V83.8632H75.1084L75.3712 84.9976H75.4723C75.7351 84.5925 76.0989 84.2684 76.5841 84.0455C77.0692 83.8227 77.5948 83.7012 78.181 83.7012C80.2631 83.7012 81.3143 84.7545 81.3143 86.8815V92.5737Z" fill="black"/>
<path d="M10.1386 106.065C10.1386 107.969 9.61302 109.427 8.56186 110.42C7.5107 111.433 5.9946 111.919 4.01357 111.919H0.799438V100.413H4.35721C6.17653 100.413 7.61177 100.899 8.6225 101.892C9.63323 102.884 10.1386 104.262 10.1386 106.065ZM8.15757 106.126C8.15757 103.371 6.86383 101.993 4.29657 101.993H2.6794V110.339H4.01357C6.78297 110.339 8.15757 108.941 8.15757 106.126Z" fill="black"/>
<path d="M20.1246 107.563C20.1246 108.981 19.7608 110.096 19.033 110.886C18.3053 111.676 17.2946 112.081 16.0008 112.081C15.1923 112.081 14.4645 111.898 13.8379 111.534C13.2112 111.169 12.7261 110.642 12.4026 109.954C12.059 109.265 11.8973 108.475 11.8973 107.563C11.8973 106.145 12.2611 105.052 12.9889 104.262C13.7166 103.472 14.7273 103.066 16.0413 103.066C17.2946 103.066 18.2851 103.472 19.033 104.282C19.7608 105.092 20.1246 106.186 20.1246 107.563ZM13.7975 107.563C13.7975 109.569 14.5454 110.582 16.0211 110.582C17.4967 110.582 18.2245 109.569 18.2245 107.563C18.2245 105.578 17.4765 104.586 16.0008 104.586C15.2327 104.586 14.6667 104.849 14.323 105.355C13.9592 105.862 13.7975 106.591 13.7975 107.563Z" fill="black"/>
<path d="M25.7443 112.081C24.4303 112.081 23.4398 111.696 22.7525 110.926C22.0652 110.156 21.7216 109.062 21.7216 107.624C21.7216 106.166 22.0854 105.031 22.7929 104.241C23.5004 103.451 24.5314 103.066 25.8858 103.066C26.7954 103.066 27.6242 103.228 28.352 103.573L27.7859 105.052C26.9976 104.748 26.3709 104.586 25.8453 104.586C24.3495 104.586 23.5813 105.578 23.5813 107.584C23.5813 108.556 23.7632 109.285 24.1473 109.792C24.5314 110.278 25.0772 110.521 25.7847 110.521C26.6135 110.521 27.3817 110.318 28.1094 109.913V111.534C27.7859 111.736 27.4221 111.858 27.0582 111.959C26.7348 112.04 26.2698 112.081 25.7443 112.081Z" fill="black"/>
<path d="M36.3368 111.919L36.074 110.785H35.9729C35.7101 111.19 35.3462 111.514 34.8813 111.737C34.4164 111.959 33.8706 112.081 33.2641 112.081C32.213 112.081 31.4246 111.818 30.899 111.291C30.3734 110.764 30.1309 109.974 30.1309 108.901V103.208H31.9906V108.577C31.9906 109.245 32.1321 109.751 32.3949 110.076C32.6577 110.4 33.1024 110.582 33.6684 110.582C34.4366 110.582 35.0228 110.359 35.3867 109.893C35.7505 109.427 35.9325 108.658 35.9325 107.564V103.229H37.7922V111.939H36.3368V111.919Z" fill="black"/>
<path d="M47.7378 111.919H45.8781V106.551C45.8781 105.882 45.7568 105.396 45.494 105.052C45.2514 104.727 44.8471 104.565 44.3215 104.565C43.614 104.565 43.0885 104.788 42.7448 105.254C42.4214 105.72 42.2394 106.49 42.2394 107.563V111.898H40.3999V103.188H41.8554L42.1181 104.322H42.2192C42.4618 103.917 42.8054 103.593 43.2704 103.37C43.7353 103.147 44.2407 103.026 44.7865 103.026C46.1206 103.026 47.0101 103.492 47.4346 104.403H47.5559C47.8187 103.978 48.1825 103.634 48.6475 103.39C49.1124 103.147 49.638 103.026 50.2444 103.026C51.2754 103.026 52.0435 103.289 52.5085 103.816C52.9734 104.343 53.216 105.133 53.216 106.226V111.898H51.3765V106.551C51.3765 105.882 51.2552 105.396 50.9924 105.052C50.7296 104.727 50.3455 104.565 49.7997 104.565C49.072 104.565 48.5666 104.788 48.223 105.234C47.8995 105.68 47.7176 106.368 47.7176 107.3V111.919H47.7378Z" fill="black"/>
<path d="M59.6038 112.081C58.2494 112.081 57.1983 111.696 56.4301 110.906C55.662 110.116 55.2779 109.022 55.2779 107.644C55.2779 106.226 55.6215 105.112 56.3291 104.282C57.0366 103.472 58.0069 103.066 59.24 103.066C60.3922 103.066 61.3019 103.411 61.9689 104.12C62.636 104.808 62.9595 105.781 62.9595 106.996V107.989H57.1781C57.1983 108.84 57.4409 109.488 57.8654 109.933C58.2899 110.379 58.8963 110.622 59.6847 110.622C60.1901 110.622 60.6752 110.582 61.1199 110.48C61.5646 110.379 62.0296 110.217 62.5552 109.994V111.493C62.1104 111.716 61.6455 111.858 61.1806 111.959C60.7156 112.04 60.1901 112.081 59.6038 112.081ZM59.2602 104.464C58.674 104.464 58.209 104.646 57.8452 105.031C57.5015 105.396 57.2791 105.943 57.2185 106.652H61.1604C61.1401 105.943 60.9784 105.396 60.6348 105.011C60.3113 104.646 59.8464 104.464 59.2602 104.464Z" fill="black"/>
<path d="M72.7231 111.919H70.8836V106.571C70.8836 105.903 70.7421 105.396 70.4793 105.072C70.2165 104.748 69.7718 104.566 69.1855 104.566C68.3972 104.566 67.8312 104.788 67.4673 105.254C67.1034 105.72 66.9215 106.49 66.9215 107.584V111.919H65.082V103.208H66.5374L66.8002 104.343H66.9013C67.1641 103.938 67.5279 103.614 68.0131 103.391C68.4982 103.168 69.0238 103.046 69.6101 103.046C71.6922 103.046 72.7433 104.1 72.7433 106.227V111.919H72.7231Z" fill="black"/>
<path d="M78.545 110.582C78.9897 110.582 79.4546 110.501 79.8993 110.359V111.757C79.6972 111.838 79.4344 111.919 79.111 111.98C78.7875 112.04 78.4641 112.061 78.1002 112.061C76.3416 112.061 75.4723 111.129 75.4723 109.285V104.586H74.2797V103.776L75.5532 103.107L76.1798 101.264H77.3119V103.208H79.778V104.606H77.3119V109.265C77.3119 109.711 77.4129 110.035 77.6555 110.258C77.8779 110.481 78.1811 110.582 78.545 110.582Z" fill="black"/>
<path d="M91.1589 106.065C91.1589 107.969 90.6333 109.427 89.5821 110.42C88.531 111.433 87.0149 111.919 85.0338 111.919H81.8197V100.413H85.3775C87.1968 100.413 88.632 100.899 89.6428 101.892C90.6535 102.884 91.1589 104.262 91.1589 106.065ZM89.1778 106.126C89.1778 103.371 87.8841 101.993 85.3168 101.993H83.6997V110.339H85.0338C87.8032 110.339 89.1778 108.941 89.1778 106.126Z" fill="black"/>
<path d="M93.6251 100.413H97.0413C98.6181 100.413 99.7703 100.636 100.478 101.102C101.185 101.568 101.529 102.297 101.529 103.29C101.529 103.958 101.347 104.525 101.003 104.971C100.66 105.417 100.154 105.7 99.5075 105.822V105.903C100.316 106.065 100.902 106.348 101.286 106.814C101.67 107.26 101.852 107.868 101.852 108.637C101.852 109.67 101.489 110.481 100.781 111.068C100.053 111.656 99.0628 111.939 97.7691 111.939H93.6251V100.413ZM95.505 105.173H97.3041C98.0925 105.173 98.6585 105.052 99.0224 104.809C99.3862 104.566 99.5682 104.14 99.5682 103.533C99.5682 102.986 99.366 102.601 98.9819 102.358C98.5979 102.115 97.9712 101.993 97.1222 101.993H95.505V105.173ZM95.505 106.693V110.339H97.5063C98.2946 110.339 98.8809 110.197 99.2852 109.893C99.6895 109.589 99.8916 109.124 99.8916 108.455C99.8916 107.847 99.6895 107.422 99.2852 107.118C98.8809 106.814 98.2542 106.693 97.4254 106.693H95.505Z" fill="black"/>
<defs>
<linearGradient id="paint0_linear_874_20284" x1="19.1921" y1="36.2359" x2="67.5502" y2="36.2359" gradientUnits="userSpaceOnUse">
<stop stop-color="#D25535"/>
<stop offset="1" stop-color="#E08B20"/>
</linearGradient>
<linearGradient id="paint1_linear_874_20284" x1="53.2824" y1="39.6281" x2="90.5414" y2="39.6281" gradientUnits="userSpaceOnUse">
<stop stop-color="#D25535"/>
<stop offset="1" stop-color="#E08B20"/>
</linearGradient>
<linearGradient id="paint2_linear_874_20284" x1="53.2824" y1="43.9665" x2="90.5414" y2="43.9665" gradientUnits="userSpaceOnUse">
<stop stop-color="#D25535"/>
<stop offset="1" stop-color="#E08B20"/>
</linearGradient>
<linearGradient id="paint3_linear_874_20284" x1="53.2824" y1="43.9661" x2="90.5415" y2="43.9661" gradientUnits="userSpaceOnUse">
<stop stop-color="#D25535"/>
<stop offset="1" stop-color="#E08B20"/>
</linearGradient>
</defs>
</svg>
