<svg width="210" height="58" viewBox="0 0 210 58" fill="none" xmlns="http://www.w3.org/2000/svg">
<path d="M61.7292 42.781V16.8684H65.0493L80.831 37.7191V16.8684H83.9874V42.781H80.6665L64.8848 21.7248V42.781H61.7292ZM109.686 41.7526C107.535 42.5506 105.258 42.9546 102.964 42.9453C93.6182 42.9453 88.9452 38.4488 88.9452 29.4558C88.9452 20.9429 93.4539 16.6795 102.471 16.6654C105.053 16.6654 107.472 17.0352 109.686 17.7351V20.6139C107.503 19.7641 105.182 19.3316 102.841 19.3387C95.7893 19.3387 92.2636 22.7077 92.2636 29.3733C92.2636 36.5703 95.7473 40.1482 102.673 40.1482C103.779 40.1482 105.009 39.9797 106.362 39.6959V31.0207H109.682V41.7493L109.686 41.7526ZM115.015 32.7869V16.8684H118.335V32.7869C118.335 37.7629 120.795 40.272 125.754 40.272C130.673 40.272 133.174 37.7629 133.174 32.7869V16.8684H136.495V32.7869C136.495 39.5729 132.929 42.9857 125.756 42.9857C118.583 42.9857 115.015 39.5695 115.015 32.7835V32.7869ZM145.757 16.8684V40.0631H159.283V42.781H142.437V16.8684H145.757ZM164.079 42.781H160.595L173.425 13.459L186.254 42.781H182.565L179.244 34.6382H170.719L171.621 31.916H178.138L173.301 20.1953L164.079 42.781ZM189.82 42.781V16.8684H200.846C205.765 16.8684 208.224 18.9243 208.224 23.0783C208.224 26.4473 205.806 28.9589 201.01 30.5634L209.864 42.781H205.477L197.28 31.1386V28.9589C202.199 28.1773 204.699 26.2856 204.699 23.2425C204.699 20.8573 203.347 19.6647 200.6 19.6647H193.222V42.781H189.82Z" fill="#B52E31"/>
<path d="M0 9.95845L26.4378 0.5L53.5723 9.79421L49.1862 44.8739L26.4369 57.4992L4.05792 45.0389L0 9.95845Z" fill="#E23237"/>
<path d="M53.5723 9.79421L26.4377 0.5V57.5L49.187 44.8747L53.5731 9.79505L53.5723 9.79421Z" fill="#B52E31"/>
<path d="M26.4789 7.16211L10.0012 43.9279L16.1494 43.805L19.4694 35.4979H34.1851L37.7947 43.8875L43.6516 44.0105L26.4789 7.16211ZM26.52 18.9654L32.0948 30.6448H21.6419L26.52 18.9654Z" fill="white"/>
</svg>
