<svg width="287" height="112" viewBox="0 0 287 112" fill="none" xmlns="http://www.w3.org/2000/svg">
<path d="M40.6057 0H62.4312C62.4312 36.1138 62.4312 72.2296 62.4312 108.348C62.4312 109.25 62.4312 110.152 62.4312 111.054C62.4312 111.956 62.4312 111.981 61.5391 111.981H40.5933C40.5933 111.577 40.5933 111.172 40.5933 110.737C40.6015 73.8308 40.6057 36.9185 40.6057 0Z" fill="#2D72B7"/>
<path d="M40.5933 112H61.533C62.4003 112 62.4189 112 62.4251 111.073C62.4313 110.146 62.4251 109.268 62.4251 108.366C62.4251 72.2523 62.4251 36.1365 62.4251 0.0185547H62.6915C63.2308 0.38152 63.8033 0.691964 64.4013 0.945666C68.8866 3.21055 73.3781 5.463 77.8758 7.703C78.1108 7.7904 78.3098 7.95431 78.4412 8.16859C78.5726 8.38286 78.6287 8.63516 78.6007 8.88522C78.6007 12.4257 78.6007 15.9661 78.6007 19.5066C78.6007 19.8239 78.6007 20.1288 78.6007 20.4523C78.6007 44.0968 78.6007 67.7412 78.6007 91.3857C78.6007 91.703 78.6007 92.0079 78.6007 92.3314C78.6007 95.959 78.6007 99.5928 78.6007 103.22C78.6283 103.471 78.5713 103.724 78.4387 103.938C78.3061 104.153 78.1057 104.316 77.8696 104.403C73.1055 106.767 68.36 109.163 63.6207 111.552C63.322 111.662 63.0482 111.832 62.8154 112.05H40.2278L40.5933 112Z" fill="#5293CE"/>
<path d="M40.5933 112H40.2278C35.2283 109.511 30.2412 106.972 25.2293 104.477C24.9642 104.385 24.7383 104.204 24.5886 103.966C24.4389 103.727 24.3743 103.445 24.4053 103.164C24.4053 99.5369 24.4053 95.9031 24.4053 92.2756C24.4053 92.008 24.4053 91.7342 24.4053 91.4667C24.4053 67.7434 24.4053 44.0222 24.4053 20.3031C24.4053 20.0356 24.4053 19.7618 24.4053 19.4942C24.4053 16.0533 24.4425 12.6062 24.4053 9.16533C24.3618 8.8274 24.4337 8.48463 24.6092 8.19304C24.7848 7.90145 25.0536 7.67828 25.3718 7.56C30.0987 5.23289 34.776 2.86222 39.4658 0.504C39.7632 0.354667 40.0481 0.168 40.3331 0H40.5995C40.5995 36.9185 40.5995 73.837 40.5995 110.756C40.6057 111.166 40.5995 111.571 40.5933 112Z" fill="#205B97"/>
<path d="M0.863647 92.0078V19.9109L8.22351 16.1775C8.48725 16.0101 8.779 15.8921 9.08464 15.8291C9.08464 42.5639 9.08464 69.2967 9.08464 96.0273C7.32521 95.15 5.57817 94.2664 3.81255 93.4015C2.85523 92.8841 1.87084 92.4188 0.863647 92.0078Z" fill="#205B97"/>
<path d="M286.864 52.4969C286.684 52.7813 286.429 53.0092 286.126 53.1544C285.824 53.2997 285.487 53.3565 285.154 53.3182C283.853 53.2871 282.552 53.3182 281.245 53.3182C279.938 53.3182 279.727 53.0071 279.727 51.8124C279.727 46.3784 279.727 40.9443 279.727 35.5102C279.722 34.5229 279.563 33.5425 279.256 32.6044C279.135 32.0974 278.856 31.6426 278.459 31.3067C278.062 30.9707 277.569 30.7713 277.051 30.7378C276.489 30.673 275.922 30.7826 275.424 31.0519C274.927 31.3211 274.524 31.737 274.269 32.2436C273.512 33.629 273.124 35.187 273.141 36.7671C273.11 41.7449 273.141 46.7227 273.141 51.7004C273.141 52.8827 272.856 53.1689 271.679 53.1689C270.199 53.1689 268.718 53.1689 267.231 53.1689C266.376 53.1689 265.992 52.7893 265.992 51.9244C265.992 43.2133 265.992 34.4877 265.992 25.7476C265.992 24.8578 266.37 24.5031 267.268 24.5031C268.66 24.5031 270.052 24.5031 271.444 24.5031C272.379 24.5031 272.72 24.864 272.726 25.8098C272.733 26.7556 272.726 27.6764 272.726 28.6907C273.037 28.3366 273.282 27.93 273.451 27.4898C273.832 26.6875 274.381 25.9771 275.059 25.4069C275.738 24.8368 276.532 24.4203 277.385 24.1858C281.877 23.0658 285.842 25.3182 286.461 29.904C286.63 30.8089 286.717 31.7273 286.721 32.648C286.721 32.8222 286.721 33.0151 286.851 33.152L286.864 52.4969Z" fill="#201C1D"/>
<path d="M286.864 66.03H280.334C279.454 66.03 279.454 66.03 279.454 66.8887C279.454 73.6502 279.454 80.4096 279.454 87.1669C279.454 88.0816 279.454 88.0816 278.556 88.0816C277.936 88.0816 277.317 88.0816 276.697 88.0816C276.208 88.0816 276.078 87.9136 276.078 87.4593C276.078 85.5927 276.078 83.6762 276.078 81.7785C276.078 76.8007 276.078 71.8436 276.078 66.9073C276.078 66.0176 276.078 66.0176 275.223 66.0176C273.247 66.0176 271.277 66.0176 269.3 66.0176C268.799 66.0176 268.606 65.8745 268.681 65.3953C268.755 64.686 268.377 63.7651 268.836 63.3171C269.294 62.8691 270.161 63.1989 270.849 63.1927C276.189 63.1927 281.53 63.1927 286.87 63.1927L286.864 66.03Z" fill="black"/>
<path d="M78.6193 92.2756C78.6193 91.9582 78.6193 91.6533 78.6193 91.3298C78.6193 67.6853 78.6193 44.0409 78.6193 20.3964C78.6193 20.0791 78.6193 19.7742 78.6193 19.4507L88.4076 17.0924C90.2104 16.6631 92.0194 16.24 93.8284 15.8169C93.8284 42.1037 93.8284 68.3926 93.8284 94.6836C93.8284 95.088 93.8284 95.4925 93.8284 95.928C91.9203 95.5671 90.0432 95.0569 88.1536 94.5965L78.6193 92.2756Z" fill="#205B97"/>
<path d="M158.079 28.0002C159.615 25.3122 161.734 23.8687 164.893 23.9122C168.053 23.9558 169.948 25.7789 171.274 28.5851C171.584 28.0687 171.826 27.6269 172.098 27.2038C172.706 26.2988 173.503 25.5385 174.435 24.9766C175.367 24.4147 176.41 24.0648 177.491 23.9515C178.571 23.8382 179.664 23.9642 180.691 24.3208C181.718 24.6774 182.655 25.2558 183.435 26.0153C184.554 27.1317 185.216 28.6274 185.294 30.2091C185.616 33.8491 185.387 37.5015 185.424 41.1478C185.461 44.794 185.424 48.3158 185.424 51.8998C185.424 52.8704 185.145 53.1442 184.185 53.1442H179.47C178.696 53.1442 178.287 52.7771 178.281 52.018C178.281 47.0775 178.25 42.1433 178.281 37.2029C178.313 35.797 178.263 34.3905 178.132 32.9904C177.94 31.1735 176.367 30.3398 174.713 30.7753C174.056 30.9372 173.465 31.2961 173.016 31.804C172.568 32.312 172.285 32.945 172.204 33.6189C172.002 34.6537 171.906 35.7067 171.919 36.7611C171.919 41.7389 171.919 46.6793 171.919 51.6384C171.919 52.8829 171.64 53.138 170.419 53.138H166.213C165.129 53.138 164.813 52.8269 164.813 51.7442C164.813 46.5798 164.813 41.4174 164.813 36.2571C164.887 35.1351 164.803 34.0082 164.565 32.9095C164.443 32.321 164.137 31.7872 163.691 31.3863C163.245 30.9854 162.683 30.7386 162.087 30.682C161.428 30.6155 160.765 30.7716 160.204 31.1254C159.643 31.4792 159.216 32.0106 158.989 32.6358C158.675 33.5219 158.502 34.452 158.475 35.3922C158.196 40.9549 158.432 46.5175 158.351 52.0802C158.351 52.858 158.091 53.1255 157.298 53.1318C155.724 53.1318 154.157 53.1318 152.583 53.1318C151.605 53.1318 151.344 52.8767 151.344 51.8873C151.344 46.5445 151.344 41.2017 151.344 35.8589C151.344 32.4781 151.344 29.0953 151.344 25.7104C151.344 24.6402 151.549 24.466 152.583 24.466H156.92C157.8 24.466 158.097 24.7647 158.103 25.6295C158.109 26.4944 158.079 27.2287 158.079 28.0002Z" fill="#201C1D"/>
<path d="M93.7911 95.934C93.7911 95.5295 93.7911 95.1251 93.7911 94.6895C93.7911 68.4027 93.7911 42.1138 93.7911 15.8229C94.0847 15.8188 94.3716 15.9105 94.6089 16.0842C96.8949 17.2291 99.1685 18.3927 101.467 19.5127C101.692 19.6009 101.881 19.762 102.005 19.9706C102.128 20.1791 102.179 20.4231 102.148 20.6638C102.148 30.1298 102.148 39.5959 102.148 49.062C102.148 63.0122 102.148 76.9624 102.148 90.9127C102.186 91.2282 102.114 91.5471 101.947 91.8164C101.779 92.0857 101.524 92.2894 101.225 92.3935C98.9579 93.4762 96.7338 94.6335 94.4788 95.7535C94.3053 95.878 94.0947 96.1455 93.7911 95.934Z" fill="#5293CE"/>
<path d="M211.828 38.3475C211.828 40.1519 211.865 41.639 211.828 43.1262C211.793 44.8487 212.413 46.5199 213.562 47.799C213.701 47.9221 213.808 48.0761 213.876 48.2486C213.944 48.4211 213.971 48.6073 213.954 48.792C213.937 48.9768 213.877 49.155 213.779 49.3122C213.681 49.4694 213.547 49.6011 213.389 49.6968C212.373 50.5742 211.369 51.4702 210.397 52.3973C209.263 53.4862 208.873 53.4986 207.739 52.3973C207.088 51.812 206.517 51.1424 206.041 50.4062C205.775 49.9457 205.558 49.9022 205.205 50.3128C203.457 52.1928 201.048 53.3134 198.49 53.4364C197.059 53.5651 195.617 53.4 194.252 52.951C193.108 52.5394 192.097 51.8237 191.327 50.8802C190.557 49.9366 190.056 48.8007 189.878 47.5937C189.393 45.5299 189.562 43.3653 190.361 41.4026C190.864 40.2085 191.625 39.142 192.589 38.2809C193.554 37.4197 194.698 36.7856 195.937 36.4248C198.117 35.7759 200.35 35.32 202.609 35.0622C203.124 35.0767 203.64 35.0349 204.146 34.9377C204.394 34.8506 204.524 34.7635 204.536 34.4897C204.611 33.4134 204.504 32.332 204.22 31.2915C203.669 29.5617 201.655 29.0639 200.466 29.2693C199.65 29.3819 198.889 29.7486 198.291 30.3178C197.694 30.887 197.288 31.6301 197.133 32.4426C196.922 33.2639 196.55 33.4568 195.714 33.3386C194.413 33.1519 193.106 32.9964 191.793 32.8906C190.783 32.8097 190.343 32.3306 190.554 31.3599C190.824 29.8705 191.473 28.4765 192.438 27.3133C193.403 26.1501 194.651 25.257 196.061 24.7208C199.305 23.3244 202.952 23.2001 206.283 24.3724C209.882 25.6853 211.493 27.7635 211.691 31.9199C211.822 34.1662 211.791 36.4124 211.828 38.3475ZM204.548 41.1848C204.548 40.687 204.548 40.1955 204.548 39.6977C204.548 39.3368 204.369 39.175 204.053 39.2497C203.266 39.4426 202.454 39.3244 201.661 39.5048C200.379 39.7973 199.115 40.1706 198.267 41.2159C197.692 41.9093 197.32 42.7493 197.192 43.6423C197.064 44.5354 197.185 45.4466 197.542 46.2746C197.714 46.76 198.014 47.1898 198.409 47.5191C200.045 48.8755 202.2 47.855 203.068 46.6604C204.156 45.0523 204.677 43.1248 204.548 41.1848Z" fill="#201C1D"/>
<path d="M145.416 37.2896C145.416 39.1563 145.416 41.0229 145.416 42.8896C145.389 44.6822 146.034 46.4192 147.225 47.7554C147.346 47.872 147.442 48.013 147.506 48.1693C147.57 48.3255 147.601 48.4935 147.596 48.6624C147.592 48.8314 147.552 48.9974 147.479 49.1499C147.407 49.3023 147.303 49.4377 147.175 49.5474C145.936 50.684 144.687 51.804 143.427 52.9074C143.223 53.0989 142.953 53.2038 142.674 53.2003C142.394 53.1968 142.127 53.0852 141.928 52.8887C141.037 52.1338 140.264 51.2487 139.635 50.2629C139.443 50.0016 139.357 49.8149 139.016 50.1696C137.452 51.9607 135.282 53.1048 132.926 53.3803C130.225 53.6727 127.567 53.4736 125.492 51.358C124.311 50.0858 123.585 48.4549 123.429 46.7225C123.211 45.3008 123.304 43.8485 123.701 42.4665C124.087 41.0141 124.846 39.6892 125.903 38.6253C126.96 37.5614 128.278 36.7959 129.723 36.406C131.884 35.768 134.096 35.3163 136.333 35.0558C136.848 35.0669 137.363 35.0273 137.87 34.9376C138.155 34.8443 138.279 34.7323 138.279 34.4336C138.315 33.4013 138.208 32.369 137.963 31.366C137.492 29.6612 135.485 29.0203 134.208 29.2629C132.399 29.6052 131.185 30.6256 130.851 32.5358C130.828 32.6747 130.777 32.8074 130.702 32.926C130.626 33.0445 130.528 33.1465 130.412 33.2256C130.296 33.3047 130.165 33.3594 130.028 33.3863C129.89 33.4132 129.749 33.4117 129.612 33.3821C128.243 33.1954 126.873 33.0149 125.504 32.8718C124.476 32.7661 124.135 32.3181 124.377 31.3038C125.38 27.0416 128.218 24.7643 132.344 23.9554C134.622 23.4273 136.995 23.4743 139.251 24.0923C141.37 24.7145 143.34 25.6914 144.474 27.7821C145.081 28.9327 145.404 30.2131 145.416 31.5154C145.447 33.4567 145.409 35.3732 145.416 37.2896ZM131.006 44.3892C130.927 45.1585 131.078 45.9339 131.439 46.6167C131.682 47.1142 132.069 47.5267 132.548 47.8008C133.028 48.0749 133.578 48.1978 134.128 48.1536C134.82 48.0756 135.481 47.8199 136.046 47.4113C136.611 47.0026 137.062 46.4547 137.356 45.8203C138.204 43.8643 138.518 41.7165 138.266 39.598C138.266 39.2807 138.037 39.2185 137.802 39.262C136.761 39.3443 135.727 39.4898 134.704 39.6976C132.307 40.3945 130.888 41.7572 131.006 44.3892Z" fill="#201C1D"/>
<path d="M239.31 39.0384C239.241 35.4544 239.824 32.2873 241.465 29.3753C243.107 26.4633 245.492 24.5593 248.862 24.0739C251.439 23.607 254.097 24.098 256.34 25.4553C258.384 26.7736 259.961 28.7076 260.844 30.9806C262.044 33.9229 262.543 37.1063 262.3 40.2766C262.219 43.4536 261.22 46.5385 259.425 49.1557C258.484 50.5568 257.216 51.7051 255.731 52.5002C254.246 53.2952 252.59 53.7129 250.907 53.7166C249.438 53.7879 247.972 53.5326 246.613 52.969C245.254 52.4054 244.036 51.5474 243.045 50.4562C241.301 48.4786 240.149 46.0451 239.725 43.4375C239.4 41.995 239.26 40.5165 239.31 39.0384ZM251.266 48.1664C251.661 48.1156 252.039 47.9776 252.375 47.7625C252.71 47.5473 252.994 47.2603 253.205 46.9219C254.364 45.3353 254.568 43.4748 254.636 41.6206C254.753 39.9431 254.768 38.2599 254.68 36.5806C254.589 34.9383 254.31 33.3119 253.85 31.7335C253.323 30.1095 251.991 29.537 250.455 29.5184C249.216 29.5184 248.46 30.2713 247.902 31.3042C247.181 32.8282 246.829 34.5018 246.874 36.1886C246.743 38.4564 246.828 40.7317 247.128 42.9833C247.263 44.2114 247.624 45.4035 248.193 46.4988C248.782 47.5504 249.593 48.1913 251.266 48.1664Z" fill="#201C1D"/>
<path d="M227.186 30.3083H219.058C218.209 30.3083 217.899 30.1341 217.819 29.319C217.663 27.9566 217.663 26.5809 217.819 25.2185C217.911 24.559 218.314 24.3599 218.89 24.3599H234.843C236.02 24.3599 236.305 24.6461 236.305 25.8221C236.305 26.4443 236.262 27.0665 236.305 27.6452C236.372 28.8422 235.994 30.0216 235.246 30.9554C233.468 33.4816 231.751 36.0514 230.017 38.6025L226.987 43.1012C226.888 43.2443 226.69 43.375 226.771 43.5679C226.851 43.7607 227.124 43.7048 227.31 43.6985C230.249 43.6435 233.154 44.337 235.754 45.7145C236.103 45.8516 236.402 46.095 236.607 46.4106C236.813 46.7263 236.915 47.0986 236.9 47.4754C236.9 48.7572 236.9 50.0452 236.9 51.327C236.9 52.2976 236.28 52.7021 235.394 52.279C233.52 51.3237 231.506 50.6767 229.428 50.3625C226.204 49.8982 222.916 50.313 219.906 51.5634C219.287 51.8248 218.667 52.1359 217.998 52.3785C217.879 52.4262 217.75 52.4456 217.622 52.4353C217.494 52.425 217.37 52.3852 217.26 52.319C217.15 52.2528 217.056 52.162 216.987 52.0536C216.917 51.9453 216.873 51.8222 216.858 51.6941C216.858 49.8959 216.672 48.0914 216.97 46.3056C217.192 45.4326 217.602 44.6191 218.172 43.9225C221.063 39.6126 223.954 35.3068 226.845 31.0052C227.01 30.8018 227.126 30.5635 227.186 30.3083Z" fill="#201C1D"/>
<path d="M165.891 75.7991C165.891 71.9911 165.891 68.1831 165.891 64.3751C165.891 63.7528 165.984 63.5226 166.702 63.4231C169.246 63.0643 171.819 62.9497 174.384 63.0808C177.153 63.2302 179.842 63.7964 182.116 65.5697C184.225 67.1617 185.642 69.508 186.074 72.1217C186.703 75.2505 186.334 78.4987 185.021 81.4053C184.441 82.7413 183.591 83.9417 182.524 84.9304C181.458 85.919 180.199 86.6743 178.826 87.1484C176.992 87.7443 175.093 88.1182 173.17 88.2622C171.311 88.4364 169.453 88.1626 167.594 88.1999C167.136 88.1999 166.677 88.0382 166.2 88.0755C165.872 88.0755 165.853 87.8702 165.86 87.6275C165.86 87.0426 165.86 86.4577 165.86 85.8666C165.88 82.5108 165.891 79.1549 165.891 75.7991ZM169.261 75.7244C169.261 77.0311 169.261 78.3377 169.261 79.6444C169.261 81.3991 169.261 83.1599 169.261 84.9146C169.261 85.1573 169.149 85.4746 169.589 85.5368C171.714 85.7783 173.863 85.652 175.945 85.1635C177.201 84.8913 178.376 84.3297 179.378 83.5231C180.38 82.7164 181.181 81.6868 181.719 80.5155C182.83 78.0158 183.112 75.224 182.525 72.5511C182.283 71.1358 181.66 69.8143 180.722 68.7306C178.95 66.7271 176.614 65.8995 174.012 65.7937C172.686 65.7183 171.356 65.7537 170.035 65.8995C169.416 65.9742 169.242 66.1608 169.248 66.7644C169.273 69.7324 169.255 72.7253 169.255 75.7244H169.261Z" fill="black"/>
<path d="M212.633 75.6187C212.633 71.7174 212.633 67.8223 212.633 63.9209C212.633 63.2987 212.807 63.1369 213.389 63.1805C214.039 63.225 214.691 63.225 215.34 63.1805C215.861 63.1494 216.034 63.3049 216.028 63.8525C216.028 66.8267 216.028 69.8009 216.028 72.7814C216.028 73.4845 216.232 73.6338 216.889 73.6276C220.278 73.5965 223.667 73.6276 227.055 73.6276C227.607 73.6276 227.78 73.4907 227.774 72.9183C227.774 69.9191 227.774 66.92 227.774 63.9271C227.774 63.3049 227.954 63.1494 228.536 63.1867C229.249 63.2365 229.973 63.1867 230.692 63.1867C231.039 63.1867 231.194 63.2987 231.163 63.6534C231.163 63.8089 231.163 63.9707 231.163 64.1263C231.163 71.8356 231.163 79.5449 231.163 87.2543C231.163 87.9511 230.971 88.1627 230.302 88.1005C229.698 88.0494 229.091 88.0494 228.487 88.1005C227.935 88.144 227.762 87.9636 227.768 87.3911C227.768 84.0311 227.768 80.6711 227.768 77.3174C227.768 76.4587 227.768 76.4525 226.888 76.4525C223.524 76.4525 220.154 76.4525 216.79 76.4525C216.208 76.4525 216.028 76.5831 216.034 77.1929C216.034 80.5716 216.034 83.9565 216.034 87.3351C216.034 87.9574 215.842 88.1503 215.241 88.1067C214.591 88.0632 213.94 88.0632 213.29 88.1067C212.794 88.1067 212.633 87.976 212.67 87.4845C212.67 85.3876 212.67 83.2907 212.67 81.1938C212.645 79.3313 212.633 77.4729 212.633 75.6187Z" fill="black"/>
<path d="M134.06 76.1851C136.141 77.1247 136.996 78.8295 137.455 80.7335C137.942 83.0492 138.563 85.3345 139.313 87.578C139.462 87.9887 139.381 88.1318 138.929 88.1131C138.142 88.1131 137.356 88.1131 136.575 88.1131C136.494 88.1283 136.412 88.1274 136.331 88.1102C136.251 88.0931 136.175 88.0601 136.108 88.0132C136.04 87.9663 135.983 87.9065 135.939 87.8371C135.894 87.7677 135.864 87.6902 135.85 87.6091C135.164 85.7046 134.628 83.7489 134.246 81.7602C134.041 80.6054 133.525 79.5292 132.753 78.6491C131.977 77.8633 130.924 77.4162 129.822 77.4047C128.949 77.3549 128.069 77.4047 127.195 77.4047C126.669 77.4047 126.576 77.5789 126.576 78.0642C126.576 81.1753 126.576 84.2429 126.576 87.3291C126.576 87.9513 126.415 88.1691 125.795 88.1131C125.214 88.0657 124.63 88.0657 124.048 88.1131C123.503 88.1567 123.305 87.9949 123.317 87.41C123.354 85.8544 123.317 84.2989 123.317 82.7433C123.317 76.7907 123.317 70.8381 123.317 64.8855C123.317 63.554 123.317 63.5353 124.556 63.3549C126.726 63.0387 128.923 62.9532 131.111 63.0998C132.784 63.218 134.481 63.4918 135.894 64.5433C136.693 65.0802 137.351 65.804 137.811 66.6526C138.271 67.5013 138.518 68.4493 138.533 69.4153C138.644 71.1279 138.112 72.8201 137.04 74.1567C136.397 74.8987 135.608 75.4984 134.723 75.9175C134.562 75.9922 134.357 76.0607 134.06 76.1851ZM126.564 70.3487C126.564 71.6553 126.564 72.962 126.564 74.2687C126.564 74.6607 126.657 74.8535 127.084 74.8224C128.323 74.7478 129.562 74.866 130.764 74.7042C133.663 74.3309 135.193 72.682 135.181 69.7762C135.199 69.0772 135.014 68.388 134.648 67.7926C134.283 67.1972 133.754 66.7212 133.124 66.4224C131.173 65.3833 129.104 65.5015 127.01 65.85C126.619 65.9122 126.551 66.0802 126.557 66.4224C126.564 67.7353 126.551 69.0669 126.551 70.3487H126.564Z" fill="black"/>
<path d="M145.682 75.6561C145.682 71.7361 145.682 67.8099 145.682 63.8899C145.682 63.3237 145.843 63.1743 146.394 63.1743C150.413 63.1951 154.43 63.1951 158.444 63.1743C158.983 63.1743 159.225 63.2863 159.169 63.8712C159.126 64.3888 159.126 64.9091 159.169 65.4268C159.2 65.9059 159.02 66.049 158.549 66.049C155.656 66.049 152.757 66.049 149.876 66.049C149.257 66.049 149.027 66.1796 149.046 66.8579C149.096 68.9548 149.077 71.0516 149.046 73.1485C149.046 73.6588 149.201 73.7708 149.665 73.7708C152.429 73.7708 155.185 73.7708 157.948 73.7708C158.432 73.7708 158.648 73.8765 158.605 74.393C158.565 74.8879 158.565 75.3852 158.605 75.8801C158.642 76.3654 158.45 76.5023 157.986 76.5023C155.272 76.5023 152.552 76.5023 149.839 76.5023C149.219 76.5023 149.003 76.6454 149.009 77.3112C149.052 79.7441 149.046 82.177 149.009 84.6161C149.009 85.1885 149.182 85.3254 149.734 85.3254C152.831 85.3254 155.885 85.3254 158.958 85.3254C159.503 85.3254 159.726 85.4561 159.677 86.0348C159.638 86.5754 159.638 87.1181 159.677 87.6588C159.677 88.0881 159.522 88.1876 159.125 88.1876C154.818 88.1876 150.508 88.1876 146.196 88.1876C145.645 88.1876 145.651 87.9076 145.651 87.5156C145.676 83.5127 145.686 79.5595 145.682 75.6561Z" fill="black"/>
<path d="M197.938 88.3555C195.74 88.4122 193.564 87.9001 191.619 86.8684C191.272 86.6817 191.167 86.5386 191.334 86.1528C191.588 85.5306 191.749 84.9084 191.985 84.3297C192.121 83.9875 192.245 84.0373 192.455 84.1617C193.952 84.9455 195.58 85.4434 197.257 85.6302C198.942 85.9102 201.593 84.8524 202.3 83.5022C202.601 82.9886 202.789 82.416 202.852 81.8231C202.914 81.2302 202.849 80.6307 202.661 80.0651C202.474 79.4996 202.167 78.9811 201.763 78.5446C201.358 78.1081 200.865 77.7639 200.317 77.535C199.115 76.9128 197.839 76.5768 196.6 76.0168C194.741 75.1457 193.075 74.0319 192.164 72.0533C191.738 70.934 191.618 69.7206 191.816 68.5389C192.014 67.3572 192.524 66.2504 193.292 65.3333C194.952 63.5475 197.04 62.8444 199.388 62.7635C201.239 62.6725 203.086 62.9977 204.796 63.7155C205.149 63.8648 205.286 63.9955 205.112 64.4062C204.858 65.0284 204.679 65.6506 204.493 66.3039C204.4 66.5964 204.313 66.783 203.941 66.5777C202.727 65.9121 201.366 65.5593 199.983 65.551C198.236 65.551 196.569 65.8622 195.572 67.4737C194.574 69.0853 195.002 71.2693 197.201 72.5324C198.824 73.4657 200.633 74.0008 202.256 74.9342C203.879 75.8675 205.403 77.0497 205.93 79.047C206.915 82.7804 205.31 86.3333 201.593 87.6835C200.426 88.1294 199.187 88.3571 197.938 88.3555Z" fill="black"/>
<path d="M250.356 75.6063C250.356 71.705 250.356 67.8036 250.356 63.9023C250.356 63.3548 250.486 63.1743 251.056 63.1743C255.054 63.1992 259.049 63.1992 263.043 63.1743C263.588 63.1743 263.75 63.3485 263.706 63.865C263.667 64.3599 263.667 64.8572 263.706 65.3521C263.75 65.881 263.57 66.0428 263.031 66.0365C260.224 66.0365 257.418 66.0365 254.612 66.0365C253.726 66.0365 253.726 66.0365 253.726 66.8952C253.726 69.1041 253.726 71.313 253.726 73.5219C253.726 74.0321 253.874 74.1441 254.345 74.1441C257.015 74.1441 259.685 74.1441 262.362 74.1441C262.851 74.1441 263.062 74.2561 263.012 74.7663C262.973 75.2612 262.973 75.7585 263.012 76.2534C263.049 76.745 262.851 76.8757 262.393 76.8757C259.741 76.8757 257.096 76.8757 254.444 76.8757C253.825 76.8757 253.689 77.025 253.695 77.6223C253.695 80.8703 253.695 84.1183 253.695 87.3601C253.695 87.9263 253.589 88.1814 252.964 88.1254C252.291 88.0757 251.616 88.0757 250.944 88.1254C250.43 88.1565 250.325 87.9699 250.325 87.5032C250.362 83.4961 250.356 79.5512 250.356 75.6063Z" fill="black"/>
<path d="M239.037 75.5999C239.037 71.6986 239.037 67.7972 239.037 63.9021C239.037 63.3483 239.167 63.1368 239.743 63.1803C240.416 63.2286 241.091 63.2286 241.763 63.1803C242.32 63.143 242.444 63.367 242.426 63.8772C242.395 64.9101 242.426 65.9492 242.426 66.9883C242.426 73.7519 242.426 80.5154 242.426 87.279C242.426 87.9012 242.283 88.1688 241.614 88.1066C240.965 88.0546 240.312 88.0546 239.663 88.1066C239.136 88.1439 239.043 87.9323 239.043 87.447C239.049 83.4897 239.037 79.5448 239.037 75.5999Z" fill="black"/>
<path d="M9.08466 15.8481C10.8875 16.1468 12.6407 16.6757 14.4125 17.0926C17.7517 17.889 21.0847 18.6668 24.4053 19.4881C24.4053 19.7557 24.4053 20.0295 24.4053 20.297C24.4053 44.0203 24.4053 67.7415 24.4053 91.4606C24.4053 91.7281 24.4053 92.0019 24.4053 92.2695L9.45637 95.9281C9.32627 95.9593 9.20236 96.0028 9.07227 96.0464C9.08053 69.3157 9.08466 42.583 9.08466 15.8481Z" fill="#5293CE"/>
</svg>
