<svg width="268" height="112" viewBox="0 0 268 112" fill="none" xmlns="http://www.w3.org/2000/svg">
<g clip-path="url(#clip0_874_20333)">
<path d="M201.921 31.563V28.0869C201.921 27.6002 202.269 27.1831 202.756 27.1831H202.825H218.537C219.024 27.1831 219.441 27.5307 219.441 28.0174C219.441 28.0174 219.441 28.0174 219.441 28.0869V31.0763C219.441 31.563 219.024 32.2582 218.259 33.301L210.125 44.9112C213.253 44.7027 216.312 45.3979 219.093 46.8578C219.58 47.1359 219.928 47.6921 219.928 48.2483V52.0025C219.928 52.4891 219.371 53.1148 218.746 52.8367C213.532 50.1254 207.344 50.1254 202.13 52.8367C201.574 53.1148 201.018 52.5587 201.018 52.0025V48.4568C200.948 47.6226 201.157 46.7883 201.574 46.0236L210.959 32.5363H202.756C202.338 32.4668 201.991 32.1192 201.921 31.563Z" fill="#201C1D"/>
<path d="M144.705 53.4627H139.908C139.49 53.4627 139.073 53.1151 139.073 52.6284V28.1567C139.073 27.67 139.49 27.2529 139.977 27.2529H144.427C144.913 27.2529 145.261 27.6005 145.33 28.0871V31.2851H145.4C146.582 28.1567 148.737 26.7662 151.657 26.7662C154.577 26.7662 156.523 28.2262 157.844 31.2851C159.235 27.67 163.267 25.7929 166.952 27.1833C168.134 27.67 169.176 28.4347 170.011 29.4081C171.54 31.4937 171.193 34.4832 171.193 37.0555V52.5589C171.193 53.0455 170.775 53.4627 170.289 53.4627H165.492C165.005 53.4627 164.657 53.0455 164.657 52.5589V39.5583C164.727 38.0288 164.657 36.4993 164.518 34.9698C164.171 33.3013 163.128 32.8842 161.738 32.8842C160.486 32.9537 159.374 33.7184 158.887 34.9003C158.4 36.1517 158.47 38.2374 158.47 39.6278V52.6284C158.47 53.1151 158.053 53.5322 157.566 53.5322H152.769C152.283 53.5322 151.935 53.1151 151.935 52.6284V39.5583C151.935 36.8469 152.352 32.8146 149.015 32.8146C145.678 32.8146 145.747 36.7079 145.747 39.5583V52.5589C145.608 53.0455 145.191 53.4627 144.705 53.4627Z" fill="#201C1D"/>
<path d="M232.928 26.7661C240.019 26.7661 243.843 32.8841 243.843 40.601C243.843 48.1094 239.602 54.0187 232.928 54.0187C225.976 54.0187 222.152 47.9008 222.152 40.3229C222.152 32.745 226.045 26.7661 232.928 26.7661ZM232.998 31.7717C229.452 31.7717 229.243 36.5687 229.243 39.5582C229.243 42.5476 229.174 48.9436 232.928 48.9436C236.682 48.9436 236.821 43.799 236.821 40.6705C236.891 38.5153 236.682 36.2906 236.126 34.1354C235.848 32.6755 234.458 31.6327 232.998 31.7717Z" fill="#201C1D"/>
<path d="M253.02 53.4624H248.293C247.806 53.4624 247.458 53.0453 247.458 52.5586V28.0869C247.528 27.6002 247.945 27.2526 248.362 27.2526H252.811C253.229 27.2526 253.576 27.5307 253.646 27.9478V31.702H253.715C255.036 28.365 256.913 26.766 260.25 26.766C262.475 26.6964 264.63 27.7393 265.812 29.6859C267.063 31.6325 267.063 34.9696 267.063 37.3333V52.6977C266.994 53.1148 266.577 53.4624 266.16 53.4624H261.363C260.946 53.4624 260.598 53.1148 260.528 52.6977V39.3494C260.528 36.7076 260.806 32.7449 257.539 32.7449C256.288 32.8144 255.245 33.5791 254.758 34.6915C254.202 36.1514 253.924 37.7504 253.993 39.3494V52.5586C253.924 53.1148 253.576 53.4624 253.02 53.4624Z" fill="#201C1D"/>
<path d="M135.319 48.9437C134.415 47.7618 133.512 46.719 133.512 44.4943V37.125C133.512 33.9965 133.72 31.0765 131.426 28.9214C129.618 27.1833 126.559 26.5576 124.196 26.5576C119.677 26.5576 114.602 28.2261 113.489 33.8574C113.42 34.3441 113.698 34.7612 114.185 34.8307L118.842 35.3174C119.26 35.2479 119.607 34.9003 119.677 34.4136C120.094 32.467 121.693 31.5632 123.5 31.5632C124.543 31.4937 125.517 31.9803 126.212 32.8146C126.907 33.7879 126.768 35.1088 126.768 36.2907V36.9164C123.987 37.264 120.372 37.4031 117.8 38.5849C114.602 39.8363 112.585 42.9648 112.725 46.3714C112.725 51.3075 115.853 53.8103 119.885 53.8103C123.292 53.8103 125.169 52.976 127.741 50.3342C128.437 51.5856 129.34 52.6284 130.453 53.5322C130.8 53.7407 131.287 53.6712 131.565 53.3931C132.538 52.5589 134.276 51.0294 135.25 50.1951C135.667 49.917 135.667 49.3608 135.319 48.9437ZM125.934 46.7885C125.308 48.0399 124.057 48.8742 122.597 48.9437C120.789 48.9437 119.677 47.5533 119.677 45.4676C119.677 41.4353 123.361 40.6706 126.768 40.6706V41.7134C126.838 43.5905 126.907 45.1895 125.934 46.7885Z" fill="#201C1D"/>
<path d="M197.959 48.9437C197.055 47.7618 196.151 46.719 196.151 44.4943V37.125C196.151 33.9965 196.36 31.0765 194.065 28.9214C192.258 27.1833 189.199 26.5576 186.835 26.5576C182.316 26.5576 177.241 28.2261 176.129 33.8574C176.059 34.3441 176.337 34.7612 176.754 34.8307C176.754 34.8307 176.754 34.8307 176.824 34.8307L181.482 35.3174C181.899 35.2479 182.247 34.9003 182.316 34.4136C182.733 32.467 184.332 31.5632 186.14 31.5632C187.183 31.4937 188.156 31.9803 188.851 32.8146C189.546 33.7879 189.407 35.1088 189.407 36.2907V36.9164C186.626 37.264 183.011 37.4031 180.439 38.5849C177.31 39.8363 175.225 42.9648 175.364 46.3714C175.364 51.3075 178.492 53.8103 182.525 53.8103C185.931 53.8103 187.739 52.976 190.381 50.3342C191.076 51.5856 191.98 52.6284 193.092 53.5322C193.44 53.7407 193.926 53.6712 194.204 53.3931C195.178 52.5589 196.916 51.0294 197.889 50.1951C198.237 49.917 198.306 49.3608 197.959 48.9437ZM188.504 46.7885C187.878 48.0399 186.626 48.8742 185.166 48.9437C183.359 48.9437 182.247 47.5533 182.247 45.4676C182.247 41.4353 185.931 40.6706 189.338 40.6706V41.7134C189.407 43.5905 189.477 45.1895 188.504 46.7885Z" fill="#201C1D"/>
<path d="M58.6365 105.604C49.5986 105.604 40.6998 105.673 31.662 105.673C31.3839 105.673 31.1753 105.604 30.8972 105.465C30.8972 105.395 30.8972 105.256 30.8972 105.048C31.3839 104.561 31.1753 103.866 31.1753 103.24C31.1753 71.7466 31.1753 40.1836 31.1753 8.69011C31.1753 8.06441 31.3839 7.50823 30.8972 6.88253C30.8972 6.81301 30.8972 6.67397 30.8972 6.4654C31.1753 6.39588 31.5229 6.25684 31.8705 6.25684C40.4913 6.25684 49.112 6.25684 57.7327 6.25684C58.0108 6.25684 58.3584 6.32636 58.4975 6.32636C58.4975 7.02158 58.567 7.78632 58.567 8.48154C58.567 32.8838 58.567 57.3555 58.567 81.7578C58.567 89.8918 58.567 97.7478 58.6365 105.604Z" fill="#2D72B7"/>
<path d="M58.6364 105.604C58.6364 97.7477 58.6364 89.9612 58.6364 82.1052C58.6364 57.703 58.6364 33.2312 58.6364 8.82898C58.6364 8.13376 58.6364 7.36901 58.5669 6.67379C58.984 6.46523 59.1926 6.67379 59.4707 6.88236C65.5191 9.94133 71.637 12.9308 77.6855 15.9897C78.1026 16.1983 78.5892 16.4069 78.8673 16.8935C78.3807 17.3802 78.5892 18.0754 78.5892 18.7011C78.5892 43.7986 78.5892 68.757 78.5892 93.8544C78.5892 94.4801 78.3807 95.0363 78.8673 95.662C78.6588 96.1487 78.2416 96.2877 77.894 96.4267C71.9151 99.4162 65.8667 102.406 59.9573 105.465C59.4707 105.395 59.0535 105.673 58.6364 105.604Z" fill="#5294CE"/>
<path d="M30.8972 105.187C30.8972 105.256 30.8972 105.395 30.8972 105.604C30.4801 105.673 30.2715 105.534 29.9934 105.326C24.0145 102.336 17.9661 99.3468 12.0567 96.2878C11.7786 96.2183 11.5701 95.8707 11.292 95.6621C11.292 69.3133 11.292 42.9644 11.292 16.546C12.6129 15.4337 14.1424 14.947 15.6719 14.1823C20.2603 11.8881 24.9183 9.52432 29.4372 7.23009C29.9239 7.02153 30.341 6.53487 30.8972 6.60439C30.8972 6.67392 30.8972 6.81296 30.8972 7.02153C30.8972 39.7664 30.8972 72.4418 30.8972 105.187Z" fill="#205B98"/>
<path d="M11.1529 16.5459C11.1529 42.8947 11.1529 69.2436 11.1529 95.662C7.88537 91.9078 4.61784 88.1536 1.3503 84.3299C0.933169 83.8432 0.863647 83.2175 0.863647 82.6614C0.863647 64.9332 0.863647 47.2746 0.863647 29.5465C0.863647 28.9208 0.863647 28.3646 1.3503 27.878C4.61784 24.1238 7.88537 20.3001 11.1529 16.5459Z" fill="#1C4870"/>
<path d="M78.8673 95.4535C78.3807 94.9669 78.5892 94.2716 78.5892 93.6459C78.5892 68.5485 78.5892 43.5901 78.5892 18.4926C78.5892 17.8669 78.3807 17.3108 78.8673 16.6851C82.0653 20.3697 85.1938 24.0544 88.3918 27.6695C88.8785 28.2952 89.0175 28.8514 89.0175 29.5466C89.0175 47.2052 89.0175 64.9333 89.0175 82.5919C89.0175 83.3567 88.809 83.9824 88.3223 84.6081C85.1243 88.2232 81.9263 91.7689 78.8673 95.4535Z" fill="#2D72B7"/>
<path d="M30.8972 105.187C30.8972 72.5114 30.8972 39.7665 30.8972 7.16064C31.3839 7.6473 31.1753 8.34252 31.1753 8.96822C31.1753 40.4617 31.1753 72.0247 31.1753 103.518C31.1753 104.005 31.3839 104.7 30.8972 105.187Z" fill="#5294CE"/>
<path d="M112.725 92.1863V62.3613H123.57C125.864 62.3613 127.533 62.6394 128.576 63.1956C129.618 63.7518 130.522 64.6556 131.217 65.9765C131.913 67.2974 132.26 68.7574 132.26 70.4954C132.26 72.7201 131.704 74.5972 130.522 75.9877C129.34 77.3781 127.672 78.2819 125.378 78.6295C126.281 79.1857 126.977 79.7418 127.463 80.298C128.437 81.4104 129.271 82.7313 130.036 84.1217L134.276 92.2558H130.175L126.907 86.0683C125.656 83.6351 124.682 82.0361 124.057 81.2018C123.431 80.3675 122.805 79.8114 122.18 79.5333C121.554 79.2552 120.72 79.1161 119.677 79.1161H115.923V92.3253H112.725V92.1863ZM115.923 75.501H122.875C124.404 75.501 125.517 75.2924 126.351 74.9448C127.116 74.5972 127.741 73.9715 128.228 73.2068C128.715 72.442 128.923 71.5382 128.923 70.4954C128.923 68.9659 128.506 67.7841 127.602 66.9498C126.699 66.1155 125.447 65.6289 123.709 65.6289H115.992V75.501H115.923Z" fill="#201C1D"/>
<path d="M137.266 92.1863V62.3613H145.678C147.764 62.3613 149.363 62.5699 150.406 62.9175C151.796 63.4042 153.047 64.2384 154.09 65.4898C155.133 66.7412 155.967 68.3402 156.523 70.2868C157.08 72.2335 157.427 74.4582 157.427 77.1C157.427 80.5066 156.941 83.357 155.967 85.6512C154.994 88.015 153.743 89.6835 152.144 90.6568C150.614 91.6301 148.598 92.1168 146.026 92.1168H137.266V92.1863ZM140.533 88.6407H145.748C147.833 88.6407 149.432 88.293 150.545 87.5978C151.657 86.9026 152.491 85.7903 153.047 84.3303C153.812 82.3142 154.229 79.8809 154.229 77.1C154.229 74.1106 153.812 71.6773 152.978 70.0088C152.144 68.2707 151.101 67.1583 149.849 66.5326C149.015 66.1155 147.625 65.9765 145.748 65.9765H140.603V88.6407H140.533Z" fill="#201C1D"/>
<path d="M160.903 82.5923L163.962 82.2447C164.101 83.9132 164.518 85.1646 165.075 86.0684C165.631 86.9722 166.465 87.7369 167.577 88.2931C168.62 88.8492 169.872 89.1273 171.193 89.1273C173.139 89.1273 174.599 88.6407 175.642 87.7369C176.685 86.7636 177.241 85.5817 177.241 84.0522C177.241 83.1484 177.032 82.3837 176.685 81.758C176.268 81.1323 175.712 80.5761 174.947 80.159C174.182 79.7419 172.514 79.1162 169.872 78.3514C167.577 77.6562 165.909 76.961 164.936 76.2658C163.962 75.5705 163.198 74.6668 162.641 73.6239C162.085 72.5811 161.807 71.3297 161.807 70.0088C161.807 67.5755 162.572 65.6289 164.171 64.0994C165.7 62.5699 167.856 61.8052 170.497 61.8052C172.305 61.8052 173.904 62.1528 175.294 62.848C176.685 63.5432 177.728 64.5861 178.492 65.907C179.257 67.2279 179.674 68.8269 179.674 70.6345L176.546 70.9126C176.407 68.9659 175.781 67.506 174.808 66.6022C173.834 65.6984 172.444 65.2118 170.636 65.2118C168.829 65.2118 167.438 65.6289 166.465 66.4632C165.492 67.2974 165.005 68.3402 165.005 69.6612C165.005 70.843 165.353 71.8163 166.048 72.442C166.743 73.1373 168.342 73.763 170.775 74.4582C173.209 75.1534 174.877 75.7096 175.851 76.1962C177.311 76.961 178.492 77.9343 179.257 79.1857C180.022 80.4371 180.369 81.897 180.369 83.6351C180.369 85.3731 179.952 86.9026 179.188 88.2931C178.423 89.6835 177.311 90.7263 175.92 91.4911C174.53 92.2558 172.861 92.6034 170.984 92.6034C167.995 92.6034 165.561 91.6997 163.754 89.8921C161.877 88.154 160.973 85.6512 160.903 82.5923Z" fill="#201C1D"/>
</g>
<defs>
<clipPath id="clip0_874_20333">
<rect width="266.2" height="112" fill="white" transform="translate(0.863647)"/>
</clipPath>
</defs>
</svg>
