<svg width="96" height="65" viewBox="0 0 96 65" fill="none" xmlns="http://www.w3.org/2000/svg">
<rect width="96" height="64" transform="translate(0 0.839996)" fill="white"/>
<g clip-path="url(#clip0_6744_64719)">
<path fill-rule="evenodd" clip-rule="evenodd" d="M29.5388 30.7993C28.8062 30.7971 28.0959 31.0521 27.532 31.5198V30.8718H25.6992V38.0094H27.6045V33.4493C27.8094 33.1827 28.0711 32.965 28.3705 32.8119C28.6699 32.6589 28.9996 32.5743 29.3357 32.5644C29.5957 32.5502 29.8558 32.5897 30.0998 32.6804V30.8477C29.9147 30.8145 29.7269 30.7984 29.5388 30.7993Z" fill="#293E40"/>
<path fill-rule="evenodd" clip-rule="evenodd" d="M12.9236 35.8334C13.4648 36.2897 14.15 36.5398 14.8579 36.5394C15.3705 36.5394 15.7671 36.2879 15.7671 35.9349C15.7816 34.8614 12.3385 35.2579 12.3385 32.9464C12.3385 31.5779 13.6587 30.7268 15.0659 30.7268C15.9249 30.7258 16.7654 30.9763 17.4838 31.4473L16.5747 32.84C16.1801 32.5434 15.7042 32.3747 15.211 32.3564C14.6839 32.3564 14.2438 32.5644 14.2438 32.9319C14.2438 33.8604 17.6869 33.4928 17.6869 35.9639C17.6869 37.318 16.3522 38.1594 14.8579 38.1594C13.8277 38.1434 12.8282 37.8052 12 37.1922L12.9236 35.8334Z" fill="#293E40"/>
<path fill-rule="evenodd" clip-rule="evenodd" d="M24.8864 34.3729C24.8864 32.3854 23.4937 30.7267 21.5256 30.7267C19.4172 30.7267 18.068 32.4628 18.068 34.4455C18.0459 34.9399 18.1272 35.4335 18.3067 35.8947C18.4861 36.3559 18.7598 36.7746 19.1102 37.1241C19.4606 37.4736 19.88 37.7462 20.3417 37.9245C20.8034 38.1027 21.2972 38.1827 21.7915 38.1593C22.3379 38.1635 22.8789 38.0519 23.379 37.8318C23.8791 37.6118 24.327 37.2883 24.693 36.8827L23.605 35.785C23.3776 36.036 23.102 36.2386 22.7946 36.3807C22.4871 36.5228 22.1542 36.6014 21.8157 36.6119C21.3379 36.6313 20.8708 36.4665 20.5109 36.1516C20.1509 35.8367 19.9256 35.3956 19.8814 34.9194H24.8381C24.8699 34.7389 24.886 34.5561 24.8864 34.3729ZM20.0023 33.5218C20.0709 33.1685 20.2606 32.8501 20.5386 32.6215C20.8166 32.3929 21.1656 32.2684 21.5256 32.2694C21.8729 32.2694 22.2081 32.397 22.4675 32.6279C22.7269 32.8587 22.8925 33.1769 22.9328 33.5218H20.0023Z" fill="#293E40"/>
<path fill-rule="evenodd" clip-rule="evenodd" d="M34.6415 35.2289L36.5903 30.8718H38.573L35.2992 38.0094H33.9838L30.7148 30.8718H32.6927L34.6415 35.2289Z" fill="#293E40"/>
<path fill-rule="evenodd" clip-rule="evenodd" d="M40.1686 27.5206C40.4097 27.5244 40.6443 27.5994 40.8429 27.7362C41.0416 27.8729 41.1954 28.0653 41.285 28.2891C41.3747 28.513 41.3961 28.7584 41.3468 28.9944C41.2974 29.2304 41.1794 29.4466 41.0075 29.6158C40.8357 29.785 40.6177 29.8996 40.3809 29.9453C40.1441 29.9909 39.8991 29.9656 39.6767 29.8724C39.4542 29.7793 39.2643 29.6225 39.1307 29.4217C38.9971 29.221 38.9258 28.9852 38.9258 28.7441C38.9258 28.5818 38.958 28.4211 39.0207 28.2714C39.0834 28.1217 39.1753 27.9859 39.2909 27.8721C39.4066 27.7582 39.5438 27.6685 39.6944 27.6081C39.8451 27.5478 40.0063 27.5181 40.1686 27.5206Z" fill="#293E40"/>
<path d="M41.1201 30.8718H39.2148V38.0094H41.1201V30.8718Z" fill="#293E40"/>
<path fill-rule="evenodd" clip-rule="evenodd" d="M49.0038 36.5539C48.6431 37.0696 48.1589 37.4868 47.5955 37.7672C47.032 38.0477 46.4073 38.1825 45.7783 38.1594C44.7934 38.1594 43.8487 37.7681 43.1522 37.0716C42.4557 36.3751 42.0645 35.4305 42.0645 34.4455C42.0645 33.4605 42.4557 32.5158 43.1522 31.8194C43.8487 31.1229 44.7934 30.7316 45.7783 30.7316C46.3548 30.7296 46.9241 30.8592 47.4429 31.1107C47.9616 31.3621 48.4161 31.7286 48.7717 32.1823L47.437 33.3236C47.2481 33.0635 47.0011 32.8512 46.7157 32.7034C46.4302 32.5557 46.1142 32.4766 45.7928 32.4725C45.5368 32.4725 45.2833 32.5233 45.047 32.622C44.8107 32.7207 44.5964 32.8654 44.4165 33.0475C44.2365 33.2297 44.0945 33.4458 43.9988 33.6833C43.903 33.9208 43.8553 34.1749 43.8585 34.431C43.851 34.6895 43.8968 34.9468 43.9932 35.1869C44.0895 35.4269 44.2344 35.6445 44.4186 35.826C44.6029 36.0075 44.8226 36.1491 45.064 36.2419C45.3055 36.3347 45.5635 36.3767 45.8219 36.3653C46.161 36.3588 46.4934 36.2696 46.7901 36.1052C47.0868 35.9408 47.3388 35.7064 47.5241 35.4223L49.0038 36.5539Z" fill="#293E40"/>
<path fill-rule="evenodd" clip-rule="evenodd" d="M55.9231 36.8779C55.557 37.2835 55.1092 37.607 54.6091 37.827C54.109 38.0471 53.5679 38.1587 53.0216 38.1545C52.5278 38.1771 52.0348 38.0967 51.5738 37.9185C51.1128 37.7402 50.6939 37.4681 50.3437 37.1193C49.9935 36.7705 49.7197 36.3526 49.5397 35.8923C49.3597 35.432 49.2774 34.9393 49.298 34.4455C49.298 32.4628 50.6472 30.7267 52.7605 30.7267C54.7238 30.7267 56.1165 32.3854 56.1165 34.3729C56.1176 34.556 56.103 34.7388 56.073 34.9194H51.1308C51.175 35.3956 51.4003 35.8367 51.7602 36.1516C52.1202 36.4665 52.5872 36.6313 53.0651 36.6119C53.4036 36.6014 53.7365 36.5228 54.044 36.3807C54.3514 36.2386 54.627 36.036 54.8543 35.785L55.9231 36.8779ZM54.1532 33.5218C54.106 33.1797 53.9384 32.8657 53.6805 32.6361C53.4226 32.4065 53.0912 32.2765 52.7459 32.2694C52.3852 32.2673 52.035 32.3913 51.756 32.62C51.477 32.8487 51.2866 33.1677 51.2178 33.5218H54.1532Z" fill="#293E40"/>
<path fill-rule="evenodd" clip-rule="evenodd" d="M56.8574 38.0095V30.8719H58.6902V31.4473C59.2552 30.9781 59.9675 30.723 60.7019 30.7268C61.1711 30.7254 61.6349 30.8274 62.0603 31.0255C62.4857 31.2236 62.8623 31.5129 63.1633 31.8729C63.6469 32.4338 63.8983 33.1544 63.8983 34.373V38.0095H61.9882V34.2279C62.0146 33.9877 61.9909 33.7446 61.9184 33.514C61.846 33.2834 61.7265 33.0704 61.5675 32.8884C61.2761 32.6194 60.8901 32.4769 60.4939 32.4918C60.159 32.5016 59.8303 32.5856 59.5318 32.7378C59.2332 32.89 58.9722 33.1066 58.7676 33.372V38.0095H56.8574Z" fill="#293E40"/>
<path fill-rule="evenodd" clip-rule="evenodd" d="M68.8012 30.7268C67.9655 30.7258 67.1487 30.9758 66.4567 31.4443C65.7647 31.9128 65.2292 32.5783 64.9197 33.3546C64.6103 34.1309 64.541 34.9823 64.7209 35.7984C64.9008 36.6145 65.3216 37.3579 65.9287 37.9321C66.0714 38.0681 66.258 38.1487 66.4548 38.1594C66.6516 38.17 66.8458 38.11 67.0023 37.9901C67.5158 37.6075 68.1391 37.4007 68.7794 37.4007C69.4198 37.4007 70.0431 37.6075 70.5566 37.9901C70.7144 38.1097 70.9097 38.1691 71.1074 38.1576C71.3051 38.1461 71.4921 38.0644 71.635 37.9273C72.2381 37.355 72.6566 36.6156 72.8367 35.8039C73.0168 34.9922 72.9503 34.1452 72.6458 33.3716C72.3414 32.5979 71.8127 31.9328 71.1277 31.4616C70.4427 30.9904 69.6326 30.7345 68.8012 30.7268ZM68.8012 36.9794C68.5268 36.9868 68.2537 36.9381 67.9987 36.8365C67.7437 36.7348 67.5121 36.5822 67.318 36.3881C67.1239 36.194 66.9713 35.9624 66.8697 35.7074C66.768 35.4524 66.7193 35.1793 66.7267 34.9049C66.7131 34.6237 66.7567 34.3427 66.855 34.0789C66.9533 33.8151 67.1041 33.574 67.2983 33.3702C67.4925 33.1664 67.726 33.0041 67.9848 32.8933C68.2435 32.7824 68.5221 32.7253 68.8036 32.7253C69.0851 32.7253 69.3637 32.7824 69.6225 32.8933C69.8812 33.0041 70.1148 33.1664 70.309 33.3702C70.5032 33.574 70.654 33.8151 70.7522 34.0789C70.8505 34.3427 70.8942 34.6237 70.8806 34.9049C70.8879 35.1797 70.8392 35.4532 70.7372 35.7085C70.6352 35.9639 70.4823 36.1957 70.2876 36.3899C70.093 36.5841 69.8608 36.7366 69.6052 36.8379C69.3496 36.9393 69.076 36.9874 68.8012 36.9794Z" fill="#81B5A1"/>
<path fill-rule="evenodd" clip-rule="evenodd" d="M76.7077 38.0094H75.286L72.457 30.8718H74.3575L75.9098 34.9532L77.4331 30.8718H79.024L80.5328 34.9532L82.0948 30.8718H84.0001L81.1663 38.0094H79.7494L78.2261 33.9474L76.7077 38.0094Z" fill="#293E40"/>
<path d="M82.9545 37.1052V37.2599H82.7128V38.0095H82.5387V37.2599H82.2969V37.1052H82.9545Z" fill="#293E40"/>
<path d="M83.5464 37.6468L83.8752 37.1052H84.0009V38.0095H83.8268V37.5017L83.6092 37.8595H83.4835L83.2707 37.5017V38.0095H83.0918V37.1052H83.2175L83.5464 37.6468Z" fill="#293E40"/>
</g>
<defs>
<clipPath id="clip0_6744_64719">
<rect width="72" height="10.6387" fill="white" transform="translate(12 27.5206)"/>
</clipPath>
</defs>
</svg>
