<svg width="96" height="65" viewBox="0 0 96 65" fill="none" xmlns="http://www.w3.org/2000/svg">
<rect width="96" height="64" transform="translate(0 0.839996)" fill="white"/>
<g clip-path="url(#clip0_6744_64772)">
<g clip-path="url(#clip1_6744_64772)">
<path d="M46.2424 30.3269C45.6859 29.6448 45.0936 29.0165 44.4653 28.4062C43.9986 27.9395 43.4959 27.4907 42.9933 27.0599C42.9215 26.9881 42.8138 26.9881 42.742 27.0599C41.0726 28.1549 39.2775 29.0524 37.3927 29.7345C36.6029 30.0217 35.7772 30.2551 34.9514 30.4705C34.1437 30.668 33.3359 30.8116 32.5281 30.9731C32.3307 31.009 32.2768 30.9731 32.205 30.7936C32.0614 30.3628 31.9178 29.932 31.8101 29.4832C31.8101 29.4294 31.8101 29.3935 31.7383 29.3755V29.214C31.8101 29.214 31.8819 29.214 31.9537 29.214C32.4384 29.0883 32.923 28.9447 33.4077 28.7831C34.036 28.5857 34.6642 28.3523 35.2925 28.101C36.0823 27.7779 36.8542 27.4189 37.6261 27.024C38.5775 26.5034 39.5109 25.9469 40.3905 25.3187C40.552 25.211 40.552 25.193 40.3905 25.0853C38.0031 23.4159 35.3464 22.1594 32.564 21.3336C32.2948 21.2259 32.0255 21.1541 31.7383 21.1182V20.9926C31.828 20.9926 31.8101 20.8669 31.828 20.8131C31.9537 20.3822 32.0793 19.9694 32.2229 19.5565C32.2768 19.4129 32.3486 19.377 32.4743 19.4129C35.3284 20.0053 38.1108 20.9387 40.7315 22.2132C41.3957 22.5543 42.0599 22.9312 42.6882 23.3262C42.7241 23.3262 42.7779 23.3621 42.7959 23.4159C42.7241 23.5057 42.6523 23.5954 42.5625 23.6672C41.9342 24.1519 41.3598 24.6545 40.6777 25.0853C40.552 25.1751 40.552 25.211 40.6777 25.3007C41.3778 25.7854 42.0599 26.3239 42.7241 26.8804C42.7959 26.9522 42.9036 26.9522 42.9574 26.8804C43.5498 26.4855 44.1242 26.0726 44.6807 25.6238C44.8961 25.4982 45.0756 25.3366 45.2372 25.1571H45.291C45.291 25.211 45.3449 25.2469 45.3987 25.2828C46.1526 25.929 46.8527 26.6111 47.5348 27.3471C47.6964 27.5445 47.858 27.7241 48.0375 27.9036V27.9574C47.9477 27.9933 47.858 28.0651 47.8041 28.1549C47.3015 28.7831 46.7989 29.4653 46.3501 30.1653C46.3142 30.2192 46.2783 30.291 46.2603 30.3628L46.2424 30.3269Z" fill="#5B5B64"/>
<path d="M43.9801 8.84C44.0698 9.27082 44.2134 9.70163 44.3391 10.1324C44.8238 11.7121 45.452 13.2559 46.2239 14.7278C46.7265 15.6792 47.3009 16.6126 47.9113 17.4922C47.9472 17.5461 48.001 17.5999 48.0369 17.6358V17.6897C47.4625 18.4436 46.8881 19.1975 46.2778 19.9335H46.2239C45.8649 19.3411 45.5059 18.7667 45.1648 18.1564C44.5006 16.9537 43.9262 15.6971 43.4595 14.4047C42.9389 12.9327 42.562 11.4249 42.3107 9.89909C42.3107 9.77344 42.3107 9.64778 42.2568 9.54008C42.203 9.43237 42.2568 9.36057 42.4004 9.30672C42.8133 9.16311 43.2261 9.03746 43.657 8.91181C43.7467 8.89385 43.8365 8.8759 43.9083 8.82205L43.9801 8.84Z" fill="#76BFD0"/>
<path d="M52.0756 41.3845C52.0397 41.1152 51.9859 40.8639 51.8961 40.6126C51.1063 37.7764 49.8318 35.1018 48.1444 32.7143C48.1085 32.6784 48.0906 32.6425 48.0547 32.6066V32.5528C48.0906 32.5169 48.1444 32.481 48.1803 32.4271C48.7009 31.6732 49.2574 30.9552 49.8677 30.273C50.2626 30.8475 50.6216 31.4578 50.9627 32.0681C52.309 34.5094 53.2424 37.1661 53.7271 39.9305C53.763 40.1818 53.7989 40.4331 53.8527 40.6844C53.8527 40.8101 53.8527 40.8819 53.7091 40.9178C53.2783 41.0614 52.8655 41.205 52.4167 41.3127C52.3808 41.3127 52.3269 41.3127 52.309 41.3665L52.0756 41.3845Z" fill="#33576A"/>
<path d="M48.002 17.7076V17.6358C48.5225 16.9178 49.0072 16.1639 49.438 15.392C50.5689 13.3815 51.4305 11.2274 52.0229 9.00155C52.0408 8.9477 52.0408 8.89385 52.0229 8.84H52.1845C52.2204 8.92975 52.3101 8.89385 52.3999 8.92975C52.8127 9.0554 53.2435 9.18106 53.6564 9.32466C53.8 9.37852 53.818 9.45032 53.7821 9.57597C53.4948 10.8864 53.1538 12.1788 52.7589 13.4533C52.0767 15.6792 51.1254 17.8153 49.9047 19.7899C49.9047 19.8258 49.8688 19.8976 49.797 19.9155C49.7432 19.8976 49.6893 19.8796 49.6714 19.8258C49.2944 19.3591 48.9174 18.8924 48.5584 18.4256C48.3789 18.1564 48.1994 17.923 48.002 17.7076Z" fill="#96625C"/>
<path d="M48.0375 32.5528V32.6246C47.4092 33.4862 46.8348 34.4017 46.3321 35.3531C45.3269 37.2379 44.5371 39.2125 43.9806 41.2589C43.9806 41.2948 43.9806 41.3307 43.9806 41.3666H43.8191L42.9036 41.0793C42.742 41.0255 42.5805 40.9537 42.4189 40.9178C42.2574 40.8819 42.2394 40.8101 42.2753 40.6485C42.4369 40.0203 42.5805 39.3381 42.76 38.674C43.2626 36.6994 43.9447 34.7787 44.8063 32.9298C45.2372 32.0143 45.7218 31.1347 46.2603 30.291H46.3142C46.4578 30.4885 46.6014 30.6859 46.763 30.8654L48.0375 32.5528Z" fill="#B93248"/>
<path d="M53.207 23.3082C53.5122 23.0749 53.8353 22.8594 54.1764 22.6799C56.7433 21.1541 59.5616 20.095 62.5055 19.5565C62.8465 19.5027 63.1876 19.4488 63.5286 19.395C63.7441 19.3591 63.78 19.395 63.8518 19.5924C64.0133 20.0053 64.121 20.4361 64.2467 20.8849C64.3005 21.1003 64.3005 21.1003 64.0851 21.1541C62.9363 21.4593 61.8054 21.8363 60.7104 22.2671C58.9512 22.9851 57.2639 23.9185 55.7022 25.0135C55.6483 25.0494 55.5945 25.1033 55.5406 25.1571H55.4868C55.4688 25.1212 55.4329 25.1033 55.415 25.0674C55.038 24.7981 54.679 24.5289 54.32 24.2416C53.9071 23.9724 53.5481 23.6493 53.207 23.3082Z" fill="#B93248"/>
<path d="M55.4505 25.1212H55.5043C55.8993 25.4444 56.3301 25.7316 56.7609 25.9829C58.6098 27.1317 60.6023 28.0472 62.6666 28.7114C63.1154 28.855 63.6001 28.9986 64.0488 29.1242C64.2104 29.1601 64.2642 29.2319 64.2104 29.3935C64.0668 29.8602 63.9411 30.3269 63.7796 30.7936C63.7437 30.9014 63.6898 30.9373 63.5462 30.9193C60.8716 30.3808 58.2508 29.5192 55.7736 28.3883C54.9479 27.9754 54.1401 27.5087 53.3503 27.0061C53.3144 27.0061 53.2426 26.9522 53.2246 26.8984C53.2426 26.8625 53.2605 26.8266 53.2964 26.8086C53.5477 26.5932 53.799 26.3778 54.0683 26.1803L55.4505 25.1212Z" fill="#76BFD0"/>
<path d="M49.7966 20.0053C50.03 20.2028 50.2275 20.4182 50.4249 20.6695C51.1609 21.4593 51.9148 22.2132 52.7046 22.9133C52.8483 23.039 52.9919 23.1646 53.1355 23.3082L51.8071 24.2596C51.4481 24.5109 51.125 24.834 50.766 25.0853C50.6403 25.0315 50.5147 24.9417 50.4429 24.834C49.9043 24.3494 49.3658 23.8647 48.8812 23.3262C48.594 23.021 48.3426 22.6979 48.0195 22.3927V22.3568C48.0554 22.3389 48.0913 22.303 48.1272 22.2671C48.7017 21.567 49.2402 20.849 49.7248 20.0951C49.7248 20.113 49.7428 20.0412 49.7966 20.0053Z" fill="#76BFD0"/>
<path d="M48.0742 27.9215V27.8677C48.4871 27.401 48.8999 26.9163 49.3308 26.4675C49.7795 25.9829 50.2642 25.5341 50.7668 25.1212C51.3951 25.6059 51.9875 26.0726 52.6516 26.5214C52.8491 26.6291 53.0286 26.7548 53.1901 26.8984C53.1901 26.9702 53.1004 27.0061 53.0465 27.042C51.9695 27.9754 50.9822 28.9986 50.0488 30.0756L49.9052 30.2372C49.3128 29.4294 48.7204 28.6396 48.0742 27.9215Z" fill="#B93248"/>
<path d="M53.1538 26.9163C52.9922 26.7547 52.8127 26.6291 52.6153 26.5393C51.987 26.1085 51.3587 25.6238 50.7305 25.1392V25.1033C51.1074 24.8519 51.4126 24.5468 51.7716 24.2775L53.1 23.3261H53.1538C53.4769 23.6493 53.8359 23.9544 54.2129 24.2237C54.5719 24.5109 54.9489 24.7801 55.3079 25.0494C55.3438 25.0674 55.3617 25.1033 55.3797 25.1392L53.9975 26.2162C53.7282 26.4316 53.4769 26.6291 53.2256 26.8445C53.1897 26.8624 53.1718 26.8983 53.1538 26.9342V26.9163Z" fill="#542E40"/>
<path d="M49.7972 20.0053C49.7433 20.0053 49.7074 20.0771 49.6895 20.1309C49.2048 20.8849 48.6663 21.6029 48.0918 22.285C48.0559 22.3209 48.02 22.3389 47.9841 22.3748C47.5354 21.8542 47.1225 21.3157 46.7276 20.7592C46.5122 20.5079 46.3506 20.2387 46.207 19.9514C46.8353 19.2155 47.3918 18.4615 47.9662 17.7076C48.1816 17.923 48.3611 18.1743 48.5227 18.4256C48.8817 18.8924 49.2586 19.3591 49.6356 19.8258C49.6715 19.8796 49.7074 19.9155 49.7613 19.9155L49.7972 20.0053Z" fill="#404A4C"/>
<path d="M48.0724 27.9215C48.7186 28.6575 49.311 29.4473 49.8495 30.2551C49.2571 30.9372 48.6827 31.6553 48.1622 32.4092C48.1263 32.4451 48.0904 32.499 48.0365 32.5349L46.7261 30.8654C46.5646 30.6859 46.403 30.4885 46.2773 30.291C46.2953 30.2192 46.3312 30.1474 46.3671 30.0936C46.8159 29.3935 47.3185 28.7473 47.8211 28.0831C47.8929 28.0113 47.9647 27.9395 48.0724 27.9215Z" fill="#2B1D24"/>
<path d="M46.2419 19.9514C46.3676 20.2387 46.5471 20.5079 46.7625 20.7592C47.1574 21.3157 47.5703 21.8542 48.019 22.3748V22.4107L47.9831 22.4466C47.1753 23.4159 46.2778 24.2955 45.3264 25.1212H45.2546C44.9315 24.8161 44.5725 24.5648 44.2135 24.2955C43.8545 24.0262 43.316 23.6672 42.8672 23.3621C43.316 22.9492 43.7647 22.5363 44.2135 22.1055C44.8777 21.4773 45.5239 20.7772 46.1342 20.0771C46.1522 20.0412 46.1701 20.0053 46.1881 19.9694L46.2419 19.9514Z" fill="#96625C"/>
<path d="M42.8675 23.3441C43.2983 23.6672 43.7829 23.9724 44.2138 24.2775C44.6446 24.5827 44.9138 24.7981 45.2549 25.1033C45.1113 25.3007 44.9138 25.4623 44.7164 25.5879C44.1599 26.0367 43.5855 26.4496 42.9931 26.8445C42.9213 26.9163 42.8136 26.9163 42.7598 26.8445C42.1135 26.2701 41.4314 25.7495 40.7134 25.2469C40.5877 25.1571 40.5877 25.1033 40.7134 25.0315C41.3417 24.6007 41.9699 24.0801 42.5982 23.6134C42.688 23.5416 42.7777 23.4518 42.8316 23.3621L42.8675 23.3441Z" fill="#252629"/>
<path d="M38.2177 49.9111C38.2177 54.2192 35.5969 56.84 31.7555 56.84C27.8422 56.84 25.5625 53.8961 25.5625 50.1444C25.5625 46.1953 28.0756 43.2514 31.9709 43.2514C36.0098 43.2514 38.2177 46.285 38.2177 49.9111ZM28.7039 50.0906C28.7039 52.6755 29.9066 54.4885 31.8991 54.4885C33.9095 54.4885 35.0584 52.5678 35.0584 50.0188C35.0584 47.6493 33.9275 45.6209 31.8811 45.6209C29.8707 45.6209 28.7039 47.5416 28.7039 50.0906Z" fill="#3E505B"/>
<path d="M42.1671 45.9619H38.6309V43.4668H48.755V45.9619H45.1649V56.6246H42.1671V45.9619Z" fill="#3E505B"/>
<path d="M50.3164 43.6463C51.2678 43.4847 52.7038 43.377 54.2835 43.377C56.2401 43.377 57.6044 43.6643 58.5378 44.4182C59.3276 45.0465 59.7405 45.9619 59.7405 47.1646C59.7405 48.852 58.5557 50.0008 57.4249 50.4137V50.4675C58.3403 50.8445 58.843 51.7241 59.184 52.9268C59.5969 54.4167 60.0098 56.122 60.2611 56.6426H57.2095C56.994 56.2656 56.6889 55.1886 56.294 53.573C55.935 51.9395 55.3785 51.4907 54.1578 51.4728H53.2603V56.6426H50.3164V43.6463ZM53.2783 49.3187H54.4451C55.935 49.3187 56.8145 48.5827 56.8145 47.4159C56.8145 46.2132 55.9888 45.6029 54.6246 45.585C53.9065 45.585 53.4937 45.6388 53.2783 45.6747V49.3187Z" fill="#3E505B"/>
<path d="M62.0013 53.573C62.8091 53.9858 64.0297 54.3987 65.3042 54.3987C66.6685 54.3987 67.3865 53.8243 67.3865 52.9806C67.3865 52.1549 66.7582 51.6882 65.1786 51.1317C62.9886 50.3778 61.5705 49.1571 61.5705 47.2544C61.5705 45.0105 63.4374 43.2873 66.5428 43.2873C68.0327 43.2873 69.1277 43.5924 69.8996 43.9514L69.2354 46.3568C68.7149 46.1055 67.7635 45.7285 66.489 45.7285C65.1965 45.7285 64.5683 46.3209 64.5683 47.003C64.5683 47.8467 65.3042 48.2057 67.0095 48.852C69.3252 49.7136 70.4202 50.9163 70.4202 52.7832C70.4202 54.9911 68.7149 56.8579 65.1068 56.8579C63.5989 56.8579 62.127 56.463 61.373 56.0502L62.0013 53.573Z" fill="#3E505B"/>
</g>
</g>
<defs>
<clipPath id="clip0_6744_64772">
<rect width="72" height="48" fill="white" transform="translate(12 8.84)"/>
</clipPath>
<clipPath id="clip1_6744_64772">
<rect width="44.8766" height="48" fill="white" transform="translate(25.5625 8.84)"/>
</clipPath>
</defs>
</svg>
