<svg width="96" height="65" viewBox="0 0 96 65" fill="none" xmlns="http://www.w3.org/2000/svg">
<rect width="96" height="64" transform="translate(0 0.839996)" fill="white"/>
<g clip-path="url(#clip0_6744_64751)">
<path d="M12 34.6937H15.1574L15.3829 31.9872L12.4509 31.3108L12 34.6937Z" fill="#4C4C4C"/>
<path d="M12.5645 30.8596L15.3835 31.5361L16.0601 29.1681L13.6921 27.9279L12.5645 30.8596Z" fill="#4C4C4C"/>
<path d="M13.916 27.4766L16.1713 28.717L17.9757 27.4766L16.2842 25.5597L13.916 27.4766Z" fill="#4C4C4C"/>
<path d="M26.547 34.6937H23.3898L23.1641 31.9872L26.0961 31.3108L26.547 34.6937Z" fill="#4C4C4C"/>
<path d="M25.9818 30.8596L23.1627 31.5361L22.4863 29.1681L24.8542 27.9279L25.9818 30.8596Z" fill="#4C4C4C"/>
<path d="M24.6296 27.4766L22.3743 28.717L20.5703 27.4766L22.2618 25.5597L24.6296 27.4766Z" fill="#4C4C4C"/>
<path d="M16.8496 25.2213L18.5411 27.2511H20.1196L21.5857 25.2213L20.1196 24.7703H18.5014L16.8496 25.2213Z" fill="#4C4C4C"/>
<path d="M12 34.6937H15.1574L15.3829 31.9872L12.4509 31.3108L12 34.6937Z" fill="#9C0000"/>
<path d="M12.5645 30.8596L15.3835 31.5361L16.0601 29.1681L13.6921 27.9279L12.5645 30.8596Z" fill="#B50808"/>
<path d="M13.916 27.4766L16.1713 28.717L17.9757 27.4766L16.2842 25.5597L13.916 27.4766Z" fill="#C61818"/>
<path d="M26.547 34.6937H23.3898L23.1641 31.9872L26.0961 31.3108L26.547 34.6937Z" fill="#9C0000"/>
<path d="M25.9818 30.8596L23.1627 31.5361L22.4863 29.1681L24.8542 27.9279L25.9818 30.8596Z" fill="#B50808"/>
<path d="M24.6296 27.4766L22.3743 28.717L20.5703 27.4766L22.2618 25.5597L24.6296 27.4766Z" fill="#C61818"/>
<path d="M16.8496 25.2213L18.5411 27.2511H20.1196L21.5857 25.2213L20.1196 24.7703H18.5014L16.8496 25.2213Z" fill="#CE3129"/>
<path d="M30.3984 27.5847V34.6888H31.6247V32.1516L33.9364 34.6888H35.0405V34.1908L33.0249 32.0952C33.5502 32.0288 33.9646 31.7741 34.27 31.3341C34.5754 30.8941 34.7333 30.397 34.7398 29.84C34.7497 29.1935 34.5411 28.6588 34.1196 28.2378C33.6982 27.8168 33.0047 27.5997 32.0335 27.5847H30.3984ZM36.0695 27.5847V34.6888H40.0162V33.5706H37.2958V31.5408H39.2927V30.4367H37.2958V28.6794H39.9035V27.5847H36.0695ZM41.2003 27.5847V34.6888H43.23C43.8959 34.6777 44.4325 34.5028 44.8369 34.1626C45.2413 33.8223 45.5341 33.3827 45.7155 32.847C45.8969 32.3113 45.9818 31.7436 45.9786 31.1461C45.9837 30.5555 45.9091 29.9944 45.7484 29.4547C45.5877 28.915 45.3137 28.4718 44.9262 28.125C44.5387 27.7782 44.0039 27.5965 43.3287 27.5847H41.2003ZM31.6247 28.6465H32.0335C32.5431 28.6501 32.9105 28.7534 33.1424 28.9613C33.3742 29.1693 33.4889 29.4606 33.4853 29.8306C33.4846 30.2144 33.385 30.5396 33.1799 30.8079C32.9749 31.0761 32.6694 31.2143 32.2684 31.226C32.1134 31.2199 31.9687 31.1983 31.8362 31.1555C31.7037 31.1128 31.6332 31.0865 31.6247 31.0804V28.6465ZM42.4172 28.6465H43.2864C43.7161 28.6596 44.0357 28.8053 44.2449 29.0835C44.4541 29.3617 44.5898 29.6924 44.6537 30.0796C44.7176 30.4668 44.7445 30.8296 44.7382 31.1696C44.7438 31.5195 44.7125 31.884 44.6396 32.2597C44.5666 32.6354 44.4209 32.9552 44.2026 33.2182C43.9843 33.4812 43.6605 33.6154 43.23 33.6269H42.4172V28.6465Z" fill="#9C0000"/>
<path d="M47.4355 27.5847V34.6888H48.6666V30.775L48.5726 29.9527L50.2218 34.6888H51.2366L52.8811 29.9527L52.7918 30.775V34.6888H54.0228V27.5847H52.5757L50.8842 32.4006C50.8283 32.57 50.7917 32.7147 50.7668 32.8376C50.7419 32.9605 50.7287 33.0244 50.7292 33.0302C50.7296 33.0251 50.7165 32.963 50.6916 32.8423C50.6667 32.7215 50.6253 32.575 50.5694 32.4006L48.878 27.5847H47.4355ZM55.6438 27.5847V34.6888H56.8607V27.5847H55.6438ZM58.43 27.5847V34.6888H59.661V30.6528C59.6577 30.4066 59.6418 30.1886 59.6187 30.0044C59.5957 29.8202 59.5844 29.7272 59.5811 29.7178L61.8223 34.6888H63.0063V27.5847H61.78C61.78 28.7049 61.78 29.5425 61.78 30.0984C61.78 30.6542 61.78 31.0429 61.78 31.2589C61.78 31.4749 61.78 31.6329 61.78 31.7335C61.78 31.834 61.78 31.989 61.78 32.1986C61.7777 32.1812 61.7429 32.06 61.6814 31.8368C61.6198 31.6136 61.5437 31.39 61.4511 31.1696L59.8725 27.5847H58.43ZM64.6555 27.5847V34.6888H68.6022V33.5706H65.8818V31.5408H67.8787V30.4367H65.8818V28.6794H68.4895V27.5847H64.6555Z" fill="#CE3129"/>
<path d="M31.6199 36.6575C31.6091 36.6534 31.5347 36.6635 31.3944 36.6904C31.2541 36.7172 31.1118 36.7851 30.9715 36.8924C30.8313 36.9997 30.7568 37.1722 30.746 37.4092V37.6723H30.4453V38.0247L30.746 38.0764V39.9746H31.2394V38.0858H31.6669V37.6723H31.2394V37.4327C31.2451 37.3048 31.2869 37.2107 31.3615 37.1508C31.4362 37.0909 31.5077 37.0546 31.5823 37.038C31.657 37.0215 31.6988 37.0125 31.7045 37.0146L31.6199 36.6575ZM32.0146 36.7092V39.0114C32.0171 39.2797 32.0315 39.4908 32.0616 39.6457C32.0916 39.8007 32.1226 39.9107 32.1509 39.9746H32.6583C32.6064 39.8041 32.5681 39.6483 32.5408 39.5048C32.5136 39.3613 32.4987 39.196 32.4986 39.0114V36.7092H32.0146ZM38.522 36.7092V39.7397C38.6405 39.8305 38.7712 39.9049 38.912 39.9605C39.0527 40.0161 39.1976 40.0435 39.349 40.0451C39.5978 40.0399 39.7965 39.9706 39.941 39.8337C40.0854 39.6967 40.1855 39.5232 40.2464 39.3168C40.3073 39.1105 40.3374 38.9007 40.3356 38.6872C40.3367 38.4159 40.2682 38.1692 40.1289 37.9496C39.9896 37.7299 39.7731 37.6148 39.4805 37.6019C39.3998 37.6045 39.314 37.6292 39.2268 37.677C39.1396 37.7249 39.0703 37.7801 39.0154 37.8415V36.7092H38.522ZM40.8102 36.7092V39.0114C40.8126 39.2797 40.8271 39.4908 40.8572 39.6457C40.8872 39.8007 40.9182 39.9107 40.9464 39.9746H41.4539C41.402 39.8041 41.3636 39.6483 41.3364 39.5048C41.3092 39.3613 41.2943 39.196 41.2941 39.0114V36.7092H40.8102ZM37.6105 36.7796C37.5206 36.782 37.445 36.8125 37.3803 36.8736C37.3156 36.9347 37.28 37.0122 37.2769 37.1038C37.2795 37.1924 37.3108 37.2649 37.3709 37.32C37.431 37.3751 37.5046 37.4029 37.5917 37.4045C37.6817 37.4022 37.7572 37.3716 37.8219 37.3106C37.8866 37.2495 37.9223 37.172 37.9253 37.0803C37.9228 36.9918 37.8914 36.9193 37.8313 36.8642C37.7712 36.8091 37.6976 36.7813 37.6105 36.7796ZM52.0396 36.7796C51.9496 36.782 51.8741 36.8125 51.8094 36.8736C51.7446 36.9347 51.709 37.0122 51.706 37.1038C51.7085 37.1924 51.7399 37.2649 51.8 37.32C51.8601 37.3751 51.9337 37.4029 52.0208 37.4045C52.1107 37.4022 52.1863 37.3716 52.251 37.3106C52.3157 37.2495 52.3513 37.172 52.3544 37.0803C52.3518 36.9918 52.3205 36.9193 52.2604 36.8642C52.2003 36.8091 52.1267 36.7813 52.0396 36.7796ZM57.1327 37.2589V37.6723H56.8179V38.0247L57.1139 38.0764V39.4672C57.1121 39.6269 57.1493 39.7608 57.222 39.8712C57.2947 39.9817 57.4142 40.0404 57.5838 40.0451C57.6928 40.0454 57.7813 40.0348 57.8469 40.0122C57.9125 39.9896 57.9916 39.9532 58.0865 39.9041L57.9691 39.5564C57.9656 39.559 57.9402 39.5715 57.8892 39.5893C57.8382 39.6071 57.7822 39.615 57.7248 39.6175C57.6705 39.6154 57.6392 39.5997 57.6261 39.5658C57.613 39.532 57.6051 39.4928 57.6073 39.4531V38.0905H58.0161V37.6723H57.5979V37.2589H57.1327ZM83.0449 37.2589V37.6723H82.7301V38.0247L83.0261 38.0764V39.4672C83.0243 39.6269 83.0615 39.7608 83.1342 39.8712C83.2069 39.9817 83.3263 40.0404 83.496 40.0451C83.605 40.0454 83.6935 40.0348 83.7591 40.0122C83.8247 39.9896 83.9038 39.9532 83.9987 39.9041L83.8813 39.5564C83.8778 39.559 83.8524 39.5715 83.8014 39.5893C83.7504 39.6071 83.6944 39.615 83.6369 39.6175C83.5827 39.6154 83.5514 39.5997 83.5383 39.5658C83.5252 39.532 83.5173 39.4928 83.5195 39.4531V38.0905H83.9282V37.6723H83.5101V37.2589H83.0449ZM34.0444 37.6019C33.725 37.614 33.4763 37.7377 33.302 37.9683C33.1277 38.199 33.0411 38.4637 33.0389 38.7671C33.0374 38.9663 33.0658 39.1648 33.1235 39.3591C33.1811 39.5534 33.2751 39.7135 33.4101 39.843C33.545 39.9726 33.7295 40.0401 33.9598 40.0451C34.0959 40.041 34.2389 40.0034 34.3873 39.9323C34.5358 39.8613 34.6623 39.7814 34.7679 39.6927L34.6035 39.3732C34.5203 39.4372 34.4247 39.4959 34.3122 39.547C34.1996 39.5981 34.09 39.624 33.988 39.6269C33.8212 39.6122 33.7037 39.523 33.6356 39.3544C33.5675 39.1858 33.5346 39.0261 33.5369 38.8799C33.5362 38.8517 33.5377 38.8235 33.5416 38.7953H34.8854C34.8852 38.7436 34.8867 38.6919 34.8854 38.6402C34.884 38.5886 34.8809 38.5369 34.8807 38.4852C34.8682 38.2572 34.7828 38.0548 34.627 37.8791C34.4711 37.7034 34.2777 37.6114 34.0444 37.6019ZM42.8399 37.6019C42.5205 37.614 42.2719 37.7377 42.0976 37.9683C41.9232 38.199 41.8367 38.4637 41.8345 38.7671C41.833 38.9663 41.8614 39.1648 41.919 39.3591C41.9767 39.5534 42.0707 39.7135 42.2056 39.843C42.3406 39.9726 42.5251 40.0401 42.7554 40.0451C42.8915 40.041 43.0344 40.0034 43.1829 39.9323C43.3314 39.8613 43.4579 39.7814 43.5635 39.6927L43.3991 39.3732C43.3158 39.4372 43.2203 39.4959 43.1077 39.547C42.9952 39.5981 42.8855 39.624 42.7836 39.6269C42.6168 39.6122 42.4993 39.523 42.4312 39.3544C42.363 39.1858 42.3301 39.0261 42.3325 38.8799C42.3317 38.8517 42.3332 38.8235 42.3372 38.7953H43.681C43.6808 38.7436 43.6823 38.6919 43.681 38.6402C43.6796 38.5886 43.6764 38.5369 43.6763 38.4852C43.6637 38.2572 43.5784 38.0548 43.4225 37.8791C43.2667 37.7034 43.0733 37.6114 42.8399 37.6019ZM46.6222 37.6019C46.4892 37.6083 46.3776 37.6412 46.2886 37.7005C46.1996 37.7599 46.1421 37.8068 46.1148 37.8415V37.6723H45.6167V40.7968H46.1148V39.8102C46.1618 39.8919 46.2299 39.951 46.3168 39.9887C46.4037 40.0264 46.4954 40.0456 46.594 40.0451C46.8298 40.0392 47.0105 39.9685 47.1391 39.829C47.2676 39.6894 47.3577 39.5143 47.4069 39.3121C47.4561 39.1099 47.4797 38.914 47.4773 38.7201C47.4784 38.4495 47.4099 38.1985 47.2706 37.9683C47.1313 37.7382 46.9148 37.6165 46.6222 37.6019ZM48.8775 37.6019C48.7968 37.6119 48.7185 37.6541 48.6426 37.724C48.5666 37.7939 48.5259 37.8315 48.5204 37.8415V37.6723H48.0224V39.9746H48.5157V38.2597C48.5204 38.251 48.5556 38.2166 48.6191 38.1563C48.6825 38.096 48.7459 38.0615 48.8117 38.0529C48.872 38.0565 48.93 38.0705 48.9856 38.0952C49.0412 38.1199 49.0709 38.134 49.0748 38.1375L49.1547 37.6723C49.1543 37.6694 49.1316 37.66 49.0842 37.6395C49.0368 37.6189 48.9672 37.6048 48.8775 37.6019ZM50.3246 37.6019C50.008 37.6169 49.7703 37.7477 49.6152 37.9965C49.46 38.2454 49.3844 38.5218 49.3849 38.8235C49.3845 39.1272 49.46 39.4025 49.6152 39.6504C49.7703 39.8984 50.008 40.0303 50.3246 40.0451C50.6413 40.0303 50.879 39.8984 51.0341 39.6504C51.1892 39.4025 51.2648 39.1272 51.2643 38.8235C51.2648 38.5218 51.1892 38.2454 51.0341 37.9965C50.879 37.7477 50.6413 37.6169 50.3246 37.6019ZM53.7968 37.6019C53.4774 37.614 53.2288 37.7377 53.0545 37.9683C52.8801 38.199 52.7936 38.4637 52.7913 38.7671C52.7898 38.9663 52.8183 39.1648 52.8759 39.3591C52.9336 39.5534 53.0276 39.7135 53.1625 39.843C53.2974 39.9726 53.482 40.0401 53.7122 40.0451C53.8484 40.041 53.9913 40.0034 54.1398 39.9323C54.2883 39.8613 54.4148 39.7814 54.5204 39.6927L54.3559 39.3732C54.2727 39.4372 54.1772 39.4959 54.0646 39.547C53.9521 39.5981 53.8424 39.624 53.7404 39.6269C53.5736 39.6122 53.4562 39.523 53.388 39.3544C53.3199 39.1858 53.287 39.0261 53.2894 38.8799C53.2886 38.8517 53.2901 38.8235 53.2941 38.7953H54.6378C54.6377 38.7436 54.6392 38.6919 54.6378 38.6402C54.6365 38.5886 54.6333 38.5369 54.6331 38.4852C54.6206 38.2572 54.5353 38.0548 54.3794 37.8791C54.2236 37.7034 54.0302 37.6114 53.7968 37.6019ZM55.9487 37.6019C55.7299 37.6067 55.5485 37.6731 55.4084 37.7992C55.2683 37.9253 55.1653 38.0845 55.0983 38.2738C55.0312 38.4631 54.9992 38.6526 54.9996 38.847C54.9995 39.0348 55.0345 39.2193 55.103 39.4014C55.1714 39.5835 55.2747 39.7361 55.4131 39.8571C55.5515 39.9782 55.7249 40.0405 55.9346 40.0451C56.0648 40.0428 56.1956 40.0103 56.3293 39.9511C56.463 39.8919 56.5797 39.8195 56.677 39.7303L56.5078 39.392C56.4366 39.4491 56.3536 39.5035 56.2541 39.5517C56.1547 39.6 56.0576 39.6239 55.9675 39.6269C55.8478 39.6218 55.7551 39.5733 55.6856 39.4766C55.6161 39.3798 55.5645 39.2659 55.5353 39.1383C55.506 39.0107 55.4921 38.8975 55.493 38.8C55.4925 38.7075 55.5087 38.6015 55.54 38.4805C55.5712 38.3594 55.6225 38.2528 55.6903 38.161C55.7581 38.0692 55.8442 38.0202 55.9534 38.0153C56.026 38.0161 56.1023 38.0333 56.1789 38.0623C56.2556 38.0913 56.3202 38.1273 56.3763 38.1751L56.6253 37.8838C56.5457 37.7898 56.4412 37.7193 56.3152 37.6723C56.1892 37.6254 56.0682 37.6019 55.9487 37.6019ZM61.0137 37.6019C60.913 37.6067 60.8061 37.6376 60.6895 37.6911C60.5729 37.7447 60.4872 37.7921 60.4358 37.8368V37.6723H59.9424V39.9746H60.4358V38.2831C60.4822 38.2438 60.5597 38.1945 60.6707 38.1328C60.7817 38.0711 60.8874 38.0359 60.9855 38.0294C61.0638 38.031 61.1163 38.0608 61.1453 38.114C61.1742 38.1673 61.1891 38.2346 61.1875 38.3207V39.9746H61.6809V38.2409C61.7338 38.1992 61.8024 38.1569 61.8876 38.1093C61.9729 38.0617 62.0672 38.0335 62.1695 38.0294C62.2478 38.0282 62.3003 38.0471 62.3293 38.0811C62.3582 38.1152 62.3731 38.1716 62.3716 38.255V39.9746H62.8649V38.255C62.8697 38.0695 62.8254 37.9172 62.7286 37.7945C62.6318 37.6719 62.4537 37.6065 62.1977 37.6019C62.0793 37.6076 61.9626 37.6425 61.8453 37.7052C61.7281 37.768 61.6302 37.824 61.554 37.8744C61.5048 37.8075 61.437 37.7468 61.3473 37.6911C61.2575 37.6354 61.1452 37.6053 61.0137 37.6019ZM64.3073 37.6019C64.1559 37.6048 64.0059 37.6471 63.861 37.724C63.716 37.801 63.5966 37.8949 63.4992 38.0106L63.6683 38.3066C63.744 38.2332 63.8376 38.1698 63.9456 38.114C64.0535 38.0582 64.1588 38.0277 64.2651 38.0247C64.3463 38.0232 64.4129 38.0381 64.4624 38.0717C64.5119 38.1054 64.5362 38.1673 64.5376 38.255V38.4852L63.5274 38.9221C63.4927 38.9879 63.4622 39.0631 63.4334 39.1477C63.4046 39.2322 63.3882 39.3121 63.3864 39.3873C63.3863 39.5935 63.4376 39.756 63.5415 39.8712C63.6453 39.9864 63.8024 40.0432 64.0113 40.0451C64.144 40.0445 64.2563 40.014 64.3496 39.9558C64.4429 39.8977 64.5247 39.8154 64.5939 39.7068C64.6145 39.8111 64.6615 39.8926 64.7349 39.9511C64.8083 40.0096 64.8976 40.0394 65.0027 40.0404C65.0618 40.0401 65.1198 40.0295 65.1766 40.0122C65.2333 39.9949 65.2866 39.9726 65.3363 39.9417L65.2094 39.6927C65.1953 39.7 65.1813 39.7059 65.1672 39.7115C65.1531 39.7171 65.139 39.7206 65.1249 39.7209C65.0903 39.7193 65.0672 39.7084 65.0544 39.6833C65.0416 39.6582 65.0349 39.6285 65.0356 39.5987V38.2597C65.0317 38.0349 64.962 37.8689 64.8289 37.7616C64.6957 37.6543 64.5227 37.6011 64.3073 37.6019ZM66.8727 37.6019C66.7678 37.6042 66.6558 37.6301 66.5391 37.677C66.4224 37.724 66.3246 37.7781 66.2431 37.8415V37.6723H65.7498V39.9746H66.2431V38.2738C66.3034 38.2245 66.3896 38.1732 66.4968 38.1187C66.6041 38.0642 66.7091 38.034 66.8163 38.0294C66.8918 38.0284 66.9423 38.048 66.9667 38.0858C66.9911 38.1236 67.0016 38.1855 66.9996 38.2738V39.9746H67.4929V38.2738C67.5 38.0916 67.4624 37.9338 67.3802 37.8039C67.2979 37.674 67.1288 37.6078 66.8727 37.6019ZM68.9354 37.6019C68.7839 37.6048 68.634 37.6471 68.489 37.724C68.344 37.801 68.2246 37.8949 68.1272 38.0106L68.2964 38.3066C68.372 38.2332 68.4656 38.1698 68.5736 38.114C68.6815 38.0582 68.7869 38.0277 68.8931 38.0247C68.9743 38.0232 69.0409 38.0381 69.0904 38.0717C69.1399 38.1054 69.1642 38.1673 69.1656 38.255V38.4852L68.1554 38.9221C68.1208 38.9879 68.0902 39.0631 68.0614 39.1477C68.0327 39.2322 68.0162 39.3121 68.0144 39.3873C68.0144 39.5935 68.0656 39.756 68.1695 39.8712C68.2734 39.9864 68.4304 40.0432 68.6393 40.0451C68.772 40.0445 68.8844 40.014 68.9776 39.9558C69.0709 39.8977 69.1528 39.8154 69.222 39.7068C69.2425 39.8111 69.2895 39.8926 69.3629 39.9511C69.4363 40.0096 69.5256 40.0394 69.6307 40.0404C69.6898 40.0401 69.7478 40.0295 69.8046 40.0122C69.8613 39.9949 69.9146 39.9726 69.9643 39.9417L69.8375 39.6927C69.8234 39.7 69.8093 39.7059 69.7952 39.7115C69.7811 39.7171 69.767 39.7206 69.7529 39.7209C69.7183 39.7193 69.6952 39.7084 69.6824 39.6833C69.6696 39.6582 69.6629 39.6285 69.6636 39.5987V38.2597C69.6597 38.0349 69.59 37.8689 69.4569 37.7616C69.3238 37.6543 69.1507 37.6011 68.9354 37.6019ZM71.0967 37.6019C70.8441 37.6049 70.6444 37.6805 70.4953 37.8274C70.3461 37.9743 70.2685 38.1744 70.265 38.4288C70.2644 38.5654 70.295 38.6986 70.359 38.8282C70.423 38.9578 70.524 39.0533 70.6597 39.1148C70.574 39.1457 70.4993 39.1919 70.4342 39.2557C70.3691 39.3196 70.3342 39.3987 70.3308 39.4907C70.3335 39.5733 70.361 39.6477 70.4154 39.7115C70.4698 39.7753 70.5348 39.8121 70.608 39.8243C70.5143 39.8626 70.4215 39.9245 70.3308 40.0075C70.2401 40.0905 70.1919 40.19 70.1852 40.3082C70.1954 40.5283 70.2859 40.683 70.453 40.7733C70.6201 40.8637 70.8021 40.9079 71.0027 40.9049C71.2642 40.9039 71.4999 40.8295 71.7122 40.6841C71.9244 40.5386 72.0379 40.328 72.0505 40.0498C72.0455 39.8801 71.9856 39.7532 71.8719 39.6645C71.7583 39.5758 71.6208 39.5288 71.4584 39.5282H71.3081C71.2408 39.5325 71.1457 39.5352 71.0262 39.5329C70.9067 39.5307 70.8421 39.4982 70.8288 39.439C70.8359 39.3635 70.8735 39.313 70.9416 39.2839C71.0097 39.2549 71.0661 39.2349 71.1108 39.2275C71.1388 39.2208 71.1643 39.2173 71.1906 39.2134C71.217 39.2096 71.2448 39.2038 71.2705 39.1994C71.4619 39.1508 71.6095 39.0623 71.7122 38.9315C71.8148 38.8008 71.8661 38.6371 71.8672 38.4429C71.8665 38.3838 71.8614 38.3235 71.8484 38.2644C71.8354 38.2052 71.8186 38.1496 71.8014 38.0952H72.0692V37.6723H71.4819C71.4227 37.6468 71.3597 37.6268 71.294 37.616C71.2283 37.6051 71.1629 37.6016 71.0967 37.6019ZM73.3707 37.6019C73.0513 37.614 72.8027 37.7377 72.6284 37.9683C72.454 38.199 72.3675 38.4637 72.3653 38.7671C72.3637 38.9663 72.3922 39.1648 72.4498 39.3591C72.5075 39.5534 72.6015 39.7135 72.7364 39.843C72.8714 39.9726 73.0559 40.0401 73.2862 40.0451C73.4223 40.041 73.5652 40.0034 73.7137 39.9323C73.8622 39.8613 73.9887 39.7814 74.0943 39.6927L73.9298 39.3732C73.8466 39.4372 73.7511 39.4959 73.6385 39.547C73.526 39.5981 73.4163 39.624 73.3143 39.6269C73.1476 39.6122 73.0301 39.523 72.962 39.3544C72.8938 39.1858 72.8609 39.0261 72.8633 38.8799C72.8625 38.8517 72.864 38.8235 72.868 38.7953H74.2117C74.2116 38.7436 74.2131 38.6919 74.2117 38.6402C74.2104 38.5886 74.2073 38.5369 74.2071 38.4852C74.1945 38.2572 74.1092 38.0548 73.9533 37.8791C73.7975 37.7034 73.6041 37.6114 73.3707 37.6019ZM75.8045 37.6019C75.7038 37.6067 75.5969 37.6376 75.4804 37.6911C75.3638 37.7447 75.278 37.7921 75.2266 37.8368V37.6723H74.7333V39.9746H75.2266V38.2831C75.273 38.2438 75.3506 38.1945 75.4616 38.1328C75.5726 38.0711 75.6783 38.0359 75.7764 38.0294C75.8547 38.031 75.9071 38.0608 75.9361 38.114C75.9651 38.1673 75.98 38.2346 75.9784 38.3207V39.9746H76.4717V38.2409C76.5247 38.1992 76.5932 38.1569 76.6785 38.1093C76.7637 38.0617 76.8581 38.0335 76.9604 38.0294C77.0387 38.0282 77.0911 38.0471 77.1201 38.0811C77.1491 38.1152 77.164 38.1716 77.1624 38.255V39.9746H77.6558V38.255C77.6605 38.0695 77.6163 37.9172 77.5195 37.7945C77.4227 37.6719 77.2445 37.6065 76.9886 37.6019C76.8701 37.6076 76.7534 37.6425 76.6362 37.7052C76.5189 37.768 76.421 37.824 76.3449 37.8744C76.2956 37.8075 76.2279 37.7468 76.1381 37.6911C76.0484 37.6354 75.936 37.6053 75.8045 37.6019ZM79.2063 37.6019C78.8869 37.614 78.6382 37.7377 78.4639 37.9683C78.2896 38.199 78.203 38.4637 78.2008 38.7671C78.1993 38.9663 78.2277 39.1648 78.2853 39.3591C78.343 39.5534 78.437 39.7135 78.572 39.843C78.7069 39.9726 78.8914 40.0401 79.1217 40.0451C79.2578 40.041 79.4008 40.0034 79.5492 39.9323C79.6977 39.8613 79.8242 39.7814 79.9298 39.6927L79.7654 39.3732C79.6822 39.4372 79.5866 39.4959 79.4741 39.547C79.3615 39.5981 79.2519 39.624 79.1499 39.6269C78.9831 39.6122 78.8656 39.523 78.7975 39.3544C78.7294 39.1858 78.6965 39.0261 78.6988 38.8799C78.6981 38.8517 78.6996 38.8235 78.7035 38.7953H80.0473C80.0471 38.7436 80.0486 38.6919 80.0473 38.6402C80.0459 38.5886 80.0428 38.5369 80.0426 38.4852C80.0301 38.2572 79.9447 38.0548 79.7889 37.8791C79.633 37.7034 79.4396 37.6114 79.2063 37.6019ZM81.6871 37.6019C81.5821 37.6042 81.4701 37.6301 81.3535 37.677C81.2368 37.724 81.1389 37.7781 81.0575 37.8415V37.6723H80.5641V39.9746H81.0575V38.2738C81.1178 38.2245 81.2039 38.1732 81.3112 38.1187C81.4185 38.0642 81.5234 38.034 81.6307 38.0294C81.7061 38.0284 81.7567 38.048 81.781 38.0858C81.8054 38.1236 81.816 38.1855 81.8139 38.2738V39.9746H82.3073V38.2738C82.3143 38.0916 82.2767 37.9338 82.1945 37.8039C82.1123 37.674 81.9431 37.6078 81.6871 37.6019ZM35.1391 37.6723L35.764 38.7859L35.0968 39.9746H35.6371L36.0365 39.1947L36.45 39.9746H37.0138L36.309 38.7577C36.3389 38.7073 36.4027 38.5961 36.5017 38.4241C36.6007 38.2521 36.6971 38.085 36.7883 37.9261C36.8794 37.7671 36.9275 37.6836 36.9339 37.6723H36.3936L36.0412 38.363L35.6935 37.6723H35.1391ZM37.3568 37.6723V39.9746H37.8407V37.6723H37.3568ZM51.7906 37.6723V40.1438C51.7869 40.2428 51.7537 40.3266 51.6872 40.3928C51.6207 40.4589 51.5428 40.5051 51.457 40.5337L51.5603 40.8861C51.7134 40.8461 51.87 40.7752 52.0255 40.67C52.1809 40.5648 52.2624 40.3976 52.2745 40.1719V37.6723H51.7906ZM71.0685 37.959C71.1909 37.9648 71.2743 38.0165 71.3222 38.1093C71.3701 38.2021 71.3947 38.3008 71.3927 38.41C71.3948 38.5162 71.3729 38.6145 71.3269 38.7013C71.2809 38.7881 71.1979 38.8324 71.0779 38.8376C70.9429 38.8331 70.854 38.7869 70.8101 38.6966C70.7661 38.6064 70.7453 38.4991 70.749 38.3771C70.747 38.2693 70.7721 38.1737 70.8194 38.0905C70.8668 38.0073 70.9483 37.9635 71.0685 37.959ZM34.0115 37.9683C34.131 37.9723 34.2214 38.0138 34.284 38.0952C34.3465 38.1766 34.3829 38.2745 34.392 38.3865H33.6074C33.6319 38.2766 33.6757 38.1822 33.739 38.0999C33.8022 38.0176 33.893 37.9726 34.0115 37.9683ZM42.807 37.9683C42.9266 37.9723 43.017 38.0138 43.0796 38.0952C43.1421 38.1766 43.1785 38.2745 43.1876 38.3865H42.403C42.4274 38.2766 42.4713 38.1822 42.5345 38.0999C42.5978 38.0176 42.6886 37.9726 42.807 37.9683ZM53.7639 37.9683C53.8834 37.9723 53.9739 38.0138 54.0364 38.0952C54.099 38.1766 54.1354 38.2745 54.1445 38.3865H53.3599C53.3843 38.2766 53.4282 38.1822 53.4914 38.0999C53.5546 38.0176 53.6455 37.9726 53.7639 37.9683ZM73.3378 37.9683C73.4574 37.9723 73.5478 38.0138 73.6104 38.0952C73.6729 38.1766 73.7093 38.2745 73.7184 38.3865H72.9338C72.9582 38.2766 73.0021 38.1822 73.0653 38.0999C73.1286 38.0176 73.2194 37.9726 73.3378 37.9683ZM79.1734 37.9683C79.2929 37.9723 79.3833 38.0138 79.4459 38.0952C79.5084 38.1766 79.5448 38.2745 79.5539 38.3865H78.7693C78.7938 38.2766 78.8376 38.1822 78.9009 38.0999C78.9641 38.0176 79.0549 37.9726 79.1734 37.9683ZM50.3246 38.0247C50.4645 38.0322 50.5753 38.1136 50.6535 38.2691C50.7317 38.4245 50.7697 38.6093 50.771 38.8235C50.7698 39.0397 50.7317 39.2233 50.6535 39.3779C50.5753 39.5325 50.4645 39.6151 50.3246 39.6222C50.1848 39.6151 50.0739 39.5325 49.9957 39.3779C49.9175 39.2233 49.8795 39.0397 49.8783 38.8235C49.8795 38.6093 49.9175 38.4245 49.9957 38.2691C50.0739 38.1136 50.1848 38.0322 50.3246 38.0247ZM39.4382 38.0435C39.6027 38.0565 39.7107 38.1387 39.7624 38.2925C39.8141 38.4464 39.8376 38.5944 39.8329 38.7342C39.8344 38.8341 39.8231 38.9557 39.8 39.096C39.7769 39.2363 39.7338 39.3582 39.6685 39.4672C39.6031 39.5762 39.5072 39.635 39.3818 39.641C39.3213 39.6398 39.2603 39.6281 39.1939 39.6034C39.1275 39.5788 39.0665 39.5482 39.0154 39.5142V38.2784C39.0659 38.2296 39.1316 38.1799 39.2127 38.1281C39.2937 38.0763 39.3689 38.0477 39.4382 38.0435ZM46.5752 38.0435C46.7438 38.0572 46.8542 38.1449 46.9041 38.3066C46.954 38.4683 46.9752 38.6218 46.9699 38.7671C46.9717 38.856 46.9635 38.9688 46.9464 39.1007C46.9294 39.2326 46.8951 39.3489 46.8383 39.4531C46.7816 39.5573 46.6925 39.6116 46.5752 39.6175C46.3834 39.6038 46.2596 39.5138 46.1994 39.345C46.1391 39.1763 46.1093 39.011 46.1148 38.8517V38.2784C46.1692 38.2234 46.2342 38.1725 46.3121 38.1234C46.39 38.0743 46.4785 38.0469 46.5752 38.0435ZM64.547 38.9033V38.9879C64.5458 39.1385 64.5035 39.2826 64.4201 39.4202C64.3367 39.5578 64.2192 39.6314 64.0677 39.641C63.997 39.6385 63.9446 39.6118 63.908 39.5611C63.8714 39.5104 63.8518 39.4509 63.8516 39.3826C63.852 39.3493 63.8582 39.3149 63.8657 39.2792C63.8731 39.2436 63.8794 39.2091 63.8892 39.1759L64.547 38.9033ZM69.175 38.9033V38.9879C69.1738 39.1385 69.1315 39.2826 69.0481 39.4202C68.9647 39.5578 68.8473 39.6314 68.6957 39.641C68.6251 39.6385 68.5726 39.6118 68.536 39.5611C68.4994 39.5104 68.4798 39.4509 68.4796 39.3826C68.48 39.3493 68.4862 39.3149 68.4937 39.2792C68.5011 39.2436 68.5074 39.2091 68.5172 39.1759L69.175 38.9033ZM70.9463 39.9088H71.2188C71.2892 39.9051 71.364 39.9137 71.4443 39.9323C71.5247 39.9509 71.569 40.0018 71.5759 40.0874C71.5698 40.234 71.5127 40.346 71.4021 40.4257C71.2914 40.5053 71.1638 40.5468 71.0215 40.5478C70.9307 40.5501 70.852 40.5309 70.7819 40.4867C70.7117 40.4426 70.6729 40.36 70.6691 40.2424C70.6806 40.1442 70.7292 40.064 70.8101 40.0028C70.8909 39.9416 70.9348 39.9107 70.9463 39.9088Z" fill="#636363"/>
</g>
<defs>
<clipPath id="clip0_6744_64751">
<rect width="72" height="16.1394" fill="white" transform="translate(12 24.7703)"/>
</clipPath>
</defs>
</svg>
