<svg width="96" height="65" viewBox="0 0 96 65" fill="none" xmlns="http://www.w3.org/2000/svg">
<rect width="96" height="64" transform="translate(0 0.839996)" fill="white"/>
<g clip-path="url(#clip0_6744_64737)">
<path d="M39.8791 18.2096H25.8535C25.8535 19.88 26.5159 21.4928 27.6967 22.6736C28.8775 23.8544 30.4903 24.5168 32.1607 24.5168H34.7527V26.9936C34.7527 30.4784 37.5751 33.3008 41.0599 33.3008V19.4192C41.0887 18.7568 40.5415 18.2096 39.8791 18.2096Z" fill="#2684FF"/>
<path d="M32.9382 25.1792H18.9414C18.9414 28.664 21.7638 31.4864 25.2486 31.4864H27.8406V33.992C27.8406 37.4768 30.663 40.2992 34.1766 40.2992V26.3888C34.1478 25.7264 33.6006 25.1792 32.9382 25.1792Z" fill="url(#paint0_linear_6744_64737)"/>
<path d="M25.9968 32.1488H12C12 35.6336 14.8224 38.4848 18.336 38.4848H20.928V40.9616C20.928 44.4464 23.7504 47.2688 27.2352 47.2688V33.3584C27.2352 32.696 26.688 32.1488 25.9968 32.1488Z" fill="url(#paint1_linear_6744_64737)"/>
<path d="M50.4471 23.6816H53.0103V36.728C53.0103 40.184 51.4839 42.5744 47.9703 42.5744C46.9335 42.6032 45.8679 42.4304 44.8887 42.0848V39.5792C45.7239 39.896 46.6455 40.0688 47.5383 40.0688C49.6983 40.0688 50.4471 38.7728 50.4471 36.9008V23.6816ZM57.6759 22.6736C58.1367 22.6448 58.5975 22.8176 58.9431 23.1344C59.2599 23.4512 59.4327 23.912 59.4039 24.3728C59.4039 25.3232 58.6263 26.072 57.7047 26.072C56.7543 26.072 56.0055 25.2944 56.0055 24.3728C55.9767 23.912 56.1495 23.4512 56.4663 23.1056C56.7831 22.7888 57.2439 22.616 57.6759 22.6736ZM56.4375 28.1456H58.8855V42.4016H56.4375V28.1456Z" fill="#253858"/>
<path d="M62.6016 28.1456H64.992V30.6512C65.8272 28.9808 67.2672 27.7712 70.032 27.944V30.3344C66.8928 30.0176 64.992 30.968 64.992 33.992V42.4304H62.6016V28.1456Z" fill="#253858"/>
<path d="M81.5506 28.1455V30.6511C80.6866 28.8079 79.1026 27.8575 77.0002 27.8575C72.997 27.8575 71.0098 31.2559 71.0098 35.2879C71.0098 39.4927 72.9106 42.7183 76.7122 42.7183C78.901 42.7183 80.629 41.7679 81.5218 39.8671V42.4303H83.9698V28.1455H81.5506ZM81.5506 35.8639C81.5506 39.0319 79.5922 40.4431 77.3746 40.4431C74.8402 40.4431 73.4578 38.7439 73.4578 35.2879C73.4578 31.9759 74.869 30.1615 77.6626 30.1615C79.765 30.1615 81.5506 31.5727 81.5506 34.7407V35.8639Z" fill="#253858"/>
</g>
<defs>
<linearGradient id="paint0_linear_6744_64737" x1="33.8608" y1="25.2051" x2="27.9363" y2="31.3839" gradientUnits="userSpaceOnUse">
<stop offset="0.18" stop-color="#0052CC"/>
<stop offset="1" stop-color="#2684FF"/>
</linearGradient>
<linearGradient id="paint1_linear_6744_64737" x1="27.3237" y1="32.2222" x2="20.4711" y2="38.9611" gradientUnits="userSpaceOnUse">
<stop offset="0.18" stop-color="#0052CC"/>
<stop offset="1" stop-color="#2684FF"/>
</linearGradient>
<clipPath id="clip0_6744_64737">
<rect width="72" height="29.088" fill="white" transform="translate(12 18.296)"/>
</clipPath>
</defs>
</svg>
