<svg width="96" height="65" viewBox="0 0 96 65" fill="none" xmlns="http://www.w3.org/2000/svg">
<rect width="96" height="64" transform="translate(0 0.880005)" fill="white"/>
<g clip-path="url(#clip0_6744_64927)">
<g clip-path="url(#clip1_6744_64927)">
<path d="M19.9835 51.4823C20.0769 51.3329 20.0582 51.1648 20.0956 50.9967C20.5625 48.9423 22.4302 47.3921 24.5407 47.336C25.6613 47.2987 26.6886 47.5975 27.5851 48.2699C27.6038 48.2886 27.6224 48.3072 27.6598 48.3259C27.7158 48.2512 27.6971 48.1765 27.6971 48.1018C27.6971 46.8318 27.6971 45.5617 27.6971 44.2917C27.6971 44.1423 27.6971 44.0115 27.7345 43.8621C27.8466 43.4699 28.2575 43.2084 28.687 43.2644C29.1166 43.3205 29.4528 43.6567 29.4528 44.0676C29.4715 44.4037 29.4528 44.7399 29.4528 45.0948C29.4528 47.4668 29.4715 49.8201 29.4528 52.1921C29.4341 54.2652 28.052 56.0769 26.0536 56.6559C25.7921 56.7306 25.5119 56.7866 25.2318 56.8053C24.8956 56.8053 24.5407 56.8053 24.2045 56.8053C22.3929 56.7119 20.5999 55.2178 20.1329 53.4061C20.0769 53.1633 20.0209 52.9205 19.9648 52.6777C19.9835 52.2855 19.9835 51.8746 19.9835 51.4823ZM27.6971 52.0987C27.6971 50.4738 26.3524 49.1104 24.7275 49.1104C23.1026 49.1104 21.7578 50.4364 21.7578 52.08C21.7578 53.7236 23.0652 55.0683 24.7275 55.0683C26.3711 55.0683 27.6971 53.7423 27.6971 52.0987Z" fill="#2496EC"/>
<path d="M62.5108 56.8426C62.3614 56.7493 62.1933 56.7679 62.0439 56.7306C59.9334 56.245 58.4206 54.3586 58.3645 52.1921C58.3085 49.6893 60.1575 47.9337 61.8945 47.4854C64.6213 46.7944 67.3295 48.5314 67.8151 51.3142C67.8525 51.557 67.8711 51.7998 67.8711 52.0426C67.8711 52.6216 67.5163 52.9765 66.956 52.9765C65.0883 52.9765 63.2019 52.9765 61.3342 52.9765C60.998 52.9765 60.6618 52.9765 60.3256 52.9765C60.2696 53.0699 60.3256 53.1259 60.3443 53.1819C61.0727 55.087 63.5754 55.6847 65.0883 54.3212C65.3684 54.0598 65.6859 53.9477 66.0595 54.0784C66.3957 54.2092 66.5824 54.4707 66.6198 54.8255C66.6571 55.1243 66.5451 55.4045 66.3209 55.61C65.5925 56.2823 64.7521 56.6932 63.7622 56.8053C63.7062 56.8053 63.6688 56.8053 63.6314 56.8426C63.2579 56.8426 62.8844 56.8426 62.5108 56.8426ZM65.9661 51.2208C65.7606 50.0068 64.2851 49.0356 62.8283 49.1477C61.689 49.2411 60.3443 50.343 60.3256 51.2208C62.1933 51.2208 64.061 51.2208 65.9661 51.2208Z" fill="#2496EC"/>
<path d="M50.6884 56.8427C50.6511 56.7866 50.595 56.8053 50.5577 56.7866C50.2215 56.6746 49.9787 56.3571 49.96 55.9835C49.96 55.8154 49.96 55.6473 49.96 55.4792C49.96 51.7625 49.96 48.0458 49.96 44.329C49.96 44.1796 49.9413 44.0489 49.9974 43.8995C50.1094 43.4886 50.539 43.2084 50.9686 43.2645C51.3982 43.3205 51.7343 43.6567 51.7343 44.1049C51.753 45.0948 51.7343 46.0847 51.7343 47.0932C51.7343 48.3073 51.7343 49.5213 51.7343 50.7353C51.8464 50.7539 51.9024 50.6792 51.9585 50.6419C53.5647 49.596 55.1522 48.5687 56.7585 47.5228C57.3561 47.1306 58.0845 47.4481 58.1779 48.1578C58.2153 48.5127 58.0845 48.7929 57.7857 48.9983C56.7024 49.708 55.6005 50.4178 54.5172 51.1088C54.4612 51.1462 54.3865 51.2022 54.2931 51.2582C54.4425 51.4263 54.5732 51.5757 54.704 51.7438C55.7312 52.9018 56.7398 54.0971 57.8044 55.2178C58.346 55.7967 58.2526 56.6372 57.4122 56.88C57.3188 56.88 57.2067 56.88 57.1133 56.88C56.8705 56.8053 56.6838 56.6559 56.5157 56.4691C55.339 55.1431 54.181 53.8357 53.0044 52.5096C52.9297 52.4162 52.855 52.3228 52.7429 52.2481C52.4627 52.4349 52.2013 52.6217 51.9024 52.7897C51.7717 52.8645 51.7157 52.9578 51.7157 53.1259C51.7157 54.0598 51.7157 55.0123 51.7157 55.9462C51.7157 56.3384 51.5289 56.6185 51.174 56.7866C51.118 56.824 51.0433 56.8427 50.9873 56.8613C50.8752 56.8427 50.7818 56.8427 50.6884 56.8427Z" fill="#2496EC"/>
<path d="M76.0149 48.7181C75.8655 49.0917 75.6413 49.3718 75.1931 49.4092C75.0063 49.4278 74.8382 49.3531 74.6515 49.2971C72.9705 48.6994 71.1775 49.5959 70.7106 51.2955C70.6359 51.557 70.5985 51.8372 70.5985 52.1173C70.5985 53.3127 70.5799 54.508 70.5985 55.722C70.6172 56.301 70.4118 56.6745 69.8701 56.8613C69.7581 56.8613 69.646 56.8613 69.5339 56.8613C69.5153 56.8426 69.4966 56.824 69.4592 56.824C69.0297 56.6559 68.8242 56.3757 68.8242 55.9274C68.8242 53.3874 68.8242 50.8286 68.8242 48.2885C68.8242 47.8029 69.1417 47.4294 69.5713 47.3734C70.0569 47.3173 70.4678 47.5788 70.5799 48.0271C70.5985 48.1391 70.5985 48.2512 70.6172 48.3632C70.7106 48.3446 70.7666 48.2699 70.8413 48.2138C71.8686 47.4854 73.0266 47.2426 74.2779 47.392C74.5207 47.4294 74.7635 47.4667 75.0063 47.5228C75.4359 47.6535 75.8094 47.859 76.0149 48.2885C76.0149 48.438 76.0149 48.5687 76.0149 48.7181Z" fill="#2496EC"/>
<path d="M52.5559 8.91736C52.7239 9.02942 52.78 9.16016 52.78 9.36561C52.78 10.4115 52.78 11.4574 52.78 12.5034C52.78 12.8209 52.6679 12.9329 52.3504 12.9329C51.1551 12.9329 49.9597 12.9329 48.7644 12.9329C48.4469 12.9329 48.3535 12.8209 48.3535 12.5034C48.3535 11.4574 48.3535 10.4115 48.3535 9.36561C48.3535 9.16016 48.4095 9.02942 48.5776 8.91736C49.885 8.91736 51.2111 8.91736 52.5559 8.91736Z" fill="#2496EC"/>
<path d="M24.2422 56.8426C24.2422 56.824 24.2422 56.824 24.2422 56.8053C24.5784 56.8053 24.9332 56.8053 25.2694 56.8053C25.2694 56.824 25.2694 56.824 25.2694 56.8426C24.9146 56.8426 24.5784 56.8426 24.2422 56.8426Z" fill="#7BBFF3"/>
<path d="M34.627 56.8426C34.627 56.824 34.627 56.824 34.627 56.8053C34.9631 56.8053 35.318 56.8053 35.6542 56.8053C35.6542 56.824 35.6542 56.824 35.6542 56.8426C35.318 56.8426 34.9631 56.8426 34.627 56.8426Z" fill="#7BBFF3"/>
<path d="M46.039 56.8053C46.039 56.824 46.039 56.824 46.039 56.8426C45.7028 56.8426 45.3666 56.8426 45.0117 56.8426C45.0117 56.824 45.0117 56.824 45.0117 56.8053C45.3666 56.8053 45.7028 56.8053 46.039 56.8053Z" fill="#7BBFF3"/>
<path d="M61.5957 22.6823C59.784 19.7687 61.0914 16.3881 62.3988 14.8193C64.3786 15.8839 65.6486 17.4714 66.0595 19.7127C66.321 19.6753 66.5825 19.6566 66.844 19.6193C67.9459 19.5072 69.0292 19.5632 70.0938 19.8808C70.6541 20.0488 71.1584 20.3103 71.6066 20.6839C71.7187 20.7773 71.756 20.852 71.7 21.0014C71.065 22.8317 69.7949 23.971 68.0019 24.606C67.1615 24.9049 66.2837 24.9983 65.3872 24.9796C65.2004 24.9796 65.1257 25.0356 65.0696 25.2037C64.3226 27.1088 63.4261 28.9578 62.2681 30.6574C59.5786 34.6543 55.8992 37.2504 51.2673 38.5765C49.2502 39.1555 47.1957 39.4543 45.1039 39.529C42.8066 39.6224 40.528 39.473 38.2868 38.95C36.7552 38.5951 35.2984 38.0909 34.0097 37.1757C32.4595 36.0551 31.3949 34.5609 30.6105 32.8426C29.8634 31.2177 29.4338 29.4994 29.191 27.7251C29.0603 26.7726 29.023 25.8201 29.0043 24.8675C28.9856 23.9523 29.6766 23.392 30.4611 23.392C39.7436 23.4107 49.0447 23.4107 58.3272 23.392C59.3731 23.392 60.3817 23.1866 61.3529 22.7757C61.4463 22.757 61.5023 22.7197 61.5957 22.6823Z" fill="#2496EC"/>
<path d="M35.654 56.8053C35.3178 56.8053 34.963 56.8053 34.6268 56.8053C33.226 56.6746 32.1241 55.9835 31.3023 54.8816C29.2852 52.136 30.742 48.0831 34.2906 47.4107C36.8307 46.9438 39.2587 48.55 39.7817 51.0714C40.4354 54.1905 38.1381 56.4878 35.8035 56.7866C35.7661 56.8053 35.7101 56.8053 35.654 56.8053ZM38.1194 52.08C38.1194 50.4551 36.7747 49.129 35.1498 49.1104C33.5249 49.1104 32.1614 50.4738 32.1614 52.08C32.1801 53.7236 33.5062 55.0497 35.1498 55.0497C36.7933 55.0683 38.1194 53.7236 38.1194 52.08Z" fill="#2496EC"/>
<path d="M46.0371 56.8053C45.7009 56.8053 45.346 56.8053 45.0098 56.8053C43.5157 56.6559 42.3577 55.9088 41.5546 54.6574C39.7055 51.7998 41.3491 48.0084 44.6923 47.4107C46.1304 47.1492 47.4565 47.4668 48.5771 48.438C49.0067 48.8115 49.0441 49.3905 48.6892 49.7827C48.3717 50.1189 47.8487 50.1376 47.4565 49.8387C47.0456 49.5212 46.5974 49.2597 46.0744 49.1664C44.3748 48.8302 42.6939 50.1002 42.5631 51.8185C42.4697 53.1072 42.9927 54.1158 44.132 54.7134C45.2713 55.3111 46.3732 55.199 47.4005 54.3959C47.8301 54.0597 48.3904 54.0784 48.7079 54.452C49.0441 54.8442 48.9694 55.4045 48.5585 55.7594C47.8301 56.3757 47.0083 56.7306 46.0371 56.8053Z" fill="#2496EC"/>
<path d="M40.08 18.5734C40.6777 18.5734 41.2566 18.5734 41.8543 18.5734C42.1905 18.5734 42.3026 18.6854 42.3026 19.0216C42.3026 20.0675 42.3026 21.1134 42.3026 22.1407C42.3026 22.4769 42.1905 22.5889 41.873 22.5889C40.6777 22.5889 39.4823 22.5889 38.287 22.5889C37.9695 22.5889 37.8574 22.4769 37.8574 22.1594C37.8574 21.0948 37.8574 20.0489 37.8574 18.9843C37.8574 18.6667 37.9695 18.5547 38.287 18.5547C38.866 18.5734 39.4636 18.5734 40.08 18.5734Z" fill="#2496EC"/>
<path d="M40.0605 17.7703C39.4628 17.7703 38.8651 17.7703 38.2675 17.7703C37.95 17.7703 37.8379 17.6582 37.8379 17.3407C37.8379 16.2948 37.8379 15.2489 37.8379 14.1843C37.8379 13.8668 37.95 13.736 38.2675 13.736C39.4628 13.736 40.6581 13.736 41.8348 13.736C42.1523 13.736 42.2644 13.8481 42.2644 14.1843C42.2644 15.2302 42.2644 16.2761 42.2644 17.3407C42.2644 17.6582 42.1523 17.7703 41.8348 17.7703C41.2558 17.7703 40.6581 17.7703 40.0605 17.7703Z" fill="#2496EC"/>
<path d="M45.3662 18.5734C45.9639 18.5734 46.5616 18.5734 47.1592 18.5734C47.4581 18.5734 47.5701 18.6854 47.5701 18.9843C47.5701 20.0489 47.5701 21.1134 47.5701 22.178C47.5701 22.4769 47.4581 22.5889 47.1592 22.5889C45.9452 22.5889 44.7499 22.5889 43.5359 22.5889C43.2371 22.5889 43.125 22.4582 43.125 22.178C43.125 21.1134 43.125 20.0489 43.125 18.9843C43.125 18.6854 43.2557 18.5734 43.5546 18.5734C44.1522 18.5734 44.7499 18.5734 45.3662 18.5734Z" fill="#2496EC"/>
<path d="M55.8252 18.5734C56.4229 18.5734 57.0206 18.5734 57.6182 18.5734C57.9171 18.5734 58.0291 18.6854 58.0291 18.9843C58.0291 20.0489 58.0291 21.1134 58.0291 22.178C58.0291 22.4769 57.9171 22.5889 57.6182 22.5889C56.4042 22.5889 55.2089 22.5889 53.9949 22.5889C53.696 22.5889 53.584 22.4769 53.584 22.178C53.584 21.1134 53.584 20.0489 53.584 18.9843C53.584 18.6854 53.7147 18.5734 54.0136 18.5734C54.6299 18.5734 55.2276 18.5734 55.8252 18.5734Z" fill="#2496EC"/>
<path d="M45.3476 17.7703C44.7499 17.7703 44.1522 17.7703 43.5546 17.7703C43.2371 17.7703 43.125 17.6582 43.125 17.3407C43.125 16.2948 43.125 15.2489 43.125 14.1843C43.125 13.8668 43.2371 13.736 43.5546 13.736C44.7499 13.736 45.9452 13.736 47.1219 13.736C47.4394 13.736 47.5515 13.8481 47.5515 14.1656C47.5515 15.2115 47.5515 16.2574 47.5515 17.322C47.5515 17.6582 47.4394 17.7703 47.1032 17.7703C46.5242 17.7703 45.9266 17.7703 45.3476 17.7703Z" fill="#2496EC"/>
<path d="M34.8691 22.5889C34.2714 22.5889 33.6737 22.5889 33.0761 22.5889C32.7399 22.5889 32.6465 22.4769 32.6465 22.1594C32.6465 21.0948 32.6465 20.0489 32.6465 18.9843C32.6465 18.6854 32.7585 18.5734 33.0761 18.5734C34.2714 18.5734 35.4667 18.5734 36.6434 18.5734C36.9609 18.5734 37.0729 18.6854 37.0729 19.0029C37.0729 20.0489 37.0729 21.0948 37.0729 22.1407C37.0729 22.4769 36.9609 22.5703 36.6247 22.5703C36.0457 22.5889 35.448 22.5889 34.8691 22.5889Z" fill="#2496EC"/>
<path d="M50.5387 17.7703C49.9597 17.7703 49.3621 17.7703 48.7831 17.7703C48.4469 17.7703 48.3535 17.6582 48.3535 17.3407C48.3535 16.2761 48.3535 15.2302 48.3535 14.1656C48.3535 13.8481 48.4656 13.7547 48.7644 13.736C49.9597 13.736 51.1551 13.736 52.3504 13.736C52.6679 13.736 52.7613 13.8481 52.7613 14.1656C52.7613 15.2302 52.7613 16.2761 52.7613 17.3407C52.7613 17.6582 52.6492 17.7703 52.3317 17.7703C51.7527 17.7703 51.1364 17.7703 50.5387 17.7703Z" fill="#2496EC"/>
<path d="M50.5585 22.5889C49.9608 22.5889 49.3632 22.5889 48.7655 22.5889C48.4293 22.5889 48.3359 22.4769 48.3359 22.1594C48.3359 21.1134 48.3359 20.0675 48.3359 19.0216C48.3359 18.6854 48.448 18.592 48.7655 18.592C49.9608 18.592 51.1562 18.592 52.3328 18.592C52.6503 18.592 52.7624 18.7041 52.7624 19.0216C52.7624 20.0862 52.7624 21.1321 52.7624 22.1967C52.7624 22.4955 52.6503 22.6076 52.3515 22.6076C51.7538 22.5889 51.1562 22.5889 50.5585 22.5889Z" fill="#2496EC"/>
<path d="M73.3803 56.1703C73.3803 56.5065 73.1001 56.7866 72.7639 56.7866C72.4091 56.7866 72.1289 56.5065 72.1289 56.1516C72.1289 55.8154 72.4277 55.554 72.7639 55.554C73.1001 55.554 73.3803 55.8341 73.3803 56.1703ZM73.0254 56.5065C73.2122 56.3757 73.2495 56.1703 73.1561 55.9462C73.0628 55.7407 72.8386 55.6287 72.6145 55.6847C72.4277 55.7407 72.2783 55.9088 72.2596 56.1143C72.241 56.3197 72.3717 56.5252 72.5585 56.5812C72.7266 56.6746 72.9133 56.6933 73.0254 56.5065Z" fill="#2496EC"/>
<path d="M73.0451 56.5064C72.9517 56.4878 72.877 56.4691 72.8583 56.357C72.8396 56.2636 72.7836 56.2263 72.6715 56.2636C72.6715 56.3197 72.6528 56.3944 72.6528 56.4691C72.5034 56.4504 72.4847 56.2823 72.5408 55.8901C72.6528 55.8528 72.7649 55.8714 72.877 55.8714C72.9703 55.8901 73.0451 55.9648 73.0077 56.0208C72.877 56.2076 73.0451 56.357 73.0451 56.5064ZM72.6715 56.1329C72.7649 56.1329 72.8396 56.1516 72.8583 56.0582C72.8583 55.9835 72.8023 55.9648 72.7462 55.9648C72.6155 55.9648 72.6528 56.0395 72.6715 56.1329Z" fill="#2496EC"/>
</g>
</g>
<defs>
<clipPath id="clip0_6744_64927">
<rect width="72" height="48" fill="white" transform="translate(12 8.88)"/>
</clipPath>
<clipPath id="clip1_6744_64927">
<rect width="56.0311" height="48" fill="white" transform="translate(19.9844 8.88)"/>
</clipPath>
</defs>
</svg>
