<svg width="96" height="65" viewBox="0 0 96 65" fill="none" xmlns="http://www.w3.org/2000/svg">
<rect width="96" height="64" transform="translate(0 0.880005)" fill="white"/>
<g clip-path="url(#clip0_6744_64952)">
<g clip-path="url(#clip1_6744_64952)">
<path d="M63.6731 17.0467C63.4373 16.35 62.938 15.7734 62.2821 15.4405L49.0287 9.09858C48.6882 8.94307 48.3165 8.86827 47.9424 8.88C47.5782 8.86544 47.2135 8.89435 46.8562 8.96611L33.6093 15.3544C33.2823 15.5028 32.9942 15.7251 32.7677 16.0038C32.5413 16.2826 32.3827 16.6101 32.3045 16.9606L29.0425 31.254C28.978 31.6159 28.987 31.9872 29.0689 32.3456C29.1509 32.704 29.304 33.0423 29.5193 33.3403L38.6895 44.6796C39.222 45.2109 39.9265 45.535 40.6765 45.5937H55.2745C55.6571 45.6313 56.0427 45.5665 56.3919 45.4059C56.7411 45.2453 57.0413 44.9946 57.2616 44.6796L66.4284 33.3403C66.8553 32.7338 67.0407 31.9899 66.9483 31.254L63.6366 17.0467H63.6731Z" fill="#326DE6"/>
<path d="M61.6508 30.6909C61.6078 30.6909 61.5647 30.6909 61.5647 30.6479C61.5647 30.6048 61.4786 30.6048 61.3925 30.6048C61.2216 30.5691 61.047 30.5546 60.8726 30.5618C60.7832 30.569 60.6933 30.5542 60.6109 30.5187H60.5745C60.0756 30.4738 59.5815 30.3863 59.0975 30.2571C59.028 30.2309 58.9649 30.1901 58.9123 30.1376C58.8598 30.085 58.8191 30.0219 58.7928 29.9524L58.4616 29.8663C58.6107 28.5889 58.5413 27.2954 58.2563 26.0413C57.9499 24.7777 57.4363 23.5736 56.7362 22.4779L56.9979 22.2163V22.1732C56.998 22.036 57.0447 21.9029 57.1303 21.7957C57.5067 21.4682 57.9137 21.1776 58.3457 20.928L58.6074 20.7988C58.7796 20.7127 58.912 20.6266 59.0842 20.5372C59.1273 20.4942 59.1704 20.4942 59.2134 20.4511C59.2565 20.4081 59.2134 20.4081 59.2134 20.365C59.3064 20.298 59.3849 20.2128 59.4442 20.1147C59.5035 20.0166 59.5423 19.9075 59.5584 19.794C59.5745 19.6805 59.5675 19.5649 59.5378 19.4542C59.5081 19.3434 59.4563 19.2398 59.3856 19.1496C59.3113 19.0587 59.2186 18.9845 59.1136 18.932C59.0086 18.8795 58.8936 18.8498 58.7763 18.8449C58.555 18.8509 58.3415 18.9275 58.1669 19.0635L58.1238 19.1066C58.0808 19.1496 58.0377 19.1927 57.9947 19.1927C57.8726 19.3126 57.7618 19.4434 57.6635 19.5834C57.6205 19.6696 57.5344 19.7126 57.4913 19.7557C57.1713 20.1195 56.8063 20.4411 56.4051 20.7127C56.3255 20.7608 56.236 20.7903 56.1434 20.7988C56.0828 20.805 56.0219 20.7898 55.9712 20.7558H55.9282L55.597 20.9744C55.2658 20.6432 54.8585 20.2789 54.5108 19.9312C52.8672 18.6573 50.8997 17.8691 48.8312 17.656L48.7881 17.3249V17.3679C48.6796 17.2857 48.6025 17.1688 48.5695 17.0367C48.5532 16.5319 48.5809 16.0266 48.6523 15.5266V15.4835C48.6523 15.3974 48.6954 15.3113 48.6954 15.2219C48.7384 15.0497 48.7384 14.8907 48.7815 14.702V14.4404C48.7999 14.2222 48.7344 14.0051 48.5984 13.8335C48.4625 13.6619 48.2662 13.5485 48.0496 13.5164C47.9116 13.5104 47.7742 13.5373 47.6487 13.5949C47.5232 13.6525 47.4131 13.7391 47.3277 13.8476C47.2458 13.9267 47.1805 14.0213 47.1356 14.1259C47.0907 14.2305 47.067 14.3431 47.066 14.4569V14.6755C47.0711 14.8433 47.0955 15.01 47.1389 15.1722C47.1744 15.2546 47.1891 15.3445 47.1819 15.4339V15.4769C47.2552 15.9657 47.284 16.46 47.268 16.9539C47.2351 17.0861 47.158 17.2029 47.0495 17.2851V17.3712L47.0064 17.7024C46.5295 17.7454 46.0493 17.8315 45.5294 17.921C43.4774 18.3814 41.6142 19.4556 40.1876 21.0009L39.926 20.8287H39.8829C39.8399 20.8287 39.7968 20.8717 39.7107 20.8717C39.6181 20.8631 39.5287 20.8337 39.4491 20.7856C39.0573 20.4885 38.6937 20.1559 38.3628 19.7921C38.3198 19.706 38.2337 19.6629 38.1906 19.6199C38.0615 19.4907 37.9721 19.3582 37.8595 19.2291C37.8164 19.186 37.7734 19.186 37.7303 19.143L37.6873 19.0999C37.5094 18.957 37.2894 18.8766 37.0613 18.8714C36.9417 18.8623 36.8218 18.8858 36.7145 18.9394C36.6072 18.9931 36.5164 19.0749 36.452 19.1761C36.329 19.3653 36.2787 19.5926 36.3103 19.8161C36.342 20.0395 36.4535 20.2439 36.6242 20.3915C36.6356 20.3915 36.6466 20.396 36.6546 20.4041C36.6627 20.4122 36.6672 20.4231 36.6672 20.4346C36.6672 20.4346 36.7533 20.5207 36.7964 20.5207C36.9502 20.6169 37.1094 20.7043 37.2733 20.7823L37.5349 20.9114C37.9757 21.1553 38.385 21.4523 38.7536 21.7957C38.8056 21.8452 38.8445 21.9068 38.8671 21.9749C38.8896 22.0431 38.895 22.1157 38.8828 22.1865V22.1268L39.1444 22.3885C39.1014 22.4746 39.0583 22.5176 39.0153 22.607C37.6549 24.7209 37.1132 27.2587 37.4919 29.7438L37.1607 29.8299C37.1607 29.8413 37.1562 29.8523 37.1481 29.8603C37.14 29.8684 37.1291 29.8729 37.1176 29.8729C37.0515 30.0046 36.9446 30.1114 36.813 30.1776C36.3298 30.3105 35.8353 30.3981 35.3359 30.4392C35.2465 30.432 35.1567 30.4468 35.0743 30.4823C34.9021 30.4823 34.7431 30.5254 34.5544 30.5254C34.5113 30.5254 34.4683 30.5684 34.3822 30.5684C34.2961 30.5684 34.3391 30.5684 34.2961 30.6115C34.1846 30.6298 34.0779 30.6703 33.9823 30.7304C33.8866 30.7906 33.804 30.8693 33.7392 30.9618C33.6744 31.0544 33.6288 31.159 33.605 31.2694C33.5812 31.3799 33.5797 31.4939 33.6006 31.605C33.6475 31.7941 33.7611 31.9599 33.9205 32.0719C34.08 32.1838 34.2745 32.2344 34.4683 32.2143C34.5438 32.2215 34.6197 32.2065 34.6868 32.1713C34.7299 32.1713 34.7299 32.1713 34.7299 32.1282C34.7299 32.0852 34.859 32.1282 34.9021 32.1282C35.0743 32.0852 35.2333 31.9991 35.379 31.956C35.4586 31.9079 35.548 31.8785 35.6406 31.8699H35.6837C36.148 31.694 36.6282 31.5631 37.1176 31.4791H37.1607C37.2833 31.4795 37.4013 31.5256 37.4919 31.6083C37.5033 31.6083 37.5142 31.6128 37.5223 31.6209C37.5304 31.629 37.5349 31.6399 37.5349 31.6513L37.9257 31.6083C38.5721 33.626 39.8144 35.4005 41.4891 36.6984C41.8522 36.9983 42.245 37.2602 42.6615 37.48L42.4429 37.7846C42.4429 37.796 42.4474 37.807 42.4555 37.8151C42.4636 37.8231 42.4745 37.8277 42.4859 37.8277C42.5245 37.8924 42.5484 37.9648 42.5558 38.0398C42.5632 38.1148 42.5541 38.1905 42.529 38.2615C42.3402 38.7034 42.1072 39.125 41.8335 39.52V39.563C41.79 39.6458 41.7316 39.7199 41.6613 39.7816C41.5752 39.8677 41.4891 40.0432 41.3566 40.2154C41.3136 40.2585 41.3136 40.3015 41.2705 40.3446C41.2705 40.356 41.266 40.367 41.2579 40.375C41.2498 40.3831 41.2389 40.3876 41.2275 40.3876C41.1243 40.5887 41.1011 40.8214 41.1625 41.0389C41.224 41.2564 41.3655 41.4426 41.5586 41.56C41.6535 41.6086 41.7571 41.6378 41.8633 41.6461C42.0356 41.6395 42.203 41.5872 42.3485 41.4947C42.4939 41.4022 42.6122 41.2727 42.6913 41.1195C42.6913 41.1081 42.6958 41.0972 42.7039 41.0891C42.7119 41.081 42.7229 41.0765 42.7343 41.0765C42.7343 41.0334 42.7774 40.9904 42.8204 40.9473C42.8635 40.7751 42.9496 40.6426 42.9926 40.4704L43.0787 40.2088C43.2222 39.7418 43.4119 39.2903 43.645 38.8609C43.7239 38.74 43.8402 38.6481 43.9762 38.5993C44.0193 38.5993 44.0193 38.5993 44.0193 38.5563L44.1915 38.2251C45.3958 38.6936 46.6779 38.9295 47.9701 38.9205C48.7619 38.9262 49.5508 38.8237 50.3148 38.6159C50.7854 38.5115 51.2497 38.3811 51.7057 38.2251L51.878 38.5298C51.921 38.5298 51.921 38.5298 51.921 38.5728C52.057 38.6216 52.1733 38.7135 52.2522 38.8344C52.4853 39.2638 52.675 39.7153 52.8185 40.1823V40.2254L52.9046 40.487C52.9355 40.6543 52.9937 40.8154 53.0768 40.9639C53.1198 41.0069 53.1198 41.05 53.1629 41.093C53.1629 41.1045 53.1674 41.1154 53.1755 41.1235C53.1836 41.1316 53.1945 41.1361 53.206 41.1361C53.2856 41.2876 53.4037 41.4154 53.5485 41.5067C53.6933 41.598 53.8595 41.6495 54.0306 41.656C54.145 41.6461 54.257 41.617 54.3617 41.5699C54.4578 41.5238 54.5425 41.4572 54.6101 41.3749C54.6776 41.2925 54.7262 41.1963 54.7525 41.093C54.8055 40.873 54.7905 40.642 54.7095 40.4307C54.7095 40.4193 54.7049 40.4083 54.6969 40.4002C54.6888 40.3922 54.6778 40.3876 54.6664 40.3876C54.6664 40.3446 54.6234 40.3015 54.5803 40.2585C54.5043 40.0975 54.4012 39.9508 54.2756 39.8246C54.2321 39.7418 54.1738 39.6677 54.1034 39.6061V39.52C53.8137 39.1352 53.5796 38.7116 53.408 38.2615C53.3829 38.1905 53.3737 38.1148 53.3811 38.0398C53.3886 37.9648 53.4124 37.8924 53.451 37.8277C53.451 37.8163 53.4556 37.8053 53.4636 37.7972C53.4717 37.7892 53.4827 37.7846 53.4941 37.7846L53.3649 37.4535C55.5922 36.1164 57.2594 34.0175 58.0576 31.5454L58.3888 31.5884C58.4002 31.5884 58.4112 31.5839 58.4192 31.5758C58.4273 31.5677 58.4318 31.5568 58.4318 31.5454C58.5223 31.4627 58.6404 31.4166 58.763 31.4162H58.9187C59.3941 31.5002 59.86 31.6311 60.3096 31.807H60.3526C60.4322 31.8551 60.5217 31.8845 60.6143 31.8931C60.7644 31.9838 60.9244 32.0571 61.0911 32.1117C61.1342 32.1117 61.1773 32.1547 61.2634 32.1547C61.3495 32.1547 61.3064 32.1547 61.3495 32.1978C61.4166 32.233 61.4925 32.248 61.568 32.2408C61.7571 32.2378 61.9408 32.1781 62.0955 32.0695C62.2502 31.9608 62.3687 31.8082 62.4357 31.6315C62.4186 31.4161 62.3338 31.2117 62.1934 31.0475C62.053 30.8833 61.8642 30.7678 61.6541 30.7174L61.6508 30.6909ZM49.0928 29.3431L47.9205 29.9094L46.7481 29.3431L46.4434 28.0879L47.268 27.0447H48.5729L49.3975 28.0879L49.0928 29.3431ZM56.1732 26.5182C56.3819 27.4153 56.4401 28.3408 56.3455 29.257L52.2224 28.0879C52.131 28.0655 52.0451 28.0252 51.9694 27.9693C51.8937 27.9134 51.8299 27.8431 51.7815 27.7625C51.7332 27.6818 51.7013 27.5923 51.6877 27.4993C51.6742 27.4062 51.6792 27.3114 51.7024 27.2203C51.7331 27.1057 51.7923 27.0009 51.8746 26.9156L55.1334 23.9615C55.6129 24.7538 55.9649 25.6166 56.1766 26.5182H56.1732ZM53.8286 22.3487L50.2651 24.8689C50.1121 24.9588 49.9318 24.9905 49.7572 24.9583C49.5827 24.926 49.4256 24.832 49.3147 24.6934C49.2724 24.655 49.2389 24.6079 49.2166 24.5553C49.1943 24.5027 49.1837 24.4459 49.1855 24.3887L48.9239 20.0007C50.7795 20.1993 52.5114 21.0267 53.8319 22.3454L53.8286 22.3487ZM45.9665 20.1398L46.8342 19.9676L46.6156 24.3126C46.6079 24.502 46.5262 24.6809 46.3882 24.8109C46.2502 24.9409 46.0667 25.0117 45.8771 25.008C45.7627 24.9981 45.6507 24.969 45.546 24.9219L41.9229 22.3487C43.0456 21.2594 44.4433 20.4959 45.9665 20.1398ZM40.6678 23.9648L43.8835 26.8328C43.9551 26.8919 44.0142 26.9646 44.0574 27.0468C44.1006 27.129 44.1269 27.219 44.135 27.3115C44.143 27.404 44.1325 27.4971 44.1041 27.5855C44.0757 27.6739 44.03 27.7558 43.9696 27.8263C43.9327 27.8838 43.8841 27.933 43.8271 27.9706C43.7701 28.0082 43.7058 28.0335 43.6384 28.0449L39.406 29.257C39.2771 27.4028 39.7161 25.5534 40.6645 23.9549L40.6678 23.9648ZM39.926 31.3003L44.2312 30.5618C44.4018 30.5519 44.5702 30.6036 44.7058 30.7076C44.8414 30.8115 44.935 30.9608 44.9697 31.1281C44.9948 31.1991 45.004 31.2748 44.9965 31.3498C44.9891 31.4248 44.9652 31.4972 44.9267 31.5619L43.2708 35.5592C41.7237 34.5396 40.5499 33.0449 39.926 31.3003ZM49.7883 36.6984C49.1753 36.8378 48.5491 36.9111 47.9205 36.917C46.9915 36.9038 46.0692 36.7577 45.1817 36.4831L47.3277 32.6018C47.4256 32.4712 47.5684 32.3814 47.7285 32.3496C47.8887 32.3178 48.0549 32.3463 48.1953 32.4296C48.316 32.5194 48.4269 32.6215 48.5265 32.7343L50.6129 36.5129C50.3345 36.5582 50.0592 36.6202 49.7883 36.6984ZM55.087 32.9197C54.4247 33.9729 53.5339 34.8637 52.4807 35.526L50.7851 31.4427C50.742 31.2812 50.7576 31.1097 50.8292 30.9587C50.9007 30.8077 51.0236 30.687 51.1759 30.6181C51.3008 30.5689 51.4327 30.5398 51.5667 30.532L55.9116 31.2705C55.7161 31.8517 55.4396 32.4025 55.0903 32.9065L55.087 32.9197Z" fill="white"/>
<path d="M75.9302 55.4394C76.1553 55.4552 76.3812 55.4224 76.5925 55.3434C76.6526 55.3122 76.7023 55.2644 76.7358 55.2057C76.7693 55.1469 76.7851 55.0797 76.7813 55.0122C76.7737 54.9393 76.7462 54.8698 76.7018 54.8114C76.6574 54.753 76.5979 54.7079 76.5296 54.6811C76.286 54.5391 76.0257 54.4278 75.7547 54.3499C75.5061 54.255 75.2639 54.1444 75.0294 54.0187C74.8265 53.9225 74.6399 53.7951 74.4764 53.6412C74.3292 53.4878 74.2163 53.3049 74.1452 53.1047C74.0564 52.8677 74.0137 52.6159 74.0193 52.3629C74.0128 52.105 74.0665 51.8491 74.1763 51.6156C74.2861 51.3822 74.449 51.1776 74.6519 51.0183C75.1542 50.6654 75.7611 50.4927 76.374 50.5282C76.7302 50.5253 77.0856 50.562 77.4337 50.6374C77.7072 50.6836 77.9763 50.7523 78.2385 50.8428L77.9371 52.1873C77.7152 52.1078 77.5099 52.0615 77.2748 51.9986C77.0206 51.9408 76.7604 51.9141 76.4998 51.9191C75.9633 51.9191 75.6951 52.0615 75.6951 52.3629C75.6984 52.4269 75.7095 52.4903 75.7282 52.5516C75.7621 52.6153 75.811 52.6699 75.8706 52.7106C75.9573 52.7681 76.0468 52.8211 76.1388 52.8695C76.2851 52.9464 76.438 53.0096 76.5959 53.0583C76.9126 53.1693 77.2195 53.3066 77.5132 53.469C77.7322 53.5751 77.9263 53.7264 78.0828 53.9127C78.2249 54.0583 78.3284 54.237 78.3842 54.4327C78.4469 54.6479 78.4792 54.8708 78.4802 55.095C78.4963 55.361 78.4421 55.6266 78.3229 55.865C78.2037 56.1033 78.0238 56.3061 77.8013 56.4528C77.2289 56.789 76.5697 56.9481 75.907 56.9098C75.4544 56.9261 75.0017 56.8781 74.5625 56.7674C74.3108 56.7045 74.0723 56.625 73.8372 56.5455L74.122 55.1546C74.409 55.2678 74.7047 55.3575 75.0062 55.4229C75.3374 55.4229 75.6222 55.4692 75.9368 55.4692M67.2303 53.7306C67.222 53.2561 67.3029 52.7843 67.4688 52.3397C67.6183 51.9613 67.8437 51.6175 68.1311 51.3296C68.3887 51.0643 68.7021 50.8596 69.0485 50.7302C69.3893 50.5925 69.7538 50.5227 70.1215 50.5248C70.4955 50.5063 70.8693 50.5672 71.2181 50.7036C71.5668 50.8401 71.8827 51.0489 72.1449 51.3163C72.635 51.8363 72.8867 52.6112 72.8867 53.6345C72.8939 53.7448 72.8939 53.8554 72.8867 53.9657C72.8867 54.0916 72.8867 54.1876 72.8867 54.2969H68.9789C68.9936 54.4641 69.0452 54.6259 69.13 54.7708C69.2147 54.9157 69.3305 55.04 69.469 55.1348C69.816 55.3613 70.2238 55.4768 70.6381 55.4659C70.9455 55.463 71.2521 55.4365 71.5554 55.3864C71.8117 55.3382 72.0609 55.2581 72.2973 55.148L72.5357 56.5389C72.4182 56.5959 72.2964 56.6435 72.1714 56.6813C72.0016 56.7327 71.8276 56.7693 71.6515 56.7906C71.4627 56.8237 71.2739 56.8535 71.052 56.8867C70.8302 56.9198 70.6248 56.9198 70.3897 56.9198C69.905 56.9357 69.422 56.8546 68.969 56.6813C68.595 56.5472 68.2575 56.3277 67.9832 56.0403C67.709 55.7528 67.5056 55.4053 67.3893 55.0255C67.2788 54.6127 67.2209 54.1877 67.2171 53.7604M71.2143 53.0981C71.211 52.9523 71.1842 52.808 71.1348 52.6708C71.0979 52.5376 71.0337 52.4135 70.9461 52.3066C70.8545 52.1961 70.742 52.1049 70.6149 52.0383C70.4601 51.9633 70.2902 51.9243 70.1181 51.9243C69.9461 51.9243 69.7762 51.9633 69.6214 52.0383C69.4959 52.1002 69.3835 52.1857 69.2902 52.29C69.1925 52.4003 69.1172 52.5285 69.0683 52.6675C69.0213 52.8061 68.9891 52.9493 68.9723 53.0947H71.2143M62.6039 49.177L64.3094 48.9087V50.6772H66.3627V52.0979H64.3094V54.2141C64.2906 54.511 64.356 54.8072 64.4982 55.0685C64.5866 55.1873 64.7048 55.2805 64.841 55.3386C64.9771 55.3968 65.1262 55.4179 65.2731 55.3997C65.4585 55.4006 65.6435 55.3851 65.8262 55.3533C66.009 55.3227 66.1886 55.275 66.3627 55.2109L66.6011 56.5356C66.3749 56.6261 66.1425 56.7003 65.9056 56.7575C65.5996 56.8214 65.2877 56.8536 64.975 56.8535C64.582 56.8706 64.1896 56.8063 63.8226 56.6648C63.5423 56.5527 63.2934 56.3743 63.0973 56.1448C62.9101 55.9015 62.7759 55.6218 62.7032 55.3235C62.6242 54.9761 62.5919 54.6197 62.6072 54.2638V49.1339M55.7022 53.7008C55.6939 53.2263 55.7748 52.7545 55.9407 52.3099C56.0902 51.9315 56.3156 51.5877 56.603 51.2998C56.8607 51.0345 57.174 50.8298 57.5204 50.7004C57.8613 50.5627 58.2257 50.4929 58.5934 50.495C58.9591 50.4804 59.3239 50.5417 59.6647 50.6751C60.0056 50.8085 60.3151 51.011 60.5738 51.27C61.0639 51.7899 61.3156 52.5649 61.3156 53.5882C61.3227 53.6985 61.3227 53.8091 61.3156 53.9194C61.3078 54.0296 61.3078 54.1403 61.3156 54.2505H57.431C57.4457 54.4177 57.4973 54.5796 57.582 54.7244C57.6668 54.8693 57.7826 54.9936 57.9211 55.0884C58.2681 55.315 58.6759 55.4305 59.0901 55.4196C59.3975 55.4167 59.7042 55.3901 60.0075 55.3401C60.2685 55.2897 60.523 55.2097 60.7659 55.1016L61.0043 56.4926C60.8868 56.5495 60.765 56.5971 60.64 56.635C60.4702 56.6863 60.2962 56.7229 60.1201 56.7442C59.9313 56.7774 59.7425 56.8072 59.5207 56.8403C59.2988 56.8734 59.0934 56.8734 58.8583 56.8734C58.3736 56.8893 57.8906 56.8082 57.4376 56.635C57.0636 56.5009 56.7261 56.2814 56.4518 55.9939C56.1776 55.7065 55.9742 55.359 55.8579 54.9791C55.732 54.5696 55.6738 54.1423 55.6857 53.714M59.6829 53.0517C59.6796 52.9059 59.6528 52.7617 59.6034 52.6245C59.5666 52.4912 59.5023 52.3672 59.4147 52.2602C59.3231 52.1497 59.2106 52.0585 59.0835 51.9919C58.9287 51.9169 58.7588 51.8779 58.5868 51.8779C58.4147 51.8779 58.2448 51.9169 58.09 51.9919C57.9636 52.0524 57.8509 52.1381 57.7588 52.2436C57.6611 52.3539 57.5858 52.4822 57.5369 52.6212C57.4899 52.7598 57.4577 52.903 57.4409 53.0484H59.6697M49.2146 50.8395C49.5789 50.7434 49.9564 50.6673 50.3373 50.601C50.8126 50.5254 51.2933 50.4889 51.7746 50.4917C52.2053 50.4812 52.6343 50.5508 53.0396 50.6971C53.3536 50.804 53.632 50.9953 53.8444 51.2501C54.0484 51.5047 54.1942 51.8008 54.2716 52.1178C54.3611 52.4851 54.4034 52.8624 54.3974 53.2405V56.6383H52.7085V53.4623C52.7364 53.0601 52.66 52.6574 52.4866 52.2933C52.3919 52.1739 52.2683 52.0808 52.1274 52.0228C51.9865 51.9648 51.8331 51.9439 51.6818 51.9621C51.5506 51.9546 51.419 51.9546 51.2877 51.9621C51.1656 51.9639 51.0439 51.9749 50.9234 51.9952V56.6317H49.2146V50.8395ZM48.0124 52.1641C47.8535 52.131 47.6813 52.0847 47.4759 52.0549C47.258 52.0105 47.036 51.9894 46.8136 51.9919C46.6817 51.9958 46.5502 52.0068 46.4195 52.0251C46.3078 52.0384 46.1972 52.0594 46.0883 52.088V56.6846H44.3795V50.9388C44.73 50.8145 45.0885 50.7138 45.4525 50.6374C45.9076 50.5276 46.3755 50.4797 46.8434 50.495C46.9527 50.495 47.0653 50.495 47.1746 50.495C47.3073 50.4959 47.4394 50.5114 47.5687 50.5414C47.6945 50.5414 47.8204 50.5745 47.9628 50.6043C48.0769 50.6218 48.1882 50.6541 48.2939 50.7004L48.0091 52.1211M37.4116 53.671C37.4033 53.1965 37.4842 52.7247 37.6501 52.2801C37.7996 51.9017 38.025 51.5579 38.3124 51.27C38.5701 51.0047 38.8834 50.8 39.2298 50.6706C39.5707 50.5329 39.9351 50.4631 40.3028 50.4652C40.6751 50.4507 41.0462 50.5149 41.3921 50.6536C41.7379 50.7922 42.0505 51.0023 42.3097 51.27C42.7998 51.7899 43.0515 52.5649 43.0515 53.5617C43.0586 53.672 43.0586 53.7826 43.0515 53.8929C43.0437 54.0031 43.0437 54.1138 43.0515 54.224H39.1503C39.165 54.3912 39.2166 54.5531 39.3014 54.698C39.3861 54.8428 39.5019 54.9671 39.6404 55.0619C39.9874 55.2885 40.3952 55.404 40.8095 55.3931C41.1168 55.3902 41.4235 55.3636 41.7268 55.3136C41.9807 55.2637 42.2291 55.1894 42.4686 55.0917L42.7071 56.4826C42.5896 56.5396 42.4678 56.5872 42.3428 56.625C42.173 56.6764 41.999 56.713 41.8228 56.7343C41.6341 56.7674 41.4453 56.7972 41.2234 56.8304C41.0015 56.8635 40.7962 56.8635 40.5611 56.8635C40.0764 56.8794 39.5933 56.7983 39.1404 56.625C38.7664 56.4909 38.4289 56.2714 38.1546 55.984C37.8804 55.6965 37.677 55.349 37.5607 54.9692C37.4611 54.5547 37.4078 54.1304 37.4017 53.7041M41.4155 53.0418C41.4122 52.896 41.3853 52.7517 41.336 52.6145C41.2991 52.4813 41.2348 52.3572 41.1473 52.2503C41.0557 52.1398 40.9432 52.0486 40.8161 51.982C40.6612 51.907 40.4914 51.868 40.3193 51.868C40.1473 51.868 39.9774 51.907 39.8226 51.982C39.6971 52.0439 39.5847 52.1294 39.4914 52.2337C39.3937 52.344 39.3184 52.4722 39.2695 52.6112C39.2225 52.7498 39.1903 52.893 39.1735 53.0384H41.4155M34.6364 53.5915C34.6364 52.4854 34.2258 51.9356 33.421 51.9356C33.2457 51.9333 33.0708 51.9545 32.9011 51.9986C32.7555 52.0324 32.6166 52.0906 32.4904 52.1708V55.2672C32.5699 55.2672 32.6792 55.3003 32.8216 55.3136C32.9639 55.3221 33.1065 55.3221 33.2488 55.3136C33.451 55.3302 33.6542 55.2955 33.8394 55.2128C34.0247 55.13 34.1861 55.0018 34.3086 54.84C34.5435 54.4563 34.6588 54.0112 34.6397 53.5617M36.3784 53.6246C36.3847 54.0759 36.3095 54.5247 36.1565 54.9493C36.032 55.3204 35.8273 55.6596 35.5571 55.9428C35.2761 56.2309 34.9376 56.4566 34.5636 56.6052C34.1388 56.7576 33.6902 56.8328 33.2389 56.827C33.0336 56.827 32.8117 56.827 32.5765 56.7939C32.3414 56.7608 32.1328 56.7476 31.9142 56.731C31.6956 56.7144 31.5035 56.6681 31.2982 56.6217C31.1194 56.5972 30.9446 56.5493 30.7783 56.4793V48.0444L32.4838 47.7761V50.7765C32.6781 50.6971 32.8785 50.634 33.0832 50.5878C33.3012 50.5434 33.5232 50.5224 33.7456 50.5248C34.1374 50.5171 34.5258 50.5987 34.8815 50.7633C35.2115 50.9034 35.5042 51.1189 35.7359 51.3925C35.9721 51.6849 36.1446 52.0232 36.2426 52.386C36.3392 52.8052 36.387 53.2342 36.385 53.6644M29.182 56.4462C28.813 56.5444 28.438 56.6185 28.0594 56.6681C27.5841 56.7437 27.1034 56.7802 26.6221 56.7774C26.1869 56.7889 25.7534 56.7192 25.3438 56.572C25.0338 56.4493 24.7578 56.254 24.539 56.0024C24.3343 55.7359 24.1887 55.4288 24.1118 55.1016C24.0224 54.7298 23.9802 54.3481 23.986 53.9657V50.6341H25.6915V53.777C25.6638 54.1846 25.7401 54.5925 25.9134 54.9625C26.0024 55.09 26.1241 55.1911 26.2657 55.2553C26.4073 55.3194 26.5636 55.3441 26.7181 55.3268C26.8494 55.3344 26.981 55.3344 27.1122 55.3268C27.2347 55.3213 27.3565 55.3058 27.4765 55.2805V50.6441H29.182V56.4594M19.2303 52.8166C19.4025 52.6278 19.5615 52.439 19.7503 52.2469C19.939 52.0549 20.0814 51.8528 20.2702 51.6608C20.459 51.4687 20.6014 51.2832 20.7438 51.1077C20.8862 50.9322 21.0286 50.7765 21.1379 50.6507H23.1514C22.7407 51.1077 22.3467 51.568 21.9658 51.9952C21.585 52.4225 21.1611 52.8629 20.7007 53.3199C20.9539 53.5515 21.1918 53.7993 21.4127 54.0618C21.6512 54.3466 21.8863 54.6314 22.1248 54.946C22.3632 55.2606 22.5685 55.562 22.7573 55.8633C22.9461 56.1647 23.0885 56.4495 23.2309 56.7012H21.2803C21.1544 56.4959 21.012 56.2905 20.8531 56.0389C20.6941 55.7872 20.5219 55.5653 20.3629 55.3136C20.1866 55.071 19.9964 54.8388 19.7933 54.6181C19.6235 54.4142 19.4326 54.2288 19.2237 54.0651V56.7144H17.5215V48.0444L19.227 47.7761V52.8166" fill="black"/>
</g>
</g>
<defs>
<clipPath id="clip0_6744_64952">
<rect width="72" height="48" fill="white" transform="translate(12 8.88)"/>
</clipPath>
<clipPath id="clip1_6744_64952">
<rect width="60.9554" height="48" fill="white" transform="translate(17.5215 8.88)"/>
</clipPath>
</defs>
</svg>
