<svg width="96" height="65" viewBox="0 0 96 65" fill="none" xmlns="http://www.w3.org/2000/svg">
<rect width="96" height="64" transform="translate(0 0.880005)" fill="white"/>
<g clip-path="url(#clip0_6744_64970)">
<g clip-path="url(#clip1_6744_64970)">
<path d="M43.8755 43.8696C42.002 42.7857 40.463 41.8569 40.463 41.8061C40.463 41.7017 47.2613 37.7405 47.3496 37.7913C47.4379 37.8422 47.4219 45.7539 47.3496 45.7994C47.3175 45.8208 45.7437 44.9483 43.8702 43.8643L43.8755 43.8696ZM48.2864 45.7967C48.2623 45.7726 48.2436 43.9687 48.2436 41.782C48.2436 38.1393 48.2436 37.8154 48.3586 37.8154C48.4737 37.8154 54.7822 41.4287 55.1194 41.683C55.2399 41.7713 55.2426 41.7954 55.1516 41.8864C55.0606 41.9774 49.1027 45.4381 48.5487 45.7218C48.4282 45.7913 48.3105 45.8154 48.2864 45.7967ZM39.9438 40.8987C39.8287 40.6846 39.8421 33.2092 39.9572 33.0567C40.0348 32.9523 40.4068 33.1503 43.4366 34.9088C45.7785 36.2631 46.8331 36.9108 46.8197 36.9831C46.8063 37.0553 42.4356 39.6595 40.265 40.8907C39.9973 41.0352 39.9973 41.0352 39.9331 40.8907L39.9438 40.8987ZM52.2208 39.0573C50.3473 37.9867 48.8297 37.0419 48.8163 36.9831C48.8029 36.9242 49.8387 36.2765 52.1994 34.9115C55.2185 33.1691 55.6119 32.9576 55.6788 33.0593C55.7457 33.161 55.7671 34.0416 55.7671 36.9831C55.7671 39.9245 55.7484 40.8211 55.6788 40.9094C55.6092 40.9978 55.2452 40.8184 52.2208 39.0573ZM35.5089 39.0011C33.6674 37.9305 32.1606 37.0178 32.1606 36.975C32.1606 36.9322 38.8518 33.0085 38.9722 33.0085C39.007 33.0085 39.0338 34.7482 39.0338 36.9857C39.0338 40.1226 39.0151 40.963 38.9455 40.9576C38.8759 40.9523 37.3503 40.0744 35.5089 39.0011ZM56.6156 36.9831C56.6156 33.6348 56.6316 32.9951 56.7119 33.0165C56.7922 33.0379 58.3178 33.9024 60.1646 34.957C62.3272 36.1935 63.5156 36.9108 63.5049 36.975C63.4941 37.0393 57.0064 40.864 56.736 40.9416C56.6209 40.9737 56.6129 40.7515 56.6129 36.9857L56.6156 36.9831ZM31.5664 32.1333V28.1185L31.8983 28.2898C32.9555 28.8251 38.4396 32.0851 38.4396 32.1627C38.4396 32.2403 31.818 36.1426 31.6547 36.1453C31.5851 36.148 31.5664 35.2995 31.5664 32.1333ZM43.8113 34.1995C41.9699 33.1289 40.463 32.2162 40.463 32.1654C40.463 32.0583 47.2559 28.1078 47.3443 28.1507C47.3764 28.1721 47.4031 29.976 47.4031 32.1654C47.4031 35.9125 47.4031 36.1373 47.28 36.1346C47.2158 36.1426 45.6554 35.2674 43.8113 34.1995ZM48.2436 32.1654C48.2436 29.976 48.2703 28.1748 48.3051 28.1507C48.4149 28.0811 55.1863 32.0209 55.1863 32.1654C55.1863 32.3099 48.5621 36.14 48.3667 36.1426C48.2516 36.1426 48.2436 35.9098 48.2436 32.1707V32.1654ZM60.5928 34.1968C58.6149 33.0727 57.2151 32.2269 57.2151 32.1654C57.2151 32.1038 62.3379 29.0741 63.8662 28.2497C64 28.1774 64.0401 28.1801 64.091 28.2631C64.1419 28.3461 64.1847 35.8536 64.1151 36.0249C64.091 36.0864 64.0535 36.1346 64.0268 36.1346C64 36.1346 62.4583 35.2621 60.5982 34.1942L60.5928 34.1968ZM35.6132 29.4113C33.7932 28.3594 32.2623 27.4521 32.2061 27.3986C32.1499 27.345 32.1311 27.2862 32.273 27.1978C32.8591 26.8285 38.9 23.3812 38.9642 23.3812C39.0284 23.3812 39.0686 31.2366 38.9803 31.2929C38.9508 31.3116 37.4359 30.4658 35.6159 29.4193L35.6132 29.4113ZM39.9117 31.2233C39.8555 31.0787 39.8581 23.6702 39.9117 23.4615C39.9411 23.3491 39.9893 23.3143 40.0669 23.3437C40.1445 23.3731 41.6728 24.2537 43.5142 25.3163C45.7303 26.5983 46.8464 27.2808 46.8331 27.3477C46.8197 27.4146 40.1981 31.3357 40.0428 31.3357C40.0135 31.3306 39.9862 31.3177 39.9636 31.2984C39.941 31.2791 39.924 31.2541 39.9143 31.2259L39.9117 31.2233ZM52.1833 29.3926C49.8949 28.0543 48.8351 27.4146 48.8351 27.337C48.8351 27.2594 49.9057 26.6037 52.2181 25.2654C54.0917 24.1948 55.6226 23.3089 55.6467 23.3089C55.6708 23.3089 55.7109 23.3785 55.7324 23.4642C55.7886 23.6702 55.7886 31.0761 55.7324 31.2259C55.7234 31.2535 55.7073 31.2782 55.6857 31.2975C55.664 31.3168 55.6376 31.33 55.6092 31.3357C55.5637 31.3357 54.0221 30.4631 52.1807 29.3952L52.1833 29.3926ZM56.6156 27.3477C56.6156 24.4919 56.637 23.3705 56.6932 23.3705C56.8645 23.3705 63.5236 27.246 63.5075 27.337C63.4915 27.428 56.8163 31.325 56.6798 31.325C56.6424 31.325 56.6156 29.7191 56.6156 27.3477ZM31.5664 22.506C31.5664 18.7188 31.5664 18.4912 31.6895 18.5475C31.8903 18.6224 38.2924 22.34 38.4021 22.4471C38.4664 22.5086 38.4798 22.5675 38.4369 22.605C38.3085 22.7228 31.81 26.4645 31.6895 26.4886C31.5691 26.5127 31.5664 26.2852 31.5664 22.5086V22.506ZM43.8782 24.5642C42.0368 23.4936 40.5299 22.5809 40.5299 22.5301C40.5299 22.4123 47.1863 18.5475 47.3095 18.5956C47.3871 18.6251 47.4005 19.3156 47.3844 22.5515C47.3844 25.0915 47.3416 26.4779 47.2961 26.4886C47.2506 26.4993 45.7196 25.6321 43.8782 24.5615V24.5642ZM48.3212 26.4377C48.2221 26.3387 48.2061 18.8017 48.3024 18.6492C48.3147 18.6257 48.3338 18.6064 48.3572 18.594C48.3806 18.5816 48.4073 18.5766 48.4336 18.5796C48.4737 18.593 49.9993 19.4682 51.8247 20.5254C53.8963 21.7244 55.1382 22.4792 55.1275 22.5381C55.1168 22.597 53.634 23.4856 51.83 24.5294L48.4818 26.4645C48.4554 26.4766 48.426 26.48 48.3976 26.4742C48.3692 26.4684 48.3434 26.4538 48.3239 26.4324L48.3212 26.4377ZM60.5902 24.5642C58.7166 23.4936 57.1991 22.5809 57.1884 22.5274C57.1777 22.4739 58.366 21.7458 60.4563 20.5468C62.263 19.511 63.8046 18.6331 63.8796 18.5983C63.9545 18.5635 64.0348 18.5608 64.0803 18.6331C64.1258 18.7054 64.1713 26.2236 64.1044 26.3949C64.0803 26.4565 64.0428 26.5046 64.0161 26.502C63.9893 26.4993 62.4476 25.6241 60.5875 24.5588L60.5902 24.5642ZM35.6132 19.7813C33.7932 18.7295 32.2623 17.8221 32.2061 17.7686C32.1499 17.7151 32.1311 17.6562 32.273 17.5652C32.8083 17.2199 38.8036 13.7914 38.908 13.7646C39.0124 13.7378 39.0338 13.9252 39.0338 17.6776C39.0338 19.8482 39.0097 21.6388 38.9776 21.6575C38.9455 21.6763 37.4333 20.8305 35.6132 19.784V19.7813ZM39.9866 21.6548C39.9599 21.6281 39.9411 19.8402 39.9411 17.6776C39.9411 14.4257 39.9572 13.7459 40.0348 13.7459C40.1124 13.7459 45.9445 17.0888 46.6992 17.5625C46.8384 17.6508 46.8491 17.6803 46.7688 17.7632C46.6885 17.8462 40.0856 21.7057 40.0455 21.7057C40.0233 21.6942 40.0034 21.6788 39.9866 21.6602V21.6548ZM52.2984 19.7813C50.4811 18.7268 48.9501 17.8221 48.8966 17.7686C48.8431 17.7151 48.8217 17.6562 48.9635 17.5679C49.5845 17.1771 55.4754 13.7994 55.5851 13.7699C55.6949 13.7405 55.7216 13.794 55.7216 17.6803C55.7216 19.8509 55.6949 21.6441 55.6628 21.6629C55.6306 21.6816 54.1024 20.8385 52.285 19.784L52.2984 19.7813ZM56.6156 17.7124C56.6156 13.8047 56.6156 13.7271 56.7521 13.7619C57.0599 13.8422 63.5236 17.6187 63.5075 17.7097C63.4915 17.8007 56.7976 21.7057 56.6798 21.7057C56.6397 21.7057 56.6156 19.9125 56.6156 17.7124ZM43.8515 14.9369C41.994 13.8663 40.4577 12.967 40.4363 12.9456C40.4149 12.9242 40.4363 12.8653 40.5005 12.8118C40.6209 12.6833 47.1168 8.92551 47.28 8.88001C47.4005 8.84789 47.4058 9.02721 47.4058 12.868C47.4058 16.0557 47.3871 16.8827 47.3175 16.8827C47.2479 16.8827 45.7063 16.0102 43.8515 14.9369ZM48.2917 16.8452C48.2088 16.7622 48.2329 8.9496 48.3158 8.89874C48.3988 8.84789 55.2211 12.777 55.2211 12.8867C55.2211 12.9536 48.7762 16.7301 48.4496 16.8532C48.4253 16.8661 48.3982 16.8729 48.3707 16.8729C48.3432 16.8729 48.3161 16.8661 48.2917 16.8532V16.8452Z" fill="#34A9D8"/>
<path d="M43.8969 43.7813C42.0661 42.7107 40.5673 41.8355 40.5673 41.8061C40.5673 41.7766 47.2023 37.8931 47.2906 37.8931C47.3147 37.8931 47.3361 39.6515 47.3361 41.8007C47.3361 43.9499 47.312 45.7084 47.2799 45.7084C47.2478 45.7084 45.7276 44.8412 43.8969 43.7813ZM48.3585 45.6549C48.2916 45.5879 48.3023 37.9707 48.3585 37.9279C48.4148 37.885 55.0471 41.7097 55.0471 41.8007C55.0471 41.8917 48.5165 45.7057 48.4201 45.7057C48.3966 45.695 48.3757 45.6795 48.3585 45.6602V45.6549ZM40.0106 36.9831C40.0106 34.8419 40.0293 33.0674 40.0534 33.0674C40.0775 33.0674 41.6004 33.9372 43.4392 34.9998C46.0782 36.5254 46.7634 36.9509 46.6938 37.0179C46.6242 37.0848 40.2943 40.789 40.1177 40.8559C40.024 40.8934 40.0106 40.4571 40.0106 36.9831ZM52.2903 38.9904C50.5051 37.9519 49.0063 37.0634 48.9581 37.0179C48.9099 36.9724 49.5469 36.5414 52.2154 34.9998C54.0568 33.9292 55.5797 33.0674 55.6011 33.0674C55.6225 33.0674 55.6386 34.8258 55.6386 36.975C55.6386 39.1242 55.6145 40.8827 55.585 40.88C55.5556 40.8773 54.0728 40.0289 52.2876 38.9904H52.2903ZM43.9156 34.1567C42.0929 33.1022 40.5941 32.2109 40.5834 32.1788C40.5727 32.1467 47.0444 28.3246 47.2451 28.2765C47.3201 28.2577 47.3361 28.9697 47.3361 32.1654C47.3361 34.3066 47.312 36.0757 47.2826 36.0757C47.2532 36.0757 45.7383 35.2112 43.9156 34.1567ZM48.3559 36.0302C48.2863 35.9606 48.3023 28.3461 48.3746 28.3032C48.4469 28.2604 55.0283 32.0503 55.0658 32.1574C55.0819 32.2055 49.7931 35.3156 48.4469 36.0516C48.4317 36.0574 48.4152 36.0585 48.3994 36.0546C48.3836 36.0508 48.3694 36.0423 48.3585 36.0302H48.3559ZM40.0106 27.3477C40.0106 23.7372 40.0106 23.4374 40.1257 23.4775C40.1899 23.5016 41.7128 24.3742 43.5141 25.4126C46.1504 26.9382 46.7767 27.3236 46.6964 27.3932C46.6162 27.4628 40.0855 31.2634 40.0374 31.2634C39.9892 31.2634 40.0106 29.4889 40.0106 27.3477ZM52.2689 29.3471C50.473 28.3006 48.9715 27.4146 48.934 27.3745C48.8965 27.3343 49.9323 26.6866 52.1458 25.41C53.9497 24.3688 55.4753 23.4963 55.5342 23.4749C55.5931 23.4535 55.6412 23.8656 55.6412 27.3477C55.6412 29.4889 55.6172 31.2607 55.5877 31.2554C55.5583 31.25 54.0648 30.3936 52.2689 29.3471ZM43.8674 14.8486C42.0554 13.8021 40.5834 12.9161 40.5941 12.8787C40.6208 12.793 47.1247 9.01116 47.2478 9.00848C47.3174 9.00848 47.3361 9.82749 47.3361 12.8787C47.3361 15.9299 47.312 16.7515 47.2478 16.7489C47.1836 16.7462 45.6794 15.8951 43.8674 14.8486ZM48.313 12.8947C48.313 9.83552 48.3318 9.01384 48.4014 9.01651C48.5245 9.01651 55.0337 12.8037 55.0604 12.8867C55.0872 12.9697 48.7065 16.6632 48.4495 16.7301C48.3157 16.7676 48.313 16.7167 48.313 12.8947Z" fill="#024561"/>
<path d="M47.3536 56.789C46.9247 56.6652 46.5214 56.4658 46.1626 56.2002C45.895 56.0075 45.6621 55.7452 45.6621 55.6649C45.8184 55.4656 45.9981 55.2858 46.1974 55.1296C46.2861 55.189 46.3694 55.2562 46.4463 55.3303C47.0137 55.8335 47.4875 56.0315 48.0522 56.0021C48.9702 55.9539 49.5216 55.2902 49.2941 54.5059C49.1549 54.0242 48.7588 53.7191 47.8756 53.4086C46.805 53.0366 46.366 52.7073 46.077 52.0971C45.9525 51.8644 45.9038 51.5987 45.9378 51.337C45.9113 50.9153 46.0335 50.4976 46.2831 50.1567C46.5229 49.8572 46.8419 49.631 47.2038 49.5036C47.8401 49.3344 48.5149 49.3834 49.1201 49.6428C49.402 49.7783 49.6596 49.9591 49.8829 50.1781C49.7477 50.4072 49.582 50.617 49.3904 50.8017C49.2952 50.7622 49.2053 50.711 49.1228 50.6491C48.7986 50.4083 48.4023 50.2847 47.9987 50.2985C47.801 50.2742 47.6005 50.3067 47.4206 50.3922C47.2445 50.4871 47.0985 50.6294 46.9991 50.803C46.8998 50.9766 46.8511 51.1746 46.8585 51.3745C46.8404 51.5392 46.8761 51.7054 46.9602 51.8482C47.1074 52.1158 47.2948 52.2229 48.004 52.4932C48.3413 52.6217 48.7267 52.7823 48.8605 52.8519C49.899 53.3738 50.3781 54.1741 50.2335 55.1456C50.1899 55.5656 50.0016 55.9573 49.7009 56.2537C49.4841 56.4689 49.2248 56.6365 48.9395 56.7457C48.6542 56.8549 48.3493 56.9034 48.0442 56.888C47.8111 56.8802 47.5795 56.847 47.3536 56.789Z" fill="#34A9D8"/>
<path d="M60.1838 52.1962C59.9566 51.4008 59.4892 50.6951 58.8456 50.1754C58.4611 49.8653 58.0187 49.6346 57.5443 49.4969C57.0699 49.3592 56.5728 49.3171 56.082 49.3731C55.5911 49.4291 55.1163 49.5822 54.6851 49.8233C54.2539 50.0644 53.875 50.3888 53.5703 50.7777C53.26 51.1895 53.0219 51.6511 52.8663 52.1427C52.7496 52.7173 52.7342 53.3078 52.8208 53.8877C52.9331 54.4142 53.1549 54.9112 53.4716 55.3465C53.7884 55.7817 54.1931 56.1456 54.6596 56.4143C55.0249 56.6044 55.4137 56.7457 55.8158 56.8345C56.2826 56.8943 56.7554 56.8898 57.221 56.8212C57.917 56.6761 58.5598 56.3424 59.079 55.8567C59.5983 55.371 59.974 54.7519 60.1651 54.0671C60.3014 53.4515 60.3078 52.8143 60.1838 52.1962ZM59.0704 54.4016C58.8818 54.7783 58.6146 55.1102 58.2868 55.3747C57.9589 55.6393 57.5782 55.8304 57.1701 55.9352C56.7232 56.0249 56.2623 56.0176 55.8185 55.9138C55.4314 55.8107 55.0701 55.6279 54.7576 55.3772C54.4451 55.1265 54.1884 54.8134 54.0038 54.4578C53.7836 54.0527 53.6746 53.5965 53.688 53.1356C53.6752 52.7521 53.7451 52.3702 53.8929 52.016C54.0407 51.6618 54.2629 51.3435 54.5445 51.0828C54.792 50.8161 55.093 50.6046 55.4279 50.4621C55.7627 50.3196 56.1238 50.2493 56.4876 50.2557C56.9627 50.2358 57.4339 50.3498 57.8473 50.585C58.3677 50.8578 58.787 51.2902 59.0437 51.8188C59.2554 52.2155 59.3684 52.6573 59.373 53.1069C59.3777 53.5565 59.2739 54.0007 59.0704 54.4016Z" fill="#34A9D8"/>
<path d="M64.1389 56.789C63.76 56.6813 63.3993 56.518 63.0683 56.3046C62.8006 56.1199 62.4688 55.7693 62.4688 55.689C62.5349 55.5601 62.6259 55.4455 62.7364 55.3517L63.004 55.0841L63.17 55.2393C63.8471 55.8763 64.5403 56.1065 65.2228 55.9218C65.4692 55.8737 65.6924 55.7446 65.8568 55.5549C66.0213 55.3653 66.1175 55.126 66.1302 54.8753C66.1494 54.7056 66.1265 54.5338 66.0635 54.3751C66.0005 54.2163 65.8993 54.0756 65.7689 53.9653C65.4709 53.6887 65.1069 53.4933 64.7116 53.3979C63.6839 53.0419 63.1673 52.686 62.905 52.1453C62.6848 51.6227 62.6733 51.0355 62.8729 50.5046C63.0201 50.1752 63.2554 49.8927 63.5527 49.6883C63.9215 49.4901 64.3318 49.3816 64.7504 49.3719C65.169 49.3621 65.5839 49.4513 65.9616 49.6321C66.2359 49.7576 66.4805 49.9401 66.6789 50.1674C66.5562 50.389 66.4 50.5903 66.2158 50.7643C66.1166 50.7448 66.0243 50.6996 65.9482 50.6331C65.3513 50.2049 64.5537 50.1353 64.0746 50.4725C63.9443 50.5761 63.8399 50.7087 63.7697 50.8597C63.6995 51.0107 63.6656 51.1759 63.6705 51.3424C63.6692 51.4857 63.69 51.6283 63.732 51.7653C63.8311 52.0061 64.1201 52.2096 64.6126 52.3942C65.1192 52.5578 65.6051 52.7797 66.0606 53.0553C66.4117 53.2634 66.6924 53.5719 66.8665 53.9411C67.0406 54.3102 67.1001 54.7231 67.0373 55.1264C66.9745 55.5297 66.7923 55.9049 66.5142 56.2036C66.2361 56.5024 65.8749 56.7109 65.4771 56.8024C65.035 56.8926 64.5787 56.8872 64.1389 56.7863V56.789Z" fill="#34A9D8"/>
<path d="M28.0419 56.7676C28.0258 56.7515 28.0098 55.6381 28.0098 54.2945C28.0098 52.2417 28.0098 51.8536 28.0713 51.8536C28.2472 52.0122 28.4027 52.192 28.5344 52.3889L28.9358 52.9242V54.8459V56.7676H28.5156C28.3584 56.788 28.1991 56.788 28.0419 56.7676Z" fill="#34A9D8"/>
<path d="M34.8429 56.7676C34.8268 56.7515 34.8107 55.6194 34.8107 54.2517C34.8107 52.884 34.7947 51.7679 34.7786 51.7679C34.6265 51.9358 34.4869 52.1148 34.3611 52.3032C34.1497 52.6003 33.5769 53.3497 33.0898 53.968C31.8372 55.5605 31.9041 55.4829 31.8265 55.416C31.7488 55.349 29.3802 52.2711 28.6896 51.2969L28.0178 50.3654V49.7659C28.0022 49.565 28.0166 49.363 28.0607 49.1664C28.1222 49.1664 28.24 49.3136 30.1269 51.7679C31.069 52.9937 31.8586 53.9948 31.88 53.9948C31.9014 53.9948 32.7231 52.9482 33.708 51.6716C34.693 50.3949 35.5361 49.3056 35.5816 49.2627C35.6271 49.2199 35.6833 49.1851 35.702 49.2065C35.7207 49.2279 35.7341 50.9382 35.7261 53.0125V56.781H35.3059C35.1549 56.7934 35.003 56.7871 34.8536 56.7622L34.8429 56.7676Z" fill="#34A9D8"/>
<path d="M38.5814 56.7408C38.5814 56.7114 38.5653 55.0573 38.5814 53.0687V49.4528H43.0832V50.2905L41.298 50.3119L39.5128 50.3333V52.6271L41.0999 52.6485L42.6871 52.6699V53.5076L41.0999 53.529L39.5128 53.5504V54.7308V55.9111H41.3649C43.1501 55.9111 43.2197 55.9111 43.2625 55.9968C43.3162 56.2259 43.3225 56.4636 43.2813 56.6953L43.2545 56.7943H40.9152C39.1059 56.7943 38.5974 56.7943 38.5814 56.7381V56.7408Z" fill="#34A9D8"/>
<path d="M47.5666 56.789C47.1656 56.7004 46.7821 56.5457 46.4318 56.3313C46.116 56.1279 45.752 55.796 45.752 55.697C45.8664 55.5027 46.0216 55.3356 46.207 55.2072C46.3233 55.2799 46.4326 55.3633 46.5335 55.4561C47.3632 56.16 48.391 56.2591 49.0333 55.6917C49.1626 55.5871 49.2632 55.4515 49.3259 55.2975C49.3886 55.1436 49.4114 54.9762 49.392 54.8111C49.4206 54.6094 49.3781 54.404 49.2715 54.2303C49.0494 53.8556 48.664 53.6067 47.8557 53.3283C46.9269 53.0072 46.4291 52.6539 46.1722 52.1346C46.0628 51.9178 46.0129 51.6758 46.0276 51.4334C45.9819 51.0219 46.0762 50.607 46.2953 50.2557C46.7637 49.5197 47.8824 49.2413 48.9209 49.6053C49.2459 49.7318 49.5438 49.9189 49.7988 50.1567C49.8256 50.2263 49.4321 50.7669 49.3786 50.7321L49.1109 50.5555C48.4713 50.1246 47.5238 50.1166 47.1384 50.5394C46.9971 50.7021 46.8987 50.8974 46.8519 51.1077C46.8052 51.318 46.8117 51.5367 46.8707 51.7439C46.9896 51.9948 47.1895 52.1984 47.4381 52.322C47.5158 52.3568 47.861 52.4959 48.2063 52.6298C48.5164 52.7496 48.8194 52.8872 49.1136 53.0419C49.5022 53.2798 49.8251 53.611 50.0531 54.0055C50.1789 54.2571 50.1842 54.2945 50.1842 54.8084C50.2109 55.0805 50.1752 55.3551 50.0798 55.6114C49.8931 55.9926 49.6028 56.3136 49.2421 56.5374C48.7242 56.7963 48.1371 56.8826 47.5666 56.7837V56.789Z" fill="#024561"/>
<path d="M60.1314 52.2684C59.9585 51.5789 59.5962 50.9515 59.0854 50.4572C58.5745 49.963 57.9356 49.6215 57.2408 49.4715C56.758 49.4002 56.2675 49.4002 55.7847 49.4715C55.1528 49.614 54.565 49.9079 54.0718 50.328C53.5172 50.8463 53.1162 51.5076 52.9129 52.239C52.8051 52.8274 52.8051 53.4304 52.9129 54.0188C53.0668 54.6813 53.4154 55.2825 53.9139 55.7452C54.4524 56.3133 55.1621 56.6893 55.9346 56.8158C56.4489 56.8693 56.9684 56.8404 57.4736 56.7301C58.116 56.5572 58.7007 56.2164 59.1678 55.7428C59.6349 55.2691 59.9675 54.6796 60.1314 54.0349C60.2536 53.4524 60.2536 52.8509 60.1314 52.2684ZM59.1063 54.4551C58.9137 54.8222 58.6482 55.1462 58.326 55.4072C58.0039 55.6681 57.6319 55.8605 57.2327 55.9727C56.747 56.1005 56.236 56.097 55.7521 55.9625C55.2682 55.828 54.8287 55.5674 54.4786 55.2072C54.1369 54.8707 53.8832 54.4552 53.7399 53.9974C53.5924 53.474 53.5776 52.9221 53.6971 52.3915C53.8924 51.714 54.3089 51.1214 54.8801 50.708C55.2982 50.4108 55.7899 50.2341 56.3015 50.1973C56.8132 50.1604 57.3251 50.2649 57.7814 50.4993C58.322 50.79 58.7699 51.2268 59.0741 51.7599C59.2937 52.1741 59.4112 52.6348 59.4168 53.1036C59.4223 53.5724 59.3159 54.0357 59.1063 54.4551Z" fill="#024561"/>
<path d="M64.2945 56.773C63.9178 56.6872 63.5567 56.5436 63.2239 56.3474C62.9429 56.182 62.698 55.9617 62.5039 55.6997C62.6202 55.507 62.774 55.3395 62.9562 55.2072C63.0764 55.2758 63.1886 55.3575 63.2908 55.4508C64.1901 56.2002 65.2767 56.2537 65.8736 55.6007C65.9744 55.5032 66.0527 55.385 66.1031 55.2542C66.1535 55.1233 66.1747 54.9831 66.1653 54.8432C66.1812 54.698 66.1654 54.5511 66.1193 54.4125C66.0731 54.2739 65.9975 54.147 65.8977 54.0403C65.63 53.7485 65.3758 53.5987 64.6504 53.3283C63.8181 53.0179 63.5263 52.86 63.248 52.5682C63.0984 52.421 62.9796 52.2457 62.8983 52.0523C62.817 51.8588 62.7748 51.6512 62.7742 51.4414C62.7046 50.229 63.4594 49.4608 64.7281 49.4501C65.3451 49.4247 65.9496 49.6287 66.425 50.0229L66.6043 50.1781L66.4865 50.3387C66.4223 50.427 66.3179 50.5528 66.2563 50.6197L66.1466 50.7402L65.9994 50.6278C65.341 50.1246 64.3667 50.0711 63.9251 50.51C63.8099 50.6243 63.7198 50.7614 63.6608 50.9127C63.6018 51.0639 63.5751 51.2258 63.5825 51.3879C63.5675 51.4771 63.5714 51.5685 63.594 51.6561C63.6166 51.7437 63.6574 51.8256 63.7137 51.8964C63.8823 52.1373 64.1687 52.3113 64.7548 52.5254C66.1948 53.0607 66.8157 53.6094 66.9629 54.5006C67.0086 54.8072 66.9841 55.1202 66.8914 55.4159C66.7987 55.7117 66.6401 55.9826 66.4276 56.2082C66.1439 56.4672 65.8017 56.6538 65.4303 56.7522C65.0589 56.8505 64.6692 56.8576 64.2945 56.773Z" fill="#024561"/>
<path d="M28.0928 56.7221C28.0446 56.6739 28.0553 51.9419 28.0928 51.9419C28.2481 52.0992 28.3887 52.2703 28.513 52.4531L28.8931 52.9643V54.8378V56.7114H28.5157C28.3798 56.7235 28.243 56.7172 28.1088 56.6926L28.0928 56.7221Z" fill="#024561"/>
<path d="M34.8854 56.7221C34.8666 56.7034 34.8559 55.5578 34.8559 54.1741C34.8559 52.6753 34.8559 51.6528 34.8184 51.6448C34.645 51.8188 34.4907 52.0108 34.3581 52.2176C34.1279 52.5388 33.6247 53.2025 33.2393 53.6896C32.8539 54.1768 32.4016 54.7602 32.2303 54.977C32.1288 55.1252 32.0103 55.2608 31.877 55.3812C31.8235 55.3812 29.6448 52.5361 28.7375 51.2808L28.0844 50.3655L28.0684 49.8302C28.0684 49.3912 28.0684 49.2949 28.1112 49.2949C28.154 49.2949 28.4083 49.6134 30.504 52.3434C31.3363 53.414 31.8422 54.051 31.885 54.0429C31.9278 54.0349 32.7683 52.9723 33.7586 51.6743C34.7489 50.3762 35.6 49.3082 35.6321 49.3002C35.6642 49.2922 35.6856 50.0336 35.6749 53.0018V56.7221H35.2975C35.1608 56.7349 35.023 56.7286 34.888 56.7034L34.8854 56.7221Z" fill="#024561"/>
<path d="M38.6243 56.6953C38.6243 56.6659 38.6083 55.0332 38.6243 53.066V49.4929H43.0298V50.2423H41.2366H39.4433L39.4166 50.3414C39.3818 50.4698 39.3818 52.4397 39.4166 52.5682L39.4433 52.6672H41.0492H42.6551V53.4166H41.0492H39.4433L39.4166 53.5157C39.4032 53.5692 39.3898 54.1045 39.3898 54.704C39.3898 55.6354 39.3898 55.8014 39.4594 55.8629C39.529 55.9245 39.7538 55.9325 41.357 55.9325H43.185V56.6819H40.9207C39.1436 56.6819 38.6431 56.6819 38.627 56.6257L38.6243 56.6953Z" fill="#024561"/>
<path d="M27.7734 47.0065L28.7316 44.5093H29.0876L30.11 47.0065H29.7353L29.4436 46.2491H28.3997L28.1321 47.0065H27.7734ZM28.4934 45.9814H29.3419L29.0742 45.2909C28.9939 45.0803 28.935 44.9072 28.8976 44.7716C28.8654 44.9337 28.8206 45.093 28.7637 45.248L28.4934 45.9814Z" fill="#024561"/>
<path d="M30.334 47.689V45.1865H30.6016V45.422C30.6594 45.3377 30.7353 45.2672 30.8238 45.2159C30.917 45.1672 31.0211 45.1432 31.1262 45.1463C31.2718 45.1438 31.4147 45.1858 31.5357 45.2668C31.6567 45.3499 31.7499 45.4674 31.8034 45.604C31.8651 45.7552 31.896 45.9171 31.8944 46.0804C31.8973 46.2524 31.8636 46.423 31.7953 46.5809C31.7406 46.722 31.6445 46.8433 31.5197 46.9289C31.4006 47.0052 31.2623 47.0461 31.1209 47.0466C31.0278 47.0472 30.9359 47.0251 30.8532 46.9824C30.7757 46.9425 30.7073 46.8869 30.6525 46.8191V47.689H30.334ZM30.6016 46.1018C30.587 46.2853 30.6372 46.4681 30.7435 46.6184C30.7842 46.6703 30.8362 46.7122 30.8956 46.741C30.955 46.7697 31.0201 46.7846 31.0861 46.7843C31.1539 46.784 31.2208 46.7682 31.2816 46.738C31.3424 46.7079 31.3954 46.6642 31.4367 46.6104C31.5454 46.4541 31.5965 46.2649 31.5812 46.0751C31.5951 45.8908 31.545 45.7074 31.4394 45.5558C31.3998 45.503 31.3485 45.4601 31.2895 45.4303C31.2305 45.4006 31.1655 45.3849 31.0995 45.3845C31.0314 45.386 30.9645 45.4032 30.9041 45.4347C30.8438 45.4663 30.7915 45.5114 30.7515 45.5665C30.6426 45.7256 30.5933 45.918 30.6123 46.1099L30.6016 46.1018Z" fill="#024561"/>
<path d="M33.4587 46.7817C33.3613 46.8677 33.25 46.9365 33.1295 46.9851C33.0216 47.025 32.9073 47.045 32.7923 47.0439C32.627 47.0551 32.4635 47.0035 32.3346 46.8994C32.2824 46.8528 32.241 46.7954 32.2133 46.7311C32.1855 46.6669 32.1721 46.5973 32.174 46.5274C32.1732 46.4423 32.1944 46.3584 32.2356 46.2838C32.2733 46.2132 32.3275 46.1526 32.3935 46.1072C32.4606 46.0616 32.5347 46.0272 32.6129 46.0055C32.7011 45.9848 32.7905 45.9696 32.8806 45.96C33.062 45.9426 33.2413 45.9077 33.4159 45.8556C33.4159 45.8128 33.4159 45.786 33.4159 45.7753C33.4215 45.7272 33.4168 45.6784 33.402 45.6322C33.3872 45.586 33.3628 45.5436 33.3302 45.5076C33.2308 45.4317 33.1071 45.3945 32.9823 45.4033C32.8709 45.3944 32.7595 45.4206 32.6638 45.4782C32.5839 45.5474 32.53 45.6418 32.5112 45.7459L32.2115 45.7057C32.2317 45.5933 32.2775 45.4871 32.3453 45.3952C32.4158 45.3108 32.5085 45.2477 32.6129 45.2132C32.7447 45.1684 32.8833 45.1467 33.0224 45.149C33.1504 45.1445 33.2782 45.1626 33.3998 45.2025C33.4819 45.2286 33.5557 45.2757 33.6139 45.339C33.6624 45.3998 33.6955 45.4714 33.7103 45.5478C33.7235 45.6418 33.7288 45.7366 33.7264 45.8315V46.241C33.7216 46.4196 33.7278 46.5984 33.7451 46.7763C33.7584 46.8524 33.7847 46.9258 33.8227 46.9931H33.5015C33.4756 46.9255 33.4611 46.854 33.4587 46.7817ZM33.4319 46.0965C33.27 46.1538 33.1021 46.1924 32.9314 46.2116C32.8401 46.2214 32.7503 46.2421 32.6638 46.2731C32.6147 46.2934 32.5728 46.3279 32.5434 46.3721C32.5066 46.4267 32.4912 46.4928 32.5 46.558C32.5089 46.6232 32.5415 46.6828 32.5915 46.7254C32.6678 46.7846 32.7629 46.814 32.8592 46.8084C32.9694 46.8106 33.0783 46.7838 33.175 46.7308C33.2634 46.6835 33.3345 46.6095 33.3784 46.5194C33.4161 46.4213 33.4325 46.3164 33.4266 46.2116L33.4319 46.0965Z" fill="#024561"/>
<path d="M35.3993 46.3508L35.7018 46.3909C35.6788 46.5787 35.5884 46.7518 35.4475 46.878C35.3084 46.9971 35.13 47.0601 34.947 47.0547C34.8359 47.0592 34.7251 47.0398 34.6221 46.9978C34.5191 46.9558 34.4264 46.8921 34.3501 46.8111C34.1887 46.6166 34.1082 46.3675 34.1253 46.1152C34.1212 45.9391 34.154 45.764 34.2217 45.6014C34.2803 45.4618 34.3839 45.3459 34.5161 45.2722C34.6479 45.1992 34.7963 45.1614 34.947 45.1624C35.1201 45.1554 35.2902 45.2084 35.4288 45.3123C35.5583 45.4189 35.644 45.5694 35.6696 45.7352L35.3726 45.7807C35.3522 45.6779 35.2997 45.5841 35.2227 45.513C35.1479 45.4504 35.0525 45.4179 34.955 45.422C34.8837 45.4197 34.8128 45.4334 34.7475 45.4621C34.6821 45.4908 34.6241 45.5338 34.5776 45.588C34.4674 45.7436 34.4162 45.9333 34.4331 46.1233C34.4146 46.3126 34.464 46.5023 34.5723 46.6586C34.6163 46.7121 34.672 46.7549 34.7351 46.7837C34.7982 46.8125 34.867 46.8264 34.9363 46.8245C35.0475 46.8284 35.1559 46.789 35.2387 46.7148C35.3357 46.6177 35.393 46.4879 35.3993 46.3508Z" fill="#024561"/>
<path d="M35.9609 47.0065V44.5093H36.2687V45.406C36.3338 45.3272 36.4156 45.264 36.5082 45.2209C36.6008 45.1778 36.7019 45.156 36.804 45.157C36.9249 45.1546 37.0444 45.1822 37.152 45.2373C37.2451 45.2847 37.3195 45.362 37.3634 45.4568C37.4126 45.5866 37.4344 45.7251 37.4276 45.8636V47.0092H37.1413V45.8636C37.152 45.7436 37.1166 45.6239 37.0422 45.5291C37.0053 45.493 36.9612 45.4651 36.9128 45.4471C36.8644 45.4291 36.8127 45.4215 36.7612 45.4247C36.6672 45.4221 36.5744 45.4463 36.4936 45.4943C36.4167 45.5378 36.3564 45.6056 36.3223 45.687C36.2838 45.7942 36.2666 45.9078 36.2714 46.0216V47.0118L35.9609 47.0065Z" fill="#024561"/>
<path d="M39.1395 46.423L39.4553 46.4632C39.4171 46.6328 39.3228 46.7846 39.1877 46.8941C39.0132 47.0081 38.8058 47.061 38.598 47.0445C38.3903 47.028 38.1938 46.9431 38.0395 46.8031C37.875 46.6141 37.7914 46.368 37.8066 46.1179C37.7906 45.8599 37.875 45.6058 38.0421 45.4086C38.1202 45.3259 38.215 45.2606 38.3202 45.2172C38.4254 45.1739 38.5386 45.1534 38.6524 45.1571C38.7633 45.1531 38.8737 45.173 38.9763 45.2155C39.0788 45.258 39.171 45.322 39.2466 45.4033C39.4102 45.5969 39.4927 45.8462 39.4767 46.0992C39.4767 46.1179 39.4767 46.1447 39.4767 46.1821H38.1385C38.1374 46.3501 38.1973 46.5127 38.3071 46.6398C38.3554 46.6911 38.414 46.7317 38.479 46.7589C38.544 46.7861 38.614 46.7993 38.6845 46.7977C38.788 46.801 38.8896 46.77 38.9736 46.7094C39.0551 46.6318 39.1127 46.5324 39.1395 46.423ZM38.1331 45.9279H39.1448C39.1418 45.8047 39.1017 45.6853 39.0298 45.5853C38.9843 45.5285 38.9264 45.483 38.8605 45.4524C38.7945 45.4217 38.7224 45.4068 38.6497 45.4086C38.5839 45.407 38.5184 45.4187 38.4572 45.4431C38.396 45.4675 38.3404 45.504 38.2937 45.5505C38.1944 45.6514 38.137 45.7863 38.1331 45.9279Z" fill="#024561"/>
<path d="M67.0851 48.2243V47.5712H66.8496V47.4829H67.4358V47.5712H67.1922V48.2243H67.0851Z" fill="#024561"/>
<path d="M67.5234 48.2243V47.4856H67.6706L67.8446 48.0209L67.8794 48.1306L67.9196 48.0129L68.0962 47.499H68.2273V48.2243H68.1337V47.606L67.9196 48.2243H67.8312L67.6171 47.5953V48.2243H67.5234Z" fill="#024561"/>
</g>
</g>
<defs>
<clipPath id="clip0_6744_64970">
<rect width="72" height="48" fill="white" transform="translate(12 8.88)"/>
</clipPath>
<clipPath id="clip1_6744_64970">
<rect width="40.455" height="48" fill="white" transform="translate(27.7734 8.88)"/>
</clipPath>
</defs>
</svg>
