<svg width="96" height="65" viewBox="0 0 96 65" fill="none" xmlns="http://www.w3.org/2000/svg">
<rect width="96" height="64" transform="translate(0 0.880005)" fill="white"/>
<g clip-path="url(#clip0_6744_64960)">
<path d="M66.5803 18.9553C66.1603 18.0879 65.6744 17.2507 65.1105 16.4613L59.0865 18.6536C59.787 19.3706 60.3757 20.1766 60.857 21.0384L66.5803 18.9553ZM39.9516 25.618L33.9258 27.8103C34.0028 28.7767 34.1697 29.7312 34.4035 30.6665L40.1276 28.5824C39.9415 27.6141 39.8755 26.6165 39.9516 25.618Z" fill="#C22133"/>
<path d="M53.3249 17.2487C54.5783 17.8337 55.6639 18.6314 56.5798 19.5666L62.6038 17.3743C60.9351 15.0326 58.6621 13.076 55.8775 11.7767C47.2651 7.76073 36.9904 11.4998 32.9753 20.1113C31.6752 22.8977 31.192 25.8574 31.4194 28.7236L37.4443 26.5314C37.5442 25.2257 37.8624 23.9173 38.4464 22.663C41.0559 17.0681 47.73 14.6402 53.3249 17.2487Z" fill="#DB212E"/>
<path d="M59.7502 28.2574C59.6539 29.5621 59.3247 30.8706 58.7388 32.1258C56.1303 37.7216 49.4553 40.1495 43.8613 37.5409C42.6061 36.9551 41.5123 36.1638 40.6 35.2267L34.5879 37.4144C36.253 39.7562 38.5232 41.7137 41.3096 43.0139C49.922 47.029 60.1949 43.2899 64.2109 34.6775C65.5119 31.8929 65.9915 28.9332 65.7622 26.0697L59.7502 28.2574Z" fill="#DB212E"/>
<path d="M61.2314 20.9023L55.5072 22.9855C56.5708 24.8908 57.0733 27.084 56.9082 29.2901L62.9203 27.1033C62.7479 24.9458 62.173 22.8397 61.2314 20.9023ZM34.7788 30.529L29.0547 32.614C29.5801 34.7008 30.4924 36.6841 31.7467 38.4491L37.7578 36.2605C36.2147 34.6761 35.1887 32.6708 34.7788 30.529Z" fill="#EB2126"/>
<path d="M65.7079 17.3682C65.5181 17.0601 65.321 16.7566 65.111 16.4614L59.087 18.6537C59.352 18.9251 59.5959 19.213 59.8288 19.5082L65.7079 17.3682ZM39.9287 26.8278C39.914 26.4262 39.9204 26.0228 39.9516 25.6185L33.9258 27.8108C33.957 28.1968 34.0056 28.58 34.0633 28.9624L39.9287 26.8278Z" fill="#AD213B"/>
<path d="M65.7613 26.0696L59.7493 28.2573C59.686 29.1228 59.5173 29.9902 59.2413 30.8429L65.7852 28.4572C65.832 27.6576 65.8246 26.8599 65.7613 26.0696ZM34.5879 37.4152C35.0509 38.0671 35.5635 38.6888 36.12 39.2756L42.6648 36.8889C41.9001 36.4103 41.2088 35.8519 40.599 35.2266L34.5879 37.4152Z" fill="#BA2133"/>
<path d="M65.4511 50.163V50.7058H67.0254V55.5131H67.6214V50.7058H69.1966V50.163H65.4511ZM61.836 50.7053V52.4786H63.303V53.0214H61.836V55.5126H61.24V50.1635H64.3813V50.7053H61.836ZM59.1089 50.1636H59.7049V55.5137H59.1089V50.1636ZM56.9786 55.5131V52.9907H54.3187V55.5131H53.7228V50.163H54.3187V52.4488H56.9786V50.163H57.5746V55.5131H56.9786ZM50.6215 55.5971C49.8953 55.5971 49.2452 55.2836 48.8253 54.8563L49.2232 54.4125C49.6275 54.8022 50.0942 55.0553 50.6444 55.0553C51.355 55.0553 51.7987 54.7032 51.7987 54.1375C51.7987 53.6405 51.5008 53.3581 50.5224 53.006C49.3681 52.5934 48.9784 52.2193 48.9784 51.4473C48.9784 50.5909 49.6505 50.0784 50.6517 50.0784C51.3706 50.0784 51.829 50.2929 52.2801 50.6523L51.8978 51.1181C51.5081 50.7972 51.1487 50.6212 50.6141 50.6212C49.8797 50.6212 49.5744 50.9879 49.5744 51.4088C49.5744 51.8526 49.7733 52.1038 50.8433 52.487C52.028 52.9143 52.3947 53.3122 52.3947 54.1072C52.3947 54.948 51.7373 55.5971 50.6215 55.5971ZM46.41 55.5131L44.446 52.5937C44.3158 52.3947 44.1398 52.127 44.071 51.9894C44.071 52.1884 44.0865 52.8605 44.0865 53.1585V55.5131H43.0312V50.163H44.0554L45.9515 52.9907C46.0817 53.1897 46.2568 53.4574 46.3256 53.5949C46.3256 53.396 46.3109 52.7239 46.3109 52.425V50.163H47.3654V55.5131H46.41ZM37.9738 55.5131V50.163H41.6881V51.2101H39.0438V52.1352H40.5805V53.1741H39.0438V54.466H41.8027V55.5131H37.9738ZM34.9335 53.6179H33.7562V55.5132H32.6862V50.1631H35.0252C36.0338 50.1631 36.8672 50.7215 36.8672 51.8593C36.8672 53.0981 36.042 53.6179 34.9335 53.6179ZM34.9877 51.2028H33.7563V52.5782H35.0023C35.4993 52.5782 35.767 52.348 35.767 51.8823C35.767 51.4165 35.4608 51.2028 34.9877 51.2028ZM29.1573 55.5971C27.7581 55.5971 26.8027 54.573 26.8027 52.8456C26.8027 51.1181 27.7737 50.0784 29.1729 50.0784C30.5638 50.0784 31.5192 51.1035 31.5192 52.8309C31.5192 54.5583 30.5482 55.5971 29.1573 55.5971ZM29.15 51.141C28.4009 51.141 27.9039 51.7453 27.9039 52.8309C27.9039 53.9165 28.4238 54.5345 29.1729 54.5345C29.922 54.5345 30.418 53.9312 30.418 52.8456C30.418 51.7599 29.8991 51.141 29.15 51.141Z" fill="#241F21"/>
</g>
<defs>
<clipPath id="clip0_6744_64960">
<rect width="72" height="48" fill="white" transform="translate(12 8.88)"/>
</clipPath>
</defs>
</svg>
