<svg width="480" height="460" viewBox="0 0 480 460" fill="none" xmlns="http://www.w3.org/2000/svg">
<path d="M425.514 207.451C425.891 222.735 424.23 238 420.575 252.832C406.986 307.865 364.774 358.926 311.122 379.195C228.454 410.417 149.341 367.929 100.432 301.095C62.0641 248.692 66.9415 169.407 100.009 115.516C103.476 109.874 107.272 104.446 111.376 99.2609C169.14 26.348 287.19 7.03244 359.452 69.5172C399.68 104.313 424.243 155.112 425.514 207.451Z" fill="#DEDEDE"/>
<path d="M274.145 173.211H352.514C355.65 173.211 358.752 173.878 361.618 175.17C364.484 176.463 367.05 178.351 369.15 180.714C371.251 183.076 372.838 185.86 373.81 188.884C374.782 191.909 375.117 195.106 374.793 198.27C372.581 219.913 365.565 251.721 362.61 277.618C361.357 288.585 356.174 298.702 348.046 306.045C339.918 313.389 329.412 317.445 318.527 317.444H247.773L274.145 173.211Z" fill="#D71034"/>
<path d="M264.385 173.211H339.045C342.181 173.211 345.283 173.878 348.15 175.17C351.016 176.463 353.583 178.351 355.684 180.713C357.785 183.075 359.374 185.859 360.347 188.883C361.32 191.908 361.657 195.106 361.334 198.27C359.123 219.913 355.806 239.511 352.85 265.45C351.598 276.417 346.415 286.534 338.287 293.878C330.159 301.221 319.653 305.278 308.767 305.276H237.973L264.385 173.211Z" fill="#AF0505"/>
<path d="M301.007 318.293H291.852V435.056H301.007V318.293Z" fill="#5E0000"/>
<path d="M266.793 317.371H320.527V317.989C320.527 318.804 320.208 319.585 319.64 320.161C319.073 320.736 318.302 321.06 317.499 321.06H269.821C269.018 321.06 268.248 320.736 267.68 320.161C267.112 319.585 266.793 318.804 266.793 317.989V317.371Z" fill="#5E0000"/>
<path d="M258.895 446.051C258.893 444.465 259.2 442.896 259.797 441.431C260.394 439.966 261.27 438.635 262.374 437.514C263.479 436.393 264.791 435.503 266.234 434.896C267.678 434.289 269.226 433.977 270.788 433.977H325.721C327.289 433.97 328.842 434.277 330.293 434.881C331.743 435.485 333.061 436.373 334.172 437.495C335.283 438.616 336.165 439.95 336.766 441.418C337.368 442.886 337.677 444.461 337.677 446.051V446.522" stroke="#5E0000" stroke-width="2.66" stroke-linecap="round" stroke-linejoin="round"/>
<path d="M315.77 445.935V433.862" stroke="#5E0000" stroke-width="2.66" stroke-miterlimit="10"/>
<path d="M280.059 445.935V433.862" stroke="#5E0000" stroke-width="2.66" stroke-miterlimit="10"/>
<path d="M259.839 451.92C262.932 451.92 265.44 449.376 265.44 446.239C265.44 443.102 262.932 440.559 259.839 440.559C256.746 440.559 254.238 443.102 254.238 446.239C254.238 449.376 256.746 451.92 259.839 451.92Z" fill="#5E0000"/>
<path d="M259.84 448.073C260.838 448.073 261.648 447.252 261.648 446.239C261.648 445.226 260.838 444.405 259.84 444.405C258.841 444.405 258.031 445.226 258.031 446.239C258.031 447.252 258.841 448.073 259.84 448.073Z" stroke="#EFDBDB" stroke-width="0.82" stroke-linecap="round" stroke-linejoin="round"/>
<path d="M280.503 451.92C283.596 451.92 286.104 449.376 286.104 446.239C286.104 443.102 283.596 440.559 280.503 440.559C277.41 440.559 274.902 443.102 274.902 446.239C274.902 449.376 277.41 451.92 280.503 451.92Z" fill="#5E0000"/>
<path d="M280.504 448.073C281.502 448.073 282.312 447.252 282.312 446.239C282.312 445.226 281.502 444.405 280.504 444.405C279.505 444.405 278.695 445.226 278.695 446.239C278.695 447.252 279.505 448.073 280.504 448.073Z" stroke="#EFDBDB" stroke-width="0.82" stroke-linecap="round" stroke-linejoin="round"/>
<path d="M316.8 451.92C319.893 451.92 322.401 449.376 322.401 446.239C322.401 443.102 319.893 440.559 316.8 440.559C313.707 440.559 311.199 443.102 311.199 446.239C311.199 449.376 313.707 451.92 316.8 451.92Z" fill="#5E0000"/>
<path d="M316.801 448.073C317.799 448.073 318.609 447.252 318.609 446.239C318.609 445.226 317.799 444.405 316.801 444.405C315.802 444.405 314.992 445.226 314.992 446.239C314.992 447.252 315.802 448.073 316.801 448.073Z" stroke="#EFDBDB" stroke-width="0.82" stroke-linecap="round" stroke-linejoin="round"/>
<path d="M337.472 451.92C340.565 451.92 343.073 449.376 343.073 446.239C343.073 443.102 340.565 440.559 337.472 440.559C334.379 440.559 331.871 443.102 331.871 446.239C331.871 449.376 334.379 451.92 337.472 451.92Z" fill="#5E0000"/>
<path d="M337.472 448.073C338.471 448.073 339.281 447.252 339.281 446.239C339.281 445.226 338.471 444.405 337.472 444.405C336.474 444.405 335.664 445.226 335.664 446.239C335.664 447.252 336.474 448.073 337.472 448.073Z" stroke="#EFDBDB" stroke-width="0.82" stroke-linecap="round" stroke-linejoin="round"/>
<path d="M155.437 264.601L166.018 450.421C166.028 450.677 165.987 450.932 165.899 451.172C165.812 451.413 165.678 451.633 165.506 451.821C165.335 452.009 165.128 452.16 164.898 452.267C164.669 452.374 164.421 452.434 164.168 452.444C163.916 452.453 163.664 452.412 163.427 452.323C163.191 452.234 162.973 452.099 162.788 451.924C162.603 451.75 162.453 451.541 162.348 451.308C162.243 451.075 162.184 450.824 162.174 450.568L142.055 264.612" fill="white"/>
<path d="M142.055 264.559L155.447 264.612L142.778 271.12L142.055 264.559Z" fill="#5E0000"/>
<path d="M239.996 460C372.541 460 479.991 458.161 479.991 455.892C479.991 453.623 372.541 451.783 239.996 451.783C107.45 451.783 0 453.623 0 455.892C0 458.161 107.45 460 239.996 460Z" fill="#EDA5A5"/>
<path d="M140.845 147.859H88.0511C86.6177 147.859 85.2015 147.541 83.9019 146.928C82.6022 146.314 81.4505 145.42 80.5272 144.308C79.6039 143.196 78.9314 141.893 78.5567 140.489C78.1821 139.086 78.1144 137.616 78.3583 136.184L83.0807 108.788C83.4859 106.479 84.679 104.389 86.4512 102.882C88.2233 101.376 90.4615 100.551 92.7736 100.55H145.578C147.014 100.551 148.432 100.871 149.733 101.487C151.035 102.103 152.188 103 153.111 104.115C154.035 105.23 154.706 106.537 155.079 107.943C155.452 109.35 155.518 110.822 155.271 112.257L150.538 139.642C150.132 141.949 148.938 144.037 147.166 145.54C145.393 147.042 143.155 147.863 140.845 147.859Z" fill="#D71034"/>
<path d="M126.211 143.929H136.968C138.974 143.924 140.922 143.25 142.513 142.011C144.103 140.773 145.249 139.038 145.772 137.075C146.713 133.564 147.064 130.095 147.911 126.814" stroke="#EFDBDB" stroke-width="0.66" stroke-linecap="round" stroke-linejoin="round"/>
<path d="M104.57 144.987L109.737 155.3C109.914 155.752 110.211 156.146 110.593 156.44C110.976 156.733 111.431 156.914 111.908 156.964C112.385 157.014 112.866 156.93 113.3 156.722C113.733 156.513 114.102 156.188 114.366 155.782L122.416 144.568" fill="#D71034"/>
<path d="M101.691 125.976C103.221 125.976 104.461 124.718 104.461 123.167C104.461 121.616 103.221 120.358 101.691 120.358C100.162 120.358 98.9219 121.616 98.9219 123.167C98.9219 124.718 100.162 125.976 101.691 125.976Z" stroke="#EFDBDB" stroke-width="0.66" stroke-miterlimit="10"/>
<path d="M119.641 123.167C119.643 123.725 119.482 124.271 119.178 124.736C118.874 125.201 118.44 125.564 117.933 125.779C117.425 125.994 116.866 126.051 116.326 125.944C115.786 125.836 115.29 125.569 114.9 125.175C114.51 124.781 114.244 124.278 114.136 123.731C114.028 123.184 114.083 122.617 114.293 122.101C114.503 121.585 114.859 121.144 115.316 120.834C115.774 120.524 116.312 120.358 116.862 120.358C117.597 120.358 118.303 120.654 118.824 121.18C119.345 121.707 119.639 122.421 119.641 123.167Z" stroke="#EFDBDB" stroke-width="0.66" stroke-miterlimit="10"/>
<path d="M131.93 125.976C133.459 125.976 134.699 124.718 134.699 123.167C134.699 121.616 133.459 120.358 131.93 120.358C130.4 120.358 129.16 121.616 129.16 123.167C129.16 124.718 130.4 125.976 131.93 125.976Z" stroke="#EFDBDB" stroke-width="0.66" stroke-miterlimit="10"/>
<path d="M148.809 122.622C149.088 121.28 149.367 119.939 149.656 118.608" stroke="#EFDBDB" stroke-width="0.66" stroke-linecap="round" stroke-linejoin="round"/>
<path d="M243.536 83.8093C246.988 69.149 238.068 54.4265 223.613 50.9258C209.159 47.4251 194.643 56.4718 191.191 71.1322C187.739 85.7925 196.659 100.515 211.114 104.016C225.569 107.516 240.085 98.4697 243.536 83.8093Z" fill="#F4F4F4"/>
<path d="M234.435 79.2956V76.4449C234.435 76.0891 234.296 75.7479 234.048 75.4963C233.8 75.2447 233.463 75.1034 233.113 75.1034H231.924C231.437 75.0957 230.964 74.9327 230.572 74.6374C230.181 74.3421 229.891 73.9295 229.744 73.4579C229.661 73.2169 229.568 72.9653 229.465 72.7243C229.281 72.2439 229.253 71.7166 229.385 71.219C229.517 70.7213 229.802 70.2794 230.199 69.9574L231.025 69.2867C231.159 69.1761 231.27 69.0397 231.352 68.8855C231.434 68.7312 231.485 68.5621 231.502 68.3878C231.52 68.2136 231.503 68.0375 231.453 67.8698C231.403 67.7021 231.321 67.5461 231.211 67.4107L229.403 65.1574C229.295 65.0208 229.161 64.9072 229.009 64.8233C228.857 64.7393 228.691 64.6865 228.519 64.668C228.347 64.6495 228.173 64.6656 228.008 64.7154C227.842 64.7652 227.687 64.8477 227.553 64.9582L226.52 65.8176C226.102 66.1515 225.597 66.3517 225.066 66.3927C224.536 66.4338 224.006 66.3139 223.544 66.0482C223.008 65.7532 222.452 65.4975 221.88 65.2831C221.373 65.1052 220.931 64.7737 220.615 64.3333C220.299 63.8929 220.124 63.3648 220.113 62.8202V61.6254C220.113 61.4671 220.082 61.3104 220.023 61.1642C219.963 61.018 219.875 60.8851 219.765 60.7732C219.655 60.6613 219.524 60.5725 219.38 60.5119C219.235 60.4513 219.081 60.4202 218.925 60.4202H215.825C215.669 60.4202 215.514 60.4513 215.37 60.5119C215.226 60.5725 215.095 60.6613 214.984 60.7732C214.874 60.8851 214.787 61.018 214.727 61.1642C214.667 61.3104 214.636 61.4671 214.636 61.6254V62.8202C214.629 63.3494 214.462 63.8635 214.157 64.2929C213.852 64.7223 213.424 65.046 212.931 65.2202C212.299 65.4582 211.684 65.7419 211.092 66.0692C210.652 66.3275 210.146 66.4457 209.639 66.4083C209.132 66.3709 208.648 66.1797 208.25 65.8596L207.382 65.1364C207.041 64.8553 206.603 64.7228 206.165 64.768C205.728 64.8131 205.326 65.0323 205.047 65.3774L203.673 67.0963C203.395 67.4427 203.265 67.8864 203.309 68.3303C203.354 68.7742 203.57 69.1821 203.91 69.4648L204.768 70.167C205.101 70.4567 205.335 70.8464 205.435 71.2798C205.536 71.7132 205.497 72.1677 205.326 72.5776C205.192 72.9129 205.057 73.2588 204.944 73.6256C204.811 74.0375 204.556 74.3977 204.214 74.6567C203.872 74.9157 203.459 75.0607 203.032 75.0719H201.678C201.327 75.0719 200.991 75.2133 200.743 75.4648C200.495 75.7164 200.355 76.0576 200.355 76.4134V79.2956C200.355 79.6514 200.495 79.9926 200.743 80.2442C200.991 80.4957 201.327 80.6371 201.678 80.6371H203.249C203.641 80.6372 204.023 80.763 204.34 80.9963C204.657 81.2297 204.894 81.5588 205.016 81.9366C205.192 82.4397 205.388 82.9847 205.605 83.4039C205.777 83.7574 205.836 84.1568 205.773 84.5459C205.71 84.9351 205.528 85.2944 205.254 85.5734L204.169 86.6738C204.044 86.8004 203.944 86.9507 203.877 87.1161C203.809 87.2816 203.774 87.4589 203.774 87.638C203.774 87.8172 203.809 87.9945 203.877 88.16C203.944 88.3254 204.044 88.4757 204.169 88.6023L206.153 90.6145C206.277 90.7413 206.426 90.8418 206.589 90.9104C206.752 90.9791 206.927 91.0144 207.103 91.0144C207.28 91.0144 207.455 90.9791 207.618 90.9104C207.781 90.8418 207.929 90.7413 208.054 90.6145L208.591 90.0695C208.969 89.6774 209.458 89.4158 209.991 89.3217C210.523 89.2277 211.071 89.306 211.557 89.5455C212.018 89.7774 212.49 89.9838 212.973 90.1638C213.468 90.3505 213.895 90.6888 214.193 91.1318C214.491 91.5749 214.646 92.101 214.636 92.6372V93.308C214.636 93.4713 214.668 93.633 214.73 93.7837C214.792 93.9344 214.883 94.0712 214.997 94.1862C215.111 94.3012 215.247 94.3921 215.396 94.4536C215.545 94.5151 215.705 94.5461 215.866 94.5447H218.966C219.289 94.5447 219.6 94.4144 219.828 94.1825C220.057 93.9506 220.185 93.636 220.185 93.308V92.4067C220.189 91.9129 220.346 91.4328 220.634 91.0341C220.921 90.6355 221.324 90.3384 221.787 90.1848C222.342 89.9816 222.884 89.7436 223.41 89.4721C223.864 89.2439 224.379 89.1726 224.878 89.2691C225.376 89.3656 225.829 89.6246 226.169 90.0066L226.851 90.7508C226.973 90.885 227.121 90.9934 227.285 91.0697C227.449 91.146 227.627 91.1888 227.807 91.1956C227.987 91.2024 228.167 91.1731 228.337 91.1094C228.506 91.0457 228.661 90.9487 228.793 90.8241L230.798 88.9272C230.93 88.8026 231.037 88.6529 231.112 88.4864C231.188 88.32 231.23 88.1402 231.237 87.9572C231.243 87.7742 231.214 87.5917 231.152 87.42C231.089 87.2484 230.993 87.091 230.87 86.9568L229.775 85.762C229.451 85.4005 229.24 84.9498 229.168 84.4667C229.096 83.9836 229.167 83.4898 229.372 83.0476C229.486 82.8065 229.579 82.555 229.672 82.3035C229.865 81.8088 230.202 81.3851 230.637 81.0877C231.072 80.7904 231.586 80.6333 232.11 80.6371H233.144C233.489 80.6289 233.818 80.4839 234.059 80.2332C234.3 79.9825 234.435 79.646 234.435 79.2956ZM217.364 84.41C216.052 84.41 214.77 84.0154 213.679 83.2761C212.588 82.5368 211.737 81.4859 211.235 80.2564C210.733 79.027 210.602 77.6741 210.858 76.3689C211.114 75.0637 211.746 73.8648 212.673 72.9238C213.601 71.9828 214.783 71.342 216.07 71.0824C217.357 70.8227 218.691 70.956 219.903 71.4653C221.115 71.9745 222.152 72.8369 222.88 73.9434C223.609 75.0499 223.999 76.3508 223.999 77.6816C224 78.5655 223.829 79.4411 223.496 80.2581C223.163 81.075 222.675 81.8173 222.058 82.4424C221.442 83.0675 220.71 83.563 219.905 83.9007C219.099 84.2383 218.236 84.4114 217.364 84.41Z" fill="#D71034"/>
<path d="M389.149 223.497C388.842 223.5 388.539 223.571 388.261 223.704C387.984 223.838 387.738 224.031 387.542 224.27C387.345 224.509 387.202 224.789 387.123 225.09C387.043 225.391 387.029 225.705 387.082 226.012L390.657 246.785C390.965 248.064 391.687 249.201 392.709 250.015C393.73 250.828 394.991 251.27 396.289 251.27H405.765C407.084 251.269 408.363 250.813 409.392 249.977C410.421 249.141 411.139 247.974 411.428 246.669L414.218 225.939C414.268 225.636 414.251 225.326 414.17 225.03C414.089 224.734 413.945 224.46 413.748 224.228C413.55 223.995 413.305 223.808 413.029 223.682C412.753 223.556 412.454 223.493 412.151 223.497H389.149Z" fill="#5E0000"/>
<path d="M393.16 236.503C393.16 237.608 392.837 238.688 392.232 239.607C391.627 240.525 390.766 241.241 389.76 241.664C388.754 242.087 387.646 242.197 386.578 241.982C385.509 241.766 384.528 241.234 383.758 240.453C382.987 239.672 382.463 238.677 382.25 237.593C382.038 236.509 382.147 235.386 382.564 234.365C382.981 233.345 383.687 232.472 384.592 231.859C385.498 231.245 386.563 230.917 387.652 230.917C389.113 230.917 390.514 231.506 391.547 232.553C392.58 233.601 393.16 235.022 393.16 236.503Z" stroke="#5E0000" stroke-width="2" stroke-linecap="round" stroke-linejoin="round"/>
<path d="M406.119 223.434C405.938 222.335 405.981 221.209 406.246 220.128C406.511 219.046 406.991 218.031 407.659 217.146C408.857 215.668 410.407 214.484 411.234 212.723C412.181 210.693 412.477 208.413 412.081 206.204C411.663 203.729 410.37 201.494 408.444 199.916C405.83 197.903 402.688 198.291 399.588 198.124C399.185 198.124 398.782 198.071 398.369 198.019C393.595 197.369 391.91 193.827 389.069 188.67C388.459 191.147 388.184 193.696 388.252 196.248C388.291 197.527 388.585 198.785 389.118 199.946C389.651 201.106 390.411 202.144 391.352 202.997C394.639 205.67 399.557 203.469 403.05 205.879C404.161 206.709 404.977 207.882 405.375 209.222C405.737 211.256 403.753 214.138 401.789 214.641C399.826 215.144 397.801 214.955 396.054 216.035C394.308 217.114 393.729 219.441 393.729 221.516C393.729 222.69 393.729 223.507 393.729 223.507" fill="#F4F4F4"/>
<path d="M388.34 232.143L413.223 232.228" stroke="#EFDBDB" stroke-width="0.82" stroke-linecap="round" stroke-linejoin="round"/>
<path d="M389.801 240.088H412.018" stroke="#EFDBDB" stroke-width="0.82" stroke-linecap="round" stroke-linejoin="round"/>
<path d="M410.129 243.148C410.542 238.893 410.949 234.638 411.348 230.383" stroke="#EFDBDB" stroke-width="0.82" stroke-linecap="round" stroke-linejoin="round"/>
<path d="M137.661 60.7765L137.744 60.7136C137.842 60.642 137.925 60.5513 137.988 60.4469C138.05 60.3425 138.092 60.2265 138.111 60.1055C138.129 59.9846 138.123 59.8611 138.094 59.7424C138.065 59.6237 138.013 59.5121 137.94 59.414L133.249 52.8742C133.104 52.6738 132.887 52.5394 132.646 52.5001C132.404 52.4609 132.156 52.52 131.957 52.6646C131.314 53.1397 130.585 53.4813 129.811 53.6695C129.038 53.8577 128.235 53.8889 127.449 53.7613C126.664 53.6337 125.911 53.3498 125.234 52.926C124.557 52.5021 123.969 51.9467 123.504 51.2916L118.462 44.2802C117.993 43.6288 117.656 42.8901 117.47 42.1065C117.284 41.3228 117.251 40.5096 117.375 39.7133C117.499 38.917 117.776 38.1532 118.192 37.4658C118.607 36.7784 119.152 36.1808 119.795 35.7071C119.893 35.6345 119.976 35.5429 120.039 35.4376C120.102 35.3323 120.144 35.2154 120.162 35.0936C120.18 34.9718 120.175 34.8475 120.145 34.728C120.116 34.6084 120.064 34.4959 119.991 34.3971L116.209 29.1568C116.065 28.9587 115.849 28.8267 115.609 28.7893C115.369 28.752 115.124 28.8125 114.928 28.9577L114.845 29.0206C113.526 29.9926 112.409 31.2189 111.558 32.6293C110.707 34.0397 110.138 35.6064 109.885 37.2399C109.632 38.8734 109.698 40.5415 110.081 42.1488C110.464 43.7561 111.156 45.271 112.117 46.6068L120.322 58.0201C121.281 59.357 122.491 60.4889 123.882 61.3511C125.273 62.2133 126.817 62.7889 128.428 63.0449C130.039 63.3009 131.683 63.2323 133.267 62.8431C134.852 62.4539 136.345 61.7516 137.661 60.7765Z" fill="#5E0000"/>
<path d="M136.548 41.398C137.975 41.398 139.132 40.225 139.132 38.7779C139.132 37.3308 137.975 36.1578 136.548 36.1578C135.121 36.1578 133.965 37.3308 133.965 38.7779C133.965 40.225 135.121 41.398 136.548 41.398Z" stroke="#D71034" stroke-miterlimit="10"/>
<path d="M156.181 41.398C157.608 41.398 158.764 40.225 158.764 38.7779C158.764 37.3308 157.608 36.1578 156.181 36.1578C154.754 36.1578 153.598 37.3308 153.598 38.7779C153.598 40.225 154.754 41.398 156.181 41.398Z" stroke="#D71034" stroke-miterlimit="10"/>
<path d="M145.845 41.398C147.272 41.398 148.428 40.225 148.428 38.7779C148.428 37.3308 147.272 36.1578 145.845 36.1578C144.418 36.1578 143.262 37.3308 143.262 38.7779C143.262 40.225 144.418 41.398 145.845 41.398Z" stroke="#5E0000" stroke-miterlimit="10"/>
<path d="M360.41 131.688L361.919 142.64C362.208 144.788 363.882 145.438 365.236 143.918L373.74 134.381" fill="#5E0000"/>
<path d="M404.514 136.938H331.146C330.161 136.938 329.189 136.711 328.302 136.276C327.415 135.841 326.637 135.209 326.025 134.426C325.413 133.643 324.983 132.73 324.768 131.755C324.552 130.78 324.557 129.768 324.781 128.795L329.948 106.419C330.283 104.965 331.094 103.668 332.247 102.74C333.401 101.811 334.83 101.306 336.303 101.305H409.671C410.656 101.303 411.629 101.528 412.517 101.962C413.404 102.397 414.183 103.03 414.795 103.814C415.407 104.597 415.835 105.511 416.048 106.487C416.261 107.463 416.254 108.476 416.026 109.448L410.859 131.834C410.522 133.285 409.712 134.578 408.561 135.504C407.409 136.43 405.984 136.936 404.514 136.938Z" fill="#5E0000"/>
<path d="M396.137 133.406H401.128C402.608 133.404 404.044 132.902 405.212 131.98C406.379 131.057 407.211 129.767 407.576 128.313L409.219 121.7" stroke="#EFDBDB" stroke-width="0.66" stroke-linecap="round" stroke-linejoin="round"/>
<path d="M410.008 118.43C410.183 117.644 410.359 116.858 410.524 116.072" stroke="#EFDBDB" stroke-width="0.66" stroke-linecap="round" stroke-linejoin="round"/>
<path d="M341.668 108.473H404.806" stroke="#EFDBDB" stroke-width="0.66" stroke-linecap="round" stroke-linejoin="round"/>
<path d="M339.086 116.858H380.43" stroke="#EFDBDB" stroke-width="0.66" stroke-linecap="round" stroke-linejoin="round"/>
<path d="M337.016 124.194H390.791" stroke="#EFDBDB" stroke-width="0.66" stroke-linecap="round" stroke-linejoin="round"/>
<path d="M291.55 18.8649H218.523C216.056 18.8649 213.691 17.8711 211.947 16.1022C210.202 14.3333 209.223 11.9341 209.223 9.43246C209.223 6.93082 210.202 4.53163 211.947 2.7627C213.691 0.993775 216.056 0 218.523 0H291.55C294.016 0 296.382 0.993775 298.126 2.7627C299.87 4.53163 300.85 6.93082 300.85 9.43246C300.85 11.9341 299.87 14.3333 298.126 16.1022C296.382 17.8711 294.016 18.8649 291.55 18.8649Z" fill="#D71034"/>
<path d="M226.912 5.22978L228.069 7.59838C228.092 7.64525 228.125 7.68591 228.167 7.71693C228.208 7.74794 228.256 7.76839 228.307 7.77655L230.88 8.15385C230.937 8.16404 230.991 8.1898 231.035 8.22838C231.078 8.26696 231.111 8.31691 231.129 8.37289C231.147 8.42886 231.15 8.48875 231.137 8.54617C231.124 8.60358 231.096 8.65635 231.056 8.69883L229.175 10.5434C229.136 10.5778 229.107 10.6222 229.091 10.672C229.074 10.7218 229.071 10.7751 229.082 10.8264L229.516 13.4255C229.527 13.4843 229.522 13.5452 229.5 13.601C229.479 13.6567 229.442 13.7051 229.394 13.7403C229.346 13.7755 229.29 13.7962 229.231 13.7998C229.172 13.8035 229.113 13.79 229.061 13.7609L226.778 12.5137C226.734 12.488 226.684 12.4744 226.633 12.4744C226.582 12.4744 226.532 12.488 226.488 12.5137L224.184 13.74C224.132 13.769 224.074 13.7825 224.015 13.7789C223.956 13.7752 223.899 13.7546 223.851 13.7193C223.803 13.6841 223.767 13.6358 223.745 13.58C223.723 13.5242 223.718 13.4634 223.729 13.4046L224.163 10.8054C224.174 10.7541 224.171 10.7008 224.155 10.6511C224.139 10.6013 224.109 10.5569 224.07 10.5224L222.21 8.67787C222.17 8.63539 222.142 8.58262 222.129 8.5252C222.116 8.46779 222.119 8.4079 222.137 8.35192C222.155 8.29595 222.188 8.246 222.232 8.20742C222.275 8.16884 222.329 8.14307 222.386 8.13289L224.959 7.75559C225.01 7.74743 225.058 7.72698 225.099 7.69596C225.141 7.66495 225.174 7.62429 225.197 7.57742L226.354 5.20882C226.381 5.15655 226.423 5.11313 226.473 5.08357C226.524 5.054 226.581 5.03947 226.64 5.04166C226.698 5.04385 226.754 5.06266 226.803 5.09594C226.851 5.12922 226.889 5.17561 226.912 5.22978Z" fill="#F4F4F4"/>
<path d="M241.119 5.22979L242.266 7.59838C242.29 7.64426 242.324 7.68409 242.365 7.71494C242.406 7.74578 242.454 7.76684 242.504 7.77655L245.077 8.15385C245.134 8.16404 245.187 8.1898 245.231 8.22838C245.275 8.26696 245.308 8.31691 245.326 8.37289C245.344 8.42886 245.347 8.48876 245.334 8.54617C245.321 8.60358 245.293 8.65635 245.253 8.69884L243.393 10.5434C243.355 10.5791 243.327 10.6236 243.311 10.673C243.295 10.7224 243.291 10.7751 243.3 10.8264L243.744 13.4255C243.752 13.4848 243.745 13.5453 243.722 13.6003C243.698 13.6554 243.661 13.7029 243.613 13.7376C243.564 13.7723 243.508 13.7928 243.449 13.7969C243.39 13.8011 243.331 13.7886 243.279 13.7609L240.985 12.5137C240.939 12.488 240.887 12.4746 240.835 12.4746C240.783 12.4746 240.731 12.488 240.685 12.5137L238.381 13.74C238.329 13.769 238.27 13.7825 238.211 13.7789C238.152 13.7752 238.096 13.7546 238.048 13.7193C238 13.6841 237.963 13.6358 237.942 13.58C237.92 13.5242 237.915 13.4634 237.926 13.4046L238.37 10.8054C238.377 10.7542 238.372 10.7022 238.356 10.6532C238.339 10.6043 238.313 10.5596 238.277 10.5224L236.407 8.69884C236.363 8.65872 236.332 8.60672 236.316 8.54897C236.3 8.49123 236.301 8.43012 236.318 8.37286C236.336 8.3156 236.369 8.26457 236.414 8.22577C236.459 8.18697 236.514 8.16202 236.572 8.15385L239.156 7.77655C239.205 7.7649 239.252 7.74307 239.293 7.71243C239.334 7.68179 239.368 7.64297 239.393 7.59838L240.54 5.22979C240.566 5.17429 240.607 5.1274 240.659 5.09458C240.71 5.06175 240.769 5.04433 240.83 5.04433C240.89 5.04433 240.95 5.06175 241.001 5.09458C241.052 5.1274 241.093 5.17429 241.119 5.22979Z" fill="#F4F4F4"/>
<path d="M255.322 5.22979L256.469 7.59839C256.495 7.64298 256.529 7.68179 256.57 7.71243C256.611 7.74308 256.657 7.7649 256.707 7.77655L259.29 8.15385C259.348 8.16404 259.401 8.18981 259.445 8.22839C259.489 8.26697 259.521 8.31692 259.539 8.37289C259.557 8.42886 259.56 8.48876 259.547 8.54617C259.534 8.60358 259.506 8.65635 259.466 8.69884L257.596 10.5434C257.56 10.5805 257.534 10.6252 257.517 10.6742C257.501 10.7232 257.496 10.7752 257.503 10.8264L257.947 13.4255C257.958 13.4843 257.953 13.5452 257.931 13.601C257.91 13.6567 257.873 13.7051 257.825 13.7403C257.777 13.7755 257.721 13.7962 257.662 13.7999C257.603 13.8035 257.544 13.79 257.492 13.7609L255.188 12.5137C255.142 12.4881 255.09 12.4746 255.038 12.4746C254.986 12.4746 254.934 12.4881 254.888 12.5137L252.594 13.74C252.542 13.7676 252.483 13.7801 252.424 13.776C252.365 13.7719 252.309 13.7513 252.26 13.7166C252.212 13.6819 252.175 13.6344 252.151 13.5794C252.128 13.5243 252.121 13.4638 252.129 13.4046L252.574 10.8054C252.582 10.7541 252.578 10.7014 252.562 10.652C252.546 10.6026 252.518 10.5581 252.481 10.5224L250.62 8.67788C250.58 8.63539 250.552 8.58262 250.539 8.52521C250.526 8.4678 250.529 8.4079 250.547 8.35193C250.565 8.29595 250.598 8.24601 250.642 8.20742C250.686 8.16884 250.739 8.14308 250.796 8.13289L253.369 7.75559C253.419 7.74588 253.467 7.72482 253.508 7.69398C253.549 7.66314 253.583 7.6233 253.607 7.57742L254.754 5.20883C254.783 5.15703 254.825 5.11427 254.876 5.08522C254.928 5.05618 254.986 5.04197 255.044 5.04413C255.103 5.04629 255.16 5.06475 255.209 5.09749C255.258 5.13023 255.297 5.176 255.322 5.22979Z" fill="#F4F4F4"/>
<path d="M269.48 5.2298L270.637 7.5984C270.66 7.64527 270.693 7.68593 270.735 7.71694C270.776 7.74795 270.824 7.7684 270.875 7.77656L273.448 8.15386C273.505 8.16405 273.559 8.18982 273.603 8.2284C273.646 8.26698 273.679 8.31693 273.697 8.3729C273.715 8.42887 273.718 8.48877 273.705 8.54618C273.692 8.60359 273.664 8.65636 273.624 8.69885L271.764 10.5434C271.725 10.5778 271.696 10.6223 271.679 10.672C271.663 10.7218 271.66 10.7751 271.671 10.8264L272.105 13.4256C272.116 13.4843 272.111 13.5452 272.089 13.601C272.068 13.6567 272.031 13.7051 271.983 13.7403C271.935 13.7755 271.878 13.7962 271.82 13.7999C271.761 13.8035 271.702 13.79 271.65 13.7609L269.387 12.5138C269.343 12.488 269.293 12.4744 269.242 12.4744C269.192 12.4744 269.142 12.488 269.098 12.5138L266.793 13.74C266.742 13.769 266.683 13.7826 266.624 13.7789C266.565 13.7752 266.508 13.7546 266.461 13.7193C266.413 13.6841 266.376 13.6358 266.354 13.58C266.333 13.5242 266.327 13.4634 266.339 13.4046L266.773 10.8054C266.784 10.7541 266.781 10.7008 266.764 10.6511C266.748 10.6013 266.719 10.5569 266.68 10.5225L264.82 8.67789C264.78 8.6354 264.751 8.58263 264.739 8.52522C264.726 8.46781 264.728 8.40791 264.746 8.35194C264.764 8.29596 264.797 8.24602 264.841 8.20743C264.885 8.16885 264.938 8.14309 264.995 8.1329L267.568 7.7556C267.619 7.74744 267.667 7.72699 267.709 7.69598C267.75 7.66497 267.784 7.62431 267.806 7.57743L268.963 5.20884C268.993 5.16669 269.033 5.13273 269.079 5.10999C269.125 5.08724 269.176 5.07642 269.227 5.0785C269.279 5.08057 269.328 5.09548 269.372 5.12188C269.417 5.14829 269.454 5.18536 269.48 5.2298Z" fill="#F4F4F4"/>
<path d="M283.723 5.22979L284.87 7.59839C284.894 7.64426 284.928 7.6841 284.969 7.71494C285.01 7.74578 285.058 7.76684 285.108 7.77655L287.681 8.15385C287.738 8.16404 287.791 8.1898 287.835 8.22839C287.879 8.26697 287.912 8.31691 287.93 8.37289C287.948 8.42886 287.951 8.48876 287.938 8.54617C287.925 8.60358 287.897 8.65635 287.857 8.69884L286.007 10.5434C285.969 10.5791 285.941 10.6236 285.925 10.673C285.909 10.7224 285.905 10.7751 285.914 10.8264L286.358 13.4255C286.367 13.4848 286.359 13.5453 286.336 13.6003C286.313 13.6554 286.275 13.7029 286.227 13.7376C286.179 13.7723 286.122 13.7928 286.063 13.797C286.004 13.8011 285.946 13.7886 285.893 13.7609L283.589 12.5137C283.543 12.4881 283.491 12.4746 283.439 12.4746C283.387 12.4746 283.335 12.4881 283.289 12.5137L280.985 13.74C280.933 13.769 280.874 13.7825 280.815 13.7789C280.756 13.7752 280.7 13.7546 280.652 13.7193C280.604 13.6841 280.567 13.6358 280.546 13.58C280.524 13.5242 280.519 13.4634 280.53 13.4046L280.974 10.8054C280.981 10.7542 280.976 10.7022 280.96 10.6532C280.943 10.6043 280.917 10.5596 280.881 10.5224L279.011 8.67788C278.971 8.63539 278.943 8.58262 278.93 8.52521C278.917 8.4678 278.92 8.4079 278.938 8.35193C278.956 8.29595 278.988 8.24601 279.032 8.20742C279.076 8.16884 279.13 8.14308 279.187 8.13289L281.77 7.75559C281.82 7.74394 281.866 7.72211 281.907 7.69147C281.948 7.66083 281.982 7.62201 282.008 7.57742L283.155 5.20883C283.184 5.15703 283.226 5.11427 283.277 5.08522C283.329 5.05618 283.387 5.04197 283.445 5.04413C283.504 5.04629 283.561 5.06475 283.61 5.09749C283.659 5.13023 283.698 5.176 283.723 5.22979Z" fill="#F4F4F4"/>
<path d="M73.2148 263.155L51.5971 450.285C51.5699 450.539 51.5925 450.797 51.6635 451.042C51.7345 451.288 51.8525 451.517 52.0109 451.717C52.1692 451.916 52.3647 452.082 52.5863 452.205C52.8078 452.328 53.0511 452.406 53.3021 452.433C53.5532 452.461 53.8071 452.438 54.0494 452.366C54.2917 452.294 54.5177 452.174 54.7144 452.013C54.9111 451.853 55.0747 451.655 55.1959 451.43C55.317 451.205 55.3933 450.958 55.4205 450.704L86.576 264.046" fill="white"/>
<path d="M73.0459 264.559L86.7791 264.612L72.2812 270.942L73.0459 264.559Z" fill="#5E0000"/>
<path d="M437.766 263.155L459.384 452.056C459.41 452.31 459.387 452.568 459.315 452.813C459.244 453.059 459.125 453.288 458.966 453.487C458.808 453.686 458.612 453.851 458.39 453.973C458.168 454.095 457.925 454.172 457.674 454.199C457.423 454.226 457.169 454.202 456.927 454.13C456.685 454.057 456.459 453.937 456.263 453.776C456.067 453.615 455.903 453.416 455.783 453.191C455.662 452.966 455.587 452.719 455.56 452.464L424.395 264.046" fill="white"/>
<path d="M424.406 264.559H438.026L425.584 271.33L424.406 264.559Z" fill="#5E0000"/>
<path d="M355.06 264.559L345.326 449.991C345.3 450.256 345.327 450.524 345.407 450.778C345.486 451.031 345.616 451.266 345.789 451.467C345.961 451.668 346.172 451.831 346.409 451.946C346.646 452.06 346.904 452.125 347.166 452.135C347.428 452.145 347.69 452.1 347.935 452.004C348.18 451.907 348.402 451.761 348.589 451.574C348.776 451.387 348.923 451.163 349.021 450.916C349.119 450.669 349.166 450.404 349.16 450.138L368.68 264.559" fill="white"/>
<path d="M355.06 264.559H368.68L354.75 271.33L355.06 264.559Z" fill="#5E0000"/>
<path d="M451.75 251.354H50.7891V264.601H451.75V251.354Z" fill="#FF5C5C"/>
<path d="M294.737 251.354H40.0469V264.601H294.737V251.354Z" fill="#D71034"/>
<path d="M210.95 165.938C210.952 166.631 210.751 167.309 210.372 167.887C209.994 168.464 209.455 168.914 208.824 169.18C208.193 169.447 207.498 169.517 206.827 169.382C206.157 169.247 205.541 168.914 205.058 168.424C204.574 167.933 204.246 167.309 204.113 166.629C203.98 165.949 204.049 165.244 204.312 164.604C204.574 163.964 205.018 163.417 205.587 163.033C206.156 162.65 206.825 162.446 207.509 162.448C207.96 162.448 208.408 162.538 208.825 162.714C209.243 162.889 209.622 163.146 209.942 163.47C210.261 163.794 210.515 164.179 210.688 164.602C210.861 165.026 210.95 165.48 210.95 165.938Z" stroke="#EFDBDB" stroke-width="0.82" stroke-miterlimit="10"/>
<path d="M305.641 88.3821C305.643 89.0749 305.442 89.7527 305.064 90.3298C304.686 90.9068 304.148 91.3571 303.518 91.6236C302.887 91.8902 302.193 91.961 301.523 91.8271C300.853 91.6933 300.237 91.3607 299.753 90.8716C299.269 90.3824 298.939 89.7587 298.805 89.0794C298.671 88.4001 298.739 87.6957 299 87.0555C299.261 86.4152 299.703 85.8679 300.271 85.4828C300.839 85.0977 301.507 84.8921 302.19 84.8921C303.103 84.8921 303.98 85.2595 304.627 85.9137C305.273 86.5679 305.638 87.4556 305.641 88.3821Z" stroke="#EFDBDB" stroke-width="0.82" stroke-miterlimit="10"/>
<path d="M389.711 161.4C389.711 162.093 389.509 162.77 389.129 163.346C388.749 163.922 388.21 164.37 387.578 164.635C386.947 164.9 386.253 164.968 385.583 164.832C384.913 164.696 384.298 164.362 383.816 163.871C383.334 163.381 383.006 162.756 382.874 162.076C382.742 161.397 382.811 160.692 383.074 160.053C383.337 159.414 383.781 158.868 384.35 158.484C384.919 158.101 385.587 157.897 386.27 157.899C386.723 157.899 387.171 157.99 387.59 158.166C388.008 158.342 388.388 158.6 388.707 158.925C389.027 159.25 389.28 159.636 389.452 160.061C389.625 160.486 389.713 160.941 389.711 161.4Z" stroke="#EFDBDB" stroke-width="0.82" stroke-miterlimit="10"/>
<path d="M141.711 176.418C143.611 176.418 145.152 174.856 145.152 172.928C145.152 171.001 143.611 169.438 141.711 169.438C139.81 169.438 138.27 171.001 138.27 172.928C138.27 174.856 139.81 176.418 141.711 176.418Z" stroke="#EFDBDB" stroke-width="0.82" stroke-miterlimit="10"/>
<path d="M173.118 157.26C173.118 157.733 172.98 158.195 172.721 158.588C172.462 158.981 172.094 159.287 171.664 159.468C171.233 159.649 170.76 159.696 170.303 159.604C169.846 159.511 169.426 159.284 169.096 158.95C168.767 158.616 168.542 158.19 168.452 157.726C168.361 157.263 168.407 156.782 168.586 156.346C168.764 155.909 169.066 155.536 169.453 155.273C169.841 155.011 170.296 154.87 170.762 154.87C171.387 154.87 171.986 155.122 172.428 155.57C172.87 156.019 173.118 156.626 173.118 157.26Z" stroke="#EFDBDB" stroke-width="0.82" stroke-miterlimit="10"/>
<path d="M229.892 135.89C229.892 136.363 229.754 136.825 229.495 137.218C229.236 137.611 228.868 137.917 228.437 138.098C228.007 138.279 227.533 138.326 227.076 138.234C226.619 138.142 226.199 137.914 225.87 137.58C225.54 137.246 225.316 136.82 225.225 136.356C225.134 135.893 225.181 135.412 225.359 134.976C225.537 134.539 225.839 134.166 226.227 133.903C226.614 133.641 227.07 133.501 227.536 133.501C228.161 133.501 228.76 133.752 229.202 134.201C229.644 134.649 229.892 135.257 229.892 135.89Z" stroke="#EFDBDB" stroke-width="0.82" stroke-miterlimit="10"/>
<path d="M169.243 78.9497C169.243 79.4223 169.105 79.8843 168.846 80.2773C168.587 80.6702 168.219 80.9765 167.789 81.1574C167.358 81.3382 166.885 81.3855 166.428 81.2933C165.971 81.2011 165.551 80.9736 165.221 80.6394C164.892 80.3052 164.667 79.8794 164.577 79.4159C164.486 78.9524 164.532 78.4719 164.711 78.0353C164.889 77.5986 165.191 77.2254 165.578 76.9629C165.966 76.7003 166.421 76.5602 166.887 76.5602C167.512 76.5602 168.111 76.8119 168.553 77.26C168.995 77.7082 169.243 78.316 169.243 78.9497Z" stroke="#EFDBDB" stroke-width="0.82" stroke-miterlimit="10"/>
<path d="M358.716 159.65C358.716 160.122 358.578 160.584 358.319 160.977C358.06 161.37 357.692 161.676 357.262 161.857C356.831 162.038 356.357 162.085 355.9 161.993C355.443 161.901 355.023 161.673 354.694 161.339C354.364 161.005 354.14 160.579 354.049 160.116C353.958 159.652 354.005 159.172 354.183 158.735C354.362 158.299 354.664 157.925 355.051 157.663C355.438 157.4 355.894 157.26 356.36 157.26C356.985 157.26 357.584 157.512 358.026 157.96C358.468 158.408 358.716 159.016 358.716 159.65Z" stroke="#EFDBDB" stroke-width="0.82" stroke-miterlimit="10"/>
<path d="M88.6379 194.581C88.6379 195.054 88.4997 195.516 88.2408 195.909C87.9819 196.302 87.6139 196.608 87.1834 196.789C86.7529 196.97 86.2792 197.017 85.8222 196.925C85.3652 196.833 84.9453 196.605 84.6158 196.271C84.2864 195.937 84.062 195.511 83.9711 195.047C83.8801 194.584 83.9268 194.103 84.1051 193.667C84.2834 193.23 84.5854 192.857 84.9729 192.594C85.3603 192.332 85.8158 192.192 86.2818 192.192C86.9067 192.192 87.506 192.443 87.9478 192.891C88.3896 193.34 88.6379 193.947 88.6379 194.581Z" stroke="#EFDBDB" stroke-width="0.82" stroke-miterlimit="10"/>
<path d="M182.152 120.033V112.624" stroke="#EFDBDB" stroke-width="0.82" stroke-linecap="round" stroke-linejoin="round"/>
<path d="M178.5 116.334H185.806" stroke="#EFDBDB" stroke-width="0.82" stroke-linecap="round" stroke-linejoin="round"/>
<path d="M263.441 57.8524V50.4427" stroke="#EFDBDB" stroke-width="0.82" stroke-linecap="round" stroke-linejoin="round"/>
<path d="M259.785 54.1423H267.091" stroke="#EFDBDB" stroke-width="0.82" stroke-linecap="round" stroke-linejoin="round"/>
<path d="M329.578 157.061V149.651" stroke="#EFDBDB" stroke-width="0.82" stroke-linecap="round" stroke-linejoin="round"/>
<path d="M325.918 153.361H333.224" stroke="#EFDBDB" stroke-width="0.82" stroke-linecap="round" stroke-linejoin="round"/>
<path d="M94.6562 229.031V221.621" stroke="#EFDBDB" stroke-width="0.82" stroke-linecap="round" stroke-linejoin="round"/>
<path d="M91.0078 225.331H98.3136" stroke="#EFDBDB" stroke-width="0.82" stroke-linecap="round" stroke-linejoin="round"/>
<path d="M127.039 286.328V278.918" stroke="#EFDBDB" stroke-width="0.82" stroke-linecap="round" stroke-linejoin="round"/>
<path d="M123.383 282.617H130.689" stroke="#EFDBDB" stroke-width="0.82" stroke-linecap="round" stroke-linejoin="round"/>
<path d="M219.765 415.898C219.166 411.978 217.151 406.79 216.293 402.923C216.768 402.619 235.007 395.692 239.533 394.245L244.483 415.364" fill="#FF7D7D"/>
<path d="M222.101 293.171H214.713C221.674 308.11 227.825 323.424 233.137 339.044C245.775 376.69 248.555 396.844 248.555 396.844L197.838 408.677L164.771 287.334C164.771 287.334 158.984 273.457 167.406 264.381H240.546L222.101 293.171Z" fill="#5E0000"/>
<path d="M244.863 415.028L251.321 451.836H233.754L231.088 438.641L222.315 451.836H190.715L190.663 449.74C190.608 447.597 191.263 445.498 192.524 443.778C193.785 442.058 195.579 440.817 197.618 440.255C205.885 438.033 216.725 432.342 219.639 415.888" fill="#5E0000"/>
<path d="M219.155 428.181L216.613 425.257C218.597 424.88 220.075 424 222.049 423.622C220.592 422.826 218.876 421.83 217.419 421.034C219.259 420.321 222.834 418.665 222.834 418.665" stroke="white" stroke-linecap="round" stroke-linejoin="round"/>
<path d="M156.84 409.578C156.84 409.578 165.189 396.195 167.556 393.04C168.093 393.218 185.04 402.934 189.049 405.522L176.277 422.941" fill="#FF7D7D"/>
<path d="M179.671 419.157L165.204 453.534L150.54 443.808L155.428 431.294L140.961 437.446L114.477 419.923L115.572 418.099C116.684 416.274 118.368 414.881 120.355 414.143C122.341 413.406 124.514 413.367 126.525 414.032C134.637 416.757 146.779 418.026 158.105 405.868" fill="#5E0000"/>
<path d="M152.378 416.254C151.561 414.779 150.83 413.257 150.188 411.695C152.368 412.02 154.507 412.45 156.698 412.743C155.933 410.941 155.034 408.928 154.269 407.126C156.222 407.933 158.196 408.562 160.149 409.369" stroke="white" stroke-linecap="round" stroke-linejoin="round"/>
<path d="M283.551 297.825H300.405C312.392 297.825 324.658 291.935 325.65 279.83C325.934 274.434 324.705 269.067 322.105 264.35H238.404C238.404 264.35 208.592 291.599 185.104 323.324C155.23 363.611 145.578 382.476 145.578 382.476L195.179 412.712L269.663 305.14C271.229 302.88 273.309 301.036 275.726 299.763C278.143 298.489 280.827 297.825 283.551 297.825Z" fill="#D00025"/>
<path d="M190.797 408.991C216.558 373.976 241.379 335.953 266.727 300.057C269.941 295.508 275.408 293.171 280.915 293.025L313.394 292.123" stroke="#5E0000" stroke-width="0.89" stroke-linecap="round" stroke-linejoin="round"/>
<path d="M156.129 371.104L203.363 400.156" stroke="#5E0000" stroke-width="0.89" stroke-linecap="round" stroke-linejoin="round"/>
<path d="M233.383 279.872L240.864 271.739" stroke="#5E0000" stroke-width="0.89" stroke-linecap="round" stroke-linejoin="round"/>
<path d="M239.913 276.696C238.342 279.708 237.062 282.867 236.09 286.128" stroke="#5E0000" stroke-width="0.89" stroke-linecap="round" stroke-linejoin="round"/>
<path d="M154.543 379.856L168.039 360.467" stroke="#5E0000" stroke-width="0.89" stroke-linecap="round" stroke-linejoin="round"/>
<path d="M327.273 186.647C326.983 178.955 325.609 173.295 319.574 167.332C317.205 164.843 314.485 162.724 311.504 161.044C307.143 158.832 301.47 157.899 297.316 155.95L291.116 148.31L279.387 149.41L271.276 147.712C265.964 158.109 248.097 158.602 239.242 167.3C233.197 173.264 231.833 178.923 231.543 186.616C230.779 206.697 233.465 251.323 233.465 251.323H322.395C322.395 251.323 328.037 206.728 327.273 186.647Z" fill="#F4F4F4"/>
<g opacity="0.44">
<mask id="mask0_831_20896" style="mask-type:luminance" maskUnits="userSpaceOnUse" x="231" y="147" width="119" height="105">
<path d="M349.185 230.802C346.216 218.671 342.418 206.764 337.818 195.168C334.449 186.878 330.584 178.661 324.952 171.765C319.496 165.12 312.139 159.765 303.8 158.078C301.582 157.476 299.413 156.706 297.31 155.772L291.11 148.132L279.382 149.18L271.229 147.524C265.917 157.91 248.051 158.402 239.195 167.112C233.15 173.065 231.786 178.735 231.496 186.417C230.732 206.508 233.418 251.134 233.418 251.134H322.348C322.348 251.134 322.462 250.254 322.648 248.692L333.56 249.499C335.914 249.69 338.278 249.31 340.459 248.391C342.639 247.472 344.572 246.04 346.099 244.213C347.625 242.386 348.701 240.217 349.238 237.885C349.774 235.553 349.756 233.125 349.185 230.802Z" fill="white"/>
</mask>
<g mask="url(#mask0_831_20896)">
<path d="M325.113 263.931V147.744" stroke="#D6B0B0" stroke-width="0.97" stroke-linecap="round" stroke-linejoin="round"/>
<path d="M306.09 261.206V147.744" stroke="#D6B0B0" stroke-width="0.97" stroke-linecap="round" stroke-linejoin="round"/>
<path d="M287.066 264.266V147.744" stroke="#D6B0B0" stroke-width="0.97" stroke-linecap="round" stroke-linejoin="round"/>
<path d="M267.965 257.475L268.099 147.744" stroke="#D6B0B0" stroke-width="0.97" stroke-linecap="round" stroke-linejoin="round"/>
<path d="M249.016 265.314V147.744" stroke="#D6B0B0" stroke-width="0.97" stroke-linecap="round" stroke-linejoin="round"/>
<path d="M217.934 173.568H344.209" stroke="#D6B0B0" stroke-width="0.97" stroke-linecap="round" stroke-linejoin="round"/>
<path d="M217.934 190.892H344.209" stroke="#D6B0B0" stroke-width="0.97" stroke-linecap="round" stroke-linejoin="round"/>
<path d="M217.934 208.898H344.209" stroke="#D6B0B0" stroke-width="0.97" stroke-linecap="round" stroke-linejoin="round"/>
<path d="M217.934 226.903L344.209 227.92" stroke="#D6B0B0" stroke-width="0.97" stroke-linecap="round" stroke-linejoin="round"/>
<path d="M217.934 244.909H344.209" stroke="#D6B0B0" stroke-width="0.97" stroke-linecap="round" stroke-linejoin="round"/>
</g>
</g>
<path d="M244.273 212.23C245.079 222.48 246.578 234.774 248.169 244.93" stroke="#5E0000" stroke-width="0.89" stroke-linecap="round" stroke-linejoin="round"/>
<path d="M275.379 159.084L279.688 166.64" stroke="#5E0000" stroke-width="0.89" stroke-linecap="round" stroke-linejoin="round"/>
<path d="M275.341 159.126L269.978 165.54L265.121 155.52" stroke="#5E0000" stroke-width="0.89" stroke-linecap="round" stroke-linejoin="round"/>
<path d="M279.738 166.525L296.014 156.537" stroke="#5E0000" stroke-width="0.89" stroke-linecap="round" stroke-linejoin="round"/>
<path d="M275.402 159.597C275.526 169.407 268.561 178.986 266.339 188.534C264.696 195.577 265.492 202.934 266.339 210.113C267.028 215.647 267.717 221.167 268.406 226.672" stroke="#5E0000" stroke-width="0.89" stroke-linecap="round" stroke-linejoin="round"/>
<path d="M249.489 161.148C248.684 164.16 248.216 167.254 248.094 170.371" stroke="#5E0000" stroke-width="0.89" stroke-linecap="round" stroke-linejoin="round"/>
<path d="M228.031 197.935C228.476 190.599 228.92 185.358 231.617 178.515C234.314 171.671 242.085 163.129 248.492 161.222C243.097 174.846 240.018 221.202 246.425 250.662H230.718" fill="#F4F4F4"/>
<path d="M262.14 237.981C263.859 239.467 265.71 240.79 267.668 241.932C269.477 243.085 274.375 244.133 276.504 244.133H279.604L277.537 229.177C277.403 229.177 277.661 229.177 277.537 229.177H275.904C270.087 228.129 263.979 226.452 258.244 224.985C252.284 227.638 246.798 231.276 242.01 235.749C241.756 235.977 241.559 236.264 241.437 236.586C241.314 236.907 241.269 237.254 241.305 237.596C241.342 237.939 241.458 238.268 241.646 238.555C241.833 238.843 242.086 239.081 242.382 239.249L242.61 239.375C242.53 239.597 242.503 239.835 242.53 240.069C242.557 240.304 242.637 240.529 242.765 240.727C243.364 241.775 244.47 241.722 245.41 241.775C246.35 241.827 248.262 240.622 248.262 240.622C248.262 240.622 249.151 241.838 249.771 241.775C252.397 241.471 254.974 240.826 257.438 239.857C258.782 239.406 262.14 237.981 262.14 237.981Z" fill="#FF7D7D"/>
<path d="M242.238 239.176C246.372 236.339 250.436 233.366 254.432 230.257" stroke="#5E0000" stroke-width="0.89" stroke-linecap="round" stroke-linejoin="round"/>
<path d="M249.681 241.513C249.341 241.474 249.023 241.325 248.775 241.086C248.527 240.848 248.363 240.534 248.306 240.192C248.248 239.784 248.31 239.367 248.485 238.994C248.66 238.621 248.939 238.309 249.288 238.096C253.058 235.578 256.674 232.83 260.117 229.869" stroke="#5E0000" stroke-width="0.89" stroke-linecap="round" stroke-linejoin="round"/>
<path d="M274.747 240.129C271.997 239.846 269.38 238.786 267.194 237.069C266.722 236.699 266.156 236.474 265.562 236.422C264.968 236.37 264.372 236.493 263.845 236.776C261.241 238.149 258.679 239.375 255.94 240.591C255.729 240.694 255.498 240.749 255.263 240.751C255.029 240.753 254.797 240.702 254.584 240.602C254.372 240.501 254.184 240.354 254.034 240.171C253.884 239.988 253.776 239.773 253.719 239.543C253.714 239.455 253.714 239.368 253.719 239.281C253.719 238.652 265.489 229.921 265.489 229.921" stroke="#5E0000" stroke-width="0.89" stroke-linecap="round" stroke-linejoin="round"/>
<path d="M302.887 158.067C311.609 159.534 319.297 165.047 324.96 171.943C330.622 178.839 334.456 187.046 337.825 195.336C342.425 206.931 346.223 218.838 349.192 230.969C351.692 240.947 343.477 250.736 333.33 251.186C312.074 252.14 280.763 251.511 280.763 251.354L276.578 215.72L293.628 216.768L306.876 218.487C306.876 218.487 295.819 189.697 297.08 171.87C297.286 168.736 302.887 158.067 302.887 158.067Z" fill="#F4F4F4"/>
<path d="M307.318 218.508C307.318 218.508 295.693 190.211 297.687 172.499C298.72 163.58 303.133 159.251 303.133 159.251" stroke="#5E0000" stroke-width="0.89" stroke-linecap="round" stroke-linejoin="round"/>
<path d="M316.702 218.707L276.566 215.72L280.41 251.291" stroke="#5E0000" stroke-width="0.89" stroke-linecap="round" stroke-linejoin="round"/>
<path d="M293.102 216.947L294.734 251.354" stroke="#5E0000" stroke-width="0.89" stroke-linecap="round" stroke-linejoin="round"/>
<path d="M297.957 182.298C297.643 178.353 298.238 174.389 299.696 170.718C301.155 167.047 303.435 163.771 306.358 161.148" stroke="#5E0000" stroke-width="0.89" stroke-linecap="round" stroke-linejoin="round"/>
<path d="M307.051 217.984L314.284 213.331" stroke="#5E0000" stroke-width="0.89" stroke-linecap="round" stroke-linejoin="round"/>
<path d="M336.508 248.42C338.727 247.689 340.756 246.463 342.444 244.83C344.133 243.197 345.438 241.2 346.263 238.987" stroke="#5E0000" stroke-width="0.89" stroke-linecap="round" stroke-linejoin="round"/>
<path d="M291.663 149.19L269.684 150.804L269.766 127.024H291.281L291.663 149.19Z" fill="#FF8989"/>
<path d="M291.663 149.19L275.336 159.126L269.684 150.856C269.684 150.856 274.53 140.491 280.513 140.491C286.496 140.491 291.663 149.19 291.663 149.19Z" fill="#FF8989"/>
<path d="M290.02 132.285L269.684 149.043V141.256" fill="#5E0000"/>
<path d="M274.439 99.0408C272.155 106.147 265.821 111.471 259.238 114.814C260.53 107.279 265.48 99.7221 274.439 99.0408Z" fill="#5E0000"/>
<path d="M292.968 120.568C292.855 126.206 291.832 132.201 287.502 136.121C285.324 137.998 282.803 139.422 280.082 140.313C276.073 141.738 270.855 142.954 266.649 141.78C261.833 140.428 259.643 135.785 258.816 131.132C258.272 127.745 258.119 124.305 258.361 120.882C258.95 109.27 264.861 99.481 274.895 99.481C288.773 99.502 293.175 108.934 292.968 120.568Z" fill="#FF7D7D"/>
<path d="M297.954 123.607C297.768 127.16 295.04 129.895 291.888 129.707C288.737 129.518 286.319 126.51 286.515 122.957C286.711 119.404 289.429 116.669 292.591 116.847C295.753 117.025 298.151 120.096 297.954 123.607Z" fill="#FF7D7D"/>
<path d="M261.978 122.308C261.982 122.744 261.884 123.174 261.694 123.565C261.503 123.956 261.225 124.296 260.881 124.558C260.537 124.82 260.138 124.997 259.715 125.074C259.291 125.151 258.856 125.126 258.444 125.001L258.289 124.938C258.289 124.938 258.227 123.45 258.289 121.983C258.362 120.694 258.475 119.614 258.475 119.614L258.692 119.562C258.867 119.54 259.044 119.54 259.219 119.562C259.942 119.562 260.636 119.849 261.152 120.363C261.668 120.876 261.965 121.575 261.978 122.308Z" fill="#FF6363"/>
<path d="M282.992 122.308C282.994 122.864 282.833 123.408 282.529 123.872C282.226 124.335 281.794 124.697 281.287 124.911C280.781 125.125 280.223 125.181 279.685 125.073C279.147 124.965 278.652 124.698 278.264 124.304C277.876 123.911 277.612 123.409 277.506 122.863C277.399 122.318 277.455 121.752 277.666 121.238C277.877 120.725 278.233 120.286 278.69 119.978C279.147 119.67 279.684 119.507 280.233 119.509C280.964 119.512 281.664 119.808 282.181 120.332C282.698 120.856 282.989 121.566 282.992 122.308Z" fill="#FF6363"/>
<path d="M270.362 116.826C268.853 119.038 266.942 121.584 267.148 122.905C267.276 123.562 267.639 124.147 268.168 124.548C268.697 124.949 269.353 125.136 270.011 125.074" stroke="#5E0000" stroke-width="0.97" stroke-linecap="round" stroke-linejoin="round"/>
<path d="M265.826 119.415C265.826 119.583 265.777 119.747 265.685 119.887C265.593 120.026 265.463 120.135 265.31 120.199C265.157 120.264 264.988 120.28 264.826 120.248C264.664 120.215 264.515 120.134 264.398 120.015C264.28 119.897 264.201 119.745 264.168 119.581C264.136 119.416 264.153 119.245 264.216 119.09C264.279 118.935 264.387 118.802 264.524 118.709C264.662 118.616 264.824 118.566 264.989 118.566C265.211 118.566 265.424 118.655 265.581 118.815C265.738 118.974 265.826 119.19 265.826 119.415Z" fill="#5E0000"/>
<path d="M275.678 119.415C275.678 119.583 275.629 119.747 275.537 119.887C275.445 120.026 275.314 120.135 275.161 120.199C275.008 120.264 274.84 120.28 274.678 120.248C274.515 120.215 274.366 120.134 274.249 120.015C274.132 119.897 274.052 119.745 274.02 119.581C273.988 119.416 274.004 119.245 274.068 119.09C274.131 118.935 274.238 118.802 274.376 118.709C274.514 118.616 274.675 118.566 274.841 118.566C275.063 118.566 275.276 118.655 275.433 118.815C275.59 118.974 275.678 119.19 275.678 119.415Z" fill="#5E0000"/>
<path d="M265.762 129.12C266.593 129.868 267.613 130.368 268.708 130.562C269.803 130.756 270.929 130.638 271.962 130.22" stroke="#5E0000" stroke-width="0.97" stroke-linecap="round" stroke-linejoin="round"/>
<path d="M304.931 141.026C302.73 142.312 300.115 142.66 297.662 141.992C295.209 141.323 293.118 139.694 291.849 137.462C289.203 132.82 295.352 126.049 295.352 124.194C295.352 121.805 305.788 123.146 308.434 127.757C309.703 129.988 310.048 132.639 309.391 135.127C308.734 137.615 307.13 139.737 304.931 141.026Z" fill="#5E0000"/>
<path d="M298.934 125.483C298.841 120.162 297.677 114.915 295.514 110.066C293.189 105.308 289.252 101.189 284.271 99.5858C280.587 98.5155 276.687 98.4648 272.977 99.4391C276.547 102.072 279.831 105.083 282.773 108.421C287.97 114.175 292.042 121.972 298.934 125.483Z" fill="#5E0000"/>
<path d="M293.048 117.466C283.603 117.015 273.229 109.27 270.242 100.173C273.032 98.96 276.111 98.6045 279.098 99.1504C282.085 99.6963 284.848 101.119 287.044 103.243C290.723 106.639 292.79 109.982 293.048 117.466Z" fill="#5E0000"/>
<path d="M272.038 103.61C268.981 107.547 265.375 111.01 261.333 113.892C260.238 114.657 258.698 115.359 257.695 114.468C257.424 114.163 257.223 113.801 257.107 113.408C256.991 113.014 256.962 112.6 257.024 112.194C257.106 110.391 258.274 108.065 259.091 106.451C260.067 104.38 261.55 102.597 263.4 101.273C264.597 100.49 265.913 99.9131 267.295 99.5649C269.473 98.8744 271.819 98.9632 273.94 99.8164" fill="#5E0000"/>
<path d="M292.07 136.247C292.845 140.439 296.204 143.866 299.562 144.233C301.291 144.354 303.018 143.979 304.546 143.151C306.074 142.322 307.341 141.073 308.201 139.548C309.03 138.008 309.524 136.306 309.651 134.556C309.777 132.806 309.533 131.049 308.935 129.403" stroke="#5E0000" stroke-width="0.89" stroke-linecap="round" stroke-linejoin="round"/>
<path d="M271.217 103.055C270.669 111.838 280.672 116.292 288.019 114.3" stroke="#5E0000" stroke-width="0.89" stroke-linecap="round" stroke-linejoin="round"/>
<path d="M258.17 114.049C257.677 113.55 257.301 112.946 257.068 112.28C256.836 111.615 256.753 110.905 256.827 110.203C257.075 103.631 265.166 95.9176 271.573 100.833" stroke="#5E0000" stroke-width="0.89" stroke-linecap="round" stroke-linejoin="round"/>
<path d="M276.543 131.604H280.397C284.996 130.776 291.434 127.904 294.441 124.267" stroke="#5E0000" stroke-width="0.89" stroke-linecap="round" stroke-linejoin="round"/>
<path d="M279.649 132.799H276.808C276.473 132.799 276.153 132.664 275.916 132.424C275.68 132.184 275.547 131.859 275.547 131.52C275.55 131.183 275.684 130.86 275.92 130.623C276.156 130.385 276.475 130.252 276.808 130.252H279.649C279.982 130.252 280.301 130.385 280.537 130.623C280.773 130.86 280.907 131.183 280.91 131.52C280.91 131.688 280.877 131.854 280.814 132.009C280.751 132.164 280.658 132.305 280.541 132.424C280.424 132.543 280.285 132.637 280.132 132.701C279.979 132.765 279.815 132.799 279.649 132.799Z" fill="#F4F4F4"/>
<path d="M295.683 121.804C295.683 124.33 294.65 126.982 292.883 127.915H290.661C287.882 127.915 285.629 125.179 285.629 121.804C285.629 118.43 287.882 115.684 290.661 115.684H292.635C294.588 116.522 295.683 119.132 295.683 121.804Z" fill="#CC9A9A"/>
<path d="M288.904 119.52C289.488 114.724 288.258 109.882 285.463 105.968C283.083 102.707 279.814 100.222 276.059 98.8207L275.688 98.695V98.1709L279.397 98.2338C284.016 98.2338 289.452 104.616 290.878 109.06C292.304 113.504 292.531 118.262 292.944 122.926" fill="#CC9A9A"/>
<path d="M297.517 121.804C297.517 125.179 295.264 127.915 292.495 127.915C289.725 127.915 287.473 125.179 287.473 121.804C287.473 118.43 289.715 115.684 292.495 115.684C295.274 115.684 297.517 118.419 297.517 121.804Z" fill="#F4F4F4"/>
<path d="M290.33 119.52C290.914 114.724 289.684 109.882 286.889 105.968C284.099 102.112 280.327 99.0199 275.688 98.1709H280.854C282.973 98.6113 284.959 99.5521 286.651 100.917C289.193 103.101 291.149 105.903 292.335 109.06C293.761 113.514 293.988 118.262 294.401 122.926" fill="#F4F4F4"/>
<path d="M294.461 121.846C294.376 122.178 294.201 122.479 293.956 122.715C293.711 122.951 293.406 123.113 293.075 123.182C292.744 123.251 292.401 123.224 292.084 123.106C291.767 122.987 291.489 122.781 291.282 122.51C291.075 122.239 290.947 121.915 290.912 121.574C290.877 121.233 290.937 120.89 291.085 120.582C291.233 120.274 291.463 120.014 291.75 119.832C292.036 119.65 292.366 119.552 292.704 119.551C293.233 119.629 293.711 119.912 294.038 120.34C294.366 120.768 294.517 121.308 294.461 121.846Z" stroke="#5E0000" stroke-width="0.89" stroke-linecap="round" stroke-linejoin="round"/>
<path d="M225.777 251.354H279.966L279.295 245.495H225.777V251.354Z" fill="#662121"/>
<path d="M235.832 251.354L206.205 193.166C205.544 191.866 204.542 190.775 203.31 190.014C202.078 189.252 200.663 188.849 199.22 188.848H124.219C123.466 188.848 122.725 189.044 122.067 189.416C121.409 189.788 120.855 190.324 120.459 190.974C120.062 191.624 119.836 192.365 119.802 193.129C119.767 193.892 119.925 194.652 120.262 195.336L145.062 245.999C145.989 247.629 147.323 248.983 148.931 249.923C150.538 250.863 152.362 251.357 154.218 251.354H235.832Z" fill="#662121"/>
<path d="M229.47 251.354L199.844 193.166C199.182 191.866 198.18 190.775 196.948 190.014C195.716 189.252 194.301 188.849 192.858 188.848H117.858C117.105 188.851 116.366 189.048 115.709 189.421C115.053 189.794 114.501 190.33 114.105 190.979C113.709 191.628 113.482 192.368 113.446 193.13C113.411 193.893 113.567 194.652 113.9 195.336L138.7 245.999C139.627 247.629 140.962 248.983 142.569 249.923C144.177 250.863 146 251.357 147.856 251.354H229.47Z" fill="#5E0000"/>
<path d="M200.116 203.049L197.016 196.918C196.354 195.619 195.352 194.53 194.119 193.77C192.887 193.01 191.473 192.609 190.03 192.611H168.578" stroke="#EFDBDB" stroke-width="0.66" stroke-linecap="round" stroke-linejoin="round"/>
<path d="M167.648 224.524C170.324 226.285 173.579 226.023 174.881 223.937C176.183 221.851 175.14 218.697 172.474 216.957C169.808 215.217 166.542 215.458 165.24 217.544C163.938 219.63 164.971 222.753 167.648 224.524Z" stroke="#EFDBDB" stroke-width="0.82" stroke-miterlimit="10"/>
<path d="M354.592 73.3636H314.064C313.459 73.3613 312.862 73.2246 312.316 72.9631C311.769 72.7015 311.285 72.3215 310.899 71.8498C310.513 71.3781 310.233 70.8263 310.08 70.2331C309.927 69.6399 309.904 69.0199 310.013 68.4168L311.594 59.676L313.309 50.2436C313.485 49.2814 313.988 48.412 314.729 47.7861C315.471 47.1602 316.405 46.8172 317.37 46.8165H357.898C358.503 46.8187 359.1 46.9554 359.646 47.217C360.193 47.4785 360.677 47.8585 361.063 48.3302C361.449 48.8019 361.729 49.3538 361.882 49.947C362.035 50.5401 362.058 51.1601 361.949 51.7633L360.471 59.9066L358.653 69.9469C358.474 70.9072 357.971 71.7741 357.23 72.398C356.488 73.0218 355.555 73.3634 354.592 73.3636Z" fill="#D71034"/>
<path d="M313.941 46.806L333.916 61.835L362.85 46.806" stroke="#EFDBDB" stroke-width="0.66" stroke-miterlimit="10"/>
<path d="M315.32 70.7434H337.558" stroke="#EFDBDB" stroke-width="0.66" stroke-linecap="round" stroke-linejoin="round"/>
<path d="M340.637 70.7434H344.295" stroke="#EFDBDB" stroke-width="0.66" stroke-linecap="round" stroke-linejoin="round"/>
</svg>
