<svg width="61" height="54" viewBox="0 0 61 54" fill="none" xmlns="http://www.w3.org/2000/svg">
<path d="M32.5211 46.11H28.6211V50.91H32.5211V46.11Z" fill="#0E3242"/>
<path d="M56.1831 0.59998H4.9671C4.36332 0.59919 3.76532 0.717519 3.20735 0.94821C2.64938 1.1789 2.14241 1.51742 1.71548 1.94436C1.28854 2.37129 0.950037 2.87826 0.719346 3.43623C0.488655 3.9942 0.370308 4.5922 0.371098 5.19598V41.514C0.371098 42.1175 0.489968 42.7152 0.720939 43.2728C0.95191 43.8304 1.29046 44.3371 1.71723 44.7638C2.14401 45.1906 2.65067 45.5292 3.20828 45.7601C3.76589 45.9911 4.36354 46.11 4.9671 46.11H56.1831C57.4015 46.1084 58.5696 45.6237 59.4312 44.7621C60.2928 43.9005 60.7775 42.7324 60.7791 41.514V5.19598C60.7799 4.5922 60.6616 3.9942 60.4309 3.43623C60.2002 2.87826 59.8617 2.37129 59.4347 1.94436C59.0078 1.51742 58.5008 1.1789 57.9428 0.94821C57.3849 0.717519 56.7869 0.59919 56.1831 0.59998Z" fill="#2C5871"/>
<path d="M56.8593 4.43994H4.28125V42.2879H56.8593V4.43994Z" fill="#A2D3F4"/>
<path d="M40.3682 50.91H20.7901C20.4698 50.8719 20.1471 50.9593 19.8898 51.154C19.6325 51.3486 19.4606 51.6353 19.4102 51.954V53.004H41.7481V51.96C41.6991 51.6402 41.5277 51.352 41.2703 51.1562C41.0128 50.9603 40.6894 50.872 40.3682 50.91Z" fill="#2C5871"/>
<path d="M30.5588 16.194C23.6383 16.194 17.0012 18.9432 12.1076 23.8367C7.21402 28.7303 4.46484 35.3674 4.46484 42.288H56.6648C56.6648 38.8602 55.9895 35.4661 54.6774 32.2995C53.3653 29.1328 51.4422 26.2557 49.0178 23.8325C46.5935 21.4093 43.7155 19.4875 40.5483 18.1768C37.381 16.8662 33.9866 16.1924 30.5588 16.194Z" fill="#14B0BF"/>
<path d="M56.859 42.222C56.854 39.9341 56.5494 37.6567 55.953 35.448C54.5442 30.2351 51.5649 25.5822 47.4198 22.1215C43.2746 18.6608 38.1646 16.56 32.784 16.1045C27.4033 15.649 22.0129 16.8609 17.345 19.5756C12.6771 22.2903 8.958 26.3761 6.693 31.278C5.10621 34.7334 4.2874 38.4917 4.293 42.294H5.74499C5.72121 38.6584 6.49541 35.0618 8.01299 31.758C8.57553 30.5588 9.22736 29.4035 9.96299 28.302C9.98777 28.1932 10.0219 28.0868 10.065 27.984C10.1644 27.6483 10.3311 27.3363 10.5549 27.0671C10.7788 26.7978 11.0551 26.577 11.367 26.418C13.6859 23.5883 16.6014 21.3059 19.905 19.734C21.1423 19.1454 22.4268 18.6617 23.745 18.288C25.341 18.93 26.643 19.938 26.571 21.648C26.499 23.22 25.689 23.988 24.945 25.248C24.021 26.82 25.323 28.962 24.345 30.606C23.919 31.35 23.145 31.848 22.719 32.604C22.3275 33.3183 22.0252 34.0779 21.819 34.866C21.615 35.562 21.501 36.864 20.841 37.266C20.181 37.668 18.039 37.542 17.367 37.056C16.545 36.456 15.771 34.002 15.609 33.018C15.393 31.572 16.611 30.708 16.545 29.418C16.455 27.864 14.493 27.312 13.407 26.658C13.1151 26.4468 12.7753 26.3116 12.4181 26.2645C12.0609 26.2173 11.6977 26.2598 11.361 26.388C10.863 26.988 10.401 27.624 9.957 28.272C9.675 29.808 11.757 30.594 12.765 31.392C13.605 32.052 15.393 33.192 15.165 34.182C14.979 34.95 14.625 35.1 14.145 34.842C14.007 34.77 13.863 34.32 13.665 34.2C13.2195 34.1096 12.7605 34.1096 12.315 34.2C10.971 34.272 10.317 35.724 9.91499 36.96C9.31499 38.682 11.409 39.096 12.495 38.016C13.095 37.416 13.005 35.616 14.295 36.216C14.8276 36.5498 15.3332 36.9249 15.807 37.338C16.4557 37.8566 17.058 38.4308 17.607 39.054C19.221 40.668 17.349 41.388 16.029 42.336H26.355C25.6351 41.616 25.1822 40.6721 25.071 39.66C24.951 38.832 25.119 37.26 26.271 37.488C26.745 37.572 26.913 38.298 27.471 38.16C27.909 38.046 27.879 37.404 28.035 37.068C28.4651 36.3579 28.9678 35.6943 29.535 35.088C30.291 34.074 30.861 32.154 32.283 31.842C33.483 31.578 33.801 32.7 34.353 33.534C34.767 34.164 35.103 34.77 35.991 34.482C36.747 34.236 36.555 33.684 36.543 32.916C36.543 31.65 36.801 30.468 36.801 29.202C36.801 27.156 38.397 26.466 40.365 27.156C40.575 28.302 39.051 28.956 38.439 29.748C37.557 30.858 38.595 32.064 39.873 31.308C40.215 31.11 40.473 30.432 40.773 30.144C41.1759 29.7812 41.6141 29.4596 42.081 29.184C42.5936 28.8722 43.1363 28.6129 43.701 28.41C44.901 27.954 46.311 28.344 47.409 27.966L47.571 28.302C47.955 28.524 48.243 28.944 48.675 29.07C49.227 29.085 49.7784 29.0223 50.313 28.884C50.7875 28.857 51.2626 28.9243 51.711 29.082C52.9735 31.1305 53.9315 33.3518 54.555 35.676C54.7964 36.5863 54.9848 37.5098 55.119 38.442C54.753 38.874 54.315 39.306 53.799 39.852C53.127 40.572 52.743 41.52 52.155 42.288H56.871L56.859 42.222Z" fill="#1C75BC"/>
<path d="M26.7861 6.05396H22.6641V10.176H26.7861V6.05396Z" fill="white"/>
<path d="M26.7861 11.3101H22.6641V15.4321H26.7861V11.3101Z" fill="#FDC00F"/>
<path d="M26.7861 16.572H22.6641V20.694H26.7861V16.572Z" fill="#FDC00F"/>
<path d="M26.7861 21.834H22.6641V25.956H26.7861V21.834Z" fill="#F99B1D"/>
<path d="M15.085 20.478H10.957V24.6H15.085V20.478Z" fill="white"/>
<path d="M15.085 25.74H10.957V29.862H15.085V25.74Z" fill="white"/>
<path d="M15.085 31.002H10.957V35.124H15.085V31.002Z" fill="#FDC00F"/>
<path d="M15.085 36.264H10.957V40.386H15.085V36.264Z" fill="#FDC00F"/>
<path d="M50.1884 16.572H46.0664V20.694H50.1884V16.572Z" fill="white"/>
<path d="M50.1884 21.834H46.0664V25.956H50.1884V21.834Z" fill="white"/>
<path d="M50.1884 27.09H46.0664V31.212H50.1884V27.09Z" fill="white"/>
<path d="M50.1884 32.3521H46.0664V36.4741H50.1884V32.3521Z" fill="#FDC00F"/>
<path d="M38.4913 20.478H34.3633V24.6H38.4913V20.478Z" fill="#FDC00F"/>
<path d="M38.4913 25.74H34.3633V29.862H38.4913V25.74Z" fill="#FDC00F"/>
<path d="M38.4913 31.002H34.3633V35.124H38.4913V31.002Z" fill="#F99B1D"/>
<path d="M38.4913 36.264H34.3633V40.386H38.4913V36.264Z" fill="#F99B1D"/>
</svg>
