<svg width="61" height="50" viewBox="0 0 61 50" fill="none" xmlns="http://www.w3.org/2000/svg">
<path d="M60.3709 48.6371V47.9951C60.1367 48.1518 59.8573 48.2257 59.5768 48.2051H1.1652C0.88463 48.2257 0.605219 48.1518 0.371094 47.9951V49.3871C0.606833 49.5402 0.885009 49.6138 1.1652 49.5971H59.5768C59.8571 49.6151 60.1356 49.5414 60.3709 49.3871V48.6371Z" fill="#2C5871"/>
<path d="M48.8649 0.399902H11.8822C11.4463 0.399902 11.0146 0.486198 10.6118 0.653859C10.2091 0.821521 9.84309 1.06726 9.53482 1.37706C9.22656 1.68685 8.98203 2.05464 8.8152 2.45941C8.64837 2.86418 8.5625 3.29801 8.5625 3.73613V34.4462C8.5625 34.8843 8.64837 35.3182 8.8152 35.7229C8.98203 36.1277 9.22656 36.4955 9.53482 36.8053C9.84309 37.1151 10.2091 37.3608 10.6118 37.5285C11.0146 37.6961 11.4463 37.7824 11.8822 37.7824H48.8649C49.3005 37.7824 49.7319 37.6961 50.1344 37.5284C50.5368 37.3606 50.9024 37.1148 51.2102 36.8049C51.5179 36.495 51.7619 36.1272 51.9281 35.7225C52.0943 35.3177 52.1794 34.884 52.1786 34.4462V3.73613C52.1794 3.29829 52.0943 2.86459 51.9281 2.45986C51.7619 2.05513 51.5179 1.6873 51.2102 1.37742C50.9024 1.06755 50.5368 0.821704 50.1344 0.653969C49.7319 0.486235 49.3005 0.399902 48.8649 0.399902Z" fill="#9FC8DD"/>
<path d="M49.3486 3.23804H11.3867V33.7021H49.3486V3.23804Z" fill="#FFEFCA"/>
<path d="M11.3867 3.23804V28.4817L36.3682 3.23804H11.3867Z" fill="#FDC00F"/>
<path d="M25.668 33.7023H49.3538V9.32861L25.668 33.7023Z" fill="#FFE094"/>
<path d="M11.3867 3.23804V33.7021H39.8312L11.3867 3.23804Z" fill="#F99B1D"/>
<path d="M25.5847 16.691C25.5847 17.122 25.4575 17.5433 25.2191 17.9016C24.9806 18.2599 24.6418 18.5391 24.2454 18.7037C23.849 18.8684 23.4129 18.9112 22.9923 18.8267C22.5717 18.7421 22.1856 18.5341 21.8827 18.2289C21.5798 17.9237 21.3739 17.5351 21.2909 17.1122C21.208 16.6893 21.2517 16.2512 21.4167 15.8533C21.5817 15.4554 21.8604 15.1157 22.2176 14.8771C22.5748 14.6385 22.9944 14.5118 23.4233 14.5129C23.7077 14.5129 23.9892 14.5693 24.2519 14.6789C24.5145 14.7884 24.753 14.9489 24.9538 15.1512C25.1546 15.3536 25.3137 15.5937 25.4219 15.8579C25.5302 16.1221 25.5855 16.4052 25.5847 16.691Z" fill="#14B0BF"/>
<path d="M16.7019 25.6195C16.7031 26.0508 16.5768 26.4727 16.3391 26.8318C16.1014 27.1909 15.763 27.471 15.3667 27.6366C14.9705 27.8022 14.5342 27.8458 14.1132 27.762C13.6922 27.6781 13.3055 27.4706 13.002 27.1656C12.6985 26.8606 12.492 26.472 12.4085 26.049C12.3251 25.6259 12.3685 25.1875 12.5333 24.7893C12.6981 24.391 12.9768 24.0509 13.3342 23.8121C13.6915 23.5732 14.1114 23.4463 14.5405 23.4475C15.1138 23.4475 15.6635 23.6764 16.0689 24.0837C16.4742 24.491 16.7019 25.0435 16.7019 25.6195Z" fill="#14B0BF"/>
<path d="M34.9793 25.7394C34.9804 26.1707 34.8542 26.5926 34.6165 26.9517C34.3788 27.3108 34.0403 27.5909 33.6441 27.7564C33.2478 27.922 32.8115 27.9657 32.3905 27.8818C31.9695 27.798 31.5828 27.5904 31.2793 27.2855C30.9759 26.9805 30.7693 26.5919 30.6859 26.1688C30.6025 25.7458 30.6459 25.3073 30.8107 24.9091C30.9754 24.5109 31.2542 24.1708 31.6115 23.9319C31.9688 23.6931 32.3887 23.5662 32.8179 23.5674C33.3911 23.5674 33.9409 23.7962 34.3462 24.2036C34.7515 24.6109 34.9793 25.1633 34.9793 25.7394Z" fill="#14B0BF"/>
<path d="M48.2486 12.9406C48.2486 13.3701 48.1218 13.7901 47.8843 14.1473C47.6468 14.5044 47.3093 14.7828 46.9143 14.9472C46.5194 15.1116 46.0848 15.1546 45.6655 15.0708C45.2462 14.987 44.8611 14.7802 44.5588 14.4764C44.2566 14.1726 44.0507 13.7856 43.9673 13.3643C43.8839 12.943 43.9267 12.5063 44.0903 12.1094C44.2539 11.7125 44.5309 11.3733 44.8864 11.1346C45.2418 10.8959 45.6597 10.7686 46.0872 10.7686C46.3712 10.7678 46.6527 10.8234 46.9152 10.9323C47.1778 11.0412 47.4164 11.2011 47.6173 11.403C47.8181 11.6048 47.9773 11.8446 48.0857 12.1084C48.194 12.3723 48.2494 12.6551 48.2486 12.9406Z" fill="#14B0BF"/>
<path d="M19.2916 5.71621C19.2916 5.87534 19.2287 6.02795 19.1167 6.14048C19.0048 6.253 18.8529 6.31621 18.6945 6.31621H14.515C14.3567 6.31621 14.2048 6.253 14.0928 6.14048C13.9809 6.02795 13.918 5.87534 13.918 5.71621C13.918 5.55708 13.9809 5.40447 14.0928 5.29195C14.2048 5.17942 14.3567 5.11621 14.515 5.11621H18.6945C18.8529 5.11621 19.0048 5.17942 19.1167 5.29195C19.2287 5.40447 19.2916 5.55708 19.2916 5.71621Z" fill="#2C5871"/>
<path d="M19.2916 7.62441C19.2916 7.78354 19.2287 7.93616 19.1167 8.04868C19.0048 8.1612 18.8529 8.22441 18.6945 8.22441H14.515C14.3567 8.22441 14.2048 8.1612 14.0928 8.04868C13.9809 7.93616 13.918 7.78354 13.918 7.62441C13.918 7.46528 13.9809 7.31267 14.0928 7.20015C14.2048 7.08763 14.3567 7.02441 14.515 7.02441H18.6945C18.8529 7.02441 19.0048 7.08763 19.1167 7.20015C19.2287 7.31267 19.2916 7.46528 19.2916 7.62441Z" fill="#2C5871"/>
<path d="M19.2916 9.53848C19.2916 9.69761 19.2287 9.85022 19.1167 9.96274C19.0048 10.0753 18.8529 10.1385 18.6945 10.1385H14.515C14.3567 10.1385 14.2048 10.0753 14.0928 9.96274C13.9809 9.85022 13.918 9.69761 13.918 9.53848C13.918 9.37935 13.9809 9.22673 14.0928 9.11421C14.2048 9.00169 14.3567 8.93848 14.515 8.93848H18.6945C18.8529 8.93848 19.0048 9.00169 19.1167 9.11421C19.2287 9.22673 19.2916 9.37935 19.2916 9.53848Z" fill="#2C5871"/>
<path d="M32.8582 27.0718L23.3648 17.5371L14.7729 26.1657L13.8594 25.2476L23.3648 15.689L32.8582 25.2296L45.9699 12.0527L46.8834 12.9768L32.8582 27.0718Z" fill="#14B0BF"/>
<path d="M24.3487 16.691C24.3487 16.8631 24.2979 17.0313 24.2028 17.1744C24.1077 17.3175 23.9724 17.429 23.8143 17.4948C23.6561 17.5607 23.482 17.5779 23.314 17.5443C23.1461 17.5108 22.9918 17.4279 22.8708 17.3062C22.7497 17.1846 22.6672 17.0295 22.6338 16.8608C22.6004 16.692 22.6176 16.5171 22.6831 16.3581C22.7486 16.1991 22.8596 16.0633 23.002 15.9677C23.1443 15.8721 23.3117 15.821 23.4829 15.821C23.7126 15.821 23.9328 15.9127 24.0951 16.0759C24.2575 16.239 24.3487 16.4603 24.3487 16.691Z" fill="white"/>
<path d="M15.4581 25.6195C15.4581 25.7916 15.4073 25.9598 15.3122 26.1029C15.217 26.2459 15.0818 26.3575 14.9236 26.4233C14.7654 26.4891 14.5914 26.5064 14.4234 26.4728C14.2555 26.4392 14.1012 26.3564 13.9801 26.2347C13.8591 26.113 13.7766 25.958 13.7432 25.7893C13.7098 25.6205 13.7269 25.4456 13.7925 25.2866C13.858 25.1276 13.969 24.9918 14.1113 24.8962C14.2537 24.8006 14.4211 24.7495 14.5923 24.7495C14.7062 24.7487 14.8192 24.7707 14.9246 24.8141C15.03 24.8576 15.1257 24.9216 15.2063 25.0026C15.2868 25.0835 15.3506 25.1797 15.3938 25.2857C15.437 25.3916 15.4589 25.5051 15.4581 25.6195Z" fill="white"/>
<path d="M33.7823 25.7396C33.7823 25.9117 33.7315 26.0799 33.6364 26.223C33.5413 26.366 33.406 26.4776 33.2478 26.5434C33.0896 26.6093 32.9156 26.6265 32.7476 26.5929C32.5797 26.5593 32.4254 26.4765 32.3044 26.3548C32.1833 26.2331 32.1008 26.0781 32.0674 25.9094C32.034 25.7406 32.0512 25.5657 32.1167 25.4067C32.1822 25.2477 32.2932 25.1118 32.4355 25.0163C32.5779 24.9207 32.7453 24.8696 32.9165 24.8696C33.1462 24.8696 33.3664 24.9613 33.5287 25.1244C33.6911 25.2876 33.7823 25.5089 33.7823 25.7396Z" fill="white"/>
<path d="M47.0128 12.9467C47.0128 13.1187 46.962 13.2869 46.8669 13.43C46.7717 13.5731 46.6365 13.6846 46.4783 13.7504C46.3201 13.8163 46.146 13.8335 45.9781 13.7999C45.8102 13.7664 45.6559 13.6835 45.5348 13.5618C45.4137 13.4402 45.3313 13.2852 45.2979 13.1164C45.2645 12.9476 45.2816 12.7727 45.3472 12.6137C45.4127 12.4548 45.5236 12.3189 45.666 12.2233C45.8084 12.1277 45.9758 12.0767 46.147 12.0767C46.3766 12.0767 46.5968 12.1683 46.7592 12.3315C46.9215 12.4946 47.0128 12.7159 47.0128 12.9467Z" fill="white"/>
<path d="M10.9924 38.4424H49.7483C50.5806 38.4318 51.3916 38.707 52.047 39.2225L60.1971 47.6831C60.615 48.1151 60.2568 48.4631 59.4089 48.4631H1.33771C0.483892 48.4631 0.143561 48.1151 0.54957 47.6831L8.70557 39.2225C9.3583 38.7104 10.1643 38.4354 10.9924 38.4424Z" fill="#9FC8DD"/>
<path d="M15.8491 39.2825L15.0788 40.4765H10.8516L11.8308 39.2825H15.8491Z" fill="#1C75BC"/>
<path d="M43.5849 41.7126L44.3611 43.1826H39.6562L39.1367 41.7126H43.5849Z" fill="#1C75BC"/>
<path d="M28.9372 41.7126L28.8536 43.1826H24.1367L24.483 41.7126H28.9372Z" fill="#1C75BC"/>
<path d="M21.6132 41.7126L21.0937 43.1826H16.3828L17.159 41.7126H21.6132Z" fill="#1C75BC"/>
<path d="M53.48 44.8389L55.0205 46.7169H49.6827L48.4766 44.8389H53.48Z" fill="#1C75BC"/>
<path d="M45.2378 44.8389L46.229 46.7169H40.8912L40.2344 44.8389H45.2378Z" fill="#1C75BC"/>
<path d="M22.4577 39.2825L22.0457 40.4765H17.8125L18.4454 39.2825H22.4577Z" fill="#1C75BC"/>
<path d="M29.0724 39.2825L29.0007 40.4765H24.7734L25.0541 39.2825H29.0724Z" fill="#1C75BC"/>
<path d="M35.6902 39.2825L35.9708 40.4765H31.7376L31.6719 39.2825H35.6902Z" fill="#1C75BC"/>
<path d="M42.2936 39.2825L42.9265 40.4765H38.6992L38.2812 39.2825H42.2936Z" fill="#1C75BC"/>
<path d="M48.9089 39.2825L49.8881 40.4765H45.6608L44.8906 39.2825H48.9089Z" fill="#1C75BC"/>
<path d="M50.9073 41.7126L52.1134 43.1826H47.4025L46.4531 41.7126H50.9073Z" fill="#1C75BC"/>
<path d="M36.2628 41.7126L36.6091 43.1826H31.8922L31.8086 41.7126H36.2628Z" fill="#1C75BC"/>
<path d="M14.2852 41.7126L13.3359 43.1826H8.625L9.83109 41.7126H14.2852Z" fill="#1C75BC"/>
<path d="M36.9974 44.8389L37.4393 46.7169H14.5117L15.5029 44.8389H36.9974Z" fill="#1C75BC"/>
<path d="M12.2725 44.8389L11.0605 46.7169H5.72266L7.2631 44.8389H12.2725Z" fill="#1C75BC"/>
</svg>
