<svg width="61" height="53" viewBox="0 0 61 53" fill="none" xmlns="http://www.w3.org/2000/svg">
<path d="M56.0796 7.74976H3.97266V49.0455H56.0796V7.74976Z" fill="#2C5871"/>
<path d="M5.7443 48.9962L5.58208 52.0923H11.1977L11.7842 51.4731C14.3731 52.0262 17.051 52.0262 19.6399 51.4731L20.2202 52.0923H25.8358L25.6736 48.9962C27.9038 47.5786 29.7983 45.6985 31.2268 43.4851L36.7177 43.77C37.1302 42.9298 37.4906 42.0654 37.7971 41.1816L33.6852 37.553C34.2509 34.9847 34.2509 32.3254 33.6852 29.757L37.7597 26.1036C37.4566 25.2166 37.096 24.35 36.6802 23.5091L31.1894 23.7878C29.7575 21.5771 27.8637 19.6977 25.6362 18.2767L25.9169 12.8338C25.0726 12.4176 24.2013 12.0577 23.3088 11.7563L19.6274 15.7998C17.0385 15.2467 14.3607 15.2467 11.7718 15.7998L8.10287 11.7253C7.2108 12.0278 6.33957 12.3877 5.49472 12.8028L5.7755 18.2457C3.66613 19.5954 1.85532 21.3567 0.453125 23.4224V43.8257C1.84634 45.8866 3.64637 47.6456 5.7443 48.9962ZM15.684 21.0322C18.1929 21.0322 20.6454 21.7705 22.7315 23.1538C24.8175 24.5371 26.4434 26.5032 27.4035 28.8035C28.3636 31.1038 28.6148 33.6349 28.1254 36.0769C27.6359 38.5189 26.4278 40.762 24.6537 42.5226C22.8797 44.2831 20.6194 45.4821 18.1587 45.9678C15.6981 46.4536 13.1475 46.2043 10.8296 45.2514C8.5117 44.2986 6.53056 42.6851 5.1367 40.6149C3.74284 38.5447 2.99888 36.1108 2.99888 33.621C2.99888 30.2822 4.33534 27.0802 6.71426 24.7194C9.09318 22.3585 12.3197 21.0322 15.684 21.0322Z" fill="#1C75BC"/>
<path d="M21.4137 33.6209C21.4162 34.7469 21.0819 35.8483 20.4534 36.7858C19.8248 37.7232 18.9301 38.4545 17.8825 38.8872C16.835 39.3198 15.6816 39.4342 14.5685 39.2161C13.4553 38.9979 12.4324 38.4569 11.6292 37.6615C10.8261 36.8662 10.2787 35.8522 10.0564 34.748C9.83414 33.6438 9.94697 32.499 10.3806 31.4584C10.8142 30.4179 11.5492 29.5284 12.4925 28.9025C13.4357 28.2767 14.5448 27.9426 15.6795 27.9426C17.1981 27.9426 18.6548 28.5405 19.7298 29.605C20.8048 30.6695 21.4104 32.1138 21.4137 33.6209Z" fill="white"/>
<path d="M57.8343 6.31958H50.3468C52.4833 6.90467 54.3335 8.23869 55.5546 10.0743C56.7756 11.9099 57.2845 14.1227 56.987 16.3023C56.6896 18.4819 55.6059 20.4806 53.9368 21.9277C52.2677 23.3749 50.1265 24.1724 47.9102 24.1724C45.6938 24.1724 43.5527 23.3749 41.8836 21.9277C40.2145 20.4806 39.1308 18.4819 38.8333 16.3023C38.5359 14.1227 39.0448 11.9099 40.2658 10.0743C41.4869 8.23869 43.3371 6.90467 45.4736 6.31958H37.9861C37.5285 6.82975 37.1113 7.37422 36.7382 7.94813L32.776 7.74998C32.4758 8.3518 32.2153 8.97232 31.9961 9.60764L34.9349 12.2393C34.5356 14.0946 34.5356 16.0127 34.9349 17.868L31.9961 20.4997C32.2142 21.1355 32.4748 21.756 32.776 22.3574L36.7382 22.1592C37.771 23.7539 39.1371 25.1097 40.744 26.1346L40.5443 30.1224C41.1499 30.4257 41.7753 30.6884 42.4162 30.9088L45.0743 27.9861C46.9429 28.3907 48.8775 28.3907 50.7461 27.9861L53.4042 30.9088C54.0442 30.6862 54.6694 30.4235 55.276 30.1224L55.0764 26.1965C56.6818 25.1698 58.0476 23.8144 59.0822 22.2212H59.2631V7.97909H59.0822C58.7102 7.39463 58.293 6.83977 57.8343 6.31958Z" fill="#FCD095"/>
<path d="M52.0589 15.0692C52.0601 15.8814 51.8185 16.6758 51.3647 17.3517C50.9109 18.0277 50.2652 18.5549 49.5094 18.8665C48.7536 19.1782 47.9217 19.2604 47.1188 19.1027C46.3159 18.945 45.5782 18.5545 44.999 17.9806C44.4198 17.4067 44.0252 16.6751 43.8651 15.8786C43.705 15.0821 43.7865 14.2563 44.0995 13.5058C44.4124 12.7552 44.9426 12.1137 45.623 11.6623C46.3035 11.2109 47.1036 10.97 47.922 10.97C49.0181 10.97 50.0694 11.4017 50.845 12.1702C51.6206 12.9388 52.0572 13.9815 52.0589 15.0692Z" fill="white"/>
<path d="M59.1072 22.1963L59.9682 22.2396V7.90468L59.1072 7.94803C58.0741 6.35521 56.708 5.00152 55.1013 3.97883L55.2511 0.957031H51.8755L50.7586 2.19547C48.8908 1.78272 46.9545 1.78272 45.0868 2.19547L43.9699 0.957031H40.588L40.744 3.97883C39.136 4.99985 37.7695 6.35386 36.7382 7.94803L32.776 7.74988C32.4758 8.3517 32.2153 8.97222 31.9961 9.60754L34.9349 12.2392C34.5356 14.0945 34.5356 16.0126 34.9349 17.8679L31.9961 20.4996C32.2142 21.1354 32.4748 21.7559 32.776 22.3573L36.7382 22.1591C37.771 23.7538 39.1371 25.1096 40.744 26.1345L40.5443 30.1223C41.1499 30.4256 41.7753 30.6883 42.4162 30.9087L45.0743 27.986C46.9429 28.3906 48.8775 28.3906 50.7461 27.986L53.4042 30.9087C54.0442 30.6861 54.6694 30.4234 55.276 30.1223L55.0764 26.1964C56.6935 25.1653 58.0681 23.8011 59.1072 22.1963ZM51.4449 2.4122H54.9765V5.91699H51.4449V2.4122ZM46.8089 2.4122H50.3405V5.91699H46.7839L46.8089 2.4122ZM42.1729 2.4122H45.7045V5.91699H42.1729V2.4122ZM47.9196 24.1592C46.1079 24.1592 44.337 23.6261 42.8307 22.6272C41.3244 21.6284 40.1503 20.2087 39.4571 18.5477C38.7638 16.8867 38.5824 15.059 38.9358 13.2957C39.2893 11.5323 40.1616 9.91264 41.4426 8.64136C42.7236 7.37008 44.3558 6.50432 46.1326 6.15357C47.9094 5.80283 49.7511 5.98284 51.4248 6.67085C53.0986 7.35886 54.5291 8.52397 55.5356 10.0188C56.5421 11.5137 57.0793 13.2712 57.0793 15.0691C57.0801 16.263 56.8437 17.4454 56.3837 18.5487C55.9237 19.6519 55.249 20.6543 54.3983 21.4986C53.5476 22.3428 52.5375 23.0124 51.4258 23.4689C50.3141 23.9255 49.1227 24.16 47.9196 24.1592Z" fill="#1C75BC"/>
<path d="M25.6177 48.9962C27.8479 47.5786 29.7424 45.6985 31.1709 43.4851L36.6618 43.77C37.0742 42.9298 37.4347 42.0654 37.7412 41.1816L33.6792 37.553C34.2449 34.9847 34.2449 32.3254 33.6792 29.757L37.7537 26.1036C37.4506 25.2166 37.09 24.35 36.6743 23.5091L31.1834 23.7878C29.7515 21.5771 27.8577 19.6977 25.6302 18.2767L25.9109 12.8338C25.0666 12.4176 24.1953 12.0577 23.3028 11.7563L19.6214 15.7998C17.0325 15.2467 14.3547 15.2467 11.7658 15.7998L8.09688 11.7253C7.20481 12.0278 6.33358 12.3877 5.48873 12.8028L5.76951 18.2457C3.54197 19.6667 1.64813 21.5462 0.21626 23.7568H0.128906V43.4975H0.21626C1.64476 45.7108 3.53925 47.5909 5.76951 49.0086L5.56984 52.8168H10.5615L11.772 51.4855C14.3609 52.0386 17.0388 52.0386 19.6277 51.4855L20.8381 52.8168H25.8298L25.6177 48.9962ZM15.678 46.2221C13.1691 46.2221 10.7166 45.4838 8.63052 44.1005C6.54447 42.7172 4.91858 40.7511 3.95848 38.4509C2.99837 36.1506 2.74717 33.6194 3.23662 31.1774C3.72608 28.7354 4.93422 26.4923 6.70827 24.7318C8.48231 22.9712 10.7426 21.7722 13.2032 21.2865C15.6639 20.8008 18.2145 21.0501 20.5324 22.0029C22.8503 22.9557 24.8314 24.5692 26.2253 26.6394C27.6191 28.7096 28.3631 31.1435 28.3631 33.6333C28.3631 36.9721 27.0266 40.1741 24.6477 42.5349C22.2688 44.8958 19.0423 46.2221 15.678 46.2221Z" fill="#1C75BC"/>
<path d="M55.4701 0.901371H4.59863C3.99913 0.900558 3.40534 1.01704 2.85124 1.24416C2.29713 1.47127 1.79358 1.80456 1.36938 2.22496C0.945177 2.64537 0.608647 3.14464 0.379038 3.69422C0.149429 4.2438 0.0312494 4.83292 0.03125 5.42787V48.3336C0.0329034 49.5347 0.514836 50.686 1.37121 51.5347C2.22758 52.3834 3.38837 52.8601 4.59863 52.8601H55.4701C56.6798 52.8601 57.8399 52.3832 58.6953 51.5343C59.5507 50.6855 60.0312 49.5341 60.0312 48.3336V5.42787C60.0312 4.83344 59.9133 4.24484 59.684 3.69566C59.4548 3.14648 59.1189 2.64748 58.6953 2.22715C58.2718 1.80683 57.7689 1.47341 57.2156 1.24593C56.6622 1.01845 56.0691 0.901371 55.4701 0.901371ZM51.4955 2.36273H55.0333V5.87371H51.4955V2.36273ZM46.847 2.36273H50.3848V5.87371H46.847V2.36273ZM42.1985 2.36273H45.7426V5.87371H42.1985V2.36273ZM56.144 49.0891H3.92475V7.7066H56.144V49.0891Z" fill="#F99B1D"/>
<path d="M6.94531 42.7297V46.0983H14.0023C11.3499 45.7454 8.87882 44.5659 6.94531 42.7297Z" fill="#FDC00F"/>
<path d="M36.6646 23.4781L31.1737 23.7568C29.7419 21.5462 27.848 19.6667 25.6205 18.2457L25.9013 12.8028C25.0569 12.3866 24.1856 12.0267 23.2931 11.7253L19.6118 15.7689C17.0229 15.2157 14.345 15.2157 11.7561 15.7689L8.09969 11.7253C7.72532 11.8554 7.35094 11.9978 6.97656 12.1464V24.5308C8.427 23.1576 10.1849 22.1452 12.106 21.5768C14.027 21.0084 16.0566 20.9001 18.028 21.2609C19.9994 21.6217 21.8565 22.4413 23.4469 23.6523C25.0373 24.8634 26.3156 26.4314 27.1771 28.2278C28.0385 30.0242 28.4585 31.9976 28.4025 33.9863C28.3465 35.9749 27.8161 37.922 26.8549 39.6679C25.8938 41.4137 24.5292 42.9084 22.8731 44.0295C21.217 45.1505 19.3167 45.8659 17.3281 46.1168H29.1396C29.9082 45.3112 30.5996 44.4364 31.2049 43.5037L36.6958 43.7886C37.1083 42.9484 37.4687 42.084 37.7752 41.2002L33.6821 37.553C34.2477 34.9847 34.2477 32.3254 33.6821 29.757L37.7565 26.1036C37.4506 25.2058 37.0858 24.3288 36.6646 23.4781Z" fill="#FDC00F"/>
<path d="M53.1171 22.537C51.4223 23.6957 49.383 24.2528 47.3295 24.1183C45.2759 23.9838 43.3281 23.1655 41.8014 21.7958C40.2747 20.4262 39.2584 18.5853 38.9171 16.5711C38.5757 14.557 38.9292 12.4875 39.9204 10.6975H33.1879L34.9349 12.2579C34.5356 14.1133 34.5356 16.0313 34.9349 17.8867L31.9961 20.5183C32.2142 21.1541 32.4748 21.7747 32.776 22.376L36.7382 22.1778C37.771 23.7725 39.1371 25.1283 40.744 26.1532L40.5443 30.1224C41.1499 30.4257 41.7753 30.6884 42.4162 30.9089L45.0743 27.9861C46.9429 28.3908 48.8775 28.3908 50.7461 27.9861L53.1047 30.5745L53.1171 22.537Z" fill="#FDC00F"/>
</svg>
