<svg width="61" height="58" viewBox="0 0 61 58" fill="none" xmlns="http://www.w3.org/2000/svg">
<path d="M28.6237 28.796V7.64502C24.496 7.64385 20.4605 8.87449 17.0264 11.1816C13.5924 13.4888 10.9137 16.769 9.32855 20.6083C7.74337 24.4476 7.32271 28.6739 8.11966 32.7538C8.9166 36.8338 10.8954 40.5844 13.8064 43.5325C16.7174 46.4805 20.43 48.4938 24.4758 49.3182C28.5215 50.1426 32.719 49.7412 36.5385 48.1647C40.358 46.5882 43.6283 43.9072 45.9367 40.46C48.2451 37.0129 49.488 32.9541 49.5087 28.796H28.6237Z" fill="#A2D3F4"/>
<path d="M30.0711 9.11562C30.0711 9.40522 29.9858 9.68833 29.8261 9.92912C29.6664 10.1699 29.4394 10.3576 29.1738 10.4684C28.9082 10.5792 28.616 10.6082 28.334 10.5517C28.0521 10.4952 27.7931 10.3558 27.5898 10.151C27.3865 9.94622 27.2481 9.68532 27.192 9.40129C27.1359 9.11725 27.1647 8.82283 27.2747 8.55527C27.3847 8.28772 27.571 8.05903 27.8101 7.89813C28.0491 7.73724 28.3301 7.65138 28.6176 7.65138C28.8087 7.65056 28.9981 7.68787 29.1748 7.76116C29.3515 7.83446 29.5121 7.94228 29.6472 8.07841C29.7823 8.21454 29.8894 8.37629 29.9621 8.55431C30.0349 8.73233 30.0719 8.9231 30.0711 9.11562Z" fill="#F99B1D"/>
<path d="M30.0711 48.2718C30.0723 48.5616 29.9881 48.8453 29.8291 49.087C29.6702 49.3286 29.4436 49.5172 29.1781 49.629C28.9126 49.7408 28.6202 49.7706 28.3378 49.7148C28.0554 49.659 27.7959 49.5201 27.592 49.3155C27.3881 49.111 27.249 48.8501 27.1924 48.5659C27.1359 48.2817 27.1643 47.987 27.2741 47.7191C27.3839 47.4511 27.5702 47.2221 27.8094 47.0609C28.0486 46.8998 28.3298 46.8137 28.6176 46.8137C28.8082 46.8129 28.997 46.85 29.1733 46.9229C29.3497 46.9958 29.5099 47.1031 29.645 47.2386C29.78 47.3741 29.8872 47.5351 29.9603 47.7124C30.0334 47.8897 30.0711 48.0798 30.0711 48.2718Z" fill="#F99B1D"/>
<path d="M48.0529 30.1426C47.8631 30.1434 47.675 30.1065 47.4995 30.0339C47.3239 29.9613 47.1643 29.8544 47.0298 29.7195C46.8953 29.5847 46.7886 29.4243 46.7158 29.2478C46.643 29.0712 46.6055 28.8819 46.6055 28.6907C46.6031 28.4004 46.6864 28.1158 46.8449 27.8733C47.0034 27.6307 47.2299 27.4411 47.4956 27.3286C47.7614 27.216 48.0543 27.1856 48.3373 27.2412C48.6202 27.2968 48.8803 27.4359 49.0846 27.6408C49.2889 27.8457 49.428 28.1071 49.4844 28.3919C49.5408 28.6767 49.5119 28.9719 49.4013 29.2401C49.2907 29.5083 49.1035 29.7373 48.8634 29.898C48.6233 30.0587 48.3411 30.1438 48.0529 30.1426Z" fill="#F99B1D"/>
<path d="M9.18091 30.1425C8.79811 30.1425 8.43089 29.9897 8.15964 29.7176C7.88838 29.4455 7.73518 29.0762 7.73355 28.6906C7.72061 28.4907 7.74853 28.2903 7.81556 28.1017C7.8826 27.9131 7.98733 27.7404 8.12329 27.5942C8.25924 27.448 8.42352 27.3315 8.60597 27.2518C8.78841 27.1722 8.98514 27.1311 9.18398 27.1311C9.38283 27.1311 9.57956 27.1722 9.76201 27.2518C9.94445 27.3315 10.1087 27.448 10.2447 27.5942C10.3806 27.7404 10.4854 27.9131 10.5524 28.1017C10.6194 28.2903 10.6474 28.4907 10.6344 28.6906C10.6344 28.8823 10.5967 29.0721 10.5235 29.2491C10.4504 29.4261 10.3431 29.5866 10.208 29.7216C10.0728 29.8566 9.91249 29.9633 9.73621 30.0355C9.55993 30.1077 9.3712 30.1441 9.18091 30.1425Z" fill="#F99B1D"/>
<path d="M19.8088 11.2127C19.9088 11.3892 19.9547 11.5915 19.9408 11.7943C19.9268 11.997 19.8537 12.1911 19.7305 12.352C19.6073 12.513 19.4396 12.6336 19.2485 12.6988C19.0574 12.7639 18.8515 12.7706 18.6566 12.7181C18.4617 12.6656 18.2866 12.5562 18.1533 12.4036C18.02 12.251 17.9345 12.0621 17.9076 11.8607C17.8807 11.6593 17.9135 11.4544 18.0019 11.2717C18.0903 11.0891 18.2304 10.9368 18.4045 10.8342C18.641 10.6986 18.9209 10.6623 19.1838 10.7332C19.4466 10.804 19.6711 10.9763 19.8088 11.2127Z" fill="#2C5871"/>
<path d="M39.2268 45.1015C39.3415 45.3384 39.3628 45.6103 39.2865 45.8625C39.2102 46.1146 39.0419 46.3283 38.8155 46.4604C38.5891 46.5925 38.3213 46.6334 38.0662 46.5746C37.8112 46.5159 37.5876 46.362 37.4407 46.1438C37.326 45.9069 37.3046 45.635 37.3809 45.3829C37.4572 45.1307 37.6256 44.9171 37.852 44.7849C38.0784 44.6528 38.3461 44.612 38.6012 44.6707C38.8563 44.7295 39.0798 44.8834 39.2268 45.1015Z" fill="#2C5871"/>
<path d="M12.2937 18.0065C12.4118 18.0734 12.5153 18.1634 12.5984 18.2712C12.6814 18.379 12.7422 18.5024 12.7772 18.6342C12.8122 18.766 12.8207 18.9035 12.8022 19.0386C12.7837 19.1738 12.7385 19.3038 12.6694 19.4211C12.5677 19.5987 12.4161 19.7419 12.2336 19.8326C12.0511 19.9233 11.846 19.9574 11.6442 19.9306C11.4425 19.9038 11.2532 19.8174 11.1002 19.6822C10.9473 19.547 10.8375 19.3692 10.7849 19.1711C10.7324 18.9731 10.7393 18.7638 10.8048 18.5697C10.8703 18.3757 10.9915 18.2055 11.153 18.0808C11.3145 17.9562 11.5091 17.8826 11.7122 17.8693C11.9152 17.8561 12.1176 17.9039 12.2937 18.0065Z" fill="#2C5871"/>
<path d="M45.9595 37.594C46.0766 37.661 46.1794 37.7506 46.262 37.8578C46.3446 37.9649 46.4054 38.0874 46.4409 38.2183C46.4764 38.3492 46.4859 38.4858 46.4688 38.6204C46.4517 38.7549 46.4084 38.8848 46.3413 39.0024C46.1998 39.2297 45.9763 39.3929 45.7178 39.4575C45.4593 39.5222 45.186 39.4833 44.9553 39.349C44.7247 39.2148 44.5548 38.9957 44.4813 38.7378C44.4078 38.4799 44.4365 38.2033 44.5614 37.9663C44.6283 37.8487 44.7177 37.7458 44.8245 37.6633C44.9312 37.5808 45.0532 37.5205 45.1832 37.4859C45.3133 37.4513 45.4488 37.443 45.5821 37.4616C45.7153 37.4801 45.8436 37.5251 45.9595 37.594Z" fill="#2C5871"/>
<path d="M45.9654 19.7935C45.7902 19.895 45.5891 19.9418 45.3874 19.9282C45.1858 19.9145 44.9927 19.841 44.8325 19.7168C44.6723 19.5926 44.5523 19.4235 44.4875 19.2306C44.4227 19.0378 44.4162 18.8299 44.4686 18.6333C44.5211 18.4366 44.6302 18.2601 44.7822 18.1259C44.9342 17.9917 45.1222 17.906 45.3226 17.8794C45.523 17.8528 45.7267 17.8867 45.908 17.9767C46.0892 18.0667 46.24 18.2088 46.3411 18.3851C46.4084 18.5024 46.4521 18.6319 46.4696 18.7662C46.4872 18.9005 46.4782 19.037 46.4433 19.1678C46.4084 19.2987 46.3483 19.4213 46.2662 19.5286C46.1842 19.636 46.082 19.726 45.9654 19.7935Z" fill="#2C5871"/>
<path d="M12.2941 39.3746C12.1184 39.4744 11.9174 39.5196 11.7163 39.5046C11.5152 39.4895 11.323 39.415 11.1639 39.2902C11.0048 39.1654 10.8858 38.996 10.822 38.8033C10.7583 38.6106 10.7524 38.4032 10.8054 38.2072C10.8583 38.0112 10.9675 37.8353 11.1194 37.7017C11.2713 37.5681 11.459 37.4827 11.6589 37.4563C11.8589 37.4298 12.0621 37.4636 12.243 37.5532C12.424 37.6428 12.5746 37.7844 12.6759 37.96C12.7439 38.0779 12.788 38.2083 12.8056 38.3435C12.8232 38.4787 12.814 38.6161 12.7785 38.7477C12.743 38.8793 12.6818 39.0025 12.5987 39.1101C12.5155 39.2177 12.412 39.3076 12.2941 39.3746Z" fill="#2C5871"/>
<path d="M39.228 12.2488C39.1263 12.4263 38.9746 12.5695 38.7922 12.6602C38.6097 12.7509 38.4046 12.785 38.2028 12.7582C38.0011 12.7315 37.8118 12.645 37.6588 12.5098C37.5058 12.3746 37.3961 12.1968 37.3435 11.9987C37.2909 11.8007 37.2978 11.5914 37.3634 11.3974C37.4289 11.2033 37.5501 11.0332 37.7116 10.9085C37.8731 10.7838 38.0677 10.7102 38.2708 10.697C38.4738 10.6838 38.6762 10.7315 38.8523 10.8342C39.0882 10.9717 39.2603 11.1979 39.3307 11.4632C39.4012 11.7284 39.3642 12.011 39.228 12.2488Z" fill="#2C5871"/>
<path d="M19.8093 46.1687C19.7459 46.2947 19.6577 46.4063 19.5499 46.4966C19.4422 46.587 19.3173 46.6542 19.1828 46.6941C19.0484 46.7341 18.9072 46.7459 18.7681 46.7289C18.6289 46.7119 18.4947 46.6665 18.3736 46.5953C18.2525 46.5242 18.1471 46.4288 18.0639 46.3152C17.9808 46.2015 17.9215 46.0719 17.8899 45.9343C17.8582 45.7968 17.8548 45.6541 17.8798 45.5152C17.9049 45.3762 17.9578 45.2439 18.0355 45.1264C18.0989 45.0004 18.1871 44.8888 18.2949 44.7984C18.4026 44.7081 18.5275 44.6409 18.662 44.6009C18.7964 44.561 18.9376 44.5491 19.0767 44.5661C19.2159 44.5831 19.3501 44.6286 19.4712 44.6997C19.5923 44.7709 19.6977 44.8662 19.7808 44.9799C19.864 45.0936 19.9233 45.2232 19.9549 45.3607C19.9866 45.4983 19.99 45.6409 19.965 45.7799C19.9399 45.9188 19.8869 46.0511 19.8093 46.1687Z" fill="#2C5871"/>
<path d="M34.782 28.3495V18.4224C35.2173 18.8146 35.569 19.2918 35.8157 19.8251C36.0624 20.3584 36.1989 20.9366 36.2171 21.5246C36.2171 22.0183 36.4117 22.4917 36.7582 22.8408C37.1048 23.1899 37.5747 23.386 38.0648 23.386C38.5548 23.386 39.0248 23.1899 39.3713 22.8408C39.7178 22.4917 39.9124 22.0183 39.9124 21.5246C39.9124 18.3418 37.8677 15.5497 34.7882 13.918V11.9512C34.7882 11.4575 34.5935 10.9841 34.247 10.635C33.9005 10.2859 33.4305 10.0898 32.9405 10.0898C32.4505 10.0898 31.9805 10.2859 31.634 10.635C31.2875 10.9841 31.0928 11.4575 31.0928 11.9512V12.6647C30.2805 12.5106 29.4558 12.4316 28.6292 12.4289C27.8026 12.4316 26.978 12.5106 26.1656 12.6647V11.9512C26.1656 11.4575 25.971 10.9841 25.6245 10.635C25.278 10.2859 24.808 10.0898 24.318 10.0898C23.8279 10.0898 23.3579 10.2859 23.0114 10.635C22.6649 10.9841 22.4703 11.4575 22.4703 11.9512V13.918C21.2989 14.4835 20.2583 15.2903 19.4159 16.2864C18.5736 17.2825 17.9481 18.4456 17.58 19.7005C17.4243 20.2959 17.3456 20.909 17.346 21.5246C17.346 24.7137 19.3908 27.5057 22.4703 29.1313V39.0894C22.035 38.6972 21.6833 38.22 21.4366 37.6867C21.1899 37.1535 21.0534 36.5753 21.0352 35.9872C21.0352 35.4936 20.8405 35.0201 20.494 34.6711C20.1475 34.322 19.6776 34.1259 19.1875 34.1259C18.6975 34.1259 18.2275 34.322 17.881 34.6711C17.5345 35.0201 17.3398 35.4936 17.3398 35.9872C17.3398 39.1701 19.3846 41.9683 22.4641 43.5939V45.5607C22.4641 46.0543 22.6588 46.5278 23.0053 46.8768C23.3518 47.2259 23.8218 47.422 24.3118 47.422C24.8018 47.422 25.2718 47.2259 25.6183 46.8768C25.9648 46.5278 26.1595 46.0543 26.1595 45.5607V44.7913C26.9716 44.9475 27.7963 45.0285 28.6231 45.0333C29.4499 45.0285 30.2745 44.9475 31.0867 44.7913V45.5048C31.0867 45.9985 31.2813 46.4719 31.6278 46.821C31.9743 47.1701 32.4443 47.3662 32.9343 47.3662C33.4244 47.3662 33.8943 47.1701 34.2409 46.821C34.5874 46.4719 34.782 45.9985 34.782 45.5048V43.538C35.9526 42.9729 36.9925 42.1669 37.8348 41.172C38.6771 40.177 39.3031 39.0153 39.6723 37.7617C39.828 37.1643 39.9067 36.5491 39.9063 35.9314C39.9063 32.7423 37.8615 29.9503 34.782 28.3495ZM36.2171 35.9624C36.1674 37.0747 35.6956 38.1252 34.8991 38.8971L34.782 38.9964V32.8229C35.2181 33.2159 35.5702 33.6941 35.8169 34.2285C36.0636 34.7629 36.1997 35.3423 36.2171 35.9314V35.9624ZM31.0928 27.0962C30.2805 26.9421 29.4558 26.8632 28.6292 26.8605C27.7975 26.8516 26.97 26.7391 26.1656 26.5254V16.3936C27.7796 15.9584 29.4788 15.9584 31.0928 16.3936V27.0962ZM21.0414 21.444C21.0801 20.3165 21.5528 19.2484 22.3594 18.4659L22.4764 18.3666V24.5276C22.0433 24.1375 21.693 23.6633 21.4464 23.1334C21.1997 22.6035 21.062 22.0289 21.0414 21.444ZM26.1656 30.3101C26.978 30.4643 27.8026 30.5432 28.6292 30.5459C29.4607 30.5528 30.2882 30.6632 31.0928 30.8748V40.9818C29.4788 41.417 27.7796 41.417 26.1656 40.9818V30.3101Z" fill="#14B0BF"/>
<path d="M52.1982 21.3694C52.1982 21.3694 52.4876 25.272 52.4876 26.1593V28.6907C52.4876 33.4473 51.0874 38.097 48.464 42.0519C45.8406 46.0068 42.1119 49.0891 37.7495 50.9091C33.3871 52.7291 28.5869 53.205 23.956 52.2766C19.3251 51.3482 15.0715 49.0571 11.7331 45.6933C8.39481 42.3294 6.12169 38.0438 5.20127 33.3785C4.28085 28.7131 4.75448 23.8776 6.56225 19.4834C8.37003 15.0893 11.4307 11.3338 15.3573 8.6921C19.2839 6.05037 23.8999 4.641 28.6216 4.64222C29.2015 4.64222 29.7576 4.41017 30.1677 3.99711C30.5777 3.58404 30.8081 3.02379 30.8081 2.43963C30.8081 1.85547 30.5777 1.29524 30.1677 0.882178C29.7576 0.469114 29.2015 0.237061 28.6216 0.237061C23.1359 0.235983 17.7685 1.84421 13.175 4.86535C8.58156 7.88648 4.96084 12.1898 2.75504 17.2496C0.549239 22.3095 -0.146167 27.9069 0.753754 33.3584C1.65367 38.8098 4.10997 43.8793 7.82265 47.9476C11.5353 52.016 16.3437 54.9071 21.6606 56.268C26.9774 57.6289 32.5726 57.4006 37.7628 55.611C42.9529 53.8214 47.5135 50.548 50.8874 46.1905C54.2613 41.833 56.3026 36.5801 56.7619 31.0732H60.3711L52.1982 21.3694Z" fill="#F99B1D"/>
<path d="M28.6238 1.6145C23.4038 1.61375 18.2965 3.14428 13.9257 6.01917C9.55483 8.89407 6.10959 12.9889 4.01068 17.8036C1.91176 22.6184 1.25002 27.9446 2.10624 33.132C2.96247 38.3193 5.29962 43.1432 8.83227 47.0146C12.3649 50.886 16.9402 53.6374 21.9994 54.9327C27.0586 56.228 32.3827 56.0111 37.3215 54.3087C42.2604 52.6063 46.6003 49.4918 49.8112 45.3458C53.0222 41.1998 54.9652 36.2016 55.403 30.9615L55.5077 29.7207H57.4108L53.8324 25.4706C53.8324 25.7684 53.8324 26.0228 53.8324 26.1841V28.7155C53.8324 33.7467 52.3514 38.665 49.5767 42.8483C46.802 47.0316 42.8582 50.292 38.2441 52.2174C33.6299 54.1428 28.5527 54.6465 23.6543 53.665C18.7559 52.6834 14.2565 50.2607 10.725 46.7031C7.19346 43.1455 4.78846 38.6128 3.81411 33.6783C2.83977 28.7438 3.33984 23.629 5.25109 18.9808C7.16233 14.3325 10.3989 10.3596 14.5515 7.56442C18.7042 4.76923 23.5863 3.27729 28.5807 3.27729C28.7865 3.25933 28.9781 3.16429 29.1177 3.01094C29.2573 2.85759 29.3347 2.65708 29.3347 2.449C29.3347 2.24092 29.2573 2.0404 29.1177 1.88705C28.9781 1.73369 28.7865 1.63867 28.5807 1.62071L28.6238 1.6145Z" fill="#FDC00F"/>
</svg>
