<svg width="51" height="61" viewBox="0 0 51 61" fill="none" xmlns="http://www.w3.org/2000/svg">
<path d="M50.6573 34.6942C50.6573 39.736 49.1736 44.6646 46.3939 48.8569C43.6141 53.0493 39.6631 56.3172 35.0403 58.2474C30.4174 60.1777 25.3304 60.6837 20.4221 59.7014C15.5139 58.7192 11.0049 56.2928 7.46521 52.7291C3.92547 49.1653 1.51391 44.6242 0.535396 39.6797C-0.443117 34.7353 0.0553488 29.6095 1.96778 24.9505C3.88021 20.2914 7.12074 16.3082 11.2797 13.5044C15.4387 10.7007 20.3293 9.20221 25.3334 9.19849C28.6581 9.19602 31.9507 9.85367 35.023 11.1338C38.0954 12.414 40.8872 14.2916 43.239 16.6594C45.5908 19.0271 47.4564 21.8386 48.7293 24.9331C50.0021 28.0276 50.6573 31.3445 50.6573 34.6942Z" fill="#9FC8DD"/>
<path d="M49.7904 28.0427C48.8262 24.4342 47.0863 21.0835 44.6938 18.2278C42.3014 15.3721 39.3151 13.0814 35.9463 11.5178C29.8466 8.68835 22.8816 8.41426 16.5816 10.7558C10.2815 13.0973 5.16168 17.8629 2.34703 24.0055C-0.125976 29.4258 -0.636718 35.5476 0.903506 41.3078C1.8656 44.9189 3.60537 48.2722 5.99916 51.1294C8.39295 53.9865 11.382 56.2773 14.7539 57.8389C18.0668 59.3922 21.6774 60.1946 25.3314 60.1898C29.0981 60.1737 32.8146 59.3173 36.2138 57.6822C41.5637 55.1191 45.8518 50.7466 48.3314 45.3262C50.8111 39.9057 51.3251 33.7807 49.7842 28.0177L49.7904 28.0427ZM15.9983 29.8419C15.345 30.2682 13.3041 30.1115 12.657 29.635C11.8606 29.0458 11.1139 26.6761 10.9646 25.717C10.7531 24.319 11.929 23.4789 11.8606 22.2189C11.7735 20.7144 9.88819 20.1752 8.84289 19.5421C8.56069 19.3386 8.23289 19.2086 7.88874 19.1638C7.54459 19.1189 7.19477 19.1606 6.87048 19.285C6.39138 19.868 5.9434 20.4824 5.5203 21.1093C5.24653 22.595 7.23137 23.3598 8.22068 24.1372C9.02955 24.7641 10.7531 25.8611 10.5166 26.8391C10.33 27.5914 9.99397 27.7293 9.52109 27.466C9.39043 27.3908 9.25976 26.9519 9.06687 26.8391C8.63995 26.7415 8.19823 26.7287 7.76646 26.8015C6.47227 26.8767 5.84384 28.2809 5.43941 29.4846C4.86698 31.1521 6.88293 31.5533 7.92824 30.5127C8.51934 29.8858 8.41978 28.1806 9.63931 28.7323C10.1529 29.056 10.6398 29.4207 11.0953 29.8231C11.7192 30.3245 12.298 30.8804 12.825 31.4844C14.5112 33.1833 12.2339 33.8603 10.9957 34.9072C10.2677 35.5341 9.82597 36.3929 9.1291 37.0386C8.58671 37.4781 7.94589 37.7772 7.26247 37.91C6.73359 38.0667 4.99764 38.3802 5.05364 39.1011C5.0972 39.5901 6.26695 40.1543 6.65272 40.3925C8.0377 41.1899 9.47168 41.8977 10.946 42.5114C12.0659 42.9941 15.5129 43.6712 15.6436 45.1757C15.7743 46.6803 14.1379 47.8902 13.2979 48.8556C12.5444 49.8015 11.8503 50.7939 11.2197 51.827C11.0144 52.1405 10.7095 52.7047 10.3673 53.2752C9.18595 52.3209 8.09831 51.2544 7.11938 50.0906C7.28775 49.5267 7.39825 48.9469 7.44915 48.3603C7.4908 47.0496 7.4638 45.7376 7.36826 44.4297C7.31848 42.9628 7.31847 42.9064 5.95583 42.3171C4.91674 41.872 3.85277 41.5397 2.80746 41.1448C2.64015 41.0872 2.47952 41.0115 2.32837 40.9191C2.32837 40.8752 2.32837 40.8376 2.29104 40.7875C0.840025 35.3463 1.32203 29.5653 3.65367 24.4444C4.19145 23.2808 4.81543 22.1597 5.5203 21.0905C5.54677 20.984 5.58002 20.8793 5.61985 20.777C5.71574 20.4538 5.87538 20.1534 6.0892 19.8938C6.30303 19.6342 6.56664 19.4208 6.86427 19.2662C9.09503 16.5186 11.902 14.3028 15.0836 12.7779C16.2725 12.2119 17.5068 11.7484 18.7733 11.3925C20.3102 12.0193 21.567 12.9848 21.4924 14.646C21.4239 16.1756 20.6462 16.9154 19.9244 18.1441C19.0409 19.6674 20.2853 21.7487 19.352 23.341C18.9413 24.0682 18.2133 24.5447 17.7902 25.2844C17.4103 25.9764 17.1177 26.7135 16.9192 27.4785C16.7263 28.1556 16.6205 29.4156 15.9983 29.8419ZM31.1739 42.8687C30.3215 44.1225 29.8051 45.7211 29.1455 47.0689C28.2931 48.7992 29.2886 51.5888 26.6567 51.9336C24.6283 52.2032 23.8132 51.5888 23.8381 49.6016C23.8381 48.2412 24.7403 46.4671 24.1741 45.1506C23.7821 44.2228 22.9297 44.016 22.1084 43.9282C21.1043 43.8346 20.128 43.545 19.2338 43.0756C17.4854 42.1039 17.4231 41.1949 18.1076 39.5337C18.4933 38.5996 18.6924 37.327 19.1715 36.4682C19.4453 35.9667 20.6462 35.509 21.1813 35.9855C21.5173 36.2864 21.2497 36.8004 21.3617 37.1828C21.9839 39.3895 24.759 37.7094 26.0843 38.1733L26.414 38.2548C27.1545 38.3363 27.9322 38.6059 28.6664 38.7438C29.8362 38.9632 32.4992 39.076 32.6797 40.5242C32.7979 41.6526 31.6841 42.1102 31.1553 42.8687H31.1739ZM41.3221 52.4539C41.1506 52.4517 40.9816 52.4118 40.8269 52.3371C40.6721 52.2624 40.5354 52.1547 40.4262 52.0214C39.804 51.0685 41.6706 49.0625 42.0688 48.3227C42.8154 46.8621 43.2448 46.0032 44.819 45.5268C45.4571 45.273 46.1365 45.1412 46.8225 45.1381C45.4678 47.9122 43.5938 50.3964 41.3035 52.4539H41.3221ZM47.7309 32.3307C46.8847 33.2397 46.5176 34.5499 45.5469 35.3147C44.8587 35.7589 44.2401 36.3041 43.7114 36.9321C43.0208 37.9038 41.7577 39.2077 41.5461 40.3925C41.3844 41.3078 42.9399 47.4388 40.3017 44.9814C39.9134 44.5842 39.6284 44.0966 39.4721 43.5618C39.3158 43.0271 39.293 42.4617 39.4057 41.9159C39.4897 41.6697 39.5063 41.4053 39.4537 41.1505C39.4012 40.8957 39.2814 40.6598 39.1071 40.4677C38.6529 39.8409 38.1053 39.3393 37.508 39.9161C36.6307 40.7561 37.4271 43.1446 35.6414 43.1759C33.8556 43.2073 34.5774 41.6839 34.1916 40.7624C33.9039 40.3755 33.5742 40.0223 33.2085 39.7092C32.5662 39.1244 31.827 38.6576 31.0246 38.33C29.2575 37.49 27.4469 37.5214 25.6674 36.9007C23.0106 35.9604 20.4657 35.1956 20.0364 32.0925C19.9182 31.2963 20.0862 29.7918 21.1688 29.9924C21.6293 30.0739 21.791 30.776 22.3137 30.6193C22.7306 30.5127 22.7057 29.8858 22.855 29.5598C23.274 28.8908 23.7576 28.265 24.2985 27.6917C25.0265 26.7074 25.5803 24.8518 26.9429 24.5572C28.0753 24.3002 28.4051 25.391 28.9402 26.1997C29.3322 26.8266 29.662 27.4033 30.5144 27.1212C31.2424 26.883 31.0557 26.3439 31.0495 25.5978C31.0495 24.3441 31.2984 23.2282 31.2921 21.9932C31.2921 20.0122 32.829 19.3415 34.7267 20.0122C34.9258 21.1218 33.4823 21.7738 32.8601 22.5198C32.0139 23.5981 33.0094 24.7641 34.2352 24.0369C34.5712 23.8425 34.8076 23.1843 35.1063 22.9022C35.4897 22.5524 35.9065 22.2416 36.3507 21.9744C36.8461 21.6737 37.3691 21.4217 37.9124 21.2221C39.076 20.777 40.4013 21.1594 41.4839 20.7896L41.6395 21.1156C42.0066 21.3287 42.2617 21.7425 42.7034 21.8616C43.2337 21.8777 43.7637 21.8186 44.2776 21.686C44.7356 21.6581 45.1945 21.722 45.6278 21.8741C46.8569 23.8737 47.7917 26.0423 48.4029 28.3123C48.6357 29.1951 48.8165 30.091 48.9442 30.9954C48.6206 31.3841 48.1975 31.8041 47.7309 32.3307Z" fill="#2C5871"/>
<path d="M35.965 10.8847C35.965 19.6236 25.3314 31.1397 25.3314 31.1397C25.3314 31.1397 14.7539 19.6236 14.7539 10.8847C14.7539 8.0483 15.8723 5.32804 17.8629 3.32237C19.8536 1.31671 22.5535 0.189941 25.3688 0.189941C28.184 0.189941 30.8839 1.31671 32.8746 3.32237C34.8653 5.32804 35.9836 8.0483 35.9836 10.8847H35.965Z" fill="#F99B1D"/>
<path d="M35.965 10.8847C35.965 19.6236 25.3314 31.1397 25.3314 31.1397C25.3314 31.1397 14.7539 19.6236 14.7539 10.8847C14.7539 8.0483 15.8723 5.32804 17.8629 3.32237C19.8536 1.31671 22.5535 0.189941 25.3688 0.189941C28.184 0.189941 30.8839 1.31671 32.8746 3.32237C34.8653 5.32804 35.9836 8.0483 35.9836 10.8847H35.965Z" fill="#F99B1D"/>
<path d="M25.3322 2.8418C23.2166 2.84512 21.1886 3.69377 19.6932 5.20159C18.1978 6.70942 17.3571 8.75328 17.3555 10.8848C17.3555 16.0191 22.0843 23.0215 25.3322 27.0649C28.5801 23.0152 33.3151 16.0003 33.3151 10.8848C33.3134 8.7522 32.4719 6.70738 30.9751 5.19938C29.4784 3.69138 27.4489 2.84346 25.3322 2.8418Z" fill="#FDC00F"/>
<path d="M33.1782 10.7281C33.1782 12.2871 32.7196 13.8111 31.8603 15.1076C31.0011 16.4041 29.7797 17.4149 28.3505 18.0123C26.9213 18.6098 25.3485 18.767 23.8306 18.4643C22.3128 18.1615 20.918 17.4123 19.8226 16.3112C18.7272 15.2102 17.9803 13.8067 17.6761 12.2782C17.372 10.7496 17.5243 9.16454 18.1139 7.72318C18.7035 6.28182 19.7038 5.04885 20.9886 4.18004C22.2733 3.31122 23.7848 2.84554 25.3321 2.84182C26.3616 2.83935 27.3815 3.04151 28.3333 3.43672C29.2851 3.83194 30.1502 4.41245 30.879 5.14501C31.6078 5.87757 32.186 6.74778 32.5806 7.70582C32.9751 8.66386 33.1782 9.6909 33.1782 10.7281Z" fill="#1C75BC"/>
<path d="M32.4705 10.7281C32.4705 12.1457 32.0535 13.5315 31.2722 14.7105C30.4908 15.8894 29.3803 16.8087 28.0807 17.352C26.7811 17.8954 25.3509 18.0385 23.9706 17.7633C22.5904 17.4881 21.322 16.8069 20.3258 15.8058C19.3296 14.8047 18.6502 13.5286 18.3734 12.1387C18.0967 10.7488 18.235 9.30738 18.7709 7.99661C19.3068 6.68584 20.2162 5.56448 21.3843 4.7742C22.5524 3.98391 23.9268 3.56014 25.3338 3.55642C26.2701 3.55395 27.1977 3.73762 28.0635 4.09692C28.9292 4.45623 29.7161 4.98409 30.3791 5.65029C31.042 6.31649 31.568 7.10792 31.9269 7.97925C32.2858 8.85059 32.4705 9.7847 32.4705 10.7281Z" fill="white"/>
</svg>
