<svg width="81" height="72" viewBox="0 0 81 72" fill="none" xmlns="http://www.w3.org/2000/svg">
<path d="M24.5498 59.6363H3.8953C3.14162 59.6339 2.4195 59.3324 1.88656 58.7976C1.35363 58.2628 1.05317 57.5381 1.05078 56.7818V43.4C1.05317 42.6436 1.35363 41.919 1.88656 41.3841C2.4195 40.8493 3.14162 40.5478 3.8953 40.5454H24.5498C25.3035 40.5478 26.0256 40.8493 26.5585 41.3841C27.0915 41.919 27.3919 42.6436 27.3943 43.4V56.7363C27.3991 57.1147 27.3291 57.4902 27.1885 57.8412C27.0478 58.1923 26.8391 58.5119 26.5746 58.7815C26.3101 59.0512 25.995 59.2656 25.6475 59.4123C25.2999 59.559 24.9269 59.6351 24.5498 59.6363ZM3.8953 43.1454C3.82961 43.1478 3.76741 43.1756 3.72178 43.2231C3.67615 43.2706 3.65067 43.334 3.65071 43.4V56.7363C3.65067 56.8023 3.67615 56.8657 3.72178 56.9132C3.76741 56.9607 3.82961 56.9885 3.8953 56.9909H24.5498C24.6164 56.9886 24.6796 56.961 24.7267 56.9138C24.7738 56.8665 24.8012 56.8031 24.8035 56.7363V43.4C24.8012 43.3332 24.7738 43.2697 24.7267 43.2225C24.6796 43.1752 24.6164 43.1477 24.5498 43.1454H3.8953Z" fill="white"/>
<path d="M20.9924 43.1455H7.46731C7.12374 43.1455 6.79424 43.0085 6.5513 42.7647C6.30836 42.5209 6.17188 42.1903 6.17188 41.8455V37.8727C6.17188 37.528 6.30836 37.1973 6.5513 36.9535C6.79424 36.7097 7.12374 36.5728 7.46731 36.5728H10.4387C10.7822 36.5728 11.1117 36.7097 11.3547 36.9535C11.5976 37.1973 11.7341 37.528 11.7341 37.8727V38.3727H16.7347V37.8727C16.7347 37.528 16.8711 37.1973 17.1141 36.9535C17.357 36.7097 17.6865 36.5728 18.0301 36.5728H20.9924C21.336 36.5728 21.6655 36.7097 21.9084 36.9535C22.1513 37.1973 22.2878 37.528 22.2878 37.8727V41.8455C22.2878 42.1903 22.1513 42.5209 21.9084 42.7647C21.6655 43.0085 21.336 43.1455 20.9924 43.1455ZM18.9903 40.5455H19.6969V39.1727H19.3255V39.6364C19.3357 39.9716 19.2155 40.2976 18.9903 40.5455ZM8.76275 40.5455H9.46935C9.24419 40.2976 9.12398 39.9716 9.13417 39.6364V39.1364H8.76275V40.5455Z" fill="white"/>
<path d="M18.0307 40.9727H10.4392C10.2668 40.9716 10.0963 40.9359 9.93777 40.8677C9.77925 40.7996 9.63588 40.7004 9.51606 40.5759C9.39625 40.4514 9.3024 40.3042 9.24003 40.1429C9.17766 39.9816 9.14802 39.8093 9.15285 39.6363V36.3091C9.15285 36.1376 9.18665 35.9678 9.25232 35.8095C9.31799 35.6511 9.41422 35.5074 9.53547 35.3866C9.65672 35.2658 9.80061 35.1702 9.95882 35.1054C10.117 35.0406 10.2865 35.0079 10.4573 35.0091H18.0488C18.3924 35.0091 18.7219 35.146 18.9648 35.3898C19.2077 35.6336 19.3442 35.9643 19.3442 36.3091V39.6363C19.3491 39.8116 19.3186 39.9861 19.2546 40.1493C19.1906 40.3124 19.0943 40.4609 18.9716 40.5858C18.8488 40.7106 18.7022 40.8092 18.5405 40.8757C18.3788 40.9422 18.2054 40.9752 18.0307 40.9727ZM11.6894 38.3727H16.6899V37.6545H11.6894V38.3727Z" fill="white"/>
<path d="M8.53783 44.5908H6.23684C5.52139 44.5908 4.94141 45.1728 4.94141 45.8908V50.4544C4.94141 51.1724 5.52139 51.7544 6.23684 51.7544H8.53783C9.25328 51.7544 9.83326 51.1724 9.83326 50.4544V45.8908C9.83326 45.1728 9.25328 44.5908 8.53783 44.5908Z" fill="white"/>
<path d="M22.2292 44.5908H19.9282C19.2128 44.5908 18.6328 45.1728 18.6328 45.8908V50.4544C18.6328 51.1724 19.2128 51.7544 19.9282 51.7544H22.2292C22.9447 51.7544 23.5247 51.1724 23.5247 50.4544V45.8908C23.5247 45.1728 22.9447 44.5908 22.2292 44.5908Z" fill="white"/>
<path d="M61.8662 51.4001C61.7441 51.399 61.6225 51.3837 61.5038 51.3546L32.4607 43.0455C32.1956 42.9616 31.9643 42.7944 31.8012 42.5685C31.6381 42.3426 31.5517 42.0699 31.5548 41.791V30.191C31.5507 29.9128 31.6369 29.6409 31.8003 29.4163C31.9637 29.1916 32.1955 29.0264 32.4607 28.9455L61.5038 20.6273C61.6967 20.5709 61.9 20.5603 62.0976 20.5963C62.2952 20.6323 62.4818 20.714 62.6426 20.8348C62.8034 20.9556 62.9339 21.1122 63.024 21.2924C63.1141 21.4725 63.1612 21.6712 63.1616 21.8728V50.1001C63.162 50.3012 63.1155 50.4997 63.0258 50.6797C62.9362 50.8596 62.8059 51.016 62.6453 51.1364C62.4207 51.3063 62.1474 51.3988 61.8662 51.4001ZM34.1095 40.8092L60.5617 48.3728V23.6L34.1095 31.1728V40.8092Z" fill="white"/>
<path d="M64.0864 53.6818C63.1518 53.6818 62.2555 53.3092 61.5946 52.646C60.9338 51.9828 60.5625 51.0834 60.5625 50.1454V21.6545C60.5625 20.7166 60.9338 19.8172 61.5946 19.154C62.2555 18.4908 63.1518 18.1182 64.0864 18.1182C65.0211 18.1182 65.9174 18.4908 66.5782 19.154C67.2391 19.8172 67.6104 20.7166 67.6104 21.6545V50.1454C67.6104 51.0834 67.2391 51.9828 66.5782 52.646C65.9174 53.3092 65.0211 53.6818 64.0864 53.6818ZM64.0864 20.7182C63.8462 20.7182 63.6158 20.8139 63.4459 20.9844C63.276 21.1549 63.1805 21.3862 63.1805 21.6273V50.1182C63.1805 50.3593 63.276 50.5905 63.4459 50.761C63.6158 50.9315 63.8462 51.0273 64.0864 51.0273C64.3267 51.0273 64.5571 50.9315 64.727 50.761C64.8969 50.5905 64.9923 50.3593 64.9923 50.1182V21.6545C64.996 21.5329 64.9752 21.4117 64.9313 21.2983C64.8875 21.1848 64.8213 21.0813 64.7368 20.994C64.6523 20.9067 64.5512 20.8373 64.4395 20.7899C64.3278 20.7425 64.2077 20.7181 64.0864 20.7182Z" fill="white"/>
<path d="M31.1013 45.1727C30.3037 45.1727 29.5387 44.8547 28.9747 44.2887C28.4106 43.7227 28.0938 42.955 28.0938 42.1545V29.6364C28.0938 28.8359 28.4106 28.0682 28.9747 27.5022C29.5387 26.9362 30.3037 26.6182 31.1013 26.6182C31.899 26.6182 32.664 26.9362 33.228 27.5022C33.792 28.0682 34.1089 28.8359 34.1089 29.6364V42.1455C34.1101 42.5426 34.0332 42.936 33.8826 43.3032C33.732 43.6705 33.5106 44.0043 33.2312 44.2855C32.9518 44.5667 32.6199 44.7899 32.2544 44.9421C31.8889 45.0944 31.4971 45.1727 31.1013 45.1727ZM31.1013 29.2273C30.9915 29.2296 30.8869 29.2744 30.8092 29.3523C30.7316 29.4302 30.6869 29.5353 30.6846 29.6455V42.1545C30.6846 42.2654 30.7285 42.3718 30.8067 42.4502C30.8848 42.5287 30.9908 42.5727 31.1013 42.5727C31.2119 42.5727 31.3178 42.5287 31.396 42.4502C31.4741 42.3718 31.518 42.2654 31.518 42.1545V29.6364C31.5135 29.5278 31.4678 29.425 31.3904 29.349C31.313 29.273 31.2096 29.2295 31.1013 29.2273Z" fill="white"/>
<path d="M39.2184 57.8181H36.4283C36.0847 57.8181 35.7552 57.6812 35.5122 57.4374C35.2693 57.1936 35.1328 56.8629 35.1328 56.5181V42.8818C35.1325 42.6806 35.179 42.4821 35.2686 42.3022C35.3583 42.1222 35.4886 41.9658 35.6492 41.8454C35.8103 41.7242 35.9969 41.6416 36.1947 41.6038C36.3926 41.5659 36.5964 41.574 36.7906 41.6272L42.833 43.3636C42.9969 43.4078 43.1504 43.4841 43.2848 43.5882C43.4192 43.6922 43.5317 43.8219 43.616 43.9698C43.7002 44.1176 43.7544 44.2808 43.7755 44.4498C43.7966 44.6188 43.7841 44.7903 43.7389 44.9545L40.4776 56.8999C40.3952 57.1692 40.2279 57.4044 40.0008 57.57C39.7737 57.7356 39.4991 57.8226 39.2184 57.8181ZM37.7328 55.2181H38.231L40.8581 45.4545L37.7056 44.5454L37.7328 55.2181Z" fill="white"/>
<path d="M66.315 41.7181C66.0206 41.7187 65.7353 41.6158 65.5087 41.4272C65.3561 41.3054 65.2328 41.1506 65.1481 40.9743C65.0634 40.798 65.0194 40.6048 65.0195 40.409V30.009C65.0201 29.8147 65.0644 29.6231 65.1491 29.4483C65.2339 29.2736 65.3568 29.1203 65.5087 28.9999C65.6586 28.8771 65.8344 28.7903 66.0229 28.7462C66.2113 28.7021 66.4073 28.7018 66.5958 28.7454L71.8862 29.909C72.1755 29.973 72.4345 30.1339 72.6205 30.3652C72.8066 30.5965 72.9086 30.8845 72.9099 31.1818V39.2454C72.9099 39.542 72.8081 39.8295 72.6217 40.0596C72.4353 40.2898 72.1756 40.4485 71.8862 40.509L66.5958 41.6818C66.5037 41.7033 66.4096 41.7155 66.315 41.7181ZM67.6104 31.6363V38.7909L70.3281 38.2V32.2272L67.6104 31.6363Z" fill="white"/>
<path d="M73.1074 31.1091C72.8446 31.1146 72.5863 31.0397 72.367 30.8944C72.1476 30.7491 71.9775 30.5402 71.8792 30.2956C71.7809 30.0509 71.759 29.7821 71.8166 29.5247C71.8742 29.2673 72.0084 29.0336 72.2015 28.8546L75.2815 26C75.5355 25.777 75.8663 25.6623 76.2033 25.6803C76.5403 25.6983 76.857 25.8476 77.086 26.0963C77.315 26.3451 77.4383 26.6738 77.4295 27.0123C77.4207 27.3509 77.2806 27.6727 77.039 27.9091L73.9861 30.7455C73.7497 30.9741 73.4356 31.104 73.1074 31.1091Z" fill="white"/>
<path d="M75.2837 33.9182C74.9607 33.925 74.6468 33.8105 74.4036 33.597C74.1604 33.3836 74.0054 33.0867 73.9691 32.7645C73.9328 32.4424 74.0178 32.1182 74.2074 31.8557C74.397 31.5931 74.6774 31.4112 74.9938 31.3455L79.0522 30.4364C79.2183 30.3975 79.3903 30.3921 79.5584 30.4206C79.7265 30.449 79.8873 30.5107 80.0315 30.602C80.1756 30.6934 80.3002 30.8126 80.398 30.9527C80.4958 31.0928 80.565 31.251 80.6013 31.4182C80.6388 31.5847 80.6432 31.757 80.6144 31.9253C80.5855 32.0935 80.5238 32.2545 80.433 32.3988C80.3421 32.5432 80.2239 32.6682 80.0849 32.7666C79.9459 32.8651 79.7889 32.9351 79.6229 32.9727L75.5645 33.8818C75.4731 33.9073 75.3785 33.9195 75.2837 33.9182Z" fill="white"/>
<path d="M79.6745 38.6545C79.5458 38.6542 79.4177 38.6358 79.294 38.5999L75.2809 37.3636C75.1179 37.3134 74.9664 37.2315 74.8349 37.1226C74.7035 37.0137 74.5947 36.8799 74.5148 36.7288C74.4348 36.5777 74.3854 36.4122 74.3692 36.242C74.353 36.0717 74.3703 35.8998 74.4203 35.7363C74.4703 35.5727 74.5518 35.4206 74.6604 35.2887C74.7689 35.1568 74.9023 35.0476 75.0528 34.9675C75.2034 34.8873 75.3683 34.8376 75.5379 34.8213C75.7076 34.8051 75.8789 34.8225 76.0418 34.8727L80.0187 36.109C80.3175 36.1987 80.5741 36.3935 80.7412 36.6577C80.9084 36.922 80.9749 37.2378 80.9287 37.5473C80.8824 37.8568 80.7264 38.1392 80.4894 38.3426C80.2523 38.546 79.9501 38.6567 79.6383 38.6545H79.6745Z" fill="white"/>
<path d="M77.1752 43.7455C76.9963 43.7465 76.8192 43.7098 76.6554 43.6378C76.4915 43.5658 76.3446 43.46 76.224 43.3273L73.3976 40.2637C73.2816 40.1383 73.1914 39.9913 73.132 39.8309C73.0727 39.6706 73.0454 39.5 73.0517 39.3291C73.058 39.1582 73.0978 38.9901 73.1688 38.8346C73.2398 38.6791 73.3407 38.5392 73.4656 38.4228C73.5905 38.3064 73.737 38.2158 73.8968 38.1562C74.0566 38.0967 74.2265 38.0693 74.3969 38.0756C74.5672 38.0819 74.7346 38.1219 74.8896 38.1931C75.0446 38.2644 75.184 38.3656 75.3 38.4909L78.1264 41.5637C78.3538 41.816 78.4736 42.1477 78.46 42.4876C78.4465 42.8275 78.3007 43.1486 78.054 43.3819C77.8202 43.6144 77.5044 43.7451 77.1752 43.7455Z" fill="white"/>
<path d="M72.4717 46.9091C72.1763 46.91 71.8895 46.8095 71.6588 46.6243C71.4282 46.4391 71.2675 46.1803 71.2035 45.891L70.2976 41.8182C70.2526 41.493 70.331 41.1627 70.5173 40.8928C70.7036 40.6229 70.9841 40.4331 71.3033 40.361C71.6225 40.289 71.957 40.3399 72.2406 40.5037C72.5241 40.6675 72.7359 40.9323 72.8341 41.2455L73.74 45.3182C73.7787 45.4848 73.7841 45.6575 73.7557 45.8262C73.7274 45.9949 73.6659 46.1562 73.5749 46.3009C73.4838 46.4455 73.3651 46.5706 73.2254 46.6688C73.0858 46.7669 72.9282 46.8363 72.7616 46.8728C72.6673 46.8991 72.5696 46.9114 72.4717 46.9091Z" fill="white"/>
<path d="M69.8456 29.7546C69.7161 29.7557 69.5873 29.7342 69.4652 29.691C69.302 29.6411 69.1502 29.5594 69.0186 29.4506C68.8869 29.3417 68.778 29.2079 68.698 29.0567C68.6181 28.9055 68.5687 28.74 68.5526 28.5695C68.5366 28.3991 68.5542 28.2272 68.6046 28.0637L69.8456 24.0728C69.8952 23.9092 69.9766 23.757 70.0852 23.6253C70.1939 23.4935 70.3275 23.3847 70.4783 23.3052C70.6292 23.2257 70.7943 23.1771 70.9641 23.1622C71.1338 23.1472 71.3048 23.1663 71.4672 23.2182C71.7951 23.3208 72.069 23.5498 72.2287 23.8549C72.3884 24.1601 72.4207 24.5164 72.3187 24.8455L71.0867 28.8364C71.0039 29.1019 70.839 29.3341 70.6158 29.4992C70.3927 29.6643 70.1229 29.7538 69.8456 29.7546Z" fill="white"/>
<path d="M52.3848 71.4544C50.2648 71.4544 48.1924 70.8234 46.4299 69.6413C44.6673 68.4592 43.2937 66.779 42.4829 64.8133C41.672 62.8477 41.4603 60.6848 41.8746 58.5984C42.2888 56.512 43.3104 54.5957 44.8101 53.092C46.3097 51.5883 48.2201 50.5648 50.2996 50.1509C52.379 49.7369 54.5341 49.9512 56.4922 50.7666C58.4503 51.5819 60.1234 52.9618 61.2998 54.7316C62.4763 56.5013 63.1033 58.5815 63.1015 60.7089C63.0968 63.5589 61.9658 66.2906 59.9568 68.305C57.9478 70.3194 55.2247 71.452 52.3848 71.4544ZM52.3848 52.5544C50.7722 52.5544 49.1959 53.0343 47.8551 53.9333C46.5144 54.8323 45.4694 56.1101 44.8523 57.6052C44.2352 59.1002 44.0737 60.7453 44.3883 62.3324C44.7029 63.9195 45.4794 65.3774 46.6196 66.5217C47.7599 67.6659 49.2126 68.4451 50.7942 68.7608C52.3757 69.0765 54.015 68.9145 55.5048 68.2952C56.9946 67.676 58.2679 66.6273 59.1638 65.2818C60.0597 63.9363 60.5379 62.3544 60.5379 60.7362C60.5355 58.5678 59.6754 56.4891 58.1467 54.9567C56.6179 53.4243 54.5455 52.5635 52.3848 52.5635V52.5544Z" fill="white"/>
<path d="M52.3793 68.3091C50.8806 68.3109 49.4152 67.8665 48.1683 67.0321C46.9215 66.1977 45.9494 65.0108 45.3751 63.6217C44.8008 62.2326 44.65 60.7038 44.942 59.2287C45.2339 57.7536 45.9554 56.3985 47.0151 55.3351C48.0748 54.2717 49.425 53.5477 50.8949 53.2547C52.3649 52.9618 53.8883 53.113 55.2726 53.6894C56.6568 54.2657 57.8395 55.2413 58.671 56.4925C59.5024 57.7437 59.9453 59.2143 59.9435 60.7182C59.9411 62.7307 59.1434 64.6601 57.7253 66.0832C56.3073 67.5062 54.3847 68.3067 52.3793 68.3091ZM52.3793 55.7273C51.3956 55.7273 50.4341 56.02 49.6162 56.5684C48.7983 57.1168 48.1609 57.8963 47.7844 58.8083C47.408 59.7203 47.3095 60.7238 47.5014 61.6919C47.6933 62.66 48.167 63.5493 48.8625 64.2473C49.5581 64.9453 50.4443 65.4207 51.409 65.6132C52.3737 65.8058 53.3737 65.707 54.2825 65.3292C55.1913 64.9515 55.968 64.3118 56.5145 63.491C57.061 62.6703 57.3526 61.7053 57.3526 60.7182C57.3526 59.3945 56.8287 58.1251 55.896 57.1891C54.9633 56.2531 53.6983 55.7273 52.3793 55.7273Z" fill="white"/>
<path d="M30.9662 22.6727C30.7709 22.6719 30.5785 22.6252 30.4045 22.5363C30.199 22.439 30.0234 22.2882 29.8959 22.0994C29.7684 21.9107 29.6938 21.6912 29.6798 21.4636L29.4986 19.0363H28.5927C27.8719 19.0363 27.1807 18.749 26.671 18.2375C26.1613 17.7261 25.875 17.0324 25.875 16.309V3.27268C25.875 2.54937 26.1613 1.85568 26.671 1.34422C27.1807 0.832759 27.8719 0.54541 28.5927 0.54541H48.749C49.4619 0.557335 50.1415 0.849915 50.6414 1.36009C51.1414 1.87027 51.4215 2.55717 51.4214 3.27268V16.3909C51.4215 17.1064 51.1414 17.7933 50.6414 18.3035C50.1415 18.8136 49.4619 19.1062 48.749 19.1181H36.7005L31.6909 22.5272C31.468 22.6438 31.2166 22.6943 30.9662 22.6727ZM32.0261 17.9818L32.0985 19.0272L35.5862 16.6636C35.8002 16.5179 36.0524 16.4388 36.311 16.4363H48.758C48.7695 16.4364 48.7809 16.434 48.7915 16.4293C48.802 16.4247 48.8114 16.4178 48.8191 16.4092C48.8268 16.4006 48.8326 16.3905 48.8361 16.3795C48.8397 16.3685 48.8408 16.3569 48.8395 16.3454V3.27268C48.8397 3.25007 48.8314 3.22824 48.8163 3.21143C48.8012 3.19462 48.7804 3.18403 48.758 3.18177H28.6018C28.5902 3.1817 28.5788 3.18409 28.5683 3.18876C28.5578 3.19343 28.5484 3.20026 28.5407 3.20885C28.533 3.21743 28.5271 3.22759 28.5236 3.23859C28.5201 3.24959 28.5189 3.2612 28.5202 3.27268V16.3909C28.5189 16.4023 28.5201 16.414 28.5236 16.425C28.5271 16.436 28.533 16.4461 28.5407 16.4547C28.5484 16.4633 28.5578 16.4701 28.5683 16.4748C28.5788 16.4795 28.5902 16.4818 28.6018 16.4818H30.7125C31.0439 16.4813 31.3629 16.6082 31.6038 16.8365C31.8448 17.0648 31.9894 17.377 32.0079 17.7091L32.0261 17.9818Z" fill="white"/>
<path d="M46.2915 6.14542H31.2173C30.8737 6.14542 30.5442 6.00845 30.3013 5.76465C30.0584 5.52085 29.9219 5.19021 29.9219 4.84543C29.9219 4.50065 30.0584 4.16998 30.3013 3.92619C30.5442 3.68239 30.8737 3.54541 31.2173 3.54541H46.2915C46.635 3.54541 46.9646 3.68239 47.2075 3.92619C47.4504 4.16998 47.5869 4.50065 47.5869 4.84543C47.5869 5.19021 47.4504 5.52085 47.2075 5.76465C46.9646 6.00845 46.635 6.14542 46.2915 6.14542Z" fill="white"/>
<path d="M38.7544 9.54554H31.2173C30.8737 9.54554 30.5442 9.40859 30.3013 9.16479C30.0584 8.921 29.9219 8.59033 29.9219 8.24555C29.9219 7.90077 30.0584 7.5701 30.3013 7.32631C30.5442 7.08251 30.8737 6.94556 31.2173 6.94556H38.7544C39.098 6.94556 39.4275 7.08251 39.6704 7.32631C39.9133 7.5701 40.0498 7.90077 40.0498 8.24555C40.0498 8.59033 39.9133 8.921 39.6704 9.16479C39.4275 9.40859 39.098 9.54554 38.7544 9.54554Z" fill="white"/>
<path d="M44.063 12.9455H31.2173C30.8737 12.9455 30.5442 12.8085 30.3013 12.5647C30.0584 12.3209 29.9219 11.9902 29.9219 11.6455C29.9219 11.3007 30.0584 10.97 30.3013 10.7262C30.5442 10.4824 30.8737 10.3455 31.2173 10.3455H44.063C44.4065 10.3455 44.736 10.4824 44.979 10.7262C45.2219 10.97 45.3584 11.3007 45.3584 11.6455C45.3584 11.9902 45.2219 12.3209 44.979 12.5647C44.736 12.8085 44.4065 12.9455 44.063 12.9455Z" fill="white"/>
<path d="M46.2915 16.3363H31.2173C30.8737 16.3363 30.5442 16.1994 30.3013 15.9556C30.0584 15.7118 29.9219 15.3811 29.9219 15.0363C29.9219 14.6915 30.0584 14.3609 30.3013 14.1171C30.5442 13.8733 30.8737 13.7363 31.2173 13.7363H46.2915C46.635 13.7363 46.9646 13.8733 47.2075 14.1171C47.4504 14.3609 47.5869 14.6915 47.5869 15.0363C47.5869 15.3811 47.4504 15.7118 47.2075 15.9556C46.9646 16.1994 46.635 16.3363 46.2915 16.3363Z" fill="white"/>
<path d="M26.1068 49.1637H22.2295C22.0497 49.1788 21.8687 49.1563 21.698 49.0975C21.5272 49.0388 21.3705 48.9452 21.2377 48.8226C21.1049 48.7 20.9989 48.551 20.9264 48.3852C20.8538 48.2194 20.8164 48.0403 20.8164 47.8592C20.8164 47.6781 20.8538 47.4989 20.9264 47.3331C20.9989 47.1673 21.1049 47.0183 21.2377 46.8957C21.3705 46.7731 21.5272 46.6795 21.698 46.6208C21.8687 46.562 22.0497 46.5395 22.2295 46.5546H26.1068C26.4328 46.5819 26.7367 46.7312 26.9582 46.9729C27.1797 47.2145 27.3026 47.5308 27.3026 47.8592C27.3026 48.1875 27.1797 48.5038 26.9582 48.7455C26.7367 48.9871 26.4328 49.1364 26.1068 49.1637Z" fill="white"/>
<path d="M19.9319 49.1636H8.53573C8.20969 49.1362 7.9058 48.9869 7.68429 48.7453C7.46279 48.5037 7.33984 48.1873 7.33984 47.859C7.33984 47.5307 7.46279 47.2143 7.68429 46.9727C7.9058 46.7311 8.20969 46.5818 8.53573 46.5544H19.9319C20.258 46.5818 20.5619 46.7311 20.7834 46.9727C21.0049 47.2143 21.1278 47.5307 21.1278 47.859C21.1278 48.1873 21.0049 48.5037 20.7834 48.7453C20.5619 48.9869 20.258 49.1362 19.9319 49.1636Z" fill="white"/>
<path d="M6.23567 49.1637H2.35842C2.17859 49.1788 1.99759 49.1563 1.82688 49.0975C1.65616 49.0388 1.49944 48.9452 1.36663 48.8226C1.23382 48.7 1.1278 48.551 1.05528 48.3852C0.982761 48.2194 0.945312 48.0403 0.945312 47.8592C0.945312 47.6781 0.982761 47.4989 1.05528 47.3331C1.1278 47.1673 1.23382 47.0183 1.36663 46.8957C1.49944 46.7731 1.65616 46.6795 1.82688 46.6208C1.99759 46.562 2.17859 46.5395 2.35842 46.5546H6.23567C6.56171 46.5819 6.8656 46.7312 7.08711 46.9729C7.30861 47.2145 7.43155 47.5308 7.43155 47.8592C7.43155 48.1875 7.30861 48.5038 7.08711 48.7455C6.8656 48.9871 6.56171 49.1364 6.23567 49.1637Z" fill="white"/>
<path d="M52.5635 58.9362C52.5635 58.518 52.8715 58.1907 53.4694 58.1362V59.8271C52.7265 59.5907 52.5635 59.3453 52.5635 58.918M55.1815 62.0635C55.1815 62.518 54.8463 62.8271 54.2756 62.8998V61.1453C54.9822 61.3998 55.1815 61.6544 55.1815 62.0816V62.0635ZM53.4422 56.9543V57.1543C52.9363 57.132 52.4419 57.3101 52.0656 57.6502C51.6894 57.9903 51.4615 58.4653 51.4311 58.9725C51.4311 60.0543 52.0833 60.5816 53.4875 60.9453V62.8453C52.9723 62.7364 52.4869 62.5161 52.0652 62.1998C51.976 62.1264 51.8635 62.0877 51.7482 62.0907C51.6788 62.0895 51.6099 62.1023 51.5456 62.1283C51.4813 62.1544 51.4229 62.1932 51.3739 62.2424C51.3249 62.2916 51.2862 62.3502 51.2602 62.4148C51.2343 62.4793 51.2215 62.5484 51.2227 62.618C51.2215 62.7117 51.2452 62.8041 51.2914 62.8856C51.3375 62.9671 51.4045 63.0348 51.4854 63.0816C52.0625 63.4957 52.7367 63.7525 53.4422 63.8271V64.4271C53.4434 64.482 53.4553 64.5361 53.4774 64.5864C53.4994 64.6367 53.5311 64.6822 53.5706 64.7201C53.6102 64.7581 53.6568 64.7879 53.7078 64.8078C53.7588 64.8278 53.8132 64.8374 53.868 64.8362C53.9761 64.8362 54.0798 64.7931 54.1562 64.7163C54.2327 64.6396 54.2756 64.5356 54.2756 64.4271V63.8453C55.4895 63.7271 56.323 63.0271 56.323 61.9816C56.323 60.9362 55.6979 60.3634 54.2394 59.9998V58.1816C54.5874 58.2711 54.9201 58.4121 55.2268 58.5998C55.3122 58.6586 55.4132 58.6903 55.5167 58.6907C55.5864 58.6919 55.6558 58.6792 55.7206 58.6532C55.7853 58.6273 55.8443 58.5886 55.8941 58.5395C55.9439 58.4905 55.9834 58.4319 56.0103 58.3673C56.0373 58.3028 56.0512 58.2335 56.0512 58.1634C56.0519 58.0665 56.025 57.9713 55.9736 57.8892C55.9223 57.8071 55.8486 57.7414 55.7613 57.6998C55.3129 57.412 54.8046 57.2316 54.2756 57.1725V56.9634C54.2768 56.909 54.2672 56.8548 54.2472 56.8041C54.2273 56.7534 54.1974 56.7072 54.1595 56.6683C54.1215 56.6293 54.0761 56.5984 54.0261 56.5773C53.976 56.5561 53.9223 56.5453 53.868 56.5453C53.8117 56.544 53.7558 56.5542 53.7036 56.5753C53.6514 56.5963 53.6039 56.6277 53.5641 56.6676C53.5243 56.7076 53.493 56.7552 53.4721 56.8076C53.4511 56.86 53.441 56.9161 53.4422 56.9725V56.9543Z" fill="white"/>
</svg>
