<svg width="80" height="75" viewBox="0 0 80 75" fill="none" xmlns="http://www.w3.org/2000/svg">
<path d="M49.5374 12.1307C48.8208 12.1307 48.1202 11.9172 47.5244 11.5172C46.9285 11.1171 46.4641 10.5486 46.1899 9.8834C45.9157 9.2182 45.8439 8.48623 45.9837 7.78006C46.1235 7.07389 46.4686 6.42524 46.9753 5.91612C47.482 5.407 48.1277 5.06027 48.8305 4.9198C49.5334 4.77934 50.2619 4.85144 50.924 5.12697C51.5861 5.4025 52.1519 5.8691 52.55 6.46777C52.9482 7.06643 53.1607 7.77027 53.1607 8.49028C53.1607 9.45577 52.779 10.3817 52.0995 11.0644C51.42 11.7471 50.4983 12.1307 49.5374 12.1307ZM49.5374 7.40725C49.3296 7.40725 49.1264 7.46917 48.9536 7.58517C48.7808 7.70118 48.6462 7.86606 48.5666 8.05897C48.4871 8.25188 48.4663 8.46413 48.5068 8.66892C48.5474 8.87371 48.6474 9.06184 48.7944 9.20949C48.9413 9.35713 49.1286 9.45766 49.3324 9.49839C49.5362 9.53913 49.7475 9.51822 49.9395 9.43832C50.1315 9.35841 50.2956 9.22309 50.4111 9.04948C50.5265 8.87587 50.5882 8.67178 50.5882 8.46297C50.5858 8.18372 50.4743 7.91657 50.2778 7.7191C50.0812 7.52163 49.8153 7.40963 49.5374 7.40725Z" fill="white"/>
<path d="M58.1272 12.1307C57.4106 12.1307 56.7101 11.9172 56.1142 11.5172C55.5184 11.1171 55.0539 10.5486 54.7797 9.8834C54.5055 9.2182 54.4337 8.48623 54.5735 7.78006C54.7133 7.07389 55.0584 6.42524 55.5652 5.91612C56.0719 5.407 56.7175 5.06027 57.4203 4.9198C58.1232 4.77934 58.8517 4.85144 59.5138 5.12697C60.1759 5.4025 60.7418 5.8691 61.1399 6.46777C61.538 7.06643 61.7506 7.77027 61.7506 8.49028C61.7506 9.45577 61.3688 10.3817 60.6893 11.0644C60.0098 11.7471 59.0882 12.1307 58.1272 12.1307ZM58.1272 7.40725C57.9198 7.40905 57.7176 7.4725 57.546 7.58959C57.3743 7.70668 57.2411 7.87216 57.1629 8.06522C57.0848 8.25828 57.0652 8.47026 57.1068 8.67445C57.1484 8.87863 57.2491 9.06589 57.3965 9.21263C57.5438 9.35936 57.731 9.459 57.9346 9.499C58.1381 9.53901 58.349 9.51759 58.5405 9.43743C58.7319 9.35726 58.8955 9.22194 59.0106 9.04854C59.1256 8.87513 59.187 8.67139 59.187 8.46297C59.1871 8.32357 59.1596 8.18554 59.1062 8.05686C59.0528 7.92818 58.9746 7.81136 58.8761 7.71321C58.7775 7.61506 58.6606 7.53751 58.5321 7.48499C58.4036 7.43248 58.266 7.40605 58.1272 7.40725Z" fill="white"/>
<path d="M66.721 12.1307C66.0044 12.1307 65.3038 11.9172 64.708 11.5172C64.1121 11.1171 63.6477 10.5486 63.3735 9.8834C63.0992 9.2182 63.0275 8.48623 63.1673 7.78006C63.3071 7.07389 63.6522 6.42524 64.1589 5.91612C64.6656 5.407 65.3112 5.06027 66.0141 4.9198C66.7169 4.77934 67.4455 4.85144 68.1075 5.12697C68.7696 5.4025 69.3355 5.8691 69.7337 6.46777C70.1318 7.06643 70.3443 7.77027 70.3443 8.49028C70.3443 9.45577 69.9626 10.3817 69.2831 11.0644C68.6036 11.7471 67.682 12.1307 66.721 12.1307ZM66.721 7.40725C66.5132 7.40725 66.31 7.46917 66.1372 7.58517C65.9644 7.70118 65.8297 7.86606 65.7502 8.05897C65.6707 8.25188 65.6498 8.46413 65.6904 8.66892C65.7309 8.87371 65.831 9.06184 65.978 9.20949C66.1249 9.35713 66.3122 9.45766 66.516 9.49839C66.7198 9.53913 66.9311 9.51822 67.1231 9.43832C67.3151 9.35841 67.4792 9.22309 67.5946 9.04948C67.7101 8.87587 67.7717 8.67178 67.7717 8.46297C67.7694 8.18372 67.6579 7.91657 67.4613 7.7191C67.2648 7.52163 66.9989 7.40963 66.721 7.40725Z" fill="white"/>
<path d="M46.0688 51.1741H35.3075C35.0798 51.1721 34.8565 51.1107 34.6596 50.9958C34.4627 50.8809 34.2989 50.7165 34.1842 50.5189L20.6512 26.9563C20.4809 26.657 20.4358 26.3019 20.5258 25.9692C20.6158 25.6364 20.8336 25.3532 21.1313 25.1816L29.1841 20.5037C29.3333 20.4126 29.4992 20.3526 29.6719 20.3271C29.8446 20.3017 30.0206 20.3113 30.1895 20.3554C30.3585 20.3995 30.5169 20.4773 30.6554 20.584C30.7938 20.6908 30.9096 20.8244 30.9958 20.977L47.1829 49.1446C47.3114 49.3414 47.3848 49.5692 47.3954 49.8043C47.406 50.0394 47.3535 50.273 47.2432 50.4807C47.1329 50.6883 46.969 50.8622 46.7688 50.9843C46.5685 51.1063 46.3392 51.1719 46.105 51.1741H46.0688ZM36.1047 48.5622H43.8676L29.3743 23.416L23.5589 26.7834L36.1047 48.5622Z" fill="white"/>
<path d="M47.049 51.1743H46.0617C45.835 51.1734 45.6125 51.1123 45.4168 50.9972C45.2212 50.8822 45.0593 50.7172 44.9475 50.519L40.0561 42.0277C39.945 41.8274 39.8867 41.6018 39.8867 41.3725C39.8867 41.1431 39.945 40.9176 40.0561 40.7172L49.0419 25.0907C49.1268 24.9419 49.2401 24.8114 49.3753 24.7068C49.5106 24.6022 49.6651 24.5254 49.8299 24.481C49.9933 24.436 50.1639 24.4241 50.3318 24.4459C50.4998 24.4678 50.6617 24.523 50.8082 24.6084L58.8792 29.2863C59.0262 29.3717 59.1548 29.4857 59.2575 29.6217C59.3601 29.7576 59.4348 29.9128 59.477 30.0781C59.522 30.2437 59.534 30.4166 59.5122 30.5868C59.4905 30.7571 59.4354 30.9213 59.3502 31.0701L48.1723 50.519C48.0576 50.7167 47.8939 50.881 47.6969 50.9959C47.5 51.1108 47.2767 51.1722 47.049 51.1743ZM42.6829 41.3725L46.5599 48.1163L56.4606 30.8881L50.6361 27.5207L42.6829 41.3725Z" fill="white"/>
<path d="M51.7137 55.9432H48.0904C47.8061 55.9438 47.5294 55.8512 47.3024 55.6793C45.7509 54.4873 43.8521 53.8415 41.8991 53.8415C39.946 53.8415 38.0473 54.4873 36.4958 55.6793C36.2688 55.8512 35.9921 55.9438 35.7078 55.9432H32.0844C31.7416 55.9408 31.4135 55.8029 31.1711 55.5594C30.9287 55.3158 30.7914 54.9862 30.7891 54.6417V49.8637C30.7914 49.5193 30.9287 49.1896 31.1711 48.9461C31.4135 48.7025 31.7416 48.5646 32.0844 48.5623H51.7499C52.0935 48.5623 52.423 48.6994 52.6659 48.9434C52.9088 49.1875 53.0453 49.5185 53.0453 49.8637V54.6417C53.0453 54.8157 53.0107 54.988 52.9433 55.1483C52.876 55.3087 52.7773 55.4538 52.6532 55.5751C52.529 55.6964 52.3819 55.7915 52.2206 55.8548C52.0592 55.918 51.8869 55.948 51.7137 55.9432ZM48.4981 53.3403H50.4184V51.1742H33.3526V53.3403H35.2639C37.2019 51.9727 39.5127 51.2389 41.881 51.2389C44.2493 51.2389 46.56 51.9727 48.4981 53.3403Z" fill="white"/>
<path d="M41.8854 74.3636C39.608 74.3654 37.3812 73.6885 35.4867 72.4185C33.5922 71.1486 32.1151 69.3426 31.2423 67.2291C30.3695 65.1156 30.1402 62.7895 30.5834 60.5451C31.0266 58.3006 32.1224 56.2386 33.7322 54.62C35.342 53.0014 37.3934 51.8988 39.627 51.4517C41.8605 51.0046 44.1759 51.2332 46.2802 52.1084C48.3844 52.9837 50.1831 54.4663 51.4485 56.3687C52.714 58.2712 53.3895 60.5079 53.3895 62.7961C53.3871 65.8617 52.1746 68.8011 50.0179 70.9697C47.8613 73.1382 44.9366 74.3587 41.8854 74.3636ZM41.8854 53.8407C40.12 53.8389 38.3937 54.3634 36.925 55.3477C35.4564 56.3321 34.3113 57.7321 33.6349 59.3705C32.9584 61.0089 32.781 62.8121 33.125 64.5519C33.469 66.2917 34.3189 67.8899 35.5673 69.1441C36.8157 70.3984 38.4063 71.2523 40.1379 71.598C41.8696 71.9436 43.6643 71.7653 45.295 71.0856C46.9258 70.406 48.3191 69.2556 49.2988 67.78C50.2786 66.3044 50.8006 64.5699 50.7988 62.7961C50.794 60.4225 49.8534 58.1475 48.1829 56.469C46.5123 54.7906 44.2479 53.8456 41.8854 53.8407Z" fill="white"/>
<path d="M44.8097 68.6391C44.536 68.6353 44.2701 68.5463 44.0488 68.3842L41.8839 66.7916L39.719 68.3842C39.4978 68.5496 39.2299 68.6397 38.9542 68.6415C38.6785 68.6433 38.4095 68.5566 38.1862 68.3942C37.9629 68.2318 37.797 68.002 37.7126 67.7384C37.6282 67.4747 37.6298 67.1908 37.7171 66.9281L38.5504 64.3616L36.3855 62.7871C36.1637 62.6265 35.9981 62.3993 35.9126 62.1384C35.8271 61.8774 35.826 61.5959 35.9095 61.3342C35.9929 61.0725 36.1567 60.8441 36.3772 60.6817C36.5978 60.5193 36.8639 60.4312 37.1373 60.43H39.8548L40.6792 57.8635C40.7618 57.6001 40.9257 57.3699 41.1472 57.2063C41.3686 57.0427 41.6362 56.9541 41.9111 56.9534C42.186 56.9541 42.4535 57.0427 42.675 57.2063C42.8964 57.3699 43.0603 57.6001 43.143 57.8635L43.9673 60.43H46.6848C46.9591 60.4292 47.2264 60.516 47.4485 60.6777C47.6705 60.8394 47.8358 61.0678 47.9204 61.3299C48.005 61.592 48.0046 61.8743 47.9193 62.1362C47.834 62.3981 47.6681 62.626 47.4457 62.7871L45.2717 64.3616L46.1051 66.9281C46.1942 67.1893 46.1965 67.4725 46.1115 67.7352C46.0266 67.9978 45.859 68.2256 45.634 68.3842C45.3959 68.5606 45.1053 68.6505 44.8097 68.6391ZM41.8839 63.9156C42.0587 63.916 42.2315 63.9532 42.3911 64.0249C42.3765 63.8481 42.397 63.6702 42.4514 63.5014C42.5059 63.3327 42.5931 63.1765 42.7082 63.042C42.6373 62.8805 42.5213 62.7432 42.3741 62.6468C42.2269 62.5504 42.0551 62.499 41.8794 62.499C41.7037 62.499 41.5318 62.5504 41.3846 62.6468C41.2375 62.7432 41.1214 62.8805 41.0505 63.042C41.1666 63.174 41.2547 63.3285 41.3092 63.4959C41.3637 63.6634 41.3836 63.8403 41.3676 64.0157C41.5319 63.9502 41.707 63.9163 41.8839 63.9156Z" fill="white"/>
<path d="M1.33835 60.8304C0.994808 60.8304 0.665329 60.6933 0.422406 60.4492C0.179484 60.2052 0.0429688 59.8741 0.0429688 59.529V2.02873C0.0429688 1.68357 0.179484 1.35254 0.422406 1.10847C0.665329 0.864398 0.994808 0.727295 1.33835 0.727295H78.3338C78.6766 0.729679 79.0047 0.867552 79.2471 1.11111C79.4895 1.35466 79.6267 1.68431 79.6291 2.02873C79.6925 12.4494 79.7378 18.5016 79.765 23.6801C79.8193 32.3897 79.8646 38.5966 80.0005 58.901C80.0017 59.0719 79.9694 59.2414 79.9054 59.3997C79.8414 59.5581 79.7469 59.7022 79.6275 59.8239C79.5081 59.9456 79.3659 60.0425 79.2092 60.109C79.0525 60.1755 78.8843 60.2104 78.7142 60.2116L51.4578 60.4482C51.1971 60.4491 50.9423 60.3703 50.7272 60.2224C50.512 60.0745 50.3467 59.8644 50.2531 59.62C49.6669 58.0956 48.677 56.7613 47.3906 55.7612L47.3092 55.6975H47.2638C47.0352 55.5113 46.8766 55.2525 46.8139 54.9636C46.7512 54.6747 46.7883 54.373 46.919 54.1081C47.0498 53.8433 47.2665 53.631 47.5333 53.5064C47.8001 53.3817 48.1012 53.352 48.3871 53.4222H50.4705V51.1742H47.1008C46.9328 51.1735 46.7666 51.1395 46.6116 51.0742C46.4851 51.1278 46.3502 51.1586 46.2131 51.1651C45.9707 51.1837 45.728 51.1329 45.5131 51.0185C45.2983 50.9041 45.1201 50.7309 44.9992 50.519L40.0625 42.0732L29.3737 23.4616L23.5583 26.829L36.4392 49.263C36.5547 49.4603 36.6156 49.6849 36.6156 49.9137C36.6156 50.1426 36.5547 50.3672 36.4392 50.5645C36.3267 50.764 36.1633 50.9299 35.966 51.045C35.7686 51.1602 35.5442 51.2205 35.3159 51.2197H33.3594V53.3858H35.6964C35.9683 53.3845 36.2337 53.4692 36.455 53.6279C36.6763 53.7866 36.8423 54.0112 36.9294 54.2699C37.0166 54.5287 37.0205 54.8084 36.9407 55.0695C36.8608 55.3306 36.7012 55.5599 36.4845 55.7248C35.1314 56.7541 34.1028 58.1541 33.5224 59.7565C33.4299 60.0039 33.2657 60.2177 33.0509 60.3703C32.8361 60.5228 32.5806 60.607 32.3176 60.612L1.35643 60.8759L1.33835 60.8304ZM2.63368 3.29379V58.2094L31.43 57.9636C31.7562 57.2514 32.1538 56.5744 32.6166 55.9432H32.0459C31.7031 55.9408 31.375 55.8029 31.1326 55.5594C30.8902 55.3158 30.753 54.9862 30.7506 54.6417V49.8637C30.753 49.5193 30.8902 49.1896 31.1326 48.9461C31.375 48.7025 31.7031 48.5646 32.0459 48.5623H33.0695L20.6506 26.9564C20.4803 26.6571 20.4352 26.302 20.5252 25.9693C20.6152 25.6366 20.833 25.3533 21.1307 25.1817L29.1835 20.5038C29.3327 20.4127 29.4986 20.3527 29.6713 20.3272C29.844 20.3018 30.02 20.3114 30.1889 20.3555C30.3579 20.3996 30.5163 20.4774 30.6548 20.5841C30.7933 20.6909 30.909 20.8245 30.9952 20.9771L41.2129 38.7696L49.0755 25.118C49.1604 24.9692 49.2737 24.8387 49.409 24.7341C49.5442 24.6295 49.6987 24.5527 49.8635 24.5083C50.0269 24.4633 50.1975 24.4514 50.3654 24.4732C50.5334 24.4951 50.6953 24.5503 50.8419 24.6357L58.9128 29.3136C59.0599 29.399 59.1884 29.513 59.2911 29.649C59.3937 29.7849 59.4684 29.9401 59.5106 30.1054C59.5557 30.271 59.5676 30.4439 59.5459 30.6141C59.5241 30.7844 59.469 30.9486 59.3838 31.0974L49.3291 48.5896H51.7477C52.0912 48.5896 52.4207 48.7267 52.6636 48.9707C52.9065 49.2148 53.043 49.5458 53.043 49.891V54.669C53.043 55.0142 52.9065 55.3452 52.6636 55.5893C52.4207 55.8334 52.0912 55.9705 51.7477 55.9705H51.1861C51.6031 56.546 51.9728 57.1547 52.2912 57.7907L77.3826 57.5723C77.2558 38.2963 77.2196 32.1713 77.1652 23.6528C77.1652 18.6927 77.0928 12.9227 77.0294 3.29379H2.63368ZM42.6803 41.3725L46.5573 48.1163L56.458 30.8881L50.6335 27.5207L42.6803 41.3725Z" fill="white"/>
<path d="M78.2908 15.6803H1.29533C0.951784 15.6803 0.62236 15.5432 0.379437 15.2991C0.136515 15.055 0 14.724 0 14.3788C0 14.0337 0.136515 13.7026 0.379437 13.4586C0.62236 13.2145 0.951784 13.0774 1.29533 13.0774H78.2908C78.6343 13.0774 78.9638 13.2145 79.2067 13.4586C79.4496 13.7026 79.5861 14.0337 79.5861 14.3788C79.5861 14.724 79.4496 15.055 79.2067 15.2991C78.9638 15.5432 78.6343 15.6803 78.2908 15.6803Z" fill="white"/>
</svg>
