<svg width="80" height="54" viewBox="0 0 80 54" fill="none" xmlns="http://www.w3.org/2000/svg">
<path d="M60.3675 53.3638H41.9685C41.2774 53.3614 40.6155 53.0841 40.1277 52.5928C39.6399 52.1015 39.366 51.4361 39.366 50.7424V48.2667C39.3648 48.095 39.3974 47.9248 39.4621 47.7658C39.5267 47.6069 39.622 47.4623 39.7426 47.3405C39.8631 47.2187 40.0064 47.122 40.1644 47.056C40.3223 46.99 40.4917 46.9561 40.6627 46.9561H48.0894V40.7303H40.0008C39.7008 40.7316 39.4099 40.6277 39.1781 40.4366C38.9463 40.2455 38.7882 39.9792 38.7312 39.6836C38.1477 36.8003 37.1745 34.0106 35.8385 31.3918C34.3635 28.4216 33.663 25.1246 33.8026 21.8089C33.9421 18.4931 34.9172 15.2671 36.6365 12.4325C38.2706 9.81095 40.5302 7.63986 43.2108 6.11573C46.0937 4.50146 49.3405 3.6554 52.6416 3.65821H52.8501C63.8769 3.65821 70.2517 10.0296 71.7842 22.5902C71.7887 22.6447 71.7887 22.6995 71.7842 22.754C71.7871 24.1056 72.1169 25.4362 72.7454 26.6315L76.028 32.839C76.2586 33.2786 76.3733 33.7702 76.3612 34.267C76.3491 34.7637 76.2106 35.2491 75.9588 35.6769C75.7071 36.1047 75.3504 36.4608 74.9229 36.7112C74.4953 36.9617 74.0111 37.0982 73.5161 37.1078H71.7932V42.3869C71.7908 43.7251 71.2595 45.0076 70.316 45.953C69.3724 46.8984 68.0937 47.4293 66.7605 47.4293H62.9338V50.7424C62.9339 51.4299 62.665 52.0898 62.185 52.5801C61.705 53.0704 61.0523 53.3519 60.3675 53.3638ZM41.9685 49.5956V50.7697H60.3494V46.146C60.3518 45.7999 60.4904 45.4689 60.7351 45.2251C60.9797 44.9812 61.3105 44.8444 61.6552 44.8444H66.7786C67.0977 44.8444 67.4138 44.7813 67.7087 44.6587C68.0035 44.5361 68.2714 44.3564 68.4971 44.1299C68.7227 43.9034 68.9017 43.6345 69.0239 43.3386C69.146 43.0426 69.2088 42.7254 69.2088 42.4051V35.8517C69.211 35.5095 69.3456 35.1815 69.5842 34.937C69.8227 34.6924 70.1466 34.5505 70.4874 34.541L73.489 34.4864C73.5412 34.4866 73.5925 34.4732 73.6379 34.4473C73.6833 34.4214 73.7211 34.3841 73.7477 34.339C73.7743 34.294 73.7887 34.2427 73.7894 34.1903C73.7902 34.1379 73.7772 34.0862 73.7519 34.0404L70.4784 27.8329C69.6574 26.2888 69.2217 24.5679 69.2088 22.8178C67.8214 11.6679 62.4804 6.25226 52.8864 6.25226H52.6688C49.9118 6.21562 47.1918 6.89124 44.7701 8.21423C42.3483 9.53721 40.3062 11.4631 38.84 13.8068C37.3592 16.2693 36.5229 19.0677 36.4088 21.9417C36.2946 24.8156 36.9064 27.6719 38.1872 30.2449C39.4574 32.751 40.4254 35.4002 41.0708 38.1363H49.4134C49.7573 38.1363 50.0871 38.2734 50.3303 38.5175C50.5735 38.7616 50.7101 39.0927 50.7101 39.4379V48.2849C50.7101 48.6301 50.5735 48.9612 50.3303 49.2053C50.0871 49.4494 49.7573 49.5865 49.4134 49.5865L41.9685 49.5956Z" fill="white"/>
<path d="M52.7967 34.7504C50.1311 34.7522 47.525 33.9605 45.3078 32.4754C43.0907 30.9903 41.3621 28.8785 40.3409 26.4072C39.3196 23.9359 39.0514 21.2161 39.5703 18.5918C40.0892 15.9675 41.3719 13.5567 43.2561 11.6642C45.1402 9.77172 47.5412 8.48265 50.1554 7.96003C52.7696 7.43741 55.4794 7.70471 57.9422 8.72815C60.405 9.7516 62.51 11.4852 63.991 13.7096C65.4721 15.9341 66.2626 18.5495 66.2626 21.2249C66.2602 24.8098 64.8411 28.2472 62.3165 30.783C59.7919 33.3187 56.3682 34.7456 52.7967 34.7504ZM52.7967 10.3117C50.6445 10.3117 48.5406 10.9523 46.7511 12.1525C44.9616 13.3526 43.567 15.0584 42.7433 17.0542C41.9197 19.05 41.7043 21.2461 42.1241 23.3649C42.544 25.4836 43.5804 27.4297 45.1022 28.9573C46.624 30.4848 48.5629 31.525 50.6738 31.9465C52.7846 32.3679 54.9725 32.1516 56.9609 31.3249C58.9493 30.4982 60.6487 29.0983 61.8444 27.3021C63.0401 25.506 63.6783 23.3942 63.6783 21.234C63.6783 18.3372 62.5318 15.5591 60.4911 13.5108C58.4504 11.4625 55.6826 10.3117 52.7967 10.3117Z" fill="white"/>
<path d="M52.796 31.8286C50.7062 31.8304 48.6628 31.21 46.9243 30.0459C45.1859 28.8819 43.8304 27.2264 43.0294 25.289C42.2285 23.3516 42.0179 21.2193 42.4245 19.1617C42.8311 17.1042 43.8366 15.214 45.3136 13.7301C46.7907 12.2462 48.6731 11.2354 50.7226 10.8255C52.7721 10.4156 54.8967 10.6251 56.8276 11.4274C58.7584 12.2297 60.4089 13.5888 61.5701 15.3328C62.7313 17.0767 63.3512 19.1272 63.3512 21.2248C63.3464 24.0341 62.233 26.727 60.2548 28.7143C58.2767 30.7016 55.5947 31.8213 52.796 31.8286ZM52.796 13.2333C51.2187 13.2315 49.6764 13.6995 48.3643 14.5779C47.0521 15.4563 46.029 16.7057 45.4246 18.168C44.8202 19.6303 44.6616 21.2397 44.9688 22.7925C45.2761 24.3453 46.0354 25.7718 47.1507 26.8912C48.266 28.0107 49.6871 28.7728 51.2341 29.0812C52.7811 29.3896 54.3845 29.2304 55.8414 28.6238C57.2982 28.0171 58.543 26.9902 59.4182 25.6731C60.2933 24.3561 60.7595 22.808 60.7577 21.2248C60.7553 19.1061 59.9157 17.0748 58.4231 15.5767C56.9305 14.0785 54.9068 13.2358 52.796 13.2333Z" fill="white"/>
<path d="M52.7952 28.934C51.2757 28.9358 49.7899 28.4852 48.5256 27.6392C47.2613 26.7932 46.2754 25.5898 45.6927 24.1813C45.11 22.7727 44.9566 21.2223 45.2519 19.7263C45.5473 18.2302 46.2781 16.8557 47.3519 15.7766C48.4257 14.6975 49.7942 13.9624 51.2844 13.6642C52.7745 13.366 54.3193 13.5181 55.7232 14.1014C57.1272 14.6846 58.3273 15.6727 59.1717 16.9407C60.016 18.2087 60.4667 19.6996 60.4667 21.2247C60.4643 23.267 59.6556 25.2252 58.2177 26.6702C56.7797 28.1152 54.8299 28.9292 52.7952 28.934ZM52.7952 16.1185C51.7886 16.1167 50.8042 16.4147 49.9664 16.9746C49.1287 17.5346 48.4752 18.3315 48.0888 19.2643C47.7024 20.1972 47.6003 21.2242 47.7956 22.2153C47.9908 23.2064 48.4746 24.1171 49.1857 24.8321C49.8968 25.5471 50.8032 26.0343 51.7903 26.2321C52.7773 26.4299 53.8007 26.3293 54.7308 25.9431C55.6608 25.5569 56.4559 24.9024 57.0153 24.0625C57.5747 23.2226 57.8732 22.235 57.8732 21.2247C57.8732 19.872 57.3385 18.5746 56.3865 17.6173C55.4344 16.66 54.1428 16.1209 52.7952 16.1185Z" fill="white"/>
<path d="M52.7975 25.6756C51.9205 25.6756 51.0632 25.4146 50.334 24.9255C49.6048 24.4364 49.0364 23.7413 48.7008 22.928C48.3652 22.1147 48.2774 21.2198 48.4485 20.3564C48.6196 19.4931 49.0419 18.7 49.662 18.0776C50.2822 17.4551 51.0723 17.0312 51.9325 16.8595C52.7926 16.6877 53.6842 16.7758 54.4945 17.1127C55.3047 17.4496 55.9972 18.0201 56.4845 18.752C56.9717 19.484 57.2318 20.3445 57.2318 21.2248C57.2294 22.4045 56.7614 23.5352 55.9304 24.3693C55.0993 25.2035 53.9728 25.6732 52.7975 25.6756ZM52.7975 19.3862C52.4388 19.3862 52.0882 19.4929 51.7899 19.693C51.4917 19.893 51.2592 20.1773 51.122 20.5099C50.9847 20.8426 50.9488 21.2086 51.0188 21.5617C51.0888 21.9148 51.2615 22.2392 51.5151 22.4938C51.7687 22.7483 52.0919 22.9217 52.4437 22.992C52.7955 23.0622 53.1602 23.0262 53.4916 22.8884C53.823 22.7506 54.1062 22.5173 54.3055 22.2179C54.5048 21.9186 54.6111 21.5666 54.6111 21.2066C54.6111 20.7238 54.42 20.2607 54.0799 19.9194C53.7398 19.578 53.2785 19.3862 52.7975 19.3862Z" fill="white"/>
<path d="M52.7928 22.5356C52.5131 22.5389 52.2398 22.4515 52.0138 22.2862C51.7877 22.1209 51.621 21.8867 51.5383 21.6185C51.4557 21.3503 51.4617 21.0625 51.5554 20.798C51.6491 20.5335 51.8255 20.3065 52.0583 20.1509L68.6981 8.84627L68.0815 4.18609C68.0451 3.90888 68.0988 3.62729 68.2343 3.38303C68.3699 3.13878 68.5802 2.94483 68.8341 2.8299L73.3681 0.754663C73.5324 0.678825 73.7108 0.638586 73.8917 0.636555C74.0725 0.634525 74.2518 0.670756 74.4177 0.742885C74.5837 0.815014 74.7326 0.921418 74.8549 1.05518C74.9772 1.18894 75.07 1.34705 75.1273 1.51922L76.5057 5.51498C76.5992 5.78686 76.6011 6.08207 76.5109 6.35512C76.4208 6.62816 76.2437 6.86387 76.0069 7.02589L70.8835 10.5028L70.7475 10.6029L53.5182 22.308C53.3047 22.4554 53.0519 22.5347 52.7928 22.5356ZM70.7838 4.80501L71.1011 7.20792L73.7309 5.38754L73.1414 3.68548L70.7838 4.80501Z" fill="white"/>
<path d="M74.8782 13.47C74.6563 13.4697 74.4381 13.4133 74.2435 13.3062L69.4556 10.5756C69.1844 10.391 68.9923 10.1107 68.9174 9.79054C68.8425 9.47033 68.8902 9.13355 69.0512 8.84706C69.2122 8.56056 69.4746 8.34529 69.7864 8.24398C70.0982 8.14266 70.4364 8.16271 70.7342 8.30014L74.7423 10.5665L76.71 8.95548L74.4158 6.87113C74.2568 6.76777 74.1222 6.63067 74.0216 6.4695C73.9211 6.30832 73.8569 6.12699 73.8337 5.93825C73.8104 5.74951 73.8287 5.55794 73.8872 5.37705C73.9456 5.19615 74.0428 5.03031 74.172 4.89119C74.3012 4.75207 74.4592 4.64306 74.6349 4.57182C74.8106 4.50058 74.9996 4.46885 75.1889 4.47885C75.3781 4.48886 75.5628 4.54035 75.73 4.62972C75.8973 4.7191 76.043 4.84417 76.1569 4.99614L79.5665 8.09079C79.7069 8.21539 79.8185 8.36928 79.8936 8.54168C79.9686 8.71408 80.0052 8.90084 80.0009 9.08892C79.9966 9.27701 79.9514 9.46188 79.8685 9.63063C79.7857 9.79937 79.6671 9.94794 79.5211 10.0659L75.6944 13.1879C75.4621 13.3721 75.1743 13.4716 74.8782 13.47Z" fill="white"/>
<path d="M49.4117 49.5955H1.29678C0.952862 49.5955 0.623029 49.4584 0.379845 49.2143C0.136662 48.9702 0 48.6391 0 48.2939V39.4468C0 39.1016 0.136662 38.7706 0.379845 38.5265C0.623029 38.2824 0.952862 38.1453 1.29678 38.1453H49.4117C49.7556 38.1453 50.0854 38.2824 50.3286 38.5265C50.5718 38.7706 50.7084 39.1016 50.7084 39.4468V48.2939C50.7084 48.6391 50.5718 48.9702 50.3286 49.2143C50.0854 49.4584 49.7556 49.5955 49.4117 49.5955ZM2.5935 46.9832H48.115V40.7575H2.5935V46.9832Z" fill="white"/>
<path d="M14.1925 49.5956C13.8478 49.5956 13.517 49.4587 13.2724 49.2149C13.0278 48.9711 12.8891 48.64 12.8867 48.294V39.4469C12.914 39.1193 13.0629 38.814 13.3039 38.5914C13.5449 38.3689 13.8605 38.2454 14.188 38.2454C14.5155 38.2454 14.831 38.3689 15.072 38.5914C15.3131 38.814 15.462 39.1193 15.4892 39.4469V48.294C15.4892 48.6392 15.3526 48.9702 15.1094 49.2143C14.8663 49.4584 14.5364 49.5956 14.1925 49.5956Z" fill="white"/>
<path d="M10.2293 47.0742C9.88878 47.0712 9.56305 46.9339 9.32253 46.6919L7.77188 45.1355C7.62189 45.0242 7.49759 44.8817 7.40747 44.7178C7.31735 44.5539 7.26354 44.3723 7.24968 44.1856C7.23582 43.9989 7.26224 43.8114 7.32716 43.6359C7.39209 43.4604 7.49403 43.301 7.62593 43.1686C7.75782 43.0362 7.91658 42.9339 8.09145 42.8687C8.26632 42.8036 8.45315 42.777 8.63916 42.791C8.82518 42.8049 9.00601 42.8589 9.16933 42.9493C9.33264 43.0398 9.47458 43.1646 9.58548 43.3151L11.1452 44.8806C11.3256 45.0621 11.4486 45.293 11.4988 45.5444C11.5489 45.7957 11.524 46.0564 11.4271 46.2936C11.3303 46.5308 11.1658 46.734 10.9543 46.8777C10.7428 47.0215 10.4938 47.0993 10.2384 47.1015L10.2293 47.0742Z" fill="white"/>
<path d="M7.51183 45.9547C6.9146 45.9547 6.33079 45.7769 5.83421 45.4439C5.33763 45.1109 4.95057 44.6375 4.72202 44.0837C4.49347 43.5298 4.43371 42.9204 4.55022 42.3325C4.66673 41.7445 4.9543 41.2045 5.3766 40.7806C5.79891 40.3567 6.33696 40.068 6.92272 39.9511C7.50847 39.8341 8.11565 39.8941 8.66741 40.1235C9.21918 40.3529 9.69078 40.7414 10.0226 41.2399C10.3544 41.7383 10.5315 42.3243 10.5315 42.9238C10.5291 43.7269 10.2102 44.4964 9.6444 45.0643C9.07862 45.6322 8.31195 45.9523 7.51183 45.9547ZM7.51183 42.5051C7.42974 42.5069 7.34998 42.5329 7.28258 42.58C7.21519 42.6271 7.16317 42.6931 7.13298 42.7697C7.10279 42.8464 7.09584 42.9303 7.11294 43.0109C7.13005 43.0915 7.17044 43.1652 7.22912 43.2229C7.2878 43.2805 7.36215 43.3195 7.44281 43.3349C7.52347 43.3504 7.60688 43.3416 7.68257 43.3096C7.75827 43.2777 7.82287 43.224 7.86832 43.1554C7.91376 43.0868 7.93798 43.0062 7.938 42.9238C7.9405 42.8665 7.93129 42.8093 7.91088 42.7558C7.89046 42.7022 7.85929 42.6535 7.81934 42.6125C7.77938 42.5716 7.73148 42.5393 7.67859 42.5177C7.62569 42.496 7.56893 42.4856 7.51183 42.4869V42.5051Z" fill="white"/>
</svg>
