<svg width="80" height="65" viewBox="0 0 80 65" fill="none" xmlns="http://www.w3.org/2000/svg">
<path d="M42.7588 64.1306H19.5628C18.7812 64.1306 18.0316 63.8249 17.4789 63.2807C16.9262 62.7364 16.6157 61.9983 16.6157 61.2287V55.3533C16.589 49.0053 15.0352 42.7538 12.0817 37.1112C11.5682 36.1232 11.1288 35.0996 10.7668 34.0485C10.7025 33.86 10.6837 33.6594 10.712 33.4625C10.7404 33.2656 10.815 33.078 10.93 32.9145V31.3073C10.9314 31.0075 11.039 30.7176 11.2344 30.4877C11.4298 30.2578 11.7006 30.1024 12.0001 30.0483C12.8848 29.9 13.7246 29.5583 14.4575 29.0482C14.7085 28.8757 15.0131 28.7954 15.3181 28.8215C15.623 28.8477 15.909 28.9785 16.126 29.1911C15.911 28.9791 15.7779 28.6998 15.7498 28.4014C15.7216 28.1031 15.8002 27.8044 15.9718 27.5571C16.4841 26.8356 16.8307 26.0129 16.9875 25.1462C17.0405 24.8497 17.1976 24.581 17.4312 24.3868C17.6649 24.1926 17.9603 24.0853 18.2661 24.0836C17.9603 24.0819 17.6649 23.9747 17.4312 23.7805C17.1976 23.5863 17.0405 23.3175 16.9875 23.0211C16.8318 22.1556 16.4885 21.3333 15.9809 20.6102C15.8064 20.3644 15.7252 20.066 15.7518 19.7672C15.7783 19.4685 15.9108 19.1884 16.126 18.9762C15.9096 19.1865 15.6254 19.3159 15.3224 19.342C15.0195 19.3681 14.7168 19.2892 14.4666 19.1191C13.8982 18.7275 13.2709 18.4262 12.6076 18.2261C12.4249 18.1777 12.2556 18.089 12.1127 17.9668C11.9697 17.8447 11.8568 17.6921 11.7824 17.5207C11.7042 17.3526 11.6637 17.1699 11.6637 16.985C11.6637 16.8001 11.7042 16.6174 11.7824 16.4493C13.688 12.5007 16.6872 9.16226 20.4347 6.81806C24.1821 4.47385 28.5256 3.2192 32.9653 3.19849H33.2555C46.9845 3.19849 54.919 10.9936 56.8324 26.3606C56.8367 26.4111 56.8367 26.4618 56.8324 26.5123C56.8363 28.2424 57.2657 29.9458 58.0837 31.4769L62.2278 39.1649C62.4934 39.6579 62.626 40.2098 62.6128 40.7677C62.5997 41.3256 62.4413 41.8708 62.1528 42.3512C61.8643 42.8315 61.4553 43.2309 60.9652 43.511C60.475 43.7911 59.9199 43.9425 59.3533 43.9509L56.8414 44.0044V50.8709C56.839 52.4403 56.2049 53.9447 55.0779 55.0544C53.9509 56.1641 52.4231 56.7886 50.8293 56.7909H45.6515V61.2555C45.6423 62.0106 45.3354 62.7326 44.7956 63.2691C44.2559 63.8055 43.5255 64.1145 42.7588 64.1306ZM13.5235 33.9503C13.7881 34.63 14.0909 35.2947 14.4303 35.9415C17.5591 41.9492 19.1969 48.6017 19.2091 55.3533V61.2287C19.2091 61.321 19.2464 61.4096 19.3127 61.4749C19.379 61.5402 19.469 61.5769 19.5628 61.5769H42.7588C42.8526 61.5769 42.9425 61.5402 43.0089 61.4749C43.0752 61.4096 43.1124 61.321 43.1124 61.2287V55.5141C43.1124 55.1746 43.2488 54.8489 43.4917 54.608C43.7346 54.3671 44.0644 54.2306 44.4092 54.2283H50.8837C51.788 54.2283 52.6553 53.8745 53.2947 53.2449C53.9341 52.6153 54.2933 51.7613 54.2933 50.8709V42.7454C54.2979 42.4113 54.4335 42.0918 54.6718 41.8538C54.9101 41.6158 55.2326 41.4778 55.5719 41.4686L59.3623 41.3972C59.4862 41.3991 59.6083 41.3677 59.7153 41.3063C59.8224 41.245 59.9104 41.1559 59.9699 41.0489C60.0321 40.9447 60.0649 40.826 60.0649 40.7052C60.0649 40.5843 60.0321 40.4656 59.9699 40.3614L55.8258 32.6734C54.8194 30.799 54.2874 28.713 54.2752 26.5927C52.4616 12.4758 45.5427 5.66291 33.0107 5.76113C29.2943 5.76608 25.6467 6.74874 22.4454 8.60745C19.2441 10.4662 16.6053 13.1334 14.8021 16.3332L15.0288 16.4493L15.9356 15.5028C16.1791 15.271 16.5037 15.14 16.8424 15.1367C17.1814 15.1382 17.5066 15.2694 17.7492 15.5028L19.5628 17.2886C19.802 17.5261 19.9362 17.847 19.9362 18.1815C19.9362 18.516 19.802 18.8369 19.5628 19.0744L18.6016 20.0209C18.8556 20.4847 19.0621 20.9723 19.2182 21.4763H20.5784C20.9223 21.4763 21.2521 21.6109 21.4953 21.8503C21.7385 22.0898 21.8751 22.4146 21.8751 22.7532V25.3158C21.8751 25.6545 21.7385 25.9793 21.4953 26.2187C21.2521 26.4582 20.9223 26.5927 20.5784 26.5927H19.2182C19.0604 27.0962 18.8539 27.5835 18.6016 28.0481L19.5628 28.9411C19.8047 29.1773 19.9417 29.4984 19.9436 29.834C19.9432 30.0002 19.9093 30.1647 19.8439 30.3179C19.7785 30.4712 19.683 30.6102 19.5628 30.7269L17.7492 32.5127C17.508 32.7483 17.1821 32.8804 16.8424 32.8804C16.5027 32.8804 16.1767 32.7483 15.9356 32.5127L15.0288 31.5752C14.5517 31.8194 14.0542 32.0225 13.5416 32.1823V33.5038C13.5665 33.6583 13.5603 33.816 13.5235 33.9681V33.9503Z" fill="white"/>
<path d="M12.26 34.9415H9.65744C9.31269 34.9392 8.98288 34.8027 8.73995 34.5618C8.49703 34.3209 8.36071 33.9952 8.36072 33.6557V32.3342C7.85229 32.1712 7.358 31.9681 6.88263 31.727L5.93047 32.6646C5.68929 32.9002 5.36336 33.0323 5.02366 33.0323C4.68397 33.0323 4.35804 32.9002 4.11686 32.6646L2.30326 30.8788C2.06378 30.6409 1.92728 30.3208 1.92242 29.9859C1.92914 29.6513 2.06536 29.3319 2.30326 29.093L3.26447 28.2001C3.01048 27.7362 2.80393 27.2487 2.64785 26.7446H1.29672C0.952807 26.7446 0.622973 26.6101 0.37979 26.3706C0.136606 26.1312 0 25.8064 0 25.4678V22.9051C0 22.5664 0.136606 22.2417 0.37979 22.0022C0.622973 21.7628 0.952807 21.6282 1.29672 21.6282H2.64785C2.8023 21.1236 3.00892 20.6359 3.26447 20.1728L2.30326 19.2263C2.06378 18.9884 1.92728 18.6683 1.92242 18.3334C1.92438 17.9979 2.06132 17.6768 2.30326 17.4405L4.11686 15.6547C4.36028 15.4233 4.68537 15.2941 5.02366 15.2941C5.36196 15.2941 5.68705 15.4233 5.93047 15.6547L6.89168 16.6012C7.35961 16.3511 7.85174 16.1477 8.36072 15.994V14.6636C8.33883 14.4836 8.3561 14.3011 8.41139 14.1282C8.46668 13.9553 8.55873 13.796 8.6814 13.6608C8.80407 13.5257 8.95453 13.4178 9.12282 13.3444C9.29111 13.2709 9.47337 13.2336 9.65744 13.2349H12.26C12.6039 13.2349 12.9337 13.3694 13.1769 13.6089C13.4201 13.8483 13.5567 14.1731 13.5567 14.5117V15.8422C14.0721 15.9942 14.5704 16.1977 15.0438 16.4494L15.9507 15.5029C16.1942 15.2711 16.5188 15.1401 16.8575 15.1368C17.1965 15.1383 17.5217 15.2696 17.7643 15.5029L19.5779 17.2887C19.8171 17.5262 19.9513 17.8471 19.9513 18.1816C19.9513 18.5161 19.8171 18.8371 19.5779 19.0745L18.6167 20.021C18.8706 20.4849 19.0772 20.9724 19.2333 21.4765H20.5935C20.9374 21.4765 21.2672 21.611 21.5104 21.8504C21.7536 22.0899 21.8902 22.4147 21.8902 22.7533V25.316C21.8902 25.6546 21.7536 25.9794 21.5104 26.2188C21.2672 26.4583 20.9374 26.5928 20.5935 26.5928H19.2333C19.0746 27.0946 18.8713 27.5817 18.6257 28.0483L19.5779 28.9412C19.8171 29.1787 19.9513 29.4996 19.9513 29.8341C19.9513 30.1686 19.8171 30.4895 19.5779 30.727L17.7643 32.5128C17.5206 32.7456 17.1968 32.8795 16.8575 32.8878C16.5156 32.8826 16.1897 32.7446 15.9507 32.5039L15.0438 31.5663C14.5661 31.809 14.0686 32.0121 13.5567 32.1735V33.495C13.5798 33.6761 13.5636 33.86 13.509 34.0344C13.4544 34.2088 13.3628 34.3698 13.2401 34.5067C13.1174 34.6435 12.9666 34.753 12.7976 34.828C12.6286 34.903 12.4453 34.9417 12.26 34.9415ZM10.927 32.3789V31.3253C10.9283 31.0255 11.036 30.7356 11.2313 30.5057C11.4267 30.2758 11.6975 30.1204 11.997 30.0662C12.8817 29.918 13.7215 29.5762 14.4544 29.0662C14.7054 28.8936 15.01 28.8134 15.315 28.8395C15.62 28.8656 15.9059 28.9964 16.1229 29.2091L16.8756 29.9591L16.1139 29.218C15.8988 29.006 15.7658 28.7267 15.7376 28.4283C15.7095 28.13 15.788 27.8313 15.9597 27.584C16.478 26.8615 16.8279 26.0352 16.9844 25.1642C17.0394 24.8693 17.1972 24.6027 17.4307 24.4103C17.6641 24.2179 17.9586 24.1118 18.263 24.1105C17.9586 24.1092 17.6641 24.0032 17.4307 23.8108C17.1972 23.6184 17.0394 23.3517 16.9844 23.0569C16.8247 22.1883 16.4785 21.3633 15.9688 20.6371C15.7942 20.3913 15.7131 20.0929 15.7396 19.7941C15.7661 19.4954 15.8986 19.2153 16.1139 19.0031C15.8957 19.2143 15.6092 19.3435 15.3043 19.368C14.9993 19.3925 14.6953 19.3107 14.4454 19.137C13.7104 18.6306 12.8715 18.2892 11.9879 18.137C11.6877 18.0845 11.4159 17.9295 11.2202 17.6993C11.0245 17.469 10.9174 17.1782 10.9179 16.878C10.9179 17.1795 10.8096 17.4713 10.6121 17.7018C10.4146 17.9322 10.1407 18.0864 9.83878 18.137C8.95828 18.2902 8.12258 18.6316 7.39043 19.137C7.14186 19.31 6.83938 19.3914 6.53599 19.3669C6.2326 19.3425 5.94761 19.2137 5.73097 19.0031L4.96926 18.253L5.72192 19.0031C5.9421 19.2125 6.07801 19.4931 6.10467 19.7934C6.13133 20.0937 6.04695 20.3933 5.86701 20.6371C5.35196 21.3604 5.00517 22.1866 4.85137 23.0569C4.79806 23.3525 4.64068 23.6202 4.40685 23.8129C4.17302 24.0056 3.87772 24.111 3.5728 24.1105C3.87772 24.1101 4.17302 24.2155 4.40685 24.4082C4.64068 24.6009 4.79806 24.8685 4.85137 25.1642C5.00354 26.0322 5.35054 26.8558 5.86701 27.575C6.04578 27.8209 6.12939 28.1216 6.10279 28.4229C6.07618 28.7242 5.9411 29.0061 5.72192 29.218L4.96926 29.9591L5.73097 29.218C5.94649 29.006 6.23091 28.8756 6.53433 28.8495C6.83775 28.8234 7.14083 28.9032 7.39043 29.0751C8.12258 29.5805 8.95828 29.9219 9.83878 30.0752C10.1399 30.1274 10.4128 30.2821 10.61 30.5121C10.8072 30.7422 10.9162 31.0331 10.9179 31.3342L10.927 32.3789Z" fill="white"/>
<path d="M10.927 29.1019C9.92085 29.1019 8.93729 28.8082 8.10071 28.2577C7.26413 27.7073 6.61212 26.925 6.22709 26.0097C5.84205 25.0943 5.7413 24.0872 5.93759 23.1155C6.13388 22.1438 6.61839 21.2512 7.32984 20.5507C8.0413 19.8501 8.94774 19.373 9.93455 19.1797C10.9214 18.9865 11.9442 19.0857 12.8738 19.4648C13.8033 19.8439 14.5978 20.486 15.1568 21.3097C15.7158 22.1335 16.0141 23.102 16.0141 24.0927C16.0141 25.4212 15.4782 26.6953 14.5242 27.6348C13.5701 28.5742 12.2762 29.1019 10.927 29.1019ZM10.927 21.6372C10.4338 21.6372 9.95165 21.7812 9.54156 22.051C9.13147 22.3208 8.81185 22.7044 8.6231 23.153C8.43436 23.6017 8.38498 24.0954 8.4812 24.5718C8.57742 25.0481 8.81493 25.4856 9.16368 25.829C9.51243 26.1724 9.95677 26.4063 10.4405 26.501C10.9242 26.5958 11.4256 26.5472 11.8813 26.3613C12.337 26.1755 12.7264 25.8607 13.0004 25.4569C13.2744 25.0531 13.4207 24.5784 13.4207 24.0927C13.4183 23.4422 13.1548 22.819 12.6877 22.359C12.2205 21.899 11.5876 21.6396 10.927 21.6372Z" fill="white"/>
<path d="M36.3865 31.7715H33.7931C33.4475 31.7691 33.1167 31.6329 32.8723 31.3923C32.628 31.1517 32.4896 30.826 32.4873 30.4857V29.1642C31.976 29.0088 31.481 28.8055 31.0092 28.557L30.1024 29.5035C29.8588 29.7352 29.5343 29.8663 29.1956 29.8696C28.8572 29.8645 28.5334 29.7337 28.2888 29.5035L26.4752 27.7177C26.2359 27.4802 26.1017 27.1592 26.1017 26.8248C26.1017 26.4903 26.2359 26.1693 26.4752 25.9318L27.4273 24.9943C27.1771 24.5256 26.9707 24.0354 26.8107 23.5299H25.4686C25.2983 23.5299 25.1297 23.4969 24.9724 23.4327C24.8151 23.3686 24.6721 23.2745 24.5517 23.1559C24.4313 23.0374 24.3358 22.8966 24.2706 22.7417C24.2054 22.5868 24.1719 22.4207 24.1719 22.2531V19.6904C24.1719 19.5227 24.2054 19.3567 24.2706 19.2018C24.3358 19.0469 24.4313 18.9061 24.5517 18.7875C24.6721 18.669 24.8151 18.5749 24.9724 18.5107C25.1297 18.4466 25.2983 18.4135 25.4686 18.4135H26.8197C26.9784 17.9117 27.1817 17.4247 27.4273 16.9581L26.4752 16.0205C26.2359 15.7831 26.1017 15.4621 26.1017 15.1276C26.1017 14.7931 26.2359 14.4722 26.4752 14.2347L28.2888 12.4489C28.4076 12.3312 28.5489 12.2378 28.7045 12.174C28.8601 12.1103 29.027 12.0775 29.1956 12.0775C29.3641 12.0775 29.531 12.1103 29.6866 12.174C29.8423 12.2378 29.9835 12.3312 30.1024 12.4489L31.0092 13.3865C31.4838 13.1439 31.9782 12.9408 32.4873 12.7793V11.4578C32.4897 11.1183 32.6283 10.7936 32.8729 10.5544C33.1175 10.3152 33.4483 10.1809 33.7931 10.1809H36.3865C36.7304 10.1809 37.0602 10.3154 37.3034 10.5549C37.5466 10.7944 37.6833 11.1191 37.6833 11.4578V12.7882C38.194 12.9412 38.689 13.1415 39.1613 13.3865L40.1135 12.4489C40.3542 12.2106 40.679 12.0731 41.0203 12.065C41.36 12.0716 41.6844 12.2057 41.9271 12.44L43.7407 14.2258C43.8609 14.3425 43.9564 14.4815 44.0218 14.6347C44.0872 14.788 44.121 14.9525 44.1215 15.1187C44.1196 15.4542 43.9826 15.7753 43.7407 16.0116L42.7795 16.9492C43.0335 17.413 43.24 17.9006 43.3961 18.4046H44.7472C45.0911 18.4046 45.421 18.5391 45.6642 18.7786C45.9073 19.0181 46.044 19.3428 46.044 19.6815V22.2441C46.044 22.5828 45.9073 22.9076 45.6642 23.147C45.421 23.3865 45.0911 23.521 44.7472 23.521H43.3961C43.2416 24.0256 43.035 24.5133 42.7795 24.9764L43.7407 25.914C43.9802 26.1519 44.1167 26.472 44.1215 26.8069C44.1196 27.1424 43.9826 27.4635 43.7407 27.6998L41.9271 29.4856C41.6816 29.7129 41.3573 29.8394 41.0203 29.8394C40.6833 29.8394 40.359 29.7129 40.1135 29.4856L39.1613 28.5392C38.6885 28.7855 38.1937 28.9887 37.6833 29.1463V30.4678C37.6856 30.6374 37.6539 30.8058 37.59 30.9633C37.526 31.1208 37.431 31.2642 37.3104 31.3854C37.1899 31.5066 37.0462 31.6031 36.8876 31.6694C36.7291 31.7356 36.5588 31.7703 36.3865 31.7715ZM35.0898 29.2088V28.1552C35.0897 27.8537 35.198 27.5618 35.3955 27.3314C35.5931 27.101 35.867 26.9468 36.1689 26.8962C37.0488 26.7462 37.8846 26.4078 38.6173 25.9051C38.8658 25.732 39.1683 25.6506 39.4717 25.6751C39.7751 25.6996 40.06 25.8284 40.2767 26.039L41.0384 26.789L40.2858 26.0479C40.0668 25.8363 39.9312 25.5551 39.903 25.2543C39.8748 24.9535 39.9558 24.6525 40.1316 24.405C40.6455 23.6801 40.995 22.8548 41.1563 21.9852C41.2096 21.6896 41.367 21.4219 41.6008 21.2292C41.8347 21.0365 42.13 20.9311 42.4349 20.9315C42.13 20.932 41.8347 20.8266 41.6008 20.6339C41.367 20.4412 41.2096 20.1735 41.1563 19.8779C41.0047 19.0082 40.6543 18.1838 40.1316 17.4671C39.9558 17.2195 39.8748 16.9186 39.903 16.6178C39.9312 16.317 40.0668 16.0357 40.2858 15.8241L41.0384 15.083L40.2767 15.833C40.0612 16.045 39.7768 16.1754 39.4734 16.2015C39.1699 16.2277 38.8669 16.1478 38.6173 15.9759C37.8827 15.4688 37.0436 15.1273 36.1598 14.9759C35.8604 14.9217 35.5896 14.7663 35.3942 14.5364C35.1988 14.3065 35.0911 14.0166 35.0898 13.7168C35.0884 14.0166 34.9808 14.3065 34.7854 14.5364C34.59 14.7663 34.3192 14.9217 34.0198 14.9759C33.1327 15.1258 32.2903 15.4673 31.5533 15.9759C31.3037 16.1478 31.0006 16.2277 30.6972 16.2015C30.3937 16.1754 30.1093 16.045 29.8938 15.833L29.1412 15.083L29.9029 15.8241C30.1181 16.0363 30.2506 16.3164 30.2771 16.6152C30.3037 16.9139 30.2225 17.2124 30.048 17.4581C29.5344 18.178 29.1906 19.0016 29.0414 19.869C28.9881 20.167 28.8297 20.4369 28.5942 20.6313C28.3586 20.8256 28.0611 20.9319 27.7538 20.9315C28.0611 20.9312 28.3586 21.0375 28.5942 21.2318C28.8297 21.4262 28.9881 21.6961 29.0414 21.9941C29.1897 22.8617 29.5336 23.6856 30.048 24.405C30.2225 24.6508 30.3037 24.9492 30.2771 25.248C30.2506 25.5467 30.1181 25.8268 29.9029 26.039C30.1202 25.8302 30.4042 25.7018 30.7067 25.6758C31.0092 25.6497 31.3115 25.7276 31.5623 25.8961C32.2945 26.4075 33.1346 26.7494 34.0198 26.8962C34.3209 26.9484 34.5938 27.1031 34.791 27.3331C34.9882 27.5632 35.0971 27.8541 35.0989 28.1552L35.0898 29.2088Z" fill="white"/>
<path d="M35.0911 25.9408C34.0849 25.9408 33.1014 25.647 32.2648 25.0966C31.4282 24.5462 30.7762 23.7638 30.3911 22.8485C30.0061 21.9332 29.9054 20.926 30.1017 19.9543C30.2979 18.9826 30.7825 18.0901 31.4939 17.3895C32.2054 16.689 33.1118 16.2119 34.0986 16.0186C35.0854 15.8253 36.1083 15.9245 37.0378 16.3037C37.9674 16.6828 38.7619 17.3249 39.3209 18.1486C39.8799 18.9724 40.1782 19.9408 40.1782 20.9316C40.1758 22.2594 39.6391 23.5321 38.6856 24.471C37.7321 25.4099 36.4395 25.9385 35.0911 25.9408ZM35.0911 18.4761C34.5975 18.4743 34.1145 18.6168 33.7032 18.8856C33.2919 19.1543 32.9709 19.5372 32.7807 19.9857C32.5906 20.4342 32.5399 20.9282 32.6351 21.4051C32.7303 21.882 32.9671 22.3204 33.3155 22.6647C33.6639 23.009 34.1082 23.2438 34.5922 23.3392C35.0761 23.4347 35.578 23.3866 36.0342 23.201C36.4904 23.0154 36.8804 22.7007 37.1548 22.2967C37.4292 21.8927 37.5757 21.4176 37.5757 20.9316C37.5757 20.2819 37.3142 19.6587 36.8485 19.1984C36.3828 18.7382 35.7509 18.4784 35.0911 18.4761Z" fill="white"/>
<path d="M60.0292 61.8002H44.405C44.0611 61.8002 43.7313 61.6656 43.4881 61.4262C43.2449 61.1867 43.1083 60.8619 43.1083 60.5233V55.5319C43.1083 55.1925 43.2446 54.8668 43.4875 54.6259C43.7305 54.385 44.0603 54.2485 44.405 54.2462H50.8796C51.7839 54.2462 52.6511 53.8925 53.2905 53.2628C53.9299 52.6332 54.2892 51.7793 54.2892 50.8888V42.7633C54.2937 42.4292 54.4293 42.1096 54.6676 41.8717C54.9059 41.6337 55.2285 41.4957 55.5678 41.4865L59.3582 41.415C59.4821 41.417 59.6041 41.3856 59.7112 41.3242C59.8183 41.2629 59.9063 41.1739 59.9657 41.0668C60.0279 40.9626 60.0607 40.8439 60.0607 40.723C60.0607 40.6022 60.0279 40.4835 59.9657 40.3793L55.8217 32.6913C54.8152 30.8169 54.2833 28.7309 54.271 26.6106C52.7929 14.8599 47.7874 8.22559 38.9823 6.34156C38.7256 6.28743 38.4915 6.15781 38.3112 5.96985C38.1308 5.78189 38.0127 5.54445 37.9724 5.28894C37.9321 5.03342 37.9715 4.77189 38.0855 4.53892C38.1994 4.30596 38.3825 4.11255 38.6105 3.98429C42.1572 1.97562 46.1716 0.905122 50.263 0.876953H50.5441C64.2731 0.876953 72.2076 8.66312 74.1209 24.0301C74.1254 24.0836 74.1254 24.1373 74.1209 24.1908C74.1209 25.9185 74.5506 27.62 75.3723 29.1465L79.5073 36.8344C79.7747 37.327 79.909 37.8791 79.8974 38.4376C79.8857 38.996 79.7285 39.5421 79.4408 40.0236C79.1531 40.505 78.7446 40.9055 78.2545 41.1867C77.7643 41.4679 77.209 41.6203 76.6418 41.6293L74.1209 41.674V48.5405C74.1185 50.1083 73.4856 51.6113 72.3606 52.7208C71.2356 53.8302 69.7101 54.4557 68.1179 54.4605H62.9763V58.925C62.9668 59.6893 62.6524 60.4192 62.101 60.9571C61.5496 61.4951 60.8054 61.7979 60.0292 61.8002ZM45.7017 59.2465H60.0292C60.123 59.2465 60.213 59.2098 60.2793 59.1445C60.3456 59.0792 60.3829 58.9906 60.3829 58.8982V53.1836C60.3829 52.8449 60.5195 52.5202 60.7627 52.2807C61.0058 52.0413 61.3357 51.9067 61.6796 51.9067H68.1541C69.0593 51.9044 69.9265 51.5487 70.5656 50.9176C71.2048 50.2866 71.5637 49.4317 71.5637 48.5405V40.4239C71.5613 40.0892 71.6934 39.7671 71.9313 39.5279C72.1691 39.2887 72.4933 39.1518 72.8333 39.147L76.6328 39.0667C76.7552 39.0667 76.8756 39.0355 76.982 38.976C77.0885 38.9166 77.1775 38.8309 77.2403 38.7274C77.2999 38.6223 77.3312 38.504 77.3312 38.3836C77.3312 38.2633 77.2999 38.1449 77.2403 38.0398L73.0962 30.343C72.0901 28.4712 71.5552 26.3889 71.5365 24.2712C69.7683 10.2436 62.9038 3.43066 50.5441 3.43066H50.2811C47.7412 3.44868 45.2253 3.91753 42.8544 4.81469C50.7436 7.82379 55.4499 15.0564 56.8554 26.3785C56.8598 26.429 56.8598 26.4797 56.8554 26.5303C56.8594 28.2603 57.2887 29.9637 58.1068 31.4948L62.2509 39.1828C62.5165 39.6758 62.649 40.2277 62.6359 40.7856C62.6227 41.3435 62.4643 41.8887 62.1758 42.3691C61.8873 42.8494 61.4784 43.2488 60.9882 43.5289C60.498 43.809 59.943 43.9605 59.3763 43.9688L56.8645 44.0224V50.8888C56.8621 52.4582 56.2279 53.9626 55.1009 55.0723C53.974 56.182 52.4461 56.8064 50.8524 56.8088H45.6745L45.7017 59.2465Z" fill="white"/>
</svg>
