<svg width="73" height="81" viewBox="0 0 73 81" fill="none" xmlns="http://www.w3.org/2000/svg">
<path d="M40.2822 11.9777H30.0436C29.6992 11.9753 29.3696 11.8379 29.126 11.5952C28.8825 11.3525 28.7446 11.024 28.7422 10.6808V2.17384C28.7422 1.82989 28.8793 1.50001 29.1234 1.25679C29.3674 1.01358 29.6985 0.876953 30.0436 0.876953H40.2822C40.6273 0.876953 40.9584 1.01358 41.2024 1.25679C41.4465 1.50001 41.5836 1.82989 41.5836 2.17384V10.6808C41.5812 11.024 41.4434 11.3525 41.1998 11.5952C40.9562 11.8379 40.6266 11.9753 40.2822 11.9777ZM31.3451 9.3748H39.0262V3.47074H31.3906L31.3451 9.3748Z" fill="white"/>
<path d="M12.0869 11.9777H1.84831C1.50388 11.9753 1.17424 11.8379 0.930689 11.5952C0.687137 11.3525 0.549259 11.024 0.546875 10.6808V2.17384C0.546875 1.82989 0.683991 1.50001 0.928057 1.25679C1.17212 1.01358 1.50315 0.876953 1.84831 0.876953H12.0869C12.432 0.876953 12.763 1.01358 13.0071 1.25679C13.2512 1.50001 13.3883 1.82989 13.3883 2.17384V10.6808C13.3859 11.024 13.248 11.3525 13.0045 11.5952C12.7609 11.8379 12.4313 11.9753 12.0869 11.9777ZM3.14974 9.3748H10.8127V3.47074H3.14974V9.3748Z" fill="white"/>
<path d="M39.9368 68.1252H32.9746C32.6286 68.1252 32.2966 67.9888 32.0511 67.7459C31.8056 67.5029 31.6665 67.1731 31.6641 66.8283V61.5772C29.3626 61.0326 27.1671 60.1133 25.166 58.8564L21.4164 62.5839C21.1756 62.8259 20.8483 62.9628 20.5063 62.9648C20.1643 62.9628 19.8371 62.8259 19.5962 62.5839L14.6726 57.6684C14.4325 57.4272 14.2978 57.1012 14.2978 56.7615C14.2978 56.4217 14.4325 56.0957 14.6726 55.8545L18.4131 52.1271C17.1413 50.1351 16.2181 47.9425 15.6828 45.6426H10.4043C10.2326 45.6438 10.0624 45.6111 9.90345 45.5465C9.74451 45.4819 9.59995 45.3865 9.47814 45.266C9.35633 45.1454 9.25965 45.0021 9.19368 44.8441C9.12771 44.6862 9.09375 44.5168 9.09375 44.3457V37.4078C9.09375 37.2367 9.12771 37.0673 9.19368 36.9094C9.25965 36.7514 9.35633 36.608 9.47814 36.4875C9.59995 36.3669 9.74451 36.2716 9.90345 36.207C10.0624 36.1423 10.2326 36.1097 10.4043 36.1109H15.6828C16.2181 33.811 17.1413 31.6183 18.4131 29.6264L14.6726 25.8898C14.4325 25.6486 14.2978 25.3227 14.2978 24.9829C14.2978 24.6432 14.4325 24.3172 14.6726 24.076L19.5962 19.1696C19.8383 18.9303 20.1654 18.7961 20.5063 18.7961C20.8472 18.7961 21.1744 18.9303 21.4164 19.1696L25.1569 22.897C27.1565 21.6311 29.3566 20.7112 31.6641 20.1763V14.907C31.6641 14.5622 31.8009 14.2314 32.0447 13.9868C32.2885 13.7421 32.6195 13.6035 32.9655 13.6011H39.9368C40.2828 13.6035 40.6138 13.7421 40.8576 13.9868C41.1014 14.2314 41.2383 14.5622 41.2382 14.907V20.1763C43.5476 20.7054 45.7486 21.6257 47.7454 22.897L51.4859 19.1696C51.728 18.9303 52.0551 18.7961 52.396 18.7961C52.7369 18.7961 53.064 18.9303 53.3061 19.1696L58.2388 24.076C58.4816 24.316 58.6191 24.6421 58.621 24.9829C58.6205 25.1518 58.5865 25.3188 58.5209 25.4745C58.4553 25.6301 58.3594 25.7713 58.2388 25.8898L54.4983 29.6264C55.7665 31.6202 56.6895 33.8122 57.2286 36.1109H62.5162C62.6871 36.1109 62.8564 36.1444 63.0143 36.2096C63.1722 36.2748 63.3156 36.3703 63.4365 36.4907C63.5573 36.6111 63.6532 36.7541 63.7186 36.9115C63.784 37.0688 63.8177 37.2374 63.8177 37.4078V44.3457C63.8177 44.516 63.784 44.6847 63.7186 44.842C63.6532 44.9994 63.5573 45.1423 63.4365 45.2628C63.3156 45.3832 63.1722 45.4787 63.0143 45.5439C62.8564 45.6091 62.6871 45.6426 62.5162 45.6426H57.2286C56.6895 47.9413 55.7665 50.1333 54.4983 52.1271L58.2388 55.8545C58.4789 56.0957 58.6136 56.4217 58.6136 56.7615C58.6136 57.1012 58.4789 57.4272 58.2388 57.6684L53.3061 62.5839C53.064 62.8231 52.7369 62.9574 52.396 62.9574C52.0551 62.9574 51.728 62.8231 51.4859 62.5839L47.7363 58.8564C45.7402 60.1229 43.543 61.0428 41.2382 61.5772V66.8464C41.2335 67.1872 41.0942 67.5125 40.8507 67.7518C40.6071 67.9911 40.2788 68.1252 39.9368 68.1252ZM34.276 65.5314H38.6354V60.498C38.6367 60.1935 38.7448 59.8991 38.9409 59.6656C39.137 59.4321 39.4088 59.2742 39.7093 59.2192C42.3904 58.7529 44.9354 57.7031 47.163 56.1447C47.4135 55.9702 47.7176 55.889 48.0222 55.9156C48.3267 55.9421 48.6121 56.0746 48.8284 56.2899L52.4051 59.845L55.4903 56.7705L51.9136 53.2063C51.699 52.9897 51.5677 52.7046 51.5428 52.4012C51.5178 52.0978 51.6008 51.7953 51.7771 51.5467C53.3381 49.3253 54.3912 46.7899 54.8623 44.119C54.9175 43.8195 55.0759 43.5486 55.3103 43.3532C55.5446 43.1578 55.84 43.0502 56.1456 43.0488H61.1966V38.7047H56.1456C55.84 38.7033 55.5446 38.5956 55.3103 38.4002C55.0759 38.2048 54.9175 37.934 54.8623 37.6345C54.3906 34.9594 53.3342 32.4205 51.768 30.1977C51.5957 29.9465 51.5169 29.6431 51.5451 29.3401C51.5734 29.0371 51.7069 28.7534 51.9227 28.5381L55.4903 24.9739L52.4051 21.8994L48.8284 25.4636C48.6121 25.6788 48.3267 25.8114 48.0222 25.8379C47.7176 25.8644 47.4135 25.7833 47.163 25.6087C44.9388 24.0442 42.3924 22.9939 39.7093 22.5342C39.4088 22.4793 39.137 22.3214 38.9409 22.0879C38.7448 21.8544 38.6367 21.56 38.6354 21.2555V16.2311H34.2669V21.2646C34.2656 21.569 34.1575 21.8635 33.9614 22.097C33.7653 22.3305 33.4935 22.4883 33.193 22.5433C30.5109 23.0065 27.9653 24.0565 25.7394 25.6178C25.4889 25.7924 25.1847 25.8735 24.8801 25.847C24.5756 25.8204 24.2902 25.6879 24.0739 25.4727L20.4972 21.9175L17.412 24.9829L20.9887 28.5562C21.2047 28.7717 21.3376 29.0562 21.3643 29.3596C21.3909 29.6631 21.3095 29.9662 21.1343 30.2159C19.5626 32.428 18.5083 34.963 18.0491 37.6345C17.9958 37.9356 17.8382 38.2086 17.6037 38.4058C17.3692 38.603 17.0727 38.712 16.7658 38.7137H11.7239V43.0579H16.7749C17.0818 43.0596 17.3783 43.1686 17.6128 43.3658C17.8473 43.563 18.0049 43.836 18.0582 44.1371C18.5174 46.8086 19.5717 49.3436 21.1434 51.5557C21.3186 51.8054 21.4 52.1085 21.3734 52.4119C21.3467 52.7154 21.2138 52.9998 20.9978 53.2154L17.4211 56.7796L20.5063 59.8541L24.083 56.2989C24.2993 56.0837 24.5847 55.9512 24.8892 55.9246C25.1938 55.8981 25.498 55.9792 25.7485 56.1538C27.9801 57.7047 30.5234 58.7537 33.2021 59.2283C33.5043 59.2814 33.7782 59.4384 33.9761 59.6721C34.1741 59.9058 34.2834 60.2013 34.2851 60.507L34.276 65.5314Z" fill="white"/>
<path d="M36.452 57.1878C33.212 57.1878 30.0448 56.2303 27.3508 54.4366C24.6569 52.6428 22.5572 50.0933 21.3173 47.1103C20.0774 44.1274 19.753 40.8451 20.3851 37.6784C21.0172 34.5117 22.5774 31.603 24.8684 29.32C27.1594 27.0369 30.0784 25.4821 33.2561 24.8523C36.4338 24.2224 39.7276 24.5456 42.721 25.7812C45.7144 27.0168 48.2728 29.1091 50.0729 31.7937C51.8729 34.4783 52.8337 37.6345 52.8337 40.8632C52.8337 43.007 52.41 45.1297 51.5867 47.1103C50.7635 49.0909 49.5568 50.8905 48.0356 52.4064C46.5144 53.9223 44.7085 55.1247 42.721 55.9451C40.7335 56.7655 38.6033 57.1878 36.452 57.1878ZM36.452 27.1596C33.7278 27.1578 31.0643 27.9613 28.7985 29.4683C26.5327 30.9754 24.7664 33.1184 23.7231 35.626C22.6798 38.1337 22.4063 40.8935 22.9373 43.5561C23.4683 46.2187 24.78 48.6645 26.7062 50.584C28.6325 52.5036 31.0869 53.8106 33.7588 54.3398C36.4307 54.869 39.2001 54.5965 41.7165 53.5568C44.233 52.5171 46.3835 50.757 47.8958 48.499C49.4081 46.2411 50.2144 43.5869 50.2126 40.8722C50.2078 37.2369 48.7565 33.7518 46.1769 31.1812C43.5973 28.6107 40.1001 27.1644 36.452 27.1596Z" fill="white"/>
<path d="M36.4496 53.6144C33.9335 53.6055 31.4764 52.8543 29.3881 51.4557C27.2998 50.0571 25.6738 48.0737 24.7151 45.7555C23.7564 43.4373 23.5079 40.8882 24.001 38.4294C24.494 35.9707 25.7066 33.7125 27.4858 31.9395C29.2649 30.1666 31.531 28.9583 33.9983 28.4669C36.4657 27.9755 39.0237 28.2232 41.35 29.1785C43.6763 30.1339 45.6667 31.7543 47.0702 33.8353C48.4737 35.9163 49.2274 38.3649 49.2364 40.8722C49.234 44.2509 47.8861 47.4905 45.4886 49.8797C43.0911 52.2688 39.8402 53.612 36.4496 53.6144ZM36.4496 30.7328C34.435 30.7328 32.4657 31.3282 30.7908 32.4438C29.1159 33.5593 27.8106 35.1448 27.04 36.9997C26.2695 38.8546 26.0683 40.8956 26.462 42.8645C26.8557 44.8333 27.8266 46.6416 29.2517 48.0605C30.6769 49.4794 32.4923 50.4452 34.4684 50.8358C36.4445 51.2264 38.4925 51.0241 40.3532 50.2546C42.2139 49.4851 43.8038 48.1829 44.9217 46.5128C46.0396 44.8427 46.6354 42.8797 46.6336 40.8722C46.6264 38.1845 45.5505 35.6093 43.6417 33.7105C41.7329 31.8117 39.1467 30.7443 36.4496 30.7419V30.7328Z" fill="white"/>
<path d="M45.479 35.1041H27.4319C27.1043 35.0768 26.799 34.9279 26.5765 34.6868C26.354 34.4458 26.2305 34.1302 26.2305 33.8027C26.2305 33.4751 26.354 33.1595 26.5765 32.9185C26.799 32.6774 27.1043 32.5285 27.4319 32.5012H45.479C45.8066 32.5285 46.1119 32.6774 46.3344 32.9185C46.5569 33.1595 46.6805 33.4751 46.6805 33.8027C46.6805 34.1302 46.5569 34.4458 46.3344 34.6868C46.1119 34.9279 45.8066 35.0768 45.479 35.1041Z" fill="white"/>
<path d="M47.9326 42.1781H24.9709C24.6434 42.1508 24.3381 42.0019 24.1156 41.7608C23.893 41.5197 23.7695 41.2042 23.7695 40.8766C23.7695 40.5491 23.893 40.2335 24.1156 39.9924C24.3381 39.7514 24.6434 39.6025 24.9709 39.5752H47.9326C48.2601 39.6025 48.5654 39.7514 48.788 39.9924C49.0105 40.2335 49.134 40.5491 49.134 40.8766C49.134 41.2042 49.0105 41.5197 48.788 41.7608C48.5654 42.0019 48.2601 42.1508 47.9326 42.1781Z" fill="white"/>
<path d="M45.479 49.252H27.4319C27.1043 49.2248 26.799 49.0758 26.5765 48.8348C26.354 48.5937 26.2305 48.2782 26.2305 47.9506C26.2305 47.6231 26.354 47.3075 26.5765 47.0664C26.799 46.8254 27.1043 46.6764 27.4319 46.6492H45.479C45.8066 46.6764 46.1119 46.8254 46.3344 47.0664C46.5569 47.3075 46.6805 47.6231 46.6805 47.9506C46.6805 48.2782 46.5569 48.5937 46.3344 48.8348C46.1119 49.0758 45.8066 49.2248 45.479 49.252Z" fill="white"/>
<path d="M36.4552 53.6144C32.7602 53.6144 31.7773 45.6063 31.7773 40.8722C31.7773 36.1381 32.7602 28.1753 36.4552 28.1753C40.1502 28.1753 41.1422 36.1834 41.1422 40.8722C41.1422 45.561 40.1593 53.6144 36.4552 53.6144ZM36.4552 30.7691C35.7818 31.3042 34.3802 34.6326 34.3802 40.8722C34.3802 47.1118 35.7818 50.4493 36.4552 50.9753C37.1378 50.4493 38.5393 47.1209 38.5393 40.8722C38.5393 34.6235 37.1378 31.3042 36.4552 30.7419V30.7691Z" fill="white"/>
<path d="M32.6567 74.909H32.5111C24.3705 73.9708 16.8341 70.1654 11.2606 64.1787C5.68705 58.192 2.44316 50.4181 2.11374 42.2584C1.78432 34.0987 4.39105 26.0902 9.46396 19.6767C14.5369 13.2632 21.7422 8.86672 29.7808 7.2799C29.9696 7.24042 30.1648 7.24355 30.3522 7.28906C30.5396 7.33457 30.7144 7.4213 30.8638 7.5429C31.0117 7.66608 31.1307 7.82004 31.2124 7.99396C31.2942 8.16787 31.3367 8.35753 31.3371 8.54959V9.38395H39.0274V8.15054C39.0273 7.9672 39.0663 7.78596 39.1418 7.61874C39.2172 7.45152 39.3273 7.30212 39.4649 7.18043C39.6025 7.05874 39.7644 6.9675 39.94 6.91274C40.1156 6.85797 40.3008 6.84092 40.4835 6.86271C48.6219 7.80893 56.1535 11.621 61.7208 17.6118C67.288 23.6026 70.5248 31.3781 70.8475 39.5369C71.1703 47.6956 68.558 55.7009 63.4813 62.1099C58.4046 68.5189 51.1976 72.9101 43.1592 74.4919C42.9712 74.5321 42.7765 74.5284 42.5902 74.4812C42.4039 74.434 42.2311 74.3445 42.0853 74.2198C41.9366 74.0992 41.817 73.9471 41.7351 73.7744C41.6532 73.6018 41.6112 73.4131 41.612 73.2222V72.3878H33.9672V73.6212C33.9685 73.7922 33.9353 73.9617 33.8697 74.1197C33.804 74.2777 33.7072 74.421 33.5851 74.5411C33.4629 74.6611 33.3177 74.7556 33.1583 74.8188C32.9988 74.882 32.8283 74.9127 32.6567 74.909ZM28.7797 10.1639C21.684 11.9264 15.4159 16.0748 11.0337 21.9088C6.6515 27.7428 4.4237 34.9049 4.7264 42.186C5.0291 49.4671 7.84377 56.4211 12.6952 61.8739C17.5466 67.3266 24.1376 70.9442 31.3553 72.1157V71.0728C31.3504 70.8994 31.3805 70.7269 31.4437 70.5653C31.5069 70.4038 31.602 70.2565 31.7233 70.1322C31.8447 70.0079 31.9898 69.9091 32.1501 69.8416C32.3104 69.7742 32.4827 69.7395 32.6567 69.7396H42.9044C43.2495 69.7396 43.5805 69.8762 43.8246 70.1194C44.0687 70.3626 44.2058 70.6925 44.2058 71.0365V71.5534C51.2987 69.7857 57.5628 65.6343 61.9413 59.7995C66.3199 53.9646 68.5451 46.8034 68.2414 39.5238C67.9377 32.2442 65.1238 25.2917 60.2744 19.8391C55.425 14.3865 48.8368 10.7675 41.6211 9.59254V10.6446C41.6187 10.9878 41.4809 11.3163 41.2373 11.559C40.9938 11.8017 40.6641 11.9391 40.3197 11.9415H30.0447C29.7003 11.9391 29.3707 11.8017 29.1271 11.559C28.8836 11.3163 28.7457 10.9878 28.7433 10.6446L28.7797 10.1639Z" fill="white"/>
<path d="M71.0608 11.9777H60.8132C60.4687 11.9753 60.1391 11.8379 59.8955 11.5952C59.652 11.3525 59.5141 11.024 59.5117 10.6808V2.17384C59.5117 1.82989 59.6488 1.50001 59.8929 1.25679C60.137 1.01358 60.468 0.876953 60.8132 0.876953H71.0608C71.406 0.876953 71.737 1.01358 71.9811 1.25679C72.2251 1.50001 72.3622 1.82989 72.3622 2.17384V10.6808C72.3599 11.024 72.222 11.3525 71.9784 11.5952C71.7349 11.8379 71.4052 11.9753 71.0608 11.9777ZM62.1146 9.3748H69.7594V3.47074H62.1146V9.3748Z" fill="white"/>
<path d="M42.8687 80.8765H32.6574C32.3122 80.8765 31.9812 80.7399 31.7371 80.4966C31.4931 80.2534 31.356 79.9236 31.356 79.5796V71.0727C31.3511 70.8993 31.3812 70.7268 31.4444 70.5652C31.5076 70.4037 31.6027 70.2564 31.724 70.1321C31.8454 70.0078 31.9905 69.909 32.1508 69.8416C32.3111 69.7741 32.4834 69.7394 32.6574 69.7395H42.9051C43.2502 69.7395 43.5812 69.8761 43.8253 70.1194C44.0694 70.3626 44.2065 70.6924 44.2065 71.0364V79.5433C44.2115 79.7198 44.1803 79.8954 44.1149 80.0594C44.0494 80.2234 43.9511 80.3724 43.8258 80.4972C43.7006 80.622 43.5511 80.72 43.3865 80.7852C43.2219 80.8504 43.0457 80.8815 42.8687 80.8765ZM33.9224 78.2827H41.5672V72.3786H33.9224V78.2827Z" fill="white"/>
<path d="M71.0608 80.8764H60.8132C60.468 80.8764 60.137 80.7397 59.8929 80.4965C59.6488 80.2533 59.5117 79.9234 59.5117 79.5795V71.0725C59.5117 70.7286 59.6488 70.3987 59.8929 70.1555C60.137 69.9123 60.468 69.7756 60.8132 69.7756H71.0608C71.406 69.7756 71.737 69.9123 71.9811 70.1555C72.2251 70.3987 72.3622 70.7286 72.3622 71.0725V79.5795C72.3622 79.9234 72.2251 80.2533 71.9811 80.4965C71.737 80.7397 71.406 80.8764 71.0608 80.8764ZM62.1146 78.2826H69.7594V72.3785H62.1146V78.2826Z" fill="white"/>
<path d="M12.0874 80.8765H1.84882C1.50366 80.8765 1.17263 80.7399 0.928566 80.4966C0.6845 80.2534 0.547384 79.9236 0.547384 79.5796V71.0727C0.542517 70.8993 0.572582 70.7268 0.635802 70.5652C0.699023 70.4037 0.794113 70.2564 0.91545 70.1321C1.03679 70.0078 1.18191 69.909 1.34222 69.8416C1.50254 69.7741 1.6748 69.7394 1.84882 69.7395H12.0874C12.4325 69.7395 12.7636 69.8761 13.0076 70.1194C13.2517 70.3626 13.3888 70.6924 13.3888 71.0364V79.5433C13.3937 79.7167 13.3636 79.8892 13.3004 80.0508C13.2372 80.2123 13.1421 80.3596 13.0207 80.4839C12.8994 80.6082 12.7543 80.707 12.594 80.7744C12.4336 80.8419 12.2614 80.8766 12.0874 80.8765ZM3.15025 78.2827H10.8132V72.3786H3.15025V78.2827Z" fill="white"/>
<path d="M60.8152 7.7242H40.2835C39.9559 7.69693 39.6506 7.54801 39.4281 7.30695C39.2055 7.0659 39.082 6.75031 39.082 6.42277C39.082 6.09523 39.2055 5.77965 39.4281 5.5386C39.6506 5.29754 39.9559 5.14861 40.2835 5.12134H60.8152C61.1427 5.14861 61.448 5.29754 61.6705 5.5386C61.8931 5.77965 62.0166 6.09523 62.0166 6.42277C62.0166 6.75031 61.8931 7.0659 61.6705 7.30695C61.448 7.54801 61.1427 7.69693 60.8152 7.7242Z" fill="white"/>
<path d="M30.0404 7.7242H12.0842C11.7567 7.69693 11.4514 7.54801 11.2289 7.30695C11.0063 7.0659 10.8828 6.75031 10.8828 6.42277C10.8828 6.09523 11.0063 5.77965 11.2289 5.5386C11.4514 5.29754 11.7567 5.14861 12.0842 5.12134H30.0404C30.3679 5.14861 30.6732 5.29754 30.8958 5.5386C31.1183 5.77965 31.2418 6.09523 31.2418 6.42277C31.2418 6.75031 31.1183 7.0659 30.8958 7.30695C30.6732 7.54801 30.3679 7.69693 30.0404 7.7242Z" fill="white"/>
<path d="M32.6547 76.6228H12.0866C11.7414 76.6228 11.4104 76.4862 11.1663 76.243C10.9223 75.9998 10.7852 75.6699 10.7852 75.326C10.7852 74.982 10.9223 74.6521 11.1663 74.4089C11.4104 74.1657 11.7414 74.0291 12.0866 74.0291H32.6547C32.9999 74.0291 33.3309 74.1657 33.575 74.4089C33.819 74.6521 33.9561 74.982 33.9561 75.326C33.9561 75.6699 33.819 75.9998 33.575 76.243C33.3309 76.4862 32.9999 76.6228 32.6547 76.6228Z" fill="white"/>
<path d="M60.8149 76.6228H42.8678C42.5227 76.6228 42.1917 76.4862 41.9476 76.243C41.7035 75.9998 41.5664 75.6699 41.5664 75.326C41.5664 74.982 41.7035 74.6521 41.9476 74.4089C42.1917 74.1657 42.5227 74.0291 42.8678 74.0291H60.8149C61.1601 74.0291 61.4911 74.1657 61.7351 74.4089C61.9792 74.6521 62.1163 74.982 62.1163 75.326C62.1163 75.6699 61.9792 75.9998 61.7351 76.243C61.4911 76.4862 61.1601 76.6228 60.8149 76.6228Z" fill="white"/>
</svg>
