<svg width="80" height="78" viewBox="0 0 80 78" fill="none" xmlns="http://www.w3.org/2000/svg">
<path d="M59.4527 45.6674C59.32 45.6692 59.188 45.6481 59.0624 45.605L15.254 31.5118C14.9346 31.4094 14.6685 31.1841 14.5139 30.8851C14.3594 30.5861 14.3289 30.2377 14.4291 29.9162L22.5451 4.43063C22.5963 4.27163 22.6783 4.12443 22.7863 3.99744C22.8944 3.87045 23.0265 3.76624 23.1748 3.6908C23.322 3.61192 23.4837 3.56411 23.65 3.55032C23.8163 3.53652 23.9836 3.557 24.1417 3.61055L30.6965 5.71427C30.9845 5.80252 31.2319 5.9909 31.3944 6.24567C31.5569 6.50044 31.624 6.80499 31.5835 7.10487C31.2287 9.77911 31.5835 11.66 32.5592 12.8189C33.5349 13.9777 35.5483 14.6017 38.4754 14.6017C42.1919 14.6017 46.9195 13.6657 51.9133 12.6762C52.1198 12.6226 52.3365 12.6226 52.543 12.6762L67.9677 17.6414C68.2878 17.7457 68.554 17.9728 68.7085 18.2732C68.8629 18.5737 68.8932 18.9232 68.7926 19.2459L60.6767 44.7225C60.6032 44.9927 60.4438 45.2312 60.2228 45.4018C60.0018 45.5724 59.7313 45.6657 59.4527 45.6674ZM17.2409 29.4794L58.6278 42.7882L65.9631 19.7451L52.064 15.288C47.0614 16.2775 42.3072 17.1957 38.4577 17.1957C34.75 17.1957 32.1866 16.3043 30.6255 14.5214C29.2596 12.9436 28.7008 10.7597 28.9403 7.85368L24.5763 6.45416L17.2409 29.4794Z" fill="white"/>
<path d="M67.1773 41.0945C67.0479 41.0911 66.9196 41.0701 66.7959 41.0321L61.1014 39.1958C60.782 39.0926 60.5149 38.8689 60.3564 38.5718C60.2064 38.2703 60.1778 37.9223 60.2765 37.6002L64.2059 25.2897C64.2553 25.1291 64.336 24.9799 64.4433 24.851C64.5507 24.722 64.6825 24.6159 64.8312 24.5387C64.9798 24.4615 65.1422 24.4149 65.309 24.4015C65.4758 24.3881 65.6435 24.4082 65.8025 24.4607L71.488 26.297C71.8079 26.4012 72.0735 26.6287 72.2265 26.9295C72.3796 27.2304 72.4074 27.58 72.3041 27.9016L68.3925 40.2031C68.3099 40.4618 68.1477 40.6875 67.9293 40.8477C67.711 41.0079 67.4476 41.0943 67.1773 41.0945ZM63.0794 37.1634L66.3613 38.2152L69.5012 28.3473L66.2371 27.2954L63.0794 37.1634Z" fill="white"/>
<path d="M70.7533 47.7801C70.6206 47.7812 70.4887 47.7601 70.363 47.7177L65.1918 46.0597C64.8718 45.9554 64.6056 45.7283 64.4511 45.4279C64.2966 45.1274 64.2664 44.7779 64.3669 44.4552L71.4628 22.0896C71.514 21.9306 71.596 21.7834 71.7041 21.6564C71.8122 21.5294 71.9442 21.4252 72.0926 21.3497C72.2398 21.2709 72.4015 21.223 72.5678 21.2093C72.734 21.1955 72.9013 21.2159 73.0594 21.2695L78.2394 22.9275C78.5579 23.0336 78.822 23.2614 78.9747 23.5617C79.1274 23.8619 79.1564 24.2105 79.0555 24.532L71.9596 46.8976C71.8798 47.1564 71.7197 47.3826 71.5025 47.5431C71.2854 47.7035 71.0228 47.7897 70.7533 47.789V47.7801ZM67.2053 44.0184L69.955 44.9098L76.3058 24.9777L73.5473 24.0863L67.2053 44.0184Z" fill="white"/>
<path d="M38.4479 17.1779C34.4742 17.1779 31.8044 16.1617 30.2876 14.0758C28.425 11.5085 28.425 7.41691 30.2876 1.59598C30.3313 1.43052 30.4079 1.2757 30.5128 1.14086C30.6178 1.00601 30.7488 0.893968 30.8981 0.811474C31.0473 0.72898 31.2116 0.677767 31.3811 0.660928C31.5506 0.644089 31.7218 0.661954 31.8842 0.713486L63.3102 10.8221C63.585 10.9111 63.8214 11.0915 63.9803 11.3337C64.1392 11.5759 64.2112 11.8653 64.1843 12.1542C64.1574 12.4431 64.0333 12.714 63.8324 12.9224C63.6316 13.1308 63.366 13.2641 63.0796 13.3002C59.5937 13.7459 55.9837 14.4591 52.4357 15.1544C47.3001 16.2152 42.4128 17.1779 38.4479 17.1779ZM32.3366 3.57494C31.1125 7.86264 31.1125 10.8934 32.3366 12.5693C33.3389 13.951 35.3435 14.6284 38.4479 14.6284C42.1644 14.6284 46.9275 13.6835 51.9745 12.6852C53.7485 12.3286 55.5934 11.972 57.4206 11.6422L32.3366 3.57494Z" fill="white"/>
<path d="M45.6193 24.5943C45.4875 24.5941 45.3562 24.5761 45.2291 24.5409L25.5734 18.2119C25.4066 18.1681 25.2504 18.0907 25.1143 17.9843C24.9783 17.8779 24.8653 17.7447 24.7822 17.593C24.699 17.4412 24.6476 17.2739 24.6309 17.1015C24.6143 16.9291 24.6328 16.755 24.6853 16.59C24.7378 16.425 24.8232 16.2725 24.9364 16.1418C25.0495 16.011 25.188 15.9049 25.3433 15.8297C25.4987 15.7546 25.6676 15.7121 25.8398 15.7047C26.0121 15.6974 26.184 15.7255 26.3451 15.7872L46.0007 22.1073C46.2871 22.2008 46.5311 22.3937 46.689 22.6513C46.8468 22.909 46.9083 23.2148 46.8625 23.5139C46.8166 23.813 46.6664 24.0859 46.4386 24.2838C46.2108 24.4818 45.9204 24.5919 45.6193 24.5943Z" fill="white"/>
<path d="M44.1847 29.1051C44.0521 29.1055 43.9204 29.0845 43.7945 29.0428L24.1388 22.7226C23.8177 22.6198 23.5504 22.3929 23.3957 22.092C23.241 21.7911 23.2116 21.4408 23.3139 21.1181C23.4162 20.7954 23.6419 20.5267 23.9414 20.3712C24.2408 20.2158 24.5894 20.1862 24.9105 20.2891L44.575 26.6181C44.8621 26.7118 45.1065 26.9054 45.2643 27.164C45.4221 27.4226 45.483 27.7293 45.4359 28.029C45.3889 28.3286 45.2371 28.6017 45.0078 28.7989C44.7784 28.9962 44.4866 29.1047 44.1847 29.1051Z" fill="white"/>
<path d="M42.7482 33.6154C42.6157 33.6158 42.4839 33.5948 42.358 33.5531L22.7023 27.224C22.5355 27.1803 22.3793 27.1029 22.2433 26.9965C22.1072 26.8901 21.9942 26.7569 21.9111 26.6051C21.828 26.4533 21.7765 26.2861 21.7598 26.1137C21.7432 25.9412 21.7617 25.7672 21.8142 25.6022C21.8667 25.4372 21.9522 25.2846 22.0653 25.1539C22.1784 25.0232 22.3169 24.9171 22.4722 24.8419C22.6276 24.7668 22.7965 24.7243 22.9688 24.717C23.141 24.7096 23.3129 24.7377 23.474 24.7994L43.1385 31.1195C43.4214 31.2182 43.6608 31.4136 43.8149 31.6717C43.969 31.9298 44.0279 32.2341 43.9814 32.5314C43.9349 32.8287 43.786 33.1002 43.5606 33.2983C43.3351 33.4965 43.0476 33.6087 42.7482 33.6154Z" fill="white"/>
<path d="M59.5665 27.7679C59.0884 27.7673 58.6131 27.6952 58.1562 27.5539C57.1085 27.2155 56.2154 26.5124 55.6376 25.5712C55.0597 24.6299 54.8351 23.5124 55.004 22.4196C55.173 21.3267 55.7244 20.3303 56.5591 19.6097C57.3939 18.889 58.4571 18.4914 59.5576 18.4883C60.4071 18.4876 61.2403 18.7217 61.9662 19.1651C62.6921 19.6084 63.2827 20.244 63.6732 21.0021C64.0375 21.7094 64.2142 22.4992 64.1864 23.2952C64.1586 24.0912 63.9272 24.8666 63.5145 25.5465C63.1018 26.2265 62.5217 26.7881 61.8301 27.1772C61.1386 27.5663 60.359 27.7697 59.5665 27.7679ZM59.5665 21.0377C59.1272 21.0382 58.6995 21.1793 58.3454 21.4405C57.9914 21.7018 57.7293 22.0697 57.5974 22.4907C57.4289 23.0184 57.4735 23.5914 57.7215 24.0863C57.847 24.3318 58.0199 24.5497 58.23 24.7272C58.4402 24.9047 58.6834 25.0384 58.9456 25.1204C59.1485 25.1884 59.3614 25.2215 59.5753 25.2184C60.0688 25.214 60.5448 25.0337 60.9184 24.7097C61.292 24.3857 61.5392 23.939 61.6158 23.4491C61.6924 22.9591 61.5936 22.4577 61.3369 22.0341C61.0802 21.6105 60.6823 21.2922 60.214 21.1358C60.0011 21.0712 59.78 21.0382 59.5576 21.0377H59.5665Z" fill="white"/>
<path d="M34.3141 49.4114C34.118 49.4104 33.9248 49.364 33.7495 49.2759C33.5741 49.1877 33.4213 49.0603 33.3029 48.9033C32.9165 48.3809 32.4134 47.957 31.8341 47.6659C31.2548 47.3748 30.6155 47.2246 29.9678 47.2274C29.6023 47.2254 29.2383 47.2734 28.8857 47.3701C28.6978 47.4225 28.5003 47.4304 28.3088 47.3931C28.1173 47.3558 27.937 47.2742 27.7823 47.1549C27.6275 47.0357 27.5023 46.882 27.4168 46.7058C27.3312 46.5297 27.2875 46.3359 27.2891 46.1399V34.4534C27.2896 34.2535 27.337 34.0565 27.4272 33.8783C27.5175 33.7002 27.6483 33.5459 27.8088 33.4279C27.9694 33.3098 28.1554 33.2315 28.3517 33.199C28.548 33.1666 28.7492 33.181 28.9389 33.2411L34.7043 35.0953C34.961 35.1766 35.1854 35.338 35.3448 35.5559C35.5043 35.7738 35.5906 36.0371 35.5913 36.3076V48.1367C35.5901 48.406 35.5034 48.6679 35.3439 48.8843C35.1844 49.1008 34.9603 49.2604 34.7043 49.3401C34.579 49.385 34.4471 49.4091 34.3141 49.4114ZM29.9678 44.678C31.0378 44.6743 32.0931 44.928 33.0457 45.4179V37.2614L29.8259 36.2185V44.6958L29.9678 44.678Z" fill="white"/>
<path d="M29.9645 58.1474C28.6379 58.1491 27.3405 57.7554 26.2366 57.016C25.1327 56.2765 24.2719 55.2246 23.763 53.9934C23.2541 52.7621 23.12 51.4069 23.3778 50.099C23.6355 48.7912 24.2735 47.5896 25.2109 46.6462C26.1483 45.7028 27.3432 45.0601 28.6442 44.7993C29.9452 44.5386 31.2939 44.6715 32.5197 45.1813C33.7455 45.6911 34.7933 46.5549 35.5305 47.6633C36.2678 48.7717 36.6613 50.075 36.6613 51.4083C36.6613 53.194 35.956 54.9068 34.7004 56.1704C33.4447 57.434 31.7414 58.145 29.9645 58.1474ZM29.9645 47.2275C29.1392 47.2258 28.332 47.4702 27.6451 47.9299C26.9582 48.3896 26.4225 49.0439 26.1058 49.8098C25.7892 50.5757 25.7059 51.4188 25.8665 52.2324C26.027 53.0459 26.4243 53.7932 27.0078 54.3797C27.5914 54.9662 28.335 55.3654 29.1445 55.5268C29.954 55.6881 30.793 55.6044 31.5551 55.2862C32.3172 54.968 32.9682 54.4296 33.4256 53.7393C33.883 53.0489 34.1262 52.2377 34.1245 51.4083C34.1221 50.3002 33.6831 49.2382 32.9035 48.4547C32.1238 47.6711 31.0671 47.2299 29.9645 47.2275Z" fill="white"/>
<path d="M6.06177 65.7866H2.16789C1.83067 65.7866 1.50713 65.6526 1.26785 65.4138C1.02857 65.175 0.892967 64.8508 0.890625 64.5119V47.4057C0.904364 47.0746 1.04497 46.7617 1.28303 46.5324C1.52109 46.3031 1.83816 46.1752 2.16789 46.1755H6.06177C7.43252 46.1779 8.74646 46.7262 9.71573 47.7003C10.685 48.6744 11.2306 49.9949 11.2329 51.3725V60.6432C11.2189 62.0122 10.6679 63.3204 9.69963 64.2835C8.73137 65.2465 7.42407 65.7867 6.06177 65.7866ZM3.4008 63.2372H6.06177C6.7675 63.2372 7.44433 62.9554 7.94336 62.4539C8.44238 61.9524 8.72273 61.2722 8.72273 60.563V51.2922C8.72273 50.583 8.44238 49.9028 7.94336 49.4013C7.44433 48.8997 6.7675 48.618 6.06177 48.618H3.4008V63.2372Z" fill="white"/>
<path d="M9.96366 54.7779C9.64908 54.7798 9.34501 54.6641 9.11049 54.4534C8.87597 54.2427 8.72773 53.9519 8.69457 53.6375C8.66141 53.3231 8.74568 53.0076 8.93103 52.7521C9.11638 52.4966 9.38957 52.3195 9.69756 52.2551L24.3683 49.1441C24.6977 49.0744 25.0411 49.1389 25.3231 49.3237C25.605 49.5084 25.8024 49.7981 25.8718 50.1291C25.9412 50.4601 25.8769 50.8052 25.6931 51.0886C25.5093 51.3719 25.221 51.5703 24.8917 51.6401L10.2298 54.7511L9.96366 54.7779Z" fill="white"/>
<path d="M9.96366 60.144C9.64908 60.146 9.34501 60.0304 9.11049 59.8196C8.87597 59.6089 8.72773 59.3181 8.69457 59.0037C8.66141 58.6893 8.74568 58.3738 8.93103 58.1183C9.11638 57.8629 9.38957 57.6857 9.69756 57.6214L26.0093 54.1983C26.3386 54.1286 26.682 54.1932 26.964 54.3779C27.2459 54.5626 27.4433 54.8523 27.5127 55.1833C27.5821 55.5143 27.5178 55.8594 27.334 56.1428C27.1502 56.4261 26.8619 56.6245 26.5326 56.6943L10.2298 60.1529L9.96366 60.144Z" fill="white"/>
<path d="M50.7501 77.0986H47.4239C47.0867 77.0986 46.7631 76.9646 46.5238 76.7258C46.2846 76.487 46.149 76.1628 46.1466 75.8239V73.8093C45.33 73.5774 44.5438 73.2483 43.805 72.8288L42.3769 74.2639C42.1406 74.4994 41.8227 74.6335 41.4899 74.6383C41.1566 74.6364 40.8377 74.5018 40.6029 74.2639L38.2524 71.9017C38.0206 71.6635 37.8907 71.3435 37.8907 71.0103C37.8907 70.677 38.0206 70.3571 38.2524 70.1189L39.6805 68.6837C39.2579 67.9395 38.9272 67.1462 38.6959 66.3214H36.6825C36.3461 66.3214 36.0234 66.1871 35.7856 65.9481C35.5477 65.709 35.4141 65.3848 35.4141 65.0467V61.7039C35.4141 61.3658 35.5477 61.0416 35.7856 60.8025C36.0234 60.5635 36.3461 60.4292 36.6825 60.4292H38.6959C38.9256 59.6039 39.2563 58.8104 39.6805 58.067L38.2524 56.6318C38.0206 56.3936 37.8907 56.0736 37.8907 55.7403C37.8907 55.4071 38.0206 55.0871 38.2524 54.8489L40.5763 52.4154C40.8137 52.1815 41.131 52.0476 41.4633 52.041C41.7961 52.0458 42.114 52.18 42.3503 52.4154L43.7784 53.8506C44.5192 53.4375 45.305 53.1115 46.12 52.8789V50.8465C46.1224 50.5076 46.258 50.1834 46.4972 49.9446C46.7365 49.7058 47.0601 49.5718 47.3973 49.5718H50.7235C51.0599 49.5718 51.3825 49.7061 51.6204 49.9451C51.8582 50.1842 51.9919 50.5084 51.9919 50.8465V52.87C52.8109 53.1033 53.5998 53.4324 54.3424 53.8506L55.8325 52.4154C56.0684 52.1802 56.3873 52.0483 56.7195 52.0483C57.0518 52.0483 57.3706 52.1802 57.6065 52.4154L59.9659 54.7865C60.1999 55.0236 60.3312 55.344 60.3312 55.6779C60.3312 56.0119 60.1999 56.3323 59.9659 56.5694L58.4935 58.0313C58.9148 58.775 59.2426 59.5686 59.4692 60.3936H61.4915C61.8279 60.3936 62.1505 60.5278 62.3884 60.7669C62.6263 61.006 62.7599 61.3302 62.7599 61.6683V65.0111C62.7599 65.3491 62.6263 65.6734 62.3884 65.9124C62.1505 66.1515 61.8279 66.2858 61.4915 66.2858H59.4692C59.241 67.1102 58.9133 67.9035 58.4935 68.6481L59.9304 70.0832C60.1631 70.3218 60.2964 70.6406 60.3029 70.9746C60.3013 71.1412 60.2668 71.3058 60.2013 71.4588C60.1358 71.6118 60.0407 71.7503 59.9216 71.866L57.6065 74.2461C57.3706 74.4813 57.0518 74.6132 56.7195 74.6132C56.3873 74.6132 56.0684 74.4813 55.8325 74.2461L54.4045 72.8109C53.6637 73.2328 52.8743 73.5621 52.054 73.7915V75.8239C52.054 75.9944 52.0201 76.1631 51.9541 76.3201C51.8882 76.4771 51.7916 76.6193 51.67 76.7381C51.5484 76.857 51.4044 76.9501 51.2464 77.012C51.0884 77.0739 50.9196 77.1034 50.7501 77.0986ZM48.7366 74.5492H49.526V72.7664C49.5256 72.4666 49.6303 72.1763 49.8217 71.9465C50.0131 71.7166 50.279 71.5619 50.5727 71.5095C51.7581 71.3054 52.8827 70.8363 53.8634 70.1367C54.1076 69.9651 54.404 69.8854 54.7008 69.9114C54.9976 69.9375 55.2758 70.0677 55.4866 70.2793L56.7373 71.5362L57.2961 70.9746L56.0454 69.7266C55.8342 69.5133 55.7043 69.2322 55.6783 68.9324C55.6524 68.6326 55.7321 68.3332 55.9035 68.0865C56.5978 67.1032 57.0645 65.9762 57.2695 64.7882C57.3207 64.4976 57.4708 64.2338 57.6941 64.042C57.9173 63.8502 58.1998 63.7421 58.4935 63.7364H60.2675V62.943H58.4935C58.1968 62.9413 57.91 62.8352 57.6831 62.643C57.4562 62.4508 57.3036 62.1847 57.2517 61.8911C57.0414 60.7004 56.5719 59.5711 55.8769 58.584C55.7055 58.3372 55.6258 58.0378 55.6517 57.738C55.6777 57.4382 55.8076 57.1571 56.0188 56.9438L57.2695 55.6958L56.7107 55.1342L55.46 56.3822C55.251 56.597 54.9724 56.7294 54.6747 56.7556C54.3769 56.7818 54.0797 56.6999 53.8368 56.5248C52.8536 55.8316 51.7297 55.3658 50.5461 55.161C50.2532 55.1069 49.9883 54.9517 49.7972 54.7222C49.6061 54.4927 49.5007 54.2033 49.4994 53.904V52.1212H48.7366V53.904C48.7349 54.2046 48.6284 54.495 48.4355 54.7247C48.2426 54.9544 47.9756 55.1088 47.6811 55.161C46.4991 55.3717 45.3766 55.8369 44.3904 56.5248C44.1475 56.6999 43.8503 56.7818 43.5525 56.7556C43.2547 56.7294 42.9762 56.597 42.7672 56.3822L41.5165 55.1342L40.9666 55.6958L42.2173 56.9438C42.4269 57.158 42.5558 57.4389 42.5817 57.7382C42.6076 58.0376 42.5289 58.3366 42.3592 58.584C41.6641 59.5711 41.1947 60.7004 40.9843 61.8911C40.9325 62.1847 40.7798 62.4508 40.5529 62.643C40.3261 62.8352 40.0393 62.9413 39.7426 62.943H37.9686V63.7364H39.7426C40.0393 63.738 40.3261 63.8442 40.5529 64.0364C40.7798 64.2285 40.9325 64.4946 40.9843 64.7882C41.1947 65.9789 41.6641 67.1082 42.3592 68.0954C42.5289 68.3427 42.6076 68.6418 42.5817 68.9411C42.5558 69.2404 42.4269 69.5213 42.2173 69.7355L40.9666 70.9836L41.5165 71.5451L42.7672 70.2882C42.978 70.0767 43.2562 69.9464 43.553 69.9203C43.8498 69.8942 44.1462 69.974 44.3904 70.1456C45.3756 70.843 46.5026 71.3118 47.69 71.5184C47.9829 71.5724 48.2478 71.7276 48.4389 71.9571C48.63 72.1866 48.7353 72.476 48.7366 72.7753V74.5492Z" fill="white"/>
<path d="M49.0812 69.4861C47.8703 69.4861 46.6867 69.1251 45.68 68.4489C44.6734 67.7726 43.8889 66.8114 43.426 65.687C42.963 64.5626 42.8423 63.3255 43.0792 62.1321C43.3161 60.9387 43.8998 59.8428 44.7567 58.9829C45.6135 58.1231 46.7048 57.538 47.8926 57.3017C49.0804 57.0654 50.3112 57.1884 51.4294 57.6553C52.5476 58.1222 53.5028 58.912 54.1742 59.9246C54.8457 60.9373 55.2031 62.1274 55.2014 63.3442C55.1967 64.9732 54.5501 66.534 53.4031 67.6851C52.2561 68.8361 50.7021 69.4837 49.0812 69.4861ZM49.0812 59.7429C48.3794 59.7429 47.6935 59.952 47.11 60.3438C46.5266 60.7356 46.0718 61.2925 45.8033 61.9441C45.5347 62.5956 45.4645 63.3125 45.6014 64.0042C45.7383 64.6959 46.0762 65.3312 46.5724 65.8298C47.0686 66.3285 47.7007 66.6681 48.389 66.8057C49.0772 66.9433 49.7906 66.8727 50.4389 66.6028C51.0872 66.3329 51.6413 65.8759 52.0312 65.2895C52.421 64.7032 52.6291 64.0138 52.6291 63.3085C52.6291 62.3629 52.2553 61.456 51.5899 60.7873C50.9246 60.1186 50.0221 59.7429 49.0812 59.7429Z" fill="white"/>
</svg>
