<svg width="46" height="45" viewBox="0 0 46 45" fill="none" xmlns="http://www.w3.org/2000/svg">
<g id="logistics-1.svg" clip-path="url(#clip0_6899_62051)">
<path id="Vector" d="M3.51842 7.86778H0.869141V0.000488281H8.70511V2.60502H5.52776L10.8487 7.92596L8.92439 9.87712L3.55422 4.50695L3.51842 7.86778ZM8.88859 34.8036L3.4871 40.2186V36.8846H0.869141V44.7519H8.73643V42.116H5.39798C7.24621 40.2767 9.04074 38.4867 10.8129 36.6966L8.88859 34.8036ZM42.9802 36.9204V40.2454L37.5653 34.8305L35.6678 36.7324L41.0693 42.1339H37.7532V44.7519H45.6205V36.9204H42.9802ZM37.4265 30.9461C32.8082 33.5864 28.1958 36.2491 23.5894 38.9342C23.4905 39.0039 23.3725 39.0413 23.2515 39.0413C23.1306 39.0413 23.0125 39.0039 22.9137 38.9342C18.2953 36.2491 13.671 33.5789 9.04074 30.9237C8.93819 30.8757 8.85325 30.7968 8.79786 30.6981C8.74248 30.5994 8.71943 30.4858 8.73196 30.3733C8.73196 27.6882 8.73196 25.0031 8.73196 22.318C8.73196 19.6642 8.73196 17.015 8.73196 14.3612C8.7212 14.2421 8.74771 14.1225 8.80784 14.0191C8.86796 13.9157 8.95873 13.8335 9.06759 13.7839C13.6859 11.1585 18.2983 8.50325 22.9047 5.81817C23.0026 5.74819 23.12 5.71057 23.2404 5.71057C23.3607 5.71057 23.4781 5.74819 23.576 5.81817C28.1973 8.50325 32.8216 11.1734 37.4489 13.8287C37.5506 13.8786 37.6343 13.9587 37.6888 14.058C37.7433 14.1573 37.7658 14.271 37.7532 14.3836C37.7532 19.715 37.7532 25.0463 37.7532 30.3777C37.7628 30.4944 37.7367 30.6113 37.6784 30.7128C37.62 30.8143 37.5322 30.8956 37.4265 30.9461ZM15.3686 20.5056C15.3686 19.6105 15.118 19.0914 14.308 18.7155C13.319 18.2412 12.3926 17.6325 11.3947 17.0552C11.3798 17.1095 11.3694 17.1649 11.3633 17.2208C11.3633 21.1366 11.3633 25.0523 11.3633 28.9681C11.3753 29.0533 11.4054 29.1351 11.4518 29.2076C11.4981 29.2802 11.5595 29.342 11.6318 29.3887C12.7551 30.06 13.8918 30.7089 15.0285 31.3623C15.1274 31.4087 15.229 31.449 15.3328 31.4831V30.9013C15.3417 27.4376 15.3015 23.9693 15.3686 20.5056ZM16.9796 16.8807C18.7697 15.8425 20.5597 14.8102 22.3498 13.7839L27.2725 10.9512C26.0105 10.2217 24.8111 9.54148 23.6297 8.83441C23.5325 8.76481 23.4159 8.72739 23.2963 8.72739C23.1767 8.72739 23.0601 8.76481 22.9629 8.83441C19.6692 10.7319 16.3919 12.6204 13.131 14.4999C13.0012 14.576 12.8804 14.661 12.7059 14.7729C13.9544 15.4934 15.1493 16.1781 16.3352 16.8807C16.4279 16.9511 16.5411 16.9892 16.6574 16.9892C16.7738 16.9892 16.887 16.9511 16.9796 16.8807ZM21.9336 33.564C21.9336 30.2121 21.9336 26.8513 21.9336 23.5173C21.9379 23.4302 21.9243 23.3431 21.8935 23.2615C21.8627 23.1799 21.8154 23.1055 21.7546 23.043C20.5329 22.3135 19.2978 21.6109 18.0044 20.8636C17.9884 20.9719 17.9779 21.0809 17.9731 21.1903C17.9731 25.0329 17.9731 28.8771 17.9731 32.7227C17.9666 32.829 17.9932 32.9348 18.0493 33.0254C18.1054 33.116 18.1882 33.1869 18.2864 33.2284C19.4007 33.8594 20.5239 34.5038 21.6114 35.1437C21.7099 35.1974 21.8128 35.2377 21.9515 35.3049L21.9336 33.564ZM23.6386 20.6488C26.8831 18.7603 30.141 16.8897 33.39 15.0101C33.5108 14.943 33.6272 14.8579 33.7927 14.7505C32.5621 14.039 31.3762 13.3633 30.2126 12.6696C30.1109 12.5944 29.9878 12.5538 29.8613 12.5538C29.7348 12.5538 29.6117 12.5944 29.51 12.6696C27.4649 13.8689 25.4063 15.0504 23.3522 16.2497C22.0097 17.0239 20.6672 17.7892 19.2888 18.5947C20.5284 19.3107 21.7054 19.973 22.8689 20.6712C22.9845 20.7462 23.1203 20.7839 23.258 20.7791C23.3957 20.7743 23.5286 20.7272 23.6386 20.6443V20.6488ZM35.1353 28.8472C35.1353 25.0613 35.1353 21.2753 35.1353 17.4893V17.0418L34.8175 17.1984C31.491 19.1287 28.163 21.0515 24.8335 22.9669C24.7385 23.0135 24.6603 23.0885 24.6098 23.1815C24.5592 23.2745 24.5389 23.3809 24.5516 23.486C24.5516 27.3137 24.5516 31.1415 24.5516 34.9692C24.5576 35.0802 24.5695 35.1907 24.5874 35.3004C24.6566 35.272 24.7239 35.2391 24.7888 35.2019C28.1362 33.2687 31.4865 31.3294 34.8399 29.3842C34.9376 29.3351 35.0182 29.2574 35.0709 29.1615C35.1236 29.0657 35.1461 28.9561 35.1353 28.8472ZM37.6727 9.98452L43.0115 4.64568V7.84093H45.5892V0.0362894H37.7801V2.62292H41.1454L35.7126 8.02889L37.6727 9.98452Z" fill="url(#paint0_linear_6899_62051)"/>
</g>
<defs>
<linearGradient id="paint0_linear_6899_62051" x1="37.2226" y1="0.000476754" x2="-2.05375" y2="9.94539" gradientUnits="userSpaceOnUse">
<stop stop-color="#AC2121"/>
<stop offset="1" stop-color="#E9000E"/>
</linearGradient>
<clipPath id="clip0_6899_62051">
<rect width="44.7514" height="44.7514" fill="white" transform="translate(0.869141 0.000244141)"/>
</clipPath>
</defs>
</svg>
