<svg width="46" height="45" viewBox="0 0 46 45" fill="none" xmlns="http://www.w3.org/2000/svg">
<g id="express-parcel.svg" clip-path="url(#clip0_6899_62066)">
<path id="Vector" d="M13.0032 6.31934V38.6925H45.3764V6.31934H13.0032ZM26.639 8.78066H31.669V17.5967H26.639V8.78066ZM42.9151 36.2222H15.469V8.78514H24.1777V20.0491H34.1259V8.77619H42.9151V36.2222ZM29.8432 34.9468H41.6262V28.8159H29.8432V34.9468ZM32.3 31.2638H39.1917V32.5078H32.3V31.2638ZM16.7355 32.5347H19.1521V34.9513H16.7355V32.5347ZM20.4499 32.5347H22.8575V34.9513H20.4678L20.4499 32.5347ZM24.1732 32.5347H26.5898V34.9423H24.1732V32.5347ZM0.625 15.8335H10.703V18.4291H0.625V15.8335ZM2.0839 21.2036H10.703V23.7992H2.0839V21.2036ZM3.69047 26.5738H10.703V29.1694H3.69047V26.5738Z" fill="url(#paint0_linear_6899_62066)"/>
</g>
<defs>
<linearGradient id="paint0_linear_6899_62066" x1="36.9785" y1="6.31933" x2="-0.25446" y2="19.3515" gradientUnits="userSpaceOnUse">
<stop stop-color="#AC2121"/>
<stop offset="1" stop-color="#E9000E"/>
</linearGradient>
<clipPath id="clip0_6899_62066">
<rect width="44.7514" height="44.7514" fill="white" transform="translate(0.625 0.000244141)"/>
</clipPath>
</defs>
</svg>
