<svg width="46" height="46" viewBox="0 0 46 46" fill="none" xmlns="http://www.w3.org/2000/svg">
<g id="marketplace.svg" clip-path="url(#clip0_6899_62073)">
<path id="Vector" d="M1.71289 0.558105V1.04142C1.71289 12.1219 1.71289 23.1993 1.71289 34.2738C1.71289 36.5114 2.94803 38.1403 4.96632 38.6102C5.37999 38.6951 5.80155 38.7357 6.22383 38.731C9.35643 38.731 12.489 38.731 15.6216 38.731H16.1586V42.6557H10.9182V45.3095H34.6365V42.6915H29.405V38.7355H29.9286C33.2492 38.7355 36.5742 38.7355 39.8992 38.7355C42.0965 38.7355 43.7702 37.4243 44.1999 35.3747C44.2679 35.0013 44.2979 34.6219 44.2894 34.2425C44.2894 23.1799 44.2894 12.1174 44.2894 1.05485V0.558105H1.71289ZM32.9046 3.17606H35.9119C35.9302 3.28717 35.9422 3.39923 35.9477 3.5117C35.9477 6.67114 35.9477 9.83059 35.9477 12.99C35.9633 13.3695 35.8373 13.7412 35.5942 14.0329C35.3511 14.3247 35.0082 14.5156 34.6321 14.5686C34.2561 14.6216 33.8737 14.5329 33.5594 14.3197C33.2451 14.1066 33.0213 13.7842 32.9315 13.4152C32.9009 13.2892 32.8859 13.1599 32.8867 13.0303C32.8867 9.83805 32.8867 6.64877 32.8867 3.46247C32.8822 3.37744 32.8957 3.29241 32.9046 3.17606ZM27.1809 3.6907V3.17606H30.2106C30.2303 3.28559 30.2438 3.39615 30.2508 3.50722C30.2508 6.65175 30.2508 9.79628 30.2508 12.9408C30.2656 13.182 30.2235 13.4232 30.1278 13.6451C30.032 13.8669 29.8854 14.0631 29.6998 14.2178C29.5142 14.3724 29.2948 14.4813 29.0593 14.5354C28.8239 14.5896 28.579 14.5875 28.3444 14.5295C28.0085 14.4522 27.7096 14.2612 27.4984 13.9888C27.2872 13.7164 27.1766 13.3794 27.1854 13.0348C27.1854 11.8847 27.1854 10.7346 27.1854 9.58446L27.1809 3.6907ZM28.7114 17.219C29.7701 17.2173 30.7887 16.8143 31.5621 16.0913C32.3363 16.8158 33.3569 17.2189 34.4172 17.219C35.4735 17.2235 36.4911 16.8213 37.2589 16.0958C37.8358 16.6267 38.5483 16.9876 39.3177 17.1384C40.087 17.2893 40.8831 17.2243 41.6177 16.9505V30.7877H38.1405V19.8773H26.3082V30.7832H4.38455V17.0087C4.87757 17.1092 5.37702 17.175 5.87924 17.2056C6.39626 17.1699 6.91046 17.1011 7.41869 16.9998V25.5025H21.4662V16.9416C22.2054 17.219 23.0071 17.286 23.7821 17.1351C24.5571 16.9842 25.2751 16.6213 25.8563 16.0868C26.63 16.8121 27.6509 17.2153 28.7114 17.2146V17.219ZM35.4778 22.5176V30.7966H28.971V22.5176H35.4778ZM21.4796 3.19396H24.5092C24.5092 3.35059 24.5316 3.4938 24.5316 3.64148C24.5316 6.71142 24.5316 9.78286 24.5316 12.8558C24.5316 13.809 24.0617 14.4176 23.2428 14.5608C22.8592 14.6276 22.4647 14.5439 22.1413 14.3272C21.8179 14.1105 21.5905 13.7774 21.5064 13.3973C21.4736 13.2504 21.4571 13.1003 21.4572 12.9498C21.4572 9.7754 21.4572 6.60253 21.4572 3.43114C21.4597 3.35169 21.4671 3.27247 21.4796 3.19396ZM15.7603 3.30137C15.7687 3.26245 15.7823 3.22482 15.8006 3.18949H18.79C18.8047 3.29483 18.8137 3.4009 18.8169 3.50722C18.8169 6.66219 18.8169 9.82164 18.8169 12.9811C18.8296 13.2183 18.7865 13.4551 18.691 13.6726C18.5954 13.8901 18.4502 14.0821 18.2669 14.2332C18.0836 14.3842 17.8674 14.4902 17.6357 14.5424C17.404 14.5947 17.1632 14.5918 16.9328 14.534C16.6083 14.4639 16.3168 14.2868 16.105 14.0312C15.8932 13.7755 15.7734 13.4562 15.7648 13.1243C15.7469 9.85297 15.7559 6.57717 15.7603 3.30137ZM18.799 16.9461V22.898H10.0769V16.9505C10.8117 17.2232 11.6076 17.2877 12.3767 17.1369C13.1458 16.9861 13.8583 16.6258 14.4357 16.0958C15.0137 16.6263 15.7273 16.9866 16.4974 17.1366C17.2674 17.2867 18.064 17.2207 18.799 16.9461ZM10.0724 3.18501H13.0842C13.1008 3.28271 13.1113 3.38136 13.1155 3.48037C13.1155 6.65175 13.1155 9.82612 13.1155 13.0035C13.1274 13.3785 13.0011 13.7448 12.7606 14.0329C12.5201 14.3209 12.1822 14.5105 11.8111 14.5658C11.4399 14.621 11.0614 14.538 10.7475 14.3324C10.4336 14.1269 10.2061 13.8132 10.1082 13.451C10.071 13.3048 10.053 13.1543 10.0545 13.0035V3.40877C10.0545 3.35059 10.0635 3.29241 10.0724 3.18501ZM4.34875 3.6907V3.18949H7.40079C7.40079 3.31032 7.40079 3.40877 7.40079 3.50722C7.40079 6.64877 7.40079 9.79181 7.40079 12.9363C7.41687 13.1777 7.37582 13.4195 7.28097 13.6421C7.18613 13.8647 7.04016 14.0618 6.85491 14.2174C6.66965 14.373 6.45033 14.4828 6.21472 14.5378C5.97912 14.5928 5.73386 14.5915 5.49886 14.534C5.15514 14.4546 4.85027 14.2569 4.63757 13.9755C4.42487 13.6941 4.31788 13.3468 4.33532 12.9945C4.33532 11.4372 4.33532 9.86192 4.33532 8.32247L4.34875 3.6907ZM26.7244 42.6513H18.8437V38.7668H26.7021L26.7244 42.6513ZM41.5953 34.9227C41.5443 35.2044 41.4071 35.4632 41.2027 35.6636C40.9983 35.864 40.7368 35.996 40.4542 36.0415C40.2403 36.0819 40.0228 36.0999 39.8053 36.0952C28.6085 36.0952 17.4206 36.0952 6.24173 36.0952C5.48543 36.0952 4.80521 35.9117 4.5367 35.1554C4.40557 34.6023 4.33505 34.0366 4.32637 33.4683H41.649C41.6745 33.9537 41.6565 34.4405 41.5953 34.9227ZM41.649 12.9721C41.663 13.2096 41.621 13.447 41.5264 13.6652C41.4317 13.8834 41.2871 14.0763 41.1042 14.2283C40.9212 14.3803 40.7051 14.4872 40.4733 14.5403C40.2414 14.5934 40.0003 14.5912 39.7695 14.534C39.4378 14.4635 39.1402 14.2817 38.9261 14.0188C38.712 13.7558 38.5943 13.4276 38.5925 13.0885C38.5925 9.83059 38.5925 6.56822 38.5925 3.30584C38.6016 3.26424 38.6151 3.22373 38.6328 3.18501H41.6266C41.6427 3.27377 41.6532 3.36345 41.658 3.45352C41.6535 6.62639 41.658 9.79927 41.649 12.9721Z" fill="url(#paint0_linear_6899_62073)"/>
</g>
<defs>
<linearGradient id="paint0_linear_6899_62073" x1="36.3007" y1="0.558094" x2="-1.28265" y2="9.61215" gradientUnits="userSpaceOnUse">
<stop stop-color="#AC2121"/>
<stop offset="1" stop-color="#E9000E"/>
</linearGradient>
<clipPath id="clip0_6899_62073">
<rect width="44.7514" height="44.7514" fill="white" transform="translate(0.625 0.558105)"/>
</clipPath>
</defs>
</svg>
