<svg width="45" height="45" viewBox="0 0 45 45" fill="none" xmlns="http://www.w3.org/2000/svg">
<g id="carrier.svg" clip-path="url(#clip0_6899_62059)">
<path id="Vector" d="M44.8764 21.266C44.9037 20.3714 44.7476 19.4807 44.4176 18.6488C44.0876 17.8168 43.5907 17.0612 42.9577 16.4286C42.3246 15.7959 41.5687 15.2996 40.7365 14.9701C39.9043 14.6407 39.0135 14.4851 38.1189 14.513H28.9538V6.64575H0.125V35.497C1.81213 35.497 3.50373 35.497 5.19086 35.497C5.30838 35.481 5.42779 35.5062 5.52891 35.5682C5.63002 35.6301 5.70663 35.7251 5.74577 35.8371C6.04118 36.5266 6.53613 37.112 7.16696 37.5179C7.79779 37.9239 8.53565 38.1318 9.28561 38.1149C10.0424 38.1371 10.7883 37.9314 11.4267 37.5244C12.0651 37.1174 12.5664 36.528 12.8657 35.8326C12.8984 35.726 12.9672 35.6342 13.0604 35.5729C13.1535 35.5116 13.2651 35.4848 13.3759 35.497C19.4621 35.497 25.5483 35.497 31.6344 35.497C31.7385 35.4823 31.8445 35.5048 31.9337 35.5604C32.0229 35.6161 32.0896 35.7013 32.1222 35.8013C32.4282 36.4941 32.9283 37.0835 33.5621 37.4981C34.1959 37.9128 34.9363 38.135 35.6936 38.1378C36.451 38.1406 37.193 37.924 37.8299 37.5141C38.4668 37.1042 38.9713 36.5186 39.2825 35.8281C39.3176 35.7225 39.3878 35.632 39.4814 35.5718C39.575 35.5116 39.6864 35.4852 39.7971 35.497C41.341 35.497 42.8849 35.497 44.4289 35.497H44.8764V21.266ZM9.28561 35.4925C9.02905 35.4863 8.77995 35.4049 8.56919 35.2585C8.35843 35.1121 8.19527 34.907 8.09993 34.6688C8.0046 34.4305 7.98128 34.1695 8.03287 33.9181C8.08445 33.6667 8.20868 33.436 8.39015 33.2545C8.57162 33.073 8.80235 32.9488 9.05374 32.8972C9.30514 32.8456 9.56614 32.8689 9.80441 32.9643C10.0427 33.0596 10.2477 33.2228 10.3942 33.4335C10.5406 33.6443 10.6219 33.8934 10.6281 34.1499C10.6281 34.506 10.4867 34.8475 10.2349 35.0993C9.98315 35.351 9.64167 35.4925 9.28561 35.4925ZM26.3135 32.8745H25.866C21.731 32.8745 17.5959 32.8745 13.4609 32.8745C13.3299 32.8921 13.1968 32.8639 13.0843 32.7945C12.9717 32.7252 12.8866 32.6191 12.8433 32.4941C12.5412 31.8041 12.0378 31.2214 11.3991 30.8221C10.7603 30.4229 10.0159 30.2258 9.26323 30.2566C8.52196 30.24 7.79243 30.4437 7.16706 30.8421C6.54168 31.2404 6.04859 31.8154 5.75025 32.4941C5.70679 32.6196 5.62079 32.7259 5.50717 32.7945C5.39355 32.8632 5.25947 32.8899 5.1282 32.8701C4.34953 32.8701 3.56638 32.8701 2.75638 32.8701V9.29056H26.3135V32.8745ZM35.7113 35.4925C35.4524 35.4968 35.198 35.4244 34.9802 35.2844C34.7624 35.1444 34.591 34.943 34.4874 34.7057C34.3839 34.4683 34.353 34.2057 34.3985 33.9508C34.4441 33.6959 34.5641 33.4602 34.7434 33.2734C34.9227 33.0866 35.1533 32.9571 35.4061 32.9012C35.659 32.8453 35.9227 32.8655 36.164 32.9592C36.4054 33.053 36.6136 33.2161 36.7624 33.428C36.9112 33.6399 36.9939 33.8911 37.0001 34.1499C37.0005 34.4954 36.8677 34.8277 36.6293 35.0778C36.3909 35.3278 36.0653 35.4764 35.7202 35.4925H35.7113ZM42.2181 32.8701C41.3231 32.8701 40.4281 32.8701 39.5331 32.8701C39.4436 32.8701 39.3272 32.7358 39.278 32.6374C38.987 31.9225 38.4851 31.3134 37.839 30.8913C37.193 30.4691 36.4336 30.2539 35.6621 30.2745C33.9749 30.2745 32.7756 31.1292 32.0462 32.6508C32.0143 32.7072 31.9706 32.756 31.9181 32.7938C31.8656 32.8317 31.8054 32.8577 31.7419 32.8701C30.8468 32.8701 29.9115 32.8701 28.9673 32.8701V17.1579H31.724V24.9893H42.1958L42.2181 32.8701ZM42.2181 22.349H34.4046V17.1355C34.9237 17.1355 35.4294 17.1355 35.9306 17.1355C36.9622 17.1069 37.9946 17.1368 39.0229 17.225C39.8787 17.3603 40.663 17.7826 41.2469 18.4227C41.8308 19.0627 42.1796 19.8824 42.236 20.7469C42.2763 21.2705 42.2405 21.7986 42.2405 22.349H42.2181ZM7.96992 27.5939H5.40119V14.5354H7.96992V27.5939ZM13.2058 27.5939H10.6371V14.5354H13.2058V27.5939ZM18.4596 27.5939H15.8864V14.5354H18.4731L18.4596 27.5939ZM23.7 27.5939H21.1313V14.5354H23.7V27.5939Z" fill="url(#paint0_linear_6899_62059)"/>
</g>
<defs>
<linearGradient id="paint0_linear_6899_62059" x1="36.4809" y1="6.64574" x2="-0.524779" y2="19.9617" gradientUnits="userSpaceOnUse">
<stop stop-color="#AC2121"/>
<stop offset="1" stop-color="#E9000E"/>
</linearGradient>
<clipPath id="clip0_6899_62059">
<rect width="44.7514" height="44.7514" fill="white" transform="translate(0.125 0.000244141)"/>
</clipPath>
</defs>
</svg>
