<svg width="46" height="45" viewBox="0 0 46 45" fill="none" xmlns="http://www.w3.org/2000/svg">
<g id="product.svg" clip-path="url(#clip0_6899_62079)">
<path id="Vector" d="M39.7256 28.5917H45.3419C45.2524 28.4574 45.2121 28.3858 45.1629 28.3187C43.1849 25.6336 41.2024 22.9485 39.2154 20.2634C39.1447 20.1874 39.0597 20.1262 38.9652 20.0832C38.8708 20.0402 38.7687 20.0163 38.665 20.0128C37.7431 20.0128 36.8168 20.0128 35.8233 20.0128L37.3224 17.453C36.4274 16.7683 35.6353 16.0747 34.7627 15.475C34.4696 15.3236 34.2314 15.0842 34.0813 14.7904C33.9312 14.4967 33.8768 14.1633 33.9258 13.8371C33.9216 13.6734 33.9549 13.5108 34.0231 13.3619C34.0914 13.2129 34.1928 13.0816 34.3196 12.9779C35.3221 12.235 36.2976 11.4519 37.3045 10.6643C35.8949 8.21188 34.5031 5.81768 33.1024 3.37873C31.8449 3.8889 30.6366 4.38564 29.4193 4.86895C29.2791 4.93337 29.1206 4.94605 28.9718 4.90475C27.8754 4.43039 27.7814 4.29166 27.6293 3.08785C27.6271 3.07451 27.6271 3.06091 27.6293 3.04757C27.4861 2.02724 27.3384 1.01138 27.1818 0H18.8043C18.6298 1.27541 18.4553 2.52845 18.2807 3.78149C18.2539 3.95155 18.2449 4.18425 18.133 4.26481C17.7808 4.54423 17.3866 4.76624 16.965 4.92265C16.7413 4.98978 16.4235 4.79287 16.155 4.68547C15.081 4.23796 14.007 3.81729 12.915 3.37425L8.71736 10.6553C9.61239 11.3624 10.4627 12.065 11.3577 12.6915C11.617 12.8401 11.8275 13.061 11.9633 13.3272C12.0992 13.5934 12.1547 13.8935 12.1229 14.1907C12.1253 14.3916 12.0784 14.5901 11.9863 14.7687C11.8943 14.9474 11.7599 15.1008 11.5949 15.2155C10.6282 15.936 9.68846 16.6878 8.71736 17.453C9.20515 18.3078 9.67951 19.1267 10.1807 19.9994C9.20515 19.9994 8.3146 19.9994 7.42404 19.9994C7.28994 19.9857 7.15469 20.0099 7.03365 20.0692C6.91262 20.1285 6.81065 20.2206 6.73935 20.335C4.80907 22.9634 2.87432 25.5829 0.935093 28.1934L0.662109 28.5917H6.33658V29.0392C6.33658 34.1408 6.33658 39.241 6.33658 44.3397C6.33658 44.4694 6.33658 44.5992 6.30973 44.729H39.7166C39.7166 44.6261 39.6853 44.5276 39.6853 44.4247V28.972C39.6922 28.8446 39.7056 28.7177 39.7256 28.5917ZM14.0517 6.67243C14.9065 7.01702 15.7567 7.31685 16.5667 7.69724C16.7775 7.81735 17.0209 7.86775 17.262 7.84123C17.5031 7.8147 17.7297 7.71262 17.9093 7.54956C18.6466 7.06043 19.4218 6.63095 20.2274 6.26519C20.478 6.13541 20.6346 6.02801 20.6749 5.71028C20.7868 4.68547 20.9524 3.66514 21.1224 2.63586H24.9263C25.074 3.68751 25.2351 4.72127 25.3738 5.76845C25.3785 5.87266 25.4168 5.97255 25.4829 6.05321C25.5491 6.13386 25.6395 6.19096 25.7408 6.21597C26.7206 6.57881 27.6294 7.11043 28.4259 7.78674C28.5077 7.8659 28.6129 7.91651 28.7258 7.93102C28.8387 7.94554 28.9532 7.92319 29.0524 7.86729C30.0056 7.46453 30.9633 7.08414 31.9657 6.68138C32.6012 7.78674 33.2322 8.8742 33.8811 9.99746C33.0755 10.6285 32.2969 11.2594 31.4913 11.8502C31.3631 11.9372 31.263 12.0598 31.2034 12.2029C31.1438 12.346 31.1272 12.5033 31.1557 12.6557C31.2049 13.5963 31.2049 14.5389 31.1557 15.4795C31.129 15.6313 31.1479 15.7875 31.21 15.9285C31.2722 16.0695 31.3747 16.1889 31.5048 16.2716C32.3013 16.8578 33.0711 17.4844 33.89 18.1243C33.5499 18.715 33.2366 19.2699 32.9055 19.8159C32.8246 19.9074 32.7163 19.9703 32.5967 19.9949C32.4824 20.0107 32.3664 20.0107 32.2521 19.9949C26.0585 19.9949 19.8649 19.9949 13.6713 19.9949C13.5311 20.0171 13.3875 19.9917 13.2634 19.9228C13.1393 19.8538 13.0419 19.7453 12.9866 19.6145C12.736 19.1088 12.4317 18.6255 12.1319 18.1109C12.9508 17.4709 13.7474 16.8355 14.5619 16.2313C14.6839 16.1566 14.778 16.0439 14.8297 15.9105C14.8815 15.7771 14.888 15.6304 14.8483 15.4929C14.6626 14.5307 14.6626 13.5418 14.8483 12.5796C14.8862 12.442 14.8773 12.2957 14.823 12.1637C14.7687 12.0316 14.6722 11.9214 14.5485 11.8502C13.7429 11.2505 12.9598 10.624 12.1274 9.97508L14.0517 6.67243ZM5.89802 25.9558C5.98305 25.8171 6.0278 25.7186 6.09045 25.6291C6.76172 24.7341 7.43299 23.7943 8.12216 22.8948C8.1802 22.8195 8.253 22.7568 8.33611 22.7107C8.41922 22.6645 8.51088 22.6358 8.60548 22.6263C14.4381 22.6263 20.2692 22.6263 26.0988 22.6263C26.1391 22.6263 26.1838 22.6263 26.3091 22.6531C25.4991 23.7451 24.7428 24.7923 23.9552 25.8215C23.8092 25.9277 23.6289 25.9756 23.4495 25.9558C18.9475 25.9558 14.444 25.9558 9.93907 25.9558H5.89802ZM27.5935 42.0663H8.98139V28.5961H9.50498C14.5768 28.5961 19.6486 28.5961 24.7205 28.5961C24.8694 28.6092 25.019 28.5805 25.1526 28.5133C25.2862 28.4461 25.3984 28.3431 25.4767 28.2157C26.063 27.3834 26.6806 26.5734 27.2668 25.7544C27.3518 25.6425 27.4413 25.5351 27.5801 25.3606L27.5935 42.0663ZM37.0316 42.0663H30.2786V25.3606C30.9901 26.3228 31.6524 27.182 32.27 28.077C32.3711 28.2553 32.5217 28.4005 32.7036 28.495C32.8854 28.5895 33.0908 28.6293 33.2948 28.6096C34.3688 28.5648 35.4518 28.6096 36.5259 28.6096H37.0271L37.0316 42.0663ZM34.3465 25.9558C34.2327 25.9652 34.1184 25.9435 34.016 25.893C33.9135 25.8426 33.8267 25.7653 33.7647 25.6694C33.0442 24.667 32.3058 23.678 31.5271 22.6263C31.6882 22.6263 31.7822 22.6263 31.8762 22.6263C33.6976 22.6263 35.519 22.6263 37.3403 22.6263C37.4293 22.624 37.5179 22.6395 37.6009 22.6717C37.6839 22.704 37.7596 22.7524 37.8237 22.8143C38.5889 23.8212 39.3363 24.846 40.1373 25.9469C39.9449 25.9469 39.833 25.9737 39.7211 25.9737C37.94 25.9558 36.15 25.9558 34.3554 25.9782L34.3465 25.9558Z" fill="url(#paint0_linear_6899_62079)"/>
<path id="Vector_2" d="M23.0016 18.5138C23.5918 18.5229 24.1778 18.4133 24.7249 18.1916C25.2719 17.9699 25.7688 17.6406 26.1862 17.2233C26.6036 16.8059 26.9329 16.3089 27.1546 15.7619C27.3763 15.2149 27.4858 14.6289 27.4768 14.0387C27.4788 13.451 27.3651 12.8687 27.1421 12.3249C26.9191 11.7812 26.5912 11.2867 26.1771 10.8697C25.763 10.4527 25.2708 10.1213 24.7287 9.89452C24.1865 9.66773 23.605 9.54994 23.0173 9.54788C22.4296 9.54582 21.8473 9.65954 21.3035 9.88254C20.7598 10.1055 20.2653 10.4334 19.8483 10.8475C19.0061 11.6839 18.5307 12.8205 18.5265 14.0074C18.5132 14.6001 18.6196 15.1895 18.8394 15.7402C19.0592 16.2909 19.3878 16.7916 19.8056 17.2124C20.2234 17.6331 20.7218 17.9652 21.271 18.1888C21.8201 18.4125 22.4088 18.523 23.0016 18.5138ZM23.0016 12.2173C23.2461 12.2086 23.4898 12.2502 23.7176 12.3394C23.9454 12.4286 24.1525 12.5635 24.3261 12.7359C24.4998 12.9082 24.6362 13.1144 24.7271 13.3415C24.8179 13.5687 24.8612 13.812 24.8543 14.0566C24.8543 14.5456 24.6601 15.0145 24.3143 15.3603C23.9686 15.7061 23.4996 15.9003 23.0106 15.9003C22.5216 15.9003 22.0526 15.7061 21.7069 15.3603C21.3611 15.0145 21.1668 14.5456 21.1668 14.0566C21.1601 13.8136 21.2029 13.5718 21.2926 13.3458C21.3824 13.1199 21.5172 12.9147 21.6889 12.7426C21.8606 12.5705 22.0655 12.4351 22.2912 12.3448C22.5169 12.2545 22.7586 12.2111 23.0016 12.2173Z" fill="url(#paint1_linear_6899_62079)"/>
</g>
<defs>
<linearGradient id="paint0_linear_6899_62079" x1="36.9574" y1="-1.15216e-05" x2="-2.26131" y2="9.91937" gradientUnits="userSpaceOnUse">
<stop stop-color="#AC2121"/>
<stop offset="1" stop-color="#E9000E"/>
</linearGradient>
<linearGradient id="paint1_linear_6899_62079" x1="25.7974" y1="9.54785" x2="17.9392" y2="11.5343" gradientUnits="userSpaceOnUse">
<stop stop-color="#AC2121"/>
<stop offset="1" stop-color="#E9000E"/>
</linearGradient>
<clipPath id="clip0_6899_62079">
<rect width="44.7514" height="44.7514" fill="white" transform="translate(0.625)"/>
</clipPath>
</defs>
</svg>
