<svg width="45" height="45" viewBox="0 0 45 45" fill="none" xmlns="http://www.w3.org/2000/svg">
<g id="enterprise.svg" clip-path="url(#clip0_6899_62086)">
<g id="Group">
<g id="Group_2">
<path id="Vector" d="M39.9987 20.989L23.7987 12.5758V1.34316C23.7987 0.850893 23.5302 0.44813 23.1274 0.224373C22.7247 0.000616364 22.2324 0.000616364 21.8297 0.269125L4.91363 10.7857C4.51087 11.0095 4.28711 11.457 4.28711 11.9045V43.4095C4.28711 44.1255 4.86888 44.7072 5.5849 44.7072H22.5009H39.4169C40.133 44.7072 40.7147 44.1255 40.7147 43.4095V22.1526C40.7147 21.6603 40.4462 21.2128 39.9987 20.989ZM6.88269 39.1581H18.16V36.5625H6.88269V33.6089H18.16V31.0133H6.88269V28.0597H18.16V25.4642H6.88269V22.5106H18.16V19.915H6.88269V16.9614H18.16V14.3658H6.88269V12.5758L21.2031 3.67023V13.3365V42.0669H6.88269V39.1581ZM38.1192 42.1117H23.7987V39.1581H35.0761V36.5625H23.7987V33.6089H35.0761V31.0133H23.7987V28.0597H35.0761V25.4642H23.7987V15.4846L38.1192 22.9133V42.1117Z" fill="url(#paint0_linear_6899_62086)"/>
</g>
</g>
</g>
<defs>
<linearGradient id="paint0_linear_6899_62086" x1="33.8788" y1="0.0617561" x2="1.25079" y2="6.80259" gradientUnits="userSpaceOnUse">
<stop stop-color="#AC2121"/>
<stop offset="1" stop-color="#E9000E"/>
</linearGradient>
<clipPath id="clip0_6899_62086">
<rect width="44.7514" height="44.7514" fill="white" transform="translate(0.125)"/>
</clipPath>
</defs>
</svg>
