<svg width="60" height="41" viewBox="0 0 60 41" fill="none" xmlns="http://www.w3.org/2000/svg">
<path id="Vector" d="M59.0686 4.34287V40.7065H4.52308V33.4338H0.886719V0.706505H51.7958V4.34287H59.0686ZM44.5231 4.34287C44.5231 4.85423 44.6178 5.32772 44.8072 5.76332C44.9966 6.19893 45.2523 6.57772 45.5742 6.89969C45.8962 7.22166 46.2845 7.48681 46.739 7.69514C47.1935 7.90347 47.667 7.99817 48.1595 7.97923V4.34287H44.5231ZM4.52308 7.97923C5.03445 7.97923 5.50793 7.88454 5.94354 7.69514C6.37914 7.50575 6.75793 7.25007 7.0799 6.9281C7.40187 6.60613 7.66702 6.21787 7.87536 5.76332C8.08369 5.30878 8.17839 4.83529 8.15945 4.34287H4.52308V7.97923ZM4.52308 22.5247C5.52687 22.5247 6.46437 22.7141 7.33558 23.0929C8.2068 23.4717 8.98331 23.9925 9.66513 24.6554C10.3469 25.3182 10.8678 26.0853 11.2276 26.9565C11.5875 27.8277 11.7769 28.7747 11.7958 29.7974H40.8867C40.8867 28.7936 41.0761 27.8561 41.4549 26.9849C41.8337 26.1137 42.3545 25.3372 43.0174 24.6554C43.6803 23.9736 44.4473 23.4527 45.3185 23.0929C46.1898 22.733 47.1367 22.5436 48.1595 22.5247V11.6156C47.1557 11.6156 46.2182 11.4262 45.347 11.0474C44.4757 10.6686 43.6992 10.1478 43.0174 9.48491C42.3356 8.82204 41.8148 8.05499 41.4549 7.18378C41.0951 6.31257 40.9057 5.3656 40.8867 4.34287H11.7958C11.7958 5.34666 11.6064 6.28416 11.2276 7.15537C10.8488 8.02658 10.328 8.8031 9.66513 9.48491C9.00225 10.1667 8.23521 10.6876 7.36399 11.0474C6.49278 11.4073 5.54581 11.5967 4.52308 11.6156V22.5247ZM48.1595 26.1611C47.6481 26.1611 47.1746 26.2557 46.739 26.4451C46.3034 26.6345 45.9246 26.8902 45.6026 27.2122C45.2807 27.5342 45.0155 27.9224 44.8072 28.377C44.5988 28.8315 44.5042 29.305 44.5231 29.7974H48.1595V26.1611ZM4.52308 29.7974H8.15945C8.15945 29.2861 8.06475 28.8126 7.87536 28.377C7.68596 27.9414 7.43028 27.5626 7.10831 27.2406C6.78634 26.9186 6.39808 26.6535 5.94354 26.4451C5.48899 26.2368 5.01551 26.1421 4.52308 26.1611V29.7974ZM55.4322 7.97923H51.7958V33.4338H8.15945V37.0701H55.4322V7.97923ZM13.614 18.8883C13.1216 18.8883 12.6954 18.7084 12.3356 18.3486C11.9757 17.9887 11.7958 17.5626 11.7958 17.0701C11.7958 16.5777 11.9757 16.1516 12.3356 15.7917C12.6954 15.4319 13.1216 15.252 13.614 15.252C14.1064 15.252 14.5326 15.4319 14.8924 15.7917C15.2523 16.1516 15.4322 16.5777 15.4322 17.0701C15.4322 17.5626 15.2523 17.9887 14.8924 18.3486C14.5326 18.7084 14.1064 18.8883 13.614 18.8883ZM39.0685 18.8883C38.5761 18.8883 38.15 18.7084 37.7901 18.3486C37.4303 17.9887 37.2504 17.5626 37.2504 17.0701C37.2504 16.5777 37.4303 16.1516 37.7901 15.7917C38.15 15.4319 38.5761 15.252 39.0685 15.252C39.561 15.252 39.9871 15.4319 40.347 15.7917C40.7068 16.1516 40.8867 16.5777 40.8867 17.0701C40.8867 17.5626 40.7068 17.9887 40.347 18.3486C39.9871 18.7084 39.561 18.8883 39.0685 18.8883ZM26.3413 26.1611C25.3375 26.1611 24.4 25.9717 23.5288 25.5929C22.6576 25.2141 21.881 24.6932 21.1992 24.0304C20.5174 23.3675 19.9966 22.6004 19.6367 21.7292C19.2769 20.858 19.0875 19.9111 19.0685 18.8883V15.252C19.0685 14.2482 19.2579 13.3107 19.6367 12.4395C20.0155 11.5682 20.5363 10.7917 21.1992 10.1099C21.8621 9.4281 22.6291 8.90726 23.5004 8.54741C24.3716 8.18757 25.3185 7.99817 26.3413 7.97923C27.3451 7.97923 28.2826 8.16863 29.1538 8.54741C30.025 8.9262 30.8015 9.44704 31.4833 10.1099C32.1651 10.7728 32.686 11.5398 33.0458 12.4111C33.4057 13.2823 33.5951 14.2292 33.614 15.252V18.8883C33.614 19.8921 33.4246 20.8296 33.0458 21.7008C32.667 22.572 32.1462 23.3486 31.4833 24.0304C30.8204 24.7122 30.0534 25.233 29.1822 25.5929C28.311 25.9527 27.364 26.1421 26.3413 26.1611ZM22.7049 18.8883C22.7049 19.3997 22.7996 19.8732 22.989 20.3088C23.1784 20.7444 23.4341 21.1232 23.756 21.4451C24.078 21.7671 24.4663 22.0323 24.9208 22.2406C25.3754 22.4489 25.8488 22.5436 26.3413 22.5247C26.8526 22.5247 27.3261 22.43 27.7617 22.2406C28.1973 22.0512 28.5761 21.7955 28.8981 21.4736C29.2201 21.1516 29.4852 20.7633 29.6935 20.3088C29.9019 19.8542 29.9966 19.3807 29.9776 18.8883V15.252C29.9776 14.7406 29.8829 14.2671 29.6935 13.8315C29.5041 13.3959 29.2485 13.0171 28.9265 12.6951C28.6045 12.3732 28.2163 12.108 27.7617 11.8997C27.3072 11.6914 26.8337 11.5967 26.3413 11.6156C25.8299 11.6156 25.3564 11.7103 24.9208 11.8997C24.4852 12.0891 24.1064 12.3448 23.7845 12.6667C23.4625 12.9887 23.1973 13.377 22.989 13.8315C22.7807 14.2861 22.686 14.7595 22.7049 15.252V18.8883Z" fill="white"/>
</svg>
