<svg width="35" height="35" viewBox="0 0 35 35" fill="none" xmlns="http://www.w3.org/2000/svg">
<g id="enterprise.svg" clip-path="url(#clip0_6899_62141)">
<g id="Group">
<g id="Group_2">
<path id="Vector" d="M31.02 16.2902L18.777 9.93194V1.44301C18.777 1.07098 18.574 0.766599 18.2697 0.597497C17.9653 0.428395 17.5933 0.428395 17.2889 0.631318L4.50474 8.57912C4.20035 8.74823 4.03125 9.08643 4.03125 9.42464V33.2342C4.03125 33.7754 4.47092 34.215 5.01204 34.215H17.7962H30.5803C31.1214 34.215 31.5611 33.7754 31.5611 33.2342V17.1695C31.5611 16.7975 31.3582 16.4593 31.02 16.2902ZM5.99284 30.0213H14.5156V28.0597H5.99284V25.8276H14.5156V23.866H5.99284V21.6338H14.5156V19.6722H5.99284V17.4401H14.5156V15.4785H5.99284V13.2463H14.5156V11.2848H5.99284V9.93194L16.8154 3.20167V10.5069V32.2196H5.99284V30.0213ZM29.5995 32.2534H18.777V30.0213H27.2997V28.0597H18.777V25.8276H27.2997V23.866H18.777V21.6338H27.2997V19.6722H18.777V12.1303L29.5995 17.7445V32.2534Z" fill="url(#paint0_linear_6899_62141)"/>
</g>
</g>
</g>
<defs>
<linearGradient id="paint0_linear_6899_62141" x1="26.3949" y1="0.474601" x2="1.73658" y2="5.56893" gradientUnits="userSpaceOnUse">
<stop stop-color="#AC2121"/>
<stop offset="1" stop-color="#E9000E"/>
</linearGradient>
<clipPath id="clip0_6899_62141">
<rect width="33.8205" height="33.8205" fill="white" transform="translate(0.884766 0.428223)"/>
</clipPath>
</defs>
</svg>
