<svg width="35" height="34" viewBox="0 0 35 34" fill="none" xmlns="http://www.w3.org/2000/svg">
<g id="logistics-1.svg" clip-path="url(#clip0_6899_62098)">
<path id="Vector" d="M2.66037 5.97689H0.658203V0.03125H6.58016V1.9996H4.17891L8.20016 6.02085L6.74588 7.49542L2.68743 3.43697L2.66037 5.97689ZM6.71883 26.3334L2.6367 30.4257V27.9061H0.658203V33.8517H6.60384V31.8597H4.08083C5.47762 30.4697 6.83382 29.1168 8.17311 27.764L6.71883 26.3334ZM32.4832 27.9331V30.446L28.391 26.3537L26.957 27.7911L31.0391 31.8732H28.533V33.8517H34.4787V27.9331H32.4832ZM28.2861 23.4181C24.7959 25.4135 21.3101 27.4258 17.8288 29.455C17.7541 29.5077 17.6649 29.536 17.5735 29.536C17.4821 29.536 17.3929 29.5077 17.3182 29.455C13.8279 27.4258 10.3331 25.4079 6.83382 23.4012C6.75632 23.3649 6.69212 23.3053 6.65026 23.2307C6.60841 23.1561 6.59099 23.0702 6.60046 22.9852C6.60046 20.956 6.60046 18.9267 6.60046 16.8975C6.60046 14.892 6.60046 12.8898 6.60046 10.8842C6.59232 10.7942 6.61236 10.7039 6.6578 10.6257C6.70324 10.5475 6.77184 10.4854 6.85411 10.4479C10.3444 8.46382 13.8301 6.45714 17.3114 4.42791C17.3854 4.37503 17.4741 4.34659 17.565 4.34659C17.656 4.34659 17.7447 4.37503 17.8187 4.42791C21.3112 6.45714 24.806 8.47509 28.303 10.4818C28.3799 10.5195 28.4432 10.58 28.4843 10.6551C28.5255 10.7302 28.5425 10.8161 28.533 10.9011C28.533 14.9303 28.533 18.9594 28.533 22.9886C28.5403 23.0768 28.5206 23.1651 28.4765 23.2418C28.4324 23.3185 28.366 23.38 28.2861 23.4181ZM11.616 15.5278C11.616 14.8514 11.4266 14.4591 10.8145 14.175C10.0671 13.8165 9.36697 13.3565 8.61277 12.9202C8.60158 12.9612 8.59366 13.0031 8.5891 13.0454C8.5891 16.0046 8.5891 18.9639 8.5891 21.9232C8.59811 21.9877 8.6209 22.0494 8.65592 22.1043C8.69093 22.1592 8.73735 22.2058 8.79202 22.2411C9.64092 22.7484 10.5 23.2388 11.359 23.7326C11.4337 23.7677 11.5105 23.7982 11.589 23.8239V23.3843C11.5957 20.7666 11.5653 18.1455 11.616 15.5278ZM12.8336 12.7883C14.1864 12.0037 15.5392 11.2236 16.892 10.4479L20.6123 8.30711C19.6585 7.75584 18.7521 7.24177 17.8593 6.70741C17.7858 6.65481 17.6977 6.62653 17.6073 6.62653C17.517 6.62653 17.4288 6.65481 17.3554 6.70741C14.8662 8.14139 12.3894 9.56862 9.92501 10.9891C9.82693 11.0466 9.73561 11.1108 9.60371 11.1954C10.5473 11.7399 11.4503 12.2573 12.3466 12.7883C12.4166 12.8415 12.5021 12.8703 12.5901 12.8703C12.678 12.8703 12.7635 12.8415 12.8336 12.7883ZM16.5775 25.3966C16.5775 22.8634 16.5775 20.3235 16.5775 17.8039C16.5808 17.7381 16.5704 17.6722 16.5472 17.6106C16.5239 17.5489 16.4882 17.4927 16.4422 17.4454C15.5189 16.8941 14.5855 16.3631 13.6081 15.7983C13.5959 15.8802 13.588 15.9626 13.5844 16.0452C13.5844 18.9493 13.5844 21.8545 13.5844 24.7608C13.5794 24.8411 13.5995 24.9211 13.6419 24.9895C13.6843 25.058 13.747 25.1116 13.8211 25.1429C14.6633 25.6198 15.5121 26.1068 16.334 26.5905C16.4084 26.631 16.4862 26.6615 16.591 26.7122L16.5775 25.3966ZM17.8661 15.636C20.318 14.2088 22.7802 12.7951 25.2355 11.3746C25.3268 11.3239 25.4148 11.2596 25.5399 11.1785C24.6098 10.6407 23.7136 10.13 22.8343 9.60582C22.7574 9.54898 22.6644 9.5183 22.5688 9.5183C22.4732 9.5183 22.3801 9.54898 22.3033 9.60582C20.7577 10.5122 19.202 11.4051 17.6496 12.3115C16.635 12.8966 15.6204 13.4749 14.5787 14.0836C15.5155 14.6248 16.405 15.1253 17.2843 15.6529C17.3717 15.7096 17.4743 15.7381 17.5784 15.7345C17.6825 15.7309 17.7829 15.6953 17.8661 15.6326V15.636ZM26.5545 21.8319C26.5545 18.9707 26.5545 16.1095 26.5545 13.2483V12.9101L26.3144 13.0285C23.8004 14.4872 21.2853 15.9404 18.7691 17.3879C18.6972 17.4231 18.6381 17.4798 18.6 17.5501C18.5618 17.6204 18.5464 17.7008 18.556 17.7802C18.556 20.673 18.556 23.5658 18.556 26.4586C18.5605 26.5424 18.5696 26.6259 18.583 26.7088C18.6354 26.6874 18.6862 26.6625 18.7352 26.6344C21.265 25.1734 23.797 23.7078 26.3313 22.2378C26.4052 22.2006 26.466 22.1419 26.5059 22.0695C26.5457 21.997 26.5627 21.9142 26.5545 21.8319ZM28.4721 7.57659L32.5069 3.54181V5.95659H34.455V0.0583064H28.5533V2.01313H31.0966L26.9908 6.09864L28.4721 7.57659Z" fill="url(#paint0_linear_6899_62098)"/>
</g>
<defs>
<linearGradient id="paint0_linear_6899_62098" x1="28.132" y1="0.0312413" x2="-1.55075" y2="7.54702" gradientUnits="userSpaceOnUse">
<stop stop-color="#AC2121"/>
<stop offset="1" stop-color="#E9000E"/>
</linearGradient>
<clipPath id="clip0_6899_62098">
<rect width="33.8205" height="33.8205" fill="white" transform="translate(0.658203 0.03125)"/>
</clipPath>
</defs>
</svg>
