<svg width="34" height="34" viewBox="0 0 34 34" fill="none" xmlns="http://www.w3.org/2000/svg">
<g id="carrier.svg" clip-path="url(#clip0_6899_62106)">
<path id="Vector" d="M33.9103 16.0718C33.9309 15.3958 33.8129 14.7226 33.5636 14.0939C33.3142 13.4651 32.9387 12.8941 32.4602 12.416C31.9818 11.9378 31.4105 11.5627 30.7816 11.3138C30.1527 11.0648 29.4795 10.9472 28.8034 10.9683H21.877V5.02271H0.0898438V26.8268C1.36487 26.8268 2.64329 26.8268 3.91832 26.8268C4.00713 26.8147 4.09738 26.8337 4.1738 26.8806C4.25021 26.9274 4.30811 26.9992 4.33769 27.0838C4.56094 27.6049 4.935 28.0473 5.41174 28.3541C5.88849 28.6609 6.44611 28.818 7.01289 28.8052C7.5848 28.822 8.14855 28.6665 8.631 28.359C9.11346 28.0514 9.49235 27.606 9.71853 27.0804C9.74322 26.9999 9.79524 26.9304 9.86562 26.8841C9.936 26.8378 10.0203 26.8175 10.1041 26.8268C14.7037 26.8268 19.3032 26.8268 23.9028 26.8268C23.9815 26.8157 24.0616 26.8327 24.129 26.8747C24.1964 26.9168 24.2468 26.9812 24.2715 27.0567C24.5027 27.5803 24.8807 28.0257 25.3596 28.3391C25.8386 28.6525 26.3981 28.8204 26.9705 28.8225C27.5429 28.8247 28.1037 28.661 28.585 28.3512C29.0663 28.0414 29.4476 27.5989 29.6827 27.077C29.7093 26.9972 29.7623 26.9288 29.8331 26.8833C29.9038 26.8378 29.988 26.8178 30.0717 26.8268C31.2385 26.8268 32.4053 26.8268 33.5721 26.8268H33.9103V16.0718ZM7.01289 26.8234C6.819 26.8187 6.63075 26.7572 6.47146 26.6465C6.31218 26.5359 6.18888 26.3809 6.11683 26.2008C6.04478 26.0208 6.02716 25.8235 6.06614 25.6335C6.10513 25.4435 6.19901 25.2692 6.33615 25.132C6.4733 24.9949 6.64767 24.901 6.83766 24.862C7.02765 24.823 7.2249 24.8406 7.40497 24.9127C7.58504 24.9847 7.74001 25.108 7.85067 25.2673C7.96133 25.4266 8.02281 25.6149 8.0275 25.8088C8.0275 26.0778 7.92061 26.3359 7.73033 26.5262C7.54005 26.7165 7.28198 26.8234 7.01289 26.8234ZM19.8816 24.8449H19.5434C16.4184 24.8449 13.2933 24.8449 10.1683 24.8449C10.0693 24.8582 9.96875 24.8368 9.88368 24.7844C9.79862 24.732 9.73429 24.6518 9.70162 24.5574C9.47329 24.0359 9.09286 23.5955 8.61012 23.2938C8.12737 22.9921 7.56478 22.8431 6.99598 22.8664C6.43577 22.8538 5.88444 23.0078 5.41182 23.3089C4.93919 23.6099 4.56655 24.0444 4.34107 24.5574C4.30823 24.6522 4.24324 24.7325 4.15737 24.7844C4.0715 24.8363 3.97017 24.8565 3.87097 24.8415C3.28249 24.8415 2.69064 24.8415 2.07849 24.8415V7.02149H19.8816V24.8449ZM26.9839 26.8234C26.7882 26.8267 26.596 26.7719 26.4314 26.6661C26.2668 26.5603 26.1372 26.4081 26.0589 26.2287C25.9807 26.0494 25.9573 25.8509 25.9918 25.6582C26.0262 25.4656 26.1169 25.2875 26.2524 25.1463C26.3879 25.0052 26.5622 24.9073 26.7533 24.865C26.9443 24.8228 27.1436 24.838 27.326 24.9089C27.5084 24.9797 27.6658 25.103 27.7782 25.2631C27.8907 25.4233 27.9532 25.6131 27.9579 25.8088C27.9582 26.0698 27.8578 26.321 27.6777 26.51C27.4975 26.6989 27.2514 26.8112 26.9906 26.8234H26.9839ZM31.9014 24.8415C31.225 24.8415 30.5485 24.8415 29.8721 24.8415C29.8045 24.8415 29.7166 24.74 29.6794 24.6656C29.4595 24.1254 29.0801 23.6651 28.5919 23.346C28.1036 23.027 27.5297 22.8644 26.9467 22.8799C25.6716 22.8799 24.7652 23.5259 24.214 24.6758C24.1899 24.7184 24.1569 24.7553 24.1172 24.7839C24.0775 24.8125 24.032 24.8322 23.984 24.8415C23.3076 24.8415 22.6007 24.8415 21.8871 24.8415V12.9671H23.9705V18.8857H31.8845L31.9014 24.8415ZM31.9014 16.8903H25.9963V12.9502C26.3886 12.9502 26.7708 12.9502 27.1496 12.9502C27.9292 12.9286 28.7095 12.9512 29.4866 13.0179C30.1333 13.1201 30.726 13.4393 31.1673 13.923C31.6086 14.4067 31.8723 15.0262 31.9149 15.6795C31.9453 16.0752 31.9183 16.4743 31.9183 16.8903H31.9014ZM6.01857 20.8541H4.07728V10.9853H6.01857V20.8541ZM9.97556 20.8541H8.03427V10.9853H9.97556V20.8541ZM13.9461 20.8541H12.0014V10.9853H13.9562L13.9461 20.8541ZM17.9065 20.8541H15.9652V10.9853H17.9065V20.8541Z" fill="url(#paint0_linear_6899_62106)"/>
</g>
<defs>
<linearGradient id="paint0_linear_6899_62106" x1="27.5655" y1="5.0227" x2="-0.401221" y2="15.0861" gradientUnits="userSpaceOnUse">
<stop stop-color="#AC2121"/>
<stop offset="1" stop-color="#E9000E"/>
</linearGradient>
<clipPath id="clip0_6899_62106">
<rect width="33.8205" height="33.8205" fill="white" transform="translate(0.0898438 0.000244141)"/>
</clipPath>
</defs>
</svg>
