<svg width="35" height="34" viewBox="0 0 35 34" fill="none" xmlns="http://www.w3.org/2000/svg">
<g id="express-parcel.svg" clip-path="url(#clip0_6899_62113)">
<path id="Vector" d="M9.94458 4.77588V29.2416H34.4103V4.77588H9.94458ZM20.2497 6.636H24.0511V13.2986H20.2497V6.636ZM32.5502 27.3747H11.8081V6.63939H18.3895V15.152H25.9078V6.63262H32.5502V27.3747ZM22.6712 26.4108H31.5761V21.7774H22.6712V26.4108ZM24.528 23.6274H29.7363V24.5676H24.528V23.6274ZM12.7652 24.5879H14.5915V26.4142H12.7652V24.5879ZM15.5723 24.5879H17.3918V26.4142H15.5858L15.5723 24.5879ZM18.3862 24.5879H20.2125V26.4074H18.3862V24.5879ZM0.589844 11.9661H8.20621V13.9277H0.589844V11.9661ZM1.69239 16.0246H8.20621V17.9861H1.69239V16.0246ZM2.90654 20.083H8.20621V22.0446H2.90654V20.083Z" fill="url(#paint0_linear_6899_62113)"/>
</g>
<defs>
<linearGradient id="paint0_linear_6899_62113" x1="28.0636" y1="4.77587" x2="-0.0747998" y2="14.6249" gradientUnits="userSpaceOnUse">
<stop stop-color="#AC2121"/>
<stop offset="1" stop-color="#E9000E"/>
</linearGradient>
<clipPath id="clip0_6899_62113">
<rect width="33.8205" height="33.8205" fill="white" transform="translate(0.589844)"/>
</clipPath>
</defs>
</svg>
