<svg width="34" height="34" viewBox="0 0 34 34" fill="none" xmlns="http://www.w3.org/2000/svg">
<g id="enterprise.svg" clip-path="url(#clip0_6899_62149)">
<g id="Group">
<g id="Group_2">
<path id="Vector" d="M30.2524 15.8667L18.0094 9.50848V1.01955C18.0094 0.647522 17.8065 0.343138 17.5021 0.174035C17.1977 0.00493298 16.8257 0.00493298 16.5213 0.207856L3.73716 8.15566C3.43277 8.32476 3.26367 8.66297 3.26367 9.00117V32.8108C3.26367 33.3519 3.70334 33.7916 4.24446 33.7916H17.0286H29.8127C30.3539 33.7916 30.7935 33.3519 30.7935 32.8108V16.7461C30.7935 16.374 30.5906 16.0358 30.2524 15.8667ZM5.22526 29.5978H13.748V27.6362H5.22526V25.4041H13.748V23.4425H5.22526V21.2104H13.748V19.2488H5.22526V17.0166H13.748V15.055H5.22526V12.8229H13.748V10.8613H5.22526V9.50848L16.0478 2.77821V10.0834V31.7962H5.22526V29.5978ZM28.8319 31.83H18.0094V29.5978H26.5321V27.6362H18.0094V25.4041H26.5321V23.4425H18.0094V21.2104H26.5321V19.2488H18.0094V11.7068L28.8319 17.321V31.83Z" fill="url(#paint0_linear_6899_62149)"/>
</g>
</g>
</g>
<defs>
<linearGradient id="paint0_linear_6899_62149" x1="25.6273" y1="0.0511388" x2="0.968999" y2="5.14547" gradientUnits="userSpaceOnUse">
<stop stop-color="#AC2121"/>
<stop offset="1" stop-color="#E9000E"/>
</linearGradient>
<clipPath id="clip0_6899_62149">
<rect width="33.8205" height="33.8205" fill="white" transform="translate(0.117188 0.00439453)"/>
</clipPath>
</defs>
</svg>
