<svg width="34" height="34" viewBox="0 0 34 34" fill="none" xmlns="http://www.w3.org/2000/svg">
<g id="marketplace.svg" clip-path="url(#clip0_6899_62120)">
<path id="Vector" d="M0.912109 0.000244141V0.365505C0.912109 8.73945 0.912109 17.1111 0.912109 25.4806C0.912109 27.1716 1.84555 28.4027 3.37086 28.7578C3.68349 28.822 4.00208 28.8526 4.32121 28.8491C6.68864 28.8491 9.05607 28.8491 11.4235 28.8491H11.8294V31.8151H7.86898V33.8207H25.7938V31.8422H21.8402V28.8525H22.2359C24.7454 28.8525 27.2582 28.8525 29.7711 28.8525C31.4317 28.8525 32.6966 27.8615 33.0212 26.3126C33.0727 26.0304 33.0954 25.7437 33.0889 25.4569C33.0889 17.0965 33.0889 8.73607 33.0889 0.375651V0.000244141H0.912109ZM24.485 1.97874H26.7577C26.7715 2.06271 26.7806 2.1474 26.7848 2.23239C26.7848 4.62012 26.7848 7.00784 26.7848 9.39557C26.7966 9.68233 26.7014 9.96324 26.5176 10.1837C26.3339 10.4042 26.0747 10.5485 25.7905 10.5885C25.5063 10.6286 25.2174 10.5616 24.9798 10.4005C24.7423 10.2394 24.5732 9.99572 24.5053 9.71686C24.4822 9.62165 24.4708 9.52397 24.4714 9.426C24.4714 7.01348 24.4714 4.60321 24.4714 2.19519C24.4681 2.13093 24.4782 2.06667 24.485 1.97874ZM20.1593 2.36768V1.97874H22.449C22.4639 2.06151 22.4741 2.14507 22.4794 2.22901C22.4794 4.60546 22.4794 6.98191 22.4794 9.35836C22.4906 9.54062 22.4587 9.72294 22.3864 9.89059C22.314 10.0582 22.2033 10.2065 22.063 10.3234C21.9227 10.4403 21.7569 10.5225 21.5789 10.5635C21.401 10.6044 21.2159 10.6029 21.0387 10.559C20.7848 10.5006 20.5589 10.3562 20.3993 10.1504C20.2397 9.94451 20.1561 9.6898 20.1627 9.42939C20.1627 8.5602 20.1627 7.69102 20.1627 6.82183L20.1593 2.36768ZM21.316 12.5916C22.1161 12.5903 22.8859 12.2857 23.4704 11.7393C24.0555 12.2868 24.8268 12.5915 25.6281 12.5916C26.4264 12.5949 27.1954 12.291 27.7757 11.7427C28.2116 12.1439 28.7502 12.4167 29.3316 12.5307C29.913 12.6447 30.5146 12.5955 31.0698 12.3887V22.846H28.442V14.6005H19.4998V22.8426H2.93119V12.4326C3.30379 12.5086 3.68125 12.5583 4.06079 12.5815C4.45152 12.5545 4.84012 12.5025 5.22422 12.4259V18.8518H15.8405V12.3819C16.3991 12.5916 17.005 12.6422 17.5907 12.5282C18.1764 12.4141 18.719 12.1399 19.1582 11.7359C19.743 12.284 20.5145 12.5888 21.316 12.5882V12.5916ZM26.4296 16.5959V22.8527H21.5121V16.5959H26.4296ZM15.8506 1.99227H18.1402C18.1402 2.11064 18.1572 2.21887 18.1572 2.33047C18.1572 4.65056 18.1572 6.97177 18.1572 9.2941C18.1572 10.0145 17.802 10.4744 17.1831 10.5827C16.8933 10.6331 16.5951 10.5699 16.3507 10.4061C16.1063 10.2423 15.9344 9.99061 15.8709 9.70333C15.8461 9.59231 15.8336 9.47889 15.8337 9.36513C15.8337 6.96613 15.8337 4.56826 15.8337 2.17152C15.8356 2.11147 15.8412 2.0516 15.8506 1.99227ZM11.5283 2.07344C11.5347 2.04403 11.5449 2.01559 11.5588 1.98889H13.818C13.8291 2.0685 13.8359 2.14866 13.8383 2.22901C13.8383 4.61335 13.8383 7.00108 13.8383 9.3888C13.8479 9.56805 13.8153 9.74706 13.7431 9.91141C13.6709 10.0758 13.5612 10.2209 13.4226 10.335C13.2841 10.4492 13.1207 10.5293 12.9456 10.5688C12.7705 10.6082 12.5886 10.6061 12.4144 10.5624C12.1692 10.5094 11.9489 10.3756 11.7888 10.1824C11.6287 9.9892 11.5382 9.74783 11.5317 9.49703C11.5182 7.02475 11.525 4.5491 11.5283 2.07344ZM13.8248 12.3853V16.8834H7.23315V12.3887C7.78847 12.5948 8.38991 12.6435 8.97117 12.5295C9.55242 12.4155 10.0909 12.1433 10.5273 11.7427C10.9641 12.1437 11.5033 12.4159 12.0853 12.5293C12.6673 12.6427 13.2693 12.5929 13.8248 12.3853ZM7.22977 1.9855H9.50589C9.51843 2.05934 9.52634 2.13389 9.52956 2.20872C9.52956 4.60546 9.52956 7.00446 9.52956 9.40571C9.53854 9.68914 9.44309 9.966 9.26134 10.1837C9.0796 10.4014 8.82422 10.5447 8.54373 10.5864C8.26324 10.6282 7.9772 10.5654 7.73994 10.4101C7.50269 10.2548 7.33076 10.0177 7.25683 9.74392C7.2287 9.63342 7.21506 9.51973 7.21624 9.40571V2.15461C7.21624 2.11064 7.22301 2.06667 7.22977 1.9855ZM2.90413 2.36768V1.98889H5.21069C5.21069 2.0802 5.21069 2.15461 5.21069 2.22901C5.21069 4.60321 5.21069 6.97853 5.21069 9.35498C5.22284 9.53742 5.19182 9.72016 5.12014 9.88837C5.04846 10.0566 4.93815 10.2055 4.79814 10.3231C4.65814 10.4407 4.49238 10.5237 4.31433 10.5652C4.13627 10.6068 3.95092 10.6058 3.77332 10.5624C3.51356 10.5024 3.28315 10.353 3.12241 10.1403C2.96166 9.92764 2.88081 9.66522 2.89399 9.39895C2.89399 8.222 2.89399 7.03152 2.89399 5.86809L2.90413 2.36768ZM19.8144 31.8118H13.8586V28.8761H19.7975L19.8144 31.8118ZM31.0529 25.971C31.0143 26.1838 30.9107 26.3795 30.7562 26.5309C30.6017 26.6824 30.4041 26.7821 30.1905 26.8165C30.0289 26.847 29.8645 26.8606 29.7001 26.8571C21.2382 26.8571 12.7831 26.8571 4.33474 26.8571C3.76317 26.8571 3.2491 26.7184 3.04618 26.1468C2.94708 25.7289 2.89378 25.3013 2.88722 24.8718H31.0935C31.1127 25.2387 31.0992 25.6065 31.0529 25.971ZM31.0935 9.38204C31.1041 9.56148 31.0723 9.74089 31.0008 9.9058C30.9293 10.0707 30.82 10.2165 30.6817 10.3314C30.5434 10.4462 30.3801 10.527 30.2049 10.5671C30.0297 10.6073 29.8475 10.6056 29.673 10.5624C29.4224 10.5091 29.1975 10.3717 29.0357 10.173C28.8739 9.9743 28.7849 9.72622 28.7835 9.46997C28.7835 7.00784 28.7835 4.54233 28.7835 2.07682C28.7904 2.04538 28.8006 2.01477 28.814 1.9855H31.0766C31.0887 2.05258 31.0966 2.12036 31.1002 2.18843C31.0969 4.5863 31.1002 6.98417 31.0935 9.38204Z" fill="url(#paint0_linear_6899_62120)"/>
</g>
<defs>
<linearGradient id="paint0_linear_6899_62120" x1="27.0516" y1="0.000235429" x2="-1.35175" y2="6.84276" gradientUnits="userSpaceOnUse">
<stop stop-color="#AC2121"/>
<stop offset="1" stop-color="#E9000E"/>
</linearGradient>
<clipPath id="clip0_6899_62120">
<rect width="33.8205" height="33.8205" fill="white" transform="translate(0.0898438 0.00012207)"/>
</clipPath>
</defs>
</svg>
