<svg width="35" height="34" viewBox="0 0 35 34" fill="none" xmlns="http://www.w3.org/2000/svg">
<g id="product.svg" clip-path="url(#clip0_6899_62126)">
<path id="Vector" d="M30.141 21.6076H34.3855C34.3178 21.5062 34.2874 21.4521 34.2502 21.4013C32.7553 19.3721 31.2571 17.3429 29.7555 15.3137C29.702 15.2562 29.6378 15.2099 29.5664 15.1774C29.495 15.1449 29.4179 15.1269 29.3395 15.1243C28.6428 15.1243 27.9427 15.1243 27.1919 15.1243L28.3249 13.1897C27.6484 12.6723 27.0498 12.1481 26.3903 11.6949C26.1689 11.5804 25.9888 11.3995 25.8754 11.1775C25.762 10.9555 25.7209 10.7036 25.7579 10.457C25.7547 10.3333 25.7798 10.2104 25.8314 10.0979C25.883 9.98532 25.9597 9.88606 26.0555 9.80769C26.8131 9.24627 27.5504 8.65441 28.3113 8.05917C27.246 6.20581 26.1942 4.39641 25.1356 2.5532C24.1852 2.93875 23.2721 3.31416 22.3522 3.67942C22.2462 3.7281 22.1264 3.73769 22.014 3.70648C21.1854 3.34798 21.1143 3.24314 20.9993 2.33337C20.9977 2.32329 20.9977 2.31301 20.9993 2.30293C20.8911 1.53182 20.7795 0.764098 20.6611 -0.000244141H14.33C14.1981 0.963639 14.0662 1.91061 13.9343 2.85758C13.914 2.9861 13.9072 3.16197 13.8226 3.22284C13.5564 3.43401 13.2585 3.6018 12.9399 3.72001C12.7708 3.77074 12.5307 3.62193 12.3278 3.54076C11.5161 3.20255 10.7044 2.88464 9.87918 2.54982L6.70682 8.05241C7.38323 8.58677 8.02582 9.11775 8.70223 9.59124C8.89821 9.70356 9.05725 9.8705 9.15995 10.0717C9.26265 10.2729 9.30456 10.4996 9.28056 10.7242C9.28233 10.8761 9.24688 11.0261 9.17732 11.1611C9.10775 11.2961 9.00618 11.412 8.88148 11.4987C8.15096 12.0432 7.44073 12.6114 6.70682 13.1897C7.07547 13.8357 7.43396 14.4546 7.81275 15.1141C7.07547 15.1141 6.40244 15.1141 5.72941 15.1141C5.62807 15.1038 5.52585 15.122 5.43438 15.1669C5.34291 15.2117 5.26585 15.2813 5.21196 15.3678C3.75317 17.3542 2.291 19.3338 0.825445 21.3066L0.619141 21.6076H4.90757V21.9458C4.90757 25.8014 4.90757 29.6558 4.90757 33.5091C4.90757 33.6071 4.90757 33.7052 4.88728 33.8033H30.1343C30.1343 33.7255 30.1106 33.6511 30.1106 33.5733V21.8951C30.1158 21.7988 30.1259 21.7029 30.141 21.6076ZM10.7382 5.04239C11.3842 5.3028 12.0268 5.5294 12.6389 5.81687C12.7982 5.90765 12.9821 5.94574 13.1643 5.92569C13.3466 5.90565 13.5178 5.8285 13.6535 5.70527C14.2108 5.33562 14.7966 5.01103 15.4054 4.73462C15.5948 4.63654 15.7132 4.55537 15.7436 4.31525C15.8282 3.54076 15.9533 2.76965 16.0819 1.99178H18.9566C19.0682 2.78656 19.19 3.56781 19.2948 4.35921C19.2983 4.43796 19.3273 4.51345 19.3772 4.57441C19.4272 4.63537 19.4956 4.67852 19.5721 4.69742C20.3126 4.97163 20.9994 5.3734 21.6014 5.88451C21.6632 5.94434 21.7427 5.98259 21.828 5.99356C21.9133 6.00453 21.9999 5.98763 22.0748 5.94539C22.7952 5.64101 23.519 5.35353 24.2765 5.04915C24.7568 5.88451 25.2337 6.70635 25.7241 7.55525C25.1153 8.03211 24.5268 8.50898 23.9181 8.95541C23.8211 9.0212 23.7455 9.11384 23.7004 9.22197C23.6554 9.3301 23.6429 9.44903 23.6644 9.56418C23.7016 10.2751 23.7016 10.9874 23.6644 11.6983C23.6442 11.8129 23.6585 11.931 23.7055 12.0376C23.7524 12.1442 23.8299 12.2344 23.9282 12.2969C24.5302 12.7399 25.1119 13.2134 25.7308 13.697C25.4738 14.1435 25.237 14.5628 24.9868 14.9755C24.9257 15.0446 24.8438 15.0921 24.7534 15.1107C24.667 15.1226 24.5794 15.1226 24.493 15.1107C19.8122 15.1107 15.1315 15.1107 10.4507 15.1107C10.3448 15.1275 10.2362 15.1083 10.1425 15.0562C10.0487 15.0041 9.97504 14.9221 9.93329 14.8233C9.7439 14.4411 9.51392 14.0758 9.28732 13.6869C9.90624 13.2033 10.5082 12.723 11.1238 12.2664C11.216 12.2099 11.2871 12.1248 11.3262 12.0239C11.3653 11.9231 11.3702 11.8123 11.3402 11.7084C11.1999 10.9812 11.1999 10.2339 11.3402 9.50669C11.3688 9.40268 11.3621 9.29211 11.3211 9.19234C11.2801 9.09256 11.2071 9.00923 11.1136 8.95541C10.5049 8.50222 9.913 8.02873 9.28394 7.53834L10.7382 5.04239ZM4.57613 19.6156C4.64039 19.5108 4.67421 19.4364 4.72156 19.3687C5.22887 18.6923 5.73618 17.9821 6.25701 17.3023C6.30087 17.2454 6.35589 17.198 6.4187 17.1631C6.48151 17.1282 6.55078 17.1065 6.62227 17.0994C11.0302 17.0994 15.437 17.0994 19.8427 17.0994C19.8731 17.0994 19.9069 17.0994 20.0016 17.1197C19.3895 17.9449 18.8179 18.7363 18.2227 19.5142C18.1124 19.5944 17.9761 19.6305 17.8405 19.6156C14.4382 19.6156 11.0347 19.6156 7.63012 19.6156H4.57613ZM20.9723 31.791H6.90636V21.611H7.30206C11.135 21.611 14.968 21.611 18.801 21.611C18.9136 21.6209 19.0267 21.5992 19.1276 21.5484C19.2286 21.4977 19.3134 21.4198 19.3726 21.3236C19.8156 20.6945 20.2824 20.0823 20.7254 19.4634C20.7897 19.3789 20.8573 19.2977 20.9621 19.1658L20.9723 31.791ZM28.105 31.791H23.0015V19.1658C23.5393 19.8929 24.0398 20.5423 24.5065 21.2187C24.5829 21.3535 24.6967 21.4632 24.8342 21.5346C24.9716 21.606 25.1268 21.6361 25.281 21.6212C26.0927 21.5874 26.9112 21.6212 27.7229 21.6212H28.1016L28.105 31.791ZM26.0758 19.6156C25.9898 19.6227 25.9035 19.6063 25.826 19.5682C25.7486 19.5301 25.683 19.4717 25.6361 19.3992C25.0916 18.6416 24.5336 17.8942 23.9451 17.0994C24.0669 17.0994 24.1379 17.0994 24.2089 17.0994C25.5854 17.0994 26.9619 17.0994 28.3384 17.0994C28.4056 17.0976 28.4726 17.1093 28.5353 17.1337C28.598 17.1581 28.6552 17.1947 28.7036 17.2414C29.282 18.0024 29.8468 18.7769 30.4522 19.6089C30.3067 19.6089 30.2222 19.6291 30.1376 19.6291C28.7916 19.6156 27.4388 19.6156 26.0826 19.6325L26.0758 19.6156Z" fill="url(#paint0_linear_6899_62126)"/>
<path id="Vector_2" d="M17.502 13.9914C17.9481 13.9982 18.3909 13.9154 18.8043 13.7479C19.2178 13.5804 19.5933 13.3315 19.9087 13.0161C20.2242 12.7006 20.473 12.3251 20.6406 11.9117C20.8081 11.4982 20.8909 11.0554 20.8841 10.6094C20.8856 10.1652 20.7997 9.72513 20.6312 9.3142C20.4626 8.90328 20.2148 8.52957 19.9019 8.21442C19.5889 7.89927 19.2169 7.64885 18.8072 7.47745C18.3975 7.30605 17.958 7.21703 17.5139 7.21547C17.0697 7.21392 16.6296 7.29986 16.2187 7.46839C15.8078 7.63692 15.4341 7.88473 15.1189 8.19768C14.4825 8.82972 14.1231 9.68871 14.12 10.5857C14.1099 11.0337 14.1903 11.4791 14.3564 11.8953C14.5225 12.3115 14.7709 12.6899 15.0867 13.0079C15.4024 13.3258 15.7791 13.5768 16.1941 13.7458C16.6091 13.9148 17.054 13.9983 17.502 13.9914ZM17.502 9.23286C17.6868 9.22632 17.871 9.25772 18.0431 9.32513C18.2153 9.39253 18.3718 9.49452 18.503 9.62478C18.6342 9.75504 18.7373 9.91081 18.806 10.0825C18.8747 10.2541 18.9074 10.4381 18.9022 10.6229C18.9022 10.9924 18.7554 11.3469 18.4941 11.6082C18.2328 11.8695 17.8783 12.0163 17.5088 12.0163C17.1392 12.0163 16.7848 11.8695 16.5235 11.6082C16.2622 11.3469 16.1154 10.9924 16.1154 10.6229C16.1103 10.4392 16.1426 10.2565 16.2105 10.0858C16.2783 9.91502 16.3802 9.75989 16.5099 9.62983C16.6397 9.49976 16.7946 9.39749 16.9651 9.32924C17.1357 9.26099 17.3184 9.2282 17.502 9.23286Z" fill="url(#paint1_linear_6899_62126)"/>
</g>
<defs>
<linearGradient id="paint0_linear_6899_62126" x1="28.049" y1="-0.000252848" x2="-1.5902" y2="7.49623" gradientUnits="userSpaceOnUse">
<stop stop-color="#AC2121"/>
<stop offset="1" stop-color="#E9000E"/>
</linearGradient>
<linearGradient id="paint1_linear_6899_62126" x1="19.6149" y1="7.21545" x2="13.6761" y2="8.71673" gradientUnits="userSpaceOnUse">
<stop stop-color="#AC2121"/>
<stop offset="1" stop-color="#E9000E"/>
</linearGradient>
<clipPath id="clip0_6899_62126">
<rect width="33.8205" height="33.8205" fill="white" transform="translate(0.589844 -0.00012207)"/>
</clipPath>
</defs>
</svg>
