<svg width="34" height="34" viewBox="0 0 34 34" fill="none" xmlns="http://www.w3.org/2000/svg">
<g id="enterprise.svg" clip-path="url(#clip0_6899_62133)">
<g id="Group">
<g id="Group_2">
<path id="Vector" d="M30.2231 15.8622L17.9801 9.50396V1.01503C17.9801 0.643005 17.7772 0.338621 17.4728 0.169519C17.1684 0.00041638 16.7964 0.00041638 16.492 0.203339L3.70786 8.15115C3.40348 8.32025 3.23438 8.65845 3.23438 8.99666V32.8063C3.23438 33.3474 3.67404 33.787 4.21517 33.787H16.9993H29.7834C30.3246 33.787 30.7642 33.3474 30.7642 32.8063V16.7415C30.7642 16.3695 30.5613 16.0313 30.2231 15.8622ZM5.19596 29.5933H13.7187V27.6317H5.19596V25.3996H13.7187V23.438H5.19596V21.2058H13.7187V19.2443H5.19596V17.0121H13.7187V15.0505H5.19596V12.8184H13.7187V10.8568H5.19596V9.50396L16.0185 2.77369V10.0789V31.7916H5.19596V29.5933ZM28.8026 31.8255H17.9801V29.5933H26.5028V27.6317H17.9801V25.3996H26.5028V23.438H17.9801V21.2058H26.5028V19.2443H17.9801V11.7023L28.8026 17.3165V31.8255Z" fill="url(#paint0_linear_6899_62133)"/>
</g>
</g>
</g>
<defs>
<linearGradient id="paint0_linear_6899_62133" x1="25.598" y1="0.0466222" x2="0.939702" y2="5.14095" gradientUnits="userSpaceOnUse">
<stop stop-color="#AC2121"/>
<stop offset="1" stop-color="#E9000E"/>
</linearGradient>
<clipPath id="clip0_6899_62133">
<rect width="33.8205" height="33.8205" fill="white" transform="translate(0.0898438 0.000244141)"/>
</clipPath>
</defs>
</svg>
