<svg width="35" height="36" viewBox="0 0 35 36" fill="none" xmlns="http://www.w3.org/2000/svg">
<g id="faq-assistant.svg" clip-path="url(#clip0_6899_62282)">
<g id="Clip path group">
<mask id="mask0_6899_62282" style="mask-type:luminance" maskUnits="userSpaceOnUse" x="0" y="0" width="35" height="36">
<g id="0z7jgi03va">
<path id="Vector" d="M35 0.701172H0V35.7012H35V0.701172Z" fill="white"/>
</g>
</mask>
<g mask="url(#mask0_6899_62282)">
<g id="Group">
<path id="Vector_2" d="M35 18.7012C35 8.76005 26.9411 0.701172 17 0.701172C7.05887 0.701172 -1 8.76005 -1 18.7012C-1 28.6423 7.05887 36.7012 17 36.7012C26.9411 36.7012 35 28.6423 35 18.7012Z" fill="#FDE6E7"/>
<g id="Mask group">
<mask id="mask1_6899_62282" style="mask-type:alpha" maskUnits="userSpaceOnUse" x="-1" y="0" width="36" height="37">
<g id="Group_2">
<path id="Vector_3" d="M-1 18.7012C-1 -2.29881 7.059 0.701188 17 0.701188C26.941 0.701188 35 8.76019 35 18.7012C35 28.6412 26.941 36.7012 17 36.7012C7.059 36.7012 -1 28.6412 -1 18.7012Z" fill="#F5F7FB"/>
</g>
</mask>
<g mask="url(#mask1_6899_62282)">
<g id="Group_3">
<path id="Vector_4" d="M29.228 63.8192C27.864 59.6632 27.33 41.6492 25.612 37.6102C24.252 34.4022 22.615 31.1062 19.497 29.0942C19.257 28.9422 16.844 37.3462 15.769 41.0612C15.239 42.9252 14.592 47.0932 14.726 48.8262C14.983 52.1462 14.055 66.1062 15.515 69.0162C17.089 72.1462 27.808 74.3172 31.445 73.9012C31.796 73.8612 31.445 73.4262 31.445 73.1492C33.98 70.0782 30.613 68.0492 29.228 63.8192Z" fill="#F2666E"/>
<path id="Vector_5" d="M22.3105 33.2582C22.2225 32.2152 22.0425 31.4352 21.3065 30.6372C19.5795 28.7732 17.1875 27.7852 14.9075 26.7602C10.0775 24.5862 5.60554 23.0332 0.278542 24.2762C-5.89946 25.7112 -10.9035 27.9132 -14.6295 33.1612C-23.7995 45.9912 -28.7755 72.8482 -29.9995 77.7302C-30.1605 78.3732 5.60854 78.4232 8.09654 74.9602C8.23654 74.7642 17.7255 53.6802 20.0985 45.6022C21.2415 41.6882 22.6555 37.3922 22.3105 33.2582Z" fill="#F2666E"/>
<path id="Vector_6" d="M17.1621 3.99121C16.1241 3.78921 15.3361 4.21421 14.3721 4.41321C13.6561 4.56421 13.4131 4.52121 13.0361 3.90421C12.6591 3.28821 12.3861 2.71421 11.6061 2.41921C10.5411 2.01221 9.36609 2.28921 8.42809 2.83421C7.42009 3.41421 6.80809 4.35921 5.90309 5.05121C4.35309 6.24121 1.63909 5.90921 0.717092 7.87021C0.145092 9.07421 0.298092 10.5452 0.683092 11.7782C1.14609 13.2672 3.51309 18.8112 4.59609 19.5032C5.20909 20.0832 5.68309 16.1152 6.48609 16.0432C7.77854 15.9043 9.03973 15.5557 10.2201 15.0112C12.3111 14.0852 14.6751 12.6362 14.8581 10.4762C16.1771 9.31921 17.9351 8.38921 18.5631 6.79221C19.0371 5.59521 18.6891 4.29021 17.1621 3.99121Z" fill="#3E465D"/>
<path id="Vector_7" d="M13.1988 19.1442C13.1894 19.0638 13.1639 18.9861 13.1236 18.9158C13.0834 18.8455 13.0294 18.7841 12.9648 18.7352C11.9188 17.9452 11.3768 16.8252 10.1888 16.1532C9.07581 15.5342 8.09981 14.6252 6.92681 14.1862C6.86855 14.1604 6.80553 14.1471 6.74181 14.1471C6.67809 14.1471 6.61508 14.1604 6.55681 14.1862C6.49487 14.1738 6.43107 14.1737 6.3691 14.1861C6.30714 14.1984 6.24824 14.2229 6.19581 14.2582C6.08822 14.3306 6.01266 14.4416 5.98481 14.5682C5.19984 17.8755 4.03301 21.0804 2.50781 24.1182C3.90681 26.5162 7.58081 27.8262 10.0478 26.7912C11.0378 24.4152 12.1138 22.0812 13.2768 19.7862C13.3312 19.6841 13.3529 19.5678 13.339 19.4529C13.325 19.3381 13.2761 19.2303 13.1988 19.1442Z" fill="#F9C4B7"/>
<path id="Vector_8" d="M16.4151 8.28024C15.3191 6.04724 12.5711 5.21324 10.1431 5.54424C7.6431 5.87924 5.0081 7.18624 3.5511 9.22124C2.6391 10.4912 2.1251 12.0982 2.8531 13.5762C3.30183 14.4 3.96802 15.0849 4.7791 15.5562C5.2711 16.9032 5.7771 17.5732 6.5391 18.8162C8.3941 21.8462 13.6451 22.6052 16.4601 20.6512C18.6631 19.1212 17.3911 10.2602 16.4151 8.28024Z" fill="#F9C4B7"/>
<path id="Vector_9" d="M16.5061 7.77523C16.3673 7.57135 16.1999 7.38848 16.0091 7.23223C16.0352 7.18253 16.045 7.12592 16.0373 7.07034C16.0296 7.01475 16.0047 6.96296 15.9661 6.92223C14.7931 5.64523 13.6201 4.64623 11.8831 4.43223C9.98409 4.20123 8.13908 4.90823 6.54808 5.94923C5.11808 6.87723 2.87809 8.22623 2.22709 9.91423C1.64409 11.4342 2.18708 13.3502 3.05308 14.6822C3.59608 15.8322 3.48609 16.4122 4.67609 16.8492C5.86609 17.2872 7.14608 15.8782 7.16008 14.5912C7.18808 12.1842 6.08708 10.4252 8.09608 8.35923C9.01908 7.41623 10.3921 6.98223 11.6461 6.86223C12.9021 6.74223 15.5041 7.13223 16.3451 8.38923C16.5411 8.65923 16.7021 8.07123 16.5051 7.77523H16.5061Z" fill="#3E465D"/>
<path id="Vector_10" d="M12.0998 22.6862C12.0768 22.3362 11.6598 22.3682 11.5578 22.6862C11.1928 23.8432 10.8828 25.6502 8.93484 26.0282C8.79984 26.0522 8.67984 26.1332 8.54784 26.0882C6.27184 25.2942 4.58784 23.1382 4.13484 20.8442C4.12925 20.8059 4.11374 20.7697 4.08984 20.7392C4.05224 20.6925 3.99894 20.6611 3.93988 20.6508C3.88082 20.6405 3.82002 20.652 3.76884 20.6832C3.67384 20.5892 1.57684 22.5992 1.43484 23.4232C1.41284 23.6032 1.43084 23.7862 1.48984 23.9582C2.0838 25.9548 3.30598 27.7066 4.97484 28.9532C5.33984 29.2432 6.61884 30.4842 7.30884 30.3932C7.37959 30.3775 7.44299 30.3384 7.48884 30.2822C7.85384 29.9322 8.42684 28.2472 8.55184 27.8772C8.60984 27.7022 8.66884 27.5272 8.71584 27.3492C8.74584 27.2512 9.24584 28.1142 9.54184 28.6912C10.3158 30.1942 10.6818 30.3552 10.8678 30.2362C12.6798 29.1182 12.2678 25.0282 12.0988 22.6862H12.0998Z" fill="white"/>
<path id="Vector_11" d="M7.91348 15.0982C7.70951 14.4536 7.29278 13.8972 6.73148 13.5202C6.27048 13.1922 5.36648 12.7662 4.94948 13.3502C4.79288 13.6172 4.70019 13.9169 4.67868 14.2257C4.65717 14.5345 4.70741 14.8441 4.82548 15.1302C5.15092 15.7805 5.58518 16.3703 6.10948 16.8742C6.35048 17.1332 6.59648 17.5062 6.99148 17.3632C7.59848 17.1262 7.99448 15.4022 7.91348 15.0982Z" fill="#F9C4B7"/>
<path id="Vector_12" d="M15.1797 12.4732C15.1098 12.3859 15.0578 12.2856 15.0267 12.1782C14.9786 12.0502 14.9565 11.9138 14.9617 11.7772C14.9668 11.6405 14.9991 11.5063 15.0567 11.3822C15.0841 11.3435 15.1189 11.3106 15.1591 11.2854C15.1992 11.2602 15.2439 11.2431 15.2907 11.2352C15.7827 11.1392 16.0607 11.7402 16.0437 12.1602C16.0386 12.293 15.9944 12.4214 15.9167 12.5292C15.6707 12.8682 15.3637 12.7132 15.1787 12.4732H15.1797ZM10.2897 12.4792C10.2231 12.3929 10.1741 12.2944 10.1457 12.1892C10.0534 11.9275 10.0685 11.6398 10.1877 11.3892C10.2473 11.3119 10.3323 11.2581 10.4277 11.2372C10.9237 11.1322 11.1957 11.7292 11.1677 12.1492C11.1635 12.2888 11.1167 12.4239 11.0337 12.5362C10.7867 12.8622 10.4797 12.7142 10.2897 12.4792Z" fill="#361F1B"/>
<path id="Vector_13" d="M17.5867 9.45122C17.3747 9.22322 17.0487 9.03422 16.6467 8.90622C16.2162 8.77372 15.7669 8.71291 15.3167 8.72622C14.9917 8.74622 14.4907 8.83822 14.4297 9.04622C14.4301 9.118 14.4452 9.18893 14.4741 9.25463C14.503 9.32034 14.545 9.37942 14.5977 9.42822C14.7127 9.54622 14.8807 9.64522 15.0857 9.71722C15.5367 9.87722 16.1867 9.77422 16.6777 9.78922C17.1677 9.80422 17.9507 9.79522 17.5867 9.45122ZM12.0317 8.96622C11.2657 8.34522 9.38566 9.05422 9.02966 9.60422C8.87666 9.83422 9.56966 9.81922 9.79566 9.79522C10.3777 9.73322 13.0427 9.80222 12.0317 8.96622Z" fill="#3E465D"/>
<path id="Vector_14" d="M15.0412 16.1892C15.0227 16.1259 14.985 16.07 14.9332 16.0292C14.9102 16.0112 14.8839 15.998 14.8557 15.9903C14.8276 15.9826 14.7982 15.9805 14.7692 15.9842C13.8222 16.0942 12.8702 16.1162 11.9212 16.0532C11.7712 16.0532 11.5252 16.2302 11.6212 16.4442C11.8162 16.8312 12.0862 17.1512 12.4062 17.3742C12.7272 17.5982 13.0872 17.7192 13.4562 17.7242C13.8282 17.7512 14.1982 17.6402 14.5202 17.4062C14.7302 17.2532 14.9082 17.0392 15.0372 16.7822C15.1094 16.5914 15.1109 16.381 15.0412 16.1892Z" fill="white"/>
</g>
</g>
</g>
<path id="Vector_15" d="M21 6.43417C21 4.37217 22.72 2.70117 24.843 2.70117H30.883C33.005 2.70117 34.725 4.37217 34.725 6.43417V10.9682C34.725 13.0302 33.005 14.7012 30.882 14.7012H21V6.43417Z" fill="url(#paint0_linear_6899_62282)"/>
<path id="Vector_16" d="M25.3633 8.70117C25.3633 8.14889 24.9156 7.70117 24.3633 7.70117C23.811 7.70117 23.3633 8.14889 23.3633 8.70117C23.3633 9.25346 23.811 9.70117 24.3633 9.70117C24.9156 9.70117 25.3633 9.25346 25.3633 8.70117Z" fill="white"/>
<path id="Vector_17" d="M28.8633 8.70117C28.8633 8.14889 28.4156 7.70117 27.8633 7.70117C27.311 7.70117 26.8633 8.14889 26.8633 8.70117C26.8633 9.25346 27.311 9.70117 27.8633 9.70117C28.4156 9.70117 28.8633 9.25346 28.8633 8.70117Z" fill="white"/>
<path id="Vector_18" d="M32.3633 8.70117C32.3633 8.14889 31.9156 7.70117 31.3633 7.70117C30.811 7.70117 30.3633 8.14889 30.3633 8.70117C30.3633 9.25346 30.811 9.70117 31.3633 9.70117C31.9156 9.70117 32.3633 9.25346 32.3633 8.70117Z" fill="white"/>
</g>
</g>
</g>
</g>
<defs>
<linearGradient id="paint0_linear_6899_62282" x1="32.1494" y1="2.70117" x2="20.3231" y2="6.12607" gradientUnits="userSpaceOnUse">
<stop stop-color="#AC2121"/>
<stop offset="1" stop-color="#E9000E"/>
</linearGradient>
<clipPath id="clip0_6899_62282">
<rect width="35" height="35" fill="white" transform="translate(0 0.701172)"/>
</clipPath>
</defs>
</svg>
