<svg width="1254" height="596" viewBox="0 0 1254 596" fill="none" xmlns="http://www.w3.org/2000/svg">
    <g opacity="0.2">
     <path d="M351.938 483.657L355.749 491.368L364.261 492.606L358.1 498.612L359.56 507.094L351.938 503.09L344.324 507.094L345.777 498.612L339.615 492.606L348.135 491.368L351.938 483.657Z" fill="#EBEBEB"/>
        <path d="M361.994 475.983L363.565 479.171L367.087 479.683L364.537 482.166L365.137 485.673L361.994 484.013L358.85 485.673L359.45 482.166L356.9 479.683L360.422 479.171L361.994 475.983Z" fill="#EBEBEB"/>
        <path d="M502.607 446.444L505.959 453.228L513.447 454.318L508.027 459.597L509.31 467.056L502.607 463.534L495.912 467.056L497.195 459.597L491.775 454.318L499.264 453.228L502.607 446.444Z" fill="#FF725E"/>
        <path d="M518.586 440.431L520.165 443.627L523.687 444.138L521.136 446.629L521.737 450.144L518.586 448.483L515.427 450.144L516.035 446.629L513.477 444.138L517.006 443.627L518.586 440.431Z" fill="#FF725E"/>
        <path d="M497.645 263.857L500.284 255.656C497.769 250.59 497.005 244.833 498.112 239.287C499.219 233.74 502.135 228.717 506.403 225.006C510.671 221.294 516.05 219.103 521.696 218.775C527.343 218.448 532.939 220.003 537.607 223.197C542.275 226.391 545.751 231.043 547.492 236.425C549.233 241.806 549.139 247.613 547.226 252.936C545.312 258.258 541.687 262.796 536.919 265.838C532.15 268.879 526.507 270.253 520.874 269.744C515.378 269.369 510.176 267.118 506.141 263.367L497.645 263.857Z" fill="#FAFAFA"/>
        <path d="M497.646 263.857L498.21 263.812L499.848 263.694L506.143 263.264C509.264 266.149 513.106 268.137 517.265 269.017C518.549 269.302 519.852 269.488 521.165 269.573L523.241 269.655C523.938 269.655 524.657 269.573 525.376 269.536C531.88 268.946 537.908 265.874 542.207 260.958C544.63 258.227 546.429 255.001 547.479 251.504C548.554 247.768 548.772 243.837 548.116 240.005C547.953 239.019 547.725 238.046 547.434 237.091C547.302 236.607 547.141 236.131 546.952 235.667C546.767 235.193 546.604 234.718 546.403 234.251C545.578 232.365 544.532 230.583 543.289 228.942C542.67 228.124 541.999 227.346 541.28 226.614C540.931 226.241 540.56 225.889 540.168 225.561C539.79 225.228 539.427 224.864 539.026 224.56L537.81 223.656L537.202 223.211L536.55 222.825L535.267 222.084C534.83 221.839 534.37 221.654 533.925 221.431C530.517 219.819 526.791 218.991 523.021 219.009C519.251 219.027 515.534 219.89 512.141 221.535C506.264 224.358 501.699 229.337 499.396 235.437C499.27 235.778 499.151 236.119 499.033 236.453C498.899 236.782 498.792 237.122 498.714 237.469C498.543 238.151 498.38 238.826 498.217 239.485C497.992 240.778 497.839 242.083 497.757 243.393C497.591 247.63 498.483 251.842 500.353 255.649L498.365 261.714L497.839 263.286C497.72 263.642 497.654 263.827 497.654 263.827C497.654 263.827 497.698 263.656 497.809 263.308L498.284 261.751L500.189 255.604V255.664C498.27 251.85 497.342 247.615 497.491 243.348C497.56 242.024 497.706 240.704 497.928 239.397C498.091 238.729 498.262 238.047 498.425 237.358C498.504 237.007 498.608 236.663 498.736 236.327C498.862 235.986 498.981 235.645 499.107 235.296C500.345 231.97 502.26 228.938 504.732 226.39C507.203 223.843 510.176 221.836 513.463 220.497C516.75 219.158 520.279 218.516 523.826 218.612C527.374 218.708 530.863 219.539 534.073 221.053C534.526 221.268 534.993 221.461 535.438 221.713L536.742 222.492L537.395 222.885L538.018 223.337L539.249 224.249C539.656 224.568 540.027 224.931 540.413 225.265C540.808 225.599 541.184 225.956 541.54 226.332C542.268 227.08 542.949 227.872 543.579 228.705C544.846 230.355 545.913 232.15 546.759 234.051C546.96 234.525 547.123 235.015 547.308 235.489C547.505 235.972 547.67 236.468 547.805 236.972C548.098 237.944 548.326 238.935 548.487 239.938C549.157 243.827 548.933 247.818 547.834 251.608C546.781 255.171 544.962 258.461 542.503 261.247C538.139 266.21 532.033 269.305 525.45 269.892C524.709 269.892 523.967 269.996 523.285 269.996L521.187 269.907C519.862 269.814 518.546 269.621 517.25 269.329C513.076 268.415 509.231 266.379 506.128 263.441H506.188L499.833 263.775L498.217 263.849C497.824 263.857 497.646 263.857 497.646 263.857Z" fill="#263238"/>
        <path d="M508.671 243.348L512.875 239.701L519.955 246.974L535.837 233.747L539.196 237.936L518.851 254.5L508.671 243.348Z" fill="#FF725E"/>
        <path d="M453.657 446.125L311.478 477.814C310.655 478.003 309.803 478.026 308.971 477.883C308.139 477.741 307.344 477.435 306.63 476.984C305.917 476.532 305.3 475.944 304.815 475.253C304.33 474.562 303.986 473.782 303.804 472.958L257.694 265.91C257.51 265.09 257.49 264.241 257.635 263.413C257.78 262.585 258.087 261.794 258.538 261.084C258.989 260.375 259.575 259.762 260.264 259.279C260.953 258.797 261.73 258.455 262.55 258.274L404.729 226.584C405.55 226.401 406.399 226.381 407.228 226.525C408.056 226.67 408.848 226.977 409.558 227.428C410.268 227.879 410.882 228.465 411.366 229.154C411.849 229.843 412.191 230.62 412.374 231.441L458.513 438.488C458.697 439.309 458.717 440.157 458.572 440.985C458.428 441.814 458.121 442.605 457.67 443.314C457.219 444.024 456.632 444.637 455.943 445.12C455.255 445.602 454.478 445.944 453.657 446.125Z" fill="#E0E0E0"/>
        <path d="M453.656 446.125L454.13 445.992C454.591 445.841 455.036 445.645 455.458 445.406C456.149 444.999 456.76 444.469 457.259 443.841C457.94 442.981 458.387 441.959 458.557 440.876C458.664 440.22 458.664 439.551 458.557 438.896C458.438 438.206 458.253 437.48 458.09 436.724C457.749 435.241 457.348 433.55 456.978 431.756C456.172 428.162 455.245 424.028 454.197 419.352C450.023 400.69 443.988 373.686 436.529 340.314C432.821 323.631 428.729 305.355 424.347 285.729C422.162 275.922 419.901 265.789 417.562 255.33C416.401 250.1 415.22 244.799 414.018 239.426C413.41 236.742 412.81 234.036 412.194 231.315C411.86 229.958 411.08 228.754 409.978 227.895C408.877 227.035 407.519 226.571 406.122 226.577C405.426 226.592 404.733 226.692 404.061 226.873L401.985 227.333L397.81 228.267L262.601 258.414C261.03 258.762 259.654 259.702 258.758 261.039C257.862 262.376 257.515 264.006 257.789 265.591C258.464 268.743 259.191 271.901 259.88 275.045C261.284 281.322 262.675 287.563 264.054 293.766L272.21 330.401C277.564 354.416 282.724 377.549 287.64 399.644C292.555 421.739 297.219 442.648 301.594 462.303C302.137 464.775 302.679 467.207 303.217 469.599C303.492 470.8 303.736 472.016 304.026 473.195C304.337 474.356 304.975 475.404 305.864 476.213C306.748 477.01 307.837 477.544 309.008 477.755C309.589 477.85 310.18 477.867 310.765 477.807C311.344 477.733 311.929 477.592 312.508 477.458L446.16 447.771L451.75 446.54L453.656 446.125L451.758 446.57L446.167 447.83L312.56 477.703C311.981 477.829 311.403 477.977 310.795 478.059C310.187 478.121 309.574 478.101 308.971 478C307.744 477.787 306.604 477.227 305.685 476.388C304.765 475.549 304.105 474.464 303.781 473.262C303.484 472.068 303.24 470.867 302.965 469.666C302.427 467.259 301.883 464.827 301.334 462.37C296.96 442.744 292.281 421.776 287.358 399.711C282.435 377.646 277.274 354.483 271.914 330.468L263.758 293.84C262.379 287.642 260.987 281.397 259.584 275.104C258.887 271.96 258.167 268.817 257.485 265.636C257.2 263.975 257.565 262.268 258.505 260.869C259.446 259.471 260.889 258.488 262.534 258.125L397.766 228.015L401.948 227.036L404.024 226.577C404.709 226.399 405.414 226.304 406.122 226.295C407.569 226.298 408.974 226.783 410.115 227.673C411.256 228.563 412.069 229.808 412.424 231.211C413.032 233.939 413.64 236.638 414.241 239.33C415.452 244.708 416.643 250.001 417.815 255.211C420.133 265.666 422.389 275.799 424.584 285.61C428.951 305.236 433.014 323.513 436.729 340.203C444.143 373.568 450.149 400.593 454.301 419.263C455.332 423.926 456.251 428.078 457.052 431.667C457.445 433.469 457.793 435.122 458.149 436.642C458.312 437.383 458.497 438.125 458.609 438.814C458.72 439.477 458.72 440.154 458.609 440.816C458.44 441.92 457.985 442.96 457.289 443.834C456.783 444.461 456.167 444.991 455.472 445.398C455.045 445.639 454.593 445.83 454.123 445.969L453.656 446.125Z" fill="#263238"/>
        <path d="M318.681 470.482L448.226 440.868L444.133 415.481L436.785 401.253L312.861 449.929L318.681 470.482Z" fill="black"/>
        <path d="M372.77 234.177L377.671 242.266L378.62 246.559L375.298 247.3L372.77 234.177Z" fill="black"/>
        <path d="M265.071 267.112L310.017 468.784L450.898 437.391L405.952 235.712L265.071 267.112Z" fill="white"/>
        <path d="M265.071 267.112L405.945 235.593H406.064V235.719C418.564 291.765 434.157 361.705 451.032 437.391V437.547H450.884L310.01 468.932H309.877V468.791C283.415 349.701 265.338 268.32 265.064 267.119C265.338 268.35 283.533 349.708 310.151 468.791L309.98 468.687L450.854 437.272L450.736 437.458C433.883 361.786 418.305 291.846 405.827 235.786L405.975 235.882L265.071 267.112Z" fill="#263238"/>
        <path d="M304.74 243.115L366.869 229.273C368.084 229.002 369.357 229.226 370.407 229.893C371.458 230.561 372.2 231.619 372.471 232.834L376.06 248.943L304.754 264.83L301.168 248.735C301.032 248.131 301.016 247.506 301.122 246.897C301.228 246.287 301.453 245.704 301.785 245.182C302.117 244.66 302.549 244.208 303.056 243.853C303.563 243.499 304.135 243.248 304.74 243.115Z" fill="#263238"/>
        <path d="M343.15 226.406L325.007 230.447L330.59 245.528L344.255 242.481L343.15 226.406Z" fill="#263238"/>
        <path d="M366.87 229.261C366.87 229.343 352.998 232.508 335.848 236.334C318.699 240.16 304.767 243.207 304.745 243.126C304.723 243.044 318.617 239.878 335.782 236.053C352.946 232.227 366.826 229.202 366.87 229.261Z" fill="#455A64"/>
        <path d="M305.628 261.143C305.546 261.143 304.827 258.251 304.026 254.648C303.225 251.044 302.632 248.101 302.721 248.079C302.81 248.056 303.522 250.97 304.323 254.581C305.123 258.192 305.709 261.143 305.628 261.143Z" fill="#455A64"/>
        <path d="M372.661 244.564C372.066 242.614 371.571 240.634 371.179 238.633C370.688 236.677 370.297 234.697 370.007 232.701C370.602 234.64 371.097 236.607 371.49 238.596C371.982 240.564 372.373 242.556 372.661 244.564Z" fill="#455A64"/>
        <path d="M369.837 248.086C369.837 248.168 355.594 251.415 337.992 255.337C320.39 259.26 306.11 262.381 306.073 262.292C306.036 262.203 320.309 258.963 337.955 255.041C355.601 251.119 369.792 248.005 369.837 248.086Z" fill="#455A64"/>
        <path d="M332.312 306.749C332.312 306.838 322.71 309.048 310.81 311.702C298.91 314.356 289.308 316.425 289.256 316.343C289.204 316.262 298.895 314.045 310.758 311.398C322.621 308.751 332.289 306.667 332.312 306.749Z" fill="#263238"/>
        <path d="M404.017 298.675C404.017 298.764 378.904 304.436 347.89 311.346C316.875 318.256 291.703 323.795 291.688 323.713C291.674 323.632 316.794 317.952 347.823 311.042C378.852 304.132 404.002 298.593 404.017 298.675Z" fill="#263238"/>
        <path d="M405.566 305.629C405.566 305.711 380.446 311.383 349.431 318.301C318.417 325.218 293.252 330.749 293.23 330.66C293.208 330.571 318.342 324.907 349.364 317.997C380.386 311.086 405.543 305.526 405.566 305.629Z" fill="#263238"/>
        <path d="M407.107 312.54C407.107 312.621 381.994 318.293 350.98 325.203C319.965 332.114 294.794 337.66 294.771 337.571C294.749 337.482 319.884 331.817 350.913 324.899C381.943 317.982 407.085 312.458 407.107 312.54Z" fill="#263238"/>
        <path d="M408.651 319.472C408.651 319.554 383.539 325.226 352.524 332.136C321.51 339.046 296.338 344.585 296.323 344.503C296.308 344.422 321.428 338.75 352.457 331.832C383.487 324.914 408.636 319.383 408.651 319.472Z" fill="#263238"/>
        <path d="M410.2 326.39C410.2 326.479 385.079 332.151 354.065 339.061C323.05 345.971 297.871 351.517 297.871 351.436C297.871 351.354 322.984 345.682 354.006 338.764C385.028 331.847 410.177 326.316 410.2 326.39Z" fill="#263238"/>
        <path d="M319.647 375.184C319.617 375.11 319.595 375.033 319.581 374.954L319.418 374.294C319.277 373.694 319.077 372.856 318.832 371.81C318.335 369.668 317.638 366.657 316.808 363.054L316.971 363.158L304.811 365.886C304.811 365.886 305.034 365.538 304.93 365.701V365.857L304.974 366.064L305.071 366.48L305.249 367.303C305.375 367.851 305.493 368.392 305.612 368.934C305.849 370.001 306.086 371.054 306.309 372.077C306.761 374.116 307.184 376.044 307.577 377.816L307.414 377.712L316.2 375.822L318.698 375.303L319.366 375.177L319.603 375.132C319.603 375.132 319.544 375.132 319.395 375.199L318.765 375.355L316.318 375.933L307.51 378.031H307.377V377.898L306.086 372.166C305.857 371.143 305.619 370.09 305.345 369.023C305.226 368.481 305.1 367.94 304.982 367.392C304.915 367.125 304.856 366.843 304.796 366.569L304.7 366.153L304.656 365.946V365.753C304.552 365.923 304.796 365.53 304.774 365.568L316.941 362.876H317.075V363.01L318.988 371.907C319.203 372.945 319.373 373.775 319.499 374.368C319.551 374.635 319.588 374.843 319.625 375.014C319.64 375.069 319.648 375.126 319.647 375.184Z" fill="#263238"/>
        <path d="M410.029 345.208L325.197 364.108L326.774 371.185L411.606 352.285L410.029 345.208Z" fill="#E0E0E0"/>
        <path d="M324.347 396.285C324.32 396.208 324.297 396.129 324.281 396.048C324.236 395.878 324.184 395.655 324.118 395.388C323.977 394.788 323.777 393.957 323.532 392.912C323.035 390.762 322.338 387.722 321.508 384.148L321.671 384.252L309.511 386.98C309.511 387.025 309.734 386.632 309.63 386.802V386.995L309.674 387.203L309.771 387.618C309.83 387.9 309.889 388.174 309.956 388.448L310.312 390.072C310.549 391.147 310.786 392.193 311.009 393.216C311.461 395.255 311.884 397.183 312.277 398.955L312.114 398.851L320.907 396.968L323.398 396.449L324.066 396.315C324.143 396.294 324.223 396.281 324.303 396.278L324.103 396.337L323.465 396.493L321.018 397.079L312.173 399.118H312.04V398.984L310.749 393.253C310.52 392.23 310.282 391.177 310.008 390.109C309.889 389.575 309.763 389.027 309.645 388.486C309.585 388.211 309.519 387.937 309.459 387.655L309.363 387.24L309.318 387.032V386.84L309.437 386.647L321.597 383.992H321.73V384.118C322.516 387.774 323.213 390.791 323.643 393.016C323.858 394.054 324.029 394.884 324.155 395.477C324.207 395.744 324.244 395.952 324.281 396.122C324.31 396.174 324.332 396.228 324.347 396.285Z" fill="#263238"/>
        <path d="M414.728 366.309L329.896 385.209L331.473 392.287L416.305 373.387L414.728 366.309Z" fill="#E0E0E0"/>
        <path d="M329.048 417.38C329.048 417.38 329.048 417.291 328.981 417.142C328.914 416.994 328.884 416.749 328.818 416.482C328.677 415.882 328.477 415.051 328.232 414.006C327.735 411.863 327.038 408.816 326.208 405.242L326.371 405.346L314.182 408.074C314.182 408.119 314.404 407.726 314.3 407.896V408.104L314.345 408.312L314.441 408.727C314.5 409.009 314.56 409.283 314.626 409.557L314.982 411.181C315.22 412.256 315.457 413.302 315.679 414.325L316.947 420.064L316.784 419.967L325.578 418.076L328.069 417.557L328.736 417.424C328.815 417.415 328.895 417.415 328.973 417.424L328.773 417.483L328.136 417.639L325.689 418.225L316.843 420.264H316.71V420.13C316.317 418.366 315.88 416.423 315.42 414.399C315.19 413.376 314.953 412.33 314.678 411.255C314.56 410.721 314.434 410.18 314.315 409.631C314.256 409.357 314.189 409.083 314.13 408.808L314.041 408.393L313.989 408.186V407.948C313.885 408.111 314.13 407.719 314.107 407.763L326.275 405.072H326.408V405.205L328.321 414.102C328.536 415.14 328.706 415.971 328.833 416.571C328.884 416.831 328.929 417.038 328.959 417.209C328.996 417.261 329.026 417.319 329.048 417.38Z" fill="#263238"/>
        <path d="M419.433 387.411L334.601 406.311L336.178 413.389L421.01 394.489L419.433 387.411Z" fill="#E0E0E0"/>
        <path d="M307.963 370.832L309.239 368.822L313.027 370.928L317.906 363.573L319.789 364.878L313.502 374.146L307.963 370.832Z" fill="#FF725E"/>
        <path d="M312.506 391.221L313.782 389.212L317.57 391.318L322.442 383.963L324.332 385.268L318.037 394.528L312.506 391.221Z" fill="#FF725E"/>
        <path d="M317.171 412.123L318.447 410.121L322.228 412.226L327.107 404.871L328.99 406.169L322.702 415.437L317.171 412.123Z" fill="#FF725E"/>
        <path d="M356 438.347C356 438.436 348.853 440.105 340 442.055C331.147 444.005 323.955 445.554 323.94 445.473C323.925 445.391 331.08 443.723 339.933 441.766C348.786 439.808 355.978 438.273 356 438.347Z" fill="#263238"/>
        <path d="M371.971 434.536C370.035 435.133 368.07 435.628 366.084 436.019C364.127 436.506 362.147 436.895 360.152 437.183C362.085 436.589 364.048 436.094 366.032 435.701C369.287 434.981 371.956 434.455 371.971 434.536Z" fill="#263238"/>
        <path d="M424.865 417.891C424.865 417.973 418.436 419.485 410.473 421.257C402.51 423.029 396.03 424.401 396.015 424.319C396 424.238 402.436 422.733 410.407 420.953C418.377 419.174 424.85 417.809 424.865 417.891Z" fill="#263238"/>
        <path d="M417.985 437.406C417.985 437.406 418.052 437.206 418.126 436.82C418.224 436.25 418.194 435.664 418.037 435.107C417.773 434.226 417.431 433.37 417.014 432.549C416.423 431.461 416.076 430.256 415.998 429.02C416.015 428.259 416.192 427.511 416.516 426.822C416.841 426.134 417.306 425.521 417.881 425.024C418.556 424.464 419.362 424.086 420.224 423.926C421.086 423.767 421.974 423.831 422.804 424.112C423.716 424.389 424.529 424.922 425.147 425.646C425.477 426.037 425.672 426.523 425.703 427.033C425.712 427.307 425.632 427.577 425.476 427.802C425.32 428.028 425.095 428.197 424.836 428.286C424.351 428.443 423.855 428.564 423.353 428.649L421.87 428.953C420.877 429.153 419.868 429.331 418.83 429.465C416.82 429.755 414.779 429.767 412.765 429.502C411.855 429.306 410.905 429.46 410.103 429.932C409.466 430.574 408.927 431.306 408.502 432.104C408.244 432.498 407.885 432.815 407.464 433.024C407.035 433.213 406.551 433.234 406.107 433.083C405.344 432.744 404.619 432.326 403.942 431.837C403.628 431.629 403.27 431.494 402.897 431.445C402.547 431.406 402.195 431.492 401.903 431.689C401.39 432.158 400.966 432.716 400.65 433.335C400.313 433.866 399.852 434.308 399.307 434.623C398.763 434.938 398.15 435.117 397.521 435.144C396.57 435.182 395.641 434.853 394.926 434.225C394.477 433.837 394.124 433.349 393.896 432.801C393.816 432.614 393.758 432.417 393.725 432.216C393.725 432.216 393.792 432.416 393.955 432.779C394.195 433.303 394.553 433.765 395 434.129C395.698 434.719 396.594 435.021 397.506 434.974C398.106 434.943 398.689 434.767 399.206 434.461C399.723 434.155 400.157 433.728 400.472 433.217C400.798 432.568 401.241 431.985 401.777 431.496C402.115 431.262 402.524 431.154 402.934 431.192C403.339 431.253 403.728 431.397 404.076 431.615C404.741 432.086 405.451 432.491 406.196 432.824C406.577 432.952 406.992 432.933 407.36 432.772C407.737 432.584 408.054 432.294 408.272 431.934C408.713 431.114 409.272 430.365 409.933 429.71C410.344 429.416 410.825 429.237 411.327 429.191C411.82 429.138 412.317 429.138 412.81 429.191C414.802 429.449 416.819 429.436 418.808 429.153C419.831 429.02 420.832 428.835 421.826 428.642L423.309 428.345C423.785 428.257 424.255 428.141 424.717 427.997C424.92 427.932 425.097 427.803 425.22 427.629C425.343 427.455 425.406 427.246 425.399 427.033C425.366 426.589 425.195 426.167 424.91 425.824C424.325 425.128 423.553 424.614 422.686 424.342C421.899 424.074 421.058 424.012 420.241 424.16C419.424 424.308 418.658 424.661 418.015 425.187C417.462 425.657 417.014 426.238 416.7 426.892C416.386 427.545 416.213 428.258 416.191 428.983C416.257 430.191 416.581 431.372 417.14 432.445C417.55 433.277 417.88 434.146 418.126 435.041C418.271 435.613 418.284 436.212 418.163 436.79C418.128 437.002 418.068 437.208 417.985 437.406Z" fill="#263238"/>
        <path d="M433.309 427.915C433.184 427.966 433.055 428.005 432.924 428.034L431.797 428.301L427.66 429.257C424.175 430.073 419.355 431.215 414.054 432.557C408.753 433.899 403.97 435.196 400.523 436.145L396.43 437.272L395.31 437.569C395.182 437.609 395.051 437.639 394.918 437.658C395.037 437.593 395.164 437.543 395.296 437.51L396.393 437.161C397.349 436.857 398.736 436.42 400.456 435.938C403.904 434.929 408.671 433.602 413.98 432.23C419.289 430.859 424.108 429.776 427.615 429.027C429.365 428.649 430.788 428.353 431.775 428.16L432.909 427.945C433.041 427.923 433.175 427.913 433.309 427.915Z" fill="#263238"/>
        <path d="M372.496 265.226L314.912 278.056L317.322 288.875L374.907 276.046L372.496 265.226Z" fill="#E0E0E0"/>
        <path d="M426.971 440.802L445.574 539.087L462.575 507.672L494.798 526.587L460.595 430.881L426.971 440.802Z" fill="#FF725E"/>
        <path d="M433.23 473.855C435.001 474.189 436.826 474.087 438.549 473.559C440.272 473.031 441.841 472.092 443.121 470.823C444.818 469.073 445.945 466.685 448.081 465.514C450.001 464.461 452.366 464.609 454.479 465.195C456.593 465.781 458.58 466.752 460.693 467.301C462.778 467.832 464.948 467.943 467.076 467.627C469.204 467.312 471.249 466.576 473.09 465.462L467.722 450.559L442.809 447.445L430.946 461.718L433.23 473.855Z" fill="black"/>
        <path d="M461.365 503.772C461.261 503.772 458.488 493.585 455.174 480.973C451.86 468.361 449.243 458.099 449.361 458.077C449.48 458.055 452.231 468.25 455.545 480.876C458.859 493.503 461.469 503.743 461.365 503.772Z" fill="#263238"/>
        <path d="M429.692 445.91L411.089 544.196L394.088 512.788L361.865 531.695L396.067 435.99L429.692 445.91Z" fill="#FF725E"/>
        <path d="M385.835 464.617C385.835 464.617 391.129 468.969 397.438 466.967C403.748 464.965 407.67 464.535 411.088 466.967C414.506 469.399 423.752 477.31 423.752 477.31L425.895 465.973L413.476 448.92L400.515 451.538L391.292 452.435L387.859 458.937L385.835 464.617Z" fill="black"/>
        <path d="M538.764 357.189C538.764 364.24 529.756 370.313 528.436 376.978C527.079 383.844 533.055 392.897 530.438 399.222C527.821 405.546 517.092 407.815 513.288 413.531C509.485 419.248 511.487 429.954 506.615 434.833C501.744 439.712 491.045 437.658 485.314 441.506C479.583 445.354 477.432 455.986 471.004 458.656C464.687 461.273 455.634 455.297 448.761 456.654C442.088 457.973 436.023 466.982 428.972 466.982C421.921 466.982 415.841 457.973 409.175 456.654C402.31 455.297 393.257 461.273 386.932 458.656C380.608 456.038 378.346 445.31 372.63 441.506C366.913 437.702 356.207 439.704 351.321 434.833C346.434 429.962 348.496 419.263 344.648 413.531C340.8 407.8 330.167 405.65 327.505 399.222C324.844 392.793 330.864 383.852 329.507 376.978C328.188 370.305 319.172 364.24 319.172 357.189C319.172 350.138 328.188 344.058 329.507 337.393C330.864 330.527 324.881 321.474 327.505 315.15C330.13 308.825 340.851 306.556 344.648 300.847C348.444 295.138 346.449 284.424 351.321 279.538C356.192 274.652 366.891 276.713 372.63 272.865C378.368 269.017 380.504 258.385 386.932 255.723C393.36 253.061 402.302 259.082 409.175 257.725C415.848 256.405 421.921 247.389 428.972 247.389C436.023 247.389 442.095 256.405 448.761 257.725C455.627 259.082 464.68 253.098 471.004 255.723C477.432 258.385 479.597 269.069 485.314 272.865C491.03 276.661 501.737 274.667 506.615 279.538C511.494 284.409 509.44 295.108 513.288 300.847C517.137 306.586 527.769 308.721 530.438 315.15C533.107 321.578 527.079 330.52 528.436 337.393C529.756 344.058 538.764 350.116 538.764 357.189Z" fill="#FF725E"/>
        <path d="M403.282 295.642C403.282 295.642 403.2 295.546 403.082 295.338C402.963 295.131 402.778 294.797 402.578 294.434C402.14 293.648 401.54 292.491 400.828 291.053C399.397 288.176 397.543 284.128 395.756 279.56C393.97 274.993 392.598 270.752 391.701 267.697C391.256 266.148 390.915 264.895 390.7 263.99C390.603 263.59 390.522 263.249 390.462 262.982C390.424 262.867 390.404 262.747 390.403 262.626C390.461 262.734 390.506 262.848 390.537 262.967L390.841 263.953C391.13 264.865 391.508 266.096 391.96 267.586C392.924 270.648 394.34 274.852 396.112 279.449C397.884 284.046 399.708 288.057 401.073 290.964L402.711 294.397L403.149 295.331C403.202 295.43 403.247 295.535 403.282 295.642Z" fill="#263238"/>
        <path d="M413.053 291.928C412.923 291.669 412.826 291.395 412.764 291.112C412.608 290.578 412.4 289.8 412.156 288.836C411.666 286.915 411.058 284.231 410.51 281.251C409.961 278.27 409.575 275.549 409.353 273.577C409.234 272.591 409.16 271.79 409.116 271.234C409.082 270.948 409.082 270.66 409.116 270.374C409.201 270.649 409.258 270.932 409.286 271.219L409.642 273.54C409.939 275.505 410.384 278.211 410.91 281.184C411.436 284.157 412.022 286.841 412.437 288.776C412.638 289.681 412.801 290.452 412.934 291.075C413.002 291.355 413.042 291.64 413.053 291.928Z" fill="#263238"/>
        <path d="M430.292 290.215C430.181 290.215 429.907 281.896 429.677 271.642C429.447 261.388 429.343 253.061 429.447 253.054C429.551 253.046 429.833 261.365 430.062 271.634C430.292 281.903 430.396 290.215 430.292 290.215Z" fill="#263238"/>
        <path d="M447.641 273.125C447.745 273.125 446.544 277.314 444.964 282.415C443.385 287.516 441.999 291.616 441.924 291.587C441.85 291.557 443.022 287.397 444.601 282.296C446.18 277.195 447.53 273.095 447.641 273.125Z" fill="#263238"/>
        <path d="M454.713 294.619C454.728 294.496 454.76 294.377 454.81 294.263L455.143 293.285C455.44 292.439 455.885 291.223 456.478 289.726C457.642 286.76 459.303 282.615 461.201 278.092C463.099 273.57 464.864 269.499 466.161 266.563C466.799 265.139 467.325 263.968 467.726 263.093L468.163 262.159C468.274 261.951 468.334 261.84 468.349 261.847C468.321 261.964 468.284 262.078 468.237 262.188L467.859 263.152L466.413 266.674C465.145 269.684 463.448 273.748 461.557 278.248C459.666 282.749 457.991 286.812 456.73 289.829L455.284 293.344L454.877 294.293C454.836 294.408 454.781 294.517 454.713 294.619Z" fill="#263238"/>
        <path d="M463.952 299.453C464.065 299.191 464.206 298.942 464.375 298.712C464.671 298.237 465.116 297.562 465.665 296.739C466.777 295.101 468.378 292.862 470.239 290.474C472.1 288.087 473.887 286.026 475.207 284.543C475.867 283.801 476.416 283.216 476.801 282.815C476.987 282.593 477.198 282.394 477.431 282.222C477.288 282.475 477.114 282.709 476.912 282.919C476.512 283.408 476.008 284.009 475.429 284.721C474.162 286.248 472.419 288.361 470.558 290.749C468.697 293.136 467.073 295.338 465.902 296.94L464.515 298.83C464.35 299.057 464.161 299.266 463.952 299.453Z" fill="#263238"/>
        <path d="M477.463 310.501C477.389 310.427 483.261 304.851 490.564 298.052C497.868 291.253 503.858 285.803 503.91 285.878C503.962 285.952 498.12 291.535 490.809 298.334C483.498 305.133 477.537 310.582 477.463 310.501Z" fill="#263238"/>
        <path d="M501.027 312.806C500.312 313.259 499.569 313.665 498.802 314.022C497.408 314.764 495.518 315.794 493.427 316.988C491.336 318.182 489.408 319.175 487.977 319.843C487.236 320.176 486.687 320.436 486.272 320.584C486.069 320.69 485.852 320.765 485.627 320.807C486.342 320.355 487.085 319.948 487.851 319.591C489.245 318.849 491.136 317.819 493.227 316.625C495.318 315.431 497.245 314.401 498.676 313.77C499.418 313.437 499.966 313.177 500.382 313.029C500.583 312.92 500.801 312.845 501.027 312.806Z" fill="#263238"/>
        <path d="M522.817 321.845C522.854 321.949 515.87 324.499 507.247 327.546C498.624 330.594 491.558 332.974 491.529 332.877C491.499 332.781 498.468 330.223 507.099 327.176C515.729 324.128 522.78 321.748 522.817 321.845Z" fill="#263238"/>
        <path d="M529.757 361.49C529.757 361.593 522.157 360.963 512.808 360.073C503.458 359.184 495.88 358.376 495.895 358.264C495.91 358.153 503.488 358.798 512.845 359.688C522.202 360.578 529.764 361.386 529.757 361.49Z" fill="#263238"/>
        <path d="M524.173 397.049C524.128 397.145 517.033 393.883 508.328 389.776C499.624 385.668 492.602 382.25 492.647 382.154C492.691 382.057 499.787 385.312 508.491 389.427C517.196 393.542 524.217 396.953 524.173 397.049Z" fill="#263238"/>
        <path d="M500.834 430.881C500.753 430.948 495.644 425.009 489.409 417.624C483.173 410.239 478.191 404.182 478.287 404.115C478.383 404.048 483.477 409.98 489.713 417.372C495.948 424.764 500.916 430.807 500.834 430.881Z" fill="#263238"/>
        <path d="M481.348 435.382C481.117 435.125 480.911 434.847 480.733 434.551C480.355 434.003 479.821 433.194 479.183 432.194C477.893 430.184 476.165 427.374 474.341 424.223C472.517 421.072 470.96 418.165 469.893 416.067C469.352 415.007 468.914 414.147 468.632 413.546C468.465 413.241 468.326 412.921 468.217 412.59C468.427 412.866 468.61 413.162 468.766 413.472C469.122 414.125 469.581 414.955 470.137 415.941C471.287 418.025 472.888 420.901 474.705 424.052C476.521 427.204 478.212 430.028 479.443 432.067C480.021 433.046 480.51 433.854 480.888 434.492C481.074 434.771 481.228 435.069 481.348 435.382Z" fill="#263238"/>
        <path d="M469.249 452.361C469.249 452.361 469.175 452.264 469.056 452.057L468.574 451.152C468.151 450.359 467.58 449.202 466.898 447.764C465.534 444.88 463.777 440.831 462.109 436.249C460.44 431.667 459.18 427.441 458.401 424.386C457.994 422.844 457.66 421.584 457.497 420.716C457.415 420.316 457.349 419.975 457.289 419.708C457.26 419.591 457.242 419.472 457.237 419.352C457.298 419.458 457.34 419.573 457.363 419.693L457.645 420.679C457.905 421.598 458.246 422.822 458.661 424.312C459.536 427.374 460.833 431.586 462.502 436.175C464.17 440.765 465.875 444.791 467.18 447.705L468.737 451.137C468.9 451.508 469.041 451.82 469.16 452.072C469.201 452.164 469.231 452.261 469.249 452.361Z" fill="#263238"/>
        <path d="M444.734 440.431C444.574 439.578 444.467 438.717 444.415 437.851C444.245 436.257 443.97 434.055 443.57 431.645C443.17 429.235 442.702 427.07 442.347 425.506C442.114 424.668 441.935 423.816 441.813 422.955C441.923 423.162 442.008 423.381 442.065 423.608C442.213 424.038 442.398 424.66 442.613 425.439C443.036 426.989 443.54 429.146 443.948 431.586C444.303 433.652 444.55 435.736 444.69 437.828C444.741 438.629 444.771 439.311 444.771 439.734C444.79 439.967 444.778 440.201 444.734 440.431Z" fill="#263238"/>
        <path d="M428.698 461.777C428.681 461.651 428.681 461.524 428.698 461.399C428.698 461.102 428.698 460.739 428.698 460.309C428.698 459.36 428.698 457.988 428.698 456.298C428.757 452.909 428.913 448.238 429.18 443.085C429.447 437.932 429.78 433.261 430.055 429.888C430.188 428.197 430.314 426.833 430.411 425.891C430.463 425.461 430.5 425.098 430.529 424.809C430.538 424.68 430.563 424.553 430.603 424.431C430.621 424.558 430.621 424.688 430.603 424.816C430.603 425.105 430.603 425.469 430.552 425.906C430.492 426.907 430.418 428.256 430.322 429.902C430.122 433.335 429.855 437.977 429.58 443.1C429.306 448.223 429.113 452.924 428.987 456.305C428.928 457.951 428.876 459.271 428.839 460.309C428.839 460.746 428.794 461.102 428.78 461.399C428.771 461.528 428.744 461.656 428.698 461.777Z" fill="#263238"/>
        <path d="M415.663 424.431C415.658 425.069 415.584 425.706 415.441 426.329C415.248 427.485 414.937 429.079 414.529 430.822C414.121 432.564 413.691 434.136 413.35 435.27C413.202 435.891 412.986 436.492 412.705 437.065C412.771 436.431 412.898 435.806 413.083 435.196L414.151 430.748C414.536 429.079 414.892 427.567 415.174 426.299C415.277 425.662 415.441 425.036 415.663 424.431Z" fill="#263238"/>
        <path d="M392.093 413.138C391.121 414.744 390.039 416.281 388.853 417.735C387.765 419.266 386.578 420.725 385.301 422.102C386.27 420.495 387.353 418.959 388.541 417.505C389.624 415.971 390.811 414.512 392.093 413.138Z" fill="#263238"/>
        <path d="M379.734 404.805C379.808 404.871 375.211 410.276 369.457 416.868C363.704 423.459 358.966 428.731 358.884 428.679C358.803 428.627 363.407 423.207 369.161 416.616C374.914 410.024 379.652 404.73 379.734 404.805Z" fill="#263238"/>
        <path d="M373.543 395.603C371.725 397.357 369.817 399.015 367.827 400.571C364.601 403.225 361.932 405.316 361.895 405.235C363.715 403.485 365.623 401.829 367.611 400.275C369.509 398.619 371.489 397.06 373.543 395.603Z" fill="#263238"/>
        <path d="M366.304 381.731C366.349 381.827 359.943 385.016 351.987 388.841C344.031 392.667 337.559 395.7 337.507 395.603C337.455 395.507 343.868 392.326 351.824 388.493C359.78 384.66 366.26 381.635 366.304 381.731Z" fill="#263238"/>
        <path d="M363.399 374.813C363.187 374.907 362.962 374.972 362.732 375.006C362.295 375.11 361.665 375.243 360.886 375.384C359.322 375.681 357.142 376.007 354.725 376.252C352.308 376.496 350.105 376.6 348.511 376.622C347.718 376.622 347.073 376.622 346.628 376.622C346.396 376.637 346.163 376.615 345.939 376.556C346.789 376.439 347.646 376.372 348.504 376.355C350.091 376.259 352.278 376.111 354.688 375.866C357.097 375.621 359.27 375.34 360.841 375.125C361.686 374.961 362.541 374.856 363.399 374.813Z" fill="#263238"/>
        <path d="M361.049 358.835C360.617 358.871 360.183 358.871 359.751 358.835L356.222 358.657C353.256 358.509 349.134 358.376 344.589 358.398C340.044 358.42 335.922 358.606 332.948 358.783L329.426 358.998C328.996 359.048 328.562 359.063 328.129 359.043C328.55 358.942 328.979 358.877 329.412 358.85C330.242 358.754 331.443 358.635 332.926 358.509C335.892 358.264 340.029 358.042 344.582 358.012C349.134 357.983 353.264 358.168 356.244 358.383C357.727 358.494 358.936 358.598 359.766 358.687C360.197 358.706 360.625 358.756 361.049 358.835Z" fill="#263238"/>
        <path d="M362.501 344.807C362.501 344.911 357.674 343.658 351.779 342.012C345.885 340.366 341.132 338.957 341.162 338.853C341.192 338.75 345.989 339.995 351.883 341.641C357.778 343.287 362.53 344.703 362.501 344.807Z" fill="#263238"/>
        <path d="M365.609 333.063C365.49 333.056 365.372 333.031 365.261 332.989L364.274 332.692C363.429 332.425 362.206 332.01 360.715 331.469C356.821 330.039 353.005 328.405 349.282 326.575C345.561 324.743 341.94 322.713 338.435 320.495C337.093 319.643 336.018 318.931 335.291 318.419L334.461 317.819C334.276 317.678 334.179 317.604 334.187 317.589C334.299 317.634 334.406 317.691 334.506 317.759L335.38 318.293C336.122 318.768 337.219 319.443 338.576 320.266C341.297 321.912 345.108 324.084 349.453 326.197C353.798 328.31 357.846 330.03 360.812 331.187C362.295 331.758 363.488 332.21 364.326 332.522L365.283 332.885C365.396 332.935 365.505 332.995 365.609 333.063Z" fill="#263238"/>
        <path d="M372.586 321.2C372.527 321.281 368.775 318.746 364.208 315.528C359.641 312.31 355.985 309.633 356.052 309.544C356.119 309.455 359.863 311.998 364.438 315.216C369.012 318.434 372.645 321.133 372.586 321.2Z" fill="#263238"/>
        <path d="M357.838 285.18C357.838 285.18 357.942 285.24 358.12 285.381L358.861 286.033L361.597 288.45L370.576 296.465L379.592 304.436L382.32 306.86L383.062 307.535C383.151 307.608 383.231 307.693 383.299 307.787C383.299 307.787 383.195 307.735 383.01 307.594L382.268 306.979C381.594 306.438 380.637 305.637 379.458 304.643C377.1 302.656 373.883 299.876 370.361 296.754C366.839 293.633 363.688 290.756 361.463 288.65C360.336 287.598 359.432 286.745 358.809 286.137L358.105 285.44C357.927 285.277 357.823 285.188 357.838 285.18Z" fill="#263238"/>
        <path d="M380.965 285.855C380.965 285.855 381.165 286.018 381.469 286.367C381.773 286.715 382.21 287.227 382.722 287.85C383.753 289.14 385.124 290.964 386.548 293.04C387.971 295.116 389.165 297.058 389.988 298.489C390.403 299.231 390.73 299.787 390.937 300.195C391.066 300.398 391.165 300.617 391.234 300.847C390.69 300.14 390.195 299.397 389.751 298.623C388.869 297.229 387.638 295.323 386.222 293.247C384.805 291.171 383.471 289.34 382.514 288.013C381.955 287.325 381.438 286.605 380.965 285.855Z" fill="#263238"/>
        <path d="M351.327 279.545L383.587 307.787L391.602 301.373L372.888 272.694C372.888 272.694 371.45 273.747 367.698 274.815C364.117 275.846 353.477 276.12 351.327 279.545Z" fill="black"/>
        <path d="M387.235 255.656L402.983 295.079L413.052 291.928L409.693 257.732C409.693 257.732 407.965 258.14 404.117 257.651C400.388 257.176 391.35 253.64 387.235 255.656Z" fill="black"/>
        <path d="M429.232 247.404L430.292 290.215L439.724 290.667L449.274 257.806C447.289 257.412 445.402 256.631 443.72 255.508C440.458 253.417 433.8 247.056 429.232 247.404Z" fill="black"/>
        <path d="M470.366 255.493L454.714 294.96L463.211 299.03L484.75 272.442C483.131 271.076 481.75 269.449 480.664 267.63C478.633 264.346 475.133 256.805 470.366 255.493Z" fill="black"/>
        <path d="M507.127 280.117L477.973 310.516L484.468 319.272L512.954 300.262C512.016 298.534 511.382 296.658 511.078 294.716C510.396 291.008 510.3 284.276 507.127 280.117Z" fill="black"/>
        <path d="M530.141 314.415L490.882 330.571L494.137 340.603L528.295 336.896C528.295 336.896 528.08 335.843 528.532 331.995C528.962 328.266 532.907 319.932 530.141 314.415Z" fill="black"/>
        <path d="M538.838 357.189L496.035 358.672L495.679 368.111L528.303 377.661C528.519 376.302 528.955 374.987 529.593 373.768C532.025 369.23 538.838 362.824 538.838 357.189Z" fill="black"/>
        <path d="M530.945 397.657L491.538 382.302L487.556 390.895L514.374 412.123C515.784 410.773 517.344 409.589 519.023 408.593C522.285 406.51 530.041 403.136 530.945 397.657Z" fill="black"/>
        <path d="M472.986 397.049L463.229 405.205C463.97 405.946 476.967 428.071 484.982 441.728C485.087 441.638 485.195 441.554 485.309 441.476C490.58 437.947 499.967 439.363 505.261 435.871L472.986 397.049Z" fill="black"/>
        <path d="M455.059 412.53L440.497 417.498L447.392 457.032C447.84 456.874 448.298 456.747 448.764 456.654C455.629 455.297 464.682 461.273 471.007 458.655C471.873 458.284 472.678 457.784 473.394 457.173L455.059 412.53Z" fill="black"/>
        <path d="M428.469 466.967L430.79 415.318L418.185 412.123L408.821 456.609L409.162 456.668C415.687 457.936 421.626 466.522 428.469 466.967Z" fill="black"/>
        <path d="M396.81 406.547C396.81 406.547 380.172 428.835 371.467 440.831C371.87 441.034 372.261 441.259 372.639 441.506C378.355 445.332 380.513 455.986 386.941 458.655C387.238 458.774 387.542 458.87 387.846 458.959L411.09 414.962L396.81 406.547Z" fill="black"/>
        <path d="M379.735 388.604L344.25 412.99C344.383 413.168 344.531 413.338 344.65 413.524C348.506 419.277 346.452 429.947 351.323 434.825C351.773 435.267 352.27 435.658 352.806 435.99C365.344 421.858 387.854 396.485 388.669 395.603L379.735 388.604Z" fill="black"/>
        <path d="M371.6 371.188L329.642 377.964C330.317 384.697 325.008 393.194 327.507 399.214C327.657 399.582 327.838 399.937 328.048 400.274C342.728 392.964 373.402 377.757 374.677 377.675L371.6 371.188Z" fill="black"/>
        <path d="M369.31 347.817L329.65 336.377C329.613 336.718 329.568 337.059 329.509 337.393C328.189 344.066 319.173 350.138 319.173 357.189C319.175 357.659 319.215 358.127 319.292 358.59H367.701L369.31 347.817Z" fill="black"/>
        <path d="M327.67 314.845C342.499 322.786 371.467 338.853 371.467 338.853L378.6 325.307L345.101 300.098C344.953 300.358 344.812 300.625 344.649 300.84C340.875 306.467 330.547 308.662 327.67 314.845Z" fill="black"/>
        <path d="M538.764 357.189L538.72 356.715C538.703 356.25 538.638 355.788 538.528 355.336C538.096 353.558 537.342 351.874 536.303 350.368C535.028 348.322 533.1 346.031 531.113 343.132C529.991 341.589 529.129 339.874 528.563 338.053C528.08 335.927 528.08 333.72 528.563 331.595C528.978 329.333 529.653 327.005 530.238 324.536C530.824 322.067 531.373 319.398 530.824 316.669C530.514 315.288 529.881 314 528.978 312.91C528.009 311.801 526.903 310.819 525.686 309.989C523.224 308.239 520.392 306.845 517.686 305.021C516.286 304.119 515.014 303.031 513.904 301.789C512.815 300.44 512.024 298.876 511.584 297.199C510.635 293.826 510.42 290.222 509.7 286.619C509.386 284.784 508.767 283.015 507.869 281.384C506.894 279.743 505.414 278.461 503.65 277.729C501.83 276.997 499.924 276.499 497.978 276.246C496.013 275.92 493.997 275.69 491.98 275.334C489.914 275.036 487.91 274.403 486.048 273.458C484.202 272.349 482.639 270.826 481.481 269.01C480.25 267.245 479.19 265.347 478.063 263.471C476.984 261.552 475.69 259.761 474.208 258.133C472.68 256.486 470.595 255.463 468.358 255.263C466.071 255.179 463.786 255.446 461.581 256.057C459.356 256.598 457.073 257.258 454.737 257.695C452.376 258.252 449.914 258.206 447.575 257.562C445.295 256.668 443.163 255.435 441.25 253.906C439.271 252.424 437.343 250.941 435.23 249.621C433.117 248.301 430.722 247.345 428.231 247.626H427.764C427.608 247.626 427.46 247.693 427.311 247.723C427.007 247.797 426.696 247.849 426.399 247.938C425.802 248.128 425.218 248.356 424.65 248.62C423.503 249.165 422.402 249.803 421.358 250.526C419.252 252.008 417.257 253.625 415.092 255.093C414.015 255.847 412.873 256.507 411.682 257.065C410.461 257.611 409.153 257.94 407.819 258.036C405.144 258.053 402.48 257.676 399.915 256.917C397.332 256.179 394.698 255.637 392.034 255.293C390.703 255.162 389.36 255.252 388.059 255.56C386.764 255.92 385.569 256.575 384.567 257.473C382.521 259.26 381.097 261.662 379.674 264.02C378.33 266.489 376.759 268.827 374.98 271.004C374.039 272.083 372.908 272.98 371.644 273.651C370.353 274.261 368.998 274.724 367.603 275.03C364.815 275.646 361.968 275.905 359.158 276.409C356.348 276.913 353.479 277.707 351.447 279.679C350.467 280.723 349.71 281.957 349.223 283.305C348.732 284.664 348.372 286.066 348.148 287.494C347.629 290.356 347.406 293.292 346.665 296.176C346.346 297.64 345.814 299.049 345.086 300.358C344.318 301.655 343.312 302.794 342.12 303.717C339.777 305.6 337.115 306.994 334.564 308.551C333.287 309.32 332.061 310.172 330.894 311.101C329.734 312.028 328.758 313.165 328.018 314.453C327.311 315.764 326.954 317.234 326.98 318.723C327.006 320.22 327.182 321.71 327.506 323.172C328.129 326.138 329.07 329.052 329.575 332.069C329.873 333.618 329.933 335.203 329.753 336.77C329.542 338.333 329.039 339.842 328.27 341.219C326.72 343.925 324.703 346.305 322.916 348.826C321.999 350.068 321.199 351.394 320.529 352.785C319.794 354.142 319.41 355.661 319.41 357.204C319.41 358.747 319.794 360.266 320.529 361.623C321.198 363.015 321.998 364.341 322.916 365.582C324.703 368.103 326.72 370.483 328.27 373.19C329.025 374.541 329.527 376.018 329.753 377.549C329.941 379.095 329.891 380.66 329.604 382.191C329.107 385.238 328.166 388.159 327.536 391.125C327.214 392.587 327.038 394.077 327.009 395.574C326.98 397.065 327.335 398.538 328.04 399.852C328.775 401.143 329.748 402.283 330.909 403.211C332.075 404.14 333.301 404.992 334.579 405.761C337.13 407.318 339.769 408.727 342.142 410.595C343.332 411.52 344.338 412.659 345.108 413.954C345.842 415.258 346.374 416.665 346.687 418.128C347.384 421.02 347.621 423.956 348.17 426.818C348.4 428.245 348.763 429.647 349.252 431.007C349.728 432.354 350.472 433.59 351.44 434.64C353.493 436.635 356.385 437.428 359.158 437.932C361.931 438.436 364.815 438.674 367.603 439.311C369 439.619 370.358 440.081 371.651 440.69C372.914 441.364 374.044 442.261 374.988 443.337C376.748 445.518 378.304 447.856 379.637 450.322C381.06 452.68 382.484 455.082 384.53 456.869C385.53 457.765 386.722 458.42 388.015 458.782C389.327 459.113 390.685 459.223 392.034 459.108C394.693 458.75 397.322 458.198 399.9 457.454C402.467 456.689 405.133 456.309 407.811 456.327C409.146 456.428 410.453 456.759 411.674 457.306C412.865 457.866 414.006 458.525 415.085 459.278C417.25 460.761 419.237 462.4 421.35 463.838C422.39 464.566 423.489 465.206 424.635 465.751C425.203 466.014 425.788 466.242 426.385 466.433C426.689 466.515 426.993 466.574 427.297 466.648L427.756 466.745H428.216C430.715 467.026 433.117 466.003 435.223 464.75C437.328 463.497 439.263 461.918 441.236 460.465C443.151 458.936 445.286 457.704 447.568 456.809C449.907 456.169 452.369 456.123 454.73 456.676C457.065 457.121 459.319 457.781 461.573 458.322C463.782 458.925 466.069 459.193 468.358 459.115C470.593 458.907 472.673 457.883 474.2 456.238C475.678 454.604 476.971 452.811 478.056 450.893C479.175 449.024 480.235 447.126 481.466 445.354C482.631 443.541 484.196 442.019 486.041 440.905C487.902 439.96 489.906 439.329 491.973 439.037C493.997 438.674 496.006 438.444 497.971 438.125C499.918 437.86 501.824 437.349 503.643 436.605C505.405 435.871 506.884 434.589 507.862 432.95C508.754 431.318 509.371 429.549 509.686 427.715C510.427 424.112 510.62 420.501 511.576 417.127C512.012 415.451 512.804 413.889 513.897 412.545C515.003 411.299 516.275 410.211 517.678 409.313C520.385 407.489 523.217 406.095 525.671 404.345C526.894 403.517 528.003 402.532 528.97 401.416C529.872 400.329 530.503 399.043 530.809 397.665C531.068 396.333 531.105 394.968 530.92 393.624C530.767 392.335 530.535 391.058 530.223 389.798C529.63 387.329 528.963 385.001 528.548 382.739C528.065 380.614 528.065 378.407 528.548 376.281C529.118 374.462 529.979 372.746 531.098 371.203C533.108 368.304 535.043 366.012 536.288 363.966C537.329 362.461 538.083 360.777 538.513 358.998C538.624 358.546 538.688 358.084 538.706 357.619L538.75 357.152C538.75 357.152 538.75 357.308 538.75 357.619C538.736 358.086 538.676 358.551 538.572 359.006C538.15 360.798 537.396 362.496 536.348 364.011C535.08 366.072 533.16 368.37 531.158 371.269C530.045 372.801 529.196 374.508 528.644 376.318C528.162 378.422 528.162 380.607 528.644 382.71C529.059 384.934 529.734 387.284 530.335 389.753C530.658 391.023 530.905 392.31 531.076 393.609C531.261 394.97 531.223 396.352 530.965 397.702C530.655 399.112 530.015 400.428 529.096 401.542C528.12 402.671 527.001 403.668 525.767 404.508C523.291 406.273 520.466 407.674 517.775 409.491C516.4 410.384 515.153 411.459 514.067 412.686C512.997 414.009 512.223 415.546 511.799 417.194C510.857 420.531 510.649 424.134 509.923 427.76C509.609 429.623 508.985 431.42 508.077 433.076C507.075 434.764 505.557 436.084 503.747 436.842C501.909 437.597 499.983 438.115 498.015 438.385C496.043 438.711 494.026 438.941 492.017 439.304C489.977 439.595 487.998 440.219 486.16 441.15C484.366 442.239 482.844 443.722 481.711 445.488C480.495 447.245 479.435 449.135 478.308 451.019C477.217 452.957 475.914 454.767 474.423 456.416C472.846 458.116 470.696 459.173 468.387 459.382C466.067 459.473 463.746 459.206 461.507 458.589C459.245 458.048 456.991 457.395 454.678 456.958C452.368 456.417 449.96 456.46 447.671 457.084C445.424 457.97 443.323 459.187 441.436 460.695C439.471 462.14 437.536 463.697 435.401 465.002C434.844 465.299 434.318 465.647 433.74 465.892C433.451 466.026 433.169 466.166 432.88 466.285L431.982 466.604C430.766 467.022 429.474 467.173 428.194 467.049L427.712 467.012C427.556 467.012 427.4 466.945 427.237 466.915C426.926 466.841 426.607 466.782 426.303 466.693C425.687 466.502 425.085 466.27 424.501 465.996C423.338 465.444 422.222 464.797 421.165 464.061C419.037 462.578 417.042 460.961 414.9 459.501C413.835 458.762 412.712 458.113 411.541 457.558C410.356 457.031 409.09 456.713 407.797 456.617C405.153 456.605 402.523 456.982 399.989 457.736C397.384 458.503 394.725 459.07 392.034 459.434C390.659 459.568 389.271 459.476 387.926 459.16C386.579 458.784 385.336 458.104 384.293 457.173C382.187 455.327 380.749 452.902 379.325 450.537C378.006 448.09 376.462 445.772 374.714 443.612C373.802 442.567 372.707 441.7 371.481 441.054C370.217 440.453 368.889 440.001 367.522 439.704C364.763 439.096 361.924 438.837 359.091 438.325C357.664 438.088 356.262 437.721 354.902 437.228C353.523 436.722 352.261 435.94 351.195 434.929C350.183 433.848 349.408 432.568 348.919 431.17C348.418 429.789 348.048 428.365 347.814 426.914C347.295 424.03 347.073 421.094 346.331 418.247C346.023 416.821 345.503 415.449 344.789 414.176C344.038 412.919 343.057 411.815 341.897 410.922C339.599 409.075 336.944 407.681 334.387 406.117C333.096 405.338 331.858 404.477 330.679 403.537C329.48 402.575 328.474 401.395 327.714 400.059C326.981 398.693 326.614 397.161 326.646 395.611C326.663 394.076 326.842 392.548 327.18 391.051C327.81 388.085 328.752 385.119 329.241 382.154C329.521 380.66 329.568 379.132 329.382 377.623C329.157 376.125 328.654 374.681 327.899 373.368C326.416 370.698 324.37 368.333 322.568 365.79C321.629 364.523 320.808 363.173 320.114 361.757C319.36 360.347 318.965 358.773 318.965 357.174C318.965 355.576 319.36 354.002 320.114 352.592C320.798 351.18 321.612 349.835 322.546 348.574C324.347 346.031 326.357 343.665 327.869 341.004C328.624 339.687 329.127 338.241 329.352 336.74C329.525 335.231 329.475 333.705 329.204 332.21C328.707 329.244 327.765 326.279 327.135 323.313C326.804 321.817 326.628 320.292 326.609 318.76C326.579 317.21 326.949 315.678 327.684 314.312C328.449 312.981 329.455 311.805 330.65 310.842C331.826 309.9 333.065 309.038 334.357 308.262C336.915 306.697 339.547 305.296 341.868 303.457C343.026 302.564 344.004 301.459 344.752 300.202C345.463 298.926 345.98 297.552 346.287 296.124C346.976 293.277 347.213 290.348 347.77 287.464C348.001 286.014 348.369 284.589 348.867 283.208C349.314 281.795 350.092 280.508 351.137 279.456C352.181 278.403 353.462 277.616 354.873 277.158C356.233 276.665 357.635 276.298 359.062 276.061C361.894 275.549 364.734 275.319 367.492 274.689C368.857 274.384 370.184 273.931 371.451 273.34C372.673 272.688 373.766 271.818 374.676 270.774C376.425 268.614 377.969 266.296 379.288 263.849C380.712 261.484 382.15 259.06 384.263 257.221C385.311 256.275 386.565 255.587 387.926 255.211C389.271 254.899 390.659 254.806 392.034 254.937C394.708 255.295 397.352 255.85 399.945 256.598C402.477 257.358 405.108 257.738 407.752 257.725C409.033 257.623 410.287 257.302 411.459 256.776C412.634 256.229 413.758 255.579 414.818 254.833C416.968 253.35 418.963 251.727 421.091 250.281C422.146 249.542 423.262 248.895 424.427 248.346C425.01 248.074 425.609 247.839 426.221 247.641C426.533 247.552 426.852 247.5 427.163 247.426L427.63 247.322H428.112C429.392 247.202 430.684 247.353 431.901 247.767L432.798 248.086C433.087 248.205 433.369 248.346 433.658 248.479C434.244 248.731 434.77 249.072 435.319 249.369C437.462 250.674 439.389 252.231 441.362 253.677C443.247 255.183 445.346 256.4 447.59 257.287C449.878 257.915 452.287 257.958 454.596 257.414C456.91 256.983 459.164 256.331 461.425 255.79C463.664 255.174 465.985 254.904 468.306 254.989C470.614 255.201 472.763 256.257 474.341 257.955C475.834 259.607 477.14 261.42 478.234 263.36C479.361 265.236 480.413 267.134 481.629 268.884C482.761 270.653 484.283 272.139 486.078 273.228C487.915 274.163 489.894 274.787 491.935 275.075C493.945 275.438 495.961 275.668 497.934 275.994C499.901 276.267 501.826 276.785 503.665 277.536C505.475 278.294 506.995 279.611 508.002 281.295C508.908 282.953 509.532 284.749 509.849 286.611C510.59 290.237 510.783 293.841 511.717 297.177C512.146 298.823 512.919 300.36 513.986 301.685C515.07 302.917 516.317 303.995 517.693 304.888C520.385 306.705 523.217 308.106 525.686 309.87C526.919 310.711 528.038 311.708 529.015 312.836C529.934 313.948 530.577 315.262 530.891 316.669C531.149 318.021 531.187 319.406 531.002 320.77C530.832 322.066 530.584 323.351 530.26 324.618C529.667 327.094 528.985 329.415 528.57 331.669C528.088 333.772 528.088 335.957 528.57 338.06C529.122 339.871 529.971 341.577 531.084 343.109C533.078 346.016 534.998 348.299 536.274 350.368C537.319 351.884 538.074 353.581 538.498 355.373C538.602 355.828 538.662 356.292 538.676 356.759C538.765 357.026 538.764 357.189 538.764 357.189Z" fill="#263238"/>
        <path d="M408.346 459.108C408.449 459.108 405.714 470.23 402.236 483.887C398.759 497.544 395.852 508.599 395.749 508.577C395.645 508.555 398.381 497.455 401.858 483.79C405.335 470.126 408.271 459.049 408.346 459.108Z" fill="#263238"/>
        <path d="M428.973 424.497C466.146 424.497 496.281 394.362 496.281 357.189C496.281 320.016 466.146 289.881 428.973 289.881C391.799 289.881 361.665 320.016 361.665 357.189C361.665 394.362 391.799 424.497 428.973 424.497Z" fill="white"/>
        <path d="M387.524 333.864C386.597 334.79 381.496 344.073 381.029 351.732C380.562 359.391 381.667 402.38 381.667 402.38L381.867 405.235C393.982 419.404 438.024 440.49 477.691 405.161L479.915 378.713L473.368 322.727L450.606 317.159L445.275 308.521L409.745 316.84L406.572 324.329L387.524 333.864Z" fill="#455A64"/>
        <path d="M442.838 286.011C444.402 280.191 445.937 274.333 446.478 268.335C447.019 262.337 446.522 256.138 444.135 250.607C443.772 249.769 440.769 244.171 439.864 244.312C439.219 244.409 441.162 249.673 440.865 250.244C438.011 255.782 437.492 262.285 438.315 268.461C439.164 274.459 440.681 280.343 442.838 286.003" fill="#263238"/>
        <path d="M442.243 263.026C441.962 247.923 432.931 235.504 417.843 236.208L416.449 236.357C409.7 237.068 403.467 240.294 398.988 245.392C394.509 250.49 392.114 257.087 392.278 263.871C392.604 276.958 393.123 291.416 393.946 298.371C395.644 312.762 410.258 313.489 410.258 313.489L410.932 322.957L417.123 329.682L445.825 311.887L442.243 263.026Z" fill="#FFBF9D"/>
        <path d="M410.296 313.6C410.296 313.6 419.438 313.177 428.476 306.074C428.476 306.074 425.451 319.131 410.934 319.346L410.296 313.6Z" fill="#FF9A6C"/>
        <path d="M400.576 275.609C400.627 276.15 400.889 276.649 401.305 276.999C401.721 277.348 402.258 277.52 402.8 277.477C403.064 277.47 403.324 277.411 403.565 277.302C403.805 277.194 404.022 277.038 404.202 276.845C404.381 276.652 404.52 276.424 404.611 276.176C404.701 275.928 404.741 275.665 404.728 275.401C404.675 274.86 404.413 274.362 403.997 274.013C403.581 273.664 403.045 273.491 402.504 273.532C402.24 273.538 401.979 273.597 401.738 273.705C401.497 273.813 401.28 273.969 401.1 274.162C400.92 274.356 400.781 274.584 400.691 274.832C400.601 275.081 400.562 275.345 400.576 275.609Z" fill="#263238"/>
        <path d="M395.994 269.529C396.276 269.766 397.714 268.453 399.931 268.224C402.148 267.994 403.883 268.965 404.098 268.631C404.202 268.505 403.891 268.046 403.127 267.601C402.099 267.041 400.924 266.81 399.761 266.941C398.609 267.06 397.524 267.54 396.662 268.313C396.031 268.913 395.853 269.417 395.994 269.529Z" fill="#263238"/>
        <path d="M420.14 273.948C420.191 274.489 420.453 274.988 420.869 275.338C421.285 275.688 421.823 275.859 422.364 275.816C422.628 275.809 422.888 275.75 423.129 275.642C423.369 275.533 423.586 275.377 423.766 275.184C423.945 274.991 424.084 274.763 424.175 274.515C424.265 274.267 424.305 274.004 424.292 273.74C424.241 273.198 423.98 272.698 423.564 272.347C423.148 271.996 422.61 271.823 422.068 271.864C421.804 271.872 421.544 271.932 421.303 272.041C421.062 272.151 420.846 272.307 420.666 272.501C420.487 272.695 420.348 272.923 420.257 273.171C420.167 273.42 420.127 273.684 420.14 273.948Z" fill="#263238"/>
        <path d="M417.784 268.135C418.066 268.379 419.512 267.06 421.721 266.83C423.931 266.6 425.681 267.571 425.888 267.245C425.992 267.112 425.688 266.652 424.924 266.214C423.895 265.651 422.716 265.421 421.551 265.555C420.397 265.668 419.311 266.149 418.452 266.926C417.829 267.519 417.651 268.031 417.784 268.135Z" fill="#263238"/>
        <path d="M411.629 285.996C411.629 285.87 410.228 285.774 407.966 285.722C407.396 285.722 406.847 285.67 406.713 285.292C406.602 284.714 406.671 284.115 406.914 283.579L408.13 279.13C409.805 272.754 410.955 267.534 410.702 267.467C410.45 267.401 408.871 272.517 407.195 278.9L406.054 283.386C405.774 284.098 405.753 284.885 405.994 285.61C406.095 285.804 406.24 285.971 406.416 286.099C406.592 286.228 406.795 286.314 407.01 286.352C407.333 286.391 407.659 286.391 407.981 286.352C410.243 286.256 411.637 286.122 411.629 285.996Z" fill="#263238"/>
        <path d="M418.311 286.841C417.947 286.841 418.199 289.258 416.324 291.186C414.448 293.114 411.875 293.114 411.875 293.455C411.875 293.603 412.49 293.863 413.58 293.774C414.984 293.642 416.297 293.02 417.287 292.017C418.233 291.046 418.765 289.746 418.77 288.391C418.807 287.375 418.474 286.812 418.311 286.841Z" fill="#263238"/>
        <path d="M416.962 259.134C417.244 259.712 419.424 259.193 422.056 259.238C424.688 259.282 426.868 259.764 427.149 259.186C427.275 258.911 426.853 258.385 425.941 257.888C424.731 257.302 423.404 256.997 422.059 256.997C420.715 256.997 419.388 257.302 418.178 257.888C417.244 258.333 416.836 258.859 416.962 259.134Z" fill="#263238"/>
        <path d="M396.134 262.07C396.571 262.529 398.047 261.847 399.878 261.625C401.709 261.402 403.303 261.625 403.585 261.047C403.719 260.772 403.422 260.305 402.695 259.89C401.722 259.415 400.63 259.24 399.556 259.386C398.483 259.533 397.478 259.995 396.667 260.713C396.089 261.299 395.933 261.84 396.134 262.07Z" fill="#263238"/>
        <path d="M442.192 273.829C442.429 273.696 451.786 269.855 452.513 279.761C453.24 289.666 443.193 288.317 443.126 288.035C443.06 287.753 442.192 273.829 442.192 273.829Z" fill="#FFBF9D"/>
        <path d="M445.871 284.068C445.915 284.068 446.049 284.172 446.353 284.283C446.775 284.43 447.238 284.406 447.643 284.217C448.659 283.757 449.415 282.037 449.333 280.25C449.299 279.4 449.074 278.569 448.674 277.818C448.558 277.516 448.37 277.248 448.128 277.034C447.885 276.821 447.594 276.67 447.28 276.595C447.079 276.555 446.871 276.587 446.691 276.687C446.512 276.786 446.374 276.945 446.301 277.136C446.182 277.425 446.264 277.618 446.212 277.64C446.16 277.662 445.99 277.484 446.034 277.077C446.073 276.826 446.196 276.596 446.383 276.424C446.64 276.2 446.976 276.085 447.317 276.105C447.729 276.154 448.121 276.309 448.455 276.554C448.789 276.8 449.053 277.128 449.222 277.507C449.709 278.331 449.984 279.264 450.023 280.22C450.105 282.215 449.222 284.157 447.799 284.669C447.539 284.767 447.262 284.805 446.986 284.78C446.71 284.756 446.443 284.67 446.205 284.528C445.908 284.306 445.841 284.083 445.871 284.068Z" fill="#FF9A6C"/>
        <path d="M397.624 247.056C395.97 246.27 400.441 240.776 404.297 238.737C410.073 235.66 419.044 233.413 424.627 234.614C431.352 236.097 437.046 238.989 440.746 244.787C444.446 250.585 446.144 257.502 446.396 264.376C446.47 266.474 446.396 268.669 445.387 270.507C444.149 272.784 441.584 274.333 441.895 277.343C441.969 277.887 441.934 278.44 441.792 278.97C441.649 279.499 441.402 279.995 441.065 280.428C439.374 282.474 437.046 280.806 435.912 279.056C433.487 275.349 432.946 270.715 432.471 266.281C432.13 263.137 431.797 259.92 432.471 256.835C432.842 255.152 433.524 253.543 433.806 251.845C434.088 250.147 433.917 248.257 432.79 246.952C432.528 246.678 432.24 246.43 431.93 246.21C430.472 245.091 428.74 244.381 426.916 244.154C425.091 243.927 423.238 244.192 421.55 244.92C416.1 247.248 406.781 250.807 404.171 249.072C400.426 246.581 399.448 244.831 399.448 244.831L397.624 247.056Z" fill="#263238"/>
        <path d="M387.524 333.864C386.953 334.657 378.85 337.348 375.773 342.472C372.696 347.595 369.656 370.594 369.656 370.594L367.698 385.705C371.554 391.8 376.729 399.874 382.216 405.568L387.524 333.864Z" fill="#455A64"/>
        <path d="M448.418 356.047C448.636 359.148 449.224 362.212 450.168 365.175C451.228 368.088 453.089 370.832 455.81 372.337C456.944 372.96 458.227 373.375 459.184 374.265C460.14 375.154 460.718 376.593 461.645 377.638C462.805 378.788 464.235 379.627 465.805 380.078C470.221 381.697 474.908 382.452 479.61 382.302C479.759 380.715 479.766 374.887 479.914 373.293L448.418 356.047Z" fill="black"/>
        <path d="M473.371 322.727C473.371 322.727 483.588 325.752 486.584 330.105C489.579 334.457 494.881 351.332 495.971 354.461C497.06 357.59 496.104 364.841 494.065 370.031C492.026 375.221 488.482 379.737 482.365 380.411C476.248 381.086 466.58 377.557 464.4 375.221C462.22 372.886 461.323 367.718 461.323 367.718C464.04 367.242 466.718 366.57 469.338 365.709" fill="#455A64"/>
        <path d="M469.335 365.76L469.209 365.812L468.824 365.953C468.483 366.072 467.971 366.242 467.297 366.442C465.347 367.025 463.367 367.501 461.365 367.866L461.447 367.755C461.695 369.029 462.045 370.281 462.492 371.499C462.736 372.19 463.031 372.861 463.374 373.508C463.726 374.2 464.19 374.828 464.746 375.369C465.374 375.908 466.066 376.366 466.807 376.734C467.59 377.145 468.394 377.513 469.217 377.838C470.981 378.544 472.795 379.119 474.644 379.558C476.64 380.048 478.684 380.309 480.739 380.337C481.274 380.342 481.808 380.317 482.34 380.263C482.877 380.201 483.409 380.107 483.934 379.981C485.012 379.739 486.046 379.337 487.004 378.787C488.999 377.634 490.673 376 491.875 374.035C493.147 371.994 494.12 369.782 494.767 367.466C495.295 365.686 495.689 363.869 495.946 362.031C496.222 360.251 496.311 358.447 496.213 356.648C496.154 355.783 495.977 354.929 495.686 354.112C495.405 353.282 495.13 352.459 494.863 351.643L493.269 346.876C492.216 343.777 491.178 340.848 490.14 338.127C489.229 335.595 488.131 333.134 486.856 330.764C486.266 329.757 485.479 328.879 484.542 328.184C483.726 327.534 482.858 326.952 481.947 326.442C480.485 325.607 478.972 324.864 477.417 324.217C476.142 323.691 475.134 323.32 474.451 323.075L473.673 322.801C473.58 322.776 473.491 322.742 473.406 322.697C473.5 322.709 473.592 322.732 473.68 322.764L474.474 323.001C475.171 323.224 476.194 323.572 477.484 324.076C479.052 324.695 480.58 325.411 482.059 326.219C482.986 326.729 483.871 327.312 484.706 327.962C485.67 328.669 486.482 329.565 487.093 330.594C488.397 332.976 489.518 335.455 490.444 338.008C491.505 340.722 492.55 343.658 493.61 346.757C494.137 348.307 494.671 349.901 495.219 351.525C495.494 352.333 495.768 353.156 496.042 353.986C496.347 354.831 496.534 355.715 496.598 356.611C496.704 358.436 496.617 360.268 496.339 362.075C496.077 363.934 495.678 365.77 495.145 367.569C494.483 369.925 493.484 372.172 492.179 374.242C490.943 376.26 489.22 377.935 487.167 379.114C486.178 379.676 485.111 380.088 484.001 380.337C483.461 380.466 482.914 380.562 482.363 380.626C481.814 380.626 481.265 380.723 480.731 380.7C478.649 380.662 476.577 380.389 474.555 379.885C472.69 379.437 470.861 378.85 469.083 378.128C468.256 377.793 467.446 377.414 466.659 376.993C465.896 376.611 465.184 376.135 464.538 375.577C463.965 375.009 463.489 374.35 463.13 373.627C462.786 372.97 462.491 372.289 462.247 371.588C461.813 370.348 461.473 369.076 461.232 367.784V367.688H461.328C463.938 367.236 465.94 366.724 467.297 366.353L469.232 365.805C469.291 365.76 469.335 365.753 469.335 365.76Z" fill="#263238"/>
        <path d="M488.086 360.296C488.012 360.296 487.774 359.035 486.922 357.152C485.802 354.704 484.238 352.484 482.31 350.605C481.241 349.588 480.033 348.729 478.721 348.055L477.824 347.654C477.528 347.521 477.216 347.461 476.934 347.365C476.401 347.197 475.852 347.083 475.296 347.024L474.925 346.972H473.917C473.569 346.967 473.221 346.997 472.879 347.061C472.581 347.121 472.278 347.153 471.974 347.158C472.255 347.041 472.549 346.959 472.849 346.913C473.194 346.815 473.551 346.763 473.909 346.757H474.94L475.325 346.802C475.9 346.842 476.469 346.941 477.023 347.098C477.335 347.176 477.641 347.27 477.943 347.38L478.877 347.78C480.237 348.452 481.487 349.327 482.584 350.375C484.554 352.279 486.116 354.565 487.174 357.093C487.363 357.523 487.526 357.963 487.663 358.413C487.777 358.75 487.871 359.094 487.945 359.443C488.019 359.722 488.066 360.008 488.086 360.296Z" fill="#263238"/>
        <path d="M493.661 351.124C493.24 350.045 492.724 349.006 492.119 348.018C490.583 345.672 488.283 343.931 485.609 343.087C482.473 342.131 479.426 342.427 477.298 342.627L474.755 342.931C474.446 342.987 474.134 343.014 473.82 343.013C474.114 342.898 474.42 342.821 474.732 342.783C475.326 342.665 476.215 342.509 477.268 342.361C480.078 341.869 482.962 341.991 485.721 342.716C487.231 343.17 488.634 343.927 489.843 344.941C490.833 345.782 491.679 346.779 492.349 347.892C492.808 348.622 493.174 349.407 493.439 350.227C493.548 350.517 493.622 350.818 493.661 351.124Z" fill="#263238"/>
        <path d="M485.96 340.158C481.963 339.216 477.785 339.38 473.875 340.633C474.388 340.298 474.951 340.048 475.543 339.891C476.946 339.46 478.399 339.211 479.866 339.15C481.332 339.098 482.8 339.232 484.233 339.55C484.836 339.666 485.418 339.871 485.96 340.158Z" fill="#263238"/>
        <path d="M469.426 325.278C469.485 325.278 469.337 326.323 469.218 327.999C468.907 332.291 469.277 336.605 470.315 340.781L470.048 340.87C469.745 340.017 469.507 339.32 469.352 338.831C469.255 338.593 469.185 338.344 469.144 338.09C469.295 338.32 469.415 338.569 469.5 338.831C469.7 339.298 469.974 339.98 470.315 340.826L470.048 340.907C469.461 338.856 469.072 336.753 468.884 334.627C468.69 332.428 468.71 330.216 468.944 328.021C469.04 327.183 469.151 326.538 469.24 326.041C469.265 325.779 469.328 325.522 469.426 325.278Z" fill="#263238"/>
        <path d="M454.976 306.26C454.976 306.26 449.675 306.26 449.007 312.629C448.496 317.522 449.007 322.267 449.007 324.417C449.007 326.568 448.066 334.182 448.066 334.182C448.066 334.182 444.447 337.393 444.507 341.248C444.566 345.104 447.324 346.305 447.324 346.305C446.862 347.5 446.76 348.804 447.031 350.056C447.303 351.308 447.936 352.453 448.852 353.349C448.852 353.349 447.317 356.9 448.577 359.28C449.304 360.464 450.437 361.342 451.765 361.749C451.548 362.218 451.433 362.727 451.43 363.244C451.426 363.76 451.533 364.272 451.744 364.743C451.955 365.215 452.265 365.636 452.652 365.978C453.039 366.319 453.496 366.574 453.99 366.724C455.771 367.276 457.637 367.504 459.499 367.399L463.458 367.325L466.943 369.252C466.943 369.252 472.919 366.65 473.067 363.128L473.223 359.606C473.223 359.606 471.51 353.823 471.369 351.969C471.228 350.116 472.748 345.689 471.829 343.702C470.91 341.715 467.699 340.544 468.003 337.771C468.307 334.998 467.699 333.456 466.32 331.921C464.941 330.386 458.854 327.331 458.854 327.331C458.854 327.331 457.289 322.883 457.289 319.835C457.289 316.788 460.337 307.424 454.976 306.26Z" fill="#FFBF9D"/>
 </g>
</svg>
