<svg width="257" height="147" viewBox="0 0 257 147" fill="none" xmlns="http://www.w3.org/2000/svg">
    <path d="M44.3642 39.752C43.1482 39.752 42.5402 38.136 42.5402 34.904C42.5402 33.784 42.6362 32.12 42.8282 29.912C42.9562 28.792 43.0362 27.816 43.0682 26.984C43.1322 26.12 43.1642 25.416 43.1642 24.872C42.7482 25.096 42.4122 25.208 42.1562 25.208C42.0282 25.208 41.9642 25.096 41.9642 24.872C41.9642 24.04 42.5562 23.288 43.7402 22.616C44.4122 19.768 44.7482 16.904 44.7482 14.024C44.7482 13.608 44.7482 13.208 44.7482 12.824C44.7482 12.44 44.7322 12.056 44.7002 11.672C45.3082 10.584 45.9002 10.04 46.4762 10.04C46.8922 10.04 47.1002 10.44 47.1002 11.24C47.1002 11.848 47.0202 12.632 46.8602 13.592C46.7322 14.52 46.5082 15.592 46.1882 16.808C45.6122 19.24 45.3242 21.08 45.3242 22.328C45.5482 22.488 45.8362 22.568 46.1882 22.568C47.8202 22.568 50.2842 21.448 53.5802 19.208C57.0682 16.872 58.8122 14.952 58.8122 13.448C58.8122 11.048 55.2602 9.848 48.1562 9.848C46.4922 9.848 44.8282 9.896 43.1642 9.992C41.5322 10.088 39.8682 10.248 38.1722 10.472C38.7162 8.84 39.4842 8.024 40.4762 8.024H42.5402C42.7002 8.024 42.8762 8.024 43.0682 8.024C43.2922 8.024 43.5322 8.008 43.7882 7.976H44.6522C55.1162 7.976 60.3482 9.528 60.3482 12.632C60.3482 15.416 57.0362 18.472 50.4122 21.8C51.2122 21.928 52.2042 22.12 53.3882 22.376C54.6042 22.6 55.9962 22.888 57.5642 23.24C61.0202 24.104 62.7482 25.32 62.7482 26.888C62.7482 28.36 60.7322 30.472 56.7002 33.224C55.0682 34.312 53.5482 35.256 52.1402 36.056C50.7642 36.856 49.4842 37.48 48.3002 37.928C48.1722 37.96 48.0602 37.976 47.9642 37.976C47.9002 38.008 47.8362 38.024 47.7722 38.024C47.4202 38.024 47.2442 37.848 47.2442 37.496C47.2442 37.08 47.6762 36.664 48.5402 36.248L50.3642 35.528C56.6362 32.904 59.7722 30.456 59.7722 28.184C59.7722 26.616 58.3002 25.4 55.3562 24.536C53.3082 23.928 51.1962 23.624 49.0202 23.624C47.1642 23.624 45.8362 23.832 45.0362 24.248C44.5562 26.2 44.3162 28.664 44.3162 31.64C44.3162 35.576 44.8762 37.768 45.9962 38.216C45.4522 39.24 44.9082 39.752 44.3642 39.752ZM69.6497 35.528C67.4417 35.528 66.3377 33.864 66.3377 30.536C66.3377 29.992 66.3537 29.464 66.3857 28.952C66.4497 28.408 66.5457 27.88 66.6737 27.368C66.2897 27.112 66.0977 26.904 66.0977 26.744C66.0977 26.456 66.4337 26.2 67.1057 25.976C67.4257 25.016 67.8897 23.928 68.4977 22.712C69.3617 21.048 70.0177 20.216 70.4657 20.216C70.9777 20.216 71.3617 20.44 71.6177 20.888C71.8097 20.44 72.0337 20.216 72.2897 20.216C73.1857 20.216 73.6337 20.76 73.6337 21.848C73.6337 22.68 73.4737 23.416 73.1537 24.056C73.3777 24.312 73.4897 24.552 73.4897 24.776C73.4897 24.84 73.4417 24.904 73.3457 24.968L70.6577 25.832C70.1457 25.992 69.6817 26.2 69.2657 26.456C68.8817 26.712 68.5297 26.984 68.2097 27.272C67.8577 28.328 67.6817 29.464 67.6817 30.68C67.6817 33.368 68.5137 34.712 70.1777 34.712C72.3857 34.712 74.4657 32.92 76.4177 29.336C76.5137 29.176 76.5937 29.096 76.6577 29.096C76.7537 29.096 76.8017 29.192 76.8017 29.384C76.8017 29.544 76.7537 29.72 76.6577 29.912C75.8897 31.448 74.9617 32.712 73.8737 33.704C72.4977 34.92 71.0897 35.528 69.6497 35.528ZM68.7857 25.592C69.1057 25.496 69.4737 25.384 69.8897 25.256C70.3377 25.096 70.8177 24.904 71.3297 24.68C71.4897 24.552 71.6977 24.152 71.9537 23.48C72.1777 22.904 72.2897 22.44 72.2897 22.088C72.2897 21.672 72.1297 21.464 71.8097 21.464C71.4577 21.464 70.8817 22.056 70.0817 23.24C69.2497 24.392 68.8177 25.176 68.7857 25.592ZM103.247 37.688C99.6315 37.688 96.5755 36.536 94.0795 34.232C91.4875 31.864 90.1915 28.904 90.1915 25.352C90.1915 20.2 92.3675 15.88 96.7195 12.392C100.783 9.096 105.439 7.448 110.687 7.448C112.511 7.448 113.983 7.864 115.103 8.696C115.935 7.064 116.527 6.248 116.879 6.248C116.975 6.248 117.023 6.296 117.023 6.392C117.023 6.52 116.831 6.952 116.447 7.688C116.319 7.912 116.191 8.152 116.063 8.408C115.935 8.632 115.807 8.872 115.679 9.128C116.511 9.96 116.927 10.792 116.927 11.624C116.927 11.912 116.847 12.088 116.687 12.152L115.247 10.424C115.087 11.064 114.943 11.816 114.815 12.68C114.719 13.512 114.655 14.456 114.623 15.512C114.623 15.736 114.591 16.056 114.527 16.472C114.495 16.856 114.447 17.352 114.383 17.96C114.255 19.144 113.855 19.736 113.183 19.736C112.671 19.736 112.415 19.08 112.415 17.768C112.415 15.912 113.119 13.304 114.527 9.944C113.503 9.4 112.239 9.128 110.735 9.128C106.159 9.128 101.919 10.904 98.0155 14.456C93.9835 18.104 91.9675 22.184 91.9675 26.696C91.9675 30.056 93.1675 32.6 95.5675 34.328C97.6155 35.8 100.399 36.536 103.919 36.536C106.895 36.536 110.191 35.448 113.807 33.272C117.263 31.224 119.871 28.888 121.631 26.264C121.759 26.04 121.903 25.928 122.063 25.928C122.287 25.928 122.399 26.088 122.399 26.408C122.399 26.504 122.351 26.6 122.255 26.696C120.111 29.64 117.327 32.168 113.903 34.28C110.127 36.552 106.575 37.688 103.247 37.688ZM122.495 36.44C122.431 36.376 122.399 36.328 122.399 36.296C122.431 36.072 122.479 35.672 122.543 35.096C122.639 34.52 122.751 33.736 122.879 32.744C123.135 30.824 123.327 29.144 123.455 27.704C123.583 26.264 123.647 25.064 123.647 24.104C123.647 23.112 123.567 22.344 123.407 21.8C123.279 21.672 123.023 21.608 122.639 21.608C122.447 21.608 122.159 21.656 121.775 21.752C121.391 21.848 121.119 21.896 120.959 21.896C120.799 21.896 120.719 21.848 120.719 21.752C120.719 21.656 121.135 21.384 121.967 20.936C123.695 20.104 124.495 19.688 124.367 19.688C124.975 19.688 125.279 20.6 125.279 22.424C125.279 23.224 125.135 24.44 124.847 26.072C124.719 26.872 124.623 27.576 124.559 28.184C124.495 28.76 124.463 29.256 124.463 29.672V29.816C126.351 26.648 128.271 24.088 130.223 22.136C130.959 21.56 131.647 21.272 132.287 21.272C132.383 21.272 132.431 21.304 132.431 21.368C132.111 22.008 131.855 22.52 131.663 22.904C131.503 23.288 131.391 23.56 131.327 23.72C131.071 24.36 130.863 25.24 130.703 26.36C130.671 26.776 130.575 26.984 130.415 26.984C129.871 26.984 129.599 26.216 129.599 24.68C129.599 24.552 129.599 24.424 129.599 24.296C129.599 24.168 129.615 24.04 129.647 23.912C128.847 24.68 128.111 25.496 127.439 26.36C126.799 27.224 126.207 28.136 125.663 29.096C124.351 31.432 123.759 33.48 123.887 35.24C123.727 35.432 123.519 35.624 123.263 35.816C123.039 36.008 122.783 36.216 122.495 36.44ZM138.007 35.528C135.799 35.528 134.695 33.864 134.695 30.536C134.695 29.992 134.711 29.464 134.743 28.952C134.807 28.408 134.903 27.88 135.031 27.368C134.647 27.112 134.455 26.904 134.455 26.744C134.455 26.456 134.791 26.2 135.463 25.976C135.783 25.016 136.247 23.928 136.855 22.712C137.719 21.048 138.375 20.216 138.823 20.216C139.335 20.216 139.719 20.44 139.975 20.888C140.167 20.44 140.391 20.216 140.647 20.216C141.543 20.216 141.991 20.76 141.991 21.848C141.991 22.68 141.831 23.416 141.511 24.056C141.735 24.312 141.847 24.552 141.847 24.776C141.847 24.84 141.799 24.904 141.703 24.968L139.015 25.832C138.503 25.992 138.039 26.2 137.623 26.456C137.239 26.712 136.887 26.984 136.567 27.272C136.215 28.328 136.039 29.464 136.039 30.68C136.039 33.368 136.871 34.712 138.535 34.712C140.743 34.712 142.823 32.92 144.775 29.336C144.871 29.176 144.951 29.096 145.015 29.096C145.111 29.096 145.159 29.192 145.159 29.384C145.159 29.544 145.111 29.72 145.015 29.912C144.247 31.448 143.319 32.712 142.231 33.704C140.855 34.92 139.447 35.528 138.007 35.528ZM137.143 25.592C137.463 25.496 137.831 25.384 138.247 25.256C138.695 25.096 139.175 24.904 139.687 24.68C139.847 24.552 140.055 24.152 140.311 23.48C140.535 22.904 140.647 22.44 140.647 22.088C140.647 21.672 140.487 21.464 140.167 21.464C139.815 21.464 139.239 22.056 138.439 23.24C137.607 24.392 137.175 25.176 137.143 25.592ZM147.432 34.088C146.504 34.088 146.04 33.512 146.04 32.36C146.04 30.856 146.824 28.984 148.392 26.744C149.064 25.752 149.752 24.872 150.456 24.104C151.16 23.336 151.864 22.648 152.568 22.04C153.496 21.272 154.344 20.888 155.112 20.888C155.592 20.888 155.992 21.096 156.312 21.512C156.632 21.896 156.792 22.328 156.792 22.808C156.792 23.032 156.728 23.144 156.6 23.144C156.6 23.144 156.488 23.032 156.264 22.808C156.04 22.584 155.672 22.472 155.16 22.472C154.424 22.472 153.784 22.648 153.24 23C151.832 23.992 150.536 25.256 149.352 26.792C147.976 28.584 147.288 30.2 147.288 31.64C147.288 32.376 147.544 32.744 148.056 32.744C148.888 32.744 150.2 31.512 151.992 29.048C152.76 27.96 153.384 27 153.864 26.168C154.376 25.304 154.744 24.568 154.968 23.96C155.192 23.736 155.448 23.624 155.736 23.624C155.896 23.624 155.992 23.688 156.024 23.816C155.8 24.232 155.688 24.984 155.688 26.072C155.688 27.448 155.848 28.68 156.168 29.768C156.648 31.464 157.336 32.312 158.232 32.312C158.808 32.312 159.416 31.816 160.056 30.824L161.064 29.288C161.096 29.32 161.112 29.352 161.112 29.384C161.112 29.896 160.632 30.76 159.672 31.976C158.712 33.16 157.976 33.752 157.464 33.752C156.632 33.752 155.864 32.824 155.16 30.968C154.616 29.432 154.344 28.136 154.344 27.08C151.208 31.752 148.904 34.088 147.432 34.088ZM167.512 36.056C166.328 36.056 165.736 34.504 165.736 31.4C165.736 30.568 165.784 29.304 165.88 27.608C165.976 25.88 166.136 23.736 166.36 21.176C164.12 21.464 162.808 21.608 162.424 21.608C162.136 21.608 161.992 21.544 161.992 21.416C161.992 21.064 162.264 20.744 162.808 20.456C163.256 20.2 163.672 20.072 164.056 20.072C164.216 20.072 164.296 20.088 164.296 20.12C164.264 20.152 164.248 20.184 164.248 20.216C164.248 20.248 164.232 20.296 164.2 20.36H164.344C164.728 20.36 165.416 20.312 166.408 20.216C166.504 20.056 166.552 19.384 166.552 18.2C166.552 15.096 166.232 13.544 165.592 13.544C165.4 13.544 165.064 13.64 164.584 13.832C164.136 14.024 163.896 14.12 163.864 14.12L163.72 14.024C163.752 13.992 163.784 13.96 163.816 13.928C163.848 13.896 163.896 13.864 163.96 13.832L165.544 12.344C166.408 11.544 166.92 11.112 167.08 11.048C167.784 11.048 168.136 12.072 168.136 14.12C168.136 14.76 168.104 15.576 168.04 16.568C167.976 17.528 167.88 18.664 167.752 19.976C168.2 19.944 168.6 19.928 168.952 19.928C169.336 19.896 169.64 19.88 169.864 19.88C171.496 19.88 172.424 20.088 172.648 20.504C172.52 20.696 172.376 20.792 172.216 20.792C172.024 20.792 171.72 20.776 171.304 20.744C170.92 20.712 170.632 20.696 170.44 20.696C170.184 20.696 169.816 20.728 169.336 20.792C168.888 20.824 168.344 20.872 167.704 20.936C167.544 22.344 167.416 23.656 167.32 24.872C167.224 26.056 167.176 27.112 167.176 28.04C167.176 32.392 167.72 34.568 168.808 34.568C169.48 34.568 170.168 33.992 170.872 32.84C171 32.84 171.064 32.952 171.064 33.176C171.064 33.624 170.584 34.216 169.624 34.952C168.696 35.688 167.992 36.056 167.512 36.056ZM177.41 16.472C176.674 16.472 176.306 16.152 176.306 15.512C176.306 14.904 176.642 14.456 177.314 14.168L178.946 13.448C179.074 13.384 179.17 13.352 179.234 13.352C179.458 13.352 179.57 13.496 179.57 13.784C179.57 13.88 179.362 14.184 178.946 14.696C178.53 15.208 178.29 15.592 178.226 15.848C178.098 16.264 177.826 16.472 177.41 16.472ZM178.562 35.72C177.57 35.72 177.074 34.616 177.074 32.408C177.074 31.64 177.122 30.568 177.218 29.192C177.314 27.752 177.362 26.664 177.362 25.928C177.362 23.72 176.77 22.616 175.586 22.616C175.458 22.616 175.266 22.648 175.01 22.712C174.786 22.776 174.626 22.808 174.53 22.808C174.37 22.808 174.29 22.744 174.29 22.616C174.29 22.36 174.834 22.072 175.922 21.752C177.042 21.368 177.762 21.176 178.082 21.176C178.562 21.176 178.802 21.88 178.802 23.288C178.802 23.64 178.77 24.104 178.706 24.68C178.674 25.256 178.626 25.912 178.562 26.648C178.498 27.384 178.45 28.04 178.418 28.616C178.386 29.16 178.37 29.608 178.37 29.96C178.37 32.904 178.85 34.376 179.81 34.376C180.546 34.376 181.346 33.864 182.21 32.84C182.306 32.84 182.354 32.92 182.354 33.08C182.354 33.496 181.842 34.04 180.818 34.712C179.826 35.384 179.074 35.72 178.562 35.72ZM187.878 35.816C187.654 35.816 187.542 35.672 187.542 35.384C187.542 34.936 187.574 34.296 187.638 33.464C187.734 32.6 187.782 31.944 187.782 31.496C187.782 29.32 187.302 27.112 186.342 24.872C186.374 25 186.39 25.16 186.39 25.352C186.39 25.448 186.342 25.544 186.246 25.64L186.102 25.448C185.878 25.032 185.638 24.664 185.382 24.344C185.158 23.992 184.934 23.656 184.71 23.336C184.71 23.08 184.822 22.792 185.046 22.472C185.27 22.152 185.51 21.992 185.766 21.992C185.83 21.992 185.878 22.008 185.91 22.04C186.838 22.392 187.622 23.816 188.262 26.312C188.518 27.304 188.71 28.232 188.838 29.096C188.966 29.928 189.046 30.712 189.078 31.448C189.462 29.912 190.47 27.576 192.102 24.44C193.958 20.856 195.414 19.064 196.47 19.064C197.11 19.064 197.43 19.64 197.43 20.792C197.43 21.208 197.318 21.416 197.094 21.416L196.902 21.224C196.774 21.128 196.63 21.08 196.47 21.08C195.67 21.08 194.566 22.12 193.158 24.2C192.166 25.608 191.35 27.064 190.71 28.568C190.07 30.04 189.574 31.528 189.222 33.032C189.19 33.64 189.046 34.424 188.79 35.384C188.662 35.672 188.358 35.816 187.878 35.816ZM201.691 35.528C199.483 35.528 198.379 33.864 198.379 30.536C198.379 29.992 198.395 29.464 198.427 28.952C198.491 28.408 198.587 27.88 198.715 27.368C198.331 27.112 198.139 26.904 198.139 26.744C198.139 26.456 198.475 26.2 199.147 25.976C199.467 25.016 199.931 23.928 200.539 22.712C201.403 21.048 202.059 20.216 202.507 20.216C203.019 20.216 203.403 20.44 203.659 20.888C203.851 20.44 204.075 20.216 204.331 20.216C205.227 20.216 205.675 20.76 205.675 21.848C205.675 22.68 205.515 23.416 205.195 24.056C205.419 24.312 205.531 24.552 205.531 24.776C205.531 24.84 205.483 24.904 205.387 24.968L202.699 25.832C202.187 25.992 201.723 26.2 201.307 26.456C200.923 26.712 200.571 26.984 200.251 27.272C199.899 28.328 199.723 29.464 199.723 30.68C199.723 33.368 200.555 34.712 202.219 34.712C204.427 34.712 206.507 32.92 208.459 29.336C208.555 29.176 208.635 29.096 208.699 29.096C208.795 29.096 208.843 29.192 208.843 29.384C208.843 29.544 208.795 29.72 208.699 29.912C207.931 31.448 207.003 32.712 205.915 33.704C204.539 34.92 203.131 35.528 201.691 35.528ZM200.827 25.592C201.147 25.496 201.515 25.384 201.931 25.256C202.379 25.096 202.859 24.904 203.371 24.68C203.531 24.552 203.739 24.152 203.995 23.48C204.219 22.904 204.331 22.44 204.331 22.088C204.331 21.672 204.171 21.464 203.851 21.464C203.499 21.464 202.923 22.056 202.123 23.24C201.291 24.392 200.859 25.176 200.827 25.592ZM213.804 29.816C213.644 29.816 213.5 29.704 213.372 29.48C213.372 27.464 213.708 24.76 214.38 21.368L215.964 13.256C215.612 12.968 215.436 12.584 215.436 12.104C215.436 11.624 215.612 11.128 215.964 10.616C216.316 10.072 216.716 9.8 217.164 9.8C217.612 9.8 217.836 10.28 217.836 11.24C217.836 13 217.452 15.352 216.684 18.296L214.812 25.304C214.62 26.008 214.428 27.176 214.236 28.808C214.14 29.48 213.996 29.816 213.804 29.816ZM212.748 36.248C212.524 36.184 212.252 35.992 211.932 35.672C211.644 35.352 211.5 35.096 211.5 34.904C211.5 34.552 211.692 34.2 212.076 33.848C212.492 33.496 212.876 33.352 213.228 33.416C213.484 33.32 213.676 33.272 213.804 33.272C214.06 33.272 214.188 33.4 214.188 33.656C214.188 33.816 214.124 34.056 213.996 34.376C213.868 34.664 213.804 34.872 213.804 35C213.804 35.448 213.452 35.864 212.748 36.248Z" fill="#262626"/>
    <path d="M21.4981 76.5444C21.4981 76.5444 142.5 19.0444 213.997 51.0442" stroke="#FF0000" stroke-width="3" stroke-linejoin="round"/>
</svg>
