<svg width="451" height="337" viewBox="0 0 451 337" fill="none" xmlns="http://www.w3.org/2000/svg">
    <path d="M405.812 310.552H375.938V310.777H405.812V310.552Z" fill="#FF0000"/>
    <path d="M298.76 313.005H290.922V313.231H298.76V313.005Z" fill="#FF0000"/>
    <path d="M375.032 302.181H357.723V302.407H375.032V302.181Z" fill="#FF0000"/>
    <path d="M86.2777 303.697H47.3203V303.922H86.2777V303.697Z" fill="white"/>
    <path d="M100.026 303.697H94.3164V303.922H100.026V303.697Z" fill="#FF0000"/>
    <path d="M203.085 307.503H118.586V307.728H203.085V307.503Z" fill="#FF0000"/>
    <path d="M213.778 255.809H39.6102C38.2457 255.807 36.938 255.263 35.9741 254.298C35.0101 253.332 34.4687 252.023 34.4688 250.659V5.82871C34.4806 4.47213 35.0273 3.17501 35.9899 2.2191C36.9526 1.2632 38.2535 0.725713 39.6102 0.723389H213.778C215.144 0.723389 216.454 1.26602 217.419 2.23191C218.385 3.19781 218.928 4.50784 218.928 5.87381V250.659C218.928 252.025 218.385 253.335 217.419 254.301C216.454 255.267 215.144 255.809 213.778 255.809ZM39.6102 0.90379C38.3055 0.906179 37.0552 1.42611 36.1335 2.34945C35.2119 3.27279 34.6942 4.5241 34.6943 5.82871V250.659C34.6942 251.963 35.2119 253.215 36.1335 254.138C37.0552 255.061 38.3055 255.581 39.6102 255.584H213.778C215.083 255.581 216.334 255.062 217.257 254.139C218.18 253.216 218.7 251.964 218.702 250.659V5.82871C218.7 4.52328 218.18 3.27199 217.257 2.3489C216.334 1.42581 215.083 0.906174 213.778 0.90379H39.6102Z" fill="#FF0000"/>
    <path d="M408.889 255.809H234.713C233.348 255.807 232.039 255.263 231.074 254.298C230.108 253.333 229.565 252.024 229.562 250.659V5.82871C229.577 4.47131 230.125 3.17419 231.089 2.21854C232.054 1.26288 233.355 0.725687 234.713 0.723389H408.889C410.244 0.728083 411.543 1.26662 412.504 2.22227C413.464 3.17792 414.01 4.47369 414.022 5.82871V250.659C414.022 252.022 413.482 253.329 412.52 254.294C411.558 255.26 410.252 255.804 408.889 255.809ZM234.713 0.90379C233.407 0.906174 232.156 1.42581 231.233 2.3489C230.31 3.27199 229.79 4.52328 229.788 5.82871V250.659C229.79 251.964 230.31 253.216 231.233 254.139C232.156 255.062 233.407 255.581 234.713 255.584H408.889C410.195 255.581 411.446 255.062 412.369 254.139C413.292 253.216 413.812 251.964 413.814 250.659V5.82871C413.812 4.52328 413.292 3.27199 412.369 2.3489C411.446 1.42581 410.195 0.906174 408.889 0.90379H234.713Z" fill="#FF0000"/>
    <path d="M451.001 296.039H0V296.264H451.001V296.039Z" fill="white"/>
    <path d="M63.9168 205.478C58.9739 207.417 54.8066 210.944 51.1806 214.832C45.2003 221.254 40.2393 230.166 42.9453 238.536C44.2261 242.496 48.4746 246.176 52.263 244.462C55.1945 243.136 56.0965 239.42 56.1867 236.209C56.2769 232.998 55.9702 229.507 57.7652 226.828C60.0202 223.455 65.1165 222.787 68.6614 224.772C72.2062 226.756 74.2628 230.761 74.813 234.793C75.4316 239.443 74.3209 244.158 71.6921 248.043C69.4281 251.372 66.0816 254.014 64.5843 257.749C62.5638 262.764 64.3408 268.419 66.1267 273.525C66.2086 273.859 66.3695 274.168 66.5958 274.427C66.8548 274.637 67.167 274.771 67.4978 274.815C68.3861 274.936 69.2901 274.867 70.1498 274.613C71.0094 274.358 71.8049 273.923 72.4833 273.336C73.1617 272.75 73.7075 272.026 74.0843 271.213C74.4611 270.399 74.6603 269.514 74.6687 268.618C74.5604 266.507 73.3518 264.568 73.2616 262.457C73.0902 258.272 77.068 255.322 79.9724 252.31C87.901 244.056 89.1007 231.519 88.7579 220.081C88.6587 216.897 88.4513 213.605 87.0351 210.755C83.4902 203.52 70.4473 202.862 63.9168 205.478Z" fill="#FF0000"/>
    <path d="M72.9631 278.801C71.1105 279.433 69.5672 280.745 68.646 282.471C67.7248 284.198 67.4946 286.211 68.002 288.101C68.6358 289.953 69.9072 291.52 71.5891 292.521C73.2711 293.522 75.2543 293.893 77.1844 293.567C78.3867 293.327 79.5217 292.825 80.5096 292.099C81.4976 291.373 82.3146 290.439 82.9031 289.364C83.6787 287.935 83.9937 286.301 83.8047 284.687C83.6158 283.072 82.9323 281.555 81.8478 280.344C79.6198 278.062 72.9631 278.801 72.9631 278.801Z" fill="#E0E0E0"/>
    <path d="M55.1398 60.0569L49.2226 58.1537L43.0078 63.8002C42.6902 62.0928 42.8141 60.3326 43.3678 58.6866C43.9215 57.0406 44.8866 55.5633 46.1715 54.395C47.4564 53.2266 49.0185 52.406 50.7096 52.0109C52.4007 51.6157 54.1647 51.6593 55.8343 52.1373L67.4972 41.5478L76.8239 33.0781L88.4867 22.5066C88.1727 20.8005 88.2993 19.0426 88.8546 17.3991C89.4098 15.7557 90.3753 14.2812 91.6597 13.1151C92.9441 11.9491 94.5048 11.1301 96.1941 10.7358C97.8833 10.3415 99.6453 10.3848 101.313 10.8618L95.0984 16.5083L96.4153 22.5788L102.332 24.473L108.547 18.8355C108.866 20.5426 108.742 22.3029 108.189 23.9489C107.635 25.5949 106.67 27.072 105.384 28.2398C104.099 29.4076 102.536 30.2274 100.845 30.6211C99.1537 31.0148 97.3897 30.9694 95.7208 30.4893L84.0579 41.0608L74.7312 49.5396L63.0683 60.12C63.385 61.8266 63.2602 63.5857 62.7058 65.2304C62.1514 66.8751 61.1859 68.3509 59.9008 69.5175C58.6158 70.6842 57.0539 71.503 55.3634 71.8964C53.6729 72.2897 51.91 72.2444 50.2419 71.7649L56.4567 66.1274L55.1398 60.0569Z" fill="#E0E0E0"/>
    <path opacity="0.4" d="M55.1398 60.0569L49.2226 58.1537L43.0078 63.8002C42.6902 62.0928 42.8141 60.3326 43.3678 58.6866C43.9215 57.0406 44.8866 55.5633 46.1715 54.395C47.4564 53.2266 49.0185 52.406 50.7096 52.0109C52.4007 51.6157 54.1647 51.6593 55.8343 52.1373L67.4972 41.5478L76.8239 33.0781L88.4867 22.5066C88.1727 20.8005 88.2993 19.0426 88.8546 17.3991C89.4098 15.7557 90.3753 14.2812 91.6597 13.1151C92.9441 11.9491 94.5048 11.1301 96.1941 10.7358C97.8833 10.3415 99.6453 10.3848 101.313 10.8618L95.0984 16.5083L96.4153 22.5788L102.332 24.473L108.547 18.8355C108.866 20.5426 108.742 22.3029 108.189 23.9489C107.635 25.5949 106.67 27.072 105.384 28.2398C104.099 29.4076 102.536 30.2274 100.845 30.6211C99.1537 31.0148 97.3897 30.9694 95.7208 30.4893L84.0579 41.0608L74.7312 49.5396L63.0683 60.12C63.385 61.8266 63.2602 63.5857 62.7058 65.2304C62.1514 66.8751 61.1859 68.3509 59.9008 69.5175C58.6158 70.6842 57.0539 71.503 55.3634 71.8964C53.6729 72.2897 51.91 72.2444 50.2419 71.7649L56.4567 66.1274L55.1398 60.0569Z" fill="#4B465C"/>
    <path d="M54.1187 24.5992L45.8203 14.1901L51.548 8.9856L61.1183 18.2131L62.2367 20.7026C62.5821 21.4672 63.0447 22.1733 63.6078 22.7952L75.0993 35.4232L69.8677 40.1768L58.3762 27.5488C57.8199 26.9303 57.172 26.4009 56.4549 25.9793L54.1187 24.5992Z" fill="#E0E0E0"/>
    <path opacity="0.7" d="M54.1187 24.5992L45.8203 14.1901L51.548 8.9856L61.1183 18.2131L62.2367 20.7026C62.5821 21.4672 63.0447 22.1733 63.6078 22.7952L75.0993 35.4232L69.8677 40.1768L58.3762 27.5488C57.8199 26.9303 57.172 26.4009 56.4549 25.9793L54.1187 24.5992Z" fill="#F5F5F5"/>
    <path d="M45.9466 14.3525L45.8203 14.1901L51.548 8.9856L51.7014 9.12991C52.0982 9.92367 51.3315 11.5112 49.8432 12.8642C48.3549 14.2172 46.7043 14.8215 45.9466 14.3525Z" fill="#E0E0E0"/>
    <path d="M74.2546 46.8158L70.7999 43.0183L70.5744 43.2258C70.31 43.465 69.9615 43.5894 69.6054 43.5717C69.2493 43.5539 68.9149 43.3954 68.6757 43.1311C68.4365 42.8667 68.312 42.5182 68.3298 42.1621C68.3476 41.806 68.506 41.4716 68.7704 41.2324L76.275 34.4223C76.5394 34.183 76.8879 34.0586 77.244 34.0764C77.4203 34.0852 77.5932 34.1286 77.7527 34.2042C77.9122 34.2798 78.0553 34.3861 78.1737 34.517C78.2922 34.6479 78.3837 34.8008 78.4431 34.9671C78.5024 35.1333 78.5284 35.3096 78.5196 35.4859C78.5108 35.6623 78.4674 35.8351 78.3918 35.9946C78.3162 36.1542 78.2099 36.2972 78.079 36.4157L77.8535 36.6231L81.2992 40.4115C81.9762 40.3266 82.6636 40.4172 83.2955 40.6747C83.9274 40.9322 84.4824 41.3479 84.9072 41.8818L104.778 63.8636C107.151 66.4794 105.761 69.2756 103.155 71.6118C100.548 73.9479 97.6525 75.0935 95.2892 72.5138L75.373 50.514C74.8884 50.0429 74.5315 49.4563 74.3359 48.8094C74.1402 48.1625 74.1122 47.4765 74.2546 46.8158Z" fill="#E0E0E0"/>
    <path opacity="0.4" d="M74.2546 46.8158L70.7999 43.0183L70.5744 43.2258C70.31 43.465 69.9615 43.5894 69.6054 43.5717C69.2493 43.5539 68.9149 43.3954 68.6757 43.1311C68.4365 42.8667 68.312 42.5182 68.3298 42.1621C68.3476 41.806 68.506 41.4716 68.7704 41.2324L76.275 34.4223C76.5394 34.183 76.8879 34.0586 77.244 34.0764C77.4203 34.0852 77.5932 34.1286 77.7527 34.2042C77.9122 34.2798 78.0553 34.3861 78.1737 34.517C78.2922 34.6479 78.3837 34.8008 78.4431 34.9671C78.5024 35.1333 78.5284 35.3096 78.5196 35.4859C78.5108 35.6623 78.4674 35.8351 78.3918 35.9946C78.3162 36.1542 78.2099 36.2972 78.079 36.4157L77.8535 36.6231L81.2992 40.4115C81.9762 40.3266 82.6636 40.4172 83.2955 40.6747C83.9274 40.9322 84.4824 41.3479 84.9072 41.8818L104.778 63.8636C107.151 66.4794 105.761 69.2756 103.155 71.6118C100.548 73.9479 97.6525 75.0935 95.2892 72.5138L75.373 50.514C74.8884 50.0429 74.5315 49.4563 74.3359 48.8094C74.1402 48.1625 74.1122 47.4765 74.2546 46.8158Z" fill="#FF0000"/>
    <path opacity="0.7" d="M357.352 67.4897L366.724 72.0719L370.99 69.9432L356.414 62.8083L357.352 67.4897Z" fill="#B50606"/>
    <path d="M363.352 18.7635C362.046 21.4553 361.322 24.3925 361.229 27.383C361.136 30.3736 361.675 33.3501 362.811 36.118C363.589 37.937 363.972 39.9008 363.933 41.879C363.894 43.8572 363.435 45.8045 362.585 47.5915L361.873 49.0437L378.542 57.1617L379.254 55.7095C380.143 53.9434 381.397 52.3866 382.934 51.1424C384.47 49.8983 386.254 48.9953 388.166 48.4935C392.411 47.3106 396.183 44.8388 398.962 41.4195C401.741 38.0002 403.389 33.8022 403.679 29.4056C403.969 25.009 402.887 20.6308 400.581 16.876C398.276 13.1212 394.861 10.175 390.809 8.44466C385.778 6.34987 380.139 6.25093 375.038 8.16799C369.937 10.0851 365.758 13.874 363.352 18.7635Z" fill="#FFAC0B"/>
    <path d="M386.638 36.5247L373.02 54.2026L374.034 54.9843L387.653 37.3063L386.638 36.5247Z" fill="#E0E0E0"/>
    <path d="M371.466 28.6242L365.887 50.2703L367.129 50.5905L372.708 28.9444L371.466 28.6242Z" fill="#E0E0E0"/>
    <path d="M373.367 40.7726L377.733 37.7238L378.003 43.0366L384.786 40.1682L384.281 38.9866L379.185 41.1424L378.896 35.3425L374.134 38.6709L372.708 33.322L371.473 33.6558L373.367 40.7726Z" fill="#E0E0E0"/>
    <path d="M361.921 48.9172L355.418 62.2127L372.042 70.457L378.545 57.1615L361.921 48.9172Z" fill="#FF0000"/>
    <path d="M369.724 279.983C366.91 264.235 365.539 248.264 365.629 232.267C365.629 224.194 366.739 209.338 377.112 207.435C387.205 205.586 386.79 218.575 386.547 225.231C386.195 234.883 369.354 277.953 369.724 279.983Z" fill="#FF0000"/>
    <path d="M372.182 286.712C373.522 287.915 374.355 289.582 374.511 291.376C374.667 293.171 374.134 294.957 373.02 296.372C371.815 297.712 370.171 298.579 368.384 298.817C366.598 299.055 364.784 298.649 363.27 297.671C362.339 297.038 361.559 296.208 360.983 295.24C360.408 294.273 360.053 293.19 359.941 292.07C359.812 290.587 360.141 289.101 360.883 287.81C361.625 286.52 362.744 285.488 364.091 284.854C366.815 283.681 372.182 286.712 372.182 286.712Z" fill="#E0E0E0"/>
    <path d="M225.502 336.277C322.091 336.277 400.391 331.705 400.391 326.066C400.391 320.427 322.091 315.855 225.502 315.855C128.914 315.855 50.6133 320.427 50.6133 326.066C50.6133 331.705 128.914 336.277 225.502 336.277Z" fill="#F5F5F5"/>
    <path d="M222.797 36.5153L346.1 12.1612C346.879 11.9994 347.682 12.0013 348.46 12.1669C349.237 12.3325 349.972 12.6581 350.617 13.1231C351.261 13.588 351.802 14.1821 352.205 14.8675C352.608 15.5529 352.863 16.3146 352.956 17.1042L374.928 230.436C375 231.221 374.907 232.011 374.656 232.757C374.406 233.504 374.002 234.19 373.472 234.772C372.942 235.354 372.296 235.819 371.576 236.138C370.857 236.457 370.078 236.622 369.291 236.624L222.797 238.636V36.5153Z" fill="#263238" fill-opacity="0.87"/>
    <path d="M222.357 37.1016C222.357 37.1016 305.846 18.2859 342.169 20.4687L359.777 226.558C359.777 226.558 332.139 219.342 305.656 224.393C278.425 229.58 222.348 238.636 222.348 238.636L222.357 37.1016Z" fill="#263238" fill-opacity="0.87"/>
    <path opacity="0.7" d="M222.357 37.1016C222.357 37.1016 305.846 18.2859 342.169 20.4687L359.777 226.558C359.777 226.558 332.139 219.342 305.656 224.393C278.425 229.58 222.348 238.636 222.348 238.636L222.357 37.1016Z" fill="white"/>
    <path d="M233.37 32.6095C233.37 32.6095 278.768 13.8028 307.515 12.1702L336.451 10.5286L352.912 219.432C352.912 219.432 325.951 208.482 298.305 215.265C270.659 222.048 235.111 233.837 222.961 238.212V36.443L233.37 32.6095Z" fill="#263238" fill-opacity="0.87"/>
    <path opacity="0.8" d="M233.52 32.6095C233.52 32.6095 278.927 13.8028 307.673 12.1702L336.619 10.5286L353.08 219.432C353.08 219.432 326.11 208.482 298.473 215.265C270.836 222.048 235.279 233.837 223.129 238.212V36.443L233.52 32.6095Z" fill="white"/>
    <path d="M222.97 36.5152L102.399 12.1612C101.63 12.0061 100.836 12.0138 100.07 12.1835C99.3036 12.3533 98.5812 12.6814 97.9493 13.1469C97.3173 13.6124 96.7896 14.2049 96.4003 14.8864C96.0109 15.5679 95.7683 16.3234 95.6882 17.1042L74.2115 230.454C74.134 231.229 74.2182 232.012 74.4588 232.753C74.6993 233.494 75.091 234.176 75.609 234.758C76.127 235.34 76.7601 235.807 77.4682 236.132C78.1763 236.456 78.944 236.63 79.7227 236.642L222.979 238.636L222.97 36.5152Z" fill="#263238" fill-opacity="0.87"/>
    <path d="M222.968 36.5153C222.968 36.5153 145.224 8.06621 109.144 5.92847L90.8516 225.602C90.8516 225.602 118.976 218.124 145.152 223.69C171.328 229.255 222.977 238.636 222.977 238.636L222.968 36.5153Z" fill="#263238" fill-opacity="0.87"/>
    <path opacity="0.6" d="M222.968 36.5153C222.968 36.5153 145.224 8.06621 109.144 5.92847L90.8516 225.602C90.8516 225.602 118.976 218.124 145.152 223.69C171.328 229.255 222.977 238.636 222.977 238.636L222.968 36.5153Z" fill="white"/>
    <path d="M214.184 31.7706C214.184 31.7706 171.086 9.07625 143.936 5.01724L116.704 0.949219L101.289 207.038C101.289 207.038 126.59 198.776 152.631 208.229C178.672 217.682 212.524 233.034 224.097 238.636V36.5151L214.184 31.7706Z" fill="#263238" fill-opacity="0.87"/>
    <path opacity="0.7" d="M214.184 31.7706C214.184 31.7706 171.086 9.07625 143.936 5.01724L116.704 0.949219L101.289 207.038C101.289 207.038 126.59 198.776 152.631 208.229C178.672 217.682 212.524 233.034 224.097 238.636V36.5151L214.184 31.7706Z" fill="white"/>
    <path d="M243.831 97.2377V96.6063C243.831 90.4907 243.677 84.2759 243.515 78.2686C243.371 72.9197 243.217 67.3904 243.199 61.9514V61.6357L243.497 61.5274C255.057 57.237 266.857 53.6229 278.837 50.7034L279.369 50.5771V51.1274C279.694 57.703 279.911 64.3868 280.109 70.8541C280.262 75.6618 280.416 80.6409 280.623 85.5297V85.8905L280.271 85.9807C267.111 89.3001 254.754 93.4402 244.408 97.0573L243.831 97.2377ZM244.101 62.2671C244.101 67.5979 244.273 73.0009 244.417 78.2415C244.57 84.0504 244.733 90.0487 244.733 95.9658C254.889 92.43 266.913 88.4161 279.721 85.1418C279.523 80.3702 279.378 75.5175 279.225 70.8271C279.027 64.5131 278.828 58.0547 278.513 51.6596C266.848 54.5399 255.359 58.0876 244.101 62.2851V62.2671Z" fill="#263238" fill-opacity="0.87"/>
    <path d="M264.293 69.4471C263.748 69.6256 263.27 69.9668 262.925 70.4248C262.58 70.8829 262.384 71.4357 262.362 72.0088C262.362 73.019 262.417 73.5332 262.444 74.5524C263.093 74.2257 263.66 73.7571 264.103 73.1814C264.262 72.9073 264.346 72.5962 264.347 72.2794C264.358 72.1359 264.417 72.0004 264.516 71.8954C264.614 71.7904 264.745 71.7222 264.888 71.7021L266.972 71.4225C267.076 71.3918 267.186 71.3857 267.293 71.4047C267.4 71.4237 267.501 71.4672 267.589 71.5319C267.676 71.5966 267.747 71.6806 267.797 71.7774C267.846 71.8743 267.872 71.9812 267.874 72.0899C267.874 72.6853 267.874 72.9919 267.874 73.5783C267.846 73.8862 267.721 74.1774 267.517 74.4094C267.312 74.6414 267.039 74.8021 266.737 74.8681C264.861 75.274 264.031 75.4544 262.362 75.8242C262.333 76.3822 262.525 76.9292 262.896 77.3464C263.268 77.7637 263.789 78.0173 264.347 78.0522C266.638 78.2235 267.955 78.2867 270.571 78.4491C274.368 78.0071 276.434 77.7635 279.888 77.6463C279.807 75.1207 279.771 73.8849 279.699 71.4495C277.714 67.8956 276.65 66.2901 274.503 63.0248C274.219 62.5347 273.819 62.1221 273.337 61.8232C272.856 61.5244 272.309 61.3485 271.743 61.311C270.782 60.4111 269.515 59.9084 268.198 59.9039H268.072C266.831 59.4841 265.498 59.4154 264.221 59.7055C264.086 59.7427 263.963 59.8136 263.864 59.9115C263.764 60.0093 263.692 60.1309 263.652 60.2647C263.58 60.411 263.539 60.5707 263.532 60.7338C263.525 60.8968 263.552 61.0595 263.611 61.2115C263.671 61.3634 263.761 61.5013 263.877 61.6163C263.993 61.7313 264.131 61.8209 264.284 61.8793C265.132 62.186 266.746 64.017 267.819 65.2528C268.482 66.0049 269.009 66.8654 269.38 67.7964C267.251 68.4819 266.196 68.8247 264.293 69.4471Z" fill="#FF0000"/>
    <path d="M258.785 69.9971C258.708 70.0314 258.621 70.0346 258.542 70.006C258.463 69.9774 258.398 69.9193 258.361 69.8438C258.038 68.9358 257.575 68.0837 256.99 67.3182C256.94 67.2185 256.928 67.1041 256.956 66.9962C256.985 66.8884 257.051 66.7944 257.143 66.7319C257.221 66.6542 257.326 66.6106 257.436 66.6106C257.546 66.6106 257.652 66.6542 257.73 66.7319C258.342 67.5557 258.826 68.4682 259.164 69.4379C259.188 69.5478 259.173 69.6626 259.122 69.7629C259.071 69.8632 258.987 69.9428 258.884 69.9881L258.785 69.9971Z" fill="#FF0000"/>
    <path d="M258.88 75.4996C258.751 76.3171 258.307 77.0518 257.644 77.5471C256.481 78.4491 254.938 78.5393 254.325 77.6824C254.253 77.5782 254.192 77.4663 254.145 77.3487C254.018 76.8031 254.063 76.2316 254.275 75.713C254.486 75.1944 254.854 74.7542 255.326 74.4533C255.924 73.9562 256.687 73.7019 257.464 73.7407C257.686 73.7512 257.904 73.8108 258.1 73.9153C258.297 74.0198 258.467 74.1666 258.601 74.345C258.645 74.4016 258.684 74.462 258.718 74.5254C258.861 74.8287 258.918 75.1661 258.88 75.4996Z" fill="white"/>
    <path d="M258.88 75.4996C258.751 76.3171 258.307 77.0518 257.644 77.5472C256.481 78.4492 254.938 78.5394 254.325 77.6825C254.253 77.5782 254.192 77.4663 254.145 77.3487C254.21 76.9354 254.357 76.5393 254.577 76.1832C254.797 75.8271 255.085 75.5181 255.425 75.2741C256.616 74.3721 258.077 74.309 258.7 75.1659C258.774 75.269 258.834 75.3811 258.88 75.4996Z" fill="#FF0000"/>
    <path d="M263.653 75.0037C263.539 75.7833 263.137 76.4916 262.525 76.9881C261.506 77.827 260.144 77.818 259.54 76.943C259.47 76.8386 259.413 76.7266 259.368 76.6093C259.26 76.2176 259.253 75.8049 259.346 75.4094C259.439 75.0138 259.629 74.6479 259.901 74.3453C260.265 73.878 260.748 73.5167 261.299 73.299C261.658 73.1134 262.072 73.0651 262.464 73.1631C262.855 73.2611 263.198 73.4986 263.427 73.8311C263.634 74.1851 263.713 74.5986 263.653 75.0037Z" fill="white"/>
    <path d="M263.652 75.0037C263.538 75.7832 263.136 76.4915 262.524 76.9881C261.505 77.827 260.143 77.8179 259.539 76.943C259.469 76.8385 259.412 76.7266 259.367 76.6093C259.489 75.8052 259.919 75.0803 260.567 74.5888C261.667 73.6868 262.948 73.7589 263.498 74.6609C263.562 74.769 263.614 74.884 263.652 75.0037Z" fill="#FF0000"/>
    <path d="M261.823 71.0799C261.758 71.5036 261.606 71.9091 261.376 72.2709C261.146 72.6327 260.844 72.9428 260.488 73.1815C259.333 73.9843 257.917 73.9122 257.376 72.9921C257.337 72.9257 257.304 72.8563 257.277 72.7847C257.145 72.2151 257.201 71.6182 257.437 71.0832C257.673 70.5483 258.075 70.1041 258.585 69.8171C259.793 68.9872 261.155 69.1045 261.651 70.0516C261.808 70.37 261.868 70.7277 261.823 71.0799Z" fill="white"/>
    <path d="M260.481 73.1633C259.326 73.9661 257.91 73.894 257.369 72.9739C257.33 72.9075 257.297 72.8381 257.27 72.7665C257.342 72.3304 257.504 71.9142 257.746 71.5446C257.989 71.1749 258.306 70.8599 258.677 70.6197C259.876 69.7989 261.229 69.9161 261.725 70.8542C261.759 70.9217 261.789 70.9909 261.816 71.0617C261.751 71.4854 261.599 71.8909 261.369 72.2527C261.139 72.6145 260.837 72.9246 260.481 73.1633Z" fill="#FF0000"/>
    <path d="M257.847 69.6005C257.851 69.6335 257.851 69.6668 257.847 69.6997C257.694 71.0617 255.213 72.7575 252.173 73.6054C250.69 74.0191 249.107 73.8813 247.718 73.2175C247.367 73.0587 247.037 72.8589 246.734 72.6222C246.734 72.6222 249.26 69.3209 252.354 68.5001C252.773 68.3868 253.197 68.2964 253.626 68.2295C254.041 68.1688 254.46 68.1327 254.879 68.1212C256.674 68.0761 257.874 68.6263 257.847 69.6005Z" fill="#263238" fill-opacity="0.87"/>
    <g opacity="0.2">
        <path d="M252.167 73.6052C250.683 74.019 249.1 73.8812 247.711 73.2174C249.088 71.5669 250.887 70.3202 252.916 69.6094C255.089 69.0231 256.956 69.1043 257.84 69.6725C257.687 71.0796 255.207 72.7574 252.167 73.6052Z" fill="black"/>
    </g>
    <path d="M267.368 59.895C267.326 60.3509 267.251 60.8032 267.143 61.248C266.762 63.0088 265.936 64.6424 264.743 65.9925C262.597 68.2927 260.351 69.4923 259.259 69.0143C259.18 68.9866 259.106 68.9437 259.043 68.888C258.375 68.3468 258.7 66.9126 259.755 65.28C260.03 64.8268 260.331 64.3901 260.657 63.9721C260.919 63.6564 261.19 63.3316 261.487 63.0069C263.093 61.4053 265.141 60.3214 267.368 59.895Z" fill="#263238" fill-opacity="0.87"/>
    <g opacity="0.2">
        <path d="M267.141 61.248C266.761 63.0088 265.935 64.6424 264.742 65.9926C262.595 68.2927 260.349 69.4923 259.258 69.0143C259.312 67.8417 260.358 65.9655 262.036 64.1525C263.438 62.7323 265.204 61.7271 267.141 61.248Z" fill="black"/>
    </g>
    <path d="M257.077 67.0569C256.725 67.9589 254.957 68.6354 253.126 68.5092C252.553 68.4256 252.011 68.198 251.551 67.8478C251.09 67.4976 250.726 67.0361 250.492 66.5067C250.492 66.5067 252.603 64.8651 254.425 65.0365C256.247 65.2078 257.447 66.1189 257.077 67.0569Z" fill="#263238" fill-opacity="0.87"/>
    <path d="M257.535 66.7862C258.365 67.0117 259.817 65.7579 260.809 63.9088C261.389 62.6808 261.511 61.2859 261.152 59.9761C259.788 60.6529 258.638 61.696 257.833 62.9888C256.832 64.892 256.696 66.5697 257.535 66.7862Z" fill="#263238" fill-opacity="0.87"/>
    <path d="M269.435 79.8744C269.041 80.3647 268.623 80.8343 268.181 81.2815C266.891 82.6075 264.672 84.5287 262.769 85.0519C259.783 85.8637 256.509 85.5209 256.292 83.8161C256.288 83.7591 256.288 83.7018 256.292 83.6448C256.292 81.7866 259.558 79.243 262.796 78.332C266.034 77.4209 269.435 79.8744 269.435 79.8744Z" fill="#263238" fill-opacity="0.87"/>
    <g opacity="0.2">
        <path d="M268.177 81.2813C266.888 82.6072 264.669 84.5285 262.765 85.0516C259.78 85.8634 256.506 85.5207 256.289 83.8159C257.851 81.9901 259.92 80.6686 262.233 80.0185C264.678 79.3059 267.104 80.5867 268.177 81.2813Z" fill="black"/>
    </g>
    <path d="M254.947 83.7801C254.901 83.8551 254.846 83.9247 254.785 83.9875C253.387 85.6382 249.95 85.8908 247.19 84.4927C245.386 83.5907 244.764 81.5702 244.484 80.2262C244.388 79.7657 244.331 79.298 244.313 78.8281C244.313 78.8281 248.777 76.8437 251.79 78.1426C254.803 79.4415 256.237 81.949 254.947 83.7801Z" fill="#263238" fill-opacity="0.87"/>
    <g opacity="0.2">
        <path d="M254.781 83.9873C253.383 85.638 249.947 85.8906 247.186 84.4925C245.382 83.5905 244.76 81.57 244.48 80.226C245.833 79.7479 248.918 78.882 251.146 79.8562C253.374 80.8303 254.727 82.4359 254.781 83.9873Z" fill="black"/>
    </g>
    <path d="M244.314 93.0706C244.097 93.1337 243.926 92.9803 243.926 92.7278C243.924 92.6069 243.959 92.4883 244.027 92.3881C244.094 92.288 244.192 92.2113 244.305 92.1686C251.629 89.9226 258.854 80.7402 258.98 73.7136C258.995 73.5998 259.044 73.493 259.119 73.4064C259.194 73.3199 259.294 73.2573 259.404 73.2265C259.63 73.1634 259.81 73.2897 259.801 73.4971C259.404 82.0932 252.369 89.9677 244.314 93.0706Z" fill="#FF0000"/>
    <path d="M244.236 136.475V135.862C244.172 126.743 244.055 117.47 243.938 108.504L243.848 101.477L244.154 101.369C258.217 96.4804 269.41 93.0888 280.37 90.3648L280.893 90.2295V90.7797C281.551 102.867 282.002 115.134 282.354 125.579V125.958L281.993 126.039C269.41 128.925 257.233 132.281 244.777 136.295L244.236 136.475ZM244.759 102.109L244.84 108.495C244.948 117.262 245.065 126.319 245.129 135.248C257.287 131.343 269.194 128.032 281.47 125.245C281.127 115.053 280.694 103.137 280.054 91.375C269.356 94.045 258.424 97.3733 244.759 102.109Z" fill="#263238" fill-opacity="0.87"/>
    <path d="M248.438 134.996C251.207 131.866 252.722 130.188 255.906 126.661C261.111 125.137 263.546 124.659 268.408 123.486C270.275 121.087 271.267 119.707 273.161 117.362C273.37 117.108 273.649 116.922 273.964 116.829C274.866 116.559 275.488 117.389 274.992 118.291C273.351 121.258 272.494 123.134 270.834 125.994C266.901 127.437 265.26 127.915 261.21 129.484L258.63 131.514C254.373 132.885 252.199 133.697 248.438 134.996Z" fill="#FF0000"/>
    <path d="M270.108 105.644C270.586 111.895 270.749 115.07 270.965 122.782C265.084 124.424 262.423 124.929 256.281 126.868C256.118 119.481 256.362 115.864 256.236 109.64C262.162 107.593 264.29 107.16 270.108 105.644Z" fill="#263238" fill-opacity="0.87"/>
    <path d="M258.507 116.297C258.508 116.738 258.587 117.174 258.742 117.587L256.324 118.354C256.324 117.217 256.324 116.667 256.324 115.576C257.289 115.26 257.776 115.097 258.742 114.8C258.584 115.283 258.505 115.789 258.507 116.297Z" fill="#FF0000"/>
    <path d="M270.524 111.616C270.587 112.689 270.623 113.239 270.678 114.322L268.414 114.926C268.533 114.467 268.581 113.993 268.558 113.519C268.533 113.059 268.426 112.607 268.242 112.184L270.524 111.616Z" fill="#FF0000"/>
    <path opacity="0.2" d="M268.554 113.555C268.577 114.029 268.529 114.503 268.409 114.962C268.149 116.077 267.592 117.101 266.799 117.927C266.005 118.752 265.003 119.348 263.899 119.653C261.527 120.266 259.389 119.364 258.731 117.587C258.572 117.176 258.492 116.738 258.496 116.297C258.49 115.789 258.566 115.283 258.722 114.8C259.101 113.711 259.733 112.727 260.566 111.929C261.398 111.131 262.408 110.542 263.512 110.209C264.407 109.9 265.386 109.935 266.257 110.306C267.129 110.678 267.832 111.36 268.229 112.22C268.42 112.641 268.53 113.094 268.554 113.555Z" fill="black"/>
    <path d="M261.254 113.474C261.335 113.374 261.425 113.284 261.515 113.194C261.535 113.227 261.563 113.255 261.596 113.275C262.325 113.694 262.909 114.323 263.274 115.079L263.391 115.305C263.797 116.118 264.369 116.837 265.069 117.415C264.569 117.573 264.041 117.619 263.522 117.549C263.002 117.479 262.505 117.294 262.065 117.01C260.685 116.18 260.333 114.601 261.254 113.474Z" fill="white"/>
    <path d="M266.091 116.73C266.019 116.831 265.934 116.922 265.839 117.001C265.833 116.966 265.821 116.933 265.803 116.904C265.784 116.874 265.759 116.849 265.73 116.829C265.077 116.301 264.555 115.628 264.206 114.863L264.098 114.637C263.718 113.849 263.12 113.185 262.375 112.725C262.847 112.543 263.356 112.483 263.857 112.549C264.359 112.615 264.835 112.806 265.243 113.104C265.541 113.283 265.799 113.52 266.004 113.801C266.208 114.081 266.354 114.4 266.433 114.738C266.512 115.076 266.522 115.426 266.464 115.769C266.405 116.111 266.278 116.438 266.091 116.73Z" fill="white"/>
    <path d="M270.011 105.671C269.109 103.867 268.703 102.965 267.864 101.161C263.661 102.271 262.218 102.578 257.988 104.021C257.311 106.276 256.959 107.376 256.238 109.622C256.216 109.672 256.198 109.723 256.184 109.775C262.119 107.773 264.256 107.349 270.065 105.825C270.047 105.753 270.029 105.726 270.011 105.671Z" fill="#263238" fill-opacity="0.87"/>
    <path d="M269.264 100.765C263.852 102.208 262.048 102.569 256.582 104.472C256.582 103.904 256.582 103.57 256.582 103.029C261.994 101.135 263.744 100.756 269.21 99.3035C269.201 99.8898 269.228 100.178 269.264 100.765Z" fill="#FF0000"/>
    <path d="M286.127 84.9075V84.3663C285.983 81.5069 285.848 78.6386 285.703 75.7792C285.297 67.3094 284.874 58.56 284.359 49.9549V49.5761L284.729 49.4859C296.064 46.7396 307.654 45.1828 319.312 44.8406H319.754V45.2735C320.313 54.8347 321.098 64.5132 321.847 73.867L322.388 80.632H321.919C310.06 80.8042 298.251 82.1976 286.678 84.7902L286.127 84.9075ZM285.225 50.2796C285.73 58.7675 286.127 67.4177 286.551 75.7341C286.687 78.4401 286.813 81.1461 286.948 83.789C298.256 81.2841 309.788 79.9272 321.368 79.739L320.908 73.9301C320.16 64.7117 319.393 55.1775 318.834 45.7606C307.515 46.118 296.263 47.6322 285.252 50.2796H285.225Z" fill="#263238" fill-opacity="0.87"/>
    <path d="M298.771 73.2178C298.436 73.8714 297.963 74.4437 297.383 74.8941C296.803 75.3446 296.131 75.6622 295.415 75.8246C295.06 75.8717 294.699 75.8121 294.378 75.6532C293.097 75.0218 292.998 72.875 294.125 70.9267C294.604 70.0722 295.298 69.3572 296.137 68.8521C296.477 68.6209 296.869 68.4769 297.278 68.4329C297.687 68.3888 298.1 68.4461 298.482 68.5996C299.79 69.2761 299.916 71.2695 298.771 73.2178Z" fill="#263238" fill-opacity="0.87"/>
    <g opacity="0.2">
        <path d="M298.773 73.2176C298.439 73.8713 297.965 74.4435 297.385 74.8939C296.805 75.3444 296.134 75.662 295.418 75.8244C295.066 75.8725 294.709 75.816 294.389 75.662C294.251 75.5938 294.123 75.5057 294.011 75.4005L293.956 75.3463C293.904 75.2934 293.855 75.2361 293.812 75.175C293.716 75.0544 293.637 74.9208 293.578 74.7781L293.496 74.5796C293.47 74.5099 293.452 74.4372 293.442 74.3632C293.418 74.3026 293.403 74.2388 293.397 74.1737C293.397 74.0835 293.397 73.9843 293.397 73.8851C293.371 73.4019 293.423 72.9177 293.551 72.4509C293.658 72.0631 293.799 71.6857 293.975 71.3234C294.034 71.1935 294.1 71.0671 294.173 70.9446C294.652 70.09 295.345 69.375 296.184 68.87C296.526 68.6409 296.917 68.4983 297.326 68.4543C297.734 68.4103 298.148 68.4663 298.53 68.6174C298.666 68.6813 298.79 68.7666 298.899 68.87C299.121 69.0575 299.295 69.2957 299.405 69.5645C299.576 70.1822 299.609 70.8303 299.5 71.4621C299.39 72.0938 299.142 72.6934 298.773 73.2176Z" fill="black"/>
    </g>
    <path d="M298.223 70.9898C298.21 71.9436 297.946 72.8771 297.456 73.6958C296.964 74.5732 296.264 75.3165 295.418 75.8606C295.066 75.9055 294.71 75.8492 294.389 75.6982C294.251 75.63 294.123 75.5419 294.011 75.4366L293.956 75.3825C293.904 75.3296 293.855 75.2723 293.812 75.2111C293.716 75.0905 293.637 74.9569 293.578 74.8143L293.496 74.6158C293.47 74.546 293.452 74.4734 293.442 74.3993C293.418 74.3388 293.403 74.275 293.397 74.2099C293.397 74.1197 293.397 74.0205 293.397 73.9213C293.371 73.4381 293.423 72.9538 293.551 72.4871C293.651 72.0971 293.793 71.7191 293.975 71.3596C294.034 71.2297 294.1 71.1032 294.173 70.9807C294.652 70.1262 295.345 69.4112 296.184 68.9061C296.539 68.8657 296.899 68.9251 297.222 69.0775C297.632 69.2715 297.954 69.6128 298.124 70.0336C298.214 70.3439 298.247 70.6677 298.223 70.9898Z" fill="#263238" fill-opacity="0.87"/>
    <path d="M299.36 69.5466C299.027 70.0623 298.647 70.5455 298.223 70.9898C297.813 71.4376 297.363 71.8481 296.879 72.2165C296.79 72.2937 296.697 72.3659 296.6 72.433C295.646 73.1887 294.85 74.1232 294.255 75.1841C294.197 75.2789 294.112 75.3542 294.011 75.4006L293.957 75.3465C293.904 75.2936 293.856 75.2362 293.813 75.1751C293.716 75.0545 293.637 74.9209 293.578 74.7782C294.223 73.624 295.095 72.6116 296.14 71.8016L296.419 71.5761C297.017 71.1109 297.561 70.5816 298.043 69.9976C298.309 69.6765 298.55 69.3358 298.765 68.9784C298.79 68.936 298.824 68.8992 298.864 68.8701C299.083 69.051 299.253 69.2835 299.36 69.5466Z" fill="#FF0000"/>
    <path d="M302.625 63.3317C302.436 63.3541 302.245 63.3541 302.056 63.3317H301.885C301.596 63.2685 301.299 63.1693 300.983 63.0791C300.13 62.7536 299.376 62.2128 298.795 61.5094C298.213 60.806 297.823 59.9639 297.664 59.0652C297.113 56.6929 297.925 54.3026 299.567 53.3826C299.827 53.2422 300.107 53.1419 300.397 53.0849C300.692 53.0026 301.004 53.0026 301.299 53.0849C301.551 53.145 301.791 53.2456 302.011 53.3826C303.592 54.5099 304.677 56.2026 305.042 58.1091C305.691 60.9955 304.654 63.2415 302.625 63.3317Z" fill="#263238" fill-opacity="0.87"/>
    <g opacity="0.2">
        <path d="M302.628 63.3317C302.44 63.3541 302.249 63.3541 302.06 63.3317H301.889C301.6 63.2685 301.303 63.1693 300.987 63.0791C300.134 62.7536 299.38 62.2128 298.798 61.5094C298.217 60.806 297.827 59.9639 297.667 59.0652C297.117 56.6929 297.929 54.3026 299.571 53.3826C299.831 53.2422 300.111 53.1419 300.401 53.0849C300.696 53.0026 301.008 53.0026 301.303 53.0849C301.555 53.145 301.795 53.2456 302.015 53.3826C303.595 54.5099 304.681 56.2026 305.046 58.1091C305.695 60.9955 304.658 63.2415 302.628 63.3317Z" fill="black"/>
    </g>
    <path d="M302.056 63.2953H301.885C301.596 63.2322 301.299 63.1329 300.983 63.0427C300.13 62.7172 299.376 62.1764 298.794 61.473C298.213 60.7696 297.823 59.9275 297.664 59.0288C297.113 56.6566 297.889 54.2572 299.567 53.3462C300.186 53.3436 300.788 53.5538 301.272 53.9415C301.606 54.2237 301.908 54.5412 302.174 54.8886C302.923 55.8931 303.449 57.0464 303.716 58.2711C304.302 60.7246 303.599 62.7361 302.056 63.2953Z" fill="#263238" fill-opacity="0.87"/>
    <path d="M302.173 54.8438C302.173 54.8438 302.173 54.916 302.173 55.0513C302.173 55.1866 302.173 55.2226 302.173 55.3399C302.2 56.0909 302.158 56.8427 302.046 57.5859C302.046 57.6851 302.046 57.7933 301.983 57.9016C301.92 58.0098 301.983 57.9647 301.983 57.9918C301.973 58.0737 301.957 58.155 301.938 58.2353C301.938 58.4067 301.884 58.4879 301.839 58.6502C301.501 60.0828 301.501 61.5744 301.839 63.0069C301.857 63.0748 301.857 63.1464 301.839 63.2144C301.55 63.1512 301.253 63.052 300.937 62.9618C300.603 61.4475 300.621 59.8766 300.991 58.3706C301.036 58.1992 301.054 58.1181 301.09 57.9557C301.126 57.7933 301.144 57.7212 301.171 57.6039C301.171 57.5227 301.171 57.4235 301.226 57.3333C301.28 57.2431 301.289 56.9004 301.307 56.7019C301.351 56.2252 301.366 55.7463 301.352 55.2677C301.352 55.1775 301.352 55.1324 301.352 55.0422C301.344 54.6742 301.317 54.3069 301.271 53.9418C301.271 53.7794 301.271 53.6081 301.198 53.4457C301.176 53.3774 301.171 53.3045 301.183 53.2336C301.196 53.1627 301.226 53.0961 301.271 53.0398C301.523 53.0999 301.763 53.2004 301.983 53.3375C302.078 53.8351 302.141 54.3382 302.173 54.8438Z" fill="#FF0000"/>
    <path d="M313.318 73.8489C313.011 74.2407 312.619 74.5585 312.173 74.7787C311.726 74.9988 311.236 75.1157 310.738 75.1207C309.337 75.1804 307.95 74.8157 306.76 74.0744C304.126 72.5229 302.845 69.844 303.937 68.3286C304.269 67.8914 304.734 67.5746 305.263 67.4266C307.099 67.0709 309.001 67.4534 310.558 68.491C313.146 70.0244 314.373 72.2974 313.318 73.8489Z" fill="#263238" fill-opacity="0.87"/>
    <g opacity="0.2">
        <path d="M313.312 73.8486C313.178 74.0337 313.024 74.2031 312.852 74.3538C312.635 74.5263 312.395 74.6689 312.14 74.7777C311.695 74.976 311.219 75.0921 310.733 75.1205C309.332 75.1757 307.947 74.8114 306.755 74.0741C304.13 72.5317 302.831 69.8257 303.932 68.3284C304.095 68.099 304.304 67.9056 304.545 67.7601C304.757 67.6241 304.988 67.5207 305.231 67.4535C307.067 67.0978 308.969 67.4802 310.525 68.5178C313.132 70.0242 314.377 72.2972 313.312 73.8486Z" fill="black"/>
    </g>
    <path d="M312.019 74.1013C311.704 74.562 311.258 74.9172 310.738 75.1206C309.337 75.1803 307.95 74.8156 306.76 74.0743C304.126 72.5228 302.845 69.8439 303.937 68.3285C304.269 67.8913 304.734 67.5745 305.263 67.4265C306.678 67.4905 308.054 67.9159 309.259 68.6623C311.838 70.1776 313.065 72.5048 312.019 74.1013Z" fill="#263238" fill-opacity="0.87"/>
    <path d="M306.907 68.671L306.637 68.446L306.844 68.608C306.869 68.6242 306.891 68.6457 306.907 68.671Z" fill="white"/>
    <path d="M312.853 74.3542C312.636 74.5267 312.396 74.6693 312.14 74.7781C311.987 74.6879 311.825 74.5977 311.68 74.4985C310.473 73.7061 309.413 72.7078 308.551 71.5489L308.28 71.1881L308.081 70.9536C307.549 70.3019 306.961 69.6982 306.323 69.1496L305.826 68.7708C305.493 68.5092 305.132 68.2747 304.762 68.0402C304.71 68.0109 304.664 67.9708 304.628 67.9226C304.593 67.8744 304.568 67.8192 304.555 67.7605L305.24 67.4539C305.574 67.6523 305.89 67.8688 306.196 68.0943L306.359 68.2115C306.373 68.2154 306.389 68.2154 306.404 68.2115L306.647 68.41L306.918 68.6355L307.414 69.0594C308.238 69.817 308.979 70.6606 309.624 71.576C310.348 72.4279 311.193 73.1694 312.131 73.7769L312.682 74.1106C312.725 74.1375 312.763 74.173 312.792 74.2149C312.822 74.2567 312.842 74.3041 312.853 74.3542Z" fill="#FF0000"/>
    <path d="M287.172 124.929V124.379C286.847 116.91 286.703 109.334 286.558 102C286.486 97.8512 286.399 93.705 286.297 89.5618V89.201L286.649 89.1108C298.307 86.1368 310.311 84.7353 322.341 84.9436H322.756V85.3495C323.739 97.4092 324.433 109.631 325.065 121.114V121.637L324.542 121.583C310.425 120.086 299.971 121.7 287.686 124.785L287.172 124.929ZM287.172 89.8955C287.274 93.9245 287.358 97.9534 287.424 101.982C287.569 109.126 287.713 116.514 288.011 123.784C299.692 120.879 310.38 119.274 324.091 120.645C323.477 109.451 322.792 97.5806 321.845 85.8456C310.163 85.6879 298.511 87.0493 287.181 89.8955H287.172Z" fill="#263238" fill-opacity="0.87"/>
    <path d="M312.359 111.101C308.197 111.171 304.048 111.59 299.956 112.355C298.847 106.853 298.305 104.76 297.25 100.629C303.934 98.8883 307.172 98.8251 313.486 98.9243C313.071 103.272 312.828 105.464 312.359 111.101Z" fill="#263238" fill-opacity="0.87"/>
    <g opacity="0.2">
        <path d="M313.514 99.2583C311.836 99.2583 311.006 99.2583 309.283 99.2583C309.283 103.462 309.283 105.644 309.238 111.201C310.51 111.129 311.123 111.111 312.359 111.065C312.819 105.635 313.054 103.48 313.514 99.2583Z" fill="black"/>
    </g>
    <path d="M317.068 95.154C317.107 95.6787 317.032 96.2056 316.846 96.698C316.661 97.1904 316.37 97.6363 315.994 98.0044C315.994 98.0044 315.994 98.0044 315.94 98.0044C315.389 98.5196 314.71 98.8778 313.974 99.0417C313.823 99.0855 313.669 99.1157 313.514 99.1319H313.279H312.81C307.155 99.1319 304.196 99.0777 298.315 100.575C297.994 100.663 297.664 100.717 297.332 100.737C295.176 100.864 293.408 99.6821 293.336 97.6977C293.35 96.484 293.805 95.317 294.617 94.4144C295.453 93.4264 296.58 92.7286 297.837 92.421C303.529 91.086 306.649 91.086 312.269 90.9507C313.454 90.9085 314.61 91.3199 315.502 92.101C316.393 92.8821 316.953 93.9741 317.068 95.154Z" fill="#263238" fill-opacity="0.87"/>
    <g opacity="0.2">
        <path d="M317.069 95.154C317.108 95.6786 317.033 96.2056 316.847 96.698C316.662 97.1903 316.371 97.6362 315.995 98.0043C315.995 98.0043 315.995 98.0043 315.941 98.0043C315.343 98.4608 314.676 98.82 313.966 99.0687C313.818 99.1257 313.663 99.1651 313.506 99.1859C313.479 99.1942 313.451 99.1942 313.425 99.1859C311.621 99.1859 310.719 99.1859 308.86 99.1859C309.433 99.1883 310 99.078 310.529 98.8612C311.108 98.6189 311.593 98.195 311.91 97.6532C312.228 97.1114 312.36 96.4812 312.288 95.8575C312.288 95.2081 312.225 94.8834 312.18 94.2339C312.083 93.3791 311.676 92.5894 311.036 92.0143C310.396 91.4392 309.567 91.1186 308.707 91.113C310.15 91.0499 310.854 91.0318 312.252 90.9958C313.433 90.9479 314.587 91.351 315.482 92.1232C316.376 92.8954 316.944 93.9789 317.069 95.154Z" fill="black"/>
    </g>
    <path d="M307.865 102.154C307.928 103.137 307.955 103.633 308.019 104.679C306.464 104.643 304.909 104.745 303.373 104.986C303.301 103.93 303.274 103.425 303.211 102.433C304.749 102.185 306.308 102.091 307.865 102.154Z" fill="#263238" fill-opacity="0.87"/>
    <path d="M307.865 102.154C307.928 103.137 307.955 103.633 308.019 104.679C306.464 104.643 304.909 104.745 303.373 104.986C303.301 103.93 303.274 103.425 303.211 102.433C304.749 102.185 306.308 102.091 307.865 102.154Z" fill="#263238" fill-opacity="0.87"/>
    <g opacity="0.5">
        <path d="M307.865 102.154C307.928 103.137 307.955 103.633 308.019 104.679C306.464 104.643 304.909 104.745 303.373 104.986C303.301 103.93 303.274 103.425 303.211 102.433C304.749 102.185 306.308 102.091 307.865 102.154Z" fill="white"/>
    </g>
    <path d="M305.918 102.217C305.981 103.2 306.008 103.705 306.071 104.76C305.165 104.76 304.26 104.835 303.365 104.986C303.293 103.93 303.266 103.425 303.203 102.433C304.099 102.277 305.008 102.205 305.918 102.217Z" fill="white"/>
    <path d="M318.055 112.788C318.088 113.244 317.953 113.696 317.676 114.06C317.55 114.217 317.391 114.344 317.21 114.431C317.029 114.519 316.831 114.565 316.63 114.565C308.512 114.502 304.832 114.8 295.586 116.613C295.376 116.671 295.156 116.68 294.942 116.639C294.728 116.599 294.526 116.51 294.352 116.379C294.178 116.248 294.036 116.08 293.937 115.885C293.838 115.691 293.785 115.477 293.782 115.26C293.769 114.776 293.932 114.305 294.242 113.934C294.54 113.555 294.961 113.294 295.433 113.194C304.651 111.435 308.295 111.092 316.44 111.02C316.885 111.05 317.301 111.251 317.602 111.58C317.903 111.91 318.065 112.342 318.055 112.788Z" fill="#263238" fill-opacity="0.87"/>
    <path d="M307.532 95.2262C307.523 95.5178 307.455 95.8045 307.333 96.0692C307.21 96.3338 307.036 96.571 306.819 96.7665C306.603 96.9619 306.349 97.1116 306.073 97.2065C305.797 97.3014 305.505 97.3397 305.214 97.3189C304.975 97.3282 304.736 97.31 304.501 97.2647C304.044 97.2295 303.613 97.0352 303.283 96.7156C302.954 96.396 302.747 95.9712 302.697 95.5149C302.675 95.0398 302.822 94.5723 303.11 94.1945C303.399 93.8167 303.812 93.5528 304.276 93.4493C304.506 93.387 304.742 93.3478 304.98 93.332C305.567 93.2585 306.16 93.4144 306.636 93.7672C307.111 94.12 307.432 94.6426 307.532 95.2262Z" fill="#263238" fill-opacity="0.87"/>
    <path d="M307.532 95.2262C307.523 95.5178 307.455 95.8045 307.333 96.0692C307.21 96.3338 307.036 96.571 306.819 96.7665C306.603 96.9619 306.349 97.1116 306.073 97.2065C305.797 97.3014 305.505 97.3397 305.214 97.3189C304.975 97.3282 304.736 97.31 304.501 97.2647C304.044 97.2295 303.613 97.0352 303.283 96.7156C302.954 96.396 302.747 95.9712 302.697 95.5149C302.675 95.0398 302.822 94.5723 303.11 94.1945C303.399 93.8167 303.812 93.5528 304.276 93.4493C304.506 93.387 304.742 93.3478 304.98 93.332C305.567 93.2585 306.16 93.4144 306.636 93.7672C307.111 94.12 307.432 94.6426 307.532 95.2262Z" fill="white"/>
    <path d="M306.179 95.2713C306.173 95.7462 306.002 96.2042 305.696 96.5675C305.39 96.9309 304.968 97.1772 304.501 97.2647C304.044 97.2294 303.613 97.0352 303.283 96.7156C302.954 96.396 302.747 95.9712 302.697 95.5148C302.675 95.0398 302.822 94.5722 303.11 94.1944C303.399 93.8166 303.812 93.5527 304.276 93.4492C304.751 93.4967 305.197 93.7019 305.542 94.0322C305.887 94.3624 306.111 94.7986 306.179 95.2713Z" fill="white"/>
    <path d="M309.158 99.2941C309.23 100.377 309.266 100.936 309.329 102.072C306.803 101.983 304.274 102.195 301.798 102.704C301.725 101.549 301.689 100.999 301.617 99.9165C304.096 99.406 306.628 99.197 309.158 99.2941Z" fill="#263238" fill-opacity="0.87"/>
    <g opacity="0.5">
        <path d="M309.158 99.2941C309.23 100.377 309.266 100.936 309.329 102.072C306.803 101.983 304.274 102.195 301.798 102.704C301.725 101.549 301.689 100.999 301.617 99.9165C304.096 99.406 306.628 99.197 309.158 99.2941Z" fill="white"/>
    </g>
    <path d="M306.822 99.3576C306.894 100.431 306.93 100.99 307.002 102.136C305.251 102.121 303.504 102.312 301.798 102.704C301.725 101.549 301.689 100.999 301.617 99.9168C303.324 99.5277 305.071 99.34 306.822 99.3576Z" fill="white"/>
    <path d="M311.195 95.136C311.195 95.3752 311.1 95.6046 310.931 95.7738C310.761 95.9429 310.532 96.038 310.293 96.038C310.049 96.054 309.809 95.9773 309.62 95.8234C309.431 95.6694 309.307 95.4496 309.273 95.2081C309.273 94.9689 309.368 94.7395 309.538 94.5703C309.707 94.4012 309.936 94.3061 310.175 94.3061C310.419 94.2879 310.661 94.3638 310.85 94.5181C311.04 94.6725 311.163 94.8936 311.195 95.136Z" fill="#263238" fill-opacity="0.87"/>
    <path d="M314.456 95.1269C314.467 95.2482 314.451 95.3703 314.41 95.4848C314.368 95.5993 314.302 95.7033 314.216 95.7893C314.13 95.8754 314.026 95.9415 313.912 95.9829C313.797 96.0243 313.675 96.04 313.554 96.0289C313.303 96.0324 313.06 95.9417 312.873 95.7747C312.686 95.6076 312.568 95.3765 312.544 95.1269C312.539 95.0094 312.56 94.8922 312.604 94.7833C312.649 94.6743 312.716 94.5761 312.801 94.495C312.887 94.414 312.988 94.352 313.099 94.3132C313.21 94.2744 313.328 94.2597 313.446 94.27C313.691 94.2592 313.931 94.3414 314.119 94.5003C314.306 94.6592 314.426 94.883 314.456 95.1269Z" fill="#263238" fill-opacity="0.87"/>
    <path d="M298.049 96.5794C298.037 96.8366 297.943 97.0834 297.781 97.2832C297.619 97.483 297.396 97.6252 297.147 97.6888C296.605 97.8241 296.136 97.5626 296.109 97.0845C296.128 96.8226 296.23 96.5734 296.4 96.3737C296.571 96.174 296.801 96.0343 297.056 95.975C297.562 95.8397 298.022 96.1103 298.049 96.5794Z" fill="#263238" fill-opacity="0.87"/>
    <path d="M311.751 104.084C310.289 104.084 309.55 104.084 308.025 104.156C308.025 103.687 307.98 103.462 307.953 103.002C309.478 103.002 310.217 102.947 311.678 102.938C311.705 103.389 311.723 103.624 311.751 104.084Z" fill="#FF0000"/>
    <path d="M309.185 99.6011C306.662 99.5013 304.136 99.7073 301.663 100.214C301.619 100.236 301.571 100.245 301.523 100.241C301.475 100.237 301.429 100.221 301.389 100.193C301.35 100.166 301.318 100.128 301.298 100.084C301.278 100.04 301.27 99.9918 301.275 99.9438C301.275 99.854 301.305 99.7668 301.36 99.6963C301.416 99.6259 301.494 99.5764 301.582 99.556C304.058 99.0489 306.587 98.8429 309.113 98.9426C309.203 98.9397 309.291 98.9704 309.359 99.0288C309.428 99.0872 309.472 99.1691 309.483 99.2583C309.487 99.3005 309.482 99.343 309.469 99.3833C309.456 99.4236 309.435 99.4608 309.407 99.4928C309.379 99.5248 309.345 99.5509 309.307 99.5695C309.269 99.5881 309.228 99.5988 309.185 99.6011Z" fill="#FF0000"/>
    <path d="M310.291 96.3358C309.961 96.3532 309.637 96.2475 309.38 96.0392C309.123 95.8309 308.953 95.5349 308.902 95.2083C308.903 95.0493 308.937 94.8921 309 94.7461C309.063 94.6002 309.155 94.4685 309.271 94.359C309.386 94.2495 309.522 94.1644 309.671 94.1089C309.82 94.0533 309.979 94.0285 310.138 94.0357C310.469 94.0123 310.795 94.1159 311.052 94.3255C311.309 94.5351 311.475 94.8348 311.518 95.1632C311.52 95.3223 311.488 95.4799 311.427 95.6264C311.365 95.7729 311.274 95.9052 311.159 96.0151C311.044 96.125 310.907 96.2101 310.758 96.2653C310.609 96.3205 310.45 96.3445 310.291 96.3358ZM310.183 94.6311C310.108 94.6274 310.032 94.6392 309.961 94.6656C309.89 94.6921 309.825 94.7327 309.77 94.785C309.715 94.8373 309.672 94.9002 309.642 94.9699C309.612 95.0395 309.597 95.1145 309.597 95.1903C309.619 95.3457 309.7 95.4869 309.822 95.5856C309.944 95.6843 310.099 95.7332 310.255 95.7225C310.33 95.7275 310.405 95.7169 310.476 95.6914C310.546 95.6659 310.611 95.626 310.665 95.5743C310.719 95.5225 310.762 95.4601 310.791 95.3909C310.82 95.3217 310.834 95.2472 310.833 95.1723C310.819 95.0152 310.746 94.8692 310.629 94.7637C310.512 94.6582 310.359 94.6011 310.201 94.604L310.183 94.6311Z" fill="white"/>
    <path d="M313.582 96.3358C313.251 96.3434 312.928 96.2292 312.675 96.0147C312.423 95.8002 312.257 95.5004 312.211 95.1722C312.208 95.0148 312.238 94.8585 312.299 94.7131C312.359 94.5677 312.449 94.4363 312.562 94.3271C312.675 94.2179 312.81 94.1333 312.958 94.0785C313.105 94.0237 313.263 93.9999 313.42 94.0086C313.752 93.9969 314.077 94.1097 314.331 94.3249C314.584 94.5401 314.748 94.8423 314.791 95.1722C314.796 95.3303 314.768 95.4879 314.709 95.6345C314.65 95.7812 314.56 95.9137 314.446 96.0235C314.332 96.1333 314.196 96.2178 314.047 96.2716C313.898 96.3254 313.74 96.3472 313.582 96.3358ZM313.465 94.6129C313.39 94.6091 313.315 94.6209 313.245 94.6476C313.175 94.6742 313.111 94.7151 313.058 94.7677C313.004 94.8203 312.963 94.8834 312.935 94.953C312.907 95.0226 312.894 95.0973 312.897 95.1722C312.917 95.3268 312.993 95.4685 313.111 95.5701C313.23 95.6716 313.381 95.7259 313.537 95.7224C313.612 95.7274 313.687 95.7168 313.757 95.6913C313.828 95.6658 313.892 95.6259 313.947 95.5742C314.001 95.5224 314.044 95.46 314.073 95.3908C314.102 95.3216 314.116 95.2471 314.114 95.1722C314.112 95.0015 314.042 94.8386 313.921 94.7188C313.799 94.5989 313.636 94.5317 313.465 94.5317V94.6129Z" fill="white"/>
    <path d="M297.134 97.9956C296.394 98.1851 295.754 97.8243 295.727 97.1748C295.75 96.8196 295.888 96.4813 296.118 96.2101C296.349 95.9389 296.661 95.749 297.007 95.6685C297.747 95.4881 298.36 95.8579 298.396 96.4983C298.378 96.8513 298.244 97.1886 298.016 97.4589C297.788 97.7291 297.478 97.9176 297.134 97.9956ZM297.043 96.2818C296.878 96.3174 296.73 96.4066 296.62 96.5354C296.511 96.6643 296.447 96.8257 296.439 96.9944C296.447 97.0681 296.473 97.1388 296.513 97.201C296.553 97.2632 296.608 97.3151 296.672 97.3527C296.735 97.3903 296.807 97.4126 296.881 97.4177C296.955 97.4229 297.029 97.4107 297.098 97.3823C297.262 97.3453 297.41 97.2558 297.519 97.1272C297.628 96.9986 297.692 96.838 297.702 96.6697C297.666 96.336 297.395 96.1916 297.043 96.2818Z" fill="white"/>
    <path d="M305.006 94.6673C304.917 94.6804 304.827 94.6585 304.755 94.6063C304.683 94.5541 304.633 94.4756 304.618 94.3877C304.618 93.9908 304.618 93.8014 304.555 93.4045C304.555 93.2421 304.699 93.1069 304.906 93.0978C304.996 93.0845 305.087 93.1061 305.161 93.1582C305.235 93.2103 305.286 93.2888 305.303 93.3774C305.303 93.7653 305.303 93.9637 305.366 94.3606C305.376 94.532 305.222 94.6583 305.006 94.6673Z" fill="#FF0000"/>
    <path d="M308.743 106.258H308.283C308.283 106.177 308.283 106.132 308.283 106.041C306.647 106.024 305.012 106.141 303.395 106.393C303.467 107.466 303.494 108.026 303.566 109.18C303.557 109.495 303.613 109.808 303.73 110.1C303.846 110.393 304.021 110.658 304.244 110.88C304.467 111.103 304.734 111.277 305.026 111.392C305.319 111.508 305.633 111.562 305.947 111.553H306.29C306.748 111.497 307.181 111.31 307.534 111.014C307.888 110.718 308.149 110.325 308.283 109.884C308.391 109.842 308.485 109.77 308.554 109.676L309.375 108.666C309.495 108.513 309.553 108.319 309.537 108.125C309.537 107.656 309.537 107.421 309.474 106.961C309.469 106.772 309.39 106.591 309.253 106.46C309.116 106.328 308.933 106.255 308.743 106.258ZM308.987 108.134C309.001 108.169 309.001 108.207 308.987 108.242L308.464 108.883V108.801C308.419 108.008 308.401 107.62 308.356 106.853H308.816C308.852 106.855 308.886 106.87 308.912 106.894C308.939 106.919 308.956 106.952 308.96 106.988C308.951 107.439 308.96 107.674 308.987 108.143V108.134Z" fill="#FF0000"/>
    <path d="M302.707 112.418C304.973 112.077 307.255 111.851 309.544 111.742C309.702 111.711 309.851 111.649 309.985 111.559C310.118 111.469 310.232 111.353 310.32 111.219C307.505 111.316 304.701 111.594 301.922 112.049C302.018 112.164 302.138 112.256 302.273 112.32C302.409 112.384 302.557 112.418 302.707 112.418Z" fill="#FF0000"/>
    <path d="M266.258 167.08C266.317 167.591 266.464 168.089 266.691 168.55C266.975 169.241 267.361 169.886 267.836 170.463C268.542 171.244 269.386 171.889 270.326 172.366C270.326 172.366 270.948 172.654 270.984 172.69C271.583 173.002 272.208 173.262 272.851 173.466C274.119 173.941 275.458 174.2 276.811 174.233C276.928 174.231 277.044 174.257 277.148 174.311C277.252 174.364 277.341 174.443 277.407 174.54C277.571 174.798 277.748 175.048 277.939 175.288C278.091 175.496 278.229 175.713 278.354 175.938C278.429 176.105 278.538 176.256 278.673 176.382C278.807 176.507 278.966 176.605 279.138 176.668C279.836 176.905 280.567 177.027 281.303 177.029C283.086 177.082 284.87 176.946 286.625 176.623C287.437 176.47 288.6 176.253 289.62 175.974C290.764 175.674 291.89 175.31 292.993 174.882C293.909 174.562 294.786 174.142 295.609 173.629C295.954 173.436 296.244 173.156 296.448 172.817C296.538 172.627 296.583 172.465 296.682 172.285C296.953 171.788 297.214 171.283 297.467 170.787C297.855 170.03 298.18 169.254 298.495 168.496C298.823 167.758 299.109 167.002 299.352 166.232C299.569 165.456 299.803 164.672 299.975 163.869C300.263 162.525 300.507 161.118 300.705 159.657C300.795 158.98 300.804 158.168 300.859 157.438C300.895 156.832 300.844 156.224 300.705 155.634C300.601 155.228 300.4 154.853 300.119 154.542C299.344 153.736 298.393 153.118 297.341 152.738C296.351 152.373 295.31 152.163 294.256 152.116C293.805 152.116 293.354 151.999 292.921 151.99C288.278 151.787 283.658 152.749 279.481 154.786C278.531 155.227 277.609 155.727 276.721 156.283C275.9 156.807 275.132 157.412 274.43 158.087C273.886 158.575 273.428 159.151 273.077 159.792C272.958 160.021 272.867 160.263 272.806 160.513C272.716 160.811 272.716 160.82 272.418 160.838C271.53 160.873 270.657 161.087 269.853 161.467C269.048 161.846 268.329 162.384 267.737 163.048C267.281 163.565 266.924 164.161 266.682 164.807C266.359 165.519 266.214 166.299 266.258 167.08ZM279.22 161.172C278.267 161.186 277.315 161.104 276.378 160.928C276.15 160.911 275.928 160.843 275.729 160.73C276.042 160.116 276.474 159.57 277.001 159.124C277.345 158.833 277.707 158.562 278.083 158.313C278.716 157.889 279.379 157.512 280.067 157.185C281.036 156.722 282.03 156.313 283.044 155.958C284.758 155.346 286.549 154.978 288.366 154.867C289.601 154.75 290.842 154.714 292.082 154.759C293.303 154.785 294.516 154.97 295.69 155.309C296.672 155.558 297.561 156.084 298.252 156.824C298.23 156.851 298.206 156.875 298.18 156.896C298.089 156.969 297.999 157.05 297.909 157.113C297.665 157.298 297.409 157.467 297.142 157.618C296.134 158.178 295.07 158.631 293.967 158.971L293.219 159.206C293.08 159.254 292.938 159.293 292.795 159.323C291.983 159.575 291.162 159.756 290.341 159.936C289.52 160.117 288.727 160.252 287.924 160.36C287.301 160.432 286.571 160.55 286.12 160.631C286.084 160.639 286.047 160.639 286.012 160.631C286.012 160.631 286.012 160.631 285.966 160.631L285.696 160.685L283.648 160.928C283.017 160.992 282.349 161.091 281.664 161.136C280.978 161.181 280.049 161.181 279.22 161.172ZM270.705 165.456C270.829 165.075 271.042 164.729 271.326 164.445C271.609 164.161 271.956 163.949 272.337 163.824C272.531 163.751 272.73 163.693 272.933 163.652C273.149 164.726 273.465 165.709 273.735 166.692C274.104 167.96 274.55 169.204 275.07 170.417C275.295 171.025 275.632 171.585 276.063 172.068C275.927 171.996 275.323 171.725 275.161 171.653C274.286 171.211 273.483 170.639 272.779 169.957C272.04 169.338 271.427 168.582 270.975 167.729C270.781 167.388 270.657 167.011 270.61 166.62C270.564 166.23 270.596 165.834 270.705 165.456Z" fill="#263238" fill-opacity="0.87"/>
    <path opacity="0.7" d="M274.804 161.532C276.807 162.615 280.009 162.353 286.702 161.478C293.395 160.603 297.39 159.169 299.104 157.347C300.241 156.147 299.709 154.506 298.87 153.532C298.384 153.21 297.863 152.944 297.318 152.738C296.328 152.372 295.288 152.162 294.233 152.115C293.792 152.115 293.331 151.998 292.908 151.98C288.257 151.746 283.625 152.715 279.459 154.794C278.512 155.233 277.593 155.73 276.708 156.283C276.218 156.6 275.748 156.946 275.3 157.32C273.839 158.727 273.307 160.739 274.804 161.532ZM275.706 160.73C276.013 160.116 276.443 159.573 276.969 159.133C277.321 158.844 277.673 158.565 278.052 158.312C278.688 157.891 279.351 157.511 280.036 157.176C281.003 156.714 281.997 156.311 283.013 155.967C283.866 155.671 284.736 155.427 285.619 155.236C286.514 155.065 287.417 154.945 288.325 154.876C289.56 154.756 290.802 154.717 292.042 154.758C293.263 154.787 294.476 154.975 295.65 155.318C296.632 155.565 297.524 156.087 298.22 156.824L298.148 156.896C298.062 156.977 297.972 157.052 297.878 157.122C297.638 157.307 297.385 157.472 297.12 157.618C296.112 158.18 295.047 158.637 293.945 158.98L293.187 159.214L292.772 159.331C291.96 159.557 291.14 159.764 290.319 159.936C289.498 160.107 288.704 160.261 287.892 160.36C287.27 160.441 286.539 160.549 286.088 160.63H285.989H285.935H285.71H285.655C285.006 160.721 284.33 160.793 283.608 160.883C282.886 160.973 282.309 161.036 281.633 161.081C280.956 161.126 280.036 161.081 279.206 161.081C278.253 161.091 277.302 161.009 276.365 160.838C276.143 160.855 275.92 160.818 275.715 160.73H275.706Z" fill="white"/>
    <path d="M275.727 160.73C275.926 160.843 276.148 160.911 276.376 160.928C277.313 161.104 278.264 161.186 279.217 161.172C280.047 161.172 280.85 161.217 281.635 161.172C282.419 161.127 282.988 161.027 283.619 160.964L285.667 160.721L285.937 160.667C285.937 160.667 285.937 160.667 285.982 160.667C286.018 160.675 286.055 160.675 286.091 160.667C286.569 160.586 287.299 160.468 287.895 160.396C288.697 160.288 289.518 160.135 290.312 159.972C291.106 159.81 291.954 159.611 292.765 159.359C292.909 159.329 293.051 159.29 293.189 159.242L293.938 159.007C295.04 158.667 296.104 158.214 297.113 157.654C297.379 157.503 297.635 157.334 297.88 157.149C297.97 157.086 298.06 157.005 298.15 156.932C298.177 156.911 298.201 156.887 298.222 156.86C297.532 156.12 296.642 155.594 295.661 155.345C294.487 155.006 293.274 154.821 292.053 154.795C290.813 154.75 289.572 154.786 288.337 154.903C286.52 155.014 284.728 155.382 283.015 155.994C282.001 156.348 281.007 156.758 280.038 157.221C279.352 157.552 278.689 157.928 278.054 158.349C277.678 158.598 277.316 158.869 276.971 159.16C276.456 159.596 276.033 160.129 275.727 160.73Z" fill="#FF0000"/>
    <path opacity="0.3" d="M275.673 158.718C275.91 158.414 276.169 158.127 276.449 157.861C278.789 155.927 281.499 154.49 284.413 153.64C285.955 153.175 287.549 152.902 289.158 152.828C293.596 152.576 296.374 153.423 297.456 154.1C297.735 154.277 297.995 154.483 298.232 154.713C298.493 154.988 298.645 155.348 298.66 155.726C298.675 156.105 298.552 156.476 298.313 156.77C298.223 156.869 298.123 156.96 298.016 157.04C295.535 154.677 288.806 155.173 286.524 155.426C284.242 155.85 278.532 157.672 276.079 160.838C275.961 160.802 275.847 160.757 275.736 160.703C275.593 160.582 275.477 160.432 275.395 160.264C275.314 160.095 275.268 159.912 275.262 159.724C275.256 159.537 275.29 159.351 275.361 159.178C275.431 159.004 275.538 158.848 275.673 158.718Z" fill="black"/>
    <path d="M307.163 129.412C304.52 127.347 301.074 128.023 297.593 128.889C296.276 129.139 295.018 129.635 293.885 130.351C292.812 131.135 292.162 132.452 292.812 133.219C293.461 133.986 295.157 134.211 294.859 135.275C292.018 137.007 288.545 137.35 285.551 138.387C283.352 139.186 281.401 140.548 279.895 142.338C279.375 142.803 279.005 143.412 278.831 144.088C278.678 145.179 279.733 145.766 280.725 146.108C280.906 146.172 280.887 146.469 280.725 146.578C279.998 146.979 279.336 147.487 278.759 148.084C278.389 148.481 278.66 149.067 279.129 148.932L279.3 148.887C280.572 148.58 281.564 149.112 281.6 150.104C281.547 150.671 281.305 151.204 280.912 151.616C280.519 152.029 279.999 152.297 279.435 152.377C279.129 152.45 279.354 152.828 279.796 152.855C280.673 152.835 281.536 152.632 282.331 152.26C282.856 152.125 283.346 151.88 283.769 151.541C284.192 151.202 284.538 150.777 284.784 150.294C285.289 149.139 285.01 147.38 284.108 147.362C286.218 146.798 288.294 146.108 290.322 145.297C291.315 144.992 292.172 144.355 292.749 143.493C293.209 142.591 292.595 141.337 291.63 141.616C294.445 140.273 297.403 139.361 300.172 138.189C302.921 137.107 305.429 135.491 307.551 133.435C308 133.027 308.314 132.493 308.453 131.902C308.474 131.41 308.366 130.922 308.14 130.485C307.913 130.048 307.577 129.678 307.163 129.412Z" fill="#FF0000"/>
    <path d="M244.978 195.826V195.213C244.827 185.874 244.656 176.539 244.464 167.206C244.295 158.493 244.133 149.773 243.977 141.048V140.714L246.412 139.938C271.803 131.893 298.061 123.567 325.021 125.885H325.4V126.264C327.069 146.442 328.106 164.103 328.665 180.249V180.736H328.178C298.412 179.509 269.693 187.564 245.528 195.601L244.978 195.826ZM244.87 141.436C245.014 150.035 245.176 158.634 245.357 167.233C245.525 176.367 245.693 185.499 245.862 194.627C269.846 186.68 298.268 178.779 327.763 179.897C327.24 163.995 326.185 146.622 324.552 126.814C297.889 124.623 271.857 132.876 246.665 140.868L244.87 141.436Z" fill="#263238" fill-opacity="0.87"/>
    <path d="M136.548 73.2175L138.127 73.425C138.199 77.502 137.991 77.7997 137.847 81.083L136.043 80.9026C136.35 78.3519 136.519 75.7865 136.548 73.2175Z" fill="#263238" fill-opacity="0.87"/>
    <path d="M146.657 74.9405C146.874 78.8282 146.802 79.2701 146.847 82.4542L145.367 82.1836C143.798 79.9647 143.022 78.9184 141.534 76.9249C141.534 78.6658 141.534 79.6309 141.48 81.5522L139.676 81.3087C139.748 78.0434 139.91 77.7007 139.784 73.6777L141.164 73.9122C142.725 76.6183 143.518 76.6183 145.007 79.3874C145.055 77.7869 145.016 76.185 144.889 74.5888L146.657 74.9405Z" fill="#263238" fill-opacity="0.87"/>
    <path d="M148.066 81.9579C148.301 81.5069 148.418 81.2995 148.644 80.9116C149.4 81.4949 150.269 81.9156 151.196 82.1473C152.243 82.3819 152.658 82.1473 152.658 81.7865C152.658 80.5959 148.247 80.0637 148.148 77.5201C148.148 76.3565 149.05 75.2831 151.305 75.8063C152.309 76.0585 153.238 76.5506 154.011 77.2405C153.864 77.6492 153.695 78.0496 153.505 78.4401C152.871 77.9338 152.136 77.568 151.35 77.3667C150.285 77.1142 149.888 77.3667 149.906 77.8358C149.952 79.1076 154.344 79.7841 154.362 82.0932C154.362 83.1486 153.352 83.9694 151.178 83.4913C150.037 83.2259 148.972 82.7012 148.066 81.9579Z" fill="#263238" fill-opacity="0.87"/>
    <path d="M157.069 78.927C156.113 78.6654 155.626 78.5391 154.643 78.2956C154.643 77.7454 154.643 77.4567 154.598 76.7532C157.304 77.4297 158.63 77.7905 161.164 78.5572C161.164 79.2337 161.164 79.5223 161.164 80.0906C160.262 79.82 159.775 79.6937 158.828 79.4321C158.828 81.8405 158.747 82.7605 158.675 85.25L157.015 84.799C157.033 82.2554 157.087 81.3173 157.069 78.927Z" fill="#263238" fill-opacity="0.87"/>
    <path d="M166.627 87.6404C166.19 86.8082 165.702 86.0039 165.166 85.2321H165.067L163.434 84.7269C163.389 85.4485 163.371 85.7642 163.326 86.6121C162.595 86.3866 162.37 86.3145 161.738 86.1341C161.901 83.0943 162 82.3907 162.063 78.8008C163.299 79.1616 163.678 79.2698 165.346 79.793C167.917 80.5958 169.117 82.2464 168.954 83.87C168.944 84.1086 168.886 84.3428 168.785 84.5589C168.683 84.775 168.54 84.9688 168.363 85.1291C168.186 85.2894 167.979 85.4129 167.753 85.4925C167.528 85.5721 167.289 85.6062 167.051 85.5928C167.616 86.4635 168.128 87.3671 168.584 88.2989L166.627 87.6404ZM165.166 81.2632L163.651 80.7852C163.605 81.8405 163.578 82.2735 163.515 83.3559L165.031 83.8339C166.302 84.2398 166.934 83.9602 167.006 83.1665C167.078 82.3727 166.501 81.6782 165.166 81.2632Z" fill="#263238" fill-opacity="0.87"/>
    <path d="M170.093 85.7372C170.291 84.0955 170.39 83.401 170.562 81.4797L172.104 82.0119C171.942 83.9061 171.852 84.6367 171.671 86.2333C171.509 87.6133 172.014 88.2898 172.817 88.5965C173.62 88.9032 174.215 88.5965 174.287 87.1623C174.377 85.5387 174.422 84.6999 174.503 82.7786L176.253 83.3469C176.154 85.2862 176.109 86.116 176.01 87.7937C175.875 90.0036 174.386 90.608 172.681 89.9585C171.815 89.6826 171.077 89.1044 170.602 88.3294C170.127 87.5544 169.946 86.6344 170.093 85.7372Z" fill="#263238" fill-opacity="0.87"/>
    <path d="M177.283 87.7756C177.266 87.2765 177.38 86.7817 177.614 86.3404C177.848 85.8991 178.193 85.5268 178.615 85.2604C179.038 84.994 179.522 84.8429 180.021 84.8221C180.52 84.8013 181.016 84.9115 181.459 85.1417C182.683 85.6295 183.678 86.5602 184.246 87.7485C183.923 88.0257 183.569 88.2648 183.191 88.4611C182.804 87.7439 182.201 87.1665 181.468 86.8105C181.206 86.6667 180.91 86.5964 180.612 86.6068C180.313 86.6173 180.023 86.7081 179.772 86.8697C179.521 87.0314 179.318 87.2579 179.184 87.5252C179.051 87.7926 178.993 88.091 179.015 88.389C178.984 89.1139 179.176 89.8309 179.564 90.4436C179.953 91.0563 180.52 91.5355 181.189 91.8166C181.478 91.9633 181.805 92.0194 182.127 91.9776C182.449 91.9357 182.75 91.7979 182.993 91.582L183.985 93.1605C183.281 93.8551 182.226 93.9002 180.963 93.35C179.868 92.8884 178.933 92.1125 178.278 91.1204C177.623 90.1283 177.277 88.9644 177.283 87.7756Z" fill="#263238" fill-opacity="0.87"/>
    <path d="M186.583 88.9486L184.473 88.0917C184.473 87.4242 184.473 87.1446 184.518 86.5312C186.845 87.4964 187.945 87.9203 190.588 89.0388C190.588 89.6251 190.588 89.8777 190.525 90.5632C189.578 90.1573 189.1 89.9589 188.108 89.562C188.108 92.4935 188.036 93.3865 187.936 96.2999L186.385 95.5963C186.493 92.728 186.565 91.826 186.583 88.9486Z" fill="#263238" fill-opacity="0.87"/>
    <path d="M191.528 89.4446C192.214 89.7422 192.557 89.8866 193.233 90.1932C192.999 93.1518 192.917 94.7934 192.629 98.4465L190.996 97.6889C191.231 94.0628 191.321 92.4753 191.528 89.4446Z" fill="#263238" fill-opacity="0.87"/>
    <path d="M194.224 94.4327C194.431 92.0515 196.181 91.375 198.337 92.3852C199.411 92.8047 200.331 93.5413 200.975 94.4968C201.62 95.4524 201.958 96.5816 201.945 97.7341C201.828 100.16 200.087 102.064 197.841 101.017C195.595 99.971 194.025 96.805 194.224 94.4327ZM200.276 97.0305C200.326 96.3579 200.158 95.6872 199.797 95.1172C199.437 94.5472 198.903 94.1081 198.274 93.8645C197.038 93.3143 196.028 93.6209 195.902 95.1453C195.839 95.9255 195.993 96.7078 196.348 97.4053C196.704 98.1028 197.245 98.6881 197.913 99.0961C199.185 99.6734 200.186 98.5639 200.249 97.0305H200.276Z" fill="#263238" fill-opacity="0.87"/>
    <path d="M208.946 97.5087C208.946 100.034 209.063 102.244 209.027 106.429C208.901 106.357 208.549 106.114 208.224 105.942C207.25 102.903 206.42 100.53 204.896 98.3115C205.013 99.8629 205.058 101.919 205.148 104.382C204.4 103.994 203.994 103.787 203.191 103.399C203.191 99.439 203.191 97.4546 203.137 94.7756L204.381 95.3709C205.771 97.6259 206.826 98.5099 208.044 101.559C207.89 99.006 207.953 98.7264 207.764 97.0938C208.368 97.3644 208.368 97.2381 208.946 97.5087Z" fill="#263238" fill-opacity="0.87"/>
    <path d="M157.93 99.1769C158.02 97.1925 158.056 96.3537 158.128 94.3783C157.226 95.7854 156.712 96.3988 155.684 97.7608L154.854 97.5623C154.042 95.8215 153.645 95.0097 152.87 93.2327C152.707 95.154 152.617 96.0019 152.437 97.869L150.633 97.4812C150.985 94.3332 151.138 92.8539 151.463 89.6067L152.915 89.9314C153.871 92.2135 154.376 93.2959 155.404 95.5238C156.667 93.8281 157.263 93.0614 158.399 91.2844L159.743 91.6452C159.653 94.9646 159.635 96.2544 159.536 99.6009C158.931 99.4295 158.597 99.3393 157.93 99.1769Z" fill="#263238" fill-opacity="0.87"/>
    <path d="M166.565 99.8627C165.005 99.3576 163.994 99.0509 162.714 98.6901C162.47 99.3035 162.344 99.5921 162.073 100.278C161.406 100.088 161.063 99.989 160.359 99.8086C161.766 96.7959 162.208 95.6864 163.652 92.782C164.364 92.9985 164.788 93.1338 165.528 93.3773C166.971 97.1928 167.819 98.5367 169.226 102.578C168.504 102.316 168.126 102.172 167.323 101.901C167.025 101.044 166.872 100.647 166.565 99.8627ZM165.934 98.2752C165.375 96.8951 165.095 95.948 164.572 94.7844C164.051 95.6443 163.61 96.5501 163.255 97.4904C164.166 97.7249 164.86 97.9324 165.97 98.2752H165.934Z" fill="#263238" fill-opacity="0.87"/>
    <path d="M175.897 97.2379C175.843 100.684 175.897 101.549 175.843 105.148L174.535 104.607C173.164 101.856 172.731 100.945 171.333 98.4285C171.405 100.458 171.441 101.216 171.486 103.408L169.962 102.821C169.881 99.2133 169.773 98.203 169.691 94.7935L170.999 95.2896C172.37 97.8603 172.848 98.8164 174.265 101.279C174.265 99.4027 174.265 98.636 174.265 96.5614C174.932 96.859 175.266 96.9943 175.897 97.2379Z" fill="#263238" fill-opacity="0.87"/>
    <path d="M177.508 102.361C177.508 100.674 177.508 99.9256 177.589 97.9683L179.267 98.6899C179.204 100.638 179.177 101.396 179.15 103.038C179.073 103.59 179.178 104.152 179.448 104.64C179.718 105.128 180.139 105.515 180.647 105.744C181.639 106.185 182.235 105.861 182.28 104.499C182.343 102.911 182.379 102.081 182.478 100.097L184.093 100.819C183.984 102.857 183.939 103.723 183.876 105.329C183.777 107.394 182.55 108.341 180.584 107.457C179.629 107.001 178.829 106.276 178.282 105.37C177.736 104.464 177.467 103.418 177.508 102.361Z" fill="#263238" fill-opacity="0.87"/>
    <path d="M190.035 109.595L186.59 108.107C186.306 108.595 186.056 109.101 185.841 109.622L184.227 108.919C185.553 105.933 186.328 105.617 187.726 102.442L189.278 103.146C190.405 107.485 191.019 108.405 192.489 112.482L190.685 111.706C190.405 110.84 190.324 110.416 190.035 109.595ZM189.512 108.197C189.043 107.043 188.836 106.095 188.43 104.742C188.06 105.569 187.648 106.376 187.194 107.16L189.512 108.197Z" fill="#263238" fill-opacity="0.87"/>
    <path d="M193.154 104.887L194.822 105.635C194.822 108.828 194.931 109.243 194.913 111.949L198.439 113.474C198.439 114.096 198.439 114.421 198.439 115.061L193.208 112.833C193.091 109.307 193.154 108.783 193.154 104.887Z" fill="#263238" fill-opacity="0.87"/>
    <path d="M202.84 69.6726L209.921 65.6768L216.965 82.8599L202.84 69.6726Z" fill="#263238" fill-opacity="0.87"/>
    <path d="M241.361 76.6176L234.975 71.5845L225.387 87.4868L241.361 76.6176Z" fill="#263238" fill-opacity="0.87"/>
    <path d="M218.09 60.9592L227.606 61.8612L222.861 83.1935L218.09 60.9592Z" fill="#263238" fill-opacity="0.87"/>
    <path d="M288.638 10.5554C288.533 10.5533 288.432 10.5155 288.352 10.4482C288.272 10.381 288.217 10.2883 288.196 10.1855C288.184 10.1274 288.185 10.0675 288.197 10.0094C288.208 9.95135 288.232 9.89626 288.266 9.84745C288.299 9.79863 288.342 9.75709 288.392 9.7253C288.443 9.6935 288.498 9.67211 288.557 9.66238C291.516 9.0851 294.501 8.589 297.424 8.17408C297.543 8.15733 297.665 8.18879 297.761 8.26153C297.857 8.33427 297.921 8.44233 297.938 8.56194C297.955 8.68155 297.923 8.80292 297.85 8.89934C297.778 8.99576 297.67 9.05934 297.55 9.07608C294.645 9.491 291.678 9.97808 288.728 10.5554H288.638Z" fill="#263238" fill-opacity="0.87"/>
    <path d="M250.67 21.8483C250.55 21.871 250.426 21.8453 250.326 21.7768C250.225 21.7083 250.156 21.6026 250.133 21.483C250.11 21.3634 250.136 21.2397 250.205 21.139C250.273 21.0384 250.379 20.969 250.498 20.9463C261.538 16.5008 272.931 12.9887 284.558 10.447C284.676 10.4229 284.799 10.4463 284.901 10.5121C285.002 10.5779 285.073 10.6809 285.099 10.7988C285.112 10.8563 285.114 10.9159 285.104 10.974C285.094 11.0321 285.072 11.0876 285.04 11.1372C285.008 11.1868 284.966 11.2295 284.918 11.2628C284.869 11.296 284.814 11.3192 284.756 11.331C273.18 13.8603 261.835 17.3542 250.841 21.7762C250.79 21.8129 250.732 21.8375 250.67 21.8483Z" fill="#263238" fill-opacity="0.87"/>
    <path d="M168.954 243.695H158.951C158.831 243.695 158.717 243.648 158.632 243.563C158.548 243.479 158.5 243.364 158.5 243.244C158.5 243.125 158.548 243.01 158.632 242.926C158.717 242.841 158.831 242.793 158.951 242.793H168.954C169.074 242.793 169.189 242.841 169.273 242.926C169.358 243.01 169.405 243.125 169.405 243.244C169.405 243.364 169.358 243.479 169.273 243.563C169.189 243.648 169.074 243.695 168.954 243.695Z" fill="#263238" fill-opacity="0.87"/>
    <path d="M153.59 243.695H117.681C117.562 243.695 117.447 243.648 117.363 243.563C117.278 243.479 117.23 243.364 117.23 243.244C117.23 243.125 117.278 243.01 117.363 242.926C117.447 242.841 117.562 242.793 117.681 242.793H153.59C153.709 242.796 153.822 242.844 153.906 242.928C153.991 243.012 154.039 243.126 154.041 243.244C154.041 243.364 153.994 243.479 153.909 243.563C153.824 243.648 153.71 243.695 153.59 243.695Z" fill="#263238" fill-opacity="0.87"/>
    <path d="M199.142 126.183C199.407 125.653 199.773 125.18 200.221 124.792C200.668 124.404 201.188 124.107 201.75 123.919C202.312 123.732 202.905 123.657 203.496 123.698C204.087 123.74 204.664 123.898 205.194 124.163C205.725 124.427 206.197 124.794 206.586 125.241C206.974 125.689 207.271 126.208 207.458 126.77C207.646 127.332 207.721 127.926 207.679 128.517C207.637 129.108 207.48 129.685 207.215 130.215V130.287C205.6 133.625 204.004 137.133 202.488 140.579C200.973 144.025 199.521 147.506 198.348 150.97C198.042 151.872 197.78 152.693 197.527 153.559L197.383 154.028C197.348 154.102 197.327 154.181 197.32 154.262C197.275 154.512 197.257 154.766 197.266 155.02C197.388 156.565 197.734 158.085 198.294 159.53C199.624 162.972 201.191 166.318 202.985 169.542L203.039 169.642C203.31 170.122 203.396 170.685 203.28 171.224C203.164 171.763 202.855 172.241 202.411 172.568C201.966 172.894 201.418 173.047 200.869 172.996C200.32 172.946 199.808 172.696 199.431 172.293C196.472 169.381 193.931 166.072 191.881 162.462C190.701 160.425 189.869 158.206 189.418 155.895C189.305 155.179 189.26 154.455 189.283 153.73C189.303 153.003 189.399 152.281 189.572 151.575C189.797 150.555 190.023 149.527 190.293 148.544C191.341 144.635 192.627 140.794 194.145 137.043C195.66 133.336 197.266 129.746 199.151 126.129L199.142 126.183Z" fill="#CB7A63"/>
    <path d="M200.45 169.515L199.818 169.984C199.51 170.201 199.277 170.509 199.152 170.865C199.027 171.221 199.018 171.607 199.124 171.969C199.59 173.381 200.41 174.651 201.505 175.658L205.925 170.381L202.127 169.227C201.845 169.138 201.545 169.118 201.254 169.169C200.962 169.219 200.686 169.338 200.45 169.515Z" fill="#CB7A63"/>
    <path d="M205.943 170.381L201.523 175.658L206.466 177.408L211.211 173.547L205.943 170.381Z" fill="#CB7A63"/>
    <path d="M227.141 98.2571C227.448 98.194 227.782 98.5187 227.881 98.9877C227.98 99.4568 227.818 99.8897 227.511 99.9529C227.204 100.016 226.87 99.6913 226.771 99.2222C226.672 98.7532 226.834 98.3112 227.141 98.2571Z" fill="#263238"/>
    <path d="M228.107 104.454C228.511 104.474 228.914 104.404 229.288 104.248C229.661 104.092 229.994 103.854 230.263 103.552C229.073 102.52 228.029 101.331 227.16 100.016L228.107 104.454Z" fill="#B74D3C"/>
    <path d="M224.684 96.9314C224.911 96.6555 225.2 96.4373 225.528 96.2946C225.856 96.152 226.213 96.0889 226.569 96.1106H226.659C226.736 96.1106 226.809 96.0802 226.864 96.026C226.918 95.9719 226.948 95.8985 226.948 95.8219C226.948 95.7454 226.918 95.6719 226.864 95.6178C226.809 95.5637 226.736 95.5333 226.659 95.5333C226.216 95.4925 225.77 95.5579 225.358 95.7242C224.945 95.8905 224.578 96.1528 224.287 96.4894C224.241 96.5417 224.215 96.609 224.215 96.6788C224.214 96.7163 224.22 96.7536 224.234 96.7886C224.247 96.8236 224.268 96.8555 224.294 96.8824C224.32 96.9093 224.351 96.9307 224.385 96.9453C224.42 96.96 224.457 96.9675 224.495 96.9675C224.56 96.98 224.628 96.9671 224.684 96.9314Z" fill="#263238"/>
    <path d="M221.577 125.579C213.459 125.66 212.25 121.258 212.25 121.258C214.658 118.913 214.776 114.593 214.261 110.741C214.908 111.656 215.726 112.437 216.67 113.041C217.528 113.624 218.499 114.02 219.52 114.204C220.541 114.387 221.589 114.353 222.596 114.105C222.628 114.115 222.663 114.115 222.695 114.105C222.687 114.183 222.687 114.262 222.695 114.34C222.208 117.425 222.641 120.726 225.879 121.691C225.834 121.655 230.488 125.48 221.577 125.579Z" fill="#CB7A63"/>
    <path d="M222.919 112.933C222.819 113.306 222.744 113.686 222.693 114.069C222.661 114.079 222.626 114.079 222.594 114.069C221.587 114.317 220.538 114.351 219.518 114.167C218.497 113.984 217.526 113.588 216.668 113.005C215.724 112.401 214.906 111.62 214.259 110.705C214.142 109.731 213.962 108.775 213.781 107.909L222.585 112.716L222.919 112.933Z" fill="#CB7A63"/>
    <path d="M209.785 122.007C209.785 122.007 211.066 118.056 212.996 116.811C214.927 115.566 223.396 116.856 224.722 117.379C226.048 117.903 227.428 120.987 227.428 120.987L209.785 122.007Z" fill="#263238" fill-opacity="0.87"/>
    <path d="M208.723 134.391C207.762 138.55 205.339 142.225 201.895 144.746L192.496 137.828C192.496 137.828 198.043 122.575 203.6 121.231C209.264 119.887 210.536 126.905 208.723 134.391Z" fill="#263238"/>
    <path opacity="0.2" d="M208.973 133.057C208.9 133.499 208.801 133.959 208.693 134.392C207.737 138.548 205.32 142.222 201.883 144.746L201.387 144.368C201.517 139.712 203.324 135.26 206.474 131.83L208.973 133.057Z" fill="black"/>
    <path d="M191.284 134.446L190.094 139.208L201.847 146.803L203.831 143.051L191.284 134.446Z" fill="#263238" fill-opacity="0.87"/>
    <path d="M230.009 120.32C228.702 120.104 227.24 119.905 225.743 119.788C221.234 119.575 216.716 119.623 212.213 119.932C209.309 120.146 206.426 120.586 203.59 121.249C205.899 153.045 204.492 168.631 203.987 173.177L235.827 172.835C239.12 146.622 238.209 133.408 236.928 126.995C236.588 125.312 235.744 123.772 234.509 122.579C233.273 121.387 231.704 120.599 230.009 120.32Z" fill="#263238"/>
    <path opacity="0.2" d="M235.583 172.834H235.863C237.901 156.418 238.316 145.107 238.019 137.368L224.02 129.25C226.166 151.096 231.867 161.072 235.583 172.834Z" fill="black"/>
    <path d="M228.71 106.33C228.685 107.721 228.306 109.083 227.608 110.288C226.911 111.492 225.918 112.498 224.724 113.212C224.11 113.594 223.441 113.877 222.739 114.051C222.707 114.061 222.672 114.061 222.64 114.051C221.633 114.299 220.585 114.333 219.564 114.149C218.543 113.966 217.572 113.57 216.714 112.987C215.77 112.383 214.952 111.602 214.305 110.687C212.718 108.513 212.059 105.617 210.923 101.531C210.553 100.217 210.523 98.8307 210.834 97.5015C211.146 96.1724 211.79 94.944 212.705 93.9312C213.621 92.9184 214.778 92.1544 216.069 91.7104C217.36 91.2665 218.742 91.1573 220.087 91.3929C226.212 92.4753 228.828 100.846 228.71 106.33Z" fill="#CB7A63"/>
    <path opacity="0.2" d="M224.684 113.23C224.07 113.612 223.401 113.895 222.699 114.069L222.916 110.461C222.916 110.461 224.26 113.23 224.684 113.23Z" fill="black"/>
    <path d="M225.174 103.218C225.056 104.479 224.674 105.701 224.052 106.805C223.43 107.908 222.583 108.868 221.566 109.622C221.294 109.816 220.988 109.957 220.664 110.037C219.636 110.272 218.671 109.388 218.202 108.441C217.665 107.175 217.398 105.811 217.417 104.436C217.3 101.216 217.696 97.6799 219.969 95.4159C220.471 94.835 221.173 94.4646 221.936 94.3786C224.849 94.2343 225.372 101.369 225.174 103.218Z" fill="#263238"/>
    <path d="M225.297 91.7086C224.394 90.8297 223.273 90.2071 222.05 89.9046C220.324 89.324 218.528 88.9811 216.71 88.8854C214.872 88.8029 213.066 89.3858 211.623 90.527C210.089 91.8439 209.359 93.8373 208.682 95.7406L207.456 99.1501C207.125 99.7548 206.982 100.445 207.046 101.131C207.111 101.818 207.379 102.469 207.816 103.002C208.935 104.806 210.056 106.61 211.181 108.414C211.704 109.172 212.095 110.014 212.335 110.903C212.447 111.349 212.441 111.816 212.318 112.259C212.194 112.702 211.958 113.105 211.632 113.429C212.199 113.357 212.745 113.168 213.235 112.875C213.726 112.581 214.15 112.19 214.482 111.724C214.527 112.256 214.434 112.791 214.211 113.276C213.988 113.761 213.643 114.181 213.21 114.493C214.522 114.013 215.685 113.198 216.584 112.13C216.397 112.715 216.047 113.235 215.574 113.627C217.378 113.898 218.857 112.274 219.885 110.768C221.157 108.91 222.348 106.565 221.446 104.508C221.148 103.832 220.643 103.254 220.345 102.569C220.084 101.808 220.025 100.994 220.172 100.203C220.319 99.4132 220.667 98.6744 221.184 98.0587C222.226 96.8344 223.475 95.8025 224.873 95.01C224.873 95.01 226.668 93.215 225.297 91.7086Z" fill="#263238"/>
    <path d="M223.697 98.9336C225.393 99.4388 226.286 101.946 226.403 103.534C226.485 105.338 225.312 106.402 223.779 105.23C222.621 104.316 221.794 103.049 221.424 101.622C220.991 99.9439 222.002 98.4375 223.697 98.9336Z" fill="#CB7A63"/>
    <path d="M220.702 324.136C220.672 324.132 220.645 324.119 220.623 324.098C220.602 324.076 220.589 324.049 220.585 324.019C220.575 323.99 220.576 323.959 220.588 323.931C220.599 323.902 220.621 323.879 220.648 323.866C220.765 323.812 222.948 322.513 224.003 322.774C224.105 322.792 224.201 322.832 224.285 322.892C224.369 322.951 224.439 323.028 224.49 323.117C224.558 323.212 224.594 323.325 224.594 323.442C224.594 323.558 224.558 323.672 224.49 323.766C224.238 324.136 223.489 324.263 222.686 324.281C222.022 324.292 221.358 324.244 220.702 324.136ZM223.634 323.018C222.765 323.143 221.93 323.434 221.171 323.875C222.353 324.019 223.949 323.974 224.238 323.568C224.301 323.505 224.337 323.424 224.238 323.234C224.204 323.18 224.159 323.134 224.106 323.098C224.054 323.063 223.994 323.038 223.931 323.027C223.835 323.013 223.738 323.013 223.643 323.027L223.634 323.018Z" fill="#263238" fill-opacity="0.87"/>
    <path d="M220.641 324.109C220.622 324.092 220.607 324.072 220.596 324.048C220.585 324.025 220.579 324 220.578 323.974C220.59 323.077 220.908 322.211 221.48 321.521C221.592 321.418 221.725 321.34 221.87 321.294C222.015 321.247 222.168 321.232 222.319 321.25C222.734 321.25 222.878 321.494 222.887 321.656C223.023 322.387 221.552 323.758 220.786 324.118H220.731C220.701 324.125 220.67 324.121 220.641 324.109ZM222.238 321.539C222.041 321.542 221.853 321.623 221.715 321.764C221.259 322.325 220.983 323.01 220.921 323.731C221.697 323.244 222.725 322.152 222.608 321.719C222.608 321.719 222.608 321.557 222.31 321.557H222.229L222.238 321.539Z" fill="#263238" fill-opacity="0.87"/>
    <path d="M214.039 309.542L220.344 309.425L220.109 323.983L213.777 324.109L214.039 309.542Z" fill="#CB7A63"/>
    <path d="M221.587 323.721C225.953 326.274 227.279 326.364 232.285 327.329C233.376 327.546 232.736 330.189 230.129 330.243C225.817 330.324 225.366 330.135 221.686 330.198C218.538 330.261 214.93 330.477 212.423 330.568C212.348 330.577 212.272 330.577 212.197 330.568C212.077 330.545 211.963 330.499 211.862 330.431C211.761 330.364 211.674 330.276 211.608 330.174C211.541 330.072 211.496 329.958 211.475 329.838C211.453 329.718 211.457 329.595 211.485 329.476L212.594 323.821C212.622 323.699 212.689 323.589 212.785 323.509C212.881 323.429 213.001 323.384 213.126 323.379L220.054 323.252C220.599 323.262 221.13 323.424 221.587 323.721Z" fill="#263238"/>
    <path opacity="0.2" d="M214.025 309.551L213.898 317.038L220.221 316.911L220.339 309.434L214.025 309.551Z" fill="black"/>
    <path d="M167.854 325.083C167.849 325.114 167.835 325.142 167.814 325.165C167.794 325.187 167.766 325.203 167.736 325.21C167.705 325.216 167.673 325.212 167.645 325.197C167.617 325.182 167.595 325.158 167.583 325.129C167.52 325.02 166.266 322.828 166.555 321.773C166.606 321.577 166.728 321.407 166.898 321.295C166.994 321.227 167.109 321.19 167.227 321.19C167.345 321.19 167.46 321.227 167.556 321.295C167.926 321.557 168.025 322.305 168.034 323.153C168.032 323.801 167.971 324.447 167.854 325.083ZM166.798 322.152C166.902 323.016 167.171 323.852 167.592 324.614C167.754 323.442 167.745 321.845 167.34 321.557C167.285 321.493 167.195 321.457 167.006 321.557C166.951 321.587 166.904 321.63 166.868 321.682C166.832 321.733 166.808 321.792 166.798 321.854C166.789 321.95 166.789 322.047 166.798 322.143V322.152Z" fill="#263238" fill-opacity="0.87"/>
    <path d="M167.843 325.147C167.828 325.168 167.808 325.185 167.784 325.196C167.76 325.207 167.734 325.212 167.708 325.21C167.645 325.21 165.904 325.092 165.273 324.254C165.173 324.14 165.098 324.006 165.053 323.862C165.008 323.717 164.994 323.565 165.011 323.415C165.056 323.009 165.264 322.864 165.435 322.864C166.157 322.738 167.519 324.226 167.861 324.984V325.047C167.868 325.081 167.862 325.117 167.843 325.147ZM165.282 323.541C165.292 323.732 165.369 323.914 165.498 324.055C166.053 324.519 166.736 324.802 167.456 324.867C166.977 324.091 165.913 323.063 165.48 323.153C165.48 323.153 165.309 323.153 165.309 323.442V323.541H165.282Z" fill="#263238" fill-opacity="0.87"/>
    <path d="M171.117 310.345L177.269 310.661L173.949 325.408L167.762 325.084L171.117 310.345Z" fill="#CB7A63"/>
    <path d="M166.265 324.307C164.606 326.31 163.731 327.338 158.887 328.953C157.823 329.305 158.788 331.848 161.386 331.569C165.679 331.109 163.307 331.163 166.969 330.766C170.099 330.423 173.707 330.189 176.205 329.963C176.288 329.957 176.37 329.942 176.449 329.918C176.566 329.882 176.675 329.823 176.769 329.744C176.863 329.665 176.94 329.568 176.995 329.458C177.05 329.348 177.082 329.228 177.088 329.106C177.095 328.983 177.077 328.861 177.035 328.745L175.231 323.279C175.191 323.16 175.11 323.058 175.004 322.99C174.897 322.923 174.77 322.894 174.645 322.909L167.772 323.64C167.489 323.646 167.21 323.707 166.951 323.822C166.693 323.937 166.46 324.102 166.265 324.307Z" fill="#263238"/>
    <path opacity="0.2" d="M171.108 310.354L169.395 317.93L175.555 318.246L177.269 310.66L171.108 310.354Z" fill="black"/>
    <path d="M203.999 173.177C201.921 177.129 200.13 181.226 198.641 185.435C196.304 191.927 194.648 198.644 193.698 205.478C191.894 216.392 190.992 224.528 189.061 232.826C183.09 258.786 168.09 313.628 168.09 313.628L179.248 315.838C179.248 315.838 200.896 252.03 206.371 233.44C211.296 216.708 223.897 172.753 223.897 172.753L203.999 173.177Z" fill="#263238" fill-opacity="0.87"/>
    <g opacity="0.5">
        <path d="M203.999 173.177C201.921 177.129 200.13 181.226 198.641 185.435C196.304 191.927 194.648 198.644 193.698 205.478C191.894 216.392 190.992 224.528 189.061 232.826C183.09 258.786 168.09 313.628 168.09 313.628L179.248 315.838C179.248 315.838 200.896 252.03 206.371 233.44C211.296 216.708 223.897 172.753 223.897 172.753L203.999 173.177Z" fill="#FF0000"/>
        <path d="M203.999 173.177C201.921 177.129 200.13 181.226 198.641 185.435C196.304 191.927 194.648 198.644 193.698 205.478C191.894 216.392 190.992 224.528 189.061 232.826C183.09 258.786 168.09 313.628 168.09 313.628L179.248 315.838C179.248 315.838 200.896 252.03 206.371 233.44C211.296 216.708 223.897 172.753 223.897 172.753L203.999 173.177Z" fill="#EEEEEE" fill-opacity="0.2"/>
    </g>
    <path d="M166.746 311.572V315.522L180.15 316.686C180.15 316.686 181.25 312.347 181.196 312.347L166.746 311.572Z" fill="#263238" fill-opacity="0.87"/>
    <path opacity="0.3" d="M218.066 192.976C214.097 206.777 209.045 224.231 206.339 233.395C206.213 233.837 206.069 234.297 205.934 234.784C206.745 219.558 209.199 194.014 216.821 192.913C217.235 192.843 217.66 192.864 218.066 192.976Z" fill="black"/>
    <path d="M214.234 172.907C214.234 172.907 211.862 214.868 211.907 234.676C211.907 253.149 212.205 315.612 212.205 315.612L222.911 315.405C222.911 315.405 229.09 251.679 230.596 232.899C232.031 215.112 235.837 172.835 235.837 172.835L214.234 172.907Z" fill="#263238" fill-opacity="0.87"/>
    <g opacity="0.5">
        <path d="M214.234 172.907C214.234 172.907 211.862 214.868 211.907 234.676C211.907 253.149 212.205 315.612 212.205 315.612L222.911 315.405C222.911 315.405 229.09 251.679 230.596 232.899C232.031 215.112 235.837 172.835 235.837 172.835L214.234 172.907Z" fill="#FF0000"/>
        <path d="M214.234 172.907C214.234 172.907 211.862 214.868 211.907 234.676C211.907 253.149 212.205 315.612 212.205 315.612L222.911 315.405C222.911 315.405 229.09 251.679 230.596 232.899C232.031 215.112 235.837 172.835 235.837 172.835L214.234 172.907Z" fill="#EEEEEE" fill-opacity="0.2"/>
    </g>
    <path d="M210.543 311.914L210.985 315.829L224.001 315.576C224.001 315.576 224.524 311.166 224.47 311.166L210.543 311.914Z" fill="#263238" fill-opacity="0.87"/>
    <path d="M245.209 150.6C248.267 150.943 251.027 146.875 251.631 143.863C252.668 138.712 249.827 133.652 247.049 129.178L237.055 112.942C236.577 112.166 239.626 117.127 237.957 114.16C237.055 112.5 233.781 112.482 232.473 115.233C235.972 121.646 236.604 126.959 238.669 133.968C239.277 135.559 239.454 137.283 239.184 138.965C238.435 142.022 232.247 139.497 233.772 142.464C234.872 144.647 238.696 149.852 245.209 150.6Z" fill="#CB7A63"/>
    <path d="M235.558 123.549C240.97 128.6 243.676 138.757 243.676 138.757L234.061 143.943C234.061 143.943 222.596 134.526 224.139 126.463C225.284 120.284 228.937 117.28 235.558 123.549Z" fill="#263238"/>
    <path d="M228.938 141.589L231.95 145.278L245.192 138.026L243.523 133.877L228.938 141.589Z" fill="#263238" fill-opacity="0.87"/>
    <path d="M238.469 115.278C237.567 113.474 235.565 109.703 234.681 107.854C234.559 107.54 234.357 107.264 234.095 107.052C233.869 106.922 233.621 106.837 233.364 106.799C231.371 106.429 229.296 106.05 227.348 106.601C227.199 106.632 227.064 106.707 226.96 106.817C226.893 106.926 226.853 107.05 226.843 107.178C226.698 108.287 226.545 109.397 226.392 110.497C226.333 110.74 226.333 110.994 226.392 111.237C226.497 111.46 226.655 111.655 226.852 111.805C227.808 112.635 228.755 113.474 229.702 114.313C230.151 114.779 230.714 115.12 231.335 115.305C232.3 115.512 233.229 114.944 234.14 114.556C235.051 114.168 238.469 115.278 238.469 115.278Z" fill="#CB7A63"/>
</svg>
