<svg width="302" height="259" viewBox="0 0 302 259" fill="none" xmlns="http://www.w3.org/2000/svg">
    <path d="M29.6379 23.9855C31.0891 23.6572 32.5917 23.6256 34.0555 23.8925C35.5192 24.1594 36.9139 24.7193 38.1559 25.5386C40.637 27.1904 42.7038 29.3918 44.1959 31.972C47.2193 36.8523 48.2409 43.3823 48.3376 49.1186C41.9663 48.801 36.6028 43.7413 33.9936 41.0078C29.9071 36.6728 25.2132 26.3669 29.6379 23.9855Z" fill="#F5F5F5"/>
    <path d="M58.5394 53.0601C57.271 51.9827 56.3105 50.5888 55.7552 49.02C55.1999 47.4511 55.0698 45.7633 55.3779 44.1279C55.7151 42.5011 56.372 40.9574 57.3105 39.5864C58.249 38.2154 59.4503 37.0444 60.8449 36.1414C62.1219 35.2923 63.6889 34.6158 65.1592 35.0645C65.832 35.3159 66.4259 35.7419 66.8796 36.2987C67.3333 36.8555 67.6306 37.5231 67.7408 38.2329C67.9335 39.6611 67.7503 41.1148 67.2093 42.4505C65.5526 47.0754 63.109 51.2516 58.5394 53.0601Z" fill="#F5F5F5"/>
    <path d="M62.2421 66.9416C61.5302 65.8917 60.9265 64.7724 60.4405 63.6007C59.8599 62.3404 59.4334 61.0147 59.1704 59.6523C58.7872 58.0109 58.5128 56.346 58.3489 54.6684C58.0797 51.5754 58.5726 48.4635 59.7847 45.6051C60.1633 44.7558 60.6258 43.9464 61.1653 43.1891C61.5794 42.6714 61.8555 42.4091 61.8555 42.4367C61.8555 42.4643 61.0272 43.6378 60.1644 45.7845C59.1086 48.603 58.6935 51.6212 58.9495 54.6201C59.1017 56.2753 59.346 57.9207 59.6812 59.5487C59.9129 60.8791 60.2831 62.1816 60.7856 63.435C61.7451 65.568 62.3387 66.9002 62.2421 66.9416Z" fill="#E0E0E0"/>
    <path d="M33.9336 31.5095C34.4204 31.9287 34.8686 32.3907 35.2727 32.8901C36.0942 33.8082 37.2746 35.1542 38.7241 36.8247C41.6026 40.1725 45.5303 44.8388 49.7686 50.0919C54.0069 55.3449 57.6585 60.2252 60.2126 63.8008C61.5034 65.5956 62.5319 67.052 63.2222 68.0737C63.6108 68.5864 63.9549 69.1314 64.2507 69.7027C63.8004 69.2457 63.3894 68.7515 63.022 68.2255L59.8467 64.0838C57.1684 60.5772 53.4409 55.7591 49.2302 50.506L38.3652 37.1146L35.0795 33.0558C34.6571 32.5716 34.2739 32.0545 33.9336 31.5095Z" fill="#E0E0E0"/>
    <path d="M54.2036 59.2657C51.3074 57.2849 47.981 56.0226 44.4998 55.5833C41.0187 55.1439 37.483 55.5402 34.1855 56.7393C32.515 57.3605 30.7341 58.5271 30.6512 60.308C30.5684 62.0889 32.3493 63.359 33.9991 64.0493C37.4606 65.4165 41.2493 65.7285 44.8878 64.946C48.5263 64.1635 51.8518 62.3216 54.4452 59.6522" fill="#F5F5F5"/>
    <path d="M38.6523 59.5004C38.9526 59.3399 39.2765 59.228 39.6118 59.1691C40.2331 58.9965 41.1512 58.7963 42.2901 58.5823C45.286 58.0043 48.3622 57.9786 51.3673 58.5064C53.0236 58.8487 54.6134 59.4572 56.075 60.308C58.054 61.4926 59.7353 63.1148 60.9898 65.0503C61.1995 65.3166 61.365 65.6149 61.4799 65.9338C61.3764 66.0098 60.5894 64.8018 58.9604 63.1727C56.8349 61.0951 54.1512 59.6801 51.2361 59.1C48.3013 58.5952 45.3049 58.5602 42.3591 58.9965C40.0812 59.2933 38.6731 59.5694 38.6523 59.5004Z" fill="#E0E0E0"/>
    <path d="M63.5449 199.399C84.129 189.404 92.157 166.052 94.856 144.343C95.3116 140.719 96.3125 136.984 95.0976 133.547C93.8827 130.109 90.2311 127.334 86.759 128.321C83.8874 129.15 82.2239 132.083 80.3187 134.416C77.7696 137.531 74.3938 139.864 70.5788 141.147C68.0938 141.968 65.1394 142.244 63.0686 140.636C60.2315 138.427 60.5491 134.071 61.1427 130.489L64.4561 110.471C65.0497 106.888 65.6433 103.23 65.0704 99.6471C64.4975 96.0645 62.5371 92.5165 59.279 91.0186C56.0208 89.5207 51.4926 90.8184 50.2156 94.2077C49.6772 95.6228 49.7393 97.1828 49.4011 98.66C49.0628 100.137 48.1102 101.663 46.6399 101.856C45.1696 102.049 43.8788 100.807 42.9676 99.585C39.8476 95.3743 38.0736 90.3145 36.4652 85.3031C34.8568 80.2916 33.3382 75.1836 30.6047 70.7036C27.8712 66.2237 23.7019 62.3513 18.6422 61.2399C13.5824 60.1286 7.59769 62.4341 5.48543 67.266C3.37317 72.098 5.48543 77.71 8.06708 82.3142C11.8618 89.139 16.6233 95.3792 22.204 100.841C23.2049 101.828 24.2749 102.912 24.5096 104.293C24.9099 106.805 22.2661 108.821 19.7811 109.228C16.9717 109.691 14.1139 108.952 11.2631 108.842C8.41222 108.731 5.19551 109.477 3.71831 111.948C1.64747 115.399 4.11868 119.707 6.73484 122.702C11.9684 128.7 18.1961 133.751 25.1446 137.633C27.6227 139.014 30.2665 140.305 32.0957 142.5C33.925 144.695 34.6981 148.119 33.0138 150.438C31.3295 152.757 27.8988 153.04 25.2205 152.088C22.5423 151.135 20.3057 149.237 17.8276 147.856C13.2028 145.212 6.78316 144.536 2.9521 148.291C0.43258 150.762 -0.368145 154.628 0.149565 158.135C0.667275 161.641 2.33775 164.844 4.1739 167.854C10.5935 178.374 19.5119 187.444 30.3148 193.221C41.1177 198.999 51.5271 201.767 63.5449 199.434" fill="#EBEBEB"/>
    <path d="M60.6259 200.545C61.2058 191.869 61.5923 196.369 60.1289 184.973C58.6656 173.576 56.0632 161.206 52.881 148.388L50.4857 138.883C49.6919 135.769 48.9119 132.67 47.9524 129.702C46.1092 123.993 43.9499 118.391 41.4845 112.921C39.172 107.682 36.7837 102.795 34.5127 98.2459C32.2416 93.6969 30.0465 89.4724 27.8653 85.7311C24.4682 79.8066 20.6066 74.1608 16.3169 68.8468C14.8052 66.9693 13.5558 65.5542 12.7412 64.6016L11.7748 63.5248C11.6723 63.3957 11.5567 63.2777 11.4297 63.1727C11.5157 63.3153 11.6151 63.4493 11.7265 63.5731C11.9543 63.8492 12.258 64.2151 12.6377 64.6913C13.4453 65.6646 14.6326 67.1142 16.0891 69.0125C20.2868 74.3754 24.0778 80.0446 27.4304 85.9727C29.5702 89.7209 31.7377 93.9247 33.9949 98.4737C36.2522 103.023 38.5991 107.924 40.8977 113.156C43.3397 118.618 45.4782 124.211 47.3035 129.909C48.2492 132.87 49.0223 135.935 49.8162 139.062C50.61 142.189 51.3969 145.351 52.2045 148.553C55.3867 161.386 58.0167 173.721 59.4939 185.083C60.9711 196.445 60.6467 191.896 60.1289 200.545" fill="#E0E0E0"/>
    <path d="M47.7734 129.626C48.0213 129.155 48.2202 128.66 48.3671 128.149C48.7122 127.189 49.1678 125.788 49.6993 124.042C50.7762 120.549 52.0946 115.682 53.5304 110.312C54.9662 104.942 56.3536 100.096 57.4788 96.6374C58.031 94.9048 58.5004 93.5036 58.8593 92.5441C59.0648 92.0537 59.2153 91.5421 59.308 91.0186C59.0286 91.4694 58.7973 91.9483 58.6177 92.4474C58.2105 93.3862 57.6721 94.7599 57.0577 96.4856C55.8152 99.937 54.3518 104.769 52.916 110.132C51.4802 115.496 50.2446 120.238 49.2713 123.938C48.8296 125.588 48.4499 126.982 48.1462 128.08C47.9601 128.578 47.8349 129.097 47.7734 129.626Z" fill="#E0E0E0"/>
    <path d="M3.04688 113.674C3.63181 113.903 4.23742 114.077 4.85541 114.191C6.01508 114.481 7.70627 114.882 9.77711 115.475C13.9188 116.607 19.5998 118.361 25.7778 120.576C31.9558 122.792 37.4573 125.056 41.3919 126.789C43.3661 127.652 44.9469 128.39 46.0375 128.86C46.5897 129.16 47.1701 129.405 47.7701 129.591C47.2631 129.22 46.7223 128.896 46.1549 128.625C45.0918 128.052 43.5387 127.244 41.5852 126.326C37.692 124.47 32.1974 122.136 26.0056 119.907C20.7229 117.99 15.3455 116.345 9.89445 114.978C7.82361 114.461 6.09101 114.108 4.90373 113.894C4.29259 113.766 3.67117 113.692 3.04688 113.674Z" fill="#E0E0E0"/>
    <path d="M59.7266 184.034C59.7266 184.034 59.8853 183.875 60.1338 183.523L61.19 181.984C62.0942 180.638 63.3574 178.663 64.8899 176.199C67.9547 171.271 71.9721 164.333 76.3002 156.616C80.6282 148.899 84.5835 141.934 87.5379 136.95C88.9875 134.534 90.1748 132.539 91.0584 131.062C91.438 130.42 91.7487 129.888 92.011 129.453C92.1336 129.272 92.2311 129.074 92.3009 128.867C92.3009 128.867 92.1421 129.025 91.8936 129.377L90.7892 130.917C89.878 132.263 88.6148 134.237 87.0824 136.701C84.0382 141.644 80.0208 148.547 75.6927 156.285C71.3647 164.023 67.4094 170.967 64.455 175.951C63.0054 178.367 61.8181 180.362 60.9346 181.839L59.9889 183.447C59.8749 183.63 59.7866 183.827 59.7266 184.034Z" fill="#E0E0E0"/>
    <path d="M1.59375 154.552C1.76592 154.692 1.95634 154.808 2.15978 154.897L3.81645 155.774L10.029 158.942C15.282 161.62 22.4954 165.403 30.4544 169.593C38.4133 173.783 45.6405 177.497 50.9833 180.072C53.634 181.356 55.8153 182.37 57.2994 183.047L59.0389 183.813C59.2354 183.913 59.4442 183.988 59.6601 184.034C59.4879 183.894 59.2975 183.778 59.0941 183.689L57.4098 182.812L51.1973 179.644C45.9442 176.965 38.7308 173.183 30.7719 168.993C22.813 164.803 15.5857 161.082 10.2499 158.514C7.59228 157.23 5.4179 156.216 3.9269 155.539L2.215 154.759C2.01781 154.663 1.80896 154.594 1.59375 154.552Z" fill="#E0E0E0"/>
    <path d="M295.361 258.301C295.361 258.398 230.012 258.481 149.422 258.481C68.8314 258.481 3.46875 258.405 3.46875 258.301C3.46875 258.198 68.8038 258.122 149.422 258.122C230.039 258.122 295.361 258.204 295.361 258.301Z" fill="#263238"/>
    <path d="M19.5057 143.984C19.5057 143.984 24.2686 140.767 30.2188 152.177C36.1691 163.588 38.447 170.18 38.447 170.18C38.447 170.18 40.0139 172.568 41.6499 170.981C43.2858 169.393 45.5016 164.92 48.318 165.7C51.1343 166.48 52.225 169.738 51.7142 174.515C51.2034 179.292 50.4717 189.798 50.4095 190.743C50.3474 191.689 50.8927 193.042 52.1767 192.124C53.4606 191.206 60.8397 182.853 64.6017 186.602C68.3637 190.35 64.7605 203.41 64.3946 204.846C64.0288 206.282 64.3118 206.917 64.9952 207.241C65.6785 207.566 67.8943 204.542 70.0894 202.25C72.2845 199.959 75.232 197.674 77.22 200.014C79.208 202.354 79.9328 212.128 70.7728 228.101L66.0444 235.225L57.4642 234.832C39.1511 232.864 31.6615 226.548 30.9436 223.559C30.2257 220.57 33.7876 219.528 36.9353 219.1C40.083 218.672 43.8381 218.665 43.9692 217.906C44.1004 217.147 43.7621 216.56 42.3816 216.015C41.001 215.469 28.3068 210.713 27.4922 205.474C26.6777 200.235 37.7774 199.179 39.2684 198.661C40.7594 198.143 39.9587 196.908 39.1718 196.411C38.3849 195.914 29.4319 190.329 25.2695 187.934C21.1071 185.539 19.057 182.847 20.1269 180.01C21.1486 177.248 26.0703 178.111 28.3206 177.718C30.5709 177.324 29.5493 174.653 29.5493 174.653C29.5493 174.653 25.5456 168.944 19.8094 157.396C14.0732 145.848 19.6092 143.887 19.6092 143.887" fill="#EB4D4D"/>
    <path d="M24.8555 154.193C24.8983 154.257 24.9375 154.324 24.9728 154.393L25.2972 155.008L26.5052 157.361L30.923 166.045C34.6851 173.376 39.8967 183.475 45.5915 194.637C51.2863 205.798 56.5117 215.918 60.184 223.276C62.0063 226.949 63.4766 229.931 64.5052 232.008L65.6579 234.39L65.9547 235.018C66.0169 235.156 66.0445 235.232 66.0445 235.232C66.0445 235.232 65.9962 235.17 65.9202 235.032L65.6027 234.424C65.3128 233.865 64.9124 233.044 64.3947 232.063C63.3386 229.993 61.8338 227.038 59.9769 223.38C56.277 216.049 51.0516 205.943 45.3016 194.795C39.5515 183.647 34.3882 173.507 30.7367 166.149L26.3879 157.417C25.8978 156.395 25.5112 155.594 25.2351 155.035C25.1109 154.773 25.0142 154.566 24.9452 154.407C24.9051 154.34 24.8749 154.268 24.8555 154.193Z" fill="#263238"/>
    <path d="M45.4664 172.085C45.3586 172.845 45.1994 173.597 44.9901 174.335C44.6588 175.806 44.2308 177.669 43.7545 179.74C43.2782 181.811 42.8296 183.751 42.4706 185.131C42.2842 185.822 42.1255 186.367 42.0012 186.747C41.9543 186.948 41.8775 187.141 41.7734 187.32C41.8907 186.562 42.0473 185.811 42.2428 185.069L43.437 179.657C43.9202 177.545 44.3896 175.64 44.7693 174.266C44.9625 173.576 45.1282 173.031 45.2524 172.658C45.2955 172.458 45.3676 172.265 45.4664 172.085Z" fill="#263238"/>
    <path d="M40.9874 187.492C40.9874 187.575 37.039 186.567 32.2208 185.228C27.4027 183.889 23.5233 182.743 23.5509 182.653C23.5785 182.563 27.4924 183.578 32.3106 184.91C37.1287 186.243 41.0081 187.402 40.9874 187.492Z" fill="#263238"/>
    <path d="M52.0602 206.696C51.8558 206.754 51.6445 206.784 51.432 206.785C51.0317 206.827 50.4449 206.868 49.7201 206.903C48.2706 206.972 46.2687 207.02 44.046 206.958C41.8233 206.896 39.8353 206.737 38.3926 206.585C37.7024 206.509 37.088 206.433 36.6808 206.371C36.4709 206.356 36.2641 206.312 36.0664 206.24C36.848 206.228 37.6295 206.265 38.4065 206.351C39.856 206.447 41.8579 206.565 44.0599 206.627C46.2618 206.689 48.2637 206.682 49.7132 206.668C50.4953 206.627 51.2793 206.636 52.0602 206.696Z" fill="#263238"/>
    <path d="M59.1836 193.649C58.9143 194.322 58.5936 194.973 58.2241 195.596C57.5891 196.776 56.6986 198.399 55.6977 200.179C54.6968 201.96 53.7718 203.569 53.0884 204.722C52.7482 205.361 52.3581 205.973 51.9219 206.551C52.1912 205.878 52.5119 205.227 52.8814 204.604C53.5164 203.424 54.4069 201.802 55.4078 200.021C56.4087 198.24 57.3337 196.631 58.017 195.486C58.3585 194.845 58.7485 194.231 59.1836 193.649Z" fill="#263238"/>
    <path d="M71.1092 209.36C71.0352 209.603 70.9308 209.834 70.7985 210.051L69.8253 211.838C68.9969 213.336 67.8304 215.4 66.5257 217.671C65.2211 219.942 64.02 221.992 63.1364 223.463C62.7223 224.153 62.3633 224.726 62.0803 225.202C61.9629 225.421 61.8192 225.625 61.6523 225.81C61.7284 225.568 61.8327 225.336 61.963 225.119L62.9363 223.331C63.7646 221.827 64.9312 219.763 66.2358 217.492C67.5404 215.221 68.7415 213.177 69.6251 211.707L70.6812 209.968C70.8034 209.752 70.9468 209.548 71.1092 209.36Z" fill="#263238"/>
    <path d="M61.8009 225.347C61.5402 225.403 61.2735 225.426 61.007 225.416C60.4893 225.416 59.7438 225.451 58.8258 225.458C56.9896 225.458 54.4425 225.458 51.6399 225.271C48.8374 225.085 46.2972 224.878 44.4748 224.664C43.5568 224.56 42.8182 224.457 42.3143 224.381C42.0467 224.359 41.7826 224.305 41.5273 224.222C41.7937 224.198 42.0617 224.198 42.3281 224.222L44.4956 224.401C46.3248 224.56 48.8581 224.76 51.6538 224.912C54.4494 225.064 56.9896 225.147 58.8258 225.195L61.007 225.257C61.274 225.261 61.5398 225.291 61.8009 225.347Z" fill="#263238"/>
    <path d="M286.223 140.187L263.119 162.683L241.831 203.306L217.892 249.244L188.479 235.439L156.685 219.162L177.02 180.313L189.659 136.825C180.727 142.748 164.119 150.817 144.308 146.607C122.813 142.051 133.132 61.012 133.132 61.012L156.754 60.4045L159.128 117.539L185.808 105.749L185.849 105.846C187.457 105.155 188.866 104.465 189.611 104.085C204.376 96.0299 214.068 95.0566 229.91 100.71L252.765 108.303C258.639 111.064 280.293 121.729 286.223 140.187Z" fill="#EB4D4D"/>
    <path d="M205.377 99.012C205.377 99.012 204.846 99.3157 203.949 99.9576C202.69 100.873 201.574 101.968 200.635 103.209C199.257 105.06 198.159 107.105 197.377 109.276C196.426 111.946 195.613 114.662 194.94 117.415L190.882 132.346C190.35 134.216 189.922 135.749 189.605 136.853C189.46 137.357 189.335 137.764 189.246 138.075C189.212 138.221 189.161 138.362 189.094 138.496C189.103 138.348 189.131 138.202 189.177 138.061C189.253 137.737 189.349 137.329 189.473 136.819C189.756 135.7 190.164 134.161 190.633 132.277C191.655 128.411 193.049 123.144 194.595 117.318C195.272 114.556 196.097 111.832 197.066 109.159C197.874 106.966 199.01 104.909 200.435 103.057C201.408 101.808 202.573 100.723 203.886 99.8403C204.24 99.6007 204.609 99.3839 204.991 99.1914C205.115 99.1225 205.244 99.0625 205.377 99.012Z" fill="#263238"/>
    <g opacity="0.3">
        <path d="M196.757 110.464C190.151 128.349 178.271 138.344 161.449 147.304C171.381 146.204 180.899 142.718 189.192 137.143" fill="black"/>
    </g>
    <g opacity="0.3">
        <path d="M217.805 97.7349C220.603 142.548 223.401 187.359 226.198 232.167L217.915 249.244L217.805 97.7349Z" fill="black"/>
    </g>
    <path d="M243.815 144.225C243.719 144.267 242.876 142.154 241.696 139.607C240.516 137.06 239.466 135.038 239.556 134.989C239.882 135.37 240.158 135.789 240.378 136.239C240.84 137.04 241.434 138.172 242.02 139.455C242.607 140.739 243.09 141.92 243.401 142.79C243.604 143.247 243.743 143.73 243.815 144.225Z" fill="#FAFAFA"/>
    <path d="M262.616 134.775C261.193 135.882 259.693 136.888 258.129 137.785C256.631 138.79 255.068 139.694 253.449 140.491C254.881 139.393 256.382 138.387 257.943 137.481C259.439 136.477 261 135.573 262.616 134.775Z" fill="#FAFAFA"/>
    <path d="M254.456 127.969C254.217 126.762 254.092 125.535 254.083 124.304C253.967 123.076 253.967 121.839 254.083 120.611C254.331 121.819 254.456 123.05 254.456 124.283C254.576 125.509 254.576 126.743 254.456 127.969Z" fill="#FAFAFA"/>
    <path d="M273.226 126.658C270.91 125.509 268.705 124.148 266.641 122.592C267.826 123.112 268.96 123.741 270.03 124.469C271.161 125.097 272.231 125.83 273.226 126.658Z" fill="#FAFAFA"/>
    <path d="M244.531 163.891C245.041 162.258 245.664 160.662 246.395 159.115C247.02 157.523 247.754 155.975 248.59 154.483C248.082 156.117 247.46 157.713 246.726 159.26C246.103 160.852 245.369 162.4 244.531 163.891Z" fill="#FAFAFA"/>
    <path d="M236.17 172.354C235.507 171.426 234.943 170.431 234.486 169.386C233.919 168.392 233.457 167.341 233.105 166.252C233.769 167.181 234.336 168.176 234.797 169.22C235.364 170.213 235.825 171.264 236.17 172.354Z" fill="#FAFAFA"/>
    <path d="M243.164 183.751C242.036 184.238 240.839 184.544 239.616 184.655C238.41 184.888 237.175 184.925 235.957 184.765C235.957 184.662 237.579 184.586 239.567 184.303C241.555 184.02 243.136 183.64 243.164 183.751Z" fill="#FAFAFA"/>
    <path d="M252.133 171.284C252.433 170.131 252.844 169.01 253.362 167.936C253.769 166.817 254.29 165.741 254.915 164.727C254.619 165.88 254.21 167.002 253.693 168.074C253.288 169.196 252.765 170.272 252.133 171.284Z" fill="#FAFAFA"/>
    <path d="M230.325 197.612C230.235 197.667 229.22 196.266 227.826 194.657C226.432 193.049 225.189 191.841 225.265 191.765C227.338 193.343 229.061 195.334 230.325 197.612Z" fill="#FAFAFA"/>
    <path d="M226.37 169.303C225.881 170.509 225.278 171.664 224.568 172.755C223.965 173.913 223.256 175.013 222.449 176.04C222.948 174.838 223.553 173.683 224.258 172.589C224.86 171.431 225.567 170.331 226.37 169.303Z" fill="#FAFAFA"/>
    <path d="M229.186 159.591C227.879 159.433 226.587 159.161 225.328 158.776C224.039 158.505 222.777 158.117 221.559 157.617C222.867 157.77 224.158 158.043 225.417 158.431C226.707 158.7 227.968 159.088 229.186 159.591Z" fill="#FAFAFA"/>
    <path d="M229.02 139.573C229.778 140.459 230.471 141.4 231.09 142.389C231.801 143.306 232.443 144.275 233.009 145.288C232.16 144.488 231.417 143.58 230.8 142.589C230.075 141.667 229.476 140.653 229.02 139.573Z" fill="#FAFAFA"/>
    <path d="M222.636 138.572C221.13 140.204 219.449 141.667 217.625 142.934C218.334 142.076 219.135 141.298 220.013 140.615C220.813 139.843 221.692 139.158 222.636 138.572Z" fill="#FAFAFA"/>
    <path d="M227.68 128.1C225.349 126.262 223.406 123.979 221.965 121.384C222.055 121.329 223.187 122.944 224.767 124.794C226.348 126.644 227.756 128.024 227.68 128.1Z" fill="#FAFAFA"/>
    <path d="M245.341 124.877C244.093 125.45 242.797 125.912 241.468 126.257C240.176 126.716 238.845 127.057 237.492 127.279C238.742 126.711 240.038 126.249 241.365 125.898C242.657 125.441 243.988 125.1 245.341 124.877Z" fill="#FAFAFA"/>
    <path d="M220.481 108.061C220.378 108.061 220.426 106.481 220.177 104.562C219.929 102.643 219.487 101.11 219.611 101.11C220.548 103.307 220.85 105.723 220.481 108.082V108.061Z" fill="#FAFAFA"/>
    <path d="M204.773 158.114C204.264 158.555 203.722 158.957 203.151 159.315C202.129 160.005 200.735 161.034 199.244 162.207C197.753 163.381 196.441 164.492 195.502 165.306C195.017 165.776 194.498 166.21 193.949 166.604C194.355 166.062 194.818 165.564 195.33 165.12C196.504 163.991 197.737 162.925 199.023 161.924C200.302 160.917 201.632 159.975 203.006 159.101C203.562 158.717 204.154 158.386 204.773 158.114Z" fill="#FAFAFA"/>
    <path d="M203.866 152.578C203.776 152.626 202.616 150.824 201.008 148.719C199.4 146.614 197.978 145.012 198.054 144.936C198.446 145.203 198.798 145.526 199.096 145.896C199.873 146.726 200.608 147.594 201.298 148.498C202.099 149.561 202.768 150.569 203.217 151.314C203.491 151.703 203.71 152.128 203.866 152.578Z" fill="#FAFAFA"/>
    <path d="M208.069 130.758C205.935 132.209 203.67 133.46 201.305 134.492C202.34 133.719 203.445 133.042 204.604 132.47C205.703 131.791 206.863 131.218 208.069 130.758Z" fill="#FAFAFA"/>
    <path d="M203.909 121.232C203.475 120.978 203.077 120.664 202.729 120.3C201.835 119.484 201.002 118.602 200.237 117.663C199.465 116.726 198.761 115.734 198.132 114.695C197.841 114.283 197.608 113.832 197.441 113.356C197.538 113.301 198.718 115.261 200.506 117.436C202.294 119.61 203.999 121.149 203.909 121.232Z" fill="#FAFAFA"/>
    <path d="M211.074 121.032C211.388 119.984 211.814 118.972 212.344 118.015C212.771 117.005 213.305 116.045 213.939 115.151C213.628 116.2 213.202 117.212 212.669 118.167C212.246 119.179 211.711 120.139 211.074 121.032Z" fill="#FAFAFA"/>
    <path d="M209.16 110.132C209.05 110.132 209.16 107.986 208.76 105.397C208.36 102.808 207.593 100.807 207.697 100.765C207.958 101.16 208.156 101.594 208.284 102.049C208.665 103.118 208.945 104.22 209.119 105.342C209.291 106.463 209.362 107.597 209.333 108.731C209.351 109.204 209.293 109.678 209.16 110.132Z" fill="#FAFAFA"/>
    <path d="M210.903 165.113C210.857 164.44 210.857 163.764 210.903 163.091C210.951 161.848 210.986 160.129 210.937 158.259C210.889 156.388 210.765 154.649 210.661 153.427C210.567 152.759 210.526 152.085 210.537 151.411C210.728 152.06 210.855 152.726 210.917 153.399C211.132 155.015 211.258 156.642 211.296 158.273C211.34 159.901 211.294 161.53 211.158 163.153C211.141 163.813 211.056 164.47 210.903 165.113Z" fill="#FAFAFA"/>
    <path d="M209.88 182.294C208.916 181.407 207.894 180.584 206.822 179.83C205.69 179.175 204.516 178.594 203.309 178.09C204.632 178.315 205.896 178.803 207.027 179.525C208.159 180.247 209.133 181.189 209.894 182.294H209.88Z" fill="#FAFAFA"/>
    <path d="M218.494 192.925C216.974 193.915 215.39 194.803 213.752 195.582C212.171 196.47 210.531 197.25 208.844 197.915C210.366 196.931 211.95 196.045 213.586 195.265C215.168 194.376 216.808 193.594 218.494 192.925Z" fill="#FAFAFA"/>
    <path d="M194.211 197.639C192.952 196.237 191.785 194.755 190.719 193.201C189.553 191.717 188.483 190.161 187.516 188.541C188.772 189.948 189.939 191.433 191.008 192.987C192.171 194.47 193.241 196.024 194.211 197.639Z" fill="#FAFAFA"/>
    <path d="M186.741 178.008C186.622 177.546 186.568 177.069 186.582 176.593C186.548 175.716 186.534 174.522 186.582 173.141C186.63 171.761 186.768 170.594 186.886 169.69C186.919 169.219 187.014 168.755 187.169 168.309C187.272 168.309 187.065 170.477 186.941 173.141C186.817 175.806 186.81 178.008 186.741 178.008Z" fill="#FAFAFA"/>
    <path d="M178.608 211.521C177.194 210.575 175.847 209.532 174.577 208.401C173.231 207.359 171.96 206.224 170.773 205.004C172.188 205.95 173.535 206.992 174.805 208.124C176.15 209.166 177.421 210.301 178.608 211.521Z" fill="#FAFAFA"/>
    <path d="M183.467 210.492C183.244 208.697 183.141 206.889 183.157 205.08C183.057 203.275 183.076 201.465 183.212 199.662C183.435 201.457 183.539 203.265 183.523 205.073C183.622 206.879 183.604 208.689 183.467 210.492Z" fill="#FAFAFA"/>
    <path d="M193.065 231.276C193.065 231.332 192.202 230.993 190.815 230.545C187.202 229.382 183.411 228.865 179.619 229.019C178.162 229.074 177.265 229.178 177.258 229.116C177.457 229.038 177.666 228.989 177.879 228.971C178.279 228.895 178.873 228.826 179.605 228.764C183.432 228.475 187.276 229.002 190.884 230.31C191.433 230.509 191.97 230.739 192.492 231C192.696 231.062 192.89 231.155 193.065 231.276Z" fill="#FAFAFA"/>
    <path d="M200.969 235.073C201.53 235.366 202.053 235.725 202.529 236.143C204.917 238.034 207.078 240.195 208.969 242.583C209.387 243.059 209.746 243.582 210.039 244.143C209.583 243.715 209.158 243.253 208.769 242.763C208.01 241.886 206.933 240.692 205.683 239.442C204.434 238.193 203.24 237.123 202.363 236.357C201.867 235.964 201.401 235.535 200.969 235.073Z" fill="#FAFAFA"/>
    <path d="M204.412 199.109C203.711 197.817 203.114 196.472 202.624 195.085C202.028 193.746 201.541 192.361 201.168 190.943C201.869 192.236 202.467 193.581 202.956 194.968C203.552 196.307 204.039 197.692 204.412 199.109Z" fill="#FAFAFA"/>
    <path d="M176.683 129.15C176.389 129.583 176.034 129.972 175.627 130.302C174.707 131.158 173.719 131.939 172.673 132.636C171.625 133.338 170.522 133.952 169.373 134.472C168.911 134.718 168.416 134.897 167.903 135.003C167.862 134.9 170.05 133.961 172.473 132.339C174.895 130.717 176.607 129.067 176.683 129.15Z" fill="#FAFAFA"/>
    <path d="M178.458 121.833C178.315 119.78 178.413 117.719 178.748 115.689C178.891 117.741 178.794 119.803 178.458 121.833Z" fill="#FAFAFA"/>
    <path d="M164.686 127.976C163.45 127.608 162.25 127.125 161.104 126.533C159.901 126.05 158.746 125.456 157.652 124.759C158.888 125.131 160.087 125.614 161.235 126.202C162.437 126.686 163.593 127.28 164.686 127.976Z" fill="#FAFAFA"/>
    <path d="M189.255 118.616C189.175 117.343 189.214 116.065 189.372 114.799C189.405 113.523 189.563 112.254 189.842 111.009C189.922 112.282 189.885 113.56 189.731 114.826C189.693 116.102 189.534 117.371 189.255 118.616Z" fill="#FAFAFA"/>
    <path d="M157.369 142.61C155.97 142.257 154.641 141.674 153.434 140.884C152.165 140.196 151.023 139.295 150.059 138.22C150.128 138.137 151.598 139.373 153.614 140.581C155.629 141.789 157.41 142.507 157.369 142.61Z" fill="#FAFAFA"/>
    <path d="M147.132 128.563C146.243 129.788 145.26 130.942 144.191 132.014C143.208 133.176 142.138 134.261 140.988 135.259C142.857 132.858 144.911 130.608 147.132 128.528V128.563Z" fill="#FAFAFA"/>
    <path d="M146.256 115.979C145.08 115.581 143.987 114.971 143.032 114.177C142.01 113.48 141.119 112.605 140.402 111.596C140.478 111.52 141.638 112.686 143.253 113.888C144.868 115.089 146.304 115.889 146.256 115.979Z" fill="#FAFAFA"/>
    <path d="M139.803 118.616C139.412 119.355 138.917 120.034 138.332 120.631C137.836 121.306 137.249 121.908 136.586 122.419C137.47 121.004 138.554 119.723 139.803 118.616Z" fill="#FAFAFA"/>
    <path d="M153.608 95.2568C152.804 96.5183 151.902 97.7139 150.909 98.8325C150.011 100.03 149.016 101.152 147.934 102.187C148.738 100.924 149.64 99.7264 150.633 98.6047C151.534 97.4117 152.529 96.2922 153.608 95.2568Z" fill="#FAFAFA"/>
    <path d="M141.785 97.9144C140.72 96.9696 139.737 95.9375 138.844 94.8288C137.866 93.8002 136.974 92.692 136.18 91.5155C137.245 92.4566 138.229 93.4865 139.12 94.5941C140.099 95.6248 140.991 96.7354 141.785 97.9144Z" fill="#FAFAFA"/>
    <path d="M147.704 82.9216C146.912 81.8986 146.219 80.8031 145.633 79.6496C144.949 78.5536 144.365 77.3985 143.887 76.1982C144.677 77.2244 145.371 78.3221 145.958 79.4771C146.642 80.5704 147.227 81.7232 147.704 82.9216Z" fill="#FAFAFA"/>
    <path d="M147.395 73.2507C147.312 73.1817 148.348 71.8702 149.169 70.0133C149.991 68.1565 150.288 66.5205 150.398 66.5619C150.226 69.0842 149.162 71.4628 147.395 73.2715V73.2507Z" fill="#FAFAFA"/>
    <path d="M136.014 72.6778C135.907 71.2185 136.2 69.7577 136.863 68.4533C137.291 67.5171 137.859 66.6513 138.547 65.8854C138.81 65.5481 139.136 65.2646 139.507 65.0502C138.611 66.1477 137.833 67.337 137.187 68.5982C136.651 69.912 136.257 71.2798 136.014 72.6778Z" fill="#FAFAFA"/>
    <path d="M235.537 56.256C235.219 53.3948 235.185 50.5093 235.433 47.6413C235.691 44.7559 236.795 42.0109 238.608 39.7514C240.493 37.5701 243.392 36.1689 246.243 36.5347C248.01 36.7625 249.694 37.6323 251.454 37.5839C253.525 37.5218 255.299 36.2517 257.17 35.4027C260.119 34.0639 263.423 33.7176 266.585 34.4156C268.252 34.7298 269.796 35.51 271.038 36.6659C271.649 37.2491 272.103 37.9783 272.355 38.7849C272.608 39.5915 272.651 40.4491 272.48 41.2769C274.566 41.1854 276.655 41.3687 278.693 41.8223C280.734 42.2821 282.515 43.5205 283.656 45.2737C284.685 47.0753 284.616 49.581 283.138 51.0375C284.111 50.9072 285.097 51.141 285.908 51.6941C286.718 52.2471 287.295 53.0803 287.529 54.0333C287.712 54.9978 287.614 55.9946 287.247 56.9051C286.88 57.8156 286.259 58.6015 285.458 59.169C283.527 60.3509 281.241 60.8106 279.004 60.4667C277.085 60.1009 274.862 59.5625 273.323 58.3959" fill="#263238"/>
    <path d="M234.038 121.28C237.847 122.258 241.887 121.691 245.279 119.702C248.671 117.714 251.139 114.465 252.145 110.664C253.311 106.239 254.264 102.532 254.264 102.532C254.264 102.532 265.798 104.513 269.616 93.5587C273.433 82.6039 279.97 56.8289 279.97 56.8289C274.636 52.0588 268.125 48.7986 261.11 47.3849C254.095 45.9713 246.83 46.4553 240.065 48.7871L237.994 49.4774L223.339 102.857C222.808 104.769 222.665 106.769 222.918 108.737C223.171 110.706 223.815 112.604 224.812 114.32C225.808 116.037 227.138 117.536 228.722 118.732C230.307 119.927 232.114 120.793 234.038 121.28Z" fill="#B78876"/>
    <path d="M254.335 102.38C249.243 100.776 244.742 97.6931 241.406 93.5242C241.406 93.5242 242.138 102.546 253.41 105.259L254.335 102.38Z" fill="#AA6550"/>
    <path d="M235.573 61.3364C235.414 61.1915 228.787 56.5804 226.516 64.1597C224.245 71.739 232.314 72.4431 232.39 72.2429C232.466 72.0427 235.573 61.3364 235.573 61.3364Z" fill="#B78876"/>
    <path d="M230.919 68.6741C230.919 68.6741 230.761 68.7293 230.505 68.7639C230.158 68.7926 229.813 68.689 229.539 68.4739C228.849 67.9424 228.538 66.4652 228.911 65.0916C229.084 64.4355 229.402 63.8268 229.843 63.3106C229.988 63.1003 230.182 62.9279 230.408 62.8078C230.633 62.6877 230.885 62.6235 231.14 62.6204C231.308 62.6187 231.47 62.678 231.597 62.7872C231.724 62.8965 231.807 63.0481 231.831 63.214C231.872 63.4556 231.775 63.5937 231.831 63.6213C231.886 63.6489 232.031 63.5384 232.058 63.2071C232.073 63.0088 232.02 62.8115 231.906 62.648C231.825 62.5361 231.722 62.4417 231.604 62.3705C231.485 62.2994 231.353 62.2529 231.216 62.2338C230.886 62.2006 230.554 62.2531 230.25 62.3861C229.947 62.5191 229.683 62.7282 229.484 62.9931C228.963 63.5511 228.588 64.2293 228.393 64.9673C227.979 66.5066 228.331 68.1702 229.332 68.8191C229.518 68.9386 229.729 69.015 229.949 69.0424C230.169 69.0699 230.392 69.0478 230.602 68.9778C230.871 68.8536 230.961 68.7017 230.919 68.6741Z" fill="#AA6550"/>
    <path d="M270.685 72.6501C270.55 73.0653 270.257 73.4105 269.869 73.6109C269.482 73.8112 269.03 73.8505 268.614 73.7201C268.409 73.6688 268.217 73.5771 268.049 73.4506C267.881 73.324 267.739 73.1651 267.633 72.9831C267.527 72.8011 267.458 72.5997 267.431 72.3908C267.404 72.1819 267.419 71.9696 267.475 71.7666C267.608 71.358 267.895 71.0172 268.275 70.8163C268.655 70.6154 269.098 70.57 269.511 70.6897C269.719 70.738 269.915 70.8276 270.087 70.9532C270.259 71.0788 270.405 71.2378 270.514 71.4208C270.624 71.6037 270.695 71.8069 270.725 72.0181C270.754 72.2293 270.74 72.4443 270.685 72.6501Z" fill="#263238"/>
    <path d="M272.731 71.5871C272.469 71.7252 271.578 70.4551 269.894 69.889C268.21 69.323 266.684 69.7579 266.574 69.4887C266.512 69.3713 266.836 69.0676 267.506 68.8536C268.411 68.5867 269.377 68.6108 270.267 68.9226C271.145 69.2132 271.907 69.7767 272.441 70.531C272.807 71.1039 272.855 71.5319 272.731 71.5871Z" fill="#263238"/>
    <path d="M254.119 67.0934C253.985 67.502 253.698 67.8428 253.319 68.0437C252.939 68.2446 252.495 68.29 252.083 68.1703C251.878 68.119 251.686 68.0274 251.518 67.9008C251.349 67.7742 251.208 67.6153 251.102 67.4333C250.996 67.2513 250.927 67.0499 250.9 66.841C250.873 66.6321 250.888 66.4199 250.944 66.2168C251.076 65.8072 251.362 65.4653 251.743 65.2641C252.123 65.0629 252.567 65.0184 252.98 65.1399C253.184 65.1912 253.376 65.2828 253.545 65.4094C253.713 65.536 253.855 65.6949 253.961 65.8769C254.067 66.0589 254.135 66.2603 254.163 66.4692C254.19 66.6781 254.175 66.8903 254.119 67.0934Z" fill="#263238"/>
    <path d="M256.065 66.341C255.803 66.486 254.905 65.209 253.221 64.6429C251.537 64.0769 250.018 64.5118 249.901 64.2426C249.845 64.1252 250.163 63.8215 250.839 63.6144C251.744 63.3471 252.709 63.3688 253.601 63.6766C254.479 63.9692 255.243 64.5322 255.782 65.2849C256.134 65.8578 256.189 66.2858 256.065 66.341Z" fill="#263238"/>
    <path d="M257.985 80.899C257.985 80.8023 259.117 80.968 260.884 81.3201C261.333 81.4236 261.768 81.4719 261.94 81.2027C262.125 80.7671 262.173 80.2857 262.078 79.8222C262.023 78.6418 261.968 77.4062 261.906 76.1154C261.706 70.8623 261.712 66.5964 261.906 66.5895C262.099 66.5826 262.451 70.8416 262.651 76.0946C262.693 77.3855 262.727 78.6211 262.762 79.8014C262.861 80.4097 262.741 81.0335 262.423 81.5617C262.31 81.6927 262.169 81.7962 262.01 81.8644C261.851 81.9326 261.678 81.9636 261.505 81.9551C261.245 81.942 260.987 81.8933 260.739 81.8102C259.02 81.3339 257.957 80.9887 257.985 80.899Z" fill="#263238"/>
    <path d="M252.634 80.3951C252.91 80.471 252.303 82.3002 253.435 84.1226C254.567 85.9449 256.576 86.4005 256.507 86.6559C256.507 86.7802 255.948 86.8699 255.126 86.6145C254.05 86.2702 253.131 85.5562 252.531 84.5989C251.95 83.6824 251.751 82.5745 251.979 81.5133C252.158 80.7264 252.51 80.3399 252.634 80.3951Z" fill="#263238"/>
    <path d="M273.103 68.4187C272.682 68.7017 271.653 67.9148 270.266 67.4247C268.878 66.9346 267.601 66.8172 267.463 66.3271C267.408 66.0924 267.725 65.768 268.361 65.5816C269.2 65.3797 270.081 65.432 270.891 65.7319C271.701 66.0318 272.404 66.5658 272.909 67.2659C273.268 67.825 273.296 68.2737 273.103 68.4187Z" fill="#263238"/>
    <path d="M255.913 59.5003C255.658 59.6383 255.223 59.4105 254.733 59.1137C254.098 58.7349 253.433 58.4094 252.745 58.1404C252.047 57.8892 251.329 57.6998 250.598 57.5744C250.011 57.4571 249.556 57.3673 249.452 57.0912C249.349 56.8151 249.68 56.4009 250.425 56.1248C251.418 55.8114 252.486 55.8382 253.461 56.2008C254.437 56.5634 255.263 57.2411 255.81 58.1266C256.189 58.8514 256.155 59.3898 255.913 59.5003Z" fill="#263238"/>
    <path d="M279.398 60.4115C273.633 60.076 268.125 57.912 263.674 54.2335C258.717 50.1746 252.512 47.3307 250.821 48.1314C249.129 48.9321 247.521 54.62 241.598 55.0342C241.598 55.0342 239.486 66.1132 235.193 64.6981C230.899 63.283 237.505 46.9096 237.505 46.9096L249.412 44.1071L261.61 44.5557L272.564 47.0407L282.042 52.4871L279.398 60.4115Z" fill="#263238"/>
    <path d="M217.895 16.9584H62.9062V258.308H217.895V16.9584Z" fill="#FAFAFA"/>
    <path d="M217.893 258.301C217.893 256.817 217.824 158.797 217.728 16.9514L217.893 17.1171H62.9256L63.1119 16.9376C63.1119 108.248 63.1119 192.324 63.0705 258.287L62.9256 258.142L217.914 258.287L62.9256 258.425H62.7875V258.301C62.7875 192.338 62.7875 108.262 62.7461 16.9514V16.772H62.9463H217.914H218.08V16.9376C217.962 158.804 217.893 256.824 217.893 258.301Z" fill="#263238"/>
    <path d="M104.446 70.7036H84.6139C83.956 70.7036 83.325 70.4427 82.8592 69.9782C82.3934 69.5136 82.1307 68.8833 82.1289 68.2255V40.773C82.1307 40.1152 82.3934 39.4849 82.8592 39.0203C83.325 38.5558 83.956 38.2949 84.6139 38.2949H97.1908L106.924 48.3247V68.2255C106.924 68.8827 106.663 69.513 106.198 69.9777C105.733 70.4425 105.103 70.7036 104.446 70.7036Z" fill="#EB4D4D"/>
    <path d="M97.1914 38.2949V46.0192C97.1932 46.6301 97.4367 47.2154 97.8687 47.6474C98.3007 48.0794 98.886 48.3229 99.4969 48.3247H106.924L97.1914 38.2949Z" fill="#EB4D4D"/>
    <g opacity="0.2">
        <path d="M97.293 46.6956C97.296 47.2802 97.499 47.8462 97.8681 48.2995C98.2373 48.7528 98.7505 49.0661 99.3224 49.1875L99.5709 49.2427C100.537 49.4153 106.922 50.5473 106.922 50.4024V48.3315H99.495C99.495 48.3315 97.645 48.2625 97.293 46.6956Z" fill="black"/>
    </g>
    <g opacity="0.3">
        <path d="M97.1914 38.2949V46.0192C97.1932 46.6301 97.4367 47.2154 97.8687 47.6474C98.3007 48.0794 98.886 48.3229 99.4969 48.3247H106.924L97.1914 38.2949Z" fill="white"/>
    </g>
    <path d="M95.5293 45.6947C94.006 45.8722 92.4714 45.9322 90.9389 45.8742C89.4088 45.9323 87.8764 45.8723 86.3555 45.6947C87.8764 45.5171 89.4088 45.4571 90.9389 45.5152C92.4714 45.4573 94.006 45.5173 95.5293 45.6947Z" fill="#FAFAFA"/>
    <path d="M101.452 50.0711C101.452 50.1677 98.0764 50.2506 93.9071 50.2506C89.7378 50.2506 86.3555 50.1677 86.3555 50.0711C86.3555 49.9744 89.7378 49.8916 93.9071 49.8916C98.0764 49.8916 101.452 49.9675 101.452 50.0711Z" fill="#FAFAFA"/>
    <path d="M102.812 53.7157C102.812 53.8193 99.1326 53.8952 94.5836 53.8952C90.0347 53.8952 86.3555 53.8193 86.3555 53.7157C86.3555 53.6122 90.0416 53.5363 94.5836 53.5363C99.1256 53.5363 102.812 53.6191 102.812 53.7157Z" fill="#FAFAFA"/>
    <path d="M102.812 57.1603C102.812 57.2569 99.1326 57.3398 94.5836 57.3398C90.0347 57.3398 86.3555 57.2569 86.3555 57.1603C86.3555 57.0637 90.0416 56.9808 94.5836 56.9808C99.1256 56.9808 102.812 57.0568 102.812 57.1603Z" fill="#FAFAFA"/>
    <path d="M102.812 60.5978C102.812 60.7013 99.1326 60.7773 94.5836 60.7773C90.0347 60.7773 86.3555 60.7013 86.3555 60.5978C86.3555 60.4943 90.0416 60.4183 94.5836 60.4183C99.1256 60.4183 102.812 60.5012 102.812 60.5978Z" fill="#FAFAFA"/>
    <path d="M102.812 64.0424C102.812 64.139 99.1326 64.2219 94.5836 64.2219C90.0347 64.2219 86.3555 64.139 86.3555 64.0424C86.3555 63.9457 90.0416 63.8629 94.5836 63.8629C99.1256 63.8629 102.812 63.9388 102.812 64.0424Z" fill="#FAFAFA"/>
    <path d="M113.86 52.3974H111.789V51.6381H116.835V52.3974H114.764V57.7401H113.901L113.86 52.3974Z" fill="#263238"/>
    <path d="M122.194 56.9808V57.7401H117.77V51.6381H122.07V52.3974H118.619V54.268H121.677V55.0135H118.619V56.9808H122.194Z" fill="#263238"/>
    <path d="M127.681 57.7401L126.363 55.8625C126.236 55.8698 126.109 55.8698 125.983 55.8625H124.478V57.7194H123.602V51.6173H125.997C127.584 51.6173 128.537 52.418 128.537 53.7434C128.558 54.1673 128.438 54.5863 128.196 54.9347C127.954 55.2832 127.603 55.5415 127.198 55.6693L128.648 57.7401H127.681ZM127.681 53.7641C127.681 52.8943 127.101 52.3835 125.983 52.3835H124.478V55.1446H125.955C127.074 55.1446 127.654 54.6683 127.654 53.7641H127.681Z" fill="#263238"/>
    <path d="M135.592 57.7401V53.2878L133.383 56.9877H132.983L130.781 53.3154V57.7332H129.945V51.6311H130.636L133.176 55.9177L135.682 51.6311H136.372V57.7332L135.592 57.7401Z" fill="#263238"/>
    <path d="M137.73 57.0429L138.048 56.3526C138.618 56.8115 139.332 57.0558 140.064 57.0429C141.12 57.0429 141.568 56.6287 141.568 56.0972C141.568 54.6062 137.875 55.5519 137.875 53.2877C137.875 52.3421 138.607 51.5413 140.209 51.5413C140.901 51.5278 141.583 51.7174 142.169 52.0866L141.886 52.7769C141.384 52.4589 140.803 52.289 140.209 52.2868C139.173 52.2868 138.731 52.7217 138.731 53.2532C138.731 54.7373 142.424 53.8054 142.424 56.0143C142.424 56.9462 141.672 57.7469 140.064 57.7469C139.228 57.7881 138.404 57.5393 137.73 57.0429Z" fill="#263238"/>
    <path d="M145.518 54.6684C145.493 54.022 145.662 53.383 146.003 52.8333C146.344 52.2837 146.842 51.8486 147.432 51.5839C148.022 51.3192 148.678 51.237 149.316 51.3478C149.953 51.4585 150.543 51.7573 151.009 52.2057C151.475 52.6541 151.797 53.2316 151.932 53.8641C152.068 54.4966 152.011 55.1552 151.77 55.7553C151.528 56.3554 151.113 56.8696 150.577 57.2318C150.041 57.5941 149.409 57.788 148.762 57.7884C148.342 57.8082 147.921 57.7419 147.527 57.5937C147.132 57.4455 146.773 57.2184 146.469 56.9264C146.165 56.6344 145.924 56.2836 145.761 55.8953C145.597 55.5071 145.515 55.0896 145.518 54.6684ZM151.123 54.6684C151.127 54.1989 150.992 53.7389 150.734 53.3467C150.476 52.9544 150.107 52.6477 149.674 52.4656C149.242 52.2834 148.765 52.2339 148.304 52.3235C147.843 52.4131 147.419 52.6376 147.086 52.9686C146.753 53.2996 146.526 53.722 146.434 54.1823C146.342 54.6426 146.388 55.12 146.568 55.5537C146.748 55.9874 147.052 56.3579 147.443 56.6182C147.834 56.8784 148.293 57.0167 148.762 57.0153C149.074 57.0258 149.385 56.9724 149.675 56.8583C149.965 56.7443 150.229 56.572 150.45 56.3521C150.671 56.1323 150.845 55.8695 150.961 55.5799C151.076 55.2903 151.132 54.9801 151.123 54.6684Z" fill="#263238"/>
    <path d="M154.202 52.3974V54.5234H157.26V55.2758H154.202V57.7401H153.332V51.6381H157.632V52.3974H154.202Z" fill="#263238"/>
    <path d="M160.648 57.0429L160.973 56.3526C161.541 56.8105 162.252 57.0548 162.982 57.0429C164.038 57.0429 164.493 56.6287 164.493 56.0972C164.493 54.6062 160.8 55.5519 160.8 53.2877C160.8 52.3421 161.532 51.5413 163.133 51.5413C163.826 51.529 164.507 51.7185 165.094 52.0867L164.804 52.7769C164.304 52.4598 163.725 52.2899 163.133 52.2868C162.098 52.2868 161.649 52.7217 161.649 53.2532C161.649 54.7373 165.342 53.8055 165.342 56.0143C165.342 56.9462 164.597 57.747 162.982 57.747C162.146 57.7869 161.322 57.5383 160.648 57.0429Z" fill="#263238"/>
    <path d="M171.046 56.9808V57.7401H166.621V51.6381H170.922V52.3974H167.47V54.268H170.528V55.0135H167.47V56.9808H171.046Z" fill="#263238"/>
    <path d="M176.534 57.7401L175.222 55.8625C175.093 55.8696 174.964 55.8696 174.836 55.8625H173.331V57.7194H172.461V51.6173H174.836C176.423 51.6173 177.383 52.418 177.383 53.7434C177.403 54.1682 177.282 54.5878 177.039 54.9364C176.795 55.285 176.443 55.5428 176.037 55.6693L177.486 57.7401H176.534ZM176.534 53.7641C176.534 52.8943 175.954 52.3835 174.836 52.3835H173.358V55.1446H174.836C175.926 55.1446 176.506 54.6683 176.506 53.7641H176.534Z" fill="#263238"/>
    <path d="M184.084 51.6381L181.413 57.7401H180.529L177.844 51.6381H178.789L180.985 56.6495L183.193 51.6381H184.084Z" fill="#263238"/>
    <path d="M184.863 51.6381H185.733V57.7401H184.863V51.6381Z" fill="#263238"/>
    <path d="M187.067 54.6683C187.062 54.2477 187.143 53.8305 187.305 53.4423C187.467 53.0541 187.706 52.7031 188.009 52.4109C188.311 52.1187 188.671 51.8915 189.064 51.7431C189.458 51.5947 189.877 51.5284 190.298 51.5482C190.73 51.5309 191.161 51.6071 191.561 51.7715C191.961 51.9359 192.322 52.1846 192.617 52.5008L192.051 53.0461C191.83 52.8157 191.562 52.635 191.266 52.5159C190.969 52.3969 190.651 52.3424 190.332 52.3558C189.944 52.3574 189.561 52.4555 189.22 52.6412C188.879 52.8269 188.589 53.0944 188.377 53.4198C188.164 53.7451 188.036 54.1182 188.003 54.5053C187.97 54.8925 188.034 55.2818 188.189 55.6382C188.344 55.9945 188.585 56.3069 188.89 56.5472C189.196 56.7875 189.556 56.9482 189.939 57.0149C190.322 57.0816 190.715 57.0522 191.084 56.9294C191.452 56.8066 191.785 56.5941 192.051 56.3112L192.617 56.8565C192.321 57.1741 191.96 57.4242 191.558 57.5897C191.157 57.7553 190.725 57.8325 190.291 57.816C189.869 57.835 189.447 57.7671 189.053 57.6166C188.658 57.4662 188.299 57.2363 187.996 56.9412C187.694 56.6461 187.456 56.2921 187.296 55.9012C187.136 55.5102 187.058 55.0906 187.067 54.6683Z" fill="#263238"/>
    <path d="M198.288 56.9808V57.7401H193.863V51.6381H198.164V52.3974H194.712V54.268H197.784V55.0135H194.726V56.9808H198.288Z" fill="#263238"/>
    <path d="M119.335 64.001L117.706 68.8329H116.981L115.642 64.9812L114.31 68.8605H113.571L111.949 64.0286H112.639L113.951 67.9839L115.332 64.0286H115.974L117.313 68.0046L118.652 64.0286L119.335 64.001Z" fill="#E0E0E0"/>
    <path d="M123.118 67.2453H120.129C120.174 67.5613 120.337 67.8485 120.586 68.0485C120.835 68.2485 121.15 68.3463 121.468 68.3221C121.666 68.3283 121.862 68.2921 122.044 68.2159C122.226 68.1396 122.39 68.0252 122.524 67.8803L122.897 68.3083C122.712 68.5074 122.486 68.6637 122.235 68.7663C121.983 68.8688 121.712 68.9151 121.441 68.9019C121.185 68.9213 120.927 68.8868 120.686 68.8006C120.444 68.7144 120.223 68.5785 120.037 68.4015C119.851 68.2246 119.704 68.0106 119.606 67.7734C119.507 67.5362 119.46 67.281 119.466 67.0244C119.456 66.7779 119.496 66.532 119.585 66.3018C119.673 66.0715 119.808 65.8619 119.981 65.6859C120.154 65.5098 120.361 65.3712 120.589 65.2785C120.818 65.1857 121.063 65.1409 121.31 65.1468C121.557 65.1405 121.803 65.1859 122.032 65.2801C122.261 65.3743 122.468 65.5152 122.64 65.6938C122.811 65.8725 122.943 66.0849 123.028 66.3176C123.113 66.5502 123.148 66.798 123.132 67.0451C123.132 67.0934 123.125 67.1831 123.118 67.2453ZM120.129 66.769H122.49C122.458 66.4779 122.32 66.2088 122.103 66.0132C121.885 65.8177 121.602 65.7095 121.31 65.7095C121.017 65.7095 120.734 65.8177 120.516 66.0132C120.299 66.2088 120.161 66.4779 120.129 66.769Z" fill="#E0E0E0"/>
    <path d="M124.059 63.7111H124.749V68.8605H124.059V63.7111Z" fill="#E0E0E0"/>
    <path d="M125.653 67.0244C125.648 66.7705 125.695 66.5183 125.792 66.2836C125.889 66.0489 126.033 65.8367 126.216 65.6604C126.399 65.4841 126.616 65.3475 126.854 65.2591C127.092 65.1708 127.346 65.1325 127.599 65.1469C127.897 65.1306 128.193 65.1951 128.457 65.3337C128.721 65.4722 128.942 65.6796 129.097 65.9338L128.586 66.2582C128.48 66.0923 128.333 65.9567 128.159 65.8648C127.984 65.7728 127.789 65.7276 127.592 65.7336C127.265 65.7575 126.96 65.9042 126.737 66.1443C126.513 66.3844 126.389 66.7001 126.389 67.0279C126.389 67.3557 126.513 67.6713 126.737 67.9114C126.96 68.1515 127.265 68.2983 127.592 68.3221C127.789 68.3281 127.984 68.2829 128.159 68.191C128.333 68.099 128.48 67.9635 128.586 67.7975L129.097 68.1151C128.942 68.3692 128.721 68.5766 128.457 68.7152C128.193 68.8537 127.897 68.9183 127.599 68.902C127.346 68.9163 127.092 68.8781 126.854 68.7897C126.616 68.7013 126.399 68.5647 126.216 68.3884C126.033 68.2121 125.889 68 125.792 67.7652C125.695 67.5305 125.648 67.2783 125.653 67.0244Z" fill="#E0E0E0"/>
    <path d="M129.559 67.0243C129.552 66.6451 129.658 66.2723 129.864 65.9535C130.07 65.6347 130.365 65.3843 130.714 65.2341C131.062 65.0839 131.447 65.0406 131.82 65.1099C132.193 65.1792 132.537 65.3578 132.808 65.6231C133.079 65.8884 133.265 66.2284 133.343 66.5997C133.42 66.9711 133.385 67.3571 133.243 67.7086C133.1 68.0601 132.856 68.3612 132.542 68.5737C132.228 68.7862 131.857 68.9005 131.478 68.9019C131.227 68.9133 130.975 68.8729 130.74 68.7831C130.505 68.6934 130.291 68.5562 130.111 68.3801C129.931 68.204 129.789 67.9928 129.694 67.7595C129.599 67.5263 129.553 67.2761 129.559 67.0243ZM132.714 67.0243C132.703 66.7809 132.621 66.5461 132.477 66.349C132.334 66.152 132.136 66.0013 131.908 65.9159C131.68 65.8305 131.432 65.8141 131.194 65.8686C130.957 65.9232 130.741 66.0463 130.573 66.2228C130.405 66.3992 130.292 66.6212 130.249 66.861C130.206 67.1009 130.235 67.348 130.332 67.5717C130.428 67.7954 130.588 67.9858 130.792 68.1192C130.996 68.2526 131.234 68.3232 131.478 68.3221C131.647 68.3264 131.815 68.2953 131.971 68.2308C132.127 68.1662 132.267 68.0697 132.384 67.9475C132.5 67.8252 132.59 67.6799 132.647 67.5209C132.703 67.3619 132.726 67.1927 132.714 67.0243Z" fill="#E0E0E0"/>
    <path d="M140.415 66.7482V68.8605H139.725V66.8242C139.725 66.0994 139.373 65.7473 138.773 65.7473C138.172 65.7473 137.668 66.1684 137.668 66.9691V68.8605H136.978V66.8242C136.978 66.0994 136.626 65.7473 136.025 65.7473C135.425 65.7473 134.921 66.1684 134.921 66.9691V68.8605H134.23V65.1813H134.969V65.7335C135.117 65.5397 135.31 65.385 135.531 65.2828C135.753 65.1805 135.996 65.1338 136.239 65.1468C136.495 65.1319 136.75 65.1886 136.976 65.3105C137.201 65.4325 137.388 65.6148 137.516 65.8371C137.677 65.6141 137.89 65.4344 138.137 65.3139C138.384 65.1935 138.657 65.136 138.931 65.1468C139.141 65.1281 139.353 65.1578 139.549 65.2335C139.746 65.3092 139.923 65.4289 140.066 65.5835C140.209 65.7381 140.315 65.9235 140.376 66.1254C140.436 66.3272 140.45 66.5403 140.415 66.7482Z" fill="#E0E0E0"/>
    <path d="M144.978 67.2453H141.996C142.038 67.5614 142.199 67.8495 142.447 68.05C142.695 68.2504 143.011 68.3479 143.329 68.3221C143.527 68.3293 143.725 68.2936 143.908 68.2173C144.092 68.1411 144.257 68.0261 144.392 67.8803L144.757 68.3083C144.486 68.5897 144.138 68.7858 143.757 68.8725C143.376 68.9592 142.978 68.9327 142.611 68.7964C142.245 68.6601 141.926 68.4199 141.694 68.1051C141.463 67.7903 141.328 67.4147 141.306 67.0244C141.297 66.7776 141.338 66.5315 141.427 66.3013C141.516 66.071 141.652 65.8615 141.825 65.6855C141.998 65.5096 142.206 65.3711 142.435 65.2784C142.664 65.1858 142.909 65.141 143.156 65.1468C143.403 65.1404 143.649 65.1858 143.878 65.2801C144.106 65.3743 144.313 65.5154 144.484 65.6941C144.655 65.8729 144.787 66.0854 144.87 66.3181C144.954 66.5507 144.989 66.7984 144.971 67.0451C144.992 67.0934 144.985 67.1832 144.978 67.2453ZM141.996 66.769H144.357C144.326 66.4779 144.188 66.2088 143.97 66.0133C143.752 65.8177 143.469 65.7096 143.177 65.7096C142.884 65.7096 142.602 65.8177 142.384 66.0133C142.166 66.2088 142.028 66.4779 141.996 66.769Z" fill="#E0E0E0"/>
    <path d="M145.766 68.474C145.766 68.4148 145.777 68.3562 145.801 68.3017C145.824 68.2471 145.857 68.1978 145.9 68.1566C145.942 68.1154 145.993 68.0832 146.048 68.0618C146.103 68.0404 146.162 68.0304 146.221 68.0322C146.338 68.0322 146.451 68.0788 146.534 68.1616C146.616 68.2445 146.663 68.3568 146.663 68.474C146.663 68.5912 146.616 68.7035 146.534 68.7864C146.451 68.8692 146.338 68.9158 146.221 68.9158C146.162 68.9176 146.103 68.9076 146.048 68.8862C145.993 68.8648 145.942 68.8326 145.9 68.7913C145.857 68.7501 145.824 68.7008 145.801 68.6463C145.777 68.5918 145.766 68.5332 145.766 68.474ZM145.828 64.0148H146.615L146.484 67.3419H145.952L145.828 64.0148Z" fill="#E0E0E0"/>
    <path d="M207.947 31.8132H207.133C206.626 31.8132 206.215 32.2243 206.215 32.7313V233.541C206.215 234.048 206.626 234.459 207.133 234.459H207.947C208.454 234.459 208.866 234.048 208.866 233.541V32.7313C208.866 32.2243 208.454 31.8132 207.947 31.8132Z" fill="#E0E0E0"/>
    <path d="M207.947 31.8132H207.133C206.626 31.8132 206.215 32.2243 206.215 32.7313V135.369C206.215 135.876 206.626 136.287 207.133 136.287H207.947C208.454 136.287 208.866 135.876 208.866 135.369V32.7313C208.866 32.2243 208.454 31.8132 207.947 31.8132Z" fill="#EB4D4D"/>
    <path d="M87.1667 92.3024V97.1343H86.4764V92.9098H85.3789V92.3024H87.1667Z" fill="#263238"/>
    <path d="M88.219 96.7271C88.2203 96.6346 88.249 96.5445 88.3014 96.4683C88.3538 96.392 88.4276 96.3329 88.5134 96.2984C88.5993 96.264 88.6935 96.2556 88.7841 96.2745C88.8747 96.2934 88.9577 96.3387 89.0226 96.4046C89.0876 96.4705 89.1316 96.5541 89.1492 96.645C89.1667 96.7358 89.157 96.8299 89.1213 96.9152C89.0856 97.0006 89.0254 97.0735 88.9484 97.1248C88.8714 97.1761 88.7809 97.2034 88.6883 97.2034C88.6259 97.2044 88.5638 97.1927 88.506 97.169C88.4481 97.1453 88.3957 97.1101 88.3518 97.0656C88.308 97.0211 88.2736 96.9682 88.2507 96.91C88.2279 96.8518 88.2171 96.7896 88.219 96.7271Z" fill="#263238"/>
    <path d="M93.0338 92.9098H91.3633V92.3024H95.3876V92.9098H93.7171V97.1619H93.0269L93.0338 92.9098Z" fill="#263238"/>
    <path d="M98.9777 95.5468H95.9888C96.0318 95.8622 96.1937 96.1493 96.4413 96.3495C96.6889 96.5496 97.0036 96.6477 97.321 96.6236C97.5201 96.6299 97.7182 96.5931 97.9017 96.5157C98.0851 96.4382 98.2497 96.322 98.3841 96.1749L98.7499 96.6098C98.4798 96.8943 98.132 97.0932 97.7498 97.1818C97.3676 97.2703 96.9678 97.2446 96.6001 97.1078C96.2324 96.971 95.913 96.7292 95.6816 96.4124C95.4502 96.0956 95.317 95.7178 95.2985 95.3259C95.288 95.0795 95.3283 94.8335 95.4167 94.6033C95.5052 94.373 95.64 94.1634 95.8128 93.9874C95.9856 93.8114 96.1927 93.6727 96.4212 93.58C96.6498 93.4872 96.895 93.4424 97.1415 93.4483C97.3891 93.442 97.6352 93.4874 97.8642 93.5816C98.0933 93.6758 98.3001 93.8167 98.4716 93.9953C98.6431 94.174 98.7754 94.3864 98.8602 94.6191C98.945 94.8517 98.9803 95.0995 98.9639 95.3466C98.9915 95.3949 98.9846 95.4847 98.9777 95.5468ZM95.9888 95.0636H98.3841C98.3525 94.7725 98.2146 94.5034 97.9967 94.3079C97.7788 94.1123 97.4964 94.0041 97.2037 94.0041C96.9109 94.0041 96.6285 94.1123 96.4106 94.3079C96.1928 94.5034 96.0548 94.7725 96.0233 95.0636H95.9888Z" fill="#263238"/>
    <path d="M101.892 93.4482V94.0971H101.741C101.578 94.0864 101.416 94.112 101.264 94.1718C101.113 94.2317 100.977 94.3245 100.866 94.4434C100.755 94.5623 100.672 94.7044 100.623 94.8594C100.573 95.0144 100.559 95.1784 100.581 95.3396V97.1689H99.8906V93.4897H100.526V94.1109C100.664 93.8789 100.867 93.6925 101.11 93.5747C101.353 93.4569 101.625 93.413 101.892 93.4482Z" fill="#263238"/>
    <path d="M108.823 95.0429V97.162H108.132V95.0912C108.132 94.4009 107.787 94.0212 107.18 94.0212C106.572 94.0212 106.082 94.4423 106.082 95.243V97.1344H105.392V95.0636C105.392 94.3733 105.047 93.9936 104.439 93.9936C104.282 93.987 104.125 94.015 103.98 94.0757C103.835 94.1365 103.706 94.2285 103.6 94.3451C103.495 94.4618 103.416 94.6002 103.37 94.7507C103.324 94.9011 103.312 95.0598 103.335 95.2154V97.1068H102.645V93.4276H103.28V93.9798C103.427 93.7856 103.62 93.6305 103.842 93.5282C104.063 93.4259 104.306 93.3795 104.55 93.3931C104.806 93.3782 105.061 93.4349 105.286 93.5568C105.512 93.6788 105.699 93.8611 105.827 94.0834C105.988 93.8594 106.202 93.6791 106.45 93.5586C106.699 93.4381 106.973 93.3812 107.249 93.3931C107.47 93.3567 107.698 93.375 107.911 93.4463C108.124 93.5177 108.316 93.6399 108.471 93.8025C108.626 93.965 108.739 94.163 108.801 94.3791C108.862 94.5953 108.869 94.8231 108.823 95.0429Z" fill="#263238"/>
    <path d="M89.0741 171.961V172.561H85.6227V172.092L87.5969 170.18C88.1146 169.683 88.2112 169.379 88.2112 169.068C88.2112 168.571 87.8523 168.268 87.1758 168.268C86.9424 168.254 86.7089 168.294 86.4935 168.385C86.278 168.476 86.0864 168.615 85.9333 168.792L85.457 168.385C85.6803 168.137 85.956 167.942 86.2641 167.815C86.5722 167.687 86.9049 167.629 87.238 167.646C88.2527 167.646 88.9015 168.171 88.9015 169.027C88.8938 169.325 88.8184 169.617 88.6808 169.881C88.5433 170.146 88.3473 170.375 88.1077 170.553L86.6167 171.988L89.0741 171.961Z" fill="#263238"/>
    <path d="M89.7033 172.126C89.7015 172.064 89.7123 172.002 89.7351 171.944C89.7579 171.885 89.7923 171.832 89.8362 171.788C89.8801 171.743 89.9325 171.708 89.9904 171.685C90.0482 171.661 90.1102 171.649 90.1727 171.65C90.299 171.65 90.4202 171.7 90.5095 171.79C90.5988 171.879 90.649 172 90.649 172.126C90.649 172.253 90.5988 172.374 90.5095 172.463C90.4202 172.552 90.299 172.603 90.1727 172.603C90.1105 172.603 90.0489 172.59 89.9915 172.566C89.9341 172.542 89.882 172.507 89.8384 172.463C89.7947 172.418 89.7602 172.366 89.7371 172.308C89.7139 172.25 89.7024 172.189 89.7033 172.126Z" fill="#263238"/>
    <path d="M93.5547 167.702H94.245V171.961H96.8749V172.561H93.5547V167.702Z" fill="#263238"/>
    <path d="M97.4688 167.743C97.4687 167.685 97.4804 167.627 97.5031 167.573C97.5258 167.52 97.5591 167.471 97.601 167.431C97.6428 167.39 97.6924 167.358 97.7468 167.337C97.8011 167.316 97.8592 167.306 97.9174 167.308C98.0028 167.311 98.0855 167.339 98.1552 167.388C98.2248 167.438 98.2784 167.506 98.3092 167.586C98.34 167.666 98.3467 167.753 98.3284 167.836C98.3101 167.919 98.2676 167.996 98.2063 168.055C98.145 168.115 98.0675 168.155 97.9835 168.17C97.8996 168.186 97.8128 168.177 97.7342 168.143C97.6555 168.11 97.5884 168.054 97.5412 167.983C97.494 167.912 97.4688 167.828 97.4688 167.743ZM97.5861 168.882H98.2764V172.561H97.5861V168.882Z" fill="#263238"/>
    <path d="M99.1801 170.725C99.175 170.472 99.2221 170.22 99.3186 169.986C99.4151 169.752 99.5589 169.54 99.7409 169.364C99.9229 169.188 100.139 169.051 100.377 168.962C100.614 168.873 100.867 168.834 101.12 168.848C101.418 168.829 101.717 168.893 101.982 169.032C102.247 169.17 102.469 169.379 102.625 169.634L102.114 169.959C102.008 169.793 101.86 169.657 101.686 169.565C101.512 169.474 101.317 169.428 101.12 169.434C100.793 169.458 100.487 169.605 100.264 169.845C100.041 170.085 99.9166 170.401 99.9166 170.729C99.9166 171.056 100.041 171.372 100.264 171.612C100.487 171.852 100.793 171.999 101.12 172.023C101.317 172.027 101.512 171.981 101.687 171.888C101.861 171.795 102.008 171.658 102.114 171.491L102.625 171.809C102.47 172.065 102.248 172.275 101.982 172.415C101.717 172.555 101.419 172.62 101.12 172.603C100.867 172.616 100.614 172.577 100.377 172.488C100.139 172.399 99.9229 172.263 99.7409 172.086C99.5589 171.91 99.4151 171.698 99.3186 171.464C99.2221 171.23 99.175 170.978 99.1801 170.725Z" fill="#263238"/>
    <path d="M106.736 170.946H103.754C103.797 171.261 103.959 171.549 104.207 171.749C104.454 171.949 104.769 172.047 105.086 172.023C105.285 172.029 105.484 171.992 105.667 171.915C105.85 171.837 106.015 171.721 106.149 171.574L106.515 172.009C106.244 172.29 105.896 172.486 105.515 172.573C105.134 172.66 104.736 172.633 104.369 172.497C104.003 172.361 103.684 172.121 103.452 171.806C103.22 171.491 103.085 171.115 103.064 170.725C103.054 170.478 103.095 170.232 103.185 170.002C103.274 169.772 103.409 169.562 103.583 169.386C103.756 169.21 103.964 169.072 104.193 168.979C104.421 168.886 104.667 168.842 104.914 168.848C105.161 168.841 105.407 168.887 105.636 168.981C105.864 169.075 106.071 169.216 106.242 169.395C106.413 169.574 106.544 169.786 106.628 170.019C106.712 170.251 106.747 170.499 106.729 170.746C106.75 170.801 106.743 170.884 106.736 170.946ZM103.754 170.463H106.115C106.083 170.172 105.945 169.903 105.728 169.707C105.51 169.511 105.227 169.403 104.935 169.403C104.642 169.403 104.359 169.511 104.141 169.707C103.924 169.903 103.786 170.172 103.754 170.463Z" fill="#263238"/>
    <path d="M111.171 170.442V172.561H110.481V170.49C110.481 169.8 110.122 169.421 109.494 169.421C109.332 169.408 109.17 169.432 109.019 169.489C108.868 169.547 108.732 169.638 108.621 169.755C108.509 169.872 108.425 170.012 108.374 170.165C108.323 170.319 108.307 170.482 108.327 170.642V172.534H107.637V168.855H108.279V169.407C108.436 169.21 108.639 169.054 108.87 168.952C109.1 168.85 109.352 168.804 109.604 168.82C109.821 168.795 110.04 168.821 110.245 168.895C110.45 168.968 110.636 169.088 110.787 169.245C110.939 169.402 111.052 169.591 111.119 169.799C111.185 170.006 111.203 170.227 111.171 170.442Z" fill="#263238"/>
    <path d="M112.086 170.725C112.08 170.472 112.127 170.22 112.223 169.985C112.319 169.75 112.463 169.538 112.645 169.361C112.827 169.185 113.044 169.048 113.282 168.96C113.519 168.871 113.773 168.833 114.026 168.848C114.325 168.829 114.623 168.893 114.888 169.032C115.153 169.17 115.376 169.379 115.531 169.634L115.02 169.959C114.913 169.792 114.764 169.657 114.589 169.565C114.413 169.473 114.217 169.428 114.019 169.434C113.692 169.458 113.387 169.605 113.163 169.845C112.94 170.085 112.816 170.401 112.816 170.729C112.816 171.056 112.94 171.372 113.163 171.612C113.387 171.852 113.692 171.999 114.019 172.023C114.218 172.028 114.414 171.982 114.59 171.889C114.765 171.795 114.913 171.659 115.02 171.491L115.531 171.809C115.376 172.065 115.154 172.275 114.889 172.415C114.624 172.555 114.325 172.62 114.026 172.603C113.773 172.616 113.52 172.577 113.283 172.488C113.046 172.399 112.829 172.263 112.647 172.086C112.465 171.91 112.322 171.698 112.225 171.464C112.129 171.23 112.081 170.978 112.086 170.725Z" fill="#263238"/>
    <path d="M119.646 170.946H116.664C116.707 171.261 116.869 171.549 117.117 171.749C117.364 171.949 117.679 172.047 117.997 172.023C118.196 172.029 118.394 171.992 118.577 171.915C118.761 171.837 118.925 171.721 119.06 171.574L119.425 172.009C119.154 172.29 118.806 172.486 118.425 172.573C118.044 172.66 117.646 172.633 117.279 172.497C116.913 172.361 116.594 172.121 116.362 171.806C116.13 171.491 115.996 171.115 115.974 170.725C115.964 170.478 116.006 170.232 116.095 170.002C116.184 169.772 116.32 169.562 116.493 169.386C116.666 169.21 116.874 169.072 117.103 168.979C117.332 168.886 117.577 168.842 117.824 168.848C118.071 168.841 118.317 168.887 118.546 168.981C118.774 169.075 118.981 169.216 119.152 169.395C119.323 169.574 119.454 169.786 119.538 170.019C119.622 170.251 119.657 170.499 119.639 170.746C119.66 170.801 119.653 170.884 119.646 170.946ZM116.664 170.463H119.025C118.994 170.172 118.856 169.903 118.638 169.707C118.42 169.511 118.137 169.403 117.845 169.403C117.552 169.403 117.269 169.511 117.052 169.707C116.834 169.903 116.696 170.172 116.664 170.463Z" fill="#263238"/>
    <path d="M191.731 108.089C191.731 108.193 167.909 108.269 138.531 108.269C109.153 108.269 85.3242 108.193 85.3242 108.089C85.3242 107.986 109.146 107.91 138.531 107.91C167.916 107.91 191.731 107.992 191.731 108.089Z" fill="#263238"/>
    <path d="M191.731 116.145C191.731 116.241 167.909 116.324 138.531 116.324C109.153 116.324 85.3242 116.241 85.3242 116.145C85.3242 116.048 109.146 115.965 138.531 115.965C167.916 115.965 191.731 116.041 191.731 116.145Z" fill="#263238"/>
    <path d="M191.731 124.193C191.731 124.297 167.909 124.373 138.531 124.373C109.153 124.373 85.3242 124.297 85.3242 124.193C85.3242 124.09 109.146 124.014 138.531 124.014C167.916 124.014 191.731 124.097 191.731 124.193Z" fill="#263238"/>
    <path d="M191.731 132.249C191.731 132.346 167.909 132.428 138.531 132.428C109.153 132.428 85.3242 132.346 85.3242 132.249C85.3242 132.152 109.146 132.069 138.531 132.069C167.916 132.069 191.731 132.145 191.731 132.249Z" fill="#263238"/>
    <path d="M191.731 140.298C191.731 140.401 167.909 140.477 138.531 140.477C109.153 140.477 85.3242 140.401 85.3242 140.298C85.3242 140.194 109.146 140.118 138.531 140.118C167.916 140.118 191.731 140.201 191.731 140.298Z" fill="#263238"/>
    <path d="M191.731 148.353C191.731 148.45 167.909 148.533 138.531 148.533C109.153 148.533 85.3242 148.45 85.3242 148.353C85.3242 148.257 109.146 148.174 138.531 148.174C167.916 148.174 191.731 148.25 191.731 148.353Z" fill="#263238"/>
    <path d="M191.731 178.919C191.731 179.015 167.909 179.098 138.531 179.098C109.153 179.098 85.3242 179.015 85.3242 178.919C85.3242 178.822 109.146 178.739 138.531 178.739C167.916 178.739 191.731 178.836 191.731 178.919Z" fill="#263238"/>
    <path d="M191.731 185.822C191.731 185.925 167.909 186.001 138.531 186.001C109.153 186.001 85.3242 185.925 85.3242 185.822C85.3242 185.718 109.146 185.642 138.531 185.642C167.916 185.642 191.731 185.725 191.731 185.822Z" fill="#E0E0E0"/>
    <path d="M191.731 192.724C191.731 192.821 167.909 192.904 138.531 192.904C109.153 192.904 85.3242 192.821 85.3242 192.724C85.3242 192.628 109.146 192.545 138.531 192.545C167.916 192.545 191.731 192.614 191.731 192.724Z" fill="#EBEBEB"/>
    <path d="M199.496 213.315H143.211V234.286H199.496V213.315Z" fill="#EB4D4D"/>
    <path d="M161.96 224.885H159.199L158.626 226.189H157.859L160.22 220.978H160.952L163.319 226.189H162.539L161.96 224.885ZM161.697 224.291L160.572 221.737L159.454 224.291H161.697Z" fill="white"/>
    <path d="M163.582 224.215C163.577 223.944 163.628 223.676 163.731 223.426C163.834 223.176 163.987 222.949 164.182 222.761C164.376 222.573 164.607 222.426 164.86 222.331C165.113 222.235 165.383 222.193 165.653 222.206C165.973 222.187 166.291 222.256 166.574 222.404C166.858 222.552 167.095 222.775 167.262 223.048L166.716 223.394C166.602 223.215 166.443 223.069 166.256 222.97C166.068 222.87 165.858 222.821 165.646 222.827C165.28 222.827 164.929 222.973 164.67 223.232C164.411 223.491 164.266 223.842 164.266 224.208C164.266 224.574 164.411 224.925 164.67 225.184C164.929 225.443 165.28 225.589 165.646 225.589C165.858 225.595 166.068 225.546 166.256 225.446C166.443 225.347 166.602 225.201 166.716 225.023L167.262 225.361C167.096 225.635 166.858 225.859 166.575 226.008C166.292 226.158 165.973 226.227 165.653 226.21C165.384 226.223 165.115 226.181 164.863 226.086C164.611 225.992 164.381 225.847 164.187 225.66C163.993 225.473 163.839 225.248 163.735 225C163.631 224.751 163.579 224.484 163.582 224.215Z" fill="white"/>
    <path d="M167.774 224.215C167.769 223.944 167.819 223.676 167.922 223.426C168.026 223.176 168.179 222.949 168.373 222.761C168.567 222.573 168.798 222.426 169.051 222.331C169.304 222.235 169.574 222.193 169.845 222.206C170.164 222.186 170.483 222.254 170.766 222.403C171.05 222.551 171.287 222.775 171.453 223.048L170.908 223.394C170.793 223.215 170.635 223.069 170.447 222.97C170.26 222.87 170.05 222.821 169.838 222.827C169.472 222.827 169.12 222.973 168.862 223.232C168.603 223.491 168.457 223.842 168.457 224.208C168.457 224.574 168.603 224.925 168.862 225.184C169.12 225.443 169.472 225.589 169.838 225.589C170.05 225.595 170.26 225.546 170.447 225.446C170.635 225.347 170.793 225.201 170.908 225.023L171.453 225.361C171.288 225.635 171.05 225.86 170.767 226.009C170.484 226.159 170.165 226.228 169.845 226.21C169.576 226.223 169.307 226.181 169.055 226.086C168.802 225.992 168.572 225.847 168.378 225.66C168.184 225.473 168.031 225.248 167.927 225C167.823 224.751 167.771 224.484 167.774 224.215Z" fill="white"/>
    <path d="M175.883 224.477H172.68C172.727 224.815 172.901 225.123 173.166 225.337C173.432 225.551 173.769 225.656 174.109 225.63C174.322 225.637 174.534 225.599 174.731 225.517C174.927 225.434 175.104 225.311 175.248 225.154L175.642 225.616C175.444 225.829 175.201 225.997 174.932 226.106C174.662 226.216 174.372 226.266 174.082 226.251C173.807 226.272 173.531 226.234 173.272 226.141C173.012 226.049 172.775 225.903 172.576 225.713C172.376 225.523 172.218 225.294 172.113 225.039C172.007 224.785 171.956 224.511 171.962 224.236C171.952 223.971 171.996 223.708 172.091 223.461C172.187 223.215 172.332 222.99 172.518 222.802C172.703 222.614 172.926 222.465 173.171 222.366C173.416 222.268 173.679 222.22 173.944 222.227C174.209 222.219 174.473 222.266 174.719 222.366C174.965 222.466 175.187 222.617 175.371 222.808C175.555 222.999 175.697 223.227 175.788 223.476C175.878 223.726 175.916 223.992 175.897 224.256C175.897 224.298 175.89 224.387 175.883 224.477ZM172.68 223.96H175.207C175.174 223.647 175.027 223.358 174.794 223.148C174.56 222.938 174.258 222.822 173.944 222.822C173.63 222.822 173.327 222.938 173.093 223.148C172.86 223.358 172.713 223.647 172.68 223.96Z" fill="white"/>
    <path d="M180.972 224.215C180.987 224.482 180.945 224.749 180.851 224.998C180.756 225.248 180.61 225.476 180.422 225.665C180.234 225.855 180.008 226.004 179.759 226.101C179.51 226.198 179.244 226.243 178.977 226.231C178.713 226.239 178.451 226.186 178.212 226.076C177.972 225.966 177.762 225.801 177.597 225.595V227.632H176.906V222.241H177.597V222.869C177.754 222.651 177.962 222.475 178.202 222.355C178.443 222.235 178.708 222.174 178.977 222.179C179.246 222.166 179.514 222.211 179.765 222.31C180.015 222.408 180.242 222.558 180.43 222.751C180.618 222.943 180.764 223.173 180.857 223.425C180.951 223.677 180.99 223.946 180.972 224.215ZM180.247 224.215C180.238 223.954 180.152 223.701 180 223.488C179.848 223.276 179.636 223.113 179.392 223.019C179.148 222.926 178.882 222.906 178.627 222.963C178.372 223.019 178.139 223.15 177.957 223.338C177.776 223.526 177.653 223.764 177.606 224.021C177.558 224.278 177.587 224.543 177.689 224.784C177.792 225.024 177.962 225.23 178.18 225.374C178.398 225.518 178.654 225.595 178.915 225.595C179.095 225.6 179.274 225.566 179.441 225.498C179.608 225.429 179.758 225.327 179.884 225.197C180.009 225.067 180.106 224.913 180.168 224.744C180.231 224.575 180.258 224.395 180.247 224.215Z" fill="white"/>
    <path d="M184.181 225.954C183.93 226.142 183.624 226.24 183.311 226.231C183.143 226.25 182.973 226.232 182.814 226.177C182.654 226.122 182.509 226.032 182.389 225.913C182.269 225.794 182.177 225.65 182.121 225.491C182.064 225.332 182.044 225.163 182.061 224.995V222.828H181.371V222.241H182.061V221.378H182.752V222.241H183.884V222.828H182.752V224.967C182.734 225.055 182.738 225.146 182.761 225.232C182.785 225.319 182.828 225.398 182.887 225.465C182.947 225.532 183.021 225.584 183.104 225.618C183.187 225.651 183.277 225.665 183.366 225.658C183.568 225.661 183.765 225.595 183.925 225.471L184.181 225.954Z" fill="white"/>
    <path d="M82.6959 234.452C82.6959 234.452 82.6476 234.452 82.5578 234.362L82.1575 234.051L80.4801 232.761L80.418 232.712L80.4939 232.678C87.2863 230.075 109.437 221.764 136.738 211.59L136.835 211.555L136.91 211.617L139.092 213.371L139.161 213.426V234.659H138.981L98.738 234.59L86.9411 234.541H83.7796H82.9651C82.8754 234.546 82.7856 234.546 82.6959 234.541H82.9789H83.8003H86.9825L98.7932 234.493L138.981 234.424L138.809 234.597C138.809 229.73 138.809 224.636 138.809 219.411V213.626L138.878 213.764L136.697 212.004H136.869C109.562 222.165 87.376 230.379 80.5353 232.85V232.774L82.1644 234.12L82.5647 234.452H82.6959Z" fill="#EB4D4D"/>
    <path d="M136.793 211.728H80.5078V232.698H136.793V211.728Z" fill="white"/>
    <path d="M136.801 232.699C136.801 232.699 136.801 232.567 136.801 232.319C136.801 232.07 136.801 231.705 136.801 231.235C136.801 230.276 136.801 228.874 136.801 227.093C136.801 223.483 136.76 218.258 136.732 211.749L136.856 211.873L80.571 211.928L80.7505 211.749C80.7505 219.065 80.7505 226.148 80.7505 232.719L80.5779 232.547L120.87 232.629L132.604 232.678H135.759H136.58H136.863H136.601H135.8H132.687L120.987 232.726L80.571 232.809H80.3984V232.636C80.3984 226.065 80.3984 218.983 80.3984 211.666V211.486H80.5848L136.87 211.541H136.994V211.666C136.994 218.203 136.939 223.456 136.925 227.087C136.925 228.874 136.925 230.262 136.925 231.228C136.925 231.684 136.925 232.036 136.925 232.291C136.925 232.547 136.801 232.699 136.801 232.699Z" fill="#EB4D4D"/>
    <path d="M95.9336 220.729H98.1287C98.4873 220.703 98.8474 220.751 99.1866 220.87C99.5258 220.99 99.8368 221.178 100.1 221.422C100.363 221.667 100.573 221.964 100.717 222.293C100.861 222.623 100.935 222.979 100.935 223.338C100.935 223.698 100.861 224.054 100.717 224.383C100.573 224.713 100.363 225.009 100.1 225.254C99.8368 225.499 99.5258 225.687 99.1866 225.806C98.8474 225.926 98.4873 225.974 98.1287 225.948H95.9336V220.729ZM98.0873 225.299C98.3585 225.322 98.6316 225.288 98.8891 225.2C99.1467 225.111 99.3831 224.971 99.5835 224.786C99.7839 224.602 99.9439 224.378 100.053 224.129C100.163 223.88 100.219 223.611 100.219 223.338C100.219 223.066 100.163 222.797 100.053 222.548C99.9439 222.298 99.7839 222.074 99.5835 221.89C99.3831 221.706 99.1467 221.565 98.8891 221.477C98.6316 221.389 98.3585 221.355 98.0873 221.378H96.7067V225.299H98.0873Z" fill="#EB4D4D"/>
    <path d="M105.529 224.208H102.326C102.373 224.547 102.547 224.856 102.814 225.07C103.081 225.285 103.421 225.389 103.762 225.361C103.975 225.37 104.187 225.332 104.384 225.249C104.581 225.167 104.757 225.042 104.901 224.884L105.294 225.347C105.002 225.642 104.631 225.846 104.225 225.935C103.819 226.024 103.397 225.993 103.008 225.847C102.619 225.702 102.281 225.446 102.034 225.113C101.787 224.779 101.641 224.381 101.615 223.966C101.604 223.702 101.647 223.437 101.742 223.19C101.837 222.942 101.982 222.717 102.168 222.528C102.353 222.339 102.576 222.19 102.822 222.091C103.068 221.992 103.331 221.944 103.596 221.951C103.862 221.943 104.126 221.992 104.372 222.093C104.618 222.193 104.84 222.345 105.024 222.536C105.208 222.728 105.35 222.956 105.44 223.206C105.531 223.456 105.568 223.722 105.55 223.987C105.55 224.056 105.536 224.139 105.529 224.208ZM102.326 223.697H104.859C104.82 223.389 104.67 223.106 104.436 222.901C104.203 222.696 103.903 222.582 103.593 222.582C103.282 222.582 102.982 222.696 102.749 222.901C102.516 223.106 102.366 223.389 102.326 223.697Z" fill="#EB4D4D"/>
    <path d="M106.172 223.973C106.166 223.702 106.216 223.433 106.319 223.182C106.422 222.931 106.575 222.704 106.769 222.515C106.963 222.326 107.195 222.179 107.448 222.083C107.702 221.987 107.972 221.944 108.243 221.958C108.563 221.939 108.881 222.007 109.164 222.155C109.448 222.304 109.685 222.527 109.852 222.8L109.306 223.152C109.191 222.974 109.033 222.828 108.845 222.729C108.658 222.63 108.448 222.581 108.236 222.586C107.87 222.586 107.519 222.731 107.26 222.99C107.001 223.249 106.856 223.6 106.856 223.966C106.856 224.333 107.001 224.684 107.26 224.943C107.519 225.202 107.87 225.347 108.236 225.347C108.448 225.352 108.658 225.303 108.845 225.204C109.033 225.105 109.191 224.959 109.306 224.781L109.852 225.126C109.686 225.4 109.448 225.624 109.165 225.773C108.882 225.923 108.563 225.993 108.243 225.975C107.974 225.988 107.704 225.946 107.451 225.851C107.199 225.756 106.968 225.61 106.774 225.423C106.58 225.235 106.427 225.01 106.323 224.76C106.22 224.511 106.168 224.243 106.172 223.973Z" fill="#EB4D4D"/>
    <path d="M110.734 220.418H111.425V225.941H110.734V220.418Z" fill="#EB4D4D"/>
    <path d="M112.68 220.777C112.681 220.715 112.694 220.653 112.719 220.596C112.743 220.538 112.779 220.486 112.824 220.443C112.869 220.399 112.922 220.365 112.98 220.342C113.038 220.318 113.1 220.307 113.163 220.308C113.255 220.311 113.344 220.34 113.42 220.394C113.495 220.447 113.553 220.521 113.587 220.607C113.62 220.693 113.627 220.787 113.608 220.877C113.588 220.967 113.542 221.05 113.476 221.114C113.41 221.178 113.326 221.221 113.236 221.238C113.145 221.255 113.051 221.245 112.966 221.21C112.881 221.174 112.809 221.113 112.758 221.037C112.707 220.96 112.68 220.87 112.68 220.777ZM112.811 221.999H113.501V225.948H112.811V221.999Z" fill="#EB4D4D"/>
    <path d="M118.63 223.677V225.948H117.939V223.787C117.939 223.014 117.546 222.634 116.869 222.634C116.697 222.622 116.523 222.648 116.362 222.71C116.2 222.773 116.055 222.87 115.935 222.995C115.816 223.121 115.726 223.271 115.671 223.435C115.617 223.6 115.599 223.774 115.62 223.946V225.982H114.93V222.034H115.62V222.627C115.789 222.415 116.006 222.247 116.254 222.136C116.501 222.026 116.771 221.976 117.042 221.992C117.261 221.983 117.48 222.021 117.683 222.104C117.886 222.187 118.069 222.313 118.22 222.472C118.37 222.632 118.485 222.822 118.556 223.03C118.626 223.238 118.652 223.458 118.63 223.677Z" fill="#EB4D4D"/>
    <path d="M123.532 224.208H120.329C120.376 224.546 120.549 224.854 120.815 225.068C121.08 225.282 121.418 225.387 121.758 225.361C121.971 225.37 122.184 225.332 122.38 225.249C122.577 225.167 122.754 225.042 122.897 224.884L123.29 225.347C122.998 225.642 122.627 225.846 122.221 225.935C121.815 226.024 121.393 225.993 121.004 225.847C120.615 225.702 120.277 225.446 120.03 225.113C119.783 224.779 119.637 224.381 119.611 223.966C119.6 223.702 119.643 223.437 119.738 223.19C119.833 222.942 119.978 222.717 120.164 222.528C120.35 222.339 120.572 222.19 120.818 222.091C121.064 221.992 121.327 221.944 121.592 221.951C121.858 221.943 122.122 221.992 122.368 222.093C122.614 222.193 122.836 222.345 123.02 222.536C123.204 222.728 123.346 222.956 123.436 223.206C123.527 223.456 123.564 223.722 123.546 223.987C123.546 224.056 123.539 224.139 123.532 224.208ZM120.329 223.697H122.855C122.823 223.385 122.676 223.096 122.442 222.886C122.209 222.676 121.906 222.559 121.592 222.559C121.278 222.559 120.975 222.676 120.742 222.886C120.509 223.096 120.362 223.385 120.329 223.697Z" fill="#EB4D4D"/>
    <path d="M138.981 234.452C138.912 234.528 138.367 234.114 137.767 233.534C137.166 232.954 136.731 232.429 136.8 232.353C136.869 232.277 137.415 232.698 138.015 233.278C138.616 233.858 139.05 234.383 138.981 234.452Z" fill="#EB4D4D"/>
    <path d="M219.39 229.213L227.424 225.347L223.007 212.287L213.301 210.043C212.397 209.836 211.389 209.595 210.271 209.284C208.956 208.917 207.712 208.332 206.592 207.552C205.165 206.645 203.868 205.546 202.74 204.287C201.822 203.037 199.875 203.507 199.875 204.894C199.875 206.281 202.326 209.781 206.682 212.259C211.037 214.737 203.334 215.932 200.545 216.401C197.756 216.87 189.183 218.796 188.672 219.77C187.927 221.192 189.362 222.282 192.124 221.737C194.885 221.192 203.368 220.115 203.589 221.592V221.633C202.908 222.698 202.577 223.95 202.643 225.212C202.708 226.475 203.167 227.685 203.955 228.674C205.515 230.628 207.855 233.078 209.574 232.705C212.804 232.022 219.39 229.213 219.39 229.213Z" fill="#B78876"/>
    <path d="M218.902 206.233L226.433 231.698L284.907 213.93C287.892 213.018 290.665 211.52 293.064 209.523C295.462 207.527 297.439 205.072 298.878 202.302C300.316 199.532 301.188 196.503 301.441 193.393C301.695 190.282 301.326 187.152 300.355 184.186L286.018 139.573L254.88 147.304L271.971 188.583L218.902 206.233Z" fill="#EB4D4D"/>
    <path d="M286.225 213.481L285.942 213.585L285.1 213.854L281.828 214.869L269.576 218.624L227.013 231.539L226.854 231.58L226.799 231.428C224.197 223.642 221.67 215.083 218.751 206.288L218.695 206.123L218.868 206.061L220.338 205.577L271.944 188.438L271.861 188.624C267.719 178.615 264.364 170.415 262.017 164.699C260.858 161.855 259.946 159.632 259.325 158.107C259.028 157.354 258.794 156.775 258.635 156.374C258.476 155.974 258.414 155.781 258.414 155.781C258.414 155.781 258.511 155.974 258.676 156.36L259.408 158.072C260.043 159.591 260.975 161.807 262.169 164.637C264.544 170.339 267.954 178.525 272.123 188.521L272.178 188.659L272.033 188.707L220.428 205.916L218.958 206.406L219.068 206.178C221.995 214.979 224.507 223.539 227.103 231.318L226.896 231.208L269.493 218.424L281.794 214.758L285.08 213.799L285.936 213.557L286.225 213.481Z" fill="#263238"/>
    <path d="M282.779 196.003C282.724 196.003 282.337 195.361 281.557 194.388C279.509 191.845 276.724 189.998 273.585 189.1C272.383 188.755 271.61 188.659 271.617 188.597C271.8 188.564 271.987 188.564 272.169 188.597C272.667 188.643 273.161 188.726 273.647 188.845C275.259 189.236 276.791 189.904 278.175 190.819C279.559 191.735 280.772 192.887 281.757 194.222C282.056 194.625 282.324 195.049 282.558 195.492C282.662 195.648 282.737 195.821 282.779 196.003Z" fill="#263238"/>
    <path d="M268.609 149.471C268.428 148.221 268.368 146.957 268.43 145.696C268.368 144.434 268.428 143.17 268.609 141.92C268.849 144.431 268.849 146.96 268.609 149.471Z" fill="#FAFAFA"/>
    <path d="M280.351 150.072C279.814 148.909 279.389 147.698 279.081 146.455C278.656 145.247 278.347 144.001 278.156 142.734C279.116 145.106 279.851 147.563 280.351 150.072Z" fill="#FAFAFA"/>
    <path d="M273.069 160.668C270.651 160.649 268.287 159.956 266.242 158.666C266.291 158.569 267.733 159.253 269.618 159.798C271.502 160.343 273.076 160.564 273.069 160.668Z" fill="#FAFAFA"/>
    <path d="M286.348 166.494C286.375 165.281 286.523 164.074 286.789 162.89C286.937 161.685 287.203 160.496 287.583 159.342C287.552 160.557 287.404 161.766 287.141 162.953C286.996 164.156 286.73 165.343 286.348 166.494Z" fill="#FAFAFA"/>
    <path d="M281.599 176.006C280.347 173.853 279.309 171.582 278.5 169.227C279.748 171.382 280.786 173.652 281.599 176.006Z" fill="#FAFAFA"/>
    <path d="M279.654 184.33C278.517 183.983 277.418 183.52 276.375 182.95C275.281 182.488 274.238 181.915 273.262 181.238C274.394 181.594 275.489 182.056 276.534 182.619C277.629 183.082 278.675 183.655 279.654 184.33Z" fill="#FAFAFA"/>
    <path d="M294.59 182.115C294.217 183.198 293.777 184.256 293.271 185.283C292.877 186.356 292.416 187.402 291.891 188.417C292.382 186.164 293.298 184.025 294.59 182.115Z" fill="#FAFAFA"/>
    <path d="M290.434 202.167C289.936 199.613 289.679 197.018 289.668 194.416C289.968 195.683 290.155 196.974 290.227 198.274C290.414 199.563 290.484 200.866 290.434 202.167Z" fill="#FAFAFA"/>
    <path d="M279.889 208.497C278.893 207.835 277.967 207.071 277.128 206.219C276.212 205.458 275.375 204.607 274.629 203.679C275.625 204.342 276.55 205.105 277.39 205.957C278.305 206.718 279.143 207.569 279.889 208.497Z" fill="#FAFAFA"/>
    <path d="M261.663 210.313C260.357 212.504 258.846 214.566 257.148 216.47C257.748 215.343 258.455 214.278 259.261 213.288C259.966 212.223 260.771 211.227 261.663 210.313Z" fill="#FAFAFA"/>
    <path d="M267.442 201.774C266.395 201.097 265.452 200.269 264.647 199.317C263.755 198.446 263.001 197.446 262.41 196.348C262.493 196.286 263.522 197.584 264.909 199.075C266.296 200.566 267.504 201.698 267.442 201.774Z" fill="#FAFAFA"/>
    <path d="M253.697 203.714C252.822 204.066 251.87 204.183 250.936 204.052C249.996 204.04 249.074 203.788 248.258 203.32C248.299 203.217 249.466 203.589 250.957 203.693C252.448 203.796 253.697 203.61 253.697 203.714Z" fill="#FAFAFA"/>
    <path d="M244.994 218.817C244.649 217.858 244.418 216.862 244.304 215.849C244.07 214.856 243.957 213.838 243.965 212.818C244.542 214.771 244.887 216.784 244.994 218.817Z" fill="#FAFAFA"/>
    <path d="M234.721 224.022C232.339 222.804 230.073 221.374 227.949 219.749C229.168 220.307 230.334 220.972 231.435 221.737C232.595 222.401 233.695 223.165 234.721 224.022Z" fill="#FAFAFA"/>
    <path d="M238.386 205.646C238.462 205.715 237.461 206.903 236.35 208.449C235.238 209.995 234.41 211.314 234.32 211.265C234.737 210.171 235.322 209.149 236.053 208.235C236.689 207.254 237.476 206.38 238.386 205.646Z" fill="#FAFAFA"/>
    <path d="M230.451 209.132C229.737 208.975 229.054 208.702 228.428 208.325C227.753 208.053 227.127 207.67 226.578 207.193C227.968 207.619 229.277 208.275 230.451 209.132Z" fill="#FAFAFA"/>
    <g opacity="0.2">
        <path d="M271.48 187.527C274.601 187.844 277.728 188.169 280.841 188.562C281.926 188.641 282.995 188.873 284.016 189.252C284.523 189.45 284.985 189.748 285.374 190.129C285.763 190.51 286.072 190.965 286.28 191.468C286.475 191.978 286.496 192.538 286.34 193.061C286.184 193.584 285.859 194.041 285.417 194.36C284.975 194.587 284.482 194.694 283.986 194.673C283.49 194.651 283.008 194.5 282.587 194.236C281.751 193.704 280.97 193.092 280.254 192.407C278.85 191.246 277.218 190.392 275.463 189.901C274.664 189.749 273.892 189.479 273.172 189.1C272.812 188.9 272.523 188.594 272.345 188.223C272.167 187.852 272.109 187.435 272.178 187.03" fill="black"/>
    </g>
</svg>
