<svg width="1125" height="505" viewBox="0 0 1125 505" fill="none" xmlns="http://www.w3.org/2000/svg">
    <path opacity="0.6" d="M503 192C503 210.591 497.076 228.765 485.978 244.224C474.88 259.682 459.106 271.73 440.651 278.845C422.196 285.959 401.888 287.821 382.296 284.194C362.704 280.567 344.707 271.614 330.582 258.468C316.457 245.322 306.838 228.573 302.941 210.338C299.044 192.104 301.044 173.204 308.688 156.028C316.333 138.852 329.278 124.171 345.887 113.842C362.497 103.513 382.024 98 402 98V192H503Z" fill="#D9D9D9"/>
    <ellipse opacity="0.1" cx="833" cy="336" rx="25.25" ry="23.5" fill="#FF0000"/>
    <ellipse opacity="0.1" cx="824.5" cy="192" rx="50.5" ry="47" fill="#FF0000"/>
    <ellipse opacity="0.1" cx="503.25" cy="383.5" rx="25.25" ry="23.5" fill="#FF0000"/>
</svg>
