<svg width="46" height="46" viewBox="0 0 46 46" fill="none" xmlns="http://www.w3.org/2000/svg">
    <g clip-path="url(#clip0_6646_60385)">
        <path d="M17.0422 6.72327C23.886 6.72327 29.4242 12.2614 29.4242 19.1053C29.4242 25.9491 23.886 31.4873 17.0422 31.4873C10.1983 31.4873 4.66016 25.9491 4.66016 19.1053C4.66016 12.2614 10.1983 6.72327 17.0422 6.72327Z" fill="#FFBC0A"/>
        <path d="M39.5551 29.3264V37.1609C39.5551 39.8624 37.3939 42.0236 34.6924 42.0236H24.7418C22.1303 42.0236 19.789 40.4027 18.8884 37.9713L17.3576 33.874H8.26244C4.79548 33.919 2.00391 31.0824 2.00391 27.6605V10.6409C2.00391 6.94877 5.02061 3.93207 8.7127 3.93207H25.9124C32.7563 3.93207 38.4295 9.01994 39.1949 15.7738L39.5551 19.0606L43.6524 26.4448C44.2828 27.6155 43.5174 29.0563 42.2116 29.1463L39.5551 29.3264Z" stroke="#151616" stroke-width="2.61148" stroke-miterlimit="10"/>
        <path d="M30.7734 18.8802H34.6907V21.1315" stroke="#151616" stroke-width="2.61148" stroke-miterlimit="10"/>
        <path d="M26.9911 20.6363V17.5296L24.9199 17.1694C24.7398 16.3589 24.3796 15.5935 23.9744 14.8731L25.1901 13.1621L22.9838 10.9559L21.2278 12.1716C20.5525 11.7663 19.787 11.4061 18.9315 11.226L18.5713 9.15485H15.4646L15.1044 11.226C14.2939 11.4061 13.5285 11.7663 12.8081 12.1716L11.0971 10.9559L8.89086 13.1621L10.1065 14.8731C9.70132 15.5485 9.34112 16.3139 9.16101 17.1694L7.08984 17.5296V20.6363L9.16101 20.9965C9.34112 21.807 9.70132 22.5724 10.1065 23.2928L8.89086 25.0038L11.0971 27.2101L12.8081 25.9944C13.4835 26.3996 14.2489 26.7598 15.1044 26.9399L15.4646 29.0111H18.5713L18.9315 26.9399C19.742 26.7598 20.5074 26.3996 21.2278 25.9944L22.9388 27.2101L25.1451 25.0038L23.9294 23.2928C24.3346 22.6175 24.6948 21.852 24.8749 20.9965L26.9911 20.6363Z" stroke="#151616" stroke-width="2.61148" stroke-miterlimit="10"/>
        <path d="M17.0416 21.8972C18.5833 21.8972 19.8332 20.6474 19.8332 19.1057C19.8332 17.5639 18.5833 16.3141 17.0416 16.3141C15.4998 16.3141 14.25 17.5639 14.25 19.1057C14.25 20.6474 15.4998 21.8972 17.0416 21.8972Z" stroke="#151616" stroke-width="2.61148" stroke-miterlimit="10"/>
    </g>
    <defs>
        <clipPath id="clip0_6646_60385">
            <rect width="45.0255" height="45.0255" fill="white" transform="translate(0.429688 0.466431)"/>
        </clipPath>
    </defs>
</svg>
