<svg width="46" height="46" viewBox="0 0 46 46" fill="none" xmlns="http://www.w3.org/2000/svg">
    <g clip-path="url(#clip0_6646_60452)">
        <path d="M27.2648 9.10211C34.1087 9.10211 39.6468 14.6402 39.6468 21.4841C39.6468 28.328 34.1087 33.8661 27.2648 33.8661C20.4209 33.8661 14.8828 28.328 14.8828 21.4841C14.8828 14.6402 20.466 9.10211 27.2648 9.10211Z" fill="#FFBC0A"/>
        <path d="M10.332 20.1334L22.9392 26.2118V40.9351L10.332 34.8567V20.1334Z" stroke="#151616" stroke-width="2.61148" stroke-miterlimit="10" stroke-linejoin="round"/>
        <path d="M22.9414 40.9351L35.5485 34.8567V20.1334L22.9414 26.2118V40.9351Z" stroke="#151616" stroke-width="2.61148" stroke-miterlimit="10" stroke-linejoin="round"/>
        <path d="M22.9392 14.0101L10.332 20.1335L22.9392 26.212L35.5463 20.1335L22.9392 14.0101Z" stroke="#151616" stroke-width="2.61148" stroke-miterlimit="10" stroke-linejoin="round"/>
        <path d="M22.9402 9.50715C24.5317 9.50715 25.8219 8.217 25.8219 6.62552C25.8219 5.03405 24.5317 3.7439 22.9402 3.7439C21.3487 3.7439 20.0586 5.03405 20.0586 6.62552C20.0586 8.217 21.3487 9.50715 22.9402 9.50715Z" stroke="#151616" stroke-width="2.61148" stroke-miterlimit="10"/>
        <path d="M22.9414 9.50751V14.0101" stroke="#151616" stroke-width="2.61148" stroke-miterlimit="10"/>
        <path d="M4.79569 42.6457C6.38717 42.6457 7.67732 41.3556 7.67732 39.7641C7.67732 38.1726 6.38717 36.8824 4.79569 36.8824C3.20421 36.8824 1.91406 38.1726 1.91406 39.7641C1.91406 41.3556 3.20421 42.6457 4.79569 42.6457Z" stroke="#151616" stroke-width="2.61148" stroke-miterlimit="10"/>
        <path d="M6.95703 37.828L10.3339 34.8563" stroke="#151616" stroke-width="2.61148" stroke-miterlimit="10"/>
        <path d="M41.0848 42.6457C42.6762 42.6457 43.9664 41.3556 43.9664 39.7641C43.9664 38.1726 42.6762 36.8824 41.0848 36.8824C39.4933 36.8824 38.2031 38.1726 38.2031 39.7641C38.2031 41.3556 39.4933 42.6457 41.0848 42.6457Z" stroke="#151616" stroke-width="2.61148" stroke-miterlimit="10"/>
        <path d="M38.9238 37.828L35.5469 34.8563" stroke="#151616" stroke-width="2.61148" stroke-miterlimit="10"/>
    </g>
    <defs>
        <clipPath id="clip0_6646_60452">
            <rect width="45.0255" height="45.0255" fill="white" transform="translate(0.429688 0.682251)"/>
        </clipPath>
    </defs>
</svg>
