<svg width="109" height="98" viewBox="0 0 109 98" fill="none" xmlns="http://www.w3.org/2000/svg">
    <g clip-path="url(#clip0_6646_60228)">
        <path d="M29.8789 51.3016V64.8398L41.6372 71.6359L43.0935 63.2217L41.6372 55.1312L29.8789 51.3016Z" fill="#0A84F2"/>
        <path d="M41.582 55.1312V71.582L53.3403 64.8398V51.3016L41.582 55.1312Z" fill="#E9000E"/>
        <path d="M41.5817 44.5056L29.7695 51.3017L41.5278 58.0977L42.9841 51.3017L41.5817 44.5056Z" fill="#95C8EC"/>
        <path d="M41.582 58.0438L53.3403 51.2477L41.582 44.5056V58.0438Z" fill="#95C8EC"/>
        <path d="M56.7383 51.3011V64.8393L68.4966 71.6354L69.9529 63.2212L68.4966 55.1307L56.7383 51.3011Z" fill="#0A84F2"/>
        <path d="M68.5508 55.1307V71.5815L80.309 64.7854V51.3011L68.5508 55.1307Z" fill="#E9000E"/>
        <path d="M68.5512 44.5043L56.793 51.3003L68.5512 58.0964L70.0075 51.3003L68.5512 44.5043Z" fill="#95C8EC"/>
        <path d="M68.5508 58.0433L80.309 51.2472L68.5508 44.4512C68.5508 44.5051 68.5508 58.0433 68.5508 58.0433Z" fill="#95C8EC"/>
        <path d="M43.2539 27.8931V41.4313L55.0122 48.2273L56.4685 39.8131L55.0122 31.7226L43.2539 27.8931Z" fill="#0A84F2"/>
        <path d="M55.0664 31.7226V48.1734L66.8247 41.3773V27.8931L55.0664 31.7226Z" fill="#E9000E"/>
        <path d="M55.0661 21.0961L43.2539 27.8921L55.0661 34.6343L56.5224 27.8382L55.0661 21.0961Z" fill="#95C8EC"/>
        <path d="M55.0664 34.6351L66.8247 27.839L55.0664 21.043V34.6351Z" fill="#95C8EC"/>
        <path d="M63.9102 88.1397L65.744 95.7988C69.196 94.9358 72.594 93.6952 75.7763 92.0771L72.2165 85.0653C69.6814 86.3598 66.8228 87.4385 63.9102 88.1397Z" fill="#FFBC0A"/>
        <path d="M90.8793 66.1873C89.5848 68.8302 87.9667 71.4192 86.1328 73.7924L92.3356 78.6467C94.4931 75.842 96.4348 72.7676 97.999 69.5853L90.8793 66.1873Z" fill="#FFBC0A"/>
        <path d="M54.2569 89.3801H53.7175C38.4533 89.1644 24.9151 80.5884 18.119 67.266L25.5624 65.7557L9.75881 48.2262L2.53125 70.5561L10.2982 68.938C17.9572 85.8742 34.6777 96.9313 53.6636 97.201H54.3647C56.4683 97.201 58.6258 97.0392 60.6754 96.8235L59.6506 89.0026C57.8167 89.2183 56.0368 89.3801 54.2569 89.3801Z" fill="#FFBC0A"/>
        <path d="M76.2617 82.8537L80.5227 89.488C83.4893 87.5462 86.3479 85.2809 88.829 82.6919L83.1657 77.1903C81.1161 79.3478 78.7968 81.2356 76.2617 82.8537Z" fill="#FFBC0A"/>
        <path d="M98.3254 28.7011C90.5585 11.657 73.8919 0.599903 54.9061 0.384155H54.2049C51.4002 0.384155 48.4876 0.599903 45.6289 1.08534L46.9773 8.85227C49.2966 8.47471 51.7238 8.20502 54.151 8.20502H54.6903C69.9545 8.42077 83.4927 16.9968 90.2888 30.3192L82.8455 31.8294L98.5951 49.359L105.877 27.029L98.3254 28.7011Z" fill="#FFBC0A"/>
        <path d="M9.59766 29.9958L16.8792 33.0162C18.0118 30.2654 19.5221 27.6225 21.2481 25.1954L14.8835 20.6107C12.7799 23.5233 11 26.6517 9.59766 29.9958Z" fill="#FFBC0A"/>
        <path d="M30.5781 6.47922L34.4616 13.3292C37.0506 11.8729 39.8553 10.6863 42.714 9.87725L40.4486 2.38C37.0506 3.35087 33.7604 4.6993 30.5781 6.47922Z" fill="#FFBC0A"/>
        <path d="M18.1719 16.511L24.051 21.7429C26.0467 19.4776 28.312 17.5358 30.7392 15.7559L26.1546 9.39136C23.242 11.387 20.4912 13.8142 18.1719 16.511Z" fill="#FFBC0A"/>
    </g>
    <defs>
        <clipPath id="clip0_6646_60228">
            <rect width="107.874" height="97.0867" fill="white" transform="translate(0.265625 0.115356)"/>
        </clipPath>
    </defs>
</svg>
