<svg width="109" height="98" viewBox="0 0 109 98" fill="none" xmlns="http://www.w3.org/2000/svg">
    <g clip-path="url(#clip0_6646_59872)">
        <path d="M15.0232 23.4124L0.40625 97.9533L0.999557 95.3643L15.0232 23.4124Z" fill="#FFC431"/>
        <path d="M79.8002 23.4124H24.7305L38.862 95.3643L39.3474 97.9533H94.471L79.8002 23.4124Z" fill="#FFBC0A"/>
        <path d="M77.374 80.856H54.5586L55.2058 83.3371L55.4216 84.3619H78.183L77.374 80.856Z" fill="#FFBC0A"/>
        <path d="M24.7318 23.4124H15.0232L0.999557 95.3643L0.40625 97.9533H39.3488L38.8634 95.3643L24.7318 23.4124Z" fill="#FFBC0A"/>
        <path d="M39.4582 97.8455H36.8692L19.9869 83.7679L3.1046 97.8455H0.515625L1.00106 95.2565L18.3148 80.8014V23.4124H21.5511V80.8553L38.8649 95.3104L39.4582 97.8455Z" fill="#FFBC0A"/>
        <path d="M58.8215 23.3045H55.5853V13.5958C55.5853 9.11904 51.9715 5.50526 47.4947 5.50526C43.018 5.50526 39.4042 9.11904 39.4042 13.5958V23.3045H36.168V13.5958C36.168 7.33912 41.1841 2.26904 47.4947 2.26904C53.8054 2.26904 58.8215 7.28519 58.8215 13.5958V23.3045Z" fill="#E9000E"/>
        <path d="M67.0168 36.3033H63.7806V13.5958C63.7806 9.11905 60.1668 5.50526 55.6901 5.50526C51.2133 5.50526 47.5995 9.11905 47.5995 13.5958V36.3033H44.3633V13.5958C44.3633 7.33912 49.3794 2.26904 55.6901 2.26904C62.0007 2.26904 67.0168 7.28519 67.0168 13.5958V36.3033Z" fill="#F2666E"/>
        <path d="M58.2794 51.405L49.1641 97.9527L49.5416 96.3346L58.2794 51.405Z" fill="#FFC431"/>
        <path d="M98.7329 51.405H64.375L73.1667 96.3346L73.4904 97.9527H107.902L98.7329 51.405Z" fill="#E9000E"/>
        <path d="M64.3743 51.405H58.2794L49.5416 96.3346L49.1641 97.9527H73.4897L73.166 96.3346L64.3743 51.405Z" fill="#F2666E"/>
        <path d="M73.5444 97.8987H71.9262L61.3546 89.107L50.8369 97.8987H49.2188L49.4884 96.2806L60.2758 87.2732V51.405H62.2715V87.2732L73.0589 96.2806L73.5444 97.8987Z" fill="#E9000E"/>
        <path d="M85.6252 51.3516H83.6295V45.3106C83.6295 42.5059 81.3642 40.2945 78.6134 40.2945C75.8626 40.2945 73.5972 42.5598 73.5972 45.3106V51.3516H71.6016V45.3106C71.6016 41.3732 74.7299 38.2449 78.6673 38.2449C82.6047 38.2449 85.7331 41.3732 85.7331 45.3106V51.3516H85.6252Z" fill="#004177"/>
        <path d="M90.7502 59.4421H88.7545V45.3106C88.7545 42.5059 86.4892 40.2945 83.7384 40.2945C80.9337 40.2945 78.7222 42.5598 78.7222 45.3106V59.4961H76.7266V45.3106C76.7266 41.3732 79.8549 38.2449 83.7923 38.2449C87.7297 38.2449 90.8581 41.3732 90.8581 45.3106V59.4421H90.7502Z" fill="#004177"/>
    </g>
    <defs>
        <clipPath id="clip0_6646_59872">
            <rect width="107.874" height="97.0867" fill="white" transform="translate(0.136719 0.867676)"/>
        </clipPath>
    </defs>
</svg>
