<svg width="46" height="46" viewBox="0 0 46 46" fill="none" xmlns="http://www.w3.org/2000/svg">
    <g clip-path="url(#clip0_6646_60399)">
        <path d="M29.3976 18.4322C36.2415 18.4322 41.7796 23.9703 41.7796 30.8142C41.7796 37.6581 36.2415 43.1962 29.3976 43.1962C22.5538 43.1962 17.0156 37.6581 17.0156 30.8142C17.0156 23.9703 22.5538 18.4322 29.3976 18.4322Z" fill="#FFBC0A"/>
        <path d="M19.715 7.62646L11.1602 12.5793" stroke="#151616" stroke-width="2.61148" stroke-miterlimit="10"/>
        <path d="M34.6642 12.5793L26.1094 7.62646" stroke="#151616" stroke-width="2.61148" stroke-miterlimit="10"/>
        <path d="M37.8164 27.8424V18.1169" stroke="#151616" stroke-width="2.61148" stroke-miterlimit="10"/>
        <path d="M26.1094 38.3335L34.6642 33.3807" stroke="#151616" stroke-width="2.61148" stroke-miterlimit="10"/>
        <path d="M11.1602 33.3807L19.715 38.3335" stroke="#151616" stroke-width="2.61148" stroke-miterlimit="10"/>
        <path d="M8.00781 18.1169V27.8424" stroke="#151616" stroke-width="2.61148" stroke-miterlimit="10"/>
        <path d="M22.9108 9.47219C24.9499 9.47219 26.6029 7.81918 26.6029 5.7801C26.6029 3.74102 24.9499 2.08801 22.9108 2.08801C20.8718 2.08801 19.2188 3.74102 19.2188 5.7801C19.2188 7.81918 20.8718 9.47219 22.9108 9.47219Z" stroke="#151616" stroke-width="2.61148" stroke-miterlimit="10"/>
        <path d="M22.9108 43.8718C24.9499 43.8718 26.6029 42.2188 26.6029 40.1797C26.6029 38.1406 24.9499 36.4876 22.9108 36.4876C20.8718 36.4876 19.2188 38.1406 19.2188 40.1797C19.2188 42.2188 20.8718 43.8718 22.9108 43.8718Z" stroke="#151616" stroke-width="2.61148" stroke-miterlimit="10"/>
        <path d="M16.7429 25.0957C18.782 25.0957 20.435 23.4427 20.435 21.4036C20.435 19.3645 18.782 17.7115 16.7429 17.7115C14.7038 17.7115 13.0508 19.3645 13.0508 21.4036C13.0508 23.4427 14.7038 25.0957 16.7429 25.0957Z" stroke="#151616" stroke-width="2.61148" stroke-miterlimit="10"/>
        <path d="M28.8561 28.7883C30.8952 28.7883 32.5482 27.1353 32.5482 25.0962C32.5482 23.0571 30.8952 21.4041 28.8561 21.4041C26.8171 21.4041 25.1641 23.0571 25.1641 25.0962C25.1641 27.1353 26.8171 28.7883 28.8561 28.7883Z" stroke="#151616" stroke-width="2.61148" stroke-miterlimit="10"/>
        <path d="M8.00849 18.1167C10.0476 18.1167 11.7006 16.4637 11.7006 14.4246C11.7006 12.3855 10.0476 10.7325 8.00849 10.7325C5.96941 10.7325 4.31641 12.3855 4.31641 14.4246C4.31641 16.4637 5.96941 18.1167 8.00849 18.1167Z" stroke="#151616" stroke-width="2.61148" stroke-miterlimit="10"/>
        <path d="M8.00849 35.2264C10.0476 35.2264 11.7006 33.5734 11.7006 31.5343C11.7006 29.4952 10.0476 27.8422 8.00849 27.8422C5.96941 27.8422 4.31641 29.4952 4.31641 31.5343C4.31641 33.5734 5.96941 35.2264 8.00849 35.2264Z" stroke="#151616" stroke-width="2.61148" stroke-miterlimit="10"/>
        <path d="M37.8171 18.1167C39.8562 18.1167 41.5092 16.4637 41.5092 14.4246C41.5092 12.3855 39.8562 10.7325 37.8171 10.7325C35.778 10.7325 34.125 12.3855 34.125 14.4246C34.125 16.4637 35.778 18.1167 37.8171 18.1167Z" stroke="#151616" stroke-width="2.61148" stroke-miterlimit="10"/>
        <path d="M37.8171 35.2264C39.8562 35.2264 41.5092 33.5734 41.5092 31.5343C41.5092 29.4952 39.8562 27.8422 37.8171 27.8422C35.778 27.8422 34.125 29.4952 34.125 31.5343C34.125 33.5734 35.778 35.2264 37.8171 35.2264Z" stroke="#151616" stroke-width="2.61148" stroke-miterlimit="10"/>
        <path d="M14.3568 24.1953L10.3945 28.7429" stroke="#151616" stroke-width="2.61148" stroke-miterlimit="10"/>
        <path d="M10.8906 16.7213L13.8623 19.1077" stroke="#151616" stroke-width="2.61148" stroke-miterlimit="10"/>
        <path d="M21.7844 36.7123L17.8672 24.9156" stroke="#151616" stroke-width="2.61148" stroke-miterlimit="10"/>
        <path d="M27.5036 28.4728L24.2617 36.7575" stroke="#151616" stroke-width="2.61148" stroke-miterlimit="10"/>
        <path d="M20.2539 22.4849L25.3418 24.0157" stroke="#151616" stroke-width="2.61148" stroke-miterlimit="10"/>
        <path d="M31.2422 22.2591L35.4746 17.2612" stroke="#151616" stroke-width="2.61148" stroke-miterlimit="10"/>
        <path d="M34.8448 29.3738L31.8281 27.2126" stroke="#151616" stroke-width="2.61148" stroke-miterlimit="10"/>
        <path d="M21.5628 9.20239L18.0508 18.1174" stroke="#151616" stroke-width="2.61148" stroke-miterlimit="10"/>
        <path d="M27.7762 21.5844L24.0391 9.42749" stroke="#151616" stroke-width="2.61148" stroke-miterlimit="10"/>
        <path d="M20.2539 22.4849L25.3418 24.0157" stroke="#151616" stroke-width="2.61148" stroke-miterlimit="10"/>
    </g>
    <defs>
        <clipPath id="clip0_6646_60399">
            <rect width="45.0255" height="45.0255" fill="white" transform="translate(0.398438 0.466187)"/>
        </clipPath>
    </defs>
</svg>
