<svg width="46" height="46" viewBox="0 0 46 46" fill="none" xmlns="http://www.w3.org/2000/svg">
    <g clip-path="url(#clip0_6646_60343)">
        <path d="M12.7804 3.75244C19.6243 3.75244 25.1624 9.29057 25.1624 16.1344C25.1624 22.9783 19.6243 28.5164 12.7804 28.5164C5.93657 28.5164 0.398438 22.9333 0.398438 16.1344C0.398438 9.29057 5.93657 3.75244 12.7804 3.75244Z" fill="#FFBC0A"/>
        <path d="M18.9922 21.1778V25.6803L22.9094 27.9316L26.8266 25.6803V21.1778L22.9094 18.9265L18.9922 21.1778Z" stroke="#151616" stroke-width="2.61148" stroke-miterlimit="10"/>
        <path d="M18.9922 4.78838V9.29093L22.9094 11.5422L26.8266 9.29093V4.78838L22.9094 2.53711L18.9922 4.78838Z" stroke="#151616" stroke-width="2.61148" stroke-miterlimit="10"/>
        <path d="M18.9922 37.5673V42.0699L22.9094 44.3211L26.8266 42.0699V37.5673L22.9094 35.316L18.9922 37.5673Z" stroke="#151616" stroke-width="2.61148" stroke-miterlimit="10"/>
        <path d="M4.8125 29.2824V33.7849L8.72971 36.0362L12.6019 33.7849V29.2824L8.72971 27.0311L4.8125 29.2824Z" stroke="#151616" stroke-width="2.61148" stroke-miterlimit="10"/>
        <path d="M4.8125 12.893V17.3955L8.72971 19.6468L12.6019 17.3955V12.893L8.72971 10.6417L4.8125 12.893Z" stroke="#151616" stroke-width="2.61148" stroke-miterlimit="10"/>
        <path d="M33.2227 29.2824V33.7849L37.0948 36.0362L41.0121 33.7849V29.2824L37.0948 27.0311L33.2227 29.2824Z" stroke="#151616" stroke-width="2.61148" stroke-miterlimit="10"/>
        <path d="M33.2227 12.893V17.3955L37.0948 19.6468L41.0121 17.3955V12.893L37.0948 10.6417L33.2227 12.893Z" stroke="#151616" stroke-width="2.61148" stroke-miterlimit="10"/>
        <path d="M33.2204 12.983L26.8268 9.29089L22.9096 11.5422L18.9924 9.29089L12.5988 12.983V17.3955L8.72656 19.6467V27.0309L12.5988 29.2822V33.7847L12.5087 33.8298L18.9924 37.5669L22.9096 35.3156L26.8268 37.5669L33.3105 33.8298L33.2204 33.7847V29.2822L37.0926 27.0309V19.6467L33.2204 17.3955V12.983Z" stroke="#151616" stroke-width="2.61148" stroke-miterlimit="10"/>
        <path d="M22.9102 18.9264V11.5422" stroke="#151616" stroke-width="2.61148" stroke-miterlimit="10"/>
        <path d="M22.9102 27.9316V35.3158" stroke="#151616" stroke-width="2.61148" stroke-miterlimit="10"/>
    </g>
    <defs>
        <clipPath id="clip0_6646_60343">
            <rect width="45.0255" height="45.0255" fill="white" transform="translate(0.398438 0.915771)"/>
        </clipPath>
    </defs>
</svg>
