<svg width="109" height="98" viewBox="0 0 109 98" fill="none" xmlns="http://www.w3.org/2000/svg">
    <g clip-path="url(#clip0_6646_60188)">
        <path d="M4.01953 5.3465V88.3017C4.01953 90.9985 6.23095 93.2099 8.98174 93.2099H72.142C74.8928 93.2099 77.1042 90.9985 77.1042 88.2477V22.2288L55.3136 0.438232H8.98174C6.28489 0.438232 4.07347 2.64965 4.01953 5.3465Z" fill="#D8EDFE"/>
        <path d="M55.2578 0.438232L77.0484 22.2288H59.0334C56.9838 22.2288 55.3118 20.5567 55.3118 18.5071V0.438232H55.2578Z" fill="#6FC4F7"/>
        <path d="M18.4751 25.3034C16.911 25.2494 15.3468 24.8719 13.9444 24.2246V20.6648C14.8074 21.0963 15.7244 21.4738 16.6413 21.7435C17.5043 22.0132 18.3673 22.175 19.2303 22.175C19.6618 22.2289 20.1472 22.1211 20.5787 21.9593C20.8484 21.7974 21.0102 21.5278 21.0102 21.2041C21.0102 20.9884 20.9023 20.7187 20.6866 20.6108C20.3629 20.3951 19.9854 20.1793 19.6078 20.0715C19.1224 19.8557 18.4751 19.586 17.6661 19.3163C16.857 19.0467 16.1558 18.6152 15.4547 18.1297C14.9153 17.7522 14.5377 17.2667 14.2141 16.7274C13.9444 16.1341 13.8366 15.4329 13.8366 14.7856C13.7826 13.7608 14.2141 12.736 14.9692 12.0348C15.9401 11.2797 17.1267 10.8482 18.3673 10.7943V9.28406H20.5787V10.7404C22.0889 10.8482 23.5452 11.1719 24.9476 11.8191L23.5992 14.8396C22.3586 14.2463 20.9562 13.8687 19.5539 13.8148C19.1224 13.7608 18.7448 13.8687 18.3673 14.0305C18.1515 14.1384 17.9897 14.4081 18.0436 14.6778C18.0436 14.8935 18.1515 15.1093 18.3133 15.2711C18.583 15.4868 18.8527 15.6486 19.1763 15.8104C19.6078 16.0262 20.2011 16.2419 20.9023 16.4577C22.0889 16.8352 23.2216 17.4825 24.1385 18.3455C24.7858 19.0467 25.1633 20.0175 25.1094 20.9345C25.1633 22.0132 24.7858 23.0919 23.9767 23.8471C23.0598 24.6561 21.8732 25.1415 20.6326 25.2494V27.353H18.4751V25.3034Z" fill="#6FC4F7"/>
        <path d="M13.7266 35.8749H40.749V40.7292H13.7266V35.8749Z" fill="#6FC4F7"/>
        <path d="M13.7266 46.7166H62.5396V51.5709H13.7266V46.7166Z" fill="#6FC4F7"/>
        <path d="M13.7266 58.0963H62.5396V62.9506H13.7266V58.0963Z" fill="#6FC4F7"/>
        <path d="M98.0859 97.2014H61.6784C58.3883 97.2014 55.6914 94.5046 55.6914 91.2144V47.4176C55.6914 44.1274 58.3883 41.4305 61.6784 41.4305H98.0859C101.376 41.4305 104.073 44.1274 104.073 47.4176V91.2144C104.127 94.5046 101.43 97.2014 98.0859 97.2014Z" fill="#103159"/>
        <path d="M95.712 59.2836H64.1049C63.134 59.2836 62.3789 58.5285 62.3789 57.5576V51.247C62.3789 50.2761 63.134 49.521 64.1049 49.521H95.712C96.6829 49.521 97.438 50.2761 97.438 51.247V57.5037C97.438 58.4745 96.6829 59.2836 95.712 59.2836Z" fill="#F2666E"/>
        <path d="M95.7129 49.4668H86.8672V59.2294H95.7129C96.6837 59.2294 97.4388 58.4743 97.4388 57.5034V51.2467C97.4388 50.2759 96.6837 49.5207 95.7129 49.4668Z" fill="#E9000E"/>
        <path d="M68.7967 75.3573H64.5896C63.349 75.3573 62.3242 74.3325 62.3242 73.092V68.8849C62.3242 67.6443 63.349 66.6195 64.5896 66.6195H68.7967C70.0372 66.6195 71.062 67.6443 71.062 68.8849V73.092C71.116 74.2786 70.0912 75.3573 68.7967 75.3573Z" fill="#FFBC0A"/>
        <path d="M82.0115 75.3573H77.8044C76.5639 75.3573 75.5391 74.3325 75.5391 73.092V68.8849C75.5391 67.6443 76.5639 66.6195 77.8044 66.6195H82.0115C83.2521 66.6195 84.2769 67.6443 84.2769 68.8849V73.092C84.2769 74.2786 83.306 75.3573 82.0115 75.3573Z" fill="#FFBC0A"/>
        <path d="M95.1724 75.3573H91.0193C89.7787 75.3573 88.7539 74.3325 88.7539 73.0919V68.8849C88.7539 67.6443 89.7787 66.6195 91.0193 66.6195H95.2263C96.4669 66.6195 97.4917 67.6443 97.4917 68.8849V73.0919C97.4917 74.3325 96.5208 75.4112 95.2263 75.4112C95.2263 75.3573 95.2263 75.3573 95.1724 75.3573Z" fill="#FFBC0A"/>
        <path d="M68.7959 89.4341H64.5888C63.3483 89.4341 62.2695 88.4632 62.2695 87.1687V87.1148V82.9077C62.2695 81.6671 63.2943 80.6423 64.5349 80.6423H68.742C69.9825 80.6423 71.0073 81.6671 71.0073 82.9077V87.1148C71.0613 88.4093 70.0365 89.4341 68.7959 89.4341Z" fill="#FFBC0A"/>
        <path d="M82.0115 89.4343H77.8044C76.5639 89.4343 75.5391 88.4095 75.5391 87.169V82.9619C75.5391 81.7213 76.5639 80.6965 77.8044 80.6965H82.0115C83.2521 80.6965 84.2769 81.7213 84.2769 82.9619V87.115C84.2769 88.4095 83.2521 89.4343 82.0115 89.4343Z" fill="#FFBC0A"/>
        <path d="M95.1724 89.4343H91.0193C89.7787 89.4343 88.7539 88.4095 88.7539 87.169V82.9619C88.7539 81.7213 89.7787 80.6965 91.0193 80.6965H95.2263C96.4669 80.6965 97.4917 81.7213 97.4917 82.9619V87.115C97.4917 88.4095 96.5208 89.4343 95.1724 89.4343C95.2263 89.4343 95.2263 89.4343 95.1724 89.4343Z" fill="#FFBC0A"/>
    </g>
    <defs>
        <clipPath id="clip0_6646_60188">
            <rect width="107.874" height="97.0867" fill="white" transform="translate(0.136719 0.115356)"/>
        </clipPath>
    </defs>
</svg>
