<svg width="46" height="46" viewBox="0 0 46 46" fill="none" xmlns="http://www.w3.org/2000/svg">
    <path d="M23.4093 7.88641C30.2532 7.88641 35.7913 13.4245 35.7913 20.2684C35.7913 27.1123 30.2532 32.6504 23.4093 32.6504C16.5655 32.6504 11.0273 27.1123 11.0273 20.2684C11.0273 13.4696 16.5655 7.88641 23.4093 7.88641Z" fill="#FFBC0A"/>
    <path d="M36.8235 31.2548V27.0224L33.9868 26.5271C33.7167 25.4465 33.2664 24.4109 32.7261 23.4654L34.3921 21.1241L31.4204 18.1524L29.0791 19.8183C28.1335 19.233 27.098 18.8278 26.0173 18.5576L25.5221 15.721H21.2897L20.7944 18.5576C19.7138 18.8278 18.6782 19.278 17.7327 19.8183L15.3913 18.1524L12.4197 21.1241L14.0856 23.4654C13.5003 24.4109 13.095 25.4465 12.8249 26.5271L9.98828 27.0224V31.2548L12.8249 31.7501C13.095 32.8307 13.5453 33.8663 14.0856 34.8118L12.4197 37.1531L15.3913 40.1248L17.7327 38.4589C18.6782 39.0442 19.7138 39.4494 20.7944 39.7196L21.2897 42.5562H25.5221L26.0173 39.7196C27.098 39.4494 28.1335 38.9992 29.0791 38.4589L31.4204 40.1248L34.3921 37.1531L32.7261 34.8118C33.3115 33.8663 33.7167 32.8307 33.9868 31.7501L36.8235 31.2548Z" stroke="#151616" stroke-width="2.61148" stroke-miterlimit="10"/>
    <path d="M37.4554 28.8684C40.7873 28.4632 43.3087 25.6266 43.3087 22.2046C43.3087 18.5125 40.292 15.4958 36.5999 15.4958C36.5549 15.4958 36.5098 15.4958 36.4648 15.4958C36.5098 15.1356 36.5999 14.7304 36.5999 14.3702C36.5999 10.453 33.4481 7.3012 29.5309 7.3012C28.4053 7.3012 27.3697 7.57135 26.4241 8.06663C24.6681 5.13998 21.4713 3.11383 17.8243 3.11383C12.2861 3.11383 7.82863 7.57135 7.82863 13.1095C7.82863 13.965 7.9637 14.7754 8.14381 15.5859C4.947 16.0812 2.51562 18.8277 2.51562 22.2046C2.51562 25.8967 5.53233 28.9134 9.22442 28.9134H9.35949" stroke="#151616" stroke-width="2.61148" stroke-miterlimit="10"/>
    <path d="M23.4076 33.1008C25.5958 33.1008 27.3698 31.3269 27.3698 29.1386C27.3698 26.9503 25.5958 25.1763 23.4076 25.1763C21.2193 25.1763 19.4453 26.9503 19.4453 29.1386C19.4453 31.3269 21.2193 33.1008 23.4076 33.1008Z" stroke="#151616" stroke-width="2.61148" stroke-miterlimit="10"/>
</svg>
