<svg width="46" height="46" viewBox="0 0 46 46" fill="none" xmlns="http://www.w3.org/2000/svg">
    <path d="M22.8781 10.8121C29.722 10.8121 35.2601 16.3503 35.2601 23.1941C35.2601 30.038 29.722 35.5761 22.8781 35.5761C16.0342 35.5761 10.4961 30.038 10.4961 23.1941C10.4961 16.3503 16.0342 10.8121 22.8781 10.8121Z" fill="#FFBC0A"/>
    <path d="M22.9681 32.2445C27.9663 32.2445 32.0182 28.1926 32.0182 23.1943C32.0182 18.1961 27.9663 14.1442 22.9681 14.1442C17.9698 14.1442 13.918 18.1961 13.918 23.1943C13.918 28.1926 17.9698 32.2445 22.9681 32.2445Z" stroke="#151616" stroke-width="2.61148" stroke-miterlimit="10"/>
    <path d="M22.968 26.2564C24.6589 26.2564 26.0297 24.8856 26.0297 23.1947C26.0297 21.5037 24.6589 20.1329 22.968 20.1329C21.277 20.1329 19.9062 21.5037 19.9062 23.1947C19.9062 24.8856 21.277 26.2564 22.968 26.2564Z" stroke="#151616" stroke-width="2.61148" stroke-miterlimit="10"/>
    <path d="M22.9687 33.55C15.2243 33.55 9.23591 30.5333 4.10301 24.0046L3.47266 23.1942L4.10301 22.3837C9.23591 15.9 15.2243 12.8383 22.9687 12.8383C30.7131 12.8383 36.7014 15.855 41.8343 22.3837L42.4647 23.1942L41.8343 24.0046C36.7014 30.4883 30.7131 33.55 22.9687 33.55ZM6.84957 23.1942C11.2621 28.4621 16.44 30.9385 22.9687 30.9385C29.4974 30.9385 34.6753 28.4621 39.0878 23.1942C34.6753 17.9262 29.4974 15.4498 22.9687 15.4498C16.44 15.4498 11.2621 17.9262 6.84957 23.1942Z" fill="#151616"/>
    <path d="M14.9091 2.84259H2.61719V15.1345" stroke="#151616" stroke-width="2.61148" stroke-miterlimit="10"/>
    <path d="M43.3643 15.1345V2.84259H31.0273" stroke="#151616" stroke-width="2.61148" stroke-miterlimit="10"/>
    <path d="M31.0273 43.5905H43.3643V31.2535" stroke="#151616" stroke-width="2.61148" stroke-miterlimit="10"/>
    <path d="M2.61719 31.2535V43.5905H14.9091" stroke="#151616" stroke-width="2.61148" stroke-miterlimit="10"/>
</svg>
