<svg width="109" height="98" viewBox="0 0 109 98" fill="none" xmlns="http://www.w3.org/2000/svg">
    <g clip-path="url(#clip0_6646_60119)">
        <path d="M17.8427 76.3828C27.5115 76.3828 35.3496 68.5447 35.3496 58.8759C35.3496 49.2072 27.5115 41.3691 17.8427 41.3691C8.174 41.3691 0.335938 49.2072 0.335938 58.8759C0.335938 68.5447 8.174 76.3828 17.8427 76.3828Z" fill="#EA8C00"/>
        <path d="M90.5654 76.3828C100.234 76.3828 108.072 68.5447 108.072 58.8759C108.072 49.2072 100.234 41.3691 90.5654 41.3691C80.8967 41.3691 73.0586 49.2072 73.0586 58.8759C73.0586 68.5447 80.8967 76.3828 90.5654 76.3828Z" fill="#EA8C00"/>
        <path d="M54.2021 97.2025C63.8709 97.2025 71.7089 89.3644 71.7089 79.6957C71.7089 70.0269 63.8709 62.1888 54.2021 62.1888C44.5334 62.1888 36.6953 70.0269 36.6953 79.6957C36.6953 89.3644 44.5334 97.2025 54.2021 97.2025Z" fill="#EA8C00"/>
        <path d="M70.777 11.2039C69.3638 7.65029 66.8151 4.66375 63.5278 2.70945C60.2405 0.755142 56.3992 -0.0572145 52.6022 0.398897C48.8052 0.855009 45.2655 2.55398 42.5346 5.23121C39.8037 7.90844 38.0348 11.4136 37.5033 15.2009C37.1902 15.1685 36.8755 15.1523 36.5607 15.1524C35.2435 15.1216 33.9336 15.3545 32.7077 15.8373C31.4819 16.3201 30.3649 17.0431 29.4225 17.9637C28.4801 18.8844 27.7312 19.9842 27.22 21.1984C26.7087 22.4126 26.4453 23.7168 26.4453 25.0343C26.4453 26.3518 26.7087 27.656 27.22 28.8702C27.7312 30.0844 28.4801 31.1842 29.4225 32.1049C30.3649 33.0256 31.4819 33.7485 32.7077 34.2313C33.9336 34.7141 35.2435 34.947 36.5607 34.9162H69.8775C73.0205 35.0355 76.0822 33.9014 78.389 31.7633C80.6958 29.6252 82.0587 26.6583 82.178 23.5153C82.2973 20.3722 81.1632 17.3106 79.0251 15.0038C76.887 12.697 73.9201 11.334 70.777 11.2147V11.2039Z" fill="#FFBC0A"/>
        <path d="M52.5274 27.2181C52.5284 26.887 52.6276 26.5636 52.8123 26.2888C52.997 26.0141 53.259 25.8002 53.5652 25.6742C53.8715 25.5482 54.2081 25.5158 54.5327 25.5811C54.8574 25.6463 55.1554 25.8063 55.3891 26.0408C55.6229 26.2753 55.7819 26.5738 55.8461 26.8986C55.9103 27.2235 55.8768 27.56 55.7498 27.8658C55.6229 28.1716 55.4082 28.4329 55.1328 28.6168C54.8574 28.8006 54.5337 28.8988 54.2026 28.8988C53.9822 28.8988 53.7639 28.8552 53.5603 28.7707C53.3567 28.6862 53.1718 28.5623 53.0161 28.4062C52.8605 28.25 52.7372 28.0647 52.6533 27.8609C52.5695 27.657 52.5266 27.4386 52.5274 27.2181Z" fill="white"/>
        <path d="M45.3896 18.4109C46.5456 17.2513 47.9191 16.3312 49.4314 15.7034C50.9436 15.0756 52.5649 14.7524 54.2023 14.7524C55.8397 14.7524 57.461 15.0756 58.9732 15.7034C60.4855 16.3312 61.859 17.2513 63.015 18.4109L64.3616 17.0589C63.029 15.722 61.4456 14.6613 59.7023 13.9376C57.959 13.2139 56.0899 12.8413 54.2023 12.8413C52.3147 12.8413 50.4457 13.2139 48.7023 13.9376C46.959 14.6613 45.3756 15.722 44.043 17.0589L45.3896 18.4109Z" fill="white"/>
        <path d="M54.2013 16.8917C52.8453 16.8907 51.5024 17.1576 50.2498 17.6771C48.9972 18.1967 47.8596 18.9586 46.9023 19.9191L48.276 21.2496C49.0574 20.4675 49.9853 19.847 51.0066 19.4237C52.0279 19.0004 53.1227 18.7825 54.2283 18.7825C55.3339 18.7825 56.4286 19.0004 57.4499 19.4237C58.4713 19.847 59.3992 20.4675 60.1806 21.2496L61.5273 19.9029C60.5655 18.9421 59.4229 18.1813 58.1655 17.6645C56.9081 17.1477 55.5608 16.885 54.2013 16.8917Z" fill="white"/>
        <path d="M54.2039 21.137C53.4035 21.1354 52.6107 21.2922 51.8712 21.5982C51.1316 21.9042 50.4598 22.3534 49.8945 22.92L51.2412 24.2667C51.6293 23.8758 52.0908 23.5655 52.5993 23.3538C53.1078 23.1421 53.6531 23.0331 54.2039 23.0331C54.7547 23.0331 55.3 23.1421 55.8085 23.3538C56.317 23.5655 56.7785 23.8758 57.1666 24.2667L58.5133 22.92C57.948 22.3534 57.2762 21.9042 56.5366 21.5982C55.7971 21.2922 55.0043 21.1354 54.2039 21.137Z" fill="white"/>
        <path d="M42.6305 82.6044V72.0141C42.6305 71.7284 42.744 71.4544 42.946 71.2523C43.148 71.0503 43.4221 70.9368 43.7078 70.9368H54.2927C54.5784 70.9368 54.8524 71.0503 55.0545 71.2523C55.2565 71.4544 55.37 71.7284 55.37 72.0141V82.6044C55.37 82.6987 55.3326 82.7891 55.2659 82.8558C55.1992 82.9224 55.1088 82.9599 55.0145 82.9599H42.986C42.8921 82.9585 42.8025 82.9206 42.7361 82.8542C42.6698 82.7879 42.6318 82.6982 42.6305 82.6044ZM51.1792 86.2296C51.1802 86.6677 51.0513 87.0963 50.8087 87.4611C50.5661 87.8259 50.2207 88.1105 49.8162 88.2789C49.4118 88.4473 48.9664 88.4919 48.5366 88.4071C48.1068 88.3223 47.7118 88.1118 47.4017 87.8024C47.0915 87.493 46.8801 87.0985 46.7942 86.6689C46.7084 86.2393 46.7519 85.7939 46.9193 85.389C47.0867 84.9842 47.3705 84.6381 47.7347 84.3946C48.0989 84.1511 48.5271 84.0211 48.9652 84.0211C49.2557 84.0204 49.5435 84.077 49.8121 84.1877C50.0806 84.2983 50.3247 84.4609 50.5304 84.666C50.7361 84.8712 50.8992 85.1149 51.0105 85.3832C51.1219 85.6515 51.1792 85.9392 51.1792 86.2296ZM50.1018 86.2296C50.1029 86.0099 50.0387 85.7949 49.9174 85.6117C49.7962 85.4285 49.6232 85.2854 49.4206 85.2006C49.2179 85.1158 48.9946 85.0931 48.779 85.1353C48.5634 85.1775 48.3652 85.2827 48.2094 85.4377C48.0537 85.5927 47.9475 85.7904 47.9042 86.0058C47.861 86.2212 47.8826 86.4446 47.9665 86.6476C48.0503 86.8507 48.1925 87.0243 48.3751 87.1465C48.5577 87.2687 48.7725 87.3339 48.9922 87.3339C49.2813 87.3283 49.5567 87.2094 49.7591 87.003C49.9616 86.7965 50.0749 86.5188 50.0749 86.2296H50.1018ZM47.0907 84.0211H42.1133C42.0195 84.0225 41.9299 84.0604 41.8635 84.1268C41.7971 84.1931 41.7592 84.2828 41.7578 84.3766V85.454C41.7592 85.5478 41.7971 85.6374 41.8635 85.7038C41.9299 85.7702 42.0195 85.8081 42.1133 85.8095H46.0833C46.1845 85.1149 46.5326 84.48 47.0637 84.0211H47.0907ZM62.766 86.2296C62.767 86.668 62.638 87.0968 62.3951 87.4617C62.1523 87.8266 61.8065 88.1112 61.4018 88.2794C60.997 88.4476 60.5514 88.4919 60.1215 88.4067C59.6915 88.3214 59.2965 88.1105 58.9866 87.8005C58.6766 87.4906 58.4656 87.0956 58.3804 86.6656C58.2951 86.2357 58.3394 85.7901 58.5077 85.3853C58.6759 84.9805 58.9605 84.6348 59.3254 84.392C59.6903 84.1491 60.1191 84.02 60.5574 84.0211C61.1385 84.0282 61.6934 84.264 62.1017 84.6774C62.5101 85.0908 62.7391 85.6485 62.739 86.2296H62.766ZM61.6886 86.2296C61.6896 86.0086 61.6246 85.7923 61.5018 85.6084C61.379 85.4246 61.2041 85.2816 60.9996 85.1979C60.795 85.1141 60.5701 85.0933 60.3536 85.1382C60.1372 85.1831 59.9391 85.2916 59.7847 85.4498C59.6303 85.608 59.5268 85.8088 59.4872 86.0263C59.4477 86.2438 59.474 86.4681 59.5628 86.6705C59.6516 86.873 59.7989 87.0443 59.9857 87.1625C60.1725 87.2806 60.3903 87.3403 60.6113 87.3339C60.8899 87.3135 61.1505 87.1882 61.3404 86.9832C61.5303 86.7783 61.6355 86.509 61.6348 86.2296H61.6886ZM66.6983 84.3766V85.454C66.6969 85.5478 66.659 85.6374 66.5926 85.7038C66.5262 85.7702 66.4366 85.8081 66.3428 85.8095H63.4124C63.3127 85.1155 62.9661 84.4808 62.4363 84.0216C61.9065 83.5625 61.2289 83.3097 60.5278 83.3097C59.8267 83.3097 59.1491 83.5625 58.6193 84.0216C58.0895 84.4808 57.7429 85.1155 57.6432 85.8095H51.8525C51.7513 85.1149 51.4033 84.48 50.8721 84.0211H56.3558V73.8617C56.3572 73.6741 56.4328 73.4946 56.566 73.3624C56.6991 73.2303 56.8792 73.1561 57.0668 73.1561H60.4174C60.882 73.1563 61.3395 73.2703 61.7498 73.4882C62.1602 73.706 62.5109 74.0211 62.7714 74.4058L64.9261 77.6055C65.2444 78.0744 65.4151 78.6278 65.4162 79.1946V84.0426H66.2781C66.3703 84.041 66.4596 84.0747 66.5277 84.1368C66.5958 84.1989 66.6376 84.2847 66.6444 84.3766H66.6983ZM63.0946 77.6863L61.3654 75.23C61.3326 75.1833 61.289 75.1453 61.2384 75.1191C61.1878 75.0928 61.1316 75.0791 61.0746 75.0791H58.3812C58.2873 75.0805 58.1977 75.1184 58.1313 75.1848C58.065 75.2512 58.0271 75.3408 58.0257 75.4347V77.891C58.0257 77.9853 58.0631 78.0757 58.1298 78.1424C58.1965 78.2091 58.2869 78.2465 58.3812 78.2465H62.8037C62.8642 78.2377 62.9215 78.2135 62.9699 78.1761C63.0183 78.1388 63.0562 78.0895 63.0801 78.0332C63.1039 77.9769 63.1128 77.9154 63.1059 77.8546C63.099 77.7938 63.0766 77.7359 63.0407 77.6863H63.0946Z" fill="white"/>
        <path d="M94.3763 69.649H85.8491C85.6705 69.649 85.4993 69.5781 85.373 69.4518C85.2467 69.3255 85.1758 69.1543 85.1758 68.9757V67.1765C85.1758 66.9979 85.2467 66.8267 85.373 66.7004C85.4993 66.5741 85.6705 66.5032 85.8491 66.5032H94.3763C94.5549 66.5032 94.7261 66.5741 94.8524 66.7004C94.9787 66.8267 95.0496 66.9979 95.0496 67.1765V68.9757C95.0496 69.1543 94.9787 69.3255 94.8524 69.4518C94.7261 69.5781 94.5549 69.649 94.3763 69.649Z" fill="white"/>
        <path d="M90.1167 63.1364C89.2242 63.1378 88.3687 63.4929 87.7377 64.124C87.1066 64.7551 86.7514 65.6106 86.75 66.503V67.1764C86.75 67.355 86.8209 67.5262 86.9472 67.6525C87.0735 67.7788 87.2448 67.8497 87.4233 67.8497H92.81C92.9886 67.8497 93.1599 67.7788 93.2862 67.6525C93.4124 67.5262 93.4834 67.355 93.4834 67.1764V66.4977C93.4791 65.6066 93.1229 64.7533 92.4923 64.1237C91.8617 63.4941 91.0078 63.1392 90.1167 63.1364Z" fill="white"/>
        <path d="M92.8113 65.4914C92.6782 65.4917 92.5481 65.4525 92.4373 65.3789C92.3266 65.3053 92.2401 65.2004 92.1888 65.0777C92.1375 64.955 92.1237 64.8198 92.1492 64.6892C92.1746 64.5587 92.2382 64.4386 92.3319 64.3441L97.0237 59.6523C97.1516 59.5372 97.3188 59.4755 97.4908 59.4798C97.6628 59.4841 97.8266 59.5542 97.9487 59.6755C98.0707 59.7968 98.1416 59.9602 98.1469 60.1322C98.1522 60.3042 98.0914 60.4717 97.9771 60.6003L93.2853 65.2921C93.2239 65.3558 93.1503 65.4063 93.0688 65.4405C92.9873 65.4748 92.8997 65.4921 92.8113 65.4914Z" fill="white"/>
        <path d="M90.0613 64.4289C89.9282 64.4292 89.7981 64.39 89.6873 64.3164C89.5766 64.2427 89.4901 64.1379 89.4388 64.0152C89.3875 63.8925 89.3737 63.7573 89.3992 63.6267C89.4246 63.4961 89.4882 63.376 89.5818 63.2816L94.8608 58.0026C94.9217 57.9341 94.9959 57.8788 95.0788 57.84C95.1618 57.8012 95.2518 57.7797 95.3434 57.7769C95.4349 57.7741 95.5261 57.79 95.6113 57.8236C95.6965 57.8572 95.7739 57.9079 95.8388 57.9725C95.9038 58.0371 95.9549 58.1142 95.989 58.1992C96.0231 58.2842 96.0395 58.3753 96.0372 58.4669C96.0349 58.5584 96.0139 58.6486 95.9756 58.7317C95.9373 58.8149 95.8824 58.8894 95.8143 58.9506L90.5353 64.2296C90.4739 64.2933 90.4003 64.3437 90.3188 64.378C90.2373 64.4123 90.1497 64.4296 90.0613 64.4289Z" fill="white"/>
        <path d="M91.2386 54.8356H86.7515C86.5729 54.8356 86.4016 54.7647 86.2753 54.6384C86.1491 54.5121 86.0781 54.3409 86.0781 54.1623V51.916C86.0781 51.7374 86.1491 51.5662 86.2753 51.4399C86.4016 51.3136 86.5729 51.2427 86.7515 51.2427H91.3248C91.5034 51.2427 91.6746 51.3136 91.8009 51.4399C91.9272 51.5662 91.9981 51.7374 91.9981 51.916C91.9981 52.0946 91.9272 52.2659 91.8009 52.3921C91.6746 52.5184 91.5034 52.5894 91.3248 52.5894H87.4248V53.4889H91.2386C91.4172 53.4889 91.5884 53.5599 91.7147 53.6862C91.841 53.8124 91.9119 53.9837 91.9119 54.1623C91.9119 54.3409 91.841 54.5121 91.7147 54.6384C91.5884 54.7647 91.4172 54.8356 91.2386 54.8356Z" fill="white"/>
        <path d="M86.7477 50.796H84.5015C84.3229 50.796 84.1516 50.867 84.0253 50.9932C83.8991 51.1195 83.8281 51.2908 83.8281 51.4694V54.6098C83.8281 54.7884 83.8991 54.9597 84.0253 55.0859C84.1516 55.2122 84.3229 55.2832 84.5015 55.2832H86.7477C86.9263 55.2832 87.0976 55.2122 87.2238 55.0859C87.3501 54.9597 87.4211 54.7884 87.4211 54.6098V51.4694C87.4211 51.2908 87.3501 51.1195 87.2238 50.9932C87.0976 50.867 86.9263 50.796 86.7477 50.796Z" fill="white"/>
        <path d="M85.6235 52.1423C85.445 52.1423 85.2737 52.0714 85.1474 51.9451C85.0211 51.8188 84.9502 51.6476 84.9502 51.469V50.731L82.9463 49.5621L80.824 50.9142C80.6778 50.9776 80.5138 50.987 80.3613 50.9409C80.2087 50.8948 80.0775 50.7961 79.9909 50.6623C79.9043 50.5285 79.868 50.3684 79.8883 50.2103C79.9087 50.0523 79.9845 49.9066 80.1022 49.7991L82.5693 48.1831C82.6746 48.1183 82.7958 48.084 82.9194 48.084C83.043 48.084 83.1643 48.1183 83.2695 48.1831L85.9629 49.7506C86.0646 49.81 86.1489 49.8949 86.2075 49.997C86.2661 50.099 86.2969 50.2147 86.2969 50.3324V51.469C86.2969 51.6476 86.2259 51.8188 86.0997 51.9451C85.9734 52.0714 85.8021 52.1423 85.6235 52.1423Z" fill="white"/>
        <path d="M82.9303 57.9762C82.8023 57.9748 82.6773 57.9374 82.5694 57.8685L80.1023 56.3009C79.9553 56.2035 79.8523 56.0524 79.8156 55.8799C79.7788 55.7074 79.8112 55.5274 79.9057 55.3786C80.0003 55.2297 80.1494 55.1239 80.3212 55.0838C80.4929 55.0438 80.6735 55.0727 80.8241 55.1643L82.9465 56.511L84.9504 55.3421V54.6095C84.9504 54.4309 85.0213 54.2597 85.1476 54.1334C85.2738 54.0071 85.4451 53.9362 85.6237 53.9362C85.8023 53.9362 85.9735 54.0071 86.0998 54.1334C86.2261 54.2597 86.297 54.4309 86.297 54.6095V55.7245C86.2982 55.8425 86.2678 55.9585 86.2091 56.0608C86.1504 56.1631 86.0655 56.2478 85.9631 56.3063L83.2912 57.8792C83.1823 57.9444 83.0573 57.978 82.9303 57.9762Z" fill="white"/>
        <path d="M100.382 55.1324L96.0999 50.8231C95.7989 50.5221 95.4416 50.2833 95.0483 50.1204C94.655 49.9575 94.2335 49.8737 93.8078 49.8737C93.3822 49.8737 92.9607 49.9575 92.5674 50.1204C92.1741 50.2833 91.8168 50.5221 91.5158 50.8231C91.2148 51.1241 90.976 51.4814 90.8131 51.8747C90.6502 52.2679 90.5664 52.6894 90.5664 53.1151C90.5664 53.5408 90.6502 53.9623 90.8131 54.3555C90.976 54.7488 91.2148 55.1062 91.5158 55.4071L95.7982 59.7165C96.0992 60.0175 96.4566 60.2563 96.8498 60.4192C97.2431 60.5821 97.6646 60.6659 98.0903 60.6659C98.516 60.6659 98.9375 60.5821 99.3307 60.4192C99.724 60.2563 100.081 60.0175 100.382 59.7165C100.683 59.4155 100.922 59.0582 101.085 58.6649C101.248 58.2716 101.332 57.8501 101.332 57.4245C101.332 56.9988 101.248 56.5773 101.085 56.184C100.922 55.7908 100.683 55.4334 100.382 55.1324ZM93.7028 53.9366C93.5251 53.9366 93.3514 53.8839 93.2036 53.7853C93.0558 53.6867 92.9405 53.5465 92.8722 53.3825C92.804 53.2184 92.7859 53.0378 92.8201 52.8635C92.8544 52.6891 92.9396 52.5288 93.0648 52.4028C93.1901 52.2768 93.3499 52.1907 93.524 52.1554C93.6982 52.12 93.8789 52.1371 94.0433 52.2044C94.2078 52.2716 94.3487 52.3861 94.4482 52.5333C94.5477 52.6805 94.6013 52.8539 94.6024 53.0316C94.6038 53.1504 94.5816 53.2683 94.5369 53.3784C94.4923 53.4885 94.4262 53.5885 94.3424 53.6728C94.2587 53.757 94.159 53.8238 94.0492 53.8691C93.9393 53.9143 93.8216 53.9373 93.7028 53.9366ZM98.1953 58.4237C98.0169 58.4248 97.8423 58.3728 97.6935 58.2743C97.5448 58.1759 97.4286 58.0355 97.3599 57.8709C97.2911 57.7063 97.2729 57.525 97.3074 57.35C97.3419 57.175 97.4277 57.0142 97.5539 56.888C97.68 56.7619 97.8408 56.6761 98.0158 56.6416C98.1908 56.607 98.3721 56.6253 98.5367 56.6941C98.7013 56.7628 98.8417 56.879 98.9402 57.0277C99.0386 57.1765 99.0906 57.3511 99.0895 57.5295C99.0881 57.7657 98.9933 57.9918 98.8257 58.1583C98.6582 58.3249 98.4315 58.4183 98.1953 58.4183V58.4237Z" fill="white"/>
        <path d="M25.7175 63.4489H9.96678C9.29089 63.4795 8.65283 63.7695 8.18537 64.2586C7.7179 64.7478 7.45703 65.3983 7.45703 66.0749C7.45703 66.7515 7.7179 67.402 8.18537 67.8911C8.65283 68.3802 9.29089 68.6703 9.96678 68.7009H25.7175C26.3934 68.6703 27.0315 68.3802 27.4989 67.8911C27.9664 67.402 28.2273 66.7515 28.2273 66.0749C28.2273 65.3983 27.9664 64.7478 27.4989 64.2586C27.0315 63.7695 26.3934 63.4795 25.7175 63.4489ZM9.96678 66.9502C9.79289 66.9502 9.62292 66.8986 9.47842 66.8019C9.33391 66.7051 9.22138 66.5677 9.15508 66.4069C9.08879 66.2462 9.07171 66.0694 9.10603 65.8989C9.14035 65.7284 9.22451 65.572 9.34785 65.4494C9.47118 65.3268 9.62813 65.2436 9.79881 65.2104C9.96948 65.1771 10.1462 65.1953 10.3065 65.2625C10.4669 65.3298 10.6036 65.4432 10.6995 65.5883C10.7953 65.7334 10.8459 65.9037 10.8448 66.0776C10.8434 66.3095 10.7503 66.5315 10.5857 66.695C10.4212 66.8585 10.1987 66.9502 9.96678 66.9502ZM15.2188 66.9502C15.0447 66.9513 14.8742 66.9006 14.729 66.8045C14.5838 66.7084 14.4704 66.5713 14.4033 66.4107C14.3362 66.25 14.3183 66.073 14.352 65.9022C14.3857 65.7314 14.4695 65.5745 14.5926 65.4513C14.7157 65.3282 14.8727 65.2445 15.0435 65.2108C15.2143 65.1771 15.3913 65.1949 15.5519 65.262C15.7126 65.3292 15.8497 65.4425 15.9457 65.5877C16.0418 65.733 16.0925 65.9035 16.0915 66.0776C16.0901 66.3086 15.9977 66.5297 15.8343 66.6931C15.671 66.8564 15.4498 66.9488 15.2188 66.9502ZM20.4655 66.9502C20.2916 66.9502 20.1216 66.8986 19.9771 66.8019C19.8326 66.7051 19.7201 66.5677 19.6538 66.4069C19.5875 66.2462 19.5704 66.0694 19.6047 65.8989C19.639 65.7284 19.7232 65.572 19.8465 65.4494C19.9699 65.3268 20.1268 65.2436 20.2975 65.2104C20.4682 65.1771 20.6449 65.1953 20.8052 65.2625C20.9656 65.3298 21.1023 65.4432 21.1982 65.5883C21.294 65.7334 21.3446 65.9037 21.3435 66.0776C21.3421 66.3095 21.249 66.5315 21.0844 66.695C20.9199 66.8585 20.6974 66.9502 20.4655 66.9502ZM25.7175 66.9502C25.5434 66.9513 25.3729 66.9006 25.2277 66.8045C25.0825 66.7084 24.9691 66.5713 24.902 66.4107C24.8349 66.25 24.817 66.073 24.8507 65.9022C24.8844 65.7314 24.9682 65.5745 25.0913 65.4513C25.2144 65.3282 25.3714 65.2445 25.5422 65.2108C25.713 65.1771 25.89 65.1949 26.0506 65.262C26.2113 65.3292 26.3484 65.4425 26.4444 65.5877C26.5405 65.733 26.5912 65.9035 26.5902 66.0776C26.5888 66.3086 26.4964 66.5297 26.333 66.6931C26.1697 66.8564 25.9485 66.9488 25.7175 66.9502Z" fill="white"/>
        <path d="M14.5633 58.3372H11.4982C11.3249 58.3357 11.1591 58.2659 11.037 58.1428C10.9149 58.0197 10.8464 57.8534 10.8464 57.68V55.493C10.8382 55.402 10.849 55.3104 10.8781 55.2238C10.9072 55.1373 10.9541 55.0578 11.0157 54.9904C11.0773 54.9229 11.1522 54.8691 11.2358 54.8322C11.3193 54.7954 11.4096 54.7764 11.5009 54.7764C11.5922 54.7764 11.6826 54.7954 11.7661 54.8322C11.8497 54.8691 11.9246 54.9229 11.9862 54.9904C12.0478 55.0578 12.0946 55.1373 12.1238 55.2238C12.1529 55.3104 12.1637 55.402 12.1554 55.493V57.0228H13.9061V55.493C13.9061 55.3187 13.9753 55.1515 14.0986 55.0283C14.2218 54.905 14.389 54.8358 14.5633 54.8358C14.7376 54.8358 14.9047 54.905 15.028 55.0283C15.1512 55.1515 15.2205 55.3187 15.2205 55.493V57.68C15.2205 57.8543 15.1512 58.0214 15.028 58.1447C14.9047 58.2679 14.7376 58.3372 14.5633 58.3372Z" fill="white"/>
        <path d="M21.1226 55.1853H14.9979C14.9069 55.1936 14.8153 55.1828 14.7287 55.1537C14.6422 55.1245 14.5627 55.0777 14.4952 55.0161C14.4278 54.9545 14.374 54.8796 14.3371 54.796C14.3003 54.7125 14.2813 54.6222 14.2812 54.5308C14.2813 54.4395 14.3003 54.3492 14.3371 54.2657C14.374 54.1821 14.4278 54.1072 14.4952 54.0456C14.5627 53.984 14.6422 53.9371 14.7287 53.908C14.8153 53.8789 14.9069 53.8681 14.9979 53.8764H21.1226C21.2135 53.8681 21.3052 53.8789 21.3917 53.908C21.4782 53.9371 21.5578 53.984 21.6252 54.0456C21.6926 54.1072 21.7465 54.1821 21.7833 54.2657C21.8201 54.3492 21.8392 54.4395 21.8392 54.5308C21.8392 54.6222 21.8201 54.7125 21.7833 54.796C21.7465 54.8796 21.6926 54.9545 21.6252 55.0161C21.5578 55.0777 21.4782 55.1245 21.3917 55.1537C21.3052 55.1828 21.2135 55.1936 21.1226 55.1853Z" fill="white"/>
        <path d="M21.1217 52.1104H14.997C14.8227 52.1104 14.6556 52.0411 14.5323 51.9179C14.4091 51.7947 14.3398 51.6275 14.3398 51.4532C14.3398 51.2789 14.4091 51.1117 14.5323 50.9885C14.6556 50.8653 14.8227 50.796 14.997 50.796H21.1217C21.296 50.796 21.4632 50.8653 21.5864 50.9885C21.7097 51.1117 21.7789 51.2789 21.7789 51.4532C21.7789 51.6275 21.7097 51.7947 21.5864 51.9179C21.4632 52.0411 21.296 52.1104 21.1217 52.1104Z" fill="white"/>
        <path d="M13.0323 56.0432C14.7221 56.0432 16.092 54.6734 16.092 52.9836C16.092 51.2938 14.7221 49.924 13.0323 49.924C11.3425 49.924 9.97266 51.2938 9.97266 52.9836C9.97266 54.6734 11.3425 56.0432 13.0323 56.0432Z" fill="white"/>
        <path d="M24.405 49.0446C23.6264 49.0456 22.8656 49.2775 22.2188 49.7108C21.5719 50.1441 21.0681 50.7595 20.7709 51.4791C20.4736 52.1987 20.3964 52.9903 20.549 53.7537C20.7015 54.5172 21.077 55.2183 21.6279 55.7685C22.1788 56.3187 22.8804 56.6932 23.6441 56.8447C24.4078 56.9962 25.1993 56.9179 25.9185 56.6197C26.6377 56.3215 27.2523 55.8168 27.6848 55.1693C28.1172 54.5219 28.348 53.7608 28.348 52.9822C28.3466 51.9374 27.9305 50.9359 27.1912 50.1975C26.4519 49.4592 25.4498 49.0446 24.405 49.0446ZM24.405 54.5175C24.1011 54.5185 23.8037 54.4294 23.5506 54.2613C23.2974 54.0933 23.0998 53.8539 22.9828 53.5735C22.8657 53.2931 22.8346 52.9842 22.8932 52.6861C22.9518 52.3879 23.0976 52.1138 23.3121 51.8986C23.5266 51.6834 23.8001 51.5366 24.0981 51.4769C24.396 51.4173 24.705 51.4473 24.9858 51.5634C25.2667 51.6794 25.5067 51.8762 25.6757 52.1288C25.8446 52.3813 25.9348 52.6784 25.9348 52.9822C25.9348 53.3885 25.7738 53.7781 25.487 54.0659C25.2003 54.3537 24.8112 54.516 24.405 54.5175Z" fill="white"/>
        <path d="M13.0322 60.6218C12.9461 60.6225 12.8608 60.6062 12.7811 60.5737C12.7014 60.5413 12.6289 60.4934 12.5678 60.4328C12.5067 60.3722 12.4582 60.3001 12.4251 60.2207C12.392 60.1412 12.375 60.056 12.375 59.97V58.2193C12.375 58.045 12.4442 57.8779 12.5675 57.7546C12.6907 57.6314 12.8579 57.5621 13.0322 57.5621C13.2065 57.5621 13.3736 57.6314 13.4969 57.7546C13.6201 57.8779 13.6894 58.045 13.6894 58.2193V59.97C13.6879 60.1433 13.6181 60.3091 13.495 60.4312C13.3719 60.5533 13.2055 60.6218 13.0322 60.6218Z" fill="white"/>
        <path d="M33.9152 40.4159L28.4531 48.9377" stroke="#FFBC0A" stroke-width="1.12582" stroke-miterlimit="10"/>
        <path d="M34.2933 42.5543C35.8403 42.5543 37.0944 41.3002 37.0944 39.7532C37.0944 38.2062 35.8403 36.9521 34.2933 36.9521C32.7463 36.9521 31.4922 38.2062 31.4922 39.7532C31.4922 41.3002 32.7463 42.5543 34.2933 42.5543Z" fill="#FFBC0A"/>
        <path d="M74.4883 40.4159L79.9504 48.9377" stroke="#FFBC0A" stroke-width="1.12582" stroke-miterlimit="10"/>
        <path d="M74.1136 42.5543C75.6606 42.5543 76.9147 41.3002 76.9147 39.7532C76.9147 38.2062 75.6606 36.9521 74.1136 36.9521C72.5666 36.9521 71.3125 38.2062 71.3125 39.7532C71.3125 41.3002 72.5666 42.5543 74.1136 42.5543Z" fill="#FFBC0A"/>
        <path d="M54.5547 39.7528V64.0577" stroke="#FFBC0A" stroke-width="1.12582" stroke-miterlimit="10"/>
        <path d="M54.555 42.5543C56.102 42.5543 57.3561 41.3002 57.3561 39.7532C57.3561 38.2062 56.102 36.9521 54.555 36.9521C53.008 36.9521 51.7539 38.2062 51.7539 39.7532C51.7539 41.3002 53.008 42.5543 54.555 42.5543Z" fill="#FFBC0A"/>
    </g>
    <defs>
        <clipPath id="clip0_6646_60119">
            <rect width="107.734" height="96.9608" fill="white" transform="translate(0.335938 0.241699)"/>
        </clipPath>
    </defs>
</svg>
