<svg width="109" height="98" viewBox="0 0 109 98" fill="none" xmlns="http://www.w3.org/2000/svg">
    <g clip-path="url(#clip0_6646_59956)">
        <path d="M26.5122 52.2479V49.1196C26.5122 43.1865 21.9276 38.0085 15.9945 37.7388C9.89962 37.5231 4.72167 42.2156 4.39804 48.3105C4.39804 48.4723 4.39804 48.6341 4.39804 48.8499V52.3018C4.39804 58.0192 3.42718 61.3633 2.94174 62.7117C2.77993 63.0892 2.99568 63.5207 3.3193 63.7365C4.99135 64.6534 9.62994 66.9727 13.7291 67.62H17.1272C21.2264 66.9188 25.865 64.6534 27.537 63.7365C27.9146 63.5207 28.0764 63.0892 27.9146 62.7117C27.4831 61.3633 26.5122 58.0192 26.5122 52.2479Z" fill="#444444"/>
        <path d="M19.7174 61.6328H11.1953V72.6899H19.7174V61.6328Z" fill="#FDCDA5"/>
        <path d="M27.7526 69.616L23.2219 67.6204L17.1809 70.1554L16.2101 71.6656C15.9404 72.0432 15.401 72.1511 15.0234 71.8814C14.9156 71.8275 14.8616 71.7196 14.8077 71.6656L13.8368 70.1554L7.84982 67.6204L3.31911 69.616C1.43132 70.479 0.244702 72.3668 0.298639 74.4164L0.730136 90.5975H30.3955L30.827 74.4164C30.827 72.3668 29.6404 70.479 27.7526 69.616Z" fill="#9AD9FC"/>
        <path d="M5.90927 76.1423L1.64825 70.8025C0.731319 71.7734 0.191949 73.1218 0.245886 74.4702L0.677382 90.6513H5.90927V76.1423Z" fill="#70BEF2"/>
        <path d="M25.1094 76.1423L29.3704 70.8025C30.2873 71.7734 30.8267 73.1218 30.7728 74.4702L30.3413 90.6513H25.1094V76.1423Z" fill="#70BEF2"/>
        <path d="M11.1953 64.1139C13.8922 65.3545 17.0205 65.3545 19.7174 64.1139V61.6328H11.1953V64.1139Z" fill="#E8AB7F"/>
        <path d="M23.5461 57.5333C23.7618 56.8321 23.8697 56.131 23.9236 55.4298C24.0315 50.5215 17.1815 51.7081 11.5721 47.9865C11.1945 47.7168 10.6551 47.8247 10.3854 48.2022C9.68427 49.227 8.82127 50.1979 7.90434 51.0609C7.58072 51.3306 7.20316 51.4924 6.77167 51.4924H6.07049C5.96261 51.4924 5.85474 51.4924 5.8008 51.4924C4.99174 51.7081 4.39844 52.4633 4.39844 53.2723V53.9196C4.39844 54.7286 4.93781 55.4837 5.69293 55.6995C5.85474 55.7534 6.01655 55.7534 6.2323 55.7534C6.66379 55.6995 7.04135 56.0231 7.09529 56.4546C7.95828 61.0392 12.4351 64.1137 17.0197 63.2507C19.8244 62.7113 22.1977 60.8235 23.2764 58.1806C23.3843 57.9648 23.4921 57.5873 23.5461 57.5333Z" fill="#FDCDA5"/>
        <path d="M9.46967 70.9096L7.85156 67.6194L9.73936 66.0553C10.1169 65.7316 10.6563 65.7856 10.926 66.1631L10.9799 66.2171L13.8386 70.2084L12.0587 71.5568C11.3035 72.1502 10.2248 71.9883 9.68542 71.2332C9.57755 71.0714 9.46967 71.0175 9.46967 70.9096Z" fill="#70BEF2"/>
        <path d="M21.4939 70.9096L23.112 67.6194L21.2242 66.0553C20.8467 65.7316 20.3073 65.7856 20.0376 66.1631L19.9837 66.2171L17.125 70.2084L18.9049 71.5568C19.66 72.1502 20.7388 71.9883 21.2782 71.2332C21.386 71.0714 21.44 71.0175 21.4939 70.9096Z" fill="#70BEF2"/>
        <path d="M60.1139 59.583H48.0859V69.885H60.1139V59.583Z" fill="#B48764"/>
        <path d="M48.0859 62.8732C51.6997 65.4622 56.554 65.4622 60.1139 62.8732V59.637H48.0859V62.8732Z" fill="#966D50"/>
        <path d="M71.4966 90.5967L72.1438 73.6604C72.2517 71.449 70.9033 69.4533 68.8537 68.6443L61.0328 65.9474C60.7092 65.8396 60.3316 65.9474 60.1698 66.2711C58.3899 69.6152 54.2367 70.9096 50.8387 69.1297C49.5982 68.4825 48.6273 67.4577 47.9801 66.2711C47.8182 66.0014 47.4407 65.8396 47.1171 65.9474L39.2962 68.6443C37.2466 69.4533 35.8982 71.449 36.006 73.6604L36.7072 90.5967H71.4966Z" fill="#E9000E"/>
        <path d="M43.7706 77.6522L36.8127 70.7483C36.2733 71.6113 36.0036 72.6361 36.0576 73.6609L36.7587 90.5971H43.8245V77.6522H43.7706Z" fill="#370403"/>
        <path d="M64.4289 77.652L71.3868 70.6941C71.9262 71.5571 72.1959 72.5819 72.1419 73.6067L71.4408 90.5429H64.375V77.652H64.4289Z" fill="#370403"/>
        <path d="M63.5675 51.0067V48.4177C63.5675 43.1858 59.3065 38.9788 54.0746 38.9788C48.8427 38.9788 44.6356 43.2398 44.6356 48.4177V51.0067H44.5817C44.4738 51.0067 44.3659 51.0067 44.312 51.0067C43.449 51.2225 42.8557 51.9776 42.9096 52.8406V53.4878C42.9096 54.2969 43.449 55.052 44.2581 55.2677C44.4199 55.3217 44.5817 55.3217 44.7974 55.3217C45.2289 55.2677 45.6065 55.5914 45.7144 56.0229C46.5774 60.7154 51.0541 63.7898 55.6927 62.9268C59.1986 62.2796 61.9494 59.5288 62.5967 56.0229C62.6506 55.5914 63.0282 55.3217 63.4057 55.3217H63.5675C64.5384 55.3217 65.2935 54.5666 65.2935 53.5957V52.7327C65.2935 51.7618 64.5384 51.0067 63.5675 51.0067Z" fill="#C39772"/>
        <path d="M45.3359 66.5947C47.2777 71.449 52.7792 73.8222 57.6336 71.8805C60.0607 70.9096 61.9485 69.0218 62.9194 66.5947L61.0316 65.9474C60.708 65.8396 60.3304 65.9474 60.1686 66.2711C58.3887 69.6152 54.2355 70.9096 50.8375 69.1297C49.597 68.4825 48.6261 67.4577 47.9788 66.2711C47.817 66.0014 47.4395 65.8396 47.1159 65.9474L45.3359 66.5947Z" fill="#240302"/>
        <path d="M54.1257 38.9788C48.8938 38.9788 44.6328 43.2398 44.6328 48.4717V51.0607H45.7655C46.143 51.0607 46.4127 50.8449 46.5745 50.5213L47.6533 47.8244C47.923 47.1772 48.5702 46.7457 49.2714 46.7457H58.9801C59.6812 46.7457 60.3285 47.1772 60.5982 47.8244L61.6769 50.5213C61.7848 50.8449 62.1084 51.0607 62.486 51.0607H63.6186V48.4717C63.5647 43.1858 59.3576 38.9788 54.1257 38.9788Z" fill="#444444"/>
        <path d="M105.099 71.5028L99.3819 68.6442C98.1953 68.0509 97.4402 66.8103 97.4402 65.4619V58.8276H86.8685V65.4619C86.8685 66.8103 86.1134 67.9969 84.9268 68.6442L79.2095 71.5028C77.4296 72.4198 76.2969 74.2536 76.2969 76.2493V90.5965H108.012V76.2493C108.012 74.1997 106.879 72.3658 105.099 71.5028Z" fill="#FDCDA5"/>
        <path d="M105.098 71.5034L99.3812 68.6447C99.3272 68.5908 99.2733 68.5368 99.1654 68.4829C95.1741 72.0967 89.0792 72.0967 85.0879 68.4829C85.0339 68.5368 84.98 68.5908 84.8721 68.6447L79.1548 71.5034C77.3749 72.4203 76.2422 74.2542 76.2422 76.2498V90.5971H108.011V76.2498C108.011 74.2002 106.878 72.3664 105.098 71.5034Z" fill="url(#paint0_linear_6646_59956)"/>
        <path d="M86.8672 64.8686C90.2652 66.271 94.0408 66.271 97.4388 64.8686V58.8816H86.8672V64.8686Z" fill="#E8AB7F"/>
        <path d="M92.152 45.5056C94.8031 45.5056 96.9524 43.3564 96.9524 40.7052C96.9524 38.054 94.8031 35.9048 92.152 35.9048C89.5008 35.9048 87.3516 38.054 87.3516 40.7052C87.3516 43.3564 89.5008 45.5056 92.152 45.5056Z" fill="#444444"/>
        <path d="M92.1523 64.545C86.8665 64.545 82.6055 60.284 82.6055 54.9982V51.8159C82.6055 46.5301 86.8665 42.269 92.1523 42.269C97.4382 42.269 101.699 46.5301 101.699 51.8159V54.9982C101.645 60.284 97.3842 64.545 92.1523 64.545Z" fill="#FDCDA5"/>
        <path d="M92.1523 42.323C86.8665 42.323 82.6055 46.584 82.6055 51.8699V53.488C82.6055 53.488 85.7878 53.488 88.97 50.3057C88.97 50.3057 93.7704 56.6702 101.699 53.488V51.8699C101.645 46.584 97.3842 42.323 92.1523 42.323Z" fill="#444444"/>
        <path d="M108.011 90.5972H0.136719V97.3393H108.011V90.5972Z" fill="#ABB1B4"/>
        <path d="M101.7 90.9748H82.5519C81.635 90.9748 80.8799 90.2736 80.8259 89.3567L80.1787 78.1378C80.1248 77.1669 80.8259 76.3579 81.7968 76.304C81.8507 76.304 81.8507 76.304 81.9047 76.304H102.347C103.318 76.304 104.073 77.0591 104.073 78.0299C104.073 78.0839 104.073 78.0839 104.073 78.1378L103.426 89.3567C103.372 90.2736 102.617 90.9748 101.7 90.9748Z" fill="#F6999F"/>
        <path d="M92.1536 86.2276C93.3451 86.2276 94.3111 85.2616 94.3111 84.0701C94.3111 82.8785 93.3451 81.9126 92.1536 81.9126C90.962 81.9126 89.9961 82.8785 89.9961 84.0701C89.9961 85.2616 90.962 86.2276 92.1536 86.2276Z" fill="white"/>
        <path d="M63.673 90.9748H44.5793C43.6623 90.9748 42.9072 90.2736 42.8533 89.3567L42.206 78.1378C42.1521 77.1669 42.8533 76.3579 43.8241 76.304C43.8781 76.304 43.8781 76.304 43.932 76.304H64.3202C65.2911 76.304 66.0462 77.0591 66.0462 78.0299C66.0462 78.0839 66.0462 78.0839 66.0462 78.1378L65.399 89.3567C65.345 90.2736 64.5899 90.9748 63.673 90.9748Z" fill="#878A99"/>
        <path d="M54.1262 86.2276C55.3178 86.2276 56.2837 85.2616 56.2837 84.0701C56.2837 82.8785 55.3178 81.9126 54.1262 81.9126C52.9347 81.9126 51.9688 82.8785 51.9688 84.0701C51.9688 85.2616 52.9347 86.2276 54.1262 86.2276Z" fill="white"/>
        <path d="M25.0558 90.9748H5.96208C5.04515 90.9748 4.29003 90.2736 4.23609 89.3567L3.58885 78.1378C3.53491 77.1669 4.23609 76.3579 5.20696 76.304C5.2609 76.304 5.2609 76.304 5.31483 76.304H25.757C26.7278 76.304 27.483 77.0591 27.483 78.0299C27.483 78.0839 27.483 78.0839 27.483 78.1378L26.8357 89.3567C26.7278 90.2736 25.9727 90.9748 25.0558 90.9748Z" fill="#0A0080"/>
        <path d="M15.509 86.2276C16.7006 86.2276 17.6665 85.2616 17.6665 84.0701C17.6665 82.8785 16.7006 81.9126 15.509 81.9126C14.3175 81.9126 13.3516 82.8785 13.3516 84.0701C13.3516 85.2616 14.3175 86.2276 15.509 86.2276Z" fill="white"/>
        <path d="M34.2261 7.15674L37.2466 12.2268L42.9639 13.5213L39.0804 17.9441L39.6198 23.8233L34.2261 21.45L28.8324 23.8233L29.3717 17.9441L25.4883 13.5213L31.2056 12.2268L34.2261 7.15674Z" fill="#FFBC0A"/>
        <path d="M14.2144 7.15674L17.2348 12.2268L22.9522 13.5213L19.0687 17.9441L19.6081 23.8233L14.2144 21.45L8.82066 23.8233L9.36003 17.9441L5.47656 13.5213L11.2478 12.2268L14.2144 7.15674Z" fill="#FFBC0A"/>
        <path d="M54.2339 7.15674L57.2004 12.2268L62.9717 13.5213L59.0882 17.9441L59.6276 23.8233L54.2339 21.45L48.8402 23.8233L49.3796 17.9441L45.4961 13.5213L51.2134 12.2268L54.2339 7.15674Z" fill="#FFBC0A"/>
        <path d="M74.2456 7.15674L77.2121 12.2268L82.9834 13.5213L79.0999 17.9441L79.6393 23.8233L74.2456 21.45L68.798 23.8233L69.3913 17.9441L65.5078 13.5213L71.2251 12.2268L74.2456 7.15674Z" fill="#FFBC0A"/>
        <path d="M94.2566 7.15674L97.2231 12.2268L102.994 13.5213L99.057 17.9441L99.6503 23.8233L94.2566 21.45L88.8089 23.8233L89.4022 17.9441L85.4648 13.5213L91.2361 12.2268L94.2566 7.15674Z" fill="#FFBC0A"/>
    </g>
    <defs>
        <linearGradient id="paint0_linear_6646_59956" x1="102.049" y1="68.4829" x2="75.8466" y2="78.0141" gradientUnits="userSpaceOnUse">
            <stop stop-color="#4E4E4E"/>
            <stop offset="1" stop-color="#232323"/>
        </linearGradient>
        <clipPath id="clip0_6646_59956">
            <rect width="107.874" height="97.0867" fill="white" transform="translate(0.136719 0.252441)"/>
        </clipPath>
    </defs>
</svg>
