<svg width="55" height="56" viewBox="0 0 55 56" fill="none" xmlns="http://www.w3.org/2000/svg">
    <g clip-path="url(#clip0_6646_59836)">
        <path d="M27.4123 0.408691C21.9906 0.408691 16.6908 2.01639 12.1828 5.02849C7.67491 8.04059 4.16141 12.3218 2.08665 17.3307C0.0118774 22.3397 -0.530977 27.8514 0.526731 33.1688C1.58444 38.4863 4.1952 43.3707 8.02888 47.2043C11.8625 51.038 16.7469 53.6488 22.0644 54.7065C27.3819 55.7642 32.8935 55.2213 37.9025 53.1466C42.9114 51.0718 47.1926 47.5583 50.2047 43.0504C53.2168 38.5425 54.8245 33.2426 54.8245 27.8209C54.8245 20.5508 51.9365 13.5783 46.7957 8.43755C41.6549 3.29676 34.6824 0.408691 27.4123 0.408691ZM27.4123 51.6477C22.6998 51.6477 18.0931 50.2503 14.1748 47.6321C10.2566 45.014 7.20263 41.2928 5.39924 36.939C3.59585 32.5853 3.124 27.7945 4.04336 23.1726C4.96272 18.5506 7.23199 14.3051 10.5642 10.9729C13.8965 7.64067 18.142 5.3714 22.7639 4.45204C27.3858 3.53268 32.1766 4.00453 36.5304 5.80792C40.8841 7.6113 44.6054 10.6652 47.2235 14.5835C49.8416 18.5018 51.239 23.1085 51.239 27.8209C51.232 34.138 48.7195 40.1944 44.2526 44.6613C39.7857 49.1282 33.7294 51.6407 27.4123 51.6477Z" fill="#A90909"/>
        <path d="M30.9759 20.8501C30.6607 20.8501 30.3584 20.7249 30.1355 20.502C29.9126 20.2791 29.7873 19.9768 29.7873 19.6616V17.8809H25.0373V19.6616C25.0373 19.9768 24.9121 20.2791 24.6892 20.502C24.4663 20.7249 24.164 20.8501 23.8488 20.8501C23.5335 20.8501 23.2312 20.7249 23.0083 20.502C22.7854 20.2791 22.6602 19.9768 22.6602 19.6616V17.8809C22.6607 17.2506 22.9114 16.6463 23.3571 16.2006C23.8027 15.7549 24.4071 15.5042 25.0373 15.5037H29.7873C30.4176 15.5042 31.0219 15.7549 31.4676 16.2006C31.9133 16.6463 32.164 17.2506 32.1645 17.8809V19.6616C32.1645 19.9768 32.0393 20.2791 31.8164 20.502C31.5935 20.7249 31.2912 20.8501 30.9759 20.8501Z" fill="#A90909"/>
        <path d="M28.2549 31.837C27.9845 31.9365 27.6988 31.9878 27.4106 31.9883C27.0982 31.9883 26.7884 31.9318 26.4962 31.8216L13.1563 27.3699V36.4335C13.156 36.8626 13.2403 37.2877 13.4044 37.6842C13.5685 38.0808 13.8092 38.4411 14.1126 38.7446C14.4161 39.0481 14.7765 39.2888 15.173 39.4529C15.5696 39.617 15.9946 39.7013 16.4238 39.701H38.3975C38.8266 39.7013 39.2517 39.617 39.6482 39.4529C40.0448 39.2888 40.4051 39.0481 40.7086 38.7446C41.0121 38.4411 41.2527 38.0808 41.4169 37.6842C41.581 37.2877 41.6653 36.8626 41.665 36.4335V27.3699L28.2549 31.837Z" fill="#A90909"/>
        <path d="M41.665 22.3391V25.0584L27.6957 29.7163C27.5106 29.7776 27.3106 29.7776 27.1255 29.7163L13.1563 25.054V22.3391C13.156 21.9099 13.2403 21.4849 13.4044 21.0883C13.5685 20.6917 13.8092 20.3314 14.1126 20.0279C14.4161 19.7245 14.7765 19.4838 15.173 19.3197C15.5696 19.1556 15.9946 19.0712 16.4238 19.0715H38.3975C38.8266 19.0712 39.2517 19.1556 39.6482 19.3197C40.0448 19.4838 40.4051 19.7245 40.7086 20.0279C41.0121 20.3314 41.2527 20.6917 41.4169 21.0883C41.581 21.4849 41.6653 21.9099 41.665 22.3391Z" fill="#A90909"/>
    </g>
    <defs>
        <clipPath id="clip0_6646_59836">
            <rect width="54.8245" height="54.8245" fill="white" transform="translate(0 0.408936)"/>
        </clipPath>
    </defs>
</svg>
