<svg width="109" height="98" viewBox="0 0 109 98" fill="none" xmlns="http://www.w3.org/2000/svg">
    <g clip-path="url(#clip0_6646_59913)">
        <path d="M68.7123 94.1789C68.6584 94.1789 68.6584 94.1789 68.7123 94.1789V91.8596C69.5753 91.8596 90.1253 91.9675 93.847 70.7703L96.1123 71.1478C92.121 93.8014 69.9529 94.1789 68.7123 94.1789Z" fill="#0A84F2"/>
        <path d="M80.6838 11.7108L62.507 4.96863L55.2255 3.88989L47.944 4.96863L29.7672 11.7108L21.4609 20.2328L26.0456 22.1206C27.2322 22.606 28.6346 22.2824 29.5515 21.3116C36.0239 14.4616 45.1393 10.1466 55.2795 10.1466C65.4196 10.1466 74.5889 14.4616 81.0074 21.3116C81.9243 22.2824 83.2728 22.606 84.5133 22.1206L89.098 20.2328L80.6838 11.7108Z" fill="#0061BB"/>
        <path d="M55.227 0.869141C30.5778 0.869141 10.6211 20.8258 10.6211 45.4751V59.8762H15.2597V55.2377V45.4751C15.2597 23.4148 33.1668 5.50772 55.227 5.50772C77.2873 5.50772 95.1944 23.4148 95.1944 45.4751V55.2377V59.8762H99.8329V45.4751C99.8869 20.8258 79.8762 0.869141 55.227 0.869141Z" fill="#0A84F2"/>
        <path d="M16.0688 75.5716V47.2546C12.2932 47.2546 9.21875 50.329 9.21875 54.1046V68.7755C9.27269 72.5511 12.3471 75.5716 16.0688 75.5716Z" fill="#FFBC0A"/>
        <path d="M22.8632 80.5338C19.1416 80.5338 16.1211 77.5134 16.1211 73.7917V49.0886C16.1211 45.3669 19.1416 42.3464 22.8632 42.3464C26.5849 42.3464 29.6054 45.3669 29.6054 49.0886V73.7917C29.6054 77.5134 26.5849 80.5338 22.8632 80.5338Z" fill="#FFBC0A"/>
        <path d="M92.9844 75.5716V47.2546C96.76 47.2546 99.8344 50.329 99.8344 54.1046V68.7755C99.7804 72.5511 96.76 75.5716 92.9844 75.5716Z" fill="#FFBC0A"/>
        <path d="M86.2421 80.5338C89.9638 80.5338 92.9843 77.5134 92.9843 73.7917V49.0886C92.9843 45.3669 89.9638 42.3464 86.2421 42.3464C82.5205 42.3464 79.5 45.3669 79.5 49.0886V73.7917C79.5 77.5134 82.5205 80.5338 86.2421 80.5338Z" fill="#FFBC0A"/>
        <path d="M71.2464 97.9559H64.72C61.9692 97.9559 59.7578 95.7445 59.7578 92.9937C59.7578 90.2429 61.9692 88.0315 64.72 88.0315H71.2464C73.9972 88.0315 76.2086 90.2429 76.2086 92.9937C76.2086 95.7445 73.9972 97.9559 71.2464 97.9559Z" fill="#FFBC0A"/>
        <path d="M55.2278 73.0907C64.0155 73.0907 71.1392 65.9669 71.1392 57.1792C71.1392 48.3916 64.0155 41.2678 55.2278 41.2678C46.4402 41.2678 39.3164 48.3916 39.3164 57.1792C39.3164 65.9669 46.4402 73.0907 55.2278 73.0907Z" fill="#FFBC0A"/>
        <path d="M65.097 68.02L65.6903 82.3133L55.2266 71.0405L65.097 68.02Z" fill="#FFBC0A"/>
        <path d="M55.2281 59.8759C56.7175 59.8759 57.925 58.6685 57.925 57.179C57.925 55.6896 56.7175 54.4822 55.2281 54.4822C53.7387 54.4822 52.5312 55.6896 52.5312 57.179C52.5312 58.6685 53.7387 59.8759 55.2281 59.8759Z" fill="white"/>
        <path d="M46.5992 59.8759C48.0886 59.8759 49.296 58.6685 49.296 57.179C49.296 55.6896 48.0886 54.4822 46.5992 54.4822C45.1098 54.4822 43.9023 55.6896 43.9023 57.179C43.9023 58.6685 45.1098 59.8759 46.5992 59.8759Z" fill="white"/>
        <path d="M63.9117 59.8759C65.4011 59.8759 66.6085 58.6685 66.6085 57.179C66.6085 55.6896 65.4011 54.4822 63.9117 54.4822C62.4223 54.4822 61.2148 55.6896 61.2148 57.179C61.2148 58.6685 62.4223 59.8759 63.9117 59.8759Z" fill="white"/>
    </g>
    <defs>
        <clipPath id="clip0_6646_59913">
            <rect width="107.874" height="97.0867" fill="white" transform="translate(0.265625 0.867676)"/>
        </clipPath>
    </defs>
</svg>
