<svg width="109" height="98" viewBox="0 0 109 98" fill="none" xmlns="http://www.w3.org/2000/svg">
    <g clip-path="url(#clip0_6646_60018)">
        <path d="M3.34004 22.2046H83.5444C85.2164 22.2046 86.6188 23.607 86.6188 25.279V80.5105C86.6188 82.1826 85.2164 83.5849 83.5444 83.5849H3.34004C1.66799 83.5849 0.265625 82.1826 0.265625 80.5105V25.279C0.265625 23.607 1.66799 22.2046 3.34004 22.2046Z" fill="#E9000E"/>
        <path d="M43.4671 77.436C57.0209 77.436 68.0085 66.4484 68.0085 52.8946C68.0085 39.3408 57.0209 28.3533 43.4671 28.3533C29.9133 28.3533 18.9258 39.3408 18.9258 52.8946C18.9258 66.4484 29.9133 77.436 43.4671 77.436Z" fill="#4F80FF"/>
        <path d="M43.4701 74.4158C55.3557 74.4158 64.991 64.7805 64.991 52.8949C64.991 41.0092 55.3557 31.374 43.4701 31.374C31.5844 31.374 21.9492 41.0092 21.9492 52.8949C21.9492 64.7805 31.5844 74.4158 43.4701 74.4158Z" fill="#E9000E"/>
        <path d="M43.4693 70.2625C53.0612 70.2625 60.837 62.4867 60.837 52.8948C60.837 43.3029 53.0612 35.5271 43.4693 35.5271C33.8774 35.5271 26.1016 43.3029 26.1016 52.8948C26.1016 62.4867 33.8774 70.2625 43.4693 70.2625Z" fill="#4F80FF"/>
        <path d="M46.6497 42.4844H40.2852V63.3041H46.6497V42.4844Z" fill="white"/>
        <path d="M53.8783 49.7122H33.0586V56.0767H53.8783V49.7122Z" fill="white"/>
        <path d="M60.5653 4.56689H26.3153C22.8633 4.56689 20.0586 7.37162 20.0586 10.8236V22.2043H26.585V11.0933H60.2417V22.2043H66.7681V10.8236C66.822 7.37162 64.0173 4.56689 60.5653 4.56689Z" fill="#FFBC0A"/>
        <path d="M8.30365 19.3462H14.3985C14.884 19.3462 15.3155 19.7777 15.3155 20.2631V22.2588H7.38672V20.2092C7.38672 19.7237 7.76428 19.3462 8.30365 19.3462Z" fill="#FFBC0A"/>
        <path d="M72.4872 19.3462H78.5821C79.0676 19.3462 79.4991 19.7777 79.4991 20.2631V22.2588H71.5703V20.2092C71.5703 19.7237 72.0018 19.3462 72.4872 19.3462Z" fill="#FFBC0A"/>
        <path d="M9.54435 32.1287C10.8848 32.1287 11.9715 31.0421 11.9715 29.7016C11.9715 28.3611 10.8848 27.2744 9.54435 27.2744C8.20387 27.2744 7.11719 28.3611 7.11719 29.7016C7.11719 31.0421 8.20387 32.1287 9.54435 32.1287Z" fill="#E9000E"/>
        <path d="M77.1264 32.1287C78.4669 32.1287 79.5536 31.0421 79.5536 29.7016C79.5536 28.3611 78.4669 27.2744 77.1264 27.2744C75.7859 27.2744 74.6992 28.3611 74.6992 29.7016C74.6992 31.0421 75.7859 32.1287 77.1264 32.1287Z" fill="#E9000E"/>
        <path d="M12.6177 76.9507C13.839 76.9507 14.8291 75.9606 14.8291 74.7393C14.8291 73.5179 13.839 72.5278 12.6177 72.5278C11.3963 72.5278 10.4062 73.5179 10.4062 74.7393C10.4062 75.9606 11.3963 76.9507 12.6177 76.9507Z" fill="#E9000E"/>
        <path d="M75.563 76.9507C76.7843 76.9507 77.7744 75.9606 77.7744 74.7393C77.7744 73.5179 76.7843 72.5278 75.563 72.5278C74.3417 72.5278 73.3516 73.5179 73.3516 74.7393C73.3516 75.9606 74.3417 76.9507 75.563 76.9507Z" fill="#E9000E"/>
        <path d="M105.551 97.3382H84.1378C82.304 97.3382 80.8477 95.8819 80.8477 94.048V64.8681C80.8477 61.9015 82.4118 59.1507 84.9469 57.6405L85.0008 57.5866V55.1055H103.987V57.5326L104.041 57.6405C106.576 59.1507 108.086 61.9015 108.14 64.8681V71.7181V93.9401C108.194 95.774 106.791 97.2842 104.958 97.3382H105.551Z" fill="#6FC4F7"/>
        <path d="M105.713 49.3887H83.3828V55.1599H105.713V49.3887Z" fill="#103159"/>
        <path d="M80.8477 64.3831H95.7343V80.9417H80.8477" fill="white"/>
        <path d="M96.8125 84.4472V79.1075C96.8125 77.1657 98.3767 75.6016 100.318 75.6016C102.26 75.6016 103.824 77.1657 103.824 79.1075V84.4472H96.8125Z" fill="#FFBC0A"/>
        <path d="M103.878 89.8422C103.878 91.7839 102.313 93.402 100.318 93.402C98.3759 93.402 96.7578 91.8379 96.7578 89.8422V84.4485H103.824V89.8422H103.878Z" fill="#FFBC0A"/>
        <path d="M88.9922 85.3108H93.9544C95.7883 85.2569 97.2985 86.6593 97.3524 88.4392C97.4064 90.273 96.004 91.7833 94.2241 91.8372C94.1162 91.8372 94.0623 91.8372 93.9544 91.8372H88.9922V85.3108Z" fill="#FFBC0A"/>
        <path d="M83.9777 91.8374C82.1438 91.8914 80.6336 90.489 80.5796 88.7091C80.5257 86.8752 81.9281 85.365 83.708 85.311C83.8159 85.311 83.8698 85.311 83.9777 85.311H88.9399V91.8914L83.9777 91.8374Z" fill="#FFBC0A"/>
    </g>
    <defs>
        <clipPath id="clip0_6646_60018">
            <rect width="107.874" height="97.0867" fill="white" transform="translate(0.265625 0.252441)"/>
        </clipPath>
    </defs>
</svg>
