<svg width="46" height="46" viewBox="0 0 46 46" fill="none" xmlns="http://www.w3.org/2000/svg">
    <g clip-path="url(#clip0_6646_60293)">
        <path d="M22.882 9.83105C29.7259 9.83105 35.264 15.3692 35.264 22.2131C35.264 29.0569 29.7259 34.5951 22.882 34.5951C16.0381 34.5951 10.5 29.0569 10.5 22.2131C10.5 15.3692 16.0381 9.83105 22.882 9.83105Z" fill="#FFBC0A"/>
        <path d="M36.6137 15.0088C36.5686 15.0088 36.5236 15.0088 36.4786 15.0088C36.5236 14.6486 36.6137 14.2434 36.6137 13.8832C36.6137 9.96598 33.4619 6.8142 29.5447 6.8142C28.419 6.8142 27.3834 7.08435 26.4379 7.57963C24.6819 4.65298 21.4851 2.62683 17.8381 2.62683C12.2999 2.62683 7.8424 7.08435 7.8424 12.6225C7.8424 13.478 7.97748 14.2884 8.15758 15.0989C4.96077 15.5942 2.48438 18.3407 2.48438 21.7176C2.48438 25.4097 5.50108 28.4264 9.19317 28.4264H36.6137C40.3058 28.4264 43.3225 25.4097 43.3225 21.7176C43.3225 17.9805 40.3058 15.0088 36.6137 15.0088Z" stroke="#151616" stroke-width="2.61148" stroke-miterlimit="10"/>
        <path d="M22.8828 25.095C23.8278 25.095 24.5938 24.329 24.5938 23.3841C24.5938 22.4391 23.8278 21.6731 22.8828 21.6731C21.9379 21.6731 21.1719 22.4391 21.1719 23.3841C21.1719 24.329 21.9379 25.095 22.8828 25.095Z" fill="#151616"/>
        <path d="M26.6619 19.6012C25.7164 18.6556 24.3656 18.0253 22.8798 18.0253C21.394 18.0253 20.0882 18.6106 19.0977 19.6012" stroke="#151616" stroke-width="2.61148" stroke-miterlimit="10"/>
        <path d="M30.3547 15.9091C28.4186 14.0181 25.8071 12.8474 22.8805 12.8474C19.9538 12.8474 17.3423 13.973 15.4062 15.9091" stroke="#151616" stroke-width="2.61148" stroke-miterlimit="10"/>
        <path d="M22.9713 44.5908C24.9855 44.5908 26.6183 42.9579 26.6183 40.9437C26.6183 38.9295 24.9855 37.2966 22.9713 37.2966C20.9571 37.2966 19.3242 38.9295 19.3242 40.9437C19.3242 42.9579 20.9571 44.5908 22.9713 44.5908Z" stroke="#151616" stroke-width="2.61148" stroke-miterlimit="10"/>
        <path d="M8.20175 44.5908C10.216 44.5908 11.8488 42.9579 11.8488 40.9437C11.8488 38.9295 10.216 37.2966 8.20175 37.2966C6.18753 37.2966 4.55469 38.9295 4.55469 40.9437C4.55469 42.9579 6.18753 44.5908 8.20175 44.5908Z" stroke="#151616" stroke-width="2.61148" stroke-miterlimit="10"/>
        <path d="M37.7838 44.5908C39.798 44.5908 41.4308 42.9579 41.4308 40.9437C41.4308 38.9295 39.798 37.2966 37.7838 37.2966C35.7696 37.2966 34.1367 38.9295 34.1367 40.9437C34.1367 42.9579 35.7696 44.5908 37.7838 44.5908Z" stroke="#151616" stroke-width="2.61148" stroke-miterlimit="10"/>
        <path d="M22.9727 37.2512V28.3812" stroke="#151616" stroke-width="2.61148" stroke-miterlimit="10"/>
        <path d="M37.7852 28.3812V37.2512" stroke="#151616" stroke-width="2.61148" stroke-miterlimit="10"/>
        <path d="M8.20312 37.2512V28.3812" stroke="#151616" stroke-width="2.61148" stroke-miterlimit="10"/>
    </g>
    <defs>
        <clipPath id="clip0_6646_60293">
            <rect width="45.0255" height="45.0255" fill="white" transform="translate(0.457031 0.915771)"/>
        </clipPath>
    </defs>
</svg>
