<svg width="41" height="42" viewBox="0 0 41 42" fill="none" xmlns="http://www.w3.org/2000/svg">
    <g clip-path="url(#clip0_6646_61051)">
        <path d="M20.1993 41.1631C31.3551 41.1631 40.3987 32.1195 40.3987 20.9637C40.3987 9.80796 31.3551 0.764404 20.1993 0.764404C9.04355 0.764404 0 9.80796 0 20.9637C0 32.1195 9.04355 41.1631 20.1993 41.1631Z" fill="#878A99"/>
        <path d="M33.7582 20.722C33.7582 20.1241 33.4997 19.5746 33.0795 19.1868C33.5966 18.799 33.9198 18.1849 33.9198 17.5062C33.9198 16.3266 32.9341 15.3732 31.706 15.3732H26.9227C27.3106 14.9207 27.7954 14.2743 28.1509 13.4502C29.4598 10.4122 28.4094 7.43888 26.2602 9.87896C23.6909 12.8523 19.8772 15.3893 19.8772 15.3893H19.1016V29.1087H31.2212C32.0615 28.8017 32.6432 28.026 32.6432 27.1211C32.6432 26.6525 32.4816 26.2 32.2069 25.8445C32.9664 25.5052 33.4835 24.7618 33.4835 23.9054C33.4835 23.3236 33.2411 22.7904 32.8533 22.4187C33.4189 22.047 33.7582 21.433 33.7582 20.722Z" fill="white"/>
        <path d="M18.1813 14.323H8.56641V30.6441H18.1813V14.323Z" fill="white"/>
    </g>
    <defs>
        <clipPath id="clip0_6646_61051">
            <rect width="40.3987" height="40.3987" fill="white" transform="translate(0 0.76416)"/>
        </clipPath>
    </defs>
</svg>
