<svg width="46" height="46" viewBox="0 0 46 46" fill="none" xmlns="http://www.w3.org/2000/svg">
    <g clip-path="url(#clip0_6646_60363)">
        <path d="M33.1007 10.5969C39.9446 10.5969 45.4827 16.1351 45.4827 22.9789C45.4827 29.8228 39.9446 35.3609 33.1007 35.3609C26.2569 35.3609 20.7188 29.8228 20.7188 22.9789C20.7188 16.1351 26.2569 10.5969 33.1007 10.5969Z" fill="#FFBC0A"/>
        <path d="M19.6849 2.17731C16.9384 2.17731 14.6871 4.42858 14.6871 7.17513C13.9217 6.81493 13.0662 6.63483 12.1657 6.63483C8.65369 6.63483 5.81709 9.47143 5.81709 12.9834C5.81709 13.974 6.04221 14.9195 6.44744 15.73C3.88099 16.9457 2.125 19.5571 2.125 22.5738C2.125 25.7256 4.06109 28.4271 6.80765 29.5978C6.17729 30.5884 5.81709 31.759 5.81709 32.9747C5.81709 36.4867 8.65369 39.3233 12.1657 39.3233C13.0662 39.3233 13.9217 39.1432 14.6871 38.783C14.6871 41.5295 16.9384 43.7808 19.6849 43.7808C22.4315 43.7808 24.6828 41.5295 24.6828 38.783V7.17513C24.6828 4.38355 22.4765 2.17731 19.6849 2.17731Z" stroke="#151616" stroke-width="2.61148" stroke-miterlimit="10"/>
        <path d="M6.44531 15.7298C6.44531 15.7298 12.0285 13.5235 13.4243 17.5758C14.82 21.6281 12.1185 23.159 10.1824 23.6542" stroke="#151616" stroke-width="2.61148" stroke-miterlimit="10"/>
        <path d="M13.4258 27.5272C13.4258 30.2287 15.632 32.3899 18.2885 32.3899H24.6821" stroke="#151616" stroke-width="2.61148" stroke-miterlimit="10"/>
        <path d="M19.6836 13.7036C19.6836 13.7036 20.7642 9.78643 24.7264 10.5068" stroke="#151616" stroke-width="2.61148" stroke-miterlimit="10"/>
        <path d="M35.4441 26.7165C37.5081 26.7165 39.1813 25.0434 39.1813 22.9794C39.1813 20.9155 37.5081 19.2423 35.4441 19.2423C33.3802 19.2423 31.707 20.9155 31.707 22.9794C31.707 25.0434 33.3802 26.7165 35.4441 26.7165Z" stroke="#151616" stroke-width="2.61148" stroke-miterlimit="10"/>
        <path d="M40.0379 12.8035C42.1018 12.8035 43.775 11.1303 43.775 9.0664C43.775 7.00245 42.1018 5.32928 40.0379 5.32928C37.9739 5.32928 36.3008 7.00245 36.3008 9.0664C36.3008 11.1303 37.9739 12.8035 40.0379 12.8035Z" stroke="#151616" stroke-width="2.61148" stroke-miterlimit="10"/>
        <path d="M40.0379 40.6296C42.1018 40.6296 43.775 38.9564 43.775 36.8924C43.775 34.8285 42.1018 33.1553 40.0379 33.1553C37.9739 33.1553 36.3008 34.8285 36.3008 36.8924C36.3008 38.9564 37.9739 40.6296 40.0379 40.6296Z" stroke="#151616" stroke-width="2.61148" stroke-miterlimit="10"/>
        <path d="M31.6625 22.9789H24.6836" stroke="#151616" stroke-width="2.61148" stroke-miterlimit="10"/>
        <path d="M36.3002 9.06671H24.6836" stroke="#151616" stroke-width="2.61148" stroke-miterlimit="10"/>
        <path d="M36.3002 36.8919H24.6836" stroke="#151616" stroke-width="2.61148" stroke-miterlimit="10"/>
    </g>
    <defs>
        <clipPath id="clip0_6646_60363">
            <rect width="45.0255" height="45.0255" fill="white" transform="translate(0.457031 0.466187)"/>
        </clipPath>
    </defs>
</svg>
