<svg width="55" height="55" viewBox="0 0 55 55" fill="none" xmlns="http://www.w3.org/2000/svg">
    <g clip-path="url(#clip0_6646_59823)">
        <path d="M27.4357 0.137695C12.3041 0.137695 0.0234375 12.4184 0.0234375 27.5499C0.0234375 42.6815 12.3041 54.9622 27.4357 54.9622C42.5673 54.9622 54.8479 42.6815 54.8479 27.5499C54.8479 12.4184 42.5673 0.137695 27.4357 0.137695ZM27.4357 51.3657C14.2778 51.3657 3.598 40.7078 3.598 27.5499C3.598 14.3921 14.2778 3.71225 27.4357 3.71225C40.5936 3.71225 51.2515 14.3921 51.2515 27.5499C51.2515 40.7078 40.5936 51.3657 27.4357 51.3657Z" fill="#A90909"/>
        <path d="M27.457 36.3216C25.9877 36.3216 24.5842 35.7295 23.5754 34.6769C23.1588 34.2383 23.1588 33.5365 23.5974 33.1199C24.036 32.7032 24.7377 32.7032 25.1544 33.1418C26.4263 34.4137 28.4658 34.4137 29.7377 33.1418C30.1544 32.7032 30.8561 32.7032 31.2947 33.1199C31.7333 33.5365 31.7333 34.2383 31.3167 34.6769C30.3079 35.7295 28.9044 36.3216 27.457 36.3216Z" fill="#A90909"/>
        <path d="M39.1257 22.9658C39.1257 21.2333 38.7309 19.8956 38.1169 18.8649C36.3406 15.3562 32.5029 13.1412 27.3932 12.9219C23.1169 12.7465 21.538 14.6983 20.9239 15.9263C18.709 16.3869 15.7266 18.229 15.7266 22.9658V28.229C15.7266 30.0272 16.0774 31.8254 16.7573 33.4921C16.9766 34.0184 17.5467 35.0491 17.5467 35.093C19.5862 38.6017 22.3494 42.1763 27.4151 42.1763C32.3494 42.1763 35.0248 38.821 37.1958 35.1807C37.2616 35.0711 37.8318 34.0623 38.095 33.4482C38.2265 33.0974 38.3581 32.7465 38.4678 32.3737C38.4897 32.264 38.5336 32.1763 38.5555 32.0667C38.5774 32.0228 38.5774 31.9789 38.5993 31.9351C38.7967 31.2114 38.9502 30.4658 39.0379 29.6982C39.0379 29.6325 39.0599 29.5447 39.0599 29.479C39.1037 29.0623 39.1257 28.6456 39.1257 28.229V22.9658ZM34.6958 33.7333C32.6564 37.1325 30.7265 39.2596 27.4371 39.2596C24.0818 39.2596 22.0643 37.0009 20.1345 33.6675C20.1345 33.6675 19.6739 32.8123 19.4985 32.3737C18.9502 31.0579 18.6871 29.6544 18.6871 28.229V27.1763L19.5423 26.8035C19.6739 26.7377 22.0862 25.6412 23.3362 23.3825C24.6739 25.2684 27.0643 27.5053 30.7923 27.5053C31.209 27.5053 31.5818 27.264 31.7792 26.9132C31.9108 26.65 31.9327 26.343 31.845 26.0579C32.5029 26.5842 33.9941 27.264 36.2309 27.1983V28.2509C36.2309 29.15 36.1213 30.0272 35.902 30.8825L35.9239 30.9044C35.7923 31.4088 35.6388 31.8912 35.4415 32.3737C35.2002 32.8123 34.6958 33.7333 34.6958 33.7333Z" fill="#A90909"/>
    </g>
    <defs>
        <clipPath id="clip0_6646_59823">
            <rect width="54.8245" height="54.8245" fill="white" transform="translate(0.0234375 0.137695)"/>
        </clipPath>
    </defs>
</svg>
