<svg width="55" height="56" viewBox="0 0 55 56" fill="none" xmlns="http://www.w3.org/2000/svg">
    <g clip-path="url(#clip0_6646_59847)">
        <path d="M27.4357 0.408936C12.3041 0.408936 0.0234375 12.6896 0.0234375 27.8212C0.0234375 42.9528 12.3041 55.2334 27.4357 55.2334C42.5673 55.2334 54.8479 42.9528 54.8479 27.8212C54.8479 12.6896 42.5673 0.408936 27.4357 0.408936ZM27.4357 51.637C14.2778 51.637 3.598 40.9791 3.598 27.8212C3.598 14.6633 14.2778 3.98349 27.4357 3.98349C40.5936 3.98349 51.2515 14.6633 51.2515 27.8212C51.2515 40.9791 40.5936 51.637 27.4357 51.637Z" fill="#A90909"/>
        <path d="M27.7876 21.0881L15.5508 25.3425V41.0004H27.7876H31.406V23.0399L27.7876 21.0881Z" fill="#A90909"/>
        <path d="M35.5284 12.4041L22.5898 18.5225V41.0005H24.5416V19.7505L33.5767 15.4962V41.0005H35.5284H39.3223V15.2111L35.5284 12.4041Z" fill="#A90909"/>
        <path d="M40.2633 40.5408H14.6055V42.3609H40.2633V40.5408Z" fill="#A90909"/>
        <path d="M17.5 39.0489V26.7243L25.8333 23.8296V39.0489H17.5Z" fill="white"/>
        <path d="M16.8672 31.0443L26.8891 28.2373" stroke="#A90909" stroke-width="1.31579" stroke-miterlimit="10"/>
        <path d="M16.8672 35.3871L26.8891 33.8081" stroke="#A90909" stroke-width="1.31579" stroke-miterlimit="10"/>
    </g>
    <defs>
        <clipPath id="clip0_6646_59847">
            <rect width="54.8245" height="54.8245" fill="white" transform="translate(0.0234375 0.408691)"/>
        </clipPath>
    </defs>
</svg>
