<svg width="55" height="55" viewBox="0 0 55 55" fill="none" xmlns="http://www.w3.org/2000/svg">
    <g clip-path="url(#clip0_6646_59810)">
        <path d="M27.4123 0.137695C12.2807 0.137695 0 12.4184 0 27.5499C0 42.6815 12.2807 54.9622 27.4123 54.9622C42.5438 54.9622 54.8245 42.6815 54.8245 27.5499C54.8245 12.4184 42.5438 0.137695 27.4123 0.137695ZM27.4123 51.3657C14.2544 51.3657 3.57456 40.7078 3.57456 27.5499C3.57456 14.3921 14.2544 3.71225 27.4123 3.71225C40.5701 3.71225 51.228 14.3921 51.228 27.5499C51.228 40.7078 40.5701 51.3657 27.4123 51.3657Z" fill="#A90909"/>
        <path d="M26.0071 21.1243L22.4106 16.1462H13.1562L19.2966 24.6331C21.0071 22.7471 23.3536 21.4752 26.0071 21.1243Z" fill="#A90909"/>
        <path d="M35.523 24.6328L41.6634 16.146H32.409L28.8125 21.146C31.466 21.4749 33.8125 22.7469 35.523 24.6328Z" fill="#A90909"/>
        <path d="M27.4123 23.6677C22.7852 23.6677 19.0352 27.4177 19.0352 32.0449C19.0352 36.6721 22.7852 40.4221 27.4123 40.4221C32.0395 40.4221 35.7895 36.6721 35.7895 32.0449C35.7895 27.4177 32.0395 23.6677 27.4123 23.6677ZM30.2413 36.387L27.4123 34.8958L24.5834 36.387L25.1316 33.251L22.8509 31.0361L26.0088 30.5756L27.4123 27.7247L28.8158 30.5756L31.9737 31.0361L29.693 33.251L30.2413 36.387Z" fill="#A90909"/>
    </g>
    <defs>
        <clipPath id="clip0_6646_59810">
            <rect width="54.8245" height="54.8245" fill="white" transform="translate(0 0.137695)"/>
        </clipPath>
    </defs>
</svg>
