<svg width="109" height="98" viewBox="0 0 109 98" fill="none" xmlns="http://www.w3.org/2000/svg">
    <g clip-path="url(#clip0_6646_60069)">
        <path d="M7.99219 41.8867L8.00835 41.9083" stroke="#E8E8E8" stroke-width="3.23203" stroke-linecap="round" stroke-linejoin="round"/>
        <path d="M11.5078 45.7058L48.6707 85.993" stroke="#E8E8E8" stroke-width="3.23203" stroke-linecap="round" stroke-linejoin="round" stroke-dasharray="0.05 5.17"/>
        <path d="M50.4219 87.8881L50.4434 87.9096" stroke="#E8E8E8" stroke-width="3.23203" stroke-linecap="round" stroke-linejoin="round"/>
        <path d="M7.99219 41.8867H8.01993" stroke="#E8E8E8" stroke-width="3.23203" stroke-linecap="round" stroke-linejoin="round"/>
        <path d="M13.3828 41.8867H97.4478" stroke="#E8E8E8" stroke-width="3.23203" stroke-linecap="round" stroke-linejoin="round" stroke-dasharray="0.05 5.37"/>
        <path d="M100.129 41.8867H100.157" stroke="#E8E8E8" stroke-width="3.23203" stroke-linecap="round" stroke-linejoin="round"/>
        <path d="M100.157 14.0967C98.0947 14.101 96.1179 14.9226 94.66 16.3815C93.202 17.8405 92.3818 19.8179 92.3789 21.8805C92.3789 27.2241 99.3816 35.0671 99.6348 35.4011C99.699 35.478 99.7793 35.5399 99.8701 35.5824C99.9608 35.6248 100.06 35.6469 100.16 35.6469C100.26 35.6469 100.359 35.6248 100.45 35.5824C100.541 35.5399 100.621 35.478 100.685 35.4011C101.019 35.0671 107.941 27.2241 107.941 21.8805C107.937 19.8174 107.115 17.84 105.657 16.3812C104.198 14.9224 102.22 14.1009 100.157 14.0967ZM100.157 25.7697C99.1263 25.7683 98.1379 25.358 97.4088 24.629C96.6798 23.8999 96.2695 22.9115 96.2681 21.8805C96.2876 20.8576 96.7045 19.8825 97.4304 19.1616C98.1563 18.4407 99.1343 18.0306 100.157 18.0182C101.189 18.0196 102.178 18.4297 102.908 19.1586C103.638 19.8875 104.049 20.8759 104.052 21.9074C104.053 22.4175 103.952 22.9228 103.756 23.3938C103.56 23.8648 103.273 24.2923 102.911 24.6516C102.549 25.0108 102.119 25.2946 101.646 25.4865C101.173 25.6784 100.667 25.7747 100.157 25.7697Z" fill="#E9000E"/>
        <path d="M55.0913 15.5393H41.7969V39.6395H63.5807V28.7906L61.0436 20.0103C60.6705 18.7255 59.8918 17.5959 58.8239 16.7901C57.756 15.9843 56.456 15.5455 55.1182 15.5393" fill="#D6DDE1"/>
        <path d="M60.4026 28.679L58.1348 20.8521C57.943 20.1924 57.543 19.6125 56.9944 19.1989C56.4459 18.7853 55.7783 18.5603 55.0913 18.5574H44.8242V28.679H60.4026Z" fill="#84DBFF"/>
        <path d="M60.4041 28.6783H44.8203V18.562L60.4041 28.6783Z" fill="#A7A7A7"/>
        <path d="M60.4026 28.679L58.1348 20.8521C57.943 20.1924 57.543 19.6125 56.9944 19.1989C56.4459 18.7853 55.7783 18.5603 55.0913 18.5574H44.8242L60.4026 28.679Z" fill="#A7A7A7"/>
        <path d="M4.23091 3.44141H37.774C38.8412 3.44141 39.8646 3.86535 40.6193 4.61997C41.3739 5.3746 41.7978 6.39809 41.7978 7.46528V39.6401H0.207035V7.46528C0.206326 6.93666 0.309922 6.41309 0.51189 5.92457C0.713857 5.43606 1.01023 4.99219 1.38402 4.61839C1.75781 4.2446 2.20168 3.94823 2.6902 3.74626C3.17872 3.5443 3.70229 3.4407 4.23091 3.44141Z" fill="#A7A7A7"/>
        <path d="M27.4647 3.44702V14.0804L25.9134 12.5236L24.2812 14.1558L22.649 12.5236L21.0169 14.1558L19.3847 12.5236L17.7363 14.1558L16.1096 12.5236L14.5312 14.1019V3.44702H27.4647Z" fill="#120101"/>
        <path d="M64.6052 39.6348V44.1812H0.207031V39.6348H6.93503C7.73579 38.2038 8.90363 37.0122 10.3182 36.1828C11.7328 35.3533 13.343 34.9161 14.9828 34.9161C16.6226 34.9161 18.2328 35.3533 19.6473 36.1828C21.0619 37.0122 22.2298 38.2038 23.0305 39.6348H44.6528C45.452 38.2035 46.6187 37.0115 48.0325 36.1817C49.4462 35.3519 51.0558 34.9144 52.6951 34.9144C54.3344 34.9144 55.944 35.3519 57.3578 36.1817C58.7716 37.0115 59.9383 38.2035 60.7375 39.6348H64.6052Z" fill="#A7A7A7"/>
        <path d="M59.1144 44.1545C59.1144 45.4255 58.7375 46.668 58.0314 47.7248C57.3252 48.7816 56.3216 49.6053 55.1473 50.0917C53.9731 50.5781 52.6809 50.7053 51.4343 50.4574C50.1878 50.2094 49.0427 49.5974 48.144 48.6986C47.2452 47.7999 46.6332 46.6548 46.3852 45.4082C46.1372 44.1616 46.2645 42.8695 46.7509 41.6952C47.2373 40.521 48.061 39.5173 49.1178 38.8112C50.1746 38.1051 51.4171 37.7281 52.6881 37.7281C54.3924 37.7281 56.027 38.4052 57.2322 39.6104C58.4374 40.8156 59.1144 42.4501 59.1144 44.1545Z" fill="#120101"/>
        <path d="M55.2767 44.1545C55.2778 44.6661 55.127 45.1665 54.8436 45.5924C54.5601 46.0183 54.1567 46.3506 53.6843 46.5471C53.2119 46.7436 52.6919 46.7956 52.19 46.6964C51.688 46.5973 51.2268 46.3514 50.8647 45.9901C50.5025 45.6287 50.2558 45.168 50.1555 44.6663C50.0553 44.1645 50.1062 43.6444 50.3018 43.1716C50.4973 42.6988 50.8287 42.2947 51.254 42.0104C51.6794 41.726 52.1795 41.5742 52.6911 41.5742C53.0304 41.5735 53.3665 41.6397 53.6802 41.7691C53.9938 41.8984 54.2789 42.0884 54.5191 42.328C54.7592 42.5677 54.9498 42.8524 55.0798 43.1658C55.2098 43.4792 55.2767 43.8152 55.2767 44.1545Z" fill="#878A99"/>
        <path d="M21.4035 44.1545C21.4035 45.4255 21.0266 46.668 20.3204 47.7248C19.6143 48.7816 18.6106 49.6053 17.4364 50.0917C16.2621 50.5781 14.97 50.7053 13.7234 50.4574C12.4768 50.2094 11.3318 49.5974 10.433 48.6986C9.53428 47.7999 8.92223 46.6548 8.67426 45.4082C8.4263 44.1616 8.55357 42.8695 9.03996 41.6952C9.52636 40.521 10.35 39.5173 11.4068 38.8112C12.4637 38.1051 13.7061 37.7281 14.9771 37.7281C16.6815 37.7281 18.3161 38.4052 19.5212 39.6104C20.7264 40.8156 21.4035 42.4501 21.4035 44.1545Z" fill="#120101"/>
        <path d="M17.558 44.1545C17.559 44.6663 17.4081 45.1669 17.1244 45.593C16.8407 46.019 16.437 46.3512 15.9643 46.5476C15.4916 46.744 14.9713 46.7956 14.4692 46.696C13.9672 46.5964 13.506 46.3501 13.144 45.9881C12.7821 45.6262 12.5357 45.165 12.4361 44.6629C12.3365 44.1609 12.3882 43.6406 12.5846 43.1679C12.7809 42.6952 13.1132 42.2914 13.5392 42.0077C13.9652 41.724 14.4659 41.5732 14.9777 41.5742C15.3168 41.5735 15.6526 41.6398 15.966 41.7692C16.2793 41.8986 16.5641 42.0886 16.8038 42.3284C17.0435 42.5681 17.2336 42.8528 17.363 43.1662C17.4924 43.4796 17.5587 43.8154 17.558 44.1545Z" fill="#878A99"/>
        <path d="M100.159 44.0408C101.349 44.0408 102.313 43.0761 102.313 41.8861C102.313 40.6961 101.349 39.7314 100.159 39.7314C98.9686 39.7314 98.0039 40.6961 98.0039 41.8861C98.0039 43.0761 98.9686 44.0408 100.159 44.0408Z" fill="#E9000E"/>
        <path d="M54.0729 64.0587C52.0098 64.063 50.0324 64.8844 48.5736 66.3433C47.1148 67.8021 46.2933 69.7794 46.2891 71.8425C46.2891 77.1807 53.2918 85.0292 53.545 85.3578C53.609 85.4395 53.6907 85.5056 53.784 85.5511C53.8774 85.5965 53.9798 85.6202 54.0836 85.6202C54.1874 85.6202 54.2899 85.5965 54.3832 85.5511C54.4765 85.5056 54.5583 85.4395 54.6223 85.3578C54.9509 85.0292 61.8782 77.1807 61.8782 71.8425C61.8739 69.7757 61.0495 67.7951 59.586 66.3356C58.1226 64.8762 56.1397 64.0573 54.0729 64.0587ZM54.0729 75.7317C53.0418 75.7303 52.0534 75.3201 51.3243 74.591C50.5953 73.862 50.1851 72.8736 50.1837 71.8425C50.1962 70.8149 50.61 69.833 51.3367 69.1063C52.0633 68.3797 53.0453 67.9659 54.0729 67.9533C55.1039 67.9547 56.0923 68.3649 56.8214 69.094C57.5504 69.8231 57.9606 70.8115 57.9621 71.8425C57.9671 72.3547 57.8699 72.8627 57.6763 73.3368C57.4826 73.8109 57.1963 74.2417 56.8342 74.6038C56.472 74.966 56.0413 75.2523 55.5671 75.4459C55.093 75.6396 54.585 75.7368 54.0729 75.7317Z" fill="#E9000E"/>
        <path d="M54.0727 94.003C55.2627 94.003 56.2273 93.0383 56.2273 91.8483C56.2273 90.6583 55.2627 89.6936 54.0727 89.6936C52.8827 89.6936 51.918 90.6583 51.918 91.8483C51.918 93.0383 52.8827 94.003 54.0727 94.003Z" fill="#E8E8E8"/>
    </g>
    <defs>
        <clipPath id="clip0_6646_60069">
            <rect width="107.734" height="96.9608" fill="white" transform="translate(0.207031 0.241699)"/>
        </clipPath>
    </defs>
</svg>
