<svg width="96" height="65" viewBox="0 0 96 65" fill="none" xmlns="http://www.w3.org/2000/svg">
<rect width="96" height="64" transform="translate(0 0.749878)" fill="white"/>
<g clip-path="url(#clip0_6744_66194)">
<path d="M65.8425 36.378H29.9834C26.3992 36.378 23.502 33.4719 23.502 29.8966V23.8203C23.502 20.2361 26.408 17.3389 29.9834 17.3389H65.8425C69.4266 17.3389 72.3239 20.2449 72.3239 23.8203V29.8966C72.3239 33.4807 69.4266 36.378 65.8425 36.378Z" fill="black"/>
<path d="M33.2674 34.2469C37.3479 34.2469 40.6558 30.939 40.6558 26.8584C40.6558 22.7779 37.3479 19.47 33.2674 19.47C29.1868 19.47 25.8789 22.7779 25.8789 26.8584C25.8789 30.939 29.1868 34.2469 33.2674 34.2469Z" fill="#0178D4"/>
<path d="M48.0445 32.151C50.9675 32.151 53.3371 29.7815 53.3371 26.8585C53.3371 23.9355 50.9675 21.5659 48.0445 21.5659C45.1215 21.5659 42.752 23.9355 42.752 26.8585C42.752 29.7815 45.1215 32.151 48.0445 32.151Z" fill="#0178D4"/>
<path d="M66.2469 24.199H63.834V26.6119H66.2469V24.199Z" fill="white"/>
<path d="M63.3504 24.199H60.9375V26.6119H63.3504V24.199Z" fill="white"/>
<path d="M66.2469 27.105H63.834V29.5179H66.2469V27.105Z" fill="white"/>
<path d="M63.3504 27.105H60.9375V29.5179H63.3504V27.105Z" fill="white"/>
<path d="M16.7642 48.0727L16.2975 46.5404H13.9374L13.4706 48.0727H12L14.272 41.6001H15.9452L18.2348 48.0727H16.7642ZM15.9628 45.3868C15.5313 43.9954 15.2847 43.2116 15.2319 43.0267C15.1791 42.8418 15.135 42.7009 15.1174 42.5952C15.0205 42.9739 14.7387 43.8985 14.2808 45.3868H15.9628Z" fill="#0178D4"/>
<path d="M22.3738 48.0727H18.4727V47.2802L20.7535 44.1716H18.6136V43.1412H22.2946V44.0131L20.0754 47.0424H22.3738V48.0727Z" fill="#0178D4"/>
<path d="M26.838 48.0726L26.653 47.4386H26.5826C26.4417 47.6675 26.2303 47.8437 25.9661 47.9669C25.7019 48.0902 25.4025 48.1519 25.0591 48.1519C24.4779 48.1519 24.0464 47.9934 23.747 47.6851C23.4563 47.3769 23.3066 46.9278 23.3066 46.3466V43.1411H24.654V46.0208C24.654 46.373 24.7156 46.646 24.8477 46.8221C24.971 46.9983 25.1736 47.0863 25.4554 47.0863C25.834 47.0863 26.107 46.963 26.2744 46.7076C26.4417 46.4523 26.5297 46.0384 26.5297 45.4572V43.1411H27.8771V48.0726H26.838Z" fill="#0178D4"/>
<path d="M32.0337 43.0444C32.2186 43.0444 32.3683 43.0532 32.4916 43.0797L32.386 44.339C32.2803 44.3125 32.1482 44.2949 31.9897 44.2949C31.5582 44.2949 31.2235 44.4094 30.9858 44.6296C30.748 44.8497 30.6247 45.1579 30.6247 45.5542V48.0728H29.2773V43.1413H30.2989L30.5014 43.9691H30.5719C30.7216 43.6961 30.9329 43.4671 31.1883 43.2998C31.4437 43.1325 31.7255 43.0444 32.0337 43.0444Z" fill="#0178D4"/>
<path d="M35.6192 48.1609C34.8266 48.1609 34.2014 47.9407 33.7611 47.5004C33.312 47.0601 33.0918 46.4437 33.0918 45.6423C33.0918 44.8145 33.2943 44.1804 33.7082 43.7225C34.1221 43.2734 34.6945 43.0444 35.4255 43.0444C36.1212 43.0444 36.6671 43.247 37.0546 43.6433C37.4421 44.0395 37.6358 44.5855 37.6358 45.29V45.9417H34.4568C34.4744 46.3204 34.5889 46.6198 34.8002 46.8399C35.0116 47.0601 35.311 47.1658 35.6896 47.1658C35.9891 47.1658 36.2709 47.1305 36.535 47.0689C36.7992 47.0073 37.0722 46.9104 37.3628 46.7695V47.8086C37.1251 47.9231 36.8785 48.0112 36.6055 48.0728C36.3325 48.1345 36.0067 48.1609 35.6192 48.1609ZM35.4255 44.0043C35.1437 44.0043 34.9147 44.0924 34.7562 44.2773C34.5977 44.4622 34.5008 44.7176 34.4744 45.0435H36.3589C36.3501 44.7088 36.2621 44.4534 36.0947 44.2773C35.945 44.0924 35.7161 44.0043 35.4255 44.0043Z" fill="#0178D4"/>
<path d="M46.3627 48.0726H44.8128L43.122 45.3515L42.5408 45.7654V48.0726H41.1758V41.6265H42.5408V44.5766L43.0779 43.8192L44.8216 41.6265H46.3451L44.0995 44.4797L46.3627 48.0726Z" fill="#0178D4"/>
<path d="M47.0137 41.8643C47.0137 41.424 47.2602 41.2039 47.7446 41.2039C48.2289 41.2039 48.4755 41.424 48.4755 41.8643C48.4755 42.0757 48.4139 42.2342 48.2906 42.3487C48.1673 42.4632 47.9824 42.5248 47.7446 42.5248C47.2602 42.5248 47.0137 42.3046 47.0137 41.8643ZM48.4139 48.0727H47.0665V43.1412H48.4139V48.0727Z" fill="#0178D4"/>
<path d="M54.3761 48.0728H53.0375V45.1931C53.0375 44.8409 52.9759 44.5679 52.8438 44.3918C52.7205 44.2157 52.518 44.1276 52.2362 44.1276C51.8575 44.1276 51.5845 44.2509 51.4172 44.5063C51.2499 44.7616 51.1618 45.1755 51.1618 45.7567V48.0728H49.8145V43.1413H50.8448L51.0297 43.7753H51.109C51.2587 43.5376 51.4612 43.3526 51.7254 43.2382C51.9896 43.1149 52.289 43.0532 52.6237 43.0532C53.1961 43.0532 53.6364 43.2117 53.927 43.52C54.2264 43.8282 54.3761 44.2773 54.3761 44.8673V48.0728Z" fill="#0178D4"/>
<path d="M57.9942 48.1609C57.2016 48.1609 56.5764 47.9407 56.1361 47.5004C55.687 47.0601 55.4668 46.4437 55.4668 45.6423C55.4668 44.8145 55.6693 44.1804 56.0832 43.7225C56.4971 43.2734 57.0695 43.0444 57.8005 43.0444C58.4961 43.0444 59.0421 43.247 59.4296 43.6433C59.8171 44.0395 60.0108 44.5855 60.0108 45.29V45.9417H56.823C56.8406 46.3204 56.9551 46.6198 57.1664 46.8399C57.3778 47.0513 57.6772 47.1658 58.0558 47.1658C58.3553 47.1658 58.637 47.1305 58.9012 47.0689C59.1654 47.0073 59.4384 46.9104 59.729 46.7695V47.8086C59.4913 47.9231 59.2447 48.0112 58.9717 48.0728C58.7075 48.1345 58.3817 48.1609 57.9942 48.1609ZM57.8093 44.0043C57.5275 44.0043 57.2985 44.0924 57.14 44.2773C56.9815 44.4622 56.8846 44.7176 56.8582 45.0435H58.7427C58.7339 44.7088 58.6459 44.4534 58.4785 44.2773C58.32 44.0924 58.0911 44.0043 57.8093 44.0043Z" fill="#0178D4"/>
<path d="M63.1031 48.1609C61.5708 48.1609 60.8047 47.3155 60.8047 45.6335C60.8047 44.7969 61.016 44.154 61.4299 43.7137C61.8438 43.2734 62.4427 43.0532 63.2264 43.0532C63.7988 43.0532 64.3096 43.1677 64.7587 43.3879L64.3624 44.427C64.1511 44.3389 63.9573 44.2685 63.7724 44.2157C63.5875 44.1628 63.4113 44.1364 63.2264 44.1364C62.5307 44.1364 62.1785 44.6295 62.1785 45.6247C62.1785 46.5933 62.5307 47.0689 63.2264 47.0689C63.4818 47.0689 63.7284 47.0337 63.9485 46.9632C64.1687 46.8928 64.3888 46.7871 64.609 46.6374V47.791C64.3888 47.9319 64.1687 48.0288 63.9485 48.0816C63.7284 48.1344 63.4466 48.1609 63.1031 48.1609Z" fill="#0178D4"/>
<path d="M67.8234 47.0864C68.0612 47.0864 68.343 47.0336 68.6688 46.9279V47.9318C68.3341 48.0815 67.9202 48.1608 67.4359 48.1608C66.8987 48.1608 66.5024 48.0287 66.2647 47.7557C66.0181 47.4827 65.8948 47.0776 65.8948 46.5316V44.1539H65.252V43.5815L65.9917 43.1324L66.3792 42.0933H67.2422V43.1412H68.6248V44.1539H67.2422V46.5316C67.2422 46.7254 67.295 46.8663 67.4007 46.9543C67.5064 47.0424 67.6473 47.0864 67.8234 47.0864Z" fill="#0178D4"/>
<path d="M77.4743 44.7879C77.4743 45.8535 77.1749 46.6636 76.5673 47.2272C75.9596 47.7908 75.0878 48.0726 73.9518 48.0726H72.1289V41.6265H74.1543C75.2111 41.6265 76.0213 41.9083 76.6113 42.4631C77.1837 43.009 77.4743 43.7928 77.4743 44.7879ZM76.0565 44.8231C76.0565 43.4406 75.4489 42.7449 74.2248 42.7449H73.4939V46.9454H74.0839C75.396 46.9454 76.0565 46.2321 76.0565 44.8231Z" fill="#0178D4"/>
<path d="M83.9994 48.0726H82.4495L80.7587 45.3515L80.1775 45.7654V48.0726H78.8125V41.6265H80.1775V44.5766L80.7147 43.8192L82.4583 41.6265H83.973L81.7274 44.4797L83.9994 48.0726Z" fill="#0178D4"/>
</g>
<defs>
<clipPath id="clip0_6744_66194">
<rect width="72" height="30.8219" fill="white" transform="translate(12 17.3389)"/>
</clipPath>
</defs>
</svg>
