<svg width="96" height="65" viewBox="0 0 96 65" fill="none" xmlns="http://www.w3.org/2000/svg">
<rect width="96" height="64" transform="translate(0 0.749878)" fill="white"/>
<g clip-path="url(#clip0_6744_66139)">
<g clip-path="url(#clip1_6744_66139)">
<path d="M33.5237 46.2082H32.4013L31.8402 44.6566H29.472L28.9473 46.2082H27.8418L30.123 40.1195H31.2622L33.5237 46.2082ZM31.6017 43.8233L30.7599 41.3934C30.7235 41.2701 30.6953 41.1445 30.6757 41.0174H30.6477C30.6296 41.1466 30.6015 41.2742 30.5635 41.399L29.7217 43.8289L31.6017 43.8233Z" fill="#465154"/>
<path d="M37.6631 42.2716L35.3146 45.4394H37.6631V46.2082H33.9453V45.8379L36.3443 42.6279H34.1754V41.8591H37.6631V42.2716Z" fill="#465154"/>
<path d="M42.2337 46.2082H41.2488V45.5208H41.232C41.1113 45.7665 40.922 45.972 40.6869 46.1125C40.4519 46.2529 40.1812 46.3222 39.9076 46.312C38.8807 46.312 38.3672 45.6948 38.3672 44.4602V41.8591H39.3464V44.3564C39.3464 45.1383 39.6476 45.5292 40.2499 45.5292C40.3866 45.5327 40.5223 45.5056 40.6471 45.4497C40.7719 45.3939 40.8826 45.3108 40.971 45.2065C41.1654 44.9703 41.2654 44.6704 41.2516 44.3648V41.8591H42.2365L42.2337 46.2082Z" fill="#465154"/>
<path d="M45.9151 42.7992C45.7644 42.6964 45.5836 42.647 45.4016 42.6589C45.2568 42.6596 45.1144 42.6961 44.9871 42.7651C44.8599 42.8341 44.7516 42.9336 44.6721 43.0545C44.4653 43.3732 44.3669 43.7501 44.3915 44.1292V46.2111H43.3926V41.8592H44.3774V42.7543H44.3971C44.4743 42.4787 44.628 42.2306 44.8404 42.0388C45.0236 41.8734 45.2614 41.7815 45.5082 41.7807C45.6485 41.7734 45.7884 41.8014 45.9151 41.862V42.7992Z" fill="#465154"/>
<path d="M50.2713 44.303H47.3083C47.3038 44.474 47.3344 44.6441 47.3981 44.8029C47.4618 44.9616 47.5572 45.1057 47.6787 45.2261C47.949 45.4565 48.2976 45.5741 48.6523 45.5544C49.1122 45.5565 49.5607 45.4109 49.9318 45.1392V45.9332C49.4535 46.2028 48.9089 46.3322 48.3605 46.3064C48.0816 46.3216 47.8027 46.2765 47.5427 46.1744C47.2827 46.0722 47.0477 45.9153 46.8537 45.7144C46.466 45.2488 46.2712 44.6524 46.3094 44.0477C46.284 43.4384 46.4997 42.8435 46.9099 42.3922C47.0987 42.1853 47.3295 42.0212 47.587 41.9108C47.8445 41.8005 48.1225 41.7465 48.4026 41.7525C48.6601 41.7361 48.918 41.7781 49.157 41.8752C49.396 41.9724 49.61 42.1223 49.7831 42.3137C50.1324 42.7688 50.3058 43.3347 50.2713 43.9074V44.303ZM49.3201 43.6072C49.3355 43.3115 49.2472 43.0197 49.0704 42.7822C48.9871 42.6846 48.8827 42.6073 48.765 42.5563C48.6473 42.5052 48.5195 42.4817 48.3914 42.4876C48.256 42.4855 48.1217 42.5122 47.9974 42.5659C47.8731 42.6196 47.7616 42.6991 47.6702 42.7991C47.465 43.023 47.338 43.3076 47.3083 43.61L49.3201 43.6072Z" fill="#465154"/>
<path d="M53.4336 45.9669V44.9259C53.5347 45.0164 53.6469 45.0937 53.7675 45.156C53.8989 45.2246 54.036 45.2819 54.1771 45.3272C54.3185 45.3735 54.4629 45.41 54.6093 45.4366C54.7407 45.4612 54.874 45.4743 55.0077 45.4759C55.3378 45.4983 55.6673 45.4242 55.9561 45.2626C56.0571 45.1956 56.1389 45.1034 56.1935 44.9952C56.2481 44.887 56.2736 44.7664 56.2675 44.6453C56.2708 44.5125 56.2346 44.3817 56.1637 44.2693C56.0881 44.1595 55.993 44.0644 55.8831 43.9888C55.7435 43.8926 55.5961 43.8082 55.4426 43.7362L54.9011 43.4837C54.6934 43.3733 54.5008 43.2611 54.3231 43.147C54.1533 43.0408 53.9969 42.9145 53.8573 42.771C53.7274 42.6354 53.6229 42.4777 53.5486 42.3052C53.47 42.1131 53.4318 41.9068 53.4364 41.6992C53.43 41.4372 53.497 41.1786 53.63 40.9528C53.7588 40.7426 53.9334 40.5643 54.1407 40.4309C54.3622 40.2892 54.6059 40.1858 54.8618 40.1251C55.1316 40.0581 55.4087 40.0242 55.6867 40.0241C56.1645 39.9942 56.643 40.0679 57.0896 40.2401V41.239C56.6963 40.9761 56.2295 40.8454 55.7569 40.8658C55.6062 40.8657 55.4559 40.8798 55.3079 40.9079C55.1685 40.9332 55.034 40.9806 54.9095 41.0482C54.7989 41.11 54.7031 41.1952 54.6289 41.2979C54.5536 41.4064 54.5152 41.5363 54.5195 41.6683C54.5158 41.7915 54.5449 41.9135 54.6036 42.0218C54.6664 42.1317 54.7515 42.2273 54.8534 42.3024C54.9785 42.395 55.1118 42.4757 55.2518 42.5437C55.4089 42.6223 55.5913 42.7065 55.7989 42.7963C56.0066 42.8861 56.2067 43.002 56.3994 43.1442C56.5798 43.2595 56.7464 43.395 56.896 43.5482C57.0363 43.6914 57.1511 43.8575 57.2355 44.0393C57.3223 44.2323 57.3654 44.4421 57.3618 44.6537C57.3705 44.9268 57.3055 45.1972 57.1738 45.4366C57.051 45.6478 56.8786 45.8259 56.6716 45.9557C56.4467 46.0911 56.1998 46.1861 55.942 46.2363C55.6561 46.2972 55.3645 46.3273 55.0722 46.326C54.9712 46.326 54.8459 46.3186 54.6962 46.3036C54.5466 46.2886 54.3867 46.2606 54.2164 46.2194C54.0678 46.1907 53.9207 46.1542 53.7759 46.11C53.656 46.0777 53.5409 46.0295 53.4336 45.9669Z" fill="#465154"/>
<path d="M60.8422 46.3121C60.4336 46.318 60.0281 46.2416 59.6497 46.0876C59.3041 45.9447 58.9931 45.7294 58.7378 45.4563C58.4792 45.1753 58.2797 44.8451 58.1513 44.4855C58.0087 44.0848 57.9384 43.6621 57.9437 43.2368C57.9379 42.7866 58.009 42.3387 58.1541 41.9125C58.2815 41.5365 58.485 41.1907 58.7518 40.8968C59.0152 40.6128 59.3381 40.3906 59.6974 40.2458C60.0934 40.0878 60.5168 40.0096 60.9432 40.0157C61.3425 40.0105 61.7388 40.0869 62.1076 40.2402C62.4494 40.384 62.7565 40.5993 63.0083 40.8715C63.2646 41.1532 63.4621 41.4833 63.5891 41.8423C63.7302 42.2423 63.7995 42.664 63.7939 43.0881C63.8004 43.6302 63.6923 44.1676 63.4769 44.665C63.2944 45.0942 63.0045 45.4691 62.6351 45.7537L64.4028 47.0276H62.8652L61.7793 46.1858C61.6317 46.2259 61.4818 46.2568 61.3304 46.2784C61.1687 46.3014 61.0055 46.3127 60.8422 46.3121ZM60.8899 40.9052C60.6265 40.9019 60.3658 40.9575 60.1267 41.0679C59.8959 41.1765 59.6918 41.3345 59.529 41.5309C59.3548 41.7425 59.2224 41.9853 59.139 42.2464C59.044 42.5457 58.9975 42.8583 59.0015 43.1723C58.9982 43.4842 59.0437 43.7947 59.1362 44.0926C59.2152 44.3519 59.3428 44.5937 59.5122 44.8053C59.6695 44.9989 59.8679 45.1552 60.093 45.2627C60.328 45.3733 60.5852 45.429 60.845 45.4254C61.1145 45.4302 61.3821 45.3786 61.6306 45.2739C61.8591 45.1743 62.0616 45.0236 62.2226 44.8334C62.3941 44.6264 62.522 44.3868 62.5986 44.1291C62.6906 43.8225 62.735 43.5036 62.7305 43.1835C62.7357 42.8564 62.6931 42.5303 62.6042 42.2155C62.5311 41.9553 62.4071 41.7121 62.2395 41.5C62.0835 41.3085 61.8845 41.1566 61.6587 41.0567C61.416 40.9524 61.154 40.9008 60.8899 40.9052Z" fill="#465154"/>
<path d="M68.1561 46.2081H64.7891V40.1194H65.7992V45.3551H68.1617L68.1561 46.2081Z" fill="#465154"/>
<path d="M30.6758 56.6461V50.5574H32.4351C34.6798 50.5574 35.8021 51.5469 35.8021 53.526C35.8178 53.9494 35.7414 54.3711 35.5781 54.762C35.4148 55.153 35.1686 55.5038 34.8565 55.7903C34.16 56.3815 33.2631 56.6828 32.3509 56.6321L30.6758 56.6461ZM31.6831 51.4132V55.7931H32.4912C32.7928 55.8121 33.0952 55.7699 33.3801 55.6691C33.6651 55.5683 33.9268 55.4111 34.1494 55.2067C34.3553 54.9854 34.5139 54.7244 34.6157 54.4398C34.7175 54.1552 34.7603 53.8529 34.7415 53.5512C34.7415 52.1277 34.0035 51.416 32.5277 51.416L31.6831 51.4132Z" fill="#465154"/>
<path d="M40.0222 56.6461H39.0654V55.9671H39.0485C38.9247 56.209 38.7348 56.411 38.5009 56.5495C38.267 56.688 37.9987 56.7575 37.727 56.7499C37.3595 56.7702 36.9987 56.6452 36.7225 56.402C36.6011 56.2824 36.5062 56.1387 36.4439 55.9802C36.3815 55.8217 36.3531 55.6518 36.3605 55.4817C36.3605 54.6605 36.8338 54.1816 37.7803 54.045L39.071 53.8627C39.071 53.2435 38.7764 52.9339 38.1871 52.9339C37.6694 52.9334 37.1697 53.1243 36.7842 53.4698V52.6084C37.2666 52.3307 37.8158 52.19 38.3723 52.2016C39.4704 52.2016 40.0194 52.7422 40.0194 53.8234L40.0222 56.6461ZM39.0654 54.5108L38.1535 54.6371C37.9272 54.6545 37.7081 54.7246 37.5137 54.8419C37.4375 54.9055 37.3782 54.9869 37.341 55.0789C37.3038 55.171 37.2899 55.2707 37.3005 55.3694C37.2979 55.4545 37.3142 55.5392 37.3482 55.6173C37.3821 55.6954 37.4329 55.765 37.4969 55.8212C37.6444 55.9441 37.8326 56.0072 38.0244 55.9979C38.1664 56.004 38.308 55.9791 38.4393 55.9248C38.5706 55.8705 38.6886 55.7882 38.7848 55.6837C38.9778 55.4654 39.0785 55.1807 39.0654 54.8896V54.5108Z" fill="#465154"/>
<path d="M43.4108 56.6011C43.1716 56.7063 42.9114 56.7553 42.6504 56.7442C41.8067 56.7442 41.3849 56.3392 41.3849 55.5293V53.0826H40.6582V52.2969H41.3849V51.2896L42.3698 51.009V52.2969H43.4108V53.0826H42.3698V55.2571C42.35 55.4548 42.3996 55.6532 42.5101 55.8183C42.5711 55.8788 42.6447 55.9251 42.7258 55.9537C42.8068 55.9823 42.8932 55.9926 42.9787 55.9838C43.1349 55.9873 43.2875 55.9367 43.4108 55.8407V56.6011Z" fill="#465154"/>
<path d="M47.6394 56.6461H46.6826V55.9671H46.6657C46.5418 56.209 46.352 56.411 46.1181 56.5495C45.8842 56.688 45.6159 56.7575 45.3442 56.7499C44.9767 56.7702 44.6159 56.6452 44.3397 56.402C44.2183 56.2824 44.1234 56.1387 44.0611 55.9802C43.9987 55.8217 43.9703 55.6518 43.9777 55.4817C43.9777 54.6605 44.451 54.1816 45.3975 54.045L46.6882 53.8627C46.6882 53.2435 46.3936 52.9339 45.8043 52.9339C45.2866 52.9334 44.7869 53.1243 44.4014 53.4698V52.6084C44.8838 52.3307 45.433 52.19 45.9895 52.2016C47.0875 52.2016 47.6366 52.7422 47.6366 53.8234L47.6394 56.6461ZM46.6882 54.5108L45.7763 54.6371C45.55 54.6545 45.3309 54.7246 45.1365 54.8419C45.0603 54.9055 45.001 54.9869 44.9638 55.0789C44.9266 55.171 44.9127 55.2707 44.9233 55.3694C44.9207 55.4545 44.937 55.5392 44.971 55.6173C45.0049 55.6954 45.0557 55.765 45.1197 55.8212C45.2672 55.9441 45.4554 56.0072 45.6472 55.9979C45.7871 56.0016 45.9261 55.9752 46.0549 55.9205C46.1836 55.8658 46.2991 55.7841 46.3936 55.6809C46.5924 55.4641 46.6982 55.178 46.6882 54.884V54.5108Z" fill="#465154"/>
<path d="M49.7565 56.0176H49.7284V56.6461H48.752V50.2095H49.7284V53.063H49.7452C49.8853 52.7942 50.0984 52.5703 50.3599 52.4169C50.6214 52.2636 50.9209 52.187 51.2239 52.196C51.4731 52.1812 51.7222 52.2264 51.9503 52.328C52.1783 52.4296 52.3786 52.5845 52.5343 52.7796C52.8645 53.2327 53.029 53.7855 53 54.3453C53.0321 54.9707 52.8478 55.588 52.4781 56.0934C52.3091 56.3081 52.0915 56.4796 51.8432 56.5937C51.5949 56.7079 51.323 56.7614 51.05 56.75C50.7874 56.7613 50.5269 56.6987 50.2982 56.5692C50.0696 56.4397 49.8818 56.2486 49.7565 56.0176ZM49.7284 54.2892V54.8279C49.7207 55.1264 49.8294 55.4162 50.0314 55.636C50.1388 55.7483 50.2693 55.8358 50.4138 55.8927C50.5584 55.9495 50.7135 55.9742 50.8686 55.9651C51.0236 55.9561 51.1749 55.9134 51.3118 55.8401C51.4487 55.7668 51.5681 55.6646 51.6616 55.5406C51.8893 55.1862 51.9983 54.7686 51.9731 54.3481C51.9971 53.9911 51.8981 53.6366 51.6925 53.3436C51.5989 53.2254 51.4787 53.1311 51.3417 53.0682C51.2046 53.0053 51.0547 52.9756 50.9041 52.9817C50.7447 52.9766 50.5863 53.0075 50.4406 53.0722C50.2948 53.1368 50.1655 53.2334 50.0623 53.3549C49.8393 53.6143 49.7203 53.9472 49.7284 54.2892Z" fill="#465154"/>
<path d="M57.2585 56.6461H56.3017V55.9671H56.2849C56.161 56.2091 55.9711 56.411 55.7372 56.5495C55.5034 56.6881 55.235 56.7575 54.9633 56.7499C54.5958 56.7702 54.235 56.6453 53.9588 56.402C53.8375 56.2824 53.7425 56.1388 53.6802 55.9802C53.6178 55.8217 53.5895 55.6519 53.5969 55.4817C53.5969 54.6605 54.0701 54.1816 55.0166 54.0451L56.3073 53.8627C56.3073 53.2435 56.0127 52.9339 55.4235 52.9339C54.9057 52.9334 54.4061 53.1243 54.0205 53.4699V52.6085C54.5057 52.3268 55.059 52.1841 55.6199 52.196C56.7179 52.196 57.2669 52.7366 57.2669 53.8178L57.2585 56.6461ZM56.3073 54.5108L55.3954 54.6371C55.1691 54.6545 54.95 54.7246 54.7557 54.8419C54.6795 54.9055 54.6202 54.987 54.583 55.079C54.5458 55.171 54.5318 55.2708 54.5424 55.3694C54.5399 55.4546 54.5561 55.5392 54.5901 55.6173C54.6241 55.6954 54.6748 55.765 54.7388 55.8212C54.8863 55.9441 55.0746 56.0072 55.2663 55.998C55.4062 56.0017 55.5452 55.9753 55.674 55.9206C55.8028 55.8659 55.9183 55.7841 56.0127 55.6809C56.2115 55.4641 56.3173 55.178 56.3073 54.884V54.5108Z" fill="#465154"/>
<path d="M58.1699 56.5115V55.608C58.517 55.8812 58.946 56.0295 59.3877 56.0289C59.9825 56.0289 60.2799 55.853 60.2799 55.5014C60.2828 55.4112 60.2562 55.3225 60.2042 55.2488C60.1483 55.1746 60.0788 55.1118 59.9993 55.0636C59.9028 55.0045 59.8003 54.9556 59.6935 54.9177L59.3007 54.7746C59.1352 54.7101 58.9741 54.6351 58.8181 54.5502C58.6853 54.4759 58.5651 54.3812 58.4617 54.2696C58.3686 54.1708 58.2961 54.0544 58.2485 53.9273C58.1974 53.7842 58.1727 53.633 58.1755 53.4811C58.1703 53.2837 58.2219 53.0889 58.3242 52.92C58.4254 52.7574 58.5615 52.6194 58.7227 52.5159C58.8953 52.4042 59.0848 52.3208 59.2839 52.269C59.4993 52.2139 59.7209 52.1866 59.9432 52.1876C60.3105 52.1819 60.6757 52.2437 61.0207 52.37V53.2314C60.7107 53.0207 60.3432 52.911 59.9685 52.9172C59.8551 52.9162 59.7419 52.9294 59.6318 52.9564C59.5405 52.9777 59.4533 53.0138 59.3736 53.0631C59.3069 53.1041 59.2503 53.1597 59.2081 53.2258C59.1688 53.2889 59.1484 53.3619 59.1492 53.4362C59.1463 53.5197 59.1667 53.6023 59.2081 53.6747C59.253 53.7447 59.3135 53.8032 59.3849 53.8459C59.4735 53.9003 59.5676 53.9454 59.6655 53.9806L60.0414 54.1153C60.2127 54.1843 60.3803 54.262 60.5437 54.3481C60.6825 54.4234 60.81 54.5179 60.9225 54.6287C61.0255 54.7273 61.1076 54.8456 61.1638 54.9767C61.2233 55.1255 61.2519 55.285 61.248 55.4452C61.2533 55.6484 61.2007 55.8488 61.0964 56.0232C60.9936 56.1881 60.8544 56.3272 60.6896 56.4301C60.5079 56.5419 60.3087 56.6225 60.1004 56.6686C59.8704 56.7218 59.635 56.7481 59.3989 56.7472C58.9771 56.7571 58.5581 56.6767 58.1699 56.5115Z" fill="#465154"/>
<path d="M65.8333 54.7409H62.8675C62.8617 54.9133 62.8916 55.0851 62.9554 55.2454C63.0191 55.4057 63.1153 55.5511 63.2379 55.6724C63.5083 55.9028 63.8569 56.0204 64.2116 56.0007C64.6715 56.0026 65.1199 55.857 65.491 55.5855V56.3795C65.0127 56.6491 64.4682 56.7784 63.9197 56.7527C63.6408 56.768 63.3618 56.7231 63.1018 56.6209C62.8418 56.5188 62.6069 56.3618 62.413 56.1607C62.0242 55.6955 61.8284 55.099 61.8658 54.494C61.8401 53.8846 62.0559 53.2897 62.4663 52.8385C62.6551 52.6316 62.886 52.4675 63.1434 52.3571C63.4009 52.2468 63.679 52.1928 63.959 52.1988C64.2165 52.1824 64.4744 52.2244 64.7134 52.3215C64.9525 52.4187 65.1665 52.5685 65.3395 52.7599C65.6889 53.2151 65.8622 53.781 65.8277 54.3537L65.8333 54.7409ZM64.8794 54.0422C64.8947 53.7466 64.8064 53.4548 64.6296 53.2173C64.5464 53.1197 64.4419 53.0424 64.3242 52.9913C64.2066 52.9403 64.0788 52.9168 63.9506 52.9227C63.8152 52.9206 63.6809 52.9473 63.5566 53.001C63.4323 53.0547 63.3208 53.1341 63.2295 53.2341C63.0242 53.4581 62.8972 53.7427 62.8675 54.045L64.8794 54.0422Z" fill="#465154"/>
<path d="M48.0274 15.975C42.5166 15.975 38.0469 14.4178 38.0469 12.3639V31.6065C38.0469 33.5706 42.4381 35.1868 47.8871 35.2177H48.0274C53.5381 35.2177 58.0078 33.6604 58.0078 31.6065V12.3611C58.0078 14.3617 53.5381 15.975 48.0274 15.975Z" fill="url(#paint0_linear_6744_66139)"/>
<path d="M58.0078 12.361C58.0078 14.37 53.5409 15.9722 48.0274 15.9722C42.5138 15.9722 38.0469 14.4177 38.0469 12.361C38.0469 10.3043 42.5166 8.74988 48.0274 8.74988C53.5381 8.74988 58.0078 10.3071 58.0078 12.361Z" fill="#E8E8E8"/>
<path d="M55.6872 12.0664C55.6872 13.3431 52.2528 14.3616 48.0272 14.3616C43.8016 14.3616 40.3672 13.3347 40.3672 12.058C40.3672 10.7814 43.8072 9.77686 48.0272 9.77686C52.2472 9.77686 55.6872 10.8038 55.6872 12.0664Z" fill="#50E6FF"/>
<path d="M48.0266 12.6416C45.972 12.586 43.923 12.883 41.9688 13.5198C43.9234 14.1479 45.972 14.4327 48.0238 14.3616C50.0798 14.4215 52.13 14.1156 54.0789 13.4581C52.1209 12.8513 50.0754 12.5754 48.0266 12.6416Z" fill="#198AB3"/>
<path d="M54.0984 25.7199V20.428H52.6954V26.8562H56.5254V25.7199H54.0984ZM42.9927 23.1188C42.7034 23.0025 42.4352 22.8395 42.1987 22.6362C42.1355 22.5698 42.0863 22.4913 42.054 22.4056C42.0217 22.3198 42.007 22.2284 42.0107 22.1368C42.0062 22.0456 42.0252 21.9549 42.066 21.8733C42.1068 21.7917 42.168 21.722 42.2436 21.671C42.4349 21.538 42.6647 21.472 42.8973 21.483C43.4494 21.461 43.9935 21.6207 44.4462 21.9375V20.5991C43.9487 20.4138 43.4194 20.329 42.8889 20.3494C42.2826 20.3204 41.6857 20.5084 41.2054 20.8797C40.9945 21.0426 40.8253 21.2531 40.7117 21.4941C40.598 21.735 40.5432 21.9995 40.5516 22.2658C40.5516 23.0599 41.0511 23.6688 42.1089 24.1486C42.4527 24.2947 42.777 24.4832 43.0741 24.7097C43.1469 24.771 43.2055 24.8475 43.2457 24.9337C43.286 25.02 43.3069 25.114 43.307 25.2092C43.3069 25.3037 43.2842 25.3969 43.2408 25.4808C43.1973 25.5648 43.1344 25.6371 43.0573 25.6918C42.8452 25.8161 42.6013 25.8756 42.3558 25.863C41.7343 25.8546 41.1366 25.6225 40.6723 25.2092V26.657C41.1865 26.9226 41.7606 27.0511 42.339 27.0302C42.9917 27.0692 43.6388 26.8884 44.1768 26.5167C44.3646 26.3382 44.5086 26.1187 44.5977 25.8753C44.6868 25.632 44.7184 25.3714 44.6903 25.1138C44.6972 24.7155 44.5585 24.3284 44.3003 24.0251C43.9339 23.6334 43.4881 23.3244 42.9927 23.1188ZM51.1298 25.5852C51.4676 25.0435 51.6467 24.418 51.6467 23.7796C51.6467 23.1412 51.4676 22.5157 51.1298 21.974C50.8885 21.492 50.5134 21.0897 50.0495 20.8152C49.5748 20.5465 49.0378 20.4071 48.4922 20.4111C47.9035 20.398 47.322 20.5434 46.8087 20.832C46.328 21.1006 45.9338 21.5006 45.6723 21.9852C45.3968 22.5362 45.2582 23.1454 45.2683 23.7614C45.2744 24.2977 45.403 24.8256 45.6443 25.3046C45.8819 25.7859 46.2555 26.1869 46.7189 26.4578C47.1894 26.7442 47.7257 26.9046 48.2762 26.9236L49.6146 28.4808H51.4973L49.5837 26.7692C50.2247 26.5734 50.7736 26.153 51.1298 25.5852ZM49.5725 25.1952C49.4305 25.3711 49.2498 25.5118 49.0443 25.6063C48.8389 25.7007 48.6144 25.7463 48.3884 25.7395C48.1606 25.747 47.9343 25.7 47.7284 25.6024C47.5224 25.5048 47.3428 25.3594 47.2044 25.1783C46.879 24.7272 46.723 24.1758 46.7638 23.6211C46.7277 23.0651 46.8875 22.5141 47.2156 22.0638C47.3623 21.8833 47.5475 21.7379 47.7578 21.6384C47.968 21.5388 48.1979 21.4877 48.4305 21.4886C48.6577 21.4789 48.8837 21.5264 49.0877 21.6269C49.2917 21.7275 49.4671 21.8777 49.5978 22.0638C49.9006 22.5243 50.0444 23.0712 50.0074 23.6211C50.0685 24.1838 49.9175 24.7491 49.5837 25.2064L49.5725 25.1952Z" fill="url(#paint1_radial_6744_66139)"/>
</g>
</g>
<defs>
<linearGradient id="paint0_linear_6744_66139" x1="38.0469" y1="23.7894" x2="58.0078" y2="23.7894" gradientUnits="userSpaceOnUse">
<stop stop-color="#005BA1"/>
<stop offset="0.07" stop-color="#0060A9"/>
<stop offset="0.36" stop-color="#0071C8"/>
<stop offset="0.52" stop-color="#0078D4"/>
<stop offset="0.64" stop-color="#0074CD"/>
<stop offset="0.82" stop-color="#006ABB"/>
<stop offset="1" stop-color="#005BA1"/>
</linearGradient>
<radialGradient id="paint1_radial_6744_66139" cx="0" cy="0" r="1" gradientUnits="userSpaceOnUse" gradientTransform="translate(48.5876 24.4263) scale(11.0074)">
<stop stop-color="#F2F2F2"/>
<stop offset="0.58" stop-color="#EEEEEE"/>
<stop offset="1" stop-color="#E6E6E6"/>
</radialGradient>
<clipPath id="clip0_6744_66139">
<rect width="72" height="48" fill="white" transform="translate(12 8.74988)"/>
</clipPath>
<clipPath id="clip1_6744_66139">
<rect width="40.3147" height="48" fill="white" transform="translate(27.8418 8.74988)"/>
</clipPath>
</defs>
</svg>
