<svg width="96" height="65" viewBox="0 0 96 65" fill="none" xmlns="http://www.w3.org/2000/svg">
<rect width="96" height="64" transform="translate(0 0.839844)" fill="white"/>
<g clip-path="url(#clip0_6744_65595)">
<g clip-path="url(#clip1_6744_65595)">
<path d="M53.2339 17.4604H54.4206L57.8 14.081L57.9671 12.6454C56.0304 10.9354 53.6898 9.74748 51.1663 9.19378C48.6428 8.64008 46.0199 8.73893 43.5452 9.48099C41.0706 10.223 38.826 11.5838 37.0235 13.4347C35.2211 15.2856 33.9203 17.5654 33.2441 20.0589C33.6207 19.9037 34.0383 19.8785 34.4308 19.9873L41.193 18.8722C41.193 18.8722 41.534 18.3027 41.7147 18.3368C43.1636 16.7454 45.1661 15.7681 47.3121 15.6052C49.4581 15.4422 51.5852 16.106 53.2578 17.4604H53.2339Z" fill="#EA4335"/>
<path d="M62.6158 20.0589C61.8392 17.1979 60.2439 14.626 58.0259 12.6591L53.2825 17.4025C54.2713 18.2106 55.0638 19.2326 55.6002 20.3916C56.1365 21.5506 56.4028 22.8162 56.3788 24.093V24.9353C57.4782 24.9665 58.522 25.4252 59.2885 26.2138C60.0551 27.0024 60.4839 28.0589 60.4839 29.1586C60.4839 30.2584 60.0551 31.3148 59.2885 32.1035C58.522 32.8921 57.4782 33.3507 56.3788 33.382H47.9321L47.0898 34.2379V39.3019L47.9321 40.1441H56.3788C58.7369 40.1608 61.0376 39.4183 62.9412 38.0266C64.8447 36.6348 66.25 34.6675 66.9493 32.4155C67.6486 30.1635 67.6048 27.7463 66.8245 25.5211C66.0441 23.2959 64.5685 21.3808 62.6158 20.0589Z" fill="#4285F4"/>
<path d="M39.47 40.0929H47.9167V33.3308H39.47C38.8731 33.3276 38.2837 33.1974 37.7411 32.9489L36.5544 33.3171L33.1443 36.6965L32.8477 37.8832C34.7536 39.3251 37.0801 40.1014 39.47 40.0929Z" fill="#34A853"/>
<path d="M39.4708 18.1595C37.1827 18.1736 34.9562 18.9019 33.1021 20.2427C31.248 21.5835 29.8589 23.4698 29.1288 25.6383C28.3988 27.8068 28.3641 30.1492 29.0297 32.3383C29.6953 34.5275 31.028 36.4541 32.8416 37.8492L37.7419 32.9523C37.1196 32.6711 36.5748 32.243 36.1543 31.705C35.7338 31.1669 35.45 30.5348 35.3275 29.863C35.2049 29.1912 35.2471 28.4997 35.4506 27.8478C35.654 27.1959 36.0125 26.6031 36.4954 26.1202C36.9783 25.6373 37.5711 25.2787 38.223 25.0753C38.8749 24.8719 39.5665 24.8297 40.2383 24.9522C40.9101 25.0748 41.5421 25.3585 42.0802 25.779C42.6183 26.1996 43.0463 26.7443 43.3276 27.3666L48.2244 22.48C47.1984 21.1324 45.874 20.041 44.3552 19.2914C42.8364 18.5417 41.1645 18.1543 39.4708 18.1595Z" fill="#FBBC05"/>
<path d="M19.5084 54.1936C18.9058 54.2035 18.3074 54.0917 17.749 53.865C17.1906 53.6382 16.6837 53.3012 16.2586 52.8739C15.8272 52.4579 15.4841 51.9592 15.2497 51.4075C15.0153 50.8559 14.8945 50.2627 14.8945 49.6634C14.8945 49.064 15.0153 48.4708 15.2497 47.9192C15.4841 47.3676 15.8272 46.8689 16.2586 46.4528C16.68 46.0176 17.1852 45.6723 17.7437 45.4379C18.3023 45.2034 18.9026 45.0847 19.5084 45.0888C20.0851 45.0823 20.6573 45.1905 21.1917 45.4071C21.7262 45.6237 22.2123 45.9444 22.6218 46.3505L21.7454 47.2405C21.1451 46.6605 20.3396 46.3417 19.505 46.3539C19.0724 46.3491 18.6435 46.4342 18.2455 46.6039C17.8475 46.7735 17.4891 47.024 17.193 47.3394C16.5834 47.9593 16.2418 48.794 16.2418 49.6634C16.2418 50.5328 16.5834 51.3674 17.193 51.9873C17.8026 52.5944 18.625 52.9398 19.4854 52.95C20.3457 52.9601 21.1761 52.6344 21.7999 52.0419C22.1891 51.6202 22.4287 51.0821 22.482 50.5108H19.522V49.2525H23.6993C23.7393 49.5062 23.7553 49.763 23.7471 50.0197C23.7731 50.5517 23.691 51.0834 23.5058 51.5827C23.3205 52.0821 23.0361 52.5387 22.6695 52.9251C22.2606 53.3459 21.768 53.6762 21.2235 53.8947C20.679 54.1132 20.0947 54.215 19.5084 54.1936ZM29.2168 53.3718C28.6557 53.9093 27.9086 54.2094 27.1316 54.2094C26.3545 54.2094 25.6075 53.9093 25.0463 53.3718C24.5 52.8125 24.1941 52.0616 24.1941 51.2797C24.1941 50.4979 24.5 49.747 25.0463 49.1877C25.6079 48.6509 26.3548 48.3514 27.1316 48.3514C27.9084 48.3514 28.6553 48.6509 29.2168 49.1877C29.7648 49.7462 30.0717 50.4973 30.0717 51.2797C30.0717 52.0621 29.7648 52.8133 29.2168 53.3718ZM25.967 52.55C26.2562 52.8586 26.6559 53.0398 27.0785 53.0538C27.5012 53.0679 27.9121 52.9137 28.2211 52.625L28.2961 52.55C28.6122 52.2017 28.7873 51.7483 28.7873 51.278C28.7873 50.8078 28.6122 50.3543 28.2961 50.0061C28.1488 49.8524 27.9727 49.7292 27.7778 49.6436C27.5829 49.558 27.373 49.5117 27.1602 49.5072C26.9474 49.5028 26.7358 49.5403 26.5375 49.6178C26.3392 49.6952 26.1581 49.8109 26.0045 49.9583L25.9568 50.0061C25.6393 50.3536 25.4632 50.8073 25.4632 51.278C25.4632 51.7488 25.6393 52.2025 25.9568 52.55H25.967ZM35.6243 53.3718C35.0632 53.9093 34.3161 54.2094 33.5391 54.2094C32.762 54.2094 32.015 53.9093 31.4538 53.3718C30.9075 52.8125 30.6016 52.0616 30.6016 51.2797C30.6016 50.4979 30.9075 49.747 31.4538 49.1877C32.015 48.6501 32.762 48.3501 33.5391 48.3501C34.3161 48.3501 35.0632 48.6501 35.6243 49.1877C36.1707 49.747 36.4765 50.4979 36.4765 51.2797C36.4765 52.0616 36.1707 52.8125 35.6243 53.3718ZM32.3745 52.55C32.6637 52.8586 33.0634 53.0398 33.486 53.0538C33.9087 53.0679 34.3196 52.9137 34.6286 52.625L34.7036 52.55C35.0197 52.2017 35.1948 51.7483 35.1948 51.278C35.1948 50.8078 35.0197 50.3543 34.7036 50.0061C34.4063 49.6967 33.9984 49.5179 33.5694 49.5089C33.1404 49.5 32.7254 49.6616 32.4155 49.9583L32.3677 50.0061C32.0502 50.3536 31.8742 50.8073 31.8742 51.278C31.8742 51.7488 32.0502 52.2025 32.3677 52.55H32.3745ZM39.8357 56.8364C39.2454 56.8553 38.6665 56.6711 38.1955 56.3147C37.7779 56.0005 37.4489 55.5834 37.2407 55.1041L38.3626 54.6369C38.4845 54.9235 38.6755 55.1754 38.9184 55.3701C39.1785 55.58 39.5051 55.6901 39.8392 55.6804C40.0507 55.6929 40.2625 55.6598 40.4602 55.5833C40.6579 55.5068 40.8368 55.3887 40.9849 55.2371C41.2811 54.8796 41.4277 54.4214 41.3941 53.9583V53.5355H41.3498C41.1628 53.7551 40.9277 53.9287 40.6628 54.0428C40.3978 54.157 40.1102 54.2086 39.8221 54.1936C39.4528 54.1946 39.0873 54.119 38.7487 53.9717C38.41 53.8244 38.1056 53.6085 37.8545 53.3377C37.315 52.7838 37.0131 52.0411 37.0131 51.2678C37.0131 50.4945 37.315 49.7519 37.8545 49.1979C38.1047 48.9255 38.4088 48.7081 38.7476 48.5596C39.0863 48.4111 39.4522 48.3346 39.8221 48.3352C40.1356 48.3344 40.4454 48.4031 40.7292 48.5363C40.9746 48.6431 41.1935 48.8026 41.3703 49.0035H41.4146V48.5363H42.6354V53.7844C42.6665 54.1991 42.613 54.6157 42.4782 55.009C42.3434 55.4024 42.13 55.7642 41.8511 56.0726C41.5849 56.3275 41.2704 56.5265 40.9259 56.6577C40.5815 56.7889 40.2143 56.8497 39.846 56.8364H39.8357ZM39.9244 53.0547C40.1344 53.0593 40.3428 53.0178 40.5349 52.9329C40.727 52.848 40.8981 52.722 41.0361 52.5636C41.3398 52.215 41.4995 51.7639 41.4828 51.3019C41.5018 50.8323 41.3422 50.3729 41.0361 50.0163C40.8983 49.8578 40.7272 49.7316 40.5351 49.6467C40.3429 49.5618 40.1344 49.5204 39.9244 49.5253C39.7085 49.5208 39.494 49.5622 39.2953 49.6469C39.0966 49.7316 38.9182 49.8575 38.7718 50.0163C38.4466 50.3602 38.2701 50.8185 38.2808 51.2917C38.2754 51.524 38.3161 51.755 38.4003 51.9716C38.4846 52.1881 38.6109 52.3858 38.7718 52.5534C38.9185 52.7165 39.0986 52.846 39.2998 52.9331C39.5011 53.0202 39.7188 53.0628 39.9381 53.0581L39.9244 53.0547ZM44.794 45.4264V54.03H43.522V45.4264H44.794ZM48.3132 54.1936C47.934 54.2022 47.557 54.1335 47.2052 53.9916C46.8534 53.8497 46.5342 53.6377 46.2671 53.3684C45.9943 53.095 45.7799 52.7691 45.6368 52.4103C45.4938 52.0516 45.4252 51.6675 45.4351 51.2814C45.4207 50.8944 45.4842 50.5084 45.6219 50.1464C45.7596 49.7844 45.9685 49.4537 46.2364 49.174C46.4893 48.9079 46.7949 48.6974 47.1337 48.5559C47.4724 48.4144 47.837 48.345 48.204 48.3522C48.5421 48.3482 48.8774 48.4132 49.1895 48.5432C49.4704 48.6561 49.7264 48.8229 49.9432 49.0342C50.1289 49.2139 50.2937 49.4141 50.4342 49.631C50.5479 49.814 50.6449 50.0069 50.7241 50.2073L50.8571 50.5483L46.9116 52.1476C47.0307 52.4215 47.23 52.6529 47.4832 52.8112C47.7365 52.9695 48.0318 53.0472 48.3302 53.0342C48.6202 53.0348 48.9055 52.9604 49.1582 52.8182C49.411 52.676 49.6227 52.4708 49.7727 52.2226L50.7582 52.8876C50.5074 53.2475 50.186 53.5527 49.8136 53.7844C49.3649 54.0661 48.8427 54.2085 48.3132 54.1936ZM46.6695 51.1757L49.2884 50.0879C49.2077 49.8962 49.0631 49.7384 48.8792 49.6412C48.6716 49.5232 48.436 49.4631 48.1972 49.4673C47.7971 49.4778 47.4173 49.6457 47.1401 49.9345C46.9758 50.0974 46.8499 50.2948 46.7715 50.5125C46.693 50.7301 46.664 50.9625 46.6866 51.1928L46.6695 51.1757Z" fill="#5F6368"/>
<path d="M57.5784 54.1936C57.0457 54.203 56.5163 54.1074 56.0205 53.9122C55.5247 53.7169 55.0723 53.4258 54.6891 53.0556C54.3059 52.6854 53.9994 52.2433 53.7871 51.7545C53.5749 51.2658 53.4611 50.74 53.4522 50.2072C53.4522 50.1526 53.4522 50.0981 53.4522 50.0435C53.4275 48.9683 53.8306 47.9273 54.573 47.1492C55.3153 46.371 56.3362 45.9194 57.4113 45.8935H57.575C58.128 45.8764 58.6776 45.9844 59.183 46.2094C59.6885 46.4343 60.1366 46.7705 60.494 47.1927L59.7847 47.8747C59.5239 47.5421 59.1879 47.276 58.8045 47.0982C58.421 46.9204 58.0008 46.8359 57.5784 46.8517C57.1733 46.843 56.7706 46.9161 56.3944 47.0667C56.0182 47.2172 55.6763 47.4422 55.3892 47.7281C54.8179 48.3559 54.5013 49.1742 54.5013 50.023C54.5013 50.8719 54.8179 51.6902 55.3892 52.318C55.6762 52.604 56.0181 52.8291 56.3943 52.9797C56.7705 53.1303 57.1733 53.2033 57.5784 53.1944C58.049 53.1997 58.5148 53.0989 58.9411 52.8993C59.3674 52.6998 59.7431 52.4067 60.0405 52.0418L60.7498 52.7511C60.3767 53.1892 59.9108 53.5386 59.3857 53.7741C58.8227 54.0485 58.2048 54.1919 57.5784 54.1936Z" fill="#5F6368"/>
<path d="M62.6597 54.0333H61.6367V46.0811H62.6597V54.0333Z" fill="#5F6368"/>
<path d="M64.3413 49.2456C64.8753 48.7154 65.5973 48.4178 66.3498 48.4178C67.1023 48.4178 67.8243 48.7154 68.3583 49.2456C68.8662 49.8148 69.1468 50.5509 69.1468 51.3138C69.1468 52.0766 68.8662 52.8127 68.3583 53.382C67.8243 53.9121 67.1023 54.2097 66.3498 54.2097C65.5973 54.2097 64.8753 53.9121 64.3413 53.382C63.8334 52.8127 63.5527 52.0766 63.5527 51.3138C63.5527 50.5509 63.8334 49.8148 64.3413 49.2456ZM65.0983 52.7409C65.2524 52.9062 65.4378 53.0393 65.6437 53.1324C65.8497 53.2255 66.0721 53.2767 66.298 53.283C66.5239 53.2894 66.7489 53.2508 66.9597 53.1694C67.1706 53.088 67.3632 52.9655 67.5263 52.8091L67.5945 52.7409C67.9345 52.3431 68.1214 51.837 68.1214 51.3138C68.1214 50.7905 67.9345 50.2844 67.5945 49.8866C67.4404 49.7213 67.255 49.5882 67.049 49.4951C66.8431 49.402 66.6207 49.3508 66.3948 49.3445C66.1688 49.3381 65.9439 49.3768 65.733 49.4581C65.5222 49.5395 65.3296 49.662 65.1665 49.8184L65.0983 49.8866C64.7565 50.2829 64.5685 50.7888 64.5685 51.312C64.5685 51.8353 64.7565 52.3412 65.0983 52.7375V52.7409Z" fill="#5F6368"/>
<path d="M74.7752 54.0333H73.7897V53.2797H73.759C73.5837 53.5667 73.3354 53.8021 73.0394 53.9617C72.7287 54.1414 72.3754 54.2345 72.0164 54.2311C71.7288 54.2505 71.4406 54.2047 71.1731 54.0973C70.9057 53.9898 70.6659 53.8234 70.4717 53.6104C70.0984 53.1388 69.9104 52.5469 69.9431 51.9463V48.5977H70.9661V51.7588C70.9661 52.7727 71.414 53.2797 72.3097 53.2797C72.5068 53.2842 72.7023 53.2421 72.88 53.1568C73.0578 53.0714 73.2129 52.9453 73.3327 52.7886C73.597 52.454 73.7378 52.0385 73.7317 51.6122V48.5977H74.7547V54.0333H74.7752Z" fill="#5F6368"/>
<path d="M78.2372 54.1935C77.8915 54.195 77.5497 54.1213 77.2353 53.9777C76.9209 53.834 76.6414 53.6238 76.4162 53.3615C75.9233 52.7871 75.6523 52.0553 75.6523 51.2984C75.6523 50.5415 75.9233 49.8097 76.4162 49.2353C76.6414 48.9731 76.9209 48.7628 77.2353 48.6192C77.5497 48.4755 77.8915 48.4018 78.2372 48.4033C78.6242 48.3975 79.0064 48.4889 79.3489 48.6693C79.6508 48.8204 79.9064 49.0501 80.0889 49.3342H80.1332L80.0889 48.5806V46.064H81.1119V54.0162H80.1264V53.2626H80.082C79.8996 53.5467 79.644 53.7764 79.3421 53.9276C79.0017 54.1069 78.6219 54.1983 78.2372 54.1935ZM78.4043 53.2626C78.6344 53.2658 78.8625 53.22 79.0736 53.1283C79.2847 53.0366 79.4738 52.901 79.6285 52.7306C79.947 52.3212 80.12 51.8172 80.12 51.2984C80.12 50.7796 79.947 50.2756 79.6285 49.8662C79.3313 49.5404 78.9169 49.3459 78.4763 49.3254C78.0358 49.3049 77.6051 49.4602 77.279 49.7571C77.2415 49.7912 77.2039 49.8287 77.1698 49.8662C76.851 50.2736 76.6778 50.776 76.6778 51.2933C76.6778 51.8106 76.851 52.313 77.1698 52.7204C77.323 52.8972 77.5127 53.0388 77.7258 53.1353C77.9389 53.2319 78.1703 53.2811 78.4043 53.2797V53.2626Z" fill="#5F6368"/>
</g>
</g>
<defs>
<clipPath id="clip0_6744_65595">
<rect width="72" height="48" fill="white" transform="translate(12 8.83984)"/>
</clipPath>
<clipPath id="clip1_6744_65595">
<rect width="66.2097" height="48" fill="white" transform="translate(14.8945 8.83984)"/>
</clipPath>
</defs>
</svg>
