<svg width="96" height="65" viewBox="0 0 96 65" fill="none" xmlns="http://www.w3.org/2000/svg">
<rect width="96" height="64" transform="translate(0 0.749878)" fill="white"/>
<g clip-path="url(#clip0_6744_66165)">
<g clip-path="url(#clip1_6744_66165)">
<path d="M27.5846 45.4948H26.5729L26.0671 44.0961H23.9324L23.4569 45.4948H22.4629L24.5192 40.0038H25.546L27.5846 45.4948ZM25.8495 43.355L25.0908 41.1647C25.0586 41.0518 25.0341 40.9369 25.0174 40.8207H24.9921C24.9758 40.9372 24.9504 41.0522 24.9163 41.1647L24.1575 43.355H25.8495Z" fill="#465154"/>
<path d="M31.3161 41.9462L29.1991 44.8017H31.3161V45.4947H27.9648V45.1709L30.1273 42.2775H28.1722V41.5845H31.3161V41.9462Z" fill="#465154"/>
<path d="M35.4351 45.4947H34.5473V44.875H34.5322C34.4233 45.0966 34.2527 45.2818 34.0408 45.4084C33.829 45.535 33.585 45.5974 33.3384 45.5883C32.4126 45.5883 31.949 45.0319 31.9473 43.919V41.5769H32.8325V43.8279C32.8325 44.5328 33.104 44.8852 33.6469 44.8852C33.7701 44.8883 33.8925 44.8639 34.0049 44.8135C34.1174 44.7632 34.2172 44.6883 34.2969 44.5943C34.4721 44.3813 34.5622 44.111 34.5499 43.8355V41.5794H35.4376L35.4351 45.4947Z" fill="#465154"/>
<path d="M38.7543 42.4218C38.6185 42.3289 38.4555 42.2844 38.2914 42.2953C38.1627 42.2957 38.0359 42.3274 37.9222 42.3878C37.8085 42.4482 37.7113 42.5354 37.6389 42.6418C37.4525 42.9291 37.3638 43.2688 37.3859 43.6105V45.4872H36.4805V41.5669H37.3682V42.3889H37.3859C37.4556 42.1405 37.5941 41.9169 37.7856 41.744C37.9507 41.5949 38.1651 41.512 38.3875 41.5113C38.514 41.5047 38.64 41.5299 38.7543 41.5846V42.4218Z" fill="#465154"/>
<path d="M42.6824 43.7774H40.0115C40.0064 43.9328 40.0335 44.0875 40.0909 44.232C40.1483 44.3765 40.235 44.5076 40.3454 44.6171C40.589 44.8272 40.9043 44.935 41.2255 44.9181C41.6401 44.9199 42.0444 44.7887 42.3789 44.5437V45.2595C41.9478 45.5025 41.4569 45.6191 40.9625 45.5959C40.7111 45.6096 40.4597 45.569 40.2253 45.4769C39.991 45.3848 39.7792 45.2434 39.6043 45.0622C39.2548 44.6425 39.0792 44.1049 39.1136 43.5599C39.0907 43.0069 39.2881 42.4675 39.6625 42.06C39.8327 41.8735 40.0408 41.7255 40.2729 41.6261C40.5049 41.5266 40.7556 41.478 41.008 41.4833C41.2401 41.4686 41.4726 41.5064 41.6881 41.594C41.9035 41.6816 42.0964 41.8167 42.2524 41.9892C42.5673 42.3994 42.7236 42.9096 42.6925 43.4258L42.6824 43.7774ZM41.825 43.1476C41.839 42.881 41.7594 42.618 41.5999 42.404C41.5251 42.3155 41.431 42.2454 41.3249 42.1989C41.2188 42.1525 41.1035 42.1309 40.9878 42.1359C40.8658 42.134 40.7447 42.1581 40.6326 42.2065C40.5206 42.2549 40.4201 42.3265 40.3378 42.4166C40.1527 42.6185 40.0383 42.875 40.0115 43.1476H41.825Z" fill="#465154"/>
<path d="M45.5322 45.2773V44.3389C45.6234 44.4205 45.7245 44.4902 45.8332 44.5463C45.9516 44.6082 46.0752 44.6598 46.2025 44.7006C46.3299 44.7424 46.46 44.7753 46.592 44.7992C46.7104 44.8214 46.8306 44.8333 46.9511 44.8346C47.2487 44.8548 47.5457 44.788 47.806 44.6424C47.897 44.582 47.9708 44.4989 48.02 44.4014C48.0693 44.3038 48.0922 44.1951 48.0867 44.086C48.0897 43.9663 48.0571 43.8483 47.9932 43.7471C47.9248 43.6482 47.8391 43.5625 47.7402 43.4941C47.6144 43.4075 47.4815 43.3314 47.3431 43.2665L46.855 43.0389C46.6695 42.9394 46.4959 42.8382 46.334 42.7354C46.1788 42.6376 46.0361 42.5212 45.9091 42.3889C45.7919 42.2667 45.6977 42.1245 45.6308 41.969C45.56 41.7958 45.5255 41.6098 45.5297 41.4227C45.5239 41.1865 45.5843 40.9535 45.7042 40.7499C45.8202 40.5604 45.9775 40.3995 46.1645 40.2795C46.3641 40.1517 46.5839 40.0585 46.8145 40.0038C47.0578 39.9434 47.3075 39.9128 47.5581 39.9127C47.9888 39.8857 48.4202 39.9521 48.8228 40.1075V41.0079C48.4682 40.7709 48.0474 40.6531 47.6214 40.6715C47.4856 40.6714 47.3501 40.6841 47.2167 40.7094C47.091 40.7323 46.9698 40.775 46.8575 40.8359C46.7577 40.8915 46.6714 40.9683 46.6046 41.061C46.5367 41.1588 46.5021 41.2759 46.506 41.3949C46.5027 41.5059 46.5289 41.6159 46.5818 41.7136C46.6384 41.8127 46.7151 41.8988 46.8069 41.9665C46.9197 42.0499 47.0399 42.1227 47.1661 42.184C47.3077 42.2548 47.4713 42.3307 47.6568 42.4116C47.8423 42.4926 48.0227 42.5971 48.198 42.7253C48.3606 42.8293 48.5108 42.9515 48.6457 43.0895C48.772 43.2187 48.8755 43.3683 48.9517 43.5321C49.0299 43.7061 49.0688 43.8952 49.0656 44.086C49.0768 44.3191 49.0249 44.5509 48.9154 44.757C48.8059 44.9631 48.6428 45.1358 48.4434 45.257C48.2406 45.3791 48.0181 45.4648 47.7858 45.51C47.5281 45.5649 47.2652 45.592 47.0017 45.5909C46.9106 45.5909 46.7977 45.5841 46.6628 45.5707C46.5279 45.5572 46.3863 45.5352 46.2379 45.5049C46.1039 45.4791 45.9713 45.4461 45.8408 45.4063C45.7327 45.3771 45.6289 45.3337 45.5322 45.2773Z" fill="#465154"/>
<path d="M53.0674 41.5743L51.2969 46.127C50.9294 46.938 50.4134 47.3435 49.749 47.3435C49.5916 47.3466 49.4343 47.3296 49.2811 47.2929V46.5544C49.4041 46.597 49.533 46.6201 49.6631 46.6227C49.822 46.6253 49.978 46.5799 50.1107 46.4923C50.2434 46.4048 50.3466 46.2792 50.4067 46.132L50.6596 45.4896L49.1016 41.5769H50.0854L51.044 44.4121C51.0541 44.4475 51.0769 44.542 51.1123 44.6954H51.1325C51.146 44.6364 51.1688 44.5445 51.2008 44.4197L52.1822 41.5642L53.0674 41.5743Z" fill="#465154"/>
<path d="M57.1443 45.4948H56.2565V43.2868C56.2565 42.555 55.9977 42.1891 55.4801 42.1891C55.3527 42.1862 55.2264 42.212 55.1104 42.2645C54.9944 42.3171 54.8916 42.395 54.8098 42.4926C54.6359 42.7062 54.5459 42.976 54.5569 43.2513V45.4872H53.6641V41.5669H54.5569V42.2169H54.5721C54.6931 41.9878 54.8755 41.7969 55.0988 41.6656C55.3222 41.5343 55.5777 41.4677 55.8367 41.4733C56.0205 41.4617 56.2044 41.4932 56.3739 41.5652C56.5434 41.6372 56.6937 41.7478 56.813 41.8881C57.0596 42.2381 57.1783 42.6623 57.1494 43.0895L57.1443 45.4948Z" fill="#465154"/>
<path d="M61.1826 45.4947H60.3201V44.8826H60.3049C60.1932 45.1007 60.0221 45.2828 59.8113 45.4076C59.6004 45.5325 59.3586 45.5952 59.1136 45.5883C58.7824 45.6066 58.4572 45.4939 58.2082 45.2747C58.0988 45.1669 58.0132 45.0374 57.957 44.8945C57.9008 44.7516 57.8752 44.5985 57.8819 44.4451C57.8819 43.7049 58.3085 43.2732 59.1617 43.1501L60.3251 42.9857C60.3251 42.4276 60.0596 42.1485 59.5284 42.1485C59.0617 42.1481 58.6113 42.3201 58.2638 42.6316V41.8551C58.6987 41.6048 59.1937 41.478 59.6954 41.4884C60.6851 41.4884 61.18 41.9757 61.18 42.9503L61.1826 45.4947ZM60.3251 43.57L59.5031 43.6838C59.2991 43.6994 59.1016 43.7627 58.9265 43.8684C58.8578 43.9257 58.8043 43.9991 58.7708 44.0821C58.7373 44.165 58.7247 44.2549 58.7343 44.3439C58.7319 44.4206 58.7466 44.4969 58.7772 44.5673C58.8078 44.6377 58.8536 44.7005 58.9113 44.7511C59.0438 44.8653 59.2146 44.9249 59.3893 44.918C59.5154 44.9214 59.6407 44.8976 59.7568 44.8483C59.8729 44.799 59.977 44.7253 60.0621 44.6322C60.2423 44.4346 60.3369 44.1736 60.3251 43.9063V43.57Z" fill="#465154"/>
<path d="M63.0904 44.9182H63.0753V47.2982H62.1875V41.5745H63.0753V42.2625H63.0904C63.217 42.0203 63.4091 41.8186 63.6447 41.6804C63.8804 41.5422 64.1502 41.4731 64.4234 41.4809C64.6448 41.4701 64.8658 41.5119 65.068 41.6029C65.2702 41.6939 65.448 41.8315 65.5868 42.0045C65.8832 42.4124 66.0305 42.9097 66.0041 43.4133C66.0331 43.9754 65.8669 44.5303 65.5337 44.9839C65.3809 45.1769 65.1846 45.3308 64.9608 45.4333C64.737 45.5357 64.4922 45.5837 64.2463 45.5732C64.0122 45.5797 63.7808 45.5222 63.5771 45.4067C63.3734 45.2912 63.2051 45.1223 63.0904 44.9182ZM63.0677 43.3703V43.8559C63.0607 44.1249 63.1587 44.3861 63.3408 44.5843C63.4376 44.6855 63.5552 44.7644 63.6855 44.8156C63.8158 44.8669 63.9557 44.8892 64.0955 44.881C64.2352 44.8728 64.3715 44.8343 64.495 44.7683C64.6184 44.7022 64.726 44.6101 64.8103 44.4983C65.0155 44.1788 65.1138 43.8024 65.0911 43.4234C65.1127 43.1015 65.0235 42.782 64.8381 42.5179C64.7538 42.4114 64.6454 42.3263 64.5219 42.2696C64.3984 42.2129 64.2632 42.1862 64.1274 42.1916C63.9838 42.1871 63.841 42.215 63.7096 42.2732C63.5783 42.3314 63.4617 42.4185 63.3687 42.528C63.1676 42.7619 63.0604 43.062 63.0677 43.3703Z" fill="#465154"/>
<path d="M66.6309 45.3733V44.5513C66.9474 44.7947 67.3369 44.924 67.7361 44.9181C68.2723 44.9181 68.5404 44.7596 68.5404 44.4426C68.543 44.3613 68.519 44.2814 68.4721 44.2149C68.4218 44.148 68.3591 44.0914 68.2875 44.048C68.2005 43.9947 68.1081 43.9506 68.0118 43.9165L67.6577 43.7875C67.5086 43.7293 67.3633 43.6617 67.2227 43.5852C67.103 43.5182 66.9946 43.4329 66.9015 43.3322C66.8175 43.2432 66.7522 43.1383 66.7093 43.0237C66.6632 42.8947 66.6409 42.7584 66.6435 42.6215C66.6387 42.4435 66.6853 42.2679 66.7776 42.1157C66.8688 41.9691 66.9915 41.8447 67.1367 41.7515C67.2924 41.6507 67.4631 41.5756 67.6426 41.5289C67.8368 41.4792 68.0365 41.4546 68.2369 41.4555C68.568 41.4503 68.8972 41.5061 69.2082 41.6199V42.3964C68.9288 42.2065 68.5975 42.1076 68.2597 42.1131C68.1574 42.1122 68.0555 42.1241 67.9562 42.1485C67.8739 42.1678 67.7953 42.2002 67.7235 42.2447C67.6633 42.2817 67.6123 42.3318 67.5743 42.3914C67.5388 42.4482 67.5204 42.514 67.5212 42.581C67.5185 42.6563 67.5369 42.7307 67.5743 42.796C67.6148 42.8591 67.6693 42.9119 67.7336 42.9503C67.8135 42.9993 67.8983 43.04 67.9865 43.0717L68.3255 43.1931C68.4798 43.2553 68.6309 43.3254 68.7782 43.403C68.9033 43.4709 69.0182 43.5561 69.1196 43.656C69.2125 43.7448 69.2865 43.8515 69.3372 43.9696C69.3908 44.1038 69.4166 44.2475 69.413 44.392C69.4178 44.5751 69.3704 44.7558 69.2764 44.913C69.1837 45.0616 69.0583 45.187 68.9097 45.2797C68.7459 45.3805 68.5664 45.4532 68.3786 45.4947C68.1712 45.5427 67.9591 45.5664 67.7463 45.5656C67.365 45.582 66.9846 45.5164 66.6309 45.3733Z" fill="#465154"/>
<path d="M73.5369 43.7773H70.866C70.8608 43.9327 70.8877 44.0875 70.9452 44.232C71.0026 44.3765 71.0893 44.5076 71.1999 44.617C71.4436 44.8247 71.7578 44.9306 72.0775 44.9129C72.4921 44.9146 72.8963 44.7834 73.2308 44.5386V45.2544C72.7997 45.4974 72.3088 45.614 71.8145 45.5907C71.563 45.6046 71.3116 45.5641 71.0772 45.472C70.8428 45.3799 70.631 45.2384 70.4563 45.0571C70.1058 44.6378 69.9293 44.1001 69.9631 43.5547C69.9398 43.0054 70.1344 42.4691 70.5043 42.0625C70.6745 41.8759 70.8826 41.728 71.1147 41.6285C71.3468 41.5291 71.5974 41.4804 71.8499 41.4858C72.082 41.471 72.3144 41.5088 72.5299 41.5964C72.7454 41.684 72.9383 41.8191 73.0943 41.9916C73.4092 42.4019 73.5654 42.912 73.5344 43.4282L73.5369 43.7773ZM72.6795 43.1475C72.6933 42.881 72.6137 42.618 72.4544 42.4039C72.3793 42.3159 72.2852 42.2463 72.1791 42.2002C72.073 42.1542 71.9578 42.133 71.8423 42.1383C71.7202 42.1365 71.5992 42.1605 71.4871 42.2089C71.3751 42.2573 71.2746 42.3289 71.1923 42.4191C71.0072 42.621 70.8927 42.8775 70.866 43.15L72.6795 43.1475Z" fill="#465154"/>
<path d="M37.4303 54.9036H36.4186L35.9128 53.5049H33.7781L33.3026 54.9036H32.3086L34.3649 49.4126H35.3917L37.4303 54.9036ZM35.6953 52.7588L34.9365 50.5685C34.9019 50.4574 34.8749 50.3442 34.8555 50.2295C34.8393 50.346 34.814 50.461 34.7797 50.5735L34.0209 52.7638L35.6953 52.7588Z" fill="#465154"/>
<path d="M41.5314 54.9035H40.6436V52.6955C40.6436 51.9637 40.3848 51.5978 39.8671 51.5978C39.7398 51.5949 39.6135 51.6207 39.4975 51.6733C39.3814 51.7258 39.2787 51.8037 39.1969 51.9013C39.0229 52.115 38.933 52.3848 38.944 52.6601V54.8959H38.041V50.9883H38.9338V51.6383H38.949C39.0701 51.4092 39.2524 51.2183 39.4758 51.087C39.6991 50.9557 39.9546 50.8891 40.2136 50.8947C40.3974 50.8831 40.5814 50.9146 40.7508 50.9866C40.9203 51.0586 41.0707 51.1692 41.1899 51.3095C41.4372 51.6575 41.5577 52.0797 41.5314 52.5058V54.9035Z" fill="#465154"/>
<path d="M45.5707 54.9036H44.7208V54.2916H44.6955C44.5839 54.5097 44.4127 54.6917 44.2019 54.8166C43.9911 54.9415 43.7492 55.0041 43.5043 54.9972C43.173 55.0155 42.8478 54.9029 42.5988 54.6836C42.4894 54.5758 42.4039 54.4463 42.3477 54.3034C42.2914 54.1605 42.2659 54.0074 42.2725 53.854C42.2725 53.1138 42.6991 52.6821 43.5523 52.559L44.7158 52.3946C44.7158 51.8365 44.4502 51.5575 43.9191 51.5575C43.4524 51.557 43.002 51.729 42.6544 52.0405V51.2641C43.0893 51.0137 43.5843 50.8869 44.086 50.8973C45.0758 50.8973 45.5707 51.3846 45.5707 52.3592V54.9036ZM44.7208 52.9789L43.8988 53.0927C43.6948 53.1084 43.4973 53.1716 43.3222 53.2773C43.2535 53.3347 43.2 53.4081 43.1665 53.491C43.1329 53.574 43.1204 53.6639 43.1299 53.7528C43.1276 53.8296 43.1423 53.9059 43.1729 53.9763C43.2035 54.0466 43.2493 54.1094 43.307 54.16C43.4399 54.2709 43.6096 54.3277 43.7825 54.3194C43.9085 54.3227 44.0339 54.2989 44.1499 54.2496C44.266 54.2003 44.3701 54.1266 44.4553 54.0336C44.6332 53.8395 44.7285 53.5836 44.7208 53.3203V52.9789Z" fill="#465154"/>
<path d="M47.469 54.9036H46.5762V49.1016H47.469V54.9036Z" fill="#465154"/>
<path d="M52.0015 50.9883L50.231 55.5409C49.8634 56.352 49.3474 56.7575 48.6831 56.7575C48.5256 56.7605 48.3684 56.7435 48.2152 56.7069V55.9684C48.3381 56.011 48.467 56.034 48.5971 56.0367C48.756 56.0393 48.9121 55.9938 49.0448 55.9063C49.1774 55.8187 49.2806 55.6931 49.3407 55.546L49.5936 54.9036L48.0508 50.9883H49.0347L49.9679 53.8362C49.9781 53.8716 50.0008 53.966 50.0362 54.1195H50.0565C50.0683 54.0605 50.091 53.9686 50.1248 53.8438L51.1061 50.9883H52.0015Z" fill="#465154"/>
<path d="M54.8581 54.8631C54.6425 54.958 54.4081 55.0021 54.1727 54.9921C53.4123 54.9921 53.032 54.6271 53.032 53.8969V51.6813H52.377V50.9883H53.032V50.0803L53.9198 49.8274V50.9883H54.8581V51.6839H53.9198V53.644C53.902 53.8222 53.9467 54.001 54.0463 54.1499C54.1012 54.2044 54.1676 54.2461 54.2407 54.2719C54.3137 54.2977 54.3916 54.307 54.4686 54.2991C54.6094 54.3022 54.747 54.2566 54.8581 54.1701V54.8631Z" fill="#465154"/>
<path d="M55.9643 50.1612C55.8259 50.1643 55.6917 50.1135 55.59 50.0195C55.5398 49.9744 55.5 49.919 55.4733 49.8569C55.4467 49.7949 55.4339 49.7279 55.4357 49.6604C55.434 49.5922 55.4468 49.5244 55.4734 49.4616C55.5 49.3988 55.5398 49.3424 55.59 49.2962C55.6908 49.2006 55.8254 49.1487 55.9643 49.152C56.1055 49.1486 56.2425 49.2003 56.3463 49.2962C56.3971 49.342 56.4374 49.3983 56.4644 49.4612C56.4915 49.524 56.5047 49.592 56.5031 49.6604C56.5036 49.7272 56.4898 49.7933 56.4628 49.8543C56.4357 49.9154 56.396 49.97 56.3463 50.0145C56.2432 50.1117 56.106 50.1644 55.9643 50.1612ZM56.4044 54.9035H55.5167V50.9882H56.4044V54.9035Z" fill="#465154"/>
<path d="M60.2769 54.724C59.9365 54.9113 59.5524 55.0047 59.164 54.9946C58.9042 55.0056 58.645 54.9627 58.4025 54.8687C58.1601 54.7746 57.9397 54.6315 57.7552 54.4483C57.5754 54.2608 57.4352 54.039 57.3431 53.796C57.2509 53.5531 57.2087 53.2941 57.219 53.0345C57.206 52.7498 57.2504 52.4654 57.3494 52.1982C57.4485 51.931 57.6003 51.6864 57.7957 51.479C57.9982 51.2805 58.2396 51.1259 58.5046 51.0249C58.7697 50.924 59.0527 50.8788 59.336 50.8922C59.6611 50.8854 59.9839 50.9493 60.2819 51.0794V51.9064C60.0329 51.7107 59.726 51.6031 59.4093 51.6004C59.2372 51.5949 59.0658 51.6261 58.9066 51.692C58.7475 51.7578 58.6041 51.8568 58.4862 51.9823C58.2399 52.2543 58.1109 52.6123 58.127 52.9788C58.1174 53.1535 58.1424 53.3283 58.2006 53.4932C58.2587 53.6581 58.3489 53.81 58.4659 53.9399C58.5844 54.0587 58.7263 54.1513 58.8827 54.2118C59.0391 54.2724 59.2064 54.2995 59.3739 54.2915C59.7055 54.2865 60.0249 54.1657 60.2769 53.9501V54.724Z" fill="#465154"/>
<path d="M60.9082 54.7822V53.9602C61.221 54.2065 61.6077 54.3401 62.0059 54.3396C62.5421 54.3396 62.8102 54.1811 62.8102 53.8641C62.8128 53.7828 62.7888 53.7029 62.7419 53.6365C62.6916 53.5695 62.6289 53.5129 62.5573 53.4695C62.4702 53.4162 62.3778 53.3721 62.2816 53.338L61.9275 53.209C61.7784 53.1508 61.6331 53.0832 61.4925 53.0067C61.3729 52.9396 61.2645 52.8543 61.1712 52.7537C61.0872 52.6648 61.0218 52.5598 60.979 52.4452C60.933 52.3162 60.9107 52.18 60.9133 52.043C60.9085 51.865 60.955 51.6895 61.0473 51.5372C61.1385 51.3906 61.2612 51.2662 61.4065 51.173C61.5621 51.0722 61.7329 50.997 61.9123 50.9504C62.1065 50.9007 62.3062 50.8761 62.5067 50.877C62.8378 50.8718 63.167 50.9275 63.4779 51.0415V51.8179C63.1985 51.628 62.8672 51.5291 62.5294 51.5347C62.4272 51.5338 62.3252 51.5457 62.2259 51.5701C62.1437 51.5893 62.0651 51.6217 61.9932 51.6662C61.9331 51.7032 61.8821 51.7533 61.844 51.8129C61.8086 51.8697 61.7902 51.9356 61.7909 52.0026C61.7883 52.0778 61.8067 52.1522 61.844 52.2175C61.8845 52.2806 61.9391 52.3334 62.0034 52.3718C62.0833 52.4208 62.1681 52.4615 62.2563 52.4932L62.5952 52.6146C62.7496 52.6769 62.9007 52.7469 63.0479 52.8246C63.1739 52.8924 63.2896 52.9775 63.3919 53.0775C63.4848 53.1663 63.5588 53.273 63.6094 53.3911C63.6631 53.5253 63.6889 53.669 63.6853 53.8135C63.6901 53.9966 63.6427 54.1773 63.5487 54.3345C63.456 54.4831 63.3306 54.6085 63.182 54.7013C63.0182 54.8021 62.8387 54.8747 62.6509 54.9163C62.4435 54.9642 62.2313 54.9879 62.0185 54.9871C61.6381 54.9988 61.2595 54.9289 60.9082 54.7822Z" fill="#465154"/>
<path d="M47.2794 8.74988L35.7891 15.3259V28.4527L47.2794 35.0995L58.7698 28.5235V15.3512L47.2794 8.74988ZM56.6376 27.1501L47.2794 32.5652L37.9111 27.2134V16.6259L47.2693 11.2108L56.6275 16.6411L56.6376 27.1501Z" fill="#0078D4"/>
<path d="M52.7565 24.0847C52.6436 23.9031 52.4789 23.7595 52.2836 23.6724C51.6894 22.372 50.7782 21.2416 49.6337 20.3848C48.4892 19.5279 47.1479 18.9721 45.7328 18.7682L55.215 13.2899L53.0095 12.0253L42.207 18.2649C41.9974 18.3858 41.8336 18.5725 41.741 18.7961C41.6485 19.0196 41.6324 19.2675 41.6953 19.5012C41.7582 19.7349 41.8965 19.9412 42.0888 20.0881C42.281 20.235 42.5165 20.3143 42.7584 20.3136C42.803 20.3056 42.8469 20.2946 42.8899 20.2807L43.0721 21.0395C44.4502 20.7157 45.8971 20.8637 47.1811 21.4599C48.4651 22.056 49.512 23.0658 50.1539 24.3275L39.3945 30.5393L41.5899 31.804L52.3544 25.582C52.498 25.4959 52.6193 25.3772 52.7085 25.2355L52.8172 25.2102C52.8172 25.1672 52.7919 25.1293 52.7818 25.0863C52.8592 24.9298 52.8974 24.7569 52.893 24.5824C52.8886 24.4079 52.8418 24.2371 52.7565 24.0847Z" fill="#50E6FF"/>
<path d="M51.8028 21.9449C51.267 21.9449 50.7433 22.1038 50.2979 22.4014C49.8524 22.6991 49.5052 23.1221 49.3002 23.6171C49.0952 24.1121 49.0415 24.6567 49.146 25.1822C49.2506 25.7077 49.5085 26.1903 49.8874 26.5692C50.2662 26.948 50.7489 27.206 51.2743 27.3105C51.7998 27.415 52.3445 27.3614 52.8394 27.1564C53.3344 26.9513 53.7575 26.6041 54.0551 26.1587C54.3528 25.7132 54.5116 25.1895 54.5116 24.6537C54.5116 23.9353 54.2262 23.2463 53.7182 22.7383C53.2102 22.2303 52.5212 21.9449 51.8028 21.9449ZM42.7557 16.459C42.2199 16.459 41.6962 16.6179 41.2508 16.9155C40.8053 17.2132 40.4581 17.6362 40.2531 18.1312C40.048 18.6262 39.9944 19.1708 40.0989 19.6963C40.2034 20.2217 40.4614 20.7044 40.8403 21.0832C41.2191 21.4621 41.7018 21.7201 42.2272 21.8246C42.7527 21.9291 43.2973 21.8755 43.7923 21.6704C44.2873 21.4654 44.7103 21.1182 45.008 20.6727C45.3056 20.2273 45.4645 19.7036 45.4645 19.1678C45.4645 18.4494 45.1791 17.7604 44.6711 17.2524C44.1631 16.7444 43.4741 16.459 42.7557 16.459Z" fill="url(#paint0_linear_6744_66165)"/>
</g>
</g>
<defs>
<linearGradient id="paint0_linear_6744_66165" x1="47.2805" y1="27.36" x2="47.2805" y2="16.4893" gradientUnits="userSpaceOnUse">
<stop stop-color="#198AB3"/>
<stop offset="0.17" stop-color="#32BEDD"/>
<stop offset="0.5" stop-color="#198AB3"/>
<stop offset="0.66" stop-color="#32BEDD"/>
<stop offset="0.97" stop-color="#50E6FF"/>
</linearGradient>
<clipPath id="clip0_6744_66165">
<rect width="72" height="48" fill="white" transform="translate(12 8.74988)"/>
</clipPath>
<clipPath id="clip1_6744_66165">
<rect width="51.073" height="48" fill="white" transform="translate(22.4629 8.74988)"/>
</clipPath>
</defs>
</svg>
