<svg width="96" height="65" viewBox="0 0 96 65" fill="none" xmlns="http://www.w3.org/2000/svg">
<rect width="96" height="64" transform="translate(0 0.689819)" fill="white"/>
<g clip-path="url(#clip0_6744_66248)">
<g clip-path="url(#clip1_6744_66248)">
<path d="M54.9974 8.68982H41.0042C40.1158 8.68982 39.2936 9.16703 38.8457 9.93791L31.8417 22.059C31.3939 22.8299 31.3939 23.7843 31.8417 24.5552L38.8384 36.6764C39.2862 37.4472 40.1085 37.9244 40.9968 37.9244H54.9974C55.8858 37.9244 56.7081 37.4472 57.1559 36.6764L64.1525 24.5552C64.6004 23.7843 64.6004 22.8299 64.1525 22.059L57.1632 9.93791C56.7154 9.16703 55.8931 8.68982 54.9974 8.68982Z" fill="#4683ED"/>
<path d="M53.6171 19.739L52.1928 22.4848L49.961 20.2529L48.0007 20.6934L46.4736 21.3468L44.8658 19.739L41.5694 20.8917L41.4299 24.0339L42.8395 25.4435L40.5195 26.9412L51.5027 37.9244H54.9974C55.8857 37.9244 56.708 37.4472 57.1558 36.6763L62.0601 28.182L53.6171 19.739Z" fill="#417BDC"/>
<path d="M44.8732 19.739H41.7896C41.0922 19.739 40.5195 20.3043 40.5195 21.0091V22.8078C40.5195 23.5053 41.0848 24.078 41.7896 24.078H43.4195V25.4435H40.9307L40.5195 26.9412H43.603C44.3005 26.9412 44.8732 26.3759 44.8732 25.6711V23.9091C44.8732 23.2116 44.3078 22.639 43.603 22.639H42.0393V21.2074H44.4767L44.8732 19.739Z" fill="#FEFFFD"/>
<path d="M50.3205 25.4876V21.2294C50.3205 20.4071 49.6524 19.739 48.8301 19.739H47.4279C46.6056 19.739 45.9375 20.4071 45.9375 21.2294V25.4435C45.9375 26.2658 46.6056 26.9339 47.4279 26.9339H49.7258H50.3205H50.9959V25.4876H50.3205ZM48.8742 25.4876H47.3912V21.1853H48.8742V25.4876Z" fill="#FEFFFD"/>
<path d="M56.5025 25.4876H53.6172V19.739H52.1855V25.4876V26.9192V26.9412H53.6172V26.9192H56.5025V25.4876Z" fill="#FEFFFD"/>
<path d="M38.0591 43.3353H40.0561V46.0591C39.7331 46.1619 39.4174 46.2426 39.1164 46.2867C38.8153 46.3307 38.4923 46.3527 38.1399 46.3527C37.3176 46.3527 36.6863 46.1105 36.2384 45.6259C35.7906 45.1414 35.5703 44.4512 35.5703 43.5702C35.5703 42.6966 35.8199 42.0138 36.3265 41.5219C36.8257 41.03 37.5232 40.7804 38.3969 40.7804C38.9622 40.7804 39.4981 40.8905 40.0047 41.1034L39.6963 41.8449C39.2558 41.6394 38.8153 41.5439 38.3748 41.5439C37.7948 41.5439 37.3397 41.7275 37.0019 42.0872C36.6642 42.4543 36.4954 42.9462 36.4954 43.5776C36.4954 44.2383 36.6495 44.7449 36.9506 45.09C37.2516 45.435 37.6921 45.6039 38.2574 45.6039C38.5437 45.6039 38.8521 45.5672 39.1751 45.4938V44.0988H38.0518V43.3353H38.0591Z" fill="#7A7A7A"/>
<path d="M44.9018 44.2237C44.9018 44.8918 44.7329 45.4204 44.3879 45.7948C44.0428 46.1692 43.5656 46.3601 42.9489 46.3601C42.5671 46.3601 42.2294 46.272 41.9358 46.1031C41.6421 45.9269 41.4145 45.6847 41.2603 45.3543C41.0988 45.0312 41.0254 44.6568 41.0254 44.2237C41.0254 43.5556 41.1942 43.0416 41.5393 42.6672C41.877 42.2928 42.3616 42.1093 42.9856 42.1093C43.5803 42.1093 44.0502 42.3001 44.3952 42.6819C44.7329 43.0563 44.9018 43.5702 44.9018 44.2237ZM41.9211 44.2237C41.9211 45.1707 42.2735 45.6479 42.9709 45.6479C43.6611 45.6479 44.0061 45.1781 44.0061 44.2237C44.0061 43.2839 43.6611 42.8214 42.9636 42.8214C42.5965 42.8214 42.3322 42.9462 42.1707 43.1885C42.0018 43.4234 41.9211 43.7685 41.9211 44.2237Z" fill="#7A7A7A"/>
<path d="M49.5424 44.2235C49.5424 44.8916 49.3736 45.4202 49.0285 45.7947C48.6835 46.1691 48.2062 46.36 47.5895 46.36C47.2078 46.36 46.8701 46.2719 46.5764 46.103C46.2827 45.9268 46.0551 45.6845 45.9009 45.3542C45.7394 45.0311 45.666 44.6567 45.666 44.2235C45.666 43.5554 45.8349 43.0415 46.1799 42.6671C46.5177 42.2927 47.0022 42.1091 47.6262 42.1091C48.2209 42.1091 48.6908 42.3 49.0359 42.6818C49.3736 43.0562 49.5424 43.5701 49.5424 44.2235ZM46.5617 44.2235C46.5617 45.1706 46.9141 45.6478 47.6116 45.6478C48.3017 45.6478 48.6467 45.178 48.6467 44.2235C48.6467 43.2838 48.3017 42.8213 47.6042 42.8213C47.2371 42.8213 46.9728 42.9461 46.8113 43.1884C46.6425 43.4233 46.5617 43.7684 46.5617 44.2235Z" fill="#7A7A7A"/>
<path d="M54.0139 42.1753V42.6525L53.3164 42.7847C53.3825 42.8728 53.4339 42.9756 53.4779 43.1004C53.522 43.2252 53.544 43.3573 53.544 43.5042C53.544 43.93 53.3972 44.2604 53.1035 44.5026C52.8098 44.7449 52.4134 44.8697 51.8995 44.8697C51.7673 44.8697 51.6499 44.8624 51.5397 44.8403C51.3488 44.9578 51.2607 45.09 51.2607 45.2515C51.2607 45.3469 51.3048 45.413 51.3929 45.4644C51.481 45.5084 51.6425 45.5378 51.8774 45.5378H52.5969C53.0521 45.5378 53.3898 45.6332 53.6248 45.8241C53.8597 46.015 53.9772 46.294 53.9772 46.6611C53.9772 47.1236 53.7863 47.4834 53.4045 47.7403C53.0228 47.9899 52.4648 48.1221 51.7453 48.1221C51.1873 48.1221 50.7615 48.0266 50.4678 47.8284C50.1742 47.6302 50.0273 47.3512 50.0273 46.9841C50.0273 46.7345 50.1081 46.5216 50.2696 46.3454C50.4311 46.1765 50.6514 46.0517 50.9377 45.9857C50.8202 45.9343 50.7248 45.8535 50.6514 45.7434C50.578 45.6333 50.5413 45.5158 50.5413 45.3983C50.5413 45.2441 50.5853 45.112 50.6734 45.0092C50.7615 44.9064 50.8863 44.7963 51.0625 44.6935C50.8496 44.6054 50.6808 44.4512 50.5486 44.2457C50.4165 44.0401 50.3504 43.7978 50.3504 43.5188C50.3504 43.071 50.4899 42.7259 50.7689 42.4837C51.0478 42.2414 51.4516 42.1166 51.9656 42.1166C52.083 42.1166 52.2005 42.1239 52.3326 42.1386C52.4574 42.1533 52.5529 42.168 52.619 42.19H54.0139V42.1753ZM50.7909 46.918C50.7909 47.1089 50.879 47.2484 51.0478 47.3512C51.2167 47.454 51.459 47.5054 51.76 47.5054C52.2372 47.5054 52.5896 47.4393 52.8245 47.2998C53.0595 47.1603 53.1696 46.9841 53.1696 46.7565C53.1696 46.5803 53.1035 46.4482 52.9787 46.3748C52.8539 46.3013 52.6116 46.2646 52.2666 46.2646H51.6058C51.3562 46.2646 51.158 46.3234 51.0111 46.4408C50.8643 46.5583 50.7909 46.7198 50.7909 46.918ZM51.1653 43.5042C51.1653 43.7611 51.2314 43.9593 51.3635 44.0988C51.4957 44.2383 51.6866 44.3044 51.9362 44.3044C52.4428 44.3044 52.6924 44.0328 52.6924 43.4968C52.6924 43.2325 52.6263 43.0269 52.5015 42.8801C52.3767 42.7333 52.1858 42.6599 51.9288 42.6599C51.6792 42.6599 51.4883 42.7333 51.3562 42.8728C51.224 43.0123 51.1653 43.2325 51.1653 43.5042Z" fill="#7A7A7A"/>
<path d="M55.6432 46.2792H54.7695V40.5087H55.6432V46.2792Z" fill="#7A7A7A"/>
<path d="M58.6836 46.3528C58.0448 46.3528 57.5456 46.1692 57.1859 45.7948C56.8261 45.4204 56.6426 44.9138 56.6426 44.2604C56.6426 43.5923 56.8114 43.0637 57.1418 42.6819C57.4722 42.3001 57.9347 42.1093 58.5147 42.1093C59.058 42.1093 59.4838 42.2708 59.7995 42.6011C60.1152 42.9315 60.2694 43.3794 60.2694 43.9594V44.4292H57.5456C57.5603 44.8257 57.6631 45.134 57.8686 45.3469C58.0742 45.5598 58.3605 45.67 58.7276 45.67C58.9699 45.67 59.1975 45.6479 59.4031 45.6039C59.6086 45.5598 59.8362 45.4791 60.0785 45.3763V46.0885C59.8656 46.1912 59.6527 46.2647 59.4324 46.3014C59.2122 46.3307 58.9626 46.3528 58.6836 46.3528ZM58.5221 42.7627C58.2431 42.7627 58.0228 42.8508 57.854 43.027C57.6851 43.2032 57.5897 43.4601 57.5529 43.7978H59.4177C59.4104 43.4601 59.3296 43.2032 59.1755 43.027C59.0213 42.8508 58.801 42.7627 58.5221 42.7627Z" fill="#7A7A7A"/>
<path d="M32.2234 50.6549C31.7168 50.6549 31.313 50.8384 31.0194 51.1982C30.7257 51.5579 30.5789 52.0572 30.5789 52.6959C30.5789 53.364 30.7184 53.8632 30.9974 54.2083C31.2763 54.546 31.6875 54.7222 32.2161 54.7222C32.4437 54.7222 32.6713 54.7002 32.8842 54.6561C33.0971 54.6121 33.3247 54.5533 33.5523 54.4799V55.2435C33.1264 55.405 32.6419 55.4857 32.106 55.4857C31.313 55.4857 30.7037 55.2435 30.2779 54.7662C29.8594 54.267 29.6465 53.5769 29.6465 52.6812C29.6465 52.1159 29.7493 51.624 29.9548 51.1982C30.1604 50.7724 30.4614 50.4493 30.8505 50.2291C31.2396 50.0088 31.7022 49.8914 32.2234 49.8914C32.774 49.8914 33.288 50.0088 33.7578 50.2364L33.4421 50.9779C33.2586 50.8898 33.0677 50.8164 32.8621 50.7503C32.6639 50.6916 32.4437 50.6549 32.2234 50.6549Z" fill="#7A7A7A"/>
<path d="M35.505 55.3977H34.6387V49.6271H35.5123V55.3977H35.505Z" fill="#7A7A7A"/>
<path d="M40.394 53.3345C40.394 54.0026 40.2251 54.5312 39.8801 54.9056C39.535 55.2801 39.0578 55.4709 38.4411 55.4709C38.0593 55.4709 37.7216 55.3828 37.4279 55.214C37.1343 55.0378 36.9067 54.7955 36.7525 54.4651C36.591 54.1421 36.5176 53.7677 36.5176 53.3345C36.5176 52.6664 36.6864 52.1525 37.0315 51.7781C37.3692 51.4036 37.8538 51.2201 38.4778 51.2201C39.0725 51.2201 39.5424 51.411 39.8874 51.7927C40.2178 52.1745 40.394 52.6884 40.394 53.3345ZM37.4059 53.3345C37.4059 54.2816 37.7583 54.7588 38.4558 54.7588C39.1459 54.7588 39.491 54.2889 39.491 53.3345C39.491 52.3948 39.1459 51.9322 38.4484 51.9322C38.0814 51.9322 37.8171 52.057 37.6555 52.2993C37.4867 52.5343 37.4059 52.8867 37.4059 53.3345Z" fill="#7A7A7A"/>
<path d="M44.2868 55.3976L44.1619 54.8616H44.1179C43.9931 55.0525 43.8242 55.1994 43.604 55.3095C43.3837 55.4196 43.1268 55.471 42.8404 55.471C42.3412 55.471 41.9741 55.3462 41.7245 55.0966C41.4822 54.847 41.3574 54.4725 41.3574 53.9733V51.2936H42.2384V53.8265C42.2384 54.1422 42.3045 54.3771 42.4293 54.5313C42.5615 54.6854 42.7597 54.7662 43.0313 54.7662C43.3984 54.7662 43.6627 54.6561 43.8389 54.4358C44.0078 54.2156 44.0959 53.8485 44.0959 53.3346V51.2936H44.9695V55.3976H44.2868Z" fill="#7A7A7A"/>
<path d="M47.5967 55.4711C47.0827 55.4711 46.6863 55.2876 46.4 54.9131C46.1136 54.5387 45.9668 54.0248 45.9668 53.3493C45.9668 52.6739 46.1136 52.1527 46.4 51.7782C46.6936 51.4038 47.0901 51.2129 47.604 51.2129C48.1399 51.2129 48.5511 51.4111 48.8374 51.8076H48.8814C48.8374 51.5139 48.8154 51.279 48.8154 51.1101V49.6124H49.689V55.383H49.0063L48.8521 54.8471H48.808C48.5511 55.2655 48.1399 55.4711 47.5967 55.4711ZM47.8316 54.7663C48.1913 54.7663 48.4483 54.6635 48.6171 54.4653C48.7787 54.2671 48.8668 53.9367 48.8668 53.4815V53.3567C48.8668 52.8428 48.786 52.4757 48.6171 52.2554C48.4483 52.0352 48.184 51.9324 47.8242 51.9324C47.5159 51.9324 47.281 52.0572 47.1121 52.3068C46.9432 52.5564 46.8625 52.9088 46.8625 53.3714C46.8625 53.8266 46.9432 54.1716 47.1048 54.4139C47.2736 54.6488 47.5086 54.7663 47.8316 54.7663Z" fill="#7A7A7A"/>
<path d="M56.1425 53.9219C56.1425 54.4065 55.9663 54.7809 55.6213 55.0599C55.2689 55.3315 54.7917 55.471 54.175 55.471C53.5583 55.471 53.059 55.3756 52.6699 55.1847V54.3477C52.9195 54.4652 53.1765 54.5533 53.4555 54.6194C53.7345 54.6854 53.9914 54.7222 54.2337 54.7222C54.5861 54.7222 54.8431 54.6561 55.0119 54.5239C55.1808 54.3918 55.2615 54.2082 55.2615 53.988C55.2615 53.7824 55.1881 53.6136 55.0339 53.4741C54.8798 53.3346 54.5641 53.1657 54.0869 52.9748C53.595 52.7766 53.2426 52.549 53.0443 52.2921C52.8388 52.0351 52.7433 51.7267 52.7433 51.367C52.7433 50.9118 52.9049 50.5594 53.2279 50.2951C53.5509 50.0382 53.9841 49.906 54.52 49.906C55.0413 49.906 55.5552 50.0161 56.0691 50.2437L55.7901 50.9706C55.3056 50.765 54.8798 50.6695 54.498 50.6695C54.2117 50.6695 53.9914 50.7356 53.8446 50.8604C53.6978 50.9852 53.6243 51.1467 53.6243 51.3523C53.6243 51.4918 53.6537 51.6166 53.7124 51.7121C53.7712 51.8148 53.8666 51.9103 54.0061 51.9984C54.1456 52.0865 54.3879 52.204 54.7403 52.3508C55.1367 52.5196 55.4304 52.6738 55.6139 52.8133C55.7975 52.9601 55.937 53.1217 56.0251 53.2979C56.0985 53.4667 56.1425 53.6796 56.1425 53.9219Z" fill="#7A7A7A"/>
<path d="M62.0082 52.6738C62.0082 53.3345 61.8834 53.8852 61.6338 54.333C61.3841 54.7808 61.0171 55.0965 60.5398 55.2801L61.8393 56.675H60.6426L59.6221 55.4563H59.4753C58.6604 55.4563 58.029 55.214 57.5885 54.7294C57.148 54.2449 56.9277 53.5548 56.9277 52.6591C56.9277 51.7634 57.148 51.0733 57.5885 50.5961C58.029 50.1189 58.6604 49.8766 59.4753 49.8766C60.2829 49.8766 60.9069 50.1189 61.3474 50.6108C61.7879 51.1026 62.0082 51.7928 62.0082 52.6738ZM57.8675 52.6738C57.8675 53.3419 57.9996 53.8484 58.2713 54.1935C58.5429 54.5386 58.9394 54.7074 59.468 54.7074C59.9966 54.7074 60.393 54.5386 60.6573 54.1935C60.929 53.8558 61.0611 53.3419 61.0611 52.6664C61.0611 51.9983 60.929 51.4991 60.6647 51.154C60.4004 50.809 60.0039 50.6401 59.4753 50.6401C58.9467 50.6401 58.5429 50.809 58.2713 51.154C57.9996 51.5064 57.8675 52.013 57.8675 52.6738Z" fill="#7A7A7A"/>
<path d="M63.168 55.3976V49.972H64.0563V54.634H66.3543V55.3976H63.168Z" fill="#7A7A7A"/>
</g>
</g>
<defs>
<clipPath id="clip0_6744_66248">
<rect width="72" height="48" fill="white" transform="translate(12 8.68982)"/>
</clipPath>
<clipPath id="clip1_6744_66248">
<rect width="36.7085" height="48" fill="white" transform="translate(29.6465 8.68982)"/>
</clipPath>
</defs>
</svg>
