<svg width="96" height="65" viewBox="0 0 96 65" fill="none" xmlns="http://www.w3.org/2000/svg">
<rect width="96" height="64" transform="translate(0 0.749878)" fill="white"/>
<g clip-path="url(#clip0_6744_66078)">
<g clip-path="url(#clip1_6744_66078)">
<path d="M55.1452 8.74988H40.9052L33.7852 21.1499L40.9052 33.6299H55.1452L62.2118 21.1499L55.1452 8.74988Z" fill="#0078D7"/>
<path d="M45.9986 22.6699C45.1453 22.6699 44.5586 23.4433 44.5586 24.8299C44.5586 26.1899 45.0919 26.9899 45.9186 26.9899C46.8253 26.9899 47.3586 26.2166 47.3586 24.8299C47.3853 23.4433 46.7986 22.6699 45.9986 22.6699ZM45.9453 26.4566C45.4119 26.4566 45.0919 25.8699 45.0919 24.8299C45.0919 23.7099 45.4919 23.1233 45.9453 23.1233C46.4786 23.1233 46.7986 23.7099 46.7986 24.7499C46.7986 25.7899 46.3986 26.4566 45.9453 26.4566Z" fill="white"/>
<path d="M49.6002 20.7765C50.5069 20.7765 51.0402 20.0032 51.0402 18.6165C51.0402 17.3098 50.5069 16.5365 49.6802 16.5365C48.8269 16.5365 48.2402 17.3098 48.2402 18.6965C48.2402 19.9765 48.8269 20.7765 49.6002 20.7765ZM48.8269 18.6165C48.8269 17.4965 49.2269 16.9098 49.6802 16.9098C50.2136 16.9098 50.5336 17.4965 50.5336 18.5365C50.5336 19.5765 50.2136 20.2432 49.6802 20.2432C49.1469 20.2432 48.8269 19.7365 48.8269 18.6165Z" fill="white"/>
<path d="M46.6668 16.4032H46.1334L44.7734 17.1232L45.0401 17.6299L46.0001 17.0432V20.1899H44.9068V20.7765H47.5734V20.1899H46.6668V16.4032Z" fill="white"/>
<path d="M50.0535 26.1365V22.3499H49.5468L48.1602 22.9899L48.3468 23.5232L49.4135 22.9365V26.1365H48.2935V26.6432H51.0402V26.1365H50.0535Z" fill="white"/>
<path d="M52.1593 14.1632H42.6127C41.5727 14.1632 40.7193 15.0165 40.666 16.0565V27.0965C40.666 28.1365 41.5193 28.9899 42.6127 28.9899H53.1993C54.2393 28.9899 55.0927 28.1365 55.146 27.0965V17.1232L52.1593 14.1632ZM54.2393 27.3099C54.2393 27.8432 53.786 28.2165 53.3327 28.2165H42.4793C41.946 28.2165 41.626 27.8165 41.5727 27.3632V27.3099V16.0032C41.5727 15.4699 41.9727 15.1499 42.426 15.0965H42.4793H51.946V17.7632H54.2393V27.3099Z" fill="white"/>
<path d="M32.5069 44.51H31.4136L30.8803 42.99H28.5336L28.0269 44.51H26.9336L29.1736 38.5366H30.2936L32.5069 44.51ZM30.6403 42.1633L29.8136 39.79C29.7869 39.71 29.7603 39.5766 29.7336 39.4166H29.7069C29.6803 39.5766 29.6536 39.71 29.6269 39.79L28.8003 42.1633H30.6403Z" fill="#606060"/>
<path d="M36.374 40.6432L34.0807 43.7632H36.374V44.5098H32.7207V44.1365L35.0674 40.9898H32.934V40.2432H36.374V40.6432Z" fill="#606060"/>
<path d="M40.9071 44.51H39.9471V43.8433H39.9204C39.6271 44.35 39.2004 44.6166 38.6138 44.6166C37.6004 44.6166 37.0938 44.0033 37.0938 42.8033V40.2433H38.0538V42.6966C38.0538 43.47 38.3471 43.8433 38.9338 43.8433C39.2271 43.8433 39.4671 43.7366 39.6271 43.5233C39.8138 43.31 39.8938 43.0433 39.8938 42.6966V40.2433H40.8538V44.51H40.9071Z" fill="#606060"/>
<path d="M44.6402 41.1499C44.5335 41.0699 44.3468 41.0166 44.1335 41.0166C43.8402 41.0166 43.6002 41.1499 43.4135 41.4166C43.2268 41.6832 43.1202 42.0299 43.1202 42.4832V44.5366H42.1602V40.2699H43.1202V41.1499H43.1468C43.2535 40.8566 43.3868 40.6166 43.5735 40.4566C43.7602 40.2966 44.0002 40.2166 44.2402 40.2166C44.4268 40.2166 44.5602 40.2432 44.6402 40.2966V41.1499Z" fill="#606060"/>
<path d="M48.8803 42.6433H45.9737C45.9737 43.0433 46.107 43.3366 46.347 43.5499C46.587 43.7633 46.907 43.8699 47.307 43.8699C47.7603 43.8699 48.187 43.7366 48.5603 43.4699V44.2433C48.1603 44.4833 47.6537 44.6166 47.0137 44.6166C46.3737 44.6166 45.8937 44.4299 45.547 44.0299C45.2003 43.6299 45.0137 43.0966 45.0137 42.4033C45.0137 41.7366 45.2003 41.2033 45.6003 40.7766C46.0003 40.3499 46.4803 40.1366 47.067 40.1366C47.6537 40.1366 48.107 40.3233 48.427 40.6966C48.747 41.0699 48.907 41.6033 48.907 42.2699V42.6433H48.8803ZM47.947 41.9499C47.947 41.6033 47.867 41.3366 47.707 41.1499C47.547 40.9633 47.3337 40.8566 47.0403 40.8566C46.7737 40.8566 46.5337 40.9633 46.347 41.1499C46.1603 41.3633 46.027 41.6299 46.0003 41.9499H47.947Z" fill="#606060"/>
<path d="M52.2402 44.51V38.5366H54.1336C54.7202 38.5366 55.1736 38.67 55.4936 38.91C55.8402 39.15 56.0002 39.4966 56.0002 39.8966C56.0002 40.2433 55.8936 40.5366 55.7069 40.7766C55.5202 41.0166 55.2536 41.2033 54.9069 41.31V41.3366C55.3069 41.39 55.6536 41.5233 55.8936 41.79C56.1336 42.0566 56.2669 42.3766 56.2669 42.8033C56.2669 43.31 56.0536 43.7366 55.6536 44.0566C55.2536 44.3766 54.7469 44.5366 54.1336 44.5366H52.2402V44.51ZM53.2269 39.31V41.0166H53.8669C54.2136 41.0166 54.4802 40.9366 54.6669 40.7766C54.8536 40.6166 54.9602 40.3766 54.9602 40.0833C54.9602 39.5766 54.6136 39.31 53.9469 39.31H53.2269ZM53.2269 41.8166V43.71H54.0802C54.4536 43.71 54.7469 43.63 54.9336 43.4433C55.1469 43.2833 55.2269 43.0433 55.2269 42.75C55.2269 42.1366 54.8002 41.8166 53.9469 41.8166H53.2269Z" fill="#606060"/>
<path d="M58.2666 44.5099H57.3066V38.1899H58.2666V44.5099Z" fill="#606060"/>
<path d="M61.4139 44.5901C60.7472 44.5901 60.2406 44.4034 59.8406 44.0034C59.4406 43.6034 59.2539 43.0701 59.2539 42.4301C59.2539 41.7101 59.4672 41.1501 59.8672 40.7501C60.2672 40.3501 60.8272 40.1367 61.5206 40.1367C62.1872 40.1367 62.6939 40.3234 63.0672 40.7234C63.4406 41.1234 63.6272 41.6567 63.6272 42.3501C63.6272 43.0434 63.4139 43.5767 63.0139 43.9767C62.6406 44.4034 62.0806 44.5901 61.4139 44.5901ZM61.4672 40.9101C61.0939 40.9101 60.8006 41.0434 60.5606 41.3101C60.3472 41.5767 60.2406 41.9501 60.2406 42.4034C60.2406 42.8567 60.3472 43.2034 60.5872 43.4701C60.8006 43.7367 61.0939 43.8434 61.4672 43.8434C61.8406 43.8434 62.1339 43.7101 62.3472 43.4701C62.5606 43.2301 62.6406 42.8567 62.6406 42.4034C62.6406 41.9234 62.5339 41.5767 62.3472 41.3101C62.1339 41.0434 61.8406 40.9101 61.4672 40.9101Z" fill="#606060"/>
<path d="M65.5999 43.8966L65.5733 44.5099H64.6133V38.1899H65.5733V40.9899H65.5999C65.9199 40.4299 66.4266 40.1366 67.0399 40.1366C67.5733 40.1366 67.9999 40.3233 68.2933 40.6966C68.5866 41.0699 68.7466 41.6033 68.7466 42.2433C68.7466 42.9633 68.5866 43.5233 68.2399 43.9499C67.8933 44.3766 67.4399 44.5899 66.8266 44.5899C66.2933 44.5899 65.8933 44.3499 65.5999 43.8966ZM65.5733 42.1899V42.7233C65.5733 43.0433 65.6799 43.3099 65.8666 43.5233C66.0533 43.7366 66.3199 43.8433 66.6133 43.8433C66.9599 43.8433 67.2533 43.7099 67.4666 43.4166C67.6799 43.1233 67.7599 42.7499 67.7599 42.2433C67.7599 41.8166 67.6533 41.4966 67.4666 41.2566C67.2799 41.0166 67.0133 40.9099 66.6933 40.9099C66.3466 40.9099 66.0799 41.0433 65.8666 41.2833C65.6799 41.5233 65.5733 41.8166 65.5733 42.1899Z" fill="#606060"/>
<path d="M33.5469 54.5099V53.4966C33.6269 53.5766 33.7602 53.6566 33.8669 53.7099C34.0002 53.7899 34.1335 53.8433 34.2669 53.8699C34.4002 53.8966 34.5602 53.9499 34.6935 53.9766C34.8269 54.0033 34.9602 54.0033 35.0935 54.0033C35.5202 54.0033 35.8135 53.9233 36.0269 53.7899C36.2402 53.6566 36.3202 53.4433 36.3202 53.1766C36.3202 53.0433 36.2935 52.9099 36.2135 52.8033C36.1335 52.6966 36.0535 52.6166 35.9202 52.5099C35.7869 52.4299 35.6535 52.3499 35.4935 52.2699C35.3335 52.1899 35.1469 52.1099 34.9602 52.0299C34.7469 51.9233 34.5602 51.8166 34.4002 51.7099C34.2135 51.6033 34.0802 51.4699 33.9469 51.3366C33.8135 51.2033 33.7069 51.0433 33.6535 50.8833C33.5735 50.7233 33.5469 50.5099 33.5469 50.2966C33.5469 50.0033 33.6002 49.7633 33.7335 49.5766C33.8669 49.3633 34.0269 49.2033 34.2402 49.0699C34.4535 48.9366 34.6935 48.8299 34.9335 48.7766C35.2002 48.7233 35.4669 48.6699 35.7335 48.6699C36.3469 48.6699 36.8269 48.7499 37.0935 48.8833V49.8699C36.7469 49.6299 36.3202 49.4966 35.7869 49.4966C35.6269 49.4966 35.4935 49.5233 35.3602 49.5499C35.2269 49.5766 35.0935 49.6299 34.9602 49.6833C34.8535 49.7366 34.7469 49.8166 34.6669 49.9233C34.5869 50.0299 34.5602 50.1366 34.5602 50.2966C34.5602 50.4299 34.5869 50.5366 34.6402 50.6433C34.6935 50.7499 34.7735 50.8299 34.8802 50.9099C34.9869 50.9899 35.1202 51.0699 35.2802 51.1499C35.4402 51.2299 35.6002 51.3099 35.8135 51.3899C36.0269 51.4966 36.2135 51.6033 36.4002 51.7366C36.5869 51.8433 36.7469 51.9766 36.8802 52.1366C37.0135 52.2699 37.1202 52.4299 37.2269 52.6166C37.3069 52.8033 37.3602 52.9899 37.3602 53.2299C37.3602 53.5233 37.3069 53.7899 37.1735 54.0033C37.0402 54.2166 36.8802 54.3766 36.6669 54.5099C36.4535 54.6433 36.2135 54.7233 35.9469 54.8033C35.6802 54.8566 35.3869 54.8833 35.0935 54.8833C34.9869 54.8833 34.8802 54.8833 34.7202 54.8566C34.5869 54.8299 34.4269 54.8299 34.2669 54.7766C34.1069 54.7499 33.9735 54.7233 33.8402 54.6699C33.7602 54.6166 33.6269 54.5633 33.5469 54.5099Z" fill="#606060"/>
<path d="M40.3743 54.6966C40.1876 54.8033 39.9476 54.83 39.6276 54.83C38.801 54.83 38.3743 54.43 38.3743 53.63V51.23H37.6543V50.4833H38.3743V49.4966L39.3343 49.23V50.4833H40.3476V51.23H39.3343V53.3633C39.3343 53.6033 39.3876 53.79 39.4676 53.8966C39.5476 54.0033 39.7076 54.0566 39.921 54.0566C40.081 54.0566 40.2143 54.0033 40.3476 53.9233V54.6966H40.3743Z" fill="#606060"/>
<path d="M43.0409 54.83C42.3742 54.83 41.8675 54.6434 41.4675 54.2434C41.0675 53.8434 40.8809 53.31 40.8809 52.67C40.8809 51.95 41.0942 51.39 41.4942 50.99C41.8942 50.59 42.4542 50.3767 43.1475 50.3767C43.8142 50.3767 44.3209 50.5634 44.6942 50.9634C45.0675 51.3634 45.2542 51.8967 45.2542 52.59C45.2542 53.2834 45.0409 53.8167 44.6409 54.2167C44.2675 54.6434 43.7342 54.83 43.0409 54.83ZM43.0942 51.15C42.7209 51.15 42.4275 51.2834 42.1875 51.55C41.9742 51.8167 41.8675 52.19 41.8675 52.6434C41.8675 53.0967 41.9742 53.4434 42.2142 53.71C42.4275 53.9767 42.7209 54.0834 43.0942 54.0834C43.4675 54.0834 43.7609 53.95 43.9742 53.71C44.1875 53.47 44.2675 53.0967 44.2675 52.6434C44.2675 52.1634 44.1609 51.8167 43.9742 51.55C43.7609 51.2834 43.4675 51.15 43.0942 51.15Z" fill="#606060"/>
<path d="M48.7202 51.39C48.6136 51.31 48.4269 51.2567 48.2136 51.2567C47.9202 51.2567 47.6802 51.39 47.4936 51.6567C47.3069 51.9233 47.2002 52.27 47.2002 52.7233V54.7767H46.2402V50.51H47.2002V51.39H47.2269C47.3336 51.0967 47.4669 50.8567 47.6536 50.6967C47.8402 50.5367 48.0802 50.4567 48.3202 50.4567C48.5069 50.4567 48.6402 50.4833 48.7202 50.5367V51.39Z" fill="#606060"/>
<path d="M52.6937 54.7499H51.7338V54.0833C51.4404 54.5899 51.0137 54.8566 50.4271 54.8566C50.0004 54.8566 49.6804 54.7499 49.4404 54.5099C49.2004 54.2699 49.0938 53.9766 49.0938 53.6033C49.0938 52.8033 49.5471 52.3233 50.4804 52.1899L51.7604 52.0033C51.7604 51.3899 51.4671 51.0966 50.8804 51.0966C50.3738 51.0966 49.9204 51.2833 49.4937 51.6299V50.7766C49.9471 50.5099 50.4538 50.3766 51.0404 50.3766C52.1071 50.3766 52.6671 50.9099 52.6671 51.9766V54.7499H52.6937ZM51.7604 52.6433L50.8537 52.7766C50.5871 52.8033 50.3738 52.8833 50.2138 52.9899C50.0804 53.0966 50.0004 53.2566 50.0004 53.4966C50.0004 53.6833 50.0537 53.8166 50.1871 53.9499C50.3204 54.0566 50.4804 54.1099 50.6937 54.1099C50.9871 54.1099 51.2271 54.0033 51.4138 53.7899C51.6004 53.5766 51.7071 53.3099 51.7071 53.0166V52.6433H51.7604Z" fill="#606060"/>
<path d="M57.7335 54.4033C57.7335 55.9767 56.9335 56.75 55.3602 56.75C54.8002 56.75 54.3202 56.67 53.8935 56.4833V55.6033C54.3735 55.87 54.8002 56.0033 55.2269 56.0033C56.2402 56.0033 56.7469 55.4967 56.7469 54.51V54.03H56.7202C56.4002 54.5633 55.9202 54.8567 55.2802 54.8567C54.7735 54.8567 54.3469 54.67 54.0269 54.2967C53.7069 53.9233 53.5469 53.4167 53.5469 52.7767C53.5469 52.0567 53.7069 51.47 54.0535 51.0433C54.4002 50.6167 54.8535 50.4033 55.4669 50.4033C56.0269 50.4033 56.4535 50.6433 56.7202 51.0967H56.7469V50.51H57.7069V54.4033H57.7335ZM56.8002 52.7767V52.2167C56.8002 51.9233 56.6935 51.6567 56.5069 51.4433C56.3202 51.23 56.0535 51.1233 55.7602 51.1233C55.3869 51.1233 55.0935 51.2567 54.9069 51.5233C54.6935 51.79 54.5869 52.1633 54.5869 52.67C54.5869 53.0967 54.6935 53.4167 54.8802 53.6833C55.0669 53.9233 55.3335 54.0567 55.6802 54.0567C56.0269 54.0567 56.2935 53.9233 56.4802 53.6833C56.6935 53.47 56.8002 53.15 56.8002 52.7767Z" fill="#606060"/>
<path d="M62.6128 52.8834H59.7061C59.7061 53.2834 59.8394 53.5767 60.0794 53.79C60.3194 54.0034 60.6394 54.11 61.0394 54.11C61.4928 54.11 61.9194 53.9767 62.2928 53.71V54.4834C61.8928 54.7234 61.3861 54.8567 60.7461 54.8567C60.1061 54.8567 59.6261 54.67 59.2794 54.27C58.9328 53.87 58.7461 53.3367 58.7461 52.6434C58.7461 51.9767 58.9328 51.4434 59.3328 51.0167C59.7328 50.59 60.2128 50.3767 60.7994 50.3767C61.3861 50.3767 61.8394 50.5634 62.1594 50.9367C62.4794 51.31 62.6394 51.8434 62.6394 52.51V52.8834H62.6128ZM61.6794 52.19C61.6794 51.8434 61.5994 51.5767 61.4394 51.39C61.2794 51.2034 61.0661 51.0967 60.7728 51.0967C60.5061 51.0967 60.2661 51.2034 60.0794 51.39C59.8928 51.6034 59.7594 51.87 59.7328 52.19H61.6794Z" fill="#606060"/>
</g>
</g>
<defs>
<clipPath id="clip0_6744_66078">
<rect width="72" height="48" fill="white" transform="translate(12 8.74988)"/>
</clipPath>
<clipPath id="clip1_6744_66078">
<rect width="42.6667" height="48" fill="white" transform="translate(26.666 8.74988)"/>
</clipPath>
</defs>
</svg>
