<svg width="96" height="65" viewBox="0 0 96 65" fill="none" xmlns="http://www.w3.org/2000/svg">
<rect width="96" height="64" transform="translate(0 0.749878)" fill="white"/>
<g clip-path="url(#clip0_6744_66055)">
<g clip-path="url(#clip1_6744_66055)">
<path d="M24.5631 56.6573H23.5619L23.0683 55.2551H20.906L20.4292 56.6573H19.4336L21.4921 51.1576H22.5186L24.5631 56.6573ZM22.8271 54.5146L22.0643 52.3215C22.0321 52.2083 22.0078 52.093 21.9914 51.9765H21.9745C21.9583 52.0933 21.933 52.2086 21.8988 52.3215L21.1444 54.5146H22.8271Z" fill="#465154"/>
<path d="M28.3153 53.104L26.195 55.9646H28.3069V56.6573H24.9414V56.3236L27.1065 53.4237H25.1433V52.731H28.3153V53.104Z" fill="#465154"/>
<path d="M32.4382 56.6573H31.5491V56.0375H31.5351C31.4251 56.26 31.2528 56.4458 31.0392 56.5722C30.8257 56.6987 30.58 56.7604 30.332 56.7499C29.3971 56.7499 28.9297 56.189 28.9297 55.0671V52.7197H29.8187V54.9634C29.8187 55.6683 30.0908 56.0207 30.6349 56.0207C30.7573 56.0252 30.8793 56.0024 30.9918 55.9539C31.1044 55.9054 31.2047 55.8324 31.2855 55.7402C31.462 55.5262 31.5529 55.2545 31.5407 54.9774V52.7197H32.4298L32.4382 56.6573Z" fill="#465154"/>
<path d="M35.7675 53.5779C35.6317 53.4855 35.4688 53.4411 35.3048 53.4517C35.1741 53.4522 35.0456 53.485 34.9306 53.5472C34.8156 53.6093 34.7178 53.6989 34.6457 53.8079C34.4556 54.0945 34.3631 54.4349 34.3821 54.7783V56.6573H33.4902V52.731H34.3793V53.5387H34.3933C34.4634 53.2901 34.6025 53.0665 34.7944 52.8936C34.9597 52.7443 35.1745 52.6614 35.3973 52.6608C35.524 52.6538 35.6504 52.6788 35.7647 52.7338L35.7675 53.5779Z" fill="#465154"/>
<path d="M39.707 54.9352H37.0314C37.0259 55.0912 37.053 55.2465 37.111 55.3914C37.1689 55.5363 37.2564 55.6675 37.368 55.7766C37.6127 55.9844 37.9281 56.0898 38.2486 56.0711C38.664 56.0727 39.0691 55.941 39.4041 55.6953V56.4132C38.972 56.6565 38.4802 56.7731 37.985 56.7498C37.7331 56.7634 37.4812 56.7227 37.2465 56.6302C37.0117 56.5378 36.7997 56.3959 36.6248 56.2141C36.2735 55.7938 36.0969 55.2547 36.1312 54.7081C36.1079 54.158 36.3023 53.6209 36.6724 53.2132C36.8431 53.0263 37.0518 52.8781 37.2844 52.7784C37.5171 52.6788 37.7684 52.6301 38.0214 52.6355C38.2547 52.6224 38.4879 52.6623 38.7035 52.7521C38.9192 52.842 39.1117 52.9795 39.2666 53.1543C39.5821 53.5652 39.7384 54.0761 39.707 54.5931V54.9352ZM38.8488 54.307C38.8625 54.0394 38.7821 53.7755 38.6216 53.561C38.5479 53.4699 38.4541 53.3972 38.3475 53.3485C38.2409 53.2999 38.1245 53.2766 38.0074 53.2805C37.8853 53.2786 37.7642 53.3026 37.652 53.351C37.5398 53.3993 37.4392 53.4709 37.3567 53.561C37.1717 53.7635 37.0567 54.0201 37.0286 54.293L38.8488 54.307Z" fill="#465154"/>
<path d="M42.8145 56.6573V51.1604H44.3934C46.4202 51.1604 47.4336 52.0541 47.4336 53.8416C47.4493 54.2229 47.3823 54.6031 47.237 54.9561C47.0918 55.309 46.8718 55.6263 46.5922 55.8861C45.9647 56.4242 45.1544 56.7003 44.3289 56.6573H42.8145ZM43.7231 51.9401V55.8945H44.4523C44.7247 55.911 44.9977 55.8726 45.255 55.7816C45.5122 55.6905 45.7486 55.5486 45.9499 55.3644C46.136 55.1647 46.2795 54.9291 46.3716 54.6721C46.4637 54.4151 46.5025 54.1421 46.4856 53.8696C46.4856 52.5832 45.82 51.9401 44.4888 51.9401H43.7231Z" fill="#465154"/>
<path d="M51.2603 56.6574H50.3965V56.0432H50.3825C50.2708 56.2616 50.0996 56.4438 49.8887 56.5689C49.6777 56.694 49.4357 56.7568 49.1905 56.75C48.8589 56.7691 48.5332 56.6562 48.2847 56.4359C48.1735 56.3269 48.0868 56.1955 48.0302 56.0504C47.9736 55.9054 47.9485 55.75 47.9565 55.5945C47.9565 54.8466 48.3838 54.4147 49.2382 54.2988L50.4049 54.1333C50.4049 53.5724 50.1394 53.292 49.6084 53.292C49.1418 53.2916 48.6915 53.4634 48.3436 53.7743V52.9947C48.7789 52.7441 49.2744 52.617 49.7767 52.6273C50.7676 52.6273 51.2631 53.1153 51.2631 54.0913L51.2603 56.6574ZM50.4021 54.7279L49.5776 54.8429C49.3731 54.8584 49.1752 54.9218 48.9998 55.028C48.9307 55.0853 48.8769 55.1589 48.8431 55.2421C48.8094 55.3252 48.7967 55.4155 48.8063 55.5048C48.804 55.5821 48.8189 55.6589 48.85 55.7297C48.881 55.8005 48.9274 55.8635 48.9858 55.9142C49.119 56.0256 49.2892 56.0827 49.4626 56.0741C49.5883 56.0781 49.7134 56.0552 49.8295 56.0068C49.9456 55.9584 50.05 55.8857 50.1357 55.7936C50.3202 55.6006 50.421 55.3426 50.4161 55.0757L50.4021 54.7279Z" fill="#465154"/>
<path d="M54.3247 56.6153C54.1085 56.7104 53.8735 56.7545 53.6376 56.7444C52.8766 56.7444 52.4961 56.3788 52.4961 55.6478V53.4266H51.8398V52.7282H52.4961V51.8196L53.3852 51.5671V52.7282H54.3247V53.4266H53.3852V55.3898C53.369 55.5657 53.4136 55.7418 53.5114 55.889C53.5662 55.9431 53.6324 55.9846 53.7051 56.0102C53.7778 56.0359 53.8553 56.0453 53.932 56.0376C54.073 56.0408 54.2107 55.9953 54.3219 55.9086L54.3247 56.6153Z" fill="#465154"/>
<path d="M58.1363 56.6573H57.2949V56.0431H57.2809C57.1692 56.2614 56.998 56.4437 56.7871 56.5688C56.5762 56.6938 56.3341 56.7566 56.089 56.7499C55.7574 56.769 55.4317 56.6561 55.1831 56.4358C55.072 56.3267 54.9852 56.1954 54.9287 56.0503C54.8721 55.9053 54.847 55.7499 54.855 55.5944C54.855 54.8465 55.2822 54.4146 56.1366 54.2987L57.3033 54.1332C57.3033 53.5723 57.0378 53.2918 56.5069 53.2918C56.0402 53.2915 55.5899 53.4633 55.242 53.7742V52.9946C55.6774 52.7439 56.1729 52.6169 56.6751 52.6272C57.6661 52.6272 58.1615 53.1152 58.1615 54.0911L58.1363 56.6573ZM57.2949 54.7278L56.4704 54.8428C56.2662 54.8573 56.0683 54.9198 55.8927 55.0251C55.8236 55.0824 55.7697 55.1559 55.736 55.2391C55.7022 55.3223 55.6896 55.4126 55.6991 55.5018C55.6968 55.5791 55.7118 55.656 55.7428 55.7268C55.7738 55.7976 55.8202 55.8606 55.8786 55.9113C56.0118 56.0227 56.182 56.0797 56.3554 56.0712C56.4811 56.0752 56.6062 56.0522 56.7223 56.0039C56.8384 55.9555 56.9428 55.8828 57.0285 55.7907C57.213 55.5977 57.3138 55.3397 57.309 55.0727L57.2949 54.7278Z" fill="#465154"/>
<path d="M64.5365 56.6573H61.502V51.1604H62.4134V55.8889H64.5449L64.5365 56.6573Z" fill="#465154"/>
<path d="M68.3287 56.6574H67.4649V56.0432H67.4508C67.3392 56.2616 67.168 56.4438 66.957 56.5689C66.7461 56.694 66.504 56.7568 66.2589 56.75C65.9273 56.7691 65.6016 56.6562 65.353 56.4359C65.2419 56.3269 65.1551 56.1955 65.0986 56.0504C65.042 55.9054 65.0169 55.75 65.0249 55.5945C65.0249 54.8466 65.4521 54.4147 66.3066 54.2988L67.4733 54.1333C67.4733 53.5724 67.2078 53.292 66.6768 53.292C66.2102 53.2916 65.7598 53.4634 65.4119 53.7743V52.9947C65.8473 52.7441 66.3428 52.617 66.845 52.6273C67.836 52.6273 68.3315 53.1153 68.3315 54.0913L68.3287 56.6574ZM67.4705 54.7279L66.6459 54.8429C66.4415 54.8583 66.2435 54.9217 66.0682 55.028C65.9991 55.0853 65.9453 55.1589 65.9115 55.2421C65.8777 55.3252 65.8651 55.4155 65.8747 55.5048C65.8724 55.5821 65.8873 55.6589 65.9183 55.7297C65.9494 55.8005 65.9958 55.8635 66.0542 55.9142C66.1873 56.0256 66.3576 56.0827 66.5309 56.0741C66.6566 56.0781 66.7818 56.0552 66.8979 56.0068C67.014 55.9584 67.1184 55.8857 67.204 55.7936C67.3885 55.6006 67.4893 55.3426 67.4845 55.0757L67.4705 54.7279Z" fill="#465154"/>
<path d="M72.9019 56.6574H71.7801L70.2544 54.7699H70.2404V56.6574H69.3457V50.8435H70.2404V54.5287H70.2544L71.6959 52.731H72.7645L71.1434 54.6241L72.9019 56.6574Z" fill="#465154"/>
<path d="M76.5644 54.9352H73.8888C73.8833 55.0912 73.9104 55.2465 73.9684 55.3914C74.0263 55.5363 74.1139 55.6675 74.2254 55.7766C74.4701 55.9844 74.7855 56.0898 75.106 56.0711C75.5215 56.0727 75.9265 55.941 76.2615 55.6953V56.4132C75.8295 56.6566 75.3377 56.7733 74.8424 56.7498C74.5905 56.7634 74.3386 56.7227 74.1039 56.6302C73.8692 56.5378 73.6571 56.3959 73.4822 56.2141C73.1309 55.7938 72.9543 55.2547 72.9886 54.7081C72.9653 54.158 73.1598 53.6209 73.5299 53.2132C73.7005 53.0263 73.9092 52.8781 74.1419 52.7784C74.3745 52.6788 74.6258 52.6301 74.8788 52.6355C75.1121 52.6224 75.3453 52.6623 75.5609 52.7521C75.7766 52.842 75.9691 52.9795 76.1241 53.1543C76.4395 53.5652 76.5958 54.0761 76.5644 54.5931V54.9352ZM75.7062 54.307C75.7199 54.0394 75.6395 53.7755 75.479 53.561C75.4055 53.4697 75.3117 53.3969 75.205 53.3482C75.0984 53.2995 74.9819 53.2764 74.8648 53.2805C74.7427 53.2786 74.6216 53.3026 74.5094 53.351C74.3973 53.3993 74.2966 53.4709 74.2142 53.561C74.0291 53.7635 73.9141 54.0201 73.886 54.293L75.7062 54.307Z" fill="#465154"/>
<path d="M67.7372 12.5024H49.6815C49.4886 12.5085 49.2995 12.4481 49.1458 12.3313L43.9798 8.89572C43.8176 8.79988 43.6326 8.7495 43.4442 8.74988H28.2631C28.0086 8.74979 27.7641 8.84915 27.5817 9.02676C27.3994 9.20437 27.2937 9.44618 27.2871 9.70062V41.6193C27.2937 41.8737 27.3994 42.1155 27.5817 42.2932C27.7641 42.4708 28.0086 42.5701 28.2631 42.57H67.7372C67.9918 42.5701 68.2363 42.4708 68.4186 42.2932C68.6009 42.1155 68.7066 41.8737 68.7132 41.6193V13.4784C68.7132 13.2195 68.6104 12.9713 68.4274 12.7882C68.2443 12.6052 67.9961 12.5024 67.7372 12.5024Z" fill="#005BA1"/>
<path d="M40.0811 10.6008H31.4543C31.239 10.6008 31.0645 10.7754 31.0645 10.9907V12.0872C31.0645 12.3025 31.239 12.4771 31.4543 12.4771H40.0811C40.2964 12.4771 40.4709 12.3025 40.4709 12.0872V10.9907C40.4709 10.7754 40.2964 10.6008 40.0811 10.6008Z" fill="white"/>
<path d="M32.6715 10.6008H31.3337C31.185 10.6008 31.0645 10.7214 31.0645 10.8701V12.2078C31.0645 12.3565 31.185 12.4771 31.3337 12.4771H32.6715C32.8202 12.4771 32.9407 12.3565 32.9407 12.2078V10.8701C32.9407 10.7214 32.8202 10.6008 32.6715 10.6008Z" fill="#1AC3F2"/>
<path d="M67.7372 12.4547H47.9988C47.8716 12.4492 47.7448 12.4715 47.6272 12.5199C47.5095 12.5683 47.4037 12.6418 47.3173 12.7351L44.0275 15.9127C43.8417 16.0855 43.5996 16.1852 43.346 16.1931H28.2631C28.0052 16.1931 27.7578 16.2952 27.5749 16.477C27.3921 16.6588 27.2886 16.9056 27.2871 17.1635V41.5295C27.2937 41.784 27.3994 42.0258 27.5817 42.2034C27.7641 42.381 28.0086 42.4803 28.2631 42.4803H67.7372C67.9918 42.4803 68.2363 42.381 68.4186 42.2034C68.6009 42.0258 68.7066 41.784 68.7132 41.5295V13.4839C68.7254 13.2259 68.6349 12.9736 68.4614 12.7823C68.2879 12.5909 68.0457 12.4761 67.7877 12.4631L67.7372 12.4547Z" fill="url(#paint0_linear_6744_66055)"/>
<path d="M50.8753 17.6206C50.8111 17.6027 50.7432 17.6027 50.679 17.6206C50.6163 17.6216 50.5548 17.6376 50.4996 17.6674C50.4444 17.6972 50.3972 17.7398 50.3621 17.7917L42.6636 28.9735C42.6293 29.0328 42.6113 29.1 42.6113 29.1684C42.6113 29.2368 42.6293 29.3041 42.6636 29.3633C42.6994 29.431 42.7515 29.4887 42.8151 29.5313C42.8787 29.5739 42.9519 29.6 43.0281 29.6073H47.5856L45.5635 36.3803C45.5446 36.4175 45.5333 36.4581 45.5302 36.4996C45.527 36.5412 45.5321 36.583 45.5451 36.6226C45.5582 36.6622 45.5789 36.6988 45.6061 36.7304C45.6333 36.762 45.6665 36.7879 45.7037 36.8066H45.7345C45.7897 36.8273 45.8505 36.8273 45.9056 36.8066C45.9701 36.8198 46.0372 36.8099 46.0952 36.7787C46.1531 36.7474 46.1982 36.6967 46.2225 36.6355L54.165 25.2967V25.0527C54.1586 24.9471 54.1121 24.8479 54.0349 24.7754C53.9577 24.7029 53.8558 24.6627 53.75 24.6629H48.8813L50.8444 18.0049C50.8911 17.9531 50.9194 17.8874 50.925 17.818C50.9306 17.7485 50.9131 17.6792 50.8753 17.6206Z" fill="white"/>
</g>
</g>
<defs>
<linearGradient id="paint0_linear_6744_66055" x1="48.5821" y1="6.06868" x2="47.6314" y2="43.9835" gradientUnits="userSpaceOnUse">
<stop stop-color="#32D4F5"/>
<stop offset="0.23" stop-color="#31D0F1"/>
<stop offset="0.46" stop-color="#2CC3E6"/>
<stop offset="0.7" stop-color="#25AFD4"/>
<stop offset="0.94" stop-color="#1C92BA"/>
<stop offset="1" stop-color="#198AB3"/>
</linearGradient>
<clipPath id="clip0_6744_66055">
<rect width="72" height="48" fill="white" transform="translate(12 8.74988)"/>
</clipPath>
<clipPath id="clip1_6744_66055">
<rect width="57.1316" height="48" fill="white" transform="translate(19.4336 8.74988)"/>
</clipPath>
</defs>
</svg>
