<svg width="96" height="65" viewBox="0 0 96 65" fill="none" xmlns="http://www.w3.org/2000/svg">
<rect width="96" height="64" transform="translate(0 0.689819)" fill="white"/>
<g clip-path="url(#clip0_6744_66275)">
<g clip-path="url(#clip1_6744_66275)">
<path d="M55.1953 8.68982H40.8533C39.9357 8.68982 39.1027 9.17272 38.644 9.9695L31.473 22.392C31.0142 23.1767 31.0142 24.1546 31.473 24.9514L38.644 37.3739C39.1027 38.1586 39.9478 38.6536 40.8533 38.6536H55.1953C56.1128 38.6536 56.9458 38.1707 57.4046 37.3739L64.5756 24.9514C65.0343 24.1667 65.0343 23.1888 64.5756 22.392L57.4046 9.9695C56.9458 9.17272 56.1007 8.68982 55.1953 8.68982Z" fill="#4683ED"/>
<path d="M53.9509 20.4725H51.3795L51.0535 21.9815L49.5444 20.4725L46.9609 20.4L46.7678 22.1022L45.1259 20.4604L42.5666 23.0197L44.3171 24.7702L42.4941 24.8427L42.5545 27.4262L53.7336 38.6053H55.1581C56.0756 38.6053 56.9086 38.1224 57.3674 37.3256L62.2809 28.8145L53.9509 20.4725Z" fill="#417BDC"/>
<path d="M44.8133 23.044H42.5799C42.3988 23.044 42.2539 22.8991 42.2539 22.718V20.4726C42.2539 20.2915 42.3988 20.1466 42.5799 20.1466H44.8133C44.9944 20.1466 45.1392 20.2915 45.1392 20.4726V22.706C45.1392 22.887 44.9944 23.044 44.8133 23.044Z" fill="white"/>
<path d="M49.2195 20.1466H46.9861C46.805 20.1466 46.6602 20.2915 46.6602 20.4726V22.706C46.6602 22.887 46.805 23.0319 46.9861 23.0319H49.2195C49.4006 23.0319 49.5455 22.887 49.5455 22.706V20.4726C49.5455 20.2915 49.4006 20.1466 49.2195 20.1466ZM48.9781 22.4645H47.2396V20.7261H48.9781V22.4645Z" fill="white"/>
<path d="M53.6258 20.1466H51.3924C51.2113 20.1466 51.0664 20.2915 51.0664 20.4726V22.706C51.0664 22.887 51.2113 23.0319 51.3924 23.0319H53.6258C53.8069 23.0319 53.9517 22.887 53.9517 22.706V20.4726C53.9517 20.2915 53.8069 20.1466 53.6258 20.1466ZM53.3843 22.4645H51.6459V20.7261H53.3843V22.4645Z" fill="white"/>
<path d="M44.8133 24.5531H42.5799C42.3988 24.5531 42.2539 24.698 42.2539 24.8791V27.1125C42.2539 27.2935 42.3988 27.4384 42.5799 27.4384H44.8133C44.9944 27.4384 45.1392 27.2935 45.1392 27.1125V24.8791C45.1392 24.698 44.9944 24.5531 44.8133 24.5531ZM44.5718 26.871H42.8334V25.1326H44.5718V26.871Z" fill="white"/>
<path d="M49.2195 27.4504H46.9861C46.805 27.4504 46.6602 27.3055 46.6602 27.1244V24.891C46.6602 24.7099 46.805 24.5651 46.9861 24.5651H49.2195C49.4006 24.5651 49.5455 24.7099 49.5455 24.891V27.1244C49.5455 27.2934 49.4006 27.4504 49.2195 27.4504Z" fill="white"/>
<path d="M53.6258 27.4504H51.3924C51.2113 27.4504 51.0664 27.3055 51.0664 27.1244V24.891C51.0664 24.7099 51.2113 24.5651 51.3924 24.5651H53.6258C53.8069 24.5651 53.9517 24.7099 53.9517 24.891V27.1244C53.9517 27.2934 53.8069 27.4504 53.6258 27.4504Z" fill="white"/>
<path d="M37.8719 44.1948H39.9242V46.9956C39.5861 47.1042 39.2602 47.1887 38.9584 47.225C38.6445 47.2733 38.3185 47.2974 37.9564 47.2974C37.1113 47.2974 36.4594 47.0439 36.0006 46.5489C35.5419 46.0539 35.3125 45.3417 35.3125 44.4362C35.3125 43.5429 35.566 42.8306 36.0851 42.3236C36.6043 41.8165 37.3165 41.563 38.222 41.563C38.8014 41.563 39.3568 41.6716 39.8759 41.901L39.5499 42.6616C39.0912 42.4563 38.6445 42.3477 38.1857 42.3477C37.5942 42.3477 37.1234 42.5409 36.7733 42.903C36.4232 43.2773 36.2542 43.7843 36.2542 44.4362C36.2542 45.1244 36.4111 45.6314 36.725 45.9936C37.0389 46.3437 37.4855 46.5248 38.065 46.5248C38.3548 46.5248 38.6807 46.4885 39.0067 46.4161V44.9795H37.8477V44.1948H37.8719Z" fill="#7A7A7A"/>
<path d="M44.91 45.1004C44.91 45.7885 44.729 46.3318 44.3789 46.7181C44.0288 47.1044 43.5338 47.2976 42.906 47.2976C42.5076 47.2976 42.1575 47.2131 41.8557 47.032C41.5539 46.8509 41.3245 46.5974 41.1555 46.2593C40.9986 45.9213 40.9141 45.535 40.9141 45.1004C40.9141 44.4123 41.0951 43.8811 41.4452 43.4948C41.7953 43.1084 42.2903 42.9153 42.9302 42.9153C43.5459 42.9153 44.0288 43.1084 44.3789 43.5068C44.729 43.9052 44.91 44.4364 44.91 45.1004ZM41.8316 45.1004C41.8316 46.0783 42.1937 46.5612 42.9181 46.5612C43.6304 46.5612 43.9925 46.0783 43.9925 45.1004C43.9925 44.1346 43.6304 43.6517 42.9181 43.6517C42.5438 43.6517 42.2662 43.7724 42.0972 44.0259C41.9161 44.2795 41.8316 44.6416 41.8316 45.1004Z" fill="#7A7A7A"/>
<path d="M49.6913 45.1004C49.6913 45.7885 49.5102 46.3318 49.1601 46.7181C48.81 47.1044 48.315 47.2976 47.6873 47.2976C47.2889 47.2976 46.9388 47.2131 46.637 47.032C46.3352 46.8509 46.1058 46.5974 45.9368 46.2593C45.7798 45.9213 45.6953 45.535 45.6953 45.1004C45.6953 44.4123 45.8764 43.8811 46.2265 43.4948C46.5766 43.1084 47.0716 42.9153 47.7114 42.9153C48.3271 42.9153 48.81 43.1084 49.1601 43.5068C49.5102 43.9052 49.6913 44.4364 49.6913 45.1004ZM46.6128 45.1004C46.6128 46.0783 46.975 46.5612 47.6993 46.5612C48.4116 46.5612 48.7738 46.0783 48.7738 45.1004C48.7738 44.1346 48.4116 43.6517 47.6993 43.6517C47.3251 43.6517 47.0474 43.7724 46.8784 44.0259C46.6973 44.2795 46.6128 44.6416 46.6128 45.1004Z" fill="#7A7A7A"/>
<path d="M54.2909 42.9997V43.4946L53.5665 43.6274C53.6269 43.712 53.6873 43.8206 53.7356 43.9534C53.7838 44.0862 53.7959 44.219 53.7959 44.3639C53.7959 44.7985 53.651 45.1365 53.3492 45.39C53.0474 45.6435 52.637 45.7643 52.1058 45.7643C51.973 45.7643 51.8523 45.7522 51.7436 45.728C51.5504 45.8488 51.4539 45.9936 51.4539 46.1506C51.4539 46.2472 51.5022 46.3196 51.5867 46.3679C51.6712 46.4162 51.8402 46.4403 52.0816 46.4403H52.818C53.2889 46.4403 53.639 46.5369 53.8804 46.7421C54.1219 46.9353 54.2426 47.225 54.2426 47.5993C54.2426 48.0822 54.0494 48.4443 53.651 48.7099C53.2527 48.9755 52.6852 49.0963 51.9368 49.0963C51.3573 49.0963 50.9227 48.9997 50.6209 48.7945C50.3191 48.5892 50.1621 48.2995 50.1621 47.9252C50.1621 47.6596 50.2466 47.4423 50.4036 47.2733C50.5726 47.0922 50.8019 46.9715 51.0917 46.8991C50.971 46.8508 50.8744 46.7663 50.7899 46.6576C50.7174 46.549 50.6692 46.4283 50.6692 46.2955C50.6692 46.1385 50.7174 46.0057 50.802 45.8971C50.8865 45.7884 51.0193 45.6798 51.2003 45.5711C50.983 45.4745 50.8019 45.3176 50.6692 45.1124C50.5364 44.8951 50.4639 44.6536 50.4639 44.3639C50.4639 43.9051 50.6088 43.555 50.8985 43.3015C51.1883 43.048 51.5987 42.9272 52.1299 42.9272C52.2506 42.9272 52.3714 42.9393 52.5042 42.9514C52.637 42.9635 52.7335 42.9876 52.806 42.9997H54.2909ZM50.971 47.8769C50.971 48.0701 51.0555 48.215 51.2366 48.3236C51.4056 48.4323 51.6591 48.4806 51.973 48.4806C52.4559 48.4806 52.8301 48.4081 53.0595 48.2753C53.3009 48.1305 53.4217 47.9494 53.4217 47.72C53.4217 47.5389 53.3613 47.4061 53.2285 47.3337C53.0957 47.2613 52.8543 47.213 52.4921 47.213H51.816C51.5625 47.213 51.3573 47.2733 51.2003 47.394C51.0434 47.5148 50.971 47.6717 50.971 47.8769ZM51.3573 44.3639C51.3573 44.6295 51.4297 44.8347 51.5625 44.9796C51.6953 45.1244 51.8885 45.1969 52.1541 45.1969C52.6732 45.1969 52.9388 44.9192 52.9388 44.3639C52.9388 44.0862 52.8784 43.881 52.7456 43.724C52.6128 43.5792 52.4197 43.4946 52.1541 43.4946C51.8885 43.4946 51.6953 43.5671 51.5625 43.712C51.4176 43.8689 51.3573 44.0862 51.3573 44.3639Z" fill="#7A7A7A"/>
<path d="M55.9676 47.225H55.0742V41.2854H55.9676V47.225Z" fill="#7A7A7A"/>
<path d="M59.0947 47.2975C58.4428 47.2975 57.9237 47.1043 57.5495 46.718C57.1752 46.3317 56.9941 45.8125 56.9941 45.1365C56.9941 44.4484 57.1632 43.9051 57.5133 43.5067C57.8513 43.1083 58.3342 42.9152 58.9257 42.9152C59.4811 42.9152 59.9277 43.0842 60.2416 43.4222C60.5676 43.7602 60.7245 44.2311 60.7245 44.8226V45.3055H57.9116C57.9237 45.716 58.0324 46.0298 58.2497 46.2472C58.4549 46.4645 58.7567 46.5731 59.131 46.5731C59.3845 46.5731 59.6139 46.549 59.8312 46.5007C60.0485 46.4524 60.2778 46.3799 60.5193 46.2713V46.9956C60.302 47.1043 60.0847 47.1767 59.8553 47.2129C59.638 47.2733 59.3845 47.2975 59.0947 47.2975ZM58.9257 43.6033C58.636 43.6033 58.4066 43.6878 58.2376 43.8689C58.0686 44.05 57.9599 44.3156 57.9358 44.6536H59.8553C59.8553 44.3035 59.7708 44.0379 59.6018 43.8568C59.4328 43.6999 59.2155 43.6033 58.9257 43.6033Z" fill="#7A7A7A"/>
<path d="M20.4873 51.7281C19.9681 51.7281 19.5456 51.9092 19.2559 52.2834C18.9541 52.6576 18.8092 53.1647 18.8092 53.8166C18.8092 54.5047 18.9541 55.0238 19.2438 55.3739C19.5335 55.724 19.9561 55.9051 20.4993 55.9051C20.7408 55.9051 20.9702 55.881 21.1875 55.8327C21.4048 55.7844 21.6341 55.724 21.8756 55.6516V56.4363C21.441 56.6053 20.946 56.6898 20.3907 56.6898C19.5698 56.6898 18.942 56.4363 18.5074 55.9413C18.0728 55.4464 17.8555 54.7341 17.8555 53.8166C17.8555 53.2371 17.9641 52.7301 18.1694 52.2955C18.3867 51.8609 18.6885 51.5228 19.0869 51.2935C19.4852 51.0641 19.9561 50.9434 20.4993 50.9434C21.0667 50.9434 21.5979 51.0641 22.0808 51.3055L21.7549 52.0661C21.5617 51.9816 21.3685 51.8971 21.1512 51.8367C20.946 51.7643 20.7166 51.7281 20.4873 51.7281Z" fill="#7A7A7A"/>
<path d="M23.868 56.6054H22.9746V50.6658H23.868V56.6054Z" fill="#7A7A7A"/>
<path d="M28.9022 54.4927C28.9022 55.1809 28.7211 55.7241 28.371 56.1104C28.0209 56.4968 27.526 56.6899 26.8982 56.6899C26.4998 56.6899 26.1497 56.6054 25.8479 56.4243C25.5461 56.2432 25.3167 55.9897 25.1477 55.6517C24.9908 55.3137 24.9062 54.9273 24.9062 54.4927C24.9062 53.8046 25.0873 53.2734 25.4374 52.8871C25.7875 52.5008 26.2825 52.3076 26.9223 52.3076C27.538 52.3076 28.0209 52.5008 28.371 52.8992C28.7211 53.2976 28.9022 53.8167 28.9022 54.4927ZM25.8238 54.4927C25.8238 55.4706 26.1859 55.9535 26.9103 55.9535C27.6225 55.9535 27.9847 55.4706 27.9847 54.4927C27.9847 53.5269 27.6225 53.044 26.9103 53.044C26.536 53.044 26.2584 53.1648 26.0893 53.4183C25.9083 53.6597 25.8238 54.0219 25.8238 54.4927Z" fill="#7A7A7A"/>
<path d="M32.9103 56.6053L32.7896 56.05H32.7413C32.6206 56.2432 32.4395 56.4001 32.2101 56.5088C31.9808 56.6174 31.7152 56.6778 31.4254 56.6778C30.9184 56.6778 30.5321 56.545 30.2785 56.2915C30.025 56.0379 29.9043 55.6516 29.9043 55.1325V52.3679H30.8097V54.9756C30.8097 55.3015 30.8701 55.543 31.0029 55.6999C31.1357 55.8569 31.3409 55.9414 31.6307 55.9414C32.0049 55.9414 32.2826 55.8327 32.4637 55.6033C32.6447 55.374 32.7292 54.9997 32.7292 54.4685V52.3679H33.6347V56.5933H32.9103V56.6053Z" fill="#7A7A7A"/>
<path d="M36.3265 56.6898C35.7953 56.6898 35.3849 56.4967 35.0951 56.1224C34.8054 55.7361 34.6484 55.2049 34.6484 54.5168C34.6484 53.8287 34.7933 53.2854 35.0951 52.8991C35.3969 52.5128 35.8074 52.3196 36.3386 52.3196C36.8939 52.3196 37.3164 52.5248 37.6062 52.9353H37.6545C37.6062 52.6335 37.5941 52.392 37.5941 52.223V50.6898H38.4995V56.6295H37.7993L37.6424 56.0741H37.6062C37.2923 56.4725 36.8818 56.6898 36.3265 56.6898ZM36.568 55.9534C36.9422 55.9534 37.2078 55.8447 37.3768 55.6395C37.5458 55.4343 37.6303 55.0963 37.6424 54.6254V54.5047C37.6424 53.9735 37.5579 53.5993 37.3768 53.3699C37.2078 53.1405 36.9301 53.0319 36.568 53.0319C36.2541 53.0319 36.0126 53.1647 35.8436 53.4182C35.6746 53.6717 35.5901 54.0339 35.5901 54.5168C35.5901 54.9876 35.6746 55.3377 35.8436 55.5912C35.9885 55.8327 36.2299 55.9534 36.568 55.9534Z" fill="#7A7A7A"/>
<path d="M46.4318 53.7684C46.4318 54.6859 46.1783 55.3982 45.6592 55.8811C45.1521 56.364 44.4157 56.6175 43.4499 56.6175H41.8926V51.04H43.6189C44.5123 51.04 45.2004 51.2815 45.6954 51.7523C46.1904 52.2231 46.4318 52.8992 46.4318 53.7684ZM45.4781 53.7926C45.4781 52.4525 44.8503 51.7885 43.6069 51.7885H42.8101V55.8449H43.462C44.802 55.8449 45.4781 55.1567 45.4781 53.7926Z" fill="#7A7A7A"/>
<path d="M50.1859 56.6054L50.0048 56.0138H49.9686C49.7634 56.2673 49.5581 56.4484 49.3529 56.5329C49.1477 56.6174 48.8821 56.6778 48.5561 56.6778C48.1457 56.6778 47.8197 56.5692 47.5903 56.3398C47.361 56.1104 47.2402 55.7965 47.2402 55.3861C47.2402 54.9515 47.3972 54.6255 47.7231 54.3961C48.0491 54.1788 48.5441 54.0581 49.196 54.034L49.9203 54.0098V53.7804C49.9203 53.5148 49.86 53.3096 49.7272 53.1768C49.6064 53.044 49.4012 52.9716 49.1356 52.9716C48.9183 52.9716 48.7131 53.0078 48.5078 53.0682C48.3147 53.1285 48.1215 53.201 47.9404 53.2975L47.6507 52.6577C47.8801 52.537 48.1336 52.4525 48.3992 52.38C48.6769 52.3197 48.9304 52.2834 49.1718 52.2834C49.703 52.2834 50.1135 52.4042 50.3911 52.6335C50.6688 52.8629 50.8016 53.2372 50.8016 53.7321V56.5812H50.1859V56.6054ZM48.8459 56.0018C49.1718 56.0018 49.4374 55.9052 49.6306 55.7241C49.8237 55.543 49.9324 55.2895 49.9324 54.9635V54.6014L49.3891 54.6255C48.9666 54.6376 48.6648 54.71 48.4716 54.8428C48.2785 54.9635 48.1819 55.1567 48.1819 55.4223C48.1819 55.6154 48.2422 55.7603 48.3509 55.8569C48.4595 55.9414 48.6165 56.0018 48.8459 56.0018Z" fill="#7A7A7A"/>
<path d="M53.6507 55.9533C53.868 55.9533 54.0853 55.9171 54.3026 55.8447V56.5207C54.206 56.569 54.0732 56.6052 53.9163 56.6294C53.7593 56.6535 53.6024 56.6777 53.4334 56.6777C52.5883 56.6777 52.1537 56.231 52.1537 55.3376V53.0559H51.5742V52.6575L52.1899 52.3316L52.4917 51.4382H53.0471V52.3799H54.2543V53.0559H53.0471V55.3135C53.0471 55.5308 53.0953 55.6877 53.204 55.7964C53.3368 55.905 53.4696 55.9533 53.6507 55.9533Z" fill="#7A7A7A"/>
<path d="M57.7914 56.6054L57.6103 56.0138H57.5741C57.3688 56.2673 57.1636 56.4484 56.9584 56.5329C56.7531 56.6295 56.4876 56.6778 56.1616 56.6778C55.7511 56.6778 55.4252 56.5692 55.1958 56.3398C54.9664 56.1104 54.8457 55.7965 54.8457 55.3861C54.8457 54.9515 55.0026 54.6255 55.3286 54.3961C55.6546 54.1788 56.1495 54.0581 56.8014 54.034L57.5258 54.0098V53.7804C57.5258 53.5148 57.4654 53.3096 57.3326 53.1768C57.1998 53.044 57.0067 52.9716 56.7411 52.9716C56.5238 52.9716 56.3185 53.0078 56.1133 53.0682C55.9201 53.1285 55.727 53.201 55.5459 53.2975L55.2562 52.6577C55.4855 52.537 55.7391 52.4525 56.0047 52.38C56.2823 52.3197 56.5358 52.2834 56.7773 52.2834C57.3085 52.2834 57.7189 52.4042 57.9966 52.6335C58.2743 52.8629 58.4071 53.2372 58.4071 53.7321V56.5812H57.7914V56.6054ZM56.4513 56.0018C56.7773 56.0018 57.0429 55.9052 57.236 55.7241C57.4292 55.543 57.5379 55.2895 57.5379 54.9635V54.6014L56.9946 54.6255C56.5721 54.6376 56.2702 54.71 56.0771 54.8428C55.8839 54.9635 55.7874 55.1567 55.7874 55.4223C55.7874 55.6154 55.8477 55.7603 55.9564 55.8569C56.065 55.9414 56.234 56.0018 56.4513 56.0018Z" fill="#7A7A7A"/>
<path d="M62.5241 55.4101C62.5241 55.8206 62.3793 56.1344 62.0775 56.3638C61.7756 56.5811 61.341 56.6898 60.7857 56.6898C60.2183 56.6898 59.7716 56.6053 59.4336 56.4363V55.6515C59.9286 55.8809 60.3873 55.9896 60.8219 55.9896C61.3773 55.9896 61.6549 55.8206 61.6549 55.4946C61.6549 55.386 61.6187 55.3014 61.5583 55.229C61.498 55.1566 61.4014 55.0841 61.2565 55.0117C61.1117 54.9393 60.9185 54.8548 60.6771 54.7461C60.1942 54.553 59.8561 54.3719 59.6871 54.1787C59.5181 53.9855 59.4336 53.7441 59.4336 53.4423C59.4336 53.0801 59.5785 52.8025 59.8682 52.5972C60.1579 52.392 60.5563 52.2954 61.0634 52.2954C61.5583 52.2954 62.0292 52.392 62.4758 52.5972L62.1861 53.2733C61.7274 53.0801 61.3531 52.9956 61.0392 52.9956C60.5684 52.9956 60.327 53.1284 60.327 53.4061C60.327 53.5389 60.3873 53.6475 60.508 53.7441C60.6288 53.8407 60.9064 53.9614 61.3169 54.1183C61.667 54.2511 61.9205 54.3719 62.0775 54.4926C62.2344 54.6012 62.3551 54.734 62.4276 54.8789C62.4879 55.0238 62.5241 55.2049 62.5241 55.4101Z" fill="#7A7A7A"/>
<path d="M65.0706 55.9534C65.2879 55.9534 65.5052 55.9172 65.7225 55.8448V56.5209C65.6259 56.5691 65.4931 56.6054 65.3362 56.6295C65.1793 56.6536 65.0223 56.6778 64.8533 56.6778C64.0082 56.6778 63.5736 56.2311 63.5736 55.3377V53.0561H62.9941V52.6577L63.6098 52.3317L63.9116 51.4384H64.467V52.38H65.6742V53.0561H64.467V55.3136C64.467 55.5309 64.5153 55.6879 64.6239 55.7965C64.7446 55.9052 64.8895 55.9534 65.0706 55.9534Z" fill="#7A7A7A"/>
<path d="M70.3104 54.4926C70.3104 55.1807 70.1293 55.724 69.7792 56.1103C69.4291 56.4966 68.9342 56.6898 68.3064 56.6898C67.908 56.6898 67.5579 56.6053 67.2561 56.4242C66.9543 56.2431 66.7249 55.9896 66.5559 55.6516C66.399 55.3135 66.3145 54.9272 66.3145 54.4926C66.3145 53.8045 66.4955 53.2733 66.8456 52.887C67.1957 52.5007 67.6907 52.3075 68.3305 52.3075C68.9462 52.3075 69.4291 52.5007 69.7792 52.899C70.1293 53.2974 70.3104 53.8166 70.3104 54.4926ZM67.244 54.4926C67.244 55.4705 67.6062 55.9534 68.3305 55.9534C69.0428 55.9534 69.405 55.4705 69.405 54.4926C69.405 53.5268 69.0428 53.0439 68.3305 53.0439C67.9563 53.0439 67.6786 53.1646 67.5096 53.4182C67.3285 53.6596 67.244 54.0218 67.244 54.4926Z" fill="#7A7A7A"/>
<path d="M73.4845 52.3076C73.6656 52.3076 73.8104 52.3197 73.9312 52.3438L73.8467 53.1768C73.7139 53.1406 73.5811 53.1285 73.4483 53.1285C73.0861 53.1285 72.7963 53.2493 72.579 53.4786C72.3617 53.708 72.241 54.0219 72.241 54.3962V56.6054H71.3477V52.3801H72.0479L72.1686 53.1285H72.2169C72.3617 52.875 72.5428 52.6819 72.7601 52.5249C72.9774 52.3801 73.231 52.3076 73.4845 52.3076Z" fill="#7A7A7A"/>
<path d="M76.5635 56.6898C75.9116 56.6898 75.3925 56.4966 75.0182 56.1103C74.644 55.724 74.4629 55.2049 74.4629 54.5288C74.4629 53.8407 74.6319 53.2974 74.982 52.899C75.32 52.5007 75.8029 52.3075 76.3945 52.3075C76.9498 52.3075 77.3965 52.4765 77.7104 52.8145C78.0363 53.1526 78.1933 53.6234 78.1933 54.2149V54.6978H75.3804C75.3925 55.1083 75.5011 55.4222 75.7184 55.6395C75.9237 55.8568 76.2255 55.9654 76.5997 55.9654C76.8532 55.9654 77.0826 55.9413 77.2999 55.893C77.5172 55.8447 77.7466 55.7723 77.988 55.6636V56.388C77.7707 56.4966 77.5534 56.5691 77.3241 56.6053C77.1068 56.6656 76.8532 56.6898 76.5635 56.6898ZM76.3945 52.9836C76.1047 52.9836 75.8754 53.0681 75.7063 53.2491C75.5373 53.4302 75.4287 53.6958 75.4045 54.0339H77.3241C77.3241 53.6838 77.2395 53.4182 77.0705 53.2371C76.9015 53.0801 76.6842 52.9836 76.3945 52.9836Z" fill="#7A7A7A"/>
</g>
</g>
<defs>
<clipPath id="clip0_6744_66275">
<rect width="72" height="48" fill="white" transform="translate(12 8.68982)"/>
</clipPath>
<clipPath id="clip1_6744_66275">
<rect width="60.3622" height="48" fill="white" transform="translate(17.8184 8.68982)"/>
</clipPath>
</defs>
</svg>
