<svg width="96" height="65" viewBox="0 0 96 65" fill="none" xmlns="http://www.w3.org/2000/svg">
<rect width="96" height="64" transform="translate(0 0.749878)" fill="white"/>
<g clip-path="url(#clip0_6744_66224)">
<g clip-path="url(#clip1_6744_66224)">
<path d="M63.8073 18.3225L43.5924 8.98304C42.3582 8.40704 40.9044 8.95561 40.3284 10.1899L30.989 30.391C30.413 31.6253 30.9616 33.079 32.1959 33.655L52.4107 42.9945C53.645 43.5705 55.0987 43.0219 55.6747 41.7876L65.0142 21.5728C65.5764 20.3522 65.0416 18.8848 63.8073 18.3225Z" fill="#70C9E4"/>
<path d="M36.873 35.8218L52.4113 42.9944C53.6456 43.5704 55.0993 43.0218 55.6753 41.7875L58.4319 35.8081H36.873V35.8218Z" fill="#1463B9"/>
<path d="M55.0854 12.6173H37.5174C36.1596 12.6173 35.0625 13.7145 35.0625 15.0722V37.3442C35.0625 38.7019 36.1596 39.799 37.5174 39.799H59.7894C61.1471 39.799 62.2442 38.7019 62.2442 37.3442V20.0916C62.2442 19.7487 62.1071 19.4196 61.8739 19.159L56.0591 13.015C55.8122 12.7682 55.4556 12.6173 55.0854 12.6173Z" fill="#1463B9"/>
<path d="M49.4064 21.2299L48.4327 24.8642H51.1344C51.3264 24.8642 51.4361 25.0699 51.3264 25.2208L46.6498 32.0368C46.499 32.2562 46.1698 32.0917 46.2384 31.8448L47.4315 27.7579H44.7024C44.5104 27.7579 44.4007 27.5522 44.5104 27.3877L49.0087 21.0379C49.1321 20.8322 49.475 20.9831 49.4064 21.2299Z" fill="#F7F7F7"/>
<path d="M25.9003 56.654L25.4066 55.0357H22.9243L22.4306 56.654H20.8672L23.2672 49.8105H25.0363L27.45 56.654H25.9003ZM25.05 53.8288C24.5975 52.3614 24.3369 51.5248 24.282 51.3328C24.2272 51.1408 24.186 50.99 24.1586 50.8803C24.0626 51.278 23.7609 52.2654 23.2809 53.8288H25.05Z" fill="#1463B9"/>
<path d="M31.8252 56.6541H27.7109V55.8175L30.1247 52.5261H27.8481V51.4426H31.7292V52.3615L29.3841 55.5569H31.8115V56.6541H31.8252Z" fill="#1463B9"/>
<path d="M36.5427 56.654L36.3507 55.982H36.2822C36.1313 56.2288 35.9119 56.4071 35.6376 56.5443C35.3633 56.6814 35.0342 56.7363 34.6776 56.7363C34.0605 56.7363 33.6079 56.5717 33.2925 56.2425C32.977 55.9134 32.8262 55.4471 32.8262 54.83V51.4288H34.2525V54.4734C34.2525 54.8437 34.321 55.1317 34.4582 55.3237C34.5953 55.5157 34.801 55.6117 35.1027 55.6117C35.5005 55.6117 35.7885 55.4745 35.9667 55.214C36.145 54.9534 36.2273 54.5145 36.2273 53.8974V51.4425H37.6536V56.654H36.5427Z" fill="#1463B9"/>
<path d="M42.0286 51.3466C42.2206 51.3466 42.3851 51.3603 42.5086 51.3877L42.3989 52.718C42.2891 52.6906 42.1383 52.6768 41.9737 52.6768C41.5211 52.6768 41.1646 52.7866 40.9177 53.0197C40.6708 53.2528 40.5337 53.582 40.5337 53.9934V56.6403H39.1074V51.4288H40.1771L40.3829 52.3066H40.4514C40.616 52.0186 40.8354 51.7854 41.1097 51.6071C41.4114 51.4426 41.7131 51.3466 42.0286 51.3466Z" fill="#1463B9"/>
<path d="M45.813 56.7499C44.9764 56.7499 44.3181 56.5167 43.8518 56.0504C43.3855 55.5841 43.1387 54.9259 43.1387 54.0893C43.1387 53.2116 43.3581 52.5396 43.797 52.0596C44.2358 51.5796 44.8392 51.3464 45.6072 51.3464C46.3478 51.3464 46.9101 51.5522 47.3215 51.9773C47.733 52.4024 47.9387 52.9784 47.9387 53.719V54.4047H44.5787C44.5924 54.8024 44.7158 55.1179 44.9352 55.351C45.1547 55.5841 45.4701 55.6939 45.8815 55.6939C46.197 55.6939 46.4987 55.6664 46.773 55.5979C47.0472 55.5293 47.349 55.4333 47.6507 55.2824V56.3796C47.4038 56.503 47.1432 56.599 46.8552 56.6539C46.5672 56.7224 46.2244 56.7499 45.813 56.7499ZM45.621 52.3613C45.3192 52.3613 45.0861 52.4573 44.9078 52.6493C44.7432 52.8413 44.6335 53.1156 44.6198 53.4584H46.6084C46.6084 53.1019 46.5124 52.8413 46.3341 52.6493C46.1558 52.4573 45.9227 52.3613 45.621 52.3613Z" fill="#1463B9"/>
<path d="M53.1373 54.0481V56.6676H51.6973V49.8516H53.6858C54.6047 49.8516 55.2904 50.0161 55.743 50.359C56.1818 50.7018 56.415 51.2093 56.415 51.895C56.415 52.2927 56.3053 52.6493 56.0858 52.9647C55.8664 53.2801 55.551 53.527 55.1533 53.7053C56.1818 55.2413 56.8401 56.2287 57.1556 56.6676H55.551L53.919 54.0481H53.1373ZM53.1373 52.8687H53.6036C54.0561 52.8687 54.399 52.7864 54.6184 52.6356C54.8378 52.4847 54.9476 52.2378 54.9476 51.9224C54.9476 51.5933 54.8378 51.3738 54.6184 51.2367C54.399 51.0996 54.0561 51.031 53.5898 51.031H53.151V52.8687H53.1373Z" fill="#1463B9"/>
<path d="M60.6117 56.6539H59.1717V51.0447H57.3203V49.8379H62.4632V51.0447H60.6117V56.6539Z" fill="#1463B9"/>
<path d="M69.7036 53.239C69.7036 54.3636 69.4293 55.2276 68.867 55.8448C68.3048 56.4482 67.5093 56.7499 66.467 56.7499C65.4248 56.7499 64.6156 56.4482 64.067 55.8448C63.5048 55.2413 63.2305 54.3636 63.2305 53.239C63.2305 52.1008 63.5048 51.2368 64.067 50.647C64.6293 50.0436 65.4385 49.7556 66.4808 49.7556C67.523 49.7556 68.3322 50.0573 68.8808 50.6608C69.4156 51.2368 69.7036 52.1145 69.7036 53.239ZM64.7253 53.239C64.7253 54.007 64.8762 54.5693 65.1642 54.9533C65.4522 55.3373 65.891 55.5293 66.4533 55.5293C67.6053 55.5293 68.1813 54.7613 68.1813 53.2253C68.1813 51.6893 67.6053 50.9213 66.467 50.9213C65.891 50.9213 65.4522 51.1133 65.1642 51.4973C64.8762 51.9088 64.7253 52.4848 64.7253 53.239Z" fill="#1463B9"/>
<path d="M75.1348 54.7614C75.1348 55.3785 74.9154 55.8585 74.4765 56.2151C74.0377 56.5717 73.4205 56.7499 72.6251 56.7499C71.8983 56.7499 71.2537 56.6128 70.6914 56.3385V54.9945C71.1577 55.2002 71.5417 55.3374 71.8571 55.4334C72.1725 55.5157 72.4606 55.5568 72.7348 55.5568C73.0503 55.5568 73.2971 55.5019 73.4617 55.3785C73.6263 55.2551 73.7223 55.0768 73.7223 54.8437C73.7223 54.7065 73.6811 54.5968 73.6126 54.4871C73.544 54.3774 73.4343 54.2814 73.2834 54.1854C73.1326 54.0894 72.8445 53.9385 72.4057 53.7191C71.9943 53.5271 71.6788 53.3351 71.4731 53.1568C71.2674 52.9785 71.1028 52.7728 70.9794 52.5259C70.856 52.2928 70.7874 52.0048 70.7874 51.6894C70.7874 51.0859 70.9931 50.6197 71.4046 50.2631C71.816 49.9202 72.3783 49.7419 73.1051 49.7419C73.4617 49.7419 73.7908 49.7831 74.12 49.8654C74.4354 49.9477 74.7783 50.0711 75.1348 50.2219L74.6685 51.3465C74.2983 51.1957 74.0103 51.0997 73.7634 51.0311C73.5303 50.9762 73.2971 50.9488 73.064 50.9488C72.7897 50.9488 72.584 51.0174 72.4331 51.1408C72.2823 51.2642 72.2137 51.4288 72.2137 51.6345C72.2137 51.7579 72.2411 51.8677 72.296 51.9637C72.3508 52.0597 72.4468 52.1557 72.584 52.2379C72.7074 52.3202 73.0228 52.4848 73.5028 52.7179C74.1337 53.0197 74.5725 53.3214 74.8057 53.6368C75.0114 53.9522 75.1348 54.3225 75.1348 54.7614Z" fill="#1463B9"/>
</g>
</g>
<defs>
<clipPath id="clip0_6744_66224">
<rect width="72" height="48" fill="white" transform="translate(12 8.74988)"/>
</clipPath>
<clipPath id="clip1_6744_66224">
<rect width="54.2674" height="48" fill="white" transform="translate(20.8672 8.74988)"/>
</clipPath>
</defs>
</svg>
