<svg width="96" height="65" viewBox="0 0 96 65" fill="none" xmlns="http://www.w3.org/2000/svg">
<rect width="96" height="64" transform="translate(0 0.749878)" fill="white"/>
<g clip-path="url(#clip0_6744_66111)">
<g clip-path="url(#clip1_6744_66111)">
<path d="M23.1887 56.6646H22.2365L21.7671 55.331H19.7108L19.2574 56.6646H18.3105L20.2682 51.4237H21.2444L23.1887 56.6646ZM21.5378 54.6242L20.8123 52.5386C20.7823 52.4353 20.7591 52.3302 20.743 52.2238H20.7269C20.7116 52.3349 20.6875 52.4446 20.6549 52.5519L19.9375 54.6242H21.5378Z" fill="#465154"/>
<path d="M26.7574 53.2906L24.741 56.0111H26.7494V56.6699H23.5488V56.3525L25.6078 53.5947H23.7409V52.9359H26.7574V53.2906Z" fill="#465154"/>
<path d="M30.6771 56.6646H29.8316V56.0752H29.8183C29.7143 56.2882 29.5503 56.4662 29.3466 56.5875C29.1429 56.7087 28.9083 56.768 28.6714 56.7579C27.7824 56.7579 27.3379 56.2245 27.3379 55.1577V52.9253H28.1834V55.059C28.1834 55.7293 28.4421 56.0645 28.9595 56.0645C29.076 56.0688 29.192 56.0471 29.299 56.001C29.406 55.9548 29.5014 55.8854 29.5783 55.7978C29.7461 55.5943 29.8325 55.3358 29.821 55.0723V52.9253H30.6664L30.6771 56.6646Z" fill="#465154"/>
<path d="M33.8434 53.7361C33.7142 53.6481 33.5593 53.6059 33.4034 53.616C33.2791 53.6165 33.1568 53.6477 33.0475 53.7068C32.9382 53.7659 32.8451 53.8511 32.7766 53.9548C32.5958 54.2273 32.5078 54.551 32.5259 54.8776V56.6645H31.6777V52.9306H32.5232V53.6987H32.5365C32.6033 53.4623 32.7355 53.2497 32.9179 53.0853C33.0752 52.9433 33.2795 52.8644 33.4914 52.8639C33.6118 52.8572 33.732 52.881 33.8408 52.9333L33.8434 53.7361Z" fill="#465154"/>
<path d="M37.5921 55.027H35.0476C35.0424 55.1753 35.0682 55.323 35.1233 55.4608C35.1784 55.5986 35.2616 55.7233 35.3677 55.8271C35.6004 56.0247 35.9004 56.125 36.2052 56.1072C36.6003 56.1087 36.9854 55.9835 37.304 55.7498V56.4326C36.8932 56.6639 36.4254 56.7748 35.9545 56.7526C35.7149 56.7656 35.4754 56.7268 35.2521 56.6389C35.0289 56.551 34.8273 56.4161 34.6609 56.2432C34.3269 55.8435 34.1589 55.3308 34.1915 54.811C34.1693 54.2878 34.3543 53.777 34.7062 53.3894C34.8686 53.2116 35.067 53.0707 35.2883 52.9759C35.5095 52.8811 35.7485 52.8348 35.9891 52.84C36.211 52.8275 36.4327 52.8654 36.6378 52.9509C36.8429 53.0363 37.026 53.1671 37.1733 53.3334C37.4733 53.7241 37.622 54.21 37.5921 54.7016V55.027ZM36.7759 54.4296C36.789 54.1751 36.7125 53.9241 36.5599 53.7201C36.4899 53.6333 36.4007 53.564 36.2993 53.5178C36.198 53.4715 36.0872 53.4494 35.9758 53.4534C35.8597 53.4516 35.7445 53.4744 35.6378 53.5204C35.5311 53.5664 35.4354 53.6344 35.357 53.7201C35.181 53.9127 35.0716 54.1567 35.045 54.4162L36.7759 54.4296Z" fill="#465154"/>
<path d="M44.1822 56.4458C43.7277 56.6644 43.2275 56.7714 42.7233 56.7579C42.3859 56.7734 42.049 56.7175 41.7346 56.5939C41.4202 56.4702 41.1355 56.2816 40.899 56.0404C40.6663 55.7867 40.486 55.4895 40.3684 55.1659C40.2507 54.8423 40.1981 54.4987 40.2136 54.1548C40.1976 53.7823 40.2577 53.4104 40.3903 53.0619C40.5228 52.7134 40.7249 52.3956 40.9844 52.1278C41.2392 51.8724 41.5437 51.672 41.879 51.5389C42.2144 51.4059 42.5734 51.3431 42.934 51.3543C43.3639 51.341 43.792 51.4145 44.1929 51.5703V52.4318C43.8404 52.2225 43.4373 52.1137 43.0274 52.1171C42.7735 52.1056 42.52 52.147 42.2831 52.2389C42.0461 52.3307 41.8309 52.4709 41.6511 52.6505C41.4702 52.8447 41.3298 53.0731 41.2382 53.3222C41.1466 53.5714 41.1056 53.8363 41.1177 54.1014C41.1052 54.352 41.1424 54.6026 41.2271 54.8388C41.3118 55.075 41.4423 55.2921 41.6111 55.4777C41.7789 55.6488 41.9807 55.7828 42.2036 55.871C42.4264 55.9592 42.6652 55.9997 42.9047 55.9898C43.3552 56.0008 43.7991 55.8803 44.1822 55.643V56.4458Z" fill="#465154"/>
<path d="M46.6351 56.7579C46.3809 56.7685 46.1273 56.7266 45.89 56.6349C45.6528 56.5431 45.437 56.4034 45.2562 56.2245C45.0816 56.0398 44.946 55.8218 44.8575 55.5835C44.7691 55.3452 44.7296 55.0915 44.7414 54.8376C44.718 54.5703 44.7532 54.3011 44.8446 54.0488C44.9361 53.7965 45.0815 53.5673 45.2707 53.377C45.4599 53.1868 45.6884 53.0402 45.9402 52.9474C46.192 52.8546 46.461 52.8179 46.7284 52.8399C46.979 52.8255 47.2297 52.8639 47.4645 52.9526C47.6993 53.0413 47.9128 53.1783 48.0913 53.3547C48.4352 53.7477 48.6105 54.2603 48.5794 54.7816C48.5911 55.0439 48.5499 55.3059 48.4582 55.5519C48.3666 55.798 48.2264 56.0231 48.046 56.2138C47.8608 56.3966 47.6399 56.5392 47.3972 56.6328C47.1544 56.7264 46.895 56.769 46.6351 56.7579ZM46.6751 53.5227C46.5265 53.5162 46.3784 53.5441 46.2424 53.6043C46.1064 53.6644 45.9861 53.7552 45.8909 53.8694C45.6851 54.1437 45.5831 54.482 45.6029 54.8243C45.5833 55.158 45.6867 55.4872 45.8936 55.7498C45.9902 55.861 46.1106 55.9489 46.2459 56.0071C46.3812 56.0653 46.5279 56.0922 46.6751 56.0858C46.82 56.0944 46.965 56.069 47.0984 56.0116C47.2317 55.9542 47.3498 55.8663 47.4432 55.7551C47.6376 55.4802 47.7318 55.1469 47.7099 54.8109C47.7319 54.4725 47.6378 54.1366 47.4432 53.8588C47.3512 53.7453 47.2336 53.6552 47.1001 53.5958C46.9666 53.5365 46.821 53.5096 46.6751 53.5174V53.5227Z" fill="#465154"/>
<path d="M49.1605 56.5472V55.7631C49.4587 55.9971 49.827 56.1239 50.206 56.1231C50.7163 56.1231 50.9715 55.972 50.9715 55.6697C50.9732 55.5924 50.9498 55.5166 50.9048 55.4537C50.8566 55.3906 50.7969 55.3372 50.7288 55.2963C50.6444 55.2462 50.555 55.2051 50.462 55.1737L50.126 55.051C49.9842 54.9958 49.8461 54.9317 49.7126 54.8589C49.5989 54.798 49.4954 54.7197 49.4059 54.6269C49.3255 54.5424 49.2629 54.4427 49.2218 54.3335C49.178 54.2103 49.1572 54.0801 49.1605 53.9495C49.1573 53.7823 49.2017 53.6176 49.2885 53.4747C49.3759 53.335 49.4935 53.2165 49.6326 53.128C49.7827 53.0317 49.9476 52.9606 50.1206 52.9173C50.3053 52.8693 50.4953 52.8451 50.6861 52.8453C51.0016 52.8405 51.3153 52.8938 51.6116 53.0026V53.7441C51.3449 53.5641 51.0291 53.4709 50.7074 53.4774C50.6096 53.4759 50.5119 53.4867 50.4167 53.5094C50.3385 53.5275 50.2638 53.5581 50.1953 53.6001C50.138 53.6358 50.0897 53.6841 50.054 53.7414C50.02 53.7957 50.0024 53.8587 50.0033 53.9228C50.0006 53.9946 50.0182 54.0658 50.054 54.1281C50.0925 54.1882 50.1446 54.2384 50.206 54.2748C50.2818 54.3221 50.3622 54.3614 50.446 54.3922L50.7688 54.5069C50.916 54.5663 51.0602 54.633 51.2008 54.7069C51.3194 54.769 51.4289 54.8471 51.5262 54.9389C51.615 55.0235 51.6857 55.1251 51.7343 55.2377C51.7852 55.3657 51.8097 55.5027 51.8063 55.6404C51.8106 55.8148 51.7653 55.9869 51.6756 56.1365C51.5872 56.278 51.4677 56.3975 51.3262 56.4859C51.1708 56.5819 51.0004 56.6513 50.8221 56.6912C50.6244 56.7367 50.4222 56.7591 50.2193 56.7579C49.8554 56.7643 49.4943 56.6925 49.1605 56.5472Z" fill="#465154"/>
<path d="M58.1272 56.6645H57.2817V54.6242C57.3035 54.3309 57.2464 54.0371 57.1164 53.7734C57.0553 53.6829 56.9712 53.6105 56.8727 53.5636C56.7742 53.5167 56.6649 53.497 56.5563 53.5067C56.4421 53.5097 56.3306 53.5416 56.2322 53.5994C56.1338 53.6573 56.0517 53.7391 55.9935 53.8374C55.8339 54.073 55.7527 54.353 55.7615 54.6375V56.6565H54.9106V54.5522C54.9106 53.8569 54.6653 53.5093 54.1745 53.5093C54.0617 53.5097 53.9509 53.5387 53.8524 53.5938C53.7539 53.6489 53.6711 53.7281 53.6118 53.824C53.4577 54.0618 53.3804 54.3411 53.3904 54.6242V56.6432H52.5449V52.9092H53.3904V53.4987H53.4037C53.518 53.2874 53.6888 53.1122 53.897 52.9926C54.1052 52.8729 54.3426 52.8136 54.5826 52.8212C54.8257 52.8162 55.0637 52.8911 55.26 53.0346C55.4496 53.1728 55.5884 53.3696 55.6548 53.5947C55.7638 53.359 55.9392 53.1603 56.1595 53.0229C56.3798 52.8855 56.6354 52.8154 56.895 52.8212C57.7164 52.8212 58.1272 53.328 58.1272 54.3415V56.6645Z" fill="#465154"/>
<path d="M60.7659 56.7579C60.5118 56.7685 60.2581 56.7266 60.0209 56.6349C59.7837 56.5431 59.5679 56.4034 59.387 56.2245C59.2124 56.0398 59.0768 55.8218 58.9884 55.5835C58.9 55.3452 58.8605 55.0915 58.8723 54.8376C58.8488 54.5703 58.8841 54.3011 58.9755 54.0488C59.0669 53.7965 59.2123 53.5673 59.4015 53.377C59.5908 53.1868 59.8193 53.0402 60.0711 52.9474C60.3228 52.8546 60.5918 52.8179 60.8593 52.8399C61.1098 52.8255 61.3606 52.8639 61.5954 52.9526C61.8302 53.0413 62.0437 53.1783 62.2222 53.3547C62.566 53.7477 62.7414 54.2603 62.7102 54.7816C62.7219 55.0439 62.6807 55.3059 62.5891 55.5519C62.4974 55.798 62.3572 56.0231 62.1768 56.2138C61.9916 56.3966 61.7708 56.5392 61.528 56.6328C61.2853 56.7264 61.0259 56.769 60.7659 56.7579ZM60.8059 53.5227C60.6574 53.5162 60.5093 53.5441 60.3733 53.6043C60.2372 53.6644 60.117 53.7552 60.0218 53.8694C59.816 54.1437 59.7139 54.482 59.7337 54.8243C59.7141 55.158 59.8176 55.4872 60.0245 55.7498C60.121 55.861 60.2415 55.9489 60.3768 56.0071C60.5121 56.0653 60.6588 56.0922 60.8059 56.0858C60.9509 56.0944 61.0958 56.069 61.2292 56.0116C61.3626 55.9542 61.4807 55.8663 61.5741 55.7551C61.7685 55.4802 61.8626 55.1469 61.8408 54.8109C61.8628 54.4725 61.7687 54.1366 61.5741 53.8588C61.4821 53.7453 61.3645 53.6552 61.231 53.5958C61.0975 53.5365 60.9518 53.5096 60.8059 53.5174V53.5227Z" fill="#465154"/>
<path d="M63.2933 56.5472V55.7631C63.5915 55.9971 63.9598 56.1239 64.3388 56.1231C64.8491 56.1231 65.1043 55.972 65.1043 55.6697C65.106 55.5924 65.0826 55.5166 65.0376 55.4537C64.9895 55.3905 64.9297 55.3371 64.8616 55.2963C64.7772 55.2462 64.6878 55.2051 64.5948 55.1737L64.2588 55.051C64.117 54.9958 63.979 54.9317 63.8454 54.8589C63.7318 54.7978 63.6284 54.7196 63.5387 54.6269C63.4583 54.5424 63.3958 54.4426 63.3546 54.3335C63.3108 54.2103 63.29 54.0801 63.2933 53.9495C63.2902 53.7823 63.3345 53.6176 63.4213 53.4747C63.5088 53.335 63.6264 53.2166 63.7654 53.128C63.9156 53.0318 64.0804 52.9606 64.2535 52.9173C64.4381 52.8693 64.6281 52.8451 64.8189 52.8453C65.1344 52.8405 65.4482 52.8938 65.7444 53.0026V53.7441C65.4777 53.5641 65.1619 53.4709 64.8402 53.4774C64.7424 53.4759 64.6447 53.4867 64.5495 53.5094C64.4713 53.5276 64.3966 53.5582 64.3281 53.6001C64.271 53.6359 64.2227 53.6843 64.1868 53.7414C64.1528 53.7957 64.1352 53.8587 64.1361 53.9228C64.1334 53.9946 64.151 54.0658 64.1868 54.1281C64.2254 54.1881 64.2775 54.2384 64.3388 54.2748C64.4146 54.322 64.495 54.3613 64.5788 54.3922L64.9016 54.5069C65.0489 54.5663 65.1931 54.633 65.3336 54.7069C65.4522 54.769 65.5617 54.847 65.659 54.9389C65.7478 55.0235 65.8186 55.1251 65.8671 55.2377C65.9182 55.3656 65.9427 55.5027 65.9391 55.6404C65.9434 55.8148 65.8981 55.9869 65.8084 56.1365C65.72 56.278 65.6005 56.3975 65.459 56.4859C65.3036 56.582 65.1332 56.6514 64.9549 56.6912C64.7572 56.7367 64.555 56.7591 64.3521 56.7579C63.9882 56.7643 63.6271 56.6925 63.2933 56.5472Z" fill="#465154"/>
<path d="M68.8945 56.6645V51.4236H70.4041C72.3315 51.4236 73.2953 52.2735 73.2953 53.9733C73.3103 54.336 73.2465 54.6976 73.1084 55.0332C72.9702 55.3689 72.761 55.6706 72.4951 55.9177C71.8984 56.4294 71.1278 56.692 70.3428 56.6511L68.8945 56.6645ZM69.7587 52.173V55.9337H70.4521C70.7112 55.9494 70.9708 55.9129 71.2154 55.8263C71.4601 55.7397 71.6849 55.6048 71.8764 55.4296C72.0533 55.2396 72.1897 55.0156 72.2773 54.7712C72.3649 54.5268 72.4018 54.2671 72.3858 54.008C72.3858 52.7847 71.7528 52.173 70.4868 52.173H69.7587Z" fill="#465154"/>
<path d="M74.1465 56.6645V51.4237H75.8054C76.2308 51.4006 76.6521 51.5167 77.0056 51.7544C77.1446 51.8511 77.2577 51.9804 77.335 52.1311C77.4122 52.2818 77.4511 52.4492 77.4484 52.6185C77.4545 52.8973 77.3661 53.1699 77.1977 53.392C77.0207 53.6171 76.777 53.7805 76.5015 53.8587V53.8721C76.8273 53.898 77.133 54.04 77.363 54.2721C77.472 54.3899 77.5567 54.528 77.6121 54.6786C77.6675 54.8292 77.6925 54.9893 77.6857 55.1496C77.69 55.36 77.6438 55.5683 77.5509 55.7572C77.4581 55.9461 77.3215 56.1099 77.1523 56.2351C76.7685 56.5224 76.2978 56.6693 75.8188 56.6512L74.1465 56.6645ZM75.0106 52.1304V53.6187H75.5734C75.8278 53.6346 76.0794 53.5589 76.2828 53.4053C76.3708 53.3322 76.4406 53.2398 76.4869 53.1352C76.5331 53.0306 76.5546 52.9168 76.5496 52.8026C76.5496 52.3545 76.2508 52.1304 75.6534 52.1304H75.0106ZM75.0106 54.3148V55.9577H75.7521C76.0207 55.9751 76.2865 55.8956 76.5015 55.7337C76.5901 55.6576 76.6602 55.5624 76.7064 55.4551C76.7526 55.3479 76.7737 55.2316 76.7683 55.1149C76.7683 54.5815 76.3931 54.3148 75.6427 54.3148H75.0106Z" fill="#465154"/>
<path d="M33.4519 19.381C33.4001 19.3813 33.3487 19.3715 33.3007 19.352C33.2526 19.3325 33.2089 19.3037 33.172 19.2673C33.1351 19.2309 33.1058 19.1875 33.0856 19.1398C33.0654 19.092 33.0549 19.0408 33.0545 18.9889C33.0545 17.7864 32.5768 16.6331 31.7265 15.7828C30.8762 14.9325 29.723 14.4548 28.5204 14.4548C28.4155 14.4548 28.3148 14.4133 28.2404 14.3394C28.1659 14.2654 28.1238 14.165 28.123 14.0601C28.123 13.9547 28.1649 13.8536 28.2394 13.7791C28.314 13.7046 28.415 13.6627 28.5204 13.6627C29.723 13.6627 30.8762 13.185 31.7265 12.3347C32.5768 11.4844 33.0545 10.3311 33.0545 9.12862C33.0587 9.02673 33.1021 8.93039 33.1757 8.85979C33.2492 8.78919 33.3473 8.7498 33.4493 8.74989C33.5011 8.74954 33.5525 8.7594 33.6005 8.77891C33.6486 8.79842 33.6923 8.82721 33.7292 8.86361C33.7661 8.90002 33.7954 8.94334 33.8156 8.9911C33.8358 9.03885 33.8463 9.09011 33.8467 9.14195C33.8467 10.3445 34.3244 11.4977 35.1747 12.348C36.025 13.1983 37.1782 13.676 38.3808 13.676C38.4326 13.6757 38.484 13.6856 38.532 13.7051C38.58 13.7246 38.6238 13.7534 38.6607 13.7898C38.6976 13.8262 38.7269 13.8695 38.7471 13.9173C38.7673 13.965 38.7778 14.0163 38.7782 14.0681C38.7785 14.1199 38.7686 14.1713 38.7491 14.2194C38.7296 14.2674 38.7008 14.3111 38.6644 14.348C38.628 14.3849 38.5847 14.4143 38.5369 14.4344C38.4892 14.4546 38.4379 14.4652 38.3861 14.4655C37.1836 14.4655 36.0303 14.9432 35.18 15.7935C34.3297 16.6438 33.852 17.7971 33.852 18.9996C33.8479 19.1027 33.8038 19.2001 33.7291 19.2712C33.6545 19.3424 33.5551 19.3818 33.4519 19.381Z" fill="#50E6FF"/>
<path d="M61.9447 46.8202C61.8606 46.8202 61.7798 46.7867 61.7203 46.7272C61.6608 46.6677 61.6273 46.587 61.6273 46.5028C61.6252 45.5445 61.2434 44.6261 60.5656 43.9487C59.8877 43.2714 58.969 42.8903 58.0107 42.8888C57.927 42.8889 57.8467 42.8558 57.7873 42.7968C57.7278 42.7379 57.6941 42.6578 57.6934 42.5741C57.6934 42.49 57.7268 42.4092 57.7863 42.3497C57.8458 42.2902 57.9266 42.2567 58.0107 42.2567C58.9697 42.256 59.8892 41.8748 60.5673 41.1967C61.2454 40.5186 61.6266 39.5991 61.6273 38.6401C61.6273 38.556 61.6608 38.4752 61.7203 38.4157C61.7798 38.3562 61.8606 38.3228 61.9447 38.3228C62.0289 38.3228 62.1096 38.3562 62.1692 38.4157C62.2287 38.4752 62.2621 38.556 62.2621 38.6401C62.2628 39.5991 62.6441 40.5186 63.3222 41.1967C64.0003 41.8748 64.9198 42.256 65.8787 42.2567C65.9629 42.2567 66.0436 42.2902 66.1031 42.3497C66.1627 42.4092 66.1961 42.49 66.1961 42.5741C66.1961 42.6583 66.1627 42.739 66.1031 42.7986C66.0436 42.8581 65.9629 42.8915 65.8787 42.8915C64.92 42.8929 64.0009 43.2744 63.323 43.9524C62.645 44.6303 62.2635 45.5494 62.2621 46.5081C62.2607 46.5914 62.2267 46.6707 62.1673 46.7291C62.1079 46.7875 62.028 46.8202 61.9447 46.8202Z" fill="#50E6FF"/>
<path d="M60.5013 24.4858C61.1344 27.1436 60.9653 29.9295 60.0153 32.4912C59.0653 35.0528 57.3771 37.2753 55.1641 38.8777C52.9511 40.48 50.3127 41.3902 47.5825 41.4932C44.8523 41.5961 42.1528 40.8873 39.8254 39.4563C37.498 38.0252 35.6472 35.9362 34.5069 33.4534C33.3666 30.9705 32.9881 28.2053 33.4192 25.5074C33.8503 22.8095 35.0716 20.2999 36.9289 18.296C38.7861 16.2922 41.1957 14.884 43.8532 14.2494C45.6185 13.828 47.4495 13.7584 49.2417 14.0448C51.0338 14.3311 52.752 14.9678 54.2981 15.9184C55.8441 16.869 57.1877 18.1149 58.2521 19.585C59.3164 21.055 60.0807 22.7203 60.5013 24.4858Z" fill="url(#paint0_radial_6744_66111)"/>
<mask id="mask0_6744_66111" style="mask-type:luminance" maskUnits="userSpaceOnUse" x="33" y="13" width="28" height="29">
<path d="M60.5013 24.4858C61.1344 27.1436 60.9653 29.9295 60.0153 32.4912C59.0653 35.0528 57.3771 37.2753 55.1641 38.8777C52.9511 40.48 50.3127 41.3902 47.5825 41.4932C44.8523 41.5961 42.1528 40.8873 39.8254 39.4563C37.498 38.0252 35.6472 35.9362 34.5069 33.4534C33.3666 30.9705 32.9881 28.2053 33.4192 25.5074C33.8503 22.8095 35.0716 20.2999 36.9289 18.296C38.7861 16.2922 41.1957 14.884 43.8532 14.2494C45.6185 13.828 47.4495 13.7584 49.2417 14.0448C51.0338 14.3311 52.752 14.9678 54.2981 15.9184C55.8441 16.869 57.1877 18.1149 58.2521 19.585C59.3164 21.055 60.0807 22.7203 60.5013 24.4858Z" fill="white"/>
</mask>
<g mask="url(#mask0_6744_66111)">
<path d="M39.6481 37.0478C40.6087 37.0462 41.5307 36.6699 42.2182 35.999C42.9057 35.3281 43.3043 34.4155 43.3293 33.4552C43.3543 32.495 43.0037 31.5629 42.3521 30.8571C41.7005 30.1513 40.7993 29.7275 39.8401 29.6759H39.6588C39.6697 29.5714 39.6751 29.4663 39.6748 29.3612C39.6663 28.3781 39.2686 27.4385 38.5687 26.7482C37.8688 26.0578 36.9239 25.6729 35.9408 25.6779H33.1804C32.9099 27.7203 33.0913 29.7972 33.7116 31.7619C34.3319 33.7265 35.3761 35.531 36.7703 37.0478H39.6481Z" fill="#F2F2F2"/>
<path d="M60.673 25.1179C60.6756 25.0842 60.6701 25.0503 60.657 25.0192C60.2116 22.6101 59.117 20.3682 57.4912 18.5354C57.2802 18.45 57.0626 18.3822 56.8404 18.3327C56.2474 18.1614 55.6231 18.1273 55.0149 18.2332C54.4068 18.3391 53.8307 18.5821 53.3305 18.9438C52.8302 19.3054 52.4189 19.7763 52.1278 20.3207C51.8367 20.865 51.6733 21.4685 51.6502 22.0854C51.5005 22.068 51.3501 22.0583 51.1995 22.056C50.277 22.0555 49.3841 22.3811 48.6785 22.9752C47.9729 23.5694 47.5001 24.3939 47.3437 25.303C47.1873 26.2121 47.3574 27.1472 47.8238 27.9431C48.2902 28.7389 49.023 29.3442 49.8926 29.652C50.2809 29.8037 50.6946 29.8798 51.1115 29.876H55.6802C57.5203 28.4853 59.1954 26.8889 60.673 25.1179Z" fill="#F2F2F2"/>
</g>
<path d="M65.5023 16.1511C64.0861 13.7934 60.7762 12.8759 56.1488 13.564C54.564 13.7891 52.9978 14.1296 51.4627 14.5829C52.6809 15.003 53.8379 15.5833 54.9032 16.3085C55.4366 16.1885 55.9914 16.0418 56.5035 15.9698C57.3251 15.8419 58.1551 15.7751 58.9866 15.7697C59.7992 15.6528 60.6283 15.7409 61.3982 16.026C62.1682 16.3111 62.8547 16.7841 63.3953 17.402C64.2568 18.8369 63.5313 21.2933 61.4003 24.1551C58.4409 27.8387 54.8145 30.9321 50.7105 33.274C46.7003 35.7731 42.2563 37.4966 37.6097 38.3548C34.0891 38.8882 31.5713 38.3548 30.7099 36.9226C29.8484 35.4903 30.5792 33.0393 32.7129 30.1908C32.9796 29.8361 33.0409 29.6574 33.3396 29.308C33.1989 28.0873 33.2186 26.8535 33.3983 25.638C32.4408 26.5973 31.5597 27.6299 30.7632 28.7265C27.9734 32.4605 27.2186 35.8104 28.6295 38.1681C29.3764 39.1673 30.3726 39.9529 31.5184 40.4463C32.6642 40.9396 33.9194 41.1234 35.1586 40.9793C36.0999 40.9744 37.0395 40.8995 37.9697 40.7552C42.9339 39.8497 47.6833 38.0175 51.9694 35.3543C56.3469 32.8496 60.2125 29.5414 63.3633 25.6034C66.1584 21.8614 66.9159 18.5115 65.5023 16.1511Z" fill="#50E6FF"/>
</g>
</g>
<defs>
<radialGradient id="paint0_radial_6744_66111" cx="0" cy="0" r="1" gradientUnits="userSpaceOnUse" gradientTransform="translate(46.9223 27.3968) scale(13.9411 13.807)">
<stop offset="0.18" stop-color="#5EA0EF"/>
<stop offset="1" stop-color="#0078D4"/>
</radialGradient>
<clipPath id="clip0_6744_66111">
<rect width="72" height="48" fill="white" transform="translate(12 8.74988)"/>
</clipPath>
<clipPath id="clip1_6744_66111">
<rect width="59.3779" height="48" fill="white" transform="translate(18.3105 8.74988)"/>
</clipPath>
</defs>
</svg>
