<svg width="69" height="77" viewBox="0 0 69 77" fill="none" xmlns="http://www.w3.org/2000/svg">
<path d="M40.7307 44.2827C40.7432 44.2946 40.7551 44.3071 40.7663 44.3203L40.8677 44.4311L41.259 44.8689L42.7353 46.5391L47.9665 52.4965H47.906L53.8397 45.3179L53.8807 45.269L53.9145 45.3235L54.3467 46.0111L58.8361 53.1503L58.7739 53.139L63.089 49.498L63.1139 49.4774L63.1352 49.5018L66.4294 53.4471L67.3187 54.5236L67.55 54.8054C67.6015 54.8693 67.6264 54.9031 67.6264 54.9031C67.6264 54.9031 67.5962 54.8731 67.5429 54.8129L67.3081 54.5236L66.4009 53.4603L63.0854 49.5431H63.1317L58.8272 53.2085L58.7916 53.2386L58.765 53.1972L54.2702 46.0694L53.8362 45.3799H53.9091C51.7498 47.9913 49.7185 50.443 47.9683 52.5585L47.938 52.5942L47.9078 52.5585C45.7591 50.0898 43.9608 48.027 42.6997 46.5766L41.2412 44.8858L40.8588 44.4387C40.8179 44.3879 40.7859 44.3504 40.761 44.3222C40.7361 44.294 40.7289 44.2846 40.7307 44.2827Z" fill="#E6E6E6"/>
<path d="M47.3555 52.5453C47.3544 52.6758 47.3902 52.8037 47.4582 52.9127C47.5262 53.0217 47.6234 53.1068 47.7373 53.1573C47.8513 53.2077 47.9769 53.2212 48.0982 53.1961C48.2194 53.1709 48.3308 53.1081 48.4182 53.0158C48.5056 52.9235 48.565 52.8058 48.5889 52.6778C48.6127 52.5497 48.5999 52.417 48.5521 52.2966C48.5044 52.1763 48.4237 52.0736 48.3206 52.0018C48.2174 51.93 48.0963 51.8922 47.9727 51.8933C47.8093 51.8943 47.6528 51.9633 47.5373 52.0854C47.4217 52.2074 47.3564 52.3727 47.3555 52.5453Z" fill="#E0E0E0"/>
<path d="M58.2539 53.3286C58.2546 53.4587 58.2919 53.5857 58.3609 53.6934C58.43 53.8012 58.5278 53.8849 58.6419 53.9339C58.7561 53.9829 58.8814 53.9951 59.0021 53.9688C59.1227 53.9426 59.2333 53.8791 59.3198 53.7864C59.4063 53.6937 59.4648 53.576 59.4879 53.4482C59.5111 53.3204 59.4978 53.1882 59.4497 53.0684C59.4017 52.9486 59.3211 52.8465 59.2181 52.7751C59.1151 52.7037 58.9943 52.6661 58.8711 52.6673C58.7063 52.6687 58.5488 52.7392 58.4331 52.8632C58.3174 52.9871 58.253 53.1545 58.2539 53.3286Z" fill="#E0E0E0"/>
<path d="M62.4922 49.7085C62.4933 49.8381 62.5307 49.9646 62.5998 50.0718C62.6689 50.179 62.7665 50.2621 62.8803 50.3107C62.9942 50.3593 63.1191 50.3711 63.2393 50.3447C63.3595 50.3183 63.4696 50.2549 63.5556 50.1624C63.6417 50.0699 63.6999 49.9526 63.7228 49.8252C63.7457 49.6978 63.7324 49.5661 63.6844 49.4467C63.6364 49.3273 63.556 49.2256 63.4534 49.1545C63.3507 49.0834 63.2304 49.046 63.1076 49.0471C62.9431 49.0491 62.7861 49.1198 62.6708 49.2437C62.5554 49.3676 62.4912 49.5347 62.4922 49.7085Z" fill="#E0E0E0"/>
<path d="M53.2539 45.4062C53.2546 45.5363 53.2919 45.6633 53.3609 45.7711C53.43 45.8788 53.5278 45.9625 53.6419 46.0115C53.7561 46.0606 53.8814 46.0727 54.0021 46.0465C54.1227 46.0202 54.2333 45.9567 54.3198 45.864C54.4063 45.7714 54.4648 45.6537 54.4879 45.5259C54.5111 45.398 54.4978 45.2659 54.4497 45.146C54.4017 45.0262 54.3211 44.9241 54.2181 44.8527C54.1151 44.7813 53.9943 44.7438 53.8711 44.7449C53.7063 44.7464 53.5488 44.8168 53.4331 44.9408C53.3174 45.0648 53.253 45.2321 53.2539 45.4062Z" fill="#E0E0E0"/>
<path d="M67.1367 54.9218C67.1374 55.052 67.1747 55.1789 67.2438 55.2867C67.3128 55.3944 67.4106 55.4781 67.5247 55.5272C67.6389 55.5762 67.7642 55.5883 67.8849 55.5621C68.0055 55.5358 68.1161 55.4723 68.2026 55.3797C68.2891 55.287 68.3476 55.1693 68.3707 55.0415C68.3939 54.9137 68.3806 54.7815 68.3325 54.6617C68.2845 54.5418 68.2039 54.4397 68.1009 54.3683C67.9979 54.2969 67.8771 54.2594 67.7539 54.2605C67.5891 54.262 67.4316 54.3325 67.3159 54.4564C67.2002 54.5804 67.1358 54.7478 67.1367 54.9218Z" fill="#E0E0E0"/>
<path d="M12.6139 5.16968H8.61719V21.9598H12.6139V5.16968Z" fill="#E6E6E6"/>
<path d="M18.4928 8.8313H14.4961V21.9579H18.4928V8.8313Z" fill="#E6E6E6"/>
<path d="M24.4616 11.8296H20.4648V21.9578H24.4616V11.8296Z" fill="#E6E6E6"/>
<path d="M29.985 15.9441H25.9883V21.9597H29.985V15.9441Z" fill="#E6E6E6"/>
<path d="M26.7868 0.97998C26.7868 0.97998 26.7495 1.03071 26.6766 1.12088L26.3439 1.52481L25.0793 3.04657L20.5187 8.49485L20.4938 8.52304L20.4653 8.50049L17.4896 6.09197H17.5501L13.3879 11.6643L13.3381 11.7319L13.3079 11.7732L13.2705 11.7375L7.66582 6.50905H7.72807C5.52782 9.56009 3.66374 12.1659 2.32972 14.0089L0.776912 16.1525L0.362476 16.7161L0.253975 16.8608C0.241865 16.8779 0.228798 16.8942 0.214844 16.9096C0.224948 16.8913 0.23624 16.8737 0.248639 16.857L0.351803 16.7067L0.755569 16.13L2.28703 13.9713L7.6587 6.44517L7.68716 6.40572L7.72096 6.43766L13.3328 11.653H13.2652L13.315 11.5853L17.4825 6.01682L17.5091 5.98113L17.5429 6.00931L20.5134 8.41595H20.46L25.0437 3.01088C25.5969 2.36272 26.0309 1.85358 26.3279 1.5079L26.6677 1.11337C26.7459 1.01943 26.7868 0.97998 26.7868 0.97998Z" fill="#E6E6E6"/>
<path d="M26.1252 4.87462C26.1237 4.84612 26.1267 4.81756 26.1341 4.79008L26.1785 4.5496C26.2248 4.32604 26.287 4.0292 26.3564 3.66661C26.5147 2.91512 26.7388 1.88934 26.9967 0.739562L27.0537 0.795924L26.8527 0.861679C25.7374 1.22427 24.7271 1.54553 23.9943 1.77474L23.1245 2.03964L22.8862 2.10727C22.8588 2.11803 22.8299 2.12375 22.8008 2.12418C22.8263 2.10954 22.8531 2.09758 22.8808 2.08848L23.1138 2.00394L23.9747 1.70898C24.7022 1.46287 25.7107 1.13034 26.8206 0.769622L27.0216 0.705745L27.0999 0.679443L27.0803 0.763985C26.8331 1.9194 26.6072 2.94142 26.4293 3.68351C26.3422 4.04235 26.271 4.33731 26.2194 4.559C26.1945 4.65105 26.1732 4.72996 26.1572 4.79384C26.1503 4.82228 26.1395 4.8495 26.1252 4.87462Z" fill="#E6E6E6"/>
<path d="M57.658 29.3695C58.4522 29.3558 59.2324 29.5912 59.8999 30.0459C60.5675 30.5006 61.0924 31.1541 61.4083 31.9239C61.7242 32.6937 61.8169 33.5451 61.6747 34.3705C61.5325 35.1959 61.1617 35.9583 60.6094 36.5611C60.057 37.164 59.3478 37.5804 58.5714 37.7575C57.795 37.9347 56.9863 37.8647 56.2475 37.5565C55.5088 37.2482 54.8732 36.7155 54.4211 36.0257C53.9689 35.3359 53.7206 34.52 53.7075 33.6811C53.6913 32.5564 54.0981 31.4709 54.8387 30.6626C55.5793 29.8543 56.5932 29.3892 57.658 29.3695ZM57.754 35.6406C58.1337 35.6331 58.5028 35.507 58.8146 35.278C59.1265 35.0491 59.367 34.7276 59.506 34.3543C59.6449 33.981 59.676 33.5726 59.5953 33.1807C59.5146 32.7887 59.3257 32.4308 59.0525 32.1522C58.7793 31.8736 58.434 31.6868 58.0603 31.6154C57.6866 31.5439 57.3013 31.5911 56.9529 31.7509C56.6046 31.9107 56.3089 32.1759 56.1033 32.5131C55.8976 32.8503 55.7912 33.2444 55.7975 33.6454C55.8019 33.9121 55.856 34.1753 55.9567 34.4199C56.0574 34.6646 56.2028 34.8858 56.3844 35.0711C56.5661 35.2564 56.7806 35.4021 57.0156 35.4998C57.2506 35.5975 57.5015 35.6453 57.754 35.6406Z" fill="#E0E0E0"/>
<path d="M57.6486 28.8416C58.8464 28.8235 60.002 29.3077 60.8622 30.1881C61.7225 31.0686 62.2171 32.2733 62.2377 33.5384L59.4985 33.6135C59.4807 32.3566 58.675 31.8456 57.7198 31.7817C57.4851 31.7669 57.25 31.8036 57.0293 31.8894C56.8087 31.9752 56.6072 32.1083 56.4376 32.2804C56.2681 32.4524 56.134 32.6597 56.044 32.8891C55.9539 33.1186 55.9098 33.3652 55.9144 33.6135L53.2037 33.6905C53.1851 32.4252 53.6428 31.2038 54.4762 30.2946C55.3097 29.3854 56.4507 28.8628 57.6486 28.8416Z" fill="#F0F0F0"/>
<path d="M25.1347 48.0626C26.5174 46.5301 28.4144 45.6321 30.4176 45.5618C32.4208 45.4916 34.3701 46.2546 35.846 47.6869C36.571 48.3927 37.1562 49.2435 37.5677 50.1899C37.9791 51.1364 38.2086 52.1597 38.2428 53.2005C38.2771 54.2413 38.1154 55.2789 37.7672 56.2533C37.419 57.2276 36.8911 58.1193 36.2142 58.8765C34.8315 60.4091 32.9345 61.3071 30.9313 61.3773C28.9281 61.4476 26.9788 60.6845 25.5029 59.2523C24.7778 58.5465 24.1927 57.6957 23.7812 56.7492C23.3698 55.8028 23.1403 54.7795 23.1061 53.7387C23.0718 52.6979 23.2335 51.6602 23.5817 50.6859C23.9299 49.7115 24.4578 48.8199 25.1347 48.0626ZM33.3167 56.0547C33.6412 55.6928 33.8943 55.2663 34.0612 54.8001C34.2282 54.3339 34.3056 53.8372 34.2891 53.3391C34.2725 52.841 34.1623 52.3513 33.9648 51.8986C33.7673 51.4459 33.4866 51.0392 33.1388 50.7022C32.4324 50.0182 31.4998 49.6546 30.542 49.6898C29.5842 49.7249 28.6778 50.156 28.018 50.8901C27.6935 51.252 27.4404 51.6785 27.2734 52.1447C27.1065 52.6109 27.029 53.1075 27.0456 53.6057C27.0621 54.1038 27.1724 54.5935 27.3698 55.0462C27.5673 55.4989 27.8481 55.9056 28.1958 56.2426C28.9023 56.9282 29.8357 57.2928 30.7945 57.2576C31.7533 57.2225 32.6605 56.7904 33.3203 56.0547H33.3167Z" fill="#F5F5F5"/>
<path d="M25.1351 48.0626C26.5179 46.5301 28.4149 45.6321 30.4181 45.5618C32.4213 45.4916 34.3705 46.2546 35.8465 47.6869L33.1464 50.7079C32.4399 50.0238 31.5074 49.6602 30.5496 49.6954C29.5918 49.7305 28.6854 50.1616 28.0255 50.8957C27.701 51.2576 27.4479 51.6841 27.281 52.1503C27.1141 52.6165 27.0366 53.1132 27.0532 53.6113C27.0697 54.1095 27.1799 54.5991 27.3774 55.0518C27.5749 55.5045 27.8557 55.9112 28.2034 56.2482L25.4998 59.2579C24.7742 58.5518 24.1886 57.7004 23.777 56.7534C23.3654 55.8063 23.136 54.7823 23.1021 53.7408C23.0681 52.6993 23.2304 51.661 23.5794 50.6863C23.9284 49.7116 24.4572 48.8198 25.1351 48.0626Z" fill="#E0E0E0"/>
<path d="M35.5378 46.3887C39.273 50.039 39.7266 55.9701 36.2315 59.8854L32.4375 56.4304C34.1077 54.5611 34.4706 52.0643 32.683 50.3189L35.5378 46.3887Z" fill="#EBEBEB"/>
<path d="M32.043 56.6784L34.2966 61.3864C35.2284 61.0256 36.0682 60.441 36.7494 59.6787L32.7011 56.2256L32.043 56.6784Z" fill="#E0E0E0"/>
<path d="M40.5443 13.2198C40.5115 11.1095 41.072 9.03627 42.1549 7.26246C43.2378 5.48865 44.7945 4.09395 46.6281 3.25479C48.4616 2.41563 50.4896 2.16972 52.4554 2.54817C54.4213 2.92662 56.2367 3.91242 57.6721 5.38087C59.1074 6.84932 60.0981 8.73444 60.5189 10.7977C60.9397 12.861 60.7717 15.0098 60.0361 16.9722C59.3004 18.9346 58.0303 20.6224 56.3863 21.8222C54.7423 23.022 52.7983 23.6798 50.8003 23.7125C48.1243 23.7527 45.5423 22.6709 43.6199 20.7042C41.6976 18.7375 40.5916 16.0462 40.5443 13.2198ZM55.473 12.9662C55.4574 11.9576 55.159 10.9765 54.6155 10.1469C54.072 9.31743 53.3078 8.67675 52.4196 8.30593C51.5315 7.9351 50.5591 7.85078 49.6255 8.06362C48.692 8.27646 47.8391 8.7769 47.1748 9.50168C46.5105 10.2265 46.0646 11.143 45.8934 12.1354C45.7223 13.1279 45.8336 14.1516 46.2133 15.0773C46.593 16.0029 47.224 16.7888 48.0265 17.3357C48.8291 17.8826 49.7671 18.1658 50.7221 18.1496C52.0024 18.1263 53.2218 17.5675 54.1125 16.5957C55.0032 15.6239 55.4925 14.3186 55.473 12.9662Z" fill="#FAFAFA"/>
<path d="M40.5441 13.2199C40.5037 10.3915 41.5274 7.66173 43.3905 5.62973C45.2537 3.59773 47.804 2.42954 50.4817 2.38159L50.5671 7.94823C49.2863 7.96991 48.0662 8.52809 47.175 9.49999C46.2839 10.4719 45.7948 11.7779 45.8153 13.1307C45.8358 14.4835 46.3643 15.7723 47.2844 16.7135C48.2046 17.6547 49.4411 18.1714 50.7218 18.1497L50.8001 23.7126C48.1238 23.7538 45.5413 22.6724 43.6187 20.7054C41.6961 18.7385 40.5905 16.0466 40.5441 13.2199Z" fill="#E0E0E0"/>
<path d="M49.5742 1.5249C56.0896 1.41405 61.2887 6.73082 61.3919 13.6126L55.2252 13.7178C55.1753 10.4263 52.7937 8.35404 49.6792 8.40852L49.5742 1.5249Z" fill="#F0F0F0"/>
<path d="M61.4711 76.6791C61.4711 76.7054 48.1717 76.728 31.7668 76.728C15.3618 76.728 2.0625 76.7054 2.0625 76.6791C2.0625 76.6528 15.3583 76.6284 31.7668 76.6284C48.1753 76.6284 61.4711 76.651 61.4711 76.6791Z" fill="#263238"/>
<path d="M20.2891 50.6288L53.2484 50.3789V50.8674L20.2891 51.1792V50.6288Z" fill="#263238"/>
<path d="M19.5703 15.2358L20.3209 50.9202L53.2482 50.6496V14.6365L19.5703 15.2358Z" fill="white"/>
<path d="M19.5678 15.2356L53.2457 14.595H53.2867V14.6382C53.2867 24.9467 53.2867 37.1114 53.2867 50.0896V50.7002H53.2404L20.3131 50.9651H20.274V50.9238C19.8489 29.5364 19.5714 15.6038 19.5625 15.2375C19.5625 15.5982 19.8791 29.5364 20.3522 50.92L20.3131 50.8787L53.2404 50.6025L53.1942 50.6513V50.0877C53.1942 37.1095 53.1942 24.9448 53.1942 14.6363L53.2351 14.6795L19.5678 15.2356Z" fill="#263238"/>
<path d="M19.4375 15.4743L53.3911 15.2695L53.4338 13.7646L19.4375 13.9882V15.4743Z" fill="#263238"/>
<path d="M35.6919 51.8932C35.635 51.8932 35.5745 51.6132 35.5585 51.2638C35.5425 50.9144 35.5781 50.6288 35.635 50.625C35.6919 50.6213 35.7524 50.9031 35.7684 51.2525C35.7844 51.602 35.7506 51.8932 35.6919 51.8932Z" fill="#263238"/>
<path d="M35.6787 51.636C35.6787 51.6228 35.7357 51.6191 35.8246 51.6566C35.8783 51.6805 35.9285 51.7121 35.974 51.7506C36.0352 51.8025 36.0865 51.8663 36.1252 51.9384C36.1779 52.0383 36.2045 52.1512 36.202 52.2655C36.1994 52.3798 36.168 52.4913 36.111 52.5885C36.0767 52.647 36.0334 52.6991 35.9829 52.7425C35.9301 52.7873 35.8698 52.8211 35.805 52.8421C35.6675 52.8822 35.5211 52.8709 35.3906 52.8102C35.3246 52.7791 35.2643 52.7359 35.2127 52.6824C35.1614 52.6289 35.1208 52.565 35.0935 52.4945C35.0443 52.3664 35.0337 52.2253 35.0633 52.0906C35.0852 51.9783 35.1364 51.8748 35.2113 51.7917C35.2861 51.7087 35.3815 51.6495 35.4866 51.6209C35.6211 51.5821 35.7644 51.5954 35.8904 51.6585C35.9758 51.7036 36.0078 51.7506 36.0007 51.7618C35.9936 51.7731 35.9455 51.7618 35.8637 51.7393C35.7523 51.7173 35.6374 51.7277 35.5311 51.7694C35.4627 51.7975 35.4017 51.8426 35.3532 51.9009C35.2977 51.9696 35.2614 52.0533 35.2486 52.1426C35.2357 52.2319 35.2467 52.3232 35.2803 52.4062C35.319 52.4955 35.3883 52.566 35.4742 52.6035C35.5597 52.6439 35.6556 52.6525 35.7463 52.6279C35.8298 52.6051 35.9021 52.5502 35.9491 52.4739C35.9954 52.4019 36.0231 52.3183 36.0291 52.2315C36.0345 52.1923 36.0345 52.1524 36.0291 52.1132C36.0233 52.0763 36.0132 52.0403 35.9989 52.0061C35.9533 51.8955 35.8816 51.7992 35.7908 51.7261C35.725 51.6773 35.6787 51.651 35.6787 51.636Z" fill="#263238"/>
<path d="M40.5763 34.763C40.5763 34.763 40.5763 34.763 40.555 34.763H40.4945L40.2597 34.7742L39.3544 34.8156L36.0246 34.9471C33.2125 35.056 29.326 35.2007 25.0358 35.3566L23.5595 35.4092H23.5257V35.3736C23.2269 31.2272 22.9565 27.5111 22.7698 24.8396C22.6773 23.5057 22.6043 22.4329 22.5528 21.6946C22.5296 21.3189 22.5101 21.0389 22.4976 20.8454C22.4976 20.7477 22.4869 20.6745 22.4852 20.6237C22.4834 20.573 22.4852 20.5805 22.4852 20.5674C22.4852 20.5542 22.4852 20.5486 22.4852 20.5486C22.486 20.5548 22.486 20.5611 22.4852 20.5674C22.4852 20.5805 22.4852 20.5993 22.4852 20.6237C22.4852 20.6482 22.4958 20.7477 22.5047 20.8435C22.519 21.0314 22.5421 21.3226 22.5723 21.6927C22.6275 22.4311 22.7093 23.5038 22.8107 24.8339C23.0099 27.498 23.2838 31.2047 23.5862 35.3679L23.5506 35.3341L25.0269 35.2796C29.3172 35.1256 33.2089 34.9884 36.0157 34.8945L39.3472 34.7855L40.2526 34.7592H40.4874H40.5692L40.5763 34.763Z" fill="#455A64"/>
<path d="M28.6562 19.3933V19.8724L33.3485 19.6357V19.2336L28.6562 19.3933Z" fill="#263238"/>
<path d="M25.103 34.3536H26.7341L26.478 29.6775H24.8789L25.103 34.3536Z" fill="#FF725E"/>
<path d="M28.0601 34.3554H29.6893L29.435 27.8193H27.8359L28.0601 34.3554Z" fill="#FF725E"/>
<path d="M30.8278 34.1469H32.4589L32.2027 25.5894H30.6055L30.8278 34.1469Z" fill="#FF725E"/>
<path d="M37.1772 33.8145H38.8065L38.5522 22.1514H36.9531L37.1772 33.8145Z" fill="#FF725E"/>
<path d="M34.0874 33.8537H35.7167L35.4606 23.8176H33.8633L34.0874 33.8537Z" fill="#FF725E"/>
<path d="M24.0786 28.4656C24.0359 28.3961 26.9494 26.3446 30.5833 23.8834C34.2172 21.4223 37.2018 19.4835 37.2445 19.5624C37.2872 19.6413 34.3737 21.6835 30.738 24.1446C27.1024 26.6057 24.1177 28.5351 24.0786 28.4656Z" fill="#FF725E"/>
<path d="M35.629 19.555C35.6148 19.4723 36.6696 19.1943 37.9894 18.9312L38.3238 18.8655L38.1335 19.1642L38.1228 19.1811C37.3686 20.3647 36.6998 21.2871 36.6376 21.2477C36.5753 21.2082 37.132 20.205 37.8827 19.0195L37.8933 19.0026L38.0392 19.2356C36.7212 19.4892 35.6433 19.6358 35.629 19.555Z" fill="#FF725E"/>
<path d="M24.8789 35.9336H26.5829L26.6363 36.253H24.8789V35.9336Z" fill="#263238"/>
<path d="M27.8945 35.802H29.5985L29.6519 36.1214H27.8945V35.802Z" fill="#263238"/>
<path d="M31 35.708H32.704L32.7574 36.0274H31V35.708Z" fill="#263238"/>
<path d="M33.9102 35.6311H35.6142L35.6675 35.9524H33.9102V35.6311Z" fill="#263238"/>
<path d="M37.5156 35.5183H39.2196L39.273 35.8396H37.5156V35.5183Z" fill="#263238"/>
<path d="M45.158 48.2522C48.162 48.2522 50.5973 45.68 50.5973 42.5071C50.5973 39.3341 48.162 36.762 45.158 36.762C42.154 36.762 39.7188 39.3341 39.7188 42.5071C39.7188 45.68 42.154 48.2522 45.158 48.2522Z" fill="#FF725E"/>
<path opacity="0.3" d="M45.158 48.2522C48.162 48.2522 50.5973 45.68 50.5973 42.5071C50.5973 39.3341 48.162 36.762 45.158 36.762C42.154 36.762 39.7188 39.3341 39.7188 42.5071C39.7188 45.68 42.154 48.2522 45.158 48.2522Z" fill="black"/>
<path d="M45.1587 42.4998L39.8528 43.7604C38.999 39.6272 42.1544 36.7546 45.1587 36.7546" fill="#FF725E"/>
<path d="M45.1645 42.4998L45.1289 36.7546C49.1345 36.7546 51.1196 40.6229 50.4792 43.7228L45.1645 42.4998Z" fill="#FF725E"/>
<path d="M45.1645 42.4998L45.1289 36.7546C49.1345 36.7546 51.1196 40.6229 50.4792 43.7228L45.1645 42.4998Z" fill="#FF725E"/>
<path opacity="0.1" d="M45.1645 42.4998L45.1289 36.7546C49.1345 36.7546 51.1196 40.6229 50.4792 43.7228L45.1645 42.4998Z" fill="black"/>
<path d="M50.7402 28.9033C50.6346 28.8286 50.5219 28.7657 50.4041 28.7154C50.0755 28.6093 49.7232 28.6198 49.4009 28.7454C48.9847 28.8826 48.572 29.232 48.1718 29.6698C47.7716 30.1075 47.3429 30.6373 46.7168 30.9473C46.4147 31.1059 46.0747 31.1654 45.7403 31.1183C45.4386 31.0522 45.1471 30.9421 44.8741 30.7914C44.6337 30.6592 44.3768 30.5637 44.111 30.5077C43.8798 30.4694 43.6431 30.5006 43.428 30.5979C43.1114 30.7398 42.8525 30.9953 42.6969 31.3193C42.647 31.441 42.6059 31.5666 42.5742 31.695C42.5798 31.5591 42.6106 31.4257 42.6649 31.3024C42.8139 30.9603 43.0756 30.6871 43.4013 30.534C43.6244 30.4291 43.8708 30.392 44.1128 30.4269C44.3874 30.4807 44.6533 30.5756 44.9025 30.7087C45.1685 30.8544 45.4522 30.9607 45.7456 31.0243C46.062 31.0659 46.383 31.0084 46.6688 30.859C47.27 30.5622 47.6915 30.0361 48.1024 29.6059C48.5133 29.1757 48.9384 28.8131 49.3706 28.6797C49.7064 28.556 50.0719 28.556 50.4076 28.6797C50.4972 28.7162 50.5816 28.7655 50.6584 28.8262C50.6886 28.8482 50.7161 28.8741 50.7402 28.9033Z" fill="#263238"/>
<path d="M51.2009 32.6157C51.2009 32.6439 49.2692 32.6646 46.8876 32.6646C44.5059 32.6646 42.5742 32.6439 42.5742 32.6157C42.5742 32.5876 44.5059 32.5669 46.8876 32.5669C49.2692 32.5669 51.2009 32.5894 51.2009 32.6157Z" fill="#263238"/>
<path d="M50.7181 32.6156C50.6932 32.6156 50.6719 31.4546 50.6719 30.0211C50.6719 28.5876 50.6932 27.4285 50.7181 27.4285C50.743 27.4285 50.7644 28.5895 50.7644 30.0211C50.7644 31.4527 50.7448 32.6156 50.7181 32.6156Z" fill="#263238"/>
<path d="M43.4447 30.4308C43.4447 30.4308 43.4323 30.412 43.4447 30.3782C43.4529 30.3545 43.4659 30.3329 43.4828 30.3151C43.4997 30.2972 43.5201 30.2835 43.5426 30.2749C43.5764 30.2591 43.6136 30.2534 43.6503 30.2583C43.687 30.2633 43.7217 30.2788 43.7507 30.3031C43.782 30.3402 43.8005 30.3875 43.8031 30.4372C43.8057 30.4868 43.7923 30.536 43.765 30.5766C43.7378 30.6171 43.6983 30.6467 43.653 30.6605C43.6078 30.6743 43.5594 30.6715 43.5159 30.6525C43.4852 30.6332 43.46 30.6056 43.4428 30.5726C43.4257 30.5396 43.4171 30.5023 43.418 30.4646C43.4177 30.4396 43.422 30.4147 43.4309 30.3915C43.4398 30.3683 43.4529 30.3471 43.4696 30.3294C43.4963 30.3068 43.5159 30.3068 43.5176 30.3106C43.5194 30.3143 43.4696 30.3651 43.4821 30.4609C43.4846 30.4855 43.4924 30.5092 43.5051 30.5301C43.5178 30.5509 43.5348 30.5684 43.555 30.5811C43.5799 30.5878 43.6062 30.5863 43.6304 30.5769C43.6545 30.5676 43.6755 30.5508 43.6904 30.5287C43.7054 30.5066 43.7137 30.4802 43.7143 30.453C43.7149 30.4259 43.7077 30.3991 43.6937 30.3763C43.6759 30.3609 43.6547 30.3502 43.6321 30.3453C43.6095 30.3404 43.5861 30.3414 43.5639 30.3482C43.4732 30.3632 43.4572 30.4346 43.4447 30.4308Z" fill="#263238"/>
<path d="M49.2576 28.5464C49.2576 28.5464 49.2576 28.5239 49.2897 28.5051C49.331 28.4831 49.3789 28.4791 49.4231 28.4938C49.4582 28.5039 49.49 28.5239 49.5151 28.5518C49.5401 28.5796 49.5575 28.6141 49.5654 28.6516C49.5681 28.7001 49.5553 28.7481 49.529 28.7879C49.5028 28.8278 49.4646 28.8571 49.4206 28.8712C49.3766 28.8853 49.3295 28.8834 49.2867 28.8657C49.2439 28.848 49.208 28.8156 49.1847 28.7738C49.1719 28.7375 49.1686 28.6983 49.1752 28.6603C49.1818 28.6222 49.198 28.5868 49.2221 28.5577C49.2521 28.5202 49.2949 28.4966 49.3412 28.4919C49.3733 28.4919 49.3893 28.5032 49.3875 28.5089C49.3857 28.5145 49.3199 28.5183 49.2754 28.599C49.2631 28.6192 49.2554 28.642 49.253 28.6658C49.2505 28.6896 49.2533 28.7137 49.2612 28.7362C49.2768 28.7565 49.2978 28.7714 49.3215 28.779C49.3452 28.7866 49.3705 28.7865 49.3942 28.7789C49.4179 28.7712 49.4389 28.7563 49.4545 28.7359C49.4701 28.7156 49.4796 28.6908 49.4818 28.6648C49.477 28.6414 49.4672 28.6195 49.453 28.6009C49.4387 28.5823 49.4206 28.5675 49.3999 28.5577C49.3217 28.5164 49.2665 28.5596 49.2576 28.5464Z" fill="#263238"/>
<path d="M50.5673 22.3975C50.5673 22.4238 48.6961 22.4463 46.3891 22.4463C44.0821 22.4463 42.2109 22.4238 42.2109 22.3975C42.2109 22.3712 44.0803 22.3486 46.3891 22.3486C48.6979 22.3486 50.5673 22.3749 50.5673 22.3975Z" fill="#263238"/>
<path d="M50.5673 23.628C50.5673 23.6561 48.6961 23.6768 46.3891 23.6768C44.0821 23.6768 42.2109 23.6561 42.2109 23.628C42.2109 23.5998 44.0803 23.5791 46.3891 23.5791C48.6979 23.5791 50.5673 23.6016 50.5673 23.628Z" fill="#263238"/>
<path d="M50.5673 24.8548C50.5673 24.8811 48.6961 24.9036 46.3891 24.9036C44.0821 24.9036 42.2109 24.8811 42.2109 24.8548C42.2109 24.8285 44.0803 24.8059 46.3891 24.8059C48.6979 24.8059 50.5673 24.8266 50.5673 24.8548Z" fill="#263238"/>
<path d="M50.5673 26.0796C50.5673 26.1078 48.6961 26.1285 46.3891 26.1285C44.0821 26.1285 42.2109 26.1078 42.2109 26.0796C42.2109 26.0514 44.0803 26.0308 46.3891 26.0308C48.6979 26.0308 50.5673 26.0533 50.5673 26.0796Z" fill="#263238"/>
<path d="M46.6577 20.1599H42.2109V20.5563H46.6577V20.1599Z" fill="#263238"/>
<path d="M28.3022 39.8413H23.8555V40.2377H28.3022V39.8413Z" fill="#263238"/>
<path d="M36.023 42.1389C36.023 42.1671 33.3247 42.1878 29.9968 42.1878C26.6688 42.1878 23.9688 42.1671 23.9688 42.1389C23.9688 42.1107 26.667 42.0901 29.9968 42.0901C33.3265 42.0901 36.023 42.1126 36.023 42.1389Z" fill="#263238"/>
<path d="M36.094 43.2512C36.094 43.2775 33.3477 43.3001 29.9611 43.3001C26.5744 43.3001 23.8281 43.2775 23.8281 43.2512C23.8281 43.2249 26.5727 43.2024 29.9611 43.2024C33.3495 43.2024 36.094 43.2287 36.094 43.2512Z" fill="#263238"/>
<path d="M36.2355 44.2996C36.2355 44.3259 33.4732 44.3484 30.067 44.3484C26.6608 44.3484 23.8984 44.3259 23.8984 44.2996C23.8984 44.2733 26.6608 44.2507 30.067 44.2507C33.4732 44.2507 36.2355 44.2714 36.2355 44.2996Z" fill="#263238"/>
<path d="M30.3134 45.4153C30.3134 45.4416 28.8904 45.4641 27.1402 45.4641C25.3899 45.4641 23.9688 45.4416 23.9688 45.4153C23.9688 45.389 25.3917 45.3665 27.1402 45.3665C28.8886 45.3665 30.3134 45.389 30.3134 45.4153Z" fill="#263238"/>
<path d="M10.9464 75.8282V74.1373L7.93506 74.1091L7.91016 76.5947L8.08803 76.6078C8.91868 76.6623 12.3142 76.822 12.871 76.6492C13.5006 76.4538 10.9464 75.8282 10.9464 75.8282Z" fill="#FF725E"/>
<path d="M12.9499 76.4932C12.9499 76.5233 11.824 76.5477 10.4348 76.5477C9.04566 76.5477 7.91797 76.5233 7.91797 76.4932C7.91797 76.4631 9.04566 76.4387 10.4348 76.4387C11.824 76.4387 12.9499 76.4631 12.9499 76.4932Z" fill="#263238"/>
<path d="M10.9979 76.1757C10.973 76.1607 10.9979 76.0686 11.0583 75.9878C11.1188 75.9071 11.2024 75.8544 11.2202 75.8751C11.238 75.8958 11.1988 75.9728 11.1402 76.063C11.0815 76.1532 11.0228 76.1907 10.9979 76.1757Z" fill="#263238"/>
<path d="M11.1926 76.2865C11.1659 76.2753 11.1802 76.1738 11.2389 76.0686C11.2976 75.9634 11.3758 75.8995 11.3972 75.9183C11.4185 75.9371 11.3829 76.0254 11.3278 76.1231C11.2727 76.2208 11.2193 76.2978 11.1926 76.2865Z" fill="#263238"/>
<path d="M8.82325 76.482C8.8108 76.4914 8.76456 76.4463 8.69874 76.3711C8.61864 76.2729 8.5299 76.183 8.43372 76.1025C8.3378 76.028 8.22602 75.9796 8.10822 75.9616C8.0175 75.9484 7.95881 75.9616 7.95347 75.9465C7.94813 75.9315 8.00505 75.8921 8.10999 75.8845C8.24829 75.8803 8.38381 75.9261 8.49419 76.0142C8.59941 76.0993 8.68868 76.2045 8.75744 76.3242C8.81258 76.4125 8.83748 76.4726 8.82325 76.482Z" fill="#263238"/>
<path d="M11.0088 75.8563C11.0231 75.8807 10.9697 75.9408 10.8843 75.9728C10.7989 76.0047 10.7225 75.9934 10.7189 75.9634C10.7153 75.9333 10.774 75.8995 10.8505 75.8713C10.927 75.8431 10.9928 75.83 11.0088 75.8563Z" fill="#263238"/>
<path d="M10.9573 75.691C10.9573 75.721 10.879 75.7473 10.7794 75.7492C10.6798 75.7511 10.6016 75.7267 10.6016 75.6966C10.6016 75.6666 10.6834 75.6421 10.7794 75.6402C10.8755 75.6384 10.9573 75.6609 10.9573 75.691Z" fill="#FF725E"/>
<path d="M12.9499 76.4932C12.9499 76.5233 11.824 76.5477 10.4348 76.5477C9.04566 76.5477 7.91797 76.5233 7.91797 76.4932C7.91797 76.4631 9.04566 76.4387 10.4348 76.4387C11.824 76.4387 12.9499 76.4631 12.9499 76.4932Z" fill="#263238"/>
<path d="M10.9979 76.1757C10.973 76.1607 10.9979 76.0686 11.0583 75.9878C11.1188 75.9071 11.2024 75.8544 11.2202 75.8751C11.238 75.8958 11.1988 75.9728 11.1402 76.063C11.0815 76.1532 11.0228 76.1907 10.9979 76.1757Z" fill="#263238"/>
<path d="M11.1926 76.2865C11.1659 76.2753 11.1802 76.1738 11.2389 76.0686C11.2976 75.9634 11.3758 75.8995 11.3972 75.9183C11.4185 75.9371 11.3829 76.0254 11.3278 76.1231C11.2727 76.2208 11.2193 76.2978 11.1926 76.2865Z" fill="#263238"/>
<path d="M8.82325 76.482C8.8108 76.4914 8.76456 76.4463 8.69874 76.3711C8.61864 76.2729 8.5299 76.183 8.43372 76.1025C8.3378 76.028 8.22602 75.9796 8.10822 75.9616C8.0175 75.9484 7.95881 75.9616 7.95347 75.9465C7.94813 75.9315 8.00505 75.8921 8.10999 75.8845C8.24829 75.8803 8.38381 75.9261 8.49419 76.0142C8.59941 76.0993 8.68868 76.2045 8.75744 76.3242C8.81258 76.4125 8.83748 76.4726 8.82325 76.482Z" fill="#263238"/>
<path d="M11.0088 75.8563C11.0231 75.8807 10.9697 75.9408 10.8843 75.9728C10.7989 76.0047 10.7225 75.9934 10.7189 75.9634C10.7153 75.9333 10.774 75.8995 10.8505 75.8713C10.927 75.8431 10.9928 75.83 11.0088 75.8563Z" fill="#263238"/>
<path d="M10.9573 75.691C10.9573 75.721 10.879 75.7473 10.7794 75.7492C10.6798 75.7511 10.6016 75.7267 10.6016 75.6966C10.6016 75.6666 10.6834 75.6421 10.7794 75.6402C10.8755 75.6384 10.9573 75.6609 10.9573 75.691Z" fill="#263238"/>
<path d="M14.123 75.227L14.5979 73.6057L11.7271 72.6438L11.0156 75.0091L11.1935 75.0805C11.9708 75.3924 15.1707 76.606 15.7505 76.6154C16.3873 76.6229 14.123 75.227 14.123 75.227Z" fill="#FF725E"/>
<path d="M15.8491 76.4877C15.8491 76.5178 14.7569 76.189 13.43 75.7532C12.1031 75.3173 11.0341 74.9434 11.043 74.9153C11.0519 74.8871 12.1334 75.2159 13.4621 75.6498C14.7907 76.0838 15.858 76.4596 15.8491 76.4877Z" fill="#263238"/>
<path d="M14.0748 75.5745C14.0552 75.552 14.1014 75.4731 14.1868 75.4073C14.2722 75.3416 14.3647 75.3247 14.3736 75.351C14.3825 75.3773 14.3256 75.4374 14.2473 75.4975C14.169 75.5576 14.0943 75.5952 14.0748 75.5745Z" fill="#263238"/>
<path d="M14.2282 75.7418C14.2069 75.723 14.2478 75.6291 14.3349 75.5539C14.4221 75.4788 14.5128 75.4355 14.5288 75.46C14.5448 75.4844 14.4844 75.5577 14.4043 75.6347C14.3243 75.7117 14.2514 75.753 14.2282 75.7418Z" fill="#263238"/>
<path d="M11.916 75.1894C11.9017 75.1894 11.8715 75.1387 11.8306 75.0448C11.7817 74.9263 11.7222 74.813 11.6527 74.7066C11.5821 74.6057 11.4893 74.5245 11.3824 74.4699C11.2988 74.4304 11.2383 74.4229 11.2383 74.4079C11.2383 74.3929 11.3023 74.3703 11.4055 74.3966C11.5381 74.4364 11.6541 74.5225 11.7345 74.6409C11.8107 74.7545 11.8667 74.8818 11.9 75.0166C11.9231 75.1181 11.9284 75.1894 11.916 75.1894Z" fill="#455A64"/>
<path d="M14.1752 75.2721C14.1752 75.3003 14.1147 75.3416 14.024 75.3453C13.9333 75.3491 13.8621 75.3134 13.8675 75.2833C13.8728 75.2533 13.9404 75.2401 14.0204 75.2364C14.1005 75.2326 14.161 75.242 14.1752 75.2721Z" fill="#263238"/>
<path d="M14.174 75.1012C14.174 75.1293 14.085 75.1293 13.9872 75.1012C13.8894 75.073 13.82 75.0223 13.8289 74.9941C13.8378 74.9659 13.9232 74.9678 14.0157 74.9941C14.1081 75.0204 14.1811 75.0711 14.174 75.1012Z" fill="#263238"/>
<path d="M16.1659 42.2424L12.2137 41.9211L6.22656 41.4082L6.89535 75.3773L12.0945 75.3059C12.0945 75.3059 12.0945 74.9302 12.082 74.2651L15.1307 75.1462C15.1307 75.1462 18.1012 64.5465 19.1132 60.1973C19.9581 56.5732 16.1659 42.2424 16.1659 42.2424ZM12.0251 68.9897C11.9469 61.1479 11.8561 47.8128 11.9646 46.182C11.9646 46.182 14.8604 57.9221 14.8871 58.8483C14.9048 59.4082 13.2916 64.8264 12.0251 68.9897Z" fill="#455A64"/>
<path d="M12.1214 74.0191C12.1214 74.0491 10.9581 74.0736 9.52446 74.0736C8.09083 74.0736 6.92578 74.0491 6.92578 74.0191C6.92578 73.989 8.08905 73.9646 9.52446 73.9646C10.9599 73.9646 12.1214 73.989 12.1214 74.0191Z" fill="#455A64"/>
<path d="M12.0781 72.7979C12.2407 72.8386 12.4001 72.8926 12.5548 72.9594L13.7448 73.3972L14.9347 73.8368C15.103 73.8876 15.2662 73.9556 15.4221 74.0397C15.2483 74.0142 15.0773 73.9707 14.9116 73.9101C14.6021 73.8142 14.177 73.6715 13.711 73.5005C13.245 73.3295 12.8216 73.1604 12.5299 73.0308C12.3698 72.9756 12.2178 72.8972 12.0781 72.7979Z" fill="#455A64"/>
<path d="M16.8383 58.7432C16.5168 58.8223 16.1884 58.8664 15.8583 58.8747C15.5309 58.9188 15.2001 58.927 14.8711 58.8991C15.1925 58.8185 15.521 58.7738 15.8512 58.7657C16.1786 58.7216 16.5094 58.7141 16.8383 58.7432Z" fill="#455A64"/>
<path d="M16.4983 59.3594C16.2426 59.3366 15.9909 59.2785 15.7495 59.1866C15.4983 59.1286 15.2554 59.0358 15.0273 58.9104C15.2838 58.9309 15.5363 58.9885 15.778 59.0814C16.1835 59.2054 16.5072 59.3294 16.4983 59.3594Z" fill="#455A64"/>
<path d="M12.442 41.9644C12.4659 42.1788 12.4748 42.3948 12.4687 42.6106C12.4687 43.0108 12.4687 43.5631 12.4687 44.1737C12.4687 44.4762 12.4687 44.7655 12.458 45.0323C12.4645 45.2726 12.4221 45.5116 12.3335 45.7331C12.2704 45.884 12.1696 46.0139 12.0418 46.1088C11.9983 46.147 11.9462 46.1728 11.8906 46.184C11.8906 46.184 11.9404 46.1501 12.0205 46.0787C12.1328 45.9771 12.2201 45.8481 12.2748 45.703C12.349 45.4878 12.3822 45.2592 12.3727 45.0304C12.3727 44.7618 12.3727 44.4668 12.3727 44.17C12.3727 43.5594 12.3869 43.007 12.3976 42.6088C12.397 42.3931 12.4118 42.1777 12.442 41.9644Z" fill="#455A64"/>
<path d="M9.46833 41.7727C9.47024 41.8002 9.47024 41.8279 9.46833 41.8554C9.46833 41.9155 9.46833 41.9963 9.46833 42.0996C9.46833 42.3175 9.45232 42.6332 9.43987 43.039C9.41497 43.8562 9.37939 45.0304 9.33492 46.4789C9.25133 49.3834 9.16595 53.3982 9.1446 57.8301C9.12326 62.262 9.17128 66.2843 9.22642 69.187C9.25666 70.6355 9.27979 71.8172 9.29757 72.6269C9.29757 73.0308 9.3118 73.3446 9.31714 73.5663C9.31714 73.6696 9.31714 73.7541 9.31714 73.8105C9.31905 73.838 9.31905 73.8656 9.31714 73.8932C9.31522 73.8656 9.31522 73.838 9.31714 73.8105C9.31714 73.7523 9.31714 73.6715 9.30469 73.5681C9.30469 73.3483 9.28512 73.0346 9.26911 72.6288C9.23887 71.8172 9.2033 70.6411 9.16773 69.1888C9.0948 66.2825 9.03788 62.2676 9.05923 57.8301C9.08057 53.3926 9.17662 49.3759 9.27623 46.477C9.32603 45.0248 9.37228 43.8468 9.41141 43.0371C9.43097 42.635 9.44698 42.3213 9.45765 42.0977C9.45765 41.9944 9.46833 41.9099 9.47188 41.8535C9.46887 41.8267 9.46768 41.7997 9.46833 41.7727Z" fill="#455A64"/>
<path d="M14.869 42.6274C14.8798 42.6523 14.8887 42.6781 14.8957 42.7045C14.9117 42.7608 14.9348 42.836 14.9633 42.9337C15.0202 43.1347 15.1109 43.4315 15.2105 43.8185C15.4151 44.5907 15.6908 45.7123 15.9985 47.1082C16.3062 48.5041 16.6477 50.1686 17.0035 52.0248C17.3592 53.881 17.7345 55.925 18.0707 58.0818C18.1134 58.3523 18.1525 58.621 18.1863 58.8896C18.1863 58.961 18.1987 59.0343 18.1987 59.1038L18.1667 59.3029C18.1436 59.4363 18.1258 59.5697 18.0974 59.6994C17.996 60.2216 17.8821 60.7327 17.7594 61.2324C17.5175 62.2319 17.2614 63.1881 17.0088 64.0974C16.5072 65.916 16.0234 67.543 15.6125 68.9088C15.2016 70.2747 14.8583 71.3737 14.6164 72.1327L14.3354 73.0063L14.2589 73.2336C14.2523 73.2598 14.2427 73.285 14.2305 73.3088C14.2351 73.282 14.2417 73.2556 14.25 73.2299C14.2678 73.1735 14.2892 73.0984 14.3176 73.0007L14.5827 72.1214L15.5503 68.8882C15.9522 67.5205 16.4289 65.8916 16.927 64.073C17.176 63.1637 17.4303 62.2056 17.6723 61.208C17.7932 60.7101 17.907 60.201 18.0084 59.6806C18.0369 59.5509 18.0529 59.4194 18.0742 59.2879L18.1063 59.0907C18.1063 59.0268 18.0974 58.9648 18.0938 58.9028C18.06 58.6379 18.0227 58.3692 17.98 58.1006C17.642 55.9457 17.2685 53.9016 16.9127 52.0455C16.557 50.1893 16.2351 48.5116 15.9362 47.1232C15.6374 45.7348 15.3688 44.602 15.175 43.8279C15.0825 43.4409 14.9971 43.1422 14.9455 42.9393L14.8868 42.7082C14.8781 42.6821 14.8721 42.655 14.869 42.6274Z" fill="#455A64"/>
<path d="M12.0106 68.3003C12.0249 68.3877 12.0303 68.4765 12.0266 68.5652C12.0266 68.7531 12.0266 68.9992 12.0355 69.2904C12.0355 69.9198 12.0568 70.7558 12.0693 71.6782C12.0817 72.6007 12.1155 73.4367 12.1315 74.0661C12.1315 74.3573 12.1458 74.6015 12.1511 74.7913C12.1591 74.8794 12.1591 74.9681 12.1511 75.0562C12.1315 74.97 12.1207 74.8818 12.1191 74.7931C12.1049 74.6222 12.0888 74.3761 12.0711 74.0698C12.0355 73.4593 12.0017 72.6138 11.9821 71.6801C11.9626 70.7464 11.9661 69.901 11.9821 69.2904C11.9821 68.9842 11.9946 68.7268 12.0017 68.5652C11.9981 68.4768 12.0011 68.3882 12.0106 68.3003Z" fill="#455A64"/>
<path d="M16.1659 42.2424L12.2137 41.9211L6.22656 41.4082L6.89535 75.3773L12.0945 75.3059C12.0945 75.3059 12.0945 74.9302 12.082 74.2651L15.1307 75.1462C15.1307 75.1462 18.1012 64.5465 19.1132 60.1973C19.9581 56.5732 16.1659 42.2424 16.1659 42.2424ZM12.0251 68.9897C11.9469 61.1479 11.8561 47.8128 11.9646 46.182C11.9646 46.182 14.8604 57.9221 14.8871 58.8483C14.9048 59.4082 13.2916 64.8264 12.0251 68.9897Z" fill="#263238"/>
<path d="M12.1214 74.0191C12.1214 74.0491 10.9581 74.0736 9.52446 74.0736C8.09083 74.0736 6.92578 74.0491 6.92578 74.0191C6.92578 73.989 8.08905 73.9646 9.52446 73.9646C10.9599 73.9646 12.1214 73.989 12.1214 74.0191Z" fill="#455A64"/>
<path d="M12.0781 72.7979C12.2407 72.8386 12.4001 72.8926 12.5548 72.9594L13.7448 73.3972L14.9347 73.8368C15.103 73.8876 15.2662 73.9556 15.4221 74.0397C15.2483 74.0142 15.0773 73.9707 14.9116 73.9101C14.6021 73.8142 14.177 73.6715 13.711 73.5005C13.245 73.3295 12.8216 73.1604 12.5299 73.0308C12.3698 72.9756 12.2178 72.8972 12.0781 72.7979Z" fill="#455A64"/>
<path d="M16.8383 58.7432C16.5168 58.8223 16.1884 58.8664 15.8583 58.8747C15.5309 58.9188 15.2001 58.927 14.8711 58.8991C15.1925 58.8185 15.521 58.7738 15.8512 58.7657C16.1786 58.7216 16.5094 58.7141 16.8383 58.7432Z" fill="#455A64"/>
<path d="M16.4983 59.3594C16.2426 59.3366 15.9909 59.2785 15.7495 59.1866C15.4983 59.1286 15.2554 59.0358 15.0273 58.9104C15.2838 58.9309 15.5363 58.9885 15.778 59.0814C16.1835 59.2054 16.5072 59.3294 16.4983 59.3594Z" fill="#455A64"/>
<path d="M12.442 41.9644C12.4659 42.1788 12.4748 42.3948 12.4687 42.6106C12.4687 43.0108 12.4687 43.5631 12.4687 44.1737C12.4687 44.4762 12.4687 44.7655 12.458 45.0323C12.4645 45.2726 12.4221 45.5116 12.3335 45.7331C12.2704 45.884 12.1696 46.0139 12.0418 46.1088C11.9983 46.147 11.9462 46.1728 11.8906 46.184C11.8906 46.184 11.9404 46.1501 12.0205 46.0787C12.1328 45.9771 12.2201 45.8481 12.2748 45.703C12.349 45.4878 12.3822 45.2592 12.3727 45.0304C12.3727 44.7618 12.3727 44.4668 12.3727 44.17C12.3727 43.5594 12.3869 43.007 12.3976 42.6088C12.397 42.3931 12.4118 42.1777 12.442 41.9644Z" fill="#455A64"/>
<path d="M9.46833 41.7727C9.47024 41.8002 9.47024 41.8279 9.46833 41.8554C9.46833 41.9155 9.46833 41.9963 9.46833 42.0996C9.46833 42.3175 9.45232 42.6332 9.43987 43.039C9.41497 43.8562 9.37939 45.0304 9.33492 46.4789C9.25133 49.3834 9.16595 53.3982 9.1446 57.8301C9.12326 62.262 9.17128 66.2843 9.22642 69.187C9.25666 70.6355 9.27979 71.8172 9.29757 72.6269C9.29757 73.0308 9.3118 73.3446 9.31714 73.5663C9.31714 73.6696 9.31714 73.7541 9.31714 73.8105C9.31905 73.838 9.31905 73.8656 9.31714 73.8932C9.31522 73.8656 9.31522 73.838 9.31714 73.8105C9.31714 73.7523 9.31714 73.6715 9.30469 73.5681C9.30469 73.3483 9.28512 73.0346 9.26911 72.6288C9.23887 71.8172 9.2033 70.6411 9.16773 69.1888C9.0948 66.2825 9.03788 62.2676 9.05923 57.8301C9.08057 53.3926 9.17662 49.3759 9.27623 46.477C9.32603 45.0248 9.37228 43.8468 9.41141 43.0371C9.43097 42.635 9.44698 42.3213 9.45765 42.0977C9.45765 41.9944 9.46833 41.9099 9.47188 41.8535C9.46887 41.8267 9.46768 41.7997 9.46833 41.7727Z" fill="#455A64"/>
<path d="M14.869 42.6274C14.8798 42.6523 14.8887 42.6781 14.8957 42.7045C14.9117 42.7608 14.9348 42.836 14.9633 42.9337C15.0202 43.1347 15.1109 43.4315 15.2105 43.8185C15.4151 44.5907 15.6908 45.7123 15.9985 47.1082C16.3062 48.5041 16.6477 50.1686 17.0035 52.0248C17.3592 53.881 17.7345 55.925 18.0707 58.0818C18.1134 58.3523 18.1525 58.621 18.1863 58.8896C18.1863 58.961 18.1987 59.0343 18.1987 59.1038L18.1667 59.3029C18.1436 59.4363 18.1258 59.5697 18.0974 59.6994C17.996 60.2216 17.8821 60.7327 17.7594 61.2324C17.5175 62.2319 17.2614 63.1881 17.0088 64.0974C16.5072 65.916 16.0234 67.543 15.6125 68.9088C15.2016 70.2747 14.8583 71.3737 14.6164 72.1327L14.3354 73.0063L14.2589 73.2336C14.2523 73.2598 14.2427 73.285 14.2305 73.3088C14.2351 73.282 14.2417 73.2556 14.25 73.2299C14.2678 73.1735 14.2892 73.0984 14.3176 73.0007L14.5827 72.1214L15.5503 68.8882C15.9522 67.5205 16.4289 65.8916 16.927 64.073C17.176 63.1637 17.4303 62.2056 17.6723 61.208C17.7932 60.7101 17.907 60.201 18.0084 59.6806C18.0369 59.5509 18.0529 59.4194 18.0742 59.2879L18.1063 59.0907C18.1063 59.0268 18.0974 58.9648 18.0938 58.9028C18.06 58.6379 18.0227 58.3692 17.98 58.1006C17.642 55.9457 17.2685 53.9016 16.9127 52.0455C16.557 50.1893 16.2351 48.5116 15.9362 47.1232C15.6374 45.7348 15.3688 44.602 15.175 43.8279C15.0825 43.4409 14.9971 43.1422 14.9455 42.9393L14.8868 42.7082C14.8781 42.6821 14.8721 42.655 14.869 42.6274Z" fill="#455A64"/>
<path d="M12.0106 68.3003C12.0249 68.3877 12.0303 68.4765 12.0266 68.5652C12.0266 68.7531 12.0266 68.9992 12.0355 69.2904C12.0355 69.9198 12.0568 70.7558 12.0693 71.6782C12.0817 72.6007 12.1155 73.4367 12.1315 74.0661C12.1315 74.3573 12.1458 74.6015 12.1511 74.7913C12.1591 74.8794 12.1591 74.9681 12.1511 75.0562C12.1315 74.97 12.1207 74.8818 12.1191 74.7931C12.1049 74.6222 12.0888 74.3761 12.0711 74.0698C12.0355 73.4593 12.0017 72.6138 11.9821 71.6801C11.9626 70.7464 11.9661 69.901 11.9821 69.2904C11.9821 68.9842 11.9946 68.7268 12.0017 68.5652C11.9981 68.4768 12.0011 68.3882 12.0106 68.3003Z" fill="#455A64"/>
<path d="M9.35735 25.9389L12.3811 26.1757C12.422 25.7999 12.4807 24.3702 12.4807 24.3702C12.4807 24.3702 13.7418 24.2481 13.8343 22.9292C13.9268 21.6104 13.8877 18.565 13.8877 18.565C13.1964 18.1959 12.4243 18.0287 11.6512 18.0805C10.8782 18.1324 10.1323 18.4015 9.49075 18.8599L9.29688 18.999L9.35735 25.9389Z" fill="#E5BAAB"/>
<path d="M13.4552 20.8136C13.4312 20.787 13.4152 20.7535 13.409 20.7173C13.4029 20.6811 13.4069 20.6439 13.4207 20.6101C13.4344 20.5763 13.4572 20.5476 13.4863 20.5273C13.5153 20.5071 13.5493 20.4963 13.5841 20.4963C13.6189 20.4963 13.6529 20.5071 13.682 20.5273C13.711 20.5476 13.7338 20.5763 13.7476 20.6101C13.7613 20.6439 13.7653 20.6811 13.7592 20.7173C13.7531 20.7535 13.737 20.787 13.7131 20.8136C13.6965 20.8321 13.6765 20.8468 13.6543 20.8568C13.6321 20.8669 13.6082 20.8721 13.5841 20.8721C13.56 20.8721 13.5361 20.8669 13.514 20.8568C13.4918 20.8468 13.4718 20.8321 13.4552 20.8136Z" fill="#263238"/>
<path d="M13.7754 20.5319C13.754 20.5544 13.6384 20.4474 13.4659 20.4342C13.2933 20.4211 13.1635 20.5075 13.1457 20.4831C13.1279 20.4586 13.1582 20.4323 13.2168 20.3929C13.2925 20.3404 13.3828 20.3165 13.473 20.3252C13.5638 20.331 13.6502 20.3687 13.7184 20.4323C13.77 20.4793 13.786 20.5188 13.7754 20.5319Z" fill="#263238"/>
<path d="M11.7867 20.562C11.8149 20.5838 11.8364 20.6138 11.8485 20.6483C11.8607 20.6828 11.8629 20.7204 11.855 20.7563C11.8471 20.7922 11.8294 20.8248 11.8041 20.8501C11.7788 20.8755 11.747 20.8924 11.7126 20.8988C11.6783 20.9052 11.6429 20.9007 11.6109 20.8861C11.5789 20.8714 11.5517 20.8471 11.5327 20.8162C11.5137 20.7853 11.5037 20.7492 11.5039 20.7124C11.5042 20.6755 11.5147 20.6396 11.5341 20.609C11.5475 20.588 11.5647 20.5701 11.5848 20.5563C11.6048 20.5425 11.6273 20.5331 11.6509 20.5287C11.6745 20.5243 11.6987 20.525 11.722 20.5308C11.7454 20.5365 11.7673 20.5471 11.7867 20.562Z" fill="#263238"/>
<path d="M11.9004 20.5714C11.879 20.5921 11.7634 20.485 11.5909 20.4719C11.4183 20.4587 11.2885 20.547 11.2707 20.5226C11.2529 20.4982 11.2832 20.47 11.3401 20.4305C11.4172 20.3799 11.5074 20.3563 11.598 20.3629C11.6886 20.3699 11.7746 20.4074 11.8435 20.47C11.895 20.5188 11.911 20.5621 11.9004 20.5714Z" fill="#263238"/>
<path d="M12.5011 22.1157C12.5921 22.086 12.6869 22.0714 12.7821 22.0725C12.8284 22.0725 12.8657 22.0631 12.871 22.0368C12.8755 21.9883 12.8669 21.9394 12.8461 21.8959L12.7323 21.5201C12.6228 21.1989 12.5424 20.8673 12.4922 20.53C12.63 20.8385 12.7402 21.1599 12.8212 21.4901L12.928 21.8658C12.9536 21.928 12.9587 21.9975 12.9422 22.0631C12.9347 22.0806 12.9234 22.0961 12.9092 22.1082C12.895 22.1203 12.8782 22.1286 12.8604 22.1326C12.835 22.1361 12.8093 22.1361 12.7839 22.1326C12.6894 22.1429 12.5939 22.1372 12.5011 22.1157Z" fill="#263238"/>
<path d="M11.9324 22.2791C11.7545 22.1551 12.4091 22.5891 12.7613 22.5947C12.6973 22.6863 12.6058 22.7521 12.5017 22.7815C12.3976 22.8109 12.2872 22.802 12.1885 22.7563C11.8221 22.5853 11.9324 22.2791 11.9324 22.2791Z" fill="white"/>
<path d="M12.4719 24.3512C11.8944 24.3255 11.3371 24.1188 10.8711 23.7576C10.8711 23.7576 11.2002 24.7326 12.4541 24.6969L12.4719 24.3512Z" fill="#D78776"/>
<path d="M9.53631 20.1693C9.50785 20.1581 8.60783 20.0341 8.69321 21.1575C8.77859 22.281 9.82446 21.817 9.82268 21.785C9.8209 21.7531 9.53631 20.1693 9.53631 20.1693Z" fill="#E5BAAB"/>
<path d="M9.45579 21.4187C9.45579 21.4187 9.43979 21.4337 9.40955 21.4525C9.36672 21.4757 9.3172 21.4811 9.27081 21.4676C9.19879 21.427 9.13818 21.367 9.09508 21.2938C9.05199 21.2206 9.02793 21.1367 9.02535 21.0505C9.01554 20.9546 9.02649 20.8576 9.05736 20.7668C9.06448 20.7309 9.07967 20.6973 9.10165 20.6688C9.12362 20.6404 9.15175 20.6179 9.18365 20.6033C9.20466 20.5962 9.22734 20.5968 9.24801 20.6049C9.26867 20.6131 9.28611 20.6285 9.29749 20.6484C9.3135 20.6785 9.30994 20.701 9.31527 20.7029C9.32061 20.7048 9.33662 20.6823 9.31527 20.6372C9.30785 20.6096 9.29148 20.5856 9.26903 20.5695C9.23748 20.5497 9.20006 20.543 9.16409 20.5507C9.12172 20.5634 9.08313 20.5873 9.052 20.6202C9.02086 20.6531 8.99821 20.6939 8.98622 20.7386C8.94786 20.8392 8.9338 20.9483 8.94531 21.0561C8.94728 21.1565 8.9774 21.254 9.03187 21.3362C9.08633 21.4185 9.16267 21.4819 9.25124 21.5183C9.2804 21.5247 9.31055 21.5242 9.33949 21.5167C9.36842 21.5093 9.3954 21.495 9.41844 21.4751C9.45579 21.4469 9.46113 21.4206 9.45579 21.4187Z" fill="#D78776"/>
<path d="M13.9678 18.0895C14.0398 18.0875 14.1104 18.068 14.1741 18.0326C14.2378 17.9971 14.293 17.9467 14.3353 17.8851C14.3776 17.8235 14.4059 17.7525 14.4181 17.6776C14.4303 17.6026 14.426 17.5257 14.4055 17.4527C14.385 17.3798 14.3489 17.3128 14.3 17.257C14.2511 17.2011 14.1907 17.1579 14.1235 17.1307C14.0563 17.1034 13.984 17.0929 13.9123 17.0998C13.8406 17.1068 13.7713 17.1311 13.7099 17.1708C13.8587 17.0404 13.9799 16.8785 14.0657 16.6955C14.1072 16.6032 14.1209 16.4997 14.105 16.399C14.0891 16.2982 14.0443 16.205 13.9767 16.1319C13.8985 16.0772 13.8079 16.0453 13.7142 16.0393C13.6205 16.0334 13.527 16.0537 13.4431 16.0981C13.1781 16.2183 12.9682 16.4551 12.6961 16.5546C12.4239 16.6542 12.1198 16.6054 11.8281 16.6185C11.5007 16.6247 11.1837 16.7405 10.9227 16.9492C10.7003 17.1337 10.5563 17.404 10.5225 17.7006C10.4875 17.6499 10.4489 17.6022 10.4069 17.5579C10.2685 17.3835 10.0819 17.2593 9.87326 17.2028C9.86081 17.2272 10.1045 17.37 10.3375 17.6255C10.4009 17.6896 10.4604 17.758 10.5154 17.8303C10.1098 17.7777 9.66337 17.7739 9.34321 18.0407C9.2135 18.1628 9.11099 18.3137 9.04303 18.4826C8.97507 18.6515 8.94334 18.8342 8.95012 19.0176C8.95012 19.3821 9.09241 19.7297 9.1938 20.0791C9.21832 20.1781 9.26058 20.2712 9.31831 20.3534L9.47127 21.2928L10.028 21.2815L9.99243 19.3107C9.99243 19.3107 9.93552 18.4803 10.6114 18.5592C11.2873 18.6381 12.2123 19.4366 13.5249 19.2337C13.7403 19.221 13.9502 19.1568 14.1386 19.0458C14.2298 18.9848 14.3039 18.8992 14.3533 18.7978C14.4027 18.6964 14.4256 18.5829 14.4196 18.469C14.4067 18.3558 14.352 18.2524 14.2674 18.1814C14.1829 18.1104 14.0752 18.0774 13.9678 18.0895Z" fill="#263238"/>
<path d="M25.2813 27.8157L25.3631 27.2183C25.4467 26.8915 25.4992 26.5566 25.5196 26.2188C25.533 26.0508 25.5186 25.8817 25.477 25.719C25.435 25.5143 25.3655 25.3169 25.2706 25.1329C25.1675 24.9732 25.3026 24.7571 25.4485 24.8229C25.5944 24.8886 25.8985 25.3132 25.9963 25.9257C26.0942 26.5382 26.5513 25.689 26.722 25.3828C26.8928 25.0765 27.4673 24.1541 27.5989 24.1353C27.791 24.1071 27.8551 24.3232 27.6754 24.6219C27.4958 24.9206 27.0226 25.8693 27.181 25.9558C27.2995 25.9358 27.4206 25.9422 27.5367 25.9745C27.5554 25.9803 27.572 25.9921 27.5841 26.0083C27.5962 26.0244 27.6032 26.0442 27.6043 26.0647C27.6036 26.1595 27.6132 26.254 27.6327 26.3465C27.6327 26.3465 27.8658 26.2902 27.9138 26.3973C27.9463 26.5072 27.9613 26.6221 27.9582 26.7373C27.9582 26.7373 28.1361 26.6734 28.2215 26.7373C28.3994 26.8895 28.1717 27.1506 28.1717 27.1506C27.6479 27.8105 27.0854 28.4348 26.4873 29.02L25.2617 27.7725" fill="#E5BAAB"/>
<path d="M27.5589 26.3878C27.5066 26.504 27.4363 26.61 27.3508 26.7016C27.2797 26.7918 27.1907 26.8895 27.0858 27.0078C27.0311 27.0693 26.9716 27.1259 26.9079 27.1769C26.8687 27.2098 26.8214 27.2301 26.7716 27.2355C26.7218 27.2408 26.6715 27.2309 26.6269 27.207C26.6025 27.1919 26.5819 27.1709 26.5668 27.1457C26.5516 27.1206 26.5423 27.092 26.5397 27.0623C26.5361 27.0094 26.5473 26.9565 26.5717 26.9101C26.6156 26.8404 26.6631 26.7732 26.714 26.7091C26.8047 26.5889 26.8795 26.4761 26.9417 26.3784C27.0014 26.268 27.0699 26.163 27.1463 26.0647C27.1166 26.1897 27.066 26.308 26.9968 26.4141C26.9322 26.5349 26.861 26.6516 26.7834 26.7636C26.7362 26.8235 26.6922 26.8862 26.6518 26.9515C26.6198 27.0135 26.6215 27.0905 26.6731 27.1187C26.7022 27.1316 26.7339 27.1362 26.7652 27.1319C26.7964 27.1276 26.8261 27.1146 26.851 27.0942C26.91 27.047 26.9659 26.9956 27.0182 26.9402C27.1249 26.835 27.2174 26.7354 27.2939 26.6509C27.3736 26.5539 27.4624 26.4658 27.5589 26.3878Z" fill="#D78776"/>
<path d="M27.871 26.7729C27.8187 26.8731 27.7514 26.9638 27.6718 27.0415C27.5915 27.1325 27.504 27.216 27.4104 27.2914C27.3541 27.3363 27.2947 27.3765 27.2325 27.4116C27.1956 27.4312 27.1559 27.4445 27.1151 27.4511C27.0904 27.4553 27.0651 27.454 27.0408 27.4472C27.0166 27.4404 26.994 27.4283 26.9746 27.4116C26.9417 27.3758 26.921 27.3295 26.9155 27.2799C26.91 27.2303 26.9202 27.1802 26.9443 27.1373C26.9804 27.0704 27.0227 27.0075 27.0706 26.9495C27.1489 26.8537 27.2218 26.7616 27.2947 26.6695C27.4246 26.5117 27.51 26.4197 27.5206 26.4272C27.4737 26.5303 27.4139 26.6264 27.3428 26.7128L27.1436 27.0115C27.1015 27.0646 27.0635 27.1212 27.0297 27.1806C27.016 27.2045 27.0097 27.2324 27.0116 27.2603C27.0135 27.2882 27.0235 27.3149 27.0404 27.3365C27.0724 27.3684 27.14 27.3553 27.1987 27.3252C27.2571 27.2933 27.3135 27.2575 27.3677 27.2181C27.4601 27.1485 27.5486 27.0732 27.6327 26.9927C27.7034 26.9094 27.7834 26.8356 27.871 26.7729Z" fill="#D78776"/>
<path d="M27.9434 27.3102C27.9523 27.3102 27.9434 27.3948 27.8598 27.4981C27.8344 27.5301 27.8033 27.5564 27.7681 27.5754C27.733 27.5945 27.6946 27.6059 27.6552 27.6089C27.6043 27.6094 27.5547 27.5915 27.5147 27.5582C27.4926 27.5387 27.475 27.5143 27.463 27.4866C27.451 27.459 27.4449 27.4289 27.4453 27.3985C27.4594 27.3028 27.4961 27.2123 27.5521 27.1355C27.5896 27.0735 27.6306 27.0139 27.6748 26.957C27.7513 26.8593 27.8064 26.8086 27.8171 26.818C27.8277 26.8274 27.7886 26.8913 27.7281 27.0059C27.6926 27.0716 27.657 27.1317 27.625 27.1937C27.5821 27.26 27.5525 27.3348 27.5378 27.4136C27.5392 27.4455 27.5522 27.4756 27.574 27.4976C27.5959 27.5197 27.625 27.5319 27.6552 27.5319C27.7143 27.5299 27.7706 27.5052 27.8135 27.4624C27.8936 27.3722 27.9309 27.3027 27.9434 27.3102Z" fill="#D78776"/>
<path d="M25.1472 27.0398C25.1472 27.0398 20.4817 31.8887 19.8271 31.9244C19.08 31.962 16.782 28.5202 16.782 28.5202C15.311 26.1229 13.3704 25.7359 12.6625 25.6758V25.379L9.18513 25.0784C9.18513 25.0784 9.18513 25.394 9.18513 25.6702H7.65011C7.65011 25.6702 4.89313 25.5368 4.48047 29.4483L6.46194 31.1034L7.27481 34.2972C7.55762 35.4094 6.54732 37.1811 6.06529 40.0499C5.99095 40.5281 6.06652 41.0189 6.28051 41.4476L16.3213 42.6669L15.7877 34.5584L15.6258 32.6797C16.4529 33.8726 17.9381 35.5597 19.7577 35.5222C22.8616 35.4602 27.1731 28.5709 27.1731 28.5709L25.1472 27.0398Z" fill="#E0E0E0"/>
<path d="M11.4924 25.3264C11.5097 25.4931 11.5097 25.6613 11.4924 25.828C11.4665 26.2454 11.413 26.6604 11.3323 27.0699L11.3199 27.1319L11.2665 27.1018C11.1456 27.0342 11.0193 26.9628 10.8912 26.8839C10.3932 26.5739 9.96807 26.2545 9.64612 26.0328C9.47233 25.9211 9.30484 25.7988 9.14453 25.6665C9.19777 25.6829 9.24863 25.7069 9.29572 25.7379C9.38821 25.7923 9.52162 25.8712 9.6817 25.9746C10.0054 26.1812 10.4359 26.4931 10.9268 26.7993C11.0513 26.8764 11.1758 26.9496 11.2968 27.0173L11.2309 27.0492C11.3341 26.5645 11.3839 26.1305 11.4213 25.8224C11.4355 25.6557 11.4592 25.4901 11.4924 25.3264Z" fill="#FAFAFA"/>
<path d="M12.6729 25.6965C12.6506 25.8579 12.6173 26.0174 12.5733 26.1737C12.5395 26.3221 12.5039 26.4987 12.4434 26.6904C12.412 26.7917 12.3745 26.8908 12.3314 26.9872C12.3189 27.0218 12.2966 27.0513 12.2674 27.0717C12.2471 27.0849 12.2232 27.0904 12.1996 27.0873C12.176 27.0842 12.1541 27.0728 12.1375 27.0548C12.1042 27.0029 12.0773 26.9467 12.0575 26.8876C11.8796 26.4612 11.7391 26.0741 11.6359 25.7905C11.571 25.6418 11.5215 25.4863 11.4883 25.3264C11.5714 25.4646 11.6411 25.6112 11.6964 25.7642C11.8156 26.0403 11.9739 26.4236 12.1428 26.8501C12.1593 26.8975 12.1795 26.9434 12.2033 26.9872C12.2122 26.9872 12.2033 26.9872 12.2193 26.9872C12.2327 26.9757 12.2431 26.9609 12.2496 26.944C12.2921 26.8516 12.3301 26.7569 12.3634 26.6603C12.4257 26.4724 12.4683 26.2996 12.5093 26.1549C12.5446 25.9952 12.5996 25.8411 12.6729 25.6965Z" fill="#FAFAFA"/>
<path d="M12.0252 38.8175C12.0167 38.7736 12.0119 38.729 12.0109 38.6841C12.0109 38.5864 12.0038 38.4612 11.9896 38.3084C11.9754 37.9627 11.954 37.4836 11.9291 36.8956C11.8864 35.6932 11.826 34.0493 11.7619 32.2345C11.6979 30.4197 11.657 28.7758 11.6214 27.5734C11.609 26.9835 11.5983 26.5044 11.5894 26.1587C11.5894 26.0009 11.5894 25.8732 11.5894 25.783C11.5848 25.738 11.5848 25.6927 11.5894 25.6477C11.5976 25.6916 11.6018 25.7363 11.6018 25.7811C11.6018 25.8788 11.6161 26.0065 11.625 26.1568C11.6392 26.5006 11.6605 26.9797 11.6854 27.5678C11.7281 28.7701 11.7868 30.414 11.8526 32.2289C11.9184 34.0437 11.9558 35.6876 11.9932 36.8918C12.0056 37.4799 12.0163 37.9589 12.0252 38.3046C12.0252 38.4643 12.0252 38.5921 12.0252 38.6898C12.0294 38.7322 12.0294 38.7751 12.0252 38.8175Z" fill="#F5F5F5"/>
<path d="M11.3906 26.5136L11.6823 27.3628L11.9331 26.4516L11.5436 25.5386L11.3906 26.5136Z" fill="#FF725E"/>
<path d="M11.7351 27.1094L11.543 36.6683L12.909 39.6855L13.448 36.2907L11.7351 27.1094Z" fill="#FF725E"/>
<path d="M19.8772 33.1062C19.8772 33.1062 19.8772 33.1344 19.8772 33.1814L19.8665 33.2528L19.8362 33.1814C19.7674 32.9914 19.7278 32.7909 19.7189 32.5877C19.6894 32.3611 19.7151 32.1302 19.7936 31.917C19.8202 31.917 19.7936 32.2176 19.8113 32.5821C19.8256 32.8413 19.8647 33.063 19.8772 33.1701H19.8362C19.8523 33.1194 19.87 33.1062 19.8772 33.1062Z" fill="#FAFAFA"/>
<path d="M20.2767 33.0743C20.144 32.9273 20.0454 32.7498 19.9885 32.5558C19.9029 32.3766 19.8561 32.1796 19.8516 31.979C19.9421 32.1537 20.016 32.3375 20.0721 32.5276C20.1569 32.7024 20.2255 32.8855 20.2767 33.0743Z" fill="#FAFAFA"/>
<path d="M26.882 29.0274C26.4973 28.8125 26.1276 28.5689 25.7756 28.2985C25.4069 28.0554 25.055 27.7848 24.7227 27.4888C25.1072 27.7054 25.4769 27.9503 25.829 28.2215C26.1977 28.4634 26.5496 28.7327 26.882 29.0274Z" fill="#FAFAFA"/>
<path d="M7.48607 30.5623C7.48607 30.5623 6.74613 36.0106 7.09654 36.3149C9.03176 38.0339 11.7212 38.9357 12.6817 39.2194C12.8222 39.1837 12.9858 39.1368 13.1744 39.0729C13.3378 39.018 13.4912 38.9342 13.6279 38.8249C13.8025 38.6955 13.9594 38.5413 14.0939 38.3665C14.1143 38.329 14.1451 38.2991 14.1822 38.2809C14.2193 38.2627 14.2609 38.2572 14.3011 38.265C14.3413 38.2728 14.3783 38.2937 14.4068 38.3247C14.4353 38.3556 14.454 38.3952 14.4604 38.4379C14.4692 38.6257 14.1847 39.1086 13.6493 39.4618C13.6493 39.4618 14.8819 41.5565 15.275 41.7463C15.6681 41.936 16.7922 42.4696 16.6019 42.5711C16.4116 42.6725 15.0438 42.2536 15.0438 42.2536L12.269 41.4701C12.269 41.4701 3.0909 39.9502 3.701 35.5033C4.0763 32.7773 4.4854 30.3218 4.63304 29.7L7.48607 30.5623Z" fill="#E5BAAB"/>
<path d="M4.47964 29.4463L3.665 35.3849C3.47468 37.2129 4.63439 38.6652 6.19431 39.4824C8.56888 40.7242 12.0943 41.611 12.064 41.6054C12.0338 41.5997 12.3024 38.9545 12.3024 38.9545C12.3024 38.9545 7.35936 36.7 7.20461 35.7231C7.04987 34.7462 7.83249 30.6881 7.83249 30.6881L4.47964 29.4463Z" fill="#E0E0E0"/>
<path d="M12.0567 41.6056C12.0549 41.59 12.0549 41.5742 12.0567 41.5586C12.0567 41.521 12.0567 41.4759 12.0656 41.4215C12.0745 41.2918 12.087 41.1171 12.1047 40.8935C12.1421 40.4276 12.1972 39.7663 12.263 38.9528L12.2826 38.9866L9.79243 37.7148L9.08095 37.339C8.84082 37.2037 8.59892 37.0553 8.3588 36.8919C8.11517 36.7258 7.88115 36.5445 7.65799 36.3489C7.54593 36.2494 7.43387 36.1441 7.32715 36.0333C7.26697 35.9775 7.21851 35.909 7.18486 35.8323C7.166 35.7951 7.15222 35.7552 7.14394 35.7139C7.13227 35.6747 7.12393 35.6345 7.11904 35.5937C7.039 34.9436 7.20264 34.3312 7.29691 33.7469C7.39118 33.1626 7.48546 32.5934 7.57439 32.0561C7.75226 30.9777 7.91412 30.0082 8.0493 29.1891C8.12229 28.8263 8.16397 28.4571 8.17381 28.0863C8.17724 27.8073 8.1226 27.5309 8.01373 27.2766C7.9439 27.1162 7.84477 26.9719 7.72202 26.852C7.63664 26.7712 7.58506 26.7393 7.58684 26.7336C7.63976 26.7618 7.68932 26.7965 7.73447 26.837C7.86507 26.9533 7.97111 27.0973 8.04575 27.2597C8.16249 27.5178 8.22325 27.8002 8.22362 28.0863C8.21965 28.4606 8.18213 28.8336 8.11156 29.2004C7.98171 30.0214 7.82697 30.9927 7.65621 32.073C7.56905 32.6122 7.47834 33.1795 7.38407 33.7638C7.36095 33.9103 7.33604 34.0588 7.31114 34.2091C7.28624 34.3594 7.25956 34.5059 7.23999 34.6562C7.19322 34.9599 7.18545 35.269 7.21687 35.5749C7.2225 35.6123 7.23022 35.6493 7.23999 35.6857C7.24699 35.7218 7.25898 35.7567 7.27557 35.7891C7.30487 35.8554 7.34733 35.9144 7.40008 35.9619C7.50502 36.0709 7.61352 36.1742 7.7238 36.2719C7.94399 36.4656 8.17504 36.645 8.41572 36.8092C8.65228 36.9727 8.89063 37.1192 9.1272 37.2545L9.83868 37.6302L12.3093 38.9303L12.3289 38.9416V38.9641C12.2488 39.7776 12.1848 40.437 12.1403 40.9029C12.1154 41.1246 12.0976 41.3012 12.0834 41.429C12.0763 41.4841 12.0709 41.5292 12.0674 41.5642C12.0651 41.5784 12.0615 41.5922 12.0567 41.6056Z" fill="#FAFAFA"/>
<path d="M11.5975 38.592C11.6027 38.7281 11.5926 38.8643 11.5672 38.9978C11.537 39.2458 11.4872 39.5878 11.4214 39.9635C11.3556 40.3392 11.2809 40.6774 11.2204 40.9198C11.196 41.0534 11.1547 41.1829 11.0977 41.3049C11.1039 41.1691 11.1235 41.0343 11.1564 40.9029C11.2085 40.6198 11.2678 40.3004 11.3342 39.9447C11.3965 39.4887 11.4844 39.037 11.5975 38.592Z" fill="#FAFAFA"/>
<path d="M12.0577 41.6054C12.0281 41.6052 11.9987 41.6001 11.9705 41.5903L11.7269 41.5283L10.8375 41.2803C10.0851 41.0662 9.03924 40.7844 7.91866 40.3504C7.39133 40.1467 6.87786 39.905 6.38186 39.6271C5.97665 39.3994 5.58995 39.1367 5.2257 38.8418C4.97994 38.643 4.7481 38.4258 4.53201 38.1917C4.45553 38.1091 4.40039 38.0433 4.35414 38.0039C4.33297 37.9817 4.31499 37.9564 4.30078 37.9287C4.30078 37.9287 4.38972 38.017 4.5498 38.1729C4.77531 38.3947 5.01288 38.6023 5.26128 38.7948C5.6291 39.0743 6.01549 39.3254 6.41743 39.5463C6.91219 39.8178 7.42317 40.055 7.94712 40.2564C9.06058 40.6885 10.1047 40.9797 10.8517 41.2127L11.7411 41.4889L11.9812 41.5697C12.008 41.578 12.0338 41.59 12.0577 41.6054Z" fill="#FAFAFA"/>
<path d="M12.117 39.2269C12.118 39.2605 12.1096 39.2937 12.0927 39.3222C12.0759 39.3506 12.0514 39.3732 12.0223 39.3869C11.9933 39.4006 11.961 39.4049 11.9297 39.3992C11.8983 39.3934 11.8693 39.378 11.8463 39.3548C11.8233 39.3316 11.8074 39.3016 11.8006 39.2688C11.7938 39.236 11.7964 39.2018 11.808 39.1705C11.8197 39.1393 11.8399 39.1124 11.8661 39.0933C11.8923 39.0743 11.9233 39.0639 11.9551 39.0635C11.9969 39.063 12.0373 39.0798 12.0676 39.1103C12.0978 39.1409 12.1156 39.1827 12.117 39.2269Z" fill="#FAFAFA"/>
</svg>
