<svg width="96" height="65" viewBox="0 0 96 65" fill="none" xmlns="http://www.w3.org/2000/svg">
<rect width="96" height="64" transform="translate(0 0.770004)" fill="white"/>
<g clip-path="url(#clip0_6744_64667)">
<g clip-path="url(#clip1_6744_64667)">
<path d="M48.0158 8.77C44.4348 8.77 40.9343 9.83188 37.9569 11.8214C34.9794 13.8108 32.6587 16.6385 31.2884 19.9469C29.918 23.2553 29.5594 26.8957 30.2581 30.4079C30.9567 33.92 32.6811 37.1461 35.2132 39.6783C37.7453 42.2104 40.9714 43.9348 44.4836 44.6334C47.9957 45.332 51.6362 44.9734 54.9445 43.6031C58.2529 42.2327 61.0806 39.9121 63.0701 36.9346C65.0596 33.9571 66.1214 30.4566 66.1214 26.8756C66.1214 22.0737 64.2139 17.4685 60.8184 14.073C57.423 10.6776 52.8177 8.77 48.0158 8.77ZM48.0158 42.6626C45.1661 42.6626 42.8582 40.7664 42.8582 38.4151H53.1517C53.1517 40.7556 50.8438 42.6626 47.9941 42.6626H48.0158ZM56.5214 37.0066H39.5427V33.9294H56.554L56.5214 37.0066ZM56.4564 32.3258H39.5427L39.3801 32.1307C38.2445 30.8749 37.378 29.3999 36.8339 27.7966C36.8339 27.7966 39.0009 28.23 40.4528 28.5659C41.0813 28.7068 41.7205 28.8368 42.3598 28.9452C41.2656 27.6873 40.6516 26.083 40.6262 24.4161C40.6262 20.7863 43.4108 17.6115 42.4032 15.0544C43.3783 15.1303 44.4293 17.1131 44.4944 20.2228C45.4851 18.5003 45.9941 16.5429 45.968 14.556C45.968 12.8874 47.0515 10.9587 48.135 10.8937C47.1598 12.5082 48.3842 13.8842 49.4786 17.319C49.8903 18.6192 49.8361 20.7863 50.1503 22.1515C50.2587 19.291 50.7463 15.1303 52.5558 13.6892C51.754 15.4987 52.6641 17.7632 53.3034 18.8576C54.4061 20.5184 54.9733 22.4772 54.9287 24.4702C54.9215 26.1277 54.3263 27.7288 53.2492 28.9885C54.4411 28.761 55.2754 28.5659 55.2754 28.5659L59.1544 27.8075C58.629 29.5244 57.6916 31.0867 56.4239 32.3583L56.4564 32.3258Z" fill="#DA4E31"/>
<path d="M20.0391 49.0987C20.6658 48.9954 21.3001 48.9447 21.9352 48.947C22.712 48.883 23.4846 49.1109 24.1023 49.5863C24.3227 49.7897 24.4968 50.0382 24.6127 50.3149C24.7286 50.5916 24.7837 50.89 24.7741 51.1899C24.7902 51.4878 24.7468 51.7859 24.6464 52.0669C24.5459 52.3478 24.3904 52.6059 24.1889 52.826C23.8759 53.1134 23.5086 53.3353 23.1085 53.4786C22.7084 53.6219 22.2837 53.6836 21.8594 53.6603C21.5942 53.6656 21.3292 53.6438 21.0684 53.5953V56.6508H20.0391V49.0987ZM21.0142 52.7826C21.2808 52.842 21.5539 52.8674 21.8269 52.8585C23.0187 52.8585 23.7447 52.2734 23.7447 51.2332C23.7447 50.193 23.0187 49.7271 21.9461 49.7271C21.6336 49.7172 21.321 49.7427 21.0142 49.803V52.7826ZM25.8467 52.8693V51.1574H26.7244V52.2409C26.8197 51.8979 27.0229 51.5947 27.3039 51.3761C27.5849 51.1576 27.9288 51.0353 28.2847 51.0273H28.5555V51.97C28.4439 51.9579 28.3313 51.9579 28.2196 51.97C27.881 51.982 27.5584 52.1176 27.3129 52.3511C27.0674 52.5847 26.9158 52.9001 26.8869 53.2377C26.875 53.3928 26.875 53.5486 26.8869 53.7036V56.6291H25.8467V52.8693ZM34.4066 53.8445C34.4385 54.2197 34.3913 54.5974 34.2678 54.9532C34.1444 55.309 33.9476 55.6349 33.6902 55.9097C33.4327 56.1845 33.1204 56.4021 32.7734 56.5485C32.4264 56.6948 32.0526 56.7666 31.6761 56.7592C31.3133 56.7633 30.9537 56.6918 30.6201 56.5492C30.2865 56.4067 29.9862 56.1961 29.7385 55.9311C29.4908 55.666 29.301 55.3523 29.1813 55.0098C29.0616 54.6673 29.0145 54.3037 29.0431 53.942C29.0094 53.5664 29.0555 53.188 29.1783 52.8314C29.301 52.4749 29.4978 52.1483 29.7556 51.8731C30.0134 51.598 30.3264 51.3803 30.6742 51.2346C31.022 51.0888 31.3966 51.0182 31.7736 51.0273C32.1372 51.0184 32.4987 51.0863 32.8343 51.2263C33.17 51.3664 33.4724 51.5757 33.7218 51.8404C33.9712 52.1052 34.1621 52.4195 34.2819 52.763C34.4018 53.1064 34.4479 53.4712 34.4174 53.8337L34.4066 53.8445ZM30.0725 53.8987C30.0725 55.1014 30.7443 56.0115 31.7303 56.0115C32.7163 56.0115 33.3989 55.1122 33.3989 53.8445C33.3989 52.9127 32.933 51.7425 31.7519 51.7425C30.5709 51.7425 30.0725 52.826 30.0725 53.9095V53.8987ZM35.6743 52.631V51.1465H36.5519V52.0458C36.7178 51.7326 36.9682 51.4722 37.2746 51.2941C37.5811 51.116 37.9313 51.0273 38.2856 51.0382C38.6231 51.0353 38.9531 51.1382 39.2291 51.3326C39.505 51.5269 39.7132 51.8029 39.8242 52.1217C39.978 51.8397 40.1927 51.5954 40.4526 51.4066C40.8103 51.1292 41.2581 50.9941 41.7095 51.0273C42.4463 51.0273 43.519 51.5041 43.519 53.4111V56.6617H42.5438V53.5519C42.5438 52.4684 42.1429 51.8617 41.3519 51.8617C41.0854 51.8725 40.8284 51.9644 40.6155 52.1251C40.4025 52.2858 40.2436 52.5076 40.1601 52.761C40.1103 52.9225 40.0848 53.0904 40.0842 53.2594V56.6508H39.109V53.4003C39.109 52.5226 38.719 51.905 37.9605 51.905C37.6769 51.9232 37.4059 52.0289 37.1847 52.2074C36.9635 52.3859 36.803 52.6285 36.7253 52.9018C36.6699 53.0582 36.6442 53.2236 36.6494 53.3894V56.64H35.6743V52.6526V52.631ZM45.686 54.072C45.6632 54.3263 45.6961 54.5825 45.7824 54.8228C45.8688 55.0631 46.0065 55.2816 46.186 55.4632C46.3655 55.6447 46.5825 55.7849 46.8217 55.874C47.061 55.9631 47.3168 55.999 47.5713 55.979C48.0915 55.9977 48.6095 55.9015 49.0883 55.6973L49.2941 56.4449C48.715 56.6881 48.091 56.8062 47.463 56.7917C47.0965 56.8133 46.7297 56.7557 46.3874 56.6229C46.0451 56.49 45.7355 56.2851 45.4795 56.0219C45.2235 55.7587 45.0272 55.4435 44.9039 55.0977C44.7807 54.7519 44.7333 54.3836 44.765 54.0179C44.7181 53.652 44.7479 53.2803 44.8527 52.9266C44.9574 52.5729 45.1347 52.2448 45.3732 51.9635C45.6118 51.6821 45.9064 51.4535 46.2382 51.2923C46.57 51.1312 46.9318 51.0409 47.3005 51.0273C47.6231 51.0313 47.9412 51.1029 48.2345 51.2375C48.5277 51.3721 48.7894 51.5666 49.0028 51.8086C49.2162 52.0506 49.3765 52.3346 49.4733 52.6423C49.5702 52.9501 49.6014 53.2747 49.565 53.5953C49.5794 53.7503 49.5794 53.9062 49.565 54.0612L45.686 54.072ZM48.6115 53.3569C48.6392 53.1575 48.6242 52.9546 48.5674 52.7614C48.5106 52.5683 48.4134 52.3895 48.2823 52.2368C48.1511 52.0841 47.989 51.9611 47.8066 51.8759C47.6243 51.7906 47.4259 51.7452 47.2246 51.7425C46.8135 51.7697 46.4277 51.9511 46.1445 52.2504C45.8613 52.5497 45.7014 52.9449 45.6969 53.3569H48.6115ZM52.0029 49.8355V51.1465H53.4332V51.905H52.0029V54.863C52.0029 55.5348 52.198 55.9465 52.7506 55.9465C52.944 55.9506 53.1372 55.9287 53.3248 55.8815V56.64C53.0377 56.7325 52.738 56.78 52.4364 56.7808C52.2362 56.7902 52.0364 56.7575 51.8497 56.6847C51.663 56.6119 51.4938 56.5007 51.3528 56.3583C51.0562 55.9393 50.918 55.4286 50.9628 54.9172V51.9158H50.1176V51.1574H50.9736V50.1389L52.0029 49.8355ZM54.5492 48.5786H55.5461V52.0133C55.7144 51.714 55.9618 51.4666 56.2612 51.2982C56.5808 51.115 56.9439 51.0215 57.3122 51.0273C58.049 51.0273 59.23 51.4824 59.23 53.3569V56.6075H58.2332V53.4653C58.2332 52.5768 57.9081 51.84 56.9655 51.84C56.6706 51.8479 56.3851 51.9454 56.147 52.1196C55.9089 52.2938 55.7295 52.5365 55.6327 52.8152C55.5813 52.9686 55.5593 53.1303 55.5677 53.2919V56.5425H54.5709V48.5894L54.5492 48.5786ZM61.3971 54.0612C61.3742 54.3155 61.4071 54.5717 61.4935 54.812C61.5799 55.0522 61.7176 55.2708 61.8971 55.4523C62.0766 55.6339 62.2935 55.7741 62.5328 55.8632C62.7721 55.9523 63.0279 55.9881 63.2824 55.9682C63.8026 55.9869 64.3205 55.8907 64.7993 55.6865L64.9835 56.4016C64.4043 56.6447 63.7804 56.7629 63.1524 56.7483C62.7868 56.7683 62.4211 56.7095 62.0802 56.576C61.7393 56.4425 61.431 56.2372 61.1762 55.9743C60.9214 55.7113 60.7261 55.3966 60.6035 55.0516C60.4808 54.7066 60.4337 54.3393 60.4653 53.9745C60.4247 53.6102 60.46 53.2415 60.569 52.8915C60.678 52.5415 60.8582 52.2179 61.0985 51.941C61.3387 51.6641 61.6337 51.44 61.9648 51.2828C62.2959 51.1255 62.656 51.0386 63.0224 51.0273C63.345 51.0313 63.6631 51.1029 63.9564 51.2375C64.2496 51.3721 64.5113 51.5666 64.7247 51.8086C64.9381 52.0506 65.0984 52.3346 65.1952 52.6423C65.2921 52.9501 65.3233 53.2747 65.2869 53.5953C65.3019 53.7502 65.3019 53.9063 65.2869 54.0612H61.3971ZM64.3226 53.3461C64.3503 53.1467 64.3352 52.9437 64.2784 52.7506C64.2217 52.5575 64.1245 52.3787 63.9933 52.226C63.8622 52.0733 63.7 51.9503 63.5177 51.865C63.3353 51.7798 63.1369 51.7343 62.9357 51.7316C62.5245 51.7589 62.1388 51.9403 61.8556 52.2396C61.5723 52.5389 61.4125 52.934 61.4079 53.3461H64.3226ZM71.1054 55.123V56.6291H70.2169L70.1628 55.7298C69.9793 56.0455 69.7148 56.3063 69.3967 56.4854C69.0785 56.6645 68.7183 56.7553 68.3533 56.7483C67.4865 56.7483 66.4571 56.2607 66.4571 54.3429V51.0924H67.454V54.1154C67.454 55.1989 67.779 55.8707 68.6783 55.8707C68.9635 55.8641 69.2403 55.7731 69.4737 55.6092C69.7071 55.4452 69.8865 55.2157 69.9894 54.9497C70.0504 54.787 70.0799 54.6142 70.0761 54.4404V51.0815H71.0729L71.1054 55.123ZM72.6224 55.6215C73.0239 55.8589 73.4781 55.993 73.9443 56.0115C74.6594 56.0115 75.0278 55.6648 75.0278 55.1989C75.0278 54.733 74.7461 54.4729 74.0201 54.2021C73.0233 53.8445 72.5465 53.3027 72.5465 52.6526C72.5556 52.4203 72.6123 52.1923 72.713 51.9828C72.8137 51.7732 72.9563 51.5865 73.1319 51.4342C73.3076 51.2819 73.5126 51.1672 73.7343 51.0972C73.956 51.0273 74.1897 51.0035 74.421 51.0273C74.8877 51.0145 75.3489 51.1307 75.7537 51.3632L75.5154 52.1109C75.1893 51.9085 74.8154 51.7963 74.4318 51.7858C73.8467 51.7858 73.5217 52.1217 73.5217 52.5334C73.5217 52.9452 73.8359 53.1944 74.6052 53.4761C75.5479 53.8228 76.0463 54.2996 76.0463 55.123C76.0463 55.9465 75.2878 56.7808 74.0093 56.7808C73.4713 56.7861 72.9412 56.6517 72.4707 56.3908L72.6224 55.6215Z" fill="#E6522C"/>
</g>
</g>
<defs>
<clipPath id="clip0_6744_64667">
<rect width="72" height="48" fill="white" transform="translate(12 8.77)"/>
</clipPath>
<clipPath id="clip1_6744_64667">
<rect width="55.9205" height="48" fill="white" transform="translate(20.0391 8.77)"/>
</clipPath>
</defs>
</svg>
