<svg width="96" height="65" viewBox="0 0 96 65" fill="none" xmlns="http://www.w3.org/2000/svg">
<rect width="96" height="64" transform="translate(0 0.770004)" fill="white"/>
<g clip-path="url(#clip0_6744_64674)">
<path d="M59.8568 18.9742V14.35C59.8602 14.1089 59.8157 13.8697 59.7258 13.646C59.6359 13.4224 59.5025 13.2188 59.3333 13.0472C59.164 12.8755 58.9624 12.7393 58.74 12.6463C58.5176 12.5532 58.279 12.5054 58.038 12.5054H38.3951C37.9127 12.5054 37.45 12.697 37.1089 13.0381C36.7678 13.3792 36.5762 13.8419 36.5762 14.3243V18.9485L59.8568 18.9742Z" fill="#F04E98"/>
<path d="M36.5762 27.1643H59.8568V21.1271H36.5762V27.1643Z" fill="#00BFB3"/>
<path d="M49.3086 29.3223V35.7861H58.0433C58.5257 35.7861 58.9884 35.5944 59.3295 35.2533C59.6706 34.9122 59.8622 34.4496 59.8622 33.9672V29.3429L49.3086 29.3223Z" fill="#FEC514"/>
<path d="M47.1247 29.3223H36.5762V33.9466C36.5762 34.429 36.7678 34.8917 37.1089 35.2328C37.45 35.5739 37.9127 35.7655 38.3951 35.7655H47.1298L47.1247 29.3223Z" fill="#0077CC"/>
<path d="M32.1718 49.0577C31.5141 48.9241 30.954 48.806 30.954 48.3024C30.954 47.953 31.2418 47.6807 31.7453 47.6807C31.9598 47.6617 32.1741 47.7194 32.3501 47.8436C32.526 47.9678 32.6522 48.1504 32.7061 48.359L34.2475 48.0353C33.9906 47.0847 33.0041 46.4476 31.7299 46.4476C30.3169 46.4476 29.3561 47.2389 29.3561 48.4206C29.3561 49.9004 30.507 50.1367 31.4524 50.3268C32.1101 50.4604 32.665 50.5735 32.665 51.0667C32.665 51.56 32.3413 51.822 31.7813 51.822C31.5215 51.8464 31.2612 51.7826 31.0421 51.6409C30.8231 51.4992 30.6581 51.2879 30.5738 51.041L29.0684 51.3288C29.4075 52.418 30.3786 53.0449 31.7145 53.0449C33.2559 53.0449 34.2578 52.2279 34.2578 50.9897C34.2578 49.4996 33.112 49.253 32.1718 49.0577Z" fill="#343741"/>
<path d="M38.3333 51.6165C37.7219 51.6165 37.4136 51.3544 37.4136 50.5272V48.0301H39.0064V46.6428H37.4136V44.6801L35.7797 45.0038V46.6428H34.7109V48.0352H35.7745V50.7841C35.7745 52.4232 36.7097 52.9678 38.0045 52.9678C38.3664 52.9768 38.7269 52.9193 39.068 52.7982L38.8985 51.4983C38.7209 51.5784 38.528 51.6188 38.3333 51.6165Z" fill="#343741"/>
<path d="M41.5851 46.6428H39.9512V52.8394H41.5851V46.6428Z" fill="#343741"/>
<path d="M12 52.8394H18.1092V51.2671H13.711V49.0577H17.0302V47.4855H13.711V45.3121H18.1092V43.7449H12V52.8394Z" fill="#343741"/>
<path d="M41.5851 43.7449H39.9512V45.3172H41.5851V43.7449Z" fill="#343741"/>
<path d="M21.2238 43.7449H19.5898V52.8394H21.2238V43.7449Z" fill="#343741"/>
<path d="M81.2913 49.4328L83.7781 46.6428H81.8462L79.6573 49.2273V43.7449H78.0234V52.8394H79.6573V49.9415L81.913 52.8394H83.999L81.2913 49.4328Z" fill="#343741"/>
<path d="M74.1704 47.8863C74.4686 47.8662 74.7645 47.9499 75.008 48.1231C75.2515 48.2964 75.4275 48.5485 75.5063 48.8368L77.0888 48.6159C76.7395 47.1977 75.7272 46.4476 74.1293 46.4476C72.4029 46.4476 71.0156 47.7064 71.0156 49.736C71.0156 51.673 72.3001 53.0346 74.2167 53.0346C74.8386 53.0729 75.4548 52.8955 75.9612 52.5323C76.4676 52.1692 76.8332 51.6424 76.9964 51.041L75.4549 50.6505C75.3806 50.9317 75.2131 51.1794 74.9798 51.353C74.7464 51.5266 74.4611 51.6159 74.1704 51.6062C73.1993 51.6062 72.629 50.8252 72.629 49.7462C72.629 48.6672 73.1839 47.8863 74.1704 47.8863Z" fill="#343741"/>
<path d="M67.4086 46.4476C65.9957 46.4476 64.9835 47.095 64.6187 48.2254L66.2526 48.3538C66.3428 48.1606 66.4891 47.999 66.6723 47.89C66.8556 47.781 67.0673 47.7296 67.2802 47.7424C67.4208 47.7326 67.5618 47.7538 67.6933 47.8043C67.8249 47.8548 67.9438 47.9335 68.0417 48.0348C68.1396 48.1362 68.2142 48.2577 68.2601 48.3909C68.3061 48.5242 68.3224 48.6658 68.3078 48.806V49.2633C67.9057 49.0976 67.4735 49.0171 67.0387 49.0269C65.3894 49.0269 64.3926 49.7925 64.3926 51.0821C64.3926 52.2125 65.2866 53.0192 66.5609 53.0192C66.8982 53.0337 67.2343 52.9698 67.5427 52.8325C67.8512 52.6952 68.1236 52.4883 68.3386 52.2279H68.39V52.8394H69.9314V48.9139C69.9777 47.3313 69.0323 46.4476 67.4086 46.4476ZM68.3849 50.8407C68.3849 51.3236 67.7734 51.7501 67.0747 51.7501C66.453 51.7501 66.0881 51.4367 66.0881 50.9588C66.0881 50.481 66.5146 50.1676 67.2699 50.1676C67.6604 50.1455 68.0485 50.2403 68.3849 50.4399V50.8407Z" fill="#343741"/>
<path d="M56.0531 47.4444C55.0974 47.1977 54.2599 46.9768 54.2599 46.1342C54.2599 45.4457 54.7737 45.0552 55.5701 45.0552C55.9368 45.0319 56.2989 45.1474 56.5844 45.3787C56.87 45.61 57.0581 45.9402 57.1115 46.3037L58.7711 46.0057C58.5245 44.5362 57.3325 43.5497 55.6061 43.5497C53.7923 43.5497 52.5232 44.6647 52.5232 46.278C52.5232 48.2665 53.9927 48.657 55.267 48.9961C56.2329 49.253 57.0807 49.4791 57.0807 50.3474C57.0704 51.041 56.4898 51.5548 55.5958 51.5548C55.2042 51.5878 54.8134 51.4825 54.4914 51.2572C54.1694 51.0319 53.9366 50.7009 53.8334 50.3217L52.1738 50.6711C52.4461 52.1509 53.8591 53.05 55.5341 53.05C57.5072 53.05 58.8174 51.894 58.8174 50.1676C58.8122 48.1586 57.3273 47.7732 56.0531 47.4444Z" fill="#343741"/>
<path d="M45.8657 47.8863C46.1641 47.8652 46.4605 47.9485 46.7042 48.1219C46.9479 48.2953 47.1237 48.548 47.2016 48.8368L48.7842 48.6159C48.4348 47.1977 47.4226 46.4476 45.8246 46.4476C44.0982 46.4476 42.7109 47.7064 42.7109 49.736C42.7109 51.673 43.9955 53.0346 45.9171 53.0346C46.5408 53.0754 47.1593 52.8991 47.6679 52.5357C48.1764 52.1724 48.5436 51.6443 48.7071 51.041L47.1657 50.6505C47.0914 50.9372 46.9205 51.1893 46.6818 51.3644C46.443 51.5395 46.1511 51.6267 45.8554 51.6114C44.8843 51.6114 44.314 50.8304 44.314 49.7514C44.314 48.6724 44.8843 47.8863 45.8657 47.8863Z" fill="#343741"/>
<path d="M63.0254 51.6165C62.414 51.6165 62.1057 51.3544 62.1057 50.5272V48.0301H63.6985V46.6428H62.1057V44.6801L60.4718 45.0038V46.6428H59.4082V48.0352H60.4718V50.7841C60.4718 52.4232 61.4069 52.9678 62.7017 52.9678C63.0636 52.9769 63.4242 52.9195 63.7653 52.7982L63.5957 51.4983C63.4166 51.579 63.2219 51.6194 63.0254 51.6165Z" fill="#343741"/>
<path d="M25.477 46.4476C24.064 46.4476 23.0518 47.095 22.687 48.2254L24.3209 48.3538C24.4112 48.1606 24.5574 47.999 24.7407 47.89C24.9239 47.781 25.1357 47.7296 25.3485 47.7424C25.4891 47.7326 25.6301 47.7538 25.7617 47.8043C25.8932 47.8548 26.0121 47.9335 26.1101 48.0348C26.208 48.1362 26.2825 48.2577 26.3285 48.3909C26.3745 48.5242 26.3907 48.6658 26.3762 48.806V49.2633C25.974 49.0976 25.5419 49.0171 25.1071 49.0269C23.4577 49.0269 22.4609 49.7925 22.4609 51.0821C22.4609 52.2125 23.355 53.0192 24.6292 53.0192C24.9666 53.0341 25.3028 52.9704 25.6114 52.8331C25.9199 52.6958 26.1923 52.4886 26.407 52.2279H26.4584V52.8394H27.9998V48.9139C28.046 47.3313 27.1212 46.4476 25.477 46.4476ZM26.4532 50.8407C26.4532 51.3236 25.8418 51.7501 25.143 51.7501C24.5213 51.7501 24.1565 51.4367 24.1565 50.9588C24.1565 50.481 24.583 50.1676 25.3383 50.1676C25.7287 50.1455 26.1169 50.2403 26.4532 50.4399V50.8407Z" fill="#343741"/>
</g>
<defs>
<clipPath id="clip0_6744_64674">
<rect width="72" height="40.5292" fill="white" transform="translate(12 12.5054)"/>
</clipPath>
</defs>
</svg>
