<svg width="96" height="65" viewBox="0 0 96 65" fill="none" xmlns="http://www.w3.org/2000/svg">
<rect width="96" height="64" transform="translate(0 0.770004)" fill="white"/>
<g clip-path="url(#clip0_6744_64696)">
<g clip-path="url(#clip1_6744_64696)">
<path d="M33.9733 52.1216C33.8744 54.726 31.7974 56.77 29.226 56.77C26.5227 56.77 24.5117 54.5942 24.5117 51.9238C24.5117 49.2535 26.6875 47.0777 29.3579 47.0777C30.5447 47.0777 31.7315 47.6052 32.7205 48.5282L31.9623 49.4843C31.204 48.8249 30.2809 48.3634 29.3579 48.3634C27.4128 48.3634 25.7974 49.9458 25.7974 51.9238C25.7974 53.9348 27.3139 55.4843 29.226 55.4843C30.9403 55.4843 32.2919 54.2315 32.5886 52.5832H28.6656V51.4293H33.9733V52.1216Z" fill="#565656"/>
<path d="M38.4576 51.4623H37.7324C36.9411 51.4623 36.2818 52.1216 36.2818 52.9128V56.6711H34.9961V50.2095H36.051V50.737C36.4137 50.3744 36.9411 50.2095 37.5675 50.2095H38.9521L38.4576 51.4623Z" fill="#565656"/>
<path d="M45.5108 56.6711H44.3899V55.8469C43.5328 56.6711 42.2141 57.0667 40.8624 56.4733C39.8734 56.0447 39.1152 55.1216 38.9174 54.0337C38.5218 51.9568 40.1372 50.1106 42.1811 50.1106C43.0383 50.1106 43.8295 50.4733 44.3899 51.0337V50.2095H45.5108V56.6711ZM44.1921 53.9348C44.4888 52.6161 43.4998 51.4293 42.2141 51.4293C41.0932 51.4293 40.2031 52.3524 40.2031 53.4403C40.2031 54.6931 41.291 55.6491 42.5767 55.4513C43.335 55.3194 43.9943 54.6931 44.1921 53.9348Z" fill="#565656"/>
<path d="M48.0828 49.8799V50.2425H50.1268V51.3634H48.0828V56.6711H46.8301V49.9129C46.8301 48.4953 47.8521 47.6711 49.1378 47.6711H50.6872L50.1598 48.8909H49.1378C48.5444 48.8579 48.0828 49.3194 48.0828 49.8799Z" fill="#565656"/>
<path d="M56.9837 56.6711H55.8958V55.8469C55.0386 56.6711 53.72 57.0667 52.3683 56.4733C51.3793 56.0447 50.6211 55.1216 50.4232 54.0337C50.0276 51.9568 51.643 50.1106 53.687 50.1106C54.5441 50.1106 55.3353 50.4733 55.8958 51.0337V50.2095H57.0167V56.6711H56.9837ZM55.665 53.9348C55.9617 52.6161 54.9727 51.4293 53.687 51.4293C52.5661 51.4293 51.676 52.3524 51.676 53.4403C51.676 54.6931 52.7639 55.6491 54.0496 55.4513C54.8408 55.3194 55.4672 54.6931 55.665 53.9348Z" fill="#565656"/>
<path d="M63.8749 52.8799V56.6711H62.5892V52.8469C62.5892 52.0557 61.9298 51.3964 61.1386 51.3964C60.3144 51.3964 59.6881 52.0557 59.6881 52.8469V56.6711H58.4023V50.2095H59.4573V50.77C59.9188 50.3414 60.5452 50.1106 61.1716 50.1106C62.6881 50.1436 63.8749 51.3634 63.8749 52.8799Z" fill="#565656"/>
<path d="M71.4563 56.6711H70.3684V55.8469C69.5113 56.6711 68.1926 57.0667 66.841 56.4733C65.8519 56.0447 65.0937 55.1216 64.8959 54.0337C64.5003 51.9568 66.1157 50.1106 68.1596 50.1106C69.0168 50.1106 69.808 50.4733 70.3684 51.0337V50.2095H71.4893V56.6711H71.4563ZM70.1377 53.9348C70.4344 52.6161 69.4454 51.4293 68.1596 51.4293C67.0388 51.4293 66.1487 52.3524 66.1487 53.4403C66.1487 54.6931 67.2366 55.6491 68.5223 55.4513C69.3135 55.3194 69.9399 54.6931 70.1377 53.9348Z" fill="#565656"/>
<path d="M65.0271 25.2206C64.9612 24.5942 64.8623 23.8689 64.6645 23.0777C64.4667 22.2865 64.137 21.4293 63.7084 20.5063C63.2469 19.6162 62.6865 18.6601 61.9282 17.77C61.6315 17.4074 61.3019 17.0777 60.9722 16.7151C61.4997 14.6381 60.3458 12.8249 60.3458 12.8249C58.3348 12.6931 57.0821 13.4513 56.6205 13.781C56.5546 13.748 56.4557 13.7151 56.3898 13.6821C56.0601 13.5502 55.6975 13.4184 55.3348 13.2865C54.9722 13.1876 54.6095 13.0557 54.2469 12.9898C53.8843 12.8909 53.4887 12.8249 53.0931 12.759C53.0271 12.759 52.9612 12.726 52.8953 12.726C52.0381 9.95682 49.5326 8.77 49.5326 8.77C46.6645 10.6162 46.1041 13.0887 46.1041 13.0887C46.1041 13.0887 46.1041 13.1546 46.0711 13.2206C45.9062 13.2535 45.7744 13.3195 45.6095 13.3524C45.4117 13.4184 45.181 13.4843 44.9832 13.5832C44.7854 13.6821 44.5546 13.748 44.3568 13.8469C43.9282 14.0447 43.5326 14.2425 43.1041 14.4733C42.7084 14.7041 42.3128 14.9348 41.9502 15.1986C41.8843 15.1656 41.8513 15.1326 41.8513 15.1326C37.9942 13.6491 34.5656 15.4293 34.5656 15.4293C34.2689 19.5502 36.115 22.1217 36.4777 22.5832C36.3788 22.8469 36.3128 23.0777 36.2139 23.3414C35.9172 24.2645 35.7194 25.2206 35.5876 26.2096C35.5546 26.3414 35.5546 26.5063 35.5216 26.6381C31.9612 28.3854 30.9062 32.0118 30.9062 32.0118C33.8733 35.4403 37.3678 35.6381 37.3678 35.6381C37.7964 36.4293 38.3238 37.1876 38.8843 37.8799C39.115 38.1766 39.3788 38.4403 39.6425 38.737C38.5546 41.8359 39.8073 44.4403 39.8073 44.4403C43.137 44.5722 45.3128 42.9898 45.7744 42.6271C46.1041 42.726 46.4337 42.8249 46.7634 42.9238C47.7854 43.1876 48.8403 43.3524 49.8623 43.3854C50.126 43.3854 50.3898 43.3854 50.6535 43.3854H50.7854H50.8843H51.0491H51.2139C52.7634 45.6271 55.5326 45.9238 55.5326 45.9238C57.4777 43.8469 57.6095 41.8359 57.6095 41.3744C57.6095 41.3744 57.6095 41.3744 57.6095 41.3414C57.6095 41.3085 57.6095 41.2755 57.6095 41.2755C57.6095 41.2425 57.6095 41.2096 57.6095 41.1766C58.0051 40.8799 58.4008 40.5832 58.7964 40.2535C59.5876 39.5612 60.2469 38.737 60.8403 37.8799C60.9062 37.814 60.9392 37.7151 61.0051 37.6491C63.2139 37.781 64.7634 36.2645 64.7634 36.2645C64.4008 33.9568 63.0821 32.8359 62.8183 32.6381C62.8183 32.6381 62.8183 32.6381 62.7854 32.6052L62.7524 32.5722L62.7194 32.5392C62.7194 32.4074 62.7524 32.2755 62.7524 32.1107C62.7854 31.8469 62.7854 31.6162 62.7854 31.3524V31.1546V31.0557V31.0228C62.7854 30.9568 62.7854 30.9898 62.7854 30.9568V30.792V30.5942C62.7854 30.5282 62.7854 30.4623 62.7854 30.3964C62.7854 30.3304 62.7854 30.2645 62.7524 30.1986L62.7194 30.0008L62.6865 29.803C62.6535 29.5392 62.5876 29.3085 62.5546 29.0447C62.3238 28.0557 61.9282 27.0997 61.4337 26.2755C60.9062 25.4184 60.2799 24.6931 59.5546 24.0337C58.8293 23.4074 58.0381 22.8799 57.181 22.5173C56.3238 22.1217 55.4667 21.8909 54.5766 21.792C54.148 21.726 53.6865 21.726 53.2579 21.726H53.0931H53.0601H52.9942H52.9282H52.7634C52.6975 21.726 52.6315 21.726 52.5986 21.726C52.3678 21.759 52.137 21.792 51.9392 21.8249C51.0491 21.9898 50.2249 22.3195 49.4997 22.748C48.7744 23.1766 48.148 23.737 47.6205 24.3634C47.0931 24.9898 46.6975 25.6491 46.4337 26.3744C46.17 27.0667 46.0051 27.8249 45.9722 28.5173C45.9722 28.6821 45.9722 28.8799 45.9722 29.0447C45.9722 29.0777 45.9722 29.1436 45.9722 29.1766V29.3085C45.9722 29.4074 45.9722 29.4733 46.0051 29.5722C46.0381 29.9348 46.1041 30.2645 46.203 30.5942C46.4008 31.2535 46.6975 31.8469 47.0931 32.3744C47.4887 32.9019 47.9172 33.2975 48.4117 33.6271C48.9062 33.9568 49.4008 34.1876 49.9282 34.3524C50.4557 34.5173 50.9502 34.5832 51.4117 34.5502C51.4777 34.5502 51.5436 34.5502 51.5766 34.5502C51.6095 34.5502 51.6425 34.5502 51.6755 34.5502C51.7084 34.5502 51.7414 34.5502 51.7744 34.5502C51.8403 34.5502 51.8733 34.5502 51.9392 34.5502H51.9722H52.0051C52.0381 34.5502 52.0711 34.5502 52.104 34.5502C52.17 34.5502 52.2359 34.5173 52.2689 34.5173C52.3348 34.5173 52.3678 34.4843 52.4337 34.4843C52.5326 34.4513 52.6645 34.4184 52.7634 34.3854C52.9612 34.3195 53.159 34.2206 53.3568 34.1546C53.5546 34.0557 53.7194 33.9568 53.8513 33.8579C53.8843 33.8249 53.9502 33.792 53.9832 33.759C54.148 33.6271 54.181 33.3964 54.0491 33.2315C53.9172 33.0997 53.7194 33.0667 53.5546 33.1326C53.5216 33.1656 53.4887 33.1656 53.4227 33.1986C53.2909 33.2645 53.126 33.3304 52.9942 33.3634C52.8293 33.3964 52.6645 33.4623 52.4997 33.4953C52.4008 33.4953 52.3348 33.5282 52.2359 33.5282C52.203 33.5282 52.137 33.5282 52.104 33.5282C52.0711 33.5282 52.0052 33.5282 51.9722 33.5282C51.9392 33.5282 51.8733 33.5282 51.8403 33.5282C51.7744 33.5282 51.7414 33.5282 51.6755 33.5282H51.6425H51.6095C51.5766 33.5282 51.5766 33.5282 51.5436 33.5282C51.5106 33.5282 51.4447 33.5282 51.4117 33.4953C51.0491 33.4293 50.6535 33.3304 50.2909 33.1656C49.9282 33.0008 49.5656 32.77 49.2689 32.4733C48.9392 32.1766 48.6755 31.8469 48.4447 31.4513C48.2139 31.0557 48.0821 30.6271 48.0161 30.1986C47.9832 29.9678 47.9502 29.737 47.9832 29.5063C47.9832 29.4403 47.9832 29.3744 47.9832 29.3085V29.2755V29.2425C47.9832 29.2096 47.9832 29.1766 47.9832 29.1436C47.9832 29.0118 48.0161 28.9129 48.0491 28.781C48.2139 27.792 48.7084 26.8359 49.4667 26.1107C49.6645 25.9129 49.8623 25.748 50.0931 25.6162C50.3238 25.4513 50.5546 25.3195 50.7854 25.2206C51.0161 25.1217 51.2799 25.0228 51.5436 24.9568C51.8073 24.8909 52.0711 24.8249 52.3348 24.8249C52.4667 24.8249 52.5986 24.792 52.7304 24.792C52.7634 24.792 52.7964 24.792 52.8293 24.792H52.9282H52.9942H53.0271H53.126C53.4227 24.8249 53.7194 24.8579 53.9832 24.9238C54.5436 25.0557 55.1041 25.2535 55.6315 25.5502C56.6865 26.1436 57.5766 27.0337 58.1041 28.1217C58.3678 28.6491 58.5656 29.2425 58.6645 29.8689C58.6975 30.0337 58.6975 30.1656 58.7304 30.3304V30.4293V30.5282C58.7304 30.5612 58.7304 30.5942 58.7304 30.6271C58.7304 30.6601 58.7304 30.6931 58.7304 30.726V30.8249V30.9238C58.7304 30.9898 58.7304 31.1217 58.7304 31.1876C58.7304 31.3524 58.6975 31.5173 58.6975 31.6821C58.6645 31.8469 58.6645 32.0118 58.6315 32.1766C58.5986 32.3414 58.5656 32.5063 58.5326 32.6711C58.4667 33.0008 58.3348 33.2975 58.2359 33.6271C58.0051 34.2535 57.6755 34.8469 57.2799 35.3744C56.4887 36.4623 55.4008 37.3524 54.181 37.9129C53.5546 38.1766 52.9282 38.4074 52.2689 38.5063C51.9392 38.5722 51.6095 38.6052 51.2799 38.6052H51.2139H51.148H51.0491H50.8843H50.7854H50.7524C50.5876 38.6052 50.3898 38.6052 50.2249 38.5722C49.4997 38.5063 48.8073 38.3744 48.115 38.1766C47.4227 37.9788 46.7634 37.7151 46.137 37.3854C44.8843 36.726 43.7634 35.77 42.8733 34.6821C42.4447 34.1217 42.0491 33.5282 41.7194 32.9019C41.3898 32.2755 41.159 31.6162 40.9612 30.9568C40.7634 30.2975 40.6645 29.6052 40.6315 28.9129V28.781V28.748V28.7151V28.6491V28.5502V28.5173V28.4843V28.4184V28.2535V28.2206V28.1546C40.6315 28.0557 40.6315 27.9898 40.6315 27.8909C40.6315 27.5612 40.6645 27.1986 40.7304 26.8359C40.7634 26.4733 40.8293 26.1436 40.8953 25.781C40.9612 25.4184 41.0601 25.0887 41.159 24.726C41.3568 24.0337 41.5876 23.3744 41.8843 22.748C42.4777 21.4953 43.2359 20.3744 44.126 19.4843C44.3568 19.2535 44.5876 19.0557 44.8513 18.8579C44.9502 18.759 45.181 18.5612 45.4447 18.3964C45.7084 18.2315 45.9722 18.0667 46.2689 17.9348C46.4008 17.8689 46.5326 17.803 46.6975 17.737C46.7634 17.7041 46.8293 17.6711 46.9282 17.6381C46.9942 17.6052 47.0601 17.5722 47.159 17.5392C47.4557 17.4074 47.7524 17.3085 48.0491 17.2096C48.115 17.1766 48.2139 17.1766 48.2799 17.1436C48.3458 17.1107 48.4447 17.1107 48.5106 17.0777C48.6755 17.0447 48.8073 17.0118 48.9722 16.9458C49.0381 16.9129 49.137 16.9129 49.203 16.8799C49.2689 16.8799 49.3678 16.8469 49.4337 16.8469C49.4997 16.8469 49.5986 16.814 49.6645 16.814L49.7964 16.781L49.9282 16.748C49.9942 16.748 50.0931 16.7151 50.159 16.7151C50.2579 16.7151 50.3238 16.6821 50.4227 16.6821C50.4887 16.6821 50.6205 16.6491 50.6865 16.6491C50.7524 16.6491 50.7854 16.6491 50.8513 16.6162H50.9502H51.0161H51.0821C51.181 16.6162 51.2469 16.6162 51.3458 16.5832H51.4777H51.5106H51.5766C51.6425 16.5832 51.7414 16.5832 51.8073 16.5832C52.1041 16.5832 52.4008 16.5832 52.6975 16.5832C53.2909 16.6162 53.8843 16.6821 54.4447 16.781C55.5656 16.9788 56.6535 17.3414 57.6095 17.8359C58.5656 18.2975 59.4557 18.8909 60.181 19.5173C60.2139 19.5502 60.2799 19.5832 60.3128 19.6491C60.3458 19.6821 60.4117 19.7151 60.4447 19.781C60.5436 19.8469 60.6095 19.9458 60.7084 20.0118C60.8073 20.0777 60.8733 20.1766 60.9722 20.2425C61.0381 20.3414 61.137 20.4074 61.203 20.5063C61.5326 20.8359 61.8293 21.1986 62.0931 21.5282C62.6205 22.2206 63.0491 22.9129 63.3788 23.5722C63.4117 23.6052 63.4117 23.6381 63.4447 23.7041C63.4777 23.737 63.4777 23.77 63.5106 23.8359C63.5436 23.9019 63.5766 24.0008 63.6425 24.0667C63.6755 24.1326 63.7084 24.2315 63.7414 24.2975C63.7744 24.3634 63.8073 24.4623 63.8403 24.5282C63.9722 24.8249 64.0711 25.1217 64.17 25.4184C64.3348 25.8799 64.4337 26.2755 64.5326 26.6052C64.5656 26.737 64.6975 26.8359 64.8293 26.8359C64.9942 26.8359 65.0931 26.7041 65.0931 26.5392C65.0601 26.1436 65.0601 25.7151 65.0271 25.2206Z" fill="url(#paint0_linear_6744_64696)"/>
</g>
</g>
<defs>
<linearGradient id="paint0_linear_6744_64696" x1="47.9997" y1="54.301" x2="47.9997" y2="20.3937" gradientUnits="userSpaceOnUse">
<stop stop-color="#FCEE1F"/>
<stop offset="1" stop-color="#F15B2A"/>
</linearGradient>
<clipPath id="clip0_6744_64696">
<rect width="72" height="48" fill="white" transform="translate(12 8.77)"/>
</clipPath>
<clipPath id="clip1_6744_64696">
<rect width="47.0588" height="48" fill="white" transform="translate(24.4707 8.77)"/>
</clipPath>
</defs>
</svg>
