<svg width="96" height="65" viewBox="0 0 96 65" fill="none" xmlns="http://www.w3.org/2000/svg">
<rect width="96" height="64" transform="translate(0 0.770004)" fill="white"/>
<g clip-path="url(#clip0_6744_64708)">
<g clip-path="url(#clip1_6744_64708)">
<path d="M34.5252 44.1101L37.1358 43.659C38.4124 45.0795 37.9133 45.6458 39.0075 46.4521C40.8215 47.7958 43.1059 47.2007 43.8737 46.0969C44.7855 44.8012 44.7279 43.563 44.44 42.3921L47.3962 41.8834L47.7609 44.9548L64.6056 41.8642L63.6074 29.5306L63.0315 29.6362L61.2366 9.85458L30.8203 13.0795L34.5252 44.1101Z" fill="white"/>
<path d="M47.9635 20.7292C48.2227 20.4797 46.6678 20.1437 45.4584 20.9884C44.5658 21.6026 44.537 22.9368 45.3912 23.6854C45.4614 23.7473 45.5351 23.8049 45.612 23.8582C45.8927 23.7257 46.1812 23.6103 46.4758 23.5127C46.9284 23.3602 47.3944 23.2509 47.8676 23.1863C48.0499 22.9848 48.2611 22.62 48.2035 21.9674C48.1267 21.0747 47.4644 21.2091 47.9635 20.7292ZM56.1507 25.557C56.0067 25.4707 55.3157 25.5091 54.8262 25.5666C53.9047 25.6818 52.9065 26.0082 52.6858 26.1809C52.2923 26.4977 52.465 27.0352 52.7626 27.2655C53.588 27.8894 54.3079 28.3117 55.0757 28.2061C55.546 28.1389 55.9587 27.3903 56.2467 26.7088C56.4482 26.2289 56.4482 25.7202 56.1507 25.557ZM52.9929 19.9998C52.9353 20.1245 52.8586 20.2013 52.9833 20.6044L52.9929 20.6236L53.0121 20.6716L53.0601 20.7964C53.2905 21.2667 53.5304 21.7082 53.9527 21.9386C54.0583 21.9194 54.1735 21.9098 54.2887 21.9002C54.6822 21.881 54.9221 21.9482 55.0853 22.0346C55.0998 21.9135 55.103 21.7914 55.0949 21.6698C55.0661 21.0747 55.2101 20.0573 54.0871 19.5295C53.6648 19.3279 53.0601 19.3951 52.8682 19.6446C52.901 19.6455 52.9335 19.652 52.9641 19.6638C53.2521 19.7598 53.0505 19.8654 52.9929 19.9998ZM64.597 28.1581L63.6276 28.3501L61.7656 8.77L29.9863 12.5133L33.9023 44.782L37.6168 44.2349C37.3193 43.803 36.8586 43.2847 36.0715 42.6128C34.9773 41.6914 35.3613 40.1173 36.0139 39.1287C36.8682 37.4491 41.2737 35.3279 41.0241 32.65C40.9377 31.6806 40.7842 30.4137 39.8915 29.5403C39.8756 29.7774 39.8853 30.0155 39.9203 30.2505C39.6742 29.9108 39.4891 29.5308 39.3733 29.1275C39.1909 28.878 39.0469 28.8012 38.855 28.4653C38.7714 28.7322 38.7325 29.0111 38.7398 29.2907C38.7398 29.2907 38.4422 28.5708 38.3942 27.9662C38.2215 28.2349 38.1735 28.7532 38.1735 28.7532C38.1735 28.7532 37.7896 27.6206 37.876 27.016C37.7032 26.4881 37.1753 25.4323 37.3193 23.0424C38.2887 23.7334 40.4194 23.5702 41.2545 22.3225C41.5328 21.9098 41.7152 20.7868 41.1201 18.5696C40.7362 17.1491 39.7764 15.028 39.402 14.2217L39.3541 14.2505C39.546 14.8936 39.9587 16.2565 40.1123 16.9092C40.5826 18.9056 40.7074 19.5966 40.4866 20.5181C40.2947 21.3147 39.8436 21.8426 38.7014 22.4281C37.5592 23.0136 36.0331 21.5834 35.9371 21.5067C34.8238 20.6044 33.9599 19.1359 33.864 18.4161C33.768 17.6386 34.3055 17.1683 34.5838 16.5253C34.3021 16.613 34.0264 16.7188 33.7584 16.842C34.119 16.4709 34.5073 16.1276 34.9197 15.815C35.1651 15.6553 35.3992 15.4789 35.6204 15.2871C35.2173 15.2775 34.8813 15.2871 34.8813 15.2871C35.329 15.0457 35.7905 14.831 36.2635 14.644C35.7452 14.6248 35.2557 14.644 35.2557 14.644C35.2557 14.644 36.7722 13.953 37.9623 13.4539C38.7878 13.1083 39.5844 13.2139 40.0355 13.8762C40.6306 14.74 41.2449 15.2199 42.5694 15.5079C43.3757 15.1431 43.6252 14.9608 44.6426 14.6728C45.5352 13.6746 46.2359 13.5403 46.2359 13.5403C46.012 13.7708 45.8588 14.0605 45.7944 14.3753C46.3031 13.9722 46.8598 13.6266 46.8598 13.6266C46.6983 13.8453 46.56 14.0801 46.447 14.3273L46.495 14.3945C46.9077 14.1495 47.3375 13.9345 47.7812 13.7514C47.7812 13.7514 47.5796 14.0106 47.3493 14.3369C47.7908 14.3369 48.7026 14.3561 49.0481 14.3945C51.1213 14.4425 51.5532 12.1485 52.3499 11.8606C53.3481 11.4959 53.7896 11.2847 55.4884 12.974C56.9473 14.4329 58.0799 17.034 57.5232 17.6098C57.0529 18.0897 56.1123 17.4179 55.0757 16.1125C54.4832 15.3682 54.0872 14.487 53.9239 13.5498C53.8179 13.0113 53.538 12.5223 53.1273 12.1581C53.1273 12.1581 53.492 12.9932 53.492 13.7322C53.492 14.1353 53.54 15.6422 54.1735 16.4869C54.1063 16.6116 54.0775 17.1011 54.0103 17.1875C53.2713 16.2757 51.678 15.6326 51.4188 15.4407C52.2923 16.1701 54.3079 17.8498 55.0853 19.4527C55.8148 20.9692 55.3828 22.3609 55.7572 22.7256C55.8628 22.8312 57.3313 24.6836 57.6096 25.6242C58.0991 27.2559 57.6384 28.9644 56.9953 30.0202L55.1909 30.3081C54.9542 30.2537 54.7253 30.1699 54.5094 30.0585C54.6438 29.8282 54.9029 29.2427 54.9029 29.1179L54.7974 28.9356C54.2407 29.7418 53.3001 30.5289 52.513 30.98C51.4956 31.5654 50.3151 31.4791 49.5472 31.2391C47.3685 30.5576 45.3145 29.0603 44.825 28.6764C44.825 28.6764 44.8058 28.9932 44.9017 29.0603C45.4488 29.6842 46.7062 30.8264 47.9251 31.6134L45.3337 31.9014L46.5622 41.5858C46.0247 41.6626 45.9383 41.701 45.3433 41.7874C44.8154 39.9062 43.8172 38.6776 42.723 37.9674C41.7536 37.3339 40.429 37.1995 39.1525 37.4491L39.0757 37.545C40.1317 37.4283 41.1951 37.6865 42.0799 38.2745C43.1357 38.956 43.9803 40.7028 44.2971 41.7586C44.7002 43.1023 44.9785 44.5421 43.8939 46.0681C43.1261 47.1527 40.8897 47.7478 39.0757 46.4521C39.5556 47.2391 40.2083 47.8918 41.0913 48.007C42.3966 48.1893 43.6348 47.959 44.489 47.0663C45.2185 46.3081 45.6024 44.7148 45.4968 43.0448L46.6486 42.872L47.0613 45.8762L66.1423 43.5438L64.597 28.1581ZM46.3319 32.602L48.7314 32.2661C49.0926 32.4248 49.4688 32.5469 49.8544 32.6308C50.5838 32.8228 51.4188 33.0052 52.6666 32.3717C52.9545 32.2277 53.5592 31.671 53.7992 31.3447L63.6372 29.5307L64.6354 41.8642L47.7908 44.9452L46.3319 32.602ZM60.2875 36.7004L57.0625 34.5409L54.3751 39.0999L51.2461 38.1689L48.4914 42.4401L48.6354 43.7838L63.5988 40.9812L62.735 31.4791L60.2875 36.7004Z" fill="#75459B"/>
<path d="M70.566 53.7946V55.4839C70.3001 55.558 70.0262 55.5999 69.7502 55.6086C68.1281 55.6086 67.3219 54.7448 67.3219 53.0076C67.3219 51.4047 68.1761 50.608 69.8942 50.608C70.5805 50.6015 71.2606 50.7389 71.8906 51.0112V49.8018C71.2182 49.5534 70.5053 49.4329 69.7886 49.4467C67.2259 49.4467 65.943 50.6336 65.9398 53.0076C65.9398 55.5127 67.2003 56.7668 69.7214 56.77C70.5852 56.77 71.3147 56.6452 71.8906 56.3861V52.6044H69.7502L69.2991 53.7946H70.566ZM61.5055 55.599C62.9452 55.599 63.665 54.764 63.665 53.0843C63.665 51.4335 62.9452 50.5984 61.5055 50.5984C60.0273 50.5984 59.2883 51.4239 59.2883 53.0843C59.2979 54.764 60.0273 55.599 61.5055 55.599ZM57.9158 53.1131C57.9158 50.6656 59.1123 49.4403 61.5055 49.4371C63.857 49.4371 65.0343 50.6624 65.0375 53.1131C65.0375 55.551 63.8602 56.77 61.5055 56.77C59.2211 56.7604 58.0213 55.551 57.9158 53.1131ZM51.8978 55.551H53.4719C54.95 55.551 55.6986 54.668 55.6986 52.902C55.6986 51.3951 54.9596 50.6464 53.4719 50.6464H51.8978V55.551ZM53.6734 56.7124H50.5732V49.4947H53.6734C55.9098 49.4947 57.0263 50.6336 57.0231 52.9116C57.0231 55.4455 55.9066 56.7124 53.6734 56.7124ZM43.4995 56.7124H42.1365L45.1695 49.4947H46.59L49.6902 56.7124H48.2697L47.3675 54.7448H45.0831L45.5342 53.5834H47.0219L45.851 50.8672L43.4995 56.7124ZM37.3951 49.4947H42.818V50.656H40.7736V56.7124H39.4491V50.656H37.3951V49.4947ZM31.9434 56.7124H30.5804L33.6134 49.4947H35.0339L38.1341 56.7124H36.7232L35.821 54.7448H33.527L33.9782 53.5834H35.4659L34.3045 50.8672L31.9434 56.7124ZM25.4359 55.551H27.0099C28.4977 55.551 29.2367 54.668 29.2367 52.902C29.2367 51.3951 28.4977 50.6464 27.0099 50.6464H25.4359V55.551ZM27.2115 56.7124H24.1113V49.4947H27.2115C29.4511 49.4947 30.5676 50.6336 30.5612 52.9116C30.5612 55.4455 29.4383 56.7124 27.2115 56.7124Z" fill="#75459B"/>
</g>
</g>
<defs>
<clipPath id="clip0_6744_64708">
<rect width="72" height="48" fill="white" transform="translate(12 8.77)"/>
</clipPath>
<clipPath id="clip1_6744_64708">
<rect width="47.7792" height="48" fill="white" transform="translate(24.1113 8.77)"/>
</clipPath>
</defs>
</svg>
