<svg width="96" height="65" viewBox="0 0 96 65" fill="none" xmlns="http://www.w3.org/2000/svg">
<rect width="96" height="64" transform="translate(0 0.770004)" fill="white"/>
<path d="M13.3867 39.7491C13.5736 39.4334 13.8534 39.183 14.1878 39.0322C14.5222 38.8813 14.895 38.8372 15.2553 38.9059C16.9583 39.0916 18.677 39.0813 20.3777 38.8752C20.9364 38.8018 21.5021 38.7974 22.062 38.8623C22.9309 38.9614 23.8068 39.003 24.6796 39.0773C24.9494 39.0964 25.2176 39.1341 25.4822 39.1903C25.5973 39.207 25.7045 39.2586 25.7893 39.3381C25.8742 39.4177 25.9326 39.5213 25.9567 39.6351C25.9838 39.7598 25.9672 39.8899 25.9096 40.0038C25.8521 40.1176 25.7571 40.2082 25.6407 40.2603C25.4094 40.3931 25.1493 40.4679 24.8827 40.4783C23.9445 40.4575 23.0072 40.3633 22.0689 40.3465C21.2571 40.3227 20.4447 40.3458 19.6356 40.4158C18.5158 40.5273 17.388 40.5342 16.2669 40.4367C15.6457 40.3822 15.0166 40.4168 14.3914 40.4059C14.203 40.4317 14.0112 40.4078 13.835 40.3365C13.6587 40.2653 13.5042 40.1492 13.3867 39.9997V39.7491ZM25.931 28.6375C25.9637 29.3469 26.0083 30.0563 26.0241 30.7666C26.0395 31.2258 26.025 31.6855 25.9805 32.1428C25.845 33.0958 25.845 34.0631 25.9805 35.0161C26.0389 35.429 26.0261 35.8489 25.9429 36.2575C25.9333 36.4009 25.8949 36.5408 25.8299 36.6689C25.765 36.797 25.6749 36.9107 25.565 37.0032C25.4551 37.0957 25.3277 37.1651 25.1904 37.2072C25.0531 37.2493 24.9087 37.2633 24.7658 37.2483C24.0789 37.2107 23.3968 37.1112 22.7278 36.9511C22.2407 36.8007 21.8253 36.4776 21.5597 36.0425C21.2843 35.649 21.0309 35.2405 20.8007 34.8189C20.4048 34.0811 19.9171 33.3963 19.3492 32.7809C19.0168 32.3803 18.7154 31.9551 18.4476 31.5087C18.3893 31.3978 18.3231 31.2912 18.2495 31.1897C18.2018 31.1263 18.1373 31.0776 18.0633 31.049C17.9893 31.0203 17.9088 31.013 17.8309 31.0277C17.753 31.0425 17.6807 31.0787 17.6223 31.1324C17.5639 31.186 17.5217 31.255 17.5004 31.3314C17.447 31.491 17.4205 31.6584 17.4222 31.8268C17.4004 32.7868 17.3915 33.7469 17.3667 34.707C17.3598 34.8739 17.3233 35.0383 17.2587 35.1925C17.1602 35.3764 17.1063 35.5809 17.1014 35.7894C17.0964 35.998 17.1404 36.2048 17.23 36.3933C17.2641 36.4605 17.2819 36.5348 17.2822 36.6102C17.2824 36.6856 17.2649 36.76 17.2312 36.8274C17.1975 36.8948 17.1485 36.9534 17.088 36.9985C17.0276 37.0435 16.9574 37.0738 16.8832 37.0868C16.5308 37.2221 16.1551 37.2863 15.7778 37.2758C15.4004 37.2652 15.0289 37.1801 14.6846 37.0254C14.4997 36.9501 14.3418 36.8208 14.2316 36.6542C14.1215 36.4877 14.0642 36.2917 14.0674 36.0921C14.0585 35.3985 14.0317 34.7119 13.9931 34.0233C13.9708 33.8116 13.9991 33.5975 14.0756 33.3988C14.152 33.2 14.2745 33.0222 14.433 32.88C14.571 32.7521 14.6889 32.6041 14.7827 32.4411C14.8863 32.2939 14.9391 32.1171 14.9332 31.9372C14.9273 31.7574 14.863 31.5844 14.75 31.4443C14.1231 30.6185 13.8491 29.5778 13.9881 28.5503C14.0367 27.8646 14.0218 27.1741 14.0347 26.4865C14.0347 26.319 14.0238 26.1506 14.0396 25.9851C14.0208 25.8798 14.0294 25.7714 14.0646 25.6704C14.0999 25.5694 14.1605 25.4792 14.2408 25.4085C14.3211 25.3378 14.4182 25.289 14.5229 25.2668C14.6275 25.2445 14.7361 25.2497 14.8382 25.2817C15.3612 25.2799 15.8795 25.1832 16.368 24.9963C16.4875 24.9412 16.6173 24.9122 16.7489 24.9112C16.8805 24.9103 17.0108 24.9375 17.131 24.9909C17.2513 25.0444 17.3587 25.1229 17.4462 25.2212C17.5336 25.3196 17.5991 25.4354 17.6382 25.5611C17.7174 25.7315 17.7779 25.9098 17.8482 26.0842C17.8977 26.234 17.9803 26.3706 18.0899 26.484C18.1995 26.5974 18.3333 26.6846 18.4813 26.7391C18.7952 26.8631 19.058 27.0893 19.2274 27.3811C19.8843 28.3244 20.5302 29.2765 21.1941 30.2148C21.3953 30.5082 21.6279 30.779 21.8876 31.0223C22.168 31.2769 22.4008 31.1976 22.4464 30.8112C22.5338 30.2124 22.5617 29.6064 22.5296 29.0021C22.475 28.0645 22.4855 27.1243 22.5613 26.1882C22.5316 26.0307 22.5427 25.8683 22.5935 25.7162C22.6444 25.5642 22.7332 25.4278 22.8517 25.3198C22.9702 25.2119 23.1143 25.136 23.2704 25.0995C23.4265 25.063 23.5893 25.0671 23.7433 25.1113C23.9732 25.1232 24.2031 25.138 24.4369 25.1509C24.7653 25.1321 25.0891 25.235 25.3465 25.4399C25.6038 25.6447 25.7766 25.9373 25.8319 26.2616C25.9034 26.5236 25.9453 26.7928 25.9567 27.0641C25.9756 27.5862 25.9627 28.1094 25.9627 28.6325L25.931 28.6375ZM40.9106 32.0259C40.8649 31.3601 40.9255 30.6912 41.0899 30.0444C41.245 29.5411 41.5485 29.0963 41.9605 28.7684C42.3726 28.4404 42.8742 28.2446 43.3994 28.2065C44.3785 28.0219 45.3909 28.2324 46.2152 28.792C46.3008 28.8523 46.3901 28.9069 46.4827 28.9555C46.5448 29.0051 46.6164 29.0414 46.6932 29.0619C46.77 29.0824 46.8501 29.0867 46.9287 29.0746C47.0072 29.0625 47.0823 29.0342 47.1493 28.9915C47.2164 28.9488 47.2738 28.8927 47.318 28.8267C47.6706 28.554 48.0938 28.3877 48.5377 28.3475C48.9816 28.3073 49.4278 28.3949 49.8237 28.5998C50.0812 28.7858 50.268 29.0537 50.3535 29.3597C50.439 29.6656 50.4181 29.9916 50.2943 30.2841C49.927 31.1776 49.8531 32.1647 50.0832 33.1029C50.1774 33.7429 50.2279 34.3909 50.2814 35.0349C50.3448 35.7404 50.4033 36.4458 50.4459 37.1522C50.4673 37.8676 50.2318 38.5671 49.782 39.1239C49.3729 39.6512 48.8604 40.0894 48.2761 40.4119C48.1243 40.5246 47.9459 40.5959 47.7583 40.6188C47.5707 40.6418 47.3804 40.6155 47.206 40.5427C46.4473 40.2254 45.5955 40.2133 44.8281 40.509C44.1921 40.7353 43.5047 40.7755 42.8466 40.6249C42.4131 40.5417 42.0063 40.3545 41.6612 40.0794C41.316 39.8043 41.0428 39.4496 40.865 39.0456C40.7532 38.892 40.6967 38.705 40.7048 38.5152C40.7129 38.3253 40.7851 38.1438 40.9096 38.0003C41.0455 37.867 41.2204 37.7807 41.4088 37.754C41.5972 37.7272 41.7893 37.7615 41.9569 37.8517C42.0559 37.8903 42.155 37.93 42.2452 37.9736C42.3353 38.0172 42.4285 38.0727 42.5256 38.1133C43.4014 38.4373 44.3159 38.6384 45.2007 38.9257C45.4059 38.977 45.6198 38.9839 45.8279 38.9459C46.0361 38.9079 46.2337 38.8259 46.4076 38.7054C46.5815 38.5848 46.7277 38.4286 46.8363 38.247C46.9449 38.0654 47.0136 37.8628 47.0376 37.6526C47.105 37.2642 47.117 36.8682 47.0732 36.4765C47.0782 36.4013 47.0631 36.326 47.0294 36.2586C46.9958 36.1911 46.9447 36.1338 46.8816 36.0925C46.8185 36.0513 46.7455 36.0276 46.6702 36.0239C46.5949 36.0201 46.5199 36.0365 46.453 36.0713C46.1361 36.1716 45.8319 36.3082 45.5465 36.4785C45.0228 36.7959 44.4032 36.9164 43.7987 36.8183C43.3705 36.7554 42.9677 36.5768 42.6335 36.3018C42.2993 36.0269 42.0465 35.6659 41.9024 35.2578C41.7383 34.7626 41.4769 34.3052 41.1335 33.9124C40.9923 33.7088 40.9175 33.4666 40.9195 33.2188C40.8868 32.8225 40.9106 32.4232 40.9106 32.0259ZM47.1803 32.659C47.1221 32.271 47.0377 31.8873 46.9276 31.5107C46.8214 31.1691 46.6095 30.8699 46.3225 30.6563C46.0356 30.4427 45.6882 30.3256 45.3305 30.3218C44.9774 30.3676 44.6464 30.5193 44.3812 30.7568C44.1159 30.9943 43.9287 31.3065 43.8443 31.6524C43.8195 31.7098 43.8035 31.7706 43.7967 31.8327C43.7895 32.3504 43.8113 32.8681 43.8621 33.3833C43.8858 33.6674 44.0001 33.9363 44.1884 34.1504C44.3766 34.3645 44.6287 34.5124 44.9074 34.5722C45.2102 34.6595 45.5312 34.6615 45.8351 34.5779C46.1389 34.4943 46.4138 34.3285 46.6294 34.0986C46.9739 33.6968 47.1679 33.1882 47.1803 32.659ZM28.5704 34.8437C28.5704 34.6763 28.5823 34.5078 28.5704 34.3424C28.5496 34.1007 28.5849 33.8575 28.6735 33.6317C28.7621 33.4059 28.9016 33.2037 29.0812 33.0407C29.2608 32.8776 29.4756 32.7583 29.7089 32.6919C29.9422 32.6256 30.1876 32.614 30.4262 32.658C30.5304 32.6653 30.634 32.6799 30.7363 32.7016C30.9504 32.7547 31.1737 32.7587 31.3896 32.7132C31.6054 32.6677 31.8082 32.574 31.9827 32.4391C32.4913 32.0662 33.1011 31.8565 33.7314 31.8377C34.0217 31.8189 34.3093 31.7698 34.5894 31.691C34.7224 31.659 34.8476 31.601 34.958 31.5202C35.0684 31.4395 35.1616 31.3377 35.2324 31.2207C35.3032 31.1036 35.35 30.9738 35.3703 30.8385C35.3905 30.7033 35.3837 30.5654 35.3503 30.4327C35.3462 30.3432 35.3239 30.2553 35.2846 30.1747C35.2453 30.0941 35.19 30.0223 35.122 29.9639C35.0539 29.9054 34.9747 29.8615 34.8891 29.8348C34.8035 29.8081 34.7133 29.7991 34.6241 29.8086C33.5697 29.7525 32.5347 30.1077 31.737 30.7993C31.6247 30.9207 31.4708 30.995 31.306 31.0074C30.7029 31.0107 30.1012 30.9506 29.5107 30.8281C29.3396 30.8072 29.1798 30.7317 29.0549 30.613C28.9301 30.4942 28.8467 30.3384 28.8173 30.1686C28.7878 29.9988 28.8138 29.824 28.8914 29.6701C28.969 29.5163 29.0941 29.3914 29.2481 29.3142C29.7127 28.922 30.2524 28.6288 30.8341 28.4523C31.4159 28.2758 32.0275 28.2198 32.6316 28.2877C33.294 28.388 33.9685 28.3766 34.6271 28.254C35.4004 28.1633 36.1799 28.3635 36.8139 28.8156C37.4479 29.2677 37.891 29.9395 38.0571 30.7003C38.0881 30.9897 38.0594 31.2823 37.9729 31.5603C37.778 32.1608 37.8133 32.8123 38.072 33.3882C38.173 33.6817 38.1885 33.9978 38.1166 34.2998C38.0174 34.7906 38.0211 35.2966 38.1275 35.7859C38.1847 35.9288 38.2031 36.0842 38.181 36.2365C38.1588 36.3888 38.0969 36.5325 38.0014 36.6531C37.9059 36.7738 37.7802 36.8671 37.6371 36.9236C37.4939 36.9801 37.3384 36.9978 37.1863 36.9749C36.8524 36.9808 36.5175 36.9689 36.1846 36.9897C35.9988 37.0195 35.8086 37.0047 35.6297 36.9467C35.4507 36.8887 35.2881 36.789 35.1552 36.6558C35.1071 36.5994 35.0482 36.5532 34.9819 36.52C34.9156 36.4869 34.8433 36.4674 34.7694 36.4628C34.6954 36.4582 34.6212 36.4685 34.5513 36.4931C34.4814 36.5178 34.4172 36.5563 34.3625 36.6063C34.2561 36.7068 34.1308 36.7852 33.994 36.8371C32.9933 37.0353 31.9936 37.2503 30.982 37.3613C30.5434 37.3732 30.108 37.2847 29.7088 37.1027C29.3553 36.991 29.05 36.763 28.8426 36.4557C28.6352 36.1485 28.5378 35.78 28.5665 35.4104C28.5754 35.2202 28.5704 35.0319 28.5704 34.8437ZM32.8248 35.6433C32.929 35.6498 33.0335 35.6408 33.1349 35.6165C33.883 35.3094 34.6409 35.022 35.3672 34.6663C35.4421 34.6255 35.5055 34.5664 35.5515 34.4945C35.5975 34.4226 35.6246 34.3403 35.6303 34.2551C35.6361 34.1699 35.6202 34.0847 35.5843 34.0073C35.5483 33.9299 35.4934 33.8628 35.4246 33.8123C35.2509 33.563 35.0032 33.3748 34.7166 33.2741C34.4299 33.1735 34.1189 33.1656 33.8275 33.2515C33.6031 33.2953 33.3743 33.3126 33.1458 33.303C32.8753 33.3086 32.6057 33.3355 32.3394 33.3833C32.072 33.4519 31.8422 33.6227 31.6994 33.8589C31.5565 34.0951 31.5121 34.3779 31.5755 34.6465C31.5692 34.8892 31.6566 35.125 31.8194 35.3051C31.9823 35.4851 32.2082 35.5955 32.4503 35.6135C32.5732 35.6343 32.7 35.6353 32.8248 35.6433ZM68.8298 32.6333C68.7862 33.5364 68.5547 34.4205 68.1501 35.2291C67.868 35.7219 67.4615 36.1319 66.9711 36.418C66.8178 36.5278 66.6409 36.6003 66.4546 36.6297C66.2683 36.6592 66.0778 36.6447 65.8981 36.5875C65.701 36.5129 65.486 36.4998 65.2814 36.5498C65.0768 36.5999 64.8921 36.7108 64.7517 36.8679C64.598 37.023 64.4046 37.1328 64.1926 37.1853C63.9806 37.2377 63.7582 37.2307 63.5499 37.1651C62.9966 37.0588 62.434 37.0077 61.8706 37.0125C61.4514 37.0102 61.0461 36.862 60.7242 36.5934C60.3012 36.2556 59.8494 35.9534 59.4065 35.6403C59.267 35.5478 59.1518 35.4233 59.0704 35.2771C58.989 35.1309 58.9439 34.9673 58.9388 34.8001C58.908 34.1526 58.7641 33.5155 58.5138 32.9176C58.388 32.5283 58.3597 32.114 58.4314 31.7111C58.5031 31.3083 58.6726 30.9292 58.925 30.6071C59.006 30.4857 59.128 30.3974 59.2688 30.3584C59.5225 30.2893 59.7582 30.166 59.9597 29.997C60.1611 29.828 60.3236 29.6173 60.4359 29.3795C60.5649 29.055 60.8104 28.7903 61.1243 28.6371C61.4381 28.4839 61.7979 28.4533 62.1331 28.5513C62.2551 28.5829 62.3825 28.588 62.5066 28.5661C63.4119 28.4414 64.3304 28.4467 65.2343 28.582C65.8753 28.5853 66.5021 28.7719 67.0405 29.1199C67.579 29.4678 68.0066 29.9626 68.273 30.5457C68.6065 31.1934 68.7964 31.9055 68.8298 32.6333ZM65.3898 32.9731C65.4557 32.3235 65.3172 31.6696 64.9935 31.1025C64.878 30.8718 64.7078 30.6727 64.4979 30.5227C64.288 30.3726 64.0446 30.2761 63.7889 30.2414C63.5332 30.2067 63.273 30.235 63.0307 30.3238C62.7884 30.4126 62.5714 30.5591 62.3986 30.7508C61.9818 31.2842 61.7336 31.9299 61.6858 32.6052C61.638 33.2804 61.7927 33.9546 62.1301 34.5415C62.3649 34.8238 62.6758 35.0327 63.0258 35.1435C63.3758 35.2544 63.7503 35.2624 64.1048 35.1667C64.4469 35.0626 64.7494 34.857 64.972 34.5771C65.1946 34.2971 65.3269 33.9561 65.3512 33.5993C65.373 33.3902 65.3779 33.1782 65.3898 32.9731ZM74.9488 28.0915C75.6533 28.1678 76.3667 28.1995 77.0582 28.3372C77.4821 28.4451 77.8856 28.6211 78.2531 28.8584C78.4616 28.9966 78.6293 29.1882 78.7386 29.4132C78.8012 29.4986 78.8399 29.5991 78.8506 29.7044C78.8614 29.8097 78.8439 29.9159 78.7998 30.0122C78.7558 30.1084 78.6869 30.1912 78.6002 30.2519C78.5135 30.3126 78.4121 30.349 78.3066 30.3574C77.9098 30.5235 77.4795 30.5938 77.0505 30.5624C76.6216 30.5311 76.206 30.3991 75.8376 30.1771C75.5638 30.0246 75.2664 29.9188 74.9578 29.864C74.7731 29.821 74.5811 29.8204 74.3962 29.8621C74.2112 29.9037 74.0381 29.9867 73.8897 30.1048C73.7968 30.1566 73.7192 30.2321 73.6649 30.3236C73.6106 30.4152 73.5815 30.5194 73.5806 30.6258C73.5797 30.7322 73.607 30.837 73.6598 30.9294C73.7125 31.0218 73.7887 31.0987 73.8808 31.1521C73.9582 31.2229 74.0502 31.276 74.1503 31.3076C74.8774 31.5681 75.6362 31.7304 76.4063 31.7901C76.8686 31.7652 77.3262 31.8926 77.7092 32.1527C78.0303 32.3457 78.361 32.5222 78.6999 32.6818C78.9812 32.8041 79.2182 33.0094 79.3794 33.2703C79.5406 33.5311 79.6181 33.835 79.6016 34.1412C79.552 35.5531 79.0071 36.4587 77.614 36.6974C77.0927 36.7397 76.5852 36.8866 76.1219 37.1294C75.9701 37.1999 75.8048 37.2364 75.6374 37.2364C75.1807 37.283 74.722 37.3177 74.2642 37.3543C73.2028 37.2892 72.1673 36.9991 71.2265 36.5033C71.1245 36.4305 71.0299 36.3479 70.9441 36.2566C70.8105 36.1658 70.7085 36.0356 70.6525 35.8841C70.5964 35.7326 70.589 35.5674 70.6313 35.4115C70.6736 35.2556 70.7636 35.1168 70.8886 35.0145C71.0135 34.9122 71.1674 34.8514 71.3285 34.8407C71.8986 34.7143 72.484 34.6713 73.0664 34.7129C73.3671 34.7945 73.6383 34.9601 73.8481 35.1905C74.0727 35.3963 74.3406 35.549 74.6322 35.6375C74.9237 35.726 75.2313 35.7479 75.5324 35.7017C75.8022 35.6705 76.0633 35.587 76.3013 35.456C76.4248 35.3957 76.5276 35.3001 76.5967 35.1814C76.6658 35.0626 76.698 34.9259 76.6893 34.7888C76.6806 34.6516 76.6314 34.5201 76.5478 34.411C76.4642 34.3019 76.3502 34.2201 76.22 34.1759C76.1081 34.1214 75.9822 34.0976 75.8673 34.0491C75.478 33.9038 75.0978 33.735 74.7289 33.5438C74.2272 33.2362 73.6377 33.1035 73.0525 33.1663C72.5627 33.2514 72.0586 33.1583 71.6315 32.9039C71.2044 32.6494 70.8825 32.2505 70.7242 31.7792C70.5541 31.3037 70.5398 30.7864 70.6833 30.3022C70.8269 29.8181 71.1209 29.3922 71.5227 29.0863C72.2336 28.4874 73.1366 28.1648 74.0661 28.1777C74.3627 28.1848 74.6592 28.1559 74.9488 28.0915ZM56.0349 31.8654C56.0144 32.1322 56.0197 32.4002 56.0507 32.666C56.131 33.7469 56.2608 34.8259 56.2905 35.9068C56.3111 36.0912 56.2889 36.2779 56.2255 36.4523C56.1621 36.6267 56.0592 36.7841 55.9249 36.9121C55.7906 37.0402 55.6285 37.1354 55.4513 37.1905C55.2741 37.2456 55.0866 37.2589 54.9034 37.2295C54.5637 37.2377 54.2278 37.1562 53.9296 36.9933C53.6314 36.8303 53.3815 36.5916 53.205 36.3012C53.0284 36.0109 52.9316 35.6791 52.9241 35.3394C52.9167 34.9996 52.9989 34.664 53.1626 34.3661C53.4132 33.7885 53.4672 33.1445 53.3162 32.5332C53.1616 31.6516 53.0317 30.7658 52.9268 29.8769C52.904 29.6482 52.9231 29.4172 52.9833 29.1953C53.0191 28.9646 53.1377 28.7549 53.317 28.6053C53.4962 28.4558 53.7238 28.3767 53.9572 28.3828C54.3534 28.357 54.7512 28.3646 55.1461 28.4056C55.2936 28.4072 55.4392 28.4393 55.5737 28.4998C55.7083 28.5603 55.8288 28.648 55.9279 28.7573C56.027 28.8666 56.1024 28.9952 56.1494 29.135C56.1965 29.2748 56.2141 29.4228 56.2013 29.5698C56.2122 29.8195 56.2013 30.0711 56.2013 30.3218C56.229 30.3307 56.0963 31.3542 56.0349 31.8654ZM54.6478 24.8656H54.835C55.05 24.8412 55.2674 24.8814 55.4595 24.9811C55.6515 25.0807 55.8096 25.2353 55.9135 25.425C56.0175 25.6148 56.0625 25.8312 56.043 26.0467C56.0235 26.2622 55.9403 26.467 55.804 26.6351C55.7452 26.7468 55.657 26.8404 55.5489 26.9057C55.4408 26.971 55.317 27.0056 55.1907 27.0056C54.7751 27.021 54.359 27.0031 53.9463 26.9521C53.8249 26.9491 53.7055 26.9206 53.5958 26.8685C53.4862 26.8164 53.3887 26.7419 53.3096 26.6497C53.2306 26.5575 53.1718 26.4497 53.1371 26.3334C53.1024 26.217 53.0925 26.0947 53.1081 25.9742C53.1072 25.7006 53.2059 25.4361 53.3859 25.23C53.5659 25.024 53.8148 24.8905 54.086 24.8547C54.2723 24.8378 54.4605 24.8547 54.6478 24.8547V24.8715V24.8656Z" fill="black"/>
<path fill-rule="evenodd" clip-rule="evenodd" d="M81.719 28.2441C81.6994 28.2109 81.6761 28.18 81.6496 28.152C81.6158 28.1244 81.5776 28.1027 81.5367 28.0876C81.5913 28.074 81.6431 28.0504 81.6893 28.0182C81.7483 27.9729 81.7953 27.9137 81.826 27.8458C81.8608 27.7663 81.8777 27.68 81.8755 27.5932C81.8786 27.494 81.856 27.3958 81.8101 27.3078C81.7735 27.2359 81.7129 27.1791 81.6387 27.1473C81.5399 27.1141 81.4358 27.0993 81.3316 27.1037H80.6093V28.8634H81.0443V28.15H81.0829C81.1221 28.1499 81.1599 28.1644 81.1889 28.1906C81.2234 28.2305 81.2499 28.2766 81.2672 28.3264L81.499 28.8644H81.9895L81.7794 28.3541C81.7625 28.3157 81.7423 28.2789 81.719 28.2441ZM81.4128 27.7378C81.4054 27.7513 81.3954 27.7632 81.3833 27.7727C81.3712 27.7823 81.3573 27.7893 81.3425 27.7933C81.3052 27.8055 81.2666 27.8134 81.2276 27.8171H81.0453V27.4594H81.2355C81.2932 27.4528 81.3512 27.4692 81.397 27.505C81.4276 27.5414 81.4429 27.5883 81.4396 27.6358C81.4404 27.6716 81.4311 27.707 81.4128 27.7378ZM81.2355 26.4776C80.9374 26.4776 80.6461 26.566 80.3983 26.7315C80.1504 26.8971 79.9573 27.1325 79.8432 27.4079C79.7292 27.6832 79.6993 27.9862 79.7575 28.2785C79.8156 28.5709 79.9591 28.8394 80.1699 29.0501C80.3807 29.2609 80.6492 29.4044 80.9415 29.4626C81.2338 29.5207 81.5368 29.4909 81.8122 29.3768C82.0875 29.2628 82.3229 29.0696 82.4885 28.8218C82.6541 28.574 82.7425 28.2826 82.7425 27.9845C82.7425 27.5849 82.5837 27.2016 82.3011 26.919C82.0185 26.6363 81.6352 26.4776 81.2355 26.4776ZM81.2355 29.2399C80.9872 29.2399 80.7445 29.1662 80.5381 29.0283C80.3316 28.8904 80.1707 28.6943 80.0757 28.4649C79.9807 28.2356 79.9559 27.9832 80.0043 27.7396C80.0527 27.4961 80.1723 27.2725 80.3479 27.0969C80.5234 26.9213 80.7471 26.8018 80.9906 26.7533C81.2341 26.7049 81.4865 26.7298 81.7159 26.8248C81.9453 26.9198 82.1413 27.0807 82.2792 27.2871C82.4172 27.4936 82.4908 27.7363 82.4908 27.9845C82.4908 28.3175 82.3586 28.6368 82.1231 28.8722C81.8877 29.1076 81.5684 29.2399 81.2355 29.2399Z" fill="black"/>
</svg>
