<svg width="96" height="65" viewBox="0 0 96 65" fill="none" xmlns="http://www.w3.org/2000/svg">
<rect width="96" height="64" transform="translate(0 0.770004)" fill="white"/>
<g clip-path="url(#clip0_6744_64655)">
<path d="M12 23.3405H84V42.1995H12V23.3405Z" fill="#D40000"/>
<path d="M15.0804 26.2147H25.4911V27.5666L17.1113 37.8325H25.6965V39.3253H14.875V37.9734L23.2548 27.7075H15.0804V26.2147ZM32.74 27.9618L30.3041 34.4927H35.1778L32.74 27.9618ZM31.7265 26.2147H33.7574L38.8052 39.3253H36.9407L35.7354 35.9621H29.7622L28.555 39.3253H26.663L31.7265 26.2147ZM42.5226 33.0644V37.8677H45.3987C46.3639 37.8677 47.0813 37.6721 47.5509 37.2808C48.0204 36.8894 48.2513 36.2862 48.2435 35.471C48.2435 34.6518 48.0113 34.0473 47.547 33.6573C47.0826 33.2673 46.3652 33.0716 45.3948 33.0703L42.5226 33.0644ZM42.5226 27.6723V31.6244H45.1776C46.0541 31.6244 46.7063 31.4621 47.1341 31.1373C47.562 30.8125 47.7765 30.3168 47.7778 29.6503C47.7778 28.989 47.5626 28.494 47.1341 28.1673C46.7057 27.8405 46.0522 27.6742 45.1776 27.6742H42.5226V27.6723ZM40.7304 26.2147H45.3107C46.6776 26.2147 47.7309 26.4958 48.4704 27.0579C49.21 27.6201 49.5791 28.4197 49.5778 29.4566C49.5778 30.2575 49.3887 30.896 49.0104 31.3721C48.5882 31.8706 47.9909 32.1885 47.3415 32.2603C48.142 32.4007 48.8685 32.8158 49.3959 33.4342C49.8975 34.0655 50.1577 34.8549 50.1296 35.6608C50.1296 36.8347 49.7272 37.7392 48.9224 38.3744C48.1176 39.0097 46.9743 39.3266 45.4926 39.3253H40.7343L40.7304 26.2147ZM54.7998 33.0625V37.8677H57.6778C58.643 37.8677 59.3604 37.6721 59.83 37.2808C60.2996 36.8894 60.5304 36.2862 60.5226 35.471C60.5226 34.6518 60.2904 34.0473 59.8261 33.6573C59.3617 33.2673 58.6444 33.0716 57.6739 33.0703L54.7998 33.0625ZM54.7998 27.6703V31.6225H57.4548C58.3313 31.6225 58.9835 31.4601 59.4113 31.1353C59.8391 30.8105 60.0537 30.3149 60.055 29.6484C60.055 28.9871 59.8417 28.4921 59.4113 28.1653C58.9809 27.8386 58.3294 27.6723 57.4548 27.6723H54.8017L54.7998 27.6703ZM53.0076 26.2127H57.5878C58.9548 26.2127 60.008 26.4938 60.7476 27.056C61.4872 27.6181 61.857 28.4177 61.857 29.4547C61.857 30.2555 61.6678 30.894 61.2896 31.3701C60.8673 31.8687 60.2701 32.1865 59.6207 32.2584C60.4212 32.3987 61.1477 32.8139 61.675 33.4323C62.1767 34.0635 62.4368 34.853 62.4087 35.6588C62.4087 36.8327 62.0063 37.7373 61.2015 38.3725C60.3967 39.0077 59.2528 39.3253 57.7698 39.3253H53.0096L53.0076 26.2127ZM70.4754 26.2127H72.4574L75.5741 30.9201L78.7183 26.2147H80.6239L76.5152 32.3562L81.1287 39.3253H79.1565L75.5272 33.8471L71.8607 39.3253H69.955L74.5783 32.4051L70.4754 26.2127ZM65.2828 26.2127H67.075V39.3214H65.2828V26.2127Z" fill="white"/>
</g>
<defs>
<clipPath id="clip0_6744_64655">
<rect width="72" height="18.8589" fill="white" transform="translate(12 23.3405)"/>
</clipPath>
</defs>
</svg>
