<svg width="96" height="65" viewBox="0 0 96 65" fill="none" xmlns="http://www.w3.org/2000/svg">
<rect width="96" height="64" transform="translate(0 0.929932)" fill="white"/>
<g clip-path="url(#clip0_6744_66378)">
<path d="M27.8214 32.0943C29.6588 34.2061 27.3392 36.11 27.3392 36.11C27.3392 36.11 32.0034 33.699 29.8334 30.6893C27.838 27.8791 26.2999 26.4823 34.6057 21.6602C34.6057 21.6602 21.5692 24.9193 27.7965 32.0943" fill="#F8971D"/>
<path d="M29.858 13.8865C29.858 13.8865 33.8155 17.8441 26.1083 23.93C19.9226 28.8103 24.6949 31.5956 26.1083 34.7383C22.5 31.4792 19.8561 28.6191 21.627 25.942C24.2376 22.026 31.4626 20.1221 29.8663 13.845" fill="#F8971D"/>
<path d="M49.4209 45.9457C49.4209 48.6173 48.5203 50.6237 46.7189 51.9651L45.4219 50.8427C46.0057 50.1502 46.4035 49.3204 46.5775 48.4316C46.7293 47.556 46.7962 46.6678 46.7771 45.7794V31.0801H49.4293L49.4209 45.9457Z" fill="#58839F"/>
<path d="M61.3437 47.6667H59.3483L59.1487 46.3365C58.1246 47.3086 56.7774 47.8682 55.3658 47.9078C52.9104 47.9078 51.6827 46.7771 51.6827 44.5157C51.6583 43.9262 51.7825 43.34 52.0441 42.8112C52.3056 42.2823 52.696 41.8278 53.1792 41.4893C54.6032 40.6277 56.2575 40.2243 57.9183 40.3337H58.8079V39.203C58.8079 37.7452 57.9765 37.0164 56.3137 37.0164C55.0837 37.042 53.8679 37.284 52.722 37.7314L52.3561 36.185C53.8174 35.5266 55.401 35.1838 57.0037 35.179C59.9026 35.179 61.352 36.415 61.352 38.887L61.3437 47.6667ZM58.8494 44.8399V41.9383H57.7936C55.4213 41.9383 54.2324 42.6755 54.2268 44.1499C54.1828 44.4097 54.2012 44.6763 54.2805 44.9277C54.3598 45.179 54.4977 45.4079 54.6828 45.5955C54.868 45.7831 55.0951 45.924 55.3454 46.0066C55.5957 46.0891 55.862 46.111 56.1224 46.0704C57.15 46.0022 58.1184 45.5653 58.8494 44.8399Z" fill="#58839F"/>
<path d="M73.6333 35.4282C72.9221 39.6577 71.65 43.7735 69.8504 47.6665H66.7326L62.9746 35.4282H65.7016L68.0379 42.9109L68.5534 45.1723C69.7199 42.0233 70.5368 38.7557 70.9894 35.4282H73.6333Z" fill="#58839F"/>
<path d="M83.9999 47.6667H82.0377L81.8382 46.3365C80.8131 47.3073 79.4665 47.8666 78.0553 47.9078C75.5999 47.9078 74.3722 46.7771 74.3722 44.5157C74.3477 43.9262 74.472 43.34 74.7335 42.8112C74.995 42.2823 75.3854 41.8278 75.8687 41.4893C77.2952 40.6265 78.9525 40.2231 80.616 40.3337H81.4973V39.203C81.4973 37.7452 80.6659 37.0164 79.0031 37.0164C77.776 37.0429 76.5631 37.285 75.4197 37.7314L75.0539 36.185C76.5152 35.5268 78.0988 35.1841 79.7015 35.179C82.6003 35.179 84.0497 36.415 84.0497 38.887L83.9999 47.6667ZM81.5056 44.8399V41.9383H80.4498C78.0719 41.9383 76.883 42.6755 76.883 44.1499C76.839 44.4097 76.8574 44.6763 76.9367 44.9277C77.016 45.179 77.1539 45.4079 77.339 45.5955C77.5242 45.7831 77.7513 45.924 78.0016 46.0066C78.2519 46.0891 78.5182 46.111 78.7786 46.0704C79.8064 46.003 80.775 45.5659 81.5056 44.8399Z" fill="#58839F"/>
<path d="M21.0466 43.3599C21.0466 43.3599 19.5916 44.1913 22.0859 44.4906C24.7142 44.8606 27.388 44.7479 29.9759 44.158C30.6438 44.5582 31.3447 44.9003 32.0711 45.1807C24.5884 48.3816 15.1935 44.9977 21.0549 43.3599" fill="#58839F"/>
<path d="M20.1392 39.2029C20.1392 39.2029 18.4763 40.4084 20.9706 40.6662C24.3665 41.068 27.8055 40.9023 31.147 40.1756C31.5995 40.599 32.1344 40.9245 32.7184 41.1318C23.7059 43.7673 13.6625 41.3396 20.1142 39.2029" fill="#58839F"/>
<path d="M37.6813 46.4195C37.6813 46.4195 38.7621 47.3091 36.4924 47.9909C32.1857 49.2962 18.5838 49.6537 14.8009 48.0407C13.4374 47.4504 15.9899 46.6273 16.788 46.4611C17.218 46.3569 17.6592 46.3067 18.1016 46.3114C16.5885 45.2472 8.33258 48.4065 13.9446 49.3045C29.1427 51.7987 41.6554 48.1987 37.7146 46.4195" fill="#58839F"/>
<path d="M21.7432 34.8462C21.7432 34.8462 14.8175 36.509 19.2905 37.091C22.336 37.3254 25.3963 37.292 28.436 36.9912C31.3044 36.7501 34.1727 36.2346 34.1727 36.2346C33.5692 36.4973 32.988 36.8088 32.4351 37.1658C25.4097 39.0199 11.8244 38.1552 15.7404 36.2679C17.5978 35.3269 19.6527 34.8424 21.7348 34.8545" fill="#58839F"/>
<path d="M34.1653 41.7885C41.3071 38.0804 38.0064 34.5054 35.7034 34.9876C35.421 35.0378 35.143 35.1101 34.872 35.2038C35.0242 34.987 35.2388 34.8218 35.4872 34.7299C40.0517 33.1252 43.5519 39.4606 34.0156 41.9714C34.0743 41.9171 34.1222 41.8522 34.157 41.7802" fill="#58839F"/>
<path d="M22.45 51.8486C29.3091 52.2893 39.8431 51.6075 40.0925 48.3567C40.0925 48.3567 39.6103 49.5872 34.4223 50.5682C28.6842 51.5529 22.8281 51.6426 17.0625 50.8343C17.0625 50.8343 17.9355 51.5576 22.45 51.8486Z" fill="#58839F"/>
</g>
<defs>
<clipPath id="clip0_6744_66378">
<rect width="72" height="38.0868" fill="white" transform="translate(12 13.8865)"/>
</clipPath>
</defs>
</svg>
