<svg width="96" height="65" viewBox="0 0 96 65" fill="none" xmlns="http://www.w3.org/2000/svg">
<rect width="96" height="64" transform="translate(0 0.929932)" fill="white"/>
<g clip-path="url(#clip0_6744_66402)">
<g clip-path="url(#clip1_6744_66402)">
<path d="M47.6154 53.3921C47.3937 53.3915 47.176 53.3327 46.984 53.2218L44.9795 52.0291C44.6789 51.8621 44.8259 51.8019 44.9261 51.7685C45.2412 51.6686 45.543 51.5306 45.8248 51.3576C45.8477 51.3448 45.8736 51.338 45.8999 51.338C45.9262 51.338 45.9521 51.3448 45.9751 51.3576L47.5219 52.2763C47.5508 52.2913 47.5828 52.2991 47.6154 52.2991C47.6479 52.2991 47.68 52.2913 47.7089 52.2763L53.7423 48.7919C53.7708 48.7751 53.7944 48.7512 53.8108 48.7225C53.8272 48.6938 53.8358 48.6613 53.8359 48.6282V41.6694C53.8361 41.6359 53.8276 41.6028 53.8112 41.5736C53.7948 41.5443 53.7711 41.5198 53.7423 41.5024L47.7123 38.0247C47.6838 38.0082 47.6516 37.9996 47.6187 37.9996C47.5859 37.9996 47.5536 38.0082 47.5252 38.0247L41.4951 41.5057C41.4663 41.5224 41.4422 41.5462 41.4252 41.5749C41.4082 41.6036 41.399 41.6361 41.3982 41.6694V48.6316C41.3985 48.6641 41.4073 48.696 41.4237 48.7242C41.4401 48.7523 41.4636 48.7756 41.4918 48.7919L43.1455 49.7474C44.0441 50.195 44.592 49.6672 44.592 49.136V42.2641C44.592 42.218 44.6103 42.1738 44.6429 42.1412C44.6755 42.1087 44.7197 42.0904 44.7657 42.0904H45.5308C45.5768 42.0904 45.621 42.1087 45.6536 42.1412C45.6862 42.1738 45.7045 42.218 45.7045 42.2641V49.1394C45.7045 50.3354 45.0363 51.0236 43.9172 51.0236C43.4275 51.0319 42.9456 50.9009 42.5274 50.646L40.9439 49.734C40.7515 49.6214 40.592 49.4604 40.4813 49.267C40.3705 49.0735 40.3123 48.8545 40.3125 48.6316V41.6694C40.3122 41.447 40.3704 41.2283 40.4812 41.0354C40.592 40.8425 40.7516 40.6821 40.9439 40.5703L46.9974 37.0859C47.1924 36.9806 47.4105 36.9255 47.6321 36.9255C47.8537 36.9255 48.0718 36.9806 48.2668 37.0859L54.3003 40.5703C54.4899 40.6841 54.6466 40.8452 54.7549 41.038C54.8633 41.2307 54.9196 41.4483 54.9183 41.6694V48.6316C54.9179 48.8539 54.8594 49.0723 54.7487 49.2651C54.6379 49.4578 54.4788 49.6183 54.2869 49.7307L48.2535 53.2151C48.0605 53.3266 47.8416 53.3854 47.6187 53.3855" fill="#689F63"/>
<path d="M49.4789 48.5914C46.8397 48.5914 46.2852 47.3787 46.2852 46.3631C46.2852 46.317 46.3035 46.2728 46.336 46.2402C46.3686 46.2077 46.4128 46.1894 46.4589 46.1894H47.2373C47.2791 46.1889 47.3196 46.2035 47.3515 46.2305C47.3835 46.2575 47.4046 46.2951 47.411 46.3364C47.5279 47.1315 47.8787 47.5323 49.4756 47.5323C50.7484 47.5323 51.2896 47.245 51.2896 46.5702C51.2896 46.1827 51.1359 45.9021 49.1615 45.7016C47.5079 45.5379 46.4889 45.1738 46.4889 43.8542C46.4889 42.6381 47.5146 41.9132 49.235 41.9132C51.166 41.9132 52.1248 42.5813 52.2417 44.0246C52.2435 44.0488 52.2403 44.0733 52.2323 44.0962C52.2242 44.1192 52.2115 44.1403 52.195 44.1582C52.1786 44.1756 52.159 44.1896 52.1372 44.1993C52.1154 44.2091 52.0919 44.2144 52.068 44.215H51.2829C51.2431 44.2151 51.2045 44.2016 51.1735 44.1766C51.1425 44.1517 51.121 44.1169 51.1125 44.078C50.9221 43.2428 50.4678 42.9756 49.2284 42.9756C47.8419 42.9756 47.6783 43.46 47.6783 43.8208C47.6783 44.2617 47.8687 44.3887 49.7428 44.6359C51.617 44.8831 52.4789 45.2306 52.4789 46.5335C52.4789 47.8364 51.3832 48.6014 49.4722 48.6014M56.8219 41.2183H57.019C57.0445 41.2212 57.0702 41.2186 57.0946 41.2106C57.1189 41.2026 57.1412 41.1894 57.16 41.1719C57.1787 41.1545 57.1934 41.1331 57.2031 41.1094C57.2128 41.0857 57.2172 41.0602 57.2161 41.0346C57.2161 40.8575 57.0925 40.8575 57.0257 40.8575H56.8186L56.8219 41.2183ZM56.5747 40.647H57.019C57.1727 40.647 57.4767 40.647 57.4767 40.9811C57.4864 41.0579 57.4661 41.1355 57.4201 41.1977C57.374 41.26 57.3058 41.302 57.2295 41.3152C57.4099 41.3152 57.4199 41.4455 57.4466 41.6125C57.4538 41.7264 57.4763 41.8387 57.5134 41.9466H57.2362C57.2362 41.8865 57.186 41.5524 57.186 41.5357C57.1693 41.4622 57.1426 41.4254 57.0491 41.4254H56.8219V41.9466H56.568L56.5747 40.647ZM56.0368 41.2952C56.0342 41.4883 56.089 41.678 56.1942 41.84C56.2995 42.002 56.4505 42.1291 56.6281 42.2052C56.8058 42.2813 57.002 42.3029 57.1919 42.2673C57.3818 42.2317 57.5568 42.1406 57.6949 42.0053C57.8329 41.8701 57.9277 41.697 57.9671 41.5078C58.0066 41.3187 57.9891 41.1221 57.9167 40.943C57.8443 40.7638 57.7203 40.6102 57.5605 40.5016C57.4007 40.393 57.2122 40.3344 57.019 40.333C56.7614 40.3339 56.5147 40.4366 56.3326 40.6187C56.1504 40.8009 56.0477 41.0476 56.0468 41.3052M58.1849 41.3052C58.183 41.5345 58.1132 41.7582 57.9844 41.948C57.8556 42.1378 57.6735 42.2852 57.4611 42.3718C57.2487 42.4583 57.0154 42.4801 56.7907 42.4344C56.5659 42.3887 56.3597 42.2775 56.198 42.1149C56.0363 41.9522 55.9263 41.7454 55.8818 41.5203C55.8374 41.2953 55.8605 41.0622 55.9483 40.8503C56.0361 40.6384 56.1846 40.4572 56.3751 40.3294C56.5656 40.2017 56.7896 40.1332 57.019 40.1326C57.3271 40.1334 57.6223 40.2562 57.8401 40.4741C58.0579 40.6919 58.1807 40.9871 58.1816 41.2952" fill="#689F63"/>
<path d="M28.9298 26.1448C28.9296 26.0092 28.8936 25.876 28.8256 25.7587C28.7576 25.6414 28.6598 25.5441 28.5422 25.4766L22.1447 21.8018C22.0378 21.7399 21.9173 21.7055 21.7939 21.7015H21.7271C21.6026 21.7055 21.481 21.7399 21.373 21.8018L14.9754 25.4766C14.8583 25.5446 14.7609 25.642 14.6929 25.7592C14.625 25.8764 14.5888 26.0093 14.5879 26.1448L14.5912 36.0601C14.5905 36.1277 14.6077 36.1942 14.6412 36.253C14.6746 36.3117 14.7231 36.3604 14.7817 36.3942C14.8393 36.43 14.9059 36.449 14.9737 36.449C15.0416 36.449 15.1082 36.43 15.1658 36.3942L18.9676 34.216C19.0848 34.148 19.1821 34.0506 19.2501 33.9334C19.3181 33.8162 19.3543 33.6833 19.3552 33.5479V28.9142C19.3554 28.7786 19.3913 28.6455 19.4593 28.5282C19.5273 28.4109 19.6251 28.3136 19.7427 28.2461L21.3763 27.304C21.494 27.2358 21.6278 27.2 21.7638 27.2004C21.8989 27.2 22.0315 27.2357 22.148 27.304L23.765 28.2361C23.8826 28.3036 23.9803 28.4009 24.0483 28.5182C24.1164 28.6355 24.1523 28.7686 24.1525 28.9042V33.5445C24.1537 33.6799 24.19 33.8127 24.258 33.9298C24.3259 34.0469 24.4231 34.1444 24.54 34.2127L28.3384 36.3909C28.397 36.4259 28.464 36.4444 28.5322 36.4444C28.6004 36.4444 28.6674 36.4259 28.726 36.3909C28.784 36.3566 28.8321 36.3077 28.8655 36.2491C28.8989 36.1905 28.9165 36.1242 28.9164 36.0568L28.9298 26.1448ZM59.1168 31.3129C59.117 31.3469 59.1082 31.3802 59.0911 31.4096C59.0741 31.439 59.0495 31.4633 59.02 31.4799L56.8217 32.7461C56.7923 32.7631 56.7589 32.7721 56.7249 32.7721C56.6909 32.7721 56.6574 32.7631 56.628 32.7461L54.4298 31.4799C54.4027 31.4616 54.3807 31.4366 54.3661 31.4074C54.3515 31.3781 54.3446 31.3456 54.3462 31.3129V28.7706C54.346 28.737 54.3545 28.704 54.3709 28.6747C54.3873 28.6454 54.4111 28.6209 54.4398 28.6036L56.6347 27.3341C56.6641 27.3171 56.6975 27.3081 56.7315 27.3081C56.7656 27.3081 56.799 27.3171 56.8284 27.3341L59.0266 28.6036C59.056 28.6205 59.0804 28.6448 59.0974 28.6741C59.1144 28.7035 59.1234 28.7367 59.1235 28.7706L59.1168 31.3129ZM59.7115 12.5245C59.6529 12.4922 59.5869 12.4756 59.52 12.4763C59.453 12.4771 59.3875 12.4952 59.3296 12.5288C59.2717 12.5625 59.2236 12.6105 59.1898 12.6683C59.156 12.7261 59.1378 12.7916 59.1369 12.8586V22.6737C59.1366 22.7209 59.124 22.7672 59.1003 22.8081C59.0766 22.8489 59.0427 22.8828 59.0018 22.9065C58.9609 22.9301 58.9146 22.9427 58.8674 22.9429C58.8202 22.943 58.7737 22.9309 58.7327 22.9076L57.1291 21.9855C57.0118 21.9178 56.8787 21.8821 56.7432 21.8821C56.6078 21.8821 56.4747 21.9178 56.3574 21.9855L49.9565 25.677C49.8389 25.7446 49.7411 25.8419 49.6731 25.9592C49.6051 26.0764 49.5692 26.2096 49.569 26.3452V33.735C49.5695 33.8705 49.6056 34.0035 49.6736 34.1207C49.7416 34.238 49.8391 34.3353 49.9565 34.4031L56.3507 38.098C56.4681 38.1654 56.6012 38.2009 56.7366 38.2009C56.872 38.2009 57.005 38.1654 57.1224 38.098L63.5233 34.3998C63.6407 34.332 63.7382 34.2346 63.8062 34.1174C63.8742 34.0002 63.9103 33.8671 63.9108 33.7316V15.3174C63.9093 15.1808 63.8717 15.0472 63.8019 14.9298C63.7321 14.8125 63.6325 14.7157 63.5133 14.6492L59.7115 12.5245ZM81.0222 28.7105C81.1392 28.6425 81.2362 28.545 81.3037 28.4278C81.3711 28.3105 81.4065 28.1776 81.4064 28.0423V26.245C81.4065 26.1097 81.3711 25.9768 81.3037 25.8595C81.2362 25.7422 81.1392 25.6448 81.0222 25.5768L74.6747 21.902C74.557 21.8336 74.4233 21.7976 74.2872 21.7976C74.1511 21.7976 74.0174 21.8336 73.8997 21.902L67.4888 25.5802C67.3712 25.6477 67.2734 25.745 67.2054 25.8623C67.1374 25.9796 67.1014 26.1127 67.1012 26.2483V33.6347C67.1021 33.7706 67.1387 33.9038 67.2073 34.0211C67.2759 34.1384 67.3741 34.2355 67.4921 34.3029L73.8396 37.9276C73.9553 37.9929 74.0859 38.0272 74.2187 38.0272C74.3516 38.0272 74.4822 37.9929 74.5979 37.9276L78.4431 35.7895C78.5022 35.756 78.5513 35.7074 78.5854 35.6487C78.6196 35.59 78.6376 35.5233 78.6376 35.4554C78.6376 35.3875 78.6196 35.3209 78.5854 35.2622C78.5513 35.2035 78.5022 35.1549 78.4431 35.1214L72.0188 31.4298C71.9599 31.3962 71.911 31.3476 71.8769 31.2889C71.8429 31.2302 71.825 31.1636 71.8251 31.0958V28.7806C71.825 28.7128 71.8429 28.6461 71.8769 28.5875C71.911 28.5288 71.9599 28.4802 72.0188 28.4465L74.0233 27.2906C74.0807 27.2617 74.1445 27.2477 74.2088 27.25C74.273 27.2524 74.3356 27.2709 74.3908 27.304L76.3952 28.4599C76.4542 28.4935 76.5031 28.5421 76.5371 28.6008C76.5712 28.6595 76.5891 28.7261 76.589 28.794V30.6147C76.5882 30.683 76.6057 30.7502 76.6396 30.8096C76.6734 30.8689 76.7225 30.9181 76.7817 30.9521C76.8409 30.9861 76.9082 31.0038 76.9765 31.0032C77.0448 31.0026 77.1117 30.9838 77.1703 30.9488L81.0222 28.7105Z" fill="#333333"/>
<path d="M74.1798 28.3598C74.2022 28.3469 74.2275 28.3401 74.2533 28.3401C74.2791 28.3401 74.3045 28.3469 74.3268 28.3598L75.5562 29.068C75.5785 29.0809 75.5971 29.0994 75.61 29.1217C75.6229 29.144 75.6297 29.1692 75.6297 29.195V30.6148C75.6297 30.6405 75.6229 30.6658 75.61 30.6881C75.5971 30.7104 75.5785 30.7289 75.5562 30.7417L74.3268 31.45C74.3045 31.4629 74.2791 31.4697 74.2533 31.4697C74.2275 31.4697 74.2022 31.4629 74.1798 31.45L72.9538 30.7417C72.9309 30.7293 72.9117 30.711 72.8982 30.6887C72.8847 30.6664 72.8773 30.6409 72.877 30.6148V29.195C72.877 29.1692 72.8838 29.144 72.8967 29.1217C72.9096 29.0994 72.9282 29.0809 72.9505 29.068L74.1798 28.3598Z" fill="#689F63"/>
<mask id="mask0_6744_66402" style="mask-type:luminance" maskUnits="userSpaceOnUse" x="32" y="21" width="15" height="18">
<path d="M38.8644 21.9222L32.517 25.597C32.3998 25.6647 32.3025 25.7621 32.2351 25.8795C32.1676 25.9968 32.1323 26.1299 32.1328 26.2652V33.6149C32.1323 33.7502 32.1676 33.8833 32.2351 34.0006C32.3025 34.1179 32.3998 34.2153 32.517 34.283L38.8644 37.9578C38.9814 38.025 39.1138 38.0603 39.2486 38.0603C39.3834 38.0603 39.5159 38.025 39.6328 37.9578L45.9803 34.283C46.0975 34.2153 46.1947 34.1179 46.2622 34.0006C46.3296 33.8833 46.3649 33.7502 46.3644 33.6149V26.2652C46.3649 26.1299 46.3296 25.9968 46.2622 25.8795C46.1947 25.7621 46.0975 25.6647 45.9803 25.597L39.6328 21.9222C39.5154 21.8548 39.3824 21.8193 39.247 21.8193C39.1116 21.8193 38.9785 21.8548 38.8611 21.9222" fill="white"/>
</mask>
<g mask="url(#mask0_6744_66402)">
<path d="M52.8131 24.9657L34.8832 16.1829L25.6895 34.9379L43.6193 43.7274L52.8131 24.9657Z" fill="url(#paint0_linear_6744_66402)"/>
</g>
<mask id="mask1_6744_66402" style="mask-type:luminance" maskUnits="userSpaceOnUse" x="32" y="21" width="15" height="18">
<path d="M32.2773 34.0791C32.3393 34.1591 32.4165 34.2261 32.5045 34.2762L37.9767 37.4298L38.8854 37.951C39.02 38.0284 39.1749 38.0633 39.3297 38.0512C39.3805 38.0472 39.4309 38.0383 39.48 38.0245L46.1782 25.7372C46.1255 25.6816 46.0647 25.6343 45.9978 25.5969L41.8319 23.1915L39.6303 21.9254C39.5675 21.8898 39.5 21.8628 39.4299 21.8452L32.2773 34.0791Z" fill="white"/>
</mask>
<g mask="url(#mask1_6744_66402)">
<path d="M24.5234 27.5713L37.1849 44.706L53.9288 32.3452L41.2673 15.2004L24.5234 27.5713Z" fill="url(#paint1_linear_6744_66402)"/>
</g>
<mask id="mask2_6744_66402" style="mask-type:luminance" maskUnits="userSpaceOnUse" x="32" y="21" width="15" height="18">
<path d="M39.1763 21.8252C39.0682 21.8356 38.9635 21.8686 38.8689 21.9221L32.5215 25.5969L39.3634 38.0579C39.4598 38.0446 39.5528 38.0128 39.6373 37.9644L45.9847 34.2896C46.0806 34.2339 46.1633 34.1582 46.2273 34.0677C46.2913 33.9772 46.335 33.874 46.3556 33.7651L39.3968 21.8352C39.3446 21.8301 39.292 21.8301 39.2397 21.8352H39.1796" fill="white"/>
</mask>
<g mask="url(#mask2_6744_66402)">
<path d="M32.5215 21.8218V38.0478H46.3689V21.8218H32.5215Z" fill="url(#paint2_linear_6744_66402)"/>
</g>
</g>
</g>
<defs>
<linearGradient id="paint0_linear_6744_66402" x1="43.8486" y1="19.7306" x2="34.6933" y2="38.4093" gradientUnits="userSpaceOnUse">
<stop offset="0.3" stop-color="#3E863D"/>
<stop offset="0.5" stop-color="#55934F"/>
<stop offset="0.8" stop-color="#5AAD45"/>
</linearGradient>
<linearGradient id="paint1_linear_6744_66402" x1="31.076" y1="35.6653" x2="47.7275" y2="23.3623" gradientUnits="userSpaceOnUse">
<stop offset="0.57" stop-color="#3E863D"/>
<stop offset="0.72" stop-color="#619857"/>
<stop offset="1" stop-color="#76AC64"/>
</linearGradient>
<linearGradient id="paint2_linear_6744_66402" x1="32.6134" y1="29.8272" x2="46.0653" y2="29.8272" gradientUnits="userSpaceOnUse">
<stop offset="0.16" stop-color="#6BBF47"/>
<stop offset="0.38" stop-color="#79B461"/>
<stop offset="0.47" stop-color="#75AC64"/>
<stop offset="0.7" stop-color="#659E5A"/>
<stop offset="0.9" stop-color="#3E863D"/>
</linearGradient>
<clipPath id="clip0_6744_66402">
<rect width="72" height="48" fill="white" transform="translate(12 8.92993)"/>
</clipPath>
<clipPath id="clip1_6744_66402">
<rect width="66.8151" height="48" fill="white" transform="translate(14.5918 8.92993)"/>
</clipPath>
</defs>
</svg>
