<svg width="96" height="65" viewBox="0 0 96 65" fill="none" xmlns="http://www.w3.org/2000/svg">
<rect width="96" height="64" transform="translate(0 0.929932)" fill="white"/>
<g clip-path="url(#clip0_6744_66427)">
<path fill-rule="evenodd" clip-rule="evenodd" d="M26.3866 27.2757C28.6617 27.2757 30.1338 27.6772 30.8699 28.547C31.6059 29.35 31.8067 30.8221 31.4052 32.8296C31.0037 34.9039 30.2007 36.443 29.0632 37.3128C27.9257 38.1827 26.119 38.6511 23.71 38.6511H20.0967L22.3048 27.2757H26.3866ZM12 50.1604H17.8885L19.2937 42.9337H24.3792C26.5874 42.9337 28.461 42.666 29.8662 42.1976C31.3383 41.7292 32.6097 40.9262 33.8141 39.8556C34.8178 38.9188 35.6208 37.9151 36.223 36.8444C36.8253 35.7738 37.2937 34.5024 37.5613 33.2311C38.1636 30.0192 37.6952 27.4764 36.1561 25.7366C34.6171 23.9299 32.0743 23.0601 28.6617 23.0601H17.2862L12 50.1604Z" fill="#6082BB"/>
<path fill-rule="evenodd" clip-rule="evenodd" d="M41.9107 15.7664H47.7992L46.394 22.9931H51.6133C54.8921 22.9931 57.1672 23.5954 58.4386 24.7329C59.71 25.8704 60.0446 27.7441 59.5762 30.2868L57.1003 42.9336H51.1449L53.4869 30.9559C53.7546 29.6177 53.6877 28.6809 53.2193 28.1455C52.7509 27.6771 51.7472 27.4095 50.275 27.4095H45.591L42.5799 42.9336H36.6914L41.9107 15.7664Z" fill="#6082BB"/>
<path fill-rule="evenodd" clip-rule="evenodd" d="M72.5585 27.2757C74.8336 27.2757 76.3057 27.6772 77.0418 28.547C77.7778 29.35 77.9786 30.8221 77.5771 32.8296C77.1756 34.9039 76.3726 36.443 75.2351 37.3128C74.0975 38.1827 72.2908 38.6511 69.8819 38.6511H66.2685L68.4767 27.2757H72.5585ZM58.1719 50.1604H64.0604L65.4656 42.9337H70.5511C72.7592 42.9337 74.6328 42.666 76.038 42.1976C77.5102 41.7292 78.7815 40.9262 79.986 39.8556C80.9897 38.9188 81.7927 37.9151 82.3949 36.8444C82.9972 35.7738 83.4656 34.5024 83.7332 33.2311C84.3354 30.0192 83.867 27.4764 82.328 25.7366C80.789 23.9299 78.2462 23.0601 74.8336 23.0601H63.4581L58.1719 50.1604Z" fill="#6082BB"/>
</g>
<defs>
<clipPath id="clip0_6744_66427">
<rect width="72" height="34.461" fill="white" transform="translate(12 15.6995)"/>
</clipPath>
</defs>
</svg>
