<svg width="96" height="65" viewBox="0 0 96 65" fill="none" xmlns="http://www.w3.org/2000/svg">
<rect width="96" height="64" transform="translate(0 0.929932)" fill="white"/>
<g clip-path="url(#clip0_6744_66435)">
<g clip-path="url(#clip1_6744_66435)">
<path fill-rule="evenodd" clip-rule="evenodd" d="M48.0005 25.8259C44.0645 25.8259 40.8965 28.9939 40.8965 32.9299C40.8965 34.1779 41.2805 35.4259 41.8565 36.3859L54.0485 29.3779C52.8965 27.2659 50.5925 25.8259 48.0005 25.8259Z" fill="#5E98CF"/>
<path fill-rule="evenodd" clip-rule="evenodd" d="M33.7918 32.9299C33.7918 25.0579 40.1278 18.7219 47.9998 18.7219C53.2798 18.7219 57.7918 21.6019 60.2878 25.8259L68.8318 20.9299C68.4478 20.3539 67.9678 19.7779 67.2958 19.3939C61.6318 16.1299 55.8718 12.8659 50.2078 9.60186C48.6718 8.73786 47.2318 8.73786 45.6958 9.60186C43.3918 10.9459 32.0638 17.4739 28.7038 19.3939C27.3598 20.1619 26.5918 21.4099 26.5918 23.0419C26.5918 29.6659 26.5918 36.1939 26.5918 42.8179C26.5918 43.5859 26.7838 44.3539 27.0718 44.9299L35.6158 40.0339C34.4638 37.9219 33.7918 35.5219 33.7918 32.9299Z" fill="#5E98CF"/>
<path d="M41.8555 36.3857C43.1035 38.4977 45.4075 39.9377 47.9995 39.9377C50.6875 39.9377 52.8955 38.4977 54.1435 36.3857L48.0955 32.8337L41.8555 36.3857Z" fill="#044E87"/>
<path d="M48 47.1377C42.72 47.1377 38.112 44.2577 35.712 40.0337L27.168 44.9297C27.552 45.5057 28.032 46.0817 28.704 46.4657C32.064 48.3857 43.392 54.9137 45.696 56.2577C47.232 57.1217 48.672 57.2177 50.208 56.2577C55.872 52.9937 61.536 49.7297 67.296 46.4657C67.968 46.0817 68.544 45.5057 68.832 44.9297L60.288 39.9377C57.888 44.2577 53.28 47.1377 48 47.1377Z" fill="#044E87"/>
<path d="M69.3117 23.0419C69.3117 22.2739 69.1197 21.5059 68.8317 20.9299L48.0957 32.8339L68.9277 44.8339C69.2157 44.2579 69.4077 43.4899 69.4077 42.7219C69.3117 42.8179 69.3117 29.6659 69.3117 23.0419ZM62.3037 33.6979H60.6717V35.3299H59.0397V33.6979H57.4077V32.0659H59.0397V30.4339H60.6717V32.0659H62.3037V33.6979ZM68.2557 33.6979H66.6237V35.3299H64.9917V33.6979H63.3597V32.0659H64.9917V30.4339H66.6237V32.0659H68.2557V33.6979Z" fill="#0062A2"/>
<path d="M66.6234 30.4338H64.9914V32.0658H63.3594V33.6978H64.9914V35.3298H66.6234V33.6978H68.2554V32.0658H66.6234V30.4338Z" fill="white"/>
<path d="M60.6703 30.4338H59.0383V32.0658H57.4062V33.6978H59.0383V35.3298H60.6703V33.6978H62.3023V32.0658H60.6703V30.4338Z" fill="white"/>
<path d="M54.143 36.3859C52.895 38.4979 50.591 39.9379 47.999 39.9379C45.407 39.9379 43.103 38.4979 41.855 36.3859C41.279 35.3299 40.895 34.1779 40.895 32.9299C40.895 28.9939 44.063 25.8259 47.999 25.8259C50.591 25.8259 52.895 27.2659 54.143 29.3779L60.287 25.8259C57.791 21.6019 53.279 18.7219 47.999 18.7219C40.127 18.7219 33.791 25.0579 33.791 32.9299C33.791 35.5219 34.463 37.9219 35.711 40.0339C38.111 44.2579 42.719 47.1379 47.999 47.1379C53.279 47.1379 57.887 44.2579 60.287 40.0339L54.143 36.3859Z" fill="white"/>
</g>
</g>
<defs>
<clipPath id="clip0_6744_66435">
<rect width="72" height="48" fill="white" transform="translate(12 8.92993)"/>
</clipPath>
<clipPath id="clip1_6744_66435">
<rect width="48" height="48" fill="white" transform="translate(24 8.92993)"/>
</clipPath>
</defs>
</svg>
