<svg width="96" height="65" viewBox="0 0 96 65" fill="none" xmlns="http://www.w3.org/2000/svg">
<rect width="96" height="64" transform="translate(0 0.929932)" fill="white"/>
<g clip-path="url(#clip0_6744_66318)">
<g clip-path="url(#clip1_6744_66318)">
<path d="M65.0357 34.2082C65.0357 34.1314 65.0165 34.0546 64.9589 34.0162C64.9013 33.9778 64.8053 33.9586 64.6901 33.9586H64.4981V34.4578H64.7285C64.9397 34.4578 65.0357 34.381 65.0357 34.2082ZM65.3237 35.2642H65.0741L64.9205 34.9186C64.8437 34.7458 64.7477 34.6498 64.6517 34.6498H64.5173V35.2642H64.3061V33.7858H64.7285C64.9205 33.7858 65.0549 33.8242 65.1509 33.901C65.2277 33.9778 65.2661 34.0738 65.2661 34.189C65.2661 34.285 65.2277 34.381 65.1701 34.4386C65.1125 34.5154 65.0165 34.5538 64.9013 34.5922C64.9781 34.6114 65.0741 34.7074 65.1509 34.861L65.3237 35.2642ZM65.7845 34.5346C65.7845 34.2466 65.6885 33.997 65.4965 33.805C65.3045 33.613 65.0549 33.517 64.7669 33.517C64.4789 33.517 64.2293 33.613 64.0373 33.805C63.8453 33.997 63.7493 34.2466 63.7493 34.5346C63.7493 34.8226 63.8453 35.0722 64.0565 35.2642C64.2485 35.4562 64.4981 35.5522 64.7861 35.5522C65.0741 35.5522 65.3045 35.4562 65.5157 35.2642C65.6885 35.0722 65.7845 34.8226 65.7845 34.5346ZM65.9189 34.5346C65.9189 34.861 65.8037 35.1298 65.5733 35.3602C65.3429 35.5906 65.0741 35.6866 64.7477 35.6866C64.4213 35.6866 64.1333 35.5714 63.9221 35.3602C63.7109 35.149 63.5957 34.861 63.5957 34.5346C63.5957 34.2082 63.7109 33.9394 63.9221 33.709C64.1525 33.4786 64.4213 33.3826 64.7477 33.3826C65.0741 33.3826 65.3429 33.4978 65.5733 33.709C65.8037 33.9202 65.9189 34.189 65.9189 34.5346Z" fill="black"/>
<path d="M34.3357 38.6434H33.6253V34.5538C33.6253 34.2274 33.6445 33.8434 33.6829 33.3634H33.6637C33.6061 33.6322 33.5293 33.8242 33.4717 33.9586L31.3981 38.6434H31.0525L28.9597 33.997C28.9021 33.8626 28.8445 33.6514 28.7677 33.3634H28.7485C28.7677 33.613 28.7869 33.997 28.7869 34.5538V38.6434H28.0957V32.5378H29.0365L30.9181 36.8002C31.0525 37.1266 31.1485 37.357 31.1869 37.5298H31.2253C31.3405 37.2034 31.4365 36.9538 31.5133 36.781L33.4333 32.5378H34.3357V38.6434Z" fill="black"/>
<path d="M36.5235 38.6433H35.8323V34.2849H36.5235V38.6433ZM36.6579 32.7297C36.6579 32.8641 36.6195 32.9601 36.5235 33.0561C36.4275 33.1521 36.3315 33.1905 36.1971 33.1905C36.0627 33.1905 35.9667 33.1521 35.8707 33.0561C35.7747 32.9793 35.7363 32.8641 35.7363 32.7297C35.7363 32.5953 35.7747 32.4993 35.8707 32.4033C35.9667 32.3265 36.0627 32.2881 36.1971 32.2881C36.3315 32.2881 36.4275 32.3265 36.5235 32.4225C36.6003 32.4993 36.6579 32.5953 36.6579 32.7297Z" fill="black"/>
<path d="M40.8831 38.4515C40.5567 38.6627 40.1535 38.7587 39.6927 38.7587C39.0591 38.7587 38.5599 38.5475 38.1759 38.1443C37.8111 37.7411 37.6191 37.2227 37.6191 36.5891C37.6191 35.8787 37.8303 35.3027 38.2335 34.8611C38.6367 34.4195 39.1935 34.2083 39.8847 34.2083C40.2687 34.2083 40.5951 34.2851 40.9023 34.4387V35.1491C40.5759 34.9187 40.2303 34.8035 39.8655 34.8035C39.4239 34.8035 39.0591 34.9571 38.7711 35.2643C38.4831 35.5715 38.3295 36.0131 38.3295 36.5315C38.3295 37.0307 38.4639 37.4339 38.7327 37.7411C39.0015 38.0291 39.3663 38.1827 39.8079 38.1827C40.1919 38.1827 40.5375 38.0483 40.8831 37.7987V38.4515Z" fill="black"/>
<path d="M44.2051 34.9953C44.0899 34.8993 43.8979 34.8609 43.6675 34.8609C43.3795 34.8609 43.1491 34.9953 42.9571 35.2449C42.7459 35.5329 42.6307 35.9361 42.6307 36.4353V38.6625H41.9395V34.2849H42.6307V35.1873H42.6499C42.7459 34.8609 42.9187 34.6305 43.1299 34.4577C43.3219 34.3041 43.5523 34.2273 43.8019 34.2273C43.9939 34.2273 44.1283 34.2465 44.2243 34.2849L44.2051 34.9953Z" fill="black"/>
<path d="M48.1021 36.4737C48.1021 35.9169 47.9677 35.4945 47.7181 35.1873C47.4685 34.8993 47.1229 34.7649 46.7005 34.7649C46.2589 34.7649 45.9133 34.8993 45.6637 35.1873C45.3949 35.4945 45.2605 35.9169 45.2605 36.4737C45.2605 36.9921 45.3949 37.4145 45.6637 37.7025C45.9325 37.9905 46.2781 38.1441 46.7197 38.1441C47.1805 38.1441 47.5261 37.9905 47.7757 37.7025C47.9869 37.4337 48.1021 37.0113 48.1021 36.4737ZM48.8125 36.4545C48.8125 37.1457 48.6205 37.7025 48.2173 38.1249C47.8333 38.5473 47.2957 38.7585 46.6237 38.7585C45.9709 38.7585 45.4525 38.5473 45.0685 38.1249C44.7037 37.7217 44.5117 37.1841 44.5117 36.5121C44.5117 35.7441 44.7229 35.1681 45.1453 34.7457C45.5485 34.3617 46.0669 34.1697 46.7197 34.1697C47.3725 34.1697 47.8717 34.3809 48.2365 34.7649C48.6397 35.1873 48.8125 35.7441 48.8125 36.4545Z" fill="black"/>
<path d="M52.2879 37.4913C52.2879 37.8561 52.1535 38.1441 51.8847 38.3745C51.5967 38.6241 51.1935 38.7585 50.6943 38.7585C50.2911 38.7585 49.9263 38.6625 49.6191 38.4897V37.7409C49.9647 38.0097 50.3295 38.1633 50.7519 38.1633C51.3087 38.1633 51.5775 37.9521 51.5775 37.5489C51.5775 37.3761 51.5199 37.2417 51.3855 37.1265C51.2703 37.0113 51.0207 36.8769 50.6751 36.7233C50.3103 36.5697 50.0415 36.3969 49.8879 36.2241C49.6959 36.0129 49.6191 35.7633 49.6191 35.4369C49.6191 35.0721 49.7727 34.7649 50.0415 34.5345C50.3295 34.2849 50.6943 34.1697 51.1551 34.1697C51.5007 34.1697 51.8079 34.2465 52.0959 34.3809V35.0913C51.8079 34.8801 51.4815 34.7841 51.0975 34.7841C50.8671 34.7841 50.6751 34.8417 50.5407 34.9569C50.4063 35.0721 50.3295 35.2257 50.3295 35.3985C50.3295 35.5905 50.3871 35.7441 50.5023 35.8401C50.5983 35.9361 50.8287 36.0513 51.1551 36.2049C51.5199 36.3585 51.7887 36.5313 51.9615 36.6849C52.1727 36.8961 52.2879 37.1649 52.2879 37.4913Z" fill="black"/>
<path d="M56.5497 36.4737C56.5497 35.9169 56.4153 35.4945 56.1657 35.1873C55.9161 34.8993 55.5705 34.7649 55.1481 34.7649C54.7065 34.7649 54.3609 34.8993 54.1113 35.1873C53.8425 35.4945 53.7081 35.9169 53.7081 36.4737C53.7081 36.9921 53.8425 37.4145 54.0921 37.7025C54.3609 37.9905 54.7065 38.1441 55.1481 38.1441C55.6089 38.1441 55.9545 37.9905 56.2041 37.7025C56.4345 37.4337 56.5497 37.0113 56.5497 36.4737ZM57.2601 36.4545C57.2601 37.1457 57.0681 37.7025 56.6649 38.1249C56.2809 38.5473 55.7433 38.7585 55.0905 38.7585C54.4377 38.7585 53.9193 38.5473 53.5353 38.1249C53.1705 37.7217 52.9785 37.1841 52.9785 36.5121C52.9785 35.7441 53.1897 35.1681 53.6121 34.7457C54.0153 34.3617 54.5337 34.1697 55.1865 34.1697C55.8393 34.1697 56.3385 34.3809 56.7033 34.7649C57.0681 35.1873 57.2601 35.7441 57.2601 36.4545Z" fill="black"/>
<path d="M60.3316 32.8066C60.1972 32.7298 60.0436 32.6914 59.8708 32.6914C59.3908 32.6914 59.1412 32.9986 59.1412 33.613V34.285H60.1588V34.8802H59.1412V38.6434H58.45V34.8802H57.7012V34.285H58.45V33.5746C58.45 33.0946 58.6036 32.7106 58.8916 32.4418C59.1412 32.2114 59.4676 32.0962 59.8324 32.0962C60.0436 32.0962 60.2164 32.1154 60.3316 32.173V32.8066Z" fill="black"/>
<path d="M63.0969 38.6049C62.9241 38.7009 62.7129 38.7393 62.4441 38.7393C61.6761 38.7393 61.3113 38.3169 61.3113 37.4529V34.8801H60.5625V34.2849H61.3113V33.2289C61.5417 33.1521 61.7721 33.0753 62.0025 32.9985V34.2849H63.0969V34.8801H62.0025V37.3377C62.0025 37.6257 62.0409 37.8369 62.1561 37.9521C62.2521 38.0865 62.4249 38.1441 62.6553 38.1441C62.8281 38.1441 62.9817 38.1057 63.1161 38.0097V38.6049H63.0969Z" fill="black"/>
<path d="M25.3632 55.6637C25.3632 56.0093 25.248 56.2973 24.9984 56.5469C24.7488 56.7965 24.4608 56.9117 24.096 56.9117C23.7504 56.9117 23.4624 56.7773 23.232 56.5469C23.0016 56.2973 22.8672 56.0093 22.8672 55.6637C22.8672 55.3181 22.9824 55.0109 23.232 54.7613C23.4624 54.5117 23.7696 54.3965 24.096 54.3965C24.4416 54.3965 24.7488 54.5117 24.9984 54.7613C25.248 55.0301 25.3632 55.3181 25.3632 55.6637Z" fill="black"/>
<path d="M40.9922 56.6813H38.7074L30.4514 43.9133C30.2594 43.6061 30.0866 43.2797 29.9522 42.9149H29.8754C29.9522 43.2413 29.9714 43.9901 29.9714 45.1037V56.6621H28.0898V40.6685H30.5282L38.5346 53.2253C38.861 53.7245 39.0722 54.0893 39.1874 54.3005H39.2258C39.149 53.8397 39.1106 53.0525 39.1106 51.9389V40.6685H40.973L40.9922 56.6813Z" fill="black"/>
<path d="M53.0118 56.6813H44.5254V40.6685H52.647V42.3581H46.407V47.6765H52.1862V49.3661H46.407V54.9533H53.0118V56.6813Z" fill="black"/>
<path d="M65.8941 42.3581H61.2861V56.6621H59.4045V42.3581H54.7773V40.6685H65.8749V42.3581H65.8941Z" fill="black"/>
<path d="M40.3613 13.0195C42.1661 18.5491 42.8573 28.4371 48.1565 28.4371C48.5597 28.4371 48.9629 28.3987 49.3661 28.3219C44.5469 27.2083 43.9901 17.4355 41.0525 12.3667C40.8221 12.5779 40.5917 12.7891 40.3613 13.0195Z" fill="url(#paint0_linear_6744_66318)"/>
<path d="M41.0527 12.3668C43.9903 17.4164 44.5663 27.1892 49.3663 28.322C49.7503 28.2452 50.1151 28.1492 50.4991 28.0148C46.1791 25.9028 44.9887 16.418 41.6479 11.8484C41.4559 12.002 41.2447 12.1748 41.0527 12.3668Z" fill="url(#paint1_linear_6744_66318)"/>
<path d="M45.276 9.35229C44.8728 9.35229 44.4696 9.39069 44.0472 9.46749C42.972 9.67869 41.8968 10.1395 40.7832 10.8307C41.0904 11.1187 41.3592 11.4643 41.628 11.8291C42.7416 10.9075 43.8552 10.2163 44.9496 9.81309C45.372 9.65949 45.7752 9.54429 46.1976 9.46749C45.9288 9.39069 45.6024 9.35229 45.276 9.35229Z" fill="#14559A"/>
<path d="M53.8776 26.0563C54.3192 25.7107 54.7608 25.3075 55.2024 24.8851C53.3592 19.3747 52.7064 9.35229 47.3688 9.35229C46.9848 9.35229 46.6008 9.39069 46.2168 9.46749C51.0744 10.6771 51.708 21.2371 53.8776 26.0563Z" fill="url(#paint2_linear_6744_66318)"/>
<path d="M46.2162 9.46749C45.909 9.39069 45.6018 9.35229 45.2754 9.35229H47.3682C46.9842 9.35229 46.6002 9.39069 46.2162 9.46749Z" fill="#3092C4"/>
<path d="M53.7816 27.2275C53.5704 27.0355 53.3784 26.8051 53.1864 26.5747C52.284 27.2083 51.4008 27.6883 50.5176 27.9955C50.8248 28.1491 51.1704 28.2643 51.516 28.3411C51.7848 28.3987 52.0728 28.4179 52.3608 28.4179C53.3592 28.4179 54.1464 28.3027 54.8184 27.9763C54.4344 27.7843 54.0888 27.5347 53.7816 27.2275Z" fill="#1969BC"/>
<path d="M44.9883 9.81313C49.3275 12.0979 49.7115 22.3891 53.1867 26.5747C53.4171 26.4019 53.6475 26.2291 53.8779 26.0563C51.7083 21.2371 51.0939 10.6771 46.2363 9.46753C45.8139 9.54433 45.3915 9.65953 44.9883 9.81313Z" fill="url(#paint3_linear_6744_66318)"/>
<path d="M41.6465 11.8292C44.9873 16.3988 46.1777 25.8836 50.4977 27.9956C51.3809 27.6884 52.2833 27.2084 53.1665 26.5748C49.7105 22.3892 49.3265 12.098 44.9873 9.81323C43.8737 10.2164 42.7601 10.9076 41.6465 11.8292Z" fill="url(#paint4_linear_6744_66318)"/>
<path d="M38.2303 12.885C37.7119 14.0754 37.1743 15.6114 36.5215 17.6466C37.8079 15.8418 39.0751 14.2866 40.3615 13.0194C40.1887 12.4818 39.9967 11.9826 39.8047 11.541C39.2671 11.9442 38.7487 12.3858 38.2303 12.885Z" fill="url(#paint5_linear_6744_66318)"/>
<path d="M40.246 11.1956C40.0924 11.3108 39.9388 11.426 39.7852 11.5412C39.9964 11.9828 40.1692 12.482 40.342 13.0196C40.5724 12.7892 40.8028 12.578 41.0332 12.3668C40.8028 11.9444 40.534 11.5412 40.246 11.1956Z" fill="#2B74B1"/>
<path d="M40.8029 10.8308C40.6109 10.946 40.4381 11.0612 40.2461 11.1956C40.5341 11.5412 40.7837 11.9444 41.0333 12.3668C41.2445 12.1748 41.4365 12.002 41.6477 11.8484C41.3789 11.4644 41.1101 11.1188 40.8029 10.8308Z" fill="#125A9E"/>
<path d="M70.4662 8.92993C68.0086 18.4147 62.863 26.0371 58.5622 27.9571C58.4854 27.9955 58.4086 28.0339 58.3318 28.0531C58.3126 28.0531 58.3126 28.0531 58.3126 28.0723C58.2934 28.0723 58.2742 28.0915 58.255 28.0915C58.2358 28.0915 58.2358 28.0915 58.2166 28.1107C58.1782 28.1299 58.1398 28.1299 58.1014 28.1491C58.0822 28.1491 58.063 28.1683 58.063 28.1683C58.0438 28.1683 58.0246 28.1875 58.0054 28.1875C57.9862 28.1875 57.967 28.2067 57.9478 28.2067C57.9286 28.2067 57.9094 28.2067 57.9094 28.2259C57.871 28.2259 57.8518 28.2451 57.8134 28.2451C57.7942 28.2451 57.7942 28.2451 57.775 28.2643C57.7558 28.2643 57.7366 28.2835 57.7174 28.2835C57.6982 28.2835 57.6982 28.2835 57.679 28.3027C57.6598 28.3027 57.6406 28.3219 57.6022 28.3219C57.5638 28.3219 57.5446 28.3411 57.5254 28.3411C57.7174 28.4179 57.9286 28.4563 58.1398 28.4563C62.2294 28.4563 66.3382 21.1411 73.1542 8.96833L70.4662 8.92993Z" fill="url(#paint6_linear_6744_66318)"/>
<path d="M35.6378 9.73629L35.657 9.71709C35.6762 9.71709 35.6954 9.69789 35.7146 9.69789C35.7146 9.69789 35.7146 9.69789 35.7338 9.69789H35.753C35.7722 9.69789 35.8106 9.67869 35.8298 9.67869C35.8874 9.65949 35.9258 9.64029 35.9834 9.62109H36.0026C36.0218 9.62109 36.041 9.60189 36.0602 9.60189C36.0794 9.60189 36.0794 9.60189 36.0986 9.58269C36.1178 9.58269 36.137 9.56349 36.1754 9.56349C36.1946 9.56349 36.1946 9.56349 36.1946 9.56349C36.2714 9.52509 36.3482 9.50589 36.425 9.48669C36.4442 9.48669 36.4442 9.48669 36.4634 9.48669C36.4826 9.48669 36.5018 9.46749 36.521 9.46749C36.5402 9.46749 36.5402 9.46749 36.5594 9.44829C36.5786 9.44829 36.5978 9.44829 36.617 9.42909H36.6362C36.6746 9.42909 36.7322 9.40989 36.7706 9.40989H36.7898C36.809 9.40989 36.8282 9.40989 36.8474 9.39069C36.8666 9.39069 36.8666 9.39069 36.8858 9.39069C36.905 9.39069 36.9242 9.39069 36.9434 9.39069C36.9626 9.39069 36.9626 9.39069 36.9818 9.39069C37.0202 9.39069 37.0778 9.39069 37.1354 9.37149C37.001 9.35229 36.8474 9.35229 36.6938 9.35229C32.0858 9.35229 25.7498 17.8771 22.9082 28.9363H23.465C24.3866 27.3043 25.193 25.7683 25.9418 24.3283C27.9386 16.4947 32.009 11.1571 35.6378 9.73629Z" fill="url(#paint7_linear_6744_66318)"/>
<path d="M38.2305 12.8851C38.7489 12.3859 39.2865 11.9443 39.8049 11.5411C39.6897 11.2723 39.5553 11.0419 39.4401 10.8115C38.9985 11.3299 38.6145 12.0019 38.2305 12.8851Z" fill="#0D82CA"/>
<path d="M38.5944 9.79402C38.9016 10.0436 39.1704 10.3892 39.4008 10.8116C39.4776 10.7156 39.5544 10.6196 39.6312 10.5428C39.2856 10.2164 38.9208 9.96682 38.5176 9.75562C38.556 9.77482 38.5752 9.79402 38.5944 9.79402Z" fill="#0D82CA"/>
<path d="M25.9414 24.3091C30.1462 16.2451 32.1238 11.1187 35.6374 9.73633C32.0086 11.1571 27.9382 16.4947 25.9414 24.3091Z" fill="url(#paint8_linear_6744_66318)"/>
<path d="M39.6503 10.5427C39.5735 10.6195 39.4967 10.7155 39.4199 10.8115C39.5543 11.0227 39.6695 11.2723 39.7847 11.5411C39.9383 11.4259 40.0919 11.3107 40.2455 11.1955C40.0535 10.9651 39.8615 10.7539 39.6503 10.5427Z" fill="#127BCA"/>
<path d="M27.8417 28.8979C27.8225 28.8979 27.7841 28.8979 27.7649 28.8979H27.7457C27.7265 28.8979 27.7073 28.8979 27.6881 28.8979H27.6689C27.6113 28.8979 27.5729 28.8979 27.5153 28.9171H27.4961C31.7393 28.8019 33.6785 26.6707 34.6385 23.5987C35.3681 21.2563 35.9633 19.2979 36.5009 17.6467C34.7153 20.1427 32.9297 23.1379 31.1441 26.4787C30.2993 28.0723 28.9745 28.7443 27.8417 28.8979Z" fill="url(#paint9_linear_6744_66318)"/>
<path d="M27.8418 28.8981C28.9746 28.7637 30.2802 28.0917 31.1442 26.4789C32.949 23.1381 34.7346 20.1429 36.5202 17.6469C37.173 15.6117 37.6914 14.0757 38.229 12.8853C34.677 16.2453 31.125 21.8517 27.8418 28.8981Z" fill="url(#paint10_linear_6744_66318)"/>
<path d="M25.9416 24.3091C25.1928 25.7491 24.3672 27.3043 23.4648 28.9171H25.0584C25.2696 27.3235 25.5768 25.7683 25.9416 24.3091Z" fill="#05A1E6"/>
<path d="M36.9818 9.39062C36.9626 9.39062 36.9626 9.39062 36.9434 9.39062C36.9242 9.39062 36.905 9.39062 36.8858 9.39062C36.8666 9.39062 36.8666 9.39062 36.8474 9.39062C36.8282 9.39062 36.809 9.39062 36.7898 9.40982C36.7706 9.40982 36.7706 9.40982 36.7706 9.40982C36.7322 9.40982 36.6746 9.42902 36.6362 9.42902H36.617C36.5978 9.42902 36.5786 9.44822 36.5594 9.44822C36.5402 9.44822 36.5402 9.44822 36.521 9.44822C36.5018 9.44822 36.4826 9.44822 36.4634 9.46742C36.4442 9.46742 36.4442 9.46742 36.425 9.46742C36.3482 9.50582 36.2714 9.52502 36.1946 9.54422H36.1754C36.1562 9.54422 36.137 9.56342 36.0986 9.56342C36.0794 9.56342 36.0794 9.56342 36.0602 9.56342C36.041 9.56342 36.0218 9.58263 36.0026 9.58263H35.9834C35.9258 9.60182 35.8874 9.62102 35.8298 9.64022C35.8106 9.64022 35.7914 9.65942 35.753 9.65942C35.7338 9.65942 35.7338 9.65942 35.7146 9.67862C35.6954 9.67862 35.6762 9.69782 35.657 9.69782C35.657 9.69782 35.6378 9.69782 35.6378 9.71702C32.1242 11.0994 30.1466 16.2066 25.9418 24.2898C25.577 25.749 25.2698 27.285 25.0586 28.8978H25.289C25.9226 28.8978 26.0954 28.8978 26.825 28.8978H26.8634H26.9786H27.017H27.0362H27.0554H27.0746H27.0938H27.1322H27.2282H27.3242H27.401H27.4202H27.5546C27.6122 28.8978 27.6506 28.8978 27.7082 28.8786H27.7274C27.7466 28.8786 27.7658 28.8786 27.785 28.8786H27.8042C27.8234 28.8786 27.8618 28.8786 27.881 28.8786C31.1642 21.8322 34.7162 16.2258 38.249 12.8658C38.633 11.9826 39.017 11.3106 39.4394 10.7922C39.1898 10.3698 38.921 10.0242 38.633 9.77463C38.6138 9.77463 38.5946 9.75543 38.5754 9.75543C38.5562 9.75543 38.537 9.73622 38.5178 9.73622C38.4986 9.73622 38.4794 9.71702 38.4602 9.71702C38.441 9.71702 38.4218 9.69782 38.4026 9.69782C38.3834 9.69782 38.3642 9.69782 38.345 9.69782C38.3066 9.67862 38.2874 9.67862 38.249 9.65942C38.2298 9.65942 38.2298 9.64022 38.2106 9.64022C38.1914 9.64022 38.1722 9.62102 38.1338 9.62102C38.1146 9.62102 38.1146 9.62102 38.0954 9.60182C38.057 9.58262 38.0378 9.58262 37.9994 9.56342C37.961 9.54422 37.9226 9.54422 37.8842 9.52502H37.865C37.8266 9.50582 37.8074 9.50582 37.769 9.50582H37.7498C37.673 9.48662 37.5962 9.46742 37.5194 9.44822H37.5002C37.4618 9.44822 37.4426 9.42902 37.4042 9.42902H37.385C37.3466 9.42902 37.3082 9.40982 37.2698 9.40982H37.2314C37.193 9.40982 37.1738 9.40983 37.1354 9.39062C37.097 9.39062 37.0394 9.39062 36.9818 9.39062Z" fill="url(#paint11_linear_6744_66318)"/>
<path d="M60.8477 14.1907C60.0413 16.7827 59.3885 18.9139 58.8125 20.6611C61.0205 17.6083 63.2093 13.7875 65.2829 9.35229C62.8829 10.1203 61.5773 11.8483 60.8477 14.1907Z" fill="url(#paint12_linear_6744_66318)"/>
<path d="M58.8886 27.8035C58.7734 27.8611 58.6582 27.9187 58.543 27.9571C62.8438 26.0371 67.9894 18.4147 70.447 8.92993H69.9478C64.3222 19.0291 62.4982 25.7875 58.8886 27.8035Z" fill="url(#paint13_linear_6744_66318)"/>
<path d="M56.0863 26.9394C57.0271 25.7874 57.7951 23.8482 58.8319 20.6418C57.6223 22.293 56.4127 23.7138 55.2031 24.8658C55.2031 24.8658 55.2031 24.8658 55.2031 24.885C55.4719 25.6914 55.7599 26.3826 56.0863 26.9394Z" fill="#079AE1"/>
<path d="M56.0852 26.9395C55.7588 27.3235 55.4324 27.6307 55.0484 27.8419C54.9716 27.8803 54.8756 27.9379 54.7988 27.9763C55.202 28.1875 55.6244 28.3411 56.1044 28.3987C56.1812 28.3987 56.2388 28.4179 56.3156 28.4179H56.3348C56.3732 28.4179 56.4116 28.4179 56.4308 28.4179H56.45H56.5652H56.6804H56.7188H56.7956C56.8148 28.4179 56.8148 28.4179 56.834 28.4179C56.8532 28.4179 56.8916 28.4179 56.9108 28.4179H56.9492C56.9684 28.4179 57.0068 28.4179 57.026 28.4179H57.0452C57.0836 28.4179 57.1028 28.4179 57.1412 28.3987H57.1604C57.1988 28.3987 57.218 28.3795 57.2564 28.3795H57.2756C57.3524 28.3603 57.41 28.3603 57.4676 28.3411C56.9492 28.1299 56.4884 27.6499 56.0852 26.9395Z" fill="#1969BC"/>
<path d="M48.1367 28.418C48.5399 28.418 48.9431 28.3796 49.3463 28.3028C49.7303 28.226 50.0951 28.13 50.4791 27.9956C50.7863 28.1492 51.1319 28.2644 51.4775 28.3412C51.7463 28.3988 52.0343 28.418 52.3223 28.418H48.1367Z" fill="#1E5CB3"/>
<path d="M52.3418 28.4179C53.3402 28.4179 54.1274 28.3027 54.7994 27.9763C55.2026 28.1875 55.625 28.3411 56.105 28.3987C56.1818 28.3987 56.2394 28.4179 56.3162 28.4179H56.3354C56.3738 28.4179 56.4122 28.4179 56.4314 28.4179H56.4506H56.5658H52.3418Z" fill="#1E5CB3"/>
<path d="M56.5664 28.4179H56.6816H56.72H56.7968C56.816 28.4179 56.816 28.4179 56.8352 28.4179C56.8544 28.4179 56.8928 28.4179 56.912 28.4179H56.9504C56.9696 28.4179 57.008 28.4179 57.0272 28.4179H57.0464C57.0848 28.4179 57.104 28.4179 57.1424 28.3987C57.1616 28.3987 57.1616 28.3987 57.1616 28.3987C57.2 28.3987 57.2192 28.3795 57.2576 28.3795H57.2768C57.3536 28.3603 57.4112 28.3603 57.4688 28.3411C57.6608 28.4179 57.872 28.4563 58.0832 28.4563L56.5664 28.4179Z" fill="#1D60B5"/>
<path d="M55.2035 24.8853C54.7619 25.3077 54.3203 25.6917 53.8787 26.0373C53.6483 26.2293 53.4179 26.4021 53.1875 26.5557C53.3795 26.7861 53.5715 26.9973 53.7827 27.2085C54.0899 27.5157 54.4355 27.7653 54.8003 27.9765C54.8771 27.9381 54.9731 27.8805 55.0499 27.8421C55.4339 27.6309 55.7603 27.3237 56.0867 26.9397C55.7603 26.3829 55.4723 25.6917 55.2035 24.8853Z" fill="#175FAB"/>
<path d="M68.3931 8.92993H66.3003H66.0891H65.8971C65.7627 8.92993 65.6283 8.94913 65.4939 8.94913C65.4363 9.08353 65.3787 9.21793 65.3019 9.35233C63.2283 13.7683 61.0395 17.6083 58.8315 20.6611C57.7947 23.8675 57.0267 25.8067 56.0859 26.9587C56.4891 27.6499 56.9499 28.1299 57.5067 28.3219C57.5259 28.3219 57.5451 28.3219 57.5451 28.3027C57.5643 28.3027 57.5643 28.3027 57.5835 28.3027C57.6027 28.3027 57.6219 28.2835 57.6603 28.2835C57.6795 28.2835 57.6795 28.2835 57.6987 28.2643C57.7179 28.2643 57.7371 28.2451 57.7563 28.2451C57.7755 28.2451 57.7755 28.2451 57.7947 28.2259C57.8331 28.2067 57.8523 28.2067 57.8907 28.2067C57.9099 28.2067 57.9291 28.1875 57.9291 28.1875C57.9483 28.1875 57.9675 28.1683 57.9867 28.1683C58.0059 28.1683 58.0251 28.1491 58.0443 28.1491C58.0635 28.1491 58.0827 28.1299 58.0827 28.1299C58.1211 28.1107 58.1595 28.1107 58.1979 28.0915C58.2171 28.0915 58.2171 28.0915 58.2363 28.0723C58.2555 28.0723 58.2747 28.0531 58.2939 28.0531C58.2939 28.0531 58.3131 28.0531 58.3131 28.0339C58.3899 27.9955 58.4667 27.9763 58.5435 27.9379C58.6587 27.8803 58.7739 27.8419 58.8891 27.7843C62.4987 25.7875 64.3035 19.0291 69.9675 8.92993H68.3931Z" fill="url(#paint14_linear_6744_66318)"/>
<path d="M37.1348 9.37158H37.154C37.1732 9.37158 37.1924 9.37158 37.2116 9.37158H37.2308C37.2692 9.37158 37.3076 9.39078 37.346 9.39078H37.3652C37.4036 9.39078 37.4228 9.40998 37.4612 9.40998H37.4804C37.5572 9.42918 37.634 9.44838 37.7108 9.46758H37.73C37.8068 9.50598 37.826 9.50598 37.8644 9.52518C37.8836 9.52518 37.8836 9.52518 37.8836 9.52518C37.922 9.54438 37.9604 9.54438 37.9988 9.56358C38.0372 9.58278 38.0564 9.58278 38.0948 9.60198C38.114 9.60198 38.114 9.60198 38.1332 9.62118C38.1524 9.64038 38.1716 9.64038 38.21 9.64038C38.2292 9.64038 38.2292 9.64038 38.2484 9.65958C38.2868 9.67878 38.306 9.67878 38.3444 9.69798C38.3636 9.69798 38.3636 9.69798 38.3828 9.71718C38.402 9.71718 38.4212 9.73638 38.4404 9.73638C38.4596 9.73638 38.4788 9.75558 38.498 9.75558C38.5172 9.75558 38.5364 9.77478 38.5556 9.77478C38.9588 9.96678 39.3236 10.2356 39.6692 10.562C39.8036 10.4276 39.9188 10.3124 40.0724 10.1972C39.3236 9.65958 38.4788 9.37158 37.4996 9.37158C37.3652 9.37158 37.25 9.37158 37.1348 9.37158Z" fill="#7DCBEC"/>
<path d="M39.6504 10.5426C39.8616 10.7346 40.0536 10.9458 40.2456 11.1954C40.4376 11.061 40.6104 10.9458 40.8024 10.8306C40.572 10.6002 40.3032 10.3698 40.0536 10.197C39.9192 10.293 39.7848 10.4274 39.6504 10.5426Z" fill="#5EC5ED"/>
<path d="M37.135 9.37165C37.2502 9.35245 37.3654 9.35245 37.4806 9.35245C38.4598 9.35245 39.3046 9.65965 40.0534 10.1781C40.8406 9.56365 41.8006 9.33325 43.1254 9.33325H36.6934C36.847 9.35245 37.0006 9.37165 37.135 9.37165Z" fill="url(#paint15_linear_6744_66318)"/>
<path d="M43.1072 9.35229C41.7824 9.35229 40.8224 9.56349 40.0352 10.1971C40.304 10.3891 40.5536 10.6003 40.784 10.8307C41.8784 10.1395 42.9728 9.67869 44.048 9.46749C44.4512 9.39069 44.8736 9.35229 45.2576 9.35229H43.1072Z" fill="url(#paint16_linear_6744_66318)"/>
<path d="M58.8323 20.6612C59.4083 18.914 60.0611 16.7828 60.8675 14.1908C61.5971 11.8676 62.8835 10.1204 65.3027 9.35242C65.3603 9.21802 65.4179 9.08362 65.4947 8.94922C61.5395 9.17962 59.6963 11.1956 58.7747 14.1716C57.1427 19.3556 56.1635 22.7348 55.2227 24.8852C56.4131 23.7332 57.6227 22.3124 58.8323 20.6612Z" fill="url(#paint17_linear_6744_66318)"/>
<path d="M64.6104 27.0356H64.1688V28.418H63.9768V27.0356H63.5352V26.8628H64.6104V27.0356Z" fill="black"/>
<path d="M66.453 28.437H66.2802V27.4002C66.2802 27.3234 66.2802 27.2082 66.2994 27.093C66.2802 27.1698 66.261 27.2082 66.2418 27.2466L65.7042 28.437H65.6082L65.0706 27.2466C65.0514 27.2082 65.0322 27.1506 65.0322 27.093C65.0322 27.1506 65.0322 27.2658 65.0322 27.4002V28.437H64.8594V26.8818H65.109L65.589 27.9762C65.6274 28.053 65.6466 28.1298 65.6658 28.1682C65.7042 28.0914 65.7234 28.0146 65.7426 27.9762L66.2226 26.901H66.453V28.437Z" fill="black"/>
</g>
</g>
<defs>
<linearGradient id="paint0_linear_6744_66318" x1="44.8601" y1="9.22744" x2="44.8601" y2="33.1844" gradientUnits="userSpaceOnUse">
<stop stop-color="#0994DC"/>
<stop offset="0.35" stop-color="#66CEF5"/>
<stop offset="0.8462" stop-color="#127BCA"/>
<stop offset="1" stop-color="#127BCA"/>
</linearGradient>
<linearGradient id="paint1_linear_6744_66318" x1="45.7722" y1="8.61901" x2="45.7722" y2="33.1867" gradientUnits="userSpaceOnUse">
<stop stop-color="#0E76BC"/>
<stop offset="0.36" stop-color="#36AEE8"/>
<stop offset="0.8462" stop-color="#00ADEF"/>
<stop offset="1" stop-color="#00ADEF"/>
</linearGradient>
<linearGradient id="paint2_linear_6744_66318" x1="50.7109" y1="27.8741" x2="50.7109" y2="8.32584" gradientUnits="userSpaceOnUse">
<stop stop-color="#1C63B7"/>
<stop offset="0.5" stop-color="#33BDF2"/>
<stop offset="1" stop-color="#33BDF2" stop-opacity="0.4196"/>
</linearGradient>
<linearGradient id="paint3_linear_6744_66318" x1="49.4267" y1="6.13244" x2="49.4267" y2="31.6414" gradientUnits="userSpaceOnUse">
<stop stop-color="#166AB8"/>
<stop offset="0.4" stop-color="#36AEE8"/>
<stop offset="0.8462" stop-color="#0798DD"/>
<stop offset="1" stop-color="#0798DD"/>
</linearGradient>
<linearGradient id="paint4_linear_6744_66318" x1="47.415" y1="6.26584" x2="47.415" y2="33.3902" gradientUnits="userSpaceOnUse">
<stop stop-color="#124379"/>
<stop offset="0.39" stop-color="#1487CB"/>
<stop offset="0.7802" stop-color="#165197"/>
<stop offset="1" stop-color="#165197"/>
</linearGradient>
<linearGradient id="paint5_linear_6744_66318" x1="36.5213" y1="14.5903" x2="40.3565" y2="14.5903" gradientUnits="userSpaceOnUse">
<stop stop-color="#33BDF2" stop-opacity="0.698"/>
<stop offset="1" stop-color="#1DACD8"/>
</linearGradient>
<linearGradient id="paint6_linear_6744_66318" x1="65.3205" y1="27.3835" x2="65.3205" y2="8.34056" gradientUnits="userSpaceOnUse">
<stop stop-color="#136AB4"/>
<stop offset="0.6" stop-color="#59CAF5" stop-opacity="0.549"/>
<stop offset="1" stop-color="#59CAF5" stop-opacity="0.2353"/>
</linearGradient>
<linearGradient id="paint7_linear_6744_66318" x1="22.9123" y1="19.1416" x2="37.1362" y2="19.1416" gradientUnits="userSpaceOnUse">
<stop stop-color="#05A1E6" stop-opacity="0.2471"/>
<stop offset="1" stop-color="#05A1E6"/>
</linearGradient>
<linearGradient id="paint8_linear_6744_66318" x1="30.7904" y1="27.8635" x2="30.7904" y2="8.36456" gradientUnits="userSpaceOnUse">
<stop stop-color="#318ED5"/>
<stop offset="1" stop-color="#38A7E4"/>
</linearGradient>
<linearGradient id="paint9_linear_6744_66318" x1="32.0162" y1="27.9333" x2="32.0162" y2="8.98057" gradientUnits="userSpaceOnUse">
<stop stop-color="#05A1E6"/>
<stop offset="1" stop-color="#05A1E6" stop-opacity="0.549"/>
</linearGradient>
<linearGradient id="paint10_linear_6744_66318" x1="33.0356" y1="28.8968" x2="33.0356" y2="12.88" gradientUnits="userSpaceOnUse">
<stop stop-color="#1959A6"/>
<stop offset="0.5" stop-color="#05A1E6"/>
<stop offset="0.9176" stop-color="#7EC5EA"/>
<stop offset="1" stop-color="#7EC5EA"/>
</linearGradient>
<linearGradient id="paint11_linear_6744_66318" x1="33.6524" y1="27.8737" x2="28.2243" y2="11.2814" gradientUnits="userSpaceOnUse">
<stop stop-color="#165096"/>
<stop offset="1" stop-color="#0D82CA"/>
</linearGradient>
<linearGradient id="paint12_linear_6744_66318" x1="62.0624" y1="18.0555" x2="62.0624" y2="8.98095" gradientUnits="userSpaceOnUse">
<stop stop-color="#05A1E6"/>
<stop offset="0.8736" stop-color="#0495D6"/>
<stop offset="1" stop-color="#0495D6"/>
</linearGradient>
<linearGradient id="paint13_linear_6744_66318" x1="66.3284" y1="8.13947" x2="57.8698" y2="26.9197" gradientUnits="userSpaceOnUse">
<stop stop-color="#38A7E4" stop-opacity="0.3294"/>
<stop offset="0.9615" stop-color="#0E88D3"/>
<stop offset="1" stop-color="#0E88D3"/>
</linearGradient>
<linearGradient id="paint14_linear_6744_66318" x1="63.0208" y1="8.87343" x2="63.0208" y2="28.6713" gradientUnits="userSpaceOnUse">
<stop stop-color="#168CD4"/>
<stop offset="0.5" stop-color="#1C87CC"/>
<stop offset="1" stop-color="#154B8D"/>
</linearGradient>
<linearGradient id="paint15_linear_6744_66318" x1="37.7721" y1="8.46637" x2="37.8578" y2="10.5428" gradientUnits="userSpaceOnUse">
<stop stop-color="#97D6EE"/>
<stop offset="0.7033" stop-color="#55C1EA"/>
<stop offset="1" stop-color="#55C1EA"/>
</linearGradient>
<linearGradient id="paint16_linear_6744_66318" x1="40.4093" y1="10.7372" x2="40.797" y2="8.53829" gradientUnits="userSpaceOnUse">
<stop stop-color="#7ACCEC"/>
<stop offset="1" stop-color="#3FB7ED"/>
</linearGradient>
<linearGradient id="paint17_linear_6744_66318" x1="60.3452" y1="9.97172" x2="60.3452" y2="29.3366" gradientUnits="userSpaceOnUse">
<stop stop-color="#1DA7E7"/>
<stop offset="1" stop-color="#37ABE7" stop-opacity="0"/>
</linearGradient>
<clipPath id="clip0_6744_66318">
<rect width="72" height="48" fill="white" transform="translate(12 8.92993)"/>
</clipPath>
<clipPath id="clip1_6744_66318">
<rect width="50.2656" height="48" fill="white" transform="translate(22.8672 8.92993)"/>
</clipPath>
</defs>
</svg>
