<svg width="96" height="65" viewBox="0 0 96 65" fill="none" xmlns="http://www.w3.org/2000/svg">
<rect width="96" height="64" transform="translate(0 0.929932)" fill="white"/>
<g clip-path="url(#clip0_6744_66393)">
<path d="M39.1418 33.064C39.1418 30.8587 38.5132 29.7252 37.256 29.6634C36.7511 29.6428 36.2667 29.7149 35.7927 29.9004C35.4114 30.0344 35.1538 30.1683 35.0199 30.3023V35.5681C35.8236 36.073 36.545 36.31 37.1633 36.2688C38.4823 36.1967 39.1418 35.125 39.1418 33.064ZM40.6978 33.1567C40.6978 34.28 40.4299 35.2074 39.9044 35.9493C39.317 36.784 38.4926 37.2168 37.4518 37.2375C36.6686 37.2684 35.8545 37.0107 35.0199 36.4955V41.2873L33.6699 40.8029V30.1786C33.8966 29.9107 34.1749 29.6737 34.5252 29.4779C35.329 29.0142 36.308 28.7669 37.4518 28.7566L37.4724 28.7772C38.5235 28.7669 39.3376 29.1997 39.9044 30.0653C40.4299 30.8691 40.6978 31.8995 40.6978 33.1567ZM48.952 36.2997C48.952 37.8042 48.7974 38.845 48.4986 39.4221C48.1998 39.9992 47.6227 40.4629 46.7674 40.8132C46.077 41.0812 45.335 41.2357 44.5312 41.2563L44.3045 40.401C45.1186 40.2877 45.6957 40.1743 46.0254 40.0713C46.6849 39.8446 47.1281 39.5045 47.3754 39.0511C47.5712 38.6801 47.6742 37.9691 47.6742 36.9283V36.5779C46.7674 36.9901 45.7678 37.2065 44.7682 37.2065C44.1293 37.2168 43.5007 36.9901 43.0061 36.5779C42.4393 36.1245 42.1508 35.5372 42.1508 34.8364V29.2203L43.5008 28.7566V34.4139C43.5008 35.0219 43.6965 35.4856 44.0881 35.8154C44.4797 36.1451 44.9846 36.2997 45.6029 36.2894C46.2212 36.2791 46.891 36.0318 47.5918 35.5681V28.973H48.9417L48.952 36.2997ZM54.2281 37.1756L53.785 37.1962C53.0224 37.1962 52.4248 37.0107 52.0023 36.6501C51.5798 36.2894 51.3634 35.7742 51.3634 35.1353V29.818H50.4359V28.973H51.3634V26.7059L52.7133 26.2216V28.9627H54.2281V29.8077H52.7133V35.094C52.7133 35.599 52.8473 35.9596 53.1255 36.1657C53.3625 36.3409 53.7335 36.4337 54.2384 36.4646V37.1756H54.2281ZM62.4102 37.0623H61.0602V31.848C61.0602 31.3122 60.9366 30.8587 60.6892 30.4775C60.4007 30.0447 60.0091 29.8283 59.5042 29.8283C58.8859 29.8283 58.113 30.158 57.1856 30.8072V37.052H55.8357V24.5934L57.1753 24.1709V29.8489C58.0409 29.2203 58.9786 28.9008 60.0091 28.9008C60.7202 28.9008 61.3075 29.1378 61.7506 29.6222C62.1937 30.1065 62.4205 30.7042 62.4205 31.4152L62.4102 37.0623ZM69.5926 32.8579C69.5926 32.0129 69.4278 31.3122 69.1083 30.7557C68.727 30.0756 68.1293 29.7252 67.3359 29.684C65.852 29.7664 65.1203 30.8278 65.1203 32.8579C65.1203 33.7956 65.2749 34.5685 65.584 35.1971C65.9756 35.9906 66.5733 36.3821 67.3668 36.3718C68.8404 36.3615 69.5926 35.1868 69.5926 32.8579ZM71.0662 32.8682C71.0662 34.0739 70.7571 35.0837 70.1388 35.8875C69.4587 36.784 68.5209 37.2375 67.3256 37.2375C66.1405 37.2375 65.2131 36.784 64.5536 35.8875C63.9456 35.0837 63.6467 34.0842 63.6467 32.8682C63.6467 31.7347 63.9765 30.7763 64.6257 30.0034C65.3161 29.1791 66.2229 28.7669 67.3462 28.7669C68.4694 28.7669 69.3865 29.1791 70.0873 30.0034C70.7365 30.7763 71.0662 31.7244 71.0662 32.8682ZM78.8155 37.0623H77.4655V31.5492C77.4655 30.9412 77.2801 30.4775 76.9194 30.1374C76.5587 29.7973 76.0744 29.6325 75.4664 29.6531C74.8275 29.6634 74.2195 29.8798 73.6424 30.2817V37.0726H72.2822V30.1065C73.0551 29.5397 73.7764 29.1688 74.4256 28.9936C75.0439 28.8287 75.5901 28.7566 76.0538 28.7566C76.3732 28.7566 76.6721 28.7875 76.9606 28.8493C77.4965 28.973 77.919 29.1997 78.259 29.5294C78.63 29.9004 78.8155 30.3435 78.8155 30.8587V37.0623Z" fill="#646464"/>
<path d="M20.3257 24.645C19.6353 24.645 18.9655 24.7068 18.3781 24.8099C16.6572 25.1087 16.3481 25.7476 16.3481 26.9224V28.4681H20.4185V28.9834H14.823C13.6379 28.9834 12.6074 29.6944 12.288 31.0443C11.917 32.5901 11.8964 33.5587 12.288 35.1766C12.5765 36.3822 13.2669 37.2375 14.452 37.2375H15.8534V35.3827C15.8534 34.043 17.0179 32.858 18.3884 32.858H22.4485C23.5821 32.858 24.4786 31.9306 24.4786 30.797V26.9224C24.4786 25.8198 23.5512 24.9954 22.4485 24.8099C21.7478 24.6965 21.0368 24.645 20.3257 24.645ZM18.1308 25.8919C18.5533 25.8919 18.8934 26.2423 18.8934 26.6648C18.8934 27.0873 18.5533 27.4376 18.1308 27.4376C17.7083 27.4376 17.3683 27.0873 17.3683 26.6648C17.3683 26.2423 17.7083 25.8919 18.1308 25.8919Z" fill="url(#paint0_linear_6744_66393)"/>
<path d="M24.9826 28.9937V30.797C24.9826 32.1985 23.7975 33.3732 22.4476 33.3732H18.3875C17.2746 33.3732 16.3574 34.3213 16.3574 35.4342V39.3088C16.3574 40.4114 17.3158 41.0606 18.3875 41.3698C19.6756 41.7511 20.9122 41.8129 22.4476 41.3698C23.4678 41.0709 24.4776 40.4733 24.4776 39.3088V37.7631H20.4175V37.2478H26.5077C27.6928 37.2478 28.1256 36.4235 28.5378 35.1869C28.9603 33.9091 28.9396 32.6931 28.5378 31.0546C28.2492 29.8799 27.6928 28.9937 26.5077 28.9937H24.9826ZM22.7052 38.7936C23.1277 38.7936 23.4678 39.1439 23.4678 39.5664C23.4678 39.9992 23.1277 40.3393 22.7052 40.3393C22.2827 40.3393 21.9427 39.9889 21.9427 39.5664C21.9323 39.1439 22.2827 38.7936 22.7052 38.7936Z" fill="url(#paint1_linear_6744_66393)"/>
<path d="M81.4437 27.757H81.6807V26.2731H82.2372V26.0979H80.877V26.2731H81.4334L81.4437 27.757ZM82.4536 27.757H82.6597V26.3967L83.1028 27.757H83.3295L83.7829 26.407V27.757H83.9993V26.0979H83.7108L83.2058 27.52L82.7834 26.0979H82.4536V27.757Z" fill="#646464"/>
</g>
<defs>
<linearGradient id="paint0_linear_6744_66393" x1="11.581" y1="25.1276" x2="20.8803" y2="33.2057" gradientUnits="userSpaceOnUse">
<stop stop-color="#5A9FD4"/>
<stop offset="1" stop-color="#306998"/>
</linearGradient>
<linearGradient id="paint1_linear_6744_66393" x1="24.4906" y1="38.1164" x2="21.1697" y2="33.3727" gradientUnits="userSpaceOnUse">
<stop stop-color="#FFD43B"/>
<stop offset="1" stop-color="#FFE873"/>
</linearGradient>
<clipPath id="clip0_6744_66393">
<rect width="72" height="17.5182" fill="white" transform="translate(12 24.1709)"/>
</clipPath>
</defs>
</svg>
