<svg width="96" height="65" viewBox="0 0 96 65" fill="none" xmlns="http://www.w3.org/2000/svg">
<rect width="96" height="64" transform="translate(0 0.929932)" fill="white"/>
<g clip-path="url(#clip0_6744_66450)">
<path fill-rule="evenodd" clip-rule="evenodd" d="M17.6352 27.7472C17.4961 27.7472 17.4613 27.6776 17.5309 27.5732L18.2613 26.6341C18.3309 26.5298 18.5048 26.4602 18.6439 26.4602H31.0613C31.2004 26.4602 31.2352 26.5646 31.1657 26.6689L30.5744 27.5732C30.5048 27.6776 30.3309 27.7819 30.2265 27.7819L17.6352 27.7472Z" fill="#00ACD7"/>
<path fill-rule="evenodd" clip-rule="evenodd" d="M12.3833 30.9474C12.2441 30.9474 12.2094 30.8778 12.2789 30.7734L13.0094 29.8343C13.0789 29.73 13.2528 29.6604 13.392 29.6604H29.2528C29.392 29.6604 29.4615 29.7647 29.4267 29.8691L29.1485 30.7039C29.1137 30.843 28.9746 30.9126 28.8354 30.9126L12.3833 30.9474Z" fill="#00ACD7"/>
<path fill-rule="evenodd" clip-rule="evenodd" d="M20.8012 34.1473C20.6621 34.1473 20.6273 34.043 20.6969 33.9386L21.1838 33.069C21.2534 32.9647 21.3925 32.8604 21.5317 32.8604H28.4882C28.6273 32.8604 28.6969 32.9647 28.6969 33.1038L28.6273 33.9386C28.6273 34.0777 28.4882 34.1821 28.3838 34.1821L20.8012 34.1473Z" fill="#00ACD7"/>
<path fill-rule="evenodd" clip-rule="evenodd" d="M56.9042 27.1212C54.7129 27.6777 53.2173 28.0951 51.0608 28.6516C50.539 28.7908 50.5042 28.8255 50.0521 28.3038C49.5303 27.7125 49.1477 27.3299 48.4173 26.9821C46.226 25.9038 44.1042 26.2168 42.1216 27.5038C39.7564 29.0342 38.539 31.2951 38.5738 34.1125C38.6086 36.8951 40.5216 39.1908 43.2695 39.5734C45.6347 39.8864 47.6173 39.0516 49.1825 37.2777C49.4955 36.8951 49.7738 36.4777 50.1216 35.9908C48.8695 35.9908 47.3042 35.9908 43.4086 35.9908C42.6781 35.9908 42.5042 35.5386 42.7477 34.9473C43.1999 33.869 44.0347 32.0603 44.5216 31.156C44.626 30.9473 44.8695 30.5995 45.3912 30.5995H58.0521C57.9825 31.5386 57.9825 32.4777 57.8434 33.4168C57.4608 35.9212 56.5216 38.2168 54.9912 40.2342C52.4868 43.5386 49.2173 45.5908 45.0781 46.1473C41.6695 46.5994 38.5042 45.9386 35.7216 43.8516C33.1477 41.9038 31.6868 39.3299 31.3042 36.1299C30.8521 32.3386 31.9651 28.9299 34.2608 25.9386C36.7303 22.7038 39.9999 20.6516 43.9999 19.9212C47.2695 19.3299 50.3999 19.7125 53.2173 21.6255C55.0608 22.8429 56.3825 24.5125 57.2521 26.5299C57.4608 26.8429 57.3216 27.0168 56.9042 27.1212Z" fill="#00ACD7"/>
<path d="M68.4167 46.3559C65.2515 46.2863 62.3645 45.382 59.9297 43.295C57.8776 41.5211 56.5906 39.2603 56.1732 36.582C55.5471 32.6516 56.6254 29.1733 58.9906 26.0777C61.5297 22.7385 64.5906 20.9994 68.7297 20.269C72.2776 19.6429 75.6167 19.9907 78.6428 22.0429C81.3906 23.9211 83.095 26.4603 83.5471 29.7994C84.1384 34.495 82.7819 38.3211 79.5471 41.5907C77.2515 43.9211 74.4341 45.382 71.1993 46.0429C70.2602 46.2168 69.321 46.2516 68.4167 46.3559ZM76.695 32.3037C76.6602 31.8516 76.6602 31.5037 76.5906 31.1559C75.9645 27.7124 72.7993 25.7646 69.495 26.5298C66.2602 27.2603 64.1732 29.3124 63.408 32.582C62.7819 35.295 64.1037 38.0429 66.608 39.1559C68.521 39.9907 70.4341 39.8863 72.2776 38.9472C75.0254 37.5211 76.521 35.295 76.695 32.3037Z" fill="#00ACD7"/>
</g>
<defs>
<clipPath id="clip0_6744_66450">
<rect width="72" height="27.1304" fill="white" transform="translate(12 19.3647)"/>
</clipPath>
</defs>
</svg>
