<svg width="95" height="30" viewBox="0 0 95 30" fill="none" xmlns="http://www.w3.org/2000/svg">
<path d="M2.83379 1.07457C2.55264 0.599203 1.93937 0.441755 1.464 0.722902C0.988632 1.00405 0.831184 1.61733 1.11233 2.09269L2.83379 1.07457ZM24.439 22.4795L24.7081 21.5164L24.439 22.4795ZM42.7861 18.5438L43.5778 19.1548L42.7861 18.5438ZM42.7847 2.50005L42.313 3.38177L42.7847 2.50005ZM33.9982 4.49993L33.3008 3.78317L33.3002 3.78375L33.9982 4.49993ZM29.6409 19.4326L28.6771 19.6995L28.6974 19.7728L28.7286 19.8423L29.6409 19.4326ZM47.6145 28.1547L47.5318 27.1581L47.6145 28.1547ZM66.4381 21.7324L66.0267 20.8209L66.4381 21.7324ZM94.2881 8.33596C94.3819 7.79171 94.0168 7.27441 93.4726 7.18053L84.6036 5.65072C84.0593 5.55684 83.542 5.92194 83.4481 6.46619C83.3543 7.01044 83.7194 7.52774 84.2636 7.62161L92.1472 8.98145L90.7874 16.865C90.6935 17.4093 91.0586 17.9266 91.6028 18.0205C92.1471 18.1143 92.6644 17.7492 92.7583 17.205L94.2881 8.33596ZM1.11233 2.09269C6.63644 11.433 14.1238 20.6354 24.1699 23.4426L24.7081 21.5164C15.4612 18.9325 8.31754 10.3466 2.83379 1.07457L1.11233 2.09269ZM24.1699 23.4426C26.8713 24.1974 30.5885 24.5339 34.1695 24.0044C37.7376 23.4768 41.3336 22.0624 43.5778 19.1548L41.9945 17.9328C40.1944 20.265 37.1866 21.5365 33.877 22.0259C30.5803 22.5133 27.1461 22.1976 24.7081 21.5164L24.1699 23.4426ZM43.5778 19.1548C45.2609 16.9741 47.0406 13.7026 47.5075 10.4382C47.7426 8.79397 47.6515 7.10044 46.9944 5.544C46.3304 3.97132 45.1203 2.61557 43.2565 1.61833L42.313 3.38177C43.8068 4.18107 44.6803 5.20483 45.1519 6.3219C45.6304 7.45523 45.7269 8.7617 45.5276 10.155C45.1256 12.9657 43.5484 15.9196 41.9945 17.9328L43.5778 19.1548ZM43.2565 1.61833C41.3335 0.589383 39.0538 0.946167 37.2872 1.5582C35.5072 2.17489 33.946 3.15547 33.3008 3.78317L34.6955 5.21668C35.0781 4.84446 36.3605 3.99589 37.9419 3.44801C39.5368 2.89548 41.1365 2.75229 42.313 3.38177L43.2565 1.61833ZM33.3002 3.78375C30.1263 6.87673 26.9088 13.3132 28.6771 19.6995L30.6046 19.1658C29.0875 13.6866 31.8734 7.96677 34.6961 5.21611L33.3002 3.78375ZM28.7286 19.8423C32.4703 28.1733 40.6743 29.7342 47.6973 29.1513L47.5318 27.1581C40.8105 27.716 33.7672 26.1792 30.5531 19.0229L28.7286 19.8423ZM47.6973 29.1513C54.4099 28.5941 60.8249 25.3631 66.8495 22.6438L66.0267 20.8209C59.849 23.6093 53.8149 26.6366 47.5318 27.1581L47.6973 29.1513ZM66.8495 22.6438C75.8031 18.6025 85.3644 14.9925 93.8792 8.98299L92.726 7.34897C84.4162 13.2138 75.1344 16.7101 66.0267 20.8209L66.8495 22.6438Z" fill="white"/>
</svg>
