<svg width="74" height="74" viewBox="0 0 74 74" fill="none" xmlns="http://www.w3.org/2000/svg">
<circle cx="37" cy="37" r="29" fill="#FDE6E7"/>
<circle cx="37" cy="37" r="32.6825" stroke="url(#paint0_radial_2469_50787)" stroke-opacity="0.5" stroke-width="7.36508"/>
<path d="M50.0765 42.9256C49.8521 44.6311 49.0145 46.1966 47.7201 47.3298C46.4258 48.4629 44.7632 49.0861 43.043 49.083C33.0491 49.083 24.918 40.9519 24.918 30.958C24.9149 29.2378 25.5381 27.5752 26.6712 26.2809C27.8044 24.9866 29.3699 24.1489 31.0754 23.9245C31.5067 23.8719 31.9435 23.9601 32.3205 24.1761C32.6975 24.392 32.9946 24.7241 33.1674 25.1228L35.8257 31.0575V31.0726C35.958 31.3777 36.0126 31.7109 35.9847 32.0423C35.9568 32.3738 35.8473 32.6931 35.6659 32.9719C35.6432 33.0059 35.6193 33.0374 35.5941 33.0688L32.9735 36.1753C33.9163 38.091 35.9201 40.0772 37.861 41.0224L40.9246 38.4157C40.9547 38.3904 40.9862 38.3669 41.019 38.3452C41.2976 38.1594 41.618 38.046 41.9514 38.0153C42.2848 37.9845 42.6206 38.0373 42.9284 38.169L42.9448 38.1766L48.8744 40.8336C49.2738 41.0058 49.6067 41.3026 49.8234 41.6797C50.0401 42.0567 50.1289 42.4938 50.0765 42.9256Z" fill="#920B07"/>
<defs>
<radialGradient id="paint0_radial_2469_50787" cx="0" cy="0" r="1" gradientUnits="userSpaceOnUse" gradientTransform="translate(37.4603 35.1587) rotate(121.329) scale(49.5777)">
<stop stop-color="white" stop-opacity="0"/>
<stop offset="1" stop-color="white"/>
</radialGradient>
</defs>
</svg>
