<svg width="96" height="65" viewBox="0 0 96 65" fill="none" xmlns="http://www.w3.org/2000/svg">
<rect width="96" height="64" transform="translate(0 0.800049)" fill="white"/>
<g clip-path="url(#clip0_6744_65734)">
<g clip-path="url(#clip1_6744_65734)">
<path d="M53.1387 46.4942C53.1387 46.4095 53.1951 46.353 53.2798 46.353H55.6234C55.7081 46.353 55.7363 46.3813 55.7363 46.466V50.1083C55.7363 50.1648 55.7646 50.193 55.821 50.193H56.1034C56.1598 50.193 56.2163 50.1366 56.2163 50.1083V46.466C56.2163 46.4095 56.2446 46.353 56.3293 46.353H58.6728C58.7575 46.353 58.814 46.4095 58.814 46.466V56.6307C58.814 56.6871 58.7857 56.7718 58.701 56.7718H56.3293C56.2728 56.7718 56.2163 56.6871 56.2163 56.6307V52.9883C56.2163 52.9319 56.1881 52.8754 56.1316 52.8754H55.821C55.7646 52.8754 55.7363 52.9319 55.7363 52.9883V56.6307C55.7363 56.6871 55.6798 56.7718 55.6234 56.7718H53.3363C53.2516 56.7718 53.1669 56.6871 53.1669 56.5742V46.4942H53.1387Z" fill="black" stroke="#FCEE21" stroke-width="0.282353"/>
<path d="M59.5757 56.8C59.491 56.8 59.4062 56.7153 59.4062 56.6024V46.5224C59.4062 46.4659 59.4627 46.3812 59.5192 46.3812H61.891C61.9757 46.3812 62.0604 46.4377 62.0604 46.5224V56.6306C62.0604 56.7153 62.0039 56.8 61.891 56.8H59.5757Z" fill="black" stroke="#FCEE21" stroke-width="0.282353"/>
<path d="M65.7885 50.8706C65.7885 50.9271 65.8449 50.9836 65.8449 50.9836C65.8732 50.9836 65.9014 50.9553 65.9014 50.8706L66.4943 46.5506C66.5226 46.4659 66.579 46.3812 66.6637 46.3812H69.0637C69.1485 46.3812 69.2049 46.4659 69.1767 46.5506L67.2567 56.6306C67.2567 56.7153 67.172 56.8 67.0873 56.8H64.3767C64.292 56.8 64.2355 56.7153 64.2073 56.6306L62.3438 46.5224C62.3438 46.4659 62.3437 46.3812 62.4285 46.3812H64.9132C64.9979 46.3812 65.0543 46.4095 65.0826 46.5224L65.7885 50.8706Z" fill="black" stroke="#FCEE21" stroke-width="0.282353"/>
<path d="M69.4863 46.5506C69.4863 46.4659 69.571 46.3812 69.6557 46.3812H74.5969C74.6816 46.3812 74.7381 46.4377 74.7381 46.5224V49.0353C74.7381 49.12 74.6816 49.1765 74.5969 49.1765H72.2816C72.2252 49.1765 72.1969 49.2048 72.1969 49.2612V50.0518C72.1969 50.1083 72.2534 50.1365 72.2816 50.1365H73.3828C73.4393 50.1365 73.4675 50.1648 73.4675 50.2212V52.7624C73.4675 52.8189 73.411 52.8753 73.3546 52.8753H72.2252C72.1687 52.8753 72.1404 52.9036 72.1404 52.9883V53.8071C72.1404 53.8636 72.1687 53.8918 72.2252 53.8918H74.6252C74.7099 53.8918 74.7663 53.9483 74.7663 54.033V56.6306C74.7663 56.7153 74.7099 56.7718 74.6252 56.7718H69.6557C69.571 56.7718 69.5146 56.6871 69.5146 56.6024V46.5506H69.4863Z" fill="black" stroke="#FCEE21" stroke-width="0.282353"/>
<path d="M50.5687 54.5413L58.8981 51.746C58.8981 51.746 50.6534 52.7343 49.6934 51.266C49.6934 51.266 47.6605 48.4425 48.5923 51.8872C47.1805 47.4543 42.8887 55.586 50.5687 54.5413Z" fill="black" stroke="#FFEF00" stroke-width="0.282353"/>
<path d="M60.4235 38.3625C60.4235 38.3625 57.9106 40.3954 55.9623 40.9037C54.0423 41.4119 48.2541 42.5695 47.7176 43.7837C47.1529 44.9978 46.8706 45.7037 48.48 48.5272C50.0894 51.3225 49.8635 53.2707 51.0776 53.7225C52.2917 54.2025 48.8753 54.7672 48.847 54.7672C48.8188 54.7672 42.3812 50.2213 42.2965 49.2613C42.2118 48.3013 42.6918 38.5884 44.1882 37.8825C45.6847 37.1766 50.3717 32.8848 53.1953 32.8001C55.9906 32.7154 60.4235 38.3625 60.4235 38.3625Z" fill="black"/>
<path d="M46.8705 41.4118C47.3788 42.8801 48.4517 44.6589 49.1011 45.28C49.7505 45.9295 50.7105 46.6918 51.8964 46.5224C51.8964 46.5224 51.247 46.7765 50.7105 46.6918C50.1458 46.5789 48.5929 46.2401 47.9999 45.5906C47.4352 44.9412 45.8541 43.0212 45.8541 43.0212L44.8941 45.7036C44.8941 45.7036 47.1246 47.4824 48.4517 47.8777C49.9482 48.3295 51.0776 48.4424 51.5294 48.1318C51.5294 48.1318 51.1341 48.4706 50.5976 48.5836C50.0894 48.6965 49.4399 48.6683 48.7623 48.5836C48.0846 48.4989 45.8258 48.1883 45.8258 48.1883L48.7341 50.2212C48.7341 50.2212 49.807 50.8142 51.1905 50.7859C51.1905 50.7859 50.1176 51.1248 49.6658 51.0965C49.2141 51.0965 45.6282 50.5883 45.6282 50.5883L43.1152 45.873L45.1482 40.7059L46.8705 41.4118Z" fill="black"/>
<path d="M45.2892 28.9601C44.4986 28.9601 38.0892 29.5248 36.2821 32.0377C34.9833 33.8166 33.1198 37.4024 35.2092 44.546C37.5245 52.4236 47.6045 55.2754 49.3551 54.4848C51.1057 53.6942 49.5245 52.593 49.3269 52.1413C49.1574 51.7177 46.8986 48.7248 46.4186 47.4824C45.9104 46.2683 47.3786 41.9766 48.028 41.8071C48.7057 41.6377 49.7504 41.553 50.3151 42.1742C50.8798 42.7954 52.348 43.4448 52.5174 40.9036C52.6869 38.3624 53.6469 35.3977 53.6469 35.3977L45.2892 28.9601Z" fill="#FCEE21" stroke="black" stroke-width="0.282353"/>
<path d="M37.1284 31.4165C37.1284 31.4165 34.3613 34.0424 34.3613 38.3907C34.3613 41.5812 35.4343 45.3365 36.4507 47.313C37.0154 48.7812 42.0978 53.5248 46.2484 54.2024C49.806 55.0212 49.8625 53.8636 49.8625 53.8636C49.5519 53.9483 47.9425 54.6542 44.8649 53.4683C41.759 52.2824 38.7096 49.4589 37.7496 46.7201C36.7613 43.9812 36.2249 39.5765 36.2531 37.3177C36.2813 35.0307 38.2296 30.7389 38.2296 30.7389L37.1284 31.4165Z" fill="#FCF69F"/>
<path d="M40.375 29.8636C40.375 31.106 44.3279 40.1977 46.4174 41.8636C48.5068 43.5295 51.6974 42.9648 52.375 42.7107C53.0526 42.4566 49.7491 37.4307 49.4385 36.8377C49.1279 36.1883 46.1068 28.2825 46.3609 27.5483C46.615 26.8142 44.3562 27.1813 43.5374 27.3225C42.7468 27.4354 40.375 29.8636 40.375 29.8636Z" fill="black" stroke="black" stroke-width="0.282353"/>
<path d="M48.3372 50.7013C48.3372 50.7013 44.7231 51.2095 42.2666 50.6166C39.8102 50.0236 37.4102 48.7531 37.4102 48.7531C37.4102 48.7531 40.4878 51.8872 41.589 52.3954C42.6902 52.9036 48.2525 52.9883 49.0996 51.8589C49.9749 50.7013 48.3372 50.7013 48.3372 50.7013Z" fill="black"/>
<path d="M47.0107 48.6683C47.0107 48.6683 44.3284 48.7813 40.686 47.5672C37.0437 46.3531 35.2931 44.8848 35.2931 44.8848L34.3613 40.5648C34.3613 40.5648 38.0037 44.1225 40.686 45.0542C43.3402 45.986 46.446 46.7201 46.446 46.7201" fill="black"/>
<path d="M34.5879 35.7366C34.5879 35.7366 36.1408 39.4072 39.5291 41.5813C42.9455 43.7554 46.7291 44.4048 46.7291 44.4048L47.0679 43.4166C47.0679 43.4166 46.4185 43.3601 41.5055 39.9437C36.6208 36.5272 37.0444 31.586 36.8749 31.6143C36.2255 31.7272 35.2091 33.9013 35.2091 33.9013L34.5879 35.7366Z" fill="black"/>
<path d="M62.0893 29.4966C61.4964 26.5319 58.2211 25.1201 55.9623 24.6966C53.7035 24.273 47.2376 24.866 46.3341 26.786C45.4588 28.7342 45.5717 32.2636 45.7976 33.6472C46.0235 35.0307 48.2823 35.6519 49.0729 36.0472C49.8917 36.4142 50.9364 35.2848 51.8682 36.3013C52.7717 37.3177 56.3858 39.5483 57.1199 39.5201C57.8823 39.5201 59.7176 37.6566 59.7176 37.6566L62.0893 29.4966Z" fill="#FCEE21" stroke="black" stroke-width="0.282353"/>
<path d="M59.9141 25.713L61.2694 21.4777L61.7494 20.0377C61.7494 20.0377 59.6318 16.1412 58.1353 14.4188C56.6389 12.6683 55.453 12.7812 55.453 12.7812C55.453 12.7812 53.8436 11.9906 51.6412 13.0071C49.4389 14.0236 48.5918 15.153 48.5918 15.153L49.5236 15.4071L53.053 23.0306L56.3847 26.8988L60.2812 27.7741" fill="#FCEE21"/>
<path d="M54.8613 12.8094C54.8613 12.8094 57.1202 14.8141 58.0519 16.1129C58.9837 17.4118 60.5084 18.3718 60.0566 21.6471C59.6049 24.9224 59.9719 25.9388 59.9719 25.9388L61.4684 19.7553C61.4684 19.7553 60.6778 17.7224 58.7296 15.2659C56.7813 12.8094 55.5954 12.5553 55.5954 12.5553L54.8613 12.8094Z" fill="#FCF69F"/>
<path d="M55.8496 15.1812C55.8496 15.1812 55.2849 14.08 54.7202 13.7976C54.1555 13.487 53.619 13.6847 53.252 13.6C53.252 13.6 54.2402 13.7694 54.6072 14.2494C54.9743 14.7294 55.7367 16.2541 56.1037 16.9035C56.4708 17.5529 56.5272 17.0729 57.0355 18.4847C57.5437 19.9247 58.5884 21.3364 58.5602 21.8729L57.9955 19.0212L55.8496 15.1812Z" fill="#FCF69F"/>
<path d="M59.7734 31.1906L60.7899 28.2824C60.7899 28.2824 60.5076 26.9836 60.197 26.673C59.9146 26.3624 61.4393 27.9436 61.4393 27.9436L59.7734 31.1906Z" fill="black"/>
<path d="M60.3108 28.1976C60.3108 28.1976 60.4519 25.0635 60.7061 24.0753C60.9884 23.0871 62.146 20.2353 62.146 20.2353C62.146 20.2353 59.3225 13.0635 55.7931 12.3576C52.2637 11.6518 50.8237 12.6965 49.8072 13.7412C48.819 14.7859 48.0566 14.9835 48.0566 14.9835L51.3319 23.6518C51.3319 23.6518 54.7484 24.4988 56.3578 25.0918L54.7484 23.8494C54.7484 23.8494 52.4613 21.2518 51.7272 20.0376C50.9931 18.8235 49.0731 15.8306 49.0731 15.8306L48.9037 15.2659C48.9037 15.2659 50.7672 13.3459 51.3037 13.2047C51.8402 13.0635 52.8284 12.2447 54.6355 12.9506C56.4425 13.6282 55.3131 12.7812 55.3131 12.7812C55.3131 12.7812 56.4425 12.9223 56.8661 13.4306C57.2896 13.9106 61.5249 17.92 61.2425 20.4894C61.0731 22.0706 59.6049 25.0353 59.7178 25.7129C59.7743 26.3623 60.3108 28.1976 60.3108 28.1976Z" fill="black"/>
<path d="M57.7125 17.6095C58.3054 19.1342 58.503 21.393 58.503 21.393C58.503 21.393 57.6278 17.8918 56.8372 17.0165C56.0466 16.1412 55.623 14.7577 55.623 14.7577C55.623 14.7577 56.3289 15.4071 56.6113 15.7459C56.8936 16.0847 57.7125 17.6095 57.7125 17.6095Z" fill="black"/>
<path d="M55.0868 26.4753L46.6727 27.5765L39.5857 29.7224L33.3174 31.9812L28.461 31.3883L27.0492 27.7177L23.181 23.7083C23.181 23.7083 22.0798 21.0259 21.9668 19.1059C21.8539 17.1859 24.1974 14.7859 24.1974 14.7859L27.2468 14.5883L29.5339 13.1765L32.5833 9.36475L35.2657 9.56239L36.8468 9.6471L44.9221 13.4589L50.4845 16.9036L52.7998 18.5695L55.0868 26.4753Z" fill="#FCEE21"/>
<path d="M35.7734 17.553C35.7734 17.553 38.3993 18.3436 39.3876 18.6259C40.3758 18.9365 45.3734 19.8965 45.3734 19.8965C45.3734 19.8965 48.5923 20.0942 49.6934 21.8447C50.7946 23.5953 52.3476 27.9436 52.3476 27.9436C52.3476 27.9436 50.3993 24.6118 47.5758 23.6236C44.7805 22.6353 42.2676 22.7765 42.2676 22.7765C42.2676 22.7765 42.917 22.4094 43.9334 22.1553C44.9499 21.9012 44.9499 21.9012 44.9499 21.9012L44.8652 21.0542C44.8652 21.0542 42.6628 20.5177 41.4487 20.0377C40.2346 19.5012 35.7734 17.553 35.7734 17.553Z" fill="#FCF69F"/>
<path d="M31.2845 12.3295C31.2845 12.3295 31.3127 12.0472 32.8657 12.3577C34.4186 12.6683 36.7904 13.5436 36.7904 13.5436C36.7904 13.5436 38.5127 14.0519 40.9127 14.8707C43.3127 15.6895 46.3057 16.7624 46.3057 16.7624C46.3057 16.7624 48.7339 17.7507 49.5527 18.5977C50.3998 19.4448 55.0021 26.1648 55.0021 26.1648C53.9292 20.2354 51.4163 17.186 51.4163 17.186C51.4163 17.186 40.0092 10.6636 36.988 9.95774C33.9668 9.25186 32.9504 9.59068 32.9504 9.59068C32.9504 9.59068 31.2845 10.7766 31.1151 11.4542C30.9174 12.1036 31.2845 12.3295 31.2845 12.3295Z" fill="#FCF69F"/>
<path d="M55.0868 26.4753C55.0868 26.4753 53.9009 20.4612 53.3362 18.2589C51.3315 16.3389 50.0609 15.6612 50.0609 15.6612C50.0609 15.6612 46.0797 13.7412 45.6562 13.2895C45.2327 12.8377 41.9856 11.5389 41.4491 11.0871C40.8844 10.6636 37.4115 9.53417 36.5927 9.36476C35.7456 9.16711 33.3456 8.71535 32.8091 8.82829C32.2727 8.94123 31.5385 9.98594 31.0585 10.353C30.5785 10.7483 28.2633 13.5436 27.5291 13.8259C26.795 14.1083 25.1009 14.2495 24.875 14.0801C24.6491 13.9106 23.6327 13.9389 22.8703 15.153C22.108 16.3671 21.0915 18.6542 21.2609 20.0942C21.4303 21.5624 22.3621 23.0871 23.7456 24.6118C25.1574 26.1648 25.948 26.5036 26.9644 28.5648C27.9527 30.6259 28.2633 31.8118 28.2633 31.8118C28.2633 31.8118 31.4256 32.2918 33.3456 31.9812C35.2656 31.6706 38.7385 30.513 39.8962 29.8918C41.0538 29.2706 45.4303 28.1977 46.1644 27.7742C46.1644 27.7742 41.3927 28.8189 39.868 29.3271C38.3433 29.8353 34.7856 31.473 33.148 31.473C30.8891 31.4448 28.6585 31.3036 28.6585 31.3036C28.6585 31.3036 27.8115 28.2259 26.9362 27.1248C26.0609 26.0236 23.2374 23.7365 22.7009 22.0424C22.1644 20.3483 21.8821 18.9648 22.5597 17.4401C23.2091 15.9153 24.3385 15.0401 24.3385 15.0401C24.3385 15.0401 25.5244 14.9836 26.4844 15.0965C27.4444 15.2095 28.9409 15.4918 29.9856 15.8306C31.0303 16.1695 34.7856 17.9765 34.7856 17.9765L30.6915 15.6612L27.9809 14.6165C27.9809 14.6165 29.195 13.9106 30.2962 12.5553C31.3974 11.2001 31.4821 10.7201 32.2162 10.2401C32.9503 9.76005 33.3738 9.64711 34.2209 9.67535C35.068 9.73182 36.7621 10.1271 37.8068 10.5224C38.8515 10.8895 41.3362 11.793 42.3527 12.3859C43.4256 13.0071 44.3856 13.4024 45.4586 14.0236C46.5315 14.6165 48.988 15.8306 50.1174 16.6495C51.2468 17.4683 51.8397 17.9201 52.5738 18.9648C53.2797 19.9812 55.0868 26.4753 55.0868 26.4753Z" fill="black"/>
<path d="M51.4164 25.6566C51.4164 25.6566 49.807 21.7319 49.4399 21.026C49.0729 20.3201 48.1129 19.9813 47.6046 19.8683C47.0964 19.7272 41.8164 19.7272 41.8164 19.7272L46.2493 20.3766C46.2493 20.3766 46.927 20.4331 47.407 20.6025C47.8588 20.7436 48.5364 21.2801 48.5364 21.2801C48.5364 21.2801 47.9717 21.1389 47.6046 21.1389C47.2376 21.1389 46.5599 21.6189 46.3341 21.6754C46.0517 21.7319 45.5152 22.0707 45.5152 22.0707C45.5152 22.0707 46.7293 21.7883 47.407 22.0142C48.0846 22.2683 48.5646 22.0425 49.0729 22.4942C49.5811 22.9742 50.0329 23.5389 50.0329 23.5389L51.4164 25.6566Z" fill="black"/>
<path d="M50.5121 42.0612L48.8744 39.4918C48.8744 39.4918 48.3944 37.4871 49.6368 36.0754C50.8791 34.6636 50.8791 34.6636 50.8791 34.6636L54.9732 29.4118L59.5191 28.5083L61.3826 28.5365L63.585 34.3812L65.4768 34.2401L67.2838 33.9295L67.7638 34.7483L65.8721 41.7507L62.5685 44.6024L58.7285 44.7718L56.4132 43.5012L54.5779 44.913L52.7991 45.0824L51.8109 44.2071L50.5121 42.0612Z" fill="#FCEE21"/>
<path d="M54.3793 41.2706C54.3793 41.2706 59.1228 45.6754 62.2005 43.6424C65.2781 41.6095 66.2381 38.5601 66.2381 38.5601C66.2381 38.5601 67.2828 35.3695 67.1981 34.7201C67.1134 34.0706 68.0452 34.9742 68.0452 34.9742L66.1252 42.0048C66.1252 42.0048 63.3016 44.8565 61.4946 44.9977C59.6875 45.1389 56.4687 43.5295 56.4687 43.5295L54.5205 45.0824L52.8828 45.1106L53.8146 43.6424L54.3793 41.2706Z" fill="#C0C43D"/>
<path d="M52.3184 41.0165C52.3184 41.0165 52.9395 40.5648 53.3631 40.4236C53.7866 40.2824 54.7466 40.0283 54.7466 40.0283L53.1937 39.9436L52.3184 41.0165Z" fill="#C0C43D"/>
<path d="M63.4434 35.0589C63.4998 34.9177 64.4598 35.3695 65.081 35.1718C65.7022 34.9742 65.8998 34.7765 66.1257 34.6636C66.3516 34.5224 66.6339 34.3812 66.8034 34.3812C66.9445 34.3812 67.2551 34.4095 67.0857 34.5224C66.9163 34.6353 65.8151 35.3977 65.8151 35.3977L64.5728 35.5671L63.4434 35.0589Z" fill="#C0C43D"/>
<path d="M53.334 31.8682C53.334 31.8682 53.9269 30.8235 54.2657 30.5412C54.6046 30.2588 56.1575 29.3835 56.1575 29.3835L54.2375 29.8353C54.2375 29.8353 53.5034 31.0777 53.4187 31.36C53.3622 31.6424 53.334 31.8682 53.334 31.8682Z" fill="#C0C43D"/>
<path d="M60.7607 28.1977C60.7607 28.1977 60.5913 28.1412 60.6478 28.5648C60.7043 28.9883 60.9302 29.5248 60.6196 29.7506C60.309 29.9483 60.1113 30.0612 60.1113 30.0612C60.1113 30.0612 61.0149 30.033 61.4384 30.4C61.8619 30.7389 62.229 31.3036 62.3137 31.7553C62.3984 32.2071 62.5113 33.1106 62.1725 33.4777C61.8337 33.8448 62.9349 34.8048 62.9349 34.8048L63.6125 34.4377L63.0478 31.5577L60.7607 28.1977Z" fill="#C0C43D"/>
<path d="M60.8463 33.3083C60.8463 33.5624 60.9874 33.7035 60.9874 33.7035C60.9874 33.7035 60.9027 33.7883 60.818 34.0706C60.7616 34.353 60.9027 34.6353 60.9027 34.6353C60.9027 34.6353 60.9027 34.7483 61.3545 34.8894C61.8063 35.0306 62.258 35.3412 61.9192 35.5671C61.5804 35.793 62.1168 36.0753 62.1168 36.0753L62.7663 35.3977L62.5686 34.4094L61.8063 33.5341L60.8745 33.1953" fill="#C0C43D"/>
<path d="M57.4845 32.4048L57.3715 32.6307C57.3715 32.6307 57.5974 32.8565 57.5692 33.393C57.5409 33.9295 57.5127 34.0142 57.5127 34.0142L58.1903 34.1554C58.1903 34.1554 56.6374 34.353 55.9315 34.4942C55.2256 34.6354 54.3221 35.2001 54.068 35.3695C53.8139 35.5389 53.8986 35.4824 53.8986 35.4824C53.8986 35.4824 53.8703 35.2848 54.0962 35.0307C54.3221 34.7483 54.5198 34.6071 54.5198 34.6071L54.7174 34.466C54.7174 34.466 54.4351 34.5224 54.3221 33.9295C54.2092 33.3366 54.2374 33.3083 54.2374 33.3083C54.2374 33.3083 53.7856 33.1954 53.6727 33.1389C53.5598 33.0824 54.9151 32.7718 54.9151 32.7718L57.4845 32.4048Z" fill="#C0C43D"/>
<path d="M63.4151 34.3247C63.4151 34.3247 63.3586 33.8447 63.4433 33.2518C63.528 32.6871 62.7092 31.0212 62.3986 30.5412C62.088 30.0612 61.1845 28.0847 61.1845 28.0847L61.1562 27.8871" stroke="black" stroke-width="0.847059"/>
<path d="M58.5586 36.64C58.7845 36.5553 59.2362 36.0189 59.4904 35.68C59.7445 35.3412 59.9986 35.2283 60.2809 35.2283C60.5633 35.2283 61.0433 35.2565 61.2692 35.3412C61.5233 35.4259 61.7492 35.3977 61.8621 35.5953C61.9751 35.793 61.4104 35.793 61.4104 35.793C61.4104 35.793 61.0151 35.5953 60.6198 35.5953C60.2245 35.5953 59.8292 35.5953 59.6033 35.8212C59.3774 36.0471 58.5586 36.64 58.5586 36.64Z" fill="black"/>
<path d="M62.1728 35.9342C62.1728 35.9342 61.0434 35.5389 60.6481 36.0471C60.2528 36.5554 60.0834 36.8377 59.8575 37.233C59.6316 37.6283 59.2363 38.0801 59.2363 38.0801C59.2363 38.0801 60.1399 37.1765 60.3093 36.9507C60.4787 36.753 60.5634 36.5836 60.8457 36.3859C61.1281 36.1883 61.3822 36.1883 61.6646 36.1883C61.9469 36.2165 62.1163 36.3012 62.1163 36.3012L62.1728 35.9342Z" fill="black"/>
<path d="M60.4792 39.266C60.4792 39.266 61.4957 37.9954 61.6651 37.5436C61.8345 37.0918 62.3145 35.8213 62.371 35.5107C62.4274 35.2001 62.6816 34.7201 62.9074 34.5224C63.1616 34.3248 63.218 34.466 63.6133 34.4095C64.0086 34.353 64.6298 34.2118 64.8274 34.0989C65.0251 34.0142 65.7027 33.5907 65.8439 33.506C65.9851 33.4213 66.6063 33.1389 66.7192 33.1671C66.8604 33.2236 67.3686 33.2801 67.6227 33.5624C67.8768 33.8448 68.1592 34.2965 68.2439 34.5507C68.3286 34.7765 67.538 41.0448 65.3357 43.2189C63.0204 45.506 62.3992 45.5907 60.3098 45.4777C58.2204 45.3648 57.1757 44.4613 56.6392 44.2354C56.1027 44.0095 56.3004 44.0095 56.3004 44.0095C56.3004 44.0095 56.0463 44.3765 55.6227 44.8001C55.2274 45.2236 54.098 45.7883 53.5051 45.6754C52.8839 45.5907 51.8674 45.5907 51.2745 44.6871C50.6815 43.7836 50.2298 42.4565 50.2298 42.4565L49.891 41.5813C49.891 41.5813 49.5804 41.2707 49.2133 40.593C48.8463 39.9154 48.7051 39.2095 48.7051 39.2095C48.7051 39.2095 49.1851 40.0565 49.5804 40.5083C49.9757 40.9601 50.6815 41.6377 50.6815 41.6377L51.4439 43.3318C51.4439 43.3318 51.7545 44.5177 52.7427 44.8001C53.7027 45.0824 54.3521 44.913 54.7474 44.6589C55.1427 44.433 55.9615 43.5577 55.9615 43.5577L55.5098 43.106L55.0015 43.8118C55.0015 43.8118 54.6345 44.3483 54.0415 44.2636C53.4204 44.2071 53.0533 43.9248 52.8274 43.7554C52.6015 43.586 52.6015 43.586 52.6015 43.586C52.6015 43.586 53.0533 44.4048 53.8439 44.5742C53.5333 44.6307 52.7145 44.4048 52.4886 44.1224C52.4886 44.1224 52.1215 43.7271 52.3474 43.2471C52.5451 42.7671 52.7992 42.4283 52.9686 42.2307C53.1098 42.033 53.3074 41.8918 53.4486 41.6377C53.5898 41.3836 53.8157 40.6213 53.8439 40.5648C53.8721 40.4801 53.9004 40.5083 53.9004 40.5083C53.9004 40.5083 54.4086 41.3836 54.8886 41.7507C55.3686 42.146 56.6392 43.2754 57.1192 43.5577C57.5992 43.8401 61.3545 46.1554 64.178 43.1342C67.0016 40.113 67.3404 36.6118 67.3404 36.6118C67.3404 36.6118 67.6792 35.5954 67.5663 35.0589C67.4533 34.5224 67.3686 34.2683 66.8886 34.0989C66.4086 33.9295 66.2674 34.3248 65.7592 34.5507C65.251 34.7483 64.771 34.9177 64.2345 34.8613C63.698 34.8048 63.3027 34.8048 63.1615 35.0871C63.0204 35.3977 62.4839 37.1765 62.258 37.4307C62.0321 37.713 61.778 38.0801 61.6368 38.2213C61.411 38.3624 60.4792 39.266 60.4792 39.266Z" fill="black"/>
<path d="M65.1093 35.7083C66.0693 35.5953 66.4928 35.1153 66.6057 35.0024C66.7469 34.8894 67.0293 34.4941 67.0293 34.4941C67.0293 34.4941 65.9846 35.1718 65.4763 35.2283C64.9681 35.313 64.4316 35.6518 63.4434 35.0306C63.3869 35.0024 63.9516 35.68 64.4034 35.7083C64.8834 35.7647 65.1093 35.7083 65.1093 35.7083Z" fill="black"/>
<path d="M53.2512 40.1412C53.6465 39.9435 54.7194 40 54.7194 40C54.7194 40 53.4206 39.7741 53.1665 39.8024C52.9124 39.8306 52.3477 40.96 52.3477 40.96L53.2512 40.1412Z" fill="black"/>
<path d="M57.2324 33.2236C57.3171 33.5342 57.1477 33.873 57.1477 33.873C57.1477 33.873 57.43 33.873 57.6277 33.9295C57.8253 33.986 58.2488 34.1554 58.2488 34.1554C58.2488 34.1554 56.7241 34.0424 56.2724 34.1271C55.7924 34.2118 55.3688 34.3248 55.1994 34.3813C55.0018 34.4377 54.3241 34.7483 54.3241 34.7483C54.3241 34.7483 54.7759 34.3813 54.8606 34.353C54.9453 34.3248 54.9453 34.2683 54.9453 34.2683C54.9453 34.2683 54.8606 34.0989 54.7477 33.7883C54.663 33.4495 54.8041 33.026 54.8041 33.026C54.8041 33.026 54.55 33.0824 54.3241 33.0824C54.1265 33.1107 53.6465 33.1107 53.6465 33.1107C53.6465 33.1107 54.2959 32.8565 54.5782 32.6871C54.8606 32.5177 55.2841 32.3201 55.51 32.2636C55.7359 32.2071 56.3006 32.1789 56.583 32.2354C56.8653 32.3201 57.7124 32.4048 57.7124 32.4048C57.7124 32.4048 57.3735 32.5177 57.1759 32.5177C56.9782 32.5177 56.8935 32.5742 56.8935 32.5742C56.8935 32.5742 57.1477 32.9413 57.2324 33.2236Z" fill="black"/>
<path d="M61.1002 33.9859C61.0155 34.2118 61.0437 34.5507 61.0437 34.5507H60.6484C60.6484 34.5507 61.0155 34.6354 61.1284 34.7201C61.2414 34.7765 61.552 34.9177 61.8061 35.0024C62.0602 35.0871 62.4837 35.313 62.4837 35.313L63.0484 34.5507C63.0484 34.5507 62.9637 34.2118 62.9355 34.0989C62.9073 34.0142 62.7661 33.6471 62.6249 33.5624C62.4837 33.4777 62.032 33.3365 61.8908 33.3365C61.7496 33.3365 61.5802 33.4212 61.439 33.393C61.2978 33.3648 60.8461 33.2518 60.8461 33.2518L61.3826 33.5342C61.3543 33.5907 61.1567 33.8448 61.1002 33.9859Z" fill="black"/>
<path d="M61.0723 34.6353C61.0723 34.6353 61.2981 34.5789 61.3829 34.6071C61.4676 34.6071 61.7217 34.6918 61.7217 34.6918C61.7217 34.6918 61.8629 34.4659 61.8346 34.3248C61.8064 34.1553 61.7499 34.0706 61.637 34.0142C61.524 33.9577 61.3264 33.9859 61.2699 34.0142C61.2134 34.0424 61.0723 34.2401 61.0723 34.2401V34.6353Z" fill="white"/>
<path d="M61.0156 30.0612C61.0156 30.0612 61.3827 30.0612 61.5803 30.1459C61.778 30.2306 62.0039 30.4282 62.0039 30.4282L62.145 30.6823C62.145 30.6823 61.7215 30.3153 61.5521 30.287C61.3827 30.2306 61.0156 30.0612 61.0156 30.0612Z" fill="black"/>
<path d="M56.4419 29.3554C56.4419 29.3554 55.2561 29.4401 54.7196 29.7789C54.1831 30.1177 53.7031 30.7107 53.7031 30.7107C53.7031 30.7107 53.9008 29.6377 54.409 29.4401C54.889 29.2424 56.4419 29.3554 56.4419 29.3554Z" fill="black"/>
<path d="M55.1144 33.4212C55.312 33.3365 55.7073 33.3083 55.8203 33.6189C55.9332 33.9295 55.8203 33.9577 55.8203 33.9577C55.8203 33.9577 55.6226 33.9577 55.4532 34.0142C55.2556 34.0707 55.0861 34.2118 55.0861 34.2118L55.0297 34.2401L54.832 33.6754C54.832 33.6754 54.9167 33.5059 55.1144 33.4212Z" fill="white"/>
</g>
</g>
<defs>
<clipPath id="clip0_6744_65734">
<rect width="72" height="48" fill="white" transform="translate(12 8.80005)"/>
</clipPath>
<clipPath id="clip1_6744_65734">
<rect width="53.5341" height="48" fill="white" transform="translate(21.2324 8.80005)"/>
</clipPath>
</defs>
</svg>
