<svg width="96" height="65" viewBox="0 0 96 65" fill="none" xmlns="http://www.w3.org/2000/svg">
<rect width="96" height="64" transform="translate(0 0.800049)" fill="white"/>
<g clip-path="url(#clip0_6744_65701)">
<g clip-path="url(#clip1_6744_65701)">
<path d="M20.4221 49.0015C21.0355 49.0015 21.5932 49.1409 21.9 49.4197C21.9557 49.8659 21.5375 50.5909 21.2865 50.5909C20.9798 50.4794 20.7009 50.4236 20.3384 50.4236C18.8884 50.4236 18.1355 51.9294 18.1355 53.4352C18.1355 54.3555 18.4422 54.9132 19.1951 54.9132C19.9759 54.9132 20.7567 54.3833 21.2307 53.9929C21.3423 54.0766 21.4817 54.3276 21.4817 54.6064C21.4817 54.9132 21.398 55.2199 21.0913 55.5266C20.5894 56.0286 19.7249 56.4747 18.4422 56.4747C17.02 56.4747 15.9883 55.6661 15.9883 53.742C16.0719 51.2602 17.7172 49.0015 20.4221 49.0015Z" fill="#373535"/>
<path d="M25.1617 54.8574C25.9425 54.8574 27.3925 53.491 27.7829 50.8419C27.8108 50.6746 27.8108 50.6467 27.8387 50.4794C27.6714 50.4236 27.4204 50.3678 27.1973 50.3678C26.6117 50.3678 25.9983 50.5352 25.4684 51.2881C24.9107 52.0689 24.6598 53.0448 24.6598 53.8535C24.604 54.467 24.8271 54.8574 25.1617 54.8574ZM22.5684 54.1045C22.5684 53.1564 22.8751 51.5111 24.0742 50.3121C25.1059 49.2524 26.3608 49.0015 27.5041 49.0015C28.257 49.0015 29.2608 49.2524 29.9301 49.364C29.7628 50.0611 29.4003 52.7381 29.2051 54.2718C29.1214 54.9132 29.0935 55.8334 29.1214 56.1959C28.5916 56.419 27.6156 56.4747 27.3368 56.4747C27.1973 56.4747 27.1694 55.8334 27.1973 55.192C27.2252 54.9968 27.2531 54.6901 27.2531 54.5507C26.6396 55.5824 25.3848 56.4747 24.1021 56.4747C23.154 56.4747 22.5684 55.694 22.5684 54.1045Z" fill="#373535"/>
<path d="M33.9188 49.0015C34.5601 49.0015 35.2015 49.2524 35.4803 49.5313C35.4525 49.9775 35.1178 50.7304 34.5601 50.5073C34.3092 50.4236 34.0861 50.3678 33.7515 50.3678C33.3332 50.3678 32.9428 50.563 32.9428 50.9534C32.9428 51.2602 33.1659 51.4833 34.2255 52.2362C34.9784 52.7939 35.2852 53.2958 35.2852 53.9929C35.2852 55.1641 34.1976 56.4469 32.2456 56.4469C31.4649 56.4469 30.7677 56.1401 30.5725 55.8334C30.2937 55.3593 30.5168 54.4112 30.8235 54.5785C31.2418 54.7737 31.911 54.9968 32.4687 54.9968C32.9986 54.9968 33.3332 54.7458 33.3332 54.4391C33.3332 54.1603 33.0822 53.9372 32.1341 53.24C31.3254 52.6266 31.0745 52.0689 31.0745 51.4554C31.0745 50.089 32.2456 49.0015 33.9188 49.0015Z" fill="#373535"/>
<path d="M39.4676 49.0015C40.109 49.0015 40.7503 49.2524 41.0292 49.5313C41.0013 49.9775 40.6667 50.7304 40.109 50.5073C39.858 50.4236 39.6349 50.3678 39.3003 50.3678C38.882 50.3678 38.4916 50.563 38.4916 50.9534C38.4916 51.2602 38.7147 51.4833 39.7743 52.2362C40.5272 52.7939 40.834 53.2958 40.834 53.9929C40.834 55.1641 39.7464 56.4469 37.7945 56.4469C37.0137 56.4469 36.3444 56.1401 36.1214 55.8334C35.8425 55.3593 36.0656 54.4112 36.3723 54.5785C36.7906 54.7737 37.4598 54.9968 38.0176 54.9968C38.5474 54.9968 38.882 54.7458 38.882 54.4391C38.882 54.1603 38.631 53.9372 37.6829 53.24C36.8743 52.6266 36.6233 52.0689 36.6233 51.4554C36.6233 50.089 37.7666 49.0015 39.4676 49.0015Z" fill="#373535"/>
<path d="M44.4879 54.8574C45.2687 54.8574 46.7187 53.491 47.1091 50.8419C47.137 50.6746 47.137 50.6467 47.1649 50.4794C46.9976 50.4236 46.7466 50.3678 46.5235 50.3678C45.9379 50.3678 45.3244 50.5352 44.7946 51.2881C44.2369 52.0689 43.9859 53.0448 43.9859 53.8535C43.9859 54.467 44.1532 54.8574 44.4879 54.8574ZM41.8945 54.1045C41.8945 53.1564 42.2013 51.5111 43.4003 50.3121C44.4321 49.2524 45.6869 49.0015 46.8302 49.0015C47.5831 49.0015 48.587 49.2524 49.2563 49.364C49.089 50.0611 48.7264 52.7381 48.5312 54.2718C48.4476 54.9132 48.4197 55.8334 48.4476 56.1959C47.9178 56.419 46.9418 56.4747 46.6629 56.4747C46.5235 56.4747 46.4956 55.8334 46.5235 55.192C46.5514 54.9968 46.5793 54.6901 46.5793 54.5507C45.9658 55.5824 44.711 56.4747 43.4282 56.4747C42.508 56.4747 41.8945 55.694 41.8945 54.1045Z" fill="#373535"/>
<path d="M52.88 51.0929C53.605 49.9217 54.5531 49.0015 55.9195 49.0015C57.0628 49.0015 57.4253 50.0612 57.2022 51.567C57.0907 52.2641 56.8955 53.268 56.784 54.2161C56.6724 54.9969 56.5888 55.694 56.6166 56.1959C56.1984 56.3911 54.9993 56.4748 54.6926 56.4748C54.581 56.4748 54.5531 55.6103 54.7204 54.6901C54.8599 53.9372 55.1108 52.5151 55.2503 51.7064C55.3339 51.2323 55.306 50.6746 54.8599 50.6746C54.2743 50.6746 52.8521 51.6227 52.155 55.4988C52.0992 55.8055 51.9877 56.0007 51.7925 56.1123C51.5415 56.2517 51.0396 56.3911 50.0078 56.3911C50.203 55.4152 50.5097 53.4074 50.7328 51.9295C50.928 50.591 51.0117 49.6987 50.9838 49.364C51.2627 49.2804 52.6848 48.9736 52.8521 48.9736C53.0194 48.9736 53.0473 49.4756 52.9079 50.6468C52.88 50.7583 52.88 50.9256 52.8521 51.0371H52.88V51.0929Z" fill="#373535"/>
<path d="M61.0227 54.8295C61.7198 54.8295 63.1699 53.5189 63.5603 51.1766C63.5881 51.0371 63.616 50.8141 63.6439 50.6746C63.4487 50.4794 63.1699 50.3679 62.7237 50.3679C61.1064 50.3679 60.3813 52.3199 60.3813 53.7141C60.4092 54.4113 60.6602 54.8295 61.0227 54.8295ZM59.9909 56.4748C58.9592 56.4748 58.3457 55.5546 58.3457 53.993C58.3457 51.3996 59.9631 49.0294 62.6958 49.0294C63.1699 49.0294 63.616 49.1688 63.867 49.3082C64.0064 48.5832 64.3411 46.2966 64.3689 45.6274C64.8151 45.5437 65.7632 45.4043 66.2373 45.4043C66.4046 45.4043 66.4603 45.5716 66.4046 45.9899C66.0142 48.4159 65.3449 53.017 65.2055 54.0209C65.1218 54.8853 65.094 55.7219 65.1218 56.2238C64.6199 56.4469 63.5881 56.5027 63.2814 56.5027C63.1699 56.5027 63.1141 55.7777 63.142 55.1084C63.1699 54.9132 63.1978 54.6065 63.1978 54.5507C62.3333 55.8334 61.2179 56.4748 59.9909 56.4748Z" fill="#373535"/>
<path d="M69.3885 51.316C70.225 49.4198 71.2568 49.0015 71.926 49.0015C72.1212 49.0015 72.4559 49.1409 72.5953 49.2804C72.6511 49.8102 72.2328 50.842 71.8703 51.2881C71.6751 51.2045 71.452 51.0929 71.1731 51.0929C70.6433 51.0929 69.5558 51.9295 68.8586 55.5825C68.8029 55.8892 68.7192 56.0007 68.5519 56.0844C68.2731 56.2517 67.2134 56.3633 66.6836 56.3911C66.9346 55.0805 67.325 52.4035 67.4923 50.8141C67.548 50.4237 67.548 49.6708 67.5202 49.3919C67.8269 49.2525 69.026 48.9736 69.2769 48.9736C69.4164 48.9736 69.5279 49.8381 69.3048 51.2881H69.3606V51.316H69.3885Z" fill="#373535"/>
<path d="M75.0225 54.8574C75.8033 54.8574 77.2533 53.491 77.6437 50.8419C77.6716 50.6746 77.6716 50.6467 77.6995 50.4794C77.5322 50.4236 77.2812 50.3678 77.0581 50.3678C76.4725 50.3678 75.859 50.5352 75.3292 51.2881C74.7715 52.0689 74.5205 53.0448 74.5205 53.8535C74.5205 54.467 74.6879 54.8574 75.0225 54.8574ZM72.457 54.1045C72.457 53.1564 72.7638 51.5111 73.9628 50.3121C74.9946 49.2524 76.2494 49.0015 77.3927 49.0015C78.1456 49.0015 79.1495 49.2524 79.8188 49.364C79.6515 50.0611 79.2889 52.7381 79.0937 54.2718C79.0101 54.9132 78.9822 55.8334 79.0101 56.1959C78.4803 56.419 77.5043 56.4747 77.2254 56.4747C77.086 56.4747 77.0581 55.8334 77.086 55.192C77.1139 54.9968 77.1418 54.6901 77.1418 54.5507C76.5283 55.5824 75.2735 56.4747 73.9907 56.4747C73.0705 56.4747 72.457 55.694 72.457 54.1045Z" fill="#373535"/>
<path d="M69.4988 21.8132C70.0286 27.9759 60.3245 33.8318 47.8319 34.9194C35.3392 35.979 24.7986 31.852 24.2687 25.6893C23.7389 19.5266 33.443 13.6707 45.9357 12.5832C58.4004 11.5514 68.969 15.6506 69.4988 21.8132Z" fill="#BBE6FB"/>
<path d="M46.2439 13.3082C41.4755 13.2245 35.8984 15.1486 31.7435 16.9054C31.3252 18.1323 31.0742 19.4708 31.0742 20.8372C31.0742 28.1432 37.683 34.0828 45.8256 34.0828C53.9681 34.0828 60.6048 28.1711 60.6048 20.8372C60.6048 18.5227 59.9356 16.3477 58.7644 14.4515C55.4739 13.9495 50.9007 13.3918 46.2439 13.3082Z" fill="white"/>
<path d="M45.8538 13.3083C43.2047 13.1409 38.6593 14.5073 34.8669 15.9016C34.2813 17.2401 33.9746 18.7459 33.9746 20.3075C33.9746 26.7211 39.8026 31.9078 45.9095 31.9078C52.0164 31.9078 57.3983 26.7211 57.8445 20.3075C57.9839 18.2161 57.2868 16.2641 56.2829 14.5631C52.3789 13.8938 48.224 13.4756 45.8538 13.3083Z" fill="white"/>
<path d="M39.077 19.4987C39.4116 18.7737 39.8857 18.4391 40.3597 17.8535C40.3039 17.714 40.1924 17.24 40.1924 17.1006C40.1924 16.3756 40.778 15.8178 41.4751 15.8178C41.6424 15.8178 41.8097 15.8457 41.9492 15.9015C44.1242 14.2563 46.9406 13.5312 49.8128 14.2005C50.0638 14.2563 50.3148 14.3399 50.5657 14.3957C47.7493 14.0053 44.5425 15.0092 42.3953 16.7659C42.4511 16.9333 42.6463 17.3515 42.6463 17.5467C42.6463 18.2718 42.1722 18.4391 41.4751 18.4391C41.3078 18.4391 41.1684 18.4112 41.0011 18.3554C40.527 18.9968 39.9135 20.2795 39.6347 21.0603C40.8338 22.1199 41.9213 22.5103 43.3156 23.068C43.3156 23.0123 43.3713 22.9286 43.3713 22.8728C43.3713 20.6978 45.2954 18.941 47.4426 18.941C49.3946 18.941 51.0119 20.3353 51.3186 22.2036C52.2946 21.5901 53.2427 21.1161 53.9399 20.1958C53.7726 20.0006 53.6052 19.4151 53.6052 19.1362C53.6052 18.4948 54.1351 17.965 54.7764 17.965C54.8601 17.965 54.9437 17.965 55.0553 17.9929C55.4178 17.24 55.6967 16.4592 55.864 15.6226C52.4619 13.0851 45.881 13.4476 45.881 13.4476C45.881 13.4476 40.6664 13.1687 37.125 14.8976C37.4039 16.4871 38.0731 18.1044 39.077 19.4987Z" fill="#373535"/>
<path d="M55.3331 18.5228C55.5841 18.7459 55.6956 18.9132 55.8071 19.1084C56.1139 19.6661 55.5004 20.1959 54.8312 20.1959C54.7754 20.1959 54.6917 20.1959 54.636 20.1681C53.9109 21.3114 52.6003 22.7893 51.457 23.5422C53.2138 23.821 54.8869 24.5182 56.1697 25.6336C57.1178 23.9326 57.8428 21.4229 57.8428 19.3036C57.8428 17.7142 57.1456 16.5151 56.086 15.6506C56.0581 16.5151 55.5841 17.7142 55.3331 18.5228Z" fill="#373535"/>
<path d="M41.0566 29.4259C41.6422 27.8086 43.0922 26.5537 44.4586 25.4662C44.2634 25.1873 43.9567 24.5181 43.8452 24.2113C42.1999 23.7094 40.722 22.7613 39.5787 21.5065C39.5787 21.5344 39.5508 21.5901 39.5508 21.618C39.3277 22.5661 39.2998 23.57 39.4114 24.4902C40.1922 24.6296 40.8057 25.3268 40.8057 26.1633C40.8057 26.6653 40.3595 27.3624 40.0249 27.697C40.3595 28.422 40.6105 28.8124 41.0566 29.4259Z" fill="#373535"/>
<path d="M40.9454 30.7645C40.2483 30.0673 39.7742 28.6731 39.3281 27.8086C39.2444 27.8086 39.1607 27.8365 39.0771 27.8365C38.129 27.8365 37.1251 27.0557 37.3761 26.1355C37.4876 25.6336 37.8501 25.2989 38.4078 25.0201C38.2684 23.9604 38.2405 22.4546 38.4915 21.3671C38.5473 21.0604 38.7146 20.9209 38.7982 20.6142C37.7665 19.1084 37.0972 17.0727 37.0972 15.065V14.8419C35.3404 15.7343 34.002 17.1285 34.002 19.3036C34.002 24.1556 36.8184 28.9519 40.9733 30.7923V30.7645" fill="#373535"/>
<path d="M51.206 24.0441C50.6761 25.5499 49.1982 26.6932 47.4972 26.6932C46.577 26.6932 45.7404 26.3864 45.0712 25.8566C43.7048 26.9163 42.4221 28.8125 41.8086 30.4577C42.0874 30.7644 42.2826 31.0154 42.6173 31.2943C43.5654 31.5452 44.9318 31.2943 45.9635 31.2943C50.1463 31.2943 53.883 29.4259 56.0301 26.1634C54.5801 25.1316 52.8791 24.1835 51.206 24.0441Z" fill="#373535"/>
<path d="M38.9646 20.0564C39.2992 19.3314 39.6896 18.69 40.1636 18.0487C40.1079 17.9092 40.08 17.7419 40.08 17.6025C40.08 16.8775 40.6656 16.3198 41.3627 16.3198C41.53 16.3198 41.6973 16.3477 41.8368 16.4034C44.0118 14.7582 46.8282 14.0332 49.7004 14.7024C49.9514 14.7582 50.2024 14.8419 50.4533 14.8976C47.6369 14.5072 44.7089 15.3717 42.5618 17.1285C42.6175 17.2958 42.6733 17.4631 42.6733 17.6304C42.6733 18.3554 42.0877 18.9131 41.3906 18.9131C41.2233 18.9131 41.0838 18.8852 40.9165 18.8295C40.4425 19.4708 40.0242 20.1958 39.7454 21.0045C40.7771 22.0921 42.0598 23.0123 43.4541 23.5142V23.319C43.4541 21.1439 45.2109 19.3872 47.3859 19.3872C49.3379 19.3872 50.9553 20.7814 51.262 22.6498C52.238 22.0363 53.1024 21.2555 53.8275 20.3074C53.6601 20.1122 53.5486 19.8612 53.5486 19.5824C53.5486 18.941 54.0784 18.4112 54.7198 18.4112C54.8034 18.4112 54.8871 18.4112 54.9986 18.4391C55.3612 17.6862 55.64 16.9054 55.8073 16.0688C52.4053 13.5312 45.8244 13.8938 45.8244 13.8938C45.8244 13.8938 40.6098 13.6149 37.0684 15.3438C37.2914 17.0448 37.9607 18.69 38.9646 20.0564Z" fill="#1287B1"/>
<path d="M55.5005 18.7179C55.7515 18.941 55.8909 19.2478 55.8909 19.5824C55.8909 20.2237 55.3611 20.7536 54.7197 20.7536C54.664 20.7536 54.5803 20.7536 54.5245 20.7257C53.7995 21.869 52.8235 22.8729 51.6523 23.5979C53.3255 23.8488 54.9428 24.5739 56.2534 25.6893C57.2015 23.9883 57.7592 21.9805 57.7592 19.8612C57.7592 18.2718 57.0621 17.0727 56.0025 16.2083C55.9467 17.0727 55.7794 17.9093 55.5005 18.7179Z" fill="#1287B1"/>
<path d="M41.2241 29.7885C41.8097 28.1712 42.8136 26.7211 44.2079 25.6336C44.0127 25.3547 43.8454 25.0759 43.7338 24.7413C42.0886 24.2393 40.6107 23.2912 39.4674 22.0364C39.4674 22.0643 39.4395 22.12 39.4395 22.1479C39.2164 23.096 39.1885 24.0999 39.3001 25.0201C40.0808 25.1595 40.6943 25.8567 40.6943 26.6932C40.6943 27.1952 40.4712 27.6413 40.1366 27.9481C40.4155 28.5894 40.8059 29.2308 41.2241 29.7885Z" fill="#1287B1"/>
<path d="M40.9456 30.7366C40.2485 30.0394 39.6629 29.2586 39.2167 28.3663C39.1331 28.3663 39.0494 28.3942 38.9658 28.3942C38.0177 28.3942 37.2648 27.6413 37.2648 26.6932C37.2648 26.0239 37.6551 25.4383 38.2129 25.1595C38.0734 24.0998 38.1292 23.0123 38.3802 21.9248C38.4359 21.618 38.5475 21.3113 38.6311 21.0046C37.5994 19.4988 36.9859 17.6304 36.9859 15.6506V15.4275C35.2291 16.3198 33.8906 17.7141 33.8906 19.8891C33.8906 24.7412 36.7907 28.924 40.9456 30.7923C40.9456 30.7644 40.9456 30.7644 40.9456 30.7366Z" fill="#1287B1"/>
<path d="M51.0947 24.6018C50.5649 26.1076 49.087 27.2509 47.386 27.2509C46.4658 27.2509 45.6292 26.9442 44.96 26.4144C43.5936 27.474 42.5339 28.9519 41.8926 30.5972C42.1714 30.9039 42.4782 31.1828 42.7849 31.4616C43.733 31.7126 44.7648 31.852 45.7965 31.852C49.9793 31.852 53.6881 29.6769 55.8353 26.4144C54.441 25.3826 52.7679 24.7412 51.0947 24.6018Z" fill="#1287B1"/>
<path d="M51.2339 23.5979L54.859 22.7335L51.206 22.5383L54.1897 20.2795L50.8156 21.4786L53.1022 18.2997L49.9233 20.419L51.0108 16.7102L48.8357 19.7776L48.78 15.9015L47.3578 19.3593L46.1866 15.8737L46.2424 19.9728L44.1789 16.2919L45.2943 20.1959L41.9481 17.7699L44.5693 21.0603L40.4144 19.5545L43.6769 21.9806L39.4941 22.12L43.7885 23.2075L39.4941 24.1277L43.7327 24.4345L40.1634 26.7211L43.8443 25.4105L41.2788 28.6173L44.5135 25.996L43.3702 30.3183L45.8799 26.7768L45.5453 30.9318L46.9395 27.1393L48.1386 31.0991L48.4175 27.1115L50.2021 30.5135L49.1425 26.6653L52.4051 29.2029L50.2858 25.9682L53.883 27.3624L51.1223 24.6575L54.8032 24.9364L51.2339 23.5979Z" fill="white"/>
<path d="M12.5293 30.5414C23.795 19.2757 32.802 15.79 40.9724 14.2284C42.032 14.0332 42.2551 11.6351 42.2551 11.6351C42.2551 11.6351 42.3945 13.364 43.1474 13.6149C43.9003 13.838 44.8763 10.8822 44.8763 10.8822C44.8763 10.8822 43.984 13.5313 44.8763 13.6986C45.7686 13.838 47.4696 11.1053 47.4696 11.1053C47.4696 11.1053 46.8004 13.4476 47.2466 13.6149C47.6927 13.7544 49.9793 10.2129 49.9793 10.2129C49.9793 10.2129 48.6408 12.5553 49.8957 12.8063C51.1784 13.0294 53.0746 11.2168 53.0746 11.2168C53.0746 11.2168 51.6246 12.862 52.2659 13.1409C55.0824 14.1169 57.3132 10.4918 57.3132 10.4918C57.3132 10.4918 56.7834 12.0813 55.417 13.838C58.3728 14.5909 60.5479 10.1572 60.5479 10.1572L58.3449 14.5909C59.4604 15.1486 64.0057 9.93408 64.0057 9.93408C64.0057 9.93408 61.6633 14.0053 60.2969 14.8419C61.0498 15.4554 63.7826 13.0015 63.7826 13.0015C63.7826 13.0015 61.5796 15.7342 62.4441 15.8737C63.671 16.8218 68.1327 10.7706 68.1327 10.7706C68.1327 10.7706 66.4038 14.34 63.8384 17.1285C65.9855 18.216 71.3116 11.3284 71.3116 11.3284C71.3116 11.3284 71.1722 13.5313 67.2961 17.017C70.1683 16.6545 73.8771 11.1889 73.8771 11.1889C73.8771 11.1889 72.5386 15.2602 69.276 18.1603C72.0924 17.8814 76.6098 10.9101 76.6098 10.9101C76.6098 10.9101 74.881 15.7342 71.3395 18.5507C75.2714 19.4151 80.96 13.5592 80.96 13.5592C80.96 13.5592 78.7291 17.7141 75.8291 19.443C79.0916 20.6699 83.5533 15.539 83.5533 15.539C83.5533 15.539 79.0916 22.4267 71.9809 22.12C69.6385 22.0084 62.5835 15.0371 47.4696 15.5948C27.4201 16.3198 23.2094 24.797 12.5293 30.5414Z" fill="#373535" fill-opacity="0.35"/>
<path d="M12.9766 29.7048C24.2422 18.4391 33.2492 14.9535 41.4196 13.3919C42.4793 13.1967 42.7024 10.7985 42.7024 10.7985C42.7024 10.7985 42.8418 12.5274 43.5947 12.7784C44.3476 13.0015 45.3236 10.0456 45.3236 10.0456C45.3236 10.0456 44.4312 12.6947 45.3236 12.8621C46.2159 13.0015 47.9169 10.2687 47.9169 10.2687C47.9169 10.2687 47.2477 12.6111 47.6938 12.7784C48.14 12.9178 50.4266 9.37639 50.4266 9.37639C50.4266 9.37639 49.0881 11.7188 50.3429 11.9697C51.6257 12.1928 53.5219 10.3803 53.5219 10.3803C53.5219 10.3803 52.0718 12.0255 52.7132 12.3044C55.5296 13.2803 57.7605 9.65524 57.7605 9.65524C57.7605 9.65524 57.2306 11.2447 55.8642 13.0015C58.8201 13.7544 60.9952 9.32062 60.9952 9.32062L58.848 13.6986C59.9634 14.3121 64.5087 9.09753 64.5087 9.09753C64.5087 9.09753 62.1942 13.1688 60.8 14.0054C61.5529 14.5352 64.2856 12.1092 64.2856 12.1092C64.2856 12.1092 62.0827 14.8419 62.9471 14.9813C64.1462 15.9852 68.6357 9.93409 68.6357 9.93409C68.6357 9.93409 66.879 13.5034 64.3135 16.292C66.4607 17.3516 71.8147 10.4639 71.8147 10.4639C71.8147 10.4639 71.6752 12.6669 67.7992 16.1525C70.6714 15.79 74.3801 10.3245 74.3801 10.3245C74.3801 10.3245 73.0416 14.3958 69.779 17.2958C72.5955 17.017 77.1129 10.0456 77.1129 10.0456C77.1129 10.0456 75.384 14.8698 71.8426 17.6862C75.7744 18.5507 81.463 12.6947 81.463 12.6947C81.463 12.6947 79.2322 16.8497 76.3321 18.5786C79.5947 19.8055 84.0563 14.6746 84.0563 14.6746C84.0563 14.6746 79.5947 21.5623 72.4839 21.2556C70.1415 21.144 63.0866 14.1727 47.9727 14.7304C27.8952 15.4833 23.6567 23.9325 12.9766 29.7048Z" fill="#373535"/>
<path d="M12.25 31.7683C18.2175 34.752 23.6551 31.3221 30.5149 33.2462C35.7295 34.6963 42.0873 36.5367 50.7318 35.2819C59.3484 34.0549 66.7101 30.2904 70.2515 23.5979C71.3391 20.6142 75.8286 24.2671 75.8286 24.2671C75.8286 24.2671 72.566 22.9286 72.6497 23.5421C72.7333 24.1835 77.5296 26.4143 77.5296 26.4143C77.5296 26.4143 73.1795 25.0758 73.4584 26.0797C73.7093 27.0836 78.896 31.1827 78.896 31.1827C78.896 31.1827 72.9564 26.7489 72.4824 27.3624C71.9804 27.9759 74.9921 30.4298 74.9921 30.4298C74.9921 30.4298 70.0564 27.3624 68.2996 28.2548C67.0447 28.8961 73.4305 33.0789 73.4305 33.0789C73.4305 33.0789 69.2756 29.9 68.2996 30.7365C67.3236 31.5731 72.9843 38.3771 72.9843 38.3771C72.9843 38.3771 66.5149 31.4058 65.8735 31.7404C65.2322 32.075 67.6303 35.4213 67.6303 35.4213C67.6303 35.4213 64.5072 31.9635 63.6427 32.5491C62.7783 33.1626 68.188 42.1974 68.188 42.1974C68.188 42.1974 62.3042 32.9395 59.8782 34.5011C63.6706 42.8388 62.2763 44.0379 62.2763 44.0379C62.2763 44.0379 61.8023 35.5328 57.0618 35.7559C54.6636 35.8675 58.1772 42.1138 58.1772 42.1138C58.1772 42.1138 54.9425 36.3694 52.7674 36.5088C56.7271 44.0379 55.3329 47.0774 55.3329 47.0774C55.3329 47.0774 55.9742 40.6359 50.6203 37.0665C52.6838 38.907 49.3375 47.0774 49.3375 47.0774C49.3375 47.0774 52.2655 35.0309 47.1625 37.3175C46.3538 37.68 47.1067 43.3407 47.1067 43.3407C47.1067 43.3407 46.1028 36.8713 44.5412 37.206C43.6489 37.4012 38.8526 46.1572 38.8526 46.1572C38.8526 46.1572 42.7566 36.6761 41.5854 37.0944C40.721 37.3733 39.0757 41.2772 39.0757 41.2772C39.0757 41.2772 39.8565 37.429 39.0757 37.206C38.2949 36.9829 33.8612 41.2772 33.8612 41.2772C33.8612 41.2772 37.1516 37.429 36.5939 36.6204C35.7295 35.4213 34.7256 35.3655 33.5265 35.8396C31.7976 36.5088 29.4553 39.6877 29.4553 39.6877C29.4553 39.6877 31.7976 36.453 31.4072 35.2819C30.7659 33.3299 24.0455 39.0185 24.0455 39.0185C24.0455 39.0185 28.0052 35.2819 27.1129 34.4732C26.2206 33.6924 21.257 33.9155 19.7512 33.9155C15.2058 33.9434 13.6164 32.8837 12.25 31.7683Z" fill="#373535" fill-opacity="0.35"/>
<path d="M12 31.0991C17.9675 34.0829 23.4051 30.653 30.2649 32.577C35.4795 34.055 41.8373 35.8675 50.4818 34.6127C59.0984 33.3857 66.4601 29.6212 70.0015 22.9287C71.0891 19.945 75.5786 23.598 75.5786 23.598C75.5786 23.598 72.316 22.2595 72.3997 22.8729C72.4833 23.5143 77.2796 25.7451 77.2796 25.7451C77.2796 25.7451 72.9295 24.4066 73.2084 25.4105C73.4593 26.4144 78.646 30.5135 78.646 30.5135C78.646 30.5135 72.7901 26.0519 72.316 26.6653C71.842 27.2788 74.8257 29.7327 74.8257 29.7327C74.8257 29.7327 69.89 26.6653 68.1332 27.5577C66.8784 28.199 73.2641 32.3818 73.2641 32.3818C73.2641 32.3818 69.1092 29.2029 68.1332 30.0395C67.1572 30.876 72.818 37.6801 72.818 37.6801C72.818 37.6801 66.3765 30.7087 65.7351 31.0433C65.0937 31.4059 67.4919 34.7521 67.4919 34.7521C67.4919 34.7521 64.285 31.2943 63.4206 31.8799C62.5562 32.4934 67.938 41.5282 67.938 41.5282C67.938 41.5282 62.0821 32.2424 59.6561 33.804C63.4764 42.1696 62.0542 43.3687 62.0542 43.3687C62.0542 43.3687 61.5802 34.8636 56.8397 35.0867C54.4415 35.1983 57.9551 41.4446 57.9551 41.4446C57.9551 41.4446 54.7483 35.756 52.6011 35.8675C56.5608 43.3966 55.1665 46.4361 55.1665 46.4361C55.1665 46.4361 55.8079 39.9945 50.4539 36.4252C52.5174 38.2657 49.1712 46.4361 49.1712 46.4361C49.1712 46.4361 52.0991 34.3896 46.9961 36.6762C46.1875 37.0387 46.9404 42.6994 46.9404 42.6994C46.9404 42.6994 45.9365 36.23 44.3749 36.5646C43.4826 36.7598 38.6863 45.5158 38.6863 45.5158C38.6863 45.5158 42.5902 36.0348 41.4191 36.4531C40.5546 36.732 38.9094 40.6359 38.9094 40.6359C38.9094 40.6359 39.6902 36.7877 38.9094 36.5646C38.1286 36.3416 33.6948 40.6359 33.6948 40.6359C33.6948 40.6359 36.9853 36.7877 36.4276 35.9791C35.5631 34.78 34.5593 34.7242 33.3602 35.1983C31.6313 35.8675 29.2889 39.0464 29.2889 39.0464C29.2889 39.0464 31.6313 35.8117 31.2409 34.6406C30.5995 32.6886 23.8792 38.3772 23.8792 38.3772C23.8792 38.3772 27.8389 34.6406 26.9466 33.8319C26.0542 33.0511 21.0906 33.2742 19.5848 33.2742C14.9558 33.2742 13.3664 32.1866 12 31.0991Z" fill="#373535"/>
</g>
</g>
<defs>
<clipPath id="clip0_6744_65701">
<rect width="72" height="48" fill="white" transform="translate(12 8.80005)"/>
</clipPath>
<clipPath id="clip1_6744_65701">
<rect width="72" height="47.4051" fill="white" transform="translate(12 9.09753)"/>
</clipPath>
</defs>
</svg>
