<svg width="96" height="65" viewBox="0 0 96 65" fill="none" xmlns="http://www.w3.org/2000/svg">
<rect width="96" height="64" transform="translate(0 0.800049)" fill="white"/>
<g clip-path="url(#clip0_6744_65871)">
<path d="M17.3775 25.5892C16.6791 24.754 16.0671 23.9044 15.9591 23.728C15.9563 23.7249 15.953 23.7225 15.9493 23.7208C15.9456 23.7191 15.9415 23.7183 15.9375 23.7183C15.9334 23.7183 15.9293 23.7191 15.9256 23.7208C15.9219 23.7225 15.9186 23.7249 15.9159 23.728C15.7899 23.9044 15.1959 24.754 14.4759 25.5892C8.39905 33.304 15.4119 38.5096 15.4119 38.5096L15.4731 38.5492C15.5235 39.352 15.6567 40.5112 15.6567 40.5112H16.1787C16.1787 40.5112 16.3083 39.3592 16.3587 38.5492L16.4199 38.506C16.4199 38.506 23.4254 33.304 17.3775 25.5892ZM15.9159 38.38C15.7702 38.2572 15.6364 38.121 15.5163 37.9732L15.8979 29.5708C15.8979 29.566 15.8997 29.5615 15.9031 29.5581C15.9065 29.5547 15.9111 29.5528 15.9159 29.5528C15.9206 29.5528 15.9252 29.5547 15.9286 29.5581C15.932 29.5615 15.9339 29.566 15.9339 29.5708L16.3191 37.9768C16.1976 38.1236 16.0626 38.2585 15.9159 38.38Z" fill="#001E2B"/>
<path d="M29.0203 36.6772L26.1007 29.5528V29.5348H23.8255V30.0136H24.1855C24.2399 30.0131 24.2938 30.0237 24.3439 30.0447C24.394 30.0658 24.4394 30.0968 24.4771 30.136C24.5155 30.1748 24.5459 30.2209 24.5663 30.2716C24.5867 30.3223 24.5967 30.3766 24.5959 30.4312L24.5311 37.6024C24.5303 37.7098 24.4885 37.8129 24.4142 37.8905C24.3399 37.9682 24.2388 38.0145 24.1315 38.02H23.7715V38.4916H25.9819V38.02H25.7515C25.6439 38.0163 25.5418 37.9711 25.4667 37.894C25.3916 37.8169 25.3491 37.7137 25.3483 37.606V30.8452L28.5271 38.4952C28.5482 38.5491 28.5851 38.5955 28.6329 38.6281C28.6808 38.6608 28.7374 38.6782 28.7953 38.6782C28.8532 38.6782 28.9098 38.6608 28.9576 38.6281C29.0055 38.5955 29.0424 38.5491 29.0635 38.4952L32.1595 31.0144L32.2063 37.6024C32.2054 37.711 32.1626 37.8151 32.0868 37.8929C32.011 37.9708 31.9081 38.0163 31.7995 38.02H31.5655V38.4916H34.1539V38.02H33.7939C33.6856 38.0164 33.5828 37.9715 33.5065 37.8945C33.4302 37.8175 33.3862 37.7143 33.3835 37.606L33.3619 30.4348C33.3618 30.3255 33.4042 30.2205 33.4801 30.1419C33.556 30.0633 33.6595 30.0173 33.7687 30.0136H34.1467V29.5348H31.9363L29.0203 36.6772Z" fill="#001E2B"/>
<path d="M49.3636 37.8976C49.3265 37.8597 49.2975 37.8146 49.2783 37.7651C49.2591 37.7156 49.2502 37.6627 49.252 37.6096V34.0852C49.2685 33.7969 49.2246 33.5083 49.1229 33.238C49.0212 32.9677 48.8641 32.7216 48.6616 32.5156C48.2258 32.1235 47.6523 31.9203 47.0668 31.9504C46.6345 31.9345 46.2054 32.0302 45.8208 32.2282C45.4362 32.4261 45.109 32.7198 44.8708 33.0808C44.8654 33.0881 44.8583 33.0938 44.8502 33.0976C44.842 33.1014 44.833 33.103 44.824 33.1024C44.8194 33.1025 44.8149 33.1015 44.8107 33.0997C44.8065 33.0978 44.8028 33.0951 44.7997 33.0917C44.7967 33.0883 44.7944 33.0843 44.793 33.08C44.7916 33.0756 44.7911 33.071 44.7916 33.0664L44.5468 32.1268H44.1436L43.0996 32.728V33.0556H43.3696C43.4778 33.0501 43.5842 33.0847 43.6684 33.1528C43.7076 33.1923 43.7378 33.2398 43.757 33.2919C43.7763 33.3441 43.7841 33.3998 43.78 33.4552V37.6024C43.7817 37.656 43.7727 37.7094 43.7536 37.7595C43.7344 37.8096 43.7055 37.8553 43.6684 37.894C43.6305 37.9312 43.5854 37.9602 43.5359 37.9794C43.4863 37.9986 43.4335 38.0075 43.3804 38.0056H43.1176V38.4844H45.5188V38.02H45.256C45.203 38.0219 45.1501 38.013 45.1006 37.9938C45.0511 37.9746 45.006 37.9456 44.968 37.9084C44.931 37.8697 44.902 37.824 44.8828 37.7739C44.8637 37.7238 44.8547 37.6704 44.8564 37.6168V34.8556C44.8605 34.4986 44.9364 34.146 45.0796 33.8188C45.2246 33.4849 45.4557 33.1954 45.7492 32.98C46.0556 32.7589 46.4263 32.6451 46.804 32.656C46.997 32.6401 47.191 32.6715 47.3691 32.7474C47.5472 32.8233 47.7042 32.9414 47.8264 33.0916C48.0558 33.4147 48.1723 33.8045 48.1576 34.2004V37.5916C48.1608 37.6454 48.1525 37.6992 48.1333 37.7496C48.1142 37.7999 48.0846 37.8456 48.0465 37.8837C48.0084 37.9218 47.9627 37.9514 47.9123 37.9706C47.862 37.9897 47.8082 37.998 47.7544 37.9948H47.4952V38.4736H49.8928V37.9984H49.63C49.5809 38.0028 49.5314 37.996 49.4853 37.9785C49.4392 37.9611 49.3976 37.9334 49.3636 37.8976Z" fill="#001E2B"/>
<path d="M71.2948 30.0712C70.6156 29.7108 69.8569 29.5264 69.088 29.5348H65.9668V30.01H66.2728C66.3343 30.0115 66.3948 30.0257 66.4506 30.0518C66.5064 30.0778 66.5561 30.1151 66.5968 30.1612C66.6426 30.203 66.6795 30.2535 66.7055 30.3097C66.7315 30.366 66.7459 30.4269 66.748 30.4888V37.5304C66.7457 37.5918 66.7311 37.652 66.7051 37.7077C66.6791 37.7633 66.6423 37.8132 66.5968 37.8544C66.5561 37.9006 66.5064 37.9379 66.4506 37.9639C66.3948 37.9899 66.3343 38.0041 66.2728 38.0056H65.9668V38.4844H69.088C69.8567 38.4912 70.615 38.3068 71.2948 37.948C71.9596 37.5915 72.5119 37.0567 72.8896 36.4036C73.2956 35.6749 73.4994 34.8508 73.48 34.0168C73.4989 33.1817 73.2951 32.3567 72.8896 31.6264C72.5124 30.9702 71.9603 30.4318 71.2948 30.0712ZM72.2236 34.0024C72.2474 34.7321 72.0955 35.4569 71.7808 36.1156C71.5263 36.6442 71.1219 37.0861 70.618 37.3864C70.1339 37.66 69.5864 37.8016 69.0304 37.7968H68.4004C68.3383 37.7958 68.277 37.7818 68.2206 37.7558C68.1642 37.7298 68.1139 37.6922 68.0728 37.6456C68.0273 37.6038 67.9908 37.5532 67.9655 37.4969C67.9401 37.4406 67.9264 37.3798 67.9252 37.318V30.6796C67.9255 30.6177 67.9388 30.5566 67.9643 30.5002C67.9897 30.4438 68.0267 30.3933 68.0728 30.352C68.1143 30.3059 68.1647 30.2687 68.221 30.2427C68.2774 30.2167 68.3384 30.2025 68.4004 30.2008H69.0304C69.5864 30.1961 70.1339 30.3376 70.618 30.6112C71.1246 30.9163 71.5293 31.3648 71.7808 31.9C72.0912 32.5564 72.2429 33.2766 72.2236 34.0024Z" fill="#001E2B"/>
<path d="M80.8605 34.4812C80.4496 34.0763 79.9266 33.8041 79.3593 33.7C80.2665 33.25 80.7309 32.62 80.7309 31.7956C80.7373 31.3729 80.6115 30.9587 80.3709 30.6112C80.1208 30.2563 79.7767 29.9783 79.3773 29.8084C78.9063 29.6085 78.3984 29.5103 77.8869 29.5204H74.3517V29.9956H74.6397C74.7017 29.997 74.7628 30.0112 74.8192 30.0372C74.8755 30.0632 74.9259 30.1005 74.9673 30.1468C75.0131 30.1885 75.05 30.239 75.076 30.2953C75.102 30.3515 75.1164 30.4124 75.1185 30.4744V37.5304C75.1111 37.656 75.0586 37.7747 74.9706 37.8646C74.8826 37.9546 74.7651 38.0098 74.6397 38.02H74.3301V38.4988H78.1677C78.7216 38.5051 79.2716 38.4049 79.7877 38.2036C80.2504 38.0318 80.6549 37.7322 80.9541 37.3396C81.248 36.9411 81.4 36.4557 81.3861 35.9608C81.4006 35.4194 81.2132 34.892 80.8605 34.4812ZM76.4613 37.66C76.4155 37.6182 76.3785 37.5677 76.3526 37.5114C76.3266 37.4552 76.3121 37.3943 76.3101 37.3324V34.1644H78.1353C78.6719 34.128 79.2012 34.3053 79.6077 34.6576C79.7781 34.822 79.9119 35.0204 80.0006 35.24C80.0893 35.4596 80.1308 35.6953 80.1225 35.932C80.1208 36.2466 80.0443 36.5563 79.8993 36.8356C79.7451 37.1274 79.5102 37.3686 79.2225 37.5304C78.893 37.7147 78.5199 37.8067 78.1425 37.7968H76.7997C76.737 37.7978 76.6747 37.7862 76.6166 37.7627C76.5585 37.7392 76.5056 37.7043 76.4613 37.66ZM76.3173 33.4984V30.6904C76.3264 30.5654 76.3802 30.448 76.4688 30.3594C76.5573 30.2709 76.6748 30.2171 76.7997 30.208H77.6637C77.9114 30.1867 78.1608 30.2163 78.3967 30.295C78.6325 30.3736 78.8498 30.4995 79.0353 30.6652C79.3298 30.9876 79.4851 31.4132 79.4673 31.8496C79.4875 32.2861 79.3422 32.7142 79.0605 33.0484C78.9012 33.204 78.7107 33.324 78.5015 33.4003C78.2924 33.4767 78.0693 33.5076 77.8473 33.4912L76.3173 33.4984Z" fill="#001E2B"/>
<path d="M40.2241 32.368C39.7129 32.0895 39.1393 31.9458 38.5573 31.9504C37.9759 31.9419 37.4024 32.0859 36.8941 32.368C36.3964 32.6421 35.984 33.0482 35.7025 33.5416C35.412 34.0758 35.2598 34.6742 35.2598 35.2822C35.2598 35.8903 35.412 36.4887 35.7025 37.0228C35.983 37.5171 36.3956 37.9235 36.8941 38.1964C37.4041 38.4745 37.9764 38.6182 38.5573 38.614C39.1398 38.623 39.7146 38.4791 40.2241 38.1964C40.7225 37.9235 41.1352 37.5171 41.4157 37.0228C41.7062 36.4887 41.8584 35.8903 41.8584 35.2822C41.8584 34.6742 41.7062 34.0758 41.4157 33.5416C41.1341 33.0482 40.7217 32.6421 40.2241 32.368ZM40.7065 35.284C40.7439 35.974 40.5361 36.655 40.1197 37.2064C39.9254 37.4294 39.6855 37.6082 39.4163 37.7306C39.1471 37.8531 38.8548 37.9165 38.5591 37.9165C38.2633 37.9165 37.971 37.8531 37.7018 37.7306C37.4326 37.6082 37.1928 37.4294 36.9985 37.2064C36.5821 36.655 36.3742 35.974 36.4117 35.284C36.3743 34.593 36.5821 33.9109 36.9985 33.358C37.1928 33.1351 37.4326 32.9563 37.7018 32.8338C37.971 32.7113 38.2633 32.648 38.5591 32.648C38.8548 32.648 39.1471 32.7113 39.4163 32.8338C39.6855 32.9563 39.9254 33.1351 40.1197 33.358C40.536 33.9109 40.7439 34.593 40.7065 35.284Z" fill="#001E2B"/>
<path d="M63.2892 32.368C62.7779 32.09 62.2044 31.9463 61.6224 31.9504C61.04 31.9424 60.4655 32.0863 59.9556 32.368C59.4586 32.6429 59.0465 33.0488 58.764 33.5416C58.4651 34.0729 58.3135 34.6744 58.3248 35.284C58.3134 35.8924 58.4651 36.4928 58.764 37.0228C59.0456 37.5162 59.4579 37.9224 59.9556 38.1964C60.4669 38.4744 61.0404 38.6181 61.6224 38.614C62.2049 38.622 62.7794 38.4781 63.2892 38.1964C63.7869 37.9224 64.1993 37.5162 64.4808 37.0228C64.7713 36.4886 64.9235 35.8902 64.9235 35.2822C64.9235 34.6741 64.7713 34.0758 64.4808 33.5416C64.1963 33.0504 63.7847 32.645 63.2892 32.368ZM63.7716 35.284C63.8075 35.9738 63.5998 36.6542 63.1848 37.2064C62.9899 37.4289 62.7496 37.6072 62.4802 37.7294C62.2107 37.8516 61.9183 37.9148 61.6224 37.9148C61.3266 37.9148 61.0341 37.8516 60.7647 37.7294C60.4952 37.6072 60.255 37.4289 60.06 37.2064C59.645 36.6542 59.4373 35.9738 59.4732 35.284C59.4365 34.593 59.6442 33.9111 60.06 33.358C60.255 33.1355 60.4952 32.9571 60.7647 32.835C61.0341 32.7128 61.3266 32.6496 61.6224 32.6496C61.9183 32.6496 62.2107 32.7128 62.4802 32.835C62.7496 32.9571 62.9899 33.1355 63.1848 33.358C63.5982 33.9124 63.8056 34.5933 63.7716 35.284Z" fill="#001E2B"/>
<path d="M53.9864 31.9505C53.4864 31.944 52.9923 32.0589 52.5464 32.2853C52.1314 32.4908 51.7804 32.8058 51.5312 33.1961C51.293 33.5716 51.168 34.0078 51.1712 34.4525C51.1661 34.843 51.2642 35.228 51.4556 35.5685C51.6413 35.8901 51.8957 36.1667 52.2008 36.3785L51.2612 37.6601C51.2047 37.7364 51.1705 37.827 51.1623 37.9216C51.1541 38.0163 51.1722 38.1113 51.2147 38.1963C51.2572 38.2813 51.3224 38.3528 51.403 38.403C51.4836 38.4533 51.5766 38.4802 51.6716 38.4809H51.9596C51.7035 38.6357 51.4867 38.8476 51.326 39.1001C51.1614 39.3637 51.0729 39.6677 51.0704 39.9785C51.0677 40.2517 51.1343 40.5211 51.264 40.7616C51.3937 41.0021 51.5822 41.2058 51.812 41.3537C52.415 41.7357 53.1225 41.9195 53.8352 41.8793C54.4092 41.8815 54.9793 41.7841 55.52 41.5913C56.0078 41.4258 56.4444 41.1368 56.7872 40.7525C57.1069 40.3861 57.2788 39.9138 57.2696 39.4277C57.2761 39.1758 57.2196 38.9263 57.1051 38.7019C56.9907 38.4774 56.822 38.2851 56.6144 38.1425C56.0906 37.7937 55.4678 37.6244 54.8396 37.6601H52.2044C52.2044 37.6601 52.2044 37.6601 52.2044 37.6385L52.8848 36.7205C53.0458 36.7966 53.2149 36.8546 53.3888 36.8933C53.5645 36.9254 53.743 36.9398 53.9216 36.9365C54.4343 36.9467 54.9418 36.8331 55.4012 36.6053C55.8195 36.399 56.175 36.0845 56.4308 35.6945C56.6718 35.3188 56.797 34.8807 56.7908 34.4345C56.7853 34.087 56.7045 33.7449 56.5541 33.4317C56.4037 33.1185 56.1873 32.8416 55.9196 32.6201L57.3272 32.7749V32.1269H55.0736C54.7223 32.0132 54.3556 31.9537 53.9864 31.9505ZM54.7748 36.0509C54.5328 36.1829 54.262 36.2533 53.9864 36.2561C53.5556 36.2587 53.1413 36.0904 52.8344 35.7881C52.6633 35.6123 52.5311 35.4026 52.4461 35.1726C52.3612 34.9425 52.3254 34.6972 52.3412 34.4525C52.3254 34.2077 52.3612 33.9624 52.4461 33.7323C52.5311 33.5023 52.6633 33.2926 52.8344 33.1169C53.0116 32.942 53.2264 32.81 53.4625 32.731C53.6985 32.652 53.9495 32.6281 54.1962 32.6611C54.443 32.6941 54.6789 32.7832 54.8859 32.9215C55.0928 33.0597 55.2654 33.2436 55.3904 33.4589C55.5572 33.7629 55.6404 34.1058 55.6316 34.4525C55.6454 34.8008 55.5619 35.1461 55.3904 35.4497C55.2454 35.7036 55.0321 35.9119 54.7748 36.0509ZM52.9964 38.4629H54.7748C54.9559 38.4433 55.139 38.4603 55.3134 38.5129C55.4878 38.5655 55.6499 38.6525 55.79 38.7689C55.8942 38.878 55.9755 39.0068 56.0293 39.1477C56.0831 39.2886 56.1082 39.4389 56.1032 39.5897C56.1083 39.8154 56.0594 40.039 55.9604 40.2419C55.8615 40.4448 55.7154 40.6211 55.5344 40.7561C55.0906 41.0698 54.5544 41.2257 54.0116 41.1989C53.5375 41.2205 53.0685 41.0947 52.6688 40.8389C52.5027 40.7197 52.3695 40.5606 52.2814 40.3762C52.1933 40.1918 52.1532 39.9881 52.1648 39.7841C52.1627 39.5022 52.2455 39.2262 52.4024 38.9921C52.5482 38.7646 52.7537 38.5816 52.9964 38.4629Z" fill="#001E2B"/>
<path d="M82.7148 38.38C82.5898 38.3083 82.4856 38.2053 82.4124 38.0812C82.3396 37.9566 82.3011 37.815 82.3008 37.6708C82.3006 37.5265 82.3391 37.3847 82.4124 37.2604C82.4814 37.1339 82.5867 37.0311 82.7148 36.9652C82.8483 36.8921 82.9981 36.8538 83.1504 36.8538C83.3026 36.8538 83.4524 36.8921 83.586 36.9652C83.7116 37.0345 83.816 37.1365 83.8884 37.2604C83.9593 37.3818 83.9978 37.5194 84 37.66C84.0002 37.8043 83.9616 37.946 83.8884 38.0704C83.82 38.1981 83.7146 38.3023 83.586 38.3692C83.452 38.4407 83.3023 38.4778 83.1504 38.4772C82.9992 38.4837 82.8489 38.4501 82.7148 38.38ZM83.514 38.29C83.6178 38.2284 83.7044 38.1418 83.766 38.038C83.8249 37.9271 83.8558 37.8035 83.856 37.678C83.8549 37.5525 83.8241 37.4292 83.766 37.318C83.709 37.2116 83.6211 37.125 83.514 37.0696C83.4028 37.0118 83.2793 36.9817 83.154 36.9817C83.0287 36.9817 82.9052 37.0118 82.794 37.0696C82.69 37.1292 82.6031 37.2148 82.542 37.318C82.4839 37.4292 82.453 37.5525 82.452 37.678C82.4522 37.8035 82.4831 37.9271 82.542 38.038C82.6 38.1445 82.6875 38.232 82.794 38.29C82.9048 38.349 83.0284 38.3799 83.154 38.38C83.28 38.3797 83.4038 38.3475 83.514 38.2864V38.29ZM82.794 38.0632V38.02H82.8336C82.8442 38.0226 82.8553 38.0226 82.866 38.02C82.8685 38.015 82.8698 38.0094 82.8698 38.0038C82.8698 37.9982 82.8685 37.9926 82.866 37.9876V37.354C82.8683 37.3489 82.8694 37.3434 82.8694 37.3378C82.8694 37.3322 82.8683 37.3267 82.866 37.3216C82.8611 37.3187 82.8555 37.3172 82.8498 37.3172C82.8441 37.3172 82.8385 37.3187 82.8336 37.3216H82.794V37.264H83.1324C83.2131 37.2595 83.293 37.2823 83.3592 37.3288C83.3863 37.35 83.408 37.3774 83.4224 37.4087C83.4368 37.44 83.4435 37.4743 83.442 37.5088C83.4432 37.5378 83.438 37.5666 83.4268 37.5934C83.4156 37.6201 83.3987 37.6441 83.3772 37.6636C83.335 37.7093 83.2772 37.7376 83.2152 37.7428L83.2944 37.768L83.442 38.0056C83.4472 38.0132 83.4542 38.0195 83.4623 38.0239C83.4704 38.0283 83.4795 38.0306 83.4888 38.0308H83.5284V38.0884H83.3268L83.118 37.7284H83.064V37.9624C83.0607 37.9729 83.0607 37.9842 83.064 37.9948C83.0744 37.999 83.086 37.999 83.0964 37.9948H83.136V38.0524H82.776L82.794 38.0632ZM83.1252 37.6384C83.1475 37.6407 83.1701 37.6381 83.1913 37.6306C83.2124 37.6231 83.2317 37.611 83.2476 37.5952C83.2767 37.5612 83.2921 37.5175 83.2908 37.4728C83.2938 37.429 83.281 37.3856 83.2548 37.3504C83.2408 37.3348 83.2236 37.3224 83.2043 37.3143C83.185 37.3062 83.1641 37.3026 83.1432 37.3036H83.118C83.1075 37.2997 83.096 37.2997 83.0856 37.3036C83.0827 37.3085 83.0812 37.3141 83.0812 37.3198C83.0812 37.3255 83.0827 37.3311 83.0856 37.336V37.624L83.1252 37.6384Z" fill="#001E2B"/>
</g>
<defs>
<clipPath id="clip0_6744_65871">
<rect width="72" height="18.36" fill="white" transform="translate(12 23.62)"/>
</clipPath>
</defs>
</svg>
