<svg width="96" height="65" viewBox="0 0 96 65" fill="none" xmlns="http://www.w3.org/2000/svg">
<rect width="96" height="64" transform="translate(0 0.800049)" fill="white"/>
<g clip-path="url(#clip0_6744_65837)">
<path d="M17.5632 26.1582V28.5665H17.6398C18.1281 27.6218 18.8866 26.844 19.8187 26.3322C20.764 25.8474 21.8144 25.6037 22.8766 25.6227C24.5585 25.6227 25.8517 26.0815 26.7564 26.9989C27.661 27.9163 28.1132 29.407 28.113 31.4712V46.7234H22.8367V32.5417C22.8367 31.4713 22.6583 30.7265 22.3016 30.3073C22.0795 30.0813 21.8099 29.9074 21.5124 29.7983C21.2149 29.6892 20.8968 29.6476 20.5812 29.6765C18.7206 29.6765 17.7904 30.8106 17.7906 33.0787V46.7242H12.5176V26.1582H17.5632Z" fill="#728E9B"/>
<path d="M36.9337 19.1244H31.6582V23.635H36.9337V19.1244Z" fill="#728E9B"/>
<path d="M36.9337 26.1582H31.6582V46.7238H36.9337V26.1582Z" fill="#728E9B"/>
<path d="M72.7876 47.0219C71.4315 47.0219 70.0886 46.7548 68.8357 46.2358C67.5828 45.7168 66.4443 44.9561 65.4854 43.9971C64.5265 43.0382 63.7658 41.8997 63.2469 40.6468C62.728 39.3938 62.4609 38.051 62.4609 36.6948C62.4609 31.7872 66.3076 27.0791 68.939 23.645C70.3612 21.7989 71.6135 19.828 72.6807 17.7563C72.6906 17.7363 72.7059 17.7194 72.7248 17.7076C72.7438 17.6958 72.7657 17.6896 72.788 17.6896C72.8104 17.6896 72.8323 17.6958 72.8512 17.7076C72.8702 17.7194 72.8855 17.7363 72.8954 17.7563C73.9626 19.8281 75.2151 21.7992 76.6375 23.6454C79.2681 27.0795 83.1159 31.7848 83.1159 36.6952H76.8139C76.7495 36.6952 76.6878 36.7208 76.6423 36.7663C76.5968 36.8118 76.5713 36.8735 76.5713 36.9378V40.4792H73.0306C72.9663 40.4792 72.9046 40.5048 72.8591 40.5503C72.8136 40.5958 72.788 40.6575 72.788 40.7218V47.0219H72.7876Z" fill="#728E9B"/>
<path d="M76.8242 44.5147V41.1428H73.6938C73.6619 41.1428 73.6304 41.1491 73.6009 41.1613C73.5715 41.1735 73.5447 41.1914 73.5222 41.2139C73.4997 41.2364 73.4818 41.2631 73.4696 41.2926C73.4574 41.322 73.4512 41.3536 73.4512 41.3854V44.5151L76.8242 44.5147Z" fill="#728E9B"/>
<path d="M73.4516 47.8834C74.6046 47.862 75.7454 47.6426 76.8242 47.235V45.5365H73.6938C73.6619 45.5365 73.6304 45.5428 73.6009 45.555C73.5715 45.5672 73.5447 45.585 73.5222 45.6076C73.4997 45.6301 73.4818 45.6568 73.4696 45.6863C73.4574 45.7157 73.4512 45.7472 73.4512 45.7791L73.4516 47.8834Z" fill="#728E9B"/>
<path d="M80.6066 40.7306V37.3588H77.477C77.4126 37.3588 77.3509 37.3843 77.3054 37.4298C77.2599 37.4753 77.2344 37.537 77.2344 37.6014V40.7306H80.6062H80.6066Z" fill="#728E9B"/>
<path d="M81.0117 44.9216L81.0157 44.9176C81.1467 44.7842 81.2196 44.6043 81.2184 44.4173V41.7524H77.8457V45.1251H80.5102C80.6977 45.1264 80.8781 45.0532 81.0117 44.9216Z" fill="#728E9B"/>
<path d="M78.0742 47.9105C78.9754 47.5236 79.8154 47.0073 80.5675 46.3779H78.0742V47.9105Z" fill="#728E9B"/>
<path d="M83.3258 40.7306C83.7342 39.6523 83.9538 38.5117 83.975 37.3588H81.6289V40.7306H83.3258Z" fill="#728E9B"/>
<path d="M82.4688 44.4751C83.098 43.7229 83.614 42.8828 84.0005 41.9814H82.4688V44.4751Z" fill="#728E9B"/>
<path d="M82.4688 44.4751C83.098 43.7229 83.614 42.8828 84.0005 41.9814H82.4688V44.4751Z" fill="#728E9B"/>
<path d="M13.8457 19.6152L14.7961 23.2062H14.0416L13.8757 22.4481H12.9181L12.7521 23.2062H12L12.9504 19.6152H13.8457ZM13.7504 21.8532L13.4033 20.2389H13.3933L13.0462 21.8532H13.7504Z" fill="#B9C6CD"/>
<path d="M16.4805 19.6152C16.6406 19.61 16.7998 19.6418 16.9457 19.7081C17.0648 19.7647 17.169 19.8483 17.2501 19.9523C17.3282 20.0547 17.3847 20.1718 17.4161 20.2966C17.4497 20.4256 17.4666 20.5584 17.4664 20.6916C17.4698 20.8564 17.4416 21.0203 17.3834 21.1744C17.334 21.3034 17.2547 21.4188 17.152 21.5112C17.0477 21.6015 16.9252 21.6684 16.7929 21.7075C16.641 21.7525 16.4833 21.7744 16.3249 21.7725H15.9375V23.2061H15.2129V19.6152H16.4805ZM16.259 21.2395C16.3231 21.2421 16.387 21.232 16.4471 21.2095C16.5071 21.187 16.562 21.1527 16.6086 21.1086C16.6569 21.0531 16.6937 20.9884 16.7166 20.9184C16.7395 20.8484 16.748 20.7746 16.7418 20.7012C16.7521 20.5545 16.7113 20.4088 16.6265 20.2887C16.5767 20.2376 16.5161 20.1984 16.4491 20.174C16.3821 20.1497 16.3104 20.1407 16.2395 20.1478H15.9379V21.2391L16.259 21.2395Z" fill="#B9C6CD"/>
<path d="M19.2586 19.6152L20.209 23.2062H19.4537L19.2878 22.4481H18.3302L18.1642 23.2062H17.4121L18.3625 19.6152H19.2586ZM19.1633 21.8532L18.8162 20.2389H18.8062L18.4591 21.8532H19.1633Z" fill="#B9C6CD"/>
<path d="M21.9971 20.2568C21.9643 20.197 21.9146 20.1481 21.8542 20.1164C21.7939 20.0846 21.7255 20.0712 21.6576 20.078C21.5766 20.0749 21.4973 20.1008 21.4337 20.151C21.3658 20.2148 21.3177 20.2968 21.2953 20.3872C21.2565 20.5267 21.2328 20.67 21.2247 20.8146C21.2111 20.9907 21.2045 21.2061 21.2047 21.4609C21.2023 21.681 21.2115 21.901 21.2323 22.1201C21.2427 22.2533 21.2714 22.3845 21.3176 22.5099C21.3438 22.5865 21.3952 22.652 21.4633 22.6958C21.5261 22.7287 21.5962 22.7452 21.6672 22.7437C21.7283 22.7441 21.7889 22.733 21.8459 22.711C21.9067 22.6842 21.957 22.6382 21.9891 22.5801C22.0367 22.4941 22.0691 22.4006 22.0849 22.3036C22.1114 22.1484 22.1232 21.991 22.1204 21.8336H22.8446C22.8453 22.0189 22.8301 22.2039 22.7991 22.3866C22.7734 22.5487 22.7162 22.7042 22.6307 22.8442C22.5462 22.9771 22.4258 23.0834 22.2836 23.1511C22.1009 23.2316 21.9022 23.2693 21.7027 23.2616C21.479 23.2718 21.2562 23.2268 21.0539 23.1307C20.8949 23.0457 20.7658 22.9139 20.684 22.7533C20.5928 22.5691 20.5365 22.3695 20.5181 22.1648C20.4918 21.9141 20.4793 21.6623 20.4806 21.4103C20.4794 21.1592 20.4919 20.9083 20.5181 20.6586C20.5364 20.453 20.5926 20.2527 20.684 20.0677C20.767 19.906 20.8956 19.7722 21.0539 19.683C21.2546 19.5818 21.4781 19.5341 21.7027 19.5446C21.9138 19.5343 22.124 19.5775 22.3139 19.6703C22.4527 19.7439 22.5685 19.8543 22.6487 19.9895C22.7223 20.1179 22.7693 20.2598 22.7871 20.4068C22.8049 20.546 22.8143 20.6862 22.8151 20.8265H22.0905C22.1022 20.632 22.0703 20.4374 21.9971 20.2568Z" fill="#B9C6CD"/>
<path d="M24.146 19.6152V20.9882H24.9911V19.6152H25.7153V23.2062H24.9911V21.6102H24.146V23.2062H23.4219V19.6152H24.146Z" fill="#B9C6CD"/>
<path d="M28.3917 20.2089H27.1089V21.054H28.3159V21.6473H27.1089V22.6129H28.4416V23.2062H26.3848V19.6152H28.3913L28.3917 20.2089Z" fill="#B9C6CD"/>
<path d="M39.4941 29.7511V26.1578H42.1698V23.8265C42.1488 23.0321 42.2785 22.2409 42.552 21.4948C42.7768 20.8995 43.1521 20.3727 43.6413 19.9659C44.152 19.5649 44.7464 19.284 45.3805 19.1439C46.1325 18.9713 46.9023 18.888 47.6739 18.8958C48.6163 18.8958 49.5591 18.9339 50.5023 19.0103V22.7564C50.3256 22.7267 50.1465 22.7133 49.9673 22.7165H49.4701C48.9197 22.6656 48.3681 22.8001 47.9029 23.0987C47.7371 23.2614 47.6099 23.4591 47.5305 23.6773C47.4511 23.8956 47.4216 24.1288 47.444 24.3599V26.1554H50.5023V29.7491H47.444V46.723H42.1694V29.7511H39.4941Z" fill="#B9C6CD"/>
<path d="M58.9137 19.1244H53.6387V23.635H58.9137V19.1244Z" fill="#B9C6CD"/>
<path d="M58.9137 26.1578H53.6387V46.7235H58.9137V26.1578Z" fill="#B9C6CD"/>
<path d="M70.5155 22.6901C70.3248 22.9562 70.1373 23.2244 69.9458 23.4881C69.3409 24.3228 68.7037 25.1331 68.0801 25.9539C68.3243 25.9876 68.5694 26.0251 68.8154 26.0664C69.3341 25.1954 69.8656 24.33 70.3639 23.4462C70.5036 23.1988 70.6404 22.9491 70.7785 22.7001C70.8878 22.505 70.634 22.5245 70.5155 22.6901Z" fill="#B9C6CD"/>
<path d="M68.0535 27.3682C68.1452 27.2086 68.2402 27.049 68.3327 26.8866C68.0535 26.8324 67.7742 26.7821 67.4949 26.7374H67.4921C66.6076 27.9214 65.8 29.1608 65.0742 30.448C63.7759 32.8021 62.8753 35.4334 63.2891 38.1486C63.6412 40.4059 64.7819 42.4654 66.5086 43.9615C66.8756 44.2788 67.2665 44.5676 67.6776 44.8253C67.7036 44.8414 67.7346 44.8474 67.7647 44.842C67.7948 44.8367 67.8219 44.8204 67.8407 44.7963C67.8596 44.7722 67.8689 44.742 67.8668 44.7115C67.8648 44.681 67.8515 44.6523 67.8296 44.631C66.4929 43.34 65.5282 41.7131 65.0367 39.9209C64.2638 37.0705 64.9062 34.1495 66.0066 31.4762C66.6023 30.0654 67.2859 28.6934 68.0535 27.3682Z" fill="#B9C6CD"/>
</g>
<defs>
<clipPath id="clip0_6744_65837">
<rect width="72" height="30.2209" fill="white" transform="translate(12 17.6896)"/>
</clipPath>
</defs>
</svg>
