<svg width="96" height="65" viewBox="0 0 96 65" fill="none" xmlns="http://www.w3.org/2000/svg">
<rect width="96" height="64" transform="translate(0 0.800049)" fill="white"/>
<g clip-path="url(#clip0_6744_65825)">
<g clip-path="url(#clip1_6744_65825)">
<path d="M28.8847 56.8002H27.7245V50.7345H28.8887L28.8847 56.8002ZM27.7363 50.7345V46.9776H28.9005V50.7385L27.7363 50.7345ZM27.7363 56.8002H26.5603V53.0235H19.0819V56.8002H16.793V46.9736H19.0819V50.7306H27.7245V56.7962L27.7363 56.8002ZM27.7363 46.9776H26.5603V50.7385H27.7442L27.7363 46.9776Z" fill="#BA160C"/>
<path d="M40.9213 51.8158C41.3059 52.0512 41.6192 52.3866 41.8277 52.7863C42.0363 53.1861 42.1322 53.6349 42.1052 54.085C42.1149 54.4478 42.0496 54.8088 41.9134 55.1452C41.7773 55.4817 41.5732 55.7865 41.3139 56.0406C41.0547 56.2946 40.7458 56.4925 40.4067 56.6218C40.0675 56.7512 39.7053 56.8092 39.3428 56.7922H35.9923V54.5033H39.3585C39.69 54.5033 39.8558 54.2547 39.8558 53.7574C39.8558 53.2602 39.69 53.0129 39.3585 53.0155H35.9923V50.7503H39.1889C39.5203 50.7503 39.6861 50.5017 39.6861 50.0044C39.6861 49.5072 39.5203 49.2599 39.1889 49.2625H35.9923V46.9736H39.1889C39.5746 46.9541 39.9599 47.0193 40.3179 47.1645C40.6758 47.3097 40.9976 47.5314 41.2607 47.8142C41.7201 48.3271 41.9658 48.9964 41.9474 49.6848C41.9636 50.0968 41.8786 50.5065 41.6997 50.878C41.5208 51.2496 41.2535 51.5716 40.9213 51.8158ZM35.9923 56.8001H29.8398V50.7503H35.9923V53.0195H32.1288V54.5072H35.9923V56.7962V56.8001ZM35.9923 49.2664H32.1288V50.8253L29.8398 50.77V46.9815H35.9923V49.2704V49.2664Z" fill="#BA160C"/>
<path d="M43.1788 44.4202V43.3744H44.8876V42.7391C44.8876 42.5128 44.8113 42.3997 44.6587 42.3997H43.1788V41.3539H44.6587C44.8324 41.3463 45.0055 41.3778 45.1654 41.4461C45.3252 41.5144 45.4676 41.6178 45.5822 41.7485C45.8175 42.0197 45.944 42.3683 45.9373 42.7272V45.8567H44.8876V44.4202H43.1788ZM57.1254 45.8567H53.6447C53.2588 45.8685 52.8841 45.7265 52.6028 45.4621C52.4631 45.3325 52.3525 45.1747 52.2784 44.9992C52.2042 44.8237 52.1682 44.6344 52.1726 44.4439V42.7785C52.1682 42.588 52.2042 42.3988 52.2784 42.2233C52.3525 42.0477 52.4631 41.89 52.6028 41.7604C52.8841 41.4959 53.2588 41.354 53.6447 41.3657H57.1254V42.4155H53.6447C53.3658 42.4155 53.2263 42.547 53.2263 42.8101V44.4637C53.2263 44.7267 53.3658 44.8583 53.6447 44.8583H57.1254V45.8567ZM68.1753 45.8567H67.1176V44.1243H64.4262V45.8567H63.3607V41.3539H64.4104V43.0745H67.1019V41.3539H68.1595L68.1753 45.8567ZM79.2252 42.4036H75.4761V43.0785H78.9805V44.1282H75.4761V44.8109H79.2173V45.8567H74.4106V41.3539H79.2094V42.4036H79.2252ZM43.1788 41.3539V42.4036H41.6871C41.5424 42.4036 41.47 42.5168 41.47 42.743V43.3744H43.1788V44.4242H41.47V45.8567H40.4203V42.7391C40.4136 42.3802 40.5402 42.0315 40.7755 41.7604C40.8882 41.6305 41.0286 41.5277 41.1864 41.4594C41.3442 41.3911 41.5153 41.3591 41.6871 41.3657H43.1788V41.3539ZM31.3633 44.3887V43.3389H32.9024C33.055 43.3389 33.1313 43.185 33.1313 42.8772C33.1313 42.5694 33.055 42.4115 32.9024 42.4036H31.3633V41.3539H32.9024C33.0871 41.3502 33.2699 41.3922 33.4344 41.4762C33.599 41.5602 33.7402 41.6836 33.8456 41.8354C34.0699 42.1356 34.1867 42.5026 34.1771 42.8772C34.1904 43.2536 34.0733 43.623 33.8456 43.923C33.7402 44.0748 33.599 44.1981 33.4344 44.2821C33.2699 44.3661 33.0871 44.4082 32.9024 44.4045L31.3633 44.3887ZM22.3182 45.8567H21.2605V44.4202H19.5557V43.3744H21.2645V42.7391C21.2645 42.5128 21.1882 42.3997 21.0356 42.3997H19.5557V41.3539H21.0356C21.2092 41.3463 21.3824 41.3778 21.5422 41.4461C21.7021 41.5144 21.8445 41.6178 21.959 41.7485C22.1985 42.0221 22.3267 42.3756 22.3182 42.7391V45.8567ZM31.3633 41.3539V42.4036H29.5993V43.3389H31.3633V44.3887H29.5993V45.8567H28.5495V41.3539H31.3633ZM19.5557 44.4202H17.843V45.8567H16.7932V42.7391C16.7866 42.3802 16.9131 42.0315 17.1484 41.7604C17.2611 41.6305 17.4015 41.5277 17.5593 41.4594C17.7171 41.3911 17.8882 41.3591 18.06 41.3657H19.5557V42.4155H18.06C17.9153 42.4155 17.843 42.5286 17.843 42.7549V43.3863H19.5557V44.4202Z" fill="#666666"/>
<path d="M55.0739 56.8001H52.785V53.6706H49.0596V51.3817H52.789V50.0084C52.789 49.5138 52.6232 49.2664 52.2917 49.2664H49.0596V46.9775H52.3114C52.6898 46.9673 53.0656 47.0422 53.4112 47.1965C53.7568 47.3509 54.0634 47.5808 54.3083 47.8694C54.8277 48.4582 55.1091 49.2194 55.0976 50.0044L55.0739 56.8001ZM49.0596 53.6706H45.3303V56.8001H43.0414V50.0084C43.0298 49.2233 43.3112 48.4621 43.8306 47.8734C44.0738 47.5835 44.3794 47.3523 44.7245 47.1972C45.0696 47.0421 45.4453 46.967 45.8236 46.9775H49.0754V49.2664H45.8078C45.4894 49.2664 45.3303 49.5138 45.3303 50.0084V51.3817H49.0596V53.6706Z" fill="#BA160C"/>
<path d="M67.7804 53.7653C67.8001 54.5393 67.5346 55.2935 67.0346 55.8845C66.7874 56.1782 66.4776 56.4128 66.128 56.5712C65.7784 56.7296 65.3978 56.8078 65.014 56.8001H56.5451V54.5112H65.014C65.3324 54.5112 65.4915 54.2625 65.4915 53.7653C65.4915 53.2681 65.3324 53.0207 65.014 53.0234H58.8537C58.4699 53.0311 58.0893 52.9529 57.7397 52.7945C57.3901 52.6361 57.0803 52.4015 56.8331 52.1078C56.3223 51.5298 56.0501 50.7794 56.0715 50.0083C56.06 49.2233 56.3414 48.4621 56.8608 47.8733C57.1065 47.5834 57.4142 47.3524 57.7612 47.1973C58.1082 47.0423 58.4856 46.9672 58.8655 46.9775H67.3069V49.2664H58.8537C58.5354 49.2664 58.3762 49.5137 58.3762 50.0083C58.3762 50.5029 58.5354 50.745 58.8537 50.7345H65.014C65.3978 50.7267 65.7784 50.8049 66.128 50.9633C66.4776 51.1217 66.7874 51.3564 67.0346 51.65C67.5337 52.2401 67.7991 52.9927 67.7804 53.7653Z" fill="#BA160C"/>
<path d="M68.7324 56.8002V46.9736H79.2062V49.2625H71.0213V50.7345H78.6694V53.0235H71.0213V54.5112H79.1864V56.8002H68.7324Z" fill="#BA160C"/>
<path d="M66.5935 29.4476C66.5318 29.3674 66.4825 29.2782 66.4475 29.1832C66.3071 28.9034 66.0617 28.6906 65.7648 28.5913C65.5659 28.5075 65.3777 28.4002 65.2044 28.2716C64.8926 28.0309 64.6322 27.9875 63.7245 28.0151C62.73 28.0467 62.3748 27.9046 62.1025 27.3718L61.9683 27.1074L61.8855 27.3995C61.7237 27.9717 61.5342 28.1177 61.0331 28.0664C60.9056 28.0406 60.7739 28.0451 60.6485 28.0793C60.5231 28.1136 60.4075 28.1767 60.3109 28.2637C60.1846 28.3742 60.157 28.3821 60.0346 28.3269C59.9123 28.2716 59.8925 28.2716 59.7742 28.4058C59.683 28.5113 59.554 28.5765 59.415 28.5873C59.123 28.6386 59.0204 28.7689 58.9178 29.128C58.756 29.8028 58.4205 29.6331 58.1285 28.7333C57.7852 27.7231 58.0693 26.989 59.2256 25.8801C59.8215 25.3118 60.0662 24.9882 60.1727 24.6488C60.2517 24.3844 60.2635 24.3726 60.3622 24.4436C60.8765 24.898 61.3603 25.3858 61.8105 25.9038C62.292 26.4602 62.4143 26.5549 62.4814 26.4208C62.5485 26.2866 62.1301 25.7814 61.4553 25.0869C59.7781 23.3663 57.8286 22.3875 55.7528 22.2297C54.9135 22.1394 54.065 22.263 53.2863 22.5888C52.7483 22.7432 52.2333 22.9688 51.7551 23.2597C50.8502 23.8189 49.9935 24.4525 49.1939 25.154C48.1836 26.0103 48.1836 26.0103 46.8694 25.9867C46.3367 25.9867 45.6855 25.9867 45.4645 25.9867C44.9345 26.036 44.4202 26.1931 43.9531 26.4484C43.3782 26.8869 42.883 27.4208 42.4889 28.0269C42.0532 28.7107 41.4857 29.301 40.8196 29.7634C40.3105 30.0949 40.1172 30.304 40.058 30.5763C40.0296 30.6677 40.0271 30.7651 40.0508 30.8577C40.0745 30.9504 40.1234 31.0347 40.1921 31.1012C40.6854 31.3388 41.2104 31.5036 41.751 31.5905C41.8965 31.6162 42.0393 31.6558 42.1772 31.7089C42.2364 31.7563 41.5102 32.4982 40.9577 32.9402C39.7592 33.8606 38.454 34.6331 37.0705 35.241C36.2966 35.5758 35.5664 36.0039 34.8961 36.5156C34.5725 36.7524 34.1068 37.0721 33.8306 37.226C32.6822 37.9008 31.4627 37.9758 31.0681 37.3957C31.0087 37.3023 30.9339 37.2196 30.8471 37.151C30.6664 37.0113 30.5204 36.8318 30.4205 36.6265C30.3205 36.4211 30.2694 36.1955 30.2709 35.9671C30.2611 35.664 30.2294 35.3619 30.1762 35.0634C29.9675 34.0404 29.9461 32.9881 30.113 31.9576C30.4051 30.1541 31.3601 27.6639 32.7019 25.2013C33.5898 23.5754 34.5054 22.2455 36.7035 19.3962C38.0611 17.6361 38.0729 17.6164 38.0848 16.9849C38.0848 16.8429 38.0335 15.9668 37.9624 15.0354C37.7454 12.1309 37.844 10.9706 38.4005 9.9051C38.7241 9.3605 39.3673 8.83957 39.833 8.80011C40.0974 8.78038 40.1527 8.89482 40.2277 9.6328C40.2871 10.6507 40.4849 11.6557 40.8157 12.6202C41.1511 13.6187 41.3445 13.9817 41.7391 14.3685C42.2798 14.8973 42.5284 14.9486 43.9018 14.7631C48.7124 14.1593 52.1892 14.5303 55.0424 15.947C57.6905 17.2572 60.3503 19.8145 62.6984 23.2992L63.1444 23.9622L63.6258 24.124C64.6977 24.4303 65.6332 25.0929 66.2778 26.0024C66.6856 26.7146 66.9359 27.5058 67.0118 28.3229C67.0592 29.0925 67.0118 29.4437 66.8027 29.5068C66.7665 29.5124 66.7295 29.5075 66.696 29.4928C66.6624 29.4782 66.6337 29.4543 66.6133 29.424L66.5935 29.4476ZM66.1752 27.9441C66.118 27.7041 66.0415 27.4692 65.9463 27.2416C65.618 26.3261 64.9415 25.5772 64.0639 25.1579C63.3338 24.7633 62.1262 24.416 61.8539 24.5107C61.7513 24.5462 61.7513 24.566 61.8539 24.783C62.0025 25.0367 62.1728 25.277 62.363 25.5013C62.5529 25.7242 62.7233 25.9632 62.8721 26.2155C62.9668 26.4168 62.9707 26.4681 62.8958 26.6102C62.8208 26.7523 62.6432 26.8785 62.3669 26.8193C62.2525 26.7957 62.1538 26.7878 62.1459 26.8193C62.1591 26.8995 62.1887 26.9761 62.2328 27.0443C62.4419 27.4389 62.7339 27.5139 63.7403 27.4784C65.2123 27.4192 65.5477 27.51 65.9739 28.0664C66.0647 28.1848 66.191 28.1138 66.1752 27.948V27.9441ZM33.6648 36.8629C33.9923 36.6715 34.3097 36.4634 34.6159 36.2394C35.447 35.6509 36.3262 35.1334 37.2442 34.6924C38.3287 34.172 39.3688 33.5635 40.3539 32.8731C40.8117 32.5337 41.2064 32.1667 41.1827 32.0838C41.0496 32.0231 40.9089 31.9806 40.7644 31.9576C40.4292 31.8661 40.1029 31.7446 39.7896 31.5945C39.5918 31.4892 39.3843 31.4033 39.17 31.338C38.8855 31.5492 38.6488 31.8181 38.4755 32.1272C37.5994 33.3783 37.2481 33.7058 35.5236 34.7121C34.9579 34.9933 34.4526 35.382 34.0358 35.8566C33.7834 36.2152 33.4646 36.522 33.0965 36.7603C32.8651 36.9065 32.6191 37.0281 32.3625 37.1234C31.8297 37.3049 31.8258 37.4904 32.3625 37.4075C32.825 37.3015 33.2674 37.1216 33.6727 36.8748L33.6648 36.8629ZM58.9691 28.1809C59.0275 28.0753 59.1036 27.9805 59.194 27.9007L59.3795 27.731H59.8965C60.5437 27.7112 61.3211 27.4744 61.475 27.2535L61.7 26.9338C61.7789 26.8233 61.8736 26.7483 61.9328 26.7483C61.992 26.7483 62.0315 26.7483 62.0315 26.7483C62.0315 26.7483 60.7371 25.296 60.6345 25.2171L60.5121 25.1224L60.3266 25.4105C60.224 25.5683 59.8491 26.038 59.4979 26.4563C58.5942 27.5258 58.3535 27.9954 58.5587 28.3071C58.6179 28.3979 58.6652 28.4137 58.7797 28.3742C58.8593 28.3471 58.9256 28.2906 58.9651 28.2164L58.9691 28.1809ZM36.5575 32.5219C36.6437 32.4398 36.7133 32.3421 36.7627 32.2338C36.8574 31.8076 36.0169 32.1312 35.9064 32.5653C35.8787 32.6797 35.9064 32.7034 35.9813 32.7508C36.0563 32.7981 36.3365 32.7508 36.5536 32.5219H36.5575ZM37.7848 30.8683C38.1756 30.607 38.5463 30.3168 38.8938 30.0001C39.1976 29.6601 39.388 29.2339 39.4384 28.7807C39.4702 28.5701 39.5327 28.3654 39.6239 28.173C39.6876 28.0736 39.7243 27.9593 39.7304 27.8415C39.5962 27.4468 38.1755 27.727 37.3941 28.3032C36.447 29.0017 35.8156 30.4303 36.0524 31.259C36.2063 31.7681 36.4904 31.6971 37.773 30.8407L37.7848 30.8683ZM58.1325 22.2179C57.8887 21.9784 57.604 21.7846 57.2919 21.6456C56.5925 21.3427 55.8359 21.1946 55.074 21.2115C54.4584 21.1878 54.194 21.1405 54.1584 21.0379C54.1612 20.9755 54.1788 20.9146 54.2097 20.8603C54.3992 20.4657 55.887 20.367 57.0551 20.6472C57.5655 20.7745 58.0635 20.9475 58.5429 21.1642C58.9099 21.3299 58.9612 21.3418 58.9375 21.2431C58.6947 20.9081 58.3875 20.625 58.0338 20.4104C56.8039 19.6203 55.3461 19.2621 53.8901 19.3922C52.835 19.4287 51.8105 19.7565 50.9303 20.3394C50.0923 21.0129 49.403 21.8527 48.9058 22.8059C48.4919 23.6098 48.0225 24.3838 47.5009 25.1224C47.3924 25.2352 47.309 25.3697 47.2562 25.517C47.3773 25.5551 47.5047 25.5685 47.6311 25.5565H47.9705L48.6059 24.9527C49.6279 23.9348 50.7924 23.0707 52.0629 22.3875C53.7471 21.6599 55.637 21.5632 57.3866 22.1152C57.9746 22.281 58.1759 22.3086 58.1325 22.2257V22.2179ZM45.8118 31.188C44.1933 31.5346 42.5154 31.4886 40.9183 31.0538C40.5749 30.9552 40.4644 30.8999 40.4131 30.7894C40.2869 30.5171 40.4881 30.2645 41.1314 29.8817C41.6997 29.5463 42.0351 29.203 42.7415 28.2361C43.6965 26.9338 44.1228 26.5628 44.9554 26.3339C45.3501 26.2274 45.6066 26.2077 47.0155 26.2037C49.1268 26.2037 51.3841 26.2274 51.5696 26.2747C51.9919 26.3774 51.6683 27.3955 50.9263 28.2992C50.2853 29.0475 49.5138 29.6733 48.6493 30.1462C47.7361 30.5766 46.7865 30.9252 45.8118 31.188ZM31.3049 27.3008C31.2186 27.1232 31.1524 26.9366 31.1075 26.7444C30.8068 25.5087 30.9652 24.2057 31.5535 23.0782C31.7424 22.7117 32.0123 22.3932 32.3428 22.1468C32.5085 22.0916 32.6743 22.2297 32.9663 22.6796C33.0877 22.8784 33.235 23.0602 33.4043 23.2202C33.4912 23.2794 33.5583 23.3386 33.5504 23.3505L33.1557 23.9464C32.5938 24.8335 32.0902 25.7563 31.6482 26.7088C31.4035 27.2574 31.3404 27.3561 31.2851 27.289L31.3049 27.3008Z" fill="#050505"/>
</g>
</g>
<defs>
<clipPath id="clip0_6744_65825">
<rect width="72" height="48" fill="white" transform="translate(12 8.80005)"/>
</clipPath>
<clipPath id="clip1_6744_65825">
<rect width="62.4122" height="48" fill="white" transform="translate(16.793 8.80005)"/>
</clipPath>
</defs>
</svg>
