<?xml version="1.0" encoding="UTF-8"?>
<!-- Generated by Pixelmator Pro 3.2.2 -->
<svg width="90" height="90" viewBox="0 0 90 90" xmlns="http://www.w3.org/2000/svg" xmlns:xlink="http://www.w3.org/1999/xlink">
    <g id="Main-page">
        <g id="tanta-healtcare">
            <g id="Industry">
                <g id="1">
                    <g id="icon21">
                        <path id="Rectangle" fill="#ffffff" stroke="none" d="M 0 0 L 90 0 L 90 90 L 0 90 Z"/>
                        <g id="Group-17">
                            <g id="Group-16">
                                <path id="Fill-2" fill="#bfc3c7" stroke="none" d="M 53.082737 77.334846 L 78.253304 62.801826 C 79.63047 62.007111 80.26783 60.930511 80.212929 59.811455"/>
                                <path id="Fill-4" fill="#bfc3c7" stroke="none" d="M 80.212753 59.811455 L 80.222382 59.811455 L 80.222382 54.950321 L 71.184448 52.612587 L 51.144455 41.042774 C 47.771435 39.095039 42.668037 38.882774 39.746151 40.570698 L 19.219925 52.4207 L 9.638604 54.689945 L 9.638604 59.488808 C 9.631812 59.595795 9.634076 59.704468 9.638604 59.811455 L 9.638604 59.886169 L 9.642567 59.886169 C 9.73766 61.117302 10.671057 62.393715 12.418415 63.401833 L 38.706905 78.580132 C 42.081623 80.52787 47.184452 80.740135 50.106342 79.053337 L 53.082565 77.334846"/>
                                <path id="Fill-6" fill="#e9e8e7" stroke="none" d="M 78.253189 57.68055 L 50.106396 73.932053 C 47.184509 75.618286 42.08168 75.406021 38.706963 73.458847 L 12.418472 58.281677 C 9.043756 56.332813 8.678095 53.387154 11.599981 51.699795 L 39.746208 35.449417 C 42.668095 33.762058 47.770924 33.973755 51.144512 35.92149 L 77.434135 51.099792 C 80.809418 53.046963 81.175079 55.994324 78.253189 57.68055"/>
                                <path id="Fill-8" fill="#551212" stroke="none" d="M 27.381115 20.457451 L 31.017342 18.345001 C 32.127907 17.69915 33.433754 17.622734 34.822247 18.070473 C 35.643566 18.335381 36.423565 18.692551 37.161678 19.119339 C 42.456398 22.175941 45.608097 28.770283 46.113003 29.96349 L 42.477341 32.075943 C 41.972435 30.882736 38.820736 24.289528 33.525452 21.231789 C 32.787338 20.805565 32.007339 20.44783 31.186586 20.184059 C 29.798096 19.73632 28.49168 19.812172 27.381115 20.457451"/>
                                <path id="Fill-10" fill="#551212" stroke="none" d="M 64.281906 45.53281 C 63.321907 37.90432 59.495491 32.482811 55.509453 29.805454 C 55.14436 29.559792 54.792286 29.340736 54.453228 29.144321 C 51.167377 27.247528 49.074738 27.569038 47.779076 28.321869 L 44.142849 30.434887 C 45.438511 29.682056 47.531151 29.360546 50.817001 31.257339 C 51.156624 31.45319 51.508698 31.673378 51.873795 31.917904 C 55.859833 34.596397 59.68568 40.017342 60.645679 47.645264 C 61.363415 53.3447 59.039833 56.538849 55.723415 58.466774 L 59.359642 56.353191 C 62.676056 54.426399 64.999641 51.231682 64.281906 45.53281"/>
                                <path id="Fill-12" fill="#ac2121" stroke="none" d="M 61.139378 47.398983 C 62.784851 60.46653 48.440887 60.366341 42.802586 62.012939 C 37.188622 53.870491 22.89617 37.436718 24.607868 26.307281 C 25.450699 20.816154 28.291077 18.912003 31.59787 19.978416 C 32.418621 20.242188 33.198624 20.599922 33.936737 21.026718 C 39.231453 24.083885 42.383717 30.677094 42.888058 31.8703 C 43.434284 31.214828 45.520134 27.668037 51.310699 31.011055 C 51.649757 31.206905 52.001831 31.425961 52.366924 31.671623 C 56.352962 34.349548 60.179379 39.770493 61.139378 47.398983"/>
                                <path id="Fill-14" fill="#cecdcc" stroke="none" d="M 38.982113 30.237621 L 42.516453 51.037247 L 46.281738 40.514603 L 47.846264 48.543285 L 49.107399 45.041206 L 50.196453 48.876114 L 50.819096 48.341774 L 66.058525 56.862907 C 66.267395 56.983475 66.438339 57.277248 66.43721 57.520077 C 66.436638 57.757813 66.264565 57.858002 66.055695 57.737434 L 51.296833 49.328377 L 49.964943 50.466114 L 49.152679 47.607624 L 47.736454 51.545547 L 46.173058 43.524792 L 42.352867 54.199699 L 38.846264 33.573284 L 35.53381 43.816868 L 34.389282 39.56649 L 20.045887 31.33913 C 19.835888 31.217999 19.666641 30.921398 19.667774 30.683659 C 19.668341 30.440266 19.838152 30.343472 20.048717 30.465168 L 34.655888 38.844791 L 35.477207 41.069321 L 38.982113 30.237621 Z"/>
                            </g>
                        </g>
                    </g>
                </g>
            </g>
        </g>
    </g>
</svg>
