<?xml version="1.0" encoding="UTF-8"?>
<!-- Generated by Pixelmator Pro 3.2.2 -->
<svg width="90" height="90" viewBox="0 0 90 90" xmlns="http://www.w3.org/2000/svg" xmlns:xlink="http://www.w3.org/1999/xlink">
    <g id="Main-page">
        <g id="tanta">
            <g id="Industry">
                <g id="8">
                    <g id="icon28">
                        <path id="Rectangle" fill="#ffffff" stroke="none" d="M 0 0 L 90 0 L 90 90 L 0 90 Z"/>
                        <g id="Group-35">
                            <g id="Group-34">
                                <path id="Fill-2" fill="#bfc3c7" stroke="none" d="M 80.212532 59.811455 L 80.222717 59.811455 L 80.222717 54.950321 L 71.184227 52.612587 L 51.144794 41.042774 C 47.771774 39.095039 42.667812 38.882774 39.745926 40.570698 L 19.220264 52.4207 L 9.638378 54.689945 L 9.638378 59.488808 C 9.631585 59.595795 9.634416 59.704468 9.638378 59.811455 L 9.638378 59.886169 L 9.64234 59.886169 C 9.737434 61.117302 10.671396 62.393715 12.418189 63.401833 L 38.70668 78.580132 C 42.081398 80.52787 47.184227 80.740135 50.106682 79.053345 L 78.252907 62.801826 C 79.63121 62.007111 80.267998 60.930511 80.212532 59.811455"/>
                                <path id="Fill-4" fill="#e9e8e7" stroke="none" d="M 78.25296 57.68055 L 50.106735 73.932053 C 47.184849 75.618286 42.08202 75.406021 38.706738 73.458847 L 12.418812 58.281677 C 9.043529 56.332813 8.677869 53.387154 11.599755 51.699795 L 39.746548 35.449417 C 42.668434 33.762058 47.771267 33.973755 51.144852 35.92149 L 77.434471 51.099792 C 80.809189 53.046963 81.17485 55.994324 78.25296 57.68055"/>
                                <path id="Fill-6" fill="#2b0b0b" stroke="none" d="M 62.741661 31.342075 L 28.934492 12.062263 C 28.472038 11.799057 28.012981 11.797928 27.676756 12.059998 L 25.888077 13.129814 L 26.251472 13.647736 L 26.566755 14.369431 L 26.883171 14.5466 L 27.18487 14.975098 L 27.18487 41.135094 C 27.18487 42.28302 27.898642 43.623962 28.776001 44.12434 L 60.312794 62.109619 L 62.003548 64.514717 L 63.696568 63.500374 C 64.097321 63.300003 64.333359 62.801323 64.333359 62.136795 L 64.333359 34.331886 C 64.333359 33.183964 63.619019 31.843018 62.741661 31.342075"/>
                                <path id="Fill-8" fill="#2b0b0b" stroke="none" d="M 37.058208 55.16819 L 43.912926 51.277248 C 44.577454 50.898003 45.691982 50.941586 46.452171 51.374603 L 50.622169 53.753662 L 52.604435 54.638947 L 52.604435 55.54517 L 52.590851 55.54517 C 52.546135 55.780075 52.380852 55.987247 52.112549 56.140644 L 43.666698 60.939507 C 43.363304 61.112717 42.965946 61.197624 42.551037 61.197624 C 42.057453 61.197624 41.540092 61.077057 41.126888 60.842148 L 35.637451 57.711399 C 35.237831 57.483852 35.00349 57.181587 34.976322 56.839134 C 34.975754 56.810265 34.975189 56.782528 34.976322 56.765549 L 34.976322 56.029701 L 37.058208 55.16819 Z"/>
                                <path id="Fill-10" fill="#551212" stroke="none" d="M 52.03336 55.306358 L 43.586945 60.105225 C 42.976757 60.453339 41.910908 60.409752 41.206757 60.007866 L 35.717319 56.877113 C 35.012604 56.475227 34.936188 55.867302 35.546379 55.519756 L 43.992794 50.720322 C 44.602417 50.372776 45.668266 50.416359 46.372982 50.818245 L 51.861851 53.949001 C 52.566566 54.350887 52.642982 54.958248 52.03336 55.306358"/>
                                <path id="Fill-12" fill="#cecdcc" stroke="none" d="M 35.764755 55.579983 L 39.140038 53.662247 L 46.953056 58.131111 L 43.478153 60.104889 C 42.86853 60.453003 41.802681 60.409416 41.097961 60.00753 L 36.64381 57.579792 C 36.218716 57.336964 35.474945 56.714321 35.315887 56.238285 C 35.21117 55.925831 35.523056 55.718094 35.764755 55.579983"/>
                                <path id="Fill-14" fill="#0b1b2b" stroke="none" d="M 51.953773 55.167057 L 43.507359 59.965927 C 42.94302 60.288567 41.94566 60.24498 41.286228 59.868568 L 35.796791 56.737812 C 35.478115 56.556114 35.294716 56.327435 35.294716 56.109512 C 35.294716 55.892719 35.474716 55.744984 35.625851 55.658943 L 44.071697 50.860077 C 44.637737 50.537434 45.633965 50.58102 46.293396 50.957436 L 51.782265 54.088192 C 52.101509 54.26989 52.284908 54.498566 52.284908 54.716492 C 52.284908 54.933285 52.104908 55.08102 51.953773 55.167057 M 42.550755 60.502525 C 42.96566 60.502525 43.363018 60.417053 43.666416 60.244415 L 52.112267 55.445549 C 52.430378 55.264416 52.604717 55.005173 52.604717 54.717056 C 52.604717 54.380833 52.363586 54.050266 51.941887 53.8097 L 46.451889 50.678944 C 45.6917 50.24649 44.577736 50.202908 43.913208 50.581585 L 35.467358 55.38102 C 35.149246 55.561584 34.974339 55.820831 34.974339 56.109512 C 34.974339 56.445736 35.216602 56.775738 35.637737 57.016304 L 41.127171 60.147057 C 41.540379 60.38253 42.057735 60.502525 42.550755 60.502525"/>
                                <path id="Fill-16" fill="#551212" stroke="none" d="M 26.116699 12.986206 C 26.443869 12.79715 26.853115 12.823753 27.270285 13.062057 L 61.076889 32.340736 C 61.954247 32.841114 62.668018 34.182625 62.668018 35.331112 L 62.668018 63.136581 C 62.668018 63.758095 62.417267 64.035454 62.206135 64.15715 C 62.069153 64.236961 61.9067 64.276016 61.726131 64.276016 C 61.439716 64.276016 61.108585 64.176399 60.765568 63.980545 L 27.111227 45.123566 C 26.23387 44.623192 25.520094 43.281681 25.520094 42.133755 L 25.520094 14.32885 C 25.520094 13.696022 25.737453 13.206963 26.116699 12.986206"/>
                                <path id="Fill-18" fill="#cecdcc" stroke="none" d="M 62.587418 59.764473 L 25.519869 38.625793 L 25.519869 42.272209 C 25.519869 43.343716 26.284019 44.652397 27.223642 45.18787 L 60.805531 64.339188 C 61.086285 64.49881 61.360245 64.579758 61.609867 64.579758 C 61.794964 64.579758 61.965908 64.536171 62.118172 64.447868 C 62.473076 64.241829 62.668358 63.825226 62.668358 63.273903 L 62.668358 59.810883 L 62.587418 59.764473 Z"/>
                                <path id="Fill-20" fill="#e9e8e7" stroke="none" d="M 60.390171 33.770943 L 27.95734 15.275093 C 27.776209 15.171509 27.595642 15.162453 27.44734 15.248489 C 27.280359 15.345284 27.1847 15.550758 27.1847 15.811699 L 27.1847 37.049435 C 27.1847 37.494907 27.454134 37.998112 27.798285 38.193962 L 60.231682 56.69038 C 60.330738 56.746983 60.429226 56.774719 60.522625 56.774719 C 60.60017 56.774719 60.67432 56.754906 60.74168 56.716415 C 60.908096 56.619625 61.003757 56.414719 61.003757 56.15321 L 61.003757 34.914906 C 61.003757 34.470001 60.734322 33.967358 60.390171 33.770943"/>
                                <path id="Fill-22" fill="#551212" stroke="none" d="M 48.982075 29.775509 C 48.969059 28.700039 48.816227 27.579285 48.538303 26.456829 L 50.490002 25.172493 L 49.560566 23.017021 L 48.634529 20.865509 L 46.287735 21.217018 C 45.66283 20.23381 44.950191 19.336639 44.172455 18.561172 L 44.247169 15.444 L 42.680378 14.473808 L 41.156605 13.529663 L 39.817924 14.134758 L 40.346603 15.559471 L 40.562832 15.530602 L 40.389622 16.112488 C 39.603962 15.860039 38.855095 15.781921 38.166794 15.8657 L 36.664528 13.173058 L 36.497547 13.275513 L 36.523586 13.173058 L 35.325848 13.777588 L 35.385284 13.955887 L 34.516983 14.487961 L 35.424904 17.391739 C 34.994152 17.914757 34.646038 18.561172 34.395283 19.316261 L 32.529621 18.417961 L 31.189812 19.023056 L 32.392643 19.954758 L 32.385284 20.039093 L 32.243774 21.625694 L 33.983772 23.367393 C 34.055096 24.301361 34.224339 25.253998 34.479057 26.196453 L 33.250755 27.222115 L 33.974716 28.939472 L 34.700378 30.660229 L 36.339622 30.59853 C 36.843964 31.452114 37.417923 32.257584 38.050755 32.987209 L 38.066605 35.411549 L 39.111511 36.293434 L 38.531887 36.697586 L 39.300568 38.187962 L 40.640377 37.583435 L 41.334339 35.683247 C 42.075283 36.073246 42.807171 36.319473 43.507927 36.417961 L 44.596981 38.416641 L 44.428303 38.399662 L 44.649624 38.514 L 45.006794 39.169472 L 45.688301 39.046642 L 46.214153 39.317207 L 47.553963 38.712681 L 46.636982 35.72287 C 47.032078 35.445511 47.386417 35.084377 47.696606 34.65136 L 49.215282 36.063622 L 50.553963 35.459095 L 50.952454 33.753056 L 51.361698 32.004002 L 48.982075 29.775509 Z M 44.830757 29.23098 C 44.374531 31.722115 42.282455 32.319851 40.216415 30.699848 C 38.225662 29.140415 36.901699 26.014187 37.201698 23.596077 C 37.511322 21.095322 39.447735 20.164192 41.590755 21.644943 C 43.822643 23.187393 45.303398 26.648716 44.830757 29.23098 L 44.830757 29.23098 Z"/>
                                <path id="Fill-24" fill="#ac2121" stroke="none" d="M 47.643227 30.380829 C 47.630207 29.304794 47.477943 28.184605 47.198887 27.062149 L 49.150585 25.777245 L 48.221718 23.621773 L 47.295113 21.469696 L 44.948322 21.82177 C 44.323982 20.83857 43.610775 19.940826 42.833038 19.166489 L 42.907757 16.049324 L 41.340961 15.078003 L 39.817757 14.134415 L 39.051338 16.716682 C 38.265114 16.465355 37.516247 16.387245 36.827942 16.469887 L 35.32568 13.777245 L 34.233791 14.446869 L 33.178131 15.092148 L 34.085491 17.997055 C 33.654736 18.518944 33.307755 19.165924 33.056435 19.921585 L 31.190775 19.023285 L 31.04587 20.643852 L 30.904926 22.231018 L 32.64436 23.972153 C 32.715679 24.906113 32.88549 25.858185 33.140209 26.80064 L 31.911341 27.82687 L 32.635303 29.544228 L 33.361526 31.26498 L 35.000206 31.203285 C 35.504547 32.05687 36.07851 32.862339 36.711906 33.591396 L 36.727188 36.015736 L 37.998508 37.090076 L 39.300396 38.18819 L 39.994926 36.288002 C 40.735867 36.678001 41.468319 36.924229 42.16851 37.023285 L 43.66851 39.773663 L 44.919453 39.548943 L 46.215115 39.316868 L 45.297565 36.32819 C 45.860775 35.931961 46.344738 35.377811 46.727943 34.671398 L 49.21455 36.063282 L 49.613037 34.357811 L 50.023415 32.608757 L 47.643227 30.380829 Z M 38.876999 31.305172 C 36.886246 29.745171 35.562283 26.618942 35.862282 24.201393 C 36.171906 21.700073 38.108322 20.768944 40.251907 22.250267 C 42.483227 23.792152 43.963982 27.253471 43.491341 29.835735 C 43.035114 32.32687 40.943039 32.924038 38.876999 31.305172 L 38.876999 31.305172 Z"/>
                                <path id="Fill-26" fill="#551212" stroke="none" d="M 61.579132 28.749058 C 61.571209 28.106606 61.480076 27.436981 61.31366 26.765659 L 62.479698 25.99868 L 61.924984 24.709808 L 61.370831 23.423775 L 59.968189 23.633774 C 59.594604 23.045662 59.168945 22.510185 58.703663 22.0466 L 58.748943 20.183205 L 57.812153 19.603584 L 56.901398 19.039246 L 56.101021 19.400375 L 56.417435 20.251701 L 56.54649 20.234718 L 56.443474 20.582832 C 55.973095 20.432266 55.525925 20.385284 55.11385 20.435097 L 54.216114 18.825851 L 54.115925 18.886414 L 54.132339 18.825851 L 53.415737 19.186981 L 53.451962 19.293961 L 52.932907 19.611511 L 53.47517 21.347549 C 53.217625 21.660004 53.009888 22.046036 52.860455 22.498299 L 51.744793 21.961128 L 50.943851 22.322266 L 51.662151 22.879242 L 51.658756 22.930191 L 51.573849 23.878304 L 52.613094 24.919243 C 52.656113 25.477356 52.757999 26.047359 52.910267 26.610001 L 52.174984 27.223583 L 52.608002 28.249813 L 53.042152 29.27887 L 54.021965 29.241508 C 54.323097 29.751511 54.666679 30.233208 55.044792 30.669056 L 55.054417 32.118114 L 55.714417 32.675659 L 55.33234 32.886791 L 55.791397 33.778301 L 56.591774 33.416603 L 57.007248 32.280567 C 57.450455 32.513775 57.888 32.660942 58.30687 32.720379 L 58.957813 33.914719 L 58.857059 33.903961 L 58.98951 33.973019 L 59.202908 34.364151 L 59.609886 34.290565 L 59.924606 34.452454 L 60.724983 34.09132 L 60.176491 32.30434 C 60.412529 32.137924 60.624794 31.922829 60.810455 31.663586 L 61.71838 32.508114 L 62.518757 32.146416 L 62.756493 31.12698 L 63.001587 30.081509 L 61.579132 28.749058 Z M 59.097057 28.424152 C 58.824795 29.913395 57.574417 30.270565 56.339321 29.302074 C 55.150078 28.369812 54.357624 26.50132 54.537624 25.056229 C 54.722717 23.560753 55.880264 23.004906 57.161209 23.889626 C 58.494793 24.811134 59.379509 26.880001 59.097057 28.424152 L 59.097057 28.424152 Z"/>
                                <path id="Fill-28" fill="#adadad" stroke="none" d="M 60.778755 29.111095 C 60.770264 28.46751 60.679699 27.798454 60.513283 27.127132 L 61.679321 26.360149 L 61.124039 25.070717 L 60.570454 23.785248 L 59.168377 23.995247 C 58.794228 23.4077 58.368568 22.871094 57.903286 22.408638 L 57.948566 20.544678 L 57.011776 19.964493 L 56.100452 19.400719 L 55.643097 20.943733 C 55.172718 20.793739 54.726112 20.747322 54.313473 20.796562 L 53.416302 19.187325 L 52.763096 19.586945 L 52.13253 19.972412 L 52.674793 21.709587 C 52.417248 22.021469 52.209511 22.407509 52.059509 22.859772 L 50.944416 22.322037 L 50.857811 23.291092 L 50.773472 24.240341 L 51.812717 25.280151 C 51.855736 25.839394 51.957623 26.408264 52.110455 26.97147 L 51.375736 27.584492 L 51.807625 28.611282 L 52.241776 29.639774 L 53.221584 29.602982 C 53.523285 30.113548 53.866302 30.594112 54.244415 31.031094 L 54.25404 32.479584 L 55.013096 33.120907 L 55.791397 33.778076 L 56.206867 32.642036 C 56.649509 32.87468 57.087624 33.022415 57.506493 33.081284 L 58.402531 34.725056 L 59.150265 34.591473 L 59.924606 34.452793 L 59.376114 32.666378 C 59.712906 32.429207 60.002716 32.09864 60.231396 31.675812 L 61.717812 32.508453 L 61.956116 31.488453 L 62.20121 30.442982 L 60.778755 29.111095 Z M 55.538944 29.664112 C 54.349701 28.731285 53.557247 26.862225 53.737247 25.417702 C 53.92234 23.922226 55.079323 23.365814 56.360832 24.251663 C 57.694416 25.173172 58.579132 27.24147 58.29668 28.785622 C 58.024418 30.274303 56.77404 30.631474 55.538944 29.664112 L 55.538944 29.664112 Z"/>
                                <path id="Fill-30" fill="#551212" stroke="none" d="M 57.297398 42.412415 C 57.291172 41.951096 57.22551 41.470528 57.106644 40.988831 L 57.943813 40.438076 L 57.544754 39.513172 L 57.147396 38.59053 L 56.140984 38.741661 C 55.872681 38.319397 55.56702 37.93449 55.233624 37.601662 L 55.26532 36.264679 L 54.594002 35.848076 L 53.940228 35.443924 L 53.366264 35.702602 L 53.592113 36.314491 L 53.684944 36.302036 L 53.610794 36.551662 C 53.274567 36.443546 52.953056 36.410152 52.658154 36.445812 L 52.013435 35.290527 L 51.941547 35.334679 L 51.952869 35.290527 L 51.438339 35.549774 L 51.464378 35.626755 L 51.092491 35.854301 L 51.481361 37.100151 C 51.296265 37.324867 51.147964 37.601662 51.040417 37.925999 L 50.238907 37.541096 L 49.664944 37.800339 L 50.180603 38.199963 L 50.177208 38.235622 L 50.116642 38.916565 L 50.862679 39.663734 C 50.893814 40.065056 50.965698 40.472038 51.075512 40.876755 L 50.548531 41.317131 L 50.859283 42.054115 L 51.170605 42.792229 L 51.873623 42.765621 C 52.089851 43.131851 52.336075 43.477131 52.607773 43.790154 L 52.615131 44.829964 L 53.040226 45.189396 L 52.814377 45.381851 L 53.144379 46.020908 L 53.718342 45.761662 L 54.016075 44.947132 C 54.334755 45.113548 54.648342 45.219398 54.948341 45.261852 L 55.415886 46.119396 L 55.343433 46.112038 L 55.43853 46.160717 L 55.591927 46.442039 L 55.884003 46.389965 L 56.109283 46.505436 L 56.683811 46.246189 L 56.290981 44.963547 C 56.460228 44.844681 56.612492 44.689587 56.74551 44.504494 L 57.397018 45.110153 L 57.970982 44.850906 L 58.14249 44.119019 L 58.317963 43.367886 L 57.297398 42.412415 Z M 55.516075 42.179207 C 55.320229 43.248455 54.423058 43.503735 53.536644 42.809208 C 52.683056 42.140152 52.114758 40.798641 52.243248 39.761662 C 52.376266 38.689018 53.207207 38.289398 54.125889 38.925625 C 55.083622 39.586754 55.718719 41.070908 55.516075 42.179207 L 55.516075 42.179207 Z"/>
                                <path id="Fill-32" fill="#cecdcc" stroke="none" d="M 56.72253 42.672226 C 56.716305 42.210339 56.651775 41.729774 56.531776 41.248077 L 57.369511 40.697887 L 56.970455 39.77298 L 56.573662 38.849773 L 55.566681 39.000908 C 55.298943 38.579208 54.993282 38.193737 54.658756 37.861473 L 54.691586 36.52449 L 54.019135 36.107887 L 53.365925 35.702602 L 53.037056 36.811474 C 52.699699 36.702229 52.378757 36.669395 52.083282 36.705055 L 51.438568 35.550339 L 50.970455 35.836754 L 50.517624 36.114113 L 50.907059 37.359962 C 50.721397 37.584114 50.573093 37.861473 50.465549 38.18581 L 49.665173 37.799774 L 49.602905 38.495434 L 49.542339 39.175812 L 50.288944 39.922981 C 50.318943 40.323738 50.391964 40.73185 50.501774 41.136566 L 49.97366 41.576378 L 50.284981 42.313358 L 50.596302 43.052036 L 51.29932 43.024868 C 51.515549 43.391663 51.761776 43.736378 52.033474 44.049397 L 52.040264 45.089775 L 52.584793 45.549965 L 53.144039 46.021473 L 53.441776 45.206379 C 53.759888 45.37336 54.073471 45.478642 54.374603 45.521095 L 55.017059 46.701286 L 55.554226 46.605057 L 56.110077 46.505436 L 55.716679 45.223358 C 55.957245 45.053547 56.166115 44.815811 56.33083 44.512981 L 57.396679 45.110153 L 57.568188 44.37883 L 57.74366 43.627697 L 56.72253 42.672226 Z M 52.961773 43.068455 C 52.108757 42.399963 51.539886 41.058453 51.668377 40.020905 C 51.802528 38.94883 52.632339 38.548641 53.552151 39.184303 C 54.508755 39.845436 55.144417 41.330151 54.941776 42.438454 C 54.74649 43.507133 53.848755 43.76355 52.961773 43.068455 L 52.961773 43.068455 Z"/>
                            </g>
                        </g>
                    </g>
                </g>
            </g>
        </g>
    </g>
</svg>
