<?xml version="1.0" encoding="UTF-8"?>
<!-- Generated by Pixelmator Pro 3.2.2 -->
<svg width="90" height="90" viewBox="0 0 90 90" xmlns="http://www.w3.org/2000/svg" xmlns:xlink="http://www.w3.org/1999/xlink">
    <g id="Layer2">
        <g id="Layer1-2">
            <g id="Main-page">
                <g id="tanta">
                    <g id="Industry">
                        <g id="8">
                            <g id="icon28">
                                <path id="Rectangle" fill="#ffffff" stroke="none" d="M 0 0 L 90 0 L 90 90 L 0 90 Z"/>
                                <g id="Group-35">
                                    <g id="Group-34">
                                        <path id="Fill-2" fill="#bfc3c7" stroke="none" d="M 80.209999 59.810001 L 80.209999 59.810001 L 80.209999 55 L 71.209999 52.66 L 51.139999 41 C 47.77 39.049999 42.66 38.84 39.740002 40.529999 L 19.219999 52.419998 L 9.64 54.689999 L 9.64 59.490002 C 9.64 59.599998 9.64 59.709999 9.64 59.810001 L 9.64 59.880001 L 9.64 59.880001 C 9.74 61.110001 10.64 62.389999 12.42 63.400002 L 38.709999 78.580002 C 42.080002 80.529999 47.189999 80.739998 50.110001 79.050003 L 78.25 62.799999 C 79.448898 62.280655 80.23172 61.106422 80.25 59.799999"/>
                                        <path id="Fill-4" fill="#e9e8e7" stroke="none" d="M 78.25 57.68 L 50.110001 73.93 C 47.189999 75.620003 42.110001 75.400002 38.709999 73.459999 L 12.42 58.279999 C 9 56.330002 8.68 53.389999 11.6 51.700001 L 39.75 35.450001 C 42.669998 33.759998 47.75 33.970001 51.150002 35.919998 L 77.43 51.099998 C 80.800003 53.049999 81.169998 55.990002 78.25 57.68"/>
                                    </g>
                                </g>
                            </g>
                        </g>
                    </g>
                </g>
            </g>
            <path id="Path" fill="#551212" stroke="none" d="M 46.110001 56.52 C 45.557716 56.52 45.110001 56.072285 45.110001 55.52 L 45.110001 39.689999 L 44.110001 39.689999 L 44.110001 55.490002 C 44.110001 56.59457 45.005432 57.490002 46.110001 57.490002 C 47.214569 57.490002 48.110001 56.59457 48.110001 55.490002 L 47.110001 55.490002 C 47.118114 55.760376 47.01635 56.022507 46.827927 56.216579 C 46.639503 56.410656 46.380497 56.520123 46.110001 56.52 Z"/>
            <path id="path1" fill="#cecdcc" stroke="none" d="M 44 17 L 44.43 17.279999 C 39.9011 25.719543 36.594704 34.759949 34.610001 44.130001 C 29.968189 40.632935 24.982498 37.617397 19.73 35.130001 C 26.799999 27.73 34.939999 21.220001 44 17 Z M 49.560001 15.169998 L 44.790001 16.379997 C 49.419159 15.951622 54.086628 16.234909 58.630001 17.220001 L 69.279999 25.010002 C 62.830002 21.239998 54.669998 18.629997 46.549999 17.010002 C 55.348816 21.055138 63.201237 26.901016 69.599998 34.169998 C 64.567307 36.657043 59.908539 39.838066 55.759998 43.619999 C 53.459999 33.900002 50.18 24.800003 45 17 L 45 16.739998 L 44 16.57 C 33.290001 18.43 26.35 21.900002 19.6 25.5 L 27.75 18.5 C 33.029312 16.984871 38.509441 16.286789 44 16.43 C 44.13306 16.442093 44.266941 16.442093 44.400002 16.43 L 44.52 16.43 C 42.48885 15.857521 40.398281 15.521957 38.290001 15.43 Z"/>
            <path id="path2" fill="#b20000" stroke="none" d="M 45 17 C 50.333576 25.057693 53.977055 34.113663 55.709999 43.619999 C 48.661869 43.119705 41.58176 43.307259 34.57 44.18 C 36.448185 34.77969 39.760193 25.723946 44.389999 17.330002 Z M 44 16.599998 L 44 17 C 34.929405 21.611404 26.711618 27.735859 19.700001 35.110001 C 20.155952 31.883427 20.12224 28.60651 19.6 25.389999 C 27.145998 21.042625 35.409912 18.08252 44 16.650002 Z M 45 16.599998 C 53.830002 18.220001 62.25 20.309998 69.300003 24.949997 C 68.300003 27.510002 68.720001 30.73 69.599998 34.119999 C 62.724876 26.62574 54.341076 20.671883 45 16.650002 Z M 38.310001 15.389999 C 40.380001 15.479996 42.310001 15.940002 44.380001 16.020004 C 44.380001 16.080002 44.310001 16.120003 44.310001 16.150002 L 44.310001 16.260002 C 44.298717 16.308815 44.274544 16.353714 44.240002 16.389999 C 38.82 17.18 33.240002 17.729996 27.799999 18.520004 Z M 49.580002 15.169998 L 58.639999 17.169998 L 53.82 17 L 49.130001 16.739998 L 44.360001 16.440002 C 46.029861 15.831093 47.764835 15.418327 49.529999 15.209999 Z"/>
            <path id="path3" fill="#551212" stroke="none" d="M 44.470001 14 C 44.74062 14 44.959999 14.219383 44.959999 14.489998 L 44.959999 17 C 44.811455 17.14653 44.617512 17.238213 44.41 17.260002 C 44.139999 17.260002 43.98 17.110001 43.98 16.979996 L 43.98 14.489998 C 43.98 14.219383 44.199379 14 44.470001 14 Z"/>
        </g>
    </g>
</svg>
