<?xml version="1.0" encoding="UTF-8"?>
<!-- Generated by Pixelmator Pro 3.2.2 -->
<svg width="90" height="90" viewBox="0 0 90 90" xmlns="http://www.w3.org/2000/svg" xmlns:xlink="http://www.w3.org/1999/xlink">
    <g id="Main-page">
        <g id="tanta-COM">
            <g id="Industry">
                <g id="3">
                    <g id="icon25">
                        <path id="Rectangle" fill="#ffffff" stroke="none" d="M 0 0 L 90 0 L 90 90 L 0 90 Z"/>
                        <g id="Group-81">
                            <g id="Group-80">
                                <path id="Fill-2" fill="#bfc3c7" stroke="none" d="M 80.212357 59.811455 L 80.222549 59.811455 L 80.222549 54.950321 L 71.184059 52.612587 L 51.144623 41.042774 C 47.771606 39.095039 42.668209 38.882774 39.746323 40.570698 L 19.220095 52.4207 L 9.638774 54.689945 L 9.638774 59.488811 C 9.631982 59.595791 9.634246 59.704472 9.638774 59.811455 L 9.638774 59.886169 L 9.64217 59.886169 C 9.737265 61.117302 10.671227 62.393719 12.418586 63.401829 L 38.706509 78.580132 C 42.081795 80.52787 47.184624 80.740135 50.10651 79.053345 L 78.252739 62.80183 C 79.631042 62.007114 80.268394 60.930508 80.212357 59.811455"/>
                                <path id="Fill-4" fill="#e9e8e7" stroke="none" d="M 78.253357 57.680546 L 50.106567 73.932053 C 47.184681 75.618286 42.081848 75.406021 38.70713 73.458847 L 12.418642 58.281681 C 9.043925 56.332813 8.677699 53.387154 11.599586 51.699795 L 39.746376 35.449417 C 42.668266 33.762058 47.771095 33.973755 51.14468 35.92149 L 77.434303 51.099792 C 80.809021 53.046963 81.175247 55.99432 78.253357 57.680546"/>
                                <path id="Fill-6" fill="#adadad" stroke="none" d="M 25.616831 40.768475 L 43.548908 30.348286 L 43.533058 35.918095 L 25.601547 46.338852 Z"/>
                                <path id="Fill-8" fill="#adadad" stroke="none" d="M 33.759678 45.469814 L 51.691757 35.049622 L 51.675907 40.619434 L 33.744396 51.040192 Z"/>
                                <path id="Fill-10" fill="#adadad" stroke="none" d="M 41.902584 50.17115 L 59.83466 39.750397 L 59.789379 55.656055 L 41.857868 66.077377 Z"/>
                                <path id="Fill-12" fill="#ac2121" stroke="none" d="M 41.902584 50.17115 L 41.857868 66.077377 C 33.659378 61.343605 25.462585 56.61153 17.266924 51.879456 L 17.295227 41.690773 L 25.617113 40.7687 L 25.601265 46.338512 L 33.759567 45.469643 L 33.744282 51.04002 L 41.902584 50.17115 Z"/>
                                <path id="Fill-14" fill="#e2e9ee" stroke="none" d="M 30.422096 57.819851 L 30.438511 51.913246 L 30.422096 57.819851 L 32.199451 58.845509 L 30.422096 57.819851 Z M 24.609453 48.544754 L 24.609453 48.544754 L 24.593039 54.451359 L 24.609453 48.544754 Z M 20.542473 51.891739 L 18.949642 50.971924 L 18.966057 45.286076 L 20.557755 46.205887 L 20.542473 51.891739 Z M 22.460773 52.999474 L 20.925114 52.113056 L 20.940962 46.426643 L 22.476624 47.313057 L 22.460773 52.999474 Z M 24.386435 54.110603 L 22.84285 53.220226 L 22.859831 47.534378 L 24.402283 48.424755 L 24.386435 54.110603 Z M 26.371529 55.257397 L 24.783792 54.340981 L 24.799643 48.655132 L 26.387379 49.570984 L 26.371529 55.257397 Z M 28.289265 56.364567 L 26.754171 55.477585 L 26.77002 49.791737 L 28.305681 50.678719 L 28.289265 56.364567 Z M 30.215492 57.47683 L 28.672472 56.58532 L 28.688322 50.899471 L 30.23134 51.790417 L 30.215492 57.47683 Z M 32.200584 58.62532 L 30.61285 57.708904 L 30.628698 52.023056 L 32.216434 52.939472 L 32.200584 58.62532 Z M 32.599075 53.160793 L 34.137001 54.04834 L 34.121151 59.734756 L 32.582661 58.846077 L 32.599075 53.160793 Z M 36.044548 60.844753 L 34.500961 59.953812 L 34.516811 54.267963 L 36.060398 55.158905 L 36.044548 60.844753 Z M 38.029076 61.990414 L 36.441906 61.074001 L 36.457756 55.388153 L 38.04549 56.304565 L 38.029076 61.990414 Z M 39.950207 63.09985 L 38.411716 62.211735 L 38.428131 56.525887 L 39.966057 57.414001 L 39.950207 63.09985 Z M 41.878132 64.212677 L 40.332848 63.320602 L 40.348698 57.634754 L 41.894547 58.526829 L 41.878132 64.212677 Z M 18.764547 44.710983 L 18.573793 44.821358 L 18.555679 51.204567 C 26.399832 55.732868 34.235489 60.260605 42.079643 64.78891 L 42.270397 64.677399 L 42.288509 58.294754 C 34.446621 53.767586 26.605869 49.238152 18.764547 44.710983 L 18.764547 44.710983 Z"/>
                                <path id="Fill-16" fill="#adadad" stroke="none" d="M 25.604095 39.755264 L 43.536171 29.334511 L 43.532776 30.513 L 25.600698 40.933758 Z"/>
                                <path id="Fill-18" fill="#cecdcc" stroke="none" d="M 17.282717 40.677284 L 35.214794 30.256531 L 43.536114 29.334454 L 25.604038 39.755207 Z"/>
                                <path id="Fill-20" fill="#ac2121" stroke="none" d="M 25.604095 39.755264 L 25.600698 40.933758 L 17.279377 41.855831 L 17.282774 40.677341 Z"/>
                                <path id="Fill-22" fill="#adadad" stroke="none" d="M 33.747002 44.456604 L 51.679077 34.035851 L 51.675682 35.21434 L 33.743603 45.635094 Z"/>
                                <path id="Fill-24" fill="#cecdcc" stroke="none" d="M 25.588642 45.325531 L 43.520153 34.904774 L 51.67902 34.035908 L 33.746944 44.456661 Z"/>
                                <path id="Fill-26" fill="#ac2121" stroke="none" d="M 33.747002 44.456604 L 33.743603 45.635094 L 25.584736 46.503963 L 25.588699 45.325474 Z"/>
                                <path id="Fill-28" fill="#cecdcc" stroke="none" d="M 33.731491 50.026871 L 51.663002 39.606113 L 59.821869 38.737247 L 41.889793 49.158001 Z"/>
                                <path id="Fill-30" fill="#5d3839" stroke="none" d="M 41.889851 49.157887 L 59.821926 38.737133 L 59.818531 39.915623 L 41.886456 50.33638 Z"/>
                                <path id="Fill-32" fill="#ac2121" stroke="none" d="M 35.542358 41.698814 L 44.14217 46.663528 L 44.123493 48.137493 L 35.523678 48.987679 Z"/>
                                <path id="Fill-34" fill="#551212" stroke="none" d="M 44.142399 46.663811 L 58.231644 38.476074 L 58.212963 43.221172 L 44.123718 51.408905 Z"/>
                                <path id="Fill-36" fill="#a2aab1" stroke="none" d="M 35.542923 40.795586 L 49.632172 32.607849 L 49.631603 32.783886 L 35.542358 40.971622 Z"/>
                                <path id="Fill-38" fill="#b5bec5" stroke="none" d="M 35.542358 40.97134 L 49.631603 32.783604 L 58.231415 37.748886 L 44.14217 45.936623 Z"/>
                                <path id="Fill-40" fill="#551212" stroke="none" d="M 44.143528 45.531738 L 58.233341 37.344002 L 58.231644 38.476074 L 44.142399 46.663811 Z"/>
                                <path id="Fill-42" fill="#cecdcc" stroke="none" d="M 35.543491 40.56617 L 49.632736 32.378433 L 58.233116 37.344284 L 44.143303 45.531452 Z"/>
                                <path id="Fill-44" fill="#ac2121" stroke="none" d="M 44.143528 45.531738 L 44.142399 46.663811 L 35.542583 41.699097 L 35.543152 40.7957 L 35.543716 40.566452 Z"/>
                                <path id="Fill-46" fill="#ac2121" stroke="none" d="M 33.731491 50.026871 L 41.889793 49.158001 L 41.886398 50.336491 L 33.728096 51.20536 Z"/>
                                <path id="Fill-48" fill="#551212" stroke="none" d="M 49.497116 24.694473 C 48.426739 24.054848 46.668056 24.0373 45.56768 24.654846 C 44.466171 25.2724 44.441265 26.291264 45.511078 26.930321 C 46.581455 27.569946 48.340698 27.588058 49.44051 26.970509 C 50.542019 26.352962 50.566925 25.333527 49.497116 24.694473"/>
                                <path id="Fill-50" fill="#551212" stroke="none" d="M 52.120018 38.489433 C 52.120018 38.478115 52.118889 38.468491 52.119453 38.457169 C 52.121151 38.40736 52.120586 38.358681 52.117756 38.308868 C 52.117191 38.298115 52.11832 38.287926 52.117191 38.277172 C 52.116623 38.270943 52.11549 38.265285 52.114925 38.259056 C 52.109264 38.200188 52.102474 38.142452 52.090019 38.083584 L 50.421906 25.534531 C 50.421906 25.537926 50.421906 25.541321 50.422474 25.544151 C 50.421906 25.53849 50.421341 25.532265 50.420208 25.526604 C 50.41568 25.507362 50.411716 25.488113 50.408321 25.469437 C 50.419643 25.524338 50.424736 25.579811 50.426434 25.635284 C 50.427567 25.650566 50.428135 25.665848 50.428135 25.681129 C 50.427567 25.73774 50.424171 25.794342 50.413982 25.85038 C 50.413418 25.85321 50.412849 25.855476 50.412285 25.858299 C 50.40266 25.911507 50.386814 25.965286 50.367569 26.019058 C 50.362473 26.034908 50.356247 26.05019 50.349453 26.06604 C 50.331905 26.110191 50.310398 26.15321 50.286625 26.196228 C 50.279266 26.210377 50.272472 26.223396 50.264549 26.23698 C 50.231152 26.293587 50.192661 26.349056 50.14851 26.402832 C 50.134361 26.419811 50.116814 26.435097 50.103226 26.450943 C 50.066437 26.492264 50.030209 26.532455 49.98719 26.57151 C 49.979832 26.579433 49.970207 26.586792 49.96172 26.594151 C 49.913605 26.637737 49.86153 26.679623 49.805492 26.720379 C 49.791908 26.731133 49.777756 26.741322 49.763603 26.751511 C 49.69455 26.799625 49.622662 26.846603 49.543415 26.890755 C 49.476624 26.928116 49.406437 26.963207 49.335114 26.99604 C 49.311905 27.006794 49.287567 27.016415 49.263794 27.027172 C 49.21455 27.048679 49.164169 27.069622 49.113228 27.088867 C 49.084927 27.099625 49.056625 27.109814 49.027756 27.120003 C 48.978512 27.136982 48.928135 27.153965 48.87719 27.169247 C 48.84832 27.178303 48.81889 27.186794 48.79002 27.195286 C 48.757191 27.204342 48.723793 27.21283 48.690395 27.221321 C 48.586246 27.247925 48.479263 27.271133 48.371151 27.290379 C 48.352474 27.293774 48.334927 27.298302 48.315681 27.300568 C 48.23983 27.313587 48.163418 27.322643 48.085869 27.332264 C 48.066059 27.33453 48.046814 27.337925 48.027569 27.339622 C 47.999264 27.343021 47.971531 27.344151 47.943794 27.345852 C 47.880398 27.351509 47.816437 27.35717 47.753605 27.360001 C 47.729267 27.361134 47.704361 27.361134 47.679455 27.362267 C 47.616058 27.364529 47.551529 27.365662 47.487 27.365662 C 47.458134 27.365097 47.429264 27.364529 47.39983 27.363396 C 47.34153 27.362267 47.282661 27.360001 47.224926 27.356606 C 47.194359 27.354908 47.163227 27.352642 47.13266 27.35038 C 47.075493 27.345852 47.017189 27.340755 46.960018 27.33453 C 46.931717 27.331135 46.903416 27.328304 46.875679 27.324341 C 46.806625 27.315849 46.739265 27.305096 46.671341 27.293774 C 46.656059 27.290943 46.640209 27.288681 46.624359 27.285851 C 46.542286 27.271133 46.460209 27.253021 46.3787 27.233776 C 46.354359 27.227547 46.330585 27.220757 46.306248 27.213963 C 46.25021 27.199245 46.193604 27.183964 46.139267 27.166981 C 46.104172 27.156792 46.069641 27.144341 46.035679 27.133018 C 45.990398 27.117172 45.946247 27.102455 45.903229 27.08604 C 45.856812 27.067924 45.810963 27.048115 45.766247 27.02887 C 45.731716 27.014153 45.696056 26.999435 45.662663 26.983585 C 45.57436 26.9417 45.488323 26.897549 45.406811 26.848869 C 45.362095 26.821697 45.32304 26.792831 45.281719 26.765095 C 45.247757 26.741322 45.210964 26.719246 45.179264 26.695473 C 45.141907 26.667171 45.110775 26.637737 45.077377 26.608303 C 45.049076 26.583961 45.01738 26.560188 44.991341 26.534718 C 44.960773 26.50415 44.935303 26.473019 44.907566 26.441887 C 44.884926 26.416416 44.859455 26.39151 44.839077 26.365471 C 44.814171 26.332642 44.794926 26.299812 44.77285 26.266983 C 44.755871 26.240944 44.736057 26.215473 44.721909 26.189434 C 44.70266 26.155472 44.689644 26.120377 44.674927 26.086414 C 44.66304 26.060379 44.648323 26.03434 44.639267 26.007736 C 44.626247 25.971512 44.618889 25.933586 44.610397 25.896797 C 44.604736 25.872452 44.59568 25.848679 44.591717 25.823776 C 44.585491 25.78302 44.584927 25.741699 44.583794 25.700943 C 44.583229 25.68 44.579266 25.659058 44.57983 25.638115 C 44.581528 25.576416 44.588886 25.514153 44.602474 25.453018 L 44.589455 25.510193 C 44.583229 25.54245 44.581528 25.575287 44.577568 25.607552 C 44.581528 25.577545 44.582096 25.548111 44.587757 25.518112 C 44.016624 28.244152 43.444927 35.331509 42.873226 38.057549 C 42.709644 38.836414 43.134735 39.650944 44.152473 40.259434 C 44.155869 40.2617 44.159832 40.263397 44.163227 40.266228 C 44.260021 40.323399 44.361908 40.376606 44.464924 40.42868 C 44.490398 40.440567 44.515869 40.453587 44.541908 40.465473 C 44.569641 40.479622 44.597378 40.493774 44.625679 40.506229 C 44.662472 40.523773 44.70266 40.536793 44.740585 40.553207 C 44.811905 40.583775 44.883793 40.613773 44.957378 40.64151 C 44.982285 40.650566 45.004925 40.661888 45.029831 40.670944 C 45.072849 40.686794 45.117565 40.699245 45.160587 40.713963 C 45.216625 40.732643 45.272095 40.751324 45.329266 40.768303 C 45.353039 40.776226 45.375679 40.784718 45.399452 40.791512 C 45.456059 40.808491 45.514927 40.822075 45.572662 40.83736 C 45.619076 40.849812 45.664925 40.862267 45.712471 40.873585 C 45.726624 40.877548 45.741341 40.882076 45.756622 40.884907 C 45.855114 40.90868 45.955303 40.928493 46.056057 40.94717 C 46.071342 40.950565 46.086056 40.953964 46.101906 40.956226 C 46.103603 40.956795 46.105869 40.957359 46.108131 40.957924 C 46.224171 40.97887 46.341339 40.997547 46.459644 41.012833 C 46.47266 41.01453 46.486248 41.015663 46.499264 41.017361 C 46.539455 41.022453 46.579075 41.025284 46.619267 41.029812 C 46.684361 41.03717 46.749454 41.045662 46.814548 41.051323 C 46.845116 41.053585 46.875679 41.054718 46.905682 41.056984 C 46.954926 41.060944 47.004169 41.063774 47.053982 41.066605 C 47.095867 41.068871 47.137188 41.072266 47.179077 41.073963 C 47.226059 41.075661 47.273037 41.075096 47.320019 41.076229 C 47.372097 41.077358 47.424171 41.078491 47.47681 41.078491 C 47.503418 41.078491 47.530022 41.080189 47.556057 41.080189 C 47.617191 41.079624 47.677189 41.075661 47.738323 41.074528 C 47.793228 41.072266 47.848698 41.071701 47.903606 41.069435 C 47.920586 41.068302 47.937569 41.068302 47.954548 41.067169 C 48.015682 41.063774 48.076248 41.056984 48.137379 41.051888 C 48.205868 41.046227 48.27549 41.041698 48.343414 41.03434 C 48.358131 41.032642 48.372284 41.032642 48.386436 41.03038 C 48.428886 41.025848 48.469643 41.017925 48.511528 41.012264 C 48.615116 40.999245 48.717567 40.984528 48.819454 40.966984 C 48.842094 40.96302 48.864738 40.961323 48.887379 40.957359 C 48.94738 40.946037 49.005116 40.932453 49.064548 40.920567 C 49.110397 40.910378 49.156811 40.90189 49.202095 40.891701 C 49.309643 40.866795 49.415493 40.839058 49.52021 40.809624 C 49.54285 40.803398 49.566059 40.798302 49.588135 40.791512 C 49.59153 40.790379 49.59436 40.789814 49.597755 40.788681 C 49.715492 40.754719 49.830399 40.71566 49.944172 40.674339 C 49.977001 40.663021 50.008698 40.650002 50.040962 40.637547 C 50.127567 40.604153 50.213604 40.569057 50.297379 40.5317 C 50.330776 40.517548 50.363037 40.503399 50.394737 40.488113 C 50.504547 40.436604 50.612663 40.383965 50.716248 40.325661 C 50.781342 40.289436 50.84417 40.252075 50.904736 40.213585 C 50.905304 40.21302 50.905869 40.21302 50.906437 40.212456 C 50.987946 40.160946 51.063793 40.108303 51.136246 40.055096 C 51.154926 40.040379 51.173603 40.026794 51.192284 40.012077 C 51.253418 39.965096 51.311153 39.917549 51.366623 39.869434 C 51.373981 39.862644 51.383038 39.856415 51.390396 39.849625 L 51.399452 39.841133 C 51.422661 39.82019 51.443604 39.798679 51.465679 39.777172 C 51.489452 39.753963 51.513794 39.731323 51.536434 39.708115 C 51.556812 39.686604 51.576057 39.664528 51.595867 39.641888 C 51.613983 39.622078 51.633793 39.602829 51.650776 39.582455 C 51.653606 39.579056 51.656437 39.575096 51.659832 39.570568 C 51.670586 39.558113 51.681339 39.543964 51.691528 39.530376 C 51.715302 39.500378 51.73851 39.470943 51.760586 39.440945 C 51.772472 39.423962 51.783794 39.408115 51.795113 39.391697 C 51.805302 39.376415 51.817188 39.361134 51.826248 39.345848 C 51.831341 39.33849 51.834736 39.330566 51.839832 39.323208 C 51.88002 39.258114 51.917946 39.193584 51.949642 39.127926 C 51.950207 39.126228 51.95134 39.124531 51.951908 39.123398 C 51.95417 39.118301 51.955868 39.113209 51.958698 39.107548 C 51.985302 39.050377 52.008511 38.99321 52.02832 38.935471 C 52.031151 38.926414 52.036247 38.918491 52.038509 38.909435 C 52.04134 38.900944 52.042473 38.891888 52.045303 38.883396 C 52.062283 38.829056 52.077568 38.773586 52.088322 38.717548 C 52.090019 38.711887 52.092285 38.705093 52.093983 38.698868 C 52.093983 38.69717 52.093983 38.696037 52.094547 38.693775 C 52.106434 38.632076 52.113228 38.569813 52.117191 38.506981 C 52.117756 38.50132 52.119453 38.495094 52.120018 38.489433"/>
                                <path id="Fill-52" fill="#cecdcc" stroke="none" d="M 49.227905 26.66066 C 48.248661 27.188774 46.683567 27.172924 45.731491 26.626698 C 44.779984 26.080471 44.802059 25.209908 45.781303 24.682358 C 46.760548 24.154816 48.325642 24.170097 49.277718 24.715759 C 50.229794 25.26255 50.206585 26.133114 49.227905 26.66066 M 49.602058 24.494438 C 48.476208 23.821419 46.623566 23.802734 45.466019 24.453117 C 44.307339 25.102928 44.280735 26.176132 45.406586 26.848587 C 46.532436 27.521606 48.385075 27.540852 49.543755 26.890472 C 50.70187 26.240662 50.727905 25.167458 49.602058 24.494438"/>
                                <path id="Fill-54" fill="#551212" stroke="none" d="M 69.575943 35.275585 L 48.975567 47.226341 L 48.975567 71.734642 L 69.575943 59.833698 Z"/>
                                <path id="Fill-56" fill="#ac2121" stroke="none" d="M 48.975849 47.1917 L 41.748116 43.018867 L 41.598679 43.669247 L 41.599812 43.67038 L 41.599247 43.697548 L 41.500755 65.848297 L 41.500755 65.848869 L 41.492264 67.349434 L 48.975849 71.734528 Z"/>
                                <path id="Fill-58" fill="#cecdcc" stroke="none" d="M 62.365078 31.069584 L 41.753944 42.994305 L 41.748283 43.018642 L 48.976021 47.240719 L 69.565071 35.27581 Z"/>
                                <path id="Fill-60" fill="#e2e9ee" stroke="none" d="M 45.930622 58.117756 L 46.897984 58.675869 L 46.888924 61.9487 L 45.920437 61.390018 L 45.930622 58.117756 Z M 44.685341 57.398319 L 45.645908 57.953037 L 45.636848 61.225868 L 44.675716 60.670586 L 44.685341 57.398319 Z M 43.404396 56.659077 L 44.400623 57.234169 L 44.391567 60.507 L 43.394775 59.931339 L 43.404396 56.659077 Z M 47.178738 62.242474 L 47.189491 58.534359 L 43.272511 56.273037 L 43.11232 56.366432 L 43.101566 60.073982 L 47.018547 62.3353 L 47.178738 62.242474 Z"/>
                                <path id="Fill-62" fill="#e2e9ee" stroke="none" d="M 44.699604 52.216927 L 45.660736 52.771076 L 45.65168 56.043907 L 44.689983 55.488625 L 44.699604 52.216927 Z M 43.418663 51.477116 L 44.415455 52.052776 L 44.40583 55.325039 L 43.409603 54.749943 L 43.418663 51.477116 Z M 46.903755 56.766735 L 45.936398 56.208622 L 45.944889 52.935795 L 46.912811 53.494473 L 46.903755 56.766735 Z M 43.127151 51.182209 L 43.115829 54.889755 L 47.033379 57.151077 L 47.193001 57.058811 L 47.203754 53.3507 L 43.286774 51.089378 L 43.127151 51.182209 Z"/>
                                <path id="Fill-64" fill="#e2e9ee" stroke="none" d="M 43.259094 61.885983 L 43.259663 61.885983 L 43.259094 61.886547 L 43.248905 65.343338 L 43.259094 61.885983 Z M 44.699661 62.718056 L 45.660793 63.272774 L 45.651737 66.545036 L 44.690041 65.990326 L 44.699661 62.718056 Z M 43.418716 61.978245 L 44.415512 62.553905 L 44.405888 65.826172 L 43.40966 65.251076 L 43.418716 61.978245 Z M 46.903248 67.268433 L 45.935886 66.70919 L 45.944942 63.436924 L 46.912868 63.99617 L 46.903248 67.268433 Z M 43.127209 61.683907 L 43.115887 65.390884 L 47.033436 67.652771 L 47.193058 67.558807 L 47.203812 63.85183 L 43.286831 61.590511 L 43.127209 61.683907 Z"/>
                                <path id="Fill-66" fill="#e2e9ee" stroke="none" d="M 44.975433 47.024776 L 45.937134 47.579491 L 45.928078 50.852322 L 44.966377 50.297039 L 44.975433 47.024776 Z M 43.695057 46.284962 L 44.691849 46.861191 L 44.68166 50.132889 L 43.686001 49.557793 L 43.695057 46.284962 Z M 47.179585 51.575153 L 46.212227 51.016472 L 46.221283 47.743641 L 47.188644 48.302322 L 47.179585 51.575153 Z M 43.402981 45.990623 L 43.392792 49.69817 L 47.309208 51.959492 L 47.46883 51.866661 L 47.480152 48.158546 L 43.563171 45.897228 L 43.402981 45.990623 Z"/>
                                <path id="Fill-68" fill="#551212" stroke="none" d="M 62.890755 36.291622 L 62.878304 37.746906 L 59.72887 39.577473 L 59.740757 38.121624 Z"/>
                                <path id="Fill-70" fill="#ac2121" stroke="none" d="M 59.740528 38.121849 L 59.728642 39.577133 L 55.142605 36.929775 L 55.154491 35.473927 Z"/>
                                <path id="Fill-72" fill="#cecdcc" stroke="none" d="M 62.890755 36.291622 L 59.740757 38.121624 L 55.154716 35.474266 L 58.304153 33.6437 Z"/>
                                <path id="Fill-74" fill="#551212" stroke="none" d="M 58.369644 38.939377 L 58.357758 40.395229 L 55.207756 42.225792 L 55.220207 40.769379 Z"/>
                                <path id="Fill-76" fill="#ac2121" stroke="none" d="M 55.219925 40.769604 L 55.208038 42.225452 L 50.622002 39.57753 L 50.633888 38.121681 Z"/>
                                <path id="Fill-78" fill="#cecdcc" stroke="none" d="M 58.369644 38.939377 L 55.220207 40.769379 L 50.634171 38.122021 L 53.783039 36.291454 Z"/>
                            </g>
                        </g>
                    </g>
                </g>
            </g>
        </g>
    </g>
</svg>
