<?xml version="1.0" encoding="UTF-8"?>
<!-- Generated by Pixelmator Pro 3.2.2 -->
<svg width="90" height="90" viewBox="0 0 90 90" xmlns="http://www.w3.org/2000/svg" xmlns:xlink="http://www.w3.org/1999/xlink">
    <g id="Main-page">
        <g id="tanta-COM">
            <g id="Industry">
                <g id="5">
                    <g id="icon24">
                        <path id="Rectangle" fill="#ffffff" stroke="none" d="M 0 0 L 90 0 L 90 90 L 0 90 Z"/>
                        <g id="Group-135">
                            <g id="Group-134">
                                <path id="Fill-2" fill="#bfc3c7" stroke="none" d="M 80.212868 59.811455 L 80.222488 59.811455 L 80.222488 54.950321 L 71.184563 52.612587 L 51.144566 41.042774 C 47.771549 39.095036 42.668152 38.882774 39.746265 40.570698 L 19.220037 52.4207 L 9.638718 54.689945 L 9.638718 59.488811 C 9.631925 59.595795 9.63419 59.704472 9.638718 59.811455 L 9.638718 59.886169 L 9.642114 59.886169 C 9.737774 61.117302 10.67117 62.393719 12.418529 63.401833 L 38.706451 78.580132 C 42.081738 80.52787 47.184566 80.740135 50.106453 79.053337 L 78.25325 62.80183 C 79.630981 62.007114 80.268341 60.930511 80.212868 59.811455"/>
                                <path id="Fill-4" fill="#e9e8e7" stroke="none" d="M 78.253304 57.680546 L 50.10651 73.93206 C 47.184624 75.618286 42.081795 75.406021 38.707077 73.458847 L 12.418586 58.281681 C 9.043868 56.332813 8.677642 53.38715 11.599528 51.699795 L 39.746323 35.449413 C 42.668209 33.762054 47.771038 33.973755 51.144623 35.92149 L 77.43425 51.099792 C 80.80896 53.046963 81.175186 55.99432 78.253304 57.680546"/>
                                <path id="Fill-6" fill="#2c2c2c" stroke="none" d="M 66.501335 79.20266 C 66.184921 79.384926 65.735489 79.443794 65.329071 79.379265 C 65.126434 79.347565 64.936813 79.285301 64.777191 79.193604 C 64.513977 79.041908 64.398506 78.839264 64.420021 78.643417 L 64.413788 78.643417 L 64.413788 75.309456 L 66.840393 75.309456 L 66.840393 78.643417 C 66.874359 78.84436 66.764549 79.049828 66.501335 79.20266"/>
                                <path id="Fill-8" fill="#e8e7e7" stroke="none" d="M 66.488091 74.815872 C 66.008095 74.537941 65.236015 74.533981 64.763374 74.806808 C 64.290733 75.080208 64.296959 75.526245 64.776962 75.803604 C 65.256393 76.080963 66.028473 76.084923 66.500549 75.81266 C 66.97319 75.539268 66.968094 75.093224 66.488091 74.815872"/>
                                <path id="Fill-10" fill="#e8e7e7" stroke="none" d="M 66.337189 74.991112 C 65.940964 74.761871 65.30304 74.759041 64.912468 74.983757 C 64.521904 75.209602 64.527 75.578094 64.923225 75.807343 C 65.31945 76.037155 65.957375 76.04055 66.348511 75.814697 C 66.73851 75.589417 66.733414 75.22036 66.337189 74.991112"/>
                                <path id="Fill-12" fill="#bfbebe" stroke="none" d="M 66.18515 75.58036 C 65.983643 75.69696 65.696663 75.733757 65.436852 75.693001 C 65.307228 75.672623 65.186096 75.633003 65.084206 75.574699 C 64.916656 75.477341 64.842506 75.348846 64.856094 75.22319 L 64.852699 75.22319 L 64.854393 44.608471 L 66.403641 44.608471 L 66.401375 75.22319 C 66.423454 75.351677 66.353264 75.483002 66.18515 75.58036"/>
                                <path id="Fill-14" fill="#bfbebe" stroke="none" d="M 66.178528 44.292961 C 65.872299 44.11636 65.37928 44.113529 65.077583 44.287868 C 64.775322 44.462208 64.779282 44.746925 65.08551 44.924095 C 65.392303 45.10183 65.885323 45.104095 66.187019 44.929756 C 66.488716 44.755417 66.485321 44.470131 66.178528 44.292961"/>
                                <path id="Fill-16" fill="#551212" stroke="none" d="M 46.226265 27.75679 L 54.282681 35.783772 L 55.473057 35.093773 L 47.359474 27.23151 Z"/>
                                <path id="Fill-18" fill="#ac2121" stroke="none" d="M 45.972569 28.627979 L 54.283134 37.212509 L 54.283134 35.783829 L 46.226151 27.756847 Z"/>
                                <path id="Fill-20" fill="#551212" stroke="none" d="M 45.655811 40.295322 L 59.923927 56.800415 L 61.046944 56.148907 L 46.789021 39.770603 Z"/>
                                <path id="Fill-22" fill="#ac2121" stroke="none" d="M 45.662434 41.506981 L 58.77187 56.139057 L 59.923756 56.800755 L 45.655643 40.295094 Z"/>
                                <path id="Fill-24" fill="#ac2121" stroke="none" d="M 34.659508 38.508224 L 35.854416 39.036339 L 45.110264 28.643322 L 43.977058 28.119171 Z"/>
                                <path id="Fill-26" fill="#551212" stroke="none" d="M 35.854641 39.036114 L 37.00087 38.536869 L 45.364643 29.515358 L 45.110493 28.643661 Z"/>
                                <path id="Fill-28" fill="#ac2121" stroke="none" d="M 29.335247 56.211792 L 30.502983 56.889908 L 46.973549 40.368961 L 45.84034 39.844246 Z"/>
                                <path id="Fill-30" fill="#551212" stroke="none" d="M 30.352869 56.681095 L 31.610039 56.138832 L 47.227585 41.240719 L 46.973434 40.369019 Z"/>
                                <path id="Fill-32" fill="#2c2c2c" stroke="none" d="M 46.690022 56.716473 C 46.040775 57.091755 45.118698 57.211754 44.283794 57.079304 C 43.869453 57.013641 43.478889 56.886848 43.151718 56.69949 C 42.612286 56.387039 42.37455 55.972698 42.41983 55.570248 L 42.407379 55.570248 L 42.407379 24.286469 L 47.385113 21.604019 L 47.385113 55.570248 C 47.454739 55.981754 47.229454 56.404018 46.690022 56.716473"/>
                                <path id="Fill-34" fill="#551212" stroke="none" d="M 52.273586 26.256058 L 60.071888 56.883228 L 61.10038 56.254925 L 53.351322 25.744354 Z"/>
                                <path id="Fill-36" fill="#ac2121" stroke="none" d="M 51.032604 25.584396 L 58.821285 56.171944 L 60.072227 56.883453 L 52.273361 26.256283 Z"/>
                                <path id="Fill-38" fill="#cecdcc" stroke="none" d="M 51.033173 25.590508 L 52.27449 26.262394 L 53.351662 25.743904 L 52.11034 25.072586 Z"/>
                                <path id="Fill-40" fill="#551212" stroke="none" d="M 30.502699 56.890076 L 31.751944 56.124226 L 40.650055 26.288376 L 39.459679 26.840263 Z"/>
                                <path id="Fill-42" fill="#ac2121" stroke="none" d="M 29.335247 56.211792 L 30.502983 56.889908 L 39.459961 26.840096 L 38.36581 26.116699 Z"/>
                                <path id="Fill-44" fill="#cecdcc" stroke="none" d="M 38.365303 26.123379 L 39.460018 26.846775 L 40.64983 26.288658 L 39.556244 25.565262 Z"/>
                                <path id="Fill-46" fill="#551212" stroke="none" d="M 38.123718 31.362511 L 45.475983 44.15836 L 46.665794 43.468925 L 39.256924 30.837227 Z"/>
                                <path id="Fill-48" fill="#ac2121" stroke="none" d="M 37.870018 32.234264 L 44.323982 43.496719 L 45.476437 44.158417 L 38.123604 31.362564 Z"/>
                                <path id="Fill-50" fill="#551212" stroke="none" d="M 33.440094 47.018093 L 44.065754 64.649033 L 45.218208 63.937531 L 34.573303 46.492813 Z"/>
                                <path id="Fill-52" fill="#ac2121" stroke="none" d="M 33.22398 47.911415 L 42.913982 63.987453 L 44.065868 64.649155 L 33.477566 47.040283 Z"/>
                                <path id="Fill-54" fill="#ac2121" stroke="none" d="M 44.603321 40.648529 L 45.494831 41.850227 L 52.948418 28.817207 L 51.815208 28.291924 Z"/>
                                <path id="Fill-56" fill="#551212" stroke="none" d="M 45.494946 41.850285 L 46.646832 41.188019 L 53.202679 29.688396 L 52.948528 28.817265 Z"/>
                                <path id="Fill-58" fill="#ac2121" stroke="none" d="M 44.06604 64.649323 L 45.217926 65.31781 L 57.192455 45.251209 L 56.059246 44.727058 Z"/>
                                <path id="Fill-60" fill="#551212" stroke="none" d="M 45.217983 65.317581 L 46.369305 64.655884 L 57.446663 46.123245 L 57.192509 45.251549 Z"/>
                                <path id="Fill-62" fill="#551212" stroke="none" d="M 45.216339 65.378433 L 46.406151 64.688431 L 47.01804 29.714092 L 45.828228 30.26598 Z"/>
                                <path id="Fill-64" fill="#ac2121" stroke="none" d="M 44.064396 64.716736 L 45.216286 65.378433 L 45.827606 30.272205 L 44.73402 29.548809 Z"/>
                                <path id="Fill-66" fill="#949a75" stroke="none" d="M 44.161133 23.782356 L 45.20887 24.286697 L 46.415661 23.632927 L 45.368492 23.12915 Z"/>
                                <path id="Fill-68" fill="#ac2121" stroke="none" d="M 45.87249 21.903511 L 38.315319 26.264832 L 37.79966 25.967659 L 37.79966 26.563698 L 45.87249 31.224453 L 53.94532 26.563698 L 53.94532 25.967659 L 53.429661 26.264832 Z"/>
                                <path id="Fill-70" fill="#cecdcc" stroke="none" d="M 37.799263 25.967491 L 45.872662 30.628246 L 53.945492 25.967491 L 45.872662 21.306732 Z"/>
                                <path id="Fill-72" fill="#551212" stroke="none" d="M 45.87249 31.224339 L 53.94532 26.564152 L 53.945889 25.967545 L 45.87249 30.6283 Z"/>
                                <path id="Fill-74" fill="#551212" stroke="none" d="M 27.184416 22.217491 L 27.204794 26.883904 L 33.293659 23.214851 L 33.271019 18.751076 Z"/>
                                <path id="Fill-76" fill="#cecdcc" stroke="none" d="M 25.378471 21.229134 L 27.184134 22.217438 L 33.270737 18.751022 L 31.465076 17.762718 Z"/>
                                <path id="Fill-78" fill="#ac2121" stroke="none" d="M 25.381247 21.227493 L 25.398792 25.895035 L 27.205019 26.883904 L 27.187473 22.21579 Z"/>
                                <path id="Fill-80" fill="#2c2c2c" stroke="none" d="M 32.112339 14.386925 L 32.14064 18.873909 L 32.488754 18.684853 L 32.460453 14.197868 Z"/>
                                <path id="Fill-82" fill="#4a4a4a" stroke="none" d="M 31.444586 13.986732 L 31.472322 18.473717 L 32.140244 18.873909 L 32.112511 14.386925 Z"/>
                                <path id="Fill-84" fill="#4a4a4a" stroke="none" d="M 31.444586 13.990585 L 31.472322 18.473602 L 32.140244 18.873795 L 32.112511 14.390205 Z"/>
                                <path id="Fill-86" fill="#2c2c2c" stroke="none" d="M 26.902473 17.253624 L 26.930775 21.741173 L 27.278889 21.552116 L 27.250586 17.064568 Z"/>
                                <path id="Fill-88" fill="#989898" stroke="none" d="M 26.234718 16.853943 L 26.26302 21.340927 L 26.930378 21.741112 L 26.902643 17.253563 Z"/>
                                <path id="Fill-90" fill="#4a4a4a" stroke="none" d="M 26.234718 16.857285 L 26.26302 21.340866 L 26.930378 21.741058 L 26.903208 17.257469 Z"/>
                                <path id="Fill-92" fill="#2c2c2c" stroke="none" d="M 27.015793 17.762718 L 32.416924 14.686302 L 32.478058 14.072151 L 26.902586 17.253853 Z"/>
                                <path id="Fill-94" fill="#cecdcc" stroke="none" d="M 26.234718 16.853943 L 26.902643 17.253563 L 32.467926 14.123375 L 31.671511 13.724884 Z"/>
                                <path id="Fill-96" fill="#2c2c2c" stroke="none" d="M 29.513208 13.292999 L 29.513775 15.809036 L 30.159058 15.454697 L 30.157925 13.090927 Z"/>
                                <path id="Fill-98" fill="#cecdcc" stroke="none" d="M 28.733831 12.897789 L 28.734962 15.410431 L 29.51383 15.809494 L 29.513266 13.29628 Z"/>
                                <path id="Fill-100" fill="#551212" stroke="none" d="M 47.194698 20.518242 C 47.016396 20.506927 46.852245 20.536926 46.705078 20.602585 C 46.669983 20.618431 46.636021 20.636551 46.602623 20.656357 L 46.603191 20.655792 L 46.595833 20.660324 L 46.595264 20.660324 L 45.776207 21.144279 L 46.192245 21.089378 C 45.953945 21.50428 45.871304 22.110512 46.004887 22.799942 C 46.258472 24.099564 47.185078 25.199944 48.086773 25.285416 L 47.987152 25.577492 L 48.655643 25.183525 C 48.695267 25.163719 48.734322 25.141075 48.771114 25.115601 L 48.794888 25.101456 L 48.790359 25.101456 C 49.27319 24.752205 49.499603 23.95919 49.31451 23.008812 C 49.057529 21.691078 48.108849 20.576546 47.194698 20.518242"/>
                                <path id="Fill-102" fill="#ac2121" stroke="none" d="M 46.352322 21.016304 C 45.438736 20.958 44.906094 21.979698 45.16251 23.297432 C 45.420059 24.615166 46.368172 25.730827 47.282887 25.788567 C 48.196472 25.846298 48.72855 24.825172 48.472134 23.506866 C 48.215153 22.189133 47.266472 21.074036 46.352322 21.016304"/>
                                <path id="Fill-104" fill="#989898" stroke="none" d="M 28.003586 12.690453 L 62.66151 40.613094 L 64.230568 38.260639 L 27.999058 9.02536 Z"/>
                                <path id="Fill-106" fill="#2c2c2c" stroke="none" d="M 28.63817 12.571075 L 62.559681 39.865417 L 63.575153 38.357491 L 28.63817 10.187492 Z"/>
                                <path id="Fill-108" fill="#b2b2b2" stroke="none" d="M 29.039492 10.52417 L 28.63817 10.187378 L 28.63817 12.570961 L 62.559681 39.865303 L 62.717037 39.631527 L 29.034397 12.541527 Z"/>
                                <path id="Fill-110" fill="#cecdcc" stroke="none" d="M 27.99917 9.025589 L 32.419357 12.815773 L 64.231812 38.272755 L 65.670113 37.403885 L 29.436907 8.156715 Z"/>
                                <path id="Fill-112" fill="#121312" stroke="none" d="M 62.661793 40.613152 L 63.72538 39.98032 L 65.681602 37.405415 L 64.230286 38.260696 Z"/>
                                <path id="Fill-114" fill="#551212" stroke="none" d="M 43.207584 22.79734 C 43.028717 22.786018 42.864567 22.816017 42.717964 22.881111 C 42.682304 22.89753 42.648907 22.915642 42.615509 22.934883 L 42.615509 22.934319 L 42.608719 22.93885 L 42.607586 22.939415 L 41.788528 23.422813 L 42.205132 23.367905 C 41.966267 23.782814 41.883625 24.389603 42.017208 25.078468 C 42.271358 26.378658 43.197395 27.479038 44.099663 27.56451 L 44.000038 27.856018 L 44.667965 27.462624 C 44.707584 27.442245 44.746643 27.42017 44.783436 27.394131 L 44.807209 27.380547 L 44.802681 27.379982 C 45.285511 27.0313 45.511925 26.237717 45.326832 25.287903 C 45.070415 23.970169 44.12117 22.855072 43.207584 22.79734"/>
                                <path id="Fill-116" fill="#ac2121" stroke="none" d="M 42.36515 23.29483 C 41.451565 23.237091 40.918358 24.258789 41.174774 25.57653 C 41.43232 26.894264 42.381001 28.009357 43.295151 28.067661 C 44.208736 28.124828 44.740814 27.103699 44.484398 25.785393 C 44.227982 24.467659 43.278736 23.353134 42.36515 23.29483"/>
                                <path id="Fill-118" fill="#ac2121" stroke="none" d="M 64.069191 31.986057 C 64.069191 31.986057 61.502209 35.999264 61.255981 39.973415 C 61.010887 43.948132 61.840698 46.268887 61.840698 46.268887 L 63.033905 46.881905 L 67.84919 39.907188 L 66.069 33.27549 L 64.069191 31.986057 Z"/>
                                <path id="Fill-120" fill="#cecdcc" stroke="none" d="M 64.069191 31.986057 L 66.069 33.27549 L 68.504097 31.884171 L 66.503716 30.595303 Z"/>
                                <path id="Fill-122" fill="#551212" stroke="none" d="M 63.033852 46.882133 L 65.468376 45.49081 L 67.425735 43.26685 L 70.082718 38.516094 L 67.648186 39.907417 Z"/>
                                <path id="Fill-124" fill="#2c2c2c" stroke="none" d="M 64.426247 46.735077 L 66.994926 45.583191 L 71.130959 41.515076 L 68.014359 43.061489 Z"/>
                                <path id="Fill-126" fill="#828282" stroke="none" d="M 67.421715 38.389923 L 66.875488 38.003319 L 66.443039 38.209358 L 64.426247 46.73502 L 70.158508 40.27483 L 70.336807 38.006718 L 69.800774 37.175205 Z"/>
                                <path id="Fill-128" fill="#5b5b5b" stroke="none" d="M 66.443321 38.209133 L 64.069359 41.670452 L 63.550869 45.929886 L 64.426529 46.735359 L 68.014076 43.061207 L 67.848793 39.115356 Z"/>
                                <path id="Fill-130" fill="#cecdcc" stroke="none" d="M 64.614166 45.466473 C 64.614166 45.466473 64.614738 45.465908 64.615303 45.465908 C 64.614738 45.464775 64.613602 45.463642 64.613037 45.461945 C 64.594925 45.39402 64.56266 45.327793 64.520775 45.266663 C 64.516808 45.261566 64.516243 45.254776 64.512283 45.249115 C 64.511147 45.24968 64.509453 45.250244 64.508888 45.250813 C 64.463036 45.188549 64.410965 45.131943 64.350395 45.09798 C 64.323227 45.081566 64.297188 45.073074 64.272285 45.066284 L 64.271149 45.070248 C 64.155113 45.043076 64.069077 45.103077 64.069077 45.255341 C 64.069077 45.407604 64.260963 45.698547 64.3787 45.747227 C 64.496429 45.795341 64.563789 45.773266 64.604546 45.69685 L 64.605675 45.697414 C 64.606247 45.69685 64.606247 45.695717 64.606247 45.695152 C 64.622658 45.664585 64.632278 45.626095 64.632278 45.579681 C 64.632278 45.543453 64.623795 45.504398 64.614166 45.466473"/>
                                <path id="Fill-132" fill="#cecdcc" stroke="none" d="M 67.187889 39.825455 L 67.189583 39.825455 C 67.189018 39.823753 67.187889 39.822624 67.187317 39.821491 C 67.169205 39.752998 67.136375 39.68734 67.095055 39.625641 C 67.091095 39.620548 67.089958 39.613754 67.085999 39.608093 C 67.085434 39.609226 67.083733 39.609226 67.082603 39.610359 C 67.037323 39.548096 66.985245 39.491489 66.924675 39.456963 C 66.896942 39.441113 66.870903 39.432056 66.846001 39.425831 L 66.845436 39.429226 C 66.728828 39.402058 66.643356 39.462055 66.643356 39.614319 C 66.643356 39.766586 66.835243 40.057529 66.95298 40.106209 C 67.070717 40.154888 67.138077 40.132813 67.178833 40.056396 L 67.179962 40.056396 C 67.180527 40.055832 67.179962 40.054699 67.180527 40.054134 C 67.196945 40.023567 67.206001 39.985641 67.206001 39.93866 C 67.206001 39.902435 67.198074 39.863377 67.187889 39.825455"/>
                            </g>
                        </g>
                    </g>
                </g>
            </g>
        </g>
    </g>
</svg>
