<?xml version="1.0" encoding="UTF-8"?>
<!-- Generated by Pixelmator Pro 3.2.2 -->
<svg width="90" height="90" viewBox="0 0 90 90" xmlns="http://www.w3.org/2000/svg" xmlns:xlink="http://www.w3.org/1999/xlink">
    <g id="Main-page">
        <g id="Tanta-COm">
            <g id="Industry">
                <g id="4">
                    <g id="icon26">
                        <path id="Rectangle" fill="#ffffff" stroke="none" d="M 0 0 L 90 0 L 90 90 L 0 90 Z"/>
                        <g id="Group-119">
                            <g id="Group-118">
                                <path id="Fill-2" fill="#bfc3c7" stroke="none" d="M 80.212418 59.811455 L 80.222603 59.811455 L 80.222603 54.950317 L 71.184113 52.612583 L 51.14468 41.042774 C 47.77166 39.095036 42.668266 38.882774 39.746376 40.570698 L 19.220152 52.420696 L 9.638831 54.689941 L 9.638831 59.488815 C 9.632038 59.595795 9.634302 59.704475 9.638831 59.811455 L 9.638831 59.886169 L 9.642227 59.886169 C 9.737321 61.117302 10.671284 62.393715 12.418642 63.401833 L 38.706566 78.580132 C 42.081848 80.527863 47.184681 80.740128 50.106567 79.053337 L 78.252792 62.801834 C 79.631096 62.007111 80.268456 60.930511 80.212418 59.811455"/>
                                <path id="Fill-4" fill="#e9e8e7" stroke="none" d="M 78.253418 57.680546 L 50.106625 73.93206 C 47.184738 75.618286 42.081905 75.406021 38.706623 73.458847 L 12.418698 58.281677 C 9.043416 56.332809 8.677755 53.38715 11.599642 51.699791 L 39.746433 35.449413 C 42.668324 33.762054 47.771152 33.973755 51.144737 35.92149 L 77.434357 51.099792 C 80.809074 53.046959 81.175301 55.99432 78.253418 57.680546"/>
                                <path id="Fill-6" fill="#2a2a2a" stroke="none" d="M 49.593906 62.376846 C 49.489189 62.317978 49.387302 62.273262 49.288246 62.238167 L 49.285984 62.239304 C 48.93504 62.11364 48.621452 62.124397 48.380886 62.259117 L 48.379189 62.25515 L 47.799568 62.593643 L 47.804096 62.600998 C 47.512585 62.786659 47.334286 63.155716 47.341076 63.678734 C 47.353531 64.761002 48.142586 66.074211 49.102585 66.611374 C 49.58485 66.881943 50.019001 66.90345 50.329758 66.721191 L 50.330322 66.721756 L 50.854473 66.416092 C 50.861267 66.412132 50.868057 66.4076 50.875416 66.403641 L 50.900887 66.388924 L 50.899757 66.386658 C 51.073528 66.273453 51.199757 66.086098 51.275604 65.846092 L 51.286358 65.839302 C 51.297115 65.806473 51.301643 65.766846 51.309566 65.731758 C 51.316925 65.699493 51.325417 65.668922 51.329945 65.635529 C 51.346924 65.53421 51.357113 65.427795 51.355415 65.310623 C 51.342396 64.227791 50.553341 62.914017 49.593906 62.376846"/>
                                <path id="Fill-8" fill="#adadad" stroke="none" d="M 47.4077 63.716209 C 47.420151 64.757149 48.178642 66.019417 49.101284 66.535645 C 50.023926 67.053001 50.762039 66.627907 50.74902 65.58696 C 50.736568 64.546021 49.978077 63.283188 49.055435 62.766396 C 48.132793 62.250168 47.395245 62.675262 47.4077 63.716209"/>
                                <path id="Fill-10" fill="#2c2c2c" stroke="none" d="M 47.781342 63.925186 C 47.791531 64.73349 48.380207 65.713303 49.096245 66.114624 C 49.812851 66.515945 50.385681 66.185379 50.375492 65.377075 C 50.365303 64.569344 49.776623 63.588959 49.060585 63.187645 C 48.343983 62.786888 47.771152 63.11689 47.781342 63.925186"/>
                                <path id="Fill-12" fill="#ac2121" stroke="none" d="M 50.259396 65.61113 C 50.277512 65.525093 50.28883 65.432266 50.287701 65.32811 C 50.286568 65.234718 50.276379 65.137924 50.259396 65.040565 C 50.254303 65.010002 50.244114 64.980003 50.236755 64.948868 L 50.24015 64.947166 C 50.23336 64.918869 50.223171 64.890564 50.215813 64.862267 C 50.205059 64.823212 50.199398 64.785286 50.186943 64.74736 C 50.181286 64.730942 50.174492 64.71566 50.168831 64.700378 C 50.154114 64.657356 50.136566 64.615471 50.119587 64.573021 C 50.104301 64.533966 50.091286 64.49321 50.073738 64.45472 C 50.068642 64.443398 50.062416 64.433777 50.057888 64.423019 C 50.033546 64.371513 50.004681 64.321129 49.976944 64.270187 C 49.959396 64.237358 49.944115 64.203964 49.92487 64.1717 C 49.920906 64.165474 49.917511 64.160378 49.914116 64.154152 C 49.868832 64.079437 49.819019 64.00811 49.767509 63.938492 C 49.760151 63.927734 49.753925 63.917549 49.746567 63.907356 C 49.744869 63.904526 49.743172 63.901695 49.741474 63.900002 C 49.697323 63.841698 49.648075 63.789055 49.600529 63.735847 C 49.580151 63.712639 49.562038 63.688301 49.541096 63.666229 C 49.49015 63.613586 49.435246 63.566605 49.380341 63.519058 C 49.358265 63.500374 49.337887 63.477737 49.315247 63.459625 C 49.261475 63.417168 49.206001 63.382072 49.149963 63.346413 C 49.125626 63.331131 49.101849 63.311317 49.076942 63.2966 L 49.076378 63.297173 C 49.071285 63.294342 49.066757 63.28981 49.061661 63.287544 C 48.393738 62.913399 47.859962 63.220757 47.869019 63.974152 C 47.869019 63.986603 47.872417 63.999626 47.872417 64.012077 L 47.871284 64.013206 C 47.872417 64.037544 47.878075 64.063583 47.880341 64.088493 C 47.885433 64.154716 47.89053 64.221512 47.903549 64.289436 C 47.90921 64.316605 47.917698 64.343773 47.923927 64.370941 C 47.939774 64.441132 47.956757 64.511322 47.979965 64.581512 C 47.988453 64.608681 48.001472 64.635284 48.011097 64.663017 C 48.037132 64.732643 48.062603 64.802261 48.094868 64.870186 C 48.095436 64.872452 48.096001 64.874153 48.096565 64.875847 C 48.097134 64.876419 48.097134 64.876419 48.097134 64.876984 C 48.098267 64.879242 48.099396 64.880943 48.100529 64.883209 C 48.120342 64.925659 48.145245 64.966415 48.16732 65.008301 C 48.192795 65.055847 48.216 65.103966 48.243172 65.149811 C 48.265247 65.184906 48.290154 65.217171 48.312794 65.250565 C 48.319588 65.262451 48.328075 65.273773 48.336002 65.285095 C 48.359207 65.318489 48.380154 65.354149 48.404491 65.386978 C 48.410717 65.394905 48.416378 65.403961 48.423172 65.411888 C 48.453171 65.450943 48.486 65.485474 48.518265 65.522263 C 48.518829 65.523399 48.519962 65.524529 48.520531 65.525658 C 48.547134 65.555664 48.572605 65.588493 48.599773 65.617928 C 48.609398 65.627548 48.618454 65.63887 48.62751 65.648491 C 48.660339 65.682449 48.695435 65.71019 48.729397 65.740753 C 48.752037 65.761696 48.772984 65.785469 48.795624 65.804718 L 48.798454 65.803589 C 48.816566 65.818871 48.834114 65.837547 48.853359 65.852829 C 48.931473 65.913963 49.012417 65.968864 49.095058 66.015282 C 49.191284 66.069626 49.283546 66.105286 49.373547 66.131325 C 49.378075 66.133018 49.383171 66.136414 49.388264 66.13755 L 49.392227 66.135284 C 49.824116 66.253586 50.158642 66.057167 50.256001 65.622452 L 50.258831 65.621323 C 50.259396 65.617928 50.258831 65.614525 50.259396 65.61113"/>
                                <path id="Fill-14" fill="#adadad" stroke="none" d="M 49.404285 62.151337 L 49.233341 65.276436 L 49.891644 64.808884 L 51.357681 62.803978 Z"/>
                                <path id="Fill-16" fill="#777777" stroke="none" d="M 48.884151 62.294495 L 48.554153 64.702415 L 49.233398 65.276375 L 50.698868 63.270905 Z"/>
                                <path id="Fill-18" fill="#2a2a2a" stroke="none" d="M 59.395077 56.466621 C 59.290359 56.407753 59.188473 56.363037 59.089417 56.327942 L 59.087151 56.329075 C 58.73621 56.203415 58.422623 56.214169 58.182056 56.348885 L 58.180359 56.344921 L 57.600739 56.683414 L 57.605267 56.690773 C 57.313755 56.876431 57.135452 57.245487 57.142246 57.768509 C 57.154697 58.850777 57.943756 60.163979 58.903755 60.701149 C 59.386021 60.971718 59.820171 60.993225 60.130924 60.810959 L 60.130924 60.811531 L 60.655643 60.505867 C 60.662434 60.501907 60.669228 60.497375 60.676586 60.493416 L 60.702057 60.478134 L 60.700924 60.476433 C 60.874699 60.363228 61.000927 60.175865 61.076775 59.935867 L 61.087528 59.929077 C 61.098286 59.896248 61.102814 59.856621 61.110737 59.821526 C 61.118095 59.789261 61.126587 59.758698 61.131115 59.725304 C 61.148094 59.623978 61.158283 59.517563 61.156586 59.400398 C 61.143566 58.317566 60.354511 57.003792 59.395077 56.466621"/>
                                <path id="Fill-20" fill="#adadad" stroke="none" d="M 57.20887 57.805981 C 57.221321 58.846924 57.979813 60.109192 58.902454 60.625412 C 59.825096 61.142776 60.56321 60.717682 60.549625 59.676735 C 60.537735 58.635796 59.779247 57.372395 58.856606 56.856167 C 57.933964 56.339943 57.196415 56.765038 57.20887 57.805981"/>
                                <path id="Fill-22" fill="#2a2a2a" stroke="none" d="M 57.582512 58.014961 C 57.592701 58.823265 58.181377 59.803078 58.897415 60.204399 C 59.614021 60.605721 60.186852 60.275154 60.176662 59.46685 C 60.166473 58.659111 59.577793 57.678734 58.861755 57.277412 C 58.145153 56.876659 57.572323 57.206657 57.582512 58.014961"/>
                                <path id="Fill-24" fill="#ac2121" stroke="none" d="M 60.060623 59.700905 C 60.078735 59.614868 60.090057 59.522041 60.088924 59.417885 C 60.087795 59.323921 60.077606 59.227699 60.060623 59.130341 C 60.055531 59.099777 60.045341 59.069206 60.037983 59.038643 L 60.041378 59.036942 C 60.034584 59.00808 60.024399 58.979774 60.016472 58.950905 C 60.006283 58.912415 60.000622 58.875053 59.987606 58.837135 C 59.98251 58.820717 59.975719 58.806 59.970058 58.790154 C 59.955341 58.747131 59.937794 58.705246 59.920811 58.662796 C 59.904964 58.623169 59.892509 58.582985 59.874962 58.544487 C 59.869869 58.533173 59.863644 58.523544 59.858547 58.51223 C 59.834774 58.461281 59.806473 58.412041 59.778736 58.361664 C 59.761189 58.328262 59.745342 58.294304 59.726097 58.262039 C 59.722134 58.255249 59.718739 58.249588 59.714775 58.243362 C 59.670059 58.169777 59.620811 58.09845 59.56987 58.029396 C 59.561943 58.018639 59.555153 58.007324 59.547794 57.997131 C 59.546097 57.994301 59.544395 57.99147 59.542133 57.989773 C 59.495152 57.927509 59.443077 57.870903 59.391567 57.813736 C 59.375153 57.79562 59.359867 57.774677 59.342323 57.756565 C 59.289116 57.701092 59.231945 57.651848 59.175339 57.603168 C 59.154964 57.586185 59.136848 57.566376 59.116474 57.549961 C 59.061565 57.50581 59.00383 57.47015 58.946663 57.433357 C 58.923454 57.41864 58.901379 57.39996 58.87817 57.386375 L 58.877605 57.38694 C 58.872509 57.384113 58.867981 57.379581 58.862888 57.377319 C 58.194962 57.002602 57.66119 57.310528 57.670246 58.063927 C 57.670246 58.076378 57.673641 58.089394 57.673641 58.101852 L 57.672512 58.102417 C 57.673077 58.128456 57.679302 58.15506 57.681568 58.180527 C 57.687229 58.246758 57.691757 58.311852 57.704773 58.379211 C 57.710434 58.40638 57.718925 58.434113 57.725719 58.461853 C 57.741566 58.532036 57.75798 58.601662 57.781189 58.67128 C 57.78968 58.698456 57.8027 58.72506 57.812321 58.752228 C 57.837795 58.821846 57.863831 58.891472 57.895531 58.959961 C 57.89666 58.962227 57.897228 58.963928 57.897793 58.965622 C 57.897793 58.966187 57.898361 58.966187 57.898361 58.966759 C 57.900623 58.971848 57.903454 58.976944 57.906284 58.981468 C 57.924965 59.020531 57.946472 59.056755 57.96685 59.095245 C 57.992889 59.143356 58.016663 59.192604 58.044395 59.239586 C 58.066471 59.274681 58.090813 59.306946 58.113453 59.34034 C 58.120811 59.352226 58.128738 59.363548 58.137226 59.37487 C 58.15987 59.408264 58.181377 59.443924 58.205719 59.476753 C 58.21138 59.48468 58.217606 59.493736 58.224396 59.501663 C 58.254963 59.541283 58.288361 59.576378 58.320625 59.614304 C 58.32119 59.614868 58.321754 59.615433 58.322887 59.615997 C 58.348927 59.646568 58.373833 59.678261 58.400436 59.707695 C 58.410625 59.717323 58.419113 59.728645 58.428738 59.738266 C 58.462132 59.772789 58.497795 59.801094 58.532887 59.832794 C 58.554398 59.853172 58.574776 59.875809 58.596851 59.894493 L 58.599113 59.893356 C 58.617794 59.908638 58.634773 59.927322 58.654587 59.942604 C 58.732132 60.003738 58.813644 60.05864 58.895718 60.105057 C 58.992512 60.159393 59.084774 60.195053 59.174774 60.221092 C 59.179302 60.222794 59.184399 60.226189 59.189491 60.227318 L 59.193455 60.22506 C 59.62534 60.343361 59.959869 60.146942 60.057228 59.712227 L 60.05949 59.711098 C 60.060623 59.707695 60.060059 59.703735 60.060623 59.700905"/>
                                <path id="Fill-26" fill="#2a2a2a" stroke="none" d="M 44.126434 45.987736 C 44.021152 45.928867 43.91983 45.884148 43.82021 45.848488 L 43.817944 45.850185 C 43.467567 45.724525 43.15398 45.735283 42.912849 45.869999 L 42.911152 45.866035 L 42.332096 46.204525 L 42.336056 46.211319 C 42.044548 46.397545 41.866245 46.766037 41.873039 47.289055 C 41.886059 48.371883 42.675114 49.685093 43.634548 50.222263 C 44.117378 50.492828 44.550964 50.514339 44.861717 50.332073 L 44.862286 50.332642 L 45.386436 50.026981 C 45.393227 50.023018 45.400585 50.01849 45.407944 50.014526 L 45.43285 49.999245 L 45.431717 49.997547 C 45.606056 49.884338 45.731716 49.696415 45.808132 49.456978 L 45.818321 49.450188 C 45.829075 49.41679 45.834171 49.377735 45.842094 49.342075 C 45.848888 49.309811 45.85738 49.279243 45.862473 49.246414 C 45.878887 49.144527 45.889076 49.038113 45.887379 48.921509 C 45.874924 47.838676 45.085869 46.524902 44.126434 45.987736"/>
                                <path id="Fill-28" fill="#adadad" stroke="none" d="M 41.939663 47.326584 C 41.952114 48.367527 42.710606 49.629791 43.633247 50.146584 C 44.556454 50.663376 45.294003 50.238281 45.280983 49.197338 C 45.268528 48.156395 44.51004 46.893566 43.587399 46.377338 C 42.664757 45.860546 41.927208 46.285641 41.939663 47.326584"/>
                                <path id="Fill-30" fill="#2c2c2c" stroke="none" d="M 42.313358 47.536076 C 42.323547 48.344376 42.912228 49.324188 43.628265 49.72551 C 44.344868 50.126263 44.917698 49.796261 44.907509 48.987961 C 44.897324 48.180225 44.308643 47.199848 43.592606 46.798527 C 42.875999 46.397205 42.303169 46.727772 42.313358 47.536076"/>
                                <path id="Fill-32" fill="#ac2121" stroke="none" d="M 44.791981 49.221451 C 44.810097 49.135979 44.82085 49.042583 44.819717 48.938999 C 44.818584 48.845036 44.808964 48.74881 44.791981 48.650887 C 44.786324 48.620884 44.776134 48.590321 44.769341 48.559753 L 44.772171 48.558056 C 44.765945 48.529186 44.755188 48.500885 44.747829 48.472015 C 44.737076 48.433525 44.731415 48.395603 44.718964 48.357677 C 44.713867 48.341827 44.706509 48.326546 44.701416 48.311264 C 44.686699 48.268242 44.669151 48.226921 44.652172 48.184471 C 44.636322 48.144848 44.623302 48.104092 44.605755 48.065037 C 44.600662 48.054283 44.594437 48.044094 44.589905 48.033337 C 44.565567 47.982395 44.537266 47.933151 44.510094 47.882771 C 44.491982 47.849377 44.476131 47.815414 44.456886 47.782581 C 44.453491 47.776356 44.450096 47.770695 44.446133 47.765038 C 44.401981 47.691452 44.353302 47.62183 44.302925 47.553337 C 44.294434 47.541451 44.287075 47.528999 44.278587 47.517677 C 44.276886 47.515415 44.275188 47.512585 44.273491 47.510319 C 44.227077 47.449753 44.176701 47.394279 44.126324 47.339375 C 44.108776 47.319565 44.092358 47.296925 44.073681 47.277679 C 44.019905 47.221642 43.96217 47.171829 43.905003 47.122581 C 43.885189 47.106167 43.867641 47.086922 43.847832 47.071075 C 43.791229 47.025791 43.732925 46.989563 43.674057 46.951641 C 43.651981 46.938053 43.631603 46.920509 43.609528 46.90749 L 43.608398 46.908054 C 43.603302 46.904659 43.599342 46.900696 43.594246 46.898434 C 42.926323 46.523716 42.392548 46.831638 42.401039 47.585037 C 42.401604 47.597488 42.404434 47.609943 42.405003 47.622959 L 42.403301 47.623528 C 42.404434 47.648998 42.41066 47.675602 42.412926 47.701073 C 42.418018 47.7673 42.423115 47.832962 42.436134 47.900318 C 42.441227 47.92749 42.449718 47.954659 42.455944 47.982395 C 42.472359 48.052017 42.488773 48.122208 42.511982 48.192394 C 42.520473 48.219566 42.534058 48.246735 42.543682 48.274471 C 42.569153 48.344093 42.594624 48.413151 42.626888 48.481075 C 42.627453 48.482773 42.628021 48.485035 42.62915 48.486732 L 42.62915 48.487301 C 42.631981 48.492962 42.634811 48.498055 42.637077 48.502583 C 42.655754 48.541641 42.67783 48.577866 42.697643 48.615791 C 42.723679 48.664471 42.747456 48.713715 42.775757 48.760696 C 42.798397 48.796925 42.823303 48.830887 42.847076 48.865978 C 42.854435 48.8773 42.862358 48.887489 42.869717 48.898811 C 42.892361 48.931072 42.912735 48.965603 42.936512 48.997299 C 42.942738 49.005226 42.948399 49.014282 42.955189 49.022205 C 42.98632 49.062962 43.020851 49.099186 43.054245 49.138245 C 43.080284 49.167679 43.10519 49.199375 43.131794 49.228245 C 43.141415 49.238434 43.150475 49.249752 43.159531 49.259377 C 43.192924 49.293339 43.22802 49.32164 43.262547 49.352772 C 43.284622 49.373714 43.305569 49.396358 43.328209 49.415604 L 43.330471 49.413902 C 43.349152 49.429752 43.366135 49.448433 43.38538 49.463715 C 43.463493 49.524849 43.544434 49.579754 43.627075 49.626167 C 43.723301 49.680508 43.816132 49.716167 43.906132 49.742207 C 43.91066 49.743904 43.915756 49.747299 43.920284 49.748432 L 43.924248 49.74617 C 44.356133 49.864471 44.690662 49.668056 44.788021 49.233337 L 44.790852 49.23164 C 44.791416 49.228809 44.790852 49.224846 44.791981 49.221451"/>
                                <path id="Fill-34" fill="#2a2a2a" stroke="none" d="M 31.957132 52.92062 C 31.852417 52.861752 31.75053 52.817036 31.651472 52.781376 L 31.648642 52.783073 C 31.298265 52.657413 30.98468 52.668167 30.744114 52.802887 L 30.742416 52.798923 L 30.162794 53.137413 L 30.167322 53.144207 C 29.875813 53.330433 29.69751 53.698921 29.704304 54.221943 C 29.716755 55.304771 30.505812 56.617981 31.465813 57.155148 C 31.948076 57.425716 32.382225 57.447224 32.692413 57.264961 L 32.692982 57.265526 L 33.217697 56.959866 C 33.224491 56.955906 33.231281 56.951374 33.23864 56.947414 L 33.264114 56.932129 L 33.262981 56.930431 C 33.436756 56.817226 33.562981 56.629299 33.638832 56.389866 L 33.649586 56.383076 C 33.659775 56.350243 33.664867 56.310619 33.672794 56.275528 C 33.680149 56.243263 33.688076 56.212696 33.693169 56.179298 C 33.710152 56.077412 33.720341 55.970997 33.718643 55.854393 C 33.705624 54.771564 32.916565 53.45779 31.957132 52.92062"/>
                                <path id="Fill-36" fill="#adadad" stroke="none" d="M 29.770926 54.259415 C 29.783379 55.300358 30.541868 56.563187 31.46451 57.079414 C 32.38715 57.596207 33.125263 57.171112 33.112244 56.130169 C 33.099792 55.089226 32.341301 53.826393 31.418661 53.310169 C 30.495453 52.793377 29.758472 53.218472 29.770926 54.259415"/>
                                <path id="Fill-38" fill="#2a2a2a" stroke="none" d="M 30.144623 54.468903 C 30.154812 55.277206 30.743492 56.257019 31.45953 56.658337 C 32.176132 57.059093 32.748962 56.729092 32.738773 55.920792 C 32.728584 55.113056 32.139904 54.132679 31.423868 53.731358 C 30.707266 53.330036 30.134436 53.660603 30.144623 54.468903"/>
                                <path id="Fill-40" fill="#ac2121" stroke="none" d="M 32.600037 55.492641 L 32.603436 55.49094 C 32.596642 55.461506 32.585888 55.43264 32.577961 55.40377 C 32.564377 55.349998 32.550228 55.297356 32.532112 55.244148 C 32.517395 55.199997 32.498718 55.157547 32.481735 55.11396 C 32.461926 55.064716 32.44381 55.015469 32.421169 54.966789 C 32.396263 54.913582 32.366264 54.862072 32.337963 54.809998 C 32.317585 54.77264 32.299473 54.73415 32.277397 54.697922 C 32.22419 54.609619 32.166454 54.524151 32.104755 54.443207 C 31.909473 54.187355 31.675699 53.97113 31.424944 53.830753 C 30.757019 53.4566 30.223246 53.764526 30.232304 54.517921 C 30.235699 54.8083 30.321171 55.121883 30.460417 55.419056 L 30.45985 55.419621 C 30.480227 55.462074 30.504566 55.50396 30.527208 55.545849 C 30.580416 55.646034 30.638718 55.741695 30.703247 55.835094 C 30.724756 55.866791 30.744568 55.89962 30.767775 55.929623 C 30.805134 55.979431 30.845888 56.02528 30.886642 56.071697 C 30.912115 56.101131 30.936453 56.132828 30.962492 56.161129 C 31.003813 56.204716 31.047398 56.243206 31.090982 56.282829 C 31.113623 56.304337 31.135698 56.328678 31.158907 56.348488 L 31.161171 56.347359 C 31.256832 56.42717 31.355322 56.50132 31.457775 56.559055 C 32.125698 56.93264 32.659473 56.625282 32.650982 55.871883 C 32.649284 55.748489 32.628906 55.621132 32.600037 55.492641"/>
                                <path id="Fill-42" fill="#adadad" stroke="none" d="M 31.441416 52.853149 L 31.531416 55.835037 L 32.189716 55.367489 L 33.256699 53.829563 Z"/>
                                <path id="Fill-44" fill="#777777" stroke="none" d="M 31.182171 52.853149 L 30.852737 55.261074 L 31.531416 55.835037 L 32.996887 53.829563 Z"/>
                                <path id="Fill-46" fill="#777777" stroke="none" d="M 58.674793 55.814377 L 58.30687 58.55513 L 58.98555 59.128525 L 60.451588 57.123619 Z"/>
                                <path id="Fill-48" fill="#adadad" stroke="none" d="M 31.803511 52.442997 L 42.451248 46.29583 C 42.738228 46.130547 43.061436 46.047337 43.383511 46.047337 C 43.753132 46.047337 44.122757 46.156017 44.437473 46.370544 L 60.197094 57.12413 C 60.270115 57.173374 60.279171 57.245262 60.278038 57.283188 C 60.27634 57.32111 60.262188 57.3913 60.185207 57.436016 L 52.746342 61.731117 C 52.21653 62.036774 50.940681 62.596588 50.387661 62.337906 L 31.816528 52.770168 C 31.729359 52.728848 31.712944 52.653 31.711813 52.611679 C 31.709549 52.569225 31.719736 52.492245 31.803511 52.442997 M 60.68219 56.413754 L 44.922565 45.660732 C 44.061623 45.073189 42.923321 45.030167 42.021057 45.550922 L 31.373888 51.699226 C 31.035397 51.893375 30.835587 52.257339 30.852001 52.647339 C 30.868416 53.037338 31.098227 53.383186 31.451435 53.54847 L 50.021999 63.116211 C 50.390491 63.289413 50.786716 63.374886 51.182377 63.374886 C 51.654453 63.374886 52.755962 62.718849 53.176529 62.476021 L 60.61483 58.181488 C 60.927849 58.000359 61.123699 57.676582 61.136719 57.315453 C 61.150867 56.954319 60.980492 56.616962 60.68219 56.413754"/>
                                <path id="Fill-50" fill="#adadad" stroke="none" d="M 34.765244 50.587357 L 33.904869 50.374527 L 34.709774 46.998112 L 33.317322 46.396412 L 32.117886 51.680943 L 31.676945 52.237358 L 31.123926 52.138866 L 32.677132 45.151695 L 35.744492 46.479622 Z"/>
                                <path id="Fill-52" fill="#ac2121" stroke="none" d="M 23.912151 21.700638 C 24.111397 21.417053 24.438 21.247246 24.785547 21.247246 C 25.005735 21.247246 25.216869 21.314041 25.395737 21.441399 C 25.527624 21.533096 28.621019 23.737808 29.159323 27.146492 L 29.461586 29.065926 C 29.505737 29.34668 29.437813 29.628567 29.270266 29.858376 C 29.102718 30.088188 28.85536 30.239319 28.573473 30.284039 C 28.518566 30.292526 28.463095 30.297054 28.407623 30.297054 C 27.881208 30.297054 27.438566 29.918377 27.357058 29.397057 L 27.054794 27.478188 C 26.662529 24.992714 24.193472 23.200073 24.170265 23.183098 C 23.690266 22.845734 23.574793 22.180641 23.912151 21.700638"/>
                                <path id="Fill-54" fill="#a66b6b" stroke="none" d="M 44.196625 48.413883 C 44.196625 48.413883 44.140018 47.813885 44.955681 47.814449 L 44.056812 46.963131 L 43.840588 47.964451 L 44.196625 48.413883 Z"/>
                                <path id="Fill-56" fill="#ac2121" stroke="none" d="M 37.591583 13.825302 C 37.794792 13.560959 38.103283 13.409264 38.43668 13.409264 C 38.673283 13.409264 38.897999 13.485115 39.085926 13.63002 C 39.196869 13.716057 41.814228 15.76738 42.353661 19.197563 L 42.54668 21.116997 C 42.606113 21.701714 42.178757 22.225304 41.592339 22.2836 C 41.556679 22.287003 41.521584 22.288696 41.486492 22.288696 C 40.936867 22.288696 40.481773 21.87719 40.428001 21.330399 L 40.24234 19.470398 C 39.850075 16.984924 37.86668 15.382469 37.786301 15.31794 C 37.321587 14.960205 37.234417 14.290588 37.591583 13.825302"/>
                                <path id="Fill-58" fill="#565656" stroke="none" d="M 64.228531 44.834095 C 64.319092 44.834095 64.407394 44.787678 64.457771 44.703339 C 64.532486 44.576546 64.490601 44.413528 64.363243 44.33881 L 42.211926 31.266171 C 42.087963 31.192017 41.923244 31.233337 41.847961 31.36013 C 41.772678 31.486923 41.814568 31.649944 41.941925 31.725227 L 64.093246 44.797867 C 64.135132 44.822208 64.182114 44.834095 64.228531 44.834095"/>
                                <path id="Fill-60" fill="#565656" stroke="none" d="M 64.829941 39.778473 C 64.919945 39.778473 65.008247 39.73262 65.058052 39.649414 C 65.133904 39.523754 65.093147 39.360168 64.967491 39.284321 L 41.825039 25.348473 C 41.698811 25.273186 41.535225 25.312813 41.459942 25.439041 C 41.384094 25.565262 41.42485 25.728851 41.55051 25.804695 L 64.692963 39.740547 C 64.735977 39.766582 64.783524 39.778473 64.829941 39.778473"/>
                                <path id="Fill-62" fill="#565656" stroke="none" d="M 46.500568 39.611546 L 46.501698 39.611546 C 46.649433 39.610413 46.768303 39.490982 46.76717 39.343243 L 46.670944 22.474754 C 46.669811 22.328148 46.550377 22.209846 46.404339 22.209846 L 46.40321 22.209846 C 46.255474 22.210411 46.136604 22.330414 46.137737 22.47702 L 46.233963 39.346642 C 46.235096 39.493244 46.35453 39.611546 46.500568 39.611546"/>
                                <path id="Fill-64" fill="#3a393a" stroke="none" d="M 60.008095 51.928413 C 60.14621 51.928413 60.280361 51.856525 60.354511 51.728035 C 60.46489 51.537846 60.399227 51.29332 60.208473 51.182941 L 38.90451 38.882942 C 38.712624 38.772564 38.468662 38.838791 38.358849 39.029545 C 38.24847 39.220867 38.314133 39.464264 38.504887 39.575207 L 59.808849 51.874641 C 59.871681 51.911434 59.940739 51.928413 60.008095 51.928413"/>
                                <path id="Fill-66" fill="#3a393a" stroke="none" d="M 47.436962 53.786827 C 47.482811 53.786827 47.528095 53.77494 47.570549 53.751167 L 59.36055 46.911736 C 59.487907 46.837582 59.530926 46.674564 59.45734 46.547207 C 59.38319 46.419281 59.219604 46.376827 59.09338 46.450413 L 47.303379 53.289848 C 47.175453 53.363998 47.132435 53.527016 47.206585 53.654377 C 47.255833 53.739281 47.345264 53.786827 47.436962 53.786827"/>
                                <path id="Fill-68" fill="#565656" stroke="none" d="M 28.996529 33.229813 C 29.042377 33.229813 29.088793 33.217922 29.13068 33.193584 L 41.82238 25.806793 C 41.949169 25.733208 41.992191 25.57019 41.918606 25.442833 C 41.843323 25.315468 41.68087 25.272453 41.554077 25.346603 L 28.862944 32.73283 C 28.735586 32.80698 28.692568 32.970001 28.766718 33.097359 C 28.81653 33.182262 28.905397 33.229813 28.996529 33.229813"/>
                                <path id="Fill-70" fill="#565656" stroke="none" d="M 29.861605 38.722698 C 29.906322 38.722698 29.951605 38.710812 29.992926 38.687603 L 42.208588 31.727036 C 42.33651 31.654583 42.381226 31.491566 42.308208 31.36364 C 42.235191 31.235149 42.072739 31.191566 41.945946 31.264019 L 29.730284 38.224583 C 29.60236 38.297604 29.557642 38.460621 29.630095 38.588547 C 29.679907 38.674019 29.769907 38.722698 29.861605 38.722698"/>
                                <path id="Fill-72" fill="#3a393a" stroke="none" d="M 34.70332 46.422791 C 34.748604 46.422791 34.794453 46.410904 34.836338 46.387131 L 46.633698 39.575432 C 46.761623 39.50185 46.80521 39.339397 46.731056 39.212036 C 46.658039 39.084679 46.495018 39.04166 46.367096 39.114677 L 34.570301 45.925808 C 34.442944 45.999393 34.399357 46.161846 34.472942 46.289772 C 34.52219 46.374676 34.61219 46.422791 34.70332 46.422791"/>
                                <path id="Fill-74" fill="#565656" stroke="none" d="M 55.230511 44.62183 C 55.372021 44.62183 55.489189 44.511452 55.495983 44.368809 L 56.273151 28.654472 C 56.279945 28.507301 56.167301 28.382774 56.020699 28.375416 C 55.883717 28.366924 55.749001 28.481262 55.741642 28.627869 L 54.964474 44.342205 C 54.95768 44.489376 55.07032 44.614471 55.217491 44.62183 L 55.230511 44.62183 Z"/>
                                <path id="Fill-76" fill="#565656" stroke="none" d="M 35.026131 41.610905 C 35.03915 41.610905 35.05217 41.609772 35.065754 41.608074 C 35.210659 41.585999 35.311417 41.450718 35.289906 41.305244 L 32.764812 24.449776 C 32.743301 24.303734 32.607452 24.205811 32.462547 24.225624 C 32.317074 24.247696 32.216888 24.38298 32.238396 24.52845 L 34.762924 41.384491 C 34.782738 41.516376 34.896511 41.610905 35.026131 41.610905"/>
                                <path id="Fill-78" fill="#565656" stroke="none" d="M 38.704304 39.495453 C 38.713924 39.495453 38.72298 39.494884 38.732037 39.493755 C 38.878643 39.479038 38.985058 39.347717 38.969772 39.201111 L 37.177132 22.043945 C 37.16185 21.896774 37.03336 21.787529 36.884491 21.80677 C 36.738453 21.821487 36.632038 21.952812 36.64732 22.098846 L 38.43996 39.256584 C 38.454113 39.393566 38.570152 39.495453 38.704304 39.495453"/>
                                <path id="Fill-80" fill="#565656" stroke="none" d="M 51.091358 42.040981 C 51.235699 42.040981 51.354568 41.92551 51.357964 41.780602 L 51.714565 25.719849 C 51.717396 25.572678 51.600792 25.450981 51.454189 25.447586 L 51.447964 25.447586 C 51.303623 25.447586 51.184757 25.563057 51.181358 25.707962 L 50.824757 41.769283 C 50.821358 41.915886 50.937962 42.037582 51.085133 42.040981 L 51.091358 42.040981 Z"/>
                                <path id="Fill-82" fill="#3a393a" stroke="none" d="M 56.006603 54.233433 C 56.145283 54.233433 56.27887 54.162113 56.35302 54.033623 C 56.463963 53.842865 56.397736 53.598904 56.206982 53.488525 L 34.903019 41.188526 C 34.711132 41.078152 34.467171 41.14381 34.357357 41.334564 C 34.247547 41.525887 34.312641 41.769848 34.503963 41.880226 L 55.807358 54.180225 C 55.870754 54.21645 55.939247 54.233433 56.006603 54.233433"/>
                                <path id="Fill-84" fill="#3a393a" stroke="none" d="M 43.387924 51.424244 C 43.433208 51.424244 43.478493 51.412357 43.520378 51.389149 L 55.363018 44.58651 C 55.490379 44.512924 55.534531 44.350471 55.460945 44.222546 C 55.387924 44.095188 55.224342 44.05217 55.097549 44.124622 L 43.255474 50.926697 C 43.127548 51.000282 43.083397 51.162735 43.156982 51.290657 C 43.206226 51.376129 43.295662 51.424244 43.387924 51.424244"/>
                                <path id="Fill-86" fill="#3a393a" stroke="none" d="M 39.168621 48.988186 C 39.21447 48.988186 39.260887 48.976299 39.302773 48.951962 L 51.225227 42.004982 C 51.35202 41.930828 51.395603 41.767811 51.321453 41.641018 C 51.247303 41.51366 51.084286 41.471207 50.956924 41.544792 L 39.034473 48.491772 C 38.907681 48.565922 38.864094 48.728943 38.938812 48.8563 C 38.988056 48.940639 39.076923 48.988186 39.168621 48.988186"/>
                                <path id="Fill-88" fill="#565656" stroke="none" d="M 30.70953 44.369774 C 30.79953 44.369774 30.891228 44.34713 30.975567 44.29845 L 42.762173 37.493546 C 43.016888 37.346378 43.104057 37.020905 42.957455 36.765621 C 42.809719 36.510906 42.483681 36.423737 42.22953 36.570904 L 30.44236 43.375813 C 30.187643 43.52298 30.100473 43.849018 30.247643 44.103168 C 30.346132 44.274677 30.525566 44.369774 30.70953 44.369774"/>
                                <path id="Fill-90" fill="#565656" stroke="none" d="M 42.495171 37.56464 C 42.507057 37.56464 42.518379 37.56464 42.529697 37.563507 C 42.823471 37.545395 43.04649 37.291809 43.027245 36.998604 L 41.892906 19.203506 C 41.873096 18.910301 41.618942 18.68219 41.327435 18.706528 C 41.033092 18.725204 40.810074 18.978226 40.829319 19.272003 L 41.964226 37.06596 C 41.982342 37.347847 42.216679 37.56464 42.495171 37.56464"/>
                                <path id="Fill-92" fill="#565656" stroke="none" d="M 63.841019 49.840584 C 64.025543 49.840584 64.204414 49.744923 64.302902 49.573414 C 64.449509 49.318695 64.361771 48.993225 64.107056 48.846054 L 42.761208 36.570961 C 42.507622 36.423225 42.181019 36.511528 42.033852 36.766243 C 41.887245 37.021526 41.974983 37.347 42.229698 37.494167 L 63.576115 49.769264 C 63.659321 49.817375 63.751019 49.840584 63.841019 49.840584"/>
                                <path id="Fill-94" fill="#565656" stroke="none" d="M 59.227585 46.947338 C 59.363434 46.947338 59.480038 46.842056 59.492493 46.703941 L 60.806831 31.576019 C 60.819851 31.428848 60.71117 31.299793 60.564568 31.287338 C 60.419094 31.272057 60.289474 31.382435 60.276455 31.529602 L 58.961548 46.657528 C 58.948528 46.804131 59.057209 46.933754 59.203812 46.946205 C 59.211739 46.946774 59.219662 46.947338 59.227585 46.947338"/>
                                <path id="Fill-96" fill="#ac2121" stroke="none" d="M 24.456623 22.640381 C 24.511528 22.434341 24.642849 22.261696 24.827377 22.154152 L 38.142849 14.413017 C 38.265114 14.342827 38.403793 14.304909 38.543602 14.304909 C 38.827755 14.304909 39.092094 14.457733 39.233604 14.702827 C 39.341717 14.88736 39.371151 15.102455 39.316246 15.308487 C 39.261341 15.514526 39.13002 15.687737 38.945492 15.794716 L 25.630587 23.535851 C 25.508322 23.606041 25.369642 23.643394 25.229265 23.643394 C 24.945114 23.643394 24.680775 23.491135 24.539265 23.246605 C 24.431152 23.062073 24.401718 22.846413 24.456623 22.640381"/>
                                <path id="Fill-98" fill="#ac2121" stroke="none" d="M 46.137962 39.73262 L 46.137962 51.050545 L 37.042301 45.798847 C 36.60532 45.546394 36.336452 45.080547 36.336452 44.577339 L 36.336452 34.073944 L 46.137962 39.73262 Z"/>
                                <path id="Fill-100" fill="#551212" stroke="none" d="M 46.137962 39.73262 L 55.939472 34.073944 L 55.939472 44.653755 C 55.939472 45.110546 55.696075 45.532242 55.300415 45.759792 L 46.137962 51.050545 L 46.137962 39.73262 Z"/>
                                <path id="Fill-102" fill="#cecdcc" stroke="none" d="M 36.296944 34.084358 L 45.528454 28.754547 C 45.906002 28.536621 46.37072 28.536621 46.7477 28.754547 L 55.978642 34.084358 L 46.138077 39.766243 L 36.296944 34.084358 Z"/>
                                <path id="Fill-104" fill="#adadad" stroke="none" d="M 41.915886 37.326962 L 40.663246 36.60413 L 40.663246 41.474319 L 41.915886 42.197151 Z"/>
                                <path id="Fill-106" fill="#adadad" stroke="none" d="M 50.525322 37.235718 L 51.732113 36.537228 L 51.777397 41.379677 L 50.498154 42.118359 Z"/>
                                <path id="Fill-108" fill="#adadad" stroke="none" d="M 51.732002 36.536999 L 41.928226 30.829075 L 40.676151 31.549641 L 50.515018 37.233227 Z"/>
                                <path id="Fill-110" fill="#adadad" stroke="none" d="M 40.663303 36.592869 L 41.915943 37.315697 L 51.748585 31.64513 L 50.49255 30.923435 Z"/>
                                <path id="Fill-112" fill="#adadad" stroke="none" d="M 33.582848 36.053886 L 33.964359 40.568035 L 30.402849 38.466339 L 29.64719 33.668602 L 33.582848 36.053886 Z M 38.183037 38.841621 L 38.50285 43.246529 L 34.526436 40.899734 L 34.146057 36.395771 L 38.183037 38.841621 Z M 42.530209 41.476528 L 42.731716 45.741623 L 39.062096 43.575962 L 38.741718 39.180111 L 42.530209 41.476528 Z M 47.04266 44.211056 L 47.099266 48.319355 L 43.554173 46.22728 L 43.353226 41.975208 L 47.04266 44.211056 Z M 51.480396 46.900867 L 51.480396 50.905018 L 47.636436 48.636337 L 47.580399 44.537094 L 51.480396 46.900867 Z M 55.82983 45.015961 L 55.788509 49.070488 L 52.545681 50.918602 L 52.545681 46.912186 L 55.82983 45.015961 Z M 60.084736 42.558792 L 59.926247 46.71294 L 56.324547 48.765396 L 56.364738 44.706905 L 60.084736 42.558792 Z M 64.231529 40.165585 L 63.791718 44.509922 L 60.471909 46.402187 L 60.630962 42.24464 L 64.231529 40.165585 Z M 60.447567 47.029358 L 63.726059 45.160866 L 63.338886 48.982754 L 60.306057 50.734074 L 60.447567 47.029358 Z M 56.318321 49.381809 L 59.901905 47.339546 L 59.760399 51.04879 L 56.281528 53.057659 L 56.318321 49.381809 Z M 52.545681 51.53162 L 55.782848 49.686905 L 55.745491 53.366714 L 52.545681 55.214828 L 52.545681 51.53162 Z M 47.644924 49.260113 L 51.480396 51.523697 L 51.480396 55.214828 L 47.697002 53.029922 L 47.644924 49.260113 Z M 43.584171 46.864075 L 47.107758 48.94313 L 47.159264 52.719734 L 43.7687 50.76181 L 43.584171 46.864075 Z M 39.109077 44.222378 L 42.761719 46.378414 L 42.946812 50.287472 L 39.400585 48.240112 L 39.109077 44.222378 Z M 34.581905 41.550678 L 38.549831 43.892944 L 38.843037 47.918037 L 34.928322 45.658413 L 34.581905 41.550678 Z M 30.50983 39.14785 L 34.019264 41.218979 L 34.36681 45.334072 L 31.195303 43.502941 L 30.50983 39.14785 Z M 64.358887 49.40332 C 64.361153 49.388603 64.369644 49.376148 64.371338 49.361431 L 65.858322 34.678413 C 65.887184 34.386337 65.67379 34.124828 65.381714 34.09483 C 65.079453 34.068226 64.827568 34.278793 64.797562 34.571434 L 64.297752 39.511246 L 60.654736 41.614639 L 60.813229 37.471809 C 60.818321 37.324642 60.703983 37.201244 60.557377 37.196152 C 60.553417 37.195583 60.550018 37.195583 60.547188 37.195583 C 60.404549 37.195583 60.286247 37.308228 60.280586 37.452 L 60.109077 41.929924 L 56.370964 44.088226 L 56.411152 40.075584 C 56.412849 39.929546 56.295113 39.808979 56.147377 39.807281 L 56.145115 39.807281 C 55.999641 39.807281 55.880775 39.925018 55.879078 40.071056 L 55.835491 44.397282 L 52.545681 46.29747 L 52.545681 42.525394 C 52.545681 42.231056 52.307377 41.992756 52.013039 41.992756 C 51.718132 41.992756 51.480396 42.231056 51.480396 42.525394 L 51.480396 46.278225 L 47.571342 43.909359 L 47.510208 39.417282 C 47.507946 39.270111 47.39304 39.139359 47.239643 39.155209 C 47.092472 39.156338 46.974735 39.27747 46.977001 39.424641 L 47.034172 43.583885 L 43.322662 41.334454 L 43.091152 36.439922 C 43.080963 36.21917 42.870396 36.056149 42.673981 36.060112 C 42.453228 36.069736 42.282848 36.257095 42.293606 36.477848 L 42.499641 40.835205 L 38.694736 38.529171 L 38.323414 33.425205 C 38.312096 33.278603 38.187565 33.166527 38.038132 33.178982 C 37.891529 33.189735 37.781151 33.317093 37.791904 33.463696 L 38.13549 38.190113 L 34.090584 35.73917 L 33.637188 30.366905 C 33.625301 30.219734 33.492847 30.109356 33.34964 30.123508 C 33.203037 30.13596 33.09436 30.265018 33.106247 30.411621 L 33.527378 35.39785 L 29.538511 32.980301 L 28.572285 26.842754 C 28.525869 26.551811 28.255302 26.35313 27.963228 26.398979 C 27.67285 26.444832 27.474171 26.717659 27.519453 27.008602 L 30.182661 43.920113 C 30.184359 43.930302 30.190586 43.938225 30.192284 43.947281 C 30.198511 43.976715 30.210398 44.002754 30.221718 44.029922 C 30.235302 44.065018 30.248888 44.09898 30.269831 44.130112 C 30.284548 44.152187 30.302662 44.170868 30.320774 44.190678 C 30.348511 44.221245 30.377945 44.247849 30.411341 44.271057 C 30.423227 44.27898 30.430586 44.291431 30.442472 44.298225 L 51.746433 56.598789 C 51.747566 56.599358 51.748135 56.599358 51.749264 56.599922 C 51.76115 56.606716 51.774738 56.609547 51.786625 56.615208 C 51.801342 56.621998 51.814926 56.627659 51.829643 56.632751 C 51.830776 56.63332 51.832474 56.633884 51.833603 56.634453 C 51.892471 56.655396 51.951908 56.670113 52.012474 56.670113 L 52.013039 56.670113 L 52.013603 56.670113 C 52.073605 56.670113 52.133606 56.655396 52.192474 56.633884 C 52.193604 56.63332 52.194736 56.63332 52.195869 56.632751 C 52.210587 56.627659 52.225304 56.621998 52.238888 56.615208 C 52.251339 56.608978 52.264927 56.606716 52.276245 56.599922 C 52.277378 56.599358 52.277943 56.598789 52.279076 56.598789 L 64.107567 49.768978 C 64.122284 49.76049 64.130775 49.745773 64.144356 49.736149 C 64.17662 49.713509 64.204926 49.689167 64.231529 49.659733 C 64.251907 49.637657 64.269455 49.615017 64.285301 49.590111 C 64.303978 49.560112 64.318695 49.529545 64.331146 49.495583 C 64.34304 49.465015 64.352661 49.435585 64.358887 49.40332 L 64.358887 49.40332 Z"/>
                                <path id="Fill-114" fill="#cecdcc" stroke="none" d="M 65.615379 34.177246 L 41.648209 18.789513 C 41.627266 18.775925 41.603489 18.773659 41.581413 18.763474 C 41.546322 18.74649 41.51236 18.729507 41.474434 18.721016 C 41.439907 18.713661 41.406509 18.71479 41.371983 18.714226 C 41.33802 18.713097 41.305756 18.710831 41.272358 18.716492 C 41.235001 18.722153 41.201038 18.737999 41.165943 18.752151 C 41.14217 18.761772 41.117264 18.763474 41.094624 18.776489 L 27.779718 26.463848 C 27.774057 26.466679 27.771793 26.47234 27.766132 26.475735 C 27.736134 26.494415 27.71236 26.521019 27.686321 26.545925 C 27.660284 26.570831 27.631983 26.592907 27.611605 26.621773 C 27.608208 26.626869 27.603115 26.629131 27.599718 26.634792 C 27.585567 26.655735 27.583303 26.679508 27.572548 26.701584 C 27.556133 26.737244 27.538019 26.771774 27.52953 26.810265 C 27.522171 26.844227 27.523302 26.877056 27.522738 26.910454 C 27.521605 26.944981 27.518209 26.977245 27.523869 27.011772 C 27.530661 27.050831 27.546511 27.087055 27.561794 27.123848 C 27.57085 27.145924 27.572548 27.169697 27.584435 27.191208 C 27.588398 27.197433 27.593491 27.201962 27.597454 27.207623 C 27.60651 27.221207 27.616699 27.23196 27.626888 27.245548 C 27.658587 27.286869 27.695379 27.323093 27.736134 27.352528 C 27.743492 27.358189 27.747454 27.366112 27.754812 27.371773 L 51.721981 42.971771 C 51.811981 43.030075 51.912735 43.057812 52.01236 43.057812 C 52.186134 43.057812 52.357075 42.97234 52.458961 42.816113 C 52.619717 42.569321 52.550095 42.239319 52.303303 42.079132 L 29.064058 26.951775 L 41.346508 19.861015 L 65.039719 35.073284 C 65.12915 35.130451 65.228775 35.157623 65.327263 35.157623 C 65.502731 35.157623 65.674248 35.071018 65.776131 34.912529 C 65.934624 34.665169 65.862732 34.335735 65.615379 34.177246"/>
                                <path id="Fill-116" fill="#ac2121" stroke="none" d="M 48.938831 40.524734 C 49.087132 40.297188 49.337322 40.161339 49.60902 40.161339 C 49.76355 40.161339 49.914116 40.206623 50.044304 40.290962 L 52.032227 41.584923 L 63.80751 34.59832 L 62.30751 33.63549 C 61.937321 33.397755 61.828644 32.90247 62.066944 32.531151 C 62.21468 32.301907 62.466568 32.163792 62.739964 32.163792 C 62.892792 32.163792 63.04166 32.208508 63.171284 32.291149 L 65.759773 33.953037 C 65.861092 34.018131 65.940338 34.103039 66.000908 34.199265 C 66.004868 34.206055 66.011093 34.211151 66.015625 34.217377 C 66.02581 34.234356 66.030907 34.251904 66.039398 34.268887 C 66.049583 34.289829 66.060341 34.310772 66.068832 34.333416 C 66.079582 34.360584 66.088074 34.388885 66.096001 34.417755 C 66.101662 34.438698 66.10675 34.459641 66.111282 34.481152 C 66.116379 34.510017 66.119774 34.538319 66.120903 34.566624 C 66.123169 34.590961 66.124298 34.61417 66.123734 34.638508 C 66.123169 34.663982 66.120903 34.688885 66.118637 34.714359 C 66.115814 34.740963 66.111847 34.767567 66.106186 34.79417 C 66.100525 34.817375 66.094299 34.840019 66.086945 34.862659 C 66.078453 34.889263 66.069962 34.915302 66.05864 34.941338 C 66.049019 34.965111 66.036568 34.987186 66.024681 35.00983 C 66.015625 35.025112 66.009964 35.041527 66.000336 35.056812 C 65.996376 35.063602 65.99015 35.067566 65.985619 35.074356 C 65.956757 35.116245 65.924492 35.155869 65.887131 35.192093 C 65.880341 35.198887 65.87468 35.20681 65.867889 35.213604 C 65.827698 35.250397 65.784111 35.283226 65.735435 35.312092 L 52.421097 43.212284 C 52.417133 43.214546 52.412037 43.215679 52.408077 43.217941 C 52.366188 43.241714 52.321472 43.258133 52.275623 43.273979 C 52.255814 43.280773 52.237698 43.291527 52.217888 43.296623 C 52.156189 43.313038 52.09166 43.320961 52.026001 43.322094 C 52.021473 43.322659 52.017509 43.324356 52.01355 43.324356 L 52.012981 43.323792 L 52.012417 43.324356 C 52.009022 43.324356 52.005623 43.322659 52.001663 43.322659 C 51.932037 43.321529 51.864113 43.311905 51.798454 43.293224 C 51.771282 43.285866 51.74638 43.271717 51.720341 43.26096 C 51.67902 43.244545 51.638264 43.22813 51.599773 43.204926 C 51.592415 43.200962 51.583927 43.199829 51.577133 43.194736 L 49.172604 41.629642 C 48.993736 41.513603 48.870907 41.334736 48.826756 41.125866 C 48.782604 40.916431 48.822227 40.703037 48.938831 40.524734"/>
                            </g>
                        </g>
                    </g>
                </g>
            </g>
        </g>
    </g>
</svg>
