<?xml version="1.0" encoding="UTF-8"?>
<!-- Generated by Pixelmator Pro 3.2.2 -->
<svg width="90" height="90" viewBox="0 0 90 90" xmlns="http://www.w3.org/2000/svg" xmlns:xlink="http://www.w3.org/1999/xlink">
    <g id="Main-page">
        <g id="Tanta-COM">
            <g id="Industry">
                <g id="7">
                    <g id="icon27">
                        <path id="Rectangle" fill="#ffffff" stroke="none" d="M 0 0 L 90 0 L 90 90 L 0 90 Z"/>
                        <g id="Group-63">
                            <g id="Group-8">
                                <path id="Fill-2" fill="#bfc3c7" stroke="none" d="M 80.212471 59.811455 L 80.222664 59.811455 L 80.222664 54.950321 L 71.184166 52.612587 L 51.144737 41.042774 C 47.771717 39.095039 42.668324 38.882774 39.746433 40.570698 L 19.220207 52.4207 L 9.638887 54.689945 L 9.638887 59.488811 C 9.632094 59.595795 9.634359 59.704472 9.638887 59.811455 L 9.638887 59.886169 L 9.642283 59.886169 C 9.737378 61.117302 10.67134 62.393715 12.418133 63.401833 L 38.706623 78.580132 C 42.081341 80.527863 47.18417 80.740128 50.106625 79.053345 L 78.252853 62.80183 C 79.631149 62.007111 80.268509 60.930511 80.212471 59.811455"/>
                                <path id="Fill-4" fill="#e9e8e7" stroke="none" d="M 78.252907 57.68055 L 50.106682 73.932053 C 47.184795 75.618286 42.081963 75.406021 38.70668 73.458847 L 12.418756 58.281677 C 9.043472 56.332813 8.677812 53.38715 11.599699 51.699795 L 39.74649 35.449413 C 42.668377 33.762054 47.77121 33.973755 51.144794 35.92149 L 77.434418 51.099792 C 80.809135 53.046963 81.174797 55.99432 78.252907 57.68055"/>
                                <path id="Fill-6" fill="#143f63" stroke="none" d="M 64.609978 49.267357 L 64.90715 49.439999 C 64.866394 49.416225 64.831863 49.381134 64.804695 49.336414 L 64.506958 49.163773 C 64.534134 49.208492 64.569229 49.243584 64.609978 49.267357"/>
                            </g>
                            <g id="Group-11">
                                <g id="Fill-9-Clipped">
                                    <g id="path-1"/>
                                    <path id="Fill-9" fill="#143f63" stroke="none" d="M 64.804527 49.336472 L 64.507362 49.16383 C 64.533966 49.208549 64.569054 49.243641 64.60981 49.267414 L 64.907547 49.440056 C 64.866226 49.416283 64.831696 49.381187 64.804527 49.336472"/>
                                </g>
                            </g>
                            <g id="Group-62">
                                <path id="Fill-12" fill="#06618c" stroke="none" d="M 63.961529 50.251301 L 63.66436 50.078094 L 63.792286 50.199226 L 64.090019 50.372433 Z"/>
                                <path id="Fill-14" fill="#cecdcc" stroke="none" d="M 66.446831 47.291718 C 66.343811 47.231716 66.201172 47.240208 66.043808 47.330772 L 65.005699 47.930775 C 64.977394 47.946621 64.949661 47.964737 64.923622 47.985115 C 64.887962 48.01115 64.856827 48.045681 64.824562 48.077377 C 64.807587 48.093792 64.790039 48.106247 64.774185 48.124359 C 64.713623 48.190586 64.659279 48.264172 64.612305 48.343983 C 64.603813 48.3587 64.598152 48.373981 64.59079 48.388699 C 64.554565 48.456059 64.524567 48.523979 64.500793 48.59417 C 64.491737 48.621906 64.486076 48.647942 64.478714 48.675678 C 64.471359 48.70681 64.458908 48.737942 64.453812 48.768509 C 64.447021 48.814358 64.443054 48.860207 64.443054 48.904926 L 64.445885 48.943417 L 63.664188 50.078888 L 63.961361 50.25153 L 64.743057 49.116058 L 64.740227 49.077 C 64.739662 49.003983 64.756638 48.927002 64.776451 48.849453 C 64.783241 48.821716 64.789474 48.79398 64.798531 48.765678 C 64.821732 48.696621 64.851738 48.629265 64.886833 48.563038 C 64.895317 48.548321 64.900978 48.531338 64.90947 48.516624 C 64.955887 48.43681 65.01136 48.363792 65.071358 48.297001 C 65.087204 48.279453 65.105324 48.266434 65.121735 48.249454 C 65.179474 48.193981 65.238342 48.140209 65.302864 48.103416 L 66.340981 47.503983 C 66.498901 47.412849 66.641548 47.404358 66.743996 47.464359 L 66.446831 47.291718 Z"/>
                                <path id="Fill-16" fill="#631414" stroke="none" d="M 65.302582 48.103188 C 64.990135 48.283756 64.73938 48.720169 64.740509 49.077908 L 64.74334 49.116398 L 63.961643 50.251301 L 64.089569 50.372433 L 64.804474 49.336586 C 64.897865 49.49168 65.086922 49.528473 65.306549 49.40168 L 66.345222 48.802246 C 66.657677 48.621677 66.909569 48.185265 66.908432 47.825829 C 66.907867 47.468094 66.653717 47.323189 66.341263 47.503754 L 65.302582 48.103188 Z"/>
                                <path id="Fill-18" fill="#2c2c2c" stroke="none" d="M 26.530075 46.827961 C 27.004416 46.552303 27.642906 46.560226 28.353283 46.90551 C 28.429697 46.942867 28.507811 46.983624 28.586491 47.028904 C 29.617245 47.624378 30.521208 48.768341 31.029509 49.997772 C 31.308001 50.670792 31.468754 51.369282 31.46649 52.017963 C 31.464226 52.928719 31.142151 53.570038 30.623095 53.87117 L 28.665735 55.008907 C 29.184227 54.707775 29.506302 54.066452 29.509132 53.155697 C 29.51083 52.507019 29.350641 51.808529 29.072151 51.134945 C 28.563848 49.90551 27.659887 48.762112 26.628565 48.166641 C 26.550453 48.121357 26.47234 48.080605 26.395924 48.042679 C 25.685547 47.697964 25.04649 47.689472 24.572718 47.965698 L 26.530075 46.827961 Z"/>
                                <path id="Fill-20" fill="#551212" stroke="none" d="M 26.62851 48.166756 C 25.032848 47.245247 23.734924 47.985058 23.72983 49.819019 C 23.724169 51.652416 25.013603 53.886002 26.609829 54.80751 C 28.20549 55.729019 29.503981 54.989773 29.509075 53.155247 C 29.51417 51.32185 28.224169 49.088264 26.62851 48.166756"/>
                                <path id="Fill-22" fill="#cecdcc" stroke="none" d="M 26.623528 50.051716 C 25.882019 49.623791 25.278622 49.967945 25.276358 50.819263 C 25.274094 51.671719 25.873528 52.709831 26.614471 53.138321 C 27.356546 53.566246 27.959377 53.22266 27.962208 52.370773 C 27.964472 51.518322 27.365602 50.480209 26.623528 50.051716"/>
                                <path id="Fill-24" fill="#551212" stroke="none" d="M 57.565418 54.569546 L 56.382965 52.577095 L 56.379566 52.579357 L 56.382965 37.349548 L 42.681454 45.312 L 42.67749 60.548603 L 42.681454 60.546906 L 42.67749 61.848228 Z"/>
                                <path id="Fill-26" fill="#2c2c2c" stroke="none" d="M 49.206451 59.953529 C 49.680794 59.678436 50.319851 59.685795 51.030228 60.031075 C 51.106644 60.068436 51.184189 60.109188 51.262867 60.154472 C 52.294189 60.750511 53.197586 61.894474 53.705887 63.123905 C 53.984379 63.79636 54.145134 64.49485 54.143436 65.144096 C 54.140606 66.054283 53.818531 66.695602 53.299473 66.997299 L 51.342113 68.134476 C 51.861172 67.833344 52.183247 67.192017 52.185509 66.281265 C 52.187775 65.632584 52.02702 64.934097 51.748528 64.261078 C 51.240227 63.031075 50.33683 61.88768 49.305511 61.29221 C 49.22683 61.246925 49.149284 61.206169 49.072304 61.168247 C 48.362492 60.823528 47.723434 60.815605 47.249096 61.091267 L 49.206451 59.953529 Z"/>
                                <path id="Fill-28" fill="#551212" stroke="none" d="M 49.305397 61.29232 C 47.709736 60.370811 46.411247 61.111191 46.406151 62.944588 C 46.401058 64.777985 47.690491 67.011566 49.286716 67.933075 C 50.882378 68.854584 52.180302 68.115341 52.185398 66.280807 C 52.191055 64.447418 50.901058 62.213833 49.305397 61.29232"/>
                                <path id="Fill-30" fill="#cecdcc" stroke="none" d="M 49.300415 63.070019 C 48.558338 62.641529 47.955509 62.98568 47.952679 63.837566 C 47.950417 64.689453 48.54985 65.72757 49.291359 66.156059 C 50.032867 66.583984 50.636265 66.240402 50.638527 65.388512 C 50.640793 64.536057 50.041924 63.497944 49.300415 63.070019"/>
                                <path id="Fill-32" fill="#e9e8e7" stroke="none" d="M 45.265755 48.193867 L 45.251602 53.204433 L 54.33934 58.456135 L 52.063301 52.118774 Z"/>
                                <path id="Fill-34" fill="#551212" stroke="none" d="M 66.685585 56.237774 L 65.662186 53.628338 L 65.660492 53.628906 L 65.661621 53.628338 L 62.844456 45.821548 L 52.534641 51.812492 L 55.352943 59.619286 L 56.375774 62.229282 L 56.367283 68.226456 L 66.676529 62.235512 Z"/>
                                <path id="Fill-36" fill="#e9e8e7" stroke="none" d="M 65.286568 53.443527 L 62.567886 46.384472 L 52.910717 51.996735 L 55.62883 59.055794 Z"/>
                                <path id="Fill-38" fill="#cecdcc" stroke="none" d="M 35.190907 25.052658 L 21.489395 33.015114 L 42.681282 45.311718 L 56.382793 37.349831 Z"/>
                                <path id="Fill-40" fill="#cecdcc" stroke="none" d="M 55.10672 41.353867 L 44.796906 47.34481 L 52.534641 51.812546 L 62.844456 45.821602 Z"/>
                                <path id="Fill-42" fill="#ac2121" stroke="none" d="M 21.489395 33.015339 L 21.485434 48.251942 L 21.489395 48.254208 L 21.485434 49.551567 L 42.677887 61.848171 L 42.681282 60.540623 L 42.677887 60.538361 L 42.681282 45.311943 Z"/>
                                <path id="Fill-44" fill="#ac2121" stroke="none" d="M 45.251377 53.204208 L 45.26553 48.193642 L 52.063076 52.118546 L 54.33968 58.455906 L 45.251377 53.204208 Z M 55.35289 59.619114 L 52.534584 51.812321 L 44.796848 47.344585 L 44.779869 53.509869 L 44.768547 56.506474 L 44.760056 61.481377 L 46.100433 62.25798 C 46.308735 61.186474 47.012321 60.525906 48.008549 60.525906 C 48.479492 60.525906 48.978168 60.675907 49.490433 60.971943 C 51.131378 61.918926 52.429302 64.07666 52.546471 65.991562 L 56.367794 68.226288 L 56.375717 62.229115 L 55.35289 59.619114 Z"/>
                                <path id="Fill-46" fill="#2c2c2c" stroke="none" d="M 59.130341 64.706268 L 64.672417 61.506454 L 64.672417 63.264 L 59.130341 66.480225 Z"/>
                                <path id="Fill-48" fill="#cecdcc" stroke="none" d="M 53.877907 56.413017 L 52.971115 56.147549 L 53.314133 56.347359 L 54.22036 56.612831 Z"/>
                                <path id="Fill-50" fill="#cecdcc" stroke="none" d="M 52.783981 55.682831 C 52.665115 55.613773 52.50153 55.623398 52.320961 55.727547 L 51.120964 56.420376 C 51.089264 56.438492 51.057568 56.459435 51.027 56.482643 C 50.755302 56.685284 50.537945 57.049812 50.484737 57.387737 C 50.476246 57.44038 50.471718 57.493019 50.472282 57.543964 C 50.472851 57.75 50.545303 57.894905 50.663036 57.96283 L 51.005489 58.162643 C 50.888321 58.094719 50.815304 57.949814 50.814735 57.743774 C 50.814735 57.692833 50.819263 57.64019 50.827755 57.586983 C 50.880962 57.249622 51.097755 56.883965 51.369453 56.681889 C 51.400585 56.659245 51.431717 56.637737 51.464546 56.619057 L 52.663982 55.926792 C 52.843983 55.822643 53.008133 55.812454 53.126434 55.882076 L 52.783981 55.682831 Z"/>
                                <path id="Fill-52" fill="#551212" stroke="none" d="M 51.463924 56.619225 C 51.105057 56.826962 50.814114 57.331303 50.815247 57.743378 C 50.815811 58.158283 51.109585 58.325264 51.468452 58.117531 L 52.667889 57.425266 C 52.921471 57.27866 53.138264 56.984886 53.244682 56.682056 L 54.07336 56.922623 L 54.220528 56.612434 L 53.314304 56.347527 L 53.317135 56.299416 C 53.315434 55.886208 53.022793 55.719791 52.663925 55.926395 L 51.463924 56.619225 Z"/>
                                <path id="Fill-54" fill="#ac2121" stroke="none" d="M 64.15947 59.753433 C 64.15947 60.410038 64.691544 60.635323 65.348717 60.256077 L 65.385506 60.234566 C 66.042679 59.85532 66.575317 59.01532 66.575317 58.358719 C 66.575317 57.70155 66.042679 57.47683 65.385506 57.855511 L 65.348717 57.877586 C 64.691544 58.256264 64.15947 59.096832 64.15947 59.753433"/>
                                <path id="Fill-56" fill="#cecdcc" stroke="none" d="M 64.754776 60.223812 C 64.896851 60.223812 65.064392 60.17004 65.239868 60.068718 L 65.277794 60.047207 C 65.86364 59.708717 66.358925 58.936077 66.358925 58.358719 C 66.358925 58.143623 66.293266 57.887775 65.979675 57.887775 C 65.837601 57.887775 65.669487 57.941547 65.494019 58.04287 L 65.456657 58.064945 C 64.870811 58.40287 64.375526 59.176075 64.375526 59.753433 C 64.375526 59.967964 64.441185 60.223812 64.754776 60.223812"/>
                                <path id="Fill-58" fill="#ac2121" stroke="none" d="M 56.584812 64.165642 C 56.584812 64.82225 57.11689 65.047531 57.774059 64.668289 L 57.810852 64.647339 C 58.467453 64.267532 59.00066 63.427528 59.00066 62.770924 C 59.00066 62.114323 58.467453 61.889606 57.810852 62.268284 L 57.774059 62.289795 C 57.11689 62.669037 56.584812 63.509037 56.584812 64.165642"/>
                                <path id="Fill-60" fill="#cecdcc" stroke="none" d="M 57.180172 64.636017 C 57.321682 64.636017 57.489792 64.582245 57.665264 64.481491 L 57.70319 64.459412 C 58.28904 64.12149 58.783756 63.348286 58.783756 62.770924 C 58.783756 62.555832 58.718662 62.300549 58.40451 62.300549 C 58.263 62.300549 58.094887 62.354321 57.919415 62.455643 L 57.881493 62.47715 C 57.296207 62.815075 56.800926 63.588284 56.800926 64.165642 C 56.800926 64.380173 56.866585 64.636017 57.180172 64.636017"/>
                            </g>
                        </g>
                    </g>
                </g>
            </g>
        </g>
    </g>
</svg>
