<svg width="96" height="65" viewBox="0 0 96 65" fill="none" xmlns="http://www.w3.org/2000/svg">
<rect width="96" height="64" transform="translate(0 0.690002)" fill="white"/>
<g clip-path="url(#clip0_6744_65299)">
<path d="M83.9996 51.7264C83.883 52.0324 83.6968 52.3072 83.4557 52.5288C83.2145 52.7504 82.925 52.9129 82.6102 53.0032C81.7495 53.2435 80.8359 53.215 79.9918 52.9217C79.9324 52.912 79.8789 52.8802 79.8418 52.8328C79.8048 52.7853 79.7871 52.7257 79.7921 52.6657C79.7921 52.3339 79.7921 52.002 79.7921 51.5942C80.3354 52.0086 81.0121 52.2088 81.6934 52.1567C81.8685 52.1502 82.0414 52.115 82.2052 52.0526C82.3134 52.0206 82.4103 51.9584 82.4844 51.8732C82.5585 51.7881 82.6068 51.6836 82.6236 51.572C82.6405 51.4604 82.6251 51.3464 82.5794 51.2432C82.5337 51.14 82.4595 51.052 82.3655 50.9895C82.1961 50.8633 82.0057 50.7681 81.803 50.7082C81.4072 50.5784 81.0233 50.4147 80.6555 50.2189C79.5305 49.586 79.4968 48.1517 80.5937 47.4907C81.5049 46.9423 82.4865 46.9788 83.4793 47.2545C83.7015 47.3163 83.6677 47.4795 83.6649 47.637C83.6649 47.8929 83.7521 48.2389 83.6227 48.3767C83.4934 48.5145 83.2149 48.2332 82.9871 48.1798C82.5228 48.0322 82.0228 48.041 81.564 48.2051C81.4471 48.2431 81.3448 48.3162 81.2708 48.4143C81.1969 48.5125 81.1549 48.631 81.1506 48.7538C81.1463 48.8766 81.1799 48.9978 81.2468 49.1009C81.3137 49.204 81.4107 49.284 81.5246 49.3301C81.7805 49.4482 82.0421 49.5495 82.3065 49.6479C83.0799 49.9292 83.7634 50.3173 83.994 51.192L83.9996 51.7264Z" fill="#0078D3"/>
<path d="M29.2461 52.2074C28.971 52.6391 28.5465 52.9545 28.0536 53.0933C26.5883 53.4392 25.5224 52.6742 25.438 51.1245C25.3705 49.8899 25.4211 48.6495 25.4127 47.412C25.4127 47.2377 25.469 47.1899 25.6433 47.1786C26.7683 47.097 26.7515 47.0942 26.7683 48.1939C26.7683 49.0939 26.7683 49.9967 26.8021 50.8967C26.8358 51.6336 27.2099 52.0217 27.8258 52.078C28.1452 52.1155 28.467 52.0316 28.7274 51.843C28.9879 51.6545 29.168 51.3749 29.2321 51.0599C29.2774 50.8644 29.3001 50.6643 29.2996 50.4636C29.2996 49.468 29.2996 48.4724 29.2996 47.4767C29.2996 47.2489 29.3643 47.1955 29.5808 47.1786C30.644 47.1533 30.6411 47.1449 30.6411 48.2024C30.6411 49.6817 30.6411 51.1611 30.6411 52.6405C30.6411 52.9386 30.5736 53.0736 30.2643 53.0145C30.224 53.0114 30.1836 53.0114 30.1433 53.0145C29.8621 53.0145 29.5583 53.0877 29.3558 52.9695C29.1533 52.8514 29.3305 52.5083 29.2461 52.2074Z" fill="#0078D3"/>
<path d="M22.834 48.2388C21.9453 48.2388 21.1465 48.2248 20.3309 48.2388C20.0215 48.2388 19.9428 48.1517 19.9484 47.8535C19.9484 47.1813 19.9484 47.1813 20.6347 47.1813C21.8187 47.1813 23.0028 47.1813 24.1868 47.1813C24.3443 47.1813 24.5806 47.0717 24.6509 47.2798C24.6879 47.3881 24.6967 47.5041 24.6765 47.6167C24.6563 47.7294 24.6078 47.8351 24.5356 47.9238C24.1081 48.4863 23.6918 49.0488 23.2812 49.6113L21.5403 51.9626C22.4965 51.9626 23.3768 51.9795 24.26 51.9626C24.5862 51.9626 24.665 52.0554 24.6565 52.3676C24.6368 53.0229 24.6565 53.0229 23.9956 53.0229H20.0806C19.6447 53.0229 19.5181 52.7923 19.7403 52.4098C19.8499 52.2407 19.9682 52.0774 20.0947 51.9204L22.5837 48.5932C22.6568 48.4864 22.7215 48.3963 22.834 48.2388Z" fill="#0078D3"/>
<path d="M61.2561 51.7968C61.7201 50.3905 62.1955 48.9674 62.6623 47.5386C62.7411 47.2911 62.8311 47.1421 63.1264 47.1843C63.4639 47.2321 63.9167 47.038 64.1051 47.2771C64.2148 47.4149 63.928 47.8761 63.807 48.1883C63.2276 49.6902 62.6426 51.1893 62.0717 52.6883C61.9845 52.919 61.8889 53.023 61.6217 53.0202C60.4967 53.0202 60.4967 53.0202 60.103 51.9683C59.563 50.4946 59.0258 49.0208 58.4745 47.5527C58.362 47.2518 58.4014 47.173 58.7389 47.1758C59.8048 47.1758 59.8048 47.1758 60.1283 48.194L61.2561 51.7968Z" fill="#0078D3"/>
<path d="M33.4372 48.267C33.7606 47.6398 34.0981 47.1898 34.7478 47.0998C35.3975 47.0098 35.4819 47.0998 35.4819 47.7186C35.4819 47.758 35.4819 47.8002 35.4819 47.8395C35.4819 48.0139 35.5353 48.2445 35.4481 48.3486C35.3609 48.4527 35.1416 48.2895 34.9756 48.2755C34.754 48.2484 34.5293 48.2832 34.3262 48.3761C34.1232 48.4689 33.9498 48.6161 33.8253 48.8014C33.5475 49.2037 33.4083 49.6855 33.4288 50.1739C33.4288 51.0177 33.4147 51.8445 33.4288 52.677C33.4288 52.9583 33.3416 53.0286 33.0659 53.0286C32.0703 53.0286 32.0703 53.0286 32.0703 52.0217C32.0703 50.5395 32.0703 49.0602 32.0703 47.578C32.0703 47.2489 32.1716 47.1786 32.4781 47.1814C33.4147 47.1955 33.4147 47.1842 33.4372 48.267Z" fill="#0078D3"/>
<path d="M72.2771 48.357C72.1281 46.8101 71.4728 45.5445 69.9681 44.982C68.4634 44.4195 66.9531 44.5742 65.7071 45.7104C64.6271 46.6948 64.374 48.0167 64.464 49.406C64.5653 50.9501 65.2065 52.2185 66.6999 52.8204C68.1934 53.4223 69.6981 53.307 70.9806 52.2101C71.9959 51.341 72.2799 50.1457 72.2799 48.866C72.2799 48.7057 72.294 48.5285 72.2771 48.357ZM70.7528 49.9967C70.4715 51.1554 69.6699 51.8839 68.5449 51.9654C68.0045 52.0128 67.4644 51.8701 67.0177 51.5621C66.5711 51.2541 66.2459 50.8 66.0981 50.2779C65.763 49.3276 65.8083 48.2846 66.2246 47.367C66.426 46.9004 66.7727 46.5115 67.2132 46.258C67.6536 46.0046 68.1642 45.9003 68.6687 45.9607C69.1758 46.0061 69.6538 46.2171 70.029 46.5612C70.4041 46.9054 70.6555 47.3635 70.7443 47.8648C70.8148 48.2359 70.8552 48.6122 70.8653 48.9898C70.8494 49.3275 70.8118 49.6638 70.7528 49.9967Z" fill="#0078D3"/>
<path d="M52.1014 48.4864C52.0283 46.6273 51.0383 45.4123 49.2214 45.0157C47.9698 44.7345 46.6902 44.906 45.4414 44.8582C45.1602 44.8582 45.2305 45.041 45.2305 45.1873C45.2305 46.4379 45.2305 47.6895 45.2305 48.942C45.2305 50.1795 45.2305 51.417 45.2305 52.6573C45.2305 52.9217 45.2698 53.0398 45.5736 53.0285C46.3133 53.006 47.053 53.0285 47.7927 53.0285C48.7128 53.0324 49.6141 52.7675 50.3858 52.2664C51.7133 51.3495 52.1605 50.0417 52.1014 48.4864ZM50.6108 49.6114C50.5294 50.1894 50.2541 50.7227 49.8299 51.1238C49.4058 51.5249 48.8581 51.7701 48.2764 51.8192C47.8208 51.8726 47.3652 51.8726 46.9095 51.8867C46.6508 51.8867 46.5945 51.7967 46.5973 51.5604C46.5973 50.6998 46.5973 49.8392 46.5973 48.9785C46.5973 48.1179 46.5973 47.232 46.5973 46.3573C46.5973 46.1098 46.6705 46.0254 46.918 46.0367C47.5198 46.0648 48.1273 45.9945 48.7236 46.1351C49.212 46.2165 49.6605 46.455 50.0011 46.8143C50.3416 47.1737 50.5557 47.6343 50.6108 48.1264C50.6921 48.6181 50.6911 49.1199 50.608 49.6114H50.6108Z" fill="#0078D3"/>
<path d="M17.0119 45.972C16.8769 45.6064 16.8262 45.1114 16.5591 44.923C16.2919 44.7345 15.8081 44.8864 15.4341 44.8498C15.1359 44.8217 15.0178 44.9483 14.9194 45.2127C14.3709 46.7145 13.7944 48.2052 13.2319 49.7127C12.8241 50.8039 12.4191 51.898 12 53.0258C12.4275 53.0258 12.8184 53.0089 13.2038 53.0258C13.2485 53.0343 13.2945 53.0336 13.339 53.024C13.3836 53.0144 13.4257 52.9959 13.4629 52.9696C13.5002 52.9434 13.5318 52.91 13.5559 52.8713C13.5799 52.8326 13.596 52.7895 13.6031 52.7445C13.7634 52.2327 13.9491 51.7264 14.1066 51.2145C14.1224 51.1243 14.1733 51.0441 14.2481 50.9914C14.323 50.9387 14.4157 50.9178 14.5059 50.9333C15.3666 50.9483 16.2281 50.9483 17.0906 50.9333C17.1807 50.9193 17.2726 50.9408 17.3471 50.9932C17.4216 51.0457 17.4729 51.125 17.49 51.2145C17.6616 51.7377 17.8584 52.2524 18.0328 52.7727C18.0863 52.9302 18.1425 53.0258 18.3338 53.0202C18.75 53.0202 19.1775 53.0202 19.6303 53.0202C18.75 50.6239 17.8781 48.298 17.0119 45.972ZM14.7984 49.8252C14.5172 49.8252 14.6156 49.6789 14.6634 49.5439L15.6562 46.6442C15.69 46.543 15.7238 46.4417 15.7884 46.2477L17.0231 49.8223C16.2441 49.8223 15.5212 49.8195 14.7956 49.8252H14.7984Z" fill="#0078D3"/>
<path d="M78.9381 48.7873C78.7019 47.907 78.1816 47.2742 77.2506 47.0998C76.816 46.9909 76.3585 47.0165 75.9386 47.1732C75.5188 47.3298 75.1564 47.6103 74.8994 47.9773C74.8628 48.028 74.8375 48.1011 74.7503 48.073C74.7278 47.187 74.7278 47.187 73.8334 47.1898H73.7941C73.4847 47.1336 73.4172 47.2686 73.42 47.5639C73.42 49.9602 73.42 52.3452 73.42 54.7555C73.42 55.7117 73.42 55.7005 74.3903 55.7089C74.6716 55.7089 74.7503 55.6302 74.7475 55.3489C74.7306 54.3308 74.7475 53.3127 74.7475 52.2045C74.9756 52.5167 75.2693 52.7749 75.6081 52.9611C75.8997 53.0857 76.2131 53.1514 76.5302 53.1541C76.8473 53.1569 77.1617 53.0968 77.4555 52.9773C77.7492 52.8577 78.0163 52.6812 78.2413 52.4578C78.4664 52.2344 78.6449 51.9686 78.7666 51.6758C79.158 50.7622 79.2187 49.7408 78.9381 48.7873ZM77.4841 51.1808C77.3688 51.5016 77.1391 51.7686 76.8391 51.9305C76.5391 52.0925 76.1899 52.138 75.8584 52.0583C75.54 51.9848 75.2556 51.806 75.0514 51.5508C74.8473 51.2955 74.7352 50.9789 74.7334 50.652C74.7334 50.4917 74.7334 50.3286 74.7334 50.0895C74.6954 49.6815 74.7703 49.2709 74.95 48.9027C75.083 48.6367 75.294 48.4177 75.5549 48.2749C75.8158 48.1322 76.114 48.0725 76.4097 48.1039C76.7073 48.1339 76.987 48.2599 77.2067 48.4628C77.4264 48.6657 77.5741 48.9346 77.6275 49.2289C77.7909 49.8789 77.7366 50.5646 77.4728 51.1808H77.4841Z" fill="#0078D3"/>
<path d="M54.4687 50.4749C55.3968 50.4749 56.3249 50.4749 57.2531 50.4749C58.1812 50.4749 58.1728 50.4749 58.1249 49.558C58.0574 48.2699 57.3543 47.3305 56.2912 47.1139C55.6985 46.9639 55.0728 47.0155 54.5126 47.2604C53.9525 47.5054 53.4898 47.9298 53.1974 48.4667C52.5478 49.6508 52.7165 51.5014 53.5546 52.3705C54.3928 53.2395 56.519 53.4533 57.5456 52.7305C57.5915 52.7041 57.6291 52.6653 57.654 52.6186C57.6789 52.5718 57.69 52.5189 57.6862 52.4661C57.6862 52.1989 57.6862 51.9345 57.6862 51.583C57.2883 51.8287 56.8504 52.0028 56.3924 52.0977C55.2506 52.2917 54.3899 51.7742 54.1959 50.7927C54.1621 50.5452 54.2212 50.4692 54.4687 50.4749ZM55.8271 48.0645C56.1187 48.1262 56.3796 48.2878 56.5645 48.5215C56.7494 48.7553 56.8467 49.0463 56.8396 49.3442C56.8396 49.5186 56.7468 49.5355 56.609 49.5355C56.2321 49.5355 55.8553 49.5355 55.484 49.5355H54.3956C54.2915 49.5355 54.1621 49.558 54.1987 49.378C54.3759 48.5174 55.0312 47.9239 55.8412 48.0617L55.8271 48.0645Z" fill="#0078D3"/>
<path d="M37.4987 50.472C38.3875 50.4917 39.2734 50.472 40.1622 50.472C41.1634 50.472 41.1634 50.472 41.0903 49.4567C41.0087 48.3148 40.4069 47.4655 39.4759 47.1645C38.9558 46.992 38.3961 46.9782 37.8682 47.125C37.3403 47.2717 36.868 47.5724 36.5115 47.9886C35.6087 49.0601 35.5244 50.998 36.3372 52.1398C36.6136 52.5424 37.018 52.8398 37.4847 52.9836C38.447 53.2713 39.4808 53.2014 40.3956 52.7867C40.5194 52.7333 40.6487 52.6854 40.6487 52.5054C40.6487 52.2242 40.6487 51.9261 40.6487 51.552C40.2643 51.821 39.8256 52.0025 39.3634 52.0836C38.2637 52.2748 37.4144 51.7854 37.1894 50.8545C37.119 50.5733 37.164 50.4551 37.4987 50.472ZM37.1837 49.3301C37.231 49.0027 37.3851 48.7 37.6221 48.4691C37.8591 48.2382 38.1658 48.092 38.4944 48.0533C38.6689 48.0436 38.8435 48.0707 39.0069 48.1329C39.1703 48.1951 39.3187 48.291 39.4426 48.4144C39.5665 48.5377 39.663 48.6858 39.7259 48.8489C39.7889 49.012 39.8167 49.1865 39.8078 49.3611C39.7937 49.5467 39.6953 49.5411 39.5715 49.5411H38.4831C38.1062 49.5411 37.7322 49.5411 37.3581 49.5411C37.2006 49.5354 37.1556 49.4933 37.1837 49.3301Z" fill="#0078D3"/>
<path d="M56.2717 16.6911C58.5864 16.2608 60.9039 15.8474 63.2102 15.3917C63.7389 15.2877 63.7108 15.538 63.708 15.898C63.708 20.5442 63.708 25.1896 63.708 29.8339C63.708 31.2824 63.708 32.728 63.708 34.1764C63.7248 34.3569 63.6948 34.5387 63.6209 34.7042C63.547 34.8698 63.4317 35.0134 63.2861 35.1214C61.0248 36.9608 58.7748 38.8171 56.5361 40.6902C56.3911 40.8337 56.2065 40.9305 56.0059 40.9681C55.8054 41.0057 55.5982 40.9824 55.4111 40.9011C51.9377 39.7086 48.4136 38.5499 44.9064 37.3799C44.6898 37.3096 44.4733 37.2421 44.2117 37.1605V40.8927C44.0317 40.9855 43.9698 40.8702 43.8995 40.7858L35.808 31.2233C35.7529 31.149 35.7031 31.071 35.6589 30.9899C35.6332 30.9552 35.6224 30.9117 35.6287 30.869C35.635 30.8263 35.658 30.7878 35.6927 30.7621C36.0189 30.5596 36.3677 30.6299 36.7136 30.6805C42.7436 31.5242 48.7708 32.368 54.8036 33.2117C54.9896 33.2434 55.1775 33.2632 55.3661 33.2708C55.4183 33.2778 55.4714 33.2733 55.5217 33.2577C55.572 33.242 55.6183 33.2156 55.6574 33.1803C55.6965 33.145 55.7274 33.1016 55.748 33.0531C55.7686 33.0046 55.7784 32.9522 55.7767 32.8996C55.7964 32.6661 55.7908 32.4327 55.7908 32.1992C55.7908 27.4874 55.7908 22.7746 55.7908 18.0608C55.7566 17.6839 55.7841 17.3039 55.8723 16.9358C55.9286 16.7502 56.1198 16.753 56.2717 16.6911Z" fill="#0078D3"/>
<path d="M35.4672 30.1264C35.4672 27.1845 35.4672 24.2426 35.4672 21.3008C35.4672 20.8086 35.5966 20.6342 36.0972 20.5414C42.6025 19.3208 49.0994 18.0692 55.6019 16.8317C55.7399 16.8142 55.879 16.8057 56.0181 16.8064L56.2994 16.6911C55.9787 16.7445 55.7847 16.5167 55.5653 16.3564C52.6872 14.2583 49.8091 12.1583 46.9309 10.0564C46.6891 9.8989 46.5147 9.64015 46.1913 9.6739C46.1913 10.5176 46.1716 11.3614 46.2166 12.2051C46.2447 12.703 46.0731 12.9308 45.6062 13.1108C42.4112 14.3342 39.2303 15.5942 36.0437 16.8261C35.6056 16.9823 35.2238 17.2652 34.9469 17.6389C34.0722 18.8173 33.175 19.9789 32.2891 21.1489C32.2891 23.9164 32.2956 26.6839 32.3087 29.4514C32.3087 29.7327 32.2384 30.0139 32.4634 30.2445C33.1694 30.3739 33.8697 30.4892 34.5784 30.6355C34.9497 30.7142 35.38 30.6523 35.6584 31.0095L35.6725 30.8323C35.3969 30.6495 35.4672 30.3739 35.4672 30.1264Z" fill="#0078D3"/>
</g>
<defs>
<clipPath id="clip0_6744_65299">
<rect width="72" height="46.0322" fill="white" transform="translate(12 9.67389)"/>
</clipPath>
</defs>
</svg>
