<svg width="96" height="65" viewBox="0 0 96 65" fill="none" xmlns="http://www.w3.org/2000/svg">
<rect width="96" height="64" transform="translate(0 0.690002)" fill="white"/>
<g clip-path="url(#clip0_6744_65249)">
<path d="M37.9761 22.1276L36.3633 21.71V24.2012L37.9761 24.6044V22.1276Z" fill="#F68D13"/>
<path d="M38.22 21.6956L39.66 21.3356L38.22 20.9612L36.7656 21.3356L38.22 21.6956Z" fill="#F68D13"/>
<path d="M38.4512 22.1276V24.6044L40.064 24.2012V21.71L38.4512 22.1276Z" fill="#F68D13"/>
<path d="M35.8882 25.6123L34.2754 25.1947V27.6859L35.8882 28.1035V25.6123Z" fill="#F68D13"/>
<path d="M36.1321 25.1803L37.5865 24.8203L36.1321 24.4603L34.6777 24.8203L36.1321 25.1803Z" fill="#F68D13"/>
<path d="M36.3633 25.6123V28.1035L37.9761 27.6859V25.1947L36.3633 25.6123Z" fill="#F68D13"/>
<path d="M31.6838 25.6124L30.0566 25.1948V27.686L31.6838 28.1036V25.6124Z" fill="#F68D13"/>
<path d="M31.9134 25.1804L33.3678 24.8204L31.9134 24.4604L30.459 24.8204L31.9134 25.1804Z" fill="#F68D13"/>
<path d="M32.1445 25.6124V28.1036L33.7717 27.686V25.1948L32.1445 25.6124Z" fill="#F68D13"/>
<path d="M33.7717 29.1404L32.1445 28.7228V31.214L33.7717 31.6172V29.1404Z" fill="#F68D13"/>
<path d="M34.0013 28.7084L35.4557 28.3484L34.0013 27.974L32.5469 28.3484L34.0013 28.7084Z" fill="#F68D13"/>
<path d="M34.2324 29.1404V31.6172L35.8596 31.214V28.7228L34.2324 29.1404Z" fill="#F68D13"/>
<path d="M42.1382 22.1276L40.5254 21.71V24.2012L42.1382 24.6044V22.1276Z" fill="#F68D13"/>
<path d="M42.3821 21.6956L43.8221 21.3356L42.3821 20.9612L40.9277 21.3356L42.3821 21.6956Z" fill="#F68D13"/>
<path d="M42.6133 22.1276V24.6044L44.2261 24.2012V21.71L42.6133 22.1276Z" fill="#F68D13"/>
<path d="M42.4712 33.2012L41.996 31.646H39.6056L39.1304 33.2012H37.6328L39.9512 26.6204H41.6504L43.9688 33.2012H42.4712ZM41.6648 30.4796C41.2184 29.0684 40.9736 28.262 40.916 28.0748C40.8584 27.8876 40.8152 27.7436 40.8008 27.6284C40.7 28.0172 40.4264 28.9532 39.9512 30.4652H41.6648V30.4796Z" fill="black"/>
<path d="M51.1687 33.2012H49.5847L48.692 29.7596C48.6632 29.63 48.6056 29.3852 48.5192 28.9964C48.4328 28.6076 48.3895 28.3484 48.3895 28.2188C48.3751 28.3772 48.332 28.6364 48.26 28.9964C48.188 29.3564 48.1304 29.6012 48.0872 29.7596L47.2087 33.2012H45.6247L43.9688 26.6492H45.3367L46.172 30.2204C46.316 30.8828 46.4311 31.4588 46.4887 31.934C46.5031 31.7612 46.5463 31.502 46.6183 31.142C46.6903 30.782 46.7479 30.5084 46.8055 30.3068L47.756 26.6348H49.0663L50.0167 30.3212C50.0599 30.4796 50.1176 30.7388 50.1752 31.07C50.2328 31.4012 50.2904 31.7036 50.3192 31.934C50.348 31.7036 50.3912 31.4156 50.4632 31.0556C50.5352 30.71 50.5927 30.422 50.6359 30.206L51.4712 26.6348H52.8392L51.1687 33.2012Z" fill="black"/>
<path d="M57.5319 31.3724C57.5319 31.9628 57.3159 32.4236 56.8983 32.7692C56.4663 33.1148 55.8759 33.2732 55.1271 33.2732C54.4215 33.2732 53.8023 33.1436 53.2695 32.8844V31.5884C53.7159 31.79 54.0903 31.9196 54.3927 32.006C54.6951 32.0924 54.9831 32.1212 55.2279 32.1212C55.5303 32.1212 55.7607 32.0636 55.9335 31.9484C56.0919 31.8332 56.1783 31.6604 56.1783 31.43C56.1783 31.3004 56.1495 31.1852 56.0775 31.0844C56.0055 30.9836 55.9047 30.8828 55.7607 30.7964C55.6167 30.71 55.3431 30.5516 54.9111 30.35C54.5079 30.1628 54.2055 29.9756 54.0039 29.8028C53.8023 29.63 53.6439 29.4284 53.5287 29.198C53.4135 28.9676 53.3559 28.694 53.3559 28.3916C53.3559 27.8156 53.5575 27.3548 53.9463 27.0236C54.3351 26.6924 54.8823 26.5196 55.5735 26.5196C55.9191 26.5196 56.2359 26.5628 56.5527 26.6348C56.8551 26.7212 57.1863 26.822 57.5175 26.9804L57.0711 28.0604C56.7255 27.9164 56.4375 27.8156 56.2071 27.758C55.9767 27.7004 55.7607 27.6716 55.5303 27.6716C55.2711 27.6716 55.0695 27.7292 54.9255 27.8588C54.7815 27.9884 54.7095 28.1468 54.7095 28.334C54.7095 28.4636 54.7383 28.5644 54.7959 28.6508C54.8535 28.7372 54.9399 28.8236 55.0695 28.91C55.1991 28.9964 55.4871 29.1548 55.9479 29.3708C56.5671 29.6588 56.9847 29.9612 57.2007 30.2492C57.4167 30.5948 57.5319 30.9548 57.5319 31.3724Z" fill="black"/>
<path d="M17.4432 38.8748C17.4432 39.9548 17.1408 40.7756 16.5216 41.3516C15.9024 41.9276 15.024 42.2156 13.8576 42.2156H12V35.6636H14.0592C15.1248 35.6636 15.96 35.9516 16.5504 36.5132C17.1408 37.0748 17.4432 37.8668 17.4432 38.8748ZM15.9888 38.918C15.9888 37.5068 15.3696 36.8012 14.1312 36.8012H13.3824V41.0636H13.9728C15.3264 41.0636 15.9888 40.3436 15.9888 38.918Z" fill="black"/>
<path d="M20.9577 42.302C20.1513 42.302 19.5177 42.086 19.0713 41.6396C18.6105 41.1932 18.3945 40.5596 18.3945 39.7532C18.3945 38.918 18.6105 38.27 19.0281 37.8092C19.4457 37.3484 20.0217 37.118 20.7705 37.118C21.4761 37.118 22.0233 37.3196 22.4265 37.7228C22.8153 38.126 23.0169 38.6876 23.0169 39.3932V40.0556H19.7625C19.7769 40.4444 19.8921 40.7468 20.1081 40.9628C20.3241 41.1788 20.6265 41.294 21.0153 41.294C21.3177 41.294 21.6057 41.2652 21.8649 41.1932C22.1385 41.1356 22.4121 41.0348 22.7145 40.8908V41.942C22.4697 42.0572 22.2249 42.1436 21.9513 42.2156C21.6777 42.2732 21.3465 42.302 20.9577 42.302ZM20.7561 38.0828C20.4681 38.0828 20.2377 38.1692 20.0793 38.3564C19.9209 38.5436 19.8201 38.8028 19.7913 39.134H21.7065C21.7065 38.8028 21.6057 38.5292 21.4473 38.3564C21.2889 38.1692 21.0585 38.0828 20.7561 38.0828Z" fill="black"/>
<path d="M25.3058 42.2156L23.3906 37.2044H24.8162L25.781 40.0556C25.8818 40.4156 25.9538 40.7612 25.9826 41.078H26.0114C26.0258 40.79 26.0978 40.4444 26.213 40.0556L27.1778 37.2044H28.6034L26.6882 42.2156H25.3058Z" fill="black"/>
<path d="M31.5984 42.302C30.792 42.302 30.1584 42.086 29.712 41.6396C29.2512 41.1932 29.0352 40.5596 29.0352 39.7532C29.0352 38.918 29.2512 38.27 29.6688 37.8092C30.0864 37.3484 30.6624 37.118 31.4112 37.118C32.1168 37.118 32.664 37.3196 33.0672 37.7228C33.456 38.126 33.6576 38.6876 33.6576 39.3932V40.0556H30.432C30.4464 40.4444 30.5616 40.7468 30.7776 40.9628C30.9936 41.1788 31.296 41.294 31.6848 41.294C31.9872 41.294 32.2752 41.2652 32.5344 41.1932C32.808 41.1356 33.0816 41.0348 33.384 40.8908V41.942C33.1392 42.0572 32.8944 42.1436 32.6208 42.2156C32.3184 42.2732 31.9872 42.302 31.5984 42.302ZM31.4112 38.0828C31.1232 38.0828 30.8928 38.1692 30.7344 38.3564C30.576 38.5436 30.4752 38.8028 30.4464 39.134H32.3616C32.3616 38.8028 32.2608 38.5292 32.1024 38.3564C31.9296 38.1692 31.6992 38.0828 31.4112 38.0828Z" fill="black"/>
<path d="M36.12 42.2156H34.752V35.246H36.12V42.2156Z" fill="black"/>
<path d="M42.1113 39.6956C42.1113 40.5164 41.8953 41.15 41.4633 41.6108C41.0313 42.0716 40.4409 42.302 39.6633 42.302C39.1881 42.302 38.7561 42.2012 38.3961 41.9852C38.0217 41.7692 37.7481 41.4668 37.5465 41.078C37.3449 40.6892 37.2441 40.2284 37.2441 39.6956C37.2441 38.8748 37.4601 38.2412 37.8921 37.7804C38.3241 37.3196 38.9145 37.1036 39.6921 37.1036C40.1673 37.1036 40.5993 37.2044 40.9593 37.4204C41.3337 37.6364 41.6073 37.9244 41.8089 38.3276C42.0105 38.7164 42.1113 39.1772 42.1113 39.6956ZM38.6409 39.6956C38.6409 40.1852 38.7273 40.5596 38.8857 40.8188C39.0441 41.078 39.3177 41.1932 39.6777 41.1932C40.0377 41.1932 40.3113 41.0636 40.4697 40.8188C40.6281 40.574 40.7145 40.1852 40.7145 39.6956C40.7145 39.206 40.6281 38.8316 40.4697 38.5868C40.3113 38.342 40.0377 38.2124 39.6777 38.2124C39.3177 38.2124 39.0441 38.342 38.8857 38.5868C38.7273 38.8316 38.6409 39.206 38.6409 39.6956Z" fill="black"/>
<path d="M45.9848 42.302C45.3944 42.302 44.9336 42.086 44.6024 41.654H44.5304C44.5736 42.0716 44.6024 42.3164 44.6024 42.374V44.4044H43.2344V37.19H44.3432L44.5304 37.838H44.588C44.9048 37.3484 45.38 37.0892 46.0136 37.0892C46.604 37.0892 47.0648 37.3196 47.396 37.7804C47.7272 38.2412 47.9 38.8748 47.9 39.6812C47.9 40.214 47.828 40.6748 47.6696 41.078C47.5112 41.4812 47.2952 41.7692 46.9928 41.9852C46.7192 42.2012 46.388 42.302 45.9848 42.302ZM45.5816 38.198C45.2504 38.198 44.9912 38.2988 44.8472 38.5148C44.6888 38.7164 44.6168 39.062 44.6024 39.5372V39.6812C44.6024 40.214 44.6888 40.6028 44.8472 40.8332C45.0056 41.0636 45.2648 41.1788 45.6104 41.1788C46.2296 41.1788 46.532 40.6748 46.532 39.6668C46.532 39.1772 46.46 38.8028 46.3016 38.558C46.1432 38.3276 45.9128 38.198 45.5816 38.198Z" fill="black"/>
<path d="M51.3112 42.302C50.5048 42.302 49.8712 42.086 49.4248 41.6396C48.964 41.1932 48.748 40.5596 48.748 39.7532C48.748 38.918 48.964 38.27 49.3816 37.8092C49.7992 37.3484 50.3752 37.118 51.124 37.118C51.8296 37.118 52.3768 37.3196 52.78 37.7228C53.1688 38.126 53.3704 38.6876 53.3704 39.3932V40.0556H50.1448C50.1592 40.4444 50.2744 40.7468 50.4904 40.9628C50.7064 41.1788 51.0088 41.294 51.3976 41.294C51.7 41.294 51.988 41.2652 52.2472 41.1932C52.5208 41.1356 52.7944 41.0348 53.0968 40.8908V41.942C52.852 42.0572 52.6072 42.1436 52.3336 42.2156C52.0312 42.2732 51.7 42.302 51.3112 42.302ZM51.124 38.0828C50.836 38.0828 50.6056 38.1692 50.4472 38.3564C50.2888 38.5436 50.188 38.8028 50.1592 39.134H52.0744C52.0744 38.8028 51.9736 38.5292 51.8152 38.3564C51.6424 38.1692 51.412 38.0828 51.124 38.0828Z" fill="black"/>
<path d="M57.2584 37.1036C57.4456 37.1036 57.604 37.118 57.7192 37.1468L57.6184 38.4284C57.5032 38.3996 57.3736 38.3852 57.2152 38.3852C56.7832 38.3852 56.4376 38.5004 56.1928 38.7164C55.948 38.9468 55.8328 39.2492 55.8328 39.6524V42.2012H54.4648V37.19H55.5016L55.7032 38.0396H55.7752C55.9336 37.7516 56.1352 37.5356 56.4088 37.3628C56.668 37.19 56.956 37.1036 57.2584 37.1036Z" fill="black"/>
<path d="M63.6524 42.2156H62.27V36.8156H60.4844V35.6636H65.438V36.8156H63.6524V42.2156Z" fill="black"/>
<path d="M70.8965 39.6956C70.8965 40.5164 70.6805 41.15 70.2485 41.6108C69.8165 42.0716 69.2261 42.302 68.4485 42.302C67.9733 42.302 67.5413 42.2012 67.1813 41.9852C66.8069 41.7692 66.5333 41.4668 66.3317 41.078C66.1301 40.6892 66.0293 40.2284 66.0293 39.6956C66.0293 38.8748 66.2453 38.2412 66.6773 37.7804C67.1093 37.3196 67.6997 37.1036 68.4773 37.1036C68.9525 37.1036 69.3845 37.2044 69.7445 37.4204C70.1189 37.6364 70.3925 37.9244 70.5941 38.3276C70.7957 38.7164 70.8965 39.1772 70.8965 39.6956ZM67.4261 39.6956C67.4261 40.1852 67.5125 40.5596 67.6709 40.8188C67.8293 41.078 68.1029 41.1932 68.4629 41.1932C68.8229 41.1932 69.0965 41.0636 69.2549 40.8188C69.4133 40.574 69.4997 40.1852 69.4997 39.6956C69.4997 39.206 69.4133 38.8316 69.2549 38.5868C69.0965 38.342 68.8229 38.2124 68.4629 38.2124C68.1029 38.2124 67.8293 38.342 67.6709 38.5868C67.5125 38.8316 67.4261 39.206 67.4261 39.6956Z" fill="black"/>
<path d="M76.5703 39.6956C76.5703 40.5164 76.3543 41.15 75.9223 41.6108C75.4903 42.0716 74.8999 42.302 74.1223 42.302C73.6471 42.302 73.2151 42.2012 72.8551 41.9852C72.4807 41.7692 72.2071 41.4668 72.0055 41.078C71.8039 40.6892 71.7031 40.2284 71.7031 39.6956C71.7031 38.8748 71.9191 38.2412 72.3511 37.7804C72.7831 37.3196 73.3735 37.1036 74.1511 37.1036C74.6263 37.1036 75.0583 37.2044 75.4183 37.4204C75.7927 37.6364 76.0663 37.9244 76.2679 38.3276C76.4695 38.7164 76.5703 39.1772 76.5703 39.6956ZM73.1143 39.6956C73.1143 40.1852 73.2007 40.5596 73.3591 40.8188C73.5175 41.078 73.7911 41.1932 74.1511 41.1932C74.5111 41.1932 74.7847 41.0636 74.9431 40.8188C75.1015 40.5596 75.1879 40.1852 75.1879 39.6956C75.1879 39.206 75.1015 38.8316 74.9431 38.5868C74.7847 38.342 74.5111 38.2124 74.1511 38.2124C73.7911 38.2124 73.5175 38.342 73.3591 38.5868C73.1863 38.8316 73.1143 39.206 73.1143 39.6956Z" fill="black"/>
<path d="M79.075 42.2156H77.707V35.246H79.075V42.2156Z" fill="black"/>
<path d="M84.0008 40.7324C84.0008 41.2508 83.828 41.6396 83.468 41.9132C83.108 42.1868 82.5752 42.3164 81.8696 42.3164C81.5096 42.3164 81.1928 42.2876 80.9336 42.2444C80.6744 42.2012 80.4296 42.1292 80.2136 42.0284V40.9052C80.4728 41.0204 80.7608 41.1212 81.0776 41.2076C81.3944 41.294 81.6824 41.3228 81.9128 41.3228C82.4024 41.3228 82.6616 41.1788 82.6616 40.8908C82.6616 40.79 82.6328 40.6892 82.5608 40.6316C82.4888 40.5596 82.388 40.4876 82.2152 40.4012C82.0568 40.3148 81.8408 40.214 81.5672 40.0988C81.1784 39.9404 80.9048 39.782 80.7176 39.6524C80.5304 39.5228 80.4008 39.3644 80.3288 39.1772C80.2424 39.0044 80.1992 38.774 80.1992 38.5148C80.1992 38.0684 80.372 37.7228 80.7176 37.478C81.0632 37.2332 81.5528 37.118 82.1864 37.118C82.7912 37.118 83.3816 37.2476 83.9432 37.5068L83.5256 38.486C83.2808 38.3852 83.036 38.2844 82.82 38.2268C82.604 38.1692 82.3736 38.126 82.1576 38.126C81.7544 38.126 81.5528 38.2412 81.5528 38.4572C81.5528 38.5868 81.6248 38.6876 81.7544 38.774C81.884 38.8604 82.172 38.99 82.604 39.1772C82.9928 39.3356 83.2808 39.4796 83.468 39.6236C83.6552 39.7676 83.7848 39.926 83.8712 40.0988C83.9576 40.2716 84.0008 40.4732 84.0008 40.7324Z" fill="black"/>
</g>
<defs>
<clipPath id="clip0_6744_65249">
<rect width="72" height="23.4576" fill="white" transform="translate(12 20.9612)"/>
</clipPath>
</defs>
</svg>
