<svg width="96" height="65" viewBox="0 0 96 65" fill="none" xmlns="http://www.w3.org/2000/svg">
<rect width="96" height="64" transform="translate(0 0.690002)" fill="white"/>
<g clip-path="url(#clip0_6744_65317)">
<path d="M24.4843 29.1548L25.1179 29.1692L26.8315 27.4556L26.9179 26.7356C25.5355 25.5404 23.7643 24.806 21.8059 24.806C18.2635 24.806 15.2827 27.2108 14.4043 30.4652C14.5915 30.3356 14.9947 30.4364 14.9947 30.4364L18.4075 29.8748C18.4075 29.8748 18.5803 29.5868 18.6667 29.6012C20.1787 27.9308 22.7275 27.7436 24.4843 29.1548Z" fill="#EA4335"/>
<path d="M29.2223 30.4797C28.8335 29.0397 28.0271 27.7437 26.9039 26.7501L24.4847 29.1549C25.4927 29.9613 26.0687 31.1853 26.0687 32.4669V32.8989C27.2495 32.8989 28.1999 33.8493 28.1999 35.0301C28.1999 36.2109 27.2495 37.1613 26.0687 37.1613H21.8207L21.3887 37.5933V40.1565L21.8207 40.5741H26.0831C29.1359 40.5597 31.6127 38.0829 31.6271 35.0301C31.6127 33.1437 30.6623 31.4733 29.2223 30.4797Z" fill="#4285F4"/>
<path d="M17.5447 40.574H21.8071V37.1612H17.5447C17.2423 37.1612 16.9399 37.0892 16.6663 36.974L16.0471 37.1612L14.3335 38.8748L14.1895 39.4508C15.1543 40.1852 16.3351 40.5884 17.5447 40.574Z" fill="#34A853"/>
<path d="M17.544 29.486C14.4768 29.5004 12 31.9772 12 35.03C12 36.758 12.8064 38.3996 14.2032 39.4508L16.68 36.974C15.9168 36.6284 15.4272 35.8652 15.4272 35.03C15.4272 33.8492 16.3776 32.8988 17.5584 32.8988C18.3936 32.8988 19.1568 33.3884 19.5024 34.1516L21.9792 31.6748C20.9424 30.35 19.344 29.5004 17.544 29.486Z" fill="#FBBC05"/>
<path d="M41.3901 31.9772C40.2237 31.9772 39.2301 31.5596 38.3805 30.7388C37.5453 29.918 37.1133 28.9244 37.1133 27.7724C37.1133 26.6204 37.5309 25.6268 38.3805 24.806C39.2301 23.9852 40.2237 23.5676 41.3901 23.5676C42.4701 23.5532 43.5069 23.9708 44.2701 24.7196L43.4637 25.526C42.9021 24.9932 42.1677 24.6908 41.3901 24.7052C40.5549 24.7052 39.8349 25.0076 39.2445 25.598C38.6685 26.174 38.3517 26.9516 38.3661 27.758C38.3661 28.6076 38.6541 29.3276 39.2445 29.918C39.8061 30.5084 40.5837 30.8252 41.3901 30.8108C42.2397 30.8108 42.9453 30.5372 43.5213 29.9756C43.8525 29.6444 44.0685 29.1548 44.1405 28.5356H41.3901V27.3836H45.2637C45.3069 27.5852 45.3213 27.83 45.3213 28.1036C45.3213 29.2268 44.9901 30.134 44.3277 30.7964C43.5645 31.5884 42.5997 31.9772 41.3901 31.9772ZM50.3901 31.214C49.8573 31.7324 49.2237 31.9772 48.4605 31.9772C47.6973 31.9772 47.0637 31.718 46.5309 31.214C45.9981 30.71 45.7389 30.0476 45.7389 29.2844C45.7389 28.5212 45.9981 27.8732 46.5309 27.3548C47.0637 26.8364 47.6973 26.5916 48.4605 26.5916C49.2237 26.5916 49.8573 26.8508 50.3901 27.3548C50.9229 27.8588 51.1821 28.5212 51.1821 29.2844C51.1821 30.0476 50.9085 30.6956 50.3901 31.214ZM47.3805 30.4508C47.6541 30.7532 48.0429 30.926 48.4605 30.9116C48.8781 30.9116 49.2381 30.7532 49.5405 30.4508C49.8429 30.134 49.9869 29.7452 49.9869 29.27C49.9869 28.7948 49.8429 28.3916 49.5405 28.0892C49.2381 27.7868 48.8781 27.6284 48.4605 27.6284C48.0573 27.6284 47.6541 27.7868 47.3805 28.0892C47.0781 28.3916 46.9341 28.7948 46.9341 29.27C46.9197 29.7452 47.0781 30.134 47.3805 30.4508ZM56.3085 31.214C55.7757 31.7324 55.1421 31.9772 54.3789 31.9772C53.6157 31.9772 52.9821 31.718 52.4493 31.214C51.9165 30.71 51.6573 30.0476 51.6573 29.2844C51.6573 28.5212 51.9165 27.8732 52.4493 27.3548C52.9821 26.8364 53.6157 26.5916 54.3789 26.5916C55.1421 26.5916 55.7757 26.8508 56.3085 27.3548C56.8413 27.8588 57.1005 28.5212 57.1005 29.2844C57.1005 30.0476 56.8413 30.6956 56.3085 31.214ZM53.3133 30.4508C53.5869 30.7532 53.9757 30.926 54.3933 30.9116C54.8109 30.9116 55.1709 30.7532 55.4733 30.4508C55.7757 30.134 55.9197 29.7452 55.9197 29.27C55.9197 28.7948 55.7757 28.3916 55.4733 28.0892C55.1709 27.7868 54.8109 27.6284 54.3933 27.6284C53.9901 27.6284 53.5869 27.7868 53.3133 28.0892C53.0109 28.3916 52.8669 28.7948 52.8669 29.27C52.8525 29.7452 53.0109 30.134 53.3133 30.4508ZM60.2109 34.4108C59.6061 34.4108 59.1021 34.2524 58.6989 33.9212C58.2957 33.6044 57.9933 33.23 57.8205 32.798L58.8573 32.366C58.9725 32.6252 59.1309 32.8556 59.3757 33.0428C59.6205 33.23 59.8941 33.3308 60.2253 33.3308C60.6717 33.3308 61.0317 33.1868 61.2909 32.9276C61.5501 32.654 61.6797 32.2652 61.6797 31.7468V31.358H61.6365C61.3053 31.7612 60.8301 31.9772 60.2109 31.9772C59.5197 31.9772 58.9149 31.718 58.3965 31.1852C57.8925 30.6812 57.6045 29.99 57.6189 29.27C57.6045 28.55 57.8925 27.8588 58.3965 27.3404C58.9149 26.8076 59.5197 26.5484 60.2109 26.5484C60.5133 26.5484 60.8013 26.606 61.0461 26.7212C61.2909 26.8364 61.4925 26.9804 61.6365 27.1532H61.6797V26.7212H62.8029V31.5884C62.8029 32.5388 62.5581 33.2444 62.0829 33.7052C61.5789 34.1948 60.9597 34.4252 60.2109 34.4108ZM60.2973 30.9116C60.7005 30.9116 61.0749 30.7532 61.3341 30.4508C61.6077 30.134 61.7517 29.7452 61.7517 29.2844C61.7517 28.8092 61.6077 28.4204 61.3341 28.1036C61.0749 27.8012 60.7005 27.6284 60.2973 27.6284C59.8797 27.6284 59.5197 27.7868 59.2317 28.1036C58.9437 28.4204 58.7853 28.8092 58.7853 29.2844C58.7853 29.7452 58.9293 30.134 59.2317 30.4508C59.5341 30.7676 59.8797 30.9116 60.2973 30.9116ZM64.8045 23.8556V31.8188H63.6093V23.8556H64.8045ZM68.0589 31.9772C67.2957 31.9772 66.6477 31.718 66.1437 31.1996C65.6253 30.6812 65.3805 30.0332 65.3805 29.27C65.3805 28.478 65.6253 27.83 66.1293 27.326C66.6045 26.8364 67.2525 26.5484 67.9437 26.5628C68.2749 26.5628 68.5773 26.6204 68.8509 26.7356C69.1101 26.8364 69.3549 26.9948 69.5421 27.1964C69.7149 27.3692 69.8589 27.542 69.9885 27.7436C70.0893 27.9164 70.1757 28.0892 70.2621 28.2764L70.3917 28.5788L66.7773 30.0764C67.0509 30.6236 67.4973 30.8972 68.0877 30.8972C68.6349 30.8972 69.0813 30.6524 69.4269 30.1484L70.3485 30.7676C70.1469 31.07 69.8589 31.358 69.4701 31.6028C69.0669 31.862 68.6061 31.9772 68.0589 31.9772ZM66.5469 29.1836L68.9661 28.1756C68.8941 28.0028 68.7789 27.8588 68.5773 27.758C68.3901 27.6572 68.1741 27.5996 67.9581 27.5996C67.6125 27.5996 67.2813 27.7436 66.9789 28.0316C66.6765 28.334 66.5325 28.7084 66.5469 29.1836Z" fill="#5F6368"/>
<path d="M41.2323 38.1404C41.2323 38.8604 41.0307 39.4076 40.6419 39.782C40.2387 40.1564 39.6771 40.3436 38.9283 40.3436H37.7188V36.0092H39.0579C39.7491 36.0092 40.282 36.1964 40.6708 36.5708C41.0308 36.9452 41.2323 37.4636 41.2323 38.1404ZM40.4835 38.1692C40.4835 37.1324 39.9939 36.614 39.0291 36.614H38.4099V39.7676H38.9139C39.9507 39.7532 40.4835 39.2204 40.4835 38.1692Z" fill="#5F6368"/>
<path d="M43.5217 40.4156C43.0177 40.4156 42.6145 40.2716 42.3265 39.9692C42.0385 39.6668 41.8945 39.2636 41.8945 38.7452C41.8945 38.2124 42.0241 37.7948 42.2977 37.478C42.5713 37.1756 42.9313 37.0172 43.3921 37.0172C43.8241 37.0172 44.1697 37.1468 44.4145 37.406C44.6593 37.6652 44.7889 38.0252 44.7889 38.486V38.8604H42.6001C42.6145 39.1772 42.7009 39.422 42.8593 39.5948C43.0177 39.7676 43.2481 39.854 43.5505 39.854C43.7377 39.854 43.9249 39.8396 44.0977 39.7964C44.2705 39.7532 44.4433 39.6956 44.6305 39.6092V40.1708C44.4577 40.2572 44.2849 40.3148 44.1121 40.3436C43.9393 40.4012 43.7377 40.4156 43.5217 40.4156ZM43.3921 37.5356C43.1761 37.5356 42.9889 37.6076 42.8593 37.7516C42.7297 37.8956 42.6433 38.0972 42.6145 38.3708H44.1121C44.1121 38.0972 44.0401 37.8956 43.9105 37.7516C43.7809 37.6076 43.6081 37.5356 43.3921 37.5356Z" fill="#5F6368"/>
<path d="M46.3309 40.358L45.0781 37.0748H45.8125L46.4749 38.99C46.5901 39.3068 46.6621 39.566 46.6765 39.7676H46.7053C46.7197 39.6236 46.7917 39.3644 46.9069 38.99L47.5693 37.0748H48.3181L47.0653 40.358H46.3309Z" fill="#5F6368"/>
<path d="M50.2756 40.4156C49.7716 40.4156 49.3684 40.2716 49.0804 39.9692C48.7924 39.6668 48.6484 39.2636 48.6484 38.7452C48.6484 38.2124 48.778 37.7948 49.0516 37.478C49.3252 37.1756 49.6852 37.0172 50.146 37.0172C50.578 37.0172 50.9236 37.1468 51.1684 37.406C51.4132 37.6652 51.5428 38.0252 51.5428 38.486V38.8604H49.354C49.3684 39.1772 49.4548 39.422 49.6132 39.5948C49.7716 39.7676 50.002 39.854 50.3044 39.854C50.4916 39.854 50.6788 39.8396 50.8516 39.7964C51.0244 39.7532 51.1972 39.6956 51.3844 39.6092V40.1708C51.2116 40.2572 51.0388 40.3148 50.866 40.3436C50.6932 40.4012 50.4916 40.4156 50.2756 40.4156ZM50.146 37.5356C49.93 37.5356 49.7428 37.6076 49.6132 37.7516C49.4836 37.8956 49.3972 38.0972 49.3684 38.3708H50.8516C50.8516 38.0972 50.7796 37.8956 50.65 37.7516C50.5348 37.6076 50.362 37.5356 50.146 37.5356Z" fill="#5F6368"/>
<path d="M53.0408 40.358H52.3496V35.7356H53.0408V40.358Z" fill="#5F6368"/>
<path d="M56.9424 38.702C56.9424 39.2348 56.7984 39.6524 56.5248 39.9548C56.2512 40.2572 55.8624 40.4012 55.3728 40.4012C55.0704 40.4012 54.7968 40.3292 54.5664 40.1996C54.336 40.0556 54.1488 39.8684 54.0192 39.6092C53.8896 39.35 53.832 39.0476 53.832 38.702C53.832 38.1692 53.9616 37.7516 54.2352 37.4492C54.5088 37.1468 54.8976 37.0028 55.3872 37.0028C55.8624 37.0028 56.2368 37.1612 56.5104 37.4636C56.8128 37.7804 56.9424 38.1836 56.9424 38.702ZM54.552 38.702C54.552 39.4652 54.8256 39.8396 55.3872 39.8396C55.9344 39.8396 56.2224 39.4652 56.2224 38.702C56.2224 37.9532 55.9488 37.5788 55.3872 37.5788C55.0992 37.5788 54.8832 37.6796 54.7536 37.8668C54.624 38.0684 54.552 38.342 54.552 38.702Z" fill="#5F6368"/>
<path d="M59.4197 40.4156C59.0021 40.4156 58.6853 40.2716 58.4549 39.9692H58.4117C58.4405 40.2428 58.4549 40.4156 58.4549 40.4732V41.8124H57.7637V37.0748H58.3253C58.3397 37.1324 58.3685 37.2764 58.4261 37.5068H58.4549C58.6709 37.1756 59.0021 37.0028 59.4341 37.0028C59.8373 37.0028 60.1685 37.1468 60.3845 37.4492C60.6149 37.7516 60.7301 38.1692 60.7301 38.702C60.7301 39.2348 60.6149 39.6524 60.3845 39.9548C60.1397 40.2572 59.8229 40.4156 59.4197 40.4156ZM59.2469 37.5788C58.9733 37.5788 58.7717 37.6652 58.6421 37.8236C58.5125 37.982 58.4549 38.2412 58.4549 38.6012V38.702C58.4549 39.1052 58.5125 39.3932 58.6421 39.566C58.7717 39.7388 58.9733 39.8396 59.2613 39.8396C59.5061 39.8396 59.6933 39.7388 59.8229 39.5372C59.9525 39.3356 60.0245 39.062 60.0245 38.6876C60.0245 38.3132 59.9525 38.0396 59.8373 37.8524C59.6789 37.6796 59.4917 37.5788 59.2469 37.5788Z" fill="#5F6368"/>
<path d="M62.9612 40.4156C62.4572 40.4156 62.054 40.2716 61.766 39.9692C61.478 39.6668 61.334 39.2636 61.334 38.7452C61.334 38.2124 61.4636 37.7948 61.7372 37.478C62.0108 37.1756 62.3708 37.0172 62.8316 37.0172C63.2636 37.0172 63.6092 37.1468 63.854 37.406C64.0988 37.6652 64.2284 38.0252 64.2284 38.486V38.8604H62.0396C62.054 39.1772 62.1404 39.422 62.2988 39.5948C62.4572 39.7676 62.6876 39.854 62.99 39.854C63.1772 39.854 63.3644 39.8396 63.5372 39.7964C63.71 39.7532 63.8828 39.6956 64.07 39.6092V40.1708C63.8972 40.2572 63.7244 40.3148 63.5516 40.3436C63.3932 40.4012 63.1916 40.4156 62.9612 40.4156ZM62.846 37.5356C62.63 37.5356 62.4428 37.6076 62.3132 37.7516C62.1836 37.8956 62.0972 38.0972 62.0684 38.3708H63.5516C63.5516 38.0972 63.4796 37.8956 63.35 37.7516C63.2348 37.6076 63.062 37.5356 62.846 37.5356Z" fill="#5F6368"/>
<path d="M66.7068 37.0172C66.8508 37.0172 66.966 37.0316 67.0524 37.046L66.9804 37.694C66.8796 37.6652 66.7788 37.6652 66.678 37.6652C66.4044 37.6652 66.174 37.7516 66.0012 37.9388C65.8284 38.126 65.742 38.3564 65.742 38.6444V40.358H65.0508V37.0748H65.598L65.6844 37.6508H65.7132C65.8284 37.4492 65.958 37.3052 66.1452 37.19C66.318 37.0748 66.5052 37.0172 66.7068 37.0172Z" fill="#5F6368"/>
<path d="M70.8095 40.358H70.1039V36.6284H68.8223V36.0236H72.0767V36.6284H70.7951V40.358H70.8095Z" fill="#5F6368"/>
<path d="M75.5909 38.702C75.5909 39.2348 75.4469 39.6524 75.1733 39.9548C74.8997 40.2572 74.5109 40.4012 74.0213 40.4012C73.7189 40.4012 73.4453 40.3292 73.2149 40.1996C72.9845 40.0556 72.7973 39.8684 72.6677 39.6092C72.5381 39.35 72.4805 39.0476 72.4805 38.702C72.4805 38.1692 72.6101 37.7516 72.8837 37.4492C73.1573 37.1468 73.5461 37.0028 74.0357 37.0028C74.5109 37.0028 74.8853 37.1612 75.1589 37.4636C75.4469 37.7804 75.5909 38.1836 75.5909 38.702ZM73.2005 38.702C73.2005 39.4652 73.4741 39.8396 74.0357 39.8396C74.5829 39.8396 74.8709 39.4652 74.8709 38.702C74.8709 37.9532 74.5973 37.5788 74.0357 37.5788C73.7477 37.5788 73.5317 37.6796 73.4021 37.8668C73.2581 38.0684 73.2005 38.342 73.2005 38.702Z" fill="#5F6368"/>
<path d="M79.3057 38.702C79.3057 39.2348 79.1617 39.6524 78.8881 39.9548C78.6145 40.2572 78.2257 40.4012 77.7361 40.4012C77.4337 40.4012 77.1601 40.3292 76.9297 40.1996C76.6993 40.0556 76.5121 39.8684 76.3825 39.6092C76.2529 39.35 76.1953 39.0476 76.1953 38.702C76.1953 38.1692 76.3249 37.7516 76.5985 37.4492C76.8721 37.1468 77.2609 37.0028 77.7505 37.0028C78.2257 37.0028 78.6001 37.1612 78.8737 37.4636C79.1617 37.7804 79.3057 38.1836 79.3057 38.702ZM76.9153 38.702C76.9153 39.4652 77.1889 39.8396 77.7505 39.8396C78.2977 39.8396 78.5857 39.4652 78.5857 38.702C78.5857 37.9532 78.3121 37.5788 77.7505 37.5788C77.4625 37.5788 77.2465 37.6796 77.1169 37.8668C76.9729 38.0684 76.9153 38.342 76.9153 38.702Z" fill="#5F6368"/>
<path d="M80.8045 40.358H80.1133V35.7356H80.8045V40.358Z" fill="#5F6368"/>
<path d="M84.0005 39.422C84.0005 39.7388 83.8853 39.9836 83.6549 40.1564C83.4245 40.3292 83.0933 40.4156 82.6469 40.4156C82.2149 40.4156 81.8549 40.3436 81.5957 40.214V39.6092C81.9845 39.782 82.3445 39.8828 82.6757 39.8828C83.1077 39.8828 83.3237 39.7532 83.3237 39.494C83.3237 39.4076 83.2949 39.3356 83.2517 39.2924C83.2085 39.2348 83.1221 39.1772 83.0213 39.1196C82.9061 39.062 82.7621 38.99 82.5605 38.918C82.1861 38.774 81.9269 38.63 81.7973 38.4716C81.6677 38.3276 81.5957 38.1404 81.5957 37.8956C81.5957 37.6076 81.7109 37.3916 81.9413 37.2476C82.1717 37.0892 82.4741 37.0172 82.8629 37.0172C83.2517 37.0172 83.6117 37.0892 83.9573 37.2476L83.7269 37.766C83.3669 37.622 83.0789 37.55 82.8341 37.55C82.4597 37.55 82.2869 37.6508 82.2869 37.8668C82.2869 37.9676 82.3301 38.054 82.4309 38.126C82.5317 38.198 82.7333 38.2988 83.0645 38.414C83.3381 38.5148 83.5253 38.6156 83.6549 38.702C83.7845 38.7884 83.8709 38.8892 83.9285 39.0044C83.9717 39.1196 84.0005 39.2636 84.0005 39.422Z" fill="#5F6368"/>
</g>
<defs>
<clipPath id="clip0_6744_65317">
<rect width="72" height="18.2448" fill="white" transform="translate(12 23.5676)"/>
</clipPath>
</defs>
</svg>
