<svg width="274" height="258" viewBox="0 0 274 258" fill="none" xmlns="http://www.w3.org/2000/svg">
    <path d="M265.383 244.364L260.561 239.483C264.575 233.528 262.844 229.141 259.398 225.103C257.32 222.67 251.887 223.04 245.213 223.919L208.334 186.61L202.66 188.789C202.66 188.789 218.008 207.926 232.383 225.524C226.412 226.069 220.405 226.076 215.426 224.376C200.532 219.292 188.476 208.398 188.476 208.398C171.454 209.851 196.986 238.176 206.915 246.165C226.774 262.143 237.327 259.238 251.426 248.474C253.958 251.438 255.788 253.478 256.561 254.154L256.71 254.285C263.064 259.688 271.256 250.312 265.383 244.364Z" fill="#CD0101"/>
    <path opacity="0.5" d="M265.384 244.364L260.561 239.483C264.576 233.528 262.845 229.141 259.398 225.103C257.32 222.67 251.888 223.04 245.214 223.919L208.335 186.61L202.661 188.789C202.661 188.789 218.008 207.926 232.384 225.524C226.413 226.069 220.405 226.076 215.427 224.376C200.533 219.292 188.476 208.398 188.476 208.398C171.455 209.851 196.448 238.938 206.916 246.165C230.32 262.303 237.327 259.238 251.427 248.474C253.959 251.438 255.788 253.478 256.561 254.154L256.71 254.285C263.065 259.688 271.256 250.312 265.384 244.364Z" fill="white"/>
    <path d="M40.0455 112.754C40.0455 112.754 58.6979 134.833 58.7972 162.185C58.8965 189.537 40.4143 211.797 40.4143 211.797C40.4143 211.797 21.7618 189.718 21.6625 162.374C21.5632 135.029 40.0455 112.754 40.0455 112.754Z" fill="#CD0101"/>
    <path d="M81.0313 175.316C81.0313 175.316 81.1447 193.292 71.7192 204.716C62.2937 216.14 46.8966 216.692 46.8966 216.692C46.8966 216.692 46.776 198.717 56.2086 187.292C65.6412 175.868 81.0313 175.316 81.0313 175.316Z" fill="#CD0101"/>
    <path d="M0.0170305 173.653C0.0170305 173.653 -0.76311 191.607 8.23688 203.489C17.2369 215.371 32.6057 216.692 32.6057 216.692C32.6057 216.692 33.3787 198.739 24.3787 186.857C15.3787 174.975 0.0170305 173.653 0.0170305 173.653Z" fill="#CD0101"/>
    <g opacity="0.5">
        <path d="M40.0455 112.754C40.0455 112.754 58.6979 134.833 58.7972 162.185C58.8965 189.537 40.4143 211.797 40.4143 211.797C40.4143 211.797 21.7618 189.718 21.6625 162.374C21.5632 135.029 40.0455 112.754 40.0455 112.754Z" fill="white"/>
        <path d="M81.0313 175.316C81.0313 175.316 81.1447 193.292 71.7192 204.716C62.2937 216.14 46.8966 216.692 46.8966 216.692C46.8966 216.692 46.776 198.717 56.2086 187.292C65.6412 175.868 81.0313 175.316 81.0313 175.316Z" fill="white"/>
        <path d="M0.0170305 173.653C0.0170305 173.653 -0.76311 191.607 8.23688 203.489C17.2369 215.371 32.6057 216.692 32.6057 216.692C32.6057 216.692 33.3787 198.739 24.3787 186.857C15.3787 174.975 0.0170305 173.653 0.0170305 173.653Z" fill="white"/>
    </g>
    <path d="M28.5977 186.53C28.6308 186.467 28.678 186.412 28.7356 186.372C28.7931 186.331 28.8593 186.305 28.9287 186.296C28.998 186.287 29.0685 186.294 29.1343 186.319C29.2001 186.343 29.2593 186.383 29.307 186.435L39.1084 195.405C39.1843 195.465 39.2759 195.502 39.3719 195.509C39.4678 195.517 39.5638 195.495 39.6478 195.447C39.7319 195.399 39.8002 195.327 39.8442 195.239C39.8883 195.151 39.9062 195.053 39.8956 194.955L39.7892 174.263C39.7883 174.106 39.7301 173.956 39.6261 173.842L24.9098 158.655C24.8112 158.549 24.7528 158.41 24.745 158.264C24.7372 158.117 24.7806 157.973 24.8672 157.856C24.905 157.797 24.9556 157.748 25.0149 157.713C25.0743 157.677 25.1409 157.656 25.2096 157.651C25.2782 157.646 25.347 157.657 25.4107 157.684C25.4743 157.711 25.5311 157.752 25.5765 157.805L39.002 171.663C39.0733 171.734 39.1646 171.78 39.263 171.795C39.3614 171.811 39.462 171.794 39.5505 171.747C39.6391 171.701 39.7111 171.627 39.7565 171.536C39.8019 171.445 39.8183 171.342 39.8034 171.242L39.7183 148.473C39.7203 148.316 39.6616 148.164 39.5552 148.051L29.7892 138.218C29.6896 138.112 29.6299 137.974 29.6208 137.828C29.6117 137.681 29.6538 137.536 29.7396 137.419C29.7768 137.359 29.8268 137.31 29.8859 137.273C29.945 137.237 30.0115 137.215 30.0801 137.21C30.1488 137.204 30.2178 137.215 30.2818 137.241C30.3457 137.267 30.4029 137.308 30.4488 137.361L38.8814 145.938C39.1935 146.258 39.6828 145.996 39.6828 145.509L39.541 113.321C39.5331 113.181 39.5792 113.043 39.6694 112.937C39.7595 112.831 39.8865 112.765 40.0233 112.754C40.0913 112.758 40.1579 112.775 40.2194 112.806C40.2808 112.836 40.3358 112.878 40.3813 112.93C40.4267 112.982 40.4617 113.042 40.4843 113.108C40.5068 113.174 40.5165 113.244 40.5126 113.314L40.6899 160.972C40.6778 161.083 40.7027 161.195 40.7607 161.289C40.8186 161.384 40.9062 161.456 41.0091 161.493C41.1119 161.53 41.224 161.53 41.3271 161.494C41.4301 161.457 41.518 161.386 41.5765 161.292L52.4984 142.648C52.5299 142.589 52.5734 142.538 52.6259 142.498C52.6784 142.458 52.7388 142.431 52.8027 142.417C52.8667 142.403 52.9329 142.404 52.9966 142.418C53.0604 142.433 53.1203 142.462 53.1722 142.503C53.2803 142.597 53.3524 142.728 53.3758 142.871C53.3991 143.015 53.3722 143.162 53.2998 143.287L40.7821 164.647L40.7041 164.582L40.775 184.111C40.7628 184.212 40.7812 184.314 40.8277 184.404C40.8742 184.494 40.9465 184.566 41.0349 184.612C41.1233 184.658 41.2234 184.676 41.3216 184.661C41.4197 184.647 41.5112 184.602 41.5835 184.532L54.9027 170.559C54.9468 170.504 55.0029 170.461 55.0664 170.433C55.1299 170.404 55.199 170.392 55.2681 170.396C55.3372 170.4 55.4044 170.421 55.4641 170.457C55.5239 170.493 55.5745 170.543 55.6119 170.602C55.6986 170.719 55.7419 170.864 55.7341 171.01C55.7263 171.156 55.6679 171.295 55.5694 171.401L40.8105 186.893L40.9027 211.238C40.9075 211.307 40.8988 211.377 40.8772 211.444C40.8555 211.51 40.8213 211.571 40.7765 211.624C40.7317 211.676 40.6772 211.719 40.6161 211.75C40.555 211.781 40.4885 211.8 40.4204 211.804C40.3521 211.802 40.285 211.785 40.2231 211.755C40.1612 211.725 40.1058 211.683 40.0602 211.631C40.0145 211.579 39.9796 211.518 39.9574 211.451C39.9352 211.385 39.9263 211.315 39.9311 211.245L39.8814 197.852C39.8825 197.77 39.8667 197.687 39.8349 197.611C39.8031 197.535 39.7562 197.466 39.697 197.409L28.6828 187.336C28.576 187.235 28.5086 187.097 28.4929 186.949C28.4773 186.801 28.5145 186.652 28.5977 186.53Z" fill="white"/>
    <path d="M0.535569 174.837C0.58098 174.784 0.637719 174.742 0.701362 174.715C0.765006 174.689 0.833833 174.677 0.902478 174.682C0.971123 174.687 1.03773 174.708 1.09711 174.744C1.15648 174.779 1.20702 174.829 1.24479 174.887L16.0391 194.163C16.3512 194.577 16.9398 194.272 16.876 193.72L15.6632 182.477C15.6382 182.337 15.668 182.192 15.7462 182.074C15.8245 181.955 15.945 181.873 16.0817 181.845C16.1486 181.839 16.216 181.847 16.2798 181.869C16.3436 181.89 16.4025 181.925 16.4529 181.97C16.5033 182.016 16.5441 182.071 16.573 182.133C16.6018 182.196 16.618 182.263 16.6207 182.332L18.2093 196.981L23.9398 204.512C24.002 204.591 24.0864 204.647 24.1815 204.674C24.2765 204.701 24.3774 204.698 24.4701 204.663C24.5629 204.629 24.6429 204.566 24.6991 204.483C24.7553 204.4 24.7849 204.301 24.7838 204.2L25.8263 193.451C25.829 193.382 25.8452 193.314 25.8739 193.251C25.9025 193.188 25.9431 193.132 25.9933 193.085C26.0435 193.038 26.1022 193.002 26.1661 192.979C26.2299 192.956 26.2977 192.946 26.3653 192.95C26.5019 192.977 26.6229 193.057 26.7024 193.174C26.7819 193.29 26.8137 193.434 26.7909 193.575L25.5497 206.328C25.5327 206.486 25.5759 206.645 25.6703 206.771L33.3937 216.845C33.48 216.961 33.5237 217.105 33.5172 217.251C33.5107 217.397 33.4545 217.536 33.3582 217.644C33.3133 217.697 33.257 217.739 33.1937 217.766C33.1304 217.794 33.0617 217.806 32.9931 217.801C32.9245 217.797 32.8577 217.777 32.798 217.742C32.7384 217.707 32.6874 217.658 32.649 217.6L28.4788 212.16C28.4338 212.098 28.3747 212.049 28.3067 212.016C28.2387 211.983 28.1639 211.968 28.0887 211.971L20.3937 212.516C20.3257 212.516 20.2584 212.502 20.1956 212.476C20.1328 212.449 20.0757 212.41 20.0276 212.361C19.9795 212.311 19.9414 212.253 19.9154 212.189C19.8894 212.124 19.876 212.055 19.876 211.986C19.8618 211.844 19.9019 211.702 19.9878 211.589C20.0738 211.477 20.1989 211.403 20.337 211.383L26.5001 210.947C26.5964 210.928 26.6863 210.884 26.761 210.819C26.8356 210.754 26.8925 210.67 26.9261 210.576C26.9597 210.481 26.9688 210.379 26.9526 210.28C26.9363 210.181 26.8953 210.088 26.8334 210.01L20.6561 201.956C20.6132 201.9 20.5583 201.854 20.4957 201.823C20.433 201.791 20.3642 201.775 20.2944 201.774H9.28733C9.1506 201.763 9.02357 201.698 8.93343 201.592C8.84329 201.486 8.79722 201.348 8.80507 201.208C8.80025 201.138 8.80892 201.068 8.83057 201.002C8.85222 200.936 8.88644 200.875 8.93125 200.822C8.97606 200.769 9.03059 200.726 9.09169 200.695C9.1528 200.664 9.21929 200.646 9.28733 200.641H18.5639C18.6707 200.638 18.7743 200.603 18.8627 200.542C18.9511 200.48 19.0209 200.395 19.0638 200.294C19.1068 200.194 19.1213 200.084 19.1056 199.975C19.09 199.867 19.0448 199.766 18.9753 199.683L12.1668 190.8C12.1238 190.742 12.0681 190.694 12.0041 190.661C11.9401 190.628 11.8695 190.611 11.798 190.611L4.70578 190.713C4.63776 190.709 4.57112 190.692 4.50968 190.662C4.44824 190.632 4.39322 190.589 4.34776 190.537C4.3023 190.486 4.26729 190.425 4.24476 190.359C4.22222 190.293 4.21259 190.224 4.21642 190.154C4.21059 190.084 4.21829 190.014 4.23905 189.947C4.25982 189.881 4.29325 189.819 4.33741 189.766C4.38158 189.712 4.43561 189.669 4.4964 189.637C4.55718 189.605 4.62352 189.586 4.69159 189.58L10.0817 189.507C10.181 189.492 10.2747 189.451 10.3531 189.386C10.4315 189.322 10.4918 189.237 10.5279 189.141C10.564 189.045 10.5745 188.941 10.5584 188.84C10.5423 188.738 10.5002 188.643 10.4363 188.563L0.535569 175.636C0.444431 175.523 0.394531 175.382 0.394531 175.236C0.394531 175.09 0.444431 174.949 0.535569 174.837Z" fill="white"/>
    <path d="M50.7265 200.612C50.7936 200.607 50.8609 200.616 50.9248 200.638C50.9886 200.66 51.0475 200.694 51.0983 200.739C51.149 200.785 51.1905 200.84 51.2204 200.901C51.2504 200.963 51.2681 201.03 51.2726 201.099L52.1024 208.238C52.1032 208.337 52.1331 208.432 52.188 208.513C52.243 208.593 52.3205 208.655 52.4103 208.689C52.5 208.724 52.598 208.73 52.6911 208.706C52.7843 208.683 52.8683 208.631 52.9321 208.558L59.3506 200.779C59.4464 200.656 59.4921 200.5 59.4782 200.344L58.691 187.532C58.6728 187.392 58.7096 187.249 58.7932 187.136C58.8769 187.024 59.0008 186.949 59.1378 186.929C59.2051 186.927 59.2721 186.939 59.3349 186.964C59.3976 186.989 59.4548 187.027 59.5031 187.075C59.5513 187.123 59.5897 187.181 59.6159 187.244C59.6421 187.308 59.6556 187.376 59.6555 187.445L60.3648 198.245C60.362 198.345 60.3892 198.444 60.4429 198.529C60.4966 198.613 60.5741 198.678 60.6651 198.716C60.7561 198.754 60.8563 198.763 60.9522 198.741C61.048 198.719 61.1351 198.667 61.2016 198.593L68.2938 190.001C68.3896 189.875 68.4374 189.718 68.4286 189.558L67.8116 181.337C67.7947 181.196 67.8308 181.054 67.9124 180.939C67.9941 180.825 68.1152 180.746 68.2513 180.72C68.3189 180.718 68.3863 180.729 68.4494 180.754C68.5126 180.779 68.5702 180.817 68.619 180.865C68.6679 180.913 68.7069 180.97 68.7339 181.034C68.7608 181.098 68.7752 181.166 68.7761 181.235L69.2442 187.496C69.2406 187.596 69.2673 187.695 69.3206 187.779C69.3739 187.863 69.4512 187.928 69.5419 187.965C69.6327 188.002 69.7325 188.01 69.8277 187.987C69.9229 187.964 70.0089 187.912 70.074 187.837L80.3931 175.331C80.4348 175.275 80.4885 175.23 80.55 175.199C80.6115 175.168 80.6792 175.151 80.7477 175.151C80.8163 175.151 80.884 175.168 80.9454 175.199C81.0069 175.23 81.0606 175.275 81.1023 175.331C81.1935 175.443 81.2434 175.584 81.2434 175.73C81.2434 175.876 81.1935 176.017 81.1023 176.129L65.7265 194.773C65.3931 195.173 65.7265 195.826 66.1662 195.717L75.691 193.459C75.7569 193.447 75.8244 193.45 75.8893 193.466C75.9542 193.483 76.0151 193.513 76.0683 193.554C76.1215 193.596 76.1657 193.648 76.1984 193.708C76.2311 193.767 76.2515 193.833 76.2584 193.902C76.2897 194.041 76.2683 194.187 76.1986 194.311C76.1289 194.435 76.0159 194.528 75.8825 194.57L63.4215 197.504L57.4144 204.767C57.3471 204.844 57.3014 204.939 57.2821 205.041C57.2628 205.143 57.2706 205.249 57.3046 205.347C57.3387 205.445 57.3977 205.532 57.4757 205.598C57.5536 205.665 57.6476 205.709 57.7477 205.725L67.0101 206.139C67.0783 206.146 67.1445 206.166 67.2049 206.199C67.2654 206.231 67.3189 206.276 67.3625 206.33C67.406 206.384 67.4386 206.446 67.4585 206.513C67.4784 206.58 67.4851 206.651 67.4782 206.72C67.4811 206.79 67.4702 206.859 67.4462 206.924C67.4222 206.99 67.3855 207.049 67.3385 207.099C67.2914 207.149 67.235 207.189 67.1724 207.217C67.1099 207.244 67.0426 207.258 66.9747 207.258L55.9818 206.771C55.9113 206.769 55.8413 206.784 55.7773 206.814C55.7133 206.844 55.657 206.889 55.613 206.946L47.5846 216.678C47.5429 216.733 47.4892 216.779 47.4277 216.81C47.3662 216.841 47.2986 216.857 47.23 216.857C47.1614 216.857 47.0938 216.841 47.0323 216.81C46.9708 216.779 46.9171 216.733 46.8754 216.678C46.7843 216.565 46.7344 216.424 46.7344 216.278C46.7344 216.132 46.7843 215.991 46.8754 215.879L51.2158 210.62C51.2665 210.556 51.304 210.481 51.3259 210.401C51.3478 210.322 51.3538 210.238 51.3435 210.156L50.308 201.237C50.2886 201.098 50.3208 200.957 50.3983 200.841C50.4758 200.725 50.5929 200.644 50.7265 200.612Z" fill="white"/>
    <path d="M227.627 185.469L122.272 215.835C121.135 216.121 119.938 216.029 118.856 215.572C117.773 215.115 116.861 214.317 116.251 213.293L36.3574 66.0471C36.0864 65.6095 35.9232 65.1112 35.8817 64.5949C35.8401 64.0785 35.9215 63.5595 36.1189 63.0825C36.3162 62.6054 36.6237 62.1845 37.0148 61.8558C37.4059 61.5272 37.869 61.3006 38.3645 61.1956L143.719 30.8298C144.854 30.542 146.05 30.6327 147.131 31.0885C148.213 31.5444 149.124 32.3417 149.733 33.3645L229.613 180.61C229.883 181.047 230.047 181.544 230.09 182.06C230.132 182.575 230.053 183.093 229.858 183.571C229.663 184.048 229.358 184.469 228.97 184.8C228.581 185.131 228.12 185.36 227.627 185.469Z" fill="#263238" stroke="black" stroke-width="0.288216" stroke-miterlimit="10"/>
    <path d="M120.791 209.378C120.791 209.378 181.67 194.548 222.649 180.015L120.791 209.378Z" fill="#884849"/>
    <path d="M222.647 180.015L120.789 209.379L42.002 64.1807L143.86 34.8245L222.647 180.015Z" fill="white" stroke="#263238" stroke-width="0.288216" stroke-miterlimit="10"/>
    <path d="M113.691 65.575L121.599 63.2945" stroke="#263238" stroke-width="0.288216" stroke-miterlimit="10"/>
    <path d="M58.8398 81.3864L107.57 67.3401" stroke="#263238" stroke-width="0.288216" stroke-miterlimit="10"/>
    <path d="M105.018 74.5957L124.663 68.9307" stroke="#263238" stroke-width="0.288216" stroke-miterlimit="10"/>
    <path d="M74.9102 83.2744L99.6548 76.1423" stroke="#263238" stroke-width="0.288216" stroke-miterlimit="10"/>
    <path d="M61.8965 87.0223L70.3149 84.5965" stroke="#263238" stroke-width="0.288216" stroke-miterlimit="10"/>
    <path d="M89.4492 85.6057L127.726 74.5735" stroke="#263238" stroke-width="0.288216" stroke-miterlimit="10"/>
    <path d="M64.9609 92.6653L81.0318 88.0317" stroke="#263238" stroke-width="0.288216" stroke-miterlimit="10"/>
    <path d="M149.159 61.3265C148.151 59.64 146.647 58.3247 144.863 57.5702C143.078 56.8158 141.106 56.6611 139.23 57.1286C135.563 58.189 134.081 61.7768 135.911 65.154C136.916 66.8429 138.42 68.1603 140.205 68.915C141.99 69.6698 143.964 69.8228 145.84 69.3519C149.471 68.2988 150.989 64.7037 149.159 61.3265Z" fill="white" stroke="#263238" stroke-width="0.288216" stroke-miterlimit="10"/>
    <path d="M80.3922 104.25L72.4844 106.53" stroke="#263238" stroke-width="0.288216" stroke-miterlimit="10"/>
    <path d="M135.244 88.4383L86.5137 102.485" stroke="#263238" stroke-width="0.288216" stroke-miterlimit="10"/>
    <path d="M95.1883 106.508L75.543 112.173" stroke="#263238" stroke-width="0.288216" stroke-miterlimit="10"/>
    <path d="M125.293 97.8291L100.549 104.961" stroke="#263238" stroke-width="0.288216" stroke-miterlimit="10"/>
    <path d="M138.307 94.0816L129.889 96.5074" stroke="#263238" stroke-width="0.288216" stroke-miterlimit="10"/>
    <path d="M116.875 106.777L78.6055 117.809" stroke="#263238" stroke-width="0.288216" stroke-miterlimit="10"/>
    <path d="M141.371 99.7173L125.293 104.351" stroke="#263238" stroke-width="0.288216" stroke-miterlimit="10"/>
    <path d="M162.805 86.4776C161.8 84.7887 160.296 83.4714 158.511 82.7166C156.726 81.9618 154.752 81.8088 152.876 82.2798C149.21 83.3329 147.727 86.9279 149.557 90.2688C150.561 91.9586 152.066 93.2766 153.851 94.0315C155.637 94.7864 157.61 94.9388 159.486 94.4667C163.146 93.4427 164.635 89.8476 162.805 86.4776Z" fill="white" stroke="#263238" stroke-width="0.288216" stroke-miterlimit="10"/>
    <path d="M140.982 115.863L148.89 113.582" stroke="#263238" stroke-width="0.288216" stroke-miterlimit="10"/>
    <path d="M86.1309 131.674L134.861 117.627" stroke="#263238" stroke-width="0.288216" stroke-miterlimit="10"/>
    <path d="M132.309 124.89L151.954 119.225" stroke="#263238" stroke-width="0.288216" stroke-miterlimit="10"/>
    <path d="M102.201 133.569L126.946 126.43" stroke="#263238" stroke-width="0.288216" stroke-miterlimit="10"/>
    <path d="M89.1875 137.317L97.6059 134.891" stroke="#263238" stroke-width="0.288216" stroke-miterlimit="10"/>
    <path d="M116.74 135.894L155.01 124.869" stroke="#263238" stroke-width="0.288216" stroke-miterlimit="10"/>
    <path d="M92.252 142.96L108.323 138.326" stroke="#263238" stroke-width="0.288216" stroke-miterlimit="10"/>
    <path d="M176.888 116.378C178.104 113.212 175.918 109.369 172.006 107.795C168.095 106.22 163.939 107.51 162.724 110.675C161.509 113.841 163.694 117.684 167.606 119.258C171.517 120.833 175.673 119.543 176.888 116.378Z" fill="white" stroke="#263238" stroke-width="0.288216" stroke-miterlimit="10"/>
    <path d="M107.683 154.544L99.7754 156.825" stroke="#263238" stroke-width="0.288216" stroke-miterlimit="10"/>
    <path d="M162.535 138.733L113.805 152.779" stroke="#263238" stroke-width="0.288216" stroke-miterlimit="10"/>
    <path d="M122.479 156.803L102.834 162.461" stroke="#263238" stroke-width="0.288216" stroke-miterlimit="10"/>
    <path d="M152.585 148.124L127.84 155.256" stroke="#263238" stroke-width="0.288216" stroke-miterlimit="10"/>
    <path d="M165.598 144.369L157.18 146.795" stroke="#263238" stroke-width="0.288216" stroke-miterlimit="10"/>
    <path d="M144.166 157.072L105.896 168.104" stroke="#263238" stroke-width="0.288216" stroke-miterlimit="10"/>
    <path d="M168.655 150.013L152.584 154.646" stroke="#263238" stroke-width="0.288216" stroke-miterlimit="10"/>
    <path d="M190.089 136.765C189.083 135.077 187.579 133.76 185.794 133.006C184.009 132.251 182.035 132.097 180.16 132.567C176.493 133.628 175.011 137.215 176.84 140.593C177.845 142.282 179.35 143.599 181.135 144.354C182.92 145.108 184.894 145.261 186.769 144.79C190.436 143.759 191.926 140.128 190.089 136.765Z" fill="white" stroke="#263238" stroke-width="0.288216" stroke-miterlimit="10"/>
    <path d="M168.271 166.157L176.179 163.877" stroke="#263238" stroke-width="0.288216" stroke-miterlimit="10"/>
    <path d="M113.422 181.969L162.152 167.922" stroke="#263238" stroke-width="0.288216" stroke-miterlimit="10"/>
    <path d="M159.598 175.178L179.243 169.52" stroke="#263238" stroke-width="0.288216" stroke-miterlimit="10"/>
    <path d="M129.492 183.857L154.237 176.725" stroke="#263238" stroke-width="0.288216" stroke-miterlimit="10"/>
    <path d="M116.479 187.612L124.897 185.179" stroke="#263238" stroke-width="0.288216" stroke-miterlimit="10"/>
    <path d="M144.031 186.189L182.301 175.156" stroke="#263238" stroke-width="0.288216" stroke-miterlimit="10"/>
    <path d="M119.541 193.248L135.612 188.614" stroke="#263238" stroke-width="0.288216" stroke-miterlimit="10"/>
    <path d="M204.177 166.667C205.393 163.502 203.207 159.659 199.295 158.084C195.384 156.51 191.228 157.8 190.013 160.965C188.798 164.131 190.983 167.974 194.895 169.548C198.806 171.123 202.962 169.833 204.177 166.667Z" fill="white" stroke="#263238" stroke-width="0.288216" stroke-miterlimit="10"/>
    <path d="M109.379 37.2865L95.9887 41.143C94.9745 41.1866 93.8611 41.1067 93.549 40.5765C92.8398 39.2111 93.7476 37.9328 94.0313 36.7272C94.3596 35.3376 94.1486 33.8717 93.4426 32.6383C92.409 30.9031 90.8626 29.5503 89.0275 28.7759C87.1925 28.0015 85.1642 27.8458 83.237 28.3314C79.4781 29.4209 77.9604 33.1031 79.8327 36.5602C80.7513 38.157 82.1282 39.4251 83.776 40.1916C83.776 40.1916 86.4923 41.4335 87.0384 42.4358C87.3292 42.966 86.5703 43.5906 85.7972 44.0626L71.3646 48.2242C70.8205 48.3414 70.312 48.5916 69.8828 48.9536C69.4535 49.3156 69.1161 49.7785 68.8994 50.303C68.6827 50.8274 68.5932 51.3978 68.6384 51.9653C68.6836 52.5329 68.8622 53.0808 69.159 53.5624L71.1093 57.1502L117.967 43.6487L116.017 40.0536C115.343 38.9282 114.335 38.0527 113.141 37.555C111.947 37.0572 110.629 36.9631 109.379 37.2865ZM85.5277 32.5947C86.1452 32.4381 86.7953 32.4875 87.3834 32.7357C87.9716 32.9839 88.4669 33.418 88.7972 33.9746C88.944 34.2121 89.0324 34.4824 89.0546 34.7626C89.0768 35.0427 89.0323 35.3241 88.9249 35.5827C88.8175 35.8413 88.6503 36.0693 88.4379 36.2472C88.2254 36.425 87.9739 36.5474 87.705 36.6038C87.0894 36.7605 86.4409 36.712 85.8541 36.4651C85.2673 36.2181 84.7728 35.7858 84.4426 35.2311C84.296 34.9936 84.2077 34.7233 84.1851 34.4432C84.1625 34.1632 84.2063 33.8817 84.3129 33.6227C84.4195 33.3638 84.5856 33.1351 84.7971 32.9561C85.0087 32.7771 85.2593 32.6531 85.5277 32.5947Z" fill="#CD0101" stroke="#263238" stroke-width="0.288216" stroke-miterlimit="10"/>
    <path d="M138.273 61.7475L144.054 65.88L150.011 52.2042" stroke="#CD0101" stroke-width="1.7293" stroke-linecap="round" stroke-linejoin="round"/>
    <path d="M151.705 86.5065L157.485 90.6317L163.443 76.9632" stroke="#CD0101" stroke-width="1.7293" stroke-linecap="round" stroke-linejoin="round"/>
    <path d="M246.505 83.1222C246.505 83.1222 248.044 79.7668 247.079 77.1957C246.115 74.6247 228.363 70.4776 228.363 70.4776C228.363 70.4776 224.313 70.4776 224.505 72.8526C224.696 75.2275 239.363 84.3133 240.519 85.0976C241.675 85.882 246.115 87.6687 246.505 83.1222Z" fill="white" stroke="#263238" stroke-width="0.288216" stroke-linecap="round" stroke-linejoin="round"/>
    <path d="M229.832 67.1584C228.739 66.744 227.666 66.2738 226.619 65.7494C225.087 64.9651 226.768 68.5747 227.385 68.7272C228.002 68.8797 229.513 69.1993 229.513 69.1993L229.832 67.1584Z" fill="white" stroke="#263238" stroke-width="0.288216" stroke-linecap="round" stroke-linejoin="round"/>
    <path d="M176.853 102.288L167.98 113.35L168.746 114.933L181.293 111.803L269.597 59.162C270.479 58.6337 271.248 57.9299 271.86 57.0923C272.472 56.2546 272.914 55.3 273.16 54.2847C273.406 53.2693 273.451 52.2139 273.292 51.1805C273.133 50.1471 272.774 49.1568 272.236 48.2678C271.698 47.3873 270.994 46.6253 270.166 46.026C269.338 45.4267 268.401 45.0021 267.411 44.777C266.421 44.552 265.397 44.5308 264.399 44.7149C263.401 44.899 262.449 45.2846 261.597 45.8493L176.853 102.288Z" fill="#CD0101" stroke="#263238" stroke-width="0.288216" stroke-linecap="round" stroke-linejoin="round"/>
    <path d="M221.221 81.7856L218.342 83.6884" stroke="#263238" stroke-width="0.288216" stroke-linecap="round" stroke-linejoin="round"/>
    <path d="M246.01 65.459L224.74 79.4762" stroke="#263238" stroke-width="0.288216" stroke-linecap="round" stroke-linejoin="round"/>
    <path d="M168.803 113.117C168.803 113.117 166.598 114.061 166.938 115.013C167.278 115.964 170.442 113.662 170.442 113.662L168.803 113.117Z" fill="#CD0101" stroke="#263238" stroke-width="0.288216" stroke-linecap="round" stroke-linejoin="round"/>
    <path d="M167.98 113.35L168.746 114.933L181.293 111.803C174.342 109.036 176.853 102.317 176.853 102.317L167.98 113.35Z" fill="white" stroke="#263238" stroke-width="0.288216" stroke-linecap="round" stroke-linejoin="round"/>
    <path d="M272.237 48.2171C271.699 47.3366 270.995 46.5745 270.167 45.9752C269.339 45.3759 268.402 44.9514 267.412 44.7263C266.422 44.5012 265.398 44.4801 264.4 44.6642C263.402 44.8483 262.449 45.2339 261.598 45.7986L246.194 56.0682C245.779 57.1509 245.567 58.304 245.57 59.4671C245.526 61.799 246.386 64.0538 247.96 65.7386C249.535 67.4235 251.697 68.4013 253.974 68.4585L269.627 59.1331C270.509 58.6024 271.278 57.8959 271.889 57.0554C272.5 56.2149 272.94 55.2575 273.184 54.2397C273.427 53.222 273.469 52.1646 273.306 51.1302C273.143 50.0957 272.78 49.1051 272.237 48.2171Z" fill="white" stroke="#263238" stroke-width="0.288216" stroke-linecap="round" stroke-linejoin="round"/>
    <path d="M272.236 48.2171C271.699 47.3366 270.995 46.5745 270.167 45.9752C269.338 45.3759 268.402 44.9514 267.412 44.7263C266.422 44.5012 265.398 44.4801 264.4 44.6642C263.402 44.8483 262.449 45.2339 261.598 45.7986L249.896 53.6061C249.33 54.8013 249.037 56.1125 249.038 57.4408C249.023 58.5713 249.226 59.6937 249.635 60.7439C250.044 61.794 250.651 62.7512 251.422 63.5607C252.193 64.3702 253.112 65.0161 254.126 65.4615C255.141 65.9068 256.232 66.1429 257.336 66.1562C257.527 66.1562 257.726 66.1562 257.91 66.1562L269.627 59.1766C270.515 58.646 271.289 57.9376 271.904 57.0936C272.519 56.2497 272.961 55.2875 273.205 54.2646C273.448 53.2416 273.488 52.1789 273.322 51.1399C273.155 50.1008 272.786 49.1068 272.236 48.2171Z" fill="#263238" stroke="#263238" stroke-width="0.288216" stroke-linecap="round" stroke-linejoin="round"/>
    <path d="M220.039 70.7678C220.039 70.7678 218.322 70.7678 218.322 71.5667C218.322 72.3656 217.868 75.1981 218.861 75.1182C219.854 75.0383 219.769 73.2589 219.854 72.6343C219.939 72.0097 220.039 70.7678 220.039 70.7678Z" fill="white" stroke="#263238" stroke-width="0.288216" stroke-linecap="round" stroke-linejoin="round"/>
    <path d="M221.909 67.8773C221.909 67.8773 220.377 67.3907 220.023 68.3566C219.668 69.3226 219.313 73.9127 220.377 73.7892C221.441 73.6658 221.675 69.5695 221.909 67.8773Z" fill="white" stroke="#263238" stroke-width="0.288216" stroke-linecap="round" stroke-linejoin="round"/>
    <path d="M224.271 68.1171C224.271 68.1171 222.498 66.5484 221.91 67.8774C221.321 69.2065 221.2 72.9614 221.91 72.9614C222.619 72.9614 223.683 71.3926 223.917 70.5501C224.093 69.7492 224.212 68.936 224.271 68.1171Z" fill="white" stroke="#263238" stroke-width="0.288216" stroke-linecap="round" stroke-linejoin="round"/>
    <path d="M226.776 68.8432C226.776 68.8432 224.535 66.9113 224.18 67.2745C223.825 67.6376 222.407 71.3562 223.471 72.1042C224.535 72.8523 225.882 69.5114 225.882 69.5114L226.776 68.8432Z" fill="white" stroke="#263238" stroke-width="0.288216" stroke-linecap="round" stroke-linejoin="round"/>
    <path d="M194.385 80.3039C194.385 80.3039 194.633 84.1749 195.64 85.0828C196.249 85.6226 196.798 86.229 197.278 86.8912C197.417 87.8757 197.503 88.8674 197.533 89.8617C197.533 91.0237 198.292 90.893 198.952 90.893C199.612 90.893 200.718 93.0719 201.349 94.1177C202.552 95.6392 203.989 96.9493 205.604 97.996C206.739 98.6424 208.633 96.1876 208.633 96.1876L209.512 98.7732L218.47 92.8322L214.058 84.0442C213.798 80.9979 212.893 78.0462 211.406 75.3942C208.881 70.746 205.477 68.1314 199.803 69.8382C194.129 71.5449 194.385 80.3039 194.385 80.3039Z" fill="white" stroke="#263238" stroke-width="0.288216" stroke-linecap="round" stroke-linejoin="round"/>
    <path d="M204.747 63.0913C202.631 63.186 200.543 63.6147 198.555 64.3623C195.243 65.5606 194.428 70.2814 191.541 71.9737C188.655 73.6659 189.889 70.5211 188.442 71.3345C186.995 72.148 185.555 79.5778 188.648 81.6913C191.74 83.8048 196.286 81.0594 196.286 81.0594C196.286 81.0594 195.875 82.512 197.109 82.9623C197.855 83.2159 198.615 83.4269 199.385 83.5941C199.385 83.5941 199.172 86.1361 201.031 85.9182C202.889 85.7004 201.243 82.7517 201.243 82.7517C201.243 82.7517 204.754 89.7239 207.442 90.5737C210.13 91.4234 214.045 87.6105 215.073 85.9182C216.101 84.226 215.279 72.1843 213.009 67.5361C210.74 62.8879 204.747 63.0913 204.747 63.0913Z" fill="#263238" stroke="#263238" stroke-width="0.288216" stroke-linecap="round" stroke-linejoin="round"/>
    <path d="M201.32 87.2763C201.32 87.2763 200.058 82.3667 202.072 83.013C204.086 83.6594 205.228 88.0534 205.1 88.5691C204.973 89.0847 203.966 89.3389 203.462 89.2155" fill="white"/>
    <path d="M201.32 87.2763C201.32 87.2763 200.058 82.3667 202.072 83.013C204.086 83.6594 205.228 88.0534 205.1 88.5691C204.973 89.0847 203.966 89.3389 203.462 89.2155" stroke="#263238" stroke-width="0.288216" stroke-linecap="round" stroke-linejoin="round"/>
    <path d="M215.896 89.0555C213.544 90.4087 211.296 91.9432 209.172 93.6456C207.045 95.5847 205.137 101.395 205.137 101.395C205.137 101.395 218.13 92.3528 220.399 91.0673C222.669 89.7818 223.172 89.1281 223.172 89.1281C223.172 89.1281 218.42 88.4091 215.896 89.0555Z" fill="white" stroke="#263238" stroke-width="0.288216" stroke-linecap="round" stroke-linejoin="round"/>
    <path d="M233.385 81.1467C233.934 80.1513 234.681 79.2852 235.578 78.6046C236.474 77.9239 237.501 77.4439 238.59 77.1957C242.257 76.4041 247.101 78.9751 247.661 83.1221C248.222 87.2692 245.151 89.2519 243.222 89.2519C241.293 89.2519 239.555 86.4848 239.555 86.4848C239.555 86.4848 233.385 84.1099 233.385 81.1467Z" fill="white" stroke="#263238" stroke-width="0.288216" stroke-linecap="round" stroke-linejoin="round"/>
    <path d="M181.676 125.21L187.853 108.411C187.162 109.044 186.269 109.395 185.342 109.399C183.796 109.399 180.137 108.81 181.087 108.215C182.037 107.619 185.711 105.056 185.711 105.056C185.711 105.056 183.016 105.651 182.243 105.056C181.47 104.46 181.087 103.668 181.661 103.472C182.236 103.276 183.399 103.472 185.52 102.681C187.64 101.889 188.605 101.105 190.342 101.105C192.08 101.105 193.626 104.264 193.626 105.252C193.626 106.239 192.271 125.006 192.271 125.798C192.271 126.59 192.271 127.381 187.257 127.977C182.243 128.572 181.484 127.381 181.676 125.21Z" fill="white" stroke="#263238" stroke-width="0.288216" stroke-linecap="round" stroke-linejoin="round"/>
    <path d="M187.854 108.411L188.768 104.722" stroke="#263238" stroke-width="0.288216" stroke-linecap="round" stroke-linejoin="round"/>
    <path d="M187.655 121.055C187.655 121.055 181.485 122.835 180.329 125.602C179.173 128.369 179.364 132.516 181.676 134.891C183.988 137.266 184.96 137.854 187.463 136.866C189.967 135.879 190.556 134.295 190.747 132.712C190.939 131.129 192.286 125.798 187.655 121.055Z" fill="white" stroke="#263238" stroke-width="0.288216" stroke-linecap="round" stroke-linejoin="round"/>
    <path d="M185.152 204.832C185.152 204.832 179.748 202.261 177.627 203.249C175.507 204.236 175.499 205.224 178.202 209.574C180.904 213.925 188.429 219.256 190.968 218.065C193.507 216.874 191.159 208.979 191.159 208.979L185.152 204.832Z" fill="white" stroke="#263238" stroke-width="0.288216" stroke-linecap="round" stroke-linejoin="round"/>
    <path d="M181.293 210.954C179.418 208.829 177.843 206.445 176.612 203.873C175.619 204.774 176.045 206.096 178.201 209.575C180.903 213.932 188.428 219.256 190.967 218.065C191.289 217.853 191.555 217.562 191.739 217.218C191.924 216.874 192.021 216.489 192.023 216.097C188.477 217.629 184.811 214.934 181.293 210.954Z" fill="white" stroke="#263238" stroke-width="0.288216" stroke-linecap="round" stroke-linejoin="round"/>
    <path d="M212.93 144.369L213.122 150.303C213.122 150.303 201.356 154.842 195.569 159.018C189.781 163.194 185.923 166.325 185.342 170.276C184.76 174.227 185.15 204.854 185.15 204.854C185.15 204.854 183.413 205.246 183.994 206.43C184.576 207.614 185.725 211.964 187.271 212.356C188.817 212.749 190.746 213.547 191.129 212.56C191.512 211.572 192.675 205.646 193.448 203.67C194.221 201.695 195.569 192.42 196.725 185.883C197.402 182.235 197.788 178.535 197.881 174.822C201.954 174.241 205.962 173.248 209.845 171.859C216.597 169.484 226.434 165.141 226.434 165.141C226.434 165.141 234.349 185.477 236.086 189.442C237.824 193.408 244.597 202.283 245.923 204.854C247.249 207.425 255.76 218.486 255.76 218.486C255.76 218.486 259.044 215.523 261.164 215.523H264.058C264.058 215.523 260.583 205.646 257.675 199.712C254.767 193.778 248.803 184.104 248.803 184.104C248.803 184.104 243.405 149.54 243.207 147.158C242.831 142.597 239.98 135.712 239.98 135.712C239.98 135.712 230.682 133.7 212.93 144.369Z" fill="#263238" stroke="#263238" stroke-width="0.288216" stroke-linecap="round" stroke-linejoin="round"/>
    <path d="M255.76 218.464C255.265 219.292 254.815 220.148 254.413 221.028C254.221 221.624 249.973 222.219 250.555 224.195C251.136 226.17 255.569 227.746 257.689 227.949C259.81 228.153 264.072 225.182 264.831 224.391C265.285 223.926 265.966 220.854 265.604 218.464C265.369 217.348 264.833 216.322 264.058 215.501C264.058 215.501 260.392 209.771 255.76 218.464Z" fill="white" stroke="#263238" stroke-width="0.288216" stroke-linecap="round" stroke-linejoin="round"/>
    <path d="M265.603 218.464C265.406 217.461 264.953 216.529 264.291 215.763C263.493 215.769 262.704 215.942 261.972 216.27C261.241 216.599 260.582 217.076 260.036 217.673C258.107 220.04 259.071 225.379 256.752 226.17C255.029 226.758 252.015 224.601 250.596 223.468C250.517 223.704 250.517 223.959 250.596 224.195C251.171 226.17 255.61 227.746 257.731 227.95C259.852 228.153 264.114 225.182 264.873 224.391C265.284 223.926 265.965 220.854 265.603 218.464Z" fill="white" stroke="#263238" stroke-width="0.288216" stroke-linecap="round" stroke-linejoin="round"/>
    <path d="M260.583 219.844C259.817 223.403 260.782 225.77 257.689 227.949C259.817 228.145 264.072 225.182 264.831 224.39C265.285 223.926 265.966 220.853 265.604 218.464C265.521 217.969 265.361 217.491 265.129 217.048H264.831C264.831 217.048 261.356 216.292 260.583 219.844Z" fill="#263238" stroke="#263238" stroke-width="0.288216" stroke-linecap="round" stroke-linejoin="round"/>
    <path d="M228.363 164.72L239.746 158.997" stroke="white" stroke-width="0.288216" stroke-linecap="round" stroke-linejoin="round"/>
    <path d="M233.576 162.156L243.413 160.769" stroke="white" stroke-width="0.288216" stroke-linecap="round" stroke-linejoin="round"/>
    <path d="M237.412 79.7666C234.136 80.1587 225.646 86.0852 225.065 86.6807C224.483 87.2763 222.171 88.6562 221.207 89.4479C221.207 89.4479 201.348 102.092 199.597 103.247C197.845 104.402 194.391 106.806 194.582 107.605C194.774 108.404 184.355 125.762 184.355 125.762C184.355 125.762 181.27 129.916 184.164 133.664C187.058 137.411 189.76 134.855 191.107 134.063C192.455 133.272 203.072 122.995 203.072 122.995L212.859 146.962C212.859 146.962 226.412 137.658 240.887 138.247L231.235 99.5214C231.235 99.5214 244.554 89.2518 244.937 85.722C245.32 82.1923 240.71 79.3671 237.412 79.7666Z" fill="white"/>
    <mask id="mask0_364_2927" style="mask-type:luminance" maskUnits="userSpaceOnUse" x="182" y="79" width="63" height="68">
        <path d="M237.414 79.7665C234.138 80.1587 225.648 86.0851 225.067 86.6807C224.485 87.2762 222.173 88.6562 221.208 89.4478C221.208 89.4478 201.35 102.092 199.599 103.247C197.847 104.402 194.393 106.806 194.584 107.605C194.776 108.404 184.357 125.762 184.357 125.762C184.357 125.762 181.272 129.916 184.166 133.664C187.06 137.411 189.762 134.855 191.109 134.063C192.457 133.271 203.074 122.995 203.074 122.995L212.861 146.962C212.861 146.962 226.414 137.658 240.889 138.247L231.237 99.5213C231.237 99.5213 244.556 89.2517 244.939 85.722C245.322 82.1923 240.712 79.367 237.414 79.7665Z" fill="white"/>
    </mask>
    <g mask="url(#mask0_364_2927)">
        <path d="M237.413 79.7665C236.101 79.9263 233.952 80.9722 231.803 82.2068C232.293 82.1102 232.8 82.1633 233.26 82.3596C233.72 82.556 234.114 82.8868 234.392 83.3108C235.988 85.4097 232.569 92.1714 232.569 92.1714C232.569 92.1714 231.151 82.8314 231.208 85.6349C231.264 88.4383 230.498 97.0592 230.498 97.0592C230.498 97.0592 225.945 91.4669 226.172 92.8613C226.399 94.2558 229.357 107.314 231.179 112.209C233.002 117.105 229.811 130.853 227.995 134.811C226.179 138.769 227.286 118.034 225.257 123.191C223.229 128.347 216.385 142.532 214.789 143.933C213.194 145.335 215.3 124.927 215.867 122.268C215.158 124.491 210.47 138.573 210.47 138.573L204.087 121.789C204.087 121.789 193.165 112.703 194.3 114.33C195.435 115.957 198.172 121.092 198.172 121.092C198.172 121.092 191.569 119.69 192.711 120.162C193.853 120.634 198.853 123.191 198.853 123.191C198.853 123.191 188.612 130.65 185.655 131.579C184.859 131.819 184.041 131.972 183.215 132.037C183.428 132.646 183.737 133.215 184.13 133.722C187.023 137.477 189.725 134.913 191.073 134.121C192.421 133.33 203.038 123.053 203.038 123.053L212.825 147.02C212.825 147.02 226.378 137.716 240.853 138.305L231.201 99.5794C231.201 99.5794 244.52 89.3098 244.903 85.7801C245.286 82.2504 240.711 79.3671 237.413 79.7665Z" fill="#CD0101"/>
        <path opacity="0.5" d="M237.413 79.7665C236.101 79.9263 233.952 80.9722 231.803 82.2068C232.293 82.1102 232.8 82.1633 233.26 82.3596C233.72 82.556 234.114 82.8868 234.392 83.3108C235.988 85.4097 232.569 92.1714 232.569 92.1714C232.569 92.1714 231.151 82.8314 231.208 85.6349C231.264 88.4383 230.498 97.0592 230.498 97.0592C230.498 97.0592 225.945 91.4669 226.172 92.8613C226.399 94.2558 229.357 107.314 231.179 112.209C233.002 117.105 229.811 130.853 227.995 134.811C226.179 138.769 227.286 118.034 225.257 123.191C223.229 128.347 216.385 142.532 214.789 143.933C213.194 145.335 215.3 124.927 215.867 122.268C215.158 124.491 210.47 138.573 210.47 138.573L204.087 121.789C204.087 121.789 193.165 112.703 194.3 114.33C195.435 115.957 198.172 121.092 198.172 121.092C198.172 121.092 191.569 119.69 192.711 120.162C193.853 120.634 198.853 123.191 198.853 123.191C198.853 123.191 188.612 130.65 185.655 131.579C184.859 131.819 184.041 131.972 183.215 132.037C183.428 132.646 183.737 133.215 184.13 133.722C187.023 137.477 189.725 134.913 191.073 134.121C192.421 133.33 203.038 123.053 203.038 123.053L212.825 147.02C212.825 147.02 226.378 137.716 240.853 138.305L231.201 99.5794C231.201 99.5794 244.52 89.3098 244.903 85.7801C245.286 82.2504 240.711 79.3671 237.413 79.7665Z" fill="white"/>
    </g>
    <path d="M237.412 79.7666C234.136 80.1587 225.646 86.0852 225.065 86.6807C224.483 87.2763 222.171 88.6562 221.207 89.4479C221.207 89.4479 201.348 102.092 199.597 103.247C197.845 104.402 194.391 106.806 194.582 107.605C194.774 108.404 184.355 125.762 184.355 125.762C184.355 125.762 181.27 129.916 184.164 133.664C187.058 137.411 189.76 134.855 191.107 134.063C192.455 133.272 203.072 122.995 203.072 122.995L212.859 146.962C212.859 146.962 226.412 137.658 240.887 138.247L231.235 99.5214C231.235 99.5214 244.554 89.2518 244.937 85.722C245.32 82.1923 240.71 79.3671 237.412 79.7666Z" stroke="#263238" stroke-width="0.288216" stroke-linecap="round" stroke-linejoin="round"/>
    <path d="M212.881 146.962C212.316 141.526 212.591 136.034 213.697 130.686Z" fill="white"/>
    <path d="M212.881 146.962C212.316 141.526 212.591 136.034 213.697 130.686" stroke="#263238" stroke-width="0.288216" stroke-linecap="round" stroke-linejoin="round"/>
    <path d="M211.053 134.855C211.053 134.855 211.053 131.514 214.719 121.055Z" fill="white"/>
    <path d="M211.053 134.855C211.053 134.855 211.053 131.514 214.719 121.055" stroke="#263238" stroke-width="0.288216" stroke-linecap="round" stroke-linejoin="round"/>
    <path d="M195.568 114.345L203.093 123.031L195.377 117.301" fill="white"/>
    <path d="M195.568 114.345L203.093 123.031L195.377 117.301" stroke="#263238" stroke-width="0.288216" stroke-linecap="round" stroke-linejoin="round"/>
    <path d="M231.256 88.4601V99.5214L233.766 85.3008" fill="white"/>
    <path d="M231.256 88.4601V99.5214L233.766 85.3008" stroke="#263238" stroke-width="0.288216" stroke-linecap="round" stroke-linejoin="round"/>
    <path d="M215.979 121.971C215.951 122.051 215.93 122.134 215.916 122.218C216 121.971 216.029 121.877 215.979 121.971Z" fill="#263238"/>
</svg>
