<svg width="599" height="455" viewBox="0 0 599 455" fill="none" xmlns="http://www.w3.org/2000/svg">
    <path opacity="0.2" d="M0 188.305L82.4954 116.764L221.442 259.41L533.091 0L599 82.1561L199.764 407L0 188.305Z" fill="#FF725E"/>
    <path opacity="0.2" d="M295.224 382.912C295.197 388.913 296.436 394.852 298.861 400.341C301.287 405.83 304.843 410.746 309.298 414.766C312.284 417.38 314.679 420.6 316.325 424.211C317.97 427.822 318.828 431.742 318.842 435.71L318.813 438.955L355.999 439.178L356.028 435.933C356.103 431.969 357.021 428.066 358.72 424.483C360.42 420.9 362.862 417.72 365.885 415.154C372.535 409.334 377.213 401.592 379.272 392.998C381.332 384.404 380.672 375.383 377.383 367.18C374.094 358.977 368.339 351.999 360.913 347.208C353.487 342.417 344.756 340.051 335.927 340.437C325.013 341.012 314.728 345.724 307.166 353.616C299.604 361.507 295.334 371.983 295.224 382.912Z" fill="#FFAC0B"/>
</svg>
