<svg width="48" height="49" viewBox="0 0 48 49" fill="none" xmlns="http://www.w3.org/2000/svg">
<path d="M40.5001 9.5H7.50005C6.7044 9.5 5.94134 9.81607 5.37873 10.3787C4.81612 10.9413 4.50005 11.7044 4.50005 12.5V42.5C4.49666 43.0718 4.65831 43.6325 4.96562 44.1147C5.27292 44.5969 5.71282 44.9803 6.23255 45.2188C6.62971 45.4032 7.06217 45.4991 7.50005 45.5C8.20431 45.4983 8.8852 45.2472 9.42193 44.7913C9.43087 44.7854 9.43906 44.7785 9.4463 44.7706L15.4688 39.5H40.5001C41.2957 39.5 42.0588 39.1839 42.6214 38.6213C43.184 38.0587 43.5001 37.2956 43.5001 36.5V12.5C43.5001 11.7044 43.184 10.9413 42.6214 10.3787C42.0588 9.81607 41.2957 9.5 40.5001 9.5ZM40.5001 36.5H15.4688C14.7623 36.4997 14.0784 36.7487 13.5376 37.2031L13.5151 37.2238L7.50005 42.5V12.5H40.5001V36.5ZM16.5001 21.5C16.5001 21.1022 16.6581 20.7206 16.9394 20.4393C17.2207 20.158 17.6022 20 18.0001 20H30.0001C30.3979 20 30.7794 20.158 31.0607 20.4393C31.342 20.7206 31.5001 21.1022 31.5001 21.5C31.5001 21.8978 31.342 22.2794 31.0607 22.5607C30.7794 22.842 30.3979 23 30.0001 23H18.0001C17.6022 23 17.2207 22.842 16.9394 22.5607C16.6581 22.2794 16.5001 21.8978 16.5001 21.5ZM16.5001 27.5C16.5001 27.1022 16.6581 26.7206 16.9394 26.4393C17.2207 26.158 17.6022 26 18.0001 26H30.0001C30.3979 26 30.7794 26.158 31.0607 26.4393C31.342 26.7206 31.5001 27.1022 31.5001 27.5C31.5001 27.8978 31.342 28.2794 31.0607 28.5607C30.7794 28.842 30.3979 29 30.0001 29H18.0001C17.6022 29 17.2207 28.842 16.9394 28.5607C16.6581 28.2794 16.5001 27.8978 16.5001 27.5Z" fill="#FFBC0A"/>
</svg>
