<svg width="48" height="49" viewBox="0 0 48 49" fill="none" xmlns="http://www.w3.org/2000/svg">
<path opacity="0.2" d="M42 18.5V42.5L34.5788 36.5H16.5C16.1022 36.5 15.7206 36.342 15.4393 36.0607C15.158 35.7794 15 35.3978 15 35V27.5H31.5C31.8978 27.5 32.2794 27.342 32.5607 27.0607C32.842 26.7794 33 26.3978 33 26V17H40.5C40.8978 17 41.2794 17.158 41.5607 17.4393C41.842 17.7206 42 18.1022 42 18.5Z" fill="#343330"/>
<path d="M40.5 15.5H34.5V9.5C34.5 8.70435 34.1839 7.94129 33.6213 7.37868C33.0587 6.81607 32.2956 6.5 31.5 6.5H7.5C6.70435 6.5 5.94129 6.81607 5.37868 7.37868C4.81607 7.94129 4.5 8.70435 4.5 9.5V33.5C4.50088 33.7822 4.58135 34.0584 4.73217 34.297C4.88298 34.5355 5.09802 34.7266 5.35259 34.8484C5.60715 34.9702 5.89091 35.0177 6.17127 34.9855C6.45163 34.9533 6.71721 34.8426 6.9375 34.6663L13.5 29.375V35C13.5 35.7956 13.8161 36.5587 14.3787 37.1213C14.9413 37.6839 15.7044 38 16.5 38H34.0481L41.0625 43.6663C41.3279 43.8809 41.6586 43.9987 42 44C42.3978 44 42.7794 43.842 43.0607 43.5607C43.342 43.2794 43.5 42.8978 43.5 42.5V18.5C43.5 17.7044 43.1839 16.9413 42.6213 16.3787C42.0587 15.8161 41.2957 15.5 40.5 15.5ZM12.4781 26.3337L7.5 30.3594V9.5H31.5V26H13.4213C13.0779 26 12.745 26.1179 12.4781 26.3337ZM40.5 39.3594L35.5219 35.3337C35.2565 35.1191 34.9257 35.0013 34.5844 35H16.5V29H31.5C32.2956 29 33.0587 28.6839 33.6213 28.1213C34.1839 27.5587 34.5 26.7956 34.5 26V18.5H40.5V39.3594Z" fill="#343330"/>
</svg>
