<svg width="56" height="57" viewBox="0 0 56 57" fill="none" xmlns="http://www.w3.org/2000/svg">
<path d="M30.1773 24.599V25.2532H18.305V24.599H30.1773ZM18.6321 16.3611V34H17.9779V16.3611H18.6321ZM30.5529 16.3611V34H29.8987V16.3611H30.5529ZM36.5375 16.3611V34H35.8833V16.3611H36.5375Z" fill="#D70B15"/>
<path d="M0.548464 52.0579V52.055V4.73227C0.548464 3.60474 0.951263 2.5337 1.65287 1.75247C2.35274 0.973185 3.28853 0.548387 4.25008 0.548387H51.0001C51.9616 0.548387 52.8974 0.973185 53.5973 1.75247C54.2989 2.5337 54.7017 3.60475 54.7017 4.73227V42.5904C54.7017 43.718 54.2989 44.789 53.5973 45.5702C52.8974 46.3495 51.9616 46.7743 51.0001 46.7743H15.5391H15.3161L15.1564 46.9299L6.62454 55.244L6.62279 55.2457L6.62158 55.2465L6.59588 55.2709C5.93175 55.8991 5.09992 56.2363 4.24961 56.2388C3.72002 56.2377 3.1947 56.1083 2.70953 55.8567L2.70602 55.8549C2.06989 55.5309 1.52234 55.0044 1.13614 54.3303C0.749764 53.6559 0.544064 52.8666 0.548464 52.0579ZM51.0001 43.1388H51.5485V42.5904V4.73227V4.18388H51.0001H4.25008H3.70169V4.73227V52.055V53.3572L4.63325 52.4473L13.1545 44.1244L13.1546 44.1245L13.1631 44.1159L13.1863 44.0921C13.8549 43.4704 14.6881 43.1384 15.5389 43.1388H15.5391H51.0001ZM50.4517 42.5904H15.5391H50.4517Z" stroke="black" stroke-width="1.09677"/>
</svg>
