<svg width="54" height="55" viewBox="0 0 54 55" fill="none" xmlns="http://www.w3.org/2000/svg">
<path d="M11.25 9.5H20.25L24.75 20.75L19.125 24.125C21.5347 29.0109 25.4891 32.9653 30.375 35.375L33.75 29.75L45 34.25V43.25C45 45.7353 42.9853 47.75 40.5 47.75C22.3372 46.6462 7.85376 32.1628 6.75 14C6.75 11.5147 8.76472 9.5 11.25 9.5" stroke="url(#paint0_linear_5308_56353)" stroke-width="3.375" stroke-linecap="round" stroke-linejoin="round"/>
<path d="M33.75 16.25C36.2353 16.25 38.25 18.2647 38.25 20.75" stroke="url(#paint1_linear_5308_56353)" stroke-width="3.375" stroke-linecap="round" stroke-linejoin="round"/>
<path d="M33.75 7.25C41.2058 7.25 47.25 13.2942 47.25 20.75" stroke="#22AE16" stroke-width="3.375" stroke-linecap="round" stroke-linejoin="round"/>
<rect y="0.5" width="54" height="54" stroke="url(#paint2_linear_5308_56353)"/>
<defs>
<linearGradient id="paint0_linear_5308_56353" x1="37.8221" y1="9.49999" x2="4.25174" y2="18.0001" gradientUnits="userSpaceOnUse">
<stop stop-color="#00E925"/>
<stop offset="1" stop-color="#21AC27"/>
</linearGradient>
<linearGradient id="paint1_linear_5308_56353" x1="37.4055" y1="16.25" x2="33.4561" y2="17.25" gradientUnits="userSpaceOnUse">
<stop stop-color="#00E925"/>
<stop offset="1" stop-color="#21AC27"/>
</linearGradient>
<linearGradient id="paint2_linear_5308_56353" x1="43.8665" y1="0.499986" x2="-3.52696" y2="12.5002" gradientUnits="userSpaceOnUse">
<stop stop-color="#E900DF"/>
<stop offset="1" stop-color="#AC21A6"/>
</linearGradient>
</defs>
</svg>
