<svg width="55" height="55" viewBox="0 0 55 55" fill="none" xmlns="http://www.w3.org/2000/svg">
<g clip-path="url(#clip0_9823_73838)">
<path d="M11.7858 27.5V17.1678C11.8165 15.1369 12.2476 13.132 13.0545 11.2679C13.8613 9.40388 15.0281 7.71738 16.4879 6.30503C17.9477 4.89269 19.6718 3.78227 21.5615 3.03741C23.4511 2.29254 25.4692 1.92786 27.5001 1.96427C29.5309 1.92786 31.549 2.29254 33.4387 3.03741C35.3283 3.78227 37.0525 4.89269 38.5123 6.30503C39.972 7.71738 41.1388 9.40388 41.9457 11.2679C42.7525 13.132 43.1837 15.1369 43.2144 17.1678V27.5M35.3572 48.125C37.4411 48.125 39.4396 47.2972 40.9131 45.8237C42.3866 44.3502 43.2144 42.3517 43.2144 40.2678V31.4286M35.3572 48.125C35.3572 49.4274 34.8398 50.6764 33.9189 51.5974C32.998 52.5183 31.7489 53.0357 30.4465 53.0357H24.5536C23.2512 53.0357 22.0022 52.5183 21.0812 51.5974C20.1603 50.6764 19.6429 49.4274 19.6429 48.125C19.6429 46.8226 20.1603 45.5735 21.0812 44.6526C22.0022 43.7316 23.2512 43.2143 24.5536 43.2143H30.4465C31.7489 43.2143 32.998 43.7316 33.9189 44.6526C34.8398 45.5735 35.3572 46.8226 35.3572 48.125ZM5.89293 21.6071H9.8215C10.3425 21.6071 10.8421 21.8141 11.2105 22.1825C11.5788 22.5508 11.7858 23.0505 11.7858 23.5714V35.3571C11.7858 35.8781 11.5788 36.3777 11.2105 36.7461C10.8421 37.1145 10.3425 37.3214 9.8215 37.3214H5.89293C4.851 37.3214 3.85176 36.9075 3.11501 36.1708C2.37826 35.434 1.96436 34.4348 1.96436 33.3928V25.5357C1.96436 24.4938 2.37826 23.4945 3.11501 22.7578C3.85176 22.021 4.851 21.6071 5.89293 21.6071ZM49.1072 37.3214H45.1786C44.6577 37.3214 44.1581 37.1145 43.7897 36.7461C43.4213 36.3777 43.2144 35.8781 43.2144 35.3571V23.5714C43.2144 23.0505 43.4213 22.5508 43.7897 22.1825C44.1581 21.8141 44.6577 21.6071 45.1786 21.6071H49.1072C50.1491 21.6071 51.1484 22.021 51.8851 22.7578C52.6219 23.4945 53.0358 24.4938 53.0358 25.5357V33.3928C53.0358 34.4348 52.6219 35.434 51.8851 36.1708C51.1484 36.9075 50.1491 37.3214 49.1072 37.3214Z" stroke="white" stroke-width="2.29167" stroke-linecap="round" stroke-linejoin="round"/>
</g>
<defs>
<clipPath id="clip0_9823_73838">
<rect width="55" height="55" fill="white"/>
</clipPath>
</defs>
</svg>
