<svg width="42" height="42" viewBox="0 0 42 42" fill="none" xmlns="http://www.w3.org/2000/svg">
<path d="M25.5221 8.7087C29.3948 9.72154 32.0807 12.3542 33.1129 16.1345L33.113 16.1349C33.1543 16.2858 33.1648 16.443 33.144 16.5977C33.1232 16.7524 33.0714 16.902 32.9912 17.0379C32.911 17.1739 32.8038 17.2936 32.6753 17.3901L32.9435 17.7474L32.6753 17.3901C32.5471 17.4863 32.4003 17.5573 32.2431 17.5986C32.1376 17.6256 32.0289 17.6395 31.9196 17.6398C31.6458 17.6395 31.3807 17.5509 31.1655 17.389C30.9502 17.2271 30.7973 17.0014 30.7284 16.7483L30.7283 16.7482C29.9125 13.756 27.9278 11.8175 24.8808 11.0217C24.7233 10.9805 24.5762 10.9095 24.4477 10.8132C24.3192 10.7168 24.212 10.5971 24.1317 10.4612C24.0514 10.3254 23.9995 10.1758 23.9786 10.0212C23.9576 9.86653 23.968 9.70934 24.0092 9.55844L23.5782 9.44078L24.0092 9.55843C24.0504 9.40752 24.1217 9.26546 24.2195 9.1405C24.3174 9.01553 24.4399 8.91004 24.5804 8.8305C24.7209 8.75094 24.8765 8.69903 25.0384 8.67805C25.2002 8.65708 25.3646 8.66752 25.5221 8.7087ZM25.5221 8.7087L25.6352 8.27643M25.5221 8.7087L25.6352 8.27643M25.6352 8.27643C29.6588 9.32877 32.4687 12.0788 33.5439 16.0168L25.6352 8.27643ZM2.91327 11.5103C2.92128 18.6067 5.80526 25.4083 10.9293 30.4232C16.0528 35.4377 22.9974 38.2566 30.239 38.2646C32.3974 38.2719 34.486 37.5096 36.1141 36.1181C37.6415 34.8127 38.6658 33.037 39.0217 31.0874H39.0875V30.6406V30.6385L38.6407 30.6084V30.5879L38.797 30.2314L28.9268 25.9049L28.6738 25.794L28.4616 25.9707L23.3487 30.2267C23.3118 30.2573 23.2733 30.2858 23.2332 30.3123C22.814 30.5858 22.3287 30.7487 21.8247 30.7844C21.3207 30.8201 20.8163 30.7274 20.3607 30.5156C16.5164 28.6973 12.6711 24.9604 10.8143 21.2442C10.5972 20.8044 10.5001 20.3179 10.5318 19.8315C10.5634 19.3448 10.7231 18.8736 10.996 18.4637L10.9961 18.4637L11.0006 18.4567C11.0235 18.4208 11.0494 18.3866 11.0779 18.3545L11.0779 18.3545L11.0823 18.3495L15.4588 13.2707L15.6456 13.0539L15.5267 12.7935L11.1649 3.23901L11.2113 2.77989L10.6536 2.85108C8.51189 3.12451 6.54348 4.15289 5.11791 5.74624C3.69221 7.33974 2.90756 9.38892 2.91327 11.5103ZM2.91327 11.5103C2.91327 11.5102 2.91327 11.5101 2.91327 11.51L3.36008 11.5095L2.91327 11.5107C2.91327 11.5106 2.91327 11.5104 2.91327 11.5103ZM25.6881 2.98058L25.6882 2.98046C25.7294 2.82952 25.8008 2.68746 25.8987 2.56252C25.9966 2.43757 26.1192 2.33212 26.2598 2.25264C26.4004 2.17316 26.5561 2.12133 26.7179 2.10047C26.8798 2.07962 27.0443 2.09019 27.2018 2.13154L27.2046 2.13227C30.2437 2.90832 33.0154 4.46298 35.2347 6.63504C37.4539 8.80702 39.0406 11.5178 39.8323 14.4877L39.8331 14.4906C39.8744 14.6415 39.8849 14.7987 39.8641 14.9534C39.8433 15.1081 39.7915 15.2577 39.7113 15.3936C39.6311 15.5296 39.5239 15.6494 39.3954 15.7458C39.2672 15.842 39.1204 15.913 38.9632 15.9543C38.8579 15.9813 38.7494 15.9952 38.6403 15.9955C38.3663 15.9954 38.101 15.9067 37.8856 15.7447C37.6706 15.583 37.5178 15.3578 37.4488 15.1052C36.765 12.539 35.3948 10.1987 33.4805 8.32506C31.5661 6.45147 29.1769 5.11222 26.5594 4.44424C26.4022 4.40312 26.2552 4.33226 26.1268 4.23611C25.9982 4.13976 25.8908 4.01999 25.8105 3.88402L25.4377 4.10439L25.8105 3.88402C25.7301 3.74808 25.6782 3.59843 25.6573 3.44366C25.6364 3.28889 25.6468 3.13157 25.6881 2.98058ZM26.6608 1.65733C26.8797 1.62913 27.102 1.64341 27.3152 1.69935L25.2572 2.86267C25.3142 2.654 25.4127 2.45836 25.547 2.28695C25.6813 2.11554 25.8488 1.97171 26.0399 1.86368C26.231 1.75564 26.442 1.68552 26.6608 1.65733ZM30.2413 40.6596H30.2405C13.8039 40.6596 0.446828 27.5731 0.446828 11.5095L0.446827 11.5087C0.441886 8.81096 1.44039 6.20222 3.25825 4.16992C5.07587 2.1379 7.58865 0.82101 10.3284 0.467664C10.9539 0.393337 11.5867 0.518905 12.1322 0.824725C12.6782 1.13079 13.1065 1.60038 13.3551 2.16183L13.3551 2.16184L13.3574 2.16687L17.7521 11.7692V11.791L17.7904 11.8774C17.9807 12.3072 18.0591 12.7759 18.0191 13.2418C17.9791 13.707 17.8221 14.1559 17.5616 14.5485C17.5351 14.5873 17.5055 14.6257 17.4702 14.6691L13.1018 19.7372L12.9071 19.9631L13.0411 20.2296C14.6598 23.4489 18.0772 26.7623 21.4024 28.3473L21.6607 28.4704L21.8806 28.2873L26.9901 24.0324C26.9904 24.0321 26.9907 24.0319 26.991 24.0316C27.0277 24.0015 27.0662 23.9734 27.1062 23.9475L27.1079 23.9464C27.511 23.6833 27.9756 23.5222 28.4595 23.4785C28.9415 23.435 29.4267 23.5093 29.8714 23.6944L29.8928 23.704L29.8928 23.7041L29.8973 23.706L39.7906 28.0449L39.7905 28.0449L39.7963 28.0473C40.3752 28.2916 40.8559 28.7118 41.168 29.2434C41.4796 29.7742 41.607 30.3883 41.5324 30.9945C41.1723 33.6684 39.83 36.1248 37.7534 37.9041C35.6758 39.6842 33.0056 40.6644 30.2413 40.6596Z" stroke="black" stroke-width="0.893617"/>
</svg>
