<svg width="63" height="63" viewBox="0 0 63 63" fill="none" xmlns="http://www.w3.org/2000/svg">
    <path d="M60.123 38.8992H57.2168L55.1582 15.1648C55.0775 13.1466 54.2904 11.4311 52.7969 10.0183C51.3034 8.60555 49.5879 7.89917 47.6504 7.89917H34.209V2.69214C34.209 0.996826 33.3613 0.14917 31.666 0.14917C29.9707 0.14917 29.123 0.996826 29.123 2.69214V7.89917H15.6816C13.7441 7.89917 12.0286 8.60555 10.5352 10.0183C9.04167 11.4311 8.25456 13.1466 8.17383 15.1648L6.11523 38.8992H3.20898C2.48242 38.8992 1.87695 39.1414 1.39258 39.6257C0.908203 40.1101 0.666016 40.7156 0.666016 41.4421C0.666016 42.2494 0.908203 42.8953 1.39258 43.3796C1.87695 43.864 2.48242 44.1062 3.20898 44.1062H12.7754L8.41602 58.7585C8.17383 59.4044 8.25456 60.0502 8.6582 60.696C9.06185 61.3419 9.58659 61.7455 10.2324 61.907H10.959C12.0085 61.907 12.8965 61.3015 13.623 60.0906L18.2246 44.1062H29.123V54.3992C29.123 56.0945 29.9707 56.9421 31.666 56.9421C33.3613 56.9421 34.209 56.0945 34.209 54.3992V44.1062H45.1074L49.709 60.3328C49.9512 61.5437 50.8392 62.1492 52.373 62.1492H53.0996C54.6335 61.5841 55.2389 60.5346 54.916 59.0007L50.5566 44.1062H60.123C60.8496 44.1062 61.4551 43.864 61.9395 43.3796C62.4238 42.8953 62.666 42.2494 62.666 41.4421C62.666 40.7156 62.4238 40.1101 61.9395 39.6257C61.4551 39.1414 60.8496 38.8992 60.123 38.8992ZM11.2012 38.8992L13.3809 15.407C13.3809 14.7611 13.6432 14.2162 14.168 13.7722C14.6927 13.3282 15.278 13.1062 15.9238 13.1062H47.6504C48.377 13.1062 49.0026 13.3282 49.5273 13.7722C50.0521 14.2162 50.3145 14.7611 50.3145 15.407L52.373 38.8992H11.2012ZM39.9004 16.739C35.9447 21.9864 33.8053 24.8119 33.4824 25.2156C30.6569 23.2781 28.7598 21.9864 27.791 21.3406L25.9746 19.7664L16.6504 32.239C16.2467 32.7234 16.1055 33.349 16.2266 34.116C16.3477 34.8829 16.6908 35.4278 17.2559 35.7507C17.821 36.1544 18.3053 36.3562 18.709 36.3562C19.6777 36.3562 20.3639 35.9929 20.7676 35.2664L27.0645 27.032C30.1322 29.1309 32.0495 30.3822 32.8164 30.7859C33.5833 31.1895 34.2493 31.3106 34.8145 31.1492L35.7832 30.907L36.2676 30.0593C36.5098 29.7364 37.0547 29.03 37.9023 27.9402C38.75 26.8503 39.7793 25.4578 40.9902 23.7625C42.2012 22.0671 43.1296 20.8158 43.7754 20.0085C44.179 19.5242 44.3405 18.8985 44.2598 18.1316C44.179 17.3647 43.8561 16.7794 43.291 16.3757C42.8874 15.8914 42.3223 15.6895 41.5957 15.7703C40.8691 15.851 40.304 16.1739 39.9004 16.739Z" fill="#E9000E"/>
</svg>
