<svg width="63" height="63" viewBox="0 0 63 63" fill="none" xmlns="http://www.w3.org/2000/svg">
    <path d="M21.4941 2.3286C21.4094 2.55263 21.3125 2.78876 21.2398 3.04306C20.816 4.36661 20.6223 5.93599 21.1793 7.07427C21.2398 7.19778 21.2762 7.22927 21.3246 7.32493C21.918 6.83208 22.8988 6.21692 24.3277 6.26052C25.5145 6.29564 26.4953 6.9895 27.0645 7.85048C27.6336 8.71146 27.9 9.7347 27.9484 10.7567C27.9969 11.7775 27.8395 12.8032 27.4035 13.6993C26.9676 14.5954 26.1562 15.4188 25.0422 15.5763C23.2137 15.8427 21.8938 14.8376 21.2277 14.4017C21.1187 14.3411 21.0703 14.329 21.0098 14.2927C20.9734 14.3532 20.9613 14.3532 20.9008 14.4985C20.8402 14.6196 20.7918 15.4915 21.0461 16.6298C21.143 17.0415 21.252 17.4895 21.3973 17.9497C23.8918 17.8891 26.3379 18.0829 28.0938 18.761C28.9898 19.1001 29.6195 19.4028 30.0555 20.0325C30.4914 20.6622 30.3824 21.4977 30.2008 21.97C29.8496 22.9145 29.4137 23.4474 29.5469 24.6583C29.6074 25.1184 29.7406 25.2638 30.0312 25.4212C30.3219 25.5786 30.8184 25.6634 31.3512 25.5786C32.4168 25.4333 33.3977 24.7067 33.5066 23.9559C33.6641 22.8782 33.434 22.9024 33.0344 22.4059C32.9375 22.2727 32.7922 22.1153 32.6832 21.8126C32.5742 21.4977 32.5984 20.9891 32.7801 20.6622C33.1313 20.0083 33.5672 19.8267 34.2453 19.4634C35.3109 18.8821 36.4977 19.0032 37.7934 19.2091C38.7016 19.3544 39.6824 19.5845 40.6754 19.8388C40.3969 18.7368 40.1426 17.647 39.9852 16.6298C39.7793 15.2614 39.6945 14.002 40.3121 12.888C40.5301 12.5126 40.6996 12.2244 40.9176 11.9725C41.1234 11.7206 41.3777 11.4433 41.8742 11.338C42.3707 11.2314 42.8914 11.4954 43.1094 11.7025C43.3395 11.9095 43.4363 12.0779 43.5332 12.2244C43.727 12.5126 43.8844 12.7306 44.0297 12.8274C44.175 12.9364 44.284 13.0212 44.732 12.9485C45.0348 12.9122 45.3254 12.7063 45.5918 12.2704C45.8703 11.8393 46.0641 11.1963 46.1004 10.5727C46.1246 9.94903 46.0035 9.35931 45.7855 9.00814C45.5797 8.65817 45.398 8.50681 44.9258 8.48017C44.2961 8.44384 44.0418 8.56251 43.8965 8.65575C43.7512 8.74778 43.6906 8.83739 43.5695 9.04446C43.4969 9.14739 43.4848 9.29755 43.0973 9.56638C42.9035 9.70079 42.5039 9.82431 42.177 9.75407C41.8379 9.68263 41.6562 9.51552 41.5352 9.39442C41.0629 8.91368 41.0023 8.59642 40.627 7.81294C39.7188 5.92267 39.8156 3.88466 40.1426 2.32739L21.4941 2.3286ZM42.4555 2.3286C42.1406 3.64489 41.9227 5.47462 42.5887 6.86841C42.6008 6.88415 42.6008 6.88899 42.6129 6.90474C42.6492 6.87931 42.6734 6.85146 42.7098 6.82724C43.2789 6.46274 44.066 6.2472 45.0469 6.30411C46.1973 6.3695 47.1539 7.04521 47.6625 7.89528C48.1711 8.74415 48.3285 9.72864 48.268 10.6925C48.2195 11.6565 47.9531 12.6095 47.4445 13.4329C46.9359 14.2442 46.1125 14.9587 45.0469 15.104C44.1266 15.2372 43.291 14.995 42.734 14.5954C42.5039 14.4259 42.3344 14.2442 42.177 14.0626C42.0559 14.4138 41.9832 15.2251 42.1406 16.3149C42.3223 17.5017 42.6977 18.9548 43.0852 20.4321C43.0852 20.4442 43.0852 20.4563 43.0973 20.4563C44.1508 20.7349 45.1801 20.977 46.1004 21.1224C47.3355 21.3161 48.3527 21.304 48.8371 21.1224C49.0793 21.0376 49.1641 20.977 49.2609 20.9165C49.2609 20.9044 49.2609 20.9044 49.2488 20.8923C48.7766 20.2263 47.5414 18.8458 47.6867 16.7872C47.7715 15.6126 48.5828 14.6559 49.5152 14.2684C49.9875 14.0747 50.484 13.9778 50.9805 13.9536C51.4891 13.9294 51.9977 13.9657 52.5063 14.0626C53.5113 14.2442 54.5043 14.6438 55.3398 15.2372C56.1754 15.8306 56.8898 16.654 57.0473 17.7559C57.2895 19.427 56.4055 20.5895 55.9211 21.1708L55.9453 21.195C56.6598 21.5341 58.2703 21.3645 59.6508 20.9165C59.9414 20.8317 60.2199 20.7227 60.4863 20.6259V2.3286H42.4555ZM51.3316 16.1333C50.932 16.1333 50.5809 16.1938 50.3508 16.2786C49.9875 16.436 49.8906 16.5087 49.8664 16.9325C49.7816 18.095 50.4113 18.761 51.0289 19.6329C51.1863 19.8509 51.3438 20.0809 51.4648 20.3837C51.598 20.6985 51.6707 21.1587 51.5375 21.5946C51.2469 22.4786 50.5082 22.8298 49.5879 23.1688C48.4254 23.6048 47.1418 23.4958 45.7492 23.2778C45.0832 23.1688 44.393 23.0235 43.6906 22.854C43.848 23.5321 43.9934 24.2102 44.0902 24.8642C44.3082 26.2688 44.393 27.5767 43.8602 28.7392C43.4848 29.5747 43.3637 30.047 42.6734 30.495C42.3344 30.713 41.6926 30.7493 41.3414 30.5919C41.0023 30.4345 40.8691 30.2649 40.7359 30.1317C40.2273 29.611 40.1184 29.2356 38.8711 29.3083C38.423 29.3325 38.2898 29.4536 38.1082 29.8169C37.9266 30.1681 37.8297 30.7856 37.8902 31.4274C37.9629 32.0813 38.1809 32.7352 38.4594 33.147C38.7258 33.5708 38.9437 33.6677 39.1012 33.6677C39.9488 33.6798 40.409 33.2681 41.2082 32.8563C41.6078 32.6384 42.2738 32.3841 42.9762 32.6626C43.6664 32.9411 44.0297 33.5102 44.3809 34.2247C44.9742 35.4477 45.2285 37.1673 45.3133 39.0806C45.4223 39.0684 45.5434 39.0442 45.6523 39.02C47.0086 38.7899 48.268 38.681 49.4305 39.1048C49.8906 39.2743 50.2418 39.4317 50.5688 39.6497C50.8836 39.8677 51.2348 40.2067 51.3438 40.7032C51.4527 41.2118 51.259 41.6599 51.0895 41.9263C50.9199 42.2048 50.7383 42.3743 50.5688 42.556C49.8785 43.2462 49.3094 43.67 49.4426 44.6267C49.491 44.9657 49.709 45.2806 50.2297 45.5833C50.7383 45.8981 51.5012 46.1282 52.2641 46.1888C53.027 46.2493 53.7777 46.1403 54.2621 45.9345C54.7344 45.7286 54.8676 45.5591 54.9039 45.3048C55.0371 44.4208 54.5406 43.9122 53.923 43.0888C53.6203 42.677 53.1844 42.1442 53.257 41.3087C53.3297 40.4731 53.9715 39.8677 54.7707 39.4075C56.575 38.3903 58.682 38.8142 60.3047 39.3349C60.3652 39.3591 60.4258 39.3712 60.4863 39.3954V22.9388C60.4258 22.963 60.3773 22.9751 60.3168 22.9993C58.7305 23.5079 56.7445 24.0044 54.9887 23.1446C54.6375 22.9751 54.3469 22.8056 54.0805 22.5755C53.8141 22.3333 53.5598 21.9942 53.4871 21.5583C53.4266 21.1224 53.5719 20.7349 53.7051 20.4927C53.8504 20.2505 53.9957 20.0809 54.1168 19.9235C54.6496 19.3181 55.0371 19.0395 54.8918 18.0708C54.8555 17.7802 54.6012 17.3806 54.0805 17.0052C53.5598 16.6419 52.8211 16.3392 52.1066 16.2059C51.8402 16.1575 51.5738 16.1333 51.3316 16.1333ZM22.1359 20.1294H22.0633L22.2207 20.6259C22.6688 22.079 23.1289 23.5684 23.3832 24.9489C23.6254 26.3294 23.7344 27.6251 23.141 28.7876C22.9352 29.1993 22.7414 29.5141 22.4992 29.8048C22.257 30.0833 21.8816 30.3981 21.3367 30.4224C20.8039 30.4466 20.4043 30.1559 20.1863 29.938C19.9805 29.7321 19.8473 29.5505 19.7262 29.3688C19.4598 29.0056 19.2297 28.6907 18.9754 28.5091C18.7332 28.3153 18.5152 28.2063 17.9824 28.2669C17.607 28.3153 17.3164 28.5212 17.0137 29.0177C16.723 29.5263 16.5172 30.277 16.4688 31.0399C16.4324 31.8028 16.5656 32.5657 16.7957 33.0622C17.0258 33.5587 17.2438 33.7282 17.5344 33.7645C18.5031 33.9099 19.048 33.4134 19.8836 32.8321C20.2953 32.5415 20.8039 32.1419 21.6273 32.2024C22.4508 32.263 23.0684 32.9048 23.4922 33.6677C24.0855 34.7575 23.9402 35.9563 23.7223 37.2884C23.4922 38.6083 23.0926 40.0856 22.693 41.563C22.6687 41.6477 22.6445 41.7204 22.6203 41.8052C24.7395 41.6841 26.7254 41.3208 27.682 40.8485C27.6941 40.8485 27.6941 40.8485 27.6941 40.8364C27.343 40.2915 27.1371 39.5286 27.1855 38.572C27.234 37.4095 27.8879 36.4528 28.6992 35.8958C29.5105 35.3388 30.4672 35.1087 31.4117 35.0724C32.3562 35.036 33.2887 35.1934 34.0879 35.6294C34.8992 36.0653 35.6258 36.9009 35.65 37.9665C35.6742 39.2138 35.1898 40.1099 34.9355 40.5216C35.0566 40.6184 35.2262 40.7395 35.4926 40.8849C35.7227 41.0181 36.534 41.1149 37.6238 40.9333C38.7137 40.7638 40.0699 40.4005 41.4625 40.0251C42.0195 39.8798 42.5766 39.7224 43.1336 39.577C43.0488 37.6032 42.7461 35.8474 42.4191 35.1813C42.3223 34.9634 42.2496 34.8786 42.1891 34.806C41.7289 35.0481 40.6512 35.8716 39.0648 35.8474C37.9871 35.8352 37.1516 35.1329 36.6309 34.3458C36.1223 33.5587 35.8195 32.6142 35.7227 31.6575C35.6258 30.6888 35.7105 29.6958 36.1707 28.8118C36.6309 27.9278 37.5875 27.2013 38.75 27.1286C40.1547 27.0559 41.1355 27.6372 41.7289 28.1095C41.7773 28.0005 41.8258 27.9642 41.8863 27.8309C42.068 27.4192 42.1285 26.4263 41.9348 25.1911C41.8016 24.3071 41.5715 23.2899 41.3051 22.2485C39.9004 21.8852 38.5562 21.5341 37.4543 21.3645C36.3281 21.1829 35.4805 21.2798 35.2867 21.3766C35.1777 21.4372 35.1535 21.4735 35.0688 21.522C35.4199 22.079 35.8438 23.0235 35.6621 24.2708C35.3594 26.3294 33.4461 27.4919 31.6539 27.7462C30.7578 27.8673 29.8133 27.7825 28.9898 27.3345C28.1664 26.8864 27.5004 25.9903 27.3793 24.9005C27.1734 23.0235 27.9848 21.6794 28.1543 21.2071C28.0695 21.1466 27.8516 21.0013 27.3188 20.7954C26.241 20.3837 24.243 20.1415 22.1359 20.1294ZM19.7988 20.2263C17.5223 20.4079 15.4152 20.8923 14.5918 21.3403C14.3738 21.4614 14.277 21.5462 14.2043 21.6188C14.5191 22.0911 15.5 23.2294 15.3547 24.9126C15.2699 25.9661 14.4949 26.7774 13.6594 27.1407C12.8238 27.5161 11.8926 27.5888 10.9614 27.4798C10.0314 27.3587 9.09656 27.0438 8.30461 26.4868C7.51266 25.9177 6.85391 25.0337 6.71707 23.9317C6.59598 22.963 6.81758 22.1274 7.1966 21.5462C7.33707 21.3282 7.49086 21.1587 7.64102 21.0134C7.62285 21.0013 7.62164 21.0013 7.60227 20.9892C6.48941 20.42 4.88492 20.5411 3.53109 20.9165C3.2877 20.977 3.06246 21.0497 2.8457 21.1224V41.2602C3.06004 41.3329 3.28406 41.4056 3.52504 41.4661C4.87402 41.8415 6.47852 41.9747 7.61195 41.4056C7.83598 41.2966 7.92316 41.2239 8.04305 41.1392C7.59742 40.5821 6.79457 39.4438 6.97621 37.7485C7.09852 36.6224 7.80207 35.7263 8.64731 35.2177C9.49254 34.7091 10.471 34.5153 11.4361 34.5153C12.4 34.5153 13.3566 34.7212 14.1922 35.1934C15.0156 35.6536 15.7543 36.4649 15.8996 37.5306C16.1055 39.1048 15.2699 40.1946 14.8219 40.7274C14.8945 40.7759 14.9066 40.8001 15.0398 40.8727C15.8148 41.3087 18.0188 41.7325 20.3559 41.8173C20.4406 41.5388 20.5133 41.2724 20.5859 40.9938C20.9855 39.5165 21.373 38.0755 21.5668 36.9251C21.7605 35.7626 21.6758 34.8907 21.5789 34.7212C21.482 34.5395 21.4457 34.5032 21.4094 34.4548C21.3488 34.4911 21.2641 34.5274 21.1309 34.6243C20.4406 35.0966 19.1086 36.1985 17.2195 35.92C16.0812 35.7626 15.2578 34.9028 14.8219 33.9825C14.3859 33.0501 14.2406 31.9845 14.3012 30.9309C14.3496 29.8774 14.6039 28.8118 15.1367 27.9157C15.6695 27.0075 16.5777 26.2325 17.7523 26.0993C18.7816 25.9903 19.6777 26.3052 20.2832 26.7653C20.7191 27.0802 20.9977 27.4313 21.2277 27.7341C21.3852 27.3587 21.4457 26.4868 21.2277 25.3364C21.0219 24.1497 20.5859 22.7208 20.1379 21.2798C20.0289 20.9286 19.9078 20.5774 19.7988 20.2263ZM11.4252 36.695C10.7882 36.695 10.1646 36.8403 9.76742 37.0825C9.37023 37.3247 9.18981 37.5548 9.14379 37.9786C9.01906 39.1532 9.42957 39.3833 9.95391 40.0493C10.0859 40.2188 10.2397 40.4126 10.3584 40.7274C10.4782 41.0423 10.4976 41.5388 10.3257 41.9263C9.98418 42.6892 9.41504 42.9434 8.58555 43.3673C6.66984 44.3118 4.55434 44.0091 2.945 43.5731C2.91109 43.561 2.87961 43.5489 2.8457 43.5368V59.9692H19.3508C19.0359 58.5524 18.9754 56.7724 19.8957 55.1497C20.2953 54.4474 20.477 54.0477 20.9977 53.6724C21.252 53.4786 21.7484 53.3212 22.1359 53.4181C22.5234 53.5028 22.7172 53.6845 22.8383 53.7934C23.0805 54.0114 23.1531 54.0962 23.2863 54.1567C23.4195 54.2173 23.6012 54.2899 24.0855 54.2294C24.2793 54.2052 24.582 54.0235 24.8727 53.5028C25.1754 52.9942 25.4055 52.2313 25.466 51.4806C25.5266 50.7419 25.4055 50.0153 25.1996 49.5915C24.9938 49.1677 24.8484 49.0345 24.4246 49.0102C23.8676 48.9739 23.6254 49.1071 23.3832 49.3009C23.141 49.4946 22.9352 49.8095 22.7414 50.1485C22.6324 50.3059 22.5477 50.4755 22.366 50.6934C22.2812 50.8024 22.1602 50.9356 21.9301 51.0567C21.7121 51.1899 21.3246 51.2626 21.0098 51.1778C20.368 51.0204 20.2105 50.6329 20.0531 50.3544C19.8957 50.0638 19.7625 49.7489 19.593 49.313C19.157 48.1384 19.2781 46.8306 19.5203 45.4138C19.6051 44.9536 19.702 44.4692 19.8109 43.9849C17.5102 43.9001 15.4031 43.5731 13.9742 42.786C13.2477 42.3743 12.6761 42.0231 12.4702 41.2239C12.3685 40.8243 12.4581 40.3884 12.5913 40.122C12.7221 39.8434 12.8723 39.6739 12.9934 39.5165C13.5141 38.8989 13.8531 38.7173 13.732 37.8091C13.6957 37.5548 13.5504 37.3247 13.1266 37.0946C12.555 36.8403 11.9483 36.695 11.4252 36.695ZM57.2895 41.0059C56.7203 41.0059 56.2117 41.1028 55.8363 41.3087C55.6305 41.4298 55.5699 41.4903 55.5094 41.5267C55.5457 41.5872 55.5699 41.6599 55.6668 41.7931C56.1633 42.447 57.3379 43.7427 57.0594 45.6196C56.902 46.7458 56.0301 47.5571 55.1098 47.9446C54.1773 48.3321 53.1359 48.4411 52.0824 48.3563C51.041 48.2716 49.9996 47.9931 49.1035 47.4602C48.2195 46.9274 47.4324 46.0556 47.2871 44.9173C47.0328 43.0767 48.1711 41.8657 48.825 41.2118C48.7645 41.1876 48.7645 41.1876 48.6797 41.1513C48.2074 40.9817 47.2145 40.9696 46.0156 41.1755C45.7977 41.2118 45.5676 41.2481 45.3375 41.2966C45.2891 43.9243 44.9742 46.5763 44.2598 48.4048C43.9086 49.313 43.6059 49.9669 42.8793 50.3544C42.5039 50.5481 42.0559 50.5966 41.7047 50.536C41.3656 50.4634 41.1113 50.3423 40.8813 50.2212C39.973 49.7368 39.3676 49.1919 38.0961 49.2403C37.648 49.2524 37.6117 49.3251 37.4664 49.6642C37.3332 50.0032 37.2727 50.6571 37.4059 51.3352C37.527 52.0134 37.8176 52.7157 38.1566 53.1759C38.4836 53.636 38.7863 53.7692 38.9195 53.7813C39.7309 53.7934 39.7793 53.5149 40.3848 53.0063C40.5301 52.8731 40.7238 52.7036 41.0629 52.5946C41.402 52.4856 41.8863 52.5341 42.2133 52.7036C42.8793 53.0548 43.1215 53.527 43.5453 54.2778C44.5504 56.0579 44.2961 58.1407 43.9328 59.7634C43.9207 59.836 43.8965 59.8966 43.8844 59.9692H60.4863V41.7083C60.2199 41.6114 59.9414 41.5024 59.6508 41.4177C58.8758 41.1634 58.0281 41.0181 57.2895 41.0059Z" fill="#E9000E"/>
</svg>
