<svg width="63" height="63" viewBox="0 0 63 63" fill="none" xmlns="http://www.w3.org/2000/svg">
    <g clip-path="url(#clip0_7219_76146)">
        <path d="M59.9928 20.8155C58.8471 19.3973 57.4321 18.2197 55.8293 17.3507C54.2265 16.4817 52.4677 15.9384 50.654 15.7521C49.8769 11.8157 47.8956 8.21813 44.9842 5.45713C42.0729 2.69613 38.3753 0.908218 34.4033 0.34078C30.4312 -0.226657 26.381 0.454429 22.813 2.2898C19.245 4.12518 16.3356 7.0241 14.4874 10.5855C13.2959 10.7272 12.1253 11.009 10.9999 11.4251C7.9799 12.4851 5.36373 14.4569 3.5129 17.0681C1.66207 19.6793 0.667969 22.8009 0.667969 26.0015C0.667969 29.2021 1.66207 32.3237 3.5129 34.9349C5.36373 37.5461 7.9799 39.5179 10.9999 40.578V20.8155H52.3332V41.2238C55.2501 40.6269 57.8714 39.0413 59.7542 36.7349C61.6369 34.4285 62.6657 31.5428 62.6665 28.5655C62.6581 25.7573 61.7177 23.0314 59.9928 20.8155ZM47.2182 56.9899C47.2182 59.8393 40.2768 62.1488 31.7182 62.1488C23.1596 62.1488 16.2182 59.8393 16.2182 56.9899V51.8336C16.2182 54.6804 23.157 56.9899 31.7182 56.9899C40.2794 56.9899 47.2182 54.6804 47.2182 51.8336" fill="#E9000E"/>
        <path d="M31.7168 43.2494C23.1634 43.2494 16.2168 40.9295 16.2168 38.093V48.3334C16.2168 51.1724 23.1634 53.4923 31.7168 53.4923C40.2702 53.4923 47.2168 51.1724 47.2168 48.3334V38.093C47.2168 40.9295 40.2676 43.2494 31.7168 43.2494Z" fill="#E9000E"/>
        <path d="M47.2168 31.1411C47.2168 28.2917 40.2754 25.9822 31.7168 25.9822C23.1582 25.9822 16.2168 28.2917 16.2168 31.1411V34.5769C16.2168 37.4289 23.1556 39.7384 31.7168 39.7384C40.278 39.7384 47.2168 37.4289 47.2168 34.5795" fill="#E9000E"/>
    </g>
    <defs>
        <clipPath id="clip0_7219_76146">
            <rect width="62" height="62" fill="white" transform="translate(0.666016 0.148926)"/>
        </clipPath>
    </defs>
</svg>
