<svg width="63" height="63" viewBox="0 0 63 63" fill="none" xmlns="http://www.w3.org/2000/svg">
    <g clip-path="url(#clip0_7219_76175)">
        <path d="M31.6671 42.2205C37.7817 42.2205 42.7386 37.2636 42.7386 31.1491C42.7386 25.0345 37.7817 20.0776 31.6671 20.0776C25.5526 20.0776 20.5957 25.0345 20.5957 31.1491C20.5957 37.2636 25.5526 42.2205 31.6671 42.2205Z" stroke="#E9000E" stroke-width="4.42857" stroke-linecap="round" stroke-linejoin="round"/>
        <path d="M31.6668 20.0776V2.36328M42.7382 59.9347V53.2919H51.5954C52.7699 53.2919 53.8963 52.8253 54.7268 51.9948C55.5573 51.1642 56.0239 50.0378 56.0239 48.8633V31.149C56.0248 26.6588 54.7844 22.2558 52.4398 18.4263C50.0952 14.5968 46.7377 11.49 42.7382 9.44899M20.5954 9.44899C16.5942 11.4888 13.2349 14.5951 10.8887 18.4247C8.54249 22.2542 7.30078 26.6579 7.30078 31.149C7.30078 35.6401 8.54249 40.0438 10.8887 43.8733C13.2349 47.7029 16.5942 50.8092 20.5954 52.849V59.9347" stroke="#E9000E" stroke-width="4.42857" stroke-linecap="round" stroke-linejoin="round"/>
    </g>
    <defs>
        <clipPath id="clip0_7219_76175">
            <rect width="62" height="62" fill="white" transform="translate(0.666016 0.148926)"/>
        </clipPath>
    </defs>
</svg>
