<svg width="63" height="63" viewBox="0 0 63 63" fill="none" xmlns="http://www.w3.org/2000/svg">
    <path d="M8.41602 49.2325H54.916V54.3992H8.41602V49.2325ZM16.166 41.4825C19.0077 41.4825 21.3327 39.1575 21.3327 36.3158C21.3327 35.0242 20.816 33.7325 20.041 32.9575L23.3993 25.9825H23.916C25.2077 25.9825 26.4993 25.4658 27.2743 24.6908L34.2493 28.3075V28.5658C34.2493 31.4075 36.5743 33.7325 39.416 33.7325C42.2577 33.7325 44.5827 31.4075 44.5827 28.5658C44.5827 27.2742 44.066 26.2408 43.291 25.2075L46.6493 18.2325H47.166C50.0077 18.2325 52.3327 15.9075 52.3327 13.0658C52.3327 10.2242 50.0077 7.89917 47.166 7.89917C44.3243 7.89917 41.9993 10.2242 41.9993 13.0658C41.9993 14.3575 42.516 15.6492 43.291 16.4242L39.9327 23.3992H39.416C38.1243 23.3992 36.8327 23.9158 36.0577 24.6908L29.0827 21.3325V20.8158C29.0827 17.9742 26.7577 15.6492 23.916 15.6492C21.0743 15.6492 18.7493 17.9742 18.7493 20.8158C18.7493 22.1075 19.266 23.3992 20.041 24.1742L16.6827 31.1492H16.166C13.3243 31.1492 10.9993 33.4742 10.9993 36.3158C10.9993 39.1575 13.3243 41.4825 16.166 41.4825Z" fill="#E9000E"/>
</svg>
