<svg width="96" height="64" viewBox="0 0 96 64" fill="none" xmlns="http://www.w3.org/2000/svg">
<rect width="96" height="64" fill="white"/>
<g clip-path="url(#clip0_6744_65452)">
<path d="M12 31.6759H13.404V32.8999H13.44C13.584 32.4319 14.556 31.4599 15.996 31.4599C17.04 31.3879 18.048 31.9639 18.48 32.9359C18.984 32.0359 19.956 31.4599 21 31.4599C23.448 31.4599 24.024 33.1879 24.024 34.9879V39.5959H22.512V35.2039C22.512 34.0159 22.26 32.8999 20.82 32.8999C19.38 32.8999 18.804 33.8719 18.804 35.2759V39.6319H17.292V35.4559C17.292 33.9439 17.076 32.8639 15.636 32.8639C14.556 32.8639 13.584 33.6919 13.584 35.4559V39.5959H12V31.6759Z" fill="black"/>
<path d="M26.5792 36.2118C26.5792 37.6158 27.8752 38.5158 29.2432 38.5158C30.1792 38.5158 30.8272 38.0478 31.4392 37.3278L32.5552 38.1918C31.7272 39.2718 30.5752 39.8118 29.0272 39.8118C26.5072 39.8118 24.9592 37.9758 24.9592 35.6358C24.8872 33.4038 26.6512 31.5318 28.9192 31.4598C28.9912 31.4598 29.0632 31.4598 29.0992 31.4598C31.9072 31.4598 32.9512 33.5838 32.9512 35.6358V36.1758L26.5792 36.2118ZM31.3312 34.9878C31.2952 33.6558 30.5752 32.6838 29.0272 32.6838C27.7312 32.6838 26.6512 33.6918 26.5792 34.9878H31.3312Z" fill="black"/>
<path d="M38.1723 32.9718H36.0123V36.5718C36.0123 37.4718 36.0123 38.4078 37.1283 38.4078C37.4883 38.4438 37.8843 38.3358 38.2083 38.1558V39.5238C37.7763 39.7038 37.3083 39.8118 36.8403 39.8118C34.5003 39.8118 34.4643 38.3718 34.4643 37.1118V32.9718H32.7363V31.6758H34.4643V29.4438H35.9763V31.6758H38.1363L38.1723 32.9718Z" fill="black"/>
<path d="M39.2875 32.6478C40.1515 31.8918 41.2675 31.4598 42.4195 31.4598C44.7595 31.4598 45.7315 32.7558 45.7315 34.1238V38.1918C45.7315 38.6958 45.7675 39.1638 45.8035 39.6318H44.4715C44.4355 39.2358 44.4355 38.8038 44.4355 38.4438H44.3995C43.7515 39.4878 42.8155 39.8478 41.6275 39.8478C40.1515 39.8478 38.8555 39.0198 38.8555 37.4718C38.8555 35.4198 40.8355 34.6998 43.2475 34.6998H44.3995V34.3398C44.3995 33.5118 43.8235 32.6838 42.4915 32.6838C41.3395 32.6838 40.7995 33.1878 40.2235 33.5838L39.2875 32.6478ZM43.5715 35.8158C42.1315 35.8158 40.4035 36.0678 40.4035 37.3278C40.4035 38.2278 41.0515 38.6238 42.0955 38.6238C43.7515 38.6238 44.3635 37.3998 44.3635 36.3198V35.8158H43.5715Z" fill="black"/>
<path d="M51.5991 33.6558C51.2031 33.1518 50.6271 32.8638 49.9791 32.8638C49.2591 32.8638 48.6471 33.1878 48.6471 33.7638C48.6471 34.7358 50.0151 34.8438 50.6631 34.9878C51.9591 35.3118 52.9671 35.8158 52.9671 37.2918C52.9671 39.0918 51.3111 39.8118 49.7631 39.8118C48.4671 39.8118 47.4591 39.4518 46.7031 38.4078L47.8191 37.4718C48.3231 37.9758 48.8631 38.4078 49.7271 38.4078C50.4831 38.4078 51.3111 38.0838 51.3111 37.3998C51.3111 36.4998 50.0511 36.3198 49.4031 36.1758C48.1071 35.8518 46.9551 35.4558 46.9551 33.9078C46.9551 32.2518 48.4671 31.4598 49.9791 31.4598C51.0231 31.4598 52.1031 31.8198 52.6791 32.7558L51.5991 33.6558Z" fill="black"/>
<path d="M53.9395 31.6758H55.4515V32.7918H55.4875C56.1355 31.9278 57.1795 31.4598 58.2595 31.4598C60.7075 31.4598 62.2915 33.2958 62.2915 35.6358C62.2915 37.9758 60.7075 39.8118 58.2595 39.8118C57.1795 39.8478 56.1355 39.3438 55.4875 38.4438H55.4515V42.6198H53.9395V31.6758ZM55.4875 35.6358C55.4875 37.2198 56.4955 38.4078 58.0795 38.4078C59.6635 38.4078 60.6715 37.2918 60.6715 35.6358C60.6715 33.9798 59.6635 32.8638 58.0435 32.8638C56.4235 32.8638 55.4875 34.0518 55.4875 35.6358Z" fill="black"/>
<path d="M63.4805 26.9598H64.9925V39.6318H63.4805V26.9598Z" fill="black"/>
<path d="M69.9249 31.4958C72.2289 31.4958 74.1009 33.4038 74.1009 35.7078C74.1009 38.0118 72.1929 39.8839 69.8889 39.8839C67.5849 39.8839 65.7129 37.9759 65.7129 35.6718C65.7129 33.3678 67.5849 31.4958 69.8889 31.4958H69.9249ZM69.9249 38.4078C71.5089 38.4078 72.5169 37.2558 72.5169 35.6358C72.5169 34.0158 71.5089 32.8638 69.9249 32.8638C68.3409 32.8638 67.3329 34.0158 67.3329 35.6358C67.3329 37.2558 68.3049 38.4078 69.9249 38.4078Z" fill="black"/>
<path d="M75.6121 27.7159C76.2241 27.7159 76.7281 28.2199 76.7281 28.8319C76.7281 29.4439 76.2241 29.9479 75.6121 29.9479C75.0001 29.9479 74.4961 29.4439 74.4961 28.8319C74.4961 28.2199 75.0001 27.7159 75.6121 27.7159ZM74.8561 31.6759H76.3681V39.6319H74.8561V31.6759Z" fill="black"/>
<path d="M82.3442 32.9718H80.1842V36.5718C80.1842 37.4718 80.1842 38.4078 81.3002 38.4078C81.6602 38.4438 82.0562 38.3358 82.3802 38.1558V39.5238C81.9482 39.7038 81.4802 39.8118 81.0122 39.8118C78.6722 39.8118 78.6362 38.3718 78.6362 37.1118V32.9718H76.9082V31.6758H78.6362V29.4438H80.1482V31.6758H82.3082V32.9718H82.3442Z" fill="black"/>
<path d="M82.811 27.0679C83.459 27.0679 83.999 27.6079 83.999 28.2559C83.999 28.9039 83.459 29.4439 82.811 29.4439C82.163 29.4439 81.623 28.9039 81.623 28.2559C81.623 27.6079 82.163 27.0679 82.811 27.0679ZM82.811 29.2279C83.351 29.2279 83.819 28.7599 83.819 28.2199C83.819 27.6799 83.351 27.2119 82.811 27.2119C82.271 27.2119 81.803 27.6799 81.803 28.2199C81.803 28.7599 82.271 29.2279 82.811 29.2279ZM82.559 28.9039H82.379V27.5359H82.883C83.171 27.5359 83.3151 27.6439 83.3151 27.8959C83.3151 28.1119 83.1711 28.2559 82.9551 28.2919L83.3871 28.8679H83.2071L82.811 28.2919H82.559V28.9039ZM82.559 28.1479H82.7751C82.9551 28.1479 83.171 28.1479 83.171 27.8959C83.171 27.7159 83.027 27.6799 82.883 27.6799H82.559V28.1479Z" fill="black"/>
<path d="M15.528 23.9359H14.124L14.412 22.5679H15.708C16.14 22.5679 16.392 22.7839 16.392 23.1439C16.392 23.5759 16.032 23.9359 15.6 23.9359C15.564 23.9359 15.564 23.9359 15.528 23.9359ZM17.832 22.9999C17.832 22.0639 17.112 21.3799 15.852 21.3799H13.26L12 27.1039H13.44L13.872 25.1239H14.7L15.528 27.1039H16.968L16.068 25.0519C17.076 24.9079 17.832 24.0439 17.832 22.9999Z" fill="black"/>
<path d="M20.2792 24.9799L21.5032 22.8559L21.9712 24.9799H20.2792ZM20.9272 21.3799L17.6152 27.1039H19.0552L19.5952 26.1679H22.2592L22.4752 27.1039H23.9152L22.6192 21.3799H20.9272Z" fill="black"/>
<path d="M27.9836 23.9359H26.7236L27.0116 22.5679H28.1276C28.5596 22.5679 28.8476 22.7839 28.8476 23.1439C28.8116 23.6119 28.4516 23.9359 27.9836 23.9359ZM28.2716 21.3799H25.8596L24.5996 27.1039H26.0396L26.4716 25.1239H28.0556C29.2436 25.1599 30.2156 24.2599 30.2516 23.0719C30.2516 23.0359 30.2516 23.0359 30.2516 22.9999C30.2516 22.0639 29.4956 21.3799 28.2716 21.3799Z" fill="black"/>
<path d="M32.9882 21.3799H31.5842L30.3242 27.1039H31.7282L32.9882 21.3799Z" fill="black"/>
<path d="M43.2473 21.3799H38.7473L38.9633 21.5959C39.4673 22.2439 39.7553 22.9999 39.7193 23.8279C39.7193 25.0879 39.2153 26.2759 38.2793 27.1039H41.0513L42.3473 23.8279H40.6913L40.9793 22.5679H44.2553L42.5273 27.1039H43.2113C44.7953 27.1039 45.8393 25.8079 45.8393 24.2239C45.8393 22.6399 44.8313 21.3799 43.2473 21.3799Z" fill="#E95F26"/>
<path d="M35.2926 25.9159H34.5006L35.2206 22.5679H35.9766C36.6606 22.5319 37.2726 23.1079 37.2726 23.7919C37.2726 23.8279 37.2726 23.8639 37.2726 23.9359C37.3086 25.0159 36.4446 25.8799 35.4006 25.9159C35.3646 25.9159 35.3286 25.9159 35.2926 25.9159ZM38.1726 22.3159C37.5966 21.6679 36.7686 21.3439 35.9046 21.3799H34.0686L32.8086 27.1039H35.1126C35.8686 27.1039 36.5886 26.9599 37.2366 26.5999C38.1726 25.9879 38.7126 24.9439 38.6766 23.8279C38.6766 23.2879 38.4966 22.7479 38.1726 22.3159Z" fill="black"/>
</g>
<defs>
<clipPath id="clip0_6744_65452">
<rect width="72" height="21.24" fill="white" transform="translate(12 21.3799)"/>
</clipPath>
</defs>
</svg>
