<svg width="96" height="64" viewBox="0 0 96 64" fill="none" xmlns="http://www.w3.org/2000/svg">
<rect width="96" height="64" fill="white"/>
<g clip-path="url(#clip0_6744_65399)">
<path d="M42.0615 26.6359C42.4935 27.0679 42.7095 27.6799 42.7095 28.4359V34.2679H40.6215V28.7239C40.6215 28.2559 40.5495 27.8959 40.3695 27.7159C40.1895 27.5359 39.9375 27.4279 39.5775 27.4279C39.2175 27.4279 38.8935 27.5359 38.6055 27.7519C38.2815 28.0039 37.9935 28.3279 37.7775 28.6519V34.2679H35.6895V26.2039H37.4895L37.6335 27.2479C38.3535 26.3839 39.2175 25.9519 40.2615 25.9519C41.0175 25.9879 41.6295 26.2039 42.0615 26.6359Z" fill="#00829B"/>
<path d="M51.4927 30.8479H46.0927C46.1647 31.6399 46.3807 32.1799 46.7407 32.5399C47.1007 32.8999 47.6047 33.0439 48.2167 33.0439C48.5767 33.0439 48.9367 32.9719 49.2967 32.8639C49.6567 32.7199 50.0167 32.5399 50.3767 32.3239L51.2407 33.4399C50.3407 34.1599 49.2247 34.5199 48.0727 34.5199C46.7767 34.5199 45.7687 34.1599 45.0487 33.4039C44.3287 32.6479 43.9688 31.6399 43.9688 30.3079C43.9688 29.5519 44.1127 28.7959 44.4367 28.0759C44.7247 27.4639 45.1567 26.9239 45.7327 26.5279C46.3087 26.1679 46.9927 25.9879 47.7847 25.9879C48.9727 25.9879 49.9087 26.3479 50.5567 27.0679C51.2047 27.7879 51.5287 28.7959 51.5287 30.0559C51.5287 30.1639 51.5287 30.4159 51.4927 30.8479ZM49.4767 29.4799C49.4767 28.0759 48.9367 27.3559 47.8207 27.3559C47.3167 27.3559 46.9207 27.5359 46.6327 27.8959C46.3447 28.2559 46.1647 28.7959 46.1287 29.5879H49.5127V29.4799H49.4767Z" fill="#00829B"/>
<path d="M58.7289 26.9239L57.9009 28.0759C57.1809 27.6439 56.4609 27.4279 55.7409 27.4279C55.3449 27.4279 55.0209 27.4999 54.8049 27.6439C54.5889 27.7519 54.4809 28.0039 54.4809 28.2199C54.4809 28.3999 54.5169 28.5439 54.6249 28.6879C54.7329 28.7959 54.9129 28.9399 55.1649 29.0479C55.5249 29.1919 55.9209 29.2999 56.2809 29.4079C57.2169 29.6239 57.9009 29.9479 58.3329 30.3439C58.7649 30.7399 59.0169 31.2799 59.0169 31.9639C59.0169 32.7559 58.6569 33.4039 57.9729 33.8359C57.2889 34.2679 56.4249 34.5199 55.3809 34.5199C54.7329 34.5199 54.0849 34.4119 53.4729 34.2319C52.9329 34.0519 52.4289 33.7639 51.9609 33.4039L53.0049 32.3239C53.7609 32.8639 54.5169 33.1159 55.3449 33.1159C55.8129 33.1159 56.1729 33.0439 56.4609 32.8639C56.7129 32.7199 56.8929 32.4319 56.8569 32.1439C56.8569 31.9639 56.8209 31.7479 56.7129 31.6039C56.6049 31.4599 56.4249 31.3519 56.1729 31.2439C55.7769 31.0999 55.3449 30.9559 54.9489 30.8479C54.0849 30.6319 53.4369 30.3079 53.0049 29.9119C52.6089 29.5159 52.3569 28.9759 52.3929 28.3999C52.3929 27.9679 52.5369 27.5359 52.7889 27.2119C53.1129 26.8159 53.5089 26.5279 53.9409 26.3839C54.4809 26.1679 55.0929 26.0599 55.6689 26.0959C56.8569 25.9879 57.8649 26.3119 58.7289 26.9239Z" fill="#00829B"/>
<path d="M66.181 26.9239L65.353 28.0759C64.633 27.6439 63.913 27.4279 63.1929 27.4279C62.7969 27.4279 62.473 27.4999 62.221 27.6439C62.005 27.7519 61.897 28.0039 61.897 28.2199C61.897 28.3999 61.933 28.5439 62.041 28.6879C62.149 28.7959 62.329 28.9399 62.581 29.0479C62.941 29.1919 63.337 29.2999 63.697 29.4079C64.633 29.6239 65.317 29.9479 65.749 30.3439C66.181 30.7399 66.433 31.2799 66.433 31.9639C66.433 32.7559 66.073 33.4039 65.389 33.8359C64.705 34.2679 63.841 34.5199 62.797 34.5199C62.149 34.5199 61.501 34.4119 60.889 34.2319C60.349 34.0519 59.845 33.7639 59.377 33.4039L60.421 32.3239C61.177 32.8639 61.933 33.1159 62.761 33.1159C63.229 33.1159 63.589 33.0439 63.877 32.8639C64.129 32.7199 64.309 32.4319 64.273 32.1439C64.273 31.9639 64.237 31.7479 64.129 31.6039C64.021 31.4599 63.841 31.3519 63.589 31.2439C63.193 31.0999 62.7609 30.9559 62.3649 30.8479C61.5009 30.6319 60.853 30.3079 60.421 29.9119C60.025 29.5159 59.773 28.9759 59.809 28.3999C59.809 27.9679 59.9529 27.5359 60.2049 27.2119C60.5289 26.8159 60.925 26.5279 61.357 26.3839C61.897 26.1679 62.5089 26.0599 63.0849 26.0959C64.2729 25.9879 65.281 26.3119 66.181 26.9239Z" fill="#00829B"/>
<path d="M74.4257 34.2679H72.6257L72.5177 33.1519C72.2297 33.5839 71.8697 33.9439 71.4017 34.1599C70.9337 34.3759 70.3937 34.5199 69.8897 34.4839C69.1337 34.4839 68.5217 34.2679 68.1257 33.8359C67.6937 33.4039 67.5137 32.7919 67.5137 31.9999V26.2039H69.6017V31.7479C69.6017 32.2159 69.6737 32.5399 69.8537 32.7199C70.0337 32.8999 70.2857 33.0079 70.6457 33.0079C71.2937 33.0079 71.8697 32.6119 72.3737 31.8559V26.2039H74.4617L74.4257 34.2679Z" fill="#00829B"/>
<path d="M82.0922 26.9239L81.2642 28.0759C80.5442 27.6439 79.8242 27.4279 79.1042 27.4279C78.7082 27.4279 78.3842 27.4999 78.1682 27.6439C77.9522 27.7519 77.8442 28.0039 77.8442 28.2199C77.8442 28.3999 77.8802 28.5439 77.9882 28.6879C78.0962 28.7959 78.2762 28.9399 78.5282 29.0479C78.8882 29.1919 79.2842 29.2999 79.6442 29.4079C80.5802 29.6239 81.2642 29.9479 81.6962 30.3439C82.1282 30.7399 82.3802 31.2799 82.3802 31.9639C82.3802 32.7559 82.0202 33.4039 81.3362 33.8359C80.6522 34.2679 79.7882 34.5199 78.7442 34.5199C78.0962 34.5199 77.4482 34.4119 76.8362 34.2319C76.2962 34.0519 75.7922 33.7639 75.3242 33.4039L76.3682 32.3239C77.1242 32.8639 77.8802 33.1159 78.7082 33.1159C79.1762 33.1159 79.5362 33.0439 79.8242 32.8639C80.0762 32.7199 80.2562 32.4319 80.2202 32.1439C80.2202 31.9639 80.1842 31.7479 80.0762 31.6039C79.9682 31.4599 79.7882 31.3519 79.5362 31.2439C79.1402 31.0999 78.7082 30.9559 78.2762 30.8479C77.4122 30.6319 76.7642 30.3079 76.3322 29.9119C75.9362 29.5159 75.6842 28.9759 75.7202 28.3999C75.7202 27.9679 75.8642 27.5359 76.1162 27.2119C76.4402 26.8159 76.8362 26.5279 77.2682 26.3839C77.8082 26.1679 78.4202 26.0599 78.9962 26.0959C80.2202 25.9879 81.2282 26.3119 82.0922 26.9239Z" fill="#00829B"/>
<path d="M83.7136 24.3679C83.7856 24.4039 83.8576 24.4759 83.9296 24.5839C83.9656 24.6559 84.0016 24.7639 84.0016 24.8719C84.0016 24.9799 83.9656 25.0879 83.9296 25.1599C83.8936 25.2319 83.8216 25.3039 83.7136 25.3759C83.6056 25.4119 83.5336 25.4479 83.4256 25.4479C83.3176 25.4479 83.2096 25.4119 83.1376 25.3759C83.0656 25.3399 82.9936 25.2679 82.9216 25.1599C82.8856 25.0879 82.8496 24.9799 82.8496 24.8719C82.8496 24.7639 82.8856 24.6559 82.9216 24.5839C82.9576 24.5119 83.0296 24.4399 83.1376 24.3679C83.3176 24.2599 83.5336 24.2599 83.7136 24.3679ZM83.6416 25.2679C83.7136 25.2319 83.7496 25.1599 83.7856 25.1239C83.8216 25.0519 83.8576 24.9799 83.8576 24.9079C83.8576 24.8359 83.8576 24.7639 83.7856 24.6919C83.7496 24.6199 83.7136 24.5839 83.6416 24.5479C83.5696 24.5119 83.4976 24.4759 83.4256 24.4759C83.3536 24.4759 83.2816 24.5119 83.2096 24.5479C83.1376 24.5839 83.1016 24.6559 83.0656 24.6919C83.0296 24.7639 82.9936 24.8359 82.9936 24.9079C82.9936 24.9799 82.9936 25.0519 83.0656 25.1239C83.1016 25.1959 83.1376 25.2319 83.2096 25.2679C83.2816 25.3039 83.3536 25.3399 83.4256 25.3399C83.4976 25.3039 83.5696 25.3039 83.6416 25.2679ZM83.6416 24.8359C83.6056 24.8719 83.5696 24.8719 83.5336 24.9079L83.7136 25.1599H83.5336L83.3896 24.9439H83.3536V25.1599H83.2096V24.5479H83.3896C83.5696 24.5479 83.6776 24.6199 83.6776 24.7279C83.6776 24.7639 83.6416 24.7999 83.6416 24.8359ZM83.3536 24.8359H83.4256C83.4976 24.8359 83.5336 24.7999 83.5336 24.7639C83.5336 24.7279 83.4976 24.6919 83.4256 24.6919H83.3536V24.8359Z" fill="#00829B"/>
<path d="M37.8124 37.7239C38.1364 37.9759 38.3164 38.2999 38.3164 38.7679C38.3164 39.2719 38.1364 39.6319 37.8124 39.8839C37.4524 40.1359 37.0204 40.2439 36.4444 40.2439H35.8324V41.9359H35.1484V37.3639H36.4444C37.0204 37.3639 37.4884 37.4719 37.8124 37.7239ZM37.3084 39.5599C37.5244 39.4159 37.6324 39.1639 37.6324 38.8039C37.6324 38.4799 37.5244 38.2279 37.3084 38.0839C37.0924 37.9399 36.8044 37.8679 36.4444 37.8679H35.8324V39.7399H36.4084C36.8044 39.7399 37.0924 39.6679 37.3084 39.5599Z" fill="#00829B"/>
<path d="M40.98 38.4079L40.872 39.0199C40.764 38.9839 40.656 38.9839 40.548 38.9839C40.332 38.9839 40.116 39.0559 39.972 39.2359C39.828 39.3799 39.72 39.6319 39.648 39.9919V42.0079H39V38.5159H39.576L39.648 39.2359C39.72 39.0199 39.864 38.8039 40.044 38.6599C40.224 38.5159 40.44 38.4439 40.62 38.4439C40.728 38.3359 40.872 38.3719 40.98 38.4079Z" fill="#00829B"/>
<path d="M44.1484 38.84C44.4364 39.164 44.5804 39.596 44.5804 40.172C44.5804 40.496 44.5084 40.82 44.3644 41.144C44.2564 41.396 44.0404 41.648 43.7884 41.792C43.5364 41.936 43.2124 42.044 42.8884 42.008C42.3484 42.008 41.9524 41.828 41.6644 41.504C41.3764 41.18 41.2324 40.748 41.2324 40.172C41.2324 39.848 41.3044 39.524 41.4484 39.2C41.5564 38.948 41.7724 38.696 42.0244 38.552C42.3124 38.408 42.6004 38.3 42.9244 38.336C43.4644 38.336 43.8604 38.516 44.1484 38.84ZM41.9524 40.172C41.9524 41.072 42.2764 41.504 42.9244 41.504C43.5724 41.504 43.8964 41.072 43.8964 40.172C43.8964 39.272 43.5724 38.84 42.9604 38.84C42.2764 38.84 41.9524 39.308 41.9524 40.172Z" fill="#00829B"/>
<path d="M46.3443 37.5799C46.2363 37.6879 46.2003 37.7959 46.2003 37.9399V38.4079H47.1003L47.0283 38.8759H46.2003V41.8999H45.5523V38.8759H44.9043V38.4079H45.5523V37.9399C45.5523 37.6519 45.6603 37.3999 45.8763 37.2199C46.0923 37.0399 46.3803 36.9319 46.7403 36.9319C46.8843 36.9319 47.0283 36.9319 47.2083 36.9679C47.3523 37.0039 47.4963 37.0399 47.6403 37.1119L47.4243 37.5799C47.2083 37.5079 46.9923 37.4359 46.7763 37.4359C46.5603 37.4359 46.4163 37.4719 46.3443 37.5799Z" fill="#00829B"/>
<path d="M50.4858 40.3879H48.1098C48.1458 40.7839 48.2538 41.0719 48.4338 41.2519C48.6138 41.4319 48.8658 41.5399 49.1178 41.5399C49.2978 41.5399 49.4418 41.5039 49.6218 41.4679C49.8018 41.3959 49.9458 41.3239 50.0898 41.2519L50.3778 41.6119C50.0178 41.8999 49.5498 42.0439 49.0818 42.0439C48.5778 42.0439 48.1458 41.8999 47.8578 41.5759C47.5698 41.2519 47.4258 40.8199 47.4258 40.2439C47.4258 39.9199 47.4978 39.5959 47.6058 39.2719C47.7138 39.0199 47.8938 38.7679 48.1458 38.6239C48.3978 38.4439 48.6858 38.3719 48.9738 38.3719C49.4778 38.3719 49.8378 38.5159 50.1258 38.8399C50.3778 39.1279 50.5218 39.5599 50.5218 40.0999C50.4858 40.1719 50.4858 40.2799 50.4858 40.3879ZM49.8378 39.8839C49.8378 39.5239 49.7658 39.2719 49.6218 39.0919C49.4778 38.9119 49.2618 38.8039 48.9738 38.8039C48.4338 38.8039 48.1458 39.1639 48.1098 39.9199H49.8378V39.8839Z" fill="#00829B"/>
<path d="M53.1131 38.4439C53.3291 38.5159 53.5091 38.6239 53.6891 38.7319L53.4011 39.1279C53.2571 39.0199 53.0771 38.9479 52.9331 38.9119C52.7891 38.8759 52.6091 38.8399 52.4651 38.8399C52.2851 38.8399 52.1051 38.8759 51.9611 38.9479C51.8531 39.0199 51.7811 39.1639 51.7811 39.2719C51.7811 39.4159 51.8531 39.5239 51.9611 39.5959C52.0691 39.6679 52.2851 39.7399 52.5731 39.8119C53.0051 39.9199 53.2931 40.0279 53.5091 40.2079C53.7251 40.3879 53.8331 40.6399 53.8331 40.8919C53.8331 41.2159 53.6891 41.5039 53.4011 41.6839C53.0771 41.8639 52.7171 41.9719 52.3571 41.9719C51.7811 41.9719 51.3131 41.8279 50.9531 41.5039L51.3131 41.1439C51.6011 41.3599 51.9971 41.4679 52.3571 41.4679C52.5731 41.4679 52.7531 41.4319 52.9331 41.3239C53.0771 41.2519 53.1491 41.1079 53.1491 40.9279C53.1491 40.8199 53.1131 40.7119 53.0771 40.6399C53.0051 40.5679 52.8971 40.4959 52.8251 40.4599C52.6451 40.3879 52.4651 40.3159 52.2491 40.2799C51.8531 40.1719 51.5651 40.0639 51.3851 39.8839C51.2051 39.7399 51.0971 39.4879 51.1331 39.2719C51.1331 39.0919 51.2051 38.9119 51.3131 38.7679C51.4211 38.6239 51.6011 38.4799 51.7811 38.4079C51.9971 38.3359 52.2491 38.2639 52.4651 38.2999C52.6811 38.3359 52.8971 38.3719 53.1131 38.4439Z" fill="#00829B"/>
<path d="M56.3885 38.4439C56.6045 38.5159 56.7845 38.6239 56.9645 38.7319L56.6765 39.1279C56.5325 39.0199 56.3525 38.9479 56.2085 38.9119C56.0645 38.8759 55.8845 38.8399 55.7405 38.8399C55.5605 38.8399 55.3805 38.8759 55.2365 38.9479C55.1285 39.0199 55.0565 39.1639 55.0565 39.2719C55.0565 39.4159 55.1285 39.5239 55.2365 39.5959C55.4165 39.7039 55.6325 39.7759 55.8485 39.8119C56.2805 39.9199 56.5685 40.0279 56.7845 40.2079C57.0005 40.3879 57.1085 40.6399 57.1085 40.8919C57.1085 41.2159 56.9645 41.5039 56.6765 41.6839C56.3525 41.8639 55.9925 41.9719 55.6325 41.9719C55.0565 41.9719 54.5885 41.8279 54.2285 41.5039L54.5885 41.1439C54.8765 41.3599 55.2725 41.4679 55.6325 41.4679C55.8485 41.4679 56.0285 41.4319 56.2085 41.3239C56.3525 41.2519 56.4245 41.1079 56.4245 40.9279C56.4245 40.8199 56.3885 40.7119 56.3525 40.6399C56.2805 40.5679 56.1725 40.4959 56.1005 40.4599C55.9205 40.3879 55.7405 40.3159 55.5245 40.2799C55.1285 40.1719 54.8405 40.0639 54.6605 39.8839C54.4805 39.7399 54.3725 39.4879 54.4085 39.2719C54.4085 39.0919 54.4805 38.9119 54.5885 38.7679C54.6965 38.6239 54.8765 38.4799 55.0565 38.4079C55.2725 38.3359 55.5245 38.2639 55.7405 38.2999C55.9205 38.3359 56.1725 38.3719 56.3885 38.4439Z" fill="#00829B"/>
<path d="M58.4404 36.86C58.5124 36.932 58.5844 37.04 58.5844 37.148C58.5844 37.256 58.5484 37.364 58.4404 37.436C58.3324 37.508 58.2244 37.544 58.1164 37.544C58.0084 37.544 57.8644 37.508 57.7924 37.436C57.7204 37.364 57.6484 37.256 57.6484 37.148C57.6484 37.04 57.6844 36.932 57.7924 36.86C57.8644 36.788 58.0084 36.752 58.1164 36.752C58.2244 36.752 58.3324 36.788 58.4404 36.86ZM58.4404 38.444V41.936H57.7924V38.444H58.4404Z" fill="#00829B"/>
<path d="M62.1484 38.84C62.4364 39.164 62.5804 39.596 62.5804 40.172C62.5804 40.496 62.5084 40.82 62.3644 41.144C62.2564 41.396 62.0404 41.648 61.7884 41.792C61.5364 41.936 61.2124 42.044 60.8884 42.008C60.3844 42.008 59.9524 41.828 59.6644 41.504C59.3764 41.18 59.2324 40.748 59.2324 40.172C59.2324 39.848 59.3044 39.524 59.4484 39.2C59.5564 38.948 59.7724 38.696 60.0244 38.552C60.3124 38.408 60.6004 38.3 60.9244 38.336C61.4644 38.336 61.8604 38.516 62.1484 38.84ZM59.9524 40.172C59.9524 41.072 60.2764 41.504 60.9244 41.504C61.5724 41.504 61.8964 41.072 61.8964 40.172C61.8964 39.272 61.5724 38.84 60.9604 38.84C60.2764 38.84 59.9524 39.308 59.9524 40.172Z" fill="#00829B"/>
<path d="M66.0005 38.6239C66.1805 38.8039 66.2885 39.0919 66.2885 39.4159V41.9359H65.6405V39.5239C65.6405 39.2719 65.6045 39.0919 65.4965 38.9839C65.3885 38.8759 65.2085 38.8039 65.0645 38.8399C64.8845 38.8399 64.7045 38.8759 64.5605 38.9839C64.3805 39.0919 64.2365 39.2719 64.1285 39.4519V41.9359H63.4805V38.4439H64.0565L64.1285 38.9479C64.2725 38.7679 64.4165 38.6239 64.6325 38.5159C64.8485 38.4079 65.0645 38.3359 65.2805 38.3719C65.5325 38.3359 65.7845 38.4439 66.0005 38.6239Z" fill="#00829B"/>
<path d="M69.9247 41.4319C69.9967 41.5039 70.0687 41.5759 70.1407 41.5759L69.9967 42.0079C69.8167 42.0079 69.6727 41.9359 69.5287 41.8639C69.4207 41.7559 69.3127 41.6479 69.2767 41.5039C69.0247 41.8639 68.6647 42.0079 68.1607 42.0079C67.8007 42.0079 67.5127 41.8999 67.2967 41.7199C66.8647 41.2879 66.8647 40.6399 67.2967 40.2079C67.3327 40.1719 67.3687 40.1359 67.4047 40.0999C67.6927 39.8839 68.0887 39.8119 68.6287 39.8119H69.2047V39.5599C69.2047 39.3079 69.1327 39.1279 69.0247 39.0199C68.9167 38.9119 68.7007 38.8759 68.4487 38.8759C68.1247 38.8759 67.7647 38.9479 67.4407 39.0559L67.2607 38.6239C67.6567 38.4799 68.1247 38.4079 68.5567 38.3719C68.9887 38.3719 69.3127 38.4799 69.5287 38.6599C69.7447 38.8759 69.8527 39.1639 69.8527 39.5239V41.1079C69.8527 41.2159 69.8887 41.3239 69.9247 41.4319ZM69.2047 40.9999V40.2079H68.7007C68.0167 40.2079 67.6567 40.4599 67.6567 40.9279C67.6567 41.1079 67.6927 41.2879 67.8367 41.3959C67.9807 41.5039 68.1247 41.5759 68.3047 41.5399C68.7007 41.5399 68.9887 41.3599 69.2047 40.9999Z" fill="#00829B"/>
<path d="M71.1125 41.7919C70.9685 41.6479 70.8965 41.4319 70.8965 41.2159V37.0399L71.5445 36.9679V41.2519C71.5445 41.3239 71.5445 41.3959 71.5805 41.4679C71.6165 41.5039 71.6885 41.5399 71.7605 41.5399C71.8325 41.5399 71.9405 41.5399 72.0125 41.5039L72.1925 41.9359C72.0485 42.0079 71.8685 42.0439 71.6885 42.0439C71.4725 42.0079 71.2565 41.9359 71.1125 41.7919Z" fill="#00829B"/>
<path d="M32.233 34.1959C32.161 33.9799 31.981 33.2239 31.765 32.5039L30.217 26.7799C30.037 26.0599 29.821 25.3039 29.749 25.0879C29.641 24.7639 29.389 24.4759 29.029 24.3679L27.373 23.8999L21.649 22.3519L19.921 21.8839C19.561 21.8119 19.201 21.9199 18.949 22.1359L12.289 28.8319C12.073 29.0839 11.965 29.3719 12.001 29.6959L12.037 29.8759L14.017 37.2199C14.197 37.9399 14.413 38.6959 14.485 38.9119C14.593 39.2359 14.845 39.5239 15.205 39.6319L16.645 40.0279L22.621 41.6119L24.025 42.0079L24.313 42.0799C24.673 42.1519 25.033 42.0439 25.285 41.8279L26.545 40.5679L30.721 36.3919C31.261 35.8519 31.801 35.3119 31.981 35.1319C32.197 34.8799 32.305 34.5199 32.233 34.1959ZM12.757 29.2999L19.417 22.6039C19.525 22.5319 19.633 22.4959 19.741 22.5319L28.885 24.9799C28.993 25.0159 29.101 25.1239 29.137 25.2319C29.209 25.4479 29.389 26.2039 29.605 26.9239L31.405 33.6919C31.477 34.0159 31.549 34.2679 31.585 34.3759C31.585 34.4839 31.549 34.6279 31.477 34.6999L24.817 41.3959C24.709 41.4679 24.601 41.5039 24.493 41.4679L24.241 41.4319L22.765 41.0359L15.349 39.0199C15.277 39.0199 15.241 38.9839 15.205 38.9479C15.169 38.9119 15.133 38.8399 15.097 38.8039C15.061 38.6239 14.917 38.1199 14.773 37.5439L13.117 31.3519C12.937 30.7039 12.757 30.0199 12.685 29.7319L12.649 29.6239C12.649 29.5159 12.685 29.4079 12.757 29.2999Z" fill="#00829B"/>
</g>
<defs>
<clipPath id="clip0_6744_65399">
<rect width="72" height="20.52" fill="white" transform="translate(12 21.7399)"/>
</clipPath>
</defs>
</svg>
