<svg width="96" height="64" viewBox="0 0 96 64" fill="none" xmlns="http://www.w3.org/2000/svg">
<rect width="96" height="64" fill="white"/>
<g clip-path="url(#clip0_6744_65370)">
<path d="M25.3264 33.866C25.3264 35.7207 24.6738 37.1518 23.3572 38.2279C22.0407 39.3041 20.186 39.8422 17.8047 39.8422C15.5951 39.8422 13.6832 39.4186 12.0117 38.5828V34.5186C13.3855 35.1139 14.5762 35.5947 15.5379 35.8352C16.4996 36.0756 17.3925 36.1901 18.171 36.1901C19.1327 36.1901 19.8425 36.0069 20.3806 35.652C20.9187 35.2971 21.1591 34.759 21.1591 34.0377C21.1591 33.6141 21.0446 33.2592 20.8042 32.9616C20.5638 32.6639 20.2661 32.3663 19.7853 32.0686C19.3045 31.7709 18.4687 31.2901 17.1521 30.6948C15.8928 30.0994 14.9426 29.5614 14.3472 29.0233C13.7519 28.4852 13.2138 27.8326 12.8589 27.1114C12.504 26.3901 12.3208 25.5544 12.3208 24.6041C12.3208 22.8067 12.9162 21.3756 14.1755 20.3567C15.4348 19.3378 17.0834 18.8112 19.2358 18.8112C20.3119 18.8112 21.3308 18.9256 22.2811 19.1661C23.2313 19.4065 24.2502 19.7614 25.3264 20.2422L23.9526 23.5852C22.8764 23.1044 21.9834 22.8067 21.2622 22.6235C20.5409 22.4404 19.8311 22.3831 19.1671 22.3831C18.3313 22.3831 17.736 22.5663 17.2552 22.9784C16.7743 23.3906 16.6026 23.8714 16.6026 24.4667C16.6026 24.8217 16.6598 25.188 16.843 25.4857C17.0262 25.7833 17.3239 26.0238 17.6788 26.3214C18.0337 26.6191 18.9953 27.0427 20.4264 27.7525C22.3383 28.6455 23.6549 29.6071 24.3647 30.5001C25.0745 31.3931 25.3264 32.5609 25.3264 33.866Z" fill="#2D2D2D"/>
<path d="M28.498 19.8873C28.498 18.5135 29.2765 17.7922 30.8336 17.7922C32.3906 17.7922 33.1691 18.5135 33.1691 19.8873C33.1691 20.5399 32.9859 21.078 32.5737 21.4443C32.1616 21.8107 31.6121 21.9824 30.845 21.9824C29.2765 21.9824 28.498 21.2612 28.498 19.8873ZM32.9744 39.6132H28.727V23.8943H32.9744V39.6132Z" fill="#2D2D2D"/>
<path d="M44.5146 39.8422C42.0074 39.8422 40.0382 39.1209 38.5957 37.7471C37.1646 36.3732 36.4434 34.4041 36.4434 31.8282C36.4434 29.195 37.0959 27.1686 38.4125 25.7375C39.7291 24.3065 41.5151 23.5852 43.8506 23.5852C46.0602 23.5852 47.7889 24.2378 48.991 25.4971C50.1816 26.7565 50.8456 28.4852 50.8456 30.6948V32.8013H40.8053C40.8625 33.9919 41.2289 34.9536 41.8814 35.6749C42.534 36.3961 43.4957 36.6938 44.6863 36.6938C45.648 36.6938 46.541 36.5793 47.3767 36.3961C48.2125 36.213 49.1055 35.8581 50.0099 35.4345V38.7202C49.2314 39.0751 48.4529 39.3728 47.6172 39.5559C46.7814 39.7277 45.7625 39.8422 44.5146 39.8422ZM43.9193 26.642C43.0263 26.642 42.305 26.9396 41.7669 27.4777C41.2289 28.0158 40.9312 28.8515 40.874 29.9277H46.8501C46.8501 28.8515 46.5524 28.073 46.0144 27.4777C45.4763 26.8824 44.8123 26.642 43.9193 26.642Z" fill="#2D2D2D"/>
<path d="M67.9954 23.8944V26.0467L65.5454 26.6993C66.0263 27.4205 66.198 28.1876 66.198 29.0348C66.198 30.7063 65.6027 32.0228 64.4692 32.9731C63.3358 33.9347 61.6644 34.4041 59.5693 34.4041L58.7908 34.3469L58.1382 34.2897C57.7146 34.6446 57.4856 35.0109 57.4856 35.4231C57.4856 36.0184 58.2641 36.316 59.8211 36.316H62.5115C64.2403 36.316 65.5569 36.671 66.4499 37.4495C67.3428 38.228 67.8237 39.2469 67.8237 40.678C67.8237 42.5326 67.0452 43.9064 65.5569 44.9254C64.0685 45.9443 61.8475 46.4137 58.9854 46.4137C56.7758 46.4137 55.1616 46.0588 53.9709 45.2803C52.7803 44.5018 52.2422 43.4256 52.2422 42.0518C52.2422 41.0901 52.5398 40.323 53.1352 39.659C53.7305 39.0065 54.5662 38.5829 55.6997 38.2852C55.2761 38.102 54.8639 37.8044 54.5662 37.3922C54.2686 36.9686 54.0854 36.4992 54.0854 36.0184C54.0854 35.4231 54.2686 34.9422 54.6235 34.5301C54.9784 34.1065 55.4592 33.7516 56.1118 33.3394C55.2761 32.9845 54.6235 32.4464 54.1426 31.6107C53.6618 30.7749 53.4214 29.882 53.4214 28.863C53.4214 27.1343 53.9595 25.8177 55.0929 24.9247C56.2263 24.0317 57.7833 23.5509 59.8784 23.5509C60.302 23.5509 60.8401 23.6081 61.4354 23.6654C62.0307 23.7226 62.4543 23.7799 62.5688 23.8486H68.0069V23.8944H67.9954ZM55.9286 41.8228C55.9286 42.4181 56.2263 42.899 56.7644 43.1966C57.3025 43.4943 58.1382 43.6775 59.1571 43.6775C60.7141 43.6775 61.9048 43.4371 62.7405 43.0249C63.5763 42.6013 64.0571 42.006 64.0571 41.2962C64.0571 40.7008 63.8167 40.2773 63.2786 40.1055C62.7405 39.8651 61.962 39.7506 60.8859 39.7506H58.6763C57.8978 39.7506 57.2452 39.9338 56.7071 40.2887C56.169 40.6436 55.9286 41.1588 55.9286 41.8228ZM57.4742 29.0348C57.4742 29.8705 57.6574 30.5231 58.0695 31.0612C58.4931 31.5992 59.0312 31.7824 59.8669 31.7824C60.6454 31.7824 61.2408 31.542 61.6644 31.0612C62.0879 30.5803 62.2024 29.8705 62.2024 29.0348C62.2024 27.1229 61.4239 26.2299 59.8669 26.2299C58.2527 26.2184 57.4742 27.1801 57.4742 29.0348Z" fill="#2D2D2D"/>
<path d="M77.6689 39.8422C75.1617 39.8422 73.1925 39.1209 71.75 37.7471C70.3189 36.3732 69.5977 34.4041 69.5977 31.8282C69.5977 29.195 70.2502 27.1686 71.5668 25.7375C72.8834 24.3065 74.6694 23.5852 77.0049 23.5852C79.2144 23.5852 80.9432 24.2378 82.1453 25.4971C83.3474 26.7565 84.0114 28.4966 84.0114 30.7062V32.8013H73.9138C73.971 33.9919 74.3374 34.9536 74.9899 35.6749C75.6425 36.3961 76.6042 36.6938 77.7948 36.6938C78.7565 36.6938 79.6495 36.5793 80.4852 36.3961C81.321 36.213 82.214 35.8581 83.1184 35.4345V38.7202C82.3399 39.0751 81.5614 39.3728 80.7257 39.5559C79.8899 39.7277 78.9282 39.8422 77.6689 39.8422ZM77.0736 26.642C76.1806 26.642 75.4593 26.9396 74.9212 27.4777C74.3832 28.0158 74.0855 28.8515 74.0282 29.9277H80.0044C80.0044 28.8515 79.7067 28.073 79.1687 27.4777C78.6306 26.8824 77.978 26.642 77.0736 26.642Z" fill="#2D2D2D"/>
</g>
<defs>
<clipPath id="clip0_6744_65370">
<rect width="72" height="28.6214" fill="white" transform="translate(12 17.6892)"/>
</clipPath>
</defs>
</svg>
