<svg width="96" height="64" viewBox="0 0 96 64" fill="none" xmlns="http://www.w3.org/2000/svg">
<rect width="96" height="64" fill="white"/>
<g clip-path="url(#clip0_6744_65363)">
<path d="M79.2435 27.6331L75.2672 26.71L74.5571 26.426L56.3086 26.568V35.3728L79.2435 35.4438V27.6331Z" fill="white"/>
<path d="M71.7878 34.5917C71.902 34.2892 71.9423 33.9639 71.9052 33.6427C71.8682 33.3216 71.7549 33.014 71.5748 32.7455C71.3897 32.5237 71.1628 32.3405 70.907 32.2065C70.6511 32.0725 70.3713 31.9902 70.0836 31.9644L57.7286 31.8224C57.6576 31.8224 57.5866 31.7514 57.5156 31.7514C57.499 31.739 57.4856 31.7229 57.4764 31.7045C57.4671 31.686 57.4623 31.6656 57.4623 31.6449C57.4623 31.6242 57.4671 31.6039 57.4764 31.5854C57.4856 31.5669 57.499 31.5508 57.5156 31.5384C57.5866 31.3964 57.6576 31.3254 57.7996 31.3254L70.2256 31.1834C71.0145 31.0958 71.7658 30.7997 72.4023 30.3255C73.0388 29.8513 73.5374 29.216 73.8469 28.4852L74.557 26.639C74.557 26.568 74.628 26.497 74.557 26.426C74.171 24.7065 73.2342 23.1601 71.889 22.0216C70.5438 20.8832 68.8637 20.215 67.1041 20.1186C65.3445 20.0222 63.6015 20.5028 62.14 21.4874C60.6784 22.4721 59.5783 23.9069 59.0067 25.5739C58.2647 25.0439 57.3596 24.7925 56.4505 24.8639C55.6162 24.9569 54.8384 25.3309 54.2448 25.9245C53.6513 26.518 53.2772 27.2959 53.1842 28.1301C53.1369 28.5572 53.1609 28.9891 53.2552 29.4082C51.9054 29.4455 50.6233 30.008 49.6818 30.9761C48.7403 31.9441 48.2136 33.2413 48.2138 34.5917C48.2022 34.854 48.226 35.1168 48.2848 35.3727C48.2881 35.4282 48.3116 35.4805 48.3508 35.5197C48.3901 35.559 48.4424 35.5825 48.4978 35.5857H71.2907C71.4327 35.5857 71.5748 35.5147 71.5748 35.3727L71.7878 34.5917Z" fill="#F48120"/>
<path d="M75.6926 26.639H75.3375C75.2665 26.639 75.1955 26.71 75.1245 26.781L74.6275 28.4852C74.5132 28.7876 74.473 29.113 74.51 29.4341C74.5471 29.7553 74.6604 30.0629 74.8405 30.3313C75.0255 30.5532 75.2524 30.7363 75.5083 30.8703C75.7642 31.0044 76.0439 31.0866 76.3316 31.1124L78.9588 31.2544C79.0298 31.2544 79.1008 31.3254 79.1719 31.3254C79.1884 31.3378 79.2018 31.3539 79.2111 31.3724C79.2203 31.3909 79.2251 31.4113 79.2251 31.4319C79.2251 31.4526 79.2203 31.473 79.2111 31.4915C79.2018 31.51 79.1884 31.526 79.1719 31.5384C79.1008 31.6805 79.0298 31.7515 78.8878 31.7515L76.1896 31.8935C75.4007 31.981 74.6494 32.2771 74.013 32.7514C73.3765 33.2256 72.8778 33.8608 72.5683 34.5917L72.4263 35.2308C72.3553 35.3018 72.4263 35.4438 72.5683 35.4438H81.9411C81.97 35.4479 81.9995 35.4452 82.0273 35.436C82.055 35.4268 82.0802 35.4112 82.1008 35.3905C82.1215 35.3698 82.1371 35.3446 82.1463 35.3169C82.1556 35.2892 82.1582 35.2597 82.1541 35.2308C82.3232 34.6291 82.4185 34.0092 82.4381 33.3846C82.4269 31.599 81.7126 29.8898 80.45 28.6272C79.1874 27.3646 77.4781 26.6503 75.6926 26.639Z" fill="#FAAD3F"/>
<path d="M83.361 39.42C83.2346 39.42 83.111 39.3825 83.0059 39.3123C82.9009 39.2421 82.8189 39.1423 82.7706 39.0255C82.7222 38.9087 82.7096 38.7802 82.7342 38.6563C82.7589 38.5323 82.8197 38.4184 82.9091 38.3291C82.9985 38.2397 83.1123 38.1788 83.2363 38.1542C83.3603 38.1295 83.4888 38.1422 83.6055 38.1905C83.7223 38.2389 83.8221 38.3208 83.8923 38.4259C83.9626 38.531 84 38.6545 84 38.7809C84.0004 38.865 83.9841 38.9482 83.9521 39.0259C83.9201 39.1036 83.8731 39.1742 83.8136 39.2336C83.7542 39.293 83.6836 39.3401 83.606 39.3721C83.5283 39.4041 83.445 39.4203 83.361 39.42ZM83.361 38.2839C83.2627 38.2839 83.1666 38.3131 83.0848 38.3677C83.0031 38.4223 82.9394 38.4999 82.9018 38.5907C82.8642 38.6816 82.8543 38.7815 82.8735 38.8779C82.8927 38.9743 82.94 39.0629 83.0095 39.1324C83.079 39.2019 83.1676 39.2493 83.264 39.2684C83.3604 39.2876 83.4604 39.2778 83.5512 39.2401C83.642 39.2025 83.7196 39.1388 83.7743 39.0571C83.8289 38.9753 83.858 38.8792 83.858 38.7809C83.8596 38.7152 83.8479 38.6499 83.8235 38.5889C83.799 38.5278 83.7625 38.4724 83.716 38.4259C83.6695 38.3794 83.6141 38.3429 83.5531 38.3185C83.492 38.2941 83.4267 38.2823 83.361 38.2839ZM83.645 39.136H83.503L83.361 38.923H83.219V39.136H83.077V38.4969H83.432C83.4609 38.4928 83.4904 38.4954 83.5182 38.5047C83.5459 38.5139 83.5711 38.5295 83.5918 38.5502C83.6124 38.5708 83.628 38.596 83.6372 38.6238C83.6465 38.6515 83.6491 38.681 83.645 38.7099C83.645 38.7809 83.574 38.8519 83.503 38.923L83.645 39.136ZM83.432 38.7809C83.503 38.7809 83.503 38.7809 83.503 38.7099C83.5032 38.7006 83.5015 38.6912 83.498 38.6825C83.4945 38.6738 83.4893 38.6659 83.4826 38.6593C83.476 38.6526 83.4681 38.6474 83.4594 38.6439C83.4507 38.6404 83.4414 38.6387 83.432 38.6389H83.219V38.8519H83.432V38.7809ZM19.7397 38.1419H21.3018V42.4022H24V43.7514H19.7397V38.1419ZM25.6332 40.9111C25.6332 40.5167 25.7133 40.1264 25.8686 39.7638C26.0238 39.4013 26.2511 39.074 26.5365 38.8018C26.822 38.5296 27.1597 38.3182 27.5292 38.1804C27.8988 38.0425 28.2925 37.9811 28.6864 37.9999C29.0767 37.9823 29.4665 38.045 29.8315 38.1842C30.1966 38.3233 30.5292 38.5359 30.8088 38.8089C31.0884 39.0818 31.3089 39.4092 31.4568 39.7708C31.6048 40.1324 31.6769 40.5205 31.6687 40.9111C31.6687 41.3055 31.5886 41.6958 31.4333 42.0584C31.278 42.421 31.0508 42.7482 30.7653 43.0204C30.4799 43.2926 30.1422 43.504 29.7726 43.6419C29.4031 43.7797 29.0094 43.8411 28.6154 43.8224C28.2266 43.8339 27.8395 43.767 27.4771 43.6257C27.1148 43.4844 26.7846 43.2716 26.5062 42.9999C26.2279 42.7282 26.0072 42.4032 25.8572 42.0443C25.7072 41.6855 25.631 41.3001 25.6332 40.9111ZM30.1066 40.9111C30.1205 40.7143 30.0943 40.5167 30.0297 40.3302C29.9651 40.1438 29.8633 39.9723 29.7306 39.8263C29.5979 39.6803 29.4369 39.5627 29.2574 39.4807C29.0779 39.3986 28.8837 39.3538 28.6864 39.349C28.3035 39.3677 27.9425 39.5329 27.6782 39.8105C27.4138 40.0881 27.2663 40.4568 27.2663 40.8401C27.2663 41.2235 27.4138 41.5921 27.6782 41.8697C27.9425 42.1473 28.3035 42.3125 28.6864 42.3312C29.5385 42.4732 30.1066 41.7632 30.1066 40.9111ZM33.5858 41.2661V38.1419H35.148V41.2661C35.148 42.0472 35.574 42.4732 36.2131 42.4732C36.3623 42.4857 36.5124 42.4642 36.6522 42.4104C36.792 42.3566 36.9178 42.2719 37.0202 42.1626C37.1226 42.0534 37.199 41.9224 37.2437 41.7794C37.2884 41.6365 37.3001 41.4853 37.2781 41.3372V38.1419H38.8403V41.2661C38.8403 43.1123 37.7752 43.8934 36.2131 43.8934C34.5799 43.8224 33.5858 43.0413 33.5858 41.2661ZM41.1835 38.1419H43.3847C45.3728 38.1419 46.5799 39.278 46.5799 40.9111C46.5799 42.5443 45.3728 43.7514 43.3847 43.7514H41.2545V38.1419H41.1835ZM43.3847 42.3312C43.5825 42.3501 43.7822 42.3275 43.9708 42.2647C44.1594 42.2019 44.3328 42.1004 44.4798 41.9667C44.6269 41.833 44.7444 41.67 44.8248 41.4882C44.9052 41.3065 44.9468 41.1099 44.9468 40.9111C44.9468 40.7123 44.9052 40.5158 44.8248 40.334C44.7444 40.1522 44.6269 39.9892 44.4798 39.8555C44.3328 39.7218 44.1594 39.6203 43.9708 39.5576C43.7822 39.4948 43.5825 39.4721 43.3847 39.491H42.7456V42.3312H43.3847ZM48.7811 38.1419H53.2545V39.491H50.3432V40.4141H52.9705V41.6922H50.3432V43.7514H48.7811V38.1419ZM55.4557 38.1419H57.0178V42.4022H59.716V43.7514H55.4557V38.1419ZM63.7634 38.0709H65.3255L67.7397 43.7514H66.0355L65.6095 42.7573H63.4083L62.9823 43.7514H61.3492L63.7634 38.0709ZM65.1835 41.5502L64.5444 39.988L63.9054 41.5502H65.1835ZM69.7279 38.1419H72.3551C72.6903 38.1147 73.0275 38.1575 73.3453 38.2675C73.6631 38.3775 73.9546 38.5523 74.2012 38.7809C74.4047 39.0003 74.5523 39.2654 74.6316 39.5539C74.7109 39.8423 74.7196 40.1457 74.6569 40.4382C74.5943 40.7307 74.462 41.0039 74.2715 41.2345C74.0809 41.4651 73.8376 41.6465 73.5622 41.7632L74.9113 43.7514H73.1361L72 42.0472H71.29V43.7514H69.7279V38.1419ZM72.2841 40.8401C72.7811 40.8401 73.1361 40.5561 73.1361 40.2011C73.1361 39.775 72.7811 39.562 72.2841 39.562H71.29V40.9111H72.2841V40.8401ZM76.8994 38.1419H81.4438V39.42H78.4616V40.2721H81.1598V41.5502H78.4616V42.4022H81.5148V43.7514H76.8994V38.1419ZM16.3314 41.6212C16.2243 41.8721 16.0464 42.0864 15.8194 42.2377C15.5923 42.3891 15.3261 42.4709 15.0533 42.4732C14.6704 42.4546 14.3094 42.2893 14.045 42.0117C13.7806 41.7341 13.6332 41.3655 13.6332 40.9821C13.6332 40.5988 13.7806 40.2301 14.045 39.9525C14.3094 39.6749 14.6704 39.5097 15.0533 39.491C15.3437 39.4966 15.6261 39.5869 15.8658 39.7509C16.1055 39.9149 16.292 40.1454 16.4024 40.4141H18.0355C17.8958 39.7339 17.5196 39.1253 16.9736 38.6963C16.4276 38.2673 15.7472 38.0457 15.0533 38.0709C14.6608 38.0581 14.2697 38.1237 13.9028 38.2637C13.5359 38.4037 13.2005 38.6154 12.9163 38.8864C12.6321 39.1574 12.4047 39.4823 12.2474 39.8421C12.0901 40.2019 12.006 40.5895 12 40.9821C11.9979 41.3711 12.074 41.7565 12.224 42.1153C12.374 42.4742 12.5948 42.7992 12.8731 43.0709C13.1514 43.3426 13.4816 43.5554 13.844 43.6967C14.2064 43.838 14.5935 43.9049 14.9823 43.8934C15.6607 43.8979 16.3215 43.6774 16.8612 43.2662C17.4008 42.855 17.7889 42.2765 17.9645 41.6212H16.3314Z" fill="#404041"/>
</g>
<defs>
<clipPath id="clip0_6744_65363">
<rect width="72" height="23.787" fill="white" transform="translate(12 20.1064)"/>
</clipPath>
</defs>
</svg>
