<svg width="96" height="64" viewBox="0 0 96 64" fill="none" xmlns="http://www.w3.org/2000/svg">
<rect width="96" height="64" fill="white"/>
<path d="M41.0618 30.3634C41.5855 30.3634 41.9782 30.4289 42.3709 30.6252C42.7637 30.7561 43.0909 31.0179 43.4182 31.2798C43.68 31.5416 43.9418 31.8689 44.0727 32.2616C44.2037 32.6543 44.2691 33.047 44.2691 33.4398C44.2691 34.0943 44.1382 34.6834 43.8764 35.1416C43.6146 35.5998 43.1564 35.9925 42.5018 36.2543C42.8291 36.3198 43.0255 36.4507 43.2218 36.647C43.4182 36.8434 43.5491 37.0398 43.68 37.2361C43.8109 37.4979 43.8764 37.6943 43.9418 38.0216C44.0073 38.2834 44.0073 38.6107 44.0727 38.8725C44.0727 39.0689 44.0727 39.2652 44.0727 39.4616C44.0727 39.7234 44.0727 39.9198 44.1382 40.1816C44.1382 40.4434 44.2037 40.6398 44.2691 40.9016C44.3346 41.0979 44.4 41.2943 44.5309 41.4907H42.1091C41.9782 41.1634 41.9127 40.7052 41.8473 40.247C41.8473 39.7889 41.7818 39.2652 41.7164 38.8725C41.6509 38.2834 41.4546 37.8907 41.1927 37.6289C40.9309 37.367 40.4727 37.2361 39.8836 37.2361H37.5273V41.5561H35.1055V30.3634H41.0618ZM40.1455 35.3379C40.6691 35.3379 41.1273 35.207 41.3891 34.9452C41.6509 34.6834 41.7818 34.2907 41.7818 33.7016C41.7818 33.1779 41.6509 32.7852 41.3891 32.5234C41.1273 32.2616 40.6691 32.1307 40.1455 32.1307H37.5273V35.2725H40.1455V35.3379Z" fill="#706259"/>
<path d="M45.971 34.5525C46.1673 34.2253 46.4946 33.9634 46.8219 33.7671C47.1491 33.5707 47.5419 33.4398 48 33.3089C48.4582 33.2434 48.851 33.178 49.3091 33.178C49.7019 33.178 50.0946 33.178 50.5528 33.2434C50.9455 33.3089 51.3382 33.4398 51.6655 33.5707C51.9928 33.7671 52.2546 33.9634 52.5164 34.2907C52.7128 34.618 52.8437 34.9453 52.8437 35.4689V39.658C52.8437 40.0507 52.8437 40.378 52.9091 40.7053C52.9746 41.0325 53.04 41.2943 53.1055 41.4253H50.88C50.8146 41.2943 50.8146 41.1634 50.7491 41.0325C50.7491 40.9016 50.6837 40.7707 50.6837 40.6398C50.3564 41.0325 49.8982 41.2289 49.44 41.4253C48.9819 41.5562 48.4582 41.6216 48 41.6216C47.6073 41.6216 47.28 41.5562 46.9528 41.4907C46.6255 41.4253 46.3637 41.2289 46.1019 41.0325C45.84 40.8362 45.6437 40.5743 45.5128 40.3125C45.3819 39.9853 45.3164 39.658 45.3164 39.2653C45.3164 38.8071 45.3819 38.4143 45.5782 38.1525C45.7091 37.8907 45.971 37.6289 46.1673 37.4325C46.4291 37.2362 46.691 37.1053 47.0182 37.0398C47.3455 36.9743 47.6728 36.9089 48 36.8434C48.3273 36.778 48.6546 36.778 48.9819 36.7125C49.3091 36.7125 49.571 36.6471 49.8328 36.5816C50.0946 36.5162 50.291 36.4507 50.4219 36.3198C50.5528 36.1889 50.6182 36.058 50.6182 35.7962C50.6182 35.5343 50.5528 35.338 50.4873 35.2071C50.4219 35.0762 50.2909 34.9453 50.16 34.8798C50.0291 34.8143 49.8982 34.7489 49.7019 34.7489C49.5055 34.7489 49.3746 34.6834 49.1782 34.6834C48.72 34.6834 48.3928 34.7489 48.131 34.9453C47.8691 35.1416 47.7382 35.4034 47.6728 35.8616H45.5128C45.6437 35.338 45.7746 34.8798 45.971 34.5525ZM50.291 37.6943C50.16 37.7598 50.0291 37.7598 49.8328 37.8253C49.7019 37.8253 49.5055 37.8907 49.3091 37.8907C49.1128 37.8907 48.9819 37.9562 48.7855 37.9562C48.5891 37.9562 48.4582 38.0216 48.3273 38.0871C48.1964 38.1525 48 38.218 47.9346 38.2834C47.8037 38.3489 47.7382 38.4798 47.6728 38.6107C47.6073 38.7416 47.5419 38.938 47.5419 39.1343C47.5419 39.3307 47.6073 39.5271 47.6728 39.658C47.7382 39.7889 47.8691 39.9198 47.9346 39.9853C48.0655 40.0507 48.1964 40.1162 48.3928 40.1162C48.5891 40.1162 48.72 40.1816 48.9164 40.1816C49.3746 40.1816 49.7019 40.1162 49.8982 39.9853C50.16 39.8543 50.291 39.658 50.4219 39.4616C50.5528 39.2653 50.6182 39.0689 50.6182 38.8725C50.6182 38.6762 50.6837 38.4798 50.6837 38.3489V37.498C50.5528 37.5634 50.4219 37.6289 50.291 37.6943Z" fill="#706259"/>
<path d="M59.848 40.3779C59.5862 40.8361 59.2589 41.0979 58.8007 41.2943C58.408 41.4907 57.8844 41.5561 57.3607 41.5561C56.7716 41.5561 56.248 41.4252 55.7898 41.2289C55.3316 40.967 54.9389 40.7052 54.6771 40.3125C54.3498 39.9198 54.1534 39.4616 54.0225 38.9379C53.8916 38.4143 53.8262 37.8907 53.8262 37.3016C53.8262 36.7779 53.8916 36.2543 54.0225 35.7307C54.1534 35.207 54.4153 34.8143 54.6771 34.4216C54.9389 34.0289 55.3316 33.7016 55.7898 33.5052C56.248 33.2434 56.7716 33.1779 57.3607 33.1779C57.8189 33.1779 58.2771 33.3089 58.7353 33.5052C59.1934 33.7016 59.5207 34.0289 59.7171 34.4216V30.3634H61.9425V41.4252H59.848V40.3779ZM59.7171 36.4507C59.6516 36.1234 59.5207 35.8616 59.3898 35.6652C59.2589 35.4034 59.0625 35.2725 58.8007 35.0761C58.5389 34.9452 58.2771 34.8798 57.8844 34.8798C57.4916 34.8798 57.2298 34.9452 56.968 35.0761C56.7062 35.207 56.5098 35.4034 56.3789 35.6652C56.248 35.927 56.1171 36.1889 56.0516 36.4507C55.9862 36.7779 55.9207 37.0398 55.9207 37.4325C55.9207 37.7598 55.9862 38.0216 56.0516 38.3489C56.1171 38.6761 56.248 38.9379 56.3789 39.1998C56.5098 39.4616 56.7716 39.6579 56.968 39.7889C57.2298 39.9198 57.4916 39.9852 57.8189 39.9852C58.2116 39.9852 58.4734 39.9198 58.7353 39.7889C58.9971 39.6579 59.1934 39.4616 59.3244 39.1998C59.4553 38.9379 59.5862 38.6761 59.6516 38.3489C59.7171 38.0216 59.7171 37.6943 59.7171 37.367C59.848 37.0398 59.7825 36.7125 59.7171 36.4507Z" fill="#706259"/>
<path d="M63.5784 34.5525C63.7747 34.2253 64.102 33.9634 64.4293 33.7671C64.7566 33.5707 65.1493 33.4398 65.6075 33.3089C66.0656 33.2434 66.4584 33.178 66.9166 33.178C67.3093 33.178 67.702 33.178 68.1602 33.2434C68.5529 33.3089 68.9456 33.4398 69.2729 33.5707C69.6002 33.7671 69.862 33.9634 70.1238 34.2907C70.3202 34.618 70.4511 34.9453 70.4511 35.4689V39.658C70.4511 40.0507 70.4511 40.378 70.5166 40.7053C70.582 41.0325 70.6475 41.2943 70.7129 41.4253H68.4875C68.422 41.2943 68.422 41.1634 68.3566 41.0325C68.3566 40.9016 68.2911 40.7707 68.2911 40.6398C67.9638 41.0325 67.5056 41.2289 67.0475 41.4253C66.5893 41.5562 66.0656 41.6216 65.6075 41.6216C65.2147 41.6216 64.8875 41.5562 64.5602 41.4907C64.2329 41.4253 63.9711 41.2289 63.7093 41.0325C63.4475 40.8362 63.2511 40.5743 63.1202 40.3125C62.9893 40.0507 62.9238 39.658 62.9238 39.2653C62.9238 38.8071 62.9893 38.4143 63.1856 38.1525C63.3166 37.8907 63.5784 37.6289 63.7747 37.4325C64.0366 37.2362 64.2984 37.1053 64.6256 37.0398C64.9529 36.9743 65.2802 36.9089 65.6075 36.8434C65.9347 36.778 66.262 36.778 66.5893 36.7125C66.9166 36.7125 67.1784 36.6471 67.4402 36.5816C67.702 36.5162 67.8984 36.4507 68.0293 36.3198C68.1602 36.1889 68.2256 36.058 68.2256 35.7962C68.2256 35.5343 68.1602 35.338 68.0947 35.2071C68.0293 35.0762 67.8984 34.9453 67.7675 34.8798C67.6366 34.8143 67.5056 34.7489 67.3093 34.7489C67.1129 34.7489 66.982 34.6834 66.7856 34.6834C66.3275 34.6834 66.0002 34.7489 65.7384 34.9453C65.4766 35.1416 65.3456 35.4034 65.2802 35.8616H63.1202C63.1856 35.338 63.3166 34.8798 63.5784 34.5525ZM67.8984 37.6943C67.7675 37.7598 67.6366 37.7598 67.4402 37.8253C67.3093 37.8253 67.1129 37.8907 66.9166 37.8907C66.7202 37.8907 66.5893 37.9562 66.3929 37.9562C66.1966 37.9562 66.0656 38.0216 65.9347 38.0871C65.8038 38.1525 65.6075 38.218 65.542 38.2834C65.4111 38.3489 65.3456 38.4798 65.2802 38.6107C65.2147 38.7416 65.1493 38.938 65.1493 39.1343C65.1493 39.3307 65.2147 39.5271 65.2802 39.658C65.3456 39.7889 65.4766 39.9198 65.542 39.9853C65.6729 40.0507 65.8038 40.1162 66.0002 40.1162C66.1966 40.1162 66.3275 40.1816 66.5238 40.1816C66.982 40.1816 67.3093 40.1162 67.5056 39.9853C67.7675 39.8543 67.8984 39.658 68.0293 39.4616C68.1602 39.2653 68.2256 39.0689 68.2256 38.8725C68.2256 38.6762 68.2911 38.4798 68.2911 38.3489V37.498C68.1602 37.5634 68.0293 37.6289 67.8984 37.6943Z" fill="#706259"/>
<path d="M73.8554 33.4398V34.9452C73.9863 34.6834 74.1172 34.487 74.2481 34.2252C74.4445 34.0289 74.6408 33.8325 74.8372 33.7016C75.0335 33.5707 75.2954 33.4398 75.5572 33.3743C75.819 33.3089 76.0808 33.2434 76.3426 33.2434C76.4735 33.2434 76.6699 33.2434 76.8008 33.3089V35.338C76.6699 35.338 76.6045 35.2725 76.4081 35.2725C76.2772 35.2725 76.1463 35.2725 76.0154 35.2725C75.6226 35.2725 75.2954 35.338 74.9681 35.4689C74.7063 35.5998 74.4445 35.7961 74.3135 35.9925C74.1172 36.2543 74.0517 36.5161 73.9208 36.778C73.8554 37.1052 73.7899 37.4325 73.7899 37.7598V41.3598H71.5645V33.4398H73.8554Z" fill="#706259"/>
<path d="M28.8222 39.5271C31.1131 37.8253 32.5531 35.0762 32.5531 31.9998C32.5531 26.7635 28.2985 22.5089 23.0622 22.5089C17.8913 22.5089 13.6367 26.7635 13.6367 31.9998C13.6367 37.1053 17.6949 41.2944 22.8004 41.4253H32.5531V39.5271H28.8222ZM15.6658 31.9998C15.6658 27.8762 19.004 24.538 23.1276 24.538C27.2513 24.538 30.5894 27.8762 30.5894 31.9998C30.5894 36.1235 27.2513 39.4616 23.1276 39.4616C19.004 39.4616 15.6658 36.1235 15.6658 31.9998Z" fill="#C4E86B"/>
<path d="M27.5795 27.4181C26.4013 26.2399 24.8958 25.5853 23.194 25.5853C21.5576 25.5853 19.9867 26.2399 18.8086 27.4181C16.3867 29.8399 16.3867 33.8326 18.8086 36.3199L18.9395 36.189C18.6776 35.9271 17.434 34.4217 17.434 31.869C17.434 29.1853 19.3976 27.0253 22.474 26.7635C22.6704 26.7635 22.9322 26.6981 23.1286 26.6981C24.5031 26.6981 25.7467 27.2217 26.7286 28.2035C28.6922 30.2326 28.6922 33.5708 26.7286 35.5999L27.514 36.3199C30.0013 33.8326 30.0013 29.8399 27.5795 27.4181Z" fill="#C4E86B"/>
<path d="M26.2686 28.7271C25.4832 27.8762 24.3704 27.418 23.2577 27.418C22.0795 27.418 21.0323 27.8762 20.2468 28.7271C18.6104 30.4289 18.6104 33.178 20.2468 34.8798L20.4432 34.6834C19.7886 33.9634 19.4613 32.9816 19.4613 31.9998C19.4613 29.9707 21.0323 28.3343 23.0613 28.3343C25.2868 28.3343 26.7923 30.0362 26.6613 31.9998C26.5959 32.6543 26.2686 33.4398 25.6795 34.0943L26.3995 34.8143C27.905 33.2434 27.905 30.4289 26.2686 28.7271Z" fill="#C4E86B"/>
<path d="M24.96 30.1016C24.5019 29.6434 23.9128 29.3816 23.2582 29.3816C22.6037 29.3816 22.0146 29.6434 21.5564 30.1016C20.64 31.018 20.64 32.5889 21.5564 33.5052L21.7528 33.3089C21.4255 32.9816 21.1637 32.458 21.1637 31.8689C21.1637 30.8216 21.9491 29.9707 22.8655 29.9707C23.651 29.9707 24.3055 30.5598 24.5019 31.2798C24.5673 31.4107 24.5673 31.4761 24.5673 31.607C24.5673 31.6725 24.5673 31.738 24.5673 31.8034C24.5673 32.1961 24.5019 32.5234 24.3055 32.7852L24.8946 33.3743C25.8764 32.5889 25.8764 31.0834 24.96 30.1016Z" fill="#C4E86B"/>
<path d="M80.8594 31.9998V30.298H81.5794C81.7103 30.298 81.8412 30.298 81.9067 30.3634C81.9721 30.3634 82.0376 30.4289 82.103 30.4943C82.1685 30.5598 82.1685 30.6252 82.1685 30.7562C82.1685 30.8871 82.103 30.9525 82.0376 31.0834C81.9721 31.1489 81.8412 31.2143 81.7103 31.2143C81.7757 31.2143 81.8412 31.2798 81.8412 31.2798C81.9066 31.3452 81.9721 31.4107 82.0376 31.4762L82.2994 31.9343H82.0376L81.8412 31.6071C81.7757 31.4762 81.7103 31.4107 81.7103 31.3452C81.6448 31.2798 81.6448 31.2798 81.5794 31.2143C81.5139 31.2143 81.5139 31.1489 81.4485 31.1489C81.4485 31.1489 81.383 31.1489 81.3176 31.1489H81.0557V31.9998H80.8594ZM81.0557 31.0834H81.5139C81.6448 31.0834 81.7103 31.0834 81.7757 31.0834C81.8412 31.0834 81.9067 31.018 81.9067 30.9525C81.9067 30.8871 81.9721 30.8871 81.9721 30.8216C81.9721 30.7562 81.9721 30.6907 81.9067 30.6252C81.8412 30.5598 81.7757 30.5598 81.6448 30.5598H81.1212V31.0834H81.0557Z" fill="#706259"/>
<path d="M81.4469 32.8507C80.5305 32.8507 79.8105 32.1307 79.8105 31.2144C79.8105 30.298 80.5305 29.578 81.4469 29.578C82.3633 29.578 83.0833 30.298 83.0833 31.2144C83.0833 32.1307 82.3633 32.8507 81.4469 32.8507ZM81.4469 29.7089C80.6615 29.7089 80.0069 30.3635 80.0069 31.1489C80.0069 31.9344 80.6615 32.5889 81.4469 32.5889C82.2324 32.5889 82.8869 31.9344 82.8869 31.1489C82.9524 30.3635 82.2324 29.7089 81.4469 29.7089Z" fill="#706259"/>
</svg>
