<svg width="96" height="64" viewBox="0 0 96 64" fill="none" xmlns="http://www.w3.org/2000/svg">
<rect width="96" height="64" fill="white"/>
<g clip-path="url(#clip0_6744_65510)">
<path d="M14.124 41.7918L12 33.1158H13.08L14.304 38.8038C14.412 39.3798 14.52 39.9918 14.628 40.5678C14.844 39.6318 14.952 39.0918 14.988 38.9478L16.5 33.0798H17.76L18.912 37.4718C19.2 38.5518 19.416 39.5958 19.524 40.5318C19.632 39.9918 19.74 39.3438 19.92 38.6598L21.18 33.0798H22.224L20.028 41.7558H19.02L17.328 35.1678C17.184 34.6278 17.112 34.2678 17.076 34.1598C17.004 34.5558 16.932 34.8798 16.86 35.1678L15.168 41.7918H14.124ZM23.376 41.7918V33.1158H24.42V41.7918H23.376ZM26.292 41.7918V33.1158H29.82C30.54 33.1158 31.08 33.1878 31.44 33.3318C31.8 33.4758 32.088 33.7638 32.34 34.1598C32.556 34.5558 32.664 34.9878 32.664 35.4558C32.664 36.0678 32.484 36.5718 32.124 37.0038C31.764 37.4358 31.188 37.6878 30.432 37.7958C30.72 37.9398 30.936 38.0838 31.08 38.2278C31.404 38.5518 31.692 38.9118 31.944 39.3798L33.312 41.7558H31.98L30.936 39.9558C30.612 39.4518 30.36 39.0198 30.18 38.7678C29.964 38.4798 29.82 38.2998 29.64 38.1918C29.496 38.0838 29.316 38.0118 29.172 37.9758C29.028 37.9398 28.812 37.9398 28.56 37.9398H27.336V41.7918H26.292ZM27.336 36.9318H29.604C30.072 36.9318 30.468 36.8598 30.72 36.7518C31.008 36.6438 31.188 36.4638 31.332 36.2478C31.476 35.9958 31.548 35.7438 31.548 35.4558C31.548 35.0598 31.404 34.6998 31.152 34.4478C30.864 34.1958 30.432 34.0518 29.856 34.0518H27.336V36.9318ZM34.32 41.7918V33.1158H40.08V34.1238H35.4V36.7878H39.792V37.7958H35.364V40.7478H40.224V41.7558H34.32V41.7918ZM41.232 38.9838L42.78 38.8038C42.888 39.3798 43.068 39.8118 43.356 40.0638C43.68 40.3158 44.04 40.4598 44.544 40.4598C45.048 40.4598 45.444 40.3518 45.696 40.0998C45.948 39.8478 46.092 39.5958 46.092 39.2718C46.092 39.0558 46.02 38.8758 45.912 38.7318C45.804 38.5878 45.624 38.4798 45.336 38.3718C45.156 38.2998 44.724 38.1918 44.04 37.9758C43.176 37.7598 42.564 37.4718 42.24 37.1118C41.736 36.6438 41.52 36.0678 41.52 35.3838C41.52 34.9518 41.628 34.5198 41.88 34.1598C42.096 33.7638 42.456 33.4758 42.888 33.2958C43.32 33.0798 43.824 33.0078 44.436 33.0078C45.444 33.0078 46.2 33.2598 46.704 33.7278C47.208 34.1958 47.46 34.8438 47.496 35.6358L45.876 35.7078C45.804 35.2758 45.66 34.9518 45.444 34.7358C45.228 34.5558 44.868 34.4478 44.436 34.4478C43.968 34.4478 43.608 34.5558 43.356 34.7718C43.176 34.9158 43.104 35.0958 43.104 35.3118C43.104 35.5278 43.176 35.7078 43.356 35.8518C43.572 36.0318 44.04 36.2478 44.832 36.4278C45.624 36.6438 46.2 36.8238 46.56 37.0398C46.92 37.2558 47.244 37.5438 47.424 37.9038C47.64 38.2638 47.748 38.7318 47.748 39.2718C47.748 39.7758 47.604 40.2438 47.352 40.6758C47.1 41.1078 46.74 41.4318 46.272 41.6478C45.804 41.8638 45.228 41.9718 44.544 41.9718C43.536 41.9718 42.78 41.7198 42.24 41.2158C41.664 40.6758 41.34 39.9198 41.232 38.9838ZM49.08 41.7918V33.1158H50.7V36.5358H53.832V33.1158H55.452V41.7918H53.832V38.0118H50.7V41.7918H49.08ZM64.236 41.7918H62.508L61.824 39.8118H58.656L58.008 41.7918H56.28L59.376 33.1158H61.068L64.236 41.7918ZM61.284 38.3718L60.204 35.1678L59.124 38.3718H61.284ZM65.1 41.7918V33.1158H68.484C69.348 33.1158 69.96 33.1878 70.32 33.3318C70.716 33.4758 71.004 33.7638 71.256 34.1598C71.472 34.5558 71.616 35.0238 71.616 35.5278C71.616 36.1758 71.436 36.7158 71.076 37.1478C70.716 37.5798 70.212 37.8318 69.492 37.9398C69.852 38.1558 70.14 38.4078 70.356 38.6598C70.572 38.9118 70.896 39.3798 71.256 40.0638L72.228 41.7558H70.32L69.168 39.8838C68.772 39.1998 68.484 38.7678 68.34 38.6238C68.196 38.4438 68.016 38.3358 67.872 38.2638C67.692 38.1918 67.44 38.1558 67.08 38.1558H66.72V41.7918H65.1ZM66.72 36.7878H67.908C68.664 36.7878 69.168 36.7518 69.348 36.6798C69.528 36.6078 69.672 36.4998 69.78 36.3198C69.888 36.1398 69.96 35.9238 69.96 35.6718C69.96 35.3838 69.888 35.1318 69.744 34.9518C69.6 34.7718 69.384 34.6638 69.132 34.6278C68.988 34.5918 68.628 34.5918 67.944 34.5918H66.72V36.7878ZM73.164 41.7918V33.1158H74.784V36.9678L78.024 33.1158H80.184L77.16 36.4998L80.328 41.7918H78.24L76.044 37.7238L74.748 39.1638V41.7918H73.164Z" fill="black"/>
<path d="M12.1074 31.5318H40.8354C40.8354 31.5318 41.5914 22.9638 49.2594 22.8558C46.7754 26.6718 49.1154 31.5678 49.1154 31.5678H83.9994" stroke="black" stroke-width="1.54699" stroke-linejoin="round"/>
</g>
<defs>
<clipPath id="clip0_6744_65510">
<rect width="72" height="19.8" fill="white" transform="translate(12 22.0999)"/>
</clipPath>
</defs>
</svg>
