<svg width="96" height="64" viewBox="0 0 96 64" fill="none" xmlns="http://www.w3.org/2000/svg">
<rect width="96" height="64" fill="white"/>
<g clip-path="url(#clip0_6744_65437)">
<g clip-path="url(#clip1_6744_65437)">
<path d="M17.669 47.0608C15.1994 47.0608 13.2168 49.0782 13.2168 51.513C13.2168 53.9825 15.2342 55.9651 17.669 55.9651C18.7124 55.9651 19.6864 55.5825 20.4516 54.9912V55.7912H22.1559V51.4086C22.0864 49.0086 20.1038 47.0608 17.669 47.0608ZM17.669 54.2956C16.1385 54.2956 14.8864 53.0434 14.8864 51.513C14.8864 49.9825 16.1385 48.7304 17.669 48.7304C19.1994 48.7304 20.4516 49.9825 20.4516 51.513C20.4516 53.0782 19.1994 54.2956 17.669 54.2956Z" fill="#2B3033"/>
<path d="M40.834 51.5477C40.834 53.0781 39.5818 54.3303 38.0514 54.3303C36.521 54.3303 35.2688 53.0781 35.2688 51.5477V47.3738H33.5645V51.5477C33.5645 54.0173 35.5818 55.9999 38.0166 55.9999C40.4862 55.9999 42.4688 53.9825 42.4688 51.5477V47.3738H40.7645V51.5477H40.834Z" fill="#2B3033"/>
<path d="M48.626 47.0608C46.1564 47.0608 44.1738 49.0782 44.1738 51.513V55.6869H45.8782V51.513C45.8782 49.9825 47.1304 48.7304 48.6608 48.7304C50.1912 48.7304 51.4434 49.9825 51.4434 51.513V55.6869H53.1477V51.513C53.0782 49.0782 51.0956 47.0608 48.626 47.0608Z" fill="#2B3033"/>
<path d="M28.208 48.7651C29.2863 48.7651 30.1906 49.3912 30.6776 50.2608L32.0341 49.2173C31.2341 47.9304 29.8428 47.0608 28.208 47.0608C25.7385 47.0608 23.7559 49.0782 23.7559 51.513C23.7559 53.9825 25.7733 55.9651 28.208 55.9651C29.8428 55.9651 31.2341 55.0956 32.0341 53.8086L30.6776 52.7651C30.2254 53.6695 29.2863 54.2608 28.208 54.2608C26.6776 54.2608 25.4254 53.0086 25.4254 51.4782C25.4602 50.0173 26.6776 48.7651 28.208 48.7651Z" fill="#2B3033"/>
<path d="M71.7212 46.0173C72.3125 46.0173 72.7647 45.5303 72.7647 44.9738C72.7647 44.4173 72.2777 43.9303 71.7212 43.9303C71.1299 43.9303 70.6777 44.4173 70.6777 44.9738C70.6777 45.5303 71.1299 46.0173 71.7212 46.0173Z" fill="#2B3033"/>
<path d="M70.7812 55.6868H72.6247V47.3738H70.7812V55.6868Z" fill="#2B3033"/>
<path d="M82.7811 47.3738H80.4855L78.5029 49.9825L76.5203 47.3738H74.2246L77.355 51.5477L74.2246 55.6868H76.5203L78.5029 53.0781L80.4855 55.6868H82.7811L79.6507 51.5477L82.7811 47.3738Z" fill="#2B3033"/>
<path d="M68.522 49.0781V47.3737H66.8176V46.052L65.1133 46.1563V53.739C65.1133 54.7824 66.0524 55.6868 67.2002 55.6868H68.522V53.9824H67.2002C66.9915 53.9824 66.8176 53.8085 66.8176 53.5998V49.0433H68.522V49.0781Z" fill="#2B3033"/>
<path d="M56.0348 48.3825C54.2957 50.1216 54.2957 52.939 56.0348 54.7129C57.7739 56.452 60.5913 56.452 62.3653 54.7129C62.887 54.1912 63.2348 53.5999 63.4435 52.939L61.8783 52.3477C61.7392 52.7999 61.5305 53.1825 61.1826 53.5303C60.3131 54.3999 58.9913 54.5738 57.9479 54.0173L61.6696 50.2955L61.9479 50.0173L62.9218 49.0433C62.7479 48.7999 62.5739 48.5912 62.4 48.3825C60.5913 46.6433 57.7739 46.6433 56.0348 48.3825ZM56.7305 52.7999C56.2087 51.7564 56.3479 50.4694 57.2174 49.5651C58.087 48.6955 59.4087 48.5216 60.4522 49.0781L56.7305 52.7999Z" fill="#2B3033"/>
<path d="M47.999 33.6471C44.8686 33.6471 42.3642 31.1079 42.3642 28.0123C42.3642 24.9166 44.8686 22.3775 47.999 22.3775C51.1294 22.3775 53.6338 24.9166 53.6338 28.0123C53.6338 31.1079 51.1294 33.6471 47.999 33.6471ZM61.2512 39.3166C60.5207 39.3166 59.7555 39.1775 59.0599 38.8645C56.2077 37.6471 54.8512 34.3427 56.0686 31.4558C57.4599 28.1514 56.7642 24.3601 54.2251 21.821C50.8164 18.4123 45.2512 18.4123 41.8425 21.821C39.3033 24.3601 38.5729 28.1514 39.999 31.4558C41.2164 34.3079 39.8946 37.6471 37.0077 38.8645C34.086 40.0819 30.7816 38.7253 29.5642 35.8732C26.3294 28.2906 28.0338 19.6645 33.8077 13.8558C41.6338 6.02968 54.3294 6.02968 62.1555 13.8558C67.9642 19.6645 69.6338 28.2906 66.399 35.8732C65.5294 38.0297 63.4425 39.3166 61.2512 39.3166Z" fill="#E03B4F"/>
</g>
</g>
<defs>
<clipPath id="clip0_6744_65437">
<rect width="72" height="48" fill="white" transform="translate(12 7.99988)"/>
</clipPath>
<clipPath id="clip1_6744_65437">
<rect width="69.5652" height="48" fill="white" transform="translate(13.2168 7.99988)"/>
</clipPath>
</defs>
</svg>
