<svg width="96" height="64" viewBox="0 0 96 64" fill="none" xmlns="http://www.w3.org/2000/svg">
<rect width="96" height="64" fill="white"/>
<g clip-path="url(#clip0_6744_65382)">
<path d="M22.6812 35.8735H12V25.1959H22.6812V35.8735ZM17.76 34.3903C17.76 34.1707 17.76 33.9655 17.76 33.7639C17.7529 33.6664 17.7665 33.5685 17.8 33.4767C17.8335 33.3848 17.8862 33.3011 17.9544 33.2311C18.4116 32.6839 18.858 32.1259 19.3044 31.5715C19.4815 31.3776 19.6406 31.1679 19.7796 30.9451H17.76V29.2747H16.68L17.6592 28.0651C17.7096 28.0039 17.7744 27.9499 17.7744 27.8635C17.7744 27.4711 17.7744 27.0787 17.7744 26.6863H16.914C16.914 26.9059 16.914 27.1039 16.914 27.2983C16.9237 27.4004 16.9106 27.5034 16.8758 27.5999C16.8409 27.6964 16.7851 27.784 16.7124 27.8563C16.4748 28.1227 16.2588 28.4071 16.0356 28.6843L14.88 30.1279H16.9284V31.7983H18.0084L17.04 32.9971C16.986 33.0655 16.9104 33.1231 16.9104 33.2203C16.9104 33.6055 16.9104 33.9943 16.9104 34.3939L17.76 34.3903Z" fill="#FE6633"/>
<path d="M26.0391 35.8304V25.2428H26.3055C27.6303 25.2428 28.9551 25.2428 30.2655 25.2428C31.0475 25.2231 31.8117 25.4778 32.4255 25.9628C33.5703 26.8916 33.8655 29.3828 32.0223 30.344C31.9998 30.3583 31.9781 30.3739 31.9575 30.3908C32.2669 30.5193 32.5472 30.7089 32.7816 30.9483C33.0161 31.1877 33.1998 31.4719 33.3219 31.784C33.5007 32.2002 33.5788 32.6527 33.5499 33.1048C33.521 33.5569 33.3858 33.9958 33.1553 34.3859C32.9249 34.7759 32.6057 35.1061 32.2236 35.3496C31.8416 35.5931 31.4075 35.743 30.9567 35.7872C30.7285 35.8148 30.4989 35.828 30.2691 35.8268H26.0391V35.8304ZM27.6591 34.3904C28.6023 34.3904 29.5383 34.43 30.4707 34.3652C30.8647 34.3465 31.2359 34.1745 31.5049 33.886C31.774 33.5974 31.9196 33.2152 31.9107 32.8208C31.9369 32.4368 31.8161 32.0572 31.5728 31.759C31.3294 31.4608 30.9817 31.2664 30.6003 31.2152C30.3415 31.1791 30.08 31.1671 29.8191 31.1792H27.6591V34.3904ZM27.6591 29.7104C28.5627 29.6924 29.4591 29.7464 30.3375 29.6816C30.6974 29.6733 31.0413 29.5305 31.3012 29.2813C31.5611 29.032 31.7182 28.6945 31.7415 28.3352C31.7907 27.9773 31.7015 27.6141 31.4921 27.3198C31.2827 27.0254 30.9689 26.8221 30.6147 26.7512C30.4383 26.7057 30.2568 26.6827 30.0747 26.6828H27.8607C27.7923 26.6828 27.7203 26.6576 27.6555 26.708L27.6591 29.7104Z" fill="#010101"/>
<path d="M62.7603 26.3407L61.7379 27.3631C61.1475 26.8288 60.3739 26.5426 59.5779 26.5639C59.2857 26.5303 58.9897 26.5587 58.7093 26.6474C58.4289 26.7362 58.1704 26.8831 57.9507 27.0787C57.7586 27.2512 57.6164 27.4721 57.539 27.7184C57.4616 27.9647 57.4518 28.2273 57.5107 28.4786C57.5696 28.73 57.695 28.9609 57.8737 29.1472C58.0525 29.3335 58.278 29.4683 58.5267 29.5375C59.0958 29.6785 59.6746 29.7772 60.2583 29.8327C60.8265 29.8888 61.3775 30.059 61.8783 30.3331C62.8575 30.9415 63.1887 31.8775 63.1419 32.9755C63.1441 33.5285 62.9759 34.0687 62.6603 34.5228C62.3447 34.9769 61.897 35.3228 61.3779 35.5135C60.5848 35.8523 59.7234 36.0008 58.8626 35.947C58.0018 35.8933 57.1655 35.6388 56.4207 35.2039C56.1178 35.0236 55.8426 34.8005 55.6035 34.5415L56.6835 33.4615C57.2056 33.9867 57.8889 34.3214 58.6239 34.4119C59.284 34.5377 59.9655 34.4881 60.6003 34.2679C60.9119 34.1567 61.1763 33.943 61.3504 33.6617C61.5244 33.3804 61.5976 33.0483 61.5579 32.7199C61.5634 32.4024 61.4538 32.0937 61.2493 31.8509C61.0448 31.608 60.7593 31.4474 60.4455 31.3987C59.8479 31.2439 59.2251 31.2187 58.6167 31.1107C57.9128 31.0264 57.2511 30.7301 56.7195 30.2611C56.3925 29.9537 56.1633 29.5568 56.0607 29.1199C55.6431 27.2839 56.4891 25.5883 58.6131 25.2355C59.6945 25.0193 60.8169 25.1661 61.8063 25.6531C62.1533 25.8392 62.4741 26.0704 62.7603 26.3407Z" fill="#010101"/>
<path d="M49.0794 35.0779V38.8615H47.5566V28.3027H49.0362V29.0587C49.3419 28.6922 49.7509 28.4263 50.2098 28.2955C50.8269 28.1377 51.4768 28.1652 52.0782 28.3747C52.4529 28.5096 52.7844 28.7429 53.0377 29.0502C53.2911 29.3574 53.4571 29.7272 53.5182 30.1207C53.8122 31.4 53.8122 32.7294 53.5182 34.0087C53.1582 35.5927 51.945 36.0319 50.5914 35.9023C50.2973 35.8721 50.0122 35.7836 49.7526 35.6421C49.493 35.5005 49.2642 35.3087 49.0794 35.0779ZM52.2078 32.0575C52.2078 31.7515 52.1826 31.4419 52.1502 31.1359C52.1295 30.9553 52.0921 30.7769 52.0386 30.6031C51.9503 30.3042 51.7685 30.0415 51.5199 29.8535C51.2713 29.6655 50.969 29.5621 50.6574 29.5585C50.3458 29.5549 50.0411 29.6512 49.7883 29.8334C49.5354 30.0155 49.3475 30.2739 49.2522 30.5707C48.9743 31.5595 48.9743 32.6059 49.2522 33.5947C49.4466 34.2715 49.9218 34.5631 50.6922 34.5559C50.9962 34.5766 51.2976 34.4883 51.5423 34.3068C51.7871 34.1254 51.9592 33.8627 52.0278 33.5659C52.1554 33.0736 52.2123 32.5658 52.197 32.0575H52.2078Z" fill="#010101"/>
<path d="M79.1005 32.4931C79.1473 33.3139 79.3057 34.0627 80.1121 34.4011C80.5701 34.6166 81.0857 34.6773 81.5812 34.574C82.0767 34.4708 82.5251 34.2092 82.8589 33.8287L83.8309 34.7395C83.3957 35.2316 82.8304 35.591 82.2001 35.7763C81.4624 35.9778 80.6855 35.9877 79.9429 35.8051C79.4652 35.7091 79.0224 35.4858 78.6612 35.1588C78.3 34.8318 78.0338 34.4133 77.8909 33.9475C77.4321 32.6609 77.4668 31.25 77.9881 29.9875C78.2291 29.4073 78.6496 28.9195 79.1879 28.5956C79.7263 28.2717 80.3542 28.1287 80.9797 28.1875C82.7437 28.2847 83.7373 29.4979 83.9497 31.0927C83.9881 31.556 84.0026 32.0211 83.9929 32.4859L79.1005 32.4931ZM82.4881 31.4347C82.4629 30.6751 82.2505 30.0343 81.5521 29.6707C81.2811 29.5168 80.97 29.4479 80.6593 29.4729C80.3486 29.498 80.0526 29.6158 79.8097 29.8111C79.5648 30.0019 79.371 30.2504 79.2454 30.5343C79.1197 30.8182 79.0663 31.1287 79.0897 31.4383L82.4881 31.4347Z" fill="#010101"/>
<path d="M39.0319 28.2991H40.5404C40.58 28.4827 40.5944 35.4127 40.5404 35.8375H39.0824V35.1463C38.978 35.1463 38.942 35.2255 38.888 35.2723C37.7756 36.2263 35.9756 36.1327 35.0648 35.0743C34.6781 34.6249 34.4671 34.0507 34.4707 33.4579C34.4707 31.7443 34.4707 30.0343 34.4707 28.3027H35.9648C36.0116 28.3747 35.9863 28.4647 35.9863 28.5475C35.9863 29.9755 35.9863 31.4023 35.9863 32.8279C35.9829 33.05 36.0096 33.2716 36.0655 33.4867C36.1343 33.8189 36.3243 34.1135 36.5985 34.3132C36.8727 34.5129 37.2115 34.6032 37.5488 34.5667C37.8811 34.5795 38.2074 34.4751 38.4706 34.2718C38.7339 34.0685 38.9172 33.7791 38.9888 33.4543C39.0276 33.2843 39.0457 33.1102 39.0428 32.9359C39.0428 31.4959 39.0428 30.0451 39.0428 28.5835L39.0319 28.2991Z" fill="#010101"/>
<path d="M68.5193 28.2991H70.0421V35.8267H68.5661V35.1067C68.3861 35.2435 68.2421 35.3659 68.0873 35.4667C66.8525 36.2875 65.0813 35.9635 64.3361 34.7791C64.0454 34.2618 63.9081 33.6724 63.9401 33.0799C63.9401 31.5247 63.9401 29.9731 63.9401 28.3999C63.9401 28.3639 63.9401 28.3243 63.9401 28.2775H65.4413C65.4735 28.3599 65.4822 28.4496 65.4665 28.5367C65.4665 29.9647 65.4665 31.3915 65.4665 32.8171C65.46 33.0465 65.4867 33.2757 65.5457 33.4975C65.6256 33.8318 65.8265 34.1247 66.1098 34.3196C66.3931 34.5144 66.7385 34.5973 67.0793 34.5523C67.4112 34.5507 67.7321 34.4327 67.986 34.2189C68.2399 34.0051 68.4108 33.7091 68.4689 33.3823C68.503 33.2189 68.5199 33.0524 68.5193 32.8855C68.5193 31.3663 68.5193 29.8399 68.5193 28.2991Z" fill="#010101"/>
<path d="M74.3295 29.4547H73.4727V28.2955H74.3223V26.1355H75.8451V28.2955H77.2851V29.4691H75.8739C75.838 29.548 75.8268 29.6357 75.8415 29.7211C75.8415 30.9907 75.8415 32.2591 75.8415 33.5263C75.8381 33.6688 75.8502 33.8112 75.8775 33.9511C75.897 34.1095 75.9742 34.2552 76.0945 34.3601C76.2147 34.4651 76.3695 34.522 76.5291 34.5199C76.7775 34.5415 77.0331 34.5199 77.2995 34.5199V35.8159C76.8799 35.8423 76.459 35.8423 76.0395 35.8159C75.5476 35.7657 75.0945 35.5261 74.776 35.1479C74.4576 34.7696 74.2987 34.2824 74.3331 33.7891C74.3331 32.4571 74.3331 31.1251 74.3331 29.7931L74.3295 29.4547Z" fill="#010101"/>
<path d="M43.3482 35.8231H41.8398V28.2991H43.3194V29.0731C43.6237 28.7415 44.0047 28.4897 44.429 28.3397C44.8533 28.1897 45.308 28.1461 45.753 28.2127C46.2696 28.2729 46.7486 28.5124 47.1066 28.8895L45.9546 30.0415C45.7564 29.8226 45.4987 29.6662 45.213 29.5915C44.9918 29.539 44.7616 29.5376 44.5397 29.5873C44.3179 29.6371 44.1103 29.7367 43.9327 29.8785C43.755 30.0204 43.612 30.2009 43.5145 30.4063C43.417 30.6117 43.3675 30.8365 43.3698 31.0639C43.3374 31.9495 43.3698 32.8387 43.3698 33.7279C43.3482 34.4227 43.3482 35.1103 43.3482 35.8231Z" fill="#010101"/>
<path d="M72.8221 35.8231H71.3281V28.2991H72.8221V35.8231Z" fill="#010101"/>
<path d="M71.2773 26.7907V25.2103H72.8721V26.7943L71.2773 26.7907Z" fill="#010101"/>
<path d="M17.7609 34.3903H16.9185C16.9185 33.9907 16.9185 33.6055 16.9185 33.2167C16.9185 33.1231 16.9941 33.0619 17.0481 32.9935L18.0201 31.7947H16.9401V30.1279H14.8809L16.0473 28.6879C16.2705 28.4107 16.4865 28.1263 16.7241 27.8599C16.7968 27.7876 16.8526 27.7 16.8874 27.6035C16.9223 27.5071 16.9353 27.4041 16.9257 27.3019C16.9257 27.1075 16.9257 26.9059 16.9257 26.6899H17.7609C17.7609 27.0823 17.7609 27.4747 17.7609 27.8671C17.7609 27.9535 17.6925 28.0075 17.6457 28.0687L16.6665 29.2783H17.7465V30.9487H19.7589C19.6198 31.1716 19.4608 31.3812 19.2837 31.5751C18.8373 32.1331 18.3909 32.6875 17.9337 33.2347C17.8697 33.3062 17.8214 33.3901 17.7916 33.4812C17.7619 33.5723 17.7514 33.6686 17.7609 33.7639C17.7609 33.9655 17.7609 34.1599 17.7609 34.3903Z" fill="#FEFEFE"/>
<path d="M27.6641 34.3796V31.1684H29.8241C30.085 31.1563 30.3465 31.1683 30.6053 31.2044C30.9867 31.2556 31.3344 31.45 31.5778 31.7482C31.8211 32.0464 31.9419 32.426 31.9157 32.81C31.9246 33.2044 31.779 33.5866 31.5099 33.8752C31.2409 34.1637 30.8697 34.3357 30.4757 34.3544C29.5433 34.4228 28.6073 34.3652 27.6641 34.3796Z" fill="#FEFEFE"/>
<path d="M27.6602 29.7175V26.7223C27.7214 26.6683 27.797 26.6971 27.8654 26.6971H30.0722C30.2543 26.6971 30.4358 26.72 30.6122 26.7655C30.9664 26.8364 31.2802 27.0398 31.4896 27.3341C31.699 27.6285 31.7882 27.9917 31.739 28.3495C31.7156 28.7089 31.5586 29.0464 31.2987 29.2956C31.0388 29.5449 30.6949 29.6877 30.335 29.6959C29.4494 29.7535 28.5602 29.6995 27.6602 29.7175Z" fill="#FEFEFE"/>
</g>
<defs>
<clipPath id="clip0_6744_65382">
<rect width="72" height="13.7232" fill="white" transform="translate(12 25.1383)"/>
</clipPath>
</defs>
</svg>
