<svg width="96" height="64" viewBox="0 0 96 64" fill="none" xmlns="http://www.w3.org/2000/svg">
<rect width="96" height="64" fill="white"/>
<g clip-path="url(#clip0_6744_65424)">
<g clip-path="url(#clip1_6744_65424)">
<path d="M57.1145 50.4142C63.8818 45.8566 65.2873 33.9176 60.2538 23.7478C55.2202 13.5779 45.6536 9.02827 38.8862 13.5859C32.1189 18.1435 30.7133 30.0824 35.7469 40.2523C40.7805 50.4222 50.3471 54.9718 57.1145 50.4142Z" fill="url(#paint0_radial_6744_65424)"/>
<path opacity="0.5" d="M32.7482 27.5748C32.7325 31.8244 33.7846 36.2717 35.7474 40.2517C38.1646 45.1353 41.7738 48.9494 45.7809 50.8551C49.7881 52.7607 53.865 52.6018 57.1149 50.4133C59.1169 49.0637 60.7233 46.9974 61.7934 44.395C62.8635 41.7926 63.3647 38.7335 63.2533 35.4855C63.2481 38.5432 62.6907 41.3994 61.6252 43.8277C60.5598 46.2561 59.0155 48.1898 57.1149 49.4758C53.865 51.6643 49.7881 51.8232 45.7809 49.9176C41.7738 48.0119 38.1646 44.1978 35.7474 39.3142C33.9274 35.6344 32.8828 31.5456 32.7482 27.5748Z" fill="black"/>
<path d="M63.5878 11.4545C63.4446 11.4779 63.3105 11.5404 63.2004 11.635L41.6192 30.191C41.1098 30.6288 41.3458 31.4624 42.0091 31.5682L47.3322 32.4187L28.7284 48.9731C27.9806 49.6386 28.9065 50.789 29.7165 50.2008L60.5218 27.8115C61.0581 27.4215 60.9032 26.5839 60.2628 26.4116L56.0729 25.2865L67.2554 16.2318C67.6064 15.9476 67.6476 15.4272 67.3456 15.0914L64.3005 11.7049C64.121 11.5051 63.8521 11.4105 63.5871 11.4536L63.5878 11.4545Z" fill="url(#paint1_linear_6744_65424)"/>
<path opacity="0.2" d="M63.5865 11.4539L63.5872 11.4545C63.444 11.4779 63.3098 11.5404 63.1998 11.635L41.6185 30.191C41.3306 30.3976 41.7278 30.4241 42.1286 30.4993L63.3817 12.7524C63.4918 12.6577 63.6259 12.5953 63.7692 12.5719L63.7685 12.5713C64.0335 12.5282 64.3024 12.623 64.4819 12.8227L67.4037 16.0718C67.6091 15.7791 67.5966 15.3717 67.3451 15.0919L64.2998 11.7055C64.1203 11.5057 63.8515 11.411 63.5864 11.4541L63.5865 11.4539ZM48.369 31.4968L28.7284 48.9736C28.2819 49.3709 28.4322 49.9408 28.798 50.2108C28.8303 50.1696 28.8673 50.1293 28.9104 50.091L49.5879 31.6916L48.369 31.4968Z" fill="white"/>
<path opacity="0.3" d="M67.2219 14.9543C67.1807 15.013 67.1318 15.0675 67.0731 15.115L54.8997 24.9719L56.0726 25.2868L67.2551 16.2323C67.6061 15.948 67.6472 15.4276 67.3453 15.0917L67.2219 14.9543ZM60.5097 26.5278C60.4636 26.5891 60.4071 26.6454 60.3393 26.6947L29.534 49.084C29.2075 49.3211 28.8624 49.2754 28.6155 49.0932C28.0871 49.7661 28.9528 50.7556 29.716 50.2014L60.5213 27.812C60.9795 27.4788 60.9321 26.8205 60.5097 26.5278ZM41.5 30.3213C41.1586 30.7763 41.4066 31.4723 42.0092 31.5685L47.3323 32.4191L48.369 31.4966L41.8272 30.4513C41.7021 30.4313 41.5925 30.3854 41.5 30.3213Z" fill="black"/>
<path opacity="0.3" d="M48.4348 20.7596C45.1147 20.7607 42.0802 22.6374 40.5957 25.6071L42.1677 26.393C43.354 24.0176 45.7797 22.5159 48.4347 22.5129C51.0905 22.5141 53.5179 24.0154 54.7052 26.3913L56.2669 25.6105C54.7846 22.6416 51.7532 20.764 48.4349 20.7595L48.4348 20.7596ZM48.4346 24.2664C46.4422 24.2673 44.6214 25.3933 43.731 27.1755L45.3011 27.9598C45.8941 26.7719 47.1069 26.0212 48.4346 26.0198C49.7626 26.0203 50.9761 26.7706 51.5699 27.9582L53.1333 27.1772C52.244 25.3959 50.4255 24.2694 48.4346 24.2664ZM48.422 27.7285C47.5021 27.7285 46.9271 28.3228 46.9271 29.2426C46.9271 30.1625 47.5021 30.7373 48.422 30.7373C49.3419 30.7373 49.9359 30.1625 49.9359 29.2426C49.9359 28.3227 49.3418 27.7285 48.422 27.7285Z" fill="black"/>
<path d="M48.4351 20.1971C45.1151 20.1982 42.0806 22.0749 40.596 25.0446L42.168 25.8305C43.3543 23.4551 45.78 21.9534 48.435 21.9504C51.0909 21.9516 53.5182 23.4529 54.7055 25.8288L56.2672 25.048C54.7849 22.0791 51.7535 20.2015 48.4352 20.197L48.4351 20.1971ZM48.4349 23.7039C46.4426 23.7048 44.6217 24.8308 43.7313 26.613L45.3014 27.3973C45.8945 26.2094 47.1072 25.4587 48.4349 25.4573C49.7629 25.4578 50.9764 26.2081 51.5702 27.3957L53.1336 26.6147C52.2443 24.8334 50.4258 23.7069 48.4349 23.7039ZM48.4223 27.166C47.5024 27.166 46.9275 27.7603 46.9275 28.6801C46.9275 29.6 47.5024 30.1748 48.4223 30.1748C49.3422 30.1748 49.9362 29.6 49.9362 28.6801C49.9362 27.7602 49.3421 27.166 48.4223 27.166ZM37.7095 27.9135L32.8418 41.2138H35.4674L36.5597 37.8793H41.6574L42.7498 41.2138H45.4901L40.8716 27.9135H37.7094H37.7095ZM52.6382 27.9135V41.2138H55.1105V36.2502H57.3526L60.189 41.2138H63.1595L59.825 35.7327C61.3581 35.0045 62.3163 33.5864 62.3163 31.785C62.3163 29.3319 60.5148 27.9138 57.6019 27.9138H52.6383L52.6382 27.9135ZM39.127 30.0408L40.9476 35.6749H37.2873L39.127 30.0408ZM55.1104 30.0598H57.276C58.8284 30.0598 59.7481 30.8456 59.7481 32.1679C59.7481 33.4135 58.9816 34.161 57.6017 34.161H55.1104V30.0598ZM47.1955 31.8996V41.2135H49.6293V31.8996H47.1955Z" fill="white"/>
<path opacity="0.3" d="M55.111 35.3124V36.2499H57.3531L60.1894 41.2135H63.16L62.5896 40.276H60.1894L57.3531 35.3124H55.111ZM36.5598 36.9415L35.4674 40.276H33.1849L32.8418 41.2135H35.4674L36.5597 37.879H41.6574L42.7498 41.2135H45.4901L45.1645 40.276H42.7497L41.6573 36.9415H36.5598ZM47.1957 40.276V41.2135H49.6295V40.276H47.1957ZM52.6383 40.276V41.2135H55.1106V40.276H52.6383Z" fill="black"/>
</g>
</g>
<defs>
<radialGradient id="paint0_radial_6744_65424" cx="0" cy="0" r="1" gradientUnits="userSpaceOnUse" gradientTransform="translate(48.0005 32.0009) rotate(-29.9998) scale(26.214 36.1362)">
<stop/>
<stop offset="1" stop-color="#4C4F5C"/>
</radialGradient>
<linearGradient id="paint1_linear_6744_65424" x1="41.4955" y1="57.8455" x2="66.655" y2="7.90981" gradientUnits="userSpaceOnUse">
<stop stop-color="#23BAC2"/>
<stop offset="1" stop-color="#367BF0"/>
</linearGradient>
<clipPath id="clip0_6744_65424">
<rect width="72" height="48" fill="white" transform="translate(12 7.99988)"/>
</clipPath>
<clipPath id="clip1_6744_65424">
<rect width="48" height="48" fill="white" transform="translate(24 7.99988)"/>
</clipPath>
</defs>
</svg>
