<svg width="96" height="64" viewBox="0 0 96 64" fill="none" xmlns="http://www.w3.org/2000/svg">
<rect width="96" height="64" fill="white"/>
<g clip-path="url(#clip0_6744_65516)">
<path d="M73.956 41.7559C53.328 41.7559 32.664 41.7559 12 41.7559C12 35.2759 12 28.7599 12 22.2439C35.976 22.2439 59.988 22.2439 84 22.2439C84 24.8719 84 27.4999 84 30.1279C83.748 29.9479 83.784 29.6239 83.712 29.3719C83.172 27.3919 81.732 26.2759 79.716 26.2399C78.996 26.2399 78.276 26.2399 77.556 26.2399C76.368 26.2399 75.18 26.2399 74.028 26.2399C73.848 26.5999 73.92 26.8879 73.92 27.1759C73.92 30.8839 73.92 34.5919 73.92 38.2999C73.884 39.4159 73.92 40.6039 73.956 41.7559ZM24.204 36.8599C24.96 37.6879 25.284 37.6879 25.752 36.7879C26.22 36.9679 26.688 36.7519 27.12 36.7879C27.336 37.0039 27.048 37.3639 27.408 37.5799C27.84 37.3999 27.48 36.6079 28.092 36.6079C28.524 36.6079 28.956 36.3559 29.388 36.4639C29.604 36.7879 29.136 37.1839 29.712 37.6159C29.532 36.1759 30.684 36.1399 31.62 35.7799C31.008 35.4199 30.54 35.9239 30.036 35.6719C30.036 35.4919 30.036 35.3119 30.036 35.1319C30 34.3759 30.036 33.6559 31.116 33.7279C31.332 33.7279 31.512 33.5839 31.404 33.2599C31.044 33.1159 30.612 33.4759 30.216 33.2239C30.216 32.8279 30.252 32.4319 30.216 32.0359C30.18 31.5319 30.324 31.2799 30.864 31.2799C31.116 31.2799 31.476 31.3159 31.44 30.8479C31.08 30.5959 30.684 30.9199 30.252 30.7399C30.252 30.1279 30.252 29.5519 30.252 28.9399C30.54 28.7959 30.828 28.8679 31.116 28.8319C31.26 28.8319 31.44 28.7959 31.44 28.6159C31.476 28.3999 31.296 28.3639 31.116 28.3279C30.828 28.2919 30.504 28.4359 30.18 28.1839C30.216 27.6439 29.928 27.1399 30.108 26.5999C30.576 26.4199 31.044 26.7079 31.512 26.3839C31.008 25.8439 30.108 26.4559 29.712 25.4839C29.676 26.2399 29.28 26.0959 28.956 26.0959C28.488 26.0959 28.056 25.9879 27.624 26.0239C26.328 26.0959 24.996 26.2399 23.7 26.4199C21 26.7799 18.192 26.8519 15.492 27.7519C15.24 27.8239 15.024 27.8239 14.772 27.4279C14.556 30.3439 13.8 33.0079 13.98 35.7799C14.016 36.1759 13.944 36.4999 13.584 36.7519C13.764 36.9319 13.944 36.9319 14.016 37.1839C14.052 37.3639 13.98 37.6159 14.232 37.7239C14.556 37.5079 14.16 37.2199 14.448 37.0399C15.384 37.1839 15.384 37.1839 15.816 37.6879C16.248 37.1119 17.184 37.1119 17.76 37.6879C18.3 37.1839 19.308 37.1839 20.064 37.6519C20.532 37.2559 21.684 37.1119 22.224 37.4719C22.368 37.5799 22.584 37.6879 22.656 37.5439C22.872 37.0039 23.34 37.2199 23.7 37.1839C23.916 37.1479 24.132 37.1479 24.204 36.8599ZM13.008 36.5719C12.972 36.7519 12.936 36.8959 13.044 37.1119C13.188 36.8959 13.26 36.7519 13.152 36.5719C13.62 33.5839 13.656 30.5599 14.088 27.5719C14.16 27.0679 14.232 26.8519 14.808 26.7799C17.4 26.5999 19.992 26.0959 22.584 25.9159C24.888 25.7359 27.156 25.3759 29.424 25.1239C30.252 25.0519 31.116 24.8359 31.98 24.9079C31.98 29.2999 31.98 33.6199 31.98 38.0839C26.58 38.0839 21.252 38.0839 15.888 38.0839C15.888 38.1919 15.888 38.2639 15.888 38.3719C21.684 38.6959 27.48 39.0199 33.276 39.3439C33.276 33.9799 33.276 28.6879 33.276 23.3599C26.58 24.1519 19.884 24.9079 13.008 25.6639C13.008 29.3359 13.008 32.9719 13.008 36.5719ZM53.652 27.3559C52.788 26.0239 51.384 26.2039 50.052 26.2399C49.152 26.2399 48.288 26.2399 47.388 26.2399C46.128 26.2399 45.66 26.7079 45.66 27.9679C45.66 30.9199 45.66 33.8719 45.66 36.7879C45.66 37.0399 45.588 37.3279 45.768 37.5799C46.596 37.5799 47.46 37.5799 48.36 37.5799C48.36 37.2559 48.36 37.0039 48.36 36.7159C48.36 34.4119 48.36 32.1079 48.36 29.8039C48.36 28.6879 48.432 28.6519 49.548 28.6519C49.944 28.6519 50.304 28.6519 50.7 28.6519C51.816 28.6519 52.284 29.1199 52.284 30.1999C52.284 32.4679 52.284 34.6999 52.284 36.9679C52.284 37.4359 52.392 37.6879 52.932 37.6519C53.364 37.6159 53.796 37.6159 54.228 37.6519C54.804 37.7239 55.02 37.5079 55.02 36.8959C54.984 34.9159 55.02 32.9719 55.02 30.9919C55.02 28.6879 55.092 28.6159 57.396 28.6519C58.584 28.6519 59.16 29.2639 59.16 30.4159C59.16 32.1439 59.16 33.8719 59.16 35.5999C59.16 37.6879 59.16 37.6519 61.212 37.6519C61.716 37.6519 61.86 37.4719 61.86 36.9679C61.824 34.6639 61.86 32.3599 61.86 30.0559C61.86 28.6879 61.248 27.6799 60.132 26.9239C58.368 25.7359 55.452 25.9159 53.652 27.3559ZM63.48 28.8679C63.84 28.8679 64.092 28.8679 64.344 28.8679C65.892 28.8679 67.44 28.8679 69.024 28.8679C69.348 28.8679 69.708 28.8679 69.96 29.1559C70.176 29.4439 70.32 29.7319 70.14 30.0919C69.924 30.5239 69.564 30.7039 69.096 30.7039C67.944 30.7039 66.792 30.7399 65.64 30.7039C64.596 30.6679 63.876 31.1359 63.444 32.0359C62.724 33.5119 62.688 35.0239 63.408 36.5359C63.768 37.2919 64.344 37.6879 65.244 37.6879C67.548 37.6519 69.888 37.6519 72.192 37.6879C72.804 37.6879 72.912 37.4719 72.912 36.9319C72.876 34.7359 72.912 32.5399 72.912 30.3439C72.912 29.6599 72.84 29.0119 72.588 28.3639C72.084 26.9239 71.148 26.2759 69.636 26.2759C67.836 26.2759 66.036 26.2759 64.236 26.2759C63.984 26.2759 63.696 26.2039 63.48 26.4199C63.48 27.1399 63.48 27.9679 63.48 28.8679ZM39.324 34.9159C39.36 34.5199 39.576 34.3759 39.756 34.1959C41.232 32.7199 42.672 31.2439 44.184 29.7679C44.976 29.0119 45.048 28.1479 44.724 27.2119C44.4 26.3119 43.572 26.2399 42.744 26.2399C40.44 26.2399 38.136 26.2399 35.832 26.2399C35.652 26.2399 35.436 26.1679 35.256 26.3479C35.256 27.1759 35.256 27.9679 35.256 28.8679C37.092 28.9399 38.928 28.8319 40.728 28.9399C40.692 29.3719 40.44 29.5159 40.296 29.6599C39.216 30.7759 38.1 31.8559 36.984 32.9719C36.444 33.5479 35.832 34.0519 35.364 34.6639C34.392 35.8879 35.04 37.3999 36.588 37.5799C36.912 37.6159 37.2 37.6159 37.524 37.6159C39.72 37.6159 41.88 37.6159 44.076 37.6159C44.292 37.6159 44.544 37.6879 44.724 37.5079C44.724 36.6799 44.724 35.8519 44.724 34.9159C42.888 34.9159 41.124 34.9159 39.324 34.9159ZM22.728 40.7839C23.232 40.7839 23.988 40.7839 24.744 40.3879C24.996 40.2439 25.248 40.2079 25.248 39.8839C25.248 39.5959 24.996 39.4519 24.78 39.3799C23.232 38.8399 21.684 38.8039 20.136 39.3799C19.92 39.4519 19.668 39.5959 19.668 39.8839C19.668 40.2079 19.92 40.3159 20.172 40.4239C20.892 40.7119 21.648 40.7839 22.728 40.7839Z" fill="#FDFCFC"/>
<path d="M73.9565 41.7558C73.9565 40.5678 73.9205 39.4158 73.9205 38.2278C73.9205 34.5198 73.9205 30.8118 73.9205 27.1038C73.9205 26.8158 73.8485 26.5278 74.0285 26.1678C75.1805 26.1678 76.3685 26.1678 77.5565 26.1678C78.2765 26.1678 78.9965 26.1678 79.7165 26.1678C81.7685 26.2038 83.1725 27.3198 83.7125 29.2998C83.7845 29.5518 83.7485 29.8758 84.0005 30.0558C84.0005 31.1718 84.0005 32.2518 84.0005 33.3678C83.7485 33.5478 83.7845 33.8718 83.7125 34.1238C83.1725 35.8878 82.1285 37.1118 80.2565 37.4718C79.2485 37.6518 78.2405 37.5798 77.2685 37.5438C76.7285 37.5438 76.5845 37.7238 76.5845 38.2638C76.6205 39.4158 76.5845 40.5678 76.5845 41.7198C75.6485 41.7558 74.7845 41.7558 73.9565 41.7558ZM76.5485 31.9278C76.5485 32.7558 76.5845 33.5478 76.5485 34.3758C76.5485 34.8438 76.7285 35.0238 77.1605 34.9878C77.8445 34.9518 78.4925 34.9878 79.1765 34.9878C80.4005 34.9878 81.3365 34.1598 81.4085 32.9358C81.4445 32.2518 81.4445 31.6038 81.4085 30.9198C81.3365 29.8758 80.4365 28.9038 79.5365 28.8678C78.7085 28.8318 77.9165 28.8678 77.0885 28.8678C76.6205 28.8678 76.5125 29.0838 76.5485 29.4798C76.5485 30.2718 76.5485 31.0998 76.5485 31.9278Z" fill="#6F7073"/>
<path d="M76.5117 41.7559C76.5117 40.6039 76.5477 39.4519 76.5117 38.2999C76.5117 37.7599 76.6557 37.5799 77.1957 37.5799C78.2037 37.5799 79.2117 37.6879 80.1837 37.5079C82.0557 37.1479 83.1357 35.9239 83.6397 34.1599C83.7117 33.9079 83.6757 33.5839 83.9277 33.4039C83.9277 36.1759 83.9277 38.9479 83.9277 41.7559C81.5157 41.7559 79.0317 41.7559 76.5117 41.7559Z" fill="#FDFCFC"/>
<path d="M53.6516 27.3559C55.4156 25.9159 58.3676 25.7719 60.0956 26.9599C61.1756 27.7159 61.8236 28.7599 61.8236 30.0919C61.8236 32.3959 61.8236 34.6999 61.8236 37.0039C61.8236 37.5079 61.6796 37.6519 61.1756 37.6879C59.1236 37.7239 59.1236 37.7239 59.1236 35.6359C59.1236 33.9079 59.1236 32.1799 59.1236 30.4519C59.1236 29.2639 58.5476 28.6879 57.3596 28.6879C55.0556 28.6519 54.9836 28.7239 54.9836 31.0279C54.9836 33.0079 54.9476 34.9519 54.9836 36.9319C54.9836 37.5439 54.8036 37.7239 54.1916 37.6879C53.7596 37.6519 53.3276 37.6519 52.8956 37.6879C52.3556 37.7239 52.2476 37.5079 52.2476 37.0039C52.2476 34.7359 52.2476 32.5039 52.2476 30.2359C52.2476 29.1199 51.7796 28.6879 50.6636 28.6879C50.2676 28.6879 49.9076 28.6879 49.5116 28.6879C48.3956 28.6879 48.3236 28.7599 48.3236 29.8399C48.3236 32.1439 48.3236 34.4479 48.3236 36.7519C48.3236 37.0039 48.3236 37.2559 48.3236 37.6159C47.4236 37.6159 46.5956 37.6159 45.7316 37.6159C45.5516 37.3639 45.6236 37.1119 45.6236 36.8239C45.6236 33.8719 45.6236 30.9199 45.6236 28.0039C45.6236 26.7439 46.0916 26.2759 47.3516 26.2759C48.2516 26.2759 49.1156 26.2759 50.0156 26.2759C51.3836 26.2039 52.7876 25.9879 53.6516 27.3559Z" fill="#6F7073"/>
<path d="M63.4806 28.8679C63.4806 27.9679 63.4806 27.1399 63.4806 26.3479C63.6966 26.1319 63.9846 26.2039 64.2366 26.2039C66.0366 26.2039 67.8366 26.2039 69.6366 26.2039C71.1486 26.2039 72.0846 26.8519 72.5886 28.2919C72.8046 28.9399 72.9126 29.5879 72.9126 30.2719C72.9126 32.4679 72.9126 34.6639 72.9126 36.8599C72.9126 37.3999 72.8046 37.6159 72.1926 37.6159C69.8886 37.5799 67.5486 37.5799 65.2446 37.6159C64.3446 37.6159 63.7686 37.2199 63.4086 36.4639C62.6886 34.9519 62.6886 33.4399 63.4446 31.9639C63.8766 31.0639 64.5966 30.5959 65.6406 30.6319C66.7926 30.6679 67.9446 30.6319 69.0966 30.6319C69.5646 30.6319 69.9606 30.4519 70.1406 30.0199C70.2846 29.6959 70.1766 29.3719 69.9606 29.0839C69.7086 28.7959 69.3846 28.7959 69.0246 28.7959C67.4766 28.7959 65.9286 28.7959 64.3446 28.7959C64.0926 28.8679 63.8406 28.8679 63.4806 28.8679ZM70.2126 35.0239C70.2126 34.5199 70.2126 34.0879 70.2126 33.6919C70.2126 33.4399 70.1046 33.2959 69.8526 33.2959C68.6286 33.2959 67.3686 33.2599 66.1446 33.2959C65.6766 33.2959 65.4606 33.6919 65.4606 34.1599C65.4606 34.5919 65.6406 34.9879 66.1446 35.0239C67.4406 35.0599 68.7726 35.0239 70.2126 35.0239Z" fill="#6F7073"/>
<path d="M39.323 34.9159C41.123 34.9159 42.887 34.9159 44.723 34.9159C44.723 35.8519 44.723 36.6799 44.723 37.5079C44.543 37.6879 44.291 37.6159 44.075 37.6159C41.879 37.6159 39.719 37.6159 37.523 37.6159C37.199 37.6159 36.911 37.6159 36.587 37.5799C35.039 37.3639 34.427 35.8519 35.363 34.6639C35.867 34.0519 36.443 33.5119 36.983 32.9719C38.063 31.8559 39.179 30.7759 40.295 29.6599C40.475 29.4799 40.691 29.3719 40.727 28.9399C38.927 28.8319 37.091 28.9399 35.255 28.8679C35.255 28.0039 35.255 27.1759 35.255 26.3479C35.435 26.1679 35.615 26.2399 35.831 26.2399C38.135 26.2399 40.439 26.2399 42.743 26.2399C43.571 26.2399 44.363 26.3119 44.723 27.2119C45.047 28.1479 44.975 29.0119 44.183 29.7679C42.707 31.2079 41.231 32.7199 39.755 34.1959C39.575 34.3759 39.323 34.5199 39.323 34.9159Z" fill="#F37225"/>
<path d="M13.0078 36.5719C13.0078 32.9719 13.0078 29.3359 13.0078 25.6639C19.8478 24.8719 26.5798 24.1159 33.3478 23.3599C33.3478 28.6879 33.3478 33.9439 33.3478 39.3439C27.5518 39.0199 21.7558 38.6959 15.9598 38.3719C15.9598 38.2639 15.9598 38.1919 15.9598 38.0839C21.2878 38.0839 26.6518 38.0839 32.0518 38.0839C32.0518 33.6199 32.0518 29.2999 32.0518 24.9079C31.1878 24.8359 30.3238 25.0159 29.4958 25.1239C27.2278 25.3759 24.9238 25.6999 22.6558 25.9159C20.0638 26.1319 17.4718 26.5999 14.8798 26.7799C14.3038 26.8159 14.2318 27.0679 14.1598 27.5719C13.7278 30.5599 13.6558 33.5839 13.2238 36.5719C13.1158 36.5719 13.0798 36.5719 13.0078 36.5719Z" fill="#F37225"/>
<path d="M24.2031 36.8599C24.1311 37.1479 23.9151 37.1119 23.6991 37.1479C23.3391 37.1839 22.8711 37.0039 22.6551 37.5079C22.5831 37.6519 22.4031 37.5439 22.2231 37.4359C21.6831 37.1119 20.5311 37.2199 20.0631 37.6159C19.3071 37.1119 18.2991 37.1479 17.7591 37.6519C17.1831 37.0759 16.2471 37.0759 15.8151 37.6519C15.3831 37.1479 15.3831 37.1479 14.4471 37.0039C14.1591 37.2199 14.5551 37.5079 14.2671 37.6879C14.0151 37.5799 14.0871 37.3279 14.0511 37.1479C13.9791 36.9319 13.7631 36.8959 13.6191 36.7159C13.9431 36.4999 14.0151 36.1759 13.9791 35.7799C13.7991 33.0079 14.5551 30.3439 14.7711 27.4279C15.0591 27.8239 15.2391 27.8239 15.4911 27.7519C18.1551 26.8519 20.9631 26.7799 23.7351 26.4199C25.0311 26.2399 26.3271 26.0959 27.6591 26.0239C28.0911 25.9879 28.5591 26.1319 28.9911 26.0959C29.3151 26.0959 29.7111 26.2039 29.7471 25.4839C30.1791 26.4559 31.0431 25.8799 31.5471 26.3839C31.0791 26.7079 30.6111 26.4199 30.1431 26.5999C29.9991 27.1399 30.2511 27.6439 30.2151 28.1839C30.5031 28.4359 30.8271 28.2919 31.1511 28.3279C31.3311 28.3639 31.5111 28.3999 31.4751 28.6159C31.4751 28.7959 31.2951 28.7959 31.1511 28.8319C30.8631 28.8679 30.5751 28.7959 30.2871 28.9399C30.2871 29.5519 30.2871 30.1639 30.2871 30.7399C30.6831 30.9199 31.0791 30.5959 31.4751 30.8479C31.5111 31.2799 31.1511 31.2799 30.8991 31.2799C30.3231 31.2439 30.2151 31.5319 30.2511 32.0359C30.2871 32.4319 30.2511 32.8279 30.2511 33.2239C30.6471 33.4759 31.0791 33.1159 31.4391 33.2599C31.5831 33.5839 31.4031 33.7279 31.1511 33.7279C30.0711 33.6559 30.0351 34.3759 30.0711 35.1319C30.0711 35.3119 30.0711 35.4919 30.0711 35.6719C30.5391 35.9239 31.0071 35.4199 31.6551 35.7799C30.7191 36.1399 29.5671 36.1399 29.7471 37.6159C29.2071 37.1839 29.6391 36.8239 29.4231 36.4639C28.9911 36.3559 28.5591 36.6079 28.1271 36.6079C27.5151 36.6079 27.8751 37.3999 27.4431 37.5799C27.0831 37.3639 27.3711 37.0399 27.1551 36.7879C26.7231 36.7519 26.2551 36.9679 25.7871 36.7879C25.7871 36.4999 25.9311 36.4279 26.1831 36.3919C26.5431 36.3559 26.9391 36.2839 27.3351 36.2119C27.3711 35.5279 27.4431 34.8799 27.4791 34.1959C26.9751 34.2319 26.5431 34.2679 26.1111 34.2679C25.6071 34.2679 25.3911 34.5199 25.3911 35.0239C25.3911 35.3479 25.4631 35.6719 25.2471 35.9599C24.7791 35.8159 24.9951 35.4919 24.9591 35.2399C24.9231 34.9519 25.0671 34.6639 24.8511 34.3759C24.2391 34.4479 23.6271 34.4839 23.0511 34.5559C22.8351 34.8799 23.0511 35.3119 22.6191 35.5279C22.1871 35.3479 22.5471 34.8799 22.2591 34.6639C21.4311 34.5559 20.6391 34.6999 19.8111 34.8079C19.6311 34.7719 19.4511 34.6999 19.2351 34.6639C19.1631 34.5199 19.0551 34.4839 18.9111 34.5199C19.0551 33.9799 19.6311 34.4119 19.9191 34.0519C19.9191 33.8359 19.9191 33.5119 19.9191 33.2239C20.0631 33.2599 20.1711 33.2239 20.2071 33.0799C20.6031 33.3679 20.1711 33.8719 20.5311 34.2319C21.1071 34.1959 21.7191 34.1239 22.3671 34.0519C22.4391 33.2239 22.7991 32.3959 22.0791 31.6399C22.2591 31.4959 22.4751 31.3519 22.6551 31.2079C23.4471 31.3879 24.2391 31.2079 25.1031 31.1359C25.1031 30.7039 25.1031 30.3439 25.1031 29.9479C25.1031 29.8039 25.1391 29.6599 25.3191 29.6599C25.5351 29.6599 25.6071 29.7679 25.6071 29.9839C25.6431 30.3439 25.4991 30.7039 25.7151 31.0999C26.1831 31.0639 26.6871 31.0639 27.1911 31.0279C27.4071 30.9919 27.6231 30.9199 27.6231 30.6319C27.6231 30.0919 27.6231 29.5519 27.6231 29.0479C27.2631 28.8679 26.9751 28.9759 26.7231 28.9399C26.5431 28.9399 26.2911 29.0479 26.2551 28.7599C26.2191 28.3999 26.5431 28.4719 26.7231 28.5079C27.3711 28.5079 27.6951 28.2559 27.5511 27.5719C27.4791 27.2479 27.5871 26.9239 27.4431 26.5639C26.8671 26.5279 26.2911 26.4919 25.7151 26.6359C25.4991 27.1399 25.8231 27.6799 25.4271 28.1839C24.9591 27.7519 25.3551 27.1759 25.0671 26.7079C24.4551 26.7079 23.8431 26.6719 23.3391 26.8879C22.9791 27.4639 23.3391 28.1479 22.7631 28.6879C22.5111 28.0759 22.7631 27.5359 22.5831 26.9959C21.9711 26.9239 21.3591 26.9599 20.8551 27.2119C20.6031 27.7879 20.8911 28.4719 20.3511 28.9399C20.0631 28.3279 20.3871 27.8239 20.2791 27.3199C19.9191 27.2479 19.5951 27.3559 19.2351 27.3919C18.6951 27.4279 18.4071 27.6439 18.4431 28.2199C18.4431 28.4359 18.4431 28.7239 18.1191 28.8679C17.8671 28.4719 18.1551 28.0399 17.9751 27.6799C16.4271 27.8599 16.1031 28.2919 16.4271 29.6239C16.7151 29.6239 17.0031 29.6239 17.2911 29.6239C17.2911 29.6959 17.2911 29.7319 17.2911 29.8039C17.0391 30.1999 16.6431 30.2359 16.2111 30.2359C16.2471 30.8479 15.9591 31.4239 16.1031 32.0359C16.6431 32.0719 17.1111 32.1079 17.5791 31.8559C17.7231 31.4239 17.5071 30.8479 18.1191 30.5959C18.2631 30.8119 18.1911 31.0279 18.2271 31.2079C18.2271 31.4239 18.1551 31.6399 18.2991 31.8199C18.3351 31.8199 18.4071 31.8559 18.4431 31.8559C18.9471 31.8199 19.5231 31.8919 19.9191 31.6399C20.3511 31.3519 20.0631 30.7039 20.1351 30.2359C20.1711 29.9479 20.2791 29.8039 20.6031 29.9119C20.6031 30.2719 20.6031 30.6319 20.5311 30.9919C20.4591 31.3879 20.6031 31.6039 20.9631 31.7479C20.8911 31.7839 20.8551 31.8559 20.7831 31.8919C20.6031 32.0359 20.4231 32.1799 20.2431 32.3239C19.7751 32.3239 19.2711 32.3239 18.8031 32.3239C18.2991 32.2879 18.0471 32.4679 18.0831 33.0079C18.0831 33.2239 18.1911 33.5119 17.7951 33.6199C17.5071 33.2959 17.7951 32.8279 17.5791 32.4679C17.1111 32.5039 16.6071 32.3959 16.1031 32.6119C16.0671 32.9359 16.0671 33.2599 16.0311 33.5479C15.9951 33.8359 15.8871 34.1599 16.0671 34.4479C16.2831 34.6639 16.7151 34.3039 16.8231 34.7719C16.6071 35.0959 16.2471 34.8079 16.0311 35.0599C15.8871 37.0039 15.7431 37.0399 17.5431 36.8599C17.7951 36.4999 17.4351 35.9959 17.7951 35.7079C17.9751 35.7439 18.0471 35.8519 18.0471 35.9599C18.1191 36.9679 18.1191 36.9679 19.0911 36.9679C19.3431 36.9679 19.5591 37.0039 19.7391 36.9319C20.0631 36.5719 19.5951 35.8519 20.3871 35.8519C20.3871 36.2119 20.3151 36.6079 20.4951 37.0399C21.6831 36.7519 22.9431 36.5359 24.2031 36.8599ZM22.9791 34.0519C23.4831 34.0159 23.9871 33.9799 24.4911 33.9799C24.8151 33.9799 24.9951 33.8359 24.9951 33.5119C25.0311 32.9359 25.1031 32.3239 24.9951 31.7479C22.7991 31.9279 22.7991 31.9279 22.9431 33.9079C22.9431 33.9799 22.9431 33.9799 22.9791 34.0519ZM25.5351 31.7479C25.5351 32.4679 25.5351 33.1519 25.5351 33.8359C26.2191 33.9079 26.8311 33.7279 27.4791 33.6559C27.5511 32.9359 27.5871 32.2879 27.5151 31.6039C26.8311 31.4959 26.2191 31.7119 25.5351 31.7479ZM29.8191 33.3679C29.7831 32.6839 29.9271 32.0719 29.7831 31.3879C29.2071 31.3879 28.6671 31.3519 28.1271 31.4959C28.1271 32.1799 27.8751 32.8279 28.0551 33.5119C28.6311 33.6559 29.1711 33.4759 29.8191 33.3679ZM27.8751 36.1399C28.3791 36.2119 28.8471 36.0319 29.3151 35.9599C29.5311 35.9239 29.6391 35.7799 29.6751 35.5639C29.7111 35.0239 29.7471 34.4839 29.7831 33.9079C29.2791 33.9799 28.8471 34.0159 28.3791 34.0879C28.1631 34.1239 27.9471 34.1239 27.9471 34.4479C27.9471 34.9879 27.7311 35.5279 27.8751 36.1399ZM28.1271 28.8679C28.1271 29.6239 28.1271 30.2719 28.1271 30.9919C28.7391 30.9199 29.3151 30.8479 29.9271 30.8119C29.8911 30.1279 29.8551 29.5159 29.8191 28.9039C29.2071 28.8679 28.7031 28.8679 28.1271 28.8679ZM28.0191 26.5639C27.9111 27.1759 28.0551 27.7519 28.1271 28.3279C28.4151 28.4719 28.7031 28.3999 28.9551 28.3999C29.2431 28.3999 29.5311 28.4719 29.7831 28.2919C29.9631 26.5639 29.7831 26.3839 28.0191 26.5639ZM15.5631 34.3759C15.5631 33.7639 15.5631 33.1879 15.5631 32.6479C14.2671 32.5039 14.1591 32.4679 14.3751 34.3759C14.7351 34.4839 15.0951 34.4839 15.5631 34.3759ZM14.3391 34.9159C14.1591 36.4999 14.1231 36.8959 15.5631 36.6079C15.5631 36.0679 15.6351 35.4919 15.4911 34.9159C15.2391 34.9159 15.0231 34.8799 14.8431 34.8799C14.6631 34.8799 14.5191 34.9159 14.3391 34.9159ZM15.8151 30.2359C14.4831 30.2719 14.1591 30.7399 14.5191 32.0719C15.6711 32.1799 15.6711 32.1799 15.7431 31.0639C15.7431 30.8119 15.7791 30.5239 15.8151 30.2359ZM14.7711 29.8399C15.9231 29.8399 16.3191 29.2999 16.0311 28.0399C14.7711 28.2559 14.5911 28.4719 14.7711 29.8399Z" fill="#9FA0A3"/>
<path d="M17.255 29.6958C17.255 29.6238 17.255 29.5878 17.255 29.5158C17.543 29.0478 17.903 28.7238 18.443 29.1198C18.659 29.2638 18.911 29.2278 19.127 29.2278C20.495 29.0838 21.827 28.9758 23.195 28.7598C23.843 28.6518 24.527 28.8318 25.067 28.2918C25.247 28.1118 25.571 28.1838 25.787 28.3998C25.967 28.5798 26.075 28.7958 25.967 29.0478C25.859 29.2998 25.715 29.4798 25.391 29.5518C25.175 29.5878 24.923 29.4798 24.707 29.6598C24.023 30.2358 23.195 30.6678 22.547 31.2798C22.367 31.4238 22.151 31.5678 21.971 31.7118C21.179 31.9638 20.639 32.5758 20.099 33.1158C19.919 33.0438 19.847 33.1158 19.811 33.2598C19.307 33.4398 18.947 33.7998 18.551 34.1238C18.227 34.4118 18.371 34.5918 18.803 34.5558C18.839 34.7358 18.983 34.6998 19.127 34.6998C19.307 34.7358 19.487 34.8078 19.703 34.8438C21.143 35.4918 22.727 35.8158 24.239 36.2838C24.311 36.3198 24.455 36.3198 24.527 36.2478C25.175 35.8878 25.499 36.2478 25.751 36.7878C25.283 37.6878 24.923 37.6878 24.203 36.8598C22.943 36.3918 21.647 35.9958 20.315 35.7078C19.523 35.4558 18.839 34.8438 17.867 35.2758C17.471 35.4558 17.111 35.1678 17.039 34.7358C16.967 34.3038 17.183 33.9078 17.615 33.9078C18.767 33.8358 19.379 32.9358 20.171 32.3238C20.351 32.1798 20.531 32.0358 20.711 31.8918C20.783 31.8558 20.927 31.9278 20.891 31.7478C21.647 31.4958 22.187 30.9558 22.799 30.4878C22.871 30.4158 22.979 30.3798 23.051 30.3078C23.591 30.0198 24.059 29.6598 24.671 29.1198C22.619 29.3358 20.783 29.5158 18.911 29.7318C18.803 29.7318 18.695 29.7678 18.659 29.8038C17.867 30.4518 17.831 30.4518 17.255 29.6958Z" fill="#F37225"/>
<path d="M22.7271 40.7839C21.6471 40.7839 20.8911 40.7119 20.2071 40.4239C19.9551 40.3159 19.7031 40.1719 19.7031 39.8839C19.7031 39.6319 19.9551 39.4519 20.1711 39.3799C21.7191 38.8039 23.2671 38.8399 24.8151 39.3799C25.0311 39.4519 25.2831 39.5959 25.2831 39.8839C25.2831 40.2079 25.0311 40.2799 24.7791 40.3879C23.9871 40.7479 23.2311 40.7479 22.7271 40.7839Z" fill="#F37225"/>
<path d="M13.0087 36.5719C13.0447 36.5719 13.1167 36.5359 13.1527 36.5359C13.2607 36.7159 13.1887 36.8959 13.0447 37.0759C12.9367 36.8959 12.9727 36.7519 13.0087 36.5719Z" fill="#F7AA7F"/>
<path d="M76.5474 31.9279C76.5474 31.0999 76.5474 30.3079 76.5474 29.4799C76.5474 29.0839 76.6554 28.8319 77.0874 28.8679C77.9154 28.9039 78.7074 28.8679 79.5354 28.8679C80.4714 28.9039 81.3714 29.8759 81.4074 30.9199C81.4434 31.6039 81.4434 32.2519 81.4074 32.9359C81.3354 34.1599 80.3994 34.9879 79.1754 34.9879C78.4914 34.9879 77.8434 34.9519 77.1594 34.9879C76.6914 35.0239 76.5114 34.8439 76.5474 34.3759C76.5834 33.5479 76.5474 32.7199 76.5474 31.9279Z" fill="#FDFCFC"/>
<path d="M70.2118 35.0239C68.7718 35.0239 67.4398 35.0599 66.1078 35.0239C65.6038 35.0239 65.4238 34.6279 65.4238 34.1599C65.4238 33.6919 65.6038 33.3319 66.1078 33.2959C67.3318 33.2599 68.5918 33.2959 69.8158 33.2959C70.1038 33.2959 70.2118 33.4399 70.1758 33.6919C70.2118 34.1239 70.2118 34.5199 70.2118 35.0239Z" fill="#FDFCFC"/>
<path d="M22.6193 31.2799C23.2673 30.6679 24.0593 30.2359 24.7793 29.6599C24.9953 29.4799 25.2473 29.5879 25.4633 29.5519C25.7513 29.5159 25.9313 29.3359 26.0393 29.0479C26.1113 28.7959 26.0393 28.5799 25.8593 28.3999C25.6433 28.1839 25.3193 28.1119 25.1393 28.2919C24.5993 28.8679 23.8793 28.6879 23.2673 28.7599C21.9353 28.9399 20.5673 29.0839 19.1993 29.2279C18.9833 29.2639 18.7313 29.2999 18.5153 29.1199C17.9753 28.7239 17.6153 29.0479 17.3273 29.5159C17.0393 29.5159 16.7513 29.5159 16.4633 29.5159C16.1393 28.1839 16.4633 27.7519 18.0113 27.5719C18.2273 27.9319 17.9033 28.3639 18.1553 28.7599C18.4793 28.6159 18.4793 28.3639 18.4793 28.1119C18.4433 27.5359 18.6953 27.3199 19.2713 27.2839C19.5953 27.2479 19.9193 27.1399 20.3153 27.2119C20.4233 27.7159 20.0993 28.2199 20.3873 28.8319C20.9633 28.3279 20.6753 27.6799 20.8913 27.1039C21.3953 26.8879 22.0073 26.8519 22.6193 26.8879C22.7993 27.4279 22.5473 27.9679 22.7993 28.5799C23.3753 28.0399 22.9793 27.3559 23.3753 26.7799C23.8793 26.5999 24.4913 26.5999 25.1033 26.5999C25.3913 27.0679 25.0313 27.6439 25.4633 28.0759C25.8593 27.5719 25.5353 27.0319 25.7513 26.5279C26.2913 26.4199 26.9033 26.4199 27.4793 26.4559C27.6233 26.8159 27.5153 27.1399 27.5873 27.4639C27.6953 28.1479 27.4073 28.3999 26.7593 28.3999C26.5793 28.3999 26.2553 28.3279 26.2913 28.6519C26.3273 28.9399 26.5793 28.8319 26.7593 28.8319C27.0473 28.8679 27.3353 28.7599 27.6593 28.9399C27.6593 29.4439 27.6593 29.9839 27.6593 30.5239C27.6593 30.8119 27.4433 30.8839 27.2273 30.9199C26.7233 30.9559 26.2553 30.9919 25.7513 30.9919C25.5353 30.7399 25.6433 30.3799 25.6073 30.0199C25.6073 29.8399 25.5353 29.6959 25.3193 29.6959C25.1393 29.6959 25.1033 29.8399 25.1033 29.9839C25.1033 30.3799 25.1033 30.7399 25.1033 31.1719C24.2033 31.2799 23.4473 31.4959 22.6193 31.2799Z" fill="#FDFCFC"/>
<path d="M20.1712 32.2879C19.3792 32.9359 18.7672 33.7999 17.6152 33.8719C17.1832 33.9079 16.9672 34.2679 17.0392 34.6999C17.1112 35.1319 17.5072 35.4199 17.8672 35.2399C18.8032 34.8079 19.5232 35.4199 20.3152 35.6719C19.5232 35.6719 19.9552 36.4279 19.6672 36.7519C19.4872 36.8599 19.2352 36.7879 19.0192 36.7879C18.0472 36.7879 18.0472 36.7879 17.9752 35.7799C17.9752 35.6359 17.9032 35.5639 17.7232 35.5279C17.3632 35.8519 17.7232 36.3559 17.4712 36.6799C15.6712 36.8599 15.8152 36.8239 15.9592 34.8799C16.1752 34.6639 16.5352 34.9159 16.7512 34.5919C16.6792 34.1239 16.2112 34.4839 15.9952 34.2679C15.8152 33.9799 15.9232 33.6919 15.9592 33.3679C15.9952 33.0439 15.9952 32.7559 16.0312 32.4319C16.5352 32.2519 17.0392 32.3239 17.5072 32.2879C17.7232 32.6839 17.4352 33.1519 17.7232 33.4399C18.1192 33.2959 18.0112 33.0079 18.0112 32.8279C17.9752 32.2879 18.2272 32.1079 18.7312 32.1439C19.2352 32.2879 19.7032 32.2879 20.1712 32.2879Z" fill="#FDFCFC"/>
<path d="M22.801 30.4519C22.189 30.9199 21.649 31.4599 20.893 31.7119C20.533 31.5679 20.389 31.3519 20.461 30.9559C20.497 30.5959 20.497 30.2359 20.533 29.8759C20.173 29.7319 20.101 29.8759 20.065 30.1999C19.993 30.6679 20.281 31.3159 19.849 31.6039C19.489 31.8559 18.877 31.7479 18.373 31.8199C18.337 31.8199 18.301 31.7839 18.229 31.7839C18.085 31.6039 18.157 31.3879 18.157 31.1719C18.157 30.9919 18.193 30.7759 18.049 30.5599C17.473 30.8119 17.653 31.3879 17.509 31.8199C17.041 32.0719 16.573 32.0359 16.033 31.9999C15.925 31.3519 16.177 30.8119 16.141 30.1999C16.573 30.1639 17.005 30.1639 17.221 29.7679C17.761 30.5239 17.797 30.5239 18.589 29.8399C18.661 29.7679 18.769 29.7679 18.841 29.7679C20.713 29.5879 22.549 29.3719 24.601 29.1559C23.989 29.6599 23.521 30.0559 22.981 30.3439C22.909 30.1279 23.053 29.8759 22.765 29.5159C22.441 29.8399 22.189 30.0559 22.693 30.4879C22.765 30.4159 22.801 30.4519 22.801 30.4519Z" fill="#FDFCFC"/>
<path d="M25.7882 36.8239C25.5362 36.2839 25.2122 35.9599 24.5642 36.2839C24.4922 36.3199 24.3842 36.3199 24.2762 36.3199C22.7642 35.8519 21.1802 35.5639 19.7402 34.8799C20.5682 34.7719 21.3962 34.6279 22.1882 34.7359C22.4762 34.9519 22.1162 35.4559 22.5482 35.5999C22.9802 35.3839 22.7282 34.9159 22.9802 34.6279C23.5562 34.5559 24.1682 34.5199 24.7802 34.4479C24.9962 34.7359 24.8522 35.0239 24.8882 35.3119C24.9242 35.5639 24.7082 35.8879 25.1762 36.0319C25.4282 35.7439 25.3202 35.3839 25.3202 35.0959C25.3202 34.5919 25.5362 34.3399 26.0402 34.3399C26.4722 34.3399 26.9042 34.3039 27.4082 34.2679C27.3722 34.9159 27.3362 35.5999 27.2642 36.2839C26.8682 36.3559 26.5082 36.4279 26.1122 36.4639C25.9322 36.4639 25.7882 36.5359 25.7882 36.8239Z" fill="#FDFCFC"/>
<path d="M22.9802 34.0519C22.9442 33.9799 22.9082 33.9439 22.9082 33.9439C22.7642 31.9639 22.7642 31.9639 24.9602 31.7839C25.0682 32.3599 24.9962 32.9359 24.9602 33.5479C24.9242 33.8719 24.7802 34.0159 24.4562 34.0159C23.9882 33.9799 23.4842 34.0519 22.9802 34.0519Z" fill="#FDFCFC"/>
<path d="M25.536 31.7479C26.22 31.7119 26.832 31.4959 27.48 31.6039C27.552 32.2879 27.516 32.9719 27.444 33.6559C26.796 33.7279 26.184 33.9079 25.5 33.8359C25.536 33.1159 25.536 32.4679 25.536 31.7479Z" fill="#FDFCFC"/>
<path d="M20.1719 33.1159C20.7479 32.5399 21.2519 31.9279 22.0439 31.7119C22.7639 32.4319 22.4039 33.2599 22.3319 34.1239C21.6839 34.1959 21.0719 34.2319 20.4959 34.3039C20.1359 33.9079 20.5679 33.4399 20.1719 33.1159Z" fill="#FDFCFC"/>
<path d="M29.8191 33.3679C29.1711 33.4399 28.6311 33.6199 28.0551 33.5479C27.8751 32.8639 28.0911 32.2159 28.1271 31.5319C28.7031 31.3879 29.2431 31.4239 29.7831 31.4239C29.9271 32.0719 29.7831 32.7199 29.8191 33.3679Z" fill="#FDFCFC"/>
<path d="M27.8769 36.1398C27.7329 35.5278 27.9849 34.9878 27.9489 34.4478C27.9489 34.1238 28.2009 34.1238 28.3809 34.0878C28.8129 34.0158 29.2809 33.9798 29.7849 33.9078C29.7489 34.4838 29.7129 35.0238 29.6769 35.5638C29.6769 35.7798 29.5329 35.9238 29.3169 35.9598C28.8489 35.9958 28.3809 36.1758 27.8769 36.1398Z" fill="#FDFCFC"/>
<path d="M28.1278 28.8679C28.7038 28.8679 29.2078 28.8679 29.7838 28.8679C29.8198 29.4799 29.8558 30.1279 29.8918 30.7759C29.2798 30.8479 28.7398 30.9199 28.0918 30.9559C28.1278 30.2719 28.1278 29.6239 28.1278 28.8679Z" fill="#FDFCFC"/>
<path d="M28.0191 26.5639C29.7831 26.3839 29.9631 26.5639 29.7831 28.2919C29.5311 28.4719 29.2431 28.3639 28.9551 28.3999C28.7031 28.3999 28.4511 28.4719 28.1271 28.3279C28.0551 27.7519 27.8751 27.1399 28.0191 26.5639Z" fill="#FDFCFC"/>
<path d="M15.5648 34.3759C15.0968 34.4479 14.7368 34.4839 14.3768 34.3759C14.1608 32.4679 14.2688 32.4679 15.5648 32.6479C15.5648 33.1879 15.5648 33.7639 15.5648 34.3759Z" fill="#FDFCFC"/>
<path d="M14.3408 34.9159C14.4848 34.9159 14.6648 34.8799 14.8088 34.8799C15.0248 34.8799 15.2408 34.9159 15.4568 34.9159C15.5648 35.4919 15.5288 36.0679 15.5288 36.6079C14.1248 36.8959 14.1608 36.4999 14.3408 34.9159Z" fill="#FDFCFC"/>
<path d="M15.8155 30.2358C15.7795 30.5238 15.7435 30.8118 15.7435 31.0638C15.6715 32.1798 15.6715 32.1798 14.5195 32.0718C14.1595 30.7398 14.4835 30.2718 15.8155 30.2358Z" fill="#FDFCFC"/>
<path d="M20.317 35.7079C21.649 35.9959 22.945 36.3919 24.205 36.8599C22.945 36.5359 21.685 36.7519 20.425 36.8959C20.245 36.4639 20.317 36.1039 20.317 35.7079Z" fill="#FDFCFC"/>
<path d="M14.7718 29.8399C14.6278 28.4719 14.7718 28.2559 16.0318 28.0399C16.2838 29.2999 15.9238 29.8399 14.7718 29.8399Z" fill="#FDFCFC"/>
<path d="M18.8758 34.5919C18.4438 34.6279 18.2998 34.4479 18.6238 34.1599C18.9838 33.8359 19.3798 33.4759 19.8838 33.2959C19.8838 33.6199 19.8838 33.9079 19.8838 34.1239C19.5958 34.4839 19.0198 34.0519 18.8758 34.5919Z" fill="#FDFCFC"/>
<path d="M19.8848 33.2959C19.9208 33.1519 20.0288 33.0799 20.1728 33.1519C20.1368 33.2599 20.0288 33.3319 19.8848 33.2959Z" fill="#FDFCFC"/>
<path d="M19.201 34.7358C19.057 34.7358 18.913 34.8078 18.877 34.5918C19.021 34.5558 19.129 34.5918 19.201 34.7358Z" fill="#FDFCFC"/>
<path d="M20.8929 31.7119C20.9289 31.8919 20.7849 31.8199 20.7129 31.8559C20.7849 31.7839 20.8569 31.7479 20.8929 31.7119Z" fill="#FDFCFC"/>
<path d="M23.0517 30.2719C22.9797 30.3439 22.8717 30.3799 22.7997 30.4519C22.7997 30.4159 22.7637 30.4159 22.7637 30.3799C22.7997 30.2719 22.9077 30.2359 23.0517 30.2719Z" fill="#FDFCFC"/>
<path d="M23.0517 30.2718C22.9077 30.2358 22.7997 30.2718 22.7637 30.4158C22.2957 30.0198 22.5477 29.7678 22.8357 29.4438C23.1237 29.7678 22.9797 30.0198 23.0517 30.2718Z" fill="#9FA0A3"/>
</g>
<defs>
<clipPath id="clip0_6744_65516">
<rect width="72" height="19.8" fill="white" transform="translate(12 22.0999)"/>
</clipPath>
</defs>
</svg>
