<svg width="96" height="64" viewBox="0 0 96 64" fill="none" xmlns="http://www.w3.org/2000/svg">
<rect width="96" height="64" fill="white"/>
<g clip-path="url(#clip0_6744_65501)">
<path d="M30.8602 31.7723C30.8602 35.5134 29.7952 38.3897 27.6652 40.4013C25.5353 42.413 22.4587 43.4051 18.4354 43.3869H12V20.6218H19.1363C22.8501 20.6218 25.7264 21.6049 27.7654 23.5619C29.8043 25.5189 30.8329 28.2587 30.8602 31.7723ZM25.8539 31.8997C25.8539 27.039 23.6966 24.5996 19.382 24.5996H16.8152V39.3728H18.8814C23.5327 39.3728 25.863 36.8787 25.8539 31.8997Z" fill="#2D2D2D"/>
<path d="M35.5762 43.3505V20.6218H40.4004V43.3505H35.5762Z" fill="#2D2D2D"/>
<path d="M50.9395 34.6395V43.3505H46.1152V20.6218H52.7509C55.8457 20.6218 58.1304 21.1862 59.6141 22.3058C61.0887 23.4254 61.8351 25.1366 61.8351 27.4304C61.8533 28.7048 61.471 29.9609 60.7337 30.9986C59.9418 32.0909 58.8586 32.9374 57.6116 33.4471C61.0341 38.5536 63.2551 41.8577 64.3018 43.3505H58.9587L53.5064 34.6395H50.9395ZM50.9395 30.7255H52.496C53.6702 30.8074 54.8444 30.5434 55.873 29.9609C56.6194 29.4056 57.0381 28.4954 56.9653 27.567C57.0472 26.6567 56.6194 25.7647 55.8548 25.2641C54.7898 24.7452 53.5974 24.5177 52.4141 24.5996H50.9577V30.7255H50.9395Z" fill="#2D2D2D"/>
<path d="M67.1426 20.6218H74.2151C77.4374 20.6218 79.7767 21.0769 81.2331 21.9963C82.6895 22.9156 83.4177 24.372 83.4177 26.3745C83.4632 27.5579 83.1264 28.7139 82.4619 29.6878C81.8612 30.5343 80.9418 31.0987 79.9224 31.2625V31.4173C81.1512 31.6084 82.2617 32.2547 83.0445 33.2195C83.7272 34.2572 84.0639 35.4952 84.0002 36.7331C84.0821 38.6173 83.2447 40.4287 81.7519 41.5847C80.25 42.7498 78.2202 43.3323 75.6442 43.3323H67.1426V20.6218ZM71.9578 29.6241H74.7613C75.7443 29.6969 76.7365 29.4876 77.6012 29.0233C78.2111 28.55 78.5479 27.8036 78.4751 27.0299C78.5388 26.2744 78.1656 25.5462 77.5193 25.1548C76.5727 24.7088 75.535 24.5177 74.4973 24.5814H71.9669V29.6241H71.9578ZM71.9578 33.4562V39.3819H75.0981C76.1358 39.4638 77.1734 39.1998 78.0382 38.6264C78.7026 38.0438 79.0576 37.1791 78.9848 36.2871C78.9848 34.4029 77.6376 33.4562 74.9433 33.4562H71.9578Z" fill="#2D2D2D"/>
</g>
<defs>
<clipPath id="clip0_6744_65501">
<rect width="72" height="22.756" fill="white" transform="translate(12 20.6218)"/>
</clipPath>
</defs>
</svg>
