<svg width="96" height="64" viewBox="0 0 96 64" fill="none" xmlns="http://www.w3.org/2000/svg">
<rect width="96" height="64" fill="white"/>
<g clip-path="url(#clip0_6744_65475)">
<g clip-path="url(#clip1_6744_65475)">
<path d="M51.5513 8.08313C52.023 8.27735 52.5224 8.27735 53.0218 8.36059C57.8495 9.13747 62.2611 10.9132 66.2565 13.7432C69.6137 16.1016 72.4438 19.0149 74.6912 22.4831C75.0519 23.038 75.3848 23.593 75.7455 24.1756C72.6935 29.3641 68.6149 33.5259 63.2877 36.4392C59.5975 38.4646 55.6576 39.7132 51.468 40.1849C48.9432 40.4623 46.4183 40.4623 43.8935 40.1294C35.9582 39.075 29.3547 35.4958 23.9721 29.6138C22.7235 28.2542 21.7802 26.7005 20.6704 25.23C20.0322 24.3976 20.1709 23.8982 20.6704 23.0935C23.9443 17.9051 28.2727 13.9375 33.7386 11.2184C36.9848 9.60914 40.4253 8.58255 44.0045 8.16637C44.0322 8.16637 44.0877 8.11088 44.1154 8.08313C46.6125 8.08313 49.0819 8.08313 51.5513 8.08313ZM43.0334 22.6773C43.0056 22.8716 42.8669 23.0935 42.9779 23.3155C43.4495 23.3155 43.9212 23.3155 44.3651 23.3155C44.6981 23.26 45.1143 23.5652 45.3085 23.0658C45.5582 22.4554 46.0021 22.0669 46.5848 21.7895C46.779 21.734 47.0287 21.7617 47.0287 21.4843C47.0565 20.8184 47.0287 20.1525 47.0287 19.4034C46.5571 19.5421 46.1686 19.6253 45.7802 19.7363C45.586 19.4589 45.4195 19.1537 45.3362 18.793C45.7802 18.6265 46.2241 18.5155 46.6958 18.46C46.8623 18.4323 47.0287 18.4045 47.0287 18.1826C47.0287 17.3779 47.0287 16.5456 47.0287 15.7409C46.7513 15.7409 46.5293 15.7132 46.3351 15.7409C45.586 15.8519 44.8646 16.1016 44.1154 16.3236C43.505 15.6022 43.5605 15.408 44.4206 15.1305C45.2808 14.8808 46.1409 14.7421 47.001 14.6034C47.001 13.7987 47.001 13.0496 47.001 12.3005C41.0912 12.4669 36.0969 17.2947 35.8195 23.2878C36.5409 23.2878 37.2345 23.2878 37.9559 23.2878C38.0114 22.3721 38.2056 21.512 38.5386 20.6519C38.8715 20.8184 39.149 20.9571 39.4542 21.0958C39.2877 21.8172 39.0102 22.5109 39.038 23.2878C39.9813 23.2878 40.8692 23.2878 41.8125 23.2878C41.8958 22.9548 41.9513 22.6219 42.0345 22.2889C42.3952 22.3167 42.7004 22.5664 43.0334 22.6773ZM56.9062 12.2727C60.7073 15.6022 62.6495 19.6808 62.3998 24.675C62.1779 29.6415 59.8472 33.4704 55.8796 36.3837C56.0738 36.4115 56.2403 36.3837 56.4345 36.3282C59.1536 35.5236 61.6784 34.3305 64.0368 32.749C66.1177 31.3617 68.0322 29.7525 69.6414 27.8103C70.5293 26.7282 71.4449 25.6739 72.2218 24.5086C72.416 24.2311 72.3883 24.0924 72.2218 23.8427C71.1952 22.3721 70.0854 20.9571 68.8368 19.6531C65.9235 16.5733 62.4831 14.2982 58.5432 12.7721C58.0438 12.5502 57.5721 12.2727 56.9062 12.2727ZM37.5675 12.6612C37.3455 12.7167 37.2623 12.7167 37.179 12.7444C31.4912 15.0195 26.9409 18.7375 23.5559 23.8427C23.3894 24.0924 23.4172 24.2311 23.5836 24.4531C27.0796 29.7247 31.7964 33.4704 37.6784 35.7178C37.8449 35.7733 37.9836 35.8843 38.2334 35.7456C34.6264 32.7768 32.6287 29.0311 32.49 24.3976C32.3513 19.7641 34.0993 15.9074 37.5675 12.6612ZM47.0565 35.5513C47.0565 35.1352 47.0565 34.7745 47.0565 34.4138C47.0565 34.0253 47.0565 33.6369 47.0565 33.3039C41.7848 32.6658 38.7605 29.7802 37.9004 24.5641C37.2623 24.5641 36.5686 24.5641 35.875 24.5641C35.9582 29.8912 40.5362 35.3294 47.0565 35.5513ZM48.2773 12.3282C48.2773 13.0496 48.2773 13.7155 48.2773 14.4091C48.2773 14.7143 48.4715 14.6866 48.6935 14.7143C52.1894 15.186 54.6588 17.0727 56.2125 20.208C56.6842 21.1791 56.8784 22.2334 57.0172 23.2878C57.7386 23.2878 58.4322 23.2878 59.1258 23.2878C58.7097 16.9063 53.4935 12.6334 48.2773 12.3282ZM48.2773 35.4958C54.1316 35.3016 59.0426 30.0022 59.0426 24.5918C58.349 24.5918 57.6553 24.5918 56.9894 24.5918C56.8784 25.6461 56.712 26.645 56.268 27.5606C54.7143 30.7791 52.2449 32.7213 48.6657 33.193C48.3883 33.2207 48.2773 33.3039 48.2773 33.5814C48.2773 34.1918 48.2773 34.8299 48.2773 35.4958ZM39.0657 24.5641C39.2045 29.0866 43.7825 32.4716 47.001 32.1109C47.001 31.223 47.001 30.3629 47.001 29.5028C44.0599 29.0866 42.3675 27.3941 41.7848 24.5641C40.8414 24.5641 39.9536 24.5641 39.0657 24.5641ZM53.1605 24.5363C52.994 25.0912 52.9386 25.6461 52.6888 26.1456C51.8565 27.8658 50.5247 28.9479 48.6657 29.3641C48.4715 29.4195 48.2495 29.3918 48.2773 29.697C48.2773 30.5016 48.2773 31.3063 48.2773 32.1109C51.8842 32.0554 55.8518 28.5317 55.8796 24.5641C55.7686 24.5641 55.6576 24.5363 55.5744 24.5363C54.7698 24.5363 53.9651 24.5363 53.1605 24.5363ZM48.305 18.4323C50.5524 18.8207 52.6334 20.3745 53.1605 23.3155C54.0761 23.3155 54.9917 23.3155 55.9073 23.3155C55.8241 19.2646 51.8287 15.8242 48.305 15.7687C48.305 16.6288 48.305 17.5167 48.305 18.4323ZM42.9501 24.5641C42.9224 26.423 45.0033 28.3652 47.0287 28.4207C47.0287 27.6993 47.0287 27.0057 47.0287 26.2565C46.0854 26.0623 45.5027 25.4242 45.1975 24.5641C44.4206 24.5641 43.6993 24.5641 42.9501 24.5641ZM48.2773 28.393C50.275 28.0323 51.8565 26.423 52.023 24.5641C51.3293 24.5641 50.6357 24.5641 49.942 24.5641C49.7478 24.5641 49.6923 24.7028 49.6646 24.8415C49.4704 25.3964 49.0819 25.7571 48.5825 26.0623C48.4438 26.1456 48.2773 26.1733 48.2773 26.3953C48.2773 27.0334 48.2773 27.6993 48.2773 28.393ZM48.2773 19.5143C48.2773 20.208 48.2773 20.8739 48.2773 21.5398C48.2773 21.6785 48.305 21.7895 48.4438 21.845C49.1097 22.1224 49.4981 22.6773 49.7478 23.2878C50.5247 23.2878 51.2738 23.2878 52.0507 23.2878C51.7732 21.3733 50.2195 19.7918 48.2773 19.5143Z" fill="#020202"/>
<path d="M36.625 55.9167C36.625 55.2785 36.625 54.6681 36.625 54.0022C37.0134 54.0022 37.4019 54.0022 37.8458 54.0022C38.04 51.5606 38.262 49.1467 38.4562 46.6774C38.0123 46.6774 37.6238 46.6774 37.1799 46.6774C37.1799 45.956 37.1799 45.3178 37.1799 44.6242C38.6782 44.6242 40.1487 44.6242 41.6747 44.6242C42.4238 46.8161 43.173 49.0357 43.9221 51.2831C44.6712 49.0357 45.4204 46.8438 46.1695 44.5964C47.64 44.5964 49.1383 44.5964 50.6921 44.5964C50.6921 45.2623 50.6921 45.9282 50.6921 46.6219C50.3036 46.6219 49.8874 46.6219 49.4158 46.6219C49.61 49.0912 49.8319 51.5051 50.0262 53.8912C50.4423 54.03 50.8585 53.8635 51.3025 54.03C51.3025 54.6404 51.3025 55.2785 51.3025 55.8889C49.5822 55.8889 47.8342 55.8889 46.114 55.8889C46.114 55.2508 46.114 54.6126 46.114 54.0022C46.5025 53.8912 46.8631 54.03 47.2238 53.8912C47.1684 52.171 46.9186 50.4508 46.9741 48.6751C46.5025 50.3675 45.8366 51.8658 45.3371 53.4473C45.1984 53.8635 44.9764 53.9745 44.588 53.9467C44.1163 53.919 43.6169 53.919 43.1452 53.9467C42.84 53.9745 42.6736 53.8635 42.5903 53.5583C42.4238 53.0589 42.2574 52.5594 42.0631 52.06C41.7025 51.0334 41.3418 50.0068 40.9256 48.897C40.9533 50.645 40.7036 52.2542 40.6481 53.919C41.0088 54.03 41.3973 53.8912 41.8134 54.0577C41.8134 54.6681 41.8134 55.2785 41.8134 55.9167C40.0932 55.9167 38.373 55.9167 36.625 55.9167Z" fill="#020202"/>
<path d="M52.1063 55.9167C51.9953 55.3063 52.1063 54.6681 52.0508 54.0855C52.134 54.03 52.1618 54.0022 52.1895 54.0022C52.8554 54.1132 53.1051 53.7803 53.2993 53.1698C54.2149 50.312 55.186 47.482 56.1571 44.5964C57.156 44.5964 58.1826 44.5964 59.1814 44.5964C59.4589 44.5964 59.4589 44.7629 59.5421 44.9294C60.3467 47.2878 61.1236 49.6461 61.9282 52.0045C62.067 52.4485 62.2612 52.8924 62.3722 53.3641C62.4832 53.8357 62.7051 54.0577 63.2045 53.9745C63.2878 53.9467 63.371 53.9745 63.5375 53.9745C63.5375 54.6404 63.5375 55.2785 63.5375 55.9167C61.956 55.9167 60.3745 55.9167 58.793 55.9167C58.793 55.2785 58.793 54.6404 58.793 54.03C59.1259 53.9467 59.4311 54.0577 59.7363 53.919C59.6253 53.5028 59.4866 53.0866 59.3756 52.6704C59.3201 52.504 59.2092 52.4485 59.0427 52.4485C58.2103 52.4485 57.3779 52.4485 56.5733 52.4485C56.4068 52.4485 56.2959 52.5317 56.2681 52.6982C56.1571 53.1144 56.0462 53.5305 55.9352 53.9745C56.2959 54.0022 56.5733 54.0022 56.9063 54.03C56.9063 54.6959 56.9063 55.3063 56.9063 55.9444C55.2693 55.9167 53.6878 55.9167 52.1063 55.9167ZM58.5988 50.2566C58.349 49.1467 57.9606 48.1201 57.7941 46.9826C57.4889 48.1201 57.1837 49.1745 56.9063 50.2566C57.4889 50.2566 58.0161 50.2566 58.5988 50.2566Z" fill="#020202"/>
<path d="M64.4805 55.9167C64.4805 55.3063 64.4805 54.6681 64.4805 54.0022C64.8967 54.0022 65.2851 54.0022 65.729 54.0022C65.729 51.5606 65.729 49.1467 65.729 46.7051C65.3406 46.7051 64.9521 46.7051 64.5082 46.7051C64.5082 45.9837 64.5082 45.3178 64.5082 44.5964C65.0354 44.5964 65.5626 44.5964 66.0897 44.5964C67.6435 44.5964 69.225 44.6242 70.7787 44.6242C73.2481 44.6242 74.5244 46.7051 74.2747 48.9248C74.0527 50.8115 72.9706 52.0878 71.4446 52.2542C70.6678 52.3375 69.8631 52.3097 69.0863 52.3375C68.9475 52.3375 68.8088 52.3652 68.6146 52.3652C68.6146 52.8924 68.6146 53.3918 68.6146 53.919C69.0308 54.0577 69.4192 53.919 69.8909 54.03C69.8909 54.6681 69.8909 55.2785 69.8909 55.9167C68.0874 55.9167 66.2839 55.9167 64.4805 55.9167ZM68.6146 50.1178C69.5302 50.0346 70.5568 50.4508 71.2227 49.4797C71.6111 48.897 71.5834 47.8149 71.1394 47.3433C70.418 46.5664 69.4747 46.9548 68.6146 46.8716C68.6146 47.9814 68.6146 49.008 68.6146 50.1178Z" fill="#020202"/>
<path d="M23.3887 55.9166C23.4164 55.5837 23.4164 55.223 23.4442 54.8068C23.9158 54.8068 24.3598 54.8068 24.8314 54.8068C24.8314 51.838 24.8314 48.9525 24.8314 46.0114C24.4153 45.8727 23.9436 46.0114 23.4719 45.9282C23.3609 45.5675 23.4442 45.179 23.4164 44.7351C24.4153 44.7351 25.3586 44.7351 26.302 44.7351C26.4684 44.7351 26.5239 44.8738 26.6072 44.9848C28.3274 47.5097 30.0754 50.0345 31.8234 52.5594C31.9898 52.8091 32.1008 53.0588 32.3228 53.3918C32.3228 50.8669 32.3228 48.453 32.3228 45.9837C31.9066 45.9837 31.4627 45.9837 31.0187 45.9837C30.88 45.5675 30.9355 45.1513 30.9632 44.7351C32.4338 44.7351 33.8765 44.7351 35.3471 44.7351C35.4303 45.1235 35.3748 45.512 35.3748 45.9282C34.9309 45.9282 34.4869 45.9282 33.9875 45.9282C33.9875 49.2854 33.9875 52.5871 33.9875 55.8889C33.4049 55.8889 32.8222 55.8889 32.2118 55.8889C32.2395 55.7779 32.1563 55.7224 32.1286 55.6392C30.88 53.8357 29.6314 52.0045 28.3829 50.201C27.717 49.2299 27.0234 48.2866 26.4129 47.2322C26.4129 49.7571 26.4129 52.2542 26.4129 54.779C26.9124 54.779 27.384 54.779 27.9112 54.779C27.9112 55.1952 27.9112 55.5282 27.9112 55.8889C26.3852 55.9166 24.8869 55.9166 23.3887 55.9166Z" fill="#020202"/>
<path d="M56.9059 12.2727C57.5718 12.2727 58.0435 12.5502 58.5151 12.7444C62.455 14.2704 65.9232 16.5455 68.8088 19.6253C70.0296 20.9294 71.1394 22.3444 72.1938 23.8149C72.3602 24.0646 72.388 24.2033 72.1938 24.4808C71.4169 25.6461 70.5013 26.7005 69.6134 27.7825C68.0042 29.7247 66.0897 31.334 64.0088 32.7213C61.6504 34.3028 59.1256 35.4958 56.4065 36.3004C56.2123 36.3559 56.0458 36.3837 55.8516 36.3559C59.7914 33.4426 62.1221 29.6415 62.3718 24.6473C62.6215 19.6531 60.7071 15.6022 56.9059 12.2727Z" fill="#F3F3F3"/>
<path d="M37.5668 12.6611C34.0986 15.9074 32.3506 19.764 32.4893 24.3975C32.628 29.0311 34.6257 32.7767 38.2327 35.7455C38.0107 35.8843 37.8442 35.7733 37.6777 35.7178C31.7679 33.4704 27.0789 29.7247 23.583 24.4808C23.4165 24.2588 23.3887 24.0923 23.5552 23.8704C26.9679 18.7652 31.4905 15.075 37.1783 12.7721C37.2616 12.7166 37.3448 12.7166 37.5668 12.6611Z" fill="#F3F3F3"/>
<path d="M46.5852 21.7894C46.0303 22.0669 45.5586 22.4553 45.3089 23.0657C45.1147 23.5374 44.6985 23.26 44.3656 23.3154C43.9216 23.0935 43.4777 22.8993 43.006 22.6773C42.6731 22.5663 42.3956 22.3166 42.0349 22.2889C41.2303 21.7617 40.3425 21.4565 39.4823 21.0958C39.1771 20.9571 38.8997 20.8183 38.5667 20.6519C38.2338 21.512 38.0396 22.3721 37.9841 23.2877C37.2627 23.2877 36.5413 23.2877 35.8477 23.2877C36.1251 17.2946 41.0916 12.4669 47.0292 12.3004C47.0292 13.0495 47.0292 13.7709 47.0292 14.6033C46.1968 14.742 45.3089 14.8808 44.4488 15.1305C43.5887 15.3802 43.5332 15.6021 44.1436 16.3235C44.5043 17.1837 44.865 18.016 45.3644 18.8206C45.4477 19.1813 45.6141 19.4865 45.8083 19.764C45.8083 19.986 45.9471 20.1247 46.0303 20.3189C46.1968 20.7906 46.5297 21.2345 46.5852 21.7894Z" fill="#F3F3F3"/>
<path d="M47.0565 35.5514C40.564 35.3017 35.9582 29.8913 35.875 24.5641C36.5686 24.5641 37.2623 24.5641 37.9004 24.5641C38.7605 29.7525 41.7848 32.6381 47.0565 33.304C47.0565 33.6369 47.0565 34.0254 47.0565 34.4138C47.0565 34.8022 47.0565 35.1629 47.0565 35.5514Z" fill="#F3F3F3"/>
<path d="M48.2777 12.3282C53.4939 12.6334 58.7101 16.9063 59.0986 23.2878C58.4049 23.2878 57.739 23.2878 56.9899 23.2878C56.8512 22.2612 56.6847 21.1791 56.1853 20.208C54.6315 17.0728 52.1621 15.1861 48.6662 14.7144C48.472 14.6866 48.25 14.7144 48.25 14.4092C48.2777 13.7155 48.2777 13.0496 48.2777 12.3282Z" fill="#F3F3F3"/>
<path d="M48.2773 35.4958C48.2773 34.8299 48.2773 34.2195 48.2773 33.5814C48.2773 33.3039 48.3883 33.2207 48.6658 33.193C52.245 32.749 54.7143 30.7791 56.2681 27.5606C56.712 26.645 56.8785 25.6461 56.9895 24.5918C57.6831 24.5918 58.3768 24.5918 59.0427 24.5918C59.0427 29.9745 54.1317 35.3016 48.2773 35.4958Z" fill="#F3F3F3"/>
<path d="M39.0664 24.5641C39.982 24.5641 40.8421 24.5641 41.7855 24.5641C42.3681 27.3941 44.0606 29.0866 47.0294 29.5028C47.0294 30.3629 47.0294 31.223 47.0294 32.1109C43.7832 32.4716 39.2051 29.0866 39.0664 24.5641Z" fill="#99C3D4"/>
<path d="M53.1606 24.5363C53.9652 24.5363 54.7698 24.5363 55.5745 24.5363C55.6854 24.5363 55.7964 24.564 55.8797 24.564C55.8519 28.5316 51.8843 32.0831 48.2773 32.1386C48.2773 31.3339 48.2773 30.5293 48.2773 29.7247C48.2773 29.4195 48.4716 29.4472 48.6658 29.3917C50.5247 28.9478 51.8565 27.8657 52.6889 26.1732C52.9386 25.6738 52.9941 25.1189 53.1606 24.5363Z" fill="#99C3D4"/>
<path d="M48.3047 18.4323C48.3047 17.5167 48.3047 16.6565 48.3047 15.7687C51.8006 15.7964 55.796 19.2646 55.907 23.3155C54.9914 23.3155 54.0758 23.3155 53.1602 23.3155C52.6053 20.3467 50.5521 18.8207 48.3047 18.4323Z" fill="#99C3D4"/>
<path d="M42.9495 24.5641C43.6986 24.5641 44.42 24.5641 45.1691 24.5641C45.5021 25.4242 46.057 26.0624 47.0004 26.2566C47.0004 27.0057 47.0004 27.6993 47.0004 28.4207C45.0027 28.3652 42.9217 26.423 42.9495 24.5641Z" fill="#99C3D4"/>
<path d="M48.2773 28.3929C48.2773 27.6993 48.2773 27.0334 48.2773 26.3675C48.2773 26.1455 48.4438 26.1178 48.5825 26.0345C49.0542 25.7293 49.4704 25.3686 49.6646 24.8137C49.7201 24.675 49.7479 24.5363 49.9421 24.5363C50.6357 24.5363 51.3294 24.5363 52.023 24.5363C51.8565 26.423 50.275 28.0322 48.2773 28.3929Z" fill="#99C3D4"/>
<path d="M48.2777 19.5144C50.2199 19.7919 51.7737 21.3734 52.0234 23.2878C51.2743 23.2878 50.5251 23.2878 49.7205 23.2878C49.4708 22.6497 49.0824 22.1225 48.4165 21.845C48.2777 21.7895 48.25 21.6786 48.25 21.5398C48.2777 20.8739 48.2777 20.2358 48.2777 19.5144Z" fill="#99C3D4"/>
<path d="M45.336 18.7929C44.8366 18.016 44.4759 17.1559 44.1152 16.2958C44.8366 16.0738 45.558 15.8241 46.3349 15.7131C46.5569 15.6854 46.7511 15.7131 47.0285 15.7131C47.0285 16.5455 47.0285 17.3501 47.0285 18.1548C47.0285 18.3767 46.8621 18.4045 46.6956 18.4322C46.2517 18.5154 45.78 18.6264 45.336 18.7929Z" fill="#99C3D4"/>
<path d="M39.481 21.0958C40.3412 21.4565 41.2568 21.7617 42.0336 22.2889C41.9504 22.6218 41.8949 22.9548 41.8117 23.2877C40.8683 23.2877 39.9805 23.2877 39.0371 23.2877C39.0371 22.5109 39.2868 21.8172 39.481 21.0958Z" fill="#99C3D4"/>
<path d="M46.5839 21.7894C46.5284 21.2345 46.1955 20.7906 46.0013 20.2912C45.918 20.097 45.7793 19.9582 45.7793 19.7363C46.1677 19.6253 46.5562 19.542 47.0279 19.4033C47.0279 20.1525 47.0279 20.8183 47.0279 21.4842C47.0279 21.7617 46.7781 21.734 46.5839 21.7894Z" fill="#99C3D4"/>
<path d="M43.0337 22.6774C43.4777 22.8993 43.9216 23.0936 44.3933 23.3155C43.9216 23.3155 43.4499 23.3155 43.006 23.3155C42.8673 23.0936 43.006 22.8716 43.0337 22.6774Z" fill="#99C3D4"/>
</g>
</g>
<defs>
<clipPath id="clip0_6744_65475">
<rect width="72" height="48" fill="white" transform="translate(12 7.99988)"/>
</clipPath>
<clipPath id="clip1_6744_65475">
<rect width="55.4913" height="48" fill="white" transform="translate(20.2539 7.99988)"/>
</clipPath>
</defs>
</svg>
