<svg width="96" height="64" viewBox="0 0 96 64" fill="none" xmlns="http://www.w3.org/2000/svg">
<rect width="96" height="64" fill="white"/>
<g clip-path="url(#clip0_6744_65555)">
<path d="M17.2416 38.1199L14.2608 28.3999H14.1852C14.2932 30.3751 14.3472 31.6951 14.3472 32.3599V38.1199H12V25.7251H15.5748L18.5052 35.1931H18.5556L21.6624 25.7251H25.2372V38.1199H22.8V32.2447C22.8 31.9687 22.8 31.6495 22.8 31.2871C22.8 30.9247 22.8384 29.9647 22.9152 28.4071H22.8396L19.6464 38.1199H17.2416Z" fill="#2D2D2D"/>
<path d="M34.1608 38.1199L33.6604 36.8311H33.5992C33.2463 37.3096 32.7865 37.6992 32.2564 37.9687C31.6857 38.2009 31.0721 38.3089 30.4564 38.2855C30.0625 38.3092 29.6678 38.2525 29.2965 38.1188C28.9251 37.9851 28.5849 37.7773 28.2964 37.5079C28.0225 37.2105 27.8118 36.8606 27.6769 36.4795C27.542 36.0983 27.4858 35.6938 27.5116 35.2903C27.4776 34.8588 27.5563 34.4259 27.74 34.034C27.9236 33.6421 28.2059 33.3047 28.5592 33.0547C29.2624 32.5747 30.322 32.3107 31.738 32.2627L33.3796 32.2123V31.7983C33.3796 30.8383 32.8888 30.3583 31.9072 30.3583C30.9803 30.3995 30.072 30.6324 29.2396 31.0423L28.4044 29.2999C29.5244 28.7218 30.7693 28.4276 32.0296 28.4431C33.2992 28.4431 34.2736 28.7191 34.9528 29.2711C35.632 29.8231 35.9704 30.6631 35.968 31.7911V38.1199H34.1608ZM33.3976 33.7207L32.3968 33.7531C31.8109 33.7327 31.2307 33.8734 30.7192 34.1599C30.5372 34.2852 30.3908 34.4555 30.2943 34.6542C30.1977 34.853 30.1544 35.0734 30.1684 35.2939C30.1684 36.0139 30.586 36.3739 31.4212 36.3739C31.6833 36.3874 31.9456 36.3489 32.1927 36.2606C32.4399 36.1722 32.6671 36.0357 32.8612 35.8591C33.0423 35.6812 33.1837 35.467 33.2761 35.2307C33.3686 34.9943 33.41 34.741 33.3976 34.4875V33.7207Z" fill="#2D2D2D"/>
<path d="M45.2324 35.2939C45.2573 35.718 45.1782 36.1417 45.0018 36.5282C44.8255 36.9147 44.5574 37.2523 44.2209 37.5115C43.5465 38.0203 42.5372 38.2747 41.1932 38.2747C40.6017 38.2781 40.0112 38.2263 39.4293 38.1199C38.9611 38.0323 38.5036 37.8947 38.0649 37.7095V35.5999C38.5867 35.8407 39.1304 36.0312 39.6885 36.1687C40.2064 36.3089 40.7396 36.3851 41.2761 36.3955C42.2145 36.3955 42.6837 36.1243 42.6837 35.5819C42.6875 35.4907 42.673 35.3997 42.6408 35.3143C42.6086 35.229 42.5595 35.151 42.4965 35.0851C42.3036 34.9108 42.0866 34.7653 41.8521 34.6531C41.5472 34.4923 41.1405 34.3051 40.6317 34.0915C40.0649 33.874 39.5259 33.59 39.0261 33.2455C38.7086 33.0161 38.4526 32.7119 38.2809 32.3599C38.114 31.9677 38.0342 31.5439 38.0468 31.1179C38.031 30.7363 38.1126 30.3569 38.2839 30.0156C38.4553 29.6742 38.7106 29.3821 39.0261 29.1667C39.6789 28.7059 40.6028 28.4755 41.798 28.4755C42.9457 28.474 44.0798 28.7234 45.1209 29.2063L44.3432 31.0711C43.8632 30.8671 43.4205 30.7003 43.0149 30.5707C42.6061 30.4414 42.1799 30.3758 41.7513 30.3763C40.9881 30.3763 40.6065 30.5827 40.6065 30.9955C40.6103 31.118 40.6454 31.2376 40.7084 31.3428C40.7714 31.448 40.8602 31.5354 40.9665 31.5967C41.4871 31.8998 42.0342 32.1553 42.6009 32.3599C43.1754 32.5721 43.7219 32.8538 44.228 33.1987C44.5507 33.4319 44.8125 33.7394 44.9913 34.0951C45.1602 34.4716 45.2427 34.8813 45.2324 35.2939Z" fill="#2D2D2D"/>
<path d="M53.8493 35.2939C53.8741 35.718 53.795 36.1418 53.6187 36.5283C53.4423 36.9148 53.1742 37.2523 52.8377 37.5115C52.1633 38.0203 51.1541 38.2747 49.8101 38.2747C49.2202 38.2826 48.6308 38.2356 48.0497 38.1343C47.5815 38.0468 47.124 37.9092 46.6853 37.7239V35.5999C47.206 35.8405 47.7484 36.031 48.3053 36.1687C48.8232 36.3089 49.3564 36.3851 49.8929 36.3955C50.8313 36.3955 51.3005 36.1243 51.3005 35.5819C51.3043 35.4908 51.2898 35.3998 51.2576 35.3144C51.2254 35.229 51.1763 35.151 51.1133 35.0851C50.9204 34.9108 50.7034 34.7653 50.4689 34.6531C50.1641 34.4923 49.7573 34.3051 49.2485 34.0915C48.6801 33.872 48.1399 33.5856 47.6393 33.2383C47.3319 33.0079 47.0848 32.7065 46.9193 32.3599C46.7524 31.9677 46.6726 31.544 46.6853 31.1179C46.6636 30.7356 46.7398 30.3541 46.9068 30.0095C47.0737 29.6649 47.3258 29.3687 47.6393 29.1487C48.2921 28.6879 49.2161 28.4575 50.4112 28.4575C51.5687 28.458 52.7119 28.7137 53.7593 29.2063L52.9816 31.0711C52.5016 30.8671 52.0589 30.7003 51.6533 30.5707C51.2445 30.4415 50.8183 30.3759 50.3897 30.3763C49.6265 30.3763 49.2449 30.5827 49.2449 30.9955C49.2487 31.1181 49.2838 31.2377 49.3468 31.3429C49.4098 31.4481 49.4986 31.5355 49.6049 31.5967C50.1186 31.8987 50.6584 32.1541 51.2177 32.3599C51.7922 32.5721 52.3387 32.8538 52.8449 33.1987C53.1675 33.4319 53.4293 33.7394 53.6081 34.0951C53.777 34.4717 53.8595 34.8813 53.8493 35.2939Z" fill="#2D2D2D"/>
<path d="M59.7099 38.2747C56.7627 38.2747 55.2891 36.6571 55.2891 33.4219C55.2891 31.8139 55.6899 30.5851 56.4915 29.7355C57.2931 28.8859 58.4415 28.4611 59.9367 28.4611C60.9585 28.4483 61.9692 28.6738 62.8887 29.1199L62.1255 31.1179C61.7199 30.9547 61.3419 30.8203 60.9915 30.7147C60.6504 30.6123 60.2963 30.5602 59.9403 30.5599C58.5963 30.5599 57.9243 31.5199 57.9243 33.4399C57.9243 35.2927 58.5963 36.2191 59.9403 36.2191C60.4085 36.2239 60.8746 36.1571 61.3227 36.0211C61.7737 35.8749 62.2016 35.6652 62.5935 35.3983V37.6087C62.2 37.8486 61.7693 38.0214 61.3191 38.1199C60.7903 38.2324 60.2504 38.2844 59.7099 38.2747Z" fill="#2D2D2D"/>
<path d="M70.7988 38.1198L70.2984 36.831H70.23C69.8739 37.3066 69.4116 37.6924 68.88 37.9578C68.3093 38.1901 67.6957 38.2981 67.08 38.2746C66.6861 38.2983 66.2914 38.2416 65.9201 38.1079C65.5487 37.9743 65.2085 37.7664 64.92 37.497C64.6461 37.1996 64.4354 36.8498 64.3005 36.4686C64.1656 36.0875 64.1094 35.6829 64.1352 35.2794C64.1046 34.8497 64.1856 34.4193 64.3705 34.0301C64.5553 33.6409 64.8376 33.3061 65.19 33.0582C65.8932 32.5782 66.9528 32.3142 68.3688 32.2662L70.0104 32.2158V31.7982C70.0104 30.8382 69.5196 30.3582 68.538 30.3582C67.6111 30.3995 66.7028 30.6324 65.8704 31.0422L65.0136 29.2962C66.1336 28.7181 67.3785 28.4239 68.6388 28.4394C69.9084 28.4394 70.8828 28.7154 71.562 29.2674C72.2412 29.8194 72.5796 30.6594 72.5772 31.7874V38.1198H70.7988ZM70.0356 33.7314L69.0348 33.7638C68.4511 33.7406 67.8722 33.8775 67.3608 34.1598C67.1788 34.2851 67.0324 34.4554 66.9359 34.6542C66.8393 34.8529 66.796 35.0733 66.81 35.2938C66.81 36.0138 67.2276 36.3738 68.0628 36.3738C68.325 36.3876 68.5872 36.3491 68.8344 36.2608C69.0816 36.1724 69.3088 36.0359 69.5028 35.859C69.6839 35.6811 69.8253 35.467 69.9177 35.2306C70.0102 34.9942 70.0516 34.7409 70.0392 34.4874L70.0356 33.7314Z" fill="#2D2D2D"/>
<path d="M83.9992 38.1199H81.4144V32.5759C81.453 32.0389 81.3274 31.5028 81.0544 31.0387C80.9193 30.8635 80.7424 30.7249 80.5399 30.6356C80.3374 30.5463 80.1158 30.5091 79.8952 30.5275C79.5942 30.5014 79.2915 30.5541 79.017 30.6803C78.7424 30.8066 78.5054 31.002 78.3292 31.2475C78.0076 31.7275 77.8468 32.5279 77.8468 33.6487V38.1199H75.2656V28.6375H77.2384L77.5984 29.8471H77.7424C78.0287 29.3916 78.4433 29.0309 78.934 28.8103C79.4754 28.5652 80.0642 28.4423 80.6584 28.4503C81.76 28.4503 82.6 28.7479 83.1784 29.3431C83.7568 29.9383 84.0304 30.8011 83.9992 31.9315V38.1199Z" fill="#2D2D2D"/>
</g>
<defs>
<clipPath id="clip0_6744_65555">
<rect width="72" height="36" fill="white" transform="translate(12 13.9999)"/>
</clipPath>
</defs>
</svg>
