<svg width="61" height="60" viewBox="0 0 61 60" fill="none" xmlns="http://www.w3.org/2000/svg">
<path d="M60.3711 30.0301C60.3726 31.6754 60.2388 33.3181 59.9708 34.9414C59.9708 35.1178 59.9166 35.2874 59.8826 35.457C58.6894 41.9029 55.4172 47.7805 50.5667 52.1907C45.7162 56.6009 39.5544 59.301 33.0237 59.8779C32.1486 59.9593 31.2666 60 30.3711 60C29.7605 60 29.1567 60 28.5529 59.9389C22.7074 59.5841 17.0937 57.5262 12.4039 54.0192C7.71409 50.5122 4.15339 45.7094 2.16089 40.2031C0.168389 34.6968 -0.168779 28.7278 1.19096 23.0321C2.55071 17.3365 5.5479 12.1633 9.81292 8.15062C14.0779 4.13789 19.4243 1.46108 25.1926 0.450296C30.9609 -0.560487 36.899 0.138966 42.2745 2.46238C47.6501 4.7858 52.228 8.63158 55.4437 13.5255C58.6594 18.4193 60.3723 24.1473 60.3711 30.003V30.0301Z" fill="#F3C144"/>
<path style="mix-blend-mode:multiply" opacity="0.4" d="M59.9693 34.9409C59.9693 35.1172 59.915 35.2868 59.8811 35.4564C58.6878 41.9023 55.4157 47.7799 50.5652 52.1901C45.7146 56.6004 39.5528 59.3004 33.0222 59.8773C32.147 59.9587 31.2651 59.9994 30.3696 59.9994C29.759 59.9994 29.1552 59.9994 28.5514 59.9384C20.5256 51.9134 12.9069 44.1462 12.9001 43.8613C12.8084 43.8582 12.7173 43.8445 12.6287 43.8206C12.5742 43.8073 12.5217 43.7868 12.4727 43.7595C12.4126 43.7346 12.3557 43.7027 12.3031 43.6646C12.2505 43.6299 12.2006 43.5914 12.1538 43.5492C12.0431 43.443 11.9548 43.3156 11.8942 43.1746C11.8336 43.0336 11.8019 42.8819 11.801 42.7284V25.3149C11.8004 25.1661 11.8295 25.0187 11.8866 24.8812C11.9437 24.7438 12.0276 24.6191 12.1335 24.5145C12.2375 24.4119 12.3593 24.3291 12.493 24.2703C12.6331 24.2131 12.7827 24.1831 12.934 24.1821H19.6369C19.8563 24.1816 20.0711 24.2457 20.2544 24.3663C20.4378 24.4869 20.5816 24.6587 20.6681 24.8604C20.6925 24.9108 20.7129 24.9629 20.7291 25.0165C20.7536 25.1049 20.7672 25.1961 20.7698 25.2878C20.8173 25.4099 22.8051 27.038 22.9001 27.1669V25.3556C22.8964 25.3196 22.8964 25.2832 22.9001 25.2471C22.8933 25.225 22.8933 25.2014 22.9001 25.1793C22.9085 25.151 22.9198 25.1237 22.934 25.0979L22.9815 25.03L23.0425 24.969C23.1092 24.9114 23.1881 24.8696 23.2732 24.8469V23.904C23.2167 23.8872 23.1621 23.8645 23.1104 23.8361C23.0596 23.8046 23.0157 23.763 22.9815 23.714C22.9641 23.6926 22.9482 23.6699 22.934 23.6462C22.9198 23.6203 22.9085 23.593 22.9001 23.5648C22.8933 23.5427 22.8933 23.519 22.9001 23.4969C22.8964 23.4609 22.8964 23.4245 22.9001 23.3884V18.7213C22.8968 18.6875 22.8968 18.6534 22.9001 18.6195C22.8942 18.5996 22.8942 18.5784 22.9001 18.5585C22.9085 18.5302 22.9198 18.5029 22.934 18.4771C22.9482 18.4534 22.9641 18.4307 22.9815 18.4093L23.0425 18.3414C23.1092 18.2838 23.1881 18.2421 23.2732 18.2193V17.2832C23.2154 17.2668 23.1605 17.2417 23.1104 17.2086C23.0382 17.1591 22.9786 17.0935 22.9362 17.0169C22.8938 16.9404 22.8698 16.855 22.8662 16.7676V12.1209C22.8664 12.0499 22.881 11.9796 22.9089 11.9144C22.9369 11.8491 22.9777 11.7901 23.029 11.741C23.0505 11.7149 23.0756 11.6921 23.1036 11.6731C23.1954 11.6164 23.301 11.5859 23.4089 11.585H36.4415C36.5495 11.5852 36.6553 11.6157 36.7468 11.6731L36.8282 11.741C36.9273 11.8427 36.9832 11.9788 36.9842 12.1209C36.9842 12.1209 50.0643 25.0436 59.9693 34.9409Z" fill="url(#paint0_linear_653_6678)"/>
<path d="M30.011 34.9893C29.7873 34.9875 29.5733 34.8974 29.4158 34.7386C29.2582 34.5797 29.1698 34.365 29.1698 34.1413V30.0707C29.1698 29.8476 29.2584 29.6337 29.4162 29.4759C29.574 29.3181 29.7879 29.2295 30.011 29.2295C30.2342 29.2295 30.4481 29.3181 30.6059 29.4759C30.7637 29.6337 30.8523 29.8476 30.8523 30.0707V34.1413C30.8532 34.2523 30.8321 34.3625 30.7902 34.4653C30.7483 34.5682 30.6865 34.6617 30.6083 34.7405C30.5301 34.8194 30.4371 34.882 30.3346 34.9247C30.232 34.9674 30.1221 34.9893 30.011 34.9893Z" fill="#005B83"/>
<path d="M35.8654 16.334H23.8505C23.5507 16.334 23.3077 16.5769 23.3077 16.8767V26.8146C23.3077 27.1143 23.5507 27.3573 23.8505 27.3573H35.8654C36.1652 27.3573 36.4082 27.1143 36.4082 26.8146V16.8767C36.4082 16.5769 36.1652 16.334 35.8654 16.334Z" fill="#00CFDD"/>
<path d="M36.4682 11.5723H23.4424C23.1427 11.5723 22.8997 11.8153 22.8997 12.115V16.769C22.8997 17.0688 23.1427 17.3117 23.4424 17.3117H36.4682C36.7679 17.3117 37.0109 17.0688 37.0109 16.769V12.115C37.0109 11.8153 36.7679 11.5723 36.4682 11.5723Z" fill="#005B83"/>
<path d="M36.4682 18.1992H23.4424C23.1427 18.1992 22.8997 18.4422 22.8997 18.742V23.396C22.8997 23.6957 23.1427 23.9387 23.4424 23.9387H36.4682C36.7679 23.9387 37.0109 23.6957 37.0109 23.396V18.742C37.0109 18.4422 36.7679 18.1992 36.4682 18.1992Z" fill="#005B83"/>
<path d="M36.4682 24.8203H23.4424C23.1427 24.8203 22.8997 25.0633 22.8997 25.3631V30.0171C22.8997 30.3168 23.1427 30.5598 23.4424 30.5598H36.4682C36.7679 30.5598 37.0109 30.3168 37.0109 30.0171V25.3631C37.0109 25.0633 36.7679 24.8203 36.4682 24.8203Z" fill="#005B83"/>
<path d="M25.0027 12.9629H24.3107C24.0934 12.9629 23.9172 13.1391 23.9172 13.3564V14.0484C23.9172 14.2657 24.0934 14.4419 24.3107 14.4419H25.0027C25.22 14.4419 25.3962 14.2657 25.3962 14.0484V13.3564C25.3962 13.1391 25.22 12.9629 25.0027 12.9629Z" fill="#FA7A49"/>
<path d="M27.0248 12.9629H26.3328C26.1155 12.9629 25.9393 13.1391 25.9393 13.3564V14.0484C25.9393 14.2657 26.1155 14.4419 26.3328 14.4419H27.0248C27.2421 14.4419 27.4183 14.2657 27.4183 14.0484V13.3564C27.4183 13.1391 27.2421 12.9629 27.0248 12.9629Z" fill="#00CFDD"/>
<path d="M35.5269 12.9629H28.512C28.2122 12.9629 27.9692 13.2059 27.9692 13.5056V15.3917C27.9692 15.6914 28.2122 15.9344 28.512 15.9344H35.5269C35.8267 15.9344 36.0696 15.6914 36.0696 15.3917V13.5056C36.0696 13.2059 35.8267 12.9629 35.5269 12.9629Z" fill="white"/>
<path d="M25.0027 19.583H24.3107C24.0934 19.583 23.9172 19.7592 23.9172 19.9765V20.6685C23.9172 20.8858 24.0934 21.062 24.3107 21.062H25.0027C25.22 21.062 25.3962 20.8858 25.3962 20.6685V19.9765C25.3962 19.7592 25.22 19.583 25.0027 19.583Z" fill="#FA7A49"/>
<path d="M27.0248 19.583H26.3328C26.1155 19.583 25.9393 19.7592 25.9393 19.9765V20.6685C25.9393 20.8858 26.1155 21.062 26.3328 21.062H27.0248C27.2421 21.062 27.4183 20.8858 27.4183 20.6685V19.9765C27.4183 19.7592 27.2421 19.583 27.0248 19.583Z" fill="#00CFDD"/>
<path d="M35.5269 19.583H28.512C28.2122 19.583 27.9692 19.826 27.9692 20.1258V22.0118C27.9692 22.3115 28.2122 22.5545 28.512 22.5545H35.5269C35.8267 22.5545 36.0696 22.3115 36.0696 22.0118V20.1258C36.0696 19.826 35.8267 19.583 35.5269 19.583Z" fill="white"/>
<path d="M25.0027 26.2041H24.3107C24.0934 26.2041 23.9172 26.3803 23.9172 26.5976V27.2896C23.9172 27.5069 24.0934 27.6831 24.3107 27.6831H25.0027C25.22 27.6831 25.3962 27.5069 25.3962 27.2896V26.5976C25.3962 26.3803 25.22 26.2041 25.0027 26.2041Z" fill="#FA7A49"/>
<path d="M27.0248 26.2041H26.3328C26.1155 26.2041 25.9393 26.3803 25.9393 26.5976V27.2896C25.9393 27.5069 26.1155 27.6831 26.3328 27.6831H27.0248C27.2421 27.6831 27.4183 27.5069 27.4183 27.2896V26.5976C27.4183 26.3803 27.2421 26.2041 27.0248 26.2041Z" fill="#00CFDD"/>
<path d="M35.5269 26.2041H28.512C28.2122 26.2041 27.9692 26.4471 27.9692 26.7468V28.6329C27.9692 28.9326 28.2122 29.1756 28.512 29.1756H35.5269C35.8267 29.1756 36.0696 28.9326 36.0696 28.6329V26.7468C36.0696 26.4471 35.8267 26.2041 35.5269 26.2041Z" fill="white"/>
<path d="M19.6368 24.1826H12.934C12.3083 24.1826 11.801 24.6898 11.801 25.3155V42.7561C11.801 43.3818 12.3083 43.8889 12.934 43.8889H19.6368C20.2626 43.8889 20.7698 43.3818 20.7698 42.7561V25.3155C20.7698 24.6898 20.2626 24.1826 19.6368 24.1826Z" fill="#005B83"/>
<path d="M19.365 25.9119C19.365 25.9875 19.3349 26.0599 19.2815 26.1134C19.2281 26.1668 19.1556 26.1968 19.08 26.1968H13.3473C13.2717 26.1968 13.1993 26.1668 13.1458 26.1134C13.0924 26.0599 13.0624 25.9875 13.0624 25.9119C13.0624 25.8363 13.0924 25.7638 13.1458 25.7104C13.1993 25.657 13.2717 25.627 13.3473 25.627H19.0597C19.1352 25.627 19.2077 25.657 19.2611 25.7104C19.3146 25.7638 19.3446 25.8363 19.3446 25.9119H19.365Z" fill="white"/>
<path d="M19.365 26.7332C19.365 26.8088 19.3349 26.8812 19.2815 26.9347C19.2281 26.9881 19.1556 27.0181 19.08 27.0181H13.3473C13.2717 27.0181 13.1993 26.9881 13.1458 26.9347C13.0924 26.8812 13.0624 26.8088 13.0624 26.7332C13.0624 26.6576 13.0924 26.5851 13.1458 26.5317C13.1993 26.4783 13.2717 26.4482 13.3473 26.4482H19.0597C19.1352 26.4482 19.2077 26.4783 19.2611 26.5317C19.3146 26.5851 19.3446 26.6576 19.3446 26.7332H19.365Z" fill="white"/>
<path d="M19.365 27.5613C19.365 27.5984 19.3576 27.6352 19.3432 27.6693C19.3287 27.7035 19.3077 27.7345 19.2811 27.7604C19.2545 27.7864 19.2231 27.8067 19.1885 27.8203C19.154 27.8338 19.1171 27.8404 19.08 27.8395H13.3473C13.3102 27.8404 13.2733 27.8338 13.2388 27.8203C13.2043 27.8067 13.1728 27.7864 13.1462 27.7604C13.1197 27.7345 13.0986 27.7035 13.0842 27.6693C13.0698 27.6352 13.0624 27.5984 13.0624 27.5613C13.0624 27.4857 13.0924 27.4133 13.1458 27.3598C13.1993 27.3064 13.2717 27.2764 13.3473 27.2764H19.0597C19.1352 27.2764 19.2077 27.3064 19.2611 27.3598C19.3146 27.4133 19.3446 27.4857 19.3446 27.5613H19.365Z" fill="white"/>
<path d="M18.6264 35.2129H13.8231C13.4147 35.2129 13.0836 35.5439 13.0836 35.9523V42.0915C13.0836 42.4998 13.4147 42.8309 13.8231 42.8309H18.6264C19.0348 42.8309 19.3658 42.4998 19.3658 42.0915V35.9523C19.3658 35.5439 19.0348 35.2129 18.6264 35.2129Z" fill="white"/>
<path d="M17.8735 36.3252H17.324C16.9155 36.3252 16.5845 36.6563 16.5845 37.0647V37.6142C16.5845 38.0226 16.9155 38.3537 17.324 38.3537H17.8735C18.2819 38.3537 18.613 38.0226 18.613 37.6142V37.0647C18.613 36.6563 18.2819 36.3252 17.8735 36.3252Z" fill="#005B83"/>
<path d="M14.0194 28.7139H13.4699C13.2976 28.7139 13.1578 28.8536 13.1578 29.0259V29.5755C13.1578 29.7478 13.2976 29.8875 13.4699 29.8875H14.0194C14.1918 29.8875 14.3315 29.7478 14.3315 29.5755V29.0259C14.3315 28.8536 14.1918 28.7139 14.0194 28.7139Z" fill="#FA7A49"/>
<path d="M15.6281 28.7139H15.0786C14.9062 28.7139 14.7665 28.8536 14.7665 29.0259V29.5755C14.7665 29.7478 14.9062 29.8875 15.0786 29.8875H15.6281C15.8004 29.8875 15.9402 29.7478 15.9402 29.5755V29.0259C15.9402 28.8536 15.8004 28.7139 15.6281 28.7139Z" fill="#00CFDD"/>
<path d="M46.7871 24.1826H40.0843C39.4585 24.1826 38.9513 24.6898 38.9513 25.3155V42.7561C38.9513 43.3818 39.4585 43.8889 40.0843 43.8889H46.7871C47.4128 43.8889 47.9201 43.3818 47.9201 42.7561V25.3155C47.9201 24.6898 47.4128 24.1826 46.7871 24.1826Z" fill="#005B83"/>
<path d="M46.5161 25.9119C46.5161 25.9875 46.4861 26.0599 46.4327 26.1134C46.3792 26.1668 46.3067 26.1968 46.2312 26.1968H40.5188C40.4433 26.1968 40.3708 26.1668 40.3173 26.1134C40.2639 26.0599 40.2339 25.9875 40.2339 25.9119C40.2339 25.8363 40.2639 25.7638 40.3173 25.7104C40.3708 25.657 40.4433 25.627 40.5188 25.627H46.2312C46.3067 25.627 46.3792 25.657 46.4327 25.7104C46.4861 25.7638 46.5161 25.8363 46.5161 25.9119Z" fill="white"/>
<path d="M46.5161 26.7332C46.5161 26.8088 46.4861 26.8812 46.4327 26.9347C46.3792 26.9881 46.3067 27.0181 46.2312 27.0181H40.5188C40.4433 27.0181 40.3708 26.9881 40.3173 26.9347C40.2639 26.8812 40.2339 26.8088 40.2339 26.7332C40.2339 26.6576 40.2639 26.5851 40.3173 26.5317C40.3708 26.4783 40.4433 26.4482 40.5188 26.4482H46.2312C46.3067 26.4482 46.3792 26.4783 46.4327 26.5317C46.4861 26.5851 46.5161 26.6576 46.5161 26.7332Z" fill="white"/>
<path d="M46.5161 27.5613C46.5161 27.5984 46.5087 27.6352 46.4943 27.6693C46.4799 27.7035 46.4588 27.7345 46.4323 27.7604C46.4057 27.7864 46.3742 27.8067 46.3397 27.8203C46.3052 27.8338 46.2683 27.8404 46.2312 27.8395H40.5188C40.4817 27.8404 40.4448 27.8338 40.4103 27.8203C40.3758 27.8067 40.3443 27.7864 40.3177 27.7604C40.2912 27.7345 40.2701 27.7035 40.2557 27.6693C40.2413 27.6352 40.2339 27.5984 40.2339 27.5613C40.2339 27.4857 40.2639 27.4133 40.3173 27.3598C40.3708 27.3064 40.4433 27.2764 40.5188 27.2764H46.2312C46.3067 27.2764 46.3792 27.3064 46.4327 27.3598C46.4861 27.4133 46.5161 27.4857 46.5161 27.5613Z" fill="white"/>
<path d="M45.7766 35.2129H40.9734C40.565 35.2129 40.2339 35.5439 40.2339 35.9523V42.0915C40.2339 42.4998 40.565 42.8309 40.9734 42.8309H45.7766C46.185 42.8309 46.5161 42.4998 46.5161 42.0915V35.9523C46.5161 35.5439 46.185 35.2129 45.7766 35.2129Z" fill="white"/>
<path d="M45.0238 36.3252H44.4742C44.0658 36.3252 43.7347 36.6563 43.7347 37.0647V37.6142C43.7347 38.0226 44.0658 38.3537 44.4742 38.3537H45.0238C45.4322 38.3537 45.7632 38.0226 45.7632 37.6142V37.0647C45.7632 36.6563 45.4322 36.3252 45.0238 36.3252Z" fill="#005B83"/>
<path d="M41.1776 28.7139H40.6281C40.4558 28.7139 40.316 28.8536 40.316 29.0259V29.5755C40.316 29.7478 40.4558 29.8875 40.6281 29.8875H41.1776C41.35 29.8875 41.4897 29.7478 41.4897 29.5755V29.0259C41.4897 28.8536 41.35 28.7139 41.1776 28.7139Z" fill="#FA7A49"/>
<path d="M42.7784 28.7139H42.2288C42.0565 28.7139 41.9167 28.8536 41.9167 29.0259V29.5755C41.9167 29.7478 42.0565 29.8875 42.2288 29.8875H42.7784C42.9507 29.8875 43.0904 29.7478 43.0904 29.5755V29.0259C43.0904 28.8536 42.9507 28.7139 42.7784 28.7139Z" fill="#00CFDD"/>
<path d="M39.6706 35.1854H21.0749C20.8518 35.1854 20.6378 35.0968 20.48 34.939C20.3223 34.7813 20.2336 34.5673 20.2336 34.3442C20.2336 34.1211 20.3223 33.9071 20.48 33.7493C20.6378 33.5916 20.8518 33.5029 21.0749 33.5029H39.6706C39.8937 33.5029 40.1076 33.5916 40.2654 33.7493C40.4232 33.9071 40.5118 34.1211 40.5118 34.3442C40.5118 34.5673 40.4232 34.7813 40.2654 34.939C40.1076 35.0968 39.8937 35.1854 39.6706 35.1854Z" fill="#005B83"/>
<defs>
<linearGradient id="paint0_linear_653_6678" x1="14.6572" y1="19.9423" x2="47.9243" y2="49.2643" gradientUnits="userSpaceOnUse">
<stop stop-color="#676767"/>
<stop offset="0.96" stop-color="white"/>
</linearGradient>
</defs>
</svg>
