<svg width="59" height="61" viewBox="0 0 59 61" fill="none" xmlns="http://www.w3.org/2000/svg">
<path d="M58.7363 30.6835C58.7325 38.4949 55.7499 45.9971 50.4218 51.5972C45.0937 57.1973 37.8397 60.4544 30.2001 60.6768H29.3905C23.6442 60.6781 18.0239 58.9555 13.2265 55.7227C8.42909 52.4898 4.66567 47.8888 2.40286 42.4903C0.140058 37.0917 -0.522587 31.1331 0.497097 25.3533C1.51678 19.5734 4.17394 14.2266 8.13908 9.97576C12.1042 5.72497 17.2029 2.7572 22.803 1.44046C28.403 0.123725 34.258 0.515949 39.6419 2.56849C45.0259 4.62102 49.702 8.24359 53.0903 12.987C56.4787 17.7304 58.4303 23.3859 58.7031 29.2524C58.723 29.7407 58.7363 30.2088 58.7363 30.6835Z" fill="#00CFDD"/>
<path style="mix-blend-mode:multiply" opacity="0.4" d="M58.7356 30.6834C58.7318 38.4947 55.7492 45.9969 50.4211 51.597C45.093 57.1972 37.839 60.4542 30.1994 60.6766H29.3898C28.281 60.6758 27.1731 60.6101 26.0716 60.4799C18.7916 53.1206 11.0868 45.273 8.638 42.6278C8.33879 42.3343 8.06563 42.0142 7.82173 41.6714V39.718C7.81479 39.6617 7.81479 39.6047 7.82173 39.5484C7.81547 39.5262 7.81547 39.5027 7.82173 39.4806C7.84069 39.4045 7.86971 39.3315 7.90801 39.2635L11.6443 39.216V38.7413C11.6443 38.3818 11.6443 37.8459 11.6443 37.1609C11.6443 31.538 11.5713 16.3243 11.5713 16.3243L45.0117 15.4697C45.162 15.4694 45.3101 15.5067 45.4431 15.5782C45.5112 15.608 45.5741 15.6493 45.6289 15.7003L45.6886 15.7546L45.755 15.836C45.789 15.8726 45.818 15.9136 45.8413 15.9581C45.9289 16.1051 45.9749 16.2742 45.974 16.4464C45.974 16.4464 51.8737 22.3813 58.7025 29.2929C58.7224 29.7406 58.7356 30.2086 58.7356 30.6834Z" fill="url(#paint0_linear_653_6719)"/>
<path d="M45.0114 15.4355H12.3342C11.8064 15.4355 11.3785 15.8728 11.3785 16.4123V36.4484C11.3785 36.9879 11.8064 37.4251 12.3342 37.4251H45.0114C45.5392 37.4251 45.9671 36.9879 45.9671 36.4484V16.4123C45.9671 15.8728 45.5392 15.4355 45.0114 15.4355Z" fill="#005B83"/>
<path d="M43.6238 18H13.4883V35.7165H43.6238V18Z" fill="white"/>
<path d="M48.5881 38.708H8.7569C8.22912 38.708 7.80127 39.1453 7.80127 39.6847V41.6314C7.80127 42.1708 8.22912 42.6081 8.7569 42.6081H48.5881C49.1159 42.6081 49.5438 42.1708 49.5438 41.6314V39.6847C49.5438 39.1453 49.1159 38.708 48.5881 38.708Z" fill="#005B83"/>
<path d="M17.6549 19.9062C17.5367 20.1303 17.3792 20.3303 17.1904 20.4963C16.9564 20.7044 16.6951 20.8779 16.4139 21.0118V21.5341C16.6046 21.4568 16.7888 21.3638 16.9648 21.256C17.1447 21.1492 17.3136 21.0242 17.4691 20.883V24.315H18V19.9062H17.6549Z" fill="#005B83"/>
<path d="M22.0614 21.113C22.0137 20.8724 21.9237 20.6426 21.796 20.4348C21.6902 20.2605 21.5415 20.1178 21.3646 20.021C21.1758 19.9224 20.966 19.8734 20.754 19.8786C20.4737 19.8692 20.199 19.9604 19.9776 20.1363C19.7566 20.3307 19.5934 20.5845 19.5064 20.8689C19.3939 21.2792 19.3424 21.7045 19.3538 22.1304C19.3014 22.7565 19.4505 23.3829 19.7785 23.9143C19.8942 24.0641 20.0428 24.184 20.2123 24.2641C20.3818 24.3443 20.5674 24.3824 20.754 24.3755C21.0378 24.387 21.316 24.293 21.5371 24.111C21.7582 23.918 21.9196 23.6635 22.0017 23.3785C22.1197 22.9738 22.1735 22.5525 22.1609 22.1304C22.1679 21.7885 22.1345 21.4468 22.0614 21.113ZM21.3646 23.5955C21.3012 23.7037 21.2119 23.7935 21.105 23.8564C20.9982 23.9193 20.8774 23.9532 20.754 23.955C20.631 23.952 20.5106 23.9175 20.404 23.8547C20.2973 23.7919 20.2078 23.7028 20.1435 23.5955C19.9347 23.1481 19.8497 22.6508 19.898 22.1576C19.8515 21.644 19.9457 21.1274 20.1701 20.6654C20.2318 20.5669 20.3174 20.4864 20.4186 20.4318C20.5197 20.3771 20.633 20.3501 20.7474 20.3534C20.8721 20.3526 20.9948 20.3855 21.1031 20.4486C21.2115 20.5117 21.3017 20.6028 21.3646 20.7129C21.7009 21.643 21.7009 22.6654 21.3646 23.5955Z" fill="#005B83"/>
<path d="M24.3538 19.9062C24.233 20.1305 24.0733 20.3304 23.8827 20.4963C23.6487 20.7044 23.3873 20.8779 23.1062 21.0118V21.5341C23.2996 21.4583 23.4862 21.3653 23.6637 21.256C23.8416 21.1493 24.0083 21.0243 24.1614 20.883V24.315H24.6923V19.9062H24.3538Z" fill="#005B83"/>
<path d="M28.7583 21.113C28.7051 20.8731 28.6131 20.6439 28.4863 20.4348C28.3805 20.2605 28.2318 20.1178 28.0549 20.021C27.8661 19.9224 27.6563 19.8734 27.4444 19.8786C27.164 19.8692 26.8893 19.9604 26.6679 20.1363C26.4469 20.3293 26.2855 20.5838 26.2034 20.8689C26.0849 21.278 26.0311 21.7039 26.0441 22.1304C25.9917 22.7565 26.1408 23.3829 26.4688 23.9143C26.5845 24.0641 26.7331 24.184 26.9026 24.2641C27.0721 24.3443 27.2577 24.3824 27.4444 24.3755C27.7281 24.387 28.0063 24.293 28.2274 24.111C28.4503 23.9184 28.614 23.664 28.6986 23.3785C28.8108 22.9727 28.8623 22.5519 28.8513 22.1304C28.8567 21.7889 28.8256 21.4477 28.7583 21.113ZM28.0947 23.5955C28.0322 23.7053 27.9427 23.7964 27.8349 23.8598C27.7272 23.9231 27.6051 23.9565 27.4809 23.9565C27.3566 23.9565 27.2345 23.9231 27.1268 23.8598C27.019 23.7964 26.9295 23.7053 26.867 23.5955C26.6582 23.1481 26.5732 22.6508 26.6214 22.1576C26.5784 21.6442 26.6725 21.1285 26.8935 20.6654C26.9559 20.5659 27.0425 20.4848 27.145 20.4301C27.2474 20.3753 27.362 20.3489 27.4775 20.3534C27.602 20.354 27.7242 20.3874 27.8323 20.4504C27.9404 20.5133 28.0308 20.6037 28.0947 20.7129C28.4219 21.6446 28.4219 22.6637 28.0947 23.5955Z" fill="#005B83"/>
<path d="M31.0404 19.9062C30.9195 20.1305 30.7599 20.3304 30.5692 20.4963C30.3373 20.7073 30.0755 20.8811 29.7927 21.0118V21.5341C29.9862 21.4583 30.1727 21.3653 30.3502 21.256C30.529 21.1475 30.6978 21.0226 30.8545 20.883V24.315H31.3788V19.9062H31.0404Z" fill="#005B83"/>
<path d="M33.9412 19.9062C33.8204 20.1305 33.6607 20.3304 33.4701 20.4963C33.2382 20.7073 32.9764 20.8811 32.6936 21.0118V21.5341C32.887 21.4583 33.0736 21.3653 33.2511 21.256C33.429 21.1493 33.5957 21.0243 33.7488 20.883V24.315H34.2797V19.9062H33.9412Z" fill="#005B83"/>
<path d="M38.3476 21.113C38.2943 20.8731 38.2024 20.6438 38.0755 20.4347C37.9716 20.259 37.8223 20.1159 37.6441 20.021C37.4578 19.9224 37.25 19.8734 37.0402 19.8786C36.7579 19.8693 36.4811 19.9604 36.2571 20.1363C36.0383 20.3313 35.8774 20.5851 35.7926 20.8688C35.6741 21.278 35.6204 21.7039 35.6333 22.1304C35.5809 22.7565 35.73 23.3829 36.058 23.9143C36.2766 24.1641 36.5778 24.3225 36.9038 24.3588C37.2297 24.3951 37.5573 24.3068 37.8233 24.111C38.0421 23.916 38.203 23.6622 38.2879 23.3784C38.4001 22.9727 38.4515 22.5519 38.4405 22.1304C38.4459 21.7888 38.4148 21.4477 38.3476 21.113ZM37.6839 23.5955C37.6215 23.7053 37.5319 23.7964 37.4242 23.8598C37.3165 23.9231 37.1944 23.9564 37.0701 23.9564C36.9458 23.9564 36.8237 23.9231 36.716 23.8598C36.6083 23.7964 36.5187 23.7053 36.4562 23.5955C36.2474 23.1481 36.1625 22.6508 36.2107 22.1576C36.1677 21.6442 36.2617 21.1285 36.4828 20.6654C36.5451 20.5659 36.6318 20.4848 36.7342 20.43C36.8366 20.3753 36.9513 20.3489 37.0668 20.3534C37.1912 20.354 37.3134 20.3874 37.4215 20.4503C37.5296 20.5133 37.62 20.6037 37.6839 20.7128C38.0112 21.6446 38.0112 22.6637 37.6839 23.5955Z" fill="#005B83"/>
<path d="M40.6295 19.9062C40.5101 20.1315 40.3503 20.3317 40.1583 20.4963C39.9264 20.7073 39.6646 20.8811 39.3818 21.0118V21.5341C39.5753 21.4583 39.7618 21.3653 39.9393 21.256C40.1192 21.1492 40.2881 21.0242 40.4436 20.883V24.315H40.9679V19.9062H40.6295Z" fill="#005B83"/>
<path d="M18.7192 26.3836C18.6682 26.144 18.5785 25.9148 18.4538 25.7053C18.3481 25.531 18.1993 25.3883 18.0224 25.2915C17.8329 25.195 17.6236 25.1461 17.4119 25.1491C17.1316 25.1397 16.8569 25.2309 16.6354 25.4068C16.4125 25.5995 16.2489 25.8539 16.1643 26.1394C16.0458 26.5486 15.992 26.9745 16.005 27.401C15.9545 28.0278 16.106 28.6542 16.4363 29.1848C16.6545 29.4328 16.9545 29.59 17.2789 29.6263C17.6033 29.6626 17.9295 29.5754 18.195 29.3815C18.4172 29.1896 18.5788 28.9347 18.6595 28.649C18.7776 28.2444 18.8313 27.823 18.8188 27.401C18.8258 27.059 18.7923 26.7174 18.7192 26.3836ZM18.0556 28.866C17.9918 28.9737 17.9023 29.0632 17.7956 29.126C17.6888 29.1889 17.5682 29.2231 17.4451 29.2255C17.322 29.2225 17.2017 29.188 17.095 29.1252C16.9884 29.0624 16.8988 28.9733 16.8345 28.866C16.6234 28.4193 16.5362 27.922 16.5823 27.4281C16.5372 26.9139 16.6338 26.397 16.8611 25.9359C16.9228 25.8374 17.0084 25.757 17.1096 25.7023C17.2108 25.6476 17.324 25.6206 17.4384 25.6239C17.5629 25.6245 17.6851 25.6579 17.7932 25.7209C17.9013 25.7838 17.9917 25.8743 18.0556 25.9834C18.3919 26.9135 18.3919 27.9359 18.0556 28.866Z" fill="#005B83"/>
<path d="M21.003 25.1758C20.8865 25.403 20.7262 25.6037 20.5318 25.7659C20.3012 25.9753 20.0419 26.1489 19.762 26.2814V26.8036C19.9548 26.7265 20.1413 26.6335 20.3194 26.5255C20.4973 26.4188 20.6641 26.2939 20.8171 26.1525V29.5981H21.348V25.1758H21.003Z" fill="#005B83"/>
<path d="M23.9001 25.1758C23.7807 25.401 23.6209 25.6012 23.4289 25.7659C23.1983 25.9753 22.939 26.1489 22.6591 26.2814V26.8036C22.8519 26.7265 23.0384 26.6335 23.2165 26.5255C23.3944 26.4188 23.5612 26.2939 23.7142 26.1525V29.5981H24.2451V25.1758H23.9001Z" fill="#005B83"/>
<path d="M28.3064 26.3836C28.2553 26.144 28.1656 25.9148 28.0409 25.7053C27.9352 25.531 27.7864 25.3883 27.6096 25.2915C27.4201 25.195 27.2108 25.1461 26.999 25.1491C26.7187 25.1397 26.444 25.2309 26.2226 25.4068C26.0016 25.6012 25.8384 25.855 25.7514 26.1394C25.6389 26.5497 25.5874 26.975 25.5988 27.401C25.5464 28.027 25.6955 28.6534 26.0235 29.1848C26.2417 29.4328 26.5417 29.59 26.8661 29.6263C27.1905 29.6626 27.5166 29.5754 27.7821 29.3815C28.0044 29.1896 28.166 28.9347 28.2467 28.649C28.3647 28.2444 28.4185 27.823 28.4059 27.401C28.4129 27.059 28.3795 26.7174 28.3064 26.3836ZM27.6428 28.866C27.577 28.9734 27.4862 29.0625 27.3785 29.1252C27.2708 29.1879 27.1495 29.2224 27.0256 29.2255C26.9025 29.2225 26.7822 29.188 26.6755 29.1252C26.5689 29.0624 26.4793 28.9733 26.415 28.866C26.2039 28.4193 26.1167 27.922 26.1629 27.4281C26.1178 26.9139 26.2143 26.397 26.4416 25.9359C26.5033 25.8374 26.589 25.757 26.6901 25.7023C26.7913 25.6476 26.9046 25.6206 27.019 25.6239C27.1441 25.6253 27.267 25.6589 27.376 25.7218C27.4851 25.7846 27.5768 25.8746 27.6428 25.9834C27.97 26.9152 27.97 27.9343 27.6428 28.866Z" fill="#005B83"/>
<path d="M30.5989 25.1758C30.4781 25.4 30.3185 25.5999 30.1278 25.7659C29.8938 25.9739 29.6324 26.1475 29.3513 26.2814V26.8036C29.5448 26.7278 29.7313 26.6348 29.9088 26.5255C30.0867 26.4188 30.2535 26.2939 30.4065 26.1525V29.5981H30.9374V25.1758H30.5989Z" fill="#005B83"/>
<path d="M33.4893 25.1758C33.3733 25.4014 33.2155 25.6018 33.0247 25.7659C32.7908 25.9739 32.5294 26.1475 32.2483 26.2814V26.8036C32.4417 26.7278 32.6283 26.6348 32.8057 26.5255C32.9837 26.4188 33.1504 26.2939 33.3035 26.1525V29.5981H33.8543V25.1758H33.4893Z" fill="#005B83"/>
<path d="M37.8976 26.3837C37.8499 26.1431 37.7599 25.9133 37.6321 25.7054C37.5264 25.5312 37.3776 25.3885 37.2008 25.2917C37.0141 25.1939 36.8066 25.1449 36.5969 25.1492C36.3144 25.1388 36.0373 25.2301 35.8138 25.407C35.5927 25.6 35.4313 25.8545 35.3492 26.1395C35.2308 26.5487 35.177 26.9746 35.19 27.4011C35.1375 28.0271 35.2867 28.6535 35.6147 29.185C35.731 29.3357 35.8807 29.4562 36.0515 29.5364C36.2222 29.6165 36.4091 29.6542 36.5969 29.6462C36.8784 29.6566 37.1542 29.5627 37.3733 29.3817C37.5977 29.1917 37.7598 28.9361 37.8379 28.6491C37.9559 28.2445 38.0097 27.8231 37.9971 27.4011C38.0041 27.0591 37.9707 26.7175 37.8976 26.3837ZM37.2339 28.8662C37.1715 28.976 37.0819 29.0671 36.9742 29.1304C36.8665 29.1938 36.7444 29.2271 36.6201 29.2271C36.4958 29.2271 36.3737 29.1938 36.266 29.1304C36.1583 29.0671 36.0687 28.976 36.0062 28.8662C35.7974 28.4188 35.7125 27.9215 35.7607 27.4282C35.7142 26.9147 35.8084 26.398 36.0328 25.936C36.0951 25.8366 36.1818 25.7554 36.2842 25.7007C36.3866 25.646 36.5013 25.6196 36.6168 25.624C36.7412 25.6246 36.8634 25.658 36.9715 25.721C37.0796 25.784 37.17 25.8744 37.2339 25.9835C37.5612 26.9153 37.5612 27.9344 37.2339 28.8662Z" fill="#005B83"/>
<path d="M41.2485 26.3837C41.1952 26.1437 41.1032 25.9145 40.9764 25.7054C40.8707 25.5312 40.7219 25.3885 40.545 25.2917C40.3583 25.1939 40.1508 25.1449 39.9411 25.1492C39.6586 25.1388 39.3815 25.2301 39.158 25.407C38.9392 25.602 38.7783 25.8558 38.6935 26.1395C38.575 26.5487 38.5213 26.9746 38.5342 27.4011C38.4818 28.0271 38.6309 28.6535 38.9589 29.185C39.0753 29.3357 39.225 29.4562 39.3957 29.5364C39.5665 29.6165 39.7534 29.6542 39.9411 29.6462C40.2227 29.6566 40.4984 29.5627 40.7175 29.3817C40.9419 29.1904 41.1059 28.9355 41.1887 28.6491C41.3009 28.2434 41.3524 27.8226 41.3414 27.4011C41.3468 27.0595 41.3157 26.7184 41.2485 26.3837ZM40.5848 28.8662C40.5224 28.976 40.4328 29.0671 40.3251 29.1304C40.2173 29.1938 40.0952 29.2271 39.971 29.2271C39.8467 29.2271 39.7246 29.1938 39.6169 29.1304C39.5091 29.0671 39.4196 28.976 39.3571 28.8662C39.1483 28.4188 39.0633 27.9215 39.1116 27.4282C39.0685 26.9148 39.1626 26.3991 39.3837 25.936C39.446 25.8366 39.5327 25.7554 39.6351 25.7007C39.7375 25.646 39.8521 25.6196 39.9676 25.624C40.0921 25.6246 40.2143 25.658 40.3224 25.721C40.4305 25.784 40.5209 25.8744 40.5848 25.9835C40.9121 26.9153 40.9121 27.9344 40.5848 28.8662Z" fill="#005B83"/>
<path d="M17.6549 30.4189C17.5367 30.643 17.3792 30.843 17.1904 31.009C16.9564 31.2171 16.6951 31.3906 16.4139 31.5245V32.0468C16.6046 31.9695 16.7888 31.8765 16.9648 31.7687C17.1447 31.6619 17.3136 31.5369 17.4691 31.3957V34.8345H18V30.4189H17.6549Z" fill="#005B83"/>
<path d="M22.0616 31.6536C22.0138 31.413 21.9239 31.1832 21.7961 30.9754C21.6904 30.8011 21.5416 30.6584 21.3648 30.5616C21.176 30.463 20.9662 30.414 20.7542 30.4192C20.4734 30.4062 20.1975 30.4978 19.9778 30.6769C19.7554 30.8701 19.5919 31.1243 19.5066 31.4095C19.3945 31.8176 19.3431 32.2405 19.354 32.6643C19.301 33.2925 19.4502 33.9212 19.7787 34.4549C19.8944 34.6047 20.043 34.7246 20.2125 34.8047C20.382 34.8849 20.5676 34.923 20.7542 34.9161C21.0379 34.9276 21.3161 34.8336 21.5373 34.6516C21.7595 34.4597 21.9212 34.2048 22.0018 33.9191C22.1203 33.5122 22.174 33.0885 22.1611 32.6643C22.1677 32.3245 22.1343 31.9852 22.0616 31.6536ZM21.3648 34.1361C21.3014 34.2443 21.2121 34.3341 21.1052 34.397C20.9983 34.4599 20.8775 34.4938 20.7542 34.4956C20.6312 34.4926 20.5108 34.4581 20.4042 34.3953C20.2975 34.3325 20.208 34.2434 20.1437 34.1361C19.7988 33.1912 19.7988 32.1509 20.1437 31.206C20.2054 31.1075 20.291 31.027 20.3922 30.9724C20.4934 30.9177 20.6066 30.8907 20.721 30.894C20.8457 30.8932 20.9684 30.9261 21.0768 30.9892C21.1851 31.0523 21.2753 31.1434 21.3382 31.2534C21.6745 32.1836 21.6745 33.206 21.3382 34.1361H21.3648Z" fill="#005B83"/>
<path d="M24.3538 30.4189C24.233 30.6432 24.0733 30.8431 23.8827 31.009C23.6487 31.2171 23.3873 31.3906 23.1062 31.5245V32.0468C23.2996 31.971 23.4862 31.8779 23.6637 31.7687C23.8416 31.662 24.0083 31.537 24.1614 31.3957V34.8345H24.6923V30.4189H24.3538Z" fill="#005B83"/>
<path d="M27.2194 30.4189C27.1034 30.6445 26.9456 30.845 26.7548 31.009C26.5209 31.2171 26.2595 31.3906 25.9784 31.5245V32.0468C26.1779 31.9729 26.371 31.8821 26.5558 31.7755C26.7337 31.6688 26.9004 31.5438 27.0535 31.4024V34.8413H27.5844V30.4189H27.2194Z" fill="#005B83"/>
<path d="M31.6528 31.6536C31.605 31.413 31.5151 31.1832 31.3873 30.9754C31.2816 30.8011 31.1328 30.6584 30.9559 30.5616C30.7672 30.463 30.5573 30.414 30.3454 30.4192C30.0646 30.4062 29.7887 30.4978 29.569 30.6769C29.3467 30.8689 29.1851 31.1238 29.1044 31.4095C28.9864 31.8164 28.9327 32.24 28.9451 32.6643C28.8922 33.2925 29.0413 33.9212 29.3699 34.4549C29.4855 34.6047 29.6342 34.7246 29.8037 34.8047C29.9732 34.8849 30.1588 34.923 30.3454 34.9161C30.6291 34.9276 30.9073 34.8336 31.1285 34.6516C31.3507 34.4597 31.5124 34.2048 31.593 33.9191C31.7115 33.5122 31.7652 33.0885 31.7523 32.6643C31.7589 32.3245 31.7255 31.9852 31.6528 31.6536ZM30.9891 34.1361C30.9267 34.2459 30.8371 34.337 30.7294 34.4004C30.6216 34.4637 30.4995 34.4971 30.3753 34.4971C30.251 34.4971 30.1289 34.4637 30.0212 34.4004C29.9134 34.337 29.8239 34.2459 29.7614 34.1361C29.5536 33.686 29.4688 33.1868 29.5159 32.6914C29.4734 32.1802 29.5674 31.6668 29.788 31.206C29.8497 31.1075 29.9353 31.027 30.0365 30.9724C30.1376 30.9177 30.2509 30.8907 30.3653 30.894C30.4907 30.8941 30.614 30.9272 30.7233 30.9902C30.8326 31.0531 30.9241 31.1438 30.9891 31.2534C31.3164 32.1852 31.3164 33.2043 30.9891 34.1361Z" fill="#005B83"/>
<path d="M33.9412 30.4189C33.8204 30.6432 33.6607 30.8431 33.4701 31.009C33.2382 31.22 32.9764 31.3938 32.6936 31.5245V32.0468C32.887 31.971 33.0736 31.8779 33.2511 31.7687C33.429 31.662 33.5957 31.537 33.7488 31.3957V34.8345H34.2797V30.4189H33.9412Z" fill="#005B83"/>
<path d="M36.842 30.4189C36.7211 30.6432 36.5615 30.8431 36.3708 31.009C36.1368 31.2171 35.8755 31.3906 35.5944 31.5245V32.0468C35.7878 31.971 35.9743 31.8779 36.1518 31.7687C36.3297 31.662 36.4965 31.537 36.6495 31.3957V34.8345H37.1738V30.4189H36.842Z" fill="#005B83"/>
<path d="M41.2486 31.6538C41.1954 31.4139 41.1034 31.1847 40.9765 30.9756C40.8708 30.8013 40.722 30.6586 40.5452 30.5618C40.3585 30.464 40.151 30.415 39.9413 30.4194C39.6583 30.4054 39.38 30.497 39.1582 30.6771C38.938 30.8709 38.7768 31.1251 38.6936 31.4096C38.5757 31.8166 38.5219 32.2402 38.5344 32.6644C38.4815 33.2927 38.6306 33.9214 38.9591 34.4551C39.0755 34.6059 39.2251 34.7263 39.3959 34.8065C39.5666 34.8867 39.7535 34.9243 39.9413 34.9163C40.2228 34.9267 40.4986 34.8328 40.7177 34.6518C40.9421 34.4605 41.106 34.2056 41.1889 33.9193C41.3015 33.5113 41.3529 33.0882 41.3415 32.6644C41.3467 32.3251 41.3156 31.9862 41.2486 31.6538ZM40.585 34.1363C40.5225 34.2461 40.433 34.3372 40.3252 34.4006C40.2175 34.4639 40.0954 34.4972 39.9711 34.4972C39.8469 34.4972 39.7248 34.4639 39.617 34.4006C39.5093 34.3372 39.4197 34.2461 39.3573 34.1363C39.1495 33.6862 39.0647 33.187 39.1117 32.6916C39.0693 32.1804 39.1633 31.667 39.3838 31.2062C39.4462 31.1067 39.5328 31.0256 39.6352 30.9708C39.7377 30.9161 39.8523 30.8897 39.9678 30.8942C40.0923 30.8948 40.2144 30.9282 40.3226 30.9911C40.4307 31.0541 40.5211 31.1445 40.585 31.2536C40.9122 32.1854 40.9122 33.2045 40.585 34.1363Z" fill="#005B83"/>
<defs>
<linearGradient id="paint0_linear_653_6719" x1="12.6795" y1="17.2061" x2="47.108" y2="46.9016" gradientUnits="userSpaceOnUse">
<stop stop-color="#676767"/>
<stop offset="0.96" stop-color="white"/>
</linearGradient>
</defs>
</svg>
