<svg width="61" height="60" viewBox="0 0 61 60" fill="none" xmlns="http://www.w3.org/2000/svg">
<path d="M60.0195 30.0068C60.0204 31.2904 59.9388 32.5727 59.7754 33.8458C59.694 34.4766 59.599 35.1006 59.4769 35.7178C58.415 41.1741 55.8601 46.2287 52.0964 50.3193C48.3328 54.4099 43.5079 57.376 38.1588 58.8876C36.2193 59.4261 34.2314 59.7715 32.2239 59.9186C31.5004 59.9729 30.7679 60 30.0263 60C24.0923 60.0013 18.2912 58.2428 13.3567 54.9469C8.42215 51.651 4.57592 46.9657 2.30446 41.4836C0.0329861 36.0016 -0.561684 29.969 0.595656 24.149C1.753 18.3289 4.61036 12.9828 8.80634 8.78681C13.0023 4.59083 18.3484 1.73346 24.1685 0.576124C29.9886 -0.581216 36.0211 0.0134558 41.5032 2.28492C46.9852 4.55639 51.6705 8.40262 54.9664 13.3371C58.2624 18.2716 60.0209 24.0728 60.0195 30.0068Z" fill="#FA7A49"/>
<path style="mix-blend-mode:multiply" opacity="0.4" d="M59.7763 33.8459C59.6949 34.4767 59.6 35.1007 59.4779 35.7179C58.416 41.1742 55.8611 46.2288 52.0974 50.3194C48.3337 54.41 43.5089 57.3761 38.1598 58.8877C36.2203 59.4262 34.2323 59.7716 32.2249 59.9187C22.9122 50.6196 10.5202 38.214 9.71303 37.3594L9.67233 37.3322C8.97353 36.7509 8.36943 36.0644 7.88169 35.2974C7.54812 34.7652 7.27726 34.1962 7.07454 33.6017C7.03385 33.4796 6.99315 33.3576 6.95924 33.2355C6.95632 33.2084 6.95632 33.1811 6.95924 33.1541C6.92532 33.0184 6.88463 32.8828 6.8575 32.7471C6.83037 32.6115 6.78967 32.4419 6.76254 32.2859C6.73541 32.1299 6.71506 31.9671 6.69471 31.8111C6.67436 31.6551 6.69471 31.6008 6.69471 31.4923C6.69471 31.3838 6.69471 31.065 6.69471 30.8479C6.68921 28.614 7.56633 26.4682 9.13516 24.8778C10.704 23.2874 12.8375 22.381 15.0714 22.356C15.4801 22.3573 15.8882 22.389 16.2923 22.4509C16.597 21.4178 17.1461 20.4732 17.893 19.6971C18.1399 19.4538 18.4027 19.2272 18.6798 19.0189C19.7082 18.2302 20.946 17.7615 22.2388 17.671C23.5317 17.5806 24.8226 17.8724 25.9509 18.5102C26.9882 17.3453 28.261 16.414 29.6852 15.7779C31.1094 15.1418 32.6524 14.8154 34.2122 14.8204C34.4632 14.8204 34.7141 14.8204 34.9583 14.8204H35.0397C35.2342 14.8204 35.4309 14.8407 35.6298 14.8814H35.8333C35.9825 14.8814 36.1317 14.9085 36.281 14.9628L36.5658 15.0171C36.989 15.1076 37.4059 15.2254 37.8139 15.3698L38.1123 15.4783C38.2298 15.5176 38.3453 15.5629 38.4582 15.6139L38.8109 15.7699C39.1797 15.9346 39.5377 16.1227 39.8826 16.3329C40.0522 16.4347 40.2217 16.5364 40.3845 16.6517C40.5473 16.767 40.7101 16.8687 40.8661 16.9908C41.0221 17.1129 41.1781 17.2282 41.3273 17.3571C41.6312 17.6101 41.921 17.8796 42.1955 18.1643C42.3312 18.3067 42.4668 18.4491 42.5957 18.5983C42.982 18.9417 43.3467 19.3087 43.6877 19.6971C44.0734 20.0438 44.4359 20.4154 44.7729 20.8095L44.8611 20.8841L45.2274 20.9791L45.5122 21.0605C45.7768 21.1486 46.0413 21.2436 46.299 21.3521L46.6382 21.5014C46.7522 21.5487 46.8632 21.6031 46.9705 21.6641C47.2079 21.7862 47.4453 21.9151 47.6488 22.0575C47.8523 22.2 48.0286 22.3085 48.205 22.4374C48.3949 22.5798 48.5848 22.729 48.7612 22.885C48.9375 23.041 49.0189 23.1156 49.141 23.2309L49.1885 23.2852C49.2699 23.3598 49.3445 23.4344 49.4191 23.5158C49.5482 23.645 49.6705 23.7808 49.7854 23.9228C49.9753 24.0584 54.3027 28.3723 59.7763 33.8459Z" fill="url(#paint0_linear_653_6756)"/>
<path d="M43.4826 21.5144C42.7377 19.9273 41.5978 18.558 40.1722 17.5376C38.7466 16.5172 37.0829 15.8798 35.3404 15.6865C33.5978 15.4932 31.8349 15.7504 30.2203 16.4335C28.6056 17.1167 27.1934 18.2028 26.1188 19.5881C25.3107 19.001 24.3648 18.6324 23.3726 18.5177C22.3804 18.4031 21.3753 18.5464 20.4547 18.9338C19.534 19.3211 18.7289 19.9395 18.1171 20.729C17.5052 21.5185 17.1074 22.4525 16.9621 23.4407C16.3534 23.2794 15.7265 23.1974 15.0969 23.1965C13.1152 23.2556 11.2344 24.0844 9.8536 25.507C8.47276 26.9297 7.70044 28.8343 7.70044 30.8169C7.70044 32.7994 8.47276 34.7041 9.8536 36.1267C11.2344 37.5493 13.1152 38.3781 15.0969 38.4373H42.689C44.8752 38.4468 46.9806 37.6114 48.5656 36.1056C50.1505 34.5998 51.0926 32.5399 51.195 30.3561C51.2974 28.1722 50.5523 26.0333 49.1152 24.3857C47.678 22.7382 45.6601 21.7095 43.4826 21.5144Z" fill="white"/>
<path d="M49.831 23.9367C49.7161 23.7947 49.5938 23.6589 49.4647 23.5297C49.3901 23.4483 49.3155 23.3737 49.2341 23.2991L49.1866 23.2448C49.0645 23.1295 48.9357 23.0074 48.8068 22.8989C48.6779 22.7904 48.4405 22.5937 48.2506 22.4513C48.0742 22.3224 47.8843 22.1935 47.6944 22.0714C47.5045 21.9493 47.2332 21.8001 47.0161 21.678C46.9088 21.617 46.7978 21.5626 46.6838 21.5152L46.3447 21.366C46.0869 21.2575 45.8224 21.1625 45.5579 21.0744L45.273 20.993L44.9067 20.898C44.6354 20.8302 44.3573 20.7827 44.0792 20.742C43.6847 19.9905 43.2044 19.2872 42.6481 18.6461C42.5192 18.4969 42.3835 18.3545 42.2479 18.2121C41.9769 17.9238 41.6869 17.6542 41.3797 17.4049C41.2305 17.276 41.0745 17.1539 40.9185 17.0386C40.7625 16.9233 40.5997 16.808 40.4369 16.6995C40.2763 16.583 40.1087 16.4766 39.935 16.3807C39.5901 16.1705 39.2321 15.9824 38.8633 15.8177L38.4563 15.6278C38.3434 15.5768 38.228 15.5315 38.1104 15.4922L37.812 15.3837C37.404 15.2393 36.9871 15.1215 36.564 15.031L36.2791 14.9767C36.1299 14.9405 35.9806 14.9134 35.8314 14.8953H35.6279C35.4335 14.8682 35.2368 14.8478 35.0379 14.8343H34.9565C34.7123 14.8343 34.4613 14.8343 34.2104 14.8343C32.6542 14.8233 31.1133 15.1423 29.6894 15.7701C28.2654 16.3979 26.9906 17.3203 25.949 18.4766C24.8175 17.8436 23.5248 17.5575 22.2318 17.6539C20.9389 17.7504 19.7029 18.2252 18.6779 19.0192C17.538 19.8823 16.7 21.0835 16.2836 22.4513C15.8796 22.3893 15.4715 22.3576 15.0627 22.3563C12.8206 22.3617 10.6721 23.2557 9.08792 24.8424C7.50378 26.429 6.61324 28.579 6.61145 30.8211C6.61145 31.0382 6.61145 31.2552 6.61145 31.4655C6.61145 31.6758 6.61145 31.6758 6.61145 31.7843C6.61145 31.8928 6.65215 32.1031 6.67928 32.2591C6.70641 32.4151 6.74032 32.5643 6.77423 32.7203C6.80815 32.8763 6.84206 32.9916 6.87598 33.1273C6.87306 33.1543 6.87306 33.1816 6.87598 33.2087C6.87598 33.3307 6.95058 33.4528 6.99128 33.5749C7.21777 34.1825 7.51607 34.7609 7.87982 35.2977C8.36169 36.0692 8.96656 36.7565 9.67046 37.3326L9.71116 37.3732C11.2216 38.6134 13.1152 39.2917 15.0695 39.2928H42.6888C44.4654 39.2903 46.2045 38.7811 47.702 37.8249C49.1994 36.8688 50.3931 35.5053 51.1429 33.8946C51.8927 32.2839 52.1676 30.4928 51.9352 28.7314C51.7028 26.97 50.9728 25.3114 49.831 23.9502V23.9367ZM42.6888 37.5971H15.0695C14.1026 37.6064 13.1448 37.4088 12.2605 37.0176C11.3762 36.6264 10.5857 36.0507 9.94212 35.329C9.29854 34.6073 8.81671 33.7563 8.52895 32.8331C8.24119 31.9099 8.15415 30.9359 8.27367 29.9763C8.39319 29.0168 8.7165 28.0938 9.22193 27.2695C9.72736 26.4451 10.4032 25.7383 11.2042 25.1965C12.0051 24.6547 12.9127 24.2905 13.8659 24.1282C14.8192 23.9659 15.7962 24.0093 16.7313 24.2555L17.6334 24.4861L17.769 23.5636C17.9484 22.3843 18.5431 21.3078 19.446 20.5281C20.3488 19.7483 21.5004 19.3167 22.6933 19.3109C23.7471 19.3084 24.774 19.6435 25.6234 20.2672L26.3017 20.7488L26.8036 20.1044C27.6829 18.9644 28.8138 18.043 30.1081 17.4124C31.4024 16.7817 32.8249 16.4588 34.2646 16.4689C36.0512 16.4767 37.799 16.9906 39.3055 17.9509C40.812 18.9113 42.0157 20.2788 42.7769 21.8951L42.9804 22.3292L43.462 22.3699C45.4323 22.5351 47.2618 23.458 48.5656 24.9445C49.8694 26.431 50.5459 28.3652 50.4528 30.3402C50.3596 32.3153 49.5042 34.1773 48.0663 35.5345C46.6284 36.8917 44.7202 37.6384 42.743 37.6174L42.6888 37.5971Z" fill="#00CFDD"/>
<path d="M37.786 34.1168L36.1717 26.9678L30.7862 31.9056L33.0245 32.5839C32.3973 33.1333 31.6583 33.54 30.8586 33.7758C30.0588 34.0116 29.2174 34.0709 28.3925 33.9497C27.5676 33.8284 26.7788 33.5295 26.0807 33.0735C25.3827 32.6175 24.7919 32.0154 24.3494 31.3087C24.2948 31.2076 24.2201 31.1187 24.1299 31.0476C24.0397 30.9765 23.9358 30.9246 23.8247 30.8951C23.7137 30.8657 23.5978 30.8593 23.4841 30.8764C23.3705 30.8935 23.2616 30.9337 23.1641 30.9945C23.0666 31.0553 22.9826 31.1355 22.9173 31.23C22.852 31.3246 22.8067 31.4315 22.7843 31.5442C22.7619 31.6569 22.7629 31.773 22.7871 31.8853C22.8113 31.9976 22.8582 32.1038 22.925 32.1973C23.543 33.1799 24.3818 34.0048 25.3746 34.6063C26.3674 35.2078 27.4869 35.5694 28.644 35.6622C29.8011 35.7551 30.9639 35.5767 32.0399 35.1412C33.1159 34.7057 34.0755 34.0251 34.8423 33.1536L37.786 34.1168Z" fill="#F3C144"/>
<path d="M25.2324 24.14C25.637 23.7586 26.0938 23.4366 26.5889 23.1836C27.2664 22.8281 28.0077 22.611 28.7699 22.5449C29.5321 22.4788 30.2998 22.565 31.0283 22.7986C31.7569 23.0322 32.4316 23.4084 33.0132 23.9054C33.5949 24.4023 34.0718 25.0101 34.4162 25.6932C34.4661 25.7921 34.5349 25.8802 34.6189 25.9524C34.7028 26.0247 34.8001 26.0797 34.9053 26.1144C35.0105 26.149 35.1215 26.1626 35.2319 26.1543C35.3423 26.1461 35.45 26.1162 35.5489 26.0663C35.6478 26.0164 35.7359 25.9475 35.8081 25.8636C35.8804 25.7797 35.9354 25.6824 35.97 25.5772C36.0047 25.472 36.0183 25.361 36.01 25.2506C36.0018 25.1402 35.9718 25.0325 35.922 24.9336C35.3617 23.8237 34.5329 22.8714 33.511 22.1633C32.489 21.4552 31.3064 21.0137 30.0704 20.8789C28.8344 20.7442 27.5844 20.9204 26.4339 21.3916C25.2833 21.8628 24.2688 22.614 23.4824 23.577L20.8711 22.7631L22.4583 29.9257L27.8166 24.9539L25.2324 24.14Z" fill="#F3C144"/>
<defs>
<linearGradient id="paint0_linear_653_6756" x1="16.7942" y1="20.4975" x2="51.7524" y2="51.3114" gradientUnits="userSpaceOnUse">
<stop stop-color="#676767"/>
<stop offset="0.96" stop-color="white"/>
</linearGradient>
</defs>
</svg>
