<svg width="61" height="61" viewBox="0 0 61 61" fill="none" xmlns="http://www.w3.org/2000/svg">
<path d="M60.037 30.1114C60.029 32.4218 59.7628 34.7241 59.2434 36.9753C57.7839 43.1819 54.3861 48.7625 49.5425 52.9087C44.6988 57.0548 38.6608 59.5511 32.3034 60.0358C31.5573 60.0901 30.7977 60.1172 30.038 60.1172C29.1631 60.1172 28.2949 60.0765 27.4335 60.0019C21.6335 59.4964 16.1059 57.3142 11.5247 53.7212C6.94361 50.1282 3.50698 45.2799 1.63393 39.7674C-0.239118 34.2549 -0.467618 28.3164 0.976274 22.6763C2.42017 17.0361 5.47406 11.938 9.76553 8.00365C14.057 4.06927 19.4006 1.46868 25.1446 0.518996C30.8887 -0.430683 36.785 0.311592 42.1144 2.65531C47.4439 4.99903 51.9762 8.84292 55.1586 13.7182C58.341 18.5934 60.0361 24.2894 60.037 30.1114Z" fill="#005B83"/>
<path style="mix-blend-mode:multiply" opacity="0.4" d="M59.7727 33.8894C59.6453 34.9272 59.4619 35.9574 59.2234 36.9754C57.7638 43.182 54.366 48.7626 49.5224 52.9088C44.6787 57.0549 38.6407 59.5512 32.2833 60.0359C22.7132 50.4726 9.71114 37.457 9.50089 37.206C9.14963 36.9169 8.82503 36.5969 8.531 36.2497C8.33123 36.034 8.14332 35.8075 7.96806 35.5715C7.87989 35.4426 7.79848 35.3137 7.71709 35.1849C7.3833 34.6552 7.11245 34.0884 6.90999 33.496C6.8693 33.3739 6.82859 33.2518 6.79468 33.1298C6.79176 33.1027 6.79176 33.0754 6.79468 33.0484C6.79468 32.9127 6.72008 32.7771 6.69295 32.6414C6.66582 32.5058 6.62511 32.3362 6.59798 32.1802C6.57085 32.0242 6.5505 31.875 6.53015 31.7258C6.53015 31.6173 6.53015 31.5155 6.53015 31.4138C6.53015 31.2035 6.53015 30.9797 6.53015 30.7355C6.53194 28.4923 7.42339 26.3414 9.00895 24.7546C10.5945 23.1677 12.7447 22.2746 14.9879 22.271C15.3967 22.2723 15.8048 22.304 16.2088 22.3659C16.4575 21.5046 16.8772 20.7022 17.4429 20.0067C18.0086 19.3111 18.7086 18.7367 19.5011 18.3176C20.2937 17.8986 21.1625 17.6435 22.0558 17.5676C22.9491 17.4917 23.8486 17.5966 24.7005 17.8759C24.966 17.9681 25.2264 18.0745 25.4804 18.1947L25.8603 18.3914C26.8842 17.226 28.1428 16.2901 29.5536 15.6449C30.9643 14.9998 32.4955 14.6598 34.0467 14.6475C34.2977 14.6475 34.5487 14.6475 34.7996 14.6475H34.8539C35.0641 14.6475 35.2676 14.6814 35.4779 14.7153C35.5342 14.7087 35.5911 14.7087 35.6474 14.7153C35.8141 14.7348 35.9794 14.7642 36.1425 14.8035C36.2341 14.8121 36.3248 14.828 36.4138 14.8509C36.826 14.9383 37.2316 15.0539 37.6279 15.1968L38.0077 15.3325L38.218 15.4139L38.6724 15.6174C39.0295 15.7829 39.3782 15.9663 39.7169 16.1667C40.056 16.3702 40.3952 16.594 40.6936 16.845L41.1616 17.2112C41.46 17.4622 41.7517 17.7335 42.0297 18.0184L42.3824 18.3982L42.4299 18.4524C43.1556 19.1849 43.8836 19.9152 44.6139 20.6432C44.6378 20.6694 44.6652 20.6922 44.6953 20.711C44.9462 20.7721 45.1972 20.8399 45.4345 20.9213L45.7601 21.0298H45.8076L46.1399 21.1654L46.4791 21.3146C46.678 21.4006 46.8679 21.4955 47.0488 21.5995C47.1075 21.6271 47.1642 21.6588 47.2183 21.6945L47.4557 21.8369C47.8714 22.0947 48.266 22.385 48.6359 22.7051C48.7648 22.8136 48.8936 22.9357 49.0157 23.051C49.0416 23.07 49.0645 23.0929 49.0835 23.1188L49.2327 23.268C49.382 23.424 49.5244 23.58 49.66 23.7428L49.7007 23.7835C50.223 24.3532 59.7456 33.8826 59.7727 33.8894Z" fill="url(#paint0_linear_653_6768)"/>
<path d="M49.7079 23.8646L49.6672 23.8239C49.5337 23.6578 49.391 23.4993 49.2399 23.3491L49.0907 23.1999C49.0716 23.174 49.0488 23.1511 49.0229 23.1321C48.9008 23.0168 48.7719 22.8947 48.6431 22.7862C48.2744 22.4646 47.8797 22.1742 47.4629 21.918L47.2255 21.7756C47.1713 21.7399 47.1147 21.7082 47.0559 21.6806C46.8705 21.5766 46.6806 21.4817 46.4862 21.3958L46.1471 21.2466L45.8148 21.1109H45.7673L45.4417 21.0024C45.2043 20.921 44.9534 20.8532 44.7024 20.7921C44.4515 20.7311 44.1598 20.6768 43.8817 20.6361C43.4833 19.8816 42.9985 19.1761 42.4371 18.5336L42.3896 18.4793L42.0369 18.0995C41.7675 17.8097 41.4774 17.5399 41.1687 17.2924L40.7007 16.9261C40.3914 16.6774 40.0651 16.4508 39.7241 16.2478C39.3897 16.0395 39.0407 15.8559 38.6796 15.6985L38.2251 15.495L38.0149 15.4136L37.6351 15.278C37.2388 15.135 36.8331 15.0195 36.421 14.9321C36.3319 14.9091 36.2412 14.8932 36.1497 14.8846C35.9866 14.8453 35.8212 14.8159 35.6546 14.7964C35.5982 14.7898 35.5413 14.7898 35.485 14.7964C35.2747 14.7625 35.0713 14.7421 34.861 14.7286H34.8068C34.5558 14.7286 34.3049 14.7286 34.0539 14.7286C32.4942 14.7236 30.9512 15.05 29.527 15.686C28.1029 16.3221 26.8301 17.2534 25.7928 18.4182L25.413 18.2216C25.1602 18.0985 24.8996 17.992 24.633 17.9028C23.9596 17.6776 23.2541 17.5631 22.544 17.5636C21.0998 17.5748 19.6976 18.0504 18.5446 18.92C17.3915 19.7897 16.5489 21.0073 16.1413 22.3928C15.7373 22.3309 15.3292 22.2991 14.9205 22.2978C12.6866 22.2996 10.5439 23.1835 8.95857 24.7574C7.37329 26.3313 6.47382 28.4676 6.45593 30.7014C6.45593 30.9184 6.45593 31.1422 6.45593 31.3796C6.45593 31.4813 6.45593 31.5831 6.45593 31.6916C6.45593 31.8408 6.49663 31.9968 6.52376 32.146C6.55089 32.2952 6.58479 32.458 6.61871 32.6072C6.65262 32.7565 6.68655 32.8785 6.72046 33.0142C6.71754 33.0412 6.71754 33.0685 6.72046 33.0956C6.75437 33.2177 6.79506 33.3397 6.83575 33.4618C7.03821 34.0542 7.30908 34.621 7.64287 35.1507C7.72426 35.2795 7.80565 35.4084 7.89382 35.5373C8.06908 35.7733 8.25701 35.9998 8.45678 36.2155C8.75081 36.5627 9.07541 36.8827 9.42667 37.1718C10.9482 38.4435 12.8697 39.1376 14.8527 39.132H42.471C44.2424 39.1297 45.9767 38.6237 47.4714 37.6729C48.9661 36.7222 50.1596 35.366 50.9126 33.7625C51.6656 32.1591 51.9471 30.3746 51.7242 28.6172C51.5013 26.8598 50.7832 25.2021 49.6536 23.8375L49.7079 23.8646ZM42.5252 37.4771H14.9069C13.9379 37.4899 12.9775 37.2949 12.0902 36.9053C11.2029 36.5156 10.4095 35.9404 9.76323 35.2183C9.11698 34.4962 8.63297 33.644 8.3438 32.7191C8.05464 31.7942 7.96702 30.818 8.08685 29.8564C8.20669 28.8948 8.53119 27.97 9.03851 27.1444C9.54583 26.3187 10.2242 25.6114 11.0279 25.07C11.8316 24.5286 12.742 24.1656 13.6977 24.0057C14.6535 23.8457 15.6324 23.8925 16.5686 24.1427C16.6835 24.1715 16.8031 24.1761 16.9199 24.1563C17.0366 24.1364 17.148 24.0925 17.2469 24.0274C17.3429 23.9602 17.4248 23.8747 17.4876 23.7757C17.5505 23.6768 17.5931 23.5664 17.6131 23.4509C17.7897 22.2715 18.3827 21.1944 19.2846 20.4144C20.1866 19.6343 21.338 19.2029 22.5305 19.1982C23.5824 19.1938 24.6077 19.5292 25.4537 20.1546C25.6319 20.2822 25.8524 20.3366 26.0695 20.3063C26.2866 20.276 26.4838 20.1634 26.6203 19.9918C27.4961 18.8564 28.6215 17.9378 29.9095 17.3074C31.1974 16.6769 32.6132 16.3515 34.0471 16.3564C35.8336 16.3642 37.5814 16.8781 39.0878 17.8384C40.5943 18.7987 41.7979 20.1661 42.5592 21.7824C42.6222 21.9129 42.7176 22.0251 42.8364 22.1082C42.9551 22.1913 43.0932 22.2426 43.2374 22.2571C45.2077 22.4223 47.0371 23.3452 48.3409 24.8317C49.6446 26.3181 50.3211 28.2522 50.2279 30.2272C50.1348 32.2022 49.2794 34.0641 47.8415 35.4213C46.4037 36.7785 44.4955 37.5251 42.5185 37.5042L42.5252 37.4771Z" fill="#00CFDD"/>
<path d="M43.2449 22.2299C43.1007 22.2154 42.9626 22.1641 42.8439 22.0809C42.7251 21.9978 42.6297 21.8857 42.5666 21.7552C41.8054 20.1389 40.6018 18.7714 39.0953 17.8111C37.5889 16.8508 35.8411 16.337 34.0546 16.3292C32.6207 16.3243 31.2048 16.6497 29.9169 17.2801C28.629 17.9106 27.5035 18.8291 26.6278 19.9646C26.4913 20.1362 26.2941 20.2487 26.077 20.279C25.8599 20.3093 25.6394 20.255 25.4612 20.1273C24.6152 19.502 23.5899 19.1666 22.5379 19.171C21.3454 19.1757 20.1941 19.6071 19.2921 20.3871C18.3901 21.1672 17.7972 22.2443 17.6206 23.4236C17.6006 23.5391 17.5579 23.6496 17.4951 23.7485C17.4322 23.8474 17.3504 23.933 17.2544 24.0002C17.1555 24.0653 17.0441 24.1092 16.9274 24.1291C16.8106 24.1489 16.691 24.1443 16.5761 24.1154C15.641 23.8693 14.6641 23.8259 13.7109 23.9882C12.7576 24.1505 11.8501 24.5147 11.0492 25.0565C10.2483 25.5982 9.57243 26.305 9.06702 27.1293C8.56161 27.9537 8.23829 28.8766 8.11878 29.8361C7.99926 30.7957 8.0863 31.7696 8.37405 32.6928C8.6618 33.6159 9.14362 34.4669 9.78718 35.1886C10.4307 35.9103 11.2212 36.486 12.1055 36.8772C12.9898 37.2683 13.9475 37.4659 14.9144 37.4566H42.5327C44.5098 37.4776 46.4179 36.7309 47.8558 35.3737C49.2936 34.0166 50.1491 32.1547 50.2422 30.1797C50.3353 28.2047 49.6589 26.2705 48.3551 24.7841C47.0514 23.2976 45.2219 22.3748 43.2517 22.2096L43.2449 22.2299Z" fill="white"/>
<path d="M27.9699 28.8909H27.1153C27.0524 28.6547 26.9613 28.427 26.844 28.2126L27.4408 27.609C27.5025 27.5467 27.5371 27.4627 27.5371 27.375C27.5371 27.2874 27.5025 27.2033 27.4408 27.141L26.6066 26.3C26.5432 26.2378 26.4579 26.203 26.3692 26.203C26.2804 26.203 26.1952 26.2378 26.1318 26.3L25.5349 26.9036C25.3214 26.7828 25.0935 26.6894 24.8567 26.6255V25.7709C24.8567 25.7276 24.8481 25.6847 24.8313 25.6448C24.8145 25.6048 24.7899 25.5686 24.759 25.5383C24.728 25.508 24.6913 25.4841 24.651 25.4682C24.6107 25.4522 24.5677 25.4445 24.5244 25.4454H23.3442C23.3012 25.4445 23.2584 25.4522 23.2185 25.4683C23.1786 25.4843 23.1423 25.5083 23.1119 25.5387C23.0815 25.5691 23.0576 25.6054 23.0415 25.6453C23.0255 25.6852 23.0177 25.7279 23.0186 25.7709V26.6255C22.7818 26.6894 22.5539 26.7828 22.3404 26.9036L21.7367 26.3C21.6745 26.2383 21.5904 26.2036 21.5027 26.2036C21.4151 26.2036 21.331 26.2383 21.2687 26.3L20.4345 27.141C20.4022 27.1709 20.3765 27.207 20.3589 27.2473C20.3413 27.2876 20.3322 27.3311 20.3322 27.375C20.3322 27.419 20.3413 27.4624 20.3589 27.5027C20.3765 27.543 20.4022 27.5791 20.4345 27.609L21.0314 28.2126C20.914 28.427 20.8229 28.6547 20.7601 28.8909H19.9055C19.8618 28.8909 19.8186 28.8995 19.7783 28.9162C19.738 28.9329 19.7013 28.9574 19.6705 28.9882C19.6396 29.0191 19.6151 29.0557 19.5984 29.096C19.5817 29.1364 19.5731 29.1796 19.5731 29.2232V30.4102C19.5731 30.4538 19.5817 30.497 19.5984 30.5373C19.6151 30.5777 19.6396 30.6143 19.6705 30.6452C19.7013 30.676 19.738 30.7005 19.7783 30.7172C19.8186 30.7339 19.8618 30.7425 19.9055 30.7425H20.7533C20.824 30.977 20.9171 31.2041 21.0314 31.4208L20.4345 32.0244C20.4022 32.0542 20.3765 32.0904 20.3589 32.1307C20.3413 32.171 20.3322 32.2144 20.3322 32.2584C20.3322 32.3023 20.3413 32.3458 20.3589 32.3861C20.3765 32.4263 20.4022 32.4625 20.4345 32.4924L21.2687 33.3334C21.331 33.3951 21.4151 33.4298 21.5027 33.4298C21.5904 33.4298 21.6745 33.3951 21.7367 33.3334L22.3404 32.7298C22.5553 32.8477 22.7828 32.941 23.0186 33.0079V33.8557C23.0177 33.899 23.0255 33.9421 23.0414 33.9824C23.0574 34.0226 23.0812 34.0593 23.1116 34.0903C23.1419 34.1212 23.1781 34.1458 23.218 34.1626C23.258 34.1794 23.3009 34.188 23.3442 34.188H24.5311C24.6193 34.188 24.7038 34.153 24.7661 34.0907C24.8285 34.0283 24.8635 33.9438 24.8635 33.8557V33.0079C25.0989 32.9397 25.3262 32.8465 25.5417 32.7298L26.1454 33.3334C26.2088 33.3955 26.294 33.4304 26.3828 33.4304C26.4715 33.4304 26.5567 33.3955 26.6201 33.3334L27.4544 32.4924C27.5161 32.4301 27.5507 32.346 27.5507 32.2584C27.5507 32.1707 27.5161 32.0866 27.4544 32.0244L26.8575 31.4208C26.9725 31.2053 27.0635 30.9778 27.1288 30.7425H27.9834C28.0716 30.7425 28.1561 30.7075 28.2184 30.6452C28.2807 30.5828 28.3158 30.4983 28.3158 30.4102V29.2232C28.3158 29.1784 28.3068 29.1341 28.2892 29.0928C28.2717 29.0516 28.246 29.0143 28.2137 28.9833C28.1814 28.9523 28.1431 28.9281 28.1012 28.9122C28.0593 28.8963 28.0146 28.8891 27.9699 28.8909ZM23.941 31.8141C23.545 31.8155 23.1575 31.6993 22.8276 31.4802C22.4977 31.2612 22.2402 30.9492 22.0877 30.5837C21.9352 30.2182 21.8946 29.8157 21.971 29.4271C22.0475 29.0386 22.2375 28.6814 22.5171 28.4009C22.7966 28.1204 23.1531 27.9292 23.5414 27.8514C23.9297 27.7737 24.3324 27.8129 24.6984 27.9641C25.0644 28.1154 25.3773 28.3718 25.5974 28.701C25.8176 29.0302 25.9351 29.4173 25.9351 29.8133C25.9299 30.3424 25.7188 30.8488 25.3465 31.2248C24.9742 31.6009 24.4701 31.8171 23.941 31.8277V31.8141Z" fill="#FA7A49"/>
<path d="M38.2857 23.2545H37.1869C37.0943 22.9471 36.9716 22.6495 36.8207 22.366L37.5939 21.5861C37.6747 21.5037 37.7199 21.3928 37.7199 21.2774C37.7199 21.162 37.6747 21.0513 37.5939 20.9689L36.4951 19.8701C36.4127 19.7893 36.3019 19.7441 36.1865 19.7441C36.0711 19.7441 35.9603 19.7893 35.8779 19.8701L35.0979 20.6433C34.8145 20.4923 34.5169 20.3696 34.2094 20.277V19.1783C34.2094 19.0631 34.1637 18.9527 34.0823 18.8713C34.0009 18.7899 33.8905 18.7442 33.7753 18.7442H32.2289C32.1714 18.7433 32.1142 18.7539 32.0607 18.7753C32.0073 18.7967 31.9586 18.8285 31.9176 18.8689C31.8766 18.9093 31.844 18.9575 31.8217 19.0106C31.7995 19.0637 31.7881 19.1207 31.7881 19.1783V20.277C31.4795 20.3667 31.1816 20.4895 30.8996 20.6433L30.1263 19.8701C30.0439 19.7893 29.9331 19.7441 29.8178 19.7441C29.7024 19.7441 29.5915 19.7893 29.5091 19.8701L28.4036 20.9689C28.3228 21.0513 28.2776 21.162 28.2776 21.2774C28.2776 21.3928 28.3228 21.5037 28.4036 21.5861L29.1836 22.366C29.0276 22.6479 28.9025 22.9458 28.8105 23.2545H27.7118C27.5967 23.2545 27.4862 23.3003 27.4048 23.3817C27.3234 23.4631 27.2777 23.5735 27.2777 23.6886V25.2486C27.2777 25.3644 27.3232 25.4755 27.4044 25.558C27.4856 25.6404 27.596 25.6877 27.7118 25.6895H28.8105C28.9025 25.9982 29.0276 26.2961 29.1836 26.578L28.4036 27.3512C28.3228 27.4336 28.2776 27.5444 28.2776 27.6598C28.2776 27.7752 28.3228 27.886 28.4036 27.9684L29.5091 29.0739C29.5915 29.1547 29.7024 29.2 29.8178 29.2C29.9331 29.2 30.0439 29.1547 30.1263 29.0739L30.8996 28.2939C31.1814 28.4499 31.4793 28.575 31.7881 28.667V29.7657C31.7898 29.8815 31.8371 29.9919 31.9196 30.0731C32.002 30.1543 32.1132 30.1998 32.2289 30.1998H33.7889C33.904 30.1998 34.0144 30.1541 34.0958 30.0727C34.1773 29.9913 34.223 29.8809 34.223 29.7657V28.667C34.5317 28.575 34.8296 28.4499 35.1115 28.2939L35.8915 29.0739C35.9739 29.1547 36.0847 29.2 36.2001 29.2C36.3155 29.2 36.4263 29.1547 36.5087 29.0739L37.6074 27.9684C37.6882 27.886 37.7335 27.7752 37.7335 27.6598C37.7335 27.5444 37.6882 27.4336 37.6074 27.3512L36.8342 26.578C36.9852 26.2945 37.1079 25.9969 37.2005 25.6895H38.2993C38.3568 25.6895 38.4138 25.678 38.4669 25.6558C38.5201 25.6335 38.5682 25.601 38.6086 25.5599C38.649 25.5189 38.6809 25.4702 38.7023 25.4168C38.7237 25.3633 38.7342 25.3062 38.7333 25.2486V23.6886C38.7334 23.6305 38.7217 23.5729 38.699 23.5193C38.6764 23.4658 38.6432 23.4173 38.6014 23.3768C38.5597 23.3363 38.5102 23.3046 38.456 23.2836C38.4017 23.2626 38.3438 23.2527 38.2857 23.2545ZM32.9886 27.1002C32.4681 27.1002 31.9593 26.9459 31.5265 26.6567C31.0938 26.3676 30.7564 25.9566 30.5573 25.4757C30.3581 24.9948 30.306 24.4657 30.4075 23.9552C30.5091 23.4447 30.7597 22.9758 31.1277 22.6078C31.4958 22.2397 31.9647 21.9891 32.4752 21.8876C32.9856 21.786 33.5148 21.8381 33.9956 22.0373C34.4765 22.2365 34.8875 22.5738 35.1767 23.0066C35.4658 23.4393 35.6202 23.9481 35.6202 24.4686C35.6202 25.1666 35.3429 25.8359 34.8494 26.3294C34.3559 26.823 33.6865 27.1002 32.9886 27.1002Z" fill="#F3C144"/>
<path d="M33.7092 33.638L33.1463 33.4074C33.1632 33.236 33.1632 33.0633 33.1463 32.8919L33.7092 32.6545C33.7383 32.6426 33.7647 32.6251 33.7869 32.603C33.8092 32.5808 33.8268 32.5544 33.8388 32.5254C33.8508 32.4964 33.8569 32.4653 33.8568 32.4339C33.8566 32.4025 33.8503 32.3715 33.8381 32.3425L33.5057 31.5626C33.4805 31.5051 33.4334 31.46 33.375 31.4371C33.3165 31.4142 33.2513 31.4154 33.1938 31.4405L32.6376 31.6711C32.5293 31.5379 32.4065 31.4173 32.2713 31.3116L32.5019 30.7486C32.514 30.7202 32.5203 30.6896 32.5203 30.6587C32.5203 30.6278 32.5142 30.5972 32.5022 30.5688C32.4901 30.5403 32.4725 30.5145 32.4503 30.493C32.4282 30.4715 32.4019 30.4546 32.3731 30.4434L31.5524 30.1111C31.4939 30.0889 31.429 30.0908 31.3719 30.1162C31.3147 30.1416 31.2699 30.1885 31.2472 30.2468L31.0166 30.8029C30.8452 30.786 30.6725 30.786 30.5011 30.8029L30.2705 30.24C30.2587 30.2109 30.2411 30.1846 30.2188 30.1625C30.1965 30.1405 30.17 30.1232 30.1408 30.1118C30.1116 30.1003 30.0804 30.095 30.049 30.096C30.0177 30.0971 29.9869 30.1045 29.9585 30.1179L29.1785 30.4434C29.1215 30.4675 29.0761 30.5128 29.052 30.5699C29.028 30.6269 29.0271 30.691 29.0496 30.7486L29.287 31.3116C29.1522 31.418 29.0315 31.5411 28.9276 31.6778L28.3646 31.4472C28.306 31.4244 28.2409 31.4251 28.1828 31.4491C28.1247 31.4731 28.078 31.5186 28.0526 31.5761L27.7338 32.3629C27.7113 32.4205 27.7121 32.4847 27.7362 32.5417C27.7603 32.5987 27.8057 32.6441 27.8627 32.6681L28.4257 32.8987C28.4053 33.0699 28.4053 33.243 28.4257 33.4142L27.8695 33.6448C27.812 33.6702 27.7665 33.7168 27.7425 33.7749C27.7185 33.833 27.7178 33.8982 27.7406 33.9568L28.0662 34.7368C28.0916 34.7943 28.1382 34.8398 28.1963 34.8638C28.2544 34.8878 28.3196 34.8885 28.3782 34.8656L28.9344 34.6282C29.0443 34.7598 29.167 34.8802 29.3006 34.9877L29.07 35.5507C29.0488 35.6094 29.0503 35.6739 29.0741 35.7316C29.098 35.7893 29.1424 35.836 29.1989 35.8627L29.9856 36.1814C30.0442 36.2043 30.1094 36.2036 30.1675 36.1796C30.2256 36.1556 30.2722 36.1101 30.2976 36.0526L30.5215 35.4896C30.6927 35.51 30.8657 35.51 31.0369 35.4896L31.2743 36.0458C31.2983 36.1028 31.3437 36.1482 31.4007 36.1723C31.4577 36.1963 31.5219 36.1972 31.5795 36.1746L32.3663 35.8491C32.4238 35.8238 32.4689 35.7768 32.4917 35.7183C32.5146 35.6598 32.5134 35.5947 32.4884 35.5371L32.2578 34.9809C32.3877 34.8692 32.5079 34.7467 32.6172 34.6147L33.1802 34.8453C33.2387 34.8674 33.3035 34.8656 33.3607 34.8402C33.4178 34.8148 33.4627 34.7679 33.4854 34.7096L33.8042 33.9296C33.8269 33.8778 33.8297 33.8195 33.8122 33.7657C33.7947 33.712 33.758 33.6665 33.7092 33.638ZM31.3489 34.4723C31.0893 34.5817 30.8031 34.6116 30.5264 34.5583C30.2498 34.505 29.9952 34.3709 29.7948 34.1729C29.5943 33.9749 29.4572 33.7219 29.4005 33.4459C29.3439 33.1699 29.3704 32.8834 29.4767 32.6225C29.583 32.3616 29.7642 32.138 29.9975 31.9801C30.2309 31.8222 30.5058 31.737 30.7875 31.7354C31.0692 31.7337 31.3451 31.8157 31.5802 31.9708C31.8154 32.126 31.9992 32.3474 32.1086 32.6071C32.2511 32.9545 32.2514 33.3441 32.1093 33.6918C31.9672 34.0395 31.6941 34.3174 31.3489 34.4655V34.4723Z" fill="#00CFDD"/>
<defs>
<linearGradient id="paint0_linear_653_6768" x1="16.4733" y1="20.2566" x2="51.6202" y2="51.2458" gradientUnits="userSpaceOnUse">
<stop stop-color="#676767"/>
<stop offset="0.96" stop-color="white"/>
</linearGradient>
</defs>
</svg>
