<svg width="60" height="61" viewBox="0 0 60 61" fill="none" xmlns="http://www.w3.org/2000/svg">
<path d="M59.9992 30.5204C59.9992 31.0358 59.9992 31.5513 59.9585 32.06C59.5685 39.601 56.3491 46.7176 50.9429 51.9893C45.5366 57.261 38.3412 60.3001 30.7928 60.5H30.006C24.1587 60.5012 18.4385 58.7935 13.5488 55.587C8.65912 52.3805 4.81305 47.815 2.48354 42.4517C0.154036 37.0885 -0.557362 31.1614 0.436824 25.3993C1.43101 19.6371 4.08744 14.2911 8.07948 10.0185C12.0715 5.74602 17.2251 2.73324 22.9066 1.35067C28.5881 -0.0319048 34.5498 0.276004 40.0586 2.23652C45.5675 4.19704 50.3833 7.72471 53.9139 12.3858C57.4446 17.0468 59.5361 22.638 59.9314 28.472C59.9721 29.1638 59.9992 29.8353 59.9992 30.5204Z" fill="#005B83"/>
<path style="mix-blend-mode:multiply" opacity="0.4" d="M59.9605 32.0599C59.5704 39.6008 56.351 46.7174 50.9448 51.9891C45.5385 57.2608 38.3431 60.2999 30.7947 60.4998L8.31677 38.0219L13.743 34.8747L17.5888 36.6721C17.2632 36.3873 12.6306 31.7614 12.2982 31.3612C11.9662 31.0892 11.6577 30.7897 11.3758 30.4659C11.2944 30.3777 11.2198 30.2828 11.1452 30.1878C10.6137 29.5206 10.1987 28.7684 9.9175 27.9631C9.8768 27.8546 9.84289 27.7325 9.80898 27.6172C9.77507 27.5019 9.74793 27.3934 9.7208 27.2781C9.69403 27.1915 9.67363 27.1031 9.65976 27.0135C9.65976 26.8914 9.61228 26.7626 9.59193 26.6405C9.57158 26.5184 9.59192 26.3895 9.54444 26.2606C9.49697 26.1318 9.54444 26.0436 9.54444 25.9283C9.54444 25.813 9.54444 25.6366 9.54444 25.4874C9.54266 24.4928 9.73691 23.5076 10.1161 22.5881C10.4953 21.6686 11.052 20.8328 11.7543 20.1286C12.4567 19.4243 13.2909 18.8654 14.2094 18.4838C15.1279 18.1021 16.1126 17.9052 17.1072 17.9043C17.3882 17.9034 17.6691 17.9193 17.9483 17.9518C18.2464 17.0602 18.7506 16.2515 19.4201 15.5914C19.6321 15.3749 19.8587 15.1732 20.0984 14.9877C20.9949 14.3308 22.0563 13.936 23.1642 13.8474C24.2721 13.7587 25.3829 13.9798 26.3724 14.4858L26.7319 14.1263C28.5564 12.3781 30.9877 11.4055 33.5146 11.4132C33.709 11.4132 33.9057 11.4132 34.1047 11.4132C34.1927 11.4065 34.2812 11.4065 34.3692 11.4132C34.5184 11.4132 34.6609 11.4133 34.8101 11.4607H34.8915C35.0543 11.4607 35.2171 11.4879 35.3799 11.5421C35.4444 11.5492 35.508 11.5628 35.5698 11.5828C35.6957 11.605 35.8203 11.6345 35.9428 11.671L36.2074 11.7388C36.3973 11.7931 36.5872 11.8541 36.7703 11.922L37.2994 12.1254L37.4622 12.2C37.6317 12.2679 37.8013 12.3493 37.9709 12.4374C38.1404 12.5256 38.31 12.6138 38.4728 12.7088C38.7323 12.8603 38.9836 13.0256 39.2257 13.2039C39.3498 13.286 39.4698 13.3743 39.5851 13.4684L39.9379 13.7601C40.0527 13.8524 40.1615 13.9521 40.2634 14.0585C40.3787 14.1603 40.494 14.2688 40.6026 14.3841L41.0299 14.8521C41.4205 15.1885 41.7855 15.5535 42.1219 15.9441C42.3796 16.1679 42.6238 16.3986 42.8544 16.6224C43.0715 16.6766 43.2885 16.7377 43.4988 16.8123C43.7087 16.8802 43.9147 16.9595 44.116 17.0497C44.2856 17.1175 44.4551 17.1989 44.6179 17.2803L44.7807 17.3685C44.9164 17.4431 45.052 17.5177 45.1809 17.5991L45.3505 17.7076C45.5065 17.8094 45.6625 17.9111 45.8117 18.0264C45.9609 18.1417 46.1101 18.257 46.2593 18.3927C46.3107 18.4233 46.3565 18.4623 46.395 18.508C46.5307 18.6233 46.6528 18.7522 46.7748 18.8742C46.8969 18.9963 47.0733 19.1931 47.2089 19.3558C47.6038 19.6829 47.9671 20.0462 48.2942 20.4411C48.5248 20.6174 53.7746 25.8808 59.9605 32.0599Z" fill="url(#paint0_linear_653_6784)"/>
<path d="M47.2754 19.4309C47.1415 19.2609 46.9965 19.1 46.8413 18.9493C46.7192 18.8272 46.5971 18.6983 46.4615 18.583C46.423 18.5373 46.3771 18.4983 46.3258 18.4677C46.1766 18.332 46.0274 18.2168 45.8781 18.1015C45.7289 17.9861 45.5729 17.8844 45.4169 17.7827L45.2473 17.6741C45.1185 17.5927 44.9828 17.5181 44.8472 17.4435L44.6844 17.3553C44.5216 17.274 44.352 17.1926 44.1825 17.1247C43.9812 17.0345 43.7751 16.9553 43.5652 16.8873C43.355 16.8127 43.1379 16.7517 42.9209 16.6974C42.7038 16.6432 42.4596 16.5957 42.2426 16.555C41.9242 15.9688 41.5469 15.4165 41.1167 14.9068L40.6894 14.4388C40.5808 14.3235 40.4655 14.2149 40.3502 14.1132C40.2483 14.0068 40.1395 13.9071 40.0246 13.8148L39.6719 13.5231C39.5566 13.429 39.4366 13.3407 39.3125 13.2586C39.0704 13.0803 38.8191 12.915 38.5596 12.7634C38.3968 12.6685 38.2272 12.5735 38.0577 12.4921C37.8881 12.4107 37.7185 12.3226 37.549 12.2547L37.3862 12.1801L36.8571 11.9766C36.674 11.9088 36.4841 11.8478 36.2941 11.7935L36.0296 11.7257C35.9071 11.6891 35.7825 11.6597 35.6566 11.6375C35.5948 11.6175 35.5312 11.6038 35.4666 11.5968C35.3039 11.5606 35.1411 11.5335 34.9783 11.5154H34.8969C34.7477 11.5154 34.6052 11.4747 34.456 11.4679C34.368 11.4612 34.2795 11.4612 34.1915 11.4679C33.9971 11.4679 33.8004 11.4679 33.6014 11.4679C31.0745 11.4602 28.6431 12.4328 26.8187 14.181L26.4592 14.5405C25.4696 14.0345 24.3589 13.8134 23.251 13.9021C22.1431 13.9907 21.0817 14.3855 20.1852 15.0424C19.9455 15.2279 19.7189 15.4296 19.5069 15.6461C18.8374 16.3062 18.3331 17.1149 18.035 18.0065C17.7537 17.9717 17.4706 17.9536 17.1872 17.9522C15.1796 17.9558 13.2553 18.7554 11.8363 20.1757C10.4173 21.5959 9.61947 23.5209 9.61768 25.5285C9.61768 25.6777 9.61768 25.8202 9.61768 25.9694C9.61768 26.1186 9.61768 26.1932 9.61768 26.3018C9.61768 26.4103 9.61768 26.5527 9.66516 26.6816C9.71264 26.8105 9.70586 26.9325 9.73299 27.0546C9.74686 27.1442 9.76726 27.2326 9.79403 27.3192C9.79403 27.4345 9.84829 27.5498 9.8822 27.6583C9.91612 27.7668 9.95003 27.8957 9.99073 28.0042C10.2719 28.8096 10.687 29.5617 11.2184 30.229C11.293 30.3239 11.3676 30.4189 11.449 30.507C11.7309 30.8308 12.0395 31.1303 12.3715 31.4024C13.7136 32.494 15.3894 33.0925 17.1194 33.098H40.8589C42.4378 33.0974 43.9839 32.6476 45.3168 31.8012C46.6496 30.9548 47.7142 29.7468 48.3863 28.318C49.0583 26.8893 49.3101 25.2989 49.1122 23.7325C48.9143 22.1661 48.2749 20.6882 47.2686 19.4716L47.2754 19.4309ZM40.8657 31.0225H17.1262C15.6909 30.9723 14.3312 30.3668 13.3336 29.3337C12.3361 28.3006 11.7785 26.9206 11.7785 25.4844C11.7785 24.0483 12.3361 22.6683 13.3336 21.6352C14.3312 20.6021 15.6909 19.9966 17.1262 19.9464C17.5838 19.9495 18.0394 20.0087 18.4827 20.1227C18.6208 20.1574 18.7646 20.1627 18.9049 20.1383C19.0452 20.1139 19.1788 20.0603 19.297 19.9811C19.4153 19.9018 19.5156 19.7986 19.5915 19.6781C19.6674 19.5576 19.7171 19.4226 19.7375 19.2816C19.8844 18.3391 20.3625 17.4799 21.0861 16.8582C21.8097 16.2366 22.7312 15.8934 23.6851 15.8903C24.529 15.8892 25.3512 16.1578 26.0319 16.6567C26.2455 16.813 26.5117 16.8799 26.7738 16.8432C27.0359 16.8065 27.2734 16.669 27.4359 16.46C28.2549 15.4133 29.3275 14.593 30.5522 14.0769C31.7769 13.5607 33.1131 13.3657 34.4342 13.5104C35.7554 13.655 37.0177 14.1346 38.1016 14.9036C39.1856 15.6726 40.0553 16.7056 40.6283 17.9047C40.7033 18.0657 40.8192 18.2043 40.9643 18.3066C41.1095 18.409 41.279 18.4715 41.4558 18.4881C43.0516 18.6539 44.5235 19.4241 45.5694 20.6407C46.6153 21.8574 47.156 23.4281 47.0805 25.0307C47.005 26.6334 46.3191 28.1464 45.1634 29.2593C44.0078 30.3722 42.47 31.0007 40.8657 31.0157V31.0225Z" fill="#00CFDD"/>
<path d="M26.4128 39.1611L29.56 44.6212L32.714 39.1611H26.4128Z" fill="#FA7A49"/>
<path d="M29.5605 43.2513C29.2007 43.2513 28.8557 43.1083 28.6013 42.8539C28.3469 42.5995 28.204 42.2545 28.204 41.8947V20.8683C28.204 20.5085 28.3469 20.1634 28.6013 19.909C28.8557 19.6546 29.2007 19.5117 29.5605 19.5117C29.9203 19.5117 30.2653 19.6546 30.5197 19.909C30.7741 20.1634 30.9171 20.5085 30.9171 20.8683V41.8947C30.9171 42.2545 30.7741 42.5995 30.5197 42.8539C30.2653 43.1083 29.9203 43.2513 29.5605 43.2513Z" fill="#FA7A49"/>
<path d="M21.4271 22.2588C21.0674 22.2588 20.7223 22.4017 20.4679 22.6561C20.2135 22.9105 20.0706 23.2556 20.0706 23.6153V36.6721H13.7694V34.8611L8.34326 38.015L13.7694 41.1622V39.3716H21.4271C21.7869 39.3716 22.132 39.2287 22.3864 38.9743C22.6408 38.7199 22.7837 38.3748 22.7837 38.015V23.6153C22.7837 23.2556 22.6408 22.9105 22.3864 22.6561C22.132 22.4017 21.7869 22.2588 21.4271 22.2588Z" fill="white"/>
<path d="M46.8957 36.6719H38.9599V25.7042H40.7912L37.6305 20.2441L34.4833 25.7042H36.2807V38.0285C36.2807 38.3882 36.4236 38.7333 36.678 38.9877C36.9324 39.2421 37.2775 39.385 37.6373 39.385H46.8957C47.2554 39.385 47.6005 39.2421 47.8549 38.9877C48.1093 38.7333 48.2522 38.3882 48.2522 38.0285C48.2522 37.6687 48.1093 37.3236 47.8549 37.0692C47.6005 36.8148 47.2554 36.6719 46.8957 36.6719Z" fill="#F3C144"/>
<defs>
<linearGradient id="paint0_linear_653_6784" x1="14.2042" y1="18.0128" x2="49.5083" y2="49.1388" gradientUnits="userSpaceOnUse">
<stop stop-color="#676767"/>
<stop offset="0.96" stop-color="white"/>
</linearGradient>
</defs>
</svg>
