<svg width="61" height="60" viewBox="0 0 61 60" fill="none" xmlns="http://www.w3.org/2000/svg">
<path d="M60.0213 30.0068C60.0266 33.0787 59.5576 36.1329 58.6309 39.0617C58.1943 40.4583 57.6501 41.8189 57.003 43.1313C54.821 47.6113 51.5579 51.4775 47.5081 54.381C43.4583 57.2845 38.7493 59.134 33.8061 59.7626C33.2092 59.8372 32.6123 59.8983 32.0087 59.9322C31.405 59.9661 30.6928 60 30.0281 60C24.2114 60.0054 18.5186 58.3198 13.6426 55.1483C8.76666 51.9768 4.91783 47.4562 2.56465 42.1367C0.211463 36.8173 -0.544564 30.9285 0.388586 25.1872C1.32174 19.4459 3.90382 14.0996 7.82052 9.79926C11.7372 5.4989 16.8196 2.42989 22.449 0.965839C28.0784 -0.498216 34.0121 -0.294175 39.5276 1.55312C45.0431 3.40041 49.9027 6.81129 53.5148 11.3705C57.1268 15.9298 59.3356 21.4408 59.8721 27.2326C59.9806 28.1483 60.0213 29.0708 60.0213 30.0068Z" fill="#FA7A49"/>
<path style="mix-blend-mode:multiply" opacity="0.4" d="M60.0207 30.0072C60.026 33.079 59.557 36.1333 58.6303 39.0621C58.1937 40.4587 57.6494 41.8193 57.0024 43.1317C54.8204 47.6117 51.5573 51.4778 47.5075 54.3814C43.4577 57.2849 38.7487 59.1344 33.8055 59.763C33.2086 59.8376 32.6117 59.8986 32.0081 59.9326C22.9192 50.8641 11.9312 39.8421 11.2936 39.1299C11.1783 39.0485 11.0698 38.9604 10.9613 38.8722L10.6696 38.6077C10.5814 38.5195 10.5 38.4245 10.4186 38.3296C10.3426 38.2391 10.2724 38.144 10.2084 38.0447C10.0864 37.8622 9.99056 37.6636 9.9235 37.4546C9.8913 37.3622 9.86857 37.2667 9.85567 37.1697C9.85149 37.1588 9.85149 37.1467 9.85567 37.1358C9.84564 37.0388 9.84564 36.9411 9.85567 36.8442V33.29C9.87145 32.6839 10.1134 32.1057 10.5339 31.6689C10.1123 31.2329 9.87013 30.6542 9.85567 30.0478V26.4937C9.87145 25.8876 10.1134 25.3094 10.5339 24.8726C10.1134 24.4359 9.87145 23.8576 9.85567 23.2516V19.7042C9.88391 19.048 10.1689 18.4293 10.6493 17.9814C12.1821 16.3942 15.7906 15.2683 19.9958 15.2683C20.6741 15.2683 21.3524 15.3022 22.0307 15.3632L22.8514 15.4514L23.0888 15.4854L23.9366 15.621L24.3843 15.7092C24.6759 15.7702 24.9608 15.838 25.2321 15.9126C25.5034 15.9873 25.7951 16.0687 26.0596 16.1568C26.3241 16.245 26.548 16.3196 26.7786 16.4078C27.4169 16.6534 28.0246 16.972 28.5896 17.3574L28.793 17.5066L28.9898 17.6626C29.1663 17.8133 29.3318 17.9765 29.4849 18.151C29.5773 18.2613 29.6633 18.3768 29.7426 18.4969C30.1437 18.787 30.4885 19.1479 30.76 19.5618L31.1195 19.8399V19.6703C31.1478 19.0141 31.4328 18.3954 31.9131 17.9475C33.446 16.3603 37.0544 15.2344 41.2597 15.2344C41.938 15.2344 42.6162 15.2683 43.2945 15.3293L44.1152 15.4175L44.3526 15.4514L45.2005 15.5871L45.6481 15.6753C45.9127 15.7295 46.1636 15.7906 46.4078 15.8516C46.652 15.9127 47.0318 16.028 47.3235 16.1229L47.7033 16.2518C48.1076 16.3923 48.5018 16.56 48.8835 16.7537L49.148 16.8894L49.3922 17.0318C49.4864 17.0795 49.5771 17.1339 49.6635 17.1946C49.7991 17.2896 49.9348 17.3777 50.0569 17.4727L50.2536 17.6287C50.4285 17.7811 50.5939 17.9442 50.7487 18.117C50.8411 18.2274 50.9272 18.3429 51.0065 18.463C51.3592 18.7682 55.0761 22.4309 59.824 27.2059C59.98 28.1487 60.0207 29.0711 60.0207 30.0072Z" fill="url(#paint0_linear_653_6797)"/>
<path d="M29.4047 26.5335C29.4047 25.1769 27.5666 23.9832 24.8196 23.3252C27.5666 22.647 29.4047 21.4735 29.4047 20.1102C29.4047 18.0347 25.1723 16.3594 19.9428 16.3594C14.7133 16.3594 10.447 18.0347 10.447 20.1102C10.447 21.4668 12.2851 22.6673 15.0321 23.3252C12.2851 24.0035 10.447 25.1701 10.447 26.5335C10.447 27.8968 12.3733 29.1448 15.1949 29.7892C12.3394 30.4675 10.447 31.6544 10.447 33.0517C10.447 35.1272 14.6862 36.8025 19.9428 36.8025C25.1994 36.8025 29.4386 35.1272 29.4386 33.0517C29.4386 31.6544 27.5124 30.4403 24.6907 29.796C27.4852 29.1516 29.4047 27.9307 29.4047 26.5335Z" fill="white"/>
<path d="M29.7032 18.4824C29.6254 18.3535 29.5345 18.2331 29.4319 18.1229C29.284 17.9436 29.1181 17.78 28.9368 17.6346L28.74 17.4786L28.5366 17.3294C27.9716 16.944 27.3639 16.6253 26.7256 16.3798C26.495 16.2916 26.2576 16.2102 26.0066 16.1288C25.7556 16.0474 25.464 15.9593 25.1791 15.8846C24.8942 15.81 24.6229 15.7422 24.3313 15.6812L23.8836 15.593L23.0358 15.4573L22.7984 15.4234L21.9777 15.3352C21.2994 15.281 20.6211 15.2471 19.9429 15.2471C15.7376 15.2471 12.1359 16.3594 10.5963 17.9602C10.1159 18.4081 9.83093 19.0268 9.80269 19.683V23.2303C9.81847 23.8364 10.0604 24.4147 10.481 24.8514C10.0604 25.2881 9.81847 25.8664 9.80269 26.4725V30.0266C9.81715 30.633 10.0593 31.2117 10.481 31.6477C10.0604 32.0844 9.81847 32.6627 9.80269 33.2688V36.8229C9.79266 36.9199 9.79266 37.0176 9.80269 37.1146C9.79851 37.1255 9.79851 37.1376 9.80269 37.1485C9.81559 37.2455 9.83831 37.3409 9.87051 37.4334C9.93476 37.6435 10.0308 37.8425 10.1554 38.0235C10.2194 38.1228 10.2896 38.2179 10.3656 38.3083C10.447 38.4033 10.5284 38.4983 10.6166 38.5864L10.9083 38.851C11.0168 38.9527 11.1389 39.0409 11.261 39.1358C12.9363 40.316 15.8529 41.1299 19.2239 41.2249C19.4477 41.2249 19.6715 41.2249 19.9022 41.2249H20.3023H20.9806C22.0007 41.1764 23.0161 41.0562 24.0193 40.8654C27.5802 40.1871 30.0559 38.6203 30.0559 36.7958V33.2416C30.0401 32.6356 29.7982 32.0573 29.3776 31.6206C29.7993 31.1846 30.0414 30.6059 30.0559 29.9995V26.4453C30.0401 25.8393 29.7982 25.261 29.3776 24.8243C29.7101 24.4889 29.9447 24.0691 30.0559 23.6102C30.0624 23.5561 30.0624 23.5014 30.0559 23.4474C30.0626 23.3661 30.0626 23.2845 30.0559 23.2032V19.6558C30.0538 19.2389 29.9314 18.8314 29.7032 18.4824ZM24.0803 35.9818C23.6191 36.0836 23.1375 36.1718 22.622 36.2328C21.7336 36.3475 20.8386 36.4041 19.9429 36.4024H19.2646C14.3132 36.2532 11.0778 34.4693 11.0778 33.2688C11.0821 33.1278 11.1218 32.9902 11.1931 32.8686C11.2701 32.7198 11.3709 32.5846 11.4916 32.4684C13.194 33.5876 16.0157 34.3472 19.2646 34.4422H20.1803H21.0077C22.021 34.4009 23.0298 34.2853 24.0261 34.0963C25.5711 33.8434 27.0537 33.2978 28.3941 32.4888C28.4916 32.5783 28.576 32.6811 28.6451 32.794C28.7455 32.9401 28.802 33.1119 28.8079 33.2891C28.8079 33.7232 28.3941 34.2251 27.6412 34.6999C26.5358 35.3265 25.3315 35.76 24.0803 35.9818ZM11.1931 19.2624C11.8239 18.0483 15.161 16.5493 19.9429 16.5493C24.6026 16.5493 27.899 18.0008 28.6451 19.2014C28.7462 19.3472 28.8027 19.5192 28.8079 19.6965C28.8079 20.5851 26.9969 21.8127 24.0125 22.4096C21.3255 22.9424 18.5602 22.9424 15.8732 22.4096C12.8888 21.7856 11.0846 20.5579 11.0846 19.6965C11.0856 19.5547 11.1204 19.4152 11.1864 19.2896L11.1931 19.2624ZM11.1931 26.0452C11.2701 25.8964 11.3709 25.7612 11.4916 25.645C13.194 26.7641 16.0157 27.5238 19.2646 27.6188H20.0175C20.3498 27.6188 20.6957 27.6188 21.0077 27.6188C24.0939 27.4831 26.7663 26.737 28.3941 25.6653C28.4919 25.7572 28.5763 25.8622 28.6451 25.9773C28.7453 26.121 28.8018 26.2906 28.8079 26.4657C28.7938 26.6974 28.7059 26.9185 28.5569 27.0965L28.4484 27.2186C28.3693 27.3089 28.2831 27.3928 28.1906 27.4695C27.9471 27.6761 27.6835 27.8579 27.4038 28.0121L27.2004 28.1275L26.9494 28.2563L26.6781 28.3784C26.083 28.6368 25.4684 28.8477 24.84 29.0092L24.5755 29.077L24.1142 29.1856H24.0396C23.7208 29.2534 23.3953 29.3144 23.0494 29.3619L22.622 29.4637C22.4796 29.4637 22.3372 29.4976 22.1879 29.5179H21.9845H21.8759L21.5029 29.5518H21.0688H20.5262H19.2307H18.8034H18.3828L18.003 29.5179H17.6707L17.2501 29.4637L16.8703 29.4094C16.5108 29.3619 16.192 29.3009 15.8393 29.233L15.2967 29.111L15.0322 29.0431C14.4632 28.8956 13.9056 28.7074 13.3636 28.4802L13.0109 28.3242L12.7939 28.2224L12.6514 28.141C12.5385 28.0881 12.4297 28.0269 12.3259 27.9579C12.2231 27.9024 12.1235 27.8413 12.0274 27.7748C11.7784 27.6139 11.5505 27.4225 11.3491 27.205C11.3017 27.144 11.2542 27.0897 11.2135 27.0287C11.0972 26.8709 11.031 26.6819 11.0236 26.486C11.0407 26.3362 11.0968 26.1936 11.1864 26.0723L11.1931 26.0452Z" fill="#00CFDD"/>
<path d="M50.7628 26.5335C50.7628 25.1769 48.9179 23.9832 46.1777 23.3252C48.8908 22.647 50.7628 21.4735 50.7628 20.1102C50.7628 18.0347 46.5236 16.3594 41.267 16.3594C36.0104 16.3594 31.7712 18.0347 31.7712 20.1102C31.7712 21.4668 33.6161 22.6673 36.3563 23.3252C33.6432 24.0035 31.7712 25.1701 31.7712 26.5335C31.7712 27.8968 33.6975 29.1448 36.5191 29.7892C33.6635 30.4675 31.7305 31.6544 31.7305 33.0517C31.7305 35.1272 35.9697 36.8025 41.2263 36.8025C46.4829 36.8025 50.7221 35.1272 50.7221 33.0517C50.7221 31.6544 48.7958 30.4403 45.9742 29.796C48.8297 29.1516 50.7628 27.9307 50.7628 26.5335Z" fill="white"/>
<path d="M51.4211 19.6694C51.4148 19.249 51.2876 18.8393 51.0548 18.4892C50.9731 18.3592 50.88 18.2366 50.7767 18.1229C50.6288 17.9436 50.4629 17.78 50.2816 17.6346L50.0849 17.4786C49.9593 17.3782 49.828 17.2853 49.6915 17.2005C49.605 17.1398 49.5144 17.0854 49.4202 17.0377L49.176 16.8953L48.9115 16.7596C48.5298 16.5659 48.1355 16.3982 47.7313 16.2577L47.3514 16.1288C47.0598 16.0339 46.7545 15.9389 46.4358 15.8575C46.117 15.7761 45.9406 15.7354 45.6761 15.6812L45.2284 15.593L44.3806 15.4573L44.1432 15.4234L43.3225 15.3352C42.6442 15.281 41.9659 15.2471 41.2877 15.2471C37.0892 15.2471 33.4808 16.3594 31.9411 17.9602C31.4608 18.4081 31.1758 19.0268 31.1475 19.683V23.2303C31.137 23.3273 31.137 23.425 31.1475 23.522C31.1437 23.5852 31.1437 23.6487 31.1475 23.7119C31.2759 24.142 31.5089 24.5335 31.8258 24.8514C31.4052 25.2881 31.1633 25.8664 31.1475 26.4725V30.0266C31.162 30.633 31.4041 31.2117 31.8258 31.6477C31.4052 32.0844 31.1633 32.6627 31.1475 33.2688V36.8229C31.1475 38.3829 32.9992 39.7531 35.8072 40.5466C36.5315 40.7469 37.2678 40.9009 38.0116 41.0079L38.5814 41.0825C38.9002 41.1232 39.2189 41.1571 39.5513 41.1774C40.1143 41.2249 40.6976 41.2453 41.2877 41.2453C46.8902 41.2453 51.4279 39.2579 51.4279 36.8229V33.2688C51.4121 32.6627 51.1701 32.0844 50.7496 31.6477C51.1713 31.2117 51.4134 30.633 51.4279 30.0266V26.4725C51.4121 25.8664 51.1701 25.2881 50.7496 24.8514C51.1701 24.4147 51.4121 23.8364 51.4279 23.2303L51.4211 19.6694ZM41.2809 36.4024C40.6772 36.4024 40.1007 36.4024 39.5445 36.3346C38.652 36.2621 37.7657 36.1261 36.8925 35.9276C36.4923 35.8394 36.1125 35.7377 35.7598 35.6292C34.8496 35.3673 33.9898 34.9547 33.2162 34.4083C33.0062 34.2868 32.8255 34.1205 32.6872 33.9212C32.5488 33.7219 32.4562 33.4945 32.4159 33.2552C32.4202 33.1143 32.4598 32.9766 32.5312 32.855C32.6104 32.7077 32.711 32.5728 32.8296 32.4548C33.7534 33.0315 34.7598 33.4638 35.814 33.7368C36.5318 33.9357 37.2612 34.0898 37.9981 34.198L38.7238 34.293C38.9951 34.3269 39.2664 34.3472 39.5445 34.3676C40.1075 34.4151 40.6908 34.4354 41.2809 34.4354C44.8147 34.4354 47.928 33.6486 49.739 32.4548C49.8325 32.5463 49.9145 32.6488 49.9831 32.7601C50.0835 32.9062 50.14 33.078 50.1459 33.2552C50.1459 34.51 46.6121 36.4024 41.2809 36.4024ZM49.895 27.0897L49.7864 27.2118C49.709 27.3038 49.6227 27.3878 49.5287 27.4627C49.2864 27.6678 49.0252 27.8495 48.7487 28.0054C48.6809 28.0478 48.6107 28.0863 48.5384 28.1207L48.2875 28.2495L48.0229 28.3717C47.427 28.6279 46.8125 28.8387 46.1848 29.0024L45.9203 29.0703L45.3777 29.1924C45.0589 29.2602 44.7333 29.3212 44.3874 29.3687L43.9736 29.423C43.8312 29.423 43.6888 29.4569 43.5395 29.4772H43.2275L42.8545 29.5111H42.4272H41.8778H40.7586H40.2092H39.7887C39.7187 29.5148 39.6485 29.5148 39.5784 29.5111H39.4089H39.0765L38.656 29.4569L38.2761 29.4026C37.9709 29.3619 37.6725 29.3144 37.3944 29.2534H37.252L36.7093 29.1313L36.4516 29.0635C36.2278 29.0024 36.0107 28.9414 35.8072 28.8736C35.4592 28.7681 35.1173 28.6436 34.783 28.5005L34.4303 28.3445L34.2133 28.2428L34.0641 28.1614C33.9512 28.1085 33.8424 28.0472 33.7385 27.9782C33.637 27.9243 33.5395 27.8631 33.4468 27.7951C33.1968 27.6357 32.9688 27.4441 32.7686 27.2254L32.6329 27.049C32.5195 26.8898 32.4536 26.7016 32.443 26.5064C32.4481 26.3656 32.4877 26.2282 32.5583 26.1062C32.6376 25.9589 32.7381 25.824 32.8567 25.706C34.4373 26.6399 36.1953 27.2336 38.0184 27.4492L38.873 27.5577C39.1036 27.5577 39.3342 27.6052 39.5513 27.6188C40.1143 27.6662 40.6976 27.6866 41.2877 27.6866C44.8215 27.6866 47.9347 26.8998 49.7457 25.706C49.8395 25.7997 49.9215 25.9045 49.9899 26.018C50.0901 26.1617 50.1466 26.3313 50.1527 26.5064C50.1297 26.723 50.0396 26.9269 49.895 27.0897ZM45.3573 22.4096C42.6703 22.9413 39.9051 22.9413 37.218 22.4096C34.2404 21.7856 32.4294 20.5579 32.4294 19.6965C32.4345 19.5536 32.4741 19.414 32.5447 19.2896C33.1823 18.0755 36.5126 16.5765 41.2945 16.5765C45.9542 16.5765 49.2506 18.028 49.9967 19.2285C50.0978 19.3743 50.1543 19.5463 50.1595 19.7237C50.1459 20.5579 48.3417 21.7856 45.3573 22.4096Z" fill="#F3C144"/>
<path d="M38.9005 33.6291C38.9005 32.2726 37.0624 31.072 34.3153 30.4141C37.0624 29.7358 38.9005 28.5692 38.9005 27.2059C38.9005 25.1304 34.6613 23.4482 29.4047 23.4482C24.148 23.4482 19.9427 25.1304 19.9427 27.2059C19.9427 28.5624 21.7809 29.7562 24.5279 30.4141C21.7809 31.0924 19.9427 32.2658 19.9427 33.6291C19.9427 34.9924 21.8623 36.2405 24.6907 36.8848C21.8351 37.5292 19.9427 38.7501 19.9427 40.1473C19.9427 42.216 24.182 43.8982 29.4386 43.8982C34.6952 43.8982 38.9005 42.216 38.9005 40.1473C38.9005 38.7501 36.981 37.536 34.1526 36.8916C36.9538 36.2473 38.9005 35.0264 38.9005 33.6291Z" fill="white"/>
<path d="M34.4635 30.454L34.2939 30.4134C35.0089 30.2495 35.7081 30.0226 36.383 29.7351C35.7968 29.6 35.2211 29.4232 34.6602 29.206C34.2871 29.3146 33.8937 29.4163 33.4732 29.5045C32.7032 29.6641 31.9239 29.7751 31.1399 29.8368V30.0132C31.1544 30.6195 31.3965 31.1983 31.8182 31.6343C31.3977 32.071 31.1557 32.6492 31.1399 33.2553V34.6661C31.6283 34.6322 32.1031 34.578 32.5643 34.5169C32.3436 34.3387 32.1626 34.1163 32.033 33.864C31.9033 33.6117 31.8278 33.335 31.8114 33.0518C31.8114 32.0412 32.7949 31.1255 34.4635 30.454ZM31.1399 30.0132V29.8368C30.794 29.8368 30.4616 29.8843 30.075 29.8911H29.3968C28.1133 29.8951 26.8324 29.777 25.5713 29.5384C25.2661 29.6265 24.9541 29.708 24.6217 29.7826C27.4705 30.4269 29.3696 31.641 29.3696 33.0383C29.3433 33.3711 29.2417 33.6937 29.0725 33.9816C28.9033 34.2694 28.671 34.5151 28.3929 34.7C28.7095 34.7 29.035 34.7 29.3696 34.7H30.0479C30.4074 34.7 30.7669 34.6661 31.1128 34.639V33.2282C31.1286 32.6221 31.3705 32.0438 31.7911 31.6071C31.3855 31.1739 31.1537 30.6064 31.1399 30.0132ZM36.0438 23.4204C34.4652 22.8532 32.8141 22.5129 31.1399 22.4097C30.794 22.4097 30.4616 22.3623 30.075 22.3555C29.8512 22.3555 29.6274 22.3555 29.3968 22.3555C28.7185 22.3555 28.0402 22.3894 27.3619 22.4436C22.7361 22.8574 19.2566 24.6345 19.2566 26.771V30.3252C19.273 30.9311 19.5149 31.5092 19.9349 31.9463C19.5138 32.3826 19.2717 32.9611 19.2566 33.5673V37.1215C19.2717 37.7277 19.5138 38.3062 19.9349 38.7425C19.5138 39.1789 19.2717 39.7574 19.2566 40.3636V43.9178C19.2566 46.3528 23.801 48.3333 29.4307 48.3333C35.0603 48.3333 39.5776 46.3392 39.5776 43.9042V40.35C39.5632 39.7437 39.321 39.165 38.8994 38.729C39.321 38.293 39.5632 37.7143 39.5776 37.1079V33.5334C39.5632 32.927 39.321 32.3483 38.8994 31.9123C39.3199 31.4756 39.5619 30.8974 39.5776 30.2913V26.7507C39.5776 25.3941 38.2211 24.2275 36.0438 23.4204ZM38.0176 34.2117C37.9896 34.2509 37.9578 34.2873 37.9226 34.3202C37.8477 34.4121 37.7636 34.4962 37.6717 34.5712C37.4281 34.7778 37.1645 34.9595 36.8849 35.1138L36.6814 35.2291C36.6 35.2766 36.5186 35.3105 36.4304 35.3512L36.1591 35.48L35.8064 35.6293C35.5826 35.7107 35.352 35.7988 35.1282 35.8735C34.9043 35.9481 34.6195 36.0362 34.3482 36.1041L34.0836 36.1719L33.5478 36.3008C33.229 36.3686 32.9034 36.4228 32.5575 36.4703C32.4185 36.4978 32.2781 36.5182 32.137 36.5314L31.7029 36.5856H31.3977H31.2213H31.0178C30.8822 36.5856 30.733 36.5856 30.5905 36.5856C30.446 36.5959 30.3009 36.5959 30.1564 36.5856H30.0479H29.4849H28.922C28.7388 36.5856 28.5557 36.5856 28.3793 36.5856C28.203 36.5856 28.0945 36.5856 27.9588 36.5856H27.5722H27.2466L26.8261 36.5314L26.4395 36.4771C26.0868 36.4228 25.7612 36.3686 25.4153 36.3008L25.0762 36.2262L24.8727 36.1719L24.6082 36.1041L24.1605 35.982C23.7486 35.8582 23.3434 35.7134 22.9464 35.5479L22.5937 35.3919L22.3767 35.2833L22.2342 35.2087C22.1227 35.1532 22.014 35.0921 21.9086 35.0256C21.8048 34.9694 21.7051 34.9059 21.6102 34.8357C21.4216 34.712 21.2465 34.5688 21.0879 34.4084C21.0392 34.3644 20.9939 34.3167 20.9523 34.2659C20.9014 34.2142 20.8559 34.1574 20.8166 34.0964C20.7003 33.9386 20.6341 33.7496 20.6267 33.5538C20.6283 33.4103 20.6681 33.2698 20.742 33.1468C20.8192 33.0001 20.92 32.8672 21.0405 32.7534C21.9907 33.3415 23.0243 33.7828 24.1062 34.0625C25.29 34.3751 26.5003 34.5772 27.7214 34.6661L28.515 34.7136C28.8315 34.7136 29.1571 34.7136 29.4917 34.7136H30.17C30.5295 34.7136 30.889 34.6797 31.2349 34.6526C31.7232 34.6186 32.198 34.5644 32.6592 34.5033L33.3375 34.3948C34.2215 34.2447 35.0908 34.0178 35.9353 33.7165C36.6507 33.4719 37.334 33.1417 37.9701 32.7331C38.0637 32.8262 38.1478 32.9284 38.2211 33.0383C38.3186 33.1858 38.3748 33.3568 38.3839 33.5334C38.3501 33.7971 38.2196 34.0388 38.0176 34.2117ZM38.0176 41.0283C37.0952 42.1949 33.8801 43.5244 29.4171 43.5244C25.2186 43.5244 22.1325 42.351 21.0133 41.2454C20.7519 41.0304 20.5861 40.7207 20.5521 40.384C20.5537 40.2405 20.5935 40.1 20.6674 39.977C20.7461 39.8293 20.8467 39.6944 20.9658 39.5768C21.9193 40.1727 22.9608 40.6144 24.052 40.8859C25.8019 41.3514 27.6064 41.5795 29.4171 41.5642C31.59 41.593 33.7522 41.256 35.8132 40.5671C36.5274 40.3165 37.2102 39.9842 37.848 39.5768C37.9402 39.6737 38.0242 39.778 38.099 39.8888C38.1965 40.0364 38.2527 40.2073 38.2618 40.384C38.2403 40.609 38.1503 40.8221 38.004 40.9944L38.0176 41.0283ZM38.0176 27.4629C37.4065 28.1159 36.6417 28.6055 35.7929 28.8872C35.4309 29.0323 35.0619 29.159 34.6873 29.2671C34.3142 29.3756 33.9208 29.4773 33.5003 29.5655C32.7303 29.7251 31.951 29.8362 31.1671 29.8979C30.8211 29.8979 30.4888 29.9453 30.1022 29.9521H29.4239C28.1404 29.9561 26.8595 29.838 25.5984 29.5994L25.3475 29.552C24.9066 29.457 24.4861 29.3553 24.0994 29.24C22.9648 28.9578 21.9109 28.4169 21.0201 27.6596C20.8909 27.5544 20.7836 27.4248 20.7044 27.2781C20.6253 27.1315 20.5758 26.9707 20.5589 26.8049C20.5596 26.6635 20.5995 26.525 20.6742 26.4048C21.1625 25.4552 23.2991 24.3225 26.4802 23.8748C27.4548 23.7317 28.4388 23.6614 29.4239 23.6646H30.0479C30.4549 23.6646 30.8415 23.6985 31.2213 23.7392C32.1697 23.8116 33.111 23.959 34.0361 24.18C36.1998 24.7159 37.6581 25.5366 38.1058 26.3098C38.203 26.455 38.2593 26.6237 38.2686 26.7982C38.2499 27.0338 38.1519 27.2562 37.9905 27.429L38.0176 27.4629Z" fill="#005B83"/>
<defs>
<linearGradient id="paint0_linear_653_6797" x1="14.8952" y1="15.6413" x2="49.9484" y2="46.5434" gradientUnits="userSpaceOnUse">
<stop stop-color="#676767"/>
<stop offset="0.96" stop-color="white"/>
</linearGradient>
</defs>
</svg>
