<svg width="60" height="60" viewBox="0 0 60 60" fill="none" xmlns="http://www.w3.org/2000/svg">
<path d="M59.9992 30.0204C59.9992 30.5358 59.9992 31.0513 59.9585 31.56C59.5685 39.101 56.3491 46.2176 50.9429 51.4893C45.5366 56.761 38.3412 59.8001 30.7928 60H30.006C24.1587 60.0012 18.4385 58.2935 13.5488 55.087C8.65912 51.8805 4.81305 47.315 2.48354 41.9517C0.154036 36.5885 -0.557362 30.6614 0.436824 24.8993C1.43101 19.1371 4.08744 13.7911 8.07948 9.51855C12.0715 5.24602 17.2251 2.23324 22.9066 0.850669C28.5881 -0.531905 34.5498 -0.223996 40.0586 1.73652C45.5675 3.69704 50.3833 7.22471 53.9139 11.8858C57.4446 16.5468 59.5361 22.138 59.9314 27.972C59.9721 28.6638 59.9992 29.3353 59.9992 30.0204Z" fill="#005B83"/>
<path style="mix-blend-mode:multiply" opacity="0.4" d="M59.9605 31.5599C59.5704 39.1008 56.351 46.2174 50.9448 51.4891C45.5385 56.7608 38.3431 59.7999 30.7947 59.9998L8.31677 37.5219L13.743 34.3747L17.5888 36.1721C17.2632 35.8873 12.6306 31.2614 12.2982 30.8612C11.9662 30.5892 11.6577 30.2897 11.3758 29.9659C11.2944 29.8777 11.2198 29.7828 11.1452 29.6878C10.6137 29.0206 10.1987 28.2684 9.9175 27.4631C9.8768 27.3546 9.84289 27.2325 9.80898 27.1172C9.77507 27.0019 9.74793 26.8934 9.7208 26.7781C9.69403 26.6915 9.67363 26.6031 9.65976 26.5135C9.65976 26.3914 9.61228 26.2626 9.59193 26.1405C9.57158 26.0184 9.59192 25.8895 9.54444 25.7606C9.49697 25.6318 9.54444 25.5436 9.54444 25.4283C9.54444 25.313 9.54444 25.1366 9.54444 24.9874C9.54266 23.9928 9.73691 23.0076 10.1161 22.0881C10.4953 21.1686 11.052 20.3328 11.7543 19.6286C12.4567 18.9243 13.2909 18.3654 14.2094 17.9838C15.1279 17.6021 16.1126 17.4052 17.1072 17.4043C17.3882 17.4034 17.6691 17.4193 17.9483 17.4518C18.2464 16.5602 18.7506 15.7515 19.4201 15.0914C19.6321 14.8749 19.8587 14.6732 20.0984 14.4877C20.9949 13.8308 22.0563 13.436 23.1642 13.3474C24.2721 13.2587 25.3829 13.4798 26.3724 13.9858L26.7319 13.6263C28.5564 11.8781 30.9877 10.9055 33.5146 10.9132C33.709 10.9132 33.9057 10.9132 34.1047 10.9132C34.1927 10.9065 34.2812 10.9065 34.3692 10.9132C34.5184 10.9132 34.6609 10.9133 34.8101 10.9607H34.8915C35.0543 10.9607 35.2171 10.9879 35.3799 11.0421C35.4444 11.0492 35.508 11.0628 35.5698 11.0828C35.6957 11.105 35.8203 11.1345 35.9428 11.171L36.2074 11.2388C36.3973 11.2931 36.5872 11.3541 36.7703 11.422L37.2994 11.6254L37.4622 11.7C37.6317 11.7679 37.8013 11.8493 37.9709 11.9374C38.1404 12.0256 38.31 12.1138 38.4728 12.2088C38.7323 12.3603 38.9836 12.5256 39.2257 12.7039C39.3498 12.786 39.4698 12.8743 39.5851 12.9684L39.9379 13.2601C40.0527 13.3524 40.1615 13.4521 40.2634 13.5585C40.3787 13.6603 40.494 13.7688 40.6026 13.8841L41.0299 14.3521C41.4205 14.6885 41.7855 15.0535 42.1219 15.4441C42.3796 15.6679 42.6238 15.8986 42.8544 16.1224C43.0715 16.1766 43.2885 16.2377 43.4988 16.3123C43.7087 16.3802 43.9147 16.4595 44.116 16.5497C44.2856 16.6175 44.4551 16.6989 44.6179 16.7803L44.7807 16.8685C44.9164 16.9431 45.052 17.0177 45.1809 17.0991L45.3505 17.2076C45.5065 17.3094 45.6625 17.4111 45.8117 17.5264C45.9609 17.6417 46.1101 17.757 46.2593 17.8927C46.3107 17.9233 46.3565 17.9623 46.395 18.008C46.5307 18.1233 46.6528 18.2522 46.7748 18.3742C46.8969 18.4963 47.0733 18.6931 47.2089 18.8558C47.6038 19.1829 47.9671 19.5462 48.2942 19.9411C48.5248 20.1174 53.7746 25.3808 59.9605 31.5599Z" fill="url(#paint0_linear_653_6812)"/>
<path d="M47.2754 18.9309C47.1415 18.7609 46.9965 18.6 46.8413 18.4493C46.7192 18.3272 46.5971 18.1983 46.4615 18.083C46.423 18.0373 46.3771 17.9983 46.3258 17.9677C46.1766 17.832 46.0274 17.7168 45.8781 17.6015C45.7289 17.4861 45.5729 17.3844 45.4169 17.2827L45.2473 17.1741C45.1185 17.0927 44.9828 17.0181 44.8472 16.9435L44.6844 16.8553C44.5216 16.774 44.352 16.6926 44.1825 16.6247C43.9812 16.5345 43.7751 16.4553 43.5652 16.3873C43.355 16.3127 43.1379 16.2517 42.9209 16.1974C42.7038 16.1432 42.4596 16.0957 42.2426 16.055C41.9242 15.4688 41.5469 14.9165 41.1167 14.4068L40.6894 13.9388C40.5808 13.8235 40.4655 13.7149 40.3502 13.6132C40.2483 13.5068 40.1395 13.4071 40.0246 13.3148L39.6719 13.0231C39.5566 12.929 39.4366 12.8407 39.3125 12.7586C39.0704 12.5803 38.8191 12.415 38.5596 12.2634C38.3968 12.1685 38.2272 12.0735 38.0577 11.9921C37.8881 11.9107 37.7185 11.8226 37.549 11.7547L37.3862 11.6801L36.8571 11.4766C36.674 11.4088 36.4841 11.3478 36.2941 11.2935L36.0296 11.2257C35.9071 11.1891 35.7825 11.1597 35.6566 11.1375C35.5948 11.1175 35.5312 11.1038 35.4666 11.0968C35.3039 11.0606 35.1411 11.0335 34.9783 11.0154H34.8969C34.7477 11.0154 34.6052 10.9747 34.456 10.9679C34.368 10.9612 34.2795 10.9612 34.1915 10.9679C33.9971 10.9679 33.8004 10.9679 33.6014 10.9679C31.0745 10.9602 28.6431 11.9328 26.8187 13.681L26.4592 14.0405C25.4696 13.5345 24.3589 13.3134 23.251 13.4021C22.1431 13.4907 21.0817 13.8855 20.1852 14.5424C19.9455 14.7279 19.7189 14.9296 19.5069 15.1461C18.8374 15.8062 18.3331 16.6149 18.035 17.5065C17.7537 17.4717 17.4706 17.4536 17.1872 17.4522C15.1796 17.4558 13.2553 18.2554 11.8363 19.6757C10.4173 21.0959 9.61947 23.0209 9.61768 25.0285C9.61768 25.1777 9.61768 25.3202 9.61768 25.4694C9.61768 25.6186 9.61768 25.6932 9.61768 25.8018C9.61768 25.9103 9.61768 26.0527 9.66516 26.1816C9.71264 26.3105 9.70586 26.4325 9.73299 26.5546C9.74686 26.6442 9.76726 26.7326 9.79403 26.8192C9.79403 26.9345 9.84829 27.0498 9.8822 27.1583C9.91612 27.2668 9.95003 27.3957 9.99073 27.5042C10.2719 28.3096 10.687 29.0617 11.2184 29.729C11.293 29.8239 11.3676 29.9189 11.449 30.007C11.7309 30.3308 12.0395 30.6303 12.3715 30.9024C13.7136 31.994 15.3894 32.5925 17.1194 32.598H40.8589C42.4378 32.5974 43.9839 32.1476 45.3168 31.3012C46.6496 30.4548 47.7142 29.2468 48.3863 27.818C49.0583 26.3893 49.3101 24.7989 49.1122 23.2325C48.9143 21.6661 48.2749 20.1882 47.2686 18.9716L47.2754 18.9309ZM40.8657 30.5225H17.1262C15.6909 30.4723 14.3312 29.8668 13.3336 28.8337C12.3361 27.8006 11.7785 26.4206 11.7785 24.9844C11.7785 23.5483 12.3361 22.1683 13.3336 21.1352C14.3312 20.1021 15.6909 19.4966 17.1262 19.4464C17.5838 19.4495 18.0394 19.5087 18.4827 19.6227C18.6208 19.6574 18.7646 19.6627 18.9049 19.6383C19.0452 19.6139 19.1788 19.5603 19.297 19.4811C19.4153 19.4018 19.5156 19.2986 19.5915 19.1781C19.6674 19.0576 19.7171 18.9226 19.7375 18.7816C19.8844 17.8391 20.3625 16.9799 21.0861 16.3582C21.8097 15.7366 22.7312 15.3934 23.6851 15.3903C24.529 15.3892 25.3512 15.6578 26.0319 16.1567C26.2455 16.313 26.5117 16.3799 26.7738 16.3432C27.0359 16.3065 27.2734 16.169 27.4359 15.96C28.2549 14.9133 29.3275 14.093 30.5522 13.5769C31.7769 13.0607 33.1131 12.8657 34.4342 13.0104C35.7554 13.155 37.0177 13.6346 38.1016 14.4036C39.1856 15.1726 40.0553 16.2056 40.6283 17.4047C40.7033 17.5657 40.8192 17.7043 40.9643 17.8066C41.1095 17.909 41.279 17.9715 41.4558 17.9881C43.0516 18.1539 44.5235 18.9241 45.5694 20.1407C46.6153 21.3574 47.156 22.9281 47.0805 24.5307C47.005 26.1334 46.3191 27.6464 45.1634 28.7593C44.0078 29.8722 42.47 30.5007 40.8657 30.5157V30.5225Z" fill="#00CFDD"/>
<path d="M26.4128 38.6611L29.56 44.1212L32.714 38.6611H26.4128Z" fill="#FA7A49"/>
<path d="M29.5605 42.7513C29.2007 42.7513 28.8557 42.6083 28.6013 42.3539C28.3469 42.0995 28.204 41.7545 28.204 41.3947V20.3683C28.204 20.0085 28.3469 19.6634 28.6013 19.409C28.8557 19.1546 29.2007 19.0117 29.5605 19.0117C29.9203 19.0117 30.2653 19.1546 30.5197 19.409C30.7741 19.6634 30.9171 20.0085 30.9171 20.3683V41.3947C30.9171 41.7545 30.7741 42.0995 30.5197 42.3539C30.2653 42.6083 29.9203 42.7513 29.5605 42.7513Z" fill="#FA7A49"/>
<path d="M21.4271 21.7588C21.0674 21.7588 20.7223 21.9017 20.4679 22.1561C20.2135 22.4105 20.0706 22.7556 20.0706 23.1153V36.1721H13.7694V34.3611L8.34326 37.515L13.7694 40.6622V38.8716H21.4271C21.7869 38.8716 22.132 38.7287 22.3864 38.4743C22.6408 38.2199 22.7837 37.8748 22.7837 37.515V23.1153C22.7837 22.7556 22.6408 22.4105 22.3864 22.1561C22.132 21.9017 21.7869 21.7588 21.4271 21.7588Z" fill="white"/>
<path d="M46.8957 36.1719H38.9599V25.2042H40.7912L37.6305 19.7441L34.4833 25.2042H36.2807V37.5285C36.2807 37.8882 36.4236 38.2333 36.678 38.4877C36.9324 38.7421 37.2775 38.885 37.6373 38.885H46.8957C47.2554 38.885 47.6005 38.7421 47.8549 38.4877C48.1093 38.2333 48.2522 37.8882 48.2522 37.5285C48.2522 37.1687 48.1093 36.8236 47.8549 36.5692C47.6005 36.3148 47.2554 36.1719 46.8957 36.1719Z" fill="#F3C144"/>
<defs>
<linearGradient id="paint0_linear_653_6812" x1="14.2042" y1="17.5128" x2="49.5083" y2="48.6388" gradientUnits="userSpaceOnUse">
<stop stop-color="#676767"/>
<stop offset="0.96" stop-color="white"/>
</linearGradient>
</defs>
</svg>
