<svg width="264" height="255" viewBox="0 0 264 255" fill="none" xmlns="http://www.w3.org/2000/svg">
<g opacity="0.6">
<path d="M40.6717 16.3311C41.325 16.6074 41.8826 17.07 42.2746 17.6612C42.6667 18.2524 42.876 18.9459 42.8764 19.6553V29.3526C42.8749 30.3079 42.4943 31.2235 41.8183 31.8984C41.1423 32.5734 40.226 32.9525 39.2708 32.9525C38.316 32.9525 37.4004 32.5732 36.7253 31.8981C36.0502 31.223 35.6709 30.3073 35.6709 29.3526V19.6553C35.6715 18.9468 35.8803 18.254 36.2712 17.663C36.6621 17.072 37.218 16.6089 37.8699 16.3311" stroke="#808080" stroke-linecap="round" stroke-linejoin="round"/>
<path d="M39.2591 32.9523C38.3043 32.9523 37.3887 32.5731 36.7136 31.898C36.0385 31.2229 35.6592 30.3072 35.6592 29.3525V24.501H42.8647V29.3525C42.8631 30.3078 42.4826 31.2234 41.8066 31.8983C41.1306 32.5733 40.2143 32.9523 39.2591 32.9523Z" stroke="#808080" stroke-linecap="round" stroke-linejoin="round"/>
<path d="M31.5135 14.9533L26.2141 19.2019C25.8441 19.4972 25.4195 19.7166 24.9646 19.8476C24.5097 19.9786 24.0334 20.0185 23.5631 19.9652C23.0927 19.9119 22.6375 19.7663 22.2234 19.5368C21.8094 19.3073 21.4447 18.9984 21.1502 18.6278C20.555 17.879 20.2812 16.9247 20.3888 15.9742C20.4964 15.0238 20.9768 14.1548 21.7243 13.5581L29.2743 7.51239C30.0222 6.91751 30.9756 6.64383 31.9251 6.75148C32.8746 6.85914 33.7426 7.33932 34.3382 8.08653C34.9297 8.83118 35.203 9.77933 35.0987 10.7245C34.9944 11.6697 34.5209 12.5355 33.7813 13.1332L33.1727 13.6213" stroke="#808080" stroke-linecap="round" stroke-linejoin="round"/>
<path d="M21.1502 18.651C20.555 17.9022 20.2812 16.9478 20.3888 15.9974C20.4964 15.0469 20.9768 14.178 21.7243 13.5813L25.5079 10.5498L30.015 16.1707L26.2314 19.2021C25.8623 19.5014 25.4376 19.7246 24.9819 19.8589C24.5262 19.9932 24.0483 20.036 23.576 19.9847C23.1036 19.9335 22.6461 19.7893 22.2298 19.5603C21.8134 19.3314 21.4465 19.0224 21.1502 18.651Z" stroke="#808080" stroke-linecap="round" stroke-linejoin="round"/>
<path d="M221.48 174.777C220.207 175.134 219.078 175.879 218.248 176.908C217.419 177.937 216.931 179.199 216.852 180.519H208.981C208.892 179.821 208.555 179.179 208.033 178.708C207.511 178.238 206.838 177.97 206.135 177.953C205.432 177.936 204.747 178.172 204.203 178.617C203.659 179.063 203.292 179.688 203.17 180.38C203.048 181.073 203.178 181.786 203.536 182.39C203.894 182.995 204.458 183.452 205.124 183.677C205.79 183.902 206.514 183.881 207.166 183.617C207.818 183.354 208.354 182.866 208.676 182.241H216.979C217.221 183.371 217.767 184.413 218.558 185.256C219.349 186.098 220.355 186.709 221.467 187.022C222.579 187.335 223.756 187.338 224.87 187.032C225.984 186.726 226.994 186.122 227.79 185.284L231.86 188.448" stroke="#808080" stroke-linecap="round" stroke-linejoin="round"/>
<path d="M234.071 190.163L239.037 194.027C238.906 194.36 238.837 194.715 238.836 195.072C238.833 195.735 239.052 196.379 239.459 196.902C239.866 197.424 240.437 197.795 241.079 197.953C241.722 198.112 242.4 198.05 243.004 197.777C243.607 197.504 244.101 197.036 244.406 196.448C244.712 195.861 244.81 195.187 244.686 194.537C244.562 193.886 244.223 193.296 243.723 192.861C243.224 192.427 242.592 192.173 241.931 192.141C241.269 192.109 240.616 192.3 240.076 192.684L228.789 183.905C229.336 182.882 229.591 181.728 229.525 180.569C229.459 179.41 229.075 178.292 228.416 177.337L235.305 168.501C235.889 168.725 236.529 168.757 237.132 168.591C237.735 168.426 238.269 168.071 238.656 167.58C239.043 167.089 239.262 166.487 239.282 165.862C239.303 165.238 239.122 164.623 238.768 164.108C238.413 163.593 237.903 163.205 237.312 163C236.721 162.796 236.08 162.787 235.484 162.973C234.887 163.159 234.365 163.531 233.995 164.035C233.625 164.539 233.427 165.149 233.428 165.774C233.426 166.377 233.615 166.966 233.967 167.456L227.244 176.068C226.102 175.105 224.656 174.579 223.162 174.581" stroke="#808080" stroke-linecap="round" stroke-linejoin="round"/>
<path d="M135.273 18.0419V45.0266C135.273 45.5898 135.162 46.1475 134.946 46.6678C134.731 47.1882 134.415 47.661 134.016 48.0592C133.618 48.4575 133.145 48.7734 132.625 48.9889C132.105 49.2045 131.547 49.3154 130.984 49.3154C130.42 49.3154 129.863 49.2045 129.342 48.9889C128.822 48.7734 128.349 48.4575 127.951 48.0592C127.553 47.661 127.237 47.1882 127.021 46.6678C126.806 46.1475 126.695 45.5898 126.695 45.0266V10.3828H135.273V16.4515" stroke="#808080" stroke-linecap="round" stroke-linejoin="round"/>
<path d="M130.984 49.304C129.846 49.304 128.755 48.8521 127.951 48.0478C127.147 47.2435 126.695 46.1526 126.695 45.0151V23.0771H135.273V45.0151C135.273 45.5786 135.163 46.1366 134.948 46.6573C134.732 47.178 134.416 47.6511 134.018 48.0495C133.62 48.4479 133.147 48.7638 132.626 48.979C132.105 49.1943 131.547 49.3047 130.984 49.304Z" stroke="#808080" stroke-linecap="round" stroke-linejoin="round"/>
<path d="M135.273 10.3831H136.501V7.25977H125.472V10.3831H126.695" stroke="#808080" stroke-linecap="round" stroke-linejoin="round"/>
<path d="M113.696 35.0534V10.3652H122.274V44.9975C122.274 46.135 121.822 47.2259 121.018 48.0302C120.213 48.8345 119.122 49.2863 117.985 49.2863C116.847 49.2863 115.757 48.8345 114.952 48.0302C114.148 47.2259 113.696 46.135 113.696 44.9975V37.327" stroke="#808080" stroke-linecap="round" stroke-linejoin="round"/>
<path d="M113.696 35.0538V23.0771H122.274V45.0151C122.274 46.1526 121.822 47.2435 121.018 48.0478C120.213 48.8521 119.122 49.304 117.985 49.304C117.421 49.3047 116.863 49.1943 116.343 48.979C115.822 48.7638 115.349 48.4479 114.951 48.0495C114.552 47.6511 114.236 47.178 114.021 46.6573C113.806 46.1366 113.695 45.5786 113.696 45.0151V38.0048" stroke="#808080" stroke-linecap="round" stroke-linejoin="round"/>
<path d="M122.274 10.3831H123.497V7.25977H112.467V10.3831H113.696" stroke="#808080" stroke-linecap="round" stroke-linejoin="round"/>
<path d="M42.646 174.737C40.9928 175.322 39.5123 176.312 38.3391 177.615C37.1658 178.919 36.3372 180.495 35.9285 182.201C35.3229 179.716 33.83 177.539 31.7308 176.078C29.6317 174.618 27.0711 173.975 24.5309 174.27C21.9908 174.566 19.6463 175.78 17.9387 177.683C16.2311 179.587 15.2783 182.049 15.2594 184.606C15.2594 187.184 16.379 189.475 17.9808 191.571H29.2627L32.6329 183.51C32.6897 183.379 32.7848 183.268 32.9058 183.192C33.0267 183.116 33.1678 183.079 33.3104 183.085C33.4526 183.091 33.5893 183.141 33.7015 183.229C33.8136 183.316 33.8957 183.437 33.9362 183.573L38.0184 197.037L41.1303 187.098C41.173 186.959 41.259 186.838 41.3757 186.751C41.4923 186.664 41.6336 186.617 41.779 186.616C41.9238 186.618 42.0647 186.663 42.1835 186.746C42.3022 186.829 42.3933 186.946 42.445 187.081L44.1675 192.053H53.4858C55.2714 189.952 56.6091 187.598 56.6091 184.589C56.6091 181.807 55.504 179.139 53.5368 177.172C51.5696 175.205 48.9016 174.1 46.1195 174.1" stroke="#808080" stroke-linecap="round" stroke-linejoin="round"/>
<path d="M30.5895 204.121C32.3866 205.918 34.1894 207.715 36.0324 209.455C40.2409 205.298 44.478 201.164 48.6635 196.973C49.8118 195.825 51.0749 194.677 52.2404 193.459H43.6857C43.5417 193.46 43.4011 193.415 43.2837 193.332C43.1663 193.249 43.078 193.13 43.0312 192.994L41.8255 189.549L38.6677 199.608C38.6246 199.75 38.5371 199.874 38.4182 199.961C38.2993 200.049 38.1553 200.097 38.0075 200.096C37.8591 200.095 37.715 200.047 37.5962 199.958C37.4773 199.869 37.3901 199.745 37.3472 199.603L33.1789 185.823L30.3714 192.552C30.3187 192.678 30.2303 192.786 30.1171 192.863C30.0039 192.939 29.8707 192.981 29.7341 192.983H19.1067C21.4033 195.538 24.2395 197.794 26.3696 199.901C27.3054 200.826 28.2413 201.761 29.1714 202.697" stroke="#808080" stroke-linecap="round" stroke-linejoin="round"/>
<path d="M251.582 35.8288L250.882 34.6059L254.35 32.6309L255.044 33.8538" stroke="#808080" stroke-linecap="round" stroke-linejoin="round"/>
<path d="M255.119 42.0181L252.983 38.2805V38.269L256.44 36.2939H256.445L260.522 43.4363L257.054 45.4113L256.078 43.7061" stroke="#808080" stroke-linecap="round" stroke-linejoin="round"/>
<path d="M257.282 48.0035L262.627 44.9521L261.463 42.9128L256.118 45.9641L257.282 48.0035Z" stroke="#808080" stroke-linecap="round" stroke-linejoin="round"/>
<path d="M254.332 26.6881L248.172 15.877" stroke="#808080" stroke-linecap="round" stroke-linejoin="round"/>
<path d="M257.593 32.401L255.383 28.5312" stroke="#808080" stroke-linecap="round" stroke-linejoin="round"/>
<path d="M242.43 25.7234L239.6 20.7686" stroke="#808080" stroke-linecap="round" stroke-linejoin="round"/>
<path d="M249.028 37.2869L243.436 27.4863" stroke="#808080" stroke-linecap="round" stroke-linejoin="round"/>
<path d="M250.429 39.7325L252.984 38.2799V38.2685L256.44 36.2934H256.446L258.989 34.8408" stroke="#808080" stroke-linecap="round" stroke-linejoin="round"/>
<path d="M240.725 20.1261L246.547 30.3229L247.977 29.5076L251.445 27.5268L252.863 26.7115L247.047 16.5205" stroke="#808080" stroke-linecap="round" stroke-linejoin="round"/>
<path d="M255.044 33.8534L254.349 32.6305L251.444 27.5264" stroke="#808080" stroke-linecap="round" stroke-linejoin="round"/>
<path d="M247.977 29.5078L250.882 34.6062L251.583 35.8291" stroke="#808080" stroke-linecap="round" stroke-linejoin="round"/>
<path d="M252.983 38.2686L250.428 39.7327L249.814 40.0772L248.424 37.6313L249.027 37.2868L251.582 35.8285L255.044 33.8535L257.593 32.4009L258.208 32.0449L259.603 34.4908L258.989 34.841L256.445 36.2936H256.439" stroke="#808080" stroke-linecap="round" stroke-linejoin="round"/>
<path d="M242.109 12.8516L238.55 14.884L239.945 17.3356" stroke="#808080" stroke-linecap="round" stroke-linejoin="round"/>
<path d="M245.043 14.4242L243.642 11.9727" stroke="#808080" stroke-linecap="round" stroke-linejoin="round"/>
<path d="M240.725 20.1259L247.046 16.5203L248.171 15.8772L248.786 15.5328L247.385 13.0869L245.042 14.4247L239.944 17.3356L237.595 18.6733L238.991 21.1192L239.599 20.7747L240.725 20.1259Z" stroke="#808080" stroke-linecap="round" stroke-linejoin="round"/>
<path d="M240.76 13.0812L234.008 1.25391" stroke="#808080" stroke-linecap="round" stroke-linejoin="round"/>
<path d="M203.686 144.795C232.268 144.795 255.439 121.625 255.439 93.0422C255.439 64.4597 232.268 41.2891 203.686 41.2891C175.103 41.2891 151.933 64.4597 151.933 93.0422C151.933 121.625 175.103 144.795 203.686 144.795Z" fill="#FF725E"/>
<path d="M175.415 148.631L175.593 107.246C175.593 107.246 168.284 108.257 167.061 108.435C165.838 108.613 165.276 107.195 161.773 103.698C158.271 100.202 158.805 90.5849 163.352 87.4386C167.899 84.2923 177.861 72.7463 178.561 72.0458C179.262 71.3453 184.159 72.0458 186.082 72.396C188.006 72.7463 191.502 74.6926 192.398 74.8476C193.294 75.0026 199.747 76.0705 199.747 76.0705L223.528 80.4398C225.451 80.79 234.018 85.8597 236.119 86.1812C238.22 86.5027 240.666 89.8557 241.016 91.4288C241.367 93.002 244.685 120.98 246.086 122.903C247.487 124.827 252.206 149.124 252.206 149.124" fill="white"/>
<path d="M175.415 148.631L175.593 107.246C175.593 107.246 168.284 108.257 167.061 108.435C165.838 108.613 165.276 107.195 161.773 103.698C158.271 100.202 158.805 90.5849 163.352 87.4386C167.899 84.2923 177.861 72.7463 178.561 72.0458C179.262 71.3453 184.159 72.0458 186.082 72.396C188.006 72.7463 191.502 74.6926 192.398 74.8476C193.294 75.0026 199.747 76.0705 199.747 76.0705L223.528 80.4398C225.451 80.79 234.018 85.8597 236.119 86.1812C238.22 86.5027 240.666 89.8557 241.016 91.4288C241.367 93.002 244.685 120.98 246.086 122.903C247.487 124.827 252.206 149.124 252.206 149.124" stroke="#263238" stroke-linecap="round" stroke-linejoin="round"/>
<path d="M215.438 89.7571H217.603L223.896 92.312L216.816 86.0137L215.438 89.7571Z" fill="#263238" stroke="#263238" stroke-linecap="round" stroke-linejoin="round"/>
<path d="M201.86 90.3487L210.323 89.1659L207.372 84.8369L201.86 90.3487Z" fill="#263238" stroke="#263238" stroke-linecap="round" stroke-linejoin="round"/>
<path d="M180.571 80.1982C180.571 80.1982 181.519 92.9959 180.095 98.4502C178.671 103.905 177.488 105.34 177.488 105.34" stroke="#263238" stroke-linecap="round" stroke-linejoin="round"/>
<path d="M179.612 109.984C179.4 110.719 179.176 111.454 178.935 112.195L179.612 109.984Z" fill="white"/>
<path d="M179.612 109.984C179.4 110.719 179.176 111.454 178.935 112.195" stroke="#263238" stroke-linecap="round" stroke-linejoin="round"/>
<path d="M182.707 88.9707C182.568 95.3296 181.723 101.653 180.187 107.826L182.707 88.9707Z" fill="white"/>
<path d="M182.707 88.9707C182.568 95.3296 181.723 101.653 180.187 107.826" stroke="#263238" stroke-linecap="round" stroke-linejoin="round"/>
<path d="M238.284 146.276C238.284 146.276 234.874 131.125 235.218 129.552C235.563 127.979 236.619 99.6504 236.619 99.6504" stroke="#263238" stroke-linecap="round" stroke-linejoin="round"/>
<path d="M194.539 83.9189C194.853 84.7878 195.19 85.7179 195.55 86.7093" stroke="#263238" stroke-linecap="round" stroke-linejoin="round"/>
<path d="M191.331 75.5137C191.331 75.5137 192.278 77.8102 193.937 82.323" stroke="#263238" stroke-linecap="round" stroke-linejoin="round"/>
<path d="M198.45 100.562C198.633 101.533 198.766 102.512 198.846 103.496" stroke="#263238" stroke-linecap="round" stroke-linejoin="round"/>
<path d="M192.375 83.752C194.749 88.4136 196.629 93.3109 197.984 98.3639" stroke="#263238" stroke-linecap="round" stroke-linejoin="round"/>
<path d="M213.078 93.6729C213.078 93.6729 215.111 112.585 215.111 115.209C215.111 117.833 216.621 147.143 216.621 147.143" stroke="#263238" stroke-linecap="round" stroke-linejoin="round"/>
<path d="M234.172 120.365L222.282 119.222V100.654L234.172 101.791V120.365Z" fill="white" stroke="#263238" stroke-linecap="round" stroke-linejoin="round"/>
<path d="M229.448 102.36L226.479 102.182V96.4121L229.448 96.5901V102.36Z" fill="#FF725E" stroke="#263238" stroke-linecap="round" stroke-linejoin="round"/>
<path d="M203.605 71.6202C203.605 71.6202 202.273 71.4709 201.981 71.9187C201.688 72.3666 198.277 76.2076 198.277 76.2076C198.611 78.1624 198.759 80.1443 198.719 82.127C198.719 85.9737 200.499 91.8874 200.499 91.8874L207.745 87.1622L212.482 85.8302C213.41 85.6687 214.36 85.6687 215.289 85.8302C215.289 85.8302 225.652 94.5629 226.244 94.2644C226.835 93.9658 224.47 84.1996 222.839 79.9108C221.209 75.622 216.621 73.2507 216.621 73.2507C216.621 73.2507 206.12 71.3274 203.605 71.6202Z" fill="white" stroke="#263238" stroke-linecap="round" stroke-linejoin="round"/>
<path d="M201.682 53.5641C199.031 54.0089 196.507 55.0193 194.281 56.5266C191.025 58.8921 193.839 67.1827 197.835 69.2554C201.831 71.328 204.638 70.7309 206.269 67.0335C207.9 63.336 207.159 55.786 206.12 54.6033C205.081 53.4205 201.682 53.5641 201.682 53.5641Z" fill="#263238"/>
<path d="M205.236 56.9688L203.754 73.1021C204.886 76.8418 206.271 80.4999 207.9 84.051C209.352 87.3964 211.081 90.6151 213.067 93.6737C213.067 93.6737 216.615 87.1629 217.505 84.941C218.235 82.8625 218.831 80.7396 219.291 78.5852L221.524 68.9568C221.524 68.9568 217.505 67.9234 212.642 64.2202C209.848 62.1593 207.355 59.7186 205.236 56.9688Z" fill="white" stroke="#263238" stroke-linecap="round" stroke-linejoin="round"/>
<path d="M221.524 68.9565C221.524 68.9565 217.505 67.9231 212.642 64.2199C211.376 63.2607 210.164 62.2313 209.013 61.1367V67.7451C209.013 67.7451 212.74 74.2731 216.477 76.1391C217.478 76.6235 218.557 76.9268 219.664 77.0347L221.524 68.9565Z" fill="#263238"/>
<path d="M231.727 54.4712C231.727 54.4712 232.91 53.2885 233.059 55.8032C233.209 58.318 231.578 60.3964 230.539 61.2806C229.5 62.1647 229.063 62.4633 229.063 62.4633L231.727 54.4712Z" fill="white" stroke="#263238" stroke-linecap="round" stroke-linejoin="round"/>
<path d="M221.524 31.2061C217.647 30.653 213.707 31.6379 210.547 33.9505C205.288 37.8374 204.805 47.2189 204.805 47.2189C204.805 47.2189 202.979 45.6171 201.831 47.6725C200.683 49.7279 200.683 54.9928 201.607 55.4521C202.532 55.9114 203.663 56.365 203.663 56.365C203.663 56.365 205.035 63.226 206.407 65.2872C207.779 67.3484 212.815 72.6075 215.789 72.6075C218.763 72.6075 223.792 71.0056 226.077 68.0144C228.117 65.2148 229.736 62.1315 230.883 58.8625C231.796 56.3478 233.398 44.2277 233.398 44.2277C233.398 44.2277 234.081 38.7388 229.74 34.8519C225.4 30.965 221.524 31.2061 221.524 31.2061Z" fill="white" stroke="#263238" stroke-linecap="round" stroke-linejoin="round"/>
<path d="M206.419 65.2876C207.791 67.3431 212.826 72.6079 215.8 72.6079C218.774 72.6079 223.804 71.0061 226.089 68.0148C228.129 65.2153 229.748 62.1319 230.894 58.863C231.211 57.8197 231.46 56.7573 231.641 55.6822C231.067 55.1081 226.996 51.2384 221.811 50.1418C216.185 48.959 205.971 48.0748 205.971 48.0748L204.823 47.2021L203.778 56.8018C204.105 58.3864 205.259 63.548 206.419 65.2876Z" fill="#FF725E" stroke="#263238" stroke-linecap="round" stroke-linejoin="round"/>
<path d="M223.878 50.8993C223.878 50.8993 224.768 46.4612 225.21 45.2784C225.652 44.0957 228.615 43.0565 230.837 46.3119" stroke="#263238" stroke-linecap="round" stroke-linejoin="round"/>
<path d="M218.849 42.3168C218.849 42.3168 215.892 38.6193 211.156 41.8747" stroke="#263238" stroke-linecap="round" stroke-linejoin="round"/>
<path d="M214.382 45.5486C214.221 46.1228 213.767 46.5304 213.377 46.4213C212.986 46.3123 212.803 45.7496 212.958 45.1582C213.113 44.5669 213.572 44.1707 213.962 44.2798C214.353 44.3889 214.542 44.9573 214.382 45.5486Z" fill="#263238"/>
<path d="M227.403 48.6955C227.243 49.2696 226.789 49.6772 226.399 49.5681C226.008 49.4591 225.824 48.8964 225.979 48.305C226.134 47.7137 226.594 47.3233 226.984 47.4323C227.375 47.5414 227.57 48.1041 227.403 48.6955Z" fill="#263238"/>
<path d="M204.817 47.2199C205.054 47.2952 205.31 47.2911 205.545 47.2082C205.78 47.1254 205.982 46.9682 206.12 46.7606C206.568 46.0199 205.678 43.3559 208.933 40.1005C212.189 36.8451 215.892 36.3973 217.666 34.9332C219.44 33.4692 219.739 32.7171 218.556 31.2358C217.373 29.7545 215.593 27.2168 209.083 30.943C202.572 34.6691 200.201 37.0059 201.24 40.2613C201.799 42.1059 202.648 43.8501 203.755 45.4286L204.817 47.2199Z" fill="#263238"/>
<path d="M217.075 30.0355C217.075 30.0355 218.407 33.1416 220.773 34.3243C223.138 35.507 226.25 35.9549 229.959 38.1768C233.668 40.3987 232.922 47.053 232.922 47.053C232.922 47.053 237.951 49.5678 240.024 45.8703C242.097 42.1728 244.043 35.9549 235.879 31.3675C227.714 26.7801 221.663 21.3028 217.075 30.0355Z" fill="#263238"/>
<path d="M193.966 21.4805V42.5572C193.964 43.1364 193.733 43.6913 193.323 44.1003C192.913 44.5093 192.358 44.739 191.778 44.739C191.2 44.7375 190.646 44.5071 190.237 44.0983C189.829 43.6895 189.598 43.1354 189.597 42.5572V21.4805H193.966Z" fill="white" stroke="#263238" stroke-linecap="round" stroke-linejoin="round"/>
<path d="M193.966 32.6533V42.5401C193.964 43.1192 193.733 43.6741 193.323 44.0831C192.913 44.4921 192.358 44.7218 191.778 44.7218C191.2 44.7203 190.646 44.4899 190.237 44.0811C189.829 43.6723 189.598 43.1182 189.597 42.5401V32.6533H193.966Z" fill="#FF725E" stroke="#263238" stroke-linecap="round" stroke-linejoin="round"/>
<path d="M194.649 20.4297H188.879V22.1808H194.649V20.4297Z" fill="white" stroke="#263238" stroke-linecap="round" stroke-linejoin="round"/>
<path d="M180.484 63.4508C180.484 63.4508 180.484 62.9284 178.038 61.1543C175.592 59.3802 166.32 59.2309 164.397 61.5045C162.473 63.7781 169.294 70.0707 171.217 70.9491C173.141 71.8276 176.637 70.2487 177.688 69.0258C178.739 67.8028 180.484 63.4508 180.484 63.4508Z" fill="white" stroke="#263238" stroke-linecap="round" stroke-linejoin="round"/>
<path d="M167.894 50.1592L166.172 63.2726C166.172 63.2726 169.496 67.8198 172.487 67.9978C175.478 68.1758 178.085 65.374 178.085 65.374L178.786 52.2605C178.786 52.2605 171.919 52.0826 167.894 50.1592Z" fill="white" stroke="#263238" stroke-linecap="round" stroke-linejoin="round"/>
<path d="M169.817 41.4149C169.817 41.4149 170.167 32.8486 170.517 29.3579C170.867 25.8671 171.918 23.4097 172.441 23.4097C172.963 23.4097 179.439 18.874 179.439 18.874C179.439 18.874 189.929 19.5745 190.98 19.5745C192.03 19.5745 194.126 20.2749 193.954 21.2969L193.776 22.3418C193.866 22.9124 193.866 23.4937 193.776 24.0643C193.632 24.4173 193.389 24.7207 193.075 24.937C193.166 25.2157 193.144 25.5191 193.013 25.7813C192.882 26.0436 192.652 26.2436 192.375 26.3379C191.33 26.8603 186.955 29.1339 186.955 29.1339C185.885 31.3487 184.951 33.6265 184.159 35.9548C183.458 38.4063 180.662 41.0244 180.662 41.0244C180.662 41.0244 180.834 43.476 180.834 45.0434C180.722 46.4157 180.428 47.767 179.962 49.0624C180.05 49.9943 180.05 50.9324 179.962 51.8642C179.79 52.3867 179.261 53.0872 178.739 53.0872C178.216 53.0872 174.364 53.7876 172.423 53.4374C170.483 53.0872 167.704 50.8136 167.704 50.8136L168.577 47.317V44.5152C168.594 43.5162 169.817 41.4149 169.817 41.4149Z" fill="#FF725E" stroke="#263238" stroke-linecap="round" stroke-linejoin="round"/>
<path d="M175.766 41.0644C175.766 41.0644 179.44 39.6693 179.785 37.3957C180.129 35.1221 181.88 29.3577 181.88 29.3577L186.95 29.1797" stroke="#263238" stroke-linecap="round" stroke-linejoin="round"/>
<path d="M177.689 26.9117C177.689 26.9117 182.236 25.3385 183.459 25.3385C184.682 25.3385 193.076 24.9883 193.076 24.9883" stroke="#263238" stroke-linecap="round" stroke-linejoin="round"/>
<path d="M177.516 22.8932C179.632 22.364 181.8 22.0713 183.981 22.0205C187.133 22.0205 193.776 22.365 193.776 22.365" stroke="#263238" stroke-linecap="round" stroke-linejoin="round"/>
<path d="M169.646 48.2354C169.646 48.2354 171.942 50.6812 176.817 50.1587" stroke="#263238" stroke-linecap="round" stroke-linejoin="round"/>
<path d="M179.612 47.5352C179.612 47.5352 178.739 48.0634 174.714 48.0634" stroke="#263238" stroke-linecap="round" stroke-linejoin="round"/>
<path d="M166.149 63.2722L164.398 61.5498C164.398 61.5498 154.781 97.9217 154.609 100.546C154.437 103.169 158.456 107.539 160.729 108.584C163.003 109.628 170.518 108.756 172.97 107.533C175.422 106.31 176.989 101.412 178.39 96.8653C179.791 92.3181 178.212 84.2744 178.562 81.8285C178.912 79.3827 180.485 63.456 180.485 63.456L178.04 65.3793C178.04 65.3793 171.219 65.1956 166.149 63.2722Z" fill="white" stroke="#263238" stroke-linecap="round" stroke-linejoin="round"/>
<path d="M167.239 148.877H258.642" stroke="#263238" stroke-linecap="round" stroke-linejoin="round"/>
<path d="M69.285 143.82C97.8675 143.82 121.038 120.649 121.038 92.0667C121.038 63.4842 97.8675 40.3135 69.285 40.3135C40.7026 40.3135 17.5319 63.4842 17.5319 92.0667C17.5319 120.649 40.7026 143.82 69.285 143.82Z" fill="#FF725E"/>
<path d="M33.5279 146.484L34.6762 120.252C34.6762 120.252 30.2668 133.847 27.9702 137.292C25.6736 140.737 23.9512 142.08 20.6958 141.506C17.4404 140.932 11.3143 130.971 11.3143 126.004C11.3143 121.038 16.4816 108.39 17.6299 105.519C18.7782 102.648 24.91 78.3276 25.6679 76.9841C26.4258 75.6407 51.3263 68.1366 51.3263 68.1366L53.0487 64.4966C53.0487 64.4966 78.5177 61.6258 80.2401 61.821C81.9625 62.0163 81.7731 64.8812 81.7731 64.8812C81.7731 64.8812 84.8792 67.5682 85.2639 68.1424C85.6485 68.7165 99.7724 75.6464 104.176 77.1794C108.58 78.7123 108.964 80.2395 109.154 81.0089C109.343 81.7782 120.838 107.626 125.052 112.013C129.266 116.399 118.541 124.839 114.901 126.366C111.261 127.893 106.289 127.13 104.567 124.454C102.844 121.779 98.6586 118.334 98.6586 118.334L99.3648 146.909" fill="white"/>
<path d="M33.5279 146.484L34.6762 120.252C34.6762 120.252 30.2668 133.847 27.9702 137.292C25.6736 140.737 23.9512 142.08 20.6958 141.506C17.4404 140.932 11.3143 130.971 11.3143 126.004C11.3143 121.038 16.4816 108.39 17.6299 105.519C18.7782 102.648 24.91 78.3276 25.6679 76.9841C26.4258 75.6407 51.3263 68.1366 51.3263 68.1366L53.0487 64.4966C53.0487 64.4966 78.5177 61.6258 80.2401 61.821C81.9625 62.0163 81.7731 64.8812 81.7731 64.8812C81.7731 64.8812 84.8792 67.5682 85.2639 68.1424C85.6485 68.7165 99.7724 75.6464 104.176 77.1794C108.58 78.7123 108.964 80.2395 109.154 81.0089C109.343 81.7782 120.838 107.626 125.052 112.013C129.266 116.399 118.541 124.839 114.901 126.366C111.261 127.893 106.289 127.13 104.567 124.454C102.844 121.779 98.6586 118.334 98.6586 118.334L99.3648 146.909" stroke="#263238" stroke-linecap="round" stroke-linejoin="round"/>
<path d="M34.6822 120.251L34.3894 101.109" stroke="#263238" stroke-linecap="round" stroke-linejoin="round"/>
<path d="M33.0459 110.749L33.488 113.913" stroke="#263238" stroke-linecap="round" stroke-linejoin="round"/>
<path d="M31.2437 97.9629L32.6273 107.764" stroke="#263238" stroke-linecap="round" stroke-linejoin="round"/>
<path d="M96.5695 106.322C96.422 107.191 96.3452 108.071 96.3398 108.952" stroke="#263238" stroke-linecap="round" stroke-linejoin="round"/>
<path d="M101.701 92.4854C99.7736 96.0941 98.234 99.897 97.1082 103.83" stroke="#263238" stroke-linecap="round" stroke-linejoin="round"/>
<path d="M95.9548 98.6113C95.9548 98.6113 94.4218 103.779 94.617 107.993" stroke="#263238" stroke-linecap="round" stroke-linejoin="round"/>
<path d="M74.4528 74.6357C73.982 75.0951 73.4883 75.5486 72.9773 75.9792" stroke="#263238" stroke-linecap="round" stroke-linejoin="round"/>
<path d="M81.3997 65.8281C79.8456 68.3913 78.0479 70.7985 76.0315 73.0164" stroke="#263238" stroke-linecap="round" stroke-linejoin="round"/>
<path d="M64.5893 142.178L64.5491 146.673" stroke="#263238" stroke-linecap="round" stroke-linejoin="round"/>
<path d="M65.0364 90.1084L64.6116 139.421" stroke="#263238" stroke-linecap="round" stroke-linejoin="round"/>
<path d="M64.3589 73.6768L65.1225 77.3168L65.0593 87.3528" stroke="#263238" stroke-linecap="round" stroke-linejoin="round"/>
<path d="M25.679 124.655L21.6601 117.766L21.4648 125.62C21.4648 125.62 24.3413 126.378 25.679 124.655Z" fill="white" stroke="#263238" stroke-linecap="round" stroke-linejoin="round"/>
<path d="M33.3385 92.2158L30.4563 95.0234L9.97668 73.206L12.8589 70.3984L33.3385 92.2158Z" fill="#263238" stroke="#263238" stroke-linecap="round" stroke-linejoin="round"/>
<path d="M12.5526 68.9767L8.57227 72.8555L9.71427 74.0274L13.6946 70.1486L12.5526 68.9767Z" fill="white" stroke="#263238" stroke-linecap="round" stroke-linejoin="round"/>
<path d="M32.9802 92.5635L30.8297 94.6592L32.5688 96.4437L34.7193 94.3481L32.9802 92.5635Z" fill="white" stroke="#263238" stroke-linecap="round" stroke-linejoin="round"/>
<path d="M32.0588 91.6934C31.9643 91.7884 31.8521 91.8637 31.7284 91.9152C31.6048 91.9666 31.4722 91.9931 31.3382 91.9931C31.2043 91.9931 31.0717 91.9666 30.9481 91.9152C30.8244 91.8637 30.7121 91.7884 30.6177 91.6934L15.0182 74.894C14.9233 74.7996 14.8479 74.6873 14.7965 74.5637C14.7451 74.44 14.7186 74.3074 14.7186 74.1735C14.7186 74.0396 14.7451 73.907 14.7965 73.7833C14.8479 73.6596 14.9233 73.5474 15.0182 73.4529C15.1127 73.358 15.225 73.2826 15.3486 73.2312C15.4723 73.1798 15.6049 73.1533 15.7388 73.1533C15.8727 73.1533 16.0053 73.1798 16.129 73.2312C16.2526 73.2826 16.3649 73.358 16.4593 73.4529L32.0588 90.2466C32.1539 90.3415 32.2294 90.4543 32.2809 90.5784C32.3324 90.7026 32.3589 90.8356 32.3589 90.97C32.3589 91.1044 32.3324 91.2375 32.2809 91.3616C32.2294 91.4858 32.1539 91.5985 32.0588 91.6934Z" fill="white" stroke="#263238" stroke-linecap="round" stroke-linejoin="round"/>
<path d="M33.2434 95.7764L34.029 95.0113L45.0725 106.352C45.1182 106.399 45.1543 106.454 45.1786 106.515C45.2029 106.576 45.2149 106.641 45.2141 106.707C45.2132 106.772 45.1994 106.837 45.1735 106.897C45.1476 106.958 45.1101 107.012 45.0631 107.058L44.9973 107.122C44.9013 107.216 44.7721 107.267 44.6381 107.265C44.5041 107.264 44.3763 107.209 44.2828 107.113L33.2434 95.7764Z" fill="white" stroke="#263238" stroke-linecap="round" stroke-linejoin="round"/>
<path d="M14.1909 99.7596L11.5097 91.5263L13.0426 82.5238C13.0426 82.5238 17.2568 77.7412 17.831 77.546C18.4051 77.3508 23.5724 77.3565 23.5724 77.3565C23.5724 77.3565 24.5312 76.9718 24.5312 77.9307C24.5489 78.1832 24.506 78.4364 24.4062 78.6691C24.3063 78.9018 24.1523 79.1072 23.9571 79.2684C23.9571 79.2684 26.0642 79.4636 26.6383 79.4636C27.2124 79.4636 27.7866 79.8483 27.7866 80.8014C27.7866 81.7544 26.2536 82.1449 25.6795 82.3343C25.1053 82.5238 22.9982 83.2931 22.9982 83.2931L19.7429 86.9332H23.3829C24.0963 86.9877 24.8023 87.1147 25.49 87.3121C25.869 87.8863 26.0642 89.9934 26.0642 89.9934C26.7034 91.0275 27.034 92.2226 27.0172 93.4382C27.0172 95.5396 27.5914 96.6936 27.0172 96.8831C26.4431 97.0726 25.1053 98.0314 25.1053 97.0726C25.0969 96.431 25.0335 95.7914 24.9159 95.1607L22.8088 95.5396L22.0394 97.0726C22.0394 97.0726 23.7619 100.902 23.7619 102.435C23.7619 103.968 22.9982 109.135 22.9982 109.135L22.2346 123.69C20.5028 123.58 18.8103 123.125 17.2568 122.352C14.3861 121.009 11.3202 116.036 11.3202 116.036L14.765 104.163L14.1909 99.7596Z" fill="#FF725E" stroke="#263238" stroke-linecap="round" stroke-linejoin="round"/>
<path d="M17.0616 113.545C15.4483 113.281 13.9612 112.041 12.8359 110.807L11.3202 116.037C11.3202 116.037 14.3804 121.015 17.2511 122.353C18.8067 123.126 20.501 123.581 22.2346 123.69L22.8088 112.667C21.2701 113.258 19.0424 113.878 17.0616 113.545Z" fill="#D1D1D1" stroke="#263238" stroke-linecap="round" stroke-linejoin="round"/>
<path d="M19.5536 93.4441C19.5536 93.4441 19.9325 92.4852 20.5067 92.2958C21.0808 92.1063 26.2481 90.7686 26.2481 90.7686" stroke="#263238" stroke-linecap="round" stroke-linejoin="round"/>
<path d="M17.2574 89.9937L17.8316 88.0818L19.7435 86.9277" stroke="#263238" stroke-linecap="round" stroke-linejoin="round"/>
<path d="M14.954 86.5488C14.954 86.5488 17.4458 82.1451 18.2094 81.3815C18.973 80.6179 23.3766 79.6591 23.9508 79.2744" stroke="#263238" stroke-linecap="round" stroke-linejoin="round"/>
<path d="M22.2346 123.696L25.6795 124.655C25.6795 124.655 26.6383 138.251 26.6383 139.973C26.6383 141.696 22.6193 143.803 18.2099 144.187C13.8005 144.572 6.91077 141.121 6.91077 138.061C6.91077 135.001 11.4752 114.137 11.4752 114.137C11.4752 114.137 14.765 122.737 22.2346 123.696Z" fill="white" stroke="#263238" stroke-linecap="round" stroke-linejoin="round"/>
<path d="M74.5103 115.078C72.8711 115.039 71.2509 114.717 69.722 114.124C67.9375 113.399 66.0742 112.884 64.17 112.592C63.0218 112.396 60.9147 113.355 59.3817 112.396C57.8487 111.437 56.511 110.674 58.997 109.715C61.4831 108.756 65.5078 109.91 67.035 110.1C68.5622 110.289 71.4387 109.715 71.4387 109.715L74.5103 115.078Z" fill="#FF725E" stroke="#263238" stroke-linecap="round" stroke-linejoin="round"/>
<path d="M49.2309 116.996C57.1613 116.996 63.5902 114.638 63.5902 111.731C63.5902 108.823 57.1613 106.466 49.2309 106.466C41.3005 106.466 34.8716 108.823 34.8716 111.731C34.8716 114.638 41.3005 116.996 49.2309 116.996Z" fill="#263238" stroke="#263238" stroke-linecap="round" stroke-linejoin="round"/>
<path d="M49.2307 116.232C56.6347 116.232 62.6369 114.217 62.6369 111.731C62.6369 109.245 56.6347 107.229 49.2307 107.229C41.8266 107.229 35.8245 109.245 35.8245 111.731C35.8245 114.217 41.8266 116.232 49.2307 116.232Z" fill="white" stroke="#263238" stroke-linecap="round" stroke-linejoin="round"/>
<path d="M91.9349 128.87C91.9349 128.87 91.4412 120.2 91.4412 118.851C91.4412 117.502 97.728 119.752 97.728 119.752C97.728 119.752 94.4497 128.1 91.9349 128.87Z" fill="white" stroke="#263238" stroke-linecap="round" stroke-linejoin="round"/>
<path d="M95.2134 111.443C95.2134 111.443 88.3237 109.526 86.4061 108.762C84.4884 107.999 75.107 103.784 73.3845 102.63C71.6621 101.476 66.6785 101.103 66.6785 101.103C66.6785 101.103 62.2749 99.1855 61.7007 99.1855C61.1266 99.1855 52.8934 102.441 51.171 103.205C49.4485 103.968 49.638 105.696 50.4016 106.27C51.1652 106.845 58.6406 103.4 58.6406 103.4L56.5335 109.141C56.5335 109.141 53.8522 111.248 54.811 112.586C55.7698 113.924 58.6463 111.627 59.5994 111.053C60.5524 110.479 66.1101 107.798 66.1101 107.798C66.1101 107.798 61.1323 113.35 60.1735 114.883C59.2147 116.416 61.517 116.416 62.2806 116.031C63.0442 115.646 68.4067 111.627 68.4067 111.627C68.4067 111.627 76.261 116.99 78.3681 116.99C80.4752 116.99 83.92 115.646 83.92 115.646L95.7876 122.358C95.7876 122.358 97.6995 119.103 97.8947 116.8C98.0899 114.498 98.0841 111.633 98.0841 111.633L95.2134 111.443Z" fill="#FF725E" stroke="#263238" stroke-linecap="round" stroke-linejoin="round"/>
<path d="M56.5103 109.142L60.9139 105.312L64.5482 103.59" stroke="#263238" stroke-linecap="round" stroke-linejoin="round"/>
<path d="M58.6177 103.4L59.5707 101.293" stroke="#263238" stroke-linecap="round" stroke-linejoin="round"/>
<path d="M62.6365 104.738L63.4001 102.441" stroke="#263238" stroke-linecap="round" stroke-linejoin="round"/>
<path d="M68.3792 111.633L73.5522 110.289" stroke="#263238" stroke-linecap="round" stroke-linejoin="round"/>
<path d="M66.0813 107.803L68.7625 106.271" stroke="#263238" stroke-linecap="round" stroke-linejoin="round"/>
<path d="M93.1634 110.87C93.8497 112.84 93.9632 114.964 93.4907 116.996C93.2064 118.158 92.762 119.275 92.1702 120.315L95.7873 122.359C95.7873 122.359 97.6992 119.103 97.8944 116.801C98.0896 114.499 98.0838 111.634 98.0838 111.634L95.2131 111.444L93.1634 110.87Z" fill="#D1D1D1" stroke="#263238" stroke-linecap="round" stroke-linejoin="round"/>
<path d="M117.031 104.548C117.031 104.548 111.864 105.886 109.751 107.04C107.638 108.194 99.2209 109.336 98.4573 109.715C97.6937 110.094 93.1752 110.863 93.1752 110.863C93.1752 110.863 95.3914 115.457 94.2431 119.097C93.0948 122.737 91.9465 128.857 91.9465 128.857C91.9465 128.857 101.707 131.538 110.135 129.431C118.564 127.324 124.116 121.198 125.637 120.429C127.159 119.659 127.934 116.41 127.934 114.877C127.934 113.344 122.956 107.792 121.808 107.413" fill="white"/>
<path d="M117.031 104.548C117.031 104.548 111.864 105.886 109.751 107.04C107.638 108.194 99.2209 109.336 98.4573 109.715C97.6937 110.094 93.1752 110.863 93.1752 110.863C93.1752 110.863 95.3914 115.457 94.2431 119.097C93.0948 122.737 91.9465 128.857 91.9465 128.857C91.9465 128.857 101.707 131.538 110.135 129.431C118.564 127.324 124.116 121.198 125.637 120.429C127.159 119.659 127.934 116.41 127.934 114.877C127.934 113.344 122.956 107.792 121.808 107.413" stroke="#263238" stroke-linecap="round" stroke-linejoin="round"/>
<path d="M62.0628 23.8928C62.0628 23.8928 56.5109 25.6152 53.2555 28.6811C50.0001 31.747 50.0001 43.6088 50.0001 45.1475C50.0001 46.6862 49.426 55.8725 49.8049 58.5537C50.1838 61.235 57.8429 72.5284 63.0102 72.7236C68.1775 72.9188 76.2154 66.7869 77.5589 64.8693C79.1781 62.5752 80.5884 60.1407 81.7731 57.5949C82.5368 55.6773 83.4956 48.7876 83.6908 46.6862C83.7945 44.9002 83.7945 43.1097 83.6908 41.3237C83.6908 41.3237 84.8391 35.7718 82.732 32.1374C80.6249 28.5031 74.694 24.0995 69.8999 23.3301C65.1058 22.5607 62.0628 23.8928 62.0628 23.8928Z" fill="white" stroke="#263238" stroke-linecap="round" stroke-linejoin="round"/>
<path d="M50.0001 42.2765C50.0001 42.2765 54.0191 38.8316 63.0217 38.6364C68.42 38.5421 73.688 40.2988 77.9494 43.6142C77.9494 43.6142 79.2929 42.6554 78.9082 47.8284C78.5235 53.0015 77.9494 54.144 73.7409 55.677C69.5325 57.2099 60.1452 58.3582 56.1262 57.2099C52.1072 56.0616 49.9829 51.6637 49.8107 50.3202C49.6384 48.9767 50.0001 42.2765 50.0001 42.2765Z" fill="#D1D1D1" stroke="#263238" stroke-linecap="round" stroke-linejoin="round"/>
<path d="M50.0006 40.5546C55.1064 42.5855 60.5883 43.4979 66.0766 43.2301C75.4581 42.8512 82.9449 40.1125 83.9037 39.923C84.8625 39.7336 84.0989 41.4215 84.0989 41.4215L78.7135 44.1889C78.7135 44.1889 78.7135 49.3562 77.5652 51.0786C76.4169 52.801 73.9309 53.9493 71.2496 53.9493C68.5684 53.9493 66.0824 52.4221 64.5437 51.0786C63.9064 50.5045 62.4423 50.6939 61.8624 51.4633C61.2825 52.2326 60.5247 53.3752 58.0329 53.1857C55.5411 52.9963 52.6761 52.4164 51.5221 50.8892C50.3681 49.3619 49.9949 45.1477 49.9949 45.1477C49.9949 45.1477 49.8054 41.3182 50.0006 40.5546Z" fill="white" stroke="#263238" stroke-linecap="round" stroke-linejoin="round"/>
<path d="M57.4235 69.7325C58.0057 71.3333 59.0215 72.7407 60.3574 73.7974C62.6138 75.6002 63.9688 76.2777 66.449 75.6002C68.9293 74.9227 76.8295 70.8636 74.1196 71.3114C72.5158 71.5831 70.9331 71.9668 69.3829 72.4597C69.3829 72.4597 74.3493 69.7497 77.507 66.8158C78.4029 66.0149 79.0337 64.9603 79.3158 63.7922C79.5978 62.6241 79.5176 61.3978 79.0859 60.2764C79.0859 60.2764 57.1996 67.0283 55.5978 66.1211C53.9959 65.214 57.4235 69.7325 57.4235 69.7325Z" fill="#263238"/>
<path d="M83.7311 46.68C83.7885 46.0255 83.8115 45.2562 83.8115 44.5098C83.3063 45.1241 81.0843 47.8168 79.9016 49.1661C78.5581 50.699 75.4922 53.1851 63.4295 52.6109C51.3667 52.0368 49.8338 50.3143 49.8338 50.3143C49.7132 53.4319 49.6271 57.0318 49.8338 58.5475C50.2184 61.2288 57.8718 72.5222 63.039 72.7174C68.2063 72.9126 76.2443 66.7808 77.5878 64.8631C79.2069 62.569 80.6173 60.1345 81.802 57.5887L80.2691 59.8853L80.8432 50.5038L83.7311 46.68Z" fill="#FF725E" stroke="#263238" stroke-linecap="round" stroke-linejoin="round"/>
<path d="M61.4895 47.0595C61.4895 47.0595 59.1929 44.1888 54.4045 44.9581" stroke="#263238" stroke-linecap="round" stroke-linejoin="round"/>
<path d="M67.4248 47.0591C67.4248 47.0591 70.485 45.3367 75.658 46.1061" stroke="#263238" stroke-linecap="round" stroke-linejoin="round"/>
<path d="M54.978 48.5928C54.978 48.5928 56.7005 51.4635 60.1453 49.7411" stroke="#263238" stroke-linecap="round" stroke-linejoin="round"/>
<path d="M68.1887 49.9355C68.1887 49.9355 70.1064 52.9957 74.6995 49.9355" stroke="#263238" stroke-linecap="round" stroke-linejoin="round"/>
<path d="M12.6461 146.822H122.244" stroke="#263238" stroke-linecap="round" stroke-linejoin="round"/>
<path d="M142.248 242.486C170.83 242.486 194.001 219.315 194.001 190.733C194.001 162.15 170.83 138.979 142.248 138.979C113.665 138.979 90.4946 162.15 90.4946 190.733C90.4946 219.315 113.665 242.486 142.248 242.486Z" fill="#FF725E"/>
<path d="M114.654 140.058C114.654 140.058 107.764 135.465 99.9958 135.66C92.2277 135.856 89.311 143.83 88.8977 146.133C88.4843 148.435 89.1101 149.692 84.5055 149.692C79.9009 149.692 70.261 148.854 66.4946 153.884C62.7282 158.913 62.3034 164.563 65.6564 168.122C69.0094 171.682 70.2495 173.146 70.2495 173.146C70.2495 173.146 66.6898 176.499 68.3663 181.104C70.0428 185.708 76.1172 187.804 80.0961 187.804C84.0749 187.804 90.1435 182.149 91.82 178.801C93.4965 175.454 98.3136 176.505 102.08 171.263C105.846 166.021 103.969 159.533 103.337 155.974C102.706 152.414 103.55 145.065 108.574 143.205C113.597 141.344 114.436 141.316 114.436 141.316L114.654 140.058Z" fill="#263238" stroke="#263238" stroke-linecap="round" stroke-linejoin="round"/>
<path d="M56.229 242.043L71.306 215.03C71.8032 210.402 72.7846 205.84 74.2341 201.417C76.7489 193.459 79.6827 180.685 83.2424 176.287C86.8021 171.889 98.7442 167.91 98.7442 167.91C98.7442 167.91 110.262 172.94 113.402 175.242C116.543 177.544 121.779 181.523 123.45 185.083C125.12 188.642 126.596 197.226 129.317 200.366C132.039 203.507 138.113 209.794 137.901 215.656C137.688 221.518 136.643 223.82 136.643 225.29C136.643 226.76 133.715 224.98 128.272 225.606C122.83 226.232 118.954 228.023 118.512 228.649C118.07 229.274 107.534 246.235 107.534 246.235" fill="white"/>
<path d="M56.229 242.043L71.306 215.03C71.8032 210.402 72.7846 205.84 74.2341 201.417C76.7489 193.459 79.6827 180.685 83.2424 176.287C86.8021 171.889 98.7442 167.91 98.7442 167.91C98.7442 167.91 110.262 172.94 113.402 175.242C116.543 177.544 121.779 181.523 123.45 185.083C125.12 188.642 126.596 197.226 129.317 200.366C132.039 203.507 138.113 209.794 137.901 215.656C137.688 221.518 136.643 223.82 136.643 225.29C136.643 226.76 133.715 224.98 128.272 225.606C122.83 226.232 118.954 228.023 118.512 228.649C118.07 229.274 107.534 246.235 107.534 246.235" stroke="#263238" stroke-linecap="round" stroke-linejoin="round"/>
<path d="M123.863 194.505C123.863 194.505 125.959 206.235 126.378 209.163C126.797 212.091 120.935 224.033 119.488 225.29" stroke="#263238" stroke-linecap="round" stroke-linejoin="round"/>
<path d="M119.052 194.505C119.052 194.505 118.633 204.346 119.258 209.163C119.884 213.98 121.142 220.071 120.097 221.937" stroke="#263238" stroke-linecap="round" stroke-linejoin="round"/>
<path d="M125.752 212.303C125.752 212.303 129.312 209.375 133.916 210.632" stroke="#263238" stroke-linecap="round" stroke-linejoin="round"/>
<path d="M127.636 209.794C127.636 209.794 130.357 208.117 132.872 208.117" stroke="#263238" stroke-linecap="round" stroke-linejoin="round"/>
<path d="M119.465 178.17L121.354 181.942L123.65 192.621L120.297 186.759L118.627 193.878L116.531 180.897C116.531 180.897 117.375 176.499 119.465 178.17Z" fill="white" stroke="#263238" stroke-linecap="round" stroke-linejoin="round"/>
<path d="M111.095 158.907C111.095 158.907 108.58 161.204 106.697 162.048C104.814 162.892 102.506 163.724 102.506 163.724L114.023 186.759L118.616 193.878C118.616 193.878 118.404 187.804 118.404 185.708C118.377 184.234 118.237 182.763 117.984 181.31L123.427 174.61C123.427 174.61 125.104 159.108 123.64 156.605C122.176 154.102 113.816 156.186 111.095 158.907Z" fill="white" stroke="#263238" stroke-linecap="round" stroke-linejoin="round"/>
<path d="M123.961 168.777L119.942 165.183C119.942 165.183 119.035 166.044 118.392 171.624C118.179 174.146 118.72 176.674 119.948 178.887L123.393 174.61C123.393 174.61 123.726 172.015 123.961 168.777Z" fill="#263238" stroke="#263238" stroke-linecap="round" stroke-linejoin="round"/>
<path d="M149.406 152.242C149.406 152.242 147.919 159.453 146.65 161.784C145.381 164.115 143.59 165.395 143.441 166.429C143.01 170.006 143.022 171.516 141.96 173.003C140.897 174.49 134.961 178.095 131.355 178.939C127.749 179.783 125.614 180.426 124.563 179.364C123.512 178.302 119.689 172.79 119.689 170.459C119.689 168.128 119.051 167.491 119.689 166.004C120.326 164.517 120.326 160.699 120.326 160.699C120.326 160.699 120.326 158.793 122.869 155.612C125.413 152.431 130.293 151.593 133.899 151.593C137.504 151.593 137.918 149.044 141.747 147.987C145.577 146.931 148.344 150.117 149.406 152.242Z" fill="white" stroke="#263238" stroke-linecap="round" stroke-linejoin="round"/>
<path d="M141.064 164.971C140.622 165.711 139.973 166.148 139.623 165.941C139.273 165.734 139.348 164.953 139.795 164.218C140.243 163.484 140.886 163.042 141.236 163.248C141.587 163.455 141.512 164.224 141.064 164.971Z" fill="#263238"/>
<path d="M140.059 160.889C140.059 160.889 142.741 159.78 144.13 162.278" stroke="#263238" stroke-linecap="round" stroke-linejoin="round"/>
<path d="M141.983 173.026C142.517 172.102 142.874 171.085 143.034 170.029C141.386 169.128 137.757 167.003 135.828 164.753C133.285 161.784 128.198 154.573 128.198 154.573L127.365 155.635L131.608 162.634C131.608 162.634 126.728 166.653 123.335 166.653C120.694 166.653 120.108 165.631 119.982 165.172C119.921 165.46 119.837 165.742 119.729 166.016C119.092 167.503 119.729 168.134 119.729 170.471C119.729 172.808 123.547 178.32 124.604 179.376C125.66 180.433 127.79 179.801 131.396 178.951C135.001 178.102 140.921 174.513 141.983 173.026Z" fill="#FF725E" stroke="#263238" stroke-linecap="round" stroke-linejoin="round"/>
<path d="M126.498 157.329C128.355 156.234 130.496 155.719 132.648 155.847C136.253 156.06 140.496 157.541 141.558 155.635C142.62 153.729 142.833 150.117 146.014 150.967C149.194 151.817 149.619 153.723 149.619 153.723C149.619 153.723 156.193 153.511 156.83 149.905C157.468 146.299 153.862 140.575 151.525 140.145C149.189 139.714 147.07 139.295 147.07 139.295C147.07 139.295 139.032 131.021 129.467 131.257C119.902 131.492 115.687 135.276 113.351 143.348C111.014 151.421 112.076 154.378 110.164 157.128C108.252 159.878 107.196 162.645 111.887 162.22C116.577 161.796 119.735 158.827 122.066 157.765C123.455 157.133 125.013 156.979 126.498 157.329Z" fill="#263238" stroke="#263238" stroke-linecap="round" stroke-linejoin="round"/>
<path d="M127.135 158.816C127.135 158.816 129.679 155.635 127.348 152.242C125.017 148.849 118.224 155.423 119.31 159.028C120.395 162.634 123.128 162.209 123.128 162.209" fill="white"/>
<path d="M127.135 158.816C127.135 158.816 129.679 155.635 127.348 152.242C125.017 148.849 118.224 155.423 119.31 159.028C120.395 162.634 123.128 162.209 123.128 162.209" stroke="#263238" stroke-linecap="round" stroke-linejoin="round"/>
<path d="M104.182 161.003L116.956 186.966L112.558 194.085L97.0623 167.284L104.182 161.003Z" fill="white" stroke="#263238" stroke-linecap="round" stroke-linejoin="round"/>
<path d="M119.683 226.312C119.683 226.312 119.39 221.3 125.781 220.801C132.171 220.301 137.126 223.051 137.396 227.288C137.665 231.526 124.615 228.793 123.163 228.793C121.71 228.793 119.683 226.312 119.683 226.312Z" fill="white" stroke="#263238" stroke-linecap="round" stroke-linejoin="round"/>
<path d="M191.083 239.775H106.064V244.552H190.876" fill="white"/>
<path d="M191.083 239.775H106.064V244.552H190.876" stroke="#263238" stroke-linecap="round" stroke-linejoin="round"/>
<path d="M160.93 188.854L138.733 198.064V232.409H147.11V200.159L162.606 191.576L160.93 188.854Z" fill="white" stroke="#263238" stroke-linecap="round" stroke-linejoin="round"/>
<path d="M172.499 221.547C172.349 221.477 172.222 221.366 172.133 221.227C172.044 221.087 171.996 220.925 171.996 220.76C171.996 220.595 172.044 220.433 172.133 220.293C172.222 220.154 172.349 220.043 172.499 219.974C172.499 219.745 172.408 219.526 172.246 219.365C172.085 219.203 171.866 219.112 171.638 219.112H164.254C164.27 220.001 163.965 220.866 163.393 221.547C163.393 221.712 163.441 221.874 163.53 222.014C163.62 222.153 163.748 222.264 163.898 222.333C163.747 222.4 163.619 222.51 163.529 222.648C163.439 222.787 163.392 222.949 163.393 223.114C163.543 223.184 163.67 223.295 163.759 223.434C163.848 223.573 163.895 223.735 163.895 223.901C163.895 224.066 163.848 224.228 163.759 224.367C163.67 224.507 163.543 224.618 163.393 224.687C163.393 224.853 163.441 225.015 163.53 225.154C163.62 225.294 163.748 225.405 163.898 225.474C163.747 225.541 163.619 225.65 163.529 225.789C163.439 225.928 163.392 226.089 163.393 226.255C163.392 226.368 163.414 226.481 163.457 226.586C163.5 226.691 163.563 226.787 163.643 226.867C163.723 226.948 163.818 227.012 163.923 227.055C164.028 227.099 164.14 227.122 164.254 227.122H171.638C171.751 227.122 171.864 227.099 171.968 227.055C172.073 227.012 172.168 226.948 172.249 226.867C172.329 226.787 172.392 226.691 172.435 226.586C172.478 226.481 172.499 226.368 172.499 226.255C172.5 226.089 172.452 225.928 172.362 225.789C172.273 225.65 172.144 225.541 171.993 225.474C171.843 225.073 171.81 224.638 171.9 224.22C171.99 223.801 172.197 223.418 172.499 223.114C172.5 222.949 172.452 222.787 172.362 222.648C172.273 222.51 172.144 222.4 171.993 222.333C172.144 222.264 172.272 222.153 172.361 222.014C172.451 221.874 172.498 221.712 172.499 221.547Z" fill="#263238" stroke="#263238" stroke-linecap="round" stroke-linejoin="round"/>
<path d="M179.256 226.967H138.578V235.292H179.256V226.967Z" fill="white" stroke="#263238" stroke-linecap="round" stroke-linejoin="round"/>
<path d="M179.256 230.888H138.578V235.286H179.256V230.888Z" fill="#263238" stroke="#263238" stroke-linecap="round" stroke-linejoin="round"/>
<path d="M146.116 235.131H141.247V239.684H146.116V235.131Z" fill="#263238" stroke="#263238" stroke-linecap="round" stroke-linejoin="round"/>
<path d="M160.878 235.131H156.009V239.684H160.878V235.131Z" fill="#263238" stroke="#263238" stroke-linecap="round" stroke-linejoin="round"/>
<path d="M175.64 235.131H170.771V239.684H175.64V235.131Z" fill="#263238" stroke="#263238" stroke-linecap="round" stroke-linejoin="round"/>
<path d="M180.043 210.942H143.918V212.826H180.043V210.942Z" fill="white" stroke="#263238" stroke-linecap="round" stroke-linejoin="round"/>
<path d="M177.999 212.67H147.058V215.495H177.999V212.67Z" fill="#263238" stroke="#263238" stroke-linecap="round" stroke-linejoin="round"/>
<path d="M145.687 164.473L142.293 168.177L163.598 187.699L166.992 183.995L145.687 164.473Z" fill="#263238" stroke="#263238" stroke-linecap="round" stroke-linejoin="round"/>
<path d="M166.814 194.36H162.835V204.62H166.814V194.36Z" fill="#263238" stroke="#263238" stroke-linecap="round" stroke-linejoin="round"/>
<path d="M166.385 204.765H163.296V206.481H166.385V204.765Z" fill="#263238" stroke="#263238" stroke-linecap="round" stroke-linejoin="round"/>
<path d="M170.48 191.231L166.838 192.833L170.968 202.225L174.611 200.623L170.48 191.231Z" fill="#263238" stroke="#263238" stroke-linecap="round" stroke-linejoin="round"/>
<path d="M174.266 200.928L171.439 202.172L172.13 203.743L174.958 202.5L174.266 200.928Z" fill="#263238" stroke="#263238" stroke-linecap="round" stroke-linejoin="round"/>
<path d="M163.863 180.685L159.672 184.876V196.812L173.078 193.459V185.502L163.863 180.685Z" fill="white" stroke="#263238" stroke-linecap="round" stroke-linejoin="round"/>
<path d="M173.078 190.348L159.672 193.81V196.813L173.078 193.459V190.348Z" fill="#263238" stroke="#263238" stroke-linecap="round" stroke-linejoin="round"/>
<path d="M137.057 224.032C137.057 224.032 143.338 219.841 144.595 218.377C145.853 216.913 150.457 211.051 151.715 210.839C152.972 210.626 157.37 210.632 158.208 210.632C159.047 210.632 161.768 213.141 162.394 213.56C163.02 213.979 163.232 215.857 162.606 216.075C161.98 216.293 158.627 214.611 158.627 214.611L152.972 215.656C152.972 215.656 161.556 217.751 162.158 218.17C162.761 218.589 162.578 220.679 162.578 220.679L160.092 221.937C160.092 221.937 162.606 221.73 162.606 223.194C162.606 224.658 162.606 226.128 161.556 226.128H160.511C160.511 226.128 162.807 228.425 162.187 229.056C161.446 229.738 160.473 230.114 159.466 230.107C158.415 230.107 155.906 231.358 152.972 232.403C150.038 233.448 145.646 235.331 143.338 235.751C141.03 236.17 137.688 236.589 137.688 236.589C137.688 236.589 137.476 231.146 137.057 229.469C136.638 227.793 135.8 224.652 135.8 224.652L137.057 224.032Z" fill="white" stroke="#263238" stroke-linecap="round" stroke-linejoin="round"/>
<path d="M160.091 221.938L155.647 222.741" stroke="#263238" stroke-linecap="round" stroke-linejoin="round"/>
<path d="M160.51 226.128L156.124 227.024" stroke="#263238" stroke-linecap="round" stroke-linejoin="round"/>
<path d="M85.7515 180.897C83.0301 185.083 79.8895 194.717 79.8895 199.534C79.8895 204.351 75.9107 222.775 75.4916 229.476C75.0725 236.176 75.2849 240.384 79.4704 241.205C83.6559 242.026 96.8497 243.089 102.717 242.457C108.585 241.825 115.308 241.831 124.495 241.831C133.681 241.831 138.108 241.205 138.108 241.205C138.697 238.229 139.115 235.221 139.359 232.197C139.572 228.431 138.108 222.775 137.476 222.775C136.844 222.775 126.797 224.452 118.214 225.497C109.63 226.542 105.439 225.078 103.975 224.452C103.319 224.12 102.609 223.907 101.879 223.82V221.099L99.3645 220.892L101.661 206.234C101.661 206.234 103.55 204.977 104.176 203.513C104.802 202.049 105.64 194.505 105.221 189.9C104.802 185.295 100.404 182.568 100.404 182.568" fill="white"/>
<path d="M85.7515 180.897C83.0301 185.083 79.8895 194.717 79.8895 199.534C79.8895 204.351 75.9107 222.775 75.4916 229.476C75.0725 236.176 75.2849 240.384 79.4704 241.205C83.6559 242.026 96.8497 243.089 102.717 242.457C108.585 241.825 115.308 241.831 124.495 241.831C133.681 241.831 138.108 241.205 138.108 241.205C138.697 238.229 139.115 235.221 139.359 232.197C139.572 228.431 138.108 222.775 137.476 222.775C136.844 222.775 126.797 224.452 118.214 225.497C109.63 226.542 105.439 225.078 103.975 224.452C103.319 224.12 102.609 223.907 101.879 223.82V221.099L99.3644 220.892L101.661 206.234C101.661 206.234 103.55 204.977 104.176 203.513C104.802 202.049 105.64 194.505 105.221 189.9C104.802 185.295 100.404 182.568 100.404 182.568" stroke="#263238" stroke-linecap="round" stroke-linejoin="round"/>
<path d="M98.9444 222.568C98.9444 222.568 97.2679 225.496 90.9868 228.011" stroke="#263238" stroke-linecap="round" stroke-linejoin="round"/>
<path d="M99.5761 224.871C99.5761 224.871 90.1487 231.99 88.0588 234.712" stroke="#263238" stroke-linecap="round" stroke-linejoin="round"/>
<path d="M80.2859 227.592C80.2859 227.592 88.2435 227.38 93.8988 223.82" stroke="#263238" stroke-linecap="round" stroke-linejoin="round"/>
<path d="M100.622 205.396C100.622 205.396 98.7392 202.462 93.9221 199.74" stroke="#263238" stroke-linecap="round" stroke-linejoin="round"/>
</g>
</svg>
