<svg width="80" height="81" viewBox="0 0 80 81" fill="none" xmlns="http://www.w3.org/2000/svg">
<g id="fluent:bot-20-regular">
<path id="Vector" d="M48 22.5C46.9391 22.5 45.9217 22.9214 45.1716 23.6716C44.4214 24.4217 44 25.4391 44 26.5C44 27.5609 44.4214 28.5783 45.1716 29.3284C45.9217 30.0786 46.9391 30.5 48 30.5C49.0609 30.5 50.0783 30.0786 50.8284 29.3284C51.5786 28.5783 52 27.5609 52 26.5C52 25.4391 51.5786 24.4217 50.8284 23.6716C50.0783 22.9214 49.0609 22.5 48 22.5ZM28 26.5C28 25.4391 28.4214 24.4217 29.1716 23.6716C29.9217 22.9214 30.9391 22.5 32 22.5C33.0609 22.5 34.0783 22.9214 34.8284 23.6716C35.5786 24.4217 36 25.4391 36 26.5C36 27.5609 35.5786 28.5783 34.8284 29.3284C34.0783 30.0786 33.0609 30.5 32 30.5C30.9391 30.5 29.9217 30.0786 29.1716 29.3284C28.4214 28.5783 28 27.5609 28 26.5ZM42 10.5C42 9.96957 41.7893 9.46086 41.4142 9.08579C41.0391 8.71071 40.5304 8.5 40 8.5C39.4696 8.5 38.9609 8.71071 38.5858 9.08579C38.2107 9.46086 38 9.96957 38 10.5V12.5H26C24.4087 12.5 22.8826 13.1321 21.7574 14.2574C20.6321 15.3826 20 16.9087 20 18.5V34.5C20 36.0913 20.6321 37.6174 21.7574 38.7426C22.8826 39.8679 24.4087 40.5 26 40.5H54C55.5913 40.5 57.1174 39.8679 58.2426 38.7426C59.3679 37.6174 60 36.0913 60 34.5V18.5C60 16.9087 59.3679 15.3826 58.2426 14.2574C57.1174 13.1321 55.5913 12.5 54 12.5H42V10.5ZM26 16.5H54C54.5304 16.5 55.0391 16.7107 55.4142 17.0858C55.7893 17.4609 56 17.9696 56 18.5V34.5C56 35.0304 55.7893 35.5391 55.4142 35.9142C55.0391 36.2893 54.5304 36.5 54 36.5H26C25.4696 36.5 24.9609 36.2893 24.5858 35.9142C24.2107 35.5391 24 35.0304 24 34.5V18.5C24 17.9696 24.2107 17.4609 24.5858 17.0858C24.9609 16.7107 25.4696 16.5 26 16.5ZM41 72.492C51.464 72.36 57.78 70.112 61.488 66.732C64.988 63.532 65.844 59.624 65.98 56.508H66V53.748C65.9989 51.8285 65.2357 49.988 63.878 48.6311C62.5204 47.2742 60.6795 46.512 58.76 46.512H46V46.5H34V46.512H21.24C17.24 46.512 14 49.752 14 53.752V56.508H14.02C14.156 59.628 15.012 63.536 18.512 66.728C22.22 70.112 28.536 72.36 39 72.492V72.5H41V72.492ZM21.24 50.512H58.76C59.6193 50.512 60.4434 50.8534 61.051 51.461C61.6586 52.0686 62 52.8927 62 53.752V55.5C62 58.26 61.476 61.324 58.792 63.776C56.04 66.284 50.64 68.5 40 68.5C29.36 68.5 23.96 66.284 21.208 63.776C18.528 61.324 18 58.256 18 55.5V53.748C18.0011 52.8894 18.3429 52.0663 18.9504 51.4596C19.5579 50.8528 20.3814 50.512 21.24 50.512Z" fill="#FF0000"/>
</g>
</svg>
