<svg width="80" height="81" viewBox="0 0 80 81" fill="none" xmlns="http://www.w3.org/2000/svg">
<g id="gis:search-data" clip-path="url(#clip0_6459_58301)">
<path id="gisSearchData0" d="M47.7016 17.868C43.0057 17.9013 38.4478 19.4596 34.7144 22.308C25.1648 29.58 23.308 43.2896 30.58 52.8392C37.3864 61.7784 49.816 63.9328 59.2112 58.2096L61.0048 60.5656C60.8302 60.9716 60.748 61.3739 60.7636 61.7446C60.7792 62.1153 60.8923 62.4457 61.0952 62.7128L74.1144 79.8088C74.2986 80.051 74.5529 80.2362 74.8627 80.3537C75.1725 80.4712 75.5316 80.5188 75.9197 80.4938C76.3078 80.4687 76.7172 80.3715 77.1245 80.2078C77.5318 80.044 77.9291 79.8168 78.2936 79.5392C79.0295 78.9789 79.5874 78.2474 79.8447 77.5055C80.102 76.7636 80.0376 76.0722 79.6656 75.5832L66.6472 58.4856C66.4436 58.2186 66.1551 58.0214 65.8016 57.9076C65.4482 57.7937 65.0381 57.7661 64.6 57.8264L62.8064 55.4704C70.8224 47.936 72.052 35.3816 65.2456 26.4424C61.6096 21.6672 56.364 18.816 50.8344 18.0672C49.7961 17.9266 48.7492 17.8603 47.7016 17.8688V17.868ZM48.428 22.6936C48.4224 22.8232 48.4064 22.9416 48.4064 23.0768C48.4064 24.4864 48.7088 25.576 49.3168 26.344C49.9248 27.108 50.7912 27.4888 51.9128 27.4888C53.0296 27.4888 53.892 27.108 54.5 26.344C54.9032 25.8352 55.1608 25.1712 55.2968 24.38C56.1344 24.7856 56.944 25.26 57.7144 25.808H57.3328V27.3232H59.5504C60.6245 28.3425 61.5624 29.4963 62.3408 30.756C62.0192 30.94 61.736 31.1816 61.4952 31.4856C60.8872 32.2496 60.5832 33.3376 60.5832 34.7512C60.5832 36.1616 60.8872 37.2512 61.4952 38.0184C62.1032 38.7824 62.9672 39.164 64.0888 39.164C64.3576 39.164 64.6088 39.14 64.8488 39.0952C64.9695 42.6734 63.9507 46.1975 61.9392 49.1592H61.3472V42.164H59.2608L57.2832 42.5752V44.0672L59.272 43.6576V49.1592H57.3328V50.6752H60.7768C59.9982 51.579 59.1273 52.3989 58.1784 53.1216C57.8368 53.3816 57.488 53.6216 57.1344 53.8512C56.7576 53.7371 56.3656 53.6812 55.972 53.6856C54.8504 53.6856 53.9864 54.068 53.3784 54.836C53.1464 55.1264 52.9728 55.48 52.8296 55.8656C52.2704 56.036 51.7056 56.1752 51.1376 56.2856C50.9856 55.7176 50.7568 55.2304 50.4416 54.836C49.8336 54.068 48.9704 53.6856 47.8528 53.6856C46.732 53.6856 45.8672 54.068 45.2592 54.836C44.9512 55.2232 44.7232 55.696 44.5704 56.2496C43.3604 56.0107 42.1803 55.64 41.0512 55.144V53.84H38.9656L38.7256 53.8904C37.3992 53.0298 36.1998 51.9877 35.1624 50.7944C35.3304 50.8136 35.4936 50.8408 35.6744 50.8408C36.792 50.8408 37.656 50.4576 38.264 49.6936C38.872 48.9256 39.176 47.8376 39.176 46.428C39.176 45.0144 38.872 43.9264 38.264 43.1624C37.656 42.3944 36.792 42.0104 35.6752 42.0104C34.5536 42.0104 33.6896 42.3944 33.0816 43.1624C32.5408 43.8408 32.2552 44.7896 32.1952 45.9816C31.2958 43.7677 30.8772 41.388 30.9672 39H34.8712V37.4832H32.9328V31.7048C33.8002 30.0708 34.9305 28.5905 36.2784 27.3232H38.9296V25.808H38.1576C38.8751 25.2973 39.6309 24.8426 40.4184 24.448C40.5584 25.208 40.8088 25.8496 41.2 26.344C41.808 27.108 42.672 27.4888 43.7936 27.4888C44.9112 27.4888 45.7744 27.108 46.3832 26.344C46.9912 25.576 47.2936 24.4864 47.2936 23.0768C47.2936 22.9432 47.2776 22.8264 47.272 22.6984C47.6576 22.684 48.0432 22.6824 48.428 22.6936ZM50.604 22.9112C51.484 23.0528 52.3552 23.2568 53.204 23.5352C53.1776 24.3552 53.0848 24.9656 52.916 25.3352C52.7144 25.7768 52.38 25.9968 51.9128 25.9968C51.4408 25.9968 51.1048 25.7768 50.9032 25.336C50.7016 24.8952 50.6016 24.1352 50.6016 23.0592C50.6016 23.0056 50.6032 22.9632 50.604 22.9112ZM45.0968 22.9328C45.0968 22.9776 45.1 23.0136 45.1 23.0592C45.1 24.1352 45 24.8952 44.7984 25.336C44.5968 25.7768 44.2616 25.9968 43.7936 25.9968C43.3224 25.9968 42.9872 25.7768 42.7856 25.336C42.62 24.9728 42.5264 24.3808 42.4976 23.5872C43.3454 23.3002 44.2148 23.0814 45.0976 22.9328H45.0968ZM47.8528 30.3344C46.732 30.3344 45.8672 30.7184 45.2592 31.4864C44.6512 32.2496 44.3472 33.3376 44.3472 34.7512C44.3472 36.1616 44.6512 37.2512 45.2592 38.0184C45.8672 38.7824 46.7312 39.164 47.8528 39.164C48.9704 39.164 49.8344 38.7824 50.4424 38.0184C51.0504 37.2504 51.3544 36.1616 51.3544 34.7512C51.3544 33.3376 51.0504 32.2496 50.4424 31.4856C49.8344 30.7176 48.9704 30.3344 47.8528 30.3344ZM38.9656 30.4872L36.9856 30.8984V32.392L38.9768 31.9832V37.4832H37.0376V39H42.9904V37.4832H41.0512V30.4872H38.9656ZM55.2016 30.4872L53.2216 30.8984V32.392L55.2128 31.9832V37.4832H53.2752V39H59.2272V37.4832H57.288V30.4872H55.2016ZM47.8528 31.8344C48.3248 31.8344 48.6584 32.052 48.856 32.4888C49.0576 32.9224 49.1576 33.672 49.1576 34.736C49.1576 35.8112 49.0576 36.568 48.856 37.0096C48.6552 37.4496 48.32 37.672 47.8528 37.672C47.3816 37.672 47.0448 37.4504 46.844 37.0096C46.6424 36.5688 46.5424 35.8112 46.5424 34.736C46.5424 33.672 46.6424 32.9224 46.844 32.4888C47.0448 32.052 47.3816 31.8344 47.8528 31.8344ZM63.1936 32.3048C63.9767 33.9369 64.491 35.6848 64.7168 37.4808C64.5333 37.6102 64.3132 37.6772 64.0888 37.672C63.6176 37.672 63.2808 37.4504 63.08 37.0096C62.8784 36.5688 62.7784 35.8112 62.7784 34.736C62.7784 33.672 62.8784 32.9224 63.08 32.4888C63.112 32.4184 63.1544 32.364 63.1936 32.3048ZM51.9128 42.0112C50.7912 42.0112 49.9256 42.3952 49.3168 43.1632C48.7088 43.9264 48.4064 45.0144 48.4064 46.428C48.4064 47.8384 48.7088 48.9264 49.3168 49.6936C49.9248 50.4576 50.7912 50.8408 51.9128 50.8408C53.0296 50.8408 53.892 50.4576 54.5 49.6936C55.108 48.9256 55.412 47.8376 55.412 46.428C55.412 45.0144 55.108 43.9264 54.5 43.1624C53.892 42.3944 53.0296 42.0112 51.9128 42.0112ZM43.0248 42.164L41.0472 42.5752V44.0672L43.036 43.6576V49.1592H41.096V50.6752H47.0488V49.1592H45.112V42.164H43.0248ZM35.6752 43.508C36.1464 43.508 36.4824 43.7288 36.68 44.1656C36.8808 44.5992 36.9816 45.3464 36.9816 46.4112C36.9816 47.4864 36.8808 48.2432 36.68 48.684C36.4784 49.1256 36.1424 49.3472 35.6752 49.3472C35.2032 49.3472 34.8672 49.1256 34.6656 48.684C34.464 48.244 34.364 47.4864 34.364 46.4112C34.364 45.3472 34.464 44.5992 34.6656 44.1656C34.8672 43.7288 35.204 43.508 35.6752 43.508ZM51.9128 43.508C52.384 43.508 52.7176 43.7288 52.916 44.1656C53.1168 44.5992 53.2168 45.3464 53.2168 46.4112C53.2168 47.4864 53.1168 48.2432 52.916 48.684C52.7144 49.1256 52.38 49.3472 51.9128 49.3472C51.4408 49.3472 51.1048 49.1256 50.9032 48.684C50.7016 48.244 50.6016 47.4864 50.6016 46.4112C50.6016 45.3472 50.7016 44.5992 50.9032 44.1656C51.1048 43.7288 51.4416 43.508 51.9128 43.508ZM47.8528 55.184C48.3248 55.184 48.6584 55.4016 48.856 55.8392C48.94 56.0184 49.0008 56.2664 49.0496 56.5544C48.2496 56.6088 47.4496 56.5952 46.6528 56.536C46.7016 56.256 46.7624 56.0144 46.844 55.8392C47.0448 55.4016 47.3816 55.184 47.8528 55.184Z" fill="#FF0000"/>
<path id="gisSearchData1" d="M1.572 10.5C0.704 10.5 0 11.2544 0 12.184V68.816C0 69.7456 0.704 70.4992 1.572 70.5H62.9984C62.1544 69.3896 61.3128 68.2776 60.4656 67.1704C60.456 67.156 60.444 67.1432 60.4344 67.1304H48.92C48.4564 66.2663 47.9764 65.4113 47.48 64.5656C46.9936 64.5576 46.508 64.5416 46.024 64.5064C46.5497 65.3696 47.0559 66.2445 47.5424 67.1304H43.8344C43.1718 65.9945 42.4618 64.8868 41.7064 63.8104C41.3424 63.7184 40.98 63.6184 40.62 63.5096C40.3256 63.4232 40.0368 63.3216 39.7472 63.2232C40.6592 64.3832 41.544 65.7 42.4128 67.1296H28.52C29.2392 65.5464 29.9296 63.936 30.5528 62.2528C31.1016 62.352 31.6624 62.4128 32.2376 62.4128C33.5872 62.4128 34.872 62.1216 36.0408 61.608C35.5874 61.3634 35.1419 61.1046 34.7048 60.832C33.9232 61.0744 33.0968 61.2128 32.2376 61.2128C31.384 61.2128 30.56 61.0824 29.7832 60.8424C29.0221 62.9783 28.1595 65.0767 27.1984 67.1304H23.6544C24.876 64.616 25.9904 62.0352 26.9312 59.3048C25.0624 57.7664 23.8672 55.4376 23.8672 52.8424C23.8672 51.4856 24.1976 50.2048 24.7784 49.0704C24.7256 48.9392 24.6664 48.8112 24.616 48.68C24.48 48.3328 24.36 47.98 24.24 47.628C23.2158 49.1743 22.6688 50.9876 22.6672 52.8424C22.6672 55.496 23.7728 57.908 25.5408 59.6488C24.6096 62.244 23.5168 64.7128 22.3216 67.1296H18.8592L21.0592 63.32L18.7216 61.9704L19.5544 60.5264L16.3168 58.6576L11.4248 67.1296H3.1448V39.156L9.292 42.8216L13.1144 36.4128L3.1456 30.4672V26.7672C11.4832 31.7368 18.7344 36.4488 23.3888 44.4296C23.2102 43.4927 23.0858 42.5464 23.016 41.5952C18.0904 34.4792 11.0064 30.032 3.1456 25.3656V21.6264C10.536 25.9864 17.676 30.2048 23.1536 36.556C23.2176 36.0408 23.2968 35.528 23.392 35.0168C17.7136 28.744 10.4704 24.5464 3.1456 20.2264V19.06C10.8008 24.1456 17.7888 27.644 24.8032 30.1696C25.3698 28.7639 26.0676 27.4148 26.8872 26.14C28.58 23.4632 30.8168 21.1616 33.3912 19.3304C28.6008 18.1504 23.9656 16.2688 19.4984 13.8712H29.4064C31.9584 14.7648 34.5904 15.6072 37.2248 16.3792C37.5424 16.472 37.8536 16.5536 38.1704 16.6448C38.7944 16.3792 39.4304 16.1464 40.0736 15.9328C39.2368 15.6992 38.4056 15.4744 37.5624 15.2272C36.0897 14.7951 34.6229 14.3431 33.1624 13.8712H44.7248C45.8368 14.1592 46.8848 14.4128 47.9488 14.6744C51.1976 14.6888 54.4448 15.3224 57.4504 16.56C57.772 16.6896 58.0872 16.8336 58.4024 16.9776C58.7944 17.0504 59.2432 17.14 59.58 17.1992C60.136 17.2987 60.6937 17.3883 61.2528 17.468C61.6688 17.5248 62.0136 17.536 61.8888 17.54L61.8936 17.6664C63.0392 16.41 64.1752 15.1449 65.3016 13.8712H69.5672C67.6672 16.0548 65.7374 18.2124 63.7784 20.3432C64.0856 20.5976 64.3872 20.86 64.6824 21.1288C66.9376 18.6688 69.136 16.2312 71.1592 13.8712H76.8552V17.3792C76.8216 17.3768 76.7896 17.3696 76.756 17.3696H76.7456C76.5618 17.3703 76.3798 17.4072 76.2103 17.4782C76.0407 17.5491 75.8867 17.6528 75.7572 17.7833C75.6277 17.9138 75.5251 18.0685 75.4554 18.2386C75.3857 18.4088 75.3501 18.591 75.3508 18.7748C75.3515 18.9587 75.3884 19.1406 75.4594 19.3102C75.5303 19.4798 75.634 19.6337 75.7645 19.7632C75.895 19.8927 76.0497 19.9953 76.2199 20.065C76.39 20.1347 76.5722 20.1703 76.756 20.1696C76.7896 20.1696 76.8216 20.1624 76.8544 20.16V22.9792C76.8224 22.9768 76.7904 22.9696 76.756 22.9696H76.7456C76.3743 22.971 76.0188 23.1198 75.7572 23.3833C75.4956 23.6469 75.3494 24.0035 75.3508 24.3748C75.3522 24.7461 75.501 25.1017 75.7645 25.3632C76.0281 25.6248 76.3847 25.771 76.756 25.7696C76.7896 25.7696 76.8216 25.7624 76.8544 25.76V28.5792C76.8224 28.5768 76.7904 28.5696 76.756 28.5696C76.3847 28.5696 76.0286 28.7171 75.7661 28.9797C75.5035 29.2422 75.356 29.5983 75.356 29.9696C75.356 30.3409 75.5035 30.697 75.7661 30.9595C76.0286 31.2221 76.3847 31.3696 76.756 31.3696C76.7896 31.3696 76.8216 31.3624 76.8544 31.36V32.396C76.2216 32.1952 75.576 31.9944 74.9592 31.7928C74.8016 31.6313 74.6072 31.5102 74.3927 31.44C74.1782 31.3698 73.9499 31.3525 73.7272 31.3896C73.2144 31.2192 72.7216 31.0496 72.22 30.8792C72.3938 30.6758 72.5058 30.4269 72.5425 30.1618C72.5792 29.8968 72.5393 29.6268 72.4273 29.3838C72.3154 29.1408 72.1361 28.935 71.9108 28.7907C71.6855 28.6464 71.4236 28.5696 71.156 28.5696C70.8792 28.5696 70.6232 28.6528 70.4064 28.7912C71.1491 30.3119 71.7288 31.9069 72.136 33.5496C73.0688 37.2264 73.0952 41.1016 72.3032 44.8024C73.5352 45.5224 74.6168 46.1512 75.3784 46.5256C75.3428 46.727 75.3517 46.9337 75.4045 47.1312C75.4573 47.3288 75.5528 47.5124 75.6842 47.6691C75.8156 47.8258 75.9797 47.9518 76.165 48.0383C76.3503 48.1248 76.5523 48.1696 76.7568 48.1696C76.7904 48.1696 76.8208 48.1576 76.8544 48.1552V50.9792C76.8224 50.9768 76.7904 50.9696 76.756 50.9696H76.7456C76.3743 50.971 76.0188 51.1198 75.7572 51.3833C75.4956 51.6469 75.3494 52.0035 75.3508 52.3748C75.3522 52.7461 75.501 53.1017 75.7645 53.3632C76.0281 53.6248 76.3847 53.771 76.756 53.7696C76.7896 53.7696 76.8216 53.7624 76.8544 53.76V56.5792C76.8224 56.5768 76.7904 56.5696 76.756 56.5696C76.3847 56.5696 76.0286 56.7171 75.7661 56.9797C75.5035 57.2422 75.356 57.5983 75.356 57.9696C75.356 58.3409 75.5035 58.697 75.7661 58.9596C76.0286 59.2221 76.3847 59.3696 76.756 59.3696C76.7896 59.3696 76.8216 59.3624 76.8544 59.36V66.604C77.7296 67.756 78.604 68.908 79.4816 70.0584C79.6467 69.8966 79.7776 69.7034 79.8666 69.4901C79.9557 69.2769 80.001 69.0479 80 68.8168V12.1848C80 11.2552 79.296 10.5016 78.428 10.5008H1.572V10.5ZM49.6832 13.8704H63.68C62.964 14.6736 62.264 15.468 61.5184 16.2872C61.4784 16.2832 61.4568 16.284 61.416 16.2784C60.8716 16.2005 60.3286 16.113 59.7872 16.016C58.4296 15.7768 56.5768 15.416 54.4064 14.9488C52.8283 14.6057 51.2538 14.2462 49.6832 13.8704ZM75.208 15.3424C74.2824 15.5712 73.4976 15.9728 72.6968 16.5784C72.7747 16.7486 72.8859 16.9014 73.0239 17.0278C73.1619 17.1543 73.3239 17.2518 73.5002 17.3146C73.6765 17.3773 73.8636 17.4041 74.0505 17.3933C74.2373 17.3825 74.4201 17.3344 74.588 17.2518C74.7559 17.1691 74.9056 17.0536 75.0281 16.9121C75.1506 16.7707 75.2435 16.6061 75.3013 16.428C75.3591 16.25 75.3806 16.0622 75.3646 15.8758C75.3486 15.6893 75.2953 15.5079 75.208 15.3424ZM71.6704 17.4672C71.0446 18.0531 70.4394 18.6606 69.856 19.2888C69.9421 19.5042 70.0803 19.6948 70.2583 19.8436C70.4363 19.9923 70.6484 20.0945 70.8757 20.1409C71.1029 20.1874 71.3382 20.1766 71.5602 20.1097C71.7823 20.0427 71.9843 19.9216 72.148 19.7573C72.3116 19.5929 72.4319 19.3905 72.498 19.1682C72.5641 18.9458 72.5739 18.7106 72.5266 18.4835C72.4792 18.2564 72.3762 18.0447 72.2268 17.8673C72.0773 17.6899 71.8861 17.5524 71.6704 17.4672ZM73.9456 20.1688C73.7618 20.1702 73.58 20.2078 73.4107 20.2795C73.2414 20.3512 73.0878 20.4555 72.9588 20.5865C72.6983 20.8511 72.5535 21.2083 72.5564 21.5796C72.5593 21.9509 72.7095 22.3059 72.9741 22.5664C73.2387 22.8269 73.5959 22.9717 73.9672 22.9688C74.3385 22.9659 74.6935 22.8157 74.954 22.5511C75.2145 22.2865 75.3593 21.9293 75.3564 21.558C75.3535 21.1867 75.2033 20.8317 74.9387 20.5712C74.6741 20.3107 74.3169 20.1659 73.9456 20.1688ZM68.9216 20.2872L67.1168 22.22C67.2209 22.4177 67.3708 22.5875 67.5539 22.7154C67.7371 22.8434 67.9482 22.9256 68.1696 22.9552C68.391 22.9849 68.6163 22.9612 68.8266 22.886C69.037 22.8108 69.2263 22.6864 69.3788 22.5231C69.5312 22.3599 69.6424 22.1625 69.703 21.9475C69.7636 21.7325 69.7719 21.5061 69.7272 21.2872C69.6824 21.0683 69.5859 20.8634 69.4458 20.6894C69.3057 20.5154 69.1259 20.3775 68.9216 20.2872ZM71.1456 22.9688C70.9618 22.9702 70.78 23.0078 70.6107 23.0795C70.4414 23.1512 70.2878 23.2555 70.1588 23.3865C70.0298 23.5175 69.9279 23.6726 69.8588 23.843C69.7898 24.0134 69.755 24.1958 69.7564 24.3796C69.7578 24.5635 69.7954 24.7452 69.8671 24.9145C69.9388 25.0838 70.0431 25.2374 70.1741 25.3664C70.3051 25.4954 70.4602 25.5973 70.6306 25.6664C70.801 25.7354 70.9834 25.7702 71.1672 25.7688C71.5385 25.7659 71.8935 25.6157 72.154 25.3511C72.4145 25.0865 72.5593 24.7293 72.5564 24.358C72.5535 23.9867 72.4033 23.6317 72.1387 23.3712C71.8741 23.1107 71.5169 22.9659 71.1456 22.9688ZM73.9456 25.7688C73.7618 25.7702 73.58 25.8078 73.4107 25.8795C73.2414 25.9512 73.0878 26.0555 72.9588 26.1865C72.8298 26.3175 72.7279 26.4726 72.6588 26.643C72.5898 26.8134 72.555 26.9957 72.5564 27.1796C72.5578 27.3634 72.5954 27.5452 72.6671 27.7145C72.7388 27.8838 72.8431 28.0374 72.9741 28.1664C73.1051 28.2954 73.2602 28.3973 73.4306 28.4664C73.601 28.5354 73.7834 28.5702 73.9672 28.5688C74.3385 28.5659 74.6935 28.4157 74.954 28.1511C75.2145 27.8865 75.3593 27.5293 75.3564 27.158C75.3535 26.7867 75.2033 26.4317 74.9387 26.1712C74.6741 25.9107 74.3169 25.7659 73.9456 25.7688ZM68.7128 25.8184C69.0712 26.3568 69.404 26.9112 69.7208 27.4744C69.7996 27.1216 69.7386 26.752 69.5506 26.4432C69.3627 26.1344 69.0624 25.9105 68.7128 25.8184ZM14.5576 42.4144L11.6592 47.4344L9.7144 50.8024L14.7344 53.7016L16.68 50.3328L18.6736 51.4848L21.572 46.464L19.5784 45.312L14.5576 42.4144ZM72.08 45.7232C71.872 46.5448 71.624 47.3552 71.336 48.1512C71.6726 48.1084 71.9822 47.9445 72.2067 47.6901C72.4312 47.4356 72.5554 47.1081 72.556 46.7688C72.556 46.3512 72.3696 45.98 72.08 45.7232ZM73.9456 48.1688C73.7618 48.1702 73.58 48.2078 73.4107 48.2795C73.2414 48.3512 73.0878 48.4555 72.9588 48.5865C72.8298 48.7175 72.7279 48.8726 72.6588 49.043C72.5898 49.2134 72.555 49.3957 72.5564 49.5796C72.5578 49.7635 72.5954 49.9452 72.6671 50.1145C72.7388 50.2838 72.8431 50.4374 72.9741 50.5664C73.1051 50.6954 73.2602 50.7973 73.4306 50.8664C73.601 50.9354 73.7834 50.9702 73.9672 50.9688C74.3385 50.9659 74.6935 50.8157 74.954 50.5511C75.2145 50.2865 75.3593 49.9293 75.3564 49.558C75.3535 49.1867 75.2033 48.8317 74.9387 48.5712C74.6741 48.3107 74.3169 48.1659 73.9456 48.1688ZM71.1456 50.9688C70.9618 50.9702 70.78 51.0078 70.6107 51.0795C70.4414 51.1512 70.2878 51.2555 70.1588 51.3865C70.0298 51.5175 69.9279 51.6726 69.8588 51.843C69.7898 52.0134 69.755 52.1958 69.7564 52.3796C69.7578 52.5635 69.7954 52.7452 69.8671 52.9145C69.9388 53.0838 70.0431 53.2374 70.1741 53.3664C70.3051 53.4954 70.4602 53.5973 70.6306 53.6664C70.801 53.7354 70.9834 53.7702 71.1672 53.7688C71.5385 53.7659 71.8935 53.6157 72.154 53.3511C72.4145 53.0865 72.5593 52.7293 72.5564 52.358C72.5535 51.9867 72.4033 51.6317 72.1387 51.3712C71.8741 51.1107 71.5169 50.9659 71.1456 50.9688ZM27.1096 53.472C27.2271 54.4742 27.6375 55.4194 28.2895 56.1895C28.9415 56.9596 29.8062 57.5204 30.7752 57.8016C29.3946 56.5006 28.165 55.0483 27.1096 53.472ZM73.9456 53.768C73.7618 53.7694 73.58 53.807 73.4107 53.8787C73.2414 53.9504 73.0878 54.0547 72.9588 54.1857C72.8298 54.3167 72.7279 54.4718 72.6588 54.6422C72.5898 54.8126 72.555 54.995 72.5564 55.1788C72.5578 55.3627 72.5954 55.5444 72.6671 55.7137C72.7388 55.883 72.8431 56.0366 72.9741 56.1656C73.1051 56.2946 73.2602 56.3965 73.4306 56.4656C73.601 56.5346 73.7834 56.5694 73.9672 56.568C74.3385 56.5651 74.6935 56.4149 74.954 56.1503C75.2145 55.8857 75.3593 55.5285 75.3564 55.1572C75.3535 54.7859 75.2033 54.4309 74.9387 54.1704C74.6741 53.9099 74.3169 53.7651 73.9456 53.768ZM68.4544 53.7784C68.146 54.2305 67.8221 54.6718 67.4832 55.1016C67.8392 55.3744 68.4384 55.6792 68.7936 56.0888C68.872 56.1888 68.9488 56.2904 69.0264 56.3904C69.4592 56.1528 69.756 55.6976 69.756 55.1688C69.756 54.4288 69.1816 53.8296 68.4544 53.7784ZM71.156 56.5688C70.5608 56.5688 70.0552 56.9416 69.8528 57.4656C70.2168 57.9336 70.5752 58.4056 70.9376 58.8752L72.2312 58.864C72.4015 58.6596 72.51 58.4109 72.544 58.1471C72.578 57.8832 72.5362 57.6152 72.4233 57.3743C72.3105 57.1334 72.1314 56.9296 71.907 56.7868C71.6825 56.644 71.422 56.5689 71.156 56.5688ZM55.916 63.2544C54.3808 63.7731 52.7986 64.141 51.192 64.3528C51.652 64.5048 52.1408 64.5888 52.648 64.5888C53.8697 64.5875 55.0425 64.1086 55.916 63.2544Z" fill="#FF0000"/>
</g>
<defs>
<clipPath id="clip0_6459_58301">
<rect width="80" height="80" fill="white" transform="translate(0 0.5)"/>
</clipPath>
</defs>
</svg>
