<svg width="80" height="81" viewBox="0 0 80 81" fill="none" xmlns="http://www.w3.org/2000/svg">
<path d="M80 15.5V65.5H5V55.5H0V10.5H70V15.5H80ZM60 15.5C60 16.2031 60.1302 16.8542 60.3906 17.4531C60.651 18.0521 61.0026 18.5729 61.4453 19.0156C61.888 19.4583 62.4219 19.8229 63.0469 20.1094C63.6719 20.3958 64.3229 20.526 65 20.5V15.5H60ZM5 20.5C5.70312 20.5 6.35417 20.3698 6.95312 20.1094C7.55208 19.849 8.07292 19.4974 8.51562 19.0547C8.95833 18.612 9.32292 18.0781 9.60938 17.4531C9.89583 16.8281 10.026 16.1771 10 15.5H5V20.5ZM5 40.5C6.38021 40.5 7.66927 40.7604 8.86719 41.2812C10.0651 41.8021 11.1328 42.5182 12.0703 43.4297C13.0078 44.3411 13.724 45.3958 14.2188 46.5938C14.7135 47.7917 14.974 49.0938 15 50.5H55C55 49.1198 55.2604 47.8307 55.7812 46.6328C56.3021 45.4349 57.0182 44.3672 57.9297 43.4297C58.8411 42.4922 59.8958 41.776 61.0938 41.2812C62.2917 40.7865 63.5938 40.526 65 40.5V25.5C63.6198 25.5 62.3307 25.2396 61.1328 24.7188C59.9349 24.1979 58.8672 23.4818 57.9297 22.5703C56.9922 21.6589 56.276 20.6042 55.7812 19.4062C55.2865 18.2083 55.026 16.9062 55 15.5H15C15 16.8802 14.7396 18.1693 14.2188 19.3672C13.6979 20.5651 12.9818 21.6328 12.0703 22.5703C11.1589 23.5078 10.1042 24.224 8.90625 24.7188C7.70833 25.2135 6.40625 25.474 5 25.5V40.5ZM65 45.5C64.2969 45.5 63.6458 45.6302 63.0469 45.8906C62.4479 46.151 61.9271 46.5026 61.4844 46.9453C61.0417 47.388 60.6771 47.9219 60.3906 48.5469C60.1042 49.1719 59.974 49.8229 60 50.5H65V45.5ZM5 50.5H10C10 49.7969 9.86979 49.1458 9.60938 48.5469C9.34896 47.9479 8.9974 47.4271 8.55469 46.9844C8.11198 46.5417 7.57812 46.1771 6.95312 45.8906C6.32812 45.6042 5.67708 45.474 5 45.5V50.5ZM75 20.5H70V55.5H10V60.5H75V20.5ZM17.5 35.5C16.8229 35.5 16.237 35.2526 15.7422 34.7578C15.2474 34.263 15 33.6771 15 33C15 32.3229 15.2474 31.737 15.7422 31.2422C16.237 30.7474 16.8229 30.5 17.5 30.5C18.1771 30.5 18.763 30.7474 19.2578 31.2422C19.7526 31.737 20 32.3229 20 33C20 33.6771 19.7526 34.263 19.2578 34.7578C18.763 35.2526 18.1771 35.5 17.5 35.5ZM52.5 35.5C51.8229 35.5 51.237 35.2526 50.7422 34.7578C50.2474 34.263 50 33.6771 50 33C50 32.3229 50.2474 31.737 50.7422 31.2422C51.237 30.7474 51.8229 30.5 52.5 30.5C53.1771 30.5 53.763 30.7474 54.2578 31.2422C54.7526 31.737 55 32.3229 55 33C55 33.6771 54.7526 34.263 54.2578 34.7578C53.763 35.2526 53.1771 35.5 52.5 35.5ZM35 45.5C33.6198 45.5 32.3307 45.2396 31.1328 44.7188C29.9349 44.1979 28.8672 43.4818 27.9297 42.5703C26.9922 41.6589 26.276 40.6042 25.7812 39.4062C25.2865 38.2083 25.026 36.9062 25 35.5V30.5C25 29.1198 25.2604 27.8307 25.7812 26.6328C26.3021 25.4349 27.0182 24.3672 27.9297 23.4297C28.8411 22.4922 29.8958 21.776 31.0938 21.2812C32.2917 20.7865 33.5938 20.526 35 20.5C36.3802 20.5 37.6693 20.7604 38.8672 21.2812C40.0651 21.8021 41.1328 22.5182 42.0703 23.4297C43.0078 24.3411 43.724 25.3958 44.2188 26.5938C44.7135 27.7917 44.974 29.0938 45 30.5V35.5C45 36.8802 44.7396 38.1693 44.2188 39.3672C43.6979 40.5651 42.9818 41.6328 42.0703 42.5703C41.1589 43.5078 40.1042 44.224 38.9062 44.7188C37.7083 45.2135 36.4062 45.474 35 45.5ZM30 35.5C30 36.2031 30.1302 36.8542 30.3906 37.4531C30.651 38.0521 31.0026 38.5729 31.4453 39.0156C31.888 39.4583 32.4219 39.8229 33.0469 40.1094C33.6719 40.3958 34.3229 40.526 35 40.5C35.7031 40.5 36.3542 40.3698 36.9531 40.1094C37.5521 39.849 38.0729 39.4974 38.5156 39.0547C38.9583 38.612 39.3229 38.0781 39.6094 37.4531C39.8958 36.8281 40.026 36.1771 40 35.5V30.5C40 29.7969 39.8698 29.1458 39.6094 28.5469C39.349 27.9479 38.9974 27.4271 38.5547 26.9844C38.112 26.5417 37.5781 26.1771 36.9531 25.8906C36.3281 25.6042 35.6771 25.474 35 25.5C34.2969 25.5 33.6458 25.6302 33.0469 25.8906C32.4479 26.151 31.9271 26.5026 31.4844 26.9453C31.0417 27.388 30.6771 27.9219 30.3906 28.5469C30.1042 29.1719 29.974 29.8229 30 30.5V35.5Z" fill="#FF0000"/>
</svg>
