<svg width="80" height="81" viewBox="0 0 80 81" fill="none" xmlns="http://www.w3.org/2000/svg">
<g id="la:users">
<path id="Vector" d="M28.75 15.5C26.4322 15.5092 24.2119 16.434 22.573 18.073C20.934 19.7119 20.0092 21.9322 20 24.25C20 29.055 23.945 33 28.75 33C33.555 33 37.5 29.055 37.5 24.25C37.5 19.445 33.555 15.5 28.75 15.5ZM51.25 15.5C48.9322 15.5092 46.7119 16.434 45.073 18.073C43.434 19.7119 42.5092 21.9322 42.5 24.25C42.5 29.055 46.445 33 51.25 33C56.055 33 60 29.055 60 24.25C60 19.445 56.055 15.5 51.25 15.5ZM28.75 20.5C30.85 20.5 32.5 22.15 32.5 24.25C32.5 26.35 30.85 28 28.75 28C26.65 28 25 26.35 25 24.25C25 22.15 26.65 20.5 28.75 20.5ZM51.25 20.5C53.35 20.5 55 22.15 55 24.25C55 26.35 53.35 28 51.25 28C49.15 28 47.5 26.35 47.5 24.25C47.5 22.15 49.15 20.5 51.25 20.5ZM17.5 30.5C12 30.5 7.5 35 7.5 40.5C7.5 43.2825 8.6925 45.7925 10.5475 47.61C8.84581 48.7583 7.45074 50.3053 6.48383 52.1163C5.51692 53.9272 5.00752 55.9471 5 58H10C10 53.83 13.33 50.5 17.5 50.5C21.67 50.5 25 53.83 25 58H30C29.9925 55.9471 29.4831 53.9272 28.5162 52.1163C27.5493 50.3053 26.1542 48.7583 24.4525 47.61C26.3075 45.7925 27.5 43.285 27.5 40.5C27.5 35 23 30.5 17.5 30.5ZM30 58C28.4375 60.09 27.5 62.7175 27.5 65.5H32.5C32.5 61.33 35.83 58 40 58C44.17 58 47.5 61.33 47.5 65.5H52.5C52.4957 62.7961 51.6189 60.1657 50 58C49.15 56.8675 48.125 55.9 46.9525 55.11C48.8075 53.2925 50 50.785 50 48C50 42.5 45.5 38 40 38C34.5 38 30 42.5 30 48C30 50.7825 31.1925 53.2925 33.0475 55.11C31.8772 55.8961 30.8471 56.873 30 58ZM50 58H55C55 53.83 58.33 50.5 62.5 50.5C66.67 50.5 70 53.83 70 58H75C74.9925 55.9471 74.4831 53.9272 73.5162 52.1163C72.5493 50.3053 71.1542 48.7583 69.4525 47.61C71.3075 45.7925 72.5 43.285 72.5 40.5C72.5 35 68 30.5 62.5 30.5C57 30.5 52.5 35 52.5 40.5C52.5 43.2825 53.6925 45.7925 55.5475 47.61C53.8458 48.7583 52.4507 50.3053 51.4838 52.1163C50.5169 53.9272 50.0075 55.9471 50 58ZM17.5 35.5C20.2925 35.5 22.5 37.7075 22.5 40.5C22.5 43.2925 20.2925 45.5 17.5 45.5C14.7075 45.5 12.5 43.2925 12.5 40.5C12.5 37.7075 14.7075 35.5 17.5 35.5ZM62.5 35.5C65.2925 35.5 67.5 37.7075 67.5 40.5C67.5 43.2925 65.2925 45.5 62.5 45.5C59.7075 45.5 57.5 43.2925 57.5 40.5C57.5 37.7075 59.7075 35.5 62.5 35.5ZM40 43C42.7925 43 45 45.2075 45 48C45 50.7925 42.7925 53 40 53C37.2075 53 35 50.7925 35 48C35 45.2075 37.2075 43 40 43Z" fill="#FF0000"/>
</g>
</svg>
