<svg width="80" height="81" viewBox="0 0 80 81" fill="none" xmlns="http://www.w3.org/2000/svg">
<g id="material-symbols:productivity-outline" clip-path="url(#clip0_6459_58222)">
<path id="Vector" d="M6.66675 53.8334V44.5001C6.66675 42.6112 7.15341 40.8756 8.12675 39.2934C9.10008 37.7112 10.3912 36.5023 12.0001 35.6668C15.4445 33.9445 18.9445 32.6523 22.5001 31.7901C26.0556 30.9279 29.6667 30.4979 33.3334 30.5001C35.8334 30.5001 38.3056 30.6945 40.7501 31.0834C43.1945 31.4723 45.639 32.0834 48.0834 32.9168C47.139 33.6945 46.2779 34.5423 45.5001 35.4601C44.7223 36.3779 44.0279 37.3634 43.4167 38.4168C41.7501 37.9723 40.0834 37.6523 38.4167 37.4568C36.7501 37.2612 35.0556 37.1645 33.3334 37.1668C30.2223 37.1668 27.139 37.5423 24.0834 38.2934C21.0279 39.0445 18.0001 40.169 15.0001 41.6668C14.5001 41.9445 14.0967 42.3334 13.7901 42.8334C13.4834 43.3334 13.3312 43.889 13.3334 44.5001V47.1668H40.2501C40.139 48.2779 40.0834 49.389 40.0834 50.5001C40.0834 51.6112 40.139 52.7223 40.2501 53.8334H6.66675ZM33.3334 27.1668C29.6667 27.1668 26.5279 25.8612 23.9167 23.2501C21.3056 20.639 20.0001 17.5001 20.0001 13.8334C20.0001 10.1668 21.3056 7.02786 23.9167 4.41675C26.5279 1.80564 29.6667 0.500085 33.3334 0.500085C37.0001 0.500085 40.139 1.80564 42.7501 4.41675C45.3612 7.02786 46.6667 10.1668 46.6667 13.8334C46.6667 17.5001 45.3612 20.639 42.7501 23.2501C40.139 25.8612 37.0001 27.1668 33.3334 27.1668ZM33.3334 20.5001C35.1667 20.5001 36.7367 19.8468 38.0434 18.5401C39.3501 17.2334 40.0023 15.6645 40.0001 13.8334C40.0001 12.0001 39.3467 10.4301 38.0401 9.12342C36.7334 7.81675 35.1645 7.16453 33.3334 7.16675C31.5001 7.16675 29.9301 7.82009 28.6234 9.12675C27.3167 10.4334 26.6645 12.0023 26.6667 13.8334C26.6667 15.6668 27.3201 17.2368 28.6267 18.5434C29.9334 19.8501 31.5023 20.5023 33.3334 20.5001ZM66.6667 13.8334C66.6667 17.5001 65.3612 20.639 62.7501 23.2501C60.139 25.8612 57.0001 27.1668 53.3334 27.1668C52.7223 27.1668 51.9445 27.0968 51.0001 26.9568C50.0556 26.8168 49.2779 26.6645 48.6667 26.5001C50.1667 24.7223 51.3201 22.7501 52.1267 20.5834C52.9334 18.4168 53.3356 16.1668 53.3334 13.8334C53.3334 11.5001 52.9301 9.25008 52.1234 7.08342C51.3167 4.91675 50.1645 2.94453 48.6667 1.16675C49.4445 0.888974 50.2223 0.707863 51.0001 0.623419C51.7779 0.538974 52.5556 0.497863 53.3334 0.500085C57.0001 0.500085 60.139 1.80564 62.7501 4.41675C65.3612 7.02786 66.6667 10.1668 66.6667 13.8334ZM63.3334 67.1667C58.7223 67.1667 54.7912 65.5412 51.5401 62.2901C48.289 59.039 46.6645 55.109 46.6667 50.5001C46.6667 45.8334 48.2923 41.889 51.5434 38.6668C54.7945 35.4445 58.7245 33.8334 63.3334 33.8334C68.0001 33.8334 71.9445 35.4445 75.1667 38.6668C78.389 41.889 80.0001 45.8334 80.0001 50.5001C80.0001 55.1112 78.389 59.0423 75.1667 62.2934C71.9445 65.5445 68.0001 67.169 63.3334 67.1667ZM61.0001 58.0001L72.7501 46.1668L70.4167 43.8334L61.0001 53.2501L56.2501 48.5001L53.9167 50.9168L61.0001 58.0001Z" fill="#FF0000"/>
</g>
<defs>
<clipPath id="clip0_6459_58222">
<rect width="80" height="80" fill="white" transform="translate(0 0.5)"/>
</clipPath>
</defs>
</svg>
