<svg width="80" height="81" viewBox="0 0 80 81" fill="none" xmlns="http://www.w3.org/2000/svg">
<g id="carbon:operations-field">
<path id="Vector" d="M50 30.5V5.5H55V30.5H50ZM60 30.5V5.5H65V30.5H60ZM70 30.5V5.5H75V30.5H70ZM40 50.5C38.6786 50.5301 37.3647 50.292 36.1379 49.8001C34.911 49.3082 33.7966 48.5727 32.862 47.638C31.9273 46.7034 31.1918 45.589 30.6999 44.3621C30.208 43.1353 29.9699 41.8214 30 40.5C29.9699 39.1786 30.208 37.8647 30.6999 36.6379C31.1918 35.411 31.9273 34.2966 32.862 33.362C33.7966 32.4273 34.911 31.6918 36.1379 31.1999C37.3647 30.708 38.6786 30.4699 40 30.5V25.5C37.0333 25.5 34.1332 26.3797 31.6665 28.028C29.1997 29.6762 27.2771 32.0189 26.1418 34.7597C25.0065 37.5006 24.7094 40.5166 25.2882 43.4264C25.867 46.3361 27.2956 49.0088 29.3934 51.1066C31.4912 53.2044 34.1639 54.633 37.0737 55.2118C39.9834 55.7906 42.9994 55.4935 45.7403 54.3582C48.4811 53.2229 50.8238 51.3003 52.472 48.8336C54.1203 46.3668 55 43.4667 55 40.5H50C50.0301 41.8214 49.792 43.1353 49.3001 44.3621C48.8082 45.589 48.0727 46.7034 47.138 47.638C46.2034 48.5727 45.089 49.3082 43.8621 49.8001C42.6353 50.292 41.3215 50.5301 40 50.5Z" fill="#FF0000"/>
<path id="Vector_2" d="M72.2324 46.635L65.2449 40.5L61.9499 44.26L68.9299 50.39L63.0299 60.61L54.4624 57.71C52.446 59.3995 50.1498 60.7236 47.6774 61.6225L45.8999 70.5H34.0999L32.3249 61.625C29.8695 60.7129 27.5901 59.3833 25.5874 57.695L16.9699 60.61L11.0699 50.39L17.8824 44.4025C17.4163 41.8172 17.4104 39.1699 17.8649 36.5825L11.0699 30.6075L16.9699 20.39L25.5374 23.29C27.5544 21.5993 29.8515 20.2744 32.3249 19.375L34.0999 10.5H39.9999V5.5H34.0999C32.944 5.50012 31.8239 5.90072 30.9301 6.63364C30.0363 7.36656 29.424 8.38653 29.1974 9.52L27.9374 15.815C26.7892 16.3655 25.6806 16.9954 24.6199 17.7L18.5699 15.6525C17.4752 15.2818 16.2859 15.3022 15.2046 15.7102C14.1233 16.1183 13.2169 16.8886 12.6399 17.89L6.73992 28.11C6.16195 29.1107 5.94847 30.2808 6.1358 31.4211C6.32313 32.5615 6.89969 33.6018 7.76742 34.365L12.5949 38.6075C12.5524 39.2375 12.4999 39.8625 12.4999 40.5C12.4999 41.145 12.5249 41.7825 12.5699 42.415L7.76992 46.635C6.90138 47.3976 6.32386 48.4376 6.13561 49.5779C5.94737 50.7183 6.16003 51.8887 6.73742 52.89L12.6374 63.11C13.2146 64.1125 14.1218 64.8836 15.2042 65.2917C16.2866 65.6997 17.4771 65.7195 18.5724 65.3475L24.6574 63.2875C25.7057 63.9948 26.8017 64.6289 27.9374 65.185L29.1949 71.48C29.4216 72.6139 30.0342 73.6342 30.9285 74.3671C31.8229 75.1001 32.9436 75.5005 34.0999 75.5H45.8999C47.0558 75.4999 48.176 75.0993 49.0698 74.3664C49.9636 73.6334 50.5759 72.6135 50.8024 71.48L52.0624 65.1825C53.2106 64.6328 54.3191 64.0038 55.3799 63.3L61.4274 65.345C62.5221 65.7165 63.7119 65.6968 64.7937 65.2893C65.8755 64.8817 66.7825 64.1115 67.3599 63.11L73.2599 52.89C73.8379 51.8893 74.0514 50.7192 73.864 49.5789C73.6767 48.4385 73.1002 47.3982 72.2324 46.635Z" fill="#FF0000"/>
</g>
</svg>
