<svg width="80" height="81" viewBox="0 0 80 81" fill="none" xmlns="http://www.w3.org/2000/svg">
<g id="ant-design:fund-projection-screen-outlined">
<path id="Vector" d="M24.3828 46.7109C24.625 46.9531 25.0234 46.9531 25.2656 46.7109L33.2188 38.7578L39.9453 45.4922C40.1875 45.7344 40.5859 45.7344 40.8281 45.4922L58.5078 27.7969C58.75 27.5547 58.75 27.1563 58.5078 26.9141L55.6328 24.0391C55.3906 23.7969 54.9922 23.7969 54.75 24.0391L40.3906 38.4141L33.6641 31.6797C33.4219 31.4375 33.0234 31.4375 32.7813 31.6797L21.5078 42.9531C21.2656 43.1953 21.2656 43.5938 21.5078 43.8359L24.3828 46.7109Z" fill="#FF0000"/>
<path id="Vector_2" d="M70.625 13H42.8125V8C42.8125 7.65625 42.5312 7.375 42.1875 7.375H37.8125C37.4688 7.375 37.1875 7.65625 37.1875 8V13H9.375C7.99219 13 6.875 14.1172 6.875 15.5V56.125C6.875 57.5078 7.99219 58.625 9.375 58.625H37.2188V61.125L24.3438 69.5703C24.0547 69.7578 23.9766 70.1406 24.1641 70.4297L26.5312 74.1172V74.125C26.7188 74.4141 27.1094 74.4922 27.3984 74.3047L40 66.0391L52.6016 74.3047C52.8906 74.4922 53.2812 74.4141 53.4688 74.125V74.1172L55.8359 70.4297C56.0234 70.1406 55.9375 69.7578 55.6562 69.5703L42.8125 61.1484V58.625H70.625C72.0078 58.625 73.125 57.5078 73.125 56.125V15.5C73.125 14.1172 72.0078 13 70.625 13ZM67.5 53H12.5V18.625H67.5V53Z" fill="#FF0000"/>
</g>
</svg>
