<svg width="80" height="81" viewBox="0 0 80 81" fill="none" xmlns="http://www.w3.org/2000/svg">
<g id="solar:document-add-broken">
<g id="Group">
<path id="Vector" d="M60.6 27.3L62.1433 25.7534C63.3721 24.5241 65.039 23.8333 66.7771 23.833C68.5153 23.8327 70.1823 24.5229 71.4116 25.7517C72.6409 26.9805 73.3317 28.6474 73.332 30.3855C73.3323 32.1237 72.6421 33.7908 71.4133 35.02L69.87 36.5667M60.6 27.3C60.6 27.3 60.7933 30.58 63.69 33.4767C66.5866 36.3734 69.87 36.5667 69.87 36.5667M60.6 27.3L46.4 41.5C45.4333 42.46 44.9533 42.9434 44.54 43.4734C44.0533 44.1 43.6366 44.7734 43.2933 45.4934C43.0033 46.1 42.79 46.7434 42.36 48.0334L40.9833 52.1667L40.5366 53.5034M69.87 36.5667L55.67 50.7667C54.7033 51.7334 54.2233 52.2134 53.6933 52.6267C53.0666 53.1134 52.3933 53.53 51.6733 53.8734C51.0666 54.1634 50.4233 54.3767 49.1333 54.8067L45 56.1834L43.6633 56.63M40.5366 53.5034L40.0933 54.8434C39.99 55.1544 39.9753 55.488 40.0508 55.807C40.1263 56.1259 40.289 56.4175 40.5207 56.6493C40.7525 56.881 41.0441 57.0437 41.363 57.1192C41.682 57.1947 42.0156 57.18 42.3266 57.0767L43.6633 56.63M40.5366 53.5034L43.6633 56.63" stroke="#FF0000" stroke-width="5"/>
<path id="Vector_2" d="M26.6667 43.8334H35M26.6667 30.5001H48.3333M26.6667 57.1667H31.6667M10 47.1667V33.8334C10 21.2634 10 14.9767 13.9067 11.0734C17.81 7.16675 24.0967 7.16675 36.6667 7.16675H43.3333C55.9033 7.16675 62.19 7.16675 66.0933 11.0734M70 47.1667C70 59.7367 70 66.0234 66.0933 69.9267M66.0933 69.9267C62.19 73.8334 55.9033 73.8334 43.3333 73.8334H36.6667C24.0967 73.8334 17.81 73.8334 13.9067 69.9267M66.0933 69.9267C69.24 66.7834 69.85 62.1001 69.97 53.8334" stroke="#FF0000" stroke-width="5" stroke-linecap="round"/>
</g>
</g>
</svg>
