<svg width="80" height="81" viewBox="0 0 80 81" fill="none" xmlns="http://www.w3.org/2000/svg">
<g id="carbon:ibm-watson-knowledge-studio">
<path id="Vector" d="M50 63H67.5V68H50V63ZM55 73H62.5V78H55V73ZM67.5 58H62.5C62.5 55.25 63.5 53 65.5 51L66.75 49.75C68.75 47.75 70 44.75 70 41.75C70 35.5 65 30.5 58.75 30.5C52.5 30.5 47.5 35.5 47.5 41.75C47.5 44.75 48.75 47.5 50.75 49.75L52 51C54 53 55 55.25 55 58H50C50 56.75 49.5 55.5 48.5 54.5L47.25 53.25C44.25 50.25 42.5 46 42.5 41.75C42.5 32.75 49.75 25.5 58.75 25.5C67.75 25.5 75 32.75 75 41.75C75 46 73.25 50.25 70.25 53.25L69 54.5C68 55.5 67.5 56.75 67.5 58ZM15 55.5H35V60.5H15V55.5Z" fill="#FF0000"/>
<path id="Vector_2" d="M30 50.5C31.3807 50.5 32.5 49.3807 32.5 48C32.5 46.6193 31.3807 45.5 30 45.5C28.6193 45.5 27.5 46.6193 27.5 48C27.5 49.3807 28.6193 50.5 30 50.5Z" fill="#FF0000"/>
<path id="Vector_3" d="M15 45.5H22.5V50.5H15V45.5ZM15 35.5H32.5V40.5H15V35.5ZM25 25.5H42.5V30.5H25V25.5Z" fill="#FF0000"/>
<path id="Vector_4" d="M17.5 30.5C18.8807 30.5 20 29.3807 20 28C20 26.6193 18.8807 25.5 17.5 25.5C16.1193 25.5 15 26.6193 15 28C15 29.3807 16.1193 30.5 17.5 30.5Z" fill="#FF0000"/>
<path id="Vector_5" d="M40 15.5H50V20.5H40V15.5Z" fill="#FF0000"/>
<path id="Vector_6" d="M32.5 20.5C33.8807 20.5 35 19.3807 35 18C35 16.6193 33.8807 15.5 32.5 15.5C31.1193 15.5 30 16.6193 30 18C30 19.3807 31.1193 20.5 32.5 20.5Z" fill="#FF0000"/>
<path id="Vector_7" d="M15 15.5H25V20.5H15V15.5Z" fill="#FF0000"/>
<path id="Vector_8" d="M45 70.5H10V10.5H55V20.5H60V10.5C60 7.75 57.75 5.5 55 5.5H10C7.25 5.5 5 7.75 5 10.5V70.5C5 73.25 7.25 75.5 10 75.5H45V70.5Z" fill="#FF0000"/>
</g>
</svg>
