<svg width="96" height="65" viewBox="0 0 96 65" fill="none" xmlns="http://www.w3.org/2000/svg">
<rect width="96" height="64" transform="translate(0 0.75)" fill="white"/>
<g clip-path="url(#clip0_6744_65168)">
<path d="M81.304 24.4374C81.4899 24.4391 81.6742 24.4041 81.8465 24.3345C82.0188 24.2649 82.1757 24.162 82.3083 24.0317C82.4409 23.9015 82.5465 23.7464 82.6191 23.5753C82.6917 23.4043 82.7299 23.2206 82.7316 23.0347C82.7332 22.8489 82.6982 22.6645 82.6286 22.4922C82.559 22.3199 82.4561 22.163 82.3259 22.0304C82.1956 21.8979 82.0405 21.7922 81.8695 21.7196C81.6984 21.647 81.5147 21.6088 81.3289 21.6071C80.554 21.5986 79.9206 22.226 79.9026 22.9786C79.8957 23.3575 80.0394 23.7237 80.3021 23.9969C80.5648 24.27 80.9251 24.4278 81.304 24.4357V24.4374Z" fill="#EE985D"/>
<path fill-rule="evenodd" clip-rule="evenodd" d="M54.6968 25.5389C54.3933 25.5398 54.1026 25.6607 53.888 25.8753C53.6735 26.0898 53.5525 26.3806 53.5516 26.684V32.6643C53.5516 34.5037 52.0602 35.9952 50.2208 35.9952C48.3813 35.9952 46.8899 34.5037 46.8899 32.6643V26.684C46.889 26.3806 46.7681 26.0898 46.5535 25.8753C46.3389 25.6607 46.0482 25.5398 45.7448 25.5389C45.4413 25.5398 45.1506 25.6607 44.936 25.8753C44.7215 26.0898 44.6005 26.3806 44.5996 26.684V32.6643C44.6001 34.155 45.1924 35.5845 46.2465 36.6386C47.3006 37.6926 48.7301 38.285 50.2208 38.2855C51.7114 38.285 53.1409 37.6926 54.195 36.6386C55.2491 35.5845 55.8414 34.155 55.8419 32.6643V26.684C55.841 26.3806 55.7201 26.0898 55.5055 25.8753C55.2909 25.6607 55.0002 25.5398 54.6968 25.5389Z" fill="#512568"/>
<path d="M41.2174 21.6732C40.914 21.6741 40.6232 21.795 40.4087 22.0096C40.1941 22.2241 40.0732 22.5149 40.0723 22.8183V37.1497C40.0732 37.4532 40.1941 37.7439 40.4087 37.9585C40.6232 38.173 40.914 38.294 41.2174 38.2949C41.5208 38.294 41.8116 38.173 42.0261 37.9585C42.2407 37.7439 42.3616 37.4532 42.3626 37.1497V22.8183C42.3616 22.5149 42.2407 22.2241 42.0261 22.0096C41.8116 21.795 41.5208 21.6741 41.2174 21.6732ZM81.3163 25.5303C81.0128 25.5312 80.7221 25.6521 80.5075 25.8667C80.293 26.0813 80.172 26.372 80.1711 26.6754V37.1386C80.172 37.442 80.293 37.7328 80.5075 37.9473C80.7221 38.1619 81.0128 38.2828 81.3163 38.2837C81.6197 38.2828 81.9104 38.1619 82.125 37.9473C82.3396 37.7328 82.4605 37.442 82.4614 37.1386V26.684C82.4605 26.3806 82.3396 26.0898 82.125 25.8753C81.9104 25.6607 81.6197 25.5398 81.3163 25.5389V25.5303Z" fill="#512568"/>
<path fill-rule="evenodd" clip-rule="evenodd" d="M36.6889 25.5389C36.3855 25.5398 36.0948 25.6607 35.8802 25.8753C35.6656 26.0898 35.5447 26.3806 35.5438 26.684V32.6643C35.5438 34.5037 34.0524 35.9952 32.2129 35.9952C30.3735 35.9952 28.8821 34.5037 28.8821 32.6643V26.684C28.8812 26.3806 28.7602 26.0898 28.5457 25.8753C28.3311 25.6607 28.0404 25.5398 27.7369 25.5389C27.4335 25.5398 27.1428 25.6607 26.9282 25.8753C26.7136 26.0898 26.5927 26.3806 26.5918 26.684V32.6643C26.5923 34.155 27.1846 35.5845 28.2387 36.6386C29.2928 37.6926 30.7223 38.285 32.2129 38.2855C33.7036 38.285 35.1331 37.6926 36.1872 36.6386C37.2413 35.5845 37.8336 34.155 37.8341 32.6643V26.684C37.8332 26.3806 37.7122 26.0898 37.4977 25.8753C37.2831 25.6607 36.9924 25.5398 36.6889 25.5389Z" fill="#512568"/>
<path d="M72.312 25.5389C71.4442 25.5388 70.5883 25.7402 69.8115 26.1272C69.0348 26.5143 68.3586 27.0763 67.836 27.7692C67.3135 27.0763 66.6372 26.5143 65.8605 26.1272C65.0838 25.7402 64.2278 25.5388 63.36 25.5389C61.8693 25.5393 60.4398 26.1317 59.3858 27.1858C58.3317 28.2398 57.7393 29.6693 57.7389 31.16V37.1395C57.7398 37.4429 57.8607 37.7336 58.0753 37.9482C58.2898 38.1627 58.5806 38.2837 58.884 38.2846C59.1875 38.2837 59.4782 38.1627 59.6928 37.9482C59.9073 37.7336 60.0283 37.4429 60.0292 37.1395V31.16C60.0292 29.3206 61.5206 27.8292 63.36 27.8292C65.1995 27.8292 66.6909 29.3206 66.6909 31.16V37.1395C66.6899 37.3096 66.7271 37.4779 66.7996 37.6318C66.8721 37.7858 66.9782 37.9215 67.1101 38.0291C67.2419 38.1367 67.3962 38.2134 67.5616 38.2536C67.7269 38.2938 67.8992 38.2965 68.0657 38.2615C68.1395 38.246 68.2115 38.2237 68.28 38.1946C68.4172 38.1363 68.5406 38.0523 68.6443 37.9486C68.7509 37.8425 68.8355 37.7165 68.8931 37.5776C68.9508 37.4387 68.9804 37.2898 68.9803 37.1395V31.16C68.9803 29.3206 70.4717 27.8292 72.3112 27.8292C74.1506 27.8292 75.642 29.3215 75.642 31.16V37.1395C75.6429 37.4429 75.7639 37.7336 75.9784 37.9482C76.193 38.1627 76.4837 38.2837 76.7872 38.2846C77.0906 38.2837 77.3813 38.1627 77.5959 37.9482C77.8105 37.7336 77.9314 37.4429 77.9323 37.1395V31.16C77.9318 29.6693 77.3395 28.2398 76.2854 27.1858C75.2313 26.1317 73.8027 25.5393 72.312 25.5389ZM18.8006 25.5389C17.1108 25.54 15.4905 26.2118 14.2956 27.4067C13.1007 28.6016 12.4289 30.2219 12.4277 31.9117L12.4277 42.0432C12.4286 42.3466 12.5496 42.6373 12.7641 42.8519C12.9787 43.0665 13.2694 43.1874 13.5729 43.1883C13.8763 43.1874 14.1671 43.0665 14.3816 42.8519C14.5962 42.6373 14.7171 42.3466 14.718 42.0432V31.9117C14.718 29.6575 16.5454 27.8292 18.8006 27.8292C21.0557 27.8292 22.8832 29.6566 22.8832 31.9117C22.8832 34.1669 21.0557 35.9943 18.8006 35.9943C18.168 35.9943 17.6554 36.5069 17.6554 37.1395C17.6554 37.772 18.168 38.2846 18.8006 38.2846C20.4904 38.2835 22.1107 37.6117 23.3056 36.4168C24.5005 35.2219 25.1723 33.6016 25.1734 31.9117C25.1723 30.2219 24.5005 28.6016 23.3056 27.4067C22.1107 26.2118 20.4904 25.54 18.8006 25.5389Z" fill="#512568"/>
<path d="M36.2659 24.2592L36.2573 24.1735C36.2145 23.6695 35.7962 23.2735 35.2802 23.2735C35.1216 23.2735 34.9742 23.3146 34.8413 23.3806C34.7249 22.8767 34.4412 22.427 34.0365 22.105C33.6318 21.7829 33.13 21.6075 32.6128 21.6072C31.6588 21.6072 30.8411 22.19 30.4956 23.0197C30.2513 22.8614 29.9665 22.7772 29.6753 22.7772C29.273 22.7772 28.8871 22.937 28.6026 23.2215C28.318 23.5061 28.1582 23.8919 28.1582 24.2943C28.1582 24.7229 28.4993 24.7812 29.0582 24.7812H35.7491C35.8171 24.7826 35.8846 24.7702 35.9478 24.7449C36.0109 24.7196 36.0682 24.6818 36.1164 24.6338C36.1646 24.5857 36.2026 24.5285 36.2281 24.4655C36.2537 24.4024 36.2662 24.3349 36.2651 24.2669L36.2659 24.2592Z" fill="#EE985D"/>
</g>
<defs>
<clipPath id="clip0_6744_65168">
<rect width="72" height="23.1429" fill="white" transform="translate(12 21.1786)"/>
</clipPath>
</defs>
</svg>
