<svg width="96" height="65" viewBox="0 0 96 65" fill="none" xmlns="http://www.w3.org/2000/svg">
<rect width="96" height="64" transform="translate(0 0.75)" fill="white"/>
<g clip-path="url(#clip0_6744_65146)">
<g clip-path="url(#clip1_6744_65146)">
<path d="M24.92 46.1179V45.2306H24.1177V46.1131H23.6973V43.9919H24.1161V44.884H24.9184V43.9919H25.3372V46.1179H24.92ZM26.8455 46.1179H26.5246L26.4957 46.0056C26.351 46.0945 26.1841 46.1407 26.0143 46.1388C25.7207 46.1388 25.5955 45.9463 25.5955 45.6831C25.5955 45.4199 25.7383 45.2643 26.0608 45.2643H26.4459V45.1038C26.4459 44.9321 26.3962 44.8744 26.1411 44.8744C25.9918 44.8756 25.8429 44.8912 25.6966 44.9209L25.6469 44.6273C25.83 44.5777 26.0188 44.5523 26.2085 44.5519C26.7107 44.5519 26.8503 44.7235 26.8503 45.1038L26.8455 46.1179ZM26.4251 45.5403H26.1539C26.0239 45.5403 25.9934 45.574 25.9934 45.6911C25.9934 45.8083 26.0304 45.8516 26.1539 45.8516C26.2595 45.8501 26.3632 45.8225 26.4556 45.7714L26.4251 45.5403ZM27.6815 46.1516C27.4942 46.1488 27.3083 46.1191 27.1295 46.0634L27.1841 45.7697C27.3409 45.8132 27.5027 45.8359 27.6654 45.8371C27.8419 45.8371 27.8708 45.8002 27.8708 45.6767C27.8708 45.5531 27.8708 45.5339 27.59 45.4761C27.2001 45.3846 27.1712 45.2916 27.1712 44.9947C27.1712 44.6979 27.314 44.5503 27.7697 44.5503C27.9317 44.5505 28.0932 44.5688 28.2511 44.6048L28.2142 44.9097C28.069 44.8831 27.9221 44.8676 27.7746 44.8631C27.598 44.8631 27.5692 44.9001 27.5692 44.9963C27.5692 45.0926 27.5692 45.1295 27.7954 45.1809C28.2431 45.2932 28.2848 45.3526 28.2848 45.6622C28.2848 45.9719 28.1757 46.1356 27.6943 46.1356L27.6815 46.1516ZM29.5155 46.1179V45.0461C29.5155 44.9626 29.4786 44.9241 29.3856 44.9241C29.2389 44.9399 29.0966 44.9841 28.9668 45.0541V46.1179H28.5528V43.9614L28.9716 44.0207V44.6931C29.1545 44.604 29.354 44.5543 29.5573 44.547C29.8204 44.547 29.9167 44.7268 29.9167 44.9995V46.1131L29.5155 46.1179ZM30.2569 44.3721V43.9951H30.6757V44.3721H30.2569ZM30.2569 46.1212V44.5807H30.6757V46.1163L30.2569 46.1212ZM30.9773 44.6016C30.9773 44.2165 31.2116 43.9951 31.7556 43.9951C31.9555 43.9954 32.1548 44.0191 32.3493 44.0657L32.3027 44.409C32.1264 44.3695 31.9472 44.3443 31.7668 44.3336C31.4828 44.3336 31.3897 44.4299 31.3897 44.6546V45.4569C31.3897 45.6783 31.4812 45.7778 31.7668 45.7778C31.9466 45.774 32.1258 45.7558 32.3027 45.7232L32.3493 46.0666C32.1548 46.1132 31.9555 46.1369 31.7556 46.1372C31.2116 46.1372 30.9773 45.9158 30.9773 45.5307V44.6016ZM33.2334 46.1549C32.6846 46.1549 32.5386 45.866 32.5386 45.5515V45.1744C32.5386 44.8535 32.6846 44.5711 33.2334 44.5711C33.7822 44.5711 33.9282 44.8599 33.9282 45.1744V45.5644C33.9282 45.866 33.7822 46.1549 33.2334 46.1549ZM33.2334 44.8985C33.02 44.8985 32.9366 44.9899 32.9366 45.1616V45.5804C32.9366 45.7521 33.02 45.8436 33.2334 45.8436C33.4468 45.8436 33.5303 45.7521 33.5303 45.5804V45.1584C33.5303 44.9707 33.4468 44.8776 33.2334 44.8776V44.8985ZM35.0546 44.9241C34.9097 44.9874 34.7697 45.0614 34.6358 45.1456V46.1372H34.217V44.5807H34.5813V44.7412C34.7117 44.6567 34.8525 44.5893 35.0001 44.5406L35.0546 44.9241ZM36.6753 45.59C36.6863 45.6625 36.6803 45.7364 36.6579 45.8062C36.6355 45.8759 36.5972 45.9395 36.546 45.9919C36.4948 46.0443 36.4322 46.0841 36.363 46.1082C36.2938 46.1323 36.22 46.1401 36.1474 46.1308C36.0066 46.1282 35.8664 46.1126 35.7286 46.0842V46.7116L35.3098 46.771V44.5807H35.6307L35.6676 44.7107C35.8155 44.6051 35.9929 44.5489 36.1746 44.5503C36.4956 44.5503 36.6688 44.7348 36.6688 45.0814L36.6753 45.59ZM35.7205 45.7617C35.8376 45.7872 35.9569 45.8011 36.0768 45.8034C36.2196 45.8034 36.2773 45.7361 36.2773 45.5981V45.0798C36.2773 44.9546 36.2276 44.8824 36.08 44.8824C35.949 44.8867 35.8234 44.9353 35.7237 45.0204L35.7205 45.7617Z" fill="black"/>
<path d="M26.1379 49.3239H23.6973V47.8669H30.2312V49.3239H27.7906V56.6072H26.1379V49.3239Z" fill="black"/>
<path d="M31.7379 55.423C32.4011 55.4204 33.0603 55.3193 33.6939 55.1229L33.9458 56.328C33.1937 56.6035 32.3992 56.7453 31.5983 56.7468C29.5893 56.7468 28.8945 55.8129 28.8945 54.2805V52.6053C28.8945 51.2526 29.4979 50.0941 31.5437 50.0941C33.5896 50.0941 34.0549 51.2863 34.0549 52.6615V54.0254H30.4959V54.3463C30.4959 55.1229 30.7671 55.423 31.7379 55.423ZM30.4831 52.7321H32.5225V52.4112C32.5225 51.8078 32.338 51.389 31.5517 51.389C30.7655 51.389 30.4879 51.8078 30.4879 52.4112L30.4831 52.7321Z" fill="black"/>
<path d="M38.3255 51.5559C37.7446 51.824 37.1851 52.1362 36.6519 52.4898V56.6088H35.0312V50.216H36.3839L36.4882 50.9237C37.007 50.5724 37.5697 50.2908 38.1618 50.0861L38.3255 51.5559Z" fill="black"/>
<path d="M42.2373 51.5559C41.6564 51.824 41.0969 52.1362 40.5637 52.4898V56.6088H38.9414V50.216H40.2941L40.3984 50.9237C40.9172 50.5724 41.4799 50.2908 42.072 50.0861L42.2373 51.5559Z" fill="black"/>
<path d="M47.5875 56.604H46.2765L46.1594 56.1852C45.5939 56.5529 44.9341 56.749 44.2595 56.75C43.0914 56.75 42.5859 55.9477 42.5859 54.8502C42.5859 53.5521 43.1508 53.0546 44.4489 53.0546H45.9845V52.3855C45.9845 51.6779 45.7871 51.4228 44.7666 51.4228C44.1731 51.4297 43.5819 51.4958 43.0015 51.6201L42.7929 50.4038C43.5059 50.2067 44.2419 50.1053 44.9816 50.1022C46.9906 50.1022 47.5811 50.8098 47.5811 52.4128L47.5875 56.604ZM45.9829 54.1891H44.8019C44.2788 54.1891 44.1328 54.3319 44.1328 54.8165C44.1328 55.3011 44.2756 55.4583 44.7746 55.4583C45.1969 55.4544 45.6114 55.344 45.9797 55.1374L45.9829 54.1891Z" fill="black"/>
<path d="M52.5099 48.7591C52.2086 48.6943 51.9017 48.6594 51.5936 48.6548C50.9662 48.6548 50.8732 48.9307 50.8732 49.4169V50.2192H52.497L52.4056 51.4756H50.87V56.5911H49.2654V51.4885H48.248V50.2321H49.2702V49.3239C49.2702 47.9969 49.8847 47.3438 51.3048 47.3438C51.77 47.3418 52.2333 47.4039 52.6816 47.5283L52.5099 48.7591Z" fill="black"/>
<path d="M55.6288 56.7372C53.4401 56.7372 52.8496 55.5321 52.8496 54.226V52.6101C52.8496 51.2992 53.4401 50.0989 55.6288 50.0989C57.8175 50.0989 58.4128 51.304 58.4128 52.6101V54.226C58.4112 55.5273 57.8207 56.7372 55.6288 56.7372ZM55.6288 51.45C54.7912 51.45 54.4478 51.8303 54.4478 52.5508V54.2725C54.4478 54.993 54.7687 55.3733 55.6288 55.3733C56.4888 55.3733 56.8098 54.993 56.8098 54.2725V52.5556C56.8098 51.8319 56.4792 51.45 55.6288 51.45Z" fill="black"/>
<path d="M62.5277 51.5559C61.9468 51.824 61.3873 52.1362 60.8541 52.4898V56.6088H59.2383V50.216H60.591L60.6953 50.9237C61.2136 50.5725 61.7757 50.2909 62.3673 50.0861L62.5277 51.5559Z" fill="black"/>
<path d="M66.9244 56.604V52.1448C66.9244 51.8062 66.7816 51.6346 66.4141 51.6346C65.8256 51.7007 65.2565 51.8846 64.7405 52.1753V56.6088H63.1504V50.2161H64.3683L64.5287 50.7568C65.3255 50.3582 66.1966 50.1303 67.0865 50.0877C67.3329 50.0651 67.5803 50.1183 67.7957 50.2402C68.011 50.3621 68.184 50.5468 68.2915 50.7697C69.0889 50.3619 69.9643 50.1293 70.8589 50.0877C71.9227 50.0877 72.303 50.8371 72.303 51.9763V56.6056H70.7113V52.1448C70.7113 51.8062 70.5685 51.6346 70.201 51.6346C69.6114 51.6957 69.0413 51.88 68.5274 52.1753V56.6088L66.9244 56.604Z" fill="black"/>
<path d="M43.5723 14.4591L52.4297 19.5746V29.8055L43.5723 24.69V14.4591Z" fill="#5C4EE5"/>
<path d="M53.4004 19.5746V29.8055L62.2626 24.69V14.4591L53.4004 19.5746Z" fill="#4040B2"/>
<path d="M33.7441 8.75V18.9809L42.6015 24.0964V13.8655L33.7441 8.75Z" fill="#5C4EE5"/>
<path d="M43.5723 36.0379L52.4297 41.1533V30.9946V30.9272L43.5723 25.8118V36.0379Z" fill="#5C4EE5"/>
</g>
</g>
<defs>
<clipPath id="clip0_6744_65146">
<rect width="72" height="48" fill="white" transform="translate(12 8.75)"/>
</clipPath>
<clipPath id="clip1_6744_65146">
<rect width="48.6065" height="48" fill="white" transform="translate(23.6973 8.75)"/>
</clipPath>
</defs>
</svg>
