<svg width="96" height="65" viewBox="0 0 96 65" fill="none" xmlns="http://www.w3.org/2000/svg">
<rect width="96" height="64" transform="translate(0 0.75)" fill="white"/>
<g clip-path="url(#clip0_6744_65129)">
<g clip-path="url(#clip1_6744_65129)">
<path d="M32.4493 46.1179V45.2306H31.647V46.1131H31.2266V43.9919H31.6454V44.884H32.4477V43.9919H32.8665V46.1179H32.4493ZM34.3748 46.1179H34.0539L34.025 46.0056C33.8803 46.0945 33.7134 46.1407 33.5436 46.1388C33.25 46.1388 33.1248 45.9463 33.1248 45.6831C33.1248 45.4199 33.2676 45.2643 33.5901 45.2643H33.9752V45.1038C33.9752 44.9321 33.9255 44.8744 33.6704 44.8744C33.5211 44.8756 33.3722 44.8912 33.2259 44.9209L33.1762 44.6273C33.3592 44.5776 33.5481 44.5523 33.7378 44.5519C34.24 44.5519 34.3796 44.7235 34.3796 45.1038L34.3748 46.1179ZM33.9544 45.5403H33.6832C33.5532 45.5403 33.5227 45.574 33.5227 45.6911C33.5227 45.8083 33.5597 45.8516 33.6832 45.8516C33.7888 45.8501 33.8924 45.8225 33.9849 45.7714L33.9544 45.5403ZM35.2108 46.1516C35.0235 46.1488 34.8376 46.1191 34.6588 46.0634L34.7134 45.7697C34.8702 45.8132 35.032 45.8359 35.1947 45.8371C35.3712 45.8371 35.4001 45.8002 35.4001 45.6767C35.4001 45.5531 35.4001 45.5339 35.1193 45.4761C34.7294 45.3846 34.7005 45.2916 34.7005 44.9947C34.7005 44.6979 34.8433 44.5503 35.299 44.5503C35.461 44.5505 35.6225 44.5688 35.7804 44.6048L35.7435 44.9097C35.6052 44.8841 35.4652 44.8686 35.3247 44.8631C35.1482 44.8631 35.1193 44.9001 35.1193 44.9963C35.1193 45.0926 35.1193 45.1295 35.3456 45.1809C35.7933 45.2932 35.835 45.3526 35.835 45.6622C35.835 45.9719 35.7018 46.1356 35.2204 46.1356L35.2108 46.1516ZM37.0448 46.1179V45.0461C37.0448 44.9626 37.0079 44.9241 36.9149 44.9241C36.7681 44.9398 36.6259 44.9839 36.4961 45.0541V46.1179H36.0821V43.9614L36.5009 44.0207V44.6931C36.6838 44.604 36.8833 44.5543 37.0866 44.547C37.3497 44.547 37.446 44.7268 37.446 44.9995V46.1131L37.0448 46.1179ZM37.7862 44.3721V43.9951H38.205V44.3721H37.7862ZM37.7862 46.1212V44.5807H38.205V46.1131L37.7862 46.1212ZM38.5066 44.6016C38.5066 44.2165 38.7409 43.9951 39.2849 43.9951C39.4848 43.9954 39.6841 44.0191 39.8786 44.0657L39.832 44.409C39.6541 44.3692 39.4733 44.344 39.2913 44.3336C39.0073 44.3336 38.9142 44.4299 38.9142 44.6546V45.4569C38.9142 45.6783 39.0057 45.7778 39.2913 45.7778C39.4711 45.774 39.6503 45.7558 39.8272 45.7232L39.8738 46.0666C39.6793 46.1132 39.48 46.1369 39.28 46.1372C38.7361 46.1372 38.5018 45.9158 38.5018 45.5307L38.5066 44.6016ZM40.7627 46.1549C40.2139 46.1549 40.0679 45.866 40.0679 45.5515V45.1744C40.0679 44.8535 40.2139 44.5711 40.7627 44.5711C41.3115 44.5711 41.4575 44.8599 41.4575 45.1744V45.5644C41.4575 45.866 41.3067 46.1549 40.7579 46.1549H40.7627ZM40.7627 44.8985C40.5493 44.8985 40.4658 44.9899 40.4658 45.1616V45.5804C40.4658 45.7521 40.5493 45.8436 40.7627 45.8436C40.9761 45.8436 41.0596 45.7521 41.0596 45.5804V45.1584C41.0596 44.9707 40.9713 44.8776 40.7579 44.8776L40.7627 44.8985ZM42.5839 44.9241C42.439 44.9874 42.299 45.0614 42.1651 45.1456V46.1372H41.7463V44.5807H42.1106V44.7412C42.241 44.6567 42.3818 44.5893 42.5294 44.5406L42.5839 44.9241ZM44.1885 45.59C44.1995 45.6625 44.1936 45.7364 44.1712 45.8062C44.1487 45.8759 44.1104 45.9395 44.0593 45.9919C44.0081 46.0443 43.9454 46.0841 43.8763 46.1082C43.8071 46.1323 43.7333 46.1401 43.6606 46.1308C43.5199 46.1282 43.3797 46.1126 43.2418 46.0842V46.7116L42.823 46.771V44.5807H43.1439L43.1808 44.7107C43.3287 44.6051 43.5062 44.5489 43.6879 44.5503C44.0088 44.5503 44.1821 44.7348 44.1821 45.0814L44.1885 45.59ZM43.2338 45.7617C43.3509 45.7872 43.4702 45.8011 43.59 45.8034C43.7328 45.8034 43.7906 45.7361 43.7906 45.5981V45.0798C43.7906 44.9546 43.7408 44.8824 43.5932 44.8824C43.4623 44.8867 43.3366 44.9353 43.237 45.0204L43.2338 45.7617Z" fill="black"/>
<path d="M31.2266 47.83H34.6508C36.6806 47.83 37.4299 48.6676 37.4299 50.2032V51.4002C37.4299 52.9278 36.5923 53.7574 34.5705 53.7574H32.9002V56.604H31.2266V47.83ZM34.5754 49.2902H32.9002V52.2828H34.5754C35.5124 52.2828 35.79 51.9394 35.79 51.2157V50.3332C35.7724 49.6079 35.4707 49.2902 34.5754 49.2902Z" fill="black"/>
<path d="M43.0485 56.604H41.7295L41.6124 56.1852C41.0438 56.554 40.3806 56.7502 39.7029 56.75C38.5315 56.75 38.0293 55.9477 38.0293 54.8406C38.0293 53.5344 38.5941 53.037 39.9003 53.037H41.4407V52.3631C41.4407 51.6522 41.2433 51.4003 40.2148 51.4003C39.6167 51.405 39.0205 51.4695 38.4353 51.5929L38.2379 50.3669C38.9532 50.1628 39.6924 50.0549 40.4362 50.046C42.4532 50.046 43.0437 50.7569 43.0437 52.3647L43.0485 56.604ZM41.4439 54.1811H40.2517C39.7238 54.1811 39.5777 54.3271 39.5777 54.8133C39.5777 55.2995 39.7238 55.4551 40.2196 55.4551C40.6472 55.4499 41.0664 55.3356 41.4375 55.123L41.4439 54.1811Z" fill="black"/>
<path d="M44.0059 54.2725V52.5186C44.0059 50.7937 44.7552 50.0524 46.7722 50.0524C47.3041 50.0562 47.8326 50.1367 48.3415 50.2915L48.1441 51.6104C47.7082 51.5024 47.2614 51.4448 46.8123 51.4387C45.8913 51.4387 45.6153 51.7147 45.6153 52.5058V54.2853C45.6153 55.0764 45.8913 55.3524 46.8123 55.3524C47.2616 55.3503 47.709 55.2927 48.1441 55.1807L48.3415 56.4996C47.8334 56.6577 47.3043 56.7383 46.7722 56.7387C44.76 56.7371 44.0059 55.9958 44.0059 54.2725Z" fill="black"/>
<path d="M49.3594 56.6039V47.5652L50.964 47.339V56.6023L49.3594 56.6039ZM54.815 50.1856L52.9312 53.3627L54.8936 56.6023H53.1286L51.1902 53.3627L53.0243 50.1856H54.815Z" fill="black"/>
<path d="M58.1589 55.4182C58.8246 55.4175 59.4865 55.318 60.123 55.1229L60.3749 56.3376C59.6186 56.6141 58.8197 56.7558 58.0145 56.7564C55.9975 56.7564 55.3027 55.8193 55.3027 54.2789V52.5716C55.3027 51.2157 55.9093 50.0604 57.9648 50.0604C60.0203 50.0604 60.476 51.2575 60.476 52.6438V54.0126H56.9009V54.3431C56.9009 55.1229 57.1801 55.4182 58.1589 55.4182ZM56.9009 52.716H58.9436V52.3951C58.9436 51.7886 58.759 51.365 57.968 51.365C57.1769 51.365 56.9009 51.7902 56.9009 52.3951V52.716Z" fill="black"/>
<path d="M64.7726 51.5302C64.1829 51.7983 63.6148 52.1116 63.0733 52.4673V56.6023H61.4688V50.1839H62.8246L62.9289 50.8948C63.4484 50.5467 64.011 50.2678 64.6025 50.0652L64.7726 51.5302Z" fill="black"/>
<path d="M38.0957 12.7101L48.5978 18.7787V41.1533L38.0957 35.0879V12.7101Z" fill="#1DAEFF"/>
<path d="M53.796 15.3289L42.3809 8.75V13.3167L50.1423 17.7999V31.5L53.796 33.586C56.0569 34.8921 57.907 34.1091 57.907 31.8482V21.8098C57.907 19.549 56.0569 16.6318 53.796 15.3289Z" fill="#1D94DD"/>
</g>
</g>
<defs>
<clipPath id="clip0_6744_65129">
<rect width="72" height="48" fill="white" transform="translate(12 8.75)"/>
</clipPath>
<clipPath id="clip1_6744_65129">
<rect width="33.5458" height="48" fill="white" transform="translate(31.2266 8.75)"/>
</clipPath>
</defs>
</svg>
