<svg width="96" height="65" viewBox="0 0 96 65" fill="none" xmlns="http://www.w3.org/2000/svg">
<rect width="96" height="64" transform="translate(0 0.810059)" fill="white"/>
<g clip-path="url(#clip0_6744_66638)">
<mask id="mask0_6744_66638" style="mask-type:luminance" maskUnits="userSpaceOnUse" x="12" y="19" width="22" height="27">
<path d="M33.0953 31.8058L26.0657 38.8354L33.0953 45.8715H25.0615L22.0423 42.8588L18.0254 38.8418L25.0615 31.8058H33.0953ZM25.0615 19.7485L12 32.81L16.0169 36.8269L33.0953 19.7485H25.0615Z" fill="white"/>
</mask>
<g mask="url(#mask0_6744_66638)">
<path d="M22.0423 42.8587L33.0953 31.8057H25.0615L18.0254 38.8353L22.0423 42.8587Z" fill="#39CEFD"/>
</g>
<mask id="mask1_6744_66638" style="mask-type:luminance" maskUnits="userSpaceOnUse" x="12" y="19" width="22" height="27">
<path d="M33.0953 31.8058L26.0657 38.8354L33.0953 45.8715H25.0615L22.0423 42.8588L18.0254 38.8418L25.0615 31.8058H33.0953ZM25.0615 19.7485L12 32.81L16.0169 36.8269L33.0953 19.7485H25.0615Z" fill="white"/>
</mask>
<g mask="url(#mask1_6744_66638)">
<path d="M12 32.81L25.0615 19.7485H33.0953L16.0169 36.8269L12 32.81Z" fill="#39CEFD"/>
</g>
<mask id="mask2_6744_66638" style="mask-type:luminance" maskUnits="userSpaceOnUse" x="12" y="19" width="22" height="27">
<path d="M33.0953 31.8058L26.0657 38.8354L33.0953 45.8715H25.0615L22.0423 42.8588L18.0254 38.8418L25.0615 31.8058H33.0953ZM25.0615 19.7485L12 32.81L16.0169 36.8269L33.0953 19.7485H25.0615Z" fill="white"/>
</mask>
<g mask="url(#mask2_6744_66638)">
<path d="M25.0615 45.8715H33.0954L26.0657 38.8354L22.0488 42.8524L25.0615 45.8715Z" fill="#03569B"/>
</g>
<mask id="mask3_6744_66638" style="mask-type:luminance" maskUnits="userSpaceOnUse" x="12" y="19" width="22" height="27">
<path d="M33.0953 31.8058L26.0657 38.8354L33.0953 45.8715H25.0615L22.0423 42.8588L18.0254 38.8418L25.0615 31.8058H33.0953ZM25.0615 19.7485L12 32.81L16.0169 36.8269L33.0953 19.7485H25.0615Z" fill="white"/>
</mask>
<g mask="url(#mask3_6744_66638)">
<path d="M26.0657 38.8354L22.0488 42.8524L28.0094 40.7856L26.0657 38.8354Z" fill="url(#paint0_linear_6744_66638)"/>
</g>
<mask id="mask4_6744_66638" style="mask-type:luminance" maskUnits="userSpaceOnUse" x="12" y="19" width="22" height="27">
<path d="M33.0953 31.8058L26.0657 38.8354L33.0953 45.8715H25.0615L22.0423 42.8588L18.0254 38.8418L25.0615 31.8058H33.0953ZM25.0615 19.7485L12 32.81L16.0169 36.8269L33.0953 19.7485H25.0615Z" fill="white"/>
</mask>
<g mask="url(#mask4_6744_66638)">
<path d="M18.0254 38.8353L22.0423 34.8184L26.0592 38.8353L22.0423 42.8587L18.0254 38.8353Z" fill="#16B9FD"/>
</g>
<path d="M33.0953 31.8058L26.0657 38.8354L33.0953 45.8715H25.0615L22.0423 42.8588L18.0254 38.8418L25.0615 31.8058H33.0953ZM25.0615 19.7485L12 32.81L16.0169 36.8269L33.0953 19.7485H25.0615Z" fill="url(#paint1_radial_6744_66638)"/>
<path d="M35.6406 26.7522H42.6832V28.0933H37.1178V32.2528H42.1454V33.5939H37.1178V38.8289H35.7054V26.7522H35.6406Z" fill="#808080"/>
<path d="M44.3613 26.7522H45.7672V38.8937H44.3613V26.7522Z" fill="#808080"/>
<path d="M51.0683 39.1852C50.6221 39.207 50.1763 39.1347 49.7599 38.9728C49.3436 38.811 48.9659 38.5632 48.6517 38.2457C48.0801 37.5245 47.7941 36.6181 47.8483 35.6995V30.2378H49.2542V35.4727C49.2152 36.1218 49.4056 36.7639 49.792 37.2868C49.9919 37.4904 50.2327 37.6493 50.4984 37.7532C50.7642 37.857 51.0489 37.9035 51.3339 37.8894C51.7988 37.9051 52.2553 37.7636 52.6297 37.4877C52.993 37.2309 53.2815 36.8821 53.4655 36.477C53.6789 36.0616 53.7942 35.6028 53.8024 35.1358V30.2378H55.2083V38.8936H53.8866V37.5978H53.8218C53.5458 38.0527 53.1517 38.4243 52.6815 38.6733C52.2133 39.014 51.6473 39.1936 51.0683 39.1852Z" fill="#808080"/>
<path d="M60.8574 39.0233C60.5129 39.0213 60.1719 38.9531 59.8532 38.8225C59.5838 38.7071 59.3345 38.5496 59.1146 38.356C58.8984 38.1389 58.717 37.8898 58.5768 37.6174C58.4303 37.2967 58.3615 36.946 58.376 36.5937V31.5143H56.834V30.2185H58.376V27.8213H59.7819V30.2379H61.8875V31.5337H59.7884V36.205C59.7546 36.5831 59.8481 36.9616 60.054 37.2805C60.1679 37.4167 60.3124 37.5241 60.4756 37.5939C60.6389 37.6637 60.8163 37.6939 60.9934 37.6822C61.3271 37.6977 61.6568 37.6045 61.9329 37.4165V38.8225C61.732 38.8872 61.596 38.9585 61.3951 39.0233H60.8574Z" fill="#808080"/>
<path d="M66.9661 39.0233C66.6216 39.0213 66.2806 38.9531 65.9619 38.8225C65.6925 38.7071 65.4432 38.5496 65.2233 38.356C65.0071 38.1389 64.8257 37.8898 64.6855 37.6174C64.5368 37.2972 64.4657 36.9465 64.4782 36.5937V31.5143H63.0723V30.2185H64.6142V27.8213H66.0202V30.2379H68.1064V31.5337H66.0266V36.205C65.9929 36.5831 66.0864 36.9616 66.2923 37.2805C66.4062 37.4167 66.5506 37.5241 66.7139 37.5939C66.8771 37.6637 67.0546 37.6939 67.2317 37.6822C67.5654 37.6977 67.895 37.6045 68.1712 37.4165V38.8225C67.9703 38.8872 67.8343 38.9585 67.6334 39.0233H66.9661Z" fill="#808080"/>
<path d="M73.3351 39.1851C72.5507 39.1791 71.7834 38.9547 71.1193 38.5372C70.4771 38.1414 69.9464 37.5884 69.5773 36.9305C69.2123 36.2068 69.0194 35.4086 69.0137 34.5981C69.0165 33.8068 69.2004 33.0267 69.5514 32.3175C69.8935 31.6419 70.4019 31.0644 71.0286 30.6395C71.5059 30.3328 72.0418 30.1288 72.6022 30.0405C73.1625 29.9522 73.7352 29.9815 74.2836 30.1266C74.8321 30.2716 75.3443 30.5292 75.7878 30.883C76.2313 31.2367 76.5963 31.6789 76.8596 32.1814C77.2179 32.888 77.4022 33.6698 77.3974 34.462C77.4133 34.6204 77.3911 34.7804 77.3326 34.9285H70.452C70.4876 35.5103 70.6466 36.0779 70.9185 36.5936C71.1724 37.0252 71.546 37.374 71.994 37.5978C72.4122 37.8036 72.8693 37.9184 73.3351 37.9347C73.8613 37.9417 74.3789 37.8009 74.829 37.5283C75.2791 37.2557 75.6437 36.8622 75.8813 36.3927L77.0864 36.9953C76.7199 37.6741 76.1899 38.2509 75.5444 38.6733C74.8519 38.9983 74.0934 39.158 73.3286 39.1398L73.3351 39.1851ZM75.8165 33.6845C75.8066 33.2954 75.6949 32.9157 75.4926 32.5831C75.2759 32.2078 74.9768 31.8866 74.6179 31.6437C74.1782 31.3618 73.6626 31.2216 73.1407 31.242C72.8216 31.2274 72.5028 31.2772 72.2034 31.3885C71.9039 31.4998 71.63 31.6703 71.3979 31.8899C70.9173 32.3636 70.59 32.9708 70.4585 33.6327L75.8165 33.6845Z" fill="#808080"/>
<path d="M79.0377 30.238H80.3789V31.6439H80.4437C80.622 31.1504 80.9809 30.7429 81.4479 30.5036C81.8993 30.1882 82.4394 30.0248 82.9899 30.0371C83.3356 30.0257 83.6793 30.0944 83.9941 30.238V31.7799C83.6241 31.5833 83.2074 31.4914 82.789 31.5143C82.3857 31.5229 81.992 31.6392 81.6487 31.8512C81.3075 32.1142 81.012 32.4316 80.7741 32.7906C80.5576 33.1886 80.4419 33.6335 80.4372 34.0864V38.9132H79.0312L79.0377 30.238Z" fill="#808080"/>
</g>
<defs>
<linearGradient id="paint0_linear_6744_66638" x1="-846.564" y1="-411.066" x2="-846.564" y2="-411.066" gradientUnits="userSpaceOnUse">
<stop stop-color="#1A237E" stop-opacity="0.4"/>
<stop offset="1" stop-color="#1A237E" stop-opacity="0"/>
</linearGradient>
<radialGradient id="paint1_radial_6744_66638" cx="0" cy="0" r="1" gradientUnits="userSpaceOnUse" gradientTransform="translate(-846.564 -411.066) scale(0)">
<stop stop-color="white" stop-opacity="0.1"/>
<stop offset="1" stop-color="white" stop-opacity="0"/>
</radialGradient>
<clipPath id="clip0_6744_66638">
<rect width="72" height="26.1229" fill="white" transform="translate(12 19.7485)"/>
</clipPath>
</defs>
</svg>
