<svg width="96" height="65" viewBox="0 0 96 65" fill="none" xmlns="http://www.w3.org/2000/svg">
<rect width="96" height="64" transform="translate(0 0.810059)" fill="white"/>
<g clip-path="url(#clip0_6744_66588)">
<g clip-path="url(#clip1_6744_66588)">
<path d="M62.2573 44.637H56.1854L56.608 39.5196H53.623L53.2004 44.637H40.6169L40.1943 39.5196H37.2117L37.6344 44.637H31.5624L28.1621 22.4525L36.6823 8.81006H57.1375L65.6576 22.4525L62.2573 44.637ZM55.4252 15.6398H49.9531L50.3247 18.1997H43.495L43.8666 15.6398H38.3946L34.97 22.4404L36.6701 36.0828H57.1253L58.8255 22.4404L55.4252 15.6398ZM52.4426 31.5775C51.9569 31.5775 51.595 30.1663 51.595 28.4006C51.595 26.6349 51.9836 25.2238 52.4426 25.2238C52.9017 25.2238 53.2903 26.6349 53.2903 28.4006C53.2903 30.1663 52.9187 31.5775 52.4426 31.5775ZM41.6928 31.8422C41.2071 31.8422 40.8452 30.4311 40.8452 28.6653C40.8452 26.8996 41.2338 25.4885 41.6928 25.4885C42.1519 25.4885 42.5405 26.8996 42.5405 28.6653C42.5405 30.4311 42.1519 31.8422 41.6928 31.8422Z" fill="#32383D"/>
<path d="M22.3301 48.0423L22.9713 46.6506C22.974 46.6433 22.979 46.6372 22.9857 46.6333C22.9923 46.6293 23 46.6277 23.0077 46.6287H23.0296C23.0372 46.6277 23.045 46.6293 23.0516 46.6333C23.0582 46.6372 23.0633 46.6433 23.066 46.6506L23.6999 48.0423C23.7145 48.0714 23.6999 48.0933 23.6635 48.0933H23.4862C23.457 48.0933 23.4425 48.0787 23.4279 48.0496L23.3259 47.8285H22.7041L22.6021 48.0496C22.5981 48.062 22.5903 48.0728 22.5799 48.0807C22.5695 48.0885 22.5568 48.0929 22.5438 48.0933H22.3665C22.3604 48.0932 22.3544 48.0917 22.349 48.0889C22.3436 48.086 22.3389 48.082 22.3354 48.077C22.3318 48.072 22.3295 48.0663 22.3286 48.0603C22.3276 48.0542 22.3282 48.0481 22.3301 48.0423ZM23.2287 47.6002L23.0223 47.1436L22.8158 47.6002H23.2287Z" fill="#A5B0B8"/>
<path d="M24.0978 46.6868C24.097 46.6785 24.0993 46.6702 24.1042 46.6635C24.1092 46.6568 24.1164 46.6521 24.1245 46.6504H24.6103C24.6735 46.6458 24.7371 46.6543 24.7969 46.6753C24.8567 46.6964 24.9115 46.7295 24.958 46.7727C25.0044 46.8159 25.0415 46.8682 25.0668 46.9263C25.0921 46.9845 25.1052 47.0472 25.1052 47.1106C25.1052 47.1741 25.0921 47.2368 25.0668 47.2949C25.0415 47.3531 25.0044 47.4054 24.958 47.4486C24.9115 47.4918 24.8567 47.5249 24.7969 47.546C24.7371 47.567 24.6735 47.5755 24.6103 47.5709H24.3674V48.0566C24.3668 48.0661 24.3628 48.0751 24.3561 48.0818C24.3494 48.0885 24.3404 48.0925 24.331 48.0931H24.1415C24.132 48.0925 24.1231 48.0885 24.1164 48.0818C24.1097 48.0751 24.1057 48.0661 24.1051 48.0566V46.6868H24.0978ZM24.6103 47.3134C24.667 47.3134 24.7213 47.2909 24.7614 47.2508C24.8015 47.2108 24.824 47.1564 24.824 47.0997C24.8231 47.0726 24.8168 47.0459 24.8055 47.0212C24.7943 46.9966 24.7783 46.9743 24.7584 46.9558C24.7386 46.9373 24.7153 46.9229 24.6899 46.9134C24.6644 46.904 24.6374 46.8996 24.6103 46.9005H24.3674V47.3134H24.6103Z" fill="#A5B0B8"/>
<path d="M25.261 48.0423L25.9022 46.6506C25.9049 46.6433 25.9099 46.6372 25.9165 46.6333C25.9232 46.6293 25.9309 46.6277 25.9386 46.6287H25.9605C25.9681 46.6277 25.9759 46.6293 25.9825 46.6333C25.9891 46.6372 25.9942 46.6433 25.9969 46.6506L26.6308 48.0423C26.6454 48.0714 26.6308 48.0933 26.5944 48.0933H26.4171C26.3879 48.0933 26.3734 48.0787 26.3588 48.0496L26.2568 47.8285H25.6374L25.5354 48.0496C25.5314 48.062 25.5237 48.0728 25.5132 48.0807C25.5028 48.0885 25.4902 48.0929 25.4771 48.0933H25.2998C25.2634 48.0933 25.2488 48.0641 25.2634 48.0423H25.261ZM26.1523 47.6002L25.9459 47.1436L25.7394 47.6002H26.1596H26.1523Z" fill="#A5B0B8"/>
<path d="M27.6565 46.6262C27.842 46.622 28.0217 46.6909 28.1569 46.8181C28.1619 46.8211 28.1661 46.8254 28.1689 46.8305C28.1718 46.8356 28.1733 46.8414 28.1733 46.8472C28.1733 46.8531 28.1718 46.8589 28.1689 46.864C28.1661 46.8691 28.1619 46.8733 28.1569 46.8764L28.0306 47.01C28.0238 47.0166 28.0146 47.0204 28.0051 47.0204C27.9955 47.0204 27.9864 47.0166 27.9796 47.01C27.8915 46.9336 27.7802 46.8892 27.6638 46.8837C27.5512 46.9034 27.4492 46.9622 27.3757 47.0497C27.3022 47.1372 27.2619 47.2478 27.2619 47.3621C27.2619 47.4764 27.3022 47.5871 27.3757 47.6746C27.4492 47.7621 27.5512 47.8209 27.6638 47.8406C27.7799 47.8399 27.8919 47.7977 27.9796 47.7216C27.9864 47.7149 27.9955 47.7112 28.0051 47.7112C28.0146 47.7112 28.0238 47.7149 28.0306 47.7216L28.1569 47.8552C28.164 47.8632 28.168 47.8736 28.168 47.8843C28.168 47.8951 28.164 47.9054 28.1569 47.9135C28.0911 47.9785 28.0129 48.0297 27.9269 48.0639C27.841 48.0981 27.749 48.1147 27.6565 48.1126C27.4591 48.1126 27.2698 48.0342 27.1301 47.8946C26.9905 47.755 26.9121 47.5656 26.9121 47.3682C26.9121 47.1708 26.9905 46.9814 27.1301 46.8418C27.2698 46.7022 27.4591 46.6238 27.6565 46.6238V46.6262Z" fill="#A5B0B8"/>
<path d="M28.6367 46.6869C28.6373 46.6774 28.6413 46.6685 28.648 46.6618C28.6547 46.6551 28.6637 46.6511 28.6732 46.6505H28.865C28.8745 46.6511 28.8834 46.6551 28.8901 46.6618C28.8969 46.6685 28.9009 46.6774 28.9015 46.6869V47.2334H29.5718V46.6869C29.5714 46.682 29.5721 46.6771 29.5738 46.6726C29.5755 46.668 29.5782 46.6638 29.5817 46.6603C29.5851 46.6569 29.5893 46.6542 29.5939 46.6525C29.5985 46.6508 29.6034 46.6501 29.6082 46.6505H29.8001C29.8096 46.6511 29.8185 46.6551 29.8252 46.6618C29.8319 46.6685 29.836 46.6774 29.8365 46.6869V48.0567C29.836 48.0662 29.8319 48.0752 29.8252 48.0819C29.8185 48.0886 29.8096 48.0926 29.8001 48.0932H29.6082C29.5988 48.0926 29.5898 48.0886 29.5831 48.0819C29.5764 48.0752 29.5724 48.0662 29.5718 48.0567V47.4884H28.9015V48.0567C28.9018 48.0616 28.9011 48.0665 28.8994 48.0711C28.8977 48.0757 28.895 48.0799 28.8916 48.0833C28.8881 48.0868 28.884 48.0894 28.8794 48.0911C28.8748 48.0928 28.8699 48.0935 28.865 48.0932H28.6732C28.6637 48.0926 28.6547 48.0886 28.648 48.0819C28.6413 48.0752 28.6373 48.0662 28.6367 48.0567V46.6869Z" fill="#A5B0B8"/>
<path d="M30.4404 46.6869C30.44 46.682 30.4407 46.6771 30.4424 46.6726C30.4441 46.668 30.4468 46.6638 30.4503 46.6603C30.4537 46.6569 30.4579 46.6542 30.4625 46.6525C30.4671 46.6508 30.472 46.6501 30.4768 46.6505H31.3172C31.3267 46.6511 31.3356 46.6551 31.3423 46.6618C31.349 46.6685 31.3531 46.6774 31.3536 46.6869V46.8569C31.354 46.8618 31.3533 46.8667 31.3516 46.8713C31.3499 46.8759 31.3472 46.88 31.3438 46.8835C31.3403 46.887 31.3361 46.8896 31.3316 46.8913C31.327 46.893 31.3221 46.8937 31.3172 46.8934H30.7003V47.2334H31.2079C31.2174 47.234 31.2263 47.238 31.233 47.2447C31.2397 47.2514 31.2438 47.2604 31.2443 47.2698V47.4398C31.2438 47.4493 31.2397 47.4582 31.233 47.465C31.2263 47.4717 31.2174 47.4757 31.2079 47.4763H30.7003V47.8454H31.3123C31.3218 47.846 31.3307 47.85 31.3375 47.8568C31.3442 47.8635 31.3482 47.8724 31.3488 47.8819V48.0519C31.3491 48.0568 31.3484 48.0617 31.3467 48.0662C31.345 48.0708 31.3424 48.075 31.3389 48.0785C31.3354 48.0819 31.3313 48.0846 31.3267 48.0863C31.3221 48.088 31.3172 48.0887 31.3123 48.0883H30.472C30.4625 48.0877 30.4536 48.0837 30.4469 48.077C30.4401 48.0703 30.4361 48.0614 30.4355 48.0519L30.4404 46.6869Z" fill="#A5B0B8"/>
<path d="M72.1035 49.8032H71.3287C71.3094 49.8032 71.2909 49.8109 71.2772 49.8246C71.2635 49.8382 71.2559 49.8568 71.2559 49.8761V50.0242C71.2559 50.0436 71.2635 50.0621 71.2772 50.0758C71.2909 50.0894 71.3094 50.0971 71.3287 50.0971H71.5716V51.054C71.5716 51.0636 71.5735 51.0731 71.5771 51.0819C71.5808 51.0908 71.5862 51.0988 71.5929 51.1056C71.5997 51.1123 71.6077 51.1177 71.6166 51.1214C71.6254 51.125 71.6349 51.1269 71.6445 51.1269H71.8072C71.8168 51.1269 71.8262 51.125 71.8351 51.1214C71.8439 51.1177 71.8519 51.1123 71.8587 51.1056C71.8655 51.0988 71.8708 51.0908 71.8745 51.0819C71.8782 51.0731 71.8801 51.0636 71.8801 51.054V50.0995H72.1229C72.1325 50.0995 72.142 50.0976 72.1508 50.094C72.1597 50.0903 72.1677 50.085 72.1745 50.0782C72.1812 50.0714 72.1866 50.0634 72.1903 50.0546C72.1939 50.0457 72.1958 50.0362 72.1958 50.0267V49.8785C72.1915 49.8596 72.1815 49.8425 72.1672 49.8295C72.1528 49.8165 72.1349 49.8081 72.1156 49.8057L72.1035 49.8032Z" fill="#32383D"/>
<path d="M73.8213 51.0345L73.6149 49.8493C73.6131 49.8332 73.6054 49.8183 73.5933 49.8075C73.5812 49.7968 73.5655 49.7909 73.5493 49.791H73.5202C73.507 49.791 73.4941 49.7944 73.4827 49.8007C73.4712 49.8071 73.4615 49.8163 73.4546 49.8274L73.0927 50.6022L72.7308 49.8274C72.7238 49.8163 72.7142 49.8071 72.7027 49.8007C72.6912 49.7944 72.6783 49.791 72.6652 49.791H72.6434C72.6352 49.7903 72.627 49.7913 72.6192 49.7939C72.6114 49.7965 72.6043 49.8007 72.5981 49.8061C72.592 49.8116 72.587 49.8182 72.5835 49.8256C72.58 49.833 72.5781 49.8411 72.5778 49.8493L72.3641 51.0418C72.3612 51.0624 72.3664 51.0833 72.3786 51.1001C72.3851 51.1071 72.393 51.1127 72.4018 51.1165C72.4106 51.1202 72.4201 51.1221 72.4296 51.1219H72.5924C72.6086 51.122 72.6242 51.1161 72.6363 51.1054C72.6484 51.0946 72.6561 51.0798 72.6579 51.0637L72.7454 50.5026L73.0101 51.0928C73.0171 51.1039 73.0268 51.1131 73.0382 51.1194C73.0497 51.1258 73.0626 51.1292 73.0757 51.1292H73.1048C73.119 51.13 73.1331 51.1262 73.1449 51.1183C73.1568 51.1104 73.1657 51.0989 73.1704 51.0855L73.4352 50.4953L73.5226 51.0564C73.5267 51.0707 73.5353 51.0834 73.5471 51.0926C73.5588 51.1017 73.5732 51.1069 73.5882 51.1074H73.7509C73.7724 51.108 73.7933 51.1001 73.8092 51.0855C73.8092 51.0855 73.8092 51.0564 73.8092 51.0345H73.8213Z" fill="#32383D"/>
<path d="M27.5687 54.77C27.5095 54.7127 27.43 54.6812 27.3477 54.6825C27.269 54.6821 27.1929 54.7106 27.1339 54.7627C26.7567 55.0872 26.2763 55.2671 25.7787 55.2703C25.2535 55.2447 24.7584 55.018 24.3958 54.6373C24.0332 54.2566 23.8309 53.751 23.8309 53.2252C23.8309 52.6995 24.0332 52.1939 24.3958 51.8132C24.7584 51.4325 25.2535 51.2058 25.7787 51.1802C26.277 51.1867 26.757 51.369 27.1339 51.6951C27.1932 51.7531 27.2721 51.7869 27.355 51.7898C27.3969 51.7893 27.4382 51.7799 27.4763 51.7624C27.5144 51.7448 27.5484 51.7194 27.576 51.6878L28.1516 51.0976C28.184 51.0664 28.2093 51.0285 28.2256 50.9866C28.242 50.9447 28.2491 50.8997 28.2463 50.8548C28.246 50.8087 28.2358 50.7632 28.2165 50.7213C28.1973 50.6794 28.1694 50.6421 28.1346 50.6119C27.4908 50.0038 26.6324 49.6755 25.7471 49.6987C24.8027 49.6987 23.897 50.0733 23.2285 50.7404C22.5601 51.4075 22.1836 52.3125 22.1817 53.2568C22.1804 53.7238 22.2716 54.1863 22.4502 54.6178C22.6287 55.0493 22.891 55.4411 23.2218 55.7706C23.5527 56.1001 23.9456 56.3607 24.3778 56.5375C24.8099 56.7143 25.2729 56.8036 25.7398 56.8004C26.6353 56.8102 27.4984 56.4663 28.1419 55.8435C28.208 55.7741 28.2446 55.6818 28.2439 55.586C28.2438 55.5468 28.2352 55.5082 28.2189 55.4725C28.2026 55.4369 28.1788 55.4052 28.1492 55.3796L27.5663 54.7602L27.5687 54.77Z" fill="#32383D"/>
<path d="M32.5103 49.6937C31.8065 49.6927 31.1183 49.9005 30.5327 50.2907C29.947 50.6808 29.4902 51.2359 29.22 51.8857C28.9498 52.5355 28.8783 53.2509 29.0147 53.9413C29.151 54.6317 29.4891 55.2661 29.986 55.7644C30.4829 56.2627 31.1165 56.6025 31.8065 56.7407C32.4965 56.8789 33.2121 56.8095 33.8626 56.541C34.5131 56.2726 35.0695 55.8173 35.4612 55.2327C35.853 54.6481 36.0626 53.9605 36.0636 53.2567C36.0684 52.7883 35.9799 52.3236 35.8032 51.8897C35.6265 51.4559 35.3651 51.0616 35.0343 50.7299C34.7035 50.3982 34.3099 50.1358 33.8765 49.9578C33.4432 49.7799 32.9787 49.6901 32.5103 49.6937ZM32.5103 55.2799C31.9727 55.2799 31.4572 55.0664 31.0771 54.6863C30.697 54.3062 30.4835 53.7906 30.4835 53.2531C30.4835 52.7155 30.697 52.2 31.0771 51.8199C31.4572 51.4398 31.9727 51.2263 32.5103 51.2263C33.046 51.2344 33.5575 51.451 33.9361 51.8301C34.3148 52.2092 34.5308 52.721 34.5383 53.2567C34.5357 53.7925 34.3208 54.3053 33.9406 54.6828C33.5604 55.0602 33.046 55.2715 32.5103 55.2702V55.2799Z" fill="#32383D"/>
<path d="M43.1818 51.9695C43.1818 51.6804 43.1245 51.3941 43.0131 51.1273C42.9017 50.8605 42.7386 50.6185 42.533 50.4152C42.3274 50.2119 42.0836 50.0514 41.8156 49.943C41.5476 49.8345 41.2607 49.7804 40.9716 49.7836H37.8992C37.8139 49.7848 37.7325 49.8193 37.6722 49.8796C37.6119 49.9399 37.5774 50.0213 37.5762 50.1066V56.3631C37.5774 56.4484 37.6119 56.5299 37.6722 56.5902C37.7325 56.6505 37.8139 56.6849 37.8992 56.6862H38.7687C38.854 56.6849 38.9354 56.6505 38.9957 56.5902C39.056 56.5299 39.0905 56.4484 39.0917 56.3631V54.1068H40.1968L41.4865 56.5356C41.512 56.5876 41.5518 56.6313 41.6013 56.6614C41.6508 56.6915 41.7079 56.7069 41.7658 56.7056H42.7616C42.8188 56.7069 42.8753 56.6933 42.9256 56.666C42.9759 56.6388 43.0182 56.5988 43.0482 56.5502C43.0774 56.4982 43.0927 56.4397 43.0927 56.3802C43.0927 56.3206 43.0774 56.2621 43.0482 56.2101L41.8338 53.9489C42.2267 53.7859 42.5636 53.5118 42.803 53.1602C43.0424 52.8086 43.1741 52.3948 43.1818 51.9695ZM41.6638 51.9913C41.6646 52.202 41.584 52.4049 41.4387 52.5574C41.2933 52.71 41.0947 52.8004 40.8842 52.8098H39.1087V51.219H40.8842C41.0887 51.2221 41.2842 51.3042 41.4295 51.4482C41.5748 51.5922 41.6588 51.7868 41.6638 51.9913Z" fill="#32383D"/>
<path d="M47.3681 49.7883H45.1263C45.0421 49.7908 44.9621 49.8259 44.9033 49.8861C44.8444 49.9464 44.8111 50.0271 44.8105 50.1113V56.3679C44.8111 56.4521 44.8444 56.5328 44.9033 56.5931C44.9621 56.6533 45.0421 56.6884 45.1263 56.6909H47.3656C48.2813 56.6909 49.1594 56.3272 49.8069 55.6797C50.4544 55.0322 50.8181 54.1541 50.8181 53.2384C50.8181 52.3227 50.4544 51.4446 49.8069 50.7971C49.1594 50.1496 48.2813 49.7859 47.3656 49.7859L47.3681 49.7883ZM49.2334 53.2372C49.2437 53.5019 49.1998 53.766 49.1043 54.0131C49.0088 54.2602 48.8638 54.4852 48.6782 54.6743C48.4926 54.8633 48.2703 55.0124 48.0249 55.1123C47.7795 55.2123 47.5163 55.261 47.2515 55.2555H46.3212V51.2262H47.249C47.5133 51.2207 47.7759 51.2692 48.0207 51.3687C48.2655 51.4682 48.4875 51.6167 48.673 51.8049C48.8585 51.9931 49.0037 52.2173 49.0996 52.4635C49.1956 52.7098 49.2402 52.9731 49.2309 53.2372H49.2334Z" fill="#32383D"/>
<path d="M55.4951 49.6936C54.7913 49.6922 54.1028 49.8995 53.5168 50.2894C52.9309 50.6793 52.4737 51.2342 52.2031 51.884C51.9325 52.5337 51.8607 53.2491 51.9968 53.9397C52.1329 54.6302 52.4707 55.2649 52.9676 55.7635C53.4644 56.262 54.0979 56.602 54.788 56.7404C55.4781 56.8789 56.1938 56.8095 56.8444 56.5412C57.4951 56.2728 58.0516 55.8175 58.4435 55.2329C58.8354 54.6482 59.0451 53.9605 59.046 53.2566C59.0502 52.7888 58.9613 52.3248 58.7844 51.8917C58.6076 51.4586 58.3463 51.065 58.0158 50.7339C57.6853 50.4027 57.2923 50.1406 56.8595 49.9629C56.4268 49.7851 55.963 49.6952 55.4951 49.6985V49.6936ZM55.4951 55.2798C54.9576 55.2798 54.4421 55.0663 54.062 54.6862C53.6819 54.3061 53.4683 53.7905 53.4683 53.253C53.4683 52.7154 53.6819 52.1999 54.062 51.8198C54.4421 51.4397 54.9576 51.2262 55.4951 51.2262C56.0305 51.235 56.5413 51.4519 56.9194 51.8309C57.2976 52.2099 57.5132 52.7213 57.5207 53.2566C57.5182 53.7919 57.3035 54.3044 56.9239 54.6818C56.5442 55.0592 56.0305 55.2707 55.4951 55.2701V55.2798Z" fill="#32383D"/>
<path d="M65.9581 49.9367C65.9285 49.8898 65.8871 49.8514 65.8381 49.8254C65.7891 49.7994 65.7342 49.7867 65.6787 49.7885H64.7072C64.6446 49.7872 64.5831 49.8048 64.5306 49.839C64.4782 49.8732 64.4373 49.9225 64.4134 49.9804L62.6962 53.8203L60.9961 49.9877C60.9719 49.9294 60.9312 49.8795 60.8789 49.8441C60.8267 49.8087 60.7653 49.7894 60.7022 49.7885H59.7307C59.6752 49.7867 59.6203 49.7994 59.5713 49.8254C59.5223 49.8514 59.481 49.8898 59.4514 49.9367C59.422 49.9823 59.4052 50.0348 59.4027 50.0889C59.4001 50.1431 59.4119 50.1969 59.4368 50.2451L62.3513 56.6109C62.3769 56.667 62.4184 56.7144 62.4706 56.7472C62.5229 56.78 62.5835 56.7968 62.6452 56.7955H62.7424C62.8048 56.7959 62.8659 56.7779 62.9181 56.7438C62.9704 56.7097 63.0115 56.6609 63.0362 56.6037L65.9678 50.2451C65.9898 50.1959 65.9993 50.1419 65.9955 50.0881C65.9917 50.0343 65.9746 49.9823 65.9459 49.9367H65.9581Z" fill="#32383D"/>
<path d="M71.748 56.2515L68.8335 49.8856C68.8081 49.8293 68.7667 49.7818 68.7144 49.7489C68.6621 49.7161 68.6013 49.6994 68.5396 49.701H68.4449C68.3825 49.7007 68.3213 49.7187 68.2691 49.7528C68.2168 49.7869 68.1758 49.8356 68.151 49.8929L65.2122 56.2442C65.1873 56.2923 65.1755 56.3462 65.1781 56.4004C65.1806 56.4545 65.1974 56.507 65.2267 56.5526C65.2575 56.5984 65.2991 56.6359 65.3478 56.6617C65.3966 56.6876 65.4509 56.701 65.5061 56.7008H66.3318C66.4192 56.7026 66.505 56.6775 66.5776 56.6288C66.6502 56.5802 66.706 56.5103 66.7374 56.4288L67.1649 55.4937H69.8026L70.23 56.4288C70.2612 56.5105 70.3169 56.5806 70.3896 56.6293C70.4622 56.678 70.5482 56.703 70.6356 56.7008H71.4541C71.5096 56.7026 71.5645 56.6898 71.6135 56.6639C71.6625 56.6379 71.7038 56.5995 71.7334 56.5526C71.761 56.5077 71.7768 56.4566 71.7793 56.4039C71.7819 56.3513 71.7711 56.2988 71.748 56.2515ZM69.1978 54.1506H67.7527L68.4667 52.5451L69.1954 54.1506H69.1978Z" fill="#32383D"/>
</g>
</g>
<defs>
<clipPath id="clip0_6744_66588">
<rect width="72" height="48" fill="white" transform="translate(12 8.81006)"/>
</clipPath>
<clipPath id="clip1_6744_66588">
<rect width="51.6383" height="48" fill="white" transform="translate(22.1816 8.81006)"/>
</clipPath>
</defs>
</svg>
