<svg width="96" height="65" viewBox="0 0 96 65" fill="none" xmlns="http://www.w3.org/2000/svg">
<rect width="96" height="64" transform="translate(0 0.810059)" fill="white"/>
<g clip-path="url(#clip0_6744_66676)">
<path d="M24.157 27.2859C21.0934 27.2859 18.6133 29.766 18.6133 32.8296C18.6133 35.8932 21.0934 38.3733 24.157 38.3733C27.2206 38.3733 29.7007 35.8932 29.7007 32.8296C29.691 29.766 27.2012 27.2859 24.157 27.2859Z" fill="#3880FF"/>
<path d="M32.1029 27.7818C33.4995 27.7818 34.6316 26.6496 34.6316 25.2531C34.6316 23.8565 33.4995 22.7244 32.1029 22.7244C30.7064 22.7244 29.5742 23.8565 29.5742 25.2531C29.5742 26.6496 30.7064 27.7818 32.1029 27.7818Z" fill="#3880FF"/>
<path d="M35.2057 27.7818L35.1085 27.5581L34.9431 27.7624C34.5346 28.2292 33.9997 28.5891 33.4162 28.803L33.2508 28.8711L33.3189 29.0365C33.8344 30.2522 34.0775 31.536 34.0775 32.8392C34.0775 38.3149 29.6231 42.779 24.1378 42.779C18.6524 42.779 14.2175 38.3149 14.2175 32.8392C14.2175 27.3636 18.6719 22.9092 24.1572 22.9092C25.6453 22.9092 27.0652 23.2496 28.4074 23.8721L28.5533 23.9401L28.6214 23.7748C28.8742 23.201 29.2438 22.6952 29.7496 22.2965L29.9538 22.1312L29.7301 22.0144C27.9892 21.1197 26.1218 20.6528 24.1572 20.6528C17.4562 20.6528 12 26.109 12 32.8101C12 39.5111 17.4562 44.9673 24.1572 44.9673C30.8583 44.9673 36.3145 39.5111 36.3145 32.8101C36.3047 31.0692 35.9352 29.3866 35.2057 27.7818Z" fill="#3880FF"/>
<path d="M45.136 27.5288H42.5684V38.1105H45.136V27.5288Z" fill="#3880FF"/>
<path d="M72.7961 27.5288H70.2285V38.1105H72.7961V27.5288Z" fill="#3880FF"/>
<path d="M64.3063 27.2859C62.507 27.2859 61.1162 28.3752 60.805 28.6767L60.6299 27.5388H58.4902V38.1204H61.0578V31.7208C61.0578 30.4565 62.7599 29.445 64.0242 29.445C65.2497 29.445 66.2125 30.6316 66.2125 32.0613V38.1301H68.7801V32.3141C68.7509 29.5228 67.5547 27.2859 64.3063 27.2859Z" fill="#3880FF"/>
<path d="M79.5063 36.1946C77.5709 36.1946 76.3065 34.6968 76.3065 32.8197C76.3065 30.9427 77.5806 29.4449 79.5063 29.4449C81.1402 29.4449 82.142 31.0302 82.142 31.0302L83.9899 29.795C83.4647 28.9683 82.8423 28.4723 81.9864 27.9568C81.3639 27.5775 80.5081 27.2566 79.5744 27.2566C76.3746 27.2566 73.9237 29.6686 73.8945 32.8003C73.9043 35.9223 76.3552 38.344 79.5744 38.344C80.5178 38.344 81.3639 38.0328 81.9864 37.6437C82.8228 37.1283 83.4647 36.6323 83.9899 35.8056L82.142 34.5704C82.142 34.5996 81.15 36.1946 79.5063 36.1946Z" fill="#3880FF"/>
<path d="M51.8074 27.2859C48.5784 27.2859 46.2637 29.8146 46.2637 32.7712C46.2637 35.7862 48.5103 38.3636 51.856 38.3636C54.8807 38.3636 57.3413 36.0488 57.3413 32.8393C57.3413 29.1727 54.4722 27.2859 51.8074 27.2859ZM51.8463 29.4742C53.4316 29.4742 54.9391 30.758 54.9391 32.849C54.9391 34.8817 53.4413 36.2142 51.8268 36.2142C50.0762 36.2142 48.6854 34.7942 48.6854 32.8393C48.6854 30.8942 50.0567 29.4742 51.8463 29.4742Z" fill="#3880FF"/>
</g>
<defs>
<clipPath id="clip0_6744_66676">
<rect width="72" height="24.3145" fill="white" transform="translate(12 20.6528)"/>
</clipPath>
</defs>
</svg>
