<svg width="96" height="65" viewBox="0 0 96 65" fill="none" xmlns="http://www.w3.org/2000/svg">
<rect width="96" height="64" transform="translate(0 0.810059)" fill="white"/>
<g clip-path="url(#clip0_6744_66579)">
<g clip-path="url(#clip1_6744_66579)">
<path d="M28.5456 56.6251L26.605 52.8999L24.6209 56.6251H22.4844L25.5095 51.8189L22.7854 47.0418H24.9618L26.7283 50.6691L28.6435 47.0418H30.624L27.8165 51.7899L30.6603 56.6251H28.5456ZM35.4665 56.6251V55.5804H35.4374C35.2083 55.9666 34.8798 56.2844 34.4862 56.5006C34.0926 56.7169 33.6483 56.8237 33.1994 56.8101C32.5563 56.8463 31.9246 56.6288 31.4402 56.2043C31.2244 55.9904 31.0558 55.7337 30.9452 55.4507C30.8346 55.1677 30.7845 54.8647 30.7981 54.5612C30.7981 53.0909 31.6227 52.2554 33.272 52.0547L35.481 51.75C35.481 50.7199 34.9973 50.2048 34.0301 50.2048C33.135 50.2103 32.2658 50.5055 31.5526 51.0463V49.5374C31.9333 49.3278 32.3409 49.1716 32.7641 49.0731C33.2373 48.9443 33.7247 48.8749 34.215 48.8663C36.1641 48.8663 37.1386 49.8529 37.1386 51.8262V56.6287H35.4665V56.6251ZM33.8487 53.1574C33.4581 53.1683 33.0795 53.2945 32.7605 53.5201C32.6522 53.6323 32.5692 53.7665 32.5173 53.9136C32.4653 54.0607 32.4456 54.2172 32.4594 54.3725C32.4577 54.5209 32.4893 54.6677 32.5521 54.8021C32.6149 54.9365 32.7072 55.055 32.8222 55.1488C33.0783 55.3548 33.4006 55.4605 33.729 55.4462C33.9636 55.4528 34.1968 55.4093 34.4132 55.3186C34.6297 55.2279 34.8243 55.0921 34.984 54.9203C35.3149 54.5661 35.4923 54.0953 35.4773 53.6108V52.9289L33.8451 53.1429L33.8487 53.1574ZM48.0423 56.6251V52.3376C48.0791 51.7944 47.9636 51.2517 47.7086 50.7706C47.5772 50.5886 47.3998 50.4447 47.1946 50.3536C46.9894 50.2625 46.7638 50.2274 46.5406 50.2519C46.3147 50.256 46.0934 50.3162 45.8965 50.427C45.6995 50.5378 45.5333 50.6957 45.4125 50.8867C45.1003 51.3185 44.9396 51.8413 44.9555 52.3739V56.6287H43.2506V52.2034C43.2506 50.9121 42.7561 50.2664 41.7671 50.2664C41.5434 50.2635 41.3222 50.3147 41.1226 50.4158C40.923 50.5168 40.7509 50.6647 40.6209 50.8468C40.3089 51.2917 40.1532 51.8275 40.1783 52.3703V56.6251H38.4735V49.0513H40.1783V50.2193H40.2073C40.443 49.7951 40.7913 49.4443 41.2137 49.2055C41.6362 48.9667 42.1164 48.8494 42.6014 48.8663C43.0758 48.8574 43.5412 48.9969 43.9326 49.2653C44.3205 49.5254 44.6094 49.9088 44.7523 50.3535C44.9932 49.8922 45.3592 49.5081 45.8082 49.2451C46.2572 48.9821 46.7713 48.8508 47.2914 48.8663C48.9358 48.8663 49.758 49.8916 49.758 51.9423V56.6251H48.0423ZM55.4275 56.6251V55.5804H55.3985C55.1693 55.9666 54.8408 56.2844 54.4472 56.5006C54.0536 56.7169 53.6093 56.8237 53.1604 56.8101C52.5173 56.8463 51.8856 56.6288 51.4012 56.2043C51.1887 55.9889 51.0234 55.7315 50.916 55.4485C50.8086 55.1656 50.7613 54.8634 50.7773 54.5612C50.7773 53.0909 51.6019 52.2554 53.2511 52.0547L55.4601 51.75C55.4601 50.7199 54.9765 50.2048 54.0092 50.2048C53.1042 50.204 52.2239 50.4995 51.5027 51.0463V49.5374C51.8868 49.3269 52.2982 49.1706 52.7251 49.0731C53.1983 48.9443 53.6857 48.8749 54.1761 48.8663C56.1251 48.8663 57.0997 49.8529 57.0997 51.8262V56.6287H55.4275V56.6251ZM53.8097 53.1574C53.4191 53.1683 53.0405 53.2945 52.7215 53.5201C52.6132 53.6323 52.5302 53.7665 52.4783 53.9136C52.4263 54.0607 52.4066 54.2172 52.4204 54.3725C52.4187 54.5209 52.4503 54.6677 52.5131 54.8021C52.576 54.9365 52.6682 55.055 52.7832 55.1488C53.0393 55.3548 53.3616 55.4605 53.69 55.4462C53.9246 55.4528 54.1578 55.4093 54.3743 55.3186C54.5907 55.2279 54.7853 55.0921 54.945 54.9203C55.2759 54.5661 55.4533 54.0953 55.4384 53.6108V52.9289L53.8061 53.1429L53.8097 53.1574ZM62.8272 50.7162C62.5278 50.539 62.1846 50.4497 61.8369 50.4587C61.5992 50.456 61.3646 50.5126 61.1543 50.6235C60.9441 50.7343 60.7647 50.8959 60.6326 51.0935C60.3084 51.5836 60.1483 52.1641 60.1756 52.7511V56.6287H58.4708V49.0513H60.1756V50.524H60.2082C60.5734 49.4527 61.2191 48.9171 62.1452 48.9171C62.3784 48.9068 62.6114 48.9425 62.8308 49.0223V50.7162H62.8272ZM64.5247 47.3574C64.2555 47.3601 63.9956 47.2587 63.7993 47.0744C63.7021 46.9851 63.6251 46.8762 63.5732 46.7549C63.5213 46.6336 63.4957 46.5027 63.4982 46.3707C63.4938 46.2353 63.5184 46.1006 63.5703 45.9754C63.6222 45.8503 63.7003 45.7378 63.7993 45.6453C64.0007 45.4576 64.2658 45.3533 64.5411 45.3533C64.8163 45.3533 65.0814 45.4576 65.2828 45.6453C65.3788 45.7364 65.4551 45.8461 65.5073 45.9677C65.5595 46.0893 65.5864 46.2203 65.5864 46.3526C65.5864 46.4849 65.5595 46.6159 65.5073 46.7375C65.4551 46.8591 65.3788 46.9688 65.2828 47.0599C65.1829 47.1568 65.0648 47.2329 64.9353 47.284C64.8058 47.335 64.6675 47.36 64.5284 47.3574H64.5247ZM63.6542 56.6251V49.0513H65.359V56.6251H63.6542ZM71.8083 56.6251V52.3703C71.8083 50.9653 71.3041 50.2628 70.2958 50.2628C70.053 50.2595 69.8125 50.3102 69.5917 50.4112C69.3709 50.5122 69.1752 50.661 69.0189 50.8468C68.6694 51.2559 68.4868 51.7818 68.5075 52.3195V56.6251H66.8027V49.0513H68.5075V50.2628H68.551C68.7892 49.8248 69.1449 49.462 69.5781 49.2152C70.0113 48.9685 70.5049 48.8477 71.0031 48.8663C72.6958 48.8663 73.5422 49.9025 73.5422 51.9749V56.6287H71.8156L71.8083 56.6251Z" fill="#3498DB"/>
<path d="M66.1281 23.8742L58.304 10.261C58.0496 9.82665 57.6878 9.46506 57.2533 9.21097C56.8188 8.95687 56.3262 8.81881 55.823 8.81006H40.1784C39.6752 8.81881 39.1826 8.95687 38.7481 9.21097C38.3136 9.46506 37.9518 9.82665 37.6974 10.261L29.8733 23.8742C29.6297 24.3144 29.502 24.8093 29.502 25.3124C29.502 25.8156 29.6297 26.3104 29.8733 26.7507L37.6974 40.3675C37.9518 40.8019 38.3136 41.1634 38.7481 41.4175C39.1826 41.6716 39.6752 41.8097 40.1784 41.8184H55.8266C56.3299 41.8097 56.8224 41.6716 57.2569 41.4175C57.6914 41.1634 58.0533 40.8019 58.3077 40.3675L66.1317 26.7398C66.3728 26.3006 66.4989 25.8075 66.4983 25.3065C66.4976 24.8055 66.3703 24.3128 66.1281 23.8742ZM55.6162 33.8384H52.9175C52.8551 33.8364 52.7943 33.8183 52.7409 33.7859C52.6875 33.7535 52.6434 33.7079 52.6128 33.6534L48.0461 25.4956C48.0233 25.4553 48.0086 25.4109 48.0025 25.365C47.9965 25.4109 47.9817 25.4553 47.959 25.4956L43.3777 33.6607C43.3481 33.7136 43.3057 33.7583 43.2544 33.7906C43.2031 33.8229 43.1444 33.8418 43.0839 33.8457H40.3852C40.3249 33.8425 40.2664 33.8243 40.2149 33.7928C40.1634 33.7613 40.1206 33.7175 40.0903 33.6652C40.0601 33.613 40.0433 33.5541 40.0416 33.4937C40.0399 33.4334 40.0533 33.3736 40.0805 33.3197L44.5493 25.3143L40.0805 17.2979C40.0574 17.2494 40.0454 17.1964 40.0453 17.1427C40.0452 17.089 40.057 17.0359 40.0799 16.9873C40.1028 16.9387 40.1362 16.8958 40.1777 16.8617C40.2192 16.8276 40.2678 16.8032 40.3199 16.7901H43.0839C43.1434 16.7928 43.2014 16.8101 43.2526 16.8404C43.3038 16.8708 43.3468 16.9133 43.3777 16.9642L47.959 25.1329C47.9817 25.1732 47.9965 25.2176 48.0025 25.2635C48.0086 25.2176 48.0233 25.1732 48.0461 25.1329L52.6128 16.957C52.6456 16.9059 52.6907 16.8638 52.7439 16.8347C52.7971 16.8055 52.8568 16.7902 52.9175 16.7901H55.6162C55.675 16.794 55.732 16.8122 55.7822 16.8431C55.8324 16.874 55.8743 16.9166 55.9043 16.9674C55.9343 17.0181 55.9515 17.0754 55.9544 17.1342C55.9573 17.1931 55.9458 17.2518 55.9209 17.3052L51.4557 25.3143L55.9245 33.3197C55.9503 33.3735 55.9623 33.4329 55.9597 33.4925C55.957 33.5522 55.9396 33.6102 55.9091 33.6615C55.8786 33.7128 55.8359 33.7558 55.7848 33.7867C55.7337 33.8175 55.6758 33.8353 55.6162 33.8384Z" fill="#3498DB"/>
</g>
</g>
<defs>
<clipPath id="clip0_6744_66579">
<rect width="72" height="48" fill="white" transform="translate(12 8.81006)"/>
</clipPath>
<clipPath id="clip1_6744_66579">
<rect width="51.0324" height="48" fill="white" transform="translate(22.4844 8.81006)"/>
</clipPath>
</defs>
</svg>
