<svg width="96" height="65" viewBox="0 0 96 65" fill="none" xmlns="http://www.w3.org/2000/svg">
<rect width="96" height="64" transform="translate(0 0.810059)" fill="white"/>
<g clip-path="url(#clip0_6744_66612)">
<path d="M64.9902 41.5091L67.0702 36.2493H73.0758L70.2257 28.2705L73.7903 19.2561L84.0002 46.3643H76.4708L74.7261 41.5091H64.9902Z" fill="#3D3D3D"/>
<path d="M58.5668 46.3643L69.4967 19.2561L62.2505 19.2561L54.7739 36.7741L49.4573 19.2562H43.8876L38.1789 36.7741L34.153 28.7915L30.5098 40.0158L34.2088 46.3643H41.3398L46.4985 30.6545L51.417 46.3643H58.5668Z" fill="#706CF5"/>
<path d="M18.8782 37.0585H23.3414C24.6934 37.0585 25.8973 36.9076 26.9531 36.6058L28.1074 33.0498L31.3333 23.1112C31.0875 22.7216 30.8069 22.3532 30.4915 22.0061C28.8351 20.1728 26.4118 19.2561 23.2213 19.2561H12V46.3643H18.8782V37.0585ZM24.786 25.4926C25.4329 26.1437 25.7564 27.0151 25.7564 28.1067C25.7564 29.2067 25.4719 30.0791 24.9029 30.7239C24.2792 31.4404 23.1307 31.7987 21.4575 31.7987H18.8782V24.5159H21.4765C23.0359 24.5159 24.139 24.8414 24.786 25.4926Z" fill="#3D3D3D"/>
</g>
<defs>
<clipPath id="clip0_6744_66612">
<rect width="72" height="27.1081" fill="white" transform="translate(12 19.2561)"/>
</clipPath>
</defs>
</svg>
