<svg width="96" height="65" viewBox="0 0 96 65" fill="none" xmlns="http://www.w3.org/2000/svg">
<rect width="96" height="64" transform="translate(0 0.810059)" fill="white"/>
<g clip-path="url(#clip0_6744_66559)">
<path d="M12.7371 50.0539H18.6221V25.0016H12.7371V50.0539ZM15.6678 21.7162C17.5113 21.7162 18.953 20.2981 18.953 18.5256C18.953 16.7293 17.5113 15.3113 15.6678 15.3113C13.8479 15.3113 12.4062 16.7294 12.4062 18.5256C12.4062 20.2982 13.8479 21.7162 15.6678 21.7162ZM38.2159 15.382C28.266 15.382 22.0262 22.1651 22.0262 33.0135C22.0262 43.8619 28.2654 50.6215 38.2159 50.6215C48.1422 50.6215 54.382 43.8619 54.382 33.0135C54.382 22.1651 48.1428 15.382 38.2159 15.382ZM38.2159 20.5816C44.2899 20.5816 48.1658 25.4031 48.1658 33.0134C48.1658 40.6 44.2898 45.4216 38.2159 45.4216C32.1183 45.4216 28.266 40.6002 28.266 33.0134C28.266 25.4032 32.1184 20.5816 38.2159 20.5816ZM56.8645 40.4585C57.1245 46.7455 62.2768 50.6214 70.1234 50.6214C78.3719 50.6214 83.5717 46.5562 83.5717 40.0803C83.5717 34.9989 80.641 32.1391 73.7161 30.5557L69.7928 29.6576C65.6095 28.665 63.8842 27.3415 63.8842 25.0725C63.8842 22.2364 66.484 20.3457 70.3364 20.3457C74.236 20.3457 76.9065 22.2601 77.1903 25.4507H83.0044C82.8626 19.4475 77.8993 15.3822 70.3838 15.3822C62.9624 15.3822 57.6918 19.4709 57.6918 25.5215C57.6918 30.3902 60.6698 33.4155 66.9562 34.8573L71.3759 35.8972C75.6774 36.9135 77.4263 38.3316 77.4263 40.7895C77.4263 43.6257 74.5665 45.6583 70.4544 45.6583C66.2947 45.6583 63.1515 43.6021 62.7734 40.4586L56.8645 40.4585Z" fill="black"/>
</g>
<defs>
<clipPath id="clip0_6744_66559">
<rect width="72" height="35.6975" fill="white" transform="translate(12 14.9614)"/>
</clipPath>
</defs>
</svg>
