<svg width="96" height="65" viewBox="0 0 96 65" fill="none" xmlns="http://www.w3.org/2000/svg">
<rect width="96" height="64" transform="translate(0 0.810059)" fill="white"/>
<g clip-path="url(#clip0_6744_66563)">
<g clip-path="url(#clip1_6744_66563)">
<path d="M24.339 48.5054C22.4484 48.5054 20.5039 50.021 20.5039 52.6732C20.5039 55.0978 22.2136 56.8102 24.339 56.8102C26.0937 56.8102 26.8757 55.6323 26.8757 55.6323V56.1459C26.8757 56.3884 27.105 56.6595 27.3893 56.6595H28.6574V48.6858H26.8757V49.6976C26.8757 49.6976 26.0871 48.5049 24.339 48.5049V48.5054ZM24.6563 50.1354C26.2131 50.1354 27.0291 51.5041 27.0291 52.6721C27.0291 53.9726 26.0596 55.2077 24.6596 55.2077C23.4894 55.2083 22.3186 54.2602 22.3186 52.6551C22.3186 51.2082 23.3255 50.1359 24.6563 50.1359V50.1354Z" fill="black"/>
<path d="M31.133 56.6589C31.065 56.6609 30.9973 56.6491 30.934 56.624C30.8708 56.5989 30.8133 56.5611 30.7652 56.513C30.7171 56.4649 30.6794 56.4075 30.6543 56.3442C30.6292 56.281 30.6173 56.2133 30.6194 56.1453V48.6868H32.4011V49.6734C32.8047 49.0685 33.5938 48.5032 34.8042 48.5032C36.7839 48.5032 37.8369 50.0809 37.8369 51.5557V56.6594H36.5991C36.4552 56.6589 36.3173 56.6014 36.2156 56.4997C36.1138 56.3979 36.0564 56.26 36.0558 56.1161V51.9484C36.0558 51.1306 35.5548 50.1375 34.3962 50.1375C33.1462 50.1375 32.4016 51.3187 32.4016 52.4312V56.6589H31.133Z" fill="black"/>
<path d="M43.0323 48.5053C41.1417 48.5053 39.1973 50.0203 39.1973 52.6725C39.1973 55.097 40.9069 56.8095 43.0323 56.8095C44.7871 56.8095 45.5691 55.6316 45.5691 55.6316V56.1452C45.5691 56.3877 45.7984 56.6588 46.0827 56.6588H47.3508V44.7004H45.5691V49.698C45.5691 49.698 44.7805 48.5053 43.0323 48.5053ZM43.3496 50.1352C44.9064 50.1352 45.7225 51.5039 45.7225 52.6719C45.7225 53.9725 44.753 55.2076 43.3529 55.2076C42.1822 55.2076 41.0098 54.2595 41.0098 52.6549C41.0098 51.2081 42.0189 50.1358 43.3496 50.1358V50.1352Z" fill="black"/>
<path d="M49.8263 56.659C49.7583 56.661 49.6906 56.6491 49.6274 56.6241C49.5641 56.599 49.5067 56.5612 49.4586 56.5131C49.4105 56.465 49.3727 56.4076 49.3476 56.3443C49.3226 56.2811 49.3107 56.2134 49.3127 56.1454V48.6869H51.0944V50.0155C51.4013 49.2709 52.0628 48.5962 53.2391 48.5962C53.4518 48.5982 53.6639 48.6184 53.8731 48.6567V50.4989C53.6017 50.4013 53.3158 50.3501 53.0274 50.3477C51.7774 50.3477 51.0944 51.5289 51.0944 52.6413V56.659H49.8263Z" fill="black"/>
<path d="M64.6838 56.6588C64.6158 56.6609 64.5481 56.649 64.4848 56.6239C64.4216 56.5988 64.3641 56.5611 64.316 56.513C64.2679 56.4648 64.2301 56.4074 64.2051 56.3442C64.18 56.2809 64.1681 56.2132 64.1701 56.1452V48.6868H65.9519V56.6605L64.6838 56.6588Z" fill="black"/>
<path d="M71.1769 48.5053C69.2857 48.5053 67.3418 50.0203 67.3418 52.6725C67.3418 55.097 69.0515 56.8095 71.1769 56.8095C72.9316 56.8095 73.7136 55.6316 73.7136 55.6316V56.1452C73.7136 56.3877 73.9429 56.6588 74.2272 56.6588H75.4953V44.7004H73.7136V49.698C73.7136 49.698 72.925 48.5053 71.1769 48.5053ZM71.4942 50.1352C73.051 50.1352 73.867 51.5039 73.867 52.6719C73.867 53.9725 72.8975 55.2076 71.4975 55.2076C70.3267 55.2076 69.1543 54.2595 69.1543 52.6549C69.1543 51.2081 70.1612 50.1358 71.4942 50.1358V50.1352Z" fill="black"/>
<path d="M65.0476 46.9673C65.6984 46.9673 66.2261 46.4397 66.2261 45.7888C66.2261 45.138 65.6984 44.6104 65.0476 44.6104C64.3968 44.6104 63.8691 45.138 63.8691 45.7888C63.8691 46.4397 64.3968 46.9673 65.0476 46.9673Z" fill="black"/>
<path d="M58.5717 48.5032C56.592 48.5032 54.416 49.9813 54.416 52.6588C54.416 55.0988 56.2692 56.8107 58.5678 56.8107C61.4004 56.8107 62.7834 54.5335 62.7834 52.6742C62.7834 50.3932 61.0023 48.5032 58.5722 48.5032H58.5717ZM58.5783 50.1672C59.9476 50.1672 60.9693 51.2709 60.9693 52.6643C60.9693 54.082 59.8849 55.1758 58.5827 55.1758C57.3729 55.1758 56.1983 54.192 56.1983 52.6885C56.1983 51.1598 57.3162 50.1678 58.5788 50.1678L58.5783 50.1672Z" fill="black"/>
<path d="M61.4207 18.0948L65.9817 10.1981C66.1048 9.98589 66.1386 9.73354 66.0758 9.49641C66.013 9.25929 65.8587 9.05676 65.6468 8.93328C65.5422 8.87161 65.4263 8.8314 65.306 8.81501C65.1857 8.79861 65.0633 8.80636 64.946 8.8378C64.8287 8.86923 64.7189 8.92372 64.6229 8.99809C64.5269 9.07246 64.4467 9.16521 64.3869 9.27093L59.7677 17.2694C56.2439 15.6603 52.2779 14.7629 48.0123 14.7629C43.7466 14.7629 39.7823 15.6603 36.259 17.2694L31.6398 9.27093C31.5111 9.07122 31.3104 8.92879 31.0794 8.87327C30.8485 8.81774 30.605 8.85338 30.3996 8.97279C30.1942 9.09219 30.0427 9.28616 29.9767 9.51437C29.9107 9.74258 29.9352 9.98745 30.0451 10.1981L34.6038 18.0948C26.7406 22.3544 21.4164 30.3116 20.5371 39.6254H75.4913C74.612 30.3116 69.2877 22.3544 61.4207 18.0948ZM35.3973 31.9063C34.9418 31.9063 34.4966 31.7713 34.1178 31.5182C33.7391 31.2651 33.4439 30.9055 33.2696 30.4846C33.0953 30.0638 33.0497 29.6007 33.1386 29.154C33.2274 28.7073 33.4468 28.2969 33.7688 27.9748C34.0909 27.6527 34.5013 27.4334 34.948 27.3445C35.3948 27.2557 35.8578 27.3013 36.2787 27.4756C36.6995 27.6499 37.0592 27.9451 37.3122 28.3238C37.5653 28.7025 37.7004 29.1478 37.7004 29.6033C37.7001 30.214 37.4573 30.7996 37.0255 31.2315C36.5937 31.6633 36.008 31.906 35.3973 31.9063ZM60.625 31.9063C60.1695 31.9063 59.7242 31.7713 59.3455 31.5182C58.9668 31.2651 58.6716 30.9055 58.4973 30.4846C58.323 30.0638 58.2774 29.6007 58.3662 29.154C58.4551 28.7073 58.6744 28.2969 58.9965 27.9748C59.3186 27.6527 59.729 27.4334 60.1757 27.3445C60.6224 27.2557 61.0855 27.3013 61.5063 27.4756C61.9272 27.6499 62.2868 27.9451 62.5399 28.3238C62.793 28.7025 62.928 29.1478 62.928 29.6033C62.9277 30.214 62.685 30.7996 62.2532 31.2315C61.8213 31.6633 61.2357 31.906 60.625 31.9063Z" fill="#32DE84"/>
</g>
</g>
<defs>
<clipPath id="clip0_6744_66563">
<rect width="72" height="48" fill="white" transform="translate(12 8.81006)"/>
</clipPath>
<clipPath id="clip1_6744_66563">
<rect width="54.991" height="48" fill="white" transform="translate(20.5039 8.81006)"/>
</clipPath>
</defs>
</svg>
