<svg width="96" height="65" viewBox="0 0 96 65" fill="none" xmlns="http://www.w3.org/2000/svg">
<rect width="96" height="64" transform="translate(0 0.810059)" fill="white"/>
<g clip-path="url(#clip0_6744_66619)">
<g clip-path="url(#clip1_6744_66619)">
<path d="M48.3925 52.8383C48.3925 53.3583 48.3925 53.879 48.3925 54.4005C48.3925 55.0993 48.3925 55.7981 48.3925 56.4947C48.3925 56.6683 48.3429 56.7201 48.167 56.7201C47.7793 56.7201 47.7793 56.7201 47.7793 56.3369C47.7793 54.9618 47.7793 53.5889 47.7793 52.2138C47.7793 52.038 47.8221 51.9884 48.0047 51.9884C48.6269 51.9884 48.6269 51.9884 48.9357 52.5655L50.6129 55.6989C50.64 55.7485 50.649 55.8162 50.7437 55.85V55.6245C50.7437 54.4974 50.7437 53.3703 50.7437 52.2319C50.7437 52.0267 50.7932 51.9321 51.0074 51.9681C51.0298 51.9718 51.0526 51.9718 51.075 51.9681C51.2869 51.9321 51.3591 52.0065 51.3568 52.2341C51.3455 53.4266 51.3568 54.6169 51.3568 55.8094C51.3568 56.0529 51.3568 56.2963 51.3568 56.5375C51.3568 56.6525 51.323 56.6931 51.2035 56.6998C50.5272 56.7359 50.5272 56.7381 50.2071 56.1363C49.6406 55.0632 49.0725 53.991 48.5029 52.9194C48.4849 52.8856 48.4646 52.8563 48.4466 52.8225L48.3925 52.8383Z" fill="#4DC8ED"/>
<path d="M62.2118 56.1182C62.5612 55.1804 62.888 54.281 63.2329 53.3815C63.2645 53.3004 63.2645 53.1786 63.375 53.1696C63.5395 53.1472 63.7064 53.1472 63.8709 53.1696C63.9453 53.1832 63.8709 53.2891 63.8551 53.3455C63.6297 53.9564 63.4043 54.565 63.1788 55.1737C63.0075 55.6245 62.8317 56.0754 62.6694 56.5262C62.659 56.577 62.6303 56.6221 62.5887 56.6529C62.547 56.6837 62.4955 56.698 62.444 56.693C61.8195 56.7066 61.8218 56.7088 61.6009 56.1137C61.2627 55.212 60.9216 54.305 60.5774 53.3928C60.4827 53.1426 60.4827 53.1426 60.742 53.1426C61.1072 53.1426 61.1049 53.1426 61.2312 53.4875C61.5317 54.29 61.8323 55.0918 62.1329 55.8928C62.1374 55.9672 62.1667 56.019 62.2118 56.1182Z" fill="#4DC8ED"/>
<path d="M43.7406 54.7724C43.7406 55.0902 43.7406 55.4103 43.7406 55.7282C43.7406 56.0821 43.8781 56.1993 44.2321 56.2083C44.3606 56.2083 44.489 56.2083 44.6198 56.2083C44.9106 56.2083 45.0098 56.3503 44.9241 56.6276C44.9038 56.6952 44.8587 56.7043 44.8046 56.702C44.5393 56.7132 44.2736 56.7079 44.0089 56.6862C43.3867 56.6006 43.159 56.3165 43.15 55.6448C43.1425 55.0436 43.1425 54.4372 43.15 53.8256C43.15 53.6565 43.1049 53.5821 42.9246 53.6114C42.7442 53.6407 42.7127 53.5438 42.7172 53.386C42.7217 53.2282 42.7172 53.1222 42.9178 53.1606C43.1185 53.1989 43.1433 53.102 43.1433 52.9351C43.1433 52.7683 43.1433 52.5406 43.1433 52.3445C43.1433 52.2115 43.1748 52.1552 43.3213 52.1597C43.8353 52.1732 43.7226 52.1056 43.7361 52.5609C43.7453 52.6893 43.7453 52.8181 43.7361 52.9464C43.7136 53.1358 43.797 53.1718 43.9615 53.1718C44.2253 53.1606 44.4936 53.1718 44.7573 53.1718C44.9647 53.1718 44.9128 53.3048 44.9196 53.4153C44.9264 53.5258 44.9196 53.6407 44.7505 53.6407C44.471 53.6295 44.1892 53.6407 43.9097 53.6407C43.7699 53.6407 43.7249 53.6858 43.7294 53.8233C43.7294 54.1502 43.7294 54.4748 43.7294 54.8017L43.7406 54.7724Z" fill="#4DC8ED"/>
<path d="M57.1345 54.7971C57.1203 55.1529 57.1316 55.5092 57.1684 55.8634C57.2225 56.1294 57.3149 56.206 57.5854 56.2173C57.7815 56.2173 57.9799 56.2173 58.1783 56.2173C58.3766 56.2173 58.3361 56.3345 58.3203 56.4427C58.3045 56.5509 58.4082 56.7155 58.1985 56.72C57.8732 56.7434 57.5462 56.7275 57.2247 56.6727C57.047 56.6427 56.8855 56.5514 56.7681 56.4146C56.6508 56.2779 56.585 56.1044 56.5822 55.9243C56.5169 55.3269 56.5597 54.7272 56.5462 54.1208C56.5398 54.0225 56.5398 53.9239 56.5462 53.8255C56.5642 53.6632 56.4943 53.6001 56.3388 53.6249C56.1359 53.661 56.1269 53.5438 56.1134 53.386C56.0998 53.2282 56.1517 53.1402 56.3388 53.1605C56.5259 53.1808 56.5642 53.0997 56.5484 52.9351C56.5326 52.7705 56.5484 52.5564 56.5484 52.367C56.5484 52.216 56.5845 52.1416 56.7513 52.1416C57.2247 52.1551 57.1255 52.0965 57.1413 52.5248C57.1413 52.7209 57.0601 52.9757 57.1774 53.0974C57.2946 53.2191 57.5651 53.1312 57.7657 53.1447C57.8714 53.1558 57.9779 53.1558 58.0836 53.1447C58.291 53.1177 58.3428 53.2034 58.3361 53.3995C58.3361 53.5595 58.2842 53.6114 58.1242 53.6046C57.8514 53.6046 57.5786 53.6046 57.3036 53.6046C57.1729 53.6046 57.1323 53.6497 57.1368 53.7759C57.1503 54.096 57.1345 54.4071 57.1345 54.7971Z" fill="#4DC8ED"/>
<path d="M42.1443 53.8188C41.8991 53.7236 41.6465 53.6482 41.3892 53.5934C40.5889 53.4852 40.0366 53.9248 39.9645 54.7318C39.942 54.9737 39.961 55.2177 40.0208 55.4532C40.1922 56.0956 40.7692 56.418 41.4793 56.276C41.6648 56.2363 41.8455 56.1766 42.0181 56.0979C42.0993 56.0618 42.1353 56.0641 42.1489 56.17C42.1917 56.5149 42.1489 56.6209 41.7994 56.6975C41.1232 56.8621 40.4762 56.8688 39.9149 56.3752C39.6908 56.1797 39.5292 55.9225 39.4505 55.6358C39.3207 55.1949 39.3161 54.7266 39.437 54.2832C39.6624 53.4875 40.3049 53.0434 41.1683 53.0794C41.4176 53.0888 41.665 53.1274 41.9054 53.1944C42.0993 53.2485 42.1849 53.3454 42.1511 53.5483C42.1417 53.6382 42.1394 53.7286 42.1443 53.8188Z" fill="#4DC8ED"/>
<path d="M59.6837 54.9526C59.6837 55.4689 59.6837 55.9851 59.6837 56.5013C59.6837 56.6546 59.6499 56.7267 59.4853 56.711C59.021 56.6952 59.0976 56.7628 59.0953 56.33C59.0953 55.3592 59.0953 54.3883 59.0953 53.4175C59.0953 53.3296 59.0435 53.1921 59.1833 53.1718C59.3384 53.1345 59.5008 53.1415 59.6521 53.1921C59.7085 53.2169 59.6814 53.3025 59.6814 53.3611C59.6837 53.8954 59.6837 54.4229 59.6837 54.9526Z" fill="#4EC8EE"/>
<path d="M59.0953 52.1438C59.0986 52.0905 59.0986 52.0371 59.0953 51.9838C59.0773 51.8395 59.1269 51.7809 59.2824 51.7854C59.7739 51.8012 59.6724 51.7313 59.6837 52.1776C59.6837 52.2317 59.6837 52.2836 59.6837 52.3377C59.6972 52.4707 59.6544 52.5428 59.5101 52.5225H59.4876C59.0209 52.5135 59.1066 52.5744 59.0953 52.1438Z" fill="#50C8EE"/>
<path d="M70.3562 28.1066C70.1601 27.0021 69.5221 26.1477 68.7399 25.4015C67.4234 24.1391 65.8454 23.287 64.1818 22.5769C63.1197 22.13 62.0292 21.7534 60.9176 21.4498C60.7688 21.4092 60.726 21.3506 60.7733 21.2041C60.8207 21.0576 60.8545 20.8817 60.8928 20.7194C61.3025 19.0253 61.5233 17.2909 61.5511 15.5481C61.5553 14.8694 61.5093 14.1913 61.4135 13.5193C61.3045 12.5326 61.0051 11.5765 60.5321 10.7037C60.3129 10.2763 60.007 9.89928 59.634 9.59655C59.2611 9.29383 58.8291 9.07208 58.3658 8.94542C57.6108 8.76429 56.8237 8.76429 56.0687 8.94542C54.6237 9.26101 53.3185 9.91024 52.0967 10.6992C50.682 11.6154 49.37 12.681 48.1833 13.8777C48.0593 14.0017 47.9872 14.013 47.8609 13.8777C47.489 13.4878 47.0832 13.1316 46.6752 12.7799C45.2323 11.4892 43.6039 10.4223 41.8443 9.61493C40.7081 9.11674 39.5314 8.78311 38.2735 8.87102C37.4063 8.90913 36.5881 9.28349 35.9922 9.91475C35.4568 10.5169 35.0707 11.2366 34.8651 12.0157C34.3692 13.6658 34.3782 15.352 34.5157 17.0427C34.6413 18.4386 34.8903 19.8206 35.2596 21.1725C35.3069 21.3529 35.2303 21.398 35.086 21.4295C33.1415 21.9339 31.2722 22.6934 29.527 23.6883C28.3576 24.331 27.3265 25.1982 26.4928 26.2401C25.3408 27.746 25.2935 29.3555 26.3508 30.9222C27.0187 31.8672 27.8602 32.6766 28.8304 33.3072C30.7127 34.6012 32.8047 35.4398 34.9868 36.0664C35.2731 36.1499 35.2754 36.1431 35.2123 36.4226C34.759 38.1288 34.4944 39.8796 34.4233 41.6435C34.3989 42.4016 34.4404 43.1604 34.5472 43.9113C34.6539 44.8623 34.9392 45.7847 35.3881 46.6299C35.8094 47.4575 36.5375 48.0877 37.4169 48.386C38.1972 48.6188 39.0235 48.6521 39.82 48.4829C41.2054 48.1973 42.5275 47.6626 43.7221 46.9049C45.2604 45.9706 46.681 44.8551 47.9533 43.5821C48.0593 43.4785 48.1179 43.4514 48.2351 43.5821C48.722 44.0826 49.245 44.5447 49.777 44.9956C50.9505 46.0185 52.246 46.8923 53.6341 47.597C54.8559 48.1989 56.1138 48.6452 57.5114 48.5956C57.9642 48.5924 58.4117 48.4988 58.8279 48.3204C59.244 48.1419 59.6203 47.8822 59.9347 47.5564C60.5711 46.8578 61.0201 46.0093 61.24 45.0903C61.6638 43.5506 61.7066 41.9794 61.5961 40.3991C61.5646 39.9483 61.5037 39.511 61.4451 39.0691C61.3149 38.1015 61.1236 37.143 60.8725 36.1994C60.8387 36.071 60.8725 36.0281 60.992 35.9966C61.27 35.9199 61.5458 35.838 61.8193 35.7508C63.8279 35.1039 65.7507 34.2743 67.4798 33.0457C68.4047 32.4211 69.1931 31.6151 69.7971 30.6765C70.302 29.9215 70.5017 29.0031 70.3562 28.1066ZM48.9069 14.6893C50.5908 13.0414 52.4168 11.5739 54.5719 10.591C55.4509 10.1571 56.4162 9.92599 57.3964 9.91475C57.8273 9.90809 58.2519 10.0184 58.6251 10.234C58.9982 10.4495 59.306 10.7622 59.5155 11.1388C59.9333 11.8685 60.2022 12.6737 60.3067 13.508C60.3996 14.07 60.4494 14.6382 60.4555 15.2078C60.44 17.1384 60.1917 19.0601 59.7161 20.9313C59.6823 21.0688 59.6237 21.1117 59.4907 21.0779C58.3816 20.8028 57.2589 20.5954 56.1296 20.4219C55.3451 20.3001 54.5516 20.1964 53.7671 20.122L53.2013 20.0702C53.1413 20.0666 53.083 20.0488 53.0313 20.0182C52.9795 19.9876 52.9358 19.9452 52.9037 19.8944C52.0561 18.6816 51.1634 17.5048 50.1986 16.3822C49.7793 15.8931 49.3442 15.4174 48.9114 14.9395C48.8257 14.8448 48.81 14.7952 48.9069 14.6893ZM38.6184 30.0183C39.1662 31.098 39.7253 32.1463 40.3204 33.1742C40.9155 34.2022 41.5467 35.2031 42.2162 36.2265C41.54 36.1904 40.911 36.1048 40.2753 36.0191C39.1054 35.859 37.9422 35.6697 36.7925 35.3992C36.6798 35.3721 36.6167 35.3654 36.6617 35.2166C37.1915 33.4853 37.8238 31.7871 38.5553 30.131C38.5688 30.0949 38.5914 30.0656 38.6184 30.016V30.0183ZM37.7776 25.4218C37.3824 24.4164 37.0254 23.3937 36.7068 22.3538C36.6527 22.1779 36.7068 22.1283 36.8601 22.0923C38.2735 21.7834 39.6937 21.5197 41.1297 21.3484C41.4678 21.3078 41.806 21.2627 42.2005 21.2131C40.8796 23.206 39.6819 25.2778 38.6139 27.4168C38.3028 26.7451 38.0368 26.0846 37.7776 25.4218ZM40.2731 30.832C39.9485 30.2144 39.6441 29.5854 39.3173 28.9678C39.2739 28.8936 39.251 28.8091 39.251 28.7232C39.251 28.6372 39.2739 28.5528 39.3173 28.4786C40.2901 26.4699 41.3793 24.5197 42.5792 22.6378C42.8813 22.1644 43.1991 21.7023 43.5034 21.2311C43.5324 21.1832 43.5735 21.1438 43.6226 21.1169C43.6717 21.09 43.727 21.0765 43.783 21.0779C44.9101 20.9899 46.0553 20.9674 47.1914 20.9268C48.2103 20.893 49.2202 20.9494 50.2392 20.9606C50.9154 20.9606 51.5917 21.044 52.268 21.0801C52.3201 21.0836 52.3704 21.1006 52.4138 21.1294C52.4573 21.1583 52.4925 21.198 52.516 21.2447C53.3455 22.4507 54.112 23.6973 54.8446 24.9665C55.5149 26.1297 56.1476 27.3131 56.7427 28.5169C56.7722 28.568 56.7877 28.6259 56.7877 28.6849C56.7877 28.7438 56.7722 28.8017 56.7427 28.8528C55.5068 31.3821 54.103 33.826 52.5408 36.1679C52.5066 36.2244 52.4582 36.2709 52.4005 36.303C52.3428 36.335 52.2777 36.3514 52.2116 36.3505C50.7802 36.4542 49.3487 36.4993 47.8226 36.4857C46.8983 36.5038 45.8817 36.47 44.865 36.4294C44.4953 36.4136 44.1256 36.3753 43.7537 36.355C43.7072 36.3546 43.6616 36.3416 43.6219 36.3174C43.5822 36.2932 43.5498 36.2586 43.5282 36.2175C42.3396 34.4839 41.2527 32.6827 40.2731 30.823V30.832ZM57.4055 29.9574C57.7526 30.7036 58.0592 31.4204 58.35 32.1418C58.7377 33.1051 59.0894 34.0819 59.405 35.0723C59.4546 35.2279 59.4366 35.2977 59.2607 35.3316C58.0637 35.6021 56.8622 35.8365 55.6539 35.9921L54.0331 36.2017C53.9648 36.2052 53.8963 36.2052 53.828 36.2017C55.1348 34.1831 56.3321 32.0957 57.4145 29.9484L57.4055 29.9574ZM57.4055 27.4191C56.3188 25.2935 55.1185 23.2278 53.8099 21.2311C55.0272 21.3664 56.1927 21.5332 57.3536 21.7474C57.9555 21.8601 58.5551 21.9908 59.157 22.1238C59.3374 22.1644 59.3825 22.2117 59.3216 22.3898C58.9248 23.6477 58.483 24.8898 57.969 26.1049C57.7932 26.5196 57.6016 26.9389 57.4055 27.4101V27.4191ZM47.8248 15.7826C47.9872 15.6045 48.0706 15.6225 48.2216 15.7826C49.3802 17.0475 50.4648 18.3782 51.47 19.7681C51.4993 19.811 51.5241 19.856 51.5759 19.9372C49.1918 19.7864 46.8005 19.7864 44.4164 19.9372C44.6914 19.572 44.9371 19.2406 45.1896 18.9115C46.0192 17.8272 46.9074 16.7925 47.8248 15.7826ZM35.5279 15.3768C35.5279 14.0107 35.6428 12.6717 36.2672 11.4183C36.4679 10.9594 36.8042 10.5728 37.2309 10.3105C37.6576 10.0482 38.1544 9.92266 38.6545 9.95082C39.6947 9.99226 40.7139 10.2559 41.6437 10.724C43.0689 11.4047 44.3976 12.2711 45.5954 13.3006C46.1274 13.7515 46.6369 14.2024 47.1328 14.687C47.2387 14.7885 47.2297 14.8358 47.1328 14.9327C45.6814 16.4824 44.3406 18.1321 43.1202 19.8696C43.0821 19.9296 43.03 19.9795 42.9684 20.0148C42.9067 20.0502 42.8373 20.0699 42.7663 20.0725C41.9209 20.1311 41.0801 20.2393 40.2415 20.361C39.2 20.512 38.1631 20.6879 37.1374 20.9178C36.93 20.9629 36.7204 21.0012 36.5175 21.0576C36.3957 21.0914 36.3416 21.0733 36.3078 20.9403C36.0313 19.8627 35.8183 18.7698 35.6699 17.6672C35.5692 16.908 35.5217 16.1426 35.5279 15.3768ZM35.3588 35.043C34.2575 34.7307 33.1783 34.3451 32.1284 33.8888C30.8414 33.3451 29.6395 32.6185 28.5599 31.7315C27.8453 31.1274 27.1984 30.4375 26.8444 29.5313C26.7446 29.2615 26.6868 28.9779 26.6731 28.6905C26.712 27.9732 26.9934 27.2905 27.4711 26.7541C28.235 25.8563 29.1602 25.1093 30.1988 24.5517C31.8329 23.6445 33.5749 22.9469 35.3836 22.4755C35.5459 22.4304 35.609 22.4597 35.6586 22.6243C36.273 24.646 37.0293 26.6219 37.9219 28.5372C37.9499 28.5978 37.963 28.6643 37.9598 28.731C37.9567 28.7978 37.9375 28.8627 37.9038 28.9204C37.0883 30.6783 36.3829 32.4852 35.7916 34.3307C35.7307 34.5178 35.6676 34.7049 35.6203 34.8965C35.582 35.0588 35.5098 35.0881 35.3588 35.043ZM47.1824 42.8112C45.6044 44.3509 43.8731 45.7079 41.8601 46.6615C40.8904 47.154 39.8285 47.4381 38.7424 47.4955C37.4981 47.4617 36.6572 47.0312 36.0373 45.4915C35.7339 44.673 35.5612 43.8119 35.5256 42.9397C35.3858 40.8365 35.751 38.7896 36.2222 36.7562C36.2357 36.6976 36.2605 36.6413 36.2718 36.5804C36.2966 36.4519 36.3597 36.4068 36.4972 36.4406C37.3786 36.6661 38.2735 36.8216 39.1707 36.9591C39.9417 37.0786 40.7127 37.1846 41.4904 37.2522C41.957 37.2928 42.4236 37.3446 42.8925 37.3829C42.9401 37.3899 42.9853 37.4081 43.0245 37.4359C43.0636 37.4637 43.0957 37.5004 43.118 37.543C43.8213 38.5319 44.5577 39.4952 45.3271 40.4329C45.9155 41.1475 46.5286 41.8396 47.1598 42.5181C47.2748 42.6241 47.3041 42.694 47.1824 42.8112ZM48.2171 41.7359C48.1134 41.8486 48.0503 41.8689 47.9353 41.7359C46.7224 40.4316 45.5844 39.0596 44.5269 37.6264C44.5043 37.5971 44.4885 37.5655 44.448 37.5024C46.828 37.6181 49.2123 37.6121 51.5917 37.4844C51.442 37.7427 51.2716 37.9885 51.0823 38.2193C50.1947 39.4449 49.2381 40.619 48.2171 41.7359ZM59.9099 45.5682C59.5989 46.3121 59.1796 46.9726 58.3973 47.3039C57.7762 47.5397 57.0987 47.5844 56.4519 47.4324C55.0002 47.1664 53.7265 46.4901 52.507 45.6944C51.2384 44.8482 50.0567 43.8787 48.979 42.7999C48.8844 42.7075 48.8505 42.6511 48.9633 42.5317C50.1605 41.2426 51.2713 39.8758 52.2883 38.4402C52.4912 38.1561 52.7031 37.8789 52.8879 37.5836C52.9302 37.5135 52.9902 37.4558 53.0618 37.4162C53.1334 37.3767 53.2141 37.3566 53.2959 37.3581C54.1571 37.3018 55.0137 37.1936 55.8681 37.0718C57.1124 36.896 58.3477 36.6706 59.5696 36.3753C59.7431 36.3324 59.795 36.3753 59.831 36.5398C60.1478 37.7558 60.362 38.9963 60.4713 40.2481C60.5118 40.7621 60.5569 41.2738 60.5524 41.79C60.5321 43.0749 60.4149 44.3576 59.9099 45.5682ZM68.5663 30.5345C67.7322 31.6007 66.6434 32.3537 65.4802 33.0142C63.976 33.8363 62.3833 34.4852 60.7328 34.9483C60.5637 34.9979 60.5073 34.9483 60.4622 34.8018C59.8259 32.7689 59.0384 30.7864 58.1065 28.8708C58.0765 28.8151 58.0609 28.7527 58.0609 28.6894C58.0609 28.626 58.0765 28.5637 58.1065 28.5079C58.9351 26.7449 59.6489 24.9302 60.2436 23.0751C60.2932 22.9173 60.345 22.7573 60.3879 22.5972C60.4172 22.489 60.4532 22.4552 60.5772 22.4913C62.8022 23.1292 64.955 23.9363 66.8643 25.2821C67.7255 25.8884 68.5077 26.5805 69.0104 27.5363C69.1982 27.878 69.3053 28.2582 69.3237 28.6477C69.2863 29.3429 69.02 30.0063 68.5663 30.5345Z" fill="#4DC8ED"/>
<path d="M31.0616 56.5395C30.8564 56.1405 30.6603 55.7393 30.4574 55.3403C30.3062 54.9991 30.0616 54.7076 29.7519 54.4994C29.944 54.4196 30.1169 54.2997 30.2591 54.1478C30.3963 53.9738 30.4872 53.7678 30.5232 53.5491C30.5591 53.3304 30.539 53.1061 30.4647 52.8973C30.3904 52.6885 30.2643 52.502 30.0982 52.3552C29.9321 52.2084 29.7315 52.1062 29.5152 52.0581C28.9178 51.9296 28.3069 51.9904 27.7118 51.9724C27.5337 51.9724 27.4863 52.0152 27.4863 52.1978C27.4863 53.5504 27.4863 54.903 27.4863 56.2555C27.4863 56.7312 27.4863 56.7267 27.9575 56.7064C28.086 56.7064 28.1265 56.6635 28.1243 56.535C28.1243 56.118 28.1243 55.701 28.1243 55.2839C28.1243 54.7046 28.1243 54.7181 28.7014 54.7001C28.9339 54.6795 29.167 54.7341 29.3662 54.8559C29.5654 54.9776 29.7204 55.16 29.8082 55.3763C29.9756 55.6735 30.1261 55.9798 30.2591 56.2938C30.3898 56.6658 30.6265 56.7447 30.9827 56.7131C31.1225 56.6951 31.1202 56.6545 31.0616 56.5395ZM29.1973 54.1613C28.8815 54.1962 28.5635 54.2075 28.246 54.1951C28.122 54.1951 28.1175 54.123 28.1175 54.0328C28.1175 53.8074 28.1175 53.582 28.1175 53.3565C28.1175 53.1311 28.1175 52.9057 28.1175 52.6803C28.1175 52.6149 28.1017 52.527 28.2054 52.5315C28.5605 52.5038 28.9175 52.5174 29.2694 52.572C29.691 52.6848 29.8691 52.953 29.8488 53.4242C29.85 53.6057 29.7842 53.7813 29.664 53.9173C29.5438 54.0533 29.3776 54.1402 29.1973 54.1613Z" fill="#4DC8ED"/>
<path d="M38.355 54.2019C38.3364 53.961 38.2426 53.7319 38.0869 53.5471C37.9312 53.3622 37.7214 53.231 37.4871 53.1717C36.9162 53.0327 36.316 53.0769 35.7716 53.298C35.742 53.3053 35.716 53.323 35.6983 53.3478C35.6805 53.3726 35.6721 53.4028 35.6746 53.4332C35.6746 53.564 35.6746 53.6947 35.6746 53.8615C35.9678 53.7191 36.2823 53.6255 36.6056 53.5843C37.1219 53.5076 37.6043 53.7082 37.7531 54.0757C37.9018 54.4431 37.8477 54.4769 37.4871 54.4792C37.0322 54.4431 36.5745 54.4866 36.1345 54.6077C35.906 54.6848 35.7098 54.836 35.5771 55.0374C35.4443 55.2387 35.3827 55.4786 35.4019 55.719C35.3946 55.9644 35.4753 56.2044 35.6295 56.3954C35.7838 56.5864 36.0013 56.7159 36.2427 56.7605C36.5277 56.8415 36.8308 56.8321 37.1102 56.7336C37.3896 56.6351 37.6315 56.4523 37.8027 56.2105C37.8297 56.7447 37.8297 56.7447 38.2535 56.7109H38.2761C38.3617 56.7109 38.4 56.6771 38.3978 56.5892C38.3843 55.7912 38.4677 54.9909 38.355 54.2019ZM37.8049 55.3403C37.6832 56.0166 37.2594 56.3525 36.5989 56.2984C36.4507 56.2882 36.3104 56.2276 36.2014 56.1267C36.0923 56.0259 36.021 55.8908 35.9992 55.7438C35.9627 55.5872 35.9895 55.4225 36.074 55.2856C36.1585 55.1488 36.2937 55.0509 36.4501 55.0135C36.7288 54.941 37.017 54.9121 37.3045 54.9278H37.4623C37.8477 54.9278 37.8725 54.9571 37.8027 55.3403H37.8049Z" fill="#4DC8ED"/>
<path d="M55.3467 54.4229C55.3586 54.0996 55.2468 53.7838 55.034 53.5401C54.8213 53.2963 54.5235 53.1428 54.2016 53.1109C53.7635 53.0638 53.3204 53.1052 52.8986 53.2327C52.6912 53.2935 52.5965 53.3792 52.6191 53.6069C52.6416 53.8345 52.6191 53.8548 52.8445 53.7624C53.2406 53.5839 53.6816 53.5296 54.1091 53.6069C54.2765 53.6329 54.4306 53.7132 54.5479 53.8354C54.6652 53.9576 54.7391 54.1149 54.7584 54.2831C54.7696 54.4297 54.7336 54.4838 54.5758 54.4838C54.1816 54.4646 53.7865 54.4782 53.3945 54.5244C52.6709 54.6393 52.3283 55.0857 52.3801 55.8611C52.4184 56.4157 52.8963 56.7989 53.5478 56.8034C53.7795 56.815 54.0103 56.7685 54.2194 56.6681C54.4284 56.5677 54.6091 56.4166 54.7448 56.2286C54.7787 56.729 54.7787 56.7245 55.1777 56.7155C55.3039 56.7155 55.349 56.6772 55.349 56.5464C55.3467 55.8363 55.3693 55.1285 55.3467 54.4229ZM53.7124 56.3007C53.1488 56.3007 52.849 55.9378 52.982 55.4238C53.0013 55.3342 53.044 55.2513 53.1058 55.1836C53.1676 55.1159 53.2462 55.0658 53.3337 55.0383C53.7674 54.9303 54.2158 54.893 54.6614 54.9279C54.7381 54.9279 54.7629 54.9707 54.7674 55.0428C54.8282 55.7552 54.3301 56.348 53.7169 56.303L53.7124 56.3007Z" fill="#4DC8ED"/>
<path d="M32.2164 55.0676C32.8927 55.0676 33.5825 55.0676 34.2656 55.0676C34.6826 55.0676 34.6939 55.0676 34.6691 54.6416C34.6375 54.06 34.4437 53.5438 33.8959 53.2665C33.6323 53.1283 33.3372 53.0614 33.0399 53.0725C32.7425 53.0835 32.4532 53.1722 32.2007 53.3296C31.6709 53.6384 31.4613 54.1524 31.4072 54.7385C31.3373 55.5207 31.6033 56.3165 32.4148 56.6434C33.0911 56.9206 33.7832 56.8057 34.4437 56.56C34.4692 56.5519 34.4913 56.5356 34.5064 56.5135C34.5215 56.4914 34.5288 56.4649 34.5271 56.4382C34.5271 56.2962 34.5271 56.1564 34.5271 55.9874L34.3355 56.0663C33.9462 56.2398 33.521 56.3171 33.0956 56.2917C32.8235 56.281 32.5644 56.1721 32.3663 55.9853C32.1683 55.7984 32.0445 55.5461 32.0181 55.275C32.0113 55.1285 32.0474 55.0654 32.2164 55.0676ZM32.0384 54.4793C32.075 54.2262 32.2025 53.9951 32.3971 53.8292C32.5916 53.6633 32.8399 53.5738 33.0956 53.5776C33.3168 53.5672 33.5346 53.6349 33.7109 53.7688C33.8873 53.9027 34.011 54.0944 34.0604 54.3102C34.1303 54.583 34.101 54.6235 33.8147 54.6235H33.0438C32.7552 54.6235 32.4689 54.6235 32.1804 54.6235C32.0812 54.619 32.0248 54.601 32.0384 54.4793Z" fill="#4DC8ED"/>
<path d="M65.3295 55.0653C66.0057 55.0811 66.664 55.0653 67.3335 55.0653C67.7573 55.0653 67.7686 55.0653 67.746 54.6461C67.7167 54.0645 67.5206 53.546 66.9773 53.2664C66.711 53.1249 66.4118 53.0566 66.1104 53.0685C65.8091 53.0803 65.5162 53.172 65.2618 53.3341C64.7434 53.6429 64.536 54.1501 64.4841 54.7272C64.4075 55.5771 64.7095 56.3615 65.5684 56.6704C66.0801 56.8439 66.6347 56.8439 67.1464 56.6704C67.6942 56.5013 67.5972 56.6298 67.5972 56.0257C67.5972 56.0257 67.5972 56.0121 67.5792 55.9896C67.1653 56.1943 66.7087 56.2979 66.2469 56.2917C65.9707 56.2989 65.7014 56.2044 65.4903 56.0261C65.2792 55.8478 65.1409 55.5981 65.1018 55.3246C65.077 55.1555 65.0995 55.0586 65.3295 55.0653ZM65.104 54.4905C65.1446 53.9991 65.5549 53.6339 66.1297 53.573C66.3508 53.5534 66.5716 53.6132 66.7525 53.7417C66.9335 53.8702 67.0627 54.0589 67.1171 54.2741C67.2073 54.5784 67.1802 54.6168 66.8714 54.619H65.2663C65.1784 54.6168 65.1018 54.6235 65.1108 54.4905H65.104Z" fill="#4DC8ED"/>
<path d="M48.0115 24.5899C48.8183 24.5926 49.6062 24.8345 50.2754 25.2852C50.9447 25.7358 51.4653 26.3748 51.7712 27.1214C52.0772 27.8679 52.1548 28.6885 51.9943 29.4792C51.8338 30.2699 51.4423 30.9952 50.8694 31.5633C50.2966 32.1315 49.568 32.5169 48.776 32.6709C47.984 32.8248 47.1642 32.7404 46.4202 32.4282C45.6762 32.1161 45.0415 31.5902 44.5964 30.9172C44.1514 30.2443 43.916 29.4544 43.92 28.6476C43.9217 28.1124 44.029 27.5827 44.2357 27.089C44.4423 26.5953 44.7443 26.1472 45.1243 25.7703C45.5044 25.3935 45.955 25.0952 46.4504 24.8927C46.9458 24.6901 47.4763 24.5872 48.0115 24.5899Z" fill="#4DC8ED"/>
</g>
</g>
<defs>
<clipPath id="clip0_6744_66619">
<rect width="72" height="48" fill="white" transform="translate(12 8.81006)"/>
</clipPath>
<clipPath id="clip1_6744_66619">
<rect width="44.817" height="48" fill="white" transform="translate(25.5918 8.81006)"/>
</clipPath>
</defs>
</svg>
