<svg width="96" height="65" viewBox="0 0 96 65" fill="none" xmlns="http://www.w3.org/2000/svg">
<rect width="96" height="64" transform="translate(0 0.839844)" fill="white"/>
<g clip-path="url(#clip0_6744_65574)">
<path d="M15.7927 27.4807H19.1613L15.6641 37.8329C15.6282 37.9394 15.5599 38.032 15.4687 38.0976C15.3775 38.1632 15.2681 38.1987 15.1557 38.1989H12.5359C12.3938 38.1989 12.2575 38.1424 12.157 38.0419C12.0565 37.9414 12 37.8051 12 37.663C11.9999 37.6047 12.0092 37.5468 12.0276 37.4915L15.2828 27.8451C15.3192 27.7388 15.3879 27.6465 15.4793 27.5812C15.5708 27.5159 15.6803 27.4807 15.7927 27.4807Z" fill="url(#paint0_linear_6744_65574)"/>
<path d="M20.6838 34.4246H15.3462C15.3133 34.4246 15.2807 34.4311 15.2504 34.4439C15.2201 34.4567 15.1927 34.4754 15.1697 34.4989C15.1467 34.5225 15.1287 34.5504 15.1167 34.581C15.1046 34.6116 15.0989 34.6443 15.0997 34.6772C15.0996 34.7113 15.1064 34.7451 15.1199 34.7764C15.1333 34.8077 15.153 34.836 15.1778 34.8594L18.6076 38.0595C18.706 38.1557 18.8375 38.2105 18.9751 38.2127H21.9976L20.6838 34.4246Z" fill="#0078D4"/>
<path d="M15.7922 27.4807C15.6785 27.4798 15.5676 27.5155 15.4758 27.5825C15.384 27.6495 15.3161 27.7443 15.2823 27.8528L12.0316 37.4823C12.0078 37.5484 11.9973 37.6186 12.0006 37.6889C12.0039 37.7591 12.0211 37.828 12.0511 37.8916C12.0811 37.9552 12.1234 38.0122 12.1755 38.0594C12.2276 38.1066 12.2885 38.1431 12.3547 38.1667C12.4131 38.1882 12.4748 38.199 12.5369 38.1989H15.2241C15.3243 38.181 15.4179 38.1369 15.4954 38.071C15.5728 38.0051 15.6314 37.9197 15.6651 37.8238L16.3128 35.9144L18.6279 38.0733C18.7253 38.1528 18.8467 38.1971 18.9724 38.1989H21.9842L20.6628 34.4246H16.8135L19.1699 27.4807H15.7922Z" fill="url(#paint1_linear_6744_65574)"/>
<path d="M20.0909 27.8451C20.0551 27.7391 19.9869 27.6469 19.896 27.5815C19.8051 27.5162 19.696 27.4809 19.5841 27.4807H15.8281C15.9401 27.4809 16.0492 27.5162 16.1401 27.5815C16.231 27.6469 16.2991 27.7391 16.3349 27.8451L19.5917 37.4915C19.6192 37.5718 19.6272 37.6575 19.6149 37.7415C19.6027 37.8255 19.5707 37.9053 19.5214 37.9745C19.4722 38.0436 19.4072 38.1 19.3318 38.1391C19.2564 38.1781 19.1729 38.1986 19.088 38.1989H22.8393C22.9815 38.1989 23.1178 38.1424 23.2183 38.0419C23.3188 37.9414 23.3752 37.8051 23.3752 37.663C23.3753 37.6047 23.366 37.5468 23.3477 37.4915L20.0909 27.8451Z" fill="url(#paint2_linear_6744_65574)"/>
<path d="M31.4807 36.092H30.4671V32.1109C30.4671 31.7853 30.4875 31.3862 30.5283 30.9136H30.51C30.4685 31.1103 30.4127 31.3037 30.3431 31.4923L28.5057 36.095H27.8013L25.9639 31.5275C25.8946 31.3276 25.8398 31.1229 25.8001 30.9151H25.7802C25.8032 31.1601 25.8154 31.5628 25.8154 32.1201V36.1011H24.8691V29.9305H26.3069L27.9238 34.0356C28.0189 34.265 28.0992 34.5003 28.1642 34.7399H28.1856C28.2913 34.4169 28.3786 34.1765 28.4444 34.0188L30.0935 29.9305H31.4807V36.092Z" fill="#36BAED"/>
<path d="M33.2197 31.0422C33.0654 31.047 32.9151 30.9921 32.8002 30.889C32.7438 30.8382 32.6992 30.7757 32.6693 30.7059C32.6395 30.6361 32.6251 30.5607 32.6272 30.4848C32.6255 30.4085 32.6401 30.3328 32.6699 30.2626C32.6998 30.1924 32.7442 30.1293 32.8002 30.0775C32.913 29.9698 33.0638 29.9109 33.2197 29.9137C33.3785 29.9107 33.5322 29.9694 33.6484 30.0775C33.7054 30.1287 33.7506 30.1916 33.781 30.2619C33.8114 30.3322 33.8263 30.4082 33.8245 30.4848C33.8254 30.5597 33.8102 30.6339 33.7798 30.7023C33.7494 30.7708 33.7046 30.8318 33.6484 30.8814C33.5911 30.9351 33.5237 30.977 33.4501 31.0046C33.3766 31.0322 33.2982 31.045 33.2197 31.0422ZM33.7127 36.095H32.7175V31.696H33.7127V36.095Z" fill="#36BAED"/>
<path d="M37.9916 35.8899C37.6099 36.1015 37.1785 36.2072 36.7422 36.1962C36.4508 36.2083 36.1601 36.1602 35.8882 36.0548C35.6163 35.9494 35.3691 35.789 35.162 35.5837C34.9602 35.3733 34.8029 35.1244 34.6995 34.8519C34.5962 34.5793 34.5488 34.2887 34.5603 33.9974C34.5603 33.2727 34.7757 32.6908 35.2064 32.2519C35.6372 31.8129 36.2134 31.593 36.9351 31.5919C37.3 31.5845 37.662 31.6566 37.9962 31.8032V32.7296C37.7164 32.5103 37.3718 32.3897 37.0163 32.3866C36.8235 32.3804 36.6317 32.4152 36.4535 32.4889C36.2753 32.5626 36.1148 32.6733 35.9827 32.8138C35.7063 33.1193 35.5615 33.5215 35.58 33.9331C35.5603 34.3265 35.6968 34.7117 35.9598 35.0049C36.0929 35.1382 36.2523 35.2421 36.4279 35.3101C36.6035 35.3782 36.7914 35.4088 36.9795 35.4C37.3517 35.3943 37.7101 35.2589 37.9932 35.0172L37.9916 35.8899Z" fill="#36BAED"/>
<path d="M41.3595 32.6438C41.207 32.5404 41.0243 32.4908 40.8405 32.5029C40.694 32.5035 40.55 32.5403 40.4213 32.61C40.2925 32.6798 40.183 32.7802 40.1024 32.9025C39.8889 33.2229 39.7847 33.6037 39.8054 33.9881V36.092H38.8086V31.696H39.8054V32.6009H39.8222C39.901 32.3227 40.0565 32.0723 40.2709 31.8782C40.4567 31.7111 40.6977 31.6184 40.9476 31.6179C41.0896 31.61 41.2312 31.6379 41.3595 31.699V32.6438Z" fill="#36BAED"/>
<path d="M43.7663 36.1946C43.0875 36.1946 42.546 35.9904 42.1418 35.5821C41.7375 35.1738 41.5334 34.6292 41.5293 33.9484C41.5293 33.2104 41.7406 32.6336 42.1632 32.2182C42.5858 31.8027 43.1544 31.595 43.8689 31.595C44.5569 31.595 45.0923 31.7991 45.4751 32.2074C45.8579 32.6157 46.0498 33.1772 46.0508 33.8917C46.0508 34.593 45.8467 35.1544 45.4384 35.576C45.0301 35.9976 44.4727 36.2038 43.7663 36.1946ZM43.8138 32.3805C43.6396 32.3736 43.4661 32.407 43.3068 32.4779C43.1475 32.5487 43.0067 32.6553 42.8951 32.7893C42.6525 33.1119 42.5326 33.5102 42.5567 33.9132C42.5339 34.3058 42.6559 34.6932 42.8997 35.0018C43.0132 35.1328 43.1547 35.2366 43.3137 35.3055C43.4727 35.3744 43.6452 35.4067 43.8184 35.3999C43.9891 35.4097 44.1598 35.3793 44.3166 35.3112C44.4735 35.2432 44.6123 35.1393 44.7218 35.0079C44.9331 34.7476 45.0387 34.3771 45.0387 33.8963C45.0387 33.4155 44.9331 33.0419 44.7218 32.7755C44.6124 32.6426 44.4731 32.5374 44.3153 32.4688C44.1575 32.4001 43.9856 32.3698 43.8138 32.3805Z" fill="#36BAED"/>
<path d="M46.625 35.9542V35.0355C46.9766 35.3112 47.4108 35.4606 47.8576 35.4596C48.4578 35.4596 48.7594 35.282 48.7594 34.9268C48.7622 34.8358 48.7348 34.7464 48.6814 34.6726C48.6247 34.5975 48.5539 34.5341 48.4731 34.4858C48.3769 34.4238 48.2742 34.3724 48.1669 34.3327L47.7703 34.1796C47.6027 34.1142 47.4396 34.0379 47.2819 33.9514C47.1482 33.8803 47.0267 33.7883 46.922 33.6789C46.8268 33.5796 46.7528 33.4618 46.7046 33.3328C46.6535 33.1884 46.6291 33.0359 46.6327 32.8827C46.6292 32.6851 46.6824 32.4907 46.7858 32.3223C46.8872 32.1613 47.0226 32.0244 47.1823 31.9211C47.3594 31.8072 47.5539 31.7229 47.7581 31.6715C47.9756 31.6155 48.1994 31.5872 48.4241 31.5873C48.7956 31.5835 49.1646 31.6478 49.5128 31.7772V32.6484C49.1992 32.4356 48.8275 32.3248 48.4486 32.3315C48.3337 32.3299 48.2189 32.3428 48.1072 32.3697C48.0152 32.3913 47.9273 32.4275 47.8469 32.4769C47.7777 32.5181 47.719 32.5747 47.6754 32.6423C47.6345 32.7057 47.6132 32.7797 47.6141 32.8551C47.6112 32.9395 47.6325 33.0229 47.6754 33.0955C47.7202 33.1663 47.781 33.2256 47.853 33.2685C47.9422 33.3244 48.0372 33.3706 48.1363 33.4063C48.2465 33.4477 48.3736 33.4936 48.516 33.5411C48.6898 33.6116 48.86 33.6908 49.0259 33.7784C49.166 33.8511 49.2953 33.9428 49.4102 34.051C49.5146 34.1505 49.5975 34.2703 49.6536 34.4031C49.7146 34.5538 49.7438 34.7154 49.7394 34.8778C49.7452 35.0829 49.6921 35.2854 49.5863 35.4612C49.4822 35.6281 49.3413 35.7689 49.1744 35.8731C48.9913 35.9867 48.7905 36.069 48.5803 36.1165C48.3472 36.1695 48.1089 36.1957 47.8698 36.1946C47.4425 36.2045 47.018 36.1225 46.625 35.9542Z" fill="#36BAED"/>
<path d="M52.4714 36.1946C51.7926 36.1946 51.2511 35.9904 50.8468 35.5821C50.4426 35.1738 50.2385 34.6292 50.2344 33.9484C50.2344 33.2104 50.4452 32.6336 50.8667 32.2182C51.2883 31.8027 51.8579 31.594 52.5755 31.5919C53.2635 31.5919 53.7989 31.7961 54.1817 32.2044C54.5645 32.6127 54.7564 33.1741 54.7574 33.8887C54.7574 34.5899 54.5502 35.1514 54.1358 35.5729C53.7213 35.9945 53.1666 36.2017 52.4714 36.1946ZM52.5189 32.3805C52.3447 32.3737 52.1712 32.407 52.0119 32.4779C51.8526 32.5488 51.7117 32.6553 51.6002 32.7893C51.3571 33.1117 51.2366 33.5101 51.2603 33.9132C51.2379 34.306 51.3605 34.6934 51.6048 35.0018C51.7181 35.1331 51.8595 35.237 52.0186 35.306C52.1777 35.3749 52.3502 35.407 52.5235 35.3999C52.6942 35.4097 52.8648 35.3793 53.0217 35.3112C53.1786 35.2432 53.3174 35.1393 53.4269 35.0079C53.6382 34.7477 53.7423 34.3771 53.7423 33.8963C53.7423 33.4155 53.6382 33.0389 53.4269 32.7755C53.3175 32.6426 53.1782 32.5375 53.0204 32.4688C52.8625 32.4001 52.6907 32.3698 52.5189 32.3805Z" fill="#36BAED"/>
<path d="M57.6752 30.3899C57.5349 30.3116 57.3765 30.2715 57.2159 30.2736C56.732 30.2736 56.4901 30.5471 56.4901 31.0943V31.6914H57.5114V32.4723H56.4947V36.092H55.4979V32.4769H54.7461V31.696H55.4979V30.9825C55.4884 30.7771 55.5248 30.5722 55.6042 30.3826C55.6836 30.193 55.8042 30.0235 55.9572 29.8862C56.2725 29.6141 56.6787 29.4709 57.0949 29.485C57.2931 29.4774 57.4911 29.5049 57.6798 29.5662L57.6752 30.3899Z" fill="#36BAED"/>
<path d="M60.2633 36.0445C60.0232 36.1535 59.7613 36.2059 59.4977 36.1976C58.6433 36.1976 58.2166 35.7893 58.2176 34.9727V32.4769H57.4766V31.696H58.2115V30.6778L59.2068 30.3945V31.696H60.2602V32.4769H59.2068V34.6772C59.1889 34.8738 59.2392 35.0706 59.3492 35.2345C59.4105 35.2957 59.4846 35.3425 59.5661 35.3716C59.6476 35.4007 59.7346 35.4115 59.8208 35.403C59.9806 35.4047 60.1361 35.3505 60.2602 35.2499L60.2633 36.0445Z" fill="#36BAED"/>
<path d="M67.827 36.092H66.7062L66.1519 34.524H63.7311L63.1983 36.0904H62.082L64.388 29.9305H65.5379L67.827 36.092ZM65.8824 33.6926L65.028 31.2428C64.9918 31.1156 64.9642 30.9862 64.9453 30.8554H64.9285C64.9103 30.9866 64.8816 31.1161 64.8427 31.2428L63.9975 33.6926H65.8824Z" fill="#36BAED"/>
<path d="M71.9104 32.1125L69.5355 35.3157H71.9012V36.092H68.1406V35.7184L70.566 32.4723H68.3718V31.696H71.9104V32.1125Z" fill="#36BAED"/>
<path d="M76.412 36.092H75.4167V35.3969H75.3999C75.2768 35.6465 75.0836 35.8548 74.8441 35.9965C74.6045 36.1381 74.3289 36.207 74.0509 36.1946C73.0107 36.1946 72.4912 35.5709 72.4922 34.3235V31.696H73.489V34.2179C73.489 35.008 73.7952 35.403 74.4077 35.403C74.5457 35.4066 74.6828 35.3789 74.8087 35.3222C74.9347 35.2655 75.0462 35.1811 75.135 35.0753C75.3328 34.8348 75.4334 34.5289 75.4167 34.2179V31.696H76.412V36.092Z" fill="#36BAED"/>
<path d="M79.8205 32.6438C79.6672 32.5407 79.4842 32.4911 79.2999 32.503C79.1535 32.5037 79.0095 32.5406 78.8808 32.6103C78.752 32.68 78.6425 32.7804 78.5618 32.9026C78.3488 33.2231 78.2451 33.6039 78.2663 33.9882V36.092H77.2695V31.696H78.2663V32.601H78.2832C78.3608 32.3222 78.5165 32.0715 78.7318 31.8782C78.9177 31.7111 79.1586 31.6184 79.4086 31.6179C79.5505 31.6103 79.6921 31.6382 79.8205 31.6991V32.6438Z" fill="#36BAED"/>
<path d="M83.9994 34.1642H81.0029C80.9973 34.3383 81.0277 34.5117 81.0922 34.6735C81.1568 34.8353 81.2541 34.982 81.3781 35.1044C81.6509 35.3399 82.0041 35.4612 82.3642 35.4427C82.8303 35.4425 83.284 35.2922 83.658 35.014V35.8179C83.2568 36.069 82.727 36.1945 82.0686 36.1945C81.4102 36.1945 80.9024 35.995 80.5451 35.5959C80.1777 35.1978 79.9939 34.6363 79.9939 33.9116C79.9703 33.2949 80.1903 32.6938 80.6064 32.238C80.7976 32.0291 81.0312 31.8634 81.2915 31.752C81.5518 31.6406 81.833 31.586 82.1161 31.5919C82.7173 31.5919 83.1828 31.7853 83.5125 32.1722C83.8422 32.559 84.0066 33.096 84.0056 33.783L83.9994 34.1642ZM83.0455 33.4599C83.0611 33.1605 82.9712 32.8652 82.7913 32.6254C82.7084 32.5249 82.6033 32.445 82.4843 32.3919C82.3653 32.3388 82.2356 32.3139 82.1054 32.3192C81.9686 32.3169 81.8329 32.3437 81.7073 32.3978C81.5816 32.4519 81.4689 32.5321 81.3766 32.6331C81.1692 32.8594 81.0408 33.1468 81.0106 33.4522L83.0455 33.4599Z" fill="#36BAED"/>
</g>
<defs>
<linearGradient id="paint0_linear_6744_65574" x1="17.4107" y1="28.2823" x2="13.9209" y2="38.5916" gradientUnits="userSpaceOnUse">
<stop stop-color="#114A8B"/>
<stop offset="1" stop-color="#0669BC"/>
</linearGradient>
<linearGradient id="paint1_linear_6744_65574" x1="18.4994" y1="33.0882" x2="17.6921" y2="33.3605" gradientUnits="userSpaceOnUse">
<stop stop-opacity="0.3"/>
<stop offset="0.07" stop-opacity="0.2"/>
<stop offset="0.32" stop-opacity="0.1"/>
<stop offset="0.62" stop-opacity="0.05"/>
<stop offset="1" stop-opacity="0"/>
</linearGradient>
<linearGradient id="paint2_linear_6744_65574" x1="18.0821" y1="27.9718" x2="21.9135" y2="38.1784" gradientUnits="userSpaceOnUse">
<stop stop-color="#3CCBF4"/>
<stop offset="1" stop-color="#2892DF"/>
</linearGradient>
<clipPath id="clip0_6744_65574">
<rect width="72" height="10.7182" fill="white" transform="translate(12 27.4807)"/>
</clipPath>
</defs>
</svg>
