<svg width="96" height="65" viewBox="0 0 96 65" fill="none" xmlns="http://www.w3.org/2000/svg">
<rect width="96" height="64" transform="translate(0 0.839844)" fill="white"/>
<g clip-path="url(#clip0_6744_65568)">
<path d="M32.2854 26.939C32.2854 27.8254 32.3867 28.5345 32.5387 29.0663C32.7413 29.5981 32.9692 30.1553 33.2985 30.7884C33.4251 30.991 33.4757 31.1683 33.4757 31.3456C33.4757 31.5735 33.3238 31.8268 33.0199 32.0547L31.5004 33.0677C31.2724 33.2197 31.0698 33.2956 30.8672 33.2956C30.6393 33.2956 30.386 33.169 30.1581 32.9664C29.8289 32.6119 29.525 32.232 29.297 31.8521C29.0691 31.4469 28.8159 30.991 28.5626 30.4339C26.6885 32.6372 24.3586 33.7262 21.5222 33.7262C19.5215 33.7262 17.9006 33.1437 16.7357 32.0041C15.5707 30.8644 14.9629 29.3196 14.9629 27.3948C14.9629 25.3688 15.672 23.6973 17.1409 22.4564C18.6097 21.2154 20.5345 20.5823 23.0164 20.5823C23.8268 20.5823 24.6625 20.6583 25.5489 20.7849C26.4353 20.9115 27.347 21.0888 28.3094 21.3167V19.5693C28.3094 17.7459 27.9295 16.4796 27.195 15.7452C26.4353 15.0107 25.1437 14.6562 23.2949 14.6562C22.4592 14.6562 21.5981 14.7575 20.7117 14.9601C19.8254 15.188 18.9643 15.4413 18.1286 15.7705C17.7487 15.9478 17.4701 16.0237 17.2928 16.0744C17.1155 16.1251 17.0142 16.1504 16.9129 16.1504C16.5837 16.1504 16.4064 15.9224 16.4064 15.4159V14.251C16.4064 13.8711 16.4571 13.5925 16.5837 13.4152C16.7103 13.238 16.9129 13.086 17.2422 12.9087C18.0779 12.4529 19.0656 12.0983 20.2559 11.8197C21.4209 11.5158 22.6618 11.3639 23.9787 11.3639C26.8405 11.3639 28.9172 12.0223 30.2594 13.3139C31.5763 14.6055 32.2348 16.5809 32.2348 19.2147V26.9643H32.2854V26.939ZM22.5605 30.5858C23.3456 30.5858 24.156 30.4339 25.0171 30.1553C25.8781 29.8767 26.6379 29.3449 27.2963 28.6105C27.6762 28.1546 27.9548 27.6481 28.1068 27.0656C28.2587 26.4831 28.3347 25.7993 28.3347 24.9889V23.9759C27.6509 23.7986 26.8911 23.672 26.1314 23.5707C25.3716 23.4694 24.6119 23.4188 23.8774 23.4188C22.2819 23.4188 21.0916 23.7227 20.3065 24.3811C19.5215 25.0396 19.1416 25.926 19.1416 27.1416C19.1416 28.2559 19.4202 29.117 20.028 29.6741C20.6358 30.3073 21.4715 30.5858 22.5605 30.5858ZM41.7825 33.169C41.3519 33.169 41.0733 33.093 40.8707 32.9411C40.6681 32.7891 40.5162 32.4599 40.3642 32.0041L34.7673 13.4912C34.6154 13.01 34.5394 12.7061 34.5394 12.5288C34.5394 12.149 34.742 11.921 35.1219 11.921H37.4771C37.933 11.921 38.2369 11.997 38.4142 12.149C38.6168 12.3009 38.7434 12.6302 38.8954 13.086L42.8968 28.965L46.6196 13.1113C46.7462 12.6302 46.8728 12.3262 47.0755 12.1743C47.2781 12.0223 47.6073 11.9464 48.0378 11.9464H49.9625C50.4184 11.9464 50.7223 12.0223 50.9249 12.1743C51.1275 12.3262 51.2795 12.6555 51.3808 13.1113L55.1542 29.1423L59.3076 13.1113C59.4596 12.6302 59.6115 12.3262 59.7888 12.1743C59.9914 12.0223 60.2953 11.9464 60.7258 11.9464H62.9545C63.3343 11.9464 63.5623 12.149 63.5623 12.5542C63.5623 12.6808 63.5369 12.7821 63.5116 12.9341C63.4863 13.086 63.4356 13.2633 63.3343 13.5419L57.5602 32.0547C57.4082 32.5359 57.2562 32.8398 57.0536 32.9917C56.851 33.1437 56.5471 33.2197 56.1419 33.2197H54.0906C53.6347 33.2197 53.3308 33.1437 53.1282 32.9917C52.9256 32.8145 52.7737 32.5106 52.6724 32.0294L48.9495 16.5809L45.252 32.0041C45.1254 32.4852 44.9988 32.7891 44.7962 32.9664C44.5936 33.1437 44.2643 33.1943 43.8338 33.1943H41.7825V33.169ZM72.5528 33.8275C71.3118 33.8275 70.0709 33.6755 68.8553 33.3969C67.665 33.1184 66.7279 32.7891 66.0948 32.4346C65.7149 32.2067 65.4363 31.9787 65.3604 31.7761C65.2591 31.5482 65.2084 31.3203 65.2084 31.1177V29.902C65.2084 29.3955 65.411 29.1676 65.7656 29.1676C65.9175 29.1676 66.0442 29.1929 66.1961 29.2436C66.3481 29.2942 66.5507 29.3955 66.8039 29.4715C67.6143 29.8261 68.5007 30.13 69.4377 30.3073C70.4001 30.5099 71.3372 30.5858 72.2995 30.5858C73.819 30.5858 74.984 30.3326 75.7944 29.8007C76.6048 29.2689 77.0354 28.5092 77.0354 27.5215C77.0354 26.863 76.8074 26.3058 76.3769 25.85C75.9464 25.3941 75.136 24.9889 73.971 24.609L70.5014 23.4947C68.754 22.9376 67.4624 22.1272 66.6773 21.0635C65.8922 19.9998 65.487 18.8349 65.487 17.5939C65.487 16.5809 65.7149 15.6945 66.1455 14.9348C66.576 14.175 67.1585 13.4912 67.8676 12.9594C68.5767 12.4022 69.4124 11.997 70.3495 11.7184C71.2865 11.4399 72.2995 11.3132 73.3632 11.3132C73.895 11.3132 74.4522 11.3386 74.9587 11.4145C75.5158 11.4905 76.0223 11.5918 76.5035 11.6678C76.9847 11.7944 77.4406 11.8957 77.8711 12.0477C78.3016 12.1996 78.6309 12.3262 78.8841 12.4782C79.2133 12.6808 79.4666 12.8581 79.5932 13.086C79.7452 13.2886 79.8211 13.5419 79.8211 13.8711V14.9854C79.8211 15.4919 79.6185 15.7452 79.264 15.7452C79.0614 15.7452 78.7575 15.6439 78.3523 15.4666C76.9847 14.8335 75.4652 14.5296 73.7431 14.5296C72.3755 14.5296 71.3118 14.7575 70.5521 15.188C69.8176 15.6439 69.4377 16.3277 69.4377 17.3153C69.4377 17.9738 69.6657 18.5563 70.1469 19.0121C70.628 19.468 71.5144 19.9239 72.7807 20.3291L76.1743 21.4181C77.8964 21.9752 79.1374 22.735 79.8971 23.7227C80.6569 24.7103 80.9861 25.8247 80.9861 27.0656C80.9861 28.1039 80.7582 29.041 80.353 29.8514C79.9224 30.6618 79.34 31.3962 78.6055 31.9534C77.8711 32.5612 76.9847 32.9917 75.9464 33.2956C74.908 33.6502 73.7937 33.8275 72.5528 33.8275Z" fill="#252F3E"/>
<path d="M77.0869 45.4518C69.2107 51.2766 57.7637 54.3663 47.9121 54.3663C34.1098 54.3663 21.7004 49.2759 12.3047 40.7919C11.5702 40.1335 12.2287 39.2218 13.1151 39.7283C23.2705 45.6291 35.7813 49.1746 48.7479 49.1746C57.4851 49.1746 67.0834 47.3512 75.922 43.6284C77.2642 43.0459 78.3785 44.4894 77.0869 45.4518ZM80.3792 41.729C79.3662 40.4374 73.7187 41.0958 71.1608 41.4251C70.401 41.5264 70.2744 40.8426 70.9582 40.3361C75.4661 37.1704 82.8611 38.0821 83.7222 39.1458C84.5832 40.2348 83.4942 47.6298 79.2649 51.1753C78.6064 51.7325 77.9986 51.4286 78.2772 50.7195C79.2396 48.3389 81.3669 42.9952 80.3792 41.729Z" fill="#FF9900"/>
</g>
<defs>
<clipPath id="clip0_6744_65568">
<rect width="72" height="43.0531" fill="white" transform="translate(12 11.3132)"/>
</clipPath>
</defs>
</svg>
