<svg width="96" height="65" viewBox="0 0 96 65" fill="none" xmlns="http://www.w3.org/2000/svg">
<rect width="96" height="64" transform="translate(0 0.839844)" fill="white"/>
<g clip-path="url(#clip0_6744_65616)">
<path d="M19.7142 28.9733C19.404 29.5936 19.5585 30.1101 19.9725 30.1101C20.3864 30.1101 21.0061 29.6449 21.3156 29.0253C21.6251 28.4056 21.4713 27.8885 21.0573 27.8885C20.644 27.8365 20.0237 28.3536 19.7142 28.9733ZM23.2795 26.7517C23.0213 27.527 22.608 28.3543 22.1427 28.9733C21.2129 30.3164 19.9211 31.1437 19.2489 30.8854C18.5254 30.5752 18.7324 29.2322 19.6103 27.8878C19.8053 27.5901 20.0303 27.3131 20.2818 27.0612L19.4033 27.2169C16.3537 30.9893 15.0561 35.8464 15.2702 40.1871C13.4619 39.4636 12.1701 37.7066 12.015 35.485C11.7568 31.5583 14.8569 27.5277 18.99 26.4941C20.5407 26.1328 22.0395 26.2359 23.2723 26.7524L23.2795 26.7517Z" fill="#C40022"/>
<path d="M22.1497 37.3452L21.2199 37.9135C21.168 36.9837 20.9617 36.0534 20.5997 35.2779C19.6699 33.2626 18.016 33.1076 16.9312 34.9166C16.2596 36.0534 15.9494 37.6547 16.0526 39.1989C17.1894 39.5603 18.5332 39.6122 19.9281 39.2508C24.0158 38.2173 27.1626 34.1873 26.9031 30.2599C26.7474 26.7977 24.0092 24.5761 20.599 24.7824C20.2888 25.1438 19.9787 25.454 19.6692 25.816C21.6845 25.5577 23.2864 25.9717 24.3194 26.7977C20.7022 31.965 21.1673 34.8582 22.1491 37.3387C22.1491 37.2868 22.1491 37.2868 22.1491 37.3387L22.1497 37.3452ZM55.8911 31.5057C56.7696 31.5057 57.3834 31.7133 57.6994 31.867L57.3892 33.4242C57.0279 33.2166 56.4594 33.0109 55.7866 33.0109C55.2701 33.0109 54.9081 33.2186 54.9081 33.6312C54.9081 33.8895 55.1664 34.1477 55.7347 34.4065C56.4582 34.7679 57.3373 35.3363 57.3373 36.3186C57.3373 36.9902 57.1296 37.5073 56.717 37.9212C56.1487 38.4896 55.2247 38.7997 54.1334 38.7997C53.3068 38.7997 52.4282 38.5415 52.0149 38.2314L52.3251 36.6742C52.7904 36.9844 53.6682 37.2945 54.3404 37.2945C54.8569 37.2945 55.219 37.0362 55.219 36.6742C55.219 36.3122 54.9607 36.1059 54.3404 35.7957C53.3587 35.2792 52.8481 34.6589 52.8481 33.9355C52.8481 32.4432 54.0809 31.5069 55.8976 31.5069L55.8911 31.5057ZM44.3678 31.5057C44.8614 31.5069 45.351 31.5943 45.8146 31.7639L45.5045 33.4171C45.1943 33.2614 44.8329 33.1589 44.3677 33.1589C42.8753 33.1589 41.991 34.4566 41.991 35.6906C41.991 36.7241 42.7145 37.1374 43.3341 37.1374C43.9024 37.1374 44.4189 37.0337 45.0392 36.6722L44.729 38.3773C44.2638 38.585 43.4963 38.7387 42.7657 38.7387C40.9573 38.7387 39.82 37.6019 39.82 35.8968C39.82 33.4163 41.7834 31.5041 44.367 31.5041L44.3678 31.5057ZM35.9978 33.469C35.4294 34.0374 35.016 35.0716 35.016 35.8976C35.016 36.6211 35.2743 37.0863 35.7395 37.0863C36.5148 37.0863 37.1346 36.3109 37.3927 35.1229L37.5484 34.3476C37.6004 34.0893 37.6004 33.8823 37.6004 33.7792C37.6004 33.2627 37.3421 33.0039 36.8769 33.0039C36.5155 33.0558 36.2566 33.2115 35.9983 33.4691L35.9978 33.469ZM36.7213 38.6363L36.7732 38.3262C36.8251 38.0679 37.0314 37.6546 37.1346 37.5508C37.1865 37.4989 37.1346 37.3951 37.0826 37.3951C37.0307 37.3432 36.9269 37.3951 36.9269 37.4471V37.499C36.875 37.6547 36.8231 38.0155 36.5136 38.2743C36.1003 38.6357 35.5319 38.8946 34.911 38.8946C33.516 38.8946 32.8957 37.6618 32.8957 36.466C32.8957 35.071 33.4641 33.676 34.3426 32.7975C35.0896 32.0325 36.1152 31.6036 37.1845 31.6089C38.0111 31.6089 38.6314 31.8671 39.0447 32.3324C39.613 33.0558 39.5612 34.0894 39.406 34.8641L38.6825 38.7908L36.7192 38.6351L36.7213 38.6363ZM60.7476 37.2414C61.8325 37.2414 62.6597 35.6842 62.6597 34.3476C62.6597 34.0374 62.6078 33.2108 61.8331 33.2108C61.0585 33.2108 60.3863 34.0893 60.1799 35.4324C60.0242 35.8457 59.8186 37.2407 60.7483 37.2407L60.7476 37.2414ZM62.5559 31.5057C63.951 31.5057 64.8295 32.5392 64.8295 34.1919C64.8295 35.897 64.0029 37.654 62.5559 38.4288C61.4192 39.0491 60.3856 38.894 59.8698 38.4807C59.766 38.3769 59.7141 38.1194 59.7141 38.0155C59.7141 37.9636 59.6103 37.9117 59.5583 37.9636C59.5064 37.9636 59.4546 38.0673 59.4546 38.1193C59.5583 38.275 59.6103 38.4295 59.6103 38.5845L59.145 40.9099H57.0785L58.8303 31.6095H60.6386L60.5349 31.9197C60.4311 32.4362 60.2766 32.6432 60.1735 32.7463C60.1216 32.7983 60.1735 32.902 60.2254 32.902C60.2774 32.954 60.3811 32.954 60.3811 32.8501C60.4331 32.6944 60.5368 32.3336 60.8464 32.0748C61.3629 31.7134 61.9312 31.5064 62.5515 31.5064L62.5559 31.5057ZM47.1604 29.1803H49.227L48.1421 34.7603L50.8802 31.6082H53.1019L50.26 34.8121L52.017 38.5845H49.7947L48.1416 34.916L47.4181 38.6364H45.3437L47.152 29.1803H47.1604ZM33.2591 31.4537C33.3629 31.4537 33.5173 31.4537 33.6204 31.5057L33.2071 33.521C33.1552 33.521 32.9995 33.469 32.897 33.469C31.5019 33.469 30.9336 34.8641 30.7266 36.0008L30.2101 38.6869H28.1494L29.4925 31.6147H31.3008L31.1971 32.0799C31.0933 32.5451 30.9894 32.8034 30.8869 32.9065C30.8349 32.9584 30.8869 33.0622 30.9388 33.0622C30.9907 33.0622 31.0945 33.0622 31.0945 33.0103C31.1465 32.8546 31.1983 32.545 31.5078 32.2349C32.0243 31.7697 32.6446 31.4596 33.2649 31.4596L33.2591 31.4537ZM82.0372 33.5722C82.0372 33.2109 81.7271 33.0039 81.3137 33.0039C80.6422 33.0039 80.125 33.4172 79.8668 33.9337C79.6592 34.2951 79.6086 34.347 79.4535 34.4502C79.4016 34.5021 79.4016 34.6059 79.4535 34.6059C79.5055 34.6578 79.5573 34.6578 79.6093 34.6578C79.765 34.5021 79.765 34.3996 80.3327 34.3996C81.1593 34.3477 81.6758 34.2439 81.9353 33.9863C81.9873 33.8825 82.0391 33.7787 82.0391 33.573L82.0372 33.5722ZM79.1953 35.7426C79.4029 35.8983 79.5055 36.1559 79.5055 36.2591C79.5574 36.4148 79.6093 36.5174 79.6612 36.6205C79.9194 36.9818 80.3847 37.137 81.0043 37.137C81.8828 37.137 82.6069 36.9293 83.4329 36.4654L83.1227 38.1705C82.141 38.687 80.9523 38.7389 80.5391 38.7389C78.627 38.7389 77.4895 37.654 77.4895 35.7932C77.4895 34.7084 77.9028 33.6229 78.5744 32.7956C79.3497 31.9171 80.3827 31.4006 81.572 31.4006C83.0188 31.4006 84.0006 32.2272 84.0006 33.519C84.0006 34.0873 83.7929 34.6038 83.4322 34.9659C82.8119 35.5861 81.6752 35.8957 79.97 35.8957C79.5567 35.8957 79.4535 35.688 79.4017 35.5343C79.3498 35.4824 79.246 35.4824 79.246 35.5343C79.1422 35.5862 79.1422 35.69 79.1941 35.7419L79.1953 35.7426ZM76.4053 31.5057C76.9218 31.5057 77.4902 31.6094 77.8522 31.7639L77.542 33.4171C77.2319 33.2614 76.8705 33.1589 76.4052 33.1589C74.9129 33.1589 74.0286 34.4566 74.0286 35.6906C74.0286 36.7241 74.752 37.1374 75.3717 37.1374C75.94 37.1374 76.4565 37.0337 77.0768 36.6722L76.7667 38.3773C76.3015 38.585 75.5339 38.7387 74.8033 38.7387C72.995 38.7387 71.8576 37.6019 71.8576 35.8968C71.8576 33.4163 73.821 31.5041 76.4047 31.5041L76.4053 31.5057ZM68.0334 33.469C67.4651 34.0374 67.0517 35.0716 67.0517 35.8976C67.0517 36.6211 67.31 37.0863 67.7752 37.0863C68.5505 37.0863 69.1702 36.3109 69.4284 35.1229L69.5841 34.3476C69.636 34.0893 69.636 33.8823 69.636 33.7792C69.636 33.2627 69.3778 33.0039 68.9125 33.0039C68.5783 33.0636 68.2712 33.2263 68.034 33.4691L68.0334 33.469ZM68.8088 38.6363L68.8607 38.3262C68.9126 38.0679 69.1709 37.6546 69.2221 37.5508C69.274 37.4989 69.2221 37.3951 69.1701 37.3951C69.1182 37.3432 69.0144 37.3951 69.0144 37.4471V37.499C68.9625 37.6547 68.9106 38.0155 68.6011 38.2743C68.1878 38.6357 67.6194 38.8946 66.9985 38.8946C65.6035 38.8946 64.9832 37.6618 64.9832 36.466C64.9832 35.071 65.5516 33.676 66.4301 32.7975C67.1771 32.0325 68.2027 31.6036 69.272 31.6089C70.0986 31.6089 70.7189 31.8671 71.1322 32.3324C71.7005 33.0558 71.6487 34.0894 71.4935 34.8641L70.77 38.7908L68.8088 38.6363Z" fill="black"/>
</g>
<defs>
<clipPath id="clip0_6744_65616">
<rect width="72" height="16.1407" fill="white" transform="translate(12 24.7695)"/>
</clipPath>
</defs>
</svg>
