<svg width="96" height="65" viewBox="0 0 96 65" fill="none" xmlns="http://www.w3.org/2000/svg">
<rect width="96" height="64" transform="translate(0 0.839844)" fill="white"/>
<g clip-path="url(#clip0_6744_65610)">
<g clip-path="url(#clip1_6744_65610)">
<path d="M47.9995 34.7317V40.9434C58.503 40.9434 66.6912 30.7787 63.2465 19.767C61.7501 14.967 57.9101 11.127 53.1101 9.63048C42.0983 6.18578 31.9336 14.374 31.9336 24.8775H38.1454C38.1454 18.2705 44.6677 13.1881 51.6136 15.7011C54.183 16.6328 56.2442 18.694 57.176 21.2634C59.7171 28.1811 54.6065 34.7317 47.9995 34.7317L48.0277 28.5481H41.8159V34.7317H47.9995ZM41.8159 39.5034H37.0724V34.7317H41.8442L41.8159 39.5034ZM37.0724 34.7317H33.063V30.7505H37.0442V34.7317H37.0724Z" fill="#0080FF"/>
<path d="M21.4579 47.2399C20.6391 46.6752 19.6509 46.3928 18.465 46.3928H15.9238V54.4964H18.4932C19.6791 54.4964 20.6674 54.1858 21.4862 53.5928C21.9379 53.2823 22.2768 52.8305 22.5309 52.294C22.785 51.7576 22.8979 51.1081 22.8979 50.374C22.8979 49.6681 22.785 49.0187 22.5309 48.4823C22.2485 47.974 21.9097 47.5223 21.4579 47.2399ZM17.4203 47.7764H18.2109C19.1144 47.7764 19.8485 47.9458 20.385 48.3128C21.0062 48.6799 21.3168 49.3858 21.3168 50.4305C21.3168 51.4752 21.0062 52.2376 20.385 52.6328C19.8485 52.9999 19.1144 53.1693 18.2109 53.1693H17.4203V47.7764ZM23.9144 54.4964H25.3544V48.7928H23.9144V54.4964ZM24.6485 46.2799C24.3944 46.2799 24.1968 46.3646 24.0274 46.534C23.8579 46.7034 23.7732 46.9011 23.7732 47.1552C23.7732 47.4093 23.8579 47.607 24.0274 47.7764C24.1968 47.9458 24.4227 48.0305 24.6485 48.0305C24.8744 48.0305 25.1003 47.9458 25.2697 47.7764C25.4391 47.607 25.5238 47.3811 25.5238 47.1552C25.5238 46.9011 25.4391 46.7034 25.2697 46.534C25.1003 46.3646 24.9027 46.2799 24.6485 46.2799ZM30.5779 49.2728C30.1544 48.8776 29.6462 48.6517 29.1379 48.6517C28.3474 48.6517 27.6979 48.934 27.1897 49.4705C26.6815 50.007 26.4274 50.6846 26.4274 51.5317C26.4274 52.3505 26.6815 53.0281 27.1897 53.5928C27.6979 54.1293 28.3756 54.4117 29.1662 54.4117C29.7309 54.4117 30.2109 54.2705 30.5779 53.9599V54.1011C30.5779 54.5811 30.4368 54.9481 30.2109 55.2023C29.9568 55.4564 29.6179 55.5976 29.1662 55.5976C28.4885 55.5976 28.0932 55.3434 27.585 54.6658L26.5968 55.5976L26.625 55.6258C26.8227 55.9364 27.1615 56.2187 27.585 56.5011C28.0085 56.7834 28.545 56.9246 29.1944 56.9246C30.0415 56.9246 30.7474 56.6705 31.2556 56.134C31.7638 55.6258 32.0179 54.9199 32.0179 54.0446V48.8493H30.6062V49.2728H30.5779ZM30.2109 52.6328C29.9568 52.9152 29.6462 53.0564 29.2227 53.0564C28.7991 53.0564 28.4885 52.9152 28.2344 52.6328C27.9803 52.3505 27.8674 51.9834 27.8674 51.5034C27.8674 51.0517 27.9803 50.6564 28.2344 50.374C28.4885 50.0917 28.7991 49.9505 29.2227 49.9505C29.6462 49.9505 29.9568 50.0917 30.2109 50.374C30.465 50.6564 30.5779 51.0517 30.5779 51.5034C30.5779 51.9834 30.4368 52.3505 30.2109 52.6328ZM33.2321 54.4964H34.6721V48.7928H33.2321V54.4964ZM33.9662 46.2799C33.7121 46.2799 33.5144 46.3646 33.345 46.534C33.1756 46.7034 33.0909 46.9011 33.0909 47.1552C33.0909 47.4093 33.1756 47.607 33.345 47.7764C33.5144 47.9458 33.7403 48.0305 33.9662 48.0305C34.2203 48.0305 34.4179 47.9458 34.5874 47.7764C34.7568 47.607 34.8415 47.3811 34.8415 47.1552C34.8415 46.9011 34.7568 46.7034 34.5874 46.534C34.4179 46.3646 34.1921 46.2799 33.9662 46.2799ZM37.8062 47.2399H36.3944V48.7928H35.5756V50.0917H36.3944V52.4634C36.3944 53.1976 36.5356 53.734 36.8462 54.0446C37.1285 54.3552 37.665 54.4964 38.3991 54.4964C38.625 54.4964 38.8791 54.4964 39.105 54.4681H39.1615V53.1693L38.6815 53.1976C38.3427 53.1976 38.1168 53.1411 38.0038 53.0281C37.8909 52.9152 37.8344 52.6611 37.8344 52.2658V50.0917H39.1615V48.7928H37.8344V47.2399H37.8062ZM44.1027 49.2164C43.6791 48.8493 43.0579 48.6517 42.3238 48.6517C41.8438 48.6517 41.3921 48.7646 40.9968 48.9623C40.6297 49.1599 40.2627 49.4705 40.0085 49.8658L40.0368 49.894L40.9685 50.7693C41.3356 50.1764 41.7591 49.9505 42.3238 49.9505C42.6344 49.9505 42.8603 50.0352 43.0579 50.1764C43.2556 50.3458 43.3403 50.5434 43.3403 50.7976V51.0799C42.9732 50.967 42.6344 50.9105 42.2956 50.9105C41.5897 50.9105 40.9968 51.0799 40.5732 51.4187C40.1215 51.7576 39.9238 52.2376 39.9238 52.8587C39.9238 53.3952 40.1215 53.8187 40.4885 54.1576C40.8556 54.4681 41.3356 54.6376 41.8721 54.6376C42.4085 54.6376 42.945 54.4117 43.3968 54.0446V54.5246H44.8085V50.854C44.7521 50.1481 44.5262 49.5834 44.1027 49.2164ZM41.5332 52.3223C41.7027 52.2093 41.9285 52.1528 42.2109 52.1528C42.5497 52.1528 42.9168 52.2093 43.3121 52.3505V52.9152C43.0015 53.1976 42.5779 53.367 42.0697 53.367C41.8156 53.367 41.6179 53.3105 41.505 53.1976C41.3638 53.0846 41.3074 52.9434 41.3074 52.774C41.3074 52.5764 41.3638 52.4352 41.5332 52.3223ZM45.9097 54.4964H47.3497V46.3928H45.9097V54.4964ZM52.545 54.6376C50.2297 54.6376 48.3662 52.774 48.3662 50.4587C48.3662 48.1434 50.2297 46.2799 52.545 46.2799C54.8603 46.2799 56.7238 48.1434 56.7238 50.4587C56.7238 52.7458 54.8603 54.6376 52.545 54.6376ZM52.545 47.7481C51.0485 47.7481 49.8344 48.9623 49.8344 50.4587C49.8344 51.9552 51.0485 53.1693 52.545 53.1693C54.0415 53.1693 55.2556 51.9552 55.2556 50.4587C55.2556 48.9623 54.0415 47.7481 52.545 47.7481ZM61.8627 52.4634C61.6085 52.7458 61.3544 52.9999 61.1285 53.1411C60.9309 53.2823 60.6768 53.3387 60.3944 53.3387C59.9709 53.3387 59.6321 53.1976 59.3497 52.8587C59.0674 52.5481 58.9262 52.1246 58.9262 51.6446C58.9262 51.1646 59.0674 50.7411 59.3497 50.4305C59.6321 50.1199 59.9709 49.9505 60.3944 49.9505C60.8462 49.9505 61.3544 50.2328 61.7779 50.7411L62.7379 49.8376C62.1168 49.0187 61.3262 48.6517 60.3944 48.6517C59.6038 48.6517 58.9262 48.934 58.3615 49.4987C57.7968 50.0634 57.5144 50.7693 57.5144 51.6164C57.5144 52.4634 57.7968 53.1976 58.3615 53.7623C58.9262 54.327 59.6038 54.6093 60.3944 54.6093C61.4391 54.6093 62.2862 54.1576 62.8509 53.3387L61.8627 52.4634ZM67.7638 49.5834C67.5662 49.3011 67.2838 49.0752 66.945 48.9058C66.6062 48.7364 66.2109 48.6517 65.7591 48.6517C64.9685 48.6517 64.2909 48.934 63.8109 49.527C63.3309 50.1199 63.0768 50.8258 63.0768 51.6728C63.0768 52.5481 63.3309 53.254 63.8674 53.7905C64.3756 54.327 65.0815 54.6093 65.9568 54.6093C66.9168 54.6093 67.7356 54.214 68.3285 53.4517L68.3568 53.4234L67.425 52.5199C67.3403 52.6328 67.2274 52.7458 67.1144 52.8587C66.9732 52.9999 66.8321 53.0846 66.6909 53.1693C66.465 53.2823 66.2391 53.3387 65.9568 53.3387C65.5615 53.3387 65.2227 53.2258 64.9685 52.9999C64.7427 52.774 64.6015 52.4917 64.545 52.1246H68.3568V51.5881C68.3568 51.2211 68.3003 50.854 68.2156 50.5152C68.1309 50.1764 67.9615 49.8658 67.7638 49.5834ZM64.6297 50.9387C64.6862 50.6564 64.8274 50.4305 64.9968 50.2611C65.1944 50.0634 65.4485 49.9787 65.7591 49.9787C66.0979 49.9787 66.3803 50.0917 66.5497 50.2611C66.7191 50.4305 66.8038 50.6564 66.8321 50.9387H64.6297ZM73.2979 49.2164C72.8744 48.8493 72.2532 48.6517 71.5191 48.6517C71.0391 48.6517 70.5874 48.7646 70.1921 48.9623C69.825 49.1599 69.4579 49.4705 69.2038 49.8658L69.2321 49.894L70.1638 50.7693C70.5309 50.1764 70.9544 49.9505 71.5191 49.9505C71.8297 49.9505 72.0556 50.0352 72.2532 50.1764C72.4509 50.3458 72.5356 50.5434 72.5356 50.7976V51.0799C72.1685 50.967 71.8297 50.9105 71.4909 50.9105C70.785 50.9105 70.1921 51.0799 69.7685 51.4187C69.3168 51.7576 69.1191 52.2376 69.1191 52.8587C69.1191 53.3952 69.3168 53.8187 69.6838 54.1576C70.0509 54.4681 70.5309 54.6376 71.0674 54.6376C71.6038 54.6376 72.1403 54.4117 72.5921 54.0446V54.5246H74.0038V50.854C73.9474 50.1481 73.7215 49.5834 73.2979 49.2164ZM70.7285 52.3223C70.898 52.2093 71.1238 52.1528 71.4062 52.1528C71.745 52.1528 72.1121 52.2093 72.5074 52.3505V52.9152C72.1968 53.1976 71.7732 53.367 71.265 53.367C71.0109 53.367 70.8132 53.3105 70.7003 53.1976C70.5591 53.0846 70.5027 52.9434 70.5027 52.774C70.5027 52.5764 70.5874 52.4352 70.7285 52.3223ZM79.4815 49.3293C79.0862 48.8776 78.5215 48.6517 77.8156 48.6517C77.2509 48.6517 76.7709 48.8211 76.4321 49.1317V48.7646H75.0203V54.4681H76.4603V51.3058C76.4603 50.8823 76.5732 50.5152 76.7709 50.2893C76.9685 50.0352 77.2509 49.9223 77.6179 49.9223C77.9568 49.9223 78.1827 50.0352 78.3803 50.2611C78.5497 50.487 78.6627 50.7693 78.6627 51.1646V54.4681H80.1027V51.1928C80.0744 50.4023 79.8768 49.7811 79.4815 49.3293Z" fill="#0080FF"/>
</g>
</g>
<defs>
<clipPath id="clip0_6744_65610">
<rect width="72" height="48" fill="white" transform="translate(12 8.83984)"/>
</clipPath>
<clipPath id="clip1_6744_65610">
<rect width="64.1506" height="48" fill="white" transform="translate(15.9238 8.83984)"/>
</clipPath>
</defs>
</svg>
