<svg width="121" height="109" viewBox="0 0 121 109" fill="none" xmlns="http://www.w3.org/2000/svg">
<g id="bd_healthcare-personalized-care.svg" clip-path="url(#clip0_7211_71974)">
<path id="Vector" d="M44.9784 0.290039H27.3804C26.2145 0.291626 25.0968 0.755496 24.2723 1.57994C23.4479 2.40438 22.984 3.5221 22.9824 4.68804V11.288H27.3804V6.89004C27.3804 6.30603 27.6124 5.74595 28.0254 5.33299C28.4383 4.92003 28.9984 4.68804 29.5824 4.68804H42.7824C43.3654 4.68963 43.9239 4.92232 44.3356 5.33511C44.7473 5.74789 44.9784 6.30707 44.9784 6.89004V11.288H49.3764V4.68804C49.3748 3.5221 48.911 2.40438 48.0865 1.57994C47.2621 0.755496 46.1444 0.291626 44.9784 0.290039Z" fill="#EAEAEA"/>
<path id="Vector_2" d="M5.37847 11.2939H66.9805C68.1474 11.2955 69.2661 11.7602 70.0907 12.586C70.9153 13.4117 71.3785 14.531 71.3785 15.6979V59.6899C71.3769 60.8559 70.913 61.9736 70.0886 62.798C69.2641 63.6225 68.1464 64.0864 66.9805 64.0879H5.37847C4.21253 64.0864 3.09481 63.6225 2.27037 62.798C1.44593 61.9736 0.982056 60.8559 0.980469 59.6899L0.980469 15.6919C0.982056 14.526 1.44593 13.4083 2.27037 12.5838C3.09481 11.7594 4.21253 11.2955 5.37847 11.2939Z" fill="#404243"/>
<path id="Vector_3" d="M47.1806 33.29H40.5806V26.69C40.5806 26.106 40.3486 25.5459 39.9356 25.133C39.5227 24.72 38.9626 24.488 38.3786 24.488H33.9806C33.3966 24.488 32.8365 24.72 32.4235 25.133C32.0106 25.5459 31.7786 26.106 31.7786 26.69V33.29H25.1786C24.5946 33.29 24.0345 33.522 23.6215 33.935C23.2086 34.3479 22.9766 34.908 22.9766 35.492V39.89C22.9766 40.474 23.2086 41.0341 23.6215 41.4471C24.0345 41.86 24.5946 42.092 25.1786 42.092H31.7786V48.692C31.7786 48.9809 31.8356 49.267 31.9463 49.5338C32.057 49.8006 32.2193 50.043 32.4239 50.247C32.6284 50.451 32.8712 50.6126 33.1383 50.7226C33.4055 50.8326 33.6917 50.8888 33.9806 50.888H38.3786C38.668 50.8888 38.9546 50.8324 39.2222 50.722C39.4897 50.6117 39.7327 50.4495 39.9374 50.2449C40.142 50.0402 40.3042 49.7972 40.4146 49.5296C40.5249 49.2621 40.5814 48.9754 40.5806 48.686V42.086H47.1806C47.7625 42.0845 48.3201 41.8526 48.7316 41.4411C49.1431 41.0296 49.375 40.472 49.3766 39.89V35.486C49.375 34.9041 49.1431 34.3465 48.7316 33.935C48.3201 33.5235 47.7625 33.2916 47.1806 33.29Z" fill="white"/>
<path id="Vector_4" d="M5.37847 11.2939C4.21253 11.2955 3.09481 11.7594 2.27037 12.5838C1.44593 13.4083 0.982056 14.526 0.980469 15.6919L0.980469 26.6899L16.3825 11.2939H5.37847ZM5.37847 64.0939H16.3825L0.980469 48.6859V59.6899C0.980459 60.8533 1.44135 61.9692 2.26224 62.7935C3.08314 63.6177 4.19717 64.0832 5.36047 64.0879L5.37847 64.0939ZM66.9985 11.2939H55.9765L71.3785 26.6899V15.6919C71.3769 14.526 70.913 13.4083 70.0886 12.5838C69.2641 11.7594 68.1464 11.2955 66.9805 11.2939H66.9985ZM66.9985 64.0939C68.1618 64.0892 69.2758 63.6237 70.0967 62.7995C70.9176 61.9752 71.3785 60.8593 71.3785 59.6959V48.6859L55.9765 64.0879L66.9985 64.0939Z" fill="#404243"/>
<path id="Vector_5" d="M118.659 39.9741H59.625V108.29H118.659V39.9741Z" fill="#404243"/>
<path id="Vector_6" d="M117.104 38.4141H58.0703V106.73H117.104V38.4141Z" fill="#404243"/>
<path id="Vector_7" d="M115.934 40.5801H56.9004V105.56H115.934V40.5801Z" fill="#404243"/>
<path id="Vector_8" fill-rule="evenodd" clip-rule="evenodd" d="M106.281 105.566L115.935 95.894L106.281 96.032V105.566Z" fill="#404243"/>
<path id="Vector_9" fill-rule="evenodd" clip-rule="evenodd" d="M118.832 40.5801H56.7261C56.1569 40.5785 55.6115 40.3517 55.209 39.9492C54.8065 39.5468 54.5797 39.0013 54.5781 38.4321V35.2641C54.5797 34.6949 54.8065 34.1495 55.209 33.747C55.6115 33.3445 56.1569 33.1177 56.7261 33.1161H79.4601C79.4275 32.8172 79.4115 32.5168 79.4121 32.2161C79.4121 29.9971 80.2936 27.8689 81.8628 26.2998C83.4319 24.7306 85.5601 23.8491 87.7791 23.8491C89.9982 23.8491 92.1264 24.7306 93.6955 26.2998C95.2646 27.8689 96.1461 29.9971 96.1461 32.2161C96.1467 32.5168 96.1306 32.8172 96.0981 33.1161H118.832C119.401 33.1177 119.947 33.3445 120.349 33.747C120.752 34.1495 120.979 34.6949 120.98 35.2641V38.4321C120.979 39.0013 120.752 39.5468 120.349 39.9492C119.947 40.3517 119.401 40.5785 118.832 40.5801ZM87.7761 28.9941C87.1381 28.9906 86.5134 29.1765 85.9812 29.5284C85.449 29.8802 85.0332 30.3822 84.7866 30.9706C84.54 31.559 84.4736 32.2074 84.5959 32.8336C84.7181 33.4598 85.0236 34.0356 85.4735 34.488C85.9233 34.9404 86.4974 35.249 87.1229 35.3748C87.7484 35.5006 88.3971 35.4379 88.9869 35.1945C89.5767 34.9512 90.081 34.5383 90.4358 34.008C90.7907 33.4778 90.9801 32.8541 90.9801 32.2161C90.9785 31.3637 90.6392 30.5466 90.0364 29.9438C89.4337 29.341 88.6166 29.0017 87.7641 29.0001L87.7761 28.9941Z" fill="#E9000E"/>
<path id="Vector_10" fill-rule="evenodd" clip-rule="evenodd" d="M118.832 40.5801H56.7261C56.1569 40.5785 55.6115 40.3517 55.209 39.9492C54.8065 39.5468 54.5797 39.0013 54.5781 38.4321H120.98C120.979 39.0013 120.752 39.5468 120.349 39.9492C119.947 40.3517 119.401 40.5785 118.832 40.5801Z" fill="#E9000E"/>
<path id="Vector_11" d="M74.157 70.6941C80.1117 70.6941 84.939 65.711 84.939 59.5641C84.939 53.4172 80.1117 48.4341 74.157 48.4341C68.2023 48.4341 63.375 53.4172 63.375 59.5641C63.375 65.711 68.2023 70.6941 74.157 70.6941Z" fill="#404243"/>
<g id="Clip path group">
<mask id="mask0_7211_71974" style="mask-type:luminance" maskUnits="userSpaceOnUse" x="63" y="48" width="22" height="23">
<g id="clip-path">
<path id="Vector_12" d="M74.157 70.6941C80.1117 70.6941 84.939 65.711 84.939 59.5641C84.939 53.4172 80.1117 48.4341 74.157 48.4341C68.2023 48.4341 63.375 53.4172 63.375 59.5641C63.375 65.711 68.2023 70.6941 74.157 70.6941Z" fill="white"/>
</g>
</mask>
<g mask="url(#mask0_7211_71974)">
<g id="Group">
<path id="Vector_13" d="M67.8584 67.088L71.7224 65.492C71.9264 65.402 72.0704 65.03 72.2444 64.826C72.2645 64.7768 72.2726 64.7236 72.2681 64.6706C72.2635 64.6177 72.2465 64.5666 72.2184 64.5215C72.1903 64.4764 72.1519 64.4386 72.1064 64.4113C72.0608 64.3839 72.0094 64.3677 71.9564 64.364H69.1964C68.608 64.3101 68.0302 64.1728 67.4804 63.956C67.0184 63.752 66.8804 63.494 67.1924 63.14C68.0084 62.036 69.6644 59.336 69.7184 56.54C69.7184 56.54 69.8084 52.298 74.0744 52.208C74.9684 52.1653 75.8534 52.4024 76.6062 52.8864C77.359 53.3703 77.9422 54.077 78.2744 54.908C78.5669 55.6004 78.7433 56.3363 78.7964 57.086C79.0483 59.2687 79.7931 61.3655 80.9744 63.218C81.0661 63.3889 81.0959 63.5862 81.0588 63.7764C81.0216 63.9667 80.9197 64.1383 80.7704 64.262C80.3579 64.472 79.8888 64.5436 79.4324 64.466H76.6724C76.4384 64.466 76.3244 64.814 76.4684 65.018C76.5983 65.1225 76.7345 65.2187 76.8764 65.306L80.0744 67.28C80.5152 67.542 80.8923 67.8986 81.1784 68.324C79.1762 69.9065 76.6985 70.767 74.1464 70.766C71.4864 70.7794 68.9116 69.8288 66.8984 68.09C66.9723 67.8613 67.0971 67.6523 67.2634 67.4788C67.4296 67.3052 67.6331 67.1716 67.8584 67.088Z" fill="#404243"/>
</g>
</g>
</g>
<path id="Vector_14" d="M111.17 56.4021H89.3535V58.2441H111.17V56.4021Z" fill="white"/>
<path id="Vector_15" d="M111.17 60.884H89.3535V62.726H111.17V60.884Z" fill="white"/>
<path id="Vector_16" d="M111.177 76.1118H63.3809V77.9538H111.177V76.1118Z" fill="white"/>
<path id="Vector_17" d="M111.177 80.5942H63.3809V82.4362H111.177V80.5942Z" fill="white"/>
<path id="Vector_18" d="M113.042 85.9458H65.2461V87.7878H113.042V85.9458Z" fill="white"/>
<path id="Vector_19" d="M113.042 90.4282H65.2461V92.2702H113.042V90.4282Z" fill="white"/>
</g>
<defs>
<clipPath id="clip0_7211_71974">
<rect width="120" height="108" fill="white" transform="translate(0.980469 0.290039)"/>
</clipPath>
</defs>
</svg>
