<svg width="121" height="109" viewBox="0 0 121 109" fill="none" xmlns="http://www.w3.org/2000/svg">
<g id="bd_industrial-predictive-maintenance.svg" clip-path="url(#clip0_7211_71864)">
<path id="Vector" d="M3.80664 66.1201H13.9406L22.3826 74.5621L29.7266 56.2081L46.8806 98.8021L68.2166 23.1001L77.4566 82.8781H87.8726L102.045 93.8641L109.857 83.2081H118.155" stroke="#EAEAEA" stroke-width="4.8" stroke-miterlimit="10" stroke-linecap="round"/>
<path id="Vector_2" d="M22.1605 82.7339C20.8552 82.7339 19.5792 82.3469 18.4938 81.6216C17.4084 80.8964 16.5625 79.8656 16.0629 78.6596C15.5634 77.4537 15.4327 76.1266 15.6874 74.8463C15.942 73.5661 16.5706 72.3901 17.4936 71.467C18.4167 70.544 19.5927 69.9154 20.873 69.6608C22.1532 69.4061 23.4803 69.5368 24.6863 70.0363C25.8923 70.5359 26.923 71.3818 27.6483 72.4672C28.3735 73.5525 28.7605 74.8286 28.7605 76.1339C28.7605 77.8844 28.0652 79.5631 26.8275 80.8008C25.5897 82.0386 23.911 82.7339 22.1605 82.7339Z" fill="#E9000E"/>
<path id="Vector_3" d="M22.1602 70.434C23.2875 70.434 24.3896 70.7683 25.3269 71.3947C26.2643 72.021 26.9949 72.9112 27.4263 73.9527C27.8577 74.9943 27.9706 76.1404 27.7506 77.2461C27.5307 78.3517 26.9878 79.3674 26.1907 80.1645C25.3935 80.9617 24.3779 81.5046 23.2722 81.7245C22.1665 81.9444 21.0204 81.8316 19.9789 81.4001C18.9373 80.9687 18.0471 80.2381 17.4208 79.3008C16.7945 78.3634 16.4602 77.2614 16.4602 76.134C16.4602 74.6223 17.0607 73.1725 18.1297 72.1035C19.1986 71.0346 20.6484 70.434 22.1602 70.434ZM22.1602 68.634C20.6768 68.634 19.2268 69.0739 17.9934 69.898C16.76 70.7221 15.7987 71.8935 15.2311 73.2639C14.6634 74.6344 14.5149 76.1424 14.8043 77.5972C15.0937 79.0521 15.808 80.3884 16.8569 81.4373C17.9058 82.4862 19.2421 83.2005 20.697 83.4899C22.1518 83.7793 23.6598 83.6308 25.0303 83.0631C26.4007 82.4955 27.5721 81.5342 28.3962 80.3008C29.2203 79.0674 29.6602 77.6174 29.6602 76.134C29.6586 74.1454 28.8679 72.2387 27.4617 70.8325C26.0555 69.4263 24.1488 68.6356 22.1602 68.634Z" fill="white"/>
<path id="Vector_4" d="M90.1293 90.1199C88.8239 90.1199 87.5479 89.7328 86.4625 89.0076C85.3772 88.2824 84.5312 87.2516 84.0317 86.0456C83.5322 84.8396 83.4015 83.5126 83.6561 82.2323C83.9108 80.9521 84.5394 79.776 85.4624 78.853C86.3854 77.93 87.5614 77.3014 88.8417 77.0467C90.122 76.7921 91.449 76.9228 92.655 77.4223C93.861 77.9219 94.8918 78.7678 95.617 79.8532C96.3422 80.9385 96.7293 82.2146 96.7293 83.5199C96.7293 85.2704 96.0339 86.9491 94.7962 88.1868C93.5585 89.4246 91.8797 90.1199 90.1293 90.1199Z" fill="#404243"/>
<path id="Vector_5" d="M90.1289 77.82C91.2563 77.82 92.3583 78.1543 93.2957 78.7806C94.233 79.407 94.9636 80.2972 95.395 81.3387C95.8264 82.3803 95.9393 83.5263 95.7194 84.632C95.4994 85.7377 94.9566 86.7534 94.1594 87.5505C93.3623 88.3477 92.3466 88.8906 91.2409 89.1105C90.1352 89.3304 88.9891 89.2175 87.9476 88.7861C86.9061 88.3547 86.0159 87.6241 85.3895 86.6868C84.7632 85.7494 84.4289 84.6474 84.4289 83.52C84.4289 82.0083 85.0294 80.5585 86.0984 79.4895C87.1674 78.4205 88.6172 77.82 90.1289 77.82ZM90.1289 76.02C88.6455 76.02 87.1955 76.4599 85.9621 77.284C84.7288 78.1081 83.7675 79.2794 83.1998 80.6499C82.6322 82.0203 82.4836 83.5283 82.773 84.9832C83.0624 86.4381 83.7767 87.7744 84.8256 88.8233C85.8745 89.8722 87.2109 90.5865 88.6657 90.8759C90.1206 91.1653 91.6286 91.0168 92.999 90.4491C94.3695 89.8815 95.5408 88.9202 96.3649 87.6868C97.189 86.4534 97.6289 85.0034 97.6289 83.52C97.6273 81.5314 96.8366 79.6246 95.4305 78.2185C94.0243 76.8123 92.1175 76.0216 90.1289 76.02Z" fill="white"/>
<path id="Vector_6" d="M68.2168 44.436C62.8566 44.4615 57.7051 42.3595 53.893 38.5912C50.0808 34.8229 47.9193 29.6961 47.8828 24.336C47.8828 18.943 50.0251 13.771 53.8385 9.95764C57.6519 6.14428 62.8239 4.00195 68.2168 4.00195C73.6097 4.00195 78.7818 6.14428 82.5951 9.95764C86.4085 13.771 88.5508 18.943 88.5508 24.336C88.5143 29.6961 86.3528 34.8229 82.5407 38.5912C78.7285 42.3595 73.577 44.4615 68.2168 44.436Z" fill="#E9000E"/>
<path id="Vector_7" d="M68.2164 5.13613C72.0035 5.18229 75.6924 6.34746 78.8189 8.48505C81.9453 10.6226 84.3698 13.6371 85.7872 17.1493C87.2046 20.6615 87.5516 24.5144 86.7845 28.2232C86.0175 31.9321 84.1706 35.3313 81.4764 37.9931C78.7821 40.6549 75.3608 42.4605 71.6429 43.1825C67.925 43.9046 64.0766 43.511 60.5819 42.0511C57.0871 40.5913 54.1022 38.1305 52.0027 34.9784C49.9031 31.8262 48.7827 28.1235 48.7824 24.3361C48.8142 19.2132 50.8793 14.3125 54.5237 10.712C58.1682 7.11145 63.0934 5.1058 68.2164 5.13613ZM68.2164 3.33613C62.618 3.31217 57.2385 5.50952 53.2579 9.44627C49.2773 13.383 47.0205 18.7378 46.9824 24.3361C46.9824 29.9677 49.2196 35.3687 53.2017 39.3508C57.1839 43.333 62.5848 45.5701 68.2164 45.5701C73.848 45.5701 79.249 43.333 83.2311 39.3508C87.2133 35.3687 89.4504 29.9677 89.4504 24.3361C89.4123 18.7378 87.1555 13.383 83.1749 9.44627C79.1943 5.50952 73.8149 3.31217 68.2164 3.33613Z" fill="white"/>
<path id="Vector_8" d="M61.5022 21.9179C61.9461 21.9172 62.3872 21.8484 62.8102 21.7139L65.3242 24.1799L68.0782 21.4619L65.5642 18.9779C65.8008 18.2398 65.8285 17.4505 65.6442 16.6976C65.46 15.9447 65.0709 15.2574 64.5202 14.7119C63.7218 13.922 62.6434 13.4798 61.5202 13.4819C60.8833 13.4834 60.2545 13.6248 59.6782 13.8959C59.6355 13.9151 59.5981 13.9445 59.5692 13.9814C59.5404 14.0183 59.521 14.0617 59.5127 14.1078C59.5045 14.1539 59.5076 14.2013 59.5218 14.2459C59.536 14.2906 59.5608 14.3311 59.5942 14.3639L62.2342 16.9799C62.33 17.0738 62.4061 17.1858 62.458 17.3094C62.51 17.4331 62.5368 17.5658 62.5368 17.6999C62.5368 17.834 62.51 17.9668 62.458 18.0904C62.4061 18.2141 62.33 18.3261 62.2342 18.4199C62.0371 18.606 61.7763 18.7097 61.5052 18.7097C61.2341 18.7097 60.9733 18.606 60.7762 18.4199L58.1302 15.8039C58.0963 15.7717 58.0553 15.7479 58.0105 15.7343C57.9657 15.7208 57.9183 15.7179 57.8722 15.7259C57.8259 15.7337 57.7821 15.7525 57.7445 15.7807C57.7069 15.8089 57.6767 15.8456 57.6562 15.8879C57.2783 16.6749 57.1549 17.56 57.3033 18.4202C57.4517 19.2805 57.8645 20.0731 58.4842 20.6879C59.2874 21.4818 60.3729 21.9242 61.5022 21.9179Z" fill="white"/>
<path id="Vector_9" d="M74.9358 26.754C74.49 26.7542 74.0468 26.823 73.6218 26.958L70.8438 24.21L68.0898 26.934L70.8738 29.682C70.6372 30.4201 70.6095 31.2094 70.7938 31.9623C70.9781 32.7152 71.3671 33.4025 71.9178 33.948C72.7163 34.7379 73.7947 35.1801 74.9178 35.178C75.5548 35.1765 76.1836 35.0351 76.7598 34.764C76.8026 34.7448 76.84 34.7154 76.8688 34.6785C76.8976 34.6416 76.917 34.5982 76.9253 34.5521C76.9336 34.506 76.9305 34.4586 76.9163 34.414C76.9021 34.3693 76.8772 34.3288 76.8438 34.296L74.1798 31.686C74.0841 31.5921 74.008 31.4801 73.956 31.3565C73.9041 31.2328 73.8773 31.1001 73.8773 30.966C73.8773 30.8319 73.9041 30.6991 73.956 30.5755C74.008 30.4518 74.0841 30.3398 74.1798 30.246C74.377 30.0599 74.6378 29.9562 74.9088 29.9562C75.1799 29.9562 75.4407 30.0599 75.6378 30.246L78.2838 32.862C78.3175 32.8946 78.3585 32.9187 78.4034 32.9323C78.4483 32.9458 78.4957 32.9485 78.5418 32.94C78.5882 32.9322 78.632 32.9134 78.6695 32.8852C78.7071 32.857 78.7374 32.8203 78.7578 32.778C79.1358 31.9911 79.2591 31.1059 79.1107 30.2457C78.9623 29.3854 78.5496 28.5928 77.9298 27.978C77.1319 27.1917 76.0561 26.7518 74.9358 26.754Z" fill="white"/>
<path id="Vector_10" d="M73.8025 20.58C73.8025 20.58 74.2645 20.976 74.6425 20.79C75.0205 20.604 76.2805 21.756 76.6645 22.032L76.4545 22.242C76.3882 22.3063 76.3356 22.3833 76.2996 22.4683C76.2637 22.5533 76.2452 22.6447 76.2452 22.737C76.2452 22.8293 76.2637 22.9207 76.2996 23.0057C76.3356 23.0907 76.3882 23.1677 76.4545 23.232C76.588 23.3635 76.768 23.4373 76.9555 23.4373C77.1429 23.4373 77.3229 23.3635 77.4565 23.232L79.1245 21.588C79.1899 21.5233 79.2419 21.4462 79.2774 21.3612C79.3129 21.2762 79.3312 21.1851 79.3312 21.093C79.3312 21.0009 79.3129 20.9098 79.2774 20.8248C79.2419 20.7398 79.1899 20.6627 79.1245 20.598C78.9909 20.4665 78.8109 20.3927 78.6235 20.3927C78.436 20.3927 78.256 20.4665 78.1225 20.598L77.8465 20.874C77.6185 20.562 77.2465 20.028 77.2825 19.848C77.4865 19.074 75.8845 17.244 75.8845 17.244C71.9125 13.32 69.2845 13.41 68.0005 13.842C67.4965 14.016 67.5865 14.124 68.1145 14.214C71.9425 14.874 72.4165 17.106 71.7685 17.964C71.5165 18.294 71.8825 18.696 71.8825 18.696L72.0205 18.828L65.5645 25.188C65.6537 25.2398 65.7363 25.3023 65.8105 25.374L66.8965 26.448C66.9684 26.522 67.0309 26.6046 67.0825 26.694L73.5805 20.31L73.8025 20.58Z" fill="white"/>
<path id="Vector_11" d="M65.3786 25.806C65.2583 25.6917 65.1002 25.6255 64.9343 25.62C64.7684 25.6145 64.6063 25.67 64.4786 25.776L57.2786 32.136C57.2179 32.1856 57.1685 32.2476 57.1337 32.3178C57.0989 32.3881 57.0794 32.4649 57.0765 32.5432C57.0737 32.6216 57.0876 32.6996 57.1172 32.7721C57.1469 32.8447 57.1917 32.9101 57.2486 32.964L59.2046 34.896C59.3165 35.0041 59.466 35.0646 59.6216 35.0646C59.7772 35.0646 59.9267 35.0041 60.0386 34.896L66.5006 27.78C66.607 27.6548 66.663 27.4944 66.6574 27.3302C66.6519 27.166 66.5853 27.0097 66.4706 26.892L65.3786 25.806Z" fill="white"/>
</g>
<defs>
<clipPath id="clip0_7211_71864">
<rect width="120" height="108" fill="white" transform="translate(0.980469 0.780029)"/>
</clipPath>
</defs>
</svg>
