<svg width="121" height="108" viewBox="0 0 121 108" fill="none" xmlns="http://www.w3.org/2000/svg">
<g id="bd_industrial-supply-chain-management.svg" clip-path="url(#clip0_7211_71824)">
<path id="Vector" d="M69.2387 83.7661H65.6387" stroke="#404243" stroke-width="1.8" stroke-miterlimit="10"/>
<path id="Vector_2" d="M62.6867 83.7661H23.9688" stroke="#404243" stroke-width="1.8" stroke-miterlimit="10" stroke-dasharray="7.09 2.96"/>
<path id="Vector_3" d="M22.4926 83.766H18.8926V80.166" stroke="#404243" stroke-width="1.8" stroke-miterlimit="10"/>
<path id="Vector_4" d="M18.8926 77.34V59.52" stroke="#404243" stroke-width="1.8" stroke-miterlimit="10" stroke-dasharray="6.79 2.83"/>
<path id="Vector_5" d="M18.8926 58.1039V54.9599V54.5039H22.4926" stroke="#404243" stroke-width="1.8" stroke-miterlimit="10"/>
<path id="Vector_6" d="M25.5938 54.5039H97.8997" stroke="#404243" stroke-width="1.8" stroke-miterlimit="10" stroke-dasharray="7.45 3.1"/>
<path id="Vector_7" d="M99.4492 54.5041H103.049V50.9041" stroke="#404243" stroke-width="1.8" stroke-miterlimit="10"/>
<path id="Vector_8" d="M103.049 48.1381V30.6841" stroke="#404243" stroke-width="1.8" stroke-miterlimit="10" stroke-dasharray="6.65 2.77"/>
<path id="Vector_9" d="M103.049 29.3041V25.7041H99.4492" stroke="#404243" stroke-width="1.8" stroke-miterlimit="10"/>
<path id="Vector_10" d="M96.6645 25.7041H50.7285" stroke="#404243" stroke-width="1.8" stroke-miterlimit="10" stroke-dasharray="6.68 2.78"/>
<path id="Vector_11" d="M49.3363 25.7041H45.7363" stroke="#404243" stroke-width="1.8" stroke-miterlimit="10"/>
<path id="Vector_12" d="M67.1387 76.5901L79.5707 83.7661L67.1387 90.9481V76.5901Z" fill="#404243"/>
<path id="Vector_13" d="M86.0149 51.918H34.9609V57.624H86.0149V51.918Z" fill="white"/>
<path id="Vector_14" d="M37.6055 56.586V63.252H54.6095L56.4095 47.196H43.9535L43.0595 49.86L44.0255 52.26L41.4335 54.66L37.6055 56.586Z" fill="#404243"/>
<path id="Vector_15" d="M46.1095 67.422C48.4125 67.422 50.2795 65.5551 50.2795 63.252C50.2795 60.949 48.4125 59.082 46.1095 59.082C43.8064 59.082 41.9395 60.949 41.9395 63.252C41.9395 65.5551 43.8064 67.422 46.1095 67.422Z" fill="#E9000E"/>
<path id="Vector_16" d="M46.1094 64.752C46.9378 64.752 47.6094 64.0804 47.6094 63.252C47.6094 62.4235 46.9378 61.752 46.1094 61.752C45.2809 61.752 44.6094 62.4235 44.6094 63.252C44.6094 64.0804 45.2809 64.752 46.1094 64.752Z" fill="white"/>
<path id="Vector_17" d="M43.0614 49.8601L41.4414 54.6961H46.6134V49.8601H43.0614Z" fill="#404243"/>
<path id="Vector_18" d="M54.6094 63.252H60.3694L62.1694 48.894L60.3694 40.584H54.6094V63.252Z" fill="#E9000E"/>
<path id="Vector_19" d="M83.1351 63.252H60.3711V40.584H83.1351V63.252Z" fill="#E9000E"/>
<path id="Vector_20" d="M75.3104 67.3501C77.5805 66.982 79.1224 64.8434 78.7543 62.5733C78.3862 60.3032 76.2476 58.7614 73.9775 59.1294C71.7074 59.4975 70.1656 61.6362 70.5337 63.9062C70.9017 66.1763 73.0404 67.7181 75.3104 67.3501Z" fill="#E9000E"/>
<path id="Vector_21" d="M73.1328 63.252C73.1328 63.5486 73.2208 63.8386 73.3856 64.0853C73.5504 64.332 73.7847 64.5242 74.0588 64.6378C74.3329 64.7513 74.6345 64.781 74.9255 64.7231C75.2164 64.6653 75.4837 64.5224 75.6935 64.3126C75.9033 64.1028 76.0461 63.8356 76.104 63.5446C76.1619 63.2536 76.1322 62.952 76.0186 62.6779C75.9051 62.4038 75.7128 62.1696 75.4662 62.0047C75.2195 61.8399 74.9295 61.752 74.6328 61.752C74.235 61.752 73.8535 61.91 73.5722 62.1913C73.2909 62.4726 73.1328 62.8541 73.1328 63.252Z" fill="white"/>
<path id="Vector_22" d="M98.3635 92.0039L93.9715 94.3379C93.7375 94.4519 93.5035 94.6319 93.2695 94.7459C95.9375 96.9167 99.2681 98.1087 102.708 98.1239C106.153 98.1532 109.5 96.9774 112.17 94.7999C111.913 94.619 111.639 94.4623 111.354 94.3319L106.554 92.1179C106.261 91.9707 106.014 91.7465 105.84 91.4695C105.666 91.1925 105.57 90.8732 105.564 90.5459V88.6259C105.713 88.4632 105.85 88.2886 105.972 88.1039C106.593 87.2488 107.084 86.3067 107.43 85.3079C107.73 85.2283 107.999 85.0565 108.197 84.8165C108.395 84.5764 108.513 84.2804 108.534 83.9699V82.0499C108.537 81.8514 108.497 81.6545 108.416 81.4731C108.335 81.2918 108.215 81.1303 108.066 80.9999V78.1439C108.066 78.1439 108.666 73.8359 102.534 73.8359C96.4015 73.8359 97.0015 78.1439 97.0015 78.1439V80.9399C96.8564 81.0741 96.7401 81.2364 96.6597 81.4169C96.5792 81.5974 96.5363 81.7923 96.5335 81.9899V83.9099C96.5459 84.1448 96.6098 84.3741 96.7208 84.5815C96.8317 84.7889 96.987 84.9693 97.1755 85.1099C97.5565 86.4167 98.211 87.6274 99.0955 88.6619V90.3539C99.3715 91.0739 99.0055 91.5959 98.3635 92.0039Z" fill="#E9000E"/>
<path id="Vector_23" d="M102.556 69.5999C99.6294 69.5915 96.7709 70.4816 94.3666 72.15C91.9624 73.8184 90.1282 76.1846 89.112 78.929C88.0958 81.6733 87.9465 84.6635 88.6844 87.4953C89.4223 90.3272 91.0117 92.8644 93.2378 94.7639C93.4288 94.5946 93.6455 94.4569 93.8798 94.3559L98.0798 92.0279C98.3553 91.8753 98.5894 91.6578 98.7619 91.3944C98.9344 91.1309 99.0401 90.8294 99.0698 90.5159V88.7159C98.245 87.6747 97.6666 86.4604 97.3778 85.1639C97.1894 85.0262 97.0366 84.8454 96.9323 84.6367C96.8279 84.4279 96.7749 84.1973 96.7778 83.9639V82.0439C96.7777 81.6552 96.9233 81.2806 97.1858 80.9939V78.1979C97.1858 78.1979 96.6638 73.8899 102.43 73.8899C108.196 73.8899 107.674 78.1979 107.674 78.1979V80.9939C107.811 81.1313 107.918 81.2955 107.988 81.4762C108.058 81.6569 108.09 81.8502 108.082 82.0439V83.9639C108.095 84.2755 107.997 84.5815 107.804 84.8269C107.611 85.0722 107.338 85.2407 107.032 85.3019C106.696 86.2937 106.226 87.2345 105.634 88.0979C105.491 88.2527 105.374 88.4289 105.286 88.6199V90.4199C105.271 90.7517 105.357 91.0802 105.534 91.3612C105.711 91.6423 105.97 91.8624 106.276 91.9919L110.818 94.2059C111.082 94.3405 111.335 94.4971 111.574 94.6739C113.124 93.3403 114.38 91.6991 115.262 89.8543C116.144 88.0096 116.633 86.0017 116.698 83.9579C116.476 76.1639 110.302 69.6359 102.556 69.5999Z" fill="#E9000E"/>
<path id="Vector_24" d="M118.876 83.9662C118.957 74.8936 111.667 67.4734 102.595 67.3926C93.5222 67.3118 86.102 74.6012 86.0212 83.6737C85.9405 92.7463 93.2298 100.167 102.302 100.247C111.375 100.328 118.795 93.0388 118.876 83.9662Z" stroke="#EAEAEA" stroke-width="4.2" stroke-miterlimit="10"/>
<path id="Vector_25" d="M41.434 19.47V37.638H4.75V19.47L12.316 15.27V19.47L19.882 15.27V19.398L28.186 15.27V19.47H41.434Z" fill="#E9000E"/>
<path id="Vector_26" d="M38.6209 7.86597L39.8749 19.476H30.0469L31.3009 7.86597H38.6209Z" fill="#404243"/>
<path id="Vector_27" d="M38.2128 4.12197L38.6148 7.86597H31.3008L31.7028 4.11597H31.8168H38.2128V4.12197Z" fill="#E9000E"/>
<path id="Vector_28" d="M37.769 0L38.213 4.122H31.823H31.709L32.171 0H37.769Z" fill="#404243"/>
<path id="Vector_29" d="M31.0488 28.272H36.8748V33.27H31.0488V28.272Z" fill="#E9000E"/>
<path id="Vector_30" d="M20.1699 28.272H25.9959V33.27H20.1699V28.272Z" fill="#E9000E"/>
<path id="Vector_31" d="M9.37109 28.272H15.1971V33.27H9.37109V28.272Z" fill="#E9000E"/>
<path id="Vector_32" d="M0.970703 39.438H45.2147" stroke="#EAEAEA" stroke-width="4.2" stroke-miterlimit="10"/>
</g>
<defs>
<clipPath id="clip0_7211_71824">
<rect width="120" height="108" fill="white" transform="translate(0.970703)"/>
</clipPath>
</defs>
</svg>
