<svg width="96" height="86" viewBox="0 0 96 86" fill="none" xmlns="http://www.w3.org/2000/svg">    <g clip-path="url(#clip0_6744_60603)">        <path d="M82.0502 13.6262V42.7829H66.5" stroke="#EAEAEA" stroke-width="2.84455" stroke-miterlimit="10"/>        <path d="M67.9229 37.8523L59.3418 42.7829L67.9229 47.7608V37.8523Z" fill="#EAEAEA"/>        <path d="M14.6348 13.6262H60.195" stroke="#EAEAEA" stroke-width="2.84455" stroke-miterlimit="10"/>        <path d="M58.9629 18.5565L67.544 13.6259L58.9629 8.64795V18.5565Z" fill="#EAEAEA"/>        <path d="M14.6348 53.1655V43.0199H40.9943" stroke="#EAEAEA" stroke-width="2.84455" stroke-miterlimit="10"/>        <path d="M19.5667 49.3256L14.6362 57.9066L9.6582 49.3256H19.5667Z" fill="#EAEAEA"/>        <path d="M60.3851 72.2241H23.7852" stroke="#EAEAEA" stroke-width="2.84455" stroke-miterlimit="10"/>        <path d="M57.541 67.2458L66.1221 72.2238L57.541 77.2018V67.2458Z" fill="#EAEAEA"/>        <path d="M13.4498 26.0474C20.467 26.0474 26.1555 20.3589 26.1555 13.3418C26.1555 6.32463 20.467 0.636108 13.4498 0.636108C6.43266 0.636108 0.744141 6.32463 0.744141 13.3418C0.744141 20.3589 6.43266 26.0474 13.4498 26.0474Z" fill="#FFBC0A"/>        <path d="M15.5827 19.6946V20.5954C15.5827 21.2591 15.0138 21.828 14.3501 21.828H12.5959C11.9796 21.828 11.3633 21.3539 11.3633 20.3583V19.6946H15.5827Z" fill="white"/>        <path d="M16.5784 9.45403C14.3975 7.7473 11.2685 8.12658 9.56179 10.26C7.85506 12.3934 8.23433 15.5698 10.4152 17.2766C10.8418 17.6084 11.1263 18.0825 11.2685 18.604H15.6302C15.7724 18.0351 16.0569 17.561 16.5309 17.1817C17.7162 16.2336 18.4273 14.8113 18.4273 13.2468C18.4273 11.8245 17.7636 10.4022 16.5784 9.45403Z" fill="white"/>        <path d="M16.6261 12.6307C16.6261 12.8203 16.4839 12.9626 16.2943 12.9626C16.1046 12.9626 15.9624 12.8203 15.9624 12.6307C15.9624 11.967 15.4409 11.4455 14.7772 11.4455C14.5875 11.4455 14.4453 11.3032 14.4453 11.1136C14.4453 10.924 14.5875 10.7817 14.7772 10.7817C15.8202 10.8291 16.6261 11.6351 16.6261 12.6307Z" fill="#FFBC0A"/>        <path d="M16.6261 12.6307C16.6261 12.8203 16.4839 12.9626 16.2943 12.9626C16.1046 12.9626 15.9624 12.8203 15.9624 12.6307C15.9624 11.967 15.4409 11.4455 14.7772 11.4455C14.5875 11.4455 14.4453 11.3032 14.4453 11.1136C14.4453 10.924 14.5875 10.7817 14.7772 10.7817C15.8202 10.8291 16.6261 11.6351 16.6261 12.6307Z" fill="#FFBC0A"/>        <path d="M13.9707 4.80786H12.9277V7.27314H13.9707V4.80786Z" fill="white"/>        <path d="M21.9829 12.7737H19.5176V13.8167H21.9829V12.7737Z" fill="white"/>        <path d="M7.42817 12.7736H4.96289V13.8166H7.42817V12.7736Z" fill="white"/>        <path d="M7.7668 6.8842L7.0293 7.6217L8.7725 9.3649L9.51 8.6274L7.7668 6.8842Z" fill="white"/>        <path d="M8.7764 17.2207L7.0332 18.9639L7.77071 19.7014L9.51391 17.9582L8.7764 17.2207Z" fill="white"/>        <path d="M19.1084 6.88351L17.3652 8.62671L18.1027 9.36422L19.8459 7.62102L19.1084 6.88351Z" fill="white"/>        <path d="M18.1066 17.2212L17.3691 17.9587L19.1123 19.7019L19.8498 18.9644L18.1066 17.2212Z" fill="white"/>        <path d="M81.9082 23.9145C87.7471 23.9145 92.4805 19.1812 92.4805 13.3423C92.4805 7.50338 87.7471 2.77002 81.9082 2.77002C76.0693 2.77002 71.3359 7.50338 71.3359 13.3423C71.3359 19.1812 76.0693 23.9145 81.9082 23.9145Z" fill="#0F89DB"/>        <path d="M81.9088 85.6882C88.9259 85.6882 94.6145 79.9997 94.6145 72.9825C94.6145 65.9654 88.9259 60.2769 81.9088 60.2769C74.8916 60.2769 69.2031 65.9654 69.2031 72.9825C69.2031 79.9997 74.8916 85.6882 81.9088 85.6882Z" fill="#E9000E" stroke="#E9000E" stroke-width="0.474092" stroke-miterlimit="10"/>        <path d="M83.0467 18.5088H80.7711V12.2508V11.2078L80.8185 10.07C80.4392 10.4492 80.1547 10.6863 80.0125 10.8285L78.7799 11.8241L77.6895 10.4492L81.1977 7.6521H83.0941V18.5088H83.0467Z" fill="white"/>        <path d="M45.8769 53.5918C51.7158 53.5918 56.4492 48.8584 56.4492 43.0195C56.4492 37.1806 51.7158 32.4473 45.8769 32.4473C40.038 32.4473 35.3047 37.1806 35.3047 43.0195C35.3047 48.8584 40.038 53.5918 45.8769 53.5918Z" fill="#0F89DB" stroke="#0F89DB" stroke-width="0.474092" stroke-miterlimit="10"/>        <path d="M49.5757 48.2347H41.9902V46.6228L44.6926 43.8731C45.4985 43.0671 46.02 42.4982 46.2571 42.1664C46.4941 41.8345 46.6837 41.55 46.7786 41.2656C46.8734 40.9811 46.9208 40.6967 46.9208 40.4122C46.9208 39.9855 46.7786 39.6537 46.5415 39.464C46.3045 39.2744 45.9726 39.1322 45.5933 39.1322C45.1667 39.1322 44.7874 39.227 44.3607 39.4166C43.9814 39.6063 43.5547 39.8907 43.1281 40.2226L41.9902 38.8003C42.5117 38.3262 42.9858 38.0418 43.3177 37.8521C43.6496 37.6625 44.0288 37.5203 44.4555 37.4254C44.8822 37.3306 45.3563 37.2832 45.8304 37.2832C46.4941 37.2832 47.1104 37.4254 47.6319 37.6625C48.1534 37.8995 48.5327 38.2788 48.8172 38.7055C49.1016 39.1322 49.2438 39.6537 49.2438 40.2226C49.2438 40.7441 49.149 41.1708 48.9594 41.6449C48.7698 42.0715 48.5327 42.5456 48.1534 42.9723C47.7742 43.4464 47.1578 44.0627 46.2097 44.9161L44.8348 46.2435V46.3384H49.5757V48.2347Z" fill="white"/>        <path d="M14.6348 82.796C20.4737 82.796 25.207 78.0626 25.207 72.2237C25.207 66.3849 20.4737 61.6515 14.6348 61.6515C8.79586 61.6515 4.0625 66.3849 4.0625 72.2237C4.0625 78.0626 8.79586 82.796 14.6348 82.796Z" fill="#0F89DB"/>        <path d="M17.9068 68.9998C17.9068 69.6636 17.7172 70.2325 17.2905 70.7066C16.8638 71.1807 16.2949 71.5125 15.5838 71.7022V71.7496C16.4372 71.8444 17.1009 72.1288 17.575 72.5555C18.0017 72.9822 18.2387 73.5511 18.2387 74.2623C18.2387 75.3053 17.8594 76.1112 17.1009 76.6801C16.3423 77.249 15.2519 77.5335 13.8771 77.5335C12.6918 77.5335 11.6488 77.3439 10.748 76.9646V75.0208C11.1747 75.2104 11.6488 75.4001 12.1229 75.5423C12.597 75.6845 13.1185 75.7319 13.64 75.7319C14.3986 75.7319 14.9675 75.5897 15.2993 75.3527C15.6786 75.1156 15.8208 74.6889 15.8208 74.12C15.8208 73.5985 15.6312 73.2667 15.2045 73.0296C14.7778 72.84 14.1141 72.6978 13.2133 72.6978H12.4074V70.9436H13.2607C14.1141 70.9436 14.7304 70.8488 15.1097 70.6118C15.489 70.3747 15.6786 69.9954 15.6786 69.4739C15.6786 68.668 15.1571 68.2413 14.1141 68.2413C13.7348 68.2413 13.403 68.2887 13.0237 68.4309C12.6444 68.5732 12.2651 68.7628 11.791 69.0473L10.748 67.4827C11.7436 66.7716 12.9289 66.3923 14.3037 66.3923C15.4416 66.3923 16.2949 66.6294 16.9587 67.0561C17.6224 67.5776 17.9068 68.1939 17.9068 68.9998Z" fill="white"/>        <path d="M76.7893 68.9048L75.6989 69.284C75.6041 69.3315 75.5093 69.3789 75.5093 69.4737L75.0352 70.4693L74.6559 69.3789C74.6085 69.284 74.5611 69.1892 74.4663 69.1892L73.4707 68.7151L74.5611 68.3359C74.6559 68.2885 74.7508 68.241 74.7508 68.1462L75.2248 67.1506L75.6041 68.241C75.6515 68.3359 75.6989 68.4307 75.7938 68.4307L76.7893 68.9048Z" fill="white"/>        <path d="M88.9261 79.1458L87.8357 79.5251C87.7408 79.5725 87.646 79.6199 87.646 79.7147L87.1719 80.7103L86.7927 79.6199C86.7452 79.5251 86.6978 79.4303 86.603 79.4303L85.6074 78.9562L86.6978 78.5769C86.7927 78.5295 86.8875 78.4821 86.8875 78.3873L87.3616 77.3917L87.7408 78.4821C87.7882 78.5769 87.8357 78.6717 87.9305 78.6717L88.9261 79.1458Z" fill="white"/>        <path d="M81.5778 66.0606L79.7288 66.6769C79.5392 66.7243 79.4444 66.8665 79.397 67.0088L78.6384 68.8103L78.0221 66.9614C77.9747 66.7717 77.8325 66.6769 77.6902 66.6295L75.8887 65.8709L77.7376 65.2546C77.9273 65.2072 78.0221 65.065 78.0695 64.9228L78.828 63.1212L79.4444 64.9702C79.4918 65.1598 79.634 65.2546 79.7762 65.302L81.5778 66.0606Z" fill="white"/>        <path d="M75.9355 74.3097L78.0215 72.2237L80.5342 74.6415L86.0811 69.0472L88.1671 71.1332L80.5342 78.8135L75.9355 74.3097Z" fill="white"/>    </g>    <defs>        <clipPath id="clip0_6744_60603">            <rect width="94.8184" height="85.3366" fill="white" transform="translate(0.269531 0.494629)"/>        </clipPath>    </defs></svg>