<svg width="120" height="109" viewBox="0 0 120 109" fill="none" xmlns="http://www.w3.org/2000/svg">
<g id="financial-risk-management.svg" clip-path="url(#clip0_7211_71911)">
<path id="Vector" d="M58.1836 51.228H86.7545V59.3894H58.1836V51.228Z" fill="#E9000E"/>
<path id="Vector_2" d="M73.5293 100.208H102.1V108.37H73.5293V100.208Z" fill="#E9000E"/>
<path id="Vector_3" d="M72.4453 92.041H101.016V100.208H72.4453V92.041Z" fill="#E9000E"/>
<path id="Vector_4" d="M73.5293 83.8799H102.1V92.0413H73.5293V83.8799Z" fill="#E9000E"/>
<path id="Vector_5" d="M72.4453 75.7183H101.016V83.8797H72.4453V75.7183Z" fill="#E9000E"/>
<path id="Vector_6" d="M73.5293 67.551H102.1V75.7184H73.5293V67.551Z" fill="#E9000E"/>
<path id="Vector_7" d="M72.4453 59.3896H101.016V67.5511H72.4453V59.3896Z" fill="#E9000E"/>
<path id="Vector_8" d="M47.9531 100.208H76.524V108.37H47.9531V100.208Z" fill="#E9000E"/>
<path id="Vector_9" d="M43.875 92.041H72.4459V100.208H43.875V92.041Z" fill="#E9000E"/>
<path id="Vector_10" d="M92.8536 55.3087C99.618 55.3087 105.102 49.825 105.102 43.0606C105.102 36.2962 99.618 30.8125 92.8536 30.8125C86.0891 30.8125 80.6055 36.2962 80.6055 43.0606C80.6055 49.825 86.0891 55.3087 92.8536 55.3087Z" fill="#E9000E"/>
<path id="Vector_11" d="M92.8543 26.738C89.624 26.7369 86.466 27.6938 83.7797 29.4879C81.0934 31.2819 78.9995 33.8324 77.7631 36.8167C76.5266 39.801 76.2031 43.085 76.8334 46.2532C77.4638 49.4214 79.0197 52.3314 81.3043 54.6152C83.5888 56.8989 86.4995 58.4537 89.6679 59.0829C92.8363 59.7121 96.1202 59.3874 99.104 58.1498C102.088 56.9123 104.638 54.8175 106.431 52.1305C108.224 49.4436 109.18 46.2852 109.177 43.0549C109.174 38.7273 107.453 34.578 104.392 31.5185C101.332 28.459 97.1819 26.7396 92.8543 26.738ZM92.8543 55.309C90.4319 55.3101 88.0635 54.593 86.0486 53.2481C84.0338 51.9033 82.463 49.9911 81.5349 47.7535C80.6067 45.5159 80.363 43.0534 80.8344 40.6772C81.3058 38.3011 82.4713 36.1181 84.1834 34.4044C85.8955 32.6906 88.0773 31.523 90.453 31.0493C92.8286 30.5755 95.2914 30.8169 97.5299 31.7428C99.7684 32.6687 101.682 34.2377 103.029 36.2512C104.376 38.2647 105.095 40.6324 105.096 43.0549C105.097 44.6633 104.781 46.2561 104.166 47.7425C103.552 49.2288 102.65 50.5794 101.513 51.7173C100.377 52.8552 99.0267 53.7581 97.541 54.3743C96.0553 54.9906 94.4628 55.3082 92.8543 55.309Z" fill="#E9000E"/>
<path id="Vector_12" d="M47.9531 83.8799H76.524V92.0413H47.9531V83.8799Z" fill="#E9000E"/>
<path id="Vector_13" d="M91.8489 49.5743C90.558 49.5166 89.285 49.2495 88.0798 48.7833C87.9445 48.7323 87.828 48.6414 87.7456 48.5226C87.6631 48.4038 87.6188 48.2628 87.6184 48.1182V46.3565C87.6184 46.2411 87.6469 46.1274 87.7013 46.0257C87.7558 45.9239 87.8346 45.8372 87.9306 45.7731C88.0266 45.7091 88.137 45.6698 88.2519 45.6587C88.3667 45.6475 88.4826 45.6649 88.5891 45.7093C89.099 45.9171 89.619 46.0991 90.1471 46.2546C90.9238 46.497 91.7305 46.6301 92.544 46.6501C92.97 46.6757 93.3962 46.604 93.7904 46.4404C93.8998 46.3819 93.993 46.2971 94.0616 46.1937C94.1302 46.0903 94.172 45.9714 94.1833 45.8479C94.1946 45.7243 94.175 45.5998 94.1263 45.4857C94.0776 45.3716 94.0013 45.2713 93.9042 45.194C93.6062 44.9798 93.282 44.8046 92.9395 44.6727C92.4901 44.4809 91.8908 44.2472 91.1418 43.9716C90.4104 43.716 89.7186 43.359 89.0865 42.9109C88.6081 42.5702 88.2178 42.1203 87.948 41.5986C87.6991 41.0328 87.5784 40.4189 87.5944 39.801C87.5688 39.3179 87.6507 38.8352 87.8341 38.3876C88.0175 37.94 88.2979 37.5386 88.655 37.2123C89.5734 36.5089 90.687 36.107 91.8429 36.0618V35.145C91.842 35.0803 91.8544 35.0161 91.8793 34.9563C91.9042 34.8965 91.9411 34.8425 91.9877 34.7976C92.0343 34.7527 92.0897 34.7178 92.1503 34.6951C92.2109 34.6724 92.2756 34.6624 92.3403 34.6656H93.4728C93.5983 34.6656 93.7187 34.7155 93.8075 34.8043C93.8963 34.8931 93.9462 35.0135 93.9462 35.139V36.0199C95.0903 36.0879 96.2175 36.3283 97.2898 36.733C97.3763 36.7684 97.4549 36.8206 97.521 36.8866C97.5872 36.9526 97.6396 37.031 97.6753 37.1174C97.7109 37.2038 97.7291 37.2963 97.7288 37.3898C97.7285 37.4832 97.7096 37.5757 97.6733 37.6618L97.0262 39.2078C96.9546 39.3779 96.8189 39.513 96.6483 39.5837C96.4778 39.6543 96.2863 39.6549 96.1154 39.5853C95.1197 39.1679 94.0547 38.9403 92.9754 38.9141C92.5893 38.8847 92.2019 38.9527 91.8489 39.1119C91.7394 39.1662 91.6491 39.2527 91.5902 39.3599C91.5313 39.467 91.5066 39.5895 91.5193 39.7111C91.5165 39.8135 91.5359 39.9153 91.5762 40.0094C91.6166 40.1036 91.6769 40.1879 91.753 40.2564C92.0022 40.4549 92.2787 40.6163 92.574 40.7358C93.1009 40.9622 93.6389 41.1622 94.1859 41.335C95.2972 41.6698 96.3205 42.2469 97.182 43.0248C97.4893 43.348 97.7295 43.7289 97.8889 44.1454C98.0483 44.5619 98.1237 45.0059 98.1108 45.4516C98.1299 45.9573 98.0445 46.4615 97.86 46.9327C97.6754 47.4039 97.3957 47.8319 97.0382 48.1901C96.1748 48.9571 95.0806 49.4147 93.9282 49.4904V50.9585C93.9282 51.0204 93.9159 51.0817 93.8921 51.1388C93.8682 51.1959 93.8332 51.2477 93.7892 51.2911C93.7451 51.3346 93.6929 51.3689 93.6355 51.3921C93.5781 51.4152 93.5167 51.4267 93.4548 51.4259H92.3403C92.2784 51.4267 92.217 51.4152 92.1596 51.3921C92.1022 51.3689 92.0499 51.3346 92.0059 51.2911C91.9618 51.2477 91.9269 51.1959 91.903 51.1388C91.8791 51.0817 91.8669 51.0204 91.8669 50.9585L91.8489 49.5743Z" fill="white"/>
<path id="Vector_14" d="M43.875 75.7183H72.4459V83.8797H43.875V75.7183Z" fill="#E9000E"/>
<path id="Vector_15" d="M47.9531 67.5508H76.524V75.7182H47.9531V67.5508Z" fill="#E9000E"/>
<path id="Vector_16" d="M43.875 59.3896H72.4459V67.5511H43.875V59.3896Z" fill="#E9000E"/>
<path id="Vector_17" d="M4.14062 100.208H32.7115V108.37H4.14062V100.208Z" fill="#E9000E"/>
<path id="Vector_18" d="M0.0585938 92.0413H28.6295V100.209H0.0585938V92.0413Z" fill="#E9000E"/>
<path id="Vector_19" d="M4.14062 83.8799H32.7115V92.0413H4.14062V83.8799Z" fill="#E9000E"/>
<path id="Vector_20" d="M0.0585938 75.7185H28.6295V83.8799H0.0585938V75.7185Z" fill="#E9000E"/>
<path id="Vector_21" d="M4.14062 67.5508H32.7115V75.7182H4.14062V67.5508Z" fill="#E9000E"/>
<path id="Vector_22" d="M38.834 104.289C45.5985 104.289 51.0821 98.8058 51.0821 92.0413C51.0821 85.2769 45.5985 79.7932 38.834 79.7932C32.0696 79.7932 26.5859 85.2769 26.5859 92.0413C26.5859 98.8058 32.0696 104.289 38.834 104.289Z" fill="#E9000E"/>
<path id="Vector_23" d="M38.8341 75.7183C35.6054 75.723 32.4505 76.6849 29.7683 78.4822C27.086 80.2796 24.9969 82.8318 23.7648 85.8163C22.5328 88.8008 22.2132 92.0835 22.8464 95.2495C23.4797 98.4156 25.0373 101.323 27.3225 103.604C29.6077 105.885 32.5178 107.437 35.685 108.065C38.8522 108.692 42.1344 108.366 45.1166 107.129C48.0987 105.891 50.6471 103.798 52.4396 101.112C54.232 98.4265 55.1881 95.2699 55.1869 92.0411C55.1861 89.8952 54.7624 87.7706 53.9399 85.7886C53.1175 83.8067 51.9125 82.0062 50.3937 80.4903C48.875 78.9743 47.0724 77.7726 45.0889 76.9538C43.1054 76.135 40.98 75.7151 38.8341 75.7183ZM38.8341 104.289C36.4117 104.289 34.0436 103.571 32.0295 102.225C30.0153 100.879 28.4454 98.9663 27.5184 96.7282C26.5913 94.4902 26.3488 92.0275 26.8214 89.6516C27.294 87.2757 28.4605 85.0933 30.1734 83.3804C31.8864 81.6674 34.0688 80.5009 36.4447 80.0283C38.8206 79.5557 41.2832 79.7983 43.5213 80.7253C45.7593 81.6524 47.6722 83.2222 49.0181 85.2364C50.3639 87.2506 51.0822 89.6186 51.0822 92.0411C51.0822 95.2895 49.7918 98.4048 47.4949 100.702C45.1979 102.999 42.0825 104.289 38.8341 104.289Z" fill="#E9000E"/>
<path id="Vector_24" d="M37.8087 98.5548C36.5159 98.4966 35.241 98.2295 34.0336 97.7638C33.8983 97.7128 33.7817 97.6218 33.6993 97.503C33.6169 97.3842 33.5726 97.2432 33.5722 97.0986V95.3369C33.5722 95.2215 33.6007 95.1079 33.6551 95.0061C33.7096 94.9044 33.7883 94.8176 33.8844 94.7536C33.9804 94.6896 34.0908 94.6502 34.2056 94.6391C34.3205 94.628 34.4364 94.6454 34.5429 94.6898C35.0403 94.8935 35.5616 95.0733 36.1009 95.2351C36.8776 95.4775 37.6843 95.6106 38.4978 95.6306C38.9257 95.6561 39.3539 95.5843 39.7502 95.4208C39.876 95.3585 39.9807 95.2605 40.051 95.139C40.1214 95.0175 40.1543 94.8779 40.1456 94.7377C40.1452 94.6279 40.1189 94.5196 40.069 94.4218C40.019 94.324 39.9467 94.2392 39.858 94.1744C39.5637 93.9611 39.2436 93.786 38.9053 93.6531C38.4618 93.4614 37.8626 93.2277 37.1076 92.952C36.3749 92.6951 35.6813 92.3382 35.0463 91.8914C34.5674 91.5529 34.1786 91.1024 33.9137 90.5791C33.6589 90.015 33.5359 89.4002 33.5542 88.7814C33.532 88.2969 33.6184 87.8135 33.8071 87.3666C33.9958 86.9198 34.282 86.5208 34.6448 86.1988C35.554 85.4929 36.6589 85.0848 37.8087 85.0303V84.1255C37.8079 84.0636 37.8194 84.0022 37.8425 83.9448C37.8657 83.8874 37.9 83.8351 37.9434 83.7911C37.9869 83.7471 38.0387 83.7121 38.0958 83.6882C38.1529 83.6644 38.2142 83.6521 38.2761 83.6521H39.4146C39.4765 83.6521 39.5377 83.6644 39.5948 83.6882C39.6519 83.7121 39.7037 83.7471 39.7472 83.7911C39.7907 83.8351 39.825 83.8874 39.8481 83.9448C39.8713 84.0022 39.8828 84.0636 39.882 84.1255V85.0003C41.0261 85.0684 42.1533 85.3088 43.2256 85.7134C43.315 85.7464 43.3966 85.7971 43.4657 85.8627C43.5347 85.9282 43.5897 86.0071 43.6273 86.0945C43.6648 86.182 43.6842 86.2762 43.6842 86.3714C43.6841 86.4666 43.6647 86.5608 43.6271 86.6482L42.986 88.1942C42.9132 88.3648 42.7763 88.5 42.6048 88.5706C42.4333 88.6412 42.2409 88.6416 42.0691 88.5717C41.0736 88.1538 40.0086 87.9262 38.9292 87.9006C38.5431 87.8711 38.1557 87.9391 37.8027 88.0983C37.6943 88.1536 37.6053 88.2405 37.5475 88.3475C37.4897 88.4545 37.4658 88.5766 37.4791 88.6975C37.4762 88.7999 37.4956 88.9017 37.536 88.9959C37.5763 89.09 37.6367 89.1743 37.7128 89.2428C37.9596 89.4415 38.2342 89.603 38.5277 89.7222C38.9172 89.902 39.4565 90.1057 40.1456 90.3214C41.2564 90.6577 42.2793 91.2347 43.1418 92.0112C43.4469 92.3388 43.6844 92.7234 43.8407 93.1429C43.997 93.5625 44.069 94.0087 44.0526 94.4561C44.0729 94.9614 43.9886 95.4654 43.8051 95.9366C43.6215 96.4078 43.3427 96.8361 42.986 97.1945C42.1203 97.9616 41.0241 98.4191 39.87 98.4948V99.9809C39.87 100.105 39.8208 100.224 39.7331 100.311C39.6454 100.399 39.5266 100.448 39.4026 100.448H38.2641C38.1422 100.445 38.0264 100.395 37.9413 100.307C37.8562 100.22 37.8086 100.103 37.8087 99.9809V98.5548Z" fill="white"/>
<path id="Vector_25" d="M103.574 104.289C110.339 104.289 115.822 98.8058 115.822 92.0413C115.822 85.2769 110.339 79.7932 103.574 79.7932C96.8098 79.7932 91.3262 85.2769 91.3262 92.0413C91.3262 98.8058 96.8098 104.289 103.574 104.289Z" fill="#E9000E"/>
<path id="Vector_26" d="M103.575 75.7183C100.345 75.7183 97.1879 76.6761 94.5025 78.4706C91.8171 80.2651 89.7242 82.8156 88.4885 85.7997C87.2528 88.7837 86.9298 92.0672 87.5603 95.2349C88.1908 98.4025 89.7466 101.312 92.0308 103.595C94.315 105.879 97.2251 107.433 100.393 108.063C103.561 108.692 106.844 108.368 109.828 107.131C112.811 105.894 115.361 103.801 117.155 101.115C118.948 98.4285 119.905 95.2709 119.904 92.0411C119.902 87.7114 118.181 83.5597 115.119 80.4987C112.057 77.4378 107.905 75.7183 103.575 75.7183ZM103.575 104.289C101.152 104.289 98.7844 103.571 96.7702 102.225C94.756 100.879 93.1862 98.9663 92.2591 96.7282C91.3321 94.4902 91.0895 92.0275 91.5621 89.6516C92.0347 87.2757 93.2013 85.0933 94.9142 83.3804C96.6271 81.6674 98.8095 80.5009 101.185 80.0283C103.561 79.5557 106.024 79.7983 108.262 80.7253C110.5 81.6523 112.413 83.2222 113.759 85.2364C115.105 87.2506 115.823 89.6186 115.823 92.0411C115.823 95.2895 114.533 98.4048 112.236 100.702C109.939 102.999 106.823 104.289 103.575 104.289Z" fill="#E9000E"/>
<path id="Vector_27" d="M102.574 98.5547C101.281 98.4966 100.006 98.2295 98.7986 97.7638C98.6639 97.7125 98.5482 97.6213 98.4668 97.5024C98.3854 97.3836 98.3423 97.2427 98.3432 97.0986V95.3369C98.3421 95.2217 98.3696 95.1081 98.4234 95.0062C98.4771 94.9043 98.5553 94.8173 98.651 94.7531C98.7467 94.689 98.8568 94.6496 98.9714 94.6385C99.0861 94.6274 99.2017 94.6451 99.3079 94.6897C99.8053 94.8935 100.327 95.0733 100.866 95.235C101.643 95.477 102.449 95.6101 103.263 95.6305C103.691 95.656 104.119 95.5843 104.515 95.4208C104.641 95.3585 104.746 95.2605 104.816 95.139C104.886 95.0174 104.919 94.8778 104.911 94.7377C104.91 94.6278 104.884 94.5196 104.834 94.4218C104.784 94.3239 104.712 94.2392 104.623 94.1744C104.329 93.9611 104.009 93.7859 103.67 93.6531C103.227 93.4613 102.628 93.2276 101.873 92.952C101.141 92.6964 100.449 92.3394 99.8172 91.8914C99.3373 91.5523 98.9467 91.1021 98.6787 90.5791C98.4239 90.0149 98.3009 89.4002 98.3192 88.7814C98.2931 88.2977 98.3753 87.8144 98.5598 87.3665C98.7444 86.9187 99.0265 86.5177 99.3858 86.1928C100.304 85.4887 101.418 85.0867 102.574 85.0423V84.1374C102.573 84.0756 102.584 84.0141 102.608 83.9567C102.631 83.8993 102.665 83.8471 102.708 83.8031C102.752 83.759 102.804 83.7241 102.861 83.7002C102.918 83.6763 102.979 83.6641 103.041 83.6641H104.18C104.241 83.6641 104.303 83.6763 104.36 83.7002C104.417 83.7241 104.469 83.759 104.512 83.8031C104.556 83.8471 104.59 83.8993 104.613 83.9567C104.636 84.0141 104.648 84.0756 104.647 84.1374V85.0003C105.791 85.0684 106.918 85.3088 107.991 85.7134C108.08 85.7463 108.162 85.7971 108.231 85.8626C108.3 85.9282 108.355 86.0071 108.392 86.0945C108.43 86.182 108.449 86.2762 108.449 86.3714C108.449 86.4666 108.43 86.5607 108.392 86.6482L107.751 88.1942C107.678 88.3648 107.541 88.4999 107.37 88.5706C107.198 88.6412 107.006 88.6416 106.834 88.5717C105.839 88.1538 104.774 87.9261 103.694 87.9006C103.308 87.8711 102.921 87.9391 102.568 88.0983C102.459 88.1535 102.37 88.2404 102.312 88.3475C102.255 88.4545 102.231 88.5766 102.244 88.6975C102.241 88.7999 102.261 88.9017 102.301 88.9959C102.341 89.09 102.402 89.1743 102.478 89.2428C102.725 89.4415 102.999 89.603 103.293 89.7222C103.682 89.902 104.222 90.1057 104.911 90.3214C106.021 90.6577 107.044 91.2347 107.907 92.0112C108.213 92.3379 108.452 92.7223 108.608 93.142C108.764 93.5618 108.836 94.0085 108.818 94.4561C108.838 94.9613 108.754 95.4654 108.57 95.9366C108.387 96.4078 108.108 96.8361 107.751 97.1945C106.885 97.9616 105.789 98.419 104.635 98.4948V99.9809C104.635 100.105 104.586 100.224 104.498 100.311C104.41 100.399 104.292 100.448 104.168 100.448H103.029C102.905 100.448 102.786 100.399 102.699 100.311C102.611 100.224 102.562 100.105 102.562 99.9809L102.574 98.5547Z" fill="white"/>
<path id="Vector_28" d="M59.8377 31.7655L43.2752 3.07478C42.8268 2.29427 42.1805 1.64584 41.4014 1.19493C40.6223 0.744026 39.7381 0.506592 38.838 0.506592C37.9378 0.506592 37.0536 0.744026 36.2745 1.19493C35.4955 1.64584 34.8491 2.29427 34.4007 3.07478L17.8322 31.7655C17.3802 32.5449 17.1416 33.4296 17.1406 34.3305C17.1396 35.2315 17.3762 36.1167 17.8265 36.8971C18.2769 37.6774 18.925 38.3252 19.7056 38.775C20.4861 39.2249 21.3715 39.461 22.2725 39.4596H55.4035C56.3039 39.46 57.1885 39.2231 57.9683 38.7728C58.748 38.3225 59.3953 37.6746 59.8449 36.8945C60.2945 36.1143 60.5306 35.2295 60.5293 34.329C60.528 33.4286 60.2895 32.5444 59.8377 31.7655Z" fill="#E9000E"/>
<path id="Vector_29" d="M55.9187 32.9518C56.0455 33.1738 56.1118 33.4251 56.1111 33.6807C56.1105 33.9364 56.0428 34.1873 55.9149 34.4086C55.7869 34.6299 55.6032 34.8138 55.382 34.942C55.1609 35.0701 54.9099 35.1381 54.6543 35.139H23.0154C22.7598 35.1381 22.5089 35.0701 22.2877 34.942C22.0665 34.8138 21.8828 34.6299 21.7549 34.4086C21.6269 34.1873 21.5593 33.9364 21.5586 33.6807C21.5579 33.4251 21.6243 33.1738 21.751 32.9518L37.5765 5.54939C37.7047 5.32928 37.8883 5.14663 38.1091 5.01969C38.3299 4.89274 38.5802 4.82593 38.8349 4.82593C39.0896 4.82593 39.3398 4.89274 39.5606 5.01969C39.7814 5.14663 39.9651 5.32928 40.0932 5.54939L55.9187 32.9518Z" fill="#404243"/>
<path id="Vector_30" d="M38.834 32.9698C40.0022 32.9698 40.9493 32.0227 40.9493 30.8545C40.9493 29.6863 40.0022 28.7393 38.834 28.7393C37.6658 28.7393 36.7188 29.6863 36.7188 30.8545C36.7188 32.0227 37.6658 32.9698 38.834 32.9698Z" fill="#E9000E"/>
<path id="Vector_31" d="M38.8334 11.2959C38.1876 11.2959 37.5682 11.552 37.111 12.0081C36.6538 12.4642 36.3961 13.083 36.3945 13.7287C36.396 13.8794 36.4101 14.0298 36.4365 14.1782L37.5331 25.6053C37.5331 25.9502 37.6701 26.2809 37.9139 26.5248C38.1578 26.7686 38.4885 26.9056 38.8334 26.9056C39.1782 26.9056 39.509 26.7686 39.7528 26.5248C39.9967 26.2809 40.1337 25.9502 40.1337 25.6053L41.2303 14.1782C41.2567 14.0298 41.2707 13.8794 41.2722 13.7287C41.2706 13.083 41.013 12.4642 40.5558 12.0081C40.0986 11.552 39.4791 11.2959 38.8334 11.2959Z" fill="#E9000E"/>
<path id="Vector_32" d="M38.834 71.488V71.458" stroke="#E9000E" stroke-width="2.99611" stroke-linecap="round" stroke-linejoin="round"/>
<path id="Vector_33" d="M38.834 65.7594V45.6016" stroke="#E9000E" stroke-width="2.99611" stroke-linecap="round" stroke-linejoin="round" stroke-dasharray="0.06 5.69"/>
<path id="Vector_34" d="M38.834 42.7551V42.7251" stroke="#E9000E" stroke-width="2.99611" stroke-linecap="round" stroke-linejoin="round"/>
</g>
<defs>
<clipPath id="clip0_7211_71911">
<rect width="119.844" height="107.86" fill="white" transform="translate(0.0585938 0.51001)"/>
</clipPath>
</defs>
</svg>
