<svg width="121" height="109" viewBox="0 0 121 109" fill="none" xmlns="http://www.w3.org/2000/svg">
<g id="iiot-solutions_supply-chain-management.svg" clip-path="url(#clip0_7211_71882)">
<path id="Vector" d="M9.64062 47.166L9.65862 47.19" stroke="#E8E8E8" stroke-width="3.6" stroke-linecap="round" stroke-linejoin="round"/>
<path id="Vector_2" d="M13.5586 51.4199L54.9526 96.2939" stroke="#E8E8E8" stroke-width="3.6" stroke-linecap="round" stroke-linejoin="round" stroke-dasharray="0.06 5.75"/>
<path id="Vector_3" d="M56.9023 98.406L56.9263 98.43" stroke="#E8E8E8" stroke-width="3.6" stroke-linecap="round" stroke-linejoin="round"/>
<path id="Vector_4" d="M9.64062 47.166H9.67063" stroke="#E8E8E8" stroke-width="3.6" stroke-linecap="round" stroke-linejoin="round"/>
<path id="Vector_5" d="M15.6465 47.166H109.282" stroke="#E8E8E8" stroke-width="3.6" stroke-linecap="round" stroke-linejoin="round" stroke-dasharray="0.06 5.98"/>
<path id="Vector_6" d="M112.271 47.166H112.301" stroke="#E8E8E8" stroke-width="3.6" stroke-linecap="round" stroke-linejoin="round"/>
<path id="Vector_7" d="M112.301 16.2119C110.003 16.2167 107.801 17.1318 106.177 18.7569C104.554 20.382 103.64 22.5845 103.637 24.8819C103.637 30.8339 111.437 39.5699 111.719 39.9419C111.79 40.0276 111.88 40.0965 111.981 40.1438C112.082 40.1911 112.192 40.2156 112.304 40.2156C112.415 40.2156 112.526 40.1911 112.627 40.1438C112.728 40.0965 112.817 40.0276 112.889 39.9419C113.261 39.5699 120.971 30.8339 120.971 24.8819C120.966 22.5839 120.051 20.3815 118.426 18.7566C116.801 17.1316 114.599 16.2167 112.301 16.2119ZM112.301 29.2139C111.152 29.2123 110.051 28.7554 109.239 27.9433C108.427 27.1313 107.97 26.0303 107.969 24.8819C107.99 23.7426 108.455 22.6564 109.263 21.8535C110.072 21.0505 111.161 20.5937 112.301 20.5799C113.45 20.5815 114.551 21.0382 115.364 21.8501C116.177 22.662 116.636 23.7629 116.639 24.9119C116.64 25.4801 116.528 26.0429 116.309 26.5675C116.091 27.0922 115.771 27.5684 115.368 27.9685C114.964 28.3686 114.485 28.6847 113.959 28.8985C113.433 29.1123 112.869 29.2195 112.301 29.2139Z" fill="#E9000E"/>
<path id="Vector_8" d="M62.1049 17.8201H47.2969V44.6641H71.5609V32.5801L68.7349 22.8001C68.3193 21.369 67.452 20.1108 66.2625 19.2132C65.073 18.3157 63.625 17.827 62.1349 17.8201" fill="#E9000E"/>
<path id="Vector_9" d="M68.02 32.4539L65.494 23.7359C65.2803 23.0012 64.8348 22.3552 64.2238 21.8945C63.6128 21.4338 62.8692 21.1832 62.104 21.1799H50.668V32.4539H68.02Z" fill="#404243"/>
<path id="Vector_10" d="M68.0221 32.454H50.6641V21.186L68.0221 32.454Z" fill="#404243"/>
<path id="Vector_11" d="M68.02 32.4539L65.494 23.7359C65.2803 23.0012 64.8348 22.3552 64.2238 21.8945C63.6128 21.4338 62.8692 21.1832 62.104 21.1799H50.668L68.02 32.4539Z" fill="#404243"/>
<path id="Vector_12" d="M5.45271 4.344H42.8147C44.0034 4.344 45.1434 4.81621 45.984 5.65675C46.8245 6.49728 47.2967 7.6373 47.2967 8.826V44.664H0.970707V8.826C0.969917 8.23719 1.08531 7.65401 1.31027 7.10988C1.53523 6.56574 1.86534 6.07133 2.28169 5.65498C2.69804 5.23863 3.19245 4.90852 3.73659 4.68356C4.28072 4.4586 4.8639 4.34321 5.45271 4.344Z" fill="#E9000E"/>
<path id="Vector_13" d="M31.3298 4.3501V16.1941L29.6018 14.4601L27.7838 16.2781L25.9658 14.4601L24.1478 16.2781L22.3298 14.4601L20.4938 16.2781L18.6818 14.4601L16.9238 16.2181V4.3501H31.3298Z" fill="#E9000E"/>
<path id="Vector_14" d="M72.7007 44.658V49.722H0.970703V44.658H8.4647C9.35663 43.064 10.6574 41.7367 12.2331 40.8129C13.8087 39.889 15.6022 39.402 17.4287 39.402C19.2552 39.402 21.0487 39.889 22.6243 40.8129C24.2 41.7367 25.5008 43.064 26.3927 44.658H50.4767C51.3669 43.0637 52.6665 41.736 54.2412 40.8117C55.8159 39.8874 57.6088 39.4001 59.4347 39.4001C61.2606 39.4001 63.0535 39.8874 64.6282 40.8117C66.2029 41.736 67.5025 43.0637 68.3927 44.658H72.7007Z" fill="#E9000E"/>
<path id="Vector_15" d="M66.5875 49.6919C66.5875 51.1077 66.1677 52.4916 65.3811 53.6687C64.5946 54.8458 63.4767 55.7633 62.1687 56.3051C60.8608 56.8468 59.4215 56.9886 58.033 56.7124C56.6445 56.4362 55.3691 55.7545 54.368 54.7534C53.367 53.7523 52.6852 52.4769 52.409 51.0884C52.1328 49.6999 52.2746 48.2606 52.8164 46.9527C53.3581 45.6447 54.2756 44.5268 55.4527 43.7403C56.6298 42.9537 58.0138 42.5339 59.4295 42.5339C61.3279 42.5339 63.1486 43.2881 64.491 44.6305C65.8333 45.9729 66.5875 47.7935 66.5875 49.6919Z" fill="#E9000E"/>
<path id="Vector_16" d="M62.3088 49.6921C62.31 50.262 62.1421 50.8194 61.8264 51.2938C61.5106 51.7682 61.0613 52.1383 60.5351 52.3572C60.009 52.5761 59.4297 52.634 58.8706 52.5235C58.3116 52.4131 57.7979 52.1392 57.3945 51.7367C56.9911 51.3342 56.7162 50.821 56.6046 50.2622C56.493 49.7034 56.5497 49.124 56.7675 48.5974C56.9853 48.0708 57.3544 47.6206 57.8282 47.3039C58.3019 46.9872 58.859 46.8181 59.4288 46.8181C59.8067 46.8173 60.1811 46.8911 60.5305 47.0352C60.8799 47.1792 61.1974 47.3908 61.4649 47.6578C61.7324 47.9247 61.9447 48.2418 62.0895 48.5909C62.2343 48.94 62.3088 49.3142 62.3088 49.6921Z" fill="#404243"/>
<path id="Vector_17" d="M24.5816 49.6919C24.5816 51.1077 24.1618 52.4916 23.3753 53.6687C22.5888 54.8458 21.4708 55.7633 20.1629 56.3051C18.8549 56.8468 17.4157 56.9886 16.0272 56.7124C14.6387 56.4362 13.3632 55.7545 12.3622 54.7534C11.3611 53.7523 10.6794 52.4769 10.4032 51.0884C10.127 49.6999 10.2687 48.2606 10.8105 46.9527C11.3523 45.6447 12.2697 44.5268 13.4469 43.7403C14.624 42.9537 16.0079 42.5339 17.4236 42.5339C19.322 42.5339 21.1427 43.2881 22.4851 44.6305C23.8275 45.9729 24.5816 47.7935 24.5816 49.6919Z" fill="#E9000E"/>
<path id="Vector_18" d="M20.2971 49.6921C20.2983 50.2622 20.1302 50.8199 19.8142 51.2944C19.4982 51.7689 19.0485 52.139 18.522 52.3577C17.9955 52.5765 17.4159 52.634 16.8567 52.5231C16.2975 52.4121 15.7838 52.1377 15.3806 51.7346C14.9775 51.3314 14.7031 50.8177 14.5922 50.2585C14.4812 49.6993 14.5388 49.1197 14.7575 48.5932C14.9762 48.0667 15.3463 47.617 15.8208 47.301C16.2953 46.985 16.853 46.8169 17.4231 46.8181C17.8007 46.8173 18.1748 46.8911 18.5239 47.0353C18.8729 47.1794 19.1901 47.3911 19.4571 47.6581C19.7241 47.9252 19.9358 48.2423 20.0799 48.5914C20.2241 48.9404 20.2979 49.3145 20.2971 49.6921Z" fill="#404243"/>
<path id="Vector_19" d="M112.3 49.5661C113.626 49.5661 114.7 48.4916 114.7 47.1661C114.7 45.8406 113.626 44.7661 112.3 44.7661C110.975 44.7661 109.9 45.8406 109.9 47.1661C109.9 48.4916 110.975 49.5661 112.3 49.5661Z" fill="#E9000E"/>
<path id="Vector_20" d="M60.9708 71.8621C58.6728 71.8668 56.4703 72.7818 54.8454 74.4067C53.2205 76.0316 52.3055 78.2341 52.3008 80.5321C52.3008 86.4781 60.1008 95.2201 60.3828 95.5861C60.4541 95.6771 60.5451 95.7507 60.6491 95.8014C60.753 95.852 60.8671 95.8783 60.9828 95.8783C61.0984 95.8783 61.2125 95.852 61.3165 95.8014C61.4204 95.7507 61.5115 95.6771 61.5828 95.5861C61.9488 95.2201 69.6648 86.4781 69.6648 80.5321C69.66 78.2299 68.7417 76.0238 67.1116 74.3982C65.4815 72.7726 63.2729 71.8605 60.9708 71.8621ZM60.9708 84.8641C59.8223 84.8625 58.7214 84.4056 57.9093 83.5935C57.0973 82.7814 56.6404 81.6805 56.6388 80.5321C56.6528 79.3875 57.1137 78.2938 57.9231 77.4844C58.7325 76.675 59.8262 76.2141 60.9708 76.2001C62.1192 76.2016 63.2201 76.6586 64.0322 77.4706C64.8443 78.2827 65.3012 79.3836 65.3028 80.5321C65.3084 81.1025 65.2002 81.6683 64.9845 82.1965C64.7687 82.7246 64.4499 83.2044 64.0465 83.6078C63.6431 84.0111 63.1633 84.33 62.6352 84.5457C62.1071 84.7615 61.5412 84.8697 60.9708 84.8641Z" fill="#E8E8E8"/>
<path id="Vector_21" d="M60.9703 105.216C62.2958 105.216 63.3703 104.141 63.3703 102.816C63.3703 101.491 62.2958 100.416 60.9703 100.416C59.6448 100.416 58.5703 101.491 58.5703 102.816C58.5703 104.141 59.6448 105.216 60.9703 105.216Z" fill="#E8E8E8"/>
</g>
<defs>
<clipPath id="clip0_7211_71882">
<rect width="120" height="108" fill="white" transform="translate(0.970703 0.780029)"/>
</clipPath>
</defs>
</svg>
