<svg width="121" height="109" viewBox="0 0 121 109" fill="none" xmlns="http://www.w3.org/2000/svg">
<g id="qc.svg" clip-path="url(#clip0_7211_71952)">
<g id="Group">
<g id="Group_2">
<g id="Group_3">
<path id="Vector" d="M41.5405 51.3301L14.6005 61.0501L0.980469 82.2301H16.0405L23.7805 95.1901L41.5405 63.5701V51.3301Z" fill="#E9000E"/>
<path id="Vector_2" d="M41.5391 51.3301L68.4791 61.0501L82.1591 82.2301H67.0391L59.3591 95.1901L41.5391 63.5701V51.3301Z" fill="#404243"/>
<path id="Vector_3" d="M79.2819 36.63C79.2819 40.47 74.4819 43.47 73.3419 46.95C72.2019 50.55 74.2419 55.83 72.0819 58.77C69.8619 61.77 64.2219 61.41 61.2219 63.63C58.2219 65.79 56.8419 71.31 53.2419 72.45C49.7619 73.59 45.4419 69.99 41.6019 69.99C37.7619 69.99 33.3819 73.59 29.9619 72.45C26.3619 71.31 24.9819 65.79 21.9819 63.63C18.9819 61.41 13.2819 61.77 11.1219 58.77C8.96188 55.77 11.0019 50.49 9.86188 46.95C8.72187 43.47 3.92188 40.47 3.92188 36.63C3.92188 32.79 8.72187 29.79 9.86188 26.31C11.0019 22.71 8.96188 17.43 11.1219 14.49C13.3419 11.49 18.9819 11.85 21.9819 9.63C24.9819 7.47 26.3619 1.95 29.9619 0.810005C33.4419 -0.329995 37.7619 3.27 41.6019 3.27C45.4419 3.27 49.8219 -0.329995 53.2419 0.810005C56.8419 1.95 58.2219 7.47 61.2219 9.63C64.2219 11.85 69.9219 11.49 72.0819 14.49C74.2419 17.49 72.2019 22.77 73.3419 26.31C74.4219 29.79 79.2819 32.79 79.2819 36.63Z" fill="#E9000E"/>
<path id="Vector_4" d="M41.5396 9.68994C26.6596 9.68994 14.5996 21.7499 14.5996 36.6299C14.5996 51.5099 26.6596 63.5699 41.5396 63.5699C56.4196 63.5699 68.4796 51.5099 68.4796 36.6299C68.4796 21.7499 56.4196 9.68994 41.5396 9.68994ZM41.5396 59.1899C29.1196 59.1899 18.9796 49.1099 18.9796 36.6299C18.9796 24.1499 29.0596 14.0699 41.5396 14.0699C54.0196 14.0699 64.0996 24.1499 64.0996 36.6299C64.0996 49.1099 54.0196 59.1899 41.5396 59.1899Z" fill="#E9000E"/>
<path id="Vector_5" d="M41.5391 23.79L46.0391 31.83L55.0991 33.57L48.7991 40.35L49.9391 49.47L41.5391 45.57L33.1991 49.47L34.3391 40.35L28.0391 33.57L37.0991 31.83L41.5391 23.79Z" fill="#E9000E"/>
</g>
<g id="Group_4">
<path id="Vector_6" d="M86.4731 69.7694L82.2305 74.012L90.8429 82.6244L95.0855 78.3818L86.4731 69.7694Z" fill="#404243"/>
<path id="Vector_7" opacity="0.5" d="M69.5601 78.5701C81.4232 78.5701 91.0401 68.9532 91.0401 57.0901C91.0401 45.227 81.4232 35.6101 69.5601 35.6101C57.697 35.6101 48.0801 45.227 48.0801 57.0901C48.0801 68.9532 57.697 78.5701 69.5601 78.5701Z" fill="white"/>
<path id="Vector_8" opacity="0.5" d="M58.3401 68.2499C52.1601 62.0699 52.1601 52.0499 58.3401 45.9299" stroke="white" stroke-width="4.2" stroke-miterlimit="10" stroke-linecap="round"/>
<path id="Vector_9" d="M50.0004 37.5299C39.2004 48.3299 39.2004 65.8499 50.0004 76.6499C60.8004 87.4499 78.3204 87.4499 89.1204 76.6499C99.9204 65.8499 99.9204 48.3299 89.1204 37.5299C78.2604 26.7299 60.8004 26.7299 50.0004 37.5299ZM84.7404 72.2699C76.3404 80.6699 62.7204 80.6699 54.3804 72.2699C45.9804 63.8699 45.9804 50.2499 54.3804 41.9099C62.7804 33.5099 76.4004 33.5099 84.7404 41.9099C93.1404 50.2499 93.1404 63.8699 84.7404 72.2699Z" fill="#E9000E"/>
<path id="Vector_10" d="M120.44 101.13L113.6 107.97C112.88 108.69 111.62 108.69 110.9 107.97L89.54 86.61C88.82 85.89 88.82 84.63 89.54 83.91L96.38 77.07C97.1 76.35 98.36 76.35 99.08 77.07L120.44 98.43C121.16 99.15 121.16 100.41 120.44 101.13Z" fill="#404243"/>
</g>
</g>
</g>
</g>
<defs>
<clipPath id="clip0_7211_71952">
<rect width="120" height="108" fill="white" transform="translate(0.980469 0.51001)"/>
</clipPath>
</defs>
</svg>
