<svg width="96" height="65" viewBox="0 0 96 65" fill="none" xmlns="http://www.w3.org/2000/svg">
<rect width="96" height="64" transform="translate(0 0.0698242)" fill="white"/>
<g clip-path="url(#clip0_6507_61036)">
<path fill-rule="evenodd" clip-rule="evenodd" d="M29.5393 30.0288C28.8066 30.0266 28.0964 30.2816 27.5325 30.7494V30.1014H25.6997V37.239H27.605V32.6789C27.8099 32.4122 28.0716 32.1945 28.371 32.0415C28.6704 31.8884 29.0001 31.8038 29.3362 31.7939C29.5962 31.7797 29.8563 31.8192 30.1003 31.91V30.0772C29.9151 30.0441 29.7274 30.0279 29.5393 30.0288Z" fill="#293E40"/>
<path fill-rule="evenodd" clip-rule="evenodd" d="M12.9236 35.0631C13.4648 35.5195 14.15 35.7696 14.8579 35.7692C15.3705 35.7692 15.7671 35.5177 15.7671 35.1647C15.7816 34.0911 12.3385 34.4877 12.3385 32.1762C12.3385 30.8076 13.6587 29.9565 15.0659 29.9565C15.9249 29.9556 16.7654 30.2061 17.4838 30.6771L16.5747 32.0698C16.1801 31.7732 15.7042 31.6044 15.211 31.5862C14.6839 31.5862 14.2438 31.7941 14.2438 32.1617C14.2438 33.0901 17.6869 32.7226 17.6869 35.1937C17.6869 36.5477 16.3522 37.3891 14.8579 37.3891C13.8277 37.3732 12.8282 37.035 12 36.422L12.9236 35.0631Z" fill="#293E40"/>
<path fill-rule="evenodd" clip-rule="evenodd" d="M24.8874 33.6027C24.8874 31.6152 23.4947 29.9565 21.5266 29.9565C19.4182 29.9565 18.069 31.6926 18.069 33.6753C18.0469 34.1697 18.1282 34.6633 18.3076 35.1245C18.4871 35.5857 18.7607 36.0044 19.1112 36.3539C19.4616 36.7034 19.881 36.976 20.3427 37.1543C20.8044 37.3325 21.2982 37.4125 21.7925 37.3891C22.3389 37.3933 22.8799 37.2817 23.38 37.0616C23.8801 36.8416 24.3279 36.5181 24.694 36.1125L23.6059 35.0148C23.3786 35.2658 23.103 35.4684 22.7955 35.6105C22.4881 35.7526 22.1552 35.8312 21.8167 35.8417C21.3388 35.8611 20.8718 35.6963 20.5118 35.3814C20.1519 35.0665 19.9266 34.6254 19.8824 34.1492H24.8391C24.8708 33.9687 24.887 33.7859 24.8874 33.6027ZM20.0033 32.7516C20.0719 32.3983 20.2615 32.0799 20.5396 31.8513C20.8176 31.6227 21.1666 31.4982 21.5266 31.4992C21.8738 31.4992 22.209 31.6268 22.4685 31.8577C22.7279 32.0885 22.8935 32.4067 22.9338 32.7516H20.0033Z" fill="#293E40"/>
<path fill-rule="evenodd" clip-rule="evenodd" d="M34.6413 34.4586L36.5901 30.1016H38.5728L35.2989 37.2392H33.9836L30.7146 30.1016H32.6924L34.6413 34.4586Z" fill="#293E40"/>
<path fill-rule="evenodd" clip-rule="evenodd" d="M40.1683 26.7502C40.4094 26.754 40.6441 26.8289 40.8427 26.9657C41.0413 27.1024 41.1951 27.2948 41.2848 27.5187C41.3744 27.7425 41.3959 27.9879 41.3465 28.2239C41.2972 28.46 41.1791 28.6762 41.0073 28.8453C40.8354 29.0145 40.6174 29.1291 40.3807 29.1748C40.1439 29.2204 39.8989 29.1951 39.6764 29.102C39.454 29.0088 39.2641 28.852 39.1305 28.6513C38.9969 28.4505 38.9256 28.2148 38.9255 27.9736C38.9255 27.8113 38.9578 27.6506 39.0205 27.5009C39.0832 27.3512 39.175 27.2154 39.2907 27.1016C39.4064 26.9877 39.5435 26.898 39.6942 26.8377C39.8449 26.7773 40.006 26.7476 40.1683 26.7502Z" fill="#293E40"/>
<path d="M41.1211 30.1016H39.2158V37.2392H41.1211V30.1016Z" fill="#293E40"/>
<path fill-rule="evenodd" clip-rule="evenodd" d="M49.0033 35.7837C48.6426 36.2995 48.1584 36.7166 47.595 36.9971C47.0315 37.2775 46.4068 37.4124 45.7778 37.3892C44.7929 37.3892 43.8482 36.9979 43.1517 36.3014C42.4552 35.605 42.064 34.6603 42.064 33.6753C42.064 32.6903 42.4552 31.7457 43.1517 31.0492C43.8482 30.3527 44.7929 29.9614 45.7778 29.9614C46.3543 29.9594 46.9236 30.0891 47.4424 30.3405C47.9611 30.5919 48.4156 30.9585 48.7712 31.4122L47.4365 32.5534C47.2476 32.2934 47.0006 32.081 46.7152 31.9333C46.4297 31.7855 46.1137 31.7064 45.7924 31.7023C45.5363 31.7023 45.2828 31.7531 45.0465 31.8519C44.8102 31.9506 44.5959 32.0952 44.416 32.2774C44.236 32.4596 44.0941 32.6757 43.9983 32.9132C43.9025 33.1506 43.8548 33.4048 43.858 33.6608C43.8505 33.9194 43.8963 34.1767 43.9927 34.4167C44.0891 34.6568 44.2339 34.8743 44.4181 35.0559C44.6024 35.2374 44.8221 35.379 45.0635 35.4718C45.305 35.5646 45.563 35.6066 45.8214 35.5951C46.1605 35.5887 46.4929 35.4994 46.7896 35.3351C47.0863 35.1707 47.3383 34.9362 47.5236 34.6522L49.0033 35.7837Z" fill="#293E40"/>
<path fill-rule="evenodd" clip-rule="evenodd" d="M55.9235 36.1077C55.5575 36.5133 55.1097 36.8368 54.6096 37.0568C54.1095 37.2769 53.5684 37.3885 53.0221 37.3843C52.5283 37.4069 52.0353 37.3265 51.5743 37.1483C51.1133 36.97 50.6944 36.6979 50.3442 36.3491C49.994 36.0003 49.7202 35.5824 49.5402 35.1221C49.3602 34.6618 49.2779 34.1691 49.2985 33.6753C49.2985 31.6926 50.6477 29.9565 52.7609 29.9565C54.7243 29.9565 56.117 31.6152 56.117 33.6027C56.1181 33.7858 56.1035 33.9686 56.0735 34.1492H51.1313C51.1755 34.6254 51.4008 35.0665 51.7607 35.3814C52.1207 35.6963 52.5877 35.8611 53.0656 35.8417C53.4041 35.8312 53.737 35.7526 54.0444 35.6105C54.3519 35.4684 54.6275 35.2658 54.8548 35.0148L55.9235 36.1077ZM54.1536 32.7516C54.1065 32.4095 53.9389 32.0955 53.681 31.8659C53.423 31.6363 53.0917 31.5063 52.7464 31.4992C52.3857 31.4971 52.0355 31.6211 51.7565 31.8498C51.4774 32.0785 51.2871 32.3975 51.2183 32.7516H54.1536Z" fill="#293E40"/>
<path fill-rule="evenodd" clip-rule="evenodd" d="M56.8567 37.2393V30.1017H58.6895V30.6771C59.2545 30.2079 59.9667 29.9528 60.7011 29.9566C61.1704 29.9552 61.6342 30.0572 62.0596 30.2553C62.485 30.4534 62.8616 30.7427 63.1626 31.1027C63.6461 31.6636 63.8976 32.3841 63.8976 33.6028V37.2393H61.9875V33.4577C62.0139 33.2175 61.9901 32.9744 61.9177 32.7438C61.8453 32.5132 61.7258 32.3002 61.5667 32.1182C61.2754 31.8492 60.8894 31.7067 60.4932 31.7216C60.1582 31.7314 59.8296 31.8154 59.5311 31.9676C59.2325 32.1198 58.9715 32.3364 58.7668 32.6018V37.2393H56.8567Z" fill="#293E40"/>
<path fill-rule="evenodd" clip-rule="evenodd" d="M68.8012 29.9565C67.9655 29.9556 67.1487 30.2055 66.4567 30.6741C65.7647 31.1426 65.2292 31.8081 64.9197 32.5844C64.6103 33.3607 64.541 34.212 64.7209 35.0282C64.9008 35.8443 65.3216 36.5876 65.9287 37.1619C66.0714 37.2979 66.258 37.3785 66.4548 37.3892C66.6516 37.3998 66.8458 37.3398 67.0023 37.2199C67.5158 36.8372 68.1391 36.6305 68.7794 36.6305C69.4198 36.6305 70.0431 36.8372 70.5566 37.2199C70.7144 37.3395 70.9097 37.3989 71.1074 37.3873C71.3051 37.3758 71.4921 37.2942 71.635 37.157C72.2381 36.5848 72.6566 35.8454 72.8367 35.0337C73.0168 34.222 72.9503 33.375 72.6458 32.6013C72.3414 31.8277 71.8127 31.1626 71.1277 30.6914C70.4427 30.2201 69.6326 29.9643 68.8012 29.9565ZM68.8012 36.2092C68.5268 36.2165 68.2537 36.1679 67.9987 36.0662C67.7437 35.9646 67.5121 35.812 67.318 35.6179C67.1239 35.4238 66.9713 35.1921 66.8697 34.9371C66.768 34.6821 66.7193 34.4091 66.7267 34.1347C66.7131 33.8535 66.7567 33.5725 66.855 33.3087C66.9533 33.0449 67.1041 32.8037 67.2983 32.5999C67.4925 32.3961 67.726 32.2339 67.9848 32.123C68.2435 32.0122 68.5221 31.955 68.8036 31.955C69.0851 31.955 69.3637 32.0122 69.6225 32.123C69.8812 32.2339 70.1148 32.3961 70.309 32.5999C70.5032 32.8037 70.654 33.0449 70.7522 33.3087C70.8505 33.5725 70.8942 33.8535 70.8806 34.1347C70.8879 34.4095 70.8392 34.683 70.7372 34.9383C70.6352 35.1936 70.4823 35.4255 70.2876 35.6197C70.093 35.8139 69.8608 35.9663 69.6052 36.0677C69.3496 36.169 69.076 36.2172 68.8012 36.2092Z" fill="#81B5A1"/>
<path fill-rule="evenodd" clip-rule="evenodd" d="M76.7077 37.2392H75.286L72.457 30.1016H74.3575L75.9098 34.183L77.4331 30.1016H79.024L80.5328 34.183L82.0948 30.1016H84.0001L81.1663 37.2392H79.7494L78.2261 33.1771L76.7077 37.2392Z" fill="#293E40"/>
<path d="M82.9555 36.335V36.4897H82.7137V37.2393H82.5396V36.4897H82.2979V36.335H82.9555Z" fill="#293E40"/>
<path d="M83.5454 36.8766L83.8742 36.335H84V37.2393H83.8259V36.7315L83.6083 37.0893H83.4825L83.2697 36.7315V37.2393H83.0908V36.335H83.2166L83.5454 36.8766Z" fill="#293E40"/>
</g>
<defs>
<clipPath id="clip0_6507_61036">
<rect width="72" height="10.6387" fill="white" transform="translate(12 26.7505)"/>
</clipPath>
</defs>
</svg>
