<svg width="96" height="65" viewBox="0 0 96 65" fill="none" xmlns="http://www.w3.org/2000/svg">
<rect width="96" height="64" transform="translate(0 0.0698242)" fill="white"/>
<g clip-path="url(#clip0_6507_61054)">
<path d="M39.8784 17.4395H25.8528C25.8528 19.1099 26.5152 20.7227 27.696 21.9035C28.8768 23.0843 30.4896 23.7467 32.16 23.7467H34.752V26.2235C34.752 29.7083 37.5744 32.5307 41.0592 32.5307V18.6491C41.088 17.9867 40.5408 17.4395 39.8784 17.4395Z" fill="#2684FF"/>
<path d="M32.9377 24.4092H18.9409C18.9409 27.894 21.7633 30.7164 25.2481 30.7164H27.8401V33.222C27.8401 36.7068 30.6625 39.5292 34.1761 39.5292V25.6188C34.1473 24.9564 33.6001 24.4092 32.9377 24.4092Z" fill="url(#paint0_linear_6507_61054)"/>
<path d="M25.9968 31.3784H12C12 34.8632 14.8224 37.7144 18.336 37.7144H20.928V40.1912C20.928 43.676 23.7504 46.4984 27.2352 46.4984V32.588C27.2352 31.9256 26.688 31.3784 25.9968 31.3784Z" fill="url(#paint1_linear_6507_61054)"/>
<path d="M50.448 22.9116H53.0112V35.958C53.0112 39.414 51.4848 41.8044 47.9712 41.8044C46.9344 41.8332 45.8688 41.6604 44.8896 41.3148V38.8092C45.7248 39.126 46.6464 39.2988 47.5392 39.2988C49.6992 39.2988 50.448 38.0028 50.448 36.1308V22.9116ZM57.6769 21.9036C58.1377 21.8748 58.5984 22.0476 58.944 22.3644C59.2608 22.6812 59.4337 23.142 59.4049 23.6028C59.4049 24.5532 58.6272 25.302 57.7056 25.302C56.7552 25.302 56.0064 24.5244 56.0064 23.6028C55.9776 23.142 56.1504 22.6812 56.4672 22.3356C56.784 22.0188 57.2449 21.846 57.6769 21.9036ZM56.4384 27.3756H58.8864V41.6315H56.4384V27.3756Z" fill="#253858"/>
<path d="M62.6016 27.3757H64.992V29.8813C65.8272 28.2109 67.2672 27.0013 70.032 27.1741V29.5645C66.8928 29.2477 64.992 30.1981 64.992 33.2221V41.6605H62.6016V27.3757Z" fill="#253858"/>
<path d="M81.552 27.3754V29.881C80.688 28.0378 79.104 27.0874 77.0016 27.0874C72.9984 27.0874 71.0112 30.4858 71.0112 34.5178C71.0112 38.7226 72.912 41.9482 76.7136 41.9482C78.9024 41.9482 80.6304 40.9978 81.5232 39.097V41.6602H83.9712V27.3754H81.552ZM81.552 35.0938C81.552 38.2618 79.5936 39.673 77.376 39.673C74.8416 39.673 73.4592 37.9738 73.4592 34.5178C73.4592 31.2058 74.8704 29.3914 77.664 29.3914C79.7664 29.3914 81.552 30.8026 81.552 33.9706V35.0938Z" fill="#253858"/>
</g>
<defs>
<linearGradient id="paint0_linear_6507_61054" x1="33.8604" y1="24.4351" x2="27.9358" y2="30.6139" gradientUnits="userSpaceOnUse">
<stop offset="0.18" stop-color="#0052CC"/>
<stop offset="1" stop-color="#2684FF"/>
</linearGradient>
<linearGradient id="paint1_linear_6507_61054" x1="27.3237" y1="31.4518" x2="20.4711" y2="38.1907" gradientUnits="userSpaceOnUse">
<stop offset="0.18" stop-color="#0052CC"/>
<stop offset="1" stop-color="#2684FF"/>
</linearGradient>
<clipPath id="clip0_6507_61054">
<rect width="72" height="29.088" fill="white" transform="translate(12 17.5259)"/>
</clipPath>
</defs>
</svg>
