<svg width="96" height="65" viewBox="0 0 96 65" fill="none" xmlns="http://www.w3.org/2000/svg">
<rect width="96" height="64" transform="translate(0 0.0698242)" fill="white"/>
<g clip-path="url(#clip0_6507_61068)">
<path d="M12 33.9234H15.1574L15.3829 31.2169L12.4509 30.5405L12 33.9234Z" fill="#4C4C4C"/>
<path d="M12.5637 30.0894L15.3828 30.766L16.0594 28.3979L13.6914 27.1577L12.5637 30.0894Z" fill="#4C4C4C"/>
<path d="M13.9167 26.7065L16.172 27.9469L17.9764 26.7065L16.285 24.7896L13.9167 26.7065Z" fill="#4C4C4C"/>
<path d="M26.5462 33.9234H23.389L23.1633 31.2169L26.0954 30.5405L26.5462 33.9234Z" fill="#4C4C4C"/>
<path d="M25.9825 30.0894L23.1635 30.766L22.4871 28.3979L24.8549 27.1577L25.9825 30.0894Z" fill="#4C4C4C"/>
<path d="M24.6294 26.7065L22.3741 27.9469L20.5701 26.7065L22.2615 24.7896L24.6294 26.7065Z" fill="#4C4C4C"/>
<path d="M16.8489 24.4511L18.5403 26.4808H20.1188L21.585 24.4511L20.1188 24H18.5007L16.8489 24.4511Z" fill="#4C4C4C"/>
<path d="M12 33.9234H15.1574L15.3829 31.2169L12.4509 30.5405L12 33.9234Z" fill="#9C0000"/>
<path d="M12.5637 30.0894L15.3828 30.766L16.0594 28.3979L13.6914 27.1577L12.5637 30.0894Z" fill="#B50808"/>
<path d="M13.9167 26.7065L16.172 27.9469L17.9764 26.7065L16.285 24.7896L13.9167 26.7065Z" fill="#C61818"/>
<path d="M26.5462 33.9234H23.389L23.1633 31.2169L26.0954 30.5405L26.5462 33.9234Z" fill="#9C0000"/>
<path d="M25.9825 30.0894L23.1635 30.766L22.4871 28.3979L24.8549 27.1577L25.9825 30.0894Z" fill="#B50808"/>
<path d="M24.6294 26.7065L22.3741 27.9469L20.5701 26.7065L22.2615 24.7896L24.6294 26.7065Z" fill="#C61818"/>
<path d="M16.8489 24.4511L18.5403 26.4808H20.1188L21.585 24.4511L20.1188 24H18.5007L16.8489 24.4511Z" fill="#CE3129"/>
<path d="M30.3994 26.8145V33.9186H31.6257V31.3814L33.9374 33.9186H35.0415V33.4205L33.0259 31.325C33.5512 31.2585 33.9656 31.0039 34.271 30.5638C34.5764 30.1238 34.7342 29.6267 34.7408 29.0697C34.7507 28.4232 34.5421 27.8885 34.1206 27.4675C33.6992 27.0466 33.0057 26.8295 32.0345 26.8145H30.3994ZM36.0705 26.8145V33.9186H40.0172V32.8003H37.2968V30.7706H39.2937V29.6664H37.2968V27.9092H39.9045V26.8145H36.0705ZM41.2012 26.8145V33.9186H43.231C43.8968 33.9074 44.4335 33.7326 44.8379 33.3923C45.2423 33.0521 45.5351 32.6125 45.7165 32.0768C45.8979 31.5411 45.9828 30.9734 45.9796 30.3759C45.9847 29.7852 45.9101 29.2242 45.7494 28.6845C45.5887 28.1447 45.3146 27.7016 44.9271 27.3548C44.5396 27.008 44.0049 26.8263 43.3297 26.8145H41.2012ZM31.6257 27.8763H32.0345C32.544 27.8798 32.9115 27.9832 33.1433 28.1911C33.3752 28.399 33.4898 28.6903 33.4863 29.0603C33.4856 29.4442 33.386 29.7693 33.1809 30.0376C32.9758 30.3059 32.6704 30.444 32.2694 30.4558C32.1144 30.4497 31.9696 30.4281 31.8372 30.3853C31.7047 30.3426 31.6342 30.3162 31.6257 30.3101V27.8763ZM42.4182 27.8763H43.2874C43.7171 27.8893 44.0366 28.0351 44.2459 28.3133C44.4551 28.5915 44.5907 28.9221 44.6546 29.3094C44.7185 29.6966 44.7455 30.0594 44.7392 30.3994C44.7448 30.7492 44.7135 31.1137 44.6405 31.4895C44.5676 31.8652 44.4219 32.185 44.2036 32.4479C43.9853 32.7109 43.6614 32.8452 43.231 32.8567H42.4182V27.8763Z" fill="#9C0000"/>
<path d="M47.436 26.8145V33.9186H48.667V30.0047L48.5731 29.1825L50.2222 33.9186H51.2371L52.8816 29.1825L52.7923 30.0047V33.9186H54.0233V26.8145H52.5762L50.8847 31.6304C50.8288 31.7998 50.7922 31.9445 50.7673 32.0674C50.7424 32.1902 50.7292 32.2541 50.7297 32.26C50.7301 32.2548 50.717 32.1928 50.6921 32.0721C50.6672 31.9513 50.6258 31.8047 50.5699 31.6304L48.8785 26.8145H47.436ZM55.6443 26.8145V33.9186H56.8612V26.8145H55.6443ZM58.4305 26.8145V33.9186H59.6615V29.8826C59.6582 29.6364 59.6422 29.4184 59.6192 29.2342C59.5962 29.05 59.5849 28.957 59.5816 28.9476L61.8228 33.9186H63.0068V26.8145H61.7805C61.7805 27.9347 61.7805 28.7723 61.7805 29.3281C61.7805 29.884 61.7805 30.2727 61.7805 30.4887C61.7805 30.7047 61.7805 30.8626 61.7805 30.9632C61.7805 31.0638 61.7805 31.2187 61.7805 31.4284C61.7782 31.411 61.7434 31.2898 61.6819 31.0666C61.6203 30.8434 61.5442 30.6198 61.4516 30.3994L59.8729 26.8145H58.4305ZM64.656 26.8145V33.9186H68.6027V32.8003H65.8823V30.7706H67.8792V29.6664H65.8823V27.9092H68.49V26.8145H64.656Z" fill="#CE3129"/>
<path d="M31.6209 35.8871C31.6101 35.883 31.5356 35.8931 31.3954 35.92C31.2551 35.9469 31.1128 36.0148 30.9725 36.122C30.8323 36.2293 30.7578 36.4018 30.747 36.6389V36.902H30.4463V37.2544L30.747 37.3061V39.2043H31.2403V37.3155H31.6679V36.902H31.2403V36.6624C31.2461 36.5344 31.2878 36.4403 31.3625 36.3805C31.4371 36.3206 31.5087 36.2843 31.5833 36.2677C31.658 36.2511 31.6997 36.2421 31.7055 36.2442L31.6209 35.8871ZM32.0156 35.9388V38.2411C32.018 38.5094 32.0325 38.7204 32.0626 38.8754C32.0926 39.0303 32.1236 39.1403 32.1518 39.2043H32.6593C32.6074 39.0337 32.569 38.8779 32.5418 38.7344C32.5146 38.5909 32.4997 38.4257 32.4995 38.2411V35.9388H32.0156ZM38.523 35.9388V38.9693C38.6414 39.0602 38.7722 39.1346 38.913 39.1902C39.0537 39.2458 39.1986 39.2732 39.3499 39.2747C39.5988 39.2695 39.7975 39.2002 39.9419 39.0633C40.0864 38.9264 40.1864 38.7528 40.2473 38.5465C40.3082 38.3401 40.3384 38.1304 40.3366 37.9169C40.3377 37.6455 40.2692 37.3989 40.1299 37.1792C39.9906 36.9596 39.7741 36.8444 39.4815 36.8315C39.4007 36.8342 39.315 36.8588 39.2278 36.9067C39.1406 36.9546 39.0712 37.0098 39.0163 37.0711V35.9388H38.523ZM40.8112 35.9388V38.2411C40.8136 38.5094 40.8281 38.7204 40.8581 38.8754C40.8882 39.0303 40.9191 39.1403 40.9474 39.2043H41.4549C41.403 39.0337 41.3646 38.8779 41.3374 38.7344C41.3102 38.5909 41.2953 38.4257 41.2951 38.2411V35.9388H40.8112ZM37.6115 36.0093C37.5215 36.0116 37.446 36.0422 37.3813 36.1032C37.3166 36.1643 37.2809 36.2419 37.2779 36.3335C37.2804 36.4221 37.3118 36.4945 37.3719 36.5496C37.432 36.6047 37.5056 36.6325 37.5927 36.6342C37.6826 36.6318 37.7582 36.6013 37.8229 36.5402C37.8876 36.4791 37.9233 36.4016 37.9263 36.31C37.9237 36.2214 37.8924 36.149 37.8323 36.0938C37.7722 36.0387 37.6986 36.0109 37.6115 36.0093ZM52.0406 36.0093C51.9506 36.0116 51.875 36.0422 51.8103 36.1032C51.7456 36.1643 51.71 36.2419 51.707 36.3335C51.7095 36.4221 51.7408 36.4945 51.8009 36.5496C51.861 36.6047 51.9346 36.6325 52.0218 36.6342C52.1117 36.6318 52.1873 36.6013 52.252 36.5402C52.3167 36.4791 52.3523 36.4016 52.3554 36.31C52.3528 36.2214 52.3215 36.149 52.2614 36.0938C52.2013 36.0387 52.1277 36.0109 52.0406 36.0093ZM57.1337 36.4885V36.902H56.8189V37.2544L57.1149 37.3061V38.6968C57.1131 38.8566 57.1503 38.9905 57.223 39.1009C57.2957 39.2113 57.4151 39.27 57.5848 39.2747C57.6938 39.275 57.7823 39.2644 57.8479 39.2418C57.9135 39.2192 57.9926 39.1828 58.0875 39.1338L57.9701 38.7861C57.9666 38.7886 57.9412 38.8012 57.8902 38.819C57.8392 38.8368 57.7832 38.8446 57.7257 38.8472C57.6715 38.845 57.6402 38.8293 57.6271 38.7955C57.614 38.7616 57.6061 38.7225 57.6083 38.6827V37.3202H58.017V36.902H57.5989V36.4885H57.1337ZM83.0459 36.4885V36.902H82.7311V37.2544L83.0271 37.3061V38.6968C83.0252 38.8566 83.0624 38.9905 83.1352 39.1009C83.2079 39.2113 83.3273 39.27 83.497 39.2747C83.606 39.275 83.6945 39.2644 83.7601 39.2418C83.8256 39.2192 83.9047 39.1828 83.9997 39.1338L83.8822 38.7861C83.8788 38.7886 83.8534 38.8012 83.8024 38.819C83.7514 38.8368 83.6954 38.8446 83.6379 38.8472C83.5837 38.845 83.5524 38.8293 83.5392 38.7955C83.5261 38.7616 83.5183 38.7225 83.5204 38.6827V37.3202H83.9292V36.902H83.511V36.4885H83.0459ZM34.0453 36.8315C33.7259 36.8437 33.4773 36.9674 33.303 37.198C33.1286 37.4286 33.0421 37.6933 33.0399 37.9967C33.0384 38.1959 33.0668 38.3944 33.1244 38.5887C33.1821 38.7831 33.2761 38.9431 33.411 39.0727C33.546 39.2023 33.7305 39.2697 33.9608 39.2747C34.0969 39.2706 34.2398 39.233 34.3883 39.162C34.5368 39.0909 34.6633 39.011 34.7689 38.9223L34.6045 38.6028C34.5213 38.6669 34.4257 38.7256 34.3131 38.7767C34.2006 38.8278 34.0909 38.8536 33.989 38.8566C33.8222 38.8419 33.7047 38.7526 33.6366 38.584C33.5684 38.4155 33.5355 38.2557 33.5379 38.1095C33.5371 38.0813 33.5386 38.0531 33.5426 38.0249H34.8864C34.8862 37.9732 34.8877 37.9216 34.8864 37.8699C34.885 37.8182 34.8818 37.7665 34.8817 37.7148C34.8691 37.4869 34.7838 37.2844 34.6279 37.1087C34.4721 36.933 34.2787 36.841 34.0453 36.8315ZM42.8409 36.8315C42.5215 36.8437 42.2729 36.9674 42.0985 37.198C41.9242 37.4286 41.8377 37.6933 41.8354 37.9967C41.8339 38.1959 41.8623 38.3944 41.92 38.5887C41.9777 38.7831 42.0717 38.9431 42.2066 39.0727C42.3415 39.2023 42.5261 39.2697 42.7563 39.2747C42.8925 39.2706 43.0354 39.233 43.1839 39.162C43.3324 39.0909 43.4589 39.011 43.5645 38.9223L43.4 38.6028C43.3168 38.6669 43.2213 38.7256 43.1087 38.7767C42.9962 38.8278 42.8865 38.8536 42.7845 38.8566C42.6177 38.8419 42.5003 38.7526 42.4321 38.584C42.364 38.4155 42.3311 38.2557 42.3335 38.1095C42.3327 38.0813 42.3342 38.0531 42.3382 38.0249H43.6819C43.6818 37.9732 43.6833 37.9216 43.6819 37.8699C43.6806 37.8182 43.6774 37.7665 43.6772 37.7148C43.6647 37.4869 43.5794 37.2844 43.4235 37.1087C43.2677 36.933 43.0743 36.841 42.8409 36.8315ZM46.6232 36.8315C46.4902 36.838 46.3786 36.8709 46.2896 36.9302C46.2006 36.9895 46.1431 37.0365 46.1158 37.0711V36.902H45.6177V40.0265H46.1158V39.0398C46.1627 39.1215 46.2309 39.1807 46.3178 39.2183C46.4047 39.256 46.4963 39.2752 46.595 39.2747C46.8307 39.2688 47.0115 39.1982 47.14 39.0586C47.2686 38.919 47.3587 38.744 47.4078 38.5418C47.457 38.3396 47.4806 38.1436 47.4783 37.9498C47.4794 37.6791 47.4109 37.4281 47.2716 37.198C47.1323 36.9679 46.9158 36.8461 46.6232 36.8315ZM48.8785 36.8315C48.7978 36.8415 48.7195 36.8838 48.6435 36.9537C48.5676 37.0236 48.5269 37.0612 48.5214 37.0711V36.902H48.0233V39.2043H48.5167V37.4893C48.5214 37.4807 48.5566 37.4462 48.6201 37.3859C48.6835 37.3256 48.7469 37.2912 48.8127 37.2826C48.873 37.2861 48.9309 37.3002 48.9865 37.3249C49.0421 37.3495 49.0719 37.3636 49.0758 37.3671L49.1557 36.902C49.1552 36.8991 49.1326 36.8897 49.0852 36.8691C49.0378 36.8485 48.9681 36.8345 48.8785 36.8315ZM50.3256 36.8315C50.0089 36.8466 49.7713 36.9774 49.6161 37.2262C49.461 37.475 49.3854 37.7514 49.3859 38.0531C49.3855 38.3569 49.461 38.6321 49.6161 38.8801C49.7713 39.128 50.0089 39.2599 50.3256 39.2747C50.6423 39.2599 50.8799 39.128 51.0351 38.8801C51.1902 38.6321 51.2658 38.3569 51.2653 38.0531C51.2658 37.7514 51.1902 37.475 51.0351 37.2262C50.8799 36.9774 50.6423 36.8466 50.3256 36.8315ZM53.7978 36.8315C53.4784 36.8437 53.2298 36.9674 53.0554 37.198C52.8811 37.4286 52.7946 37.6933 52.7923 37.9967C52.7908 38.1959 52.8192 38.3944 52.8769 38.5887C52.9345 38.7831 53.0286 38.9431 53.1635 39.0727C53.2984 39.2023 53.4829 39.2697 53.7132 39.2747C53.8494 39.2706 53.9923 39.233 54.1408 39.162C54.2893 39.0909 54.4157 39.011 54.5214 38.9223L54.3569 38.6028C54.2737 38.6669 54.1782 38.7256 54.0656 38.7767C53.953 38.8278 53.8434 38.8536 53.7414 38.8566C53.5746 38.8419 53.4571 38.7526 53.389 38.584C53.3209 38.4155 53.288 38.2557 53.2904 38.1095C53.2896 38.0813 53.2911 38.0531 53.295 38.0249H54.6388C54.6387 37.9732 54.6402 37.9216 54.6388 37.8699C54.6375 37.8182 54.6343 37.7665 54.6341 37.7148C54.6216 37.4869 54.5362 37.2844 54.3804 37.1087C54.2246 36.933 54.0311 36.841 53.7978 36.8315ZM55.9497 36.8315C55.7309 36.8364 55.5495 36.9027 55.4094 37.0288C55.2692 37.155 55.1663 37.3141 55.0993 37.5034C55.0322 37.6927 55.0001 37.8823 55.0006 38.0766C55.0005 38.2645 55.0355 38.4489 55.104 38.631C55.1724 38.8131 55.2757 38.9658 55.4141 39.0868C55.5525 39.2078 55.7259 39.2701 55.9356 39.2747C56.0658 39.2725 56.1966 39.24 56.3303 39.1808C56.464 39.1215 56.5807 39.0491 56.678 38.9599L56.5088 38.6216C56.4376 38.6787 56.3545 38.7331 56.2551 38.7814C56.1556 38.8296 56.0585 38.8535 55.9685 38.8566C55.8487 38.8515 55.756 38.803 55.6866 38.7062C55.6171 38.6094 55.5655 38.4955 55.5362 38.3679C55.507 38.2403 55.4931 38.1271 55.4939 38.0296C55.4935 37.9371 55.5097 37.8312 55.5409 37.7101C55.5722 37.5891 55.6235 37.4825 55.6913 37.3906C55.7591 37.2988 55.8452 37.2498 55.9544 37.245C56.0269 37.2457 56.1033 37.263 56.1799 37.292C56.2566 37.3209 56.3212 37.357 56.3773 37.4047L56.6263 37.1134C56.5467 37.0195 56.4422 36.949 56.3162 36.902C56.1902 36.855 56.0692 36.8315 55.9497 36.8315ZM61.0147 36.8315C60.9139 36.8363 60.8071 36.8672 60.6905 36.9208C60.5739 36.9743 60.4881 37.0217 60.4368 37.0664V36.902H59.9434V39.2043H60.4368V37.5128C60.4832 37.4734 60.5607 37.4241 60.6717 37.3624C60.7827 37.3008 60.8884 37.2655 60.9865 37.2591C61.0648 37.2606 61.1173 37.2904 61.1462 37.3436C61.1752 37.3969 61.1901 37.4642 61.1885 37.5504V39.2043H61.6819V37.4705C61.7348 37.4288 61.8033 37.3865 61.8886 37.3389C61.9738 37.2914 62.0682 37.2632 62.1705 37.2591C62.2488 37.2579 62.3013 37.2767 62.3302 37.3108C62.3592 37.3448 62.3741 37.4012 62.3725 37.4846V39.2043H62.8659V37.4846C62.8707 37.2991 62.8264 37.1468 62.7296 37.0242C62.6328 36.9015 62.4547 36.8361 62.1987 36.8315C62.0802 36.8373 61.9636 36.8721 61.8463 36.9349C61.729 36.9976 61.6312 37.0536 61.555 37.104C61.5058 37.0372 61.438 36.9765 61.3483 36.9208C61.2585 36.8651 61.1461 36.8349 61.0147 36.8315ZM64.3083 36.8315C64.1569 36.8345 64.0069 36.8767 63.862 36.9537C63.717 37.0306 63.5976 37.1246 63.5002 37.2403L63.6693 37.5363C63.745 37.4629 63.8386 37.3994 63.9465 37.3436C64.0545 37.2879 64.1598 37.2573 64.266 37.2544C64.3473 37.2528 64.4138 37.2677 64.4634 37.3014C64.5129 37.335 64.5372 37.3969 64.5385 37.4846V37.7148L63.5284 38.1518C63.4937 38.2176 63.4632 38.2927 63.4344 38.3773C63.4056 38.4619 63.3892 38.5418 63.3874 38.6169C63.3873 38.8232 63.4386 38.9857 63.5425 39.1009C63.6463 39.2161 63.8033 39.2729 64.0123 39.2747C64.1449 39.2741 64.2573 39.2436 64.3506 39.1855C64.4439 39.1273 64.5257 39.0451 64.5949 38.9364C64.6155 39.0408 64.6625 39.1222 64.7359 39.1808C64.8093 39.2393 64.8986 39.2691 65.0037 39.27C65.0628 39.2697 65.1208 39.2592 65.1775 39.2418C65.2343 39.2245 65.2876 39.2022 65.3373 39.1714L65.2104 38.9223C65.1963 38.9297 65.1822 38.9356 65.1681 38.9411C65.154 38.9467 65.1399 38.9502 65.1259 38.9505C65.0913 38.949 65.0682 38.938 65.0554 38.9129C65.0425 38.8879 65.0359 38.8581 65.0366 38.8284V37.4893C65.0327 37.2646 64.963 37.0985 64.8298 36.9913C64.6967 36.884 64.5237 36.8307 64.3083 36.8315ZM66.8737 36.8315C66.7688 36.8339 66.6568 36.8597 66.5401 36.9067C66.4234 36.9537 66.3255 37.0077 66.2441 37.0711V36.902H65.7508V39.2043H66.2441V37.5034C66.3044 37.4542 66.3905 37.4029 66.4978 37.3483C66.6051 37.2938 66.71 37.2637 66.8173 37.2591C66.8928 37.258 66.9433 37.2777 66.9677 37.3155C66.992 37.3532 67.0026 37.4151 67.0005 37.5034V39.2043H67.4939V37.5034C67.5009 37.3212 67.4633 37.1634 67.3811 37.0335C67.2989 36.9037 67.1298 36.8375 66.8737 36.8315ZM68.9363 36.8315C68.7849 36.8345 68.6349 36.8767 68.49 36.9537C68.345 37.0306 68.2256 37.1246 68.1282 37.2403L68.2973 37.5363C68.373 37.4629 68.4666 37.3994 68.5745 37.3436C68.6825 37.2879 68.7878 37.2573 68.894 37.2544C68.9753 37.2528 69.0418 37.2677 69.0914 37.3014C69.1409 37.335 69.1652 37.3969 69.1666 37.4846V37.7148L68.1564 38.1518C68.1217 38.2176 68.0912 38.2927 68.0624 38.3773C68.0336 38.4619 68.0172 38.5418 68.0154 38.6169C68.0153 38.8232 68.0666 38.9857 68.1705 39.1009C68.2743 39.2161 68.4313 39.2729 68.6403 39.2747C68.773 39.2741 68.8853 39.2436 68.9786 39.1855C69.0719 39.1273 69.1537 39.0451 69.2229 38.9364C69.2435 39.0408 69.2905 39.1222 69.3639 39.1808C69.4373 39.2393 69.5266 39.2691 69.6317 39.27C69.6908 39.2697 69.7488 39.2592 69.8055 39.2418C69.8623 39.2245 69.9156 39.2022 69.9653 39.1714L69.8384 38.9223C69.8243 38.9297 69.8102 38.9356 69.7962 38.9411C69.7821 38.9467 69.768 38.9502 69.7539 38.9505C69.7193 38.949 69.6962 38.938 69.6834 38.9129C69.6706 38.8879 69.6639 38.8581 69.6646 38.8284V37.4893C69.6607 37.2646 69.591 37.0985 69.4579 36.9913C69.3247 36.884 69.1517 36.8307 68.9363 36.8315ZM71.0976 36.8315C70.8451 36.8345 70.6454 36.9101 70.4962 37.057C70.3471 37.204 70.2695 37.404 70.266 37.6584C70.2654 37.7951 70.296 37.9282 70.36 38.0578C70.424 38.1874 70.525 38.283 70.6607 38.3444C70.575 38.3754 70.5002 38.4216 70.4351 38.4854C70.3701 38.5492 70.3352 38.6283 70.3318 38.7203C70.3345 38.8029 70.3619 38.8773 70.4164 38.9411C70.4708 39.005 70.5358 39.0418 70.609 39.0539C70.5153 39.0923 70.4225 39.1541 70.3318 39.2371C70.241 39.3201 70.1929 39.4196 70.1861 39.5378C70.1964 39.758 70.2869 39.9126 70.4539 40.003C70.621 40.0933 70.8031 40.1376 71.0037 40.1346C71.2652 40.1335 71.5009 40.0592 71.7131 39.9137C71.9253 39.7683 72.0389 39.5576 72.0514 39.2794C72.0464 39.1097 71.9865 38.9828 71.8729 38.8941C71.7592 38.8055 71.6218 38.7585 71.4594 38.7579H71.3091C71.2418 38.7621 71.1467 38.7648 71.0272 38.7626C70.9076 38.7603 70.843 38.7278 70.8298 38.6686C70.8369 38.5932 70.8745 38.5426 70.9426 38.5136C71.0107 38.4845 71.0671 38.4645 71.1117 38.4572C71.1398 38.4504 71.1653 38.4469 71.1916 38.4431C71.2179 38.4393 71.2457 38.4334 71.2715 38.429C71.4628 38.3804 71.6105 38.292 71.7131 38.1612C71.8158 38.0304 71.8671 37.8667 71.8682 37.6725C71.8674 37.6134 71.8624 37.5531 71.8494 37.494C71.8364 37.4349 71.8195 37.3793 71.8024 37.3249H72.0702V36.902H71.4829C71.4237 36.8764 71.3607 36.8565 71.295 36.8456C71.2293 36.8348 71.1639 36.8312 71.0976 36.8315ZM73.3717 36.8315C73.0523 36.8437 72.8037 36.9674 72.6293 37.198C72.455 37.4286 72.3685 37.6933 72.3662 37.9967C72.3647 38.1959 72.3931 38.3944 72.4508 38.5887C72.5085 38.7831 72.6025 38.9431 72.7374 39.0727C72.8723 39.2023 73.0569 39.2697 73.2871 39.2747C73.4233 39.2706 73.5662 39.233 73.7147 39.162C73.8632 39.0909 73.9897 39.011 74.0953 38.9223L73.9308 38.6028C73.8476 38.6669 73.7521 38.7256 73.6395 38.7767C73.527 38.8278 73.4173 38.8536 73.3153 38.8566C73.1485 38.8419 73.0311 38.7526 72.9629 38.584C72.8948 38.4155 72.8619 38.2557 72.8643 38.1095C72.8635 38.0813 72.865 38.0531 72.869 38.0249H74.2127C74.2126 37.9732 74.2141 37.9216 74.2127 37.8699C74.2114 37.8182 74.2082 37.7665 74.208 37.7148C74.1955 37.4869 74.1101 37.2844 73.9543 37.1087C73.7985 36.933 73.6051 36.841 73.3717 36.8315ZM75.8055 36.8315C75.7048 36.8363 75.5979 36.8672 75.4813 36.9208C75.3647 36.9743 75.279 37.0217 75.2276 37.0664V36.902H74.7343V39.2043H75.2276V37.5128C75.274 37.4734 75.3515 37.4241 75.4625 37.3624C75.5735 37.3008 75.6792 37.2655 75.7773 37.2591C75.8556 37.2606 75.9081 37.2904 75.9371 37.3436C75.9661 37.3969 75.9809 37.4642 75.9794 37.5504V39.2043H76.4727V37.4705C76.5257 37.4288 76.5942 37.3865 76.6794 37.3389C76.7647 37.2914 76.8591 37.2632 76.9614 37.2591C77.0397 37.2579 77.0921 37.2767 77.1211 37.3108C77.1501 37.3448 77.1649 37.4012 77.1634 37.4846V39.2043H77.6567V37.4846C77.6615 37.2991 77.6173 37.1468 77.5205 37.0242C77.4237 36.9015 77.2455 36.8361 76.9895 36.8315C76.8711 36.8373 76.7544 36.8721 76.6372 36.9349C76.5199 36.9976 76.422 37.0536 76.3458 37.104C76.2966 37.0372 76.2289 36.9765 76.1391 36.9208C76.0494 36.8651 75.937 36.8349 75.8055 36.8315ZM79.2072 36.8315C78.8878 36.8437 78.6392 36.9674 78.4649 37.198C78.2905 37.4286 78.204 37.6933 78.2018 37.9967C78.2002 38.1959 78.2287 38.3944 78.2863 38.5887C78.344 38.7831 78.438 38.9431 78.5729 39.0727C78.7079 39.2023 78.8924 39.2697 79.1227 39.2747C79.2588 39.2706 79.4017 39.233 79.5502 39.162C79.6987 39.0909 79.8252 39.011 79.9308 38.9223L79.7663 38.6028C79.6831 38.6669 79.5876 38.7256 79.475 38.7767C79.3625 38.8278 79.2528 38.8536 79.1508 38.8566C78.9841 38.8419 78.8666 38.7526 78.7985 38.584C78.7303 38.4155 78.6974 38.2557 78.6998 38.1095C78.699 38.0813 78.7005 38.0531 78.7045 38.0249H80.0483C80.0481 37.9732 80.0496 37.9216 80.0483 37.8699C80.0469 37.8182 80.0438 37.7665 80.0436 37.7148C80.031 37.4869 79.9457 37.2844 79.7898 37.1087C79.634 36.933 79.4406 36.841 79.2072 36.8315ZM81.688 36.8315C81.5831 36.8339 81.4711 36.8597 81.3544 36.9067C81.2378 36.9537 81.1399 37.0077 81.0584 37.0711V36.902H80.5651V39.2043H81.0584V37.5034C81.1187 37.4542 81.2049 37.4029 81.3122 37.3483C81.4194 37.2938 81.5244 37.2637 81.6317 37.2591C81.7071 37.258 81.7576 37.2777 81.782 37.3155C81.8064 37.3532 81.8169 37.4151 81.8149 37.5034V39.2043H82.3082V37.5034C82.3153 37.3212 82.2777 37.1634 82.1955 37.0335C82.1132 36.9037 81.9441 36.8375 81.688 36.8315ZM35.1401 36.902L35.765 38.0155L35.0978 39.2043H35.6381L36.0375 38.4243L36.451 39.2043H37.0148L36.31 37.9873C36.3399 37.937 36.4037 37.8258 36.5026 37.6537C36.6016 37.4817 36.6981 37.3147 36.7893 37.1557C36.8804 36.9967 36.9285 36.9132 36.9349 36.902H36.3946L36.0422 37.5927L35.6945 36.902H35.1401ZM37.3578 36.902V39.2043H37.8417V36.902H37.3578ZM51.7915 36.902V39.3734C51.7879 39.4725 51.7546 39.5562 51.6882 39.6224C51.6217 39.6886 51.5438 39.7348 51.4579 39.7634L51.5613 40.1158C51.7144 40.0757 51.871 40.0049 52.0265 39.8996C52.1819 39.7944 52.2633 39.6272 52.2755 39.4016V36.902H51.7915ZM71.0694 37.1886C71.1919 37.1945 71.2753 37.2462 71.3232 37.3389C71.371 37.4317 71.3957 37.5304 71.3936 37.6397C71.3958 37.7459 71.3739 37.8441 71.3279 37.931C71.2819 38.0178 71.1988 38.062 71.0788 38.0672C70.9439 38.0627 70.855 38.0165 70.811 37.9263C70.7671 37.836 70.7463 37.7287 70.7499 37.6068C70.748 37.4989 70.773 37.4034 70.8204 37.3202C70.8678 37.237 70.9492 37.1931 71.0694 37.1886ZM34.0124 37.198C34.132 37.2019 34.2224 37.2434 34.285 37.3249C34.3475 37.4063 34.3839 37.5042 34.393 37.6162H33.6084C33.6328 37.5062 33.6767 37.4119 33.7399 37.3296C33.8032 37.2472 33.894 37.2022 34.0124 37.198ZM42.808 37.198C42.9275 37.2019 43.018 37.2434 43.0805 37.3249C43.1431 37.4063 43.1795 37.5042 43.1886 37.6162H42.4039C42.4284 37.5062 42.4723 37.4119 42.5355 37.3296C42.5987 37.2472 42.6896 37.2022 42.808 37.198ZM53.7649 37.198C53.8844 37.2019 53.9749 37.2434 54.0374 37.3249C54.1 37.4063 54.1364 37.5042 54.1455 37.6162H53.3608C53.3853 37.5062 53.4292 37.4119 53.4924 37.3296C53.5556 37.2472 53.6465 37.2022 53.7649 37.198ZM73.3388 37.198C73.4583 37.2019 73.5488 37.2434 73.6113 37.3249C73.6739 37.4063 73.7103 37.5042 73.7194 37.6162H72.9347C72.9592 37.5062 73.0031 37.4119 73.0663 37.3296C73.1295 37.2472 73.2204 37.2022 73.3388 37.198ZM79.1743 37.198C79.2939 37.2019 79.3843 37.2434 79.4469 37.3249C79.5094 37.4063 79.5458 37.5042 79.5549 37.6162H78.7703C78.7947 37.5062 78.8386 37.4119 78.9018 37.3296C78.9651 37.2472 79.0559 37.2022 79.1743 37.198ZM50.3256 37.2544C50.4655 37.2618 50.5763 37.3433 50.6545 37.4987C50.7327 37.6541 50.7707 37.839 50.772 38.0531C50.7708 38.2693 50.7327 38.453 50.6545 38.6075C50.5763 38.7621 50.4655 38.8447 50.3256 38.8519C50.1857 38.8447 50.0749 38.7621 49.9967 38.6075C49.9185 38.453 49.8805 38.2693 49.8792 38.0531C49.8805 37.839 49.9185 37.6541 49.9967 37.4987C50.0749 37.3433 50.1857 37.2618 50.3256 37.2544ZM39.4392 37.2732C39.6036 37.2861 39.7117 37.3683 39.7634 37.5222C39.8151 37.6761 39.8386 37.8241 39.8339 37.9638C39.8354 38.0638 39.824 38.1853 39.801 38.3256C39.7779 38.4659 39.7348 38.5878 39.6694 38.6968C39.6041 38.8058 39.5082 38.8647 39.3828 38.8707C39.3223 38.8695 39.2612 38.8577 39.1949 38.8331C39.1285 38.8084 39.0674 38.7779 39.0163 38.7438V37.5081C39.0668 37.4593 39.1326 37.4095 39.2137 37.3577C39.2947 37.306 39.3699 37.2774 39.4392 37.2732ZM46.5762 37.2732C46.7448 37.2869 46.8552 37.3746 46.9051 37.5363C46.955 37.698 46.9762 37.8515 46.9709 37.9967C46.9726 38.0856 46.9644 38.1985 46.9474 38.3303C46.9303 38.4622 46.8961 38.5785 46.8393 38.6827C46.7826 38.7869 46.6935 38.8413 46.5762 38.8472C46.3844 38.8335 46.2606 38.7434 46.2003 38.5747C46.14 38.4059 46.1103 38.2407 46.1158 38.0813V37.5081C46.1702 37.4531 46.2352 37.4022 46.3131 37.353C46.391 37.3039 46.4795 37.2765 46.5762 37.2732ZM64.5479 38.133V38.2176C64.5467 38.3681 64.5045 38.5122 64.4211 38.6498C64.3377 38.7875 64.2202 38.8611 64.0687 38.8707C63.998 38.8681 63.9456 38.8415 63.9089 38.7908C63.8723 38.7401 63.8528 38.6806 63.8526 38.6122C63.853 38.579 63.8592 38.5445 63.8666 38.5089C63.8741 38.4732 63.8803 38.4388 63.8901 38.4055L64.5479 38.133ZM69.176 38.133V38.2176C69.1747 38.3681 69.1325 38.5122 69.0491 38.6498C68.9657 38.7875 68.8482 38.8611 68.6967 38.8707C68.626 38.8681 68.5736 38.8415 68.537 38.7908C68.5003 38.7401 68.4808 38.6806 68.4806 38.6122C68.481 38.579 68.4872 38.5445 68.4947 38.5089C68.5021 38.4732 68.5084 38.4388 68.5182 38.4055L69.176 38.133ZM70.9473 39.1385H71.2198C71.2902 39.1348 71.365 39.1434 71.4453 39.162C71.5257 39.1806 71.5699 39.2315 71.5769 39.317C71.5708 39.4636 71.5136 39.5756 71.403 39.6553C71.2924 39.735 71.1648 39.7765 71.0225 39.7775C70.9317 39.7797 70.853 39.7605 70.7828 39.7164C70.7127 39.6722 70.6739 39.5896 70.6701 39.4721C70.6816 39.3739 70.7302 39.2936 70.811 39.2324C70.8919 39.1713 70.9357 39.1403 70.9473 39.1385Z" fill="#636363"/>
</g>
<defs>
<clipPath id="clip0_6507_61068">
<rect width="72" height="16.1394" fill="white" transform="translate(12 24)"/>
</clipPath>
</defs>
</svg>
