<svg width="96" height="65" viewBox="0 0 96 65" fill="none" xmlns="http://www.w3.org/2000/svg">
<rect width="96" height="64" transform="translate(0 0.0698242)" fill="white"/>
<g clip-path="url(#clip0_6507_61089)">
<g clip-path="url(#clip1_6507_61089)">
<path d="M46.2409 29.5568C45.6845 28.8747 45.0921 28.2464 44.4638 27.6361C43.9971 27.1694 43.4945 26.7206 42.9919 26.2898C42.9201 26.218 42.8124 26.218 42.7406 26.2898C41.0711 27.3848 39.2761 28.2823 37.3913 28.9644C36.6014 29.2517 35.7757 29.485 34.95 29.7004C34.1422 29.8979 33.3344 30.0415 32.5266 30.203C32.3292 30.2389 32.2753 30.203 32.2035 30.0235C32.0599 29.5927 31.9163 29.1619 31.8086 28.7131C31.8086 28.6593 31.8086 28.6234 31.7368 28.6054V28.4439C31.8086 28.4439 31.8804 28.4439 31.9522 28.4439C32.4369 28.3182 32.9216 28.1746 33.4062 28.0131C34.0345 27.8156 34.6628 27.5822 35.291 27.3309C36.0809 27.0078 36.8527 26.6488 37.6246 26.2539C38.576 25.7333 39.5094 25.1769 40.389 24.5486C40.5506 24.4409 40.5506 24.4229 40.389 24.3152C38.0016 22.6458 35.3449 21.3893 32.5625 20.5635C32.2933 20.4558 32.024 20.384 31.7368 20.3481V20.2225C31.8266 20.2225 31.8086 20.0968 31.8266 20.043C31.9522 19.6122 32.0779 19.1993 32.2215 18.7864C32.2753 18.6428 32.3471 18.6069 32.4728 18.6428C35.3269 19.2352 38.1093 20.1686 40.7301 21.4431C41.3943 21.7842 42.0584 22.1612 42.6867 22.5561C42.7226 22.5561 42.7765 22.592 42.7944 22.6458C42.7226 22.7356 42.6508 22.8253 42.561 22.8971C41.9328 23.3818 41.3584 23.8844 40.6762 24.3152C40.5506 24.405 40.5506 24.4409 40.6762 24.5306C41.3763 25.0153 42.0584 25.5538 42.7226 26.1103C42.7944 26.1821 42.9021 26.1821 42.956 26.1103C43.5483 25.7154 44.1228 25.3025 44.6792 24.8538C44.8946 24.7281 45.0741 24.5665 45.2357 24.387H45.2895C45.2895 24.4409 45.3434 24.4768 45.3973 24.5127C46.1512 25.1589 46.8513 25.841 47.5334 26.577C47.6949 26.7745 47.8565 26.954 48.036 27.1335V27.1873C47.9462 27.2232 47.8565 27.295 47.8026 27.3848C47.3 28.0131 46.7974 28.6952 46.3486 29.3953C46.3127 29.4491 46.2768 29.5209 46.2589 29.5927L46.2409 29.5568Z" fill="#5B5B64"/>
<path d="M43.9791 8.06971C44.0688 8.50052 44.2125 8.93134 44.3381 9.36215C44.8228 10.9418 45.451 12.4856 46.2229 13.9575C46.7255 14.9089 47.3 15.8423 47.9103 16.7219C47.9462 16.7758 48 16.8296 48.0359 16.8655V16.9194C47.4615 17.6733 46.8871 18.4272 46.2768 19.1632H46.2229C45.8639 18.5708 45.5049 17.9964 45.1638 17.3861C44.4997 16.1834 43.9252 14.9269 43.4585 13.6344C42.938 12.1625 42.561 10.6546 42.3097 9.1288C42.3097 9.00314 42.3097 8.87749 42.2558 8.76978C42.202 8.66208 42.2558 8.59028 42.3994 8.53642C42.8123 8.39282 43.2252 8.26717 43.656 8.14151C43.7457 8.12356 43.8355 8.10561 43.9073 8.05176L43.9791 8.06971Z" fill="#76BFD0"/>
<path d="M52.0749 40.6144C52.039 40.3451 51.9851 40.0938 51.8954 39.8425C51.1056 37.0063 49.8311 34.3317 48.1437 31.9442C48.1078 31.9083 48.0899 31.8724 48.054 31.8365V31.7827C48.0899 31.7468 48.1437 31.7109 48.1796 31.657C48.7002 30.9031 49.2566 30.1851 49.867 29.5029C50.2619 30.0774 50.6209 30.6877 50.962 31.298C52.3083 33.7393 53.2417 36.396 53.7264 39.1604C53.7623 39.4117 53.7982 39.663 53.852 39.9143C53.852 40.04 53.852 40.1118 53.7084 40.1477C53.2776 40.2913 52.8647 40.4349 52.416 40.5426C52.3801 40.5426 52.3262 40.5426 52.3083 40.5964L52.0749 40.6144Z" fill="#33576A"/>
<path d="M48 16.9374V16.8656C48.5206 16.1476 49.0052 15.3937 49.4361 14.6218C50.5669 12.6113 51.4286 10.4573 52.0209 8.23138C52.0389 8.17753 52.0389 8.12368 52.0209 8.06982H52.1825C52.2184 8.15958 52.3082 8.12368 52.3979 8.15958C52.8108 8.28523 53.2416 8.41089 53.6545 8.55449C53.7981 8.60834 53.816 8.68015 53.7801 8.8058C53.4929 10.1162 53.1518 11.4086 52.7569 12.6831C52.0748 14.909 51.1234 17.0451 49.9028 19.0197C49.9028 19.0556 49.8669 19.1274 49.7951 19.1454C49.7412 19.1274 49.6874 19.1095 49.6694 19.0556C49.2924 18.5889 48.9155 18.1222 48.5565 17.6555C48.377 17.3862 48.1975 17.1528 48 16.9374Z" fill="#96625C"/>
<path d="M48.036 31.7823V31.8541C47.4077 32.7157 46.8333 33.6312 46.3307 34.5826C45.3254 36.4674 44.5356 38.442 43.9791 40.4883C43.9791 40.5242 43.9791 40.5601 43.9791 40.596H43.8176L42.9021 40.3088C42.7406 40.255 42.579 40.1832 42.4174 40.1473C42.2559 40.1114 42.2379 40.0396 42.2738 39.878C42.4354 39.2498 42.579 38.5676 42.7585 37.9035C43.2611 35.9289 43.9432 34.0082 44.8049 32.1593C45.2357 31.2438 45.7204 30.3642 46.2589 29.5205H46.3127C46.4563 29.718 46.5999 29.9154 46.7615 30.0949L48.036 31.7823Z" fill="#B93248"/>
<path d="M53.2058 22.5379C53.511 22.3045 53.8341 22.0891 54.1751 21.9096C56.7421 20.3838 59.5603 19.3247 62.5042 18.7862C62.8453 18.7323 63.1864 18.6785 63.5274 18.6246C63.7428 18.5887 63.7787 18.6246 63.8505 18.8221C64.0121 19.2349 64.1198 19.6658 64.2455 20.1145C64.2993 20.3299 64.2993 20.3299 64.0839 20.3838C62.9351 20.6889 61.8042 21.0659 60.7092 21.4967C58.95 22.2147 57.2627 23.1482 55.7009 24.2432C55.6471 24.2791 55.5932 24.3329 55.5394 24.3868H55.4855C55.4676 24.3509 55.4317 24.3329 55.4137 24.297C55.0368 24.0278 54.6778 23.7585 54.3187 23.4713C53.9059 23.202 53.5469 22.8789 53.2058 22.5379Z" fill="#B93248"/>
<path d="M55.4495 24.3511H55.5034C55.8983 24.6742 56.3291 24.9614 56.7599 25.2127C58.6088 26.3615 60.6013 27.277 62.6657 27.9412C63.1144 28.0848 63.5991 28.2284 64.0479 28.3541C64.2094 28.39 64.2633 28.4618 64.2094 28.6233C64.0658 29.09 63.9402 29.5568 63.7786 30.0235C63.7427 30.1312 63.6889 30.1671 63.5452 30.1491C60.8706 29.6106 58.2498 28.749 55.7726 27.6181C54.9469 27.2052 54.1391 26.7385 53.3493 26.2359C53.3134 26.2359 53.2416 26.182 53.2236 26.1282C53.2416 26.0923 53.2595 26.0564 53.2954 26.0384C53.5467 25.823 53.7981 25.6076 54.0673 25.4102L55.4495 24.3511Z" fill="#76BFD0"/>
<path d="M49.7952 19.2349C50.0285 19.4323 50.226 19.6477 50.4235 19.899C51.1594 20.6889 51.9134 21.4428 52.7032 22.1429C52.8468 22.2685 52.9904 22.3942 53.134 22.5378L51.8057 23.4892C51.4466 23.7405 51.1235 24.0636 50.7645 24.3149C50.6389 24.261 50.5132 24.1713 50.4414 24.0636C49.9029 23.5789 49.3644 23.0942 48.8797 22.5557C48.5925 22.2506 48.3412 21.9275 48.0181 21.6223V21.5864C48.054 21.5684 48.0899 21.5325 48.1258 21.4966C48.7002 20.7966 49.2387 20.0785 49.7234 19.3246C49.7234 19.3426 49.7413 19.2708 49.7952 19.2349Z" fill="#76BFD0"/>
<path d="M48.0718 27.1514V27.0975C48.4846 26.6308 48.8975 26.1461 49.3283 25.6974C49.7771 25.2127 50.2618 24.7639 50.7644 24.3511C51.3926 24.8357 51.985 25.3025 52.6492 25.7512C52.8466 25.8589 53.0262 25.9846 53.1877 26.1282C53.1877 26.2 53.098 26.2359 53.0441 26.2718C51.9671 27.2052 50.9798 28.2284 50.0463 29.3055L49.9027 29.467C49.3104 28.6592 48.718 27.8694 48.0718 27.1514Z" fill="#B93248"/>
<path d="M53.1519 26.1458C52.9903 25.9842 52.8108 25.8586 52.6133 25.7688C51.9851 25.338 51.3568 24.8533 50.7285 24.3687V24.3328C51.1055 24.0815 51.4106 23.7763 51.7697 23.507L53.098 22.5557H53.1519C53.475 22.8788 53.834 23.1839 54.2109 23.4532C54.57 23.7404 54.9469 24.0097 55.3059 24.2789C55.3418 24.2969 55.3598 24.3328 55.3777 24.3687L53.9955 25.4457C53.7263 25.6611 53.475 25.8586 53.2237 26.074C53.1878 26.0919 53.1698 26.1278 53.1519 26.1637V26.1458Z" fill="#542E40"/>
<path d="M49.7952 19.2352C49.7414 19.2352 49.7055 19.307 49.6875 19.3608C49.2028 20.1148 48.6643 20.8328 48.0899 21.5149C48.054 21.5508 48.0181 21.5688 47.9822 21.6047C47.5334 21.0841 47.1206 20.5456 46.7256 19.9891C46.5102 19.7378 46.3487 19.4685 46.2051 19.1813C46.8334 18.4454 47.3898 17.6914 47.9642 16.9375C48.1796 17.1529 48.3592 17.4042 48.5207 17.6555C48.8797 18.1222 49.2567 18.589 49.6337 19.0557C49.6696 19.1095 49.7055 19.1454 49.7593 19.1454L49.7952 19.2352Z" fill="#404A4C"/>
<path d="M48.0719 27.1514C48.7181 27.8873 49.3105 28.6772 49.849 29.4849C49.2567 30.1671 48.6822 30.8851 48.1617 31.639C48.1258 31.6749 48.0899 31.7288 48.036 31.7647L46.7256 30.0953C46.5641 29.9158 46.4025 29.7183 46.2769 29.5209C46.2948 29.449 46.3307 29.3772 46.3666 29.3234C46.8154 28.6233 47.318 27.9771 47.8206 27.3129C47.8924 27.2411 47.9642 27.1693 48.0719 27.1514Z" fill="#2B1D24"/>
<path d="M46.2409 19.1812C46.3666 19.4684 46.5461 19.7376 46.7615 19.9889C47.1564 20.5454 47.5693 21.0839 48.018 21.6045V21.6404L47.9821 21.6763C47.1744 22.6456 46.2768 23.5252 45.3254 24.3509H45.2536C44.9305 24.0458 44.5715 23.7945 44.2125 23.5252C43.8535 23.2559 43.315 22.8969 42.8662 22.5918C43.315 22.1789 43.7637 21.766 44.2125 21.3352C44.8767 20.707 45.5229 20.0069 46.1332 19.3068C46.1512 19.2709 46.1691 19.235 46.1871 19.1991L46.2409 19.1812Z" fill="#96625C"/>
<path d="M42.8662 22.5737C43.2971 22.8968 43.7817 23.202 44.2125 23.5072C44.6434 23.8123 44.9126 24.0277 45.2537 24.3329C45.1101 24.5303 44.9126 24.6919 44.7152 24.8176C44.1587 25.2663 43.5843 25.6792 42.9919 26.0741C42.9201 26.1459 42.8124 26.1459 42.7585 26.0741C42.1123 25.4997 41.4302 24.9791 40.7122 24.4765C40.5865 24.3867 40.5865 24.3329 40.7122 24.2611C41.3404 23.8303 41.9687 23.3097 42.597 22.843C42.6867 22.7712 42.7765 22.6814 42.8303 22.5917L42.8662 22.5737Z" fill="#252629"/>
<path d="M38.217 49.1406C38.217 53.4488 35.5962 56.0696 31.7547 56.0696C27.8415 56.0696 25.5618 53.1257 25.5618 49.374C25.5618 45.4249 28.0749 42.481 31.9701 42.481C36.009 42.481 38.217 45.5146 38.217 49.1406ZM28.7031 49.3202C28.7031 51.905 29.9058 53.7181 31.8983 53.7181C33.9088 53.7181 35.0577 51.7973 35.0577 49.2483C35.0577 46.8789 33.9268 44.8504 31.8804 44.8504C29.8699 44.8504 28.7031 46.7712 28.7031 49.3202Z" fill="#3E505B"/>
<path d="M42.1662 45.1914H38.6299V42.6963H48.754V45.1914H45.1639V55.8541H42.1662V45.1914Z" fill="#3E505B"/>
<path d="M50.3157 42.8757C51.2671 42.7141 52.7031 42.6064 54.2828 42.6064C56.2394 42.6064 57.6036 42.8937 58.5371 43.6476C59.3269 44.2759 59.7398 45.1913 59.7398 46.394C59.7398 48.0814 58.555 49.2302 57.4241 49.6431V49.6969C58.3396 50.0739 58.8422 50.9535 59.1833 52.1562C59.5962 53.6461 60.009 55.3514 60.2603 55.872H57.2087C56.9933 55.495 56.6881 54.418 56.2932 52.8024C55.9342 51.1689 55.3778 50.7201 54.1571 50.7022H53.2596V55.872H50.3157V42.8757ZM53.2775 48.5481H54.4443C55.9342 48.5481 56.8138 47.8121 56.8138 46.6453C56.8138 45.4426 55.9881 44.8323 54.6238 44.8144C53.9058 44.8144 53.4929 44.8682 53.2775 44.9041V48.5481Z" fill="#3E505B"/>
<path d="M62.0016 52.8028C62.8093 53.2157 64.03 53.6285 65.3045 53.6285C66.6687 53.6285 67.3868 53.0541 67.3868 52.2104C67.3868 51.3847 66.7585 50.918 65.1788 50.3615C62.9888 49.6076 61.5707 48.3869 61.5707 46.4842C61.5707 44.2404 63.4376 42.5171 66.5431 42.5171C68.033 42.5171 69.128 42.8223 69.8998 43.1813L69.2357 45.5866C68.7151 45.3353 67.7637 44.9584 66.4892 44.9584C65.1968 44.9584 64.5685 45.5507 64.5685 46.2329C64.5685 47.0766 65.3045 47.4356 67.0098 48.0818C69.3254 48.9434 70.4204 50.1461 70.4204 52.013C70.4204 54.2209 68.7151 56.0878 65.107 56.0878C63.5992 56.0878 62.1272 55.6929 61.3733 55.28L62.0016 52.8028Z" fill="#3E505B"/>
</g>
</g>
<defs>
<clipPath id="clip0_6507_61089">
<rect width="72" height="48" fill="white" transform="translate(12 8.06982)"/>
</clipPath>
<clipPath id="clip1_6507_61089">
<rect width="44.8766" height="48" fill="white" transform="translate(25.5618 8.06982)"/>
</clipPath>
</defs>
</svg>
