<svg width="60" height="60" viewBox="0 0 60 60" fill="none" xmlns="http://www.w3.org/2000/svg">
<path d="M48.75 18.75H22.5V13.125C22.5 11.1359 23.2902 9.22822 24.6967 7.8217C26.1032 6.41518 28.0109 5.625 30 5.625C33.6023 5.625 36.8438 8.20312 37.5375 11.6227C37.6405 12.1059 37.93 12.5289 38.3432 12.7998C38.7564 13.0707 39.2598 13.1676 39.744 13.0694C40.2282 12.9712 40.6541 12.6858 40.929 12.2754C41.204 11.8649 41.3059 11.3625 41.2125 10.8773C40.1531 5.66016 35.4375 1.875 30 1.875C27.0173 1.8781 24.1576 3.06436 22.0485 5.17348C19.9394 7.28259 18.7531 10.1423 18.75 13.125V18.75H11.25C10.2554 18.75 9.30161 19.1451 8.59835 19.8484C7.89509 20.5516 7.5 21.5054 7.5 22.5V48.75C7.5 49.7446 7.89509 50.6984 8.59835 51.4016C9.30161 52.1049 10.2554 52.5 11.25 52.5H48.75C49.7446 52.5 50.6984 52.1049 51.4016 51.4016C52.1049 50.6984 52.5 49.7446 52.5 48.75V22.5C52.5 21.5054 52.1049 20.5516 51.4016 19.8484C50.6984 19.1451 49.7446 18.75 48.75 18.75ZM48.75 48.75H11.25V22.5H48.75V48.75ZM30 26.25C28.4241 26.2505 26.9009 26.8182 25.709 27.8491C24.5171 28.8801 23.736 30.3056 23.5085 31.865C23.2809 33.4245 23.6222 35.0137 24.4698 36.3423C25.3175 37.6708 26.6149 38.65 28.125 39.1008V43.125C28.125 43.6223 28.3225 44.0992 28.6742 44.4508C29.0258 44.8025 29.5027 45 30 45C30.4973 45 30.9742 44.8025 31.3258 44.4508C31.6775 44.0992 31.875 43.6223 31.875 43.125V39.1008C33.3851 38.65 34.6825 37.6708 35.5302 36.3423C36.3778 35.0137 36.7191 33.4245 36.4915 31.865C36.264 30.3056 35.4829 28.8801 34.291 27.8491C33.0991 26.8182 31.5759 26.2505 30 26.25ZM30 35.625C29.4437 35.625 28.9 35.46 28.4375 35.151C27.9749 34.842 27.6145 34.4027 27.4016 33.8888C27.1887 33.3749 27.133 32.8094 27.2415 32.2638C27.3501 31.7182 27.6179 31.2171 28.0113 30.8238C28.4046 30.4304 28.9057 30.1626 29.4513 30.054C29.9969 29.9455 30.5624 30.0012 31.0763 30.2141C31.5902 30.427 32.0295 30.7874 32.3385 31.25C32.6475 31.7125 32.8125 32.2562 32.8125 32.8125C32.8125 33.5584 32.5162 34.2738 31.9887 34.8012C31.4613 35.3287 30.7459 35.625 30 35.625Z" fill="url(#paint0_linear_8395_68900)"/>
<defs>
<linearGradient id="paint0_linear_8395_68900" x1="44.0554" y1="1.87499" x2="4.05507" y2="10.8779" gradientUnits="userSpaceOnUse">
<stop stop-color="#00E925"/>
<stop offset="1" stop-color="#21AC27"/>
</linearGradient>
</defs>
</svg>
