<svg width="473" height="431" viewBox="0 0 473 431" fill="none" xmlns="http://www.w3.org/2000/svg">
    <path d="M442.238 413.332C442.238 413.559 343.237 413.754 221.13 413.754C99.0226 413.754 0 413.559 0 413.332C0 413.105 98.9876 412.91 221.13 412.91C343.272 412.91 442.238 413.088 442.238 413.332Z" fill="#263238"/>
    <path d="M118.063 29.2197H1.3291V413.131H118.063V29.2197Z" fill="#EBEBEB"/>
    <path d="M210.172 29.2197H117.906V411.898H210.172V29.2197Z" fill="#CECECE"/>
    <path d="M106.813 220.39H7.79297V250.317H106.813V220.39Z" fill="#263238"/>
    <path d="M106.813 90.6558H7.79297V120.583H106.813V90.6558Z" fill="#263238"/>
    <path d="M16.1066 94.4175H10.5605V117.326H16.1066V94.4175Z" fill="#455A64"/>
    <path d="M22.6318 99.2435C22.6318 99.6181 22.5283 99.9843 22.3345 100.296C22.1406 100.607 21.8651 100.85 21.5427 100.993C21.2204 101.137 20.8657 101.174 20.5235 101.101C20.1813 101.028 19.8669 100.848 19.6202 100.583C19.3735 100.318 19.2055 99.9804 19.1374 99.613C19.0693 99.2456 19.1043 98.8648 19.2378 98.5188C19.3713 98.1727 19.5974 97.8769 19.8875 97.6688C20.1777 97.4607 20.5187 97.3496 20.8676 97.3496C21.3355 97.3496 21.7842 97.5491 22.1151 97.9043C22.4459 98.2595 22.6318 98.7412 22.6318 99.2435Z" fill="white"/>
    <path d="M22.6318 107.338C22.6318 107.712 22.5283 108.079 22.3345 108.39C22.1406 108.701 21.8651 108.944 21.5427 109.088C21.2204 109.231 20.8657 109.268 20.5235 109.195C20.1813 109.122 19.8669 108.942 19.6202 108.677C19.3735 108.412 19.2055 108.075 19.1374 107.707C19.0693 107.34 19.1043 106.959 19.2378 106.613C19.3713 106.267 19.5974 105.971 19.8875 105.763C20.1777 105.555 20.5187 105.444 20.8676 105.444C21.0993 105.444 21.3287 105.493 21.5427 105.588C21.7568 105.683 21.9512 105.823 22.1151 105.999C22.2789 106.174 22.4088 106.383 22.4975 106.613C22.5861 106.843 22.6318 107.089 22.6318 107.338Z" fill="white"/>
    <path d="M35.1252 97.3496H29.6758V114.94H35.1252V97.3496Z" fill="#455A64"/>
    <path d="M43.0032 97.3496H37.5537V114.94H43.0032V97.3496Z" fill="#455A64"/>
    <path d="M50.8694 97.3496H45.4199V114.94H50.8694V97.3496Z" fill="#455A64"/>
    <path d="M58.7355 97.3496H53.2861V114.94H58.7355V97.3496Z" fill="#455A64"/>
    <path d="M66.6135 97.3496H61.1641V114.94H66.6135V97.3496Z" fill="#455A64"/>
    <path d="M74.4797 97.3496H69.0303V114.94H74.4797V97.3496Z" fill="#455A64"/>
    <path d="M82.3577 97.3496H76.9082V114.94H82.3577V97.3496Z" fill="#455A64"/>
    <path d="M90.2239 97.3496H84.7744V114.94H90.2239V97.3496Z" fill="#455A64"/>
    <path d="M98.09 97.3496H92.6406V114.94H98.09V97.3496Z" fill="#455A64"/>
    <path d="M105.968 97.3496H100.519V114.94H105.968V97.3496Z" fill="#455A64"/>
    <path d="M106.813 133.659H7.79297V163.585H106.813V133.659Z" fill="#263238"/>
    <path d="M16.1066 137.42H10.5605V160.329H16.1066V137.42Z" fill="#455A64"/>
    <path d="M22.6317 142.233C22.6341 142.608 22.5327 142.976 22.3403 143.289C22.1479 143.602 21.8733 143.847 21.5511 143.992C21.229 144.137 20.8739 144.177 20.5309 144.105C20.1879 144.033 19.8724 143.854 19.6245 143.59C19.3766 143.325 19.2074 142.988 19.1383 142.62C19.0693 142.253 19.1035 141.871 19.2366 141.524C19.3698 141.177 19.5959 140.881 19.8862 140.672C20.1766 140.463 20.5182 140.352 20.8676 140.352C21.3334 140.352 21.7803 140.55 22.1108 140.902C22.4413 141.255 22.6285 141.733 22.6317 142.233Z" fill="white"/>
    <path d="M22.6318 150.328C22.6318 150.702 22.5283 151.068 22.3345 151.38C22.1406 151.691 21.8651 151.934 21.5427 152.077C21.2204 152.221 20.8657 152.258 20.5235 152.185C20.1813 152.112 19.8669 151.932 19.6202 151.667C19.3735 151.402 19.2055 151.064 19.1374 150.697C19.0693 150.33 19.1043 149.949 19.2378 149.603C19.3713 149.257 19.5974 148.961 19.8875 148.753C20.1777 148.545 20.5187 148.434 20.8676 148.434C21.3355 148.434 21.7842 148.633 22.1151 148.988C22.4459 149.344 22.6318 149.825 22.6318 150.328Z" fill="white"/>
    <path d="M35.1252 140.352H29.6758V157.942H35.1252V140.352Z" fill="#455A64"/>
    <path d="M43.0032 140.352H37.5537V157.942H43.0032V140.352Z" fill="#455A64"/>
    <path d="M50.8694 140.352H45.4199V157.942H50.8694V140.352Z" fill="#455A64"/>
    <path d="M58.7355 140.352H53.2861V157.942H58.7355V140.352Z" fill="#455A64"/>
    <path d="M66.6135 140.352H61.1641V157.942H66.6135V140.352Z" fill="#455A64"/>
    <path d="M74.4797 140.352H69.0303V157.942H74.4797V140.352Z" fill="#455A64"/>
    <path d="M82.3577 140.352H76.9082V157.942H82.3577V140.352Z" fill="#455A64"/>
    <path d="M90.2239 140.352H84.7744V157.942H90.2239V140.352Z" fill="#455A64"/>
    <path d="M98.09 140.352H92.6406V157.942H98.09V140.352Z" fill="#455A64"/>
    <path d="M105.968 140.352H100.519V157.942H105.968V140.352Z" fill="#455A64"/>
    <path d="M106.813 176.999H7.79297V206.925H106.813V176.999Z" fill="#263238"/>
    <path d="M16.1066 180.76H10.5605V203.669H16.1066V180.76Z" fill="#455A64"/>
    <path d="M22.6317 185.573C22.6341 185.948 22.5327 186.316 22.3403 186.629C22.1479 186.942 21.8733 187.187 21.5511 187.332C21.229 187.478 20.8739 187.517 20.5309 187.445C20.1879 187.374 19.8724 187.194 19.6245 186.93C19.3766 186.666 19.2074 186.328 19.1383 185.961C19.0693 185.593 19.1035 185.211 19.2366 184.865C19.3698 184.518 19.5959 184.221 19.8862 184.012C20.1766 183.804 20.5182 183.692 20.8676 183.692C21.3334 183.692 21.7803 183.89 22.1108 184.242C22.4413 184.595 22.6285 185.073 22.6317 185.573Z" fill="white"/>
    <path d="M22.6317 193.681C22.6341 194.056 22.5327 194.423 22.3403 194.736C22.1479 195.05 21.8733 195.294 21.5511 195.44C21.229 195.585 20.8739 195.624 20.5309 195.553C20.1879 195.481 19.8724 195.302 19.6245 195.038C19.3766 194.773 19.2074 194.436 19.1383 194.068C19.0693 193.7 19.1035 193.319 19.2366 192.972C19.3698 192.625 19.5959 192.329 19.8862 192.12C20.1766 191.911 20.5182 191.8 20.8676 191.8C21.3334 191.8 21.7803 191.998 22.1108 192.35C22.4413 192.702 22.6285 193.181 22.6317 193.681Z" fill="white"/>
    <path d="M35.1252 183.692H29.6758V201.283H35.1252V183.692Z" fill="#455A64"/>
    <path d="M43.0032 183.692H37.5537V201.283H43.0032V183.692Z" fill="#455A64"/>
    <path d="M50.8694 183.692H45.4199V201.283H50.8694V183.692Z" fill="#455A64"/>
    <path d="M58.7355 183.692H53.2861V201.283H58.7355V183.692Z" fill="#455A64"/>
    <path d="M66.6135 183.692H61.1641V201.283H66.6135V183.692Z" fill="#455A64"/>
    <path d="M74.4797 183.692H69.0303V201.283H74.4797V183.692Z" fill="#455A64"/>
    <path d="M82.3577 183.692H76.9082V201.283H82.3577V183.692Z" fill="#455A64"/>
    <path d="M90.2239 183.692H84.7744V201.283H90.2239V183.692Z" fill="#455A64"/>
    <path d="M98.09 183.692H92.6406V201.283H98.09V183.692Z" fill="#455A64"/>
    <path d="M105.968 183.692H100.519V201.283H105.968V183.692Z" fill="#455A64"/>
    <path d="M106.813 271.099H7.79297V301.025H106.813V271.099Z" fill="#263238"/>
    <path d="M16.1066 274.86H10.5605V297.769H16.1066V274.86Z" fill="#455A64"/>
    <path d="M22.6318 279.686C22.6318 280.061 22.5283 280.427 22.3345 280.738C22.1406 281.05 21.8651 281.292 21.5427 281.436C21.2204 281.579 20.8657 281.617 20.5235 281.544C20.1813 281.47 19.8669 281.29 19.6202 281.025C19.3735 280.76 19.2055 280.423 19.1374 280.055C19.0693 279.688 19.1043 279.307 19.2378 278.961C19.3713 278.615 19.5974 278.319 19.8875 278.111C20.1777 277.903 20.5187 277.792 20.8676 277.792C21.0997 277.79 21.3299 277.838 21.5446 277.933C21.7594 278.027 21.9545 278.167 22.1186 278.343C22.2828 278.519 22.4127 278.729 22.5008 278.959C22.5888 279.19 22.6334 279.437 22.6318 279.686Z" fill="white"/>
    <path d="M22.6318 287.781C22.6318 288.155 22.5283 288.521 22.3345 288.833C22.1406 289.144 21.8651 289.387 21.5427 289.53C21.2204 289.674 20.8657 289.711 20.5235 289.638C20.1813 289.565 19.8669 289.385 19.6202 289.12C19.3735 288.855 19.2055 288.518 19.1374 288.15C19.0693 287.783 19.1043 287.402 19.2378 287.056C19.3713 286.71 19.5974 286.414 19.8875 286.206C20.1777 285.998 20.5187 285.887 20.8676 285.887C21.0997 285.885 21.3299 285.933 21.5446 286.027C21.7594 286.122 21.9545 286.261 22.1186 286.438C22.2828 286.614 22.4127 286.823 22.5008 287.054C22.5888 287.284 22.6334 287.532 22.6318 287.781Z" fill="white"/>
    <path d="M35.1252 277.792H29.6758V295.382H35.1252V277.792Z" fill="#455A64"/>
    <path d="M43.0032 277.792H37.5537V295.382H43.0032V277.792Z" fill="#455A64"/>
    <path d="M50.8694 277.792H45.4199V295.382H50.8694V277.792Z" fill="#455A64"/>
    <path d="M58.7355 277.792H53.2861V295.382H58.7355V277.792Z" fill="#455A64"/>
    <path d="M66.6135 277.792H61.1641V295.382H66.6135V277.792Z" fill="#455A64"/>
    <path d="M74.4797 277.792H69.0303V295.382H74.4797V277.792Z" fill="#455A64"/>
    <path d="M82.3577 277.792H76.9082V295.382H82.3577V277.792Z" fill="#455A64"/>
    <path d="M90.2239 277.792H84.7744V295.382H90.2239V277.792Z" fill="#455A64"/>
    <path d="M98.09 277.792H92.6406V295.382H98.09V277.792Z" fill="#455A64"/>
    <path d="M105.968 277.792H100.519V295.382H105.968V277.792Z" fill="#455A64"/>
    <path d="M106.813 365.198H7.79297V395.125H106.813V365.198Z" fill="#263238"/>
    <path d="M16.1066 368.96H10.5605V391.869H16.1066V368.96Z" fill="#455A64"/>
    <path d="M22.6318 373.786C22.6318 374.161 22.5283 374.527 22.3345 374.838C22.1406 375.15 21.8651 375.392 21.5427 375.536C21.2204 375.679 20.8657 375.717 20.5235 375.644C20.1813 375.57 19.8669 375.39 19.6202 375.125C19.3735 374.86 19.2055 374.523 19.1374 374.155C19.0693 373.788 19.1043 373.407 19.2378 373.061C19.3713 372.715 19.5974 372.419 19.8875 372.211C20.1777 372.003 20.5187 371.892 20.8676 371.892C21.3355 371.892 21.7842 372.092 22.1151 372.447C22.4459 372.802 22.6318 373.284 22.6318 373.786Z" fill="white"/>
    <path d="M22.6318 381.881C22.6318 382.255 22.5283 382.622 22.3345 382.933C22.1406 383.244 21.8651 383.487 21.5427 383.631C21.2204 383.774 20.8657 383.811 20.5235 383.738C20.1813 383.665 19.8669 383.485 19.6202 383.22C19.3735 382.955 19.2055 382.618 19.1374 382.25C19.0693 381.883 19.1043 381.502 19.2378 381.156C19.3713 380.81 19.5974 380.514 19.8875 380.306C20.1777 380.098 20.5187 379.987 20.8676 379.987C21.3355 379.987 21.7842 380.186 22.1151 380.542C22.4459 380.897 22.6318 381.378 22.6318 381.881Z" fill="white"/>
    <path d="M35.1252 371.892H29.6758V389.482H35.1252V371.892Z" fill="#455A64"/>
    <path d="M43.0032 371.892H37.5537V389.482H43.0032V371.892Z" fill="#455A64"/>
    <path d="M50.8694 371.892H45.4199V389.482H50.8694V371.892Z" fill="#455A64"/>
    <path d="M58.7355 371.892H53.2861V389.482H58.7355V371.892Z" fill="#455A64"/>
    <path d="M66.6135 371.892H61.1641V389.482H66.6135V371.892Z" fill="#455A64"/>
    <path d="M74.4797 371.892H69.0303V389.482H74.4797V371.892Z" fill="#455A64"/>
    <path d="M82.3577 371.892H76.9082V389.482H82.3577V371.892Z" fill="#455A64"/>
    <path d="M90.2239 371.892H84.7744V389.482H90.2239V371.892Z" fill="#455A64"/>
    <path d="M98.09 371.892H92.6406V389.482H98.09V371.892Z" fill="#455A64"/>
    <path d="M105.968 371.892H100.519V389.482H105.968V371.892Z" fill="#455A64"/>
    <path d="M106.813 318.188H7.79297V348.114H106.813V318.188Z" fill="#263238"/>
    <path d="M16.1066 321.949H10.5605V344.858H16.1066V321.949Z" fill="#455A64"/>
    <path d="M22.6318 326.775C22.6318 327.149 22.5283 327.516 22.3345 327.827C22.1406 328.138 21.8651 328.381 21.5427 328.525C21.2204 328.668 20.8657 328.705 20.5235 328.632C20.1813 328.559 19.8669 328.379 19.6202 328.114C19.3735 327.849 19.2055 327.512 19.1374 327.144C19.0693 326.777 19.1043 326.396 19.2378 326.05C19.3713 325.704 19.5974 325.408 19.8875 325.2C20.1777 324.992 20.5187 324.881 20.8676 324.881C21.3355 324.881 21.7842 325.08 22.1151 325.436C22.4459 325.791 22.6318 326.272 22.6318 326.775Z" fill="white"/>
    <path d="M22.6318 334.87C22.6318 335.244 22.5283 335.61 22.3345 335.922C22.1406 336.233 21.8651 336.476 21.5427 336.619C21.2204 336.763 20.8657 336.8 20.5235 336.727C20.1813 336.654 19.8669 336.474 19.6202 336.209C19.3735 335.944 19.2055 335.606 19.1374 335.239C19.0693 334.872 19.1043 334.491 19.2378 334.145C19.3713 333.799 19.5974 333.503 19.8875 333.295C20.1777 333.087 20.5187 332.976 20.8676 332.976C21.3355 332.976 21.7842 333.175 22.1151 333.53C22.4459 333.885 22.6318 334.367 22.6318 334.87Z" fill="white"/>
    <path d="M35.1252 324.881H29.6758V342.471H35.1252V324.881Z" fill="#455A64"/>
    <path d="M43.0032 324.881H37.5537V342.471H43.0032V324.881Z" fill="#455A64"/>
    <path d="M50.8694 324.881H45.4199V342.471H50.8694V324.881Z" fill="#455A64"/>
    <path d="M58.7355 324.881H53.2861V342.471H58.7355V324.881Z" fill="#455A64"/>
    <path d="M66.6135 324.881H61.1641V342.471H66.6135V324.881Z" fill="#455A64"/>
    <path d="M74.4797 324.881H69.0303V342.471H74.4797V324.881Z" fill="#455A64"/>
    <path d="M82.3577 324.881H76.9082V342.471H82.3577V324.881Z" fill="#455A64"/>
    <path d="M90.2239 324.881H84.7744V342.471H90.2239V324.881Z" fill="#455A64"/>
    <path d="M98.09 324.881H92.6406V342.471H98.09V324.881Z" fill="#455A64"/>
    <path d="M105.968 324.881H100.519V342.471H105.968V324.881Z" fill="#455A64"/>
    <path d="M69.0302 90.6556C68.9725 90.3523 68.9401 90.0441 68.9336 89.7346C68.9336 89.1249 68.8611 88.2298 68.8369 87.0753C68.8127 85.9208 68.8369 84.4809 68.7161 82.8723C68.667 81.0317 68.4402 79.2015 68.0394 77.411C67.482 75.27 66.587 73.2473 65.3932 71.4309C64.0393 69.3418 62.1567 67.7124 59.968 66.735C57.4948 65.767 54.9002 65.2029 52.2711 65.0616L43.7405 64.2703C32.0562 63.1806 21.4473 62.4801 13.7746 62.3374C9.93219 62.2466 6.81478 62.2725 4.67608 62.3374H2.19908C1.91009 62.374 1.61809 62.374 1.3291 62.3374C1.61049 62.2681 1.89829 62.2333 2.18699 62.2336L4.66401 62.078C6.81478 61.9872 9.93219 61.8834 13.7746 61.9093C21.4715 61.9093 32.1045 62.5579 43.7888 63.6476L52.3315 64.4519C55.0179 64.6071 57.6664 65.202 60.1855 66.2161C62.4674 67.2454 64.423 68.962 65.8162 71.1585C67.0298 73.0399 67.9293 75.1337 68.4744 77.3462C68.8535 79.1737 69.052 81.039 69.0665 82.9112C69.0665 84.5587 69.0665 85.9727 69.0665 87.1272C69.0665 88.2817 69.0665 89.1119 69.0665 89.7865C69.0781 90.0768 69.066 90.3676 69.0302 90.6556Z" fill="#263238"/>
    <path d="M38.9915 90.656C38.9657 90.367 38.9657 90.0759 38.9915 89.7869V87.2833C38.9915 86.2066 38.9916 84.8704 38.8828 83.3916C38.8073 81.6756 38.3956 79.9959 37.6745 78.4622C36.5996 76.7395 35.0297 75.4412 33.2038 74.7651C31.1295 73.8958 28.8739 73.6492 26.679 74.0517C25.5009 74.2657 24.3627 74.6818 23.3078 75.284C22.2141 75.8818 21.3039 76.805 20.6858 77.9433C20.3828 78.5145 20.2235 79.1605 20.2235 79.8178C20.2235 80.4751 20.3828 81.1211 20.6858 81.6923C21.0014 82.2898 21.4282 82.8112 21.9396 83.224C22.4509 83.6369 23.0359 83.9324 23.6582 84.0921C24.2758 84.2395 24.918 84.2181 25.526 84.03C26.134 83.8419 26.6883 83.4931 27.1381 83.0154C28.0393 82.0707 28.5927 80.8087 28.6968 79.4611C28.771 78.1553 28.4018 76.8649 27.6577 75.8289C26.982 74.7853 26.0828 73.9311 25.0357 73.3382C24.0009 72.8378 22.8929 72.5349 21.7612 72.4431C20.6334 72.2615 19.546 72.1058 18.4988 71.9761C16.3963 71.7167 14.4268 71.574 12.6264 71.4962C9.00151 71.3535 6.08951 71.4054 4.05956 71.4054H1.73962C1.46624 71.4304 1.19135 71.4304 0.917969 71.4054C1.18414 71.3449 1.45546 71.3144 1.72753 71.3145L4.05956 71.1848C6.07742 71.107 9.01361 70.9643 12.6385 71.0551C14.451 71.0551 16.4326 71.2237 18.5592 71.4572C19.6225 71.574 20.7099 71.7167 21.8457 71.8853C22.4016 71.9891 22.9695 72.0669 23.5615 72.1837C24.1683 72.3058 24.7548 72.5244 25.3015 72.8323C26.4259 73.4436 27.3991 74.3328 28.141 75.4267C28.9957 76.5743 29.4259 78.02 29.3493 79.487C29.2507 81.0043 28.6306 82.4282 27.6094 83.4824C27.089 84.044 26.4461 84.4569 25.7391 84.6835C25.0321 84.91 24.2835 84.9431 23.5615 84.7796C22.8559 84.5973 22.1927 84.2615 21.6128 83.7929C21.0329 83.3244 20.5488 82.733 20.1904 82.0555C19.8367 81.3849 19.6508 80.6274 19.6508 79.8567C19.6508 79.0861 19.8367 78.3285 20.1904 77.6579C20.8668 76.4077 21.8655 75.3941 23.0661 74.7392C24.182 74.1047 25.3855 73.6667 26.6306 73.442C28.9241 73.0393 31.2765 73.3175 33.4334 74.2462C35.3626 74.9759 37.0087 76.3779 38.1095 78.2287C38.8594 79.8432 39.2718 81.6141 39.3178 83.4176C39.3903 84.9742 39.3178 86.3104 39.3178 87.387C39.3178 88.4637 39.3178 89.255 39.2332 89.8907C39.1781 90.1543 39.0971 90.4108 38.9915 90.656Z" fill="#263238"/>
    <path d="M77.1138 90.6556C77.0209 90.3342 76.9561 90.0042 76.9205 89.6698C76.8117 89.0212 76.6426 88.0612 76.4009 86.8289C75.7267 83.3559 74.7476 79.9593 73.4768 76.6846C71.6878 71.7957 68.7133 67.5094 64.8616 64.2703C62.5402 62.4617 59.8133 61.347 56.9593 61.0402C53.8781 60.6708 50.7799 60.4889 47.6795 60.4954C34.8836 60.2359 23.2839 60.3008 14.8862 59.9506C10.6934 59.7949 7.29811 59.5744 4.96608 59.4057L2.27158 59.1593C1.95449 59.1456 1.63913 59.1022 1.3291 59.0295C1.64245 58.9954 1.95822 58.9954 2.27158 59.0295L4.97816 59.1333C7.32227 59.2371 10.7055 59.3798 14.8983 59.4706C23.2839 59.6911 34.8716 59.5614 47.6916 59.8208C50.8204 59.8144 53.947 60.0007 57.056 60.3786C60.0041 60.7203 62.8167 61.8879 65.212 63.7644C67.3246 65.5013 69.1644 67.5903 70.6615 69.9521C71.9418 71.9892 73.0229 74.1628 73.8876 76.4382C75.1347 79.7501 76.0541 83.1937 76.6305 86.7121C76.848 88.0093 76.9688 88.9174 77.0413 89.579C77.102 89.9339 77.1263 90.295 77.1138 90.6556Z" fill="#263238"/>
    <path d="M105.461 33.9937H9.15918V49.0024H105.461V33.9937Z" fill="#263238"/>
    <path d="M82.7681 41.4912H30.3398V48.9891H82.7681V41.4912Z" fill="#455A64"/>
    <path d="M144.742 345.26C144.742 345.338 143.679 345.442 141.83 346.025C139.238 346.877 136.791 348.169 134.58 349.852C133.053 351.004 131.679 352.375 130.496 353.926C129.844 354.783 129.281 355.714 128.817 356.702C128.374 357.777 128.022 358.893 127.765 360.035C126.666 364.783 127.004 370.206 127.222 375.861C127.439 381.517 127.089 387.147 125.01 391.674C124.07 393.817 122.734 395.733 121.083 397.304C119.635 398.656 118.006 399.767 116.25 400.599C114.81 401.281 113.296 401.765 111.743 402.039C110.568 402.236 109.377 402.292 108.191 402.208C107.444 402.157 106.704 402.031 105.98 401.832C105.722 401.78 105.471 401.697 105.23 401.585C105.23 401.507 106.282 401.858 108.203 401.948C109.368 401.979 110.534 401.888 111.683 401.676C113.197 401.366 114.671 400.856 116.069 400.158C117.764 399.326 119.332 398.224 120.721 396.889C122.304 395.35 123.582 393.483 124.479 391.402C126.46 387.005 126.799 381.504 126.581 375.836C126.364 370.167 126.037 364.692 127.197 359.841C127.464 358.655 127.836 357.499 128.309 356.39C128.801 355.367 129.396 354.406 130.085 353.523C131.301 351.939 132.726 350.553 134.314 349.411C136.583 347.721 139.111 346.469 141.782 345.714C142.503 345.508 143.238 345.36 143.981 345.273C144.233 345.238 144.489 345.234 144.742 345.26Z" fill="#263238"/>
    <path d="M108.252 396.955H100.35V407.28H108.252V396.955Z" fill="#263238"/>
    <path d="M189.075 319.186H144.742V371.334H189.075V319.186Z" fill="#455A64"/>
    <path d="M179.311 350.079C181.165 341.685 176.329 333.266 168.509 331.275C160.69 329.284 152.848 334.476 150.994 342.871C149.14 351.266 153.976 359.685 161.795 361.675C169.615 363.666 177.457 358.474 179.311 350.079Z" fill="#263238"/>
    <path d="M174.201 345.455C174.201 346.994 173.776 348.499 172.979 349.779C172.182 351.059 171.05 352.056 169.725 352.646C168.401 353.235 166.943 353.389 165.537 353.088C164.13 352.788 162.839 352.047 161.825 350.958C160.811 349.87 160.12 348.483 159.84 346.973C159.561 345.463 159.704 343.898 160.253 342.476C160.802 341.054 161.731 339.838 162.923 338.983C164.115 338.128 165.517 337.671 166.951 337.671C168.874 337.671 170.718 338.491 172.077 339.951C173.437 341.411 174.201 343.39 174.201 345.455Z" fill="#455A64"/>
    <path d="M150.735 328.734C151.483 328.734 152.088 328.083 152.088 327.281C152.088 326.479 151.483 325.828 150.735 325.828C149.988 325.828 149.382 326.479 149.382 327.281C149.382 328.083 149.988 328.734 150.735 328.734Z" fill="#263238"/>
    <path d="M182.297 328.734C183.044 328.734 183.65 328.083 183.65 327.281C183.65 326.479 183.044 325.828 182.297 325.828C181.549 325.828 180.943 326.479 180.943 327.281C180.943 328.083 181.549 328.734 182.297 328.734Z" fill="#263238"/>
    <path d="M182.586 367.235C183.333 367.235 183.939 366.584 183.939 365.782C183.939 364.98 183.333 364.329 182.586 364.329C181.838 364.329 181.232 364.98 181.232 365.782C181.232 366.584 181.838 367.235 182.586 367.235Z" fill="#263238"/>
    <path d="M150.735 367.832C151.483 367.832 152.088 367.182 152.088 366.379C152.088 365.577 151.483 364.926 150.735 364.926C149.988 364.926 149.382 365.577 149.382 366.379C149.382 367.182 149.988 367.832 150.735 367.832Z" fill="#263238"/>
    <path d="M192.651 319.186H189.074V371.334H192.651V319.186Z" fill="#263238"/>
    <path d="M318.242 367.391C318.356 367.548 318.461 367.712 318.556 367.884C318.774 368.247 319.064 368.753 319.45 369.388C319.914 370.219 320.318 371.086 320.659 371.983C321.191 373.172 321.635 374.403 321.988 375.667C322.973 379.138 323.446 382.753 323.389 386.382C323.295 391.198 322.314 395.946 320.502 400.353C320.236 400.963 319.982 401.572 319.716 402.195L318.762 403.998C318.088 405.23 317.345 406.417 316.538 407.552C314.797 409.952 312.733 412.06 310.412 413.805L309.518 414.505L308.551 415.089C307.899 415.465 307.259 415.919 306.57 416.244L304.455 417.217C303.755 417.554 302.993 417.723 302.256 417.995C299.166 418.962 295.952 419.4 292.735 419.292C289.361 419.2 286.017 418.593 282.803 417.489C279.452 416.294 276.296 414.543 273.45 412.3C270.483 409.989 267.967 407.076 266.043 403.726C264.223 400.227 262.608 396.61 261.21 392.894C259.839 389.213 257.834 385.842 255.302 382.957C254.012 381.626 252.504 380.562 250.855 379.818C249.222 379.11 247.491 378.703 245.732 378.612C238.748 378.183 231.836 382.503 229.48 388.989C228.924 390.574 228.689 392.268 228.791 393.958C228.861 395.583 229.445 397.134 230.447 398.355C230.957 398.918 231.577 399.352 232.262 399.626C232.948 399.9 233.681 400.006 234.41 399.938C235.837 399.82 237.193 399.226 238.289 398.238C239.282 397.227 240.052 395.991 240.543 394.62C241.034 393.249 241.234 391.777 241.128 390.312C241.036 387.564 240.358 384.875 239.147 382.451C237.997 380.11 236.419 378.041 234.508 376.367C232.597 374.694 230.392 373.452 228.024 372.713C225.656 371.975 223.174 371.756 220.725 372.069C218.277 372.383 215.912 373.223 213.772 374.538C212.564 375.317 211.924 375.836 211.899 375.836C212.463 375.315 213.07 374.85 213.712 374.447C215.543 373.262 217.556 372.436 219.657 372.009C222.994 371.292 226.451 371.574 229.649 372.826C233.886 374.593 237.387 377.942 239.509 382.257C240.76 384.743 241.467 387.502 241.575 390.325C241.632 391.834 241.436 393.341 240.995 394.775C240.54 396.286 239.703 397.633 238.579 398.666C237.401 399.739 235.938 400.384 234.398 400.509C233.595 400.576 232.788 400.453 232.034 400.149C231.28 399.844 230.598 399.364 230.036 398.744C228.94 397.422 228.296 395.738 228.211 393.971C228.104 392.206 228.347 390.438 228.924 388.782C231.341 381.997 238.53 377.574 245.744 377.989C247.58 378.091 249.386 378.53 251.085 379.286C252.809 380.053 254.383 381.162 255.725 382.555C258.314 385.499 260.363 388.941 261.766 392.699C263.167 396.389 264.781 399.98 266.599 403.453C268.48 406.734 270.943 409.586 273.849 411.846C276.637 414.048 279.727 415.773 283.008 416.957C286.17 418.05 289.462 418.653 292.783 418.747C295.941 418.849 299.094 418.411 302.123 417.45C302.856 417.236 303.578 416.981 304.286 416.685L306.364 415.751C307.041 415.427 307.657 414.985 308.31 414.622L309.264 414.051L310.146 413.377C312.423 411.663 314.458 409.605 316.188 407.267C316.983 406.146 317.717 404.976 318.387 403.765L319.342 402C319.595 401.391 319.861 400.781 320.115 400.184C321.931 395.841 322.929 391.154 323.051 386.395C323.138 382.805 322.71 379.221 321.782 375.771C321.441 374.512 321.017 373.281 320.514 372.087C320.17 371.191 319.766 370.324 319.305 369.492C318.943 368.843 318.677 368.325 318.472 367.961L318.242 367.391Z" fill="#263238"/>
    <path d="M331.666 352.006H308.696V376.666H331.666V352.006Z" fill="#263238"/>
    <path d="M299.247 153.441H221.01V215.201H299.247V153.441Z" fill="white"/>
    <path d="M299.248 215.201C299.248 215.201 299.248 214.799 299.248 214.06C299.248 213.32 299.248 212.192 299.248 210.765C299.248 207.859 299.248 203.643 299.176 198.273C299.176 187.506 299.103 172.108 299.043 153.441L299.309 153.713L221.071 153.778L221.385 153.441C221.385 175.61 221.385 196.625 221.385 215.201L221.107 214.903L277.499 215.046L293.569 215.136H297.847H298.958H299.345C299.224 215.151 299.103 215.151 298.982 215.136H297.907H293.69L277.692 215.214L221.107 215.37H220.817V215.059C220.817 196.483 220.817 175.468 220.817 153.298V152.961H221.132L299.369 153.026H299.623V153.467C299.562 172.212 299.514 187.674 299.49 198.48C299.49 203.825 299.49 208.015 299.417 210.895C299.417 212.296 299.417 213.385 299.417 214.138C299.417 214.89 299.248 215.201 299.248 215.201Z" fill="#263238"/>
    <path d="M241.261 172.925C241.188 173.159 243.061 200.349 243.061 200.037C243.061 199.726 278.561 200.037 278.561 200.037L278.996 175.948H252.534L251.326 172.601L241.261 172.925Z" fill="#B60E09"/>
    <path d="M298.535 172.925C298.535 172.925 298.608 172.925 298.753 172.925H299.405H301.967L311.573 172.835L326.314 172.77H330.688C332.174 172.77 333.733 172.77 335.255 172.666C336.805 172.527 338.253 171.784 339.327 170.577C340.352 169.232 340.873 167.526 340.789 165.791C340.789 156.399 340.789 146.086 340.789 135.28C340.789 113.046 340.85 92.9261 340.874 78.3065C340.874 71.0551 340.947 65.1657 340.971 61.0535C340.971 59.0429 340.971 57.4732 341.031 56.3576C341.031 55.8517 341.031 55.4496 341.031 55.1382C341.016 55.0004 341.016 54.861 341.031 54.7231C341.031 54.7231 341.031 54.8658 341.031 55.1382C341.031 55.4107 341.031 55.8517 341.031 56.3576C341.031 57.4862 341.031 59.0558 341.031 61.0535C341.031 65.1787 341.031 71.0681 341.128 78.3195C341.128 92.9391 341.128 113.059 341.224 135.28C341.224 146.086 341.224 156.399 341.224 165.778C341.303 167.663 340.726 169.513 339.605 170.967C338.435 172.282 336.859 173.093 335.171 173.25C333.552 173.392 332.041 173.25 330.543 173.25H326.169L311.428 173.185L301.822 173.094H299.26H298.608L298.535 172.925Z" fill="#263238"/>
    <path d="M221.01 191.514H220.72H219.886H216.696H204.927H187.492H177.185C175.291 191.642 173.411 191.1 171.832 189.97C171.075 189.303 170.465 188.464 170.047 187.512C169.629 186.561 169.413 185.522 169.415 184.47C169.403 184.267 169.403 184.064 169.415 183.861C169.415 175.792 169.415 168.112 169.415 161.133C169.415 157.644 169.415 154.323 169.415 151.223C169.415 149.666 169.415 148.161 169.415 146.734C169.417 145.392 169.149 144.064 168.63 142.843C168.34 142.333 167.946 141.902 167.477 141.583C167.007 141.264 166.476 141.064 165.923 141.001C164.876 140.914 163.837 140.732 162.818 140.456C161.95 140.023 161.277 139.24 160.945 138.276C160.664 137.499 160.489 136.682 160.426 135.851C160.314 134.717 160.314 133.573 160.426 132.439C160.426 132.05 160.522 131.764 160.546 131.57C160.556 131.465 160.585 131.364 160.631 131.271C160.631 131.271 160.631 131.687 160.558 132.452C160.458 133.574 160.458 134.703 160.558 135.825C160.645 136.622 160.832 137.403 161.114 138.147C161.268 138.579 161.5 138.975 161.796 139.311C162.093 139.647 162.448 139.917 162.842 140.106C163.843 140.357 164.861 140.517 165.887 140.586C166.468 140.694 167.03 140.895 167.555 141.182C168.122 141.511 168.592 142.006 168.908 142.609C169.471 143.892 169.771 145.29 169.79 146.708C169.911 148.161 169.874 149.653 169.887 151.21C169.887 154.323 169.887 157.696 169.887 161.133C169.887 168.125 169.887 175.805 169.887 183.887V184.6C169.886 185.556 170.085 186.5 170.47 187.362C170.855 188.224 171.415 188.983 172.11 189.581C173.577 190.634 175.327 191.136 177.088 191.008H187.395L204.831 191.177L216.6 191.359L219.801 191.436H220.623L221.01 191.514Z" fill="#263238"/>
    <path d="M163.302 130.117C163.304 130.664 163.155 131.2 162.874 131.656C162.592 132.112 162.191 132.468 161.721 132.679C161.251 132.89 160.733 132.947 160.233 132.842C159.733 132.737 159.274 132.475 158.912 132.089C158.551 131.703 158.305 131.21 158.205 130.674C158.104 130.138 158.155 129.582 158.349 129.076C158.543 128.57 158.873 128.138 159.297 127.834C159.72 127.53 160.218 127.367 160.728 127.367C161.065 127.366 161.4 127.435 161.712 127.573C162.024 127.71 162.308 127.913 162.547 128.168C162.786 128.424 162.976 128.727 163.105 129.062C163.235 129.396 163.302 129.755 163.302 130.117Z" fill="#263238"/>
    <path d="M221.01 183.485C220.702 183.534 220.391 183.555 220.08 183.549L217.397 183.614L207.489 183.718L192.688 183.783H188.386C186.874 183.844 185.361 183.796 183.855 183.64C182.217 183.432 180.709 182.576 179.626 181.24C178.58 179.791 178.057 177.986 178.152 176.155V172.03C178.152 164.558 178.152 157.423 178.152 150.937C178.152 147.694 178.152 144.62 178.152 141.74C178.181 140.358 178.117 138.974 177.958 137.602C177.919 136.364 177.455 135.185 176.653 134.294C175.815 133.623 174.81 133.235 173.766 133.178C172.762 133.224 171.768 132.958 170.902 132.413C170.198 131.841 169.692 131.033 169.464 130.117C169.252 129.375 169.123 128.609 169.077 127.834C169.013 126.778 169.045 125.718 169.174 124.669C169.195 124.298 169.26 123.932 169.367 123.579C169.367 123.579 169.367 123.955 169.367 124.682C169.283 125.722 169.283 126.768 169.367 127.808C169.419 128.559 169.557 129.299 169.778 130.013C170.009 130.851 170.489 131.584 171.144 132.102C171.966 132.59 172.901 132.815 173.838 132.75C174.975 132.799 176.073 133.21 176.992 133.931C177.877 134.895 178.405 136.172 178.478 137.524C178.653 138.913 178.73 140.313 178.707 141.714C178.707 144.611 178.707 147.681 178.707 150.924C178.707 157.41 178.707 164.545 178.707 172.03V176.22C178.62 177.873 179.092 179.504 180.037 180.812C181.021 182.025 182.391 182.802 183.879 182.992C185.352 183.152 186.833 183.208 188.313 183.16H192.615L207.417 183.225L217.325 183.329L220.007 183.394C220.343 183.392 220.679 183.422 221.01 183.485Z" fill="#263238"/>
    <path d="M169.524 125.006C170.939 125.006 172.086 123.775 172.086 122.256C172.086 120.737 170.939 119.506 169.524 119.506C168.11 119.506 166.963 120.737 166.963 122.256C166.963 123.775 168.11 125.006 169.524 125.006Z" fill="#263238"/>
    <path d="M221.01 153.441V162.69L299.247 161.626V153.441H221.01Z" fill="#455A64"/>
    <path d="M348.269 9.85205C348.498 10.5396 351.471 56.3832 351.471 56.3832L327.776 54.4503L324.224 16.8311L348.269 9.85205Z" fill="#455A64"/>
    <path d="M351.47 56.3834L353.778 55.6829L350.467 9.17773L347.99 9.93012L351.47 56.3834Z" fill="#263238"/>
    <path d="M336.33 19.0884C336.33 19.3014 336.271 19.5095 336.161 19.6866C336.051 19.8636 335.894 20.0016 335.711 20.0831C335.528 20.1646 335.326 20.186 335.131 20.1444C334.937 20.1029 334.758 20.0003 334.618 19.8497C334.478 19.6992 334.382 19.5073 334.343 19.2985C334.305 19.0896 334.325 18.8731 334.401 18.6764C334.476 18.4796 334.605 18.3115 334.77 18.1932C334.935 18.0749 335.129 18.0117 335.327 18.0117C335.593 18.0117 335.848 18.1252 336.036 18.3271C336.224 18.529 336.33 18.8029 336.33 19.0884Z" fill="#263238"/>
    <path d="M410.267 30.413C410.128 30.7875 410.096 31.1982 410.176 31.5922C410.256 31.9862 410.443 32.3457 410.715 32.6245C410.986 32.9033 411.329 33.0887 411.699 33.1569C412.069 33.2251 412.45 33.1731 412.792 33.0074C414.001 32.4107 414.315 30.5816 414.146 29.1157C413.976 27.6499 413.59 26.0543 414.23 24.7312C414.851 23.8074 415.611 23.0008 416.478 22.3443C417.162 21.6733 417.693 20.8423 418.031 19.9155C418.368 18.9888 418.502 17.9911 418.423 16.9998C418.315 16.0089 417.954 15.0692 417.381 14.2842C416.807 13.4991 416.043 12.8992 415.173 12.5503C413.396 11.9017 411.125 12.3687 409.844 10.8769C408.914 9.80021 408.938 8.11383 408.249 6.85553C407.162 4.88376 404.697 4.44271 402.57 4.62432C400.443 4.80593 398.281 5.41562 396.251 4.74106C394.559 4.18326 393.206 2.80822 391.635 1.92611C389.919 0.954998 387.963 0.584675 386.042 0.867065C384.12 1.14945 382.329 2.07039 380.919 3.50078C379.509 4.93116 378.552 6.79927 378.181 8.84321C377.81 10.8871 378.045 13.0044 378.851 14.8983C379.379 16.2865 380.346 17.4303 381.582 18.1283" fill="#263238"/>
    <path d="M408.164 69.1477L388.154 67.4354C388.033 64.9317 388.154 55.2286 388.154 55.2286C388.154 55.2286 379.829 53.8276 379.696 44.8509C379.563 35.8741 381.037 15.3911 381.037 15.3911C385.765 13.2036 390.951 12.411 396.06 13.0952C401.169 13.7793 406.014 15.9154 410.097 19.2827L411.305 20.3075L408.164 69.1477Z" fill="#FFBE9D"/>
    <path d="M383.031 30.776C383.209 30.604 383.335 30.3793 383.393 30.1303C383.452 29.8814 383.44 29.6194 383.36 29.3775C383.28 29.1357 383.135 28.9248 382.943 28.7717C382.751 28.6185 382.521 28.53 382.282 28.5172C382.043 28.5045 381.806 28.5681 381.601 28.7001C381.396 28.8321 381.232 29.0265 381.129 29.2586C381.027 29.4908 380.992 29.7503 381.027 30.0042C381.062 30.2582 381.167 30.4951 381.328 30.6852C381.543 30.9392 381.843 31.0914 382.162 31.1085C382.481 31.1255 382.794 31.0059 383.031 30.776Z" fill="#263238"/>
    <path d="M381.001 28.7384C381.134 28.894 381.956 28.2199 383.104 28.207C384.251 28.194 385.073 28.8421 385.206 28.6736C385.339 28.5051 385.134 28.3366 384.771 28.0384C384.286 27.6536 383.695 27.4529 383.092 27.4681C382.49 27.4764 381.906 27.6897 381.424 28.0773C381.062 28.3884 380.941 28.6607 381.001 28.7384Z" fill="#263238"/>
    <path d="M394.208 29.8034C394.005 29.9382 393.844 30.1345 393.745 30.3675C393.646 30.6005 393.613 30.8599 393.651 31.1128C393.689 31.3657 393.796 31.601 393.958 31.7888C394.12 31.9766 394.331 32.1087 394.563 32.1682C394.795 32.2278 395.038 32.2123 395.262 32.1236C395.486 32.0349 395.681 31.877 395.821 31.6699C395.961 31.4627 396.042 31.2156 396.051 30.9596C396.061 30.7036 396 30.4503 395.876 30.2315C395.793 30.0854 395.684 29.9584 395.555 29.8577C395.426 29.757 395.28 29.6847 395.125 29.6449C394.97 29.6052 394.809 29.5987 394.652 29.6259C394.495 29.6531 394.344 29.7134 394.208 29.8034Z" fill="#263238"/>
    <path d="M393.459 29.8153C393.592 29.9709 394.402 29.2968 395.55 29.2968C396.697 29.2968 397.531 29.919 397.652 29.7634C397.773 29.6079 397.592 29.4135 397.229 29.1153C396.734 28.7419 396.143 28.5426 395.537 28.5449C394.933 28.5515 394.348 28.77 393.87 29.1672C393.52 29.4653 393.399 29.7505 393.459 29.8153Z" fill="#263238"/>
    <path d="M388.856 39.9735C388.267 39.717 387.642 39.5721 387.007 39.5454C386.705 39.5454 386.475 39.4417 386.451 39.273C386.437 38.9497 386.513 38.6291 386.669 38.352C386.959 37.5347 387.261 36.7045 387.575 35.8484C388.429 33.7311 389.084 31.528 389.532 29.2715C388.48 31.2841 387.618 33.4048 386.959 35.6019C386.669 36.471 386.379 37.3012 386.101 38.1185C385.918 38.5209 385.863 38.9765 385.944 39.4157C385.982 39.5401 386.049 39.6523 386.137 39.7428C386.226 39.8332 386.334 39.8991 386.451 39.9346C386.62 39.9846 386.795 40.0065 386.971 39.9995C387.596 40.1063 388.233 40.0976 388.856 39.9735Z" fill="#263238"/>
    <path d="M392.589 41.3354C390.793 42.1862 388.899 42.7752 386.958 43.0867C387.356 43.7233 387.942 44.1974 388.621 44.4328C389.301 44.6681 390.034 44.6509 390.704 44.3839C393.193 43.4629 392.589 41.3354 392.589 41.3354Z" fill="white"/>
    <path d="M388.179 55.0728C392.031 55.154 395.818 53.9975 399.053 51.752C399.053 51.752 396.492 58.238 388.179 57.3819V55.0728Z" fill="#EB996E"/>
    <path d="M380.94 17.6612C380.94 17.6612 385.774 20.6967 392.625 17.6612C397.095 15.7024 402.194 14.963 403.246 15.9878C404.297 17.0126 404.188 21.7993 408.369 23.5246C408.369 23.5246 407.451 32.6051 410.858 32.6051C414.265 32.6051 413.118 18.3358 413.118 18.3358L405.143 13.3415L396.237 10.7471L387.646 11.3697L380.94 12.7707V17.6612Z" fill="#263238"/>
    <path d="M410.388 29.6217C410.521 29.5438 416.103 27.8056 415.922 33.9154C415.741 40.0253 410.062 38.5595 410.062 38.3908C410.062 38.2222 410.388 29.6217 410.388 29.6217Z" fill="#FFBE9D"/>
    <path d="M411.861 36.1335C411.861 36.1335 411.958 36.2113 412.127 36.3021C412.365 36.3976 412.626 36.3976 412.864 36.3021C413.242 36.0681 413.554 35.7288 413.766 35.32C413.979 34.9112 414.085 34.4482 414.072 33.9801C414.106 33.4577 414.027 32.9341 413.843 32.4494C413.796 32.2557 413.705 32.0775 413.578 31.9305C413.452 31.7834 413.294 31.6721 413.118 31.6062C413.005 31.5655 412.882 31.5708 412.773 31.6211C412.664 31.6713 412.576 31.763 412.526 31.8786C412.441 32.0472 412.526 32.164 412.441 32.1769C412.356 32.1899 412.332 32.0732 412.381 31.8137C412.417 31.6647 412.497 31.5324 412.61 31.4375C412.69 31.3768 412.78 31.334 412.876 31.3117C412.971 31.2894 413.07 31.2881 413.166 31.3078C413.398 31.3641 413.613 31.483 413.791 31.6532C413.968 31.8234 414.103 32.0394 414.181 32.2807C414.404 32.8228 414.504 33.4143 414.471 34.006C414.484 34.5516 414.347 35.0891 414.076 35.5508C413.805 36.0125 413.413 36.3777 412.949 36.6005C412.794 36.6453 412.631 36.651 412.474 36.6173C412.317 36.5835 412.169 36.5112 412.042 36.4059C411.873 36.2761 411.849 36.1464 411.861 36.1335Z" fill="#EB996E"/>
    <path d="M414.242 10.6823C414.242 10.8769 413.36 10.7861 412.405 11.1104C411.451 11.4347 410.798 12.0185 410.665 11.8887C410.532 11.759 411.076 10.851 412.224 10.4748C413.372 10.0986 414.314 10.5137 414.242 10.6823Z" fill="#263238"/>
    <path d="M411.016 6.88135C411.381 7.80101 411.436 8.8283 411.173 9.78711C410.871 11.4346 409.965 12.3815 409.795 12.3037C409.626 12.2259 410.303 11.1232 410.557 9.70928C410.81 8.29531 410.822 6.88135 411.016 6.88135Z" fill="#263238"/>
    <path d="M386.584 26.7291C386.403 27.0664 385.315 26.7291 383.998 26.7291C382.681 26.7291 381.581 26.8588 381.436 26.5085C381.291 26.1583 382.415 25.3021 384.058 25.38C385.702 25.4578 386.765 26.4177 386.584 26.7291Z" fill="#263238"/>
    <path d="M399.343 25.5872C399.174 25.9115 398.135 25.5872 396.769 25.5872C395.404 25.5872 394.353 25.7169 394.208 25.3666C394.063 25.0164 395.187 24.1472 396.83 24.2381C398.473 24.3289 399.536 25.2758 399.343 25.5872Z" fill="#263238"/>
    <path d="M446.455 403.168L448.437 412.106C448.437 412.106 462.066 431.11 466.259 430.176C469.014 429.566 465.631 424.611 460.447 410.186L459.36 404.219L446.455 403.168Z" fill="#B60E09"/>
    <path d="M466.815 427.374C466.796 427.471 466.759 427.564 466.706 427.646C466.566 427.886 466.371 428.083 466.138 428.217C465.768 428.43 465.35 428.529 464.93 428.503C464.375 428.442 463.843 428.232 463.383 427.893C460.951 425.774 458.658 423.476 456.52 421.018C454.385 418.58 452.368 416.026 450.479 413.364C449.754 412.339 449.186 411.496 448.799 410.899L448.364 410.212C448.268 410.056 448.219 409.965 448.231 409.965L448.413 410.186L448.884 410.834C449.379 411.535 449.959 412.326 450.624 413.247C452.11 415.258 454.249 417.995 456.75 420.836C458.883 423.276 461.146 425.58 463.528 427.737C463.89 428.05 464.323 428.251 464.783 428.32C465.243 428.388 465.711 428.321 466.138 428.126C466.425 427.949 466.66 427.688 466.815 427.374Z" fill="#263238"/>
    <path d="M464.893 421.264C464.893 421.264 464.458 421.264 463.782 421.329C462.923 421.479 462.101 421.815 461.365 422.315C460.601 422.791 459.967 423.476 459.528 424.299C459.202 424.935 459.118 425.389 459.069 425.376C459.088 424.968 459.191 424.569 459.371 424.209C459.783 423.321 460.43 422.585 461.232 422.094C462.009 421.564 462.89 421.235 463.806 421.134C464.173 421.084 464.546 421.129 464.893 421.264Z" fill="#263238"/>
    <path d="M451.989 416.802C451.989 416.802 452.134 416.153 452.243 415.115C452.38 413.775 452.145 412.421 451.566 411.224C450.994 410.011 450.081 409.021 448.957 408.396C448.48 408.164 447.987 407.974 447.482 407.825C447.623 407.802 447.765 407.802 447.905 407.825C448.293 407.898 448.671 408.024 449.029 408.201C450.224 408.793 451.195 409.804 451.784 411.068C452.394 412.319 452.618 413.745 452.424 415.141C452.367 415.559 452.279 415.971 452.159 416.374C452.121 416.524 452.064 416.668 451.989 416.802Z" fill="#263238"/>
    <path d="M447.325 404.686C447.698 405.576 447.946 406.52 448.062 407.488C448.316 409.07 448.594 410.328 448.533 410.354C448.17 409.458 447.93 408.51 447.821 407.539C447.567 405.957 447.265 404.711 447.325 404.686Z" fill="#263238"/>
    <path d="M460.689 411.444C460.689 411.522 459.916 411.444 458.997 411.729C458.079 412.014 457.402 412.339 457.366 412.274C457.808 411.844 458.359 411.564 458.949 411.47C459.515 411.282 460.119 411.273 460.689 411.444Z" fill="#263238"/>
    <path d="M460.967 412.975C460.967 413.053 460.314 412.975 459.553 413.182C458.792 413.39 458.248 413.753 458.212 413.688C458.54 413.27 459 412.997 459.505 412.923C459.982 412.75 460.501 412.768 460.967 412.975Z" fill="#263238"/>
    <path d="M462.055 414.894C461.069 414.729 460.061 414.974 459.239 415.581C459.384 415.343 459.574 415.14 459.797 414.986C460.02 414.832 460.27 414.73 460.532 414.687C460.785 414.601 461.052 414.574 461.315 414.61C461.578 414.646 461.83 414.743 462.055 414.894Z" fill="#263238"/>
    <path d="M459.759 410.808C459.603 410.811 459.449 410.789 459.299 410.743C458.889 410.659 458.485 410.542 458.091 410.393C457.507 410.178 456.941 409.909 456.4 409.589C456.101 409.415 455.81 409.224 455.53 409.018C455.341 408.904 455.179 408.744 455.06 408.55C454.94 408.356 454.865 408.134 454.841 407.903C454.86 407.78 454.903 407.663 454.967 407.56C455.032 407.457 455.116 407.37 455.215 407.305C455.313 407.24 455.424 407.198 455.538 407.183C455.653 407.167 455.77 407.178 455.88 407.215C456.246 407.349 456.572 407.587 456.822 407.903C457.318 408.421 457.741 408.927 458.031 409.355C458.321 409.784 458.611 410.173 458.78 410.432C458.874 410.563 458.951 410.707 459.009 410.86C459.009 410.86 458.587 410.315 457.886 409.485C457.547 409.07 457.112 408.577 456.617 408.071C456.387 407.799 456.096 407.594 455.771 407.474C455.457 407.384 455.058 407.565 455.046 407.916C455.034 408.266 455.348 408.59 455.614 408.811C455.88 409.031 456.23 409.252 456.52 409.433C457.051 409.752 457.599 410.034 458.164 410.276C459.154 410.614 459.759 410.756 459.759 410.808Z" fill="#263238"/>
    <path d="M459.033 410.614C459.02 410.467 459.02 410.319 459.033 410.173C459.033 409.887 459.033 409.472 459.13 408.953C459.194 408.347 459.336 407.753 459.553 407.189C459.692 406.852 459.875 406.537 460.096 406.255C460.211 406.073 460.38 405.938 460.575 405.872C460.77 405.806 460.981 405.813 461.172 405.892C461.332 406.024 461.453 406.204 461.52 406.409C461.586 406.614 461.595 406.836 461.546 407.046C461.488 407.409 461.386 407.762 461.244 408.097C461.006 408.655 460.679 409.164 460.278 409.602C460.008 409.89 459.717 410.155 459.408 410.393C459.303 410.493 459.179 410.569 459.045 410.614C459.045 410.614 459.516 410.224 460.145 409.472C460.514 409.033 460.815 408.534 461.039 407.993C461.165 407.682 461.255 407.355 461.305 407.02C461.305 406.683 461.305 406.268 461.051 406.125C460.797 405.983 460.483 406.125 460.278 406.437C460.074 406.696 459.903 406.984 459.77 407.293C459.541 407.833 459.383 408.405 459.299 408.992C459.249 409.539 459.16 410.081 459.033 410.614Z" fill="#263238"/>
    <path opacity="0.4" d="M448.437 412.106L447.482 407.812C447.482 407.812 450.817 408.474 451.687 411.159C452.195 412.625 452.413 414.189 452.328 415.751L459.577 424.144C459.577 424.144 461.402 420.252 464.701 421.238C464.701 421.238 467.286 427.361 467.214 428.905C467.141 430.448 465.474 430.202 464.882 429.955C462.482 428.464 460.293 426.612 458.381 424.455C454.551 420.174 450.298 414.739 448.437 412.106Z" fill="black"/>
    <path d="M378.718 407.721V395.8L399.525 395.527L399.791 412.975L398.51 413.079C392.77 413.494 369.305 414.765 365.451 413.572C361.089 412.197 378.718 407.721 378.718 407.721Z" fill="#B60E09"/>
    <g opacity="0.4">
        <path d="M392.19 412.91C392.477 411.022 393.402 409.313 394.788 408.11C396.145 406.918 397.87 406.316 399.621 406.424L399.694 412.677L392.19 412.91Z" fill="black"/>
    </g>
    <path opacity="0.4" d="M370.114 410.225C370.114 410.225 363.928 412.222 364.725 413.299C365.523 414.376 389.266 414.064 399.766 412.936V412.443L372.06 413.066C372.06 413.066 371.323 410.315 370.114 410.225Z" fill="black"/>
    <path d="M400.02 412.417H399.67L398.643 412.495L394.861 412.728C391.659 412.884 387.249 413.052 382.367 413.13C377.486 413.208 373.075 413.13 369.885 413.13L366.091 413.013H365.064H364.714C364.83 412.994 364.948 412.994 365.064 413.013H366.115H369.91C373.099 413.013 377.522 413.013 382.391 413.013C387.261 413.013 391.683 412.806 394.873 412.689L398.655 412.547H399.682L400.02 412.417Z" fill="#263238"/>
    <path d="M371.987 413.416C371.818 412.747 371.574 412.102 371.262 411.496C370.882 410.931 370.444 410.413 369.957 409.952C370.605 410.201 371.146 410.694 371.48 411.34C371.886 411.939 372.067 412.68 371.987 413.416Z" fill="#263238"/>
    <path d="M378.089 409.991C378.089 409.991 377.739 409.654 377.425 409.148C377.111 408.642 376.917 408.188 376.978 408.149C377.038 408.11 377.328 408.487 377.642 408.992C377.957 409.498 378.198 409.952 378.089 409.991Z" fill="#263238"/>
    <path d="M379.769 409.017C379.769 409.082 379.394 408.849 379.032 408.512C378.669 408.175 378.404 407.851 378.452 407.786C378.5 407.721 378.827 407.967 379.189 408.304C379.552 408.641 379.817 409.017 379.769 409.017Z" fill="#263238"/>
    <path d="M380.808 406.891C380.459 407.024 380.089 407.077 379.72 407.047C379.355 407.1 378.984 407.064 378.633 406.943C378.98 406.802 379.351 406.744 379.72 406.774C380.086 406.723 380.458 406.763 380.808 406.891Z" fill="#263238"/>
    <path d="M381.159 405.399C380.801 405.654 380.38 405.79 379.95 405.788C379.542 405.856 379.124 405.802 378.742 405.632C379.14 405.551 379.545 405.512 379.95 405.516C380.349 405.438 380.754 405.399 381.159 405.399Z" fill="#263238"/>
    <path d="M377.365 408.045C376.921 408.133 376.467 408.133 376.024 408.045C375.532 407.982 375.047 407.874 374.574 407.721C374.29 407.631 374.015 407.514 373.752 407.371C373.595 407.274 373.478 407.116 373.426 406.93C373.399 406.823 373.403 406.71 373.438 406.605C373.472 406.501 373.535 406.411 373.619 406.346C374.125 406.061 374.708 405.978 375.265 406.111C375.823 406.244 376.318 406.585 376.664 407.072C376.868 407.359 377.02 407.685 377.111 408.032C377.135 408.161 377.135 408.293 377.111 408.421C376.972 407.978 376.759 407.565 376.483 407.202C376.166 406.813 375.743 406.541 375.274 406.424C374.748 406.238 374.174 406.285 373.679 406.553C373.474 406.735 373.559 406.995 373.788 407.15C374.031 407.285 374.286 407.393 374.549 407.474C374.998 407.637 375.459 407.758 375.927 407.838C376.857 408.006 377.365 408.006 377.365 408.045Z" fill="#263238"/>
    <path d="M376.99 408.123C376.831 407.825 376.775 407.475 376.833 407.137C376.867 406.757 376.988 406.392 377.183 406.073C377.293 405.86 377.452 405.681 377.644 405.551C377.837 405.422 378.056 405.347 378.283 405.334C378.418 405.362 378.537 405.446 378.616 405.567C378.695 405.688 378.727 405.837 378.706 405.983C378.68 406.214 378.606 406.436 378.488 406.631C378.316 406.954 378.105 407.25 377.86 407.513C377.658 407.771 377.401 407.971 377.111 408.097C377.111 408.097 377.377 407.838 377.739 407.384C377.949 407.116 378.132 406.825 378.283 406.514C378.464 406.203 378.585 405.658 378.283 405.593C377.981 405.529 377.606 405.931 377.413 406.216C377.225 406.499 377.097 406.822 377.038 407.163C376.996 407.481 376.98 407.802 376.99 408.123Z" fill="#263238"/>
    <path d="M399.525 406.32C399.013 406.311 398.5 406.337 397.991 406.398C396.766 406.561 395.61 407.092 394.654 407.93C393.699 408.767 392.983 409.878 392.589 411.133C392.287 412.093 392.263 412.742 392.215 412.729C392.191 412.583 392.191 412.433 392.215 412.287C392.241 411.874 392.31 411.465 392.42 411.068C392.776 409.749 393.497 408.578 394.488 407.709C395.478 406.84 396.692 406.315 397.966 406.204C398.348 406.163 398.733 406.163 399.114 406.204C399.38 406.255 399.525 406.294 399.525 406.32Z" fill="#263238"/>
    <path d="M397.253 397.045C397.503 400.099 397.575 403.166 397.471 406.229C397.237 403.175 397.165 400.108 397.253 397.045Z" fill="#263238"/>
    <path d="M389.545 410.718C388.552 410.976 387.533 411.098 386.512 411.081C385.492 411.152 384.468 411.078 383.467 410.86C383.467 410.783 384.832 410.86 386.5 410.86C388.167 410.86 389.533 410.64 389.545 410.718Z" fill="#263238"/>
    <path d="M393.616 410.653C393.616 410.653 393.507 410.964 393.374 411.301C393.241 411.638 393.168 411.936 393.096 411.936C393.023 411.936 392.987 411.586 393.096 411.197C393.205 410.808 393.579 410.601 393.616 410.653Z" fill="#263238"/>
    <path d="M395.114 408.577C395.114 408.577 395.03 408.863 394.812 409.109C394.595 409.355 394.389 409.498 394.341 409.446C394.293 409.394 394.426 409.148 394.631 408.914C394.836 408.681 395.114 408.526 395.114 408.577Z" fill="#263238"/>
    <path d="M397.325 407.617C397.325 407.695 397.035 407.695 396.721 407.811C396.407 407.928 396.201 408.11 396.153 408.058C396.105 408.006 396.262 407.695 396.648 407.552C397.035 407.41 397.337 407.539 397.325 407.617Z" fill="#263238"/>
    <path d="M398.884 407.15C398.884 407.215 398.788 407.332 398.619 407.409C398.449 407.487 398.28 407.487 398.256 407.409C398.232 407.332 398.353 407.215 398.522 407.15C398.691 407.085 398.86 407.085 398.884 407.15Z" fill="#263238"/>
    <path d="M364.557 170.797L374.271 402.545L406.678 403.271L401.301 209.26L437.756 404.763H468.567L427.412 170.797" fill="#263238"/>
    <path d="M436.148 401.611L436.885 405.036L468.567 405.49L468.084 400.132L436.148 401.611Z" fill="#455A64"/>
    <path d="M460.81 401.404C460.979 401.404 461.184 401.78 461.269 402.312C461.354 402.844 461.269 403.298 461.1 403.324C460.931 403.35 460.725 402.947 460.641 402.416C460.556 401.884 460.629 401.443 460.81 401.404Z" fill="#455A64"/>
    <path d="M459.613 393.815C459.794 393.815 460.06 394.619 460.229 395.657C460.399 396.695 460.387 397.577 460.229 397.616C460.072 397.655 459.782 396.824 459.613 395.774C459.444 394.723 459.444 393.854 459.613 393.815Z" fill="#455A64"/>
    <path d="M458.43 386.226C458.599 386.226 458.877 387.03 459.034 388.068C459.191 389.106 459.203 390.001 459.034 390.027C458.865 390.053 458.599 389.236 458.43 388.185C458.26 387.134 458.26 386.265 458.43 386.226Z" fill="#455A64"/>
    <path d="M457.245 378.638C457.415 378.638 457.693 379.442 457.85 380.48C458.007 381.518 458.007 382.413 457.85 382.439C457.693 382.465 457.403 381.647 457.245 380.597C457.088 379.546 457.076 378.677 457.245 378.638Z" fill="#455A64"/>
    <path d="M456.049 371.049C456.218 371.049 456.496 371.853 456.665 372.891C456.834 373.929 456.822 374.824 456.665 374.85C456.508 374.876 456.218 374.058 456.049 373.008C455.88 371.957 455.88 371.088 456.049 371.049Z" fill="#455A64"/>
    <path d="M454.865 363.46C455.034 363.46 455.3 364.251 455.469 365.302C455.639 366.353 455.627 367.222 455.469 367.261C455.312 367.3 455.022 366.47 454.865 365.419C454.708 364.368 454.684 363.499 454.865 363.46Z" fill="#455A64"/>
    <path d="M453.669 355.833C453.838 355.833 454.104 356.624 454.273 357.675C454.442 358.725 454.43 359.594 454.273 359.633C454.116 359.672 453.826 358.842 453.669 357.791C453.512 356.741 453.488 355.91 453.669 355.833Z" fill="#455A64"/>
    <path d="M452.46 348.283C452.629 348.283 452.907 349.087 453.076 350.125C453.245 351.163 453.233 352.058 453.076 352.084C452.919 352.109 452.629 351.292 452.46 350.242C452.291 349.191 452.291 348.322 452.46 348.283Z" fill="#455A64"/>
    <path d="M451.264 340.694C451.433 340.694 451.699 341.498 451.868 342.536C452.038 343.574 452.038 344.456 451.868 344.495C451.699 344.534 451.433 343.703 451.264 342.653C451.095 341.602 451.083 340.733 451.264 340.694Z" fill="#455A64"/>
    <path d="M450.044 333.118C450.225 333.118 450.491 333.909 450.66 334.947C450.829 335.985 450.829 336.88 450.66 336.906C450.491 336.932 450.213 336.115 450.044 335.064C449.875 334.013 449.875 333.144 450.044 333.118Z" fill="#455A64"/>
    <path d="M448.835 325.529C449.004 325.529 449.282 326.321 449.451 327.371C449.62 328.422 449.608 329.291 449.451 329.317C449.294 329.343 449.004 328.526 448.835 327.475C448.666 326.424 448.666 325.555 448.835 325.529Z" fill="#455A64"/>
    <path d="M447.615 317.941C447.784 317.941 448.062 318.732 448.231 319.783C448.401 320.834 448.401 321.703 448.231 321.729C448.062 321.755 447.784 320.937 447.615 319.9C447.446 318.862 447.446 317.98 447.615 317.941Z" fill="#455A64"/>
    <path d="M446.395 310.43C446.564 310.43 446.842 311.208 447.011 312.259C447.181 313.31 447.181 314.179 447.011 314.218C446.842 314.256 446.564 313.426 446.395 312.376C446.226 311.325 446.214 310.43 446.395 310.43Z" fill="#455A64"/>
    <path d="M445.15 302.776C445.332 302.776 445.609 303.568 445.779 304.618C445.948 305.669 445.948 306.538 445.779 306.564C445.609 306.59 445.319 305.773 445.15 304.735C444.981 303.697 444.981 302.815 445.15 302.776Z" fill="#455A64"/>
    <path d="M443.918 295.201C444.087 295.201 444.365 295.992 444.534 297.03C444.703 298.068 444.703 298.95 444.534 298.989C444.365 299.027 444.087 298.197 443.918 297.147C443.749 296.096 443.749 295.227 443.918 295.201Z" fill="#455A64"/>
    <path d="M442.661 287.612C442.83 287.612 443.12 288.403 443.289 289.454C443.459 290.505 443.459 291.374 443.289 291.4C443.12 291.426 442.842 290.621 442.673 289.571C442.504 288.52 442.492 287.651 442.661 287.612Z" fill="#455A64"/>
    <path d="M441.404 280.036C441.573 280.036 441.863 280.827 442.033 281.878C442.202 282.929 442.214 283.798 442.033 283.824C441.851 283.85 441.585 283.033 441.416 281.995C441.247 280.957 441.235 280.075 441.404 280.036Z" fill="#455A64"/>
    <path d="M440.136 272.46C440.305 272.46 440.595 273.252 440.764 274.302C440.933 275.353 440.945 276.222 440.764 276.248C440.583 276.274 440.305 275.457 440.136 274.419C439.966 273.381 439.966 272.499 440.136 272.46Z" fill="#455A64"/>
    <path d="M438.867 264.885C439.036 264.885 439.314 265.676 439.495 266.727C439.676 267.778 439.676 268.647 439.495 268.673C439.314 268.699 439.036 267.894 438.855 266.844C438.673 265.793 438.685 264.924 438.867 264.885Z" fill="#455A64"/>
    <path d="M437.574 257.322C437.743 257.322 438.033 258.1 438.202 259.151C438.371 260.202 438.395 261.071 438.202 261.097C438.009 261.123 437.755 260.318 437.574 259.268C437.393 258.217 437.405 257.348 437.574 257.322Z" fill="#455A64"/>
    <path d="M436.269 249.746C436.45 249.746 436.728 250.537 436.909 251.575C437.091 252.613 437.103 253.495 436.909 253.534C436.716 253.573 436.462 252.743 436.281 251.705C436.1 250.667 436.1 249.785 436.269 249.746Z" fill="#455A64"/>
    <path d="M434.988 242.184C435.157 242.184 435.447 242.962 435.629 244.013C435.81 245.063 435.81 245.933 435.629 245.958C435.447 245.984 435.182 245.18 435 244.129C434.819 243.079 434.795 242.21 434.988 242.184Z" fill="#455A64"/>
    <path d="M433.635 234.621C433.817 234.621 434.094 235.399 434.276 236.45C434.457 237.5 434.469 238.37 434.276 238.396C434.082 238.421 433.817 237.617 433.635 236.566C433.454 235.516 433.466 234.647 433.635 234.621Z" fill="#455A64"/>
    <path d="M432.306 227.058C432.475 227.058 432.765 227.836 432.947 228.887C433.128 229.937 433.14 230.794 432.947 230.833C432.753 230.871 432.487 230.054 432.306 229.003C432.125 227.953 432.137 227.084 432.306 227.058Z" fill="#455A64"/>
    <path d="M430.952 219.495C431.121 219.495 431.411 220.273 431.593 221.324C431.774 222.375 431.798 223.244 431.593 223.27C431.387 223.296 431.133 222.492 430.94 221.454C430.747 220.416 430.783 219.534 430.952 219.495Z" fill="#455A64"/>
    <path d="M429.587 211.945C429.756 211.945 430.046 212.724 430.24 213.761C430.433 214.799 430.445 215.681 430.24 215.72C430.034 215.759 429.781 214.942 429.587 213.891C429.394 212.84 429.418 211.971 429.587 211.945Z" fill="#455A64"/>
    <path d="M428.197 204.383C428.366 204.383 428.668 205.161 428.85 206.212C429.031 207.263 429.067 208.132 428.85 208.158C428.632 208.184 428.379 207.379 428.185 206.342C427.992 205.304 428.028 204.422 428.197 204.383Z" fill="#455A64"/>
    <path d="M426.796 196.833C426.965 196.833 427.267 197.611 427.461 198.662C427.654 199.712 427.678 200.569 427.461 200.607C427.243 200.646 427.001 199.829 426.808 198.791C426.615 197.754 426.627 196.871 426.796 196.833Z" fill="#455A64"/>
    <path d="M425.382 189.296C425.551 189.296 425.853 190.074 426.047 191.112C426.24 192.15 426.264 193.032 426.047 193.071C425.829 193.11 425.576 192.292 425.382 191.242C425.189 190.191 425.213 189.335 425.382 189.296Z" fill="#455A64"/>
    <path d="M423.944 181.746C424.114 181.746 424.416 182.524 424.609 183.562C424.802 184.6 424.839 185.482 424.669 185.521C424.5 185.56 424.198 184.743 423.993 183.705C423.787 182.667 423.775 181.785 423.944 181.746Z" fill="#455A64"/>
    <path d="M422.905 176.064C423.087 176.064 423.304 176.428 423.401 176.947C423.497 177.465 423.401 177.932 423.28 177.971C423.159 178.01 422.893 177.608 422.784 177.089C422.676 176.57 422.676 176.103 422.905 176.064Z" fill="#455A64"/>
    <path d="M401.156 401.377C401.325 401.377 401.494 401.806 401.518 402.337C401.542 402.869 401.421 403.31 401.252 403.323C401.083 403.336 400.914 402.908 400.89 402.376C400.866 401.844 400.926 401.39 401.156 401.377Z" fill="#455A64"/>
    <path d="M400.794 393.659C400.975 393.659 401.144 394.515 401.18 395.579C401.216 396.643 401.108 397.512 400.939 397.525C400.769 397.538 400.588 396.669 400.552 395.605C400.516 394.541 400.624 393.672 400.794 393.659Z" fill="#455A64"/>
    <path d="M400.576 385.941C400.745 385.941 400.914 386.797 400.938 387.861C400.962 388.925 400.853 389.794 400.684 389.807C400.515 389.82 400.346 388.95 400.31 387.887C400.273 386.823 400.406 385.941 400.576 385.941Z" fill="#455A64"/>
    <path d="M400.394 378.209C400.563 378.209 400.72 379.066 400.745 380.142C400.769 381.219 400.66 382.075 400.479 382.075C400.298 382.075 400.141 381.219 400.116 380.155C400.092 379.092 400.213 378.222 400.394 378.209Z" fill="#455A64"/>
    <path d="M400.225 370.491C400.394 370.491 400.552 371.347 400.576 372.411C400.6 373.475 400.479 374.344 400.31 374.357C400.141 374.37 399.972 373.501 399.947 372.424C399.923 371.347 400.044 370.491 400.225 370.491Z" fill="#455A64"/>
    <path d="M400.032 362.76C400.213 362.76 400.37 363.616 400.394 364.68C400.418 365.743 400.31 366.613 400.128 366.625C399.947 366.638 399.79 365.769 399.766 364.706C399.742 363.642 399.862 362.76 400.032 362.76Z" fill="#455A64"/>
    <path d="M399.791 355.028C399.972 355.028 400.141 355.884 400.177 356.948C400.214 358.012 400.093 358.881 399.924 358.894C399.754 358.907 399.585 358.038 399.549 356.974C399.513 355.91 399.621 355.041 399.791 355.028Z" fill="#455A64"/>
    <path d="M399.488 347.31C399.669 347.31 399.839 348.166 399.887 349.229C399.935 350.293 399.814 351.162 399.645 351.175C399.476 351.188 399.295 350.319 399.259 349.255C399.222 348.192 399.319 347.323 399.488 347.31Z" fill="#455A64"/>
    <path d="M399.211 339.591C399.392 339.591 399.561 340.434 399.597 341.511C399.633 342.588 399.525 343.444 399.356 343.444C399.186 343.444 399.005 342.601 398.969 341.537C398.933 340.473 399.041 339.591 399.211 339.591Z" fill="#455A64"/>
    <path d="M398.957 331.86C399.138 331.86 399.307 332.716 399.344 333.78C399.38 334.843 399.259 335.726 399.09 335.726C398.921 335.726 398.739 334.869 398.703 333.806C398.667 332.742 398.74 331.873 398.957 331.86Z" fill="#455A64"/>
    <path d="M398.74 324.142C398.921 324.142 399.078 324.985 399.114 326.061C399.15 327.138 399.017 327.994 398.848 327.994C398.679 327.994 398.51 327.138 398.486 326.074C398.462 325.011 398.57 324.142 398.74 324.142Z" fill="#455A64"/>
    <path d="M398.558 316.41C398.727 316.41 398.885 317.266 398.909 318.33C398.933 319.394 398.824 320.276 398.643 320.276C398.462 320.276 398.305 319.42 398.28 318.356C398.256 317.292 398.377 316.41 398.558 316.41Z" fill="#455A64"/>
    <path d="M398.401 308.691C398.57 308.691 398.727 309.548 398.752 310.611C398.776 311.675 398.643 312.544 398.474 312.544C398.304 312.544 398.147 311.688 398.123 310.624C398.099 309.561 398.22 308.691 398.401 308.691Z" fill="#455A64"/>
    <path d="M398.28 300.96C398.449 300.96 398.606 301.817 398.618 302.88C398.631 303.944 398.51 304.826 398.328 304.826C398.147 304.826 398.002 303.97 397.99 302.893C397.978 301.817 398.099 300.96 398.28 300.96Z" fill="#455A64"/>
    <path d="M398.195 293.229C398.365 293.229 398.51 294.098 398.522 295.162C398.534 296.226 398.401 297.095 398.232 297.095C398.063 297.095 397.905 296.239 397.893 295.175C397.881 294.111 398.014 293.242 398.195 293.229Z" fill="#455A64"/>
    <path d="M398.135 285.51C398.316 285.51 398.461 286.366 398.461 287.443C398.461 288.52 398.34 289.363 398.159 289.376C397.978 289.389 397.845 288.507 397.833 287.443C397.821 286.379 397.966 285.51 398.135 285.51Z" fill="#455A64"/>
    <path d="M398.123 277.779C398.292 277.779 398.437 278.648 398.437 279.712C398.437 280.775 398.304 281.645 398.123 281.645C397.942 281.645 397.809 280.775 397.809 279.712C397.809 278.648 397.954 277.779 398.123 277.779Z" fill="#455A64"/>
    <path d="M398.148 270.047C398.317 270.047 398.462 270.916 398.45 271.98C398.438 273.044 398.305 273.913 398.135 273.913C397.966 273.913 397.821 273.044 397.821 271.98C397.821 270.916 397.966 270.047 398.148 270.047Z" fill="#455A64"/>
    <path d="M398.195 262.329C398.376 262.329 398.509 263.198 398.497 264.262C398.485 265.326 398.34 266.195 398.171 266.195C398.002 266.195 397.857 265.326 397.869 264.249C397.881 263.172 398.026 262.329 398.195 262.329Z" fill="#455A64"/>
    <path d="M398.292 254.649C398.473 254.649 398.594 255.519 398.582 256.582C398.57 257.646 398.413 258.515 398.244 258.515C398.075 258.515 397.942 257.646 397.954 256.582C397.966 255.519 398.123 254.649 398.292 254.649Z" fill="#455A64"/>
    <path d="M398.425 246.866C398.594 246.866 398.727 247.735 398.703 248.799C398.678 249.863 398.533 250.732 398.352 250.732C398.171 250.732 398.05 249.85 398.074 248.786C398.099 247.722 398.243 246.866 398.425 246.866Z" fill="#455A64"/>
    <path d="M398.582 239.148C398.763 239.148 398.884 240.017 398.86 241.081C398.836 242.144 398.667 243.014 398.497 243.014C398.328 243.014 398.207 242.144 398.232 241.068C398.256 239.991 398.413 239.083 398.582 239.148Z" fill="#455A64"/>
    <path d="M398.836 231.417C399.017 231.417 399.126 232.299 399.077 233.362C399.029 234.426 398.872 235.282 398.691 235.282C398.509 235.282 398.413 234.4 398.449 233.337C398.485 232.273 398.666 231.404 398.836 231.417Z" fill="#455A64"/>
    <path d="M399.259 223.698C399.428 223.698 399.524 224.58 399.452 225.644C399.379 226.707 399.198 227.564 399.017 227.551C398.836 227.538 398.763 226.668 398.824 225.605C398.884 224.541 399.089 223.685 399.259 223.698Z" fill="#455A64"/>
    <path d="M399.947 216.005C400.129 216.005 400.189 216.901 400.08 217.964C399.972 219.028 399.766 219.858 399.585 219.845C399.404 219.832 399.355 218.95 399.452 217.886C399.549 216.823 399.742 215.98 399.947 216.005Z" fill="#455A64"/>
    <path d="M400.612 210.259C400.782 210.259 400.866 210.739 400.794 211.271C400.721 211.803 400.528 212.205 400.359 212.179C400.19 212.153 400.105 211.712 400.177 211.18C400.25 210.648 400.443 210.233 400.612 210.259Z" fill="#455A64"/>
    <path d="M373.426 403.674L407.705 404.27L407.427 398.147L373.426 398.329V403.674Z" fill="#455A64"/>
    <path d="M395.9 173.742C396.031 174.2 396.101 174.677 396.105 175.156C396.202 176.064 396.31 177.387 396.431 179.048C396.673 182.317 396.975 186.831 397.265 191.851C397.398 194.355 397.531 196.729 397.64 198.921C397.62 200.819 397.831 202.712 398.268 204.551C398.626 205.754 399.412 206.757 400.455 207.34C400.846 207.509 401.25 207.639 401.663 207.729C401.552 207.76 401.436 207.76 401.325 207.729C400.982 207.737 400.641 207.671 400.322 207.535C399.742 207.27 399.22 206.879 398.789 206.385C398.358 205.891 398.029 205.306 397.821 204.668C397.3 202.799 397.031 200.859 397.023 198.908C396.89 196.716 396.745 194.342 396.6 191.851C396.31 186.844 396.081 182.304 395.948 179.022C395.888 177.374 395.839 176.051 395.827 175.13C395.807 174.666 395.831 174.201 395.9 173.742Z" fill="#455A64"/>
    <path d="M399.235 176.817C399.235 176.907 398.957 177.128 398.933 177.673C398.918 177.818 398.931 177.964 398.973 178.103C399.015 178.242 399.083 178.369 399.175 178.477C399.289 178.583 399.431 178.651 399.581 178.672C399.732 178.693 399.884 178.665 400.02 178.594C400.165 178.541 400.293 178.445 400.387 178.316C400.482 178.187 400.539 178.031 400.552 177.867C400.547 177.724 400.514 177.583 400.456 177.453C400.397 177.324 400.315 177.209 400.214 177.115C399.839 176.752 399.465 176.817 399.44 176.726C399.416 176.635 399.839 176.337 400.48 176.726C400.664 176.845 400.82 177.009 400.933 177.205C401.046 177.402 401.115 177.624 401.132 177.854C401.132 178.155 401.048 178.449 400.891 178.698C400.734 178.947 400.511 179.14 400.251 179.251C399.991 179.363 399.706 179.389 399.432 179.325C399.158 179.26 398.909 179.11 398.715 178.892C398.581 178.713 398.487 178.502 398.441 178.277C398.395 178.052 398.398 177.818 398.45 177.595C398.74 176.817 399.235 176.726 399.235 176.817Z" fill="#455A64"/>
    <path d="M429.72 182.304C428.922 182.897 428.001 183.276 427.038 183.406C424.713 183.914 422.299 183.629 420.133 182.592C417.967 181.555 416.156 179.817 414.955 177.621C414.402 176.758 414.05 175.766 413.928 174.728C414.024 174.728 414.363 175.818 415.329 177.322C416.574 179.341 418.328 180.937 420.386 181.925C422.445 182.913 424.722 183.251 426.953 182.9C428.681 182.68 429.684 182.2 429.72 182.304Z" fill="#455A64"/>
    <path d="M375.781 173.742C375.948 174.574 375.906 175.438 375.661 176.246C375.23 178.266 374.217 180.09 372.766 181.456C371.315 182.823 369.499 183.665 367.577 183.861C366.796 184.016 365.991 183.945 365.245 183.653C365.245 183.536 366.139 183.653 367.517 183.394C369.309 183.083 370.984 182.238 372.35 180.953C373.715 179.668 374.716 177.996 375.238 176.129C375.697 174.689 375.781 173.729 375.781 173.742Z" fill="#455A64"/>
    <path d="M356.171 73.7529L325.963 82.1719L330.796 43.7354L331.413 41.9063L342.481 40.0643L341.164 31.2951C341.001 30.3242 340.652 29.4001 340.14 28.5812C339.628 27.7623 338.963 27.0663 338.187 26.5372C337.412 26.0081 336.542 25.6575 335.634 25.5074C334.726 25.3573 333.799 25.411 332.911 25.6652L329.286 26.7029C327.995 27.062 326.79 27.7098 325.749 28.6041C324.707 29.4983 323.854 30.6187 323.245 31.8918C321.154 36.3153 319.1 41.1409 319.293 40.7258L303.102 87.8796C301.69 90.9031 301.108 94.2955 301.425 97.6606C301.742 101.026 302.944 104.225 304.89 106.884C310.11 114.161 322.713 109.102 328.646 107.87L367.311 98.7243L356.171 73.7529Z" fill="#FFBE9D"/>
    <path d="M467.613 148.966C470.83 144.993 472.594 139.902 472.576 134.638C472.558 129.374 470.76 124.296 467.516 120.349L435.206 81.0044L426.555 106.949C427.147 107.377 451.712 135.656 451.712 135.656L430.602 163.909C428.993 166.052 427.918 168.599 427.476 171.31C427.034 174.022 427.241 176.809 428.077 179.411L431.702 195.211L449.174 186.805L447.966 184.859H436.366L435.677 181.876L467.613 148.966Z" fill="#FFBE9D"/>
    <path d="M456.243 130.623C455.623 131.805 454.804 132.852 453.826 133.71C453.019 134.715 452.107 135.616 451.107 136.396C451.639 135.174 452.415 134.094 453.379 133.23C454.212 132.218 455.176 131.34 456.243 130.623Z" fill="#EB996E"/>
    <path d="M357.657 179.035L427.424 174.015L426.603 137.109V110.399L434.372 122.71L455.107 99.4506L431.931 75.5559C428.01 71.1511 423.18 67.7964 417.83 65.7619C414.994 64.6605 412.013 64.0475 408.998 63.9458C402.058 66.3 394.611 66.3 387.671 63.9458C381.127 64.5844 374.654 65.8874 368.338 67.8374L341.176 75.6337L350.081 111.281L366.429 105.47C366.429 105.47 357.476 171.628 357.657 179.035Z" fill="#B60E09"/>
    <path d="M434.323 122.71L439.096 121.179L437.465 119.194L434.323 122.71Z" fill="#B60E09"/>
    <path d="M427.243 111.748C426.153 110.546 425.222 109.188 424.476 107.714C423.548 106.362 422.792 104.883 422.229 103.316C424.252 105.867 425.939 108.704 427.243 111.748Z" fill="#263238"/>
    <path d="M350.153 111.67L344.752 104.043L348.075 103.251L350.153 111.67Z" fill="#B60E09"/>
    <g opacity="0.6">
        <path d="M437.139 81.4325C437.139 81.4325 437.054 81.5493 436.873 81.7309L436.027 82.5222C434.873 83.463 433.615 84.2472 432.281 84.8572C430.159 85.812 427.888 86.3312 425.587 86.3879C422.528 86.5162 419.488 85.8064 416.755 84.3253C415.108 83.536 413.686 82.2915 412.634 80.7191C412.051 79.8432 411.793 78.7658 411.909 77.6965C412.012 77.132 412.265 76.6116 412.638 76.1992C413.012 75.7868 413.489 75.5002 414.012 75.3745C414.539 75.2352 415.088 75.2247 415.619 75.3437C416.15 75.4627 416.65 75.7082 417.081 76.0621C417.95 76.7688 418.612 77.7275 418.99 78.8251C419.792 81.0861 419.744 83.5932 418.857 85.8171C417.968 88.1501 416.4 90.1114 414.386 91.4081C412.315 92.7502 409.999 93.5995 407.596 93.8988C405.117 94.3129 402.582 94.0861 400.201 93.2372C398.976 92.7753 397.844 92.0665 396.866 91.1487C395.904 90.1935 395.089 89.0815 394.449 87.8537C393.144 85.4539 392.25 82.8854 390.704 80.8618C389.167 78.8804 386.967 77.627 384.578 77.3722C382.272 77.0968 379.942 77.5475 377.871 78.6695C375.874 79.7387 374.095 81.2249 372.64 83.0411C371.93 83.8579 371.41 84.8423 371.12 85.9149C370.83 86.9876 370.78 88.1183 370.972 89.2158C371.166 90.2616 371.723 91.189 372.531 91.8103C373.315 92.3751 374.27 92.5977 375.201 92.4329C375.637 92.3308 376.044 92.1203 376.391 91.8184C376.737 91.5165 377.012 91.1316 377.195 90.6947C377.565 89.8161 377.735 88.8556 377.69 87.8927C377.609 86.0415 377.242 84.2178 376.603 82.4962C375.385 79.1416 373.292 76.2351 370.574 74.1253C367.857 72.0154 364.63 70.7917 361.281 70.6008C360.303 70.5359 359.783 70.6008 359.783 70.5359C360.28 70.4643 360.781 70.434 361.281 70.4451C362.729 70.4748 364.167 70.7059 365.559 71.1326C367.759 71.8074 369.813 72.945 371.6 74.4795C373.986 76.5318 375.834 79.2137 376.965 82.2628C377.646 84.0399 378.054 85.9236 378.174 87.8408C378.226 88.8867 378.048 89.9311 377.654 90.8892C377.429 91.4087 377.092 91.8639 376.673 92.2178C376.253 92.5716 375.761 92.8142 375.237 92.9259C374.17 93.1356 373.069 92.8888 372.168 92.2383C371.258 91.5551 370.617 90.5335 370.368 89.3715C370.118 88.1957 370.16 86.9702 370.489 85.8171C370.845 84.6639 371.403 83.5942 372.132 82.6649C373.629 80.7637 375.471 79.21 377.545 78.0987C379.715 76.901 382.162 76.4053 384.59 76.6718C387.138 76.9479 389.485 78.2843 391.127 80.3948C392.758 82.5352 393.652 85.1426 394.933 87.4776C395.526 88.642 396.289 89.6974 397.192 90.6038C398.106 91.4641 399.164 92.129 400.31 92.5626C402.603 93.3706 405.04 93.5927 407.427 93.2113C409.738 92.9181 411.965 92.1048 413.963 90.8244C415.878 89.6076 417.371 87.7541 418.217 85.5447C419.047 83.4863 419.108 81.1637 418.386 79.0586C418.044 78.064 417.45 77.1922 416.67 76.542C416.304 76.2356 415.878 76.0217 415.424 75.9161C414.97 75.8106 414.5 75.8161 414.048 75.9323C413.618 76.0277 413.224 76.257 412.914 76.5915C412.605 76.926 412.394 77.3509 412.308 77.8133C412.228 78.7323 412.455 79.6518 412.948 80.4077C413.945 81.9111 415.296 83.1022 416.863 83.8583C419.528 85.3301 422.495 86.0573 425.491 85.9728C427.751 85.9425 429.987 85.4676 432.088 84.5718C433.909 83.8038 435.612 82.7455 437.139 81.4325Z" fill="white"/>
    </g>
    <g opacity="0.6">
        <path d="M426.047 118.182H425.709L424.754 118.092C423.896 118.092 422.652 117.884 421.045 117.806C419.093 117.693 417.135 117.815 415.208 118.169C412.669 118.624 410.297 119.827 408.357 121.646C407.271 122.715 406.442 124.05 405.941 125.538C405.659 126.32 405.557 127.164 405.646 127.998C405.734 128.832 406.009 129.63 406.448 130.324C406.922 131.031 407.602 131.548 408.381 131.79C408.775 131.91 409.189 131.937 409.593 131.87C409.997 131.803 410.384 131.643 410.726 131.401C411.447 130.886 412 130.142 412.308 129.274C412.622 128.371 412.701 127.393 412.538 126.446C412.153 124.435 411.287 122.566 410.025 121.023C408.744 119.366 407.171 117.995 405.397 116.989C401.648 114.816 397.279 114.224 393.145 115.328C389.021 116.466 385.305 118.89 382.463 122.295C381.035 123.797 379.984 125.662 379.406 127.717C379.17 128.684 379.264 129.711 379.672 130.61C380.098 131.459 380.819 132.093 381.678 132.374C382.52 132.674 383.425 132.705 384.283 132.463C385.141 132.221 385.915 131.717 386.511 131.012C387.032 130.303 387.404 129.481 387.602 128.604C387.8 127.726 387.82 126.813 387.659 125.927C387.406 124.228 386.662 122.658 385.533 121.438C384.481 120.293 383.255 119.35 381.908 118.649C377.889 116.31 373.186 115.72 368.773 117.002C367.193 117.57 365.746 118.5 364.532 119.726C364.807 119.361 365.114 119.027 365.451 118.727C366.405 117.857 367.503 117.188 368.689 116.755C373.166 115.344 377.98 115.87 382.101 118.221C383.491 118.938 384.757 119.903 385.847 121.075C387.053 122.368 387.855 124.032 388.142 125.836C388.324 126.802 388.31 127.799 388.101 128.759C387.893 129.719 387.495 130.62 386.934 131.401C386.272 132.196 385.409 132.766 384.45 133.043C383.49 133.319 382.477 133.29 381.533 132.958C381.023 132.804 380.546 132.542 380.131 132.188C379.716 131.833 379.371 131.394 379.116 130.895C378.649 129.863 378.534 128.688 378.79 127.574C379.391 125.411 380.488 123.444 381.98 121.853C384.902 118.349 388.723 115.849 392.964 114.667C397.251 113.528 401.779 114.148 405.663 116.405C407.512 117.458 409.153 118.885 410.496 120.608C411.814 122.251 412.717 124.23 413.118 126.355C413.281 127.414 413.185 128.5 412.84 129.507C412.474 130.488 411.837 131.325 411.016 131.907C410.608 132.187 410.149 132.371 409.67 132.447C409.191 132.523 408.702 132.489 408.236 132.348C407.346 132.063 406.569 131.47 406.025 130.662C405.541 129.893 405.238 129.01 405.143 128.087C405.049 127.165 405.165 126.232 405.482 125.369C406.019 123.797 406.912 122.393 408.079 121.283C410.091 119.425 412.549 118.211 415.172 117.78C417.126 117.451 419.109 117.368 421.081 117.534C422.7 117.651 423.944 117.832 424.79 117.949L425.745 118.105C425.847 118.121 425.948 118.147 426.047 118.182Z" fill="white"/>
    </g>
    <g opacity="0.6">
        <path d="M427.328 160.446L427.014 160.511C426.808 160.511 426.494 160.601 426.083 160.64C424.874 160.739 423.658 160.691 422.459 160.498C420.574 160.18 418.75 159.536 417.057 158.591C414.8 157.325 412.842 155.524 411.33 153.324C410.88 152.705 410.503 152.03 410.206 151.313C410.03 150.907 409.939 150.464 409.939 150.016C409.939 149.568 410.03 149.125 410.206 148.719C410.391 148.287 410.706 147.935 411.1 147.72C411.518 147.512 411.996 147.488 412.43 147.655C413.241 148.031 413.886 148.728 414.23 149.601C414.897 151.356 415.007 153.298 414.544 155.127C414.065 157.039 413.194 158.812 411.995 160.316C409.375 163.502 405.803 165.607 401.893 166.27C397.716 167.043 393.417 166.299 389.677 164.156C389.206 163.883 388.759 163.546 388.3 163.248C387.841 162.949 387.454 162.547 387.019 162.197C386.165 161.479 385.44 160.6 384.88 159.602C384.306 158.579 384.112 157.361 384.337 156.191C384.433 155.586 384.686 155.022 385.066 154.563C385.446 154.105 385.939 153.77 386.487 153.596C387.543 153.323 388.656 153.5 389.593 154.089C390.49 154.649 391.209 155.485 391.659 156.489C392.094 157.444 392.326 158.492 392.339 159.555C392.351 160.618 392.144 161.671 391.731 162.638C390.896 164.438 389.527 165.889 387.841 166.763C386.284 167.603 384.568 168.047 382.826 168.06C379.751 167.98 376.719 167.262 373.897 165.946C369.781 164.166 366.038 161.52 362.889 158.163C361.718 156.991 360.669 155.686 359.76 154.271C359.838 154.347 359.91 154.43 359.977 154.517L360.581 155.283C361.125 155.931 361.923 156.904 363.058 158.046C366.243 161.283 369.981 163.829 374.066 165.544C376.84 166.792 379.807 167.47 382.814 167.541C384.472 167.539 386.106 167.122 387.587 166.322C389.166 165.495 390.442 164.125 391.212 162.43C391.589 161.552 391.778 160.594 391.766 159.626C391.753 158.659 391.539 157.707 391.139 156.839C390.738 155.95 390.098 155.209 389.303 154.712C388.511 154.204 387.563 154.055 386.669 154.297C386.234 154.43 385.843 154.691 385.539 155.052C385.236 155.412 385.033 155.856 384.953 156.334C384.762 157.345 384.934 158.397 385.436 159.278C385.968 160.199 386.647 161.011 387.442 161.678C387.853 162.002 388.239 162.366 388.65 162.677C389.061 162.988 389.52 163.287 389.967 163.546C393.583 165.625 397.743 166.346 401.785 165.596C405.554 164.967 409.005 162.954 411.548 159.901C412.68 158.468 413.505 156.785 413.964 154.971C414.413 153.259 414.324 151.435 413.71 149.783C413.411 149.115 412.902 148.582 412.273 148.278C411.961 148.158 411.619 148.172 411.317 148.317C411.015 148.462 410.778 148.727 410.653 149.056C410.511 149.387 410.437 149.748 410.437 150.113C410.437 150.478 410.511 150.839 410.653 151.171C410.926 151.852 411.279 152.493 411.705 153.078C413.16 155.235 415.052 157.009 417.239 158.266C418.89 159.223 420.672 159.893 422.519 160.251C423.689 160.459 424.874 160.55 426.059 160.524L426.99 160.459L427.328 160.446Z" fill="white"/>
    </g>
    <path opacity="0.4" d="M350.153 111.67L344.752 104.043L348.075 103.251L350.153 111.67Z" fill="black"/>
    <path opacity="0.5" d="M434.323 122.71L439.096 121.179L437.465 119.194L434.323 122.71Z" fill="black"/>
</svg>
