<svg width="110" height="110" viewBox="0 0 110 110" fill="none" xmlns="http://www.w3.org/2000/svg">
<g id="proactive.svg" clip-path="url(#clip0_6744_63764)">
<g id="Group">
<g id="Group_2">
<g id="Rectangle-290_4_">
<g id="Group_3">
<path id="path-1_9_" d="M53.7429 2.61914H56.3096C84.5429 2.61914 107.433 25.5096 107.433 53.7429V56.3096C107.433 84.5429 84.5429 107.433 56.3096 107.433H53.7429C25.5096 107.381 2.61914 84.4906 2.61914 56.2572V53.6906C2.61914 25.5096 25.5096 2.61914 53.7429 2.61914Z" fill="#D6DDE1" stroke="white" stroke-width="5.11034"/>
</g>
<g id="Group_4">
<path id="path-1_8_" d="M53.7429 2.61914H56.3096C84.5429 2.61914 107.433 25.5096 107.433 53.7429V56.3096C107.433 84.5429 84.5429 107.433 56.3096 107.433H53.7429C25.5096 107.381 2.61914 84.4906 2.61914 56.2572V53.6906C2.61914 25.5096 25.5096 2.61914 53.7429 2.61914Z" stroke="#F2EDED" stroke-width="1.27757"/>
</g>
</g>
<g id="Group_5">
<path id="Vector" d="M56.2055 79.6715H29.1769C28.0245 79.6715 27.0293 78.7286 27.0293 77.5238V52.381C27.0293 50.181 28.8102 48.3477 31.0626 48.3477H56.2055C57.3579 48.3477 58.3531 49.2905 58.3531 50.4953V77.5238C58.3531 78.6762 57.4102 79.6715 56.2055 79.6715Z" fill="white"/>
<path id="Vector_2" d="M56.2055 48.3477H31.0626C28.8626 48.3477 27.0293 50.1286 27.0293 52.381V55.5762H58.3007V50.4953C58.3531 49.2905 57.4103 48.3477 56.2055 48.3477Z" fill="url(#paint0_linear_6744_63764)"/>
<path id="Vector_3" d="M35.0953 58.2478H29.543V59.924H35.0953V58.2478Z" fill="url(#paint1_linear_6744_63764)"/>
<path id="Vector_4" d="M35.0953 62.4382H29.543V64.1144H35.0953V62.4382Z" fill="url(#paint2_linear_6744_63764)"/>
<path id="Vector_5" d="M35.0953 66.6287H29.543V68.3049H35.0953V66.6287Z" fill="url(#paint3_linear_6744_63764)"/>
<path id="Vector_6" d="M49.972 58.2478H37.1387V59.924H49.972V58.2478Z" fill="url(#paint4_linear_6744_63764)"/>
<path id="Vector_7" d="M55.9967 58.2478H52.3301V59.924H55.9967V58.2478Z" fill="url(#paint5_linear_6744_63764)"/>
<path id="Vector_8" d="M48.0863 62.4382H37.1387V64.1144H48.0863V62.4382Z" fill="url(#paint6_linear_6744_63764)"/>
<path id="Vector_9" d="M42.6911 66.6287H37.1387V68.3049H42.6911V66.6287Z" fill="url(#paint7_linear_6744_63764)"/>
<path id="Vector_10" d="M39.2868 70.8191H33.7344V72.4953H39.2868V70.8191Z" fill="url(#paint8_linear_6744_63764)"/>
<path id="Vector_11" d="M39.2868 75.0095H33.7344V76.6857H39.2868V75.0095Z" fill="url(#paint9_linear_6744_63764)"/>
<path id="Vector_12" d="M46.7243 75.0095H41.1719V76.6857H46.7243V75.0095Z" fill="url(#paint10_linear_6744_63764)"/>
<g id="_Group_">
<g id="_Group_2">
<path id="Vector_13" d="M62.2287 85.9049C61.7573 85.9049 61.2335 85.6954 60.8668 85.3287L55.7335 80.0382C55.0002 79.3049 55.0525 78.1001 55.7859 77.3668C56.5192 76.6335 57.724 76.6858 58.5097 77.4192L63.643 82.7096C64.3764 83.443 64.324 84.6477 63.5906 85.3811C63.1716 85.6954 62.7525 85.9049 62.2287 85.9049Z" fill="#123155"/>
<path id="Vector_14" d="M53.4288 61.7572C52.5908 61.5476 51.7527 61.4429 50.8622 61.4429C50.7574 61.4429 50.6527 61.4429 50.5479 61.4429C45.205 61.6524 40.9622 66 40.8574 71.1857C40.8574 71.2905 40.8574 71.2905 40.8574 71.3953C40.8574 72.4429 41.0669 73.4905 41.4336 74.4333C42.6384 78.3619 46.4622 81.2952 50.9146 81.2952C56.4146 81.2952 60.8669 76.9476 60.8669 71.3953C60.8146 66.8381 57.6717 62.9619 53.4288 61.7572Z" fill="url(#paint11_linear_6744_63764)"/>
<g id="XMLID_5_">
<g id="Group_6">
<path id="Vector_15" d="M57.9852 71.4475C58.09 75.2713 54.8423 78.5189 50.8614 78.5189C47.7185 78.5189 44.9423 76.4237 43.9995 73.5427C43.6852 72.9142 43.6328 72.1808 43.6328 71.4475V71.3951C43.7376 67.5713 46.7757 64.4808 50.5995 64.4285C50.7042 64.4285 50.809 64.4285 50.809 64.4285C51.49 64.4285 52.0138 64.4808 52.6423 64.638C55.628 65.3713 57.9852 68.1475 57.9852 71.4475Z" fill="white"/>
</g>
</g>
</g>
</g>
<g id="Group_7">
<path id="Vector_16" d="M71.0819 47.9287C77.6488 47.9287 82.9724 42.6051 82.9724 36.0382C82.9724 29.4713 77.6488 24.1477 71.0819 24.1477C64.515 24.1477 59.1914 29.4713 59.1914 36.0382C59.1914 42.6051 64.515 47.9287 71.0819 47.9287Z" fill="#E9000E"/>
<path id="Vector_17" d="M71.0822 46.1478C76.6655 46.1478 81.1917 41.6216 81.1917 36.0382C81.1917 30.4549 76.6655 25.9287 71.0822 25.9287C65.4988 25.9287 60.9727 30.4549 60.9727 36.0382C60.9727 41.6216 65.4988 46.1478 71.0822 46.1478Z" fill="white"/>
<path id="Vector_18" d="M75.7429 31.062L70.1905 36.562L66.5239 32.8953L64.2715 35.0953L70.1381 40.962L77.8905 33.262L75.7429 31.062Z" fill="url(#paint12_linear_6744_63764)"/>
</g>
<g id="Group_8">
<g id="Group_9">
<path id="Vector_19" d="M43.6348 46.1477V44.8381" stroke="#E9000E" stroke-width="2.61905" stroke-miterlimit="10"/>
<path id="Vector_20" d="M43.6348 42.3239V38.5525" stroke="#E9000E" stroke-width="2.61905" stroke-miterlimit="10" stroke-dasharray="2.5 2.5"/>
<path id="Vector_21" d="M43.6348 37.3476V36.0381H44.9443" stroke="#E9000E" stroke-width="2.61905" stroke-miterlimit="10"/>
<path id="Vector_22" d="M47.0918 36.0381H54.6347" stroke="#E9000E" stroke-width="2.61905" stroke-miterlimit="10" stroke-dasharray="2.15 2.15"/>
<path id="Vector_23" d="M55.6816 36.0381H56.9912" stroke="#E9000E" stroke-width="2.61905" stroke-miterlimit="10"/>
</g>
</g>
</g>
</g>
</g>
</g>
<defs>
<linearGradient id="paint0_linear_6744_63764" x1="52.4341" y1="48.3477" x2="39.1583" y2="62.8907" gradientUnits="userSpaceOnUse">
<stop stop-color="#AC2121"/>
<stop offset="1" stop-color="#E9000E"/>
</linearGradient>
<linearGradient id="paint1_linear_6744_63764" x1="34.0534" y1="58.2478" x2="31.0093" y2="60.801" gradientUnits="userSpaceOnUse">
<stop stop-color="#AC2121"/>
<stop offset="1" stop-color="#E9000E"/>
</linearGradient>
<linearGradient id="paint2_linear_6744_63764" x1="34.0534" y1="62.4382" x2="31.0093" y2="64.9914" gradientUnits="userSpaceOnUse">
<stop stop-color="#AC2121"/>
<stop offset="1" stop-color="#E9000E"/>
</linearGradient>
<linearGradient id="paint3_linear_6744_63764" x1="34.0534" y1="66.6287" x2="31.0093" y2="69.1818" gradientUnits="userSpaceOnUse">
<stop stop-color="#AC2121"/>
<stop offset="1" stop-color="#E9000E"/>
</linearGradient>
<linearGradient id="paint4_linear_6744_63764" x1="47.5637" y1="58.2478" x2="45.0448" y2="63.131" gradientUnits="userSpaceOnUse">
<stop stop-color="#AC2121"/>
<stop offset="1" stop-color="#E9000E"/>
</linearGradient>
<linearGradient id="paint5_linear_6744_63764" x1="55.3087" y1="58.2478" x2="52.6882" y2="59.6992" gradientUnits="userSpaceOnUse">
<stop stop-color="#AC2121"/>
<stop offset="1" stop-color="#E9000E"/>
</linearGradient>
<linearGradient id="paint6_linear_6744_63764" x1="46.0319" y1="62.4382" x2="43.2943" y2="66.9654" gradientUnits="userSpaceOnUse">
<stop stop-color="#AC2121"/>
<stop offset="1" stop-color="#E9000E"/>
</linearGradient>
<linearGradient id="paint7_linear_6744_63764" x1="41.6491" y1="66.6287" x2="38.605" y2="69.1818" gradientUnits="userSpaceOnUse">
<stop stop-color="#AC2121"/>
<stop offset="1" stop-color="#E9000E"/>
</linearGradient>
<linearGradient id="paint8_linear_6744_63764" x1="38.2448" y1="70.8191" x2="35.2007" y2="73.3723" gradientUnits="userSpaceOnUse">
<stop stop-color="#AC2121"/>
<stop offset="1" stop-color="#E9000E"/>
</linearGradient>
<linearGradient id="paint9_linear_6744_63764" x1="38.2448" y1="75.0095" x2="35.2007" y2="77.5627" gradientUnits="userSpaceOnUse">
<stop stop-color="#AC2121"/>
<stop offset="1" stop-color="#E9000E"/>
</linearGradient>
<linearGradient id="paint10_linear_6744_63764" x1="45.6823" y1="75.0095" x2="42.6382" y2="77.5627" gradientUnits="userSpaceOnUse">
<stop stop-color="#AC2121"/>
<stop offset="1" stop-color="#E9000E"/>
</linearGradient>
<linearGradient id="paint11_linear_6744_63764" x1="57.112" y1="61.4429" x2="39.5673" y2="65.9204" gradientUnits="userSpaceOnUse">
<stop stop-color="#AC2121"/>
<stop offset="1" stop-color="#E9000E"/>
</linearGradient>
<linearGradient id="paint12_linear_6744_63764" x1="75.3348" y1="31.062" x2="63.9919" y2="35.013" gradientUnits="userSpaceOnUse">
<stop stop-color="#AC2121"/>
<stop offset="1" stop-color="#E9000E"/>
</linearGradient>
<clipPath id="clip0_6744_63764">
<rect width="110" height="110" fill="white"/>
</clipPath>
</defs>
</svg>
