<svg width="110" height="110" viewBox="0 0 110 110" fill="none" xmlns="http://www.w3.org/2000/svg">
<g id="reactive.svg" clip-path="url(#clip0_6744_63815)">
<g id="Group">
<g id="Group_2">
<g id="Rectangle-290_4_">
<g id="Group_3">
<path id="path-1_9_" d="M53.7429 2.61914H56.3096C84.5429 2.61914 107.433 25.5096 107.433 53.7429V56.3096C107.433 84.5429 84.5429 107.433 56.3096 107.433H53.7429C25.5096 107.381 2.61914 84.4906 2.61914 56.2572V53.6906C2.61914 25.5096 25.5096 2.61914 53.7429 2.61914Z" fill="#D6DDE1" stroke="white" stroke-width="5.11034"/>
</g>
<g id="Group_4">
<path id="path-1_8_" d="M53.7429 2.61914H56.3096C84.5429 2.61914 107.433 25.5096 107.433 53.7429V56.3096C107.433 84.5429 84.5429 107.433 56.3096 107.433H53.7429C25.5096 107.381 2.61914 84.4906 2.61914 56.2572V53.6906C2.61914 25.5096 25.5096 2.61914 53.7429 2.61914Z" stroke="#F2EDED" stroke-width="1.27757"/>
</g>
</g>
<g id="Group_5">
<path id="Vector" d="M77.2613 72.3383H48.6613L31.7946 80.6669V72.3383H25.666V55.6812H77.2613V72.3383Z" fill="white"/>
<path id="Vector_2" d="M35.6175 69.4573C38.6262 69.4573 41.0652 67.0183 41.0652 64.0096C41.0652 61.001 38.6262 58.562 35.6175 58.562C32.6089 58.562 30.1699 61.001 30.1699 64.0096C30.1699 67.0183 32.6089 69.4573 35.6175 69.4573Z" fill="url(#paint0_linear_6744_63815)"/>
<path id="Vector_3" d="M36.3516 64.9001H34.885L34.6754 60.6572H36.6135L36.3516 64.9001ZM34.623 66.4715C34.623 66.2096 34.6754 66.0001 34.885 65.8429C35.0945 65.6858 35.3564 65.581 35.5659 65.6334C35.8278 65.6334 36.0897 65.6858 36.2469 65.8429C36.404 66.0001 36.5088 66.262 36.5088 66.4715C36.5088 66.681 36.4564 66.9429 36.2469 67.1001C36.0373 67.2572 35.8278 67.362 35.5659 67.3096C35.304 67.3096 35.0421 67.2572 34.885 67.1001C34.7278 66.9429 34.623 66.7334 34.623 66.4715Z" fill="white"/>
<path id="Vector_4" d="M71.1333 65.4763H46.3047V68.6192H71.1333V65.4763Z" fill="url(#paint1_linear_6744_63815)"/>
<path id="Vector_5" d="M71.1333 59.4001H46.3047V62.543H71.1333V59.4001Z" fill="url(#paint2_linear_6744_63815)"/>
</g>
<g id="Group_6">
<path id="Vector_6" d="M32.9481 39.0764C32.6862 39.7049 32.2671 40.2811 31.6909 40.7002C31.1148 41.1192 30.4338 41.3287 29.7005 41.3287C28.8624 41.3287 28.0243 41.224 27.2386 40.8573C26.61 40.6478 26.0338 40.3335 25.4576 39.9668C24.9862 39.6526 24.5148 39.2335 24.0957 38.8145L25.1433 36.1954C25.6148 36.7192 26.0862 37.1383 26.6624 37.5573C27.1338 37.924 27.71 38.2383 28.2338 38.5002C28.5481 38.6573 28.9148 38.7097 29.2814 38.6573C29.5433 38.5526 29.7005 38.3954 29.7528 38.1335C29.8052 37.9764 29.8052 37.8192 29.7528 37.6621C29.7005 37.5049 29.5957 37.2954 29.4909 37.1383C29.3338 36.9287 28.9671 36.5097 28.2862 35.8811C27.8148 35.4097 27.3957 34.8859 27.029 34.3097C26.8195 33.8906 26.6624 33.4192 26.6624 32.9478C26.6624 32.424 26.7671 31.9002 26.9767 31.4287C27.2909 30.4859 28.0767 29.7526 29.0195 29.4906C30.1719 29.2287 31.3243 29.3335 32.3719 29.8049C33.5767 30.2764 34.6767 31.0097 35.5671 31.9526L33.7862 33.8906C33.1052 33.1573 32.3195 32.5287 31.3767 32.1621C31.0624 32.0049 30.7481 32.0049 30.4338 32.0573C30.2243 32.1097 30.0671 32.2668 29.9624 32.4764C29.8576 32.7383 29.91 33.0002 30.0671 33.1573C30.5386 33.7859 31.0624 34.3097 31.6386 34.8335C32.2671 35.4097 32.7909 36.143 33.1052 36.9811C33.2624 37.7145 33.21 38.4478 32.9481 39.0764Z" fill="#E9000E"/>
<path id="Vector_7" d="M45.781 41.5908C45.3096 43.1622 44.2096 44.5241 42.7953 45.3098C39.7572 46.3574 36.3524 45.0479 34.8334 42.2193C33.9429 38.9717 35.3048 35.567 38.081 33.786C41.1191 32.7384 44.5239 34.0479 46.0953 36.8765C46.6191 38.3955 46.5143 40.0717 45.781 41.5908ZM38.1858 38.605C37.3477 40.7527 37.662 42.1146 39.181 42.6908C39.8096 43.005 40.5429 42.9527 41.1715 42.586C42.481 41.3289 43.162 39.5479 43.0572 37.7146C42.9001 37.0336 42.3763 36.5098 41.7477 36.3003C40.2286 35.6717 39.0239 36.4574 38.1858 38.605Z" fill="#E9000E"/>
<path id="Vector_8" d="M45.625 47.8765L49.9202 36.8765L52.906 38.0288L49.5536 46.6193L53.7964 48.2431L52.8536 50.6527L45.625 47.8765Z" fill="#E9000E"/>
<path id="Vector_9" d="M65.1096 42.7431L68.462 44.0526L60.5525 53.6907L57.043 52.3288L57.7763 39.9146L61.1287 41.2241L60.4477 47.405C60.343 48.3479 60.1858 49.2907 59.9763 50.1812C60.1334 49.8146 60.3953 49.4479 60.7096 48.9241C61.0239 48.4003 61.2858 48.086 61.4953 47.7717L65.1096 42.7431Z" fill="#E9000E"/>
<path id="Vector_10" d="M71.8663 58.0907L65.3711 55.5764L69.6663 44.5764L76.1616 47.0907L75.2187 49.5002L71.6568 48.1383L70.9759 49.8669L74.2759 51.1764L73.333 53.5859L70.033 52.2764L69.2473 54.3717L72.8092 55.7336L71.8663 58.0907Z" fill="#E9000E"/>
<path id="Vector_11" d="M85.3805 56.7288C84.8567 58.3527 83.7043 59.6622 82.1853 60.3955C80.6139 60.9717 78.8853 60.9193 77.3139 60.2384L73.752 58.8765L78.0472 47.8765L81.871 49.3431C83.39 49.8146 84.6996 50.8622 85.4329 52.2765C86.0615 53.6908 86.0615 55.3146 85.3805 56.7288ZM82.2377 55.6812C82.6043 54.8955 82.7091 54.0574 82.4996 53.2193C82.2377 52.5384 81.6615 52.0146 80.9805 51.7527L80.09 51.4384L77.6805 57.6193L78.3615 57.8812C79.0948 58.2479 79.9329 58.2479 80.6662 57.8812C81.452 57.305 81.9758 56.5193 82.2377 55.6812Z" fill="#E9000E"/>
</g>
</g>
</g>
</g>
<defs>
<linearGradient id="paint0_linear_6744_63815" x1="39.0206" y1="58.562" x2="29.4583" y2="60.9832" gradientUnits="userSpaceOnUse">
<stop stop-color="#AC2121"/>
<stop offset="1" stop-color="#E9000E"/>
</linearGradient>
<linearGradient id="paint1_linear_6744_63815" x1="66.474" y1="65.4763" x2="61.8375" y2="74.7507" gradientUnits="userSpaceOnUse">
<stop stop-color="#AC2121"/>
<stop offset="1" stop-color="#E9000E"/>
</linearGradient>
<linearGradient id="paint2_linear_6744_63815" x1="66.474" y1="59.4001" x2="61.8375" y2="68.6745" gradientUnits="userSpaceOnUse">
<stop stop-color="#AC2121"/>
<stop offset="1" stop-color="#E9000E"/>
</linearGradient>
<clipPath id="clip0_6744_63815">
<rect width="110" height="110" fill="white"/>
</clipPath>
</defs>
</svg>
