<svg width="83" height="84" viewBox="0 0 83 84" fill="none" xmlns="http://www.w3.org/2000/svg">
    <g clip-path="url(#clip0_6616_60735)">
        <path d="M41.0072 69.1152C40.7814 69.1133 40.5651 69.0244 40.4032 68.867L21.5304 53.5354C21.4043 53.4185 21.3178 53.2652 21.2829 53.0968C21.2479 52.9284 21.2663 52.7534 21.3355 52.596C21.4047 52.4385 21.5211 52.3066 21.6688 52.2184C21.8164 52.1302 21.9878 52.0902 22.1592 52.104C22.2715 52.1022 22.3829 52.1233 22.4867 52.166C22.5906 52.2087 22.6846 52.272 22.7632 52.3522L41.0072 67.0467L60.0372 51.6489C60.1463 51.5063 60.2988 51.4031 60.4717 51.3548C60.6446 51.3064 60.8285 51.3157 60.9957 51.381C61.1629 51.4464 61.3043 51.5644 61.3986 51.7172C61.4928 51.87 61.5348 52.0493 61.5182 52.2281C61.52 52.3404 61.4989 52.4518 61.4562 52.5556C61.4136 52.6595 61.3502 52.7535 61.27 52.8321L41.636 68.8421C41.5549 68.9275 41.4574 68.9957 41.3494 69.0426C41.2414 69.0896 41.125 69.1142 41.0072 69.1152Z" fill="url(#paint0_linear_6616_60735)"/>
        <path d="M25.8655 48.6624C25.7019 48.6613 25.5387 48.6475 25.3773 48.6211C24.6214 48.5086 23.9365 48.1131 23.4614 47.5145C22.9863 46.916 22.7565 46.1592 22.8186 45.3975C22.8806 44.6358 23.2299 43.9262 23.7957 43.4125C24.3615 42.8987 25.1014 42.6193 25.8655 42.6307C26.0171 42.6225 26.169 42.6225 26.3206 42.6307C26.7306 42.6987 27.1222 42.8508 27.4706 43.0775L27.6444 43.1934L30.0686 41.4227V29.4835C30.0732 29.3178 30.1245 29.1569 30.2168 29.0192C30.3091 28.8816 30.4384 28.7729 30.5899 28.7057L40.469 24.1716V21.2509L40.2787 21.1765C39.6145 20.93 39.0582 20.4579 38.7069 19.8428C38.3557 19.2276 38.2318 18.5086 38.357 17.8114C38.4822 17.1142 38.8485 16.4831 39.3919 16.0287C39.9352 15.5742 40.6211 15.3252 41.3294 15.3252C42.0378 15.3252 42.7236 15.5742 43.267 16.0287C43.8104 16.4831 44.1767 17.1142 44.3019 17.8114C44.4271 18.5086 44.3032 19.2276 43.9519 19.8428C43.6007 20.4579 43.0443 20.93 42.3802 21.1765L42.1817 21.2509V24.1716L52.0524 28.6974C52.2125 28.7677 52.3483 28.8837 52.4425 29.031C52.5367 29.1782 52.5853 29.3501 52.582 29.5248V41.3979L55.0641 43.2513L55.2462 43.1354C55.5808 42.9056 55.9623 42.753 56.3632 42.6887C56.5302 42.6629 56.6989 42.6491 56.8679 42.6473C57.6221 42.6576 58.3451 42.9498 58.8947 43.4664C59.4443 43.9829 59.7807 44.6864 59.8378 45.4385C59.8949 46.1906 59.6684 46.9369 59.203 47.5304C58.7376 48.124 58.0669 48.5219 57.3229 48.6459C57.1615 48.6719 56.9983 48.6858 56.8348 48.6872C56.3665 48.6871 55.9047 48.5777 55.4861 48.3679C55.0675 48.1581 54.7036 47.8535 54.4233 47.4784C54.143 47.1033 53.954 46.6681 53.8714 46.2072C53.7887 45.7463 53.8147 45.2724 53.9472 44.8233L54.0051 44.6247L51.5229 42.8376L41.5942 47.3965C41.4826 47.4474 41.3611 47.4728 41.2384 47.471C41.116 47.471 40.9948 47.4457 40.8826 47.3965L31.1194 42.8376L28.6869 44.5999L28.7531 44.7985C28.8856 45.2476 28.9115 45.7214 28.8289 46.1823C28.7462 46.6432 28.5572 47.0785 28.2769 47.4536C27.9966 47.8287 27.6327 48.1332 27.2141 48.3431C26.7955 48.5529 26.3337 48.6623 25.8655 48.6624ZM25.8655 44.3352C25.5895 44.3362 25.3206 44.4229 25.096 44.5834C24.8737 44.7472 24.7086 44.9768 24.624 45.2396C24.5395 45.5025 24.5398 45.7853 24.6249 46.048C24.71 46.3107 24.8756 46.5399 25.0983 46.7033C25.321 46.8666 25.5894 46.9557 25.8655 46.958C26.1388 46.9558 26.4047 46.8691 26.6267 46.7098C26.8389 46.5593 27.0013 46.3491 27.0933 46.1058C27.1853 45.8625 27.2027 45.5973 27.1432 45.3442C27.0837 45.091 26.95 44.8613 26.7592 44.6845C26.5685 44.5077 26.3293 44.3918 26.0723 44.3517L25.8655 44.3352ZM56.8927 44.3352H56.6776C56.3441 44.399 56.0479 44.5886 55.8502 44.8647C55.6775 45.1016 55.5901 45.39 55.6021 45.6829C55.6141 45.9759 55.7249 46.2561 55.9164 46.4781C56.0393 46.6211 56.1916 46.7357 56.363 46.8143C56.5344 46.8928 56.7207 46.9334 56.9092 46.9332C57.1164 46.9368 57.3212 46.8884 57.505 46.7925C57.7725 46.6621 57.9875 46.4444 58.1144 46.1752C58.2414 45.9061 58.2728 45.6017 58.2033 45.3123C58.1339 45.023 57.9678 44.766 57.7325 44.5838C57.4972 44.4016 57.2068 44.3051 56.9092 44.3103L56.8927 44.3352ZM42.2148 34.8202V45.2618L50.9106 41.2821V30.8156L42.2148 34.8202ZM31.7731 41.2821L40.469 45.2618V34.8202L31.7731 30.8156V41.2821ZM33.0059 29.4835L41.2798 33.3308L49.6613 29.4835L41.3129 25.6775L33.0059 29.4835ZM41.3874 17.0478C41.1288 17.0478 40.8761 17.1244 40.6611 17.2681C40.4461 17.4117 40.2785 17.6159 40.1796 17.8548C40.0806 18.0936 40.0548 18.3565 40.1052 18.6101C40.1556 18.8637 40.2801 19.0966 40.463 19.2794C40.6458 19.4623 40.8787 19.5868 41.1323 19.6372C41.3859 19.6876 41.6488 19.6618 41.8876 19.5628C42.1265 19.4639 42.3307 19.2963 42.4743 19.0813C42.618 18.8664 42.6946 18.6136 42.6946 18.355C42.6903 18.0097 42.5512 17.6796 42.307 17.4354C42.0628 17.1912 41.7327 17.0521 41.3874 17.0478Z" fill="url(#paint1_linear_6616_60735)"/>
    </g>
    <defs>
        <linearGradient id="paint0_linear_6616_60735" x1="53.9674" y1="51.3242" x2="25.6623" y2="67.5411" gradientUnits="userSpaceOnUse">
            <stop stop-color="#AC2121"/>
            <stop offset="1" stop-color="#E9000E"/>
        </linearGradient>
        <linearGradient id="paint1_linear_6616_60735" x1="52.896" y1="15.3252" x2="20.8386" y2="24.3366" gradientUnits="userSpaceOnUse">
            <stop stop-color="#AC2121"/>
            <stop offset="1" stop-color="#E9000E"/>
        </linearGradient>
        <clipPath id="clip0_6616_60735">
            <rect width="82.7392" height="82.7392" fill="white" transform="translate(0.0175781 0.855957)"/>
        </clipPath>
    </defs>
</svg>
