<svg width="83" height="84" viewBox="0 0 83 84" fill="none" xmlns="http://www.w3.org/2000/svg">
    <g clip-path="url(#clip0_6616_60655)">
        <path d="M41.4374 68.2206C40.5596 68.2206 39.7178 67.872 39.0972 67.2513C38.4765 66.6306 38.1278 65.7888 38.1278 64.9111C38.1366 64.7559 38.1532 64.6013 38.1774 64.4477V64.3319L23.6236 55.9173L23.5326 56.0001C23.1308 56.3601 22.6484 56.6183 22.126 56.753C21.8552 56.8192 21.5774 56.8526 21.2986 56.8523C20.4763 56.8768 19.6743 56.594 19.049 56.0593C18.4238 55.5245 18.0202 54.776 17.9168 53.9598C17.8135 53.1436 18.0179 52.3181 18.4902 51.6444C18.9625 50.9707 19.6687 50.4971 20.4713 50.3159H20.5954V34.0328H20.4713C19.9527 33.899 19.4734 33.6438 19.073 33.2882C18.4146 32.699 18.0174 31.8724 17.9685 30.9903C17.9196 30.1081 18.2231 29.2427 18.8123 28.5844C19.4015 27.9261 20.2281 27.5288 21.1102 27.4799C21.9923 27.4311 22.8577 27.7346 23.5161 28.3238L23.6071 28.4065L38.1774 20.0085V19.8927C38.1527 19.7364 38.1362 19.579 38.1278 19.4211C38.1278 18.5367 38.4791 17.6886 39.1044 17.0633C39.7297 16.438 40.5779 16.0867 41.4622 16.0867C42.3465 16.0867 43.1946 16.438 43.82 17.0633C44.4453 17.6886 44.7966 18.5367 44.7966 19.4211C44.7878 19.5762 44.7712 19.7309 44.7469 19.8844V20.0002L59.2511 28.3983L59.3421 28.3155C59.7439 27.9555 60.2263 27.6973 60.7487 27.5626C61.0195 27.4964 61.2973 27.463 61.5761 27.4633C62.3985 27.4388 63.2005 27.7216 63.8257 28.2563C64.451 28.7911 64.8546 29.5396 64.9579 30.3558C65.0612 31.172 64.8568 31.9975 64.3846 32.6712C63.9123 33.3449 63.206 33.8185 62.4035 33.9997H62.2794V50.2828H62.4035C62.9226 50.4196 63.4018 50.6776 63.8018 51.0357C64.3084 51.4824 64.6662 52.0734 64.8271 52.7294C64.9881 53.3853 64.9445 54.0748 64.7023 54.7053C64.46 55.3357 64.0306 55.877 63.4718 56.2563C62.913 56.6357 62.2515 56.835 61.5761 56.8275C60.7602 56.8344 59.9706 56.5398 59.3587 56.0001L59.2677 55.9173L44.6973 64.3071V64.4229C44.722 64.5792 44.7386 64.7366 44.7469 64.8945C44.7491 65.3305 44.6651 65.7627 44.4998 66.1661C44.3344 66.5696 44.091 66.9364 43.7835 67.2455C43.4759 67.5545 43.1103 67.7998 42.7077 67.9672C42.3051 68.1345 41.8734 68.2207 41.4374 68.2206ZM41.4374 62.975C41.0574 62.975 40.6859 63.0878 40.3701 63.2991C40.0542 63.5104 39.8082 63.8106 39.6632 64.1619C39.5181 64.5131 39.4806 64.8995 39.5553 65.2721C39.6301 65.6447 39.8137 65.9867 40.083 66.2548C40.3523 66.5229 40.6951 66.7051 41.068 66.7782C41.4409 66.8513 41.8271 66.8121 42.1777 66.6656C42.5283 66.519 42.8275 66.2717 43.0374 65.9549C43.2474 65.6382 43.3586 65.2663 43.3569 64.8863C43.3569 64.6346 43.3072 64.3854 43.2106 64.1529C43.1141 63.9205 42.9726 63.7094 42.7942 63.5318C42.6158 63.3543 42.4042 63.2137 42.1713 63.1181C41.9385 63.0225 41.6891 62.9739 41.4374 62.975ZM43.7044 62.4454L43.7872 62.5365C43.8873 62.6412 43.9813 62.7517 44.0685 62.8674L44.1512 62.9915L58.4568 54.7176V54.5852C58.4568 54.5025 58.3989 54.4198 58.3741 54.337V54.2129H48.5447L43.7044 62.4454ZM24.542 54.3536C24.542 54.4363 24.4924 54.519 24.4593 54.6018L24.4179 54.7342L38.7235 63.0081L38.8063 62.884C38.8935 62.7682 38.9874 62.6577 39.0876 62.553L39.1703 62.462L34.3301 54.246H24.5751L24.542 54.3536ZM40.4031 61.7422L40.6431 61.6677L40.7258 61.5188V54.2294H35.9766L40.4031 61.7422ZM42.1489 61.6429L42.3889 61.7091L42.5461 61.6263L46.8982 54.2294H42.1489V61.6429ZM61.543 51.6066C61.1633 51.6066 60.7922 51.7192 60.4766 51.9301C60.1609 52.141 59.9149 52.4408 59.7696 52.7916C59.6243 53.1423 59.5863 53.5283 59.6603 53.9007C59.7344 54.273 59.9172 54.615 60.1857 54.8835C60.4541 55.1519 60.7962 55.3348 61.1685 55.4088C61.5409 55.4829 61.9268 55.4449 62.2776 55.2996C62.6283 55.1543 62.9281 54.9083 63.139 54.5926C63.35 54.2769 63.4626 53.9058 63.4626 53.5262C63.4626 53.0171 63.2603 52.5288 62.9003 52.1688C62.5403 51.8088 62.0521 51.6066 61.543 51.6066ZM21.3317 51.6066C20.9514 51.6033 20.5787 51.7131 20.2608 51.922C19.943 52.131 19.6944 52.4296 19.5466 52.78C19.3987 53.1305 19.3583 53.517 19.4305 53.8904C19.5027 54.2638 19.6842 54.6074 19.952 54.8775C20.2198 55.1476 20.5618 55.3321 20.9346 55.4075C21.3074 55.4829 21.6942 55.4459 22.0459 55.3011C22.3976 55.1563 22.6984 54.9103 22.9101 54.5943C23.1217 54.2783 23.2347 53.9065 23.2347 53.5262C23.2348 53.0199 23.0348 52.5342 22.6784 52.1747C22.322 51.8151 21.838 51.611 21.3317 51.6066ZM49.3803 52.8146H58.2914L58.3741 52.5747L58.2665 52.4754L51.7467 48.7769L49.3803 52.8146ZM43.8285 44.4662C43.4009 44.9059 42.8595 45.2182 42.2648 45.3681H42.1407V52.8146H47.7338L50.5387 48.1067L43.9195 44.3752L43.8285 44.4662ZM32.3361 48.1067L35.1161 52.8146H40.701V45.3681H40.5769C39.9851 45.2168 39.4467 44.9046 39.0214 44.4662L38.9552 44.3752L32.3361 48.1067ZM24.4676 52.5416L24.542 52.7898H24.6744H33.4944L31.1281 48.7769L24.4676 52.5416ZM52.4417 47.5772L59.0608 51.3088L59.1518 51.2095L59.2263 51.1185V50.9612L54.8494 43.5147L52.4417 47.5772ZM23.5657 51.0771L23.7477 51.2674H23.8967L30.3834 47.6103L28.0336 43.5561L23.5657 51.0771ZM60.4674 34.0576L55.6685 42.1578L60.517 50.3738L60.757 50.2993L60.8397 50.1504V34.0328L60.5998 33.9749L60.4674 34.0576ZM22.2088 33.9914H22.0929L22.0516 34.1238V50.2828H22.184H22.3081L22.4487 50.1918L27.2062 42.1578L22.4074 33.9418L22.2088 33.9914ZM44.6228 41.1732V41.3056C44.7964 41.8605 44.7964 42.4551 44.6228 43.01V43.1424L51.242 46.8822L54.022 42.1578L51.2337 37.4334L44.6228 41.1732ZM28.8527 42.1578L31.641 46.8822L38.2602 43.1424V43.01C38.0866 42.4551 38.0866 41.8605 38.2602 41.3056V41.1732L31.641 37.4334L28.8527 42.1578ZM41.4374 40.2382C41.0577 40.2382 40.6866 40.3508 40.3709 40.5617C40.0553 40.7727 39.8092 41.0725 39.6639 41.4232C39.5187 41.774 39.4806 42.1599 39.5547 42.5323C39.6288 42.9046 39.8116 43.2467 40.08 43.5151C40.3485 43.7836 40.6905 43.9664 41.0629 44.0405C41.4352 44.1145 41.8212 44.0765 42.172 43.9312C42.5227 43.7859 42.8225 43.5399 43.0334 43.2242C43.2443 42.9086 43.3569 42.5374 43.3569 42.1578C43.358 41.9054 43.3091 41.6553 43.213 41.4219C43.117 41.1885 42.9756 40.9765 42.7971 40.798C42.6187 40.6196 42.4066 40.4782 42.1732 40.3821C41.9399 40.2861 41.6898 40.2372 41.4374 40.2382ZM23.7064 33.1144L23.6153 33.2551L23.6567 33.3543L28.0336 40.8009L30.4082 36.7715L23.7891 33.0399L23.7064 33.1144ZM58.9533 33.0565L52.4665 36.7301L54.8411 40.7512L59.2842 33.2302L59.1932 33.1392L59.1022 33.0565H58.9533ZM42.1489 38.9144H42.273C42.8648 39.0657 43.4032 39.3779 43.8285 39.8163L43.9195 39.9073L50.5387 36.1758L47.7669 31.4679H42.1489V38.9144ZM32.3361 36.2088L38.9552 39.9404L39.0462 39.8494C39.4738 39.4097 40.0152 39.0974 40.61 38.9475H40.7341V31.501H35.1409L32.3361 36.2088ZM51.7467 35.5387L58.3658 31.7988L58.2914 31.5506H58.159H49.3803L51.7467 35.5387ZM24.4924 31.774L31.1115 35.5138L33.4779 31.501H24.5751L24.4924 31.774ZM61.543 28.9195C61.163 28.9195 60.7915 29.0323 60.4757 29.2436C60.1599 29.4549 59.9138 29.7552 59.7688 30.1064C59.6237 30.4576 59.5862 30.844 59.661 31.2166C59.7357 31.5892 59.9193 31.9312 60.1886 32.1993C60.4579 32.4674 60.8007 32.6496 61.1736 32.7227C61.5465 32.7959 61.9327 32.7567 62.2833 32.6101C62.6339 32.4636 62.9332 32.2162 63.1431 31.8995C63.353 31.5827 63.4642 31.2108 63.4626 30.8308C63.4604 30.3231 63.2572 29.837 62.8974 29.4788C62.5377 29.1206 62.0507 28.9195 61.543 28.9195ZM21.3317 28.9195C20.9493 28.9164 20.5747 29.0275 20.2558 29.2387C19.937 29.4499 19.6885 29.7515 19.5422 30.1049C19.396 30.4582 19.3586 30.8472 19.4349 31.222C19.5112 31.5967 19.6977 31.9401 19.9705 32.2082C20.2433 32.4762 20.5899 32.6567 20.9659 32.7264C21.342 32.7961 21.7302 32.7519 22.081 32.5995C22.4317 32.447 22.7289 32.1933 22.9345 31.8708C23.1401 31.5483 23.2446 31.1717 23.2347 30.7894C23.2219 30.2918 23.0162 29.8187 22.6612 29.4698C22.3062 29.121 21.8295 28.9236 21.3317 28.9195ZM44.0685 21.473C43.9775 21.5888 43.8865 21.7047 43.7872 21.8122L43.7044 21.9032L48.5447 30.111H58.2996V29.9869C58.2996 29.9041 58.3493 29.8214 58.3824 29.7386V29.6063L44.0768 21.3323L44.0685 21.473ZM42.1986 22.6893L42.1489 22.8216V30.111H46.8982L42.4716 22.5982L42.1986 22.6893ZM40.3369 22.6893L35.9766 30.0861H40.7258V22.6396L40.4859 22.5817L40.3369 22.6893ZM24.4179 29.5814L24.4676 29.7138C24.4676 29.7966 24.5255 29.8793 24.542 29.962V30.0861H34.3301L39.1703 21.8784L39.0876 21.7874C38.9883 21.6798 38.8973 21.564 38.8063 21.4482L38.7235 21.3241L24.4179 29.5814ZM41.4374 17.5098C41.0577 17.5098 40.6866 17.6224 40.3709 17.8333C40.0553 18.0442 39.8092 18.344 39.6639 18.6948C39.5187 19.0455 39.4806 19.4315 39.5547 19.8038C39.6288 20.1762 39.8116 20.5182 40.08 20.7867C40.3485 21.0551 40.6905 21.2379 41.0629 21.312C41.4352 21.3861 41.8212 21.3481 42.172 21.2028C42.5227 21.0575 42.8225 20.8114 43.0334 20.4958C43.2443 20.1801 43.3569 19.809 43.3569 19.4293C43.358 19.1769 43.3091 18.9268 43.213 18.6935C43.117 18.4601 42.9756 18.248 42.7971 18.0696C42.6187 17.8911 42.4066 17.7497 42.1732 17.6537C41.9399 17.5576 41.6898 17.5087 41.4374 17.5098Z" fill="url(#paint0_linear_6616_60655)"/>
    </g>
    <defs>
        <linearGradient id="paint0_linear_6616_60655" x1="56.1467" y1="16.0867" x2="14.3514" y2="25.6462" gradientUnits="userSpaceOnUse">
            <stop stop-color="#AC2121"/>
            <stop offset="1" stop-color="#E9000E"/>
        </linearGradient>
        <clipPath id="clip0_6616_60655">
            <rect width="82.7392" height="82.7392" fill="white" transform="translate(0.0683594 0.788818)"/>
        </clipPath>
    </defs>
</svg>
