<svg width="91" height="84" viewBox="0 0 91 84" fill="none" xmlns="http://www.w3.org/2000/svg">
    <g clip-path="url(#clip0_6616_60757)">
        <path d="M69.3156 49.1253C69.4549 49.1309 69.5938 49.1083 69.7241 49.0588C69.8544 49.0093 69.9734 48.934 70.0738 48.8374C70.1743 48.7408 70.2542 48.6249 70.3087 48.4967C70.3633 48.3684 70.3913 48.2305 70.3912 48.0911V36.6069C70.387 36.4703 70.3557 36.336 70.2992 36.2116C70.2427 36.0872 70.1621 35.9752 70.0621 35.8821C69.9621 35.789 69.8447 35.7167 69.7165 35.6692C69.5884 35.6218 69.4521 35.6002 69.3156 35.6058H57.8231C57.5488 35.6058 57.2858 35.7147 57.0918 35.9087C56.8979 36.1026 56.7889 36.3657 56.7889 36.64V41.5547H52.3458V36.6069C52.3372 36.3384 52.2245 36.0837 52.0314 35.8969C51.8384 35.71 51.5802 35.6056 51.3116 35.6058H46.3968V31.0468H51.3116C51.5859 31.0468 51.8489 30.9379 52.0429 30.7439C52.2368 30.5499 52.3458 30.2869 52.3458 30.0126V18.5284C52.3458 18.2541 52.2368 17.991 52.0429 17.7971C51.8489 17.6031 51.5859 17.4941 51.3116 17.4941H39.8274C39.5531 17.4941 39.29 17.6031 39.096 17.7971C38.9021 17.991 38.7931 18.2541 38.7931 18.5284V23.4431H34.35V18.5284C34.35 18.2541 34.2411 17.991 34.0471 17.7971C33.8531 17.6031 33.5901 17.4941 33.3158 17.4941H21.8233C21.549 17.4941 21.2859 17.6031 21.092 17.7971C20.898 17.991 20.7891 18.2541 20.7891 18.5284V30.0126C20.7891 30.2869 20.898 30.5499 21.092 30.7439C21.2859 30.9379 21.549 31.0468 21.8233 31.0468H33.3158C33.5901 31.0468 33.8531 30.9379 34.0471 30.7439C34.2411 30.5499 34.35 30.2869 34.35 30.0126V25.0979H38.7931V30.0126C38.7931 30.2869 38.9021 30.5499 39.096 30.7439C39.29 30.9379 39.5531 31.0468 39.8274 31.0468H44.7421V35.6058H39.8274C39.5531 35.6058 39.29 35.7147 39.096 35.9087C38.9021 36.1026 38.7931 36.3657 38.7931 36.64V48.0911C38.7931 48.3654 38.9021 48.6285 39.096 48.8224C39.29 49.0164 39.5531 49.1253 39.8274 49.1253H51.3116C51.5859 49.1253 51.8489 49.0164 52.0429 48.8224C52.2368 48.6285 52.3458 48.3654 52.3458 48.0911V43.1764H56.7889V48.0911C56.7889 48.2269 56.8156 48.3614 56.8676 48.4869C56.9196 48.6124 56.9958 48.7264 57.0918 48.8224C57.1879 48.9185 57.3019 48.9946 57.4273 49.0466C57.5528 49.0986 57.6873 49.1253 57.8231 49.1253H62.7378V53.403H57.8231C57.5488 53.403 57.2858 53.5119 57.0918 53.7059C56.8979 53.8998 56.7889 54.1629 56.7889 54.4372V59.3519H52.3458V54.4372C52.3458 54.1629 52.2368 53.8998 52.0429 53.7059C51.8489 53.5119 51.5859 53.403 51.3116 53.403H39.8274C39.5531 53.403 39.29 53.5119 39.096 53.7059C38.9021 53.8998 38.7931 54.1629 38.7931 54.4372V59.3519H34.35V54.4372C34.35 54.1629 34.2411 53.8998 34.0471 53.7059C33.8531 53.5119 33.5901 53.403 33.3158 53.403H21.8233C21.549 53.403 21.2859 53.5119 21.092 53.7059C20.898 53.8998 20.7891 54.1629 20.7891 54.4372V65.9214C20.7891 66.1957 20.898 66.4588 21.092 66.6527C21.2859 66.8467 21.549 66.9556 21.8233 66.9556H33.3158C33.5901 66.9556 33.8531 66.8467 34.0471 66.6527C34.2411 66.4588 34.35 66.1957 34.35 65.9214V61.0067H38.7931V65.9214C38.7931 66.1957 38.9021 66.4588 39.096 66.6527C39.29 66.8467 39.5531 66.9556 39.8274 66.9556H51.3116C51.5859 66.9556 51.8489 66.8467 52.0429 66.6527C52.2368 66.4588 52.3458 66.1957 52.3458 65.9214V61.0067H56.7889V65.9214C56.7889 66.0572 56.8156 66.1917 56.8676 66.3172C56.9196 66.4427 56.9958 66.5567 57.0918 66.6527C57.1879 66.7488 57.3019 66.8249 57.4273 66.8769C57.5528 66.9289 57.6873 66.9556 57.8231 66.9556H69.3156C69.4549 66.9612 69.5938 66.9386 69.7241 66.8891C69.8544 66.8396 69.9734 66.7643 70.0738 66.6677C70.1743 66.5711 70.2542 66.4552 70.3087 66.327C70.3633 66.1987 70.3913 66.0608 70.3912 65.9214V54.4372C70.3912 54.1629 70.2823 53.8998 70.0883 53.7059C69.8943 53.5119 69.6313 53.403 69.357 53.403H64.3926V49.1253H69.3156ZM32.6952 29.392H22.4438V19.1489H32.6952V29.392ZM40.4479 19.1489H50.691V29.392H40.4479V19.1489ZM50.691 47.4706H40.4479V37.2605H50.691V47.4706ZM32.6952 65.3009H22.4438V55.0577H32.6952V65.3009ZM50.691 65.3009H40.4479V55.0577H50.691V65.3009ZM68.6951 65.3009H58.4437V55.0577H68.7364L68.6951 65.3009ZM58.4437 37.2605H68.7364V47.4706H58.4437V37.2605Z" fill="url(#paint0_linear_6616_60757)"/>
    </g>
    <defs>
        <linearGradient id="paint0_linear_6616_60757" x1="61.083" y1="17.4941" x2="17.5642" y2="28.5444" gradientUnits="userSpaceOnUse">
            <stop stop-color="#AC2121"/>
            <stop offset="1" stop-color="#E9000E"/>
        </linearGradient>
        <clipPath id="clip0_6616_60757">
            <rect width="82.7392" height="82.7392" fill="white" transform="translate(4.19922 0.855957)"/>
        </clipPath>
    </defs>
</svg>
