<svg width="66" height="66" viewBox="0 0 66 66" fill="none" xmlns="http://www.w3.org/2000/svg">
    <g clip-path="url(#clip0_6616_60590)">
        <path d="M58.6406 0.67041H6.64062C3.05077 0.67041 0.140625 3.58056 0.140625 7.17041V59.1704C0.140625 62.7603 3.05077 65.6704 6.64062 65.6704H58.6406C62.2305 65.6704 65.1406 62.7603 65.1406 59.1704V7.17041C65.1406 3.58056 62.2305 0.67041 58.6406 0.67041Z" fill="#E3F4FC"/>
        <path d="M31.185 47.2689C30.93 47.1773 30.6823 47.0665 30.444 46.9374C30.191 46.7908 29.9768 46.5856 29.8196 46.339C29.6624 46.0924 29.5667 45.8117 29.5405 45.5204C29.3845 43.7914 29.248 42.0624 29.105 40.3204C28.962 38.5784 28.8385 37.0704 28.702 35.4194C28.7022 35.3313 28.6891 35.2436 28.663 35.1594H27.6685C27.4005 35.1791 27.1356 35.0916 26.932 34.9161C26.7285 34.7406 26.6029 34.4915 26.583 34.2234C26.5765 34.1347 26.5765 34.0457 26.583 33.9569C26.8863 31.5649 27.194 29.1816 27.506 26.8069C27.5547 26.3365 27.7727 25.8997 28.1195 25.578C28.4663 25.2564 28.9182 25.0717 29.391 25.0584C31.25 25.0584 30.7885 24.8634 32.0365 26.0919C32.212 26.2674 32.381 26.4559 32.5825 26.6769C32.9855 26.2674 33.3755 25.9034 33.733 25.5134C33.8687 25.3529 34.0413 25.2276 34.236 25.1483C34.4307 25.0691 34.6417 25.0382 34.851 25.0584C35.3004 25.0596 35.7495 25.0834 36.1965 25.1299C36.5843 25.2145 36.9371 25.4153 37.2077 25.7057C37.4784 25.9961 37.6539 26.3621 37.711 26.7549C38.036 29.1599 38.348 31.5671 38.647 33.9764C38.6887 34.2346 38.6277 34.4989 38.4771 34.7127C38.3265 34.9265 38.0982 35.0728 37.841 35.1204H36.5865C36.528 35.8354 36.4695 36.5374 36.411 37.2329C36.19 39.9239 35.9733 42.6171 35.761 45.3124C35.7507 45.7598 35.5868 46.1901 35.2968 46.5309C35.0068 46.8718 34.6084 47.1025 34.1685 47.1844C34.152 47.1852 34.136 47.1905 34.1223 47.1996C34.1085 47.2088 34.0976 47.2215 34.0905 47.2364L31.185 47.2689Z" fill="url(#paint0_linear_6616_60590)"/>
        <path d="M36.6777 18.9875C36.6829 19.7885 36.45 20.5729 36.0086 21.2414C35.5672 21.9098 34.9372 22.432 34.1985 22.7418C33.4598 23.0516 32.6458 23.135 31.8596 22.9815C31.0735 22.8279 30.3507 22.4442 29.7829 21.8792C29.2151 21.3142 28.828 20.5932 28.6706 19.8078C28.5132 19.0224 28.5927 18.208 28.8989 17.4678C29.2051 16.7277 29.7243 16.0951 30.3906 15.6505C31.0569 15.2059 31.8402 14.9692 32.6412 14.9705C33.7084 14.9705 34.7321 15.393 35.4886 16.1458C36.245 16.8986 36.6726 17.9203 36.6777 18.9875Z" fill="url(#paint1_linear_6616_60590)"/>
        <path d="M38.6522 41.2888C43.1307 42.1533 46.2052 43.9668 46.2052 46.0598C46.2052 48.9978 40.1342 51.3703 32.6397 51.3703C25.1452 51.3703 19.0742 48.9913 19.0742 46.0533C19.0742 43.9733 22.1097 42.1533 26.5427 41.2953" stroke="#22AE16" stroke-width="2.275" stroke-linecap="round" stroke-linejoin="round"/>
    </g>
    <defs>
        <linearGradient id="paint0_linear_6616_60590" x1="36.3926" y1="25.0471" x2="25.3191" y2="26.5715" gradientUnits="userSpaceOnUse">
            <stop stop-color="#00E925"/>
            <stop offset="1" stop-color="#21AC27"/>
        </linearGradient>
        <linearGradient id="paint1_linear_6616_60590" x1="35.1604" y1="14.9705" x2="28.0637" y2="16.7674" gradientUnits="userSpaceOnUse">
            <stop stop-color="#00E925"/>
            <stop offset="1" stop-color="#21AC27"/>
        </linearGradient>
        <clipPath id="clip0_6616_60590">
            <rect width="65" height="65" fill="white" transform="translate(0.140625 0.67041)"/>
        </clipPath>
    </defs>
</svg>
