<svg width="19" height="12" viewBox="0 0 19 12" fill="none" xmlns="http://www.w3.org/2000/svg">
    <path d="M0.171875 6.31598C0.171875 6.2298 0.189503 6.1495 0.224759 6.07507C0.260015 6.00064 0.301147 5.93992 0.348155 5.89291C0.387328 5.85374 0.446088 5.81653 0.524434 5.78127C0.602781 5.74601 0.685045 5.72839 0.771226 5.72839H15.99L11.9474 1.81498C11.9082 1.76797 11.869 1.70725 11.8298 1.63282C11.7907 1.55839 11.7711 1.47809 11.7711 1.39191C11.7711 1.31356 11.7907 1.23521 11.8298 1.15687C11.869 1.07852 11.9082 1.01976 11.9474 0.980587C11.9944 0.933579 12.057 0.894406 12.1354 0.863067C12.2137 0.831729 12.296 0.816059 12.3822 0.816059C12.4684 0.816059 12.5506 0.831729 12.629 0.863067C12.7073 0.894406 12.7661 0.933579 12.8053 0.980587L17.9644 5.98693C18.0114 6.0261 18.0408 6.06332 18.0525 6.09857C18.0643 6.13383 18.0936 6.15146 18.1406 6.15146C18.1406 6.19063 18.1544 6.23176 18.1818 6.27485C18.2092 6.31794 18.2229 6.35908 18.2229 6.39825C18.2229 6.43742 18.219 6.47855 18.2112 6.52164C18.2033 6.56474 18.1798 6.60587 18.1406 6.64504C18.1406 6.69205 18.123 6.73122 18.0878 6.76256C18.0525 6.7939 18.0114 6.80957 17.9644 6.80957L12.8053 11.8159C12.7661 11.8629 12.7073 11.9021 12.629 11.9334C12.5506 11.9648 12.4684 11.9804 12.3822 11.9804C12.296 11.9804 12.2137 11.9648 12.1354 11.9334C12.057 11.9021 11.9944 11.8629 11.9474 11.8159C11.9082 11.7767 11.869 11.718 11.8298 11.6396C11.7907 11.5613 11.7711 11.4829 11.7711 11.4046C11.7711 11.3184 11.7907 11.2381 11.8298 11.1637C11.869 11.0892 11.9082 11.0285 11.9474 10.9815L15.99 7.06811H0.771226C0.685045 7.06811 0.602781 7.05048 0.524434 7.01523C0.446088 6.97997 0.387328 6.94276 0.348155 6.90358C0.301147 6.77823 0.260015 6.6705 0.224759 6.5804C0.189503 6.49031 0.171875 6.40217 0.171875 6.31598Z" fill="url(#paint0_linear_6616_60335)"/>
    <defs>
        <linearGradient id="paint0_linear_6616_60335" x1="14.8355" y1="11.9804" x2="0.397071" y2="6.06949" gradientUnits="userSpaceOnUse">
            <stop stop-color="#AC2121"/>
            <stop offset="1" stop-color="#E9000E"/>
        </linearGradient>
    </defs>
</svg>
