<svg width="60" height="61" viewBox="0 0 60 61" fill="none" xmlns="http://www.w3.org/2000/svg">
    <g clip-path="url(#clip0_6616_60428)">
        <path d="M53.6775 0.850342H6.03361C2.74449 0.850342 0.078125 3.5167 0.078125 6.80583V54.4497C0.078125 57.7388 2.74449 60.4052 6.03361 60.4052H53.6775C56.9666 60.4052 59.633 57.7388 59.633 54.4497V6.80583C59.633 3.5167 56.9666 0.850342 53.6775 0.850342Z" fill="#FDE6E7"/>
        <path d="M13.6621 26.0841V24.6726C13.7514 24.1426 13.7931 23.6066 13.9301 23.0944C14.9545 19.1698 17.4558 16.7518 21.4162 15.9478C23.6397 15.4903 25.9536 15.852 27.9315 16.9662C28.6044 17.3236 29.2298 17.7762 29.8491 18.1573C30.54 17.6868 31.2487 17.2521 31.9812 16.8531C33.2479 16.1809 34.6494 15.8019 36.0823 15.7441C37.5151 15.6864 38.9427 15.9514 40.2593 16.5196C44.7438 18.4015 46.858 23.1123 45.7562 27.7754C45.2311 29.7983 44.2922 31.6903 42.9988 33.3319C41.5211 35.2718 39.862 37.0666 38.0439 38.6918C35.7391 40.7941 33.4284 42.8607 31.0462 44.9213C30.7573 45.177 30.4157 45.3661 30.0457 45.4751C29.8055 45.5171 29.5587 45.4982 29.3277 45.4201C29.0968 45.3421 28.8891 45.2075 28.7235 45.0285C26.651 43.2002 24.5547 41.4016 22.5001 39.5613C20.4937 37.8508 18.6331 35.9763 16.9376 33.9572C15.4655 32.2227 14.432 30.1598 13.9242 27.9422C13.8229 27.3347 13.7753 26.7035 13.6621 26.0841Z" fill="url(#paint0_radial_6616_60428)"/>
        <path d="M27.9619 36.2077C27.736 36.2077 27.5194 36.118 27.3597 35.9582C27.2 35.7985 27.1103 35.5819 27.1103 35.356V32.414H24.1325C23.9108 32.4078 23.7003 32.3154 23.5457 32.1563C23.3911 31.9973 23.3046 31.7842 23.3047 31.5624V27.739C23.3039 27.6266 23.3254 27.5153 23.3678 27.4112C23.4103 27.3072 23.4729 27.2126 23.552 27.1329C23.6312 27.0532 23.7253 26.99 23.8291 26.9468C23.9328 26.9036 24.044 26.8814 24.1563 26.8814H27.0924V23.9572C27.0924 23.8449 27.1146 23.7337 27.1578 23.63C27.201 23.5262 27.2642 23.4321 27.3439 23.3529C27.4237 23.2738 27.5182 23.2112 27.6223 23.1687C27.7263 23.1263 27.8376 23.1048 27.95 23.1056H31.7555C31.9814 23.1056 32.198 23.1953 32.3577 23.3551C32.5175 23.5148 32.6072 23.7314 32.6072 23.9572V26.8814H35.5849C35.8066 26.8891 36.0166 26.9831 36.17 27.1433C36.3235 27.3034 36.4085 27.5172 36.4068 27.739V31.5564C36.4076 31.6688 36.3861 31.7802 36.3437 31.8842C36.3012 31.9882 36.2386 32.0828 36.1595 32.1625C36.0803 32.2422 35.9861 32.3055 35.8824 32.3486C35.7787 32.3918 35.6675 32.414 35.5551 32.414H32.625V35.362C32.625 35.4743 32.6028 35.5856 32.5597 35.6893C32.5165 35.793 32.4532 35.8872 32.3735 35.9663C32.2938 36.0455 32.1992 36.1081 32.0952 36.1505C31.9912 36.193 31.8798 36.2144 31.7675 36.2136L27.9619 36.2077Z" fill="url(#paint1_linear_6616_60428)"/>
    </g>
    <defs>
        <radialGradient id="paint0_radial_6616_60428" cx="0" cy="0" r="1" gradientUnits="userSpaceOnUse" gradientTransform="translate(46.0437 43.6369) rotate(-139.251) scale(42.7435 185.718)">
            <stop stop-color="#F20101"/>
            <stop offset="1" stop-color="#981E13"/>
        </radialGradient>
        <linearGradient id="paint1_linear_6616_60428" x1="27.2339" y1="22.3067" x2="35.0838" y2="32.3738" gradientUnits="userSpaceOnUse">
            <stop stop-color="#F44F4F"/>
            <stop offset="0.4429" stop-color="#EE3D3D"/>
            <stop offset="1" stop-color="#FC0E1C"/>
        </linearGradient>
        <clipPath id="clip0_6616_60428">
            <rect width="59.5549" height="59.5549" fill="white" transform="translate(0.078125 0.85022)"/>
        </clipPath>
    </defs>
</svg>
