<svg width="83" height="84" viewBox="0 0 83 84" fill="none" xmlns="http://www.w3.org/2000/svg">
    <g clip-path="url(#clip0_6616_60676)">
        <path d="M61.9369 30.9973H58.1971C57.9777 30.9973 57.7672 31.0845 57.6121 31.2397C57.4569 31.3948 57.3697 31.6053 57.3697 31.8247C57.3697 32.0441 57.4569 32.2546 57.6121 32.4098C57.7672 32.5649 57.9777 32.6521 58.1971 32.6521H62.2679V52.5095C62.2679 56.7623 62.2679 56.7623 62.1521 56.8699L62.0528 56.9526H20.7659V32.71H24.8367C25.0561 32.71 25.2666 32.6228 25.4217 32.4677C25.5769 32.3125 25.6641 32.1021 25.6641 31.8826C25.6641 31.6632 25.5769 31.4527 25.4217 31.2976C25.2666 31.1424 25.0561 31.0552 24.8367 31.0552H21.0969C20.5611 31.0551 20.0466 31.2644 19.6632 31.6386C19.2798 32.0127 19.0579 32.522 19.0449 33.0575V56.6878C19.0536 57.2263 19.2736 57.7397 19.6575 58.1174C20.0414 58.4951 20.5583 58.7067 21.0969 58.7067H34.7488V65.2431H28.8247C28.5976 65.2431 28.3798 65.3333 28.2192 65.4939C28.0586 65.6545 27.9683 65.8723 27.9683 66.0994C27.9683 66.3265 28.0586 66.5444 28.2192 66.705C28.3798 66.8656 28.5976 66.9558 28.8247 66.9558H54.2091C54.4362 66.9558 54.654 66.8656 54.8146 66.705C54.9752 66.5444 55.0654 66.3265 55.0654 66.0994C55.0654 65.8723 54.9752 65.6545 54.8146 65.4939C54.654 65.3333 54.4362 65.2431 54.2091 65.2431H48.285V58.7067H61.9369C62.4797 58.7067 63.0004 58.4916 63.3849 58.1086C63.7695 57.7256 63.9867 57.2058 63.9889 56.663V33.0575C63.99 32.7874 63.9377 32.5196 63.835 32.2697C63.7324 32.0198 63.5814 31.7927 63.3908 31.6012C63.2001 31.4098 62.9736 31.2579 62.7241 31.1543C62.4746 31.0507 62.2071 30.9973 61.9369 30.9973ZM46.5723 65.2679H36.4615V58.7067H46.5723V65.2679Z" fill="url(#paint0_linear_6616_60676)"/>
        <path d="M41.516 28.8623C40.9121 28.8623 40.3218 29.0414 39.8198 29.3768C39.3177 29.7123 38.9264 30.1891 38.6953 30.747C38.4642 31.3049 38.4038 31.9188 38.5216 32.511C38.6394 33.1032 38.9301 33.6473 39.3571 34.0742C39.7841 34.5012 40.3281 34.792 40.9203 34.9098C41.5126 35.0276 42.1265 34.9671 42.6843 34.7361C43.2422 34.505 43.719 34.1137 44.0545 33.6116C44.39 33.1095 44.569 32.5192 44.569 31.9154C44.569 31.1057 44.2474 30.3291 43.6748 29.7565C43.1023 29.184 42.3257 28.8623 41.516 28.8623ZM41.516 33.2558C41.2485 33.2574 40.9867 33.1795 40.7636 33.0319C40.5406 32.8844 40.3664 32.6738 40.2633 32.427C40.1602 32.1803 40.1328 31.9084 40.1846 31.646C40.2364 31.3837 40.365 31.1426 40.5541 30.9535C40.7432 30.7644 40.9843 30.6358 41.2466 30.584C41.509 30.5322 41.7809 30.5596 42.0276 30.6627C42.2744 30.7658 42.4849 30.94 42.6325 31.163C42.7801 31.3861 42.858 31.6479 42.8563 31.9154C42.8542 32.2702 42.7123 32.6099 42.4614 32.8608C42.2105 33.1117 41.8708 33.2536 41.516 33.2558Z" fill="url(#paint1_linear_6616_60676)"/>
        <path d="M47.3074 38.0212C48.7344 37.5061 50.0738 36.775 51.2789 35.8535C52.5774 34.8881 53.6856 33.6902 54.5471 32.3205C54.6197 32.1947 54.6579 32.052 54.6579 31.9068C54.6579 31.7616 54.6197 31.6189 54.5471 31.4931C53.6664 30.1369 52.5447 28.9535 51.2375 28.0015C48.484 25.9413 45.1448 24.8137 41.706 24.783H41.3998C39.4646 24.7822 37.544 25.1181 35.7239 25.7758C34.2985 26.2943 32.9595 27.0251 31.7525 27.9436C30.4379 28.9071 29.3154 30.1082 28.4429 31.4848C28.3703 31.6106 28.332 31.7533 28.332 31.8985C28.332 32.0438 28.3703 32.1864 28.4429 32.3122C29.3239 33.6705 30.4455 34.8566 31.7525 35.8121C34.5432 37.8955 37.9337 39.0189 41.4164 39.0141H41.6315C43.5671 39.019 45.4884 38.6829 47.3074 38.0212ZM52.793 31.8903C52.0747 32.8809 51.2131 33.7593 50.2364 34.4965C49.2683 35.2434 48.1984 35.848 47.0592 36.292C48.0436 35.0534 48.585 33.521 48.597 31.9389C48.609 30.3568 48.0909 28.8163 47.1254 27.563C49.3763 28.4573 51.3373 29.9545 52.793 31.8903ZM41.4247 37.3014C40.0716 37.1881 38.811 36.5687 37.8945 35.5668C36.978 34.565 36.473 33.2544 36.4803 31.8966C36.4876 30.5388 37.0067 29.2337 37.9339 28.2417C38.8612 27.2498 40.1284 26.644 41.4826 26.5453H41.6646C43.0177 26.667 44.2751 27.2947 45.1855 28.3031C46.0959 29.3114 46.5924 30.6262 46.5756 31.9846C46.5589 33.3431 46.0303 34.6452 45.0953 35.6308C44.1603 36.6165 42.8879 37.2131 41.5322 37.3014H41.4247ZM30.2218 31.9068C30.9423 30.918 31.8037 30.0399 32.7784 29.3005C33.7484 28.5566 34.8179 27.9523 35.9556 27.5051C34.9712 28.7436 34.4298 30.2761 34.4178 31.8582C34.4059 33.4402 34.9239 34.9807 35.8894 36.2341C33.6368 35.3428 31.675 33.845 30.2218 31.9068Z" fill="url(#paint2_linear_6616_60676)"/>
        <path d="M27.789 27.3814C28.0084 27.3814 28.2189 27.2943 28.374 27.1391C28.5292 26.9839 28.6164 26.7735 28.6164 26.554V19.1075H36.0629C36.2889 19.1075 36.5057 19.0177 36.6655 18.8579C36.8253 18.6981 36.9151 18.4813 36.9151 18.2553C36.9151 18.0293 36.8253 17.8125 36.6655 17.6527C36.5057 17.4929 36.2889 17.4031 36.0629 17.4031H27.789C27.5696 17.4031 27.3591 17.4902 27.2039 17.6454C27.0488 17.8006 26.9616 18.011 26.9616 18.2305V26.5209C26.9571 26.6323 26.9752 26.7435 27.0148 26.8477C27.0544 26.952 27.1146 27.0471 27.1919 27.1275C27.2692 27.2079 27.3619 27.2718 27.4645 27.3154C27.5671 27.3591 27.6775 27.3815 27.789 27.3814Z" fill="url(#paint3_linear_6616_60676)"/>
        <path d="M55.2431 17.3367H46.903C46.677 17.3367 46.4602 17.4265 46.3004 17.5863C46.1406 17.7461 46.0508 17.9629 46.0508 18.1889C46.0508 18.4149 46.1406 18.6317 46.3004 18.7915C46.4602 18.9513 46.677 19.0411 46.903 19.0411H54.3495V26.4876C54.3495 26.7147 54.4397 26.9326 54.6003 27.0932C54.7609 27.2538 54.9788 27.344 55.2059 27.344C55.433 27.344 55.6508 27.2538 55.8114 27.0932C55.972 26.9326 56.0622 26.7147 56.0622 26.4876V18.1641C56.0622 17.9461 55.9762 17.7368 55.8228 17.5819C55.6694 17.427 55.4611 17.3389 55.2431 17.3367Z" fill="url(#paint4_linear_6616_60676)"/>
        <path d="M55.2416 36.4495C55.0222 36.4495 54.8117 36.5366 54.6565 36.6918C54.5014 36.847 54.4142 37.0574 54.4142 37.2769V44.7234H46.9677C46.7406 44.7234 46.5227 44.8136 46.3621 44.9742C46.2015 45.1348 46.1113 45.3526 46.1113 45.5797C46.1113 45.8069 46.2015 46.0247 46.3621 46.1853C46.5227 46.3459 46.7406 46.4361 46.9677 46.4361H55.2416C55.461 46.4361 55.6715 46.3489 55.8267 46.1937C55.9818 46.0386 56.069 45.8281 56.069 45.6087V37.3017C56.0723 37.191 56.0534 37.0807 56.0133 36.9774C55.9732 36.8742 55.9128 36.78 55.8356 36.7005C55.7584 36.621 55.6661 36.5579 55.5641 36.5147C55.462 36.4716 55.3524 36.4494 55.2416 36.4495Z" fill="url(#paint5_linear_6616_60676)"/>
        <path d="M36.1299 44.7812H28.6834V37.3346C28.6834 37.1075 28.5932 36.8897 28.4326 36.7291C28.272 36.5685 28.0542 36.4783 27.8271 36.4783C27.5999 36.4783 27.3821 36.5685 27.2215 36.7291C27.0609 36.8897 26.9707 37.1075 26.9707 37.3346V45.6334C26.9707 45.8528 27.0579 46.0633 27.213 46.2184C27.3682 46.3736 27.5787 46.4608 27.7981 46.4608H36.1299C36.3571 46.4608 36.5749 46.3705 36.7355 46.2099C36.8961 46.0493 36.9863 45.8315 36.9863 45.6044C36.9863 45.3773 36.8961 45.1595 36.7355 44.9989C36.5749 44.8383 36.3571 44.7481 36.1299 44.7481V44.7812Z" fill="url(#paint6_linear_6616_60676)"/>
    </g>
    <defs>
        <linearGradient id="paint0_linear_6616_60676" x1="55.5548" y1="30.9973" x2="17.4018" y2="43.0718" gradientUnits="userSpaceOnUse">
            <stop stop-color="#AC2121"/>
            <stop offset="1" stop-color="#E9000E"/>
        </linearGradient>
        <linearGradient id="paint1_linear_6616_60676" x1="43.4232" y1="28.8623" x2="38.0641" y2="30.2192" gradientUnits="userSpaceOnUse">
            <stop stop-color="#AC2121"/>
            <stop offset="1" stop-color="#E9000E"/>
        </linearGradient>
        <linearGradient id="paint2_linear_6616_60676" x1="49.7177" y1="24.783" x2="29.5549" y2="34.2271" gradientUnits="userSpaceOnUse">
            <stop stop-color="#AC2121"/>
            <stop offset="1" stop-color="#E9000E"/>
        </linearGradient>
        <linearGradient id="paint3_linear_6616_60676" x1="35.0471" y1="17.4031" x2="26.3082" y2="19.6104" gradientUnits="userSpaceOnUse">
            <stop stop-color="#AC2121"/>
            <stop offset="1" stop-color="#E9000E"/>
        </linearGradient>
        <linearGradient id="paint4_linear_6616_60676" x1="54.1835" y1="17.3367" x2="45.3973" y2="19.5623" gradientUnits="userSpaceOnUse">
            <stop stop-color="#AC2121"/>
            <stop offset="1" stop-color="#E9000E"/>
        </linearGradient>
        <linearGradient id="paint5_linear_6616_60676" x1="54.2007" y1="36.4495" x2="45.4579" y2="38.6568" gradientUnits="userSpaceOnUse">
            <stop stop-color="#AC2121"/>
            <stop offset="1" stop-color="#E9000E"/>
        </linearGradient>
        <linearGradient id="paint6_linear_6616_60676" x1="35.1068" y1="36.4783" x2="26.3201" y2="38.7105" gradientUnits="userSpaceOnUse">
            <stop stop-color="#AC2121"/>
            <stop offset="1" stop-color="#E9000E"/>
        </linearGradient>
        <clipPath id="clip0_6616_60676">
            <rect width="82.7392" height="82.7392" fill="white" transform="translate(0.146484 0.789062)"/>
        </clipPath>
    </defs>
</svg>
