<svg width="93" height="93" viewBox="0 0 93 93" fill="none" xmlns="http://www.w3.org/2000/svg">
    <g clip-path="url(#clip0_6616_60338)">
        <path d="M89.3463 25.2013H38.0033C36.1774 25.2013 34.6973 26.6814 34.6973 28.5073V43.1696C34.6973 44.9955 36.1774 46.4757 38.0033 46.4757H89.3463C91.1722 46.4757 92.6523 44.9955 92.6523 43.1696V28.5073C92.6523 26.6814 91.1722 25.2013 89.3463 25.2013Z" fill="#FFBC0A"/>
        <path d="M10.3146 36.2596L36.9449 63.0056L39.6558 72.8246L29.8369 70.0475L3.22316 43.3511C2.9056 42.877 2.78175 42.2992 2.87706 41.7366C2.97237 41.1739 3.2796 40.6692 3.7356 40.3261L7.2896 36.7721C8.34754 35.7968 9.6369 35.5654 10.3146 36.2596Z" fill="url(#paint0_linear_6616_60338)"/>
        <path d="M43.5234 30.689H48.8462" stroke="#56585A" stroke-width="3.30605" stroke-linecap="round" stroke-linejoin="round"/>
        <path d="M55.9375 30.689H77.2119" stroke="#56585A" stroke-width="3.30605" stroke-linecap="round" stroke-linejoin="round"/>
        <path d="M43.5234 41.2188H59.4917" stroke="#56585A" stroke-width="3.30605" stroke-linecap="round" stroke-linejoin="round"/>
        <path d="M66.584 41.2188H73.6755" stroke="#56585A" stroke-width="3.30605" stroke-linecap="round" stroke-linejoin="round"/>
        <path d="M48.8457 62.262H54.1684" stroke="#56585A" stroke-width="3.30605" stroke-linecap="round" stroke-linejoin="round"/>
        <path d="M61.2617 62.262H73.6759" stroke="#56585A" stroke-width="3.30605" stroke-linecap="round" stroke-linejoin="round"/>
        <path d="M48.8457 72.7751H64.7974" stroke="#FFBC0A" stroke-width="3.30605" stroke-linecap="round" stroke-linejoin="round"/>
        <path d="M37.6562 51.7323H53.6079" stroke="#56585A" stroke-width="3.30605" stroke-linecap="round" stroke-linejoin="round"/>
        <path d="M24.9941 20.1759H30.3169" stroke="#FFBC0A" stroke-width="3.30605" stroke-linecap="round" stroke-linejoin="round"/>
        <path d="M37.4082 20.1759H49.8224" stroke="#56585A" stroke-width="3.30605" stroke-linecap="round" stroke-linejoin="round"/>
        <path d="M10.3146 36.2596L36.9449 63.0056L39.6558 72.8246L29.8369 70.0475L3.22316 43.3511C2.9056 42.877 2.78175 42.2992 2.87706 41.7366C2.97237 41.1739 3.2796 40.6692 3.7356 40.3261L7.2896 36.7721C8.34754 35.7968 9.6369 35.5654 10.3146 36.2596Z" stroke="#56585A" stroke-width="3.30605" stroke-linecap="round" stroke-linejoin="round"/>
        <path d="M6.97461 47.1201L14.0826 40.0286" stroke="#56585A" stroke-width="3.30605" stroke-linecap="round" stroke-linejoin="round"/>
        <path d="M16.9258 67.4523V82.8419C16.9258 83.311 17.1121 83.7609 17.4438 84.0926C17.7755 84.4243 18.2254 84.6107 18.6945 84.6107H84.3857C84.8345 84.5813 85.2552 84.382 85.5623 84.0534C85.8694 83.7249 86.0397 83.2917 86.0388 82.8419V10.1088C86.0356 9.66195 85.8633 9.23287 85.5567 8.90781C85.25 8.58276 84.8317 8.38583 84.3857 8.35661H18.6945C18.2283 8.35659 17.7809 8.54066 17.4496 8.8688C17.1184 9.19693 16.9301 9.64258 16.9258 10.1088V32.1271" stroke="#56585A" stroke-width="3.30605" stroke-linecap="round" stroke-linejoin="round"/>
    </g>
    <defs>
        <linearGradient id="paint0_linear_6616_60338" x1="5.7027" y1="38.3094" x2="39.3583" y2="73.056" gradientUnits="userSpaceOnUse">
            <stop offset="0.35" stop-color="#FFD546" stop-opacity="0"/>
            <stop offset="0.41" stop-color="#FFD546" stop-opacity="0.02"/>
            <stop offset="0.49" stop-color="#FFD546" stop-opacity="0.08"/>
            <stop offset="0.57" stop-color="#FFD546" stop-opacity="0.17"/>
            <stop offset="0.65" stop-color="#FFD546" stop-opacity="0.31"/>
            <stop offset="0.74" stop-color="#FFD546" stop-opacity="0.48"/>
            <stop offset="0.83" stop-color="#FFD546" stop-opacity="0.69"/>
            <stop offset="0.93" stop-color="#FFD546" stop-opacity="0.94"/>
            <stop offset="0.95" stop-color="#FFD546"/>
        </linearGradient>
        <clipPath id="clip0_6616_60338">
            <rect width="92.5694" height="92.5694" fill="white" transform="translate(0.0820312 0.190613)"/>
        </clipPath>
    </defs>
</svg>
