<svg width="84" height="84" viewBox="0 0 84 84" fill="none" xmlns="http://www.w3.org/2000/svg">
    <g clip-path="url(#clip0_6616_60664)">
        <path d="M65.5025 57.4164C65.4039 57.3658 65.2962 57.3354 65.1858 57.3272C65.0753 57.319 64.9643 57.3331 64.8593 57.3686C64.7544 57.4041 64.6576 57.4603 64.5748 57.5339C64.492 57.6075 64.4248 57.6969 64.3772 57.797C64.2787 58.0086 64.1566 58.2085 64.0132 58.3927C63.7349 58.7607 63.3998 59.0819 63.0203 59.3442C62.908 59.4201 62.8161 59.5224 62.7526 59.6422C62.6891 59.7619 62.656 59.8954 62.6563 60.0309C62.6563 60.2504 62.7434 60.4608 62.8986 60.616C63.0538 60.7712 63.2642 60.8583 63.4836 60.8583C63.6511 60.8574 63.8147 60.8086 63.9553 60.7177C64.4816 60.3538 64.9478 59.91 65.337 59.4021C65.5399 59.1424 65.7199 58.8656 65.8748 58.5747C65.9247 58.4754 65.954 58.3671 65.9612 58.2563C65.9683 58.1454 65.953 58.0342 65.9162 57.9294C65.886 57.8201 65.8338 57.7181 65.7626 57.6299C65.6914 57.5417 65.6029 57.469 65.5025 57.4164Z" fill="url(#paint0_linear_6616_60664)"/>
        <path d="M62.6988 45.2033C61.9955 44.1608 61.226 43.1514 60.4235 42.1751C61.7575 40.5642 62.9558 38.8456 64.0061 37.0369C66.9185 31.9402 67.3984 27.6295 65.3547 24.8991C62.8725 21.5895 57.2794 21.3496 50.4617 23.6249C48.4097 18.8922 45.5552 16.0046 42.3367 16.0046C39.1181 16.0046 36.2636 18.9005 34.2034 23.6415C27.1209 21.2669 21.7181 21.7054 19.3103 24.8991C16.58 28.5727 18.425 34.985 24.2582 42.1502C18.6484 49.0176 16.5055 55.645 19.2938 59.4179C20.6507 61.2299 23.0502 62.1897 26.2191 62.1897C28.9364 62.1184 31.6254 61.6186 34.1869 60.7086C36.2388 65.4248 39.1016 68.3124 42.3036 68.3124C45.5056 68.3124 48.3849 65.4165 50.4451 60.6755C52.7042 61.4591 55.0533 61.954 57.4366 62.1483H57.511C57.7305 62.1483 57.9409 62.0611 58.0961 61.906C58.2513 61.7508 58.3384 61.5403 58.3384 61.3209C58.3435 61.2104 58.3263 61.1 58.2879 60.9963C58.2495 60.8925 58.1908 60.7975 58.115 60.7169C58.0391 60.6372 57.948 60.5735 57.8472 60.5295C57.7463 60.4854 57.6376 60.4619 57.5276 60.4604C55.3225 60.2762 53.1489 59.8176 51.0574 59.0952C52.1666 55.947 52.9133 52.6825 53.2831 49.3651C55.4227 47.5493 57.4275 45.5805 59.2817 43.4741C59.9767 44.3014 60.6469 45.2281 61.2674 46.1383C61.269 46.1603 61.269 46.1824 61.2674 46.2045C61.3327 46.2937 61.4152 46.369 61.5101 46.4259C61.605 46.4827 61.7104 46.52 61.8199 46.5354C61.9294 46.5508 62.0409 46.5441 62.1479 46.5157C62.2548 46.4873 62.3549 46.4377 62.4423 46.3699C62.5309 46.3054 62.6058 46.2238 62.6626 46.1301C62.7194 46.0364 62.757 45.9323 62.7733 45.8239C62.8305 45.6152 62.8038 45.3925 62.6988 45.2033ZM64.0143 25.9085C66.2814 28.9368 64.1964 34.7451 59.2982 40.843C57.45 38.7396 55.4566 36.7683 53.3327 34.9436C52.9623 31.6317 52.2156 28.3728 51.107 25.2301C53.4861 24.3736 55.9849 23.8962 58.5122 23.8152C61.0854 23.8152 63.0215 24.5433 64.0143 25.9085ZM49.8411 32.1388C47.9798 30.7499 46.0465 29.4602 44.0494 28.2749C45.8123 27.3439 47.6272 26.5151 49.4853 25.7927C50.3761 28.2425 51.03 30.7721 51.438 33.3468C50.8754 32.9331 50.3541 32.5277 49.8411 32.1388ZM40.624 28.2583C38.627 29.4499 36.6938 30.7451 34.8322 32.1388C34.3027 32.5442 33.7814 32.9662 33.2767 33.3468C33.6672 30.7698 34.2988 28.2351 35.1632 25.7761C37.0339 26.4877 38.8578 27.3168 40.624 28.2583ZM31.109 37.4093C30.9931 38.9482 30.9269 40.5285 30.9269 42.1502C30.9269 43.7719 30.9931 45.3688 31.109 46.9077C29.4709 45.4131 27.9211 43.8246 26.4673 42.1502C27.9226 40.4825 29.4724 38.8996 31.109 37.4093ZM34.8405 52.1617C36.7007 53.5547 38.634 54.8473 40.6322 56.0339C38.8654 56.9683 37.0447 57.7971 35.1797 58.516C34.3114 56.0639 33.6797 53.5344 33.2933 50.962C33.8063 51.3674 34.3275 51.7728 34.8405 52.1617ZM48.84 50.813C46.7631 52.375 44.5911 53.8063 42.3367 55.0989C40.0866 53.8066 37.9175 52.3781 35.8416 50.8213C34.9067 50.118 33.9386 49.3403 32.9458 48.5129C32.7171 46.3997 32.6039 44.2757 32.6065 42.1502C32.6027 40.0273 32.7187 37.9058 32.954 35.7959C33.889 34.9685 34.8488 34.2321 35.8416 33.4874C37.9157 31.9306 40.0849 30.5047 42.3367 29.2181C44.5843 30.5028 46.7481 31.9288 48.8152 33.4874C49.7584 34.1824 50.7264 34.9602 51.711 35.7793C51.9492 37.8946 52.068 40.0216 52.0668 42.1502C52.0682 44.2761 51.9494 46.4004 51.711 48.5129C50.7954 49.3017 49.8384 50.0684 48.84 50.813ZM42.3367 27.2572C40.2335 26.0849 38.0491 25.0646 35.8003 24.2041C37.5461 20.1664 39.8545 17.6677 42.3449 17.6677C44.8354 17.6677 47.1438 20.1499 48.8896 24.1793C46.6341 25.0462 44.4441 26.0748 42.3367 27.2572ZM31.3572 34.9354C29.2177 36.7513 27.2129 38.7202 25.3586 40.8264C20.2784 34.5134 18.4747 28.8458 20.6755 25.9333C22.5703 23.4015 27.3609 23.1533 33.5829 25.2301C32.4754 28.3703 31.7287 31.6264 31.3572 34.9354ZM31.3572 49.3568C31.7304 52.6744 32.4798 55.9388 33.5911 59.0869C32.9292 59.3021 32.2839 59.5006 31.6468 59.6661C26.2687 61.1058 22.3717 60.6507 20.6755 58.3919C18.9794 56.1332 19.6413 52.2692 22.5289 47.5117C23.3978 46.1001 24.3569 44.7458 25.4 43.4575C27.2406 45.5625 29.2286 47.5339 31.3489 49.3568H31.3572ZM42.3367 57.0433C44.4362 58.2172 46.6179 59.2376 48.8648 60.0964C47.119 64.134 44.8106 66.6328 42.3118 66.6328C39.8131 66.6328 37.5295 64.1506 35.7837 60.1377C38.0379 59.2612 40.2276 58.2272 42.3367 57.0433ZM43.9915 56.0587C45.9884 54.8672 47.9217 53.5719 49.7832 52.1782C50.3127 51.7811 50.8257 51.3508 51.3387 50.9702C50.9521 53.548 50.3204 56.0831 49.4522 58.5409C47.6051 57.8179 45.8036 56.9835 44.0576 56.0421L43.9915 56.0587ZM53.7547 42.1502C53.7547 40.4954 53.6885 38.9317 53.5727 37.3927C55.2107 38.8873 56.7605 40.4759 58.2143 42.1502C56.7615 43.8229 55.2116 45.4087 53.5727 46.8995C53.6885 45.3605 53.7547 43.805 53.7547 42.1502Z" fill="url(#paint1_linear_6616_60664)"/>
        <path d="M65.3044 49.8865C65.2609 49.7849 65.1975 49.693 65.1179 49.6162C65.0383 49.5395 64.9442 49.4795 64.841 49.4398C64.7401 49.3977 64.6318 49.376 64.5225 49.376C64.4131 49.376 64.3049 49.3977 64.2039 49.4398C64.1023 49.4832 64.0104 49.5466 63.9336 49.6262C63.8569 49.7058 63.7969 49.7999 63.7571 49.9031C63.715 50.004 63.6934 50.1123 63.6934 50.2216C63.6934 50.331 63.715 50.4393 63.7571 50.5402C64.0944 51.3203 64.371 52.1253 64.5845 52.9479C64.6298 53.1315 64.7366 53.294 64.8872 53.4084C65.0377 53.5228 65.2229 53.5822 65.4119 53.5767C65.475 53.5859 65.5391 53.5859 65.6022 53.5767C65.7094 53.5507 65.8102 53.5035 65.8988 53.438C65.9875 53.3724 66.0621 53.2898 66.1184 53.195C66.1747 53.1002 66.2114 52.9951 66.2265 52.8859C66.2416 52.7767 66.2347 52.6655 66.2062 52.559C65.9785 51.6452 65.6769 50.7515 65.3044 49.8865Z" fill="url(#paint2_linear_6616_60664)"/>
        <path d="M42.3361 34.9856C39.6057 34.9856 36.834 35.9619 36.834 37.8318V46.8504C36.834 48.7203 39.6057 49.6966 42.3361 49.6966C45.0665 49.6966 47.8466 48.7203 47.8466 46.8504V37.8318C47.8466 35.9619 45.0748 34.9856 42.3361 34.9856ZM42.3361 45.0136C39.854 45.0136 38.5136 44.1448 38.5136 43.8387V42.9286C40.966 43.9323 43.7146 43.9323 46.167 42.9286V43.8056C46.167 44.1448 44.8183 45.0136 42.3361 45.0136ZM42.3361 42.0019C39.854 42.0019 38.5136 41.1745 38.5136 40.8353V39.9251C40.9681 40.9183 43.7125 40.9183 46.167 39.9251V40.8353C46.167 41.1331 44.8183 42.0019 42.3361 42.0019ZM42.3361 38.9984C39.854 38.9984 38.5136 38.1711 38.5136 37.8318C38.5136 37.4926 39.854 36.6652 42.3361 36.6652C44.8183 36.6652 46.167 37.4926 46.167 37.8318C46.167 38.1711 44.8183 38.9984 42.3361 38.9984ZM38.5136 45.9403C40.9681 46.9335 43.7125 46.9335 46.167 45.9403V46.8504C46.167 47.1483 44.8514 48.017 42.3361 48.017C39.8209 48.017 38.5136 47.1152 38.5136 46.8504V45.9403Z" fill="url(#paint3_linear_6616_60664)"/>
    </g>
    <defs>
        <linearGradient id="paint0_linear_6616_60664" x1="65.3423" y1="57.325" x2="62.4184" y2="58.0178" gradientUnits="userSpaceOnUse">
            <stop stop-color="#AC2121"/>
            <stop offset="1" stop-color="#E9000E"/>
        </linearGradient>
        <linearGradient id="paint1_linear_6616_60664" x1="57.4951" y1="16.0046" x2="14.5423" y2="26.0949" gradientUnits="userSpaceOnUse">
            <stop stop-color="#AC2121"/>
            <stop offset="1" stop-color="#E9000E"/>
        </linearGradient>
        <linearGradient id="paint2_linear_6616_60664" x1="65.7575" y1="49.376" x2="63.4386" y2="49.7305" gradientUnits="userSpaceOnUse">
            <stop stop-color="#AC2121"/>
            <stop offset="1" stop-color="#E9000E"/>
        </linearGradient>
        <linearGradient id="paint3_linear_6616_60664" x1="45.78" y1="34.9856" x2="35.8517" y2="36.8675" gradientUnits="userSpaceOnUse">
            <stop stop-color="#AC2121"/>
            <stop offset="1" stop-color="#E9000E"/>
        </linearGradient>
        <clipPath id="clip0_6616_60664">
            <rect width="82.7392" height="82.7392" fill="white" transform="translate(0.966797 0.78125)"/>
        </clipPath>
    </defs>
</svg>
