<svg width="288" height="226" viewBox="0 0 288 226" fill="none" xmlns="http://www.w3.org/2000/svg">
    <g clip-path="url(#clip0_6616_60916)">
        <mask id="mask0_6616_60916" style="mask-type:luminance" maskUnits="userSpaceOnUse" x="0" y="0" width="288" height="226">
            <path d="M287.779 0.458008H0.0078125V225.984H287.779V0.458008Z" fill="white"/>
        </mask>
        <g mask="url(#mask0_6616_60916)">
            <path d="M143.893 225.985C203.68 225.985 252.146 177.518 252.146 117.732C252.146 57.9458 203.68 9.47949 143.893 9.47949C84.107 9.47949 35.6406 57.9458 35.6406 117.732C35.6406 177.518 84.107 225.985 143.893 225.985Z" fill="#F0F9FF"/>
            <mask id="mask1_6616_60916" style="mask-type:alpha" maskUnits="userSpaceOnUse" x="-4" y="-28" width="305" height="254">
                <path d="M298.705 131.479C298.705 143.583 269.301 146.78 253.242 160.366C243.068 168.973 236.864 174.889 229.18 184.564C209.35 209.538 178.724 225.553 144.356 225.553C105.226 225.553 70.9442 204.791 51.9272 173.682C37.4583 181.35 4.52241 174.59 1.82516 164.21C-0.441363 155.487 -2.97953 124.043 -2.97953 114.61C-9.94878 -135.17 43.4936 14.1176 64.8525 43.8303C58.0142 -19.574 112.929 9.04814 144.356 9.04814C172.653 9.04814 228.795 -20.7357 217.7 37.6806C239.164 57.4619 313.782 -81.8636 298.705 131.479Z" fill="#F0F9FF"/>
            </mask>
            <g mask="url(#mask1_6616_60916)">
                <path d="M287.699 30.2684C287.146 31.0408 286.537 31.7704 285.874 32.451C283.604 34.7679 280.8 36.457 277.847 37.7819C276.912 38.1988 275.96 38.5845 275.005 38.9367C272.13 40.0029 269.19 40.887 266.224 41.6848C264.34 42.1951 262.45 42.6671 260.567 43.1224C250.014 45.7085 239.312 47.6424 228.522 48.9133C227.724 49.0091 226.929 49.1025 226.126 49.1936L225.977 49.2103C222.464 49.6081 218.94 49.9483 215.407 50.231C209.057 50.7461 202.694 51.0935 196.328 51.3115L194.632 51.369C183.891 51.7116 170.067 51.9417 160.371 51.5918L160.345 52.2196L160.15 56.8939L159.656 68.8399L158.897 87.1374L156.168 153.07L160.002 153.206C170.8 153.595 188.151 152.759 198.899 152.318C209.647 151.876 220.431 151.046 231.127 149.641C241.76 148.273 252.298 146.245 262.68 143.568C267.345 142.353 272.079 141.117 276.524 139.219C279.734 137.849 282.801 136.043 285.233 133.548L287.725 30.2085L287.699 30.2684Z" fill="#FAE4D4"/>
                <path d="M216.043 54.2859C210.288 54.7547 204.521 55.0708 198.753 55.269H198.752L197.217 55.3213L197.216 55.3214C187.656 55.6274 175.388 55.8351 166.622 55.5394L166.617 55.6621L166.441 59.9096L166.4 60.9192L165.995 70.7651L165.307 87.3923L162.855 146.853L165.872 146.961C174.556 147.274 187.941 146.707 197.647 146.296C198.84 146.245 199.979 146.197 201.045 146.153C210.764 145.754 220.511 144.998 230.176 143.725H230.177C239.783 142.483 249.303 140.644 258.682 138.216C262.91 137.111 267.161 135.995 271.148 134.287M216.043 54.2859L281.782 40.1479L281.761 47.407L278.764 129.357C276.638 131.504 273.967 133.079 271.148 134.287M216.043 54.2859C216.043 54.2859 216.043 54.2859 216.042 54.2859L216.006 53.8364L216.043 54.2859ZM271.148 134.287L271.325 134.701M225.625 53.357L225.759 53.3418C226.487 53.259 227.208 53.1739 227.931 53.0868C230.617 52.7691 233.324 52.5072 236.036 52.2448C243.136 51.5579 250.278 50.867 257.215 49.1603C258.921 48.7462 260.636 48.3162 262.346 47.851C265.038 47.124 267.713 46.3167 270.332 45.3416C270.332 45.3415 270.332 45.3414 270.333 45.3413L270.175 44.9186M225.625 53.357L272.748 43.8692C271.902 44.248 271.04 44.5986 270.175 44.9186M225.625 53.357L225.574 52.9089M270.175 44.9186C267.574 45.8874 264.912 46.6908 262.228 47.4158L270.175 44.9186Z" stroke="#BE8D6A" stroke-width="0.902105"/>
                <path d="M220.166 71.4551V71.3085C220.166 67.8617 222.764 64.9691 226.191 64.6005C230.173 64.1723 233.659 67.3702 233.659 71.3885C233.659 74.9211 230.937 77.9147 227.425 78.1823C223.508 78.4808 220.166 75.3832 220.166 71.4551Z" stroke="#BE8D6A" stroke-width="0.902105"/>
                <path d="M224.377 70.1203V69.8093C224.377 68.5382 225.295 67.4535 226.549 67.2445C228.134 66.9803 229.577 68.2026 229.577 69.8093V70.1203C229.577 71.4452 228.581 72.5582 227.264 72.7045C225.724 72.8757 224.377 71.67 224.377 70.1203Z" stroke="#BE8D6A" stroke-width="0.902105"/>
                <path d="M223.133 77.0014C223.133 75.7172 224.122 74.6499 225.403 74.553L228.146 74.3456C229.691 74.2287 231.01 75.4513 231.01 77.0014" stroke="#BE8D6A" stroke-width="0.902105"/>
                <path d="M200.943 72.0816V71.935C200.943 68.4882 203.541 65.5956 206.969 65.227C210.95 64.7989 214.437 67.9966 214.437 72.0151C214.437 75.5475 211.714 78.5412 208.203 78.8088C204.287 79.1072 200.943 76.0097 200.943 72.0816Z" stroke="#BE8D6A" stroke-width="0.902105"/>
                <path d="M205.154 70.7473V70.4362C205.154 69.1652 206.074 68.0804 207.327 67.8715C208.912 67.6073 210.355 68.8295 210.355 70.4362V70.7473C210.355 72.0721 209.358 73.1852 208.042 73.3315C206.501 73.5027 205.154 72.297 205.154 70.7473Z" stroke="#BE8D6A" stroke-width="0.902105"/>
                <path d="M203.91 77.6289C203.91 76.3447 204.9 75.2774 206.181 75.1806L208.923 74.9731C210.468 74.8562 211.787 76.0788 211.787 77.6289" stroke="#BE8D6A" stroke-width="0.902105"/>
                <path d="M262.756 64.815V64.6684C262.756 61.2215 265.354 58.329 268.781 57.9604C272.763 57.5322 276.249 60.73 276.249 64.7484C276.249 68.2809 273.527 71.2746 270.015 71.5421C266.098 71.8406 262.756 68.7431 262.756 64.815Z" stroke="#BE8D6A" stroke-width="0.902105"/>
                <path d="M266.967 63.4812V63.1702C266.967 61.8992 267.885 60.8144 269.139 60.6054C270.724 60.3412 272.167 61.5635 272.167 63.1702V63.4812C272.167 64.8061 271.171 65.9191 269.854 66.0654C268.314 66.2366 266.967 65.0309 266.967 63.4812Z" stroke="#BE8D6A" stroke-width="0.902105"/>
                <path d="M265.723 70.3623C265.723 69.078 266.712 68.0108 267.992 67.9139L270.735 67.7065C272.281 67.5896 273.6 68.8122 273.6 70.3623" stroke="#BE8D6A" stroke-width="0.902105"/>
                <path d="M241.461 68.3472V68.2006C241.461 64.7537 244.059 61.8612 247.486 61.4926C251.468 61.0644 254.955 64.2623 254.955 68.2806C254.955 71.8131 252.232 74.8068 248.72 75.0744C244.804 75.3729 241.461 72.2753 241.461 68.3472Z" stroke="#BE8D6A" stroke-width="0.902105"/>
                <path d="M245.672 67.0124V66.7014C245.672 65.4304 246.591 64.3456 247.845 64.1366C249.43 63.8725 250.872 65.0946 250.872 66.7015V67.0124C250.872 68.3373 249.877 69.4504 248.56 69.5967C247.019 69.7678 245.672 68.5621 245.672 67.0124Z" stroke="#BE8D6A" stroke-width="0.902105"/>
                <path d="M244.428 73.8935C244.428 72.6093 245.417 71.542 246.698 71.4451L249.441 71.2377C250.986 71.1207 252.305 72.3434 252.305 73.8935" stroke="#BE8D6A" stroke-width="0.902105"/>
                <path d="M196.332 51.3209L194.636 51.3784C194.586 51.4119 194.538 51.4431 194.488 51.4815C194.26 51.6396 194.032 51.8025 193.809 51.975C191.96 53.4125 190.285 55.0226 188.39 56.3738C188.019 56.6398 187.64 56.8962 187.247 57.1381C182.695 59.9485 177.477 61.3549 172.414 62.9338C169.942 63.6684 167.513 64.537 165.136 65.5357C163.166 66.3887 161.251 67.4117 159.668 68.8492L158.909 87.1467C162.811 86.2362 166.657 85.0934 170.485 83.905C175.887 82.2359 181.287 80.5532 186.684 78.8569C191.632 77.314 156.369 88.3835 158.327 104.555C160.32 103.58 206.467 100.917 208.062 99.3647C209.813 97.676 211.026 95.5867 211.984 93.3748C213.205 90.5147 213.097 58.0665 214.014 55.0944C214.51 53.5012 214.973 51.8959 215.392 50.2859C215.392 50.2739 215.392 50.2619 215.392 50.2476C209.062 50.7554 202.699 51.1028 196.332 51.3209Z" fill="#DBC5BA" fill-opacity="0.78"/>
                <path d="M214.118 114.537L212.427 137.386L209.223 137.698L209.997 127.254L201.99 128.035L201.216 138.478L198.016 138.792L199.707 115.943L202.91 115.632L202.161 125.75L210.168 124.969L210.918 114.851L214.118 114.537Z" fill="#44479C"/>
                <path d="M104.329 59.2123C95.6415 57.6953 87.0546 55.651 78.6158 53.0908L76.8117 52.5349C72.3777 51.1501 67.9893 49.6223 63.6463 47.9516C59.0397 46.185 54.4875 44.261 49.9896 42.1798C41.3462 38.1762 32.9724 33.6143 24.9214 28.5233C24.2075 28.0712 23.4943 27.6144 22.7819 27.1528C22.6669 27.0833 22.5543 27.009 22.4393 26.9324C19.2743 24.8791 16.1405 22.7276 13.1647 20.3724C9.73826 17.7106 6.59655 14.7013 3.78965 11.3926L0.478511 84.5224L-0.652344 109.555C3.07327 118.161 7.00016 121.271 13.9818 125.73C18.851 128.868 23.89 131.734 29.076 134.316C43.2788 141.336 62.192 147.717 93.0317 152.693C98.5165 153.58 99.4195 153.792 104.951 154.216L106.88 111.653L107.563 96.5981L109.221 60.0244C103.843 59.4902 109.657 60.1419 104.329 59.2123Z" fill="#FAE4D4"/>
                <path d="M59.5447 69.02L74.8805 74.4326M59.5447 78.0411L74.8805 83.4537M58.6426 87.9642L74.8805 94.2788" stroke="#BE8D6A" stroke-width="0.902105"/>
                <path d="M78.6292 53.5766C78.6292 53.4736 78.6292 53.3658 78.6292 53.2508C78.6292 53.1981 78.6292 53.143 78.6292 53.0902L76.8252 52.5344C72.3912 51.1496 66.5719 49.0634 62.2289 47.3926C62.2289 47.4405 62.2289 47.486 62.2289 47.5339C62.2848 49.1312 62.3424 50.7237 62.4015 52.3114C62.8207 63.4187 61.5008 73.6842 61.8652 86.7262C61.9965 91.4296 61.743 98.4056 62.4138 102.195C62.4191 102.219 69.588 103.504 69.6052 103.52C69.6225 103.536 69.6442 103.546 69.6674 103.549C69.6905 103.552 69.714 103.548 69.7348 103.538C69.7557 103.527 83.7721 105.028 83.7832 105.007C86.1 101.787 71.7698 90.55 72.8839 86.7262C74.1442 82.4375 75.323 78.101 76.3412 73.7548C77.3595 69.4086 78.1813 64.9188 78.5214 60.412C78.5838 59.5663 78.6317 58.7181 78.6605 57.87C78.7131 56.4397 78.6988 55.0069 78.6292 53.5766Z" fill="#DBC5BA" fill-opacity="0.78"/>
                <path d="M15.2679 91.3735C15.3863 90.7168 15.4725 90.0464 15.565 89.3822C15.5139 89.2108 15.4537 89.0421 15.3845 88.8772C15.0883 88.1915 14.5351 87.481 13.8006 87.3154C12.9753 88.3188 12.2107 89.3699 11.4665 90.3625C9.65936 92.7754 7.74776 95.2066 6.5763 98.0221C5.18998 101.363 5.44923 104.373 6.30302 107.825C6.75444 109.647 7.28756 111.449 7.72293 113.277L7.83615 113.75C9.29608 114.135 10.9099 113.653 12.2013 112.91C13.4984 112.136 14.6323 111.113 15.5389 109.899C15.0516 108.183 14.6796 106.43 14.3358 104.683C14.3954 104.561 14.455 104.438 14.5093 104.313C15.0436 103.157 15.3154 101.893 15.3049 100.615C15.287 99.9616 15.1627 99.3166 14.9369 98.7041C14.847 98.3883 14.6786 98.0996 14.4476 97.8678C14.2933 97.7379 14.0993 97.6666 13.8989 97.6657C13.6986 97.6639 13.5044 97.7334 13.3496 97.8615L13.3187 97.8922C13.4514 97.0126 13.6695 96.1484 13.9702 95.313C14.4056 94.0528 15.0645 92.4398 15.2679 91.3735Z" fill="#E5936F"/>
                <path d="M8.28926 110.463C7.29438 110.66 6.28902 110.801 5.27807 110.885C5.08889 110.893 4.9042 110.945 4.73803 111.036C4.57185 111.127 4.4286 111.254 4.31912 111.409C4.20963 111.563 4.1368 111.741 4.1062 111.928C4.0756 112.114 4.08805 112.306 4.14254 112.487C6.287 120.089 13.1355 145.122 17.7065 151.563C20.0253 154.811 24.4248 156.969 30.0677 157.388C31.6384 157.516 33.2158 157.236 34.6464 156.575C36.077 155.913 36.5811 136.502 37.5011 135.223C37.7417 134.893 29.4086 123.845 27.8176 120.938C26.1551 117.809 24.2731 114.803 22.1858 111.939C21.1025 110.475 19.9517 109.055 18.7282 107.692C18.3392 107.262 18.011 106.88 17.7084 106.562C14.864 108.484 11.66 109.811 8.28926 110.463Z" fill="#36593F"/>
                <path d="M16.2435 29.2378C21.392 32.4172 30.62 37.4205 38.6978 41.6996C42.9279 43.9404 46.8476 45.9852 49.7097 47.4699C51.1409 48.2121 52.3076 48.8145 53.1167 49.2312C53.5212 49.4396 53.8363 49.6016 54.0503 49.7115L54.1361 49.7555L54.2412 56.7783L54.2411 56.7849L54.2407 56.8227L54.2388 56.9721L54.2316 57.5559L54.204 59.7793C54.1802 61.699 54.1458 64.4511 54.1035 67.7805C54.0189 74.4394 53.903 83.4076 53.7777 92.6452C53.5375 110.349 53.2627 129.033 53.1073 134.353C52.7003 134.206 52.2714 134.052 51.822 133.89C47.3855 132.296 40.9747 129.992 34.3983 126.605C26.8661 122.724 19.1605 117.443 13.9883 110.225V94.2871L16.2432 36.4979L16.2435 36.4892V36.4804V29.2378Z" fill="#FAE4D4" stroke="#BE8D6A" stroke-width="0.902105"/>
                <path d="M10.6041 99.6265C11.0835 99.7483 11.5911 99.7285 12.062 99.5679C13.5229 99.0645 14.3043 97.6609 15.0387 96.4105C15.417 95.798 15.7264 95.1485 15.9616 94.4728C16.1603 93.8513 16.3449 93.1179 16.1507 92.481C16.1094 92.3069 16.0226 92.1454 15.8985 92.0137C15.7743 91.882 15.6171 91.7836 15.4416 91.7277C15.2663 91.6727 15.0786 91.6619 14.8967 91.697C14.7147 91.7322 14.5445 91.8116 14.4023 91.9289C14.0893 92.2031 13.8054 92.508 13.5552 92.8373C13.3116 93.1233 13.0727 93.4083 12.8362 93.6934C11.8654 94.8797 10.9933 96.1381 10.228 97.457C10.1682 97.549 10.1345 97.6545 10.1302 97.7628C10.1259 97.871 10.1512 97.9784 10.2036 98.0731C10.1635 98.1985 10.1266 98.3275 10.0947 98.4439C9.97343 98.9166 10.076 99.4488 10.6041 99.6265Z" fill="#E5936F"/>
                <path d="M9.58488 99.0767L12.6316 93.5621C12.6609 93.4972 12.6676 93.4196 12.6506 93.3456C12.6335 93.2716 12.5938 93.2058 12.5393 93.1607C12.4848 93.1165 12.4195 93.0966 12.3563 93.1056C12.2931 93.1147 12.2366 93.1517 12.198 93.2085L9.1599 98.7185C9.12769 98.7835 9.11867 98.862 9.13473 98.9378C9.15088 99.0135 9.19084 99.0812 9.24632 99.1263C9.30189 99.1723 9.36864 99.1912 9.43278 99.1804C9.49692 99.1705 9.55348 99.1299 9.59065 99.0695L9.58488 99.0767Z" fill="#512C26"/>
                <path d="M212.561 9.10546L211.363 9.42651C211.347 9.4324 211.33 9.4372 211.313 9.44088L210.518 9.65413L209.751 9.85539C209.144 10.0151 208.535 10.1748 207.925 10.3346C206.808 10.6236 205.683 10.9048 204.551 11.1779L202.707 11.6212C195.669 13.2935 188.582 14.731 181.446 15.9338C172.058 17.5151 162.615 18.6842 153.117 19.4413C143.549 20.208 133.961 20.5546 124.352 20.4812C123.11 20.4812 121.87 20.4524 120.629 20.4309C112.228 20.2711 103.843 19.7919 95.4715 18.9934C90.7472 18.5413 86.035 17.9823 81.3358 17.3162C79.9174 17.1197 78.5014 16.9113 77.0878 16.6908C76.7692 16.6454 74.7061 16.2482 74.7061 16.2482C74.7061 16.2482 74.3757 21.0274 74.299 22.2877C73.966 27.7071 73.022 39.5956 71.9558 52.4495C70.3674 71.6167 68.5201 92.9135 68.0625 98.1132C68.1607 98.1294 70.4393 98.9422 70.5374 98.9585C80.0252 100.615 89.5753 101.844 99.1873 102.646C108.709 103.445 118.251 103.825 127.814 103.788C137.324 103.755 146.818 103.309 156.296 102.451C165.889 101.582 175.432 100.292 184.924 98.5823C192.378 97.2382 200.771 95.6261 208.115 93.7641C208.222 92.5138 212.097 25.8049 212.739 13.9188C212.83 12.28 212.917 10.6412 213.002 9.00244L212.561 9.10546Z" fill="#FAE4D4"/>
                <path d="M98.5064 64.0618L116.172 64.83M116.172 64.83L114.307 63.5132M116.172 64.83L114.307 66.217M84.6099 56.0586L97.8632 56.9042M84.6099 59.9539L97.8632 60.6302M84.6099 63.5132L96.7428 64.0618M97.561 53.0089L84.8996 52.397C84.4121 52.3734 84.0318 51.9665 84.0412 51.4785L84.2368 41.3783C84.2469 40.8573 84.695 40.4532 85.2143 40.4969L97.6801 41.5437C98.1474 41.5829 98.5064 41.9737 98.5064 42.4426V52.1079C98.5064 52.6231 98.0752 53.0338 97.561 53.0089ZM82.1373 69.1988L99.7026 70.5174C100.226 70.5567 100.672 70.1427 100.672 69.6179V39.2359C100.672 38.7756 100.325 38.3891 99.8677 38.3391L82.731 36.4673C82.2022 36.4096 81.7384 36.8197 81.7311 37.3517L81.3028 68.2867C81.2962 68.7635 81.6618 69.1631 82.1373 69.1988Z" stroke="#BE8D6A" stroke-width="0.902105" stroke-linecap="round" stroke-linejoin="round"/>
                <path d="M152.544 42.7946L164.731 41.9319M152.544 46.0888L164.731 45.3791M152.544 49.7388L158.895 49.3386M152.544 53.8433L164.731 53.2534M152.544 57.3828L164.731 57.0074M152.544 60.9223L164.731 60.4933M168.769 53.2534V70.1516C168.769 70.6295 168.395 71.0245 167.918 71.0521L151.376 72.0088C150.858 72.0388 150.422 71.627 150.422 71.1082V40.3317C150.422 39.8605 150.785 39.4687 151.255 39.4323L167.796 38.1488C168.321 38.1081 168.769 38.5224 168.769 39.0482V53.2534ZM168.769 53.2534L181.439 52.4383M181.439 52.4383L180.115 51.4858M181.439 52.4383L180.115 53.6497" stroke="#BE8D6A" stroke-width="0.902105" stroke-linecap="round" stroke-linejoin="round"/>
                <path d="M193.247 38.7118L197.118 38.2446M193.247 41.794L197.118 41.2657M193.247 44.7244L197.118 44.1479M189.308 53.8646L184.835 54.3954M189.308 56.2874L184.835 56.9692M189.308 59.135L184.835 59.7366M197.118 52.6789V59.9612C197.118 60.4045 196.796 60.7822 196.358 60.852L192.722 61.4323C192.173 61.5197 191.677 61.0964 191.677 60.5415V53.4175C191.677 52.9884 191.979 52.6187 192.4 52.5334L196.036 51.7949C196.595 51.6813 197.118 52.1085 197.118 52.6789ZM190.032 39.7177V47.6694C190.032 48.1236 189.694 48.507 189.243 48.5643L185.154 49.0849C184.615 49.1535 184.137 48.7335 184.137 48.19V40.1638C184.137 39.7035 184.485 39.3169 184.942 39.267L189.032 38.8209C189.565 38.7627 190.032 39.1807 190.032 39.7177ZM182.878 69.7716L199.42 67.6588C199.87 67.6013 200.207 67.218 200.207 66.7639V35.5863C200.207 35.0416 199.728 34.6212 199.189 34.6918L182.646 36.8555C182.197 36.9144 181.861 37.297 181.861 37.7501V68.8767C181.861 69.4203 182.339 69.8404 182.878 69.7716Z" stroke="#BE8D6A" stroke-width="0.902105" stroke-linecap="round" stroke-linejoin="round"/>
                <path d="M132.147 69.4823V69.7704C132.147 70.283 131.72 70.6927 131.207 70.6716L119.709 70.1999C119.227 70.1801 118.844 69.7824 118.844 69.2986V68.5852C118.844 68.0706 119.274 67.6603 119.789 67.6841L131.286 68.2147C131.768 68.237 132.147 68.6338 132.147 69.1159V69.4823ZM132.147 69.4823L150.108 69.4092M150.108 69.4092L148.728 68.2544M150.108 69.4092L148.728 70.6486M132.147 44.1951V64.0402C132.147 64.5529 131.72 64.9625 131.207 64.9415L119.709 64.4698C119.227 64.4499 118.844 64.0523 118.844 63.5685V43.3696C118.844 42.8459 119.289 42.4323 119.811 42.4698L131.309 43.2953C131.781 43.3292 132.147 43.722 132.147 44.1951ZM117.227 72.0908L133.768 73.0196C134.285 73.0487 134.721 72.6371 134.721 72.119V41.5894C134.721 41.11 134.346 40.7145 133.867 40.6887L117.326 39.7967C116.809 39.769 116.375 40.1802 116.375 40.6976V71.1901C116.375 71.6687 116.748 72.0639 117.227 72.0908Z" stroke="#BE8D6A" stroke-width="0.902105" stroke-linecap="round" stroke-linejoin="round"/>
                <path d="M180.737 96.693C178.487 96.2771 176.292 96.4016 175.158 97.1323C170.841 100.03 164.681 112.895 167.132 113.8C168.689 114.375 172.935 115.45 174.347 114.178C174.573 113.954 174.761 113.694 174.906 113.41C175.803 111.823 177.234 107.6 179.008 106.884C182.099 107.148 185.533 106.167 187.202 103.461C189.319 100.016 184.944 97.4625 180.737 96.693Z" fill="#FFB98A"/>
                <path d="M177.749 100.093C176.506 100.569 175.434 101.405 174.669 102.494C174.62 102.559 174.597 102.64 174.608 102.722C174.618 102.803 174.66 102.877 174.724 102.927C174.788 102.978 174.87 103.001 174.951 102.992C175.032 102.983 175.106 102.943 175.158 102.879C175.706 102.165 176.372 101.55 177.127 101.06C177.338 100.896 177.58 100.775 177.838 100.704C178.096 100.633 178.365 100.614 178.631 100.648C179.052 100.599 179.253 100.843 179.23 101.372C179.156 101.666 179.067 101.957 178.964 102.242C178.383 103.844 177.426 105.283 176.175 106.44C175.884 106.705 176.252 107.211 176.556 106.961C177.482 106.109 178.264 105.114 178.871 104.013C179.254 103.272 180.208 101.623 179.843 100.728C179.517 99.8998 178.428 99.8782 177.749 100.093Z" fill="#D68663"/>
                <path d="M170.968 109.741C170.126 109.175 169.317 108.561 168.545 107.904C168.405 107.776 168.238 107.681 168.057 107.627C167.876 107.574 167.683 107.562 167.497 107.594C167.31 107.625 167.133 107.698 166.979 107.808C166.825 107.918 166.698 108.063 166.608 108.229C162.732 115.111 160.064 122.606 158.722 130.39C158.054 134.325 159.628 138.965 163.311 143.261C164.328 144.465 165.639 145.385 167.117 145.934C168.594 146.481 170.189 146.638 171.745 146.388C172.148 146.325 176.377 134.151 177.315 130.972C178.361 127.587 179.165 124.133 179.722 120.633C179.996 118.833 180.191 117.015 180.295 115.187C180.325 114.607 180.365 114.105 180.377 113.666C177.008 113.006 173.807 111.67 170.968 109.741Z" fill="#FFC157"/>
                <path d="M178.513 113.358C178.385 113.032 178.157 112.755 177.861 112.565C177.565 112.377 177.218 112.286 176.868 112.307C176.638 112.217 176.39 112.182 176.144 112.203C175.898 112.226 175.661 112.304 175.451 112.434C168.334 116.336 162.885 122.363 158.673 129.252C156.539 132.858 154.611 136.582 152.899 140.406C151.304 143.888 149.477 147.52 149.358 151.418C149.17 157.394 154.807 165.054 161.245 163.764C164.823 163.057 178.005 151.524 180.108 145.433C183.843 135.476 182.844 123.139 178.513 113.358Z" fill="#FFC157"/>
                <path d="M219.752 169.17C220.848 166.391 222.427 152.523 223.18 148.337C223.953 144.039 225.983 140.539 227.896 136.67C229.784 133.065 231.179 129.223 232.044 125.246C230.83 122.586 222.396 113.604 218.247 112.209C214.316 110.882 210.012 110.415 205.845 110.222C205.104 108.54 204.225 106.789 202.675 106.073C200.563 105.108 190.179 105.307 187.942 106.384C186.074 107.275 185.451 109.212 184.921 111.106C180.667 111.947 176.35 112.838 172.364 114.6C170.209 115.554 168.751 117.298 167.58 119.291C170.582 120.755 169.978 131.643 170.184 133.749C170.527 137.02 171.037 140.272 171.71 143.491C172.999 149.789 174.342 156.232 177.974 161.62C179.6 164.037 178.128 172.956 180.582 172.24C183.541 171.374 198.258 168.5 201.304 168.819C206.711 169.392 211.694 170.395 217.151 169.597C217.513 169.545 219.396 169.258 219.752 169.17Z" fill="#FFC157"/>
                <path d="M175.945 104.154C175.996 104.768 176.172 105.363 176.463 105.905C177.858 108.359 180.823 107.687 182.897 107.151C184.249 106.702 185.722 106.784 187.015 107.381C190.017 108.676 192.764 108.185 195.822 107.424C198.208 106.802 200.42 106.696 202.675 107.836C204.724 108.864 207.073 110.327 209.054 108.26C210.249 107.014 210.299 105.201 210.15 103.506C209.925 102.778 209.652 102.068 209.464 101.326C209.091 99.8872 209.215 98.4366 209.065 96.9662C209.029 96.2328 208.845 95.5138 208.524 94.8534C208.203 94.1931 207.752 93.604 207.197 93.1232C208.792 86.8937 207.197 80.9699 200.968 78.2353C200.887 78.1962 200.797 78.1789 200.706 78.1855C194.347 75.4696 185.725 77.2138 182.393 84.1405C181.502 86.0092 181.284 88.0212 180.997 90.0269C180.855 91.0421 179.751 91.6158 179.21 92.4502C178.564 93.3803 178.201 94.4764 178.164 95.6085C178.232 96.3022 178.232 97.0014 178.164 97.6951C177.939 98.7415 177.129 99.5633 176.7 100.498C176.196 101.651 175.94 102.897 175.945 104.154Z" fill="#66342A"/>
                <path d="M228.889 230.872C228.889 237.021 228.789 244.029 228.615 251.429V252.413C228.459 258.679 228.247 265.22 227.992 271.773V272.339C227.824 276.438 227.63 280.537 227.413 284.561C227.413 284.829 227.381 285.097 227.37 285.358C227.249 287.6 227.12 289.816 226.983 292.004C226.983 292.223 226.983 292.441 226.939 292.628C226.802 294.789 226.659 296.919 226.51 299L226.472 299.541C226.099 304.65 225.687 309.477 225.226 313.869C225.18 314.137 225.059 314.388 224.878 314.592C224.696 314.796 224.46 314.945 224.199 315.021C223.8 315.17 223.408 315.314 223.015 315.438C222.392 315.65 221.769 315.831 221.146 315.987C219.108 316.502 217.019 316.794 214.917 316.858C214.294 316.858 213.671 316.858 213.049 316.858C210.982 316.8 208.923 316.573 206.894 316.18C206.215 316.055 205.592 315.918 205.025 315.794L203.78 315.507C203.254 315.439 202.764 315.201 202.384 314.83C202.004 314.459 201.755 313.976 201.674 313.451C199.015 297.909 199.731 269.225 199.806 261.968C199.806 261.942 199.795 261.916 199.776 261.897C199.758 261.878 199.733 261.869 199.706 261.869C199.679 261.869 199.654 261.878 199.635 261.897C199.616 261.916 199.606 261.942 199.606 261.968C198.236 273.18 197.276 288.012 195.539 300.75C195.445 301.448 195.346 302.139 195.246 302.818C195.009 304.48 194.756 306.074 194.486 307.603L194.242 308.941C194.006 310.225 193.757 311.458 193.496 312.642C193.407 312.966 193.253 313.271 193.041 313.532C192.827 313.825 192.547 314.064 192.224 314.229C191.849 314.404 191.464 314.558 191.072 314.69C188.824 315.394 186.501 315.841 184.152 316.024L183.529 316.086H183.267C182.644 316.142 182.022 316.18 181.398 316.217C180.527 316.261 179.68 316.292 178.863 316.311H178.19H177.125C176.459 316.311 175.83 316.311 175.257 316.311C174.179 316.311 173.295 316.229 172.709 316.173C172.421 316.146 172.15 316.024 171.939 315.827C171.727 315.63 171.586 315.369 171.538 315.083C170.08 306.63 169.868 293.07 170.124 281.733C170.124 281.502 170.124 281.272 170.124 281.041C170.155 279.983 170.18 278.942 170.218 277.927L170.255 276.862C170.423 272.183 170.66 268.172 170.878 265.437C171.131 262.531 171.401 259.624 171.687 256.717C171.719 256.418 171.744 256.131 171.775 255.845C171.943 254.126 172.124 252.413 172.304 250.7C172.341 250.339 172.379 249.983 172.422 249.622C172.934 244.863 173.5 240.113 174.123 235.37C174.719 230.842 174.979 226.276 174.901 221.71C174.864 218.95 174.665 216.209 174.515 213.456L174.478 212.771C174.384 211.083 174.31 209.389 174.31 207.688C174.31 206.28 174.337 204.874 174.391 203.471C174.391 203.147 174.391 202.848 174.435 202.512C174.603 198.998 174.946 195.498 175.431 192.016C175.431 191.972 175.431 191.928 175.431 191.885L175.562 191.175C176.147 188.154 176.927 184.528 177.811 180.952C177.879 180.666 177.948 180.373 178.029 180.087C178.471 178.299 178.945 176.543 179.43 174.898C179.549 174.511 179.549 174.096 179.43 173.709C178.807 171.503 177.562 164.023 178.964 164.034H180.209L182.078 164.079C184.215 164.147 186.289 164.246 188.344 164.352L190.213 164.446C192.462 164.564 194.704 164.664 197.003 164.714C197.625 164.714 198.249 164.714 198.871 164.714C201.662 164.714 204.546 164.67 207.592 164.427C208.215 164.377 208.838 164.321 209.461 164.253C210.999 164.103 212.575 163.904 214.239 163.63L215.11 163.493C216.082 163.337 217.078 163.163 218.094 162.97L219.234 162.739C219.482 162.69 219.738 162.701 219.981 162.771C220.169 162.815 220.346 162.897 220.5 163.013C220.654 163.129 220.783 163.275 220.878 163.443C221.501 164.688 220.984 168.171 220.2 170.98C220.074 171.424 220.074 171.894 220.2 172.338C220.247 172.514 220.316 172.684 220.405 172.843L220.492 172.999C221.956 175.791 223.113 178.733 223.943 181.775C223.999 181.981 224.062 182.193 224.117 182.398C224.647 184.304 225.127 186.328 225.556 188.453C225.6 188.665 225.638 188.87 225.681 189.076C227.407 197.889 228.31 208.286 228.678 218.577L228.721 219.822C228.826 223.616 228.889 227.297 228.889 230.872Z" fill="#ED5500"/>
                <path d="M224.573 257.403C224.157 276.763 223.615 296.12 222.947 315.476C222.324 315.688 221.701 315.868 221.078 316.024C221.456 305.348 221.79 294.667 222.081 283.982C222.648 263.426 223.482 242.801 222.984 222.246C222.767 211.92 221.855 201.621 220.256 191.418C218.754 182.018 217.142 172.6 218.094 163.07L219.234 162.839C219.482 162.791 219.739 162.801 219.981 162.87C218.736 174.518 221.49 185.918 223.028 197.423C225.675 217.287 224.99 237.426 224.573 257.403Z" fill="#F79675"/>
                <path d="M230.806 175.053C229.81 172.556 228.272 170.312 226.302 168.482C226.451 167.516 224.845 167.155 224.433 168.196C223.865 169.655 223.153 171.055 222.309 172.375C218.983 170.139 217.544 171.59 218.229 172.711C219.27 174.406 219.662 176.305 220.503 178.087C221.473 180.04 222.593 181.915 223.854 183.694C224.477 184.622 224.477 184.846 225.38 184.241C225.855 183.842 226.289 183.395 226.676 182.909C228.089 181.376 230.9 178.897 231.204 176.68C231.13 176.125 230.996 175.58 230.806 175.053Z" fill="#FFB98A"/>
                <path d="M192.391 81.8041C192.448 81.5166 192.483 81.2251 192.496 80.9321C192.671 77.313 191.506 66.6052 185.214 69.6637C184.434 70.0917 183.717 70.6263 183.084 71.2521C180.679 73.4136 178.612 75.6124 178.917 79.0073C179.16 81.7294 180.574 84.9623 183.153 86.233C186.915 88.0768 191.612 85.8344 192.391 81.8041Z" fill="#66342A"/>
                <path d="M247.447 147.259C246.687 144.618 245.236 142.108 243.709 139.672C240.595 134.689 237.848 129.425 234.011 124.978C230.173 120.53 225.365 115.248 219.684 112.893C219.435 112.794 213.767 117.721 213.181 121.128C212.359 125.925 212.882 130.958 213.585 135.735C214.252 140.251 215.959 144.095 219.31 147.247C221.678 149.371 224.34 151.141 227.215 152.505C227.58 152.688 227.859 153.007 227.99 153.394C228.122 153.781 228.097 154.204 227.919 154.572C225.805 159.007 223.816 163.5 221.952 168.051C221.435 169.297 221.079 170.45 221.547 171.79C222.014 173.128 224.742 179.793 230.46 178.579C233.531 177.925 241.94 170.817 247.348 154.877C248.182 152.412 248.217 149.746 247.447 147.259Z" fill="#FFC157"/>
                <path d="M191.825 78.5776C191.875 80.7328 191.464 83.2182 190.056 84.9374C188.399 86.9682 185.821 86.6442 183.503 86.2394C183.111 86.1708 182.943 86.7688 183.342 86.8623C185.578 87.2547 188.194 87.6284 190.025 85.9465C191.857 84.2647 192.517 81.0879 192.448 78.6025C192.451 78.52 192.421 78.4394 192.365 78.3786C192.31 78.3179 192.232 78.2819 192.149 78.2786C192.067 78.2753 191.986 78.305 191.925 78.361C191.865 78.4171 191.829 78.495 191.825 78.5776Z" fill="#3B1A14"/>
                <path d="M188.462 74.8653C188.194 74.6156 187.879 74.4241 187.533 74.303C187.189 74.182 186.822 74.134 186.458 74.1621C186.093 74.1903 185.739 74.2939 185.417 74.4664C185.095 74.6389 184.813 74.8766 184.587 75.1643C182.45 77.6248 184.774 81.7919 188.013 80.459C188.38 80.3032 188.218 79.7053 187.851 79.8361C185.01 81.0071 183.148 77.1513 185.359 75.2764C188.231 72.8408 189.719 78.1791 189.626 80.1226C189.626 80.5212 190.249 80.5212 190.249 80.1226C190.33 78.3224 189.869 76.1485 188.462 74.8653Z" fill="#3B1A14"/>
                <path d="M200.239 94.7972C198.993 93.1346 197.554 91.6831 196.533 89.8142C195.455 87.8335 194.726 85.6822 194.378 83.4544C194.314 83.0618 193.711 83.2301 193.754 83.6225C194.369 87.3203 195.988 90.7783 198.432 93.6199C199.92 95.2563 201.086 97.1589 201.87 99.2265C202.518 101.238 203.005 103.298 203.328 105.387C203.403 105.779 204.001 105.617 203.951 105.225C203.279 101.581 202.537 97.8309 200.239 94.7972Z" fill="#3B1A14"/>
                <path d="M196.545 95.2841C196.42 94.9043 195.822 95.0658 195.921 95.4519C196.748 98.049 197.139 100.763 197.08 103.488C197.08 103.57 197.113 103.649 197.172 103.708C197.23 103.767 197.309 103.799 197.392 103.799C197.474 103.799 197.553 103.767 197.612 103.708C197.67 103.649 197.703 103.57 197.703 103.488C197.774 100.708 197.383 97.9354 196.545 95.2841Z" fill="#3B1A14"/>
                <path d="M206.777 316.221C206.098 316.097 205.475 315.96 204.908 315.835C204.908 305.653 204.908 295.479 204.908 285.313C204.865 264.757 204.491 244.12 201.17 223.807C199.601 214.14 196.991 204.622 196.125 194.848C195.235 184.826 196.063 174.766 196.929 164.774C197.551 164.774 198.175 164.774 198.797 164.774C197.788 176.498 196.879 188.307 198.617 200.006C200.099 209.972 202.603 219.795 203.943 229.818C205.251 239.629 205.954 249.508 206.329 259.4C207.088 278.33 206.82 297.285 206.777 316.221Z" fill="#F79675"/>
                <path d="M214.802 316.896C214.18 316.896 213.556 316.896 212.934 316.896C213.301 306.568 213.656 296.241 213.875 285.906C214.317 265.226 214.242 244.509 212.722 223.865C211.264 204.125 206.773 184.335 207.558 164.495C208.181 164.446 208.804 164.39 209.426 164.321C208.972 175.534 210.386 186.621 211.831 197.709C217.008 237.326 216.191 277.08 214.802 316.896Z" fill="#F79675"/>
                <path d="M181.028 225.328C181.221 235.588 179.888 245.772 178.798 255.95C176.653 276.016 176.049 296.215 176.991 316.372C176.325 316.372 175.696 316.372 175.123 316.372C174.608 305.388 174.546 294.402 174.936 283.415C175.316 273.236 176.138 263.089 177.253 252.967C178.368 242.844 179.465 232.622 179.072 222.357C178.698 212.39 178.069 202.704 179.122 192.776C180.132 183.239 181.614 173.652 180.156 164.121L182.025 164.165C183.514 174.505 181.719 184.796 180.741 195.124C179.795 205.208 180.841 215.2 181.028 225.328Z" fill="#F79675"/>
                <path d="M188.82 227.982C189.343 238.223 187.698 248.351 186.502 258.505C184.252 277.638 183.127 296.888 183.132 316.154C182.509 316.21 181.886 316.247 181.264 316.285C181.264 306.107 181.573 295.933 182.192 285.763C182.848 275.24 183.836 264.753 185.156 254.3C186.402 244.14 187.53 234.118 186.664 223.871C185.799 213.624 184.596 203.583 185.861 193.224C187.025 183.631 189.031 174.106 188.303 164.42L190.171 164.514C190.987 175.564 188.24 186.372 187.293 197.341C186.396 207.631 188.29 217.723 188.82 227.982Z" fill="#F79675"/>
                <path d="M108.259 268.982C106.828 261.175 106.398 251.301 105.577 243.408C104.755 235.514 104.636 227.76 104.252 219.926C103.869 212.568 103.173 205.198 101.286 198.072C101.313 198.043 101.333 198.007 101.345 197.968C101.358 197.929 101.363 197.888 101.359 197.848L101.068 193.722C101.139 193.708 101.205 193.672 101.255 193.62C101.306 193.566 101.339 193.5 101.351 193.428C101.363 193.356 101.352 193.282 101.319 193.216C101.288 193.151 101.237 193.096 101.173 193.06C97.7957 190.589 93.1805 191.947 89.6178 193.285C85.7218 194.652 82.2045 196.92 79.3535 199.907C76.4001 203.165 74.963 207.192 74.4862 211.516C73.8836 217.078 74.208 222.773 74.188 228.376C74.188 240.05 74.0228 251.732 74.1088 263.406C74.2016 275.79 78.1283 287.782 83.1082 299.001C85.4497 304.431 88.2476 309.652 91.4719 314.609C92.346 315.933 96.3397 322.701 97.617 322.887C98.0889 322.906 98.5534 322.771 98.9422 322.503L108.385 317.41C109.371 316.873 115.875 314.191 115.822 313.026C115.12 297.484 111.034 284.26 108.259 268.982Z" fill="#512C26"/>
                <path d="M87.6054 226.482C92.006 216.31 93.8869 205.227 93.0885 194.172C93.0849 194.103 93.0587 194.036 93.0145 193.981C92.9703 193.927 92.9108 193.887 92.844 193.868C89.718 187.531 85.0958 181.783 78.6591 178.597C75.4848 176.991 71.9639 176.19 68.4071 176.265C64.8502 176.339 61.3663 177.288 58.2627 179.028C57.8522 179.253 58.2628 179.915 58.6999 179.518C53.6936 197.98 52.2236 217.138 52.0183 236.203C51.7998 255.996 52.2564 275.935 53.2961 295.676C53.5942 301.418 55.3489 319.112 56.4151 327.463C56.4428 327.97 56.6465 328.451 56.991 328.825C57.3355 329.198 57.7991 329.44 58.3025 329.509C61.2228 329.747 64.5869 329.224 67.3219 328.966C68.8317 328.82 74.295 328.873 75.1427 327.178C75.9903 325.483 77.8311 298.557 79.6323 288.2C81.3673 278.187 83.493 247.5 83.5658 242.249C83.6519 236.514 85.4002 231.667 87.6054 226.482Z" fill="#512C26"/>
                <path d="M78.7564 117.382C77.1074 111.502 70.5185 110.886 65.4128 111.383C64.8151 112.015 64.2763 112.699 63.8035 113.429C57.8078 129.101 54.1251 145.561 52.8705 162.293C52.6255 165.605 51.7382 175.538 52.7183 184.981C52.7275 185.222 52.7866 185.459 52.8919 185.675C52.9972 185.893 53.1464 186.085 53.3301 186.241C53.5137 186.398 53.7276 186.514 53.9587 186.583C54.1896 186.652 54.4323 186.673 54.6716 186.643C60.0157 185.809 67.9159 183.908 71.8891 184.319H71.9224C72.5846 185.087 73.9818 185.14 74.1738 183.915C76.7632 167.592 75.3128 150.93 77.816 134.567C78.1935 132.104 78.4317 129.62 78.6237 127.137C78.8622 124.117 79.6172 120.442 78.7564 117.382Z" fill="#F9E4CC"/>
                <path d="M85.5186 52.033C86.39 52.6454 87.0905 53.4621 87.554 54.4061C87.5786 54.4562 87.6186 54.4977 87.6685 54.5247C87.7184 54.5516 87.7755 54.5626 87.8316 54.556C87.8878 54.5494 87.9402 54.5257 87.9813 54.4882C88.0224 54.4506 88.0499 54.4011 88.0603 54.3469C88.4317 52.9344 88.7604 51.5177 89.0613 50.1508C89.0963 49.1952 88.9257 48.2403 88.5603 47.3477C87.8738 45.8351 86.7435 45.1745 86.796 43.4146C86.7911 43.2479 86.8343 43.0841 86.9204 42.9415C86.9648 42.789 87.0499 42.651 87.167 42.5419C87.2841 42.4326 87.429 42.3559 87.5872 42.3194C87.7456 42.283 87.9115 42.2881 88.0682 42.3343C88.225 42.3804 88.367 42.4659 88.4801 42.5823C90.0255 44.1712 91.5983 45.8242 92.0908 48.0195C92.7927 48.4937 93.3808 49.113 93.8111 49.8327C95.0073 50.2294 96.0005 51.0693 96.5743 52.1691C96.6131 52.2435 96.632 52.3125 96.6636 52.385C97.2166 52.7981 97.6947 53.2995 98.0763 53.8677C99.4313 55.0931 99.4331 56.7889 98.9513 58.5358C98.5797 59.9483 97.9202 61.3136 97.4069 62.6816C97.3699 62.8216 97.3348 62.9548 97.2671 63.0724C97.1769 63.3491 97.157 63.6439 97.2094 63.9317C97.2608 64.2195 97.3835 64.4916 97.5657 64.7251C98.5301 65.9332 100.193 68.0232 100.321 68.7337C100.599 70.4596 93.1968 73.0649 91.6064 70.9512C89.4364 68.0584 88.0781 64.866 86.7426 61.587C85.598 58.8355 84.1988 55.8817 83.8051 52.9217C83.7915 52.7216 83.8368 52.5228 83.9357 52.3486C84.0347 52.1744 84.183 52.0322 84.3631 51.9387C84.5434 51.8453 84.748 51.8045 84.9527 51.8212C85.1575 51.8379 85.3538 51.9114 85.5186 52.033Z" fill="#E5936F"/>
                <path d="M93.6338 68.0868C93.0753 67.5018 92.424 67.0118 91.7069 66.6366C83.0983 62.1534 72.8409 67.9278 70.384 77.0465C69.5165 80.2781 67.894 88.9001 71.2978 91.397C72.9334 92.595 77.1387 91.4629 77.5558 91.3041C77.7942 95.4294 77.8736 98.5155 76.1519 102.462C76.0304 102.745 75.9832 103.053 76.0147 103.359C76.0463 103.665 76.1554 103.957 76.332 104.209C76.5086 104.46 76.7465 104.662 77.0233 104.796C77.3001 104.929 77.6067 104.99 77.9135 104.972C79.4763 105.86 81.1846 105.138 82.8998 104.508C85.3576 103.602 87.7362 102.495 90.0117 101.197C90.3266 101.031 90.5711 100.756 90.701 100.424C90.8309 100.093 90.8381 99.7261 90.7209 99.3896C90.9184 99.0938 91.0014 98.7356 90.9527 98.3829C90.5882 94.595 90.4096 90.8007 90.3898 86.9996C90.4412 86.9658 90.489 86.9281 90.535 86.887C93.4154 84.2382 95.7402 81.49 96.1443 77.3776C96.4618 74.0731 95.8656 70.4046 93.6338 68.0868Z" fill="#E5936F"/>
                <path d="M94.5495 99.7801C94.0325 98.2835 93.5229 96.7941 92.9996 95.3039C92.7876 94.7211 92.6559 94.0328 92.0596 93.7017C91.2315 93.2443 89.6492 93.5556 88.7486 93.6025C87.3227 93.6774 85.9012 93.81 84.484 93.9994C82.9014 94.2114 81.3252 94.5028 79.769 94.8672C78.7354 95.0197 77.7308 95.3282 76.7891 95.7811C75.7296 96.4432 74.968 97.6484 74.18 98.555C73.1403 99.7675 72.1005 100.973 71.0675 102.184C71.0368 102.216 71.014 102.255 71.0012 102.297C70.9342 102.322 70.8783 102.371 70.8434 102.433C70.8084 102.495 70.7967 102.569 70.8101 102.639C70.8235 102.709 70.8615 102.772 70.9171 102.817C70.9727 102.863 71.0424 102.887 71.114 102.886C73.3817 103.088 75.6582 103.175 77.9347 103.145C79.9322 103.011 81.9215 102.775 83.8946 102.436L90.3447 101.463C91.6023 101.27 93.7024 101.389 94.3907 100.138C94.4268 100.128 94.4601 100.11 94.489 100.086C94.5179 100.062 94.5404 100.032 94.5549 99.9975C94.5702 99.9632 94.5783 99.9253 94.5765 99.8884C94.5756 99.8505 94.5666 99.8135 94.5495 99.7801Z" fill="#36593F"/>
                <path d="M117.73 127.205C117.73 113.583 106.505 103.356 105.055 102.303C99.9218 98.5751 85.3865 98.0591 76.1618 100.317C71.6257 101.423 66.5203 102.509 62.6596 105.284C59.2161 107.754 57.5008 111.462 56.7592 115.548C54.8388 126.143 55.8122 169.75 57.2691 180.954C58.6597 191.682 61.6132 222.502 66.7587 222.912C70.0697 223.17 117.617 235.413 118.994 231.472C119.418 230.267 117.286 207.761 117.73 180.954C117.856 171.922 115.024 143.894 117.73 127.205Z" fill="#36593F"/>
                <path d="M95.6584 64.0493C99.2181 63.1762 107.577 74.2636 111.577 78.1237C114.993 81.5892 116.3 83.53 117.986 88.0831C123.732 102.904 118.933 131.408 116.926 155.529C116.877 155.662 112.051 125.671 108.864 122.702L103.896 118.059C102.374 116.631 100.334 115.253 99.1604 113.509C97.4383 110.995 99.6656 108.44 100.717 106.085C101.988 103.289 98.0589 96.123 98.5704 93.0937C98.6056 90.5023 97.4545 88.5116 95.6584 86.1797C90.9377 80.0591 88.9628 71.7529 89.0066 71.4686C89.7149 67.4943 91.6341 65.0595 95.6584 64.0493Z" fill="#36593F"/>
                <path d="M101.44 101.782C102.877 101.919 104.31 102.319 105.654 102.962C106.998 103.605 108.227 104.476 109.27 105.525C109.331 105.585 109.366 105.661 109.368 105.738C109.37 105.815 109.341 105.885 109.284 105.933C109.228 105.982 109.149 106.004 109.067 105.996C108.985 105.988 108.905 105.95 108.845 105.891C107.864 104.897 106.706 104.07 105.437 103.46C104.168 102.851 102.816 102.471 101.458 102.342C101.379 102.334 101.301 102.297 101.243 102.239C101.186 102.181 101.151 102.106 101.149 102.032C101.146 101.958 101.176 101.89 101.23 101.843C101.285 101.796 101.361 101.774 101.44 101.782Z" fill="#2C4532"/>
                <path d="M63.9476 107.946C63.819 107.619 63.5907 107.342 63.2951 107.154C62.9996 106.964 62.6519 106.874 62.3018 106.895C62.0719 106.804 61.8243 106.769 61.5785 106.792C61.3326 106.813 61.095 106.892 60.8848 107.022C53.7678 110.924 41.6596 119.713 32.0306 129.461C28.4978 133.038 25.0819 132.499 23.3694 136.323C21.7751 139.805 16.8133 143.154 16.6945 147.052C16.5069 153.027 24.8825 161.034 33.3858 161.034C44.66 161.034 63.4396 146.112 65.5427 140.02C69.2769 130.064 68.2788 117.726 63.9476 107.946Z" fill="#36593F"/>
                <path d="M103.514 62.9621C101.528 61.4191 98.4948 62.0483 96.6211 63.4257C95.2373 64.4933 94.1791 65.927 93.5684 67.5645C89.3763 64.1276 82.6614 63.2071 77.483 64.1011C75.6486 64.419 73.7019 65.0613 72.3576 66.4056C70.7749 67.9817 70.649 70.4385 70.4305 72.5509C70.28 73.8355 70.4479 75.1374 70.9191 76.3418C71.3902 77.5463 72.1502 78.6163 73.1323 79.4578C74.2449 80.3651 76.2316 81.0206 77.0461 82.1861C78.0924 83.6827 77.854 85.6892 78.483 87.3249C79.3307 89.5499 81.4034 90.927 83.4232 91.9608C83.8801 92.199 84.3833 91.7091 84.7475 91.4971C85.3714 91.075 86.0572 90.7529 86.7804 90.5432C87.3594 90.4079 87.9653 90.4442 88.5239 90.6477C89.0825 90.8512 89.5696 91.213 89.926 91.6893C90.4426 92.3045 91.6541 90.9865 91.8661 90.6558C95.6478 84.6959 99.2634 79.0407 97.0776 72.339C99.3888 72.339 101.879 71.8225 103.335 70.0345C104.792 68.2465 105.667 64.6375 103.514 62.9621Z" fill="#802C30"/>
                <path d="M93.1506 98.5627C86.9341 98.7079 80.7454 99.4441 74.6681 100.761C74.2576 100.854 74.4298 101.49 74.847 101.423C80.8643 100.113 86.9938 99.3836 93.1506 99.2447C93.561 99.2113 93.561 98.5492 93.1506 98.5627Z" fill="#2C4532"/>
                <path d="M95.8032 71.1731C95.5082 71.1545 95.2205 71.07 94.9625 70.926C94.7036 70.7822 94.4807 70.5823 94.3093 70.3411C94.1379 70.1 94.0225 69.8236 93.9719 69.5322C93.9214 69.2407 93.9359 68.9417 94.0152 68.6567C94.0378 68.5689 94.0252 68.4757 93.9792 68.3974C93.9331 68.3191 93.8583 68.2624 93.7708 68.2396C93.6824 68.2167 93.5895 68.2297 93.511 68.2757C93.4325 68.3216 93.3756 68.3967 93.3531 68.4846C93.2475 68.8678 93.2295 69.27 93.2999 69.6612C93.3711 70.0524 93.529 70.4227 93.7627 70.7445C93.9954 71.0664 94.2985 71.3315 94.6485 71.5204C94.9985 71.7093 95.3864 71.8169 95.7834 71.8354C96.2074 71.8618 96.2074 71.1997 95.8032 71.1731Z" fill="#692A2D"/>
                <path d="M92.012 73.1465L85.9461 77.1992C83.8271 78.6164 81.2775 81.0269 78.5493 80.1527C78.1387 80.0203 77.9665 80.6626 78.3704 80.815C80.8008 81.5897 82.761 80.1527 84.7012 78.8283L92.3431 73.716C92.694 73.4843 92.363 72.9081 92.012 73.1465Z" fill="#692A2D"/>
                <path d="M77.9997 77.7561C75.1323 77.7032 72.7483 85.3782 75.9468 86.0735C78.1188 86.5503 79.0525 84.1597 79.3836 82.5174C79.6088 81.3784 79.9664 77.7892 77.9997 77.7561Z" fill="#E5936F"/>
                <path d="M93.004 81.5099C92.2363 83.9999 91.2431 86.5031 88.8458 87.8275C88.475 88.0328 88.8061 88.6089 89.177 88.4037C91.7266 86.9931 92.8263 84.3376 93.64 81.6822C93.7663 81.2782 93.1501 81.0994 93.004 81.5099Z" fill="#692A2D"/>
                <path d="M93.5839 73.0534C93.1545 75.3795 92.0143 77.5151 90.3192 79.1656C90.0149 79.4636 90.4852 79.9337 90.7892 79.6358C92.561 77.9013 93.7599 75.6671 94.2262 73.2322C94.3056 72.815 93.6633 72.6362 93.5839 73.0534Z" fill="#692A2D"/>
            </g>
        </g>
    </g>
    <defs>
        <clipPath id="clip0_6616_60916">
            <rect width="287.772" height="225.526" fill="white" transform="translate(0.0078125 0.458984)"/>
        </clipPath>
    </defs>
</svg>
