<svg width="288" height="227" viewBox="0 0 288 227" fill="none" xmlns="http://www.w3.org/2000/svg">
    <path d="M143.893 221.859C203.68 221.859 252.146 173.392 252.146 113.606C252.146 53.8199 203.68 5.35352 143.893 5.35352C84.107 5.35352 35.6406 53.8199 35.6406 113.606C35.6406 173.392 84.107 221.859 143.893 221.859Z" fill="#F0F9FF"/>
    <path d="M227.148 110.965L199.338 187.19L179.396 216.043C233.723 197.426 253.556 144.538 251.977 111.6C247.296 111.399 242.245 111.254 237.927 111.157C231.793 111.018 227.148 110.965 227.148 110.965Z" fill="#A2D9FF"/>
    <path d="M213.777 110.781C213.572 110.714 213.394 110.742 213.262 110.821C212.918 110.635 212.462 110.702 212.35 111.191C211.477 114.978 209.495 118.308 208.213 121.949C207.234 124.739 206.56 128.083 208.206 130.759C208.523 131.274 209.151 132.477 209.765 132.655C210.307 132.821 211.292 132.371 211.814 132.22C213.387 131.757 214.9 131.096 216.308 130.257C219.104 128.592 221.509 126.193 222.904 123.225C225.93 116.808 218.879 112.499 213.777 110.781Z" fill="#391715"/>
    <path d="M251.096 113.146C249.187 111.296 246.874 110.39 244.587 109.141C242.168 107.826 240.45 105.691 239.789 103.101C239.782 102.744 239.802 102.374 239.842 101.997C240.06 99.9881 238.335 99.4198 237.899 97.7346C239.241 98.1776 244.865 99.6047 244.95 92.7451C245.05 84.6493 237.33 71.8946 231.152 81.2987C228.865 78.0076 225.825 76.6198 221.886 75.5623C215.271 73.778 215.681 79.1046 215.271 80.1422C214.861 81.1797 207.717 76.1835 204.466 83.7769C201.214 91.3703 207.961 97.0472 207.961 97.0472C207.961 97.0472 245.697 136.256 248.374 132.516C251.057 128.782 250.746 121.697 248.202 116.609C246.741 113.688 243.959 111.507 241.996 108.916C243.476 110.106 245.235 110.84 246.986 111.798C249.391 113.113 251.388 115.062 252.69 117.482C254.302 120.481 254.275 123.33 254.19 126.628C254.176 127.256 255.102 127.467 255.293 126.839C256.76 122.114 254.5 116.451 251.096 113.146Z" fill="#391715"/>
    <path d="M216.516 123.072L214.798 129.087L204.905 177.813L181.973 187.336C181.973 187.336 183.797 177.35 184.048 175.697C184.213 174.601 184.332 173.219 184.272 171.679C184.173 169.195 182.859 166.63 184.114 164.206C184.643 163.174 185.581 162.421 186.486 161.7C188.026 160.478 189.559 159.256 191.099 158.032C191.562 157.663 198.984 137.327 198.984 137.327C199.083 137.103 199.188 136.878 199.32 136.647C199.479 136.356 199.664 136.052 199.869 135.755C203.96 129.774 215.868 123.403 216.516 123.072Z" fill="#FFBF44"/>
    <path d="M269.253 171.765C269.458 171.355 269.617 170.926 269.683 170.469C269.788 169.71 269.611 168.943 269.399 168.21C268.864 166.32 268.13 164.488 267.218 162.757C266.424 161.257 270.483 169.333 270.265 167.654C270.026 165.797 273.391 165.616 273.431 163.745C271.433 160.081 268.989 155.871 267.218 153.148C264.872 149.553 262.229 146.018 260.127 142.277C258.455 139.31 256.749 136.204 254.139 133.911C247.207 127.804 236.646 122.088 236.282 121.73C236.282 121.73 236.632 120.276 235.906 119.556C235.304 118.961 234.921 118.585 234.756 118.062C234.643 117.693 234.631 117.243 234.742 116.582C234.756 116.496 234.776 116.403 234.789 116.305C235.271 113.786 232.231 113.423 232.231 113.423C225.709 113.476 221.01 115.326 221.01 115.326C221.01 115.326 216.106 115.763 216.483 117.931C216.741 119.404 217.137 118.69 215.974 120.079C215.102 121.122 214.897 122.418 215.789 123.304L214.923 124.804C213.132 127.903 210.985 131.095 210.284 134.584C209.299 139.501 206.464 143.771 204.442 148.284C203.576 150.214 202.836 152.309 203.106 154.41C203.331 156.148 204.237 157.734 204.594 159.446C205.037 161.581 204.62 163.814 203.834 165.85C203.047 167.886 201.904 169.756 200.847 171.659C198.679 175.565 193.371 189.209 191.891 193.418C192.948 192.711 198.215 192.711 202.12 192.711C205.816 192.711 213.303 194.032 216.673 195.784C222.859 198.996 222.873 202.729 226.507 204.514C230.148 206.298 236.281 202.624 236.281 202.624C236.281 202.624 247.517 196.123 246.738 189.607C245.965 183.092 246.374 160.438 246.738 160.794C247.227 161.271 247.676 162.175 248.039 162.757C248.614 163.695 249.11 164.674 249.533 165.685C250.386 167.707 250.927 169.855 251.139 172.036C251.152 172.201 251.172 172.379 251.264 172.518C251.357 172.663 251.509 172.756 251.654 172.842C249.883 165.222 252.018 168.229 254.192 171.196C255.686 173.232 257.556 175.268 258.765 177.488C259.386 178.632 259.268 180.653 260.563 181.328C263.173 182.676 268.242 173.781 269.253 171.765Z" fill="#FFBF44"/>
    <path d="M157.102 202.47C163.283 199.895 195.855 201.054 195.855 201.054L205.122 201.568C205.122 201.568 205.241 201.879 205.507 202.562C186.309 215.768 168.06 220.597 150.311 221.859C150.208 219.478 150.148 217.557 150.148 216.375C150.148 209.423 150.923 205.044 157.102 202.47Z" fill="#170935"/>
    <path d="M231.531 106.566C231.531 106.566 230.894 112.236 232.273 117.013C232.273 117.013 230.041 121.923 223.793 122.237C217.546 122.551 217.57 116.172 217.57 116.172L231.531 106.566Z" fill="#A14B28"/>
    <path d="M229.469 110.602C229.469 110.602 227.254 118.606 221.895 119.715C215.934 120.951 214.658 110.126 214.658 110.126L229.469 110.602Z" fill="#3A1714"/>
    <path d="M207.353 98.0905C207.624 100.258 206.929 115.696 217.22 117.606C222.54 118.591 231.018 112.795 231.567 104.713C231.567 104.713 236.715 101.514 233.272 96.2799C232.757 95.4933 231.964 94.8591 231.012 95.2948C229.697 95.8902 229.486 97.3706 228.566 98.3025C228.223 98.6525 227.628 98.9628 227.139 98.712C226.604 98.4342 226.545 97.6078 226.373 97.099C225.573 94.7734 223.986 92.1095 221.304 91.7992C219.493 91.5872 217.689 92.7175 215.891 92.3675C215.039 92.2024 214.279 91.7135 213.618 91.1515C213.023 90.6558 212.448 90.0742 211.702 89.8891C210.029 89.4728 208.536 91.2372 208.113 92.6715C207.597 94.3828 207.128 96.2862 207.353 98.0905Z" fill="#A14B28"/>
    <path d="M212.445 104.845C211.935 105.556 211.419 106.384 211.804 107.277C211.998 107.674 212.305 108.004 212.686 108.227C213.068 108.449 213.507 108.554 213.948 108.526C214.022 108.517 214.09 108.48 214.139 108.423C214.187 108.367 214.212 108.294 214.209 108.219C214.206 108.145 214.177 108.074 214.124 108.021C214.072 107.967 214.002 107.936 213.928 107.931C213.62 107.953 213.313 107.89 213.04 107.748C212.767 107.607 212.538 107.394 212.377 107.131C212.034 106.455 212.497 105.776 212.883 105.244C213.1 104.937 212.663 104.538 212.445 104.845Z" fill="#913C1D"/>
    <path d="M220.35 100.47C220.555 100.241 220.787 100.127 221.044 100.176C221.071 100.176 221.104 100.176 221.131 100.184C221.143 100.184 221.15 100.184 221.163 100.184C221.177 100.184 221.183 100.192 221.189 100.192C222.062 100.347 222.248 101.84 221.791 102.648C221.732 102.844 221.64 103.016 221.493 103.121C221.348 103.227 221.177 103.26 221.005 103.244C220.992 103.252 220.978 103.26 220.959 103.268C220.543 103.342 220.271 103.04 220.132 102.6C219.776 101.963 219.868 101.008 220.35 100.47Z" fill="#1A1A1A"/>
    <path d="M207.743 101.295C208.1 100.756 208.754 100.706 209.164 101.188C209.197 101.229 209.231 101.278 209.263 101.327C209.362 101.49 209.416 101.686 209.402 101.906C209.402 101.93 209.402 101.955 209.396 101.979C209.396 101.987 209.396 101.996 209.396 102.004C209.336 102.38 209.263 102.755 209.072 103.056C208.695 103.644 207.995 103.506 207.664 102.935C207.367 102.445 207.439 101.751 207.743 101.295Z" fill="#1A1A1A"/>
    <path d="M213.539 107.224C213.482 106.929 213.645 106.824 213.947 106.765C214.242 106.708 214.534 106.66 214.829 106.603C215.125 106.546 215.465 106.547 215.525 106.849C215.582 107.144 215.337 107.12 215.036 107.179C214.74 107.236 214.449 107.284 214.153 107.341C213.849 107.393 213.595 107.52 213.539 107.224Z" fill="#913C1D"/>
    <path d="M218.704 97.168C219.532 96.7638 220.221 96.7169 221.003 96.7638C223.31 96.8865 223.412 97.3394 223.412 97.3394C223.412 97.3394 224.084 98.5238 223.366 98.458C222.578 98.3858 221.748 97.9167 220.957 97.8824C220.173 97.8454 219.438 98.2893 218.658 98.2866C217.939 98.2893 218.311 97.3601 218.704 97.168Z" fill="#391715"/>
    <path d="M206.834 98.465C207.451 98.1303 208.039 98.1348 208.722 98.1727C209.433 98.2106 209.459 99.331 208.738 99.2958C208.285 99.2696 207.833 99.1993 207.42 99.4212C206.788 99.7559 206.198 98.8051 206.834 98.465Z" fill="#391715"/>
    <path d="M218.552 111.956C219.56 111.355 220.338 111.025 220.922 109.968C218.343 111.355 216.102 111.466 214.623 111.355C215.535 113.028 217.543 112.558 218.552 111.956Z" fill="white"/>
    <path d="M225.685 176.995C225.651 174.664 225.866 171.379 227.416 169.995C232.051 172.138 232.837 181.607 228.712 184.619C227.007 183.301 225.732 180.249 225.685 176.995Z" fill="#4A320F"/>
    <path d="M239.16 174.168C238.882 172.873 230.504 170.381 228.72 170.626C224.868 171.154 213.568 171.405 212.636 171.967C211.804 172.463 211.189 173.229 210.528 173.917C209.161 175.325 207.76 176.672 206.246 177.922C205.618 178.437 204.984 178.933 204.329 179.409C203.808 179.792 202.988 180.09 202.611 180.625C202.334 181.021 202.492 181.51 202.783 181.847C202.896 181.98 203.087 182.019 203.265 182.039C204.025 182.118 204.779 181.953 205.493 181.702C205.836 181.583 206.173 181.431 206.517 181.306C206.874 181.173 207.158 181.199 207.528 181.127C207.541 181.483 207.283 181.781 207.072 182.059C206.675 182.58 206.391 183.188 206.232 183.83C205.936 185.039 207.065 184.887 207.852 184.551C208.434 184.299 209.207 183.869 209.676 183.427C210.707 182.462 211.665 181.252 212.887 180.499C212.974 180.446 213.066 180.4 213.165 180.4C213.648 180.413 212.643 182.673 212.583 182.838C212.372 183.4 212.24 184.028 212.412 184.603C212.438 184.702 212.478 184.795 212.551 184.874C212.762 185.099 213.133 185.032 213.423 184.92C214.216 184.61 214.467 184.167 215.015 183.572C215.875 182.64 216.622 181.213 217.884 180.81C217.778 181.543 217.672 182.284 217.56 183.017C217.474 183.625 217.461 184.491 218.294 184.484C218.591 184.484 218.875 184.339 219.1 184.154C219.708 183.645 219.999 182.904 220.428 182.257C220.904 181.537 222.077 181.847 222.91 181.576C223.491 181.384 224.126 181.345 224.734 181.272C225.276 181.206 225.838 181.199 226.386 181.14C227.43 181.034 229.221 180.512 230.265 180.4C230.542 180.255 239.59 176.164 239.16 174.168Z" fill="#A14B28"/>
    <path d="M227.363 169.95C246.033 168.762 269.322 158.837 269.322 158.837C269.322 158.837 278.863 166.999 274.642 175.16C268.359 187.308 228.265 184.297 228.265 184.297C228.265 184.297 231.046 176.934 227.363 169.95Z" fill="#FFBF44"/>
    <path fill-rule="evenodd" clip-rule="evenodd" d="M251.336 164.001C251.112 163.702 250.688 163.641 250.388 163.865C248.696 165.132 247.265 165.636 246.299 165.975C246.287 165.98 246.273 165.984 246.26 165.989C245.909 166.113 245.723 166.499 245.847 166.852C245.971 167.204 246.358 167.389 246.71 167.265C246.725 167.26 246.739 167.255 246.755 167.25C247.752 166.899 249.34 166.339 251.2 164.948C251.499 164.724 251.559 164.3 251.336 164.001Z" fill="#D9981C"/>
    <path fill-rule="evenodd" clip-rule="evenodd" d="M244.17 155.462C243.851 155.656 243.75 156.072 243.945 156.392C244.455 157.229 244.768 157.909 245.071 158.568C245.088 158.607 245.106 158.645 245.123 158.683C245.443 159.38 245.769 160.07 246.312 160.844C246.527 161.149 246.949 161.223 247.255 161.009C247.561 160.794 247.634 160.372 247.419 160.066C246.952 159.4 246.669 158.807 246.353 158.117C246.335 158.078 246.316 158.038 246.298 157.997C245.994 157.337 245.653 156.593 245.1 155.686C244.906 155.368 244.489 155.267 244.17 155.462Z" fill="#D9981C"/>
    <path fill-rule="evenodd" clip-rule="evenodd" d="M208.075 141.705C207.755 141.512 207.34 141.615 207.147 141.936L207.727 142.285C207.147 141.936 207.147 141.936 207.147 141.936L207.145 141.94L207.139 141.95L207.115 141.989C207.095 142.022 207.066 142.072 207.029 142.135C206.955 142.262 206.85 142.445 206.722 142.675C206.465 143.134 206.116 143.779 205.746 144.521C205.013 145.99 204.172 147.9 203.831 149.522C203.467 151.259 203.472 153.532 203.559 155.328C203.602 156.235 203.668 157.037 203.722 157.612C203.75 157.9 203.775 158.132 203.793 158.292C203.802 158.372 203.809 158.434 203.813 158.477L203.817 158.501L203.818 167.752C203.819 168.125 204.121 168.429 204.495 168.429C204.869 168.429 205.172 168.125 205.171 167.752L205.17 158.418L205.165 158.375L205.164 158.373L205.163 158.362L205.158 158.318C205.153 158.278 205.146 158.219 205.138 158.142C205.121 157.988 205.096 157.764 205.07 157.484C205.017 156.924 204.953 156.144 204.91 155.262C204.825 153.482 204.829 151.356 205.156 149.8C205.458 148.357 206.233 146.578 206.956 145.124C207.314 144.406 207.654 143.781 207.903 143.336C208.027 143.114 208.129 142.937 208.199 142.816C208.235 142.756 208.262 142.709 208.28 142.678L208.3 142.644L208.306 142.635L208.307 142.633" fill="#D9981C"/>
    <path d="M187.026 167.271C187.231 166.948 187.568 166.697 187.926 166.558C188.421 166.366 188.963 166.346 189.492 166.359C191.408 166.399 193.516 166.941 194.547 168.553C194.884 169.076 195.076 169.67 195.327 170.232C196.18 172.136 197.746 173.55 199.51 174.6C199.953 174.864 200.409 175.11 200.878 175.334C201.281 175.532 201.79 175.671 202.147 175.949C202.847 176.497 202.643 177.389 201.883 177.72C201.691 177.805 201.486 177.858 201.275 177.892C200.66 177.991 200.032 177.918 199.437 177.747C199.034 177.634 198.109 177.026 197.752 177.158C197.805 177.6 198.267 178.149 198.505 178.552C199.127 179.609 199.59 180.687 200.053 181.817C200.442 182.776 200.944 184.13 200.442 185.135C199.775 186.483 198.73 184.936 198.36 184.104C197.746 182.729 196.794 181.189 195.459 180.416C195.056 180.978 195.783 182.484 195.968 183.132C196.338 184.474 196.715 185.829 196.794 187.216C196.874 188.545 195.974 189.344 194.732 188.723C194.018 188.366 193.979 187.943 193.106 188.287C192.254 188.624 191.276 190.395 190.258 189.735C189.425 189.193 189.577 186.999 189.484 186.152C189.313 184.593 189.134 183.033 188.949 181.48C188.949 177.277 187.799 172.875 186.921 168.798C186.841 168.422 186.762 168.032 186.848 167.655C186.894 167.516 186.954 167.39 187.026 167.271Z" fill="#A14B28"/>
    <path d="M232.305 81.2515C231.664 80.7426 230.891 81.7405 231.525 82.2494C233.58 83.9016 235.081 86.0957 235.893 88.6069C236.74 91.2111 236.501 93.6558 236.178 96.3125C236.105 96.9277 236.984 97.1785 237.229 96.6038C239.515 91.3031 236.568 84.6087 232.305 81.2515Z" fill="#BE2328"/>
    <path d="M120.309 132.05H180.598C181.304 132.05 181.939 132.483 182.204 133.146L202.872 184.98H138.849L118.704 134.459C118.245 133.307 119.082 132.05 120.309 132.05Z" fill="#2B244A"/>
    <path d="M186.205 182.04H226.598C227.567 182.04 228.353 182.85 228.353 183.849V184.98H186.205V182.04Z" fill="#2B244A"/>
    <path d="M198.21 182.766C195.67 176.283 193.13 169.799 190.59 163.316C187.912 156.478 185.233 149.64 182.553 142.803C181.871 141.059 181.188 139.316 180.505 137.571C180.177 136.736 179.849 135.9 179.522 135.064C179.125 134.051 178.557 133.233 177.576 132.747C177.148 132.536 177.522 131.88 177.949 132.091C178.719 132.473 179.38 133.111 179.81 133.873C180.191 134.55 180.424 135.345 180.708 136.071C181.325 137.646 181.943 139.221 182.559 140.797C183.871 144.143 185.182 147.489 186.493 150.836C189.236 157.839 191.98 164.843 194.724 171.847C196.123 175.419 197.523 178.992 198.923 182.564C199.1 183.019 198.386 183.215 198.21 182.766Z" fill="#8C75B5"/>
    <path d="M200.657 181.921C200.518 181.946 200.382 181.985 200.25 182.041C200.103 182.102 200.06 182.126 199.915 182.226C199.646 182.412 199.485 182.574 199.275 182.855C199.227 182.92 199.181 182.988 199.136 183.057C199.125 183.075 199.114 183.093 199.103 183.11C199.118 183.085 199.118 183.085 199.104 183.109C199.084 183.145 199.062 183.181 199.044 183.218C198.965 183.363 198.896 183.516 198.836 183.675C198.796 183.782 198.756 183.918 198.719 184.095C198.702 184.176 198.687 184.258 198.676 184.342C198.673 184.364 198.671 184.384 198.668 184.405C198.673 184.364 198.674 184.358 198.671 184.391C198.667 184.439 198.665 184.488 198.663 184.537C198.653 184.776 198.51 184.981 198.316 184.981C198.136 184.981 197.959 184.778 197.969 184.537C198.037 182.854 199.168 181.303 200.472 181.066C200.657 181.032 200.844 181.124 200.898 181.376C200.943 181.583 200.842 181.886 200.657 181.921Z" fill="#8C75B5"/>
    <path d="M154.983 153.428C157.702 153.428 160.69 155.769 161.643 158.647C162.107 160.047 162.013 161.335 161.381 162.275C160.805 163.131 159.823 163.603 158.615 163.603C155.895 163.603 152.907 161.262 151.956 158.384C151.492 156.985 151.584 155.696 152.217 154.757C152.794 153.901 153.775 153.428 154.983 153.428ZM158.615 164.397C160.073 164.397 161.274 163.807 161.994 162.734C162.76 161.596 162.892 160.011 162.353 158.384C161.302 155.214 157.997 152.634 154.983 152.634C153.525 152.634 152.325 153.225 151.604 154.298C150.838 155.436 150.706 157.021 151.245 158.647C152.295 161.818 155.601 164.397 158.615 164.397Z" fill="#8C75B5"/>
    <path d="M88.7975 172.908C88.7975 172.908 98.5229 85.022 101.106 83.0171C103.688 81.0192 162.281 80.1212 162.964 82.0704C163.646 84.0196 153.65 175.513 152.02 175.86C150.391 176.208 88.5261 176.501 88.5122 175.526C88.4983 174.552 88.7975 172.908 88.7975 172.908Z" fill="#4B3F7E"/>
    <path d="M101.779 84.6457C101.779 84.6457 96.5928 121.945 95.061 133.737C92.9446 150.04 90.0909 173.305 91.0448 173.514C93.725 174.099 148.712 173.953 148.712 173.953C148.712 173.953 161.34 83.7338 158.723 83.1213C154.789 82.2023 103.714 82.6548 101.779 84.6457Z" fill="#1A1A1A"/>
    <path d="M148.7 90.0767C148.923 90.0697 149.132 89.8818 149.167 89.6521C149.202 89.4154 149.048 89.2205 148.819 89.2205L119.191 89.2136C118.968 89.2065 118.753 89.4084 118.718 89.6451C118.683 89.8818 118.837 90.0767 119.066 90.0767L129.139 90.0837C129.139 90.0767 148.694 90.0767 148.7 90.0767Z" fill="#4D4D4D"/>
    <path d="M107.451 90.0625C107.674 90.0556 107.883 89.8676 107.917 89.6379C107.952 89.4012 107.799 89.2062 107.57 89.2062H105.6C105.377 89.1993 105.161 89.3942 105.126 89.6309C105.091 89.8676 105.244 90.0625 105.474 90.0625H107.445C107.445 90.0625 107.445 90.0625 107.451 90.0625Z" fill="#4D4D4D"/>
    <path d="M155.133 95.6948C155.356 95.6876 155.566 95.4999 155.6 95.2699C155.635 95.0336 155.482 94.8387 155.252 94.8387L134.138 94.817C133.915 94.8107 133.699 95.0056 133.665 95.2419C133.63 95.4792 133.783 95.674 134.013 95.674L155.126 95.6948C155.126 95.6948 155.126 95.6948 155.133 95.6948Z" fill="#4D4D4D"/>
    <path d="M130.036 95.672C130.259 95.6647 130.467 95.4771 130.503 95.2471C130.538 95.0107 130.384 94.8159 130.154 94.8159L116.42 94.8014C116.197 94.7951 115.981 94.99 115.946 95.2263C115.912 95.4627 116.064 95.6584 116.294 95.6584L130.029 95.672H130.036Z" fill="#90802D"/>
    <path d="M106.784 95.6442C107.007 95.6379 107.215 95.4493 107.25 95.2202C107.285 94.9829 107.132 94.7881 106.902 94.7881H104.842H104.834C104.612 94.7953 104.403 94.9829 104.368 95.213C104.334 95.4493 104.486 95.6442 104.716 95.6442H106.777C106.784 95.6442 106.784 95.6442 106.784 95.6442Z" fill="#4D4D4D"/>
    <path d="M139.121 101.264C139.344 101.258 139.553 101.069 139.588 100.84C139.623 100.603 139.47 100.408 139.239 100.408L115.258 100.38H115.251C115.028 100.387 114.819 100.575 114.784 100.805C114.749 101.042 114.902 101.237 115.133 101.237L139.121 101.264C139.114 101.264 139.114 101.264 139.121 101.264Z" fill="#4D4D4D"/>
    <path d="M106.158 101.23C106.381 101.222 106.59 101.035 106.624 100.805C106.66 100.568 106.506 100.373 106.276 100.373H104.404H104.397C104.174 100.38 103.965 100.568 103.931 100.797C103.896 101.035 104.049 101.23 104.279 101.23H106.152C106.152 101.23 106.152 101.23 106.158 101.23Z" fill="#4D4D4D"/>
    <path d="M116.678 106.826C116.901 106.819 117.11 106.632 117.144 106.402C117.18 106.165 117.026 105.97 116.797 105.97L109.675 105.963C109.452 105.956 109.237 106.151 109.202 106.388C109.167 106.624 109.32 106.819 109.55 106.819L116.672 106.826C116.678 106.826 116.678 106.826 116.678 106.826Z" fill="#A24747"/>
    <path d="M105.254 106.812C105.477 106.805 105.686 106.617 105.72 106.387C105.755 106.151 105.602 105.956 105.373 105.956H103.583C103.354 105.949 103.145 106.143 103.11 106.381C103.075 106.617 103.229 106.812 103.458 106.812H105.254Z" fill="#4D4D4D"/>
    <path d="M124.474 112.416C124.696 112.408 124.906 112.221 124.94 111.991C124.975 111.754 124.822 111.559 124.593 111.559L107.905 111.545C107.684 111.538 107.467 111.733 107.433 111.976C107.398 112.214 107.551 112.408 107.78 112.408L124.466 112.422C124.466 112.416 124.474 112.416 124.474 112.416Z" fill="#4D4D4D"/>
    <path d="M104.19 112.395C104.413 112.387 104.622 112.2 104.657 111.97C104.692 111.733 104.539 111.539 104.309 111.539H102.617C102.387 111.539 102.179 111.726 102.143 111.963C102.109 112.2 102.262 112.395 102.492 112.395H104.183C104.183 112.395 104.183 112.395 104.19 112.395Z" fill="#4D4D4D"/>
    <path d="M152.144 118.026C152.367 118.019 152.575 117.831 152.61 117.601C152.644 117.365 152.492 117.17 152.262 117.17L123.247 117.135C123.024 117.142 122.815 117.33 122.78 117.56C122.746 117.796 122.898 117.991 123.128 117.991L152.144 118.026Z" fill="#4D4D4D"/>
    <path d="M120.481 117.99C120.704 117.983 120.913 117.795 120.947 117.565C120.982 117.329 120.829 117.134 120.6 117.134L111.209 117.126H111.202C110.979 117.134 110.77 117.321 110.735 117.551C110.7 117.788 110.854 117.983 111.084 117.983L118.692 117.99C118.699 117.99 120.481 117.99 120.481 117.99Z" fill="#90802D"/>
    <path d="M103.44 117.976C103.663 117.969 103.872 117.781 103.907 117.551C103.942 117.315 103.789 117.12 103.559 117.12H101.867H101.86C101.637 117.127 101.429 117.315 101.393 117.545C101.359 117.781 101.512 117.976 101.742 117.976H103.433H103.44Z" fill="#4D4D4D"/>
    <path d="M151.401 123.61C151.624 123.602 151.834 123.414 151.868 123.185C151.903 122.948 151.75 122.753 151.52 122.753L128.889 122.732H128.881C128.659 122.739 128.45 122.927 128.415 123.157C128.381 123.393 128.534 123.588 128.763 123.588L151.394 123.61H151.401Z" fill="#4D4D4D"/>
    <path d="M123.257 123.582C123.48 123.575 123.688 123.387 123.723 123.157C123.758 122.921 123.605 122.726 123.375 122.726L110.469 122.712C110.246 122.705 110.03 122.9 109.995 123.136C109.961 123.374 110.114 123.569 110.343 123.569L123.257 123.582Z" fill="#4D4D4D"/>
    <path d="M102.515 123.561C102.738 123.555 102.947 123.366 102.981 123.137C103.017 122.9 102.863 122.705 102.633 122.705H101.123C100.887 122.705 100.685 122.9 100.65 123.13C100.614 123.366 100.768 123.561 100.998 123.561H102.509C102.509 123.561 102.509 123.561 102.515 123.561Z" fill="#4D4D4D"/>
    <path d="M113.58 129.158C113.803 129.151 114.011 128.963 114.046 128.733C114.081 128.496 113.928 128.301 113.698 128.301L105.672 128.295C105.449 128.287 105.234 128.482 105.198 128.719C105.163 128.956 105.317 129.151 105.547 129.151L113.573 129.158C113.58 129.158 113.58 129.158 113.58 129.158Z" fill="#A24747"/>
    <path d="M101.95 129.144C102.173 129.137 102.382 128.95 102.417 128.719C102.451 128.483 102.298 128.288 102.069 128.288H100.377C100.154 128.281 99.9386 128.476 99.9035 128.713C99.8683 128.95 100.022 129.144 100.252 129.144H101.95Z" fill="#4D4D4D"/>
    <path d="M142.498 134.963C142.721 134.956 142.929 134.768 142.964 134.538C142.998 134.302 142.845 134.107 142.616 134.107L112.988 134.1C112.765 134.093 112.55 134.287 112.515 134.525C112.48 134.761 112.634 134.956 112.863 134.956L122.936 134.963C122.936 134.963 142.491 134.963 142.498 134.963Z" fill="#4D4D4D"/>
    <path d="M101.246 134.949C101.468 134.941 101.678 134.754 101.713 134.524C101.747 134.287 101.594 134.092 101.365 134.092H99.3944C99.1716 134.085 98.956 134.28 98.9208 134.517C98.8865 134.754 99.039 134.949 99.269 134.949H101.246C101.239 134.949 101.239 134.949 101.246 134.949Z" fill="#4D4D4D"/>
    <path d="M148.921 140.581C149.144 140.575 149.353 140.386 149.388 140.157C149.422 139.92 149.269 139.725 149.04 139.725L127.926 139.704C127.703 139.697 127.487 139.892 127.452 140.129C127.417 140.366 127.57 140.56 127.8 140.56L148.921 140.581Z" fill="#4D4D4D"/>
    <path d="M123.839 140.56C124.062 140.553 124.27 140.365 124.306 140.135C124.34 139.899 124.186 139.703 123.957 139.703L110.223 139.69C110 139.682 109.784 139.877 109.749 140.115C109.714 140.351 109.867 140.546 110.097 140.546L123.832 140.56C123.832 140.56 123.832 140.56 123.839 140.56Z" fill="#90802D"/>
    <path d="M100.581 140.532C100.804 140.525 101.012 140.338 101.047 140.107C101.081 139.871 100.929 139.676 100.699 139.676H98.6386H98.6314C98.4085 139.683 98.2001 139.871 98.165 140.101C98.1307 140.338 98.2831 140.532 98.5132 140.532H100.574C100.581 140.532 100.581 140.532 100.581 140.532Z" fill="#4D4D4D"/>
    <path d="M132.912 146.15C133.135 146.143 133.343 145.955 133.378 145.725C133.414 145.489 133.26 145.294 133.03 145.294L109.049 145.266H109.042C108.819 145.273 108.61 145.461 108.575 145.691C108.541 145.927 108.693 146.122 108.923 146.122L132.905 146.15C132.912 146.15 132.912 146.15 132.912 146.15Z" fill="#4D4D4D"/>
    <path d="M99.9452 146.116C100.168 146.11 100.377 145.921 100.412 145.692C100.447 145.455 100.293 145.26 100.064 145.26H98.1915H98.1843C97.9615 145.267 97.7531 145.455 97.7179 145.685C97.6827 145.921 97.8361 146.116 98.0661 146.116H99.9452Z" fill="#4D4D4D"/>
    <path d="M110.473 151.712C110.696 151.705 110.905 151.517 110.939 151.288C110.975 151.05 110.821 150.856 110.592 150.856L103.47 150.849C103.247 150.842 103.031 151.037 102.997 151.273C102.962 151.511 103.115 151.705 103.345 151.705L110.467 151.712H110.473Z" fill="#A24747"/>
    <path d="M99.0508 151.699C99.2736 151.692 99.4829 151.504 99.5172 151.274C99.5523 151.038 99.399 150.843 99.1698 150.843H97.3801C97.1509 150.836 96.9416 151.031 96.9074 151.267C96.8722 151.504 97.0255 151.699 97.2547 151.699H99.0508C99.0444 151.699 99.0444 151.699 99.0508 151.699Z" fill="#4D4D4D"/>
    <path d="M118.277 157.302C118.5 157.296 118.708 157.108 118.743 156.878C118.778 156.641 118.625 156.446 118.395 156.446L101.709 156.433C101.486 156.426 101.27 156.62 101.235 156.857C101.201 157.094 101.354 157.289 101.583 157.289L118.27 157.302C118.27 157.302 118.27 157.302 118.277 157.302Z" fill="#4D4D4D"/>
    <path d="M145.941 162.913C146.163 162.907 146.372 162.718 146.407 162.489C146.441 162.252 146.288 162.057 146.059 162.057L117.043 162.023C116.821 162.029 116.612 162.218 116.577 162.447C116.543 162.684 116.695 162.879 116.925 162.879L145.941 162.913C145.933 162.913 145.933 162.913 145.941 162.913Z" fill="#4D4D4D"/>
    <path d="M114.276 162.878C114.499 162.871 114.708 162.683 114.742 162.453C114.777 162.217 114.624 162.021 114.394 162.021L105.004 162.015H104.997C104.774 162.021 104.565 162.21 104.53 162.439C104.495 162.676 104.649 162.871 104.879 162.871L112.487 162.878C112.494 162.878 114.276 162.878 114.276 162.878Z" fill="#4D4D4D"/>
    <path d="M145.194 168.495C145.417 168.489 145.627 168.301 145.661 168.072C145.696 167.834 145.543 167.639 145.314 167.639L122.682 167.619H122.675C122.452 167.626 122.243 167.814 122.208 168.044C122.174 168.28 122.327 168.475 122.556 168.475L145.188 168.495C145.188 168.495 145.188 168.495 145.194 168.495Z" fill="#4D4D4D"/>
    <path d="M176.017 192.198L170.529 192.165C170.529 192.359 170.466 203.203 170.408 218.703C171.81 218.327 174.871 217.475 175.896 217.078C175.93 208.418 175.971 200.016 176.017 192.198Z" fill="#A5D4F5"/>
    <path d="M251.179 210.029V184.171L62.1855 184.997C69.7927 194.855 86.8439 206.881 94.0995 210.029H251.179Z" fill="#A5D4F5"/>
    <path d="M164.218 190.292C164.21 189.518 162.692 189.518 162.684 190.292C162.667 192.223 162.288 202.198 162.774 204.096C162.906 204.618 163.987 204.618 164.127 204.096C164.614 202.198 164.235 192.223 164.218 190.292Z" fill="#64B5EE"/>
    <path d="M100.028 157.282C100.251 157.275 100.46 157.087 100.495 156.857C100.529 156.621 100.377 156.425 100.147 156.425H98.4552C98.2252 156.425 98.0168 156.613 97.9816 156.85C97.9464 157.087 98.0998 157.282 98.3298 157.282H100.028Z" fill="#4D4D4D"/>
    <path d="M99.2854 162.864C99.5082 162.857 99.7175 162.67 99.7518 162.44C99.7869 162.203 99.6336 162.008 99.4044 162.008H97.7121H97.7058C97.483 162.015 97.2737 162.203 97.2394 162.44C97.2042 162.676 97.3576 162.872 97.5876 162.872H99.2791C99.2791 162.864 99.2791 162.864 99.2854 162.864Z" fill="#4D4D4D"/>
    <path d="M119.102 168.469C119.325 168.462 119.534 168.274 119.568 168.044C119.603 167.808 119.45 167.612 119.221 167.612L106.315 167.599C106.092 167.592 105.876 167.786 105.841 168.024C105.806 168.26 105.959 168.455 106.189 168.455L119.102 168.469Z" fill="#4D4D4D"/>
    <path d="M98.3549 168.447C98.5778 168.44 98.7862 168.253 98.8213 168.023C98.8565 167.786 98.7032 167.591 98.4731 167.591H96.9621C96.7257 167.591 96.5237 167.786 96.4894 168.023C96.4542 168.26 96.6076 168.455 96.8376 168.455L98.3549 168.447Z" fill="#4D4D4D"/>
    <path d="M147.848 173.153L169.741 172.421C169.741 172.421 181.784 169.505 183.977 170.598C186.17 171.691 192.825 177.023 193.465 177.532C195.289 178.993 190.911 179.355 190.911 179.355L176.313 184.465C176.313 184.465 168.286 184.827 166.824 184.827C165.362 184.827 148.94 189.575 148.94 189.575L147.848 173.153Z" fill="#E5936F"/>
    <path d="M196.737 185.217C196.64 183.581 193.465 176.439 184.708 174.977C175.672 173.473 166.553 183.24 165 185.217H196.737Z" fill="#4A3F7E"/>
    <path d="M179.044 172.241C179.044 172.241 184.154 172.241 184.885 172.604C185.616 172.966 189.263 176.983 189.625 178.075C189.988 179.168 187.433 181.361 187.07 181.361C187.07 181.361 187.433 182.092 187.07 182.454C186.709 182.816 181.599 184.647 180.868 183.915C180.137 183.185 180.506 182.454 181.599 181.723C182.692 180.992 183.242 180.811 182.873 180.449C182.873 180.449 181.599 180.63 180.499 180.63C180.499 180.63 177.228 182.746 174.478 183.366C171.728 183.986 164.627 185.19 164.627 185.19L169.375 177.526L179.044 172.241Z" fill="#E5936F"/>
    <path d="M186.712 180.199C185.947 178.897 185.438 177.289 184.387 176.176C183.357 175.075 181.735 175.653 180.496 176.105C180.113 176.245 180.273 176.865 180.67 176.725C181.317 176.502 182.048 176.259 182.737 176.245C183.698 176.231 184.129 176.886 184.554 177.65C185.104 178.633 185.445 179.74 186.183 180.596C186.44 180.894 186.893 180.519 186.712 180.199Z" fill="#DA8260"/>
    <path d="M189.324 176.947C188.565 175.771 187.646 174.664 186.741 173.6C185.975 172.695 185.342 171.935 184.103 171.817C182.634 171.678 181.081 171.887 179.62 172.04C179.244 172.082 179.223 172.652 179.62 172.639C180.692 172.604 181.757 172.542 182.829 172.514C183.365 172.499 183.943 172.458 184.465 172.597C185.099 172.764 185.495 173.251 185.906 173.725C186.623 174.553 187.312 175.402 187.959 176.28C188.656 177.213 189.365 178.013 188.927 179.232C188.794 179.593 189.365 179.83 189.547 179.496C190.02 178.633 189.839 177.748 189.324 176.947Z" fill="#DA8260"/>
    <path d="M83.5399 86.825C83.5399 86.825 84.2886 88.5271 84.489 91.0995C84.6894 93.6723 83.9297 98.697 84.1681 99.7705C84.4064 100.844 86.421 104.876 86.5794 105.589C86.7378 106.303 83.8904 106.935 83.8904 106.935L75.02 117.504C75.02 117.504 73.1962 119.407 73.4751 122.332C73.7539 125.259 74.546 128.826 74.546 128.826L54.5992 123.165C54.5992 123.165 56.8144 119.684 55.7068 114.697C54.5993 109.709 53.2578 96.9217 53.2578 96.9217L73.2064 85.7607L83.5399 86.825Z" fill="#E5936F"/>
    <path d="M74.7449 94.382C74.7449 94.382 71.5387 91.7281 69.5984 94.7763C67.6581 97.8236 70.6244 102.77 72.3684 103.88C74.1124 104.991 68.1695 111.914 67.181 112.505C66.1925 113.095 56.6914 117.451 55.0707 115.194C53.4501 112.937 52.1437 102.01 49.7675 98.0518C47.3913 94.0943 47.5945 89.9348 51.9491 89.346C51.9491 89.346 51.8733 82.2605 58.0462 76.4046C64.2192 70.5488 65.7654 75.8103 65.7654 75.8103C65.7654 75.8103 72.0169 70.3078 78.0774 72.328C84.1311 74.3497 83.0628 77.9526 83.0628 77.9526C83.0628 77.9526 86.1919 76.8871 87.4944 81.0832C88.7968 85.2794 77.5154 90.0304 77.3175 94.1818C77.1211 98.3396 78.8726 103.371 80.4828 105.067C81.9451 106.61 83.8841 106.929 84.0425 107.642C84.2794 108.709 84.7139 119.081 81.4278 119.439C78.1417 119.798 71.6126 115.636 71.9309 113.697C72.2491 111.757 75.4514 107.681 76.0878 103.804C76.7243 99.9255 74.7449 94.382 74.7449 94.382Z" fill="#802C30"/>
    <path d="M84.2036 109.547C84.2036 109.547 84.4818 112.308 84.1283 112.387C83.775 112.465 82.2059 108.578 82.5593 108.5C82.9127 108.421 84.2036 109.547 84.2036 109.547Z" fill="white"/>
    <path d="M81.7978 98.9633C81.9405 99.1248 82.1294 99.2682 82.349 99.2619C82.6889 99.2511 82.8912 98.8776 82.9758 98.5529C83.0801 98.1226 83.0922 97.6634 83.016 97.2241C82.9866 97.0599 82.9423 96.8912 82.8426 96.764C82.6629 96.5321 82.3337 96.4627 82.0498 96.533C80.8409 96.8371 81.1478 98.2525 81.7978 98.9633Z" fill="#1A1A1A"/>
    <path d="M81.9505 92.5612C81.1093 93.2044 80.3955 94.0046 79.7883 94.867C79.3178 95.5418 80.3006 96.3717 80.79 95.6852C81.3444 94.9058 81.9886 94.2427 82.7045 93.6131C83.3254 93.0691 82.6263 92.0398 81.9505 92.5612Z" fill="#802C30"/>
    <path d="M69.2975 83.4424C67.2301 83.1779 65.629 84.8068 65.4132 86.7141C64.202 86.6933 63.0671 86.9787 61.9881 87.626C61.3059 88.0368 61.8769 89.074 62.5869 88.7121C63.7007 88.1412 64.7936 87.9393 66.0327 88.0925C66.3599 88.1343 66.7567 87.7863 66.7219 87.4451C66.5618 85.8788 67.6896 84.6744 69.2559 84.6675C70.0564 84.6606 70.0633 83.5398 69.2975 83.4424Z" fill="#391715"/>
    <path d="M137.619 195.414C137.619 195.414 146.745 197.607 149.3 193.59C152.732 188.203 151.848 179.355 150.024 174.976C148.2 170.597 144.184 169.504 140.535 169.867C138.496 170.069 137.256 170.611 136.561 171.056C136.003 171.405 135.795 171.691 135.795 171.691C135.614 171.704 135.426 171.725 135.231 171.738C131.019 172.059 123.021 172.059 123.021 172.059C120.14 167.388 112.656 162.71 109.647 160.829L109.516 160.747C106.599 158.923 103.314 154.544 100.028 150.166L100.027 150.165C96.7418 145.787 80.3199 135.937 79.5889 135.206C79.5611 135.178 79.5264 135.136 79.4916 135.088C79.2062 134.719 78.6771 133.792 77.9393 132.582C76.3589 130.005 73.8042 126.142 70.4697 123.525C65.3601 119.508 56.9646 117.323 56.6027 117.684C56.2407 118.053 52.5859 122.794 52.2239 123.525C51.94 124.087 43.2295 127.457 36.7363 130.478C41.1736 164.007 63.8108 190.726 81.5203 202.439C81.547 202.348 81.5738 202.258 81.6009 202.166C82.6938 198.519 81.9627 180.636 81.9627 180.636C82.3317 179.904 98.2032 194.322 109.154 197.969C120.104 201.617 137.619 195.414 137.619 195.414Z" fill="#ED5500"/>
    <path d="M78.5769 136.66C76.0012 138.018 73.5578 139.723 71.6922 141.993C69.8475 144.234 68.7128 146.942 68.2116 149.79C67.0699 156.263 69.0887 162.661 71.1492 168.724C71.2814 169.114 71.894 168.947 71.7617 168.557C69.7986 162.702 67.8216 156.521 68.8311 150.277C69.2905 147.443 70.3626 144.729 72.1934 142.494C74.0173 140.273 76.4188 138.623 78.911 137.238C79.3009 137.029 78.9598 136.458 78.5769 136.66Z" fill="#C14600"/>
    <path d="M79.2781 136.66C76.7024 138.018 74.259 139.723 72.3934 141.993C70.5486 144.234 69.4139 146.942 68.9127 149.79C67.7711 156.263 69.7898 162.661 71.8504 168.724C71.9827 169.114 72.5952 168.947 72.4628 168.557C70.4998 162.702 68.5228 156.521 69.5322 150.277C69.9916 147.443 71.0638 144.729 72.8946 142.494C74.7185 140.273 77.1201 138.623 79.6122 137.238C80.002 137.029 79.6609 136.458 79.2781 136.66Z" fill="#C14600"/>
    <path d="M65.3415 127.055C61.9653 125.815 58.4917 124.861 54.9692 124.137C54.5655 124.054 54.3985 124.667 54.8022 124.751C58.3246 125.502 61.7704 126.504 65.1675 127.701C65.5713 127.847 65.7453 127.201 65.3415 127.055Z" fill="#C14600"/>
    <path fill-rule="evenodd" clip-rule="evenodd" d="M54.2777 124.297C54.3531 124.021 54.6326 123.741 55.0368 123.825C55.0367 123.825 55.0369 123.825 55.0368 123.825C58.5728 124.551 62.0618 125.509 65.4547 126.754C65.4542 126.754 65.4539 126.754 65.4534 126.754L65.3446 127.055L65.4547 126.754C65.8492 126.899 65.9443 127.291 65.869 127.571C65.8307 127.713 65.743 127.859 65.5962 127.952C65.4401 128.052 65.2497 128.07 65.0633 128.003C65.0636 128.003 65.064 128.003 65.0644 128.003L65.1706 127.702L65.0618 128.002C65.0624 128.003 65.0628 128.003 65.0633 128.003C61.6779 126.809 58.2461 125.812 54.7394 125.063C54.7398 125.063 54.7401 125.063 54.7406 125.063L54.8052 124.751L54.7394 125.063C54.7391 125.063 54.7397 125.063 54.7394 125.063C54.551 125.024 54.4017 124.913 54.3199 124.753C54.2427 124.603 54.2397 124.437 54.2777 124.297ZM55.4898 124.572C58.7992 125.278 62.0609 126.19 65.2346 127.354L65.2358 127.355C65.2415 127.357 65.245 127.359 65.2468 127.36C65.2486 127.361 65.2495 127.361 65.2497 127.362C65.2499 127.362 65.2504 127.362 65.2513 127.365C65.2534 127.37 65.2555 127.379 65.2541 127.393C62.0519 126.264 58.8048 125.309 55.4898 124.572Z" fill="#C14600"/>
    <path d="M140.863 190.98C140.634 191.823 139.381 191.467 139.562 190.626C141.01 184.012 140.849 176.229 135.238 171.739C135.433 171.726 135.622 171.704 135.802 171.69C135.802 171.69 136.011 171.405 136.568 171.057C142.158 175.839 142.701 184.123 140.863 190.98Z" fill="#C14600"/>
    <path d="M46.9805 162.35C50.4791 162.092 54.7474 160.92 61.5331 180.267C62.2093 182.193 62.8196 184.235 63.3708 186.361C57.9219 180.794 50.7577 170.181 46.9805 162.35Z" fill="#A2D9FF"/>
    <path d="M247.365 112.159L242.375 109.278L251.475 113.508C254.879 116.812 257.139 122.476 255.672 127.201C255.48 127.829 254.555 127.618 254.568 126.99C254.654 123.692 254.681 120.844 253.068 117.843C252.034 116.255 249.446 112.893 247.365 112.159Z" fill="#391715"/>
</svg>
