<svg width="45" height="45" viewBox="0 0 45 45" fill="none" xmlns="http://www.w3.org/2000/svg">
    <g clip-path="url(#clip0_6616_62413)">
        <mask id="mask0_6616_62413" style="mask-type:luminance" maskUnits="userSpaceOnUse" x="0" y="1" width="44" height="44">
            <path d="M43.54 1.21289H0.490234V44.2626H43.54V1.21289Z" fill="white"/>
        </mask>
        <g mask="url(#mask0_6616_62413)">
            <path d="M27.3963 16.0112V5.24881C27.3975 4.71848 27.2939 4.19313 27.0915 3.70294C26.8891 3.21274 26.5919 2.76736 26.2169 2.39235C25.8419 2.01735 25.3965 1.72011 24.9063 1.51771C24.4161 1.3153 23.8907 1.21172 23.3604 1.2129H4.52616C3.99582 1.21172 3.47047 1.3153 2.98028 1.51771C2.49009 1.72011 2.0447 2.01735 1.6697 2.39235C1.29469 2.76736 0.997456 3.21274 0.795051 3.70294C0.592647 4.19313 0.489062 4.71848 0.490244 5.24881V16.0112C0.489065 16.5401 0.592058 17.0639 0.793342 17.553C0.994627 18.042 1.29026 18.4866 1.66336 18.8614C2.03647 19.2361 2.47973 19.5337 2.96786 19.7372C3.45598 19.9407 3.97939 20.046 4.50822 20.0472H23.3425C23.8743 20.0507 24.4016 19.9489 24.8939 19.7475C25.3861 19.5462 25.8336 19.2493 26.2105 18.8741C26.5875 18.4988 26.8863 18.0527 27.0898 17.5613C27.2933 17.0699 27.3975 16.5431 27.3963 16.0112Z" fill="#FDE0B4"/>
            <path d="M7.78268 5.49912C7.83955 5.4979 7.89607 5.5082 7.94886 5.5294C8.00164 5.5506 8.04959 5.58226 8.08981 5.62249C8.13003 5.66271 8.1617 5.71065 8.1829 5.76344C8.2041 5.81622 8.2144 5.87275 8.21317 5.92962V6.64711C8.20416 6.75496 8.15485 6.85545 8.07507 6.92858C7.99529 7.00171 7.8909 7.04211 7.78268 7.04174C7.66992 7.03731 7.56297 6.99053 7.48318 6.91074C7.40338 6.83094 7.35661 6.724 7.35218 6.61124V5.89374C7.36315 5.78666 7.41305 5.68732 7.4924 5.61458C7.57175 5.54184 7.67504 5.50076 7.78268 5.49912ZM7.67505 14.2615C7.73192 14.2603 7.78845 14.2706 7.84123 14.2918C7.89402 14.313 7.94196 14.3447 7.98218 14.3849C8.02241 14.4251 8.05407 14.4731 8.07527 14.5259C8.09647 14.5786 8.10677 14.6352 8.10555 14.692V15.275C8.10674 15.3304 8.09701 15.3854 8.07692 15.437C8.05683 15.4886 8.02677 15.5357 7.98846 15.5757C7.95015 15.6157 7.90433 15.6477 7.85363 15.67C7.80294 15.6923 7.74835 15.7043 7.69299 15.7055C7.63612 15.7067 7.57959 15.6964 7.52681 15.6752C7.47403 15.654 7.42608 15.6223 7.38586 15.5821C7.34564 15.5419 7.31397 15.494 7.29277 15.4412C7.27157 15.3884 7.26127 15.3319 7.26249 15.275V14.692C7.26654 14.5822 7.3108 14.4776 7.38686 14.3983C7.46292 14.3189 7.56547 14.2703 7.67505 14.2615ZM8.57192 12.4678C8.57082 12.2985 8.52768 12.132 8.44636 11.9835C8.3679 11.8377 8.25372 11.7143 8.11452 11.6247C7.93817 11.5023 7.74865 11.4 7.54949 11.3198C7.11715 11.1567 6.69747 10.9618 6.29387 10.7368C5.95268 10.555 5.66041 10.2934 5.44185 9.9745C5.22595 9.63502 5.1195 9.23742 5.13691 8.83547C5.1246 8.42599 5.23722 8.02245 5.45979 7.67851C5.68316 7.34695 5.99344 7.08322 6.35666 6.91617C6.77977 6.72839 7.23917 6.63651 7.70196 6.64711C8.06171 6.64522 8.4193 6.70279 8.76027 6.81752C9.06679 6.92669 9.34762 7.09763 9.58538 7.31977C9.89341 7.5793 10.1206 7.92166 10.2401 8.30632C10.2612 8.39471 10.2645 8.48643 10.2497 8.5761C10.2349 8.66576 10.2023 8.75156 10.1538 8.82844C10.1053 8.90532 10.042 8.97173 9.96746 9.02377C9.89295 9.0758 9.80878 9.11241 9.71991 9.13144C9.64879 9.1448 9.57579 9.1448 9.50467 9.13144H9.15489C9.00717 9.12014 8.86732 9.06038 8.75705 8.96146C8.64677 8.86254 8.57224 8.72997 8.54502 8.58435C8.50679 8.44348 8.43958 8.31213 8.34771 8.1987C8.27346 8.09779 8.17467 8.01753 8.06071 7.96551C7.93768 7.9346 7.81019 7.92549 7.68402 7.93861C7.51354 7.92991 7.3445 7.97374 7.19971 8.06417C7.07363 8.13778 6.97577 8.25143 6.92168 8.38704C6.86104 8.52869 6.8305 8.6814 6.832 8.83547C6.83055 8.99245 6.86107 9.14807 6.92168 9.29288C7.00311 9.43405 7.11683 9.55392 7.25352 9.64266C7.45103 9.77423 7.66137 9.88541 7.88133 9.9745C8.31112 10.1438 8.72781 10.3447 9.12798 10.5754C9.48428 10.7531 9.79207 11.0147 10.0249 11.3377C10.2408 11.6871 10.347 12.0933 10.3298 12.5037C10.3453 12.9119 10.236 13.3151 10.0165 13.6597C9.79698 14.0042 9.47764 14.2736 9.10107 14.4319C8.66953 14.612 8.20534 14.7005 7.73783 14.692C7.37008 14.6925 7.00431 14.6381 6.65262 14.5306C6.33008 14.4426 6.02619 14.2967 5.75575 14.1001C5.47637 13.8932 5.24659 13.6266 5.0831 13.3198C5.02214 13.1965 4.97405 13.0673 4.9396 12.9342C4.9213 12.8429 4.92117 12.7489 4.93922 12.6576C4.95727 12.5662 4.99314 12.4793 5.04478 12.4019C5.09642 12.3244 5.16282 12.2579 5.24019 12.2061C5.31755 12.1543 5.40436 12.1183 5.49566 12.1001C5.56112 12.0911 5.62751 12.0911 5.69297 12.1001H5.89925C6.06901 12.1235 6.22849 12.1951 6.35882 12.3064C6.48916 12.4176 6.58489 12.5639 6.63468 12.7279C6.68456 12.8781 6.77083 13.0137 6.88581 13.1225C6.9919 13.2193 7.1172 13.2926 7.25352 13.3378C7.38977 13.3811 7.53209 13.4023 7.67505 13.4005C7.84959 13.4192 8.02596 13.3913 8.18627 13.3198C8.31083 13.2251 8.40194 13.0932 8.44636 12.9431C8.52601 12.8031 8.57206 12.6466 8.58089 12.4857L8.57192 12.4678Z" fill="#444444"/>
            <path d="M14.1496 5.49912C14.2064 5.4979 14.263 5.5082 14.3158 5.5294C14.3685 5.5506 14.4165 5.58226 14.4567 5.62249C14.4969 5.66271 14.5286 5.71065 14.5498 5.76344C14.571 5.81622 14.5813 5.87275 14.5801 5.92962V6.64711C14.5813 6.70398 14.571 6.76051 14.5498 6.81329C14.5286 6.86608 14.4969 6.91402 14.4567 6.95425C14.4165 6.99447 14.3685 7.02613 14.3158 7.04733C14.263 7.06853 14.2064 7.07883 14.1496 7.07761C14.0368 7.07318 13.9299 7.02641 13.8501 6.94661C13.7703 6.86682 13.7235 6.75987 13.7191 6.64711V5.92962C13.7235 5.81686 13.7703 5.70991 13.8501 5.63012C13.9299 5.55032 14.0368 5.50355 14.1496 5.49912ZM14.042 14.2615C14.1547 14.266 14.2617 14.3127 14.3415 14.3925C14.4212 14.4723 14.468 14.5793 14.4725 14.692V15.275C14.4725 15.3939 14.4252 15.508 14.3411 15.5921C14.257 15.6762 14.1429 15.7234 14.024 15.7234C13.9051 15.7234 13.791 15.6762 13.7069 15.5921C13.6228 15.508 13.5756 15.3939 13.5756 15.275V14.692C13.5767 14.6343 13.5893 14.5774 13.6124 14.5245C13.6356 14.4716 13.669 14.4239 13.7106 14.3839C13.7523 14.3439 13.8014 14.3125 13.8551 14.2915C13.9089 14.2705 13.9663 14.2603 14.024 14.2615H14.042ZM14.9388 12.4678C14.9418 12.2953 14.9082 12.1241 14.8402 11.9655C14.7591 11.8217 14.6454 11.6989 14.5083 11.6068C14.3205 11.4823 14.1188 11.3799 13.9074 11.3019C13.4745 11.1333 13.0522 10.9387 12.6428 10.7189C12.3043 10.5367 12.015 10.2751 11.7998 9.95656C11.596 9.61885 11.4933 9.22978 11.5038 8.83547C11.4915 8.42599 11.6041 8.02245 11.8267 7.67851C12.0476 7.34471 12.3585 7.08038 12.7236 6.91617C13.1467 6.72839 13.6061 6.63651 14.0689 6.64711C14.4286 6.64522 14.7862 6.70279 15.1272 6.81752C15.432 6.92467 15.7103 7.09594 15.9433 7.31977C16.1838 7.53552 16.3684 7.80633 16.4814 8.10901C16.5094 8.18239 16.5334 8.25724 16.5532 8.33323C16.5743 8.42161 16.5776 8.51334 16.5628 8.603C16.5479 8.69267 16.5153 8.77847 16.4669 8.85535C16.4184 8.93223 16.3551 8.99864 16.2805 9.05067C16.206 9.10271 16.1219 9.13932 16.033 9.15835C15.9619 9.17171 15.8889 9.17171 15.8178 9.15835H15.5128C15.365 9.14464 15.2253 9.08424 15.114 8.98589C15.0028 8.88753 14.9257 8.75632 14.894 8.61126C14.8669 8.46879 14.8087 8.33405 14.7236 8.21663C14.644 8.11735 14.5428 8.03758 14.4276 7.98345C14.3067 7.94181 14.1782 7.92652 14.0509 7.93861C13.8804 7.92991 13.7114 7.97374 13.5666 8.06417C13.4359 8.13213 13.3364 8.24773 13.2886 8.38704C13.2279 8.52869 13.1974 8.6814 13.1989 8.83547C13.1922 8.99289 13.2229 9.14966 13.2886 9.29288C13.37 9.43405 13.4837 9.55392 13.6204 9.64266C13.8169 9.77073 14.0239 9.88175 14.2393 9.9745C14.672 10.1438 15.0916 10.3446 15.4949 10.5754C15.8334 10.7576 16.1227 11.0192 16.3379 11.3377C16.5607 11.6845 16.6704 12.0919 16.6518 12.5037C16.6674 12.9119 16.5581 13.3151 16.3386 13.6597C16.119 14.0042 15.7997 14.2736 15.4231 14.4319C14.9916 14.612 14.5274 14.7005 14.0599 14.692C13.7147 14.692 13.3709 14.6468 13.0375 14.5575C12.7149 14.4695 12.411 14.3236 12.1406 14.127C11.8616 13.9172 11.637 13.6435 11.4859 13.3288C11.4249 13.2055 11.3768 13.0763 11.3424 12.9431C11.3078 12.759 11.3467 12.5687 11.4506 12.4129C11.5545 12.257 11.7152 12.148 11.8984 12.109H12.302C12.4718 12.1325 12.6313 12.2041 12.7616 12.3154C12.8919 12.4266 12.9877 12.5729 13.0375 12.7369C13.0873 12.8871 13.1736 13.0227 13.2886 13.1315C13.3947 13.2283 13.52 13.3016 13.6563 13.3467C13.7925 13.3901 13.9349 13.4113 14.0778 13.4095C14.2556 13.417 14.4321 13.3768 14.589 13.2929C14.7176 13.2211 14.8209 13.1115 14.885 12.979C14.9458 12.8253 14.9674 12.6588 14.9478 12.4947L14.9388 12.4678Z" fill="#444444"/>
            <path d="M20.5168 5.49912C20.5736 5.4979 20.6302 5.5082 20.6829 5.5294C20.7357 5.5506 20.7837 5.58226 20.8239 5.62249C20.8641 5.66271 20.8958 5.71065 20.917 5.76344C20.9382 5.81622 20.9485 5.87275 20.9473 5.92962V6.64711C20.9485 6.70398 20.9382 6.76051 20.917 6.81329C20.8958 6.86608 20.8641 6.91402 20.8239 6.95425C20.7837 6.99447 20.7357 7.02613 20.6829 7.04733C20.6302 7.06853 20.5736 7.07883 20.5168 7.07761C20.4057 7.07298 20.3008 7.02559 20.2239 6.94535C20.147 6.86511 20.1041 6.75825 20.1042 6.64711V5.92962C20.1041 5.81848 20.147 5.71162 20.2239 5.63138C20.3008 5.55114 20.4057 5.50375 20.5168 5.49912ZM20.4091 14.2615C20.5219 14.266 20.6288 14.3127 20.7086 14.3925C20.7884 14.4723 20.8352 14.5793 20.8396 14.692V15.275C20.8396 15.3939 20.7924 15.508 20.7083 15.5921C20.6242 15.6762 20.5101 15.7234 20.3912 15.7234C20.2723 15.7234 20.1582 15.6762 20.0741 15.5921C19.99 15.508 19.9428 15.3939 19.9428 15.275V14.692C19.9439 14.6343 19.9565 14.5774 19.9796 14.5245C20.0028 14.4716 20.0362 14.4239 20.0778 14.3839C20.1194 14.3439 20.1686 14.3125 20.2223 14.2915C20.2761 14.2705 20.3335 14.2603 20.3912 14.2615H20.4091ZM21.306 12.4678C21.309 12.2953 21.2754 12.1241 21.2074 11.9655C21.1262 11.8217 21.0126 11.6989 20.8755 11.6068C20.6877 11.4823 20.486 11.3799 20.2746 11.3019C19.8417 11.1333 19.4194 10.9387 19.01 10.7189C18.6715 10.5367 18.3822 10.2751 18.167 9.95656C17.9632 9.61885 17.8604 9.22978 17.871 8.83547C17.8587 8.42599 17.9713 8.02245 18.1939 7.67851C18.4147 7.34471 18.7257 7.08038 19.0907 6.91617C19.5139 6.72839 19.9733 6.63651 20.436 6.64711C20.7958 6.64522 21.1534 6.70279 21.4944 6.81752C21.7992 6.92467 22.0775 7.09594 22.3105 7.31977C22.551 7.53552 22.7356 7.80633 22.8486 8.10901C22.8766 8.18239 22.9005 8.25724 22.9204 8.33323C22.9415 8.42161 22.9448 8.51334 22.93 8.603C22.9151 8.69267 22.8825 8.77847 22.8341 8.85535C22.7856 8.93223 22.7222 8.99864 22.6477 9.05067C22.5732 9.10271 22.4891 9.13932 22.4002 9.15835C22.3291 9.17171 22.2561 9.17171 22.1849 9.15835H21.8979C21.7501 9.14464 21.6104 9.08424 21.4992 8.98589C21.3879 8.88753 21.3108 8.75632 21.2791 8.61126C21.2441 8.47092 21.1799 8.33953 21.0908 8.2256C21.0112 8.12632 20.9099 8.04655 20.7948 7.99242C20.6745 7.94774 20.5461 7.92939 20.4181 7.93861C20.2476 7.92991 20.0786 7.97374 19.9338 8.06417C19.8031 8.13213 19.7036 8.24773 19.6558 8.38704C19.5951 8.52869 19.5646 8.6814 19.5661 8.83547C19.5594 8.99289 19.5901 9.14966 19.6558 9.29288C19.7372 9.43405 19.8509 9.55392 19.9876 9.64266C20.184 9.77073 20.3911 9.88175 20.6065 9.9745C21.0392 10.1438 21.4588 10.3446 21.8621 10.5754C22.2006 10.7576 22.4899 11.0192 22.7051 11.3377C22.9279 11.6845 23.0376 12.0919 23.019 12.5037C23.0346 12.9119 22.9253 13.3151 22.7058 13.6597C22.4862 14.0042 22.1669 14.2736 21.7903 14.4319C21.3588 14.612 20.8946 14.7005 20.4271 14.692C20.0819 14.692 19.7381 14.6468 19.4046 14.5575C19.0821 14.4695 18.7782 14.3236 18.5078 14.127C18.2288 13.9172 18.0042 13.6435 17.8531 13.3288C17.7921 13.2055 17.744 13.0763 17.7096 12.9431C17.675 12.759 17.7139 12.5687 17.8178 12.4129C17.9217 12.257 18.0824 12.148 18.2656 12.109H18.6692C18.839 12.1325 18.9984 12.2041 19.1288 12.3154C19.2591 12.4266 19.3548 12.5729 19.4046 12.7369C19.4545 12.8871 19.5408 13.0227 19.6558 13.1315C19.7619 13.2283 19.8872 13.3016 20.0235 13.3467C20.1597 13.3901 20.3021 13.4113 20.445 13.4095C20.6351 13.4338 20.8282 13.4026 21.0011 13.3198C21.1296 13.248 21.2329 13.1384 21.297 13.0059C21.3579 12.8522 21.3794 12.6858 21.3598 12.5216L21.306 12.4678Z" fill="#444444"/>
            <path d="M13.0102 14.4502H41.71C41.9478 14.4502 42.176 14.5447 42.3441 14.7129C42.5123 14.8811 42.6068 15.1092 42.6068 15.3471V42.0917C42.6068 42.3296 42.5123 42.5577 42.3441 42.7259C42.176 42.8941 41.9478 42.9886 41.71 42.9886H13.0102C12.7723 42.9886 12.5442 42.8941 12.376 42.7259C12.2078 42.5577 12.1133 42.3296 12.1133 42.0917V15.3471C12.1133 15.1092 12.2078 14.8811 12.376 14.7129C12.5442 14.5447 12.7723 14.4502 13.0102 14.4502Z" fill="url(#paint0_linear_6616_62413)"/>
            <path d="M28.1769 18.5498C28.4885 18.5498 28.7873 18.6736 29.0076 18.8939C29.228 19.1143 29.3518 19.4131 29.3518 19.7247C29.3518 20.0363 29.228 20.3351 29.0076 20.5555C28.7873 20.7758 28.4885 20.8996 28.1769 20.8996C27.8652 20.8996 27.5664 20.7758 27.3461 20.5555C27.1257 20.3351 27.002 20.0363 27.002 19.7247C27.002 19.5704 27.0323 19.4176 27.0914 19.2751C27.1504 19.1325 27.237 19.003 27.3461 18.8939C27.4552 18.7848 27.5847 18.6983 27.7272 18.6392C27.8698 18.5802 28.0226 18.5498 28.1769 18.5498Z" fill="#444444"/>
            <path d="M37.5499 18.5502C37.703 18.549 37.8549 18.578 37.9968 18.6355C38.1387 18.693 38.2679 18.7779 38.377 18.8853C38.4861 18.9927 38.5729 19.1206 38.6326 19.2616C38.6923 19.4026 38.7236 19.554 38.7248 19.7071C38.7248 19.8614 38.6944 20.0142 38.6354 20.1567C38.5763 20.2993 38.4898 20.4288 38.3807 20.5379C38.2716 20.647 38.1421 20.7335 37.9995 20.7926C37.857 20.8516 37.7042 20.882 37.5499 20.882C37.3956 20.882 37.2428 20.8516 37.1003 20.7926C36.9577 20.7335 36.8282 20.647 36.7191 20.5379C36.61 20.4288 36.5235 20.2993 36.4644 20.1567C36.4054 20.0142 36.375 19.8614 36.375 19.7071C36.375 19.5528 36.4054 19.4001 36.4644 19.2575C36.5235 19.115 36.61 18.9854 36.7191 18.8763C36.8282 18.7672 36.9577 18.6807 37.1003 18.6217C37.2428 18.5626 37.3956 18.5322 37.5499 18.5322V18.5502Z" fill="#444444"/>
            <path d="M32.8585 18.5498C33.1701 18.5498 33.469 18.6736 33.6893 18.8939C33.9096 19.1143 34.0334 19.4131 34.0334 19.7247C34.0334 20.0363 33.9096 20.3351 33.6893 20.5555C33.469 20.7758 33.1701 20.8996 32.8585 20.8996C32.5469 20.8996 32.2481 20.7758 32.0277 20.5555C31.8074 20.3351 31.6836 20.0363 31.6836 19.7247C31.6824 19.5716 31.7114 19.4197 31.7689 19.2778C31.8264 19.1359 31.9113 19.0067 32.0188 18.8976C32.1262 18.7885 32.2541 18.7017 32.3951 18.642C32.5361 18.5823 32.6875 18.551 32.8406 18.5498H32.8585Z" fill="#444444"/>
            <path d="M11.2168 18.8912C11.2168 17.9397 11.5948 17.0272 12.2675 16.3545C12.9403 15.6817 13.8528 15.3037 14.8043 15.3037H39.9166C40.8681 15.3037 41.7806 15.6817 42.4533 16.3545C43.1261 17.0272 43.5041 17.9397 43.5041 18.8912V40.6761C43.5041 41.6276 43.1261 42.5401 42.4533 43.2129C41.7806 43.8857 40.8681 44.2636 39.9166 44.2636H14.8043C13.8528 44.2636 12.9403 43.8857 12.2675 43.2129C11.5948 42.5401 11.2168 41.6276 11.2168 40.6761V18.8912ZM14.8043 17.0974C14.3285 17.0974 13.8723 17.2864 13.5359 17.6228C13.1995 17.9592 13.0105 18.4155 13.0105 18.8912V21.6535L41.7104 21.5639V18.8733C41.7104 18.3975 41.5214 17.9413 41.185 17.6049C40.8486 17.2685 40.3923 17.0795 39.9166 17.0795L14.8043 17.0974ZM41.7104 23.3755L13.0105 23.4652V40.6761C13.0105 41.1519 13.1995 41.6081 13.5359 41.9445C13.8723 42.2809 14.3285 42.4699 14.8043 42.4699H39.9166C40.3923 42.4699 40.8486 42.2809 41.185 41.9445C41.5214 41.6081 41.7104 41.1519 41.7104 40.6761V23.3755Z" fill="#444444"/>
            <path d="M39.8359 39.4283C39.8359 39.904 39.6469 40.3602 39.3105 40.6966C38.9741 41.033 38.5179 41.222 38.0421 41.222V33.1502H32.6609V39.4283H38.0421V41.222H32.6609C32.1852 41.222 31.729 41.033 31.3926 40.6966C31.0562 40.3602 30.8672 39.904 30.8672 39.4283V33.1502C30.8672 32.6745 31.0562 32.2182 31.3926 31.8818C31.729 31.5454 32.1852 31.3564 32.6609 31.3564H38.0421C38.5179 31.3564 38.9741 31.5454 39.3105 31.8818C39.6469 32.2182 39.8359 32.6745 39.8359 33.1502V39.4283Z" fill="#444444"/>
            <path d="M39.8359 27.6701C39.8359 28.1458 39.6469 28.6021 39.3105 28.9385C38.9741 29.2749 38.5179 29.4638 38.0421 29.4638H32.6609C32.1852 29.4638 31.729 29.2749 31.3926 28.9385C31.0562 28.6021 30.8672 28.1458 30.8672 27.6701V25.8764C30.8672 25.6385 30.9617 25.4104 31.1299 25.2422C31.2981 25.074 31.5262 24.9795 31.7641 24.9795C32.0019 24.9795 32.23 25.074 32.3982 25.2422C32.5664 25.4104 32.6609 25.6385 32.6609 25.8764V27.6701H38.0421V25.8764C38.0421 25.6385 38.1366 25.4104 38.3048 25.2422C38.473 25.074 38.7011 24.9795 38.939 24.9795C39.1769 24.9795 39.405 25.074 39.5732 25.2422C39.7414 25.4104 39.8359 25.6385 39.8359 25.8764V27.6701Z" fill="#444444"/>
            <path d="M26.9844 30.9076H23.8453V27.7686H19.8363V30.9076H16.6973V34.9166H19.8363V38.0556H23.8453V34.9166H26.9844V30.9076Z" stroke="#444444" stroke-width="1.79374" stroke-linecap="round" stroke-linejoin="round"/>
        </g>
    </g>
    <defs>
        <linearGradient id="paint0_linear_6616_62413" x1="27.3601" y1="47.6164" x2="27.3601" y2="36.0468" gradientUnits="userSpaceOnUse">
            <stop stop-color="#FDE0B4"/>
            <stop offset="1" stop-color="#FDE0B4" stop-opacity="0"/>
        </linearGradient>
        <clipPath id="clip0_6616_62413">
            <rect width="43.9466" height="43.9466" fill="white" transform="translate(0.373047 0.764648)"/>
        </clipPath>
    </defs>
</svg>
