<svg width="82" height="82" viewBox="0 0 82 82" fill="none" xmlns="http://www.w3.org/2000/svg">
    <path d="M19.6699 60.6902H34.3329V65.4673H19.6699V60.6902Z" fill="url(#paint0_linear_6616_60232)"/>
    <path d="M48.1953 60.6902H62.8583V65.4673H48.1953V60.6902Z" fill="url(#paint1_linear_6616_60232)"/>
    <path d="M14.4082 25.3081C14.5497 25.0594 14.7606 24.8573 15.0151 24.7264C15.2696 24.5956 15.5567 24.5417 15.8413 24.5713H28.4477C28.2542 25.2636 28.1161 25.9702 28.0348 26.6845H16.5457V31.8177H28.3668L29.1764 33.931H19.6548V65.4349H34.334V46.5131C34.334 45.5577 34.7064 45.1772 35.6618 45.1772H46.8433C47.7987 45.1772 48.1711 45.5658 48.1792 46.5131V65.4349H62.8584V34.3358C62.8584 34.2143 62.907 34.0929 62.7774 33.9552H53.4096L54.2193 31.842H65.9918V26.6845H54.4865C54.406 25.9807 54.2679 25.2848 54.0736 24.6036H66.9715C67.1081 24.5902 67.2461 24.6039 67.3774 24.6439C67.5088 24.6838 67.631 24.7493 67.737 24.8365C67.8431 24.9238 67.9309 25.0311 67.9954 25.1523C68.0599 25.2734 68.0999 25.4062 68.1131 25.5429C68.1212 25.6128 68.1212 25.6834 68.1131 25.7534V32.7812C68.1347 32.9218 68.1271 33.0653 68.0909 33.2028C68.0546 33.3403 67.9904 33.4689 67.9023 33.5806C67.8142 33.6922 67.7041 33.7845 67.5788 33.8518C67.4534 33.919 67.3156 33.9598 67.1739 33.9714H65.0121V65.5483H66.9391C67.2182 65.5397 67.4894 65.6423 67.6928 65.8337C67.8963 66.025 68.0155 66.2893 68.024 66.5684C68.0326 66.8476 67.93 67.1187 67.7387 67.3222C67.5473 67.5257 67.283 67.6448 67.0039 67.6534H15.898C15.6057 67.69 15.3091 67.6406 15.0444 67.5112C14.7798 67.3817 14.5587 67.1779 14.4082 66.9247V66.3013C14.5156 66.0412 14.7073 65.8247 14.9526 65.6867C15.1978 65.5487 15.4823 65.4971 15.7603 65.5402H17.5173V33.9633H15.7603C15.4779 33.9993 15.1916 33.9399 14.9466 33.7947C14.7017 33.6495 14.5122 33.4268 14.4082 33.1618V25.3081ZM36.4796 47.2985V65.4187H46.0417V47.2985H36.4796Z" fill="#151616"/>
    <path d="M54.0734 24.5956C54.2669 25.2796 54.405 25.9782 54.4864 26.6845C54.5349 27.1622 54.5754 27.648 54.5916 28.1257C54.5755 29.3683 54.4289 30.6057 54.1544 31.8177C53.9034 32.5221 53.6443 33.2266 53.3447 33.931C53.1796 34.1114 53.0529 34.3235 52.9723 34.5544C52.5395 35.4305 51.9952 36.2469 51.353 36.9834C49.0303 39.664 45.7381 41.3123 42.2004 41.5658C38.6626 41.8194 35.169 40.6574 32.4878 38.3355C31.7686 37.7123 31.1173 37.0148 30.5446 36.2547C29.986 35.5422 29.6216 34.7001 29.1196 33.9714L28.31 31.8582C28.2991 31.7223 28.2801 31.5871 28.2533 31.4534C27.8875 29.8908 27.8134 28.274 28.0347 26.6845C28.1152 25.9807 28.2533 25.2848 28.4476 24.6036C28.9483 22.8366 29.8117 21.1932 30.9826 19.7783C32.1536 18.3633 33.6065 17.2079 35.2488 16.3856C37.0662 15.4717 39.0679 14.9837 41.102 14.9584C43.1361 14.9332 45.1493 15.3714 46.9889 16.2398C49.8395 17.5869 52.1161 19.9066 53.4095 22.7819C53.6833 23.3659 53.9055 23.9728 54.0734 24.5956ZM37.3944 32.1254V34.6192C37.3944 35.7689 37.7264 36.1009 38.8518 36.1009H43.6207C44.7947 36.1009 45.1267 35.777 45.1267 34.6192V32.1254H47.7419C48.7297 32.1254 49.094 31.7692 49.094 30.7652V25.7858C49.094 24.7656 48.7378 24.4174 47.6933 24.4174H45.1267V21.7617C45.1267 20.8225 44.7623 20.4582 43.8312 20.4582H38.7465C37.7425 20.4582 37.4025 20.8063 37.3944 21.8184V24.4093H34.7225C33.8238 24.4093 33.4351 24.7818 33.4351 25.6724V30.8623C33.4351 31.7287 33.8319 32.1173 34.682 32.1173L37.3944 32.1254Z" fill="url(#paint2_linear_6616_60232)"/>
    <path d="M37.3936 32.1254H34.6812C34.511 32.1502 34.3374 32.1347 34.1743 32.0802C34.0112 32.0257 33.8631 31.9338 33.7419 31.8118C33.6207 31.6898 33.5297 31.5411 33.4763 31.3777C33.4229 31.2142 33.4085 31.0405 33.4343 30.8705V25.6805C33.4343 24.7899 33.823 24.4175 34.7217 24.4175H37.3936V21.8265C37.3936 20.8145 37.7417 20.4663 38.7457 20.4663H43.8304C44.7615 20.4663 45.1259 20.8307 45.1259 21.7699V24.4175H47.6925C48.737 24.4175 49.0932 24.7656 49.0932 25.7858V30.7328C49.0932 31.7368 48.7289 32.0931 47.7411 32.0931H45.1259V34.6192C45.1259 35.777 44.7939 36.1009 43.6199 36.1009H38.8348C37.7094 36.1009 37.3774 35.7689 37.3774 34.6192L37.3936 32.1254ZM39.4906 22.5795V25.381C39.5052 25.5113 39.494 25.6432 39.4575 25.7691C39.421 25.895 39.36 26.0125 39.278 26.1148C39.196 26.2171 39.0947 26.3022 38.9797 26.3653C38.8647 26.4283 38.7384 26.468 38.6081 26.4821C38.3667 26.5158 38.123 26.5293 37.8794 26.5226H35.5961V30.0284H38.0251C39.1829 30.0284 39.4825 30.328 39.4825 31.4777V33.9715H42.9722C42.9759 33.9122 42.9759 33.8527 42.9722 33.7934V31.3644C42.9722 30.3847 43.3203 30.0365 44.2919 30.0365H46.9395V26.5226H44.3324C43.3851 26.5226 43.0288 26.1501 43.0288 25.2109V22.5795H39.4906Z" fill="#151616"/>
    <path d="M31.8315 50.0109V53.6787C31.8508 53.8171 31.8424 53.9579 31.8066 54.093C31.7709 54.2281 31.7087 54.3548 31.6235 54.4655C31.5384 54.5763 31.432 54.6691 31.3106 54.7383C31.1892 54.8075 31.0553 54.8519 30.9166 54.8689C30.8229 54.8855 30.7269 54.8855 30.6332 54.8689H23.3462C23.065 54.9008 22.7826 54.8198 22.561 54.6437C22.3394 54.4676 22.1966 54.2108 22.1641 53.9297C22.1484 53.8386 22.1484 53.7455 22.1641 53.6544V46.3674C22.1246 46.0949 22.1943 45.8178 22.3581 45.5964C22.5219 45.375 22.7664 45.2273 23.0386 45.1853H30.7385C31.4995 45.1853 31.8639 45.6063 31.8639 46.3917C31.8396 47.5981 31.8315 48.8045 31.8315 50.0109ZM29.7021 52.7476V47.3066H24.2612V52.7476H29.7021Z" fill="#151616"/>
    <path d="M50.6879 50.0352V46.3674C50.6879 45.5577 51.0604 45.1853 51.8458 45.1853H59.1813C59.991 45.1853 60.3553 45.5982 60.3553 46.3998V53.6301C60.3784 53.7695 60.3736 53.912 60.3412 54.0495C60.3089 54.187 60.2495 54.3168 60.1667 54.4312C60.0839 54.5457 59.9792 54.6425 59.8587 54.7163C59.7382 54.79 59.6043 54.8391 59.4647 54.8608C59.3604 54.8815 59.2531 54.8815 59.1489 54.8608H51.9186C51.7788 54.8827 51.636 54.8768 51.4985 54.8434C51.3609 54.8101 51.2313 54.75 51.117 54.6665C51.0027 54.5831 50.9059 54.4779 50.8323 54.357C50.7587 54.2361 50.7096 54.1019 50.6879 53.962C50.6717 53.8547 50.6717 53.7455 50.6879 53.6382V50.0352ZM52.8335 47.3066V52.7314H58.2664V47.3066H52.8335Z" fill="#151616"/>
    <path d="M39.4921 22.5792H43.0304V25.2106C43.0304 26.1498 43.3866 26.506 44.3339 26.5222H46.9329V30.0281H44.3501C43.3785 30.0281 43.0304 30.3762 43.0304 31.3559V33.7849C43.0341 33.8442 43.0341 33.9037 43.0304 33.963H39.4921V31.4369C39.4921 30.2871 39.1926 29.9876 38.0347 29.9876H35.5977V26.5222H37.8647C38.1083 26.5289 38.3521 26.5154 38.5934 26.4817C38.7237 26.4695 38.8503 26.4318 38.9659 26.3707C39.0816 26.3096 39.1841 26.2262 39.2676 26.1255C39.351 26.0247 39.4138 25.9085 39.4524 25.7835C39.4909 25.6584 39.5044 25.527 39.4921 25.3968C39.5002 24.4576 39.4921 23.5346 39.4921 22.5792Z" fill="url(#paint3_linear_6616_60232)"/>
    <defs>
        <linearGradient id="paint0_linear_6616_60232" x1="24.0672" y1="60.3991" x2="25.4745" y2="65.9413" gradientUnits="userSpaceOnUse">
            <stop stop-color="#F44F4F"/>
            <stop offset="0.4429" stop-color="#EE3D3D"/>
            <stop offset="1" stop-color="#FC0E1C"/>
        </linearGradient>
        <linearGradient id="paint1_linear_6616_60232" x1="52.5926" y1="60.3991" x2="53.9999" y2="65.9413" gradientUnits="userSpaceOnUse">
            <stop stop-color="#F44F4F"/>
            <stop offset="0.4429" stop-color="#EE3D3D"/>
            <stop offset="1" stop-color="#FC0E1C"/>
        </linearGradient>
        <linearGradient id="paint2_linear_6616_60232" x1="35.9116" y1="13.3337" x2="51.8596" y2="33.825" gradientUnits="userSpaceOnUse">
            <stop stop-color="#F44F4F"/>
            <stop offset="0.4429" stop-color="#EE3D3D"/>
            <stop offset="1" stop-color="#FC0E1C"/>
        </linearGradient>
        <linearGradient id="paint3_linear_6616_60232" x1="38.997" y1="21.8854" x2="45.8207" y2="30.603" gradientUnits="userSpaceOnUse">
            <stop stop-color="#F44F4F"/>
            <stop offset="0.4429" stop-color="#EE3D3D"/>
            <stop offset="1" stop-color="#FC0E1C"/>
        </linearGradient>
    </defs>
</svg>
