<svg width="45" height="45" viewBox="0 0 45 45" fill="none" xmlns="http://www.w3.org/2000/svg">
    <g clip-path="url(#clip0_6616_62398)">
        <path d="M22.9936 16.0493V5.2869C22.9948 4.75656 22.8912 4.23122 22.6888 3.74102C22.4864 3.25083 22.1892 2.80545 21.8142 2.43044C21.4392 2.05544 20.9938 1.7582 20.5036 1.55579C20.0134 1.35339 19.488 1.2498 18.9577 1.25099H5.50467C4.97434 1.2498 4.44899 1.35339 3.9588 1.55579C3.4686 1.7582 3.02322 2.05544 2.64821 2.43044C2.27321 2.80545 1.97597 3.25083 1.77357 3.74102C1.57116 4.23122 1.46758 4.75656 1.46876 5.2869V16.0493C1.46758 16.5782 1.57057 17.102 1.77186 17.5911C1.97314 18.0801 2.26878 18.5247 2.64188 18.8994C3.01498 19.2742 3.45825 19.5718 3.94637 19.7753C4.43449 19.9787 4.95791 20.0841 5.48673 20.0852H18.9398C19.4716 20.0888 19.9989 19.987 20.4912 19.7856C20.9834 19.5843 21.4309 19.2874 21.8078 18.9122C22.1848 18.5369 22.4836 18.0907 22.6871 17.5994C22.8906 17.108 22.9948 16.5812 22.9936 16.0493Z" fill="#B3DEFF"/>
        <path d="M9.29873 5.53916C9.3556 5.53794 9.41213 5.54824 9.46491 5.56944C9.5177 5.59064 9.56564 5.6223 9.60587 5.66253C9.64609 5.70275 9.67775 5.75069 9.69895 5.80348C9.72016 5.85626 9.73045 5.91279 9.72923 5.96966V6.68715C9.72021 6.795 9.67091 6.89549 9.59113 6.96862C9.51135 7.04175 9.40696 7.08215 9.29873 7.08177C9.18597 7.07735 9.07903 7.03057 8.99923 6.95078C8.91944 6.87098 8.87266 6.76404 8.86824 6.65128V5.93378C8.87921 5.8267 8.9291 5.72736 9.00846 5.65462C9.08781 5.58188 9.1911 5.5408 9.29873 5.53916ZM9.19111 14.3016C9.24798 14.3003 9.30451 14.3106 9.35729 14.3318C9.41007 14.3531 9.45802 14.3847 9.49824 14.4249C9.53846 14.4652 9.57013 14.5131 9.59133 14.5659C9.61253 14.6187 9.62283 14.6752 9.62161 14.7321V15.315C9.6228 15.3704 9.61307 15.4254 9.59298 15.477C9.57289 15.5286 9.54283 15.5758 9.50451 15.6158C9.4662 15.6557 9.42039 15.6878 9.36969 15.71C9.31899 15.7323 9.26441 15.7444 9.20905 15.7455C9.15075 15.7505 9.09206 15.7433 9.0367 15.7244C8.98134 15.7054 8.93053 15.6752 8.88751 15.6355C8.84448 15.5959 8.81018 15.5477 8.78679 15.4941C8.7634 15.4404 8.75143 15.3825 8.75164 15.324V14.741C8.75164 14.6245 8.79794 14.5127 8.88036 14.4303C8.96278 14.3479 9.07456 14.3016 9.19111 14.3016ZM10.088 12.5078C10.091 12.3353 10.0574 12.1641 9.98932 12.0056C9.91086 11.8598 9.79668 11.7364 9.65748 11.6468C9.46964 11.5223 9.268 11.42 9.05658 11.3419C8.62363 11.1734 8.20133 10.9787 7.79199 10.7589C7.46065 10.5779 7.17529 10.3232 6.95791 10.0145C6.742 9.67505 6.63556 9.27746 6.65297 8.87551C6.63094 8.45897 6.73738 8.04571 6.95791 7.69165C7.18128 7.36008 7.49155 7.09635 7.85477 6.92931C8.27788 6.74152 8.73729 6.64964 9.20008 6.66025C9.55983 6.65835 9.91741 6.71593 10.2584 6.83065C10.5632 6.9378 10.8415 7.10907 11.0745 7.3329C11.315 7.54865 11.4997 7.81946 11.6127 8.12214C11.6406 8.19552 11.6646 8.27037 11.6844 8.34636C11.7056 8.43475 11.7088 8.52647 11.694 8.61614C11.6792 8.7058 11.6466 8.7916 11.5981 8.86848C11.5496 8.94536 11.4863 9.01177 11.4118 9.0638C11.3373 9.11584 11.2531 9.15245 11.1642 9.17148C11.0931 9.18484 11.0201 9.18484 10.949 9.17148H10.644C10.4962 9.15778 10.3565 9.09737 10.2453 8.99902C10.134 8.90066 10.0569 8.76946 10.0252 8.62439C9.99455 8.48249 9.92992 8.35015 9.83686 8.23874C9.76261 8.13783 9.66382 8.05757 9.54986 8.00555C9.43617 7.97364 9.31731 7.9645 9.20008 7.97864C9.04457 7.97206 8.89003 8.00606 8.75164 8.0773C8.62556 8.15091 8.5277 8.26456 8.47361 8.40017C8.41298 8.54182 8.38243 8.69453 8.38393 8.84861C8.38248 9.00558 8.413 9.16121 8.47361 9.30601C8.54287 9.43944 8.63728 9.55821 8.75164 9.65579C8.94915 9.78736 9.15949 9.89855 9.37945 9.98763C9.80924 10.1569 10.2259 10.3578 10.6261 10.5885C10.9824 10.7662 11.2902 11.0279 11.523 11.3509C11.7389 11.7003 11.8451 12.1064 11.8279 12.5168C11.828 12.9423 11.6929 13.3568 11.4423 13.7007C11.2255 14.0338 10.9128 14.2934 10.5454 14.4451C10.1138 14.6251 9.64965 14.7137 9.18214 14.7052C8.83692 14.7051 8.49319 14.6599 8.15971 14.5706C7.83716 14.4826 7.53328 14.3367 7.26284 14.1401C6.98631 13.9327 6.75957 13.6661 6.59916 13.3599C6.53819 13.2366 6.4901 13.1073 6.45566 12.9742C6.42113 12.7901 6.45996 12.5998 6.56387 12.4439C6.66777 12.2881 6.8285 12.1791 7.01172 12.1401H7.41531C7.58506 12.1636 7.74454 12.2352 7.87488 12.3464C8.00521 12.4577 8.10094 12.604 8.15074 12.7679C8.20062 12.9182 8.28689 13.0537 8.40186 13.1625C8.5048 13.25 8.62353 13.317 8.75164 13.3599C8.88789 13.4032 9.03021 13.4244 9.17317 13.4226C9.35093 13.4302 9.52746 13.3899 9.68439 13.306C9.81291 13.2343 9.91624 13.1247 9.98035 12.9921C10.0585 12.8492 10.0987 12.6886 10.0969 12.5258L10.088 12.5078Z" fill="#444444"/>
        <path d="M15.5761 5.53916C15.6329 5.53794 15.6895 5.54824 15.7423 5.56944C15.795 5.59064 15.843 5.6223 15.8832 5.66253C15.9234 5.70275 15.9551 5.75069 15.9763 5.80348C15.9975 5.85626 16.0078 5.91279 16.0066 5.96966V6.68715C16.0078 6.74402 15.9975 6.80055 15.9763 6.85333C15.9551 6.90612 15.9234 6.95406 15.8832 6.99428C15.843 7.03451 15.795 7.06617 15.7423 7.08737C15.6895 7.10857 15.6329 7.11887 15.5761 7.11765C15.4633 7.11322 15.3564 7.06645 15.2766 6.98665C15.1968 6.90686 15.15 6.79991 15.1456 6.68715V5.96966C15.15 5.8569 15.1968 5.74995 15.2766 5.67016C15.3564 5.59036 15.4633 5.54359 15.5761 5.53916ZM15.4685 14.3016C15.5253 14.3003 15.5819 14.3106 15.6346 14.3318C15.6874 14.3531 15.7354 14.3847 15.7756 14.4249C15.8158 14.4652 15.8475 14.5131 15.8687 14.5659C15.8899 14.6187 15.9002 14.6752 15.8989 14.7321V15.315C15.9001 15.3704 15.8904 15.4254 15.8703 15.477C15.8502 15.5286 15.8202 15.5758 15.7819 15.6158C15.7435 15.6557 15.6977 15.6878 15.647 15.71C15.5963 15.7323 15.5418 15.7444 15.4864 15.7455C15.4295 15.7468 15.373 15.7365 15.3202 15.7153C15.2674 15.6941 15.2195 15.6624 15.1793 15.6222C15.139 15.5819 15.1074 15.534 15.0862 15.4812C15.065 15.4284 15.0547 15.3719 15.0559 15.315V14.7321C15.0599 14.6222 15.1042 14.5177 15.1803 14.4383C15.2563 14.359 15.3589 14.3103 15.4685 14.3016ZM16.3653 12.5078C16.3683 12.3353 16.3347 12.1641 16.2667 12.0056C16.1882 11.8598 16.074 11.7364 15.9348 11.6468C15.747 11.5223 15.5453 11.42 15.3339 11.3419C14.901 11.1734 14.4787 10.9787 14.0693 10.7589C13.7345 10.5716 13.4463 10.311 13.2263 9.9966C13.0225 9.65889 12.9198 9.26982 12.9303 8.87551C12.9083 8.45897 13.0147 8.04571 13.2352 7.69165C13.4586 7.36008 13.7689 7.09635 14.1321 6.92931C14.5552 6.74152 15.0146 6.64964 15.4774 6.66025C15.8372 6.65835 16.1948 6.71593 16.5357 6.83065C16.8406 6.9378 17.1189 7.10907 17.3519 7.3329C17.5924 7.54865 17.777 7.81946 17.89 8.12214C17.918 8.19552 17.9419 8.27037 17.9618 8.34636C17.9829 8.43475 17.9862 8.52647 17.9713 8.61614C17.9565 8.7058 17.9239 8.7916 17.8754 8.86848C17.827 8.94536 17.7636 9.01177 17.6891 9.0638C17.6146 9.11584 17.5304 9.15245 17.4416 9.17148C17.3704 9.18484 17.2974 9.18484 17.2263 9.17148H16.9214C16.7735 9.15778 16.6339 9.09737 16.5226 8.99902C16.4113 8.90066 16.3343 8.76946 16.3025 8.62439C16.2719 8.48249 16.2073 8.35015 16.1142 8.23874C16.04 8.13783 15.9412 8.05757 15.8272 8.00555C15.7135 7.97364 15.5946 7.9645 15.4774 7.97864C15.3069 7.96995 15.1379 8.01378 14.9931 8.10421C14.867 8.17782 14.7692 8.29146 14.7151 8.42708C14.6544 8.56873 14.6239 8.72144 14.6254 8.87551C14.624 9.03249 14.6545 9.18811 14.7151 9.33292C14.7914 9.47211 14.8988 9.59181 15.029 9.6827C15.2265 9.81427 15.4368 9.92545 15.6568 10.0145C16.0866 10.1838 16.5033 10.3847 16.9034 10.6154C17.241 10.8025 17.5322 11.063 17.7555 11.3778C17.9671 11.7296 18.076 12.1338 18.0696 12.5444C18.0633 12.9549 17.942 13.3555 17.7196 13.7007C17.5028 14.0338 17.1901 14.2934 16.8227 14.4451C16.3912 14.6251 15.927 14.7137 15.4595 14.7052C15.1143 14.7051 14.7705 14.6599 14.4371 14.5706C14.1145 14.4826 13.8106 14.3367 13.5402 14.1401C13.2637 13.9327 13.0369 13.6661 12.8765 13.3599C12.8155 13.2366 12.7674 13.1073 12.733 12.9742C12.6985 12.7901 12.7373 12.5998 12.8412 12.4439C12.9451 12.2881 13.1058 12.1791 13.2891 12.1401H13.6927C13.8624 12.1636 14.0219 12.2352 14.1522 12.3464C14.2826 12.4577 14.3783 12.604 14.4281 12.7679C14.478 12.9182 14.5642 13.0537 14.6792 13.1625C14.7821 13.25 14.9009 13.317 15.029 13.3599C15.1652 13.4032 15.3076 13.4244 15.4505 13.4226C15.6283 13.4302 15.8048 13.3899 15.9617 13.306C16.0903 13.2343 16.1936 13.1247 16.2577 12.9921C16.3359 12.8492 16.376 12.6886 16.3743 12.5258L16.3653 12.5078Z" fill="#444444"/>
        <path d="M13.9887 15.7451H42.6885C42.9263 15.7451 43.1545 15.8396 43.3227 16.0078C43.4909 16.176 43.5854 16.4041 43.5854 16.642V42.2028C43.5854 42.4406 43.4909 42.6687 43.3227 42.8369C43.1545 43.0051 42.9263 43.0996 42.6885 43.0996H13.9887C13.7508 43.0996 13.5227 43.0051 13.3545 42.8369C13.1863 42.6687 13.0918 42.4406 13.0918 42.2028V16.6061C13.1011 16.3745 13.1996 16.1555 13.3668 15.995C13.534 15.8345 13.7569 15.7449 13.9887 15.7451Z" fill="url(#paint0_linear_6616_62398)"/>
        <path d="M29.1366 18.5879C29.4419 18.5972 29.7316 18.7251 29.9442 18.9444C30.1569 19.1638 30.2757 19.4573 30.2756 19.7628C30.2756 20.0744 30.1518 20.3732 29.9315 20.5936C29.7111 20.8139 29.4123 20.9377 29.1007 20.9377C28.7891 20.9377 28.4902 20.8139 28.2699 20.5936C28.0496 20.3732 27.9258 20.0744 27.9258 19.7628C27.9258 19.4512 28.0496 19.1523 28.2699 18.932C28.4902 18.7117 28.7891 18.5879 29.1007 18.5879H29.1366Z" fill="#444444"/>
        <path d="M38.5265 18.5873C38.6796 18.5861 38.8314 18.6151 38.9733 18.6726C39.1152 18.7301 39.2444 18.815 39.3535 18.9224C39.4626 19.0298 39.5495 19.1577 39.6092 19.2987C39.6689 19.4397 39.7002 19.5911 39.7014 19.7442C39.7014 20.0558 39.5776 20.3547 39.3572 20.575C39.1369 20.7954 38.8381 20.9191 38.5265 20.9191C38.2149 20.9191 37.916 20.7954 37.6957 20.575C37.4753 20.3547 37.3516 20.0558 37.3516 19.7442C37.3516 19.4326 37.4753 19.1338 37.6957 18.9135C37.916 18.6931 38.2149 18.5693 38.5265 18.5693V18.5873Z" fill="#444444"/>
        <path d="M33.8644 18.5879C34.176 18.5879 34.4748 18.7117 34.6952 18.932C34.9155 19.1524 35.0393 19.4512 35.0393 19.7628C35.0393 20.0744 34.9155 20.3733 34.6952 20.5936C34.4748 20.8139 34.176 20.9377 33.8644 20.9377C33.5528 20.9377 33.2539 20.8139 33.0336 20.5936C32.8133 20.3733 32.6895 20.0744 32.6895 19.7628C32.6883 19.6082 32.7179 19.4549 32.7765 19.3118C32.8351 19.1687 32.9216 19.0387 33.0309 18.9294C33.1403 18.82 33.2703 18.7335 33.4134 18.6749C33.5564 18.6163 33.7098 18.5867 33.8644 18.5879Z" fill="#444444"/>
        <path fill-rule="evenodd" clip-rule="evenodd" d="M12.1953 18.9283C12.1953 17.9768 12.5733 17.0644 13.2461 16.3916C13.9188 15.7188 14.8313 15.3408 15.7828 15.3408H40.8951C41.8466 15.3408 42.7591 15.7188 43.4319 16.3916C44.1046 17.0644 44.4826 17.9768 44.4826 18.9283V40.7133C44.4826 41.6647 44.1046 42.5772 43.4319 43.25C42.7591 43.9228 41.8466 44.3007 40.8951 44.3007H15.7828C14.8313 44.3007 13.9188 43.9228 13.2461 43.25C12.5733 42.5772 12.1953 41.6647 12.1953 40.7133V18.9283ZM15.7828 17.1346C15.3071 17.1346 14.8508 17.3235 14.5144 17.6599C14.178 17.9963 13.9891 18.4526 13.9891 18.9283V21.6907L42.6889 21.601V18.9104C42.6889 18.4346 42.4999 17.9784 42.1635 17.642C41.8271 17.3056 41.3709 17.1166 40.8951 17.1166L15.7828 17.1346ZM42.6889 23.4126L13.9891 23.5023V40.7133C13.9891 41.189 14.178 41.6452 14.5144 41.9816C14.8508 42.318 15.3071 42.507 15.7828 42.507H40.8951C41.3709 42.507 41.8271 42.318 42.1635 41.9816C42.4999 41.6452 42.6889 41.189 42.6889 40.7133V23.4126Z" fill="#444444"/>
        <path d="M34.7607 26.7313C33.8946 25.866 32.7204 25.3799 31.4961 25.3799C30.2718 25.3799 29.0975 25.866 28.2314 26.7313L21.9534 33.0094C21.1553 33.8882 20.7263 35.0405 20.7553 36.2272C20.7843 37.4139 21.269 38.5439 22.109 39.3827C22.949 40.2216 24.0796 40.7048 25.2664 40.7321C26.4531 40.7595 27.6049 40.3288 28.4826 39.5296L34.7607 33.2515C35.6233 32.3858 36.1076 31.2135 36.1076 29.9914C36.1076 28.7693 35.6233 27.597 34.7607 26.7313ZM23.2 38.265C22.6704 37.7323 22.3731 37.0117 22.3731 36.2605C22.3731 35.5094 22.6704 34.7887 23.2 34.256L25.7023 31.7538L29.7113 35.7807L27.209 38.283C26.6664 38.7954 25.9473 39.0794 25.2009 39.0761C24.4545 39.0727 23.7381 38.7823 23.2 38.265ZM30.9759 34.4982L26.9669 30.4892L29.4691 27.9869C29.7324 27.7237 30.0449 27.5149 30.3888 27.3724C30.7327 27.2299 31.1014 27.1566 31.4736 27.1566C31.8459 27.1566 32.2145 27.2299 32.5585 27.3724C32.9024 27.5149 33.2149 27.7237 33.4781 27.9869C33.7414 28.2501 33.9502 28.5626 34.0926 28.9066C34.2351 29.2505 34.3084 29.6191 34.3084 29.9914C34.3084 30.3637 34.2351 30.7323 34.0926 31.0762C33.9502 31.4202 33.7414 31.7327 33.4781 31.9959L30.9759 34.4982Z" fill="#444444"/>
    </g>
    <defs>
        <linearGradient id="paint0_linear_6616_62398" x1="28.3386" y1="43.6826" x2="28.3386" y2="36.5256" gradientUnits="userSpaceOnUse">
            <stop stop-color="#B3DEFF"/>
            <stop offset="1" stop-color="#B3DEFF" stop-opacity="0"/>
        </linearGradient>
        <clipPath id="clip0_6616_62398">
            <rect width="43.9466" height="43.9466" fill="white" transform="translate(0.679688 0.802734)"/>
        </clipPath>
    </defs>
</svg>
