<svg width="44" height="45" viewBox="0 0 44 45" fill="none" xmlns="http://www.w3.org/2000/svg">
    <g clip-path="url(#clip0_6616_62378)">
        <mask id="mask0_6616_62378" style="mask-type:luminance" maskUnits="userSpaceOnUse" x="0" y="1" width="44" height="44">
            <path d="M43.87 1.25195H0.820312V44.3017H43.87V1.25195Z" fill="white"/>
        </mask>
        <g mask="url(#mask0_6616_62378)">
            <path d="M22.3452 16.0503V5.28787C22.3452 4.21748 21.92 3.19093 21.1631 2.43405C20.4062 1.67717 19.3797 1.25196 18.3093 1.25196H4.85623C4.3259 1.25078 3.80055 1.35437 3.31036 1.55677C2.82017 1.75917 2.37478 2.05641 1.99978 2.43142C1.62477 2.80642 1.32753 3.25181 1.12513 3.742C0.922725 4.23219 0.81914 4.75754 0.820323 5.28787V16.0503C0.81914 16.5806 0.922725 17.106 1.12513 17.5962C1.32753 18.0864 1.62477 18.5318 1.99978 18.9068C2.37478 19.2818 2.82017 19.579 3.31036 19.7814C3.80055 19.9838 4.3259 20.0874 4.85623 20.0862H18.3093C19.3797 20.0862 20.4062 19.661 21.1631 18.9041C21.92 18.1472 22.3452 17.1207 22.3452 16.0503Z" fill="#FDF6B4"/>
            <path d="M8.64926 5.53906C8.7058 5.53906 8.76178 5.5502 8.81401 5.57183C8.86624 5.59347 8.9137 5.62518 8.95367 5.66515C8.99365 5.70513 9.02536 5.75259 9.04699 5.80482C9.06863 5.85705 9.07976 5.91303 9.07976 5.96956V6.68705C9.07074 6.7949 9.02144 6.8954 8.94166 6.96853C8.86188 7.04165 8.75749 7.08205 8.64926 7.08168C8.53581 7.07938 8.42764 7.03329 8.34739 6.95305C8.26715 6.87281 8.22106 6.76464 8.21877 6.65118V5.93368C8.22974 5.8266 8.27963 5.72726 8.35899 5.65452C8.43834 5.58178 8.54163 5.5407 8.64926 5.53906ZM8.54164 14.3015C8.65582 14.3015 8.76531 14.3468 8.84605 14.4276C8.92678 14.5083 8.97214 14.6178 8.97214 14.732V15.3149C8.97336 15.3718 8.96306 15.4283 8.94186 15.4811C8.92066 15.5339 8.88899 15.5818 8.84877 15.6221C8.80855 15.6623 8.7606 15.694 8.70782 15.7152C8.65504 15.7364 8.59851 15.7467 8.54164 15.7454C8.48436 15.7466 8.42741 15.7364 8.37414 15.7153C8.32087 15.6942 8.27235 15.6627 8.23142 15.6226C8.19049 15.5825 8.15797 15.5346 8.13578 15.4818C8.11359 15.429 8.10216 15.3722 8.10217 15.3149V14.732C8.10452 14.617 8.15186 14.5075 8.23402 14.427C8.31618 14.3465 8.42662 14.3015 8.54164 14.3015ZM9.43851 12.5077C9.44235 12.3352 9.40869 12.1638 9.33985 12.0055C9.26205 11.8593 9.14773 11.7357 9.00801 11.6467C8.82042 11.5218 8.61872 11.4194 8.40711 11.3418C7.97317 11.1756 7.55072 10.9809 7.14252 10.7588C6.81155 10.5773 6.5263 10.3227 6.30844 10.0144C6.09616 9.67337 5.99002 9.27692 6.0035 8.87542C5.98147 8.45887 6.08791 8.04561 6.30844 7.69155C6.53111 7.35936 6.84158 7.09546 7.20531 6.92921C7.62859 6.74199 8.08787 6.65013 8.55061 6.66015C8.91029 6.65906 9.26775 6.71662 9.60892 6.83055C9.9135 6.93821 10.1917 7.10941 10.4251 7.3328C10.6637 7.55015 10.848 7.82048 10.9632 8.12205C10.9912 8.19543 11.0151 8.27028 11.0349 8.34626C11.0595 8.45264 11.0585 8.56333 11.032 8.66924C11.0055 8.77515 10.9542 8.87327 10.8824 8.95554C10.8107 9.03781 10.7204 9.1019 10.6191 9.14253C10.5178 9.18317 10.4082 9.19921 10.2995 9.18932H9.99457C9.84624 9.177 9.70585 9.11708 9.59434 9.01849C9.48283 8.91991 9.40615 8.78793 9.37573 8.64223C9.34509 8.50033 9.28045 8.36799 9.18739 8.25658C9.11154 8.15722 9.01317 8.07729 8.90039 8.02339C8.78735 7.98793 8.66893 7.97275 8.55061 7.97855C8.3951 7.97196 8.24056 8.00596 8.10217 8.0772C7.9742 8.14852 7.87568 8.26293 7.82414 8.40008C7.76192 8.54123 7.73131 8.69428 7.73446 8.84851C7.73375 9.00541 7.76423 9.16089 7.82414 9.30591C7.89199 9.44025 7.98661 9.55928 8.10217 9.65569C8.29995 9.7868 8.51025 9.89795 8.72998 9.98753C9.16039 10.1554 9.57718 10.3563 9.97663 10.5884C10.3316 10.7682 10.6389 11.0294 10.8735 11.3508C11.091 11.6995 11.1974 12.1061 11.1784 12.5167C11.1779 12.9421 11.0429 13.3565 10.7928 13.7006C10.5748 14.0326 10.2624 14.2919 9.89591 14.445C9.464 14.6238 9.00007 14.7123 8.53267 14.7051C8.18748 14.7045 7.84382 14.6593 7.51024 14.5705C7.18837 14.4807 6.8848 14.335 6.61337 14.14C6.33422 13.9354 6.10692 13.6681 5.94969 13.3598C5.88722 13.2371 5.83907 13.1077 5.80619 12.9741C5.78528 12.8674 5.78922 12.7573 5.81769 12.6524C5.84616 12.5474 5.89841 12.4504 5.97038 12.3689C6.04235 12.2874 6.13212 12.2235 6.23274 12.1823C6.33335 12.1411 6.44211 12.1235 6.55059 12.1311H6.76584C6.93802 12.1476 7.10095 12.2167 7.23251 12.329C7.36407 12.4413 7.4579 12.5914 7.50127 12.7589C7.55149 12.9089 7.63771 13.0444 7.7524 13.1535C7.85402 13.2449 7.97296 13.3151 8.10217 13.3598C8.23842 13.4031 8.38074 13.4243 8.5237 13.4225C8.70155 13.431 8.87831 13.3906 9.03492 13.306C9.16174 13.232 9.26451 13.123 9.33089 12.992C9.40796 12.8487 9.44804 12.6884 9.44748 12.5257L9.43851 12.5077Z" fill="#444444"/>
            <path d="M14.9286 5.53906C15.0427 5.53906 15.1522 5.58442 15.233 5.66515C15.3137 5.74589 15.3591 5.85538 15.3591 5.96956V6.68705C15.3591 6.80123 15.3137 6.91073 15.233 6.99146C15.1522 7.0722 15.0427 7.11755 14.9286 7.11755C14.8151 7.11526 14.7069 7.06917 14.6267 6.98893C14.5465 6.90868 14.5004 6.80051 14.4981 6.68705V5.96956C14.5004 5.8561 14.5465 5.74793 14.6267 5.66769C14.7069 5.58745 14.8151 5.54136 14.9286 5.53906ZM14.8209 14.3015C14.9351 14.3015 15.0446 14.3468 15.1253 14.4276C15.2061 14.5083 15.2514 14.6178 15.2514 14.732V15.3149C15.2527 15.3718 15.2424 15.4283 15.2212 15.4811C15.2 15.5339 15.1683 15.5818 15.1281 15.6221C15.0878 15.6623 15.0399 15.694 14.9871 15.7152C14.9343 15.7364 14.8778 15.7467 14.8209 15.7454C14.7068 15.7454 14.5973 15.7001 14.5165 15.6193C14.4358 15.5386 14.3904 15.4291 14.3904 15.3149V14.732C14.3927 14.6185 14.4388 14.5103 14.5191 14.4301C14.5993 14.3499 14.7075 14.3038 14.8209 14.3015ZM15.7178 12.5077C15.7217 12.3352 15.688 12.1638 15.6192 12.0055C15.5413 11.8593 15.427 11.7357 15.2873 11.6467C15.0997 11.5218 14.898 11.4194 14.6864 11.3418C14.2525 11.1756 13.83 10.9809 13.4218 10.7588C13.0857 10.5733 12.7971 10.3124 12.5788 9.9965C12.373 9.6596 12.2702 9.26996 12.2828 8.87542C12.2608 8.45887 12.3672 8.04561 12.5877 7.69155C12.8104 7.35936 13.1209 7.09546 13.4846 6.92921C13.9079 6.74199 14.3672 6.65013 14.8299 6.66015C15.1896 6.65906 15.547 6.71662 15.8882 6.83055C16.1928 6.93821 16.471 7.10941 16.7044 7.3328C16.943 7.55015 17.1273 7.82048 17.2425 8.12205C17.2705 8.19543 17.2944 8.27028 17.3142 8.34626C17.3388 8.45264 17.3378 8.56333 17.3113 8.66924C17.2848 8.77515 17.2335 8.87327 17.1617 8.95554C17.09 9.03781 16.9997 9.1019 16.8984 9.14253C16.7971 9.18317 16.6875 9.19921 16.5788 9.18932H16.2739C16.1255 9.177 15.9852 9.11708 15.8736 9.01849C15.7621 8.91991 15.6854 8.78793 15.655 8.64223C15.6244 8.50033 15.5598 8.36799 15.4667 8.25658C15.3908 8.15722 15.2925 8.07729 15.1797 8.02339C15.0666 7.98793 14.9482 7.97275 14.8299 7.97855C14.6598 7.97361 14.4919 8.01716 14.3456 8.10411C14.2176 8.17543 14.1191 8.28984 14.0676 8.42698C14.0053 8.56814 13.9747 8.72119 13.9779 8.87542C13.9772 9.03232 14.0077 9.1878 14.0676 9.33282C14.151 9.47245 14.2644 9.5919 14.3994 9.6826C14.5972 9.8137 14.8075 9.92486 15.0272 10.0144C15.4576 10.1823 15.8744 10.3832 16.2739 10.6153C16.6125 10.8008 16.904 11.0617 17.1259 11.3777C17.3434 11.7264 17.4497 12.133 17.4308 12.5436C17.4325 12.9569 17.3073 13.3608 17.0721 13.7006C16.8541 14.0326 16.5417 14.2919 16.1752 14.445C15.7433 14.6238 15.2794 14.7123 14.812 14.7051C14.4668 14.7045 14.1231 14.6593 13.7895 14.5705C13.4677 14.4807 13.1641 14.335 12.8927 14.14C12.6135 13.9354 12.3862 13.6681 12.229 13.3598C12.1665 13.2371 12.1184 13.1077 12.0855 12.9741C12.0646 12.8674 12.0685 12.7573 12.097 12.6524C12.1255 12.5474 12.1777 12.4504 12.2497 12.3689C12.3217 12.2874 12.4114 12.2235 12.512 12.1823C12.6126 12.1411 12.7214 12.1235 12.8299 12.1311H13.0451C13.2173 12.1476 13.3802 12.2167 13.5118 12.329C13.6434 12.4413 13.7372 12.5914 13.7806 12.7589C13.8308 12.9089 13.917 13.0444 14.0317 13.1535C14.1333 13.2449 14.2523 13.3151 14.3815 13.3598C14.5177 13.4031 14.66 13.4243 14.803 13.4225C14.9808 13.431 15.1576 13.3906 15.3142 13.306C15.441 13.232 15.5438 13.123 15.6102 12.992C15.6873 12.8487 15.7273 12.6884 15.7268 12.5257L15.7178 12.5077Z" fill="#444444"/>
            <path d="M13.3402 14.4893H42.04C42.2779 14.4893 42.506 14.5837 42.6742 14.7519C42.8424 14.9201 42.9369 15.1483 42.9369 15.3861V42.1308C42.9369 42.3686 42.8424 42.5968 42.6742 42.7649C42.506 42.9331 42.2779 43.0276 42.04 43.0276H13.3402C13.1024 43.0276 12.8742 42.9331 12.706 42.7649C12.5379 42.5968 12.4434 42.3686 12.4434 42.1308V15.3861C12.4434 15.1483 12.5379 14.9201 12.706 14.7519C12.8742 14.5837 13.1024 14.4893 13.3402 14.4893Z" fill="url(#paint0_linear_6616_62378)"/>
            <path d="M28.4881 18.5884C28.7935 18.5978 29.0832 18.7257 29.2958 18.945C29.5084 19.1643 29.6273 19.4579 29.6271 19.7633C29.6271 20.0749 29.5034 20.3738 29.283 20.5941C29.0627 20.8145 28.7638 20.9382 28.4522 20.9382C28.1406 20.9382 27.8418 20.8145 27.6215 20.5941C27.4011 20.3738 27.2773 20.0749 27.2773 19.7633C27.2773 19.606 27.3088 19.4502 27.3701 19.3053C27.4314 19.1603 27.5211 19.0292 27.6341 18.9196C27.747 18.81 27.8808 18.7242 28.0275 18.6674C28.1742 18.6105 28.3308 18.5836 28.4881 18.5884Z" fill="#444444"/>
            <path d="M37.88 18.5889C38.0346 18.5877 38.1879 18.6173 38.331 18.6759C38.4741 18.7345 38.6041 18.821 38.7134 18.9304C38.8228 19.0397 38.9093 19.1697 38.9679 19.3128C39.0265 19.4559 39.0561 19.6092 39.0549 19.7638C39.0549 20.0754 38.9311 20.3742 38.7108 20.5946C38.4904 20.8149 38.1916 20.9387 37.88 20.9387C37.5684 20.9387 37.2695 20.8149 37.0492 20.5946C36.8289 20.3742 36.7051 20.0754 36.7051 19.7638C36.7051 19.4522 36.8289 19.1534 37.0492 18.933C37.2695 18.7127 37.5684 18.5889 37.88 18.5889Z" fill="#444444"/>
            <path d="M33.216 18.5889C33.5276 18.5889 33.8264 18.7127 34.0467 18.933C34.2671 19.1534 34.3909 19.4522 34.3909 19.7638C34.3909 20.0754 34.2671 20.3742 34.0467 20.5946C33.8264 20.8149 33.5276 20.9387 33.216 20.9387C32.9043 20.9387 32.6055 20.8149 32.3852 20.5946C32.1648 20.3742 32.0411 20.0754 32.0411 19.7638C32.0399 19.6092 32.0694 19.4559 32.1281 19.3128C32.1867 19.1697 32.2732 19.0397 32.3825 18.9304C32.4918 18.821 32.6218 18.7345 32.7649 18.6759C32.908 18.6173 33.0613 18.5877 33.216 18.5889Z" fill="#444444"/>
            <path fill-rule="evenodd" clip-rule="evenodd" d="M11.5469 18.9293C11.5469 17.9778 11.9248 17.0653 12.5976 16.3925C13.2704 15.7198 14.1829 15.3418 15.1344 15.3418H40.2467C41.1981 15.3418 42.1106 15.7198 42.7834 16.3925C43.4562 17.0653 43.8342 17.9778 43.8342 18.9293V40.7142C43.8342 41.6657 43.4562 42.5782 42.7834 43.251C42.1106 43.9237 41.1981 44.3017 40.2467 44.3017H15.1344C14.1829 44.3017 13.2704 43.9237 12.5976 43.251C11.9248 42.5782 11.5469 41.6657 11.5469 40.7142V18.9293ZM15.1344 17.1355C14.6586 17.1355 14.2024 17.3245 13.866 17.6609C13.5296 17.9973 13.3406 18.4535 13.3406 18.9293V21.6916L42.0404 21.6019V18.9113C42.0404 18.4356 41.8514 17.9794 41.5151 17.643C41.1787 17.3066 40.7224 17.1176 40.2467 17.1176L15.1344 17.1355ZM42.0404 23.4136L13.3406 23.5033V40.7142C13.3406 41.19 13.5296 41.6462 13.866 41.9826C14.2024 42.319 14.6586 42.508 15.1344 42.508H40.2467C40.7224 42.508 41.1787 42.319 41.5151 41.9826C41.8514 41.6462 42.0404 41.19 42.0404 40.7142V23.4136Z" fill="#444444"/>
            <path d="M16.3535 33.6827H18.9365C19.0559 33.6812 19.1722 33.6448 19.2711 33.5778C19.3699 33.5108 19.4469 33.4163 19.4926 33.306L19.9858 32.0773C20.0291 31.9662 20.1049 31.8708 20.2033 31.8035C20.3017 31.7362 20.4182 31.7002 20.5374 31.7002C20.6566 31.7002 20.7731 31.7362 20.8715 31.8035C20.9699 31.8708 21.0457 31.9662 21.089 32.0773L22.3536 35.2343C22.3988 35.3446 22.4758 35.439 22.5748 35.5055C22.6738 35.5719 22.7904 35.6074 22.9096 35.6074C23.0289 35.6074 23.1454 35.5719 23.2445 35.5055C23.3435 35.439 23.4205 35.3446 23.4657 35.2343L25.8872 28.7768C25.9248 28.6564 25.9999 28.5511 26.1016 28.4764C26.2032 28.4016 26.3261 28.3613 26.4523 28.3613C26.5784 28.3613 26.7013 28.4016 26.8029 28.4764C26.9046 28.5511 26.9797 28.6564 27.0173 28.7768L29.5106 37.0729C29.5486 37.1954 29.6248 37.3026 29.728 37.3788C29.8313 37.4549 29.9563 37.496 30.0846 37.496C30.2129 37.496 30.3378 37.4549 30.4411 37.3788C30.5444 37.3026 30.6206 37.1954 30.6586 37.0729L32.1115 31.9697C32.1432 31.8549 32.2082 31.7521 32.2984 31.6744C32.3886 31.5966 32.4998 31.5474 32.618 31.533C32.7362 31.5186 32.856 31.5396 32.9623 31.5934C33.0685 31.6472 33.1563 31.7313 33.2147 31.8352L34.8201 34.3912C34.8771 34.4931 34.9631 34.5758 35.0671 34.629C35.1711 34.6821 35.2885 34.7033 35.4045 34.6899C35.5205 34.6765 35.6299 34.629 35.719 34.5535C35.8082 34.478 35.8729 34.3779 35.9053 34.2657L35.968 34.0863C36.0077 33.9681 36.0837 33.8654 36.1852 33.7929C36.2866 33.7205 36.4084 33.6819 36.5331 33.6827H39.0891" stroke="#444444" stroke-width="1.79374" stroke-linecap="round" stroke-linejoin="round"/>
        </g>
    </g>
    <defs>
        <linearGradient id="paint0_linear_6616_62378" x1="27.7081" y1="43.7093" x2="27.7081" y2="36.2294" gradientUnits="userSpaceOnUse">
            <stop stop-color="#FDF6B4"/>
            <stop offset="1" stop-color="#FDF6B4" stop-opacity="0"/>
        </linearGradient>
        <clipPath id="clip0_6616_62378">
            <rect width="43.9466" height="43.9466" fill="white" transform="translate(0.03125 0.802734)"/>
        </clipPath>
    </defs>
</svg>
