<svg width="45" height="45" viewBox="0 0 45 45" fill="none" xmlns="http://www.w3.org/2000/svg">
    <g clip-path="url(#clip0_6616_62359)">
        <mask id="mask0_6616_62359" style="mask-type:luminance" maskUnits="userSpaceOnUse" x="0" y="1" width="44" height="44">
            <path d="M43.9872 1.25195H0.9375V44.3017H43.9872V1.25195Z" fill="white"/>
        </mask>
        <g mask="url(#mask0_6616_62359)">
            <path d="M18.8749 16.0503V5.28787C18.8749 4.75787 18.7705 4.23306 18.5677 3.7434C18.3649 3.25374 18.0676 2.80882 17.6928 2.43405C17.318 2.05929 16.8731 1.762 16.3835 1.55918C15.8938 1.35636 15.369 1.25196 14.839 1.25196H4.97342C4.44309 1.25078 3.91774 1.35437 3.42755 1.55677C2.93735 1.75917 2.49197 2.05641 2.11696 2.43142C1.74196 2.80642 1.44472 3.25181 1.24232 3.742C1.03991 4.23219 0.936328 4.75754 0.93751 5.28787V16.0503C0.936328 16.5806 1.03991 17.106 1.24232 17.5962C1.44472 18.0864 1.74196 18.5318 2.11696 18.9068C2.49197 19.2818 2.93735 19.579 3.42755 19.7814C3.91774 19.9838 4.44309 20.0874 4.97342 20.0862H14.839C15.369 20.0862 15.8938 19.9818 16.3835 19.779C16.8731 19.5762 17.318 19.2789 17.6928 18.9041C18.0676 18.5294 18.3649 18.0844 18.5677 17.5948C18.7705 17.1051 18.8749 16.5803 18.8749 16.0503Z" fill="#BDF4D0"/>
            <path d="M10.1115 5.56553C10.1684 5.5643 10.2249 5.5746 10.2777 5.5958C10.3305 5.61701 10.3784 5.64867 10.4186 5.68889C10.4589 5.72911 10.4905 5.77706 10.5117 5.82984C10.5329 5.88263 10.5432 5.93916 10.542 5.99602V6.70455C10.5432 6.76142 10.5329 6.81795 10.5117 6.87073C10.4905 6.92352 10.4589 6.97146 10.4186 7.01168C10.3784 7.05191 10.3305 7.08357 10.2777 7.10477C10.2249 7.12597 10.1684 7.13627 10.1115 7.13505C10.055 7.13505 9.999 7.12391 9.94677 7.10228C9.89454 7.08064 9.84708 7.04893 9.80711 7.00896C9.76713 6.96898 9.73542 6.92153 9.71379 6.8693C9.69215 6.81707 9.68102 6.76108 9.68102 6.70455V5.99602C9.68102 5.93949 9.69215 5.88351 9.71379 5.83128C9.73542 5.77905 9.76713 5.73159 9.80711 5.69162C9.84708 5.65164 9.89454 5.61993 9.94677 5.5983C9.999 5.57666 10.055 5.56553 10.1115 5.56553ZM10.0039 14.3279C10.1181 14.3279 10.2276 14.3733 10.3083 14.454C10.389 14.5348 10.4344 14.6443 10.4344 14.7584V15.3414C10.4356 15.3983 10.4253 15.4548 10.4041 15.5076C10.3829 15.5604 10.3512 15.6083 10.311 15.6485C10.2708 15.6888 10.2229 15.7204 10.1701 15.7416C10.1173 15.7628 10.0608 15.7731 10.0039 15.7719C9.94736 15.7719 9.89138 15.7608 9.83915 15.7391C9.78692 15.7175 9.73946 15.6858 9.69948 15.6458C9.65951 15.6058 9.6278 15.5584 9.60616 15.5061C9.58453 15.4539 9.57339 15.3979 9.57339 15.3414V14.7584C9.57569 14.645 9.62178 14.5368 9.70202 14.4566C9.78226 14.3763 9.89043 14.3302 10.0039 14.3279ZM10.9008 12.5342C10.9046 12.3616 10.8709 12.1903 10.8021 12.032C10.7268 11.884 10.612 11.7598 10.4703 11.6732C10.2827 11.5482 10.081 11.4459 9.86936 11.3683C9.43701 11.1983 9.01479 11.0037 8.60478 10.7853C8.26862 10.5998 7.98005 10.3388 7.76172 10.023C7.55086 9.67835 7.44779 9.27858 7.46575 8.87497C7.45457 8.46563 7.56709 8.06242 7.78862 7.71801C8.0113 7.38582 8.32177 7.12192 8.68549 6.95567C9.10878 6.76845 9.56806 6.6766 10.0308 6.68661C10.4058 6.67587 10.7796 6.73362 11.1339 6.85702C11.438 6.96153 11.7162 7.12969 11.9501 7.3503C12.1872 7.57253 12.3711 7.84537 12.4882 8.14851C12.5175 8.22144 12.5415 8.29637 12.56 8.37273C12.5825 8.47889 12.5801 8.58884 12.5528 8.69388C12.5255 8.79893 12.4742 8.89618 12.4028 8.97797C12.3315 9.05975 12.2421 9.12381 12.1417 9.16509C12.0414 9.20636 11.9328 9.22372 11.8245 9.21579H11.5196C11.3713 9.20346 11.2309 9.14354 11.1194 9.04496C11.0079 8.94637 10.9312 8.8144 10.9008 8.6687C10.8735 8.52564 10.8085 8.39249 10.7124 8.28304C10.6366 8.18368 10.5382 8.10376 10.4254 8.04985C10.2955 7.99372 10.1541 7.96913 10.0129 7.97811C9.84365 7.97046 9.67574 8.01088 9.52855 8.0947C9.40416 8.17033 9.30685 8.28333 9.25052 8.41757C9.18729 8.56157 9.15666 8.71776 9.16083 8.87497C9.16011 9.02898 9.19062 9.18153 9.25052 9.32341C9.33108 9.46764 9.44483 9.59062 9.58236 9.68216C9.77859 9.81345 9.98924 9.92178 10.2102 10.005C10.6373 10.1805 11.0535 10.3811 11.4568 10.6059C11.8103 10.7918 12.117 11.0555 12.3537 11.3772C12.5723 11.7255 12.6787 12.1325 12.6586 12.5432C12.6738 12.9627 12.5578 13.3765 12.3268 13.727C12.1064 14.0569 11.7948 14.3156 11.4299 14.4714C10.9974 14.6472 10.5335 14.7326 10.0667 14.7226C9.72187 14.7251 9.3782 14.6828 9.04424 14.597C8.72237 14.5072 8.4188 14.3614 8.14737 14.1665C7.86893 13.9524 7.64466 13.6759 7.49266 13.3593C7.43024 13.2398 7.38208 13.1134 7.34916 12.9826C7.32825 12.8759 7.33218 12.7658 7.36066 12.6609C7.38913 12.5559 7.44138 12.459 7.51335 12.3774C7.58532 12.2959 7.67509 12.2321 7.77571 12.1908C7.87632 12.1496 7.98508 12.132 8.09356 12.1396H8.30881C8.48099 12.1561 8.64392 12.2253 8.77548 12.3376C8.90704 12.4499 9.00087 12.5999 9.04424 12.7674C9.09662 12.9164 9.18254 13.0514 9.29536 13.162C9.40146 13.2588 9.52675 13.3321 9.66308 13.3773C9.80029 13.4163 9.94198 13.4374 10.0846 13.44C10.262 13.4439 10.4376 13.4039 10.5958 13.3234C10.725 13.2484 10.8282 13.1358 10.8918 13.0006C10.9357 12.855 10.9419 12.7007 10.9097 12.5521L10.9008 12.5342Z" fill="#444444"/>
            <path d="M13.4574 14.4893H42.1572C42.3951 14.4893 42.6232 14.5837 42.7914 14.7519C42.9596 14.9201 43.0541 15.1483 43.0541 15.3861V42.1308C43.0541 42.3686 42.9596 42.5968 42.7914 42.7649C42.6232 42.9331 42.3951 43.0276 42.1572 43.0276H13.4574C13.2196 43.0276 12.9914 42.9331 12.8232 42.7649C12.655 42.5968 12.5605 42.3686 12.5605 42.1308V15.3861C12.5605 15.1483 12.655 14.9201 12.8232 14.7519C12.9914 14.5837 13.2196 14.4893 13.4574 14.4893Z" fill="url(#paint0_linear_6616_62359)"/>
            <path d="M28.6065 18.5889C28.9181 18.5889 29.217 18.7127 29.4373 18.933C29.6577 19.1533 29.7814 19.4522 29.7814 19.7638C29.7814 20.0754 29.6577 20.3742 29.4373 20.5945C29.217 20.8149 28.9181 20.9387 28.6065 20.9387C28.2949 20.9387 27.9961 20.8149 27.7758 20.5945C27.5554 20.3742 27.4316 20.0754 27.4316 19.7638C27.4316 19.4522 27.5554 19.1533 27.7758 18.933C27.9961 18.7127 28.2949 18.5889 28.6065 18.5889Z" fill="#444444"/>
            <path d="M38.0401 18.5889C38.1948 18.5877 38.3481 18.6173 38.4912 18.6759C38.6342 18.7345 38.7642 18.821 38.8736 18.9304C38.9829 19.0397 39.0694 19.1697 39.128 19.3128C39.1867 19.4559 39.2162 19.6092 39.215 19.7638C39.215 20.0754 39.0913 20.3742 38.8709 20.5946C38.6506 20.8149 38.3517 20.9387 38.0401 20.9387C37.7285 20.9387 37.4297 20.8149 37.2094 20.5946C36.989 20.3742 36.8652 20.0754 36.8652 19.7638C36.8652 19.6095 36.8956 19.4567 36.9547 19.3142C37.0137 19.1716 37.1003 19.0421 37.2094 18.933C37.3185 18.8239 37.448 18.7374 37.5905 18.6783C37.7331 18.6193 37.8858 18.5889 38.0401 18.5889Z" fill="#444444"/>
            <path d="M33.3054 18.5884C33.6123 18.5955 33.9042 18.7224 34.1188 18.9419C34.3333 19.1615 34.4534 19.4563 34.4534 19.7633C34.4534 19.9176 34.423 20.0704 34.3639 20.213C34.3049 20.3555 34.2183 20.485 34.1092 20.5941C34.0001 20.7032 33.8706 20.7898 33.7281 20.8488C33.5855 20.9079 33.4327 20.9382 33.2785 20.9382C32.9668 20.9382 32.668 20.8145 32.4477 20.5941C32.2273 20.3738 32.1036 20.0749 32.1036 19.7633C32.1023 19.6064 32.1327 19.4508 32.193 19.3059C32.2533 19.161 32.3422 19.0298 32.4544 18.9201C32.5666 18.8104 32.6998 18.7245 32.846 18.6675C32.9923 18.6105 33.1485 18.5836 33.3054 18.5884Z" fill="#444444"/>
            <path fill-rule="evenodd" clip-rule="evenodd" d="M11.6641 18.9293C11.6641 17.9778 12.042 17.0653 12.7148 16.3925C13.3876 15.7198 14.3001 15.3418 15.2515 15.3418H40.3639C41.3153 15.3418 42.2278 15.7198 42.9006 16.3925C43.5734 17.0653 43.9514 17.9778 43.9514 18.9293V40.7142C43.9514 41.6657 43.5734 42.5782 42.9006 43.251C42.2278 43.9237 41.3153 44.3017 40.3639 44.3017H15.2515C14.3001 44.3017 13.3876 43.9237 12.7148 43.251C12.042 42.5782 11.6641 41.6657 11.6641 40.7142V18.9293ZM15.2515 17.1355C14.7758 17.1355 14.3196 17.3245 13.9832 17.6609C13.6468 17.9973 13.4578 18.4535 13.4578 18.9293V21.6916L42.1576 21.6019V18.9113C42.1576 18.4356 41.9686 17.9794 41.6322 17.643C41.2959 17.3066 40.8396 17.1176 40.3639 17.1176L15.2515 17.1355ZM42.1576 23.4136L13.4578 23.5033V40.7142C13.4578 41.19 13.6468 41.6462 13.9832 41.9826C14.3196 42.319 14.7758 42.508 15.2515 42.508H40.3639C40.8396 42.508 41.2959 42.319 41.6322 41.9826C41.9686 41.6462 42.1576 41.19 42.1576 40.7142V23.4136Z" fill="#444444"/>
            <path fill-rule="evenodd" clip-rule="evenodd" d="M26.032 29.3689C26.032 29.8124 26.1635 30.2459 26.4099 30.6146C26.6563 30.9833 27.0064 31.2707 27.4162 31.4404C27.8259 31.6101 28.2767 31.6545 28.7116 31.568C29.1466 31.4815 29.5461 31.2679 29.8596 30.9544C30.1732 30.6408 30.3868 30.2413 30.4733 29.8063C30.5598 29.3714 30.5154 28.9206 30.3457 28.5109C30.176 28.1012 29.8886 27.751 29.5199 27.5046C29.1512 27.2582 28.7177 27.1267 28.2742 27.1267C27.9794 27.1256 27.6873 27.1827 27.4148 27.295C27.1422 27.4073 26.8945 27.5724 26.6861 27.7808C26.4777 27.9893 26.3125 28.2369 26.2003 28.5095C26.088 28.782 26.0308 29.0741 26.032 29.3689ZM28.2742 25.333C27.476 25.333 26.6957 25.5697 26.032 26.0132C25.3683 26.4567 24.851 27.087 24.5455 27.8244C24.24 28.5619 24.1601 29.3734 24.3158 30.1563C24.4716 30.9392 24.8559 31.6583 25.4204 32.2227C25.9848 32.7872 26.7039 33.1716 27.4868 33.3273C28.2697 33.483 29.0812 33.4031 29.8187 33.0976C30.5561 32.7921 31.1865 32.2749 31.6299 31.6112C32.0734 30.9475 32.3101 30.1671 32.3101 29.3689C32.3101 28.2985 31.8849 27.272 31.128 26.5151C30.3711 25.7582 29.3446 25.333 28.2742 25.333Z" fill="#444444"/>
            <path fill-rule="evenodd" clip-rule="evenodd" d="M20.6504 40.5795C20.6504 39.1523 21.2173 37.7835 22.2265 36.7744C23.2357 35.7652 24.6044 35.1982 26.0316 35.1982H29.6191C31.0463 35.1982 32.415 35.7652 33.4242 36.7744C34.4334 37.7835 35.0003 39.1523 35.0003 40.5795H33.2066C33.2066 39.628 32.8286 38.7155 32.1558 38.0427C31.483 37.3699 30.5705 36.992 29.6191 36.992H26.0316C25.0801 36.992 24.1677 37.3699 23.4949 38.0427C22.8221 38.7155 22.4441 39.628 22.4441 40.5795H20.6504Z" fill="#444444"/>
        </g>
    </g>
    <defs>
        <linearGradient id="paint0_linear_6616_62359" x1="27.8253" y1="43.7093" x2="27.8253" y2="36.2383" gradientUnits="userSpaceOnUse">
            <stop stop-color="#BDF4D0"/>
            <stop offset="1" stop-color="#BDF4D0" stop-opacity="0"/>
        </linearGradient>
        <clipPath id="clip0_6616_62359">
            <rect width="43.9466" height="43.9466" fill="white" transform="translate(0.373047 0.802734)"/>
        </clipPath>
    </defs>
</svg>
