<svg width="288" height="227" viewBox="0 0 288 227" fill="none" xmlns="http://www.w3.org/2000/svg">
    <g clip-path="url(#clip0_6616_61369)">
        <path d="M143.893 226.076C203.68 226.076 252.146 177.609 252.146 117.823C252.146 58.0367 203.68 9.57031 143.893 9.57031C84.107 9.57031 35.6406 58.0367 35.6406 117.823C35.6406 177.609 84.107 226.076 143.893 226.076Z" fill="#F0F9FF"/>
        <mask id="mask0_6616_61369" style="mask-type:alpha" maskUnits="userSpaceOnUse" x="35" y="9" width="239" height="218">
            <path d="M273.88 87.4295C273.88 110.33 277.518 183.776 232.9 179.454C213.356 207.628 180.779 226.076 143.893 226.076C84.1069 226.076 35.6406 177.609 35.6406 117.823C35.6406 58.0366 84.1069 9.57031 143.893 9.57031C203.679 9.57031 273.88 27.6432 273.88 87.4295Z" fill="#F0F9FF"/>
        </mask>
        <g mask="url(#mask0_6616_61369)">
            <path d="M155.345 192.237L155.169 193.022C154.982 193.863 154.768 194.828 154.534 195.894C152.48 205.286 148.875 222.394 147.162 230.089L144.041 230.122C145.753 222.445 149.297 205.629 151.37 196.139C151.62 195 151.847 193.963 152.039 193.065L152.247 192.139C152.271 192.036 152.293 191.934 152.315 191.832C153.165 192.012 154.594 192.259 155.345 192.237Z" fill="#A5D4F5"/>
            <path d="M239.631 191.696L239.128 193.943C238.939 194.797 238.733 195.726 238.515 196.726C236.441 206.15 233.197 221.252 231.426 229.205L228.527 229.235C230.3 221.225 233.819 204.786 235.556 196.955C235.707 196.287 235.843 195.662 235.966 195.125C236.053 194.743 236.137 194.36 236.225 193.979L236.76 191.613C238.381 191.666 237.995 191.696 239.631 191.696Z" fill="#B8A59C"/>
            <path d="M152.037 193.065C151.835 193.956 151.608 195 151.367 196.139L154.543 195.894C154.765 194.828 154.988 193.862 155.178 193.022C154.126 193.033 153.079 193.044 152.037 193.065Z" fill="#2871A4"/>
            <path d="M236.213 193.985C236.127 194.367 236.042 194.75 235.954 195.132C235.833 195.669 235.696 196.285 235.545 196.962L237.457 196.815L238.512 196.732C238.736 195.736 238.936 194.804 239.125 193.95L236.213 193.985Z" fill="#99867E"/>
            <path d="M90.7912 186.515L36.418 190.032C41.0513 185.572 37.0445 192.879 37.0378 192.907L134.91 192.239L251.234 191.4L90.7912 186.515Z" fill="#A5D4F5"/>
            <path d="M66.7364 190.16C66.547 191.74 66.4555 191.517 66.1211 193.076L250.383 194.318C250.684 192.74 250.812 192.954 251.231 191.402L66.7364 190.16Z" fill="#A5D4F5"/>
            <path d="M158.076 187.062C156.961 187.042 153.723 187.022 151.228 187.004C150.026 187.004 148.999 186.987 148.465 186.978C147.373 182.145 146.28 177.314 145.19 172.484C144.892 171.156 144.595 169.827 144.298 168.498C143.932 166.888 143.568 165.278 143.205 163.668C143.146 163.409 143.087 163.151 143.029 162.892C143.783 162.913 144.537 162.891 145.288 162.826C146.111 162.754 151.676 162.665 152.528 162.486C152.55 162.589 152.574 162.691 152.597 162.794C153.043 164.752 153.485 166.709 153.923 168.665C154.168 169.753 154.415 170.841 154.662 171.93C155.796 176.971 156.933 182.016 158.076 187.062Z" fill="#2B244A"/>
            <path d="M153.887 168.586C150.886 168.438 147.883 168.38 144.877 168.41H144.262C144.559 169.739 144.856 171.068 145.154 172.398L145.446 172.377C147.292 172.248 149.139 172.131 150.989 172.027C152.198 171.96 153.406 171.899 154.617 171.842C154.377 170.759 154.134 169.675 153.887 168.586Z" fill="#0D0B17"/>
            <path d="M205.947 109.495C205.947 109.533 205.937 109.571 205.928 109.612L205.332 112.662L202.822 125.549L194.613 167.691C194.508 168.237 194.215 168.728 193.785 169.082C193.357 169.436 192.817 169.629 192.262 169.629H106.018C105.72 169.629 105.424 169.563 105.153 169.436C104.883 169.308 104.644 169.122 104.453 168.891C104.264 168.66 104.127 168.39 104.054 168.1C103.981 167.81 103.972 167.507 104.03 167.214L115.486 108.398C115.576 107.936 115.824 107.521 116.188 107.221C116.551 106.922 117.007 106.758 117.477 106.757H203.578C203.808 106.756 204.037 106.79 204.257 106.856C204.809 107.02 205.283 107.376 205.594 107.862C205.904 108.346 206.029 108.926 205.947 109.495Z" fill="#2B244A"/>
            <path d="M202.515 108.193L192.476 159.855H106.713L116.752 108.193H202.515Z" fill="white"/>
            <path d="M115.156 116.36L116.683 108.435L201.084 108.193C201.186 108.193 201.38 108.257 201.38 108.257L201.626 108.435L201.777 108.697L201.81 108.999C201.81 108.999 201.271 113.244 200.976 116.118L115.156 116.36Z" fill="#D3EDFF"/>
            <path d="M118.624 118.586C123.649 118.539 150.379 118.3 156.732 118.371C156.894 118.37 157.054 118.391 157.202 118.43C157.35 118.471 157.482 118.53 157.59 118.604C157.697 118.678 157.778 118.766 157.825 118.862C157.873 118.956 157.868 119.155 157.868 119.155C157.868 119.155 153.688 136.905 153.366 138.656C153.34 138.782 153.239 138.898 153.082 138.982C152.926 139.066 152.724 139.112 152.517 139.11C147.222 139.136 116.557 139.045 114.698 139.075C114.567 139.076 114.438 139.061 114.319 139.029C114.199 138.997 114.091 138.951 114.002 138.893C113.914 138.834 113.846 138.765 113.804 138.689C113.762 138.613 113.746 138.533 113.758 138.453C114.089 136.136 117.343 121.46 117.726 119.074C117.752 118.939 117.858 118.815 118.024 118.724C118.189 118.635 118.403 118.586 118.624 118.586Z" fill="#D3EDFF"/>
            <path d="M162.747 118.586C167.773 118.539 167.971 118.334 174.324 118.404C174.485 118.403 174.646 118.424 174.794 118.465C174.942 118.505 175.074 118.564 175.182 118.639C175.289 118.713 175.369 118.8 175.417 118.895C175.465 118.99 175.46 119.189 175.46 119.189C175.46 119.189 171.28 136.94 170.958 138.689C170.932 138.815 170.831 138.932 170.674 139.016C170.518 139.1 170.316 139.145 170.108 139.144C164.814 139.17 160.68 139.045 158.82 139.075C158.69 139.076 158.561 139.061 158.441 139.029C158.322 138.997 158.214 138.951 158.126 138.893C158.037 138.834 157.97 138.765 157.927 138.689C157.885 138.613 157.869 138.533 157.88 138.454C158.212 136.136 161.466 121.46 161.849 119.074C161.876 118.939 161.981 118.815 162.147 118.724C162.312 118.635 162.526 118.586 162.747 118.586Z" fill="#D3EDFF"/>
            <path d="M180.788 118.586C185.814 118.539 186.012 118.334 192.365 118.404C192.526 118.403 192.687 118.424 192.835 118.465C192.983 118.505 193.115 118.564 193.223 118.639C193.33 118.713 193.41 118.8 193.458 118.895C193.506 118.99 193.501 119.189 193.501 119.189C193.501 119.189 189.321 136.94 188.999 138.689C188.973 138.815 188.872 138.932 188.715 139.016C188.559 139.1 188.357 139.145 188.149 139.144C182.855 139.17 178.721 139.045 176.861 139.075C176.731 139.076 176.602 139.061 176.482 139.029C176.363 138.997 176.255 138.951 176.167 138.893C176.078 138.834 176.011 138.765 175.968 138.689C175.926 138.613 175.91 138.533 175.921 138.454C176.253 136.136 179.507 121.46 179.89 119.074C179.917 118.939 180.022 118.815 180.188 118.724C180.353 118.635 180.567 118.586 180.788 118.586Z" fill="#6D9AFF"/>
            <path d="M114.646 143.797C119.967 143.755 120.178 143.565 126.903 143.63C127.074 143.63 127.244 143.648 127.4 143.685C127.557 143.723 127.697 143.777 127.81 143.847C127.925 143.915 128.01 143.997 128.06 144.084C128.112 144.173 128.105 144.357 128.105 144.357C128.105 144.357 126.96 146.984 126.618 148.605C126.591 148.722 126.484 148.829 126.318 148.907C126.152 148.985 125.938 149.027 125.718 149.026C120.114 149.05 115.737 148.935 113.768 148.962C113.631 148.963 113.494 148.948 113.368 148.919C113.24 148.89 113.127 148.847 113.033 148.793C112.939 148.738 112.868 148.674 112.823 148.605C112.779 148.534 112.761 148.46 112.773 148.386C113.367 145.908 113.291 146.46 113.696 144.249C113.724 144.125 113.836 144.01 114.011 143.926C114.187 143.843 114.412 143.797 114.646 143.797Z" fill="#D3EDFF"/>
            <path d="M112.843 152.818C118.165 152.775 118.375 152.585 125.1 152.651C125.271 152.65 125.441 152.669 125.597 152.706C125.754 152.744 125.894 152.798 126.008 152.867C126.122 152.936 126.207 153.017 126.257 153.105C126.309 153.193 126.303 153.377 126.303 153.377C126.303 153.377 125.157 156.004 124.815 157.625C124.788 157.742 124.681 157.85 124.515 157.927C124.35 158.006 124.136 158.047 123.916 158.046C118.311 158.071 113.934 157.955 111.965 157.982C111.828 157.983 111.691 157.969 111.565 157.94C111.438 157.91 111.324 157.868 111.23 157.814C111.136 157.759 111.065 157.695 111.02 157.625C110.976 157.555 110.959 157.481 110.97 157.407C111.564 154.929 111.488 155.481 111.893 153.27C111.921 153.145 112.033 153.031 112.208 152.947C112.384 152.864 112.61 152.818 112.843 152.818Z" fill="#D3EDFF"/>
            <path d="M152.535 143.797C157.856 143.755 158.066 143.565 164.791 143.63C164.963 143.63 165.132 143.648 165.289 143.685C165.445 143.723 165.585 143.777 165.699 143.847C165.814 143.915 165.898 143.997 165.949 144.084C166 144.173 165.994 144.357 165.994 144.357C165.994 144.357 164.848 146.984 164.506 148.605C164.479 148.722 164.373 148.829 164.207 148.907C164.041 148.985 163.827 149.027 163.607 149.026C158.002 149.05 153.625 148.935 151.657 148.962C151.52 148.963 151.383 148.948 151.256 148.919C151.129 148.89 151.015 148.847 150.922 148.793C150.828 148.738 150.757 148.674 150.711 148.605C150.667 148.534 150.65 148.46 150.662 148.386C151.255 145.908 151.18 146.46 151.585 144.249C151.613 144.125 151.724 144.01 151.899 143.926C152.075 143.843 152.301 143.797 152.535 143.797Z" fill="#D3EDFF"/>
            <path d="M150.841 152.818C156.475 152.775 156.698 152.585 163.818 152.651C163.999 152.65 164.179 152.669 164.345 152.706C164.511 152.744 164.659 152.798 164.78 152.867C164.9 152.936 164.991 153.017 165.044 153.105C165.098 153.193 165.092 153.377 165.092 153.377C165.092 153.377 163.878 156.004 163.517 157.625C163.488 157.742 163.375 157.85 163.199 157.927C163.023 158.006 162.798 158.047 162.564 158.046C156.63 158.071 151.996 157.955 149.912 157.982C149.766 157.983 149.621 157.969 149.487 157.94C149.353 157.91 149.232 157.868 149.133 157.814C149.033 157.759 148.958 157.695 148.911 157.625C148.863 157.555 148.845 157.481 148.857 157.407C149.486 154.929 149.406 155.481 149.834 153.27C149.864 153.145 149.983 153.031 150.168 152.947C150.354 152.864 150.593 152.818 150.841 152.818Z" fill="#D3EDFF"/>
            <path d="M174.185 143.797C179.506 143.755 179.717 143.565 186.442 143.63C186.613 143.63 186.783 143.648 186.939 143.685C187.096 143.723 187.236 143.777 187.349 143.847C187.464 143.915 187.549 143.997 187.599 144.084C187.651 144.173 187.644 144.357 187.644 144.357C187.644 144.357 186.499 146.984 186.157 148.605C186.13 148.722 186.023 148.829 185.857 148.907C185.691 148.985 185.478 149.027 185.257 149.026C179.653 149.05 175.276 148.935 173.307 148.962C173.17 148.963 173.033 148.948 172.907 148.919C172.779 148.89 172.666 148.847 172.572 148.793C172.478 148.738 172.407 148.674 172.362 148.605C172.318 148.534 172.3 148.46 172.312 148.386C172.906 145.908 172.83 146.46 173.235 144.249C173.263 144.125 173.375 144.01 173.55 143.926C173.726 143.843 173.951 143.797 174.185 143.797Z" fill="#D3EDFF"/>
            <path d="M172.38 152.818C177.702 152.775 177.912 152.585 184.637 152.651C184.809 152.65 184.978 152.669 185.134 152.706C185.291 152.744 185.431 152.798 185.545 152.867C185.659 152.936 185.744 153.017 185.795 153.105C185.846 153.193 185.84 153.377 185.84 153.377C185.84 153.377 184.694 156.004 184.352 157.625C184.325 157.742 184.219 157.85 184.053 157.927C183.887 158.006 183.673 158.047 183.453 158.046C177.848 158.071 173.471 157.955 171.503 157.982C171.365 157.983 171.228 157.969 171.102 157.94C170.975 157.91 170.861 157.868 170.767 157.814C170.673 157.759 170.602 157.695 170.557 157.625C170.513 157.555 170.496 157.481 170.507 157.407C171.101 154.929 171.025 155.481 171.43 153.27C171.458 153.145 171.57 153.031 171.745 152.947C171.921 152.864 172.147 152.818 172.38 152.818Z" fill="#D3EDFF"/>
            <path d="M133.591 143.797C138.913 143.755 139.123 143.565 145.848 143.63C146.02 143.63 146.189 143.648 146.345 143.685C146.502 143.723 146.642 143.777 146.756 143.847C146.87 143.915 146.955 143.997 147.006 144.084C147.057 144.173 147.051 144.357 147.051 144.357C147.051 144.357 145.905 146.984 145.563 148.605C145.536 148.722 145.43 148.829 145.264 148.907C145.098 148.985 144.884 149.027 144.664 149.026C139.059 149.05 134.682 148.935 132.713 148.962C132.576 148.963 132.439 148.948 132.313 148.919C132.186 148.89 132.072 148.847 131.978 148.793C131.884 148.738 131.813 148.674 131.768 148.605C131.724 148.534 131.707 148.46 131.718 148.386C132.312 145.908 132.236 146.46 132.641 144.249C132.669 144.125 132.781 144.01 132.956 143.926C133.132 143.843 133.358 143.797 133.591 143.797Z" fill="#D3EDFF"/>
            <path d="M131.787 152.818C137.108 152.775 137.318 152.585 144.043 152.651C144.215 152.65 144.384 152.669 144.54 152.706C144.697 152.744 144.837 152.798 144.951 152.867C145.066 152.936 145.15 153.017 145.201 153.105C145.252 153.193 145.246 153.377 145.246 153.377C145.246 153.377 144.1 156.004 143.758 157.625C143.731 157.742 143.625 157.85 143.459 157.927C143.293 158.006 143.079 158.047 142.859 158.046C137.254 158.071 132.877 157.955 130.909 157.982C130.772 157.983 130.635 157.969 130.508 157.94C130.381 157.91 130.267 157.868 130.174 157.814C130.08 157.759 130.008 157.695 129.963 157.625C129.919 157.555 129.902 157.481 129.914 157.407C130.507 154.929 130.432 155.481 130.837 153.27C130.865 153.145 130.976 153.031 131.151 152.947C131.327 152.864 131.553 152.818 131.787 152.818Z" fill="#D3EDFF"/>
            <path d="M158.36 188.912L139.63 188.636L139.16 186.141L157.981 186.417L158.36 188.912Z" fill="#B36242"/>
            <path d="M157.952 186.567C157.317 186.552 156.679 186.532 156.041 186.52L152.23 169.639H154.128C154.285 170.431 157.43 183.763 157.952 186.567Z" fill="#1B1823"/>
            <path d="M145.392 189.294H90.623L91.5847 186.515H146.351L145.392 189.294Z" fill="#401D1D"/>
            <path d="M89.4984 218.229C89.2419 217.669 88.3969 217.546 87.8751 217.384C87.0219 217.117 86.1591 216.887 85.2865 216.694C83.9859 216.407 82.6685 216.202 81.3421 216.079C80.9497 216.039 80.555 216.01 80.1604 215.988C78.1741 215.873 76.1814 215.948 74.2092 216.211C72.9138 216.385 71.2081 216.935 71.2751 218.543C71.276 218.566 71.2844 218.589 71.2988 218.608C71.3131 218.626 71.3331 218.639 71.3555 218.647C71.378 218.654 71.4021 218.653 71.4244 218.646C71.4467 218.638 71.4662 218.624 71.4801 218.605C71.394 219.326 71.304 220.047 71.2104 220.766C71.148 221.256 71.081 221.744 71.0142 222.235C70.6172 225.131 70.1594 228.018 69.6406 230.895L87.8105 230.706C87.9309 230.012 88.0335 229.312 88.1382 228.621C88.4103 226.927 88.6726 225.23 88.9253 223.533C88.9543 223.35 88.981 223.17 89.0078 222.987C89.1461 222.046 89.2813 221.106 89.4137 220.166C89.485 219.593 89.7414 218.79 89.4984 218.229Z" fill="#7D443B"/>
            <path d="M70.4161 207.904C69.8438 210.44 69.27 212.979 68.6948 215.517C68.3484 217.045 68.0036 218.573 67.6602 220.1C67.4974 220.811 67.3368 221.524 67.1763 222.235C66.5208 225.139 65.8646 228.038 65.2075 230.932L62.0859 230.965C62.7429 228.048 63.4015 225.134 64.0615 222.22C64.2696 221.306 64.4762 220.392 64.6813 219.479C64.9786 218.16 65.2759 216.842 65.5732 215.525C66.1573 212.946 66.7401 210.37 67.3213 207.793C67.3436 207.692 67.3681 207.589 67.3904 207.486C68.2355 207.675 69.6558 207.923 70.4161 207.904Z" fill="#B8A59C"/>
            <path d="M116.797 220.293C116.699 223.388 116.061 227.615 115.549 230.418L111.616 230.458H111.598C110.663 230.44 109.743 230.458 108.828 230.487H108.81L92.6896 230.657C93.2119 228.65 94.3152 225.528 93.9119 223.896C93.635 223.896 93.3986 223.896 93.2119 223.896C92.2746 223.896 90.7591 223.749 88.9149 223.528C85.9226 223.167 82.0497 222.587 78.3015 221.968C75.773 221.557 73.3025 221.133 71.1999 220.753C69.8375 220.504 68.6291 220.277 67.6592 220.083C67.0415 219.959 66.522 219.86 66.1207 219.76C65.6413 219.651 65.1574 219.557 64.6713 219.474C62.2365 219.056 59.7147 218.895 57.2732 218.503C56.6043 218.395 55.9354 218.28 55.2665 218.112C53.2709 217.647 51.3645 216.92 49.6409 215.659C49.418 215.486 49.1749 215.303 48.9475 215.109C46.7802 213.261 45.6408 210.794 45.4 207.974C45.293 206.282 45.2841 204.585 45.3733 202.893C45.4268 201.122 45.5138 199.354 45.5962 197.586H45.5785C45.5489 197.594 45.5173 197.589 45.4908 197.574C45.4643 197.559 45.4449 197.534 45.4368 197.504C45.4289 197.475 45.433 197.443 45.4482 197.417C45.4635 197.39 45.4886 197.371 45.5182 197.363C47.9709 196.642 50.4318 195.947 52.9008 195.28L54.6266 194.816C58.808 193.709 63.0072 192.675 67.2244 191.717C68.8595 191.347 70.4909 190.989 72.1186 190.642C72.9792 190.46 74.5467 189.886 75.2156 190.792C75.5456 191.238 75.4609 191.878 75.4497 192.398C75.4334 193.178 75.4163 193.958 75.3985 194.739C75.3829 195.516 75.1621 196.683 75.53 197.414C75.8712 198.083 76.7273 198.305 77.3873 198.529C83.5012 200.625 107.914 206.446 112.572 210.032C114.714 211.688 117.027 213.18 116.797 220.293Z" fill="#401D1D"/>
            <path d="M157.834 184.515C156.941 184.052 151.664 184.67 151.59 184.685C149.343 185.2 147.943 187.185 147.461 189.441C147.456 189.457 147.454 189.474 147.456 189.491C147.458 189.509 147.465 189.525 147.475 189.539C147.484 189.554 147.497 189.565 147.512 189.574C147.527 189.583 147.544 189.587 147.561 189.588C152.975 189.49 155.961 189.84 160.756 189.675C160.781 189.675 160.805 189.668 160.825 189.654C160.845 189.64 160.86 189.62 160.868 189.597C161.426 187.316 159.637 185.452 157.834 184.515Z" fill="#401D1D"/>
            <path d="M88.435 145.823C85.9142 144.339 81.6477 141.271 78.832 140.477C81.5746 136.018 84.3714 131.591 87.2224 127.197C89.8446 128.388 94.1093 131.479 96.4042 133.223C93.6997 137.392 91.0439 141.593 88.435 145.823Z" fill="#BF6541"/>
            <path d="M161.651 184.45C161.015 184.755 160.313 184.779 159.644 184.797C157.864 184.837 156.084 184.731 154.321 184.48C154.342 184.745 154.348 185.011 154.337 185.276C154.303 186.09 153.414 189.564 152.317 190.404C151.86 190.754 151.584 190.182 151.546 189.735C151.178 190.596 150.703 191.296 150.137 191.171C150.095 191.246 150.045 191.316 149.987 191.379C149.931 191.458 149.853 191.52 149.762 191.555C149.672 191.591 149.573 191.599 149.477 191.579C149.382 191.558 149.295 191.51 149.227 191.44C149.16 191.371 149.114 191.282 149.096 191.187C149.031 190.849 148.999 190.506 149.002 190.164C148.961 189.655 148.923 189.144 148.884 188.636C148.843 188.127 148.711 186.453 148.462 186.279C147.066 185.876 143.653 186.608 142.318 186.038C141.805 185.861 141.371 185.511 141.089 185.048C141.07 185.01 140.867 184.682 140.839 184.644C139.782 184.66 138.911 184.698 137.941 184.758C137.085 184.807 136.157 184.874 134.964 184.952L134.114 185.005C134.048 185.005 134.313 184.689 134.322 184.625C134.482 183.537 135.027 180.96 135.448 179.944C135.432 179.932 135.422 179.915 135.417 179.896C135.412 179.877 135.412 179.857 135.42 179.839C135.426 179.82 135.438 179.804 135.453 179.792C135.469 179.78 135.488 179.774 135.507 179.773H135.541C135.559 179.768 135.578 179.768 135.596 179.773L136.029 179.762C136.636 179.747 137.241 179.726 137.844 179.699C138.843 179.658 139.842 179.6 140.84 179.526C141.679 179.463 142.525 179.345 143.364 179.343C144.127 179.37 144.877 179.538 145.579 179.838C148.799 181.046 156.558 182.959 157.173 183.022C158.246 183.161 159.331 183.166 160.404 183.035L161.441 182.935C161.612 182.913 161.785 182.906 161.959 182.914C162.093 182.905 162.227 182.945 162.334 183.027C162.441 183.109 162.514 183.228 162.541 183.361C162.65 183.891 162.061 184.257 161.651 184.45Z" fill="#BF6541"/>
            <path d="M92.9314 138.684C91.4989 138.195 88.248 131.147 88.248 131.147L92.5805 131.619L95.1849 133.629C96.0599 135.736 93.5755 137.567 92.9314 138.684Z" fill="#AF5430"/>
            <path d="M105.16 124.747C104.861 123.886 102.63 120.528 102.168 119.598C102.154 119.575 102.134 119.558 102.108 119.549C102.083 119.54 102.056 119.541 102.031 119.551C102.006 119.56 101.986 119.578 101.973 119.602C101.96 119.625 101.957 119.652 101.962 119.679C101.948 119.683 101.934 119.69 101.922 119.7C101.91 119.681 101.892 119.667 101.87 119.658C101.849 119.65 101.826 119.648 101.803 119.654C101.782 119.66 101.762 119.672 101.747 119.689C101.732 119.707 101.723 119.729 101.722 119.752C101.544 122.38 102.016 124.976 102.507 127.556C102.51 127.572 102.517 127.588 102.528 127.602C102.538 127.615 102.551 127.626 102.567 127.634C102.582 127.642 102.598 127.646 102.615 127.646C102.632 127.647 102.65 127.643 102.665 127.636C103.88 127.23 105.724 126.365 105.16 124.747Z" fill="#BF6541"/>
            <path d="M104.463 126C104.039 126 103.631 125.65 103.308 125.003C102.653 123.513 102.523 121.846 102.936 120.272C103.158 119.549 103.533 119.132 103.979 119.099C104.851 119.034 105.625 120.461 105.781 122.428C105.855 123.234 105.779 124.046 105.557 124.824C105.334 125.545 104.96 125.962 104.514 125.997L104.463 126ZM104.039 119.534H104.015C103.769 119.553 103.524 119.875 103.359 120.397C102.984 121.86 103.106 123.407 103.707 124.794C103.95 125.284 104.24 125.565 104.487 125.545C104.734 125.525 104.978 125.202 105.143 124.682C105.344 123.957 105.409 123.201 105.334 122.452C105.199 120.72 104.548 119.543 104.039 119.543V119.534Z" fill="#F7E9E1"/>
            <path d="M103 130.486C103.02 130.06 103.049 129.406 103.059 128.891C103.059 128.768 103.059 128.653 103.059 128.55C103.059 126.869 102.953 125.177 102.81 123.513C102.694 122.113 102.562 115.006 102.453 114.255C102.451 114.232 102.44 114.209 102.422 114.194C102.403 114.177 102.379 114.169 102.355 114.17C102.35 114.151 102.339 114.134 102.322 114.123C102.305 114.112 102.285 114.108 102.265 114.111C98.096 114.253 93.2598 115.894 89.697 118.077C88.8018 118.618 87.9451 119.221 87.1329 119.88C86.4038 120.476 85.7215 121.161 85.4428 122.086C85.124 123.138 85.1083 124.365 85.1328 125.457C85.1371 126.424 85.313 127.383 85.6524 128.289C86.0538 129.293 86.7543 130.149 87.6591 130.742C88.5131 131.317 90.3351 133.021 90.3351 132.972C91.7063 134.363 93.1578 135.758 94.9774 136.523C96.676 137.232 99.0152 137.44 100.609 136.405C102.355 135.27 102.75 133.408 102.926 131.437C102.959 131.121 102.979 130.804 103 130.486Z" fill="#BF6541"/>
            <path d="M102.084 122.116C102.084 123.05 101.688 123.804 101.216 123.802C100.743 123.799 100.366 123.039 100.373 122.105C100.379 121.17 100.767 120.417 101.238 120.419C101.708 120.422 102.088 121.182 102.084 122.116Z" fill="#401D1D"/>
            <path d="M102.581 116.941C101.578 116.985 100.055 117.244 99.2726 117.734C98.6303 118.135 98.661 118.815 99.4955 119.123C100.006 119.315 100.61 119.275 101.147 119.288C101.533 119.288 101.923 119.308 102.309 119.315C102.425 119.322 102.542 119.313 102.655 119.286C102.626 118.365 102.693 117.734 102.581 116.941Z" fill="#733220"/>
            <path d="M137.841 179.686C137.236 179.713 136.631 179.733 136.026 179.749C135.76 180.741 135.513 181.755 135.346 182.758C135.319 182.912 135.389 184.676 135.346 184.939C136.54 184.861 137.467 184.794 138.323 184.745L137.841 179.686Z" fill="#9C4725"/>
            <path d="M103.061 128.887C102.287 129.404 101.246 129.297 100.291 129.166C99.6608 129.081 99.6229 129.587 100.097 129.892C100.791 130.339 101.964 130.818 102.806 130.562C102.874 130.541 102.939 130.512 103 130.477C103.02 130.055 103.05 129.402 103.061 128.887Z" fill="white"/>
            <path d="M104.513 110.335C104.068 110.15 103.424 110.157 103.212 109.622C103.057 109.232 103.046 108.73 102.973 108.32C102.848 107.651 102.761 106.897 102.339 106.313C101.383 105.014 99.1873 105.461 97.9162 106.09C97.7953 104.942 96.6893 104.233 95.559 104.208C94.1544 104.177 92.73 104.92 91.7061 105.82C91.1333 106.326 90.7319 106.962 90.2056 107.503C89.5144 108.212 88.6448 108.313 87.6972 108.244C86.9881 108.191 86.268 108.074 85.5567 108.188C84.885 108.311 84.2597 108.615 83.7484 109.067C83.1575 109.576 82.6834 110.208 82.3582 110.917C82.0331 111.627 81.8647 112.398 81.8643 113.178C80.6156 113.624 79.2176 114.318 79.0727 115.767C79.0585 116.112 79.1162 116.456 79.2422 116.777C79.3379 117.052 79.3614 117.346 79.3107 117.633C79.26 117.92 79.1365 118.189 78.9523 118.413C78.464 119.083 77.7304 119.528 77.3915 120.311C77.169 120.859 77.1255 121.463 77.2673 122.037C77.4091 122.611 77.7288 123.125 78.1809 123.507C79.3849 124.469 80.9858 124.275 82.4039 123.93C81.6101 124.643 80.8654 126.017 82.0338 126.554C82.3749 126.71 82.7584 126.733 83.1108 126.855C83.6311 127.047 84.0585 127.431 84.3058 127.928C84.861 128.964 84.7651 129.277 84.56 130.381C84.4988 130.492 84.4724 130.619 84.4843 130.745C84.4962 130.871 84.5459 130.991 84.6268 131.09C85.0126 131.587 86.2457 131.431 86.821 131.386C87.229 131.355 87.6236 131.241 88.0249 131.163C88.5846 131.061 89.0885 131.134 89.646 131.111C90.3367 131.087 90.3151 130.401 90.297 129.857C90.2745 128.951 90.5199 128.539 90.297 127.669C90.0407 126.684 89.0216 125.607 89.3293 124.596C89.6371 123.587 90.3927 123.395 91.3787 123.067C92.177 122.799 93.0304 122.713 93.7981 122.354C95.227 121.684 95.4517 120.378 95.2848 119.042C95.8233 119.153 96.3781 119.15 96.9158 119.035C97.4534 118.92 97.9604 118.695 98.4061 118.374C99.1548 117.804 99.6717 116.983 99.8603 116.062C100.63 116.038 101.391 115.899 102.119 115.648C103.477 115.223 105.174 114.394 105.867 113.094C106.505 111.901 105.651 110.804 104.513 110.335Z" fill="#52281C"/>
            <path d="M105.54 121.473L98.1634 122.2C95.4543 122.468 92.7255 122.847 89.9985 122.753C89.7131 122.753 89.6461 123.184 89.9316 123.2C92.5586 123.291 95.1756 122.95 97.7845 122.691L105.589 121.921C105.557 121.774 105.541 121.624 105.54 121.473Z" fill="#F7E9E1"/>
            <path d="M93.0277 123.132C91.8036 121.81 89.6456 121.916 89.1595 123.578C88.6734 125.239 90.1428 127.248 91.4941 128.037C91.8559 128.239 92.2609 128.354 92.675 128.371C93.09 128.387 93.5022 128.307 93.8802 128.136C94.6867 127.801 94.9411 127.128 95.0683 126.313C95.3137 124.737 94.9682 123.545 93.0277 123.132Z" fill="#BF6541"/>
            <path d="M136.966 178.943C135.076 179.041 132.344 179.373 130.563 178.638C129.76 178.305 127.18 176.573 126.215 176.68C124.248 176.903 112.391 175.85 111.514 173.204C111.519 173.194 111.522 173.182 111.522 173.17C111.522 173.158 111.519 173.148 111.514 173.137C110.475 170.667 107.998 164.86 106.96 162.39C105.993 160.091 105.066 157.768 103.984 155.52C102.074 151.547 101.05 148.972 97.5471 146.265C96.4212 145.399 95.2287 144.626 93.9792 143.95C93.7176 143.219 93.4587 142.488 93.2016 141.756C92.9535 141.059 92.7731 139.932 92.1714 139.412C91.5021 138.842 81.7035 135.431 79.4336 135.693C77.6878 135.899 77.311 137.412 76.2786 138.543C72.6486 139.292 58.1354 141.767 56.1979 142.517C54.2449 143.295 52.4424 144.408 50.8712 145.805C49.0651 147.366 47.4285 149.127 45.7428 150.824L40.3604 156.267C38.7572 157.888 36.9556 159.454 35.678 161.36C34.6724 162.855 33.5931 165.252 34.3111 166.967C37.1451 173.737 43.4395 172.914 46.3136 172.604C45.8253 173.634 44.0639 181.405 43.2768 183.857C42.532 186.18 41.9814 190.13 42.8554 192.498C43.7004 194.789 45.3705 196.734 45.8209 199.169C45.8297 199.197 45.8489 199.22 45.8746 199.235C45.9002 199.249 45.9304 199.254 45.9591 199.246C54.5221 197.259 63.2049 195.829 71.953 194.966C73.0389 194.859 74.1269 194.774 75.2127 194.671C76.0043 194.595 76.3009 194.263 76.6309 193.557C77.4603 191.772 87.7905 173.064 88.3881 171.629C90.2923 173.382 99.8285 188.031 101.608 189.501C102.293 190.11 103.092 190.578 103.958 190.878C104.946 191.18 119.706 193.063 125.279 192.333C126.153 192.216 126.942 191.708 127.586 191.09C128.23 190.473 128.672 189.657 129.147 188.903C129.74 187.927 130.604 187.142 131.633 186.644C132.632 186.163 133.709 185.873 134.721 185.424C135.145 185.235 135.575 185.028 135.836 184.636C136.148 184.189 136.204 183.601 136.302 183.074C136.548 181.746 136.793 180.417 137.04 179.088C137.045 179.074 137.047 179.058 137.046 179.044C137.045 179.028 137.04 179.014 137.034 179C137.027 178.987 137.018 178.974 137.006 178.964C136.994 178.955 136.981 178.947 136.966 178.943Z" fill="#008B85"/>
            <path d="M93.1248 125.943C92.0595 125.859 92.1758 124.701 91.9124 123.937C91.8023 123.589 91.5849 123.285 91.29 123.069C91.1745 122.987 91.0671 123.179 91.1763 123.263C92.2489 124.037 91.4884 126.026 93.1248 126.162C93.2683 126.178 93.2656 125.954 93.1248 125.943Z" fill="#9C4725"/>
            <path d="M150.574 184.838C150.249 184.366 149.607 184.146 149.119 183.891C148.991 183.824 148.878 184.018 149.005 184.082C149.547 184.366 150.294 184.611 150.523 185.231C150.686 185.677 150.644 186.185 150.626 186.643C150.583 187.787 150.437 188.926 150.193 190.045C150.162 190.185 150.379 190.246 150.417 190.105C150.718 188.772 150.868 187.408 150.862 186.04C150.885 185.621 150.785 185.203 150.574 184.838Z" fill="#9C4725"/>
            <path d="M152.419 183.7C152.115 183.254 151.48 183.031 151.034 182.781C151.009 182.77 150.98 182.768 150.954 182.777C150.928 182.786 150.905 182.803 150.892 182.827C150.878 182.851 150.874 182.879 150.879 182.906C150.885 182.933 150.9 182.957 150.922 182.973C151.406 183.249 152.147 183.511 152.351 184.072C152.557 184.634 152.468 185.348 152.392 185.917C152.2 187.101 151.932 188.273 151.592 189.423C151.584 189.453 151.587 189.485 151.603 189.512C151.618 189.538 151.643 189.558 151.673 189.565C151.703 189.573 151.733 189.569 151.761 189.554C151.787 189.539 151.807 189.513 151.815 189.484C152.178 188.099 152.63 186.667 152.684 185.228C152.695 184.743 152.709 184.114 152.419 183.7Z" fill="#9C4725"/>
            <path d="M86.3806 167.871C83.8412 163.98 82.028 159.661 81.0293 155.123C80.9981 154.983 80.784 155.043 80.8063 155.184C81.8131 159.741 83.6375 164.078 86.1911 167.984C86.2602 168.103 86.452 167.991 86.3806 167.871Z" fill="#01413E"/>
            <path d="M86.6377 170.981C85.4144 169.982 84.2289 168.937 83.0814 167.848C82.9766 167.75 82.8183 167.906 82.923 168.006C84.0692 169.094 85.2583 170.135 86.4906 171.128C86.6021 171.229 86.7492 171.07 86.6377 170.981Z" fill="#01413E"/>
            <path d="M110.237 176.534C109.829 178.586 109.332 180.617 108.75 182.627C108.742 182.656 108.746 182.688 108.761 182.715C108.777 182.741 108.802 182.761 108.832 182.769C108.861 182.776 108.892 182.773 108.919 182.757C108.945 182.742 108.965 182.717 108.973 182.687C109.559 180.678 110.054 178.646 110.46 176.593C110.483 176.446 110.266 176.386 110.237 176.534Z" fill="#01413E"/>
            <path d="M130.25 179.825C130.237 179.682 130.014 179.682 130.027 179.825C130.187 181.476 129.911 183.142 129.226 184.654C129.166 184.784 129.36 184.897 129.419 184.766C130.123 183.219 130.41 181.516 130.25 179.825Z" fill="#01413E"/>
            <path d="M53.3791 151.703C51.1831 156.033 49.5352 160.621 48.4738 165.358C48.4426 165.498 48.6588 165.556 48.6967 165.416C49.7555 160.696 51.398 156.128 53.5865 151.815C53.6266 151.688 53.4348 151.574 53.3791 151.703Z" fill="#01413E"/>
            <path d="M89.7264 141.637C87.1865 140.73 84.5055 140.282 81.8088 140.314C81.7792 140.314 81.7508 140.326 81.7299 140.347C81.709 140.367 81.6973 140.396 81.6973 140.426C81.6973 140.455 81.709 140.484 81.7299 140.504C81.7508 140.525 81.7792 140.537 81.8088 140.537C84.486 140.504 87.1476 140.95 89.6684 141.852C89.8022 141.902 89.8602 141.685 89.7264 141.637Z" fill="#9C7968"/>
            <path d="M75.7886 188.63C71.856 191.638 67.3001 193.728 62.4549 194.745C62.3145 194.777 62.3747 194.991 62.5152 194.969C67.3758 193.943 71.9463 191.847 75.8934 188.83C76.0137 188.736 75.9001 188.543 75.7886 188.63Z" fill="#9C7968"/>
            <path d="M103.016 226.925C100.643 220.781 96.7482 215.342 91.6982 211.114C91.589 211.022 91.4302 211.179 91.5421 211.272C96.5641 215.472 100.438 220.879 102.799 226.985C102.851 227.112 103.067 227.056 103.016 226.925Z" fill="#7D443B"/>
            <path d="M161.442 182.922L160.405 183.022C160.372 183.234 160.405 183.437 160.66 183.508C161.001 183.606 161.525 183.55 161.775 183.285C161.869 183.178 161.933 183.045 161.957 182.904C161.786 182.895 161.613 182.901 161.442 182.922Z" fill="#9C4725"/>
            <path d="M133.489 183.05C132.626 183.05 132.626 184.388 133.489 184.388C134.352 184.388 134.349 183.05 133.489 183.05Z" fill="#01413E"/>
            <path d="M62.965 148.033C62.9645 148.013 62.9589 147.995 62.9488 147.977C62.9387 147.961 62.9245 147.947 62.9074 147.938C62.8904 147.928 62.8711 147.922 62.8516 147.922C62.8319 147.922 62.8127 147.928 62.7956 147.937C61.816 148.414 60.8588 148.93 59.9238 149.485L60.1601 149.605C60.9271 149.159 61.7209 148.733 62.5102 148.332C61.906 149.467 60.4522 151.71 59.8346 152.676C59.7565 152.796 59.9506 152.898 60.0286 152.787C60.6596 151.799 62.1691 149.467 62.7421 148.363C62.7569 149.255 62.7383 150.147 62.6864 151.039L62.9093 151.155C62.9733 150.114 62.9918 149.073 62.965 148.033Z" fill="#00BDB5"/>
            <path d="M79.5594 138.738C79.5593 138.719 79.5541 138.7 79.5442 138.683C79.5344 138.666 79.5203 138.652 79.5034 138.642C79.4865 138.632 79.4673 138.628 79.4478 138.628C79.4282 138.628 79.4091 138.632 79.3921 138.642C78.4126 139.12 77.4553 139.636 76.5204 140.189L76.7433 140.31C77.5126 139.865 78.3041 139.439 79.0935 139.037C78.4914 140.172 77.0376 142.415 76.4178 143.38C76.3419 143.501 76.5337 143.604 76.6118 143.492C77.2428 142.504 78.7545 140.172 79.3275 139.068C79.3409 139.96 79.3216 140.853 79.2696 141.744L79.4925 141.86C79.5639 140.818 79.5862 139.777 79.5594 138.738Z" fill="#00BDB5"/>
            <path d="M74.3241 158.681C74.3232 158.662 74.3176 158.643 74.3076 158.626C74.2977 158.609 74.2836 158.596 74.2669 158.586C74.2503 158.577 74.2313 158.571 74.2121 158.571C74.1928 158.57 74.1738 158.576 74.1568 158.585C73.1787 159.062 72.2214 159.582 71.285 160.146L71.508 160.266C72.2779 159.82 73.0613 159.395 73.858 158.993C73.256 160.128 71.8022 162.37 71.1824 163.336C71.1043 163.456 71.296 163.559 71.3741 163.447C72.0051 162.459 73.5168 160.128 74.0899 159.022C74.1032 159.914 74.0846 160.805 74.0341 161.697L74.2571 161.814C74.3396 160.758 74.3508 159.722 74.3241 158.681Z" fill="#00BDB5"/>
            <path d="M98.4203 151.757C98.4203 151.738 98.4148 151.719 98.4049 151.702C98.395 151.684 98.3806 151.671 98.3643 151.661C98.3472 151.651 98.3283 151.646 98.3093 151.646C98.2895 151.645 98.2705 151.649 98.2534 151.659C97.2746 152.136 96.3175 152.655 95.3811 153.208L95.6156 153.329C96.3842 152.883 97.1672 152.458 97.9656 152.056C97.3639 153.191 95.9097 155.434 95.29 156.399C95.2115 156.52 95.4036 156.622 95.4812 156.511C96.1127 155.523 97.6246 153.191 98.1974 152.087C98.211 152.979 98.192 153.87 98.1415 154.762L98.3643 154.879C98.4311 153.838 98.45 152.798 98.4203 151.757Z" fill="#00BDB5"/>
            <path d="M101.351 170.068C101.351 170.048 101.345 170.029 101.336 170.012C101.326 169.994 101.312 169.981 101.295 169.971C101.278 169.961 101.259 169.957 101.239 169.957C101.22 169.957 101.2 169.962 101.184 169.971C100.205 170.448 99.248 170.964 98.3117 171.519L98.5462 171.639C99.3148 171.193 100.107 170.768 100.896 170.366C100.294 171.501 98.8403 173.744 98.2205 174.71C98.1448 174.83 98.336 174.943 98.4145 174.821C99.0451 173.833 100.557 171.501 101.13 170.397C101.143 171.289 101.125 172.181 101.075 173.072L101.298 173.189C101.358 172.149 101.376 171.108 101.351 170.068Z" fill="#00BDB5"/>
            <path d="M46.2458 155.861C46.2457 155.842 46.2404 155.823 46.2306 155.806C46.2208 155.789 46.2067 155.775 46.1898 155.765C46.1729 155.756 46.1537 155.75 46.1342 155.75C46.1146 155.75 46.0955 155.756 46.0786 155.766C45.099 156.242 44.1417 156.759 43.2068 157.315L43.4298 157.436C44.199 156.989 44.9905 156.561 45.7797 156.163C45.1778 157.298 43.724 159.54 43.1041 160.504C43.0261 160.626 43.2201 160.727 43.2959 160.617C43.9269 159.627 45.4387 157.298 46.0117 156.192C46.0266 157.083 46.008 157.975 45.9559 158.867L46.1789 158.985C46.2458 157.939 46.2748 156.911 46.2458 155.861Z" fill="#00BDB5"/>
            <path d="M124.6 179.209C124.6 179.19 124.594 179.171 124.584 179.154C124.574 179.137 124.561 179.123 124.544 179.113C124.527 179.103 124.508 179.099 124.488 179.099C124.468 179.099 124.449 179.103 124.433 179.113C123.453 179.59 122.495 180.111 121.56 180.674L121.795 180.795C122.564 180.348 123.356 179.92 124.147 179.521C123.542 180.657 122.089 182.899 121.471 183.863C121.394 183.985 121.587 184.096 121.663 183.976C122.297 182.986 123.806 180.657 124.379 179.551C124.395 180.442 124.377 181.334 124.323 182.226L124.546 182.344C124.609 181.285 124.627 180.248 124.6 179.209Z" fill="#00BDB5"/>
            <path d="M114.265 186.259C114.265 186.239 114.26 186.22 114.25 186.203C114.241 186.187 114.226 186.172 114.209 186.162C114.193 186.153 114.173 186.148 114.154 186.148C114.134 186.148 114.115 186.153 114.098 186.163C113.12 186.641 112.163 187.157 111.227 187.712L111.46 187.83C112.23 187.385 113.021 186.959 113.81 186.56C113.208 187.692 111.754 189.936 111.135 190.901C111.059 191.021 111.251 191.124 111.329 191.015C111.96 190.025 113.472 187.692 114.045 186.589C114.058 187.48 114.039 188.373 113.989 189.265L114.212 189.383C114.274 188.339 114.292 187.298 114.265 186.259Z" fill="#00BDB5"/>
            <path d="M58.0815 167.284C58.0814 167.265 58.0761 167.246 58.0663 167.229C58.0565 167.212 58.0423 167.198 58.0255 167.189C58.0085 167.179 57.9894 167.173 57.9699 167.173C57.9503 167.173 57.9312 167.179 57.9143 167.189C56.9347 167.666 55.9774 168.182 55.0424 168.738C55.1204 168.776 55.1985 168.819 55.2766 168.858C56.0458 168.413 56.8373 167.984 57.6266 167.586C57.0247 168.72 55.5708 170.963 54.951 171.927C54.8752 172.049 55.0669 172.149 55.1449 172.04C55.776 171.051 57.2877 168.72 57.8607 167.614C57.8742 168.507 57.8556 169.398 57.8051 170.29L58.028 170.408C58.0882 169.363 58.1083 168.325 58.0815 167.284Z" fill="#00BDB5"/>
            <path d="M74.324 178.62C74.3239 178.6 74.3186 178.581 74.3088 178.565C74.299 178.548 74.2849 178.533 74.268 178.524C74.2511 178.514 74.2319 178.509 74.2124 178.509C74.1929 178.509 74.1737 178.514 74.1568 178.524C73.1787 179.001 72.2214 179.517 71.285 180.071L71.508 180.192C72.2772 179.746 73.0687 179.32 73.858 178.918C73.256 180.053 71.8022 182.297 71.1824 183.262C71.1043 183.383 71.296 183.497 71.3741 183.374C72.0051 182.386 73.5168 180.053 74.0899 178.95C74.1032 179.842 74.0846 180.733 74.0341 181.626L74.2571 181.741C74.3285 180.699 74.3508 179.659 74.324 178.62Z" fill="#00BDB5"/>
            <path d="M58.0815 187.214C58.0814 187.194 58.0761 187.175 58.0663 187.158C58.0565 187.142 58.0423 187.127 58.0255 187.118C58.0085 187.108 57.9894 187.103 57.9699 187.103C57.9503 187.103 57.9312 187.108 57.9143 187.118C56.9347 187.596 55.9774 188.112 55.0424 188.668C55.1212 188.706 55.1992 188.747 55.2766 188.788C56.0458 188.343 56.8373 187.914 57.6266 187.515C57.0247 188.65 55.5708 190.893 54.951 191.856C54.8752 191.979 55.0669 192.079 55.1449 191.97C55.776 190.98 57.2877 188.647 57.8607 187.544C57.8742 188.435 57.8556 189.328 57.8051 190.22L58.028 190.338C58.0904 189.294 58.1083 188.253 58.0815 187.214Z" fill="white"/>
            <path d="M81.3325 216.08L81.2901 216.042C80.7772 215.627 80.0548 215.567 79.4149 215.521C78.775 215.474 74.4694 215.483 68.6945 215.521H68.2485L65.5595 215.536L55.983 215.612L54.2818 215.625L49.6328 215.665C42.0384 215.734 35.4118 215.801 33.2713 215.821H32.6603C31.3225 215.821 30.056 215.924 29.2712 216.896C29.1453 217.053 29.0314 217.219 28.93 217.393C28.6358 217.918 28.4195 218.483 28.2879 219.07C28.1429 219.669 27.8932 220.45 28.1005 221.061C28.0996 221.073 28.0996 221.085 28.1005 221.097C28.3235 221.681 28.9545 221.797 29.5186 221.899C29.7416 221.939 31.8911 221.984 35.1576 222.027H35.405C39.3761 222.078 44.9192 222.127 50.6607 222.163C55.2227 222.192 59.9117 222.214 64.0389 222.222C65.1225 222.222 66.1683 222.222 67.1605 222.222H70.9888C73.7492 222.222 75.7337 222.194 76.4784 222.16C77.0848 222.138 77.689 222.074 78.2867 221.969C79.0034 221.852 79.69 221.594 80.3068 221.21L80.3292 221.197C81.6023 220.354 81.8096 218.968 81.823 217.578C81.8453 217.036 81.7784 216.47 81.3325 216.08Z" fill="#44479C"/>
            <path d="M57.2743 218.519C57.1317 218.267 56.9957 218.013 56.8686 217.757C56.5242 217.064 56.2307 216.347 55.9901 215.612C55.4966 214.085 55.1765 212.509 55.0358 210.912C54.6166 206.601 55.1494 202.278 54.9265 197.964C54.873 196.915 54.7705 195.872 54.63 194.831C54.1841 191.515 53.3211 188.24 52.2999 185.02C49.8116 177.149 46.3221 169.444 45.0512 161.372H5.91992C6.58883 165.608 7.87535 169.782 9.30463 173.901C12.1297 182.037 15.5477 190.178 15.8265 198.708C15.9669 202.929 15.4742 207.163 15.9536 211.377C16.164 213.516 16.7363 215.603 17.6459 217.549C18.5021 219.315 19.7173 221.03 21.5969 222.182H60.5721C59.1985 221.24 58.0683 219.984 57.2743 218.519Z" fill="#F7E9E1"/>
            <path d="M57.2733 218.519C57.1306 218.267 56.9945 218.013 56.8674 217.757C56.5232 217.064 56.2296 216.347 55.989 215.612C55.4955 214.085 55.1755 212.509 55.0346 210.912C54.6155 206.601 55.1484 202.278 54.9254 197.964C54.8719 196.915 54.7693 195.872 54.6289 194.831C54.183 191.515 53.32 188.24 52.2988 185.02C49.8105 177.149 46.321 169.444 45.05 161.372H42.8984C43.9419 164.494 44.6532 168.621 45.6989 171.742C47.6053 177.453 50.7448 184.607 52.5575 193.415C52.6712 193.967 52.7805 194.608 52.8942 195.305C53.3601 198.294 53.728 202.303 53.5408 204.711C53.1685 209.484 53.3624 212.701 54.2789 215.636C54.5458 216.492 54.8721 217.329 55.2554 218.14C55.9252 219.538 56.6887 220.888 57.5409 222.182H60.5621C59.1917 221.238 58.0646 219.983 57.2733 218.519Z" fill="#44479C"/>
            <path d="M191.587 146.881H188.504L188.718 145.768H191.804L191.587 146.881Z" fill="white"/>
            <path d="M186.912 151.739H183.828L184.044 150.627H187.128L186.912 151.739Z" fill="white"/>
            <path d="M208.884 64.2214L202.569 96.6436C202.462 97.1957 202.166 97.6928 201.732 98.05C201.298 98.4081 200.753 98.6039 200.19 98.603H146.361C146.004 98.6039 145.651 98.5245 145.328 98.372C145.004 98.2196 144.719 97.9977 144.492 97.7216C144.264 97.4456 144.101 97.1235 144.013 96.7771C143.926 96.4307 143.916 96.069 143.984 95.7181L144.606 92.5255L150.298 63.2961C150.407 62.7446 150.703 62.2477 151.137 61.8906C151.571 61.5335 152.115 61.3383 152.678 61.3384H206.511C206.869 61.3391 207.22 61.4186 207.543 61.5712C207.865 61.7239 208.15 61.9458 208.377 62.2213C208.603 62.4967 208.767 62.8188 208.854 63.1646C208.942 63.5104 208.952 63.8712 208.884 64.2214Z" fill="#FFBF44"/>
            <path d="M161.324 66.1214H159.578L159.794 65.0088H161.54L161.324 66.1214Z" fill="white"/>
            <path d="M158.21 66.1214H154.68L154.896 65.0088H158.425L158.21 66.1214Z" fill="white"/>
            <path d="M171.872 66.1214H162.545L162.761 65.0088H172.087L171.872 66.1214Z" fill="white"/>
            <path d="M183.413 66.1214H174.086L174.302 65.0088H183.628L183.413 66.1214Z" fill="white"/>
            <path d="M194.671 66.1214H185.344L185.56 65.0088H194.887L194.671 66.1214Z" fill="white"/>
            <path d="M161.75 80.2012H160.004L160.219 79.0908H161.966L161.75 80.2012Z" fill="white"/>
            <path d="M167.401 80.2012H162.979L163.195 79.0908H167.616L167.401 80.2012Z" fill="white"/>
            <path d="M180.274 80.2012H169.609L169.826 79.0908H180.491L180.274 80.2012Z" fill="white"/>
            <path d="M185.673 80.2012H181.475L181.691 79.0908H185.89L185.673 80.2012Z" fill="white"/>
            <path d="M190.706 80.2012H186.953L187.17 79.0908H190.922L190.706 80.2012Z" fill="white"/>
            <path d="M158.448 80.2012H154.916L155.133 79.0908H158.664L158.448 80.2012Z" fill="white"/>
            <path d="M156.196 93.5478H154.447L154.664 92.4355H156.409L156.196 93.5478Z" fill="white"/>
            <path d="M173.659 93.5478H157.42L157.634 92.4355H173.875L173.659 93.5478Z" fill="white"/>
            <path d="M183.862 93.5478H174.758L174.972 92.4355H184.077L183.862 93.5478Z" fill="white"/>
            <path d="M189.265 93.5478H185.066L185.28 92.4355H189.48L189.265 93.5478Z" fill="white"/>
            <path d="M152.913 93.5478H149.383L149.599 92.4355H153.128L152.913 93.5478Z" fill="white"/>
            <path d="M160.41 72.0403H158.664L158.878 70.9277H160.626L160.41 72.0403Z" fill="white"/>
            <path d="M166.729 72.0403H161.639L161.855 70.9277H166.945L166.729 72.0403Z" fill="white"/>
            <path d="M187.744 72.0403H169.053L169.268 70.9277H187.96L187.744 72.0403Z" fill="white"/>
            <path d="M157.098 72.0403H153.566L153.782 70.9277H157.314L157.098 72.0403Z" fill="white"/>
            <path d="M159.983 87.9382H158.234L158.451 86.8257H160.199L159.983 87.9382Z" fill="white"/>
            <path d="M168.752 87.9382H161.209L161.425 86.8257H168.969L168.752 87.9382Z" fill="white"/>
            <path d="M185.974 87.9382H179.77L179.985 86.8257H186.191L185.974 87.9382Z" fill="white"/>
            <path d="M178.416 87.9382H170.424L170.64 86.8257H178.629L178.416 87.9382Z" fill="white"/>
            <path d="M195.805 87.9382H187.814L188.03 86.8257H196.019L195.805 87.9382Z" fill="white"/>
            <path d="M156.659 87.9382H153.129L153.345 86.8257H156.875L156.659 87.9382Z" fill="white"/>
            <path d="M159.641 76.4046H156.109L156.326 75.292H159.855L159.641 76.4046Z" fill="white"/>
            <path d="M156.383 84.1521H152.852L153.067 83.0396H156.6L156.383 84.1521Z" fill="white"/>
            <path d="M134.633 101.709L126.383 97.9817H103.932C103.566 97.9817 103.204 97.9005 102.872 97.7445C102.54 97.5884 102.248 97.3602 102.015 97.0778C101.782 96.7945 101.614 96.4635 101.524 96.1089C101.434 95.7535 101.423 95.3827 101.493 95.0228L102.463 89.9701C102.575 89.4051 102.879 88.8964 103.324 88.5305C103.768 88.1646 104.327 87.9642 104.902 87.9634H136.711C137.077 87.9634 137.438 88.0442 137.769 88.2C138.1 88.3557 138.392 88.5826 138.625 88.8644C138.858 89.1461 139.026 89.4758 139.117 89.8301C139.207 90.1843 139.219 90.5541 139.151 90.9133L138.181 95.9655C138.069 96.5311 137.765 97.039 137.32 97.4053C136.876 97.7715 136.317 97.9718 135.742 97.9727H133.752L134.633 101.709ZM104.902 88.1841C104.376 88.1825 103.866 88.3641 103.459 88.6977C103.052 89.0313 102.774 89.4961 102.673 90.0124L101.702 95.0652C101.638 95.3936 101.648 95.7319 101.731 96.0557C101.813 96.3796 101.967 96.6818 102.181 96.9389C102.393 97.1969 102.661 97.4044 102.964 97.546C103.268 97.6876 103.598 97.7598 103.932 97.758H126.439L134.312 101.326L133.472 97.758H135.742C136.267 97.7607 136.778 97.5794 137.185 97.2456C137.592 96.9118 137.87 96.4463 137.971 95.9303L138.943 90.8775C139.007 90.5493 138.997 90.2109 138.915 89.8868C138.832 89.5626 138.679 89.2609 138.466 89.0032C138.252 88.7456 137.984 88.5385 137.682 88.3968C137.379 88.2552 137.048 88.1825 136.713 88.1841H104.902Z" fill="#6D9AFF"/>
            <path d="M104.904 88.1836C104.378 88.182 103.867 88.3636 103.46 88.6972C103.053 89.0308 102.775 89.4956 102.674 90.0119L101.704 95.0647C101.64 95.3931 101.65 95.7314 101.733 96.0552C101.815 96.3791 101.968 96.6813 102.182 96.9384C102.395 97.1964 102.663 97.4039 102.966 97.5455C103.269 97.6871 103.599 97.7593 103.934 97.7575H126.44L134.313 101.325L133.473 97.7575H135.743C136.269 97.7602 136.779 97.5789 137.186 97.2451C137.593 96.9113 137.871 96.4458 137.972 95.9298L138.944 90.877C139.009 90.5488 138.999 90.2104 138.917 89.8863C138.834 89.5621 138.68 89.2604 138.467 89.0027C138.253 88.7451 137.986 88.538 137.683 88.3963C137.38 88.2547 137.049 88.182 136.714 88.1836H104.904Z" fill="#6D9AFF"/>
            <path d="M114.22 93.6734H109.348L109.716 91.769H114.59L114.22 93.6734Z" fill="white"/>
            <path d="M131.029 93.6734H117.164L117.534 91.769H131.398L131.029 93.6734Z" fill="white"/>
            <path d="M222.729 67.8198L224.067 64.0762H220.609C220.241 64.0783 219.877 63.9989 219.543 63.8433C219.21 63.6878 218.915 63.4601 218.68 63.1768C218.445 62.8934 218.277 62.5615 218.187 62.2049C218.095 61.8484 218.085 61.4761 218.156 61.1151L219.126 56.0648C219.237 55.4995 219.541 54.9903 219.985 54.6243C220.431 54.2583 220.989 54.0581 221.565 54.0581H253.385C253.751 54.0587 254.113 54.1405 254.444 54.2974C254.775 54.4544 255.067 54.6827 255.3 54.9659C255.533 55.2492 255.7 55.5803 255.789 55.9357C255.878 56.2911 255.888 56.6618 255.818 57.0213L254.848 62.0716C254.736 62.6369 254.432 63.1462 253.988 63.5122C253.543 63.8781 252.984 64.0783 252.409 64.0783H231.449L222.729 67.8198ZM221.571 54.2766C221.045 54.2747 220.534 54.4565 220.127 54.7906C219.72 55.1247 219.442 55.5903 219.342 56.1071L218.379 61.1575C218.315 61.485 218.324 61.8226 218.406 62.1462C218.487 62.4698 218.639 62.7713 218.851 63.029C219.063 63.2866 219.33 63.4942 219.632 63.6367C219.934 63.7792 220.263 63.8532 220.597 63.8532H224.377L223.108 67.4207L231.409 63.8532H252.406C252.933 63.8551 253.444 63.6734 253.85 63.3392C254.257 63.0051 254.535 62.5394 254.636 62.0226L255.606 56.9723C255.67 56.6447 255.662 56.3069 255.58 55.9832C255.499 55.6594 255.346 55.3578 255.134 55.0999C254.921 54.8422 254.655 54.6346 254.353 54.4923C254.051 54.3498 253.721 54.2762 253.388 54.2766H221.571Z" fill="#6D9AFF"/>
            <path d="M221.571 54.2769C221.045 54.275 220.533 54.4568 220.126 54.7909C219.719 55.1249 219.442 55.5906 219.341 56.1074L218.378 61.1578C218.314 61.4852 218.323 61.8229 218.405 62.1465C218.486 62.4701 218.639 62.7715 218.851 63.0293C219.063 63.2869 219.33 63.4945 219.631 63.637C219.933 63.7795 220.263 63.8534 220.596 63.8534H224.376L223.107 67.421L231.408 63.8534H252.405C252.932 63.8553 253.443 63.6736 253.85 63.3395C254.257 63.0054 254.534 62.5397 254.635 62.0229L255.605 56.9725C255.669 56.645 255.661 56.3071 255.579 55.9835C255.498 55.6597 255.345 55.358 255.133 55.1002C254.921 54.8425 254.654 54.6349 254.352 54.4926C254.05 54.3501 253.721 54.2765 253.387 54.2769H221.571Z" fill="#6D9AFF"/>
            <path d="M247.661 59.3422H233.797L234.167 57.438H248.031L247.661 59.3422Z" fill="white"/>
            <path d="M231.668 59.2735H226.066L226.407 57.5098H232.009L231.668 59.2735Z" fill="white"/>
            <path d="M205.948 109.495L205.333 112.661L194.615 167.69C194.508 168.236 194.216 168.728 193.787 169.081C193.357 169.435 192.819 169.628 192.262 169.628H192.148L204.258 106.855C204.809 107.019 205.284 107.376 205.594 107.861C205.905 108.345 206.03 108.925 205.948 109.495Z" fill="#1B1823"/>
            <path d="M226.66 190.977L220.075 190.863L219.605 188.368L226.281 188.485L226.66 190.977Z" fill="#E8DFDF"/>
            <path d="M226.519 189.559C225.884 189.544 225.246 189.523 224.608 189.512C222.156 189.47 219.703 189.55 217.344 190.359C217.259 190.388 217.177 190.426 217.101 190.473C216.555 187.542 216.009 184.61 215.46 181.677C215.201 180.299 214.944 178.921 214.688 177.541C214.022 173.973 213.354 170.406 212.682 166.839C213.435 166.86 214.189 166.839 214.941 166.772C215.768 166.7 221.337 166.611 222.193 166.428C222.213 166.533 222.231 166.636 222.251 166.74L224.278 177.594C224.345 177.949 224.41 178.304 224.477 178.656L224.922 181.068C225.465 183.9 225.998 186.73 226.519 189.559Z" fill="#2B244A"/>
            <path d="M223.637 174.142C221.241 174.053 218.845 174.021 216.447 174.044C215.644 174.044 214.839 174.063 214.039 174.086C214.296 175.463 214.553 176.843 214.81 178.222C215.554 178.167 216.293 178.113 217.027 178.062C218.873 177.929 220.721 177.811 222.569 177.707L224.284 177.615C224.07 176.456 223.854 175.301 223.637 174.142Z" fill="#0B0912"/>
            <path d="M262.221 99.1633L251.379 156.379L248.08 173.58C247.983 174.086 247.713 174.542 247.317 174.873C246.92 175.202 246.422 175.384 245.906 175.388H245.594L195.221 174.942L209.991 97.7137C210.054 97.3736 210.234 97.0669 210.499 96.8449C210.764 96.623 211.099 96.5003 211.444 96.4985H260.052C260.207 96.4985 260.362 96.5157 260.513 96.55C261.083 96.6753 261.581 97.019 261.901 97.508C262.22 97.996 262.336 98.5905 262.221 99.1633Z" fill="#2B244A"/>
            <path d="M243.664 173.332L196.504 172.882L210.679 98.0015H257.836L243.664 173.332Z" fill="#1A1A1A"/>
            <path d="M262.218 99.1627L248.074 173.579C248.088 174.728 247.609 175.677 245.901 175.39H245.58L260.496 96.5493C261.069 96.672 261.571 97.0139 261.893 97.5028C262.215 97.9918 262.331 98.5881 262.218 99.1627Z" fill="#1B1823"/>
            <path d="M226.753 191.256L217.27 191.14L208.17 191.127L207.699 188.603L216.799 188.618L226.374 188.737L226.753 191.256Z" fill="#1B1823"/>
            <path d="M226.518 189.559C225.882 189.543 225.245 189.523 224.607 189.512L221.906 175.15L223.815 175.184C223.965 175.988 224.783 180.265 224.93 181.07C225.467 183.901 225.995 186.73 226.518 189.559Z" fill="#1B1823"/>
            <path d="M224.762 105.239H221.455L221.681 104.115H224.988L224.762 105.239Z" fill="#B8A59C"/>
            <path d="M231.83 105.239H226.068L226.296 104.115H232.055L231.83 105.239Z" fill="#632E29"/>
            <path d="M244.218 105.239H238.459L238.685 104.115H244.444L244.218 105.239Z" fill="#632E29"/>
            <path d="M237.261 105.239H233.285L233.51 104.115H237.488L237.261 105.239Z" fill="#CCB6B6"/>
            <path d="M219.95 105.241H217.756L217.983 104.13H220.175L219.95 105.241Z" fill="#A24747"/>
            <path d="M247.827 105.233H245.633L245.86 104.122H248.052L247.827 105.233Z" fill="white"/>
            <path d="M223.406 114.57H220.1L220.324 113.446H223.631L223.406 114.57Z" fill="#B8A59C"/>
            <path d="M229.582 114.57H224.713L224.94 113.446H229.808L229.582 114.57Z" fill="#632E29"/>
            <path d="M240.923 114.57H236.947L237.173 113.446H241.148L240.923 114.57Z" fill="#B8A59C"/>
            <path d="M236.075 114.57H230.537L230.764 113.446H236.301L236.075 114.57Z" fill="#632E29"/>
            <path d="M218.462 114.563H216.27L216.495 113.453H218.689L218.462 114.563Z" fill="#A24747"/>
            <path d="M244.467 114.592H242.275L242.5 113.482H244.694L244.467 114.592Z" fill="white"/>
            <path d="M220.932 127.993H217.625L217.851 126.87H221.159L220.932 127.993Z" fill="#B8A59C"/>
            <path d="M228.001 127.993H222.242L222.467 126.87H228.229L228.001 127.993Z" fill="#632E29"/>
            <path d="M243.51 127.993H234.629L234.856 126.87H243.737L243.51 127.993Z" fill="#632E29"/>
            <path d="M233.432 127.993H229.455L229.682 126.87H233.658L233.432 127.993Z" fill="#CCB6B6"/>
            <path d="M215.823 127.986H213.629L213.856 126.876H216.047L215.823 127.986Z" fill="#A24747"/>
            <path d="M247.106 127.986H244.914L245.14 126.876H247.332L247.106 127.986Z" fill="white"/>
            <path d="M222.782 141.975H212.117L212.343 140.854H223.009L222.782 141.975Z" fill="#A5C4D9"/>
            <path d="M219.747 155.77H209.08L209.307 154.648H219.972L219.747 155.77Z" fill="#A5C4D9"/>
            <path d="M216.622 165.594H207.516L207.743 164.472H216.847L216.622 165.594Z" fill="#A5C4D9"/>
            <path d="M219.548 146.402H211.336L211.561 145.278H219.775L219.548 146.402Z" fill="#A5C4D9"/>
            <path d="M220.402 150.853H210.404L210.633 149.73H220.628L220.402 150.853Z" fill="#A5C4D9"/>
            <path d="M218.553 161.1H208.555L208.782 159.976H218.777L218.553 161.1Z" fill="#A5C4D9"/>
            <path d="M218.453 132.972H216.484L216.709 131.848H218.68L218.453 132.972Z" fill="#B8A59C"/>
            <path d="M231.665 132.972H228.582L228.808 131.848H231.893L231.665 132.972Z" fill="#632E29"/>
            <path d="M227.161 132.972H220.287L220.512 131.848H227.388L227.161 132.972Z" fill="#CCB6B6"/>
            <path d="M215.172 132.906H212.979L213.206 131.792H215.398L215.172 132.906Z" fill="#A24747"/>
            <path d="M234.985 132.964H232.793L233.018 131.854H235.212L234.985 132.964Z" fill="white"/>
            <path d="M221.018 109.882H218.826L219.052 108.77H221.246L221.018 109.882Z" fill="#A24747"/>
            <path d="M218.418 119.222H216.227L216.451 118.108H218.645L218.418 119.222Z" fill="#A24747"/>
            <path d="M220.432 123.495H218.238L218.466 122.383H220.658L220.432 123.495Z" fill="#A24747"/>
            <path d="M214.485 137.478H212.293L212.518 136.367H214.711L214.485 137.478Z" fill="#A24747"/>
            <path d="M214.059 105.221H215.807L216.034 104.11H214.289L214.059 105.221Z" fill="#2B244A"/>
            <path d="M213.379 109.71H215.125L215.353 108.599H213.606L213.379 109.71Z" fill="#2B244A"/>
            <path d="M212.344 114.563H214.089L214.317 113.453H212.571L212.344 114.563Z" fill="#2B244A"/>
            <path d="M211.66 119.054H213.408L213.636 117.944H211.89L211.66 119.054Z" fill="#2B244A"/>
            <path d="M210.727 123.477H212.472L212.702 122.367H210.954L210.727 123.477Z" fill="#2B244A"/>
            <path d="M210.043 127.966H211.791L212.019 126.856H210.273L210.043 127.966Z" fill="#2B244A"/>
            <path d="M209.006 132.816H210.753L210.981 131.708H209.235L209.006 132.816Z" fill="#2B244A"/>
            <path d="M208.15 137.511H209.899L210.126 136.4H208.38L208.15 137.511Z" fill="#2B244A"/>
            <path d="M207.471 142.003H209.216L209.444 140.892H207.698L207.471 142.003Z" fill="#2B244A"/>
            <path d="M206.529 146.426H208.277L208.504 145.315H206.758L206.529 146.426Z" fill="#2B244A"/>
            <path d="M205.85 150.917H207.595L207.825 149.806H206.077L205.85 150.917Z" fill="#2B244A"/>
            <path d="M204.816 155.766H206.562L206.792 154.656H205.044L204.816 155.766Z" fill="#2B244A"/>
            <path d="M203.861 161.099H205.607L205.834 159.989H204.089L203.861 161.099Z" fill="#2B244A"/>
            <path d="M203.174 165.587H204.919L205.149 164.477H203.401L203.174 165.587Z" fill="#2B244A"/>
            <path d="M262.844 78.4918L261.604 84.7662C261.504 85.2809 261.227 85.7449 260.823 86.0784C260.418 86.412 259.91 86.5944 259.385 86.5946H218.194C217.86 86.5945 217.531 86.5206 217.23 86.3782C216.927 86.2358 216.661 86.0285 216.449 85.771C216.237 85.5137 216.085 85.2125 216.003 84.8891C215.921 84.5658 215.912 84.2284 215.976 83.9011L217.212 77.6266C217.314 77.1102 217.592 76.6452 217.999 76.3115C218.406 75.9778 218.917 75.7963 219.442 75.7984H260.632C260.965 75.7994 261.294 75.874 261.594 76.0168C261.895 76.1596 262.161 76.367 262.372 76.6244C262.583 76.8817 262.735 77.1825 262.817 77.5053C262.898 77.8282 262.908 78.165 262.844 78.4918Z" fill="#FFBF44"/>
            <path d="M228.733 79.7735H226.984L227.201 78.6631H228.946L228.733 79.7735Z" fill="white"/>
            <path d="M234.381 79.7735H229.959L230.174 78.6631H234.597L234.381 79.7735Z" fill="white"/>
            <path d="M246.368 79.7735H235.703L235.918 78.6631H246.584L246.368 79.7735Z" fill="white"/>
            <path d="M256.133 79.7735H247.697L247.914 78.6631H256.348L256.133 79.7735Z" fill="white"/>
            <path d="M225.658 79.8089H222.129L222.345 78.6963H225.874L225.658 79.8089Z" fill="white"/>
            <path d="M228.239 83.3002H226.492L226.709 82.1875H228.455L228.239 83.3002Z" fill="white"/>
            <path d="M233.889 83.3002H229.465L229.681 82.1875H234.103L233.889 83.3002Z" fill="white"/>
            <path d="M245.874 83.3002H235.207L235.423 82.1875H246.087L245.874 83.3002Z" fill="white"/>
            <path d="M255.638 83.3002H247.201L247.417 82.1875H255.852L255.638 83.3002Z" fill="white"/>
            <path d="M225.155 83.1937H221.625L221.842 82.0811H225.371L225.155 83.1937Z" fill="white"/>
        </g>
    </g>
    <defs>
        <clipPath id="clip0_6616_61369">
            <rect width="287.772" height="225.526" fill="white" transform="translate(0.0078125 0.842773)"/>
        </clipPath>
    </defs>
</svg>
