<svg width="332" height="302" viewBox="0 0 332 302" fill="none" xmlns="http://www.w3.org/2000/svg">
    <path d="M272.008 59.7825H164.718C160.468 59.7825 157.021 62.658 157.021 66.2052V250.764C157.021 254.311 160.468 257.187 164.718 257.187H272.008C276.259 257.187 279.705 254.311 279.705 250.764V66.2052C279.705 62.658 276.259 59.7825 272.008 59.7825Z" fill="#F6999F"/>
    <path d="M266.101 196.598H171.233C166.853 196.598 163.303 199.561 163.303 203.216V262.613C163.303 266.268 166.853 269.231 171.233 269.231H266.101C270.481 269.231 274.032 266.268 274.032 262.613V203.216C274.032 199.561 270.481 196.598 266.101 196.598Z" fill="#E9000E"/>
    <path d="M211.225 211.773C210.917 211.776 210.618 211.688 210.381 211.524C210.381 211.524 208.486 210.657 199.79 209.964C190.224 209.217 171.235 209.964 171.027 209.964C170.668 209.97 170.32 209.862 170.054 209.66C169.789 209.459 169.626 209.18 169.599 208.881C169.591 208.732 169.617 208.582 169.678 208.441C169.738 208.301 169.832 208.171 169.952 208.061C170.073 207.95 170.218 207.86 170.38 207.796C170.543 207.733 170.718 207.696 170.897 207.69C171.676 207.69 190.276 206.931 200.049 207.69C209.499 208.437 211.653 209.444 212.082 209.737C212.351 209.86 212.559 210.06 212.669 210.3C212.778 210.541 212.781 210.805 212.678 211.047C212.576 211.289 212.373 211.493 212.107 211.622C211.84 211.751 211.528 211.797 211.225 211.751V211.773Z" fill="white"/>
    <path d="M207.837 216.82C201.049 216.82 194.598 212.964 194.598 212.964C194.106 212.514 193.776 211.957 193.645 211.358C193.514 210.758 193.588 210.14 193.858 209.574L209.576 211.459L207.837 216.82Z" fill="white"/>
    <path d="M207.836 218.336C200.555 218.336 193.819 214.361 193.559 214.188C193.299 214.014 193.377 214.058 193.286 213.993C192.549 213.327 192.057 212.497 191.871 211.604C191.684 210.711 191.811 209.791 192.235 208.956C192.401 208.66 192.675 208.415 193.017 208.255C193.36 208.096 193.754 208.031 194.143 208.068L209.861 209.964C210.124 209.988 210.377 210.061 210.601 210.177C210.826 210.293 211.016 210.45 211.159 210.635C211.301 210.813 211.396 211.014 211.438 211.225C211.481 211.436 211.47 211.652 211.406 211.859L209.667 217.275C209.546 217.596 209.301 217.875 208.969 218.067C208.638 218.259 208.239 218.354 207.836 218.336ZM195.804 211.837C199.008 213.624 202.648 214.793 206.461 215.26L207.291 212.726L195.48 211.307C195.547 211.496 195.658 211.672 195.804 211.827V211.837Z" fill="white"/>
    <path d="M229.642 216.82C236.431 216.82 242.895 212.964 242.895 212.964C243.384 212.513 243.712 211.955 243.84 211.356C243.969 210.757 243.893 210.139 243.621 209.574L227.916 211.459L229.642 216.82Z" fill="white"/>
    <path d="M229.643 218.336C229.25 218.338 228.866 218.234 228.55 218.038C228.234 217.843 228.003 217.568 227.891 217.253L226.164 211.903C226.097 211.696 226.084 211.479 226.124 211.268C226.165 211.056 226.259 210.854 226.4 210.675C226.541 210.496 226.726 210.344 226.943 210.229C227.159 210.114 227.403 210.038 227.657 210.007L243.362 208.112C243.754 208.068 244.153 208.131 244.499 208.291C244.844 208.451 245.12 208.7 245.283 209C245.704 209.836 245.828 210.756 245.639 211.649C245.45 212.542 244.957 213.371 244.219 214.036C243.674 214.415 236.937 218.336 229.643 218.336ZM230.201 212.715L231.019 215.249C234.831 214.783 238.471 213.614 241.675 211.827C241.824 211.668 241.939 211.488 242.012 211.296L230.201 212.715Z" fill="white"/>
    <path d="M197.078 227.911C194.875 227.986 192.675 227.722 190.588 227.131C185.915 225.506 180.516 220.091 180.282 219.863C180.159 219.752 180.065 219.619 180.007 219.476C179.949 219.332 179.928 219.179 179.945 219.028C179.962 218.877 180.017 218.73 180.107 218.598C180.196 218.466 180.318 218.351 180.464 218.26C180.598 218.159 180.755 218.083 180.926 218.035C181.097 217.988 181.278 217.971 181.458 217.985C181.637 217.999 181.811 218.045 181.969 218.118C182.126 218.192 182.263 218.292 182.372 218.412C182.372 218.466 187.564 223.622 191.639 225.04C194.949 226.21 203.321 225.387 206.215 224.965C206.571 224.92 206.933 224.992 207.226 225.166C207.519 225.34 207.719 225.601 207.786 225.896C207.843 226.193 207.757 226.497 207.549 226.742C207.34 226.987 207.024 227.154 206.67 227.207C203.498 227.641 200.292 227.876 197.078 227.911Z" fill="white"/>
    <path d="M191.884 239.099C188.523 239.099 185.524 238.85 184.226 238.092C181.397 236.242 178.745 234.211 176.296 232.016C176.174 231.907 176.079 231.779 176.016 231.64C175.954 231.5 175.924 231.352 175.93 231.203C175.936 231.054 175.978 230.908 176.051 230.772C176.125 230.637 176.23 230.514 176.361 230.413C176.491 230.311 176.644 230.232 176.811 230.179C176.979 230.127 177.156 230.103 177.335 230.108C177.513 230.113 177.689 230.147 177.851 230.209C178.014 230.27 178.16 230.358 178.282 230.467C180.608 232.54 183.116 234.466 185.784 236.229C187.445 237.204 196.804 236.9 204.89 236.034C205.248 235.997 205.609 236.08 205.894 236.264C206.179 236.449 206.364 236.721 206.409 237.02C206.453 237.318 206.354 237.62 206.133 237.857C205.911 238.095 205.585 238.249 205.227 238.287C200.802 238.77 196.347 239.042 191.884 239.099Z" fill="white"/>
    <path d="M187.083 251.739C186.009 251.763 184.938 251.635 183.916 251.36C178.724 249.713 174.648 245.24 174.48 245.045C174.264 244.804 174.173 244.501 174.225 244.204C174.278 243.906 174.47 243.638 174.759 243.459C175.048 243.279 175.411 243.203 175.767 243.246C176.124 243.29 176.445 243.45 176.66 243.691C176.66 243.691 180.372 247.829 184.863 249.226C188.498 250.374 199.349 247.482 203.216 246.269C203.561 246.163 203.941 246.175 204.275 246.303C204.608 246.431 204.867 246.664 204.995 246.952C205.122 247.239 205.107 247.557 204.954 247.835C204.801 248.113 204.521 248.329 204.177 248.435C202.905 248.793 193.287 251.739 187.083 251.739Z" fill="white"/>
    <path d="M226.255 211.816C226.05 211.815 225.848 211.776 225.663 211.701C225.479 211.626 225.317 211.517 225.191 211.383C224.972 211.138 224.875 210.832 224.921 210.529C224.967 210.226 225.152 209.95 225.437 209.758C225.865 209.466 228.033 208.458 237.482 207.711C247.243 206.931 265.843 207.711 266.621 207.711C266.8 207.718 266.976 207.755 267.138 207.818C267.3 207.882 267.446 207.972 267.566 208.082C267.687 208.193 267.78 208.322 267.84 208.463C267.901 208.604 267.928 208.753 267.919 208.902C267.911 209.052 267.867 209.198 267.791 209.334C267.714 209.469 267.607 209.59 267.474 209.691C267.342 209.791 267.187 209.869 267.018 209.92C266.85 209.97 266.671 209.993 266.492 209.986C266.31 209.986 247.308 209.227 237.729 209.986C228.955 210.679 227.137 211.556 227.06 211.599C226.828 211.745 226.545 211.821 226.255 211.816Z" fill="white"/>
    <path d="M229.668 218.336C229.24 218.335 228.827 218.207 228.5 217.976C228.174 217.745 227.956 217.425 227.885 217.073C227.813 216.721 227.893 216.359 228.11 216.051C228.327 215.743 228.668 215.509 229.071 215.39L242.31 211.534C242.723 211.41 243.176 211.414 243.584 211.548C243.993 211.681 244.329 211.935 244.53 212.26C244.727 212.584 244.779 212.957 244.677 213.31C244.575 213.663 244.325 213.975 243.972 214.188C243.673 214.415 236.963 218.336 229.668 218.336Z" fill="white"/>
    <path d="M240.428 227.911C237.223 227.875 234.025 227.64 230.862 227.207C230.507 227.154 230.192 226.987 229.983 226.742C229.774 226.497 229.689 226.193 229.746 225.896C229.815 225.603 230.017 225.343 230.309 225.17C230.601 224.996 230.961 224.923 231.316 224.965C234.25 225.387 242.582 226.199 245.905 225.04C249.955 223.622 255.108 218.466 255.16 218.412C255.268 218.292 255.405 218.192 255.563 218.118C255.72 218.045 255.894 217.999 256.074 217.985C256.253 217.971 256.434 217.988 256.605 218.035C256.777 218.083 256.934 218.159 257.068 218.26C257.214 218.351 257.336 218.466 257.425 218.598C257.514 218.73 257.569 218.877 257.586 219.028C257.603 219.179 257.582 219.332 257.524 219.476C257.466 219.619 257.373 219.752 257.249 219.863C257.029 220.091 251.616 225.506 246.957 227.131C244.856 227.724 242.643 227.988 240.428 227.911Z" fill="white"/>
    <path d="M245.621 239.099C241.158 239.041 236.703 238.769 232.278 238.287C232.1 238.268 231.929 238.221 231.774 238.147C231.619 238.073 231.482 237.975 231.372 237.857C231.263 237.74 231.182 237.605 231.135 237.461C231.087 237.318 231.074 237.168 231.096 237.02C231.119 236.872 231.175 236.729 231.264 236.599C231.352 236.47 231.47 236.356 231.611 236.264C231.752 236.173 231.913 236.105 232.086 236.066C232.258 236.026 232.438 236.016 232.615 236.034C240.701 236.89 250.06 237.204 251.721 236.229C254.392 234.469 256.9 232.543 259.223 230.467C259.345 230.358 259.492 230.27 259.654 230.209C259.817 230.147 259.992 230.113 260.17 230.108C260.349 230.103 260.527 230.127 260.694 230.179C260.861 230.232 261.014 230.311 261.144 230.413C261.275 230.514 261.38 230.637 261.454 230.772C261.527 230.908 261.569 231.054 261.575 231.203C261.581 231.352 261.551 231.5 261.489 231.64C261.426 231.779 261.331 231.907 261.209 232.016C258.76 234.211 256.108 236.242 253.279 238.092C251.981 238.85 248.982 239.099 245.621 239.099Z" fill="white"/>
    <path d="M250.423 251.739C244.219 251.739 234.601 248.793 233.342 248.392C233.169 248.347 233.009 248.272 232.872 248.171C232.736 248.071 232.626 247.948 232.55 247.81C232.474 247.673 232.434 247.523 232.432 247.371C232.43 247.22 232.466 247.069 232.538 246.93C232.668 246.651 232.925 246.425 233.252 246.302C233.58 246.178 233.952 246.167 234.29 246.269C238.184 247.482 248.983 250.374 252.643 249.226C257.134 247.829 260.807 243.735 260.846 243.691C260.953 243.572 261.086 243.471 261.239 243.395C261.393 243.318 261.562 243.268 261.739 243.246C261.916 243.225 262.096 243.232 262.269 243.269C262.442 243.305 262.604 243.37 262.748 243.459C262.891 243.547 263.012 243.659 263.103 243.787C263.195 243.915 263.255 244.056 263.281 244.204C263.307 244.351 263.298 244.501 263.254 244.646C263.21 244.79 263.133 244.926 263.027 245.045C262.858 245.24 258.847 249.713 253.603 251.36C252.576 251.634 251.501 251.762 250.423 251.739Z" fill="white"/>
    <path d="M217.014 262.136C216.56 261.172 215.379 229.697 215.275 226.026C215.171 222.354 221.18 221 221.648 226.026C222.115 231.051 220.726 264.389 220.726 264.389L217.014 262.136Z" fill="white"/>
    <path d="M220.725 265.894C220.34 265.893 219.965 265.795 219.647 265.613L215.948 263.36C215.675 263.192 215.464 262.963 215.338 262.699C214.637 261.248 213.469 226.416 213.456 226.058C213.359 224.878 213.819 223.713 214.738 222.812C215.658 221.911 216.963 221.346 218.375 221.239C220.634 221.141 223.139 222.549 223.451 225.907C223.918 230.954 222.594 263.078 222.529 264.443C222.517 264.716 222.417 264.981 222.239 265.21C222.06 265.439 221.811 265.623 221.517 265.743C221.27 265.844 220.999 265.896 220.725 265.894ZM218.7 261.291L219.024 261.486C219.349 253.309 220.206 230.174 219.842 226.145C219.751 225.214 219.466 224.25 218.544 224.26C218.079 224.337 217.666 224.559 217.391 224.881C217.116 225.204 216.999 225.601 217.065 225.993C217.22 230.77 218.233 257.078 218.7 261.291Z" fill="white"/>
    <path d="M215.572 222.744C212.625 220.037 208.472 219.138 209.848 214.892C211.223 210.646 215.13 211.545 218.505 211.545C221.88 211.545 226.02 210.754 227.435 214.892C228.59 218.304 225.579 220.524 221.737 222.961C220.875 223.596 219.751 223.929 218.602 223.889C217.453 223.848 216.367 223.438 215.572 222.744Z" fill="white"/>
    <path d="M218.741 225.42C217.895 225.411 217.06 225.259 216.286 224.974C215.512 224.69 214.815 224.277 214.237 223.762C213.513 223.139 212.737 222.56 211.914 222.029C209.629 220.47 206.787 218.542 208.098 214.502C209.642 209.704 214.12 209.888 217.066 209.996C218.001 209.996 218.897 209.996 219.857 209.996C222.907 209.888 227.645 209.758 229.176 214.48C230.708 219.203 226.178 222.062 222.842 224.163C221.681 224.951 220.237 225.393 218.741 225.42ZM216.911 221.726C217.153 221.936 217.443 222.103 217.764 222.217C218.085 222.33 218.431 222.389 218.78 222.389C219.129 222.389 219.474 222.33 219.795 222.217C220.116 222.103 220.407 221.936 220.649 221.726C224.673 219.17 226.464 217.556 225.685 215.228C224.906 212.899 223.297 212.834 219.987 212.953C218.936 212.953 217.936 212.953 216.898 212.953C213.77 212.823 212.355 212.867 211.589 215.217C210.927 217.286 211.849 218.022 214.185 219.614C215.158 220.258 216.069 220.964 216.911 221.726Z" fill="white"/>
    <path d="M266.101 76.8735H171.233C166.853 76.8735 163.303 79.8364 163.303 83.4912V142.888C163.303 146.543 166.853 149.506 171.233 149.506H266.101C270.481 149.506 274.032 146.543 274.032 142.888V83.4912C274.032 79.8364 270.481 76.8735 266.101 76.8735Z" fill="#E9000E"/>
    <path d="M213.82 98.1236C213.988 100.95 215.351 132.577 212.262 136.433C209.173 140.288 201.32 144.469 192.364 144.209C183.408 143.949 178.242 139.963 178.632 132.111C179.216 120.684 180.488 116.536 190.054 108.283C199.62 100.03 203.838 97.4413 207.33 95.8058C210.821 94.1703 213.651 94.6577 213.82 98.1236Z" fill="white"/>
    <path d="M228.669 98.1238C228.5 100.951 227.137 132.577 230.226 136.433C233.315 140.289 241.168 144.469 250.111 144.209C259.054 143.949 264.246 139.964 263.843 132.111C263.272 120.685 262 116.536 252.434 108.283C242.868 100.03 238.702 97.4523 235.145 95.7951C231.589 94.138 228.889 94.6579 228.669 98.1238Z" fill="white"/>
    <path d="M197.687 125.764C197.494 125.766 197.303 125.732 197.128 125.664C196.953 125.597 196.798 125.498 196.675 125.374C196.548 125.266 196.45 125.137 196.386 124.995C196.323 124.853 196.296 124.702 196.307 124.551C196.318 124.4 196.367 124.252 196.45 124.118C196.534 123.984 196.65 123.865 196.792 123.771C205.176 117.63 216.871 112.496 219.973 111.185V82.4185C219.973 82.1169 220.117 81.8276 220.372 81.6143C220.628 81.4011 220.975 81.2812 221.336 81.2812C221.698 81.2812 222.044 81.4011 222.3 81.6143C222.555 81.8276 222.699 82.1169 222.699 82.4185V111.889C222.698 112.102 222.626 112.31 222.49 112.49C222.355 112.67 222.162 112.814 221.933 112.908C221.79 112.908 207.85 118.691 198.57 125.482C198.328 125.665 198.013 125.766 197.687 125.764Z" fill="#121E30"/>
    <path d="M206.539 128.548C206.359 128.547 206.18 128.515 206.014 128.456C205.847 128.397 205.697 128.312 205.57 128.204C205.444 128.096 205.344 127.969 205.276 127.829C205.209 127.689 205.175 127.54 205.176 127.389L205.41 119.807L198.92 118.594C198.741 118.569 198.57 118.513 198.419 118.43C198.267 118.346 198.139 118.237 198.041 118.11C197.943 117.982 197.878 117.839 197.851 117.689C197.823 117.539 197.834 117.387 197.882 117.24C197.968 116.945 198.191 116.689 198.503 116.531C198.814 116.373 199.189 116.324 199.543 116.396L208.175 118.02L207.902 127.454C207.889 127.748 207.739 128.026 207.485 128.23C207.231 128.434 206.892 128.548 206.539 128.548Z" fill="#121E30"/>
    <path d="M244.972 125.764C244.643 125.762 244.325 125.663 244.076 125.482C234.809 118.691 220.869 112.962 220.713 112.908C220.484 112.814 220.291 112.67 220.156 112.49C220.02 112.31 219.948 112.102 219.947 111.889V82.4185C219.947 82.1169 220.091 81.8276 220.346 81.6143C220.602 81.4011 220.949 81.2812 221.31 81.2812C221.672 81.2812 222.018 81.4011 222.274 81.6143C222.529 81.8276 222.673 82.1169 222.673 82.4185V111.185C225.775 112.496 237.47 117.684 245.855 123.771C246.113 123.902 246.309 124.104 246.407 124.343C246.506 124.581 246.502 124.841 246.396 125.077C246.29 125.313 246.088 125.511 245.826 125.637C245.564 125.762 245.257 125.807 244.959 125.764H244.972Z" fill="#121E30"/>
    <path d="M236.132 128.548C235.781 128.548 235.444 128.436 235.19 128.234C234.936 128.033 234.785 127.757 234.769 127.465L234.496 118.02L243.166 116.407C243.517 116.345 243.883 116.4 244.186 116.559C244.489 116.719 244.705 116.971 244.789 117.262C244.837 117.408 244.848 117.56 244.821 117.709C244.795 117.858 244.731 118.001 244.635 118.128C244.538 118.256 244.411 118.365 244.261 118.449C244.111 118.533 243.941 118.59 243.764 118.616L237.274 119.829L237.507 127.411C237.52 127.559 237.496 127.708 237.436 127.849C237.376 127.989 237.283 128.117 237.161 128.226C237.039 128.335 236.892 128.422 236.728 128.481C236.564 128.54 236.388 128.57 236.209 128.57L236.132 128.548Z" fill="#121E30"/>
    <path d="M279.043 49.2327H157.696C155.39 49.2327 153.178 49.9972 151.547 51.3581C149.916 52.719 149 54.5648 149 56.4894V265.179C149 267.104 149.916 268.95 151.547 270.311C153.178 271.672 155.39 272.436 157.696 272.436H279.043C281.348 272.433 283.558 271.668 285.188 270.308C286.818 268.947 287.736 267.103 287.739 265.179V56.4894C287.736 54.5657 286.818 52.7215 285.188 51.3613C283.558 50.001 281.348 49.2355 279.043 49.2327ZM279.692 250.774C279.692 251.616 279.493 252.45 279.107 253.228C278.721 254.006 278.155 254.713 277.441 255.308C276.728 255.904 275.881 256.376 274.948 256.698C274.016 257.02 273.017 257.186 272.008 257.186H164.731C162.695 257.172 160.746 256.493 159.303 255.295C157.859 254.096 157.036 252.474 157.008 250.774V66.2047C157.036 64.5056 157.859 62.8829 159.303 61.6844C160.746 60.4858 162.695 59.8068 164.731 59.7928H206.681C206.681 62.3781 207.912 64.8575 210.103 66.6856C212.294 68.5136 215.265 69.5406 218.363 69.5406C221.461 69.5406 224.432 68.5136 226.623 66.6856C228.814 64.8575 230.045 62.3781 230.045 59.7928H271.995C274.033 59.7928 275.987 60.4683 277.428 61.6708C278.869 62.8733 279.679 64.5042 279.679 66.2047L279.692 250.774Z" fill="black"/>
    <path d="M221.776 59.782C221.779 60.3459 221.581 60.8977 221.207 61.3675C220.834 61.8374 220.302 62.2042 219.678 62.4214C219.055 62.6387 218.368 62.6967 217.705 62.588C217.042 62.4793 216.432 62.2089 215.954 61.8109C215.475 61.413 215.149 60.9054 215.016 60.3526C214.883 59.7997 214.95 59.2264 215.208 58.7053C215.466 58.1842 215.903 57.7386 216.465 57.4252C217.027 57.1117 217.687 56.9443 218.363 56.9443C219.266 56.9443 220.132 57.243 220.772 57.7748C221.412 58.3067 221.773 59.0284 221.776 59.782Z" fill="#21333A"/>
    <path d="M247.878 189.992H171.233C169.131 189.989 167.116 189.291 165.629 188.05C164.143 186.81 163.306 185.128 163.303 183.374V162.427C163.306 160.673 164.143 158.991 165.629 157.751C167.116 156.51 169.131 155.812 171.233 155.809H315.683C316.725 155.809 317.756 155.981 318.718 156.313C319.681 156.646 320.555 157.133 321.291 157.748C322.028 158.362 322.612 159.092 323.01 159.895C323.409 160.697 323.614 161.558 323.614 162.427V183.342C323.614 184.211 323.409 185.071 323.01 185.874C322.612 186.677 322.028 187.406 321.291 188.021C320.555 188.635 319.681 189.123 318.718 189.455C317.756 189.788 316.725 189.959 315.683 189.959H247.878V189.992Z" fill="white"/>
    <path d="M311.713 173.182H171.455V175.446H311.713V173.182Z" fill="#F2666E"/>
    <path d="M311.713 181.641H171.455V183.905H311.713V181.641Z" fill="#F2666E"/>
    <path d="M218.753 161.734H171.455V167.712H218.753V161.734Z" fill="#B60E09"/>
    <path d="M39.0097 68.584C40.8788 68.4649 48.6276 70.1329 51.9893 74.3353C55.1373 78.4686 57.2439 83.0934 58.1806 87.928C58.8815 91.9463 60.8934 96.4953 59.0243 99.4955C57.1553 102.496 49.4324 106.676 49.4324 106.676V113.511H39.0487V104.402C39.0487 104.402 23.7976 95.2931 23.8755 87.993C23.9534 80.693 25.3681 69.3205 30.6768 68.5732C33.4271 68.1097 36.2611 68.1134 39.0097 68.584Z" fill="#F9C0B9"/>
    <path d="M51.068 86.7905C51.068 86.7905 43.4619 84.9925 44.033 89.4224C44.6041 93.8522 50.5228 94.1555 50.5228 94.1555C50.5228 94.1555 50.5228 102.127 46.0708 104.521C41.6188 106.914 34.7266 106.199 32.8576 105.485C30.9885 104.77 14.3357 91.8268 15.9841 81.2775C17.6325 70.7282 28.1849 64.0239 37.8028 65.2261C47.4207 66.4283 48.5759 68.4754 50.1594 76.3711C51.7429 84.2668 51.068 86.7905 51.068 86.7905Z" fill="#591915"/>
    <path d="M63.125 115.785C63.125 115.785 54.221 108.712 45.317 108.831C36.413 108.95 29.9621 111.831 26.7951 118.059C23.628 124.287 63.125 115.785 63.125 115.785Z" fill="#404243"/>
    <path d="M73.7171 298.936C74.8464 300.647 72.1337 300.853 72.1337 300.853H44.2794C44.2794 300.853 43.9939 300.853 42.8517 299.9L41.6964 298.936C41.7812 299.092 41.8127 299.265 41.7876 299.435C41.7624 299.605 41.6814 299.766 41.5537 299.9C41.1408 300.333 40.5929 300.663 39.9701 300.853H30.6768C29.9343 300.746 29.2697 300.405 28.8207 299.9C28.0938 299.055 27.2372 293.553 28.029 292.535C28.8207 291.517 56.675 292.535 56.675 292.535C56.675 292.535 73.0033 297.853 73.7171 298.936Z" fill="#121E30"/>
    <path d="M66.7461 233.192C66.7461 233.734 56.635 292.503 56.635 292.503H27.989L23.2255 233.192H66.7461Z" fill="#404243"/>
    <path d="M40.9041 293.52C41.2374 293.52 41.558 293.414 41.7997 293.222C42.0413 293.031 42.1854 292.769 42.202 292.491L43.5 234.329C43.5 234.042 43.3632 233.766 43.1198 233.563C42.8764 233.36 42.5463 233.246 42.202 233.246C41.8578 233.246 41.5277 233.36 41.2843 233.563C41.0408 233.766 40.9041 234.042 40.9041 234.329L39.6061 292.491C39.6061 292.778 39.7429 293.054 39.9863 293.257C40.2297 293.46 40.5598 293.574 40.9041 293.574V293.52Z" fill="#6B6F71"/>
    <path d="M29.495 294.127C29.8392 294.127 30.1694 294.013 30.4128 293.81C30.6562 293.607 30.793 293.331 30.793 293.044L26.0294 233.745C26.0002 233.475 25.8506 233.224 25.6103 233.041C25.37 232.859 25.0564 232.758 24.7314 232.759C24.4078 232.783 24.107 232.908 23.8883 233.109C23.6696 233.309 23.549 233.571 23.5503 233.842L28.3008 293.141C28.3276 293.397 28.4624 293.637 28.6811 293.817C28.8998 293.998 29.1883 294.107 29.495 294.127Z" fill="#6B6F71"/>
    <path d="M77.5588 119.717C77.5588 119.717 60.5296 113.846 46.252 113.727C31.9744 113.608 15.1009 123.713 15.1009 123.713C15.1009 123.713 -1.59085 157.397 0.122464 166.257C1.83577 175.117 19.514 191.807 19.514 191.807L19.0727 237.839L77.4809 238.998V183.37C77.4809 183.37 89.7207 170.373 89.7207 166.29C89.7207 162.206 77.5588 119.717 77.5588 119.717Z" fill="white"/>
    <path d="M52.1845 178.139C50.0276 178.01 47.8642 178.299 45.8635 178.984C44.6149 179.51 43.4134 180.111 42.2681 180.782C40.5722 180.041 38.7944 179.439 36.9595 178.984C34.6621 178.496 28.1982 179.2 28.1982 179.2L26.3292 192.999C26.3292 192.999 31.3652 195.75 35.2332 195.988C39.1011 196.227 43.9944 194.071 43.9944 194.071C45.2682 194.511 46.6403 194.718 48.0181 194.678C50.614 194.678 60.0762 187.096 60.0762 187.096L56.6365 176.861L52.1845 178.139Z" fill="#F9C0B9"/>
    <path d="M314.796 8.89212e-06H215.931C214.889 -0.00141761 213.857 0.168801 212.894 0.500866C211.931 0.832931 211.056 1.32032 210.319 1.93512C209.582 2.54991 208.998 3.28001 208.6 4.08355C208.202 4.88709 207.998 5.74827 208 6.61772V42.3598C207.998 43.2297 208.202 44.0914 208.6 44.8955C208.998 45.6997 209.582 46.4305 210.318 47.0462C211.055 47.6618 211.93 48.1502 212.893 48.4835C213.856 48.8167 214.888 48.9883 215.931 48.9883H314.744C315.787 48.9883 316.819 48.8167 317.782 48.4835C318.745 48.1502 319.62 47.6618 320.357 47.0462C321.093 46.4305 321.677 45.6997 322.075 44.8955C322.473 44.0914 322.677 43.2297 322.675 42.3598V11.4266C322.675 11.4266 322.961 6.66104 325.271 4.03995C326.893 2.32614 328.985 0.962847 331.371 0.0649918L314.796 8.89212e-06Z" fill="white"/>
    <path d="M141.269 285.464C141.269 286.948 140.742 288.4 139.753 289.634C138.765 290.868 137.36 291.83 135.716 292.398C134.073 292.966 132.264 293.115 130.519 292.825C128.775 292.536 127.172 291.821 125.914 290.771C124.656 289.722 123.799 288.384 123.452 286.928C123.105 285.472 123.283 283.963 123.964 282.591C124.645 281.22 125.798 280.048 127.277 279.223C128.756 278.398 130.495 277.958 132.274 277.958C134.66 277.958 136.948 278.749 138.635 280.156C140.321 281.564 141.269 283.473 141.269 285.464Z" fill="white"/>
    <path d="M141.099 285.464C141.099 287.426 140.165 289.308 138.503 290.695C136.84 292.082 134.585 292.862 132.234 292.862C129.883 292.862 127.628 292.082 125.966 290.695C124.303 289.308 123.369 287.426 123.369 285.464H141.099Z" fill="white"/>
    <path d="M124.875 286.591C125.161 288.055 126.061 289.386 127.415 290.347C128.77 291.308 130.489 291.836 132.267 291.836C134.045 291.836 135.764 291.308 137.118 290.347C138.473 289.386 139.373 288.055 139.659 286.591H124.875Z" fill="#F2666E"/>
    <path d="M166.865 285.464C166.865 286.948 166.337 288.4 165.349 289.634C164.36 290.868 162.956 291.83 161.312 292.398C159.668 292.966 157.86 293.115 156.115 292.825C154.37 292.536 152.767 291.821 151.51 290.771C150.252 289.722 149.395 288.384 149.048 286.928C148.701 285.472 148.879 283.963 149.56 282.591C150.24 281.22 151.393 280.048 152.873 279.223C154.352 278.398 156.091 277.958 157.87 277.958C160.254 277.961 162.54 278.753 164.226 280.16C165.913 281.567 166.861 283.474 166.865 285.464Z" fill="white"/>
    <path d="M166.722 285.464C166.722 287.426 165.788 289.308 164.126 290.695C162.463 292.082 160.208 292.862 157.857 292.862C155.506 292.862 153.251 292.082 151.589 290.695C149.926 289.308 148.992 287.426 148.992 285.464H166.722Z" fill="white"/>
    <path d="M141.255 264.409C141.255 266.4 140.308 268.309 138.621 269.717C136.934 271.124 134.646 271.915 132.26 271.915C129.875 271.915 127.587 271.124 125.9 269.717C124.213 268.309 123.266 266.4 123.266 264.409H141.255Z" fill="white"/>
    <path d="M171.55 252.451H72.6845C71.6425 252.45 70.6105 252.62 69.6476 252.952C68.6846 253.284 67.8097 253.772 67.0729 254.387C66.3362 255.001 65.7521 255.731 65.3541 256.535C64.9562 257.339 64.7522 258.2 64.7539 259.069V294.811C64.7522 295.681 64.9561 296.543 65.3539 297.347C65.7516 298.151 66.3355 298.882 67.0721 299.498C67.8087 300.113 68.6836 300.602 69.6466 300.935C70.6096 301.268 71.6419 301.44 72.6845 301.44H171.498C172.541 301.44 173.573 301.268 174.536 300.935C175.499 300.602 176.374 300.113 177.111 299.498C177.847 298.882 178.431 298.151 178.829 297.347C179.227 296.543 179.431 295.681 179.429 294.811V263.878C179.429 263.878 179.714 259.112 182.025 256.491C183.647 254.778 185.739 253.414 188.125 252.516L171.55 252.451Z" fill="white"/>
    <path d="M78.3438 278.078V290.836C78.3438 293.003 81.1084 294.811 84.5221 294.811C87.9357 294.811 90.7004 293.035 90.7004 290.836V278.078H78.3438Z" fill="url(#paint0_radial_6616_62472)"/>
    <path d="M99.9688 278.078V290.836C99.9688 293.003 102.798 294.811 106.277 294.811C109.755 294.811 112.611 293.035 112.611 290.836V278.078H99.9688Z" fill="url(#paint1_radial_6616_62472)"/>
    <path d="M78.3438 276.528V263.769C78.3438 261.603 81.1084 259.794 84.5221 259.794C87.9357 259.794 90.7004 261.582 90.7004 263.769V276.528H78.3438Z" fill="url(#paint2_radial_6616_62472)"/>
    <path d="M99.9688 276.528V263.769C99.9688 261.603 102.798 259.794 106.277 259.794C109.755 259.794 112.611 261.582 112.611 263.769V276.528H99.9688Z" fill="url(#paint3_radial_6616_62472)"/>
    <path d="M132.275 279.096C130.765 279.096 129.29 279.47 128.034 280.169C126.779 280.869 125.801 281.864 125.224 283.028C124.646 284.191 124.495 285.472 124.789 286.707C125.084 287.943 125.811 289.077 126.878 289.968C127.945 290.859 129.305 291.465 130.786 291.711C132.266 291.957 133.801 291.831 135.195 291.349C136.59 290.867 137.782 290.05 138.62 289.003C139.459 287.956 139.907 286.724 139.907 285.465C139.907 283.776 139.103 282.156 137.671 280.961C136.24 279.767 134.299 279.096 132.275 279.096Z" fill="#F2666E"/>
    <path d="M157.87 279.096C156.361 279.096 154.885 279.47 153.63 280.169C152.375 280.869 151.397 281.864 150.819 283.028C150.242 284.191 150.09 285.472 150.385 286.707C150.679 287.943 151.406 289.077 152.474 289.968C153.541 290.859 154.901 291.465 156.381 291.711C157.862 291.957 159.396 291.831 160.791 291.349C162.185 290.867 163.377 290.05 164.216 289.003C165.055 287.956 165.502 286.724 165.502 285.465C165.499 283.777 164.694 282.158 163.263 280.965C161.833 279.771 159.893 279.099 157.87 279.096Z" fill="#F2666E"/>
    <path d="M150.471 286.591C150.756 288.055 151.657 289.386 153.011 290.347C154.365 291.308 156.085 291.836 157.863 291.836C159.64 291.836 161.36 291.308 162.714 290.347C164.068 289.386 164.969 288.055 165.254 286.591H150.471Z" fill="#F2666E"/>
    <path d="M124.746 265.589C125.059 267.065 125.985 268.403 127.362 269.366C128.738 270.33 130.478 270.858 132.274 270.858C134.071 270.858 135.81 270.33 137.187 269.366C138.564 268.403 139.49 267.065 139.802 265.589H124.746Z" fill="#F2666E"/>
    <path d="M314.796 8.89212e-06H215.931C214.889 -0.00141761 213.857 0.168801 212.894 0.500866C211.931 0.832931 211.056 1.32032 210.319 1.93512C209.582 2.54991 208.998 3.28001 208.6 4.08355C208.202 4.88709 207.998 5.74827 208 6.61772V42.3598C207.998 43.2297 208.202 44.0914 208.6 44.8955C208.998 45.6997 209.582 46.4305 210.318 47.0462C211.055 47.6618 211.93 48.1502 212.893 48.4835C213.856 48.8167 214.888 48.9883 215.931 48.9883H314.744C315.787 48.9883 316.819 48.8167 317.782 48.4835C318.745 48.1502 319.62 47.6618 320.357 47.0462C321.093 46.4305 321.677 45.6997 322.075 44.8955C322.473 44.0914 322.677 43.2297 322.675 42.3598V11.4266C322.675 11.4266 322.961 6.66104 325.271 4.03995C326.893 2.32614 328.985 0.962847 331.371 0.0649918L314.796 8.89212e-06Z" fill="white"/>
    <path d="M221.59 25.6262V38.385C221.59 40.5512 224.355 42.36 227.768 42.36C231.182 42.36 233.946 40.5837 233.946 38.385V25.6262H221.59Z" fill="url(#paint4_linear_6616_62472)"/>
    <path d="M243.215 25.6262V38.385C243.215 40.5512 246.044 42.36 249.523 42.36C253.001 42.36 255.857 40.5837 255.857 38.385V25.6262H243.215Z" fill="url(#paint5_linear_6616_62472)"/>
    <path d="M221.59 24.0768V11.318C221.59 9.1518 224.355 7.34302 227.768 7.34302C231.182 7.34302 233.946 9.13013 233.946 11.318V24.0768H221.59Z" fill="url(#paint6_linear_6616_62472)"/>
    <path d="M243.215 24.0768V11.318C243.215 9.1518 246.044 7.34302 249.523 7.34302C253.001 7.34302 255.857 9.13013 255.857 11.318V24.0768H243.215Z" fill="url(#paint7_linear_6616_62472)"/>
    <path d="M275.521 26.6448C274.011 26.6448 272.536 27.0183 271.281 27.7181C270.026 28.4179 269.047 29.4125 268.47 30.5762C267.892 31.7399 267.741 33.0204 268.035 34.2558C268.33 35.4912 269.057 36.626 270.124 37.5166C271.191 38.4073 272.551 39.0138 274.032 39.2595C275.512 39.5053 277.047 39.3792 278.441 38.8972C279.836 38.4151 281.028 37.5989 281.866 36.5516C282.705 35.5042 283.153 34.2729 283.153 33.0134C283.153 31.3243 282.349 29.7044 280.917 28.5101C279.486 27.3157 277.545 26.6448 275.521 26.6448Z" fill="#F2666E"/>
    <path d="M301.116 26.6448C299.607 26.6448 298.131 27.0183 296.876 27.7181C295.621 28.4179 294.643 29.4125 294.065 30.5762C293.488 31.7399 293.337 33.0204 293.631 34.2558C293.926 35.4912 294.652 36.626 295.72 37.5166C296.787 38.4073 298.147 39.0138 299.627 39.2595C301.108 39.5053 302.642 39.3792 304.037 38.8972C305.432 38.4151 306.624 37.5989 307.462 36.5516C308.301 35.5042 308.748 34.2729 308.748 33.0134C308.745 31.3252 307.94 29.707 306.509 28.5132C305.079 27.3195 303.139 26.6476 301.116 26.6448Z" fill="#F2666E"/>
    <path d="M293.717 34.1394C294.002 35.6035 294.903 36.935 296.257 37.8959C297.611 38.8568 299.331 39.3845 301.109 39.3845C302.886 39.3845 304.606 38.8568 305.96 37.8959C307.314 36.935 308.215 35.6035 308.501 34.1394H293.717Z" fill="#F2666E"/>
    <path d="M267.992 13.1377C268.305 14.614 269.231 15.9513 270.608 16.9147C271.984 17.8781 273.724 18.4062 275.52 18.4062C277.317 18.4062 279.056 17.8781 280.433 16.9147C281.81 15.9513 282.736 14.614 283.049 13.1377H267.992Z" fill="#F2666E"/>
    <defs>
        <radialGradient id="paint0_radial_6616_62472" cx="0" cy="0" r="1" gradientUnits="userSpaceOnUse" gradientTransform="translate(90.7004 293.766) rotate(-128.226) scale(19.9699 85.2908)">
            <stop stop-color="#F20101"/>
            <stop offset="1" stop-color="#981E13"/>
        </radialGradient>
        <radialGradient id="paint1_radial_6616_62472" cx="0" cy="0" r="1" gradientUnits="userSpaceOnUse" gradientTransform="translate(112.611 293.766) rotate(-128.864) scale(20.1478 86.491)">
            <stop stop-color="#F20101"/>
            <stop offset="1" stop-color="#981E13"/>
        </radialGradient>
        <radialGradient id="paint2_radial_6616_62472" cx="0" cy="0" r="1" gradientUnits="userSpaceOnUse" gradientTransform="translate(90.7004 275.482) rotate(-128.226) scale(19.9699 85.2908)">
            <stop stop-color="#F20101"/>
            <stop offset="1" stop-color="#981E13"/>
        </radialGradient>
        <radialGradient id="paint3_radial_6616_62472" cx="0" cy="0" r="1" gradientUnits="userSpaceOnUse" gradientTransform="translate(112.611 275.482) rotate(-128.864) scale(20.1478 86.491)">
            <stop stop-color="#F20101"/>
            <stop offset="1" stop-color="#981E13"/>
        </radialGradient>
        <linearGradient id="paint4_linear_6616_62472" x1="225.295" y1="24.6064" x2="235.613" y2="34.3817" gradientUnits="userSpaceOnUse">
            <stop stop-color="#F44F4F"/>
            <stop offset="0.4429" stop-color="#EE3D3D"/>
            <stop offset="1" stop-color="#FC0E1C"/>
        </linearGradient>
        <linearGradient id="paint5_linear_6616_62472" x1="247.006" y1="24.6064" x2="257.334" y2="34.6173" gradientUnits="userSpaceOnUse">
            <stop stop-color="#F44F4F"/>
            <stop offset="0.4429" stop-color="#EE3D3D"/>
            <stop offset="1" stop-color="#FC0E1C"/>
        </linearGradient>
        <linearGradient id="paint6_linear_6616_62472" x1="225.295" y1="6.3232" x2="235.613" y2="16.0985" gradientUnits="userSpaceOnUse">
            <stop stop-color="#F44F4F"/>
            <stop offset="0.4429" stop-color="#EE3D3D"/>
            <stop offset="1" stop-color="#FC0E1C"/>
        </linearGradient>
        <linearGradient id="paint7_linear_6616_62472" x1="247.006" y1="6.3232" x2="257.334" y2="16.3341" gradientUnits="userSpaceOnUse">
            <stop stop-color="#F44F4F"/>
            <stop offset="0.4429" stop-color="#EE3D3D"/>
            <stop offset="1" stop-color="#FC0E1C"/>
        </linearGradient>
    </defs>
</svg>
