<svg width="142" height="324" viewBox="0 0 142 324" fill="none" xmlns="http://www.w3.org/2000/svg">
    <path d="M62.0135 137.964C56.4109 137.433 52.7934 146.293 52.1082 148.117C50.9091 147.152 44.8564 142.735 40.2984 147.905C35.2165 153.668 40.5638 168.366 45.0244 176.319C47.1472 180.099 54.4292 191.594 57.2069 175.868C64.8752 186.812 67.1391 170.948 67.6496 165.964C68.7245 155.476 68.2609 138.547 62.0135 137.964Z" fill="#FF7762"/>
    <path d="M62.0515 137.941C62.0749 138.079 62.1049 138.211 62.1283 138.344C65.3092 155.786 61.8145 172.724 54.3244 176.177C50.279 178.039 45.8931 175.583 42.2148 170.188C43.1118 172.333 44.0987 174.38 45.1688 176.315C47.2783 180.097 54.5147 191.598 57.2751 175.864C64.8953 186.813 67.145 170.941 67.6523 165.955C68.7204 155.462 68.2598 138.524 62.0515 137.941Z" fill="#F25041"/>
    <path opacity="0.2" d="M41.4355 151.39C43.2812 149.404 44.8936 153.688 47.1078 158.728C49.3219 163.769 51.2961 167.666 49.4504 169.641C47.6047 171.616 44.3156 169.149 42.1014 164.108C39.8873 159.067 39.5898 153.38 41.4355 151.39Z" fill="white"/>
    <path d="M35.616 234.435L34.6484 233.852L42.3994 202.054L43.0118 202.427L35.616 234.435Z" fill="#A0D9D9"/>
    <path d="M39.6464 227.619C39.4513 228.458 39.1076 229.184 38.6588 229.705C38.2099 230.226 37.676 230.519 37.1247 230.547C36.5734 230.575 36.0293 230.336 35.5615 229.861C35.0936 229.386 34.7229 228.696 34.4962 227.879C34.2696 227.061 34.1972 226.152 34.2882 225.268C34.3792 224.383 34.6296 223.563 35.0076 222.91C35.3855 222.256 35.8742 221.8 36.4117 221.599C36.9492 221.397 37.5113 221.459 38.0271 221.777C38.7174 222.205 39.2755 223.059 39.579 224.154C39.8825 225.249 39.9067 226.495 39.6464 227.619Z" fill="#A0D9D9"/>
    <path d="M30.9779 224.774L20.5213 268.633C20.1363 270.248 20.6489 272.052 21.6661 272.663L29.1873 277.182C30.2045 277.793 31.3413 276.98 31.7263 275.365L42.1828 231.506C42.5678 229.891 42.0553 228.087 41.038 227.475L33.5169 222.957C32.4996 222.346 31.3629 223.159 30.9779 224.774Z" fill="white"/>
    <path d="M30.5873 273.939L39.7252 235.975C39.8681 235.379 39.8552 234.719 39.6891 234.138C39.5231 233.558 39.2175 233.104 38.8393 232.877L33.0102 229.409C32.6314 229.185 32.2115 229.205 31.8423 229.466C31.4731 229.727 31.1847 230.208 31.0403 230.803L21.9023 268.767L30.5873 273.939Z" fill="#FF7762"/>
    <path d="M35.4797 232.742L35.3398 233.328L40.9407 236.693L41.0806 236.107L35.4797 232.742Z" fill="#0F3759"/>
    <path d="M32.6926 244.445L32.5527 245.032L38.1536 248.397L38.2935 247.81L32.6926 244.445Z" fill="#0F3759"/>
    <path d="M29.9036 256.143L29.7637 256.729L35.3646 260.094L35.5045 259.508L29.9036 256.143Z" fill="#0F3759"/>
    <path d="M27.1126 267.844L26.9727 268.431L32.5736 271.796L32.7135 271.209L27.1126 267.844Z" fill="#0F3759"/>
    <path opacity="0.2" d="M41.2146 227.958C40.7906 231.561 40.1654 235.096 39.3467 238.521C35.3097 255.522 27.5269 266.831 21.3308 265.263L20.4371 269.029C20.255 269.808 20.2731 270.671 20.4874 271.429C20.7018 272.187 21.095 272.779 21.5819 273.078L29.1002 277.623C29.5885 277.916 30.1298 277.888 30.6054 277.546C31.081 277.204 31.4522 276.576 31.6376 275.799L42.0882 231.805C42.2554 231.103 42.2592 230.329 42.0989 229.623C41.9386 228.918 41.6248 228.327 41.2146 227.958Z" fill="#0F3759"/>
    <path opacity="0.2" d="M27.5348 254.857C25.1047 253.372 26.6858 248.132 28.337 241.485C29.9882 234.838 31.0913 229.304 33.518 230.794C35.9447 232.284 36.5732 238.872 34.9219 245.519C33.2707 252.166 29.9615 256.347 27.5348 254.857Z" fill="white"/>
    <path d="M33.4116 275.805L19.1055 267.21L18.2886 270.636L32.5948 279.231L33.4116 275.805Z" fill="white"/>
    <path d="M24.57 283.701L26.4416 275.869L24.305 274.587L22.4367 282.42L19.525 280.675L18.7168 284.059L26.6701 288.834L27.4784 285.451L24.57 283.701Z" fill="white"/>
    <path d="M76.8629 323.158C95.9985 323.158 111.511 298.657 111.511 268.435C111.511 238.212 95.9985 213.712 76.8629 213.712C57.7273 213.712 42.2148 238.212 42.2148 268.435C42.2148 298.657 57.7273 323.158 76.8629 323.158Z" fill="#A0D9D9"/>
    <mask id="mask0_6616_62545" style="mask-type:luminance" maskUnits="userSpaceOnUse" x="42" y="213" width="70" height="111">
        <path d="M76.8186 323.155C95.8973 323.155 111.364 298.603 111.364 268.316C111.364 238.03 95.8973 213.478 76.8186 213.478C57.7398 213.478 42.2734 238.03 42.2734 268.316C42.2734 298.603 57.7398 323.155 76.8186 323.155Z" fill="white"/>
    </mask>
    <g mask="url(#mask0_6616_62545)">
        <path d="M47.0033 292.844C47.0033 292.844 47.3885 295.625 46.6483 297.135C45.9081 298.645 44.5918 300.942 45.0507 304.254C45.5095 307.566 47.0603 313.442 48.3297 314.712C49.5991 315.983 51.19 316.621 51.0092 319.992C50.8283 323.363 49.8469 331.072 49.7297 333.694C49.6125 336.315 48.1321 347.746 48.6177 352.712C49.1034 357.678 51.3575 359.438 52.0809 359.209C52.8044 358.981 51.324 352.648 52.0809 350.564C52.8379 348.48 53.6082 347.704 54.2279 344.418C54.8475 341.132 55.9762 339.888 57.1451 339.415C58.3141 338.941 58.0026 336.336 59.2887 334.374C60.5749 332.412 62.3768 329.227 62.551 327.074C62.7251 324.921 63.0433 322.342 64.7984 322.549C66.5534 322.757 67.6353 320.768 67.9066 316.999C68.1779 313.229 68.5429 311.32 69.1458 309.959C69.7487 308.598 70.2578 306.386 68.7808 304.445C67.3037 302.505 65.4951 303.775 64.2759 302C63.4155 300.765 62.3097 300.048 61.1509 299.974C60.5883 299.915 61.3754 294.625 59.4763 293.796C57.5772 292.966 56.9509 292.663 56.2375 291.206C55.5241 289.75 52.9417 288.436 51.478 289.032C50.0144 289.627 49.1335 290.366 47.9177 290.419C46.7019 290.473 46.4808 289.824 45.3019 289.792C44.1229 289.76 43.1817 288.787 43.3492 286.905C43.5167 285.023 42.5286 284.316 41.286 283.375C40.0434 282.434 40.5324 280.551 39.2764 281.051C38.0204 281.551 36.262 278.393 36.3558 276.526C36.4496 274.66 36.4428 268.487 38.6434 269.412C40.8439 270.338 43.2789 271.417 44.6086 273.001C45.9383 274.586 44.421 268.514 45.2349 267.238C46.0488 265.962 48.601 265.249 48.6814 263.266C48.7617 261.283 49.5857 256.578 51.468 254.621C53.3503 252.664 55.2896 252.67 56.1571 251.362C57.0246 250.054 59.0476 244.636 58.4815 242.647C57.9155 240.659 56.0934 236.575 55.226 234.613C54.3585 232.652 52.992 234.31 51.8029 233.986C50.6139 233.662 50.7613 230.264 49.6895 229.982C48.6177 229.701 46.9129 230.828 46.9598 232.87C47.0067 234.911 48.0148 238.298 47.1038 239.431C46.1928 240.563 45.6502 242.137 44.2334 239.989C42.8166 237.841 40.0501 236.746 39.2362 234.613C38.4223 232.481 38.1276 230.216 40.241 227.877C42.3544 225.538 44.9535 222.672 44.9636 221.167C44.9736 219.662 43.7746 217.392 42.954 217.631C42.1334 217.871 42.3779 220.316 41.3664 220.141C40.3549 219.965 39.4171 214.941 38.4056 214.186C37.3941 213.431 38.1745 219.625 36.8548 220.141C35.3185 220.789 33.7021 220.789 32.1657 220.141C30.126 219.365 29.6102 219.721 28.1867 220.141C26.7633 220.561 26.5121 219.939 24.958 218.907C23.4039 217.876 22.8646 217.35 19.7732 217.759C16.6817 218.168 15.1176 219.136 13.4865 217.759C11.8553 216.382 8.76054 218.174 6.54998 218.02C4.33941 217.865 1.48577 220.146 1.48242 223.108C1.48242 229.398 8.71365 231.232 11.1955 232.029C13.6774 232.827 16.6616 236.145 17.4621 239.872C18.2626 243.599 21.0861 244.492 21.5718 248.762C22.0574 253.031 22.3321 260.188 23.089 262.373C23.846 264.558 28.8365 269.524 29.8112 273.097C30.7858 276.67 32.9127 280.036 34.45 282.136C35.9874 284.236 39.618 284.959 40.9377 286.421C42.2573 287.883 44.1631 294.008 47.0033 292.844Z" fill="#038C8C"/>
        <path d="M35.8589 197.99C35.3706 197.779 34.8605 197.727 34.3592 197.837C33.8579 197.946 33.3757 198.216 32.9416 198.629C32.4091 199.16 32.811 201.452 32.7875 202.765C32.7641 204.078 32.4526 206.63 33.2196 208.725C33.9866 210.82 33.8091 213.819 35.467 213.883C37.1249 213.946 38.4814 212 39.6604 210.825C40.8394 209.65 44.7514 209.837 45.5083 207.811C46.2653 205.785 45.0294 206.056 42.9896 205.87C40.9499 205.684 39.8011 203.86 38.5283 201.888C37.2556 199.915 36.6125 198.336 35.8589 197.99Z" fill="#038C8C"/>
        <path d="M42.85 210.639C40.7299 211.128 40.5523 213.335 40.8906 215.217C41.2289 217.099 43.8749 214.154 44.7122 215.217C45.5496 216.28 47.1874 218.939 46.484 221.097C45.7807 223.256 47.3314 225.016 49.3176 225.425C51.3037 225.835 53.1526 227.472 54.1138 225.457C55.0751 223.442 55.4234 221.204 53.5277 219.508C51.632 217.812 51.5181 215.222 50.3525 213.872C49.1869 212.521 47.6965 209.565 46.3534 209.693C45.1736 209.884 44.0033 210.2 42.85 210.639Z" fill="#038C8C"/>
        <path d="M59.5447 191.078C57.9772 191.934 54.2293 194.8 53.7939 196.597C53.3585 198.394 51.4091 198.857 51.1412 200.782C50.8732 202.706 52.712 202.935 55.1604 203.908C57.6088 204.881 58.4897 206.45 58.7141 209.693C58.9385 212.936 62.2342 213.67 61.4337 217.37C60.6332 221.071 60.1174 223.219 61.0418 226.186C61.9663 229.153 64.5084 232.869 65.2285 232.481C65.9486 232.093 67.1209 223.942 69.03 222.267C70.9392 220.592 76.3048 217.663 76.556 216.599C76.8072 215.536 77.8187 204.121 77.6211 202.005C77.4235 199.889 80.8331 196.56 80.9436 194.104C81.0542 191.647 77.3565 193.04 75.6316 192.557C73.9067 192.073 72.4932 189.414 69.9611 189.143C67.429 188.872 61.2026 190.175 59.5447 191.078Z" fill="#038C8C"/>
        <path d="M76.009 254.264C76.009 254.264 72.8874 253.573 72.5156 254.264C72.1438 254.955 72.2979 257.986 72.0802 258.927C71.8625 259.868 71.8927 261.756 72.3247 261.894C72.7568 262.032 73.5003 263.186 73.8185 262.957C74.4998 262.396 75.2048 261.911 75.9286 261.506C76.5784 261.24 76.5985 259.725 77.0942 258.47C77.5899 257.215 77.5798 254.971 79.3282 254.137C81.0765 253.302 82.212 253.892 82.6172 254.626C83.0225 255.359 85.1259 256.891 85.1259 258.603C85.1259 260.315 86.5125 258.071 86.4154 257.497C86.3183 256.923 84.6034 254.567 84.0709 253.775C83.5383 252.983 83.3842 251.425 83.8465 251.175C84.3087 250.925 85.8226 254.312 86.191 254.594C86.5594 254.876 87.2494 255.955 87.1657 256.853C87.0819 257.752 88.0767 261.734 88.5054 261.862C88.9341 261.99 89.6978 261.118 89.5102 260.325C89.3226 259.533 88.5958 258.199 89.1183 257.63C89.6408 257.061 91.014 257.518 91.637 256.853C92.26 256.189 91.3021 255.333 91.8547 253.695C92.4074 252.058 92.749 249.607 93.439 249.947C94.1289 250.287 94.1289 253.461 94.6179 253.312C95.1069 253.164 96.6075 252.036 97.7127 253.982C98.818 255.928 98.4931 256.641 97.3544 256.853C96.2156 257.066 94.0486 256.439 93.506 257.183C92.9634 257.927 90.9471 258.401 90.9337 259.241C90.9203 260.081 91.4495 262.495 92.1294 262.266C92.8093 262.037 95.5624 261.431 95.8136 261.692C96.0648 261.952 95.1103 267.625 94.3868 267.87C93.6634 268.115 93.0672 268.168 92.3772 268.402C91.6873 268.636 89.9925 268.125 89.2623 267.232C88.5322 266.339 87.3934 267.317 86.1876 268.072C84.9819 268.827 83.5082 267.083 82.9488 266.339C82.3895 265.594 83.0292 263.835 82.9488 263.053C82.8684 262.271 80.8354 261.245 80.0215 261.878C79.2076 262.511 76.786 263.308 76.0023 263.632C75.2186 263.957 74.1401 263.287 73.976 263.399C73.8118 263.51 73.5104 265.525 72.7568 265.988C72.0032 266.45 71.9998 268.221 71.5644 270.061C71.129 271.9 69.0993 274.532 68.7979 278.408C68.4964 282.284 68.7979 286.102 69.883 289.18C70.9682 292.259 72.4855 293.551 74.3846 293.434C76.2836 293.317 79.7201 292.253 80.7785 293.434C81.8369 294.614 81.944 297.304 81.6459 299.341C81.3478 301.377 81.9809 302.967 83.1364 306.29C84.2919 309.613 84.868 311.213 84.1646 313.733C83.4613 316.254 83.3775 317.737 84.0575 320.475C84.7374 323.213 84.5699 324.309 84.6804 326.856C84.791 329.402 85.7087 335.4 86.8742 335.697C88.0398 335.995 90.3442 334.007 91.2653 331.869C92.1863 329.732 93.5662 325.367 94.6146 324.027C95.6629 322.687 95.1371 319.205 95.6931 318.088C96.2491 316.971 98.1247 315.036 97.9941 312.011C97.8634 308.985 97.1869 305.008 97.9941 302.377C98.8013 299.745 102.131 295.512 102.556 293.481C102.981 291.45 103.845 288.765 103.062 288.866C102.278 288.967 101.655 289.595 100.164 289.356C98.674 289.116 97.8031 284.214 97.3409 283.289C96.8787 282.364 95.1907 277.531 95.2041 276.154C95.2175 274.777 93.9816 270.693 94.6079 270.64C95.2342 270.587 96.8117 275.659 97.3208 277.196C98.0582 279.375 98.7038 281.629 99.2534 283.943C99.6486 285.889 100.258 286.633 100.831 286.447C101.404 286.261 106.434 281.933 107.128 280.476C107.821 279.02 108.176 276.489 107.433 275.872C106.689 275.255 106.307 273.463 106.11 274.011C105.912 274.559 105.255 275.744 104.716 275.707C104.177 275.67 102.64 272.054 102.372 270.832C102.104 269.609 102.804 268.604 103.102 268.657C103.4 268.71 104.308 272.512 105.497 272.48C106.686 272.448 106.803 273.277 107.65 274.022C108.498 274.766 112.028 273.245 112.416 274.947C112.805 276.648 113.903 279.482 114.644 279.041C115.384 278.599 115.233 280.705 115.779 283.294C116.325 285.884 117.33 291.87 117.789 292.083C118.248 292.296 119.601 288.893 119.631 286.979C119.661 285.065 119.631 283.863 120.709 282.47C121.788 281.077 123.087 278.307 123.995 277.642C124.903 276.978 126.196 280.216 126.242 281.896C126.289 283.576 127.431 283.092 127.706 284.826C127.981 286.559 128.711 292.407 129.197 294.178C129.682 295.948 131.444 296.464 130.905 295.007C130.365 293.551 129.006 288.207 129.565 287.059C130.124 285.91 131.853 290.977 132.794 290.249C133.735 289.52 133.735 284.857 133.042 282.991C132.348 281.125 132.787 278.126 133.681 277.637C134.576 277.148 137.855 276.547 138.668 274.755C139.482 272.964 141.12 269.497 140.658 267.493C140.196 265.488 138.226 261.187 139.181 259.661C140.135 258.135 142.349 258.922 142.714 260.979C143.08 263.037 144.178 264.515 144.62 263.638C145.062 262.761 144.456 257.97 145.578 256.407C146.7 254.844 149.932 250.558 150.348 248.362C150.763 246.167 150.706 241.982 149.845 241.089C148.984 240.196 148.475 239.175 148.857 238.329C149.239 237.484 151.051 232.768 153.596 233.262C156.142 233.757 156.742 234.565 157.854 233.938C158.965 233.31 159.073 230.285 160.59 230.381C162.107 230.476 163.859 227.94 164.013 228.94C164.167 229.939 162.697 231.742 161.812 233.289C160.928 234.836 159.337 237.675 159.398 240.653C159.458 243.63 159.967 243.933 160.493 243.662C161.019 243.391 162.77 237.41 162.995 235.735C163.219 234.06 164.375 231.752 165.544 232.013C166.713 232.273 170.748 229.982 171.375 228.727C172.001 227.472 170.628 225.144 171.482 225.005C172.336 224.867 174.831 227.286 175.873 226.494C176.915 225.702 174.925 222.522 173.977 222.124C173.029 221.725 169.208 219.146 168.474 219.641C167.741 220.135 165.925 219.492 165.142 218.694C164.358 217.897 161.943 216.86 160.372 217.158C158.801 217.455 158.152 215.371 157.023 214.925C155.894 214.478 152.391 212.984 151.048 213.93C149.705 214.877 147.564 215.27 146.754 215.073C145.943 214.877 144.828 212.947 144.125 211.841C143.421 210.735 140.357 210.905 139.435 210.953C138.514 211.001 136.28 210.155 135.061 210.772C133.842 211.389 131.32 211.426 132.187 210.772C133.055 210.118 136.26 208.044 136.307 206.481C136.354 204.918 135.195 204.046 133.815 204.099C132.435 204.153 130.637 202.69 129.88 203.823C129.123 204.955 126.038 205.418 124.574 206.928C123.111 208.438 123.6 209.746 122.434 210.198C121.269 210.65 119.453 211.745 119.614 213.734C119.775 215.722 117.993 214.611 117.069 215.818C116.144 217.025 116.958 219.837 116.01 221.135C115.062 222.432 113.702 222.272 114.138 221.581C114.573 220.89 115.722 219.178 115.595 216.982C115.468 214.786 116.067 211.862 114.875 211.532C113.682 211.203 112.815 213.436 112.865 214.877C112.915 216.318 113.612 219.05 113.294 219.497C112.976 219.944 112.105 217.987 110.182 217.301C108.26 216.615 108.447 218.949 107.58 219.199C106.712 219.449 104.599 219.151 103.109 220.64C101.618 222.129 101.166 221.98 100.265 222.453C99.364 222.926 98.5903 224.846 97.6725 225.287C96.7548 225.728 96.0648 226.542 95.6294 225.058C95.194 223.575 93.66 221.337 94.3701 221.677C95.0801 222.017 98.3893 222.687 98.5969 221.634C98.8046 220.582 95.3916 217.796 94.8457 217.317C94.2998 216.839 92.5011 214.313 90.7327 214.792C88.9642 215.27 85.8594 217.588 84.9651 219.816C84.0709 222.044 82.3426 226.537 81.388 227.494C80.4335 228.451 79.5459 230.556 79.7502 232.417C79.9545 234.278 80.8622 235.57 81.3512 235.155C81.8402 234.741 82.6909 232.656 82.8852 233.252C83.0795 233.847 83.411 236.235 83.7359 237.378C84.0608 238.521 84.4058 238.574 85.0757 237.856C85.7455 237.138 86.0503 234.044 86.0101 232.497C85.9699 230.95 85.9599 227.712 87.0685 226.547C88.1771 225.383 88.7633 222.703 89.5135 223.283C90.2638 223.862 89.3327 225.654 88.904 227.292C88.4753 228.929 88.1035 231.832 88.7097 231.869C89.3159 231.907 91.8614 230.939 91.9452 231.869C92.0289 232.8 89.2188 232.816 89.3293 234.645C89.4399 236.474 88.5355 237.016 87.9628 237.989C87.39 238.962 84.8178 241.711 83.4613 241.296C82.1048 240.882 80.1689 241.094 79.3047 242.812C78.4406 244.529 77.8545 246.533 76.7157 247.655C75.5769 248.777 76.1698 253.498 76.009 254.264Z" fill="#038C8C"/>
        <path d="M74.4651 246.044C75.5201 246.65 77.5565 243.854 77.6101 242.615C77.6637 241.376 76.3977 240.025 76.1498 238.739C75.902 237.452 76.0292 235.74 75.6307 234.868C75.2321 233.996 73.3732 234.921 73.4067 235.931C73.4402 236.942 73.7684 237.851 74.2775 239.212C74.7866 240.573 73.9526 245.746 74.4651 246.044Z" fill="#038C8C"/>
        <path d="M71.7846 244.407C72.6855 245.316 73.6066 243.29 73.6167 241.748C73.6267 240.206 73.6803 238.606 72.9468 238.654C72.2133 238.702 70.753 243.359 71.7846 244.407Z" fill="#038C8C"/>
    </g>
    <path opacity="0.2" d="M96.4563 223.426C98.0049 229.006 98.8416 235.013 98.9185 241.104C98.9954 247.195 98.3111 253.25 96.9045 258.924C95.498 264.597 93.3968 269.778 90.7209 274.171C88.045 278.563 84.8469 282.081 81.3091 284.524C74.1641 289.458 66.0693 289.712 58.8055 285.231C51.5417 280.751 45.7038 271.901 42.5761 260.631C41.6859 270.278 42.448 280.126 44.7832 289.153C47.1185 298.18 50.9419 306.057 55.857 311.968C60.7722 317.878 66.6002 321.608 72.7368 322.769C78.8734 323.93 85.0952 322.48 90.757 318.571C96.4189 314.661 101.315 308.433 104.937 300.534C108.559 292.634 110.776 283.35 111.357 273.644C111.939 263.938 110.864 254.163 108.244 245.333C105.623 236.503 101.554 228.939 96.4563 223.426Z" fill="#0F3759"/>
    <path opacity="0.3" d="M85.3298 224.19C88.4968 232.961 80.3466 239.193 70.6769 247.942C61.0071 256.691 53.4769 264.662 50.3064 255.875C47.136 247.089 52.4088 232.897 62.0786 224.148C71.7483 215.399 82.1593 215.415 85.3298 224.19Z" fill="white"/>
    <path d="M112.924 218.644C112.547 217.615 112.158 216.609 111.757 215.626C111.185 214.211 110.591 212.851 109.975 211.546L108.438 208.422C107.176 205.988 105.829 203.668 104.403 201.473L102.573 198.772C100.672 196.08 98.6485 193.608 96.5201 191.378L94.4352 189.325C93.7268 188.667 93.0037 188.036 92.2662 187.431C91.2641 186.596 90.2294 185.823 89.1623 185.113C88.7352 184.826 88.3014 184.55 87.8642 184.28L85.7558 183.086C84.6528 182.519 83.5161 182.025 82.3324 181.601C81.0573 181.134 79.7608 180.827 78.4551 180.683C78.6932 182.763 79.0304 184.811 79.4639 186.81C79.854 188.661 80.2912 190.428 80.762 192.115L81.7305 195.361C81.9457 196.035 82.1643 196.704 82.403 197.356C82.9612 198.99 83.552 200.565 84.1752 202.083C84.6326 203.197 85.1 204.284 85.5843 205.345L87.0841 208.47C88.6869 211.631 90.4323 214.606 92.3065 217.371L94.1729 220.023C95.6813 222.058 97.2598 223.96 98.901 225.721L100.996 227.843C101.877 228.681 102.774 229.48 103.686 230.24C104.335 230.771 104.998 231.301 105.674 231.779L107.204 232.84C108.139 233.45 109.097 234.017 110.086 234.537C111.219 235.131 112.393 235.657 113.61 236.092C114.884 236.558 116.179 236.871 117.484 237.025C117.244 234.951 116.907 232.909 116.475 230.914C116.072 229.004 115.618 227.201 115.13 225.424C114.7 223.896 114.243 222.418 113.761 220.989L112.924 218.644Z" fill="#0F3759"/>
    <mask id="mask1_6616_62545" style="mask-type:luminance" maskUnits="userSpaceOnUse" x="78" y="180" width="40" height="57">
        <path d="M112.946 218.194C112.571 217.163 112.183 216.154 111.784 215.169C111.214 213.751 110.623 212.388 110.009 211.08L108.478 207.949C107.221 205.51 105.879 203.184 104.459 200.984L102.637 198.277C100.743 195.579 98.7278 193.102 96.6079 190.866L94.5313 188.808C93.8257 188.149 93.1056 187.516 92.371 186.91C91.3729 186.073 90.3424 185.299 89.2795 184.586C88.8542 184.299 88.4221 184.023 87.9867 183.752L85.8867 182.555C84.7881 181.986 83.656 181.492 82.477 181.067C81.207 180.599 79.9157 180.291 78.6152 180.147C78.8524 182.231 79.1882 184.284 79.62 186.288C80.0086 188.143 80.444 189.914 80.9129 191.605L81.8775 194.859C82.0918 195.534 82.3096 196.204 82.5474 196.858C83.1033 198.495 83.6917 200.074 84.3125 201.595C84.768 202.712 85.2335 203.802 85.7158 204.865L87.2096 207.997C88.8061 211.165 90.5444 214.147 92.4112 216.918L94.2701 219.577C95.7725 221.616 97.3446 223.522 98.9792 225.287L101.066 227.414C101.943 228.254 102.837 229.055 103.745 229.817C104.392 230.349 105.052 230.88 105.725 231.359L107.249 232.422C108.18 233.034 109.134 233.603 110.119 234.124C111.248 234.719 112.417 235.246 113.629 235.682C114.898 236.149 116.188 236.462 117.488 236.617C117.249 234.539 116.913 232.492 116.483 230.492C116.081 228.578 115.629 226.77 115.143 224.989C114.714 223.458 114.26 221.976 113.78 220.544L112.946 218.194Z" fill="white"/>
    </mask>
    <g mask="url(#mask1_6616_62545)">
        <path d="M89.432 174.128L89.1707 174.032L89.9779 196.4L84.3276 188.191L83.507 165.525L83.2458 165.429L84.053 187.792L78.3021 179.439L78.1581 179.7L83.9123 188.063L70.1465 189.265L70.2369 189.674L84.1836 188.457L89.8339 196.666L76.0681 197.868L76.1586 198.282L90.1086 197.06L95.6886 205.168L81.9228 206.375L82.0098 206.784L95.9599 205.567L101.61 213.776L87.8478 214.977L87.9348 215.387L101.881 214.169L107.247 221.964L93.4813 223.165L93.5684 223.575L107.518 222.357L113.169 230.567L99.403 231.768L99.4934 232.178L113.44 230.96L117.798 237.287L117.942 237.027L113.584 230.694L112.764 208.028L112.502 207.933L113.313 230.301L107.659 222.091L106.842 199.426L106.581 199.325L107.388 221.693L102.026 213.903L101.208 191.238L100.947 191.142L101.754 213.51L96.1039 205.301L95.2833 182.635L95.0221 182.534L95.8292 204.902L90.2492 196.794L89.432 174.128Z" fill="#A0D9D9"/>
    </g>
    <path opacity="0.2" d="M96.5525 190.684L94.4692 188.599C93.7614 187.931 93.039 187.29 92.302 186.676C91.3007 185.829 90.2669 185.044 89.2007 184.323C88.7739 184.032 88.3405 183.752 87.9037 183.477L86.4219 182.626C90.0027 186.207 93.3653 190.32 96.4651 194.912C106.367 209.454 112.325 225.951 111.454 235.178C112.16 235.505 112.88 235.804 113.615 236.077C114.888 236.551 116.182 236.868 117.486 237.025C117.246 234.92 116.909 232.846 116.478 230.82C116.074 228.882 115.621 227.05 115.134 225.246C114.704 223.695 114.248 222.194 113.766 220.743L112.95 218.395C112.573 217.35 112.185 216.328 111.784 215.33C111.212 213.894 110.619 212.513 110.003 211.188L108.467 208.016C107.206 205.545 105.86 203.19 104.435 200.96L102.607 198.219C100.706 195.475 98.682 192.957 96.5525 190.684Z" fill="#0F3759"/>
    <path opacity="0.2" d="M86.1091 192.798C87.9998 190.693 90.6046 196.17 94.0493 202.677C97.494 209.184 100.469 214.242 98.5753 216.347C96.6812 218.452 92.3592 214.865 88.9145 208.368C85.4698 201.872 84.215 194.881 86.1091 192.798Z" fill="white"/>
    <path d="M34.3554 9.71411L24.9335 42.3473C24.787 42.8582 24.7047 43.4105 24.6914 43.9725C24.6781 44.5345 24.7339 45.0953 24.8558 45.6226C24.9777 46.1499 25.1632 46.6334 25.4017 47.0455C25.6402 47.4576 25.927 47.7901 26.2457 48.024L36.024 55.299C36.6653 55.7753 37.3982 55.8233 38.0615 55.4323C38.7248 55.0414 39.2642 54.2435 39.561 53.2143L48.9829 20.6079L34.3554 9.71411Z" fill="#038C8C"/>
    <path d="M41.6053 21.8035L32.7109 15.2585L26.4863 36.575L35.3807 43.12L41.6053 21.8035Z" fill="#A0D9D9"/>
    <path d="M37.6943 25.1379L31.2188 20.3728L30.8596 21.6029L37.3351 26.3679L37.6943 25.1379Z" fill="#038C8C"/>
    <path d="M36.2861 29.9616L29.8105 25.1965L29.4514 26.4266L35.9269 31.1917L36.2861 29.9616Z" fill="#038C8C"/>
    <path opacity="0.1" d="M47.9308 19.4285C47.5889 20.9051 47.206 22.3854 46.782 23.8692C42.2038 39.8927 34.6223 49.9682 29.8443 46.3756C27.9731 44.9656 26.811 41.6701 26.3649 37.1915L24.9398 42.178C24.7907 42.6957 24.7064 43.2563 24.6918 43.8273C24.6771 44.3982 24.7324 44.9682 24.8544 45.5043C24.9764 46.0404 25.1627 46.5319 25.4025 46.9504C25.6424 47.3689 25.931 47.706 26.2517 47.9423L36.0274 55.295C36.6685 55.7764 37.4012 55.8248 38.0643 55.4297C38.7275 55.0346 39.2667 54.2282 39.5634 53.188L48.9829 20.2334L47.9308 19.4285Z" fill="#0F3759"/>
    <path opacity="0.2" d="M38.973 14.0589C40.9125 15.7406 39.1929 20.0325 37.3067 25.5339C35.4205 31.0353 34.0775 35.6614 32.1514 33.9691C30.2252 32.2767 30.1519 26.4623 32.0514 20.9609C33.9509 15.4595 37.0368 12.3772 38.973 14.0589Z" fill="white"/>
    <path d="M52.2354 13.3932L35.6895 1.21777L33.4061 9.03718L49.952 21.2126L52.2354 13.3932Z" fill="#FF7762"/>
    <path d="M37.5841 2.58637L35.3008 10.4058L35.945 10.8798L38.2283 3.06042L37.5841 2.58637Z" fill="#EF5A4B"/>
    <path d="M40.5911 4.80156L38.3086 12.6216L38.9529 13.0955L41.2353 5.27543L40.5911 4.80156Z" fill="#EF5A4B"/>
    <path d="M43.6544 7.05265L41.3711 14.8721L42.0153 15.3461L44.2987 7.5267L43.6544 7.05265Z" fill="#EF5A4B"/>
    <path d="M46.6955 9.28971L44.4121 17.1091L45.0563 17.5832L47.3397 9.76376L46.6955 9.28971Z" fill="#EF5A4B"/>
    <path d="M49.7365 11.5292L47.4531 19.3486L48.0973 19.8227L50.3807 12.0033L49.7365 11.5292Z" fill="#EF5A4B"/>
    <path opacity="0.1" d="M50.8506 18.1407L34.3047 5.96533L33.4088 9.03328L49.9548 21.2087L50.8506 18.1407Z" fill="#0F3759"/>
    <path d="M93.8663 126.57C93.2986 127.984 92.3995 128.987 91.3646 129.361C90.3297 129.736 89.2429 129.451 88.3408 128.568L57.231 97.842C56.3337 96.9477 55.697 95.531 55.4595 93.9005C55.2219 92.27 55.4029 90.5577 55.9629 89.1364L85.3549 15.2519C85.9225 13.8411 86.8204 12.8399 87.8537 12.4658C88.8869 12.0917 89.9722 12.3749 90.8737 13.2539L121.983 43.9801C122.881 44.8744 123.518 46.2911 123.755 47.9216C123.993 49.5521 123.812 51.2644 123.252 52.6857L93.8663 126.57Z" fill="#038C8C"/>
    <path d="M121.861 46.0585L90.1602 14.6807L59.4571 92.8473L91.1578 124.225L121.861 46.0585Z" fill="white"/>
    <path d="M118.153 42.0552C118.365 40.6568 118.307 39.1881 117.987 37.8437C117.666 36.4993 117.098 35.3429 116.358 34.5279L109.908 28.0544C110.659 27.7465 111.338 27.0923 111.859 26.1728C112.381 25.2534 112.722 24.109 112.842 22.8815C112.961 21.6539 112.853 20.3972 112.532 19.2669C112.21 18.1366 111.688 17.1824 111.031 16.5225C110.374 15.8626 109.611 15.526 108.835 15.5544C108.06 15.5828 107.307 15.9749 106.67 16.6822C106.032 17.3894 105.538 18.3808 105.249 19.5335C104.96 20.6862 104.888 21.9495 105.042 23.167L98.3508 16.4462C97.5769 15.7367 96.6839 15.433 95.7969 15.5777C94.9098 15.7223 94.0733 16.308 93.4045 17.2527L91.5957 20.0216L117.435 45.9802L118.153 42.0552ZM109.801 19.6722C110.076 19.9492 110.294 20.3508 110.427 20.8262C110.56 21.3015 110.602 21.8294 110.547 22.3429C110.493 22.8565 110.345 23.3328 110.122 23.7116C109.899 24.0903 109.61 24.3546 109.294 24.4711C108.977 24.5875 108.645 24.5508 108.341 24.3656C108.038 24.1804 107.775 23.8551 107.586 23.4307C107.398 23.0063 107.292 22.5019 107.282 21.9813C107.273 21.4606 107.36 20.9471 107.532 20.5055C107.647 20.2119 107.797 19.9575 107.973 19.7566C108.149 19.5558 108.348 19.4126 108.559 19.3352C108.769 19.2578 108.987 19.2477 109.201 19.3055C109.414 19.3634 109.618 19.4879 109.801 19.6722Z" fill="#0F3759"/>
    <path opacity="0.2" d="M91.5957 19.915L117.431 45.9803L117.88 43.4909L92.7529 18.1331L91.5957 19.915Z" fill="#0F3759"/>
    <path opacity="0.2" d="M121.984 43.5716L119.83 41.4473C117.25 53.8904 113.121 66.939 108.468 78.6758C96.1436 109.802 79.2836 111.953 65.1006 97.8849C62.0288 94.9168 59.1322 91.5165 56.4459 87.7254L55.9628 88.9469C55.4029 90.3749 55.222 92.0954 55.4594 93.7336C55.6969 95.3718 56.3336 96.7952 57.2308 97.6938L88.3376 128.565C89.24 129.451 90.327 129.737 91.3618 129.36C92.3966 128.983 93.2954 127.974 93.8625 126.553L123.252 52.3184C123.812 50.8904 123.993 49.17 123.755 47.5317C123.518 45.8935 122.881 44.4702 121.984 43.5716Z" fill="#0F3759"/>
    <path d="M103.71 52.8545C105.958 48.872 105.746 42.7508 103.237 39.1825C100.729 35.6143 96.8726 35.9501 94.6247 39.9326C92.3769 43.9151 92.5884 50.0362 95.0972 53.6045C97.606 57.1728 101.462 56.837 103.71 52.8545Z" fill="#FF7762"/>
    <path d="M102.749 47.7129L100.719 45.7559L101.99 42.6387L100.078 40.7993L98.8075 43.9166L96.7777 41.9649L95.5801 44.9004L97.6064 46.8521L96.3356 49.9693L98.247 51.8087L99.5212 48.6968L101.547 50.6484L102.749 47.7129Z" fill="white"/>
    <path d="M80.4345 48.1608L79.9648 49.3501L105.881 75.1371L106.35 73.9478L80.4345 48.1608Z" fill="#A0D9D9"/>
    <path d="M78.5477 52.9098L78.0781 54.0991L103.994 79.8862L104.464 78.6968L78.5477 52.9098Z" fill="#A0D9D9"/>
    <path d="M76.6688 57.6661L76.1992 58.8555L102.115 84.6425L102.585 83.4532L76.6688 57.6661Z" fill="#A0D9D9"/>
    <path d="M74.9393 62.8808L74.496 63.9823L74.4727 64.0502L100.267 89.3701L100.291 89.3075L100.734 88.2007L100.757 88.1381L74.966 62.8181L74.9393 62.8808Z" fill="#A0D9D9"/>
    <path d="M72.8895 67.243L72.4199 68.4324L98.3358 94.2194L98.8054 93.0301L72.8895 67.243Z" fill="#A0D9D9"/>
    <path d="M71.0087 71.9997L70.5391 73.189L96.455 98.976L96.9246 97.7867L71.0087 71.9997Z" fill="#A0D9D9"/>
    <path d="M69.1317 76.7496L68.6621 77.939L94.578 103.726L95.0476 102.537L69.1317 76.7496Z" fill="#A0D9D9"/>
    <path d="M67.2509 81.5113L66.7812 82.7007L92.6972 108.488L93.1668 107.298L67.2509 81.5113Z" fill="#A0D9D9"/>
    <path d="M65.372 86.2653L64.9023 87.4546L90.8182 113.242L91.2879 112.052L65.372 86.2653Z" fill="#A0D9D9"/>
    <path d="M118.392 87.3624L75.0963 133.251C73.9979 134.415 73.7019 136.772 74.4353 138.516L92.8643 182.332C93.5977 184.076 95.0827 184.546 96.1811 183.381L139.477 137.493C140.575 136.329 140.871 133.971 140.137 132.228L121.709 88.4116C120.975 86.6679 119.49 86.1982 118.392 87.3624Z" fill="#FF7762"/>
    <path d="M118.225 85.1226L75.0161 131.401C73.9199 132.575 73.6308 134.938 74.3705 136.678L84.8984 161.448C85.638 163.188 87.1262 163.647 88.2225 162.473L131.431 116.195C132.528 115.021 132.817 112.658 132.077 110.918L121.549 86.1476C120.809 84.4074 119.321 83.9485 118.225 85.1226Z" fill="white"/>
    <path d="M106.334 100.347L104.584 102.196L103.418 99.4415C103.187 98.8962 102.891 98.4282 102.546 98.0642C102.201 97.7001 101.813 97.4473 101.406 97.3201C100.999 97.1929 100.58 97.1939 100.173 97.3229C99.7666 97.452 99.3798 97.7066 99.0353 98.0722L88.7396 108.931C88.3941 109.294 88.0974 109.762 87.8663 110.307C87.6353 110.852 87.4744 111.464 87.393 112.107C87.3116 112.75 87.3113 113.412 87.3919 114.056C87.4725 114.7 87.6327 115.312 87.8631 115.857L89.0261 118.612L87.2663 120.455L86.1066 117.695C85.335 115.859 85.0554 113.615 85.329 111.454C85.6026 109.293 86.4072 107.391 87.5664 106.166L97.8621 95.3016C99.0228 94.0789 100.443 93.6334 101.811 94.0629C103.179 94.4924 104.384 95.7617 105.161 97.5927L106.334 100.347Z" fill="#0F3759"/>
    <path d="M99.6298 148.748L92.457 156.351L94.5865 161.414L101.759 153.811L99.6298 148.748Z" fill="#0F3759"/>
    <path d="M99.9521 151.915L94.1777 158.036L94.8993 159.751L100.674 153.631L99.9521 151.915Z" fill="#23608E"/>
    <path d="M125.177 121.676L118.004 129.278L120.133 134.341L127.306 126.739L125.177 121.676Z" fill="#0F3759"/>
    <path d="M125.499 124.844L119.725 130.965L120.446 132.68L126.221 126.56L125.499 124.844Z" fill="#23608E"/>
    <path d="M110.118 129.849C111.36 124.004 109.382 117.666 105.699 115.694C102.017 113.722 98.0245 116.863 96.7824 122.709C95.5402 128.554 97.5185 134.892 101.201 136.864C104.884 138.836 108.876 135.695 110.118 129.849Z" fill="#FF7762"/>
    <path d="M106.125 121.538L103.895 123.715L102.405 120.455L100.303 122.508L101.793 125.772L99.5625 127.948L100.965 131.024L103.195 128.848L104.686 132.112L106.787 130.055L105.297 126.796L107.528 124.615L106.125 121.538Z" fill="white"/>
    <path opacity="0.2" d="M140.178 132.21L121.781 88.4723C121.43 87.6358 120.885 87.0542 120.264 86.8552C119.643 86.6562 118.998 86.856 118.47 87.4109L115.289 90.7757C121.775 99.1666 125.711 110.094 125.711 122.052C125.711 146.688 109.031 166.962 87.6172 169.494L92.9689 182.231C93.3204 183.067 93.866 183.647 94.4866 183.846C95.1071 184.045 95.752 183.846 96.2803 183.293L139.519 137.491C139.781 137.213 140.006 136.856 140.181 136.44C140.356 136.025 140.478 135.558 140.539 135.067C140.601 134.577 140.6 134.072 140.538 133.581C140.476 133.091 140.354 132.625 140.178 132.21Z" fill="#0F3759"/>
    <path d="M20.4333 31.4203C18.2427 21.5108 17.7289 15.6032 18.0129 11.9772C18.0771 11.5854 18.4151 1.03014 13.6183 0.0614252C8.92289 -0.886117 7.43211 9.43627 7.43211 9.84387C7.03998 14.4545 5.65062 18.9752 1.93214 27.6937C0.882302 30.0223 0.234926 32.7365 0.0529021 35.5726C-0.129122 38.4088 0.160399 41.2704 0.893338 43.8796C1.62628 46.4888 2.77771 48.7567 4.23578 50.4631C5.69385 52.1695 7.40898 53.2564 9.21455 53.6181C11.0201 53.9797 12.8547 53.604 14.5402 52.5273C16.2256 51.4506 17.7045 49.7096 18.8333 47.4733C19.9621 45.2371 20.7023 42.5817 20.9821 39.7652C21.2618 36.9486 21.0716 34.0666 20.4299 31.3991L20.4333 31.4203Z" fill="#038C8C"/>
    <path d="M18.9655 30.7572C17.1457 22.2856 16.7089 17.2304 16.9538 14.1289C17.01 13.7926 17.2846 4.76581 13.2976 3.9384C9.39655 3.127 8.15247 11.9563 8.15247 12.3033C7.83813 16.2482 6.68999 20.113 3.59962 27.5704C2.7275 29.5605 2.18915 31.8806 2.03684 34.3055C1.88452 36.7303 2.12343 39.1775 2.73034 41.4095C3.33726 43.6414 4.29157 45.5823 5.50063 47.0436C6.70968 48.5049 8.1324 49.437 9.63064 49.7494C11.1289 50.0619 12.6517 49.744 14.0514 48.8267C15.451 47.9094 16.6798 46.4238 17.6185 44.5141C18.5573 42.6045 19.174 40.3357 19.4088 37.9281C19.6437 35.5204 19.4887 33.0557 18.9589 30.7733L18.9655 30.7572Z" fill="#A0D9D9"/>
    <path d="M11 45.8025C14.5762 45.5665 17.3549 40.7731 17.2062 35.096C17.0576 29.4189 14.038 25.008 10.4617 25.2439C6.88546 25.4799 4.10682 30.2733 4.25546 35.9504C4.4041 41.6275 7.42373 46.0384 11 45.8025Z" fill="#FF7762"/>
    <path opacity="0.1" d="M15.6896 29.1423C15.9677 31.4057 15.7657 33.7535 15.1159 35.8109C14.4662 37.8684 13.406 39.5171 12.1047 40.4939C10.8033 41.4707 9.33576 41.7193 7.93616 41.2C6.53656 40.6808 5.28557 39.4236 4.38281 37.6291C4.56996 39.1694 4.97316 40.6209 5.5618 41.8735C6.15044 43.1261 6.90905 44.1468 7.78002 44.8581C8.65099 45.5694 9.61143 45.9527 10.5884 45.9788C11.5654 46.0049 12.5332 45.6731 13.4185 45.0087C14.3037 44.3442 15.083 43.3646 15.6972 42.1441C16.3115 40.9237 16.7445 39.4945 16.9634 37.9651C17.1823 36.4357 17.1814 34.8463 16.9607 33.3176C16.74 31.7888 16.3053 30.3609 15.6896 29.1423Z" fill="#0F3759"/>
    <path opacity="0.2" d="M13.2921 29.846C14.1846 32.8996 12.5381 33.9452 10.6178 35.5992C8.69743 37.2533 7.22493 38.9184 6.33242 35.8371C5.43991 32.7558 6.27443 28.9664 8.198 27.3124C10.1216 25.6583 12.3964 26.7924 13.2921 29.846Z" fill="white"/>
    <path opacity="0.1" d="M20.4628 31.3534C18.2882 21.3766 17.7781 15.4289 18.06 11.7782C18.1204 11.3998 18.4224 1.78005 14.3483 0C14.5004 1.35188 14.5466 2.72847 14.4859 4.09838C14.1905 7.74909 14.7141 13.6915 16.8887 23.6736C17.6878 27.0436 17.777 30.7343 17.1431 34.1917C16.5092 37.6492 15.1863 40.6869 13.3729 42.8489C11.5596 45.011 9.35359 46.1807 7.08604 46.1827C4.8185 46.1847 2.61171 45.0187 0.796875 42.8598C1.7568 47.0013 3.71338 50.3675 6.23619 52.2181C7.48536 53.1344 8.83595 53.6509 10.2108 53.7383C11.5857 53.8257 12.958 53.4822 14.2493 52.7274C15.5405 51.9726 16.7256 50.8212 17.7367 49.3391C18.7478 47.857 19.5651 46.0731 20.1421 44.0894C20.7191 42.1056 21.0444 39.9608 21.0994 37.7774C21.1545 35.594 20.9381 33.4147 20.4628 31.3641V31.3534Z" fill="#0F3759"/>
    <path opacity="0.2" d="M13.4443 2.50413C14.552 3.76003 13.5824 5.62004 12.5306 8.02586C11.4788 10.4317 10.7162 12.5407 9.61182 11.2795C8.50742 10.0183 8.46797 7.04022 9.52964 4.6079C10.5913 2.17558 12.3367 1.24293 13.4443 2.50413Z" fill="white"/>
    <path d="M68.7561 5.92833C68.1969 6.36883 67.6512 6.82525 67.1225 7.3082C66.37 7.99459 65.6459 8.71814 64.9499 9.47884L63.3129 11.416C62.0521 12.9953 60.8693 14.7215 59.7745 16.5798L58.4426 18.9681C57.1216 21.485 55.9604 24.1974 54.9753 27.0668L54.0772 29.9115C53.7993 30.8774 53.5349 31.8698 53.2909 32.8888C52.949 34.3005 52.6537 35.7389 52.4063 37.1982C52.3012 37.7926 52.2063 38.403 52.1182 39.0133L51.7487 41.9853C51.5792 43.5966 51.4661 45.2213 51.4098 46.852C51.3424 48.7209 51.373 50.5953 51.5013 52.4564C52.695 52.35 53.8808 52.0872 55.0465 51.6709C56.0649 51.3129 57.0706 50.8718 58.0596 50.3494L59.866 49.288C60.2389 49.0492 60.6049 48.805 60.9642 48.545C61.8442 47.9143 62.7028 47.2128 63.5366 46.4433C64.1354 45.8949 64.7172 45.3253 65.2821 44.7344L66.9225 42.8769C68.5668 40.881 70.0822 38.6378 71.4472 36.1792L72.7317 33.7061C73.7192 31.7062 74.6097 29.5934 75.3957 27.3853L76.3277 24.5406C76.6904 23.3359 77.0259 22.0993 77.3445 20.8256C77.5614 19.934 77.7614 19.0105 77.9444 18.0765L78.3274 15.9536C78.5409 14.648 78.7273 13.3 78.8764 11.9042C79.0479 10.2434 79.161 8.56914 79.2154 6.88893C79.2847 5.02396 79.2575 3.15326 79.134 1.29517C77.9427 1.41251 76.7594 1.68051 75.5956 2.09655C74.5434 2.45978 73.5047 2.91335 72.4843 3.45519C71.6302 3.91691 70.8134 4.4264 70.0237 4.97304L68.7561 5.92833Z" fill="#038C8C"/>
    <mask id="mask2_6616_62545" style="mask-type:luminance" maskUnits="userSpaceOnUse" x="51" y="1" width="29" height="52">
        <path d="M68.7193 5.87064C68.1667 6.31194 67.6274 6.7692 67.1049 7.25303C66.3614 7.94068 65.6457 8.66555 64.958 9.42764L63.3403 11.3683C62.0943 12.9505 60.9254 14.6798 59.8436 16.5416L58.5273 18.9342C57.2219 21.4557 56.0744 24.1731 55.1009 27.0478L54.2133 29.8976C53.9387 30.8653 53.6774 31.8596 53.4363 32.8804C53.0984 34.2947 52.8066 35.7357 52.5621 37.1977C52.4583 37.7932 52.3645 38.4046 52.2774 39.0161L51.9123 41.9935C51.7448 43.6078 51.633 45.2355 51.5774 46.8691C51.5107 48.7414 51.541 50.6193 51.6678 52.4837C52.8474 52.3772 54.0193 52.1139 55.1712 51.6968C56.1776 51.3382 57.1715 50.8963 58.1488 50.3729L59.934 49.3096C60.3024 49.0703 60.6641 48.8257 61.0192 48.5652C61.8888 47.9334 62.7373 47.2306 63.5613 46.4597C64.153 45.9103 64.728 45.3396 65.2862 44.7477L66.9073 42.8868C68.5322 40.8873 70.0298 38.6399 71.3787 36.1769L72.6481 33.6992C73.624 31.6957 74.504 29.579 75.2807 27.3668L76.2017 24.5169C76.5601 23.31 76.8917 22.0712 77.2065 20.7951C77.4209 19.9019 77.6185 18.9768 77.7994 18.041L78.1778 15.9142C78.3889 14.6063 78.5731 13.2558 78.7204 11.8575C78.8899 10.1936 79.0017 8.51628 79.0554 6.833C79.1239 4.96462 79.097 3.09049 78.975 1.229C77.7977 1.34656 76.6283 1.61505 75.4783 2.03185C74.4384 2.39575 73.412 2.85014 72.4036 3.39297C71.5595 3.85554 70.7524 4.36596 69.972 4.9136L68.7193 5.87064Z" fill="white"/>
    </mask>
    <g mask="url(#mask2_6616_62545)">
        <path d="M46.3002 35.778L46.2868 36.1555L59.5167 37.4475L55.5478 44.8965L42.1403 43.5885L42.127 43.966L55.3569 45.2527L51.3175 52.8399L51.4984 53.0845L55.5411 45.4973L58.5387 65.9992L58.7698 65.9141L55.732 45.1357L59.6976 37.6868L62.6986 58.1887L62.9297 58.1036L59.8919 37.3252L63.8106 29.9667L66.8116 50.4739L67.0427 50.3888L64.0015 29.6104L67.9705 22.1562L70.9715 42.6634L71.2026 42.5783L68.1614 21.7999L71.9294 14.7285L74.9271 35.2304L75.1582 35.1453L72.1203 14.3723L76.0893 6.918L79.0869 27.4252L79.318 27.3401L76.2802 6.56176L79.3381 0.819531L79.1573 0.574951L76.096 6.3225L62.6886 5.01455L62.6752 5.39204L75.9051 6.67873L71.9361 14.1277L58.5287 12.8251L58.5153 13.1972L71.7452 14.4892L67.9772 21.5607L54.5697 20.2527L54.5564 20.6302L67.7863 21.9169L63.8173 29.3712L50.4099 28.0632L50.3965 28.4407L63.6264 29.7274L59.7076 37.086L46.3002 35.778Z" fill="#A0D9D9"/>
    </g>
    <path opacity="0.2" d="M55.2542 26.8691L54.3664 29.6931C54.0916 30.652 53.8303 31.6372 53.5891 32.6488C53.2511 34.0503 52.9592 35.4782 52.7146 36.9269C52.6108 37.517 52.517 38.1229 52.4298 38.7288L52.1719 40.7994C53.6753 36.0002 55.5526 31.5138 57.7603 27.4434C64.6923 14.551 73.4535 7.6386 79.042 9.90938C79.119 8.91361 79.1793 7.89676 79.2162 6.84831C79.2847 4.99688 79.2579 3.13976 79.1358 1.29517C77.9581 1.41165 76.7883 1.67771 75.638 2.09073C74.5976 2.45651 73.5708 2.91206 72.5623 3.45531C71.718 3.91368 70.9106 4.41947 70.1299 4.96214L68.8769 5.91049C68.3241 6.34779 67.7847 6.80089 67.262 7.28033C66.5182 7.96174 65.8024 8.68004 65.1144 9.43521L63.4962 11.3583C62.2498 12.9261 61.0805 14.6398 59.9984 16.4846L58.6817 18.8555C57.3768 21.3458 56.2289 24.0296 55.2542 26.8691Z" fill="#0F3759"/>
    <path opacity="0.2" d="M58.1905 42.9465C56.619 39.8885 59.4673 36.6182 62.7897 32.2161C66.1121 27.8141 68.6522 23.9398 70.2406 26.9979C71.829 30.0559 70.393 36.1122 67.0672 40.5143C63.7414 44.9163 59.7619 46.01 58.1905 42.9465Z" fill="white"/>
</svg>
