<svg width="61" height="60" viewBox="0 0 61 60" fill="none" xmlns="http://www.w3.org/2000/svg">
    <g clip-path="url(#clip0_6616_60413)">
        <path d="M6.78752 0.122314H54.4314C57.7069 0.122314 60.3869 2.80228 60.3869 6.0778V53.7217C60.3869 56.9972 57.7069 59.6772 54.4314 59.6772H6.78752C3.512 59.6772 0.832031 56.9972 0.832031 53.7217V6.0778C0.832031 2.80228 3.512 0.122314 6.78752 0.122314Z" fill="#FDE6E7"/>
        <path d="M17.6855 24.6593H15.0651C14.3504 24.6593 13.8145 25.1953 13.8145 25.8504V46.2777H17.6855V24.6593Z" fill="url(#paint0_linear_6616_60413)"/>
        <path d="M46.1517 24.6592H43.5312V46.2776H47.4023V25.8503C47.4023 25.1952 46.8068 24.6592 46.1517 24.6592Z" fill="url(#paint1_linear_6616_60413)"/>
        <path d="M40.0182 17.3338H37.0405V14.8325C37.0405 14.1178 36.445 13.5223 35.6707 13.5223H25.4869C24.7722 13.5223 24.1171 14.1178 24.1171 14.8325V17.3338H21.1394C20.5438 17.3338 20.0078 17.8102 20.0078 18.4058V46.2775H26.9162V39.786C26.9162 38.8927 27.6308 38.2375 28.5837 38.2375H32.6334C33.5268 38.2375 34.301 38.9522 34.301 39.786V46.2775H41.2093V18.4058C41.1498 17.8102 40.6138 17.3338 40.0182 17.3338ZM25.6655 33.1158H24.8318C24.1767 33.1158 23.6407 32.5798 23.6407 31.9843C23.6407 31.3292 24.1767 30.8527 24.8318 30.8527H25.6655C26.3206 30.8527 26.8566 31.3887 26.8566 31.9843C26.8566 32.6394 26.3206 33.1158 25.6655 33.1158ZM25.6655 28.5301H24.8318C24.1767 28.5301 23.6407 27.9941 23.6407 27.3986C23.6407 26.7435 24.1767 26.267 24.8318 26.267H25.6655C26.3206 26.267 26.8566 26.803 26.8566 27.3986C26.8566 28.0537 26.3206 28.5301 25.6655 28.5301ZM31.0255 33.1158H30.1917C29.5366 33.1158 29.0006 32.5798 29.0006 31.9843C29.0006 31.3292 29.5366 30.8527 30.1917 30.8527H31.0255C31.6806 30.8527 32.2166 31.3887 32.2166 31.9843C32.2166 32.6394 31.6806 33.1158 31.0255 33.1158ZM31.0255 28.5301H30.1917C29.5366 28.5301 29.0006 27.9941 29.0006 27.3986C29.0006 26.7435 29.5366 26.267 30.1917 26.267H31.0255C31.6806 26.267 32.2166 26.803 32.2166 27.3986C32.2166 28.0537 31.6806 28.5301 31.0255 28.5301ZM32.4548 21.3835H31.7997V22.0386C31.7997 22.6937 31.2637 23.1702 30.6086 23.1702C29.9535 23.1702 29.4175 22.6342 29.4175 22.0386V21.3835H28.7624C28.1073 21.3835 27.5713 20.8475 27.5713 20.252C27.5713 19.5969 28.1073 19.1204 28.7624 19.1204H29.4175V18.4653C29.4175 17.8102 29.9535 17.3338 30.6086 17.3338C31.2637 17.3338 31.7997 17.8698 31.7997 18.4653V19.1204H32.4548C33.1099 19.1204 33.6459 19.6564 33.6459 20.252C33.6459 20.9071 33.1099 21.3835 32.4548 21.3835ZM36.3854 33.1158H35.5516C34.8965 33.1158 34.3605 32.5798 34.3605 31.9843C34.3605 31.3292 34.8965 30.8527 35.5516 30.8527H36.3854C37.0405 30.8527 37.5765 31.3887 37.5765 31.9843C37.5765 32.6394 37.0405 33.1158 36.3854 33.1158ZM36.3854 28.5301H35.5516C34.8965 28.5301 34.3605 27.9941 34.3605 27.3986C34.3605 26.7435 34.8965 26.267 35.5516 26.267H36.3854C37.0405 26.267 37.5765 26.803 37.5765 27.3986C37.5765 28.0537 37.0405 28.5301 36.3854 28.5301Z" fill="url(#paint2_radial_6616_60413)"/>
    </g>
    <defs>
        <linearGradient id="paint0_linear_6616_60413" x1="14.9753" y1="23.3418" x2="20.8015" y2="24.6803" gradientUnits="userSpaceOnUse">
            <stop stop-color="#F44F4F"/>
            <stop offset="0.4429" stop-color="#EE3D3D"/>
            <stop offset="1" stop-color="#FC0E1C"/>
        </linearGradient>
        <linearGradient id="paint1_linear_6616_60413" x1="44.6921" y1="23.3417" x2="50.5183" y2="24.6802" gradientUnits="userSpaceOnUse">
            <stop stop-color="#F44F4F"/>
            <stop offset="0.4429" stop-color="#EE3D3D"/>
            <stop offset="1" stop-color="#FC0E1C"/>
        </linearGradient>
        <radialGradient id="paint2_radial_6616_60413" cx="0" cy="0" r="1" gradientUnits="userSpaceOnUse" gradientTransform="translate(41.2093 44.2303) rotate(-124.622) scale(37.316 153.298)">
            <stop stop-color="#F20101"/>
            <stop offset="1" stop-color="#981E13"/>
        </radialGradient>
        <clipPath id="clip0_6616_60413">
            <rect width="59.5549" height="59.5549" fill="white" transform="translate(0.832031 0.122437)"/>
        </clipPath>
    </defs>
</svg>
