<svg width="84" height="84" viewBox="0 0 84 84" fill="none" xmlns="http://www.w3.org/2000/svg">
    <g clip-path="url(#clip0_6616_60723)">
        <path d="M40.9355 46.9658C40.9355 47.1737 40.9972 47.3768 41.1126 47.5496C41.2281 47.7224 41.3922 47.8571 41.5842 47.9366C41.7762 48.0162 41.9875 48.037 42.1913 47.9964C42.3952 47.9559 42.5824 47.8558 42.7294 47.7088C42.8763 47.5619 42.9764 47.3747 43.0169 47.1708C43.0575 46.967 43.0367 46.7557 42.9571 46.5637C42.8776 46.3717 42.7429 46.2076 42.5701 46.0921C42.3973 45.9767 42.1942 45.915 41.9863 45.915C41.7076 45.915 41.4404 46.0257 41.2433 46.2228C41.0463 46.4199 40.9355 46.6871 40.9355 46.9658Z" fill="url(#paint0_linear_6616_60723)"/>
        <path d="M44.8575 44.0955C44.4802 43.7175 44.032 43.4176 43.5387 43.213C43.0453 43.0084 42.5164 42.9031 41.9823 42.9031C41.4482 42.9031 40.9194 43.0084 40.426 43.213C39.9326 43.4176 39.4845 43.7175 39.1071 44.0955C39.0255 44.1633 38.9588 44.2474 38.9116 44.3425C38.8643 44.4376 38.8375 44.5414 38.8328 44.6475C38.8281 44.7535 38.8456 44.8594 38.8842 44.9583C38.9228 45.0572 38.9817 45.1469 39.0571 45.2216C39.1324 45.2964 39.2226 45.3546 39.3217 45.3925C39.4209 45.4303 39.5269 45.447 39.6329 45.4415C39.7389 45.4359 39.8426 45.4083 39.9373 45.3603C40.032 45.3123 40.1156 45.2451 40.1828 45.1629C40.6629 44.6879 41.3111 44.4215 41.9865 44.4215C42.6619 44.4215 43.31 44.6879 43.7902 45.1629C43.8596 45.2351 43.9432 45.2922 44.0358 45.3307C44.1283 45.3691 44.2278 45.388 44.328 45.3863C44.4778 45.3868 44.6243 45.3426 44.7489 45.2594C44.8734 45.1762 44.9703 45.0577 45.0272 44.9191C45.084 44.7805 45.0983 44.6281 45.068 44.4814C45.0378 44.3347 44.9645 44.2004 44.8575 44.0955Z" fill="url(#paint1_linear_6616_60723)"/>
        <path d="M47.0912 41.8612C46.4211 41.1902 45.6254 40.6579 44.7494 40.2947C43.8734 39.9316 42.9345 39.7446 41.9862 39.7446C41.038 39.7446 40.099 39.9316 39.223 40.2947C38.3471 40.6579 37.5513 41.1902 36.8812 41.8612C36.799 41.9283 36.7317 42.0119 36.6838 42.1066C36.6358 42.2013 36.6081 42.305 36.6026 42.411C36.5971 42.517 36.6138 42.623 36.6516 42.7222C36.6895 42.8213 36.7477 42.9115 36.8224 42.9868C36.8972 43.0622 36.9869 43.1211 37.0858 43.1597C37.1847 43.1983 37.2905 43.2158 37.3966 43.2111C37.5026 43.2064 37.6065 43.1796 37.7016 43.1323C37.7966 43.0851 37.8808 43.0185 37.9485 42.9368C38.478 42.4066 39.1068 41.9861 39.7989 41.6992C40.491 41.4122 41.2329 41.2645 41.9821 41.2645C42.7313 41.2645 43.4732 41.4122 44.1653 41.6992C44.8574 41.9861 45.4862 42.4066 46.0156 42.9368C46.1619 43.0739 46.353 43.1533 46.5534 43.1602C46.7038 43.16 46.8508 43.1152 46.9759 43.0316C47.1009 42.9479 47.1983 42.8291 47.2558 42.6901C47.3134 42.5512 47.3285 42.3982 47.2992 42.2507C47.2699 42.1032 47.1975 41.9676 47.0912 41.8612Z" fill="url(#paint2_linear_6616_60723)"/>
        <path d="M41.987 68.2885C41.0572 68.2948 40.1554 67.9705 39.4425 67.3735C38.7296 66.7765 38.2521 65.9457 38.095 65.0292C37.938 64.1127 38.1116 63.1703 38.5851 62.37C39.0585 61.5697 39.8009 60.9636 40.6797 60.66L41.2093 60.4697V50.8719H34.4412L23.1556 62.1658L23.3955 62.6705C23.644 63.1869 23.7741 63.7523 23.7761 64.3253C23.7827 65.1044 23.5575 65.8678 23.1293 66.5186C22.7011 67.1694 22.0892 67.6783 21.3711 67.9806C20.6531 68.2829 19.8615 68.365 19.0967 68.2164C18.3319 68.0679 17.6286 67.6954 17.076 67.1462C16.5233 66.5971 16.1464 65.8961 15.993 65.1323C15.8396 64.3685 15.9166 63.5764 16.2143 62.8564C16.5121 62.1365 17.0171 61.5213 17.6652 61.089C18.3132 60.6567 19.0752 60.4267 19.8543 60.4283C20.4273 60.4304 20.9927 60.5604 21.509 60.8089L22.0138 61.0489L32.29 50.8223L31.3219 50.3259C30.5066 49.9093 29.8224 49.2753 29.3449 48.4941C28.8674 47.7129 28.6153 46.8149 28.6163 45.8993C28.6155 45.2787 28.7335 44.6636 28.9639 44.0873L29.3858 43.0034H23.7844L23.5941 43.533C23.2856 44.4075 22.6778 45.1448 21.8782 45.6145C21.0786 46.0841 20.1387 46.2559 19.2246 46.0994C18.3106 45.943 17.4813 45.4683 16.8834 44.7594C16.2856 44.0505 15.9576 43.153 15.9576 42.2257C15.9576 41.2983 16.2856 40.4009 16.8834 39.692C17.4813 38.9831 18.3106 38.5084 19.2246 38.3519C20.1387 38.1954 21.0786 38.3672 21.8782 38.8369C22.6778 39.3066 23.2856 40.0439 23.5941 40.9184L23.7844 41.4479H31.3881L31.5784 41.3735L31.8349 41.2659L32.3727 41.0508V40.4799C32.3727 40.3641 32.3727 40.2482 32.3727 40.1241C32.348 38.6549 32.8203 37.2205 33.7131 36.0533L34.1599 35.499L28.6081 29.9472L28.1034 30.1871C27.372 30.5407 26.5485 30.6574 25.7477 30.521C24.9468 30.3845 24.2085 30.0018 23.6354 29.4259C23.2704 29.0617 22.9809 28.629 22.7833 28.1526C22.5857 27.6763 22.484 27.1657 22.484 26.65C22.484 26.1344 22.5857 25.6237 22.7833 25.1474C22.9809 24.6711 23.2704 24.2384 23.6354 23.8741C23.9997 23.5091 24.4324 23.2196 24.9087 23.022C25.3851 22.8244 25.8957 22.7227 26.4113 22.7227C26.927 22.7227 27.4376 22.8244 27.914 23.022C28.3903 23.2196 28.823 23.5091 29.1872 23.8741C29.7612 24.4482 30.1434 25.1859 30.2812 25.9859C30.419 26.786 30.3056 27.609 29.9567 28.342L29.7085 28.8468L35.3679 34.5309L35.8808 34.2744C36.7911 33.8136 37.7978 33.5754 38.8181 33.5794C39.2886 33.5786 39.7578 33.6313 40.2164 33.7366L41.1844 33.9518V24.0231L40.6549 23.8328C39.7804 23.5243 39.0431 22.9165 38.5734 22.1169C38.1037 21.3173 37.9319 20.3773 38.0884 19.4633C38.2449 18.5492 38.7196 17.72 39.4285 17.1221C40.1374 16.5243 41.0348 16.1963 41.9622 16.1963C42.8895 16.1963 43.787 16.5243 44.4959 17.1221C45.2048 17.72 45.6795 18.5492 45.8359 19.4633C45.9924 20.3773 45.8206 21.3173 45.351 22.1169C44.8813 22.9165 44.144 23.5243 43.2695 23.8328L42.7399 24.0231V34.8867L43.0295 35.1267C43.2537 35.3181 43.4664 35.5225 43.6666 35.7389L44.0224 36.1278L44.5188 35.9541C45.0507 35.768 45.6101 35.6729 46.1736 35.6727C46.4228 35.6756 46.6716 35.6949 46.9183 35.7307L47.3071 35.7886L60.8185 22.2855L60.5785 21.7808C60.33 21.2645 60.2 20.6991 60.1979 20.126C60.1913 19.347 60.4165 18.5836 60.8447 17.9328C61.2729 17.282 61.8849 16.7731 62.6029 16.4708C63.3209 16.1685 64.1125 16.0864 64.8773 16.235C65.6421 16.3835 66.3454 16.756 66.8981 17.3051C67.4507 17.8543 67.8276 18.5552 67.981 19.319C68.1344 20.0829 68.0574 20.875 67.7597 21.5949C67.4619 22.3149 66.9569 22.9301 66.3088 23.3624C65.6608 23.7947 64.8988 24.0247 64.1197 24.0231C63.5467 24.021 62.9813 23.891 62.465 23.6425L61.9602 23.4025L48.9123 36.4339L49.5245 36.9883L49.6983 37.1538C50.5681 38.0235 51.0841 39.1852 51.1462 40.4137V40.9763L51.6923 41.1335C51.9417 41.2021 52.1852 41.2906 52.4204 41.3983L52.5445 41.4562H60.1979L60.3882 40.9267C60.6967 40.0521 61.3045 39.3148 62.1041 38.8452C62.9037 38.3755 63.8436 38.2037 64.7577 38.3602C65.6717 38.5167 66.501 38.9913 67.0989 39.7002C67.6967 40.4091 68.0246 41.3066 68.0246 42.234C68.0246 43.1613 67.6967 44.0588 67.0989 44.7677C66.501 45.4766 65.6717 45.9512 64.7577 46.1077C63.8436 46.2642 62.9037 46.0924 62.1041 45.6227C61.3045 45.1531 60.6967 44.4158 60.3882 43.5412L60.1979 43.0117H54.5882L55.0184 44.0956C55.4695 45.2436 55.477 46.5184 55.0396 47.6717C54.6022 48.8249 53.751 49.7741 52.6521 50.3341L51.684 50.8306L55.3659 54.5125L55.8706 54.2725C56.7054 53.8731 57.6545 53.7818 58.5501 54.0146C59.4457 54.2474 60.2301 54.7895 60.7647 55.5449C61.2992 56.3003 61.5494 57.2203 61.4711 58.1424C61.3927 59.0644 60.9908 59.9291 60.3365 60.5834C59.6821 61.2378 58.8175 61.6397 57.8954 61.718C56.9734 61.7964 56.0533 61.5462 55.2979 61.0116C54.5425 60.4771 54.0005 59.6927 53.7677 58.7971C53.5348 57.9015 53.6262 56.9524 54.0256 56.1176L54.2655 55.6129L49.5328 50.8802H42.7648V60.478L43.2943 60.6683C44.1672 60.9762 44.903 61.5829 45.3716 62.3811C45.8402 63.1793 46.0114 64.1175 45.8549 65.0298C45.6984 65.9421 45.2243 66.7696 44.5164 67.366C43.8086 67.9623 42.9126 68.2891 41.987 68.2885ZM41.987 61.9921C41.519 61.9921 41.0615 62.1309 40.6723 62.3909C40.2832 62.6509 39.9799 63.0205 39.8008 63.4529C39.6217 63.8853 39.5748 64.3611 39.6661 64.8201C39.7574 65.2791 39.9828 65.7007 40.3137 66.0317C40.6447 66.3626 41.0663 66.588 41.5254 66.6793C41.9844 66.7706 42.4602 66.7237 42.8926 66.5446C43.325 66.3655 43.6945 66.0622 43.9545 65.6731C44.2146 65.284 44.3533 64.8264 44.3533 64.3584C44.3512 63.7315 44.1012 63.1309 43.6579 62.6876C43.2145 62.2443 42.6139 61.9943 41.987 61.9921ZM19.8543 61.9921C19.3862 61.9921 18.9287 62.1309 18.5396 62.3909C18.1505 62.6509 17.8472 63.0205 17.668 63.4529C17.4889 63.8853 17.4421 64.3611 17.5334 64.8201C17.6247 65.2791 17.8501 65.7007 18.181 66.0317C18.5119 66.3626 18.9336 66.588 19.3926 66.6793C19.8516 66.7706 20.3274 66.7237 20.7598 66.5446C21.1922 66.3655 21.5618 66.0622 21.8218 65.6731C22.0818 65.284 22.2206 64.8264 22.2206 64.3584C22.2184 63.7315 21.9684 63.1309 21.5251 62.6876C21.0818 62.2443 20.4812 61.9943 19.8543 61.9921ZM57.5668 55.464C57.1767 55.4606 56.7918 55.5538 56.4464 55.7351C56.101 55.9165 55.8058 56.1804 55.5871 56.5034C55.3684 56.8265 55.2329 57.1986 55.1927 57.5866C55.1526 57.9747 55.209 58.3666 55.3569 58.7276C55.5048 59.0886 55.7397 59.4074 56.0407 59.6556C56.3416 59.9039 56.6993 60.0739 57.0818 60.1505C57.4643 60.2271 57.8598 60.2079 58.2331 60.0947C58.6065 59.9815 58.946 59.7778 59.2216 59.5016C59.6503 59.0574 59.8899 58.4642 59.8899 57.8468C59.8899 57.2295 59.6503 56.6363 59.2216 56.1921C59.0075 55.9675 58.751 55.7875 58.467 55.6625C58.183 55.5375 57.877 55.4701 57.5668 55.464ZM38.8429 35.1349C37.5263 35.1349 36.2636 35.658 35.3326 36.589C34.4016 37.52 33.8786 38.7827 33.8786 40.0993C33.8808 40.5635 33.9448 41.0254 34.0689 41.4728C34.0993 41.5857 34.1055 41.7039 34.087 41.8194C34.0684 41.9349 34.0256 42.0452 33.9613 42.1429C33.8945 42.2387 33.807 42.3181 33.7053 42.3754C33.6036 42.4327 33.4903 42.4664 33.3739 42.4739C32.5066 42.5572 31.704 42.9685 31.13 43.6239C30.556 44.2792 30.2539 45.1291 30.2856 45.9997C30.3173 46.8703 30.6804 47.696 31.3005 48.3078C31.9207 48.9197 32.7511 49.2716 33.6221 49.2916H50.3768C51.283 49.2916 52.1522 48.9316 52.793 48.2908C53.4339 47.6499 53.7939 46.7808 53.7939 45.8745C53.7939 44.9682 53.4339 44.099 52.793 43.4582C52.1522 42.8174 51.283 42.4574 50.3768 42.4574H50.2609C50.1408 42.4563 50.0223 42.4292 49.9137 42.3777C49.8051 42.3263 49.709 42.2518 49.6321 42.1595C49.5564 42.0657 49.5035 41.9556 49.4777 41.8378C49.4518 41.7201 49.4537 41.5979 49.4832 41.481C49.6615 40.807 49.6289 40.0944 49.3897 39.4394C49.1504 38.7845 48.7161 38.2187 48.1452 37.8183C47.5744 37.4179 46.8945 37.2021 46.1972 37.2002C45.4999 37.1983 44.8189 37.4102 44.2458 37.8074C44.1174 37.898 43.9644 37.9471 43.8073 37.9481H43.6418C43.536 37.9228 43.4363 37.8769 43.3482 37.813C43.2602 37.7491 43.1856 37.6685 43.1288 37.5757C42.689 36.8307 42.0622 36.2136 41.3104 35.7854C40.5587 35.3573 39.708 35.1331 38.8429 35.1349ZM64.1197 39.8593C63.6517 39.8593 63.1942 39.9981 62.8051 40.2581C62.4159 40.5182 62.1126 40.8877 61.9335 41.3201C61.7544 41.7525 61.7076 42.2283 61.7989 42.6873C61.8902 43.1464 62.1155 43.568 62.4465 43.8989C62.7774 44.2299 63.1991 44.4553 63.6581 44.5466C64.1171 44.6379 64.5929 44.591 65.0253 44.4119C65.4577 44.2328 65.8273 43.9295 66.0873 43.5404C66.3473 43.1512 66.4861 42.6937 66.4861 42.2257C66.4839 41.5988 66.2339 40.9981 65.7906 40.5548C65.3473 40.1115 64.7467 39.8615 64.1197 39.8593ZM19.8543 39.8593C19.3862 39.8593 18.9287 39.9981 18.5396 40.2581C18.1505 40.5182 17.8472 40.8877 17.668 41.3201C17.4889 41.7525 17.4421 42.2283 17.5334 42.6873C17.6247 43.1464 17.8501 43.568 18.181 43.8989C18.5119 44.2299 18.9336 44.4553 19.3926 44.5466C19.8516 44.6379 20.3274 44.591 20.7598 44.4119C21.1922 44.2328 21.5618 43.9295 21.8218 43.5404C22.0818 43.1512 22.2206 42.6937 22.2206 42.2257C22.2206 41.5981 21.9713 40.9962 21.5275 40.5524C21.0837 40.1087 20.4819 39.8593 19.8543 39.8593ZM26.4072 24.2796C25.7803 24.2817 25.1797 24.5317 24.7364 24.975C24.2931 25.4184 24.043 26.019 24.0409 26.6459C24.0413 26.954 24.1029 27.259 24.2223 27.5431C24.3416 27.8271 24.5162 28.0847 24.7359 28.3007C25.1743 28.7414 25.769 28.9912 26.3907 28.9957C26.8567 28.9917 27.3112 28.8502 27.6971 28.5888C28.083 28.3275 28.3832 27.9581 28.5599 27.5268C28.7367 27.0955 28.7821 26.6217 28.6906 26.1647C28.5991 25.7077 28.3746 25.2879 28.0454 24.958C27.6094 24.5258 27.0211 24.2822 26.4072 24.2796ZM64.1197 17.7266C63.6517 17.7266 63.1942 17.8654 62.8051 18.1254C62.4159 18.3854 62.1126 18.755 61.9335 19.1874C61.7544 19.6198 61.7076 20.0956 61.7989 20.5546C61.8902 21.0136 62.1155 21.4353 62.4465 21.7662C62.7774 22.0971 63.1991 22.3225 63.6581 22.4138C64.1171 22.5051 64.5929 22.4583 65.0253 22.2792C65.4577 22.1001 65.8273 21.7968 66.0873 21.4076C66.3473 21.0185 66.4861 20.561 66.4861 20.0929C66.4839 19.466 66.2339 18.8654 65.7906 18.4221C65.3473 17.9788 64.7467 17.7288 64.1197 17.7266ZM41.987 17.7266C41.519 17.7266 41.0615 17.8654 40.6723 18.1254C40.2832 18.3854 39.9799 18.755 39.8008 19.1874C39.6217 19.6198 39.5748 20.0956 39.6661 20.5546C39.7574 21.0136 39.9828 21.4353 40.3137 21.7662C40.6447 22.0971 41.0663 22.3225 41.5254 22.4138C41.9844 22.5051 42.4602 22.4583 42.8926 22.2792C43.325 22.1001 43.6945 21.7968 43.9545 21.4076C44.2146 21.0185 44.3533 20.561 44.3533 20.0929C44.3533 19.4654 44.104 18.8635 43.6603 18.4197C43.2165 17.9759 42.6146 17.7266 41.987 17.7266Z" fill="url(#paint3_linear_6616_60723)"/>
    </g>
    <defs>
        <linearGradient id="paint0_linear_6616_60723" x1="42.6427" y1="45.915" x2="40.7983" y2="46.3821" gradientUnits="userSpaceOnUse">
            <stop stop-color="#AC2121"/>
            <stop offset="1" stop-color="#E9000E"/>
        </linearGradient>
        <linearGradient id="paint1_linear_6616_60723" x1="43.9104" y1="42.9031" x2="39.7056" y2="45.524" gradientUnits="userSpaceOnUse">
            <stop stop-color="#AC2121"/>
            <stop offset="1" stop-color="#E9000E"/>
        </linearGradient>
        <linearGradient id="paint2_linear_6616_60723" x1="45.3035" y1="39.7446" x2="39.0972" y2="44.5997" gradientUnits="userSpaceOnUse">
            <stop stop-color="#AC2121"/>
            <stop offset="1" stop-color="#E9000E"/>
        </linearGradient>
        <linearGradient id="paint3_linear_6616_60723" x1="58.2732" y1="16.1628" x2="12.5121" y2="27.7533" gradientUnits="userSpaceOnUse">
            <stop stop-color="#AC2121"/>
            <stop offset="1" stop-color="#E9000E"/>
        </linearGradient>
        <clipPath id="clip0_6616_60723">
            <rect width="82.7392" height="82.7392" fill="white" transform="translate(0.617188 0.855957)"/>
        </clipPath>
    </defs>
</svg>
