<svg width="60" height="60" viewBox="0 0 60 60" fill="none" xmlns="http://www.w3.org/2000/svg">
    <g clip-path="url(#clip0_6616_60481)">
        <path d="M53.7713 0.122314H6.12736C2.83824 0.122314 0.171875 2.78868 0.171875 6.0778V53.7217C0.171875 57.0108 2.83824 59.6772 6.12736 59.6772H53.7713C57.0604 59.6772 59.7267 57.0108 59.7267 53.7217V6.0778C59.7267 2.78868 57.0604 0.122314 53.7713 0.122314Z" fill="#FDE6E7"/>
        <path d="M43.0513 23.2297V37.5229H16.8472V23.2297C16.8472 22.9928 16.7531 22.7656 16.5855 22.5981C16.418 22.4305 16.1908 22.3364 15.9539 22.3364C15.7169 22.3364 15.4897 22.4305 15.3222 22.5981C15.1547 22.7656 15.0605 22.9928 15.0605 23.2297V41.3106C15.0605 41.6265 15.186 41.9295 15.4094 42.1528C15.6328 42.3762 15.9357 42.5017 16.2516 42.5017H43.6469C43.9628 42.5017 44.2657 42.3762 44.4891 42.1528C44.7125 41.9295 44.838 41.6265 44.838 41.3106V23.2297C44.838 22.9928 44.7439 22.7656 44.5763 22.5981C44.4088 22.4305 44.1816 22.3364 43.9447 22.3364C43.7077 22.3364 43.4805 22.4305 43.313 22.5981C43.1455 22.7656 43.0513 22.9928 43.0513 23.2297Z" fill="url(#paint0_radial_6616_60481)"/>
        <path d="M18.9914 33.1157C18.9914 33.1574 18.9914 33.1991 18.9914 33.2468C18.9852 33.6198 19.0525 33.9905 19.1894 34.3375C19.3264 34.6846 19.5304 35.0012 19.7898 35.2694C20.0491 35.5377 20.3588 35.7522 20.7011 35.9007C21.0433 36.0492 21.4115 36.1289 21.7845 36.1352C22.1576 36.1414 22.5282 36.0742 22.8753 35.9372C23.2223 35.8002 23.539 35.5962 23.8072 35.3368C24.0754 35.0775 24.2899 34.7678 24.4385 34.4255C24.587 34.0833 24.6667 33.7151 24.673 33.3421V25.189H27.1564V33.211C27.1327 33.9564 27.4037 34.6811 27.9107 35.2281C28.4176 35.775 29.1197 36.1002 29.8647 36.1331C30.6097 36.166 31.3377 35.904 31.8909 35.4038C32.4441 34.9037 32.7779 34.2057 32.8201 33.4612V25.2307H35.2618V33.2706C35.2492 34.0044 35.5217 34.7146 36.022 35.2516C36.5223 35.7886 37.2113 36.1107 37.9442 36.1501C38.6771 36.1894 39.3967 35.943 39.9516 35.4626C40.5065 34.9822 40.8535 34.3053 40.9195 33.5743V32.9788C40.9195 30.4953 40.9553 19.0965 40.9553 19.0965H41.5985V17.3099H34.5412V19.0965H35.1963V23.3487H32.8141V19.0906H33.4752V17.3039H26.4358V19.0906H27.0968V23.3487H24.6849V19.0846H25.3519V17.298H18.3125V19.0846H18.9676C18.9676 19.0846 18.9914 30.5966 18.9914 33.1157ZM37.0604 19.0906H39.1031V23.3487H37.0604V19.0906ZM28.9311 19.0906H30.9679V23.3487H28.9311V19.0906ZM20.8019 19.0906H22.8387V23.3487H20.8019V19.0906Z" fill="url(#paint1_linear_6616_60481)"/>
        <path d="M29.9496 34.3304C29.8823 34.3364 29.8145 34.3364 29.7471 34.3304C29.4872 34.2851 29.2539 34.1434 29.0938 33.9337C28.9338 33.7239 28.8587 33.4615 28.8836 33.1989V25.1351H30.9918V33.4013C30.9678 33.6593 30.8469 33.8986 30.6535 34.0709C30.4601 34.2433 30.2086 34.336 29.9496 34.3304Z" fill="url(#paint2_radial_6616_60481)"/>
        <path d="M38.0902 34.3304C38.0308 34.3364 37.971 34.3364 37.9116 34.3304C37.6586 34.2911 37.429 34.1602 37.2665 33.9625C37.1039 33.7648 37.0198 33.5142 37.0301 33.2584V25.1351H39.1682C39.1563 25.2659 39.1563 25.3974 39.1682 25.5282V33.3954C39.1371 33.6575 39.0094 33.8985 38.8101 34.0714C38.6107 34.2443 38.354 34.3367 38.0902 34.3304Z" fill="#FDE6E7"/>
        <path d="M21.8135 34.3304C21.6957 34.3314 21.5787 34.3112 21.4681 34.2708C21.2319 34.1934 21.0306 34.0351 20.8998 33.8236C20.7691 33.6122 20.7172 33.3614 20.7534 33.1155V25.1351H22.8855V33.3239C22.8762 33.5956 22.7604 33.8528 22.5633 34.04C22.3661 34.2271 22.1032 34.3293 21.8314 34.3244L21.8135 34.3304Z" fill="#FDE6E7"/>
    </g>
    <defs>
        <radialGradient id="paint0_radial_6616_60481" cx="0" cy="0" r="1" gradientUnits="userSpaceOnUse" gradientTransform="translate(44.838 41.2414) rotate(-147.59) scale(35.2717 140.233)">
            <stop stop-color="#F20101"/>
            <stop offset="1" stop-color="#981E13"/>
        </radialGradient>
        <linearGradient id="paint1_linear_6616_60481" x1="25.2957" y1="16.1488" x2="35.8063" y2="32.8021" gradientUnits="userSpaceOnUse">
            <stop stop-color="#F44F4F"/>
            <stop offset="0.4429" stop-color="#EE3D3D"/>
            <stop offset="1" stop-color="#FC0E1C"/>
        </linearGradient>
        <radialGradient id="paint2_radial_6616_60481" cx="0" cy="0" r="1" gradientUnits="userSpaceOnUse" gradientTransform="translate(30.9918 33.7599) rotate(-103.765) scale(8.8798 18.0319)">
            <stop stop-color="#F20101"/>
            <stop offset="1" stop-color="#981E13"/>
        </radialGradient>
        <clipPath id="clip0_6616_60481">
            <rect width="59.5549" height="59.5549" fill="white" transform="translate(0.171875 0.122437)"/>
        </clipPath>
    </defs>
</svg>
