<svg width="288" height="226" viewBox="0 0 288 226" fill="none" xmlns="http://www.w3.org/2000/svg">
    <g clip-path="url(#clip0_6616_61227)">
        <mask id="mask0_6616_61227" style="mask-type:luminance" maskUnits="userSpaceOnUse" x="0" y="0" width="288" height="226">
            <path d="M287.779 0.0151367H0.0078125V225.541H287.779V0.0151367Z" fill="white"/>
        </mask>
        <g mask="url(#mask0_6616_61227)">
            <path d="M143.893 225.542C203.68 225.542 252.146 177.076 252.146 117.289C252.146 57.503 203.68 9.03662 143.893 9.03662C84.107 9.03662 35.6406 57.503 35.6406 117.289C35.6406 177.076 84.107 225.542 143.893 225.542Z" fill="#F0F9FF"/>
            <path d="M211.521 116.351C211.114 114.646 211.989 112.269 209.991 112.418C205.945 112.728 197.974 111.932 196.312 112.418C194.651 112.905 194.174 114.451 193.723 115.953C193.052 118.198 192.053 121.626 192.424 123.977C192.795 126.328 195.075 125.983 196.842 126.177C200.705 126.611 204.597 126.748 208.48 126.584C210.133 126.496 211.397 126.328 212.016 124.419C212.705 122.316 212.033 118.508 211.521 116.351Z" fill="#964939"/>
            <path d="M245.377 109.867C243.415 108.568 243.3 106.871 243.23 104.715C243.061 99.1649 243.565 95.1884 243.777 89.6298C243.842 89.5218 243.875 89.3972 243.871 89.2711C243.868 89.1449 243.827 89.0226 243.755 88.9189C243.683 88.8152 243.583 88.7345 243.465 88.6866C243.349 88.6387 243.221 88.6256 243.096 88.649C240.74 89.2649 238.524 90.327 236.566 91.7776C234.746 93.0053 233.032 95.1172 231.043 96.0103H230.928C230.76 96.0806 230.592 96.16 230.424 96.2132C230.279 96.2565 230.155 96.3521 230.074 96.4802C229.992 96.6092 229.961 96.7626 229.985 96.9124C230.009 97.063 230.086 97.1992 230.203 97.2967C230.319 97.3932 230.467 97.4455 230.619 97.4419C230.717 100.561 231.105 106.191 228.498 107.613C225.75 109.115 221.261 108.621 218.23 108.603C218.087 108.612 217.951 108.669 217.845 108.764C217.738 108.859 217.667 108.988 217.643 109.129C217.617 109.269 217.642 109.415 217.709 109.541C217.778 109.666 217.886 109.766 218.018 109.822C217.996 109.922 217.996 110.024 218.018 110.123C219.206 114.715 221.042 119.117 223.47 123.192C225.344 126.312 228.101 131.084 231.67 132.444C235.515 133.903 239.076 130.218 241.913 128.159L251.614 116.715C251.742 116.622 251.831 116.483 251.861 116.327C252.029 116.052 248.32 111.811 245.377 109.867Z" fill="#964939"/>
            <path d="M241.671 95.6475C239.965 97.0196 231.697 100.03 230.525 99.5139C230.707 100.664 230.841 103.771 229.645 106.496C232.74 104.856 239.563 101.058 241.671 95.6475Z" fill="#783C30"/>
            <path d="M214.859 107.084C206.27 106.951 198.263 107.172 192.386 107.605C192.251 107.621 192.124 107.683 192.026 107.778C191.929 107.874 191.866 108 191.848 108.136C191.087 112.899 190.805 123.953 193.403 132.093C193.703 133.02 193.659 132.976 195.877 133.453C200.225 134.426 212.305 136.104 212.305 135.848C212.305 129.972 212.712 127.621 213.887 121.876C214.762 117.564 215.256 107.084 214.859 107.084Z" fill="#6D9AFF"/>
            <path d="M245.358 78.2911C244.863 74.2967 241.072 71.9903 237.175 72.0434C232.862 72.114 227.004 74.6149 224.847 78.5032C222.691 82.3914 223.822 87.3931 224.194 91.5199C224.441 94.33 224.061 98.1829 226.844 99.8707C229.761 101.638 233.499 100.278 236.318 98.9875C238.969 97.7589 242.972 96.1946 243.564 92.9606C244.201 89.9696 244.55 86.9246 244.607 83.8672C245.316 82.0995 245.574 80.1833 245.358 78.2911Z" fill="#964939"/>
            <path d="M221.58 192.677C240.499 173.186 252.147 146.598 252.147 117.288C252.147 115.596 252.109 113.914 252.032 112.24C250.961 111.678 249.883 111.126 248.802 110.573C248.257 110.256 247.658 110.04 247.034 109.937C246.202 109.863 245.222 110.47 244.308 111.036C243.806 111.346 243.325 111.645 242.899 111.811C241.207 112.477 239.413 112.841 237.596 112.889C234.318 112.977 229.343 112.412 228.203 108.745C228.177 108.659 228.131 108.579 228.07 108.515C228.103 108.396 228.097 108.271 228.057 108.156C228.015 108.041 227.94 107.941 227.84 107.87C227.688 107.622 224.537 107.474 221.857 107.346C220.51 107.282 219.283 107.225 218.615 107.162C213.896 106.729 209.177 107.604 204.634 108.797C203.91 108.992 203.91 109.354 204.21 109.92C205.385 112.243 206.415 114.636 207.295 117.086C207.51 117.703 207.326 118.785 207.171 119.695C207.103 120.089 207.042 120.449 207.02 120.727C206.915 122.159 206.817 123.6 206.729 125.031C206.669 125.972 206.681 126.926 206.694 127.879C206.719 129.719 206.743 131.559 206.243 133.311C204.024 141.123 202.602 190.389 204.864 191.017C205.407 191.136 205.964 191.172 206.517 191.122C211.15 190.953 216.399 191.67 221.58 192.677Z" fill="#6D9AFF"/>
            <path d="M238.344 83.9125C237.823 83.4699 237.001 83.7973 236.63 84.1853C236.401 84.4406 236.267 84.7308 236.241 85.0303C236.215 85.3296 236.296 85.6287 236.479 85.9011C236.528 86.0183 236.623 86.1241 236.754 86.2063C236.884 86.2886 237.046 86.3443 237.221 86.3669C237.395 86.3896 237.575 86.3785 237.74 86.3347C237.906 86.291 238.051 86.2163 238.158 86.1193C238.467 85.852 238.667 85.5335 238.738 85.1959C238.809 84.8584 238.75 84.5139 238.565 84.1974C238.514 84.0947 238.44 83.9983 238.344 83.9125Z" fill="#1A0504"/>
            <path d="M227.515 83.9784C227.002 83.5419 226.181 83.8632 225.81 84.2573C225.582 84.5119 225.449 84.801 225.423 85.0992C225.397 85.3974 225.478 85.6954 225.659 85.9669C225.708 86.0833 225.802 86.1881 225.932 86.27C226.061 86.3518 226.221 86.4075 226.394 86.4307C226.567 86.454 226.746 86.4439 226.911 86.4016C227.076 86.3593 227.221 86.2865 227.329 86.1913C227.638 85.9242 227.839 85.606 227.913 85.2685C227.986 84.9311 227.928 84.5865 227.745 84.2693C227.692 84.1644 227.614 84.0661 227.515 83.9784Z" fill="#1A0504"/>
            <path d="M229.984 85.3174C229.387 85.8893 229.038 86.6733 229.012 87.5001C229.09 87.891 229.263 88.2566 229.516 88.5648C229.769 88.873 230.093 89.1144 230.461 89.2675C230.536 89.2986 230.62 89.3014 230.697 89.2755C230.774 89.2496 230.838 89.1967 230.88 89.1267C230.921 89.0566 230.935 88.9742 230.92 88.8944C230.904 88.8148 230.861 88.7432 230.797 88.6931C230.294 88.4103 229.684 88.0215 229.666 87.3852C229.74 86.7836 230.018 86.2253 230.452 85.8034C230.727 85.4764 230.258 85.0081 229.984 85.3351V85.3174Z" fill="#66281B"/>
            <path d="M239.782 80.1129L239.535 80.0068C238.834 79.7265 238.073 79.6304 237.324 79.7279C236.575 79.8253 235.195 79.6955 235.258 80.5636C235.281 80.8815 235.318 81.0091 235.597 81.3061C235.876 81.6029 236.728 81.3333 237.453 81.3061C238.819 81.2545 240.935 81.7278 240.935 81.1697C240.935 80.4991 240.71 80.5725 239.782 80.1129Z" fill="#2F1715"/>
            <path d="M229.617 81.2699C230.366 80.3099 227.7 79.7764 226.843 79.8471C226.067 79.9213 225.338 80.2544 224.774 80.7926C224.324 81.1991 223.397 80.9125 223.741 81.593C224.006 82.1232 224.872 82.1586 225.376 82.0614C225.833 81.9354 226.3 81.8526 226.772 81.8139C227.24 81.8139 227.7 81.8846 228.16 81.867C229.088 81.8227 229.239 81.7546 229.617 81.2699Z" fill="#2F1715"/>
            <path d="M231.511 88.2419C231.845 88.2161 232.18 88.2769 232.483 88.4186C232.863 88.6041 233.198 88.0299 232.819 87.8531C232.413 87.6517 231.963 87.5574 231.511 87.5793C231.087 87.5793 231.087 88.2684 231.511 88.2419Z" fill="#66281B"/>
            <path d="M244.73 70.993C242.688 70.772 242.963 67.4581 241.133 66.274C240.19 65.7222 239.114 65.4418 238.023 65.4636C236.931 65.4854 235.867 65.8087 234.947 66.3977C234.47 66.6805 234.002 67.3345 233.551 67.5996C231.377 68.8633 230.953 68.2358 229.132 68.0413C227.671 67.8824 226.193 68.0857 224.828 68.6335C223.795 69.0577 220.808 70.8515 220.534 72.3803C219.582 72.932 218.784 73.7155 218.215 74.6579C217.647 75.6004 217.326 76.6712 217.282 77.7709C217.176 79.3086 217.502 81.2438 218.855 82.1893C219.276 82.465 219.734 82.6792 220.216 82.8256C220.916 83.1106 221.645 83.3181 222.39 83.4443C223.14 83.5288 223.898 83.4092 224.586 83.0981C225.273 82.787 225.864 82.296 226.295 81.6769C226.821 80.8602 227.257 79.9891 227.595 79.0788C228.09 78.2055 228.658 77.3749 229.291 76.5956C229.412 76.4284 229.569 76.2917 229.752 76.1966C229.934 76.1014 230.137 76.0504 230.343 76.0477C232.163 75.9947 233.745 77.1789 235.646 77.3291C236.945 77.4022 238.237 77.0951 239.366 76.4454C239.587 76.2988 239.836 76.1988 240.097 76.1517C240.358 76.1046 240.627 76.1113 240.885 76.1714C242.458 76.7282 243.21 80.042 243.536 81.4736C243.958 83.541 244.166 85.6466 244.155 87.7567C244.16 87.8735 244.197 87.9866 244.263 88.0826C244.33 88.1787 244.423 88.2535 244.531 88.2982C244.64 88.3429 244.758 88.3556 244.873 88.3348C244.988 88.314 245.095 88.2605 245.18 88.1809C247.398 85.8832 248.768 81.9949 248.971 78.8579C249.069 75.3142 247.77 71.3287 244.73 70.993Z" fill="#2F1715"/>
            <path d="M245.949 83.4708C244.447 84.063 243.644 85.6359 243.113 87.1824C242.98 87.1968 242.856 87.2581 242.764 87.3551C242.672 87.4522 242.617 87.5789 242.61 87.7126C242.503 88.9233 242.061 92.7498 244.563 91.8486C246.454 91.1765 247.346 88.8702 247.788 87.0851C248.132 85.7066 248.344 82.543 245.949 83.4708Z" fill="#964939"/>
            <path d="M235.087 91.283C233.248 91.7773 230.792 92.9176 228.962 92.0335C228.467 91.7953 228.025 92.5378 228.529 92.7759C230.676 93.8098 233.169 92.6875 235.307 92.1129C235.405 92.0741 235.486 92.0001 235.533 91.9054C235.58 91.8107 235.591 91.7024 235.564 91.6005C235.537 91.4986 235.474 91.4092 235.385 91.3506C235.297 91.292 235.191 91.2685 235.087 91.283Z" fill="#66281B"/>
            <path d="M246.558 84.6724C244.79 85.291 244.269 87.5002 244.022 89.0908C243.96 89.5061 244.605 89.6918 244.667 89.2676C244.87 87.9421 245.277 85.8211 246.734 85.2997C247.132 85.1495 246.964 84.5133 246.558 84.6546V84.6724Z" fill="#66281B"/>
            <path d="M191.67 109.179C188.383 109.179 185.582 109.477 183.461 108.673C176.93 106.216 162.401 93.8961 158.274 90.5033C157.806 90.1231 157.161 90.6711 157.391 91.1041C156.136 93.2692 151.782 94.8145 150.81 97.1121C150.395 98.0584 174.615 119.975 182.523 122.114C184.66 122.639 189.481 123.261 191.67 123.482C191.67 121.851 191.343 120.026 191.343 117.338C191.67 114.891 191.67 111.723 191.67 109.179Z" fill="#964939"/>
            <path d="M157.272 87.8074L157.201 87.3214C157.256 85.3628 157.057 83.4054 156.609 81.4978L156.547 81.3123C155.89 78.8499 154.82 76.5164 153.383 74.4106C152.5 73.1027 151.316 73.0585 150.732 74.2781C149.862 72.8195 148.821 71.4697 147.631 70.2572C146.951 69.6033 145.598 68.5605 144.979 69.8065C144.362 71.0525 146.676 73.3413 147.251 74.225C147.826 75.1087 148.488 76.1603 149.018 77.1589C149.381 77.804 149.698 78.4756 150.096 79.103C150.19 79.2173 150.245 79.358 150.255 79.5054C150.264 79.6528 150.228 79.7994 150.149 79.9248C150.122 79.9563 150.088 79.9815 150.05 79.9982C150.011 80.015 149.97 80.0231 149.928 80.0221C149.646 80.0221 149.169 78.7937 149.044 78.5462C148.683 77.9542 148.303 77.3798 147.905 76.7789C147.128 75.6713 146.278 74.6174 145.36 73.6242C144.52 72.7404 141.825 69.5149 140.252 70.8493C138.917 71.9804 140.685 73.4562 141.436 74.2074C142.897 75.6641 144.16 77.3072 145.191 79.0942C145.191 79.1472 145.147 79.2002 145.103 79.1472C143.813 77.3798 142.187 76.01 140.332 76.2575C140.23 76.2768 140.135 76.3219 140.057 76.3884C139.977 76.455 139.917 76.5407 139.881 76.6375C139.518 78.016 141.145 78.8202 141.984 79.7216C143.124 80.9411 143.831 82.682 144.635 84.1401C142.974 82.5494 140.835 81.489 140.579 83.0089C140.376 84.2727 142.488 85.3684 143.23 86.0754C144.491 87.4827 145.578 89.0374 146.464 90.706C147.13 91.8256 147.843 92.9063 148.603 93.9491C149.151 94.7006 150.785 97.3428 151.095 97.4312C152.677 97.8643 159.711 91.8373 159.631 91.7399C158.584 90.6041 157.781 89.2658 157.272 87.8074Z" fill="#964939"/>
            <path d="M151.099 76.6282C152.241 78.8465 152.892 81.2849 153.008 83.7773C152.92 85.2799 153.32 86.7708 154.148 88.0279C154.395 88.3637 154.969 88.0279 154.722 87.6921C153.343 85.8275 153.838 83.6625 153.59 81.5063C153.204 79.68 152.558 77.9184 151.673 76.2748C151.505 75.886 150.931 76.2217 151.099 76.6105V76.6282Z" fill="#66281B"/>
            <path d="M152.951 82.9879C153.381 83.5783 153.704 84.239 153.906 84.9403C153.928 85.0247 153.985 85.0962 154.061 85.1393C154.137 85.1824 154.227 85.1934 154.312 85.17C154.395 85.1466 154.468 85.0905 154.511 85.0144C154.553 84.9382 154.565 84.848 154.542 84.7636C154.331 84.0047 153.988 83.2895 153.525 82.6522C153.278 82.3076 152.704 82.6522 152.951 82.9879Z" fill="#66281B"/>
            <path d="M70.0892 68.6183C68.8951 66.9163 67.3022 65.5327 65.4498 64.5887C60.077 61.8846 51.8851 63.3427 47.2722 66.9394C43.9053 69.5904 42.9509 73.514 42.4206 77.4199C41.7755 82.1388 40.998 87.388 38.2055 91.4446C36.6502 93.689 34.3967 95.7386 33.6809 98.417C32.8945 101.351 33.6968 103.332 35.0588 105.218C36.0949 106.653 36.4692 107.452 36.3721 109.245C36.2218 111.552 38.2506 114.702 41.1844 114.985H41.3524C42.4156 114.921 43.4746 114.8 44.5249 114.622C46.0378 114.143 47.5904 113.801 49.1643 113.598C55.5092 112.935 54.545 124.168 60.6778 120.315C62.3165 119.323 63.6913 117.95 64.6853 116.314C65.6792 114.677 66.263 112.824 66.3866 110.912C66.6252 107.784 71.9009 109.233 73.2352 106.414C75.0644 102.543 75.2323 92.0806 73.2352 87.9536C72.2455 85.9123 72.5106 83.0667 72.3515 80.884C72.1924 78.7013 72.4751 76.5451 72.2542 74.38C72.0294 72.3077 71.2847 70.3259 70.0892 68.6183Z" fill="#964939"/>
            <path d="M58.8729 107.696C61.6124 107.033 64.3695 106.071 66.3843 103.932C67.0417 103.183 67.633 102.379 68.1517 101.529C66.6141 101.343 64.6168 100.751 64.0866 99.0452C63.8862 97.9113 63.8358 96.7548 63.9364 95.6073C63.9364 92.9569 63.9364 90.3588 63.9364 87.7339C63.9403 87.5312 63.8782 87.3327 63.7596 87.1684C62.5428 84.0999 60.7726 81.2812 58.5371 78.8528C56.9729 77.1737 54.7636 74.9026 52.4837 76.5197H52.4307C52.2907 76.4733 52.1413 76.4625 51.9962 76.4886C51.851 76.5147 51.7146 76.5767 51.5995 76.6688C51.4844 76.7611 51.3943 76.8808 51.3373 77.0168C51.2803 77.1528 51.2582 77.301 51.2731 77.4476C51.7413 82.7499 52.2186 87.9813 52.3158 93.2654C52.3777 96.9153 52.6693 100.335 50.5484 103.561C49.5206 104.976 48.3347 106.268 47.0137 107.414C50.875 108.537 54.9624 108.635 58.8729 107.696Z" fill="#F59E73"/>
            <path d="M55.8965 92.9536C58.2394 93.3235 62.9078 93.5698 64.0794 93.0537C63.8969 94.2039 63.9506 96.3942 63.9501 97.5859C60.512 96.3004 56.5658 94.4863 55.8965 92.9536Z" fill="#ED783E"/>
            <path d="M133.807 85.4633C133.857 85.5774 133.894 85.6957 133.922 85.8168C134.178 86.0559 134.346 86.373 134.402 86.7184C134.458 87.0637 134.398 87.418 134.232 87.7255C132.169 91.7011 129.609 95.3979 126.614 98.7276C124.237 101.35 119.053 107.2 116.404 109.547L112.053 93.8301C116.252 90.6159 121.887 86.2763 125.563 81.3983C125.758 81.1279 126.043 80.9342 126.366 80.8504C126.551 80.6734 126.778 80.5469 127.026 80.4835C127.274 80.42 127.534 80.4215 127.78 80.4881C129.093 80.8137 130.316 81.4297 131.36 82.2908C132.402 83.1519 133.239 84.236 133.807 85.4633Z" fill="#F59E73"/>
            <path d="M108.747 95.8217C104.398 96.0824 94.3085 97.311 89.9535 97.4445C84.2235 97.6204 80.1626 97.809 75.3108 98.4874C74.7983 98.5586 77.6335 105.649 79.8339 111.013C81.6013 115.432 78.8384 113.666 82.603 116.75C83.0095 117.077 85.095 120.612 85.4574 120.391C88.6926 120.251 110.564 116.75 114.615 113.02C118.384 109.55 124.649 101.507 124.649 101.507C124.649 101.507 120.963 94.8744 120.6 86.4458C117.272 88.606 110.435 94.1338 108.747 95.8217Z" fill="#FFDC6C"/>
            <path fill-rule="evenodd" clip-rule="evenodd" d="M108.722 95.6603C109.09 95.5881 109.445 95.8272 109.516 96.1944L109.923 98.2692C109.995 98.6364 109.756 98.9918 109.389 99.064C109.023 99.1352 108.667 98.8962 108.595 98.5299L108.188 96.4542C108.117 96.0879 108.356 95.7325 108.722 95.6603Z" fill="#E1A93C"/>
            <path d="M61.2493 67.8775C61.1308 67.7719 60.9927 67.6908 60.8428 67.6389C55.7527 65.8714 48.6831 68.0188 46.7036 73.0382C45.5019 76.1047 46.7035 79.4627 48.8245 81.9194C50.5071 83.9852 51.8142 86.33 52.6863 88.8476C53.084 89.8108 53.4197 91.3483 54.1797 92.135C55.5936 93.6108 58.5983 93.425 60.5159 93.5576C63.0167 93.7344 65.818 93.6198 67.4174 91.5432C69.0169 89.4662 68.7254 87.3453 68.8667 84.7825C69.2025 77.9251 69.2555 70.2369 61.2493 67.8775Z" fill="#F59E73"/>
            <path d="M97.0424 214.905C60.7156 197.438 35.6406 160.291 35.6406 117.288C35.6406 113.866 35.7994 110.481 36.1099 107.141C41.8826 103.725 48.8103 101.969 49.8624 102.34C51.9217 103.117 54.0825 103.594 56.278 103.753C56.4464 103.762 56.621 103.772 56.8007 103.782C59.2147 103.921 62.5821 104.114 65.0428 101.621C65.0511 101.419 65.1037 101.222 65.1968 101.044C65.29 100.865 65.4215 100.709 65.5819 100.586C67.2582 100.354 68.922 100.02 70.5838 99.6859C73.7017 99.0598 76.8127 98.4346 79.9876 98.487C87.4554 98.5528 88.5299 107.444 89.2517 113.417C89.4011 114.654 89.5354 115.765 89.7082 116.646C90.402 120.193 90.0644 124.082 89.7283 127.956C89.4052 131.68 89.0834 135.388 89.6812 138.758C90.5545 143.682 91.1471 148.687 91.7371 153.677C91.9717 155.653 92.2053 157.63 92.4561 159.596C93.5873 168.087 94.2351 176.718 94.8828 185.348C95.3735 191.888 95.8643 198.427 96.5652 204.903C96.6148 205.371 96.6789 205.848 96.742 206.332C96.7691 206.532 96.7952 206.733 96.8214 206.935C97.1967 209.571 97.5927 212.352 97.0424 214.905Z" fill="#FFDC6C"/>
            <path d="M69.0531 74.8677C68.3728 74.3071 67.5019 74.0315 66.6229 74.0989C66.2192 74.1707 65.9515 74.2279 65.539 74.3702C65.2953 74.4542 65.0526 74.3919 64.927 74.617C64.8346 74.7826 64.8765 74.942 64.9129 75.1023C64.9494 75.2627 65.026 75.4111 65.1355 75.5339C65.245 75.6566 65.3837 75.7495 65.539 75.804C65.6941 75.8585 65.8606 75.8727 66.0228 75.8452C66.7897 75.6382 67.5941 75.6111 68.3734 75.7658C68.7269 75.8807 69.1864 76.0044 69.478 75.6421C70.0259 74.9881 69.6452 75.3448 69.0531 74.8677Z" fill="#964939"/>
            <path d="M59.011 73.7802C58.1898 73.7331 57.3706 73.9006 56.6339 74.2663C55.9751 74.5614 55.3985 75.0135 54.9549 75.5829C54.8312 75.7916 54.7656 74.6511 54.7656 74.8937C54.7656 75.1363 54.8312 75.3743 54.9549 75.5829C55.14 75.7807 55.3861 75.9101 55.654 75.9502C55.9219 75.9903 56.1955 75.9387 56.4304 75.8038C57.3644 75.3889 58.3948 75.2391 59.4084 75.3708C60.0181 75.4416 60.7452 75.4663 61.0255 74.8672C61.4044 74.0575 60.0449 73.8333 59.011 73.7802Z" fill="#964939"/>
            <path d="M147.146 64.4042C147.191 64.2367 147.191 64.0603 147.146 63.8929C147.1 63.7254 147.012 63.5728 146.889 63.4502C146.767 63.3276 146.614 63.2394 146.446 63.1944C146.28 63.1493 146.103 63.1491 145.936 63.1935C142.198 64.0772 139.157 67.4352 137.046 70.7138C136.957 70.59 136.887 70.4575 136.789 70.3338C138.017 67.8329 138.927 64.8991 140.704 62.9549C141.897 61.6559 144.637 59.8973 144.38 57.8913C144.382 57.7177 144.337 57.5466 144.252 57.3953C144.167 57.2439 144.043 57.1173 143.894 57.0281C143.746 56.9389 143.576 56.8901 143.402 56.8865C143.229 56.8829 143.057 56.9246 142.905 57.0076C140.714 58.1788 138.833 59.8538 137.416 61.8945C136.69 62.9179 136.029 63.9863 135.437 65.0935C135.128 65.6502 134.836 66.2069 134.553 66.7725C134.385 67.0995 134.253 67.7888 133.758 67.6562C133.263 67.5236 133.679 66.4102 133.758 65.9949C134.15 64.543 134.745 63.1537 135.526 61.868C136.559 60.1978 137.416 58.7043 137.363 56.6984C137.36 56.555 137.327 56.4141 137.264 56.2852C137.202 56.1563 137.111 56.0426 137 55.9517C136.89 55.861 136.761 55.7954 136.622 55.7596C136.483 55.7237 136.338 55.7183 136.197 55.744C135.831 55.8474 135.501 56.0491 135.243 56.3272C132.592 58.7927 131.028 62.6368 129.711 65.9506C129.384 66.7725 128.827 68.7431 128.474 69.8477C128.466 69.8667 128.452 69.8827 128.434 69.8941C128.417 69.9054 128.397 69.9114 128.376 69.9114C128.356 69.9114 128.336 69.9054 128.319 69.8941C128.301 69.8827 128.287 69.8667 128.279 69.8477C127.776 66.0214 126.777 64.8814 125.813 65.1288C124.17 65.5618 124.78 69.0259 124.744 70.7226C124.674 74.1955 124.815 77.6861 124.894 81.1679C124.534 82.1266 124.097 83.0546 123.587 83.9427C123.251 84.526 130.807 93.372 130.921 93.2304C132.32 91.5137 133.537 89.6572 134.553 87.6896C135.508 85.9222 138.91 79.4005 139.856 77.7745C140.375 76.8846 141.07 76.109 141.897 75.4946C143.222 74.5225 144.866 74.1955 146.218 73.2941C146.414 73.1625 146.565 72.9728 146.647 72.7517C146.73 72.5305 146.741 72.289 146.68 72.061C146.619 71.8329 146.487 71.6298 146.305 71.4802C146.122 71.3305 145.897 71.2417 145.662 71.2263C143.709 71.1363 141.786 71.7405 140.235 72.9319C140.216 72.9506 140.191 72.9611 140.165 72.9611C140.138 72.9611 140.113 72.9506 140.094 72.9319C140.076 72.9131 140.065 72.8877 140.065 72.8612C140.065 72.8347 140.076 72.8093 140.094 72.7905C140.964 71.539 141.93 70.3572 142.984 69.2557C144.495 67.7446 146.413 66.4455 147.146 64.4042Z" fill="#F59E73"/>
            <path d="M70.2834 80.9546C70.4108 80.3668 70.3742 79.7554 70.1775 79.1872C69.7002 74.1147 67.3319 66.5326 62.3479 64.9773C62.2064 64.7475 61.8088 65.0745 61.579 65.1276C58.1049 64.3571 54.4754 64.7194 51.2221 66.1615C48.2441 67.487 46.6181 69.9436 45.4516 72.9394C43.9846 76.7305 46.3883 79.4258 46.3353 83.2345C46.3353 86.8488 45.1512 90.2337 47.0953 93.5733C47.153 93.6779 47.2476 93.7564 47.3604 93.7943C47.3556 93.8773 47.3556 93.9594 47.3604 94.0424C47.3604 94.7406 47.8199 98.3364 47.979 97.6472C48.8008 94.1128 52.8924 92.0361 54.0942 89.1199C55.4728 85.753 53.0603 78.9928 55.7467 76.0412C57.7173 73.8849 60.9958 73.3901 62.1712 70.4297C62.2239 70.2641 62.3046 70.1086 62.4098 69.9702C62.9577 69.3428 64.5924 69.7846 65.2288 70.0939C65.6812 70.3215 66.0795 70.6436 66.3965 71.0384C66.7137 71.4334 66.9422 71.8917 67.0668 72.3827C67.4821 73.8584 68.6752 78.0648 69.1259 79.6379C69.1259 80.1239 69.1877 80.5657 69.1965 80.9457C69.1965 81.5378 70.1421 81.7145 70.2746 81.0871C70.2754 81.0428 70.2783 80.9986 70.2834 80.9546Z" fill="#964939"/>
            <path d="M67.159 77.5428C66.9534 77.561 66.7579 77.6183 66.592 77.7091C66.4262 77.7998 66.2956 77.9208 66.2137 78.06C65.9704 78.5596 65.9704 79.1053 66.2137 79.6049C66.408 80.0961 67.0972 80.5486 67.6803 80.2513C68.6078 79.8764 68.5725 77.5105 67.159 77.5428Z" fill="#1A0504"/>
            <path d="M58.2286 77.5365C58.0103 77.5537 57.8012 77.6099 57.6194 77.7C57.4377 77.7902 57.289 77.9116 57.1862 78.0535C56.895 78.5462 56.8759 79.1023 57.1332 79.605C57.3364 80.0963 58.0167 80.5488 58.75 80.2514C59.8277 79.8765 59.8012 77.5042 58.2286 77.5365Z" fill="#1A0504"/>
            <path d="M64.5357 80.2228C65.0218 80.6028 65.6757 81.1065 65.7111 81.7604C65.7104 82.1004 65.6116 82.4329 65.4266 82.7183C65.2417 83.0035 64.9784 83.2294 64.6683 83.3688C64.2706 83.5101 64.4473 84.1553 64.845 84.005C65.2472 83.845 65.5994 83.5803 65.8651 83.2385C66.1307 82.8967 66.3003 82.4902 66.3562 82.0609C66.4975 81.0447 65.7376 80.2935 65.0041 79.7545C64.6683 79.4982 64.1999 79.9666 64.5357 80.2228Z" fill="#C45547"/>
            <path d="M62.3555 83.3057C62.8118 83.0591 63.3353 82.9662 63.8485 83.0406C64.2726 83.0406 64.2726 82.3957 63.8485 82.378C63.2169 82.2973 62.5759 82.4212 62.0199 82.7315C61.6665 82.97 62.0199 83.5442 62.3555 83.3057Z" fill="#C45547"/>
            <path d="M50.6496 79.1882C50.4454 78.9189 50.1975 78.6859 49.9161 78.4989C49.7753 78.3963 49.6135 78.3262 49.4424 78.2932C49.2714 78.2604 49.0951 78.2656 48.9264 78.3087C48.7576 78.3518 48.6004 78.4315 48.466 78.5423C48.3315 78.6531 48.2233 78.7921 48.1487 78.9496C48.0091 79.3454 47.9739 79.7705 48.0467 80.1839C48.1194 80.5972 48.2977 80.9848 48.5641 81.3091C48.9184 81.9155 49.401 82.4372 49.9779 82.8379C50.6496 81.9011 50.6496 80.549 50.6496 79.1882Z" fill="#F59E73"/>
            <path d="M69.2029 89.9167C69.6664 90.9005 69.8852 91.9812 69.8406 93.0673C69.796 94.1535 69.4892 95.2134 68.9467 96.1552C68.7346 96.5269 69.3089 96.8625 69.5122 96.4917C70.1124 95.4471 70.4503 94.2725 70.4965 93.0691C70.5427 91.8648 70.2958 90.6686 69.7774 89.5809C69.6006 89.2009 69.0262 89.5809 69.2029 89.9167Z" fill="#66281B"/>
            <path d="M59.8157 65.4822C56.9084 66.1538 53.7624 67.1789 52.0039 69.7858C50.2454 72.3927 50.2365 76.0248 50.6872 79.0205C50.7579 79.4446 51.403 79.2679 51.3323 78.8526C50.8551 76.0159 50.9169 72.596 52.5782 70.1217C54.2395 67.6473 57.2795 66.746 59.9924 66.1186C60.4078 66.0213 60.2311 65.3851 59.8157 65.4822Z" fill="#66281B"/>
            <path d="M50.3771 90.4559C49.5464 91.8876 48.3181 93.4157 47.947 95.0594C47.4432 97.2867 48.2916 98.9745 46.7363 101.033C46.48 101.379 47.0544 101.705 47.3107 101.37C48.1956 100.224 48.6465 98.8031 48.5833 97.357C48.5833 94.7066 49.6613 93.0098 50.9427 90.7915C50.9872 90.7166 51.0001 90.6273 50.9786 90.5425C50.957 90.4577 50.9028 90.3856 50.8278 90.3404C50.7528 90.2962 50.6632 90.2836 50.5787 90.3053C50.4942 90.326 50.4216 90.381 50.3771 90.4559Z" fill="#66281B"/>
            <path d="M57.8433 74.0541C56.8229 74.6855 55.9099 75.4761 55.1392 76.3959C54.8741 76.7229 55.3425 77.2001 55.6075 76.8643C56.3377 75.9844 57.2063 75.2293 58.1792 74.6286C58.5415 74.3988 58.1792 73.8332 57.8433 74.0541Z" fill="#66281B"/>
            <path d="M66.0071 86.1255C65.9962 86.0358 65.9676 85.9492 65.9229 85.8707C65.8782 85.7923 65.8184 85.7234 65.7468 85.6683C65.6752 85.6132 65.5935 85.573 65.5061 85.5498C65.4188 85.5266 65.3277 85.5211 65.2383 85.5334H62.9141C62.3167 85.4835 61.7154 85.5556 61.1467 85.7455C60.9611 85.8338 60.8463 86.0195 60.9346 86.152C61.403 86.9209 63.2765 87.3892 64.4694 87.1241C65.7243 86.8148 66.0248 86.3111 66.0071 86.1255Z" fill="white"/>
            <path d="M104.022 -4.05232C106.965 1.60619 109.475 7.47886 111.533 13.5155C111.719 14.0458 112.576 13.816 112.417 13.2769C110.326 7.17096 107.786 1.2281 104.817 -4.50299C104.551 -5.0067 103.792 -4.55603 104.048 -4.05232H104.022Z" fill="#FFC04F"/>
            <path d="M165.278 -7.2071C162.539 -2.27608 160.047 2.77869 157.802 7.95716C157.572 8.4697 158.342 8.92038 158.563 8.399C160.807 3.23233 163.299 -1.81949 166.038 -6.75641C166.313 -7.26011 165.552 -7.70197 165.278 -7.2071Z" fill="#FFC04F"/>
            <path d="M72.7701 33.8753C76.9941 36.9152 81.5362 39.4779 85.8133 42.4383C86.2816 42.7653 86.697 41.9965 86.2552 41.6783C81.978 38.7091 77.4182 36.1553 73.2207 33.1154C72.7523 32.7795 72.3371 33.5483 72.7701 33.8753Z" fill="#FFC04F"/>
            <path d="M203.77 29.2012C199.791 32.5367 195.553 35.5508 191.097 38.215C190.995 38.2747 190.921 38.3726 190.891 38.4869C190.862 38.6012 190.879 38.7228 190.938 38.8247C190.998 38.9266 191.096 39.0007 191.21 39.0305C191.324 39.0603 191.446 39.0435 191.548 38.9837C196.063 36.2722 200.36 33.2112 204.397 29.8286C204.83 29.4663 204.203 28.8389 203.77 29.2012Z" fill="#FFC04F"/>
            <path d="M236.27 152.645C225.71 150.286 216.852 146.849 216.075 139.681C215.553 134.901 215.465 130.041 215.412 125.224C215.409 125.073 215.369 124.925 215.297 124.791C215.951 123.908 214.634 122.644 213.786 123.536C211.523 125.692 209.071 127.641 206.46 129.36C204.914 130.483 202.422 131.799 202.546 133.938C202.548 134.09 202.59 134.24 202.668 134.372C202.745 134.503 202.855 134.612 202.988 134.689C203.182 138.012 202.668 141.671 202.668 144.995C202.237 149.158 199.187 151.267 195.432 153.034C195.358 153.075 195.289 153.125 195.229 153.185C195.031 153.21 194.848 153.297 194.703 153.432C194.557 153.567 194.457 153.745 194.418 153.939C194.378 154.134 194.4 154.336 194.48 154.517C194.56 154.699 194.696 154.851 194.866 154.952C204.455 159.741 226.152 160.28 235.704 155.19C235.823 155.134 235.926 155.053 236.008 154.952C236.091 154.851 236.15 154.733 236.182 154.607C237.075 154.501 237.366 152.893 236.27 152.645Z" fill="#F59E73"/>
            <path d="M211.429 134.21C209.722 135.583 203.983 138.08 202.813 137.564C202.995 138.714 202.812 143.898 202.813 145.09C204.884 143.083 209.687 138.495 211.429 134.21Z" fill="#EE844F"/>
            <path d="M191.434 214.57C190.493 212.547 189.903 209.728 189.463 207.626C189.302 206.854 189.161 206.179 189.03 205.675C187.916 201.451 186.608 187.48 186.219 183.123C185.433 174.41 186.52 165.573 190.249 157.62C190.142 157.47 190.086 157.291 190.086 157.108C190.086 156.924 190.142 156.744 190.249 156.595C190.786 155.855 191.19 155.026 191.442 154.147C191.677 153.923 191.955 153.75 192.259 153.637C192.378 153.593 193.954 152.477 195.845 151.137C198.773 149.064 202.453 146.456 202.65 146.466C203.206 150.632 213.694 151.141 220.202 146.466C220.261 146.456 222.726 148.212 224.814 149.7C226.337 150.784 227.658 151.726 227.701 151.736C227.752 151.747 227.544 152.777 227.339 153.787C227.145 154.749 226.954 155.692 226.994 155.722C227.077 155.783 227.147 155.861 227.198 155.95C227.25 156.039 227.282 156.139 227.294 156.242C227.425 156.197 227.564 156.186 227.701 156.205C227.837 156.225 227.968 156.277 228.08 156.356C233.657 160.15 232.703 166.732 231.848 172.622C231.793 173.004 231.738 173.382 231.685 173.756L230.45 182.31C220.219 195.909 206.857 207.019 191.434 214.57Z" fill="white"/>
            <path d="M158.988 98.9165C159.571 96.4944 158.572 93.5345 158.104 91.1575C158.078 90.959 157.98 90.7768 157.828 90.6469C157.676 90.5161 157.482 90.4466 157.282 90.4502C157.237 89.8758 157.133 89.3073 156.973 88.7536C156.832 88.3206 156.575 87.649 156.027 87.6313C155.739 87.6428 155.463 87.7552 155.248 87.949C155.033 88.1427 154.893 88.4055 154.852 88.6918C154.835 88.8199 154.799 88.9448 154.746 89.0629C154.525 89.5047 154.092 89.1512 153.862 88.9214C153.632 88.6917 153.271 88.3382 152.89 88.462C152.613 88.5768 152.362 88.7486 152.156 88.9663C151.948 89.184 151.789 89.4427 151.688 89.7257C151.096 91.2017 150.248 99.1456 148.985 99.2963C147.27 99.4993 147.668 92.6685 145.75 93.5788C144.203 94.3212 144.327 96.7244 144.168 98.138C143.938 100.047 143.777 101.965 143.682 103.892C143.629 104.881 143.585 105.88 143.558 106.878C143.444 111.694 148.737 125.382 149.647 125.25C149.823 125.29 150.005 125.288 150.179 125.242C150.353 125.196 150.514 125.107 150.645 124.986C152.036 124.535 153.317 123.798 154.404 122.82C155.492 121.843 156.361 120.647 156.956 119.312C157.086 119.296 157.211 119.252 157.322 119.182C157.433 119.112 157.527 119.018 157.597 118.907C157.667 118.796 157.713 118.672 157.728 118.541C157.744 118.411 157.731 118.278 157.689 118.154C156.681 115.504 154.039 108.84 153.942 108.222C153.918 107.59 154.105 106.968 154.472 106.454C154.64 106.118 158.404 101.302 158.988 98.9165Z" fill="#EB8B65"/>
            <path d="M214.779 128.689C214.046 129.175 213.418 130.978 212.959 131.746C212.328 132.823 211.636 133.862 210.882 134.857C209.539 136.572 207.348 138.798 204.997 138.657C202.275 138.481 196.965 139.196 195.471 136.509C195.108 135.873 195.215 133.929 195.471 131.958C195.541 131.296 195.648 130.633 195.745 130.005C195.797 129.723 195.833 129.467 195.878 129.22C195.899 129.111 195.879 129 195.822 128.907C195.765 128.813 195.674 128.745 195.568 128.715C194.684 128.459 193.73 128.203 193.58 127.293C193.429 126.382 193.977 125.949 194.552 125.525C195.126 125.101 195.922 124.42 196.619 123.882C197.017 123.572 197.3 120.559 197.503 119.905C197.805 118.659 198.413 117.508 199.27 116.556C201.657 114.064 205.854 113.357 209.097 112.968C209.148 112.963 209.197 112.963 209.248 112.968C209.332 112.901 209.428 112.853 209.531 112.824C209.634 112.795 209.742 112.787 209.849 112.8C214.002 113.278 217.802 115.964 218.951 120.241C219.976 124.235 217.652 126.745 214.779 128.689Z" fill="#F59E73"/>
            <path d="M189.561 146.645C179.664 145.424 173.666 142.623 165.698 139.852C160.042 133.092 162.626 123.785 159.41 116.052C158.27 113.33 154.178 116.724 152.932 117.705C150.96 119.179 149.121 120.822 147.435 122.618C146.516 123.526 145.768 124.591 145.226 125.764C144.572 127.531 145.571 130.103 145.978 131.95C146.384 133.797 146.861 135.741 147.435 137.614C148.988 142.925 148.182 151.062 150.466 156.102C150.899 157.064 151.35 158.028 151.809 158.991C157.857 167.209 173.382 173.257 182.677 174.5C183.862 174.5 188.502 161.967 188.502 161.967C188.502 161.967 189.677 146.645 189.561 146.645Z" fill="#ED5500"/>
            <path d="M244.747 156.708C238.694 172.183 229.182 185.923 217.162 196.98C217.208 193.953 217.299 190.981 217.384 188.233C217.499 184.492 217.601 181.164 217.559 178.669C217.409 169.479 217.493 163.613 219.712 154.335C220.175 152.399 220.734 150.567 221.186 149.078C221.37 148.479 221.535 147.935 221.671 147.462C221.782 147.496 221.895 147.53 222.009 147.564C227.502 149.211 235.948 151.744 240.942 154.341C242.274 155.025 243.612 155.753 244.747 156.708Z" fill="#ED5500"/>
            <path d="M172.42 221.743C172.619 219.99 172.823 218.212 173.027 216.425C174.912 199.961 176.886 182.724 176.347 176.23C175.891 170.366 176.711 167.984 177.435 165.882C177.818 164.77 178.174 163.735 178.3 162.303C178.618 159.166 181.574 148.46 183.421 145.721C188.708 147.06 202.354 146.374 202.354 146.374C202.354 146.374 197.909 169.488 196.963 179.332C196.053 188.823 195.347 198.34 194.693 207.857C194.582 209.533 194.457 211.29 194.323 213.103C187.428 216.739 180.094 219.653 172.42 221.743Z" fill="#ED5500"/>
            <path fill-rule="evenodd" clip-rule="evenodd" d="M175.818 173.433C175.863 173.063 176.2 172.798 176.571 172.843L179.513 173.2C179.883 173.245 180.148 173.582 180.103 173.953C180.057 174.324 179.72 174.588 179.349 174.543L176.408 174.187C176.037 174.142 175.772 173.804 175.818 173.433Z" fill="#B74709"/>
            <path d="M210.664 124.586C210.664 124.586 213.829 122.308 215.191 124.445C216.551 126.583 214.471 130.051 213.248 130.831C212.024 131.609 214.96 137.179 215.653 137.593C216.346 138.007 221.917 139.715 223.053 138.132C224.19 136.549 224.189 129.303 225.856 126.527C227.522 123.751 227.38 120.834 224.325 120.421C224.325 120.421 223.657 114.941 219.328 110.835C214.999 106.728 213.914 110.418 213.914 110.418C213.914 110.418 210.188 106.106 205.937 107.523C201.692 108.94 202.44 111.468 202.44 111.468C202.44 111.468 197.256 111.468 198.998 115.388C200.848 119.551 208.251 116.312 208.86 124.445C208.997 127.361 206.326 128.775 204.44 129.029C201.079 129.481 196.013 128.594 195.902 129.094C195.736 129.842 193.724 138.167 196.772 139.423C198.661 140.203 207.118 141.63 211.356 134.486C212.642 132.318 211.802 132.194 211.356 129.474C210.909 126.754 210.664 124.586 210.664 124.586Z" fill="#7A4239"/>
            <path d="M214.487 123.943C212.631 122.811 210.669 124.932 210.439 126.69L210.386 127.105C210.334 127.468 210.289 127.822 210.253 128.184C210.163 128.672 210.186 129.175 210.321 129.653C210.455 130.131 210.699 130.572 211.032 130.941C212.525 132.373 214.019 129.589 214.522 128.625C215.229 127.291 216.227 125.003 214.487 123.943Z" fill="#F59E73"/>
            <path d="M200.762 122.452C200.648 122.134 200.356 121.885 199.729 122.021C198.969 122.174 198.845 122.922 198.925 123.352C199.155 124.27 200.515 124.378 200.771 123.352C200.853 123.054 200.851 122.749 200.762 122.452Z" fill="#1A0504"/>
            <path d="M202.691 119.135C201.604 118.589 198.409 118.649 198.369 119.383C198.365 119.465 198.354 119.459 198.369 119.594C198.4 119.743 198.434 119.769 198.531 119.886C198.628 120.003 198.752 120.095 198.892 120.153C199.425 120.291 199.89 120.229 200.526 120.313C201.301 120.415 201.825 120.595 202.497 120.658C203.169 120.719 203.917 120.313 203.768 119.886C203.698 119.686 203.494 119.592 203.313 119.485C203.045 119.326 202.921 119.273 202.691 119.135Z" fill="#7A4239"/>
            <path d="M199.008 130.937C199.008 130.937 196.401 131.126 195.482 131.028C195.385 131.656 195.289 132.275 195.219 132.937C195.909 132.923 196.717 132.83 197.359 132.575C197.824 132.403 199.008 130.937 199.008 130.937Z" fill="white"/>
            <path d="M195.27 127.859C195.584 127.942 195.881 128.077 196.153 128.255C196.507 128.486 196.842 127.92 196.488 127.682C196.162 127.473 195.804 127.318 195.429 127.223C195.344 127.199 195.254 127.21 195.178 127.253C195.101 127.296 195.045 127.368 195.022 127.452C194.998 127.536 195.01 127.627 195.052 127.702C195.096 127.779 195.168 127.835 195.252 127.859H195.27Z" fill="#C45547"/>
            <path d="M91.8124 136.19C90.3122 136.517 86.441 137.199 85.0596 136.317C84.2236 135.772 84.4871 124.221 84.7506 120.104C84.7806 119.877 84.7233 119.646 84.5901 119.459C84.4569 119.271 84.2578 119.142 84.0328 119.095C82.7421 116.187 80.4165 113.861 77.5076 112.57C74.9629 111.398 71.555 109.626 69.2285 112.035C69.1037 112.164 69.0131 112.324 68.9649 112.497C68.5832 112.725 69.183 113.007 69.292 113.552C70.5771 119.563 71.4606 125.654 71.9366 131.783C72.3547 137.634 69.6375 142.07 64.9572 145.323C63.7757 146.15 66.0205 147.549 66.893 146.441L67.1382 146.141C67.2396 146.256 67.364 146.349 67.5033 146.413C67.6426 146.477 67.7937 146.511 67.9471 146.514C73.3453 146.695 78.4436 145.532 83.6055 144.087C87.3952 143.024 90.2851 141.725 92.3572 138.334H92.4114C93.8746 138.017 93.2296 135.89 91.8124 136.19Z" fill="#F59E73"/>
            <path d="M76.4473 127.649C78.7903 128.02 83.4586 128.266 84.6303 127.749C84.4477 128.9 84.5013 131.09 84.501 132.282C81.0628 130.997 77.1167 129.182 76.4473 127.649Z" fill="#ED783E"/>
            <path d="M90.1589 116.541C90.371 116.348 90.5957 116.168 90.8311 116.005C91.0837 115.838 91.2812 115.601 91.4003 115.324C91.5203 115.046 91.5555 114.739 91.5041 114.442C91.3588 113.897 90.8401 113.86 90.3954 113.678C89.8053 113.434 89.2518 113.11 88.7502 112.715C88.4957 112.515 88.205 112.369 88.0959 112.07C86.4328 107.353 83.5519 102.982 77.6084 102.509C70.5471 101.91 64.8854 106.036 63.9765 112.397C63.5869 114.667 64.1024 117 65.4125 118.894C66.1452 119.829 67.1016 120.564 68.1933 121.031C68.8205 121.285 72.0648 121.485 72.2466 121.712C73.0008 122.621 73.7552 123.62 74.5004 124.566C75.5909 125.956 76.5906 127.883 78.5536 128.292H78.6536C78.7547 128.393 78.8781 128.468 79.0139 128.513C79.1497 128.557 79.294 128.569 79.4351 128.546C82.2251 128.392 87.9323 128.292 89.9862 125.874C91.1225 124.548 90.7129 123.239 90.4315 121.276C90.3313 120.622 90.2043 119.949 90.0589 119.322C89.9953 119.05 89.9407 118.795 89.8771 118.55C89.7681 118.064 89.7681 117.562 89.8771 117.078C89.9194 116.875 90.017 116.691 90.1589 116.541Z" fill="#F59E73"/>
            <path d="M87.7478 105.163C87.4389 104.145 86.0847 104.09 86.3482 102.981C86.5148 102.431 86.5662 101.853 86.4993 101.282C86.4326 100.711 86.249 100.16 85.96 99.6625C85.671 99.1655 85.2827 98.7334 84.8195 98.3924C84.3564 98.0523 83.828 97.8105 83.2674 97.6833C81.1045 97.1475 79.0689 98.1921 77.1059 98.9372C74.3795 99.9647 71.3169 99.9187 68.6905 101.1C65.3552 102.609 60.6113 105.372 61.5927 109.479C61.6323 109.588 61.6627 109.701 61.6836 109.816C61.0086 110.515 60.4865 111.347 60.1502 112.26C59.8138 113.172 59.6706 114.143 59.7298 115.114C59.957 118.185 62.3107 119.876 65.128 120.821C65.2554 120.86 65.371 120.931 65.4646 121.026C65.5581 121.122 65.6267 121.238 65.6641 121.366C66.0602 123.244 66.955 124.98 68.2542 126.392C69.4448 127.565 71.5168 128.837 72.4983 126.737C73.8069 123.938 73.4071 119.976 73.4071 116.932C73.4064 116.809 73.4338 116.688 73.4874 116.577C73.5409 116.467 73.6192 116.37 73.716 116.296C75.2246 114.951 75.6245 112.015 76.8514 110.188C77.7602 108.888 79.2234 108.543 80.7047 108.371C81.8825 108.206 83.0419 107.929 84.1671 107.543C84.7289 107.403 85.321 107.444 85.8576 107.661C87.148 107.971 88.0749 106.235 87.7478 105.163Z" fill="#471B17"/>
            <path d="M75.2446 117.994C75.0719 117.767 74.8993 117.548 74.7629 117.331C74.0268 116.203 72.7727 114.868 71.1914 115.513C69.1285 116.377 70.2825 119.04 71.355 120.193C72.4273 121.347 75.2628 122.92 76.1807 120.829C76.5987 119.812 75.908 118.857 75.2446 117.994Z" fill="#F59E73"/>
            <path d="M86.4716 112.579C86.3784 112.255 86.1241 111.971 85.7629 111.788C85.636 111.747 85.499 111.726 85.3612 111.729C85.2233 111.731 85.0877 111.757 84.9637 111.804C84.8397 111.85 84.73 111.916 84.6422 111.998C84.5543 112.08 84.4904 112.175 84.4546 112.278C84.3831 112.62 84.4665 112.971 84.6909 113.271C84.8998 113.601 85.4995 114.202 86.081 114.034C86.6624 113.866 86.7077 113.167 86.4716 112.579Z" fill="#1A0504"/>
            <path d="M90.4455 121.276C89.8689 121.419 89.2617 121.389 88.6336 121.051C88.1002 120.764 87.5586 119.933 87.5586 119.933C87.5586 119.933 89.2004 119.704 90.0726 119.323C90.2362 119.95 90.3454 120.622 90.4455 121.276Z" fill="white"/>
            <path d="M84.0302 108.908C83.0506 109.148 82.1879 109.728 81.5946 110.544C81.1401 111.171 81.5072 111.207 81.5072 111.207C81.5072 111.207 82.0278 111.371 82.2995 111.346C82.5713 111.32 82.8311 111.222 83.0522 111.062C83.3044 110.872 83.5684 110.699 83.8428 110.544C84.5335 110.198 86.1329 110.326 86.242 109.317C86.3874 107.972 84.9935 108.69 84.0302 108.908Z" fill="#471B17"/>
            <path d="M71.9805 117.486C72.879 117.811 73.6602 118.396 74.2245 119.167C74.488 119.512 75.0786 119.167 74.8151 118.821C74.1516 117.906 73.2269 117.213 72.1621 116.832C71.7533 116.678 71.5716 117.332 71.9805 117.486Z" fill="#C45547"/>
            <path d="M102.122 217.186C77.6659 206.948 57.7658 187.991 46.3086 164.201C47.6026 160.611 49.1568 156.974 50.6038 154.691C53.0121 150.91 56.6655 148.175 60.5187 145.931C61.878 145.136 63.2467 144.364 64.6156 143.592C65.5804 143.047 66.5454 142.503 67.5073 141.95C67.6514 141.867 67.8967 141.752 68.1892 141.615C69.1147 141.181 70.5133 140.526 70.679 139.96C70.6918 139.905 70.7154 139.853 70.7484 139.807C70.7814 139.761 70.8234 139.723 70.8716 139.693C70.9197 139.663 70.9733 139.643 71.0293 139.634C71.0851 139.626 71.1421 139.628 71.197 139.641C71.2495 139.615 71.3066 139.6 71.3652 139.595C71.4238 139.591 71.4827 139.598 71.5385 139.617C71.5942 139.635 71.6458 139.665 71.6901 139.704C71.7345 139.742 71.7707 139.789 71.7968 139.842C75.1139 141.023 78.2856 141.559 81.4754 139.533C82.7607 138.705 83.3203 137.769 83.8432 136.894C84.3705 136.011 84.8605 135.191 86.0194 134.607C91.7168 132.017 97.8024 130.386 104.031 129.781C108.539 129.473 115.301 142.186 115.228 142.841C114.948 145.561 114.408 146.665 113.784 147.94C113.295 148.94 112.755 150.046 112.247 152.119C111.974 153.237 111.729 154.383 111.502 155.546C110.81 159.334 110.312 163.157 110.011 166.997C109.822 169.163 109.947 171.404 110.072 173.651C110.15 175.071 110.23 176.494 110.23 177.901C110.345 185.698 109.914 193.494 108.939 201.231C108.779 202.421 108.919 204.643 109.063 206.922C109.278 210.332 109.502 213.872 108.739 214.281C106.901 215.27 104.603 216.245 102.122 217.186Z" fill="#C34917"/>
            <path d="M89.7285 115.232C89.4121 115.431 89.1086 115.649 88.8199 115.886C88.4838 116.168 88.9744 116.65 89.3014 116.368C89.5361 116.168 89.7851 115.986 90.0465 115.822C90.41 115.596 90.0465 115.005 89.7012 115.232H89.7285Z" fill="#C45547"/>
            <path d="M88.588 136.717C87.6746 135.707 86.6606 134.794 85.5616 133.991C85.3519 133.873 85.1039 133.843 84.8722 133.908C84.6406 133.973 84.444 134.126 84.3257 134.336C83.4896 135.845 82.0901 138.452 80.8268 139.244C78.4822 140.707 73.3202 137.426 71.6208 135.927C71.3573 135.699 69.4942 138.361 68.5582 141.579C68.1037 143.124 77.9551 149.922 78.4732 148.595C79.2889 146.437 79.8976 144.206 80.2907 141.934C80.2982 141.894 80.3164 141.857 80.3434 141.827C80.3704 141.798 80.4052 141.776 80.4437 141.765C80.4822 141.753 80.5231 141.753 80.5618 141.764C80.6006 141.774 80.6356 141.795 80.6632 141.825L82.9352 144.442C83.6204 145.401 84.4065 146.285 85.28 147.078C85.4389 147.18 85.6286 147.226 85.8172 147.207C86.0058 147.187 86.182 147.102 86.316 146.968C89.5604 143.369 88.8152 136.935 88.588 136.717Z" fill="white"/>
            <path d="M62.2697 188.399C62.0221 188.115 61.7759 187.829 61.5312 187.543C62.3604 183.939 63.1272 180.318 63.8317 176.68H63.8044C63.9498 176.107 64.8222 176.344 64.7132 176.917C63.9694 180.765 63.1549 184.593 62.2697 188.399Z" fill="#9A3A12"/>
            <path fill-rule="evenodd" clip-rule="evenodd" d="M64.4367 176.063C64.7785 176.154 65.1178 176.487 65.0248 176.975L65.0247 176.976C64.2802 180.828 63.4649 184.66 62.5788 188.47L62.439 189.071L62.0332 188.606C61.7849 188.322 61.538 188.035 61.2927 187.748L61.1895 187.627L61.2251 187.472C62.0248 183.995 62.7665 180.503 63.4502 176.996H63.4L63.4999 176.601C63.5579 176.373 63.6979 176.204 63.8853 176.111C64.0647 176.023 64.2639 176.017 64.4367 176.063ZM64.154 176.684C64.1576 176.681 64.161 176.679 64.1639 176.678C64.1855 176.667 64.225 176.66 64.2747 176.674C64.3243 176.686 64.3631 176.714 64.3845 176.744C64.4019 176.767 64.4152 176.801 64.4046 176.857C63.7009 180.498 62.9339 184.12 62.1035 187.723C62.0276 187.635 61.9518 187.547 61.8761 187.458C62.6924 183.901 63.4481 180.328 64.1432 176.739L64.154 176.684Z" fill="#9A3A12"/>
            <path d="M129.612 108.063C128.985 108.063 126.96 111.035 126.924 111.517C124.379 117.216 122.778 119.886 119.216 125.003C117.216 127.874 112.263 127.947 111.1 128.129C109.755 128.338 108.374 128.547 107.075 128.774C104.348 129.237 99.5131 130.228 96.8411 130.946C96.6048 131.01 101.049 147.305 102.893 154.693C102.917 154.825 102.969 154.952 103.047 155.062C103.124 155.172 103.226 155.263 103.343 155.329C103.461 155.396 103.592 155.434 103.726 155.444C103.86 155.453 103.995 155.433 104.12 155.384C104.272 155.487 104.45 155.543 104.634 155.543C104.818 155.543 104.996 155.487 105.148 155.384L106.502 154.474C106.502 154.474 112.163 152.448 112.172 152.42C113.381 149.694 116.399 148.304 121.26 145.241C124.896 142.942 129.076 140.852 131.975 137.571C130.294 139.471 134.702 135.88 138.582 126.457C140.109 122.821 143.008 116.796 143.126 112.77C143.244 108.744 133.729 108.181 129.612 108.063Z" fill="#C34917"/>
            <path d="M147.216 88.8056C146.891 89.8889 146.62 92.4019 145.764 93.0523C143.597 94.6986 143.782 90.8854 143.782 89.5964C143.813 86.6691 144.367 83.771 145.418 81.0387C145.883 79.8904 148.938 76.5431 146.978 75.7848C145.017 75.0266 143.815 77.3123 142.894 78.7204C142.385 79.5221 141.919 80.3453 141.486 81.1794C141.961 78.8895 142.688 76.659 143.652 74.5283C144.291 73.1201 142.407 72.9359 141.561 73.445C141.189 73.7253 140.897 74.099 140.716 74.5283C140.346 74.5851 139.993 74.7184 139.678 74.9199C139.362 75.1213 139.092 75.3864 138.886 75.6981C138.685 75.9911 138.501 76.2949 138.334 76.6081C138.049 76.5712 137.759 76.5956 137.484 76.6797C137.21 76.7637 136.956 76.9055 136.741 77.0956C136.113 77.8162 135.585 78.6177 135.17 79.4788C133.729 81.8836 131.921 84.4834 131.714 87.4082C131.657 89.7231 131.924 92.0347 132.505 94.2764C133.018 95.8614 133.181 97.5393 132.982 99.1938C132.812 99.9263 131.806 102.372 130.557 105.23C133.942 106.499 139.041 109.364 139.81 110.64C140.857 107.223 141.696 104.276 141.94 103.647C146.804 99.5086 149.675 95.4672 150.26 87.8848C150.336 86.2707 147.616 87.224 147.216 88.8056Z" fill="#F59E73"/>
            <path d="M139.906 76.1316C138.721 78.7408 138.111 81.5745 138.119 84.4402C138.135 84.5365 138.184 84.6242 138.259 84.6875C138.333 84.7506 138.428 84.7853 138.525 84.7853C138.623 84.7853 138.717 84.7506 138.792 84.6875C138.866 84.6242 138.916 84.5365 138.931 84.4402C138.923 81.7196 139.492 79.0281 140.6 76.5433C140.817 76.0667 140.112 75.655 139.906 76.1316Z" fill="#C45547"/>
            <path d="M137.31 77.5401C136.508 78.7917 135.881 80.1476 135.447 81.5698C134.843 82.8457 134.682 84.287 134.992 85.6644C135.155 86.1627 135.945 85.946 135.782 85.4478C135.057 83.2812 136.779 79.7715 138.014 77.9517C138.307 77.5184 137.602 77.1067 137.31 77.5401Z" fill="#C45547"/>
            <path d="M141.339 81.418C140.887 82.4626 140.676 83.5956 140.721 84.7327C140.721 85.2527 141.555 85.2527 141.534 84.7327C141.489 83.6685 141.677 82.6073 142.086 81.6238C142.291 81.1471 141.501 80.9306 141.306 81.4071L141.339 81.418Z" fill="#C45547"/>
            <path d="M144.403 111.552C141.039 107.897 136.824 105.128 132.134 103.492C132.021 103.449 131.901 103.431 131.78 103.436C131.659 103.442 131.541 103.471 131.432 103.522C131.323 103.575 131.225 103.647 131.144 103.737C131.064 103.826 131.001 103.932 130.962 104.045C130.836 104.122 130.725 104.22 130.635 104.337C128.927 106.56 127.654 109.085 126.881 111.779C126.835 111.939 126.834 112.108 126.877 112.268C126.92 112.429 127.007 112.574 127.127 112.688C127.059 112.889 127.071 113.107 127.161 113.298C127.25 113.49 127.411 113.639 127.609 113.715C131.831 115.711 135.768 118.263 139.313 121.304C139.461 121.422 139.636 121.499 139.823 121.531C140.178 122.231 141.167 122.222 141.767 121.377C144.466 117.578 144.876 112.062 144.403 111.552Z" fill="#C34917"/>
            <path d="M64.9582 109.044C64.5547 109.684 64.4046 110.451 64.5374 111.197C64.6703 111.941 65.0762 112.609 65.6761 113.07C66.2386 113.557 66.9144 113.896 67.6415 114.054C68.3686 114.213 69.1239 114.187 69.8384 113.979C69.9589 113.946 70.0615 113.868 70.1238 113.759C70.1859 113.651 70.2026 113.522 70.1701 113.402C70.1376 113.281 70.0584 113.178 69.9502 113.116C69.842 113.054 69.7135 113.038 69.593 113.07C69.1032 113.217 68.5869 113.255 68.081 113.179C67.5752 113.104 67.0922 112.918 66.6667 112.634C65.6216 111.943 64.9218 110.571 65.7579 109.453C66.1032 108.981 65.3126 108.544 64.9671 108.99L64.9582 109.044Z" fill="#2E0C12"/>
            <path d="M72.9731 105.109C76.3538 103.292 80.0071 103.755 83.5605 104.8C83.6202 104.815 83.6823 104.819 83.7434 104.811C83.8045 104.802 83.8633 104.782 83.9164 104.75C83.9696 104.72 84.0161 104.678 84.0533 104.629C84.0904 104.58 84.1176 104.523 84.1331 104.464C84.1486 104.404 84.1522 104.342 84.1437 104.281C84.1353 104.22 84.1147 104.161 84.0835 104.108C84.0523 104.055 84.0109 104.008 83.9617 103.971C83.9125 103.934 83.8565 103.907 83.7969 103.892C79.9981 102.783 76.1175 102.382 72.5096 104.3C71.9916 104.573 72.4551 105.364 72.9731 105.081V105.109Z" fill="#2E0C12"/>
            <path d="M69.0482 119.078C68.7119 119.895 67.0851 119.987 66.3763 119.932C66.2557 119.932 66.1402 119.98 66.055 120.065C65.9698 120.151 65.9219 120.266 65.9219 120.386C65.9219 120.507 65.9698 120.623 66.055 120.708C66.1402 120.793 66.2557 120.841 66.3763 120.841C67.6122 120.841 69.3934 120.623 69.9205 119.324C70.1387 118.778 69.2663 118.541 69.0118 119.078H69.0482Z" fill="#2E0C12"/>
            <path d="M144.923 117.262C144.876 117.161 144.798 117.079 144.701 117.026C144.604 116.973 144.492 116.954 144.383 116.969C143.798 117.017 143.253 117.29 142.863 117.73C143.146 116.775 143.438 115.812 143.747 114.849C144.057 113.885 144.869 112.197 144.153 111.261C144.098 111.192 144.026 111.14 143.943 111.109C143.861 111.078 143.772 111.07 143.685 111.084C143.438 111.111 143.2 111.194 142.989 111.326C142.777 111.457 142.599 111.634 142.465 111.845C142.825 110.919 143.022 109.938 143.049 108.945C143.014 108.832 142.953 108.729 142.872 108.643C142.791 108.556 142.691 108.49 142.581 108.448C142.47 108.407 142.351 108.39 142.233 108.402C142.114 108.413 142.001 108.451 141.9 108.513C141.169 109.349 140.573 110.295 140.133 111.314C139.84 111.883 139.592 112.474 139.39 113.081C139.276 113.382 139.169 113.673 139.045 113.965C138.922 114.257 138.824 114.681 138.621 114.778C138.179 114.38 138.754 113.152 138.904 112.737C139.001 112.463 139.161 112.03 138.966 111.764C138.861 111.64 138.714 111.555 138.554 111.524C138.393 111.494 138.226 111.52 138.083 111.597C136.456 112.401 135.555 114.822 134.981 116.969C134.927 116.969 134.883 117.032 134.822 117.049C133.39 117.518 133.055 119.868 132.834 121.106C132.52 122.832 132.52 124.601 132.834 126.328C133.169 128.095 133.717 129.731 133.293 131.515C133.271 131.596 133.271 131.682 133.293 131.763C132.85 133.788 132.201 135.763 131.358 137.657C131.358 137.657 131.358 137.71 131.358 137.728C131.207 138.028 131.314 138.452 131.738 138.443C133.313 138.427 134.84 139.001 136.014 140.052C136.587 140.653 137.199 141.217 137.844 141.739C137.921 141.785 138.007 141.809 138.096 141.809C138.184 141.809 138.271 141.785 138.347 141.739C139.311 141.218 139.506 139.407 139.797 138.47C140.309 136.844 141.299 134.582 141.255 132.823C142.041 130.897 142.703 128.922 143.235 126.912C143.533 126.012 143.653 125.064 143.588 124.119C143.844 122.908 144.162 121.706 144.525 120.505C144.851 119.47 145.302 118.322 144.923 117.262Z" fill="#F59E73"/>
            <path d="M135.533 123.703C136.618 125.242 137.054 127.147 136.744 129.005C136.673 129.42 137.309 129.606 137.381 129.182C137.561 128.17 137.541 127.133 137.322 126.129C137.102 125.125 136.686 124.174 136.099 123.332C135.861 122.987 135.286 123.332 135.533 123.668V123.703Z" fill="#C45547"/>
            <path d="M140.927 137.401C139.344 135.5 136.013 132.425 133.326 132.434C131.612 132.434 130.605 136.808 130.057 138.081C128.148 139.413 126.452 141.028 125.029 142.87C122.775 146.069 123.402 149.798 121.609 153.104C119.815 156.409 115.6 158.405 112.896 160.959C110.61 163.121 108.59 165.548 106.878 168.189C103.616 173.199 102.822 178.104 106.321 183.211C108.972 187.161 113.868 191.88 118.851 192.552C118.88 192.709 118.946 192.856 119.044 192.981C119.143 193.107 119.27 193.207 119.415 193.272C119.56 193.337 119.719 193.366 119.879 193.355C120.038 193.346 120.192 193.298 120.327 193.215C128.086 188.443 126.938 179.243 130.313 171.865C132.469 167.137 136.862 163.584 137.763 158.264C138.311 155.012 138.514 151.698 138.841 148.411C139.018 146.723 138.779 144.204 139.38 142.605L140.785 138.885C140.993 138.702 141.124 138.446 141.15 138.171C141.177 137.895 141.096 137.619 140.927 137.401Z" fill="#F59002"/>
            <path d="M139.749 133.15L150.636 133.64L153.964 79.7221L137.852 78.999L139.749 133.15Z" fill="#FFC88B"/>
            <path d="M138.589 88.6709L153.737 89.3528C154.577 89.3883 155.337 88.895 155.639 88.115L158.562 80.5542C159.063 79.2525 158.112 77.8028 156.712 77.7422L135.923 76.8103C134.522 76.7465 133.534 78.1067 134.003 79.4531L136.723 87.2673C137 88.0696 137.746 88.632 138.589 88.6709Z" fill="#D6A875"/>
            <path d="M138.201 79.1581L155.927 79.9532C165.506 80.3818 173.728 73.679 175.247 64.1993L183.435 13.1394C184.052 9.30325 181.122 5.70437 177.246 5.52885L118.883 2.91226C115.005 2.7386 111.986 6.07034 112.501 9.95547L119.323 61.6895C120.588 71.2903 128.626 78.7277 138.201 79.1581Z" fill="#FFC88B"/>
            <path opacity="0.3" d="M114.678 28.6519L143.618 79.4536L138.448 79.2166L116.181 40.1358L114.678 28.6519Z" fill="white"/>
            <path d="M118.68 55.0363L120.86 52.1747C101.333 36.702 93.4208 19.6719 97.2918 12.7688C99.308 9.17421 104.834 8.98354 112.463 12.2297L113.78 8.8474C100.271 3.09797 95.5254 8.34657 94.1091 10.8713C89.3938 19.2796 97.2945 38.0987 118.68 55.0363Z" fill="#FFC88B"/>
            <path d="M176.255 56.5675C198.187 41.5346 206.577 23.3279 202.017 14.4169C200.646 11.7411 195.982 6.00476 182.243 10.5161L183.491 14.0428C191.251 11.4942 196.817 12.2137 198.766 16.0227C202.513 23.3407 194.156 39.7445 174.121 53.4776L176.255 56.5675Z" fill="#FFC88B"/>
            <path d="M160.49 42.4886L130.792 41.0897L123.729 19.2251L168.029 21.3139L160.49 42.4886ZM131.532 40.0979L159.775 41.4306L166.597 22.277L125.144 20.3249L131.532 40.0979Z" fill="#D6A875"/>
            <path d="M118.014 136.191L171.398 138.587C172.89 138.651 173.91 137.149 173.324 135.748L168.738 124.826C167.951 122.951 166.155 121.683 164.156 121.594L125.697 119.87C123.698 119.781 121.87 120.884 121.035 122.688L116.165 133.189C115.543 134.53 116.521 136.127 118.014 136.191Z" fill="#D6A875"/>
            <path d="M123.593 161.111L123.717 160.925C124.07 160.457 123.363 160.041 122.956 160.35C118.909 159.352 114.703 159.361 110.585 159.246C110.569 159.127 110.51 159.018 110.42 158.94C110.33 158.86 110.214 158.817 110.094 158.817C109.974 158.817 109.859 158.86 109.768 158.94C109.678 159.018 109.62 159.127 109.604 159.246V159.3C109.527 159.345 109.464 159.409 109.418 159.486C109.374 159.564 109.351 159.651 109.351 159.741C109.351 159.83 109.374 159.918 109.418 159.995C109.464 160.073 109.527 160.138 109.604 160.183C109.583 165.979 108.961 171.757 107.749 177.424C107.73 177.496 107.727 177.572 107.742 177.645C107.757 177.718 107.787 177.786 107.833 177.846C107.878 177.905 107.935 177.954 108.002 177.988C108.069 178.022 108.142 178.041 108.217 178.043C112.396 177.804 116.541 177.144 120.588 176.071C120.704 176.044 120.805 175.972 120.867 175.871C120.93 175.77 120.951 175.648 120.924 175.533C121.029 175.512 121.122 175.456 121.19 175.374C121.258 175.291 121.296 175.188 121.296 175.082C121.401 170.549 120.845 165.202 123.505 161.279C123.548 161.231 123.579 161.173 123.593 161.111Z" fill="#F59E73"/>
            <path d="M158.52 109.908C158.681 109.366 158.289 110.34 158.43 109.787C158.801 108.392 159.936 104.687 158.43 103.401C158.302 103.295 158.153 103.216 157.993 103.168C157.834 103.121 157.666 103.106 157.501 103.126C157.335 103.146 157.175 103.199 157.032 103.283C156.887 103.366 156.762 103.479 156.663 103.612C156.221 104.135 156.281 105.219 156.17 105.791C155.938 107.024 155.522 108.216 154.935 109.325C155.322 107.437 155.584 105.525 155.718 103.603C155.819 102.217 156.381 97.9391 154.524 97.166C151.712 96.0005 152.857 106.826 150.939 109.888C151.247 107.832 151.382 105.752 151.34 103.673C151.34 102.468 151.219 98.3207 149.513 97.8985C148.097 97.5476 148.057 99.525 147.996 100.389C147.806 103.221 147.927 106.092 147.485 108.904C147.203 110.681 146.209 117.168 143.468 114.758C142.243 113.664 141.761 111.364 140.646 110.149C140.114 109.577 137.052 108.141 137.313 110.149C137.654 112.82 139.542 115.01 140.536 117.48C141.42 119.658 142.645 123.063 143.95 124.337C144.301 124.667 144.529 125.106 144.593 125.583C144.984 129.73 145.205 133.887 145.225 138.055C145.221 138.137 145.239 138.218 145.278 138.291C145.317 138.363 145.376 138.424 145.446 138.466C145.587 138.677 145.878 138.818 146.852 138.537C148.171 138.15 149.588 138.258 150.832 138.842C152.076 139.427 153.065 140.447 153.61 141.709C153.951 142.513 154.242 142.713 154.503 142.713V142.834C154.511 142.978 154.576 143.113 154.684 143.209C154.791 143.305 154.932 143.355 155.076 143.347C155.219 143.338 155.355 143.273 155.45 143.166C155.547 143.059 155.596 142.918 155.588 142.774C155.448 139.541 155.31 136.31 155.176 133.084C155.066 130.554 155.096 128.063 154.855 125.543C154.84 125.342 154.84 125.141 154.855 124.94C155.094 123.736 155.5 122.569 156.06 121.476C156.501 120.291 156.964 119.106 157.446 117.941C158.048 116.476 160.508 112.237 160.056 110.521C159.735 109.266 158.912 108.934 158.52 109.908Z" fill="#EB8B65"/>
            <path d="M146.601 225.507C145.701 225.53 144.798 225.54 143.892 225.54C130.903 225.54 118.448 223.253 106.908 219.058C106.83 217.591 106.681 216.326 106.391 215.774C106.161 215.368 120.425 212.39 125.603 211.506C130.268 210.685 134.996 210.057 139.742 209.544C139.857 209.364 140.026 209.223 140.223 209.142C140.422 209.062 140.64 209.044 140.848 209.092C141.057 209.141 141.245 209.253 141.388 209.413C141.529 209.573 141.619 209.773 141.642 209.986C141.739 210.959 141.921 212.195 142.112 213.487C142.408 215.495 142.725 217.64 142.773 219.15C142.781 220.01 143.094 220.84 143.656 221.492C144.826 222.798 145.794 224.136 146.601 225.507Z" fill="#1C1F2A"/>
            <path d="M127.19 152.687C128.074 151.548 128.957 149.065 128.445 147.73C128.163 146.953 127.04 147.351 125.741 146.962C125.596 146.918 125.463 146.843 125.35 146.742C125.237 146.642 125.147 146.517 125.087 146.378C123.319 142.375 120.669 139.026 116.002 138.628C116.002 138.628 115.95 138.628 115.914 138.628H115.623C110.073 138.469 103.41 142.949 102.871 148.826C102.455 153.315 105.575 156.276 109.384 157.212C110.346 158.574 111.416 159.856 112.582 161.047C114.005 162.55 118.194 164.989 118.893 164.812C125.237 163.221 130.38 161.074 127.57 154.128C127.418 153.655 127.29 153.175 127.19 152.687Z" fill="#F59E73"/>
            <path d="M158.202 143.511C158.005 141.025 157.269 138.613 156.046 136.441C156.019 136.385 155.982 136.335 155.935 136.296C155.887 136.256 155.832 136.227 155.772 136.211C155.841 134.72 155.773 133.227 155.568 131.749C155.565 131.696 155.549 131.645 155.524 131.598C155.5 131.552 155.466 131.512 155.424 131.479C155.383 131.447 155.334 131.423 155.283 131.411C155.232 131.397 155.179 131.395 155.127 131.403C155.121 131.31 155.083 131.221 155.021 131.151C154.959 131.08 154.875 131.033 154.783 131.015C153.386 130.67 149.904 130.83 148.463 130.9C147.393 130.854 146.327 131.063 145.353 131.51C145.126 131.678 144.942 131.898 144.818 132.152C144.693 132.406 144.631 132.685 144.638 132.968C144.407 134.488 144.431 135.785 144.214 137.581C142.011 138.24 140.134 154.858 140.134 154.858C140.134 154.858 133.881 166.427 127.977 168.203C127.739 168.273 129.88 170.631 130.039 170.737V170.79C133.256 176.605 141.615 187.43 144.177 193.554C144.417 194.111 155.071 177.515 157.342 164.227C158.534 157.26 158.291 146.365 158.202 143.511Z" fill="#008B85"/>
            <path d="M145.49 181.708C144.607 177.033 143.837 171.015 140.109 167.816C138.606 166.526 136.927 166.553 135.044 166.791C131.916 167.234 128.819 167.88 125.774 168.727C125.674 168.694 125.566 168.694 125.466 168.727C121.662 169.68 117.765 170.211 113.845 170.308C110.663 170.308 107.35 169.16 104.195 169.893C97.1253 171.528 95.9498 179.552 96.4099 185.614C96.8781 191.8 98.5479 198.083 100.13 204.092C100.792 206.593 101.446 209.093 102.136 211.586C102.736 213.733 103.02 216.251 104.381 218.072C105.347 219.258 106.651 220.124 108.118 220.555C114.543 222.667 121.674 221.005 127.825 218.788C132.536 217.068 137.588 216.495 142.565 217.117C152.462 218.381 146.374 186.657 145.517 181.92L145.49 181.708Z" fill="#008B85"/>
            <path fill-rule="evenodd" clip-rule="evenodd" d="M142.255 179.15C142.598 179.001 142.997 179.157 143.147 179.5L147.199 188.777C147.348 189.12 147.192 189.519 146.85 189.668C146.507 189.817 146.108 189.661 145.959 189.319L141.906 180.041C141.757 179.699 141.914 179.3 142.255 179.15Z" fill="#017873"/>
            <path fill-rule="evenodd" clip-rule="evenodd" d="M140.053 154.796C140.276 154.498 140.7 154.436 141 154.66L141.82 155.274C142.119 155.497 142.181 155.921 141.957 156.22C141.733 156.519 141.309 156.581 141.01 156.357L140.19 155.744C139.89 155.52 139.829 155.096 140.053 154.796Z" fill="#017873"/>
            <path d="M123.913 170.589C123.825 169.059 124.276 166.338 122.19 166.108C119.486 165.807 119.014 166.314 116.283 166.403C116.225 166.394 116.165 166.394 116.106 166.403C114.339 165.944 112.872 165.996 112.253 168.17C111.793 169.961 111.485 171.788 111.334 173.631C111.229 174.665 111.334 175.629 112.218 176.283C114.225 177.635 118.651 175.867 120.648 175.399C122.973 174.807 122.526 173.885 123.136 171.578C123.255 171.573 123.372 171.541 123.478 171.487C123.584 171.432 123.678 171.355 123.752 171.262C123.825 171.168 123.878 171.059 123.906 170.942C123.934 170.827 123.937 170.706 123.913 170.589Z" fill="#008B85"/>
            <path d="M125.25 185.72C122.784 182.654 119.515 180.126 118.782 176.132C118.533 174.612 118.386 173.076 118.34 171.537C118.302 170.66 118.53 169.791 118.994 169.045C120.142 167.335 120.852 165.368 121.061 163.318C121.185 161.551 120.284 160.111 120.293 158.45C120.293 155.03 122.36 153.757 123.898 151.265C127.565 145.309 122.255 139.644 116.687 137.824C111.27 136.057 104.457 139.441 101.045 144.187C97.6344 148.933 97.555 150.621 95.9682 155.466C94.173 160.948 93.4279 166.288 91.8195 169.187C89.0981 174.099 90.2335 176.721 88.4487 181.293C87.4182 183.932 87.2511 186.48 85.4219 187.885C83.8575 189.046 82.6162 190.589 81.8164 192.366C81.1079 193.951 80.8975 195.714 81.2131 197.422C81.5287 199.129 82.3554 200.7 83.5837 201.928C84.6177 204.463 88.0022 205.374 90.4239 206.011C93.8302 207.013 97.4531 207.013 100.86 206.011C105.393 204.481 107.982 199.956 113.276 200.99C116.81 201.68 119.921 203.642 123.536 202.104C128.449 199.956 129.156 194.274 127.583 189.732C127.045 188.27 126.256 186.912 125.25 185.72Z" fill="#2E2524"/>
            <path d="M62.6348 46.0274C60.9021 44.8326 59.8395 47.2523 59.8678 48.8106C59.1252 48.4632 58.5496 47.6398 59.0426 46.6398C59.4169 45.8829 58.1853 45.419 57.8111 46.172C56.8431 48.1278 58.2296 50.2081 60.2883 50.3085C61.3307 52.198 63.9408 52.5776 65.9813 52.0755C66.7984 51.8747 66.6052 50.5735 65.7802 50.7764C64.4278 51.1097 62.6167 51.1438 61.701 50.0233C63.2445 49.2784 64.3755 47.2282 62.6348 46.0274ZM61.7151 47.8266C61.701 48.3205 61.5079 48.6318 61.2362 48.8106C61.2664 47.9029 61.7634 46.2663 61.7151 47.8266Z" fill="#FFC88B"/>
            <path d="M228.809 20.0532C228.469 20.0491 228.139 20.0973 227.825 20.1837C227.263 18.6917 228.286 16.8202 229.962 16.3725C230.779 16.1535 230.433 14.8865 229.612 15.1054C227.487 15.6736 225.963 17.6816 226.43 19.9146C226.481 20.1575 226.577 20.4286 226.704 20.7017C225.736 21.3704 225.088 22.4788 225.088 23.7017C225.086 24.5471 226.402 24.5471 226.404 23.7017C226.404 22.9246 226.772 22.2479 227.4 21.8161C228.211 22.8122 229.396 23.5109 230.528 22.8122C232.316 21.7118 230.07 20.0692 228.809 20.0532ZM228.889 21.4487C228.867 21.4346 228.853 21.4186 228.831 21.4065C228.911 21.4086 228.994 21.4086 229.076 21.4146C229.487 21.4427 230.119 22.2218 228.889 21.4487Z" fill="#FFC88B"/>
            <path d="M37.09 25.5726C36.7498 25.5686 36.4198 25.6168 36.1059 25.7031C35.5444 24.2132 36.5667 22.3418 38.2431 21.894C39.0601 21.6751 38.714 20.408 37.8929 20.6269C35.7678 21.1931 34.2445 23.2032 34.7114 25.4361C34.7637 25.6811 34.8603 25.9501 34.987 26.2232C34.0191 26.8919 33.3731 28.0023 33.3711 29.2232C33.369 30.0686 34.6852 30.0686 34.6872 29.2232C34.6872 28.4461 35.0554 27.7674 35.6833 27.3356C36.4943 28.3316 37.6796 29.0304 38.8106 28.3316C40.5996 27.2313 38.3517 25.5887 37.09 25.5726ZM37.1705 26.9682C37.1484 26.9541 37.1343 26.9401 37.1121 26.926C37.1926 26.9281 37.2751 26.93 37.3597 26.934C37.7681 26.9641 38.4001 27.7413 37.1705 26.9682Z" fill="#D86E54"/>
            <path d="M238.763 44.4433C238.423 44.4392 238.094 44.4874 237.78 44.5737C237.22 43.0818 238.24 41.2103 239.917 40.7625C240.734 40.5437 240.388 39.2767 239.566 39.4955C237.442 40.0618 235.918 42.0717 236.385 44.3047C236.438 44.5477 236.534 44.8187 236.661 45.0918C235.694 45.7605 235.047 46.869 235.045 48.0919C235.043 48.9372 236.361 48.9392 236.361 48.0919C236.361 47.3147 236.729 46.638 237.357 46.2063C238.168 47.2023 239.353 47.9011 240.486 47.2023C242.274 46.1019 240.025 44.4593 238.763 44.4433ZM238.845 45.8388C238.824 45.8248 238.808 45.8107 238.786 45.7967C238.866 45.7987 238.949 45.7987 239.031 45.8047C239.442 45.8328 240.074 46.6119 238.845 45.8388Z" fill="#5B67B9"/>
            <path d="M182.291 76.3237C182.565 76.1228 182.798 75.8859 182.998 75.6269C184.346 76.4803 184.66 78.5887 183.591 79.9542C183.07 80.6208 184.113 81.422 184.636 80.7553C185.988 79.0245 185.992 76.5064 184.271 75.0024C184.082 74.8377 183.843 74.6811 183.575 74.5386C183.944 73.4241 183.79 72.149 183.054 71.1731C182.545 70.4984 181.495 71.2895 182.003 71.9642C182.473 72.5868 182.587 73.3478 182.348 74.0687C181.098 73.7614 179.732 73.914 179.248 75.155C178.49 77.1108 181.275 77.0686 182.291 76.3237ZM181.385 75.2594C181.41 75.2574 181.432 75.2594 181.459 75.2594C181.392 75.3076 181.328 75.3538 181.256 75.4C180.911 75.6208 179.937 75.3799 181.385 75.2594Z" fill="#5B67B9"/>
            <path d="M79.6175 52.8672L80.9738 55.6062L84.0045 56.0459L81.8109 58.1784L82.3281 61.1905L79.6175 59.7668L76.9088 61.1905L77.426 58.1784L75.2324 56.0459L78.2631 55.6062L79.6175 52.8672Z" fill="#5B67B9"/>
            <path d="M30.8889 61.8311L32.2433 64.572L35.2739 65.0117L33.0824 67.1443L33.5996 70.1542L30.8889 68.7326L28.1782 70.1542L28.6975 67.1443L26.5039 65.0117L29.5325 64.572L30.8889 61.8311Z" fill="#FFC88B"/>
            <path d="M210.121 65.0474L210.166 68.1015L212.713 69.7963L209.816 70.7822L208.987 73.724L207.151 71.2803L204.092 71.4027L205.855 68.9048L204.793 66.0393L207.718 66.9409L210.121 65.0474Z" fill="#FFC88B"/>
        </g>
    </g>
    <defs>
        <clipPath id="clip0_6616_61227">
            <rect width="287.772" height="225.526" fill="white" transform="translate(0.0078125 0.0161133)"/>
        </clipPath>
    </defs>
</svg>
