<svg width="83" height="84" viewBox="0 0 83 84" fill="none" xmlns="http://www.w3.org/2000/svg">
    <g clip-path="url(#clip0_6616_60692)">
        <path d="M27.4153 28.9126C26.3397 27.5888 25.6777 25.934 25.6777 24.1138C25.6777 19.9768 28.9873 16.6672 33.1243 16.6672C37.2612 16.6672 40.5708 19.9768 40.5708 24.1138" stroke="url(#paint0_linear_6616_60692)" stroke-width="1.65478" stroke-miterlimit="10" stroke-linecap="round" stroke-linejoin="round"/>
        <path d="M40.6528 60.1884C40.6528 64.3253 37.3433 67.6349 33.2063 67.6349C29.0693 67.6349 25.7598 64.3253 25.7598 60.1884C25.7598 57.0443 27.7455 54.3139 30.5586 53.2383" stroke="url(#paint1_linear_6616_60692)" stroke-width="1.65478" stroke-miterlimit="10" stroke-linecap="round" stroke-linejoin="round"/>
        <path d="M22.1196 37.6004C20.0511 36.2766 18.6445 33.9599 18.6445 31.3123C18.6445 27.3408 21.7886 24.0312 25.7601 23.8657" stroke="url(#paint2_linear_6616_60692)" stroke-width="1.65478" stroke-miterlimit="10" stroke-linecap="round" stroke-linejoin="round"/>
        <path d="M25.6767 59.6093C22.2016 58.9474 19.6367 55.8861 19.6367 52.2455C19.6367 49.1842 21.5397 46.5365 24.1874 45.3782" stroke="url(#paint3_linear_6616_60692)" stroke-width="1.65478" stroke-miterlimit="10" stroke-linecap="round" stroke-linejoin="round"/>
        <path d="M20.2989 49.1837C17.4857 48.108 15.5 45.3777 15.5 42.1508C15.5 39.1722 17.3203 36.5246 19.8024 35.3662" stroke="url(#paint4_linear_6616_60692)" stroke-width="1.65478" stroke-miterlimit="10" stroke-linecap="round" stroke-linejoin="round"/>
        <path d="M40.6523 60.1878V24.1135" stroke="url(#paint5_linear_6616_60692)" stroke-width="1.65478" stroke-miterlimit="10" stroke-linecap="round" stroke-linejoin="round"/>
        <path d="M33.123 25.9341C33.123 25.9341 35.8534 28.9954 40.5696 28.9954" stroke="url(#paint6_linear_6616_60692)" stroke-width="1.65478" stroke-miterlimit="10" stroke-linecap="round" stroke-linejoin="round"/>
        <path d="M35.6055 58.616C35.6055 58.616 38.3359 57.2094 40.6526 54.479" stroke="url(#paint7_linear_6616_60692)" stroke-width="1.65478" stroke-miterlimit="10" stroke-linecap="round" stroke-linejoin="round"/>
        <path d="M52.9807 27.3404C54.7629 27.3404 56.2076 25.8957 56.2076 24.1135C56.2076 22.3314 54.7629 20.8867 52.9807 20.8867C51.1986 20.8867 49.7539 22.3314 49.7539 24.1135C49.7539 25.8957 51.1986 27.3404 52.9807 27.3404Z" stroke="url(#paint8_linear_6616_60692)" stroke-width="1.65478" stroke-miterlimit="10" stroke-linecap="round" stroke-linejoin="round"/>
        <path d="M62.9925 34.7874C64.7746 34.7874 66.2193 33.3427 66.2193 31.5606C66.2193 29.7784 64.7746 28.3337 62.9925 28.3337C61.2103 28.3337 59.7656 29.7784 59.7656 31.5606C59.7656 33.3427 61.2103 34.7874 62.9925 34.7874Z" stroke="url(#paint9_linear_6616_60692)" stroke-width="1.65478" stroke-miterlimit="10" stroke-linecap="round" stroke-linejoin="round"/>
        <path d="M64.3987 48.6868C66.1808 48.6868 67.6255 47.2421 67.6255 45.46C67.6255 43.6779 66.1808 42.2332 64.3987 42.2332C62.6166 42.2332 61.1719 43.6779 61.1719 45.46C61.1719 47.2421 62.6166 48.6868 64.3987 48.6868Z" stroke="url(#paint10_linear_6616_60692)" stroke-width="1.65478" stroke-miterlimit="10" stroke-linecap="round" stroke-linejoin="round"/>
        <path d="M52.7327 49.5972C54.5148 49.5972 55.9595 48.1525 55.9595 46.3704C55.9595 44.5883 54.5148 43.1436 52.7327 43.1436C50.9506 43.1436 49.5059 44.5883 49.5059 46.3704C49.5059 48.1525 50.9506 49.5972 52.7327 49.5972Z" stroke="url(#paint11_linear_6616_60692)" stroke-width="1.65478" stroke-miterlimit="10" stroke-linecap="round" stroke-linejoin="round"/>
        <path d="M57.3655 64.9869C59.1476 64.9869 60.5923 63.5422 60.5923 61.76C60.5923 59.9779 59.1476 58.5332 57.3655 58.5332C55.5834 58.5332 54.1387 59.9779 54.1387 61.76C54.1387 63.5422 55.5834 64.9869 57.3655 64.9869Z" stroke="url(#paint12_linear_6616_60692)" stroke-width="1.65478" stroke-miterlimit="10" stroke-linecap="round" stroke-linejoin="round"/>
        <path d="M49.7537 24.1135H40.6523" stroke="url(#paint13_linear_6616_60692)" stroke-width="1.65478" stroke-miterlimit="10" stroke-linecap="round" stroke-linejoin="round"/>
        <path d="M54.1383 61.76H40.4863" stroke="url(#paint14_linear_6616_60692)" stroke-width="1.65478" stroke-miterlimit="10" stroke-linecap="round" stroke-linejoin="round"/>
        <path d="M49.5054 46.3701H40.6523" stroke="url(#paint15_linear_6616_60692)" stroke-width="1.65478" stroke-miterlimit="10" stroke-linecap="round" stroke-linejoin="round"/>
        <path d="M62.9919 48.3562L59.4341 53.9825H40.6523" stroke="url(#paint16_linear_6616_60692)" stroke-width="1.65478" stroke-miterlimit="10" stroke-linecap="round" stroke-linejoin="round"/>
        <path d="M40.6523 38.2624H50.912L55.2144 31.5605H59.7651" stroke="url(#paint17_linear_6616_60692)" stroke-width="1.65478" stroke-miterlimit="10" stroke-linecap="round" stroke-linejoin="round"/>
        <path d="M27.25 38.6763C27.25 38.6763 32.4626 39.09 32.4626 44.2198C32.4626 46.9502 30.6423 48.1913 29.8149 48.6877" stroke="url(#paint18_linear_6616_60692)" stroke-width="1.65478" stroke-miterlimit="10" stroke-linecap="round" stroke-linejoin="round"/>
        <path d="M31.3027 40.6615C31.3027 40.6615 34.6123 38.0139 35.1087 35.3662" stroke="url(#paint19_linear_6616_60692)" stroke-width="1.65478" stroke-miterlimit="10" stroke-linecap="round" stroke-linejoin="round"/>
    </g>
    <defs>
        <linearGradient id="paint0_linear_6616_60692" x1="37.776" y1="16.6672" x2="25.0718" y2="20.5795" gradientUnits="userSpaceOnUse">
            <stop stop-color="#AC2121"/>
            <stop offset="1" stop-color="#E9000E"/>
        </linearGradient>
        <linearGradient id="paint1_linear_6616_60692" x1="37.858" y1="53.2383" x2="24.8421" y2="56.6476" gradientUnits="userSpaceOnUse">
            <stop stop-color="#AC2121"/>
            <stop offset="1" stop-color="#E9000E"/>
        </linearGradient>
        <linearGradient id="paint2_linear_6616_60692" x1="24.4248" y1="23.8657" x2="17.8918" y2="24.7227" gradientUnits="userSpaceOnUse">
            <stop stop-color="#AC2121"/>
            <stop offset="1" stop-color="#E9000E"/>
        </linearGradient>
        <linearGradient id="paint3_linear_6616_60692" x1="24.5432" y1="45.3782" x2="18.9668" y2="45.9774" gradientUnits="userSpaceOnUse">
            <stop stop-color="#AC2121"/>
            <stop offset="1" stop-color="#E9000E"/>
        </linearGradient>
        <linearGradient id="paint4_linear_6616_60692" x1="19.3983" y1="35.3662" x2="14.9509" y2="35.7573" gradientUnits="userSpaceOnUse">
            <stop stop-color="#AC2121"/>
            <stop offset="1" stop-color="#E9000E"/>
        </linearGradient>
        <linearGradient id="paint5_linear_6616_60692" x1="41.4647" y1="24.1135" x2="40.5308" y2="24.1201" gradientUnits="userSpaceOnUse">
            <stop stop-color="#AC2121"/>
            <stop offset="1" stop-color="#E9000E"/>
        </linearGradient>
        <linearGradient id="paint6_linear_6616_60692" x1="39.1722" y1="25.9341" x2="34.1303" y2="29.0394" gradientUnits="userSpaceOnUse">
            <stop stop-color="#AC2121"/>
            <stop offset="1" stop-color="#E9000E"/>
        </linearGradient>
        <linearGradient id="paint7_linear_6616_60692" x1="39.7054" y1="54.479" x2="35.4024" y2="55.8082" gradientUnits="userSpaceOnUse">
            <stop stop-color="#AC2121"/>
            <stop offset="1" stop-color="#E9000E"/>
        </linearGradient>
        <linearGradient id="paint8_linear_6616_60692" x1="54.9965" y1="20.8867" x2="49.3324" y2="22.3209" gradientUnits="userSpaceOnUse">
            <stop stop-color="#AC2121"/>
            <stop offset="1" stop-color="#E9000E"/>
        </linearGradient>
        <linearGradient id="paint9_linear_6616_60692" x1="65.0082" y1="28.3337" x2="59.3441" y2="29.7679" gradientUnits="userSpaceOnUse">
            <stop stop-color="#AC2121"/>
            <stop offset="1" stop-color="#E9000E"/>
        </linearGradient>
        <linearGradient id="paint10_linear_6616_60692" x1="66.4145" y1="42.2332" x2="60.7504" y2="43.6673" gradientUnits="userSpaceOnUse">
            <stop stop-color="#AC2121"/>
            <stop offset="1" stop-color="#E9000E"/>
        </linearGradient>
        <linearGradient id="paint11_linear_6616_60692" x1="54.7484" y1="43.1436" x2="49.0843" y2="44.5777" gradientUnits="userSpaceOnUse">
            <stop stop-color="#AC2121"/>
            <stop offset="1" stop-color="#E9000E"/>
        </linearGradient>
        <linearGradient id="paint12_linear_6616_60692" x1="59.3813" y1="58.5332" x2="53.7172" y2="59.9674" gradientUnits="userSpaceOnUse">
            <stop stop-color="#AC2121"/>
            <stop offset="1" stop-color="#E9000E"/>
        </linearGradient>
        <linearGradient id="paint13_linear_6616_60692" x1="48.0457" y1="24.1135" x2="46.6988" y2="27.2175" gradientUnits="userSpaceOnUse">
            <stop stop-color="#AC2121"/>
            <stop offset="1" stop-color="#E9000E"/>
        </linearGradient>
        <linearGradient id="paint14_linear_6616_60692" x1="51.5764" y1="61.76" x2="50.5918" y2="65.1636" gradientUnits="userSpaceOnUse">
            <stop stop-color="#AC2121"/>
            <stop offset="1" stop-color="#E9000E"/>
        </linearGradient>
        <linearGradient id="paint15_linear_6616_60692" x1="47.8441" y1="46.3701" x2="46.4718" y2="49.4464" gradientUnits="userSpaceOnUse">
            <stop stop-color="#AC2121"/>
            <stop offset="1" stop-color="#E9000E"/>
        </linearGradient>
        <linearGradient id="paint16_linear_6616_60692" x1="58.7997" y1="48.3562" x2="48.4238" y2="58.7878" gradientUnits="userSpaceOnUse">
            <stop stop-color="#AC2121"/>
            <stop offset="1" stop-color="#E9000E"/>
        </linearGradient>
        <linearGradient id="paint17_linear_6616_60692" x1="56.1784" y1="31.5605" x2="44.4461" y2="40.0324" gradientUnits="userSpaceOnUse">
            <stop stop-color="#AC2121"/>
            <stop offset="1" stop-color="#E9000E"/>
        </linearGradient>
        <linearGradient id="paint18_linear_6616_60692" x1="31.4844" y1="38.6763" x2="26.6994" y2="39.3071" gradientUnits="userSpaceOnUse">
            <stop stop-color="#AC2121"/>
            <stop offset="1" stop-color="#E9000E"/>
        </linearGradient>
        <linearGradient id="paint19_linear_6616_60692" x1="34.3945" y1="35.3662" x2="30.9539" y2="35.9924" gradientUnits="userSpaceOnUse">
            <stop stop-color="#AC2121"/>
            <stop offset="1" stop-color="#E9000E"/>
        </linearGradient>
        <clipPath id="clip0_6616_60692">
            <rect width="82.7392" height="82.7392" fill="white" transform="translate(0.193359 0.78125)"/>
        </clipPath>
    </defs>
</svg>
