<svg width="82" height="82" viewBox="0 0 82 82" fill="none" xmlns="http://www.w3.org/2000/svg">
    <path d="M57.6294 46.6846L67.8959 59.0401C68.3914 59.6703 68.6176 60.4709 68.5251 61.2672C68.4326 62.0636 68.0288 62.791 67.402 63.2908C66.7731 63.7859 65.9738 64.0119 65.1788 63.9193C64.3838 63.8268 63.6577 63.4232 63.1594 62.7969L52.8848 50.4415" fill="#FFBC0A"/>
    <path d="M57.6294 46.6846L67.8959 59.0401C68.3914 59.6703 68.6176 60.4709 68.5251 61.2672C68.4326 62.0636 68.0288 62.791 67.402 63.2908C66.7731 63.7859 65.9738 64.0119 65.1788 63.9193C64.3838 63.8268 63.6577 63.4232 63.1594 62.7969L52.8848 50.4415" stroke="#FFBC0A" stroke-width="2.42899" stroke-linecap="round" stroke-linejoin="round"/>
    <path d="M61.7258 35.6236C62.0432 26.4443 54.8591 18.7458 45.6799 18.4284C36.5006 18.1111 28.8021 25.2951 28.4847 34.4744C28.1674 43.6536 35.3514 51.3522 44.5307 51.6695C53.71 51.9868 61.4085 44.8028 61.7258 35.6236Z" stroke="#151616" stroke-width="2.42899" stroke-linecap="round" stroke-linejoin="round"/>
    <path d="M17.834 19.1885V63.7604H49.9857" stroke="#151616" stroke-width="2.42899" stroke-linecap="round" stroke-linejoin="round"/>
    <path d="M32.7969 39.1626L37.0638 31.7461L42.278 47.3159L55.9937 31.0093" stroke="#151616" stroke-width="2.42899" stroke-linecap="round" stroke-linejoin="round"/>
    <path d="M17.834 63.7604L27.1451 49.478" stroke="#151616" stroke-width="2.42899" stroke-linecap="round" stroke-linejoin="round"/>
    <path d="M12.7012 24.1923L17.8344 19.1885L22.9434 24.5161" stroke="#151616" stroke-width="2.42899" stroke-linecap="round" stroke-linejoin="round"/>
    <path d="M50.8602 26.1758H48.4312V23.7468C48.4312 23.5713 48.3627 23.4028 48.2401 23.2772C48.1176 23.1517 47.9508 23.079 47.7754 23.0748H44.5529C44.3747 23.0748 44.2037 23.1456 44.0777 23.2716C43.9517 23.3976 43.8809 23.5686 43.8809 23.7468V26.1758H41.4357C41.2588 26.1799 41.0902 26.252 40.9651 26.3772C40.8399 26.5023 40.7678 26.6709 40.7637 26.8478V30.0864C40.7637 30.2633 40.8333 30.433 40.9576 30.5588C41.0819 30.6846 41.2508 30.7563 41.4276 30.7585H43.8566V33.1875C43.8544 33.3622 43.9212 33.5307 44.0424 33.6565C44.1637 33.7823 44.3296 33.8552 44.5043 33.8595H47.6944C47.7816 33.8605 47.8681 33.8444 47.9491 33.812C48.03 33.7797 48.1038 33.7317 48.1662 33.6708C48.2286 33.6099 48.2784 33.5373 48.3128 33.4571C48.3471 33.377 48.3653 33.2908 48.3664 33.2036V30.7747H50.7954C50.8826 30.7757 50.9691 30.7596 51.0501 30.7272C51.131 30.6948 51.2048 30.6468 51.2672 30.5859C51.3296 30.525 51.3794 30.4524 51.4138 30.3723C51.4481 30.2921 51.4664 30.206 51.4674 30.1188V26.8721C51.4741 26.6965 51.4117 26.5253 51.2936 26.3951C51.1756 26.265 51.0113 26.1862 50.8359 26.1758H50.8602Z" fill="#FFBC0A"/>
</svg>
