<svg width="82" height="82" viewBox="0 0 82 82" fill="none" xmlns="http://www.w3.org/2000/svg">
    <path d="M62.7498 61.7429C62.758 61.6946 62.758 61.6454 62.7498 61.5971V61.5C62.6773 61.2528 62.5853 61.0119 62.4746 60.7794L62.3045 60.4636L62.2478 60.3826C62.1988 60.2915 62.1419 60.2048 62.0778 60.1235L62.0292 60.0507L61.7944 59.7592C61.5122 59.4492 61.1911 59.1771 60.839 58.9495C60.7014 58.8605 60.5557 58.7795 60.4099 58.6985H60.3451C60.1773 58.6193 60.0041 58.5516 59.827 58.4961C59.386 58.307 58.9194 58.1842 58.4424 58.1318C57.398 58.1318 56.3535 58.1318 55.309 58.0832C55.1823 58.0913 55.0552 58.0913 54.9285 58.0832H53.4063L39.8202 58.1156H36.4034L22.8173 58.0832H21.2466C21.1198 58.0913 20.9927 58.0913 20.866 58.0832C19.8215 58.0832 18.7771 58.0832 17.7326 58.1318C17.3088 58.1574 16.8899 58.2363 16.4857 58.3666C16.3086 58.4221 16.1354 58.4897 15.9676 58.569H15.9028C15.757 58.65 15.6113 58.7309 15.4737 58.82C15.1239 59.0474 14.8054 59.3196 14.5264 59.6296L14.2916 59.9211L14.243 59.994L14.0729 60.2531C14.0588 60.2831 14.0396 60.3105 14.0163 60.3341C13.9596 60.4393 13.9029 60.5446 13.8543 60.6498C13.7436 60.8823 13.6516 61.1233 13.579 61.3704V61.5C13.5709 61.5482 13.5709 61.5975 13.579 61.6457C13.57 61.6845 13.5532 61.721 13.5295 61.7531C13.5058 61.7851 13.4759 61.8119 13.4414 61.8319V63.5727C13.5108 63.6501 13.5632 63.7411 13.5952 63.8399V63.9937C13.6203 64.0932 13.6528 64.1906 13.6924 64.2852V64.4067C13.7188 64.4501 13.7405 64.4963 13.7572 64.5443C13.8219 64.6819 13.8867 64.8196 13.9596 64.9491C14.0084 65.0481 14.0653 65.1428 14.1296 65.2325L14.2835 65.4511C14.3798 65.5877 14.4853 65.7175 14.5992 65.8398L14.7126 65.9612C14.8235 66.0775 14.9425 66.1857 15.0688 66.2851C15.1831 66.3884 15.3049 66.4831 15.4332 66.5685L15.506 66.6089C16.2081 67.07 17.0228 67.3304 17.8622 67.3619H58.4424C59.2818 67.3304 60.0965 67.07 60.7986 66.6089L60.8714 66.5685C60.9839 66.5115 61.0921 66.4466 61.1953 66.3741C61.3216 66.2748 61.4406 66.1665 61.5515 66.0503L61.6649 65.9288C61.7782 65.8074 61.8835 65.6778 61.9888 65.5402L62.1426 65.3216C62.1993 65.2244 62.2559 65.1354 62.3045 65.0382C62.3531 64.941 62.4422 64.771 62.5069 64.6334C62.5321 64.5893 62.5538 64.5432 62.5717 64.4957C62.5717 64.4471 62.5717 64.4148 62.6122 64.3743L62.7094 64.0828V63.929C62.7446 63.8316 62.7966 63.7411 62.8632 63.6618V61.9291C62.8064 61.8807 62.7667 61.8155 62.7498 61.7429Z" fill="url(#paint0_linear_6616_60245)"/>
    <path d="M48.1679 61.8318H45.7389C45.6155 61.8286 45.4928 61.8497 45.3776 61.8939C45.2624 61.9382 45.157 62.0047 45.0676 62.0896C44.9781 62.1746 44.9062 62.2763 44.8561 62.3891C44.806 62.5018 44.7785 62.6234 44.7754 62.7467V62.8196C44.7764 62.9447 44.8023 63.0683 44.8514 63.1834C44.9004 63.2985 44.9718 63.4027 45.0614 63.49C45.151 63.5773 45.257 63.646 45.3733 63.6921C45.4895 63.7383 45.6138 63.7609 45.7389 63.7588H48.1679C48.2944 63.7599 48.4199 63.736 48.5372 63.6886C48.6545 63.6411 48.7613 63.571 48.8516 63.4823C48.9418 63.3936 49.0136 63.288 49.063 63.1715C49.1124 63.055 49.1384 62.9299 49.1395 62.8034C49.1384 62.679 49.1129 62.556 49.0643 62.4415C49.0157 62.327 48.945 62.2231 48.8563 62.1359C48.7676 62.0487 48.6626 61.9798 48.5472 61.9332C48.4319 61.8866 48.3085 61.8631 48.1841 61.8642L48.1679 61.8318Z" fill="#151616"/>
    <path d="M46.1991 63.9286H45.7376C45.4505 63.9202 45.1783 63.799 44.9798 63.5915C44.7814 63.3839 44.6725 63.1066 44.6769 62.8194C44.6704 62.678 44.6918 62.5366 44.74 62.4035C44.7882 62.2703 44.8621 62.148 44.9576 62.0434C45.0532 61.9389 45.1683 61.8542 45.2966 61.7942C45.4249 61.7343 45.5637 61.7002 45.7052 61.694H48.2071C48.4991 61.694 48.7792 61.81 48.9857 62.0165C49.1922 62.223 49.3082 62.5031 49.3082 62.7951C49.3082 63.0872 49.1922 63.3672 48.9857 63.5737C48.7792 63.7802 48.4991 63.8963 48.2071 63.8963H46.6525L46.1991 63.9286ZM46.9521 61.9774H45.7538C45.539 61.9774 45.3331 62.0627 45.1813 62.2145C45.0294 62.3663 44.9441 62.5723 44.9441 62.787C44.9441 63.0017 45.0294 63.2077 45.1813 63.3595C45.3331 63.5114 45.539 63.5967 45.7538 63.5967H48.1828C48.3975 63.5967 48.6034 63.5114 48.7553 63.3595C48.9071 63.2077 48.9924 63.0017 48.9924 62.787C48.9924 62.5723 48.9071 62.3663 48.7553 62.2145C48.6034 62.0627 48.3975 61.9774 48.1828 61.9774H46.9521Z" fill="#151616"/>
    <path d="M21.6097 61.8319H19.1807C19.0584 61.8265 18.9362 61.8452 18.8212 61.887C18.7061 61.9289 18.6005 61.993 18.5102 62.0757C18.42 62.1585 18.3469 62.2582 18.2953 62.3692C18.2436 62.4801 18.2143 62.6002 18.2091 62.7225V62.8035C18.207 62.9268 18.2292 63.0494 18.2744 63.1642C18.3196 63.2789 18.387 63.3837 18.4727 63.4724C18.5584 63.5611 18.6608 63.6321 18.7739 63.6813C18.8871 63.7304 19.0088 63.7568 19.1321 63.7589H21.5611C21.6887 63.761 21.8155 63.738 21.9342 63.6912C22.0529 63.6443 22.1612 63.5745 22.2529 63.4858C22.3447 63.3971 22.418 63.2912 22.4688 63.1741C22.5196 63.057 22.5468 62.9311 22.5489 62.8035C22.5511 62.5507 22.4539 62.3072 22.2782 62.1254C22.1025 61.9437 21.8624 61.8383 21.6097 61.8319Z" fill="#151616"/>
    <path d="M21.1252 63.9287H19.2144C18.9224 63.9287 18.6423 63.8127 18.4358 63.6062C18.2293 63.3997 18.1133 63.1196 18.1133 62.8276C18.1133 62.5355 18.2293 62.2555 18.4358 62.049C18.6423 61.8425 18.9224 61.7264 19.2144 61.7264H21.6434C21.9354 61.7264 22.2155 61.8425 22.422 62.049C22.6285 62.2555 22.7445 62.5355 22.7445 62.8276C22.7445 63.1196 22.6285 63.3997 22.422 63.6062C22.2155 63.8127 21.9354 63.9287 21.6434 63.9287H21.1252ZM20.3884 63.6211H21.5705C21.6802 63.6265 21.7899 63.6097 21.8928 63.5714C21.9958 63.5332 22.0899 63.4744 22.1694 63.3987C22.2489 63.323 22.3122 63.2318 22.3554 63.1309C22.3986 63.0299 22.4208 62.9212 22.4207 62.8114C22.4207 62.5967 22.3354 62.3907 22.1835 62.2389C22.0317 62.087 21.8258 62.0017 21.611 62.0017H19.182C18.9673 62.0017 18.7614 62.087 18.6095 62.2389C18.4577 62.3907 18.3724 62.5967 18.3724 62.8114C18.3724 63.0261 18.4577 63.2321 18.6095 63.3839C18.7614 63.5358 18.9673 63.6211 19.182 63.6211H20.3884Z" fill="#151616"/>
    <path d="M30.4366 61.8316H28.0642C27.9388 61.8262 27.8134 61.8456 27.6954 61.8886C27.5774 61.9317 27.4691 61.9976 27.3766 62.0826C27.2841 62.1676 27.2092 62.27 27.1564 62.3839C27.1035 62.4978 27.0736 62.6211 27.0684 62.7466C27.0684 63.0042 27.1707 63.2514 27.3529 63.4336C27.5351 63.6158 27.7823 63.7182 28.04 63.7182H30.4285C30.555 63.7225 30.6812 63.7018 30.7997 63.6574C30.9183 63.6129 31.0269 63.5455 31.1194 63.459C31.2119 63.3725 31.2864 63.2687 31.3387 63.1534C31.3911 63.0381 31.4202 62.9136 31.4243 62.787C31.4254 62.6616 31.4018 62.5371 31.3547 62.4208C31.3077 62.3045 31.2382 62.1986 31.1502 62.1091C31.0623 62.0196 30.9576 61.9484 30.842 61.8994C30.7265 61.8504 30.6025 61.8246 30.477 61.8235L30.4366 61.8316Z" fill="#151616"/>
    <path d="M29.9579 63.9288H28.0552C27.9096 63.931 27.7649 63.9044 27.6295 63.8506C27.4941 63.7968 27.3706 63.7169 27.2661 63.6154C27.1616 63.5139 27.0781 63.3928 27.0204 63.259C26.9627 63.1253 26.9319 62.9815 26.9298 62.8358C26.9277 62.693 26.9539 62.5512 27.0071 62.4187C27.0602 62.2862 27.1392 62.1656 27.2394 62.0638C27.3396 61.9621 27.4591 61.8814 27.5908 61.8262C27.7225 61.7711 27.8639 61.7427 28.0067 61.7427H30.4356C30.5802 61.7427 30.7234 61.7712 30.857 61.8266C30.9906 61.8819 31.112 61.963 31.2143 62.0653C31.3165 62.1675 31.3976 62.2889 31.453 62.4225C31.5083 62.5561 31.5368 62.6993 31.5368 62.8439C31.5368 62.9885 31.5083 63.1317 31.453 63.2653C31.3976 63.3989 31.3165 63.5202 31.2143 63.6225C31.112 63.7248 30.9906 63.8059 30.857 63.8612C30.7234 63.9165 30.5802 63.945 30.4356 63.945L29.9579 63.9288ZM29.1483 63.6454H30.379C30.4853 63.652 30.592 63.6375 30.6927 63.6028C30.7935 63.5681 30.8864 63.5138 30.9661 63.4431C31.0459 63.3724 31.1108 63.2866 31.1574 63.1908C31.2039 63.0949 31.231 62.9907 31.2372 62.8844V62.8358C31.2372 62.621 31.1519 62.4151 31.0001 62.2633C30.8482 62.1114 30.6423 62.0261 30.4275 62.0261H27.9986C27.7838 62.0261 27.5779 62.1114 27.426 62.2633C27.2742 62.4151 27.1889 62.621 27.1889 62.8358C27.1889 63.0505 27.2742 63.2565 27.426 63.4083C27.5779 63.5601 27.7838 63.6454 27.9986 63.6454H29.1159H29.1483Z" fill="#151616"/>
    <path d="M56.9937 61.8319H54.6295C54.374 61.8319 54.1289 61.9334 53.9482 62.1141C53.7675 62.2948 53.666 62.5399 53.666 62.7954C53.666 63.0509 53.7675 63.296 53.9482 63.4767C54.1289 63.6574 54.374 63.7589 54.6295 63.7589H57.0018C57.1273 63.7621 57.2522 63.7406 57.3693 63.6956C57.4865 63.6505 57.5936 63.5828 57.6846 63.4963C57.7756 63.4099 57.8486 63.3063 57.8996 63.1916C57.9505 63.0769 57.9784 62.9533 57.9815 62.8278C57.9837 62.7044 57.9615 62.5819 57.9163 62.4671C57.871 62.3523 57.8036 62.2476 57.7179 62.1589C57.6322 62.0702 57.5299 61.9992 57.4167 61.95C57.3036 61.9009 57.1818 61.8745 57.0585 61.8724L56.9937 61.8319Z" fill="#151616"/>
    <path d="M55.0741 63.9286H54.6207C54.3286 63.9286 54.0486 63.8126 53.8421 63.6061C53.6355 63.3996 53.5195 63.1195 53.5195 62.8275C53.5195 62.5354 53.6355 62.2553 53.8421 62.0488C54.0486 61.8423 54.3286 61.7263 54.6207 61.7263H56.993C57.1323 61.7187 57.2718 61.7386 57.4034 61.785C57.535 61.8313 57.6562 61.9032 57.76 61.9964C57.8638 62.0897 57.9482 62.2025 58.0083 62.3285C58.0684 62.4544 58.1031 62.5909 58.1103 62.7303V62.8275C58.1125 62.9699 58.0865 63.1115 58.034 63.2439C57.9814 63.3764 57.9033 63.4972 57.804 63.5994C57.7048 63.7017 57.5864 63.7834 57.4555 63.8399C57.3247 63.8963 57.184 63.9265 57.0416 63.9286H55.0741ZM55.8109 61.9854H54.6288C54.414 61.9854 54.2081 62.0707 54.0563 62.2226C53.9044 62.3744 53.8191 62.5803 53.8191 62.7951C53.8191 63.0098 53.9044 63.2158 54.0563 63.3676C54.2081 63.5194 54.414 63.6047 54.6288 63.6047H56.9849C57.1996 63.6047 57.4056 63.5194 57.5574 63.3676C57.7092 63.2158 57.7945 63.0098 57.7945 62.7951C57.7945 62.5803 57.7092 62.3744 57.5574 62.2226C57.4056 62.0707 57.1996 61.9854 56.9849 61.9854H55.8109Z" fill="#151616"/>
    <path d="M39.3105 61.8319H36.8815C36.6259 61.8319 36.3809 61.9334 36.2002 62.1141C36.0195 62.2948 35.918 62.5399 35.918 62.7954C35.918 63.0509 36.0195 63.296 36.2002 63.4767C36.3809 63.6574 36.6259 63.7589 36.8815 63.7589H39.3105C39.566 63.7589 39.8111 63.6574 39.9917 63.4767C40.1724 63.296 40.274 63.0509 40.274 62.7954C40.274 62.5399 40.1724 62.2948 39.9917 62.1141C39.8111 61.9334 39.566 61.8319 39.3105 61.8319Z" fill="#151616"/>
    <path d="M38.0949 63.9287H36.8804C36.5884 63.9287 36.3083 63.8127 36.1018 63.6062C35.8953 63.3997 35.7793 63.1196 35.7793 62.8276C35.7793 62.5355 35.8953 62.2555 36.1018 62.049C36.3083 61.8425 36.5884 61.7264 36.8804 61.7264H39.3094C39.6015 61.7264 39.8815 61.8425 40.0881 62.049C40.2946 62.2555 40.4106 62.5355 40.4106 62.8276C40.4106 63.1196 40.2946 63.3997 40.0881 63.6062C39.8815 63.8127 39.6015 63.9287 39.3094 63.9287H38.0949ZM37.3905 61.9612H36.9047C36.69 61.9612 36.4841 62.0465 36.3322 62.1984C36.1804 62.3502 36.0951 62.5562 36.0951 62.7709C36.0951 62.9856 36.1804 63.1916 36.3322 63.3434C36.4841 63.4953 36.69 63.5806 36.9047 63.5806H39.3337C39.5485 63.5806 39.7544 63.4953 39.9062 63.3434C40.0581 63.1916 40.1434 62.9856 40.1434 62.7709C40.1434 62.5562 40.0581 62.3502 39.9062 62.1984C39.7544 62.0465 39.5485 61.9612 39.3337 61.9612H37.3905Z" fill="#151616"/>
    <path d="M41.5198 47.3227H56.4985C57.5754 47.3227 57.8588 47.6142 57.8588 48.7073V51.8326C58.9945 52.0539 60.1717 51.8161 61.1324 51.1711C62.0931 50.526 62.7589 49.5265 62.9839 48.3915C63.0487 48.0419 63.0732 47.686 63.0568 47.3308V36.2708C63.0694 36.147 63.0415 36.0225 62.9773 35.9159C62.913 35.8093 62.8159 35.7265 62.7006 35.6798C62.2323 35.4644 61.8331 35.1233 61.5472 34.6945C61.2613 34.2656 61.1 33.7659 61.0812 33.2508V32.765C61.1577 32.4565 61.1416 32.1323 61.0351 31.8328C60.9285 31.5333 60.7362 31.2718 60.4821 31.0809C60.2939 30.9001 60.1505 30.6779 60.0633 30.4319C59.9762 30.1859 59.9477 29.923 59.9801 29.664V23.3891C59.9801 22.6928 60.223 22.4175 60.9112 22.2475H67.008C67.7448 22.4337 67.9634 22.709 67.9634 23.462V29.5992C67.9886 29.9624 67.9199 30.326 67.7639 30.655C67.6079 30.984 67.3699 31.2673 67.0727 31.4776C67.0041 31.5283 66.95 31.5961 66.9159 31.6743C66.8818 31.7524 66.8689 31.8382 66.8784 31.923C66.9081 32.5011 66.8891 33.0807 66.8217 33.6556C66.7521 34.0956 66.5774 34.5122 66.3124 34.8703C66.0474 35.2283 65.7 35.5171 65.2996 35.7122C65.1767 35.7588 65.0736 35.8461 65.0073 35.9596C64.941 36.073 64.9156 36.2057 64.9352 36.3356V47.5413C64.9554 48.8883 64.5387 50.2055 63.7476 51.2958C62.9565 52.3861 61.8336 53.1908 60.5469 53.5895C60.1201 53.7303 59.676 53.812 59.2271 53.8324H57.8588V57.3302C57.8676 57.4599 57.8506 57.5902 57.809 57.7134C57.7673 57.8366 57.7017 57.9504 57.6159 58.0482C57.5302 58.146 57.4259 58.2259 57.3092 58.2833C57.1925 58.3407 57.0656 58.3745 56.9358 58.3827H19.9099C19.6416 58.4155 19.3695 58.3721 19.1247 58.2575C18.8799 58.143 18.6722 57.9619 18.5254 57.735V48.019C18.6699 47.7913 18.8757 47.6089 19.1191 47.4929C19.3626 47.3769 19.6339 47.3319 19.9018 47.3632H34.8644L41.5198 47.3227ZM35.7226 56.4233H55.8751V49.3064H20.4848V56.4557H35.3826C35.4959 56.4557 35.6093 56.4314 35.7226 56.4233ZM66.0769 24.2069H61.9557V29.6802C61.9557 29.834 62.0528 29.8745 62.1986 29.915C62.452 29.9568 62.6789 30.0965 62.8303 30.304C62.9817 30.5115 63.0456 30.7701 63.0082 31.0242V32.9512C62.9913 33.09 63.0034 33.2307 63.0436 33.3646C63.0838 33.4984 63.1512 33.6225 63.2418 33.729C63.3323 33.8355 63.4439 33.9221 63.5695 33.9833C63.6951 34.0445 63.8321 34.0791 63.9717 34.0848C64.5628 34.0848 64.9514 33.6475 64.9595 32.9512V30.8785C64.9334 30.6825 64.9799 30.4837 65.0903 30.3196C65.2007 30.1556 65.3673 30.0376 65.5587 29.9879C66.093 29.9069 66.0445 29.5992 66.0364 29.243V28.571L66.0769 24.2069Z" fill="#151616"/>
    <path d="M19.902 58.5364C19.6126 58.5622 19.3216 58.5097 19.0595 58.3843C18.7974 58.259 18.5738 58.0654 18.4123 57.8239C18.4042 57.8003 18.4042 57.7747 18.4123 57.751V47.9946C18.4042 47.971 18.4042 47.9454 18.4123 47.9217C18.5663 47.6762 18.7859 47.4786 19.0463 47.3513C19.3067 47.2239 19.5975 47.1719 19.8859 47.2011H56.4988C57.6485 47.2011 57.9967 47.5574 57.9967 48.7233V51.7191C58.62 51.8072 59.255 51.7634 59.8603 51.5904C60.4656 51.4175 61.0279 51.1192 61.5106 50.7151C61.9717 50.2864 62.336 49.7641 62.5789 49.1832C62.8219 48.6023 62.938 47.9762 62.9194 47.3469V36.3193C62.9361 36.2222 62.9176 36.1223 62.8671 36.0376C62.8166 35.953 62.7375 35.8892 62.6441 35.8578C62.1527 35.6251 61.7356 35.2603 61.4397 34.8042C61.1437 34.348 60.9804 33.8186 60.9681 33.2749C60.9519 33.1107 60.9519 32.9453 60.9681 32.7811C60.9681 32.0928 60.9681 31.607 60.4256 31.2103C60.2177 31.0197 60.0584 30.782 59.9612 30.5172C59.864 30.2523 59.8317 29.968 59.867 29.6881V23.4456C59.8431 23.2935 59.8504 23.1382 59.8885 22.989C59.9267 22.8398 59.9948 22.7 60.0887 22.578C60.1827 22.456 60.3005 22.3545 60.435 22.2795C60.5695 22.2046 60.7178 22.1578 60.871 22.1421H67.0649C67.8826 22.2878 68.1579 22.636 68.1579 23.4456V29.5829C68.1792 29.9639 68.1026 30.344 67.9353 30.687C67.7681 31.03 67.5158 31.3244 67.2025 31.5423C67.0811 31.6232 67.073 31.7042 67.0649 31.8823C67.0568 32.0605 67.0649 32.2467 67.0649 32.4329C67.0799 32.8362 67.0582 33.24 67.0001 33.6393C66.9242 34.1013 66.7371 34.538 66.455 34.9118C66.173 35.2855 65.8043 35.5852 65.3808 35.7849C65.1298 35.9064 65.0893 36.0197 65.0893 36.2869V47.4926C65.1019 48.8681 64.6719 50.2112 63.8628 51.3236C63.0536 52.436 61.9082 53.2588 60.5957 53.6703C60.1566 53.8185 59.6985 53.903 59.2354 53.9213H57.9967V57.2895C58.0123 57.4364 57.9987 57.5849 57.9566 57.7265C57.9145 57.8681 57.8448 57.9999 57.7514 58.1143C57.658 58.2288 57.5429 58.3236 57.4127 58.3932C57.2825 58.4629 57.1397 58.5061 56.9927 58.5202H19.902V58.5364ZM18.6633 57.7267C18.8013 57.9233 18.9904 58.0784 19.2101 58.1755C19.4298 58.2725 19.6719 58.3077 19.9101 58.2773H56.8226C56.9486 58.2944 57.0768 58.2816 57.1969 58.2399C57.317 58.1982 57.4256 58.1288 57.5139 58.0374C57.6022 57.9459 57.6678 57.835 57.7052 57.7135C57.7427 57.592 57.751 57.4634 57.7295 57.3381V53.808C57.7314 53.7721 57.7465 53.7382 57.7719 53.7128C57.7973 53.6874 57.8312 53.6723 57.8671 53.6703H59.2516C59.697 53.6463 60.1363 53.5563 60.5552 53.4032C61.8121 53.0122 62.9089 52.2256 63.6822 51.1604C64.4555 50.0953 64.8639 48.8088 64.8464 47.4926V36.2869C64.8278 36.1299 64.8612 35.9712 64.9417 35.8351C65.0222 35.699 65.1452 35.5932 65.2917 35.5339C65.6729 35.351 66.0036 35.0775 66.2548 34.7374C66.506 34.3972 66.6702 34.0008 66.7329 33.5826C66.7921 33.2052 66.8111 32.8225 66.7896 32.441V31.8742C66.779 31.7665 66.7975 31.6578 66.8431 31.5596C66.8886 31.4614 66.9596 31.3771 67.0487 31.3156C67.323 31.1149 67.5415 30.8473 67.6832 30.5384C67.8249 30.2294 67.8852 29.8893 67.8583 29.5505V23.4456C67.8583 22.7574 67.6883 22.5307 67.0487 22.3688H60.9843C60.3852 22.5226 60.1746 22.7574 60.1746 23.3728V29.6477C60.1485 29.8843 60.1748 30.1238 60.2518 30.3491C60.3288 30.5745 60.4545 30.78 60.62 30.9512C60.8904 31.158 61.0959 31.438 61.2121 31.758C61.3284 32.078 61.3504 32.4246 61.2758 32.7568C61.2677 32.9132 61.2677 33.0699 61.2758 33.2264C61.2852 33.7198 61.4298 34.2012 61.6939 34.6181C61.9581 35.0349 62.3315 35.3713 62.7737 35.5906C62.9131 35.6463 63.0306 35.746 63.108 35.8747C63.1855 36.0033 63.2188 36.1538 63.2028 36.3031V47.3631C63.2262 48.0394 63.1022 48.7127 62.8394 49.3363C62.5765 49.9598 62.1811 50.5187 61.6806 50.9742C61.1502 51.4142 60.5323 51.7364 59.8678 51.9193C59.2033 52.1021 58.5075 52.1415 57.8266 52.0348C57.7937 52.0293 57.7636 52.0126 57.7415 51.9875C57.7194 51.9625 57.7066 51.9306 57.7052 51.8972V48.7314C57.7052 47.7193 57.4785 47.4845 56.4826 47.4845H19.902C19.6651 47.4525 19.424 47.4879 19.2063 47.5867C18.9886 47.6856 18.8032 47.8438 18.6714 48.0432L18.6633 57.7267ZM44.0381 56.6418H36.1034C36.0118 56.6499 35.9197 56.6499 35.8281 56.6418H35.6257C35.5449 56.6499 35.4636 56.6499 35.3828 56.6418H20.485C20.4491 56.6399 20.4152 56.6247 20.3898 56.5993C20.3644 56.5739 20.3493 56.54 20.3474 56.5042V49.3063C20.3493 49.2704 20.3644 49.2365 20.3898 49.2111C20.4152 49.1857 20.4491 49.1706 20.485 49.1686H55.8915C55.9274 49.1706 55.9613 49.1857 55.9867 49.2111C56.0121 49.2365 56.0272 49.2704 56.0292 49.3063V56.4232C56.0272 56.4591 56.0121 56.493 55.9867 56.5184C55.9613 56.5438 55.9274 56.5589 55.8915 56.5608H51.9647L44.0381 56.6418ZM35.7228 56.3341H35.8605C35.9413 56.3422 36.0226 56.3422 36.1034 56.3341H55.7377V49.4439H20.6226V56.3179H35.3828C35.4527 56.326 35.5234 56.326 35.5933 56.3179H35.7228V56.3341ZM64.0124 34.2223C63.3404 34.2223 62.9194 33.7365 62.9113 32.9511V31.0241C62.9326 30.9199 62.9331 30.8125 62.9129 30.7081C62.8927 30.6037 62.8521 30.5043 62.7935 30.4156C62.7348 30.3268 62.6593 30.2505 62.5711 30.191C62.483 30.1315 62.384 30.0899 62.2798 30.0687H62.1664C62.1196 30.0666 62.0737 30.0553 62.0313 30.0355C61.9888 30.0156 61.9507 29.9876 61.9191 29.953C61.8876 29.9184 61.8631 29.8779 61.8472 29.8339C61.8313 29.7898 61.8242 29.743 61.8264 29.6962V24.2067C61.8284 24.1695 61.8447 24.1345 61.8718 24.1089C61.8989 24.0833 61.9348 24.069 61.9721 24.0691H66.0933C66.1292 24.071 66.163 24.0862 66.1885 24.1116C66.2139 24.137 66.229 24.1709 66.2309 24.2067V29.3157C66.2309 29.6315 66.2309 30.0363 65.6399 30.1254C65.2836 30.182 65.1541 30.5464 65.1541 30.8783V32.9511C65.1882 33.2517 65.1017 33.5535 64.9134 33.7904C64.7252 34.0272 64.4506 34.1796 64.1501 34.2142H64.0124V34.2223ZM62.0936 24.3525V29.68C62.0936 29.7286 62.0935 29.7448 62.2312 29.7853C62.5188 29.8256 62.779 29.9771 62.9562 30.2072C63.1333 30.4373 63.2131 30.7277 63.1785 31.016V32.9511C63.1785 33.5826 63.4862 33.947 63.9882 33.947C64.5063 33.947 64.7978 33.5664 64.7978 32.9511V30.8783C64.7699 30.6482 64.828 30.4159 64.961 30.2261C65.0941 30.0363 65.2926 29.9023 65.5184 29.8501C65.8909 29.7934 65.8828 29.6477 65.8747 29.3238V24.3525H62.0936Z" fill="#151616"/>
    <path d="M18.5254 17.6484C18.6711 17.5998 18.6387 17.4621 18.6711 17.365C18.8691 16.6946 19.2742 16.104 19.8283 15.6779C20.3824 15.2518 21.0572 15.0119 21.7559 14.9927H54.1424C54.6952 14.9631 55.2478 15.0543 55.7618 15.2599C56.3827 15.5067 56.9121 15.9395 57.2774 16.499C57.6427 17.0586 57.826 17.7174 57.8021 18.3852V41.4201C57.8021 43.849 56.4338 45.1688 54.021 45.1769H22.0717C21.3006 45.2164 20.5392 44.9905 19.9145 44.5367C19.2898 44.0829 18.8396 43.4287 18.6387 42.6831C18.6387 42.6103 18.6387 42.5212 18.5254 42.4888V17.6484ZM38.2002 16.9197H22.2336C20.9625 16.9197 20.4605 17.4298 20.4605 18.709V41.4686C20.4605 42.7074 20.9787 43.2418 22.2094 43.2418H54.1505C55.4055 43.2418 55.9237 42.7155 55.9237 41.4362V18.7657C55.9237 17.4459 55.4298 16.9521 54.1262 16.9521L38.2002 16.9197Z" fill="#151616"/>
    <path d="M34.8648 45.3064H22.0721C21.2713 45.3483 20.4803 45.1138 19.8318 44.6422C19.1832 44.1705 18.7164 43.4903 18.5096 42.7154C18.5015 42.6946 18.5015 42.6715 18.5096 42.6507C18.4818 42.6431 18.4576 42.626 18.4413 42.6022C18.425 42.5785 18.4176 42.5498 18.4205 42.5211V17.6483C18.421 17.6192 18.4306 17.591 18.4481 17.5677C18.4655 17.5444 18.4899 17.5273 18.5177 17.5187V17.4459C18.5096 17.4058 18.5096 17.3645 18.5177 17.3244C18.7337 16.6305 19.1629 16.0224 19.7443 15.5863C20.3257 15.1503 21.0297 14.9085 21.7564 14.8954H54.1429C54.7288 14.8644 55.3145 14.9611 55.8593 15.1788C56.4995 15.4392 57.0449 15.8888 57.4226 16.4676C57.8002 17.0463 57.9921 17.7267 57.9726 18.4175V41.42C57.9726 43.849 56.5475 45.3145 54.0538 45.3145H34.8648V45.3064ZM34.379 45.0149H54.0781C56.4261 45.0149 57.7216 43.7356 57.7216 41.4038V18.3365C57.7376 17.6973 57.5578 17.0684 57.2061 16.5343C56.8544 16.0003 56.3477 15.5866 55.7541 15.3489C55.2406 15.1419 54.6871 15.0534 54.1348 15.0898H21.7483C21.0678 15.1053 20.4105 15.3398 19.8738 15.7584C19.3371 16.1769 18.9496 16.7573 18.7687 17.4135V17.4702C18.7675 17.5194 18.756 17.5678 18.7351 17.6124C18.7142 17.657 18.6843 17.6968 18.6473 17.7293V42.4078C18.7023 42.4551 18.7371 42.5218 18.7444 42.594V42.6345C18.9303 43.3583 19.3607 43.9956 19.9628 44.4383C20.5649 44.881 21.3015 45.1019 22.0478 45.0635H34.3547L34.379 45.0149ZM46.1677 43.3956H22.2098C20.9062 43.3956 20.3233 42.8045 20.3233 41.4847V18.709C20.3233 17.3568 20.89 16.782 22.2341 16.782H54.1186C55.5031 16.782 56.0617 17.3487 56.0617 18.7332V41.4038C56.0617 42.764 55.4869 43.347 54.1509 43.347L46.1677 43.3956ZM34.1928 17.0572H22.2341C21.0439 17.0572 20.6147 17.5026 20.6147 18.6766V41.4686C20.6147 42.6264 21.0843 43.0879 22.2341 43.0879H54.1509C55.325 43.0879 55.7703 42.6183 55.7703 41.42V18.7494C55.7703 17.5107 55.3331 17.0734 54.1024 17.0734L34.1928 17.0572Z" fill="#151616"/>
    <path d="M67.0499 22.2231H60.9531C60.9618 21.604 61.1584 21.0022 61.5171 20.4975C61.8757 19.9929 62.3793 19.6092 62.9611 19.3974C63.7063 19.1126 64.534 19.1352 65.2626 19.46C65.9912 19.7848 66.5612 20.3854 66.8475 21.13C66.9831 21.4784 67.0518 21.8493 67.0499 22.2231Z" fill="url(#paint1_linear_6616_60245)"/>
    <path d="M41.5201 45.4282V47.088H34.8647V45.4282H41.5201ZM43.7386 43.2178H32.6543V49.2984H43.7224V43.2178H43.7386Z" fill="#151616"/>
    <path d="M38.3473 37.461C34.4319 37.4609 30.5989 36.3368 27.3035 34.2224C26.4938 33.7123 25.8056 33.1293 25.0688 32.6031C24.7936 32.3844 24.7855 32.2063 24.9879 31.9229C27.1092 28.9704 29.217 26.0178 31.3113 23.0652C31.4976 22.8061 31.6676 22.8223 31.9267 22.9438C33.3621 23.6566 34.8755 24.2 36.4365 24.5631C38.3116 24.9045 40.2453 24.6993 42.007 23.9721C42.867 23.6569 43.7102 23.2974 44.5331 22.8952C44.7679 22.7819 44.8894 22.8304 45.0432 23.0409C46.5816 25.2 48.1307 27.3591 49.6907 29.5182C50.2655 30.3279 50.8323 31.1376 51.4314 31.9472C51.6177 32.1982 51.5691 32.3359 51.3667 32.514C48.7023 34.8386 45.4704 36.4169 41.9989 37.0886C40.7924 37.3015 39.5719 37.426 38.3473 37.461Z" fill="url(#paint2_linear_6616_60245)"/>
    <defs>
        <linearGradient id="paint0_linear_6616_60245" x1="53.5888" y1="58.0832" x2="37.2147" y2="80.1661" gradientUnits="userSpaceOnUse">
            <stop stop-color="#00E925"/>
            <stop offset="1" stop-color="#21AC27"/>
        </linearGradient>
        <linearGradient id="paint1_linear_6616_60245" x1="65.9058" y1="19.199" x2="61.3889" y2="21.5047" gradientUnits="userSpaceOnUse">
            <stop stop-color="#00E925"/>
            <stop offset="1" stop-color="#21AC27"/>
        </linearGradient>
        <linearGradient id="paint2_linear_6616_60245" x1="46.5374" y1="22.8357" x2="25.9915" y2="32.333" gradientUnits="userSpaceOnUse">
            <stop stop-color="#00E925"/>
            <stop offset="1" stop-color="#21AC27"/>
        </linearGradient>
    </defs>
</svg>
