<svg width="65" height="66" viewBox="0 0 65 66" fill="none" xmlns="http://www.w3.org/2000/svg">
    <g clip-path="url(#clip0_6616_60510)">
        <path d="M58.5 0.511719H6.5C2.91015 0.511719 0 3.42187 0 7.01172V59.0117C0 62.6016 2.91015 65.5117 6.5 65.5117H58.5C62.0898 65.5117 65 62.6016 65 59.0117V7.01172C65 3.42187 62.0898 0.511719 58.5 0.511719Z" fill="#E8EEF1"/>
        <path d="M47.853 20.8632C47.8597 20.7376 47.8597 20.6117 47.853 20.4862C47.8541 19.5783 47.6072 18.6873 47.1391 17.9094C46.6709 17.1315 45.9992 16.4963 45.1965 16.0721C44.3937 15.648 43.4904 15.4512 42.584 15.5028C41.6775 15.5544 40.8024 15.8526 40.053 16.3652C39.15 15.3642 37.9655 14.6595 36.655 14.3434C35.3445 14.0273 33.969 14.1147 32.709 14.5939C31.4489 15.0732 30.3631 15.9221 29.5939 17.0292C28.8247 18.1364 28.408 19.4501 28.3985 20.7982C27.3011 21.2014 26.3806 21.978 25.7982 22.9918C25.2159 24.0056 25.0089 25.192 25.2136 26.3432C25.4182 27.4943 26.0214 28.5367 26.9175 29.2877C27.8136 30.0387 28.9453 30.4504 30.1145 30.4507H45.9615C47.1159 30.4522 48.235 30.0526 49.1273 29.3202C50.0196 28.5877 50.6297 27.568 50.8531 26.4354C51.0766 25.3028 50.8995 24.1278 50.3523 23.1113C49.805 22.0949 48.9215 21.3002 47.853 20.8632Z" fill="#FFBC0A"/>
        <path d="M16.9004 47.3118C16.0573 47.3405 15.2301 47.0766 14.5595 46.5647C13.8889 46.0529 13.4161 45.3246 13.2214 44.5038C13.1418 44.1761 13.1025 43.8399 13.1044 43.5028C13.1044 38.9398 13.1044 34.3746 13.1044 29.8073C13.0845 29.3022 13.1689 28.7985 13.3522 28.3275C13.5356 27.8565 13.8141 27.4284 14.1703 27.0698C14.5264 26.7111 14.9527 26.4298 15.4224 26.2432C15.8921 26.0566 16.3953 25.9688 16.9004 25.9853H37.0504C37.5529 25.9664 38.054 26.0509 38.5225 26.2335C38.991 26.4162 39.4171 26.6932 39.7742 27.0472C40.1313 27.4013 40.4119 27.8249 40.5985 28.2918C40.7852 28.7588 40.874 29.2591 40.8594 29.7618C40.8594 34.3464 40.8594 38.9289 40.8594 43.5093C40.8777 44.0141 40.7916 44.5172 40.6065 44.9873C40.4215 45.4573 40.1414 45.8841 39.7839 46.241C39.4265 46.5978 38.9992 46.8771 38.5288 47.0614C38.0585 47.2456 37.5552 47.3309 37.0504 47.3118H16.9004Z" fill="#FFBC0A"/>
        <path d="M26.9548 26.9537H37.0493C37.4241 26.9354 37.7986 26.9953 38.149 27.1295C38.4994 27.2638 38.818 27.4696 39.0846 27.7337C39.3512 27.9978 39.5598 28.3145 39.6973 28.6637C39.8348 29.0128 39.8982 29.3868 39.8833 29.7617C39.8833 34.3464 39.8833 38.9289 39.8833 43.5092C39.8981 43.8844 39.8348 44.2587 39.6973 44.6081C39.5599 44.9576 39.3513 45.2747 39.0849 45.5393C38.8184 45.804 38.4999 46.0103 38.1495 46.1454C37.7991 46.2804 37.4244 46.3411 37.0493 46.3237H16.8993C16.275 46.3497 15.6612 46.1576 15.1631 45.7805C14.665 45.4033 14.3136 44.8646 14.1693 44.2567C14.1066 44.0059 14.076 43.7482 14.0783 43.4897C14.0783 38.9267 14.0783 34.3615 14.0783 29.7942C14.0598 29.4183 14.12 29.0426 14.2551 28.6913C14.3902 28.3399 14.5971 28.0207 14.8626 27.7539C15.1282 27.4872 15.4465 27.2788 15.7972 27.1421C16.1479 27.0054 16.5233 26.9435 16.8993 26.9602H26.9743M26.9743 25.0102H16.8993C16.268 24.9969 15.6405 25.1116 15.0548 25.3474C14.4691 25.5833 13.9372 25.9354 13.4913 26.3825C13.0454 26.8296 12.6947 27.3624 12.4605 27.9488C12.2262 28.5352 12.1132 29.1629 12.1283 29.7942C12.1283 34.3572 12.1283 38.9224 12.1283 43.4897C12.1224 43.9004 12.1638 44.3105 12.2518 44.7117C12.5026 45.7472 13.1006 46.6656 13.9463 47.3137C14.7919 47.9619 15.8342 48.3007 16.8993 48.2737H37.0493C37.6786 48.2879 38.3043 48.1746 38.8886 47.9406C39.473 47.7067 40.004 47.357 40.4498 46.9125C40.8955 46.468 41.2466 45.9379 41.4822 45.3542C41.7177 44.7704 41.8327 44.1451 41.8203 43.5157C41.8203 38.9354 41.8203 34.3507 41.8203 29.7617C41.8318 29.1329 41.7162 28.5083 41.4802 27.9253C41.2443 27.3423 40.893 26.813 40.4474 26.3692C40.0018 25.9254 39.471 25.5763 38.8871 25.3427C38.3032 25.1092 37.678 24.9961 37.0493 25.0102H26.9743Z" fill="#E8EEF1"/>
        <path d="M26.975 51.8617H20.5725C20.4178 51.8773 20.2618 51.8528 20.1194 51.7905C19.9771 51.7282 19.8532 51.6302 19.7597 51.5061C19.6663 51.3819 19.6064 51.2357 19.586 51.0817C19.5655 50.9277 19.5852 50.7709 19.643 50.6267C19.6899 50.4538 19.7922 50.301 19.9343 50.1918C20.0763 50.0826 20.2503 50.023 20.4295 50.0222C20.9292 50.0438 21.4222 49.901 21.8331 49.6157C22.244 49.3305 22.55 48.9184 22.7045 48.4427C22.7287 48.3539 22.7841 48.2769 22.8605 48.2256C22.9369 48.1743 23.0291 48.1521 23.1205 48.1632C25.6771 48.1632 28.2316 48.1632 30.784 48.1632C30.992 48.1632 31.0895 48.1957 31.1675 48.4232C31.3362 48.8864 31.6429 49.2868 32.0462 49.5703C32.4495 49.8539 32.93 50.0071 33.423 50.0092C33.5755 50.0039 33.7269 50.037 33.8633 50.1056C33.9997 50.1741 34.1166 50.2759 34.2034 50.4015C34.2901 50.527 34.3439 50.6724 34.3597 50.8242C34.3755 50.976 34.3529 51.1294 34.294 51.2702C34.23 51.4584 34.1035 51.619 33.9356 51.7254C33.7677 51.8319 33.5685 51.8776 33.371 51.8552H26.975V51.8617Z" fill="#FFBC0A"/>
        <path d="M26.8766 36.6387C27.2146 35.8327 27.5266 35.0852 27.8321 34.3377L27.9881 33.9607C28.051 33.8091 28.1544 33.6776 28.2869 33.5806C28.4194 33.4837 28.576 33.425 28.7396 33.4109C28.9032 33.3968 29.0675 33.4279 29.2147 33.5008C29.3618 33.5737 29.4861 33.6856 29.5741 33.8242C30.0486 34.5262 30.5101 35.2347 30.9586 35.9432C30.9979 36.023 31.0608 36.0888 31.1386 36.1318C31.2165 36.1748 31.3056 36.1929 31.3941 36.1837C32.6941 36.1837 33.9811 36.1837 35.2551 36.1837C35.4076 36.1754 35.5598 36.2059 35.6973 36.2723C35.8349 36.3387 35.9534 36.439 36.0417 36.5636C36.13 36.6883 36.1852 36.8333 36.2023 36.9851C36.2193 37.1369 36.1976 37.2906 36.1391 37.4317C36.0882 37.6038 35.9827 37.7547 35.8384 37.8614C35.6941 37.9681 35.519 38.0249 35.3396 38.0232C33.7752 38.0232 32.2087 38.0232 30.6401 38.0232C30.4788 38.0195 30.3211 37.9753 30.1814 37.8946C30.0416 37.814 29.9245 37.6995 29.8406 37.5617L29.0931 36.4047C28.9501 36.7492 28.8266 37.0547 28.7096 37.3407C28.4561 37.9517 28.2091 38.5692 27.9621 39.1802C27.8882 39.3798 27.758 39.5536 27.5872 39.6805C27.4164 39.8074 27.2124 39.882 27.0001 39.8952C26.7985 39.9033 26.6001 39.8437 26.4364 39.7259C26.2726 39.6081 26.153 39.4389 26.0966 39.2452C25.7326 38.5042 25.3621 37.7632 24.9916 37.0287L24.8616 36.7947C24.5301 37.1197 24.2116 37.4447 23.8801 37.7372C23.8017 37.8338 23.7026 37.9115 23.59 37.9644C23.4775 38.0173 23.3544 38.0441 23.2301 38.0427H18.6801C18.5528 38.0534 18.4247 38.0376 18.3038 37.9962C18.183 37.9549 18.072 37.8889 17.978 37.8024C17.884 37.716 17.8089 37.611 17.7575 37.494C17.7062 37.377 17.6797 37.2507 17.6797 37.123C17.6797 36.9952 17.7062 36.8689 17.7575 36.7519C17.8089 36.635 17.884 36.53 17.978 36.4435C18.072 36.3571 18.183 36.2911 18.3038 36.2497C18.4247 36.2083 18.5528 36.1925 18.6801 36.2032C19.9801 36.2032 21.2801 36.2032 22.5411 36.2032C22.6497 36.207 22.7579 36.1868 22.8578 36.1442C22.9578 36.1015 23.0472 36.0373 23.1196 35.9562C23.5226 35.5337 23.9386 35.1242 24.3546 34.7082C24.462 34.5761 24.6026 34.4749 24.7619 34.4148C24.9213 34.3548 25.0937 34.3382 25.2616 34.3666C25.4295 34.395 25.5868 34.4675 25.7175 34.5766C25.8482 34.6857 25.9476 34.8276 26.0056 34.9877C26.3111 35.5142 26.5841 36.0472 26.8766 36.6387Z" fill="#E8EEF1"/>
    </g>
    <defs>
        <clipPath id="clip0_6616_60510">
            <rect width="65" height="65" fill="white" transform="translate(0 0.511719)"/>
        </clipPath>
    </defs>
</svg>
