<svg width="94" height="93" viewBox="0 0 94 93" fill="none" xmlns="http://www.w3.org/2000/svg">
    <g clip-path="url(#clip0_6616_60311)">
        <path d="M75.873 42.0124H69.2609C67.112 42.0124 65.459 40.3594 65.459 38.2104V4.98461C65.459 2.83568 67.112 1.18266 69.2609 1.18266H75.873C78.022 1.18266 79.675 2.83568 79.675 4.98461V38.2104C79.675 40.3594 78.022 42.0124 75.873 42.0124Z" fill="#FFBC0A"/>
        <path d="M52.2344 24.8209V18.2087C52.2344 16.0598 53.8874 14.4068 56.0363 14.4068H89.2621C91.4111 14.4068 93.0641 16.0598 93.0641 18.2087V24.8209C93.0641 26.9698 91.4111 28.6228 89.2621 28.6228H56.0363C53.8874 28.6228 52.2344 26.9698 52.2344 24.8209Z" fill="#FFBC0A"/>
        <path d="M8.09756 24.4904H67.2759C70.2513 24.4904 72.7309 26.97 72.7309 30.1107V85.8177C72.7309 88.9584 70.2513 91.438 67.2759 91.438H8.09756C5.12212 91.438 2.64258 88.9584 2.64258 85.8177V30.276C2.64258 27.1353 5.12212 24.4904 8.09756 24.4904Z" fill="url(#paint0_linear_6616_60311)" stroke="#56585A" stroke-width="3.30605" stroke-linecap="round" stroke-linejoin="round"/>
        <path d="M15.5371 49.4512H28.4307C29.4225 49.4512 30.249 50.2777 30.249 51.2695V65.9814C30.249 66.9733 29.4225 67.7998 28.4307 67.7998H15.5371C14.5453 67.7998 13.7188 66.9733 13.7188 65.9814V51.2695C13.7188 50.2777 14.5453 49.4512 15.5371 49.4512Z" stroke="#56585A" stroke-width="3.30605" stroke-linecap="round" stroke-linejoin="round"/>
        <path d="M57.8545 84.4953H44.9609C43.9691 84.4953 43.1426 83.6688 43.1426 82.6769V67.965C43.1426 66.9732 43.9691 66.1467 44.9609 66.1467H57.8545C58.8463 66.1467 59.6728 66.9732 59.6728 67.965V82.6769C59.6728 83.6688 58.8463 84.4953 57.8545 84.4953Z" stroke="#56585A" stroke-width="3.30605" stroke-linecap="round" stroke-linejoin="round"/>
        <path d="M30.249 84.4951V78.7095C30.249 77.7177 29.4225 76.8911 28.4307 76.8911H15.5371C14.5453 76.8911 13.7188 77.7177 13.7188 78.7095V84.4951" stroke="#56585A" stroke-width="3.30605" stroke-linecap="round" stroke-linejoin="round"/>
        <path d="M43.1426 49.4512V54.9062C43.1426 55.898 43.9691 56.7245 44.9609 56.7245H57.8545C58.8463 56.7245 59.6728 55.898 59.6728 54.9062V49.4512" stroke="#56585A" stroke-width="3.30605" stroke-linecap="round" stroke-linejoin="round"/>
        <path d="M66.7807 91.7687H8.59418C5.28813 91.7687 2.80859 89.1239 2.80859 85.9831V30.4415C2.80859 27.1354 5.45343 24.6559 8.59418 24.6559H66.7807C70.0867 24.6559 72.5663 27.3007 72.5663 30.4415V85.8178C72.5663 89.1239 69.9214 91.7687 66.7807 91.7687Z" stroke="#56585A" stroke-width="3.30605" stroke-linecap="round" stroke-linejoin="round"/>
        <path d="M2.64258 42.0126H72.5656" stroke="#56585A" stroke-width="3.30605" stroke-linecap="round" stroke-linejoin="round"/>
        <path d="M53.0612 33.7474H47.7715" stroke="#56585A" stroke-width="4.95908" stroke-linecap="round" stroke-linejoin="round"/>
    </g>
    <defs>
        <linearGradient id="paint0_linear_6616_60311" x1="37.6867" y1="95.9231" x2="37.6867" y2="73.4821" gradientUnits="userSpaceOnUse">
            <stop stop-color="#FFD546"/>
            <stop offset="1" stop-color="#FFD546" stop-opacity="0"/>
        </linearGradient>
        <clipPath id="clip0_6616_60311">
            <rect width="92.5694" height="92.5694" fill="white" transform="translate(0.990234 0.190788)"/>
        </clipPath>
    </defs>
</svg>
