<svg width="81" height="82" viewBox="0 0 81 82" fill="none" xmlns="http://www.w3.org/2000/svg">
    <path d="M42.4127 66.2785V63.3799C42.4127 61.8739 41.4492 59.947 41.4492 55.6557C41.4492 52.8219 46.9144 48.5712 46.9144 48.5712L52.072 45.0411C55.5131 40.8794 54.501 39.252 59.7962 39.252C59.3874 41.5744 58.7389 43.8483 57.8611 46.037C57.8611 46.037 54.8491 48.9355 53.0031 50.8949" stroke="#151616" stroke-width="2.42899" stroke-linecap="round" stroke-linejoin="round"/>
    <path d="M59.7978 39.2519V37.3168C59.7978 37.3168 58.8262 28.5724 63.6599 28.5724L64.6234 37.2601C64.6234 37.2601 63.6599 46.6036 63.6599 47.9396C63.6599 49.8666 53.0371 56.5625 53.0371 61.4204V66.2784" stroke="#151616" stroke-width="2.42899" stroke-linecap="round" stroke-linejoin="round"/>
    <path d="M38.5592 66.2785V63.3799C38.5592 61.8739 39.5227 59.947 39.5227 55.6557C39.5227 52.8219 34.0575 48.5712 34.0575 48.5712L28.9 45.0411C25.4589 40.8794 26.471 39.252 21.1758 39.252C21.5845 41.5744 22.233 43.8483 23.1109 46.037C23.1109 46.037 26.1228 48.9355 27.9688 50.8949" stroke="#151616" stroke-width="2.42899" stroke-linecap="round" stroke-linejoin="round"/>
    <path d="M21.1771 39.2519V37.3168C21.1771 37.3168 22.1487 28.5724 17.3151 28.5724L16.3516 37.2601C16.3516 37.2601 17.3151 46.6036 17.3151 47.9396C17.3151 49.8666 27.9378 56.5625 27.9378 61.4204V66.2784" stroke="#151616" stroke-width="2.42899" stroke-linecap="round" stroke-linejoin="round"/>
    <path d="M40.4867 25.2936C41.8793 21.1238 45.4175 16.0796 50.1379 16.0796C54.0566 16.0796 57.862 19.2616 57.862 24.6378C57.862 30.6131 50.7856 39.3898 40.4867 45.0412C30.1878 39.3736 23.1113 30.6131 23.1113 24.6378C23.1113 19.2616 26.9167 16.0796 30.8355 16.0796C35.5558 16.0796 39.0941 21.1238 40.4867 25.2936Z" fill="url(#paint0_linear_6616_60286)"/>
    <defs>
        <linearGradient id="paint0_linear_6616_60286" x1="51.3408" y1="16.0796" x2="21.6288" y2="25.1066" gradientUnits="userSpaceOnUse">
            <stop stop-color="#00E925"/>
            <stop offset="1" stop-color="#21AC27"/>
        </linearGradient>
    </defs>
</svg>
