<svg width="60" height="60" viewBox="0 0 60 60" fill="none" xmlns="http://www.w3.org/2000/svg">
    <g clip-path="url(#clip0_6616_60453)">
        <path d="M54.0154 0.122314H6.3715C3.08238 0.122314 0.416016 2.78868 0.416016 6.0778V53.7217C0.416016 57.0108 3.08238 59.6772 6.3715 59.6772H54.0154C57.3045 59.6772 59.9709 57.0108 59.9709 53.7217V6.0778C59.9709 2.78868 57.3045 0.122314 54.0154 0.122314Z" fill="#FDE6E7"/>
        <path d="M34.2913 46.2775C34.2931 45.1699 34.0224 44.0789 33.5031 43.1006C32.9838 42.1223 32.2319 41.2867 31.3136 40.6674C31.2411 40.6303 31.1844 40.5684 31.1538 40.493C31.1232 40.4175 31.1207 40.3336 31.1468 40.2565C31.6233 37.8029 32.0997 35.3432 32.5761 32.8777C32.6119 32.6871 32.6952 32.6216 32.8918 32.6216C34.4283 32.6216 35.9589 32.6216 37.4954 32.6216C39.1734 32.6479 40.7746 33.3291 41.9574 34.5196C43.1401 35.7102 43.8107 37.3158 43.8261 38.994C43.8261 40.59 43.8261 42.1861 43.8261 43.7583C43.8509 44.3222 43.6748 44.8765 43.329 45.3226C42.9833 45.7687 42.4904 46.0776 41.9382 46.1941C41.9002 46.2072 41.8642 46.2252 41.831 46.2477L34.2913 46.2775Z" fill="url(#paint0_linear_6616_60453)"/>
        <path d="M18.5559 46.2777C18.4844 46.2777 18.4189 46.2241 18.3474 46.2062C17.8432 46.0761 17.3955 45.7844 17.0729 45.3757C16.7502 44.9669 16.5703 44.4638 16.5608 43.9431C16.5608 42.2398 16.5251 40.5366 16.5608 38.8333C16.6246 37.3733 17.1837 35.9785 18.1461 34.8787C19.1084 33.7789 20.4166 33.0396 21.8552 32.7825L22.29 32.7111L23.1118 39.4884C22.8793 39.5438 22.6638 39.6552 22.4842 39.813C22.3046 39.9708 22.1664 40.1701 22.0815 40.3936C22.0119 40.5985 21.9925 40.8172 22.025 41.0311C22.0574 41.2451 22.1407 41.4482 22.2679 41.6232C22.3952 41.7983 22.5625 41.9403 22.756 42.0372C22.9495 42.1341 23.1634 42.1832 23.3798 42.1803C24.7139 42.1803 26.0419 42.1803 27.376 42.1803C28.3659 42.1571 29.3306 42.4947 30.0899 43.1303C30.8493 43.7658 31.3516 44.6559 31.5031 45.6345C31.53 45.8458 31.542 46.0587 31.5388 46.2717L18.5559 46.2777Z" fill="url(#paint1_linear_6616_60453)"/>
        <path d="M30.1925 29.8995H24.5646C24.2214 29.9256 23.8766 29.877 23.554 29.757C23.2314 29.6371 22.9386 29.4486 22.6958 29.2047C22.453 28.9608 22.2659 28.6671 22.1474 28.3439C22.029 28.0208 21.982 27.6758 22.0097 27.3327C22.0097 25.4924 22.0097 23.6462 22.0097 21.806C21.9933 19.7539 22.7486 17.7706 24.1258 16.2492C25.5031 14.7279 27.4016 13.7795 29.4452 13.5922C31.4888 13.4048 33.5281 13.9922 35.159 15.2378C36.7899 16.4834 37.8932 18.2963 38.2503 20.3171C38.3307 20.8234 38.3725 21.3351 38.3753 21.8477C38.3753 23.676 38.3753 25.5103 38.3753 27.3446C38.4013 27.6873 38.3528 28.0315 38.2332 28.3536C38.1136 28.6758 37.9257 28.9683 37.6825 29.211C37.4392 29.4537 37.1463 29.6409 36.8238 29.7597C36.5014 29.8786 36.1571 29.9263 35.8145 29.8995H30.1925ZM25.1065 24.4681C25.1517 25.7923 25.7096 27.0472 26.6624 27.968C27.6151 28.8888 28.8883 29.4035 30.2133 29.4035C31.5383 29.4035 32.8115 28.8888 33.7643 27.968C34.7171 27.0472 35.2749 25.7923 35.3202 24.4681C32.4079 24.3252 30.7106 22.8244 30.1925 19.9836C30.0721 21.2386 29.479 22.4008 28.5335 23.2346C27.588 24.0685 26.3607 24.5116 25.1006 24.4741L25.1065 24.4681Z" fill="url(#paint2_radial_6616_60453)"/>
        <path d="M28.5136 39.4818H25.8575L25.0059 32.6627H29.8298L28.5136 39.4818Z" fill="url(#paint3_radial_6616_60453)"/>
    </g>
    <defs>
        <linearGradient id="paint0_linear_6616_60453" x1="34.9373" y1="31.7893" x2="43.24" y2="41.6956" gradientUnits="userSpaceOnUse">
            <stop stop-color="#F44F4F"/>
            <stop offset="0.4429" stop-color="#EE3D3D"/>
            <stop offset="1" stop-color="#FC0E1C"/>
        </linearGradient>
        <linearGradient id="paint1_linear_6616_60453" x1="21.0416" y1="31.8843" x2="28.9326" y2="43.0741" gradientUnits="userSpaceOnUse">
            <stop stop-color="#F44F4F"/>
            <stop offset="0.4429" stop-color="#EE3D3D"/>
            <stop offset="1" stop-color="#FC0E1C"/>
        </linearGradient>
        <radialGradient id="paint2_radial_6616_60453" cx="0" cy="0" r="1" gradientUnits="userSpaceOnUse" gradientTransform="translate(38.3821 28.8849) rotate(-136.903) scale(22.4327 98.3346)">
            <stop stop-color="#F20101"/>
            <stop offset="1" stop-color="#981E13"/>
        </radialGradient>
        <radialGradient id="paint3_radial_6616_60453" cx="0" cy="0" r="1" gradientUnits="userSpaceOnUse" gradientTransform="translate(29.8298 39.0556) rotate(-127.038) scale(8.00867 33.8336)">
            <stop stop-color="#F20101"/>
            <stop offset="1" stop-color="#981E13"/>
        </radialGradient>
        <clipPath id="clip0_6616_60453">
            <rect width="59.5549" height="59.5549" fill="white" transform="translate(0.416016 0.122437)"/>
        </clipPath>
    </defs>
</svg>
