<svg width="288" height="226" viewBox="0 0 288 226" fill="none" xmlns="http://www.w3.org/2000/svg">
    <g clip-path="url(#clip0_6616_60779)">
        <mask id="mask0_6616_60779" style="mask-type:luminance" maskUnits="userSpaceOnUse" x="0" y="0" width="288" height="226">
            <path d="M287.779 0.0732422H0.0078125V225.6H287.779V0.0732422Z" fill="white"/>
        </mask>
        <g mask="url(#mask0_6616_60779)">
            <path d="M131.208 225.599C190.994 225.599 239.46 177.133 239.46 117.347C239.46 57.5606 190.994 9.09424 131.208 9.09424C71.4214 9.09424 22.9551 57.5606 22.9551 117.347C22.9551 177.133 71.4214 225.599 131.208 225.599Z" fill="#F0F9FF"/>
            <path d="M67.3468 57.2232C67.1017 55.8757 66.9781 53.8445 65.4437 53.4194C65.3973 53.3776 65.342 53.3476 65.2823 53.332C65.2225 53.3165 65.16 53.3158 65.1 53.33C61.7576 54.0405 59.4834 56.8704 58.6091 60.1646C58.081 62.1492 58.3582 64.3507 57.5244 66.2335C56.9403 67.5505 56.0768 68.7756 56.3136 70.2995C56.4967 71.478 57.2365 72.2082 58.3713 72.3527C59.1563 72.4519 59.7724 72.4397 60.5122 72.7606C60.8046 72.9034 61.1098 73.0167 61.4233 73.0987C62.1346 73.2376 62.8696 73.1609 63.5393 72.8783C66.7021 71.6018 67.8 67.2933 67.9724 64.1644C68.1033 61.8343 67.7619 59.5067 67.3468 57.2232Z" fill="#42241E"/>
            <path d="M51.6679 101.502C51.1199 100.809 50.0175 99.5504 49.0677 99.3538C48.0119 99.1328 46.6551 100.345 45.8337 100.853C43.1928 102.491 40.6547 104.284 38.2333 106.222C36.8954 107.291 33.6514 109.115 34.9061 111.203C34.9529 111.288 35.0269 111.354 35.1164 111.393C35.206 111.432 35.3061 111.441 35.4013 111.419C37.9209 113.341 40.5463 114.654 43.6455 113.022C46.6841 111.42 48.73 108.378 51.4675 106.453C51.5282 106.452 51.588 106.44 51.6431 106.415C51.6982 106.39 51.7475 106.354 51.7875 106.309C51.8354 106.259 51.8757 106.208 51.9135 106.158C52.0483 106.076 52.1806 105.993 52.323 105.919C52.3824 105.89 52.4341 105.847 52.4745 105.795C52.5148 105.742 52.5426 105.682 52.5557 105.618C52.5687 105.554 52.5668 105.487 52.5502 105.424C52.5334 105.361 52.5023 105.302 52.459 105.252C52.9391 104.018 52.5422 102.607 51.6679 101.502Z" fill="#C25C42"/>
            <path d="M83.8187 85.3277C83.8583 85.2027 83.8443 85.0682 83.7799 84.9526C83.7154 84.837 83.6053 84.7494 83.4731 84.7082C80.2209 83.67 76.7573 83.1499 73.3177 83.3301C72.2558 83.3857 71.4376 83.5444 71.1169 84.604C70.7484 85.8195 71.1169 87.1538 71.677 88.2632C72.7264 90.3539 74.7804 92.1301 77.4246 91.5392C78.7551 91.2424 79.7274 90.3439 80.6102 89.4193C81.7231 88.2505 82.7694 87.034 83.7844 85.7942C83.8446 85.731 83.8806 85.6509 83.8869 85.5665C83.8931 85.482 83.8691 85.398 83.8187 85.3277Z" fill="#C25C42"/>
            <path d="M84.6137 82.7908C81.0118 76.2574 76.8879 68.9136 79.631 61.5473L79.6692 61.4771C80.0586 60.771 78.9767 60.1385 78.5872 60.846C75.4672 66.5057 68.3841 77.562 68.9325 77.3037C70.723 79.3634 73.4549 86.7063 73.8936 86.6976C77.0371 86.6386 81.3001 84.8283 84.2391 83.7111C84.6199 83.5659 84.8245 83.1722 84.6137 82.7908Z" fill="#C25C42"/>
            <path d="M76.1192 64.1445C72.8431 70.0717 68.5032 77.4207 68.9318 77.2111C69.6815 78.2496 70.7006 80.2341 71.6482 82.2365C75.5512 77.7997 75.5647 70.4021 76.1192 64.1445Z" fill="#A34027"/>
            <path d="M99.6306 124.748L99.3212 131.871C100.786 137.535 101.474 143.374 101.367 149.225C101.248 154.997 101.494 206.953 101.041 221.313C93.397 219.063 84.8937 215.427 81.4939 213.503C81.1844 199.996 80.9173 182.528 80.7806 182.083C80.33 180.621 80.1054 179.093 79.9617 177.574C79.8132 175.961 79.7383 174.337 79.7162 172.709C79.6032 173.131 79.4915 173.556 79.3847 173.981C78.8613 176.05 77.257 202.568 76.1153 210.522C66.3135 205.085 54.8255 194.573 50.9668 189.959C51.7405 183.398 52.5542 177.361 52.8853 175.878C54.0566 170.608 55.2303 165.325 56.3979 160.066C57.5655 154.809 58.603 149.499 59.9425 144.28C60.9751 140.265 62.6866 136.634 64.9408 133.224C64.867 133.142 64.8258 133.036 64.8254 132.926C64.7583 130.248 64.8168 127.574 65.0009 124.902C65.0035 124.84 65.0183 124.78 65.0444 124.724C65.0706 124.668 65.1076 124.618 65.1532 124.577C65.1376 124.51 65.1372 124.44 65.1519 124.372C65.1667 124.304 65.1963 124.241 65.2386 124.186C65.2809 124.132 65.3347 124.088 65.3962 124.056C65.4577 124.026 65.5252 124.009 65.594 124.008L85.833 123.844C89.6858 123.804 94.0042 123.255 97.7695 124.446C97.8697 124.477 97.9698 124.508 98.0699 124.542C98.2792 124.616 98.4876 124.691 98.6942 124.776V124.748C98.7222 124.14 99.6586 124.14 99.6306 124.748Z" fill="#ED5500"/>
            <path d="M65.3744 153.958C65.0073 158.52 63.6683 162.896 62.292 167.242C61.5603 169.558 60.82 171.868 60.2213 174.221C59.6228 176.573 59.2022 178.96 58.8264 181.357C58.0798 186.147 56.4568 195.605 56.4568 195.605L56.2383 195.4C56.2383 195.4 57.8993 184.907 58.8165 179.452C59.6041 174.766 61.0103 170.291 62.4252 165.766C63.8488 161.213 64.9339 156.703 65.184 151.923C65.301 149.703 65.3769 147.465 65.8684 145.286C66.3363 143.207 67.2758 141.339 68.2925 139.481C69.3776 137.495 70.454 135.509 70.9057 133.261C71.4184 130.757 71.2977 128.171 71.1808 125.64C71.172 125.437 71.4881 125.437 71.498 125.64C71.6225 128.303 71.7383 131.012 71.1496 133.634C70.627 135.968 69.4336 138.026 68.3037 140.114C67.2024 142.15 66.3289 144.202 65.953 146.495C65.5511 148.966 65.5735 151.473 65.3744 153.958Z" fill="#F79675"/>
            <path d="M73.7795 153.687C73.2576 158.28 71.208 162.464 70.3364 166.971C69.8652 169.415 69.6862 171.906 69.3941 174.375C69.1215 176.621 68.7023 178.845 68.1396 181.029C67.1266 185.006 63.1727 201.497 63.1727 201.497L62.9648 201.323C62.9648 201.323 67.0724 184.265 68.1231 179.823C69.2256 175.189 69.208 170.369 70.2893 165.744C71.3624 161.16 73.492 156.795 73.5875 151.994C73.6358 149.768 73.2883 147.557 73.3271 145.332C73.366 143.214 73.8937 141.484 74.8844 139.662C76.0622 137.481 76.1517 135.026 76.4156 132.579L77.272 124.737C77.2932 124.538 77.5924 124.533 77.5712 124.737C77.2508 127.664 76.9315 130.592 76.6135 133.521C76.484 134.692 76.3967 135.879 76.1754 137.036C75.9397 138.239 75.4568 139.229 74.8879 140.28C72.6228 144.46 74.2882 149.163 73.7795 153.687Z" fill="#F79675"/>
            <path d="M80.6273 149.148C79.9966 152.5 79.3671 155.849 78.7388 159.196C77.5989 165.252 76.4603 171.306 75.3229 177.356C74.7509 180.412 74.1773 183.462 73.6019 186.509C73.3647 187.763 69.5551 206.352 69.5551 206.352L69.2578 206.127C69.2578 206.127 73.2033 186.929 73.5323 185.181C75.7964 173.144 78.0596 161.104 80.3219 149.059C80.3591 148.856 80.6658 148.941 80.6273 149.148Z" fill="#F79675"/>
            <path d="M85.6169 132.51C85.4806 134.664 85.1413 137.09 85.4044 139.237C85.5121 140.118 85.7159 140.957 85.8273 141.834C85.9261 142.627 85.9842 143.433 86.001 144.244C86.0435 146.002 85.9277 147.756 85.7863 149.494C85.6397 151.305 85.4755 153.114 85.4286 154.933C85.3801 156.893 85.5407 158.808 85.6953 160.744C85.9974 164.523 85.9599 168.333 85.9768 172.138C85.99 175.439 85.3946 215.427 85.3946 215.427L85.2384 215.354L85.7826 170.577C85.7738 168.633 85.7774 166.688 85.7247 164.745C85.6726 162.847 85.5201 160.984 85.3765 159.104C85.2283 157.245 85.2037 155.365 85.3032 153.498C85.4 151.724 85.5773 149.97 85.6969 148.2C85.8236 146.346 85.8962 144.455 85.7247 142.601C85.5642 140.847 85.1061 139.264 85.1427 137.461C85.1823 135.496 85.367 133.517 85.4894 131.561L85.8559 125.639C85.8691 125.438 86.0553 125.438 86.0421 125.639C85.9053 127.933 85.7635 130.224 85.6169 132.51Z" fill="#F79675"/>
            <path d="M93.1855 165.81L93.2135 218.641L92.9654 218.531L92.8752 164.406C92.8481 160.904 92.9735 157.347 92.4918 153.871C92.0362 150.594 91.2676 147.482 91.5211 144.139C91.6375 142.552 91.872 140.967 91.872 139.371C91.872 137.682 91.55 136.024 91.4688 134.343C91.3091 131.094 92.6018 127.988 92.3393 124.738C92.3213 124.535 92.619 124.535 92.637 124.738C92.7795 126.523 92.4611 128.258 92.1544 130.001C91.8206 131.914 91.6754 133.738 91.8747 135.673C92.0443 137.312 92.2257 138.913 92.1273 140.565C92.029 142.216 91.7908 143.838 91.7466 145.484C91.6636 148.879 92.6902 152.157 92.9735 155.518C93.2595 158.93 93.1584 162.388 93.1855 165.81Z" fill="#F79675"/>
            <path d="M99.134 169.289C98.9869 169.421 98.8363 169.557 98.6775 169.691C98.9094 167.979 99.0591 166.264 99.1259 164.547C99.3938 157.836 97.9513 151.245 97.4624 144.566C96.9816 138.115 96.2527 131.422 97.8332 125.035L97.9189 124.697C97.9721 124.502 98.3636 124.587 98.314 124.777C98.2815 124.899 98.2526 125.013 98.2256 125.131C97.3117 128.851 97.2639 132.637 97.4236 136.403C97.5535 139.73 97.7177 143.06 98.019 146.382C98.3203 149.729 98.9193 153.053 99.2702 156.396C99.7176 160.688 99.6725 165.002 99.134 169.289Z" fill="#F79675"/>
            <path d="M103.987 101.018C105.689 102.952 107.728 104.621 109.615 106.366C110.04 106.759 112.338 108.523 113.288 109.25C115.442 108.289 116.985 107.828 119.302 107.447C119.872 107.353 120.609 106.662 121.226 106.626C117.533 102.117 111.241 96.5484 109.555 94.0857C109.313 93.7276 108.527 94.0225 108.211 94.1516C108.123 94.129 108.031 94.1362 107.948 94.1723C106.107 94.912 104.264 95.9377 102.865 97.3829C102.42 97.8466 102.156 98.0568 102.341 98.6882C102.584 99.4902 103.445 100.4 103.987 101.018Z" fill="#C25C42"/>
            <path d="M80.609 59.3978C80.5248 58.1212 80.1483 56.8972 79.3125 55.8244C77.8519 53.9489 75.4989 52.9199 73.2024 52.536C69.4916 51.9109 65.0529 53.8001 62.9924 56.9847C60.7247 60.4856 60.5038 65.8544 61.0058 69.8718C61.3823 72.9239 62.3084 76.7311 65.442 78.0914C68.8641 79.5755 72.093 77.3612 74.8287 75.5145C75.0008 75.413 75.1524 75.2803 75.2755 75.1231C75.3601 74.9845 75.4222 74.8334 75.46 74.6756C76.0698 72.625 77.2997 70.8458 77.9937 68.814C78.7466 66.9022 79.6891 65.0443 80.2023 63.035C80.506 61.8372 80.6942 60.5931 80.609 59.3978Z" fill="#C25C42"/>
            <path d="M43.1288 107.617C41.2086 105.221 37.7777 103.445 35.6576 101.845C31.7718 98.9101 27.9633 95.649 25.696 91.2188C25.7561 90.9869 18.2911 96.3328 18.3757 96.5439C18.3867 96.6368 23.7955 103.04 26.4453 106.151C28.7517 108.862 30.9368 112.059 33.735 114.277C36.0647 116.12 38.4853 116.213 41.2148 115.257C43.8168 114.342 44.3526 109.144 43.1288 107.617Z" fill="#C25C42"/>
            <path d="M123.733 106.895C123.733 106.895 106.869 90.3887 102.615 86.6918C100.515 84.8641 98.5296 83.9211 95.5716 82.9382C91.393 81.5495 88.5649 81.732 84.3319 82.0244C83.2547 83.7264 79.9377 85.5964 77.6443 86.6918C77.0536 86.9752 76.3295 87.4953 75.6919 87.6265C73.632 88.0473 73.3614 87.023 72.8103 85.762C72.2962 84.5856 71.8202 83.632 71.8202 83.632C71.8202 83.632 68.2617 84.647 65.7344 85.762C55.3884 90.3264 52.2348 97.1238 41.2505 103.372C41.1368 103.574 59.743 112.508 59.743 112.508C59.4862 110.723 59.9874 113.253 59.743 112.508C60.278 116.228 61.4379 117.855 61.6616 119.571C61.9854 122.097 61.9582 125.276 63.1667 127.564C64.1751 129.471 65.8025 129.7 67.761 129.289C71.9846 128.405 81.1686 125.934 85.3452 127.103C87.4879 127.702 89.5688 128.558 91.7818 128.882C95.3334 129.404 100.991 129.17 102.612 125.816C104.465 121.993 102.071 116.565 101.546 112.459C101.267 110.286 100.881 108.128 100.412 105.987C101.092 106.461 107.87 111.425 108.566 111.861C108.675 111.936 123.733 106.895 123.733 106.895Z" fill="#FFC157"/>
            <path d="M59.7442 112.508C59.7442 112.508 41.1379 103.574 41.2516 103.372C41.2516 103.372 38.1586 103.128 34.9982 101.096C33.6834 106.622 31.6074 114.706 31.6074 114.706C32.9745 117.737 40.1794 118.72 41.6865 118.72C48.0299 118.72 59.7442 112.508 59.7442 112.508Z" fill="#FFC157"/>
            <path fill-rule="evenodd" clip-rule="evenodd" d="M41.0563 103.239C40.8149 103.3 40.6689 103.545 40.7302 103.787C41.0547 105.064 40.3385 106.437 39.6829 107.192C39.5194 107.379 39.5395 107.664 39.7275 107.828C39.9155 107.991 40.2004 107.971 40.3638 107.783C41.0932 106.944 42.0377 105.268 41.6046 103.564C41.5432 103.323 41.2978 103.177 41.0563 103.239Z" fill="#DC9215"/>
            <path d="M118.826 106.453C116.415 106.923 114.063 107.65 111.813 108.623C112.215 108.927 112.552 109.191 112.746 109.366C112.129 109.498 98.0751 112.51 92.1347 113.078C91.8866 113.101 91.6368 113.101 91.3887 113.078C92.464 114.544 94.9953 118.437 95.0918 118.004C101.526 119.145 108.077 118.512 114.404 116.993C116.002 116.61 123.286 114.699 124.6 111.59C125.119 110.358 123.874 108.365 121.851 106.09C120.835 106.137 119.824 106.259 118.826 106.453Z" fill="#C25C42"/>
            <path d="M29.6361 99.1005C28.7723 97.3694 27.1731 96.4528 25.9651 95.0004C25.0622 93.9134 26.2584 87.3886 26.1572 85.5861C26.0802 84.238 25.9399 83.0399 26.0654 81.6783C26.1248 81.0431 26.2368 80.0702 25.8157 79.4993C25.149 78.6067 24.2893 79.5529 23.9411 80.2525C23.8273 80.4864 23.7469 80.7349 23.7022 80.9908C23.1975 80.3409 22.5969 79.7485 22.0975 79.1147C21.1096 77.8657 20.3754 76.4505 19.6938 75.0192C19.3983 74.4001 18.2834 71.6167 17.5344 73.6041C17.054 74.8652 17.6019 76.7078 18.0446 77.9045C18.4872 79.1013 19.1243 80.1131 19.791 81.1503C18.7275 80.5539 17.3617 80.2873 17.139 81.5256C15.9959 80.4829 14.5234 80.6411 14.0443 82.0482C13.3924 81.8057 13.3263 82.2278 12.7514 82.6834C12.0401 83.2463 12.1562 84.4591 12.2898 85.2296C12.6946 87.5213 13.5382 87.7317 15.1779 89.3157C15.3345 90.4601 15.4929 91.604 15.6531 92.7461C15.8096 93.8466 15.892 95.2016 16.946 95.8583C17.5573 96.2372 19.1162 96.8055 19.791 96.9183C20.9787 97.1159 20.7749 97.3829 21.5482 98.2191C22.7106 99.4559 24.0542 100.511 25.5337 101.35C25.9751 101.605 26.3097 101.098 26.1775 100.707C27.2869 100.475 28.1851 100.563 29.2474 100.17C29.3541 100.135 29.4439 100.063 29.4993 99.9656C29.5547 99.8691 29.5717 99.7545 29.547 99.6463C29.6252 99.5813 29.6771 99.4902 29.6935 99.3901C29.7099 99.2899 29.6895 99.1871 29.6361 99.1005Z" fill="#C25C42"/>
            <path d="M23.9686 83.0053C24.0736 82.8012 23.729 82.6152 23.6225 82.8285C23.1669 83.7152 23.4939 84.5383 23.5752 85.4615C23.7009 86.9152 22.4571 87.4547 21.5222 88.4222C20.8739 89.1082 20.4223 89.921 20.2052 90.7925C19.9883 91.664 20.0124 92.5679 20.2754 93.4294C20.2914 93.4727 20.3258 93.5088 20.3713 93.5304C20.4169 93.5521 20.4701 93.5575 20.52 93.5449C20.57 93.5331 20.6126 93.5043 20.6392 93.4655C20.6659 93.4267 20.6743 93.3798 20.6629 93.3356C19.9959 91.0722 21.0564 89.2764 22.8815 87.7447C23.4317 87.2832 23.8769 86.789 23.9716 86.1064C24.1151 85.0649 23.448 84.0156 23.9686 83.0053Z" fill="#A34027"/>
            <path d="M21.701 85.5889C21.3728 85.9309 20.9937 86.3623 20.5692 86.5977C19.8052 87.012 19.3497 86.1558 18.9464 85.6244C18.2982 84.7601 17.758 83.83 17.3364 82.8519C17.2459 82.6428 16.8752 82.7348 16.9671 82.9466C17.5514 84.2881 18.3225 85.6034 19.3525 86.7003C19.3268 86.6984 19.3009 86.7015 19.2765 86.7094C19.2522 86.7173 19.2299 86.7299 19.211 86.7463C18.8035 87.0843 18.3282 87.4263 17.7962 87.5894C16.9374 87.8525 16.4762 87.2554 16.0121 86.7055C15.3484 85.9118 14.8477 85.0112 14.5351 84.0487C14.4616 83.8304 14.0923 83.9238 14.1659 84.1434C14.6073 85.4587 15.3755 86.8516 16.5272 87.7657C16.6643 87.8778 16.8267 87.9601 17.0025 88.0064C16.8717 88.3383 16.6456 88.6307 16.3489 88.8519C16.0521 89.073 15.696 89.2145 15.319 89.2611C15.077 89.2887 15.0741 89.6451 15.319 89.6162C15.7882 89.5653 16.232 89.3912 16.5985 89.1142C16.9651 88.8372 17.2393 88.4689 17.3888 88.0524C18.14 88.0352 18.9266 87.4526 19.4784 86.9936C19.4953 86.9801 19.5092 86.9636 19.5191 86.9451C19.5291 86.9266 19.535 86.9064 19.5364 86.8858C20.4164 87.6525 21.3331 86.503 21.9726 85.8335C22.1367 85.6704 21.8665 85.4179 21.701 85.5889Z" fill="#A34027"/>
            <path d="M95.5575 118.046C95.8263 117.754 96.6129 116.868 96.5922 116.813C95.9336 114.886 95.036 110.992 95.0712 110.874C95.3743 109.838 94.5002 109.624 93.7569 109.654C93.7956 109.581 93.8164 109.501 93.8182 109.418C93.8669 108.384 93.553 107.426 92.4443 107.553C91.8426 107.645 91.2517 107.803 90.6834 108.024C90.215 107.099 89.7449 106.175 89.2572 105.263C88.9448 104.68 88.7959 104.274 88.2353 104.288C88.0795 103.824 87.8625 103.383 87.5899 102.976C87.0599 102.239 86.3007 102.131 85.4816 101.943C83.9267 101.586 82.3689 101.244 80.8096 100.894C80.7108 100.871 80.6071 100.882 80.5159 100.927C80.4249 100.972 80.3522 101.047 80.3103 101.139C80.1971 101.232 80.1235 101.365 80.104 101.51C80.0845 101.655 80.1206 101.803 80.2052 101.923C81.6198 103.75 84.4392 103.526 85.4612 105.593C85.3021 105.645 82.1864 107.419 81.2549 108.304C81.1946 108.37 81.1517 108.45 81.1304 108.537C81.1089 108.623 81.1096 108.714 81.1323 108.801C81.4578 109.901 83.1222 109.63 83.9603 109.471C84.4742 109.373 84.9823 109.085 85.4744 108.844C85.0436 110.396 83.5281 111.535 81.8345 110.76C80.4664 110.131 80.0825 108.028 78.3056 108.354C78.2213 108.365 78.141 108.397 78.0714 108.447C78.0019 108.496 77.9451 108.561 77.9059 108.637C77.8666 108.712 77.846 108.796 77.8457 108.88C77.8453 108.966 77.8654 109.05 77.9042 109.126C78.7801 111.179 82.6798 115.227 83.5209 115.604C84.6552 116.112 85.9196 116.399 87.1008 116.782C87.1912 116.815 87.2907 116.815 87.3811 116.782C89.0047 117.188 95.3292 118.306 95.5575 118.046Z" fill="#C25C42"/>
            <path d="M87.5872 58.5808C86.9061 57.8295 86.0256 57.2758 85.0428 56.9807C84.6819 56.867 84.2673 56.8218 83.9252 56.6508C82.9919 56.1854 83.0483 55.0774 82.8767 54.2077C82.4658 52.0663 80.3924 50.8595 78.3955 50.3146C77.4641 50.0645 76.505 49.9259 75.5392 49.9017C74.894 49.8834 73.5874 50.2475 73.0337 49.9017C72.5526 49.6 72.1868 48.6203 71.6907 48.205C71.1375 47.7461 70.4914 47.4061 69.7944 47.2072C69.0973 47.0083 68.3651 46.9549 67.6455 47.0506C65.9029 47.2754 64.4384 48.2379 63.2972 49.5011C62.5279 50.3562 62.0569 51.1844 61.0284 51.7634C59.2307 52.7748 56.7941 53.6592 56.0875 55.7481C55.629 57.1028 56.1388 58.3513 56.1576 59.7133C56.1826 61.4833 54.5942 62.0599 53.5331 63.2228C52.8924 63.9148 52.3761 64.7074 52.006 65.5669C51.0576 67.8208 53.0395 71.4512 55.411 72.2245C56.5134 72.5909 57.7286 72.7265 58.8536 72.3784C59.1303 72.2952 59.3853 72.1549 59.6015 71.9671C59.8177 71.7793 59.9898 71.5483 60.1063 71.29C60.7904 69.7789 60.0738 67.9282 60.4221 66.3341C60.6726 65.2029 61.1537 64.1353 61.3328 62.9894C61.5069 61.862 61.4869 60.2471 62.2574 59.3248C63.237 58.1496 65.4231 57.4534 66.7736 56.7277C67.3423 56.4212 67.5453 56.6227 67.9236 57.0295C68.337 57.4741 68.7856 57.8968 69.3606 58.1375C70.458 58.598 71.831 58.4417 72.9573 58.1655C73.1976 58.0894 73.4487 58.0507 73.7014 58.0508C75.1446 58.1521 73.7853 60.7626 73.8054 61.4992C73.8345 62.247 74.0448 62.9775 74.4192 63.6308C74.832 64.3529 75.3974 64.9811 76.0779 65.4741C76.085 65.4791 76.09 65.4865 76.0917 65.4949C76.4901 67.1794 77.0187 68.8249 77.57 70.4691C77.9809 71.6906 78.2164 73.2371 79.3827 74.0115C79.4671 74.0577 79.5645 74.076 79.6604 74.0639C79.7563 74.0519 79.8456 74.0099 79.9151 73.9444C80.4162 73.5156 80.6794 72.9489 80.881 72.3466C80.8828 72.3416 80.8856 72.337 80.8893 72.3333C80.893 72.3295 80.8975 72.3265 80.9025 72.3245C80.9074 72.3225 80.9128 72.3216 80.9183 72.3219C80.9236 72.3221 80.9288 72.3234 80.9337 72.3259C81.6352 72.6801 82.3994 72.9598 83.1323 72.9842C85.708 73.0697 86.3719 69.2145 86.3769 67.381C86.3769 67.1147 86.1715 65.9029 86.4558 65.6989C86.9044 65.3809 87.3102 65.0091 87.6635 64.5922C88.3789 63.7419 88.7636 62.6727 88.7496 61.5729C88.7356 60.4732 88.3239 59.4136 87.5872 58.5808Z" fill="#542E27"/>
            <path d="M93.4621 115.208C93.2952 114.527 93.2293 113.034 92.5979 112.69C92.0413 112.381 91.0219 112.998 90.4662 113.1C89.8693 113.217 89.2662 113.28 88.6616 113.29C88.507 113.29 88.3523 113.29 88.1963 113.29C88.1118 113.092 87.7686 113.162 87.9363 112.698C87.9753 112.581 88.8358 112.235 88.984 112.16C90.0777 111.621 91.1752 111.092 92.2767 110.575C92.4716 110.482 92.3868 110.103 92.1883 110.197C91.915 110.325 91.6425 110.457 91.3692 110.587H91.3566C90.5266 110.736 89.7072 110.957 88.9047 111.248C88.1351 111.529 87.0589 112.116 86.2465 111.807C85.7928 111.782 85.2886 111.568 85.7981 110.738C85.954 110.636 86.1126 110.544 86.2764 110.46C86.6663 110.242 87.0563 110.031 87.4463 109.818L89.7743 108.531C89.9667 108.425 89.799 108.087 89.6079 108.194C88.3536 108.886 87.042 109.506 85.824 110.283C85.3899 110.559 84.8986 111.035 85.2651 111.651C85.737 112.444 86.9549 112.279 87.6218 112.113C88.2132 111.959 88.7916 111.762 89.3623 111.564C89.01 111.737 88.6565 111.908 88.3042 112.083C87.9142 112.275 87.0303 112.725 87.506 113.404C87.9818 114.083 89.5027 113.66 90.0707 113.572C90.7007 113.477 91.2934 113.285 91.9114 113.122C92.4986 112.968 92.5726 113.276 92.7747 113.816C92.947 114.279 93.0228 114.836 93.1409 115.322C93.1536 115.373 93.1824 115.415 93.2221 115.44C93.2609 115.465 93.3069 115.471 93.3493 115.456C93.3917 115.44 93.4278 115.406 93.4486 115.359C93.4702 115.313 93.4747 115.258 93.4621 115.208Z" fill="#A34027"/>
            <path d="M118.382 108.349C116.909 108.444 115.466 108.685 114.101 109.062C113.935 109.107 114.009 109.29 114.177 109.243C115.518 108.87 116.935 108.632 118.382 108.536C118.562 108.525 118.565 108.336 118.382 108.349Z" fill="#A34027"/>
            <path d="M87.0847 104.016C86.7769 104.168 86.4869 104.403 86.2266 104.708C86.1134 104.848 86.2266 105.15 86.3389 105.014C86.5825 104.726 86.8543 104.504 87.143 104.358C87.2788 104.29 87.2239 103.952 87.0847 104.016Z" fill="#A34027"/>
            <path d="M71.6089 64.3636C71.6089 64.9824 71.2042 65.4835 70.7068 65.4835C70.2094 65.4835 69.8047 64.9824 69.8047 64.3636C69.8047 63.7449 70.2106 63.2427 70.7068 63.2427C71.203 63.2427 71.6089 63.7439 71.6089 64.3636Z" fill="#3B201A"/>
            <path d="M62.5877 65.4835C63.0859 65.4835 63.4898 64.9818 63.4898 64.3631C63.4898 63.7443 63.0859 63.2427 62.5877 63.2427C62.0894 63.2427 61.6855 63.7443 61.6855 64.3631C61.6855 64.9818 62.0894 65.4835 62.5877 65.4835Z" fill="#3B201A"/>
            <path d="M73.3209 61.1994C72.8005 60.1553 71.5428 59.9983 70.5901 59.7503C69.8651 59.5597 68.7755 59.5401 68.2713 60.1819C67.4582 61.2161 69.2381 60.9693 70.2206 61.1137C70.9388 61.2188 72.9428 62.6722 73.3358 61.8762C73.39 61.7717 73.4172 61.6544 73.4146 61.5358C73.412 61.4171 73.3797 61.3012 73.3209 61.1994Z" fill="#542E27"/>
            <path d="M64.9748 59.9335C64.2464 59.4081 62.6881 59.6521 62.022 60.0643C61.651 60.2933 60.0042 61.2789 61.488 61.5178C61.6673 61.5357 61.8486 61.5209 62.0215 61.4743C62.7905 61.3162 63.6814 61.3049 64.403 60.9414C65.0272 60.6264 65.7695 60.5062 64.9748 59.9335Z" fill="#542E27"/>
            <path d="M68.8227 72.4736C68.261 72.8323 67.5341 73.0763 66.6469 72.9967C65.9316 72.9324 65.2971 72.715 64.8839 72.4736C64.8477 73.1662 65.7312 73.9392 66.6453 74.0338C67.6858 74.1414 68.9227 73.0606 68.8227 72.4736Z" fill="white"/>
            <path d="M66.4924 66.7674C65.8091 67.2818 65.0872 67.9037 65.187 68.8481C65.2521 69.2746 65.4422 69.6723 65.7333 69.9908C66.0244 70.3092 66.4035 70.5341 66.8226 70.637C66.8942 70.6498 66.9681 70.6354 67.0297 70.5965C67.0912 70.5576 67.136 70.4972 67.1553 70.4269C67.1745 70.3567 67.1669 70.2818 67.1337 70.217C67.1005 70.1521 67.0443 70.1021 66.976 70.0766C66.6836 70.007 66.416 69.8585 66.2021 69.6473C65.9882 69.4361 65.8362 69.1703 65.7629 68.8788C65.64 68.1494 66.2697 67.6503 66.7841 67.2665C67.0759 67.0438 66.7842 66.5447 66.4924 66.7674Z" fill="#A34027"/>
            <path d="M67.2124 69.5611C67.4561 69.4942 67.7106 69.4768 67.9611 69.5098C68.2116 69.5428 68.453 69.6255 68.6711 69.753C68.7363 69.78 68.809 69.7825 68.8758 69.76C68.9427 69.7375 68.999 69.6916 69.0346 69.6307C69.0702 69.5698 69.0825 69.4982 69.0692 69.4289C69.056 69.3596 69.0184 69.2975 68.963 69.254C68.3845 68.9275 67.7024 68.8368 67.0587 69.0006C66.9905 69.0261 66.9344 69.0762 66.9013 69.1411C66.8681 69.2058 66.8602 69.2807 66.8795 69.351C66.8988 69.4212 66.9437 69.4817 67.0053 69.5206C67.0668 69.5595 67.1407 69.5739 67.2124 69.5611Z" fill="#A34027"/>
            <path d="M79.0858 63.5726C78.0758 62.8425 77.084 63.4226 76.4216 64.3533C75.7167 65.342 74.9012 66.8756 75.3448 68.1468C75.4457 68.3766 75.527 68.615 75.5879 68.8594C75.6243 69.0802 75.5988 69.3097 75.6438 69.5279C75.741 69.9908 76.1591 70.2707 76.559 70.3943C77.9555 70.8268 78.6434 69.007 79.0032 67.9009C79.4054 66.6751 80.3681 64.5009 79.0858 63.5726Z" fill="#C25C42"/>
            <path d="M78.639 64.1451C76.8949 64.274 76.5405 66.2152 76.1285 67.5234C76.0555 67.7534 76.4327 67.8515 76.501 67.623C76.8508 66.5155 77.1427 64.6286 78.639 64.5187C78.8869 64.4997 78.8884 64.1275 78.639 64.1451Z" fill="#A34027"/>
            <path d="M78.8194 66.5883C78.7196 66.1054 77.7126 65.8471 77.1721 65.9872C76.9071 66.0552 77.0207 66.3725 77.2891 66.3018C77.5921 66.2235 78.3908 66.3827 78.3718 66.7154C78.3633 66.8774 78.1102 67.1368 78.019 67.2794L77.3012 68.406C77.1807 68.5948 77.5577 68.7618 77.6799 68.5717C77.9518 68.1435 78.225 67.7153 78.4992 67.2871C78.6266 67.0841 78.8676 66.8183 78.8194 66.5883Z" fill="#A34027"/>
            <path d="M83.4724 61.201C83.0929 60.8103 82.6331 60.5289 82.1332 60.3812C81.8987 60.3094 81.6591 60.2603 81.4171 60.2345C81.0647 60.1963 80.4852 60.3621 80.4898 59.7793C80.4898 59.4657 80.7078 59.0589 80.7572 58.735C80.8026 58.4402 80.8253 58.1416 80.8249 57.8425C80.8221 57.1961 80.7051 56.5567 80.4806 55.9604C80.0255 54.792 79.1926 53.8557 78.1464 53.3363C77.9777 53.2496 77.8285 53.5288 77.9995 53.6169C79.1471 54.2021 80.0377 55.2579 80.3796 56.6222C80.5562 57.3285 80.581 58.071 80.4519 58.7899C80.3796 59.1928 80.0469 59.75 80.1536 60.1746C80.3153 60.8121 81.3872 60.5278 81.8302 60.6336C83.1912 60.9613 84.348 62.3359 83.8224 63.9489C83.7581 64.1452 84.0405 64.2294 84.1035 64.0343C84.258 63.5451 84.2804 63.0163 84.1683 62.5131C84.0563 62.0098 83.8143 61.5539 83.4724 61.201Z" fill="#42241E"/>
            <path d="M59.8244 62.9909C58.9693 62.3513 59.1813 61.4763 59.5463 60.6923C59.6611 60.4442 59.8524 60.1996 59.6817 59.941C59.4492 59.5914 58.5662 59.4574 58.1541 59.2711C57.165 58.8249 56.3159 58.0513 56.7971 57.1054C56.8869 56.9283 56.5248 56.8513 56.4365 57.0272C55.789 58.2971 57.1915 59.2571 58.5102 59.7428C58.6574 59.7988 58.9517 59.8466 59.0695 59.9363C59.5036 60.2578 59.2166 60.5187 59.0797 60.8391C58.9562 61.115 58.878 61.4025 58.8472 61.6942C58.8129 61.9717 58.8592 62.2517 58.9827 62.5128C59.1062 62.7739 59.3035 63.0092 59.5596 63.2005C59.7347 63.3322 59.9995 63.1237 59.8244 62.9909Z" fill="#42241E"/>
            <path d="M72.4965 52.9244C72.2916 52.5219 71.9588 52.1767 71.536 51.928C71.1133 51.6792 70.6174 51.537 70.1048 51.5174C68.8783 51.4742 68.0118 52.2168 67.274 52.9594C66.9641 52.5754 66.5315 52.2758 66.0281 52.0964C65.5246 51.9171 64.9714 51.8655 64.4346 51.948C63.1239 52.1457 62.1753 53.0511 61.6975 54.0657C61.6229 54.2212 61.9191 54.2891 61.9925 54.1347C62.4077 53.2551 63.2069 52.4794 64.3142 52.2374C64.8471 52.1208 65.4098 52.1558 65.9175 52.337C66.4251 52.5181 66.8501 52.8357 67.1284 53.2417C67.1403 53.2589 67.1566 53.2736 67.1761 53.2846C67.1956 53.2957 67.2178 53.3027 67.241 53.3053C67.2642 53.3078 67.2878 53.3058 67.31 53.2995C67.3322 53.2931 67.3523 53.2825 67.369 53.2684C68.0262 52.5948 68.7953 51.811 69.9051 51.777C70.3984 51.7647 70.8845 51.8802 71.2999 52.1082C71.7152 52.3363 72.0404 52.6663 72.2329 53.0552C72.3111 53.2108 72.5747 53.0748 72.4965 52.9244Z" fill="#42241E"/>
            <path d="M273.31 48.0509L275.6 22.199C275.604 22.1442 275.59 22.0896 275.558 22.0449C275.527 22.0002 275.48 21.9684 275.427 21.9553C254.673 17.1062 218.727 20.5768 215.85 20.8658C215.797 20.8709 215.749 20.8945 215.712 20.9324C215.676 20.9703 215.653 21.02 215.649 21.0729L213.356 46.9335C213.354 46.9661 213.357 46.999 213.368 47.0301C213.378 47.0611 213.395 47.0894 213.418 47.1131C213.44 47.1367 213.467 47.1552 213.498 47.1672C213.529 47.1791 213.561 47.1843 213.594 47.1824C217.232 46.9753 258.125 44.7457 273.029 48.2528C273.06 48.2617 273.095 48.2632 273.127 48.2575C273.16 48.2517 273.19 48.2386 273.217 48.2193C273.244 48.1999 273.267 48.1748 273.283 48.1457C273.299 48.1166 273.308 48.0842 273.31 48.0509Z" fill="#FAE7DC"/>
            <path d="M103.273 110.275L119.747 103.544C119.747 103.544 125.563 107.02 125.094 110.675C124.073 118.65 106.083 119.283 106.083 119.283L103.273 110.275Z" fill="#ED5500"/>
            <path d="M182.109 80.8585C181.533 82.3676 178.81 84.9485 178.43 86.5171C178.131 87.7409 177.756 88.9741 176.936 89.9523C175.281 91.9299 172.562 92.6254 170.643 94.2943C169.557 95.2352 168.63 96.4043 168.156 97.7863C167.734 99.0051 167.746 100.321 167.405 101.56C166.689 104.144 163.945 104.707 161.629 105.147C161.6 105.149 161.572 105.144 161.547 105.132C161.521 105.12 161.5 105.102 161.484 105.078C161.318 104.779 161.06 104.541 160.746 104.401C160.652 104.362 160.556 104.329 160.458 104.303C159.906 104.144 159.259 104.173 158.684 104.13C158.139 104.082 157.603 103.954 157.095 103.751C156.993 103.71 156.891 103.665 156.789 103.615C155.804 103.158 154.939 102.411 154.668 101.419C154.375 100.362 155.589 98.5288 156.089 97.6258C156.762 96.4196 157.605 95.0475 158.873 94.3728C160.228 93.6538 161.769 93.3164 163.067 92.4883C164.285 91.7134 165.062 90.5388 165.638 89.2337C166.605 87.0475 167.073 84.4936 168.777 82.728C170.819 80.6176 173.996 80.394 176.189 78.4901C177.604 77.2653 178.188 74.9164 179.125 73.2568C179.707 73.5379 181.886 75.26 182.271 75.776C181.753 77.8942 182.873 78.8483 182.109 80.8585Z" fill="#A6584C"/>
            <path d="M256.503 38.6343C255.815 38.7507 254.957 39.242 254.639 39.3783C255.307 37.9861 256.338 36.9442 255.876 35.2098C255.759 34.7827 255.277 34.6994 254.961 34.8769C254.277 35.2785 253.669 35.7997 253.166 36.4165C253.31 36.144 253.46 35.8739 253.596 35.5965C254.567 33.6392 256.256 30.4474 254.774 28.328C254.716 28.2361 254.635 28.1614 254.539 28.1117C254.443 28.0619 254.336 28.0388 254.23 28.0449C254.122 28.0509 254.019 28.0858 253.931 28.1459C253.842 28.2061 253.77 28.2894 253.724 28.387C252.125 31.7129 250.616 35.1205 248.613 38.1955C249.223 36.2406 249.869 34.2653 250.225 32.2686C250.47 30.8979 250.522 29.1224 249.236 28.2718C249.165 28.2336 249.088 28.2103 249.007 28.2035C248.928 28.1965 248.848 28.2062 248.771 28.2317C248.695 28.2572 248.626 28.2981 248.566 28.352C248.507 28.4058 248.458 28.4714 248.424 28.5448C247.298 31.5202 246.176 34.4968 245.058 37.4746C244.272 39.5825 243.399 41.6949 243.583 44.0394C243.725 45.8353 244.265 47.6111 244.562 49.3856C244.798 50.7946 244.966 52.2085 245.083 53.6289C244.212 56.1227 243.102 58.5166 242.278 61.0373C241.478 63.4752 247.379 66.1889 247.452 66.0963C249.459 63.3139 251.133 58.1669 252.281 54.385C252.59 53.368 252.811 52.229 252.601 51.189C251.582 46.1065 258.127 44.0167 257.456 39.2128C257.387 38.6588 256.986 38.5531 256.503 38.6343Z" fill="#FA9B75"/>
            <path d="M245.215 53.7544C237.37 57.5128 237.131 75.256 234.091 76.7035C231.136 78.1124 228.349 79.2518 224.683 80.361C221.264 81.3954 220.284 81.6137 216.14 82.3076C215.983 82.335 214.82 84.2973 214.929 84.3433C211.478 92.3665 211.687 101.303 209.397 109.639C208.735 110.02 208.066 110.392 207.391 110.759C207.212 110.855 207.371 111.131 207.55 111.032C208.223 110.668 208.891 110.3 209.553 109.926C209.572 109.924 209.59 109.919 209.606 109.909C209.623 109.9 209.637 109.887 209.649 109.872C211.378 108.908 213.045 107.837 214.64 106.663C216.852 105.009 219.49 104.879 222.314 103.375C227.395 100.669 230.02 99.8377 235.411 97.2541C238.962 95.5527 240.566 94.5929 244.47 91.3417C249.839 86.8689 251.931 74.3988 251.931 74.3988C251.931 74.3988 254.87 61.7884 251.931 57.5128C250.323 56.5156 249.203 55.7297 245.215 53.7544Z" fill="#6D9AFF"/>
            <path d="M200.608 83.5933C200.541 83.4831 200.445 83.3971 200.33 83.3477C200.216 83.2982 200.09 83.2876 199.97 83.3174C198.898 83.5082 197.829 83.7167 196.76 83.943C197.331 81.4349 197.944 78.9379 198.598 76.4523C198.596 76.437 198.603 76.4225 198.606 76.4055C198.677 76.3099 198.717 76.1936 198.723 76.0722C198.73 75.9507 198.701 75.8298 198.64 75.7255C197.333 73.0598 195.22 71.2203 192.871 69.5919C190.103 67.6803 187.243 65.9225 184.303 64.326C184.21 64.2692 184.106 64.2381 183.998 64.236C183.891 64.2338 183.785 64.2605 183.692 64.3135C183.169 64.1591 182.517 64.6113 182.808 65.2703C183.585 67.0387 184.366 68.8093 185.3 70.4949C185.772 71.3474 187.679 74.0139 187.784 74.8196C187.861 75.4131 187.724 76.1955 187.67 76.7969C187.352 80.3385 186.839 83.8558 186.134 87.3307C184.478 88.0965 182.887 89.006 181.375 90.0499C181.279 90.1144 181.199 90.2035 181.144 90.3096C180.669 90.7435 180.883 91.7755 181.651 91.6555C183.516 91.3633 185.361 91.9668 187.233 91.9668C189.204 91.9641 191.157 91.5301 193.065 91.0692C196.435 90.2605 198.567 87.2109 200.928 84.7543C201.349 84.3199 201.05 83.7651 200.608 83.5933Z" fill="#FA9B75"/>
            <path d="M190.741 68.1655C190.443 68.6611 190.222 69.1955 190.086 69.7513C189.874 70.5359 189.817 71.3407 189.695 72.1387C189.557 73.0298 188.205 72.6971 188.272 73.6052C188.442 75.8903 193.666 79.4818 193.666 79.4818C193.666 79.4818 196.875 81.6911 198.363 81.8799C198.719 80.5929 197.316 77.705 199.345 76.3383C199.343 76.3234 199.351 76.309 199.354 76.2924C199.431 76.1976 199.477 76.0829 199.484 75.9634C199.492 75.8439 199.462 75.7252 199.398 75.6231C198.004 73.0127 195.727 71.2223 193.194 69.6416C192.389 69.1439 191.567 68.6475 190.741 68.1655Z" fill="#D16D45"/>
            <path d="M203.318 128.904C203.308 128.554 202.985 128.405 202.714 128.454C202.663 128.443 202.611 128.438 202.558 128.442C200.106 128.646 197.882 129.503 195.632 130.432C193.13 131.472 190.553 132.314 187.923 132.953C182.8 134.185 181.123 132.765 176.03 134.121C174.23 134.601 171.764 137.349 171.065 139.136C170.671 140.149 170.257 141.477 169.76 142.985C168.929 145.514 168.097 148.471 167.729 149.492L166.323 153.39C165.415 155.91 164.535 158.439 163.679 160.978C161.644 166.889 159.144 210.291 159.145 221.994C168.002 220.547 193.541 208.542 204.517 196.974C204.517 185.312 204.833 144.625 203.317 140.262C202.075 136.68 203.419 132.727 203.318 128.904Z" fill="#188476"/>
            <path d="M202.188 61.0152C201.63 58.7889 201.086 56.4426 199.71 54.5549C197.333 51.2962 193.116 49.8895 189.191 50.1899C189.118 50.1969 189.045 50.2137 188.976 50.2399C184.538 50.7046 180.954 54.9672 180.186 59.1908C179.287 64.1369 183.314 68.615 186.584 71.8605C187.232 72.8174 187.88 73.7748 188.528 74.7324C188.969 75.3821 189.388 76.1219 190.058 76.5633C190.903 77.1142 191.867 77.0824 192.82 77.1928C193.951 77.3235 195.041 77.6075 196.192 77.6038C200.999 77.5909 202.475 74.5498 202.666 70.4416C202.788 67.9398 202.794 63.4354 202.188 61.0152Z" fill="#FA9B75"/>
            <path d="M198.363 64.3564C198.943 64.718 199.561 65.1626 199.548 65.9217C199.526 66.2659 199.403 66.5959 199.193 66.87C198.984 67.1441 198.698 67.3498 198.372 67.4612C198.316 67.4765 198.255 67.4702 198.204 67.4436C198.152 67.4169 198.112 67.3719 198.092 67.3173C198.071 67.2628 198.072 67.2026 198.094 67.1487C198.116 67.0946 198.157 67.0508 198.21 67.0257C198.437 66.9497 198.64 66.8127 198.796 66.6295C198.952 66.4463 199.054 66.2239 199.091 65.9866C199.138 65.3971 198.602 65.0439 198.165 64.7743C197.917 64.6175 198.114 64.1996 198.363 64.3564Z" fill="#D16D45"/>
            <path d="M197.986 66.6323C197.786 66.5962 197.582 66.6003 197.386 66.6441C197.188 66.688 197.001 66.7708 196.837 66.8877C196.787 66.9138 196.729 66.9208 196.675 66.9076C196.62 66.8944 196.572 66.8618 196.539 66.8158C196.506 66.7699 196.492 66.7136 196.497 66.6576C196.503 66.6014 196.529 66.5493 196.569 66.5108C197.008 66.2101 197.545 66.09 198.069 66.1752C198.125 66.1907 198.172 66.2266 198.204 66.276C198.235 66.3252 198.246 66.3843 198.236 66.4416C198.226 66.4989 198.194 66.5502 198.147 66.5856C198.101 66.6208 198.043 66.6375 197.986 66.6323Z" fill="#D16D45"/>
            <path d="M221.38 83.0302C221.331 82.9523 221.275 82.8787 221.214 82.8099C220.148 81.6386 218.321 82.2298 216.838 82.312C214.952 82.4203 213.067 82.5273 211.18 82.648C210.262 82.7065 200.248 83.6015 200.24 83.5927C200.156 83.1658 200.074 82.7389 199.98 82.3132C199.817 81.5851 199.728 80.8445 198.876 80.7648C198.823 80.7566 198.768 80.7595 198.715 80.7734C198.663 80.7872 198.614 80.8116 198.571 80.8452C198.528 80.8787 198.493 80.9207 198.468 80.9683C198.443 81.0159 198.427 81.0683 198.423 81.122C194.985 83.5044 190.859 82.2348 187.822 79.8438C187.812 79.7815 187.789 79.7222 187.753 79.67C187.717 79.6178 187.671 79.5738 187.616 79.5414C187.561 79.5089 187.5 79.4886 187.437 79.4819C187.374 79.4752 187.31 79.4824 187.249 79.5028C185.793 79.9483 185.471 81.5465 184.986 82.8136L183.315 87.1525C175.244 89.9816 170.364 92.9791 165.409 100.136C165.059 100.641 163.721 102.937 164.069 102.435C164.165 102.294 164.269 102.161 164.366 102.023C164.446 102.024 164.523 102.001 164.59 101.96C164.657 101.917 164.711 101.858 164.744 101.786C165.709 101.056 166.38 101.311 166.756 102.55C166.832 103.016 166.852 103.489 166.814 103.96C166.801 104.505 166.732 105.055 166.7 105.601C166.628 106.918 166.605 108.236 166.632 109.555C166.77 116.002 168.298 121.194 170.53 128.35C171.928 132.832 171.063 139.163 171.063 139.163C171.063 139.163 181.322 144.11 188.687 144.538C199.439 145.163 203.094 141.797 203.094 141.797C203.094 141.797 205.264 136.565 206.312 132.594C209.068 122.144 214.057 114.922 214.91 105.656C214.976 104.934 215.899 103.819 216.237 103.157C216.718 102.214 217.182 101.262 217.62 100.293C218.499 98.3836 219.256 96.4207 219.883 94.4153C220.489 92.4721 220.927 90.4821 221.189 88.4656C221.355 87.1015 222.231 84.3694 221.38 83.0302Z" fill="#6D9AFF"/>
            <path fill-rule="evenodd" clip-rule="evenodd" d="M215.903 98.7758C215.53 98.7568 215.212 99.0446 215.193 99.4172C215.053 102.233 214.023 109.385 211.065 115.309C210.899 115.643 211.035 116.049 211.369 116.216C211.703 116.383 212.11 116.248 212.277 115.913C215.344 109.767 216.399 102.414 216.546 99.4857C216.564 99.1123 216.277 98.7947 215.903 98.7758Z" fill="#5589FF"/>
            <path fill-rule="evenodd" clip-rule="evenodd" d="M236.98 77.4503C236.58 76.8713 235.946 76.3595 235.031 75.8662C234.701 75.689 234.292 75.812 234.114 76.1409C233.937 76.4699 234.06 76.8803 234.389 77.0575C235.203 77.4963 235.634 77.8831 235.867 78.2196C236.087 78.5383 236.164 78.861 236.164 79.2588C236.165 79.6325 236.468 79.935 236.841 79.9345C237.216 79.934 237.518 79.6307 237.517 79.257C237.516 78.6562 237.392 78.0469 236.98 77.4503Z" fill="#5589FF"/>
            <path d="M149.813 156.527C149.859 156.425 149.865 156.315 149.832 156.215C149.799 156.113 149.728 156.028 149.629 155.967C149.531 155.865 149.387 155.803 149.226 155.793L145.003 155.491C144.769 155.219 144.257 155.14 144.005 155.541L143.965 155.607C143.891 155.68 143.841 155.765 143.819 155.856C142.377 158.337 142.167 161.159 140.473 163.544C139.51 164.674 138.446 165.742 137.291 166.739C136.708 167.217 136.088 167.661 135.436 168.069C134.377 168.752 133.561 169.67 133.096 170.707C132.065 173.003 131.521 175.428 130.88 177.836C130.932 177.969 131.042 178.076 131.19 178.137C130.694 178.79 130.177 179.436 129.624 180.072C129.251 180.506 129.81 180.722 130.416 180.805C131.522 180.956 134.434 179.483 134.703 179.333C136.35 178.417 137.38 176.834 138.784 175.649C139.412 175.119 139.983 174.515 140.659 174.034C141.287 173.593 141.987 173.285 142.617 172.866C143.368 172.546 144.108 172.215 144.819 171.851C144.924 171.799 145.041 171.771 145.159 171.77C145.276 171.767 145.39 171.791 145.488 171.839C145.586 171.887 145.666 171.956 145.718 172.041C145.771 172.126 145.795 172.222 145.787 172.322C145.766 172.755 145.69 173.189 145.56 173.616C145.302 174.464 144.981 175.343 145.027 176.21C145.053 176.733 145.399 178.09 145.918 178.413C146.478 178.759 147.196 177.99 147.016 177.537C147.776 174.954 148.757 172.299 149.195 169.699C149.376 168.821 149.226 167.938 148.766 167.179C148.017 165.8 147.482 164.545 147.314 163.018C147.909 160.831 149 158.63 149.813 156.527Z" fill="#FA9B75"/>
            <path d="M188.223 85.413C188.213 85.3969 188.202 85.3816 188.19 85.3669C188.182 85.0683 187.932 84.7821 187.586 84.9352C181.808 87.5021 175.135 87.3166 169.593 90.4942C167.003 91.9773 165.291 94.0936 163.886 96.6908C160.849 102.283 157.388 107.632 153.531 112.691C150.046 117.249 148.527 124.302 146.232 132.048C142.98 143.019 140.778 156.477 140.779 160.47C141.97 163.092 146.565 165.868 151.246 167.041C153.95 161.96 162.241 130.009 162.241 130.009C162.241 130.009 166.158 121.909 169.593 117.778C172.21 114.633 176.364 109.558 176.364 109.558C176.364 109.558 183.346 101.383 186.601 96.9082C189.027 93.5785 190.308 89.2377 188.223 85.413Z" fill="#6D9AFF"/>
            <path d="M201.416 58.2245C199.511 47.1068 189.832 46.8474 184.967 48.3901C179.51 50.121 177.848 54.9525 176.715 59.8197C176.28 61.6959 176.652 63.6342 177.175 65.4509C177.698 67.2675 178.484 69.1069 178.556 71.007C178.596 71.9766 178.65 73.0148 179.139 73.88C179.399 74.3596 179.807 74.7413 180.3 74.9675C181.225 75.3842 181.295 75.6708 182.21 76.101C182.855 75.8825 183.432 75.5094 184.251 75.2209C185.53 74.7701 187.735 74.034 187.735 74.034C187.735 74.034 183.713 67.8594 185.691 65.457C193.626 56.3649 193.333 53.0408 193.333 53.0408C193.333 53.0408 197.302 53.094 199.104 54.7C200.384 55.842 201.416 58.2245 201.416 58.2245Z" fill="#A6584C"/>
            <path d="M186.954 69.2006L186.939 69.1613C186.296 67.5184 184.761 65.4545 182.96 65.2626C181.234 65.0777 181.303 67.3562 181.843 68.4977C182.557 69.9947 184.32 71.6933 185.896 72.1135C187.628 72.5756 187.353 70.2623 186.954 69.2006Z" fill="#FA9B75"/>
            <path d="M201.242 61.1478C201.413 61.8824 201.159 62.5393 200.678 62.6167C200.197 62.6941 199.667 62.1609 199.496 61.4273C199.326 60.6936 199.579 60.0347 200.062 59.9572C200.545 59.8796 201.066 60.4137 201.242 61.1478Z" fill="#4A2726"/>
            <path d="M193.88 63.2131C194.034 63.9518 193.764 64.614 193.28 64.6977C192.796 64.7812 192.277 64.2488 192.124 63.5184C191.973 62.7881 192.241 62.1185 192.726 62.0338C193.212 61.949 193.728 62.4774 193.88 63.2131Z" fill="#4A2726"/>
            <path d="M186.193 69.2451C185.655 68.6081 185.021 68.0493 184.311 67.5864C183.786 67.2492 183.164 66.8429 182.526 67.1507C182.339 67.2412 182.45 67.5347 182.64 67.4428C183.669 66.9462 185.362 68.7796 185.924 69.4279C186.056 69.5766 186.329 69.4009 186.193 69.2451Z" fill="#D16D45"/>
            <path d="M199.96 70.2354C199.376 70.7385 198.964 71.014 198.144 71.0863C197.179 71.1716 196.658 71.1106 195.561 70.9446C195.561 70.9446 197.159 72.3884 198.383 72.1742C199.261 72.0207 200.02 70.91 199.96 70.2354Z" fill="white"/>
            <path d="M199.991 56.9973C199.756 56.699 199.427 56.647 199.101 56.6029C198.774 56.5588 198.443 56.6092 198.144 56.748C197.439 57.0894 196.23 57.6436 196.612 58.1818C197.006 58.7367 198.073 57.8368 198.68 57.7855C199.267 57.7361 200.117 58.0824 200.217 57.65C200.277 57.3873 200.159 57.2089 199.991 56.9973Z" fill="#A6584C"/>
            <path d="M192.924 58.5537C192.323 57.7029 191.188 58.0847 190.433 58.4664C189.728 58.8165 187.875 60.4363 188.293 61.5175C188.579 62.2564 189.432 60.7779 190.172 60.322C191.299 59.6284 193.687 59.6344 192.924 58.5537Z" fill="#A6584C"/>
            <path d="M134.938 171.275C134.059 172.586 133.222 173.915 132.43 175.261C132.17 175.703 132.638 175.974 132.87 175.48C133.661 174.131 134.496 172.802 135.377 171.492C135.675 171.109 135.201 170.884 134.938 171.275Z" fill="#D16D45"/>
            <path d="M137.224 171.952C136.344 173.264 134.092 175.794 133.152 177.136C132.93 177.504 133.314 177.743 133.592 177.355C134.545 176.017 136.782 173.479 137.664 172.169C137.961 171.786 137.486 171.561 137.224 171.952Z" fill="#D16D45"/>
            <path d="M182.223 75.9177C181.954 75.8027 179.486 73.9747 179.29 73.7274C179.19 73.5998 179.047 73.804 179.147 73.9305C179.358 74.194 181.841 76.0347 182.128 76.1578C182.266 76.2155 182.364 75.974 182.223 75.9177Z" fill="#824137"/>
            <path d="M247.466 36.4166C247.438 36.4034 247.408 36.3953 247.376 36.3929C247.344 36.3904 247.311 36.3936 247.279 36.4024C247.248 36.4111 247.218 36.4251 247.192 36.4437C247.166 36.4622 247.143 36.4849 247.127 36.5104C245.786 38.8733 244.661 41.3162 243.761 43.8141C243.664 44.0876 244.135 44.1829 244.234 43.909C244.972 41.838 245.87 39.8053 246.924 37.8261C247.058 37.5776 247.193 37.3291 247.327 37.0838C247.51 37.124 247.672 37.2124 247.791 37.3378C247.911 37.4633 247.982 37.6201 247.998 37.7883C248.134 38.2641 248.164 38.7656 248.085 39.2652C247.97 40.2431 247.614 41.2361 247.279 42.1799C246.703 43.7727 246.235 44.8992 247.025 46.4072C248.077 48.4068 248.539 50.4144 248.167 52.6997C248.121 52.9802 248.615 52.9601 248.66 52.6817C248.927 51.1334 248.822 49.5763 248.352 48.1142C248.106 47.4455 247.807 46.7959 247.457 46.1699C246.911 45.1052 246.995 44.2574 247.414 43.1467C248.169 41.1726 249.74 37.8457 247.466 36.4166Z" fill="#D16D45"/>
            <path d="M253.088 37.4534C252.406 38.4343 251.578 39.3681 250.623 40.2339C250.37 40.4697 250.746 40.7368 251.003 40.505C251.995 39.6097 252.858 38.6435 253.57 37.6282C253.75 37.3665 253.274 37.1899 253.088 37.4534Z" fill="#D16D45"/>
            <path d="M254.104 41.0353L251.598 43.8947C251.387 44.1339 251.837 44.3201 252.045 44.0831L254.551 41.2236C254.763 40.989 254.318 40.7965 254.104 41.0353Z" fill="#D16D45"/>
            <path d="M145.728 166.183C149.736 165.986 155.449 165.314 159.231 167.06C162.454 168.551 161.762 173.217 161.79 176.222C161.851 182.056 161.788 187.889 161.599 193.718C161.477 197.095 161.614 212.966 160.968 221.489C150.956 225.038 124.878 228.417 103.299 221.919C104.073 207.024 106.135 181.754 109.448 170.835C108.494 170.595 108.6 168.848 109.752 168.771C115.719 168.339 121.608 168.707 127.639 168.064C133.668 167.42 139.67 166.487 145.728 166.183Z" fill="#22211D"/>
            <path d="M160.717 98.2109C160.686 98.0828 160.614 97.9682 160.511 97.8861C160.465 97.7373 160.37 97.6083 160.243 97.519C155.633 94.1397 149.172 95.9773 147.588 89.0354C146.104 82.0138 145.319 74.8626 145.242 67.6862C145.237 67.5742 145.207 67.4649 145.153 67.3671C145.098 67.2693 145.021 67.186 144.927 67.1238C144.834 67.0617 144.728 67.0226 144.616 67.0097C144.505 66.9969 144.392 67.0107 144.287 67.0499C144.193 66.981 144.079 66.9438 143.962 66.9438C143.845 66.9438 143.731 66.981 143.637 67.0499C140.352 69.4606 137.238 72.0968 134.319 74.9393C133.005 76.2824 130.198 78.5941 130.58 80.7644C130.53 80.8852 130.516 81.0174 130.538 81.1461C131.372 85.8048 134.234 93.934 129.371 96.9885C125.461 99.4414 121.157 101.421 117.092 103.605C116.384 104.002 116.908 105.019 117.615 104.87C117.69 104.929 117.777 104.969 117.869 104.991C119.99 105.563 121.545 107.07 123.793 107.437C125.802 107.769 127.95 107.472 129.972 107.38C135.352 107.126 140.731 106.899 146.112 106.631C150.607 106.412 162.547 105.436 160.717 98.2109Z" fill="#F59E73"/>
            <path d="M140.62 82.2104C139.152 83.5179 134.621 86.3756 131.455 86.3756C132.12 88.2649 131.871 92.0715 131.871 93.4328C133.408 92.7797 138.381 85.5166 140.62 82.2104Z" fill="#E98553"/>
            <path d="M147.697 57.9171C144.792 51.1093 136.189 48.9391 129.981 52.4949C122.474 56.786 122.566 65.4953 122.913 73.0595C123.097 76.6295 122.832 86.3225 127.654 87.2627C132.065 88.1322 135.324 85.0429 138.95 82.901C139.273 82.7456 139.554 82.5154 139.77 82.2294C139.898 82.0096 139.991 81.7711 140.045 81.5225C140.406 80.1864 141.286 75.2439 142.311 74.3178C147.089 69.9914 150.433 64.2795 147.697 57.9171Z" fill="#F59E73"/>
            <path d="M149.155 57.2105C148.357 55.5935 147.16 54.2066 145.676 53.1811C143.703 51.769 141.428 50.8326 139.032 50.4451C136.635 50.0576 134.183 50.2294 131.863 50.9471C129.231 51.7725 126.893 53.3382 125.126 55.4574C123.006 58.0589 123.006 59.8969 122.808 63.1487C122.737 64.1808 122.744 65.9341 123.232 64.9019C123.55 64.195 123.939 63.1982 124.236 62.5196C124.695 61.5652 125.812 60.7452 126.858 61.2117C128.654 62.0105 130.725 61.5369 132.634 61.0633C134.543 60.5896 136.628 60.1443 138.396 60.9996C140.29 61.9116 141.224 64.0748 141.626 66.1461C141.817 67.2206 141.888 68.3093 142.171 69.3556C142.408 70.4275 143.017 71.3812 143.888 72.049C144.325 72.3748 144.856 72.5509 145.401 72.5509C145.946 72.5509 146.477 72.3748 146.914 72.049C147.349 71.6004 147.667 71.0517 147.84 70.4513C148.658 68.2297 149.255 65.9329 149.621 63.5941C149.991 61.8035 149.952 59.9527 149.509 58.179C149.411 57.8492 149.293 57.5257 149.155 57.2105Z" fill="#3F2D2D"/>
            <path d="M146.7 67.284C142.543 65.7428 141.596 75.8378 143.752 76.1206C145.371 76.3327 146.368 74.4592 146.905 73.2928C147.548 71.8931 148.962 68.1182 146.7 67.284Z" fill="#F59E73"/>
            <path d="M170.045 103.525C168.56 100.952 165.322 99.8142 162.65 98.9229C160.342 98.1832 160.481 95.6176 158.084 95.2567C156.09 94.9311 151.868 93.503 148.507 91.2622C147.114 95.4155 142.644 100.842 137.491 102.347C133.249 103.563 129.185 103.293 126.619 98.3654C126.28 97.7222 111.363 103.867 108.584 107.642C105.616 111.664 104.201 117.61 103.063 122.368C103.015 122.466 102.991 122.575 102.992 122.685C103.191 129.309 105.375 135.466 107.453 141.659C106.841 153.121 106.725 170.181 107.107 181.666C107.209 181.87 107.354 182.048 107.532 182.19C107.71 182.332 107.918 182.433 108.139 182.486C125.55 183.08 144.383 183.822 160.629 176.414C163.845 174.951 163.541 167.173 163.887 163.843C164.41 158.838 164.903 153.828 165.365 148.814C165.836 143.583 166.286 138.347 166.715 133.105C167.658 130.306 168.6 127.507 169.542 124.707C169.663 124.688 169.775 124.634 169.864 124.551C169.954 124.467 170.017 124.36 170.045 124.24C170.454 122.704 170.855 121.165 171.246 119.624L171.869 117.78C171.899 117.694 171.91 117.603 171.901 117.513C171.893 117.422 171.865 117.335 171.819 117.256C172.381 114.893 170.323 114.515 170.646 112.107C171.013 109.343 171.515 106.063 170.045 103.525Z" fill="white"/>
            <path d="M172.515 109.607C172.147 106.072 171.643 103.176 169.264 100.605C164.398 95.3458 157.273 93.7012 151.815 92.4644C151.672 92.4275 151.523 92.422 151.377 92.4491C151.232 92.4753 151.094 92.5339 150.974 92.6196C150.759 92.616 150.549 92.6837 150.377 92.8118C150.204 92.939 150.078 93.1203 150.02 93.3269C143.996 114.308 142.88 136.188 142.901 157.905C142.901 163.383 142.979 168.862 143.056 174.34C143.094 177.069 143.131 179.798 143.169 182.527C143.169 185.029 142.894 187.525 142.887 190.02C142.887 193.392 143.593 194.346 147.192 193.81C154.077 192.791 161.429 190.451 168.074 188.429C168.782 188.217 170.131 173.45 170.35 170.502C171.17 159.269 170.676 147.986 171.199 136.746C171.686 125.839 173.618 120.557 172.515 109.607Z" fill="#C34917"/>
            <path d="M124.034 98.7768C123.327 98.9752 108.552 104.906 106.289 107.19C102.359 111.169 101.412 119.066 100.33 124.297C100.153 125.138 103.674 130.214 104.508 133.034C105.038 134.809 103.844 138.386 103.582 140.238C103.229 142.779 102.856 145.314 102.465 147.845C100.91 158.039 99.7014 168.282 98.7398 178.554C98.4989 181.12 96.6757 192.919 97.4885 194.247C98.9021 196.517 112.214 193.54 114.526 193.039C117.714 192.331 117.799 179.734 117.813 175.458C117.813 170.184 117.892 164.91 118.053 159.636C118.322 149.315 118.822 139.006 119.551 128.709C120.259 119.158 119.757 107.642 125.256 99.3703C125.864 98.4592 124.981 98.5152 124.034 98.7768Z" fill="#C34917"/>
            <path d="M143.007 124.778C142.788 123.267 141.365 122.237 139.861 122.5L117.6 126.41C116.183 126.658 115.208 127.972 115.381 129.4L119.417 162.733C119.593 164.184 120.889 165.234 122.345 165.104L145.663 163.028C147.21 162.89 148.324 161.481 148.101 159.944L143.007 124.778Z" fill="#4A3F7E"/>
            <path d="M93.595 156.526C94.7669 156.889 95.2405 156.861 96.1083 155.959C97.8187 154.198 105.459 137.232 108.585 131.853C110.205 129.067 106.861 127.338 108.584 124.61C109.524 123.105 111.772 120.25 110.374 118.505C108.047 115.59 109.24 115.304 105.048 116.13C101.397 116.853 99.6346 121.699 98.3266 124.61C95.7944 130.26 93.623 131.16 91.1611 136.844C89.8889 139.792 88.1755 152.641 88.2463 154.08C88.3725 156.803 91.3398 155.82 93.595 156.526Z" fill="#F59E73"/>
            <path d="M113.178 103.359C107.6 105.366 105.048 107.601 102.312 112.669C98.9825 118.869 95.2433 126.61 92.3304 133.028C91.0746 135.699 90.0255 138.462 89.1919 141.293C88.7182 142.997 88.485 144.121 89.7433 145.421C93.5608 149.415 100.283 150.462 105.451 151.401C105.727 151.55 109.205 152.61 109.559 152.406C112.28 150.878 111.68 146.142 112.118 143.336C112.896 138.79 111.1 134.668 111.75 130.102C112.909 121.83 113.716 103.161 113.178 103.359Z" fill="#C34917"/>
            <path d="M160.234 128.447C160.277 128.393 160.312 128.334 160.34 128.27C161.727 124.225 162.411 119.971 162.362 115.694C162.313 112.775 162.242 108.484 160.574 105.974C157.166 100.856 151.122 110.216 149.319 112.612C146.739 116.083 144.682 119.901 142.031 123.336C139.38 126.772 136.199 130.059 133.265 133.417C129.652 137.545 130.387 146.078 131.321 150.956C131.823 153.571 132.678 155.31 135.188 154.42C138.92 153.105 144.222 148.984 146.633 146.552C151.814 141.3 156.4 135.491 160.305 129.232C160.385 129.113 160.422 128.97 160.409 128.827C160.397 128.684 160.335 128.55 160.234 128.447Z" fill="#F59E73"/>
            <path d="M133.999 147.282C133.723 146.087 133.462 145.691 132.246 145.395C129.863 144.801 111.356 146.723 105.135 146.723C101.911 146.723 98.6881 146.665 95.464 146.547C93.6895 146.491 90.0917 145.981 89.2858 148.067C87.9356 151.545 86.2531 156.988 89.0738 160.197C91.5335 162.99 96.6097 162.078 99.7833 161.746C105.941 161.096 112.056 160.007 118.206 159.279C121.394 158.897 133.902 155.174 135.111 154.389C137.401 152.912 134.522 149.587 133.999 147.282Z" fill="#F59E73"/>
            <path d="M130.692 91.7864C130.175 89.6653 129.482 87.4951 128.097 85.9681C126.711 84.4412 123.339 81.9316 121.226 82.3557C119.536 82.6951 119.974 84.7027 120.738 85.7066C121.42 86.4362 122.209 87.0583 123.078 87.5516C123.871 88.099 124.562 88.7809 125.12 89.5664L124.696 90.0542C123.974 89.6644 123.219 89.3381 122.441 89.0786C121.947 88.9217 121.415 88.9218 120.92 89.0788C120.426 89.2357 119.991 89.5419 119.677 89.9552C119.397 90.3782 119.212 90.8572 119.135 91.3588C119.056 91.8604 119.087 92.3718 119.225 92.8608C118.288 93.568 117.651 94.6027 117.443 95.7592C117.307 96.6054 117.431 97.4723 117.797 98.2473C117.034 99.5409 116.468 100.799 116.899 102.419C117.409 104.071 118.316 105.574 119.542 106.794C119.133 111.382 119.804 119.865 121.84 119.2C124.795 118.24 128.344 117.597 131.285 116.578C131.381 116.607 131.483 116.611 131.581 116.591C131.679 116.571 131.771 116.526 131.848 116.462C131.926 116.398 131.985 116.315 132.023 116.222C132.06 116.129 132.074 116.028 132.063 115.928C131.687 111.396 132.176 106.858 132.168 102.319C132.154 99.3758 131.8 96.4439 131.116 93.5816C130.981 93.0087 130.847 92.4007 130.692 91.7864Z" fill="#F59E73"/>
            <path fill-rule="evenodd" clip-rule="evenodd" d="M123.508 82.943C123.588 82.788 123.778 82.7272 123.933 82.8072L123.942 82.8122C125.082 83.3999 125.938 83.842 126.684 84.4003C127.441 84.9664 128.077 85.6451 128.799 86.7005C128.898 86.8444 128.861 87.0409 128.717 87.1394C128.573 87.2379 128.376 87.2011 128.278 87.0572C127.585 86.0449 126.995 85.4214 126.306 84.9059C125.608 84.3838 124.8 83.9653 123.644 83.3683C123.489 83.2884 123.428 83.0979 123.508 82.943Z" fill="#C45547"/>
            <path d="M138.478 137.17C135.274 129.368 132.948 121.233 131.544 112.915C131.539 112.872 131.526 112.83 131.503 112.793C131.481 112.756 131.449 112.724 131.412 112.701C131.375 112.677 131.334 112.663 131.29 112.658C131.246 112.654 131.203 112.66 131.161 112.675C131.108 112.664 131.052 112.666 131 112.683C130.948 112.701 130.901 112.732 130.865 112.775C129.939 113.785 127.613 114.153 126.333 114.443C124.649 114.863 122.895 114.921 121.187 114.612C121.13 114.602 121.07 114.605 121.014 114.622C120.958 114.638 120.908 114.668 120.865 114.708C120.822 114.747 120.79 114.796 120.77 114.851C120.749 114.906 120.742 114.965 120.748 115.023C120.748 115.023 120.748 115.058 120.748 115.086C121.321 123.499 121.872 136.873 124.474 144.939C125.556 148.311 130.971 158.527 136.344 153.585C139.525 150.651 139.094 138.662 138.478 137.17Z" fill="#F59E73"/>
            <path d="M167.95 99.7671C164.783 97.1231 160.435 95.2711 156.278 96.1046C156.234 96.1118 156.192 96.1281 156.155 96.1533C156.118 96.1777 156.087 96.211 156.064 96.2498C156.042 96.2886 156.028 96.3319 156.026 96.377C156.022 96.4212 156.029 96.4663 156.045 96.5078C153.133 98.0423 150.341 98.1551 148.686 100.75C146.24 104.61 140.304 119.26 139.512 121.218C139.074 122.314 137.716 124.463 138.098 125.63C138.325 126.301 147.923 130.935 160.273 143.695C161.538 145.003 167.49 127.295 169.003 123.407C170.586 119.335 172.22 115.143 172.333 110.724C172.453 106.694 171.152 102.454 167.95 99.7671Z" fill="#C34917"/>
            <path fill-rule="evenodd" clip-rule="evenodd" d="M166.671 128.126C167.009 128.286 167.154 128.689 166.995 129.026C166.329 130.443 164.863 132.715 163.155 134.865C161.457 137.002 159.442 139.117 157.653 140.14C157.328 140.325 156.915 140.212 156.73 139.888C156.544 139.564 156.657 139.15 156.982 138.965C158.533 138.079 160.413 136.139 162.096 134.023C163.767 131.918 165.165 129.737 165.771 128.451C165.93 128.112 166.333 127.967 166.671 128.126Z" fill="#953600"/>
            <path fill-rule="evenodd" clip-rule="evenodd" d="M105.281 137.358C105.649 137.421 105.896 137.771 105.834 138.139C105.508 140.046 105.282 141.961 105.088 143.599C104.97 144.586 104.866 145.472 104.758 146.196C104.703 146.565 104.36 146.821 103.99 146.766C103.62 146.711 103.365 146.366 103.42 145.997C103.514 145.358 103.615 144.509 103.731 143.542C103.93 141.863 104.173 139.825 104.499 137.911C104.563 137.543 104.912 137.295 105.281 137.358Z" fill="#953600"/>
            <path d="M136.103 70.6072C135.927 69.8362 135.396 69.2148 134.506 69.7474C133.798 70.2189 133.904 71.2508 134.3 71.8276C134.42 72.0203 134.612 72.1792 134.852 72.2826C135.954 72.7097 136.315 71.5448 136.103 70.6072Z" fill="#1A0504"/>
            <path d="M126.336 70.3688C126.18 69.642 125.7 69.0595 124.964 69.5643C124.229 70.0692 124.442 70.9734 124.788 71.517C124.883 71.6956 125.049 71.8452 125.262 71.9442C126.209 72.3159 126.52 71.223 126.336 70.3688Z" fill="#1A0504"/>
            <path d="M128.065 73.1178C127.801 73.4535 127.622 73.8478 127.544 74.2676C127.464 74.6873 127.489 75.1198 127.612 75.5284C127.741 75.8833 127.986 76.1847 128.306 76.3846C128.626 76.5845 129.004 76.6713 129.381 76.6312C129.713 76.5888 129.72 76.0586 129.381 76.101C129.221 76.1217 129.059 76.1103 128.905 76.0676C128.75 76.0247 128.606 75.9515 128.48 75.852C128.354 75.7526 128.249 75.6289 128.173 75.4882C128.095 75.3477 128.046 75.1931 128.03 75.0336C127.983 74.4397 128.159 73.8497 128.524 73.3793C128.716 73.0966 128.257 72.835 128.065 73.1178Z" fill="#C45547"/>
            <path d="M129.862 75.7699C130.451 75.6603 130.565 75.6603 131.153 75.7699C131.486 75.8406 131.627 75.3314 131.295 75.2608C130.613 75.1299 130.402 75.1299 129.72 75.2608C129.388 75.3173 129.53 75.8335 129.862 75.7699Z" fill="#C45547"/>
            <path d="M146.224 69.228C144.675 70.0551 144.103 71.7164 143.686 73.2999C143.674 73.3659 143.688 73.4339 143.724 73.4906C143.759 73.5473 143.815 73.5886 143.88 73.6063C143.944 73.624 144.013 73.6169 144.073 73.5864C144.132 73.5558 144.178 73.5041 144.202 73.4413C144.598 71.9921 145.064 70.4439 146.492 69.6875C146.789 69.532 146.492 69.0724 146.224 69.228Z" fill="#C45547"/>
            <path d="M120.378 93.2634C122.59 93.1082 123.721 95.1867 124.563 96.897C124.718 97.2011 125.177 96.9322 125.022 96.6282C124.096 94.7482 122.789 92.5633 120.378 92.7329C120.038 92.7329 120.038 93.2913 120.378 93.2634Z" fill="#C45547"/>
            <path d="M119.157 98.3115C119.942 98.5804 120.642 99.0549 121.183 99.6845C121.723 100.315 122.086 101.078 122.232 101.896C122.289 102.235 122.805 102.093 122.741 101.754C122.571 100.848 122.162 100.005 121.557 99.3102C120.952 98.6155 120.172 98.095 119.298 97.8018C118.974 97.6891 118.832 98.1979 119.157 98.3115Z" fill="#C45547"/>
            <path d="M118.663 101.527C119.261 103.073 119.557 104.719 119.532 106.376C119.542 106.439 119.575 106.497 119.623 106.538C119.672 106.579 119.733 106.602 119.797 106.602C119.861 106.602 119.923 106.579 119.971 106.538C120.019 106.497 120.052 106.439 120.063 106.376C120.093 104.673 119.791 102.98 119.171 101.393C119.051 101.074 118.535 101.209 118.663 101.527Z" fill="#C45547"/>
            <path d="M131.285 95.8163C131.595 97.8181 131.611 99.8541 131.334 101.86C131.285 102.192 131.794 102.341 131.843 102.001C132.141 99.9047 132.126 97.7748 131.801 95.6819C131.745 95.3427 131.235 95.4834 131.285 95.8163Z" fill="#C45547"/>
            <path d="M132.132 78.9717C132.132 78.9717 130.549 79.2591 129.504 79.2176C128.654 79.1838 127.552 78.9716 127.061 78.9717C126.8 79.2544 128.195 80.2837 129.175 80.329C131.475 80.4353 132.132 78.9717 132.132 78.9717Z" fill="#C45547"/>
            <path d="M137.572 66.0332C137.572 66.0332 135.833 65.8281 134.482 65.8281C133.183 65.8282 131.607 66.1048 131.774 66.9672C131.937 67.804 133.142 67.6961 133.805 67.5972C134.902 67.4275 135.868 67.7173 136.964 67.5972C137.299 67.6073 137.632 67.529 137.929 67.3702C138.226 67.2114 138.632 67.079 138.653 66.6923C138.68 66.1984 137.572 66.0332 137.572 66.0332Z" fill="#3F2D2D"/>
            <path d="M123.367 66.5497C123.366 66.8328 123.552 67.0093 123.739 67.172C123.926 67.3347 124.159 67.4337 124.406 67.4546C125.114 67.5748 125.735 67.6667 126.407 67.8363C126.81 67.9352 127.413 68.2879 127.567 67.7637C127.678 67.3891 127.435 67.1017 127.262 66.8109C127.091 66.5203 126.856 66.272 126.575 66.0848C126.294 65.8974 125.974 65.7757 125.64 65.7287C125.002 65.5741 124.264 65.4035 123.738 65.9337C123.54 66.1331 123.368 66.2689 123.367 66.5497Z" fill="#3F2D2D"/>
            <path d="M125.384 147.067C127.095 150.821 130.41 153.274 134.652 152.822C139.508 152.306 143.198 148.814 147.122 146.268C147.412 146.085 147.122 145.625 146.861 145.809C143.452 148.014 140.293 150.935 136.256 151.98C131.647 153.189 127.773 151.033 125.822 146.798C125.681 146.487 125.228 146.756 125.363 147.067H125.384Z" fill="#C45547"/>
            <path d="M135.822 131.176C137.943 134.414 138.494 138.578 139.01 142.339C139.052 142.671 139.562 142.53 139.52 142.197C138.996 138.38 138.424 134.195 136.281 130.886C136.098 130.604 135.638 130.886 135.822 131.155V131.176Z" fill="#C45547"/>
            <path d="M125.122 193.436C127.484 195.72 130.248 197.678 130.714 201.142C131.025 203.439 130.876 205.716 131.93 207.85C132.079 208.154 132.538 207.885 132.382 207.581C131.096 204.966 131.746 202.005 130.869 199.289C130.021 196.695 127.384 194.885 125.497 193.061C125.25 192.821 124.875 193.195 125.122 193.436Z" fill="#131311"/>
            <path d="M17.0319 77.6766C19.772 77.6766 21.9935 75.4552 21.9935 72.715C21.9935 69.9748 19.772 67.7534 17.0319 67.7534C14.2917 67.7534 12.0703 69.9748 12.0703 72.715C12.0703 75.4552 14.2917 77.6766 17.0319 77.6766Z" fill="#FFA41C"/>
        </g>
    </g>
    <defs>
        <clipPath id="clip0_6616_60779">
            <rect width="287.772" height="225.526" fill="white" transform="translate(0.0078125 0.0742188)"/>
        </clipPath>
    </defs>
</svg>
