<svg width="288" height="227" viewBox="0 0 288 227" fill="none" xmlns="http://www.w3.org/2000/svg">
    <g clip-path="url(#clip0_6616_61120)">
        <path d="M143.893 225.865C203.68 225.865 252.146 177.398 252.146 117.612C252.146 57.8257 203.68 9.35938 143.893 9.35938C84.107 9.35938 35.6406 57.8257 35.6406 117.612C35.6406 177.398 84.107 225.865 143.893 225.865Z" fill="#F0F9FF"/>
        <mask id="mask0_6616_61120" style="mask-type:alpha" maskUnits="userSpaceOnUse" x="-6" y="9" width="304" height="217">
            <path d="M291.786 114.641C300.646 200.286 251.14 190.927 228.08 185.686C208.24 210.403 178.055 225.865 143.894 225.865C100.068 225.865 62.3242 199.821 45.2961 162.366C18.1976 166.823 -5.6582 99.1118 -5.6582 83.1516C-5.6582 63.17 41.0546 78.9135 50.4953 62.8476C69.3018 30.843 104.089 9.35938 143.894 9.35938C183.698 9.35938 218.485 30.843 237.292 62.8476C246.733 78.9135 318.54 30.3839 291.786 114.641Z" fill="#F0F9FF"/>
        </mask>
        <g mask="url(#mask0_6616_61120)">
            <path d="M182.364 191.41C185.488 195.131 190.101 214.505 190.101 229.094H166.181L156.43 191.41H182.364Z" fill="#633F3F"/>
            <path d="M252.953 174.685C264.119 145.313 271.101 111.028 273.204 78.3415C273.228 77.9291 273.167 77.5161 273.027 77.1279C272.885 76.7396 272.667 76.3844 272.383 76.084C272.099 75.7836 271.757 75.5443 271.378 75.3811C270.998 75.2179 270.589 75.134 270.176 75.1348H208.92C208.151 75.1345 207.411 75.427 206.85 75.9528C206.29 76.4786 205.951 77.1982 205.902 77.9652C203.785 111.499 196.527 146.74 184.873 176.658H250.121C250.738 176.656 251.338 176.466 251.844 176.114C252.351 175.761 252.738 175.263 252.953 174.685Z" fill="#FAE4D4"/>
            <path d="M257.533 86.2454C257.494 86.5707 257.457 86.8959 257.418 87.2163C257.398 87.3944 257.312 87.5585 257.178 87.6772C257.043 87.796 256.87 87.8608 256.69 87.8596H238.897C238.794 87.8604 238.692 87.8391 238.597 87.7973C238.503 87.7555 238.418 87.6941 238.35 87.6172C238.281 87.5404 238.229 87.4497 238.198 87.3513C238.167 87.2529 238.157 87.149 238.169 87.0465C238.205 86.7236 238.244 86.3983 238.28 86.0755C238.301 85.8969 238.387 85.7323 238.521 85.613C238.656 85.4939 238.829 85.4286 239.009 85.4297H256.802C256.906 85.4286 257.008 85.4498 257.104 85.4915C257.198 85.5333 257.283 85.5948 257.353 85.672C257.421 85.7493 257.474 85.8404 257.504 85.9392C257.536 86.0381 257.546 86.1425 257.533 86.2454Z" fill="white"/>
            <path d="M251.219 132.252C251.18 132.578 251.143 132.902 251.104 133.224C251.083 133.401 250.998 133.566 250.863 133.684C250.729 133.803 250.556 133.868 250.376 133.867H232.583C232.479 133.867 232.377 133.846 232.283 133.805C232.189 133.762 232.104 133.701 232.035 133.624C231.967 133.547 231.914 133.456 231.884 133.358C231.852 133.26 231.842 133.156 231.855 133.053C231.891 132.73 231.93 132.405 231.966 132.082C231.987 131.904 232.072 131.739 232.207 131.62C232.341 131.501 232.514 131.436 232.695 131.437H250.488C250.592 131.436 250.694 131.456 250.789 131.498C250.884 131.54 250.969 131.602 251.038 131.679C251.107 131.756 251.159 131.847 251.19 131.946C251.221 132.045 251.231 132.149 251.219 132.252Z" fill="white"/>
            <path d="M254.828 108.797C254.789 109.123 254.752 109.448 254.713 109.769C254.693 109.947 254.607 110.111 254.473 110.229C254.338 110.348 254.165 110.413 253.985 110.412H236.192C236.089 110.412 235.987 110.391 235.892 110.35C235.798 110.308 235.713 110.246 235.645 110.17C235.576 110.093 235.524 110.002 235.493 109.903C235.462 109.805 235.452 109.701 235.464 109.599C235.5 109.276 235.539 108.951 235.575 108.628C235.596 108.449 235.682 108.284 235.816 108.165C235.951 108.046 236.124 107.981 236.304 107.982H254.097C254.201 107.981 254.303 108.002 254.399 108.043C254.493 108.086 254.578 108.147 254.648 108.225C254.716 108.301 254.768 108.392 254.799 108.492C254.831 108.59 254.841 108.695 254.828 108.797Z" fill="white"/>
            <path d="M247.125 90.7562C247.087 91.0816 247.05 91.4064 247.011 91.7275C246.99 91.9053 246.904 92.0694 246.77 92.1876C246.636 92.3067 246.462 92.3716 246.283 92.3707H238.897C238.794 92.3707 238.692 92.35 238.597 92.3076C238.503 92.2661 238.418 92.2048 238.35 92.1281C238.281 92.0514 238.229 91.9603 238.198 91.862C238.167 91.7636 238.157 91.6599 238.169 91.557C238.205 91.2341 238.244 90.9093 238.28 90.5862C238.301 90.4077 238.387 90.2429 238.521 90.1238C238.656 90.0046 238.829 89.9393 239.009 89.9405H246.395C246.499 89.9394 246.601 89.9605 246.696 90.0023C246.791 90.044 246.876 90.1056 246.945 90.1828C247.014 90.26 247.066 90.3511 247.097 90.45C247.128 90.5488 247.138 90.6532 247.125 90.7562Z" fill="white"/>
            <path d="M240.811 136.763C240.772 137.089 240.735 137.414 240.696 137.735C240.676 137.913 240.59 138.077 240.456 138.195C240.321 138.314 240.148 138.379 239.968 138.378H232.583C232.479 138.378 232.377 138.357 232.283 138.315C232.189 138.273 232.104 138.212 232.035 138.135C231.967 138.059 231.914 137.968 231.884 137.869C231.852 137.771 231.842 137.667 231.855 137.564C231.891 137.241 231.93 136.917 231.966 136.594C231.987 136.415 232.072 136.25 232.207 136.131C232.341 136.012 232.514 135.947 232.695 135.948H240.08C240.184 135.947 240.287 135.968 240.382 136.009C240.476 136.052 240.561 136.113 240.631 136.19C240.699 136.267 240.751 136.358 240.782 136.457C240.814 136.556 240.824 136.66 240.811 136.763Z" fill="white"/>
            <path d="M244.42 113.308C244.382 113.633 244.345 113.958 244.306 114.279C244.285 114.457 244.199 114.621 244.065 114.739C243.931 114.858 243.757 114.923 243.578 114.922H236.192C236.089 114.922 235.987 114.902 235.892 114.859C235.798 114.818 235.713 114.757 235.645 114.68C235.576 114.603 235.524 114.512 235.493 114.414C235.462 114.315 235.452 114.212 235.464 114.109C235.5 113.786 235.539 113.461 235.575 113.138C235.596 112.96 235.682 112.794 235.816 112.675C235.951 112.556 236.124 112.491 236.304 112.492H243.69C243.793 112.491 243.896 112.512 243.991 112.554C244.086 112.596 244.171 112.657 244.24 112.735C244.309 112.812 244.361 112.903 244.392 113.002C244.423 113.1 244.433 113.205 244.42 113.308Z" fill="white"/>
            <path d="M212.83 94.1012C212.494 95.8721 213.805 97.6086 215.609 97.6086H226.205C226.79 97.6095 227.359 97.4174 227.826 97.0628C228.291 96.7074 228.628 96.2094 228.782 95.6447C229.574 92.7787 229.387 89.8104 230.024 86.8764C230.112 86.4859 230.109 86.081 230.019 85.6913C229.929 85.3017 229.751 84.9375 229.501 84.6255C229.25 84.3135 228.934 84.0616 228.573 83.8887C228.212 83.7156 227.818 83.6259 227.417 83.626H216.698C215.405 83.626 214.289 84.541 214.085 85.8184C213.643 88.5965 213.348 91.3705 212.83 94.1012Z" fill="#6D9AFF"/>
            <path d="M206.516 140.108C206.179 141.878 207.491 143.615 209.294 143.615H219.89C220.476 143.616 221.045 143.424 221.511 143.069C221.977 142.714 222.313 142.216 222.468 141.651C223.26 138.785 223.072 135.816 223.71 132.883C223.797 132.492 223.795 132.087 223.704 131.698C223.614 131.308 223.436 130.944 223.187 130.632C222.936 130.32 222.619 130.068 222.258 129.895C221.898 129.722 221.503 129.632 221.103 129.632H210.384C209.09 129.632 207.974 130.547 207.771 131.824C207.329 134.603 207.034 137.377 206.516 140.108Z" fill="#6D9AFF"/>
            <path d="M210.123 116.653C209.787 118.424 211.098 120.16 212.902 120.16H223.498C224.083 120.161 224.652 119.969 225.119 119.615C225.584 119.259 225.921 118.761 226.075 118.196C226.867 115.33 226.679 112.362 227.317 109.428C227.405 109.037 227.402 108.632 227.312 108.244C227.222 107.854 227.044 107.489 226.794 107.177C226.543 106.865 226.227 106.613 225.866 106.44C225.505 106.267 225.111 106.178 224.71 106.178H213.991C212.698 106.178 211.582 107.092 211.378 108.37C210.936 111.148 210.641 113.922 210.123 116.653Z" fill="#6D9AFF"/>
            <path d="M218.318 89.4626L221.266 93.5486L224.633 87.2339" stroke="white" stroke-width="1.80421" stroke-linecap="round" stroke-linejoin="round"/>
            <path d="M212.004 135.47L214.951 139.556L218.319 133.241" stroke="white" stroke-width="1.80421" stroke-linecap="round" stroke-linejoin="round"/>
            <path d="M215.611 112.016L218.559 116.101L221.926 109.787" stroke="white" stroke-width="1.80421" stroke-linecap="round" stroke-linejoin="round"/>
            <path d="M157.342 118.633C157.342 118.633 162.401 125.311 169.608 119.998L171.46 112.567C171.46 112.567 168.222 105.457 160.869 106.741L157.342 118.633Z" fill="#C2573C"/>
            <path d="M170.063 118.253C166.283 116.678 164.402 112.077 164.402 112.077L170.985 113.857C171.25 115.514 170.293 116.908 170.063 118.253Z" fill="#A8503A"/>
            <path d="M163.215 111.613C159.178 109.511 161.094 110.481 160.099 108.774C158.426 105.913 155.137 100.035 159.356 93.624C160.761 91.4906 164.733 88.352 170.542 89.1507C174.086 89.6361 176.884 92.1265 177.984 94.4233C178.373 95.283 178.661 96.1842 178.844 97.1107C179.05 98.0642 179.111 99.642 179.223 100.769C179.609 104.698 181.121 109.709 180.513 113.148C179.771 117.392 173.897 117.293 168.862 114.76L163.215 111.613Z" fill="#C2573C"/>
            <path d="M180.831 93.1558C180.6 92.7859 180.277 92.481 179.892 92.2726C180.178 91.5834 180.257 90.8256 180.118 90.0925C179.979 89.3593 179.629 88.6827 179.11 88.1458C177.88 86.8787 176.049 86.7525 174.474 87.3254C174.103 86.9805 173.678 86.6978 173.217 86.488C171.855 85.8689 170.304 85.9029 168.879 86.2695C166.393 86.9103 163.136 88.9202 161.249 90.8816C160.717 91.384 160.13 92.0155 159.96 92.1878C159.568 91.9542 159.107 91.8595 158.654 91.9208C156.015 92.2528 155.741 95.4913 155.858 97.5842C156.014 100.283 156.855 103.09 157.953 105.546C158.222 106.148 159.791 108.789 159.791 108.789L159.482 111.408C169.192 114.918 171.751 106.517 171.751 106.517V101.791C172.326 101.264 171.369 101.633 173.797 100.604C174.493 100.309 175.418 99.3632 175.455 98.5332C175.46 98.3375 175.426 98.1417 175.353 97.9604C176.846 98.2662 178.426 98.2319 179.722 97.3334C181.018 96.4358 181.716 94.61 180.831 93.1558Z" fill="#2D2745"/>
            <path d="M157.067 103.211C157.553 104.451 159.009 105.09 160.271 105.041C161.534 104.992 162.92 104.266 163.25 102.985L162.894 103.13C164.947 104.621 168.367 104.356 169.848 102.171C170.023 101.912 169.606 101.669 169.428 101.929C168.088 103.907 164.964 104.038 163.138 102.715C163.107 102.696 163.071 102.686 163.034 102.682C162.997 102.679 162.96 102.686 162.925 102.699C162.89 102.713 162.86 102.734 162.835 102.762C162.81 102.789 162.792 102.823 162.782 102.859C162.508 103.927 161.299 104.516 160.271 104.557C159.245 104.599 157.944 104.116 157.534 103.084C157.422 102.796 156.951 102.922 157.067 103.213V103.211Z" fill="#645A8C"/>
            <path d="M164.509 96.1935C165.397 96.5606 166.352 96.7347 167.313 96.7059C168.123 96.6788 169.012 96.5308 169.692 96.0771C169.992 95.9039 170.24 95.6531 170.411 95.3509C170.582 95.0496 170.669 94.7077 170.662 94.3604C170.662 94.0501 170.565 93.747 170.384 93.4944C170.203 93.2418 169.947 93.0523 169.653 92.9531V93.4213C170.635 93.1786 171.774 92.8773 172.362 91.9644C172.818 91.2607 172.872 90.2096 172.19 89.6295C171.947 89.428 171.607 89.7679 171.845 89.9717C172.41 90.4572 172.276 91.3311 171.845 91.8579C171.287 92.5327 170.335 92.7465 169.527 92.945C169.475 92.9594 169.429 92.9901 169.398 93.0325C169.365 93.0749 169.347 93.1263 169.347 93.1795C169.347 93.2328 169.365 93.2851 169.398 93.3275C169.429 93.3699 169.475 93.3996 169.527 93.4141C170.044 93.5647 170.255 94.1565 170.167 94.6518C170.07 95.2706 169.51 95.6838 168.954 95.9048C167.596 96.4479 165.958 96.2638 164.633 95.7171C164.346 95.599 164.22 96.0672 164.504 96.1862L164.509 96.1935Z" fill="#645A8C"/>
            <path d="M179.299 102.104C179.299 102.104 181.901 104.362 181.996 105.181C182.177 106.761 179.569 107.018 179.569 107.018L179.299 102.104Z" fill="#C2573C"/>
            <path d="M168.872 105.254C169.009 106.046 169.378 106.778 169.931 107.36C170.485 107.941 171.198 108.345 171.982 108.522C172.765 108.698 173.582 108.637 174.332 108.349C175.08 108.06 175.727 107.556 176.189 106.899C176.652 106.243 176.909 105.465 176.929 104.662C176.949 103.86 176.73 103.07 176.301 102.391C175.872 101.713 175.251 101.177 174.517 100.851C173.783 100.526 172.969 100.426 172.178 100.563C171.653 100.654 171.151 100.847 170.701 101.132C170.25 101.417 169.861 101.788 169.553 102.223C169.246 102.659 169.028 103.152 168.912 103.671C168.794 104.192 168.781 104.729 168.872 105.254Z" fill="#C2573C"/>
            <path d="M171.632 105.94C171.437 105.682 171.305 105.382 171.243 105.065C171.181 104.748 171.192 104.421 171.275 104.109C171.458 103.536 171.838 103.047 172.348 102.728C172.607 102.556 172.365 102.135 172.105 102.308C171.489 102.693 171.029 103.285 170.809 103.978C170.708 104.353 170.691 104.745 170.762 105.127C170.832 105.509 170.986 105.87 171.215 106.185C171.394 106.428 171.816 106.185 171.634 105.941L171.632 105.94Z" fill="#8A3722"/>
            <path d="M178.568 101.565C178.216 101.565 177.533 101.696 177.184 101.73C176.007 101.849 175.727 100.486 177.065 99.5014C177.66 99.0648 179.279 98.6904 179.862 99.5014C180.233 100.018 180.068 100.934 179.648 101.412C179.44 101.652 178.864 101.557 178.568 101.565Z" fill="#2D2745"/>
            <path d="M178.381 102.352C177.35 102.32 177.41 103.684 177.561 104.241C177.66 104.6 177.888 105.029 178.355 105.036C179.037 105.036 179.129 104.204 179.129 103.747C179.129 103.24 179.058 102.373 178.381 102.352Z" fill="#2D2745"/>
            <path d="M263.992 156.308C264.157 155.791 264.305 155.275 264.165 154.732C263.909 153.731 263.231 152.967 262.392 152.409C260.376 151.068 258.26 150.126 255.784 150.303C252.077 150.564 247.948 151.736 241.496 156.398C239.201 158.054 240.412 156.763 238.39 158.801C238.22 158.974 238.153 160.203 238.344 160.133C240.655 163.337 243.595 165.379 245.593 168.784H245.367C245.086 168.768 245.114 169.26 245.389 169.221C248.739 168.742 254.601 164.45 257.458 162.459C258.481 162.69 259.514 162.867 260.556 162.988C261.576 163.099 263.047 162.566 263.078 161.418C263.118 160.826 262.951 160.237 262.607 159.754C263.362 159.803 264.81 159.818 265.122 158.352C265.286 157.51 264.657 156.799 263.992 156.308Z" fill="#C2573C"/>
            <path d="M242.037 155.845C242.037 155.845 213.244 163.584 212.529 162.382C210.557 159.068 204.338 148.234 203.079 144.769C200.29 137.096 196.39 130.642 189.078 125.007C184.782 121.694 179.623 120.468 171.754 119.158C171.754 119.158 170.371 117.701 167.103 116.677C164.167 115.785 161.065 115.571 158.034 116.053C154.415 116.614 143.545 121.14 142.8 123.807C141.038 130.177 147.47 142.382 146.475 148.981C145.491 155.504 145.831 162.386 148.596 168.375C153.261 178.483 140.998 196.555 151.509 198.259C151.509 198.259 163.435 200.557 168.033 200.762C173.374 201.005 183.644 195.341 187.963 190.129C189.305 188.511 187.686 169.302 187.963 162.382C188.382 164.157 188.974 165.724 189.078 166.035C189.872 168.387 194.349 173.477 196.011 175.344C206.989 187.675 223.969 181.881 235.602 175.344C240.19 172.766 245.161 171.428 249.427 168.35C249.684 164.49 242.037 155.845 242.037 155.845Z" fill="#ED5500"/>
            <path fill-rule="evenodd" clip-rule="evenodd" d="M186.467 154.982C186.109 155.087 185.904 155.463 186.011 155.822L188.17 163.139C188.277 163.498 188.653 163.702 189.011 163.596C189.369 163.49 189.574 163.114 189.468 162.756L187.308 155.439C187.202 155.08 186.826 154.875 186.467 154.982Z" fill="#BA5217"/>
            <path d="M257.308 158.149C259.12 158.646 260.897 159.264 262.627 160.001C262.911 160.122 263.158 159.706 262.869 159.581C261.102 158.826 259.287 158.191 257.434 157.68C257.403 157.672 257.371 157.67 257.339 157.674C257.308 157.678 257.277 157.688 257.25 157.704C257.222 157.72 257.198 157.741 257.178 157.766C257.158 157.791 257.144 157.82 257.135 157.851C257.127 157.882 257.125 157.913 257.129 157.946C257.133 157.977 257.143 158.008 257.159 158.035C257.174 158.063 257.196 158.087 257.221 158.107C257.245 158.126 257.274 158.14 257.305 158.149H257.308Z" fill="#8A3722"/>
            <path d="M257.543 154.42C259.636 154.995 261.688 155.71 263.685 156.558C263.969 156.68 264.216 156.263 263.928 156.139C261.893 155.272 259.803 154.542 257.672 153.954C257.61 153.937 257.543 153.945 257.488 153.977C257.431 154.008 257.389 154.061 257.372 154.123C257.355 154.185 257.363 154.252 257.395 154.308C257.426 154.364 257.479 154.405 257.541 154.422L257.543 154.42Z" fill="#8A3722"/>
            <path d="M180.645 110.753C178.177 110.753 177.405 108.81 177.4 108.793L180.437 108.471C180.706 109.2 180.778 109.987 180.645 110.753Z" fill="white"/>
            <path d="M246.506 153.852C249.589 151.702 252.415 149.203 254.924 146.405C257.549 143.492 259.537 146.186 259.126 147.773C258.42 150.478 255.118 155.01 254.495 155.541C253.871 156.073 246.506 153.852 246.506 153.852Z" fill="#C2573C"/>
            <path d="M254.152 151.112C255.328 150.787 256.558 150.712 257.764 150.891C257.827 150.908 257.893 150.9 257.949 150.869C258.004 150.837 258.046 150.785 258.063 150.724C258.08 150.661 258.073 150.596 258.041 150.54C258.01 150.484 257.958 150.442 257.896 150.425C256.604 150.225 255.285 150.3 254.024 150.643C253.962 150.661 253.909 150.701 253.877 150.757C253.846 150.813 253.838 150.88 253.854 150.942C253.871 151.004 253.913 151.057 253.968 151.088C254.024 151.121 254.091 151.129 254.152 151.112Z" fill="#8A3722"/>
            <path d="M146.319 174.324C146.319 174.324 157.977 182.021 161.618 195.615C165.26 209.209 167.705 233.993 167.705 233.993H87.8027C87.8027 233.993 100.987 204.842 118.411 190.389C135.835 175.936 146.319 174.324 146.319 174.324Z" fill="#472722"/>
            <path d="M134.332 102.54C133.413 101.801 132.444 101.127 131.432 100.523C130.374 99.8883 129.246 99.3759 128.148 98.8076C127.006 98.2618 125.963 97.5293 125.061 96.6408C124.217 95.7134 123.52 94.6624 122.992 93.5249C122.333 92.1636 121.77 90.7419 121.188 89.3467C120.551 87.8229 119.915 86.299 119.278 84.7752C119.166 84.5029 111.16 92.114 111.275 92.3909C111.802 93.6539 112.663 98.3088 113.543 103.082C109.128 103.223 105.856 103.501 106.36 104.154C107.115 105.13 110.85 107.265 114.759 109.526C115.257 112.04 115.712 114.035 116.048 114.791C116.195 115.122 116.86 113.591 117.748 111.277C121.292 113.385 124.375 115.386 124.755 116.466C124.853 116.748 143.27 119.945 143.171 119.663C141.59 115.161 138.051 105.53 134.332 102.54Z" fill="#2D2745"/>
            <path d="M124.598 129.185C124.534 128.669 123.716 128.727 123.789 129.246C123.849 129.689 123.881 130.136 123.884 130.582C123.74 130.507 123.574 130.486 123.417 130.523C123.337 130.534 123.266 130.574 123.216 130.636C123.165 130.698 123.14 130.776 123.144 130.856L123.091 130.759C122.895 130.334 122.721 129.897 122.573 129.451C122.28 128.627 122.031 127.785 121.813 126.936C121.367 125.201 121.04 123.439 120.672 121.697C120.324 119.936 119.853 118.202 119.26 116.508C118.626 114.837 117.888 113.208 117.05 111.628C115.385 108.411 113.585 105.267 112.283 101.868C111.009 98.5415 110.107 95.0856 109.594 91.561C109.399 90.2074 109.264 88.8479 109.186 87.4827C108.122 85.0395 107.061 82.4905 106.432 79.8975C102.712 81.1259 99.2792 83.0985 96.3456 85.6951C93.411 88.2917 91.0358 91.4582 89.3639 95.0017C88.1311 97.6358 87.3968 100.442 86.8913 103.298C85.8024 109.427 85.5467 116.078 81.6958 121.262C78.3418 125.76 73.2696 128.855 70.8089 134.024C67.9442 140.056 68.4604 148.015 73.8405 152.482C79.2205 156.949 88.6385 156.362 94.692 153.588C96.5837 152.725 98.3293 151.571 99.8638 150.167C101.702 148.471 103.289 146.46 105.466 145.179C107.643 143.898 110.164 143.719 112.581 143.382C114.824 143.07 117.007 142.586 118.929 141.324C122.877 138.734 125.246 133.867 124.598 129.185Z" fill="#2D2745"/>
            <path d="M141.266 156.87C140.521 158.278 139.744 159.689 138.928 161.084C137.594 158.814 135.851 156.81 133.787 155.174C129.612 151.875 124.51 150.695 119.419 149.574C108.418 147.146 96.943 144.8 85.7522 147.437C81.1644 148.514 76.8022 150.44 73.0664 153.287C73.0469 152.149 71.4084 151.391 70.8525 152.622C69.4422 155.737 70.7335 158.853 72.406 161.59C74.2311 164.579 76.2181 167.468 78.3582 170.241C82.514 175.623 87.483 180.499 93.5926 183.616C99.477 186.618 106.016 187.714 112.527 186.373C119.145 185.009 125.174 181.402 130.039 176.785C133.333 173.656 136.131 170.071 138.608 166.27C138.727 166.639 138.839 166.998 138.933 167.386C139.319 168.9 141.661 168.257 141.273 166.742C141.005 165.694 140.659 164.667 140.237 163.67C141.338 161.839 142.38 159.975 143.373 158.087C144.092 156.715 141.997 155.484 141.266 156.87Z" fill="#2D2745"/>
            <path d="M104.377 75.7473C104.377 75.7473 95.2443 75.0935 88.6077 82.0474C84.1646 86.6979 86.8384 94.0287 90.9052 97.4386C95.303 101.126 105.061 94.1117 106.448 88.6744C107.836 83.2374 104.377 75.7473 104.377 75.7473Z" fill="#2D2745"/>
            <path d="M89.311 152.181C83.2423 153.424 85.2438 151.836 79.2067 151.113C78.705 155.806 78.3141 160.499 78.0342 165.192C77.7502 169.989 77.692 168.426 77.6433 173.232C75.33 170.076 62.5421 156.15 58.7601 152.181C56.09 149.382 53.1066 146.889 50.0795 144.49C48.7377 143.465 49.5375 131.2 48.0978 130.316C46.1218 129.057 42.9078 129.008 43.2574 132.125C43.369 133.123 43.8933 134.013 44.442 134.774C45.8621 136.747 48.207 140.446 48.207 140.446C47.4107 142.131 44.8255 144.146 43.1093 143.844C42.2153 143.692 41.3779 143.305 40.6818 142.723C39.6696 143.208 38.332 143.208 37.298 142.997C35.6424 142.67 34.2369 141.655 32.8994 140.684C32.7854 140.6 32.6712 140.519 32.5547 140.442C33.1059 142.445 34.0829 144.306 35.4191 145.898C32.4528 147.354 33.4772 151.049 37.0358 153.115C36.1037 153.261 32.5742 159.208 42.6189 159.218C43.221 159.261 48.4339 163.711 51.0216 163.686C54.7502 169.941 62.6735 182.339 64.761 185.368C68.191 190.369 73.7685 196.083 80.9766 196.083C93.084 196.083 97.3095 174.931 97.71 160.228L97.9888 149.931C95.1363 150.827 92.2397 151.577 89.311 152.181Z" fill="#F28E61"/>
            <path d="M143.211 131.005C140.597 124.026 136.696 116.998 130.217 113.544C122.976 109.686 124.013 109.545 116.155 110.469C107.533 111.481 112.178 109.372 104.053 112.586C97.985 114.982 89.047 120.631 88.0542 128.078C87.4425 132.691 89.9961 135.117 91.1786 139.555C93.3626 147.808 92.1818 149.561 95.1073 157.506C101.295 174.314 112.983 193.622 112.983 193.622C112.983 193.622 153.447 183.499 154.92 180.797C154.92 168.121 148.385 144.81 143.211 131.005Z" fill="#6D9AFF"/>
            <path d="M90.6084 121.569C74.2259 141.21 76.2501 170.691 76.2501 170.691L72.1476 165.941C72.1476 165.941 58.489 181.986 62.6471 182.89C62.6471 182.89 70.7466 195.78 79.057 196.601C84.2575 197.116 87.8908 196.394 91.985 193.146C101.512 185.589 99.8929 157.843 99.8929 157.843C99.8929 157.843 95.4166 115.804 90.6084 121.569Z" fill="#6D9AFF"/>
            <path fill-rule="evenodd" clip-rule="evenodd" d="M93.9608 145.83C93.5901 145.787 93.2536 146.053 93.2103 146.423L93.8823 146.502C93.2103 146.423 93.2103 146.423 93.2103 146.423L93.2094 146.428L93.2085 146.441L93.203 146.485C93.1994 146.524 93.1931 146.58 93.185 146.653C93.1706 146.8 93.1498 147.011 93.1273 147.273C93.0822 147.797 93.0298 148.528 92.9983 149.357C92.936 150.998 92.955 153.084 93.314 154.703C93.6974 156.435 94.6383 158.504 95.4565 160.105C95.8706 160.913 96.2603 161.618 96.5472 162.119C96.6906 162.37 96.8088 162.571 96.8908 162.71C96.9323 162.779 96.9648 162.833 96.9865 162.87L96.9991 162.89L100.811 171.319C100.965 171.66 101.366 171.81 101.706 171.657C102.047 171.503 102.198 171.102 102.044 170.761L98.198 162.257L98.1755 162.221L98.1745 162.218L98.1682 162.209L98.1457 162.171C98.1249 162.136 98.0943 162.086 98.0546 162.019C97.9752 161.885 97.8615 161.692 97.7217 161.447C97.4429 160.959 97.0632 160.274 96.6617 159.489C95.8498 157.902 94.9784 155.962 94.6347 154.41C94.3162 152.97 94.2892 151.03 94.3505 149.408C94.3812 148.606 94.4317 147.897 94.4759 147.389C94.4976 147.134 94.5174 146.931 94.5318 146.792C94.5391 146.723 94.5445 146.669 94.5481 146.634L94.5526 146.593L94.5544 146.583V146.581" fill="#5488FE"/>
            <path d="M164.949 155.563C163.76 152.057 160.396 143.139 160.396 143.139L144.318 154.606L147.782 161.236C142.634 163.794 123.947 171.508 120.672 173.043C114.604 175.885 102.994 181.106 98.0827 184.981C95.131 187.308 91.4414 191.394 90.0066 194.739C87.0936 197.458 86.0571 198.404 83.4742 200.881C82.3067 202 80.253 204.036 81.7896 205.69C82.0715 205.968 82.4111 206.181 82.7844 206.314C83.1578 206.447 83.5557 206.495 83.95 206.457C84.514 206.401 85.0594 206.224 85.5497 205.94C84.6832 209.137 83.9379 215.65 84.2608 217.181C84.3458 217.587 83.885 219.601 86.577 218.501C88.7618 217.608 88.3163 210.156 89.4499 206.413C89.7825 205.308 89.9864 204.546 90.4211 203.461C90.7558 205.479 91.6028 207.544 92.2415 209.489C93.0336 212.003 94.0999 214.422 95.4215 216.703C95.9456 217.579 96.6348 218.487 97.582 218.924C98.0403 219.134 97.7976 218.999 98.2965 218.924C98.7944 218.849 99.029 218.837 99.4052 218.501C100.334 217.713 98.9929 216.621 99.0488 215.441C99.0759 214.115 98.9631 212.789 98.7141 211.487C98.5536 210.531 98.3425 209.585 98.0827 208.651C99.0452 209.021 100.08 209.164 101.107 209.066C102.132 208.97 103.123 208.637 103.999 208.093C105.331 207.229 106.332 205.94 106.838 204.435C107.281 203.107 107.45 201.131 106.198 200.167C105.875 199.942 105.501 199.8 105.108 199.757C104.717 199.715 104.321 199.773 103.957 199.924C104.316 198.509 107.352 196.977 107.709 195.565C110.24 193.063 115.339 191.413 121.515 188.634C133.543 183.22 147.158 185.053 158.273 177.66C161.535 175.49 163.548 173.319 164.949 170.173C167.537 164.376 166.932 161.528 164.949 155.563Z" fill="#F28E61"/>
            <path d="M145.299 119.079C154.229 125.912 160.814 143.908 160.814 143.908C164.718 151.204 171.178 167.249 165.798 173.063C160.418 178.877 150.757 182.139 146.599 183.043L137.054 165.796L146.599 161.132L127.314 112.293C127.314 112.293 131.921 111.464 145.299 119.079Z" fill="#6D9AFF"/>
            <path fill-rule="evenodd" clip-rule="evenodd" d="M138.658 144.61C138.33 144.79 138.211 145.201 138.392 145.529L147.03 161.182L131.171 166.868C130.819 166.994 130.636 167.382 130.763 167.733C130.889 168.085 131.276 168.268 131.628 168.142L147.991 162.275L151.726 163.788C152.072 163.929 152.466 163.762 152.607 163.416C152.747 163.069 152.58 162.674 152.234 162.534L148.483 161.014L139.577 144.875C139.397 144.548 138.984 144.429 138.658 144.61Z" fill="#5488FE"/>
            <path d="M117.264 97.7139C117.264 97.7139 119.244 106.763 119.608 109.898C120.033 113.553 109.545 119.888 106.538 112.236L105.803 102.851L117.264 97.7139Z" fill="#F28E61"/>
            <path d="M112.594 104.536C112.594 104.536 110.58 110.795 106.455 111.651C106.278 110.574 105.408 106.641 105.408 106.641L112.594 104.536Z" fill="#CD6536"/>
            <path d="M106.455 109.592C111.313 107.031 115.866 101.417 117.057 99.3537C119.058 95.8951 122.997 88.7853 117.88 81.0881C116.174 78.5216 111.263 74.1671 104.373 75.7489C100.544 76.6292 96.7509 79.3641 95.4275 82.1389C94.963 83.177 94.6193 84.2655 94.4055 85.3826C94.1484 86.637 93.9616 87.9048 93.8462 89.1802C93.3987 93.9203 93.0785 100.47 93.8245 104.611C94.7392 109.723 100.597 112.677 106.455 109.592Z" fill="#F28E61"/>
            <path d="M120.17 96.5816C120.135 96.5473 117.442 95.5081 117.407 95.4747C116.421 95.7174 115.399 95.6588 114.635 94.9497C114.279 95.9339 113.974 96.9352 113.722 97.9501C113.075 100.596 112.71 103.398 112.907 106.124C113.086 108.634 113.851 111.153 115.645 112.986C116.422 113.793 117.37 114.415 118.42 114.807C119.592 115.213 120.857 115.269 122.06 114.969C123.484 114.616 124.828 113.998 126.023 113.146C126.86 112.559 130.717 109.445 131.302 108.609C131.139 108.26 122.389 98.7954 120.17 96.5816Z" fill="#2D2745"/>
            <path d="M117.882 81.0874C116.178 78.5206 111.267 74.1662 104.377 75.7479C100.548 76.6282 96.5872 78.7847 95.271 81.5561C94.7487 82.7202 94.4646 83.9775 94.4375 85.2534C96.6486 84.3525 98.7216 83.145 100.596 81.6663C102.04 84.025 103.789 86.1826 105.798 88.0834C107.194 89.4333 108.678 90.6893 110.241 91.8425C111.847 93.073 113.679 96.2205 115.55 96.9927C116.654 97.4257 118.744 98.0635 119.908 98.2213C121.548 94.4163 121.604 86.6832 117.882 81.0874Z" fill="#2D2745"/>
            <path d="M100.827 81.4539C100.728 79.2646 101.977 76.9297 104.145 76.2488C104.443 76.1554 104.255 75.7091 103.96 75.8023C101.579 76.5486 100.239 79.1273 100.346 81.5139C100.357 81.8279 100.839 81.7655 100.827 81.4539Z" fill="#645A8C"/>
            <path d="M112.587 93.2683C113.706 94.7153 115.136 95.8926 116.771 96.7126C118.405 97.5335 120.203 97.9764 122.032 98.0098C123.074 98.0287 124.114 97.9051 125.123 97.6426C125.185 97.6255 125.237 97.5849 125.27 97.529C125.301 97.473 125.309 97.4063 125.292 97.344C125.275 97.2827 125.234 97.2295 125.178 97.1979C125.123 97.1654 125.056 97.1573 124.994 97.1744C121.595 98.0558 117.886 97.2259 115.105 95.1212C114.312 94.5213 113.606 93.8159 113.007 93.0239C112.82 92.7812 112.397 93.0239 112.587 93.2665V93.2683Z" fill="#645A8C"/>
            <path d="M100.491 89.0926C100.479 89.4101 100.397 89.2862 100.585 89.5424C100.773 89.7986 101.043 89.9835 101.349 90.067C101.821 90.204 102.733 89.542 103.384 89.5423C103.751 89.5441 104.115 89.5952 104.468 89.6944C105.235 89.9023 105.281 89.1197 105.239 88.7475C105.117 87.6505 100.532 88.0785 100.491 89.0926Z" fill="#2D2745"/>
            <path d="M115.313 96.9792C115.118 97.9273 114.647 98.7951 113.958 99.4753C113.27 100.155 112.395 100.615 111.445 100.797C110.495 100.979 109.512 100.876 108.621 100.5C107.729 100.124 106.97 99.4916 106.437 98.6833C105.905 97.8759 105.625 96.9278 105.631 95.9607C105.638 94.9928 105.931 94.0492 106.474 93.2481C107.017 92.4479 107.785 91.8255 108.682 91.4619C109.578 91.0975 110.562 91.0073 111.51 91.203C112.78 91.4646 113.894 92.2206 114.608 93.3031C115.321 94.3866 115.575 95.709 115.313 96.9792Z" fill="#F28E61"/>
            <path d="M102.334 92.3225C103.736 92.0781 103.779 93.5214 103.619 94.1349C103.515 94.5399 103.243 95.0297 102.615 95.1398C101.688 95.2923 101.488 94.4226 101.449 93.9463C101.404 93.4132 101.425 92.4894 102.34 92.3288L102.334 92.3225Z" fill="#2D2745"/>
            <path d="M97.521 89.4446C97.5328 89.7622 97.6148 89.6382 97.4272 89.8944C97.2387 90.1506 96.9698 90.3355 96.6631 90.419C96.1904 90.5561 95.2784 89.8941 94.628 89.8943C94.2617 89.8961 93.8973 89.9473 93.5436 90.0464C92.7769 90.2544 92.7309 89.4718 92.7724 89.0996C92.8941 88.0025 97.4795 88.4307 97.521 89.4446Z" fill="#2D2745"/>
            <path d="M94.813 93.0446C96.2202 92.8516 96.195 94.2381 96.0055 94.8209C95.8828 95.2061 95.5888 95.6698 94.9564 95.7546C94.0272 95.8727 93.8693 95.0329 93.8504 94.5737C93.8306 94.0622 93.8955 93.1755 94.8184 93.0492L94.813 93.0446Z" fill="#2D2745"/>
            <path d="M97.0872 95.0746C97.172 96.5856 96.619 98.352 95.2108 99.1196C93.8703 99.8467 92.3836 99.2261 91.5428 98.0497C91.0701 97.3632 90.7715 96.573 90.6723 95.7458C90.5731 94.9185 90.6768 94.0796 90.9736 93.3011C91.4923 91.9696 92.7354 90.8509 94.2464 91.1396C96.0326 91.4779 96.9771 93.4219 97.0872 95.0746C97.1106 95.3849 97.5923 95.3245 97.5689 95.0142C97.4462 93.3002 96.5351 91.4274 94.831 90.803C93.2307 90.2144 91.6421 91.0702 90.832 92.4801C90.3818 93.3083 90.148 94.2365 90.1524 95.1792C90.1569 96.1228 90.3999 97.0493 90.8572 97.8729C91.661 99.2992 93.2388 100.297 94.8941 99.78C96.8553 99.1665 97.6753 96.8896 97.5689 95.0142C97.5508 94.6966 97.07 94.7589 97.0872 95.0746Z" fill="#2D2745"/>
            <path d="M110.746 93.4054C111.261 93.5787 111.714 93.9007 112.048 94.3301C112.382 94.7595 112.582 95.2782 112.624 95.8204C112.665 96.3634 112.546 96.9056 112.281 97.381C112.017 97.8564 111.617 98.2434 111.135 98.4933C110.861 98.6404 111.045 99.0923 111.32 98.9426C111.887 98.6539 112.358 98.2046 112.673 97.6517C112.988 97.0987 113.134 96.4645 113.092 95.8294C113.052 95.1943 112.825 94.5845 112.441 94.0766C112.057 93.5687 111.533 93.1844 110.933 92.9706C110.639 92.8633 110.447 93.3098 110.745 93.4172L110.746 93.4054Z" fill="#CF4E15"/>
            <path d="M97.229 101.441C97.155 101.455 97.0855 101.488 97.0296 101.539C96.9728 101.589 96.9313 101.653 96.9087 101.726C96.8853 101.798 96.8826 101.874 96.8997 101.948C96.9168 102.022 96.9538 102.089 97.0053 102.143C97.8803 103.042 98.943 103.404 99.9317 103.205C100.919 103.007 102.142 102.218 102.576 101.022C102.6 100.952 102.606 100.876 102.592 100.803C102.578 100.729 102.544 100.661 102.495 100.604C102.447 100.548 102.384 100.506 102.312 100.482C102.242 100.458 102.166 100.453 102.093 100.468L97.229 101.441Z" fill="#8A3722"/>
            <path d="M97.3524 94.44C96.9022 95.2789 96.3899 96.2577 96.5892 97.2455C96.7471 98.0285 97.3326 98.7971 98.1823 98.845C98.4927 98.863 98.5648 98.3813 98.2518 98.3641C97.5626 98.3253 97.1179 97.6641 97.0457 97.0227C96.9401 96.1747 97.4119 95.3502 97.7998 94.6312C97.9487 94.3534 97.4967 94.1648 97.3533 94.4427L97.3524 94.44Z" fill="#CF4E15"/>
            <path d="M106.506 94.2983C106.597 95.9356 105.805 97.6469 104.275 98.3677C103.557 98.6907 102.752 98.7674 101.986 98.5842C101.22 98.4011 100.536 97.969 100.042 97.3565C99.5025 96.6943 99.1588 95.8951 99.0497 95.0489C98.9405 94.2018 99.0713 93.3412 99.4258 92.5645C100.099 91.1139 101.612 90.1402 103.232 90.3789C105.134 90.6728 106.369 92.4562 106.505 94.2893C106.526 94.6014 107.008 94.5392 106.986 94.2289C106.85 92.3913 105.704 90.6044 103.891 90.0398C103.041 89.7865 102.13 89.82 101.3 90.135C100.47 90.4501 99.7677 91.0291 99.2995 91.7833C98.7944 92.5897 98.5273 93.5225 98.5273 94.4742C98.5282 95.426 98.7962 96.3578 99.3014 97.1643C100.268 98.6934 102.109 99.5332 103.88 99.0407C105.956 98.4543 107.103 96.3064 106.989 94.2505C106.98 93.924 106.498 93.9862 106.506 94.2983Z" fill="#2D2745"/>
            <path d="M97.3468 94.6754C97.7861 94.6474 98.2245 94.6321 98.6638 94.6023C98.727 94.5942 98.7856 94.5608 98.8253 94.5103C98.8641 94.4598 98.8821 94.3948 98.874 94.3307C98.8659 94.2676 98.8334 94.209 98.7829 94.1693C98.7315 94.1305 98.6674 94.1124 98.6034 94.1206C98.1641 94.1503 97.7256 94.1657 97.2863 94.1936C97.2232 94.2017 97.1645 94.2342 97.1248 94.2856C97.0861 94.3362 97.068 94.4002 97.0761 94.4643C97.0833 94.5283 97.1167 94.5869 97.1672 94.6257C97.2187 94.6654 97.2827 94.6835 97.3468 94.6754Z" fill="#2D2745"/>
            <path d="M106.111 92.0841L110.828 91.2695C111.135 91.2163 111.077 90.7346 110.769 90.7878L106.051 91.6024C105.744 91.6556 105.802 92.1373 106.111 92.0841Z" fill="#2D2745"/>
            <path d="M81.4627 154.529C69.4832 134.845 63.5238 108.82 62.2009 84.3366C62.1438 83.3457 61.7095 82.4143 60.9872 81.7335C60.265 81.0528 59.3095 80.6743 58.3169 80.676L10.5932 80.3125C10.2314 80.3121 9.8734 80.3851 9.5408 80.5273C9.2081 80.6695 8.90783 80.8778 8.65812 81.1395C8.40841 81.4012 8.21449 81.711 8.08813 82.05C7.96176 82.389 7.90559 82.75 7.92302 83.1114C9.19745 108.804 15.5768 136.3 28.6657 156.455C29.0191 156.994 29.5014 157.437 30.0689 157.743C30.6363 158.05 31.2712 158.21 31.9161 158.209L79.1737 158.573C79.6462 158.573 80.1102 158.448 80.5183 158.209C80.9265 157.971 81.2642 157.629 81.4969 157.218C81.7297 156.807 81.8492 156.342 81.8432 155.869C81.8371 155.397 81.7059 154.934 81.4627 154.529Z" fill="#FAE4D4"/>
            <path d="M55.4626 92.5597C55.4238 92.8853 55.3873 93.2101 55.3485 93.5312C55.3276 93.709 55.2417 93.8731 55.1073 93.9913C54.973 94.1104 54.7995 94.1753 54.6203 94.1744H36.827C36.7238 94.1744 36.6216 94.1537 36.5272 94.1122C36.4328 94.0698 36.3483 94.0085 36.2795 93.9318C36.2106 93.8551 36.1589 93.764 36.1278 93.6657C36.0965 93.5673 36.0867 93.4636 36.0987 93.3607C36.1351 93.0378 36.1739 92.713 36.2104 92.3901C36.2308 92.2115 36.3164 92.0464 36.4508 91.9273C36.5852 91.8082 36.759 91.7433 36.9387 91.7442H54.732C54.8356 91.7433 54.9383 91.764 55.0332 91.8055C55.128 91.8479 55.2129 91.9093 55.2821 91.9868C55.3512 92.0635 55.4031 92.1546 55.4342 92.2539C55.4654 92.3522 55.475 92.4568 55.4626 92.5597Z" fill="white"/>
            <path d="M67.9975 138.567C67.9694 138.894 67.9437 139.219 67.9154 139.541C67.9004 139.72 67.82 139.887 67.6896 140.01C67.5593 140.133 67.3881 140.204 67.2088 140.208L49.4252 140.795C49.322 140.799 49.2192 140.781 49.1235 140.742C49.0278 140.703 48.9414 140.645 48.87 140.571C48.7986 140.496 48.744 140.407 48.7095 140.309C48.6751 140.213 48.6619 140.109 48.6705 140.006C48.6963 139.682 48.7244 139.356 48.7501 139.032C48.7645 138.852 48.8447 138.685 48.9752 138.562C49.1056 138.438 49.2771 138.367 49.4566 138.362L67.2404 137.776C67.3439 137.772 67.4472 137.79 67.5434 137.827C67.6397 137.866 67.7264 137.925 67.7981 138C67.8698 138.075 67.9247 138.164 67.9591 138.262C67.9935 138.36 68.0065 138.463 67.9975 138.567Z" fill="white"/>
            <path d="M59.07 115.113C59.0312 115.439 58.9948 115.763 58.956 116.084C58.935 116.262 58.8492 116.426 58.7147 116.545C58.5804 116.664 58.4069 116.729 58.2277 116.728H40.4344C40.3312 116.728 40.229 116.707 40.1346 116.665C40.0402 116.623 39.9557 116.562 39.8869 116.485C39.818 116.408 39.7663 116.317 39.7352 116.219C39.704 116.121 39.6941 116.017 39.7061 115.914C39.7426 115.591 39.7814 115.266 39.8178 114.943C39.8382 114.765 39.9238 114.6 40.0582 114.481C40.1926 114.361 40.3664 114.296 40.5461 114.297H58.3394C58.443 114.296 58.5457 114.317 58.6406 114.359C58.7354 114.401 58.8203 114.462 58.8895 114.54C58.9587 114.617 59.0105 114.708 59.0417 114.807C59.0728 114.905 59.0824 115.01 59.07 115.113Z" fill="white"/>
            <path d="M45.9573 97.0699C45.9185 97.3956 45.8821 97.7203 45.8433 98.0415C45.8224 98.2192 45.7365 98.3834 45.6022 98.5016C45.4678 98.6206 45.2943 98.6856 45.115 98.6847H37.7293C37.6261 98.6847 37.5239 98.6639 37.4295 98.6215C37.3351 98.5801 37.2507 98.5187 37.1818 98.442C37.1129 98.3654 37.0612 98.2742 37.0301 98.1759C36.9989 98.0776 36.9891 97.9738 37.001 97.871C37.0375 97.548 37.0763 97.2233 37.1127 96.9003C37.1331 96.7217 37.2187 96.5566 37.3531 96.4376C37.4876 96.3185 37.6613 96.2535 37.841 96.2544H45.2267C45.3304 96.2535 45.433 96.2743 45.5279 96.3158C45.6227 96.3582 45.7076 96.4195 45.7768 96.4971C45.846 96.5738 45.8979 96.6649 45.929 96.7641C45.9601 96.8624 45.9698 96.9671 45.9573 97.0699Z" fill="white"/>
            <path d="M58.6464 143.388C58.6182 143.714 58.5926 144.041 58.5644 144.362C58.5493 144.541 58.4689 144.707 58.3385 144.831C58.2081 144.954 58.0369 145.024 57.8577 145.029L50.476 145.272C50.3728 145.277 50.27 145.259 50.1743 145.22C50.0785 145.181 49.9921 145.123 49.9208 145.048C49.8494 144.974 49.7947 144.885 49.7604 144.788C49.726 144.69 49.7127 144.587 49.7213 144.484C49.7471 144.16 49.7752 143.833 49.801 143.509C49.8154 143.331 49.8956 143.163 50.026 143.039C50.1564 142.916 50.3279 142.845 50.5075 142.84L57.8892 142.597C57.9928 142.593 58.0961 142.61 58.1924 142.649C58.2885 142.688 58.3754 142.746 58.447 142.821C58.5187 142.896 58.5736 142.985 58.608 143.083C58.6423 143.181 58.6554 143.285 58.6464 143.388Z" fill="white"/>
            <path d="M49.5647 119.623C49.526 119.949 49.4895 120.274 49.4507 120.595C49.4298 120.772 49.3439 120.937 49.2096 121.055C49.0752 121.174 48.9017 121.239 48.7225 121.238H41.3367C41.2335 121.238 41.1313 121.217 41.037 121.175C40.9425 121.133 40.8581 121.072 40.7893 120.995C40.7203 120.919 40.6686 120.827 40.6375 120.729C40.6063 120.631 40.5965 120.527 40.6085 120.424C40.6449 120.101 40.6837 119.777 40.7201 119.454C40.7405 119.275 40.8261 119.11 40.9606 118.991C41.095 118.872 41.2687 118.807 41.4484 118.808H48.8341C48.9378 118.807 49.0404 118.827 49.1353 118.869C49.2302 118.911 49.315 118.973 49.3842 119.05C49.4534 119.127 49.5053 119.218 49.5364 119.317C49.5675 119.416 49.5772 119.52 49.5647 119.623Z" fill="white"/>
            <path d="M32.4638 100.381C32.9265 102.124 31.6275 103.855 29.8242 103.855H19.2286C18.643 103.855 18.0734 103.663 17.6076 103.309C17.1417 102.953 16.8055 102.455 16.6506 101.891C15.8592 99.0246 15.1447 96.1244 14.5071 93.1907C14.4203 92.8001 14.4222 92.3951 14.5127 92.0063C14.6034 91.6165 14.7804 91.2521 15.0306 90.94C15.2809 90.6279 15.598 90.3761 15.9587 90.2031C16.3194 90.0301 16.7142 89.9403 17.1142 89.9404H27.8336C29.1271 89.9404 30.2374 90.8561 30.5034 92.1217C31.0874 94.8993 31.7405 97.6561 32.4638 100.381Z" fill="#008B85"/>
            <path d="M46.7478 148.238C47.3443 149.94 46.0609 151.666 44.2578 151.666H33.662C33.0765 151.666 32.5069 151.474 32.0411 151.12C31.5753 150.764 31.239 150.266 31.0841 149.702C30.2928 146.836 28.6076 144.126 27.97 141.192C27.8832 140.801 27.885 140.396 27.9756 140.007C28.0663 139.617 28.2432 139.253 28.4935 138.94C28.7438 138.629 29.0609 138.377 29.4216 138.204C29.7823 138.031 30.1771 137.941 30.5771 137.941H41.2965C42.59 137.941 43.6946 138.859 44.0285 140.109C44.7642 142.863 45.8055 145.55 46.7478 148.238Z" fill="#008B85"/>
            <path d="M36.9736 123.836C37.4363 125.579 36.1372 127.309 34.334 127.309H23.7383C23.1528 127.31 22.5832 127.118 22.1173 126.763C21.6515 126.408 21.3153 125.91 21.1604 125.345C20.369 122.479 19.6545 119.579 19.0169 116.645C18.93 116.255 18.9319 115.85 19.0225 115.461C19.1132 115.071 19.2901 114.707 19.5404 114.395C19.7906 114.082 20.1078 113.831 20.4685 113.658C20.8291 113.484 21.224 113.395 21.624 113.395H32.3433C33.6369 113.395 34.7472 114.311 35.0132 115.576C35.5971 118.354 36.2503 121.111 36.9736 123.836Z" fill="#008B85"/>
            <path d="M19.8555 95.7774L22.8024 99.8631L26.1702 93.5483" stroke="white" stroke-width="1.80421" stroke-linecap="round" stroke-linejoin="round"/>
            <path d="M33.3867 143.589L36.9951 147.675L39.7015 141.36" stroke="white" stroke-width="1.80421" stroke-linecap="round" stroke-linejoin="round"/>
            <path d="M25.2676 119.233L28.2145 123.319L31.5823 117.004" stroke="white" stroke-width="1.80421" stroke-linecap="round" stroke-linejoin="round"/>
        </g>
        <path d="M98.8885 218.749H18.5078L0.163478 171.545C0.0285603 171.198 -0.0197203 170.823 0.0227999 170.453C0.0653202 170.083 0.197368 169.73 0.407514 169.422C0.617659 169.114 0.899571 168.863 1.22884 168.689C1.55812 168.514 1.92482 168.423 2.29723 168.423H77.1723C77.8084 168.423 78.4297 168.615 78.9547 168.975C79.4797 169.334 79.884 169.843 80.1144 170.436L98.8885 218.749Z" fill="#AEB3BF"/>
        <path d="M62.7891 215.412H131.841C132.284 215.412 132.709 215.588 133.022 215.901C133.335 216.214 133.511 216.639 133.511 217.082C133.51 217.525 133.334 217.949 133.021 218.261C132.708 218.574 132.283 218.75 131.841 218.75H62.7891V215.412Z" fill="#AEB3BF"/>
        <path d="M96.3941 217.491C95.2096 214.504 94.0188 211.517 92.8235 208.531C91.0428 204.055 89.255 199.581 87.4586 195.108L82.1181 181.723C80.9263 178.735 79.7611 175.736 78.545 172.758C78.1687 171.836 77.7318 170.775 76.6904 170.472C76.2406 170.365 75.7781 170.323 75.3165 170.345H14.0181C13.9537 170.345 13.892 170.371 13.8465 170.417C13.801 170.462 13.7754 170.524 13.7754 170.588C13.7754 170.652 13.801 170.714 13.8465 170.759C13.892 170.805 13.9537 170.831 14.0181 170.831H74.6562C75.2234 170.798 75.7924 170.82 76.3554 170.896C77.3944 171.105 77.7827 172.183 78.1347 173.066C78.3532 173.622 78.5732 174.176 78.795 174.731C79.4083 176.276 80.0241 177.818 80.6423 179.361C82.3319 183.595 84.0229 187.831 85.7157 192.066L91.1871 205.749C92.5664 209.204 93.9412 212.658 95.3142 216.11C95.5154 216.612 95.7148 217.118 95.9132 217.62C96.0278 217.906 96.4987 217.782 96.3823 217.491H96.3941Z" fill="#2D2745"/>
        <path d="M265.226 226.158V218.039L6.32227 218.865V226.158H265.226Z" fill="#F0F9FF"/>
    </g>
    <defs>
        <clipPath id="clip0_6616_61120">
            <rect width="287.772" height="225.526" fill="white" transform="translate(0.0078125 0.631836)"/>
        </clipPath>
    </defs>
</svg>
