<svg width="82" height="82" viewBox="0 0 82 82" fill="none" xmlns="http://www.w3.org/2000/svg">
    <path d="M15.0146 34.8618C17.0387 32.5138 19.0629 30.0848 21.168 27.7368C23.2731 25.4697 26.1069 24.0933 29.1837 23.6885C31.9365 23.2027 34.7703 23.3646 37.4422 24.1743C37.6851 24.2552 37.847 24.1743 38.0899 24.0933C42.624 20.8546 47.6439 18.4256 53.0687 16.9683C56.4693 16.0776 59.9508 15.4299 63.4324 15.187C64.4849 15.106 65.4565 15.0251 66.5091 15.0251C67.0758 14.9441 67.6426 15.268 67.7236 15.8347C67.7236 15.9967 67.7236 16.0776 67.7236 16.2396C67.3997 25.3078 65.2946 33.9712 60.5176 41.7439C59.9508 42.7155 59.3031 43.6061 58.6554 44.4968C58.4934 44.7397 58.4125 45.0635 58.4934 45.3064C59.6269 49.2738 59.3841 53.484 57.8457 57.2894C57.036 59.0707 55.8215 60.69 54.3641 61.9855C52.5019 63.5238 50.7207 65.0622 48.9394 66.6815L47.8059 67.5722H46.9962C46.6724 67.3293 46.4295 67.0054 46.1866 66.6006C45.7008 65.7909 45.134 64.9812 44.5672 64.1716C43.6766 62.7951 42.705 61.4187 41.8144 59.9613C40.6809 60.6091 39.6283 61.3377 38.4948 61.9855C37.6041 62.5522 37.3612 62.4713 36.5516 61.7426L20.6822 45.9542C20.0345 45.3064 19.9535 44.9826 20.4393 44.1729C21.087 43.0394 21.8157 41.9059 22.4635 40.7723L22.0586 40.4485L15.9052 36.4002C15.5813 36.1573 15.2575 35.9144 14.9336 35.5905L15.0146 34.8618ZM26.6737 38.4243C26.3498 38.8291 26.026 39.3149 25.7021 39.7198C24.5686 41.3391 23.516 43.0394 22.5444 44.6587L37.847 59.9613C38.1709 59.7994 38.4948 59.5565 38.8186 59.3946C40.6809 58.261 42.4621 57.1275 44.1624 55.832C44.2434 55.7511 44.3243 55.7511 44.4053 55.6701C47.7249 53.2411 50.8016 50.4883 53.5545 47.4116C57.9267 42.5536 61.2463 36.805 63.1895 30.5706C63.2704 30.3277 63.3514 30.0848 63.1085 29.9229C59.627 26.4413 56.1454 22.9598 52.6639 19.4782C52.5019 19.3163 52.259 19.2353 52.0971 19.3163C50.6397 19.8021 49.2633 20.2879 47.8059 20.9356C41.8953 23.4456 36.5516 27.17 32.1794 31.866C30.1552 33.9712 28.374 36.1573 26.6737 38.4243ZM43.5147 58.9088L47.563 65.0622C49.7491 63.119 51.9352 61.4187 54.0403 59.3946C54.8499 58.5849 55.4167 57.6133 55.9025 56.6417C56.9551 54.1318 57.3599 51.4599 57.036 48.788C57.036 48.2212 56.8741 47.5735 56.7122 47.0067C52.9068 51.5408 48.4536 55.5892 43.5147 58.9088ZM35.6609 25.8745C33.5558 25.4697 31.4507 25.3887 29.3456 25.7936C26.6737 26.1174 24.1637 27.4939 22.3015 29.518L18.658 33.8092L17.6055 35.0237L23.7589 39.072C27.0785 34.1331 31.0459 29.68 35.6609 25.8745ZM54.769 18.5876L63.9991 27.8177C64.8898 24.2552 65.3756 20.6927 65.5375 17.0492C61.894 17.2112 58.2505 17.697 54.769 18.5876Z" fill="#151616"/>
    <path d="M26.6742 38.4245C26.7552 38.5864 26.9171 38.6674 27.079 38.8293L43.7581 55.5084C43.92 55.6703 44.001 55.7513 44.1629 55.9132C42.4626 57.2087 40.6814 58.3422 38.8191 59.4757C38.4953 59.7186 38.1714 59.8805 37.8475 60.0425L22.5449 44.7399C23.5165 43.1205 24.5691 41.4203 25.7026 39.8009C26.0265 39.3151 26.3503 38.9103 26.6742 38.4245Z" fill="#FFBC0A"/>
    <path d="M17.9299 65.7909C17.525 65.8718 17.1202 65.6289 16.8773 65.3051C16.7154 64.9812 16.7154 64.5764 16.8773 64.2525C16.9583 64.0906 17.1202 63.9286 17.2821 63.8477L25.1359 55.9939C25.2168 55.832 25.3788 55.751 25.5407 55.6701C26.0265 55.3462 26.6742 55.5081 26.9171 55.9939C27.16 56.3178 27.16 56.7226 26.9171 57.0465C26.8362 57.2084 26.6742 57.2894 26.5933 57.4513L18.6586 65.386C18.4157 65.6289 18.1728 65.8718 17.9299 65.7909Z" fill="#151616"/>
    <path d="M32.0984 61.6618C32.0174 61.9047 31.9364 62.1476 31.6936 62.3095C30.3981 63.605 29.1026 64.9004 27.8072 66.1149C27.4833 66.6007 26.8356 66.7627 26.3498 66.4388C25.864 66.1149 25.7021 65.4672 26.0259 64.9814C26.1069 64.9004 26.1878 64.7385 26.2688 64.6575C27.5643 63.3621 28.8597 62.0666 30.1552 60.7712C30.4791 60.4473 30.9649 60.2854 31.3697 60.5283C31.9365 60.7712 32.0984 61.257 32.0984 61.6618Z" fill="#151616"/>
    <path d="M22.1401 51.5408C22.1401 51.7837 22.0591 52.1076 21.8163 52.2695C20.5208 53.565 19.1444 54.9414 17.8489 56.2368C17.4441 56.6417 16.7963 56.6417 16.3915 56.2368C15.9867 55.832 15.9867 55.1843 16.3915 54.7795C17.687 53.403 19.0634 52.1076 20.4398 50.7311C20.7637 50.4073 21.1685 50.3263 21.5734 50.5692C21.8972 50.7311 22.1401 51.136 22.1401 51.5408Z" fill="#151616"/>
    <path d="M55.6608 38.0195L52.746 35.1047L55.6608 32.19C56.0656 31.7851 56.0656 31.0564 55.6608 30.6516L51.9363 26.9272C51.5315 26.5223 50.8028 26.5223 50.398 26.9272L47.4832 29.8419L44.5684 26.9272C44.1636 26.5223 43.4349 26.5223 43.03 26.9272L39.3056 30.7326C38.9007 31.1374 38.9007 31.8661 39.3056 32.2709L42.1394 35.1047L39.3056 38.0195C38.9007 38.4244 38.9007 39.1531 39.3056 39.5579L43.03 43.2823C43.4349 43.6872 44.1636 43.6872 44.5684 43.2823L47.4832 40.4485L50.398 43.3633C50.8028 43.7681 51.5315 43.7681 51.9363 43.3633L55.6608 39.6389C56.0656 39.234 56.0656 38.5053 55.6608 38.0195Z" fill="#FFBC0A"/>
</svg>
