<svg width="82" height="82" viewBox="0 0 82 82" fill="none" xmlns="http://www.w3.org/2000/svg">
    <path d="M26.4227 67.493C26.0956 67.3264 25.7467 67.2065 25.3863 67.1367C24.2903 66.7438 23.3361 66.0335 22.6454 65.0962C21.9547 64.1589 21.5587 63.0371 21.508 61.8739C21.508 61.7363 21.508 61.5986 21.508 61.461V20.9374C21.4713 19.5799 21.905 18.2514 22.7358 17.1771C23.5666 16.1029 24.7433 15.3489 26.0664 15.0431C26.5571 14.9255 27.0598 14.8658 27.5643 14.8649H55.0928C55.8963 14.8414 56.6961 14.9824 57.443 15.2793C58.19 15.5763 58.8683 16.0228 59.4363 16.5916C60.0043 17.1604 60.45 17.8393 60.7459 18.5866C61.0419 19.334 61.1818 20.134 61.1572 20.9374V61.4205C61.184 62.776 60.7454 64.0996 59.9144 65.1708C59.0834 66.242 57.9103 66.9959 56.5907 67.3068C56.4045 67.3553 56.1697 67.2582 56.0239 67.4525L26.4227 67.493ZM59.1411 41.179V21.0427C59.1862 20.4865 59.11 19.9271 58.9178 19.4032C58.7255 18.8794 58.4218 18.4035 58.0276 18.0085C57.6334 17.6136 57.1581 17.3089 56.6346 17.1156C56.1111 16.9224 55.5519 16.8451 54.9956 16.8891H27.6614C27.3907 16.8813 27.1197 16.8975 26.8518 16.9377C25.8939 17.0725 25.0225 17.5649 24.4127 18.3159C23.8029 19.0669 23.4999 20.0208 23.5646 20.986V61.2181C23.5565 63.8495 25.1353 65.4688 27.7667 65.4688H54.8904C57.5218 65.4688 59.1411 63.8495 59.1411 61.2181V41.179Z" fill="#151616"/>
    <path d="M40.3008 41.1793V23.8525C40.3008 23.6825 40.3008 23.5043 40.3008 23.3343C40.3304 23.0816 40.4511 22.8484 40.6405 22.6785C40.8298 22.5085 41.0746 22.4135 41.3291 22.4113C41.5807 22.4093 41.8244 22.4997 42.0139 22.6653C42.2034 22.8309 42.3256 23.0603 42.3573 23.31C42.3696 23.4798 42.3696 23.6503 42.3573 23.8201V58.5627C42.3695 58.7325 42.3695 58.903 42.3573 59.0728C42.3261 59.3192 42.2061 59.5457 42.0197 59.7099C41.8334 59.8741 41.5936 59.9647 41.3452 59.9647C41.0969 59.9647 40.8571 59.8741 40.6707 59.7099C40.4844 59.5457 40.3644 59.3192 40.3332 59.0728C40.321 58.9003 40.321 58.7271 40.3332 58.5546L40.3008 41.1793Z" fill="#151616"/>
    <path d="M46.2593 41.1792C46.2484 40.5889 46.3561 40.0023 46.5761 39.4543C46.796 38.9064 47.1237 38.4081 47.5397 37.9891C47.9557 37.57 48.4516 37.2388 48.998 37.0149C49.5443 36.791 50.1301 36.679 50.7205 36.6856C51.9166 36.6856 53.0637 37.1608 53.9094 38.0065C54.7552 38.8523 55.2303 39.9993 55.2303 41.1954C55.2303 42.3915 54.7552 43.5386 53.9094 44.3843C53.0637 45.2301 51.9166 45.7052 50.7205 45.7052C50.1273 45.712 49.5388 45.599 48.9902 45.3731C48.4417 45.1472 47.9443 44.813 47.5278 44.3905C47.1114 43.968 46.7844 43.4659 46.5664 42.9141C46.3485 42.3623 46.244 41.7723 46.2593 41.1792Z" fill="url(#paint0_linear_6616_60268)"/>
    <path d="M36.3988 56.1903C36.4052 56.7796 36.2952 57.3645 36.0751 57.9112C35.855 58.4579 35.5291 58.9558 35.1161 59.3763C34.7031 59.7968 34.2112 60.1316 33.6685 60.3616C33.1258 60.5915 32.5431 60.7121 31.9537 60.7163C30.7566 60.7057 29.6116 60.2255 28.765 59.379C27.9185 58.5325 27.4383 57.3874 27.4277 56.1903C27.4298 55.5957 27.5497 55.0074 27.7804 54.4594C28.0111 53.9113 28.3482 53.4144 28.772 52.9974C29.1958 52.5803 29.6981 52.2514 30.2497 52.0295C30.8014 51.8076 31.3916 51.6973 31.9861 51.7048C32.5721 51.7036 33.1524 51.8193 33.6931 52.0453C34.2338 52.2712 34.7239 52.6027 35.1349 53.0204C35.5458 53.4382 35.8693 53.9337 36.0863 54.478C36.3033 55.0223 36.4096 55.6044 36.3988 56.1903Z" fill="url(#paint1_linear_6616_60268)"/>
    <path d="M36.3979 26.2085C36.4044 26.7947 36.2936 27.3764 36.0721 27.9191C35.8505 28.4619 35.5226 28.9549 35.1076 29.3691C34.6927 29.7832 34.1991 30.1102 33.656 30.3308C33.1128 30.5514 32.531 30.6612 31.9447 30.6536C31.3443 30.6569 30.7493 30.54 30.1949 30.3095C29.6404 30.0791 29.1378 29.7399 28.7166 29.312C28.2955 28.884 27.9643 28.376 27.7428 27.8179C27.5213 27.2599 27.4138 26.6631 27.4268 26.0628C27.4626 24.8749 27.9592 23.7476 28.8115 22.9195C29.6638 22.0913 30.8049 21.6274 31.9933 21.6258C32.5844 21.6342 33.168 21.7598 33.7103 21.9952C34.2525 22.2307 34.7426 22.5714 35.1523 22.9977C35.562 23.4239 35.883 23.9271 36.0968 24.4783C36.3106 25.0294 36.4129 25.6175 36.3979 26.2085Z" fill="url(#paint2_linear_6616_60268)"/>
    <path d="M27.4515 41.1791C27.444 40.5892 27.5536 40.0036 27.774 39.4563C27.9943 38.909 28.321 38.4109 28.7351 37.9907C29.1493 37.5705 29.6427 37.2366 30.1867 37.0084C30.7308 36.7802 31.3147 36.6622 31.9047 36.6612C32.498 36.6612 33.0855 36.778 33.6336 37.0051C34.1817 37.2321 34.6798 37.5649 35.0993 37.9844C35.5189 38.404 35.8516 38.902 36.0787 39.4502C36.3057 39.9983 36.4226 40.5858 36.4226 41.1791C36.4226 41.7724 36.3057 42.3599 36.0787 42.908C35.8516 43.4561 35.5189 43.9542 35.0993 44.3737C34.6798 44.7933 34.1817 45.126 33.6336 45.3531C33.0855 45.5801 32.498 45.697 31.9047 45.697C31.3147 45.696 30.7308 45.5779 30.1867 45.3497C29.6427 45.1215 29.1493 44.7877 28.7351 44.3675C28.321 43.9473 27.9943 43.4491 27.774 42.9019C27.5536 42.3546 27.444 41.769 27.4515 41.1791Z" fill="url(#paint3_linear_6616_60268)"/>
    <path d="M33.3533 39.762L30.5195 42.5958" stroke="#151616" stroke-width="2.18609" stroke-miterlimit="10" stroke-linecap="round"/>
    <path d="M46.2268 26.1516C46.2215 25.5616 46.3328 24.9764 46.5544 24.4295C46.776 23.8827 47.1035 23.385 47.5181 22.9652C47.9327 22.5453 48.4262 22.2115 48.9702 21.983C49.5142 21.7546 50.098 21.6358 50.6881 21.6337C51.8863 21.6337 53.0354 22.1097 53.8827 22.957C54.73 23.8043 55.206 24.9534 55.206 26.1516C55.206 27.3499 54.73 28.499 53.8827 29.3463C53.0354 30.1936 51.8863 30.6696 50.6881 30.6696C50.0977 30.6685 49.5134 30.5505 48.9689 30.3224C48.4244 30.0943 47.9305 29.7606 47.5157 29.3405C47.1009 28.9204 46.7735 28.4224 46.5522 27.875C46.331 27.3277 46.2204 26.742 46.2268 26.1516Z" fill="url(#paint4_linear_6616_60268)"/>
    <path d="M52.1385 24.735L49.3047 27.5688" stroke="#151616" stroke-width="2.18609" stroke-miterlimit="10" stroke-linecap="round"/>
    <path d="M46.2607 56.1985C46.2564 55.6106 46.3684 55.0276 46.5901 54.4831C46.8119 53.9387 47.1391 53.4434 47.553 53.0258C47.9668 52.6082 48.4591 52.2765 49.0015 52.0498C49.544 51.8231 50.1259 51.7059 50.7138 51.7048C51.3071 51.7048 51.8946 51.8217 52.4427 52.0487C52.9909 52.2758 53.4889 52.6086 53.9085 53.0281C54.328 53.4476 54.6608 53.9457 54.8878 54.4938C55.1149 55.042 55.2317 55.6294 55.2317 56.2228C55.2317 56.8161 55.1149 57.4035 54.8878 57.9517C54.6608 58.4998 54.328 58.9979 53.9085 59.4174C53.4889 59.8369 52.9909 60.1697 52.4427 60.3968C51.8946 60.6238 51.3071 60.7407 50.7138 60.7407C50.1214 60.7408 49.535 60.6227 48.9888 60.3934C48.4427 60.164 47.9477 59.828 47.533 59.405C47.1183 58.982 46.7922 58.4806 46.5737 57.93C46.3552 57.3794 46.2488 56.7907 46.2607 56.1985Z" fill="url(#paint5_linear_6616_60268)"/>
    <path d="M52.1619 54.7815L49.3281 57.6153" stroke="#151616" stroke-width="2.18609" stroke-miterlimit="10" stroke-linecap="round"/>
    <defs>
        <linearGradient id="paint0_linear_6616_60268" x1="48.9486" y1="36.1356" x2="54.3568" y2="43.0378" gradientUnits="userSpaceOnUse">
            <stop stop-color="#F44F4F"/>
            <stop offset="0.4429" stop-color="#EE3D3D"/>
            <stop offset="1" stop-color="#FC0E1C"/>
        </linearGradient>
        <linearGradient id="paint1_linear_6616_60268" x1="30.1183" y1="51.1552" x2="35.5204" y2="58.0554" gradientUnits="userSpaceOnUse">
            <stop stop-color="#F44F4F"/>
            <stop offset="0.4429" stop-color="#EE3D3D"/>
            <stop offset="1" stop-color="#FC0E1C"/>
        </linearGradient>
        <linearGradient id="paint2_linear_6616_60268" x1="30.1168" y1="21.0756" x2="35.5308" y2="27.9798" gradientUnits="userSpaceOnUse">
            <stop stop-color="#F44F4F"/>
            <stop offset="0.4429" stop-color="#EE3D3D"/>
            <stop offset="1" stop-color="#FC0E1C"/>
        </linearGradient>
        <linearGradient id="paint3_linear_6616_60268" x1="30.1416" y1="36.1105" x2="35.5616" y2="43.0148" gradientUnits="userSpaceOnUse">
            <stop stop-color="#F44F4F"/>
            <stop offset="0.4429" stop-color="#EE3D3D"/>
            <stop offset="1" stop-color="#FC0E1C"/>
        </linearGradient>
        <linearGradient id="paint4_linear_6616_60268" x1="48.9194" y1="21.0831" x2="54.3382" y2="27.9921" gradientUnits="userSpaceOnUse">
            <stop stop-color="#F44F4F"/>
            <stop offset="0.4429" stop-color="#EE3D3D"/>
            <stop offset="1" stop-color="#FC0E1C"/>
        </linearGradient>
        <linearGradient id="paint5_linear_6616_60268" x1="48.9503" y1="51.1542" x2="54.3703" y2="58.0588" gradientUnits="userSpaceOnUse">
            <stop stop-color="#F44F4F"/>
            <stop offset="0.4429" stop-color="#EE3D3D"/>
            <stop offset="1" stop-color="#FC0E1C"/>
        </linearGradient>
    </defs>
</svg>
