<svg width="41" height="39" viewBox="0 0 41 39" fill="none" xmlns="http://www.w3.org/2000/svg">
    <g clip-path="url(#clip0_6616_62303)">
        <path d="M22.7749 1.94062L26.8809 10.2234C27.2348 11.0021 28.0136 11.4977 28.8631 11.6393L38.0662 12.9844C39.4821 13.1967 40.4732 14.5418 40.2608 15.9577C40.19 16.524 39.9068 17.0196 39.4821 17.4443L32.8275 23.8865C32.1904 24.4528 31.9072 25.3732 32.0488 26.2227L33.6062 35.355C33.8186 36.7709 32.8983 38.1159 31.4824 38.3991C30.9161 38.4699 30.3498 38.3991 29.7834 38.1159L21.5714 33.7975C20.7927 33.3728 19.8724 33.3728 19.1644 33.7975L10.9524 38.1159C9.67815 38.8239 8.1207 38.3283 7.41277 37.054C7.12959 36.5585 7.0588 35.9921 7.12959 35.355L8.68704 26.2227C8.82863 25.3732 8.54546 24.5236 7.90832 23.8865L1.39534 17.4443C0.333447 16.4532 0.333447 14.7542 1.32455 13.7631C1.74931 13.3383 2.24486 13.1259 2.81121 12.9844L12.0143 11.6393C12.8638 11.4977 13.5718 11.0021 13.9965 10.2234L18.1025 1.86982C18.7397 0.595545 20.2971 0.0292 21.5714 0.666339C22.1377 0.949511 22.5625 1.37427 22.7749 1.94062Z" fill="url(#paint0_linear_6616_62303)"/>
    </g>
    <defs>
        <linearGradient id="paint0_linear_6616_62303" x1="32.8395" y1="0.403311" x2="-1.81653" y2="9.56199" gradientUnits="userSpaceOnUse">
            <stop stop-color="#AC2121"/>
            <stop offset="1" stop-color="#E9000E"/>
        </linearGradient>
        <clipPath id="clip0_6616_62303">
            <rect width="39.6442" height="37.9451" fill="white" transform="translate(0.617188 0.454102)"/>
        </clipPath>
    </defs>
</svg>
