<svg width="291" height="255" viewBox="0 0 291 255" fill="none" xmlns="http://www.w3.org/2000/svg">
    <g clip-path="url(#clip0_6616_59396)">
        <path d="M145.094 254.302C215.209 254.302 272.048 197.463 272.048 127.347C272.048 57.2322 215.209 0.392578 145.094 0.392578C74.9783 0.392578 18.1387 57.2322 18.1387 127.347C18.1387 197.463 74.9783 254.302 145.094 254.302Z" fill="#F0F9FF"/>
        <mask id="mask0_6616_59396" style="mask-type:luminance" maskUnits="userSpaceOnUse" x="18" y="0" width="255" height="255">
            <path d="M145.094 254.303C215.209 254.303 272.048 197.464 272.048 127.348C272.048 57.2332 215.209 0.393555 145.094 0.393555C74.9783 0.393555 18.1387 57.2332 18.1387 127.348C18.1387 197.464 74.9783 254.303 145.094 254.303Z" fill="white"/>
        </mask>
        <g mask="url(#mask0_6616_59396)">
            <path d="M109.235 101.398C109.179 101.357 109.111 101.335 109.042 101.335C108.973 101.335 108.906 101.357 108.85 101.398C108.612 99.6003 108.004 97.8713 107.065 96.3198C106.783 95.841 105.542 96.1674 105.397 96.6825C104.671 99.1853 105.484 101.797 105.542 104.365C105.563 105.576 105.519 106.786 105.411 107.992L105.092 108.065C105.259 108.029 105.092 105.25 105.092 104.967C104.976 102.796 104.628 100.644 104.055 98.5469C103.871 97.5391 103.547 96.5621 103.09 95.6451C102.952 95.4591 102.767 95.3132 102.554 95.2227C102.341 95.1321 102.108 95.1001 101.878 95.13C101.677 95.1587 101.489 95.2443 101.334 95.3767C100.232 96.1964 100.478 97.466 100.703 98.663C101.456 102.147 101.715 105.72 101.472 109.276C101.345 109.337 101.222 109.405 101.102 109.48C101.334 109.356 100.761 106.367 100.703 105.997C100.542 104.747 100.3 103.509 99.9777 102.29C99.9059 101.957 99.7484 101.647 99.5207 101.393C99.293 101.138 99.003 100.948 98.6792 100.839C98.5259 100.799 98.3634 100.809 98.2167 100.869C98.0699 100.93 97.947 101.036 97.8667 101.173C97.0251 102.45 97.1412 104.075 97.25 105.562C97.3613 106.935 97.4 108.313 97.3661 109.69C97.3516 110.864 97.2717 112.036 97.1267 113.201C97.0971 113.804 96.9848 114.399 96.793 114.971C96.6697 115.232 96.6261 115.225 96.4883 114.971C96.3378 114.473 96.2884 113.95 96.3432 113.433C96.3265 112.727 96.2513 112.023 96.1183 111.329C96.041 110.877 95.843 110.453 95.5452 110.103C94.7835 109.313 94.0943 109.864 93.8331 110.829C93.6989 111.818 93.6989 112.821 93.8331 113.811C93.8767 115.363 93.9347 116.915 94.0653 118.468C94.2571 121.147 94.7437 123.796 95.5162 126.368C95.5415 126.452 95.5974 126.523 95.6726 126.567C95.7479 126.611 95.837 126.626 95.9224 126.608C97.961 128.008 101.77 126.187 104.077 125.643C104.238 125.611 104.381 125.517 104.474 125.382C104.568 125.246 104.605 125.08 104.577 124.917C105.498 122.306 106.384 119.694 107.153 117.046C107.219 117.006 107.27 116.945 107.298 116.872C108.466 113.673 109.844 110.466 110.656 107.144C111.143 105.149 111.375 102.682 109.235 101.398Z" fill="#964939"/>
            <path d="M108.733 115.124C108.736 115.076 108.728 115.028 108.71 114.984C108.692 114.939 108.664 114.899 108.629 114.867C108.593 114.834 108.551 114.81 108.505 114.795C108.459 114.781 108.411 114.777 108.363 114.783C105.352 115.144 102.496 116.324 100.108 118.193C98.8091 119.136 97.525 120.086 96.3135 121.138C95.0724 122.151 93.9721 123.324 93.0417 124.628C92.4976 125.585 93.0417 127.892 92.8168 128.93C91.3038 135.433 89.3329 141.82 86.9189 148.045C86.7412 148.496 86.4147 148.872 85.9936 149.111C85.5726 149.35 85.0824 149.437 84.6047 149.358C81.8085 148.983 79.039 148.43 76.3127 147.704C72.8885 146.696 70.2189 144.317 67.0631 142.677C62.1735 140.145 57.6322 135.169 52.1622 133.449C52.1115 135.35 52.2711 139.405 52.3001 141.241C52.3641 145.132 52.7255 149.012 53.381 152.848C54.0063 156.4 54.9334 159.893 56.1523 163.287C56.2828 163.664 56.4134 164.056 56.5513 164.448C56.914 164.564 57.2767 164.673 57.7047 164.76C62.1881 165.739 75.4857 172.014 89.7989 172.014C94.9279 172.014 98.3158 166.936 100.093 162.584C102.523 156.686 103.467 150.65 104.664 144.389C106.325 135.72 108.356 119.658 108.929 115.494C108.932 115.421 108.916 115.348 108.882 115.283C108.847 115.218 108.796 115.163 108.733 115.124Z" fill="#F7B04B"/>
            <path d="M108.211 101.957C107.797 102.604 107.603 103.367 107.66 104.133C107.703 105.751 107.863 106.97 106.978 108.428C105.984 110.06 104.584 111.33 104.257 113.267C104.192 113.644 104.765 113.804 104.83 113.426C105.178 111.352 106.789 110.067 107.732 108.297C108.798 106.339 107.572 104.024 108.711 102.225C108.922 101.906 108.407 101.609 108.196 101.928L108.211 101.957Z" fill="#66281B"/>
            <path d="M85.6713 250.98C85.0184 245.457 84.2494 239.953 83.3643 234.469C81.6477 223.157 79.3376 211.943 76.4435 200.873C76.4123 200.73 76.3329 200.602 76.2186 200.51C76.03 196.353 74.8765 189.106 73.4763 185.377C73.4183 185.233 73.3214 185.108 73.1966 185.016C73.0718 184.923 72.9239 184.867 72.7692 184.854C72.6145 184.84 72.459 184.87 72.3201 184.939C72.1811 185.008 72.0641 185.115 71.9819 185.247C63.4624 183.175 54.635 182.683 45.938 183.796C41.4692 184.383 37.16 185.247 32.6332 185.044C29.6153 184.913 26.873 184.79 24.1236 185.827C24.0118 185.726 23.8736 185.659 23.7251 185.634C23.5766 185.609 23.4241 185.627 23.2854 185.686C23.1467 185.744 23.0276 185.841 22.9422 185.965C22.8568 186.089 22.8086 186.235 22.8032 186.386V186.473C22.6829 186.606 22.6163 186.779 22.6163 186.959C22.6163 187.138 22.6829 187.311 22.8032 187.445C22.8758 192.112 22.9459 196.777 23.0136 201.439C23.0265 202.306 22.9141 203.171 22.6799 204.007C17.3551 222.789 11.6094 260.106 11.9649 259.512C17.7084 260.123 23.4903 260.293 29.2598 260.019C35.5205 259.707 60.1134 259.483 66.171 259.845C71.8803 260.186 78.7577 260.97 84.3509 259.468C87.9129 258.518 85.9832 253.628 85.6713 250.98Z" fill="#4A3F7E"/>
            <path d="M76.777 187.561C76.1531 181.757 75.2536 175.954 74.1146 170.208C73.6376 167.838 73.4887 165.414 73.6721 163.004C73.7301 162.199 73.7664 161.394 73.7736 160.588C73.8244 153.813 71.0894 147.53 68.3617 141.487C67.6363 136.721 66.1854 131.875 62.8483 128.886C58.1981 124.765 44.3491 122.357 44.3636 122.357C45.2052 121.798 36.652 121.631 33.772 121.9C31.748 122.096 27.1558 122.059 26.677 122.313C21.9325 124.823 17.3694 127.529 15.1713 132.673C12.7192 138.411 12.371 145.971 11.4279 153.863C9.81017 167.451 7.98202 182.367 11.5077 195.94C11.5542 196.123 11.6704 196.281 11.8317 196.38C11.9929 196.479 12.1865 196.511 12.371 196.47C30.1374 202.752 52.5976 196.121 70.7195 195.338C71.8076 195.294 72.8958 195.127 73.9622 194.982C74.5499 194.903 76.1386 194.982 76.6972 194.46C78.1772 193.002 76.9439 189.099 76.777 187.561Z" fill="#878A99"/>
            <path d="M274.675 31.2178H81.8706C80.3801 31.2178 79.1719 32.426 79.1719 33.9165V144.222C79.1719 145.713 80.3801 146.921 81.8706 146.921H274.675C276.165 146.921 277.374 145.713 277.374 144.222V33.9165C277.374 32.426 276.165 31.2178 274.675 31.2178Z" fill="white"/>
            <path d="M274.225 147.225H82.2835C81.376 147.223 80.5061 146.862 79.8644 146.22C79.2227 145.578 78.8613 144.708 78.8594 143.801V34.3294C78.8594 33.4213 79.2201 32.5503 79.8623 31.9082C80.5044 31.266 81.3754 30.9053 82.2835 30.9053H274.225C274.675 30.9043 275.121 30.9922 275.537 31.1638C275.954 31.3355 276.332 31.5876 276.651 31.9056C276.969 32.2237 277.222 32.6015 277.395 33.0174C277.567 33.4333 277.656 33.8792 277.656 34.3294V143.801C277.654 144.71 277.292 145.581 276.649 146.222C276.005 146.864 275.134 147.225 274.225 147.225ZM82.2835 31.5219C81.5402 31.5238 80.8279 31.8205 80.303 32.3468C79.7781 32.8731 79.4833 33.5861 79.4833 34.3294V143.801C79.4833 144.543 79.7783 145.256 80.3034 145.781C80.8286 146.306 81.5409 146.601 82.2835 146.601H274.225C274.593 146.602 274.958 146.53 275.299 146.39C275.639 146.25 275.949 146.044 276.209 145.783C276.47 145.523 276.677 145.214 276.818 144.874C276.96 144.534 277.032 144.169 277.032 143.801V34.3294C277.032 33.9607 276.96 33.5957 276.819 33.255C276.677 32.9144 276.471 32.6049 276.21 32.3442C275.949 32.0835 275.64 31.8767 275.299 31.7356C274.959 31.5945 274.593 31.5219 274.225 31.5219H82.2835Z" fill="#151616"/>
            <path d="M266.969 84.1982C268.718 84.1982 270.443 84.6061 272.007 85.3894C273.572 86.1727 274.931 87.3098 275.979 88.7106V102.168C274.832 103.705 273.311 104.923 271.56 105.707C269.81 106.49 267.888 106.813 265.977 106.644C264.067 106.475 262.231 105.82 260.645 104.742C259.059 103.663 257.775 102.197 256.915 100.483C256.056 98.7684 255.649 96.8625 255.734 94.9465C255.818 93.0304 256.392 91.1678 257.399 89.5358C258.407 87.9039 259.815 86.5567 261.49 85.6225C263.165 84.6882 265.051 84.1979 266.969 84.1982Z" fill="#C9E8FF"/>
            <path d="M276.212 35.2731V72.3802C270.356 75.1807 263.789 76.1428 257.375 75.14C250.961 74.1372 245.001 71.2165 240.279 66.7621C235.557 62.3076 232.294 56.5281 230.919 50.1838C229.544 43.8395 230.122 37.2276 232.576 31.2178H272.15C272.683 31.2159 273.212 31.3194 273.705 31.5225C274.198 31.7255 274.646 32.024 275.024 32.4009C275.401 32.7777 275.701 33.2255 275.905 33.7184C276.109 34.2113 276.213 34.7397 276.212 35.2731Z" fill="#C9E8FF"/>
            <path d="M144.738 145.759H89.0156C89.6413 138.802 92.8473 132.33 98.0031 127.617C103.159 122.904 109.891 120.291 116.877 120.291C123.862 120.291 130.595 122.904 135.75 127.617C140.906 132.33 144.112 138.802 144.738 145.759Z" fill="#C9E8FF"/>
            <path d="M81.8706 31.2178H274.675C275.391 31.2178 276.077 31.5021 276.583 32.0082C277.089 32.5143 277.374 33.2007 277.374 33.9165V43.9205H79.1719V33.9165C79.1719 33.2007 79.4562 32.5143 79.9623 32.0082C80.4684 31.5021 81.1548 31.2178 81.8706 31.2178Z" fill="#151616"/>
            <path d="M269.451 37.5785C269.452 38.1673 269.279 38.7434 268.952 39.2336C268.626 39.7239 268.162 40.1063 267.618 40.3323C267.074 40.5583 266.475 40.6178 265.898 40.5033C265.32 40.3887 264.79 40.1053 264.373 39.6889C263.957 39.2725 263.673 38.7418 263.559 38.1642C263.444 37.5865 263.504 36.9879 263.73 36.4441C263.956 35.9003 264.338 35.4359 264.828 35.1096C265.319 34.7833 265.895 34.6099 266.484 34.6113C267.27 34.6133 268.023 34.9265 268.58 35.4825C269.136 36.0385 269.449 36.7921 269.451 37.5785Z" fill="#E9000E"/>
            <path d="M259.548 37.5784C259.55 38.167 259.377 38.7428 259.051 39.2329C258.725 39.723 258.261 40.1053 257.717 40.3316C257.174 40.5578 256.576 40.6177 255.998 40.5038C255.421 40.3899 254.89 40.1071 254.473 39.6915C254.057 39.2758 253.773 38.7458 253.657 38.1686C253.542 37.5915 253.6 36.9931 253.825 36.4491C254.05 35.9052 254.431 35.4403 254.921 35.1131C255.41 34.786 255.985 34.6113 256.574 34.6113C257.362 34.6113 258.117 34.9237 258.675 35.4799C259.232 36.0362 259.546 36.7908 259.548 37.5784Z" fill="#FFEAD7"/>
            <path d="M135.197 63.623H105.338C105.041 63.623 104.801 63.8634 104.801 64.1599V67.1778C104.801 67.4743 105.041 67.7146 105.338 67.7146H135.197C135.494 67.7146 135.734 67.4743 135.734 67.1778V64.1599C135.734 63.8634 135.494 63.623 135.197 63.623Z" fill="#188476"/>
            <path d="M124.765 70.958H105.338C105.041 70.958 104.801 71.1984 104.801 71.4948V74.5127C104.801 74.8092 105.041 75.0496 105.338 75.0496H124.765C125.062 75.0496 125.302 74.8092 125.302 74.5127V71.4948C125.302 71.1984 125.062 70.958 124.765 70.958Z" fill="#188476"/>
            <path d="M179.189 61.6641C174.058 62.1805 169.114 63.8683 164.738 66.5972C163.539 67.3541 162.388 68.1851 161.292 69.0856C160.98 69.3395 161.423 69.811 161.735 69.5281C166.713 65.4464 172.784 62.9231 179.189 62.2735C179.581 62.23 179.588 61.6061 179.189 61.6496V61.6641Z" fill="#151616"/>
            <path d="M149.17 98.372C149.683 103.506 151.371 108.453 154.104 112.83C154.862 114.027 155.691 115.177 156.585 116.276C156.838 116.588 157.31 116.146 157.027 115.834C153.891 112.004 151.659 107.515 150.498 102.703C150.161 101.269 149.919 99.8154 149.773 98.3502C149.729 97.9585 149.105 97.9512 149.149 98.3502L149.17 98.372Z" fill="#151616"/>
            <path d="M149.793 91.7048C150.297 86.7224 151.932 81.921 154.574 77.6672C155.316 76.4737 156.135 75.3299 157.026 74.243C157.28 73.9311 156.838 73.5176 156.584 73.8005C153.355 77.7462 151.067 82.3757 149.895 87.3375C149.559 88.7712 149.317 90.2252 149.17 91.6902C149.133 92.0892 149.75 92.082 149.793 91.6902V91.7048Z" fill="#151616"/>
            <path d="M179.189 127.784C174.214 127.274 169.421 125.636 165.173 122.996C163.976 122.256 162.83 121.436 161.742 120.544C161.43 120.29 161.017 120.732 161.3 120.986C165.246 124.215 169.875 126.505 174.837 127.682C176.27 128.018 177.724 128.26 179.189 128.408C179.588 128.451 179.581 127.827 179.189 127.784Z" fill="#151616"/>
            <path d="M203.332 120.549C198.351 124.631 192.278 127.154 185.871 127.804C185.479 127.847 185.472 128.471 185.871 128.428C191.004 127.912 195.951 126.225 200.329 123.495C201.527 122.738 202.677 121.909 203.775 121.013C204.087 120.76 203.644 120.288 203.332 120.571V120.549Z" fill="#151616"/>
            <path d="M208.491 116.276C211.719 112.329 214.009 107.7 215.187 102.739C215.523 101.305 215.765 99.8515 215.912 98.3864C215.956 97.9874 215.332 97.9946 215.288 98.3864C214.786 103.367 213.151 108.166 210.508 112.417C209.767 113.614 208.948 114.76 208.056 115.848C207.809 116.16 208.244 116.574 208.498 116.291L208.491 116.276Z" fill="#151616"/>
            <path d="M208.048 74.244C211.184 78.0741 213.416 82.5625 214.577 87.3748C214.917 88.8075 215.16 90.2618 215.302 91.7275C215.346 92.1193 215.969 92.1265 215.926 91.7275C215.417 86.5924 213.729 81.6443 210.993 77.2692C210.238 76.0699 209.41 74.919 208.512 73.8233C208.258 73.5113 207.823 73.9538 208.069 74.2658L208.048 74.244Z" fill="#151616"/>
            <path d="M203.768 69.0857C199.827 65.8522 195.199 63.5619 190.238 62.3897C188.805 62.0506 187.351 61.8082 185.886 61.6643C185.494 61.6208 185.494 62.2446 185.886 62.2882C190.866 62.7902 195.665 64.4256 199.916 67.0689C201.11 67.8159 202.256 68.6373 203.347 69.5282C203.652 69.7749 204.073 69.3396 203.783 69.0857H203.768Z" fill="#151616"/>
            <path d="M161.194 77.1501C161.588 73.171 158.682 69.6257 154.703 69.2313C150.724 68.8369 147.179 71.7429 146.784 75.722C146.39 79.7011 149.296 83.2464 153.275 83.6408C157.254 84.0352 160.8 81.1292 161.194 77.1501Z" fill="#E9000E"/>
            <path d="M218.256 77.5906C218.896 73.6437 216.216 69.9247 212.269 69.284C208.322 68.6433 204.603 71.3236 203.963 75.2705C203.322 79.2174 206.002 82.9364 209.949 83.577C213.896 84.2177 217.615 81.5375 218.256 77.5906Z" fill="#E9000E"/>
            <path d="M157.266 73.1426H150.693V79.7152H157.266V73.1426Z" fill="white"/>
            <path d="M166.256 130.227C170.254 130.227 173.496 126.986 173.496 122.987C173.496 118.989 170.254 115.747 166.256 115.747C162.257 115.747 159.016 118.989 159.016 122.987C159.016 126.986 162.257 130.227 166.256 130.227Z" fill="#E9000E"/>
            <path d="M169.752 120.956L168.286 119.498L166.255 121.529L164.224 119.498L162.766 120.956L164.797 122.995L162.766 125.026L164.224 126.484L166.255 124.446L168.286 126.484L169.752 125.026L167.713 122.995L169.752 120.956Z" fill="white"/>
            <path d="M214.644 76.427C214.645 77.1295 214.438 77.8167 214.048 78.4013C213.659 78.986 213.104 79.4418 212.456 79.711C211.807 79.9801 211.092 80.0506 210.403 79.9133C209.714 79.7761 209.082 79.4374 208.585 78.9401C208.089 78.4428 207.752 77.8093 207.616 77.12C207.48 76.4307 207.552 75.7166 207.822 75.0683C208.093 74.4199 208.55 73.8664 209.135 73.478C209.721 73.0897 210.408 72.8839 211.111 72.8867C212.048 72.8887 212.947 73.2625 213.609 73.9262C214.272 74.5899 214.644 75.4893 214.644 76.427Z" fill="white"/>
            <path d="M198.83 98.8742C200.956 89.8704 195.379 80.8487 186.375 78.7236C177.372 76.5985 168.35 82.1748 166.225 91.1786C164.1 100.182 169.676 109.204 178.68 111.329C187.684 113.454 196.705 107.878 198.83 98.8742Z" fill="#188476"/>
            <path d="M193.866 91.9312C193.249 86.6064 188.751 85.91 185.966 87.2013C183.18 88.4926 182.541 91.7426 182.541 91.7426C182.541 91.7426 181.896 88.4998 179.11 87.2013C176.324 85.9027 171.855 86.6064 171.21 91.9312C170.346 99.4325 182.541 104.859 182.541 104.859C182.541 104.859 194.729 99.4325 193.866 91.9312Z" fill="white"/>
            <path d="M172.763 97.3133H180.743C180.853 97.3133 180.958 97.2698 181.036 97.1922C181.113 97.1147 181.157 97.0095 181.157 96.8998C181.157 96.7902 181.113 96.685 181.036 96.6074C180.958 96.5299 180.853 96.4863 180.743 96.4863H172.763C172.653 96.4863 172.548 96.5299 172.471 96.6074C172.393 96.685 172.35 96.7902 172.35 96.8998C172.35 97.0095 172.393 97.1147 172.471 97.1922C172.548 97.2698 172.653 97.3133 172.763 97.3133Z" fill="#2D2745"/>
            <path d="M184.347 97.3133H192.327C192.437 97.3133 192.542 97.2698 192.62 97.1922C192.697 97.1147 192.741 97.0095 192.741 96.8998C192.741 96.7902 192.697 96.685 192.62 96.6074C192.542 96.5299 192.437 96.4863 192.327 96.4863H184.347C184.237 96.4863 184.132 96.5299 184.055 96.6074C183.977 96.685 183.934 96.7902 183.934 96.8998C183.934 97.0095 183.977 97.1147 184.055 97.1922C184.132 97.2698 184.237 97.3133 184.347 97.3133Z" fill="#2D2745"/>
            <path d="M181.127 97.0085C181.446 95.7825 181.758 94.5564 182.077 93.3304C182.091 93.2309 182.069 93.1298 182.013 93.0458C181.958 92.9619 181.874 92.9009 181.778 92.8742C181.681 92.8475 181.578 92.8571 181.487 92.901C181.397 92.9449 181.326 93.0202 181.287 93.1128L180.329 96.7909C180.3 96.8967 180.315 97.0096 180.369 97.1049C180.423 97.2001 180.513 97.2698 180.619 97.2987C180.725 97.3275 180.838 97.3132 180.933 97.2588C181.028 97.2043 181.098 97.1143 181.127 97.0085Z" fill="#2D2745"/>
            <path d="M183.891 100.31L184.747 97.0087C184.761 96.9563 184.765 96.9016 184.758 96.8477C184.751 96.7939 184.734 96.7419 184.707 96.6947C184.68 96.6476 184.644 96.6062 184.601 96.5729C184.558 96.5397 184.509 96.5152 184.457 96.5009C184.351 96.472 184.238 96.4864 184.143 96.5408C184.047 96.5952 183.978 96.6853 183.949 96.7911C183.666 97.8938 183.383 98.9675 183.093 100.092C183.064 100.198 183.078 100.311 183.133 100.406C183.187 100.501 183.277 100.571 183.383 100.6C183.489 100.629 183.602 100.614 183.697 100.56C183.792 100.505 183.862 100.415 183.891 100.31Z" fill="#2D2745"/>
            <path d="M183.89 100.092C183.29 97.7654 182.685 95.4391 182.076 93.1128C182.037 93.0202 181.966 92.9449 181.875 92.901C181.785 92.8571 181.682 92.8475 181.585 92.8742C181.488 92.9009 181.404 92.9619 181.349 93.0458C181.294 93.1298 181.271 93.2309 181.285 93.3304L183.092 100.309C183.121 100.415 183.19 100.505 183.285 100.56C183.381 100.614 183.494 100.628 183.599 100.599C183.705 100.571 183.795 100.501 183.85 100.406C183.904 100.31 183.919 100.197 183.89 100.092Z" fill="#2D2745"/>
            <path d="M112.121 82.4706H132.034C132.117 82.4706 132.196 82.4377 132.255 82.3792C132.313 82.3207 132.346 82.2414 132.346 82.1586C132.346 82.0759 132.313 81.9965 132.255 81.938C132.196 81.8795 132.117 81.8467 132.034 81.8467H112.121C112.038 81.8467 111.958 81.8795 111.9 81.938C111.841 81.9965 111.809 82.0759 111.809 82.1586C111.809 82.2414 111.841 82.3207 111.9 82.3792C111.958 82.4377 112.038 82.4706 112.121 82.4706Z" fill="#151616"/>
            <path d="M120.355 86.4032H132.035C132.117 86.4032 132.197 86.3703 132.255 86.3118C132.314 86.2533 132.347 86.174 132.347 86.0912C132.347 86.0085 132.314 85.9292 132.255 85.8707C132.197 85.8122 132.117 85.7793 132.035 85.7793H120.355C120.272 85.7793 120.193 85.8122 120.134 85.8707C120.076 85.9292 120.043 86.0085 120.043 86.0912C120.043 86.174 120.076 86.2533 120.134 86.3118C120.193 86.3703 120.272 86.4032 120.355 86.4032Z" fill="#151616"/>
            <path d="M112.121 86.4032H116.473C116.556 86.4032 116.635 86.3703 116.694 86.3118C116.752 86.2533 116.785 86.174 116.785 86.0912C116.785 86.0085 116.752 85.9292 116.694 85.8707C116.635 85.8122 116.556 85.7793 116.473 85.7793H112.121C112.038 85.7793 111.958 85.8122 111.9 85.8707C111.841 85.9292 111.809 86.0085 111.809 86.0912C111.809 86.174 111.841 86.2533 111.9 86.3118C111.958 86.3703 112.038 86.4032 112.121 86.4032Z" fill="#151616"/>
            <path d="M112.122 92.1909H132.036C132.109 92.1795 132.177 92.1422 132.225 92.0857C132.274 92.0291 132.3 91.957 132.3 91.8825C132.3 91.808 132.274 91.736 132.225 91.6794C132.177 91.6229 132.109 91.5855 132.036 91.5742H112.122C112.048 91.5855 111.981 91.6229 111.933 91.6794C111.884 91.736 111.857 91.808 111.857 91.8825C111.857 91.957 111.884 92.0291 111.933 92.0857C111.981 92.1422 112.048 92.1795 112.122 92.1909Z" fill="#151616"/>
            <path d="M126.856 96.1522H132.036C132.118 96.1522 132.198 96.1193 132.256 96.0608C132.315 96.0023 132.347 95.923 132.347 95.8403C132.347 95.7575 132.315 95.6782 132.256 95.6197C132.198 95.5612 132.118 95.5283 132.036 95.5283H126.841C126.759 95.5283 126.679 95.5612 126.621 95.6197C126.562 95.6782 126.529 95.7575 126.529 95.8403C126.529 95.923 126.562 96.0023 126.621 96.0608C126.679 96.1193 126.759 96.1522 126.841 96.1522H126.856Z" fill="#151616"/>
            <path d="M112.121 96.1522H123.387C123.47 96.1522 123.549 96.1193 123.607 96.0608C123.666 96.0023 123.699 95.923 123.699 95.8403C123.699 95.7575 123.666 95.6782 123.607 95.6197C123.549 95.5612 123.47 95.5283 123.387 95.5283H112.121C112.038 95.5283 111.958 95.5612 111.9 95.6197C111.841 95.6782 111.809 95.7575 111.809 95.8403C111.809 95.923 111.841 96.0023 111.9 96.0608C111.958 96.1193 112.038 96.1522 112.121 96.1522Z" fill="#151616"/>
            <path d="M108.176 84.0224C108.176 84.357 108.076 84.6841 107.89 84.9622C107.704 85.2403 107.44 85.457 107.13 85.5847C106.821 85.7124 106.481 85.7455 106.153 85.6796C105.825 85.6138 105.524 85.4521 105.287 85.215C105.051 84.9779 104.891 84.676 104.827 84.3477C104.762 84.0193 104.797 83.6792 104.926 83.3705C105.055 83.0617 105.273 82.7982 105.551 82.6134C105.83 82.4285 106.158 82.3306 106.492 82.332C106.714 82.332 106.934 82.3758 107.138 82.4609C107.343 82.5459 107.529 82.6705 107.685 82.8276C107.842 82.9846 107.965 83.171 108.05 83.3761C108.134 83.5811 108.177 83.8007 108.176 84.0224Z" fill="#BECCD6"/>
            <path d="M108.176 93.9765C108.176 94.3111 108.076 94.6382 107.89 94.9163C107.704 95.1944 107.44 95.4111 107.13 95.5388C106.821 95.6665 106.481 95.6996 106.153 95.6337C105.825 95.5679 105.524 95.4062 105.287 95.1691C105.051 94.932 104.891 94.6301 104.827 94.3018C104.762 93.9734 104.797 93.6333 104.926 93.3246C105.055 93.0158 105.273 92.7523 105.551 92.5675C105.83 92.3826 106.158 92.2847 106.492 92.2861C106.714 92.2861 106.934 92.3299 107.138 92.415C107.343 92.5 107.529 92.6246 107.685 92.7817C107.842 92.9387 107.965 93.1251 108.05 93.3302C108.134 93.5352 108.177 93.7548 108.176 93.9765Z" fill="#BECCD6"/>
            <path d="M211.305 102.552C211.936 112.781 213.104 122.988 214.069 133.188C214.069 133.34 214.265 133.507 214.425 133.391C217.878 130.801 222.26 130.583 226.373 129.938C228.352 129.678 230.292 129.174 232.147 128.436C234.512 127.435 236.841 125.89 239.518 126.26C239.558 126.27 239.6 126.269 239.64 126.258C239.68 126.247 239.716 126.226 239.745 126.197C239.775 126.167 239.796 126.131 239.807 126.091C239.818 126.052 239.818 126.01 239.808 125.97C239.083 121.414 238.546 116.793 237.632 112.273C236.726 108.22 235.057 104.377 232.713 100.949C232.06 99.9474 231.262 97.9742 229.935 97.6695C229.072 97.4663 228.085 98.025 227.309 98.3079L224.407 99.3453C220.315 100.796 216.129 102.058 211.762 102.102C211.762 101.819 211.719 101.536 211.704 101.253C211.69 100.97 211.218 100.949 211.233 101.253C211.247 101.558 211.233 101.841 211.291 102.131C211.255 102.154 211.227 102.186 211.207 102.224C211.188 102.261 211.178 102.303 211.18 102.345C211.181 102.388 211.194 102.429 211.216 102.465C211.237 102.501 211.268 102.531 211.305 102.552Z" fill="#B35F36"/>
            <path d="M290.909 239.068C290.909 239.068 280.84 213.51 278.214 201.881C278.156 201.605 277.757 201.692 277.757 201.946C260.941 202.955 244.937 208.686 229.572 215.258C229.542 215.218 229.5 215.189 229.453 215.173C229.405 215.157 229.354 215.157 229.306 215.171C229.258 215.185 229.215 215.213 229.184 215.252C229.152 215.291 229.133 215.339 229.13 215.389V215.447L228.752 215.614C228.469 215.73 228.716 216.143 228.992 216.02L229.093 215.977C228.803 220.09 231.545 224.131 231.27 228.237C231.001 232.06 230.479 235.985 230.682 239.844C235.151 239.931 288.109 241.048 290.909 239.068Z" fill="#B8A69C"/>
            <path d="M209.492 148.146C208.948 142.342 209.035 135.936 202.477 135.378C205.887 137.554 201.113 134.79 201.186 134.71C201.375 134.5 195.245 134.935 195.027 135.124C193.184 136.713 184.921 143.517 177.348 149.901L176.963 150.228C175.512 151.447 174.112 152.644 172.784 153.783L172.451 154.066C168.976 157.047 166.074 159.608 164.659 161.03C164.514 160.899 164.217 161.03 164.297 161.24C164.297 161.284 164.297 161.32 164.333 161.356L163.992 161.712C163.789 161.915 164.101 162.227 164.297 162.017C164.362 161.951 164.427 161.893 164.485 161.828C165.523 165.223 165.428 168.785 165.595 172.311C165.645 173.95 165.827 175.583 166.139 177.193C166.371 178.26 165.414 181.111 166.683 181.423C169.788 182.192 174.997 180.639 178.247 178.666C179.427 177.968 180.67 177.385 181.961 176.925L182.426 176.758C186.14 175.452 190.406 174.683 193.728 173.856L194.193 173.747C195.503 173.467 196.782 173.054 198.009 172.514C206.17 168.473 208.165 168.792 210.66 169.67C213.265 170.591 210.051 159.695 211.763 157.337C213.62 154.864 209.783 151.215 209.492 148.146Z" fill="#F04D56"/>
            <path d="M282.501 162.205C277.314 147.609 275.355 141.247 271.307 138.519C257.291 129.088 243.573 131.177 237 129.726C231.934 128.679 226.785 128.084 221.613 127.949H221.135C219.988 127.949 218.835 127.906 217.689 127.949H217.195C213.344 127.985 209.504 128.361 205.719 129.073L205.291 129.168C203.562 129.515 201.864 130 200.213 130.619C197.311 131.736 190.992 137.764 187.996 140.732L187.669 141.051C186.842 141.878 186.342 142.4 186.342 142.4C187.793 147.979 206.14 163.554 207.307 169.242C207.482 170.098 207.873 171.933 208.439 174.473C208.439 174.632 208.512 174.799 208.555 174.973C209.564 179.514 211.087 186.094 212.908 193.247L213.017 193.683C214.838 200.77 216.963 208.38 219.169 215.091C219.234 215.287 219.299 215.475 219.357 215.664C220.645 219.643 222.154 223.547 223.877 227.358L224.116 227.844C224.673 229.02 225.3 230.162 225.995 231.261C226.423 231.921 250.537 214.032 256.232 210.223C256.232 210.223 262.486 212.769 273.977 212.153H274.427C276.177 212.051 278.044 211.867 280.027 211.601C280.637 211.514 281.188 210.876 281.667 209.853V209.81L281.863 209.338C285.338 200.669 285.367 170.25 282.501 162.205Z" fill="#F04D56"/>
            <path d="M226.119 131.092C228.505 133.043 230.957 145.137 234.215 144.505C236.601 144.041 238.712 131.933 240.454 130.265C237.486 121.857 235.216 113.035 237.791 104.221C237.835 104.026 237.81 103.822 237.72 103.643C237.629 103.465 237.479 103.324 237.296 103.245C237.112 103.166 236.907 103.153 236.715 103.21C236.523 103.266 236.357 103.388 236.246 103.553C236.096 103.54 235.946 103.573 235.816 103.648C235.686 103.724 235.583 103.838 235.52 103.974C234.188 106.705 232.211 109.07 229.76 110.866C228.752 111.591 227.7 112.266 226.764 113.108C225.313 114.384 224.196 116.082 222.136 116.343C221.979 116.366 221.83 116.428 221.703 116.523C221.577 116.619 221.476 116.745 221.411 116.89C221.346 117.034 221.319 117.193 221.331 117.351C221.344 117.509 221.396 117.662 221.483 117.794C221.472 118.004 221.539 118.211 221.671 118.374C223.601 120.805 224.247 124.541 225.212 127.443C225.473 128.306 225.792 129.677 226.119 131.092Z" fill="#FA9B75"/>
            <path d="M221.644 118.366C222.964 120.035 223.69 122.32 224.321 124.525C225.89 123.069 227.194 121.351 228.173 119.447C229.718 116.545 230.219 113.295 230.749 110.089C230.422 110.365 230.088 110.633 229.733 110.887C228.725 111.612 227.673 112.287 226.737 113.129C225.286 114.405 224.169 116.103 222.108 116.364C221.951 116.387 221.803 116.449 221.676 116.544C221.549 116.64 221.449 116.766 221.384 116.91C221.319 117.055 221.291 117.214 221.304 117.372C221.316 117.53 221.368 117.682 221.456 117.815C221.452 118.015 221.519 118.21 221.644 118.366Z" fill="#D16D45"/>
            <path d="M238.714 87.4474C238.185 86.8049 237.57 86.2385 236.886 85.7643C230.894 81.651 219.294 83.7984 213.345 87.578C209.355 90.1171 209.239 95.4202 209.718 98.7573C209.718 98.9241 209.638 99.091 209.594 99.2506C208.68 100.926 204.835 106.28 204.777 107.593C204.719 108.906 205.996 109.102 207.012 109.284C207.773 109.414 208.586 109.4 209.355 109.494C209.406 110.662 209.442 111.344 209.5 112.396C209.544 113.274 209.602 114.115 209.681 114.957C209.813 116.448 210.056 117.927 210.407 119.382C211.045 121.936 218.575 122.153 222.79 120.927C226.505 119.854 228.137 118.221 230.502 115.276C233.172 111.946 234.129 108.747 236.857 105.482C240.615 101.071 242.719 92.395 238.714 87.4474Z" fill="#FA9B75"/>
            <path d="M254.703 129.959C250.988 126.223 238.975 125.694 238.989 125.839C239.258 128.414 238.656 131.04 238.054 133.529C237.372 136.394 236.516 137.562 235.377 140.275C235.086 141.001 234.608 142.902 233.694 142.981C232.779 143.061 232.351 141.77 232.003 141.19C230.747 139.109 229.597 136.966 228.557 134.769C227.83 133.403 227.176 131.998 226.599 130.562C226.25 129.611 225.822 128.436 225.496 127.478C225.293 126.884 225.169 125.628 224.328 125.672C218.677 125.948 214.832 127.761 213.344 128.073C213.047 128.139 219.148 136.779 222.551 140.957C225.455 144.394 228.592 147.627 231.938 150.635C232.042 150.735 232.178 150.794 232.322 150.802C232.362 150.807 232.399 150.822 232.431 150.845C233.364 151.506 234.513 151.786 235.645 151.629C235.834 151.599 236.016 151.535 236.182 151.44C244.024 146.681 254.957 130.25 254.703 129.959Z" fill="#F04D56"/>
            <path d="M147.682 143.954L143.925 137.272C142.822 134.704 140.08 128.886 137.323 128.393C129.096 126.942 130.866 126.826 128.385 125.527C125.73 124.142 126.398 127.159 127.159 128.393C127.416 128.86 127.763 129.272 128.18 129.605C128.598 129.937 129.077 130.184 129.59 130.33C130.453 130.591 131.476 130.721 132.419 130.968C132.653 131.025 132.857 131.166 132.996 131.363C133.134 131.56 133.196 131.8 133.17 132.039C133.144 132.279 133.033 132.501 132.856 132.664C132.679 132.827 132.449 132.92 132.208 132.927C130.771 132.869 129.359 132.531 128.052 131.933C126.712 131.221 125.325 130.601 123.902 130.076C121.305 129.278 118.57 129.604 115.922 129.938C115.197 130.032 114.297 129.43 113.601 129.684C112.556 130.061 112.462 131.258 113.129 132.107C114.101 133.368 115.252 134.48 116.546 135.408C118.628 136.859 120.645 137.65 122.495 139.507C125.201 142.227 128.037 141.313 131.534 141.255C132.47 141.255 133.405 141.255 134.341 141.255C137.395 141.255 140.145 145.876 141.843 147.886C142.321 148.444 147.857 144.266 147.682 143.954Z" fill="#FA9B75"/>
            <path d="M175.707 170.214C175.4 167.777 174.434 165.469 172.914 163.54C169.852 159.333 165.659 156.075 161.553 152.898L159.601 151.367L158.992 150.888L154.472 147.37L153.13 146.311L152.405 145.759L150.954 144.598C150.229 144.069 149.764 143.061 148.872 143.191C148.088 141.784 147.087 140.906 146.122 139.607C145.931 139.289 145.713 138.988 145.47 138.708C145.345 138.584 145.185 138.501 145.012 138.468C144.875 138.453 144.736 138.487 144.621 138.563C144.587 138.582 144.56 138.609 144.541 138.643C144.507 138.646 144.474 138.659 144.447 138.679L140.986 140.942L140.58 141.211L136.249 144.033C136.133 144.109 136.049 144.224 136.011 144.357C135.974 144.491 135.986 144.633 136.046 144.758C137.034 146.379 138.104 147.948 139.252 149.459C139.709 151.86 139.651 154.153 140.217 156.344C140.324 156.755 140.454 157.168 140.609 157.584C140.847 158.187 141.144 158.765 141.494 159.311C142.089 160.232 143.38 160.965 144.606 161.618L145.071 161.857C145.651 162.169 146.195 162.452 146.623 162.735C148.339 163.842 149.75 165.361 150.729 167.153C151.346 168.248 153.29 171.506 154.879 173.921C155.104 174.262 155.321 174.582 155.524 174.879C155.88 175.422 156.275 175.939 156.707 176.424C158.759 178.387 161.219 179.873 163.911 180.777L164.469 180.958C167.001 181.684 169.547 181.829 171.47 180.675C175.257 178.361 173.233 177.658 174.836 174.567C175.536 173.229 175.838 171.719 175.707 170.214Z" fill="#F04D56"/>
            <path d="M213.838 100.419C213.715 101.565 213.156 102.436 212.59 102.378C212.024 102.32 211.676 101.333 211.807 100.201C211.937 99.0696 212.489 98.1773 213.054 98.2426C213.62 98.3079 213.969 99.2728 213.838 100.419Z" fill="#151616"/>
            <path d="M214.402 111.635C212.782 111.955 211.157 112.213 209.527 112.412C209.571 113.289 209.629 114.131 209.709 114.972C211.53 114.385 213.59 113.681 214.613 112.013C214.736 111.853 214.598 111.599 214.402 111.635Z" fill="white"/>
            <path d="M210.479 108.08C209.845 108.003 209.205 108.003 208.571 108.08C208.303 108.08 208.296 108.537 208.571 108.508C209.205 108.431 209.845 108.431 210.479 108.508C210.755 108.529 210.755 108.109 210.479 108.08Z" fill="#D16D45"/>
            <path d="M217.145 94.8768C215.622 94.1079 213.699 93.4259 212.002 93.7887C211.662 93.8463 211.341 93.9835 211.065 94.1892C210.789 94.3949 210.566 94.6631 210.414 94.9718C210.262 95.2805 210.185 95.6209 210.19 95.9651C210.195 96.3093 210.281 96.6474 210.442 96.9517C210.544 97.1444 210.695 97.3072 210.88 97.4242C211.064 97.5412 211.276 97.6083 211.494 97.6191C211.934 97.5983 212.372 97.5523 212.807 97.4812C213.66 97.3297 214.5 97.1089 215.317 96.8211C215.861 96.6397 217.08 96.5019 217.384 95.8852C217.479 95.718 217.507 95.5211 217.463 95.334C217.418 95.147 217.305 94.9837 217.145 94.8768Z" fill="#D4794C"/>
            <path d="M229.769 104.336C228.644 103.408 226.33 100.948 225.416 101.812C224.364 102.82 223.653 107.369 223.239 108.689C222.739 110.241 223.239 111.91 221.984 113.042C220.468 114.42 218.205 114.768 216.435 115.806C214.984 116.64 210.058 116.763 209.971 117.024C209.884 117.286 208.027 123.278 208.135 124.504C208.237 125.621 209.528 125.955 210.529 125.911C211.254 125.819 211.965 125.641 212.648 125.382C215.716 124.424 217.603 123.285 221.883 122.48C222.711 122.2 223.515 121.85 224.284 121.435C225.242 121.087 226.315 121.043 227.229 120.579C228.144 120.115 228.339 119.244 228.775 118.403C229.329 117.54 229.768 116.608 230.081 115.632C230.233 114.464 230.233 113.281 230.081 112.113C230.117 110.863 230.27 109.62 230.538 108.399C230.799 107.078 231.016 105.359 229.769 104.336Z" fill="#D4794C"/>
            <path d="M138.252 136.64C136.432 135.941 134.462 135.728 132.535 136.023C130.323 136.379 128.03 138.098 125.752 137.655C123.764 137.271 122.698 135.182 121.218 134.028C119.756 132.887 117.989 132.206 116.14 132.069C115.835 132.069 115.842 132.512 116.14 132.541C118.496 132.762 120.679 133.875 122.241 135.653C123.3 136.792 124.359 138.004 126.013 138.185C127.798 138.374 129.437 137.394 131.092 136.872C133.402 136.158 135.886 136.243 138.143 137.111C138.411 137.206 138.564 136.778 138.252 136.64Z" fill="#D16D45"/>
            <path d="M123.815 134.791C122.967 133.77 121.992 132.863 120.913 132.092C119.66 131.459 118.345 130.958 116.988 130.598C116.698 130.496 116.575 130.953 116.865 131.055C118.183 131.399 119.46 131.885 120.673 132.506C121.706 133.269 122.645 134.151 123.474 135.132C123.691 135.328 124.054 135.008 123.815 134.791Z" fill="#D16D45"/>
            <path d="M126.232 133.876C124.946 132.768 123.584 131.752 122.155 130.836C121.894 130.669 121.654 131.076 121.916 131.243C123.307 132.139 124.636 133.131 125.891 134.21C126.138 134.435 126.471 134.094 126.232 133.876Z" fill="#D16D45"/>
            <path d="M209.333 169.809C206.141 162.925 202.84 155.939 197.537 150.396C197.319 150.171 196.985 150.512 197.196 150.73C202.477 156.243 205.749 163.2 208.919 170.049C209.05 170.324 209.456 170.085 209.333 169.809Z" fill="#F04D56" stroke="#E8EEF1" stroke-width="0.507819"/>
            <path d="M203.13 163.548C200.68 161.934 198.101 160.527 195.418 159.34C195.143 159.217 194.903 159.623 195.179 159.754C197.861 160.938 200.441 162.343 202.89 163.954C203.13 164.121 203.355 163.715 203.13 163.548Z" fill="#F04D56" stroke="#E8EEF1" stroke-width="0.507819"/>
            <path d="M147.763 143.706L140.247 148.871C140 149.045 140.247 149.459 140.486 149.285L147.995 144.119C148.256 143.945 147.995 143.532 147.763 143.706Z" fill="#F04D56" stroke="#E8EEF1" stroke-width="0.507819"/>
            <path d="M230.335 98.8087C228.935 97.6044 227.186 97.4013 225.402 97.3578C222.609 97.2634 219.809 97.2634 217.008 97.2997C217.127 96.9516 217.127 96.5742 217.008 96.226C216.958 96.1232 216.873 96.0411 216.769 95.9939C216.423 95.9395 216.07 95.9395 215.724 95.9939H214.331C213.403 95.9939 212.474 96.0374 211.546 96.1245C210.82 96.1753 209.674 96.1245 209.166 96.7121C208.658 97.2997 208.724 98.3516 208.934 99.2657C208.716 99.293 208.504 99.3517 208.303 99.4398C207.976 99.5922 208.259 100.078 208.593 99.9259C208.72 99.8488 208.86 99.7971 209.006 99.7735C209.094 100.078 209.239 100.397 209.311 100.637C209.603 101.715 210.016 102.757 210.544 103.742C210.755 104.134 211.016 104.533 211.27 104.917C211.325 105.016 211.393 105.106 211.473 105.185C211.741 105.439 212.402 105.374 212.735 105.352C213.707 105.28 214.527 105.352 215.405 104.91C215.761 104.741 216.038 104.438 216.174 104.068C216.424 102.941 216.565 101.791 216.595 100.637C216.704 99.7518 216.812 98.8594 216.914 97.9744C216.911 97.9285 216.911 97.8824 216.914 97.8366C219.214 97.8366 221.513 97.8366 223.813 97.8366C225.895 97.8801 228.267 97.735 229.95 99.1786C230.212 99.4398 230.611 99.0553 230.335 98.8087ZM215.862 101.71C215.753 102.632 215.782 103.887 214.941 104.395C214.557 104.556 214.145 104.635 213.729 104.627C213.265 104.67 212.793 104.707 212.322 104.714C212.212 104.735 212.098 104.735 211.988 104.714C211.683 104.627 211.48 104.17 211.328 103.909C211.026 103.392 210.752 102.859 210.508 102.313C210.327 101.914 210.153 101.507 210 101.094C209.918 100.891 209.846 100.68 209.783 100.463L209.696 100.136C209.696 100.093 209.696 99.9259 209.623 99.9114H209.71C210.051 100.035 210.196 99.4906 209.862 99.3673C209.736 99.3199 209.604 99.2859 209.471 99.2657C209.333 98.5402 209.152 98.1485 209.384 97.5681C209.444 97.4615 209.511 97.3597 209.587 97.2634C209.894 97.0002 210.279 96.8447 210.682 96.8209C211.204 96.7498 211.73 96.7182 212.256 96.7266C212.967 96.7266 213.678 96.7266 214.389 96.7266C214.745 96.7266 215.158 96.6613 215.514 96.6468C215.688 96.6468 215.855 96.6468 216.036 96.6468C216.102 96.6554 216.165 96.678 216.221 96.713C216.278 96.748 216.326 96.7947 216.363 96.8499C216.387 96.8898 216.402 96.9342 216.409 96.9804C216.415 97.0266 216.411 97.0735 216.399 97.1184C216.341 97.4666 216.355 97.4811 216.319 97.8438C216.283 98.2065 216.239 98.6346 216.188 99.0336L215.884 101.565L215.862 101.71Z" fill="#151616" stroke="#151616" stroke-width="0.507819"/>
            <path d="M175.881 168.582C174.184 165.045 171.958 161.786 169.279 158.919C169.069 158.695 168.735 159.028 168.938 159.253C171.589 162.092 173.79 165.319 175.467 168.822C175.605 169.098 176.011 168.851 175.881 168.582Z" fill="#F04D56" stroke="#E8EEF1" stroke-width="0.507819"/>
            <path d="M225.56 105.402C226.254 107.6 227.384 109.636 228.882 111.387C229.078 111.62 228.744 111.953 228.541 111.721C226.996 109.912 225.827 107.813 225.103 105.547C225.008 105.243 225.465 105.112 225.56 105.402Z" fill="#B35F36"/>
            <path d="M256.038 209.259C250.51 202.534 244.801 195.765 240.201 188.373C237.169 183.505 237.024 180.69 236.11 176.584C235.304 172.569 234.819 168.496 234.659 164.404C234.39 159.695 234.035 155.379 233.774 150.678C233.73 149.329 233.774 147.987 233.817 146.645C233.817 146.34 233.36 146.34 233.338 146.645C233.295 147.551 233.28 148.458 233.288 149.365C233.266 149.677 233.266 149.989 233.288 150.301C233.542 154.987 233.832 158.498 234.093 163.178C234.236 167.246 234.646 171.3 235.319 175.315C236.044 179.312 236.632 183.534 238.736 187.031C241.081 190.749 243.621 194.34 246.346 197.789C249.364 201.799 252.469 205.743 255.661 209.621C255.893 209.825 256.227 209.491 256.038 209.259Z" fill="#F04D56" stroke="#E8EEF1" stroke-width="0.507819"/>
            <path d="M241.362 145.861C241.278 145.861 241.195 145.842 241.119 145.807C241.042 145.772 240.974 145.721 240.919 145.658L236.567 140.514C236.546 140.49 236.531 140.462 236.521 140.432C236.512 140.401 236.508 140.37 236.511 140.338C236.513 140.306 236.522 140.275 236.537 140.247C236.551 140.219 236.571 140.194 236.596 140.173C236.62 140.153 236.648 140.137 236.678 140.128C236.709 140.118 236.741 140.115 236.772 140.117C236.804 140.12 236.835 140.129 236.863 140.143C236.891 140.158 236.916 140.178 236.937 140.202L241.326 145.339C241.338 145.344 241.352 145.347 241.366 145.347C241.379 145.347 241.393 145.344 241.406 145.339C241.422 145.336 241.437 145.329 241.449 145.319C241.462 145.309 241.472 145.296 241.478 145.281C242.072 143.779 242.557 142.237 242.929 140.667C243.299 139.267 243.654 137.823 244.191 136.314C244.96 134.022 245.816 131.083 245.824 131.054C245.842 130.992 245.884 130.939 245.942 130.908C245.999 130.877 246.066 130.87 246.128 130.888C246.191 130.906 246.243 130.948 246.274 131.006C246.306 131.063 246.313 131.13 246.295 131.192C246.295 131.192 245.425 134.167 244.656 136.466C244.155 137.99 243.771 139.426 243.401 140.819C243.033 142.415 242.548 143.981 241.95 145.505C241.91 145.597 241.848 145.677 241.77 145.738C241.691 145.799 241.598 145.838 241.5 145.854L241.362 145.861Z" fill="#F04D56" stroke="#E8EEF1" stroke-width="0.507819"/>
            <path d="M226.004 144.932C225.915 144.931 225.828 144.91 225.748 144.87C225.669 144.829 225.6 144.771 225.547 144.7C224.205 142.887 222.478 139.187 220.411 133.71C219.286 130.743 218.14 128.073 218.126 128.044C218.101 127.984 218.101 127.917 218.126 127.858C218.15 127.798 218.197 127.75 218.256 127.725C218.285 127.711 218.316 127.704 218.348 127.703C218.38 127.702 218.412 127.708 218.442 127.719C218.471 127.731 218.499 127.748 218.521 127.77C218.544 127.792 218.563 127.819 218.575 127.848C218.575 127.848 219.743 130.554 220.868 133.536C222.921 138.976 224.626 142.633 225.946 144.417C225.957 144.422 225.97 144.425 225.982 144.425C225.995 144.425 226.007 144.422 226.019 144.417C226.032 144.419 226.045 144.416 226.057 144.41C226.069 144.403 226.078 144.393 226.084 144.381L229.319 139.39C229.336 139.362 229.359 139.338 229.385 139.319C229.412 139.3 229.442 139.287 229.474 139.28C229.506 139.273 229.539 139.273 229.571 139.28C229.603 139.286 229.633 139.299 229.66 139.317C229.713 139.353 229.75 139.408 229.764 139.47C229.777 139.532 229.766 139.597 229.733 139.651L226.497 144.65C226.447 144.727 226.378 144.792 226.297 144.837C226.216 144.883 226.126 144.908 226.033 144.911L226.004 144.932Z" fill="#F04D56" stroke="#E8EEF1" stroke-width="0.507819"/>
            <path d="M323.237 161.581C323.237 162.785 320.168 166.536 320.168 166.536C320.16 166.602 320.148 166.667 320.132 166.732C320.077 166.812 320.035 166.9 320.009 166.993C319.413 169.232 318.979 171.511 318.71 173.812L318.623 174.422C318.376 176.271 317.953 178.093 317.361 179.863C316.374 182.583 314.597 184.556 312.638 186.392C312.486 186.537 312.333 186.682 312.174 186.82C310.723 188.169 309.214 189.475 307.857 191.006C306.08 192.993 304.382 195.815 302.416 198.26C302.315 198.398 302.199 198.529 302.09 198.667C300.728 200.492 298.933 201.951 296.867 202.91C295.209 203.569 293.38 203.66 291.665 203.172C291.477 203.128 291.288 203.077 291.107 203.019L290.577 202.86C283.402 200.625 277.178 195.076 273.217 188.815C271.265 185.739 270.097 182.286 268.443 179.079C266.535 175.372 263.467 173.116 260.746 170.091C252.81 161.277 237.423 129.901 248.646 129.001C248.82 129.001 248.994 129.001 249.19 129.001H249.61C251.308 129.103 253.68 129.298 256.328 129.676L256.952 129.77C260.364 130.266 263.72 131.094 266.971 132.244L267.42 132.411C269.84 133.263 272.09 134.538 274.066 136.176C275.857 137.75 278.774 142.444 281.422 146.84C281.509 146.978 281.589 147.116 281.668 147.253C283.613 150.489 285.397 153.5 286.435 154.922C287.283 156.075 288.052 157.243 288.771 158.433L289.017 158.839C290.621 161.552 291.984 164.323 293.428 167.124C293.501 167.269 293.58 167.414 293.653 167.566C294.494 169.191 295.372 170.824 296.359 172.449C296.823 171.904 297.287 171.353 297.737 170.802C298.463 169.88 299.319 168.814 300.226 167.704L300.864 166.979C302.573 164.831 304.52 162.884 306.668 161.175C306.791 161.073 306.929 160.986 307.052 160.892C307.792 160.356 308.596 159.914 309.446 159.579C309.446 159.579 309.446 159.521 309.446 159.499C310.172 157.961 312.624 152.375 313.69 154.595C315.417 157.99 323.237 160.776 323.237 161.581Z" fill="#F04D56"/>
            <path d="M260.629 161.044C262.308 164.369 263.802 167.784 265.105 171.273C266.375 174.9 267.1 178.658 268.834 182.082C271.91 188.183 277.206 192.746 282.306 197.128C282.531 197.331 282.197 197.665 281.965 197.462C276.937 193.145 271.714 188.64 268.602 182.67C266.919 179.449 266.143 175.909 265.018 172.513C263.665 168.682 262.063 164.943 260.223 161.32C260.092 161.008 260.498 160.768 260.629 161.044Z" fill="#F04D56" stroke="#E8EEF1" stroke-width="0.507819"/>
            <path d="M64.1098 108.623C64.4653 105.924 64.1968 103.189 64.2839 100.484C64.4943 94.0778 62.9708 88.3104 58.7777 83.37C56.0282 80.1272 51.0443 77.8856 47.0253 76.7466C46.4232 76.5797 45.821 76.4056 45.2116 76.2678C42.7453 75.667 40.1728 75.6493 37.6984 76.216C35.2239 76.7826 32.9156 77.9181 30.9564 79.5324C28.294 81.7885 26.6835 84.908 25.6751 88.2378C25.2006 89.8663 24.8083 91.5176 24.4999 93.1854C24.1543 94.7686 23.5592 96.2869 22.737 97.6833C21.0937 100.721 20.0077 104.028 19.5305 107.448C19.4648 107.79 19.4797 108.143 19.574 108.478C19.8642 109.262 20.8653 109.145 21.5255 109.204C22.6935 109.305 33.1328 109.544 33.1328 110.502C35.7913 111.556 38.639 112.05 41.4973 111.953C42.5565 111.953 44.0582 112.678 45.1246 112.903C46.3724 113.157 47.6202 113.324 48.8752 113.491C51.8206 113.89 59.4088 116.893 61.9334 114.753C63.0651 113.803 63.5729 111.851 63.8559 110.161C63.9792 109.573 64.0517 109.058 64.1098 108.623Z" fill="#471B17"/>
            <path d="M79.1561 101.818C78.5008 99.6738 78.1348 97.4512 78.0679 95.2096C78.0679 94.3318 78.3218 92.4166 77.5528 91.7129C76.5227 90.7625 75.7755 92.3077 75.478 93.1638C75.065 94.6559 74.8743 96.2009 74.9122 97.7487C74.8288 99.3557 74.8288 100.966 74.9122 102.573C75.0283 104.539 75.4925 107.774 76.4719 109.537C76.4211 109.69 78.1985 104.365 78.8659 102.326C78.9225 102.32 78.9768 102.3 79.0243 102.269C79.0719 102.237 79.1114 102.195 79.1396 102.146C79.1679 102.096 79.1841 102.041 79.187 101.984C79.1898 101.927 79.1793 101.871 79.1561 101.818Z" fill="#964939"/>
            <path d="M93.9049 98.4667C92.454 96.566 89.5522 101.267 88.2101 103.893L88.1448 103.784C88.5729 102.534 89.1018 101.321 89.7263 100.157C90.3792 98.9818 91.2715 97.9806 91.8301 96.7256C92.1566 96.0002 93.1867 93.8238 92.0477 93.2362C90.9088 92.6486 89.1459 94.8975 88.5873 95.5939C87.1364 97.4438 86.07 99.6057 84.7134 101.543C85.323 98.4756 86.4437 95.5328 88.0287 92.8372C88.5583 91.9449 91.2062 88.216 89.1024 87.4906C87.3976 86.9029 85.2647 90.581 84.5755 91.7055C82.878 94.4694 81.8406 97.5671 80.5347 100.527C80.4549 100.708 80.0124 100.23 79.9979 100.201C79.8601 99.9104 80.1503 98.9745 80.201 98.6481C80.3195 97.1693 80.6594 95.7167 81.2094 94.3389C81.8188 93.0621 82.6603 91.9376 83.3423 90.7116C83.705 89.9861 84.7932 86.1049 82.6893 86.5547C81.8768 86.7288 81.0063 88.4046 80.5855 89.0285C79.5991 90.4661 78.7559 91.9968 78.0682 93.5989C77.1782 95.9334 76.5859 98.3708 76.3053 100.853C75.7662 104.408 75.9812 108.037 76.9365 111.503C77.5604 113.781 78.2858 116.03 78.9678 118.293C79.4175 119.744 79.7295 123.72 81.3908 124.184C83.3277 124.721 85.5694 124.757 87.5644 125.026C88.4277 125.149 89.4071 125.432 90.2051 125.091C90.2449 125.166 90.3108 125.224 90.3903 125.254C90.4699 125.284 90.5576 125.283 90.6369 125.253C90.7163 125.223 90.7818 125.164 90.8212 125.089C90.8606 125.014 90.8711 124.927 90.8507 124.844C90.8304 124.785 90.8135 124.724 90.7999 124.663C90.8364 124.585 90.8432 124.496 90.8192 124.413C90.7952 124.331 90.7419 124.26 90.6694 124.213C90.0924 122.154 89.6346 120.064 89.2982 117.952C89.2112 117.416 90.6113 117.14 90.2559 113.027C90.1489 112.025 89.9768 111.031 89.7408 110.052C89.5848 109.369 89.5848 108.66 89.7408 107.977C90.2043 106.102 91.057 104.344 92.2436 102.819C93.0198 101.876 94.5796 99.359 93.9049 98.4667Z" fill="#964939"/>
            <path d="M25.916 124.983C31.103 127.493 37.8643 127.776 42.6015 124.707C42.159 122.429 42.8844 119.89 43.4358 117.634C44.1999 114.505 44.9641 111.381 45.7282 108.261C45.7413 108.204 45.7413 108.144 45.728 108.086C45.7148 108.029 45.6887 107.975 45.6517 107.929C45.6147 107.883 45.5678 107.846 45.5145 107.82C45.4612 107.795 45.4028 107.782 45.3437 107.782C44.2483 102.552 42.8264 97.3431 40.3308 92.5986C39.1534 90.3143 37.6908 88.1886 35.9781 86.2726C34.8536 85.0321 33.439 83.9294 31.7922 84.9306C31.7383 84.9663 31.6941 85.0148 31.6636 85.0718C31.633 85.1287 31.617 85.1924 31.617 85.257C31.617 85.3217 31.633 85.3853 31.6636 85.4423C31.6941 85.4992 31.7383 85.5477 31.7922 85.5835C30.3413 88.0428 30.588 97.4737 30.5952 99.3671C30.5251 101.577 30.2948 103.778 29.906 105.954C29.1121 112.398 27.7774 118.763 25.916 124.983Z" fill="#964939"/>
            <path d="M57.8565 89.0361C57.784 88.5863 57.6896 88.1365 57.5736 87.6795C56.1227 82.1298 50.1449 78.2486 44.3848 77.7843C42.9628 77.6539 41.5295 77.8346 40.1844 78.3139C37.7635 79.1653 35.7053 80.8168 34.3495 82.9956C32.9937 85.1744 32.4212 87.7504 32.7267 90.2984C32.8863 92.0613 33.7351 93.3236 34.3735 94.8978C35.0119 96.472 34.7943 98.322 34.8523 99.976C34.9539 102.493 34.9829 105.714 36.8473 107.666C38.7117 109.617 41.8747 111.192 44.3122 112.106C48.9697 113.854 52.8001 113.31 54.1784 108.348C55.8615 102.189 58.9447 95.6087 57.8565 89.0361Z" fill="#964939"/>
            <path d="M48.3965 115.696C48.1241 115.255 47.7171 114.914 47.2358 114.724C46.543 114.442 45.8066 114.282 45.0594 114.252C41.4321 113.976 28.3739 110.393 26.6328 114.709C25.7187 116.98 24.3259 123.639 24.1227 127.042C24.1138 127.175 24.1415 127.307 24.2029 127.425C24.2644 127.543 24.3571 127.642 24.4709 127.711C24.5848 127.78 24.7154 127.816 24.8484 127.816C24.9815 127.816 25.1119 127.779 25.2254 127.709C31.8924 131.663 39.1324 128.834 45.4729 125.576C45.6284 125.506 45.7507 125.379 45.8142 125.221C45.8778 125.062 45.8777 124.886 45.8139 124.728C45.9455 124.702 46.0674 124.64 46.166 124.549C46.2646 124.458 46.3361 124.342 46.3725 124.213C47.2285 121.376 47.6856 119.751 48.3747 116.864C48.6432 115.652 48.9478 116.653 48.3965 115.696Z" fill="#878A99"/>
            <path d="M37.7622 108.943C39.4169 110.689 41.5842 111.863 43.9503 112.295C44.3276 112.375 44.4872 111.802 44.1099 111.722C41.8438 111.314 39.7671 110.193 38.1829 108.523C37.929 108.232 37.5083 108.653 37.7622 108.943Z" fill="#66281B"/>
            <path d="M80.0642 156.104C79.0703 151.185 73.3392 149.459 69.1824 148.189C62.6323 146.154 56.2184 143.704 49.9795 140.855C43.7188 138.026 37.9515 134.87 31.3788 132.715C27.7153 131.511 21.266 128.304 18.1973 132.352C15.7598 135.559 17.3195 141.5 18.1538 145.665C18.0078 145.746 17.8922 145.873 17.8242 146.026C17.7562 146.179 17.7395 146.35 17.7765 146.513C18.6616 150.583 20.8597 154.559 22.6661 158.28C24.0983 161.508 26.6273 164.124 29.8046 165.665C38.4375 169.96 48.6664 171.28 58.0974 172.521C63.6254 173.246 69.2259 173.725 74.7829 173.116C77.2639 172.847 78.6496 171.752 79.1937 169.22C80.1005 165.071 80.9202 160.341 80.0642 156.104Z" fill="#878A99"/>
            <path d="M93.1218 115.284C93.1141 115.238 93.0971 115.194 93.0718 115.155C93.0465 115.116 93.0134 115.082 92.9747 115.056C92.9359 115.031 92.8923 115.013 92.8465 115.005C92.8007 114.996 92.7537 114.997 92.7083 115.008C89.8863 114.87 77.0022 110.249 76.7483 110.387C76.1606 110.713 76.2622 110.873 76.342 111.635C76.7483 115.443 78.9972 118.94 78.4386 122.857C77.0666 132.458 74.0712 141.756 69.5808 150.352C69.4858 150.36 69.3972 150.402 69.3326 150.472C69.268 150.542 69.2323 150.634 69.2325 150.729C69.1382 157.817 67.2085 173.777 67.3318 173.4C71.3397 173.655 75.3615 173.595 79.3599 173.219C82.108 172.891 84.6532 171.607 86.5492 169.591C88.3556 167.712 91.8087 157.578 92.8316 154.357C97.3657 140.239 96.0817 128.799 93.1218 115.284Z" fill="#878A99"/>
            <path d="M70.2771 148.234C62.1447 146.333 54.8756 142.561 47.505 138.803C40.4681 135.176 32.6694 130.736 24.479 131.505C24.1018 131.541 24.0945 132.136 24.479 132.1C33.1845 131.28 41.5417 136.387 49.0139 140.246C55.8187 143.772 62.6162 147.08 70.1175 148.836C70.4874 148.923 70.647 148.35 70.2771 148.263V148.234Z" fill="#404243" stroke="#404243" stroke-width="0.507819"/>
            <path d="M74.6508 173C66.1702 172.485 57.7041 171.701 49.2598 170.533C41.9182 169.51 34.5548 167.987 28.1273 164.12C28.0591 164.083 27.9787 164.073 27.9036 164.094C27.8284 164.115 27.7644 164.164 27.7254 164.232C27.6864 164.299 27.6755 164.379 27.695 164.455C27.7146 164.53 27.763 164.595 27.8298 164.635C34.3009 168.524 41.7078 170.076 49.1002 171.106C57.5953 172.325 66.1194 173.051 74.6508 173.595C75.0353 173.595 75.0353 173.022 74.6508 173Z" fill="#404243" stroke="#404243" stroke-width="0.507819"/>
            <path d="M71.4084 148.632C68.2526 151.643 66.5261 155.596 65.1912 159.673C65.0751 160.036 65.6482 160.196 65.7643 159.833C67.0701 155.843 68.7459 151.998 71.8291 149.053C72.1048 148.784 71.684 148.364 71.4084 148.632Z" fill="#404243" stroke="#404243" stroke-width="0.507819"/>
            <path d="M34.8813 100.614C33.9527 95.8699 34.4677 92.7794 35.5124 88.1365C35.5124 88.0785 38.0588 87.6722 38.0515 87.6214C38.0442 87.5706 38.095 87.4038 38.124 87.295C38.2175 87.244 38.2887 87.16 38.3235 87.0594C38.3584 86.9588 38.3545 86.8488 38.3127 86.7509C37.3986 84.6906 35.0771 84.1465 33.0749 84.93C30.6518 85.8658 28.9398 88.2236 27.7863 90.4434C26.1758 93.5629 25.4141 97.0306 23.9196 100.201C23.1057 101.812 22.1873 103.367 21.1701 104.858C20.5027 105.91 20.1763 105.946 20.2125 107.165C20.0529 107.325 19.5959 108.573 19.8135 108.776C21.5546 110.466 29.8974 114.369 37.6888 111.38C40.5616 110.299 35.273 102.638 34.8813 100.614Z" fill="#471B17"/>
            <path d="M45.5092 122.19C39.5162 123.995 33.1665 124.272 27.0391 122.995C26.6619 122.915 26.5023 123.488 26.8795 123.568C33.1234 124.877 39.5958 124.6 45.7051 122.763C45.7427 122.752 45.7779 122.734 45.8087 122.71C45.8394 122.686 45.8651 122.656 45.8843 122.622C45.9035 122.588 45.9158 122.551 45.9206 122.512C45.9253 122.473 45.9223 122.434 45.9118 122.396C45.9014 122.359 45.8836 122.324 45.8595 122.293C45.8354 122.262 45.8055 122.236 45.7715 122.217C45.7375 122.198 45.7 122.186 45.6612 122.181C45.6224 122.176 45.5831 122.179 45.5455 122.19H45.5092Z" fill="#404243" stroke="#404243" stroke-width="0.507819"/>
            <path d="M59.3593 84.981C48.6879 74.723 40.3088 75.2236 36.2028 77.516C32.0967 79.8085 30.8271 85.496 30.0074 89.8923C29.9653 90.0643 29.9338 90.2388 29.9131 90.4146C29.9096 90.4484 29.9096 90.4824 29.9131 90.5162C29.9095 90.5354 29.9095 90.5551 29.9131 90.5742C29.8623 91.4448 30.4862 93.4108 31.2551 94.0129C32.7061 95.1591 34.7011 94.557 36.1012 93.6647C38.2529 92.2716 40.2053 90.5925 41.9048 88.6735C43.4138 86.9615 44.6543 83.6897 46.8234 82.5217C48.0785 81.8543 50.7264 83.6824 51.7348 84.3861C53.97 85.7978 55.5577 88.0347 56.1528 90.6105C57.3426 96.2908 56.9943 101.159 56.2036 106.89C55.9859 108.479 55.5869 110.016 55.3403 111.591C55.2315 112.258 55.1009 112.563 55.6087 113.042C55.6734 113.098 55.7537 113.134 55.8392 113.144C55.9246 113.155 56.0111 113.139 56.0875 113.1C60.5346 111.163 63.3856 88.8477 59.3593 84.981Z" fill="#471B17"/>
            <path d="M36.6733 95.9281C36.4339 93.5268 35.2224 90.8499 32.56 91.4883C30.1442 92.0614 30.9495 95.1591 31.6314 96.5665C32.149 97.7676 33.0063 98.7914 34.098 99.5118C34.289 99.6637 34.5152 99.765 34.7557 99.8063C34.9963 99.8475 35.2433 99.8274 35.474 99.7479C35.7048 99.6683 35.9117 99.5319 36.0757 99.3511C36.2396 99.1704 36.3554 98.9512 36.4122 98.7138C36.6995 97.815 36.7886 96.8646 36.6733 95.9281Z" fill="#964939"/>
            <path d="M45.5247 93.7075C45.3506 92.2565 43.7764 92.0897 43.0437 93.2214C42.4488 94.1355 42.1441 96.5658 43.6676 96.7906C45.0459 96.9938 45.6408 94.7013 45.5247 93.7075Z" fill="#1A0504"/>
            <path d="M55.631 96.4205C55.5077 94.9696 54.1801 94.8318 53.5272 95.9707C53.0049 96.8921 52.7074 99.3223 54.006 99.5255C55.174 99.7068 55.7181 97.4144 55.631 96.4205Z" fill="#1A0504"/>
            <path d="M32.7931 93.3384C34.4326 93.926 34.8824 95.7179 35.2451 97.2413C35.3322 97.6113 35.9053 97.4517 35.8182 97.0817C35.4047 95.3189 34.8098 93.4544 32.9164 92.729C32.5609 92.5984 32.4013 93.1788 32.7641 93.3021L32.7931 93.3384Z" fill="#66281B"/>
            <path d="M51.3131 97.0966C51.8678 97.8193 52.113 98.7324 51.995 99.6357C51.7411 100.557 50.8271 100.717 49.9928 100.854C49.6155 100.92 49.7751 101.493 50.1524 101.428C51.081 101.275 52.1764 101.007 52.5464 99.9767C52.9164 98.9465 52.3795 97.6262 51.8209 96.7629C51.6105 96.4365 51.0955 96.7629 51.3059 97.0604L51.3131 97.0966Z" fill="#66281B"/>
            <path d="M47.8818 100.034C48.4057 99.9549 48.9413 100.025 49.427 100.237C49.7752 100.389 50.0799 99.8744 49.7317 99.722C49.154 99.4555 48.5128 99.3574 47.8818 99.4391C47.5118 99.4899 47.5045 100.085 47.8818 100.034Z" fill="#66281B"/>
            <path d="M32.0304 100.055C31.8454 102.43 32.0912 104.819 32.7559 107.107C32.7807 107.177 32.8313 107.236 32.8975 107.271C32.9636 107.306 33.0405 107.315 33.1128 107.295C33.1851 107.276 33.2475 107.23 33.2876 107.167C33.3276 107.104 33.3424 107.028 33.329 106.954C32.6948 104.713 32.4687 102.377 32.6616 100.055C32.6616 99.6782 32.0957 99.6782 32.0667 100.055H32.0304Z" fill="#2E0C12"/>
            <path d="M47.8378 88.5C47.3009 87.8822 46.6023 87.4265 45.8204 87.1843C45.0386 86.942 44.2047 86.9228 43.4125 87.1289C42.1067 87.3828 39.4153 88.2896 39.8868 90.1033C40.3584 91.9169 42.5637 90.8287 43.8696 91.0464C44.9868 91.2132 46.5102 91.7718 47.5476 91.0464C47.7422 90.9044 47.9053 90.7236 48.0264 90.5154C48.1476 90.3073 48.2242 90.0762 48.2515 89.8369C48.2787 89.5975 48.2561 89.3552 48.1849 89.1251C48.1137 88.895 47.9955 88.6821 47.8378 88.5Z" fill="#471B17"/>
            <path d="M54.4108 90.4587C54.9652 90.0622 55.6363 89.8625 56.3172 89.8914C56.9982 89.9203 57.6499 90.1762 58.1687 90.6183C59.0102 91.2567 60.5917 92.947 59.518 94.4632C58.4444 95.9794 57.2764 94.2964 56.2535 94.0497C55.3829 93.8466 54.0771 93.8466 53.5911 92.8817C53.4347 92.4446 53.4306 91.9674 53.5794 91.5276C53.7282 91.0878 54.0211 90.7112 54.4108 90.4587Z" fill="#471B17"/>
            <path d="M51.6542 103.364C51.549 103.248 51.409 103.169 51.2552 103.139C49.2965 102.776 47.3523 102.414 45.4081 102.138C44.2111 101.964 43.8628 102.406 44.095 103.625C44.4214 105.301 45.9594 106.389 47.5409 106.745C48.3588 106.941 49.2113 106.941 50.0292 106.745C50.9505 106.513 52.3507 104.133 51.6542 103.364Z" fill="#66281B"/>
            <path d="M47.6727 104.452C48.7537 104.735 50.2916 105.178 51.0679 104.002C51.1865 103.728 51.2411 103.43 51.2275 103.132C49.2905 102.776 47.3535 102.406 45.4238 102.138C44.3792 101.986 43.9729 102.305 44.0527 103.204C45.1978 103.781 46.4155 104.201 47.6727 104.452Z" fill="white"/>
            <path d="M77.4441 94.288C76.7743 96.2683 76.4527 98.3498 76.4937 100.44C76.4937 100.519 76.5251 100.594 76.5808 100.65C76.6366 100.706 76.7123 100.737 76.7911 100.737C76.87 100.737 76.9457 100.706 77.0015 100.65C77.0573 100.594 77.0886 100.519 77.0886 100.44C77.051 98.4039 77.3651 96.3767 78.0172 94.4476C78.1405 94.0849 77.5674 93.9253 77.4441 94.288Z" fill="#66281B"/>
            <path d="M74.3985 137.838C73.3684 141.615 72.2028 145.354 70.9018 149.053C70.7712 149.416 71.3516 149.576 71.4749 149.213C72.7759 145.513 73.9415 141.775 74.9716 137.997C74.9928 137.921 74.9829 137.84 74.9441 137.771C74.9249 137.737 74.8992 137.707 74.8685 137.683C74.8377 137.659 74.8025 137.642 74.7649 137.631C74.6889 137.61 74.6076 137.62 74.5389 137.659C74.4702 137.697 74.4197 137.762 74.3985 137.838Z" fill="#404243" stroke="#404243" stroke-width="0.507819"/>
            <path d="M34.3098 98.6849C34.3697 99.7981 34.272 100.914 34.0196 102C33.6569 103.408 32.2858 104.742 30.8784 103.415C29.2461 101.862 30.7478 99.2507 32.1915 98.1916C32.4962 97.9667 32.1915 97.4661 31.8941 97.6765C30.0586 99.0258 28.3538 102.399 30.7696 104.09C31.2294 104.428 31.7994 104.583 32.3674 104.523C32.9354 104.462 33.4601 104.191 33.8383 103.763C34.9555 102.479 34.9555 100.266 34.9047 98.6849C34.9047 98.606 34.8734 98.5303 34.8176 98.4746C34.7618 98.4188 34.6861 98.3874 34.6073 98.3874C34.5284 98.3874 34.4527 98.4188 34.3969 98.4746C34.3412 98.5303 34.3098 98.606 34.3098 98.6849Z" fill="white"/>
        </g>
        <path d="M211.581 88.9927C211.609 89.0277 211.646 89.0548 211.688 89.0715C211.729 89.0882 211.775 89.0939 211.819 89.0881C211.863 89.0823 211.906 89.0651 211.942 89.0382C211.977 89.0113 212.006 88.9757 212.024 88.9347H212.118C212.631 88.8748 213.147 88.8433 213.663 88.8403H213.707C214.691 89.0293 215.683 89.1673 216.681 89.2539C219.83 90.5016 222.608 92.4749 222.652 96.3343C222.652 97.9811 222.441 99.6134 222.942 101.209C223.471 102.623 224.18 103.961 225.053 105.192C225.972 106.736 226.703 108.385 227.229 110.103C227.669 111.3 228.343 112.397 229.21 113.332C230.211 114.471 231.386 115.508 232.032 116.916C232.895 118.751 232.293 120.717 232.453 122.639C232.692 125.665 235.434 127.638 235.841 130.619C235.841 130.75 236.015 130.808 236.131 130.786C238.958 130.185 241.869 130.096 244.727 130.525C246.65 130.801 248.311 130.888 250.045 129.908C251.073 129.191 252.247 128.713 253.484 128.508C255.014 128.356 256.233 128.16 257.213 126.832C258.398 125.115 259.159 123.142 259.435 121.074C259.711 119.007 259.494 116.903 258.801 114.935C258.163 113.31 256.973 112.127 256.161 110.619C255.152 108.725 255.907 106.411 255.305 104.38C254.753 102.53 253.484 101.26 252.468 99.6787C251.257 97.7997 251.017 95.5798 250.734 93.418C250.451 91.2561 249.973 88.8041 248.558 87.092C248.073 86.1194 247.419 85.2402 246.628 84.4949C241.318 79.482 232.504 79.997 225.554 80.679C222.665 80.8739 219.84 81.6123 217.225 82.8553C216.1 83.2574 215.02 83.7778 214.004 84.4078C212.561 85.2711 210.218 87.0993 211.581 88.9927Z" fill="#D4794C"/>
        <path d="M107.515 25.3406C105.229 23.7664 103.829 26.9511 103.887 28.9679C103.617 28.8654 103.372 28.7068 103.167 28.5026C102.963 28.2984 102.804 28.0532 102.701 27.7831C102.599 27.5131 102.554 27.2243 102.571 26.9359C102.588 26.6474 102.666 26.3658 102.799 26.1096C103.292 25.1157 101.667 24.4991 101.174 25.493C100.887 26.0588 100.748 26.6882 100.77 27.3224C100.792 27.9566 100.975 28.5748 101.301 29.1192C101.627 29.6635 102.086 30.1162 102.635 30.4348C103.184 30.7535 103.804 30.9277 104.439 30.9411C105.817 33.4367 109.256 33.93 111.94 33.2699C113.021 33.0087 112.767 31.2966 111.679 31.5578C109.894 32.0003 107.507 32.0438 106.303 30.5712C108.313 29.6208 109.807 26.9221 107.515 25.3406ZM106.296 27.7129C106.312 27.9644 106.262 28.2157 106.151 28.4422C106.041 28.6686 105.873 28.8623 105.665 29.0042C105.708 27.8072 106.361 25.6526 106.296 27.7129Z" fill="#FFC88B"/>
        <path d="M169.664 6.92228C169.225 6.91704 168.787 6.97569 168.365 7.09639C167.64 5.13041 168.975 2.66386 171.18 2.07624C171.401 2.01563 171.589 1.86961 171.703 1.6703C171.817 1.47098 171.846 1.23471 171.786 1.01344C171.725 0.792179 171.579 0.604054 171.38 0.490453C171.181 0.376851 170.944 0.347079 170.723 0.407686C169.343 0.719741 168.136 1.55256 167.355 2.73249C166.574 3.91242 166.278 5.34837 166.53 6.74092C166.609 7.09896 166.728 7.44694 166.885 7.77832C166.239 8.21795 165.709 8.80685 165.339 9.49511C164.969 10.1834 164.77 10.9507 164.76 11.7321C164.78 11.9483 164.879 12.1493 165.04 12.2957C165.2 12.4421 165.41 12.5232 165.627 12.5232C165.844 12.5232 166.053 12.4421 166.214 12.2957C166.374 12.1493 166.474 11.9483 166.494 11.7321C166.491 11.2413 166.609 10.7574 166.838 10.3233C167.067 9.88921 167.4 9.51839 167.807 9.24374C168.873 10.5496 170.433 11.4999 171.935 10.5496C174.285 9.09865 171.325 6.96581 169.664 6.92228ZM169.765 8.76494C169.743 8.74342 169.719 8.72399 169.693 8.70691C169.799 8.69983 169.906 8.69983 170.012 8.70691C170.556 8.77945 171.39 9.82411 169.758 8.78671L169.765 8.76494Z" fill="#FFC88B"/>
        <path d="M59.8522 23.6067C59.4132 23.6014 58.9757 23.6601 58.5536 23.7808C57.8282 21.8148 59.163 19.3482 61.3684 18.7606C61.5916 18.7039 61.7831 18.5608 61.9008 18.3628C62.0184 18.1649 62.0527 17.9283 61.9959 17.7051C61.9392 17.4819 61.7961 17.2904 61.5981 17.1727C61.4002 17.055 61.1636 17.0208 60.9404 17.0776C59.561 17.3912 58.3556 18.2244 57.5747 19.4039C56.7937 20.5834 56.4974 22.0185 56.7472 23.4108C56.8269 23.7697 56.9487 24.1179 57.11 24.4482C56.4635 24.8874 55.9327 25.4762 55.5626 26.1646C55.1925 26.8529 54.9942 27.6205 54.9844 28.4019C55.0042 28.6182 55.1041 28.8192 55.2645 28.9656C55.4249 29.112 55.6342 29.1931 55.8513 29.1931C56.0684 29.1931 56.2777 29.112 56.4381 28.9656C56.5985 28.8192 56.6984 28.6182 56.7182 28.4019C56.7139 27.9117 56.8309 27.428 57.0587 26.9938C57.2866 26.5597 57.6182 26.1886 58.024 25.9136C59.0687 27.234 60.6284 28.1553 62.1156 27.234C64.4733 25.783 61.5135 23.6067 59.8522 23.6067ZM59.961 25.4493L59.8812 25.3913H60.2149C60.7445 25.4348 61.5788 26.4577 59.961 25.4421V25.4493Z" fill="#D86E54"/>
        <path d="M244.285 17.5067C243.848 17.5019 243.413 17.5606 242.993 17.6808C242.268 15.7148 243.595 13.2482 245.808 12.6534C246.029 12.5918 246.217 12.4449 246.33 12.2449C246.443 12.0449 246.472 11.8082 246.41 11.587C246.349 11.3657 246.202 11.1779 246.002 11.065C245.802 10.9521 245.565 10.9233 245.344 10.9848C243.964 11.3001 242.758 12.1347 241.978 13.3154C241.197 14.4961 240.901 15.9321 241.151 17.3253C241.236 17.6826 241.357 18.0302 241.513 18.3627C240.869 18.8031 240.341 19.3925 239.973 20.0809C239.606 20.7692 239.41 21.5361 239.402 22.3164C239.422 22.5327 239.522 22.7337 239.682 22.8801C239.843 23.0265 240.052 23.1076 240.269 23.1076C240.486 23.1076 240.696 23.0265 240.856 22.8801C241.016 22.7337 241.116 22.5327 241.136 22.3164C241.131 21.8253 241.249 21.3407 241.478 20.9063C241.707 20.4719 242.041 20.1014 242.449 19.8281C243.516 21.1412 245.075 22.0625 246.57 21.1412C248.913 19.6903 245.931 17.5284 244.285 17.5067ZM244.393 19.3421L244.314 19.2913H244.64C245.206 19.3348 246.011 20.365 244.393 19.3421Z" fill="#5B67B9"/>
        <path d="M284.649 62.2154C284.839 61.8195 284.976 61.3998 285.055 60.9676C287.144 61.149 288.791 63.4269 288.37 65.6686C288.342 65.8902 288.4 66.1143 288.532 66.2943C288.665 66.4743 288.861 66.5966 289.081 66.6357C289.301 66.6749 289.528 66.628 289.714 66.5046C289.901 66.3813 290.032 66.1911 290.082 65.9733C290.398 64.5898 290.167 63.1378 289.436 61.921C288.706 60.7042 287.534 59.8167 286.165 59.4442C285.805 59.3634 285.438 59.3221 285.069 59.3208C284.95 58.5475 284.647 57.8142 284.185 57.1829C283.723 56.5516 283.115 56.0407 282.414 55.6936C282.212 55.63 281.994 55.6421 281.801 55.7276C281.607 55.8131 281.452 55.9661 281.363 56.1581C281.274 56.3501 281.258 56.5679 281.318 56.7708C281.378 56.9737 281.51 57.1478 281.689 57.2605C282.133 57.4665 282.519 57.7801 282.812 58.1727C283.104 58.5654 283.294 59.0248 283.365 59.5095C281.718 59.9085 280.216 60.9168 280.405 62.6652C280.68 65.4364 283.909 63.7026 284.649 62.2154ZM282.944 61.4899L283.031 61.4464L282.879 61.7293C282.61 62.2299 281.319 62.5346 282.929 61.519L282.944 61.4899Z" fill="#D86E54"/>
        <path d="M79.1494 50.1807L80.9412 53.8079L84.9312 54.3883L82.0294 57.2031L82.7041 61.1713L79.1348 59.2924L75.5656 61.1713L76.2475 57.2031L73.3457 54.3883L77.3357 53.8079L79.1494 50.1807Z" fill="#5B67B9"/>
        <path d="M6.07402 49.7812L10.2309 53.9671L16.0345 52.9152L13.3286 58.153L16.1143 63.3473L10.3107 62.4042L6.21186 66.6626L5.31955 60.859L0.00195312 58.2763L5.26877 55.6212L6.07402 49.7812Z" fill="#FFC88B"/>
        <path d="M206.307 21.1113L206.394 26.8352L211.167 30.0127L205.733 31.8626L204.181 37.3906L200.742 32.8129L195.004 33.0378L198.312 28.3586L196.317 22.9903L201.801 24.6806L206.307 21.1113Z" fill="#FFC88B"/>
    </g>
    <defs>
        <clipPath id="clip0_6616_59396">
            <rect width="290.182" height="253.91" fill="white" transform="translate(0.00195312 0.392578)"/>
        </clipPath>
    </defs>
</svg>
