<svg width="66" height="66" viewBox="0 0 66 66" fill="none" xmlns="http://www.w3.org/2000/svg">
    <g clip-path="url(#clip0_6616_60560)">
        <path d="M6.91016 0.67041H58.9102C62.4852 0.67041 65.4102 3.59541 65.4102 7.17041V59.1704C65.4102 62.7454 62.4852 65.6704 58.9102 65.6704H6.91016C3.33516 65.6704 0.410156 62.7454 0.410156 59.1704V7.17041C0.410156 3.59541 3.33516 0.67041 6.91016 0.67041Z" fill="#E3F4FC"/>
        <path d="M21.2109 22.3154L31.8059 28.7504V40.9704L21.8609 34.9254C21.4709 34.6654 21.2109 34.2104 21.2109 33.7554V22.3154Z" fill="#22AE16"/>
        <path d="M39.3436 23.1604L43.5686 20.6254L33.6236 14.7104C33.1686 14.4504 32.6486 14.4504 32.1936 14.7104L28.6836 16.7904L39.3436 23.1604Z" fill="#22AE16"/>
        <path d="M26.6045 18.0254L22.3145 20.6254L32.9095 26.9954L37.2645 24.3954L26.6045 18.0254Z" fill="#22AE16"/>
        <path d="M40.3192 24.8504C40.3192 24.9154 40.3192 24.9154 40.3192 24.8504V28.4254C40.3192 28.9454 39.9292 29.4654 39.4092 29.5304C38.7592 29.6604 38.1742 29.1404 38.1742 28.4904V26.2154L33.9492 28.8154V40.9704L43.8942 34.9254C44.2842 34.6654 44.5442 34.2104 44.5442 33.7554V22.3154L40.3192 24.8504Z" fill="#22AE16"/>
        <path d="M32.9101 51.8255C34.9563 51.8255 36.6151 50.1667 36.6151 48.1205C36.6151 46.0743 34.9563 44.4155 32.9101 44.4155C30.8639 44.4155 29.2051 46.0743 29.2051 48.1205C29.2051 50.1667 30.8639 51.8255 32.9101 51.8255Z" fill="url(#paint0_linear_6616_60560)"/>
        <path d="M19.1952 51.8255C21.2414 51.8255 22.9002 50.1667 22.9002 48.1205C22.9002 46.0743 21.2414 44.4155 19.1952 44.4155C17.149 44.4155 15.4902 46.0743 15.4902 48.1205C15.4902 50.1667 17.149 51.8255 19.1952 51.8255Z" fill="url(#paint1_linear_6616_60560)"/>
        <path d="M46.6894 51.8255C48.7356 51.8255 50.3944 50.1667 50.3944 48.1205C50.3944 46.0743 48.7356 44.4155 46.6894 44.4155C44.6432 44.4155 42.9844 46.0743 42.9844 48.1205C42.9844 50.1667 44.6432 51.8255 46.6894 51.8255Z" fill="url(#paint2_linear_6616_60560)"/>
        <path d="M47.7298 47.0154H18.0898V49.2904H47.7298V47.0154Z" fill="url(#paint3_linear_6616_60560)"/>
    </g>
    <defs>
        <linearGradient id="paint0_linear_6616_60560" x1="35.2245" y1="44.4155" x2="28.7211" y2="46.0622" gradientUnits="userSpaceOnUse">
            <stop stop-color="#00E925"/>
            <stop offset="1" stop-color="#21AC27"/>
        </linearGradient>
        <linearGradient id="paint1_linear_6616_60560" x1="21.5097" y1="44.4155" x2="15.0063" y2="46.0622" gradientUnits="userSpaceOnUse">
            <stop stop-color="#00E925"/>
            <stop offset="1" stop-color="#21AC27"/>
        </linearGradient>
        <linearGradient id="paint2_linear_6616_60560" x1="49.0038" y1="44.4155" x2="42.5004" y2="46.0622" gradientUnits="userSpaceOnUse">
            <stop stop-color="#00E925"/>
            <stop offset="1" stop-color="#21AC27"/>
        </linearGradient>
        <linearGradient id="paint3_linear_6616_60560" x1="42.1677" y1="47.0154" x2="39.8381" y2="54.7004" gradientUnits="userSpaceOnUse">
            <stop stop-color="#00E925"/>
            <stop offset="1" stop-color="#21AC27"/>
        </linearGradient>
        <clipPath id="clip0_6616_60560">
            <rect width="65" height="65" fill="white" transform="translate(0.410156 0.67041)"/>
        </clipPath>
    </defs>
</svg>
