<svg width="66" height="66" viewBox="0 0 66 66" fill="none" xmlns="http://www.w3.org/2000/svg">
    <g clip-path="url(#clip0_6616_60535)">
        <path d="M58.8105 0.511719H6.81055C3.2207 0.511719 0.310547 3.42187 0.310547 7.01172V59.0117C0.310547 62.6016 3.2207 65.5117 6.81055 65.5117H58.8105C62.4004 65.5117 65.3105 62.6016 65.3105 59.0117V7.01172C65.3105 3.42187 62.4004 0.511719 58.8105 0.511719Z" fill="#E8EEF1"/>
        <path d="M25.66 15.1627L26.44 17.5547C26.5579 18.0569 26.8511 18.5004 27.267 18.8055C27.683 19.1106 28.1941 19.2571 28.7085 19.2187H36.931C37.4325 19.2486 37.9288 19.1035 38.3354 18.8084C38.7419 18.5133 39.0336 18.0863 39.1605 17.6002C39.3945 16.8917 39.635 16.1767 39.8105 15.4617C39.8885 15.2017 40.012 15.1367 40.272 15.1367C40.9008 15.0846 41.5272 15.2629 42.0342 15.6384C42.5413 16.0139 42.8945 16.561 43.028 17.1777C43.0735 17.4263 43.0932 17.679 43.0865 17.9317V48.1112C43.1348 48.799 42.9078 49.4779 42.4556 49.9984C42.0033 50.5189 41.3628 50.8384 40.675 50.8867C40.5581 50.8932 40.4409 50.8932 40.324 50.8867H25.283C24.9424 50.9115 24.6003 50.869 24.2761 50.7615C23.952 50.6541 23.6522 50.4838 23.3938 50.2605C23.1355 50.0371 22.9237 49.7651 22.7705 49.4599C22.6173 49.1547 22.5257 48.8223 22.501 48.4817C22.4945 48.3626 22.4945 48.2433 22.501 48.1242V17.9057C22.501 16.1117 23.7425 15.0197 25.66 15.1627ZM32.81 48.4622C33.3272 48.4622 33.8232 48.2568 34.1889 47.8911C34.5546 47.5254 34.76 47.0294 34.76 46.5122C34.7484 46.1433 34.6292 45.7859 34.417 45.484C34.2048 45.1821 33.9089 44.9488 33.5657 44.813C33.2226 44.6771 32.8472 44.6446 32.4859 44.7194C32.1245 44.7943 31.7929 44.9732 31.532 45.2341C31.271 45.4951 31.0921 45.8267 31.0173 46.1881C30.9424 46.5494 30.9749 46.9248 31.1108 47.2679C31.2466 47.6111 31.4799 47.907 31.7818 48.1192C32.0837 48.3314 32.4412 48.4506 32.81 48.4622Z" fill="#FFBC0A"/>
        <path d="M27.9492 15.1562H37.6992C37.4782 15.8062 37.2832 16.4562 37.0492 17.1062C36.9923 17.1951 36.9146 17.2687 36.8229 17.3208C36.7312 17.3729 36.6282 17.4019 36.5227 17.4052H29.1972C29.0805 17.4137 28.9641 17.3849 28.8648 17.323C28.7655 17.2611 28.6885 17.1693 28.6447 17.0607C28.3771 16.4396 28.1449 15.8037 27.9492 15.1562Z" fill="#FFBC0A"/>
        <path d="M32.8111 39.0697H27.1106C26.2006 39.0697 25.7586 38.6212 25.9536 37.6722C26.2785 36.0793 27.1461 34.6486 28.4084 33.6242C29.6707 32.5998 31.2494 32.0452 32.8751 32.0552C34.5007 32.0652 36.0725 32.639 37.3221 33.6788C38.5718 34.7187 39.4218 36.16 39.7271 37.7567C39.8961 38.6277 39.5451 39.0567 38.6481 39.0567L32.8111 39.0697Z" fill="#E8EEF1"/>
        <path d="M32.8104 30.6977C32.2266 30.6926 31.6574 30.5148 31.1745 30.1867C30.6915 29.8586 30.3165 29.395 30.0966 28.8541C29.8768 28.3133 29.8219 27.7194 29.9389 27.1475C30.056 26.5755 30.3397 26.051 30.7543 25.6399C31.1689 25.2289 31.6959 24.9498 32.2689 24.8378C32.8419 24.7258 33.4352 24.7858 33.9741 25.0104C34.513 25.235 34.9734 25.6141 35.2972 26.0999C35.6211 26.5856 35.7939 27.1564 35.7939 27.7402C35.7939 28.1308 35.7166 28.5175 35.5663 28.878C35.4161 29.2386 35.1959 29.5658 34.9185 29.8407C34.6411 30.1157 34.312 30.333 33.9502 30.4801C33.5884 30.6272 33.201 30.7012 32.8104 30.6977Z" fill="#E8EEF1"/>
    </g>
    <defs>
        <clipPath id="clip0_6616_60535">
            <rect width="65" height="65" fill="white" transform="translate(0.310547 0.511719)"/>
        </clipPath>
    </defs>
</svg>
