<svg width="83" height="84" viewBox="0 0 83 84" fill="none" xmlns="http://www.w3.org/2000/svg">
    <g clip-path="url(#clip0_6616_60745)">
        <path d="M41.4392 58.2517C39.7153 58.2476 38.0031 57.9683 36.3673 57.4243C36.1435 57.347 35.9591 57.1848 35.8538 56.9727C35.7485 56.7607 35.7309 56.5157 35.8047 56.2907C35.8616 56.1152 35.9719 55.9618 36.1203 55.852C36.2686 55.7422 36.4475 55.6815 36.6321 55.6785C36.7255 55.6664 36.82 55.6664 36.9134 55.6785C38.3702 56.1802 39.8985 56.4428 41.4392 56.4562C42.9693 56.4615 44.4899 56.2156 45.9402 55.7281C46.0336 55.7161 46.1282 55.7161 46.2215 55.7281C46.4061 55.7312 46.585 55.7919 46.7334 55.9016C46.8817 56.0114 46.992 56.1648 47.0489 56.3404C47.0863 56.4511 47.1011 56.5681 47.0926 56.6846C47.084 56.8011 47.0523 56.9147 46.9993 57.0188C46.948 57.1247 46.8762 57.2194 46.7882 57.2975C46.7002 57.3756 46.5976 57.4356 46.4863 57.4739C44.8558 57.999 43.1522 58.2616 41.4392 58.2517Z" fill="url(#paint0_linear_6616_60745)"/>
        <path d="M41.4387 67.0471C37.1951 67.0352 33.1114 65.4268 29.9994 62.5417C26.8874 59.6567 24.9751 55.7061 24.6426 51.4756V51.0453L24.2207 50.9378C24.0386 50.8964 19.8438 49.8539 19.8438 45.4191V32.6524C19.8511 31.3675 20.291 30.1225 21.0926 29.1183C21.8942 28.114 23.0107 27.4091 24.262 27.1171L24.6592 27.0261L24.7171 26.6207C25.0063 24.5015 26.0564 22.5598 27.6716 21.1577C29.2868 19.7556 31.3569 18.9888 33.4957 19.0004H35.7876V18.2971C35.7896 18.065 35.881 17.8426 36.0428 17.6762C36.2046 17.5097 36.4244 17.4121 36.6564 17.4036H46.221C46.4588 17.4036 46.6869 17.4974 46.8558 17.6648C47.0247 17.8321 47.1207 18.0594 47.1229 18.2971V19.0004H49.4147C51.5497 19.0059 53.6117 19.7785 55.2246 21.1773C56.8376 22.5761 57.8941 24.508 58.2016 26.6207L58.2513 27.0261L58.6567 27.1171C59.9058 27.412 61.0196 28.118 61.8194 29.1218C62.6191 30.1256 63.0584 31.369 63.0667 32.6524V45.4191C63.0623 46.6967 62.6282 47.9357 61.8343 48.9367C61.0404 49.9377 59.9328 50.6425 58.6898 50.9378L58.2678 51.0453V51.4756C57.9311 55.7104 56.013 59.6634 52.8948 62.5486C49.7767 65.4337 45.6869 67.0397 41.4387 67.0471ZM26.4629 51.7486C26.8524 55.449 28.5981 58.8742 31.3634 61.3637C34.1288 63.8532 37.7178 65.2308 41.4387 65.2308C45.1595 65.2308 48.7486 63.8532 51.5139 61.3637C54.2793 58.8742 56.025 55.449 56.4145 51.7486L56.4807 51.095H48.4798C46.7997 51.0893 45.1892 50.4237 43.9953 49.2416C43.3172 48.5731 42.4033 48.1984 41.4511 48.1984C40.4989 48.1984 39.5849 48.5731 38.9069 49.2416C37.7123 50.4419 36.091 51.1202 34.3976 51.1281H26.3967L26.4629 51.7486ZM41.4387 46.3623C42.871 46.3666 44.2441 46.9342 45.2612 47.9426C46.1167 48.7944 47.2726 49.2758 48.4798 49.283H57.3908C58.4215 49.2808 59.4093 48.8704 60.1381 48.1416C60.867 47.4128 61.2774 46.4249 61.2795 45.3942V32.6524C61.2774 31.6217 60.867 30.6339 60.1381 29.9051C59.4093 29.1763 58.4215 28.7658 57.3908 28.7637H25.4866C24.4559 28.7658 23.468 29.1763 22.7392 29.9051C22.0104 30.6339 21.6 31.6217 21.5978 32.6524V45.4191C21.6 46.4498 22.0104 47.4376 22.7392 48.1664C23.468 48.8952 24.4559 49.3056 25.4866 49.3078H34.3976C35.589 49.3066 36.7336 48.844 37.5913 48.0171C38.0916 47.5009 38.6892 47.0889 39.3495 46.8049C40.0098 46.5209 40.7199 46.3705 41.4387 46.3623ZM47.1229 26.9517H56.4807L56.3317 26.2484C55.9636 24.6961 55.0833 23.3131 53.8329 22.3224C52.5825 21.3317 51.0349 20.791 49.4396 20.7876H47.1229V26.9517ZM37.5499 26.9517H45.3274V19.1742H37.5499V26.9517ZM33.4626 20.7628C31.8616 20.7644 30.3079 21.306 29.0527 22.3C27.7975 23.2939 26.9142 24.6821 26.5456 26.2401L26.3719 26.9765H35.7214V20.7876L33.4626 20.7628Z" fill="url(#paint1_linear_6616_60745)"/>
        <path d="M40.1309 32.5617C40.1309 32.8202 40.2075 33.073 40.3512 33.288C40.4948 33.5029 40.699 33.6705 40.9379 33.7694C41.1767 33.8684 41.4396 33.8943 41.6932 33.8438C41.9468 33.7934 42.1797 33.6689 42.3625 33.4861C42.5454 33.3032 42.6699 33.0703 42.7203 32.8167C42.7707 32.5631 42.7449 32.3003 42.6459 32.0614C42.547 31.8225 42.3794 31.6184 42.1644 31.4747C41.9494 31.3311 41.6967 31.2544 41.4381 31.2544C41.0914 31.2544 40.7589 31.3921 40.5138 31.6373C40.2686 31.8824 40.1309 32.215 40.1309 32.5617Z" fill="url(#paint2_linear_6616_60745)"/>
        <path d="M44.2676 32.5617C44.2676 32.8202 44.3443 33.073 44.4879 33.288C44.6315 33.5029 44.8357 33.6705 45.0746 33.7694C45.3135 33.8684 45.5763 33.8943 45.8299 33.8438C46.0835 33.7934 46.3164 33.6689 46.4992 33.4861C46.6821 33.3032 46.8066 33.0703 46.857 32.8167C46.9075 32.5631 46.8816 32.3003 46.7826 32.0614C46.6837 31.8225 46.5161 31.6184 46.3011 31.4747C46.0862 31.3311 45.8334 31.2544 45.5749 31.2544C45.2281 31.2544 44.8956 31.3921 44.6505 31.6373C44.4053 31.8824 44.2676 32.215 44.2676 32.5617Z" fill="url(#paint3_linear_6616_60745)"/>
        <path d="M35.9941 32.5617C35.9941 32.8202 36.0708 33.073 36.2145 33.288C36.3581 33.5029 36.5623 33.6705 36.8011 33.7694C37.04 33.8684 37.3029 33.8943 37.5565 33.8438C37.81 33.7934 38.043 33.6689 38.2258 33.4861C38.4086 33.3032 38.5331 33.0703 38.5836 32.8167C38.634 32.5631 38.6081 32.3003 38.5092 32.0614C38.4102 31.8225 38.2427 31.6184 38.0277 31.4747C37.8127 31.3311 37.56 31.2544 37.3014 31.2544C36.9547 31.2544 36.6222 31.3921 36.377 31.6373C36.1319 31.8824 35.9941 32.215 35.9941 32.5617Z" fill="url(#paint4_linear_6616_60745)"/>
    </g>
    <defs>
        <linearGradient id="paint0_linear_6616_60745" x1="44.9678" y1="55.6694" x2="40.2315" y2="60.9331" gradientUnits="userSpaceOnUse">
            <stop stop-color="#AC2121"/>
            <stop offset="1" stop-color="#E9000E"/>
        </linearGradient>
        <linearGradient id="paint1_linear_6616_60745" x1="54.9556" y1="17.4036" x2="16.4595" y2="25.8902" gradientUnits="userSpaceOnUse">
            <stop stop-color="#AC2121"/>
            <stop offset="1" stop-color="#E9000E"/>
        </linearGradient>
        <linearGradient id="paint2_linear_6616_60745" x1="42.2548" y1="31.2544" x2="39.9601" y2="31.8354" gradientUnits="userSpaceOnUse">
            <stop stop-color="#AC2121"/>
            <stop offset="1" stop-color="#E9000E"/>
        </linearGradient>
        <linearGradient id="paint3_linear_6616_60745" x1="46.3915" y1="31.2544" x2="44.0968" y2="31.8354" gradientUnits="userSpaceOnUse">
            <stop stop-color="#AC2121"/>
            <stop offset="1" stop-color="#E9000E"/>
        </linearGradient>
        <linearGradient id="paint4_linear_6616_60745" x1="38.1181" y1="31.2544" x2="35.8234" y2="31.8354" gradientUnits="userSpaceOnUse">
            <stop stop-color="#AC2121"/>
            <stop offset="1" stop-color="#E9000E"/>
        </linearGradient>
        <clipPath id="clip0_6616_60745">
            <rect width="82.7392" height="82.7392" fill="white" transform="translate(0.0683594 0.855957)"/>
        </clipPath>
    </defs>
</svg>
