<svg width="96" height="65" viewBox="0 0 96 65" fill="none" xmlns="http://www.w3.org/2000/svg">
<rect width="96" height="64" transform="translate(0 0.75)" fill="white"/>
<g clip-path="url(#clip0_6744_65198)">
<path d="M12 48.3463H84V17.1537H12V48.3463Z" fill="#FFA61A"/>
<mask id="mask0_6744_65198" style="mask-type:luminance" maskUnits="userSpaceOnUse" x="-14" y="10" width="480" height="620">
<path d="M-13.6074 10.0543H465.349V629.88H-13.6074V10.0543Z" fill="white"/>
</mask>
<g mask="url(#mask0_6744_65198)">
<path d="M33.8932 43.5554H31.4922V32.7499H33.8932V33.441C34.1938 33.0176 34.9685 32.6114 35.8161 32.6114C38.1123 32.6114 39.3911 34.5186 39.3911 36.7444C39.3911 38.9693 38.1256 40.8593 35.8302 40.8593C34.9818 40.8593 34.1938 40.4532 33.8932 40.029V43.5554ZM33.8932 38.0333C34.1938 38.5812 34.6852 38.9521 35.3215 38.9521C36.5048 38.9521 37.1833 37.9981 37.1833 36.7444C37.1833 35.4726 36.5189 34.5186 35.3356 34.5186C34.6821 34.5186 34.1938 34.9076 33.8932 35.4374V38.0333Z" fill="white"/>
<path d="M47.3992 40.5539H44.9982V39.9583C44.6977 40.453 43.8423 40.8591 42.9235 40.8591C41.1571 40.8591 40.1953 39.6938 40.1953 37.9455V32.7497H42.2966V37.5033C42.2966 38.3337 42.7114 38.8987 43.577 38.8987C44.2477 38.8987 44.9982 38.4925 44.9982 37.8038V32.7497H47.3992V40.5539Z" fill="white"/>
<path d="M51.0017 43.5554H48.9004V32.7499H51.0017V33.441C51.3022 33.0176 52.106 32.6114 52.9535 32.6114C55.2497 32.6114 56.5433 34.5186 56.5433 36.7444C56.5433 38.9693 55.256 40.8593 52.9598 40.8593C52.1122 40.8593 51.3022 40.4532 51.0017 40.029V43.5554ZM51.0017 38.0333C51.3022 38.5812 51.8234 38.9521 52.4589 38.9521C53.6422 38.9521 54.3356 37.9981 54.3356 36.7444C54.3356 35.4726 53.6493 34.5186 52.466 34.5186C51.8125 34.5186 51.3022 34.9076 51.0017 35.4374V38.0333Z" fill="white"/>
<path d="M59.7068 43.5554H57.6055V32.7499H59.7068V33.441C60.0073 33.0176 60.8212 32.6114 61.6688 32.6114C63.9649 32.6114 65.2641 34.5186 65.2641 36.7444C65.2641 38.9693 63.9689 40.8593 61.6727 40.8593C60.8251 40.8593 60.0073 40.4532 59.7068 40.029V43.5554ZM59.7068 38.0333C60.0073 38.5812 60.5387 38.9521 61.1742 38.9521C62.3575 38.9521 63.0563 37.9981 63.0563 36.7444C63.0563 35.4726 62.3622 34.5186 61.1789 34.5186C60.5254 34.5186 60.0073 34.9076 59.7068 35.4374V38.0333Z" fill="white"/>
<path d="M73.1162 38.1527C72.8337 39.6538 71.5972 40.884 69.6188 40.884C67.3234 40.884 65.7871 39.1936 65.7871 36.7566C65.7871 34.3719 67.3985 32.6173 69.6062 32.6173C71.9204 32.6173 73.2141 34.2186 73.2141 36.5319V37.2519H67.9064C67.9768 38.4525 68.6483 39.1419 69.6188 39.1419C70.3615 39.1419 70.9085 38.753 71.0854 38.1527H73.1162ZM67.9588 35.7517H71.0142C70.9969 35.1514 70.5023 34.2679 69.6015 34.2679C68.754 34.2679 68.1529 34.8509 67.9588 35.7517Z" fill="white"/>
<path d="M74.7142 34.5508H73.5137V32.75H74.7142V30.6487H76.8155V32.75H78.6163V34.5508H76.8155V38.0154C76.8155 38.6337 77.1238 38.9162 77.6889 38.9162C78.0246 38.9162 78.3158 38.8106 78.6163 38.6517V40.5941C78.3158 40.753 77.8485 40.8414 77.2655 40.8414C75.6588 40.8414 74.7142 40.0471 74.7142 38.298V34.5508Z" fill="white"/>
<path d="M28.1908 27.9479H23.3887V32.75H28.1908V27.9479Z" fill="white"/>
<path d="M20.6866 36.9517H19.1856V35.4507H20.6866V36.9517ZM22.4874 33.6507H17.3848V38.7533H22.4874V33.6507Z" fill="white"/>
<path d="M23.4928 29.1669L20.4609 26.135L21.6317 24.9643L24.6635 27.9961L23.4928 29.1669Z" fill="white"/>
<path d="M22.4384 34.8169L21.2676 33.6461L23.6671 31.2466L24.8378 32.4174L22.4384 34.8169Z" fill="white"/>
<path d="M20.6866 25.2463H19.1856V23.7452H20.6866V25.2463ZM22.4874 21.9444H17.3848V27.0471H22.4874V21.9444Z" fill="white"/>
</g>
</g>
<defs>
<clipPath id="clip0_6744_65198">
<rect width="72" height="31.1925" fill="white" transform="translate(12 17.1537)"/>
</clipPath>
</defs>
</svg>
