<svg width="96" height="65" viewBox="0 0 96 65" fill="none" xmlns="http://www.w3.org/2000/svg">
<rect width="96" height="64" transform="translate(0 0.75)" fill="white"/>
<g clip-path="url(#clip0_6744_65183)">
<g clip-path="url(#clip1_6744_65183)">
<path d="M38.7258 56.7105C38.6411 56.7105 38.5564 56.6822 38.4999 56.5975L35.8458 53.0964V56.654H35.2246V52.2493C35.2246 52.0799 35.3658 51.9387 35.5352 51.9387C35.6199 51.9387 35.7046 51.967 35.7893 52.0517L38.4434 55.5528V51.9952H39.0364V56.3717C39.0364 56.5693 38.8952 56.7105 38.7258 56.7105Z" fill="#1A1918"/>
<path d="M43.7513 56.7387C43.1584 56.7387 42.509 56.6257 41.916 56.3999L42.0572 55.8916C42.5937 56.061 43.1866 56.2022 43.7513 56.2022C44.5137 56.2022 44.909 55.9199 44.909 55.5528C44.909 55.214 44.5984 55.0163 43.5254 54.5363C42.4525 54.0281 42.029 53.7175 42.029 53.0681C42.029 52.2775 42.6219 51.9669 43.7795 51.9669C44.2595 51.9669 44.9937 52.0516 45.4172 52.1928L45.3325 52.701C44.8807 52.5881 44.2878 52.5034 43.8078 52.5034C42.989 52.5034 42.6784 52.6446 42.6784 53.0399C42.6784 53.4069 42.9325 53.5763 44.0619 54.1128C45.2478 54.6775 45.5584 54.9316 45.5584 55.5246C45.5301 56.3434 44.7678 56.7387 43.7513 56.7387Z" fill="#1A1918"/>
<path d="M48.4102 52.0234H49.0313V56.6823H48.4102V52.0234Z" fill="#1A1918"/>
<path d="M54.3675 54.5646H52.8145V56.1458H54.3675C54.9039 56.1458 55.2145 55.807 55.2145 55.3552C55.2145 54.9034 54.8757 54.5646 54.3675 54.5646ZM54.0569 52.5599H52.8145V54.0564H54.0569C54.5651 54.0564 54.9322 53.7458 54.9322 53.294C54.9322 52.814 54.6216 52.5599 54.0569 52.5599ZM54.3675 56.6823H52.5039C52.3345 56.6823 52.1934 56.5411 52.1934 56.3717V52.334C52.1934 52.1646 52.3345 52.0234 52.5039 52.0234H54.0569C55.0169 52.0234 55.5816 52.5034 55.5816 53.2376C55.5816 53.6329 55.3557 53.9999 54.9887 54.2258C55.5251 54.3952 55.8639 54.8187 55.8639 55.3552C55.8639 56.0893 55.2428 56.6823 54.3675 56.6823Z" fill="#1A1918"/>
<path d="M58.8868 56.6823C58.7174 56.6823 58.5762 56.5411 58.5762 56.3717V52.0234H59.1973V56.1176H61.6821V56.6823H58.8868Z" fill="#1A1918"/>
<path d="M65.9733 56.7387C64.7027 56.7387 63.9121 56.2587 63.9121 55.2987C63.9121 54.847 64.1662 54.4234 64.6745 54.1975C64.2792 53.9434 64.0815 53.5764 64.0815 53.2093C64.0815 52.334 64.7592 51.9387 66.0015 51.9387C66.4251 51.9387 67.018 51.9952 67.498 52.1081L67.4415 52.6164C66.9051 52.5317 66.4251 52.4752 65.9451 52.4752C65.1262 52.4752 64.7027 52.7011 64.7027 53.2375C64.7027 53.6611 65.098 53.9999 65.6345 53.9999H66.7074C66.8486 53.9999 66.9898 54.1128 66.9898 54.254C66.9898 54.3952 66.8768 54.5364 66.7074 54.5364H65.5498C64.9568 54.5364 64.5615 54.847 64.5615 55.2987C64.5615 55.9764 65.1827 56.174 65.9733 56.174C66.3968 56.174 66.9898 56.1175 67.4415 56.0046L67.5262 56.5128C67.0745 56.654 66.4815 56.7387 65.9733 56.7387Z" fill="#1A1918"/>
<path d="M30.5658 52.8987L31.667 55.6375L30.0011 54.3105L30.5658 52.8987ZM32.514 56.2869L30.8199 52.1646C30.7635 52.0516 30.6787 51.9952 30.5658 51.9952C30.4529 51.9952 30.3399 52.0516 30.2835 52.1646L28.4199 56.6822H29.0411L29.7752 54.8187L31.9776 56.6258C32.0623 56.7105 32.1187 56.7387 32.2035 56.7387C32.3729 56.7387 32.514 56.6258 32.514 56.4281C32.5423 56.3716 32.5423 56.3152 32.514 56.2869Z" fill="#1A1918"/>
<path d="M67.5544 28.2606C67.5544 39.0465 58.8297 47.7712 48.0438 47.7712C37.2579 47.7712 28.5332 39.0465 28.5332 28.2606C28.5332 17.4747 37.2579 8.75 48.0438 8.75C58.8014 8.75 67.5544 17.4747 67.5544 28.2606Z" fill="#1A1918"/>
<path d="M48.3545 20.6653L53.4086 33.117L45.785 27.1029L48.3545 20.6653ZM57.3333 35.997L49.5686 17.3053C49.3427 16.7688 48.8909 16.4865 48.3545 16.4865C47.818 16.4865 47.338 16.7688 47.1121 17.3053L38.6133 37.8041H41.5215L44.9098 29.3617L54.9898 37.4935C55.385 37.8323 55.6956 37.9735 56.0627 37.9735C56.825 37.9735 57.4745 37.4088 57.4745 36.59C57.4745 36.4488 57.418 36.2229 57.3333 35.997Z" fill="white"/>
</g>
</g>
<defs>
<clipPath id="clip0_6744_65183">
<rect width="72" height="48" fill="white" transform="translate(12 8.75)"/>
</clipPath>
<clipPath id="clip1_6744_65183">
<rect width="39.1059" height="48" fill="white" transform="translate(28.4473 8.75)"/>
</clipPath>
</defs>
</svg>
