<svg width="96" height="65" viewBox="0 0 96 65" fill="none" xmlns="http://www.w3.org/2000/svg">
<rect width="96" height="64" transform="translate(0 0.75)" fill="white"/>
<g clip-path="url(#clip0_6744_65228)">
<g clip-path="url(#clip1_6744_65228)">
<path d="M25.5664 51.3288V51.3006C25.5664 48.3077 27.8252 45.8512 31.0441 45.8512C33.0205 45.8512 34.2064 46.5006 35.1946 47.4888L33.7264 49.183C32.9076 48.4488 32.0888 47.9971 31.0441 47.9971C29.2652 47.9971 27.9946 49.4653 27.9946 51.2724V51.3006C27.9946 53.1077 29.237 54.6041 31.0441 54.6041C32.2582 54.6041 32.9923 54.1241 33.8111 53.3618L35.2793 54.8583C34.2064 56.0159 32.9923 56.75 30.9593 56.75C27.8817 56.75 25.5664 54.35 25.5664 51.3288ZM38.3288 46.0488H40.6441V50.2277H44.9076V46.0488H47.2229V56.5806H44.9076V52.3453H40.6441V56.5806H38.3288V46.0488ZM50.9499 46.0488H59.0252V48.1383H53.2935V50.3124H58.3476V52.4018H53.2935V54.6606H59.1099V56.75H50.9499V46.0488ZM62.4699 46.0488H70.4888V48.1665H64.7852V50.3971H69.8111V52.5147H64.7852V56.5806H62.4699V46.0488Z" fill="#435363"/>
<path d="M48.352 31.197C44.512 31.197 41.3778 28.0629 41.3778 24.2229C41.3778 20.3829 44.512 17.2488 48.352 17.2488C51.5143 17.2488 54.1967 19.3665 55.0437 22.2747H57.7543C56.8508 17.8982 52.9825 14.6229 48.352 14.6229C43.072 14.6229 38.752 18.9147 38.752 24.2229C38.752 29.5029 43.0437 33.8229 48.352 33.8229C52.9825 33.8229 56.8508 30.5194 57.7543 26.1712H55.0437C54.1967 29.0512 51.5143 31.197 48.352 31.197Z" fill="#435363"/>
<path d="M43.666 28.91C44.8801 30.1241 46.5178 30.8583 48.3531 30.8583V28.0912C47.3366 28.0912 46.3484 27.6959 45.6143 26.9618L43.666 28.91Z" fill="#435363"/>
<path d="M41.7168 24.2229C41.7168 25.1829 41.9144 26.0865 42.2815 26.9053L44.8227 25.7759C44.5968 25.2959 44.4839 24.7594 44.4839 24.2229C44.4839 22.0771 46.2062 20.3547 48.3521 20.3547V17.5876C44.6815 17.5876 41.7168 20.5524 41.7168 24.2229Z" fill="#F38B00"/>
<path d="M50.7519 18.0394L49.7637 20.6088C50.5825 20.9194 51.2601 21.5124 51.7119 22.2747H54.7331C54.1119 20.3265 52.6437 18.7735 50.7519 18.0394Z" fill="#435363"/>
<path d="M49.7637 27.837L50.7801 30.4347C52.6719 29.7006 54.1401 28.1194 54.7331 26.1711H51.7119C51.2601 26.9053 50.5825 27.4982 49.7637 27.837Z" fill="#F38B00"/>
<path d="M36.0695 27.95C36.013 27.8088 35.9848 27.6676 35.9566 27.4982V27.47C35.9283 27.3288 35.9001 27.1876 35.8436 27.0465C35.8154 26.9053 35.7871 26.7641 35.7589 26.5947C35.7589 26.5382 35.7307 26.4818 35.7307 26.4253C35.7024 26.3406 35.7024 26.2276 35.6742 26.1429C35.6742 26.0582 35.646 25.9735 35.646 25.8888C35.5613 25.3241 35.533 24.7594 35.533 24.1947H32.8789C32.8789 24.8159 32.9071 25.4371 32.9918 26.0582V26.0865C33.0201 26.2559 33.0483 26.4253 33.0483 26.5947C33.0483 26.6512 33.0766 26.6794 33.0766 26.7359C33.1048 26.8771 33.133 27.0182 33.1613 27.1312C33.1613 27.2159 33.1895 27.2723 33.2177 27.3571C33.246 27.47 33.2742 27.5829 33.2742 27.6676C33.3024 27.7523 33.3307 27.8653 33.3307 27.95C33.3589 28.0347 33.3589 28.1194 33.3871 28.2041C33.4154 28.3171 33.4436 28.43 33.4718 28.5429C33.4718 28.5994 33.5001 28.6276 33.5001 28.6841C33.6695 29.2771 33.8954 29.87 34.1495 30.4347L36.5495 29.39C36.3801 28.91 36.2107 28.43 36.0695 27.95Z" fill="#435363"/>
<path d="M48.3521 37.07C44.8227 37.07 41.6038 35.63 39.2603 33.3147L37.3968 35.1782C40.1921 37.9735 44.0603 39.7241 48.3238 39.7241C56.2015 39.7241 62.7238 33.8229 63.6838 26.1712H61.0297C60.1262 32.3265 54.7897 37.07 48.3521 37.07ZM48.3521 11.3759C51.2321 11.3759 53.8862 12.3359 56.0321 13.9453L57.6132 11.8276C55.0156 9.87941 51.825 8.75 48.3521 8.75C41.8015 8.75 36.1827 12.8441 33.9238 18.6041L36.3803 19.5641C38.2438 14.7641 42.9027 11.3759 48.3521 11.3759Z" fill="#F38B00"/>
<path d="M61.059 22.3029H63.7131C63.4308 20.0723 62.6684 17.9547 61.4825 16.0347L59.252 17.4182C60.1837 18.9147 60.8049 20.5523 61.059 22.3029Z" fill="#435363"/>
<path d="M58.0654 22.3029H60.7196C60.0137 17.8418 56.9643 14.1712 52.8702 12.5618L51.9102 14.99C55.0443 16.2041 57.416 18.9429 58.0654 22.3029Z" fill="#F38B00"/>
<path d="M48.3526 14.3124V11.6865C43.0443 11.6865 38.4985 14.9901 36.6914 19.6771L39.1196 20.6371C40.5596 16.9383 44.1455 14.3124 48.3526 14.3124Z" fill="#435363"/>
<path d="M38.4423 24.2229H35.8164C35.8164 29.4747 39.0917 33.9923 43.6941 35.8558L44.6541 33.4276C41.0399 31.9594 38.4423 28.3735 38.4423 24.2229Z" fill="#F38B00"/>
<path d="M48.3516 34.1335V36.7594C54.5916 36.7594 59.7869 32.157 60.7186 26.1711H58.0645C57.161 30.6888 53.1516 34.1335 48.3516 34.1335Z" fill="#435363"/>
</g>
</g>
<defs>
<clipPath id="clip0_6744_65228">
<rect width="72" height="48" fill="white" transform="translate(12 8.75)"/>
</clipPath>
<clipPath id="clip1_6744_65228">
<rect width="44.9224" height="48" fill="white" transform="translate(25.5391 8.75)"/>
</clipPath>
</defs>
</svg>
