<svg width="96" height="65" viewBox="0 0 96 65" fill="none" xmlns="http://www.w3.org/2000/svg">
<rect width="96" height="64" transform="translate(0 0.809937)" fill="white"/>
<path d="M66.3808 26.2004V25.2602C66.3808 25.1286 66.4748 25.0157 66.6065 25.0157H66.6253H70.875C71.0066 25.0157 71.1194 25.1098 71.1194 25.2414C71.1194 25.2414 71.1194 25.2414 71.1194 25.2602V26.0688C71.1194 26.2004 71.0066 26.3884 70.7997 26.6705L68.5997 29.8107C69.4459 29.7543 70.2732 29.9424 71.0254 30.3372C71.157 30.4125 71.251 30.5629 71.251 30.7133V31.7287C71.251 31.8604 71.1006 32.0296 70.9314 31.9544C69.5211 31.221 67.8475 31.221 66.4372 31.9544C66.2868 32.0296 66.1364 31.8792 66.1364 31.7287V30.7697C66.1176 30.5441 66.174 30.3184 66.2868 30.1116L68.8253 26.4636H66.6065C66.4936 26.4448 66.3996 26.3508 66.3808 26.2004Z" fill="#201C1D"/>
<path d="M50.9059 32.1237H49.6085C49.4956 32.1237 49.3828 32.0297 49.3828 31.898V25.2791C49.3828 25.1474 49.4956 25.0346 49.6273 25.0346H50.8307C50.9623 25.0346 51.0564 25.1286 51.0752 25.2603V26.1252H51.094C51.4136 25.2791 51.9965 24.903 52.7863 24.903C53.5761 24.903 54.1026 25.2979 54.4599 26.1252C54.8359 25.1474 55.9266 24.6397 56.9232 25.0158C57.2428 25.1474 57.5249 25.3543 57.7505 25.6175C58.1642 26.1817 58.0702 26.9902 58.0702 27.686V31.8792C58.0702 32.0109 57.9574 32.1237 57.8257 32.1237H56.5283C56.3967 32.1237 56.3026 32.0109 56.3026 31.8792V28.3629C56.3214 27.9492 56.3026 27.5355 56.265 27.1219C56.171 26.6706 55.8889 26.5577 55.5129 26.5577C55.1744 26.5765 54.8735 26.7834 54.7419 27.103C54.6103 27.4415 54.6291 28.0056 54.6291 28.3817V31.898C54.6291 32.0297 54.5163 32.1425 54.3846 32.1425H53.0872C52.9555 32.1425 52.8615 32.0297 52.8615 31.898V28.3629C52.8615 27.6296 52.9744 26.5389 52.0718 26.5389C51.1692 26.5389 51.188 27.5919 51.188 28.3629V31.8792C51.1504 32.0109 51.0376 32.1237 50.9059 32.1237Z" fill="#201C1D"/>
<path d="M74.7681 24.903C76.6861 24.903 77.7203 26.5577 77.7203 28.6449C77.7203 30.6757 76.5733 32.2741 74.7681 32.2741C72.8877 32.2741 71.8535 30.6193 71.8535 28.5697C71.8535 26.5201 72.9065 24.903 74.7681 24.903ZM74.7869 26.2568C73.8279 26.2568 73.7715 27.5543 73.7715 28.3629C73.7715 29.1714 73.7527 30.9014 74.7681 30.9014C75.7835 30.9014 75.8211 29.5099 75.8211 28.6637C75.8399 28.0808 75.7835 27.4791 75.6331 26.8962C75.5579 26.5013 75.1818 26.2192 74.7869 26.2568Z" fill="#201C1D"/>
<path d="M80.2016 32.1237H78.9229C78.7913 32.1237 78.6973 32.0108 78.6973 31.8792V25.2603C78.7161 25.1286 78.8289 25.0346 78.9417 25.0346H80.1452C80.258 25.0346 80.352 25.1098 80.3708 25.2226V26.2381H80.3896C80.7469 25.3355 81.2546 24.903 82.1572 24.903C82.7589 24.8842 83.3418 25.1662 83.6615 25.6927C84 26.2193 84 27.1218 84 27.7612V31.9168C83.9811 32.0296 83.8683 32.1237 83.7555 32.1237H82.458C82.3452 32.1237 82.2512 32.0296 82.2324 31.9168V28.3065C82.2324 27.5919 82.3076 26.5201 81.4238 26.5201C81.0854 26.5389 80.8033 26.7458 80.6717 27.0466C80.5212 27.4415 80.446 27.874 80.4648 28.3065V31.8792C80.446 32.0296 80.352 32.1237 80.2016 32.1237Z" fill="#201C1D"/>
<path d="M48.367 30.9014C48.1225 30.5817 47.8781 30.2997 47.8781 29.698V27.7047C47.8781 26.8586 47.9345 26.0688 47.314 25.4859C46.8251 25.0158 45.9977 24.8466 45.3584 24.8466C44.1361 24.8466 42.7634 25.2979 42.4626 26.821C42.4438 26.9526 42.519 27.0654 42.6506 27.0842L43.9105 27.2158C44.0233 27.197 44.1173 27.103 44.1361 26.9714C44.2489 26.4449 44.6814 26.2004 45.1703 26.2004C45.4524 26.1816 45.7156 26.3133 45.9037 26.5389C46.0917 26.8022 46.0541 27.1594 46.0541 27.4791V27.6483C45.302 27.7424 44.3242 27.78 43.6284 28.0996C42.7634 28.4381 42.2181 29.2843 42.2557 30.2057C42.2557 31.5407 43.1019 32.2177 44.1925 32.2177C45.1139 32.2177 45.6216 31.992 46.3174 31.2775C46.5054 31.6159 46.7499 31.898 47.0507 32.1425C47.1447 32.1989 47.2764 32.1801 47.3516 32.1048C47.6148 31.8792 48.0849 31.4655 48.3482 31.2399C48.461 31.1647 48.461 31.0142 48.367 30.9014ZM45.8285 30.3185C45.6592 30.657 45.3208 30.8826 44.9259 30.9014C44.437 30.9014 44.1361 30.5253 44.1361 29.9612C44.1361 28.8706 45.1327 28.6637 46.0541 28.6637V28.9458C46.0729 29.4535 46.0917 29.886 45.8285 30.3185Z" fill="#201C1D"/>
<path d="M65.3083 30.9014C65.0639 30.5817 64.8194 30.2997 64.8194 29.698V27.7047C64.8194 26.8586 64.8759 26.0688 64.2553 25.4859C63.7664 25.0158 62.9391 24.8466 62.2997 24.8466C61.0775 24.8466 59.7048 25.2979 59.4039 26.821C59.3851 26.9526 59.4603 27.0654 59.5732 27.0842C59.5732 27.0842 59.5732 27.0842 59.592 27.0842L60.8518 27.2158C60.9646 27.197 61.0587 27.103 61.0775 26.9714C61.1903 26.4449 61.6228 26.2004 62.1117 26.2004C62.3937 26.1816 62.657 26.3133 62.845 26.5389C63.0331 26.8022 62.9955 27.1594 62.9955 27.4791V27.6483C62.2433 27.7424 61.2655 27.78 60.5698 28.0996C59.7236 28.4381 59.1595 29.2843 59.1971 30.2057C59.1971 31.5407 60.0433 32.2177 61.1339 32.2177C62.0553 32.2177 62.5442 31.992 63.2587 31.2775C63.4468 31.6159 63.6912 31.898 63.9921 32.1425C64.0861 32.1989 64.2177 32.1801 64.2929 32.1048C64.5562 31.8792 65.0263 31.4655 65.2895 31.2399C65.3836 31.1647 65.4024 31.0142 65.3083 30.9014ZM62.751 30.3185C62.5818 30.657 62.2433 30.8826 61.8484 30.9014C61.3595 30.9014 61.0587 30.5253 61.0587 29.9612C61.0587 28.8706 62.0553 28.6637 62.9767 28.6637V28.9458C62.9955 29.4535 63.0143 29.886 62.751 30.3185Z" fill="#201C1D"/>
<path d="M27.6258 46.2266C25.1813 46.2266 22.7744 46.2454 20.3299 46.2454C20.2547 46.2454 20.1983 46.2266 20.123 46.189C20.123 46.1701 20.123 46.1325 20.123 46.0761C20.2547 45.9445 20.1983 45.7565 20.1983 45.5872C20.1983 37.0691 20.1983 28.5321 20.1983 20.014C20.1983 19.8447 20.2547 19.6943 20.123 19.5251C20.123 19.5063 20.123 19.4687 20.123 19.4122C20.1983 19.3934 20.2923 19.3558 20.3863 19.3558C22.718 19.3558 25.0497 19.3558 27.3813 19.3558C27.4566 19.3558 27.5506 19.3746 27.5882 19.3746C27.5882 19.5627 27.607 19.7695 27.607 19.9576C27.607 26.5577 27.607 33.1767 27.607 39.7768C27.607 41.9769 27.607 44.1017 27.6258 46.2266Z" fill="#2D72B7"/>
<path d="M27.6262 46.2266C27.6262 44.1017 27.6262 41.9957 27.6262 39.8709C27.6262 33.2707 27.6262 26.6518 27.6262 20.0516C27.6262 19.8636 27.6262 19.6567 27.6074 19.4687C27.7202 19.4123 27.7767 19.4687 27.8519 19.5251C29.4878 20.3525 31.1425 21.161 32.7785 21.9884C32.8913 22.0448 33.0229 22.1012 33.0982 22.2328C32.9665 22.3645 33.0229 22.5525 33.0229 22.7217C33.0229 29.5099 33.0229 36.2605 33.0229 43.0487C33.0229 43.218 32.9665 43.3684 33.0982 43.5376C33.0417 43.6693 32.9289 43.7069 32.8349 43.7445C31.2178 44.553 29.5818 45.3616 27.9835 46.189C27.8519 46.1702 27.739 46.2454 27.6262 46.2266Z" fill="#5294CE"/>
<path d="M20.123 46.1137C20.123 46.1325 20.123 46.1701 20.123 46.2265C20.0102 46.2453 19.9538 46.2077 19.8786 46.1513C18.2614 45.3427 16.6255 44.5342 15.0272 43.7068C14.9519 43.688 14.8955 43.594 14.8203 43.5376C14.8203 36.4109 14.8203 29.2842 14.8203 22.1388C15.1776 21.8379 15.5913 21.7063 16.005 21.4994C17.246 20.8789 18.5059 20.2396 19.7281 19.6191C19.8597 19.5626 19.9726 19.431 20.123 19.4498C20.123 19.4686 20.123 19.5062 20.123 19.5626C20.123 28.4193 20.123 37.2571 20.123 46.1137Z" fill="#205B98"/>
<path d="M14.783 22.1388C14.783 29.2655 14.783 36.3921 14.783 43.5376C13.8992 42.5222 13.0154 41.5068 12.1316 40.4726C12.0188 40.3409 12 40.1717 12 40.0213C12 35.2263 12 30.4501 12 25.6551C12 25.4859 12 25.3355 12.1316 25.2038C13.0154 24.1884 13.8992 23.1542 14.783 22.1388Z" fill="#1C4870"/>
<path d="M33.097 43.4812C32.9654 43.3495 33.0218 43.1615 33.0218 42.9923C33.0218 36.2041 33.0218 29.4535 33.0218 22.6653C33.0218 22.4961 32.9654 22.3456 33.097 22.1764C33.962 23.173 34.8081 24.1696 35.6731 25.1474C35.8048 25.3166 35.8424 25.4671 35.8424 25.6551C35.8424 30.4313 35.8424 35.2263 35.8424 40.0025C35.8424 40.2093 35.786 40.3785 35.6543 40.5478C34.7893 41.5256 33.9244 42.4846 33.097 43.4812Z" fill="#2D72B7"/>
<path d="M20.123 46.1138C20.123 37.276 20.123 28.4194 20.123 19.6003C20.2547 19.732 20.1983 19.92 20.1983 20.0892C20.1983 28.6074 20.1983 37.1443 20.1983 45.6625C20.1983 45.7941 20.2547 45.9822 20.123 46.1138Z" fill="#5294CE"/>
<path d="M42.2559 42.5974V34.5305H45.1893C45.8098 34.5305 46.2611 34.6057 46.5431 34.7562C46.8252 34.9066 47.0697 35.151 47.2577 35.5083C47.4457 35.8656 47.5397 36.2605 47.5397 36.7306C47.5397 37.3323 47.3893 37.84 47.0697 38.2161C46.75 38.5922 46.2987 38.8366 45.6782 38.9306C45.9226 39.0811 46.1107 39.2315 46.2423 39.3819C46.5055 39.6828 46.7312 40.0401 46.938 40.4161L48.0851 42.6162H46.9756L46.0918 40.9426C45.7534 40.2845 45.4901 39.852 45.3209 39.6264C45.1517 39.4007 44.9824 39.2503 44.8132 39.1751C44.644 39.0999 44.4183 39.0623 44.1362 39.0623H43.1208V42.635H42.2559V42.5974ZM43.1208 38.0844H45.0012C45.4149 38.0844 45.7158 38.028 45.9414 37.934C46.1483 37.84 46.3175 37.6708 46.4491 37.4639C46.5807 37.2571 46.6372 37.0126 46.6372 36.7306C46.6372 36.3169 46.5243 35.9972 46.2799 35.7716C46.0354 35.5459 45.697 35.4143 45.2269 35.4143H43.1396V38.0844H43.1208Z" fill="#201C1D"/>
<path d="M48.8945 42.5974V34.5305H51.1698C51.7339 34.5305 52.1664 34.5869 52.4485 34.6809C52.8245 34.8126 53.163 35.0382 53.4451 35.3767C53.7271 35.7152 53.9528 36.1477 54.1032 36.6742C54.2536 37.2007 54.3477 37.8024 54.3477 38.5169C54.3477 39.4383 54.216 40.2093 53.9528 40.8298C53.6895 41.4691 53.351 41.9204 52.9186 42.1837C52.5049 42.4469 51.9596 42.5786 51.2638 42.5786H48.8945V42.5974ZM49.7783 41.6384H51.1886C51.7527 41.6384 52.1852 41.5444 52.4861 41.3563C52.7869 41.1683 53.0126 40.8674 53.163 40.4725C53.3699 39.9272 53.4827 39.2691 53.4827 38.5169C53.4827 37.7084 53.3699 37.0502 53.1442 36.5989C52.9186 36.1288 52.6365 35.828 52.298 35.6587C52.0724 35.5459 51.6963 35.5083 51.1886 35.5083H49.7971V41.6384H49.7783Z" fill="#201C1D"/>
<path d="M55.2871 40.0025L56.1145 39.9085C56.1521 40.3598 56.2649 40.6982 56.4153 40.9427C56.5658 41.1871 56.7914 41.394 57.0923 41.5444C57.3743 41.6948 57.7128 41.77 58.0701 41.77C58.5966 41.77 58.9915 41.6384 59.2735 41.394C59.5556 41.1307 59.706 40.811 59.706 40.3974C59.706 40.1529 59.6496 39.9461 59.5556 39.7768C59.4428 39.6076 59.2923 39.4572 59.0855 39.3443C58.8786 39.2315 58.4274 39.0623 57.7128 38.8554C57.0923 38.6674 56.641 38.4794 56.3777 38.2913C56.1145 38.1033 55.9076 37.8588 55.7572 37.5768C55.6068 37.2947 55.5316 36.9563 55.5316 36.599C55.5316 35.9408 55.7384 35.4143 56.1709 35.0007C56.5846 34.587 57.1675 34.3801 57.882 34.3801C58.3709 34.3801 58.8034 34.4741 59.1795 34.6622C59.5556 34.8502 59.8376 35.1323 60.0445 35.4896C60.2513 35.8468 60.3642 36.2793 60.3642 36.7682L59.518 36.8434C59.4804 36.3169 59.3111 35.922 59.0479 35.6776C58.7846 35.4331 58.4086 35.3015 57.9197 35.3015C57.4308 35.3015 57.0547 35.4143 56.7914 35.64C56.5282 35.8656 56.3965 36.1477 56.3965 36.505C56.3965 36.8246 56.4906 37.0879 56.6786 37.2571C56.8666 37.4452 57.2991 37.6144 57.9573 37.8024C58.6154 37.9905 59.0667 38.1409 59.3299 38.2725C59.7248 38.4794 60.0445 38.7426 60.2513 39.0811C60.4582 39.4196 60.5522 39.8144 60.5522 40.2845C60.5522 40.7546 60.4394 41.1683 60.2325 41.5444C60.0257 41.9205 59.7248 42.2025 59.3487 42.4094C58.9727 42.6162 58.5214 42.7102 58.0137 42.7102C57.2051 42.7102 56.547 42.4658 56.0581 41.9769C55.5504 41.5068 55.3059 40.8299 55.2871 40.0025Z" fill="#201C1D"/>
</svg>
