<svg width="96" height="65" viewBox="0 0 96 65" fill="none" xmlns="http://www.w3.org/2000/svg">
<rect width="96" height="64" transform="translate(0 0.809937)" fill="white"/>
<g clip-path="url(#clip0_6744_65939)">
<path d="M83.9193 31.9324C83.8741 32.0036 83.8098 32.0607 83.7337 32.0971C83.6577 32.1335 83.5729 32.1477 83.4891 32.1381C83.1617 32.1303 82.8344 32.1381 82.5055 32.1381C82.1766 32.1381 82.1236 32.0602 82.1236 31.7609C82.1236 30.3997 82.1236 29.0384 82.1236 27.6771C82.1223 27.4298 82.0823 27.1842 82.0052 26.9492C81.9748 26.8222 81.9045 26.7082 81.8047 26.6241C81.7048 26.5399 81.5806 26.49 81.4503 26.4816C81.309 26.4653 81.1662 26.4928 81.0411 26.5603C80.916 26.6277 80.8145 26.7319 80.7504 26.8588C80.56 27.2058 80.4623 27.5961 80.4667 27.992C80.4589 29.2389 80.4667 30.4859 80.4667 31.7329C80.4667 32.029 80.395 32.1007 80.0989 32.1007C79.7263 32.1007 79.3538 32.1007 78.9797 32.1007C78.7646 32.1007 78.668 32.0056 78.668 31.789C78.668 29.6068 78.668 27.421 78.668 25.2315C78.668 25.0086 78.763 24.9197 78.9891 24.9197C79.3393 24.9197 79.6894 24.9197 80.0396 24.9197C80.275 24.9197 80.3607 25.0101 80.3623 25.2471C80.3638 25.484 80.3623 25.7147 80.3623 25.9688C80.4402 25.8805 80.502 25.7792 80.5447 25.6695C80.6405 25.4685 80.7785 25.2905 80.9493 25.1477C81.1201 25.0049 81.3197 24.9005 81.5344 24.8418C82.6676 24.5597 83.6574 25.1239 83.8242 26.2743C83.8667 26.5009 83.8887 26.731 83.8897 26.9617C83.8897 27.0053 83.8897 27.0536 83.9224 27.0879L83.9193 31.9324Z" fill="#201C1D"/>
<path d="M51.5154 25.7927C51.902 25.1193 52.4351 24.7577 53.23 24.7686C54.0249 24.7795 54.5019 25.2362 54.8355 25.9392C54.9134 25.8098 54.9742 25.6991 55.0428 25.5931C55.1956 25.3664 55.3963 25.176 55.6307 25.0352C55.8651 24.8945 56.1276 24.8068 56.3995 24.7784C56.6715 24.75 56.9463 24.7816 57.2047 24.8709C57.4632 24.9603 57.6989 25.1052 57.8952 25.2954C58.1766 25.5751 58.3434 25.9498 58.3628 26.346C58.4439 27.2578 58.3862 28.1728 58.3956 29.0862C58.4049 29.9996 58.3956 30.8818 58.3956 31.7797C58.3956 32.0228 58.3254 32.0914 58.0838 32.0914H56.8977C56.7028 32.0914 56.5999 31.9994 56.5984 31.8093C56.5984 30.5717 56.5906 29.3356 56.5984 28.098C56.6063 27.7458 56.5938 27.3935 56.561 27.0427C56.5127 26.5876 56.1167 26.3787 55.7006 26.4878C55.5354 26.5284 55.3866 26.6183 55.2738 26.7455C55.161 26.8728 55.0897 27.0314 55.0693 27.2002C55.0185 27.4594 54.9945 27.7232 54.9976 27.9873C54.9976 29.2343 54.9976 30.4719 54.9976 31.7142C54.9976 32.0259 54.9274 32.0898 54.6204 32.0898H53.5527C53.2799 32.0898 53.2004 32.0119 53.2004 31.7407C53.2004 30.447 53.2004 29.1538 53.2004 27.8611C53.2215 27.5863 53.2048 27.3098 53.1505 27.0396C53.1199 26.8922 53.0428 26.7585 52.9306 26.658C52.8184 26.5576 52.6769 26.4958 52.527 26.4816C52.3612 26.465 52.1946 26.504 52.0534 26.5927C51.9123 26.6813 51.8047 26.8144 51.7477 26.971C51.6686 27.193 51.625 27.426 51.6183 27.6615C51.5482 29.055 51.6074 30.4485 51.5871 31.842C51.5871 32.0369 51.5217 32.1039 51.3221 32.1054C50.9262 32.1054 50.5319 32.1054 50.136 32.1054C49.8897 32.1054 49.8242 32.0415 49.8242 31.7937C49.8242 30.4553 49.8242 29.1169 49.8242 27.7785C49.8242 26.9316 49.8242 26.0841 49.8242 25.2362C49.8242 24.9681 49.8757 24.9245 50.136 24.9245H51.2271C51.4484 24.9245 51.5232 24.9993 51.5248 25.2159C51.5263 25.4326 51.5154 25.6025 51.5154 25.7927Z" fill="#201C1D"/>
<path d="M65.04 28.3879C65.04 28.8399 65.0493 29.2125 65.04 29.585C65.0312 30.0165 65.1873 30.4352 65.4764 30.7556C65.5112 30.7864 65.5383 30.825 65.5554 30.8682C65.5725 30.9114 65.5792 30.9581 65.575 31.0044C65.5707 31.0506 65.5556 31.0953 65.5309 31.1346C65.5062 31.174 65.4726 31.207 65.4328 31.231C65.1772 31.4508 64.9246 31.6752 64.6799 31.9075C64.3947 32.1803 64.2965 32.1834 64.0112 31.9075C63.8474 31.7609 63.7038 31.5931 63.5842 31.4087C63.5171 31.2934 63.4626 31.2824 63.3737 31.3853C62.9358 31.8544 62.3328 32.135 61.6919 32.1678C61.3319 32.2 60.9692 32.1587 60.6257 32.0462C60.338 31.9431 60.0836 31.7638 59.8898 31.5274C59.696 31.2911 59.57 31.0065 59.5253 30.7042C59.4032 30.1872 59.4457 29.6449 59.6468 29.1532C59.7732 28.8541 59.9647 28.587 60.2074 28.3712C60.45 28.1555 60.7378 27.9967 61.0497 27.9063C61.5982 27.7437 62.16 27.6295 62.7284 27.5649C62.858 27.5685 62.9876 27.5581 63.115 27.5337C63.1773 27.5119 63.2101 27.4901 63.2132 27.4215C63.2297 27.1509 63.2002 26.8795 63.1259 26.6188C62.9872 26.1855 62.4806 26.0608 62.1813 26.1122C61.976 26.1404 61.7846 26.2323 61.6342 26.3749C61.4838 26.5174 61.3819 26.7036 61.3427 26.9071C61.2897 27.1129 61.1962 27.1612 60.9858 27.1316C60.6585 27.0848 60.3296 27.0459 59.9991 27.0194C59.7451 26.9991 59.6344 26.8791 59.6874 26.6359C59.7555 26.2628 59.9188 25.9136 60.1616 25.6222C60.4044 25.3308 60.7184 25.1071 61.0731 24.9728C61.8893 24.623 62.8069 24.5918 63.6449 24.8855C64.5506 25.2144 64.9558 25.735 65.0057 26.7762C65.0384 27.3405 65.0306 27.9032 65.04 28.3879ZM63.2085 29.0987C63.2085 28.974 63.2085 28.8509 63.2085 28.7262C63.2085 28.6358 63.1633 28.5952 63.0838 28.6139C62.8859 28.6622 62.6817 28.6326 62.4821 28.6778C62.1595 28.7511 61.8415 28.8446 61.628 29.1065C61.4834 29.2802 61.3898 29.4906 61.3576 29.7143C61.3254 29.938 61.3558 30.1663 61.4456 30.3737C61.4891 30.4953 61.5644 30.603 61.6638 30.6855C62.0753 31.0253 62.6178 30.7696 62.836 30.4704C63.1098 30.0675 63.2409 29.5847 63.2085 29.0987Z" fill="#201C1D"/>
<path d="M48.3298 28.1229C48.3298 28.5905 48.3298 29.0581 48.3298 29.5257C48.3231 29.9755 48.4862 30.4113 48.7865 30.7462C48.8172 30.7754 48.8413 30.8107 48.8574 30.8499C48.8736 30.889 48.8813 30.9311 48.8801 30.9734C48.8789 31.0158 48.8689 31.0574 48.8506 31.0955C48.8323 31.1337 48.8063 31.1677 48.7741 31.1951C48.4623 31.4798 48.148 31.7604 47.831 32.0368C47.7786 32.0842 47.7098 32.1094 47.6391 32.1071C47.5685 32.1048 47.5015 32.0751 47.4523 32.0244C47.2279 31.8368 47.033 31.6166 46.874 31.3713C46.8257 31.3058 46.8038 31.259 46.7181 31.3479C46.3247 31.7966 45.7786 32.0832 45.1859 32.1522C44.5063 32.2254 43.8376 32.1756 43.3154 31.6456C43.0183 31.3269 42.8357 30.9183 42.7964 30.4843C42.7417 30.1282 42.7651 29.7644 42.865 29.4182C42.9615 29.0549 43.1519 28.7234 43.417 28.4569C43.6821 28.1905 44.0126 27.9984 44.3754 27.9C44.9191 27.7402 45.4755 27.627 46.0385 27.5618C46.168 27.5645 46.2975 27.5546 46.4251 27.5321C46.4968 27.5088 46.5279 27.4807 46.5279 27.4059C46.537 27.1473 46.5103 26.8887 46.4485 26.6374C46.33 26.2104 45.825 26.0498 45.5039 26.1106C45.0487 26.1963 44.7432 26.452 44.6591 26.9305C44.6533 26.9653 44.6405 26.9985 44.6216 27.0282C44.6026 27.0579 44.5778 27.0835 44.5486 27.1033C44.5195 27.1231 44.4866 27.1368 44.452 27.1435C44.4174 27.1503 44.3818 27.1499 44.3473 27.1425C44.0028 27.0957 43.6584 27.0505 43.3139 27.0147C43.0551 26.9882 42.9694 26.8759 43.0302 26.6219C43.2827 25.5541 43.9966 24.9837 45.0347 24.781C45.608 24.6487 46.2051 24.6605 46.7727 24.8153C47.3057 24.9712 47.8014 25.2159 48.0867 25.7396C48.2394 26.0279 48.3207 26.3486 48.3236 26.6749C48.3392 27.1627 48.3298 27.6428 48.3298 28.1229ZM44.7058 29.9014C44.686 30.0941 44.724 30.2884 44.8149 30.4594C44.8761 30.584 44.9733 30.6874 45.0939 30.756C45.2145 30.8247 45.353 30.8555 45.4914 30.8444C45.6656 30.8249 45.8317 30.7608 45.974 30.6585C46.1162 30.5561 46.2297 30.4188 46.3035 30.2599C46.517 29.7699 46.5961 29.2319 46.5326 28.7012C46.5326 28.6217 46.475 28.6061 46.4157 28.617C46.154 28.6376 45.8937 28.6741 45.6364 28.7261C45.0331 28.9007 44.6762 29.2421 44.7058 29.9014Z" fill="#201C1D"/>
<path d="M71.9535 28.5609C71.9364 27.663 72.0829 26.8696 72.496 26.1402C72.909 25.4107 73.5091 24.9337 74.3571 24.8121C75.0054 24.6952 75.6741 24.8182 76.2384 25.1582C76.7527 25.4884 77.1494 25.9729 77.3716 26.5423C77.6749 27.2785 77.8019 28.0754 77.7426 28.8695C77.7206 29.6653 77.4677 30.4375 77.0147 31.0922C76.7779 31.4432 76.4588 31.7308 76.0851 31.93C75.7115 32.1292 75.2948 32.2338 74.8714 32.2347C74.5019 32.2526 74.1331 32.1886 73.7911 32.0475C73.4492 31.9063 73.1427 31.6913 72.8934 31.418C72.4545 30.9226 72.1648 30.313 72.058 29.6597C71.9764 29.2994 71.9413 28.9301 71.9535 28.5609ZM74.9618 30.8475C75.0611 30.8348 75.1564 30.8002 75.2407 30.7463C75.3251 30.6924 75.3964 30.6205 75.4497 30.5357C75.7412 30.1383 75.7926 29.6722 75.8098 29.2077C75.8392 28.7875 75.8429 28.3658 75.8207 27.9452C75.7973 27.5364 75.7272 27.1316 75.6118 26.7387C75.4793 26.3319 75.1442 26.1885 74.7576 26.1838C74.4459 26.1838 74.2557 26.3724 74.1155 26.6312C73.934 27.0129 73.8454 27.4322 73.8567 27.8548C73.8237 28.4229 73.8451 28.9928 73.9206 29.5569C73.9559 29.8637 74.0479 30.1612 74.1918 30.4344C74.3368 30.6916 74.541 30.8537 74.9618 30.8475Z" fill="#201C1D"/>
<path d="M68.9046 26.374H66.8674C66.6538 26.374 66.5759 26.3304 66.5556 26.1262C66.5166 25.7849 66.5166 25.4403 66.5556 25.099C66.579 24.9338 66.6803 24.8839 66.8253 24.8839H70.8421C71.1382 24.8839 71.2099 24.9556 71.2099 25.2502C71.2099 25.4061 71.199 25.562 71.2099 25.7069C71.2267 26.0068 71.1317 26.3022 70.9434 26.5361C70.496 27.169 70.0643 27.8127 69.6278 28.4518L68.8594 29.5788C68.8344 29.6146 68.7846 29.6473 68.8048 29.6957C68.8251 29.744 68.8937 29.7299 68.9404 29.7284C69.6799 29.7146 70.4108 29.8883 71.065 30.2334C71.1509 30.2695 71.2237 30.3312 71.2734 30.4101C71.323 30.4891 71.3471 30.5814 71.3424 30.6745C71.3424 30.9956 71.3424 31.3183 71.3424 31.6394C71.3424 31.8825 71.1865 31.9838 70.9636 31.8778C70.4923 31.6409 69.9861 31.4809 69.4642 31.404C68.6531 31.2877 67.8256 31.3916 67.0684 31.7048C66.9126 31.7703 66.7567 31.8482 66.5883 31.909C66.5583 31.921 66.5259 31.9258 66.4937 31.9232C66.4615 31.9207 66.4304 31.9107 66.4026 31.8941C66.3749 31.8775 66.3513 31.8548 66.3338 31.8276C66.3163 31.8005 66.3052 31.7697 66.3015 31.7376C66.3015 31.2871 66.2548 30.8351 66.3296 30.3877C66.3856 30.169 66.4888 29.9652 66.632 29.7907C67.3594 28.7111 68.0868 27.6324 68.8142 26.5548C68.8582 26.5026 68.8891 26.4406 68.9046 26.374Z" fill="#201C1D"/>
<path d="M28.4324 47.147H28.7816L34.4755 44.2992L34.5706 44.1651V21.4454L34.4755 21.3113L28.7816 18.4667H28.4277V47.147" fill="#5294CF"/>
<path d="M21.0228 47.147H20.6705L14.9812 44.2992L14.8659 44.1012L14.8066 21.5623L14.9812 21.3113L20.6705 18.4667H21.029V47.147" fill="#1F5B98"/>
<path d="M20.6797 18.4667H28.7756V47.147H20.6797V18.4667Z" fill="#2D72B8"/>
<path d="M37.4538 32.1646L37.262 32.1225L34.5156 31.8716L34.4751 31.8918L28.7764 31.6643H20.6789L14.9803 31.8872V27.5415V27.529L20.6789 26.2088H28.7749L34.4735 27.529L36.5684 28.6419V27.9296L37.4538 27.833L37.3618 27.6537L34.5561 25.6492L34.4704 25.6773L28.7749 23.9112H20.6789L14.9803 25.6773V21.3129L12 24.8028V27.8517L12.0234 27.8345L12.8853 27.928V28.6591L12 29.1329V32.1677H12.0234L12.8853 32.1833V33.4568L12.1418 33.4677L12 33.449V36.4838L12.8853 36.9592V37.698L12.0374 37.7947L12 37.7651V40.8139L14.9803 44.3054V39.941L20.6789 41.707H28.7749L34.4906 39.9364L34.567 39.9691L37.3337 37.9942L37.4553 37.7978L36.57 37.6996V36.9748L36.4546 36.928L34.5592 37.9506L34.4906 38.094L28.7749 39.4064H20.6789L14.9803 38.0877V33.7233L20.6789 33.9509H28.7749L34.4735 33.7186L34.6029 33.7779L37.2652 33.5488L37.4538 33.4568L36.5684 33.4443V32.1833L37.4538 32.1708" fill="#1A476F"/>
<path d="M34.4727 39.9411V44.3055L37.4529 40.814V37.7854L34.4914 39.9364H34.4742" fill="#2D72B8"/>
<path d="M34.4742 38.0971H34.4914L37.4529 36.5041V33.4506L34.4727 33.7249V38.0893" fill="#2D72B8"/>
<path d="M34.4898 27.5353H34.4727V31.8872L37.4529 32.1662V29.1189L34.4914 27.5353" fill="#2D72B8"/>
<path d="M34.4914 25.6944L37.4529 27.8329V24.8028L34.4727 21.3113V25.6757H34.4898V25.6866" fill="#2D72B8"/>
<path d="M43.2891 40.5177V34.7178H44.9631C47.1017 34.7178 48.1709 35.6603 48.1709 37.5453C48.1709 38.441 47.8743 39.1601 47.2809 39.7025C46.6876 40.245 45.89 40.5167 44.8883 40.5177H43.2891ZM44.2477 35.5299V39.701H45.0161C45.6926 39.701 46.2189 39.515 46.5951 39.143C46.9713 38.7709 47.1593 38.2451 47.1593 37.5655C47.1593 36.2095 46.4569 35.5314 45.052 35.5314L44.2477 35.5299Z" fill="#201C1D"/>
<path d="M52.7152 36.3762L50.8448 41.1817C50.4572 42.0411 49.9127 42.4708 49.2113 42.4708C49.045 42.4741 48.8789 42.4563 48.7172 42.4178V41.6384C48.8475 41.684 48.9843 41.7087 49.1224 41.7117C49.2891 41.713 49.4524 41.6645 49.5913 41.5723C49.7302 41.48 49.8383 41.3484 49.9018 41.1942L50.1808 40.5146L48.541 36.3762H49.5807L50.5673 39.3861C50.5777 39.4235 50.6022 39.5233 50.6406 39.6854H50.6562C50.6697 39.623 50.6941 39.5259 50.7294 39.3939L51.7644 36.3762H52.7152Z" fill="#201C1D"/>
<path d="M56.9579 40.5177H56.0226V38.1797C56.0226 37.4055 55.7488 37.0184 55.2012 37.0184C55.0667 37.0154 54.9333 37.0427 54.8108 37.0983C54.6882 37.1539 54.5798 37.2363 54.4935 37.3395C54.3033 37.5658 54.2038 37.8546 54.2145 38.15V40.5131H53.2793V36.3762H54.2145V37.0636H54.2301C54.3595 36.8217 54.5538 36.6206 54.7911 36.4829C55.0285 36.3453 55.2995 36.2765 55.5737 36.2843C55.7681 36.2719 55.9627 36.3052 56.1419 36.3815C56.3211 36.4578 56.4799 36.5751 56.6056 36.7238C56.8425 37.0169 56.961 37.4398 56.961 37.9926L56.9579 40.5177Z" fill="#201C1D"/>
<path d="M61.1735 40.5177H60.2632V39.8708H60.2476C60.1294 40.1008 59.9486 40.2927 59.726 40.4243C59.5035 40.5558 59.2482 40.6217 58.9897 40.6143C58.6393 40.6348 58.2951 40.5154 58.0327 40.2823C57.9167 40.1685 57.826 40.0315 57.7664 39.8803C57.7068 39.7292 57.6796 39.5671 57.6866 39.4048C57.6866 38.6223 58.1371 38.1666 59.038 38.0378L60.2679 37.8632C60.2679 37.273 59.9873 36.9779 59.4262 36.9779C58.9344 36.9763 58.4594 37.1561 58.0919 37.4829V36.6615C58.5516 36.3965 59.075 36.2623 59.6054 36.2733C60.6518 36.2733 61.175 36.7882 61.175 37.818L61.1735 40.5177ZM60.2679 38.4836L59.3981 38.6052C59.1823 38.6219 58.9736 38.6891 58.7886 38.8016C58.7156 38.8621 58.6588 38.9397 58.6232 39.0276C58.5875 39.1154 58.5742 39.2108 58.5844 39.305C58.5823 39.3862 58.5981 39.4668 58.6307 39.5412C58.6633 39.6156 58.7119 39.6818 58.7731 39.7352C58.9137 39.8527 59.0935 39.9128 59.2765 39.9036C59.4093 39.9067 59.5413 39.8814 59.6635 39.8296C59.7858 39.7777 59.8957 39.7004 59.9857 39.6027C60.1751 39.3962 60.2758 39.1237 60.2663 38.8436L60.2679 38.4836Z" fill="#201C1D"/>
<path d="M68.3721 40.5178H67.4369V38.2624C67.4369 37.828 67.3756 37.5162 67.2529 37.3271C67.1846 37.2272 67.0907 37.1474 66.981 37.0962C66.8714 37.0449 66.75 37.024 66.6295 37.0356C66.5029 37.0392 66.3793 37.0748 66.2703 37.1391C66.1612 37.2035 66.0703 37.2944 66.006 37.4035C65.8301 37.6635 65.7402 37.972 65.7488 38.2857V40.5272H64.8136V38.1891C64.8136 37.418 64.5413 37.0325 63.9968 37.0325C63.8719 37.0329 63.7492 37.065 63.6402 37.1258C63.5311 37.1866 63.4393 37.2741 63.3733 37.3801C63.1998 37.6481 63.1142 37.9636 63.1286 38.2826V40.524H62.1934V36.3763H63.1286V37.031H63.1442C63.2707 36.7967 63.4598 36.6022 63.6905 36.4693C63.9212 36.3363 64.1843 36.2701 64.4504 36.2781C64.7195 36.273 64.9828 36.3562 65.2001 36.515C65.4117 36.6684 65.5663 36.8877 65.6397 37.1385C65.9514 36.567 66.4097 36.2812 67.0145 36.2812C67.9258 36.2812 68.3814 36.8434 68.3814 37.9678L68.3721 40.5178Z" fill="#201C1D"/>
<path d="M71.2319 40.6144C70.9506 40.6279 70.6696 40.5834 70.4063 40.4837C70.143 40.3839 69.903 40.2311 69.7012 40.0346C69.5073 39.8298 69.3567 39.588 69.2584 39.3237C69.1601 39.0593 69.1162 38.7779 69.1292 38.4962C69.1292 37.7999 69.3282 37.2565 69.7262 36.8657C70.1242 36.475 70.6604 36.2797 71.3348 36.2797C71.9822 36.2797 72.4867 36.4698 72.8483 36.8502C73.2099 37.2305 73.3907 37.7578 73.3907 38.4322C73.3907 39.0931 73.1959 39.6226 72.8062 40.0206C72.4165 40.4186 71.8917 40.6165 71.2319 40.6144ZM71.2771 37.0294C71.1123 37.0222 70.948 37.0533 70.7971 37.12C70.6462 37.1868 70.5128 37.2876 70.4073 37.4144C70.1788 37.7188 70.0656 38.0943 70.0878 38.4743C70.0668 38.8444 70.1821 39.2092 70.412 39.5C70.5191 39.623 70.6524 39.7205 70.8021 39.7852C70.9518 39.85 71.1141 39.8803 71.2771 39.8741C71.4378 39.8834 71.5985 39.855 71.7463 39.7911C71.894 39.7272 72.0248 39.6297 72.1282 39.5062C72.3266 39.261 72.4259 38.9118 72.4259 38.4587C72.4259 38.0057 72.3266 37.6539 72.1282 37.4035C72.0265 37.2787 71.8969 37.1796 71.7499 37.114C71.6029 37.0485 71.4425 37.0185 71.2818 37.0263L71.2771 37.0294Z" fill="#201C1D"/>
<path d="M74.3086 40.5177V34.7178H75.9827C78.1212 34.7178 79.1905 35.6603 79.1905 37.5453C79.1905 38.441 78.8938 39.1601 78.3005 39.7025C77.7071 40.245 76.9096 40.5167 75.9078 40.5177H74.3086ZM75.2672 35.5299V39.701H76.0356C76.7121 39.701 77.2385 39.515 77.6146 39.143C77.9908 38.7709 78.1789 38.2451 78.1789 37.5655C78.1789 36.2095 77.4764 35.5314 76.0715 35.5314L75.2672 35.5299Z" fill="#201C1D"/>
<path d="M80.0723 40.5177V34.7178H81.9131C82.4742 34.7178 82.9185 34.8404 83.2458 35.0856C83.4 35.1928 83.5255 35.3364 83.6112 35.5035C83.6968 35.6707 83.7399 35.8564 83.7368 36.0442C83.7433 36.3533 83.6449 36.6555 83.4578 36.9015C83.2595 37.1524 82.9866 37.3336 82.6784 37.419V37.4346C83.0402 37.4628 83.3798 37.6199 83.6355 37.8773C83.7564 38.0078 83.8503 38.1609 83.9118 38.3278C83.9733 38.4947 84.0013 38.6722 83.994 38.8499C83.9995 39.0829 83.9492 39.3139 83.8473 39.5235C83.7453 39.7331 83.5947 39.9153 83.4079 40.0548C82.9826 40.376 82.4598 40.5411 81.9271 40.5224L80.0723 40.5177ZM81.0309 35.4893V37.14H81.6544C81.9339 37.1546 82.2096 37.0707 82.4337 36.9031C82.5294 36.821 82.6049 36.718 82.6543 36.602C82.7038 36.4861 82.7259 36.3603 82.719 36.2344C82.719 35.7387 82.3875 35.4909 81.7245 35.4909L81.0309 35.4893ZM81.0309 37.9116V39.7477H81.8523C82.1502 39.7667 82.4449 39.6782 82.6831 39.4983C82.7808 39.4138 82.858 39.3081 82.9088 39.1892C82.9595 39.0704 82.9826 38.9416 82.9761 38.8125C82.9761 38.2108 82.5605 37.91 81.7292 37.91L81.0309 37.9116Z" fill="#201C1D"/>
</g>
<defs>
<clipPath id="clip0_6744_65939">
<rect width="72" height="28.6865" fill="white" transform="translate(12 18.4667)"/>
</clipPath>
</defs>
</svg>
