<svg width="96" height="65" viewBox="0 0 96 65" fill="none" xmlns="http://www.w3.org/2000/svg">
<rect width="96" height="64" transform="translate(0 0.809937)" fill="white"/>
<g clip-path="url(#clip0_6744_65913)">
<path d="M22.0051 18.7733H27.4996C27.4996 27.8254 27.4996 36.8779 27.4996 45.931C27.4996 46.1572 27.4996 46.3833 27.4996 46.6095C27.4996 46.8356 27.4996 46.8419 27.275 46.8419H22.002C22.002 46.7405 22.002 46.6391 22.002 46.5299C22.004 37.2793 22.0051 28.0271 22.0051 18.7733Z" fill="#2D72B7"/>
<path d="M22.0022 46.8465H27.2737C27.492 46.8465 27.4967 46.8465 27.4983 46.6141C27.4998 46.3817 27.4983 46.1618 27.4983 45.9357C27.4983 36.8836 27.4983 27.831 27.4983 18.778H27.5654C27.7011 18.8689 27.8453 18.9467 27.9958 19.0103C29.125 19.578 30.2557 20.1426 31.388 20.7041C31.4471 20.726 31.4972 20.7671 31.5303 20.8208C31.5634 20.8745 31.5775 20.9377 31.5705 21.0004C31.5705 21.8878 31.5705 22.7753 31.5705 23.6627C31.5705 23.7422 31.5705 23.8187 31.5705 23.8998C31.5705 29.8263 31.5705 35.7529 31.5705 41.6795C31.5705 41.759 31.5705 41.8354 31.5705 41.9165C31.5705 42.8258 31.5705 43.7366 31.5705 44.6459C31.5774 44.7087 31.5631 44.7721 31.5297 44.8259C31.4963 44.8796 31.4459 44.9206 31.3864 44.9422C30.1871 45.5348 28.9924 46.1353 27.7993 46.7342C27.7241 46.7619 27.6551 46.8043 27.5965 46.859H21.9102L22.0022 46.8465Z" fill="#5293CE"/>
<path d="M22.0022 46.8465H21.9102C20.6516 46.2227 19.3961 45.5864 18.1344 44.9609C18.0676 44.9377 18.0108 44.8925 17.9731 44.8327C17.9354 44.7729 17.9191 44.7021 17.9269 44.6319C17.9269 43.7226 17.9269 42.8118 17.9269 41.9025C17.9269 41.8355 17.9269 41.7668 17.9269 41.6998C17.9269 35.7535 17.9269 29.8076 17.9269 23.8624C17.9269 23.7953 17.9269 23.7267 17.9269 23.6596C17.9269 22.7971 17.9363 21.9331 17.9269 21.0706C17.916 20.9859 17.9341 20.9 17.9783 20.8269C18.0225 20.7538 18.0901 20.6979 18.1702 20.6683C19.3602 20.085 20.5378 19.4907 21.7184 18.8996C21.7933 18.8622 21.865 18.8154 21.9367 18.7733H22.0038C22.0038 28.0271 22.0038 37.2808 22.0038 46.5346C22.0054 46.6375 22.0038 46.7389 22.0022 46.8465Z" fill="#205B97"/>
<path d="M12 41.8354V23.7641L13.8528 22.8283C13.9192 22.7863 13.9927 22.7567 14.0696 22.741C14.0696 29.4421 14.0696 36.1428 14.0696 42.8429C13.6267 42.623 13.1869 42.4016 12.7424 42.1848C12.5014 42.0551 12.2536 41.9385 12 41.8354Z" fill="#205B97"/>
<path d="M84.0005 31.9319C83.9553 32.0031 83.891 32.0603 83.8148 32.0967C83.7387 32.1331 83.6539 32.1473 83.57 32.1377C83.2425 32.1299 82.915 32.1377 82.5859 32.1377C82.2568 32.1377 82.2038 32.0597 82.2038 31.7603C82.2038 30.3982 82.2038 29.0362 82.2038 27.6741C82.2024 27.4266 82.1624 27.1809 82.0852 26.9457C82.0549 26.8187 81.9845 26.7046 81.8846 26.6204C81.7847 26.5362 81.6604 26.4863 81.53 26.4779C81.3887 26.4616 81.2458 26.4891 81.1206 26.5566C80.9954 26.6241 80.8939 26.7283 80.8298 26.8553C80.6392 27.2025 80.5415 27.5931 80.5459 27.9891C80.5381 29.2368 80.5459 30.4845 80.5459 31.7322C80.5459 32.0286 80.4742 32.1003 80.1778 32.1003C79.8051 32.1003 79.4323 32.1003 79.058 32.1003C78.8428 32.1003 78.7461 32.0052 78.7461 31.7884C78.7461 29.6049 78.7461 27.4178 78.7461 25.227C78.7461 25.004 78.8412 24.9151 79.0674 24.9151C79.4178 24.9151 79.7682 24.9151 80.1186 24.9151C80.3541 24.9151 80.4398 25.0056 80.4414 25.2426C80.443 25.4797 80.4414 25.7105 80.4414 25.9647C80.5196 25.876 80.5813 25.7741 80.6239 25.6637C80.7198 25.4626 80.8579 25.2846 81.0288 25.1417C81.1997 24.9987 81.3994 24.8943 81.6142 24.8356C82.745 24.5548 83.7431 25.1194 83.8991 26.2689C83.9417 26.4957 83.9636 26.7259 83.9646 26.9567C83.9646 27.0003 83.9646 27.0487 83.9973 27.083L84.0005 31.9319Z" fill="#201C1D"/>
<path d="M83.9991 35.324H82.3552C82.1337 35.324 82.1337 35.324 82.1337 35.5392C82.1337 37.234 82.1337 38.9283 82.1337 40.622C82.1337 40.8513 82.1337 40.8513 81.9076 40.8513C81.7516 40.8513 81.5957 40.8513 81.4397 40.8513C81.3165 40.8513 81.2837 40.8092 81.2837 40.6953C81.2837 40.2275 81.2837 39.7471 81.2837 39.2714C81.2837 38.0237 81.2837 36.7812 81.2837 35.5439C81.2837 35.3209 81.2837 35.3209 81.0685 35.3209C80.571 35.3209 80.075 35.3209 79.5775 35.3209C79.4512 35.3209 79.4028 35.285 79.4216 35.1649C79.4403 34.9871 79.3451 34.7563 79.4605 34.644C79.576 34.5317 79.7943 34.6144 79.9674 34.6128C81.3118 34.6128 82.6562 34.6128 84.0006 34.6128L83.9991 35.324Z" fill="black"/>
<path d="M31.5742 41.9026C31.5742 41.823 31.5742 41.7466 31.5742 41.6655C31.5742 35.7389 31.5742 29.8124 31.5742 23.8858C31.5742 23.8063 31.5742 23.7298 31.5742 23.6487L34.0384 23.0576C34.4923 22.95 34.9477 22.844 35.4031 22.7379C35.4031 29.3268 35.4031 35.9162 35.4031 42.5061C35.4031 42.6075 35.4031 42.7089 35.4031 42.8181C34.9227 42.7276 34.4502 42.5997 33.9745 42.4843L31.5742 41.9026Z" fill="#205B97"/>
<path d="M51.5781 25.7917C51.9649 25.1179 52.4983 24.7561 53.2937 24.767C54.0891 24.7779 54.5664 25.2349 54.9001 25.9383C54.9781 25.8088 55.0389 25.6981 55.1075 25.592C55.2605 25.3652 55.4613 25.1746 55.6958 25.0338C55.9304 24.8929 56.193 24.8052 56.4651 24.7768C56.7372 24.7484 57.0122 24.78 57.2708 24.8694C57.5293 24.9588 57.7652 25.1038 57.9617 25.2941C58.2432 25.574 58.4101 25.9489 58.4295 26.3453C58.5106 27.2577 58.4529 28.1732 58.4623 29.0871C58.4717 30.0011 58.4623 30.8838 58.4623 31.7822C58.4623 32.0255 58.3921 32.0941 58.1504 32.0941H56.9635C56.7685 32.0941 56.6656 32.0021 56.6641 31.8118C56.6641 30.5735 56.6563 29.3367 56.6641 28.0983C56.672 27.746 56.6595 27.3934 56.6266 27.0425C56.5783 26.5871 56.1821 26.3781 55.7657 26.4873C55.6005 26.5278 55.4516 26.6178 55.3387 26.7451C55.2259 26.8724 55.1545 27.0311 55.1341 27.2C55.0833 27.4594 55.0592 27.7233 55.0623 27.9876C55.0623 29.2353 55.0623 30.4737 55.0623 31.7167C55.0623 32.0286 54.9921 32.0925 54.6849 32.0925H53.6259C53.353 32.0925 53.2734 32.0146 53.2734 31.7432C53.2734 30.4487 53.2734 29.1547 53.2734 27.8613C53.2921 27.5801 53.2711 27.2976 53.211 27.0222C53.1804 26.8747 53.1033 26.7409 52.991 26.6404C52.8787 26.5399 52.7372 26.478 52.5872 26.4639C52.4213 26.4472 52.2545 26.4863 52.1133 26.575C51.9721 26.6637 51.8645 26.7969 51.8074 26.9536C51.7283 27.1757 51.6846 27.4088 51.6779 27.6445C51.6078 29.0388 51.667 30.4331 51.6467 31.8274C51.6467 32.0224 51.5812 32.0894 51.3816 32.091C50.9855 32.091 50.5909 32.091 50.1947 32.091C49.9483 32.091 49.8828 32.027 49.8828 31.7791C49.8828 30.4399 49.8828 29.1007 49.8828 27.7615C49.8828 26.9141 49.8828 26.0662 49.8828 25.2177C49.8828 24.9495 49.9343 24.9058 50.1947 24.9058H51.2865C51.5079 24.9058 51.5828 24.9807 51.5844 25.1974C51.5859 25.4142 51.5781 25.5983 51.5781 25.7917Z" fill="#201C1D"/>
<path d="M35.3945 42.8196C35.3945 42.7182 35.3945 42.6168 35.3945 42.5076C35.3945 35.9187 35.3945 29.3293 35.3945 22.7394C35.4684 22.7384 35.5407 22.7614 35.6004 22.8049C36.1759 23.0919 36.7483 23.3835 37.3269 23.6643C37.3836 23.6864 37.4312 23.7268 37.4623 23.779C37.4934 23.8313 37.5061 23.8925 37.4985 23.9528C37.4985 26.3255 37.4985 28.6982 37.4985 31.0709C37.4985 34.5676 37.4985 38.0643 37.4985 41.5609C37.5078 41.64 37.4899 41.72 37.4477 41.7875C37.4054 41.855 37.3413 41.906 37.2661 41.9321C36.6953 42.2035 36.1354 42.4936 35.5676 42.7743C35.524 42.8055 35.471 42.8726 35.3945 42.8196Z" fill="#5293CE"/>
<path d="M65.1096 28.3852C65.1096 28.8375 65.119 29.2103 65.1096 29.583C65.1009 30.0148 65.257 30.4337 65.5463 30.7543C65.5812 30.7851 65.6082 30.8237 65.6253 30.867C65.6425 30.9102 65.6492 30.9569 65.6449 31.0032C65.6407 31.0495 65.6256 31.0942 65.6009 31.1336C65.5762 31.173 65.5425 31.206 65.5027 31.23C65.2469 31.4499 64.9942 31.6745 64.7494 31.9069C64.464 32.1798 64.3657 32.1829 64.0803 31.9069C63.9164 31.7601 63.7727 31.5923 63.653 31.4078C63.5859 31.2924 63.5313 31.2814 63.4424 31.3844C63.0023 31.8556 62.3958 32.1365 61.7518 32.1673C61.3916 32.1996 61.0286 32.1582 60.685 32.0457C60.3971 31.9425 60.1426 31.7631 59.9487 31.5266C59.7547 31.2901 59.6287 31.0054 59.5839 30.7028C59.4617 30.1855 59.5043 29.643 59.7056 29.151C59.832 28.8517 60.0236 28.5844 60.2664 28.3685C60.5092 28.1527 60.7972 27.9937 61.1092 27.9033C61.6581 27.7407 62.2201 27.6264 62.7889 27.5617C62.9186 27.5654 63.0483 27.5549 63.1757 27.5306C63.2381 27.5087 63.2709 27.4869 63.274 27.4183C63.2929 27.1485 63.266 26.8774 63.1944 26.6166C63.0556 26.183 62.5487 26.0583 62.2493 26.1097C62.0438 26.138 61.8524 26.2299 61.7019 26.3725C61.5514 26.5152 61.4494 26.7015 61.4102 26.9051C61.3572 27.111 61.2636 27.1594 61.0531 27.1297C60.7255 27.0829 60.3965 27.044 60.0658 27.0174C59.8116 26.9972 59.7009 26.8771 59.7539 26.6338C59.822 26.2604 59.9855 25.911 60.2284 25.6195C60.4713 25.3279 60.7855 25.1041 61.1404 24.9697C61.9571 24.6196 62.8753 24.5885 63.7138 24.8823C64.6199 25.2114 65.0254 25.7323 65.0753 26.7741C65.1081 27.3372 65.1003 27.9002 65.1096 28.3852ZM63.2771 29.0964C63.2771 28.9716 63.2771 28.8484 63.2771 28.7237C63.2771 28.6332 63.2319 28.5927 63.1523 28.6114C62.9543 28.6597 62.7499 28.6301 62.5503 28.6753C62.2275 28.7486 61.9093 28.8422 61.6956 29.1042C61.5509 29.278 61.4573 29.4885 61.4251 29.7124C61.3928 29.9362 61.4233 30.1646 61.5132 30.3722C61.5567 30.4939 61.6321 30.6016 61.7315 30.6841C62.1432 31.0241 62.686 30.7683 62.9043 30.4689C63.1783 30.0658 63.3095 29.5827 63.2771 29.0964Z" fill="#201C1D"/>
<path d="M48.3901 28.1202C48.3901 28.5881 48.3901 29.0559 48.3901 29.5238C48.3833 29.9731 48.5459 30.4085 48.8455 30.7435C48.8762 30.7727 48.9003 30.808 48.9165 30.8472C48.9326 30.8864 48.9403 30.9285 48.9392 30.9708C48.938 31.0132 48.9279 31.0548 48.9096 31.093C48.8914 31.1312 48.8653 31.1651 48.833 31.1926C48.5211 31.4775 48.2066 31.7583 47.8895 32.0348C47.8381 32.0828 47.7701 32.1091 47.6998 32.1083C47.6295 32.1074 47.5622 32.0794 47.512 32.0301C47.2878 31.8409 47.0932 31.6191 46.935 31.372C46.8866 31.3065 46.8648 31.2597 46.779 31.3486C46.3853 31.7975 45.839 32.0843 45.2459 32.1534C44.5659 32.2267 43.8968 32.1768 43.3744 31.6465C43.077 31.3276 42.8943 30.9188 42.855 30.4846C42.8003 30.1282 42.8237 29.7642 42.9236 29.4178C43.0206 29.0537 43.2118 28.7216 43.4779 28.455C43.744 28.1883 44.0757 27.9964 44.4396 27.8987C44.9837 27.7388 45.5404 27.6256 46.1037 27.5603C46.2333 27.563 46.3628 27.5531 46.4905 27.5306C46.5622 27.5072 46.5934 27.4792 46.5934 27.4043C46.6025 27.1456 46.5757 26.8868 46.5139 26.6354C46.3954 26.2081 45.89 26.0474 45.5688 26.1083C45.1133 26.194 44.8077 26.4498 44.7234 26.9286C44.7177 26.9634 44.7049 26.9967 44.6859 27.0264C44.6669 27.0561 44.6421 27.0817 44.6129 27.1015C44.5838 27.1214 44.5509 27.1351 44.5162 27.1418C44.4816 27.1485 44.446 27.1482 44.4115 27.1407C44.0668 27.0939 43.7222 27.0487 43.3775 27.0128C43.1186 26.9863 43.0328 26.874 43.0936 26.6198C43.3463 25.5515 44.0606 24.9807 45.0993 24.7779C45.6729 24.6455 46.2704 24.6573 46.8383 24.8122C47.3717 24.9682 47.8676 25.213 48.153 25.7371C48.3059 26.0255 48.3872 26.3464 48.3901 26.6728C48.3979 27.1594 48.3885 27.6398 48.3901 28.1202ZM44.7624 29.8997C44.7426 30.0925 44.7806 30.2869 44.8716 30.458C44.9328 30.5827 45.03 30.6861 45.1507 30.7548C45.2715 30.8235 45.41 30.8543 45.5485 30.8433C45.7227 30.8237 45.889 30.7596 46.0313 30.6572C46.1736 30.5548 46.2872 30.4174 46.361 30.2584C46.5747 29.7681 46.6538 29.2298 46.5903 28.6988C46.5903 28.6193 46.5326 28.6037 46.4733 28.6146C46.2114 28.6352 45.951 28.6717 45.6935 28.7237C45.0899 28.8984 44.7328 29.24 44.7624 29.8997Z" fill="#201C1D"/>
<path d="M72.0278 28.5584C72.0107 27.6601 72.1573 26.8662 72.5706 26.1363C72.9839 25.4064 73.5843 24.9292 74.4328 24.8075C75.0815 24.6905 75.7506 24.8136 76.3152 25.1538C76.8299 25.4842 77.2268 25.969 77.4491 26.5387C77.7512 27.2762 77.8767 28.0742 77.8156 28.8688C77.7953 29.6651 77.5438 30.4384 77.0919 31.0944C76.855 31.4456 76.5357 31.7334 76.1619 31.9327C75.788 32.132 75.3711 32.2367 74.9474 32.2376C74.5777 32.2555 74.2086 32.1915 73.8665 32.0502C73.5244 31.9089 73.2177 31.6939 72.9683 31.4203C72.5291 30.9246 72.2392 30.3147 72.1323 29.6611C72.0505 29.2995 72.0154 28.9289 72.0278 28.5584ZM75.0379 30.8464C75.1373 30.8337 75.2326 30.7991 75.317 30.7452C75.4014 30.6912 75.4728 30.6193 75.5261 30.5345C75.8177 30.1368 75.8692 29.6704 75.8863 29.2057C75.9158 28.7852 75.9195 28.3633 75.8973 27.9424C75.8744 27.5307 75.8043 27.1231 75.6883 26.7274C75.5557 26.3204 75.2204 26.1769 74.8336 26.1722C74.5217 26.1722 74.3314 26.3609 74.191 26.6198C74.0095 27.0018 73.9208 27.4213 73.9321 27.8441C73.8991 28.4126 73.9205 28.9829 73.9961 29.5472C74.03 29.8551 74.121 30.1539 74.2643 30.4284C74.4125 30.692 74.6168 30.8526 75.0379 30.8464Z" fill="#201C1D"/>
<path d="M68.9757 26.3703H66.9294C66.7158 26.3703 66.6378 26.3266 66.6175 26.1223C66.5785 25.7808 66.5785 25.436 66.6175 25.0945C66.6409 24.9292 66.7423 24.8793 66.8873 24.8793H70.9034C71.1997 24.8793 71.2714 24.951 71.2714 25.2458C71.2714 25.4017 71.2605 25.5577 71.2714 25.7028C71.2882 26.0028 71.1932 26.2984 71.0047 26.5325C70.5571 27.1657 70.1251 27.8098 69.6884 28.4492L68.9258 29.5769C68.9008 29.6127 68.8509 29.6455 68.8712 29.6938C68.8914 29.7422 68.9601 29.7281 69.0069 29.7266C69.7467 29.7128 70.4781 29.8866 71.1326 30.2319C71.2207 30.2663 71.2958 30.3273 71.3476 30.4064C71.3993 30.4855 71.425 30.5788 71.4212 30.6733C71.4212 30.9946 71.4212 31.3174 71.4212 31.6387C71.4212 31.882 71.2652 31.9834 71.0422 31.8773C70.5704 31.6379 70.0634 31.4757 69.5402 31.3969C68.7287 31.2806 67.9007 31.3845 67.1431 31.6979C66.9871 31.7634 66.8312 31.8414 66.6627 31.9023C66.6327 31.9142 66.6003 31.9191 66.5681 31.9165C66.5358 31.9139 66.5047 31.9039 66.4769 31.8873C66.4492 31.8707 66.4256 31.848 66.4081 31.8208C66.3905 31.7937 66.3795 31.7628 66.3758 31.7307C66.3758 31.28 66.329 30.8277 66.4038 30.3801C66.4598 30.1612 66.5631 29.9573 66.7064 29.7827C67.4342 28.7024 68.1621 27.6232 68.8899 26.545C68.9313 26.494 68.9607 26.4342 68.9757 26.3703Z" fill="#201C1D"/>
<path d="M53.5451 37.7727C53.5451 36.8182 53.5451 35.8637 53.5451 34.9092C53.5451 34.7533 53.5685 34.6956 53.7494 34.6706C54.3899 34.5807 55.0375 34.5519 55.6834 34.5848C56.3805 34.6222 57.0574 34.7642 57.6298 35.2087C58.1607 35.6077 58.5175 36.1958 58.6264 36.851C58.7846 37.6352 58.6918 38.4494 58.3612 39.1779C58.2152 39.5128 58.0011 39.8137 57.7326 40.0615C57.4642 40.3093 57.1471 40.4986 56.8016 40.6174C56.3398 40.7668 55.8617 40.8605 55.3777 40.8966C54.9098 40.9403 54.4419 40.8717 53.974 40.881C53.8586 40.881 53.7432 40.8405 53.6231 40.8498C53.5404 40.8498 53.5358 40.7984 53.5373 40.7375C53.5373 40.5909 53.5373 40.4443 53.5373 40.2962C53.5425 39.455 53.5451 38.6138 53.5451 37.7727ZM54.3936 37.754C54.3936 38.0815 54.3936 38.409 54.3936 38.7365C54.3936 39.1763 54.3936 39.6177 54.3936 40.0575C54.3936 40.1184 54.3655 40.1979 54.4762 40.2135C55.011 40.274 55.5523 40.2424 56.0764 40.1199C56.3924 40.0517 56.6882 39.9109 56.9405 39.7087C57.1928 39.5065 57.3946 39.2485 57.53 38.9549C57.8096 38.3283 57.8807 37.6285 57.7327 36.9586C57.672 36.6038 57.515 36.2726 57.2789 36.001C56.8328 35.4988 56.2448 35.2913 55.5898 35.2648C55.2559 35.2459 54.921 35.2548 54.5885 35.2913C54.4326 35.31 54.3889 35.3568 54.3904 35.5081C54.3967 36.2521 54.392 37.0022 54.392 37.754H54.3936Z" fill="black"/>
<path d="M65.3125 37.7274C65.3125 36.7495 65.3125 35.7732 65.3125 34.7953C65.3125 34.6393 65.3562 34.5988 65.5028 34.6097C65.6663 34.6208 65.8305 34.6208 65.9941 34.6097C66.1251 34.6019 66.1687 34.6409 66.1672 34.7781C66.1672 35.5236 66.1672 36.2691 66.1672 37.0162C66.1672 37.1924 66.2186 37.2299 66.384 37.2283C67.2371 37.2205 68.0902 37.2283 68.9433 37.2283C69.0821 37.2283 69.1258 37.194 69.1242 37.0505C69.1242 36.2988 69.1242 35.547 69.1242 34.7969C69.1242 34.6409 69.1695 34.6019 69.3161 34.6113C69.4954 34.6237 69.6779 34.6113 69.8588 34.6113C69.9461 34.6113 69.9851 34.6393 69.9773 34.7282C69.9773 34.7672 69.9773 34.8078 69.9773 34.8468C69.9773 36.7791 69.9773 38.7115 69.9773 40.6439C69.9773 40.8186 69.929 40.8716 69.7605 40.856C69.6085 40.8432 69.4556 40.8432 69.3036 40.856C69.1648 40.8669 69.1211 40.8217 69.1227 40.6782C69.1227 39.836 69.1227 38.9938 69.1227 38.1532C69.1227 37.9379 69.1227 37.9364 68.9012 37.9364C68.0543 37.9364 67.2059 37.9364 66.359 37.9364C66.2124 37.9364 66.1672 37.9691 66.1687 38.122C66.1687 38.9688 66.1687 39.8173 66.1687 40.6642C66.1687 40.8201 66.1204 40.8685 65.9691 40.8575C65.8055 40.8467 65.6414 40.8467 65.4778 40.8575C65.3531 40.8575 65.3125 40.8248 65.3219 40.7016C65.3219 40.176 65.3219 39.6504 65.3219 39.1248C65.3156 38.658 65.3125 38.1922 65.3125 37.7274Z" fill="black"/>
<path d="M45.5326 37.8693C46.0567 38.1048 46.2719 38.5322 46.3873 39.0094C46.51 39.5898 46.6662 40.1627 46.8552 40.725C46.8926 40.8279 46.8724 40.8638 46.7585 40.8591C46.5604 40.8591 46.3624 40.8591 46.1659 40.8591C46.1456 40.8629 46.1247 40.8627 46.1045 40.8584C46.0843 40.8541 46.0652 40.8458 46.0482 40.8341C46.0312 40.8223 46.0168 40.8073 46.0056 40.7899C45.9945 40.7726 45.9869 40.7531 45.9834 40.7328C45.8107 40.2554 45.6756 39.7652 45.5794 39.2667C45.5279 38.9773 45.3979 38.7075 45.2036 38.4869C45.0083 38.29 44.7432 38.1779 44.4659 38.175C44.246 38.1625 44.0245 38.175 43.8046 38.175C43.672 38.175 43.6486 38.2187 43.6486 38.3403C43.6486 39.1201 43.6486 39.889 43.6486 40.6626C43.6486 40.8186 43.6081 40.8732 43.4521 40.8591C43.3057 40.8472 43.1587 40.8472 43.0123 40.8591C42.875 40.87 42.8251 40.8295 42.8283 40.6829C42.8376 40.293 42.8283 39.9031 42.8283 39.5132C42.8283 38.0211 42.8283 36.5291 42.8283 35.0371C42.8283 34.7033 42.8283 34.6986 43.1402 34.6534C43.6864 34.5741 44.2395 34.5527 44.7903 34.5894C45.2114 34.6191 45.6387 34.6877 45.9943 34.9513C46.1956 35.0858 46.3613 35.2673 46.477 35.48C46.5927 35.6927 46.6551 35.9303 46.6587 36.1725C46.6868 36.6017 46.5527 37.0259 46.2828 37.3609C46.1211 37.5469 45.9225 37.6972 45.6995 37.8023C45.659 37.821 45.6075 37.8381 45.5326 37.8693ZM43.6455 36.4064C43.6455 36.7339 43.6455 37.0614 43.6455 37.389C43.6455 37.4872 43.6689 37.5356 43.7765 37.5278C44.0884 37.5091 44.4004 37.5387 44.7029 37.4981C45.4328 37.4046 45.8181 36.9913 45.8149 36.2629C45.8194 36.0877 45.7728 35.915 45.6808 35.7657C45.5889 35.6165 45.4556 35.4972 45.2971 35.4223C44.8059 35.1618 44.2849 35.1915 43.7578 35.2788C43.6595 35.2944 43.6424 35.3365 43.6439 35.4223C43.6455 35.7514 43.6424 36.0851 43.6424 36.4064H43.6455Z" fill="black"/>
<path d="M48.457 37.7368C48.457 36.7542 48.457 35.7701 48.457 34.7875C48.457 34.6456 48.4976 34.6082 48.6364 34.6082C49.648 34.6134 50.6592 34.6134 51.6698 34.6082C51.8055 34.6082 51.8664 34.6362 51.8523 34.7828C51.8416 34.9126 51.8416 35.043 51.8523 35.1727C51.8601 35.2928 51.8149 35.3287 51.6964 35.3287C50.968 35.3287 50.2381 35.3287 49.5129 35.3287C49.3569 35.3287 49.2992 35.3615 49.3039 35.5315C49.3164 36.057 49.3117 36.5826 49.3039 37.1082C49.3039 37.2361 49.3429 37.2642 49.4599 37.2642C50.1554 37.2642 50.8495 37.2642 51.5451 37.2642C51.6667 37.2642 51.7213 37.2907 51.7104 37.4202C51.7004 37.5442 51.7004 37.6689 51.7104 37.7929C51.7197 37.9146 51.6714 37.9489 51.5544 37.9489C50.8713 37.9489 50.1866 37.9489 49.5035 37.9489C49.3476 37.9489 49.293 37.9847 49.2945 38.1516C49.3055 38.7614 49.3039 39.3712 49.2945 39.9826C49.2945 40.1261 49.3382 40.1604 49.477 40.1604C50.2568 40.1604 51.0257 40.1604 51.7993 40.1604C51.9365 40.1604 51.9927 40.1932 51.9802 40.3382C51.9704 40.4737 51.9704 40.6098 51.9802 40.7453C51.9802 40.8529 51.9412 40.8778 51.8414 40.8778C50.7569 40.8778 49.672 40.8778 48.5865 40.8778C48.4477 40.8778 48.4492 40.8077 48.4492 40.7094C48.4555 39.706 48.4581 38.7152 48.457 37.7368Z" fill="black"/>
<path d="M61.6138 40.9199C61.0603 40.9342 60.5125 40.8058 60.023 40.5472C59.9357 40.5004 59.9091 40.4645 59.9513 40.3678C60.0152 40.2119 60.0557 40.0559 60.115 39.9109C60.1493 39.8251 60.1805 39.8376 60.2335 39.8688C60.6102 40.0652 61.02 40.19 61.4423 40.2368C61.8665 40.307 62.534 40.0419 62.7118 39.7034C62.7877 39.5747 62.8351 39.4312 62.8508 39.2826C62.8665 39.134 62.8502 38.9837 62.8029 38.8419C62.7556 38.7002 62.6784 38.5702 62.5766 38.4608C62.4748 38.3514 62.3507 38.2651 62.2127 38.2078C61.9101 38.0518 61.5889 37.9676 61.2769 37.8272C60.809 37.6089 60.3895 37.3297 60.1602 36.8337C60.0529 36.5532 60.0227 36.249 60.0726 35.9528C60.1225 35.6566 60.2508 35.3792 60.4441 35.1493C60.8621 34.7017 61.3877 34.5255 61.9788 34.5052C62.4447 34.4824 62.9099 34.5639 63.3403 34.7438C63.4292 34.7813 63.4635 34.814 63.4199 34.917C63.3559 35.0729 63.3107 35.2289 63.2639 35.3926C63.2405 35.4659 63.2187 35.5127 63.1251 35.4613C62.8193 35.2944 62.4769 35.206 62.1285 35.2039C61.6887 35.2039 61.2691 35.2819 61.018 35.6858C60.7669 36.0898 60.8745 36.6372 61.4282 36.9538C61.8368 37.1878 62.2922 37.3219 62.7009 37.5558C63.1095 37.7898 63.4932 38.0861 63.6257 38.5867C63.8737 39.5225 63.4698 40.4131 62.534 40.7515C62.2401 40.8633 61.9282 40.9203 61.6138 40.9199Z" fill="black"/>
<path d="M74.8086 37.7243C74.8086 36.7464 74.8086 35.7685 74.8086 34.7906C74.8086 34.6534 74.8413 34.6082 74.9848 34.6082C75.9913 34.6144 76.9973 34.6144 78.0027 34.6082C78.1399 34.6082 78.1805 34.6518 78.1696 34.7813C78.1596 34.9053 78.1596 35.03 78.1696 35.154C78.1805 35.2866 78.1353 35.3271 77.9996 35.3256C77.2931 35.3256 76.5865 35.3256 75.88 35.3256C75.657 35.3256 75.657 35.3256 75.657 35.5408C75.657 36.0945 75.657 36.6481 75.657 37.2018C75.657 37.3297 75.6944 37.3578 75.813 37.3578C76.4852 37.3578 77.1574 37.3578 77.8311 37.3578C77.9543 37.3578 78.0074 37.3858 77.9949 37.5137C77.9849 37.6378 77.9849 37.7624 77.9949 37.8865C78.0042 38.0097 77.9543 38.0424 77.8389 38.0424C77.1714 38.0424 76.5054 38.0424 75.8379 38.0424C75.682 38.0424 75.6477 38.0799 75.6492 38.2296C75.6492 39.0437 75.6492 39.8578 75.6492 40.6704C75.6492 40.8123 75.6227 40.8763 75.4652 40.8622C75.2959 40.8498 75.126 40.8498 74.9567 40.8622C74.8273 40.87 74.8008 40.8233 74.8008 40.7063C74.8101 39.7019 74.8086 38.7131 74.8086 37.7243Z" fill="black"/>
<path d="M71.959 37.7228C71.959 36.7449 71.959 35.767 71.959 34.7907C71.959 34.6519 71.9917 34.5989 72.1368 34.6098C72.306 34.6219 72.476 34.6219 72.6452 34.6098C72.7856 34.6004 72.8168 34.6566 72.8121 34.7845C72.8043 35.0434 72.8121 35.3038 72.8121 35.5643C72.8121 37.2596 72.8121 38.9549 72.8121 40.6502C72.8121 40.8062 72.7762 40.8732 72.6078 40.8576C72.4443 40.8446 72.28 40.8446 72.1165 40.8576C71.9839 40.867 71.9605 40.814 71.9605 40.6923C71.9621 39.7004 71.959 38.7116 71.959 37.7228Z" fill="black"/>
<path d="M14.0695 22.7457C14.5234 22.8206 14.9647 22.9532 15.4108 23.0577C16.2514 23.2573 17.0905 23.4522 17.9265 23.6581C17.9265 23.7252 17.9265 23.7938 17.9265 23.8609C17.9265 29.8072 17.9265 35.753 17.9265 41.6983C17.9265 41.7653 17.9265 41.834 17.9265 41.901L14.1631 42.8181C14.1304 42.8259 14.0992 42.8368 14.0664 42.8477C14.0685 36.1476 14.0695 29.4469 14.0695 22.7457Z" fill="#5293CE"/>
</g>
<defs>
<clipPath id="clip0_6744_65913">
<rect width="72" height="28.0732" fill="white" transform="translate(12 18.7733)"/>
</clipPath>
</defs>
</svg>
