<svg width="96" height="65" viewBox="0 0 96 65" fill="none" xmlns="http://www.w3.org/2000/svg">
<rect width="96" height="64" transform="translate(0 0.809937)" fill="white"/>
<g clip-path="url(#clip0_6744_66016)">
<path d="M40.9153 30.362L39.9937 28.0004H37.0129L36.0913 30.362H35.2129L38.1505 22.8884H38.8849L41.8081 30.362H40.9153ZM39.7201 27.2084L38.8561 24.9044C38.7409 24.6164 38.6257 24.2564 38.5105 23.8244C38.4385 24.1556 38.3233 24.5012 38.1937 24.9044L37.3153 27.2084H39.7201Z" fill="#222222"/>
<path d="M49.324 30.362H48.4744L46.9768 25.3796C46.9048 25.1636 46.8328 24.8756 46.732 24.5444C46.6456 24.2132 46.6024 24.0116 46.588 23.9396C46.516 24.386 46.4008 24.8756 46.228 25.4084L44.7736 30.362H43.924L41.9512 22.9172H42.8728L44.0536 27.5108C44.212 28.1588 44.3416 28.7348 44.4136 29.2676C44.5 28.6484 44.644 28.0436 44.8168 27.4532L46.156 22.9316H47.0776L48.4744 27.4964C48.6328 28.0292 48.7768 28.6196 48.892 29.282C48.9496 28.8068 49.0792 28.2164 49.252 27.5252L50.4184 22.946H51.34L49.324 30.362Z" fill="#222222"/>
<path d="M56.6832 28.3748C56.6832 29.0228 56.4528 29.5412 55.9776 29.9012C55.5024 30.2612 54.8544 30.4484 54.048 30.4484C53.1696 30.4484 52.4928 30.3332 52.0176 30.1028V29.2676C52.32 29.3972 52.6512 29.498 53.0112 29.57C53.3712 29.642 53.7312 29.6852 54.0768 29.6852C54.6528 29.6852 55.0848 29.57 55.3728 29.354C55.6608 29.138 55.8048 28.8356 55.8048 28.4468C55.8048 28.1876 55.7472 27.9716 55.6464 27.8132C55.5456 27.6548 55.3728 27.4964 55.128 27.3524C54.8832 27.2084 54.5232 27.05 54.0192 26.8772C53.328 26.6324 52.8384 26.33 52.536 25.9988C52.2336 25.6532 52.0896 25.2212 52.0896 24.674C52.0896 24.098 52.3056 23.6372 52.7376 23.306C53.1696 22.9604 53.7312 22.802 54.4512 22.802C55.1856 22.802 55.8768 22.9316 56.496 23.2052L56.2224 23.954C55.6032 23.6948 55.0128 23.5652 54.4368 23.5652C53.976 23.5652 53.616 23.666 53.3568 23.8532C53.0976 24.0548 52.968 24.3284 52.968 24.674C52.968 24.9332 53.0112 25.1492 53.112 25.3076C53.2128 25.466 53.3712 25.6244 53.5872 25.754C53.8176 25.898 54.1632 26.042 54.624 26.2148C55.4016 26.4884 55.9344 26.7908 56.2368 27.1076C56.5392 27.4532 56.6832 27.8708 56.6832 28.3748Z" fill="#222222"/>
<path d="M12 26.0851V28.8067L21.5904 26.0131V21.3907L12 26.0851Z" fill="#1F5B99"/>
<path d="M12 39.5347L21.5904 44.2291V39.5923L12 36.8131V39.5347Z" fill="#1F5B99"/>
<path d="M17.4727 30.0307V35.5891L21.5911 36.1795V29.4403L17.4727 30.0307Z" fill="#1F5B99"/>
<path d="M31.1802 26.0851V28.8067L21.5898 26.0131V21.3907L31.1802 26.0851Z" fill="#5194D0"/>
<path d="M31.1802 39.5347L21.5898 44.2291V39.5923L31.1802 36.8131V39.5347Z" fill="#5194D0"/>
<path d="M25.7082 30.0307V35.5891L21.5898 36.1795V29.4403L25.7082 30.0307Z" fill="#5194D0"/>
<path d="M21.5904 26.0132L12 28.8068L19.3584 29.7572L21.5904 29.4404L23.8224 29.7572L31.1808 28.8068L21.5904 26.0132Z" fill="#17496F"/>
<path d="M23.8224 35.8484L21.5904 36.1796L19.3584 35.8484L12 36.7988L21.5904 39.5924L31.1808 36.7988L23.8224 35.8484Z" fill="#99BCE3"/>
<path d="M39.1153 42.7172H35.2129V35.7188H39.1153V36.4387H36.0337V38.6851H38.9281V39.4051H36.0337V41.9827H39.1153V42.7172Z" fill="black"/>
<path d="M41.3467 42.7171H40.5547V35.2723H41.3467V42.7171Z" fill="black"/>
<path d="M46.244 42.7172L46.0856 41.9684H46.0424C45.7832 42.2996 45.524 42.5156 45.2648 42.6308C45.0056 42.746 44.6744 42.8036 44.2856 42.8036C43.7672 42.8036 43.364 42.674 43.0616 42.4004C42.7736 42.1268 42.6152 41.7524 42.6152 41.2628C42.6152 40.1972 43.4648 39.65 45.1496 39.5924L46.0424 39.5636V39.2468C46.0424 38.8292 45.956 38.5268 45.7832 38.3396C45.6104 38.138 45.3224 38.0516 44.9336 38.0516C44.5016 38.0516 43.9976 38.1812 43.4504 38.4548L43.2056 37.85C43.4648 37.706 43.7528 37.6052 44.0552 37.5188C44.3576 37.4324 44.6744 37.4036 44.9768 37.4036C45.596 37.4036 46.0712 37.5476 46.3592 37.8212C46.6616 38.0948 46.8056 38.5412 46.8056 39.1604V42.7316H46.244V42.7172ZM44.4584 42.1556C44.948 42.1556 45.3368 42.026 45.6248 41.7524C45.9128 41.4788 46.0424 41.1044 46.0424 40.6148V40.1396L45.2504 40.1684C44.6168 40.1972 44.1704 40.2836 43.8824 40.4564C43.6088 40.6292 43.4648 40.9028 43.4648 41.2628C43.4648 41.5508 43.5512 41.7668 43.724 41.9108C43.8968 42.0836 44.1416 42.1556 44.4584 42.1556Z" fill="black"/>
<path d="M51.8441 41.2772C51.8441 41.7668 51.6569 42.1412 51.2969 42.4004C50.9369 42.6596 50.4185 42.8036 49.7705 42.8036C49.0793 42.8036 48.5321 42.6884 48.1433 42.4724V41.738C48.3881 41.8676 48.6617 41.9684 48.9497 42.0404C49.2377 42.1124 49.5113 42.1556 49.7849 42.1556C50.2025 42.1556 50.5193 42.0836 50.7353 41.954C50.9513 41.8244 51.0665 41.6228 51.0665 41.3492C51.0665 41.1476 50.9801 40.9748 50.8073 40.8308C50.6345 40.6868 50.2889 40.514 49.7705 40.3124C49.2809 40.1252 48.9353 39.9668 48.7337 39.8372C48.5321 39.7076 48.3737 39.5492 48.2729 39.3764C48.1721 39.2036 48.1289 39.002 48.1289 38.7572C48.1289 38.3252 48.3017 37.994 48.6473 37.7492C48.9929 37.5044 49.4681 37.3748 50.0729 37.3748C50.6345 37.3748 51.1817 37.49 51.7289 37.7204L51.4409 38.3684C50.9081 38.1524 50.4329 38.0372 50.0153 38.0372C49.6409 38.0372 49.3529 38.0948 49.1657 38.21C48.9785 38.3252 48.8777 38.4836 48.8777 38.6996C48.8777 38.8436 48.9065 38.9588 48.9785 39.0596C49.0505 39.1604 49.1657 39.2468 49.3241 39.3476C49.4825 39.434 49.7849 39.5636 50.2457 39.7364C50.8649 39.9668 51.2825 40.1972 51.5129 40.4132C51.7433 40.6436 51.8441 40.9316 51.8441 41.2772Z" fill="black"/>
<path d="M54.8408 42.1556C54.9848 42.1556 55.1144 42.1412 55.244 42.1268C55.3736 42.1124 55.4744 42.0836 55.5608 42.0692V42.674C55.4744 42.7172 55.3448 42.746 55.1864 42.7748C55.0136 42.8036 54.8696 42.818 54.74 42.818C53.732 42.818 53.2136 42.2852 53.2136 41.2196V38.0948H52.4648V37.706L53.2136 37.3748L53.5448 36.2516H54.0056V37.4612H55.532V38.0804H54.0056V41.162C54.0056 41.4788 54.0776 41.7236 54.236 41.882C54.3656 42.0692 54.5672 42.1556 54.8408 42.1556Z" fill="black"/>
<path d="M56.5391 36.0499C56.5391 35.8627 56.5823 35.7331 56.6687 35.6467C56.7551 35.5603 56.8703 35.5171 56.9999 35.5171C57.1295 35.5171 57.2303 35.5603 57.3311 35.6467C57.4319 35.7331 57.4751 35.8627 57.4751 36.0499C57.4751 36.2371 57.4319 36.3667 57.3311 36.4531C57.2447 36.5395 57.1295 36.5827 56.9999 36.5827C56.8703 36.5827 56.7551 36.5395 56.6687 36.4531C56.5823 36.3667 56.5391 36.2227 56.5391 36.0499ZM57.3887 42.7171H56.5967V37.4755H57.3887V42.7171Z" fill="black"/>
<path d="M61.1768 42.8036C60.4136 42.8036 59.8376 42.5732 59.42 42.098C59.0024 41.6372 58.8008 40.9748 58.8008 40.1108C58.8008 39.2324 59.0168 38.5556 59.4344 38.0804C59.852 37.6052 60.4568 37.3604 61.2344 37.3604C61.4792 37.3604 61.7384 37.3892 61.9832 37.4468C62.228 37.5044 62.4296 37.562 62.5736 37.634L62.3288 38.3108C62.156 38.2388 61.9688 38.1812 61.7528 38.138C61.5512 38.0948 61.364 38.066 61.2056 38.066C60.14 38.066 59.6072 38.7428 59.6072 40.0964C59.6072 40.7444 59.7368 41.234 59.996 41.5796C60.2552 41.9252 60.644 42.098 61.148 42.098C61.58 42.098 62.0264 41.9972 62.4872 41.81V42.5156C62.1416 42.7172 61.7096 42.8036 61.1768 42.8036Z" fill="black"/>
<path d="M66.9647 42.7172L66.8063 41.9684H66.7631C66.5039 42.2996 66.2447 42.5156 65.9855 42.6308C65.7263 42.746 65.3951 42.8036 65.0063 42.8036C64.4879 42.8036 64.0847 42.674 63.7823 42.4004C63.4943 42.1268 63.3359 41.7524 63.3359 41.2628C63.3359 40.1972 64.1855 39.65 65.8703 39.5924L66.7631 39.5636V39.2468C66.7631 38.8292 66.6767 38.5268 66.5039 38.3396C66.3311 38.138 66.0431 38.0516 65.6543 38.0516C65.2223 38.0516 64.7183 38.1812 64.1711 38.4548L63.9263 37.85C64.1855 37.706 64.4735 37.6052 64.7759 37.5188C65.0783 37.4324 65.3951 37.4036 65.6975 37.4036C66.3167 37.4036 66.7919 37.5476 67.0799 37.8212C67.3823 38.0948 67.5263 38.5412 67.5263 39.1604V42.7316H66.9647V42.7172ZM65.1647 42.1556C65.6543 42.1556 66.0431 42.026 66.3311 41.7524C66.6191 41.4788 66.7487 41.1044 66.7487 40.6148V40.1396L65.9567 40.1684C65.3231 40.1972 64.8767 40.2836 64.5887 40.4564C64.3151 40.6292 64.1711 40.9028 64.1711 41.2628C64.1711 41.5508 64.2575 41.7668 64.4303 41.9108C64.6175 42.0836 64.8623 42.1556 65.1647 42.1556Z" fill="black"/>
<path d="M71.2842 42.8036C70.521 42.8036 69.945 42.5732 69.5274 42.098C69.1098 41.6372 68.9082 40.9748 68.9082 40.1108C68.9082 39.2324 69.1242 38.5556 69.5418 38.0804C69.9594 37.6052 70.5642 37.3604 71.3418 37.3604C71.5866 37.3604 71.8458 37.3892 72.0906 37.4468C72.3354 37.5044 72.537 37.562 72.681 37.634L72.4362 38.3108C72.2634 38.2388 72.0762 38.1812 71.8602 38.138C71.6586 38.0948 71.4714 38.066 71.313 38.066C70.2474 38.066 69.7146 38.7428 69.7146 40.0964C69.7146 40.7444 69.8442 41.234 70.1034 41.5796C70.3626 41.9252 70.7514 42.098 71.2554 42.098C71.6874 42.098 72.1338 41.9972 72.5946 41.81V42.5156C72.249 42.7172 71.817 42.8036 71.2842 42.8036Z" fill="black"/>
<path d="M77.4345 42.7171V39.3331C77.4345 38.9011 77.3337 38.5843 77.1465 38.3827C76.9449 38.1667 76.6425 38.0659 76.2393 38.0659C75.6921 38.0659 75.2889 38.2099 75.0297 38.5123C74.7705 38.8147 74.6553 39.3043 74.6553 39.9811V42.7171H73.8633V35.2723H74.6553V37.5187C74.6553 37.7923 74.6409 38.0083 74.6121 38.1955H74.6553C74.8137 37.9507 75.0297 37.7491 75.3177 37.6051C75.6057 37.4611 75.9369 37.3891 76.3113 37.3891C76.9449 37.3891 77.4345 37.5475 77.7513 37.8499C78.0681 38.1523 78.2265 38.6419 78.2265 39.3043V42.7171H77.4345Z" fill="black"/>
<path d="M82.0701 42.8036C81.2925 42.8036 80.6877 42.5732 80.2413 42.098C79.7949 41.6228 79.5645 40.9748 79.5645 40.1396C79.5645 39.29 79.7661 38.6276 80.1837 38.1236C80.6013 37.6196 81.1629 37.3748 81.8541 37.3748C82.5165 37.3748 83.0349 37.5908 83.4093 38.0228C83.7981 38.4548 83.9853 39.0308 83.9853 39.7364V40.2404H80.3708C80.3852 40.8596 80.5437 41.3204 80.8317 41.6372C81.1197 41.954 81.5373 42.1124 82.0845 42.1124C82.6461 42.1124 83.2076 41.9972 83.7548 41.7524V42.458C83.4812 42.5732 83.2076 42.6596 82.9628 42.7172C82.7324 42.7748 82.4301 42.8036 82.0701 42.8036ZM81.8541 38.0372C81.4365 38.0372 81.0909 38.1812 80.8461 38.4548C80.6013 38.7284 80.4429 39.1028 80.3997 39.5924H83.1357C83.1357 39.0884 83.0205 38.714 82.8045 38.4404C82.5885 38.1668 82.2717 38.0372 81.8541 38.0372Z" fill="black"/>
</g>
<defs>
<clipPath id="clip0_6744_66016">
<rect width="72" height="22.8384" fill="white" transform="translate(12 21.3907)"/>
</clipPath>
</defs>
</svg>
