<svg width="96" height="65" viewBox="0 0 96 65" fill="none" xmlns="http://www.w3.org/2000/svg">
<rect width="96" height="64" transform="translate(0 0.809937)" fill="white"/>
<g clip-path="url(#clip0_6744_65966)">
<g clip-path="url(#clip1_6744_65966)">
<path d="M54.5721 16.8838C54.8065 16.8838 54.9888 16.6928 54.9888 16.4671V13.307C54.9888 10.8067 50.431 8.85339 44.6057 8.85339C38.7804 8.85339 34.2227 10.8067 34.2227 13.307V35.3754C34.2227 37.8756 38.7804 39.829 44.6057 39.829C50.431 39.829 54.9888 37.8756 54.9888 35.3754V34.8458C54.9888 34.6114 54.7978 34.4291 54.5721 34.4291C54.3377 34.4291 54.1554 34.6201 54.1554 34.8458V35.3754C54.1554 37.1204 50.3182 38.9869 44.6144 38.9869C38.9107 38.9869 35.0648 37.1204 35.0648 35.3754V30.1491C36.6448 31.7291 40.2737 32.8143 44.6057 32.8143C45.335 32.8143 46.0729 32.7796 46.7848 32.7188C47.0192 32.7015 47.1841 32.4931 47.1668 32.2587C47.1494 32.0243 46.9411 31.8594 46.7067 31.8767C46.0208 31.9375 45.3176 31.9722 44.6057 31.9722C38.902 31.9722 35.0648 30.1057 35.0648 28.3607V22.848C36.6448 24.428 40.2737 25.5132 44.6057 25.5132C45.3437 25.5132 46.0729 25.4785 46.7848 25.4177C47.0192 25.4003 47.1841 25.192 47.1668 24.9576C47.1494 24.7232 46.9411 24.5582 46.7067 24.5756C46.0208 24.6364 45.3089 24.6711 44.597 24.6711C38.8933 24.6711 35.0561 22.8046 35.0561 21.0596V15.0954C36.6361 16.6754 40.265 17.7606 44.597 17.7606C48.9291 17.7606 52.5667 16.6754 54.138 15.0954V16.4671C54.1467 16.6928 54.3377 16.8838 54.5721 16.8838ZM44.6057 16.9185C38.902 16.9185 35.0648 15.052 35.0648 13.307C35.0648 11.562 38.902 9.6955 44.6057 9.6955C50.3095 9.6955 54.1467 11.562 54.1467 13.307C54.1467 15.052 50.3095 16.9185 44.6057 16.9185Z" fill="url(#paint0_linear_6744_65966)"/>
<path d="M61.5424 23.065C61.5337 23.0302 61.525 22.9955 61.5077 22.9608C61.5077 22.9521 61.499 22.9434 61.4903 22.9347C61.4729 22.9 61.4469 22.874 61.4208 22.8479L59.3026 20.7296L57.8962 19.3232L56.4898 17.9168C56.4116 17.8387 56.3074 17.7953 56.1946 17.7953H49.3015C49.0671 17.7953 48.8848 17.9863 48.8848 18.212V30.5571C48.8848 30.7915 49.0758 30.9738 49.3015 30.9738H50.2825V31.9548C50.2825 32.1892 50.4735 32.3715 50.6992 32.3715H51.6802V33.3525C51.6802 33.5869 51.8712 33.7692 52.0969 33.7692H61.117C61.3514 33.7692 61.5337 33.5783 61.5337 33.3525V23.1431C61.5511 23.117 61.5424 23.091 61.5424 23.065ZM59.4241 22.0405L60.1099 22.7264H59.4241V22.0405ZM49.7269 30.1404V18.6374H56.021L56.5853 19.2017H50.7079C50.4735 19.2017 50.2912 19.3927 50.2912 19.6184V30.1404H49.7269ZM51.1333 31.5468V20.0438H57.4274L57.9917 20.6081H52.1143C51.8799 20.6081 51.6976 20.7991 51.6976 21.0248V31.5468H51.1333ZM52.531 32.9532V21.4415H58.582V23.1431C58.582 23.3775 58.773 23.5598 58.9987 23.5598H60.7003V32.9445H52.531V32.9532Z" fill="url(#paint1_linear_6744_65966)"/>
<path d="M55.7251 25.1051C55.9248 24.9922 56.0029 24.7318 55.89 24.5321C55.7772 24.3324 55.5167 24.2543 55.317 24.3672C55.2823 24.3845 54.4055 24.888 54.4055 26.1382C54.4055 27.1279 53.9106 27.206 53.7544 27.2321C53.546 27.2668 53.3984 27.4404 53.3984 27.6488C53.3984 27.8571 53.546 28.0307 53.7544 28.0655C53.9193 28.0915 54.4055 28.1697 54.4055 29.1593C54.4055 30.4095 55.2736 30.913 55.317 30.9304C55.3778 30.9651 55.456 30.9825 55.5254 30.9825C55.673 30.9825 55.8206 30.9043 55.89 30.7654C56.0029 30.5657 55.9334 30.3053 55.7251 30.1924C55.7164 30.1924 55.2476 29.906 55.2476 29.1593C55.2476 28.3954 55.0132 27.9353 54.7267 27.6488C55.0132 27.371 55.2476 26.9022 55.2476 26.1382C55.2476 25.4003 55.7077 25.1138 55.7251 25.1051Z" fill="url(#paint2_linear_6744_65966)"/>
<path d="M59.4941 27.2408C59.3292 27.2148 58.843 27.1366 58.843 26.1469C58.843 24.8968 57.9748 24.3933 57.9314 24.3759C57.7318 24.263 57.4713 24.3325 57.3585 24.5409C57.2456 24.7405 57.315 25.001 57.5234 25.1138C57.5321 25.1138 58.0009 25.4003 58.0009 26.1469C58.0009 26.9109 58.2353 27.371 58.5218 27.6575C58.2353 27.9353 58.0009 28.4041 58.0009 29.1681C58.0009 29.8973 57.5494 30.1925 57.5234 30.2099C57.3237 30.3227 57.2543 30.5745 57.3671 30.7829C57.4453 30.9218 57.5842 30.9999 57.7318 30.9999C57.8012 30.9999 57.8707 30.9825 57.9401 30.9478C57.9748 30.9304 58.8517 30.4269 58.8517 29.1768C58.8517 28.1871 59.3465 28.109 59.5028 28.0829C59.7111 28.0482 59.8587 27.8745 59.8587 27.6662C59.8414 27.4492 59.6938 27.2668 59.4941 27.2408Z" fill="url(#paint3_linear_6744_65966)"/>
<path d="M38.0516 48.4845L37.5568 47.1128H35.6729L35.1867 48.4845H34.3359L36.1851 43.5273H37.0619L38.9111 48.4845H38.0516ZM37.3397 46.4183L36.8796 45.0727C36.8449 44.9858 36.8015 44.8382 36.7407 44.6473C36.6799 44.4563 36.6365 44.3087 36.6192 44.2219C36.5584 44.4997 36.4716 44.8035 36.35 45.1334L35.9073 46.4183H37.3397Z" fill="black"/>
<path d="M42.6182 48.4845H41.8195V46.1839C41.8195 45.8974 41.7674 45.6891 41.6545 45.5415C41.5504 45.4026 41.3767 45.3331 41.151 45.3331C40.8472 45.3331 40.6214 45.4286 40.4739 45.6283C40.3349 45.828 40.2568 46.1579 40.2568 46.618V48.4845H39.4668V44.7515H40.0919L40.2047 45.2376H40.2481C40.3523 45.064 40.4999 44.9251 40.6996 44.8296C40.8992 44.7341 41.1163 44.682 41.3507 44.682C41.9237 44.682 42.3056 44.8817 42.488 45.2723H42.54C42.6529 45.09 42.8092 44.9425 43.0088 44.8383C43.2085 44.7341 43.4342 44.682 43.6947 44.682C44.1374 44.682 44.4673 44.7949 44.667 45.0206C44.8667 45.2463 44.9709 45.5849 44.9709 46.0537V48.4845H44.1809V46.1839C44.1809 45.8974 44.1288 45.6891 44.0159 45.5415C43.903 45.4026 43.7381 45.3331 43.5037 45.3331C43.1912 45.3331 42.9741 45.4286 42.8265 45.6196C42.6876 45.8106 42.6095 46.1058 42.6095 46.5051V48.4845H42.6182Z" fill="black"/>
<path d="M48.4169 48.4845L48.2607 47.9636H48.2346C48.0523 48.1893 47.87 48.3456 47.6877 48.4237C47.5054 48.5019 47.271 48.5453 46.9845 48.5453C46.6199 48.5453 46.3334 48.4498 46.125 48.2501C45.9167 48.0504 45.8125 47.7726 45.8125 47.408C45.8125 47.026 45.9514 46.7308 46.2379 46.5398C46.5244 46.3402 46.9585 46.236 47.5401 46.2186L48.1825 46.2013V46.0016C48.1825 45.7672 48.1305 45.5849 48.0176 45.4633C47.9047 45.3418 47.7311 45.2897 47.4967 45.2897C47.3057 45.2897 47.1234 45.3158 46.9498 45.3765C46.7761 45.4286 46.6025 45.4981 46.4462 45.5762L46.1858 45.0119C46.3855 44.9077 46.6112 44.8296 46.8543 44.7688C47.0974 44.7167 47.3231 44.682 47.5401 44.682C48.0176 44.682 48.3735 44.7862 48.6166 44.9945C48.8597 45.2029 48.9812 45.5241 48.9812 45.9669V48.4845H48.4169ZM47.2363 47.9462C47.5228 47.9462 47.7572 47.8681 47.9308 47.7032C48.1044 47.5382 48.1912 47.3125 48.1912 47.026V46.7048L47.7137 46.7222C47.3404 46.7395 47.0713 46.8003 46.8977 46.9132C46.7241 47.026 46.6459 47.191 46.6459 47.4254C46.6459 47.5903 46.698 47.7205 46.7935 47.8073C46.889 47.9028 47.0366 47.9462 47.2363 47.9462Z" fill="black"/>
<path d="M52.5841 48.4845H49.7539V47.9983L51.6378 45.3592H49.8668V44.7515H52.532V45.3071L50.6828 47.8768H52.5841V48.4845Z" fill="black"/>
<path d="M56.7072 46.6093C56.7072 47.217 56.5509 47.6945 56.2384 48.0331C55.9259 48.3716 55.4918 48.5453 54.9362 48.5453C54.5889 48.5453 54.2764 48.4671 54.0073 48.3109C53.7381 48.1546 53.5298 47.9289 53.3909 47.6337C53.2433 47.3385 53.1738 47 53.1738 46.6093C53.1738 46.0016 53.3301 45.5328 53.6426 45.1942C53.9552 44.8556 54.3892 44.682 54.9535 44.682C55.4918 44.682 55.9172 44.8556 56.2384 45.2029C56.5422 45.5502 56.7072 46.019 56.7072 46.6093ZM53.9899 46.6093C53.9899 47.4688 54.3111 47.9028 54.9449 47.9028C55.5786 47.9028 55.8911 47.4688 55.8911 46.6093C55.8911 45.7585 55.5699 45.3331 54.9362 45.3331C54.6063 45.3331 54.3632 45.446 54.2156 45.663C54.0593 45.8801 53.9899 46.2013 53.9899 46.6093Z" fill="black"/>
<path d="M60.9016 48.4845H60.1029V46.1926C60.1029 45.9061 60.0421 45.6891 59.9293 45.5502C59.8164 45.4113 59.6254 45.3331 59.3737 45.3331C59.0351 45.3331 58.792 45.4286 58.6357 45.6283C58.4795 45.828 58.4013 46.1579 58.4013 46.6267V48.4845H57.6113V44.7515H58.2364L58.3493 45.2376H58.3927C58.5055 45.064 58.6618 44.9251 58.8701 44.8296C59.0785 44.7341 59.3042 44.682 59.556 44.682C60.4502 44.682 60.9016 45.1334 60.9016 46.045V48.4845Z" fill="black"/>
<path d="M30.3331 54.2664C30.3331 55.0824 30.1074 55.7075 29.656 56.1329C29.2045 56.567 28.5534 56.7753 27.7026 56.7753H26.3223V51.8442H27.8502C28.6315 51.8442 29.2479 52.0526 29.682 52.478C30.1161 52.9034 30.3331 53.4937 30.3331 54.2664ZM29.4823 54.2924C29.4823 53.1117 28.9267 52.5214 27.8242 52.5214H27.1296V56.0982H27.7026C28.892 56.0982 29.4823 55.4991 29.4823 54.2924Z" fill="black"/>
<path d="M34.6213 54.9087C34.6213 55.5164 34.465 55.9939 34.1525 56.3325C33.8399 56.6711 33.4059 56.8447 32.8502 56.8447C32.503 56.8447 32.1904 56.7666 31.9213 56.6103C31.6522 56.454 31.4438 56.2283 31.3049 55.9332C31.1573 55.638 31.0879 55.2994 31.0879 54.9087C31.0879 54.301 31.2442 53.8322 31.5567 53.4937C31.8692 53.1551 32.3033 52.9814 32.8676 52.9814C33.4059 52.9814 33.8312 53.1551 34.1525 53.5023C34.465 53.8496 34.6213 54.3184 34.6213 54.9087ZM31.904 54.9087C31.904 55.7682 32.2252 56.2023 32.8589 56.2023C33.4927 56.2023 33.8052 55.7682 33.8052 54.9087C33.8052 54.058 33.484 53.6326 32.8502 53.6326C32.5203 53.6326 32.2773 53.7454 32.1297 53.9625C31.9734 54.1795 31.904 54.492 31.904 54.9087Z" fill="black"/>
<path d="M37.0343 56.8447C36.47 56.8447 36.0446 56.6798 35.7494 56.3499C35.4542 56.02 35.3066 55.5512 35.3066 54.9348C35.3066 54.3097 35.4629 53.8235 35.7668 53.485C36.0706 53.1464 36.5134 52.9814 37.095 52.9814C37.4857 52.9814 37.8416 53.0509 38.1542 53.1985L37.9111 53.8322C37.5725 53.702 37.3034 53.6326 37.0777 53.6326C36.4352 53.6326 36.1053 54.058 36.1053 54.9174C36.1053 55.3341 36.1835 55.6467 36.3484 55.8637C36.5134 56.0721 36.7478 56.1762 37.0516 56.1762C37.4076 56.1762 37.7375 56.0894 38.05 55.9158V56.6103C37.9111 56.6971 37.7548 56.7492 37.5986 56.7926C37.4597 56.8274 37.26 56.8447 37.0343 56.8447Z" fill="black"/>
<path d="M41.5851 56.7753L41.4723 56.2891H41.4289C41.316 56.4627 41.1597 56.6016 40.9601 56.6971C40.7604 56.7926 40.526 56.8447 40.2656 56.8447C39.8141 56.8447 39.4755 56.7319 39.2498 56.5062C39.0241 56.2804 38.9199 55.9419 38.9199 55.4817V53.0422H39.7186V55.3428C39.7186 55.6293 39.7794 55.8464 39.8923 55.9853C40.0051 56.1242 40.1961 56.2023 40.4392 56.2023C40.7691 56.2023 41.0208 56.1068 41.1771 55.9071C41.3334 55.7075 41.4115 55.3776 41.4115 54.9088V53.0509H42.2102V56.784H41.5851V56.7753Z" fill="black"/>
<path d="M46.4815 56.7753H45.6828V54.4747C45.6828 54.1882 45.6307 53.9798 45.5178 53.8323C45.4136 53.6934 45.24 53.6239 45.0143 53.6239C44.7104 53.6239 44.4847 53.7194 44.3371 53.9191C44.1982 54.1187 44.1201 54.4486 44.1201 54.9088V56.7666H43.3301V53.0336H43.9551L44.068 53.5197H44.1114C44.2156 53.3461 44.3632 53.2072 44.5629 53.1117C44.7625 53.0162 44.9796 52.9641 45.214 52.9641C45.7869 52.9641 46.1689 53.1638 46.3512 53.5545H46.4033C46.5162 53.3721 46.6725 53.2246 46.8721 53.1204C47.0718 53.0162 47.2975 52.9641 47.558 52.9641C48.0007 52.9641 48.3306 53.077 48.5303 53.3027C48.73 53.5284 48.8341 53.867 48.8341 54.3358V56.7666H48.0441V54.4747C48.0441 54.1882 47.992 53.9798 47.8792 53.8323C47.7663 53.6934 47.6014 53.6239 47.367 53.6239C47.0544 53.6239 46.8374 53.7194 46.6898 53.9104C46.5509 54.1014 46.4728 54.3966 46.4728 54.7959V56.7753H46.4815Z" fill="black"/>
<path d="M51.5766 56.8447C50.9949 56.8447 50.5435 56.6798 50.2136 56.3412C49.8837 56.0026 49.7188 55.5338 49.7188 54.9435C49.7188 54.3358 49.8663 53.8583 50.1702 53.5023C50.474 53.1551 50.8908 52.9814 51.4203 52.9814C51.9152 52.9814 52.3058 53.129 52.5923 53.4329C52.8788 53.7281 53.0177 54.1448 53.0177 54.6657V55.091H50.5348C50.5435 55.4557 50.6477 55.7335 50.83 55.9245C51.0123 56.1155 51.2727 56.2196 51.6113 56.2196C51.8284 56.2196 52.0367 56.2023 52.2277 56.1589C52.4187 56.1155 52.6184 56.046 52.8441 55.9505V56.593C52.6531 56.6884 52.4534 56.7492 52.2537 56.7926C52.0541 56.8274 51.8284 56.8447 51.5766 56.8447ZM51.429 53.5805C51.1772 53.5805 50.9776 53.6586 50.8213 53.8236C50.6737 53.9798 50.5782 54.2142 50.5522 54.5181H52.2451C52.2364 54.2142 52.1669 53.9798 52.0193 53.8149C51.8804 53.6586 51.6808 53.5805 51.429 53.5805Z" fill="black"/>
<path d="M57.2113 56.7753H56.4213V54.4834C56.4213 54.1969 56.3605 53.9798 56.2476 53.8409C56.1348 53.702 55.9438 53.6239 55.692 53.6239C55.3535 53.6239 55.1104 53.7194 54.9541 53.9191C54.7978 54.1187 54.7197 54.4486 54.7197 54.9174V56.7753H53.9297V53.0422H54.5548L54.6676 53.5284H54.711C54.8239 53.3548 54.9801 53.2159 55.1885 53.1204C55.3969 53.0249 55.6226 52.9728 55.8743 52.9728C56.7685 52.9728 57.22 53.4242 57.22 54.3358V56.7753H57.2113Z" fill="black"/>
<path d="M59.7107 56.2024C59.9017 56.2024 60.1014 56.1676 60.2924 56.1069V56.7059C60.2055 56.7406 60.0927 56.7753 59.9538 56.8014C59.8149 56.8274 59.676 56.8361 59.5197 56.8361C58.7644 56.8361 58.3911 56.4368 58.3911 55.6467V53.6326H57.8789V53.2854L58.4258 52.9989L58.695 52.2089H59.1811V53.0423H60.2403V53.6413H59.1811V55.6381C59.1811 55.829 59.2245 55.968 59.3287 56.0634C59.4242 56.1589 59.5544 56.2024 59.7107 56.2024Z" fill="black"/>
<path d="M65.128 54.2664C65.128 55.0824 64.9023 55.7075 64.4509 56.1329C63.9994 56.567 63.3483 56.7753 62.4975 56.7753H61.1172V51.8442H62.6451C63.4265 51.8442 64.0429 52.0526 64.4769 52.478C64.911 52.9034 65.128 53.4937 65.128 54.2664ZM64.2773 54.2924C64.2773 53.1117 63.7216 52.5214 62.6191 52.5214H61.9246V56.0982H62.4975C63.6869 56.0982 64.2773 55.4991 64.2773 54.2924Z" fill="black"/>
<path d="M66.1875 51.8442H67.6547C68.3318 51.8442 68.8267 51.9397 69.1305 52.1394C69.4344 52.3391 69.582 52.6516 69.582 53.077C69.582 53.3635 69.5038 53.6066 69.3562 53.7976C69.2087 53.9886 68.9916 54.1101 68.7138 54.1622V54.1969C69.0611 54.2664 69.3128 54.3879 69.4778 54.5876C69.6427 54.7786 69.7209 55.039 69.7209 55.3689C69.7209 55.8117 69.5646 56.1589 69.2607 56.4107C68.9482 56.6625 68.5228 56.784 67.9672 56.784H66.1875V51.8442ZM66.9949 53.8844H67.7675C68.1061 53.8844 68.3492 53.8323 68.5055 53.7281C68.6617 53.6239 68.7399 53.4416 68.7399 53.1812C68.7399 52.9468 68.653 52.7818 68.4881 52.6777C68.3231 52.5735 68.054 52.5214 67.6894 52.5214H66.9949V53.8844ZM66.9949 54.5355V56.0982H67.8543C68.1929 56.0982 68.4447 56.0374 68.6183 55.9072C68.7919 55.777 68.8788 55.5773 68.8788 55.2908C68.8788 55.0303 68.7919 54.848 68.6183 54.7178C68.4447 54.5876 68.1756 54.5355 67.8196 54.5355H66.9949Z" fill="black"/>
</g>
</g>
<defs>
<linearGradient id="paint0_linear_6744_65966" x1="34.2215" y1="24.3398" x2="54.9897" y2="24.3398" gradientUnits="userSpaceOnUse">
<stop stop-color="#D25535"/>
<stop offset="1" stop-color="#E08B20"/>
</linearGradient>
<linearGradient id="paint1_linear_6744_65966" x1="48.8612" y1="25.7934" x2="64.8627" y2="25.7934" gradientUnits="userSpaceOnUse">
<stop stop-color="#D25535"/>
<stop offset="1" stop-color="#E08B20"/>
</linearGradient>
<linearGradient id="paint2_linear_6744_65966" x1="48.8605" y1="27.6526" x2="64.862" y2="27.6526" gradientUnits="userSpaceOnUse">
<stop stop-color="#D25535"/>
<stop offset="1" stop-color="#E08B20"/>
</linearGradient>
<linearGradient id="paint3_linear_6744_65966" x1="48.8618" y1="27.6527" x2="64.8632" y2="27.6527" gradientUnits="userSpaceOnUse">
<stop stop-color="#D25535"/>
<stop offset="1" stop-color="#E08B20"/>
</linearGradient>
<clipPath id="clip0_6744_65966">
<rect width="72" height="48" fill="white" transform="translate(12 8.80994)"/>
</clipPath>
<clipPath id="clip1_6744_65966">
<rect width="43.4075" height="48" fill="white" transform="translate(26.2969 8.80994)"/>
</clipPath>
</defs>
</svg>
