<svg width="96" height="65" viewBox="0 0 96 65" fill="none" xmlns="http://www.w3.org/2000/svg">
<rect width="96" height="64" transform="translate(0 0.809937)" fill="white"/>
<g clip-path="url(#clip0_6744_65889)">
<path d="M14.0197 22.924L12 23.9263V41.6541L14.0197 42.6583L14.031 42.6432V22.924H14.0197Z" fill="#8C3123"/>
<path d="M24.8288 40.0857L14.0195 42.6583V22.924L24.8288 25.4326V40.0838" fill="#E05243"/>
<path d="M19.9512 36.0575L24.5359 36.6405L24.5641 36.5747L24.5904 29.0526L24.5359 28.9943L19.9512 29.5716V36.0575Z" fill="#8C3123"/>
<path d="M24.5352 40.1139L35.0492 42.6695L35.0661 42.6432V22.9333L35.0492 22.9164L24.5352 25.4626V40.1139Z" fill="#8C3123"/>
<path d="M29.112 36.0576L24.5254 36.6406V28.9962L29.112 29.5717V36.0576Z" fill="#E05243"/>
<path d="M29.1131 26.4367L24.5359 27.2717L19.9512 26.4367L24.5303 25.2369L29.1131 26.4367Z" fill="#5E1F18"/>
<path d="M29.1131 39.185L24.5359 38.3444L19.9512 39.185L24.5303 40.4637L29.1131 39.185Z" fill="#F2B0A9"/>
<path d="M19.9512 26.4368L24.5359 25.3085L24.5735 25.2972V17.6885L24.5359 17.6584L19.9512 19.9508V26.4368Z" fill="#8C3123"/>
<path d="M29.112 26.4368L24.5254 25.3085V17.6584L29.112 19.9508V26.4368Z" fill="#E05243"/>
<path d="M24.5358 47.9614L19.9492 45.6784V39.1849L24.534 40.3133L24.6017 40.3904L24.5829 47.8241L24.534 47.9557" fill="#8C3123"/>
<path d="M24.5348 47.9614L29.112 45.6784V39.1849L24.5254 40.3132V47.9557M35.0489 22.924L37.0704 23.9338V41.6541L35.0489 42.6696V22.924Z" fill="#E05243"/>
<path d="M66.3915 26.2017V25.2615C66.3905 25.2296 66.396 25.1978 66.4077 25.1681C66.4194 25.1384 66.4371 25.1115 66.4597 25.0889C66.4822 25.0664 66.5092 25.0487 66.5389 25.0369C66.5685 25.0252 66.6003 25.0197 66.6322 25.0208H70.8784C70.9105 25.0197 70.9424 25.0252 70.9723 25.0369C71.0022 25.0486 71.0294 25.0662 71.0522 25.0887C71.0751 25.1112 71.0932 25.1382 71.1053 25.1679C71.1175 25.1975 71.1234 25.2294 71.1229 25.2615V26.0645C71.1229 26.1998 71.0063 26.3785 70.8032 26.6606L68.6049 29.803C69.4442 29.7557 70.2808 29.9349 71.027 30.322C71.0947 30.3589 71.1514 30.4132 71.1911 30.4793C71.2307 30.5454 71.252 30.621 71.2527 30.6981V31.7098C71.2527 31.8471 71.1004 32.0088 70.9405 31.9261C70.2472 31.5682 69.4782 31.3815 68.698 31.3815C67.9177 31.3815 67.1488 31.5682 66.4554 31.9261C66.3088 32.0069 66.1545 31.8452 66.1545 31.7079V30.747C66.1404 30.5188 66.1947 30.2915 66.3106 30.0944L68.8588 26.4387H66.636C66.604 26.44 66.5721 26.4347 66.5422 26.4232C66.5124 26.4118 66.4852 26.3943 66.4623 26.3719C66.4394 26.3496 66.4213 26.3228 66.4091 26.2932C66.397 26.2636 66.391 26.2318 66.3915 26.1998" fill="#201C1D"/>
<path d="M50.9021 32.1179H49.6102C49.5517 32.115 49.4961 32.0912 49.4537 32.0509C49.4112 32.0105 49.3847 31.9562 49.3789 31.8979V25.269C49.3794 25.237 49.3862 25.2054 49.399 25.176C49.4117 25.1466 49.4302 25.1201 49.4533 25.0979C49.4764 25.0757 49.5036 25.0583 49.5334 25.0466C49.5633 25.035 49.5951 25.0294 49.6271 25.0302H50.8307C50.8903 25.0318 50.9472 25.0553 50.9906 25.0963C51.0339 25.1372 51.0607 25.1927 51.0657 25.2521V26.1209H51.0902C51.4042 25.284 51.9947 24.8929 52.7827 24.8929C53.5706 24.8929 54.099 25.284 54.4601 26.1209C54.5799 25.8055 54.7812 25.5276 55.0435 25.3154C55.3058 25.1033 55.6196 24.9645 55.9531 24.9132C56.2865 24.862 56.6276 24.9001 56.9415 25.0238C57.2553 25.1474 57.5308 25.352 57.7398 25.6169C58.1478 26.1811 58.0651 26.984 58.0651 27.6949V31.8791C58.0646 31.9112 58.0578 31.9429 58.045 31.9723C58.0323 32.0018 58.0139 32.0285 57.9908 32.0508C57.9678 32.0732 57.9406 32.0908 57.9107 32.1026C57.8809 32.1144 57.849 32.1203 57.8169 32.1198H56.5268C56.4648 32.1165 56.4062 32.0898 56.363 32.0452C56.3197 32.0005 56.295 31.9412 56.2936 31.8791V28.3644C56.3128 27.9497 56.3009 27.5342 56.2579 27.1213C56.162 26.6756 55.8818 26.5572 55.5057 26.5572C55.3378 26.5621 55.175 26.6162 55.0376 26.7128C54.9002 26.8095 54.7942 26.9443 54.7328 27.1006C54.5993 27.4354 54.6124 27.9939 54.6124 28.37V31.8791C54.6119 31.9112 54.6051 31.9429 54.5924 31.9723C54.5796 32.0018 54.5612 32.0285 54.5382 32.0508C54.5151 32.0732 54.4879 32.0908 54.458 32.1026C54.4282 32.1144 54.3963 32.1203 54.3642 32.1198H53.0742C53.0119 32.1169 52.9532 32.0904 52.9098 32.0457C52.8665 32.0009 52.8419 31.9413 52.841 31.8791V28.3644C52.841 27.6253 52.9632 26.5365 52.0455 26.5365C51.1278 26.5365 51.1541 27.5971 51.1541 28.3644V31.8791C51.1536 31.9112 51.1468 31.9429 51.1341 31.9723C51.1213 32.0018 51.1029 32.0285 51.0799 32.0508C51.0568 32.0732 51.0296 32.0908 50.9997 32.1026C50.9699 32.1144 50.938 32.1203 50.9059 32.1198" fill="#201C1D"/>
<path d="M74.7765 24.891C76.6927 24.891 77.7308 26.5365 77.7308 28.6295C77.7308 30.6511 76.5836 32.2552 74.7765 32.2552C72.8959 32.2552 71.8691 30.6097 71.8691 28.558C71.8691 26.5064 72.9072 24.891 74.7765 24.891ZM74.7877 26.245C73.8362 26.245 73.776 27.5425 73.776 28.3512C73.776 29.1598 73.7628 30.8899 74.7765 30.8899C75.7901 30.8899 75.8239 29.4945 75.8239 28.6445C75.8466 28.0524 75.7832 27.4602 75.6359 26.8862C75.596 26.6956 75.4886 26.5257 75.3334 26.4079C75.1783 26.2901 74.9859 26.2322 74.7915 26.245" fill="#201C1D"/>
<path d="M80.2148 32.1179H78.9285C78.8664 32.1145 78.8079 32.0879 78.7647 32.0433C78.7214 31.9986 78.6966 31.9393 78.6953 31.8771V25.2483C78.7024 25.1871 78.7322 25.1309 78.779 25.0908C78.8257 25.0507 78.8858 25.0297 78.9473 25.032H80.1452C80.199 25.0338 80.2508 25.0531 80.2925 25.0871C80.3343 25.121 80.3638 25.1677 80.3765 25.2201V26.2337H80.401C80.762 25.3272 81.2698 24.8947 82.1611 24.8947C82.4584 24.8811 82.7539 24.946 83.0181 25.0831C83.2822 25.2201 83.5055 25.4243 83.6656 25.6751C84.0041 26.2055 84.0041 27.0968 84.0041 27.7437V31.9091C83.9946 31.9679 83.9643 32.0213 83.9187 32.0596C83.8732 32.0979 83.8154 32.1186 83.7558 32.1179H82.4601C82.4037 32.115 82.3499 32.0926 82.3081 32.0545C82.2663 32.0165 82.2389 31.9651 82.2307 31.9091V28.3079C82.2307 27.5839 82.3135 26.5214 81.4221 26.5214C81.2588 26.5275 81.1009 26.5809 80.9674 26.675C80.8339 26.7692 80.7305 26.9 80.6699 27.0517C80.5104 27.4504 80.4405 27.8792 80.4649 28.3079V31.8809C80.4629 31.9461 80.4354 32.0079 80.3882 32.0529C80.3411 32.098 80.2781 32.1226 80.2129 32.1216" fill="#201C1D"/>
<path d="M48.3731 30.9031C48.1362 30.5759 47.8861 30.3107 47.8861 29.7052V27.693C47.8861 26.8412 47.9463 26.0588 47.3219 25.4721C46.8255 24.9963 46.0055 24.829 45.3756 24.829C44.1476 24.829 42.7767 25.2859 42.4871 26.8054C42.4811 26.8356 42.4813 26.8667 42.4876 26.8968C42.4939 26.9269 42.5062 26.9554 42.5237 26.9807C42.5413 27.0059 42.5637 27.0274 42.5897 27.0438C42.6157 27.0602 42.6448 27.0713 42.6751 27.0762L43.9294 27.2097C43.9881 27.2006 44.0421 27.1725 44.0832 27.1297C44.1244 27.0869 44.1503 27.0318 44.157 26.9728C44.2642 26.45 44.7042 26.198 45.1969 26.198C45.3358 26.1918 45.4741 26.2192 45.6001 26.2778C45.7261 26.3364 45.8362 26.4245 45.9209 26.5346C46.109 26.7998 46.077 27.1627 46.077 27.4749V27.6423C45.3248 27.7269 44.3488 27.7814 43.6474 28.0917C43.2287 28.2596 42.8719 28.5524 42.6256 28.9303C42.3793 29.3081 42.2554 29.7527 42.2708 30.2035C42.2708 31.5462 43.1171 32.2157 44.204 32.2157C45.1236 32.2157 45.6238 31.9995 46.3328 31.2755C46.5247 31.6051 46.7744 31.8974 47.0699 32.1386C47.1177 32.1652 47.1725 32.1765 47.227 32.1712C47.2814 32.1658 47.3329 32.1439 47.3746 32.1085C47.6322 31.8791 48.1005 31.471 48.3637 31.251C48.3876 31.229 48.4068 31.2025 48.4203 31.173C48.4337 31.1434 48.4411 31.1115 48.442 31.079C48.4429 31.0466 48.4372 31.0143 48.4254 30.9841C48.4136 30.9539 48.3958 30.9263 48.3731 30.9031ZM45.8307 30.322C45.7481 30.491 45.6217 30.6346 45.4645 30.7379C45.3073 30.8411 45.1253 30.9001 44.9374 30.9087C44.4409 30.9087 44.1532 30.5326 44.1532 29.9685C44.1532 28.8684 45.1405 28.6671 46.0732 28.6671V28.9473C46.0732 29.4551 46.0845 29.882 45.8307 30.322Z" fill="#201C1D"/>
<path d="M65.3065 30.9031C65.0695 30.5759 64.8194 30.3107 64.8194 29.7052V27.693C64.8194 26.8412 64.8796 26.0588 64.2553 25.4721C63.7588 24.9963 62.9389 24.829 62.3089 24.829C61.0809 24.829 59.7081 25.2859 59.4204 26.8054C59.4142 26.8356 59.4142 26.8668 59.4204 26.897C59.4265 26.9272 59.4388 26.9558 59.4564 26.9811C59.474 27.0065 59.4965 27.028 59.5227 27.0443C59.5488 27.0606 59.578 27.0715 59.6085 27.0762L60.8609 27.2097C60.9192 27.2003 60.9728 27.172 61.0136 27.1292C61.0543 27.0864 61.0799 27.0315 61.0866 26.9728C61.1938 26.45 61.6319 26.198 62.1246 26.198C62.2635 26.1913 62.402 26.2185 62.5281 26.2771C62.6542 26.3358 62.7642 26.4241 62.8486 26.5346C63.0367 26.7998 63.0066 27.1627 63.0066 27.4749V27.6423C62.2544 27.7269 61.2784 27.7814 60.5769 28.0917C60.1597 28.2592 59.8041 28.5509 59.5582 28.9273C59.3123 29.3037 59.188 29.7466 59.2023 30.196C59.2023 31.5387 60.0466 32.2082 61.1355 32.2082C62.0532 32.2082 62.5553 31.9919 63.2642 31.2679C63.4554 31.6008 63.7059 31.8959 64.0033 32.1386C64.0511 32.1652 64.1059 32.1765 64.1603 32.1711C64.2147 32.1658 64.2662 32.1439 64.3079 32.1085C64.5656 31.8791 65.0338 31.471 65.2971 31.251C65.3207 31.2289 65.3398 31.2023 65.3531 31.1728C65.3663 31.1433 65.3736 31.1114 65.3745 31.079C65.3754 31.0467 65.3698 31.0144 65.3581 30.9842C65.3465 30.954 65.3289 30.9265 65.3065 30.9031ZM62.7659 30.322C62.6832 30.4909 62.5567 30.6344 62.3995 30.7376C62.2424 30.8408 62.0604 30.8999 61.8726 30.9087C61.3762 30.9087 61.0866 30.5326 61.0866 29.9685C61.0866 28.8684 62.0738 28.6671 63.0085 28.6671V28.9473C63.0066 29.4551 63.0198 29.882 62.764 30.322H62.7659Z" fill="#201C1D"/>
<path d="M46.6732 39.2094C46.531 38.9275 46.3234 38.6838 46.0677 38.4986C45.7277 38.2737 45.3653 38.0847 44.9864 37.9344C44.5821 37.787 44.2018 37.5804 43.8581 37.3213C43.7606 37.2308 43.6839 37.1202 43.6333 36.9971C43.5827 36.8741 43.5593 36.7416 43.5647 36.6086C43.5622 36.3473 43.6536 36.0937 43.8223 35.894C43.9128 35.7885 44.0264 35.7051 44.1542 35.6503C44.282 35.5955 44.4207 35.5708 44.5595 35.5781C44.7079 35.5705 44.8562 35.5938 44.9951 35.6466C45.134 35.6993 45.2604 35.7804 45.3663 35.8846C45.5842 36.1377 45.7395 36.4385 45.8195 36.7628L46.7165 36.4168C46.4062 35.2264 45.6954 34.6247 44.6065 34.6247C44.3264 34.6128 44.0471 34.6615 43.7875 34.7672C43.5279 34.873 43.2941 35.0335 43.1021 35.2377C42.7998 35.5878 42.6087 36.0201 42.5531 36.4793C42.4975 36.9384 42.58 37.4038 42.7899 37.8159C42.9338 38.0964 43.1443 38.3373 43.403 38.5174C43.7851 38.7473 44.1858 38.9448 44.6009 39.1079C45.1406 39.3373 45.4716 39.5479 45.6107 39.7529C45.7456 39.9487 45.8178 40.1808 45.8176 40.4186C45.8255 40.7208 45.7179 41.0147 45.5167 41.2404C45.403 41.356 45.2657 41.4458 45.1141 41.5035C44.9626 41.5613 44.8003 41.5857 44.6385 41.5751C43.8731 41.5751 43.3879 41.0993 43.1961 40.161L42.2559 40.4543C42.5624 41.8365 43.3447 42.538 44.5858 42.538C45.3117 42.538 45.8853 42.3123 46.2783 41.8685C46.681 41.4237 46.8983 40.8417 46.8857 40.2418C46.8987 39.8856 46.8258 39.5315 46.6732 39.2094Z" fill="black"/>
<path d="M50.7803 38.4289L50.6618 38.3932L50.7747 38.3405C51.1047 38.2028 51.3838 37.966 51.5735 37.6628C51.7632 37.3597 51.854 37.0051 51.8334 36.648C51.8466 36.3786 51.8065 36.1092 51.7155 35.8553C51.6245 35.6013 51.4844 35.3678 51.3031 35.1681C51.1099 34.982 50.8804 34.8378 50.6291 34.7443C50.3777 34.6508 50.1097 34.61 49.8419 34.6246C48.7738 34.6246 48.0705 35.2301 47.7545 36.4243L48.6309 36.6499C48.8189 35.8977 49.195 35.5103 49.7592 35.5103C49.9033 35.5032 50.0471 35.5312 50.1781 35.5917C50.3091 35.6523 50.4234 35.7438 50.5114 35.8582C50.6688 36.1072 50.7594 36.3926 50.7742 36.6868C50.789 36.981 50.7276 37.274 50.596 37.5375C50.5009 37.7143 50.3473 37.8525 50.1616 37.9287C49.9342 37.9962 49.6972 38.026 49.4602 38.0171H49.069V38.8633H49.4602C50.0093 38.8633 50.4004 38.9893 50.6017 39.2394C50.8166 39.5103 50.9273 39.8492 50.9138 40.1947C50.9138 40.6855 50.7972 41.0485 50.5697 41.2779C50.4637 41.3876 50.3365 41.4746 50.1959 41.5338C50.0553 41.5929 49.9042 41.623 49.7517 41.622C49.0784 41.622 48.6478 41.182 48.4673 40.3057L47.5684 40.5426C47.6812 41.2347 47.9445 41.7424 48.3375 42.047C48.7639 42.3723 49.2889 42.5415 49.825 42.5266C50.1173 42.5372 50.4088 42.4893 50.6824 42.3856C50.9559 42.2819 51.2059 42.1246 51.4178 41.9229C51.8278 41.5224 52.0365 40.9657 52.0365 40.2643C52.0252 39.2845 51.619 38.6809 50.7803 38.4289Z" fill="black"/>
</g>
<defs>
<clipPath id="clip0_6744_65889">
<rect width="72" height="30.3029" fill="white" transform="translate(12 17.6584)"/>
</clipPath>
</defs>
</svg>
