<svg width="51" height="50" viewBox="0 0 51 50" fill="none" xmlns="http://www.w3.org/2000/svg">
<g id="data-visualization.svg" clip-path="url(#clip0_7219_73625)">
<path id="Vector" d="M50.0056 47.145C49.7258 47.0591 49.4323 47.0268 49.1406 47.05C33.7206 47.05 18.3023 47.05 2.88559 47.05C1.99559 47.05 1.34559 47.31 0.975586 48.14V48.92C1.34559 49.735 1.97059 50 2.88559 50C18.2856 50 33.6873 50 49.0906 50C49.2506 50 49.4156 50 49.5906 50C49.9285 49.9836 50.2504 49.8508 50.5015 49.624C50.7527 49.3973 50.9175 49.0906 50.9682 48.756C51.0188 48.4215 50.9521 48.0797 50.7794 47.7888C50.6067 47.4979 50.3385 47.2757 50.0206 47.16L50.0056 47.145ZM17.1156 2.91C19.1156 2.91 21.1156 2.91 23.1156 2.91C23.36 2.9014 23.5981 2.83048 23.8074 2.70399C24.0167 2.57749 24.1902 2.3996 24.3114 2.18721C24.4326 1.97483 24.4976 1.73498 24.5 1.49045C24.5025 1.24592 24.4425 1.0048 24.3256 0.79C24.1156 0.38 23.7156 0.27 23.4256 0H16.7906C16.7406 0.145 16.5906 0.145 16.4806 0.21C16.2241 0.359677 16.0178 0.582125 15.8878 0.849159C15.7579 1.11619 15.7101 1.41579 15.7506 1.71C15.809 2.03487 15.9757 2.33036 16.2236 2.5483C16.4715 2.76623 16.7859 2.89373 17.1156 2.91ZM29.0006 26.36H34.6506C34.8531 26.3768 35.057 26.3513 35.2492 26.2853C35.4414 26.2193 35.6179 26.1141 35.7674 25.9764C35.9169 25.8388 36.0363 25.6716 36.1179 25.4854C36.1996 25.2993 36.2417 25.0983 36.2417 24.895C36.2417 24.6917 36.1996 24.4907 36.1179 24.3046C36.0363 24.1184 35.9169 23.9512 35.7674 23.8136C35.6179 23.6759 35.4414 23.5707 35.2492 23.5047C35.057 23.4387 34.8531 23.4133 34.6506 23.43H28.9956C28.793 23.4133 28.5892 23.4387 28.397 23.5047C28.2047 23.5707 28.0283 23.6759 27.8787 23.8136C27.7292 23.9512 27.6099 24.1184 27.5282 24.3046C27.4466 24.4907 27.4044 24.6917 27.4044 24.895C27.4044 25.0983 27.4466 25.2993 27.5282 25.4854C27.6099 25.6716 27.7292 25.8388 27.8787 25.9764C28.0283 26.1141 28.2047 26.2193 28.397 26.2853C28.5892 26.3513 28.793 26.3768 28.9956 26.36H29.0006ZM28.9706 20.5H34.6706C34.8698 20.5117 35.0694 20.4825 35.2569 20.4142C35.4445 20.346 35.6162 20.2402 35.7613 20.1032C35.9065 19.9663 36.0222 19.8011 36.1013 19.6178C36.1803 19.4346 36.2211 19.2371 36.2211 19.0375C36.2211 18.8379 36.1803 18.6404 36.1013 18.4572C36.0222 18.2739 35.9065 18.1087 35.7613 17.9718C35.6162 17.8348 35.4445 17.729 35.2569 17.6608C35.0694 17.5925 34.8698 17.5633 34.6706 17.575H28.9956C28.7965 17.5618 28.5968 17.5893 28.4088 17.656C28.2208 17.7227 28.0483 17.8271 27.9021 17.9628C27.7558 18.0985 27.6388 18.2626 27.5582 18.4452C27.4777 18.6277 27.4352 18.8247 27.4335 19.0243C27.4318 19.2238 27.4709 19.4215 27.5483 19.6054C27.6257 19.7893 27.7399 19.9554 27.8838 20.0936C28.0278 20.2317 28.1984 20.3391 28.3853 20.4089C28.5721 20.4788 28.7713 20.5098 28.9706 20.5ZM40.7106 20.5H46.3606C46.5596 20.5135 46.7593 20.4862 46.9474 20.4198C47.1355 20.3534 47.3081 20.2493 47.4545 20.1139C47.601 19.9785 47.7182 19.8145 47.7991 19.6322C47.8799 19.4498 47.9227 19.2529 47.9247 19.0534C47.9268 18.8539 47.8881 18.6561 47.811 18.4722C47.7339 18.2882 47.62 18.1219 47.4764 17.9835C47.3327 17.845 47.1623 17.7374 46.9756 17.6672C46.7889 17.5969 46.5898 17.5656 46.3906 17.575H40.6856C40.4863 17.5633 40.2868 17.5925 40.0992 17.6608C39.9117 17.729 39.74 17.8348 39.5948 17.9718C39.4496 18.1087 39.334 18.2739 39.2549 18.4572C39.1758 18.6404 39.135 18.8379 39.135 19.0375C39.135 19.2371 39.1758 19.4346 39.2549 19.6178C39.334 19.8011 39.4496 19.9663 39.5948 20.1032C39.74 20.2402 39.9117 20.346 40.0992 20.4142C40.2868 20.4825 40.4863 20.5117 40.6856 20.5H40.7106ZM5.58059 14.64H11.1906C11.3925 14.6567 11.5956 14.6314 11.7872 14.5656C11.9788 14.4998 12.1547 14.395 12.3038 14.2578C12.4528 14.1206 12.5718 13.954 12.6531 13.7685C12.7345 13.583 12.7765 13.3826 12.7765 13.18C12.7765 12.9774 12.7345 12.777 12.6531 12.5915C12.5718 12.406 12.4528 12.2394 12.3038 12.1022C12.1547 11.965 11.9788 11.8602 11.7872 11.7944C11.5956 11.7286 11.3925 11.7033 11.1906 11.72C9.32059 11.72 7.45059 11.72 5.58059 11.72C5.3787 11.7033 5.17554 11.7286 4.98394 11.7944C4.79233 11.8602 4.61646 11.965 4.46742 12.1022C4.31838 12.2394 4.19941 12.406 4.11804 12.5915C4.03667 12.777 3.99465 12.9774 3.99465 13.18C3.99465 13.3826 4.03667 13.583 4.11804 13.7685C4.19941 13.954 4.31838 14.1206 4.46742 14.2578C4.61646 14.395 4.79233 14.4998 4.98394 14.5656C5.17554 14.6314 5.3787 14.6567 5.58059 14.64ZM40.7106 14.64H46.3656C46.5675 14.6567 46.7706 14.6314 46.9622 14.5656C47.1538 14.4998 47.3297 14.395 47.4788 14.2578C47.6278 14.1206 47.7468 13.954 47.8281 13.7685C47.9095 13.583 47.9515 13.3826 47.9515 13.18C47.9515 12.9774 47.9095 12.777 47.8281 12.5915C47.7468 12.406 47.6278 12.2394 47.4788 12.1022C47.3297 11.965 47.1538 11.8602 46.9622 11.7944C46.7706 11.7286 46.5675 11.7033 46.3656 11.72C44.4806 11.72 42.5906 11.72 40.7056 11.72C40.5037 11.7033 40.3005 11.7286 40.1089 11.7944C39.9173 11.8602 39.7415 11.965 39.5924 12.1022C39.4434 12.2394 39.3244 12.406 39.243 12.5915C39.1617 12.777 39.1197 12.9774 39.1197 13.18C39.1197 13.3826 39.1617 13.583 39.243 13.7685C39.3244 13.954 39.4434 14.1206 39.5924 14.2578C39.7415 14.395 39.9173 14.4998 40.1089 14.5656C40.3005 14.6314 40.5037 14.6567 40.7056 14.64H40.7106ZM5.53059 8.775C7.43559 8.775 9.34059 8.775 11.2406 8.775C11.4385 8.78662 11.6367 8.75767 11.823 8.68992C12.0093 8.62218 12.1798 8.51707 12.3241 8.38105C12.4683 8.24504 12.5832 8.08098 12.6618 7.89895C12.7403 7.71692 12.7808 7.52075 12.7808 7.3225C12.7808 7.12425 12.7403 6.92808 12.6618 6.74605C12.5832 6.56402 12.4683 6.39996 12.3241 6.26395C12.1798 6.12793 12.0093 6.02282 11.823 5.95508C11.6367 5.88733 11.4385 5.85838 11.2406 5.87H8.40059C7.44059 5.87 6.48059 5.87 5.52059 5.87C5.32267 5.85838 5.12447 5.88733 4.93815 5.95508C4.75183 6.02282 4.58132 6.12793 4.43709 6.26395C4.29285 6.39996 4.17793 6.56402 4.09939 6.74605C4.02084 6.92808 3.98033 7.12425 3.98033 7.3225C3.98033 7.52075 4.02084 7.71692 4.09939 7.89895C4.17793 8.08098 4.29285 8.24504 4.43709 8.38105C4.58132 8.51707 4.75183 8.62218 4.93815 8.68992C5.12447 8.75767 5.32267 8.78662 5.52059 8.775H5.53059ZM22.9156 5.87H17.3006C17.0993 5.85513 16.8971 5.88216 16.7068 5.94938C16.5164 6.01661 16.3421 6.12257 16.1948 6.26058C16.0475 6.39858 15.9304 6.56563 15.8509 6.75118C15.7715 6.93672 15.7313 7.13673 15.7331 7.33857C15.7348 7.54042 15.7784 7.73971 15.861 7.92386C15.9437 8.10801 16.0636 8.27303 16.2133 8.40848C16.3629 8.54393 16.539 8.64688 16.7305 8.71083C16.9219 8.77478 17.1246 8.79833 17.3256 8.78H22.8906C23.0918 8.7967 23.2943 8.77148 23.4853 8.70593C23.6762 8.64039 23.8515 8.53595 24.0001 8.39921C24.1486 8.26247 24.2672 8.09641 24.3483 7.91151C24.4294 7.72662 24.4713 7.5269 24.4713 7.325C24.4713 7.12309 24.4294 6.92338 24.3483 6.73849C24.2672 6.55359 24.1486 6.38753 24.0001 6.25079C23.8515 6.11405 23.6762 6.00961 23.4853 5.94407C23.2943 5.87852 23.0918 5.8533 22.8906 5.87H22.9156ZM4.00059 42.62C4.00059 37.2667 4.00059 31.9133 4.00059 26.56C4.00059 24.025 4.00059 21.49 4.00059 18.955C4.01078 18.5918 4.16027 18.2465 4.4181 17.9905C4.67594 17.7345 5.02235 17.5876 5.38559 17.58C7.38559 17.56 9.38559 17.56 11.3856 17.58C11.7488 17.5876 12.0952 17.7345 12.3531 17.9905C12.6109 18.2465 12.7604 18.5918 12.7706 18.955C12.7706 20.18 12.7706 21.405 12.7706 22.63V30.63C12.7706 34.63 12.7706 38.63 12.7706 42.63C12.7776 42.8289 12.7435 43.027 12.6706 43.2122C12.5977 43.3973 12.4875 43.5655 12.3468 43.7062C12.2061 43.8469 12.0379 43.9571 11.8528 44.0301C11.6676 44.103 11.4695 44.137 11.2706 44.13C9.35059 44.13 7.43059 44.13 5.51059 44.13C5.31022 44.1377 5.11041 44.104 4.92371 44.0308C4.73702 43.9577 4.56745 43.8467 4.42566 43.7049C4.28388 43.5631 4.17293 43.3936 4.09978 43.2069C4.02663 43.0202 3.99286 42.8204 4.00059 42.62ZM6.91059 41.16H9.87559V27.66V20.54H6.93059V21.205C6.93059 22.99 6.93059 24.775 6.93059 26.56L6.91059 41.16ZM15.7356 25.5C15.7356 24.605 15.7356 23.71 15.7356 22.82C15.7356 19.68 15.7356 16.5433 15.7356 13.41C15.7062 13.1824 15.7293 12.9511 15.8034 12.7338C15.8774 12.5166 16.0003 12.3192 16.1625 12.157C16.3248 11.9947 16.5222 11.8718 16.7394 11.7978C16.9567 11.7237 17.188 11.7006 17.4156 11.73H22.8656C23.0846 11.71 23.3054 11.7385 23.5122 11.8133C23.7191 11.8882 23.9069 12.0076 24.0624 12.1631C24.218 12.3187 24.3374 12.5065 24.4123 12.7134C24.4871 12.9202 24.5156 13.1409 24.4956 13.36C24.4956 18.1567 24.4956 22.9517 24.4956 27.745C24.4956 27.875 24.4956 28.005 24.4956 28.13C24.4956 32.9633 24.4956 37.7967 24.4956 42.63C24.5026 42.8289 24.4685 43.027 24.3956 43.2122C24.3227 43.3973 24.2125 43.5655 24.0718 43.7062C23.9311 43.8469 23.7629 43.9571 23.5778 44.0301C23.3926 44.103 23.1945 44.137 22.9956 44.13C21.0756 44.13 19.1556 44.13 17.2356 44.13C17.0369 44.1362 16.8391 44.1017 16.6543 44.0285C16.4694 43.9554 16.3016 43.8451 16.161 43.7046C16.0205 43.564 15.9102 43.3961 15.837 43.2113C15.7639 43.0265 15.7293 42.8287 15.7356 42.63C15.7289 36.9133 15.7289 31.2033 15.7356 25.5ZM18.6256 41.17H21.5906V28.12C21.5906 27.925 21.5906 27.735 21.5906 27.54C21.5906 23.44 21.5906 19.3433 21.5906 15.25C21.6267 15.059 21.6094 14.8618 21.5406 14.68H18.6456V19.785C18.6456 21.685 18.6456 23.585 18.6456 25.485L18.6256 41.17ZM36.2106 30.94V36.745C36.2106 38.65 36.2106 40.55 36.2106 42.455C36.2106 43.535 35.6306 44.125 34.5706 44.125C32.7306 44.125 30.8956 44.125 29.0706 44.125C28.8512 44.1464 28.6298 44.1192 28.4221 44.0454C28.2144 43.9715 28.0256 43.8528 27.869 43.6976C27.7124 43.5425 27.5919 43.3547 27.5162 43.1477C27.4404 42.9407 27.4112 42.7196 27.4306 42.5C27.4306 38.6433 27.4306 34.7883 27.4306 30.935C27.4105 30.7155 27.439 30.4942 27.5142 30.287C27.5893 30.0798 27.7092 29.8917 27.8653 29.7361C28.0214 29.5804 28.2099 29.4611 28.4174 29.3866C28.6248 29.3121 28.8461 29.2842 29.0656 29.305C30.9056 29.305 32.7406 29.305 34.5656 29.305C34.7863 29.2826 35.0092 29.3093 35.2183 29.3834C35.4274 29.4575 35.6175 29.577 35.7748 29.7334C35.9321 29.8898 36.0528 30.0791 36.1282 30.2878C36.2036 30.4964 36.2317 30.7192 36.2106 30.94ZM33.2656 32.23H30.3906V41.17H33.2656V32.23ZM47.9156 28.5C47.9156 33.2067 47.9156 37.91 47.9156 42.61C47.9226 42.8089 47.8885 43.007 47.8156 43.1922C47.7427 43.3773 47.6325 43.5455 47.4918 43.6862C47.3511 43.8269 47.1829 43.9371 46.9978 44.0101C46.8126 44.083 46.6144 44.117 46.4156 44.11C44.4956 44.11 42.5806 44.11 40.6606 44.11C40.4617 44.117 40.2635 44.083 40.0784 44.0101C39.8933 43.9371 39.7251 43.8269 39.5844 43.6862C39.4437 43.5455 39.3334 43.3773 39.2605 43.1922C39.1876 43.007 39.1536 42.8089 39.1606 42.61C39.1606 37.68 39.1606 32.75 39.1606 27.82C39.1606 26.82 39.1306 25.82 39.1606 24.82C39.1708 24.4573 39.3205 24.1125 39.5784 23.8574C39.8364 23.6022 40.1828 23.4563 40.5456 23.45C42.5456 23.43 44.5456 23.43 46.5456 23.45C46.9088 23.4551 47.2559 23.6006 47.5141 23.856C47.7723 24.1114 47.9216 24.4569 47.9306 24.82C47.9706 26.04 47.9206 27.275 47.9156 28.5ZM45.0206 26.395H42.0556V41.16H45.0206V26.395Z" fill="url(#paint0_linear_7219_73625)"/>
</g>
<defs>
<linearGradient id="paint0_linear_7219_73625" x1="25.9706" y1="50" x2="25.9706" y2="0" gradientUnits="userSpaceOnUse">
<stop stop-color="#FBB040"/>
<stop offset="1" stop-color="#ED8B00"/>
</linearGradient>
<clipPath id="clip0_7219_73625">
<rect width="50" height="50" fill="white" transform="translate(0.970703)"/>
</clipPath>
</defs>
</svg>
