<svg width="51" height="50" viewBox="0 0 51 50" fill="none" xmlns="http://www.w3.org/2000/svg">
<g id="data-lake.svg" clip-path="url(#clip0_7219_73610)">
<path id="Vector" d="M2.5507 46.84C3.43895 46.8259 4.31467 46.628 5.1227 46.2588C5.93073 45.8897 6.65357 45.3572 7.2457 44.695C7.39544 44.5206 7.58108 44.3807 7.78993 44.2847C7.99877 44.1888 8.22588 44.1391 8.4557 44.1391C8.68552 44.1391 8.91263 44.1888 9.12147 44.2847C9.33032 44.3807 9.51596 44.5206 9.6657 44.695L9.9057 44.9399C10.5838 45.6591 11.43 46.1983 12.3683 46.509C13.3066 46.8197 14.3074 46.8922 15.2807 46.72C16.6117 46.5183 17.8323 45.863 18.7357 44.865C19.1907 44.365 19.7357 43.995 20.4007 44.195C20.8578 44.3665 21.2686 44.6421 21.6007 45C22.2793 45.7072 23.1209 46.2374 24.0518 46.5442C24.9827 46.851 25.9746 46.9251 26.9407 46.7599C28.2931 46.5639 29.5328 45.8963 30.4407 44.875C30.9057 44.375 31.4407 44.03 32.1207 44.235C32.566 44.399 32.9692 44.6603 33.3007 45C33.9785 45.6959 34.8142 46.218 35.7369 46.5218C36.6596 46.8256 37.6421 46.9021 38.6007 46.7449C40.0094 46.5169 41.2966 45.8106 42.2457 44.7449C42.3967 44.559 42.5872 44.4091 42.8034 44.3061C43.0197 44.2031 43.2562 44.1496 43.4957 44.1496C43.7352 44.1496 43.9717 44.2031 44.188 44.3061C44.4042 44.4091 44.5947 44.559 44.7457 44.7449C44.8757 44.8699 44.9957 45.005 45.1207 45.13C46.1475 46.1516 47.5231 46.7465 48.9707 46.7949C49.3983 46.7674 49.8234 46.8778 50.1835 47.1101C50.5435 47.3423 50.8195 47.6841 50.9707 48.0849V48.865C50.6257 49.635 50.0857 50.155 49.1857 50.095C48.5697 50.0645 47.9565 49.991 47.3507 49.875C45.9535 49.5822 44.6438 48.9676 43.5257 48.08C39.5957 50.79 35.7057 50.79 31.8107 48.08C27.9174 50.77 24.0224 50.77 20.1257 48.08C16.229 50.77 12.3307 50.77 8.4307 48.08C8.4307 48.08 8.3807 48.08 8.3557 48.11L8.0357 48.34C6.49288 49.447 4.6493 50.0574 2.7507 50.09C2.53152 50.1076 2.31102 50.0813 2.10215 50.0126C1.89328 49.9438 1.70025 49.834 1.53442 49.6896C1.36859 49.5452 1.2333 49.3691 1.13649 49.1717C1.03968 48.9743 0.983313 48.7595 0.970699 48.54C0.957839 48.3234 0.989006 48.1065 1.06232 47.9024C1.13563 47.6982 1.24956 47.511 1.39724 47.3521C1.54491 47.1933 1.72326 47.0659 1.92151 46.9779C2.11976 46.8899 2.3338 46.8429 2.5507 46.84ZM50.9707 29.385V28.7C50.8475 28.3013 50.5946 27.9554 50.2521 27.7171C49.9096 27.4788 49.4973 27.3619 49.0807 27.385C48.2809 27.3615 47.4941 27.1762 46.768 26.8402C46.0418 26.5042 45.3913 26.0244 44.8557 25.43C43.9707 24.5 43.0307 24.5 42.1207 25.43C41.555 26.0528 40.8654 26.5505 40.096 26.891C39.3266 27.2316 38.4946 27.4075 37.6532 27.4075C36.8118 27.4075 35.9797 27.2316 35.2104 26.891C34.441 26.5505 33.7514 26.0528 33.1857 25.43C32.2657 24.5 31.3657 24.5 30.4707 25.42C27.8657 28.075 24.1107 28.075 21.5007 25.42C20.6007 24.505 19.6907 24.5 18.7957 25.42C16.1657 28.1 12.4357 28.095 9.7957 25.42C8.9407 24.54 7.9707 24.5 7.2157 25.3C6.61804 25.9582 5.89168 26.4869 5.08154 26.8533C4.27141 27.2197 3.39472 27.4159 2.5057 27.43C2.07737 27.4426 1.6716 27.6248 1.37763 27.9366C1.08367 28.2483 0.925601 28.6641 0.938199 29.0925C0.950797 29.5208 1.13303 29.9266 1.44481 30.2205C1.75659 30.5145 2.17237 30.6725 2.6007 30.66C3.17072 30.6518 3.73918 30.5983 4.3007 30.5C5.69918 30.2514 7.01967 29.6776 8.1557 28.825C8.2457 28.76 8.3457 28.705 8.4557 28.63C9.49036 29.4433 10.6819 30.034 11.9557 30.365C13.2763 30.7168 14.6588 30.7693 16.0022 30.5184C17.3457 30.2675 18.6161 29.7197 19.7207 28.915C19.8265 28.8102 19.9693 28.7515 20.1182 28.7515C20.2671 28.7515 20.4099 28.8102 20.5157 28.915C22.1047 30.0725 24.0198 30.6961 25.9857 30.6961C27.9516 30.6961 29.8667 30.0725 31.4557 28.915C31.5441 28.8264 31.6624 28.7742 31.7874 28.7687C31.9123 28.7631 32.0348 28.8046 32.1307 28.885C33.7301 30.0718 35.669 30.7126 37.6607 30.7126C39.6524 30.7126 41.5913 30.0718 43.1907 28.885L43.3907 28.755C44.3087 29.2729 45.2552 29.7387 46.2257 30.15C47.0935 30.412 47.9841 30.5912 48.8857 30.685C49.3344 30.787 49.8053 30.7076 50.1958 30.4641C50.5863 30.2207 50.8648 29.8328 50.9707 29.385ZM0.970699 38.775C0.973666 38.9956 1.0214 39.2133 1.11099 39.4149C1.20059 39.6166 1.33019 39.7979 1.49195 39.948C1.6537 40.098 1.84424 40.2137 2.05201 40.288C2.25979 40.3622 2.48047 40.3935 2.7007 40.38C4.6015 40.3705 6.45282 39.7732 8.0007 38.6699L8.3557 38.41C8.39408 38.3933 8.43439 38.3816 8.4757 38.375C9.49992 39.1704 10.6755 39.7489 11.9307 40.075C13.247 40.4305 14.6262 40.4871 15.9672 40.2405C17.3081 39.994 18.577 39.4505 19.6807 38.65C19.8016 38.5297 19.9652 38.4621 20.1357 38.4621C20.3062 38.4621 20.4698 38.5297 20.5907 38.65C22.1735 39.7728 24.0682 40.3717 26.0087 40.3628C27.9493 40.3538 29.8384 39.7373 31.4107 38.5999C31.4623 38.5476 31.5238 38.5061 31.5916 38.4778C31.6594 38.4494 31.7322 38.4348 31.8057 38.4348C31.8792 38.4348 31.952 38.4494 32.0198 38.4778C32.0876 38.5061 32.1491 38.5476 32.2007 38.5999C33.785 39.7505 35.6927 40.3701 37.6507 40.3701C39.6087 40.3701 41.5164 39.7505 43.1007 38.5999C43.1523 38.5476 43.2138 38.5061 43.2816 38.4778C43.3494 38.4494 43.4222 38.4348 43.4957 38.4348C43.5692 38.4348 43.642 38.4494 43.7098 38.4778C43.7776 38.5061 43.8391 38.5476 43.8907 38.5999C45.3088 39.6241 46.9855 40.2303 48.7307 40.3499C49.7707 40.4399 50.5407 40.14 50.9707 39.15V38.3899C50.8322 37.9894 50.5658 37.6455 50.2124 37.4115C49.8591 37.1774 49.4385 37.0662 49.0157 37.095C47.4696 37.0269 46.0096 36.3641 44.9407 35.2449C44.6185 34.9106 44.2232 34.6556 43.7857 34.5C43.0907 34.29 42.5507 34.675 42.0757 35.185C41.0455 36.323 39.6084 37.0092 38.0757 37.095C37.1961 37.1669 36.3115 37.0418 35.4863 36.7286C34.6611 36.4155 33.9162 35.9223 33.3057 35.285C33.2357 35.215 33.1707 35.14 33.1057 35.07C32.2607 34.225 31.3307 34.205 30.5057 35.07C29.5465 36.1569 28.231 36.8661 26.7957 37.07C25.875 37.2072 24.935 37.1268 24.051 36.835C23.167 36.5432 22.3638 36.0483 21.7057 35.3899C21.6007 35.2899 21.5007 35.18 21.3957 35.075C20.5757 34.255 19.6407 34.235 18.8357 35.075C18.029 35.979 16.9731 36.6243 15.8007 36.93C14.7652 37.2091 13.6736 37.204 12.6406 36.9155C11.6077 36.6269 10.6716 36.0654 9.9307 35.29C9.8607 35.225 9.7957 35.15 9.7257 35.08C8.8857 34.235 7.9657 34.225 7.1307 35.08C6.29339 36.0118 5.19048 36.6644 3.9707 36.95C3.52359 37.0375 3.07075 37.0927 2.6157 37.115C2.17763 37.1176 1.75849 37.2938 1.45013 37.605C1.14177 37.9161 0.969368 38.3369 0.970699 38.775ZM25.9957 20.88C24.7657 20.8434 23.5981 20.3299 22.7398 19.448C21.8816 18.5662 21.3999 17.3851 21.3966 16.1546C21.3934 14.924 21.8688 13.7404 22.7224 12.854C23.576 11.9677 24.7409 11.448 25.9707 11.405C27.2305 11.399 28.441 11.8937 29.336 12.7803C30.2311 13.6669 30.7372 14.8727 30.7432 16.1325C30.7492 17.3922 30.2544 18.6028 29.3679 19.4978C28.4813 20.3928 27.2755 20.899 26.0157 20.905L25.9957 20.88ZM25.9957 14.335C25.5181 14.3336 25.0592 14.5199 24.7178 14.8538C24.3764 15.1878 24.1799 15.6425 24.1707 16.12C24.1745 16.5985 24.3646 17.0567 24.7006 17.3975C25.0367 17.7382 25.4923 17.9346 25.9707 17.945C26.4469 17.9437 26.9035 17.7553 27.2421 17.4205C27.5807 17.0856 27.7741 16.6311 27.7807 16.155C27.784 15.918 27.7403 15.6827 27.6522 15.4627C27.5641 15.2426 27.4333 15.0423 27.2674 14.873C27.1014 14.7038 26.9036 14.5692 26.6854 14.4768C26.4671 14.3845 26.2327 14.3362 25.9957 14.335ZM36.7707 9.58995C35.5162 9.57701 34.3165 9.07393 33.428 8.18822C32.5395 7.3025 32.0326 6.10441 32.0157 4.84995C31.9951 4.21619 32.1021 3.58476 32.3304 2.99319C32.5587 2.40162 32.9036 1.86199 33.3447 1.40638C33.7857 0.950782 34.3138 0.588506 34.8976 0.341094C35.4815 0.0936823 36.1091 -0.0338135 36.7432 -0.0338135C37.3773 -0.0338135 38.0049 0.0936823 38.5888 0.341094C39.1726 0.588506 39.7007 0.950782 40.1417 1.40638C40.5828 1.86199 40.9277 2.40162 41.156 2.99319C41.3843 3.58476 41.4913 4.21619 41.4707 4.84995C41.4604 6.09701 40.9632 7.29068 40.0851 8.17624C39.207 9.0618 38.0176 9.56912 36.7707 9.58995ZM36.7707 3.04995C36.2971 3.0538 35.8437 3.24263 35.5074 3.57613C35.1711 3.90964 34.9785 4.36139 34.9707 4.83495C34.9731 5.31135 35.1607 5.76814 35.4938 6.10872C35.827 6.4493 36.2795 6.64698 36.7557 6.65995C37.2328 6.65867 37.6901 6.46961 38.0289 6.13369C38.3676 5.79776 38.5604 5.34198 38.5657 4.86495C38.5697 4.62676 38.526 4.39018 38.4372 4.16914C38.3483 3.94811 38.2161 3.7471 38.0484 3.57795C37.8806 3.4088 37.6807 3.27494 37.4604 3.18426C37.2401 3.09358 37.0039 3.04792 36.7657 3.04995H36.7707Z" fill="url(#paint0_linear_7219_73610)"/>
</g>
<defs>
<linearGradient id="paint0_linear_7219_73610" x1="25.9707" y1="50.115" x2="25.9707" y2="0.114954" gradientUnits="userSpaceOnUse">
<stop stop-color="#FBB040"/>
<stop offset="1" stop-color="#ED8B00"/>
</linearGradient>
<clipPath id="clip0_7219_73610">
<rect width="50" height="50" fill="white" transform="translate(0.970703)"/>
</clipPath>
</defs>
</svg>
