<svg width="51" height="51" viewBox="0 0 51 51" fill="none" xmlns="http://www.w3.org/2000/svg">
<g id="data-science.svg" clip-path="url(#clip0_7219_73642)">
<path id="Vector" d="M26.751 50.71H25.191C25.1545 50.6797 25.1142 50.6544 25.071 50.635C23.2411 50.3372 21.5693 49.4192 20.336 48.035C18.7023 46.2613 17.4211 44.1928 16.561 41.94C16.545 41.8642 16.5141 41.7924 16.4702 41.7287C16.4262 41.665 16.3701 41.6106 16.3049 41.5688C16.2398 41.5269 16.1671 41.4984 16.0909 41.4849C16.0146 41.4713 15.9365 41.4731 15.861 41.49C13.171 41.695 10.516 41.59 7.94597 40.62C4.04597 39.12 2.24597 35.665 3.31597 31.62C3.87798 29.6221 4.82582 27.7536 6.10597 26.12C6.16497 26.0639 6.21196 25.9964 6.24406 25.9217C6.27617 25.8469 6.29272 25.7663 6.29272 25.685C6.29272 25.6036 6.27617 25.523 6.24406 25.4483C6.21196 25.3735 6.16497 25.306 6.10597 25.25C4.8319 23.6456 3.87948 21.8103 3.30097 19.845C2.42097 16.62 3.30097 13.77 5.80097 11.905C7.31281 10.8 9.10365 10.1402 10.971 9.99996C12.581 9.85496 14.206 9.89996 15.826 9.89496C15.9857 9.91838 16.1486 9.88588 16.2871 9.80296C16.4256 9.72004 16.5312 9.5918 16.586 9.43996C17.281 8.05996 17.971 6.66496 18.761 5.35996C19.6916 3.76095 21.0535 2.45619 22.691 1.59496C23.5053 1.2488 24.3402 0.953235 25.191 0.709961L26.751 0.709961C26.791 0.734961 26.831 0.774961 26.871 0.779961C29.126 1.09996 30.806 2.36996 32.236 4.04996C33.5914 5.69848 34.6704 7.55593 35.431 9.54996C35.4469 9.62245 35.4771 9.69105 35.5197 9.75178C35.5624 9.8125 35.6167 9.86414 35.6796 9.90369C35.7424 9.94323 35.8124 9.9699 35.8856 9.98213C35.9588 9.99437 36.0337 9.99193 36.106 9.97496C38.1772 9.76155 40.2691 9.87289 42.306 10.305C44.1424 10.6369 45.8303 11.5315 47.136 12.865C49.016 14.91 49.321 17.32 48.636 19.92C48.0952 21.7803 47.221 23.527 46.056 25.075C45.491 25.865 45.491 25.575 46.056 26.38C47.2091 27.9349 48.0775 29.6819 48.621 31.54C49.701 35.54 47.886 39.075 44.006 40.54C42.0419 41.2325 39.968 41.5612 37.886 41.51C37.146 41.51 36.386 41.445 35.786 41.42C34.921 43 34.161 44.545 33.251 46C32.3233 47.6007 30.9698 48.9126 29.341 49.79C28.4987 50.1531 27.6335 50.4604 26.751 50.71ZM35.416 25.645C35.306 23.97 35.201 22.215 35.066 20.465C35.0274 20.2395 34.9017 20.0384 34.716 19.905C32.1174 18.2121 29.3673 16.7642 26.501 15.58C26.3641 15.5157 26.2147 15.4824 26.0635 15.4824C25.9122 15.4824 25.7629 15.5157 25.626 15.58C22.6963 16.7778 19.8871 18.2511 17.236 19.98C17.146 20.0473 17.0704 20.132 17.0137 20.229C16.957 20.3261 16.9204 20.4335 16.906 20.545C16.5303 23.9759 16.5219 27.4372 16.881 30.87C16.8863 30.9958 16.9241 31.1181 16.9907 31.225C17.0573 31.3319 17.1504 31.4197 17.261 31.48C19.9221 33.1928 22.7397 34.6494 25.676 35.83C25.9247 35.9201 26.1972 35.9201 26.446 35.83C29.2728 34.6791 31.989 33.2733 34.561 31.63C34.7238 31.5491 34.8616 31.4254 34.9594 31.2721C35.0572 31.1188 35.1113 30.9417 35.116 30.76C35.196 29.07 35.311 27.4 35.416 25.645ZM19.326 41.05C19.651 41.715 19.921 42.325 20.241 42.905C20.9766 44.3977 22.0275 45.7129 23.321 46.76C24.611 47.725 26.026 48.17 27.551 47.395C28.27 47.0238 28.9304 46.5487 29.511 45.985C30.8018 44.645 31.8205 43.0676 32.511 41.34C32.5473 41.2578 32.5758 41.1725 32.596 41.085C30.471 40.45 28.361 39.815 26.266 39.21C26.0773 39.1803 25.8841 39.201 25.706 39.27C24.416 39.66 23.136 40.08 21.846 40.455C21.041 40.675 20.211 40.84 19.326 41.05ZM19.356 10.33L19.811 10.46C21.741 11.01 23.676 11.565 25.611 12.095C25.9144 12.1724 26.2325 12.1724 26.536 12.095C28.271 11.595 29.996 11.095 31.726 10.595C32.016 10.515 32.311 10.46 32.646 10.385C31.656 8.20996 30.601 6.16996 28.716 4.70996C27.141 3.48996 25.576 3.20996 23.806 4.33496C21.576 5.75996 20.436 8.00496 19.356 10.33ZM15.356 12.745C14.446 12.745 13.591 12.705 12.736 12.745C11.1879 12.7707 9.66403 13.1342 8.27097 13.81C6.80597 14.575 5.90097 15.745 5.92097 17.45C5.95097 19.735 7.07597 21.6 8.42097 23.515C8.64803 23.2104 8.89525 22.9214 9.16097 22.65C10.421 21.55 11.661 20.395 12.981 19.4C13.811 18.78 14.446 18.17 14.421 17.07C14.4341 16.8749 14.4693 16.682 14.526 16.495C14.791 15.285 15.066 14.065 15.356 12.745ZM8.31597 28.06C7.21097 29.6 6.24097 31.26 5.99597 33.235C5.84151 34.0589 5.95769 34.9107 6.32716 35.6631C6.69663 36.4156 7.29958 37.0284 8.04597 37.41C10.326 38.71 12.816 38.71 15.341 38.6C15.341 38.495 15.341 38.43 15.341 38.37C14.981 36.67 14.626 34.97 14.246 33.28C14.1822 33.0535 14.0472 32.8537 13.861 32.71C13.361 32.305 12.831 31.965 12.361 31.555C11.006 30.405 9.67597 29.24 8.31597 28.06ZM36.681 12.84C37.041 14.655 37.391 16.455 37.766 18.245C37.8397 18.4186 37.9633 18.5665 38.121 18.67C39.291 19.62 40.486 20.545 41.621 21.515C42.311 22.1 42.941 22.755 43.621 23.4C44.6588 22.0576 45.4124 20.518 45.836 18.875C46.471 16.21 45.316 14.485 42.971 13.56C40.931 12.76 38.796 12.71 36.681 12.84ZM43.681 28.04C43.6342 28.0556 43.589 28.0757 43.546 28.1C41.826 29.8373 39.9609 31.4248 37.971 32.845C37.8444 32.961 37.76 33.1158 37.731 33.285C37.531 34.285 37.366 35.285 37.156 36.285C37.006 37.02 36.806 37.745 36.606 38.57C37.336 38.57 37.981 38.57 38.606 38.57C40.2482 38.5652 41.8731 38.2338 43.386 37.595C44.3002 37.225 45.052 36.5404 45.5059 35.6648C45.9597 34.7892 46.0856 33.7803 45.861 32.82C45.4794 31.088 44.7309 29.4581 43.666 28.04H43.681ZM38.261 29.04L41.821 25.71L38.246 22.405L38.261 29.04ZM13.761 22.445L10.181 25.71L13.731 28.97L13.761 22.445ZM18.316 38.26L21.901 37.43L17.521 35.125L18.316 38.26ZM18.316 13.125L17.521 16.27L21.896 13.955L18.316 13.125ZM30.206 13.975L34.436 16.21C34.161 15.14 33.936 14.18 33.661 13.18L30.206 13.975ZM30.206 37.415L33.681 38.21L34.436 35.21L30.206 37.415ZM21.181 25.75C21.1604 25.1162 21.2674 24.4848 21.4957 23.8932C21.724 23.3016 22.0689 22.762 22.5099 22.3064C22.951 21.8508 23.4791 21.4885 24.0629 21.2411C24.6468 20.9937 25.2744 20.8662 25.9085 20.8662C26.5426 20.8662 27.1702 20.9937 27.754 21.2411C28.3379 21.4885 28.866 21.8508 29.307 22.3064C29.748 22.762 30.093 23.3016 30.3213 23.8932C30.5496 24.4848 30.6566 25.1162 30.636 25.75C30.6566 26.3837 30.5496 27.0152 30.3213 27.6067C30.093 28.1983 29.748 28.7379 29.307 29.1935C28.866 29.6491 28.3379 30.0114 27.754 30.2588C27.1702 30.5062 26.5426 30.6337 25.9085 30.6337C25.2744 30.6337 24.6468 30.5062 24.0629 30.2588C23.4791 30.0114 22.951 29.6491 22.5099 29.1935C22.0689 28.7379 21.724 28.1983 21.4957 27.6067C21.2674 27.0152 21.1604 26.3837 21.181 25.75ZM25.886 23.95C25.4243 23.9784 24.9911 24.1829 24.6759 24.5214C24.3607 24.8599 24.1874 25.3065 24.1919 25.7691C24.1964 26.2316 24.3783 26.6748 24.7 27.0071C25.0218 27.3394 25.4588 27.5355 25.921 27.555C26.4011 27.5432 26.8573 27.3431 27.1912 26.998C27.5252 26.6528 27.7101 26.1902 27.706 25.71C27.6929 25.2369 27.4951 24.7878 27.1549 24.4588C26.8147 24.1298 26.3592 23.9472 25.886 23.95Z" fill="url(#paint0_linear_7219_73642)"/>
</g>
<defs>
<linearGradient id="paint0_linear_7219_73642" x1="25.971" y1="50.71" x2="25.971" y2="0.709961" gradientUnits="userSpaceOnUse">
<stop stop-color="#FBB040"/>
<stop offset="1" stop-color="#ED8B00"/>
</linearGradient>
<clipPath id="clip0_7219_73642">
<rect width="50" height="50" fill="white" transform="translate(0.970703 0.709961)"/>
</clipPath>
</defs>
</svg>
