<svg width="51" height="50" viewBox="0 0 51 50" fill="none" xmlns="http://www.w3.org/2000/svg">
<g id="dwh.svg" clip-path="url(#clip0_7219_73650)">
<path id="Vector" d="M49.6855 11.62C42.1121 7.87333 34.5438 4.10333 26.9805 0.31C26.7805 0.215 26.5855 0.105 26.3855 0H25.5905L17.6755 3.97C12.4405 6.58 7.20547 9.175 1.98047 11.805C1.58047 12.005 1.30547 12.46 0.980469 12.805V48.925C1.20288 49.3974 1.58302 49.7776 2.05547 50H49.9055C50.3779 49.7776 50.7581 49.3974 50.9805 48.925V12.795C50.7069 12.2582 50.2462 11.8403 49.6855 11.62ZM39.2255 47.045H12.7255V20.69H39.2255V47.045ZM48.0505 46.705V47.035H42.2205V20.63C42.7805 20.63 43.3155 20.67 43.8455 20.63C44.2102 20.592 44.5462 20.4149 44.7836 20.1356C45.0211 19.8562 45.1417 19.496 45.1205 19.13C45.1076 18.7683 44.9608 18.4242 44.7086 18.1646C44.4563 17.905 44.1167 17.7483 43.7555 17.725C43.5805 17.725 43.4005 17.725 43.2205 17.725H26.6655C20.6455 17.725 14.6238 17.725 8.60047 17.725C8.2111 17.7305 7.82809 17.8245 7.48047 18C7.2302 18.1508 7.03491 18.3778 6.9233 18.6478C6.8117 18.9178 6.78968 19.2165 6.86047 19.5C6.91154 19.7915 7.05463 20.059 7.26878 20.2632C7.48293 20.4675 7.75688 20.5978 8.05047 20.635C8.59547 20.69 9.15047 20.635 9.73047 20.635V47.035H3.91047V46.465C3.91047 35.855 3.91047 25.2433 3.91047 14.63C3.88844 14.4679 3.9219 14.303 4.00542 14.1623C4.08893 14.0216 4.21759 13.9133 4.37047 13.855C11.4138 10.3583 18.4505 6.85333 25.4805 3.34C25.6313 3.24866 25.8042 3.20036 25.9805 3.20036C26.1568 3.20036 26.3297 3.24866 26.4805 3.34C33.5238 6.86 40.5755 10.3717 47.6355 13.875C47.7683 13.913 47.8835 13.9963 47.9612 14.1105C48.0388 14.2247 48.074 14.3626 48.0605 14.5C48.0505 25.2267 48.0471 35.9617 48.0505 46.705ZM27.0855 39.205C27.0805 40.1409 27.3534 41.0573 27.8694 41.8381C28.3855 42.6188 29.1216 43.229 29.9845 43.5913C30.8475 43.9535 31.7986 44.0517 32.7173 43.8732C33.6361 43.6947 34.4812 43.2477 35.1458 42.5887C35.8104 41.9297 36.2646 41.0884 36.4508 40.1712C36.6371 39.254 36.547 38.3021 36.192 37.4361C35.8371 36.5701 35.2332 35.8289 34.4568 35.3062C33.6804 34.7836 32.7664 34.503 31.8305 34.5C30.5791 34.5091 29.3812 35.0085 28.4941 35.891C27.6069 36.7735 27.1011 37.9687 27.0855 39.22V39.205ZM31.7905 37.405C32.2675 37.4036 32.726 37.5901 33.0666 37.9242C33.4072 38.2583 33.6026 38.713 33.6105 39.19C33.6081 39.6664 33.4204 40.1232 33.0873 40.4638C32.7542 40.8043 32.3017 41.002 31.8255 41.015C31.3484 41.0137 30.891 40.8247 30.5523 40.4887C30.2136 40.1528 30.0207 39.697 30.0155 39.22C30.0128 38.7461 30.1982 38.2905 30.5309 37.9531C30.8636 37.6157 31.3166 37.424 31.7905 37.42V37.405ZM20.1205 43.96C21.0596 43.9679 21.9799 43.6967 22.7647 43.1807C23.5494 42.6647 24.1632 41.9272 24.5281 41.0618C24.893 40.1964 24.9926 39.2421 24.8142 38.32C24.6359 37.3979 24.1876 36.5496 23.5263 35.8827C22.865 35.2158 22.0206 34.7604 21.1 34.5742C20.1795 34.3881 19.2244 34.4796 18.3559 34.8371C17.4875 35.1947 16.7448 35.8022 16.2222 36.5825C15.6995 37.3628 15.4205 38.2808 15.4205 39.22C15.437 40.4651 15.9363 41.6551 16.813 42.5394C17.6898 43.4236 18.8756 43.9329 20.1205 43.96ZM20.1205 37.42C20.598 37.4186 21.057 37.605 21.3984 37.9389C21.7398 38.2728 21.9363 38.7275 21.9455 39.205C21.9418 39.6819 21.7531 40.1386 21.4191 40.4791C21.0852 40.8195 20.6322 41.0171 20.1555 41.03C19.6784 41.0287 19.221 40.8397 18.8823 40.5037C18.5436 40.1678 18.3507 39.712 18.3455 39.235C18.3428 38.9993 18.3866 38.7653 18.4744 38.5465C18.5622 38.3278 18.6922 38.1284 18.857 37.9599C19.0219 37.7913 19.2183 37.6569 19.4351 37.5643C19.6518 37.4716 19.8847 37.4226 20.1205 37.42ZM25.9505 33.38C26.5723 33.382 27.1884 33.2614 27.7636 33.0253C28.3388 32.7892 28.8619 32.4421 29.303 32.0038C29.7441 31.5655 30.0945 31.0446 30.3343 30.4709C30.5741 29.8971 30.6985 29.2818 30.7005 28.66C30.7024 28.0382 30.5819 27.4221 30.3458 26.8469C30.1096 26.2716 29.7625 25.7485 29.3242 25.3075C28.8859 24.8664 28.3651 24.5159 27.7913 24.2762C27.2176 24.0364 26.6023 23.912 25.9805 23.91C24.7247 23.904 23.5179 24.3972 22.6257 25.2809C21.7335 26.1647 21.2289 27.3667 21.223 28.6225C21.217 29.8783 21.7101 31.085 22.5939 31.9772C23.4777 32.8694 24.6797 33.374 25.9355 33.38H25.9505ZM25.9505 26.84C26.4275 26.8386 26.886 27.0251 27.2266 27.3592C27.5672 27.6933 27.7626 28.148 27.7705 28.625C27.768 29.1022 27.5797 29.5598 27.2455 29.9005C26.9114 30.2412 26.4576 30.4383 25.9805 30.45C25.5034 30.4487 25.046 30.2597 24.7073 29.9237C24.3686 29.5878 24.1757 29.132 24.1705 28.655C24.1678 28.4163 24.2128 28.1795 24.3027 27.9584C24.3927 27.7374 24.5258 27.5364 24.6944 27.3674C24.8629 27.1984 25.0634 27.0647 25.2843 26.9742C25.5051 26.8836 25.7418 26.838 25.9805 26.84H25.9505Z" fill="url(#paint0_linear_7219_73650)"/>
</g>
<defs>
<linearGradient id="paint0_linear_7219_73650" x1="25.9805" y1="50" x2="25.9805" y2="0" gradientUnits="userSpaceOnUse">
<stop stop-color="#FBB040"/>
<stop offset="1" stop-color="#ED8B00"/>
</linearGradient>
<clipPath id="clip0_7219_73650">
<rect width="50" height="50" fill="white" transform="translate(0.980469)"/>
</clipPath>
</defs>
</svg>
