<svg width="51" height="50" viewBox="0 0 51 50" fill="none" xmlns="http://www.w3.org/2000/svg">
<g id="etl.svg" clip-path="url(#clip0_7219_73603)">
<path id="Vector" d="M49.3256 21.97C49.35 21.2571 49.107 20.5609 48.6445 20.0179C48.182 19.4749 47.5333 19.1244 46.8256 19.035C46.7546 19.023 46.687 18.9958 46.6274 18.9552C46.5679 18.9147 46.5178 18.8617 46.4806 18.8C45.951 16.977 45.2111 15.2219 44.2756 13.57C44.7886 13.0104 45.0647 12.2737 45.046 11.5148C45.0274 10.7559 44.7154 10.0338 44.1756 9.5C42.7206 8.06 41.2856 6.59 39.8206 5.155C39.3361 4.65008 38.6807 4.34411 37.9825 4.29695C37.2843 4.24979 36.5937 4.46483 36.0456 4.9C35.9624 4.96933 35.8589 5.00975 35.7507 5.01516C35.6424 5.02057 35.5354 4.99068 35.4456 4.93C33.9806 4.275 32.5406 3.625 31.0556 3.06C30.5806 2.875 30.3006 2.735 30.1906 2.175C29.9806 0.965 29.0606 0.335 27.9306 0H23.9306C23.5559 0.168437 23.2471 0.455586 23.0519 0.81708C22.8567 1.17857 22.786 1.59429 22.8506 2C22.9006 3.2 22.8506 4.4 22.8506 5.655C21.7306 5.655 20.6606 5.655 19.5906 5.655C19.4061 5.68575 19.2166 5.64778 19.0581 5.54827C18.8996 5.44876 18.7831 5.29462 18.7306 5.115C18.3151 4.18616 17.6108 3.41628 16.7225 2.91989C15.8343 2.42351 14.8095 2.22714 13.8006 2.36C12.9683 2.46498 12.1782 2.78693 11.5096 3.29357C10.841 3.80022 10.3173 4.47375 9.99104 5.24662C9.66481 6.0195 9.54751 6.86457 9.65089 7.69708C9.75428 8.52959 10.0747 9.3203 10.5801 9.98991C11.0854 10.6595 11.758 11.1845 12.5302 11.5122C13.3025 11.8399 14.1473 11.9588 14.98 11.857C15.8127 11.7552 16.6041 11.4363 17.2746 10.9322C17.9452 10.4281 18.4715 9.75662 18.8006 8.985C18.8706 8.83 19.0206 8.6 19.1406 8.595C20.3556 8.57 21.5706 8.595 22.8006 8.595V17.62C22.6806 17.62 22.6056 17.62 22.5256 17.62C19.1206 17.62 15.7206 17.62 12.3206 17.62C12.2064 17.6233 12.0945 17.5874 12.0035 17.5183C11.9126 17.4492 11.848 17.3509 11.8206 17.24C11.3969 16.2222 10.6347 15.3819 9.66296 14.8613C8.69117 14.3406 7.5694 14.1715 6.48731 14.3825C5.40521 14.5935 4.42918 15.1717 3.72422 16.0194C3.01926 16.867 2.62863 17.9321 2.61837 19.0345C2.60811 20.1369 2.97885 21.2091 3.6679 22.0697C4.35696 22.9303 5.32206 23.5266 6.40004 23.7577C7.47802 23.9888 8.60274 23.8406 9.58405 23.3381C10.5654 22.8357 11.3431 22.0097 11.7856 21C11.8277 20.8547 11.9219 20.73 12.0501 20.6498C12.1783 20.5695 12.3316 20.5394 12.4806 20.565C15.7656 20.565 19.0556 20.565 22.3406 20.565H22.8406V29.4C22.7056 29.4 22.5956 29.425 22.4856 29.425C19.1156 29.425 15.7456 29.425 12.3756 29.425C12.2503 29.4415 12.1234 29.4099 12.0205 29.3366C11.9175 29.2634 11.8461 29.1538 11.8206 29.03C11.3899 28.0139 10.6212 27.1779 9.64463 26.6636C8.6681 26.1494 7.54384 25.9886 6.46229 26.2083C5.38074 26.4281 4.40841 27.015 3.71002 27.8696C3.01163 28.7241 2.63012 29.7938 2.63012 30.8975C2.63012 32.0012 3.01163 33.0709 3.71002 33.9254C4.40841 34.78 5.38074 35.3669 6.46229 35.5867C7.54384 35.8064 8.6681 35.6456 9.64463 35.1314C10.6212 34.6171 11.3899 33.7811 11.8206 32.765C11.8581 32.6288 11.9435 32.5108 12.0611 32.4327C12.1787 32.3546 12.3206 32.3217 12.4606 32.34C15.7656 32.34 19.0706 32.34 22.3756 32.34H22.8756V41.44C21.7856 41.44 20.7156 41.44 19.6456 41.44C19.4604 41.471 19.2703 41.4332 19.1109 41.3337C18.9516 41.2343 18.8342 41.08 18.7806 40.9C18.3541 39.9493 17.625 39.1665 16.707 38.6736C15.789 38.1806 14.7337 38.0053 13.7056 38.175C12.8807 38.2991 12.1025 38.6368 11.4483 39.1545C10.7941 39.6722 10.2866 40.3519 9.97614 41.1263C9.66572 41.9007 9.56315 42.7427 9.67861 43.569C9.79407 44.3952 10.1235 45.1769 10.6344 45.8365C11.1452 46.4961 11.8195 47.0107 12.5906 47.3292C13.3617 47.6478 14.2026 47.7592 15.03 47.6524C15.8574 47.5456 16.6425 47.2243 17.3075 46.7205C17.9724 46.2166 18.494 45.5477 18.8206 44.78C18.8906 44.625 19.0456 44.39 19.1606 44.39C20.3756 44.36 21.5956 44.39 22.8606 44.39C22.8606 45.645 22.8956 46.845 22.8606 48.045C22.7951 48.4508 22.8655 48.8669 23.0608 49.2285C23.2561 49.5902 23.5654 49.8772 23.9406 50.045H27.9406C27.9656 50.045 27.9906 49.995 28.0206 49.99C28.6245 49.8679 29.173 49.5543 29.5846 49.0959C29.9962 48.6374 30.2491 48.0585 30.3056 47.445C30.3306 47.3761 30.3704 47.3134 30.4222 47.2616C30.4741 47.2098 30.5367 47.17 30.6056 47.145C32.3253 46.6482 33.9839 45.9606 35.5506 45.095C35.6158 45.0653 35.6866 45.0499 35.7581 45.0499C35.8297 45.0499 35.9005 45.0653 35.9656 45.095C37.4656 46.095 38.7706 45.95 40.0406 44.68L43.9106 40.815C45.3306 39.395 45.4406 38.1 44.2656 36.455C45.2063 34.7957 45.9497 33.032 46.4806 31.2C46.5178 31.1383 46.5679 31.0853 46.6274 31.0448C46.687 31.0042 46.7546 30.977 46.8256 30.965C47.5333 30.8734 48.1814 30.5215 48.6436 29.9779C49.1058 29.4344 49.349 28.7381 49.3256 28.025C49.3323 26.0083 49.3323 23.99 49.3256 21.97ZM14.4256 8.97C13.9323 8.97 13.4592 8.77404 13.1104 8.42522C12.7616 8.0764 12.5656 7.6033 12.5656 7.11C12.5673 6.86705 12.6168 6.62681 12.7113 6.40299C12.8057 6.17916 12.9434 5.97614 13.1163 5.80551C13.2893 5.63489 13.4942 5.49999 13.7192 5.40854C13.9443 5.31708 14.1852 5.27086 14.4281 5.2725C14.6711 5.27414 14.9113 5.32362 15.1352 5.41811C15.359 5.51259 15.562 5.65024 15.7326 5.82319C15.9033 5.99614 16.0382 6.201 16.1296 6.42608C16.2211 6.65116 16.2673 6.89205 16.2656 7.135C16.2515 7.61621 16.0524 8.07345 15.7097 8.41153C15.3669 8.74961 14.907 8.94248 14.4256 8.95V8.97ZM7.42565 20.97C7.18138 20.9726 6.93899 20.9271 6.71232 20.8361C6.48564 20.7451 6.27912 20.6103 6.10454 20.4394C5.92996 20.2685 5.79075 20.065 5.69486 19.8403C5.59896 19.6156 5.54826 19.3743 5.54565 19.13C5.54164 18.8859 5.58651 18.6435 5.67762 18.417C5.76873 18.1905 5.90424 17.9845 6.07617 17.8112C6.24809 17.6379 6.45296 17.5007 6.67871 17.4077C6.90446 17.3148 7.14652 17.268 7.39065 17.27C7.63485 17.268 7.87703 17.3144 8.10322 17.4065C8.3294 17.4986 8.53512 17.6345 8.7085 17.8065C8.88188 17.9785 9.01949 18.1831 9.1134 18.4086C9.20731 18.634 9.25565 18.8758 9.25565 19.12C9.24691 19.601 9.05364 20.0602 8.71582 20.4027C8.37799 20.7452 7.92146 20.9447 7.44065 20.96L7.42565 20.97ZM7.42565 32.75C7.18156 32.7553 6.93887 32.7118 6.71188 32.6219C6.48489 32.532 6.27817 32.3976 6.10391 32.2266C5.92966 32.0556 5.79137 31.8515 5.69721 31.6262C5.60306 31.401 5.55492 31.1591 5.55565 30.915C5.5517 30.5479 5.65675 30.1879 5.8575 29.8806C6.05826 29.5733 6.34568 29.3324 6.68339 29.1885C7.0211 29.0446 7.39392 29.0042 7.75464 29.0723C8.11535 29.1404 8.44776 29.3139 8.70977 29.571C8.97179 29.8282 9.15162 30.1572 9.22652 30.5166C9.30142 30.876 9.268 31.2495 9.13051 31.5898C8.99302 31.9302 8.75763 32.2221 8.45415 32.4287C8.15066 32.6352 7.79272 32.747 7.42565 32.75ZM14.4806 44.755C14.2363 44.763 13.9929 44.7221 13.7646 44.6347C13.5363 44.5474 13.3278 44.4153 13.1513 44.2462C12.9748 44.0771 12.8338 43.8745 12.7367 43.6502C12.6395 43.4259 12.5882 43.1844 12.5856 42.94C12.5776 42.4475 12.7652 41.972 13.1074 41.6177C13.4495 41.2634 13.9182 41.0592 14.4106 41.05C14.9041 41.0499 15.3778 41.2439 15.7295 41.59C16.0812 41.9361 16.2828 42.4066 16.2906 42.9C16.2908 43.3843 16.1015 43.8494 15.7633 44.196C15.4251 44.5426 14.9648 44.7433 14.4806 44.755ZM25.8306 14.22C28.0381 14.5019 30.0998 15.475 31.7206 17C32.8349 17.9965 33.7235 19.2194 34.3271 20.587C34.9307 21.9545 35.2354 23.4352 35.2206 24.93C35.2206 31.62 29.7606 35.43 25.8156 35.705L25.8306 14.22ZM46.3756 28L45.9806 28.085C45.4442 28.1621 44.9426 28.3967 44.5394 28.7589C44.1363 29.1211 43.8496 29.5948 43.7156 30.12C43.2202 31.8615 42.5238 33.5394 41.6406 35.12C41.4216 35.5038 41.2994 35.9353 41.2846 36.377C41.2698 36.8187 41.3628 37.2573 41.5556 37.655C41.6813 37.9009 41.8233 38.1381 41.9806 38.365L37.6906 42.67C37.268 42.2803 36.7335 42.0335 36.1628 41.9644C35.5921 41.8953 35.0141 42.0075 34.5106 42.285C32.8642 43.1715 31.132 43.8885 29.3406 44.425C28.8356 44.5702 28.3841 44.8603 28.042 45.2592C27.6999 45.6582 27.4821 46.1487 27.4156 46.67C27.4156 46.795 27.3606 46.92 27.3306 47.055H25.8106V38.75C29.1856 38.386 32.3053 36.7825 34.5656 34.25C36.8825 31.7503 38.1623 28.4632 38.1456 25.055C38.1883 22.1611 37.2841 19.3325 35.5706 17C34.4442 15.4037 32.9917 14.0648 31.3092 13.0719C29.6267 12.0789 27.7525 11.4545 25.8106 11.24V2.955H27.3356C27.3579 3.01882 27.3763 3.08394 27.3906 3.15C27.4553 3.77044 27.7177 4.35367 28.139 4.81369C28.5603 5.27371 29.1183 5.58617 29.7306 5.705C31.2937 6.15551 32.8027 6.77587 34.2306 7.555C34.7534 7.80577 35.3178 7.95831 35.8956 8.005C36.5679 8.02522 37.2213 7.78108 37.7156 7.325C39.1706 8.78 40.5906 10.205 42.0106 11.635C41.2206 12.675 41.0106 13.755 41.6156 14.81C42.5107 16.4593 43.2281 18.1991 43.7556 20C43.8971 20.4978 44.1796 20.944 44.5691 21.2847C44.9586 21.6254 45.4385 21.8461 45.9506 21.92L46.3756 22.015V28Z" fill="url(#paint0_linear_7219_73603)"/>
</g>
<defs>
<linearGradient id="paint0_linear_7219_73603" x1="25.9806" y1="50" x2="25.9806" y2="0" gradientUnits="userSpaceOnUse">
<stop stop-color="#FBB040"/>
<stop offset="1" stop-color="#ED8B00"/>
</linearGradient>
<clipPath id="clip0_7219_73603">
<rect width="50" height="50" fill="white" transform="translate(0.980469)"/>
</clipPath>
</defs>
</svg>
