<svg width="51" height="50" viewBox="0 0 51 50" fill="none" xmlns="http://www.w3.org/2000/svg">
<g id="olap.svg" clip-path="url(#clip0_7219_73618)">
<path id="Vector" d="M45.1757 10.125C39.8807 7.065 34.5957 4 29.2857 0.97C28.478 0.584301 27.6423 0.260049 26.7857 0L25.2007 0C22.9507 0.44 21.2007 1.855 19.2557 2.945C15.0507 5.315 10.8757 7.745 6.70573 10.175C5.70687 10.7081 4.87779 11.5109 4.31292 12.4922C3.74805 13.4734 3.4701 14.5935 3.51073 15.725C3.51073 21.9083 3.51073 28.0917 3.51073 34.275C3.47207 35.4143 3.75499 36.5414 4.32711 37.5274C4.89923 38.5133 5.73743 39.3183 6.74573 39.85C12.0357 42.91 17.3257 46 22.6357 49C23.4646 49.3969 24.322 49.7311 25.2007 50H26.7607C28.4207 49.71 29.7607 48.765 31.1957 47.95C35.8624 45.2833 40.5091 42.6017 45.1357 39.905C46.0029 39.4477 46.7494 38.7915 47.3143 37.9903C47.8792 37.189 48.2463 36.2654 48.3857 35.295C48.4374 34.9257 48.4591 34.5528 48.4507 34.18C48.4707 28.06 48.4807 21.94 48.4807 15.82C48.5251 14.6553 48.238 13.5019 47.653 12.4939C47.068 11.4858 46.209 10.6644 45.1757 10.125ZM23.1757 4.04C23.6407 3.77 24.1007 3.49 24.5807 3.255C24.9995 3.02962 25.4677 2.91164 25.9432 2.91164C26.4188 2.91164 26.887 3.02962 27.3057 3.255C29.3907 4.395 31.4357 5.595 33.5357 6.795C33.3807 6.9 33.2807 6.98 33.1707 7.04C30.8757 8.365 28.5807 9.695 26.2807 11.005C26.1939 11.0431 26.1 11.0624 26.0052 11.0615C25.9104 11.0607 25.8168 11.0397 25.7307 11C23.3407 9.64 20.9657 8.265 18.5857 6.89C18.5407 6.865 18.5057 6.835 18.4207 6.78L23.1757 4.04ZM13.9807 40.365C13.9756 40.4422 13.9656 40.5191 13.9507 40.595C13.8157 40.53 13.7007 40.49 13.5957 40.425C11.7757 39.38 9.96073 38.34 8.15073 37.285C7.61378 37.004 7.16705 36.5771 6.8619 36.0535C6.55674 35.5298 6.40556 34.9307 6.42573 34.325V27.54L8.27573 28.61C10.0657 29.645 11.8557 30.67 13.6307 31.715C13.7193 31.7692 13.7952 31.842 13.853 31.9283C13.9108 32.0146 13.9493 32.1124 13.9657 32.215C13.9807 34.935 13.9807 37.65 13.9807 40.365ZM13.9807 28.17C13.9807 28.25 13.9807 28.33 13.9507 28.5L11.3107 27C9.81073 26.125 8.27073 25.25 6.75573 24.36C6.67358 24.3095 6.60276 24.2426 6.54769 24.1634C6.49263 24.0843 6.45451 23.9946 6.43573 23.9C6.43573 21.15 6.43573 18.4 6.43573 15.65C6.44427 15.5918 6.45937 15.5348 6.48073 15.48C6.62573 15.555 6.75073 15.62 6.87073 15.69L13.6307 19.585C13.7423 19.6287 13.8375 19.7061 13.903 19.8065C13.9684 19.9069 14.0008 20.0253 13.9957 20.145C13.9807 22.805 13.9807 25.5 13.9807 28.17ZM15.1957 17.075C12.8357 15.735 10.4907 14.37 8.14073 13.01C8.06557 12.9597 7.99375 12.9046 7.92573 12.845L13.4257 9.68C14.0157 9.34 14.6057 8.985 15.2057 8.68C15.2826 8.64108 15.3666 8.61833 15.4526 8.61317C15.5386 8.60801 15.6248 8.62055 15.7057 8.65C18.0957 10 20.4807 11.38 22.8507 12.755C22.8979 12.7907 22.943 12.8291 22.9857 12.87C22.8813 12.949 22.7728 13.0224 22.6607 13.09C20.3807 14.41 18.1057 15.73 15.8157 17.03C15.7238 17.0798 15.6223 17.1096 15.5181 17.1173C15.4138 17.1251 15.309 17.1107 15.2107 17.075H15.1957ZM16.9107 21.525C17.0388 21.569 17.164 21.6207 17.2857 21.68C19.5807 23.005 21.8757 24.325 24.1607 25.68C24.2475 25.7353 24.3214 25.8085 24.3774 25.8948C24.4335 25.981 24.4704 26.0783 24.4857 26.18C24.4857 28.915 24.4857 31.645 24.4857 34.38C24.4783 34.449 24.4666 34.5174 24.4507 34.585L18.4807 31.11C17.9807 30.815 17.2807 30.61 17.0307 30.18C16.7807 29.75 16.9307 29.015 16.9307 28.415C16.9257 26.14 16.9257 23.865 16.9257 21.525H16.9107ZM24.5007 46.725L20.9307 44.665C19.7057 43.955 18.4757 43.26 17.2657 42.535C17.1773 42.4801 17.1013 42.4072 17.0427 42.321C16.9842 42.2349 16.9443 42.1375 16.9257 42.035C16.9257 39.335 16.9257 36.635 16.9257 33.94C16.9257 33.865 16.9257 33.79 16.9557 33.65C17.1407 33.74 17.2857 33.805 17.4157 33.885C19.6407 35.165 21.8557 36.455 24.0907 37.72C24.2368 37.7868 24.3577 37.8985 24.4359 38.0388C24.5142 38.1791 24.5456 38.3406 24.5257 38.5C24.5057 41.2 24.5157 43.915 24.5157 46.725H24.5007ZM26.2957 23.105C26.201 23.1492 26.0978 23.1721 25.9932 23.1721C25.8887 23.1721 25.7854 23.1492 25.6907 23.105C23.3307 21.765 20.9807 20.4 18.6307 19.045C18.5757 19.01 18.5307 18.97 18.4207 18.89C20.9207 17.46 23.3207 16.06 25.7507 14.67C25.8179 14.638 25.8913 14.6214 25.9657 14.6214C26.0401 14.6214 26.1136 14.638 26.1807 14.67C28.6107 16.055 31.0307 17.46 33.4907 18.88C33.41 18.9586 33.3231 19.0305 33.2307 19.095C30.9357 20.455 28.6307 21.79 26.3107 23.105H26.2957ZM35.0257 29.83C35.0213 29.9252 34.9978 30.0185 34.9566 30.1044C34.9153 30.1903 34.8572 30.267 34.7857 30.33C32.3757 31.76 29.9807 33.15 27.4807 34.575C27.4807 34.395 27.4457 34.265 27.4457 34.13V26.275C27.4457 26.025 27.4457 25.83 27.7257 25.675C30.0557 24.35 32.3707 23.005 34.6957 21.675C34.7757 21.63 34.8657 21.595 35.0357 21.515V25.35C35.0357 26.835 35.0407 28.335 35.0257 29.83ZM34.7357 42.535C32.3957 43.87 30.0607 45.22 27.7357 46.565C27.6707 46.605 27.5957 46.635 27.4557 46.705V46.235C27.4557 43.635 27.4557 41.035 27.4557 38.435C27.44 38.2943 27.4693 38.1521 27.5393 38.0291C27.6094 37.906 27.7167 37.8083 27.8457 37.75C30.0457 36.5 32.2507 35.21 34.4807 33.935L35.0307 33.63C35.0307 33.84 35.0307 33.965 35.0307 34.09C35.0307 36.705 35.0307 39.325 35.0307 41.94C35.0484 42.0574 35.0296 42.1775 34.9768 42.2839C34.9241 42.3903 34.8399 42.478 34.7357 42.535ZM36.2357 17.065C33.8757 15.73 31.5257 14.365 29.1757 13.005C29.1025 12.9561 29.0323 12.9026 28.9657 12.845C31.4657 11.41 33.8857 10.005 36.3257 8.605C36.3869 8.57676 36.4534 8.56214 36.5207 8.56214C36.5881 8.56214 36.6546 8.57676 36.7157 8.605C39.1257 9.985 41.5324 11.375 43.9357 12.775C43.9607 12.775 43.9707 12.825 44.0057 12.87C43.8957 12.945 43.7957 13.02 43.6857 13.08C41.4207 14.39 39.1557 15.705 36.8807 17C36.7819 17.0577 36.6717 17.0934 36.5578 17.1046C36.4439 17.1158 36.3289 17.1023 36.2207 17.065H36.2357ZM38.2957 19.565C40.6107 18.245 42.9157 16.905 45.2257 15.565C45.3057 15.52 45.3907 15.485 45.5107 15.425C45.5107 15.6 45.5107 15.725 45.5107 15.85C45.5107 18.485 45.5107 21.12 45.5107 23.755C45.5039 23.8586 45.475 23.9595 45.4258 24.051C45.3767 24.1424 45.3084 24.2222 45.2257 24.285C42.9107 25.675 40.5857 27 38.2657 28.35C38.1957 28.39 38.1257 28.415 38.0007 28.475C38.0007 28.295 37.9657 28.16 37.9657 28.025C37.9657 25.4217 37.9657 22.8183 37.9657 20.215C37.9459 20.0902 37.9656 19.9624 38.0221 19.8494C38.0786 19.7364 38.169 19.644 38.2807 19.585L38.2957 19.565ZM45.5107 34.5C45.5218 35.0087 45.3992 35.5114 45.1553 35.958C44.9114 36.4045 44.5547 36.7793 44.1207 37.045C42.1207 38.26 40.0907 39.41 38.0107 40.62C38.0107 40.43 37.9657 40.295 37.9657 40.16C37.9657 37.5433 37.9657 34.925 37.9657 32.305C37.9466 32.1874 37.9647 32.0668 38.0176 31.9601C38.0705 31.8534 38.1556 31.7659 38.2607 31.71C40.6007 30.375 42.9357 29.02 45.2607 27.675L45.5157 27.555C45.5157 28.645 45.5157 29.67 45.5157 30.69C45.5207 32 45.5357 33.25 45.5107 34.5Z" fill="url(#paint0_linear_7219_73618)"/>
</g>
<defs>
<linearGradient id="paint0_linear_7219_73618" x1="25.9807" y1="50" x2="25.9807" y2="0" gradientUnits="userSpaceOnUse">
<stop stop-color="#FBB040"/>
<stop offset="1" stop-color="#ED8B00"/>
</linearGradient>
<clipPath id="clip0_7219_73618">
<rect width="50" height="50" fill="white" transform="translate(0.980469)"/>
</clipPath>
</defs>
</svg>
