<svg width="51" height="50" viewBox="0 0 51 50" fill="none" xmlns="http://www.w3.org/2000/svg">
<g id="quality.svg" clip-path="url(#clip0_7219_73657)">
<path id="Vector" d="M0.960938 17.18C1.18894 16.8095 1.44467 16.4569 1.72594 16.125C5.46094 12.335 9.17594 8.56001 12.8909 4.76501C13.1041 4.533 13.3653 4.35019 13.6563 4.22931C13.9473 4.10842 14.2611 4.05236 14.5759 4.06501C22.1726 4.06501 29.7693 4.06501 37.3659 4.06501C37.6732 4.05463 37.9791 4.11043 38.2629 4.22861C38.5468 4.3468 38.8018 4.52462 39.0109 4.75001C42.7609 8.58335 46.5176 12.4033 50.2809 16.21C51.1609 17.105 51.1859 17.785 50.3709 18.71C42.6576 27.57 34.9393 36.42 27.2159 45.26C26.4209 46.17 25.4859 46.16 24.6859 45.26C16.9759 36.42 9.26927 27.5783 1.56594 18.735C1.3468 18.4576 1.14476 18.167 0.960938 17.865L0.960938 17.18ZM16.3309 19L25.9609 40.8L35.5809 19H16.3309ZM16.4609 16H35.4609C35.4109 15.885 35.3809 15.81 35.3459 15.74C33.9559 12.9433 32.5659 10.1483 31.1759 7.35501C31.136 7.23528 31.0546 7.13373 30.9464 7.06865C30.8383 7.00357 30.7104 6.97923 30.5859 7.00001C27.5109 7.00001 24.4409 7.00001 21.3659 7.00001C21.2247 6.98539 21.0826 7.01892 20.9628 7.09516C20.843 7.1714 20.7525 7.28587 20.7059 7.42001C19.3709 10.13 18.0159 12.835 16.6709 15.545C16.6059 15.685 16.5509 15.815 16.4609 16ZM20.4059 35.88L20.4759 35.84C20.4486 35.7365 20.4152 35.6346 20.3759 35.535C18.0059 30.1183 15.6293 24.7083 13.2459 19.305C13.2091 19.1904 13.1322 19.093 13.0294 19.0305C12.9265 18.9681 12.8046 18.9448 12.6859 18.965C10.5059 18.965 8.32594 18.965 6.14594 18.965C6.00509 18.9736 5.86486 18.9903 5.72594 19.015L20.4059 35.88ZM46.2059 19C45.9459 19 45.7859 19 45.6309 19C43.5309 19 41.4309 19 39.3359 19C39.1793 18.9772 39.0197 19.0124 38.8871 19.099C38.7546 19.1855 38.6581 19.3174 38.6159 19.47C36.2826 24.8033 33.9376 30.1183 31.5809 35.415C31.5209 35.555 31.4659 35.7 31.4109 35.845L31.4909 35.895L46.2059 19ZM17.5859 7.02501C16.7759 7.02501 16.0459 7.02501 15.3159 7.02501C15.1561 7.01515 14.9961 7.04254 14.8486 7.105C14.7011 7.16747 14.5701 7.26333 14.4659 7.38501C11.7959 10.1283 9.1026 12.8667 6.38594 15.6C6.27594 15.71 6.17594 15.825 6.03094 15.98C6.11345 15.9969 6.19695 16.0086 6.28094 16.015C8.46094 16.015 10.6409 16.015 12.8209 16.015C13.1159 16.015 13.2109 15.865 13.3209 15.655C14.6809 12.915 16.0443 10.1767 17.4109 7.44001C17.4609 7.33501 17.5059 7.21501 17.5859 7.02501ZM34.3409 7.02501C34.3631 7.10809 34.3898 7.18988 34.4209 7.27001C35.8276 10.09 37.2393 12.9133 38.6559 15.74C38.7134 15.8196 38.7884 15.8848 38.8751 15.9308C38.9618 15.9767 39.0579 16.0021 39.1559 16.005C41.2859 16.005 43.4159 16.005 45.5459 16.005C45.6655 15.9928 45.784 15.9727 45.9009 15.945L37.2659 7.21501C37.1521 7.10583 37.0033 7.04031 36.8459 7.03001C36.0309 7.00001 35.2209 7.02501 34.3409 7.02501Z" fill="url(#paint0_linear_7219_73657)"/>
</g>
<defs>
<linearGradient id="paint0_linear_7219_73657" x1="25.9609" y1="45.935" x2="25.9609" y2="4.06501" gradientUnits="userSpaceOnUse">
<stop stop-color="#FBB040"/>
<stop offset="1" stop-color="#ED8B00"/>
</linearGradient>
<clipPath id="clip0_7219_73657">
<rect width="50" height="50" fill="white" transform="translate(0.960938)"/>
</clipPath>
</defs>
</svg>
