<svg width="51" height="51" viewBox="0 0 51 51" fill="none" xmlns="http://www.w3.org/2000/svg">
<g id="security.svg" clip-path="url(#clip0_7219_73635)">
<path id="Vector" d="M45.0356 5.46998C45.0356 4.11498 44.5356 3.59498 43.1906 3.60498C40.3732 3.61796 37.5598 3.39216 34.7806 2.92998C32.0702 2.47369 29.4051 1.78105 26.8156 0.859976C26.294 0.670047 25.7221 0.670047 25.2006 0.859976C19.8118 2.67089 14.1655 3.59787 8.48055 3.60498C7.48055 3.60498 6.93555 4.23498 6.93555 5.27498C6.93555 12.685 6.93555 20.0966 6.93555 27.51C6.93459 28.6987 7.05183 29.8845 7.28555 31.05C8.08555 35.08 10.0606 38.52 12.7206 41.575C15.9236 45.2604 19.9019 48.1921 24.3706 50.16C24.7696 50.2778 25.1451 50.4639 25.4806 50.71H26.3606C26.3606 50.63 26.4456 50.63 26.5056 50.605C32.5833 48.2071 37.8005 44.0386 41.4806 38.64C42.1725 37.5997 42.7746 36.5024 43.2806 35.36C44.381 33.0578 44.9744 30.5462 45.0206 27.995C45.0606 20.485 45.0356 12.98 45.0356 5.46998ZM38.1606 38.26C35.0453 42.3041 30.9565 45.4932 26.2756 47.53C26.1741 47.5759 26.0632 47.5971 25.9519 47.5919C25.8407 47.5867 25.7323 47.5552 25.6356 47.5C22.0904 45.9264 18.8689 43.7069 16.1356 40.955C14.1546 38.9978 12.5377 36.7037 11.3606 34.18C10.4048 32.1975 9.89293 30.0305 9.86055 27.83C9.83555 20.83 9.86055 13.83 9.86055 6.82998C9.86055 6.74998 9.86055 6.66998 9.86055 6.54498L12.6806 6.35998C17.0334 6.03711 21.3312 5.1893 25.4806 3.83498C25.7467 3.71678 26.0463 3.69728 26.3256 3.77998C31.3184 5.4939 36.5477 6.41999 41.8256 6.52498C41.9006 6.52498 41.9806 6.52498 42.1106 6.52498V7.20998C42.1106 13.645 42.0356 20.075 42.1106 26.51C42.1888 30.765 40.7933 34.9163 38.1606 38.26ZM39.1606 11.1C39.1606 9.81498 38.7456 9.31998 37.4656 9.19998C33.79 8.8376 30.1621 8.09359 26.6406 6.97998C26.1924 6.83232 25.7087 6.83232 25.2606 6.97998C21.7262 8.04188 18.1005 8.77171 14.4306 9.15998C13.2256 9.28998 12.7856 9.77498 12.7856 11.005C12.7856 16.33 12.8206 21.655 12.7856 27.005C12.7488 29.8398 13.5489 32.6225 15.0856 35.005C17.6256 39.035 21.1756 41.95 25.3506 44.16C25.5778 44.2711 25.8294 44.3229 26.082 44.3107C26.3347 44.2985 26.5801 44.2225 26.7956 44.09C29.8861 42.4625 32.6438 40.2695 34.9256 37.625C36.1221 36.2522 37.1156 34.7149 37.8756 33.06C38.722 31.2643 39.1657 29.3052 39.1756 27.32V19.505L39.1606 11.1ZM34.0856 33.9C32.0314 36.8332 29.3389 39.2624 26.2106 41.005C26.1455 41.051 26.0678 41.0758 25.9881 41.0758C25.9083 41.0758 25.8306 41.051 25.7656 41.005C22.2156 38.915 19.1656 36.305 17.1306 32.655C16.1839 30.9776 15.6942 29.081 15.7106 27.155C15.7356 22.285 15.7106 17.415 15.7106 12.545V11.98L18.6106 11.525C20.9381 11.1476 23.2393 10.6232 25.5006 9.95498C25.7785 9.86515 26.0776 9.86515 26.3556 9.95498C28.9783 10.7482 31.6509 11.3662 34.3556 11.805C34.9606 11.91 35.5706 11.955 36.1706 12.025C36.2336 12.2184 36.2507 12.4238 36.2206 12.625C36.2206 17.33 36.1756 22.04 36.2206 26.745C36.2769 29.2949 35.53 31.7979 34.0856 33.9ZM26.2356 18.465C25.2524 18.4111 24.2793 18.6874 23.4712 19.25C22.6631 19.8126 22.0662 20.6292 21.7756 21.57C21.4745 22.509 21.5066 23.5232 21.8664 24.4413C22.2262 25.3595 22.8917 26.1254 23.7506 26.61C24.3956 26.96 24.6806 27.325 24.5106 27.9C24.5106 28.255 24.5106 28.48 24.5106 28.71C24.5106 29.0985 24.6649 29.4711 24.9396 29.7459C25.2144 30.0206 25.587 30.175 25.9756 30.175C26.3641 30.175 26.7367 30.0206 27.0115 29.7459C27.2862 29.4711 27.4406 29.0985 27.4406 28.71C27.4406 28.3 27.4406 27.895 27.4406 27.49C27.4157 27.3507 27.444 27.2071 27.5199 27.0876C27.5959 26.9682 27.7138 26.8816 27.8506 26.845C28.7364 26.4308 29.4586 25.7327 29.9026 24.8615C30.3466 23.9902 30.487 22.9956 30.3015 22.0355C30.116 21.0754 29.6153 20.2047 28.8787 19.5615C28.1422 18.9183 27.2119 18.5394 26.2356 18.485V18.465ZM25.9806 24.32C25.6904 24.32 25.4067 24.2338 25.1656 24.0724C24.9245 23.9109 24.7367 23.6815 24.6261 23.4133C24.5156 23.145 24.4871 22.8499 24.5445 22.5655C24.6018 22.281 24.7423 22.02 24.9482 21.8155C25.1541 21.611 25.4161 21.4723 25.7009 21.4169C25.9858 21.3615 26.2806 21.392 26.5481 21.5044C26.8157 21.6168 27.0438 21.8061 27.2035 22.0484C27.3633 22.2906 27.4475 22.5748 27.4456 22.865C27.4341 23.249 27.2758 23.6139 27.0032 23.8847C26.7307 24.1554 26.3646 24.3112 25.9806 24.32Z" fill="url(#paint0_linear_7219_73635)"/>
</g>
<defs>
<linearGradient id="paint0_linear_7219_73635" x1="25.9806" y1="50.71" x2="25.9806" y2="0.709974" gradientUnits="userSpaceOnUse">
<stop stop-color="#FBB040"/>
<stop offset="1" stop-color="#ED8B00"/>
</linearGradient>
<clipPath id="clip0_7219_73635">
<rect width="50" height="50" fill="white" transform="translate(0.980469 0.709961)"/>
</clipPath>
</defs>
</svg>
