<svg width="101" height="100" viewBox="0 0 101 100" fill="none" xmlns="http://www.w3.org/2000/svg">
<g id="service-options_support.svg" clip-path="url(#clip0_7219_73561)">
<path id="Vector" d="M35.8651 7.15509C34.0151 8.28009 32.2101 9.40509 30.3651 10.4951C30.0101 10.7051 30.0751 10.9601 30.0801 11.2501C30.119 11.9063 29.9583 12.559 29.6192 13.1222C29.2801 13.6853 28.7783 14.1326 28.1801 14.4051C27.6052 14.7196 26.9474 14.8495 26.2962 14.777C25.6449 14.7046 25.0317 14.4333 24.5401 14.0001C24.055 13.6309 23.6857 13.1305 23.4757 12.5582C23.2657 11.9859 23.2239 11.3654 23.3551 10.7701C23.4117 10.627 23.4116 10.4678 23.355 10.3247C23.2983 10.1817 23.1893 10.0656 23.0501 10.0001C21.2701 8.79509 19.5101 7.56509 17.7351 6.35009C17.5851 6.25009 17.4701 6.08009 17.1951 6.21009C15.4151 7.08509 14.5601 7.00009 13.0001 5.92009C11.1851 7.08009 9.36508 8.25009 7.53508 9.42009C7.33008 9.55009 7.34008 9.69509 7.35008 9.89509C7.39473 10.3409 7.35112 10.7912 7.22176 11.2202C7.0924 11.6492 6.8798 12.0485 6.59612 12.3953C6.31244 12.7421 5.96322 13.0297 5.56841 13.2416C5.17359 13.4534 4.74092 13.5854 4.29508 13.6301C3.84924 13.6747 3.39897 13.6311 2.96999 13.5018C2.541 13.3724 2.14169 13.1598 1.79487 12.8761C1.09442 12.3032 0.650251 11.4755 0.560077 10.5751C0.473113 9.96191 0.565667 9.33667 0.826547 8.77498C1.08743 8.21329 1.50545 7.73922 2.03008 7.41009C2.5394 7.04323 3.14355 6.83071 3.77038 6.7979C4.39721 6.7651 5.02024 6.9134 5.56508 7.22509C5.75008 7.32009 5.92008 7.44509 6.13508 7.58009L7.00008 7.03009C8.50008 6.03009 10.0401 5.07509 11.5751 4.11009C11.6885 4.05515 11.7831 3.96795 11.8472 3.85944C11.9112 3.75092 11.9418 3.62592 11.9351 3.50009C11.9105 3.01573 11.9914 2.5318 12.1721 2.08175C12.3528 1.6317 12.6292 1.22626 12.9819 0.893456C13.3347 0.560648 13.7555 0.308406 14.2153 0.154162C14.6752 -8.15988e-05 15.163 -0.0526489 15.6451 9.30689e-05C16.1061 0.0424261 16.5535 0.178727 16.9598 0.400593C17.3661 0.622459 17.7226 0.925188 18.0075 1.29012C18.2923 1.65505 18.4994 2.07445 18.6159 2.52247C18.7324 2.97049 18.756 3.43763 18.6851 3.89509C18.6551 4.11009 18.6851 4.24009 18.8551 4.39509C20.8551 5.75509 22.8301 7.13009 24.8201 8.50009C25.4416 8.10854 26.1706 7.92247 26.9037 7.96823C27.6369 8.014 28.3371 8.28928 28.9051 8.75509L33.4551 5.97009C33.5701 5.90509 33.6801 5.82509 33.7951 5.76509C34.0867 5.66616 34.3363 5.47153 34.5033 5.21284C34.6703 4.95414 34.7449 4.64657 34.7151 4.34009C34.727 3.58674 35.0011 2.8611 35.4903 2.28801C35.9794 1.71493 36.653 1.33022 37.3951 1.20009C38.1288 1.05143 38.891 1.14688 39.5653 1.47188C40.2397 1.79688 40.7892 2.33358 41.1301 3.00009C41.46 3.66895 41.5615 4.42751 41.4191 5.15957C41.2767 5.89163 40.8982 6.55682 40.3416 7.05324C39.7851 7.54967 39.0811 7.84994 38.3376 7.90807C37.5941 7.9662 36.852 7.77898 36.2251 7.37509L35.8651 7.15509ZM15.3001 2.27509C15.1546 2.27442 15.0104 2.30274 14.876 2.3584C14.7416 2.41407 14.6196 2.49597 14.5172 2.59931C14.4148 2.70265 14.334 2.82537 14.2795 2.96028C14.2251 3.0952 14.1981 3.23962 14.2001 3.38509C14.1974 3.53601 14.225 3.68593 14.2812 3.826C14.3374 3.96608 14.4211 4.09348 14.5274 4.20067C14.6336 4.30787 14.7603 4.39269 14.8999 4.45012C15.0395 4.50756 15.1891 4.53645 15.3401 4.53509C15.6345 4.5215 15.913 4.39779 16.1204 4.18849C16.3279 3.97919 16.4491 3.69958 16.4601 3.40509C16.4594 3.25434 16.4288 3.10522 16.3699 2.96644C16.311 2.82766 16.2251 2.702 16.1171 2.59681C16.0091 2.49161 15.8812 2.40898 15.7409 2.35375C15.6007 2.29851 15.4508 2.27177 15.3001 2.27509ZM27.8001 11.3301C27.7961 11.0357 27.6764 10.7546 27.4668 10.5478C27.2572 10.341 26.9745 10.2251 26.6801 10.2251C26.3804 10.2251 26.093 10.3441 25.881 10.5561C25.6691 10.768 25.5501 11.0554 25.5501 11.3551C25.5501 11.6548 25.6691 11.9422 25.881 12.1541C26.093 12.366 26.3804 12.4851 26.6801 12.4851C26.8322 12.4893 26.9836 12.4622 27.1248 12.4055C27.266 12.3488 27.3941 12.2636 27.501 12.1553C27.6079 12.0469 27.6914 11.9178 27.7463 11.7758C27.8012 11.6339 27.8263 11.4822 27.8201 11.3301H27.8001ZM5.06508 10.2401C5.0698 10.0899 5.04412 9.94031 4.98957 9.8003C4.93503 9.66029 4.85275 9.53274 4.74767 9.42533C4.64259 9.31792 4.51689 9.23285 4.37811 9.17524C4.23933 9.11763 4.09033 9.08867 3.94008 9.09009C3.64038 9.09009 3.35296 9.20915 3.14105 9.42106C2.92913 9.63298 2.81008 9.9204 2.81008 10.2201C2.81008 10.5198 2.92913 10.8072 3.14105 11.0191C3.35296 11.231 3.64038 11.3501 3.94008 11.3501C4.08692 11.3514 4.23258 11.3237 4.36869 11.2686C4.50479 11.2134 4.62867 11.132 4.7332 11.0288C4.83774 10.9257 4.92087 10.8029 4.97782 10.6676C5.03477 10.5322 5.06442 10.3869 5.06508 10.2401ZM36.9501 4.50009C36.9461 4.65105 36.9721 4.8013 37.0267 4.9421C37.0813 5.08291 37.1633 5.21148 37.2679 5.32033C37.3726 5.42918 37.4978 5.51616 37.6364 5.5762C37.775 5.63624 37.9241 5.66816 38.0751 5.67009C38.3699 5.66269 38.6508 5.54328 38.8607 5.33616C39.0706 5.12905 39.1937 4.84976 39.2051 4.55509C39.2106 4.26125 39.1015 3.9768 38.9008 3.7621C38.7001 3.54741 38.4236 3.41935 38.1301 3.40509C37.9798 3.39559 37.8291 3.41676 37.6873 3.46733C37.5454 3.5179 37.4154 3.5968 37.305 3.69923C37.1946 3.80167 37.1062 3.92549 37.0452 4.06317C36.9842 4.20085 36.9518 4.34951 36.9501 4.50009Z" fill="#222222"/>
<path id="Vector_2" d="M11.9297 22.74C11.9297 19.53 11.9297 16.32 11.9297 13.11C11.9297 12.61 12.0697 12.47 12.5697 12.475C14.4397 12.505 16.3097 12.5 18.1747 12.475C18.6147 12.475 18.7597 12.585 18.7597 13.045C18.7597 19.4983 18.7597 25.955 18.7597 32.415C18.7597 32.86 18.6347 33 18.1847 32.995C16.2947 32.995 14.4097 32.965 12.5197 32.995C12.0197 32.995 11.9297 32.81 11.9347 32.365C11.9397 29.16 11.9297 25.95 11.9297 22.74Z" fill="#E9000E"/>
<path id="Vector_3" d="M34.6253 23.305C34.6253 20.305 34.6253 17.265 34.6253 14.245C34.6253 13.745 34.7753 13.605 35.2653 13.61C37.1553 13.64 39.0436 13.64 40.9303 13.61C41.4303 13.61 41.5303 13.765 41.5303 14.225C41.5303 20.285 41.5303 26.3467 41.5303 32.41C41.5003 32.85 41.4103 33 40.9503 33C39.0403 33 37.1353 33 35.2253 33C34.7253 33 34.6153 32.825 34.6203 32.37C34.6303 29.35 34.6253 26.33 34.6253 23.305Z" fill="#E9000E"/>
<path id="Vector_4" d="M0.5 25C0.5 22.5 0.5 20.055 0.5 17.585C0.5 17.14 0.635 17 1.08 17C2.98667 17.02 4.89167 17.02 6.795 17C7.295 17 7.4 17.18 7.4 17.63C7.4 22.5367 7.4 27.4417 7.4 32.345C7.4 32.795 7.285 32.985 6.8 32.98C4.895 33 3 33 1.08 33C0.64 33 0.5 32.88 0.5 32.425C0.5 29.955 0.5 27.5 0.5 25Z" fill="#E9000E"/>
<path id="Vector_5" d="M30.0848 25.5751C30.0848 27.8551 30.0848 30.1401 30.0848 32.4251C30.0848 32.8751 29.9448 33.0051 29.5048 33.0001C27.5998 33.0001 25.6898 33.0001 23.7848 33.0001C23.3998 33.0001 23.2598 32.8951 23.2598 32.5001C23.2598 27.8967 23.2598 23.2917 23.2598 18.6851C23.2598 18.2901 23.3848 18.1851 23.7598 18.1851C25.6848 18.1851 27.6098 18.1851 29.5348 18.1851C29.9798 18.1851 30.0648 18.3551 30.0648 18.7501C30.0798 21.0001 30.0848 23.2901 30.0848 25.5751Z" fill="#E9000E"/>
<path id="Vector_6" d="M59.2951 97.065C59.2101 96.3 59.0401 95.565 58.9251 94.775C58.9232 94.6391 58.8711 94.5088 58.7787 94.409C58.6864 94.3093 58.5604 94.2473 58.4251 94.235C55.3918 93.5188 52.4944 92.3166 49.8451 90.675C49.7314 90.5867 49.5893 90.5431 49.4457 90.5523C49.302 90.5615 49.1666 90.6229 49.0651 90.725C48.3551 91.2417 47.6385 91.7583 46.9151 92.275C45.4851 93.275 44.1451 93.14 42.9151 91.92C41.4501 90.46 39.9801 88.995 38.5251 87.525C37.9839 87.0562 37.6433 86.3975 37.5735 85.6848C37.5037 84.9722 37.7101 84.2599 38.1501 83.695C38.6501 82.92 39.2201 82.195 39.7751 81.42C39.8747 81.3167 39.9337 81.1808 39.941 81.0375C39.9484 80.8941 39.9036 80.753 39.8151 80.64C38.19 78.0138 36.9966 75.1441 36.2801 72.14C36.2627 71.9849 36.1878 71.842 36.0703 71.7393C35.9528 71.6366 35.8011 71.5815 35.6451 71.585C34.9901 71.505 34.3451 71.36 33.6901 71.29C32.2301 71.135 31.1101 70.505 30.4951 69.12V61.035C30.9951 59.465 32.2451 58.905 33.7601 58.72C34.5251 58.625 35.4301 58.68 36.0051 58.28C36.5801 57.88 36.5051 56.89 36.7351 56.16C37.438 53.8546 38.4292 51.6471 39.6851 49.59C39.8322 49.413 39.9072 49.1871 39.8951 48.9573C39.8831 48.7275 39.7849 48.5106 39.6201 48.35C39.1201 47.735 38.6701 47.07 38.2201 46.415C37.2201 44.975 37.3551 43.65 38.5751 42.415C40.0351 40.945 41.5001 39.48 42.9701 38.02C43.4374 37.4784 44.0949 37.1369 44.8067 37.0662C45.5186 36.9955 46.2304 37.2009 46.7951 37.64C47.5701 38.14 48.3251 38.71 49.0701 39.27C49.1734 39.3696 49.3093 39.4285 49.4526 39.4359C49.596 39.4432 49.7371 39.3985 49.8501 39.31C52.5025 37.672 55.4012 36.4716 58.4351 35.755C58.5709 35.7415 58.6969 35.6785 58.7891 35.5779C58.8814 35.4774 58.9333 35.3464 58.9351 35.21C59.0501 34.45 59.2201 33.71 59.3051 32.925C59.3337 32.2681 59.5627 31.6357 59.9614 31.1128C60.36 30.5899 60.9092 30.2015 61.5351 30H69.4651C70.0948 30.1998 70.6476 30.5887 71.0484 31.1139C71.4492 31.639 71.6785 32.2749 71.7051 32.935C71.7901 33.7 71.9601 34.435 72.0751 35.225C72.078 35.3611 72.1303 35.4915 72.2223 35.5918C72.3144 35.6921 72.4398 35.7554 72.5751 35.77C75.6308 36.4923 78.55 37.7029 81.2201 39.355C81.3167 39.4292 81.4371 39.4655 81.5586 39.4573C81.6801 39.449 81.7945 39.3966 81.8801 39.31C82.6101 38.77 83.3501 38.2417 84.1001 37.725C85.5301 36.725 86.8651 36.86 88.1001 38.08C89.5451 39.545 91.0001 41 92.5001 42.5C93.0406 42.9695 93.3803 43.6286 93.4491 44.3412C93.5179 45.0538 93.3107 45.7657 92.8701 46.33C92.3701 47.1 91.8001 47.83 91.2451 48.605C91.1449 48.707 91.0855 48.8421 91.0781 48.9849C91.0707 49.1277 91.1159 49.2683 91.2051 49.38C92.8303 52.0067 94.0253 54.8762 94.7451 57.88C94.7613 58.0351 94.8349 58.1786 94.9515 58.2822C95.0681 58.3858 95.2192 58.4421 95.3751 58.44C96.0101 58.52 96.6301 58.67 97.2651 58.73C98.7651 58.88 99.9051 59.48 100.525 60.905V69.105C99.7751 70.945 98.1301 71.275 96.4551 71.385C95.2251 71.46 94.7351 71.965 94.4551 73.17C93.7103 76.0695 92.4795 78.8217 90.8151 81.31C90.9751 81.48 91.1201 81.645 91.2801 81.81C93.8068 84.34 96.3334 86.8667 98.8601 89.39C99.4301 89.96 99.9801 90.55 100.54 91.13V92.085C99.6601 93.245 98.9101 93.295 97.8751 92.265C90.5718 84.975 83.2651 77.6867 75.9551 70.4C75.6528 70.1312 75.4421 69.7746 75.3524 69.3802C75.2628 68.9857 75.2987 68.5731 75.4551 68.2C76.6901 64.055 75.8051 60.355 72.6301 57.415C69.4551 54.475 65.8001 53.915 61.7751 55.315C61.6688 55.3527 61.5652 55.3978 61.4651 55.45C61.4134 55.4782 61.3648 55.5117 61.3201 55.55L65.6051 58.05C66.5501 58.6 67.4901 59.15 68.4451 59.685C68.7108 59.8168 68.9315 60.0244 69.0792 60.2816C69.227 60.5388 69.2951 60.8341 69.2751 61.13C69.2551 62.8133 69.2551 64.4983 69.2751 66.185C69.2984 66.4924 69.2288 66.7997 69.0755 67.0671C68.9222 67.3345 68.6921 67.5498 68.4151 67.685C66.9701 68.5 65.5301 69.325 64.1051 70.185C63.8323 70.3705 63.51 70.4697 63.1801 70.4697C62.8502 70.4697 62.5279 70.3705 62.2551 70.185C60.1401 68.94 58.0051 67.725 55.8751 66.5C55.6801 66.385 55.4801 66.28 55.2101 66.135C55.3057 67.3436 55.6351 68.5221 56.1801 69.605C57.2733 71.8593 59.145 73.6421 61.4498 74.6245C63.7545 75.6068 66.3368 75.7224 68.7201 74.95C69.1047 74.7867 69.5313 74.7505 69.9379 74.8467C70.3444 74.943 70.7096 75.1666 70.9801 75.485C78.2501 82.7817 85.5334 90.0617 92.8301 97.325C93.9451 98.44 93.9351 99.065 92.7651 100.065H91.7501C90.5251 99.065 89.4701 97.87 88.3401 96.76C86.3401 94.8 84.3751 92.815 82.4051 90.83C82.25 90.6383 82.1159 90.4304 82.0051 90.21C79.4823 91.9275 76.6808 93.1946 73.7251 93.955C72.4501 94.255 71.8401 94.78 71.8851 96.07C71.8656 96.2717 71.8339 96.4721 71.7901 96.67C71.6601 98.17 71.0851 99.42 69.6001 100.065H61.5351C60.8968 99.8589 60.3383 99.4594 59.937 98.922C59.5357 98.3845 59.3114 97.7356 59.2951 97.065ZM88.8501 79.2C89.9457 77.441 90.8238 75.5556 91.4651 73.585C91.8053 72.5473 92.0842 71.4905 92.3001 70.42C92.3239 70.0626 92.4809 69.7271 92.7401 69.4798C92.9994 69.2326 93.342 69.0917 93.7001 69.085L97.7401 68.395V61.61C96.3701 61.375 95.0151 61.11 93.6501 60.915C93.3171 60.8914 93.0025 60.7537 92.7593 60.5251C92.5161 60.2964 92.3592 59.9909 92.3151 59.66C91.6242 56.1473 90.2407 52.8073 88.2451 49.835C88.0393 49.5602 87.934 49.2232 87.9467 48.8801C87.9595 48.5371 88.0895 48.2088 88.3151 47.95C89.1201 46.85 89.9001 45.73 90.6551 44.67L85.8351 39.84L82.7451 42.045C81.7451 42.745 81.4501 42.77 80.4651 42.125C77.5692 40.2227 74.3361 38.8922 70.9401 38.205C70.0351 38.015 69.7401 37.705 69.5801 36.75C69.3501 35.43 69.1251 34.11 68.8951 32.75H62.1101C61.8801 34.1 61.6468 35.455 61.4101 36.815C61.4002 37.162 61.2626 37.4932 61.0236 37.7451C60.7846 37.997 60.4612 38.1518 60.1151 38.18C56.6262 38.8692 53.3087 40.2441 50.3551 42.225C50.0833 42.4362 49.7472 42.5475 49.403 42.5402C49.0589 42.5329 48.7277 42.4075 48.4651 42.185C47.3651 41.38 46.2451 40.6 45.1951 39.85L40.3651 44.675L42.4101 47.56C43.3001 48.805 43.3101 48.955 42.4901 50.23C40.6629 53.0649 39.3793 56.2153 38.7051 59.52C38.5151 60.45 38.2051 60.74 37.2751 60.905L33.2751 61.59V68.38L37.3101 69.07C38.1701 69.22 38.5301 69.53 38.6951 70.345C39.3847 73.8346 40.7577 77.1533 42.7351 80.11C42.953 80.3902 43.0667 80.7375 43.0566 81.0924C43.0466 81.4472 42.9135 81.7875 42.6801 82.055C41.8701 83.15 41.0951 84.27 40.3351 85.34L45.1551 90.155L48.3351 87.885C49.2251 87.255 49.5801 87.235 50.4951 87.84C53.385 89.7395 56.6085 91.0747 59.9951 91.775C60.9651 91.98 61.2351 92.275 61.4101 93.275C61.6401 94.59 61.8651 95.91 62.0951 97.245H68.8751C69.1101 95.9 69.3351 94.56 69.5701 93.245C69.7301 92.32 70.0201 92.01 70.9551 91.815C74.0775 91.1793 77.0621 89.9943 79.7701 88.315C79.7701 88.25 79.7701 88.19 79.7401 88.165L73.7401 82.205C72.3001 80.75 70.8551 79.3 69.4301 77.83C69.1751 77.57 68.9301 77.69 68.6801 77.745C64.5701 78.71 60.7851 77.975 57.4651 75.385C53.6751 72.44 52.0501 68.47 52.3951 63.7C52.4801 62.49 53.5351 61.985 54.6251 62.605C57.2918 64.1317 59.9501 65.6667 62.6001 67.21C62.7493 67.3243 62.9321 67.3863 63.1201 67.3863C63.3081 67.3863 63.4909 67.3243 63.6401 67.21C64.4051 66.71 65.2001 66.27 66.0001 65.84C66.1595 65.7812 66.2949 65.6713 66.3854 65.5276C66.4758 65.3838 66.5161 65.2141 66.5001 65.045C66.4651 64.115 66.4651 63.18 66.5001 62.245C66.5175 62.0693 66.4784 61.8926 66.3885 61.7406C66.2985 61.5887 66.1625 61.4693 66.0001 61.4C63.3901 59.9 60.7901 58.4 58.1951 56.9C56.8151 56.105 56.7451 55.02 58.0651 54.17C62.6951 51.17 67.5051 50.94 72.2401 53.735C76.9751 56.53 78.9751 60.835 78.6201 66.27C78.5439 66.9253 78.4253 67.575 78.2651 68.215C78.2138 68.3394 78.1997 68.476 78.2246 68.6083C78.2495 68.7405 78.3122 68.8627 78.4051 68.96C79.8601 70.365 81.2951 71.79 82.7401 73.21L88.8501 79.2Z" fill="#222222"/>
<path id="Vector_7" d="M100.5 69.1001C99.75 70.9401 98.105 71.2701 96.43 71.3801C95.2 71.4551 94.71 71.9601 94.43 73.1651C93.6852 76.0646 92.4544 78.8168 90.79 81.3051C90.95 81.4751 91.095 81.6401 91.255 81.8051C93.7817 84.3351 96.3084 86.8618 98.835 89.3851C99.405 89.9551 99.955 90.5451 100.515 91.1251L100.5 69.1001Z" fill="#FDFDFE"/>
<path id="Vector_8" d="M82.7155 73.2251C83.5533 71.7089 84.1042 70.0511 84.3405 68.3351C85.2405 62.9051 84.1205 57.9001 80.7805 53.5101C77.4405 49.1201 72.9455 46.5001 67.3755 46.0001C59.8755 45.3501 53.9655 48.2451 49.6305 54.3301C47.8175 56.9169 46.7362 59.945 46.5005 63.0951C45.9255 69.6301 48.1305 75.0951 53.0005 79.4401C55.9457 82.0703 59.662 83.6785 63.5955 84.0251C66.8683 84.3722 70.1749 83.855 73.1855 82.5251C73.406 82.4645 73.6085 82.3513 73.7755 82.1951C72.3355 80.7401 70.8905 79.2901 69.4655 77.8201C69.2105 77.5601 68.9655 77.6801 68.7155 77.7351C64.6055 78.7001 60.8205 77.9651 57.5005 75.3751C53.7105 72.4301 52.0855 68.4601 52.4305 63.6901C52.5155 62.4801 53.5705 61.9751 54.6605 62.5951C57.3271 64.1217 59.9855 65.6567 62.6355 67.2001C62.7847 67.3144 62.9675 67.3764 63.1555 67.3764C63.3435 67.3764 63.5262 67.3144 63.6755 67.2001C64.4405 66.7001 65.2355 66.2601 66.0355 65.8301C66.1948 65.7713 66.3303 65.6614 66.4207 65.5176C66.5111 65.3738 66.5515 65.2042 66.5355 65.0351C66.5005 64.1051 66.5005 63.1701 66.5355 62.2351C66.5528 62.0593 66.5137 61.8827 66.4238 61.7307C66.3339 61.5787 66.1978 61.4594 66.0355 61.3901C63.4255 59.8901 60.8255 58.3901 58.2305 56.8901C56.8505 56.0951 56.7805 55.0101 58.1005 54.1601C62.7305 51.1601 67.5405 50.9301 72.2755 53.7251C77.0105 56.5201 79.0105 60.8251 78.6555 66.2601C78.5793 66.9154 78.4607 67.5651 78.3005 68.2051C78.2492 68.3295 78.2351 68.4661 78.2599 68.5983C78.2848 68.7306 78.3475 68.8528 78.4405 68.9501C79.8355 70.3801 81.2705 71.8051 82.7155 73.2251Z" fill="#E9000E"/>
</g>
<defs>
<clipPath id="clip0_7219_73561">
<rect width="100" height="100" fill="white" transform="translate(0.5)"/>
</clipPath>
</defs>
</svg>
