<svg width="101" height="100" viewBox="0 0 101 100" fill="none" xmlns="http://www.w3.org/2000/svg">
<g id="service-options_launch.svg" clip-path="url(#clip0_7219_73502)">
<path id="Vector" d="M15.2903 79.625C14.9003 79.215 14.5203 78.79 14.1103 78.4C13.8761 78.1971 13.7104 77.9267 13.6361 77.6259C13.5618 77.3251 13.5825 77.0086 13.6953 76.72C14.0003 75.745 14.2953 74.77 14.6253 73.72C13.5203 73.37 12.4253 73.015 11.3303 72.68C8.3303 71.7433 5.31364 70.8133 2.2803 69.89C0.805304 69.435 0.475304 68.63 1.2803 67.335C5.17364 61.1117 10.747 57.455 18.0003 56.365C19.757 56.0863 21.5436 56.0493 23.3103 56.255C23.5156 56.2915 23.7272 56.263 23.9155 56.1733C24.1037 56.0837 24.2593 55.9374 24.3603 55.755C28.9598 49.0539 34.6444 43.1665 41.1803 38.335C45.8553 34.9 50.8753 32.16 56.5553 30.755C57.69 30.4808 58.8405 30.2771 60.0003 30.145C60.1103 30.145 60.2353 30.145 60.2703 30H64.6453C65.5453 30.175 66.4353 30.415 67.3403 30.5C69.0003 30.665 69.8403 31.54 70.0253 33.18C70.0918 34.0482 70.2596 34.9057 70.5253 35.735V36.285C70.2903 36.51 70.3553 36.74 70.5253 36.97V40.11C70.1953 40.91 70.2253 41.78 70.0553 42.61C68.9153 48.235 66.4053 53.245 63.1653 57.92C58.2493 64.9544 52.1122 71.0508 45.0453 75.92C44.7567 76.0968 44.5295 76.3582 44.3944 76.6685C44.2593 76.9789 44.223 77.3233 44.2903 77.655C44.7585 83.3182 43.0888 88.9515 39.6103 93.445C37.8505 95.7786 35.6529 97.7469 33.1403 99.24C31.9053 99.975 31.0903 99.67 30.6403 98.285C29.3903 94.285 28.1453 90.2733 26.9053 86.25C26.8703 86.145 26.8353 86.04 26.7753 85.87C25.8753 86.15 24.9853 86.4 24.1203 86.71C23.7375 86.8954 23.3019 86.941 22.889 86.8387C22.4762 86.7364 22.1122 86.4927 21.8603 86.15C21.5483 85.8147 21.2142 85.5007 20.8603 85.21C19.0503 83.3067 17.1936 81.445 15.2903 79.625ZM48.5503 36.75C46.9456 37.5984 45.4019 38.5574 43.9303 39.62C33.4303 47.235 25.6603 57.12 19.7903 68.62C19.7004 68.7461 19.6641 68.9026 19.6894 69.0554C19.7147 69.2082 19.7995 69.3447 19.9253 69.435C23.642 73.145 27.347 76.85 31.0403 80.55C31.0888 80.6164 31.1499 80.6726 31.2202 80.7154C31.2905 80.7581 31.3685 80.7866 31.4498 80.7991C31.5311 80.8117 31.614 80.8081 31.6939 80.7885C31.7738 80.7689 31.849 80.7337 31.9153 80.685C34.2903 79.485 36.6153 78.185 38.8653 76.775C46.9503 71.65 54.1403 65.5 59.9403 57.85C61.36 55.9827 62.6306 54.0066 63.7403 51.94C55.8103 49.735 50.7653 44.69 48.5503 36.75ZM67.1753 33.33C66.1905 33.0894 65.1868 32.9338 64.1753 32.865C59.7803 32.53 55.6403 33.525 51.6253 35.215C51.5392 35.2341 51.4586 35.2725 51.3894 35.3272C51.3203 35.3819 51.2644 35.4515 51.2259 35.5308C51.1875 35.6102 51.1674 35.6972 51.1673 35.7853C51.1672 35.8735 51.187 35.9606 51.2253 36.04C53.0453 43.04 57.4503 47.445 64.4403 49.255C64.5205 49.2922 64.6081 49.311 64.6966 49.3098C64.785 49.3086 64.8721 49.2876 64.9513 49.2482C65.0305 49.2088 65.0999 49.1522 65.1542 49.0824C65.2086 49.0126 65.2465 48.9314 65.2653 48.845C66.0768 46.9416 66.7079 44.9663 67.1503 42.945C67.8536 39.7795 67.8621 36.4991 67.1753 33.33ZM32.8203 96.09C37.9103 93.5 43.0003 83.085 41.5003 78.355C37.6484 80.8761 33.5808 83.0513 29.3453 84.855C30.5003 88.635 31.6553 92.34 32.8203 96.09ZM4.3953 67.67L15.6453 71.17C17.4574 66.9032 19.6443 62.8055 22.1803 58.925C14.9403 58.5 7.8703 62.255 4.3953 67.67ZM28.6003 82.17L18.3103 71.895C17.6653 73.395 17.0853 74.98 16.5703 76.6C16.5323 76.7047 16.5303 76.8192 16.5647 76.9252C16.5991 77.0312 16.668 77.1226 16.7603 77.185C18.9336 79.355 21.1003 81.5217 23.2603 83.685C23.3408 83.7895 23.454 83.864 23.5818 83.8966C23.7095 83.9292 23.8446 83.9181 23.9653 83.865C25.5653 83.39 27.1153 82.81 28.6003 82.185V82.17Z" fill="#222222"/>
<path id="Vector_2" d="M15.29 79.625C17.1967 81.445 19.0583 83.3067 20.875 85.21C20.2103 87.5042 19.1566 89.6673 17.76 91.605C15.4147 94.8141 12.1871 97.2722 8.47 98.68C6.829 99.3433 5.09506 99.7481 3.33 99.88C3.25 99.88 3.175 99.96 3.1 100H0.5V97.675C0.63 96.88 0.745 96.08 0.9 95.29C1.8228 90.2668 4.64251 85.7911 8.775 82.79C10.7556 81.3801 12.9575 80.3105 15.29 79.625Z" fill="#FBB040"/>
<path id="Vector_3" d="M70.4995 36.9999C70.3295 36.7699 70.2645 36.5399 70.4995 36.3149V36.9999Z" fill="#E9000E"/>
<path id="Vector_4" d="M43.5404 65.68C41.2619 65.6305 39.0935 64.6899 37.5004 63.06C36.6491 62.2322 35.9727 61.2417 35.5115 60.1475C35.0502 59.0532 34.8135 57.8775 34.8154 56.69C34.9104 51.87 39.0204 47.865 43.7454 47.935C45.4927 47.9477 47.1974 48.4754 48.6463 49.4519C50.0952 50.4284 51.224 51.8105 51.8916 53.4252C52.5591 55.0399 52.7358 56.8156 52.3994 58.5302C52.063 60.2448 51.2286 61.8222 50.0004 63.065C48.3399 64.7245 46.093 65.6639 43.7454 65.68H43.5554H43.5404ZM43.6054 50.68C42.0111 50.7193 40.493 51.3706 39.3657 52.4988C38.2385 53.627 37.5885 55.1456 37.5504 56.74C37.555 57.5567 37.7233 58.3643 38.0454 59.1149C38.3674 59.8655 38.8367 60.5439 39.4254 61.11C39.9747 61.6758 40.6302 62.1277 41.3543 62.44C42.0784 62.7523 42.8569 62.9188 43.6454 62.93H43.6854C45.3203 62.9264 46.8869 62.2735 48.0404 61.115C48.6065 60.5545 49.054 59.8858 49.3563 59.1488C49.6587 58.4118 49.8097 57.6215 49.8004 56.825C49.8201 56.0156 49.6758 55.2106 49.3762 54.4584C49.0766 53.7063 48.6278 53.0226 48.057 52.4484C47.4861 51.8743 46.805 51.4217 46.0545 51.1177C45.3041 50.8138 44.4999 50.6649 43.6904 50.68H43.6054Z" fill="#222222"/>
<path id="Vector_5" d="M74.5654 69.6901V68.9451C74.5654 64.9451 74.5654 60.9451 74.5654 56.9101C74.5654 56.2951 74.6954 56.0701 75.3554 56.0901C77.0054 56.1351 78.6604 56.0901 80.3154 56.1201C80.9504 56.1201 81.0954 55.9151 81.0704 55.3301C81.0254 54.4501 81.0704 53.5651 81.0454 52.6901C81.0054 52.0651 81.1754 51.8501 81.8304 51.8651C83.5054 51.9151 85.1854 51.8651 86.8604 51.8951C87.4254 51.8951 87.5654 51.7151 87.5504 51.1801C87.5104 50.0851 87.5504 48.9851 87.5504 47.9301C87.6611 47.8567 87.7853 47.806 87.9158 47.7811C88.0463 47.7562 88.1805 47.7576 88.3104 47.7851C90.0304 47.7851 91.7504 47.7851 93.4704 47.7851C93.8904 47.7851 94.0554 47.6701 94.0404 47.2301C94.0154 46.3051 94.0654 45.3751 94.0404 44.4501C94.0154 43.8751 94.1504 43.6401 94.7954 43.6601C96.4654 43.7101 98.1454 43.7051 99.8204 43.6601C100.42 43.6601 100.545 43.8451 100.545 44.4101C100.545 50.8501 100.545 57.2851 100.545 63.7201V69.6901H74.5654Z" fill="#FBB040"/>
<path id="Vector_6" d="M87.5598 75.3H98.3748C99.3248 75.3 99.9048 75.72 100.015 76.455C100.075 76.7999 99.9989 77.1547 99.8019 77.4442C99.6049 77.7336 99.3028 77.9348 98.9598 78.005C98.6649 78.061 98.3648 78.0845 98.0648 78.075H76.9998C76.6759 78.0847 76.352 78.0561 76.0348 77.99C75.732 77.908 75.4669 77.724 75.2844 77.4689C75.1018 77.2139 75.013 76.9036 75.033 76.5906C75.053 76.2776 75.1806 75.9811 75.3942 75.7514C75.6077 75.5217 75.8941 75.3728 76.2048 75.33C76.4571 75.3025 76.711 75.2925 76.9648 75.3H87.5598Z" fill="#222222"/>
<path id="Vector_7" d="M87.5552 81.4251C90.2852 81.4251 93.0102 81.4251 95.7402 81.4251C96.6902 81.4251 97.2752 81.9951 97.2402 82.8451C97.2052 83.6951 96.6252 84.1751 95.7002 84.1951C94.6402 84.1951 93.5752 84.1951 92.5152 84.1951H79.5002C78.5602 84.1951 77.9602 83.7751 77.8302 83.0601C77.788 82.8481 77.7963 82.6292 77.8546 82.4211C77.9129 82.2129 78.0194 82.0215 78.1655 81.8622C78.3116 81.7029 78.4932 81.5804 78.6956 81.5044C78.8979 81.4285 79.1153 81.4013 79.3302 81.4251C82.0552 81.4201 84.8052 81.4251 87.5552 81.4251Z" fill="#222222"/>
<path id="Vector_8" d="M27.5496 12.21V17.79C27.5496 18.925 27.5496 18.925 28.6546 18.925C32.4296 18.925 36.2046 18.925 39.9796 18.925C40.7696 18.925 41.0046 19.135 40.9796 19.925C40.8546 25.475 36.4796 30.735 30.7296 32.12C28.9928 32.485 27.2012 32.5045 25.457 32.1771C23.7127 31.8498 22.05 31.1821 20.5638 30.2122C19.0776 29.2423 17.797 27.9892 16.7951 26.5243C15.7932 25.0595 15.0897 23.4117 14.7246 21.675C14.3595 19.9382 14.3401 18.1466 14.6674 16.4024C14.9947 14.6581 15.6624 12.9954 16.6323 11.5092C17.6022 10.023 18.8554 8.74242 20.3202 7.74052C21.785 6.73862 23.4328 6.03504 25.1696 5.66997C25.7046 5.57497 26.2396 5.53997 26.7796 5.49497C27.4046 5.44497 27.5646 5.70997 27.5546 6.28997C27.5346 8.25997 27.5496 10.235 27.5496 12.21Z" fill="#FBB040"/>
<path id="Vector_9" d="M33.04 6.78008C33.04 4.78008 33.04 2.83008 33.04 0.855076C33.04 0.155076 33.265 -0.0449237 33.93 0.0100763C35.9514 0.126776 37.919 0.705868 39.6813 1.70275C41.4437 2.69964 42.9537 4.08771 44.095 5.76008C45.5655 7.78734 46.3976 10.2072 46.485 12.7101C46.485 13.3251 46.345 13.5751 45.68 13.5701C41.7367 13.5434 37.79 13.5434 33.84 13.5701C33.155 13.5701 33.035 13.2951 33.045 12.7001C33.055 10.7251 33.04 8.75508 33.04 6.78008Z" fill="#FBB040"/>
</g>
<defs>
<clipPath id="clip0_7219_73502">
<rect width="100" height="100" fill="white" transform="translate(0.5)"/>
</clipPath>
</defs>
</svg>
