<svg width="96" height="65" viewBox="0 0 96 65" fill="none" xmlns="http://www.w3.org/2000/svg">
<rect width="96" height="64" transform="translate(0 0.859985)" fill="white"/>
<g clip-path="url(#clip0_6744_64834)">
<g clip-path="url(#clip1_6744_64834)">
<path d="M61.9798 12.1025C64.3187 12.1025 66.2057 13.9896 66.2057 16.3285C66.2057 18.6673 64.3187 20.5544 61.9798 20.5544C59.641 20.5544 57.7539 18.6673 57.7539 16.3285C57.7539 13.9896 59.641 12.1025 61.9798 12.1025Z" fill="url(#paint0_linear_6744_64834)"/>
<path d="M66.5786 23.0792H57.4357C56.5321 23.0792 55.8145 23.8234 55.8145 24.7005V33.6573C55.8145 37.0327 58.5786 39.7703 61.9274 39.7703H62.1135C65.4889 39.7703 68.2264 37.0061 68.2264 33.6573V24.7271C68.1998 23.8234 67.4556 23.0792 66.5786 23.0792Z" fill="url(#paint1_linear_6744_64834)"/>
<path d="M49.0366 8.85999C52.2792 8.85999 54.8838 11.4646 54.8838 14.7072C54.8838 17.9231 52.2792 20.5543 49.0366 20.5543C45.8207 20.5543 43.1895 17.9497 43.1895 14.7072C43.1895 11.4646 45.7941 8.85999 49.0366 8.85999Z" fill="url(#paint2_linear_6744_64834)"/>
<path d="M57.4088 23.0793H40.6381C39.7344 23.0793 38.9902 23.8234 38.9902 24.7271V35.7836C38.9902 41.2321 43.4288 45.6706 48.8773 45.6706H49.1962C54.6447 45.6706 59.0833 41.2321 59.0833 35.7836V24.7271C59.0567 23.8234 58.3125 23.0793 57.4088 23.0793Z" fill="url(#paint3_linear_6744_64834)"/>
<path d="M29.422 37.4846H46.4852C47.3622 37.4846 48.1064 36.767 48.1064 35.8633V18.8002C48.1064 17.9231 47.3888 17.1789 46.4852 17.1789H29.422C28.545 17.1789 27.8008 17.8965 27.8008 18.8002V35.8633C27.8008 36.7404 28.5184 37.4846 29.422 37.4846Z" fill="url(#paint4_linear_6744_64834)"/>
<path d="M29.422 37.4846H46.4852C47.3622 37.4846 48.1064 36.767 48.1064 35.8633V18.8002C48.1064 17.9231 47.3888 17.1789 46.4852 17.1789H46.3789C47.2559 17.1789 47.9735 17.8965 47.9735 18.7736V35.757C47.9735 36.6341 47.2559 37.3517 46.3789 37.3517H29.5284C28.6513 37.3517 27.9337 36.6341 27.9337 35.757V18.7736C27.9337 17.8965 28.6513 17.1789 29.5284 17.1789H29.422C28.545 17.1789 27.8008 17.8965 27.8008 18.8002V35.8633C27.8008 36.7404 28.5184 37.4846 29.422 37.4846Z" fill="url(#paint5_linear_6744_64834)"/>
<path d="M33.25 22.0693H41.8347V23.8766H38.6188V32.5676H36.4659V23.8766H33.25V22.0693Z" fill="url(#paint6_linear_6744_64834)"/>
<path d="M17.382 56.7537L15.6278 51.7304H15.6013C15.6544 52.4746 15.681 53.1656 15.681 53.8301V56.7537H14.7773V50.747H16.1594L17.8338 55.5311H17.8604L19.588 50.747H20.97V56.7537H20.0132V53.7769C20.0132 53.4845 20.0132 53.0859 20.0398 52.6075C20.0664 52.1291 20.0664 51.8367 20.0664 51.7304H20.0398L18.2325 56.7537H17.382Z" fill="#242E72"/>
<path d="M22.4043 51.0128C22.4043 50.8268 22.4575 50.6939 22.5372 50.6142C22.6435 50.5078 22.7764 50.4813 22.9359 50.4813C23.0953 50.4813 23.2282 50.5344 23.3345 50.6142C23.4408 50.7205 23.4674 50.8534 23.4674 51.0128C23.4674 51.1723 23.4143 51.3052 23.3345 51.4115C23.2282 51.5178 23.0953 51.5444 22.9359 51.5444C22.7498 51.5444 22.6169 51.4912 22.5372 51.4115C22.4309 51.3052 22.4043 51.1723 22.4043 51.0128ZM23.4143 56.7537H22.4575V52.2088H23.4143V56.7537Z" fill="#242E72"/>
<path d="M26.6309 56.86C25.9399 56.86 25.4083 56.6473 25.0628 56.2487C24.7173 55.85 24.5312 55.2653 24.5312 54.5211C24.5312 53.7503 24.7173 53.1656 25.0894 52.7669C25.4615 52.3683 25.993 52.1556 26.7107 52.1556C27.1891 52.1556 27.6143 52.2354 28.013 52.4214L27.7206 53.1922C27.3219 53.0327 26.9764 52.953 26.7107 52.953C25.9133 52.953 25.5412 53.4845 25.5412 54.5211C25.5412 55.0261 25.6475 55.4247 25.8336 55.6639C26.0196 55.9297 26.312 56.036 26.6841 56.036C27.1093 56.036 27.5346 55.9297 27.9067 55.7171V56.5676C27.7206 56.6739 27.5611 56.7536 27.3485 56.7802C27.1359 56.8068 26.9233 56.86 26.6309 56.86Z" fill="#242E72"/>
<path d="M31.283 52.1291C31.469 52.1291 31.6285 52.1557 31.7614 52.1822L31.6551 53.0859C31.5222 53.0593 31.3627 53.0327 31.2298 53.0327C30.8312 53.0327 30.5388 53.1656 30.2996 53.4048C30.0604 53.6706 29.9275 53.9896 29.9275 54.3882V56.7803H28.9707V52.2354H29.7415L29.8744 53.0327H29.9275C30.087 52.767 30.273 52.5543 30.5122 52.3949C30.7514 52.2088 31.0172 52.1291 31.283 52.1291Z" fill="#242E72"/>
<path d="M36.6514 54.4679C36.6514 55.2121 36.4653 55.7968 36.0666 56.2221C35.6945 56.6473 35.163 56.86 34.4719 56.86C34.0467 56.86 33.6746 56.7536 33.3557 56.5676C33.0367 56.3816 32.771 56.0892 32.6115 55.7437C32.4254 55.3716 32.3457 54.9729 32.3457 54.4945C32.3457 53.7503 32.5317 53.1922 32.9038 52.7669C33.2759 52.3417 33.8075 52.1556 34.4985 52.1556C35.163 52.1556 35.668 52.3683 36.0666 52.7935C36.4653 53.1922 36.6514 53.7503 36.6514 54.4679ZM33.3291 54.4679C33.3291 55.5311 33.7278 56.036 34.4985 56.036C35.2693 56.036 35.6414 55.5045 35.6414 54.4679C35.6414 53.4314 35.2427 52.8998 34.4719 52.8998C34.0733 52.8998 33.7809 53.0327 33.5949 53.2985C33.4088 53.5643 33.3291 53.9895 33.3291 54.4679Z" fill="#242E72"/>
<path d="M40.8242 55.4779C40.8242 55.9298 40.6647 56.2753 40.3458 56.4879C40.0269 56.7271 39.5485 56.8334 38.9637 56.8334C38.3525 56.8334 37.874 56.7537 37.502 56.5676V55.7437C38.0335 55.9829 38.5385 56.1158 38.9903 56.1158C39.575 56.1158 39.894 55.9298 39.894 55.5842C39.894 55.4779 39.8674 55.3716 39.7877 55.2919C39.7345 55.2121 39.6016 55.1324 39.4687 55.0527C39.3358 54.9729 39.0966 54.8666 38.8309 54.7603C38.2993 54.5477 37.9538 54.3616 37.7677 54.149C37.5817 53.9364 37.502 53.6706 37.502 53.3517C37.502 52.953 37.6614 52.6606 37.9804 52.448C38.2993 52.2354 38.7245 52.1291 39.2561 52.1291C39.7877 52.1291 40.2927 52.2354 40.7711 52.448L40.4521 53.1656C39.9737 52.953 39.5485 52.8733 39.203 52.8733C38.698 52.8733 38.4322 53.0062 38.4322 53.2985C38.4322 53.4314 38.5119 53.5643 38.6448 53.6706C38.7777 53.7769 39.0701 53.9098 39.5219 54.0693C39.894 54.2022 40.1598 54.3351 40.3458 54.468C40.5319 54.6009 40.6382 54.7337 40.7179 54.8932C40.7711 55.0527 40.8242 55.2387 40.8242 55.4779Z" fill="#242E72"/>
<path d="M45.8994 54.4679C45.8994 55.2121 45.7134 55.7968 45.3147 56.2221C44.9426 56.6473 44.411 56.86 43.72 56.86C43.2947 56.86 42.9227 56.7536 42.6037 56.5676C42.2848 56.3816 42.019 56.0892 41.8595 55.7437C41.6735 55.3716 41.5938 54.9729 41.5938 54.4945C41.5938 53.7503 41.7798 53.1922 42.1519 52.7669C42.524 52.3417 43.0555 52.1556 43.7466 52.1556C44.411 52.1556 44.916 52.3683 45.3147 52.7935C45.7134 53.1922 45.8994 53.7503 45.8994 54.4679ZM42.6037 54.4679C42.6037 55.5311 43.0024 56.036 43.7732 56.036C44.5439 56.036 44.916 55.5045 44.916 54.4679C44.916 53.4314 44.5173 52.8998 43.7466 52.8998C43.3479 52.8998 43.0555 53.0327 42.8695 53.2985C42.6834 53.5909 42.6037 53.9895 42.6037 54.4679Z" fill="#242E72"/>
<path d="M49.3028 52.953H48.1866V56.7803H47.2032V52.953H46.459V52.5012L47.2032 52.2088V51.9165C47.2032 51.3849 47.3361 50.9862 47.5753 50.7204C47.841 50.4547 48.2131 50.3218 48.7447 50.3218C49.0902 50.3218 49.4092 50.3749 49.7547 50.4812L49.4889 51.2254C49.2497 51.1457 49.0105 51.1191 48.7979 51.1191C48.5852 51.1191 48.4258 51.1989 48.3194 51.3317C48.2131 51.4646 48.16 51.6773 48.16 51.943V52.2354H49.2763V52.953H49.3028Z" fill="#242E72"/>
<path d="M51.7736 56.0626C52.0128 56.0626 52.252 56.0361 52.4912 55.9563V56.6739C52.3849 56.7271 52.252 56.7537 52.0659 56.7802C51.9065 56.8068 51.7204 56.8334 51.5344 56.8334C50.6307 56.8334 50.1523 56.355 50.1523 55.3716V52.9264H49.541V52.5012L50.2055 52.1557L50.5244 51.1989H51.1091V52.2088H52.4114V52.953H51.1091V55.3982C51.1091 55.6374 51.1623 55.7969 51.2952 55.9032C51.4281 56.0095 51.5875 56.0626 51.7736 56.0626Z" fill="#242E72"/>
<path d="M57.7544 56.7537H56.771V51.571H54.9902V50.7205H59.5085V51.571H57.7278V56.7537H57.7544Z" fill="#242E72"/>
<path d="M62.3521 56.86C61.6345 56.86 61.103 56.6473 60.6777 56.2487C60.279 55.8234 60.0664 55.2653 60.0664 54.5477C60.0664 53.8035 60.2525 53.2188 60.6245 52.7935C60.9966 52.3683 61.5016 52.1556 62.1395 52.1556C62.7508 52.1556 63.2026 52.3417 63.5747 52.7138C63.9202 53.0859 64.1063 53.5909 64.1063 54.2287V54.7603H61.0764C61.103 55.2121 61.2093 55.5311 61.4219 55.7703C61.6345 56.0095 61.9535 56.1158 62.3787 56.1158C62.6445 56.1158 62.9103 56.0892 63.1229 56.036C63.3355 55.9829 63.6013 55.9031 63.8671 55.7703V56.5676C63.6279 56.6739 63.3887 56.7536 63.1495 56.8068C62.9368 56.8334 62.6445 56.86 62.3521 56.86ZM62.1661 52.8733C61.8471 52.8733 61.6079 52.9796 61.4219 53.1656C61.2358 53.3517 61.1295 53.644 61.103 54.0161H63.176C63.176 53.644 63.0697 53.3517 62.9103 53.1656C62.7242 52.953 62.485 52.8733 62.1661 52.8733Z" fill="#242E72"/>
<path d="M68.0659 56.7537L67.8799 56.1158H67.8533C67.6407 56.3816 67.4014 56.5942 67.1888 56.6739C66.9762 56.7802 66.6838 56.8334 66.3383 56.8334C65.8865 56.8334 65.541 56.7005 65.3018 56.4613C65.0626 56.2221 64.9297 55.8766 64.9297 55.4248C64.9297 54.9464 65.1157 54.6008 65.4612 54.3616C65.8068 54.1224 66.3383 53.9895 67.0559 53.963L67.8533 53.9364V53.6972C67.8533 53.4048 67.7735 53.1922 67.6407 53.0327C67.5078 52.8998 67.2951 52.8201 67.0028 52.8201C66.7636 52.8201 66.551 52.8467 66.3383 52.9264C66.1257 53.0062 65.9131 53.0859 65.727 53.1656L65.4081 52.4746C65.6473 52.3417 65.9131 52.2354 66.232 52.1822C66.5244 52.1025 66.7902 52.0759 67.0559 52.0759C67.6407 52.0759 68.0659 52.2088 68.3583 52.448C68.6506 52.7138 68.8101 53.0859 68.8101 53.644V56.7005H68.0659V56.7537ZM66.6307 56.1158C66.9762 56.1158 67.2686 56.0095 67.4812 55.8234C67.6938 55.6374 67.8001 55.345 67.8001 54.9995V54.6008L67.2154 54.6274C66.7636 54.654 66.4181 54.7072 66.232 54.8666C66.046 55.0261 65.9131 55.2121 65.9131 55.4779C65.9131 55.6905 65.9662 55.85 66.0991 55.9563C66.232 56.0626 66.3915 56.1158 66.6307 56.1158Z" fill="#242E72"/>
<path d="M73.9405 56.7536H72.9571V53.9364C72.9571 53.5909 72.904 53.3251 72.7711 53.1656C72.6382 53.0061 72.4256 52.8998 72.1598 52.8998C71.7877 52.8998 71.5219 53.0327 71.3359 53.2719C71.1498 53.5111 71.0701 53.9098 71.0701 54.4945V56.7536H70.1133V52.2088H70.884L71.0169 52.7935H71.0701C71.203 52.5809 71.389 52.4214 71.6282 52.2885C71.8674 52.1556 72.1332 52.1025 72.4256 52.1025C73.1166 52.1025 73.595 52.3417 73.8076 52.8201H73.8608C73.9937 52.6075 74.1797 52.4214 74.4189 52.2885C74.6581 52.1556 74.9505 52.1025 75.2694 52.1025C75.801 52.1025 76.1997 52.2354 76.4654 52.5011C76.7046 52.7669 76.8375 53.1922 76.8375 53.7503V56.7271H75.8807V53.9098C75.8807 53.5643 75.801 53.2985 75.6681 53.139C75.5352 52.9796 75.3226 52.8732 75.0568 52.8732C74.6847 52.8732 74.4189 52.9796 74.2329 53.2188C74.0468 53.458 73.9671 53.8035 73.9671 54.3085V56.7536H73.9405Z" fill="#242E72"/>
<path d="M81.2226 55.4779C81.2226 55.9298 81.0632 56.2753 80.7442 56.4879C80.4253 56.7271 79.9469 56.8334 79.3622 56.8334C78.7509 56.8334 78.2725 56.7537 77.9004 56.5676V55.7437C78.432 55.9829 78.9369 56.1158 79.3888 56.1158C79.9735 56.1158 80.2924 55.9298 80.2924 55.5842C80.2924 55.4779 80.2658 55.3716 80.1861 55.2919C80.1064 55.2121 80.0001 55.1324 79.8672 55.0527C79.7343 54.9729 79.4951 54.8666 79.2293 54.7603C78.6977 54.5477 78.3522 54.3616 78.1662 54.149C77.9801 53.9364 77.9004 53.6706 77.9004 53.3517C77.9004 52.953 78.0599 52.6606 78.3788 52.448C78.6977 52.2354 79.123 52.1291 79.6545 52.1291C80.1861 52.1291 80.6911 52.2354 81.1695 52.448L80.8506 53.1656C80.3722 52.953 79.9469 52.8733 79.6014 52.8733C79.0964 52.8733 78.8306 53.0062 78.8306 53.2985C78.8306 53.4314 78.9104 53.5643 79.0432 53.6706C79.1761 53.7769 79.4685 53.9098 79.9203 54.0693C80.2924 54.2022 80.5582 54.3351 80.7442 54.468C80.9037 54.6009 81.0366 54.7337 81.1163 54.8932C81.1695 55.0527 81.2226 55.2387 81.2226 55.4779Z" fill="#242E72"/>
</g>
</g>
<defs>
<linearGradient id="paint0_linear_6744_64834" x1="66.0243" y1="17.5677" x2="57.934" y2="15.0784" gradientUnits="userSpaceOnUse">
<stop stop-color="#4A5FCB"/>
<stop offset="1" stop-color="#1C245F"/>
</linearGradient>
<linearGradient id="paint1_linear_6744_64834" x1="68.262" y1="32.4207" x2="55.9159" y2="29.5977" gradientUnits="userSpaceOnUse">
<stop stop-color="#5468E8"/>
<stop offset="1" stop-color="#2F3C90"/>
</linearGradient>
<linearGradient id="paint2_linear_6744_64834" x1="54.6193" y1="16.4271" x2="43.4392" y2="12.9871" gradientUnits="userSpaceOnUse">
<stop stop-color="#6B80F3"/>
<stop offset="1" stop-color="#464FA9"/>
</linearGradient>
<linearGradient id="paint3_linear_6744_64834" x1="59.0486" y1="36.1442" x2="39.5064" y2="30.7997" gradientUnits="userSpaceOnUse">
<stop stop-color="#8094FF"/>
<stop offset="1" stop-color="#5060DA"/>
</linearGradient>
<linearGradient id="paint4_linear_6744_64834" x1="47.6569" y1="30.3111" x2="28.2507" y2="24.3399" gradientUnits="userSpaceOnUse">
<stop stop-color="#3744AE"/>
<stop offset="1" stop-color="#243176"/>
</linearGradient>
<linearGradient id="paint5_linear_6744_64834" x1="27.8017" y1="27.3255" x2="48.1058" y2="27.3255" gradientUnits="userSpaceOnUse">
<stop stop-color="#5160B4"/>
<stop offset="0.502" stop-color="#2E3C8F"/>
<stop offset="1" stop-color="#5367E7"/>
</linearGradient>
<linearGradient id="paint6_linear_6744_64834" x1="33.2569" y1="27.3254" x2="41.8363" y2="27.3254" gradientUnits="userSpaceOnUse">
<stop stop-color="#C1CFCF"/>
<stop offset="1" stop-color="#FEFEFE"/>
</linearGradient>
<clipPath id="clip0_6744_64834">
<rect width="72" height="48" fill="white" transform="translate(12 8.85999)"/>
</clipPath>
<clipPath id="clip1_6744_64834">
<rect width="66.4452" height="48" fill="white" transform="translate(14.7773 8.85999)"/>
</clipPath>
</defs>
</svg>
