<svg width="96" height="65" viewBox="0 0 96 65" fill="none" xmlns="http://www.w3.org/2000/svg">
<rect width="96" height="64" transform="translate(0 0.859985)" fill="white"/>
<g clip-path="url(#clip0_6744_64863)">
<path d="M40.6699 38.8072V37.0447C40.8903 37.2361 41.1342 37.3987 41.3957 37.5285C41.6829 37.6736 41.9815 37.795 42.2885 37.8914C42.5969 37.9886 42.9115 38.0646 43.2302 38.1189C43.5155 38.1695 43.8045 38.1965 44.0942 38.1995C45.0158 38.1995 45.7042 38.0277 46.1592 37.684C46.4962 37.3971 46.725 37.0037 46.8078 36.569C46.8905 36.1342 46.8222 35.6842 46.6142 35.2936C46.4489 35.0234 46.2351 34.7862 45.9835 34.5938C45.6857 34.3621 45.3676 34.1578 45.0331 33.9832C44.6683 33.7912 44.2747 33.5867 43.8523 33.3698C43.4299 33.1528 43.0142 32.9224 42.6053 32.6786C42.2426 32.4575 41.9072 32.1946 41.6059 31.8952C41.3247 31.6204 41.0963 31.2963 40.932 30.9391C40.761 30.545 40.6774 30.1186 40.6872 29.6891C40.6742 29.1541 40.8066 28.6256 41.0702 28.1599C41.3214 27.7315 41.6659 27.3652 42.0782 27.0885C42.513 26.7992 42.9942 26.5869 43.501 26.4607C44.0324 26.3228 44.5792 26.2531 45.1282 26.2533C46.3896 26.2533 47.3083 26.4059 47.8843 26.7112V28.4047C47.0205 27.8477 46.0053 27.572 44.9784 27.6155C44.6483 27.616 44.3192 27.6507 43.9963 27.7192C43.6914 27.7819 43.3992 27.8959 43.1323 28.0562C42.8813 28.2071 42.6676 28.4129 42.5074 28.6581C42.3403 28.9263 42.2561 29.2379 42.2654 29.5538C42.2556 29.8522 42.3178 30.1485 42.4469 30.4178C42.5799 30.6702 42.7632 30.8926 42.9854 31.0715C43.2541 31.291 43.5435 31.4839 43.8494 31.6475C44.1912 31.8395 44.5848 32.0431 45.0302 32.2581C45.4757 32.4731 45.9096 32.7122 46.332 32.9752C46.723 33.2111 47.0854 33.4913 47.412 33.8104C47.7128 34.104 47.9612 34.4468 48.1464 34.8242C48.3342 35.2218 48.4278 35.6574 48.42 36.0971C48.4379 36.6566 48.3109 37.2111 48.0514 37.7071C47.8102 38.1401 47.4672 38.5078 47.052 38.7784C46.6121 39.0628 46.1242 39.2648 45.612 39.3746C45.0445 39.4994 44.465 39.5612 43.884 39.5589C43.6337 39.556 43.3837 39.5397 43.1352 39.5099C42.8376 39.4773 42.5342 39.4293 42.2251 39.3659C41.9326 39.3059 41.6441 39.228 41.3611 39.1327C41.1166 39.0572 40.8839 38.9476 40.6699 38.8072Z" fill="#00B0F0"/>
<path d="M57.2931 39.34H55.2425L51.2105 34.9278H51.1759V39.34H49.7129V25.7464H51.1759V34.3634H51.2105L55.0467 30.1586H56.9618L52.7283 34.588L57.2931 39.34Z" fill="#00B0F0"/>
<path d="M65.9089 30.1672L61.7099 40.8232C60.9611 42.724 59.9051 43.6744 58.5419 43.6744C58.2201 43.6813 57.899 43.6415 57.5886 43.5563V42.2286C57.8658 42.3293 58.1577 42.3838 58.4526 42.3899C59.1899 42.3899 59.7428 41.9473 60.1115 41.0622L60.843 39.3342L57.2891 30.1672H58.9105L61.3787 37.2318C61.4075 37.3221 61.4699 37.5553 61.5659 37.9317H61.6206C61.6494 37.7877 61.7089 37.5601 61.7991 37.2491L64.3911 30.1643L65.9089 30.1672Z" fill="#00B0F0"/>
<path d="M68.1993 34.3115V35.5931C68.1822 36.3085 68.4458 37.0021 68.9337 37.5256C69.1951 37.7947 69.5113 38.0044 69.8609 38.1405C70.2106 38.2766 70.5854 38.3359 70.9599 38.3143C71.3345 38.2927 71.7 38.1908 72.0317 38.0154C72.3633 37.8401 72.6534 37.5954 72.8821 37.2981C73.3813 36.6146 73.631 35.6661 73.631 34.4526C73.631 33.4293 73.3958 32.6286 72.9254 32.0507C72.6973 31.7676 72.406 31.542 72.0748 31.3919C71.7437 31.2419 71.382 31.1716 71.0188 31.1867C70.632 31.173 70.2471 31.2461 69.8923 31.4006C69.5374 31.5551 69.2217 31.7871 68.9682 32.0795C68.4409 32.7032 68.1647 33.501 68.1935 34.3173M68.2281 38.021H68.1935V43.565H66.7305V30.1672H68.1935V31.78H68.2281C68.5322 31.2093 68.9902 30.7354 69.5503 30.4121C70.1103 30.0888 70.7498 29.9291 71.3961 29.9512C71.9196 29.9259 72.4417 30.0243 72.92 30.2384C73.3984 30.4526 73.8196 30.7765 74.1494 31.1838C74.8098 32.0056 75.1401 33.1067 75.1401 34.4872C75.1401 36.0232 74.7685 37.253 74.0255 38.1765C73.6619 38.6309 73.1962 38.9932 72.6663 39.2339C72.1363 39.4746 71.5571 39.587 70.9756 39.5618C70.4227 39.5772 69.876 39.4419 69.3941 39.1705C68.9121 38.8991 68.5131 38.5017 68.2396 38.021" fill="#00B0F0"/>
<path d="M82.5018 33.8709C82.5385 33.1608 82.3221 32.4607 81.8912 31.8952C81.6846 31.6584 81.4269 31.4716 81.1375 31.3488C80.8482 31.2261 80.5347 31.1707 80.2208 31.1867C79.8924 31.1812 79.5664 31.2445 79.2639 31.3725C78.9613 31.5004 78.6889 31.6903 78.464 31.9297C77.9638 32.4652 77.6506 33.1482 77.5712 33.8766L82.5018 33.8709ZM83.9994 35.1179H77.5539C77.577 36.1413 77.8506 36.9304 78.3747 37.4853C78.6564 37.7701 78.9954 37.9916 79.3694 38.1351C79.7433 38.2787 80.1435 38.3408 80.5434 38.3176C81.5779 38.315 82.5794 37.9537 83.3773 37.2952V38.6776C82.5747 39.2632 81.5139 39.556 80.1949 39.556C78.9047 39.556 77.8909 39.1393 77.1536 38.3061C76.4163 37.4728 76.0448 36.2958 76.0391 34.7752C76.0391 33.3467 76.4413 32.1822 77.2458 31.2817C77.6178 30.8506 78.0805 30.507 78.6008 30.2755C79.121 30.044 79.6861 29.9303 80.2554 29.9425C81.4496 29.9425 82.3741 30.3265 83.0288 31.0945C83.6835 31.8625 84.0071 32.9464 83.9994 34.3461V35.1179Z" fill="#00B0F0"/>
<path d="M23.0237 39.507C19.3546 39.507 17.6756 37.6379 17.6756 36.267C17.6729 36.1038 17.704 35.9417 17.7668 35.791C17.8297 35.6403 17.9229 35.5042 18.0408 35.3912C18.1587 35.2782 18.2986 35.1908 18.4518 35.1343C18.605 35.0779 18.7682 35.0537 18.9312 35.0632C20.5008 35.0632 20.0832 37.419 23.0208 37.419C24.5213 37.419 25.3968 36.5176 25.3968 35.6709C25.3968 35.1611 25.1088 34.5966 24.1181 34.3489L20.858 33.5339C18.2285 32.8657 17.7591 31.4027 17.7591 30.0462C17.7591 27.2325 20.3511 26.2158 22.7962 26.2158C25.0541 26.2158 27.7383 27.4629 27.7383 29.1505C27.7383 29.8734 27.1306 30.268 26.425 30.268C25.0858 30.268 25.3076 28.3816 22.609 28.3816C21.2698 28.3816 20.5613 29.0094 20.5613 29.8907C20.5613 30.772 21.5981 31.0686 22.5168 31.2817L24.9332 31.8261C27.5799 32.4251 28.2855 33.9745 28.2855 35.452C28.2855 37.7387 26.5143 39.5041 23.0237 39.5041M33.1556 34.6657C33.2594 34.0694 33.3114 33.4653 33.3111 32.86C33.3187 31.3468 32.994 29.8504 32.3599 28.4764C31.7259 27.1025 30.7978 25.8845 29.6414 24.9085C28.485 23.9326 27.1283 23.2224 25.6674 22.8283C24.2064 22.4341 22.6767 22.3655 21.1863 22.6274C20.2605 22.094 19.2106 21.8138 18.1421 21.8152C17.0635 21.8225 16.0055 22.1118 15.0731 22.6543C14.1408 23.1968 13.3665 23.9737 12.8271 24.9078C12.2876 25.842 12.0019 26.9009 11.9981 27.9796C11.9943 29.0583 12.2726 30.1192 12.8055 31.0571C12.5451 32.5462 12.6124 34.0741 13.0028 35.5346C13.3931 36.995 14.097 38.3528 15.0655 39.5135C16.034 40.6741 17.2438 41.6098 18.6107 42.2553C19.9777 42.9008 21.4689 43.2406 22.9805 43.251C23.582 43.2516 24.1824 43.1996 24.7748 43.0955C25.7008 43.628 26.7507 43.9071 27.8189 43.9048C28.8972 43.8972 29.9547 43.6078 30.8867 43.0655C31.8186 42.5231 32.5926 41.7466 33.132 40.8129C33.6713 39.8792 33.9572 38.8207 33.9613 37.7425C33.9655 36.6642 33.6877 35.6036 33.1556 34.6657Z" fill="#00B0F0"/>
</g>
<defs>
<clipPath id="clip0_6744_64863">
<rect width="72" height="22.0896" fill="white" transform="translate(12 21.8152)"/>
</clipPath>
</defs>
</svg>
