<svg width="96" height="65" viewBox="0 0 96 65" fill="none" xmlns="http://www.w3.org/2000/svg">
<rect width="96" height="64" transform="translate(0 0.859985)" fill="white"/>
<g clip-path="url(#clip0_6744_64877)">
<mask id="mask0_6744_64877" style="mask-type:luminance" maskUnits="userSpaceOnUse" x="-10" y="0" width="115" height="65">
<path d="M-9.14258 0.880554H104.833V64.9347H-9.14258V0.880554Z" fill="white"/>
</mask>
<g mask="url(#mask0_6744_64877)">
<mask id="mask1_6744_64877" style="mask-type:luminance" maskUnits="userSpaceOnUse" x="40" y="28" width="42" height="10">
<path fill-rule="evenodd" clip-rule="evenodd" d="M55.8228 30.9701C56.2044 31.353 56.464 31.8405 56.5688 32.3708C56.6735 32.9012 56.6188 33.4507 56.4115 33.95C56.2042 34.4492 55.8536 34.8759 55.4039 35.176C54.9543 35.4762 54.4258 35.6364 53.8852 35.6364C53.3446 35.6364 52.8161 35.4762 52.3665 35.176C51.9169 34.8759 51.5662 34.4492 51.3589 33.95C51.1516 33.4507 51.0969 32.9012 51.2017 32.3708C51.3064 31.8405 51.566 31.353 51.9476 30.9701C52.2018 30.7151 52.5037 30.5127 52.8362 30.3747C53.1687 30.2366 53.5252 30.1656 53.8852 30.1656C54.2452 30.1656 54.6017 30.2366 54.9342 30.3747C55.2667 30.5127 55.5687 30.7151 55.8228 30.9701ZM53.8852 28.3487C55.0941 28.3494 56.2532 28.8303 57.1076 29.6855C57.962 30.5407 58.4418 31.7002 58.4414 32.9091C58.441 34.118 57.9605 35.2772 57.1056 36.1319C56.2506 36.9866 55.0912 37.4667 53.8824 37.4667C52.6735 37.4667 51.5141 36.9866 50.6592 36.1319C49.8042 35.2772 49.3237 34.118 49.3233 32.9091C49.323 31.7002 49.8027 30.5407 50.6571 29.6855C51.5115 28.8303 52.6706 28.3494 53.8795 28.3487H53.8852ZM65.3967 30.9701C65.7783 31.353 66.0379 31.8405 66.1427 32.3708C66.2475 32.9012 66.1927 33.4507 65.9854 33.95C65.7781 34.4492 65.4275 34.8759 64.9779 35.176C64.5282 35.4762 63.9998 35.6364 63.4591 35.6364C62.9185 35.6364 62.39 35.4762 61.9404 35.176C61.4908 34.8759 61.1402 34.4492 60.9329 33.95C60.7255 33.4507 60.6708 32.9012 60.7756 32.3708C60.8804 31.8405 61.14 31.353 61.5216 30.9701C61.7757 30.7151 62.0777 30.5127 62.4102 30.3747C62.7426 30.2366 63.0991 30.1656 63.4591 30.1656C63.8192 30.1656 64.1756 30.2366 64.5081 30.3747C64.8406 30.5127 65.1426 30.7151 65.3967 30.9701ZM66.6846 29.6822C67.4308 30.4276 67.8955 31.4086 67.9995 32.4582C68.1035 33.5077 67.8404 34.5609 67.255 35.4382C66.6695 36.3155 65.798 36.9627 64.7889 37.2695C63.7798 37.5764 62.6956 37.5238 61.7209 37.1208C60.7462 36.7179 59.9414 35.9894 59.4435 35.0596C58.9457 34.1298 58.7857 33.0561 58.9907 32.0215C59.1957 30.9869 59.7531 30.0554 60.5678 29.3857C61.3826 28.716 62.4044 28.3495 63.4591 28.3487C64.6682 28.3489 65.8276 28.8294 66.6824 29.6845L66.6846 29.6822ZM42.4877 37.4439L42.9436 37.4667H49.7821L49.7593 37.0108C49.6978 36.2586 49.1666 35.7115 48.4144 35.6659L47.9585 35.6431H43.8554L49.3262 30.1723L49.3034 29.7164C49.2947 29.3624 49.1502 29.0253 48.8999 28.775C48.6495 28.5246 48.3125 28.3801 47.9585 28.3715L47.5026 28.3487H40.6641L40.6869 28.8046C40.7037 29.1558 40.8509 29.4882 41.0995 29.7368C41.3482 29.9855 41.6805 30.1326 42.0318 30.1495L42.4877 30.1723H46.5908L41.12 35.6431L41.1428 36.099C41.155 36.4518 41.3006 36.7868 41.5502 37.0365C41.7998 37.2861 42.1349 37.4317 42.4877 37.4439ZM73.6987 31.0841C73.8471 31.3652 73.9253 31.678 73.9266 31.9959L73.9494 32.4518V35.6431L73.9722 36.099C73.9859 36.4505 74.1314 36.784 74.3798 37.0332C74.6281 37.2824 74.9611 37.429 75.3126 37.4439L75.7685 37.4667V32.4518L75.7913 31.9959C75.7924 31.6762 75.8706 31.3614 76.0192 31.0784C76.18 30.8021 76.4105 30.5728 76.6877 30.4137C76.965 30.2546 77.2792 30.1711 77.5989 30.1717C77.9185 30.1722 78.2324 30.2568 78.5091 30.417C78.7858 30.5771 79.0155 30.8072 79.1752 31.0841C79.3202 31.3662 79.396 31.6787 79.3963 31.9959L79.4191 32.4518V35.6431L79.4419 36.099C79.4543 36.4511 79.5995 36.7856 79.8484 37.035C80.0972 37.2845 80.4313 37.4306 80.7834 37.4439L81.2393 37.4667V31.9959C81.2394 31.255 81.0139 30.5317 80.5927 29.9222C80.1716 29.3126 79.5748 28.8458 78.8818 28.5839C78.1888 28.3219 77.4324 28.2772 76.7134 28.4556C75.9944 28.6341 75.3467 29.0274 74.8567 29.583C74.2704 28.9181 73.4621 28.4895 72.5827 28.3773C71.7034 28.265 70.8133 28.4769 70.0788 28.9733C69.7278 28.5766 68.93 28.3487 68.4741 28.3487V37.4667L68.93 37.4439C69.6913 37.3938 70.2452 36.8558 70.2749 36.099L70.2977 35.6431V32.4518L70.3205 31.9959C70.3225 31.6781 70.4007 31.3654 70.5484 31.0841C70.7087 30.8077 70.9388 30.5783 71.2156 30.4189C71.4925 30.2594 71.8064 30.1755 72.1258 30.1755C72.4453 30.1755 72.7592 30.2594 73.036 30.4189C73.3129 30.5783 73.5429 30.8077 73.7033 31.0841H73.6987Z" fill="white"/>
</mask>
<g mask="url(#mask1_6744_64877)">
<path d="M40.0938 27.7788H81.8087V38.0366H40.0938V27.7788Z" fill="#4A8CFF"/>
</g>
<mask id="mask2_6744_64877" style="mask-type:luminance" maskUnits="userSpaceOnUse" x="14" y="21" width="24" height="24">
<path d="M25.8481 44.5331C32.2687 44.5331 37.4736 39.3282 37.4736 32.9077C37.4736 26.4871 32.2687 21.2822 25.8481 21.2822C19.4276 21.2822 14.2227 26.4871 14.2227 32.9077C14.2227 39.3282 19.4276 44.5331 25.8481 44.5331Z" fill="white"/>
</mask>
<g mask="url(#mask2_6744_64877)">
<path d="M13.6523 20.7123H38.0431V45.103H13.6523V20.7123Z" fill="#E5E5E4"/>
</g>
<mask id="mask3_6744_64877" style="mask-type:luminance" maskUnits="userSpaceOnUse" x="14" y="21" width="24" height="24">
<path d="M25.8487 44.3052C32.1434 44.3052 37.2463 39.2024 37.2463 32.9077C37.2463 26.613 32.1434 21.5101 25.8487 21.5101C19.554 21.5101 14.4512 26.613 14.4512 32.9077C14.4512 39.2024 19.554 44.3052 25.8487 44.3052Z" fill="white"/>
</mask>
<g mask="url(#mask3_6744_64877)">
<path d="M13.8809 20.9402H37.8157V44.8751H13.8809V20.9402Z" fill="white"/>
</g>
<mask id="mask4_6744_64877" style="mask-type:luminance" maskUnits="userSpaceOnUse" x="15" y="22" width="22" height="22">
<path d="M25.849 43.3934C31.6401 43.3934 36.3348 38.6988 36.3348 32.9077C36.3348 27.1166 31.6401 22.4219 25.849 22.4219C20.0579 22.4219 15.3633 27.1166 15.3633 32.9077C15.3633 38.6988 20.0579 43.3934 25.849 43.3934Z" fill="white"/>
</mask>
<g mask="url(#mask4_6744_64877)">
<path d="M14.793 21.8521H36.9042V43.9633H14.793V21.8521Z" fill="#4A8CFF"/>
</g>
<mask id="mask5_6744_64877" style="mask-type:luminance" maskUnits="userSpaceOnUse" x="19" y="29" width="14" height="8">
<path fill-rule="evenodd" clip-rule="evenodd" d="M29.0396 31.5468L32.003 29.3813C32.2617 29.1704 32.4589 29.2194 32.4589 29.6092V36.213C32.4589 36.6506 32.2127 36.6005 32.003 36.4409L29.0396 34.2754V31.5468ZM19.0098 29.6252V34.5489C19.0125 35.0835 19.2274 35.595 19.6071 35.9712C19.9869 36.3474 20.5006 36.5573 21.0351 36.5549H28.2156C28.3127 36.5552 28.406 36.517 28.475 36.4486C28.544 36.3802 28.5831 36.2873 28.5837 36.1902V31.2664C28.581 30.7319 28.3661 30.2203 27.9863 29.8441C27.6065 29.468 27.0929 29.258 26.5584 29.2605H19.3779C19.2808 29.2602 19.1875 29.2984 19.1185 29.3667C19.0495 29.4351 19.0104 29.528 19.0098 29.6252Z" fill="white"/>
</mask>
<g mask="url(#mask5_6744_64877)">
<path d="M18.4395 28.6906H33.0283V37.1248H18.4395V28.6906Z" fill="white"/>
</g>
</g>
</g>
<defs>
<clipPath id="clip0_6744_64877">
<rect width="72" height="36" fill="white" transform="translate(12 14.86)"/>
</clipPath>
</defs>
</svg>
