<svg width="96" height="65" viewBox="0 0 96 65" fill="none" xmlns="http://www.w3.org/2000/svg">
<rect width="96" height="64" transform="translate(0 0.859985)" fill="white"/>
<g clip-path="url(#clip0_6744_64909)">
<g clip-path="url(#clip1_6744_64909)">
<path d="M63.9113 28.0747C63.7399 27.4138 63.4951 26.8018 63.1525 26.1899C65.4533 21.8574 63.8133 16.4235 59.4809 14.0981C58.2815 13.4372 56.9597 13.0946 55.589 13.0701C52.9699 8.88445 47.4625 7.61163 43.2769 10.2307C42.102 10.965 41.1474 11.9196 40.413 13.0946C35.5176 13.2414 31.6502 17.3781 31.8215 22.298C31.846 23.6443 32.2376 24.9905 32.8495 26.1899C30.5487 30.5224 32.1887 35.9564 36.5211 38.2817C37.7205 38.9426 39.0423 39.2853 40.413 39.3097C43.0321 43.5198 48.5395 44.7927 52.7006 42.1736C53.8756 41.4393 54.8302 40.4847 55.5645 39.3097C60.4844 39.1384 64.3518 35.0017 64.1805 30.0818C64.1805 29.4209 64.0826 28.7355 63.9113 28.0747Z" fill="url(#paint0_linear_6744_64909)"/>
<path d="M60.9745 28.8824C60.7053 27.8788 60.1423 26.9487 59.4325 26.2388C61.7333 23.938 61.7333 20.1929 59.4325 17.8676C57.9638 16.399 55.7609 15.8115 53.7293 16.35C52.897 13.1924 49.666 11.3322 46.5084 12.1399C44.4768 12.7029 42.8613 14.2694 42.2984 16.35C39.1408 15.4933 35.8853 17.3781 35.0775 20.5112C34.5146 22.5428 35.102 24.7457 36.5951 26.2144C34.2943 28.5152 34.2943 32.2603 36.5951 34.5856C38.0638 36.0542 40.2667 36.6417 42.2984 36.1032C43.1306 39.2608 46.3371 41.17 49.4947 40.3378C51.5508 39.7748 53.2152 38.1593 53.7293 36.1032C56.8623 36.9599 60.0934 35.1486 60.999 32.0155C61.2193 30.963 61.2193 29.9104 60.9745 28.8824ZM52.9949 28.0746C53.3376 28.0746 53.6803 28.0012 53.9985 27.8299C55.4182 27.1445 57.1071 27.732 57.7925 29.1027C58.4779 30.5224 57.8904 32.2113 56.5197 32.8967C55.1 33.582 53.411 32.9946 52.7257 31.6238C52.5543 31.2812 52.4564 30.9385 52.4564 30.5468C52.432 30.2042 52.3096 29.8615 52.1382 29.5433C51.6242 28.6376 50.4493 28.3439 49.5681 28.8579C48.6625 29.3719 48.3687 30.5468 48.8827 31.428C49.0541 31.7462 49.2989 31.991 49.5681 32.1868C50.8654 33.0435 51.2326 34.8059 50.3514 36.1032C49.4947 37.4005 47.7323 37.7432 46.435 36.8865C45.1377 36.0298 44.795 34.2674 45.6517 32.9701C45.8476 32.6519 46.1413 32.3826 46.435 32.1868C46.7043 31.991 46.949 31.7462 47.1204 31.428C47.6344 30.5224 47.3162 29.3719 46.435 28.8579C45.5294 28.3439 44.3789 28.6621 43.8649 29.5433C43.6936 29.8615 43.5957 30.2042 43.5467 30.5468C43.4488 32.0889 42.0781 33.2638 40.5115 33.1659C38.9694 33.068 37.7945 31.6973 37.8924 30.1307C37.9903 28.5887 39.3611 27.4138 40.9276 27.5117C41.2948 27.5361 41.6619 27.6585 42.0046 27.8299C42.3228 27.9767 42.6655 28.0746 43.0082 28.0746C44.0362 28.0746 44.8929 27.2179 44.8929 26.1899C44.8929 25.1618 44.0362 24.3051 43.0082 24.3051C42.6655 24.3051 42.3228 24.3786 42.0046 24.5499C40.5849 25.2353 38.896 24.6478 38.2106 23.2771C37.5253 21.9064 38.1127 20.1685 39.4835 19.4831C40.8542 18.7977 42.5921 19.3852 43.2774 20.7559C43.4488 21.0986 43.5467 21.4413 43.5467 21.8329C43.5712 22.1756 43.6936 22.5183 43.8649 22.8365C44.3789 23.7422 45.5538 24.0359 46.435 23.5219C47.3407 23.0078 47.6344 21.8329 47.1204 20.9517C46.949 20.6335 46.7043 20.3888 46.435 20.1929C45.1377 19.3362 44.795 17.5739 45.6517 16.2766C46.5084 14.9793 48.2708 14.6366 49.5681 15.4933C50.8654 16.35 51.2326 18.1124 50.3514 19.4097C50.1556 19.7279 49.8618 19.9971 49.5681 20.1929C49.2989 20.3888 49.0541 20.6335 48.8827 20.9517C48.3687 21.8819 48.6869 23.0568 49.6171 23.5708C50.5472 24.0848 51.7221 23.7666 52.2361 22.8365C52.4075 22.5183 52.5054 22.1756 52.5543 21.8329C52.7012 20.2909 54.023 19.1159 55.614 19.2628C57.1561 19.4097 58.331 20.7314 58.1841 22.3225C58.0373 23.8645 56.7155 25.0395 55.1245 24.8926C54.7573 24.8681 54.3657 24.7457 54.0475 24.5744C53.7293 24.4275 53.3866 24.3296 53.0439 24.3296C52.0158 24.3296 51.1591 25.1863 51.1591 26.2144C51.1347 27.2669 51.9669 28.0746 52.9949 28.0746Z" fill="white"/>
<path d="M24.5272 50.7896V54.0451C24.1356 54.3388 23.695 54.5591 23.2299 54.706C22.7403 54.8528 22.2508 54.9018 21.7368 54.9018C21.1248 54.9018 20.5374 54.8039 19.9499 54.6081C19.4359 54.4122 18.9708 54.143 18.5792 53.7514C18.212 53.3842 17.9183 52.9436 17.698 52.4541C17.5022 51.94 17.4043 51.3771 17.4043 50.7896C17.4043 50.2266 17.5022 49.6637 17.698 49.1252C18.0652 48.1216 18.8485 47.3383 19.852 46.9711C20.415 46.7753 21.0025 46.6529 21.6144 46.6774C21.9081 46.6774 22.2263 46.7019 22.5201 46.7509C22.7893 46.7998 23.0586 46.8732 23.3033 46.9467C23.5236 47.0201 23.7439 47.1425 23.9642 47.2649C24.16 47.3873 24.3314 47.5341 24.5027 47.681L24.0866 48.3664C24.0376 48.4643 23.9397 48.5377 23.8174 48.5622C23.695 48.5866 23.5726 48.5622 23.4747 48.4887L23.083 48.2929C22.9606 48.2195 22.8138 48.1705 22.6669 48.1216C22.5201 48.0726 22.3487 48.0237 22.1774 47.9992C21.9571 47.9747 21.7613 47.9502 21.541 47.9502C21.1738 47.9502 20.8066 47.9992 20.464 48.1461C20.1458 48.2684 19.8765 48.4643 19.6562 48.709C19.4359 48.9538 19.2401 49.272 19.1422 49.5902C19.0198 49.9574 18.9464 50.349 18.9708 50.7651C18.9708 51.1812 19.0198 51.5974 19.1667 51.989C19.289 52.3317 19.4604 52.6499 19.7296 52.8947C19.9744 53.1394 20.2681 53.3352 20.5863 53.4332C21.1983 53.6535 21.8836 53.6779 22.5201 53.5311C22.7403 53.4821 22.9851 53.3842 23.2054 53.2863V51.8421H22.2018C22.1284 51.8421 22.0305 51.8177 21.9816 51.7687C21.9326 51.7197 21.9081 51.6463 21.9081 51.5729V50.7162L24.5272 50.7896ZM28.3212 49.0272C28.7128 49.0272 29.1044 49.0762 29.4716 49.2231C29.7898 49.3454 30.108 49.5413 30.3528 49.8105C30.5976 50.0798 30.7934 50.398 30.9158 50.7407C31.0382 51.1323 31.1116 51.5484 31.1116 51.9645C31.1116 52.3806 31.0626 52.7967 30.9158 53.1884C30.7934 53.5311 30.5976 53.8493 30.3528 54.1185C30.108 54.3633 29.7898 54.5836 29.4716 54.706C29.1044 54.8528 28.7128 54.9018 28.3212 54.9018C27.9295 54.9018 27.5379 54.8528 27.1707 54.706C26.8281 54.5836 26.5343 54.3878 26.2896 54.1185C26.0448 53.8493 25.849 53.5311 25.7266 53.1884C25.5797 52.7967 25.5308 52.3806 25.5308 51.9645C25.5308 51.5484 25.5797 51.1323 25.7266 50.7407C25.849 50.398 26.0448 50.0798 26.2896 49.8105C26.5343 49.5657 26.8525 49.3699 27.1707 49.2231C27.5134 49.1007 27.9295 49.0272 28.3212 49.0272ZM28.3212 53.8493C28.7373 53.8737 29.1289 53.7024 29.3737 53.3842C29.6185 52.9681 29.7409 52.4785 29.7164 51.9645C29.7409 51.475 29.643 50.9854 29.3737 50.5448C29.1289 50.2266 28.7373 50.0553 28.3212 50.0798C27.9051 50.0553 27.5134 50.2266 27.2442 50.5448C26.9994 50.9609 26.877 51.4505 26.9015 51.9645C26.877 52.4541 26.9749 52.9436 27.2442 53.3842C27.4889 53.7024 27.9051 53.8737 28.3212 53.8493Z" fill="black"/>
<path d="M36.2038 47.9992H33.805V54.8039H32.3119V47.9992H29.8887V46.7753H36.2283L36.2038 47.9992Z" fill="black"/>
<path d="M37.7943 49.0273C38.186 49.0273 38.5776 49.0762 38.9448 49.2231C39.263 49.3455 39.5812 49.5413 39.8259 49.8105C40.0707 50.0798 40.2665 50.398 40.3889 50.7407C40.5113 51.1323 40.5847 51.5484 40.5847 51.9645C40.5847 52.3807 40.5358 52.7968 40.3889 53.1884C40.2665 53.5311 40.0707 53.8493 39.8259 54.1185C39.5812 54.3633 39.263 54.5836 38.9448 54.706C38.5776 54.8529 38.186 54.9018 37.7943 54.9018C37.4027 54.9018 37.011 54.8529 36.6439 54.706C36.3012 54.5836 36.0075 54.3633 35.7627 54.0941C35.5179 53.8248 35.3221 53.5066 35.1997 53.1639C35.0529 52.7723 35.0039 52.3562 35.0039 51.9401C35.0039 51.5239 35.0529 51.1078 35.1997 50.7162C35.3221 50.3735 35.5179 50.0553 35.7627 49.7861C36.0075 49.5413 36.3257 49.3455 36.6439 49.1986C37.011 49.0762 37.4027 49.0273 37.7943 49.0273ZM37.7943 53.8493C38.2104 53.8738 38.6021 53.7024 38.8468 53.3842C39.0916 52.9681 39.214 52.4786 39.1895 51.9645C39.214 51.475 39.1161 50.9854 38.8468 50.5449C38.6021 50.2267 38.2104 50.0553 37.7943 50.0798C37.3782 50.0553 36.9866 50.2267 36.7173 50.5449C36.4725 50.961 36.3502 51.4505 36.3746 51.9645C36.3502 52.4541 36.4481 52.9436 36.7173 53.3842C36.9866 53.7024 37.3782 53.8738 37.7943 53.8493ZM49.5924 46.9467V54.8284H49.1028V48.1216C49.1028 48.0237 49.1028 47.9258 49.1028 47.8279L46.0187 53.3353C45.9942 53.4087 45.8963 53.4821 45.7984 53.4821H45.725C45.6271 53.4821 45.5536 53.4332 45.5047 53.3353L42.3226 47.8034V54.8284H41.8331V46.9467H42.2247C42.2492 46.9467 42.2981 46.9467 42.3471 46.9467C42.3716 46.9712 42.4205 46.9956 42.4205 47.0201L45.6026 52.503C45.6515 52.601 45.7005 52.7233 45.7494 52.8212C45.7739 52.7723 45.7984 52.6989 45.8229 52.6499C45.8474 52.6009 45.8718 52.552 45.8963 52.4786L48.9804 47.0446C49.0049 47.0201 49.0294 46.9712 49.0539 46.9712C49.0784 46.9712 49.1273 46.9712 49.1763 46.9712L49.5924 46.9467ZM51.3303 51.8422V51.9401C51.3303 52.3072 51.3792 52.6744 51.4771 53.0415C51.5506 53.3353 51.6974 53.6045 51.8932 53.8248C52.0646 54.0206 52.2849 54.192 52.5297 54.2899C52.7989 54.3878 53.0682 54.4367 53.3619 54.4367C53.6067 54.4367 53.8514 54.4123 54.0962 54.3633C54.2675 54.3144 54.4389 54.2409 54.6102 54.1675C54.7081 54.1185 54.8305 54.0451 54.9284 53.9717C54.9774 53.9227 55.0263 53.8982 55.0998 53.8982C55.1487 53.8982 55.1732 53.9227 55.1977 53.9472L55.3445 54.1185C55.2466 54.2409 55.1243 54.3388 55.0019 54.4367C54.855 54.5347 54.7081 54.6081 54.5368 54.6815C54.3655 54.755 54.1696 54.8039 53.9493 54.8529C53.7535 54.8773 53.5332 54.9018 53.3374 54.9018C52.9947 54.9018 52.6276 54.8529 52.3094 54.706C52.0156 54.5836 51.7219 54.3878 51.5016 54.143C51.2813 53.8738 51.0855 53.5556 50.9876 53.2129C50.8652 52.8212 50.8162 52.3807 50.8162 51.9645C50.8162 51.5974 50.8652 51.2302 50.9876 50.8631C51.0855 50.5449 51.2324 50.2511 51.4527 50.0064C51.673 49.7616 51.9422 49.5658 52.2359 49.4434C52.5541 49.2965 52.9213 49.2476 53.2885 49.2476C53.5822 49.2476 53.8759 49.2965 54.1452 49.3944C54.4144 49.4923 54.6347 49.6637 54.8305 49.8595C55.0263 50.0798 55.1977 50.3246 55.2956 50.6183C55.418 50.961 55.4669 51.3037 55.4669 51.6708C55.4669 51.7198 55.4669 51.7687 55.4425 51.8422C55.418 51.8666 55.369 51.8911 55.3445 51.8666L51.3303 51.8422ZM55.0263 51.4995C55.0263 51.2302 55.0019 50.961 54.904 50.6917C54.8305 50.4714 54.7081 50.2756 54.5613 50.1043C54.4144 49.9574 54.2186 49.8105 54.0228 49.7371C53.8025 49.6637 53.5822 49.6147 53.3374 49.6147C53.0926 49.6147 52.8234 49.6392 52.5786 49.7371C52.3583 49.8105 52.1625 49.9574 51.9912 50.1043C51.8198 50.2756 51.6974 50.4714 51.5995 50.6917C51.5016 50.9365 51.4282 51.2057 51.4037 51.475L55.0263 51.4995ZM57.0335 51.8422V51.9401C57.0335 52.3072 57.0824 52.6744 57.1803 53.0415C57.2538 53.3353 57.4006 53.6045 57.5965 53.8248C57.7678 54.0206 57.9881 54.192 58.2329 54.2899C58.5021 54.3878 58.7714 54.4367 59.0651 54.4367C59.3099 54.4367 59.5546 54.4123 59.7994 54.3633C59.9708 54.3144 60.1421 54.2409 60.3134 54.1675C60.4114 54.1185 60.5337 54.0451 60.6316 53.9717C60.6806 53.9227 60.7296 53.8982 60.803 53.8982C60.8519 53.8982 60.8764 53.9227 60.9009 53.9472L61.0478 54.1185C60.9499 54.2409 60.8275 54.3388 60.7051 54.4367C60.5582 54.5347 60.4114 54.6081 60.24 54.6815C60.0687 54.755 59.8729 54.8039 59.6526 54.8529C59.4567 54.8773 59.2364 54.9018 59.0406 54.9018C58.6979 54.9018 58.3308 54.8529 58.0126 54.706C57.7188 54.5836 57.4251 54.3878 57.2048 54.143C56.9845 53.8738 56.7887 53.5556 56.6908 53.2129C56.5684 52.8212 56.5195 52.3807 56.5195 51.9645C56.5195 51.5974 56.5684 51.2302 56.6908 50.8631C56.7887 50.5449 56.9356 50.2511 57.1559 50.0064C57.3762 49.7616 57.6454 49.5658 57.9391 49.4434C58.2573 49.2965 58.6245 49.2476 58.9917 49.2476C59.2854 49.2476 59.5791 49.2965 59.8484 49.3944C60.1176 49.4923 60.3379 49.6637 60.5337 49.8595C60.7296 50.0798 60.9009 50.3246 60.9988 50.6183C61.1212 50.9365 61.1701 51.3037 61.1701 51.6463C61.1701 51.6953 61.1701 51.7442 61.1457 51.8177C61.1212 51.8422 61.0722 51.8666 61.0478 51.8422H57.0335ZM60.7296 51.4995C60.7296 51.2302 60.7051 50.961 60.6072 50.7162C60.5337 50.4959 60.4114 50.3001 60.2645 50.1287C60.1176 49.9819 59.9218 49.835 59.726 49.7616C59.5057 49.6882 59.2854 49.6392 59.0406 49.6392C58.7959 49.6392 58.5266 49.6637 58.2818 49.7616C58.0615 49.835 57.8657 49.9819 57.6944 50.1287C57.523 50.3001 57.4006 50.4959 57.3027 50.7162C57.2048 50.961 57.1314 51.2302 57.1069 51.4995H60.7296ZM64.034 54.9263C63.7158 54.9508 63.3976 54.8284 63.1528 54.6081C62.9325 54.3633 62.8101 54.0206 62.8346 53.678V49.9084H62.0513C62.0269 49.9084 61.9779 49.9084 61.9534 49.884C61.9289 49.8595 61.9289 49.835 61.9289 49.7861V49.5902L62.8591 49.5413L62.9815 47.5586C62.9815 47.5341 63.0059 47.5097 63.0059 47.4852C63.0304 47.4607 63.0549 47.4607 63.1039 47.4607H63.3486V49.5168H65.111V49.9084H63.3731V53.678C63.3731 53.8003 63.3731 53.9472 63.4221 54.0696C63.4465 54.1675 63.4955 54.2654 63.5689 54.3388C63.6424 54.4123 63.7158 54.4612 63.8137 54.4857C63.9116 54.5102 64.0095 54.5347 64.1074 54.5347C64.2298 54.5347 64.3277 54.5347 64.4501 54.4857C64.5235 54.4612 64.6214 54.4123 64.6949 54.3633C64.7438 54.3388 64.8173 54.2899 64.8662 54.2409C64.8907 54.2165 64.9152 54.192 64.9641 54.192C64.9886 54.192 65.0376 54.2165 65.0376 54.2409L65.1844 54.4612C65.0376 54.6081 64.8662 54.755 64.6459 54.8284C64.4991 54.8773 64.2543 54.9263 64.034 54.9263ZM67.0447 47.3873C67.0447 47.4362 67.0447 47.5097 67.0202 47.5586C66.9957 47.6076 66.9713 47.6565 66.9223 47.7055C66.8734 47.7544 66.8244 47.7789 66.7754 47.8034C66.6531 47.8524 66.5307 47.8524 66.4083 47.8034C66.3593 47.7789 66.3104 47.7544 66.2614 47.7055C66.2125 47.6565 66.188 47.6076 66.1635 47.5586C66.139 47.5097 66.139 47.4362 66.139 47.3873C66.139 47.3383 66.139 47.2649 66.1635 47.1915C66.188 47.1425 66.2125 47.0936 66.2614 47.0446C66.3104 46.9956 66.3593 46.9712 66.4083 46.9222C66.5307 46.8733 66.6531 46.8733 66.7754 46.9222C66.8244 46.9467 66.8734 46.9712 66.9223 47.0201C66.9713 47.0691 66.9957 47.118 67.0202 47.167C67.0202 47.2404 67.0447 47.3138 67.0447 47.3873ZM66.8244 49.272V54.8284H66.3104V49.272H66.8244ZM68.856 50.2511C69.1008 49.9574 69.3945 49.6881 69.7372 49.4923C70.0799 49.2965 70.4715 49.1986 70.8632 49.1986C71.1324 49.1986 71.4017 49.2476 71.6709 49.3455C71.8912 49.4189 72.087 49.5658 72.2339 49.7616C72.3808 49.9574 72.5031 50.1777 72.5766 50.4225C72.65 50.6917 72.699 50.9854 72.699 51.2792V54.8039H72.1605V51.2792C72.1849 50.8386 72.0625 50.4225 71.8178 50.0553C71.5485 49.7616 71.1569 49.5902 70.7408 49.6147C70.3981 49.6147 70.0309 49.7126 69.7372 49.884C69.419 50.0798 69.1253 50.349 68.905 50.6672V54.8284H68.3665V49.272H68.6602C68.7336 49.272 68.8071 49.321 68.8071 49.3944L68.856 50.2511ZM78.598 49.5413V49.7126C78.598 49.7861 78.549 49.835 78.4511 49.8595L77.5944 49.9084C77.6923 50.0553 77.7658 50.2022 77.8392 50.3735C77.8881 50.5449 77.9126 50.7407 77.9126 50.9365C77.9126 51.1813 77.8637 51.426 77.7658 51.6708C77.6923 51.8666 77.5455 52.0624 77.3741 52.2338C77.2028 52.3807 76.9825 52.503 76.7622 52.5765C76.5174 52.6499 76.2237 52.6989 75.9544 52.6989C75.6607 52.6989 75.367 52.6499 75.0977 52.552C74.9509 52.6254 74.8285 52.7233 74.7306 52.8702C74.6571 52.9681 74.6082 53.0905 74.6082 53.2129C74.6082 53.3597 74.6571 53.4821 74.7795 53.58C74.9019 53.678 75.0488 53.7269 75.2201 53.7514C75.4159 53.7759 75.6362 53.8248 75.8321 53.8248L76.5419 53.8493C76.7867 53.8493 77.0314 53.8738 77.2517 53.9227C77.472 53.9472 77.6679 53.9962 77.8637 54.0941C78.035 54.1675 78.1819 54.2899 78.3043 54.4367C78.4266 54.6081 78.4756 54.8284 78.4756 55.0242C78.4756 55.2445 78.4266 55.4893 78.3043 55.6851C78.1819 55.9054 78.0105 56.0767 77.8147 56.2236C77.5699 56.3949 77.3252 56.5173 77.0314 56.6152C76.6888 56.7131 76.3461 56.7621 76.0034 56.7621C75.6607 56.7621 75.318 56.7376 74.9753 56.6397C74.7306 56.5908 74.4613 56.4684 74.241 56.3215C74.0452 56.1991 73.8983 56.0523 73.776 55.8564C73.6781 55.6851 73.6291 55.4893 73.6291 55.2935C73.6291 55.0242 73.727 54.755 73.9228 54.5347C74.1431 54.3144 74.4124 54.1675 74.7061 54.0696C74.5348 54.0206 74.3634 53.9227 74.241 53.8003C74.1431 53.678 74.0697 53.5066 74.0697 53.3353C74.0697 53.2618 74.0697 53.1639 74.0942 53.0905C74.1186 53.0171 74.1676 52.9192 74.2166 52.8457C74.2655 52.7723 74.3389 52.6744 74.4369 52.6254C74.5103 52.552 74.6082 52.4786 74.7306 52.4296C74.4858 52.2827 74.2655 52.0869 74.1186 51.8177C73.9718 51.5484 73.8983 51.2547 73.8983 50.9365C73.8983 50.6917 73.9473 50.4469 74.0452 50.2022C74.1431 49.9819 74.2655 49.8105 74.4369 49.6392C74.6082 49.4923 74.8285 49.3699 75.0488 49.272C75.5383 49.1007 76.0768 49.0762 76.5909 49.1986C76.7867 49.2476 76.9825 49.321 77.1538 49.4434L78.598 49.5413ZM78.035 55.1711C78.035 55.0242 78.0105 54.8773 77.9126 54.755C77.8147 54.657 77.6923 54.5591 77.5455 54.5102C77.3741 54.4612 77.2028 54.4123 77.0314 54.3878C76.8356 54.3633 76.6398 54.3633 76.4195 54.3388L75.7586 54.3144C75.5628 54.3144 75.3425 54.2899 75.1467 54.2654C75.0243 54.3144 74.8774 54.3878 74.7551 54.4612C74.6571 54.5347 74.5348 54.6081 74.4613 54.706C74.3879 54.8039 74.3145 54.9018 74.2655 54.9997C74.1676 55.2445 74.1676 55.5627 74.3145 55.8075C74.4124 55.9543 74.5348 56.0767 74.6816 56.1746C74.853 56.2725 75.0733 56.3705 75.2691 56.4194C75.5383 56.4684 75.8076 56.5173 76.0768 56.4928C76.3461 56.4928 76.5909 56.4684 76.8601 56.3949C77.0804 56.346 77.3007 56.2481 77.4965 56.1257C77.6679 56.0278 77.8147 55.8809 77.9126 55.7096C77.9616 55.5627 78.035 55.3669 78.035 55.1711ZM75.9544 52.3562C76.1747 52.3562 76.3706 52.3317 76.5909 52.2583C76.7622 52.2093 76.9335 52.1114 77.0559 51.9645C77.1783 51.8422 77.2762 51.6953 77.3496 51.5239C77.472 51.1568 77.472 50.7652 77.3496 50.3735C77.3007 50.2022 77.1783 50.0553 77.0559 49.9329C76.9335 49.8105 76.7622 49.7126 76.5909 49.6637C76.1992 49.5413 75.7586 49.5413 75.3425 49.6637C75.1712 49.7126 74.9998 49.8105 74.8774 49.9329C74.7551 50.0553 74.6571 50.2022 74.5837 50.3735C74.5103 50.5449 74.4858 50.7407 74.4858 50.9365C74.4858 51.1323 74.5103 51.3281 74.5837 51.4995C74.6327 51.6708 74.7306 51.8177 74.8774 51.9401C74.9998 52.0624 75.1712 52.1604 75.3425 52.2338C75.5383 52.3072 75.7586 52.3562 75.9544 52.3562Z" fill="black"/>
</g>
</g>
<defs>
<linearGradient id="paint0_linear_6744_64909" x1="48.001" y1="12.5957" x2="48.001" y2="35.8672" gradientUnits="userSpaceOnUse">
<stop stop-color="#E4B822"/>
<stop offset="0.12" stop-color="#E4B222"/>
<stop offset="0.29" stop-color="#E2A024"/>
<stop offset="0.48" stop-color="#E08426"/>
<stop offset="0.5" stop-color="#E08026"/>
<stop offset="1" stop-color="#C95528"/>
</linearGradient>
<clipPath id="clip0_6744_64909">
<rect width="72" height="48" fill="white" transform="translate(12 8.85999)"/>
</clipPath>
<clipPath id="clip1_6744_64909">
<rect width="61.1933" height="48" fill="white" transform="translate(17.4043 8.85999)"/>
</clipPath>
</defs>
</svg>
