<svg width="64" height="64" viewBox="0 0 64 64" fill="none" xmlns="http://www.w3.org/2000/svg">
<g id="transportation.svg" clip-path="url(#clip0_6744_61399)">
<path id="Vector" d="M29.83 63.1077C28.9437 62.8969 28.0458 62.7379 27.141 62.6313C24.8481 62.2303 22.6641 61.355 20.7289 60.0614C20.0592 59.5916 19.4706 59.0158 18.9863 58.3565C18.3243 57.5062 17.9786 56.4522 18.0083 55.375C18.038 54.2978 18.4414 53.2645 19.1493 52.452C20.4969 50.7973 22.3272 49.8884 24.2828 49.1801L24.8219 48.9983C22.4964 46.184 20.2462 43.3947 18.1402 40.4174C16.6604 41.281 15.1304 42.0554 13.5582 42.7366C11.728 43.4887 9.86637 44.1657 7.83553 44.0341C7.32271 44.0351 6.81491 43.9331 6.34236 43.7339C5.8698 43.5347 5.44214 43.2425 5.08483 42.8747C4.72751 42.5068 4.44784 42.0709 4.26246 41.5927C4.07709 41.1146 3.98979 40.604 4.00576 40.0915C4.04183 38.0871 4.52133 36.1156 5.4098 34.3186C6.80968 31.2161 8.51684 28.2617 10.5057 25.4995C10.6129 25.3566 10.6903 25.1937 10.7334 25.0203C10.7764 24.847 10.7843 24.6668 10.7564 24.4903C10.3191 20.7303 10.8793 16.9215 12.3808 13.4466C13.8823 9.97181 16.2721 6.95349 19.3099 4.69511C22.3478 2.43673 25.9266 1.01788 29.6867 0.581212C33.4468 0.144542 37.2556 0.705438 40.7301 2.20751C41.0435 2.34541 41.2817 2.43316 41.5951 2.14483C41.7928 1.99773 42.0305 1.91417 42.2768 1.90522C42.5231 1.89626 42.7662 1.96234 42.9741 2.09469C45.0927 2.97848 47.1987 3.84347 49.3361 4.73979C49.4846 4.83591 49.6643 4.8713 49.8382 4.83863C50.012 4.80597 50.1666 4.70775 50.2701 4.56429C51.0661 3.66796 51.8872 2.7779 52.7773 1.94425C53.2964 1.38188 53.9457 0.955697 54.6682 0.703216C55.3906 0.450736 56.1641 0.379693 56.9204 0.496339C57.5247 0.597084 58.0985 0.832808 58.5991 1.18597C59.0997 1.53913 59.5142 2.00063 59.8118 2.53613C60.1093 3.07164 60.2823 3.66735 60.3178 4.27895C60.3533 4.89054 60.2504 5.50227 60.0168 6.06862C59.7379 6.84002 59.2854 7.53699 58.6943 8.10572C57.8669 8.8955 57.0521 9.68527 56.1871 10.45C56.0362 10.5466 55.9293 10.6986 55.8894 10.8733C55.8496 11.048 55.8799 11.2314 55.974 11.3839C56.8766 13.5025 57.7228 15.6336 58.6254 17.7522C58.7789 18.0407 58.8285 18.3733 58.7657 18.6941C58.7029 19.0148 58.5316 19.3042 58.2806 19.5135C57.4282 20.3346 56.582 21.1683 55.7734 22.0207C55.1967 22.6475 54.595 22.9609 53.7238 22.472C53.6621 24.0139 53.4202 25.5433 53.0029 27.0289C51.8399 30.8929 50.0963 34.5577 47.8318 37.8977C45.4684 41.5134 42.8787 44.9761 40.0783 48.265L39.5016 48.967C40.4708 49.289 41.4138 49.685 42.3222 50.1516C43.49 50.745 44.5129 51.5882 45.3183 52.6212C46.0055 53.4845 46.3644 54.5635 46.3311 55.6663C46.2978 56.7692 45.8746 57.8246 45.1366 58.6448C43.8437 60.1042 42.1804 61.187 40.3227 61.7788C38.4459 62.468 36.4815 62.89 34.4872 63.0324C34.3869 63.0324 34.2803 63.0324 34.2427 63.1453L29.83 63.1077ZM46.6095 19.5449C46.4622 19.6809 46.3074 19.8086 46.1457 19.9272C45.6255 20.2532 45.6129 20.6668 45.7822 21.1808C46.0893 22.2088 46.3275 23.2493 46.597 24.3148L46.503 24.5405C46.4248 24.8155 46.2679 25.0617 46.0517 25.2488C45.124 26.1702 44.2089 27.0978 43.2812 28.013C42.3535 28.9281 41.57 28.7463 40.9871 27.6369C40.1597 26.0511 39.3386 24.4653 38.5238 22.8669C38.3788 22.5872 38.142 22.3659 37.8531 22.2401C36.2798 21.4378 34.7191 20.6167 33.1396 19.8019C31.9925 19.2064 31.8859 18.379 32.7509 17.4764C33.6159 16.5738 34.5749 15.6712 35.4713 14.7498C35.6629 14.5248 35.9178 14.3626 36.2029 14.2843C36.4879 14.2061 36.7899 14.2154 37.0696 14.3111C38.0098 14.5806 38.95 14.8062 39.8965 15.0758C40.003 15.1226 40.122 15.1333 40.2352 15.1061C40.3484 15.0789 40.4496 15.0154 40.5233 14.9253C41.3883 13.9789 42.2658 13.0449 43.1371 12.1047C43.3857 11.9261 43.5843 11.6865 43.7137 11.409L38.6303 7.25954C38.4511 7.15582 38.3003 7.00929 38.1914 6.83305C38.0826 6.65681 38.0192 6.45635 38.0068 6.2496C37.9943 6.04285 38.0333 5.83624 38.1203 5.64824C38.2072 5.46025 38.3394 5.29672 38.505 5.17229C38.8206 4.91609 39.0935 4.61143 39.3136 4.26969C37.3321 3.43834 35.2125 2.9855 33.0643 2.9346C25.6618 2.74656 19.8827 5.76775 15.8586 11.9982C13.5278 15.5702 12.5661 19.8642 13.1508 24.0892C13.625 27.0078 14.6118 29.8195 16.0654 32.3943C16.9004 34.0157 17.8319 35.5855 18.8547 37.0953C20.4343 36.0235 21.9887 35.0394 23.468 33.8485C23.6686 33.7106 23.8754 33.5853 24.0948 33.4411C27.5359 30.8587 30.8016 28.0631 33.9669 25.1548C34.6376 24.528 35.3396 24.528 35.8473 25.0795C36.355 25.6311 36.2861 26.3331 35.6217 26.9599L33.2649 29.0911C30.8517 31.2535 28.3194 33.2719 25.7809 35.2839C23.9506 36.5375 22.1642 37.9102 20.2462 39.1199C23.8691 44.266 27.9935 48.9357 32.1555 53.668L32.4125 53.3483C35.3208 50.0388 38.2417 46.7418 40.962 43.2756C44.0858 39.4791 46.7729 35.3434 48.9726 30.9464C50.6775 27.3298 51.7243 23.5877 51.1413 19.5323C51.1348 19.329 51.0719 19.1315 50.9596 18.9619L49.3299 16.9374L46.6095 19.5449ZM54.6828 19.6953C55.1027 19.2691 55.46 18.8491 55.8737 18.4918C55.985 18.408 56.0605 18.2851 56.0849 18.1479C56.1093 18.0107 56.0809 17.8693 56.0053 17.7522C55.0965 15.596 54.2064 13.4335 53.3101 11.2711C53.2165 11.1288 53.152 10.9695 53.1203 10.8023C53.0886 10.635 53.0903 10.4631 53.1252 10.2965C53.1602 10.1299 53.2277 9.97186 53.324 9.83146C53.4203 9.69106 53.5433 9.57108 53.6861 9.47842L56.8202 6.54499C57.2975 6.12396 57.6417 5.57285 57.8105 4.95917C57.8947 4.67679 57.9008 4.37685 57.8281 4.09129C57.7554 3.80572 57.6066 3.54522 57.3976 3.33749C57.1886 3.12977 56.9272 2.9826 56.6412 2.91166C56.3551 2.84071 56.0553 2.84864 55.7734 2.9346C55.1801 3.09687 54.6466 3.42784 54.2377 3.88734L51.4735 6.83331C50.6023 7.76098 50.3892 7.80486 49.2358 7.32849L42.9678 4.73352C42.7798 4.65831 42.5917 4.50161 42.341 4.73352C41.9273 5.17855 41.476 5.59224 41.0185 6.03727L41.4384 6.39455C43.0096 7.64816 44.5787 8.91639 46.1457 10.1992C46.9417 10.826 46.9794 11.5406 46.2773 12.2928C44.7605 13.9162 43.2311 15.5271 41.7205 17.163C41.5266 17.4003 41.2644 17.5721 40.9694 17.655C40.6745 17.738 40.3611 17.7282 40.072 17.6269C39.1318 17.3636 38.1916 17.1129 37.2451 16.8622C37.0696 16.8183 36.8941 16.7305 36.7311 16.8622L35.4148 18.191C36.8252 18.9181 38.0976 19.6013 39.395 20.2469C39.8746 20.4713 40.262 20.8543 40.4919 21.3313C41.1187 22.635 41.827 23.92 42.5604 25.3365C42.9615 24.9103 43.2938 24.5217 43.6573 24.1769C43.7706 24.0925 43.8521 23.9723 43.8885 23.8358C43.9249 23.6992 43.9141 23.5544 43.8579 23.4248C43.5946 22.5096 43.3752 21.5757 43.1057 20.6606C43.0004 20.3618 42.9909 20.0376 43.0786 19.7331C43.1662 19.4286 43.3466 19.1591 43.5946 18.9619C45.1867 17.5015 46.7286 16.0097 48.3332 14.5305C49.2609 13.6592 49.8689 13.6968 50.665 14.6872C51.9938 16.3356 53.3163 17.9779 54.6828 19.6953ZM31.5287 60.6569C33.209 60.6987 34.8892 60.5684 36.5431 60.2682C38.6483 59.9641 40.652 59.1674 42.3912 57.9428C44.4157 56.4009 44.422 54.6521 42.3912 53.0976C41.0982 52.1702 39.6413 51.496 38.0976 51.1107C37.7716 51.0166 37.6212 51.1859 37.4394 51.399C36.073 52.966 34.694 54.533 33.3213 56.0875C32.5441 56.9713 31.8483 56.9713 31.0774 56.0875C29.8238 54.6772 28.5702 53.3045 27.3855 51.8377C27.1975 51.5275 26.8972 51.3017 26.547 51.2071C26.1968 51.1126 25.8237 51.1566 25.5051 51.33C23.9506 51.9568 22.4212 52.5272 21.2679 53.7808C21.0265 53.9977 20.8334 54.263 20.7012 54.5595C20.569 54.8559 20.5007 55.1768 20.5007 55.5014C20.5007 55.826 20.569 56.1469 20.7012 56.4433C20.8334 56.7398 21.0265 57.0051 21.2679 57.222C21.8165 57.8303 22.4679 58.3374 23.1922 58.72C25.7852 59.9978 28.6379 60.6606 31.5287 60.6569ZM11.6716 28.3326C11.4772 28.3326 11.4459 28.4768 11.3832 28.5708C10.3587 30.1147 9.41918 31.7133 8.56889 33.3596C7.59401 35.1234 6.89436 37.0257 6.49417 39.0008C6.16823 40.9627 6.80757 41.6835 8.77573 41.5582C8.91849 41.5553 9.06089 41.5427 9.20196 41.5206C11.9285 41.0066 14.3292 39.7279 16.7236 38.3866C14.6225 35.2616 12.925 31.8835 11.6716 28.3326Z" fill="#151616"/>
<path id="Vector_2" d="M43.15 12.0733C42.2787 13.0135 41.4012 13.9537 40.5362 14.8939C40.4625 14.984 40.3613 15.0475 40.2482 15.0747C40.135 15.1018 40.016 15.0912 39.9094 15.0444C38.9755 14.7748 38.029 14.5492 37.0825 14.2797C36.8029 14.184 36.5009 14.1746 36.2158 14.2529C35.9307 14.3311 35.6758 14.4933 35.4842 14.7184C34.5879 15.6398 33.6665 16.5299 32.7639 17.445C31.8613 18.3601 32.0054 19.175 33.1525 19.7704C34.7195 20.5853 36.2865 21.4064 37.866 22.2087C38.1549 22.3345 38.3917 22.5558 38.5367 22.8355C39.3516 24.4339 40.1727 26.0197 41.0001 27.6055C41.583 28.7149 42.4166 28.8591 43.2942 27.9816C44.1717 27.104 45.137 26.1388 46.0646 25.2174C46.2809 25.0303 46.4377 24.7841 46.5159 24.5091C46.5656 24.5605 46.5987 24.6255 46.611 24.6959C46.6233 24.7663 46.6142 24.8388 46.5849 24.904C46.2905 26.2969 45.8054 27.6426 45.1432 28.903C43.7476 31.5406 41.5794 33.6889 38.9289 35.0601C36.2784 36.4312 33.2723 36.9598 30.3131 36.575C28.7423 36.3643 27.2099 35.9294 25.7625 35.2838C28.301 33.2718 30.8333 31.2535 33.2465 29.091L35.6033 26.9599C36.2677 26.3331 36.3429 25.6373 35.8289 25.0795C35.315 24.5216 34.6129 24.5341 33.9485 25.1547C30.7769 28.0693 27.5113 30.8649 24.0701 33.4473C23.8758 33.5914 23.669 33.7168 23.4433 33.8547C21.2378 32.2448 19.5277 30.0489 18.5073 27.5161C17.4869 24.9833 17.197 22.2152 17.6705 19.526C18.3308 15.7243 20.4602 12.3351 23.5987 10.0903C26.7371 7.84556 30.6326 6.92554 34.4437 7.52899C37.1119 7.94032 39.6137 9.08381 41.6707 10.8322C42.1056 11.3107 42.6032 11.7282 43.15 12.0733Z" fill="#A90909"/>
<path id="Vector_3" d="M46.609 19.5442C46.9569 21.1152 46.9569 22.7432 46.609 24.3142C46.3395 23.2799 46.1013 22.2394 45.7942 21.1801C45.625 20.6348 45.6375 20.2211 46.1577 19.9265C46.3151 19.8075 46.4658 19.6799 46.609 19.5442Z" fill="#F48087"/>
</g>
<defs>
<clipPath id="clip0_6744_61399">
<rect width="62.6803" height="62.6803" fill="white" transform="translate(0.816406 0.42749)"/>
</clipPath>
</defs>
</svg>
