<svg width="63" height="64" viewBox="0 0 63 64" fill="none" xmlns="http://www.w3.org/2000/svg">
<g id="fleet.svg" clip-path="url(#clip0_6744_61428)">
<path id="Vector" d="M-0.591797 59.8789C-0.368066 59.6044 -0.0778104 59.3918 0.251339 59.2612C0.580487 59.1306 0.937576 59.0865 1.28861 59.133C4.00267 59.1706 6.71672 59.133 9.43705 59.133H10.1077C9.80059 57.5033 10.0388 55.9112 9.93222 54.2941C9.54177 54.2207 9.14281 54.2038 8.74756 54.2439C7.77108 54.2439 6.83423 53.8577 6.14141 53.1696C5.44859 52.4815 5.05605 51.5473 5.04943 50.5708C5.04943 49.8751 5.04943 49.1856 5.04943 48.4899C5.04943 46.1143 6.36571 44.6726 8.72249 44.4532C8.88546 44.4532 9.04843 44.4532 9.2114 44.4532H52.3229C52.4859 44.4532 52.6426 44.4532 52.8055 44.4532C55.1623 44.6726 56.4786 46.1205 56.4786 48.4899C56.4786 49.1793 56.4786 49.8751 56.4786 50.5646C56.4811 51.0504 56.3873 51.5319 56.2027 51.9813C56.0182 52.4307 55.7464 52.8391 55.4032 53.1829C55.06 53.5267 54.652 53.7991 54.2029 53.9845C53.7539 54.1698 53.2725 54.2644 52.7867 54.2627H51.6146C51.4892 55.8987 51.7337 57.5158 51.4266 59.158H60.4713C61.399 59.158 61.844 59.4025 62.0446 60.0168C62.2452 60.631 62.0007 61.1011 61.2548 61.6088H0.411087C0.172574 61.5385 -0.0443543 61.4091 -0.219644 61.2327C-0.394935 61.0564 -0.522929 60.8386 -0.591797 60.5997V59.8789ZM30.7483 51.8244H39.2164C43.5623 51.8244 47.906 51.8244 52.2477 51.8244C53.6893 51.8244 54.0278 51.4922 54.0278 50.0757V48.6466C54.0278 47.2551 53.683 46.904 52.3041 46.904H8.86039C8.67694 46.8893 8.49249 46.915 8.32013 46.9796C8.14777 47.0441 7.99174 47.1458 7.86311 47.2774C7.73447 47.409 7.6364 47.5674 7.57585 47.7412C7.5153 47.915 7.49376 48.1 7.51276 48.283C7.51276 48.9098 7.51276 49.5366 7.51276 50.1195C7.51276 51.417 7.88258 51.7931 9.18006 51.7931C16.3758 51.814 23.5652 51.8244 30.7483 51.8244ZM19.6038 59.1079H41.9368C41.6296 57.4845 41.8866 55.8736 41.755 54.2878H19.7793C19.6727 55.9049 19.8984 57.497 19.6038 59.1079ZM12.4144 54.2627C12.4144 55.5163 12.4144 56.7699 12.4144 57.9734C12.4152 58.1273 12.4463 58.2796 12.506 58.4215C12.5656 58.5634 12.6527 58.6921 12.7621 58.8004C12.8715 58.9086 13.0012 58.9943 13.1437 59.0524C13.2862 59.1106 13.4388 59.1401 13.5927 59.1392C14.4264 59.1392 15.2663 59.1392 16.1 59.1392C16.3929 59.1484 16.6783 59.045 16.8974 58.8503C17.1166 58.6556 17.2529 58.3845 17.2783 58.0925C17.3222 56.8389 17.2783 55.5477 17.2783 54.2564L12.4144 54.2627ZM44.2371 54.2627V54.7391C44.2371 55.7984 44.2371 56.8577 44.2371 57.917C44.2286 58.0786 44.2531 58.2402 44.3091 58.392C44.3652 58.5438 44.4515 58.6826 44.563 58.7999C44.6744 58.9172 44.8086 59.0106 44.9574 59.0743C45.1061 59.138 45.2662 59.1708 45.4281 59.1706C46.2638 59.1956 47.0995 59.1956 47.9353 59.1706C48.2322 59.1776 48.5203 59.0692 48.7389 58.8681C48.9575 58.667 49.0896 58.389 49.1074 58.0925C49.1513 56.8389 49.1074 55.5477 49.1074 54.2564L44.2371 54.2627Z" fill="#151616"/>
<path id="Vector_2" d="M52.8072 44.4403C52.6442 44.4403 52.4875 44.4403 52.3246 44.4403H9.22562C9.06265 44.4403 8.89969 44.4403 8.73672 44.4403C8.73672 38.3311 8.73672 32.2198 8.73672 26.1064C8.73672 25.2978 8.73672 24.4892 8.73672 23.6806V11.4204C8.73672 10.2044 8.69911 8.98838 9.36352 7.87267C9.7663 7.10374 10.3703 6.45856 11.111 6.00597C11.8517 5.55337 12.7014 5.31034 13.5694 5.30278C14.823 5.24637 16.0766 5.30278 17.3302 5.30278H47.8868C48.5321 5.30196 49.1713 5.42825 49.7678 5.67445C50.3644 5.92065 50.9066 6.28193 51.3635 6.73766C51.8204 7.1934 52.183 7.73467 52.4308 8.33057C52.6785 8.92646 52.8064 9.56531 52.8072 10.2106C52.8072 10.6181 52.8072 11.0255 52.8072 11.4329V44.4403ZM30.75 31.0142C35.5806 31.0142 40.4132 31.0142 45.248 31.0142C45.7645 31.0454 46.2818 30.9665 46.7655 30.7828C47.2493 30.599 47.6885 30.3147 48.0541 29.9485C48.4197 29.5823 48.7034 29.1426 48.8864 28.6585C49.0693 28.1745 49.1474 27.6571 49.1153 27.1406C49.1153 23.1876 49.1153 19.2303 49.1153 15.2689C49.1419 14.7525 49.0591 14.2363 48.8724 13.754C48.6856 13.2718 48.3992 12.8344 48.0317 12.4705C47.6643 12.1066 47.2242 11.8244 46.7401 11.6424C46.2561 11.4603 45.7391 11.3825 45.2229 11.4141C35.5743 11.4141 25.9299 11.4141 16.2897 11.4141C15.768 11.3808 15.2452 11.4593 14.7562 11.6442C14.2673 11.8292 13.8235 12.1164 13.4544 12.4866C13.0853 12.8569 12.7996 13.3016 12.6162 13.7912C12.4328 14.2807 12.356 14.8038 12.391 15.3254V26.9463C12.391 29.5287 13.864 31.0142 16.4339 31.0142C21.2143 31.0226 25.9863 31.0226 30.75 31.0142Z" fill="#22AE16"/>
<path id="Vector_3" d="M8.72542 23.6818C8.72542 24.4903 8.72542 25.2989 8.72542 26.1075C7.8667 26.1075 7.01425 26.1388 6.15553 26.1075C5.21757 26.088 4.32403 25.7042 3.66416 25.0373C3.0043 24.3704 2.62994 23.4728 2.62037 22.5347C2.59529 20.0275 2.59529 17.5203 2.62037 15.0131C2.63334 14.0646 3.0159 13.1586 3.68666 12.4878C4.35742 11.817 5.26344 11.4345 6.21195 11.4215C7.05186 11.4215 7.88551 11.4215 8.71916 11.4215V13.8535H6.40625C6.22575 13.8385 6.04414 13.8628 5.87393 13.9248C5.70372 13.9867 5.54895 14.0848 5.42028 14.2123C5.29161 14.3397 5.19209 14.4936 5.12858 14.6632C5.06506 14.8328 5.03906 15.0142 5.05236 15.1949C5.05236 17.5767 5.05236 19.9669 5.05236 22.3655C5.03348 22.5443 5.05492 22.7252 5.11512 22.8946C5.17532 23.0641 5.27273 23.218 5.40021 23.3448C5.52768 23.4717 5.68198 23.5684 5.85174 23.6278C6.0215 23.6872 6.20242 23.7078 6.38118 23.688C7.17722 23.688 7.95446 23.6755 8.72542 23.6818Z" fill="#151616"/>
<path id="Vector_4" d="M52.8137 26.1258C52.8137 25.3172 52.8137 24.5086 52.8137 23.7C53.591 23.7 54.3619 23.7 55.1392 23.7C55.3176 23.7171 55.4976 23.694 55.666 23.6326C55.8344 23.5711 55.987 23.4728 56.1126 23.3449C56.2381 23.2169 56.3335 23.0625 56.3917 22.893C56.45 22.7235 56.4696 22.543 56.4492 22.3649C56.4492 19.9789 56.4492 17.595 56.4492 15.2131C56.4612 15.0347 56.4349 14.8557 56.3721 14.6883C56.3092 14.5209 56.2113 14.3688 56.0849 14.2424C55.9584 14.1159 55.8063 14.018 55.6389 13.9551C55.4715 13.8923 55.2925 13.866 55.1141 13.878H52.7949V11.421C53.6098 11.421 54.4246 11.421 55.2395 11.421C55.7238 11.4135 56.2049 11.5022 56.6547 11.6821C57.1045 11.8619 57.5142 12.1292 57.8599 12.4686C58.2057 12.8079 58.4806 13.2125 58.6688 13.6588C58.857 14.1052 58.9548 14.5845 58.9564 15.069C58.9564 17.5386 58.9564 20.0019 58.9564 22.4715C58.9589 22.9505 58.8667 23.4253 58.6851 23.8685C58.5035 24.3117 58.2361 24.7147 57.8983 25.0543C57.5604 25.3939 57.1588 25.6634 56.7165 25.8472C56.2742 26.0311 55.7999 26.1258 55.3209 26.1258C54.4873 26.1258 53.6474 26.1258 52.8137 26.1258Z" fill="#151616"/>
<path id="Vector_5" d="M30.7503 31.0148C25.9824 31.0148 21.2104 31.0148 16.4341 31.0148C13.8642 31.0148 12.3912 29.5293 12.3912 26.9469V15.326C12.3556 14.8004 12.4334 14.2734 12.6193 13.7805C12.8053 13.2877 13.0951 12.8406 13.469 12.4696C13.843 12.0987 14.2923 11.8125 14.7866 11.6304C15.2809 11.4484 15.8086 11.3748 16.3338 11.4147C25.9824 11.4147 35.6268 11.4147 45.267 11.4147C45.7832 11.3831 46.3002 11.4609 46.7843 11.643C47.2683 11.825 47.7084 12.1072 48.0759 12.4711C48.4433 12.835 48.7298 13.2724 48.9165 13.7546C49.1032 14.2369 49.186 14.7531 49.1595 15.2695C49.1595 19.2309 49.1595 23.1882 49.1595 27.1412C49.1915 27.6577 49.1134 28.1751 48.9305 28.6591C48.7475 29.1432 48.4639 29.5829 48.0983 29.9491C47.7327 30.3153 47.2934 30.5996 46.8097 30.7834C46.3259 30.9671 45.8086 31.046 45.2921 31.0148C40.4448 31.0232 35.5976 31.0232 30.7503 31.0148ZM37.3819 28.4512V28.5703H45.1041C46.2887 28.5703 46.6836 28.1691 46.6836 26.997C46.6836 23.161 46.6836 19.325 46.6836 15.4889C46.6836 14.2353 46.3013 13.8592 45.0351 13.8592H16.5156C16.3526 13.8592 16.1897 13.8592 16.0267 13.8592C15.7163 13.8674 15.4214 13.9965 15.2048 14.2189C14.9882 14.4414 14.867 14.7397 14.8671 15.0502C14.8671 19.1495 14.8671 23.2487 14.8671 27.348C14.8469 27.5762 14.903 27.8047 15.0267 27.9975C15.1503 28.1904 15.3345 28.3367 15.5503 28.4136C15.938 28.5631 16.3516 28.634 16.767 28.6221C17.1823 28.6103 17.5912 28.516 17.9698 28.3446C19.0291 27.7743 20.0633 27.1537 21.1038 26.552C23.2161 25.336 25.3285 24.1075 27.447 22.8915C27.7111 22.6926 28.0429 22.6061 28.3705 22.6507C28.698 22.6953 28.9946 22.8674 29.1958 23.1297C29.3054 23.2805 29.3799 23.4539 29.4139 23.6372C29.448 23.8205 29.4407 24.0091 29.3927 24.1892C29.3447 24.3693 29.2571 24.5365 29.1362 24.6785C29.0154 24.8205 28.8645 24.9338 28.6944 25.0101C26.8704 26.0819 25.0339 27.1349 23.1973 28.1942L22.5705 28.5578H22.9466C25.949 28.5578 28.9451 28.5578 31.9412 28.5578C32.205 28.5479 32.4609 28.4655 32.6808 28.3196C35.8149 26.5018 38.9489 24.6904 42.0829 22.8852C42.2208 22.7787 42.3794 22.7021 42.5486 22.6604C42.7178 22.6186 42.8938 22.6126 43.0654 22.6427C43.237 22.6728 43.4005 22.7383 43.5454 22.8351C43.6903 22.9319 43.8134 23.0578 43.9069 23.2049C44.2955 23.8317 44.0761 24.54 43.2801 24.9975C42.2459 25.6243 41.1991 26.201 40.1461 26.8027L37.3819 28.4512Z" fill="#151616"/>
<path id="Vector_6" d="M41.4044 37.7717C41.4366 36.773 41.8542 35.8256 42.5695 35.1279C43.2848 34.4303 44.2423 34.0366 45.2415 34.0293C46.2406 34.022 47.2039 34.4017 47.9293 35.0888C48.6547 35.7759 49.086 36.7172 49.1328 37.7153C49.1573 38.2354 49.0763 38.7552 48.895 39.2434C48.7136 39.7315 48.4356 40.178 48.0774 40.5561C47.7193 40.9342 47.2885 41.236 46.8109 41.4436C46.3333 41.6511 45.8187 41.76 45.2979 41.7638C44.7772 41.7676 44.2611 41.6662 43.7805 41.4657C43.2999 41.2651 42.8647 40.9696 42.5011 40.5968C42.1375 40.224 41.8529 39.7816 41.6645 39.2961C41.476 38.8107 41.3875 38.2922 41.4044 37.7717ZM43.8552 37.7215C43.8518 37.91 43.886 38.0972 43.9556 38.2723C44.0252 38.4474 44.1289 38.6069 44.2607 38.7416C44.3925 38.8764 44.5498 38.9835 44.7233 39.057C44.8969 39.1304 45.0833 39.1686 45.2717 39.1694C45.6408 39.157 45.9914 39.0053 46.253 38.7448C46.5147 38.4843 46.668 38.1344 46.682 37.7654C46.6846 37.577 46.6493 37.3901 46.5784 37.2155C46.5075 37.041 46.4023 36.8824 46.2691 36.7492C46.1359 36.616 45.9773 36.5109 45.8028 36.4399C45.6283 36.369 45.4413 36.3338 45.2529 36.3363C45.0697 36.3338 44.8879 36.3678 44.718 36.4364C44.5481 36.505 44.3936 36.6067 44.2634 36.7357C44.1333 36.8646 44.0302 37.0182 43.9601 37.1875C43.89 37.3568 43.8543 37.5383 43.8552 37.7215Z" fill="#151616"/>
<path id="Vector_7" d="M20.1371 37.7473C20.1371 38.5116 19.9106 39.2588 19.4862 39.8946C19.0618 40.5303 18.4585 41.026 17.7526 41.319C17.0466 41.6121 16.2697 41.6894 15.5198 41.5412C14.77 41.393 14.0809 41.0259 13.5395 40.4863C12.9981 39.9467 12.6288 39.2588 12.4782 38.5094C12.3276 37.76 12.4024 36.9828 12.6931 36.2759C12.9839 35.5691 13.4777 34.9642 14.112 34.5377C14.7463 34.1113 15.4928 33.8824 16.2572 33.8799C16.7659 33.8791 17.2698 33.9784 17.74 34.1724C18.2103 34.3663 18.6378 34.6509 18.9981 35.01C19.3584 35.3691 19.6444 35.7957 19.8398 36.2654C20.0353 36.735 20.1363 37.2386 20.1371 37.7473ZM16.2509 36.337C15.8812 36.3419 15.5283 36.4918 15.268 36.7544C15.0078 37.017 14.861 37.3713 14.8594 37.741C14.866 38.1256 15.0247 38.4919 15.3008 38.7597C15.5768 39.0276 15.9478 39.1751 16.3324 39.1701C16.5204 39.1645 16.7054 39.1216 16.8767 39.044C17.048 38.9664 17.2022 38.8557 17.3304 38.7181C17.4587 38.5805 17.5584 38.4189 17.6237 38.2426C17.6891 38.0663 17.7189 37.8788 17.7114 37.6908C17.7066 37.5054 17.6647 37.3227 17.5883 37.1536C17.5119 36.9845 17.4024 36.8324 17.2663 36.7063C17.1303 36.5801 16.9703 36.4824 16.7959 36.419C16.6215 36.3556 16.4362 36.3277 16.2509 36.337Z" fill="#151616"/>
<path id="Vector_8" d="M30.8237 33.8737C32.9673 33.8737 35.1047 33.8737 37.2484 33.8737C37.4162 33.8508 37.587 33.8633 37.7497 33.9106C37.9123 33.9579 38.0632 34.0388 38.1926 34.1481C38.322 34.2575 38.427 34.3927 38.5008 34.5452C38.5747 34.6977 38.6156 34.8639 38.6211 35.0332C38.6446 35.3238 38.5596 35.6128 38.3825 35.8443C38.2053 36.0759 37.9487 36.2335 37.6621 36.2869C37.4806 36.3245 37.2958 36.3434 37.1105 36.3433H24.4428C23.5841 36.3433 23.0701 35.9923 22.9385 35.378C22.902 35.188 22.91 34.9922 22.9619 34.8058C23.0137 34.6195 23.1079 34.4477 23.2372 34.3038C23.3665 34.1599 23.5274 34.0479 23.7072 33.9766C23.8869 33.9052 24.0808 33.8764 24.2736 33.8925C26.154 33.8925 27.9905 33.8925 29.8458 33.8925L30.8237 33.8737Z" fill="#151616"/>
<path id="Vector_9" d="M30.8061 39.1762H37.1556C38.0895 39.1762 38.6035 39.6087 38.6223 40.3608C38.6411 41.113 38.0958 41.6144 37.1556 41.6144H24.3876C24.1119 41.6497 23.8321 41.5972 23.588 41.4645C23.3438 41.3317 23.1477 41.1254 23.0274 40.8748C22.9281 40.6642 22.8941 40.4286 22.9298 40.1985C22.9656 39.9683 23.0694 39.7542 23.228 39.5836C23.3677 39.4345 23.5399 39.3196 23.7313 39.2478C23.9226 39.1761 24.1279 39.1494 24.3312 39.1699L30.8061 39.1762Z" fill="#151616"/>
</g>
<defs>
<clipPath id="clip0_6744_61428">
<rect width="62.6803" height="62.6803" fill="white" transform="translate(0.0351562 0.42749)"/>
</clipPath>
</defs>
</svg>
