<svg width="63" height="64" viewBox="0 0 63 64" fill="none" xmlns="http://www.w3.org/2000/svg">
<g id="warehouse.svg" clip-path="url(#clip0_6744_61379)">
<path id="Vector" d="M0.0351563 58.2649C0.661959 57.6381 0.661959 57.6381 3.16917 57.5127C3.3196 57.2934 3.24439 57.0427 3.24439 56.8107C3.24439 44.6925 3.24439 32.5744 3.24439 20.4562C3.22847 20.1373 3.2806 19.8187 3.39732 19.5215C3.51404 19.2243 3.69266 18.9553 3.92133 18.7325C7.30189 15.3895 10.6657 12.0299 14.0129 8.65348C14.3681 8.29099 14.8174 8.03484 15.3103 7.91386C20.4 6.55996 25.4896 5.19144 30.5793 3.8083C31.1057 3.65798 31.6637 3.65798 32.1901 3.8083C37.3007 5.19562 42.4091 6.56832 47.5155 7.92639C47.9712 8.03957 48.386 8.27847 48.7127 8.61588C52.1099 12.0257 55.5239 15.4292 58.9546 18.8265C59.1605 19.0206 59.3228 19.2562 59.4308 19.5176C59.5389 19.7791 59.5902 20.0606 59.5814 20.3434C59.5814 32.5033 59.5814 44.6633 59.5814 56.8233V57.5441C60.2082 57.5441 60.835 57.5441 61.3929 57.5441C62.2453 57.5441 62.7656 58.0393 62.7593 58.7977C62.753 59.5561 62.2391 60.0074 61.3741 60.0074H52.8182C35.8277 60.0074 18.833 60.0074 1.83408 60.0074C1.4936 60.0477 1.1485 59.9983 0.832975 59.8642C0.517446 59.7301 0.242427 59.5158 0.0351562 59.2427L0.0351563 58.2649ZM50.9691 57.5441H57.0742C57.0742 57.4313 57.0742 57.3686 57.0742 57.3122C57.0742 45.1689 57.0742 33.0298 57.0742 20.8949C57.077 20.7651 57.0515 20.6362 56.9996 20.5171C56.9476 20.3981 56.8704 20.2917 56.7733 20.2055C53.5934 17.0004 50.4134 13.8016 47.2334 10.6091C47.0358 10.4048 46.7868 10.2575 46.5126 10.1829L31.8266 6.25283C31.5334 6.17133 31.2235 6.17133 30.9303 6.25283L16.332 10.1766C16.0165 10.2534 15.7294 10.4186 15.5046 10.653C12.3665 13.8037 9.2199 16.9377 6.065 20.055C5.93156 20.1815 5.82758 20.3358 5.76042 20.5069C5.69326 20.6781 5.66457 20.8619 5.67638 21.0454C5.67638 33.0006 5.67638 44.9579 5.67638 56.9173C5.67638 57.1116 5.60743 57.3184 5.73906 57.5441H16.0688V37.1479C16.0688 35.8943 16.4574 35.4932 17.6985 35.4932H45.0521C46.3057 35.4932 46.6818 35.8818 46.6818 37.1479C46.6818 43.7126 46.6818 50.2794 46.6818 56.8483C46.6312 57.0823 46.6576 57.3264 46.757 57.5441H50.9691ZM44.2185 37.9753H18.5572V40.9652H44.2185V37.9753ZM18.5196 46.4748H44.1934V43.4849H18.5384L18.5196 46.4748ZM44.2185 48.982H18.5572V51.9718H44.2185V48.982ZM18.5196 57.4751H44.1934V54.5104H18.5384L18.5196 57.4751Z" fill="#151616"/>
<path id="Vector_2" d="M11.7871 57.5439V31.2621H50.9685V57.5439H46.7564C46.6657 57.3348 46.6417 57.1028 46.6875 56.8795C46.6875 50.3106 46.6875 43.7438 46.6875 37.1791C46.6875 35.9255 46.3051 35.5243 45.0578 35.5243H17.6979C16.4443 35.5243 16.0682 35.913 16.0682 37.1791V57.5439H11.7871Z" fill="#A90909"/>
<path id="Vector_3" d="M38.6846 15.9552V23.2073H24.0801V15.9552H38.6846Z" fill="#A90909"/>
</g>
<defs>
<clipPath id="clip0_6744_61379">
<rect width="62.6803" height="62.6803" fill="white" transform="translate(0.0351562 0.504639)"/>
</clipPath>
</defs>
</svg>
