<svg width="64" height="64" viewBox="0 0 64 64" fill="none" xmlns="http://www.w3.org/2000/svg">
<g id="operational-analytics.svg" clip-path="url(#clip0_6744_61356)">
<path id="Vector" d="M0.816406 29.275C1.01673 28.6027 1.13047 27.9076 1.15488 27.2066C2.10124 20.9295 4.92853 15.0868 9.26365 10.4495C13.5988 5.81227 19.238 2.59835 25.4372 1.23185C27.57 0.773705 29.7433 0.530128 31.9246 0.504761C32.9212 0.504761 33.4101 0.962327 33.4101 1.96521V6.35283C33.4101 7.41839 33.0027 7.83208 31.9372 7.85716C26.1908 7.89861 20.6562 10.0309 16.3674 13.8557C11.9196 17.6633 9.08343 23.0176 8.43206 28.8362C7.7357 34.2011 8.88052 39.6434 11.6792 44.273C14.478 48.9027 18.7649 52.4455 23.8389 54.322C34.8831 58.5467 47.8391 53.5887 53.3362 43.0396C55.0924 39.6895 56.0472 35.9776 56.1255 32.1959C56.1255 30.9423 56.5204 30.6038 57.7489 30.6038H62.0362C63.0391 30.6038 63.5217 31.0677 63.4904 32.0643C63.1833 43.1273 58.4822 51.771 49.3936 57.9951C45.0415 60.9577 39.979 62.7079 34.7264 63.0659C34.6324 63.0659 34.5196 63.0659 34.482 63.1788H29.5866C29.5302 63.0221 29.3923 63.0659 29.2795 63.0534C28.2265 62.9468 27.1797 62.7901 26.1455 62.5958C19.7936 61.3562 13.9813 58.1806 9.50663 53.5051C5.032 48.8295 2.11453 42.8834 1.15488 36.4832C1.13306 35.7819 1.01926 35.0865 0.816406 34.4148L0.816406 29.275ZM58.57 33.0985C58.0748 40.6201 55.1038 46.8882 49.4061 51.8336C46.7177 54.2154 43.5579 56.0045 40.1324 57.0844C36.7068 58.1643 33.0923 58.5109 29.524 58.1017C23.2256 57.491 17.358 54.6321 12.9953 50.0485C8.63271 45.4649 6.06706 39.4632 5.76815 33.1424C5.3928 27.1194 7.17001 21.1591 10.7826 16.3253C15.7719 9.58086 22.5414 6.02689 30.9029 5.42516V3.01197C25.3039 3.25321 19.8961 5.11882 15.3394 8.38119C10.7826 11.6436 7.27381 16.1616 5.24113 21.3842C3.20845 26.6068 2.73974 32.3081 3.89217 37.7926C5.0446 43.277 7.76836 48.3075 11.7311 52.2703C15.6939 56.2331 20.7244 58.9568 26.2088 60.1093C31.6933 61.2617 37.3946 60.793 42.6172 58.7603C47.8398 56.7276 52.3579 53.2189 55.6202 48.6621C58.8826 44.1053 60.7482 38.6975 60.9895 33.0985H58.57Z" fill="#151616"/>
<path id="Vector_2" d="M33.3412 10.5331V17.7852C31.1691 17.5743 28.978 17.882 26.9479 18.6829C24.9179 19.4838 23.1069 20.7551 21.6639 22.3922C20.2977 23.8471 19.2701 25.586 18.6547 27.4845C18.0392 29.383 17.851 31.3941 18.1036 33.3738C18.4953 36.7203 20.0578 39.8206 22.5149 42.1262C24.9719 44.4318 28.1651 45.7942 31.5298 45.9725C38.7568 46.405 47.0995 39.9678 46.2534 30.6785H53.5055C54.3266 37.2913 50.5971 46.148 42.8122 50.5294C38.6155 52.9492 33.7185 53.8638 28.9313 53.1217C24.1441 52.3797 19.7537 50.0256 16.4865 46.4489C13.197 43.0063 11.1612 38.5573 10.7064 33.8175C10.2516 29.0777 11.4044 24.3228 13.9793 20.3175C18.9248 12.5075 27.888 9.72453 33.3412 10.5331Z" fill="#FFBC0A"/>
<path id="Vector_3" d="M49.9568 21.4149H38.1479C36.8566 21.4149 36.4492 21.0137 36.4492 19.7539V2.12818C36.4492 0.918451 36.8566 0.504761 38.0664 0.504761H61.9225C63.0883 0.504761 63.4958 0.924719 63.4958 2.10311V19.7852C63.4958 20.9887 63.0821 21.4086 61.8849 21.4086L49.9568 21.4149ZM61.0011 18.9077V3.01197H38.9376V18.9202L61.0011 18.9077Z" fill="#151616"/>
<path id="Vector_4" d="M49.9449 15.2536C47.9705 15.2536 45.9898 15.2536 44.0153 15.2536C42.9748 15.2536 42.348 14.4388 42.6928 13.5801C42.7939 13.32 42.9789 13.1011 43.2184 12.9581C43.458 12.815 43.7384 12.756 44.0153 12.7903H55.5673C55.7115 12.7903 55.8556 12.7903 55.9998 12.7903C56.1727 12.7764 56.3465 12.7985 56.5104 12.8553C56.6743 12.9121 56.8246 13.0022 56.9518 13.12C57.0791 13.2378 57.1805 13.3808 57.2496 13.5398C57.3188 13.6988 57.3543 13.8705 57.3537 14.0439C57.3477 14.2154 57.3066 14.3838 57.2329 14.5387C57.1591 14.6936 57.0544 14.8318 56.9251 14.9446C56.7959 15.0574 56.6448 15.1425 56.4813 15.1946C56.3179 15.2466 56.1454 15.2646 55.9747 15.2473C53.9815 15.2662 51.9632 15.2536 49.9449 15.2536Z" fill="#151616"/>
<path id="Vector_5" d="M49.9062 9.10527H44.0958C43.1618 9.10527 42.5914 8.6289 42.5977 7.85166C42.604 7.07443 43.1869 6.6482 44.1146 6.6482H55.9173C56.1679 6.62765 56.4191 6.67931 56.6412 6.79705C56.8634 6.91479 57.0472 7.0937 57.1709 7.31261C57.2816 7.50625 57.3334 7.72797 57.3201 7.95062C57.3067 8.17328 57.2287 8.3872 57.0957 8.56622C56.9665 8.75056 56.7901 8.89673 56.5849 8.98938C56.3798 9.08202 56.1535 9.11772 55.9298 9.09273L49.9062 9.10527Z" fill="#151616"/>
<path id="Vector_6" d="M35.7918 37.9434C35.2798 38.2617 34.7246 38.5045 34.1433 38.6643C34.1056 38.6681 34.069 38.6795 34.0358 38.6978C34.0026 38.7161 33.9734 38.741 33.95 38.7708C33.9266 38.8006 33.9094 38.8349 33.8996 38.8715C33.8897 38.9081 33.8873 38.9464 33.8926 38.9839C33.8926 39.6107 33.6983 39.7549 33.1091 39.7549H31.097C30.6144 39.7549 30.4076 39.5731 30.4201 39.0905C30.4201 38.7959 30.3198 38.6831 30.0503 38.6141C29.5221 38.4821 29.017 38.2708 28.5522 37.9873C28.3893 38.0249 28.314 38.1754 28.2012 38.2756C28.1507 38.3309 28.0892 38.3751 28.0207 38.4053C27.9522 38.4356 27.8781 38.4512 27.8032 38.4512C27.7283 38.4512 27.6542 38.4356 27.5857 38.4053C27.5172 38.3751 27.4557 38.3309 27.4052 38.2756C26.8724 37.7491 26.3459 37.2226 25.8194 36.6898C25.4934 36.3639 25.4809 36.063 25.8194 35.7684C25.867 35.7371 25.9073 35.6958 25.9375 35.6474C25.9676 35.599 25.987 35.5446 25.9941 35.488C26.0013 35.4314 25.9961 35.374 25.9789 35.3196C25.9617 35.2652 25.9329 35.2152 25.8946 35.173C25.6488 34.7636 25.465 34.32 25.3493 33.8567C25.3463 33.8186 25.3355 33.7816 25.3174 33.7479C25.2994 33.7142 25.2746 33.6847 25.2445 33.6611C25.2145 33.6375 25.1798 33.6205 25.1428 33.611C25.1058 33.6015 25.0673 33.5998 25.0296 33.606C24.4028 33.606 24.2461 33.4117 24.2461 32.7974V30.8543C24.2461 30.3591 24.4592 30.1209 24.9481 30.1335C24.9964 30.1415 25.0458 30.1396 25.0933 30.128C25.1409 30.1165 25.1856 30.0954 25.2248 30.0662C25.264 30.0369 25.2969 30 25.3215 29.9577C25.3461 29.9154 25.362 29.8686 25.3681 29.8201C25.5184 29.2733 25.7441 28.7501 26.0387 28.2656C26.0387 28.1277 25.8946 28.065 25.8131 27.9773C25.7464 27.9185 25.693 27.8461 25.6564 27.7651C25.6198 27.684 25.6009 27.5961 25.6009 27.5072C25.6009 27.4182 25.6198 27.3303 25.6564 27.2493C25.693 27.1682 25.7464 27.0959 25.8131 27.0371C26.3271 26.4918 26.8536 25.9652 27.3989 25.445C27.6935 25.1629 28.0257 25.1943 28.3328 25.5202C28.3609 25.5607 28.3968 25.5951 28.4385 25.6212C28.4803 25.6474 28.5269 25.6648 28.5755 25.6725C28.6242 25.6801 28.6738 25.6777 28.7216 25.6656C28.7693 25.6534 28.814 25.6317 28.8531 25.6017C29.2558 25.3604 29.6905 25.1768 30.1443 25.0564C30.1904 25.0527 30.2353 25.0394 30.276 25.0174C30.3167 24.9954 30.3523 24.9652 30.3807 24.9286C30.409 24.892 30.4293 24.8499 30.4405 24.805C30.4516 24.7601 30.4532 24.7133 30.4452 24.6678C30.4452 24.1287 30.6144 23.9657 31.1409 23.9595H33.2846C33.7234 23.9595 33.9114 24.135 33.9114 24.5863C33.9007 24.6425 33.9017 24.7004 33.9146 24.7562C33.9274 24.8121 33.9516 24.8646 33.9858 24.9106C34.02 24.9565 34.0633 24.9949 34.1131 25.0232C34.1629 25.0516 34.218 25.0693 34.2749 25.0752C34.7142 25.1946 35.1357 25.3716 35.5285 25.6017C35.5625 25.629 35.6015 25.6493 35.6434 25.6613C35.6853 25.6732 35.7291 25.6767 35.7724 25.6714C35.8156 25.6662 35.8574 25.6523 35.8951 25.6306C35.9329 25.609 35.966 25.5799 35.9924 25.5453C36.3935 25.1441 36.6819 25.1567 37.0767 25.5453L38.3303 26.7989C38.8631 27.3254 38.8631 27.5385 38.3303 28.0525L38.2301 28.1716C38.5437 28.7068 38.7881 29.2797 38.9572 29.8765C39.0136 30.0708 39.1452 30.0645 39.2956 30.0645C39.8347 30.0645 40.0353 30.2839 40.0353 30.823V32.8287C40.0353 33.3239 39.8159 33.5558 39.3207 33.5433C39.0888 33.5433 38.9697 33.5934 38.9133 33.8442C38.794 34.3202 38.6016 34.7748 38.3429 35.1918C38.3155 35.2256 38.2954 35.2648 38.284 35.3068C38.2726 35.3488 38.27 35.3927 38.2765 35.4358C38.283 35.4788 38.2984 35.52 38.3217 35.5568C38.345 35.5936 38.3757 35.6251 38.4118 35.6493C38.8193 36.0505 38.813 36.2761 38.4118 36.6961L36.989 38.1127C36.6129 38.4888 36.3622 38.4888 36.0049 38.1127L35.7918 37.9434ZM32.1563 29.024C31.5985 29.024 31.0531 29.1895 30.5893 29.4994C30.1254 29.8093 29.7639 30.2498 29.5504 30.7652C29.337 31.2806 29.2811 31.8478 29.3899 32.3949C29.4988 32.9421 29.7674 33.4447 30.1619 33.8391C30.5563 34.2336 31.0589 34.5022 31.6061 34.6111C32.1532 34.7199 32.7203 34.664 33.2357 34.4506C33.7511 34.2371 34.1917 33.8755 34.5016 33.4117C34.8115 32.9479 34.977 32.4025 34.977 31.8447C34.9737 31.0976 34.6754 30.3821 34.1472 29.8538C33.6189 29.3256 32.9034 29.0273 32.1563 29.024Z" fill="#FFBC0A"/>
</g>
<defs>
<clipPath id="clip0_6744_61356">
<rect width="62.6803" height="62.6803" fill="white" transform="translate(0.816406 0.504639)"/>
</clipPath>
</defs>
</svg>
