<svg width="46" height="46" viewBox="0 0 46 46" fill="none" xmlns="http://www.w3.org/2000/svg">
<g id="logistics-1.svg" clip-path="url(#clip0_6744_61105)">
<path id="Vector" d="M3.30553 8.13853H0.65625V0.27124H8.49222V2.87577H5.31487L10.6358 8.19671L8.7115 10.1479L3.34133 4.7777L3.30553 8.13853ZM8.6757 35.0744L3.27421 40.4893V37.1553H0.65625V45.0226H8.52354V42.3868H5.18509C7.03332 40.5475 8.82785 38.7574 10.6 36.9674L8.6757 35.0744ZM42.7673 37.1911V40.5162L37.3524 35.1012L35.4549 37.0032L40.8564 42.4047H37.5403V45.0226H45.4076V37.1911H42.7673ZM37.2137 31.2168C32.5953 33.8572 27.9829 36.5199 23.3765 39.2049C23.2777 39.2747 23.1596 39.3121 23.0387 39.3121C22.9177 39.3121 22.7996 39.2747 22.7008 39.2049C18.0824 36.5199 13.4581 33.8497 8.82785 31.1944C8.7253 31.1465 8.64036 31.0676 8.58497 30.9689C8.52959 30.8701 8.50654 30.7565 8.51907 30.644C8.51907 27.9589 8.51907 25.2738 8.51907 22.5888C8.51907 19.935 8.51907 17.2857 8.51907 14.632C8.5083 14.5128 8.53482 14.3933 8.59495 14.2899C8.65507 14.1864 8.74584 14.1043 8.8547 14.0547C13.473 11.4293 18.0854 8.774 22.6918 6.08892C22.7898 6.01894 22.9071 5.98132 23.0275 5.98132C23.1478 5.98132 23.2652 6.01894 23.3631 6.08892C27.9844 8.774 32.6087 11.4442 37.236 14.0994C37.3377 14.1494 37.4215 14.2295 37.4759 14.3288C37.5304 14.4281 37.5529 14.5418 37.5403 14.6543C37.5403 19.9857 37.5403 25.3171 37.5403 30.6485C37.5499 30.7652 37.5238 30.882 37.4655 30.9835C37.4071 31.085 37.3193 31.1664 37.2137 31.2168ZM15.1557 20.7763C15.1557 19.8813 14.9051 19.3622 14.0951 18.9863C13.1061 18.5119 12.1797 17.9033 11.1818 17.326C11.167 17.3803 11.1565 17.4356 11.1504 17.4916C11.1504 21.4073 11.1504 25.3231 11.1504 29.2388C11.1624 29.3241 11.1925 29.4058 11.2389 29.4784C11.2852 29.551 11.3466 29.6127 11.419 29.6595C12.5422 30.3307 13.6789 30.9796 14.8156 31.633C14.9145 31.6794 15.0161 31.7198 15.1199 31.7538V31.1721C15.1288 27.7083 15.0886 24.2401 15.1557 20.7763ZM16.7667 17.1515C18.5568 16.1132 20.3469 15.081 22.1369 14.0547L27.0596 11.2219C25.7976 10.4925 24.5982 9.81223 23.4168 9.10516C23.3196 9.03556 23.203 8.99814 23.0834 8.99814C22.9638 8.99814 22.8472 9.03556 22.75 9.10516C19.4563 11.0026 16.179 12.8911 12.9181 14.7707C12.7883 14.8468 12.6675 14.9318 12.493 15.0437C13.7416 15.7642 14.9364 16.4489 16.1223 17.1515C16.215 17.2219 16.3282 17.26 16.4445 17.26C16.5609 17.26 16.6741 17.2219 16.7667 17.1515ZM21.7207 33.8348C21.7207 30.4829 21.7207 27.1221 21.7207 23.7881C21.725 23.701 21.7114 23.6139 21.6806 23.5323C21.6498 23.4507 21.6025 23.3763 21.5417 23.3137C20.32 22.5843 19.0849 21.8817 17.7916 21.1343C17.7755 21.2426 17.765 21.3517 17.7602 21.461C17.7602 25.3037 17.7602 29.1478 17.7602 32.9935C17.7537 33.0998 17.7803 33.2056 17.8364 33.2961C17.8925 33.3867 17.9753 33.4576 18.0735 33.4991C19.1878 34.1301 20.3111 34.7746 21.3985 35.4145C21.497 35.4682 21.5999 35.5085 21.7386 35.5756L21.7207 33.8348ZM23.4258 20.9195C26.6702 19.031 29.9281 17.1604 33.1771 15.2809C33.2979 15.2137 33.4143 15.1287 33.5798 15.0213C32.3492 14.3097 31.1633 13.634 29.9997 12.9404C29.898 12.8651 29.7749 12.8245 29.6484 12.8245C29.522 12.8245 29.3988 12.8651 29.2971 12.9404C27.252 14.1397 25.1934 15.3211 23.1393 16.5205C21.7968 17.2947 20.4543 18.0599 19.0759 18.8654C20.3155 19.5815 21.4925 20.2438 22.656 20.9419C22.7716 21.017 22.9074 21.0547 23.0451 21.0499C23.1828 21.045 23.3157 20.998 23.4258 20.9151V20.9195ZM34.9224 29.118C34.9224 25.332 34.9224 21.546 34.9224 17.7601V17.3126L34.6046 17.4692C31.2781 19.3995 27.9501 21.3223 24.6206 23.2376C24.5256 23.2842 24.4474 23.3592 24.3969 23.4522C24.3464 23.5453 24.326 23.6517 24.3387 23.7568C24.3387 27.5845 24.3387 31.4122 24.3387 35.24C24.3447 35.3509 24.3566 35.4615 24.3745 35.5711C24.4437 35.5428 24.511 35.5099 24.5759 35.4727C27.9233 33.5394 31.2737 31.6002 34.627 29.655C34.7247 29.6058 34.8053 29.5282 34.858 29.4323C34.9107 29.3364 34.9332 29.2269 34.9224 29.118ZM37.4598 10.2553L42.7986 4.91643V8.11168H45.3763V0.307041H37.5672V2.89367H40.9325L35.4997 8.29964L37.4598 10.2553Z" fill="url(#paint0_linear_6744_61105)"/>
</g>
<defs>
<linearGradient id="paint0_linear_6744_61105" x1="37.0097" y1="0.271229" x2="-2.26664" y2="10.2161" gradientUnits="userSpaceOnUse">
<stop stop-color="#AC2121"/>
<stop offset="1" stop-color="#E9000E"/>
</linearGradient>
<clipPath id="clip0_6744_61105">
<rect width="44.7514" height="44.7514" fill="white" transform="translate(0.65625 0.270996)"/>
</clipPath>
</defs>
</svg>
