<svg width="46" height="46" viewBox="0 0 46 46" fill="none" xmlns="http://www.w3.org/2000/svg">
<g id="enterprise.svg" clip-path="url(#clip0_6744_61147)">
<g id="Group">
<g id="Group_2">
<path id="Vector" d="M40.5026 21.7014L24.3026 13.2882V2.05556C24.3026 1.56329 24.0341 1.16053 23.6313 0.936776C23.2286 0.713019 22.7363 0.713019 22.3336 0.981527L5.41753 11.4981C5.01477 11.7219 4.79102 12.1694 4.79102 12.6169V44.1219C4.79102 44.8379 5.37278 45.4196 6.08881 45.4196H23.0048H39.9208C40.6369 45.4196 41.2186 44.8379 41.2186 44.1219V22.865C41.2186 22.3727 40.9501 21.9252 40.5026 21.7014ZM7.3866 39.8705H18.6639V37.2749H7.3866V34.3213H18.6639V31.7257H7.3866V28.7721H18.6639V26.1766H7.3866V23.223H18.6639V20.6274H7.3866V17.6738H18.6639V15.0782H7.3866V13.2882L21.707 4.38263V14.0489V42.7793H7.3866V39.8705ZM38.6231 42.8241H24.3026V39.8705H35.58V37.2749H24.3026V34.3213H35.58V31.7257H24.3026V28.7721H35.58V26.1766H24.3026V16.197L38.6231 23.6257V42.8241Z" fill="url(#paint0_linear_6744_61147)"/>
</g>
</g>
</g>
<defs>
<linearGradient id="paint0_linear_6744_61147" x1="34.3827" y1="0.774158" x2="1.75469" y2="7.515" gradientUnits="userSpaceOnUse">
<stop stop-color="#AC2121"/>
<stop offset="1" stop-color="#E9000E"/>
</linearGradient>
<clipPath id="clip0_6744_61147">
<rect width="44.7514" height="44.7514" fill="white" transform="translate(0.628906 0.712402)"/>
</clipPath>
</defs>
</svg>
