<svg width="46" height="46" viewBox="0 0 46 46" fill="none" xmlns="http://www.w3.org/2000/svg">
<g id="express-parcel.svg" clip-path="url(#clip0_6744_61123)">
<path id="Vector" d="M13.0071 6.59009V38.9632H45.3803V6.59009H13.0071ZM26.6429 9.05141H31.6729V17.8674H26.6429V9.05141ZM42.919 36.493H15.4729V9.05589H24.1816V20.3198H34.1298V9.04694H42.919V36.493ZM29.8471 35.2175H41.6301V29.0866H29.8471V35.2175ZM32.3039 31.5345H39.1956V32.7786H32.3039V31.5345ZM16.7394 32.8054H19.156V35.222H16.7394V32.8054ZM20.4538 32.8054H22.8614V35.222H20.4717L20.4538 32.8054ZM24.1771 32.8054H26.5937V35.2131H24.1771V32.8054ZM0.628906 16.1042H10.7069V18.6998H0.628906V16.1042ZM2.0878 21.4744H10.7069V24.07H2.0878V21.4744ZM3.69438 26.8446H10.7069V29.4401H3.69438V26.8446Z" fill="url(#paint0_linear_6744_61123)"/>
</g>
<defs>
<linearGradient id="paint0_linear_6744_61123" x1="36.9824" y1="6.59008" x2="-0.250553" y2="19.6223" gradientUnits="userSpaceOnUse">
<stop stop-color="#AC2121"/>
<stop offset="1" stop-color="#E9000E"/>
</linearGradient>
<clipPath id="clip0_6744_61123">
<rect width="44.7514" height="44.7514" fill="white" transform="translate(0.628906 0.270996)"/>
</clipPath>
</defs>
</svg>
