<svg width="46" height="46" viewBox="0 0 46 46" fill="none" xmlns="http://www.w3.org/2000/svg">
<g id="carrier.svg" clip-path="url(#clip0_6744_61114)">
<path id="Vector" d="M45.3998 21.5368C45.4271 20.6422 45.271 19.7515 44.941 18.9195C44.611 18.0875 44.1142 17.332 43.4811 16.6993C42.848 16.0666 42.0921 15.5703 41.2599 15.2409C40.4278 14.9114 39.5369 14.7559 38.6424 14.7838H29.4773V6.9165H0.648438V35.7677C2.33556 35.7677 4.02717 35.7677 5.71429 35.7677C5.83181 35.7518 5.95123 35.7769 6.05234 35.8389C6.15346 35.9009 6.23007 35.9959 6.26921 36.1078C6.56462 36.7974 7.05957 37.3828 7.6904 37.7887C8.32123 38.1946 9.05908 38.4025 9.80905 38.3857C10.5658 38.4079 11.3118 38.2021 11.9501 37.7952C12.5885 37.3882 13.0899 36.7988 13.3892 36.1034C13.4218 35.9968 13.4907 35.9049 13.5838 35.8437C13.6769 35.7824 13.7885 35.7555 13.8993 35.7677C19.9855 35.7677 26.0717 35.7677 32.1579 35.7677C32.262 35.7531 32.3679 35.7755 32.4571 35.8312C32.5463 35.8868 32.6131 35.9721 32.6457 36.072C32.9516 36.7649 33.4518 37.3542 34.0856 37.7689C34.7194 38.1835 35.4597 38.4057 36.2171 38.4085C36.9745 38.4114 37.7164 38.1948 38.3533 37.7849C38.9902 37.375 39.4947 36.7894 39.8059 36.0989C39.841 35.9932 39.9112 35.9028 40.0048 35.8426C40.0984 35.7823 40.2098 35.7559 40.3205 35.7677C41.8645 35.7677 43.4084 35.7677 44.9523 35.7677H45.3998V21.5368ZM9.80905 35.7632C9.55249 35.757 9.30339 35.6757 9.09263 35.5293C8.88187 35.3828 8.71871 35.1778 8.62337 34.9395C8.52803 34.7012 8.50472 34.4402 8.5563 34.1888C8.60789 33.9374 8.73212 33.7067 8.91359 33.5252C9.09505 33.3438 9.32578 33.2195 9.57718 33.168C9.82857 33.1164 10.0896 33.1397 10.3278 33.235C10.5661 33.3304 10.7712 33.4935 10.9176 33.7043C11.064 33.915 11.1454 34.1641 11.1516 34.4207C11.1516 34.7768 11.0101 35.1182 10.7584 35.37C10.5066 35.6218 10.1651 35.7632 9.80905 35.7632ZM26.8369 33.1453H26.3894C22.2544 33.1453 18.1194 33.1453 13.9843 33.1453C13.8533 33.1629 13.7202 33.1346 13.6077 33.0653C13.4951 32.996 13.41 32.8898 13.3668 32.7649C13.0647 32.0749 12.5613 31.4921 11.9225 31.0929C11.2837 30.6936 10.5393 30.4965 9.78667 30.5273C9.0454 30.5107 8.31587 30.7145 7.6905 31.1128C7.06512 31.5111 6.57203 32.0861 6.27369 32.7649C6.23023 32.8903 6.14423 32.9966 6.03061 33.0653C5.91698 33.1339 5.78291 33.1607 5.65164 33.1408C4.87297 33.1408 4.08982 33.1408 3.27982 33.1408V9.56131H26.8369V33.1453ZM36.2347 35.7632C35.9758 35.7676 35.7215 35.6952 35.5037 35.5552C35.2859 35.4151 35.1144 35.2138 35.0109 34.9764C34.9074 34.7391 34.8764 34.4764 34.922 34.2215C34.9675 33.9666 35.0875 33.7309 35.2668 33.5442C35.4462 33.3574 35.6768 33.2279 35.9296 33.1719C36.1824 33.116 36.4461 33.1362 36.6875 33.23C36.9288 33.3237 37.137 33.4868 37.2858 33.6987C37.4346 33.9106 37.5174 34.1618 37.5236 34.4207C37.524 34.7662 37.3911 35.0985 37.1528 35.3485C36.9144 35.5986 36.5888 35.7471 36.2437 35.7632H36.2347ZM42.7416 33.1408C41.8466 33.1408 40.9515 33.1408 40.0565 33.1408C39.967 33.1408 39.8506 33.0066 39.8014 32.9081C39.5105 32.1933 39.0085 31.5842 38.3624 31.162C37.7164 30.7398 36.957 30.5247 36.1855 30.5452C34.4984 30.5452 33.299 31.4 32.5696 32.9215C32.5378 32.9779 32.4941 33.0267 32.4415 33.0646C32.389 33.1025 32.3289 33.1285 32.2653 33.1408C31.3703 33.1408 30.435 33.1408 29.4907 33.1408V17.4286H32.2474V25.2601H42.7192L42.7416 33.1408ZM42.7416 22.6198H34.928V17.4062C35.4471 17.4062 35.9528 17.4062 36.454 17.4062C37.4857 17.3777 38.5181 17.4075 39.5463 17.4957C40.4021 17.631 41.1864 18.0534 41.7703 18.6934C42.3542 19.3335 42.7031 20.1531 42.7595 21.0177C42.7998 21.5413 42.764 22.0693 42.764 22.6198H42.7416ZM8.49336 27.8646H5.92463V14.8062H8.49336V27.8646ZM13.7293 27.8646H11.1605V14.8062H13.7293V27.8646ZM18.9831 27.8646H16.4099V14.8062H18.9965L18.9831 27.8646ZM24.2235 27.8646H21.6547V14.8062H24.2235V27.8646Z" fill="url(#paint0_linear_6744_61114)"/>
</g>
<defs>
<linearGradient id="paint0_linear_6744_61114" x1="37.0044" y1="6.9165" x2="-0.001342" y2="20.2325" gradientUnits="userSpaceOnUse">
<stop stop-color="#AC2121"/>
<stop offset="1" stop-color="#E9000E"/>
</linearGradient>
<clipPath id="clip0_6744_61114">
<rect width="44.7514" height="44.7514" fill="white" transform="translate(0.648438 0.270996)"/>
</clipPath>
</defs>
</svg>
