<svg width="46" height="46" viewBox="0 0 46 46" fill="none" xmlns="http://www.w3.org/2000/svg">
<g id="marketplace.svg" clip-path="url(#clip0_6744_61132)">
<path id="Vector" d="M1.74414 0.712402V1.19572C1.74414 12.2762 1.74414 23.3536 1.74414 34.4281C1.74414 36.6657 2.97928 38.2946 4.99757 38.7645C5.41124 38.8494 5.8328 38.89 6.25508 38.8853C9.38768 38.8853 12.5203 38.8853 15.6529 38.8853H16.1899V42.81H10.9495V45.4638H34.6677V42.8458H29.4363V38.8898H29.9599C33.2804 38.8898 36.6055 38.8898 39.9305 38.8898C42.1278 38.8898 43.8015 37.5786 44.2311 35.529C44.2992 35.1556 44.3292 34.7762 44.3206 34.3968C44.3206 23.3342 44.3206 12.2717 44.3206 1.20914V0.712402H1.74414ZM32.9359 3.33036H35.9431C35.9615 3.44146 35.9734 3.55352 35.9789 3.66599C35.9789 6.82544 35.9789 9.98489 35.9789 13.1443C35.9946 13.5238 35.8686 13.8955 35.6255 14.1872C35.3823 14.479 35.0394 14.6699 34.6634 14.7229C34.2873 14.7759 33.905 14.6872 33.5907 14.474C33.2764 14.2609 33.0526 13.9385 32.9627 13.5695C32.9321 13.4435 32.9171 13.3142 32.918 13.1846C32.918 9.99235 32.918 6.80307 32.918 3.61677C32.9135 3.53174 32.9269 3.44671 32.9359 3.33036ZM27.2122 3.845V3.33036H30.2418C30.2616 3.43988 30.275 3.55045 30.2821 3.66152C30.2821 6.80605 30.2821 9.95058 30.2821 13.0951C30.2969 13.3363 30.2547 13.5775 30.159 13.7994C30.0633 14.0212 29.9167 14.2174 29.7311 14.3721C29.5455 14.5267 29.326 14.6356 29.0906 14.6897C28.8551 14.7439 28.6102 14.7418 28.3757 14.6838C28.0398 14.6065 27.7409 14.4155 27.5297 14.1431C27.3184 13.8707 27.2078 13.5337 27.2166 13.1891C27.2166 12.039 27.2166 10.8889 27.2166 9.73876L27.2122 3.845ZM28.7426 17.3733C29.8013 17.3716 30.82 16.9686 31.5933 16.2456C32.3675 16.97 33.3881 17.3732 34.4485 17.3733C35.5048 17.3778 36.5223 16.9756 37.2902 16.2501C37.867 16.781 38.5796 17.1419 39.3489 17.2927C40.1182 17.4436 40.9143 17.3786 41.6489 17.1048V30.942H38.1718V20.0316H26.3395V30.9375H4.4158V17.163C4.90882 17.2635 5.40827 17.3293 5.91049 17.3599C6.42751 17.3242 6.94171 17.2554 7.44994 17.1541V25.6568H21.4974V17.0959C22.2366 17.3733 23.0383 17.4403 23.8133 17.2894C24.5884 17.1385 25.3064 16.7756 25.8875 16.2411C26.6612 16.9663 27.6822 17.3696 28.7426 17.3689V17.3733ZM35.5091 22.6719V30.9509H29.0022V22.6719H35.5091ZM21.5108 3.34826H24.5405C24.5405 3.50489 24.5629 3.64809 24.5629 3.79577C24.5629 6.86572 24.5629 9.93715 24.5629 13.0101C24.5629 13.9633 24.093 14.5719 23.274 14.7151C22.8905 14.7819 22.496 14.6982 22.1726 14.4815C21.8491 14.2648 21.6217 13.9317 21.5377 13.5516C21.5049 13.4047 21.4884 13.2546 21.4884 13.1041C21.4884 9.9297 21.4884 6.75682 21.4884 3.58544C21.4909 3.50599 21.4984 3.42677 21.5108 3.34826ZM15.7916 3.45566C15.8 3.41674 15.8135 3.37912 15.8319 3.34378H18.8213C18.836 3.44913 18.8449 3.5552 18.8481 3.66152C18.8481 6.81649 18.8481 9.97594 18.8481 13.1354C18.8609 13.3726 18.8177 13.6094 18.7222 13.8269C18.6267 14.0444 18.4814 14.2364 18.2981 14.3875C18.1148 14.5385 17.8986 14.6445 17.6669 14.6967C17.4352 14.7489 17.1945 14.7461 16.9641 14.6883C16.6396 14.6182 16.348 14.4411 16.1362 14.1855C15.9244 13.9298 15.8046 13.6105 15.7961 13.2786C15.7782 10.0073 15.7871 6.73146 15.7916 3.45566ZM18.8302 17.1004V23.0523H10.1082V17.1048C10.843 17.3775 11.6388 17.442 12.4079 17.2912C13.177 17.1404 13.8896 16.7801 14.467 16.2501C15.045 16.7806 15.7585 17.1409 16.5286 17.2909C17.2987 17.441 18.0953 17.375 18.8302 17.1004ZM10.1037 3.33931H13.1155C13.1321 3.43701 13.1425 3.53566 13.1468 3.63467C13.1468 6.80605 13.1468 9.98041 13.1468 13.1578C13.1587 13.5328 13.0324 13.8991 12.7919 14.1872C12.5514 14.4752 12.2135 14.6648 11.8423 14.7201C11.4712 14.7753 11.0927 14.6923 10.7788 14.4867C10.4648 14.2812 10.2373 13.9675 10.1395 13.6053C10.1023 13.4591 10.0842 13.3086 10.0858 13.1578V3.56307C10.0858 3.50489 10.0947 3.44671 10.1037 3.33931ZM4.38 3.845V3.34378H7.43204C7.43204 3.46461 7.43204 3.56307 7.43204 3.66152C7.43204 6.80307 7.43204 9.9461 7.43204 13.0906C7.44812 13.332 7.40707 13.5738 7.31222 13.7964C7.21738 14.019 7.07141 14.2161 6.88616 14.3717C6.7009 14.5273 6.48158 14.6371 6.24597 14.6921C6.01037 14.7471 5.76511 14.7458 5.53011 14.6883C5.18639 14.6089 4.88152 14.4112 4.66882 14.1298C4.45612 13.8484 4.34913 13.5011 4.36657 13.1488C4.36657 11.5915 4.36657 10.0162 4.36657 8.47677L4.38 3.845ZM26.7557 42.8056H18.875V38.9211H26.7333L26.7557 42.8056ZM41.6266 35.077C41.5755 35.3586 41.4384 35.6175 41.234 35.8179C41.0296 36.0183 40.768 36.1503 40.4854 36.1958C40.2716 36.2362 40.0541 36.2542 39.8365 36.2495C28.6397 36.2495 17.4519 36.2495 6.27298 36.2495C5.51668 36.2495 4.83646 36.066 4.56795 35.3097C4.43682 34.7566 4.3663 34.1909 4.35762 33.6226H41.6803C41.7058 34.108 41.6878 34.5948 41.6266 35.077ZM41.6803 13.1264C41.6943 13.3639 41.6523 13.6013 41.5576 13.8195C41.463 14.0377 41.3183 14.2306 41.1354 14.3826C40.9525 14.5346 40.7364 14.6415 40.5045 14.6946C40.2727 14.7477 40.0316 14.7455 39.8007 14.6883C39.469 14.6178 39.1714 14.436 38.9574 14.1731C38.7433 13.9101 38.6255 13.5819 38.6238 13.2428C38.6238 9.98489 38.6238 6.72251 38.6238 3.46014C38.6328 3.41854 38.6463 3.37803 38.664 3.33931H41.6579C41.6739 3.42807 41.6844 3.51775 41.6892 3.60782C41.6847 6.78069 41.6892 9.95356 41.6803 13.1264Z" fill="url(#paint0_linear_6744_61132)"/>
</g>
<defs>
<linearGradient id="paint0_linear_6744_61132" x1="36.332" y1="0.712391" x2="-1.2514" y2="9.76645" gradientUnits="userSpaceOnUse">
<stop stop-color="#AC2121"/>
<stop offset="1" stop-color="#E9000E"/>
</linearGradient>
<clipPath id="clip0_6744_61132">
<rect width="44.7514" height="44.7514" fill="white" transform="translate(0.65625 0.712402)"/>
</clipPath>
</defs>
</svg>
