<svg width="46" height="46" viewBox="0 0 46 46" fill="none" xmlns="http://www.w3.org/2000/svg">
<g id="product.svg" clip-path="url(#clip0_6744_61139)">
<path id="Vector" d="M39.749 29.3041H45.3653C45.2758 29.1698 45.2355 29.0982 45.1863 29.0311C43.2083 26.346 41.2258 23.6609 39.2389 20.9758C39.1682 20.8998 39.0831 20.8386 38.9887 20.7956C38.8942 20.7526 38.7922 20.7287 38.6884 20.7252C37.7665 20.7252 36.8402 20.7252 35.8467 20.7252L37.3459 18.1654C36.4509 17.4807 35.6588 16.7871 34.7861 16.1874C34.4931 16.036 34.2548 15.7966 34.1047 15.5028C33.9546 15.2091 33.9003 14.8757 33.9492 14.5495C33.945 14.3858 33.9783 14.2232 34.0466 14.0743C34.1148 13.9253 34.2162 13.794 34.3431 13.6903C35.3455 12.9474 36.3211 12.1643 37.328 11.3767C35.9183 8.92428 34.5265 6.53008 33.1258 4.09113C31.8683 4.6013 30.66 5.09804 29.4428 5.58135C29.3025 5.64577 29.144 5.65845 28.9953 5.61715C27.8989 5.14279 27.8049 5.00406 27.6527 3.80025C27.6506 3.78691 27.6506 3.77331 27.6527 3.75997C27.5095 2.73964 27.3618 1.72378 27.2052 0.712402H18.8278C18.6532 1.98782 18.4787 3.24086 18.3042 4.49389C18.2773 4.66395 18.2684 4.89666 18.1565 4.97721C17.8042 5.25663 17.41 5.47865 16.9885 5.63505C16.7647 5.70218 16.447 5.50528 16.1785 5.39787C15.1044 4.95036 14.0304 4.5297 12.9385 4.08666L8.7408 11.3677C9.63582 12.0748 10.4861 12.7774 11.3811 13.4039C11.6404 13.5525 11.8509 13.7734 11.9868 14.0396C12.1227 14.3058 12.1781 14.6059 12.1464 14.9031C12.1487 15.104 12.1018 15.3025 12.0098 15.4811C11.9177 15.6598 11.7833 15.8132 11.6183 15.9279C10.6517 16.6484 9.7119 17.4002 8.7408 18.1654C9.22859 19.0202 9.70295 19.8391 10.2042 20.7118C9.22859 20.7118 8.33803 20.7118 7.44748 20.7118C7.31338 20.6981 7.17813 20.7223 7.05709 20.7816C6.93605 20.8409 6.83409 20.933 6.76278 21.0474C4.83251 23.6758 2.89776 26.2953 0.95853 28.9058L0.685547 29.3041H6.36002V29.7516C6.36002 34.8532 6.36002 39.9534 6.36002 45.0521C6.36002 45.1819 6.36002 45.3116 6.33317 45.4414H39.7401C39.7401 45.3385 39.7088 45.24 39.7088 45.1371V29.6844C39.7156 29.557 39.729 29.4301 39.749 29.3041ZM14.0752 7.38483C14.9299 7.72942 15.7802 8.02925 16.5902 8.40964C16.8009 8.52976 17.0443 8.58016 17.2854 8.55363C17.5265 8.52711 17.7531 8.42502 17.9327 8.26196C18.67 7.77284 19.4452 7.34335 20.2508 6.9776C20.5015 6.84782 20.6581 6.74041 20.6984 6.42268C20.8102 5.39787 20.9758 4.37754 21.1459 3.34826H24.9497C25.0974 4.39992 25.2585 5.43367 25.3973 6.48086C25.4019 6.58506 25.4402 6.68495 25.5064 6.76561C25.5725 6.84627 25.663 6.90336 25.7642 6.92837C26.7441 7.29121 27.6528 7.82283 28.4493 8.49914C28.5311 8.5783 28.6363 8.62891 28.7492 8.64343C28.8621 8.65794 28.9767 8.63559 29.0758 8.5797C30.029 8.17693 30.9867 7.79655 31.9891 7.39378C32.6246 8.49914 33.2556 9.5866 33.9045 10.7099C33.099 11.3409 32.3203 11.9718 31.5148 12.5626C31.3865 12.6496 31.2865 12.7722 31.2268 12.9153C31.1672 13.0584 31.1506 13.2157 31.1791 13.3681C31.2284 14.3087 31.2284 15.2513 31.1791 16.1919C31.1524 16.3437 31.1713 16.4999 31.2335 16.6409C31.2956 16.7819 31.3982 16.9013 31.5282 16.984C32.3248 17.5702 33.0945 18.1968 33.9134 18.8367C33.5733 19.4274 33.2601 19.9823 32.9289 20.5283C32.8481 20.6198 32.7397 20.6827 32.6201 20.7073C32.5058 20.7231 32.3899 20.7231 32.2755 20.7073C26.082 20.7073 19.8884 20.7073 13.6948 20.7073C13.5546 20.7295 13.4109 20.7041 13.2869 20.6352C13.1628 20.5662 13.0653 20.4577 13.0101 20.3269C12.7595 19.8212 12.4552 19.3379 12.1553 18.8233C12.9743 18.1833 13.7709 17.5479 14.5853 16.9437C14.7073 16.869 14.8014 16.7563 14.8532 16.6229C14.9049 16.4895 14.9114 16.3428 14.8717 16.2053C14.6861 15.2431 14.6861 14.2542 14.8717 13.292C14.9096 13.1544 14.9007 13.0081 14.8464 12.8761C14.7922 12.744 14.6956 12.6338 14.5719 12.5626C13.7664 11.9629 12.9832 11.3364 12.1509 10.6875L14.0752 7.38483ZM5.92146 26.6682C6.00649 26.5295 6.05124 26.431 6.11389 26.3415C6.78516 25.4465 7.45643 24.5067 8.1456 23.6072C8.20363 23.5319 8.27644 23.4692 8.35955 23.4231C8.44265 23.3769 8.53432 23.3482 8.62892 23.3387C14.4615 23.3387 20.2926 23.3387 26.1222 23.3387C26.1625 23.3387 26.2073 23.3387 26.3326 23.3656C25.5226 24.4575 24.7663 25.5047 23.9786 26.534C23.8327 26.6401 23.6523 26.688 23.4729 26.6682C18.971 26.6682 14.4675 26.6682 9.96251 26.6682H5.92146ZM27.6169 42.7787H9.00483V29.3085H9.52842C14.6002 29.3085 19.6721 29.3085 24.7439 29.3085C24.8928 29.3216 25.0425 29.2929 25.176 29.2257C25.3096 29.1585 25.4218 29.0555 25.5002 28.9281C26.0864 28.0958 26.704 27.2858 27.2902 26.4668C27.3753 26.3549 27.4648 26.2475 27.6035 26.073L27.6169 42.7787ZM37.055 42.7787H30.302V26.073C31.0136 27.0352 31.6759 27.8944 32.2934 28.7894C32.3945 28.9677 32.5451 29.1129 32.727 29.2074C32.9089 29.3019 33.1142 29.3417 33.3183 29.322C34.3923 29.2772 35.4753 29.322 36.5493 29.322H37.0505L37.055 42.7787ZM34.3699 26.6682C34.2561 26.6776 34.1419 26.6559 34.0394 26.6054C33.937 26.555 33.8501 26.4777 33.7881 26.3818C33.0676 25.3794 32.3292 24.3904 31.5506 23.3387C31.7117 23.3387 31.8057 23.3387 31.8996 23.3387C33.721 23.3387 35.5424 23.3387 37.3638 23.3387C37.4528 23.3364 37.5413 23.3519 37.6243 23.3841C37.7073 23.4164 37.783 23.4648 37.8471 23.5267C38.6123 24.5336 39.3597 25.5584 40.1607 26.6593C39.9683 26.6593 39.8564 26.6861 39.7446 26.6861C37.9634 26.6682 36.1734 26.6682 34.3789 26.6906L34.3699 26.6682Z" fill="url(#paint0_linear_6744_61139)"/>
<path id="Vector_2" d="M23.0251 19.2262C23.6153 19.2353 24.2013 19.1257 24.7483 18.904C25.2953 18.6823 25.7923 18.353 26.2097 17.9357C26.627 17.5183 26.9563 17.0213 27.178 16.4743C27.3997 15.9273 27.5093 15.3413 27.5002 14.7511C27.5023 14.1634 27.3886 13.5811 27.1656 13.0373C26.9426 12.4936 26.6147 11.9991 26.2006 11.5821C25.7865 11.1651 25.2943 10.8337 24.7521 10.6069C24.2099 10.3801 23.6284 10.2623 23.0407 10.2603C22.4531 10.2582 21.8707 10.3719 21.327 10.5949C20.7833 10.8179 20.2888 11.1458 19.8718 11.5599C19.0296 12.3963 18.5541 13.5329 18.5499 14.7198C18.5366 15.3125 18.643 15.9019 18.8628 16.4526C19.0826 17.0033 19.4112 17.504 19.8291 17.9248C20.2469 18.3455 20.7453 18.6776 21.2944 18.9013C21.8436 19.1249 22.4322 19.2354 23.0251 19.2262ZM23.0251 12.9297C23.2696 12.921 23.5132 12.9626 23.7411 13.0518C23.9689 13.141 24.176 13.2759 24.3496 13.4483C24.5232 13.6206 24.6597 13.8268 24.7505 14.0539C24.8413 14.2811 24.8847 14.5244 24.8778 14.769C24.8778 15.258 24.6835 15.7269 24.3378 16.0727C23.992 16.4185 23.523 16.6127 23.034 16.6127C22.545 16.6127 22.0761 16.4185 21.7303 16.0727C21.3845 15.7269 21.1903 15.258 21.1903 14.769C21.1835 14.526 21.2263 14.2842 21.3161 14.0582C21.4058 13.8323 21.5407 13.6271 21.7123 13.455C21.884 13.2829 22.089 13.1475 22.3146 13.0572C22.5403 12.9669 22.7821 12.9235 23.0251 12.9297Z" fill="url(#paint1_linear_6744_61139)"/>
</g>
<defs>
<linearGradient id="paint0_linear_6744_61139" x1="36.9808" y1="0.712391" x2="-2.23787" y2="10.6318" gradientUnits="userSpaceOnUse">
<stop stop-color="#AC2121"/>
<stop offset="1" stop-color="#E9000E"/>
</linearGradient>
<linearGradient id="paint1_linear_6744_61139" x1="25.8208" y1="10.2603" x2="17.9626" y2="12.2467" gradientUnits="userSpaceOnUse">
<stop stop-color="#AC2121"/>
<stop offset="1" stop-color="#E9000E"/>
</linearGradient>
<clipPath id="clip0_6744_61139">
<rect width="44.7514" height="44.7514" fill="white" transform="translate(0.648438 0.712402)"/>
</clipPath>
</defs>
</svg>
