<svg width="63" height="63" viewBox="0 0 63 63" fill="none" xmlns="http://www.w3.org/2000/svg">
<g id="financial-analytics.svg" clip-path="url(#clip0_6744_61166)">
<path id="Vector" d="M38.6836 13.8966C38.6836 12.4017 38.979 10.9216 39.553 9.54131C40.1269 8.16102 40.968 6.90778 42.0279 5.85366C43.0879 4.79953 44.3457 3.9653 45.7291 3.39893C47.1125 2.83256 48.5942 2.54523 50.0891 2.55344C51.5865 2.53664 53.0721 2.81982 54.4584 3.38627C55.8446 3.95271 57.1035 4.79097 58.1606 5.85162C59.2178 6.91227 60.0519 8.17384 60.6138 9.56195C61.1757 10.9501 61.4539 12.4366 61.4322 13.934C61.4524 15.434 61.1715 16.9229 60.6062 18.3125C60.0408 19.702 59.2025 20.9641 58.1409 22.024C57.0792 23.0839 55.8158 23.9202 54.4253 24.4832C53.0348 25.0463 51.5454 25.3247 50.0454 25.3021C43.7693 25.3021 38.7958 20.3722 38.6836 13.8966Z" stroke="#151616" stroke-width="2.36835" stroke-linecap="round" stroke-linejoin="round"/>
<path id="Vector_2" d="M51.0683 8.77939C51.4422 8.77939 51.7601 8.77939 52.078 8.77939C52.2133 8.77339 52.3485 8.79522 52.475 8.84351C52.6016 8.89181 52.7169 8.96555 52.8139 9.06017C52.9109 9.1548 52.9874 9.2683 53.0388 9.39366C53.0901 9.51903 53.1152 9.6536 53.1126 9.78905C53.1168 9.92501 53.0934 10.0604 53.0437 10.187C52.994 10.3137 52.919 10.4289 52.8234 10.5256C52.7278 10.6224 52.6136 10.6987 52.4875 10.7499C52.3615 10.8012 52.2264 10.8262 52.0904 10.8236C51.4672 10.8236 50.8439 10.8236 50.2207 10.8236C50.0746 10.794 49.9237 10.7966 49.7788 10.8314C49.6338 10.8661 49.4982 10.9322 49.3814 11.0249C49.2647 11.1176 49.1696 11.2348 49.1029 11.3681C49.0363 11.5015 48.9996 11.6478 48.9954 11.7968C48.9912 11.9459 49.0197 12.094 49.0789 12.2309C49.1381 12.3677 49.2264 12.49 49.3378 12.589C49.4492 12.6881 49.581 12.7616 49.7238 12.8044C49.8666 12.8472 50.0171 12.8582 50.1646 12.8367C50.8448 12.8669 51.4964 13.1191 52.0198 13.5547C52.5432 13.9903 52.9095 14.5853 53.0627 15.2487C53.2168 15.9228 53.138 16.6293 52.8392 17.2529C52.5404 17.8765 52.0392 18.3805 51.4173 18.6828C51.3012 18.7224 51.2026 18.8014 51.1388 18.9062C51.075 19.011 51.0501 19.1349 51.0683 19.2562C51.087 19.526 51.087 19.7967 51.0683 20.0664C51.0565 20.3243 50.9476 20.5682 50.7634 20.7491C50.5792 20.93 50.3334 21.0345 50.0754 21.0416C49.8173 21.0487 49.5661 20.9579 49.3722 20.7874C49.1784 20.6169 49.0562 20.3794 49.0303 20.1225C49.0115 19.78 49.0115 19.4367 49.0303 19.0942C48.7318 19.0276 48.425 19.0066 48.1203 19.0318C47.9763 19.0411 47.8318 19.0211 47.6958 18.9729C47.5597 18.9247 47.4348 18.8493 47.3288 18.7514C47.2227 18.6535 47.1376 18.5351 47.0787 18.4033C47.0198 18.2715 46.9882 18.1291 46.986 17.9848C46.9859 17.8405 47.0164 17.6978 47.0754 17.5662C47.1344 17.4345 47.2206 17.3168 47.3283 17.2209C47.436 17.1249 47.5629 17.0528 47.7004 17.0094C47.838 16.966 47.9833 16.9522 48.1266 16.9689C48.7498 16.9689 49.3107 16.9689 49.9028 16.9689C50.6507 16.9689 51.0621 16.5575 51.0621 15.9094C51.0621 15.2612 50.6507 14.9433 49.9028 14.9059C49.2113 14.8761 48.5502 14.6137 48.0265 14.1613C47.5027 13.7088 47.1471 13.0927 47.0172 12.4129C46.8854 11.7524 46.9789 11.0667 47.2829 10.4656C47.5868 9.86447 48.0836 9.38266 48.6937 9.09724C48.8032 9.06394 48.8967 8.99161 48.9565 8.89396C49.0162 8.79632 49.038 8.68015 49.0178 8.56748C48.9898 8.26481 48.9898 7.9602 49.0178 7.65754C49.0288 7.52615 49.0656 7.39822 49.126 7.28106C49.1865 7.1639 49.2695 7.0598 49.3702 6.97472C49.4709 6.88963 49.5874 6.82523 49.713 6.78519C49.8386 6.74515 49.9709 6.73025 50.1023 6.74136C50.3585 6.75104 50.6011 6.8597 50.7789 7.0445C50.9568 7.22931 51.056 7.47586 51.0558 7.73233C51.0808 8.05642 51.0683 8.37427 51.0683 8.77939Z" fill="#151616"/>
<path id="Vector_3" d="M39.7313 60.2041H43.315C43.3971 59.9962 43.4187 59.7693 43.3773 59.5497V32.5006C43.3773 31.3352 43.7887 30.9238 44.9417 30.9238H50.4761C51.6042 30.9238 52.0156 31.3414 52.0156 32.457C52.0156 41.4817 52.0156 50.5063 52.0156 59.531V60.1542C52.2109 60.2419 52.4283 60.268 52.6388 60.229C55.5369 60.229 58.435 60.229 61.3643 60.229C62.2805 60.229 62.723 60.4721 62.9287 61.0829C63.1343 61.6937 62.8788 62.1611 62.1371 62.6659H1.68191C1.43233 62.5921 1.20679 62.4535 1.02831 62.264C0.849835 62.0746 0.724817 61.8412 0.666016 61.5877L0.666016 13.5227C0.740806 13.4043 0.815596 13.2858 0.896618 13.1799C1.03129 12.9734 1.22891 12.8159 1.46017 12.7306C1.69143 12.6452 1.94402 12.6367 2.18051 12.7062C2.43067 12.7611 2.65562 12.8972 2.82024 13.0934C2.98486 13.2896 3.07988 13.5348 3.09046 13.7907C3.10289 14.0128 3.10289 14.2354 3.09046 14.4575C3.09046 29.4612 3.09046 44.4608 3.09046 59.4562V60.2041H18.9771C19.0593 59.9745 19.0808 59.7276 19.0394 59.4873V27.6517C19.0394 26.2868 19.3947 25.9316 20.7658 25.9316H25.6895C27.2352 25.9316 27.5592 26.2619 27.5592 27.8387V60.2041H39.7313ZM25.0912 60.2041V28.4183H21.5075V60.2352L25.0912 60.2041ZM45.8516 33.4043V60.2041H49.5475V33.4043H45.8516Z" fill="#151616"/>
<path id="Vector_4" d="M15.2741 60.2036H6.74805V16.2583H15.2741V60.2036Z" fill="#E9000E"/>
<path id="Vector_5" d="M39.7311 60.2039H31.2051V38.2842H39.7311V60.2039Z" fill="#E9000E"/>
</g>
<defs>
<clipPath id="clip0_6744_61166">
<rect width="62.325" height="62.325" fill="white" transform="translate(0.666016 0.37207)"/>
</clipPath>
</defs>
</svg>
