<svg width="63" height="63" viewBox="0 0 63 63" fill="none" xmlns="http://www.w3.org/2000/svg">
<g id="spend-control.svg">
<path id="Vector" d="M59.5113 58.1099C59.5113 58.0725 59.5113 58.0414 59.5113 58.004L59.2744 51.4349C59.2614 51.0806 59.1085 50.7458 58.8492 50.504C58.5898 50.2622 58.2452 50.133 57.8908 50.1448C57.7143 50.1513 57.5409 50.1927 57.3805 50.2665C57.22 50.3403 57.0757 50.4451 56.9559 50.5748C56.8362 50.7034 56.7431 50.8544 56.6821 51.0191C56.6211 51.1839 56.5935 51.3591 56.6007 51.5346L56.7316 55.0809L49.1903 47.5396C53.1331 43.1422 55.3137 37.4439 55.3137 31.5377C55.3137 25.6314 53.1331 19.9332 49.1903 15.5357L56.7316 7.98817L56.6007 11.5345C56.5933 11.711 56.6209 11.8872 56.6819 12.053C56.7428 12.2187 56.836 12.3708 56.9559 12.5005C57.0828 12.6342 57.2355 12.7408 57.4047 12.8136C57.574 12.8865 57.7564 12.9242 57.9407 12.9243C58.2875 12.9261 58.6212 12.7921 58.8704 12.551C59.1197 12.3099 59.2647 11.9808 59.2744 11.6342L59.5175 5.06513C59.5175 5.06513 59.5175 5.00904 59.5175 4.95918C59.5481 4.84314 59.5648 4.7239 59.5674 4.60393C59.5691 4.42772 59.5352 4.25299 59.4677 4.0902C59.4002 3.92741 59.3006 3.77993 59.1747 3.65659C59.0094 3.49222 58.8036 3.37451 58.5781 3.3154C58.3526 3.25629 58.1155 3.25789 57.8908 3.32003C57.8495 3.3138 57.8075 3.3138 57.7662 3.32003L51.1909 3.55063C50.8365 3.56363 50.5018 3.71655 50.26 3.9759C50.0181 4.23524 49.889 4.57985 49.9008 4.93425C49.9064 5.11052 49.9469 5.28393 50.0199 5.44444C50.093 5.60495 50.1972 5.74937 50.3265 5.86935C50.4557 5.98934 50.6075 6.08249 50.773 6.14343C50.9385 6.20437 51.1144 6.23188 51.2906 6.22438L54.8369 6.09973L47.2893 13.6411C42.8923 9.69993 37.1953 7.52044 31.2905 7.52044C25.3857 7.52044 19.6887 9.69993 15.2917 13.6411L7.74414 6.09973L11.2967 6.22438C11.4723 6.23104 11.6476 6.2029 11.8124 6.14158C11.9772 6.08026 12.1282 5.98697 12.2568 5.86707C12.3854 5.74717 12.489 5.60303 12.5617 5.44294C12.6343 5.28285 12.6747 5.10997 12.6803 4.93425C12.6921 4.57985 12.5629 4.23524 12.3211 3.9759C12.0793 3.71655 11.7445 3.56363 11.3901 3.55063L4.8211 3.3138C4.77557 3.30806 4.72951 3.30806 4.68398 3.3138C4.46465 3.26096 4.23556 3.26408 4.01775 3.32289C3.79994 3.3817 3.60041 3.4943 3.43748 3.65035C3.31163 3.7737 3.21198 3.92118 3.14451 4.08397C3.07704 4.24675 3.04314 4.42149 3.04483 4.59769C3.04424 4.7179 3.06103 4.83755 3.09469 4.95295C3.09469 4.99034 3.09469 5.02774 3.09469 5.0589L3.3066 11.6342C3.3196 11.9885 3.47252 12.3233 3.73186 12.5651C3.9912 12.8069 4.33582 12.9361 4.69021 12.9243C4.86594 12.9187 5.03882 12.8784 5.1989 12.8057C5.35899 12.733 5.50313 12.6294 5.62303 12.5008C5.74293 12.3722 5.83622 12.2212 5.89754 12.0564C5.95887 11.8917 5.987 11.7164 5.98034 11.5407L5.84946 7.98817L13.397 15.5357C9.45416 19.9332 7.27361 25.6314 7.27361 31.5377C7.27361 37.4439 9.45416 43.1422 13.397 47.5396L5.84946 55.0809L5.98034 51.5346C5.99456 51.1783 5.86679 50.8308 5.62509 50.5686C5.4974 50.436 5.34453 50.3302 5.17544 50.2574C5.00635 50.1847 4.82443 50.1464 4.64035 50.1448C4.29358 50.143 3.95988 50.277 3.71063 50.5181C3.46138 50.7592 3.31636 51.0883 3.3066 51.4349L3.06353 58.004C3.06353 58.0414 3.06353 58.0725 3.06353 58.1099C3.03252 58.228 3.01578 58.3494 3.01367 58.4714C3.01532 58.8257 3.15722 59.1649 3.40834 59.4149C3.65946 59.6648 3.99935 59.8052 4.35366 59.8052C4.47386 59.8058 4.59352 59.789 4.70891 59.7553H4.81486L11.3839 59.5122C11.6486 59.5027 11.9045 59.415 12.1193 59.2601C12.3341 59.1052 12.4982 58.8902 12.5909 58.6421C12.6836 58.3941 12.7007 58.1241 12.6401 57.8663C12.5794 57.6085 12.4438 57.3745 12.2502 57.1937C12.1214 57.0726 11.9694 56.9787 11.8034 56.9177C11.6374 56.8566 11.4608 56.8297 11.2842 56.8385L7.73791 56.9694L15.2792 49.4281C19.6751 53.3765 25.3754 55.5607 31.2843 55.5607C37.1931 55.5607 42.8934 53.3765 47.2893 49.4281L54.8307 56.9694L51.2781 56.8385C51.1025 56.8306 50.9271 56.8579 50.7623 56.9189C50.5974 56.9799 50.4465 57.0734 50.3183 57.1937C50.1248 57.3745 49.9891 57.6085 49.9285 57.8663C49.8679 58.1241 49.885 58.3941 49.9777 58.6421C50.0704 58.8902 50.2345 59.1052 50.4493 59.2601C50.6641 59.415 50.92 59.5027 51.1847 59.5122L57.7537 59.7553H57.8597C57.9756 59.7863 58.0949 59.803 58.2149 59.8052C58.5692 59.8052 58.9091 59.6648 59.1602 59.4149C59.4113 59.1649 59.5532 58.8257 59.5549 58.4714C59.5528 58.3494 59.536 58.228 59.505 58.1099H59.5113ZM52.749 31.5346C52.7515 35.7792 51.4951 39.9292 49.1387 43.4596C46.7823 46.9901 43.4318 49.7424 39.511 51.3685C35.5902 52.9945 31.2752 53.4213 27.1118 52.5947C22.9485 51.7681 19.1238 49.7254 16.1215 46.7249C13.1192 43.7243 11.0743 39.9008 10.2453 35.7379C9.41627 31.5751 9.84049 27.2598 11.4643 23.3381C13.088 19.4163 15.8384 16.0642 19.3675 13.7058C22.8966 11.3474 27.0459 10.0885 31.2905 10.0885C36.9775 10.0951 42.4298 12.3563 46.4523 16.3764C50.4747 20.3966 52.7391 25.8476 52.749 31.5346Z" fill="#151616"/>
<path id="Vector_2" d="M26.81 23.4633C26.1119 23.1641 25.8128 22.7653 25.8813 22.2168C25.9499 21.6683 26.3238 21.3567 27.2151 21.2383C27.0557 20.8969 26.9142 20.5474 26.7913 20.1912C26.4983 19.2127 26.2117 18.2342 25.9686 17.2433C25.9304 17.0844 25.9299 16.9188 25.9672 16.7597C26.0044 16.6006 26.0784 16.4524 26.1832 16.327C26.288 16.2016 26.4207 16.1025 26.5706 16.0376C26.7206 15.9727 26.8837 15.9438 27.0468 15.9531C29.8764 15.9531 32.7038 15.9531 35.5292 15.9531C35.6975 15.9459 35.865 15.9786 36.0181 16.0486C36.1713 16.1187 36.3057 16.224 36.4102 16.3559C36.5148 16.4879 36.5867 16.6427 36.6199 16.8078C36.6531 16.9729 36.6467 17.1435 36.6012 17.3056C36.3684 18.5743 35.9855 19.8107 35.4607 20.989C35.4185 21.0784 35.381 21.1699 35.3485 21.2632C36.2148 21.363 36.595 21.631 36.676 22.2043C36.757 22.7777 36.4703 23.1454 35.7536 23.4508C35.8845 23.5256 36.0029 23.5755 36.1089 23.6378C37.8828 24.5701 39.3927 25.9352 40.4985 27.6065C41.6044 29.2778 42.2704 31.2012 42.4348 33.1985C42.6717 35.4359 42.8337 37.6734 43.0207 39.9171C43.1697 41.0492 42.9462 42.1991 42.384 43.193C41.8218 44.187 40.9515 44.971 39.9045 45.4266C39.2734 45.7108 38.5897 45.8594 37.8976 45.8629C33.4787 45.8629 29.0661 45.8629 24.6473 45.8629C23.3018 45.8441 22.0158 45.3054 21.0586 44.3598C20.1013 43.4141 19.547 42.1348 19.5117 40.7897C19.5117 39.7239 19.6364 38.6581 19.7236 37.5986C19.8358 36.2025 19.9605 34.8065 20.0976 33.4104C20.2375 31.3702 20.899 29.4002 22.0187 27.689C23.1383 25.9779 24.6787 24.5829 26.4921 23.6378L26.81 23.4633ZM30.2005 28.9541L29.9449 29.0663C29.5411 29.2493 29.1798 29.5145 28.8841 29.8449C28.5884 30.1753 28.3648 30.5637 28.2276 30.9853C28.0904 31.4069 28.0426 31.8525 28.0871 32.2937C28.1317 32.7348 28.2677 33.1618 28.4865 33.5475C28.7535 34.0407 29.1485 34.4527 29.6301 34.7401C30.1116 35.0275 30.6618 35.1796 31.2226 35.1804C31.3871 35.1727 31.5512 35.203 31.7021 35.2689C31.8531 35.3349 31.9868 35.4347 32.0928 35.5607C32.1989 35.6867 32.2746 35.8354 32.3139 35.9954C32.3532 36.1553 32.3551 36.3222 32.3195 36.483C32.2631 36.7352 32.1169 36.9583 31.9083 37.1108C31.6996 37.2633 31.4426 37.3348 31.1852 37.3119C30.9217 37.2873 30.6766 37.1661 30.4971 36.9717C30.3176 36.7772 30.2164 36.5232 30.2129 36.2586C30.213 36.1141 30.1839 35.971 30.1274 35.8381C30.0708 35.7051 29.9879 35.5849 29.8837 35.4848C29.7795 35.3846 29.6561 35.3066 29.5209 35.2554C29.3858 35.2041 29.2417 35.1808 29.0973 35.1866C28.9519 35.1918 28.8091 35.2269 28.6779 35.2896C28.5466 35.3524 28.4297 35.4415 28.3344 35.5514C28.2391 35.6613 28.1674 35.7897 28.1239 35.9286C28.0804 36.0674 28.0659 36.2137 28.0814 36.3583C28.0937 36.9538 28.2763 37.5332 28.6077 38.028C28.939 38.5229 29.4053 38.9124 29.9512 39.1505C30.0371 39.1774 30.1121 39.2314 30.1649 39.3044C30.2177 39.3774 30.2455 39.4655 30.2441 39.5556C30.2724 39.8152 30.3955 40.0552 30.5899 40.2296C30.7843 40.404 31.0362 40.5004 31.2974 40.5004C31.5585 40.5004 31.8104 40.404 32.0048 40.2296C32.1992 40.0552 32.3224 39.8152 32.3507 39.5556C32.3507 39.3063 32.4753 39.2253 32.6685 39.1318C33.2018 38.8969 33.657 38.5147 33.9805 38.03C34.304 37.5453 34.4824 36.9783 34.4946 36.3957C34.5181 35.9682 34.4555 35.5402 34.3104 35.1373C34.1654 34.7344 33.9409 34.3647 33.6502 34.0502C33.3596 33.7357 33.0087 33.4829 32.6185 33.3066C32.2282 33.1303 31.8065 33.0342 31.3784 33.024C31.1032 33.0162 30.8356 32.9321 30.6056 32.7809C30.4192 32.6397 30.2885 32.4375 30.236 32.2097C30.1836 31.9818 30.213 31.7428 30.3189 31.5344C30.4208 31.3155 30.594 31.1377 30.8102 31.0302C31.0264 30.9226 31.2727 30.8916 31.5087 30.9423C31.7448 30.993 31.9567 31.1224 32.1096 31.3092C32.2626 31.496 32.3476 31.7292 32.3507 31.9707C32.3568 32.1106 32.3904 32.248 32.4497 32.375C32.5089 32.5019 32.5926 32.616 32.6959 32.7106C32.7992 32.8052 32.9201 32.8786 33.0518 32.9264C33.1834 32.9743 33.3232 32.9958 33.4632 32.9897C33.6031 32.9835 33.7405 32.9499 33.8675 32.8907C33.9944 32.8314 34.1085 32.7478 34.2031 32.6445C34.2977 32.5412 34.3711 32.4202 34.4189 32.2886C34.4668 32.1569 34.4883 32.0171 34.4822 31.8772C34.4673 31.2816 34.2837 30.7025 33.9528 30.2071C33.6218 29.7117 33.157 29.3205 32.6124 29.0788C32.5258 29.0542 32.4496 29.0019 32.3955 28.9298C32.3415 28.8578 32.3126 28.77 32.3133 28.6799C32.2955 28.4274 32.1864 28.1901 32.0063 28.0123C31.8262 27.8345 31.5874 27.7284 31.3348 27.7139C31.0766 27.6954 30.8206 27.772 30.6151 27.9293C30.4096 28.0866 30.2687 28.3137 30.2191 28.5677C30.2055 28.6961 30.1993 28.8251 30.2005 28.9541Z" fill="#22AE16"/>
</g>
</svg>
