<svg width="63" height="63" viewBox="0 0 63 63" fill="none" xmlns="http://www.w3.org/2000/svg">
<g id="labor.svg" clip-path="url(#clip0_6744_61210)">
<path id="Vector" d="M0.666016 32.0618C0.877921 31.8561 0.871688 31.557 0.983873 31.3014C1.22118 30.6928 1.59982 30.1493 2.08856 29.7159C2.57729 29.2824 3.1621 28.9714 3.79473 28.8084C3.88602 28.7991 3.97457 28.7719 4.05531 28.7283C4.13606 28.6847 4.20742 28.6256 4.26531 28.5544C4.32319 28.4832 4.36647 28.4013 4.39267 28.3133C4.41887 28.2254 4.42747 28.1331 4.41798 28.0419C4.78004 22.0402 7.29894 16.3715 11.5106 12.0804C15.3011 8.1061 20.2868 5.47974 25.7082 4.60143C25.8535 4.59003 25.9927 4.53775 26.1096 4.45063C26.2265 4.3635 26.3164 4.24509 26.3688 4.10906C26.8105 3.03164 27.5691 2.11383 28.5441 1.4772C29.519 0.840563 30.6644 0.515153 31.8285 0.544072C32.9854 0.506207 34.1265 0.820921 35.1005 1.44648C36.0744 2.07203 36.8352 2.97887 37.2819 4.04674C37.4814 4.46431 37.7494 4.50171 38.1171 4.5765C48.8079 6.87421 55.6304 13.2895 58.5846 23.8225C58.9545 25.2129 59.1637 26.6411 59.2079 28.0792C59.2079 28.4844 59.3201 28.7025 59.7937 28.8084C60.7875 29.0727 61.6521 29.6878 62.2276 30.54C62.8031 31.3922 63.0507 32.4239 62.9245 33.4445C62.7984 34.4651 62.3071 35.4055 61.5414 36.0919C60.7757 36.7783 59.7874 37.1644 58.7591 37.1787C58.1359 37.1787 57.5126 37.1787 56.8894 37.1787C56.1782 40.3427 54.8871 43.3476 53.0813 46.0413C54.1409 47.1008 55.1754 48.123 56.1976 49.1576C57.0203 49.9927 57.0203 50.5474 56.1976 51.3826C54.6332 52.9469 53.0813 54.4988 51.5045 56.0694C50.7005 56.8734 50.1209 56.8796 49.3231 56.0694L46.2069 52.9531C43.3298 54.8808 40.0995 56.2195 36.7023 56.8921C36.7023 58.363 36.6649 59.8027 36.7023 61.2548C36.7449 61.5823 36.6835 61.9148 36.527 62.2056C36.3704 62.4963 36.1266 62.7306 35.8298 62.8753H27.6839C27.4024 62.6596 27.184 62.3723 27.0513 62.0435C26.9187 61.7146 26.8767 61.3562 26.9298 61.0055C26.9796 59.6531 26.9298 58.2944 26.9298 56.8921C23.5348 56.225 20.3075 54.8857 17.4377 52.9531C16.3719 54.0314 15.3311 55.0784 14.284 56.1193C13.5112 56.8859 12.9316 56.8796 12.1463 56.1193C10.5798 54.5611 9.01756 52.9989 7.45944 51.4324C6.59312 50.5661 6.59312 50.0301 7.45944 49.17L10.5757 46.0849C8.75965 43.3817 7.46397 40.3634 6.75517 37.1849C6.13192 37.1849 5.50867 37.1849 4.88542 37.1849C4.01096 37.177 3.16017 36.9 2.44872 36.3915C1.73727 35.883 1.19969 35.1677 0.909083 34.3429C0.846758 34.1809 0.909083 33.969 0.666016 33.8879V32.0618ZM18.7964 9.55626C16.2124 10.9273 13.9315 12.8054 12.0902 15.0783C8.90525 18.8873 7.04968 23.6312 6.80503 28.5903C7.00115 28.6751 7.21767 28.7011 7.42828 28.6651H12.9627C16.4966 28.6651 20.0242 28.6651 23.558 28.6651C25.5025 28.6651 27.4471 28.6651 29.3978 28.6651H40.099H40.4044H56.4032C56.5565 28.6923 56.7143 28.6612 56.8458 28.5778C56.5657 23.3118 54.4891 18.3008 50.9623 14.3802C49.2434 12.4012 47.1698 10.7609 44.8482 9.5438C42.667 8.30665 40.2852 7.4628 37.8117 7.0508C37.7618 7.33126 37.712 7.5681 37.6808 7.80493C37.149 11.5112 36.6192 15.2216 36.0915 18.9362C36.0919 19.0965 36.0593 19.2553 35.9958 19.4025C35.9323 19.5498 35.8392 19.6825 35.7223 19.7923C35.6055 19.9021 35.4673 19.9868 35.3164 20.0411C35.1655 20.0954 35.0051 20.1181 34.845 20.1079C32.8132 20.137 30.7856 20.137 28.7621 20.1079C28.6063 20.1197 28.4497 20.1 28.3018 20.0498C28.1538 19.9996 28.0175 19.92 27.9011 19.8158C27.7846 19.7116 27.6905 19.5849 27.6242 19.4434C27.558 19.3019 27.521 19.1484 27.5156 18.9923C27.15 16.4619 26.7864 13.9356 26.4249 11.4135C26.213 9.96138 26.0074 8.5092 25.8017 7.0508C23.3416 7.4835 20.9729 8.33069 18.7964 9.55626ZM50.688 37.2036C47.5095 45.7421 41.5948 50.9151 32.4081 51.152C22.6605 51.4013 16.3594 46.166 12.9503 37.2223H9.29179C9.29179 37.3657 9.32919 37.4654 9.35412 37.5589C10.0822 40.3246 11.307 42.9348 12.969 45.2622C13.5424 46.0662 13.4987 46.5524 12.8132 47.2442L9.82156 50.2109L13.2931 53.7011L16.2473 50.7344C16.9702 50.0114 17.4439 49.974 18.2728 50.5599C19.4045 51.3604 20.6036 52.0611 21.8565 52.654C23.8296 53.6 25.9287 54.257 28.089 54.6048C29.08 54.7668 29.4041 55.1657 29.4103 56.1567C29.4103 56.4247 29.4103 56.6864 29.4103 56.9482V60.3761H34.2966V56.2252C34.2966 55.1408 34.6144 54.773 35.674 54.5985C39.1634 54.0276 42.4737 52.6582 45.3468 50.5973C46.2443 49.974 46.6868 49.974 47.4658 50.7718L50.2767 53.645L53.7607 50.1797L53.7233 50.1361L50.8439 47.2504C50.1521 46.5586 50.1022 46.0725 50.6694 45.2747C51.4761 44.1381 52.185 42.935 52.7884 41.6786C53.4762 40.2535 54.005 38.757 54.3652 37.2161L50.688 37.2036ZM15.6801 37.2036C16.7857 40.6161 18.956 43.5845 21.8724 45.6731C24.7888 47.7617 28.2978 48.8606 31.8846 48.8085C40.9467 48.8085 46.5497 42.2893 47.9894 37.2036H15.6801ZM31.7599 34.7543H58.2231C58.4288 34.7543 58.6345 34.7543 58.8464 34.7543C59.1455 34.7351 59.4353 34.6423 59.69 34.4842C59.9447 34.3261 60.1564 34.1075 60.3062 33.8478C60.4561 33.5882 60.5395 33.2956 60.549 32.996C60.5586 32.6963 60.4939 32.399 60.3609 32.1304C60.1779 31.775 59.8905 31.4841 59.5373 31.2969C59.1841 31.1097 58.782 31.0352 58.3852 31.0833C40.6807 31.0833 22.9742 31.0833 5.2656 31.0833H4.90411C4.5355 31.0825 4.17582 31.1967 3.87527 31.4101C3.57471 31.6235 3.34828 31.9254 3.22757 32.2737C2.72897 33.5202 3.67008 34.7667 5.09732 34.7667L31.7599 34.7543ZM31.8285 17.6585C32.3333 17.6585 32.8444 17.6585 33.3492 17.6585C33.7419 17.6585 33.8541 17.5339 33.9102 17.1537C34.2841 14.4051 34.7079 11.6628 35.0756 8.91432C35.2128 7.89842 35.5181 6.87629 35.3125 5.8417C35.1521 4.91438 34.63 4.08875 33.8609 3.54641C33.0918 3.00408 32.1388 2.78948 31.2115 2.94982C30.2842 3.11015 29.4585 3.6323 28.9162 4.40138C28.3739 5.17046 28.1593 6.12349 28.3196 7.0508C28.7746 10.46 29.2919 13.8629 29.7655 17.2721C29.8092 17.6024 29.965 17.6647 30.2455 17.6585C30.769 17.6523 31.2987 17.6585 31.8285 17.6585Z" fill="#151616"/>
<path id="Vector_2" d="M40.0933 28.6278H29.3921C27.4414 28.6278 25.4968 28.6278 23.5523 28.6278C23.5086 28.4346 23.4712 28.2351 23.4214 28.0045C21.884 21.8468 20.3425 15.687 18.7969 9.52517C20.9821 8.28041 23.3639 7.4183 25.8396 6.97607C26.0515 8.44694 26.2572 9.89912 26.4628 11.3388C26.8243 13.8651 27.1879 16.3913 27.5535 18.9175C27.559 19.0737 27.5959 19.2271 27.6621 19.3687C27.7284 19.5102 27.8225 19.6369 27.939 19.7411C28.0554 19.8453 28.1917 19.9249 28.3397 19.9751C28.4876 20.0252 28.6442 20.045 28.8 20.0332C30.8277 20.0622 32.8553 20.0622 34.883 20.0332C35.043 20.0434 35.2034 20.0207 35.3543 19.9664C35.5053 19.9121 35.6434 19.8274 35.7603 19.7176C35.8771 19.6077 35.9702 19.4751 36.0337 19.3278C36.0972 19.1806 36.1298 19.0218 36.1295 18.8614C36.6654 15.1552 37.1952 11.4448 37.7187 7.73021C37.7187 7.49337 37.7998 7.25654 37.8496 6.97607C40.3231 7.38807 42.7049 8.23193 44.8861 9.46907C44.2546 11.9912 43.6313 14.5153 43.0164 17.0416C42.015 20.9306 41.0407 24.7927 40.0933 28.6278Z" fill="#FFBC0A"/>
</g>
<defs>
<clipPath id="clip0_6744_61210">
<rect width="62.325" height="62.325" fill="white" transform="translate(0.666016 0.544189)"/>
</clipPath>
</defs>
</svg>
