<svg width="63" height="63" viewBox="0 0 63 63" fill="none" xmlns="http://www.w3.org/2000/svg">
<g id="customer-service.svg" clip-path="url(#clip0_6744_61226)">
<path id="Vector" d="M62.4539 24.8821C62.2731 24.9257 62.3043 25.1064 62.2607 25.2248C61.9878 26.1039 61.4393 26.8718 60.6963 27.415C59.9533 27.9582 59.0552 28.248 58.1348 28.2414C57.6175 28.2414 56.9693 28.0232 56.6078 28.3536C56.2463 28.6839 56.184 29.2884 55.9846 29.7808C55.4922 31.0709 54.7817 31.2953 53.6661 30.5162L50.7742 28.4907C50.628 28.3506 50.4395 28.263 50.2382 28.2414H44.068V51.6506C44.1301 53.0533 43.677 54.4302 42.7942 55.5219C41.9114 56.6137 40.6598 57.3449 39.2752 57.5777C38.8152 57.6453 38.3501 57.6724 37.8854 57.6588C34.1895 57.6588 30.4999 57.6588 26.8102 57.6588C26.632 57.646 26.4531 57.6736 26.287 57.7394C26.1208 57.8052 25.9716 57.9076 25.8504 58.0389C24.9592 58.924 24.043 59.7903 23.1331 60.6566C22.3789 61.3733 21.8242 61.3796 21.0826 60.6566C20.1851 59.809 19.2751 58.9614 18.4088 58.0826C18.2668 57.9296 18.0923 57.8105 17.8981 57.7339C17.704 57.6574 17.4952 57.6253 17.287 57.6401C13.6534 57.6401 10.0261 57.6401 6.39257 57.6401C3.1953 57.6401 1.27569 56.2564 0.284719 53.2212C0.284719 53.1277 0.284719 53.0156 0.128906 52.9906V18.4252C0.166301 18.3878 0.222394 18.3504 0.234859 18.3005C1.16973 15.1157 3.10181 13.6636 6.4175 13.6636H29.4777C29.7281 13.711 29.9869 13.6805 30.2194 13.5763V12.9219C30.2194 10.8153 30.2194 8.70249 30.2194 6.5959C30.2028 6.03052 30.2995 5.46752 30.5038 4.94009C30.7082 4.41267 31.016 3.93148 31.4093 3.5249C31.8025 3.11831 32.2731 2.79456 32.7934 2.57271C33.3137 2.35086 33.8732 2.2354 34.4388 2.23315C42.3707 2.23315 50.3026 2.23315 58.2345 2.23315C59.1789 2.23539 60.0954 2.55396 60.8376 3.13801C61.5798 3.72206 62.105 4.53792 62.3292 5.45536C62.3292 5.56754 62.3292 5.71089 62.4539 5.76698V24.8821ZM22.0985 58.2633C22.9648 57.4282 23.8249 56.6304 24.6538 55.7703C24.842 55.5738 25.0701 55.4199 25.3227 55.3189C25.5753 55.2178 25.8466 55.172 26.1184 55.1845C30.0511 55.1845 33.9901 55.1346 37.9228 55.1845C38.4209 55.2114 38.9192 55.1332 39.3851 54.9548C39.8511 54.7764 40.2742 54.5019 40.627 54.1492C40.9797 53.7964 41.2543 53.3732 41.4326 52.9073C41.611 52.4414 41.6893 51.9431 41.6623 51.445C41.6124 40.8996 41.6124 30.35 41.6623 19.7963C41.6854 19.2991 41.6044 18.8026 41.4247 18.3384C41.2449 17.8743 40.9703 17.4528 40.6183 17.1008C40.2664 16.7488 39.8448 16.4742 39.3807 16.2944C38.9165 16.1147 38.42 16.0338 37.9228 16.0568C27.3774 16.1109 16.8299 16.1109 6.28038 16.0568C5.78318 16.0338 5.28662 16.1147 4.82248 16.2944C4.35833 16.4742 3.9368 16.7488 3.58485 17.1008C3.23289 17.4528 2.95825 17.8743 2.77849 18.3384C2.59873 18.8026 2.5178 19.2991 2.54088 19.7963C2.59074 30.3459 2.59074 40.8954 2.54088 51.445C2.51631 51.9463 2.59769 52.4471 2.77971 52.9149C2.96174 53.3826 3.24031 53.8068 3.59728 54.1596C3.95424 54.5125 4.38157 54.7861 4.8514 54.9627C5.32123 55.1393 5.82301 55.2148 6.32401 55.1845C10.2629 55.0972 14.1957 55.1845 18.1658 55.1533C18.4175 55.1444 18.6683 55.188 18.9022 55.2813C19.1361 55.3747 19.348 55.5158 19.5244 55.6955C20.3409 56.593 21.2134 57.4157 22.0985 58.2633ZM54.1148 27.8425C54.2519 27.481 54.3703 27.1818 54.4888 26.8827C54.8253 26.0101 55.112 25.8107 56.022 25.7982C56.6888 25.7982 57.3619 25.7982 58.0288 25.7982C58.2978 25.8163 58.5675 25.776 58.8195 25.68C59.0714 25.5841 59.2996 25.4348 59.4885 25.2424C59.6773 25.05 59.8223 24.8191 59.9135 24.5654C60.0048 24.3117 60.0401 24.0413 60.017 23.7727C60.017 18.0679 60.017 12.3651 60.017 6.66446C60.0422 6.39517 60.0076 6.12363 59.9155 5.86932C59.8234 5.61502 59.6761 5.38426 59.4843 5.1936C59.2924 5.00295 59.0607 4.85713 58.8059 4.76661C58.551 4.67609 58.2792 4.64312 58.0101 4.67006H34.7006C34.4265 4.64405 34.15 4.6789 33.8909 4.77212C33.6318 4.86534 33.3965 5.01464 33.2018 5.20934C33.0071 5.40403 32.8578 5.63933 32.7646 5.89841C32.6714 6.1575 32.6365 6.43397 32.6625 6.70809C32.6625 8.877 32.6625 11.0708 32.6625 13.221C32.6458 13.2994 32.6483 13.3806 32.6701 13.4577C32.6918 13.5349 32.732 13.6055 32.7872 13.6636H33.4104C35.1369 13.6636 36.8633 13.6636 38.5834 13.6636C39.8936 13.702 41.1489 14.1981 42.1314 15.0656C43.114 15.9332 43.7617 17.1174 43.9621 18.4127C44.2425 20.4071 44.0182 22.4265 44.0743 24.4333C44.0743 24.8696 44.0743 25.3121 44.0743 25.7795C46.2307 25.7795 48.3186 25.7795 50.4065 25.7795C50.9362 25.7597 51.4563 25.925 51.8773 26.247C52.5816 26.7954 53.3233 27.2878 54.1148 27.8425Z" fill="#151616"/>
<path id="Vector_2" d="M22.1482 21.3482C25.018 21.3581 27.8196 22.2236 30.195 23.8341C32.5703 25.4446 34.4114 27.7269 35.4829 30.3891C36.5545 33.0514 36.8077 35.9727 36.2103 38.7797C35.613 41.5866 34.1921 44.1517 32.1293 46.1469C30.0666 48.1421 27.4557 49.4769 24.6304 49.9806C21.8052 50.4843 18.8939 50.134 16.2687 48.9745C13.6436 47.815 11.4238 45.899 9.89324 43.4714C8.36267 41.0438 7.59081 38.2149 7.67633 35.3464C7.77895 31.5841 9.35141 28.0117 12.0566 25.395C14.7619 22.7783 18.3846 21.3256 22.1482 21.3482ZM24.2049 32.872V34.0812C24.2049 34.1248 24.2049 34.1622 24.2049 34.2058C24.2087 34.5011 24.3226 34.7843 24.5244 34.9999C24.7262 35.2155 25.0012 35.348 25.2956 35.3713C25.4463 35.3949 25.6002 35.3878 25.748 35.3503C25.8959 35.3128 26.0346 35.2457 26.1558 35.1531C26.2769 35.0605 26.3781 34.9442 26.453 34.8114C26.528 34.6786 26.5753 34.5319 26.592 34.3803C26.6979 33.3755 26.6979 32.3624 26.592 31.3576C26.5544 31.0615 26.4036 30.7915 26.1711 30.6044C25.9387 30.4173 25.6427 30.3276 25.3455 30.3541C25.0508 30.3648 24.7709 30.4863 24.5618 30.6942C24.3527 30.9022 24.2297 31.1813 24.2174 31.476C24.18 31.9434 24.2049 32.4046 24.2049 32.872ZM20.3283 32.9032C20.3283 32.442 20.3595 31.9746 20.3283 31.5134C20.3235 31.3551 20.2873 31.1994 20.2219 31.0552C20.1565 30.911 20.0631 30.7813 19.9471 30.6734C19.8312 30.5656 19.695 30.4819 19.5465 30.4271C19.3979 30.3722 19.24 30.3475 19.0818 30.3541C18.9242 30.3532 18.7681 30.3841 18.6227 30.4449C18.4773 30.5058 18.3457 30.5953 18.2357 30.7082C18.1257 30.8211 18.0397 30.955 17.9826 31.1019C17.9256 31.2488 17.8988 31.4057 17.9039 31.5632C17.9039 32.4295 17.9039 33.3021 17.9039 34.1684C17.8988 34.3254 17.9255 34.4818 17.9821 34.6283C18.0387 34.7748 18.1242 34.9084 18.2335 35.0212C18.3428 35.134 18.4737 35.2237 18.6184 35.2849C18.763 35.3461 18.9185 35.3776 19.0756 35.3775C19.2376 35.3852 19.3995 35.3596 19.5513 35.3024C19.7031 35.2453 19.8416 35.1577 19.9584 35.045C20.0751 34.9324 20.1676 34.7971 20.2301 34.6474C20.2927 34.4977 20.324 34.3368 20.3221 34.1746C20.347 33.7571 20.3283 33.327 20.3283 32.9032Z" fill="#E9000E"/>
<path id="Vector_3" d="M28.0367 40.7248C28.0664 40.4677 28.0128 40.2078 27.8837 39.9834C27.7547 39.7591 27.5571 39.582 27.3199 39.4783C27.0992 39.3688 26.8491 39.3334 26.6066 39.3771C26.3641 39.4209 26.1422 39.5416 25.9737 39.7214C25.1725 40.5046 24.1539 41.028 23.0507 41.2234C22.2513 41.3725 21.4285 41.3377 20.6446 41.1217C19.8607 40.9058 19.1361 40.5143 18.5259 39.9769C18.4012 39.8772 18.2891 39.7588 18.1582 39.6591C17.9184 39.4671 17.6145 39.3735 17.3083 39.3975C17.0021 39.4214 16.7164 39.561 16.5094 39.7879C16.3023 40.0148 16.1894 40.3119 16.1935 40.6191C16.1976 40.9262 16.3184 41.2203 16.5315 41.4416C17.5945 42.5441 18.9726 43.2908 20.4767 43.5793C21.7072 43.8495 22.9849 43.8177 24.2005 43.4867C25.4161 43.1557 26.5334 42.5352 27.4571 41.6784C27.6162 41.5701 27.7503 41.429 27.8503 41.2645C27.9503 41.1 28.0139 40.916 28.0367 40.7248Z" fill="#151616"/>
<path id="Vector_4" d="M24.2055 32.8724C24.2055 32.4049 24.2055 31.9437 24.2055 31.4763C24.2178 31.1816 24.3408 30.9025 24.5499 30.6946C24.759 30.4866 25.0388 30.3652 25.3335 30.3544C25.6308 30.3279 25.9267 30.4176 26.1592 30.6047C26.3917 30.7918 26.5425 31.0618 26.58 31.3579C26.686 32.3627 26.686 33.3758 26.58 34.3806C26.5633 34.5322 26.5161 34.6789 26.4411 34.8117C26.3661 34.9445 26.265 35.0608 26.1438 35.1534C26.0226 35.246 25.8839 35.3131 25.7361 35.3506C25.5883 35.3881 25.4344 35.3953 25.2837 35.3716C24.9893 35.3467 24.7149 35.2128 24.5143 34.996C24.3137 34.7792 24.2013 34.4953 24.1992 34.1999C24.1992 34.1563 24.1992 34.1189 24.1992 34.0752V32.8724H24.2055Z" fill="#151616"/>
<path id="Vector_5" d="M20.3278 32.903C20.3278 33.3268 20.3278 33.7569 20.3278 34.1495C20.3296 34.3117 20.2983 34.4726 20.2358 34.6223C20.1733 34.772 20.0808 34.9073 19.964 35.0199C19.8473 35.1326 19.7088 35.2202 19.557 35.2773C19.4052 35.3345 19.2433 35.36 19.0813 35.3524C18.7716 35.3557 18.4731 35.2363 18.2512 35.0202C18.0293 34.8042 17.902 34.5091 17.8971 34.1994C17.8971 33.3331 17.8971 32.4605 17.8971 31.5942C17.892 31.4367 17.9188 31.2798 17.9759 31.1329C18.0329 30.9859 18.119 30.852 18.2289 30.7391C18.3389 30.6263 18.4705 30.5367 18.6159 30.4759C18.7613 30.4151 18.9174 30.3842 19.075 30.3851C19.2332 30.3784 19.3912 30.4032 19.5397 30.458C19.6882 30.5128 19.8244 30.5966 19.9404 30.7044C20.0563 30.8122 20.1497 30.942 20.2151 31.0862C20.2806 31.2304 20.3167 31.3861 20.3215 31.5443C20.3589 32.0055 20.3215 32.473 20.3215 32.9342L20.3278 32.903Z" fill="#151616"/>
</g>
<defs>
<clipPath id="clip0_6744_61226">
<rect width="62.325" height="62.325" fill="white" transform="translate(0.128906 0.544189)"/>
</clipPath>
</defs>
</svg>
