<svg width="63" height="63" viewBox="0 0 63 63" fill="none" xmlns="http://www.w3.org/2000/svg">
<g id="order.svg" clip-path="url(#clip0_6744_61248)">
<path id="Vector" d="M38.3913 48.9631C26.3958 48.9631 14.3962 48.9631 2.39242 48.9631C2.0556 49.0035 1.71425 48.947 1.40844 48.8002C1.10263 48.6533 0.845074 48.4223 0.666016 48.1342L0.666016 4.07665C0.857679 3.79841 1.12115 3.57731 1.42843 3.43684C1.7357 3.29637 2.0753 3.24179 2.41112 3.27889C17.1738 3.27889 31.9365 3.27889 46.6992 3.27889C48.1327 3.27889 48.4755 3.62167 48.4755 5.08008C48.4755 10.5356 48.4755 15.9911 48.4755 21.4466H46.0635C46.0635 21.2036 46.0635 20.9605 46.0635 20.7174V6.43876C46.102 6.21438 46.0783 5.98375 45.995 5.77189H33.3118V6.46993C33.3118 10.708 33.2682 14.9524 33.3118 19.1905C33.3118 20.4743 32.2835 21.1163 31.1616 20.437C29.1548 19.1905 27.0669 18.1434 25.0226 16.9842C24.8785 16.8855 24.708 16.8328 24.5334 16.8328C24.3588 16.8328 24.1882 16.8855 24.0441 16.9842C21.9251 18.1746 19.806 19.3587 17.6745 20.518C17.4856 20.6271 17.2713 20.6847 17.0531 20.685C16.835 20.6853 16.6205 20.6284 16.4312 20.5199C16.242 20.4113 16.0845 20.2551 15.9746 20.0666C15.8646 19.8782 15.8061 19.6642 15.8048 19.446C15.8048 19.2839 15.8048 19.1219 15.8048 18.9599C15.8048 14.7591 15.8048 10.5605 15.8048 6.36397C15.8048 6.15207 15.8858 5.92147 15.73 5.74072H3.15901V27.7788H24.0877C25.2283 27.7788 25.6209 28.1777 25.6209 29.3183V39.4772C25.6209 40.7237 25.2532 41.0977 23.988 41.0977H3.78226C3.5728 41.0592 3.35672 41.0808 3.15901 41.16V46.5324H38.3976L38.3913 48.9631ZM3.12162 38.6296H23.1529V30.2469H3.12162V38.6296ZM18.2791 5.75319V17.3519C18.4923 17.3355 18.695 17.2527 18.8587 17.115C20.5041 16.2113 22.1557 15.3076 23.7948 14.3852C24.0248 14.2388 24.2919 14.161 24.5645 14.161C24.8372 14.161 25.1042 14.2388 25.3342 14.3852C26.7615 15.1892 28.2012 15.9745 29.6347 16.766L30.8438 17.4329V5.75319H18.2791Z" fill="#151616"/>
<path id="Vector_2" d="M38.3917 48.9633C38.3917 48.153 38.3917 47.3428 38.3917 46.5326C38.3917 41.0418 38.3917 35.5447 38.3917 30.0539C38.3825 29.7455 38.4401 29.4387 38.5606 29.1547C38.681 28.8707 38.8616 28.6161 39.0898 28.4085L42.4242 25.0554C43.627 23.8525 44.8424 22.6621 46.0515 21.4655H48.451C50.5576 21.4655 52.6704 21.4966 54.777 21.4655C55.006 21.4525 55.2348 21.4937 55.4449 21.5857C55.655 21.6778 55.8404 21.8181 55.9861 21.9952C58.0677 24.295 60.3488 26.4141 62.5115 28.6266C62.665 28.7681 62.7862 28.9409 62.8669 29.1334C62.9476 29.326 62.9858 29.5336 62.979 29.7422C62.979 37.5287 62.979 45.3152 62.979 53.1016C62.979 54.4541 62.4679 54.9714 61.1092 54.9714H40.2428C38.9963 54.9714 38.4104 54.3855 38.373 53.1016C38.398 51.7243 38.398 50.3406 38.3917 48.9633ZM53.973 30.378C53.9949 29.9419 53.9281 29.5059 53.7764 29.0965C53.6247 28.6871 53.3914 28.3128 53.0906 27.9963C52.7899 27.6798 52.4279 27.4277 52.0268 27.2554C51.6256 27.083 51.1936 26.994 50.757 26.9937C49.8743 26.9813 49.0229 27.3201 48.39 27.9354C47.7571 28.5508 47.3945 29.3924 47.3821 30.2751C47.3697 31.1578 47.7085 32.0092 48.3239 32.6422C48.9392 33.2751 49.7809 33.6376 50.6635 33.65C51.0995 33.6645 51.5338 33.5901 51.94 33.4314C52.3463 33.2727 52.716 33.033 53.0268 32.727C53.3375 32.4209 53.5827 32.0548 53.7476 31.651C53.9124 31.2472 53.9933 30.814 53.9855 30.378H53.973Z" fill="#22AE16"/>
<path id="Vector_3" d="M50.7499 45.4609H46.6739C46.4913 45.5025 46.3017 45.5024 46.1192 45.4607C45.9367 45.419 45.7659 45.3367 45.6196 45.2199C45.4732 45.1032 45.355 44.955 45.2738 44.7863C45.1926 44.6176 45.1504 44.4327 45.1504 44.2455C45.1504 44.0583 45.1926 43.8735 45.2738 43.7048C45.355 43.5361 45.4732 43.3879 45.6196 43.2711C45.7659 43.1543 45.9367 43.072 46.1192 43.0303C46.3017 42.9886 46.4913 42.9886 46.6739 43.0302H54.7761C55.6487 43.0302 56.2096 43.5288 56.1971 44.2767C56.1915 44.4495 56.1499 44.6193 56.0751 44.7752C56.0003 44.9311 55.8938 45.0698 55.7625 45.1823C55.6312 45.2949 55.4779 45.3789 55.3124 45.429C55.1469 45.4791 54.9727 45.4942 54.801 45.4733L50.7499 45.4609Z" fill="#151616"/>
<path id="Vector_4" d="M50.7077 51.0512H46.694C45.8277 51.0512 45.248 50.5526 45.248 49.8047C45.248 49.0568 45.8214 48.5894 46.6878 48.5894H54.7214C55.6127 48.5894 56.1612 49.063 56.1612 49.8047C56.1612 50.5464 55.6065 51.0512 54.7277 51.0512C53.3877 51.0574 52.0477 51.0512 50.7077 51.0512Z" fill="#151616"/>
<path id="Vector_5" d="M13.0812 35.6508H7.52185C6.68669 35.6508 6.18186 35.2145 6.14447 34.5165C6.12056 34.2227 6.20886 33.9308 6.39158 33.6995C6.57429 33.4682 6.83786 33.3147 7.1292 33.27C7.33504 33.2352 7.54378 33.2206 7.75245 33.2264H18.3976C18.518 33.2201 18.6386 33.2201 18.759 33.2264C19.0822 33.2262 19.3928 33.3515 19.6254 33.5759C19.8579 33.8003 19.9942 34.1063 20.0055 34.4292C20.0142 34.599 19.9863 34.7686 19.924 34.9267C19.8616 35.0847 19.766 35.2276 19.6438 35.3457C19.5216 35.4638 19.3755 35.5544 19.2154 35.6113C19.0552 35.6682 18.8848 35.6902 18.7154 35.6757C16.8706 35.6633 15.0008 35.6508 13.0812 35.6508Z" fill="#151616"/>
</g>
<defs>
<clipPath id="clip0_6744_61248">
<rect width="62.325" height="62.325" fill="white" transform="translate(0.666016 0.0817871)"/>
</clipPath>
</defs>
</svg>
