<svg width="63" height="63" viewBox="0 0 63 63" fill="none" xmlns="http://www.w3.org/2000/svg">
<g id="vendor.svg" clip-path="url(#clip0_6744_61273)">
<path id="Vector" d="M0.128906 14.9465C0.340811 14.8655 0.309649 14.6536 0.359509 14.4915C0.697914 13.3263 1.40506 12.3022 2.37484 11.5728C3.34462 10.8435 4.52475 10.4484 5.73815 10.4466C10.9485 10.4466 16.1651 10.4466 21.3755 10.4466H21.9987C22.1795 10.2285 22.1047 9.99166 22.1421 9.77976C22.3267 8.73885 22.8695 7.79526 23.6765 7.11235C24.4835 6.42944 25.5038 6.05019 26.5609 6.04026C29.484 6.04026 32.407 6.12128 35.3238 6.04026C37.8168 5.94677 40.1353 7.44257 40.4345 10.403C40.6454 10.4724 40.8699 10.4895 41.0889 10.4529H56.4208C60.0232 10.4529 62.4103 12.8399 62.4103 16.4298V50.4967C62.4103 54.0554 60.0107 56.4612 56.4645 56.4612H6.11834C3.18906 56.4612 1.23206 55.0339 0.315881 52.2355C0.278486 52.1296 0.315881 51.98 0.128906 51.9551L0.128906 14.9465ZM22.1172 12.8711H6.02485C5.56218 12.8336 5.09689 12.897 4.66108 13.0568C4.22527 13.2166 3.8293 13.469 3.50048 13.7966C3.17167 14.1243 2.91782 14.5193 2.75646 14.9546C2.59509 15.3898 2.53005 15.8548 2.56581 16.3176C2.56581 27.7439 2.56581 39.1701 2.56581 50.5964C2.53176 51.0539 2.59638 51.5135 2.75531 51.9439C2.91424 52.3743 3.16378 52.7655 3.48702 53.0911C3.81027 53.4167 4.19969 53.6691 4.62893 53.8312C5.05816 53.9932 5.51721 54.0612 5.97499 54.0305H56.6078C57.0606 54.0604 57.5145 53.9937 57.9396 53.8349C58.3646 53.6762 58.7511 53.4289 59.0734 53.1095C59.3957 52.7902 59.6465 52.406 59.8092 51.9824C59.9719 51.5588 60.0427 51.1055 60.017 50.6525C60.017 39.193 60.017 27.7314 60.017 16.2678C60.0444 15.8151 59.9753 15.3618 59.8141 14.9379C59.653 14.5141 59.4035 14.1293 59.0822 13.8093C58.761 13.4892 58.3753 13.2411 57.9508 13.0815C57.5264 12.9219 57.0728 12.8544 56.6203 12.8835C51.4307 12.8835 46.2369 12.8835 41.039 12.8835C40.852 12.8835 40.6339 12.8088 40.4843 12.9521V15.5884C40.8271 15.5884 41.1076 15.5884 41.4254 15.6383C41.7163 15.6748 41.9838 15.8162 42.1777 16.0359C42.3716 16.2557 42.4786 16.5387 42.4786 16.8318C42.4786 17.1249 42.3716 17.4079 42.1777 17.6277C41.9838 17.8475 41.7163 17.9889 41.4254 18.0254C41.1826 18.041 40.9391 18.041 40.6962 18.0254H21.8866C21.6871 18.0254 21.4814 18.0254 21.2633 18.0254C21.1065 18.0254 20.9511 17.9944 20.8063 17.9341C20.6615 17.8739 20.53 17.7857 20.4194 17.6745C20.3087 17.5633 20.2212 17.4313 20.1617 17.2862C20.1023 17.141 20.0721 16.9856 20.0729 16.8287C20.0805 16.513 20.2076 16.212 20.4285 15.9864C20.6495 15.7608 20.9478 15.6275 21.2633 15.6134C21.5375 15.5822 21.8242 15.6882 22.1047 15.5199L22.1172 12.8711ZM37.9789 15.5822C37.9789 13.7623 38.0287 11.9611 37.9789 10.1599C37.9182 9.69955 37.6916 9.27712 37.3416 8.9719C36.9916 8.66668 36.5423 8.49963 36.078 8.5021C32.8931 8.5021 29.7083 8.5021 26.5235 8.5021C26.0204 8.51763 25.5421 8.72402 25.1855 9.07937C24.829 9.43472 24.6211 9.91241 24.6039 10.4155C24.5728 11.1073 24.6039 11.7991 24.6039 12.4847V15.6009L37.9789 15.5822Z" fill="#151616"/>
<path id="Vector_2" d="M17.0373 31.8678C17.6107 32.2085 18.1474 32.6074 18.639 33.0582C18.7792 33.1614 18.8963 33.2928 18.9826 33.444C19.069 33.5952 19.1227 33.7628 19.1403 33.936C19.1579 34.1092 19.139 34.2842 19.0849 34.4497C19.0308 34.6152 18.9426 34.7675 18.826 34.8968C18.7143 35.024 18.5767 35.1259 18.4225 35.1957C18.2683 35.2655 18.1009 35.3016 17.9316 35.3016C17.7623 35.3016 17.595 35.2655 17.4408 35.1957C17.2866 35.1259 17.149 35.024 17.0373 34.8968C16.0834 33.9818 14.8127 33.471 13.491 33.471C12.1692 33.471 10.8986 33.9818 9.94468 34.8968C9.8341 35.0247 9.69727 35.1274 9.54348 35.1977C9.38969 35.2681 9.22256 35.3045 9.05344 35.3045C8.88432 35.3045 8.71718 35.2681 8.56339 35.1977C8.40961 35.1274 8.27277 35.0247 8.16219 34.8968C8.04838 34.7682 7.96235 34.6175 7.90951 34.4541C7.85667 34.2908 7.83816 34.1182 7.85513 33.9474C7.8721 33.7765 7.92419 33.611 8.00813 33.4612C8.09207 33.3114 8.20605 33.1806 8.34293 33.0769C8.82936 32.6278 9.35498 32.2232 9.91352 31.8678C6.82844 29.0258 7.5701 25.3112 9.48348 23.4227C10.5143 22.3955 11.9019 21.8058 13.3569 21.7768C14.8118 21.7477 16.2219 22.2816 17.2928 23.2669C19.7983 25.5917 19.711 28.7889 17.0373 31.8678ZM16.6882 27.4115C16.6518 26.5823 16.2966 25.7991 15.6969 25.2252C15.0972 24.6513 14.2992 24.331 13.4692 24.331C12.6391 24.331 11.8411 24.6513 11.2414 25.2252C10.6417 25.7991 10.2866 26.5823 10.2501 27.4115C10.2309 27.8462 10.3 28.2802 10.4532 28.6874C10.6063 29.0947 10.8404 29.4667 11.1412 29.781C11.442 30.0953 11.8033 30.3455 12.2034 30.5164C12.6035 30.6873 13.0341 30.7754 13.4692 30.7754C13.9042 30.7754 14.3348 30.6873 14.7349 30.5164C15.135 30.3455 15.4964 30.0953 15.7972 29.781C16.098 29.4667 16.332 29.0947 16.4851 28.6874C16.6383 28.2802 16.7074 27.8462 16.6882 27.4115Z" fill="#151616"/>
<path id="Vector_3" d="M25.8386 35.2394C25.8386 39.0745 25.8386 42.9054 25.8386 46.7321C25.8386 46.9378 25.8386 47.1435 25.8386 47.3554C25.8208 47.6309 25.7058 47.8911 25.514 48.0897C25.3223 48.2883 25.0663 48.4124 24.7916 48.4398C24.5081 48.4783 24.2203 48.414 23.9802 48.2585C23.7401 48.103 23.5636 47.8666 23.4828 47.5922C23.4175 47.3422 23.3902 47.0838 23.4017 46.8256V23.6844C23.3912 23.4632 23.4059 23.2416 23.4454 23.0237C23.5049 22.7391 23.6621 22.4842 23.8897 22.3032C24.1174 22.1223 24.4011 22.0266 24.6919 22.0328C24.9881 22.0557 25.2653 22.1875 25.4701 22.4027C25.675 22.6179 25.7929 22.9013 25.8013 23.1982C25.8013 23.4849 25.8013 23.7654 25.8013 24.0521C25.8303 27.7791 25.8428 31.5082 25.8386 35.2394Z" fill="#151616"/>
<path id="Vector_4" d="M13.4914 48.4398H9.42157C9.2482 48.4563 9.0733 48.4363 8.90812 48.3812C8.74294 48.326 8.59116 48.2368 8.46256 48.1193C8.33397 48.0019 8.23141 47.8588 8.16149 47.6993C8.09158 47.5398 8.05587 47.3674 8.05665 47.1933C8.06132 47.0257 8.09975 46.8608 8.16962 46.7084C8.2395 46.556 8.33939 46.4193 8.46332 46.3064C8.58726 46.1936 8.73268 46.1068 8.89091 46.0515C9.04913 45.9961 9.2169 45.9732 9.38418 45.9842C12.1182 45.9842 14.8501 45.9842 17.5799 45.9842C17.7491 45.9718 17.9189 45.9952 18.0785 46.0528C18.238 46.1104 18.3836 46.2009 18.5059 46.3185C18.6281 46.4361 18.7243 46.578 18.7881 46.7352C18.8519 46.8923 18.882 47.0611 18.8763 47.2307C18.8787 47.3974 18.846 47.5627 18.7805 47.716C18.7149 47.8693 18.6179 48.0071 18.4957 48.1205C18.3735 48.2339 18.2288 48.3203 18.071 48.3743C17.9133 48.4282 17.746 48.4484 17.5799 48.4335C16.2025 48.446 14.8501 48.4398 13.4914 48.4398Z" fill="#151616"/>
<path id="Vector_5" d="M13.4851 39.7704H17.4926C18.3465 39.7704 18.87 40.2316 18.8763 40.967C18.8825 41.7025 18.3465 42.2135 17.4677 42.2135C14.796 42.2135 12.1244 42.2135 9.45272 42.2135C9.28053 42.2344 9.10589 42.2191 8.93995 42.1687C8.774 42.1182 8.62042 42.0336 8.48902 41.9204C8.35762 41.8072 8.2513 41.6678 8.17684 41.5112C8.10239 41.3545 8.06145 41.184 8.05664 41.0107C8.05664 40.2815 8.61133 39.7642 9.47765 39.7642L13.4851 39.7704Z" fill="#151616"/>
<path id="Vector_6" d="M46.2052 23.5847V31.9737L42.3037 29.7923L38.4084 31.9737V23.5847H31.0977V47.156H53.5347V23.5847H46.2052Z" fill="#FFBC0A"/>
</g>
<defs>
<clipPath id="clip0_6744_61273">
<rect width="62.325" height="62.325" fill="white" transform="translate(0.128906 0.0817871)"/>
</clipPath>
</defs>
</svg>
