<svg width="106" height="96" viewBox="0 0 106 96" fill="none" xmlns="http://www.w3.org/2000/svg">
<g id="blockchain-consulting.svg" clip-path="url(#clip0_6744_61637)">
<path id="Vector" d="M57.9012 36.6735V29.2872H72.3572V36.6735H78.3718V28.021C78.3718 25.4885 76.3142 23.3782 73.729 23.3782H56.7932C54.2608 23.3782 52.1504 25.4358 52.1504 28.021V36.6735H57.9012Z" fill="#FFBC0A"/>
<path id="Vector_2" d="M101.376 36.6742H28.8321C26.458 36.6742 24.5586 38.6263 24.5059 41.0004V91.1746C24.5059 93.5487 26.458 95.4481 28.8321 95.5008H101.376C103.75 95.5008 105.65 93.5487 105.702 91.1746V40.8949C105.702 38.5207 103.75 36.6214 101.376 36.6742Z" fill="#FFBC0A"/>
<path id="Vector_3" d="M101.376 36.6742H28.8321C26.458 36.6742 24.5586 38.6263 24.5059 41.0004V91.1746C24.5059 93.5487 26.458 95.4481 28.8321 95.5008H101.376C103.75 95.5008 105.65 93.5487 105.702 91.1746V40.8949C105.702 38.5207 103.75 36.6214 101.376 36.6742Z" fill="#0383DB"/>
<path id="Vector_4" d="M105.65 60.7316V40.8941C105.65 38.52 103.698 36.6206 101.324 36.5679H28.6739C26.2998 36.6206 24.4004 38.52 24.3477 40.8941V60.8899C51.5187 76.8232 78.637 76.7705 105.65 60.7316Z" fill="#E9000E"/>
<path id="Vector_5" d="M68.875 66.5876H61.4887C61.0139 66.6404 60.6446 67.0097 60.5918 67.4846V78.3002C60.6446 78.775 61.0139 79.1444 61.4887 79.1971H68.875C69.3498 79.1444 69.7192 78.775 69.7719 78.3002V67.4846C69.6664 66.7987 69.4554 66.5876 68.875 66.5876Z" fill="#FFBC0A"/>
<path id="Vector_6" d="M47.0339 50.0747C54.895 45.1681 60.0127 36.8849 60.0127 27.652C60.0127 12.6684 46.6118 0.480957 30.0981 0.480957C13.5845 0.480957 0.183594 12.6684 0.183594 27.652C0.183594 42.6357 13.5845 54.8231 30.0981 54.8231H32.2613C41.7052 63.2646 54.5257 60.7321 54.5257 60.7321C50.7798 58.7273 48.6167 54.612 47.0339 50.0747Z" fill="#FFBC0A"/>
<g id="Group">
<path id="Vector_7" d="M19.9157 24.8022C19.6519 24.6439 19.4409 24.5384 19.1771 24.4329C17.5416 23.5887 15.906 22.7446 14.2177 21.8477C14.0594 21.8477 13.9539 21.8477 13.8484 21.7949C13.6901 21.9004 13.5318 21.9532 13.3736 22.0587C11.738 22.9556 10.0497 23.7998 8.41419 24.6967C8.36143 24.7494 8.25591 24.8022 8.15039 24.855C8.30867 24.9077 8.36143 24.9605 8.46695 25.0132C10.2608 25.9101 12.0546 26.7543 13.8484 27.6512C14.0594 27.7567 14.165 27.7567 14.3232 27.6512C16.117 26.7543 17.9109 25.8574 19.7047 25.0132C19.7574 24.9077 19.863 24.9077 19.9157 24.8022Z" fill="white"/>
<path id="Vector_8" d="M35.9547 24.8022C35.8492 24.7494 35.6909 24.6439 35.5854 24.5912C33.7916 23.6943 32.0505 22.7446 30.2567 21.8477C30.1512 21.8477 30.0457 21.8477 29.9402 21.7949C29.6764 21.9532 29.4653 22.0587 29.2015 22.1642C28.0408 22.7446 26.9329 23.3777 25.8249 23.9581C25.2973 24.2746 24.8225 24.4856 24.2949 24.8022C24.3477 24.855 24.3477 24.9077 24.4004 24.9077C26.247 25.8046 28.1464 26.7543 29.9402 27.6512C30.0984 27.7567 30.204 27.704 30.3095 27.6512C32.1033 26.7543 33.9499 25.8574 35.7437 24.9605C35.8492 24.9077 35.902 24.9077 35.9547 24.8022Z" fill="white"/>
<path id="Vector_9" d="M13.0043 29.1812C11.4743 28.3371 9.83874 27.5984 8.25596 26.807C8.2032 26.807 8.15044 26.7015 8.04492 26.7543C8.04492 28.7591 8.04492 30.7112 8.04492 32.7161C8.2032 33.0854 8.51976 33.2964 8.88907 33.4547C10.2608 34.0878 11.5798 34.7737 12.9515 35.4596C13.0043 35.5123 13.1098 35.5651 13.2153 35.5651C13.2153 35.5123 13.2153 35.5123 13.2153 35.4596C13.2153 33.4547 13.2153 31.5026 13.2153 29.4978C13.1626 29.2867 13.1098 29.234 13.0043 29.1812Z" fill="white"/>
<path id="Vector_10" d="M24.1899 28.759C22.5016 28.759 21.763 28.759 20.0747 28.759C20.0747 28.0732 20.0747 27.44 20.0747 26.7542C19.9692 26.7542 19.9692 26.8069 19.9164 26.8069C18.3336 27.6511 16.6981 28.4425 15.1153 29.2339C14.957 29.3394 14.957 29.3921 14.957 29.5504C14.957 31.4498 14.957 33.3491 14.957 35.3012C14.957 35.4067 14.957 35.4595 15.0098 35.565C16.4871 34.7736 18.0698 34.035 19.5999 33.2436C19.9164 33.0853 20.0219 32.8215 20.0219 32.4522C20.0219 32.0829 20.0219 31.7136 20.0219 31.397C20.0219 31.0804 20.0219 30.7639 20.0219 30.5001C21.7102 30.5001 22.4489 30.5001 24.1372 30.5001C24.1372 31.0804 24.1372 31.7136 24.1372 32.2939C24.0844 32.8215 24.3482 33.1381 24.7703 33.3491C26.1948 34.035 27.5665 34.7736 28.991 35.4067C29.0965 35.4595 29.1493 35.565 29.2548 35.5122C29.2548 33.4546 29.2548 31.3442 29.2548 29.2866C27.5665 28.3897 25.8782 27.5983 24.1899 26.7014C24.1899 27.44 24.1899 28.1259 24.1899 28.759Z" fill="white"/>
<path id="Vector_11" d="M51.9938 24.8022C51.8883 24.7494 51.73 24.6439 51.6245 24.5912C49.8307 23.6943 48.0896 22.7446 46.2958 21.8477C46.1903 21.8477 46.0848 21.8477 45.9792 21.7949C45.7154 21.9532 45.5044 22.0587 45.2406 22.1642C44.0799 22.7446 42.972 23.3777 41.864 23.9581C41.3364 24.2746 40.8616 24.4856 40.334 24.8022C40.3867 24.855 40.3867 24.9077 40.4395 24.9077C42.2861 25.8046 44.1854 26.7543 45.9792 27.6512C46.1375 27.7567 46.243 27.704 46.3485 27.6512C48.1424 26.7543 49.9889 25.8574 51.7828 24.9605C51.8355 24.9077 51.941 24.9077 51.9938 24.8022Z" fill="white"/>
<path id="Vector_12" d="M51.9926 26.8064C50.4098 27.5978 48.7743 28.3892 47.1388 29.1806C46.9805 29.2334 46.9277 29.3389 46.9277 29.4971C46.9277 30.9744 46.9277 32.3462 46.9277 33.8234C46.9277 34.4038 46.9277 34.9841 46.9277 35.5645C47.086 35.5645 47.1388 35.5117 47.2443 35.459C48.616 34.7731 49.935 34.14 51.3068 33.4541C51.6233 33.2431 51.9399 33.0848 52.1509 32.7155C52.1509 30.7106 52.1509 28.7585 52.1509 26.7537C52.0981 26.7537 52.0454 26.7537 51.9926 26.8064Z" fill="white"/>
<path id="Vector_13" d="M40.1763 28.7585C38.488 28.7585 37.8021 28.7585 36.1138 28.7585C36.1138 28.0726 36.1138 27.4395 36.1138 26.7537H36.061C35.9555 26.7537 35.9555 26.8064 35.9028 26.8064C35.5862 26.9647 35.2697 27.123 34.9003 27.334C33.6341 27.9671 32.3679 28.6002 31.1017 29.1806C30.9434 29.2334 30.8906 29.3389 30.8906 29.4971C30.8906 30.9744 30.8906 32.3462 30.8906 33.8234C30.8906 34.4038 30.8906 34.9841 30.8906 35.5645C30.9434 35.5645 30.9434 35.5645 30.9961 35.5645V35.6172C31.8403 35.1952 32.6844 34.7203 33.5813 34.2982C34.1617 34.0344 34.6893 33.7707 35.2696 33.4541C35.3224 33.4013 35.4279 33.3486 35.4807 33.3486C35.5334 33.3486 35.5862 33.2958 35.5862 33.2958C35.7445 33.2431 35.85 33.1375 35.9028 32.9793C35.9555 32.9265 36.0083 32.821 36.061 32.7682C36.061 32.0296 36.061 31.291 36.061 30.5523C37.7493 30.5523 38.4352 30.5523 40.1235 30.5523C40.1235 31.1327 40.1235 31.7658 40.1235 32.3462C40.0707 32.8737 40.3345 33.1903 40.7566 33.4013C42.1811 34.0872 43.5529 34.8258 44.9774 35.459C45.0829 35.5117 45.1356 35.6172 45.2412 35.5645C45.2412 33.5069 45.2412 31.3965 45.2412 29.3389C43.5529 28.442 41.8646 27.6506 40.1763 26.7537C40.1763 27.4395 40.1763 28.1254 40.1763 28.7585Z" fill="white"/>
</g>
</g>
<defs>
<clipPath id="clip0_6744_61637">
<rect width="105.519" height="94.9668" fill="white" transform="translate(0.183594 0.481445)"/>
</clipPath>
</defs>
</svg>
