<svg width="107" height="99" viewBox="0 0 107 99" fill="none" xmlns="http://www.w3.org/2000/svg">
<g id="sourcing-models_tech-partially-outsourced.svg" clip-path="url(#clip0_6744_61806)">
<path id="Vector" d="M77.6754 94.0735L86.1568 85.592L82.864 82.2992C84.3432 79.9057 85.424 77.288 86.0641 74.5481H90.7019V62.5477H86.0641C85.4241 59.8078 84.3433 57.19 82.864 54.7967L86.1568 51.5038L81.9132 47.2602L77.6754 42.9933L74.3825 46.2862C71.9891 44.807 69.3713 43.7262 66.6315 43.0861V38.4482H54.631V43.0861C51.8911 43.7261 49.2734 44.8069 46.88 46.2862L43.5581 42.9933L35.1056 51.5038L38.3985 54.7967C36.9193 57.1901 35.8385 59.8078 35.1984 62.5477H30.5605V74.5423H35.1984C35.838 77.2842 36.9188 79.9039 38.3985 82.2992L35.1056 85.592L39.3493 89.8357L43.5581 94.0735L46.851 90.7806C49.2515 92.2729 51.8793 93.3636 54.631 94.0097V98.6476H66.6257V94.0097C69.3656 93.3697 71.9833 92.289 74.3767 90.8096L77.6754 94.0735Z" fill="#E9000E"/>
<path id="Vector_2" d="M60.6317 88.9086C71.8763 88.9086 80.9919 79.793 80.9919 68.5484C80.9919 57.3038 71.8763 48.1882 60.6317 48.1882C49.387 48.1882 40.2715 57.3038 40.2715 68.5484C40.2715 79.793 49.387 88.9086 60.6317 88.9086Z" fill="#F0F0F0"/>
<path id="Vector_3" d="M10.8503 29.7928C10.7758 29.1772 10.7371 28.5578 10.7344 27.9377C10.7382 27.3155 10.7788 26.6941 10.8561 26.0767L15.5867 24.5926C15.8088 23.8494 16.106 23.1307 16.4737 22.4476L14.1548 18.0591C14.9269 17.0825 15.8102 16.1992 16.7868 15.4271L21.1753 17.746C21.8587 17.3789 22.5773 17.0817 23.3204 16.859L24.8045 12.1284C25.4201 12.0539 26.0395 12.0152 26.6596 12.0125C27.2818 12.0163 27.9032 12.0569 28.5206 12.1342L30.0047 16.8648C30.7479 17.0869 31.4666 17.3841 32.1497 17.7518L36.5382 15.4329C37.5229 16.2036 38.4141 17.087 39.1934 18.0649L36.8745 22.4534C37.2416 23.1368 37.5388 23.8554 37.7615 24.5984L42.4921 26.0825C42.5666 26.6982 42.6053 27.3176 42.608 27.9377C42.6042 28.5599 42.5636 29.1813 42.4863 29.7986L37.7615 31.2827C37.5394 32.026 37.2422 32.7447 36.8745 33.4277L39.1934 37.8163C38.4213 38.7929 37.538 39.6762 36.5614 40.4483L32.1729 38.1294C31.4895 38.4965 30.7709 38.7936 30.0279 39.0164L28.5437 43.776C27.9281 43.8505 27.3087 43.8892 26.6886 43.8919C26.0664 43.8881 25.445 43.8474 24.8277 43.7702L23.3435 39.0396C22.6003 38.8175 21.8816 38.5203 21.1985 38.1526L16.81 40.4715C15.8334 39.6993 14.9501 38.8161 14.178 37.8395L16.4969 33.4509C16.1302 32.7674 15.8331 32.0488 15.6099 31.3059L10.8503 29.7928ZM20.8797 27.9203C20.8797 29.0669 21.2197 30.1877 21.8567 31.1411C22.4937 32.0945 23.3991 32.8375 24.4585 33.2763C25.5178 33.7151 26.6834 33.8299 27.808 33.6062C28.9326 33.3825 29.9656 32.8304 30.7763 32.0196C31.5871 31.2088 32.1392 30.1759 32.3629 29.0513C32.5866 27.9267 32.4718 26.7611 32.033 25.7018C31.5942 24.6424 30.8512 23.737 29.8978 23.1C28.9445 22.463 27.8236 22.123 26.677 22.123C25.1395 22.123 23.6649 22.7338 22.5777 23.821C21.4905 24.9082 20.8797 26.3827 20.8797 27.9203Z" fill="#FFBC0A"/>
<path id="Vector_4" d="M0.762181 62.8786C0.62094 61.8263 0.62094 60.7598 0.762181 59.7075L3.93331 58.577C4.15592 57.7916 4.47324 57.0363 4.87828 56.3276L3.43474 53.2666C4.08934 52.431 4.84267 51.6777 5.67831 51.0231L8.7161 52.4666C9.43434 52.0617 10.1995 51.7463 10.9944 51.5274L12.1249 48.3563C12.6499 48.2893 13.1784 48.2545 13.7076 48.252C14.2369 48.2557 14.7655 48.2925 15.2903 48.3621L16.4207 51.5332C17.2158 51.7518 17.981 52.0672 18.6991 52.4724L21.7369 51.0289C22.5725 51.6835 23.3259 52.4368 23.9804 53.2724L22.5427 56.3276C22.948 57.0457 23.2634 57.8109 23.4819 58.606L26.653 59.7364C26.7941 60.7888 26.7941 61.8552 26.653 62.9076L23.4819 64.0381C23.2632 64.8331 22.9478 65.5982 22.5427 66.3164L23.9862 69.3542C23.3317 70.1898 22.5783 70.9432 21.7427 71.5978L18.7049 70.1542C17.9866 70.5592 17.2215 70.8746 16.4265 71.0934L15.2961 74.2645C14.7711 74.3315 14.2426 74.3664 13.7134 74.3689C13.1842 74.3664 12.6557 74.3315 12.1307 74.2645L11.0002 71.0934C10.2052 70.8749 9.44001 70.5594 8.7219 70.1542L5.6841 71.5978C4.84847 70.9432 4.09513 70.1898 3.44054 69.3542L4.88407 66.3164C4.47913 65.5982 4.16373 64.833 3.94491 64.0381L0.762181 62.8786ZM9.35381 61.2959C9.35381 62.157 9.60915 62.9988 10.0876 63.7148C10.566 64.4307 11.2459 64.9888 12.0415 65.3183C12.837 65.6478 13.7124 65.734 14.557 65.5661C15.4015 65.3981 16.1773 64.9834 16.7862 64.3745C17.3951 63.7656 17.8097 62.9899 17.9777 62.1453C18.1457 61.3008 18.0595 60.4253 17.73 59.6298C17.4004 58.8342 16.8424 58.1543 16.1264 57.6759C15.4105 57.1975 14.5687 56.9421 13.7076 56.9421C13.1356 56.9414 12.5691 57.0535 12.0406 57.272C11.512 57.4905 11.0317 57.8112 10.6273 58.2156C10.2229 58.6201 9.90219 59.1003 9.68367 59.6289C9.46514 60.1575 9.35304 60.724 9.35381 61.2959Z" fill="#FFBC0A"/>
<path id="Vector_5" d="M75.4842 59.5333L67.9477 67.0698L65.2867 64.4436L62.6374 61.7942L70.1739 54.2577C67.9168 53.0875 65.3565 52.6334 62.8346 52.9561C60.3127 53.2787 57.9492 54.3628 56.0594 56.0636C54.1696 57.7644 52.8435 60.001 52.2579 62.4751C51.6723 64.9492 51.8551 67.543 52.7819 69.9105L46.457 76.189C48.1245 79.1482 50.5705 81.5942 53.5298 83.2617L59.843 76.9484C62.2105 77.8753 64.8043 78.0581 67.2784 77.4725C69.7525 76.8869 71.9892 75.5607 73.6899 73.6709C75.3907 71.7811 76.4748 69.4176 76.7975 66.8957C77.1201 64.3739 76.666 61.8136 75.4958 59.5565L75.4842 59.5333Z" fill="#EB1A26"/>
<path id="Vector_6" d="M60.5684 33.8054V10.6567H97.0219" stroke="#FFBC0A" stroke-width="5.79732" stroke-miterlimit="10"/>
<path id="Vector_7" d="M95.6074 0.0932617V21.2245L106.17 10.656L95.6074 0.0932617Z" fill="#FFBC0A"/>
</g>
<defs>
<clipPath id="clip0_6744_61806">
<rect width="105.511" height="98.5544" fill="white" transform="translate(0.658203 0.0930176)"/>
</clipPath>
</defs>
</svg>
