<svg width="106" height="96" viewBox="0 0 106 96" fill="none" xmlns="http://www.w3.org/2000/svg">
<g id="service-options-python-devs_staff-augmentation.svg" clip-path="url(#clip0_6744_61845)">
<path id="Vector" d="M51.3916 7.06856V39.4997C51.3923 41.1169 50.9101 42.6974 50.0068 44.0387C49.1035 45.3801 47.8202 46.4211 46.3214 47.0285C46.1456 47.0988 45.9697 47.1639 45.7938 47.2237C44.9811 47.4876 44.1317 47.6212 43.2772 47.6194H10.8408C9.00215 47.6194 7.23882 46.889 5.93871 45.5889C4.6386 44.2888 3.9082 42.5254 3.9082 40.6868V7.06856C3.9082 5.22993 4.6386 3.4666 5.93871 2.16649C7.23882 0.866381 9.00215 0.135986 10.8408 0.135986L44.459 0.135986C46.2977 0.135986 48.061 0.866381 49.3611 2.16649C50.6612 3.4666 51.3916 5.22993 51.3916 7.06856Z" fill="#D6D6D6"/>
<path id="Vector_2" d="M27.9196 8.41971C26.911 8.19535 25.869 8.16491 24.849 8.33002C23.3875 8.5359 21.9905 9.06586 20.7602 9.88114C19.1774 10.9363 16.8929 13.2577 19.4464 19.5889L20.6335 21.7678C20.2273 26.5162 18.291 26.5162 18.291 26.5162C18.6875 26.7189 19.1128 26.8595 19.552 26.933C19.552 26.933 20.1481 26.7061 20.2695 26.3737C20.2191 26.6167 20.1262 26.8489 19.9951 27.0596C19.9951 27.0596 23.2873 27.3709 24.9334 26.1257C25.825 25.461 26.8064 23.8782 27.4395 22.2479L29.9297 22.422C29.9221 23.0904 29.7804 23.7504 29.513 24.3631C29.2457 24.9757 28.8581 25.5284 28.3733 25.9886C28.3733 25.9886 31.4492 26.2893 32.4886 25.461C32.3825 25.6773 32.2496 25.8794 32.0929 26.0624C32.0929 26.0624 35.5275 26.1838 36.9467 25.1128C38.3659 24.0417 37.4532 6.46762 27.9196 8.41971Z" fill="white"/>
<path id="Vector_3" d="M39.8217 47.6198H15.4838C15.1654 45.859 15.0433 44.0683 15.1198 42.2805C15.3258 40.253 16.087 38.3215 17.3198 36.6986C18.454 35.1309 19.8203 33.745 21.3717 32.5887L21.5247 32.5623C21.6988 32.5306 21.9996 32.4831 22.3214 32.4568C22.6221 32.2985 22.7488 31.1958 22.7857 29.9032C22.7857 29.5444 22.7857 29.1698 22.7857 28.8005C22.7857 28.4312 22.7857 28.1569 22.7857 27.8403C22.7857 27.6926 22.7857 27.5449 22.7857 27.3971V27.2758C22.7857 27.2125 22.7857 27.1544 22.7857 27.0911C22.7857 27.0278 22.7857 26.9962 22.7857 26.9487C22.7857 26.9012 22.7857 26.8062 22.7857 26.7324V26.4475C22.7857 26.4475 22.7857 26.4105 22.7857 26.3894V26.1309V25.8355V25.7616C22.7857 25.6086 22.7857 25.4714 22.7857 25.3448C22.7857 25.3131 22.7857 25.2762 22.7857 25.2446C22.7857 25.2129 22.7857 25.1707 22.7857 25.1338C22.7857 25.0968 22.7857 25.0652 22.7857 25.0335C22.7857 25.0019 22.7857 24.8383 22.7857 24.7644C22.7857 24.6906 22.7857 24.7328 22.7857 24.717V24.564L26.8904 23.7515L29.7024 23.1922L30.0295 23.1289H30.114C30.109 24.1037 30.1618 25.078 30.2722 26.0465C30.3014 26.7336 30.3665 27.4186 30.4674 28.0988C30.995 30.3675 31.7759 31.734 32.351 31.9608H32.409C35.2158 32.5623 39.4682 39.822 39.8217 47.6198Z" fill="white"/>
<path id="Vector_4" d="M22.6328 24.5687C22.6328 24.5687 22.7911 26.7476 22.7964 28.7894C26.6689 28.6786 28.716 25.149 29.5548 23.1917L22.6328 24.5687Z" fill="white"/>
<path id="Vector_5" d="M21.3399 26.5159C21.3399 26.5159 30.5042 26.6689 30.5095 20.9603C30.5147 15.2518 31.7018 11.4267 25.8508 11.0891C19.9998 10.7514 18.8602 12.9304 18.3959 14.835C17.9316 16.7396 18.9605 26.326 21.3399 26.5159Z" fill="white"/>
<path id="Vector_6" d="M21.6816 10.9459C21.6816 10.9459 24.1877 17.641 28.0391 18.6329C31.8906 19.6248 33.5578 18.6012 33.5578 18.6012C31.6559 16.9297 30.395 14.6484 29.9912 12.1488C29.9912 12.1488 23.5704 7.7592 21.6816 10.9459Z" fill="white"/>
<path id="Vector_7" d="M22.3001 11.4894C22.3001 11.4894 20.4272 12.9825 19.9682 14.4386C19.5092 15.8948 19.3034 18.8862 18.4329 18.7807C18.4329 18.7807 16.5441 14.2276 18.665 11.6529C20.9231 8.92527 22.3001 11.4894 22.3001 11.4894Z" fill="white"/>
<path id="Vector_8" d="M21.9512 11.7165C21.9512 11.7165 23.7397 18.7282 28.5988 20.9758C28.5988 20.9758 23.7397 16.6653 23.3229 12.0383C22.9061 7.41135 21.9512 11.7165 21.9512 11.7165Z" fill="white"/>
<path id="Vector_9" d="M45.129 44.1529L44.67 43.0502L44.4431 42.5226C42.3327 37.4947 40.6497 33.696 40.4862 33.4216C40.0113 32.625 33.5589 31.8389 32.6145 31.8389C31.9286 31.8389 31.5593 29.5649 31.401 28.3198C31.3909 28.2415 31.361 28.1671 31.3141 28.1036C31.2673 28.0401 31.205 27.9896 31.1332 27.9569C31.0613 27.9241 30.9824 27.9102 30.9037 27.9165C30.825 27.9228 30.7492 27.949 30.6835 27.9927L30.4672 28.0982L30.2139 28.2618L29.9607 28.4148L29.7919 28.515L29.5966 28.6205L29.4225 28.7155L29.2432 28.8052L29.0691 28.8896L28.9319 28.9529L28.6734 29.0637L28.4887 29.1429L28.3568 29.1956C28.1194 29.2906 27.8872 29.375 27.6498 29.4489C26.0917 30.0118 24.4161 30.1697 22.7801 29.9079H22.701C22.5818 29.8839 22.4586 29.8893 22.342 29.9236C22.2253 29.9578 22.1188 30.02 22.0316 30.1046C21.9443 30.1893 21.879 30.2939 21.8412 30.4095C21.8034 30.525 21.7943 30.648 21.8146 30.7678C21.9571 31.4168 21.994 32.1238 21.63 32.4772C19.9892 32.8413 16.0006 33.8595 15.2567 35.2788C14.7291 36.297 14.671 42.2905 14.3809 47.6139H43.2719C44.1264 47.6157 44.9758 47.4821 45.7885 47.2182C45.9714 47.1584 46.1473 47.0933 46.3161 47.023C45.9151 46.0364 45.5194 45.0867 45.129 44.1529Z" fill="white"/>
<path id="Vector_10" d="M36.3602 47.6194H32.4824C33.4637 45.9944 34.3976 44.8179 34.941 44.7493C35.4844 44.6807 35.8959 45.9153 36.3602 47.6194Z" fill="white"/>
<path id="Vector_11" d="M32.6043 31.7915C32.6043 31.7915 27.7715 34.8516 24.1153 34.1288C24.1153 34.1288 23.2395 33.5748 24.4477 33.0156C25.6559 32.4563 28.2306 30.9474 27.6502 29.4227C28.7226 29.0755 29.7404 28.5781 30.6733 27.9454C30.7387 27.9001 30.8147 27.8726 30.8938 27.8656C30.973 27.8585 31.0527 27.8721 31.125 27.9051C31.1973 27.9381 31.2598 27.9893 31.3065 28.0537C31.3531 28.1181 31.3821 28.1935 31.3908 28.2725C31.5438 29.5387 31.9184 31.7915 32.6043 31.7915Z" fill="white"/>
<path id="Vector_12" d="M47.3984 13.5369H50.564" stroke="#E9000E" stroke-width="2.11037" stroke-miterlimit="10"/>
<path id="Vector_13" d="M53.1797 13.5369H69.6723" stroke="#E9000E" stroke-width="2.11037" stroke-miterlimit="10" stroke-dasharray="6.28 2.62"/>
<path id="Vector_14" d="M70.9805 13.5369H74.146V16.7024" stroke="#E9000E" stroke-width="2.11037" stroke-miterlimit="10"/>
<path id="Vector_15" d="M74.1465 18.9814V41.0771" stroke="#E9000E" stroke-width="2.11037" stroke-miterlimit="10" stroke-dasharray="5.47 2.28"/>
<path id="Vector_16" d="M74.1465 42.2173V45.3828" stroke="#E9000E" stroke-width="2.11037" stroke-miterlimit="10"/>
<path id="Vector_17" d="M48.9338 18.7968L39.8223 13.5367L48.9338 8.27661V18.7968Z" fill="#E9000E"/>
<path id="Vector_18" d="M74.2791 25.4606C71.0914 25.4272 68.0472 24.131 65.8139 21.8562C63.5806 19.5814 62.3407 16.5137 62.366 13.326C62.2984 11.7201 62.5563 10.1171 63.1243 8.61338C63.6922 7.10971 64.5584 5.73646 65.6708 4.57623C66.7832 3.416 68.1188 2.49277 69.5973 1.86207C71.0757 1.23138 72.6664 0.90625 74.2738 0.90625C75.8811 0.90625 77.4719 1.23138 78.9503 1.86207C80.4288 2.49277 81.7644 3.416 82.8768 4.57623C83.9892 5.73646 84.8554 7.10971 85.4233 8.61338C85.9913 10.1171 86.2492 11.7201 86.1816 13.326C86.2069 16.5119 84.9684 19.578 82.7374 21.8525C80.5064 24.127 77.4649 25.4244 74.2791 25.4606Z" fill="#E9000E"/>
<path id="Vector_19" d="M74.2776 2.24636C77.1849 2.27837 79.9605 3.46335 81.9945 5.54089C84.0285 7.61842 85.1545 10.4185 85.1249 13.3258C85.1568 14.7722 84.8995 16.2103 84.368 17.5559C83.8365 18.9015 83.0417 20.1273 82.03 21.1615C81.0184 22.1957 79.8103 23.0174 78.4768 23.5784C77.1433 24.1394 75.7111 24.4284 74.2644 24.4284C72.8177 24.4284 71.3856 24.1394 70.0521 23.5784C68.7185 23.0174 67.5105 22.1957 66.4989 21.1615C65.4872 20.1273 64.6923 18.9015 64.1609 17.5559C63.6294 16.2103 63.372 14.7722 63.4039 13.3258C63.3893 11.8841 63.6591 10.4536 64.1978 9.11615C64.7366 7.77874 65.5337 6.56068 66.5437 5.53163C67.5536 4.50259 68.7565 3.68276 70.0836 3.11904C71.4106 2.55532 72.8358 2.25877 74.2776 2.24636ZM74.2776 0.135986C70.8101 0.169425 67.4975 1.57686 65.0663 4.04954C62.6352 6.52223 61.2841 9.85826 61.3094 13.3258C61.2389 15.0721 61.522 16.8147 62.1417 18.4489C62.7614 20.0831 63.7049 21.5752 64.9156 22.8358C66.1262 24.0963 67.5791 25.0992 69.187 25.7843C70.7949 26.4693 72.5246 26.8225 74.2723 26.8225C76.0201 26.8225 77.7498 26.4693 79.3577 25.7843C80.9656 25.0992 82.4185 24.0963 83.6291 22.8358C84.8398 21.5752 85.7833 20.0831 86.403 18.4489C87.0227 16.8147 87.3058 15.0721 87.2353 13.3258C87.2606 9.86007 85.911 6.52562 83.4821 4.05324C81.0532 1.58085 77.7433 0.1722 74.2776 0.135986Z" fill="white"/>
<path id="Vector_20" d="M74.2773 7.69604V18.9549" stroke="white" stroke-width="2.11037" stroke-miterlimit="10"/>
<path id="Vector_21" d="M68.6504 13.3264H79.9092" stroke="white" stroke-width="2.11037" stroke-miterlimit="10"/>
<path id="Vector_22" d="M101.977 47.7933V85.6059C101.975 87.4919 101.412 89.3346 100.358 90.8991C99.305 92.4635 97.8097 93.6789 96.063 94.3904C95.859 94.4748 95.6515 94.5504 95.4405 94.6172C94.4961 94.9324 93.5079 95.0963 92.5123 95.1026H54.6681C53.6059 95.1026 52.5542 94.8934 51.5729 94.4869C50.5917 94.0805 49.7 93.4847 48.949 92.7337C48.198 91.9827 47.6022 91.091 47.1957 90.1098C46.7893 89.1285 46.5801 88.0767 46.5801 87.0146V47.7933C46.5801 45.6483 47.4322 43.591 48.949 42.0742C50.4658 40.5574 52.523 39.7053 54.6681 39.7053H93.8894C96.0344 39.7053 98.0917 40.5574 99.6084 42.0742C101.125 43.591 101.977 45.6483 101.977 47.7933Z" fill="#D6EEFC"/>
<path id="Vector_23" d="M74.5738 49.3663C73.3972 49.1041 72.1814 49.0683 70.9914 49.2608C69.2775 49.4973 67.6386 50.1158 66.1956 51.0704C64.349 52.3156 61.6847 55.0116 64.6656 62.3979L66.0795 64.9409C65.61 70.4753 63.3466 70.4753 63.3466 70.4753C63.8075 70.713 64.3022 70.8785 64.8133 70.966C64.8133 70.966 65.5097 70.6969 65.6522 70.3118C65.5942 70.5955 65.4871 70.8669 65.3356 71.1137C65.3356 71.1137 69.1765 71.4778 71.0969 70.0269C72.1521 69.2355 73.2812 67.3889 74.0198 65.5001L76.9269 65.7059C76.9585 66.9563 76.5101 68.3861 75.1119 69.8791C75.1119 69.8791 78.6996 70.2326 79.913 69.2355C79.7901 69.4877 79.6359 69.7235 79.454 69.9372C79.454 69.9372 83.4637 70.0796 85.1151 68.8292C86.7665 67.5788 85.7166 47.0924 74.5738 49.3663Z" fill="#E9000E"/>
<path id="Vector_24" d="M88.4818 95.1032H60.1025C59.7322 93.0499 59.5907 90.962 59.6804 88.8776C59.9134 86.5124 60.7953 84.2575 62.2287 82.3618C63.5583 80.5309 65.1595 78.9137 66.9771 77.566L67.1564 77.5343C67.3569 77.4974 67.684 77.4446 68.085 77.4077C68.4385 77.223 68.5809 75.9357 68.6126 74.4321C68.6126 74.0153 68.6126 73.5774 68.6126 73.1447C68.6126 72.7121 68.6126 72.3955 68.6126 72.021C68.6126 71.8486 68.6126 71.6727 68.6126 71.4934V71.3615C68.6126 71.2876 68.6126 71.219 68.6126 71.1452C68.6126 71.0713 68.6126 71.0344 68.6126 70.9816C68.6126 70.9288 68.6126 70.8128 68.6126 70.7284C68.6126 70.6439 68.6126 70.5068 68.6126 70.396C68.6126 70.396 68.6126 70.3485 68.6126 70.3274V70.0267V69.6837V69.5993C68.6126 69.4252 68.6126 69.2616 68.5862 69.1139C68.5862 69.0717 68.5862 69.0348 68.5862 68.9979C68.5862 68.9609 68.5862 68.9082 68.5862 68.866C68.5862 68.8237 68.5862 68.7868 68.5862 68.7499C68.5862 68.6233 68.5862 68.523 68.5862 68.4386C68.5862 68.3542 68.5862 68.4017 68.5862 68.3858V68.1959L73.3768 67.2462L76.6584 66.5973L77.0435 66.5234H77.1385C77.1327 67.6604 77.1944 68.7967 77.3232 69.9264C77.4141 70.7349 77.5479 71.538 77.7241 72.3322C78.3203 74.9702 79.2542 76.553 79.9242 76.8379H79.9928C83.1056 77.5343 88.0702 86.0075 88.4818 95.1032Z" fill="#D9935C"/>
<path id="Vector_25" d="M68.4277 68.196C68.4277 68.196 68.6124 70.739 68.6177 73.129C73.1339 73.0024 75.5239 68.8819 76.5052 66.5974L68.4277 68.196Z" fill="#CB7D45"/>
<path id="Vector_26" d="M66.9184 70.48C66.9184 70.48 77.6074 70.6541 77.618 63.9959C77.6285 57.3377 79.0108 52.8742 72.1838 52.4785C65.3567 52.0828 64.0219 54.6258 63.4943 56.847C62.9667 59.0682 64.138 70.2584 66.9184 70.48Z" fill="#D9935C"/>
<path id="Vector_27" d="M67.3145 52.315C67.3145 52.315 70.2426 60.1286 74.7324 61.2841C79.2222 62.4395 81.1743 61.2366 81.1743 61.2366C78.9577 59.2906 77.4862 56.6349 77.0116 53.7237C77.0116 53.7237 69.5251 48.6007 67.3145 52.315Z" fill="#E9000E"/>
<path id="Vector_28" d="M68.0421 52.9539C68.0421 52.9539 65.8579 54.7003 65.325 56.3939C64.7921 58.0874 64.5547 61.5801 63.5365 61.464C63.5365 61.464 61.3311 56.1564 63.8108 53.1492C66.433 49.9625 68.0421 52.9539 68.0421 52.9539Z" fill="#E9000E"/>
<path id="Vector_29" d="M67.6367 53.2176C67.6367 53.2176 69.7471 61.4006 75.3923 64.0174C75.3923 64.0174 69.726 58.9895 69.2406 53.5922C68.7552 48.1949 67.6367 53.2176 67.6367 53.2176Z" fill="#E9000E"/>
<path id="Vector_30" d="M94.6701 91.0614L94.1425 89.7741L93.8787 89.1463C91.4096 83.2794 89.4522 78.8529 89.257 78.5258C88.7294 77.592 81.1795 76.6687 80.0716 76.674C79.2697 76.674 78.8317 74.036 78.6524 72.5693C78.6444 72.4758 78.6117 72.3861 78.5575 72.3095C78.5034 72.2329 78.4298 72.1721 78.3443 72.1334C78.2588 72.0947 78.1646 72.0795 78.0713 72.0893C77.978 72.0992 77.889 72.1337 77.8135 72.1894L77.5761 72.3477L77.2806 72.5376L76.9852 72.717L76.7847 72.8331L76.5578 72.9544L76.3521 73.06L76.1463 73.1655L75.9405 73.2657L75.777 73.3396L75.4763 73.4715L75.2599 73.5612L75.1069 73.6245C74.8326 73.73 74.5793 73.8303 74.2839 73.9199C72.4667 74.5733 70.5135 74.7548 68.607 74.4475H68.5173C68.3717 74.4128 68.2197 74.4159 68.0757 74.4567C67.9317 74.4974 67.8005 74.5743 67.6947 74.6801C67.5889 74.7859 67.512 74.9171 67.4712 75.0611C67.4305 75.2051 67.4274 75.3572 67.4621 75.5027C67.6257 76.2572 67.6732 77.0855 67.2458 77.497C65.3359 77.9244 60.6825 79.1115 59.8067 80.7681C59.1789 81.9552 59.1209 88.9458 58.7832 95.1608H92.5122C93.5084 95.1619 94.4985 95.0052 95.4457 94.6966C95.6567 94.6297 95.8642 94.5541 96.0682 94.4697C95.5934 93.2668 95.1502 92.143 94.6701 91.0614Z" fill="#FFBC0A"/>
<path id="Vector_31" d="M84.4408 95.103H79.9141C81.0589 93.2089 82.1511 91.8319 82.7789 91.7528C83.3276 91.6895 83.9027 93.114 84.4408 95.103Z" fill="#FFBC0A"/>
<path id="Vector_32" d="M80.0618 76.6378C80.0618 76.6378 74.4271 80.2096 70.1588 79.3602C70.1588 79.3602 69.1353 78.7112 70.5493 78.0623C71.8735 77.4556 74.9599 75.6512 74.2846 73.8732C75.5349 73.4674 76.7215 72.8865 77.8089 72.148C77.8844 72.0937 77.9729 72.0602 78.0655 72.0511C78.158 72.042 78.2513 72.0575 78.3359 72.0961C78.4206 72.1346 78.4935 72.1949 78.5473 72.2707C78.6012 72.3465 78.634 72.4352 78.6425 72.5278C78.8219 73.9998 79.2598 76.6378 80.0618 76.6378Z" fill="#FFBC0A"/>
</g>
<defs>
<clipPath id="clip0_6744_61845">
<rect width="105.519" height="94.9668" fill="white" transform="translate(0.183594 0.135742)"/>
</clipPath>
</defs>
</svg>
