<svg width="106" height="95" viewBox="0 0 106 95" fill="none" xmlns="http://www.w3.org/2000/svg">
<g id="crm_dedicated_services_crm_implementation_consulting.svg" clip-path="url(#clip0_6744_61739)">
<g id="Group">
<path id="Vector" d="M91.144 14.6892V47.0941H73.8613" stroke="#EAEAEA" stroke-width="3.16146" stroke-miterlimit="10"/>
<path id="Vector_2" d="M75.4414 41.6135L65.9043 47.0934L75.4414 52.6259V41.6135Z" fill="#EAEAEA"/>
<path id="Vector_3" d="M16.2188 14.6892H66.8547" stroke="#EAEAEA" stroke-width="3.16146" stroke-miterlimit="10"/>
<path id="Vector_4" d="M65.4844 20.1689L75.0214 14.689L65.4844 9.15649V20.1689Z" fill="#EAEAEA"/>
<path id="Vector_5" d="M16.2188 58.6328V47.3569H45.5149" stroke="#EAEAEA" stroke-width="3.16146" stroke-miterlimit="10"/>
<path id="Vector_6" d="M21.698 54.3647L16.2181 63.9018L10.6855 54.3647H21.698Z" fill="#EAEAEA"/>
<path id="Vector_7" d="M67.0641 79.814H26.3867" stroke="#EAEAEA" stroke-width="3.16146" stroke-miterlimit="10"/>
<path id="Vector_8" d="M63.9043 74.2812L73.4414 79.8138L63.9043 85.3463V74.2812Z" fill="#EAEAEA"/>
<path id="Vector_9" d="M14.9005 28.4936C22.6994 28.4936 29.0216 22.1713 29.0216 14.3724C29.0216 6.57348 22.6994 0.251221 14.9005 0.251221C7.10156 0.251221 0.779297 6.57348 0.779297 14.3724C0.779297 22.1713 7.10156 28.4936 14.9005 28.4936Z" fill="#FFBC0A"/>
<path id="Vector_10" d="M17.2715 21.4333V22.4345C17.2715 23.1722 16.6392 23.8044 15.9016 23.8044H13.952C13.267 23.8044 12.582 23.2775 12.582 22.171V21.4333H17.2715Z" fill="white"/>
<path id="Vector_11" d="M18.3774 10.0519C15.9537 8.15502 12.476 8.57654 10.5792 10.9476C8.6823 13.3187 9.10383 16.849 11.5276 18.7459C12.0018 19.1147 12.318 19.6416 12.476 20.2212H17.3236C17.4817 19.589 17.7978 19.062 18.3247 18.6405C19.642 17.5867 20.4324 16.006 20.4324 14.2672C20.4324 12.6864 19.6947 11.1057 18.3774 10.0519Z" fill="white"/>
<g id="_Group_">
<path id="Vector_12" d="M18.4316 13.582C18.4316 13.7928 18.2735 13.9509 18.0628 13.9509C17.852 13.9509 17.6939 13.7928 17.6939 13.582C17.6939 12.8444 17.1143 12.2648 16.3766 12.2648C16.1659 12.2648 16.0078 12.1067 16.0078 11.8959C16.0078 11.6852 16.1659 11.5271 16.3766 11.5271C17.5359 11.5798 18.4316 12.4755 18.4316 13.582Z" fill="#FFBC0A"/>
<path id="Vector_13" d="M18.4316 13.582C18.4316 13.7928 18.2735 13.9509 18.0628 13.9509C17.852 13.9509 17.6939 13.7928 17.6939 13.582C17.6939 12.8444 17.1143 12.2648 16.3766 12.2648C16.1659 12.2648 16.0078 12.1067 16.0078 11.8959C16.0078 11.6852 16.1659 11.5271 16.3766 11.5271C17.5359 11.5798 18.4316 12.4755 18.4316 13.582Z" fill="#FFBC0A"/>
</g>
<path id="Vector_14" d="M15.4815 4.88843H14.3223V7.62836H15.4815V4.88843Z" fill="white"/>
<path id="Vector_15" d="M24.3845 13.7395H21.6445V14.8987H24.3845V13.7395Z" fill="white"/>
<path id="Vector_16" d="M8.20868 13.7395H5.46875V14.8987H8.20868V13.7395Z" fill="white"/>
<path id="Vector_17" d="M8.58334 7.19547L7.76367 8.01514L9.70108 9.95254L10.5207 9.13287L8.58334 7.19547Z" fill="white"/>
<path id="Vector_18" d="M9.70498 18.6839L7.76758 20.6213L8.58725 21.441L10.5247 19.5036L9.70498 18.6839Z" fill="white"/>
<path id="Vector_19" d="M21.1894 7.19443L19.252 9.13184L20.0716 9.95151L22.009 8.0141L21.1894 7.19443Z" fill="white"/>
<path id="Vector_20" d="M20.0755 18.684L19.2559 19.5037L21.1933 21.4411L22.0129 20.6214L20.0755 18.684Z" fill="white"/>
<path id="Vector_21" d="M90.9864 26.1222C97.4758 26.1222 102.736 20.8615 102.736 14.3721C102.736 7.88276 97.4758 2.62207 90.9864 2.62207C84.497 2.62207 79.2363 7.88276 79.2363 14.3721C79.2363 20.8615 84.497 26.1222 90.9864 26.1222Z" fill="url(#paint0_linear_6744_61739)"/>
<path id="Vector_22" d="M90.9864 94.7787C98.7853 94.7787 105.108 88.4565 105.108 80.6575C105.108 72.8586 98.7853 66.5364 90.9864 66.5364C83.1875 66.5364 76.8652 72.8586 76.8652 80.6575C76.8652 88.4565 83.1875 94.7787 90.9864 94.7787Z" fill="#E9000E" stroke="#E9000E" stroke-width="0.526909" stroke-miterlimit="10"/>
<g id="Group_2">
<path id="Vector_23" d="M92.251 20.1155H89.7218V13.1603V12.0011L89.7745 10.7366C89.3529 11.1581 89.0368 11.4215 88.8787 11.5796L87.5088 12.6861L86.2969 11.1581L90.196 8.04932H92.3036V20.1155H92.251Z" fill="white"/>
</g>
<path id="Vector_24" d="M50.9415 59.1066C57.4309 59.1066 62.6916 53.8459 62.6916 47.3565C62.6916 40.8671 57.4309 35.6064 50.9415 35.6064C44.4521 35.6064 39.1914 40.8671 39.1914 47.3565C39.1914 53.8459 44.4521 59.1066 50.9415 59.1066Z" fill="url(#paint1_linear_6744_61739)" stroke="url(#paint2_linear_6744_61739)" stroke-width="0.526909" stroke-miterlimit="10"/>
<g id="Group_3">
<path id="Vector_25" d="M55.0516 53.1528H46.6211V51.3613L49.6245 48.3052C50.5202 47.4095 51.0998 46.7772 51.3633 46.4084C51.6267 46.0395 51.8375 45.7234 51.9429 45.4072C52.0483 45.0911 52.101 44.7749 52.101 44.4588C52.101 43.9846 51.9429 43.6157 51.6794 43.405C51.416 43.1942 51.0471 43.0361 50.6256 43.0361C50.1514 43.0361 49.7299 43.1415 49.2556 43.3523C48.8341 43.5631 48.3599 43.8792 47.8857 44.248L46.6211 42.6673C47.2007 42.1404 47.7276 41.8243 48.0964 41.6135C48.4653 41.4027 48.8868 41.2447 49.361 41.1393C49.8352 41.0339 50.3621 40.9812 50.8891 40.9812C51.6267 40.9812 52.3117 41.1393 52.8913 41.4027C53.4709 41.6662 53.8924 42.0877 54.2086 42.5619C54.5247 43.0361 54.6828 43.6158 54.6828 44.248C54.6828 44.8276 54.5774 45.3019 54.3667 45.8288C54.1559 46.303 53.8924 46.8299 53.4709 47.3041C53.0494 47.831 52.3644 48.516 51.3106 49.4644L49.7826 50.9398V51.0452H55.0516V53.1528Z" fill="white"/>
</g>
<path id="Vector_26" d="M16.2169 91.5649C22.7063 91.5649 27.967 86.3042 27.967 79.8148C27.967 73.3254 22.7063 68.0647 16.2169 68.0647C9.72749 68.0647 4.4668 73.3254 4.4668 79.8148C4.4668 86.3042 9.72749 91.5649 16.2169 91.5649Z" fill="url(#paint3_linear_6744_61739)"/>
<g id="Group_4">
<path id="Vector_27" d="M19.8528 76.2315C19.8528 76.9692 19.6421 77.6015 19.1678 78.1284C18.6936 78.6553 18.0613 79.0241 17.271 79.2349V79.2876C18.2194 79.393 18.9571 79.7091 19.484 80.1833C19.9582 80.6575 20.2217 81.2898 20.2217 82.0802C20.2217 83.2394 19.8001 84.1351 18.9571 84.7674C18.114 85.3997 16.9021 85.7159 15.3741 85.7159C14.0568 85.7159 12.8976 85.5051 11.8965 85.0836V82.9232C12.3707 83.134 12.8976 83.3448 13.4245 83.5028C13.9514 83.6609 14.531 83.7136 15.1106 83.7136C15.9537 83.7136 16.586 83.5555 16.9548 83.2921C17.3763 83.0286 17.5344 82.5544 17.5344 81.9221C17.5344 81.3425 17.3237 80.9737 16.8494 80.7102C16.3752 80.4995 15.6375 80.3414 14.6364 80.3414H13.7407V78.3918H14.6891C15.6375 78.3918 16.3225 78.2864 16.744 78.023C17.1656 77.7595 17.3763 77.338 17.3763 76.7584C17.3763 75.8627 16.7967 75.3884 15.6375 75.3884C15.216 75.3884 14.8472 75.4411 14.4256 75.5992C14.0041 75.7573 13.5826 75.968 13.0557 76.2842L11.8965 74.5454C13.003 73.755 14.3203 73.3335 15.8483 73.3335C17.1129 73.3335 18.0613 73.5969 18.799 74.0712C19.5367 74.6508 19.8528 75.3358 19.8528 76.2315Z" fill="white"/>
</g>
<path id="Vector_28" d="M85.2958 76.1266L84.0839 76.5481C83.9785 76.6008 83.8731 76.6535 83.8731 76.7589L83.3462 77.8654L82.9247 76.6535C82.872 76.5481 82.8193 76.4427 82.7139 76.4427L81.6074 75.9158L82.8193 75.4943C82.9247 75.4416 83.0301 75.3889 83.0301 75.2835L83.557 74.177L83.9785 75.3889C84.0312 75.4943 84.0839 75.5997 84.1893 75.5997L85.2958 76.1266Z" fill="white"/>
<path id="Vector_29" d="M98.7841 87.5069L97.5722 87.9285C97.4668 87.9812 97.3614 88.0339 97.3614 88.1392L96.8345 89.2457L96.413 88.0338C96.3603 87.9285 96.3076 87.8231 96.2022 87.8231L95.0957 87.2962L96.3076 86.8746C96.413 86.822 96.5184 86.7693 96.5184 86.6639L97.0453 85.5574L97.4668 86.7693C97.5195 86.8746 97.5722 86.98 97.6776 86.98L98.7841 87.5069Z" fill="white"/>
<path id="Vector_30" d="M90.6178 72.9651L88.5629 73.6501C88.3521 73.7028 88.2467 73.8608 88.194 74.0189L87.351 76.0212L86.666 73.9662C86.6133 73.7554 86.4553 73.6501 86.2972 73.5974L84.2949 72.7543L86.3499 72.0693C86.5606 72.0166 86.666 71.8586 86.7187 71.7005L87.5618 69.6982L88.2467 71.7532C88.2994 71.9639 88.4575 72.0693 88.6156 72.122L90.6178 72.9651Z" fill="white"/>
<path id="Vector_31" d="M84.3477 82.1326L86.6661 79.8142L89.4587 82.5015L95.6235 76.2839L97.9419 78.6023L89.4587 87.1383L84.3477 82.1326Z" fill="white"/>
</g>
</g>
<defs>
<linearGradient id="paint0_linear_6744_61739" x1="98.3265" y1="2.62206" x2="77.7014" y2="7.84441" gradientUnits="userSpaceOnUse">
<stop stop-color="#AC2121"/>
<stop offset="1" stop-color="#E9000E"/>
</linearGradient>
<linearGradient id="paint1_linear_6744_61739" x1="58.2816" y1="35.6064" x2="37.6565" y2="40.8288" gradientUnits="userSpaceOnUse">
<stop stop-color="#AC2121"/>
<stop offset="1" stop-color="#E9000E"/>
</linearGradient>
<linearGradient id="paint2_linear_6744_61739" x1="58.2816" y1="35.6064" x2="37.6565" y2="40.8288" gradientUnits="userSpaceOnUse">
<stop stop-color="#AC2121"/>
<stop offset="1" stop-color="#E9000E"/>
</linearGradient>
<linearGradient id="paint3_linear_6744_61739" x1="23.557" y1="68.0647" x2="2.93191" y2="73.287" gradientUnits="userSpaceOnUse">
<stop stop-color="#AC2121"/>
<stop offset="1" stop-color="#E9000E"/>
</linearGradient>
<clipPath id="clip0_6744_61739">
<rect width="105.382" height="94.8437" fill="white" transform="translate(0.251953 0.0930176)"/>
</clipPath>
</defs>
</svg>
