<svg width="107" height="96" viewBox="0 0 107 96" fill="none" xmlns="http://www.w3.org/2000/svg">
<g id="service_sw-product-development.svg" clip-path="url(#clip0_6744_61686)">
<path id="Vector" d="M53.4141 24.6392L87.5071 36.3728L100.729 26.127L66.6355 14.3933L53.4141 24.6392Z" fill="#E5F3FD"/>
<path id="Vector_2" d="M53.4142 24.6392L19.3211 36.3728L6.09961 26.127L40.1927 14.3933L53.4142 24.6392Z" fill="#C9E8FF"/>
<path id="Vector_3" d="M87.5074 36.4469L53.4143 24.6921L18.9941 36.4469V74.5814L53.2508 63.8185L87.5074 74.5814V36.4469Z" fill="#70BEF2"/>
<path id="Vector_4" d="M24.1738 8.76855H82.6523V42.6031C82.6523 43.8079 82.1737 44.9633 81.3218 45.8152C80.4699 46.6671 79.3145 47.1457 78.1097 47.1457H28.7164C27.5116 47.1457 26.3562 46.6671 25.5043 45.8152C24.6524 44.9633 24.1738 43.8079 24.1738 42.6031V8.76855Z" fill="#E9000E"/>
<path id="Vector_5" d="M48.1846 10.9009H24.1738V0.480957H42.6132L48.1846 10.9009Z" fill="#E9000E"/>
<path id="Vector_6" d="M78.8909 12.7739H27.957V30.1054H78.8909V12.7739Z" fill="#A40D08"/>
<path id="Vector_7" d="M78.8909 33.7559H27.957V37.7603H78.8909V33.7559Z" fill="url(#paint0_linear_6744_61686)"/>
<path id="Vector_8" d="M18.9941 74.56L53.0819 86.7527L53.4143 48.175L18.9941 36.4255V74.56Z" fill="#C9E8FF"/>
<path id="Vector_9" d="M87.5055 74.56L53.0801 86.7527V48.175L87.5055 36.4255V74.56Z" fill="#70BEF2"/>
<path id="Vector_10" d="M0.654297 47.5525L35.0745 59.3073L53.5772 48.175L19.157 36.4255L0.654297 47.5525Z" fill="#E5F3FD"/>
<path id="Vector_11" d="M106.173 47.5525L71.7527 59.3073L53.25 48.175L87.6702 36.4255L106.173 47.5525Z" fill="#C9E8FF"/>
<path id="Vector_12" d="M44.783 11.5972L42.0078 12.6524L44.783 13.7075C46.1005 14.4303 47.1828 15.5162 47.901 16.8362L48.9562 19.6113L50.0114 16.8362C50.7284 15.5179 51.8112 14.4351 53.1295 13.7181L55.9046 12.6629L53.1295 11.6077C51.8134 10.8878 50.7313 9.80573 50.0114 8.48965L48.9562 5.70923L47.901 8.48965C47.1765 9.79953 46.0953 10.8771 44.783 11.5972Z" fill="#FFBC0A"/>
<path id="Vector_13" d="M58.2304 22.2123L56.8164 22.7399L58.2304 23.2675C58.8979 23.6337 59.447 24.1828 59.8131 24.8503L60.3407 26.2642L60.8683 24.8503C61.2345 24.1828 61.7836 23.6337 62.4511 23.2675L63.8651 22.7399L62.4511 22.2123C61.7847 21.8447 61.2359 21.296 60.8683 20.6295L60.3407 19.2156L59.8131 20.6295C59.4456 21.296 58.8968 21.8447 58.2304 22.2123Z" fill="#FFBC0A"/>
<path id="Vector_14" d="M31.8671 32.975L30.4531 33.5026L31.8671 34.0302C32.5339 34.3973 33.0827 34.9462 33.4499 35.613L33.9774 37.0269L34.505 35.613C34.8707 34.9451 35.42 34.3959 36.0878 34.0302L37.4965 33.5026L36.0878 32.975C35.4187 32.611 34.8691 32.0613 34.505 31.3922L33.9774 29.9783L33.4499 31.3922C33.0842 32.0601 32.5349 32.6093 31.8671 32.975Z" fill="#FFBC0A"/>
<path id="Vector_15" d="M87.7705 96.4498C95.7835 96.4498 102.279 89.9539 102.279 81.9409C102.279 73.9279 95.7835 67.4321 87.7705 67.4321C79.7575 67.4321 73.2617 73.9279 73.2617 81.9409C73.2617 89.9539 79.7575 96.4498 87.7705 96.4498Z" fill="#E9000E"/>
<path id="Vector_16" d="M87.7712 68.7512C90.3799 68.7512 92.93 69.5248 95.099 70.9741C97.2681 72.4235 98.9587 74.4834 99.957 76.8936C100.955 79.3037 101.216 81.9557 100.708 84.5143C100.199 87.0729 98.9424 89.4231 97.0978 91.2677C95.2532 93.1123 92.903 94.3685 90.3444 94.8775C87.7858 95.3864 85.1338 95.1252 82.7236 94.1269C80.3135 93.1286 78.2535 91.438 76.8042 89.269C75.3549 87.0999 74.5813 84.5498 74.5813 81.9411C74.5813 78.4429 75.971 75.088 78.4445 72.6145C80.9181 70.1409 84.273 68.7512 87.7712 68.7512ZM87.7712 66.1133C84.6407 66.1133 81.5806 67.0416 78.9777 68.7807C76.3748 70.5199 74.3462 72.9919 73.1482 75.884C71.9502 78.7762 71.6368 81.9586 72.2475 85.0289C72.8582 88.0992 74.3657 90.9195 76.5792 93.133C78.7928 95.3466 81.613 96.854 84.6833 97.4648C87.7536 98.0755 90.9361 97.762 93.8282 96.5641C96.7204 95.3661 99.1923 93.3374 100.932 90.7345C102.671 88.1317 103.599 85.0715 103.599 81.9411C103.599 77.7433 101.931 73.7174 98.9631 70.7491C95.9948 67.7808 91.969 66.1133 87.7712 66.1133Z" fill="white"/>
<path id="Vector_17" d="M92.6879 76.0376L86.1247 82.5956L82.843 79.3139L80.2051 81.9519L86.1247 87.8451L95.3101 78.6597L92.6879 76.0376Z" fill="white"/>
</g>
<defs>
<linearGradient id="paint0_linear_6744_61686" x1="69.3328" y1="33.7559" x2="65.1499" y2="47.2272" gradientUnits="userSpaceOnUse">
<stop stop-color="#AC2121"/>
<stop offset="1" stop-color="#E9000E"/>
</linearGradient>
<clipPath id="clip0_6744_61686">
<rect width="105.519" height="94.9668" fill="white" transform="translate(0.654297 0.481445)"/>
</clipPath>
</defs>
</svg>
