<svg width="503" height="299" viewBox="0 0 503 299" fill="none" xmlns="http://www.w3.org/2000/svg">
<path d="M326.337 227.697H305.359C294.438 227.697 285.615 243.529 285.615 263.063C285.615 282.598 294.463 298.418 305.359 298.418H326.337C337.258 298.418 346.081 282.585 346.081 263.063C346.081 243.542 337.258 227.697 326.337 227.697Z" fill="#263238"/>
<mask id="mask0_7161_63677" style="mask-type:luminance" maskUnits="userSpaceOnUse" x="285" y="227" width="62" height="72">
<path d="M326.337 227.697H305.359C294.438 227.697 285.615 243.529 285.615 263.063C285.615 282.598 294.463 298.418 305.359 298.418H326.337C337.258 298.418 346.081 282.585 346.081 263.063C346.081 243.542 337.258 227.697 326.337 227.697Z" fill="white"/>
</mask>
<g mask="url(#mask0_7161_63677)">
<path opacity="0.05" d="M351.017 227.697H330.039C319.118 227.697 310.295 243.529 310.295 263.063C310.295 282.598 319.143 298.418 330.039 298.418H351.017C361.938 298.418 370.761 282.585 370.761 263.063C370.761 243.542 361.938 227.697 351.017 227.697Z" fill="white"/>
</g>
<path d="M496.271 235.274L128.922 235.015V0.369629H496.271V235.274Z" fill="#F53535"/>
<path opacity="0.3" d="M496.273 0.369629H247.301V235.262H496.273V0.369629Z" fill="#263238"/>
<path opacity="0.2" d="M247.299 0.369629H128.922V239.901H247.299V0.369629Z" fill="white"/>
<path opacity="0.1" d="M129.811 11.2783H496.272" stroke="white" stroke-width="2" stroke-linecap="round" stroke-linejoin="round"/>
<path opacity="0.1" d="M129.811 21.4341H496.272" stroke="white" stroke-width="2" stroke-linecap="round" stroke-linejoin="round"/>
<path opacity="0.1" d="M129.811 31.5776H496.272" stroke="white" stroke-width="2" stroke-linecap="round" stroke-linejoin="round"/>
<path opacity="0.1" d="M129.811 41.7212H496.272" stroke="white" stroke-width="2" stroke-linecap="round" stroke-linejoin="round"/>
<path opacity="0.1" d="M129.811 51.877H496.272" stroke="white" stroke-width="2" stroke-linecap="round" stroke-linejoin="round"/>
<path opacity="0.1" d="M129.811 62.02H496.272" stroke="white" stroke-width="2" stroke-linecap="round" stroke-linejoin="round"/>
<path opacity="0.1" d="M129.811 72.1636H496.272" stroke="white" stroke-width="2" stroke-linecap="round" stroke-linejoin="round"/>
<path opacity="0.1" d="M129.811 82.3071H496.272" stroke="white" stroke-width="2" stroke-linecap="round" stroke-linejoin="round"/>
<path opacity="0.1" d="M129.811 92.4629H496.272" stroke="white" stroke-width="2" stroke-linecap="round" stroke-linejoin="round"/>
<path opacity="0.1" d="M129.811 102.606H496.272" stroke="white" stroke-width="2" stroke-linecap="round" stroke-linejoin="round"/>
<path opacity="0.1" d="M129.811 112.75H496.272" stroke="white" stroke-width="2" stroke-linecap="round" stroke-linejoin="round"/>
<path opacity="0.1" d="M129.811 122.906H496.272" stroke="white" stroke-width="2" stroke-linecap="round" stroke-linejoin="round"/>
<path opacity="0.1" d="M129.811 133.049H496.272" stroke="white" stroke-width="2" stroke-linecap="round" stroke-linejoin="round"/>
<path opacity="0.1" d="M129.811 143.193H496.272" stroke="white" stroke-width="2" stroke-linecap="round" stroke-linejoin="round"/>
<path opacity="0.1" d="M129.811 153.336H496.272" stroke="white" stroke-width="2" stroke-linecap="round" stroke-linejoin="round"/>
<path opacity="0.1" d="M129.811 163.492H496.272" stroke="white" stroke-width="2" stroke-linecap="round" stroke-linejoin="round"/>
<path opacity="0.1" d="M129.811 173.635H496.272" stroke="white" stroke-width="2" stroke-linecap="round" stroke-linejoin="round"/>
<path opacity="0.1" d="M129.811 183.779H496.272" stroke="white" stroke-width="2" stroke-linecap="round" stroke-linejoin="round"/>
<path opacity="0.1" d="M129.811 193.935H496.272" stroke="white" stroke-width="2" stroke-linecap="round" stroke-linejoin="round"/>
<path opacity="0.1" d="M129.811 204.078H496.272" stroke="white" stroke-width="2" stroke-linecap="round" stroke-linejoin="round"/>
<path opacity="0.1" d="M129.811 214.222H496.272" stroke="white" stroke-width="2" stroke-linecap="round" stroke-linejoin="round"/>
<path opacity="0.1" d="M129.811 224.378H496.272" stroke="white" stroke-width="2" stroke-linecap="round" stroke-linejoin="round"/>
<path d="M61.5085 232.312H42.0977C31.9789 232.312 23.7852 246.972 23.7852 265.063C23.7852 283.153 31.9789 297.801 42.0977 297.801H61.5085C71.6273 297.801 79.8211 283.141 79.8211 265.063C79.8211 246.985 71.6273 232.312 61.5085 232.312Z" fill="#263238"/>
<path opacity="0.05" d="M86.2025 232.312H66.7794C56.6606 232.312 48.4668 246.972 48.4668 265.063C48.4668 283.153 56.6606 297.801 66.7794 297.801H86.2025C96.309 297.801 104.515 283.141 104.515 265.063C104.515 246.985 96.309 232.312 86.2025 232.312Z" fill="white"/>
<path d="M50.7122 168.354H41.5313C39.7296 168.416 38.2488 166.491 38.2118 164.047C38.1872 163.793 38.1872 163.537 38.2118 163.282L40.6798 135.554C40.9883 132.704 42.7529 130.618 44.8754 130.482H54.1428C55.9321 130.482 57.4129 132.37 57.4499 134.814C57.4499 135.061 57.4499 135.307 57.4499 135.554L54.9819 163.282C54.6117 166.096 52.7854 168.28 50.7122 168.354Z" fill="#263238"/>
<path d="M59.8934 76.7668L42.1855 172.266L234.973 247.787L233.628 59.5772L191.228 58.3432H75.084C68.0995 58.2815 61.9419 65.7842 59.8934 76.7668Z" fill="#F53535"/>
<path d="M203.332 92.1297C196.138 91.8088 189.684 97.7073 187.574 106.506L172.988 167.613H144.915L143.385 248.231H235.725" fill="#F53535"/>
<path d="M62.6576 162.48C59.8317 162.48 57.5488 158.852 57.5488 154.385C57.5476 153.606 57.622 152.829 57.771 152.065L68.371 95.992C69.2595 91.3399 71.9743 88.1562 75.047 88.1685H176.457C177.555 88.1685 178.456 89.5752 178.456 91.3275C178.459 91.6382 178.43 91.9482 178.37 92.253C176.149 103.803 168.93 142.07 166.166 156.705C165.524 160.135 163.525 162.48 161.23 162.48H62.6576Z" fill="#263238"/>
<path d="M155.971 187.333C155.969 188.316 155.899 189.297 155.762 190.27L155.231 193.886L154.922 196.02L152.652 211.618L148.95 236.977L147.926 244.023H4.42383V236.977L4.52255 211.618L4.65829 196.452V190.282C3.42429 182.138 7.36075 174.24 13.358 172.599C14.0616 172.407 14.7881 172.311 15.5175 172.315H144.915C151.023 172.266 155.971 179.028 155.971 187.333Z" fill="#F53535"/>
<path d="M228.914 95.758V155.866C228.914 159.506 227.051 162.468 224.743 162.48H189.673C187.365 162.48 185.502 159.519 185.502 155.866C185.501 155.271 185.551 154.676 185.65 154.089L196.46 92.636C196.978 89.6868 198.706 87.7 200.631 87.8111L224.891 89.1438C227.137 89.2795 228.914 92.2041 228.914 95.758Z" fill="#263238"/>
<path opacity="0.1" d="M121.814 88.1685H102.44L80.1914 162.48H99.5775L121.814 88.1685Z" fill="white"/>
<path opacity="0.1" d="M136.894 88.1685H127.639L105.402 162.48H114.645L136.894 88.1685Z" fill="white"/>
<path d="M193.152 211.618V236.977H4.44922L4.54794 211.618H193.152Z" fill="black"/>
<path d="M166.868 211.618H149.42L118.039 230.054V236.977H193.153V211.618H166.868Z" fill="white"/>
<path d="M36.9775 230.054V236.977H4.44922L4.54794 211.618H5.60918L36.9775 230.054Z" fill="white"/>
<path opacity="0.3" d="M235.059 248.231L233.627 59.5769L207.713 58.3429C201.247 58.0221 193.781 65.5372 191.893 74.2492L173.112 172.266H165.794C157.576 172.266 151.949 178.251 151.961 184.606L152.072 248.255H235.059" fill="#263238"/>
<path d="M155.49 194.774C155.487 195.008 155.436 195.239 155.338 195.452C155.24 195.664 155.098 195.854 154.922 196.008C154.621 196.288 154.223 196.443 153.812 196.44H4.6582V193.083H153.849C154.133 193.084 154.412 193.157 154.66 193.295C154.908 193.433 155.118 193.632 155.268 193.873C155.424 194.147 155.501 194.459 155.49 194.774Z" fill="white"/>
<path d="M30.9676 193.096V196.452H4.60938L4.62172 193.096H30.9676Z" fill="#263238"/>
<path d="M155.49 194.774C155.487 195.008 155.435 195.239 155.338 195.452C155.24 195.664 155.098 195.854 154.922 196.008C154.621 196.288 154.223 196.443 153.812 196.44H117.631V193.083H153.812C154.096 193.084 154.375 193.157 154.623 193.295C154.871 193.433 155.08 193.632 155.231 193.873C155.4 194.143 155.49 194.455 155.49 194.774Z" fill="#263238"/>
<path d="M502.862 241.37V242.036C502.862 243.672 502.212 245.242 501.055 246.399C499.898 247.556 498.328 248.206 496.692 248.206H6.54695C4.91057 248.206 3.3412 247.556 2.1841 246.399C1.027 245.242 0.376953 243.672 0.376953 242.036V241.37C0.376953 239.733 1.027 238.164 2.1841 237.007C3.3412 235.85 4.91057 235.2 6.54695 235.2H496.692C498.328 235.2 499.898 235.85 501.055 237.007C502.212 238.164 502.862 239.733 502.862 241.37Z" fill="#263238"/>
<path d="M115.238 240.271H42.1855V243.838H115.238V240.271Z" fill="black"/>
<path d="M22.7499 242.049C22.7499 242.451 22.6308 242.844 22.4076 243.178C22.1844 243.513 21.8672 243.774 21.4958 243.929C21.1245 244.083 20.7158 244.124 20.3211 244.046C19.9265 243.969 19.5637 243.776 19.2785 243.493C18.9932 243.209 18.7983 242.847 18.7184 242.453C18.6384 242.059 18.677 241.65 18.8292 241.278C18.9814 240.906 19.2405 240.587 19.5737 240.362C19.9069 240.136 20.2993 240.015 20.7015 240.012C20.9699 240.011 21.236 240.062 21.4845 240.164C21.7329 240.266 21.9588 240.415 22.1492 240.604C22.3396 240.794 22.4907 241.019 22.5938 241.267C22.6969 241.514 22.7499 241.78 22.7499 242.049Z" fill="white"/>
<path d="M132.685 242.049C132.685 242.451 132.566 242.845 132.342 243.18C132.119 243.515 131.801 243.776 131.429 243.93C131.057 244.084 130.647 244.124 130.252 244.046C129.857 243.967 129.494 243.773 129.21 243.488C128.925 243.204 128.731 242.841 128.652 242.446C128.574 242.051 128.614 241.641 128.768 241.269C128.922 240.897 129.183 240.579 129.518 240.356C129.853 240.132 130.247 240.012 130.649 240.012C130.917 240.012 131.182 240.065 131.429 240.167C131.676 240.27 131.9 240.42 132.089 240.609C132.278 240.798 132.428 241.022 132.53 241.269C132.633 241.516 132.685 241.781 132.685 242.049Z" fill="white"/>
<path d="M191.721 262.261C191.721 242.629 200.618 226.71 211.601 226.71H190.512C179.542 226.71 170.645 242.629 170.645 262.261C170.645 281.894 179.542 297.801 190.512 297.801H211.601C200.618 297.838 191.721 281.931 191.721 262.261Z" fill="black"/>
<path opacity="0.7" d="M191.721 262.261C191.721 242.629 200.618 226.71 211.601 226.71H190.512C179.542 226.71 170.645 242.629 170.645 262.261C170.645 281.894 179.542 297.801 190.512 297.801H211.601C200.618 297.838 191.721 281.931 191.721 262.261Z" fill="#263238"/>
<path d="M211.6 297.85C222.58 297.85 231.48 281.933 231.48 262.298C231.48 242.664 222.58 226.747 211.6 226.747C200.621 226.747 191.721 242.664 191.721 262.298C191.721 281.933 200.621 297.85 211.6 297.85Z" fill="#263238"/>
<path d="M213.192 290.014C220.975 290.014 227.284 277.605 227.284 262.298C227.284 246.991 220.975 234.583 213.192 234.583C205.409 234.583 199.1 246.991 199.1 262.298C199.1 277.605 205.409 290.014 213.192 290.014Z" fill="white"/>
<path d="M211.909 286.287C219.358 286.287 225.397 275.547 225.397 262.299C225.397 249.05 219.358 238.31 211.909 238.31C204.46 238.31 198.422 249.05 198.422 262.299C198.422 275.547 204.46 286.287 211.909 286.287Z" fill="#263238"/>
<path d="M208.947 279.809C214.385 279.809 218.794 271.969 218.794 262.299C218.794 252.628 214.385 244.788 208.947 244.788C203.508 244.788 199.1 252.628 199.1 262.299C199.1 271.969 203.508 279.809 208.947 279.809Z" fill="black"/>
<path opacity="0.5" d="M502.862 241.37V242.036C502.862 243.672 502.212 245.242 501.055 246.399C499.898 247.556 498.329 248.206 496.692 248.206H247.301V235.2H496.692C498.329 235.2 499.898 235.85 501.055 237.007C502.212 238.164 502.862 239.733 502.862 241.37Z" fill="black"/>
<path d="M425.355 262.261C425.355 242.629 434.252 226.71 445.222 226.71H424.145C413.163 226.71 404.266 242.629 404.266 262.261C404.266 281.894 413.163 297.801 424.145 297.801H445.197C434.252 297.838 425.355 281.931 425.355 262.261Z" fill="black"/>
<path opacity="0.7" d="M425.355 262.261C425.355 242.629 434.252 226.71 445.222 226.71H424.145C413.163 226.71 404.266 242.629 404.266 262.261C404.266 281.894 413.163 297.801 424.145 297.801H445.197C434.252 297.838 425.355 281.931 425.355 262.261Z" fill="#263238"/>
<path d="M445.222 297.85C456.201 297.85 465.101 281.933 465.101 262.298C465.101 242.664 456.201 226.747 445.222 226.747C434.242 226.747 425.342 242.664 425.342 262.298C425.342 281.933 434.242 297.85 445.222 297.85Z" fill="#263238"/>
<path d="M446.827 290.014C454.61 290.014 460.919 277.605 460.919 262.298C460.919 246.991 454.61 234.583 446.827 234.583C439.044 234.583 432.734 246.991 432.734 262.298C432.734 277.605 439.044 290.014 446.827 290.014Z" fill="white"/>
<path d="M445.531 286.287C452.98 286.287 459.018 275.547 459.018 262.299C459.018 249.05 452.98 238.31 445.531 238.31C438.082 238.31 432.043 249.05 432.043 262.299C432.043 275.547 438.082 286.287 445.531 286.287Z" fill="#263238"/>
<path d="M442.568 279.809C448.007 279.809 452.415 271.969 452.415 262.299C452.415 252.628 448.007 244.788 442.568 244.788C437.129 244.788 432.721 252.628 432.721 262.299C432.721 271.969 437.129 279.809 442.568 279.809Z" fill="black"/>
</svg>
