<svg width="96" height="65" viewBox="0 0 96 65" fill="none" xmlns="http://www.w3.org/2000/svg">
<rect width="96" height="64" transform="translate(0 0.809998)" fill="white"/>
<g clip-path="url(#clip0_6744_65011)">
<g clip-path="url(#clip1_6744_65011)">
<path d="M25.1055 45.4046C25.5526 44.171 26.498 43.7468 27.7316 43.7643C28.8305 43.7791 29.9321 43.7428 31.0311 43.7751C32.6956 43.8236 33.5333 44.7569 33.4552 46.4106C33.443 46.68 33.4067 46.9359 33.1293 47.0072C32.7064 47.1163 32.2956 47.4113 31.8418 47.2321C31.6209 47.1473 31.7071 46.8766 31.7071 46.6827C31.6735 45.6053 31.4539 45.3885 30.3846 45.3858C29.5537 45.3858 28.7241 45.3737 27.8932 45.3858C27.1687 45.3992 26.8522 45.6901 26.8454 46.4066C26.8279 48.494 26.8454 50.5815 26.8454 52.6675C26.8454 53.2911 27.1633 53.6102 27.776 53.6789C28.7164 53.7665 29.6626 53.7732 30.6042 53.6991C31.4916 53.6385 31.6815 53.3557 31.7273 52.4413C31.7394 52.1612 31.5011 51.7006 32.0855 51.6844C32.7199 51.6669 33.4202 52.0884 33.4673 52.4925C33.6531 54.0991 32.9044 55.0943 31.2923 55.2815C30.021 55.4297 28.7335 55.3556 27.4609 55.3152C26.3418 55.2829 25.5418 54.79 25.1055 53.7543V45.4046Z" fill="#44417F"/>
<path d="M52.062 49.7855C52.062 48.4805 52.0525 47.4476 52.062 46.4187C52.0822 44.5764 52.8579 43.7926 54.6881 43.7724C55.7883 43.7603 56.8886 43.7468 57.9875 43.7724C59.7383 43.8195 60.5692 44.769 60.4117 46.5076C60.3335 47.3426 59.5794 47.1446 59.1094 47.2604C58.5572 47.3951 58.7242 46.8564 58.7054 46.5641C58.6434 45.6295 58.405 45.3885 57.4623 45.3817C56.6314 45.3817 55.8018 45.3723 54.9709 45.3817C54.1628 45.3925 53.8302 45.6793 53.8221 46.4591C53.8019 48.5007 53.8114 50.5437 53.8221 52.5867C53.8221 53.2426 54.1251 53.6641 54.82 53.6856C55.7385 53.7112 56.6597 53.753 57.5755 53.7031C58.4912 53.6533 58.6528 53.3907 58.7121 52.4628C58.7296 52.1746 58.5168 51.7221 59.069 51.6884C59.7423 51.6467 60.3928 52.0925 60.4157 52.5746C60.5059 54.3752 59.8689 55.167 58.063 55.303C56.7014 55.4054 55.3278 55.4377 53.9662 55.2478C52.8808 55.093 52.2801 54.4977 52.136 53.4136C51.9596 52.1167 52.1145 50.8117 52.062 49.7855Z" fill="#44417F"/>
<path d="M40.4788 49.5714C40.4788 50.7834 40.4936 51.9955 40.4707 53.2075C40.4626 53.6116 40.5811 53.7597 41 53.7462C41.7164 53.7153 42.4356 53.7557 43.1547 53.7314C43.5588 53.7179 43.6934 53.8553 43.7002 54.2701C43.7096 55.3556 43.7284 55.3556 42.6713 55.3556C40.5394 55.3556 38.4075 55.33 36.277 55.3704C35.5834 55.3838 35.5228 55.0539 35.5215 54.5058C35.5202 53.9577 35.6252 53.6695 36.2622 53.7274C36.8992 53.7853 37.5645 53.7126 38.2123 53.7489C38.6715 53.7759 38.7765 53.5994 38.7738 53.1698C38.7568 50.7457 38.7568 48.3216 38.7738 45.8975C38.7738 45.4679 38.6297 45.3588 38.2351 45.3804C37.6076 45.4086 36.9787 45.3709 36.3497 45.3925C35.6117 45.4181 35.7666 44.8996 35.741 44.4673C35.7154 44.035 35.7868 43.7549 36.3443 43.7616C38.5431 43.7876 40.7428 43.7876 42.9433 43.7616C43.583 43.7535 43.5412 44.1239 43.5399 44.5454C43.5386 44.9669 43.6005 45.4275 42.9231 45.3952C42.274 45.3642 41.6208 45.4073 40.9717 45.3817C40.5906 45.3669 40.4667 45.4881 40.4734 45.876C40.4936 47.1028 40.4788 48.3378 40.4788 49.5714Z" fill="#44417F"/>
<path d="M48.1422 47.2887C48.7119 47.8893 49.2788 48.494 49.8539 49.0893C49.9902 49.2081 50.0784 49.3726 50.102 49.5519C50.1255 49.7312 50.0828 49.9129 49.9818 50.063C48.7931 52.2177 47.6067 54.3752 46.4224 56.5353C46.3538 56.6592 46.3147 56.8855 46.1046 56.7872C45.8945 56.6888 46.0319 56.5178 46.0642 56.371C46.4575 54.6028 46.8494 52.8332 47.2493 51.0663C47.3246 50.8085 47.3564 50.5399 47.3436 50.2717C47.3436 49.329 47.6628 48.455 47.8729 47.5567C47.8891 47.4917 47.9228 47.4324 47.9702 47.3852C48.0177 47.338 48.0772 47.3046 48.1422 47.2887Z" fill="#FBA226"/>
<path d="M48.1417 47.2887C47.8602 48.0334 47.7673 48.8253 47.5841 49.5943C47.5165 49.823 47.436 50.0479 47.3431 50.2676C46.8044 49.7006 46.2657 49.1256 45.7203 48.5707C45.3984 48.2475 45.3822 47.9243 45.5923 47.5418C46.7667 45.4059 47.9343 43.266 49.1113 41.1314C49.1773 41.0116 49.2164 40.7692 49.4197 40.854C49.6487 40.9496 49.5099 41.1732 49.4749 41.3294C49.0372 43.3185 48.5888 45.3063 48.1417 47.2887Z" fill="#E14329"/>
<path d="M68.2864 43.7616C66.5599 43.7796 64.8329 43.7796 63.1055 43.7616C62.6692 43.7616 62.5143 43.8963 62.5156 44.3407C62.5273 47.8171 62.5273 51.2934 62.5156 54.7698C62.5156 55.2155 62.6907 55.3596 63.1149 55.3569C64.8414 55.3448 66.5693 55.3569 68.2958 55.3475C69.4701 55.3381 70.4384 54.9583 70.8936 53.757V45.4073C70.4775 44.1387 69.5213 43.7495 68.2864 43.7616ZM69.1617 52.5005C69.1536 53.3719 68.9503 53.6452 68.0736 53.6937C66.9356 53.757 65.7909 53.7166 64.6502 53.7355C64.3499 53.7355 64.2691 53.6129 64.2691 53.3315C64.2754 50.8014 64.2754 48.2714 64.2691 45.7413C64.2691 45.4302 64.4037 45.3723 64.6731 45.3737C65.838 45.3831 67.0016 45.3642 68.1665 45.3831C68.856 45.3952 69.1388 45.6807 69.1536 46.381C69.1752 47.4328 69.1536 48.4859 69.1536 49.5377C69.1644 50.5303 69.1712 51.5147 69.1617 52.5005Z" fill="#44417F"/>
<path d="M47.9336 33.5534L52.8828 18.3354H42.9844L47.9336 33.5534Z" fill="#E24329"/>
<path d="M47.9334 33.5534L42.9842 18.3354H36.0566L47.9334 33.5534Z" fill="#FC6D26"/>
<path d="M36.0565 18.3287L34.5576 22.9506C34.4907 23.1587 34.4912 23.3827 34.5592 23.5904C34.6272 23.7982 34.759 23.9791 34.936 24.1075L47.9333 33.5534L36.0565 18.3354V18.3287Z" fill="#FCA326"/>
<path d="M36.0566 18.3287H42.9842L40.0214 9.15883C39.987 9.05678 39.9215 8.96809 39.834 8.90527C39.7465 8.84245 39.6416 8.80865 39.5339 8.80865C39.4262 8.80865 39.3212 8.84245 39.2338 8.90527C39.1463 8.96809 39.0808 9.05678 39.0464 9.15883L36.0566 18.3287Z" fill="#E24329"/>
<path d="M47.9336 33.5534L52.8828 18.3354H59.8104L47.9336 33.5534Z" fill="#FC6D26"/>
<path d="M59.8104 18.3287L61.3093 22.9506C61.3746 23.1578 61.3732 23.3803 61.3053 23.5867C61.2374 23.793 61.1064 23.9728 60.9308 24.1007L47.9336 33.5467L59.8104 18.3287Z" fill="#FCA326"/>
<path d="M59.8098 18.3287H52.8809L55.8652 9.15883C55.8996 9.05678 55.9651 8.96809 56.0526 8.90527C56.1401 8.84245 56.245 8.80865 56.3527 8.80865C56.4604 8.80865 56.5654 8.84245 56.6528 8.90527C56.7403 8.96809 56.8058 9.05678 56.8402 9.15883L59.803 18.3287H59.8098Z" fill="#E24329"/>
</g>
</g>
<defs>
<clipPath id="clip0_6744_65011">
<rect width="72" height="48" fill="white" transform="translate(12 8.81)"/>
</clipPath>
<clipPath id="clip1_6744_65011">
<rect width="45.7887" height="48" fill="white" transform="translate(25.1055 8.81)"/>
</clipPath>
</defs>
</svg>
