<svg width="96" height="65" viewBox="0 0 96 65" fill="none" xmlns="http://www.w3.org/2000/svg">
<rect width="96" height="64" transform="translate(0 0.809998)" fill="white"/>
<g clip-path="url(#clip0_6744_65002)">
<g clip-path="url(#clip1_6744_65002)">
<path d="M41.2526 9.91397C40.5933 9.58368 39.8973 9.33234 39.179 9.16517C29.543 6.87797 22.3838 16.3268 26.3198 24.9116C26.3582 24.95 33.3302 40.2452 34.4558 42.6716C34.4558 42.6716 47.279 36.7844 49.9022 30.7484C52.3334 25.13 48.239 14.87 47.4854 13.3292L41.2526 9.91397Z" fill="url(#paint0_linear_6744_65002)"/>
<path d="M70.2231 26.978C69.4094 25.7301 68.3028 24.7002 66.9999 23.978C66.9615 23.978 57.9639 19.0292 57.9639 19.0292C57.9639 19.0292 27.0687 36.9404 27.0351 36.9884C23.5479 40.97 22.7607 47.2604 26.7735 52.73C27.9832 54.3759 29.6932 55.5858 31.6479 56.1788C35.2839 57.3044 38.5095 56.8532 41.2095 55.43C41.2839 55.3916 66.5919 41.9708 66.6663 41.894C71.6127 39.3068 73.9023 32.7092 70.2255 26.9708L70.2231 26.978Z" fill="#0CB0F2"/>
<path d="M38.4438 23.0444L30.195 33.1676L26.9958 36.9884C23.5206 40.97 22.7214 47.2604 26.7342 52.73C27.9431 54.3776 29.6533 55.5893 31.6086 56.1836C35.2446 57.3092 38.5062 56.858 41.2086 55.4348C41.2086 55.4348 41.847 55.0964 42.9342 54.4964C46.3614 52.6436 51.0942 40.1924 54.3126 30.5636L38.4438 23.0444Z" fill="url(#paint1_linear_6744_65002)"/>
<path d="M51.4083 32.7884L57.9652 18.9428C57.9652 18.9326 57.9692 18.9229 57.9764 18.9157C57.9836 18.9085 57.9934 18.9044 58.0035 18.9044C58.0419 18.7916 58.5651 17.4428 58.6035 17.366C58.9891 16.3933 59.1292 15.3406 59.0116 14.3009C58.894 13.2612 58.5222 12.2665 57.9291 11.4044C57.171 10.2095 55.9709 9.36305 54.5908 9.05003C53.4304 8.74126 52.205 8.779 51.0659 9.15858C49.9267 9.53816 48.9236 10.243 48.1804 11.186C48.142 11.2244 46.7188 12.866 46.7188 12.866L36.2188 25.8044L51.4083 32.7884Z" fill="url(#paint2_linear_6744_65002)"/>
<path d="M33.0312 17.7908H63.0312V47.7908H33.0312V17.7908Z" fill="url(#paint3_linear_6744_65002)"/>
<path d="M40.08 24.4268H36.0312V21.8036H47.0161V24.4268H43.0057V34.7708H40.08V24.4268ZM47.0161 28.3148C47.0161 24.566 49.7905 21.53 53.8033 21.53C56.2393 21.53 57.7392 22.3556 58.9392 23.5556L57.1032 25.6556C56.0904 24.7556 55.0776 24.194 53.7672 24.194C51.5928 24.194 49.98 26.03 49.98 28.2428V28.2812C49.98 30.53 51.5184 32.3612 53.7672 32.3612C55.2672 32.3612 56.1672 31.7612 57.18 30.8228L59.016 32.6588C57.6672 34.0844 56.2032 34.9844 53.6928 34.9844C51.9626 35.0243 50.2873 34.3755 49.0353 33.1806C47.7832 31.9858 47.0569 30.3426 47.0161 28.6124C47.0161 28.5132 47.0161 28.4148 47.0161 28.3172M36.0312 41.7884H47.0161V43.7756H36.0312V41.7884Z" fill="white"/>
</g>
</g>
<defs>
<linearGradient id="paint0_linear_6744_65002" x1="49.0391" y1="38.0832" x2="33.8995" y2="19.3812" gradientUnits="userSpaceOnUse">
<stop offset="0.06" stop-color="#0CB0F2"/>
<stop offset="0.21" stop-color="#10ADF2"/>
<stop offset="0.37" stop-color="#1EA5F3"/>
<stop offset="0.54" stop-color="#3497F5"/>
<stop offset="0.71" stop-color="#5283F7"/>
<stop offset="0.88" stop-color="#796AF9"/>
<stop offset="0.97" stop-color="#905CFB"/>
</linearGradient>
<linearGradient id="paint1_linear_6744_65002" x1="31.8386" y1="54.3946" x2="39.4319" y2="36.8645" gradientUnits="userSpaceOnUse">
<stop offset="0.06" stop-color="#0CB0F2"/>
<stop offset="0.2" stop-color="#0DB2EE"/>
<stop offset="0.35" stop-color="#12B7E0"/>
<stop offset="0.51" stop-color="#19C0CA"/>
<stop offset="0.68" stop-color="#23CCAC"/>
<stop offset="0.85" stop-color="#30DC85"/>
<stop offset="0.97" stop-color="#3BEA62"/>
</linearGradient>
<linearGradient id="paint2_linear_6744_65002" x1="42.244" y1="31.3805" x2="57.0556" y2="12.3505" gradientUnits="userSpaceOnUse">
<stop offset="0.06" stop-color="#0CB0F2"/>
<stop offset="0.2" stop-color="#0DB2EE"/>
<stop offset="0.35" stop-color="#12B7E0"/>
<stop offset="0.51" stop-color="#19C0CA"/>
<stop offset="0.68" stop-color="#23CCAC"/>
<stop offset="0.85" stop-color="#30DC85"/>
<stop offset="0.97" stop-color="#3BEA62"/>
</linearGradient>
<linearGradient id="paint3_linear_6744_65002" x1="48.009" y1="18.2563" x2="48.009" y2="48.2544" gradientUnits="userSpaceOnUse">
<stop/>
<stop offset="1"/>
</linearGradient>
<clipPath id="clip0_6744_65002">
<rect width="72" height="48" fill="white" transform="translate(12 8.81)"/>
</clipPath>
<clipPath id="clip1_6744_65002">
<rect width="48" height="48" fill="white" transform="translate(24 8.81)"/>
</clipPath>
</defs>
</svg>
