<svg width="96" height="65" viewBox="0 0 96 65" fill="none" xmlns="http://www.w3.org/2000/svg">
<rect width="96" height="64" transform="translate(0 0.809998)" fill="white"/>
<g clip-path="url(#clip0_6744_65099)">
<g clip-path="url(#clip1_6744_65099)">
<path d="M54.9714 22.1187C54.4967 21.9162 54.0656 21.7311 53.6345 21.5438C51.8375 20.8144 49.9714 20.2687 48.0645 19.9151C47.5615 19.8149 47.0999 19.9869 46.6404 20.0871C44.6521 20.5094 42.7168 21.1513 40.8702 22.0011C40.7983 22.0294 40.7265 22.0577 40.6677 22.0882C40.5392 22.0316 40.5806 21.9445 40.5806 21.8704V19.4426C40.5636 19.3141 40.5934 19.1838 40.6646 19.0754C40.7357 18.9671 40.8435 18.888 40.9682 18.8525C43.4817 17.9378 46.1531 17.5364 48.8244 17.6723C50.7635 17.7767 52.6775 18.1595 54.5076 18.8089C54.8538 18.9374 55.0106 19.1116 54.9976 19.4861C54.9562 20.3506 54.9714 21.1976 54.9714 22.1187Z" fill="#014466"/>
<path d="M44.2099 16.135C44.2099 15.3859 44.1947 14.6674 44.2099 13.9575C44.2206 13.8337 44.2677 13.7157 44.3451 13.6185C44.4226 13.5213 44.5271 13.4491 44.6454 13.411C45.6205 12.9283 46.6939 12.6771 47.782 12.6771C48.8701 12.6771 49.9435 12.9283 50.9187 13.411C51.0461 13.4613 51.1556 13.5484 51.2332 13.6613C51.3108 13.7742 51.3529 13.9077 51.3542 14.0446V16.1154C48.987 15.7398 46.5749 15.7464 44.2099 16.135Z" fill="#29AED3"/>
<path d="M41.7625 31.3554C42.198 32.5073 42.5964 33.6723 42.9557 34.9091C42.5217 34.7921 42.1018 34.6278 41.7037 34.4191C40.0237 33.6476 38.1827 33.2921 36.3362 33.3826C35.8806 33.3813 35.4281 33.4594 34.9993 33.6135L34.6966 33.0081C34.4092 32.3549 34.4092 32.3549 34.984 31.9194C36.9829 30.467 39.1212 30.3081 41.401 31.1856C41.5099 31.2553 41.634 31.2988 41.7625 31.3554Z" fill="#29AED3"/>
<path d="M57.0292 30.8677C55.6487 31.1551 54.5839 32.0043 53.604 32.9689C53.4603 33.1279 53.3014 33.2716 53.1446 33.4284C53.1351 33.2853 53.1597 33.142 53.2164 33.0103C54.0874 30.4932 55.0716 28.0457 56.4674 25.7746C56.7265 25.3565 56.6699 25.1845 56.2496 24.9036C54.1636 23.5362 51.8751 22.6739 49.4734 22.0729C48.696 21.8726 47.9491 21.6135 47.0999 21.8138C44.352 22.467 41.7194 23.338 39.346 24.908C38.9105 25.1954 38.8561 25.3674 39.1435 25.829C40.1868 27.5839 41.0617 29.4335 41.7564 31.3533C42.1919 32.5051 42.5904 33.6701 42.9497 34.9352C42.5178 34.8119 42.0985 34.6479 41.6977 34.4453C40.0202 33.6761 38.182 33.3228 36.3389 33.4153C35.884 33.4098 35.4316 33.4834 35.002 33.6331C35.5057 34.6948 36.1663 35.6748 36.9617 36.54C40.6438 40.5683 45.2055 42.2014 50.573 41.1867C55.1348 40.3157 58.4576 37.6614 60.6307 33.5656C61.0095 32.8699 61.302 32.1307 61.5017 31.3641C60.0493 30.6369 58.5686 30.5367 57.0292 30.8677ZM47.7924 34.0686C47.5383 33.0953 47.3557 32.1049 47.2458 31.105C47.0455 29.4066 46.8713 27.6951 47.0586 25.9836C47.1457 25.1344 47.2894 24.3005 47.7641 23.5383C47.939 23.707 48.0634 23.9212 48.1233 24.1567C48.5109 25.1932 48.5828 26.2863 48.5828 27.3794C48.5575 29.6308 48.2925 31.8732 47.7924 34.0686Z" fill="#014466"/>
<path d="M48.0012 10.6739C44.7407 10.6722 41.553 11.6375 38.8412 13.4476C36.1293 15.2578 34.0153 17.8316 32.7663 20.8434C31.5174 23.8551 31.1898 27.1697 31.8248 30.3677C32.4598 33.5658 34.029 36.5036 36.3339 38.8097C38.6388 41.1159 41.5759 42.6866 44.7736 43.3233C47.9713 43.9601 51.286 43.6341 54.2984 42.3868C57.3109 41.1395 59.8858 39.0268 61.6974 36.3159C63.509 33.605 64.4759 30.4178 64.4759 27.1573C64.469 22.7893 62.7313 18.602 59.6435 15.5125C56.5556 12.423 52.3693 10.6831 48.0012 10.6739ZM48.0012 45.5307C44.3698 45.5312 40.8198 44.4547 37.8002 42.4375C34.7805 40.4203 32.4269 37.553 31.0369 34.1981C29.6469 30.8432 29.283 27.1515 29.9912 23.5898C30.6994 20.0281 32.4479 16.7564 35.0155 14.1884C37.5832 11.6204 40.8547 9.87157 44.4163 9.16295C47.9779 8.45434 51.6697 8.81781 55.0248 10.2074C58.3798 11.597 61.2474 13.9503 63.265 16.9697C65.2825 19.9891 66.3594 23.5389 66.3594 27.1704C66.3531 32.0375 64.417 36.7035 60.9756 40.1453C57.5342 43.5872 52.8684 45.5238 48.0012 45.5307Z" fill="#004263"/>
<path d="M24.8357 56.6728C24.4761 56.6686 24.1208 56.5935 23.7902 56.4518C23.4596 56.3102 23.1602 56.1048 22.909 55.8473C22.6579 55.5899 22.4599 55.2855 22.3265 54.9515C22.193 54.6175 22.1267 54.2605 22.1313 53.9009C22.1313 53.9009 22.1313 53.9009 22.1313 53.8857C22.1185 53.1595 22.3945 52.458 22.8988 51.9353C23.4031 51.4127 24.0943 51.1117 24.8205 51.0985H24.8357C25.5935 51.0985 26.2576 51.2901 26.7519 51.7997C26.8238 51.8706 26.8656 51.9667 26.8684 52.0677C26.8713 52.1687 26.835 52.2669 26.7671 52.3418L26.7519 52.3571C26.7169 52.3958 26.6745 52.427 26.6271 52.4488C26.5798 52.4706 26.5285 52.4826 26.4764 52.484C26.4243 52.4854 26.3724 52.4762 26.324 52.4571C26.2755 52.4379 26.2314 52.409 26.1944 52.3723C26.0142 52.2013 25.8003 52.0698 25.5663 51.9862C25.3323 51.9026 25.0835 51.8687 24.8357 51.8868C24.5776 51.8904 24.3228 51.9451 24.0858 52.0475C23.8489 52.15 23.6345 52.2982 23.4551 52.4838C23.2756 52.6693 23.1346 52.8885 23.04 53.1287C22.9455 53.3689 22.8994 53.6254 22.9043 53.8835C22.8978 54.4044 23.097 54.9068 23.4585 55.2818C23.8201 55.6568 24.3149 55.8742 24.8357 55.8868C25.3757 55.8868 25.8547 55.7909 26.2097 55.4251C26.2446 55.3888 26.2866 55.3599 26.3329 55.3401C26.3793 55.3203 26.4293 55.3102 26.4797 55.3102C26.5301 55.3102 26.58 55.3203 26.6264 55.3401C26.6728 55.3599 26.7147 55.3888 26.7497 55.4251C26.8216 55.5001 26.8617 55.6 26.8617 55.7038C26.8617 55.8077 26.8216 55.9076 26.7497 55.9826C26.2554 56.4921 25.5913 56.6837 24.8335 56.6837M31.4312 55.8868C31.9591 55.8868 32.4653 55.6771 32.8385 55.3038C33.2118 54.9306 33.4214 54.4244 33.4214 53.8965C33.4214 53.3687 33.2118 52.8625 32.8385 52.4893C32.4653 52.116 31.9591 51.9063 31.4312 51.9063C30.9034 51.9063 30.3972 52.116 30.0239 52.4893C29.6507 52.8625 29.441 53.3687 29.441 53.8965C29.441 54.4244 29.6507 54.9306 30.0239 55.3038C30.3972 55.6771 30.9034 55.8868 31.4312 55.8868ZM31.4312 51.1094C31.791 51.1137 32.1465 51.1888 32.4772 51.3306C32.808 51.4724 33.1075 51.678 33.3587 51.9356C33.6099 52.1933 33.8078 52.498 33.9411 52.8322C34.0744 53.1664 34.1405 53.5237 34.1356 53.8835C34.1356 53.8835 34.1356 53.8835 34.1356 53.8987C34.1459 54.2602 34.0836 54.62 33.9523 54.957C33.8211 55.2939 33.6236 55.6011 33.3716 55.8604C33.1195 56.1197 32.818 56.3259 32.485 56.4666C32.1519 56.6073 31.7939 56.6799 31.4323 56.6799C31.0707 56.6799 30.7128 56.6073 30.3797 56.4666C30.0466 56.3259 29.7451 56.1197 29.4931 55.8604C29.241 55.6011 29.0436 55.2939 28.9123 54.957C28.7811 54.62 28.7187 54.2602 28.729 53.8987C28.7162 53.1726 28.9923 52.471 29.4965 51.9484C30.0008 51.4257 30.692 51.1247 31.4182 51.1116H31.4334M37.3735 51.9368V55.8149H38.68C39.1951 55.8149 39.6892 55.6103 40.0534 55.246C40.4177 54.8818 40.6223 54.3877 40.6223 53.8726C40.6223 53.3575 40.4177 52.8634 40.0534 52.4992C39.6892 52.1349 39.1951 51.9303 38.68 51.9303L37.3735 51.9368ZM38.68 51.1725C39.0415 51.1623 39.4013 51.2246 39.7383 51.3559C40.0752 51.4871 40.3824 51.6846 40.6417 51.9366C40.901 52.1887 41.1071 52.4901 41.2479 52.8232C41.3886 53.1563 41.4611 53.5143 41.4611 53.8759C41.4611 54.2375 41.3886 54.5954 41.2479 54.9285C41.1071 55.2616 40.901 55.5631 40.6417 55.8151C40.3824 56.0672 40.0752 56.2646 39.7383 56.3959C39.4013 56.5271 39.0415 56.5894 38.68 56.5792H36.9947C36.9435 56.5795 36.8928 56.5694 36.8457 56.5496C36.7985 56.5297 36.7559 56.5005 36.7203 56.4638C36.6467 56.388 36.606 56.2863 36.6071 56.1807V51.558C36.6059 51.5049 36.6152 51.4522 36.6347 51.4028C36.6541 51.3535 36.6832 51.3085 36.7203 51.2705C36.7559 51.2339 36.7986 51.2048 36.8457 51.1849C36.8929 51.1651 36.9435 51.155 36.9947 51.1551H38.6952M47.9669 55.8149C48.0685 55.8149 48.166 55.8553 48.2379 55.9271C48.3097 55.999 48.3501 56.0965 48.3501 56.1981C48.3501 56.2998 48.3097 56.3972 48.2379 56.4691C48.166 56.541 48.0685 56.5814 47.9669 56.5814H44.2652C44.2141 56.5815 44.1634 56.5714 44.1163 56.5516C44.0691 56.5317 44.0265 56.5026 43.9908 56.466C43.9542 56.4286 43.9253 56.3843 43.9059 56.3357C43.8865 56.2872 43.8769 56.2352 43.8776 56.1829V51.5667C43.8768 51.4611 43.9175 51.3595 43.9908 51.2836C44.0263 51.2466 44.0689 51.2173 44.1161 51.1975C44.1633 51.1776 44.214 51.1677 44.2652 51.1682H47.9669C48.0685 51.1682 48.166 51.2086 48.2379 51.2804C48.3097 51.3523 48.3501 51.4498 48.3501 51.5514C48.3501 51.6531 48.3097 51.7505 48.2379 51.8224C48.166 51.8943 48.0685 51.9347 47.9669 51.9347H44.6419V53.4306H47.1982C47.2484 53.4281 47.2985 53.4362 47.3453 53.4542C47.3922 53.4722 47.4348 53.4997 47.4704 53.5351C47.5436 53.6086 47.585 53.7079 47.5858 53.8116C47.5859 53.8631 47.5757 53.914 47.5559 53.9615C47.5361 54.009 47.5071 54.052 47.4704 54.0882C47.4348 54.1235 47.3922 54.1511 47.3453 54.1691C47.2985 54.1871 47.2484 54.1951 47.1982 54.1927H44.6506V55.8171H47.9712M61.6675 54.1143H58.1139V56.2155C58.1179 56.2687 58.1108 56.3222 58.0932 56.3725C58.0756 56.4229 58.0478 56.4691 58.0115 56.5082C57.9752 56.5473 57.9313 56.5785 57.8824 56.5998C57.8335 56.6212 57.7807 56.6322 57.7274 56.6322C57.674 56.6322 57.6213 56.6212 57.5724 56.5998C57.5235 56.5785 57.4795 56.5473 57.4432 56.5082C57.4069 56.4691 57.3791 56.4229 57.3615 56.3725C57.3439 56.3222 57.3369 56.2687 57.3409 56.2155V51.534C57.3369 51.4808 57.3439 51.4274 57.3615 51.377C57.3791 51.3267 57.4069 51.2805 57.4432 51.2414C57.4795 51.2023 57.5235 51.1711 57.5724 51.1497C57.6213 51.1284 57.674 51.1174 57.7274 51.1174C57.7807 51.1174 57.8335 51.1284 57.8824 51.1497C57.9313 51.1711 57.9752 51.2023 58.0115 51.2414C58.0478 51.2805 58.0756 51.3267 58.0932 51.377C58.1108 51.4274 58.1179 51.4808 58.1139 51.534V53.3478H61.6675V51.534C61.6635 51.4808 61.6705 51.4274 61.6881 51.377C61.7057 51.3267 61.7336 51.2805 61.7698 51.2414C61.8061 51.2023 61.8501 51.1711 61.899 51.1497C61.9479 51.1284 62.0006 51.1174 62.054 51.1174C62.1073 51.1174 62.1601 51.1284 62.209 51.1497C62.2579 51.1711 62.3019 51.2023 62.3381 51.2414C62.3744 51.2805 62.4022 51.3267 62.4198 51.377C62.4375 51.4274 62.4445 51.4808 62.4405 51.534V56.2155C62.4445 56.2687 62.4375 56.3222 62.4198 56.3725C62.4022 56.4229 62.3744 56.4691 62.3381 56.5082C62.3019 56.5473 62.2579 56.5785 62.209 56.5998C62.1601 56.6212 62.1073 56.6322 62.054 56.6322C62.0006 56.6322 61.9479 56.6212 61.899 56.5998C61.8501 56.5785 61.8061 56.5473 61.7698 56.5082C61.7336 56.4691 61.7057 56.4229 61.6881 56.3725C61.6705 56.3222 61.6635 56.2687 61.6675 56.2155V54.1143ZM66.3055 56.2155C66.3095 56.2687 66.3025 56.3222 66.2848 56.3725C66.2672 56.4229 66.2394 56.4691 66.2031 56.5082C66.1668 56.5473 66.1229 56.5785 66.074 56.5998C66.0251 56.6212 65.9723 56.6322 65.919 56.6322C65.8656 56.6322 65.8129 56.6212 65.764 56.5998C65.7151 56.5785 65.6711 56.5473 65.6348 56.5082C65.5986 56.4691 65.5707 56.4229 65.5531 56.3725C65.5355 56.3222 65.5285 56.2687 65.5325 56.2155V51.534C65.5285 51.4808 65.5355 51.4274 65.5531 51.377C65.5707 51.3267 65.5986 51.2805 65.6348 51.2414C65.6711 51.2023 65.7151 51.1711 65.764 51.1497C65.8129 51.1284 65.8656 51.1174 65.919 51.1174C65.9723 51.1174 66.0251 51.1284 66.074 51.1497C66.1229 51.1711 66.1668 51.2023 66.2031 51.2414C66.2394 51.2805 66.2672 51.3267 66.2848 51.377C66.3025 51.4274 66.3095 51.4808 66.3055 51.534V56.2155ZM70.1683 51.9412V53.8835H72.1846C72.431 53.867 72.6618 53.7575 72.8304 53.5772C72.9991 53.3969 73.0929 53.1592 73.0929 52.9123C73.0929 52.6655 72.9991 52.4278 72.8304 52.2475C72.6618 52.0672 72.431 51.9577 72.1846 51.9412H70.1683ZM72.1846 51.1769C72.6189 51.2146 73.0233 51.4138 73.3179 51.7351C73.6125 52.0564 73.7759 52.4764 73.7759 52.9123C73.7759 53.3482 73.6125 53.7683 73.3179 54.0896C73.0233 54.4109 72.6189 54.6101 72.1846 54.6478H70.1683V56.2395C70.1686 56.291 70.1586 56.342 70.1387 56.3895C70.1189 56.437 70.0897 56.4801 70.0529 56.516C70.0173 56.5514 69.9747 56.579 69.9278 56.597C69.8809 56.615 69.8309 56.623 69.7807 56.6206C69.7295 56.6211 69.6788 56.6111 69.6316 56.5913C69.5844 56.5714 69.5418 56.5421 69.5064 56.5051C69.4332 56.4291 69.3926 56.3276 69.3931 56.2221V51.5819C69.3919 51.4763 69.4326 51.3745 69.5064 51.2988C69.542 51.2622 69.5847 51.2331 69.6318 51.2132C69.6789 51.1934 69.7296 51.1833 69.7807 51.1834H72.1912" fill="#004263"/>
<path d="M52.6395 56.81C52.5764 56.81 52.5133 56.81 52.4501 56.81C51.9373 56.7872 51.4481 56.588 51.0652 56.246C51.0326 56.2122 51.0076 56.1717 50.9918 56.1274C50.976 56.0831 50.9699 56.036 50.9738 55.9891C50.9788 55.9448 50.9937 55.9022 51.0175 55.8645C51.0412 55.8268 51.0732 55.795 51.111 55.7714C51.1856 55.7235 51.2727 55.6985 51.3614 55.6995C51.417 55.6976 51.4724 55.7073 51.5242 55.7279C51.5759 55.7485 51.6228 55.7796 51.6619 55.8193C51.8995 56.0191 52.1965 56.1347 52.5067 56.1481H52.633C53.2993 56.1481 53.7631 55.8018 53.8088 55.2771C53.8589 54.6979 53.2754 54.43 52.6025 54.1208C51.8295 53.7637 50.9542 53.3609 51.0391 52.3789C51.111 51.5688 51.7816 51.0724 52.8312 51.0724H53.0489C53.5247 51.0902 53.9795 51.2726 54.3358 51.5884C54.369 51.6194 54.395 51.6573 54.412 51.6995C54.4289 51.7416 54.4364 51.787 54.4338 51.8323C54.4292 51.876 54.4152 51.9181 54.3926 51.9557C54.37 51.9933 54.3395 52.0255 54.3031 52.0501C54.2231 52.1012 54.1302 52.1284 54.0353 52.1285C53.9801 52.1301 53.9252 52.1201 53.8742 52.0991C53.8232 52.0781 53.7772 52.0465 53.7392 52.0065C53.5281 51.8276 53.2642 51.7228 52.9879 51.7082H52.8856C52.2716 51.7082 51.8883 51.9543 51.8578 52.3614C51.8012 52.9755 52.3957 53.2477 53.0707 53.5634C53.8371 53.9183 54.7168 54.3233 54.6189 55.3054C54.5448 56.1764 53.7479 56.773 52.6461 56.773" fill="#014466"/>
</g>
</g>
<defs>
<clipPath id="clip0_6744_65099">
<rect width="72" height="48" fill="white" transform="translate(12 8.81)"/>
</clipPath>
<clipPath id="clip1_6744_65099">
<rect width="51.7365" height="48" fill="white" transform="translate(22.1309 8.81)"/>
</clipPath>
</defs>
</svg>
