<svg width="96" height="65" viewBox="0 0 96 65" fill="none" xmlns="http://www.w3.org/2000/svg">
<rect width="96" height="64" transform="translate(0 0.809998)" fill="white"/>
<g clip-path="url(#clip0_6744_65111)">
<path d="M32.6594 27.7308C34.7318 27.7308 35.7303 28.7521 35.7303 30.3886C35.7303 31.6191 35.173 32.3679 34.0287 32.6474C35.5299 32.8952 36.2717 33.7144 36.2717 35.1523C36.2717 36.7765 35.173 37.8909 32.9002 37.8909H28.7148V27.7308H32.6594ZM30.1053 29.0614V32.0937H32.4713C33.7861 32.0937 34.3275 31.4907 34.3275 30.5116C34.3275 29.5325 33.7404 29.0579 32.4713 29.0579L30.1053 29.0614ZM30.1053 33.3312V36.4952H32.9529C34.2836 36.4952 34.8865 36.0153 34.8865 34.9941C34.8865 33.9112 34.3135 33.3241 32.923 33.3241L30.1053 33.3312Z" fill="#253858"/>
<path d="M43.1139 36.5023C42.6182 37.5236 41.69 38.0492 40.5 38.0492C38.4434 38.0492 37.4062 36.3019 37.4062 34.0273C37.4062 31.8459 38.4891 30.0054 40.6547 30.0054C41.7832 30.0054 42.6498 30.5152 43.1156 31.5207V30.1601H44.4463V37.8945H43.1139V36.5023ZM40.8551 36.8117C42.0469 36.8117 43.1139 36.0541 43.1139 34.3367V33.7179C43.1139 32.0005 42.14 31.2429 41.0045 31.2429C39.5033 31.2429 38.7299 32.2326 38.7299 34.0273C38.7387 35.8836 39.4822 36.8117 40.8586 36.8117H40.8551Z" fill="#253858"/>
<path d="M53.0326 37.8945H51.702V33.2222C51.702 31.83 51.1447 31.2113 49.8773 31.2113C48.6469 31.2113 47.7891 32.0304 47.7891 33.5931V37.8945H46.4531V30.1601H47.7838V31.4293C48.0205 30.99 48.374 30.6247 48.8051 30.3734C49.2362 30.1222 49.7283 29.9949 50.2271 30.0054C51.542 30.0054 52.4385 30.6699 52.8252 31.8933C53.2576 30.7015 54.2947 30.0054 55.5779 30.0054C57.3111 30.0054 58.2691 31.1814 58.2691 33.3629V37.8945H56.9385V33.5931C56.9385 32.0005 56.3812 31.2113 55.1139 31.2113C53.8834 31.2113 53.0256 32.0304 53.0256 33.5931L53.0326 37.8945Z" fill="#253858"/>
<path d="M63.9225 38.0492C62.7939 38.0492 61.9273 37.5394 61.4615 36.5339V37.8945H60.1309V26.9275H61.4615V31.5523C61.9572 30.531 62.8854 30.0054 64.0754 30.0054C66.132 30.0054 67.1691 31.7527 67.1691 34.0273C67.1709 36.207 66.0881 38.0492 63.9225 38.0492ZM63.7221 31.2429C62.5303 31.2429 61.4633 32.0005 61.4633 33.7179V34.3367C61.4633 36.0541 62.4371 36.8117 63.5727 36.8117C65.0738 36.8117 65.8473 35.822 65.8473 34.0273C65.8402 32.171 65.0967 31.2429 63.7203 31.2429H63.7221Z" fill="#253858"/>
<path d="M68.25 34.0115C68.25 31.6912 69.6105 30.0054 71.9309 30.0054C74.2512 30.0054 75.5818 31.6912 75.5818 34.0115C75.5818 36.3318 74.2354 38.0545 71.9309 38.0545C69.6264 38.0545 68.25 36.3318 68.25 34.0115ZM69.549 34.0115C69.549 35.481 70.2768 36.8117 71.9309 36.8117C73.585 36.8117 74.2863 35.4863 74.2863 34.0115C74.2863 32.5367 73.5832 31.2429 71.9361 31.2429C70.2891 31.2429 69.5525 32.542 69.5525 34.0115H69.549Z" fill="#253858"/>
<path d="M76.668 34.0115C76.668 31.6912 78.0285 30.0054 80.3488 30.0054C82.6691 30.0054 83.9998 31.6912 83.9998 34.0115C83.9998 36.3318 82.6533 38.0545 80.3488 38.0545C78.0443 38.0545 76.668 36.3318 76.668 34.0115ZM77.967 34.0115C77.967 35.481 78.6947 36.8117 80.3488 36.8117C82.0029 36.8117 82.7008 35.4863 82.7008 34.0115C82.7008 32.5367 81.9977 31.2429 80.3506 31.2429C78.7035 31.2429 77.967 32.542 77.967 34.0115Z" fill="#253858"/>
<path d="M22.8213 33.695H20.1336C20.0488 33.6941 19.9665 33.7238 19.9019 33.7787C19.8373 33.8336 19.7947 33.91 19.782 33.9939C19.7082 34.5221 19.4458 35.0058 19.0432 35.3557C18.6407 35.7056 18.1252 35.898 17.5918 35.8976L18.3195 39.2216C19.5984 39.0545 20.7801 38.4505 21.6646 37.5119C22.5491 36.5732 23.082 35.3577 23.1729 34.0712C23.1762 34.023 23.1696 33.9746 23.1535 33.9291C23.1374 33.8836 23.112 33.8418 23.079 33.8065C23.046 33.7712 23.0061 33.7431 22.9618 33.7239C22.9174 33.7048 22.8696 33.6949 22.8213 33.695Z" fill="#2684FF"/>
<path d="M18.1701 33.6107L22.0373 30.2867C22.0747 30.2537 22.1047 30.2131 22.1252 30.1676C22.1457 30.1222 22.1563 30.0729 22.1563 30.023C22.1563 29.9731 22.1457 29.9238 22.1252 29.8783C22.1047 29.8329 22.0747 29.7923 22.0373 29.7593L18.1701 26.43C18.119 26.3869 18.0566 26.3592 17.9904 26.3503C17.9241 26.3413 17.8566 26.3515 17.7959 26.3795C17.7352 26.4076 17.6837 26.4524 17.6476 26.5086C17.6114 26.5649 17.5921 26.6303 17.5918 26.6972V33.3435C17.5921 33.4104 17.6114 33.4758 17.6476 33.5321C17.6837 33.5883 17.7352 33.6331 17.7959 33.6612C17.8566 33.6892 17.9241 33.6994 17.9904 33.6904C18.0566 33.6815 18.119 33.6538 18.1701 33.6107Z" fill="#2684FF"/>
<path d="M12.0527 34.421C12.2316 35.7636 12.8916 36.9957 13.9104 37.8883C14.9291 38.7809 16.2371 39.2734 17.5916 39.2744V35.8976C17.007 35.8976 16.4462 35.6657 16.0323 35.2528C15.6184 34.8399 15.3852 34.2797 15.3838 33.6951L12.0527 34.421Z" fill="url(#paint0_linear_6744_65111)"/>
<path d="M12 33.6423V33.6951H15.3838C15.3852 33.1104 15.6184 32.5502 16.0323 32.1373C16.4462 31.7244 17.007 31.4925 17.5916 31.4925L16.8656 28.1685C15.5315 28.3424 14.3049 28.9917 13.4111 29.9972C12.5173 31.0028 12.0162 32.2971 12 33.6423Z" fill="url(#paint1_linear_6744_65111)"/>
</g>
<defs>
<linearGradient id="paint0_linear_6744_65111" x1="14.823" y1="28.2107" x2="14.823" y2="35.8273" gradientUnits="userSpaceOnUse">
<stop stop-color="#0052CC"/>
<stop offset="1" stop-color="#2684FF"/>
</linearGradient>
<linearGradient id="paint1_linear_6744_65111" x1="14.7967" y1="28.2107" x2="14.7967" y2="35.8273" gradientUnits="userSpaceOnUse">
<stop stop-color="#0052CC"/>
<stop offset="1" stop-color="#2684FF"/>
</linearGradient>
<clipPath id="clip0_6744_65111">
<rect width="72" height="12.9287" fill="white" transform="translate(12 26.3456)"/>
</clipPath>
</defs>
</svg>
