<svg width="96" height="65" viewBox="0 0 96 65" fill="none" xmlns="http://www.w3.org/2000/svg">
<rect width="96" height="64" transform="translate(0 0.809998)" fill="white"/>
<g clip-path="url(#clip0_6744_65029)">
<g clip-path="url(#clip1_6744_65029)">
<path d="M62.1744 28.2641C62.1744 36.2547 55.8215 42.7488 48.0003 42.7488C40.1791 42.7488 33.8262 36.2829 33.8262 28.2641C33.8262 20.2453 40.1791 13.7794 48.0003 13.7794C55.8215 13.7794 62.1744 20.2735 62.1744 28.2641Z" fill="#D33833"/>
<path d="M34.3904 31.85C34.3904 31.85 33.3739 16.7441 47.2939 16.2923L46.3339 14.6829L38.7668 17.2241L36.5927 19.7088L34.7292 23.3229L33.6562 27.53L33.9668 30.3535" fill="#EF3D3A"/>
<path d="M38.2879 18.3817C35.8032 20.9229 34.2503 24.4523 34.2503 28.3206C34.2503 32.217 35.8032 35.7182 38.2879 38.2594C40.7726 40.8006 44.1891 42.3817 48.0009 42.3817C51.7844 42.3817 55.2009 40.8288 57.7138 38.2594C60.1985 35.7182 61.7515 32.1888 61.7515 28.3206C61.7515 24.4241 60.1985 20.9229 57.7138 18.3817C55.2291 15.8406 51.8126 14.2594 48.0009 14.2594C44.2174 14.2594 40.7726 15.8406 38.2879 18.3817ZM37.6668 38.8806C35.0126 36.17 33.375 32.4429 33.375 28.3206C33.375 24.1982 35.0126 20.4712 37.6385 17.7606C40.2926 15.05 43.935 13.3841 47.9726 13.3841C52.0103 13.3841 55.6526 15.0782 58.3068 17.7606C60.9609 20.4712 62.5703 24.1982 62.5703 28.3206C62.5703 32.4429 60.9326 36.17 58.3068 38.8806C55.6526 41.5912 52.0103 43.257 47.9726 43.257C43.9632 43.257 40.2926 41.5912 37.6668 38.8806Z" fill="#231F20"/>
<path d="M53.9571 28.3488L51.783 28.6594L48.8748 28.9982L46.983 29.0547L45.1477 28.9982L43.7359 28.5747L42.4936 27.2194L41.5336 24.4523L41.3077 23.8594L40.0089 23.4359L39.2748 22.1653L38.7383 20.3865L39.3312 18.8335L40.743 18.3535L41.8724 18.89L42.4089 20.0759L43.0583 19.9629L43.2842 19.6806L43.0583 18.4382L43.0018 16.8853L43.3124 14.7112V13.4688L44.3006 11.8876L46.023 10.6453L49.0442 9.37469L52.4042 9.85469L55.3124 11.9441L56.6677 14.1182L57.543 15.6712L57.7689 19.5676L57.0912 22.9276L55.9053 25.8923L54.7759 27.4735" fill="#F0D6B7"/>
<path d="M52.1221 37.6947L44.4138 38.0053V39.3041L45.0632 43.85L44.7526 44.2171L39.3597 42.3818L38.9926 41.7323L38.4279 35.6053L37.1574 31.9347L36.875 31.0594L41.195 28.0947L42.5503 27.5582L43.7362 29.0265L44.7526 29.93L45.9385 30.2971L46.475 30.4665L47.1244 33.29L47.6044 33.8829L48.8468 33.4594L47.9715 35.1535L52.6585 37.3841L52.1221 37.6947Z" fill="#335061"/>
<path d="M39.3314 18.8618L40.7431 18.3818L41.8725 18.9183L42.409 20.1041L43.0584 19.9912L43.2278 19.3418L42.9172 18.0994L43.2278 15.1347L42.9455 13.5253L43.9055 12.3959L45.9949 10.73L45.4019 9.91119L42.4372 11.3512L41.1949 12.3112L40.489 13.8077L39.4161 15.2759L39.1055 16.9983L39.3314 18.8618Z" fill="#6D6B6D"/>
<path d="M41.5334 13.7794C41.5334 13.7794 42.3522 11.7747 45.571 10.8147C48.7898 9.8547 45.7404 10.1088 45.7404 10.1088L42.2393 11.4641L40.884 12.8194L40.291 13.8923L41.5334 13.7794Z" fill="#DCD9D8"/>
<path d="M39.9243 18.4665C39.9243 18.4665 38.7949 14.683 43.1149 14.1465L42.9455 13.4971L39.9808 14.203L39.1055 17.0265L39.3314 18.8618L39.9243 18.4665Z" fill="#DCD9D8"/>
<path d="M41.6465 23.4923L42.3524 22.8147C42.3524 22.8147 42.663 22.8429 42.7194 23.2382C42.7759 23.6053 42.9453 27.0218 45.2606 28.8571C45.4865 29.0265 43.5382 28.5747 43.5382 28.5747L41.8159 25.8641" fill="#F7E4CD"/>
<path d="M51.5861 22.4477C51.5861 22.4477 51.6991 20.81 52.1508 20.9512C52.6026 21.0641 52.6026 21.5159 52.6026 21.5159C52.6026 21.5159 51.5297 22.2218 51.5861 22.4477Z" fill="#F7E4CD"/>
<path d="M56.0469 16.4617C56.0469 16.4617 55.1434 16.6311 55.0869 17.4217C55.0022 18.2123 56.0469 17.5911 56.2163 17.5347" fill="#F7E4CD"/>
<path d="M49.5257 16.5182C49.5257 16.5182 48.3398 16.6877 48.3398 17.4218C48.3398 18.1559 49.6951 18.1277 50.0622 17.7888" fill="#F7E4CD"/>
<path d="M42.1828 20.0476C42.1828 20.0476 40.1499 18.8053 39.924 19.9912C39.6981 21.177 39.2181 22.0241 40.2346 23.2947L39.5569 23.0688L38.9075 21.4029L38.6816 19.7935L39.924 18.4947L41.3358 18.6076L42.1546 19.257L42.1828 20.0476Z" fill="#F7E4CD"/>
<path d="M43.1727 16.6312C43.1727 16.6312 44.0762 11.8876 48.735 10.9559C52.5468 10.1935 54.5515 11.1253 55.3139 12.0006C55.3139 12.0006 51.8974 7.96294 48.6786 9.17706C45.4315 10.4194 43.0598 12.6782 43.1162 14.1465C43.2009 16.6312 43.1727 16.6312 43.1727 16.6312Z" fill="#F7E4CD"/>
<path d="M55.6797 12.5371C55.6797 12.5371 54.1268 12.4806 54.0703 13.8923C54.0703 13.8923 54.0703 14.1182 54.1833 14.3159C54.1833 14.3159 55.4256 12.9041 56.188 13.6665" fill="#F7E4CD"/>
<path d="M48.847 14.4571C48.847 14.4571 48.5647 12.3112 46.7576 13.5535C45.5717 14.3724 45.6847 15.5018 45.8823 15.7277C46.1082 15.9535 46.0517 16.3771 46.1929 16.0947C46.3623 15.7841 46.3058 14.8241 46.8988 14.5418C47.4635 14.2594 48.4517 13.9488 48.847 14.4571Z" fill="#F7E4CD"/>
<path d="M43.7655 29.0547L38.6831 31.3135C38.6831 31.3135 40.7725 39.6712 39.6996 42.2688L38.9372 41.9865L38.8808 38.7959L37.469 32.7535L36.9043 31.1159L42.1843 27.5582L43.7655 29.0547Z" fill="#49728B"/>
<path d="M44.2728 33.6853L45.0069 34.5606V37.8077H44.1598C44.1598 37.8077 44.0469 35.5488 44.0469 35.2665C44.0469 34.9841 44.1598 34.0241 44.1598 34.0241" fill="#49728B"/>
<path d="M44.3013 38.2877L41.873 38.4006L42.5789 38.8806L44.3013 39.163" fill="#49728B"/>
<path d="M52.6016 37.7512L54.6063 37.6947L55.0863 42.6641L53.0533 42.9465L52.6016 37.7512Z" fill="#335061"/>
<path d="M53.1387 37.7512L56.1598 37.5818C56.1598 37.5818 57.4022 34.4476 57.4022 34.2782C57.4022 34.1088 58.4751 29.7323 58.4751 29.7323L56.0469 27.1912L55.5669 26.7676L54.2681 28.0665V33.0923L53.1387 37.7512Z" fill="#335061"/>
<path d="M54.4933 37.3559L52.6016 37.723L52.8839 39.2194C53.5898 39.53 54.7757 38.683 54.7757 38.683" fill="#49728B"/>
<path d="M54.5508 27.9253L58.3343 30.7488L58.4473 29.45L55.5955 26.7959L54.5508 27.9253Z" fill="#49728B"/>
<path d="M46.1655 48.3676L45.0361 43.8218L44.4714 40.4618L44.3867 37.9771L49.4408 37.6947H52.575L52.2926 43.37L52.8291 47.7747L52.7726 48.5935L48.6502 48.9041L46.1655 48.3676Z" fill="white"/>
<path d="M51.9252 37.6947C51.9252 37.6947 51.6428 43.3135 52.4616 47.2947C52.4616 47.2947 50.8522 48.3112 48.4805 48.5935L53.0264 48.4241L53.5628 48.1135L52.9134 39.2759L52.744 37.3841" fill="#DCD9D8"/>
<path d="M55.1712 42.2124L57.2606 41.6194L61.2418 41.3935L61.8348 39.5582L60.7618 36.3677L59.5195 36.1982L57.8254 36.7629L56.1877 37.5818L55.3124 37.4124L54.6348 37.6947" fill="white"/>
<path d="M55.1445 41.1394C55.1445 41.1394 56.5563 40.49 56.7539 40.5464L56.161 37.5817L56.8669 37.2994C56.8669 37.2994 57.3469 40.1229 57.3469 40.4335C57.3469 40.4335 60.3681 40.6029 60.6504 40.6029C60.6504 40.6029 61.2998 39.3606 61.1304 38.0617L61.7234 39.7841L61.7798 40.7441L60.9045 42.0429L59.9445 42.2688L58.3351 42.2123L57.7986 41.5064L55.9069 41.7888L55.3139 42.0147" fill="#DCD9D8"/>
<path d="M53.0259 37.2994L51.84 34.2782L50.5977 32.4994C50.5977 32.4994 50.88 31.7371 51.2471 31.7371H52.4894L53.6753 32.1606L53.5624 34.1653L53.0259 37.2994Z" fill="white"/>
<path d="M53.2525 36.2829C53.2525 36.2829 51.756 33.3747 51.756 32.9229C51.756 32.9229 52.0384 32.2735 52.4054 32.4429C52.7725 32.6123 53.5913 33.0359 53.5913 33.0359V32.0194L51.756 31.6523L50.5137 31.8218L52.6031 36.7629L53.0266 36.8194" fill="#DCD9D8"/>
<path d="M46.6446 29.1676L45.1481 28.9982L43.7363 28.5747V29.0547L44.414 29.8171L46.5881 30.7771" fill="white"/>
<path d="M44.2438 29.3088C44.2438 29.3088 45.9097 30.0147 46.4744 29.8453L46.5309 30.4947L45.0344 30.1841L44.1309 29.5347L44.2438 29.3088Z" fill="#DCD9D8"/>
<path d="M55.1726 31.9347C54.2691 31.9065 53.422 31.7935 52.7161 31.5959C52.7726 31.2853 52.6596 31.0029 52.7444 30.8053C52.942 30.6641 53.2808 30.6641 53.5914 30.6359C53.3373 30.5229 52.942 30.4665 52.6596 30.5229C52.6596 30.3253 52.5467 30.1841 52.4902 30.0429C52.9985 29.8735 54.2126 28.6594 54.8902 29.0547C55.2291 29.2523 55.3702 30.3253 55.3702 30.8618C55.4267 31.257 55.342 31.7088 55.1726 31.9347Z" fill="#D33833"/>
<path d="M55.1726 31.9347C54.2691 31.9065 53.422 31.7935 52.7161 31.5959C52.7726 31.2853 52.6596 31.0029 52.7444 30.8053C52.942 30.6641 53.2808 30.6641 53.5914 30.6359C53.3373 30.5229 52.942 30.4665 52.6596 30.5229C52.6596 30.3253 52.5467 30.1841 52.4902 30.0429C52.9985 29.8735 54.2126 28.6594 54.8902 29.0547C55.2291 29.2523 55.3702 30.3253 55.3702 30.8618C55.4267 31.257 55.342 31.7088 55.1726 31.9347Z" fill="black" stroke="#D33833" stroke-width="0.2304"/>
<path d="M50.7957 30.4383C50.7957 30.4947 50.7957 30.5794 50.7957 30.6359C50.5134 30.8053 50.0616 30.8053 49.7228 30.9747C50.1746 31.003 50.5416 31.1159 50.8522 31.2571C50.8522 31.4265 50.8522 31.6241 50.824 31.7935C50.2875 32.1606 49.8075 32.6971 49.2146 33.0359C48.904 33.2053 47.8875 33.6006 47.6052 33.5159C47.4357 33.4594 47.4075 33.2618 47.351 33.0359C47.2099 32.6124 46.871 31.9065 46.8146 31.2288C46.7863 30.3818 46.7016 28.9983 47.6052 29.1677C48.3393 29.3088 49.1863 29.6477 49.751 29.9583C50.0899 30.1559 50.2875 30.3818 50.7957 30.4383Z" fill="#D33833"/>
<path d="M50.7957 30.4383C50.7957 30.4947 50.7957 30.5794 50.7957 30.6359C50.5134 30.8053 50.0616 30.8053 49.7228 30.9747C50.1746 31.003 50.5416 31.1159 50.8522 31.2571C50.8522 31.4265 50.8522 31.6241 50.824 31.7935C50.2875 32.1606 49.8075 32.6971 49.2146 33.0359C48.904 33.2053 47.8875 33.6006 47.6052 33.5159C47.4357 33.4594 47.4075 33.2618 47.351 33.0359C47.2099 32.6124 46.871 31.9065 46.8146 31.2288C46.7863 30.3818 46.7016 28.9983 47.6052 29.1677C48.3393 29.3088 49.1863 29.6477 49.751 29.9583C50.0899 30.1559 50.2875 30.3818 50.7957 30.4383Z" fill="black" stroke="#D33833" stroke-width="0.2304"/>
<path d="M51.303 31.4264C51.2183 30.9747 51.1336 30.8335 51.1618 30.4382C52.4041 29.6476 52.63 31.85 51.303 31.4264Z" fill="#D33833"/>
<path d="M51.303 31.4264C51.2183 30.9747 51.1336 30.8335 51.1618 30.4382C52.4041 29.6476 52.63 31.85 51.303 31.4264Z" fill="black" stroke="#D33833" stroke-width="0.2304"/>
<path d="M53.0818 31.7935C53.0818 31.7935 52.7147 31.257 52.9688 31.0876C53.2512 30.9182 53.5053 31.0876 53.6747 30.8053C53.8441 30.5229 53.6747 30.3817 53.7312 30.0429C53.7877 29.7041 54.0418 29.6759 54.3241 29.6194C54.6065 29.5629 55.3406 29.45 55.4535 29.7323L55.1429 28.7723L54.4935 28.5464L52.4606 29.7323L52.3477 30.3253V31.5112" fill="#EF3D3A"/>
<path d="M47.4067 33.5723C47.3502 32.7253 47.2655 31.8782 47.209 31.0594C47.0961 29.7888 47.5196 30.0147 48.5926 30.0147C48.762 30.0147 49.609 30.2123 49.6655 30.3253C49.9761 30.9182 49.1855 30.8053 50.0043 31.2571C50.7102 31.6241 51.9526 31.0312 51.6702 30.1841C51.529 29.9865 50.8514 30.1276 50.6255 29.9865C50.202 29.7606 49.7784 29.5629 49.3549 29.3371C48.8184 29.0547 47.5761 28.6594 47.0114 29.0265C45.5714 30.0147 47.0961 32.4712 47.6043 33.5159" fill="#EF3D3A"/>
<path d="M48.8469 14.4571C47.3787 14.1183 46.6446 15.0783 46.1928 16.0665C45.7975 15.9818 45.9387 15.4171 46.0516 15.163C46.3058 14.4288 47.3787 13.4688 48.254 13.61C48.6211 13.6383 49.1011 13.9771 48.8469 14.4571Z" fill="#231F20"/>
<path d="M55.9905 16.1229H56.047C56.3858 16.8006 56.6682 17.5347 57.0917 18.1559C56.8093 18.8053 54.974 19.3982 55.0023 18.2123C55.3976 18.0429 56.0752 18.1841 56.4423 17.9582C56.2446 17.4217 55.9623 16.9417 55.9905 16.1229Z" fill="#231F20"/>
<path d="M49.5818 16.1512C49.8924 16.7441 50.0054 17.3371 50.4571 17.7606C50.6548 17.9582 51.0501 18.1841 50.8524 18.7488C50.796 18.8618 50.4854 19.1724 50.2877 19.2288C49.5818 19.4265 47.9442 19.2853 48.5089 18.3818C49.1018 18.41 49.8642 18.7488 50.316 18.3253C49.9489 17.8171 49.356 16.7724 49.5818 16.1512Z" fill="#231F20"/>
<path d="M55.7365 22.0241C54.6918 22.7017 53.5059 23.4358 51.7836 23.2664C51.4165 22.9558 51.2753 22.2217 51.6424 21.77C51.8118 22.0806 51.6989 22.6735 52.2353 22.7864C53.2236 22.9558 54.353 22.1935 55.0589 21.9111C55.4824 21.177 55.0306 20.8947 54.6353 20.4147C53.8165 19.4547 52.7436 18.2406 52.7718 16.7723C53.1106 16.5182 53.1389 17.1394 53.1671 17.2523C53.5906 18.2406 54.6636 19.5111 55.4259 20.3582C55.6236 20.5558 55.9341 20.7817 55.9624 20.8947C56.0471 21.29 55.7083 21.77 55.7365 22.0241Z" fill="#231F20"/>
<path d="M41.817 21.3182C41.4782 21.1206 41.3935 20.3018 41.0264 20.2735C40.4617 20.2453 40.5747 21.3465 40.5747 21.9959C40.2076 21.6571 40.1229 20.5841 40.4053 20.0194C40.0947 19.85 39.9535 20.1888 39.7559 20.3018C39.9817 18.6641 42.1841 19.5676 41.817 21.3182Z" fill="#231F20"/>
<path d="M56.4143 22.73C55.9343 23.6617 55.2285 24.7065 53.7885 24.7347C53.7602 24.4241 53.732 23.9723 53.7885 23.7747C54.8896 23.6617 55.5673 23.097 56.4143 22.73Z" fill="#231F20"/>
<path d="M49.4961 23.3229C50.3996 23.8029 52.0937 23.8594 53.3643 23.8312C53.4208 24.1135 53.4208 24.4523 53.4208 24.7912C51.8114 24.8476 49.9196 24.4523 49.4961 23.3229Z" fill="#231F20"/>
<path d="M49.3278 24.2264C49.9773 25.8359 52.1514 25.6382 53.9867 25.61C53.902 25.8076 53.7326 26.0617 53.5067 26.1464C52.9137 26.4006 51.2761 26.57 50.4573 26.1464C49.949 25.8641 49.6102 25.2429 49.3278 24.8759C49.2149 24.6782 48.509 24.2264 49.3278 24.2264Z" fill="#231F20"/>
<path d="M55.6521 33.0359C54.918 34.3064 54.1839 35.6335 53.3086 36.7629C53.6757 35.69 53.8451 33.8547 53.9015 32.4429C54.6639 32.0759 55.3415 32.5276 55.6521 33.0359Z" fill="#81B0C4"/>
<path d="M59.6603 37.6382C58.8132 37.8077 58.2485 38.6265 57.4297 38.57C57.8815 37.9206 58.672 37.6665 59.6603 37.6382Z" fill="#231F20"/>
<path d="M60.0276 38.937C59.35 38.9935 58.5312 39.1064 57.8535 39.05C58.1923 38.57 59.4629 38.7394 60.0276 38.937Z" fill="#231F20"/>
<path d="M60.2826 40.0665C59.5203 40.0665 58.5603 40.0665 57.8262 40.01C58.2779 39.53 59.7744 39.8406 60.2826 40.0665Z" fill="#231F20"/>
<path d="M54.2117 43.1441C54.3246 44.1041 54.6917 45.0641 54.6634 46.137C54.2399 46.2782 54.014 46.3912 53.4211 46.3912C53.3928 45.4876 53.2517 44.1323 53.3081 43.257C53.5905 43.3135 53.9858 43.0876 54.2117 43.1441Z" fill="#DCD9D8"/>
<path d="M52.997 28.97C52.6017 29.2241 52.2911 29.5347 51.9241 29.817C51.1053 29.8735 50.6535 29.7606 50.0605 29.2806C50.0605 29.2523 50.117 29.2523 50.117 29.2241C50.9923 29.6194 52.0935 29.0547 52.997 28.97Z" fill="#F0D6B7"/>
<path d="M48.3945 34.9559C48.6486 33.9111 49.5804 33.3747 50.4275 32.7817C51.3028 33.9112 51.8392 35.3512 52.4322 36.7347C51.0486 36.3394 49.6086 35.6617 48.3945 34.9559Z" fill="#81B0C4"/>
<path d="M53.3089 43.2853C53.2806 44.1323 53.3936 45.5159 53.4218 46.4194C53.9865 46.4194 54.2406 46.3065 54.6641 46.1653C54.7206 45.1206 54.3253 44.1323 54.2124 43.1723C53.9865 43.0876 53.5912 43.3135 53.3089 43.2853ZM44.4712 38.4288C44.8383 41.8735 45.3747 44.7535 46.3912 47.8029C48.5936 48.4806 51.2477 48.537 53.1959 47.9159C52.8289 46.1935 52.9983 44.1041 52.7724 42.2688C52.603 40.8853 52.6877 39.5018 52.4618 38.09C50.1183 37.6382 46.7865 38.0053 44.4712 38.4288ZM53.0547 38.1465C53.0265 39.6147 53.1112 41.0829 53.2241 42.5512C53.7889 42.4665 54.1841 42.41 54.6924 42.297C54.523 40.8853 54.5512 39.2759 54.1841 38.0053C53.8171 38.0335 53.45 38.0053 53.0547 38.1465ZM55.9347 37.8923C55.6524 37.8359 55.3418 37.8923 55.0877 37.8923C55.2006 39.1065 55.5112 40.4053 55.5959 41.6759C55.9912 41.6759 56.2171 41.5065 56.5559 41.4218C56.5841 40.3488 56.4712 38.8241 55.9347 37.8923ZM60.283 41.8735C61.13 41.6759 61.6665 40.6312 61.4124 39.5865C61.243 38.8806 60.9889 37.5253 60.6783 37.0735C60.4524 36.7347 59.8594 36.2829 59.3512 36.5935C58.5606 37.1018 57.1771 37.2429 56.6124 37.8641C56.8947 38.8241 56.9794 40.1229 57.0924 41.337C58.0806 41.3935 59.2665 41.0547 60.0853 41.4218C59.5206 41.5912 58.7865 41.5912 58.2783 41.8735C58.73 42.0712 59.6618 42.0429 60.283 41.8735ZM52.4336 36.7629C51.8406 35.3794 51.3041 33.9394 50.4289 32.81C49.5818 33.3747 48.6218 33.9394 48.3959 34.9841C49.61 35.6618 51.05 36.3394 52.4336 36.7629ZM53.9018 32.4429C53.8453 33.8265 53.6759 35.6618 53.3089 36.7629C54.1841 35.6335 54.9183 34.3347 55.6524 33.0359C55.3418 32.5276 54.6641 32.0759 53.9018 32.4429ZM52.2359 31.85C51.8971 31.8218 51.6147 32.2453 51.1912 32.0476C51.0783 32.1606 50.9936 32.2735 50.8806 32.3865C51.8406 33.5441 52.2924 35.21 53.0265 36.5653C53.4218 35.2382 53.3936 33.8265 53.4783 32.3865C52.9418 32.4429 52.6312 31.9065 52.2359 31.85ZM51.1912 30.4382C51.163 30.8335 51.2477 30.9747 51.3324 31.4265C52.6312 31.85 52.4053 29.6476 51.1912 30.4382ZM49.723 29.9582C49.1583 29.6476 48.3112 29.3088 47.5771 29.1676C46.6736 28.9982 46.7583 30.41 46.7865 31.2288C46.8147 31.8782 47.1536 32.5841 47.323 33.0359C47.3794 33.2335 47.4077 33.4594 47.5771 33.5159C47.8877 33.5723 48.9041 33.177 49.1865 33.0359C49.8077 32.697 50.2877 32.1606 50.7959 31.7935C50.7959 31.6241 50.7959 31.4265 50.8241 31.257C50.5136 31.0876 50.1465 31.0029 49.6947 30.9747C50.0053 30.8053 50.4853 30.8053 50.7677 30.6359C50.7677 30.5794 50.7677 30.4947 50.7677 30.4382C50.2877 30.3818 50.09 30.1559 49.723 29.9582ZM44.3583 28.9982C43.8783 29.4782 45.6853 30.1276 46.2218 30.1559C46.2218 29.8453 46.3912 29.5629 46.363 29.3653C45.6853 29.2523 44.81 29.3088 44.3583 28.9982ZM50.1183 29.2241C50.1183 29.2806 50.0618 29.2523 50.0618 29.2806C50.6547 29.7606 51.1065 29.8453 51.9253 29.817C52.2924 29.5629 52.6312 29.2241 52.9983 28.97C52.0947 29.0547 50.9936 29.6194 50.1183 29.2241ZM55.3983 30.8053C55.37 30.2688 55.2289 29.1959 54.9183 28.9982C54.2406 28.6029 53.0265 29.817 52.5183 29.9865C52.5747 30.1559 52.6594 30.2688 52.6877 30.4665C52.9983 30.3818 53.3653 30.4382 53.6194 30.5794C53.3089 30.6076 52.97 30.6076 52.7724 30.7488C52.7159 30.9747 52.8006 31.257 52.7441 31.5394C53.4783 31.737 54.2971 31.85 55.2006 31.8782C55.3418 31.7088 55.4265 31.257 55.3983 30.8053ZM43.5677 29.45C43.4265 29.337 42.4383 28.0665 42.2971 28.1229C40.49 28.8288 38.8241 30.0429 37.3277 31.2288C38.7677 34.3065 39.3324 38.0618 39.4453 41.6759C41.083 42.4382 42.523 43.5394 44.7536 43.6523C44.4994 41.8453 44.2736 40.2076 44.1041 38.4853C43.5394 38.2312 42.7489 38.4853 42.2124 38.4288C42.2124 37.8076 43.003 38.1465 43.0877 37.7229C43.1441 37.4123 42.6359 37.3841 42.8053 36.8759C43.2289 37.017 43.4265 37.3559 43.8783 37.4688C44.2736 36.5935 43.8783 35.0688 43.9347 34.3347C43.9347 34.1935 43.9912 33.5723 44.3018 33.6853C44.5841 33.77 44.3018 35.3512 44.3018 36.0288C44.33 36.6782 44.2171 37.2712 44.4712 37.6665C46.6171 37.3559 48.7912 37.1865 51.1347 37.13C50.6265 36.9041 50.0053 36.7065 49.3559 36.3394C48.9889 36.1418 47.8594 35.7182 47.7465 35.3794C47.5771 34.8429 48.17 34.5323 48.283 34.0806C47.21 34.6735 46.9841 33.5159 46.73 32.697C46.5041 31.9629 46.363 31.3982 46.3065 30.9747C45.3747 30.4665 44.3583 30.0429 43.5677 29.45ZM54.4383 28.2641C55.9347 27.53 56.2171 30.9747 55.6241 32.0759C55.7089 32.4147 56.0194 32.5276 56.1606 32.8382C55.3136 34.3347 54.41 35.7182 53.5347 37.2147C54.1559 36.8194 55.0877 37.1582 55.8218 36.8476C56.1041 36.7347 56.3018 36.1135 56.4994 35.6053C57.0641 34.2218 57.6571 32.4994 57.9394 31.2006C57.9959 30.89 58.1653 30.2406 58.1089 29.9865C58.0524 29.5065 57.403 29.1394 57.0641 28.857C56.4712 28.3206 56.0759 27.8406 55.4547 27.3323C55.2006 27.6994 54.6641 27.9535 54.4383 28.2641ZM40.1512 14.9935C39.4453 15.7841 39.5865 17.2523 39.6712 18.297C40.97 17.4782 42.6641 18.3818 42.6641 19.737C43.2853 19.737 42.89 18.9747 42.7771 18.4665C42.41 16.8853 43.3983 15.1629 42.8336 13.7229C41.7041 13.8076 40.8006 14.2594 40.1512 14.9935ZM45.2336 10.4476C43.6241 10.8994 41.563 12.0853 40.8853 13.5253C41.3936 13.4406 41.7606 13.1865 42.2689 13.1582C42.4665 13.1582 42.7206 13.2429 42.9183 13.1865C43.3418 13.0735 43.7371 12.0853 44.0477 11.7182C44.3583 11.3512 44.7536 11.21 45.0077 10.8712C45.2336 10.8147 45.4877 10.8147 45.4877 10.5606C45.4312 10.4759 45.3465 10.4194 45.2336 10.4476ZM53.6477 10.8712C51.9536 9.91117 49.13 9.20528 47.3512 10.1088C45.9112 10.8429 43.963 12.0288 43.3136 13.5253C43.9347 14.9653 43.1441 16.2923 43.0594 17.7888C43.0312 18.5794 43.4265 19.257 43.4547 20.1041C43.2289 20.4712 42.6077 20.4994 42.1559 20.4712C42.0147 19.7088 41.7324 18.8618 40.97 18.777C39.8689 18.6641 39.05 19.5676 39.0218 20.5276C38.9653 21.657 39.8689 23.4923 41.1959 23.3794C41.7041 23.3229 41.8171 22.8429 42.3818 22.8429C42.6924 23.4359 41.93 23.6335 41.8453 24.057C41.8171 24.17 41.9018 24.5935 41.9583 24.7912C42.2124 25.7512 42.7206 27.0218 43.2289 27.7841C43.8783 28.7441 45.1771 28.857 46.5889 28.97C46.843 28.4335 47.7465 28.49 48.3394 28.6029C47.6053 28.3206 46.9559 27.6429 46.4194 27.0218C45.7983 26.3159 45.1489 25.5818 45.1206 24.6782C46.3347 26.3441 47.2947 27.7841 49.4689 28.5182C51.1065 29.0547 53.0265 28.2641 54.2971 27.3888C54.8336 27.0218 55.1441 26.4288 55.5112 25.8923C56.8947 23.8876 57.5441 21.0359 57.4312 18.2406C57.3747 17.1112 57.3747 15.9535 56.9794 15.1912C56.5841 14.4006 55.2289 13.6665 54.41 14.4006C54.2406 13.5253 55.0594 13.0453 55.9912 13.3276C55.3418 12.4523 54.6077 11.4076 53.6477 10.8712ZM56.7818 36.7065C58.1089 36.057 60.5371 34.9559 61.3559 36.7065C61.6665 37.3559 62.0053 38.457 62.1747 39.1065C62.4006 40.0382 61.9206 42.0429 60.9606 42.3535C60.1136 42.6359 59.0971 42.6076 58.0806 42.41C57.9677 42.297 57.8265 42.1276 57.7136 41.9582C56.9794 41.93 56.2736 41.9865 55.7089 42.297C55.7653 42.8335 55.3983 42.9182 55.0594 43.0312C54.8053 44.0476 55.5677 45.3747 55.3983 46.2782C55.2853 46.9276 54.4665 47.0406 53.8736 47.1535C53.8453 47.5206 53.9018 47.8312 53.93 48.1418C53.7889 48.65 53.1959 48.9323 52.603 48.9888C50.683 49.2147 47.803 49.3276 45.9677 48.65C45.4594 47.3794 45.0641 45.8829 44.6406 44.4429C42.8618 44.6406 41.3936 43.6806 40.0383 43.0312C39.5583 42.8053 38.9089 42.6923 38.7394 42.297C38.57 41.93 38.6265 41.2241 38.5983 40.5747C38.4853 38.8806 38.4006 37.2712 37.9489 35.5488C37.7512 34.7582 37.4124 34.1088 37.1583 33.3465C36.9324 32.6688 36.5371 31.7935 36.4241 31.1159C36.283 30.0994 37.243 30.0429 37.8359 29.5912C38.7959 28.9135 39.53 28.5182 40.5465 27.897C40.8571 27.7276 41.7606 27.2476 41.8736 27.05C42.0712 26.6265 41.5065 26.0335 41.3653 25.6947C41.1112 25.1582 40.9983 24.7347 40.97 24.1982C40.123 24.057 39.4453 23.5488 39.05 22.9841C38.4006 22.0241 37.9489 20.2453 38.5136 18.9182C38.57 18.8053 38.7677 18.6076 38.8241 18.4382C38.8806 18.1276 38.7112 17.7041 38.683 17.3653C38.6265 15.6147 38.9936 14.1182 40.1512 13.5818C40.6312 11.6618 42.3536 11.0406 43.963 10.1088C44.5559 9.74175 45.2336 9.51587 45.9112 9.26175C48.3959 8.44293 52.1794 8.61234 54.2406 10.1653C55.1159 10.8147 56.4994 12.1982 56.9794 13.2147C58.3065 15.8688 58.1936 20.2735 57.29 23.4923C57.1771 23.9159 56.9794 24.5653 56.7536 25.0735C56.5841 25.4406 56.0477 26.1465 56.1041 26.4853C56.1606 26.8241 57.3465 27.6994 57.6006 27.9253C58.0524 28.3488 58.8994 28.9418 58.9841 29.4782C59.0689 30.0712 58.73 30.8618 58.5606 31.4265C57.9677 33.3182 57.403 35.0406 56.7818 36.7065Z" fill="#231F20"/>
<path d="M48.0292 23.7182C48.0856 23.6335 48.4809 23.4641 49.0456 23.7465C49.0456 23.7465 48.3962 23.8594 48.4527 24.9324L48.1703 24.8759C48.1986 24.9041 47.888 23.9159 48.0292 23.7182Z" fill="#F7E4CD"/>
<path d="M52.7716 33.0076C52.7716 33.177 52.6304 33.3182 52.461 33.3182C52.2916 33.3182 52.1504 33.177 52.1504 33.0076C52.1504 32.8382 52.2916 32.697 52.461 32.697C52.6304 32.7253 52.7716 32.8664 52.7716 33.0076Z" fill="#1D1919"/>
<path d="M53.0548 34.3912C53.0548 34.5606 52.9136 34.7017 52.7442 34.7017C52.5748 34.7017 52.4336 34.5606 52.4336 34.3912C52.4336 34.2217 52.5748 34.0806 52.7442 34.0806C52.9418 34.1088 53.0548 34.2217 53.0548 34.3912Z" fill="#1D1919"/>
<path d="M37.4943 51.8778C37.4096 51.8778 37.3249 51.906 37.2402 51.906C37.1837 51.906 37.099 51.9342 37.0143 51.9625C36.9014 51.9907 36.8449 52.0189 36.8449 52.1036C36.8167 52.1601 36.7885 52.2448 36.7885 52.3295V55.1248C36.7885 55.3789 36.732 55.6048 36.619 55.8307C36.5061 56.0566 36.3649 56.226 36.1955 56.3672C36.0261 56.5083 35.8002 56.6213 35.5743 56.6778C35.3485 56.7342 35.0943 56.7907 34.8402 56.7907C34.3885 56.7907 34.0496 56.6778 33.7673 56.4801C33.4849 56.2542 33.3438 55.9719 33.3438 55.6048C33.3438 55.3789 33.4002 55.2095 33.5132 55.0683C33.6261 54.9272 33.8238 54.8425 34.0214 54.8425C34.219 54.8425 34.3885 54.8989 34.5014 55.0119C34.6143 55.1248 34.6708 55.2942 34.6708 55.4636C34.6708 55.6048 34.6143 55.7742 34.5014 55.8872C34.3885 56.0001 34.2755 56.1413 34.1343 56.2542V56.3107C34.1626 56.3672 34.1908 56.3954 34.2755 56.4236C34.3602 56.4519 34.4167 56.4801 34.5014 56.4801C34.7837 56.4801 35.0096 56.3672 35.179 56.1695C35.3485 55.9719 35.4332 55.6613 35.4332 55.2378V52.386C35.4332 52.3013 35.4332 52.2166 35.4049 52.1601C35.3767 52.1036 35.3202 52.0472 35.2073 52.0189C35.1508 51.9907 35.0379 51.9625 34.9532 51.9342C34.8402 51.906 34.7837 51.906 34.699 51.8778V51.5954H37.4096V51.8778H37.4943Z" fill="#231F20"/>
<path d="M41.7299 55.8307C41.6452 55.9719 41.5605 56.0848 41.4193 56.226C41.3064 56.3389 41.1652 56.4519 41.024 56.5366C40.8546 56.6213 40.7134 56.706 40.544 56.7342C40.3746 56.7625 40.177 56.7907 39.9793 56.7907C39.6123 56.7907 39.3299 56.7342 39.0758 56.6495C38.8217 56.5366 38.5958 56.4236 38.4546 56.2542C38.2852 56.0848 38.1723 55.8872 38.0876 55.6613C38.0028 55.4354 37.9746 55.1813 37.9746 54.9272C37.9746 54.673 38.0311 54.4472 38.1158 54.2213C38.2005 53.9954 38.3417 53.7978 38.4828 53.6283C38.6523 53.4589 38.8499 53.3178 39.104 53.2048C39.3581 53.0919 39.6405 53.0354 39.9228 53.0354C40.2617 53.0354 40.5158 53.0919 40.7417 53.1483C40.9676 53.233 41.137 53.346 41.2781 53.4872C41.4193 53.6283 41.504 53.7978 41.5887 53.9672C41.6452 54.1366 41.6734 54.3342 41.6734 54.5601V54.786H39.2734C39.2734 55.266 39.3581 55.633 39.5558 55.8872C39.7252 56.1413 40.0358 56.2542 40.4593 56.2542C40.6852 56.2542 40.8828 56.1978 41.0523 56.0848C41.2217 55.9719 41.3911 55.8025 41.504 55.6048L41.7299 55.8307ZM40.3746 54.4472C40.3746 54.306 40.3746 54.1648 40.3464 54.0236C40.3464 53.8825 40.3181 53.7413 40.2617 53.6566C40.2052 53.5436 40.177 53.4589 40.0923 53.4025C40.0358 53.346 39.9228 53.3178 39.8381 53.3178C39.6687 53.3178 39.4993 53.4025 39.4146 53.6001C39.3017 53.7695 39.2452 54.0801 39.2452 54.4754L40.3746 54.4472Z" fill="#231F20"/>
<path d="M46.7561 56.6778H44.6103V56.4237C44.6667 56.4237 44.7232 56.4237 44.7797 56.3954C44.8361 56.3954 44.8926 56.3672 44.9208 56.3672C44.9773 56.339 45.0056 56.3107 45.0338 56.2542C45.062 56.1978 45.062 56.1413 45.062 56.0284V54.3625C45.062 54.1084 45.0056 53.939 44.9208 53.826C44.8361 53.7131 44.695 53.6566 44.5256 53.6566C44.4408 53.6566 44.3561 53.6566 44.2714 53.7131C44.1867 53.7413 44.102 53.7695 44.0173 53.826C43.9608 53.8825 43.9044 53.9107 43.8479 53.9672C43.7914 54.0237 43.7632 54.0519 43.735 54.1084V56.0284C43.735 56.1131 43.735 56.1695 43.7632 56.226C43.7914 56.2825 43.8197 56.339 43.8761 56.339C43.9044 56.3672 43.9608 56.3954 44.0173 56.3954C44.0738 56.3954 44.1303 56.4237 44.1867 56.4237V56.6778H42.0126V56.4237C42.0691 56.4237 42.1256 56.4237 42.182 56.3954C42.2385 56.3954 42.295 56.3672 42.3514 56.3672C42.4361 56.339 42.4644 56.3107 42.5208 56.2542C42.5491 56.1978 42.5773 56.1413 42.5773 56.0284V53.939C42.5773 53.8825 42.5491 53.7978 42.5208 53.7131C42.4926 53.6566 42.4361 53.6001 42.3797 53.5437C42.3232 53.5154 42.295 53.4872 42.2103 53.4872C42.1538 53.459 42.0691 53.459 41.9844 53.459V53.2048L43.6785 53.1201L43.735 53.1766V53.6848C43.7914 53.6284 43.8761 53.5719 43.9891 53.459C44.0738 53.3742 44.1585 53.3178 44.2432 53.2613C44.3279 53.2048 44.4408 53.1484 44.582 53.1201C44.7232 53.0637 44.8926 53.0637 45.0338 53.0637C45.4291 53.0637 45.7114 53.1766 45.9091 53.4025C46.1067 53.6284 46.1914 53.9107 46.1914 54.2778V56.0284C46.1914 56.1131 46.1914 56.1978 46.2197 56.226C46.2479 56.2825 46.3044 56.3107 46.3608 56.339C46.3891 56.339 46.4456 56.3672 46.502 56.3954C46.5585 56.3954 46.615 56.4237 46.6997 56.4237L46.7561 56.6778Z" fill="#231F20"/>
<path d="M51.6975 56.6778H50.0034C49.8058 56.3107 49.6081 56.0001 49.4387 55.746C49.2693 55.4919 49.0999 55.266 48.9587 55.0401L48.7611 55.2096V56.0001C48.7611 56.0849 48.7611 56.1696 48.7893 56.1978C48.8175 56.2543 48.8458 56.2825 48.9305 56.3107C48.987 56.339 49.0152 56.339 49.0717 56.3672C49.1281 56.3672 49.1846 56.3954 49.2411 56.3954V56.6496H47.0105V56.3954C47.067 56.3954 47.1234 56.3954 47.1799 56.3672C47.2364 56.3672 47.2928 56.339 47.3493 56.339C47.434 56.3107 47.4623 56.2825 47.5187 56.226C47.547 56.1696 47.5752 56.1131 47.5752 56.0001V52.019C47.5752 51.9343 47.547 51.8496 47.5187 51.7649C47.4905 51.6801 47.434 51.6237 47.3775 51.5672C47.3211 51.539 47.2646 51.5107 47.1799 51.5107C47.0952 51.4825 47.0105 51.4825 46.9258 51.4825V51.2284L48.7046 51.1437L48.7611 51.2001V54.8707C48.9305 54.7013 49.1281 54.5319 49.354 54.3343C49.5799 54.1366 49.7493 53.9672 49.8905 53.826C49.9752 53.7413 50.0034 53.6849 50.0034 53.6566C50.0034 53.6001 50.0034 53.6001 50.0034 53.5719C50.0034 53.5154 49.9752 53.4872 49.8905 53.459C49.8058 53.4307 49.7211 53.4025 49.5517 53.3743V53.1201H51.3587V53.3743C51.1046 53.4307 50.9352 53.4872 50.8223 53.5437C50.7093 53.6001 50.5681 53.6849 50.3987 53.7696C50.2858 53.826 50.2011 53.9107 50.1164 53.9672C50.0317 54.0237 49.9187 54.1366 49.8058 54.2213C50.0317 54.5601 50.2575 54.8707 50.4552 55.1531C50.6528 55.4354 50.8505 55.746 51.0764 56.0566C51.1328 56.1696 51.2458 56.226 51.3587 56.2825C51.4717 56.3107 51.5846 56.339 51.6975 56.339V56.6213V56.6778Z" fill="#231F20"/>
<path d="M53.9557 56.6778H51.6969V56.4237C51.7534 56.4237 51.8099 56.4237 51.8663 56.3954C51.9228 56.3672 51.9793 56.3672 52.0075 56.3672C52.0922 56.3389 52.1205 56.3107 52.1769 56.2542C52.2052 56.1978 52.2334 56.1413 52.2334 56.0284V53.9389C52.2334 53.8542 52.2052 53.7695 52.1769 53.7131C52.1487 53.6566 52.0922 53.6001 52.0357 53.5719C51.9793 53.5437 51.9228 53.5154 51.8381 53.4872C51.7534 53.4589 51.6687 53.4307 51.584 53.4307V53.1766L53.3346 53.0919L53.391 53.1484V55.9719C53.391 56.0566 53.4193 56.1131 53.4475 56.1978C53.4757 56.2542 53.5322 56.3107 53.5887 56.3107C53.6452 56.3389 53.7016 56.3672 53.7581 56.3672C53.8146 56.3672 53.871 56.3954 53.9275 56.3954L53.9557 56.6778ZM53.4475 51.7931C53.4475 51.9625 53.391 52.1319 53.2499 52.2448C53.1087 52.3578 52.9393 52.4425 52.7699 52.4425C52.5722 52.4425 52.4028 52.386 52.2616 52.2448C52.1205 52.1319 52.064 51.9625 52.064 51.7931C52.064 51.6237 52.1205 51.4542 52.2616 51.3131C52.4028 51.2001 52.5722 51.1154 52.7699 51.1154C52.9675 51.1154 53.1369 51.1719 53.2499 51.3131C53.391 51.4542 53.4475 51.6237 53.4475 51.7931Z" fill="#231F20"/>
<path d="M59.01 56.6778H56.8642V56.4237C56.9206 56.4237 56.9771 56.4237 57.0336 56.3954C57.09 56.3954 57.1465 56.3672 57.1748 56.3672C57.2312 56.339 57.2595 56.3107 57.2877 56.2542C57.3159 56.1978 57.3159 56.1413 57.3159 56.0284V54.3625C57.3159 54.1084 57.2595 53.939 57.1748 53.826C57.09 53.7131 56.9489 53.6566 56.7795 53.6566C56.6948 53.6566 56.61 53.6566 56.5253 53.7131C56.4406 53.7413 56.3559 53.7695 56.2712 53.826C56.2148 53.8825 56.1583 53.9107 56.1018 53.9672C56.0453 54.0237 56.0171 54.0519 55.9889 54.1084V56.0284C55.9889 56.1131 55.9889 56.1695 56.0171 56.226C56.0453 56.2825 56.0736 56.339 56.13 56.339C56.1583 56.3672 56.2148 56.3954 56.2712 56.3954C56.3277 56.3954 56.3842 56.4237 56.4406 56.4237V56.6778H54.2665V56.4237C54.323 56.4237 54.3795 56.4237 54.4359 56.3954C54.4924 56.3954 54.5489 56.3672 54.6053 56.3672C54.69 56.339 54.7183 56.3107 54.7748 56.2542C54.803 56.1978 54.8312 56.1413 54.8312 56.0284V53.939C54.8312 53.8825 54.803 53.7978 54.7748 53.7131C54.7465 53.6566 54.69 53.6001 54.6336 53.5437C54.5771 53.5154 54.5489 53.4872 54.4642 53.4872C54.4077 53.459 54.323 53.459 54.2383 53.459V53.2048L55.9324 53.1201L55.9889 53.1766V53.6848C56.0453 53.6284 56.13 53.5719 56.243 53.459C56.3277 53.3742 56.4124 53.3178 56.4971 53.2613C56.5818 53.2048 56.6948 53.1484 56.8359 53.1201C56.9771 53.0637 57.1465 53.0637 57.2877 53.0637C57.683 53.0637 57.9653 53.1766 58.163 53.4025C58.3606 53.6284 58.4453 53.9107 58.4453 54.2778V56.0284C58.4453 56.1131 58.4453 56.1978 58.4736 56.226C58.5018 56.2825 58.5583 56.3107 58.6148 56.339C58.643 56.339 58.6995 56.3672 58.7559 56.3954C58.8124 56.3954 58.8689 56.4237 58.9536 56.4237L59.01 56.6778Z" fill="#231F20"/>
<path d="M60.9853 56.7907C60.7594 56.7907 60.5335 56.7625 60.3077 56.6778C60.0818 56.6213 59.9124 56.5366 59.7994 56.4519L59.6865 56.706H59.4041L59.3477 55.3789H59.6018C59.63 55.4919 59.6865 55.6048 59.7712 55.746C59.8559 55.8872 59.9406 56.0001 60.0535 56.113C60.1665 56.226 60.3077 56.3107 60.4488 56.3954C60.59 56.4519 60.7594 56.5083 60.9006 56.5083C61.1265 56.5083 61.2677 56.4519 61.3806 56.3954C61.4935 56.3107 61.55 56.1695 61.55 56.0001C61.55 55.9154 61.5218 55.8307 61.4935 55.746C61.4371 55.6895 61.3806 55.633 61.2959 55.5766C61.2112 55.5201 61.0982 55.4919 60.9853 55.4636C60.8724 55.4354 60.7312 55.4072 60.5618 55.3507C60.3924 55.2942 60.2512 55.266 60.1382 55.2095C60.0253 55.153 59.8841 55.0966 59.7712 54.9836C59.6582 54.8989 59.5735 54.786 59.5171 54.6448C59.4606 54.5319 59.4324 54.3625 59.4324 54.1648C59.4324 53.826 59.5735 53.5719 59.8559 53.346C60.1382 53.1483 60.5053 53.0354 60.9571 53.0354C61.183 53.0354 61.3806 53.0636 61.55 53.0919C61.7194 53.1483 61.8888 53.1766 62.0018 53.233L62.0865 53.0354H62.3688L62.4253 54.2495H62.1712C62.0865 53.9954 61.9453 53.7978 61.7477 53.6001C61.55 53.4307 61.3241 53.3178 61.0982 53.3178C60.9288 53.3178 60.7594 53.346 60.6747 53.4307C60.5618 53.5154 60.5053 53.6001 60.5053 53.7413C60.5053 53.9107 60.59 54.0519 60.7312 54.1366C60.8724 54.2213 61.0982 54.306 61.3806 54.3625C61.8041 54.4754 62.1147 54.6166 62.3124 54.8142C62.51 55.0119 62.6229 55.2378 62.6229 55.5483C62.6229 55.9436 62.4818 56.2542 62.1712 56.4519C61.8888 56.6778 61.4653 56.7907 60.9853 56.7907Z" fill="#231F20"/>
</g>
</g>
<defs>
<clipPath id="clip0_6744_65029">
<rect width="72" height="48" fill="white" transform="translate(12 8.81)"/>
</clipPath>
<clipPath id="clip1_6744_65029">
<rect width="29.3082" height="48" fill="white" transform="translate(33.3457 8.81)"/>
</clipPath>
</defs>
</svg>
