<svg width="79" height="90" viewBox="0 0 79 90" fill="none" xmlns="http://www.w3.org/2000/svg">
<path d="M40.2354 77.8505C61.492 77.3681 78.3329 59.7452 77.8505 38.4885C77.3681 17.2319 59.7452 0.391019 38.4885 0.873399C17.2319 1.35578 0.391047 18.9787 0.873427 40.2354C1.35581 61.492 18.9788 78.3329 40.2354 77.8505Z" fill="#F76F12"/>
<path d="M39.8004 74.1797C59.0414 73.9547 74.457 58.1743 74.232 38.9332C74.007 19.6921 58.2266 4.27657 38.9855 4.50158C19.7444 4.72659 4.32889 20.507 4.5539 39.748C4.77891 58.9891 20.5593 74.4047 39.8004 74.1797Z" fill="#F9CC32"/>
<path d="M9 30.7734C9.40394 30.7734 9.8025 30.8003 10.2118 30.8003C17.3179 30.7999 28.8402 35.0921 34.5039 30.8003C40.1676 26.5086 39.6623 13.8681 41.5847 7.02694C41.1862 7.02694 40.7822 7 40.3783 7C33.2719 7.00192 26.3608 9.3254 20.6965 13.6168C15.0323 17.9083 10.9251 23.9328 9 30.7734Z" fill="url(#paint0_linear_444_2725)"/>
<path d="M56.1248 13.0841C56.1679 13.7573 56.1948 14.4359 56.1948 15.1199C56.1916 20.7229 54.7787 26.2351 52.086 31.1486C49.3934 36.0622 44.7209 40.9824 40 44C35.2791 47.0176 30.6614 48.0358 25.0714 48.4165C19.4813 48.7973 13.8853 47.7653 8.79883 45.4157C9.79838 50.4716 12.0365 55.2005 15.3126 59.179C18.5887 63.1574 22.8006 66.2611 27.5709 68.2119C32.3411 70.1627 37.5208 70.8997 42.6459 70.357C47.771 69.8143 52.6814 68.0087 56.9373 65.102C61.1931 62.1953 64.6615 58.2783 67.0317 53.7019C69.4019 49.1255 70.5998 44.0327 70.5182 38.8796C70.4366 33.7265 69.0781 28.6741 66.5642 24.175C64.0504 19.676 60.4597 15.8707 56.114 13.1002L56.1248 13.0841Z" fill="#F99A26"/>
<path d="M55.5188 32.5221C55.8927 32.7371 56.3156 32.8521 56.7468 32.8561C57.2394 32.8571 57.7212 32.712 58.1313 32.439C58.5413 32.166 58.861 31.7774 59.05 31.3225C59.239 30.8676 59.2888 30.3668 59.1929 29.8837C59.0971 29.4005 58.86 28.9566 58.5117 28.6083C58.1634 28.26 57.7195 28.0229 57.2363 27.927C56.7531 27.8312 56.2524 27.8809 55.7975 28.0699C55.3426 28.2589 54.954 28.5787 54.681 28.9887C54.408 29.3988 54.2628 29.8806 54.2639 30.3732H46.3251L41.4293 21.7826C41.9071 21.5115 42.2817 21.0899 42.4948 20.5836C42.7079 20.0772 42.7474 19.5146 42.6072 18.9835C42.467 18.4523 42.155 17.9825 41.7198 17.6472C41.2846 17.312 40.7507 17.1302 40.2013 17.1302C39.652 17.1302 39.118 17.312 38.6828 17.6472C38.2476 17.9825 37.9356 18.4523 37.7954 18.9835C37.6552 19.5146 37.6947 20.0772 37.9078 20.5836C38.1209 21.0899 38.4955 21.5115 38.9733 21.7826L34.0775 30.4001H26.1387C26.1436 29.8469 25.9657 29.3076 25.6325 28.866C25.2993 28.4245 24.8296 28.1053 24.2963 27.9582C23.763 27.8111 23.1961 27.8444 22.6836 28.0527C22.1712 28.2611 21.7419 28.6329 21.4626 29.1104C21.1833 29.5879 21.0695 30.1443 21.139 30.6931C21.2085 31.2419 21.4574 31.7523 21.847 32.1451C22.2365 32.5379 22.7449 32.791 23.2931 32.865C23.8413 32.939 24.3986 32.8298 24.8784 32.5545L28.864 39.5292L24.8784 46.504C24.4042 46.2364 23.855 46.1326 23.3159 46.2085C22.7767 46.2844 22.2776 46.5358 21.8956 46.9238C21.5136 47.3118 21.2701 47.8149 21.2027 48.3552C21.1353 48.8954 21.2478 49.4429 21.5227 49.9128C21.7977 50.3828 22.2197 50.7491 22.7237 50.9551C23.2277 51.1612 23.7855 51.1954 24.311 51.0526C24.8364 50.9098 25.3001 50.5979 25.6305 50.1651C25.9609 49.7324 26.1395 49.2028 26.1387 48.6583H34.0721L38.8548 56.9795C38.4028 57.2704 38.0571 57.6998 37.8695 58.2035C37.6819 58.7072 37.6624 59.2581 37.814 59.7738C37.9656 60.2894 38.2801 60.7422 38.7104 61.0642C39.1408 61.3863 39.6638 61.5603 40.2013 61.5603C40.7388 61.5603 41.2619 61.3863 41.6922 61.0642C42.1225 60.7422 42.437 60.2894 42.5886 59.7738C42.7402 59.2581 42.7207 58.7072 42.5331 58.2035C42.3455 57.6998 41.9998 57.2704 41.5478 56.9795L46.3251 48.6206H54.2639C54.2639 49.1117 54.4095 49.5917 54.6824 50C54.9552 50.4084 55.343 50.7266 55.7967 50.9145C56.2503 51.1024 56.7496 51.1516 57.2312 51.0558C57.7128 50.96 58.1553 50.7235 58.5025 50.3763C58.8497 50.029 59.0862 49.5866 59.182 49.105C59.2778 48.6234 59.2286 48.1241 59.0407 47.6704C58.8528 47.2168 58.5346 46.829 58.1262 46.5562C57.7179 46.2833 57.2379 46.1377 56.7468 46.1377C56.3156 46.1417 55.8927 46.2567 55.5188 46.4716L51.5333 39.4969L55.5188 32.5221Z" fill="#F75712"/>
<path d="M42.6831 59.0582C42.6829 58.6442 42.5788 58.237 42.3802 57.8737C42.1816 57.5105 41.895 57.2029 41.5467 56.9793L46.324 48.6203H54.2628C54.2628 49.1114 54.4084 49.5914 54.6813 49.9998C54.9541 50.4081 55.3419 50.7263 55.7956 50.9142C56.2493 51.1021 56.7485 51.1513 57.2301 51.0555C57.7117 50.9597 58.1542 50.7232 58.5014 50.376C58.8486 50.0288 59.0851 49.5864 59.1809 49.1047C59.2767 48.6231 59.2276 48.1238 59.0396 47.6702C58.8517 47.2165 58.5335 46.8287 58.1252 46.5559C57.7168 46.283 57.2368 46.1374 56.7457 46.1374C56.3145 46.1414 55.8916 46.2564 55.5177 46.4713L51.5322 39.4966L55.5177 32.5219C55.8916 32.7368 56.3145 32.8518 56.7457 32.8558C57.2383 32.8568 57.7201 32.7117 58.1302 32.4387C58.5402 32.1657 58.86 31.7771 59.049 31.3222C59.238 30.8673 59.2877 30.3666 59.1919 29.8834C59.096 29.4002 58.8589 28.9563 58.5106 28.608C58.1623 28.2597 57.7184 28.0226 57.2352 27.9268C56.752 27.8309 56.2513 27.8807 55.7964 28.0697C55.3415 28.2587 54.9529 28.5784 54.6799 28.9884C54.4069 29.3985 54.2617 29.8803 54.2628 30.3729H52.4962C49.6913 35.8307 45.4368 40.41 40.1997 43.6082C34.9626 46.8063 28.9455 48.4995 22.8091 48.5018C22.2705 48.5018 21.7319 48.5018 21.1934 48.4534C21.1934 48.5126 21.1934 48.5665 21.1934 48.6203C21.2231 49.2595 21.498 49.8627 21.9609 50.3045C22.4238 50.7464 23.0391 50.9929 23.679 50.9929C24.3189 50.9929 24.9342 50.7464 25.397 50.3045C25.8599 49.8627 26.1348 49.2595 26.1646 48.6203H34.098L38.8537 56.9793C38.4926 57.2137 38.1987 57.5379 38.0007 57.9202C37.8028 58.3025 37.7076 58.7297 37.7246 59.1599C37.7416 59.5901 37.8702 60.0084 38.0977 60.3739C38.3252 60.7394 38.6438 61.0395 39.0223 61.2446C39.4007 61.4498 39.826 61.5531 40.2565 61.5442C40.6869 61.5354 41.1076 61.4148 41.4774 61.1943C41.8471 60.9738 42.1532 60.661 42.3655 60.2865C42.5778 59.912 42.6891 59.4887 42.6885 59.0582H42.6831Z" fill="#C23412"/>
<g style="mix-blend-mode:multiply" opacity="0.2">
<path d="M40.5796 90.0001C53.2334 90.0001 63.4912 88.071 63.4912 85.6914C63.4912 83.3117 53.2334 81.3826 40.5796 81.3826C27.9259 81.3826 17.668 83.3117 17.668 85.6914C17.668 88.071 27.9259 90.0001 40.5796 90.0001Z" fill="#262C3B"/>
</g>
<defs>
<linearGradient id="paint0_linear_444_2725" x1="10.1089" y1="2.06111" x2="28.0978" y2="23.7017" gradientUnits="userSpaceOnUse">
<stop stop-color="white"/>
<stop offset="1" stop-color="white" stop-opacity="0"/>
</linearGradient>
</defs>
</svg>
