<svg width="80" height="81" viewBox="0 0 80 81" fill="none" xmlns="http://www.w3.org/2000/svg">
<path d="M40 21.3477C41.9778 21.3477 43.9112 20.7612 45.5557 19.6624C47.2002 18.5635 48.4819 17.0018 49.2388 15.1745C49.9957 13.3472 50.1937 11.3366 49.8079 9.39676C49.422 7.45695 48.4696 5.67512 47.0711 4.27659C45.6725 2.87807 43.8907 1.92566 41.9509 1.53981C40.0111 1.15396 38.0004 1.35199 36.1732 2.10887C34.3459 2.86574 32.7841 4.14747 31.6853 5.79196C30.5865 7.43645 30 9.36985 30 11.3477C30.003 13.9989 31.0575 16.5407 32.9322 18.4154C34.8069 20.2902 37.3487 21.3447 40 21.3477ZM40 3.84766C41.4834 3.84766 42.9334 4.28753 44.1668 5.11164C45.4001 5.93575 46.3614 7.10709 46.9291 8.47754C47.4968 9.84798 47.6453 11.356 47.3559 12.8108C47.0665 14.2657 46.3522 15.6021 45.3033 16.651C44.2544 17.6999 42.918 18.4142 41.4632 18.7036C40.0083 18.9929 38.5003 18.8444 37.1299 18.2768C35.7594 17.7091 34.5881 16.7478 33.764 15.5144C32.9399 14.2811 32.5 12.831 32.5 11.3477C32.502 9.35915 33.2928 7.45265 34.6989 6.04655C36.105 4.64046 38.0115 3.84965 40 3.84766Z" fill="#6D0805"/>
<path d="M40.625 13.8477H39.375C39.2092 13.8477 39.0503 13.7818 38.9331 13.6646C38.8158 13.5474 38.75 13.3884 38.75 13.2227H36.25C36.2501 13.9429 36.499 14.6409 36.9546 15.1987C37.4101 15.7565 38.0444 16.1399 38.75 16.2839V17.5977H41.25V16.2839C42.0081 16.1284 42.6816 15.6971 43.1399 15.0735C43.5983 14.45 43.809 13.6785 43.7312 12.9085C43.6534 12.1386 43.2927 11.4248 42.7188 10.9055C42.145 10.3863 41.3989 10.0984 40.625 10.0977H39.375C39.2092 10.0977 39.0503 10.0318 38.9331 9.9146C38.8158 9.79739 38.75 9.63842 38.75 9.47266C38.75 9.3069 38.8158 9.14792 38.9331 9.03071C39.0503 8.9135 39.2092 8.84766 39.375 8.84766H40.625C40.7908 8.84766 40.9497 8.9135 41.0669 9.03071C41.1842 9.14792 41.25 9.3069 41.25 9.47266H43.75C43.7499 8.75246 43.501 8.05442 43.0454 7.49661C42.5899 6.93879 41.9556 6.55545 41.25 6.41141V5.09766H38.75V6.41141C37.9919 6.56693 37.3184 6.99822 36.8601 7.62178C36.4017 8.24534 36.191 9.0168 36.2688 9.78678C36.3466 10.5568 36.7073 11.2705 37.2812 11.7898C37.855 12.309 38.6011 12.5969 39.375 12.5977H40.625C40.7908 12.5977 40.9497 12.6635 41.0669 12.7807C41.1842 12.8979 41.25 13.0569 41.25 13.2227C41.25 13.3884 41.1842 13.5474 41.0669 13.6646C40.9497 13.7818 40.7908 13.8477 40.625 13.8477Z" fill="#6D0805"/>
<path d="M11.25 35.0977C13.2278 35.0977 15.1612 34.5112 16.8057 33.4124C18.4502 32.3135 19.7319 30.7518 20.4888 28.9245C21.2457 27.0972 21.4437 25.0866 21.0579 23.1468C20.672 21.2069 19.7196 19.4251 18.3211 18.0266C16.9225 16.6281 15.1407 15.6757 13.2009 15.2898C11.2611 14.904 9.25043 15.102 7.42317 15.8589C5.5959 16.6157 4.03412 17.8975 2.9353 19.542C1.83649 21.1864 1.25 23.1198 1.25 25.0977C1.25298 27.7489 2.3075 30.2907 4.18222 32.1654C6.05694 34.0402 8.59875 35.0947 11.25 35.0977ZM11.25 17.5977C12.7334 17.5977 14.1834 18.0375 15.4168 18.8616C16.6501 19.6857 17.6114 20.8571 18.1791 22.2275C18.7468 23.598 18.8953 25.106 18.6059 26.5608C18.3165 28.0157 17.6022 29.3521 16.5533 30.401C15.5044 31.4499 14.168 32.1642 12.7132 32.4536C11.2583 32.7429 9.75032 32.5944 8.37987 32.0268C7.00943 31.4591 5.83809 30.4978 5.01398 29.2644C4.18987 28.0311 3.75 26.581 3.75 25.0977C3.75199 23.1091 4.5428 21.2026 5.94889 19.7966C7.35498 18.3905 9.26149 17.5996 11.25 17.5977Z" fill="#6D0805"/>
<path d="M8.75 26.3477H6.25V28.8477H8.75V26.3477Z" fill="#6D0805"/>
<path d="M12.5 23.8477H10V28.8477H12.5V23.8477Z" fill="#6D0805"/>
<path d="M16.25 21.3477H13.75V28.8477H16.25V21.3477Z" fill="#6D0805"/>
<path d="M35.5813 30.9814L40 35.4014C40.2344 35.6358 40.5523 35.7674 40.8838 35.7674C41.2152 35.7674 41.5331 35.6358 41.7675 35.4014L47.0713 30.0977L48.8388 31.8652C49.0731 32.0996 49.391 32.2313 49.7225 32.2314C49.8353 32.2313 49.9475 32.2162 50.0562 32.1864C50.2687 32.1268 50.4615 32.012 50.6152 31.8537C50.7689 31.6954 50.8779 31.4992 50.9312 31.2852L52.6988 24.2139C52.7509 24.0049 52.7481 23.7861 52.6907 23.5785C52.6333 23.3709 52.5233 23.1816 52.3712 23.0291C52.2192 22.8766 52.0303 22.7659 51.8229 22.7078C51.6155 22.6498 51.3966 22.6463 51.1875 22.6977L44.1163 24.4652C43.9017 24.5188 43.7052 24.6284 43.5468 24.7827C43.3884 24.9371 43.2738 25.1308 43.2147 25.3439C43.1556 25.557 43.1541 25.782 43.2104 25.9959C43.2666 26.2098 43.3787 26.405 43.535 26.5614L45.3038 28.3302L40.8838 32.7502L36.465 28.3302C36.2306 28.0958 35.9127 27.9642 35.5813 27.9642C35.2498 27.9642 34.9319 28.0958 34.6975 28.3302L27.625 35.4014L29.3925 37.1689L35.5813 30.9814ZM49.7725 25.6289L49.045 28.5364L46.8638 26.3552L49.7725 25.6289Z" fill="#6D0805"/>
<path d="M68.75 15.0977C66.7722 15.0977 64.8388 15.6841 63.1943 16.783C61.5498 17.8818 60.2681 19.4436 59.5112 21.2708C58.7543 23.0981 58.5563 25.1087 58.9422 27.0486C59.328 28.9884 60.2804 30.7702 61.6789 32.1687C63.0775 33.5672 64.8593 34.5197 66.7991 34.9055C68.7389 35.2914 70.7496 35.0933 72.5768 34.3365C74.4041 33.5796 75.9659 32.2978 77.0647 30.6534C78.1635 29.0089 78.75 27.0755 78.75 25.0977C78.747 22.4464 77.6925 19.9046 75.8178 18.0299C73.9431 16.1552 71.4013 15.1006 68.75 15.0977ZM71.25 32.1602C69.6344 32.7435 67.8656 32.7435 66.25 32.1602V28.4102C66.2503 28.1824 66.3409 27.964 66.5018 27.8028C66.6628 27.6417 66.881 27.5508 67.1088 27.5502H70.39C70.618 27.5505 70.8365 27.6412 70.9978 27.8024C71.159 27.9636 71.2497 28.1822 71.25 28.4102V32.1602ZM67.8125 22.9102C67.8125 22.7247 67.8675 22.5435 67.9705 22.3893C68.0735 22.2351 68.2199 22.115 68.3912 22.044C68.5625 21.9731 68.751 21.9545 68.9329 21.9907C69.1148 22.0268 69.2818 22.1161 69.4129 22.2472C69.544 22.3784 69.6333 22.5454 69.6695 22.7273C69.7057 22.9091 69.6871 23.0976 69.6161 23.2689C69.5452 23.4402 69.425 23.5866 69.2709 23.6897C69.1167 23.7927 68.9354 23.8477 68.75 23.8477C68.5015 23.8473 68.2632 23.7484 68.0875 23.5727C67.9117 23.397 67.8128 23.1587 67.8125 22.9102ZM73.75 30.6727V28.4114C73.7475 27.6816 73.5071 26.9724 73.0651 26.3916C72.6232 25.8107 72.004 25.3898 71.3013 25.1927C71.7469 24.6991 72.0399 24.0869 72.1446 23.4303C72.2493 22.7736 72.1614 22.1006 71.8913 21.4929C71.6213 20.8853 71.1808 20.369 70.6232 20.0066C70.0657 19.6442 69.415 19.4513 68.75 19.4513C68.085 19.4513 67.4343 19.6442 66.8768 20.0066C66.3192 20.369 65.8787 20.8853 65.6087 21.4929C65.3387 22.1006 65.2507 22.7736 65.3554 23.4303C65.4601 24.0869 65.7531 24.6991 66.1988 25.1927C65.496 25.3898 64.8768 25.8107 64.4349 26.3916C63.993 26.9724 63.7525 27.6816 63.75 28.4114V30.6727C62.6179 29.66 61.8199 28.3275 61.4616 26.8514C61.1033 25.3753 61.2017 23.8253 61.7437 22.4063C62.2857 20.9874 63.2458 19.7664 64.4968 18.9051C65.7479 18.0437 67.2311 17.5825 68.75 17.5825C70.2689 17.5825 71.7521 18.0437 73.0032 18.9051C74.2543 19.7664 75.2143 20.9874 75.7563 22.4063C76.2983 23.8253 76.3967 25.3753 76.0384 26.8514C75.6802 28.3275 74.8822 29.66 73.75 30.6727Z" fill="#6D0805"/>
<path d="M27.5 48.8477V52.5977H16.25C15.9185 52.5977 15.6005 52.7294 15.3661 52.9638C15.1317 53.1982 15 53.5161 15 53.8477V58.8477C15 59.1792 15.1317 59.4971 15.3661 59.7315C15.6005 59.966 15.9185 60.0977 16.25 60.0977V76.3477C16.25 76.6792 16.3817 76.9971 16.6161 77.2315C16.8505 77.466 17.1685 77.5977 17.5 77.5977H27.5V77.6514C27.5 77.9829 27.6317 78.3009 27.8661 78.5353C28.1005 78.7697 28.4185 78.9014 28.75 78.9014H51.25C51.5815 78.9014 51.8995 78.7697 52.1339 78.5353C52.3683 78.3009 52.5 77.9829 52.5 77.6514V77.5977H62.5C62.8315 77.5977 63.1495 77.466 63.3839 77.2315C63.6183 76.9971 63.75 76.6792 63.75 76.3477V60.0977C64.0815 60.0977 64.3995 59.966 64.6339 59.7315C64.8683 59.4971 65 59.1792 65 58.8477V53.8477C65 53.5161 64.8683 53.1982 64.6339 52.9638C64.3995 52.7294 64.0815 52.5977 63.75 52.5977H52.5V48.8477C52.8315 48.8477 53.1495 48.716 53.3839 48.4815C53.6183 48.2471 53.75 47.9292 53.75 47.5977V42.5977C53.75 42.2661 53.6183 41.9482 53.3839 41.7138C53.1495 41.4794 52.8315 41.3477 52.5 41.3477H27.5C27.1685 41.3477 26.8505 41.4794 26.6161 41.7138C26.3817 41.9482 26.25 42.2661 26.25 42.5977V47.5977C26.25 47.9292 26.3817 48.2471 26.6161 48.4815C26.8505 48.716 27.1685 48.8477 27.5 48.8477ZM27.5 75.0977H18.75V60.0977H27.5V75.0977ZM27.5 57.5977H17.5V55.0977H27.5V57.5977ZM52.5 55.0977H62.5V57.5977H52.5V55.0977ZM52.5 60.0977H61.25V75.0977H52.5V60.0977ZM42.5 76.3477H37.5V71.3477H42.5V76.3477ZM50 76.3477V76.4014H45V70.0977C45 69.7661 44.8683 69.4482 44.6339 69.2138C44.3995 68.9794 44.0815 68.8477 43.75 68.8477H36.25C35.9185 68.8477 35.6005 68.9794 35.3661 69.2138C35.1317 69.4482 35 69.7661 35 70.0977V76.4014H30V48.8477H50V76.3477ZM28.75 43.8477H51.25V46.3477H28.75V43.8477Z" fill="#6D0805"/>
<path d="M33.75 57.5977H37.5C37.8315 57.5977 38.1495 57.466 38.3839 57.2315C38.6183 56.9971 38.75 56.6792 38.75 56.3477V52.5977C38.75 52.2661 38.6183 51.9482 38.3839 51.7138C38.1495 51.4794 37.8315 51.3477 37.5 51.3477H33.75C33.4185 51.3477 33.1005 51.4794 32.8661 51.7138C32.6317 51.9482 32.5 52.2661 32.5 52.5977V56.3477C32.5 56.6792 32.6317 56.9971 32.8661 57.2315C33.1005 57.466 33.4185 57.5977 33.75 57.5977ZM35 53.8477H36.25V55.0977H35V53.8477Z" fill="#6D0805"/>
<path d="M42.5 57.5977H46.25C46.5815 57.5977 46.8995 57.466 47.1339 57.2315C47.3683 56.9971 47.5 56.6792 47.5 56.3477V52.5977C47.5 52.2661 47.3683 51.9482 47.1339 51.7138C46.8995 51.4794 46.5815 51.3477 46.25 51.3477H42.5C42.1685 51.3477 41.8505 51.4794 41.6161 51.7138C41.3817 51.9482 41.25 52.2661 41.25 52.5977V56.3477C41.25 56.6792 41.3817 56.9971 41.6161 57.2315C41.8505 57.466 42.1685 57.5977 42.5 57.5977ZM43.75 53.8477H45V55.0977H43.75V53.8477Z" fill="#6D0805"/>
<path d="M33.75 66.3477H37.5C37.8315 66.3477 38.1495 66.216 38.3839 65.9815C38.6183 65.7471 38.75 65.4292 38.75 65.0977V61.3477C38.75 61.0161 38.6183 60.6982 38.3839 60.4638C38.1495 60.2294 37.8315 60.0977 37.5 60.0977H33.75C33.4185 60.0977 33.1005 60.2294 32.8661 60.4638C32.6317 60.6982 32.5 61.0161 32.5 61.3477V65.0977C32.5 65.4292 32.6317 65.7471 32.8661 65.9815C33.1005 66.216 33.4185 66.3477 33.75 66.3477ZM35 62.5977H36.25V63.8477H35V62.5977Z" fill="#6D0805"/>
<path d="M42.5 66.3477H46.25C46.5815 66.3477 46.8995 66.216 47.1339 65.9815C47.3683 65.7471 47.5 65.4292 47.5 65.0977V61.3477C47.5 61.0161 47.3683 60.6982 47.1339 60.4638C46.8995 60.2294 46.5815 60.0977 46.25 60.0977H42.5C42.1685 60.0977 41.8505 60.2294 41.6161 60.4638C41.3817 60.6982 41.25 61.0161 41.25 61.3477V65.0977C41.25 65.4292 41.3817 65.7471 41.6161 65.9815C41.8505 66.216 42.1685 66.3477 42.5 66.3477ZM43.75 62.5977H45V63.8477H43.75V62.5977Z" fill="#6D0805"/>
</svg>
