<svg width="80" height="81" viewBox="0 0 80 81" fill="none" xmlns="http://www.w3.org/2000/svg">
<path d="M22.4 71.5649V54.4977" stroke="#6D0805" stroke-width="3.2" stroke-miterlimit="10" stroke-linecap="round" stroke-linejoin="round"/>
<path d="M22.4 17.6976C25.9346 17.6976 28.8 14.8323 28.8 11.2976C28.8 7.76302 25.9346 4.89764 22.4 4.89764C18.8654 4.89764 16 7.76302 16 11.2976C16 14.8323 18.8654 17.6976 22.4 17.6976Z" stroke="#6D0805" stroke-width="3.2" stroke-miterlimit="10" stroke-linecap="round" stroke-linejoin="round"/>
<path d="M22.4 71.2977C22.4 73.5073 24.1904 75.2977 26.4 75.2977C28.6096 75.2977 30.4 73.5073 30.4 71.2977V28.8977H49.6C51.368 28.8977 52.8 27.4657 52.8 25.6977C52.8 23.9297 51.368 22.4977 49.6 22.4977H15.2C11.224 22.4977 8 25.7217 8 29.6977V49.6977C8 51.4657 9.432 52.8977 11.2 52.8977C12.968 52.8977 14.4 51.4657 14.4 49.6977" stroke="#6D0805" stroke-width="3.2" stroke-miterlimit="10" stroke-linecap="round" stroke-linejoin="round"/>
<path d="M22.4 71.2976C22.4 73.5072 20.6096 75.2976 18.4 75.2976C16.1904 75.2976 14.4 73.5072 14.4 71.2976V33.6976" stroke="#6D0805" stroke-width="3.2" stroke-miterlimit="10" stroke-linecap="round" stroke-linejoin="round"/>
<path d="M72 40.0977H38.4" stroke="#6D0805" stroke-width="3.2" stroke-miterlimit="10" stroke-linecap="round" stroke-linejoin="round"/>
<path d="M72 51.2977H38.4" stroke="#6D0805" stroke-width="3.2" stroke-miterlimit="10" stroke-linecap="round" stroke-linejoin="round"/>
<path d="M72 28.8976H59.2" stroke="#6D0805" stroke-width="3.2" stroke-miterlimit="10" stroke-linecap="round" stroke-linejoin="round"/>
<path d="M72 62.4977H38.4" stroke="#6D0805" stroke-width="3.2" stroke-miterlimit="10" stroke-linecap="round" stroke-linejoin="round"/>
<path d="M72 73.6976H38.4" stroke="#6D0805" stroke-width="3.2" stroke-miterlimit="10" stroke-linecap="round" stroke-linejoin="round"/>
</svg>
