<svg width="80" height="81" viewBox="0 0 80 81" fill="none" xmlns="http://www.w3.org/2000/svg">
<path d="M37.4634 1.34825C37.1383 1.35778 36.8298 1.49359 36.6033 1.72685C36.3767 1.96012 36.25 2.27248 36.25 2.59764V3.84764C36.25 4.17916 36.3817 4.49711 36.6161 4.73153C36.8505 4.96595 37.1685 5.09764 37.5 5.09764C37.8315 5.09764 38.1494 4.96595 38.3839 4.73153C38.6183 4.49711 38.75 4.17916 38.75 3.84764V2.59764C38.75 2.43041 38.7164 2.26489 38.6513 2.11087C38.5861 1.95684 38.4908 1.81745 38.3708 1.70095C38.2508 1.58445 38.1087 1.49321 37.9528 1.43263C37.797 1.37205 37.6305 1.34335 37.4634 1.34825ZM37.4634 6.34825C37.1383 6.35778 36.8298 6.49359 36.6033 6.72685C36.3767 6.96012 36.25 7.27248 36.25 7.59764V15.0976H29.8437C29.641 15.0978 29.4413 15.1472 29.2619 15.2417C29.0826 15.3361 28.9288 15.4728 28.8141 15.6399L27.2937 17.8506C26.826 15.2995 25.576 12.9571 23.7171 11.1485C21.8581 9.33978 19.4823 8.15445 16.9193 7.7569C14.3563 7.35935 11.7331 7.76928 9.41363 8.92982C7.09411 10.0904 5.19326 11.944 3.97474 14.2336C2.75622 16.5232 2.28044 19.1352 2.6134 21.7074C2.94636 24.2796 4.07155 26.6844 5.8329 28.5883C7.59424 30.4921 9.90443 31.8007 12.443 32.3324C14.9816 32.864 17.6227 32.5925 20 31.5555V77.5976C20 77.9292 20.1317 78.2471 20.3661 78.4815C20.6005 78.716 20.9185 78.8476 21.25 78.8476H53.75C54.0815 78.8476 54.3994 78.716 54.6339 78.4815C54.8683 78.2471 55 77.9292 55 77.5976V71.3476H74.375C75.2035 71.3468 75.9979 71.0173 76.5838 70.4314C77.1696 69.8456 77.4991 69.0512 77.5 68.2226V46.9726C77.4991 46.1441 77.1696 45.3497 76.5838 44.7639C75.9979 44.178 75.2035 43.8485 74.375 43.8476H55V28.8476C55.0002 28.5948 54.9233 28.348 54.7796 28.1399L46.1859 15.6399C46.0711 15.4728 45.9174 15.3361 45.738 15.2417C45.5586 15.1472 45.359 15.0978 45.1562 15.0976H38.75V7.59764C38.75 7.43041 38.7164 7.26489 38.6513 7.11086C38.5861 6.95684 38.4908 6.81745 38.3708 6.70095C38.2508 6.58445 38.1087 6.49321 37.9528 6.43263C37.797 6.37205 37.6305 6.34335 37.4634 6.34825ZM15.3283 10.0931C16.7145 10.1396 18.0758 10.4737 19.326 11.0742C20.5761 11.6747 21.6878 12.5286 22.5904 13.5816C23.4931 14.6345 24.167 15.8636 24.5694 17.1909C24.9718 18.5181 25.0939 19.9145 24.928 21.2915L20.2203 28.1399C20.0961 28.3221 20.0228 28.534 20.0079 28.754C18.6669 29.5305 17.1639 29.9851 15.6172 30.0817C14.0706 30.1784 12.5227 29.9145 11.0954 29.3109C9.66813 28.7073 8.40056 27.7805 7.39256 26.6035C6.38456 25.4265 5.66369 24.0315 5.28676 22.5284C4.90983 21.0253 4.88714 19.4552 5.22047 17.9418C5.55381 16.4284 6.23407 15.0132 7.20763 13.8075C8.18119 12.6019 9.42146 11.6388 10.8307 10.9942C12.2399 10.3496 13.7796 10.0412 15.3283 10.0931ZM14.9634 12.5983C14.6383 12.6078 14.3298 12.7436 14.1033 12.9769C13.8767 13.2101 13.75 13.5225 13.75 13.8476H11.25C10.9185 13.8476 10.6005 13.9793 10.3661 14.2138C10.1317 14.4482 9.99997 14.7661 9.99997 15.0976V20.0976C9.99997 20.4292 10.1317 20.7471 10.3661 20.9815C10.6005 21.2159 10.9185 21.3476 11.25 21.3476H13.75V23.8476H11.25C10.9185 23.8476 10.6005 23.9793 10.3661 24.2138C10.1317 24.4482 9.99997 24.7661 9.99997 25.0976C9.99997 25.4292 10.1317 25.7471 10.3661 25.9815C10.6005 26.2159 10.9185 26.3476 11.25 26.3476H13.75C13.75 26.6792 13.8817 26.9971 14.1161 27.2315C14.3505 27.4659 14.6685 27.5976 15 27.5976C15.3315 27.5976 15.6494 27.4659 15.8839 27.2315C16.1183 26.9971 16.25 26.6792 16.25 26.3476H18.75C19.0815 26.3476 19.3994 26.2159 19.6339 25.9815C19.8683 25.7471 20 25.4292 20 25.0976V20.0976C20 19.7661 19.8683 19.4482 19.6339 19.2138C19.3994 18.9793 19.0815 18.8476 18.75 18.8476H16.25V16.3476H18.75C19.0815 16.3476 19.3994 16.2159 19.6339 15.9815C19.8683 15.7471 20 15.4292 20 15.0976C20 14.7661 19.8683 14.4482 19.6339 14.2138C19.3994 13.9793 19.0815 13.8476 18.75 13.8476H16.25C16.25 13.6804 16.2164 13.5149 16.1513 13.3609C16.0861 13.2068 15.9908 13.0675 15.8708 12.951C15.7508 12.8345 15.6087 12.7432 15.4528 12.6826C15.297 12.622 15.1305 12.5934 14.9634 12.5983ZM12.5 16.3476H13.75V18.8476H12.5V16.3476ZM30.5017 17.5976H36.25V20.2554C35.0717 20.5597 34.0447 21.2832 33.3617 22.2904C32.6787 23.2977 32.3865 24.5194 32.5398 25.7267C32.6932 26.9339 33.2816 28.0438 34.1947 28.8483C35.1078 29.6528 36.283 30.0966 37.5 30.0966C38.7169 30.0966 39.8921 29.6528 40.8053 28.8483C41.7184 28.0438 42.3068 26.9339 42.4601 25.7267C42.6135 24.5194 42.3212 23.2977 41.6382 22.2904C40.9552 21.2832 39.9283 20.5597 38.75 20.2554V17.5976H44.4983L52.5 29.2352V76.3476H22.5V29.2352L30.5017 17.5976ZM16.25 21.3476H17.5V23.8476H16.25V21.3476ZM36.25 22.9367V27.2586C35.87 27.0401 35.5544 26.7253 35.3349 26.3459C35.1155 25.9665 34.9999 25.5359 34.9999 25.0976C34.9999 24.6593 35.1155 24.2288 35.3349 23.8494C35.5544 23.47 35.87 23.1552 36.25 22.9367ZM38.75 22.9367C39.1299 23.1552 39.4455 23.47 39.665 23.8494C39.8845 24.2288 40 24.6593 40 25.0976C40 25.5359 39.8845 25.9665 39.665 26.3459C39.4455 26.7253 39.1299 27.0401 38.75 27.2586V22.9367ZM47.4453 35.0989C47.133 35.1126 46.8372 35.2428 46.6162 35.4639L26.6162 55.4639C26.4414 55.6387 26.3224 55.8614 26.2742 56.1038C26.226 56.3463 26.2507 56.5976 26.3453 56.826C26.4399 57.0544 26.6001 57.2496 26.8056 57.3869C27.0111 57.5243 27.2528 57.5976 27.5 57.5976C27.6642 57.5978 27.8267 57.5656 27.9784 57.5027C28.1301 57.4399 28.2678 57.3477 28.3838 57.2314L48.3838 37.2314C48.5618 37.0533 48.6819 36.8256 48.7283 36.578C48.7747 36.3305 48.7453 36.0748 48.6438 35.8442C48.5424 35.6137 48.3737 35.4192 48.1598 35.2862C47.946 35.1532 47.6969 35.0879 47.4453 35.0989ZM30.1559 35.101C29.6508 35.08 29.1466 35.1613 28.6737 35.3401C28.2008 35.5189 27.7689 35.7915 27.4041 36.1415C27.0392 36.4915 26.7489 36.9116 26.5506 37.3767C26.3522 37.8417 26.25 38.3421 26.25 38.8476C26.2511 39.8419 26.6466 40.795 27.3496 41.498C28.0526 42.201 29.0058 42.5965 30 42.5976C30.9806 42.597 31.9219 42.2122 32.6222 41.5258C33.3225 40.8394 33.7261 39.906 33.7465 38.9256C33.7669 37.9453 33.4025 36.9959 32.7313 36.281C32.0601 35.5661 31.1356 35.1425 30.1559 35.101ZM30 37.5976C30.2472 37.5976 30.4889 37.671 30.6944 37.8083C30.9 37.9457 31.0602 38.1409 31.1548 38.3693C31.2494 38.5977 31.2742 38.849 31.226 39.0915C31.1777 39.334 31.0587 39.5567 30.8839 39.7315C30.709 39.9063 30.4863 40.0254 30.2438 40.0736C30.0014 40.1219 29.75 40.0971 29.5216 40.0025C29.2932 39.9079 29.098 39.7477 28.9606 39.5421C28.8233 39.3365 28.75 39.0949 28.75 38.8476C28.7503 38.5162 28.8822 38.1985 29.1165 37.9642C29.3508 37.7298 29.6686 37.598 30 37.5976ZM55 46.3476H74.375C74.5407 46.3476 74.6997 46.4135 74.8169 46.5307C74.9341 46.6479 75 46.8069 75 46.9726V47.5976H55V46.3476ZM45 50.0976C44.2583 50.0976 43.5333 50.3176 42.9166 50.7296C42.2999 51.1417 41.8193 51.7274 41.5354 52.4126C41.2516 53.0978 41.1773 53.8518 41.322 54.5792C41.4667 55.3067 41.8239 55.9748 42.3483 56.4993C42.8728 57.0237 43.541 57.3809 44.2684 57.5256C44.9958 57.6703 45.7498 57.596 46.435 57.3122C47.1203 57.0284 47.7059 56.5477 48.118 55.931C48.53 55.3144 48.75 54.5893 48.75 53.8476C48.7488 52.8534 48.3534 51.9003 47.6503 51.1973C46.9473 50.4943 45.9942 50.0988 45 50.0976ZM55 50.0976H75V53.8476H55V50.0976ZM44.9481 52.5989C45.1165 52.5919 45.2845 52.619 45.4421 52.6786C45.5997 52.7382 45.7437 52.8291 45.8653 52.9457C45.9869 53.0623 46.0836 53.2024 46.1497 53.3574C46.2159 53.5124 46.25 53.6791 46.25 53.8476C46.2496 54.1791 46.1178 54.4968 45.8834 54.7311C45.6491 54.9655 45.3314 55.0973 45 55.0976C44.6735 55.0968 44.3603 54.9683 44.1274 54.7395C43.8945 54.5108 43.7603 54.2 43.7535 53.8736C43.7467 53.5472 43.8679 53.2311 44.0911 52.9929C44.3144 52.7547 44.6219 52.6133 44.9481 52.5989ZM55 56.3476H75V68.2226C75 68.3884 74.9341 68.5474 74.8169 68.6646C74.6997 68.7818 74.5407 68.8476 74.375 68.8476H55V67.5976H57.5C57.8315 67.5976 58.1494 67.466 58.3839 67.2315C58.6183 66.9971 58.75 66.6792 58.75 66.3476C58.75 66.0161 58.6183 65.6982 58.3839 65.4638C58.1494 65.2293 57.8315 65.0976 57.5 65.0976H55V63.8476H57.5C57.8315 63.8476 58.1494 63.716 58.3839 63.4815C58.6183 63.2471 58.75 62.9292 58.75 62.5976C58.75 62.2661 58.6183 61.9482 58.3839 61.7138C58.1494 61.4793 57.8315 61.3476 57.5 61.3476H55V56.3476ZM25 60.0976C24.6685 60.0976 24.3505 60.2293 24.1161 60.4638C23.8817 60.6982 23.75 61.0161 23.75 61.3476V65.0976C23.75 65.4292 23.8817 65.7471 24.1161 65.9815C24.3505 66.216 24.6685 66.3476 25 66.3476H50C50.3315 66.3476 50.6494 66.216 50.8839 65.9815C51.1183 65.7471 51.25 65.4292 51.25 65.0976V61.3476C51.25 61.0161 51.1183 60.6982 50.8839 60.4638C50.6494 60.2293 50.3315 60.0976 50 60.0976H25ZM61.25 61.3476C60.9185 61.3476 60.6005 61.4793 60.3661 61.7138C60.1317 61.9482 60 62.2661 60 62.5976V66.3476C60 66.6792 60.1317 66.9971 60.3661 67.2315C60.6005 67.466 60.9185 67.5976 61.25 67.5976H72.5C72.8315 67.5976 73.1494 67.466 73.3839 67.2315C73.6183 66.9971 73.75 66.6792 73.75 66.3476V62.5976C73.75 62.2661 73.6183 61.9482 73.3839 61.7138C73.1494 61.4793 72.8315 61.3476 72.5 61.3476H61.25ZM26.25 62.5976H48.75V63.8476H26.25V62.5976ZM62.5 63.8476H71.25V65.0976H62.5V63.8476ZM25 67.5976C24.6685 67.5976 24.3505 67.7293 24.1161 67.9638C23.8817 68.1982 23.75 68.5161 23.75 68.8476C23.75 69.1792 23.8817 69.4971 24.1161 69.7315C24.3505 69.966 24.6685 70.0976 25 70.0976H50C50.3315 70.0976 50.6494 69.966 50.8839 69.7315C51.1183 69.4971 51.25 69.1792 51.25 68.8476C51.25 68.5161 51.1183 68.1982 50.8839 67.9638C50.6494 67.7293 50.3315 67.5976 50 67.5976H25ZM30 71.3476C29.6685 71.3476 29.3505 71.4793 29.1161 71.7138C28.8817 71.9482 28.75 72.2661 28.75 72.5976C28.75 72.9292 28.8817 73.2471 29.1161 73.4815C29.3505 73.716 29.6685 73.8476 30 73.8476H45C45.3315 73.8476 45.6494 73.716 45.8839 73.4815C46.1183 73.2471 46.25 72.9292 46.25 72.5976C46.25 72.2661 46.1183 71.9482 45.8839 71.7138C45.6494 71.4793 45.3315 71.3476 45 71.3476H30Z" fill="#6D0805"/>
</svg>
