<svg width="80" height="81" viewBox="0 0 80 81" fill="none" xmlns="http://www.w3.org/2000/svg">
<g clip-path="url(#clip0_1101_43005)">
<path d="M72 46.8443V46.7776C71.9963 44.362 71.2642 42.0036 69.8994 40.0105C68.5345 38.0175 66.6003 36.4823 64.3494 35.6056L67.3667 34.4056C67.8687 34.2042 68.3064 33.8699 68.6329 33.4387C68.9594 33.0074 69.1624 32.4954 69.22 31.9576C69.3008 31.1156 69.3387 30.2701 69.3334 29.4243C69.3388 28.5838 69.3014 27.7436 69.2214 26.9069C69.1658 26.3652 68.9631 25.8491 68.6353 25.4143C68.3074 24.9795 67.8669 24.6427 67.3614 24.4403L63.4774 22.8909C62.9498 20.9944 62.1926 19.1693 61.2227 17.4563L62.8654 13.6083C63.0878 13.1109 63.166 12.5611 63.0911 12.0215C63.0161 11.4818 62.791 10.9741 62.4414 10.5563C61.9707 9.98693 61.4334 9.3976 60.732 8.67893C60.0334 7.99626 59.444 7.46027 58.8947 7.00827C58.4767 6.65384 57.9673 6.42444 57.4249 6.34638C56.8824 6.26832 56.329 6.34476 55.828 6.56693L51.972 8.20427C50.2574 7.23496 48.4311 6.47827 46.5334 5.95093L44.9814 2.06427C44.7803 1.56201 44.4462 1.12407 44.0148 0.797517C43.5835 0.470967 43.0713 0.26817 42.5334 0.210932C40.8527 0.0607116 39.162 0.0607116 37.4814 0.210932C36.9391 0.267194 36.4227 0.470925 35.988 0.800005C35.5534 1.12909 35.2173 1.57094 35.016 2.0776L33.4667 5.95093C31.5695 6.47837 29.7436 7.23506 28.0294 8.20427L24.1814 6.56427C23.6839 6.34077 23.1335 6.26189 22.5933 6.33664C22.0531 6.41139 21.5448 6.63675 21.1267 6.98693C20.556 7.45626 19.9667 7.99227 19.248 8.69493C18.5667 9.3936 18.0294 9.98293 17.5774 10.5309C17.2227 10.9487 16.9929 11.458 16.9143 12.0004C16.8358 12.5428 16.9117 13.0964 17.1334 13.5976L18.7774 17.4469C17.8074 19.16 17.0503 20.985 16.5227 22.8816L12.6334 24.4389C12.1311 24.64 11.6932 24.9741 11.3666 25.4055C11.0401 25.8368 10.8373 26.349 10.78 26.8869C10.6992 27.7289 10.6614 28.5744 10.6667 29.4203C10.6613 30.2607 10.6987 31.1009 10.7787 31.9376C10.8344 32.4791 11.0371 32.9951 11.365 33.4296C11.6928 33.8642 12.1333 34.2007 12.6387 34.4029L15.6507 35.6029C13.3994 36.4798 11.4649 38.0154 10.1 40.009C8.73507 42.0026 8.00322 44.3615 8.00004 46.7776V46.8443C7.24713 46.998 6.57044 47.4071 6.0845 48.0023C5.59856 48.5976 5.33322 49.3425 5.33337 50.1109V52.1109C5.33337 53.1718 5.7548 54.1892 6.50495 54.9394C7.25509 55.6895 8.27251 56.1109 9.33337 56.1109C9.40283 56.1093 9.47091 56.1305 9.52723 56.1712C9.58356 56.2119 9.62504 56.2698 9.64537 56.3363C10.3652 59.3837 12.145 62.076 14.6667 63.9323V65.5323C12.092 65.8566 9.72393 67.1085 8.00588 69.0533C6.28782 70.9981 5.33767 73.5026 5.33337 76.0976V77.4309C5.33337 78.1382 5.61433 78.8165 6.11442 79.3166C6.61452 79.8167 7.2928 80.0976 8.00004 80.0976H72C72.7073 80.0976 73.3856 79.8167 73.8857 79.3166C74.3858 78.8165 74.6667 78.1382 74.6667 77.4309V76.0976C74.6621 73.5028 73.7118 70.9987 71.9938 69.0541C70.2757 67.1096 67.9078 65.8579 65.3334 65.5336V63.9109C66.2021 63.3475 66.9776 62.652 67.632 61.8496C68.9108 60.2245 69.8371 58.351 70.352 56.3483C70.3711 56.2796 70.4123 56.2192 70.4691 56.1763C70.526 56.1333 70.5955 56.1104 70.6667 56.1109C71.726 56.1057 72.7403 55.6826 73.4893 54.9336C74.2383 54.1845 74.6615 53.1702 74.6667 52.1109V50.1109C74.6669 49.3425 74.4015 48.5976 73.9156 48.0023C73.4296 47.4071 72.753 46.998 72 46.8443ZM18.9334 34.6629C18.8847 34.4546 18.7866 34.261 18.6474 34.0986C18.5081 33.9361 18.3318 33.8096 18.1334 33.7296L13.6307 31.9323C13.5787 31.9127 13.5327 31.8797 13.4976 31.8366C13.4625 31.7935 13.4394 31.7418 13.4307 31.6869C13.3583 30.9336 13.3249 30.177 13.3307 29.4203C13.3251 28.6586 13.359 27.8971 13.432 27.1389C13.4428 27.0882 13.466 27.041 13.4995 27.0014C13.533 26.9618 13.5758 26.9312 13.624 26.9123L18.1334 25.1149C18.3301 25.0364 18.5053 24.9121 18.6444 24.7523C18.7835 24.5925 18.8826 24.4019 18.9334 24.1963C19.4551 22.095 20.2897 20.084 21.4094 18.2309C21.5186 18.0498 21.5832 17.8454 21.5978 17.6344C21.6124 17.4234 21.5766 17.212 21.4934 17.0176L19.584 12.5549C19.5605 12.5061 19.551 12.4516 19.5567 12.3977C19.5623 12.3438 19.5829 12.2925 19.616 12.2496C20.0374 11.7389 20.5267 11.2016 21.1334 10.5803C21.7747 9.9536 22.312 9.46427 22.8427 9.02693C22.8855 8.99993 22.9346 8.98462 22.9851 8.98251C23.0356 8.98041 23.0858 8.99159 23.1307 9.01493L27.6 10.9203C27.7939 11.0039 28.005 11.0399 28.2156 11.0253C28.4262 11.0107 28.6303 10.9459 28.8107 10.8363C30.6637 9.71927 32.6736 8.88604 34.7734 8.36427C34.979 8.31349 35.1697 8.21443 35.3294 8.07531C35.4892 7.93619 35.6135 7.761 35.692 7.56427L37.4894 3.06427C37.5091 3.0123 37.5421 2.96645 37.5852 2.93133C37.6283 2.89622 37.6798 2.87309 37.7347 2.86427C39.2473 2.73005 40.7688 2.73005 42.2814 2.86427C42.3323 2.87492 42.3798 2.89821 42.4194 2.93199C42.459 2.96577 42.4895 3.00896 42.508 3.0576L44.308 7.56427C44.3866 7.761 44.5109 7.93619 44.6707 8.07531C44.8304 8.21443 45.021 8.31349 45.2267 8.36427C47.3302 8.88503 49.3437 9.7183 51.2 10.8363C51.3805 10.9459 51.5845 11.0107 51.7952 11.0253C52.0058 11.0399 52.2169 11.0039 52.4107 10.9203L56.88 9.01493C56.9284 8.99024 56.9829 8.97988 57.037 8.98508C57.0911 8.99028 57.1426 9.01081 57.1854 9.04427C57.6947 9.46427 58.232 9.9536 58.8534 10.5603C59.48 11.2016 59.9694 11.7389 60.4094 12.2709C60.436 12.3133 60.4511 12.362 60.4532 12.412C60.4553 12.462 60.4444 12.5118 60.4214 12.5563L58.5067 17.0203C58.4235 17.2147 58.3877 17.4261 58.4023 17.6371C58.4169 17.848 58.4815 18.0525 58.5907 18.2336C59.7101 20.0859 60.5448 22.0959 61.0667 24.1963C61.1175 24.4019 61.2165 24.5925 61.3557 24.7523C61.4948 24.9121 61.67 25.0364 61.8667 25.1149L66.368 26.9096C66.4199 26.9295 66.4656 26.9626 66.5007 27.0057C66.5357 27.0487 66.559 27.1002 66.568 27.1549C66.6404 27.9083 66.6738 28.6648 66.668 29.4216C66.6736 30.1828 66.6398 30.9439 66.5667 31.7016C66.5563 31.7526 66.5331 31.8002 66.4993 31.8399C66.4655 31.8795 66.4221 31.9099 66.3734 31.9283L61.8667 33.7269C61.6683 33.8069 61.492 33.9335 61.3527 34.0959C61.2135 34.2584 61.1154 34.4519 61.0667 34.6603C61.0534 34.7149 61.036 34.7709 61.0227 34.8256C60.6867 34.7976 60.356 34.7749 60.0054 34.7749C59.2642 34.7818 58.5254 34.8586 57.7987 35.0043C58.6858 32.2069 58.9009 29.2398 58.4265 26.3437C57.9521 23.4477 56.8015 20.7043 55.0682 18.3362C53.3349 15.9681 51.0676 14.0421 48.4505 12.7144C45.8333 11.3867 42.94 10.6948 40.0054 10.6948C37.0707 10.6948 34.1774 11.3867 31.5603 12.7144C28.9431 14.0421 26.6759 15.9681 24.9425 18.3362C23.2092 20.7043 22.0587 23.4477 21.5842 26.3437C21.1098 29.2398 21.3249 32.2069 22.212 35.0043C21.4835 34.8592 20.7429 34.7833 20 34.7776C19.6574 34.7776 19.32 34.8003 18.9854 34.8283C18.9707 34.7723 18.952 34.7189 18.9334 34.6629ZM54.6667 65.5376C52.9925 65.7415 51.3919 66.3452 50 67.2976C48.6067 66.3478 47.0069 65.744 45.3334 65.5363V63.9363C47.5501 62.3547 49.1889 60.0917 50 57.4923C50.8134 60.0896 52.4518 62.3506 54.6667 63.9323V65.5376ZM52 77.4309H28V76.0976C28.0045 74.1729 28.7028 72.3143 29.9667 70.8628C31.2307 69.4113 32.9756 68.4641 34.8814 68.1949C35.1865 69.3185 35.8529 70.3104 36.7777 71.0176C37.7026 71.7248 38.8345 72.1079 39.9987 72.1079C41.163 72.1079 42.2948 71.7248 43.2197 71.0176C44.1445 70.3104 44.8109 69.3185 45.116 68.1949C47.0223 68.4635 48.7678 69.4104 50.0323 70.862C51.2968 72.3136 51.9954 74.1725 52 76.0976V77.4309ZM25.3334 63.9109C26.2021 63.3475 26.9776 62.652 27.632 61.8496C28.6691 60.5378 29.4675 59.0539 29.9907 57.4656C30.8011 60.0745 32.4434 62.3462 34.6667 63.9336V65.5336C32.9931 65.7423 31.3933 66.347 30 67.2976C28.6079 66.3453 27.0075 65.7413 25.3334 65.5363V63.9109ZM37.3334 66.7709V65.1043C39.0824 65.5567 40.9177 65.5567 42.6667 65.1043V66.7776C42.6667 67.4848 42.3858 68.1631 41.8857 68.6632C41.3856 69.1633 40.7073 69.4443 40 69.4443C39.2928 69.4443 38.6145 69.1633 38.1144 68.6632C37.6143 68.1631 37.3334 67.4848 37.3334 66.7776V66.7669V66.7709ZM52 52.1043C52 52.4579 51.8596 52.797 51.6095 53.0471C51.3595 53.2971 51.0203 53.4376 50.6667 53.4376C50.0132 53.4446 49.3795 53.6629 48.8604 54.06C48.3413 54.457 47.9646 55.0114 47.7867 55.6403C47.0734 58.3069 45.12 62.7709 40.004 62.7709C34.888 62.7709 32.9374 58.3029 32.224 55.6389C32.0436 55.0101 31.6646 54.4566 31.1436 54.061C30.6225 53.6655 29.9875 53.4491 29.3334 53.4443C28.9798 53.4443 28.6406 53.3038 28.3906 53.0537C28.1405 52.8037 28 52.4646 28 52.1109V50.1109C28.0001 50.0046 28.0256 49.8999 28.0744 49.8055C28.1232 49.711 28.1938 49.6296 28.2805 49.568C28.3671 49.5064 28.4672 49.4664 28.5724 49.4514C28.6777 49.4364 28.785 49.4467 28.8854 49.4816C29.0866 49.5532 29.3021 49.5755 29.5137 49.5465C29.7253 49.5175 29.9269 49.4381 30.1014 49.3149C30.3543 49.1282 30.5382 48.8628 30.624 48.5603C30.6694 48.3963 31.8174 44.5176 38.8814 44.1603C39.3667 45.9283 41.228 49.7123 48.224 49.7123C49.0907 49.7094 49.9566 49.6573 50.8174 49.5563C50.9184 49.543 51.0179 49.5202 51.1147 49.4883C51.2146 49.4577 51.3201 49.4503 51.4232 49.4667C51.5263 49.4831 51.6243 49.5229 51.7097 49.583C51.7952 49.643 51.8657 49.7218 51.916 49.8133C51.9663 49.9048 51.9951 50.0066 52 50.1109V52.1043ZM37.3334 33.4376C37.3334 32.8936 38.372 32.1043 40 32.1043C41.628 32.1043 42.6667 32.8936 42.6667 33.4376C42.6667 33.9816 41.628 34.7709 40 34.7709C38.372 34.7709 37.3334 33.9883 37.3334 33.4443V33.4376ZM40 37.4376C42.4745 37.4404 44.8469 38.4247 46.5966 40.1744C48.3463 41.9241 49.3306 44.2964 49.3334 46.7709V46.9989C43.4667 47.3629 41.8734 44.9656 41.452 43.4389C41.2929 42.8477 40.9351 42.3292 40.4389 41.9706C39.9426 41.612 39.338 41.4351 38.7267 41.4696C36.0337 41.5018 33.4071 42.3096 31.1614 43.7963C31.7863 41.9468 32.9749 40.3395 34.5602 39.2002C36.1455 38.0609 38.0478 37.4469 40 37.4443V37.4376ZM44.468 35.6416C45.0144 35.039 45.3221 34.2576 45.3334 33.4443C45.3334 31.2003 42.9907 29.4443 40 29.4443C37.0094 29.4443 34.6667 31.2003 34.6667 33.4443C34.6763 34.26 34.9841 35.0439 35.532 35.6483C33.2644 36.564 31.3287 38.1473 29.9814 40.1883C28.8516 38.4738 27.3026 37.0763 25.4814 36.1283C24.5066 34.0348 24.001 31.7536 24 29.4443C24 25.2008 25.6858 21.1311 28.6863 18.1306C31.6869 15.13 35.7566 13.4443 40 13.4443C44.2435 13.4443 48.3132 15.13 51.3138 18.1306C54.3143 21.1311 56 25.2008 56 29.4443C55.9991 31.7536 55.4935 34.0348 54.5187 36.1283C52.6975 37.0763 51.1485 38.4738 50.0187 40.1883C48.6714 38.1473 46.7357 36.564 44.468 35.6483V35.6416ZM12.2174 55.6323C12.0405 55.0033 11.6631 54.4492 11.1426 54.0542C10.622 53.6593 9.98678 53.4451 9.33337 53.4443C8.97975 53.4443 8.64061 53.3038 8.39057 53.0537C8.14052 52.8037 8.00004 52.4646 8.00004 52.1109V50.1109C8.0008 50.0066 8.02606 49.9038 8.07379 49.811C8.12152 49.7181 8.19038 49.6378 8.27482 49.5765C8.35927 49.5151 8.45694 49.4744 8.55998 49.4577C8.66301 49.441 8.76853 49.4487 8.86804 49.4803C9.06968 49.5554 9.28651 49.5805 9.49999 49.5536C9.71348 49.5268 9.91728 49.4486 10.094 49.3259C10.2707 49.2031 10.4151 49.0394 10.5149 48.8487C10.6146 48.6581 10.6667 48.4461 10.6667 48.2309V46.7776C10.6623 44.6258 11.403 42.5388 12.763 40.8711C14.1229 39.2035 16.0182 38.058 18.1269 37.6294C20.2356 37.2007 22.4277 37.5153 24.3308 38.5196C26.2339 39.524 27.7306 41.1562 28.5667 43.1389C28.1916 44.3154 28.0004 45.5428 28 46.7776V46.8443C27.2471 46.998 26.5704 47.4071 26.0845 48.0023C25.5986 48.5976 25.3332 49.3425 25.3334 50.1109V52.1109C25.3343 52.8884 25.5618 53.6488 25.988 54.2991C26.4143 54.9493 27.0208 55.4613 27.7334 55.7723C27.3152 57.3662 26.5776 58.8586 25.5654 60.1589C24.9036 60.9963 24.0565 61.6686 23.0908 62.123C22.125 62.5774 21.0671 62.8015 20 62.7776C14.8974 62.7776 12.9334 58.3083 12.2174 55.6323ZM20 65.4443C20.9007 65.4433 21.7973 65.3236 22.6667 65.0883V66.7776C22.6667 67.4848 22.3858 68.1631 21.8857 68.6632C21.3856 69.1633 20.7073 69.4443 20 69.4443C19.2928 69.4443 18.6145 69.1633 18.1144 68.6632C17.6143 68.1631 17.3334 67.4848 17.3334 66.7776V65.1029C18.2037 65.3317 19.1001 65.4465 20 65.4443ZM8.00004 76.0976C8.00455 74.1729 8.70281 72.3143 9.96675 70.8628C11.2307 69.4113 12.9756 68.4641 14.8814 68.1949C15.1857 69.3179 15.851 70.3096 16.7747 71.0171C17.6984 71.7245 18.8291 72.1085 19.9926 72.1097C21.1561 72.1109 22.2877 71.7293 23.2129 71.0238C24.138 70.3182 24.8054 69.3279 25.112 68.2056C26.1029 68.3382 27.0594 68.6581 27.9307 69.1483C26.256 71.0762 25.3337 73.5439 25.3334 76.0976V77.4309H8.00004V76.0976ZM72 76.0976V77.4309H54.6667V76.0976C54.6664 73.5439 53.7441 71.0762 52.0694 69.1483C52.9397 68.6581 53.8954 68.3382 54.8854 68.2056C55.192 69.3279 55.8594 70.3182 56.7846 71.0238C57.7097 71.7293 58.8413 72.1109 60.0048 72.1097C61.1683 72.1085 62.299 71.7245 63.2227 71.0171C64.1464 70.3096 64.8117 69.3179 65.116 68.1949C67.0223 68.4635 68.7678 69.4104 70.0323 70.862C71.2968 72.3136 71.9954 74.1725 72 76.0976ZM62.6667 66.7776C62.6667 67.4848 62.3858 68.1631 61.8857 68.6632C61.3856 69.1633 60.7073 69.4443 60 69.4443C59.2928 69.4443 58.6145 69.1633 58.1144 68.6632C57.6143 68.1631 57.3334 67.4848 57.3334 66.7776V65.1029C58.2037 65.3317 59.1001 65.4465 60 65.4443C60.9007 65.4433 61.7973 65.3236 62.6667 65.0883V66.7776ZM72 52.1109C72.0001 52.2889 71.9638 52.465 71.8934 52.6285C71.823 52.7919 71.72 52.9393 71.5907 53.0616C71.4703 53.1842 71.3264 53.2813 71.1677 53.347C71.0089 53.4128 70.8385 53.4458 70.6667 53.4443C70.0121 53.4456 69.3759 53.6608 68.8549 54.0569C68.3338 54.4531 67.9564 55.0086 67.78 55.6389C67.3645 57.2826 66.6117 58.8218 65.5694 60.1589C64.9072 60.9968 64.0594 61.6694 63.093 62.1239C62.1265 62.5783 61.0677 62.8021 60 62.7776C54.98 62.7776 53.004 58.4563 52.2587 55.7763C52.9734 55.4662 53.582 54.9542 54.0098 54.303C54.4376 53.6519 54.6659 52.89 54.6667 52.1109V50.1109C54.6669 49.3425 54.4015 48.5976 53.9156 48.0023C53.4296 47.4071 52.753 46.998 52 46.8443V46.7776C51.9997 45.5428 51.8085 44.3154 51.4334 43.1389C52.2695 41.1562 53.7662 39.524 55.6693 38.5196C57.5724 37.5153 59.7645 37.2007 61.8732 37.6294C63.9819 38.058 65.8772 39.2035 67.2371 40.8711C68.5971 42.5388 69.3377 44.6258 69.3334 46.7776V48.2309C69.3334 48.4461 69.3855 48.6581 69.4852 48.8487C69.585 49.0394 69.7293 49.2031 69.9061 49.3259C70.0828 49.4486 70.2866 49.5268 70.5001 49.5536C70.7136 49.5805 70.9304 49.5554 71.132 49.4803C71.2316 49.4487 71.3371 49.441 71.4401 49.4577C71.5431 49.4744 71.6408 49.5151 71.7253 49.5765C71.8097 49.6378 71.8786 49.7181 71.9263 49.811C71.974 49.9038 71.9993 50.0066 72 50.1109V52.1109Z" fill="#6D0805"/>
</g>
<defs>
<clipPath id="clip0_1101_43005">
<rect width="80" height="80" fill="white" transform="translate(0 0.0976562)"/>
</clipPath>
</defs>
</svg>
