<svg width="80" height="81" viewBox="0 0 80 81" fill="none" xmlns="http://www.w3.org/2000/svg">
<path d="M15 40.0976C15.9461 40.0993 16.8914 40.0463 17.8314 39.9389C17.997 39.9232 18.1577 39.8746 18.3043 39.7959C18.4509 39.7173 18.5803 39.6102 18.6849 39.4809C18.7896 39.3516 18.8674 39.2028 18.9137 39.043C18.9601 38.8833 18.9742 38.7159 18.955 38.5507C18.9359 38.3855 18.884 38.2257 18.8023 38.0808C18.7207 37.9359 18.6109 37.8087 18.4795 37.7068C18.3481 37.6048 18.1976 37.5302 18.037 37.4871C17.8763 37.444 17.7087 37.4334 17.5439 37.456C16.6993 37.5519 15.85 37.5992 15 37.5976C8.89587 37.5976 5 35.3765 5 33.8476V30.1782C8.04103 31.9052 11.5059 32.7434 15 32.5976C18.4941 32.7434 21.959 31.9052 25 30.1782V33.8476C25 34.1791 25.1317 34.4971 25.3661 34.7315C25.6005 34.9659 25.9185 35.0976 26.25 35.0976C26.5815 35.0976 26.8995 34.9659 27.1339 34.7315C27.3683 34.4971 27.5 34.1791 27.5 33.8476V26.3476C27.5 22.7844 22.1265 20.0976 15 20.0976C7.8735 20.0976 2.5 22.7844 2.5 26.3476V71.3476C2.5 74.9109 7.8735 77.5976 15 77.5976C15.8851 77.5963 16.7695 77.5506 17.65 77.4609C17.8133 77.4443 17.9718 77.3957 18.1163 77.3179C18.2609 77.24 18.3887 77.1345 18.4925 77.0073C18.5962 76.88 18.6739 76.7336 18.7211 76.5764C18.7683 76.4191 18.784 76.2541 18.7674 76.0908C18.7509 75.9275 18.7023 75.769 18.6244 75.6245C18.5466 75.4799 18.4411 75.3521 18.3138 75.2483C18.1866 75.1446 18.0402 75.0669 17.883 75.0197C17.7257 74.9725 17.5607 74.9568 17.3974 74.9734C16.6009 75.0553 15.8007 75.0968 15 75.0976C8.89587 75.0976 5 72.8765 5 71.3476V67.6782C8.04103 69.4052 11.5059 70.2434 15 70.0976C15.45 70.0976 15.8875 70.0851 16.325 70.058C16.6523 70.0331 16.9566 69.8805 17.1723 69.6332C17.388 69.3858 17.4978 69.0636 17.4779 68.736C17.4581 68.4084 17.3102 68.1017 17.0662 67.8822C16.8221 67.6628 16.5016 67.548 16.1737 67.5629C15.7863 67.586 15.3987 67.5976 14.9987 67.5976C8.89462 67.5976 4.99875 65.3765 4.99875 63.8476V60.1782C8.04015 61.9054 11.5055 62.7437 15 62.5976C15.45 62.5976 15.8875 62.5851 16.325 62.558C16.6523 62.5331 16.9566 62.3805 17.1723 62.1332C17.388 61.8858 17.4978 61.5636 17.4779 61.236C17.4581 60.9084 17.3102 60.6017 17.0662 60.3822C16.8221 60.1628 16.5016 60.048 16.1737 60.0629C15.7863 60.086 15.3987 60.0976 14.9987 60.0976C8.89462 60.0976 4.99875 57.8765 4.99875 56.3476V52.6782C8.04015 54.4054 11.5055 55.2437 15 55.0976C15.45 55.0976 15.8875 55.0851 16.325 55.058C16.6523 55.0331 16.9566 54.8805 17.1723 54.6332C17.388 54.3858 17.4978 54.0636 17.4779 53.736C17.4581 53.4084 17.3102 53.1017 17.0662 52.8822C16.8221 52.6628 16.5016 52.548 16.1737 52.5629C15.7863 52.586 15.3987 52.5976 14.9987 52.5976C8.89462 52.5976 4.99875 50.3765 4.99875 48.8476V45.1782C8.04015 46.9054 11.5055 47.7437 15 47.5976C15.45 47.5976 15.8875 47.5851 16.325 47.558C16.6523 47.5331 16.9566 47.3805 17.1723 47.1332C17.388 46.8858 17.4978 46.5636 17.4779 46.236C17.4581 45.9084 17.3102 45.6017 17.0662 45.3822C16.8221 45.1628 16.5016 45.048 16.1737 45.0629C15.7863 45.086 15.3987 45.0976 14.9987 45.0976C8.89462 45.0976 4.99875 42.8765 4.99875 41.3476V37.6782C8.04015 39.4054 11.5055 40.2437 15 40.0976ZM15 22.5976C21.1041 22.5976 25 24.8187 25 26.3476C25 27.8765 21.1041 30.0976 15 30.0976C8.89587 30.0976 5 27.8765 5 26.3476C5 24.8187 8.89587 22.5976 15 22.5976ZM71.25 37.5976H26.25C24.593 37.5996 23.0044 38.2587 21.8327 39.4304C20.6611 40.602 20.002 42.1906 20 43.8476V71.3476C20.002 73.0046 20.6611 74.5932 21.8327 75.7649C23.0044 76.9366 24.593 77.5957 26.25 77.5976H71.25C72.907 77.5957 74.4956 76.9366 75.6673 75.7649C76.8389 74.5932 77.498 73.0046 77.5 71.3476V43.8476C77.498 42.1906 76.8389 40.602 75.6673 39.4304C74.4956 38.2587 72.907 37.5996 71.25 37.5976ZM58.75 45.0976H65.1258C65.373 46.2975 65.9664 47.3986 66.8327 48.2649C67.699 49.1312 68.8001 49.7246 70 49.9719V60.2234C68.8001 60.4706 67.699 61.064 66.8327 61.9303C65.9664 62.7966 65.373 63.8977 65.1258 65.0976H58.75V45.0976ZM38.75 75.0976H26.25C25.2558 75.0965 24.3026 74.7011 23.5996 73.9981C22.8965 73.295 22.5011 72.3419 22.5 71.3476V71.3156C23.5757 72.1424 24.8933 72.5928 26.25 72.5976H38.75V75.0976ZM38.75 65.0976H32.3743C32.127 63.8977 31.5336 62.7966 30.6673 61.9303C29.801 61.064 28.6999 60.4706 27.5 60.2234V49.9719C28.6999 49.7246 29.801 49.1312 30.6673 48.2649C31.5336 47.3986 32.127 46.2975 32.3743 45.0976H38.75V65.0976ZM38.75 42.5976H31.25C30.9185 42.5976 30.6005 42.7293 30.3661 42.9637C30.1317 43.1982 30 43.5161 30 43.8476C29.9989 44.8418 29.6035 45.795 28.9004 46.4981C28.1974 47.2011 27.2442 47.5965 26.25 47.5976C25.9185 47.5976 25.6005 47.7293 25.3661 47.9637C25.1317 48.1982 25 48.5161 25 48.8476V61.3476C25 61.6791 25.1317 61.9971 25.3661 62.2315C25.6005 62.4659 25.9185 62.5976 26.25 62.5976C27.2442 62.5987 28.1974 62.9941 28.9004 63.6972C29.6035 64.4002 29.9989 65.3534 30 66.3476C30 66.6791 30.1317 66.9971 30.3661 67.2315C30.6005 67.4659 30.9185 67.5976 31.25 67.5976H38.75V70.0976H26.25C25.2558 70.0965 24.3026 69.7011 23.5996 68.9981C22.8965 68.295 22.5011 67.3419 22.5 66.3476V43.8476C22.5011 42.8534 22.8965 41.9002 23.5996 41.1972C24.3026 40.4941 25.2558 40.0987 26.25 40.0976H38.75V42.5976ZM56.25 75.0976H41.25V40.0976H56.25V75.0976ZM75 71.3476C74.9989 72.3419 74.6035 73.295 73.9004 73.9981C73.1974 74.7011 72.2442 75.0965 71.25 75.0976H58.75V72.5976H71.25C72.6067 72.5928 73.9243 72.1424 75 71.3156V71.3476ZM75 66.3476C74.9989 67.3419 74.6035 68.295 73.9004 68.9981C73.1974 69.7011 72.2442 70.0965 71.25 70.0976H58.75V67.5976H66.25C66.5815 67.5976 66.8995 67.4659 67.1339 67.2315C67.3683 66.9971 67.5 66.6791 67.5 66.3476C67.5011 65.3534 67.8965 64.4002 68.5996 63.6972C69.3026 62.9941 70.2558 62.5987 71.25 62.5976C71.5815 62.5976 71.8995 62.4659 72.1339 62.2315C72.3683 61.9971 72.5 61.6791 72.5 61.3476V48.8476C72.5 48.5161 72.3683 48.1982 72.1339 47.9637C71.8995 47.7293 71.5815 47.5976 71.25 47.5976C70.2558 47.5965 69.3026 47.2011 68.5996 46.4981C67.8965 45.795 67.5011 44.8418 67.5 43.8476C67.5 43.5161 67.3683 43.1982 67.1339 42.9637C66.8995 42.7293 66.5815 42.5976 66.25 42.5976H58.75V40.0976H71.25C72.2442 40.0987 73.1974 40.4941 73.9004 41.1972C74.6035 41.9002 74.9989 42.8534 75 43.8476V66.3476ZM51.25 60.7226C51.2494 60.2255 51.0517 59.7489 50.7002 59.3974C50.3487 59.0459 49.8721 58.8482 49.375 58.8476H48.125C47.0199 58.85 45.9549 58.4332 45.1451 57.6811C44.3353 56.9291 43.8408 55.8979 43.7615 54.7956C43.6822 53.6933 44.024 52.602 44.7178 51.7418C45.4116 50.8816 46.4059 50.3166 47.5 50.1607V48.8476C47.5 48.5161 47.6317 48.1982 47.8661 47.9637C48.1005 47.7293 48.4185 47.5976 48.75 47.5976C49.0815 47.5976 49.3995 47.7293 49.6339 47.9637C49.8683 48.1982 50 48.5161 50 48.8476V50.0976H52.5C52.8315 50.0976 53.1495 50.2293 53.3839 50.4637C53.6183 50.6982 53.75 51.0161 53.75 51.3476C53.75 51.6791 53.6183 51.9971 53.3839 52.2315C53.1495 52.4659 52.8315 52.5976 52.5 52.5976H48.125C47.6277 52.5976 47.1508 52.7952 46.7992 53.1468C46.4475 53.4984 46.25 53.9753 46.25 54.4726C46.25 54.9699 46.4475 55.4468 46.7992 55.7984C47.1508 56.1501 47.6277 56.3476 48.125 56.3476H49.375C50.4809 56.3441 51.547 56.7604 52.3577 57.5126C53.1685 58.2647 53.6636 59.2965 53.743 60.3996C53.8223 61.5027 53.48 62.5948 52.7853 63.4552C52.0905 64.3157 51.095 64.8803 50 65.0351V66.3476C50 66.6791 49.8683 66.9971 49.6339 67.2315C49.3995 67.4659 49.0815 67.5976 48.75 67.5976C48.4185 67.5976 48.1005 67.4659 47.8661 67.2315C47.6317 66.9971 47.5 66.6791 47.5 66.3476V65.0976H45C44.6685 65.0976 44.3505 64.9659 44.1161 64.7315C43.8817 64.4971 43.75 64.1791 43.75 63.8476C43.75 63.5161 43.8817 63.1982 44.1161 62.9637C44.3505 62.7293 44.6685 62.5976 45 62.5976H49.375C49.8721 62.5971 50.3487 62.3993 50.7002 62.0478C51.0517 61.6963 51.2494 61.2197 51.25 60.7226ZM57.5 26.3476C57.5 25.1115 57.1334 23.9031 56.4467 22.8753C55.7599 21.8475 54.7838 21.0464 53.6418 20.5734C52.4997 20.1003 51.2431 19.9766 50.0307 20.2177C48.8183 20.4589 47.7047 21.0541 46.8306 21.9282C45.9565 22.8023 45.3612 23.9159 45.1201 25.1283C44.8789 26.3407 45.0027 27.5974 45.4758 28.7394C45.9488 29.8814 46.7499 30.8575 47.7777 31.5443C48.8055 32.2311 50.0139 32.5976 51.25 32.5976C52.907 32.5957 54.4956 31.9366 55.6673 30.7649C56.8389 29.5932 57.498 28.0046 57.5 26.3476ZM47.5 26.3476C47.5 25.6059 47.7199 24.8809 48.132 24.2642C48.544 23.6475 49.1297 23.1669 49.8149 22.8831C50.5002 22.5992 51.2542 22.525 51.9816 22.6697C52.709 22.8144 53.3772 23.1715 53.9016 23.696C54.4261 24.2204 54.7832 24.8886 54.9279 25.616C55.0726 26.3435 54.9984 27.0975 54.7145 27.7827C54.4307 28.4679 53.9501 29.0536 53.3334 29.4656C52.7167 29.8777 51.9917 30.0976 51.25 30.0976C50.2558 30.0965 49.3026 29.7011 48.5996 28.9981C47.8965 28.295 47.5011 27.3418 47.5 26.3476ZM77.5 22.5976V30.0976C77.5 30.3298 77.4354 30.5573 77.3133 30.7548C77.1913 30.9523 77.0166 31.1118 76.809 31.2157C76.6014 31.3195 76.3689 31.3634 76.1377 31.3426C75.9065 31.3217 75.6857 31.2369 75.5 31.0976L72.5 28.8476V33.8476C72.5 34.1791 72.3683 34.4971 72.1339 34.7315C71.8995 34.9659 71.5815 35.0976 71.25 35.0976C70.9185 35.0976 70.6005 34.9659 70.3661 34.7315C70.1317 34.4971 70 34.1791 70 33.8476V26.9726L51.25 12.9101L32.5 26.9726V33.8476C32.5 34.1791 32.3683 34.4971 32.1339 34.7315C31.8995 34.9659 31.5815 35.0976 31.25 35.0976C30.9185 35.0976 30.6005 34.9659 30.3661 34.7315C30.1317 34.4971 30 34.1791 30 33.8476V26.3476C29.9998 26.1535 30.0449 25.9621 30.1317 25.7885C30.2185 25.6149 30.3446 25.4639 30.5 25.3476L50.5 10.3476C50.7164 10.1854 50.9796 10.0978 51.25 10.0978C51.5204 10.0978 51.7836 10.1854 52 10.3476L75 27.5976V23.2226L51.25 5.41012L29.5007 21.7226C29.2355 21.9215 28.9022 22.0069 28.574 21.9601C28.2458 21.9132 27.9497 21.7378 27.7507 21.4726C27.5518 21.2074 27.4664 20.874 27.5133 20.5458C27.5602 20.2177 27.7355 19.9215 28.0008 19.7226L50.5008 2.84762C50.7172 2.68544 50.9803 2.59778 51.2507 2.59778C51.5212 2.59778 51.7843 2.68544 52.0008 2.84762L77.0007 21.5976C77.156 21.714 77.2819 21.865 77.3686 22.0386C77.4553 22.2122 77.5003 22.4036 77.5 22.5976Z" fill="#6D0805"/>
</svg>
