<svg width="80" height="81" viewBox="0 0 80 81" fill="none" xmlns="http://www.w3.org/2000/svg">
    <g clip-path="url(#clip0_6711_60486)">
        <path d="M63.333 12.5061H16.6663C14.833 12.5061 13.333 14.0061 13.333 15.8394V25.8394C13.333 27.6728 14.833 29.1728 16.6663 29.1728H63.333C65.1663 29.1728 66.6663 27.6728 66.6663 25.8394V15.8394C66.6663 14.0061 65.1663 12.5061 63.333 12.5061ZM63.333 32.5061H16.6663C14.833 32.5061 13.333 34.0061 13.333 35.8394V45.8394C13.333 47.6728 14.833 49.1728 16.6663 49.1728H63.333C65.1663 49.1728 66.6663 47.6728 66.6663 45.8394V35.8394C66.6663 34.0061 65.1663 32.5061 63.333 32.5061ZM63.333 52.5061H16.6663C14.833 52.5061 13.333 54.0061 13.333 55.8394V65.8394C13.333 67.6728 14.833 69.1728 16.6663 69.1728H63.333C65.1663 69.1728 66.6663 67.6728 66.6663 65.8394V55.8394C66.6663 54.0061 65.1663 52.5061 63.333 52.5061Z" fill="#E9000E"/>
        <path d="M58.334 47.5061H68.334V80.8394H58.334V47.5061Z" fill="#E9000E"/>
        <path d="M46.667 59.1729H80.0003V69.1729H46.667V59.1729Z" fill="#E9000E"/>
    </g>
    <defs>
        <clipPath id="clip0_6711_60486">
            <rect width="80" height="80" fill="white" transform="translate(0 0.839355)"/>
        </clipPath>
    </defs>
</svg>
