<svg width="81" height="81" viewBox="0 0 81 81" fill="none" xmlns="http://www.w3.org/2000/svg">
    <path d="M52.1667 57.4226L68.6667 40.9226C69.2778 40.3115 70.0556 40.0059 71 40.0059C71.9445 40.0059 72.7222 40.3115 73.3333 40.9226C73.9445 41.5337 74.25 42.3115 74.25 43.2559C74.25 44.2004 73.9445 44.9782 73.3333 45.5893L54.5 64.4226C53.8333 65.0893 53.0556 65.4226 52.1667 65.4226C51.2778 65.4226 50.5 65.0893 49.8333 64.4226L40.3333 54.9226C39.7222 54.3115 39.4167 53.5337 39.4167 52.5893C39.4167 51.6448 39.7222 50.8671 40.3333 50.256C40.9445 49.6448 41.7222 49.3393 42.6667 49.3393C43.6111 49.3393 44.3889 49.6448 45 50.256L52.1667 57.4226ZM17.1667 70.3393C15.3333 70.3393 13.7633 69.686 12.4567 68.3793C11.15 67.0726 10.4978 65.5037 10.5 63.6726V17.0059C10.5 15.1726 11.1533 13.6026 12.46 12.2959C13.7667 10.9893 15.3356 10.3371 17.1667 10.3393H31.0833C31.6945 8.39484 32.8889 6.79706 34.6667 5.54595C36.4445 4.29484 38.3889 3.67039 40.5 3.67261C42.7222 3.67261 44.7089 4.29817 46.46 5.54928C48.2111 6.80039 49.3911 8.39706 50 10.3393H63.8333C65.6667 10.3393 67.2367 10.9926 68.5433 12.2993C69.85 13.6059 70.5022 15.1748 70.5 17.0059V30.3393C70.5 31.2837 70.18 32.0759 69.54 32.7159C68.9 33.3559 68.1089 33.6748 67.1667 33.6726C66.2222 33.6726 65.43 33.3526 64.79 32.7126C64.15 32.0726 63.8311 31.2815 63.8333 30.3393V17.0059H57.1667V23.6726C57.1667 24.6171 56.8467 25.4093 56.2067 26.0493C55.5667 26.6893 54.7756 27.0082 53.8333 27.0059H27.1667C26.2222 27.0059 25.43 26.6859 24.79 26.0459C24.15 25.4059 23.8311 24.6148 23.8333 23.6726V17.0059H17.1667V63.6726H33.8333C34.7778 63.6726 35.57 63.9926 36.21 64.6326C36.85 65.2726 37.1689 66.0637 37.1667 67.006C37.1667 67.9504 36.8467 68.7426 36.2067 69.3826C35.5667 70.0226 34.7756 70.3415 33.8333 70.3393H17.1667ZM40.5 17.0059C41.4445 17.0059 42.2367 16.6859 42.8767 16.0459C43.5167 15.4059 43.8356 14.6148 43.8333 13.6726C43.8333 12.7282 43.5133 11.9359 42.8733 11.2959C42.2333 10.6559 41.4422 10.3371 40.5 10.3393C39.5556 10.3393 38.7633 10.6593 38.1233 11.2993C37.4833 11.9393 37.1645 12.7304 37.1667 13.6726C37.1667 14.6171 37.4867 15.4093 38.1267 16.0493C38.7667 16.6893 39.5578 17.0082 40.5 17.0059Z" fill="#E9000E"/>
</svg>
