<svg width="70" height="71" viewBox="0 0 70 71" fill="none" xmlns="http://www.w3.org/2000/svg">
<path d="M35 17.9622C35 17.9622 41.8556 10.3059 50.3125 10.3059C58.7694 10.3059 65.625 17.2549 65.625 25.6184C65.625 40.0107 43.0704 56.4447 36.6727 60.8153C35.6592 61.508 34.3408 61.508 33.3273 60.8153C26.9296 56.4447 4.375 40.0107 4.375 25.6184C4.375 17.2549 11.2306 10.3059 19.6875 10.3059C28.1444 10.3059 35 17.9622 35 17.9622Z" fill="url(#paint0_linear_454_4179)"/>
<path d="M38.8939 41.2751C39.0558 41.803 39.505 42.1938 40.0504 42.2828C40.5885 42.3674 41.1456 42.1442 41.4693 41.698L44.1308 38.0142H50.3127C51.1191 38.0142 51.771 37.3609 51.771 36.5559C51.771 35.7509 51.1191 35.0976 50.3127 35.0976H43.3856C42.9175 35.0976 42.4785 35.3222 42.2029 35.7028L40.816 37.622L38.2158 29.2117C38.0321 28.6138 37.4866 28.2011 36.861 28.1851C36.2412 28.1603 35.671 28.5511 35.4537 29.1388L30.7987 41.7665L28.0585 22.677C27.9637 22.012 27.4256 21.5001 26.7591 21.433C26.0796 21.3615 25.4641 21.764 25.2396 22.3955L20.5525 35.5861L16.701 29.9044C16.4123 29.4801 15.9193 29.2322 15.4148 29.2657C14.9029 29.2934 14.445 29.5865 14.2058 30.0372L11.5181 35.0976H7.15039C7.68268 36.0761 8.27622 37.0488 8.92372 38.0142H12.396C12.9356 38.0142 13.4314 37.7167 13.6837 37.2399L15.6481 33.5445L19.7562 39.6082C20.0639 40.0632 20.5889 40.3097 21.1489 40.2367C21.6943 40.1682 22.1537 39.7963 22.3375 39.2786L26.011 28.939L28.7308 47.8828C28.8256 48.5434 29.3579 49.0553 30.0214 49.1267C30.0739 49.1311 30.125 49.134 30.176 49.134C30.7798 49.134 31.3296 48.7578 31.5439 48.1803L36.7021 34.1876L38.8939 41.2751Z" fill="#FFEBEE"/>
<path d="M51.0417 33.6394C49.4302 33.6394 48.125 34.9446 48.125 36.5561C48.125 38.1675 49.4302 39.4727 51.0417 39.4727C52.6531 39.4727 53.9583 38.1675 53.9583 36.5561C53.9583 34.9446 52.6531 33.6394 51.0417 33.6394Z" fill="#FFEBEE"/>
<defs>
<linearGradient id="paint0_linear_454_4179" x1="22.7431" y1="7.19601" x2="51.5279" y2="51.5245" gradientUnits="userSpaceOnUse">
<stop stop-color="#F44F5A"/>
<stop offset="0.4429" stop-color="#EE3D4A"/>
<stop offset="1" stop-color="#E52030"/>
</linearGradient>
</defs>
</svg>
