<svg width="70" height="71" viewBox="0 0 70 71" fill="none" xmlns="http://www.w3.org/2000/svg">
<path d="M55.4173 40.9311C55.2258 40.9312 55.0361 40.8935 54.8591 40.8203C54.6821 40.747 54.5213 40.6396 54.3859 40.5042C54.2504 40.3687 54.143 40.2079 54.0698 40.0309C53.9965 39.854 53.9589 39.6643 53.959 39.4727V11.7644C53.9587 11.3777 53.805 11.0069 53.5316 10.7335C53.2581 10.4601 52.8873 10.3063 52.5007 10.3061H49.584C49.1973 10.3063 48.8265 10.4601 48.5531 10.7335C48.2796 11.0069 48.1259 11.3777 48.1257 11.7644V14.6811C48.1257 15.0678 47.972 15.4388 47.6985 15.7123C47.425 15.9858 47.0541 16.1394 46.6673 16.1394C46.2805 16.1394 45.9096 15.9858 45.6361 15.7123C45.3626 15.4388 45.209 15.0678 45.209 14.6811V11.7644C45.2103 10.6045 45.6716 9.49241 46.4918 8.67221C47.312 7.85201 48.4241 7.39067 49.584 7.3894H52.5007C53.6606 7.39067 54.7726 7.85201 55.5928 8.67221C56.413 9.49241 56.8744 10.6045 56.8757 11.7644V39.4727C56.8758 39.6643 56.8381 39.854 56.7649 40.0309C56.6916 40.2079 56.5842 40.3687 56.4488 40.5042C56.3133 40.6396 56.1525 40.747 55.9755 40.8203C55.7985 40.8935 55.6089 40.9312 55.4173 40.9311Z" fill="#64717C"/>
<path d="M37.9173 46.7643C37.7258 46.7644 37.5361 46.7268 37.3591 46.6535C37.1821 46.5803 37.0213 46.4729 36.8859 46.3374C36.7504 46.202 36.643 46.0412 36.5698 45.8642C36.4965 45.6872 36.4589 45.4975 36.459 45.306V17.5977C36.4587 17.211 36.305 16.8402 36.0316 16.5667C35.7581 16.2933 35.3873 16.1396 35.0007 16.1393H32.084C31.6973 16.1396 31.3265 16.2933 31.0531 16.5667C30.7796 16.8402 30.6259 17.211 30.6257 17.5977V20.5143C30.6257 20.9011 30.472 21.272 30.1985 21.5455C29.925 21.819 29.5541 21.9727 29.1673 21.9727C28.7805 21.9727 28.4096 21.819 28.1361 21.5455C27.8626 21.272 27.709 20.9011 27.709 20.5143V17.5977C27.7103 16.4377 28.1716 15.3257 28.9918 14.5055C29.812 13.6853 30.9241 13.2239 32.084 13.2227H35.0007C36.1606 13.2239 37.2726 13.6853 38.0928 14.5055C38.913 15.3257 39.3744 16.4377 39.3757 17.5977V45.306C39.3758 45.4975 39.3381 45.6872 39.2649 45.8642C39.1916 46.0412 39.0842 46.202 38.9488 46.3374C38.8133 46.4729 38.6525 46.5803 38.4755 46.6535C38.2985 46.7268 38.1089 46.7644 37.9173 46.7643Z" fill="#64717C"/>
<path d="M20.4173 52.5976C20.2258 52.5977 20.0361 52.56 19.8591 52.4868C19.6821 52.4135 19.5213 52.3061 19.3859 52.1707C19.2504 52.0352 19.143 51.8744 19.0698 51.6974C18.9965 51.5205 18.9589 51.3308 18.959 51.1392V23.4309C18.9587 23.0442 18.805 22.6734 18.5316 22.4C18.2581 22.1266 17.8873 21.9728 17.5007 21.9726H14.584C14.1973 21.9728 13.8265 22.1266 13.5531 22.4C13.2796 22.6734 13.1259 23.0442 13.1257 23.4309V26.3476C13.1257 26.7343 12.972 27.1053 12.6985 27.3788C12.425 27.6523 12.0541 27.8059 11.6673 27.8059C11.2805 27.8059 10.9096 27.6523 10.6361 27.3788C10.3626 27.1053 10.209 26.7343 10.209 26.3476V23.4309C10.2103 22.271 10.6716 21.1589 11.4918 20.3387C12.312 19.5185 13.4241 19.0572 14.584 19.0559H17.5007C18.6606 19.0572 19.7726 19.5185 20.5928 20.3387C21.413 21.1589 21.8744 22.271 21.8757 23.4309V51.1392C21.8758 51.3308 21.8381 51.5205 21.7649 51.6974C21.6916 51.8744 21.5842 52.0352 21.4488 52.1707C21.3133 52.3061 21.1525 52.4135 20.9755 52.4868C20.7985 52.56 20.6089 52.5977 20.4173 52.5976Z" fill="#64717C"/>
<path d="M43.7493 13.2227H49.5827C49.9695 13.2227 50.3404 13.3763 50.6139 13.6498C50.8874 13.9233 51.041 14.2942 51.041 14.681V39.4727H42.291V14.681C42.291 14.2942 42.4447 13.9233 42.7182 13.6498C42.9916 13.3763 43.3626 13.2227 43.7493 13.2227Z" fill="url(#paint0_linear_454_4249)"/>
<path d="M26.2493 19.0559H32.0827C32.4695 19.0559 32.8404 19.2096 33.1139 19.483C33.3874 19.7565 33.541 20.1275 33.541 20.5142V45.3059H24.791V20.5142C24.791 20.1275 24.9447 19.7565 25.2182 19.483C25.4916 19.2096 25.8626 19.0559 26.2493 19.0559Z" fill="url(#paint1_linear_454_4249)"/>
<path d="M68.5417 39.4727H61.25L61.5417 35.0977L61.7313 32.181L61.9354 29.2644L62.3146 23.431L62.5187 20.5144L62.6646 18.2831C62.6742 18.0969 62.7555 17.9215 62.8914 17.7938C63.0273 17.6661 63.2073 17.5958 63.3938 17.5977H66.3979C66.5844 17.5958 66.7644 17.6661 66.9003 17.7938C67.0362 17.9215 67.1175 18.0969 67.1271 18.2831L67.2729 20.5144L67.4771 23.431L67.8562 29.2644L68.0604 32.181L68.25 35.0977L68.5417 39.4727Z" fill="#D43A02"/>
<path d="M42.2923 38.0144H67.084C67.4708 38.0144 67.8417 38.168 68.1152 38.4415C68.3887 38.715 68.5423 39.086 68.5423 39.4727V62.8061H40.834V39.4727C40.834 39.086 40.9876 38.715 41.2611 38.4415C41.5346 38.168 41.9055 38.0144 42.2923 38.0144Z" fill="url(#paint2_linear_454_4249)"/>
<path d="M24.7923 38.0144H33.5423C33.9291 38.0144 34.3 38.168 34.5735 38.4415C34.847 38.715 35.0007 39.086 35.0007 39.4727V62.8061H23.334V39.4727C23.334 39.086 23.4876 38.715 23.7611 38.4415C24.0346 38.168 24.4055 38.0144 24.7923 38.0144Z" fill="url(#paint3_linear_454_4249)"/>
<path d="M68.5417 40.9309H52.5V59.8892H68.5417V40.9309Z" fill="url(#paint4_linear_454_4249)"/>
<path d="M68.5417 43.8477H52.5V46.7643H68.5417V43.8477Z" fill="#D43A02"/>
<path d="M43.75 56.9727C48.5825 56.9727 52.5 53.0551 52.5 48.2227C52.5 43.3902 48.5825 39.4727 43.75 39.4727C38.9175 39.4727 35 43.3902 35 48.2227C35 53.0551 38.9175 56.9727 43.75 56.9727Z" fill="url(#paint5_linear_454_4249)"/>
<path d="M43.7493 54.0561C46.971 54.0561 49.5827 51.4444 49.5827 48.2227C49.5827 45.0011 46.971 42.3894 43.7493 42.3894C40.5277 42.3894 37.916 45.0011 37.916 48.2227C37.916 51.4444 40.5277 54.0561 43.7493 54.0561Z" fill="url(#paint6_linear_454_4249)"/>
<path d="M26.25 56.9727C31.0825 56.9727 35 53.0551 35 48.2227C35 43.3902 31.0825 39.4727 26.25 39.4727C21.4175 39.4727 17.5 43.3902 17.5 48.2227C17.5 53.0551 21.4175 56.9727 26.25 56.9727Z" fill="url(#paint7_linear_454_4249)"/>
<path d="M26.2493 54.0561C29.471 54.0561 32.0827 51.4444 32.0827 48.2227C32.0827 45.0011 29.471 42.3894 26.2493 42.3894C23.0277 42.3894 20.416 45.0011 20.416 48.2227C20.416 51.4444 23.0277 54.0561 26.2493 54.0561Z" fill="url(#paint8_linear_454_4249)"/>
<path d="M8.74935 24.8894H14.5827C14.9695 24.8894 15.3404 25.043 15.6139 25.3165C15.8874 25.59 16.041 25.961 16.041 26.3477V51.1394H7.29102V26.3477C7.29102 25.961 7.44466 25.59 7.71815 25.3165C7.99164 25.043 8.36257 24.8894 8.74935 24.8894Z" fill="url(#paint9_linear_454_4249)"/>
<path d="M7.29232 38.0144H16.0423C16.4291 38.0144 16.8 38.168 17.0735 38.4415C17.347 38.715 17.5007 39.086 17.5007 39.4727V62.8061H5.83398V39.4727C5.83398 39.086 5.98763 38.715 6.26112 38.4415C6.53461 38.168 6.90554 38.0144 7.29232 38.0144Z" fill="url(#paint10_linear_454_4249)"/>
<path d="M8.75 56.9727C13.5825 56.9727 17.5 53.0551 17.5 48.2227C17.5 43.3902 13.5825 39.4727 8.75 39.4727C3.91751 39.4727 0 43.3902 0 48.2227C0 53.0551 3.91751 56.9727 8.75 56.9727Z" fill="url(#paint11_linear_454_4249)"/>
<path d="M8.74935 54.0561C11.971 54.0561 14.5827 51.4444 14.5827 48.2227C14.5827 45.0011 11.971 42.3894 8.74935 42.3894C5.52769 42.3894 2.91602 45.0011 2.91602 48.2227C2.91602 51.4444 5.52769 54.0561 8.74935 54.0561Z" fill="url(#paint12_linear_454_4249)"/>
<path d="M68.5417 59.8892H1.45833C0.652918 59.8892 0 60.5421 0 61.3475C0 62.1529 0.652918 62.8058 1.45833 62.8058H68.5417C69.3471 62.8058 70 62.1529 70 61.3475C70 60.5421 69.3471 59.8892 68.5417 59.8892Z" fill="#64717C"/>
<path d="M67.477 23.4311H62.3145L62.5186 20.5144H67.2728L67.477 23.4311Z" fill="#A8A8A8"/>
<path d="M67.8564 29.2643H61.9355L62.1251 26.3477H67.6668L67.8564 29.2643Z" fill="#A8A8A8"/>
<path d="M68.2493 35.0976H61.541L61.7306 32.1809H68.0598L68.2493 35.0976Z" fill="#A8A8A8"/>
<defs>
<linearGradient id="paint0_linear_454_4249" x1="40.9999" y1="11.38" x2="52.2286" y2="42.2307" gradientUnits="userSpaceOnUse">
<stop stop-color="#DFE9F2"/>
<stop offset="0.391" stop-color="#D6E0E9"/>
<stop offset="1" stop-color="#BFC8D1"/>
</linearGradient>
<linearGradient id="paint1_linear_454_4249" x1="23.4999" y1="17.2133" x2="34.7286" y2="48.0639" gradientUnits="userSpaceOnUse">
<stop stop-color="#DFE9F2"/>
<stop offset="0.391" stop-color="#D6E0E9"/>
<stop offset="1" stop-color="#BFC8D1"/>
</linearGradient>
<linearGradient id="paint2_linear_454_4249" x1="47.8643" y1="32.2619" x2="63.8794" y2="76.2631" gradientUnits="userSpaceOnUse">
<stop stop-color="#889097"/>
<stop offset="1" stop-color="#4C5963"/>
</linearGradient>
<linearGradient id="paint3_linear_454_4249" x1="23.4796" y1="35.3833" x2="36.7796" y2="71.9248" gradientUnits="userSpaceOnUse">
<stop stop-color="#889097"/>
<stop offset="1" stop-color="#4C5963"/>
</linearGradient>
<linearGradient id="paint4_linear_454_4249" x1="53.4866" y1="31.0838" x2="69.2492" y2="74.3911" gradientUnits="userSpaceOnUse">
<stop stop-color="#DFE9F2"/>
<stop offset="0.391" stop-color="#D6E0E9"/>
<stop offset="1" stop-color="#BFC8D1"/>
</linearGradient>
<linearGradient id="paint5_linear_454_4249" x1="40.4753" y1="39.2256" x2="50.1207" y2="65.7259" gradientUnits="userSpaceOnUse">
<stop stop-color="#FE3E3E"/>
<stop offset="1" stop-color="#E41E1E"/>
</linearGradient>
<linearGradient id="paint6_linear_454_4249" x1="40.4747" y1="39.2257" x2="50.12" y2="65.726" gradientUnits="userSpaceOnUse">
<stop stop-color="#A8E2F7"/>
<stop offset="0.0001" stop-color="#F7A8B1"/>
<stop offset="1" stop-color="#FF4747"/>
</linearGradient>
<linearGradient id="paint7_linear_454_4249" x1="22.9753" y1="39.2256" x2="32.6207" y2="65.7259" gradientUnits="userSpaceOnUse">
<stop stop-color="#FE3E3E"/>
<stop offset="1" stop-color="#E41E1E"/>
</linearGradient>
<linearGradient id="paint8_linear_454_4249" x1="22.9747" y1="39.2257" x2="32.62" y2="65.726" gradientUnits="userSpaceOnUse">
<stop stop-color="#A8E2F7"/>
<stop offset="0.0001" stop-color="#F7A8B1"/>
<stop offset="1" stop-color="#FF4747"/>
</linearGradient>
<linearGradient id="paint9_linear_454_4249" x1="5.99985" y1="23.0468" x2="17.2286" y2="53.8974" gradientUnits="userSpaceOnUse">
<stop stop-color="#DFE9F2"/>
<stop offset="0.391" stop-color="#D6E0E9"/>
<stop offset="1" stop-color="#BFC8D1"/>
</linearGradient>
<linearGradient id="paint10_linear_454_4249" x1="5.97956" y1="35.3833" x2="19.2796" y2="71.9248" gradientUnits="userSpaceOnUse">
<stop stop-color="#889097"/>
<stop offset="1" stop-color="#4C5963"/>
</linearGradient>
<linearGradient id="paint11_linear_454_4249" x1="5.47534" y1="39.2256" x2="15.1207" y2="65.7259" gradientUnits="userSpaceOnUse">
<stop stop-color="#FE3E3E"/>
<stop offset="1" stop-color="#E41E1E"/>
</linearGradient>
<linearGradient id="paint12_linear_454_4249" x1="5.47469" y1="39.2257" x2="15.12" y2="65.726" gradientUnits="userSpaceOnUse">
<stop stop-color="#A8E2F7"/>
<stop offset="0.0001" stop-color="#F7A8B1"/>
<stop offset="1" stop-color="#FF4747"/>
</linearGradient>
</defs>
</svg>
