<svg width="70" height="71" viewBox="0 0 70 71" fill="none" xmlns="http://www.w3.org/2000/svg">
<path d="M53.4267 62.8062H36.457V40.9312H50.0053C50.4227 40.9313 50.8294 41.0627 51.1679 41.3068C51.5065 41.551 51.7596 41.8954 51.8915 42.2914L55.387 52.512L55.4154 60.8175C55.4154 61.0787 55.364 61.3373 55.2641 61.5786C55.1642 61.8199 55.0177 62.0392 54.8331 62.2239C54.6484 62.4085 54.4291 62.555 54.1878 62.6549C53.9465 62.7548 53.6879 62.8062 53.4267 62.8062Z" fill="url(#paint0_linear_454_4435)"/>
<path d="M53.4267 62.8062H36.457V40.9312H50.0053C50.4227 40.9313 50.8294 41.0627 51.1679 41.3068C51.5065 41.551 51.7596 41.8954 51.8915 42.2914L55.387 52.512L55.4154 60.8175C55.4154 61.0787 55.364 61.3373 55.2641 61.5786C55.1642 61.8199 55.0177 62.0392 54.8331 62.2239C54.6484 62.4085 54.4291 62.555 54.1878 62.6549C53.9465 62.7548 53.6879 62.8062 53.4267 62.8062Z" fill="url(#paint1_linear_454_4435)"/>
<path d="M40.8328 62.806H16.5545C16.0328 62.8206 15.5268 62.6276 15.1474 62.2693C14.768 61.911 14.5464 61.4167 14.5312 60.8951V37.0086C14.5464 36.487 14.768 35.9928 15.1474 35.6345C15.5268 35.2761 16.0328 35.0831 16.5545 35.0977H38.8096C39.3312 35.0831 39.8373 35.2761 40.2166 35.6345C40.596 35.9928 40.8176 36.487 40.8328 37.0086V62.806Z" fill="url(#paint2_linear_454_4435)"/>
<path d="M27.707 62.8062C27.707 63.6714 27.4504 64.5173 26.9697 65.2368C26.489 65.9562 25.8057 66.517 25.0063 66.8481C24.2068 67.1793 23.3272 67.2659 22.4785 67.0971C21.6298 66.9283 20.8503 66.5116 20.2384 65.8997C19.6266 65.2879 19.2099 64.5083 19.0411 63.6597C18.8723 62.811 18.9589 61.9313 19.2901 61.1319C19.6212 60.3325 20.1819 59.6492 20.9014 59.1685C21.6209 58.6877 22.4667 58.4312 23.332 58.4312C24.4923 58.4313 25.605 58.8923 26.4255 59.7127C27.2459 60.5331 27.7069 61.6459 27.707 62.8062Z" fill="#586169"/>
<path d="M25.207 62.8061C25.207 63.177 25.0971 63.5395 24.891 63.8478C24.685 64.1562 24.3922 64.3965 24.0496 64.5384C23.7069 64.6803 23.3299 64.7175 22.9662 64.6451C22.6025 64.5728 22.2684 64.3942 22.0062 64.132C21.744 63.8697 21.5654 63.5356 21.4931 63.1719C21.4207 62.8082 21.4578 62.4312 21.5998 62.0886C21.7417 61.746 21.982 61.4532 22.2903 61.2471C22.5987 61.0411 22.9612 60.9312 23.332 60.9312C23.5783 60.9311 23.8221 60.9795 24.0496 61.0737C24.2772 61.1679 24.4839 61.306 24.658 61.4802C24.8321 61.6543 24.9702 61.861 25.0644 62.0885C25.1586 62.316 25.2071 62.5599 25.207 62.8061Z" fill="#999999"/>
<path d="M52.5 62.8062C52.5 63.6714 52.2434 64.5173 51.7627 65.2368C51.2819 65.9562 50.5987 66.517 49.7992 66.8481C48.9998 67.1793 48.1202 67.2659 47.2715 67.0971C46.4228 66.9283 45.6433 66.5116 45.0314 65.8997C44.4196 65.2879 44.0029 64.5083 43.8341 63.6597C43.6653 62.811 43.7519 61.9313 44.083 61.1319C44.4142 60.3325 44.9749 59.6492 45.6944 59.1685C46.4138 58.6877 47.2597 58.4312 48.125 58.4312C49.2853 58.4313 50.398 58.8923 51.2185 59.7127C52.0389 60.5331 52.4999 61.6459 52.5 62.8062Z" fill="#586169"/>
<path d="M50 62.8061C50 63.177 49.89 63.5395 49.684 63.8478C49.478 64.1562 49.1851 64.3965 48.8425 64.5384C48.4999 64.6803 48.1229 64.7175 47.7592 64.6451C47.3955 64.5728 47.0614 64.3942 46.7992 64.132C46.537 63.8697 46.3584 63.5356 46.286 63.1719C46.2137 62.8082 46.2508 62.4312 46.3927 62.0886C46.5346 61.746 46.775 61.4532 47.0833 61.2471C47.3916 61.0411 47.7542 60.9312 48.125 60.9312C48.3712 60.9311 48.6151 60.9795 48.8426 61.0737C49.0701 61.1679 49.2768 61.306 49.451 61.4802C49.6251 61.6543 49.7632 61.861 49.8574 62.0885C49.9516 62.316 50.0001 62.5599 50 62.8061Z" fill="#999999"/>
<path d="M51.5278 52.5977H44.7222C44.4644 52.5976 44.2172 52.4951 44.0349 52.3128C43.8526 52.1305 43.7501 51.8832 43.75 51.6254V44.8199C43.7501 44.5621 43.8526 44.3148 44.0349 44.1325C44.2172 43.9502 44.4644 43.8478 44.7222 43.8477H49.5833C49.7875 43.8473 49.9866 43.9114 50.1523 44.0308C50.3179 44.1502 50.4417 44.3188 50.506 44.5127L52.4504 50.346C52.4829 50.4452 52.4996 50.5489 52.5 50.6532V51.6254C52.4999 51.8832 52.3974 52.1305 52.2151 52.3128C52.0328 52.4951 51.7856 52.5976 51.5278 52.5977Z" fill="url(#paint3_linear_454_4435)"/>
<path d="M51.0417 20.5142C52.6525 20.5142 53.9583 19.2084 53.9583 17.5976C53.9583 15.9867 52.6525 14.6809 51.0417 14.6809C49.4308 14.6809 48.125 15.9867 48.125 17.5976C48.125 19.2084 49.4308 20.5142 51.0417 20.5142Z" fill="url(#paint4_linear_454_4435)"/>
<path d="M51.0417 20.5142C52.6525 20.5142 53.9583 19.2084 53.9583 17.5976C53.9583 15.9867 52.6525 14.6809 51.0417 14.6809C49.4308 14.6809 48.125 15.9867 48.125 17.5976C48.125 19.2084 49.4308 20.5142 51.0417 20.5142Z" fill="url(#paint5_linear_454_4435)"/>
<path d="M40.4062 16.85C40.4867 16.85 40.5655 16.827 40.6333 16.7836C40.7011 16.7402 40.755 16.6782 40.7886 16.6051C40.8223 16.532 40.8342 16.4508 40.8231 16.371C40.8119 16.2913 40.7782 16.2165 40.7257 16.1554L30.3889 4.10104C29.9723 3.61489 29.4158 3.26911 28.7954 3.11089C28.175 2.95268 27.5209 2.98972 26.9223 3.21697L25.9883 3.57149L31.9263 16.3429C31.9978 16.4968 32.1118 16.6269 32.2549 16.7181C32.398 16.8092 32.5642 16.8576 32.7338 16.8573L40.4062 16.85Z" fill="url(#paint6_linear_454_4435)"/>
<path d="M40.4062 16.85C40.4867 16.85 40.5655 16.827 40.6333 16.7836C40.7011 16.7402 40.755 16.6782 40.7886 16.6051C40.8223 16.532 40.8342 16.4508 40.8231 16.371C40.8119 16.2913 40.7782 16.2165 40.7257 16.1554L30.3889 4.10104C29.9723 3.61489 29.4158 3.26911 28.7954 3.11089C28.175 2.95268 27.5209 2.98972 26.9223 3.21697L25.9883 3.57149L31.9263 16.3429C31.9978 16.4968 32.1118 16.6269 32.2549 16.7181C32.398 16.8092 32.5642 16.8576 32.7338 16.8573L40.4062 16.85Z" fill="url(#paint7_linear_454_4435)"/>
<path d="M18.9577 20.5142C20.5685 20.5142 21.8743 19.2084 21.8743 17.5976C21.8743 15.9867 20.5685 14.6809 18.9577 14.6809C17.3469 14.6809 16.041 15.9867 16.041 17.5976C16.041 19.2084 17.3469 20.5142 18.9577 20.5142Z" fill="url(#paint8_linear_454_4435)"/>
<path d="M18.9577 20.5142C20.5685 20.5142 21.8743 19.2084 21.8743 17.5976C21.8743 15.9867 20.5685 14.6809 18.9577 14.6809C17.3469 14.6809 16.041 15.9867 16.041 17.5976C16.041 19.2084 17.3469 20.5142 18.9577 20.5142Z" fill="url(#paint9_linear_454_4435)"/>
<path d="M51.0423 14.6809H18.959V20.5142H51.0423V14.6809Z" fill="url(#paint10_linear_454_4435)"/>
<path d="M20.0514 15.0455L16.041 17.5976V11.0351C16.041 10.8417 16.1178 10.6562 16.2546 10.5195C16.3913 10.3827 16.5768 10.3059 16.7702 10.3059C17.387 10.3059 17.9848 10.5196 18.4619 10.9107C18.9389 11.3018 19.2657 11.8461 19.3867 12.4509L20.0514 15.0455Z" fill="url(#paint11_linear_454_4435)"/>
<path d="M20.0514 15.0455L16.041 17.5976V11.0351C16.041 10.8417 16.1178 10.6562 16.2546 10.5195C16.3913 10.3827 16.5768 10.3059 16.7702 10.3059C17.387 10.3059 17.9848 10.5196 18.4619 10.9107C18.9389 11.3018 19.2657 11.8461 19.3867 12.4509L20.0514 15.0455Z" fill="url(#paint12_linear_454_4435)"/>
<path d="M32.7338 18.3281C32.5642 18.3279 32.398 18.3762 32.2549 18.4674C32.1119 18.5585 31.9979 18.6887 31.9263 18.8425L25.9883 31.614L26.9223 31.9686C27.5209 32.1958 28.175 32.2329 28.7954 32.0746C29.4158 31.9164 29.9723 31.5706 30.3889 31.0844L40.7257 19.0301C40.7782 18.969 40.8119 18.8942 40.8231 18.8145C40.8342 18.7347 40.8223 18.6535 40.7886 18.5804C40.755 18.5072 40.7011 18.4453 40.6333 18.4019C40.5655 18.3585 40.4867 18.3355 40.4062 18.3355L32.7338 18.3281Z" fill="url(#paint13_linear_454_4435)"/>
<defs>
<linearGradient id="paint0_linear_454_4435" x1="36.9756" y1="41.1209" x2="51.3737" y2="63.8687" gradientUnits="userSpaceOnUse">
<stop stop-color="#42A3F2"/>
<stop offset="1" stop-color="#42A4EB"/>
</linearGradient>
<linearGradient id="paint1_linear_454_4435" x1="37.1035" y1="30.2794" x2="57.315" y2="31.506" gradientUnits="userSpaceOnUse">
<stop stop-color="#F24242"/>
<stop offset="1" stop-color="#EB424C"/>
</linearGradient>
<linearGradient id="paint2_linear_454_4435" x1="18.3563" y1="34.6774" x2="36.4485" y2="62.3705" gradientUnits="userSpaceOnUse">
<stop stop-color="#D63030"/>
<stop offset="1" stop-color="#D22966"/>
</linearGradient>
<linearGradient id="paint3_linear_454_4435" x1="45.0225" y1="43.7152" x2="50.6108" y2="52.7269" gradientUnits="userSpaceOnUse">
<stop stop-color="#D63030"/>
<stop offset="1" stop-color="#D22966"/>
</linearGradient>
<linearGradient id="paint4_linear_454_4435" x1="48.3192" y1="16.549" x2="53.7642" y2="18.6462" gradientUnits="userSpaceOnUse">
<stop stop-color="#42A3F2"/>
<stop offset="1" stop-color="#42A4EB"/>
</linearGradient>
<linearGradient id="paint5_linear_454_4435" x1="48.3239" y1="11.8404" x2="54.5353" y2="12.2754" gradientUnits="userSpaceOnUse">
<stop stop-color="#F24242"/>
<stop offset="1" stop-color="#EB424C"/>
</linearGradient>
<linearGradient id="paint6_linear_454_4435" x1="29.1105" y1="11.7965" x2="37.8403" y2="8.48238" gradientUnits="userSpaceOnUse">
<stop stop-color="#3079D6"/>
<stop offset="1" stop-color="#297CD2"/>
</linearGradient>
<linearGradient id="paint7_linear_454_4435" x1="28.1463" y1="2.80484" x2="36.7021" y2="17.5948" gradientUnits="userSpaceOnUse">
<stop stop-color="#D63030"/>
<stop offset="1" stop-color="#D22966"/>
</linearGradient>
<linearGradient id="paint8_linear_454_4435" x1="16.2352" y1="16.549" x2="21.6802" y2="18.6462" gradientUnits="userSpaceOnUse">
<stop stop-color="#42A3F2"/>
<stop offset="1" stop-color="#42A4EB"/>
</linearGradient>
<linearGradient id="paint9_linear_454_4435" x1="16.2399" y1="11.8404" x2="22.4513" y2="12.2754" gradientUnits="userSpaceOnUse">
<stop stop-color="#F24242"/>
<stop offset="1" stop-color="#EB424C"/>
</linearGradient>
<linearGradient id="paint10_linear_454_4435" x1="20.053" y1="11.8404" x2="49.9483" y2="23.3547" gradientUnits="userSpaceOnUse">
<stop stop-color="#F24242"/>
<stop offset="1" stop-color="#EB424C"/>
</linearGradient>
<linearGradient id="paint11_linear_454_4435" x1="15.0963" y1="13.3518" x2="19.9794" y2="15.2325" gradientUnits="userSpaceOnUse">
<stop stop-color="#42A3F2"/>
<stop offset="1" stop-color="#42A4EB"/>
</linearGradient>
<linearGradient id="paint12_linear_454_4435" x1="16.1778" y1="6.75532" x2="20.4627" y2="6.92036" gradientUnits="userSpaceOnUse">
<stop stop-color="#F24242"/>
<stop offset="1" stop-color="#EB424C"/>
</linearGradient>
<linearGradient id="paint13_linear_454_4435" x1="28.1463" y1="18.1186" x2="36.7022" y2="32.9085" gradientUnits="userSpaceOnUse">
<stop stop-color="#D63030"/>
<stop offset="1" stop-color="#D22966"/>
</linearGradient>
</defs>
</svg>
