<svg width="70" height="71" viewBox="0 0 70 71" fill="none" xmlns="http://www.w3.org/2000/svg">
<path d="M35.2122 20.093L37.614 22.4949L35.7007 24.4082L33.2988 22.0063L35.2122 20.093Z" fill="url(#paint0_linear_455_4513)"/>
<path d="M47.8609 36.572L45.459 34.1702L47.3723 32.2568L49.7742 34.6587L47.8609 36.572Z" fill="url(#paint1_linear_455_4513)"/>
<path d="M37.2493 16.7169L27.3924 6.86004C26.898 6.36566 26.0945 6.36566 25.6001 6.86004L19.3278 13.1323C18.8334 13.6267 18.8334 14.4302 19.3278 14.9246L29.1847 24.7815C29.6791 25.2759 30.4826 25.2759 30.977 24.7815L37.2493 18.5092C37.7451 18.0148 37.7451 17.2127 37.2493 16.7169Z" fill="url(#paint2_linear_455_4513)"/>
<path d="M32.3222 13.5815L30.5299 11.7892C30.282 11.5413 29.8809 11.5413 29.6345 11.7892L27.8422 13.5815C27.5943 13.8294 27.5943 14.2305 27.8422 14.4769L29.6345 16.2692C29.8824 16.5171 30.2834 16.5171 30.5299 16.2692L32.3222 14.4769C32.5701 14.2305 32.5701 13.8294 32.3222 13.5815Z" fill="url(#paint3_linear_455_4513)"/>
<path d="M32.3222 13.5815L30.5299 11.7892C30.282 11.5413 29.8809 11.5413 29.6345 11.7892L27.8422 13.5815C27.5943 13.8294 27.5943 14.2305 27.8422 14.4769L29.6345 16.2692C29.8824 16.5171 30.2834 16.5171 30.5299 16.2692L32.3222 14.4769C32.5701 14.2305 32.5701 13.8294 32.3222 13.5815Z" fill="url(#paint4_linear_455_4513)"/>
<path d="M35.9062 17.166L34.1139 15.3737C33.866 15.1258 33.4649 15.1258 33.2185 15.3737L31.4262 17.166C31.1783 17.4139 31.1783 17.8149 31.4262 18.0614L33.2185 19.8537C33.4664 20.1016 33.8674 20.1016 34.1139 19.8537L35.9062 18.0614C36.1526 17.8135 36.1526 17.4124 35.9062 17.166Z" fill="url(#paint5_linear_455_4513)"/>
<path d="M35.9062 17.166L34.1139 15.3737C33.866 15.1258 33.4649 15.1258 33.2185 15.3737L31.4262 17.166C31.1783 17.4139 31.1783 17.8149 31.4262 18.0614L33.2185 19.8537C33.4664 20.1016 33.8674 20.1016 34.1139 19.8537L35.9062 18.0614C36.1526 17.8135 36.1526 17.4124 35.9062 17.166Z" fill="url(#paint6_linear_455_4513)"/>
<path d="M28.7362 9.99703L26.944 8.20474C26.696 7.95682 26.295 7.95682 26.0485 8.20474L24.2562 9.99703C24.0083 10.2449 24.0083 10.646 24.2562 10.8924L26.0485 12.6847C26.2965 12.9327 26.6975 12.9327 26.944 12.6847L28.7362 10.8924C28.9842 10.646 28.9842 10.2449 28.7362 9.99703Z" fill="url(#paint7_linear_455_4513)"/>
<path d="M28.7362 17.166L26.944 15.3737C26.696 15.1258 26.295 15.1258 26.0485 15.3737L24.2562 17.166C24.0083 17.4139 24.0083 17.8149 24.2562 18.0614L26.0485 19.8537C26.2965 20.1016 26.6975 20.1016 26.944 19.8537L28.7362 18.0614C28.9842 17.8135 28.9842 17.4124 28.7362 17.166Z" fill="url(#paint8_linear_455_4513)"/>
<path d="M28.7362 17.166L26.944 15.3737C26.696 15.1258 26.295 15.1258 26.0485 15.3737L24.2562 17.166C24.0083 17.4139 24.0083 17.8149 24.2562 18.0614L26.0485 19.8537C26.2965 20.1016 26.6975 20.1016 26.944 19.8537L28.7362 18.0614C28.9842 17.8135 28.9842 17.4124 28.7362 17.166Z" fill="url(#paint9_linear_455_4513)"/>
<path d="M32.3222 20.7492L30.5299 18.9569C30.282 18.709 29.8809 18.709 29.6345 18.9569L27.8422 20.7492C27.5943 20.9971 27.5943 21.3982 27.8422 21.6446L29.6345 23.4369C29.8824 23.6848 30.2834 23.6848 30.5299 23.4369L32.3222 21.6446C32.5701 21.3982 32.5701 20.9971 32.3222 20.7492Z" fill="url(#paint10_linear_455_4513)"/>
<path d="M32.3222 20.7492L30.5299 18.9569C30.282 18.709 29.8809 18.709 29.6345 18.9569L27.8422 20.7492C27.5943 20.9971 27.5943 21.3982 27.8422 21.6446L29.6345 23.4369C29.8824 23.6848 30.2834 23.6848 30.5299 23.4369L32.3222 21.6446C32.5701 21.3982 32.5701 20.9971 32.3222 20.7492Z" fill="url(#paint11_linear_455_4513)"/>
<path d="M25.1528 13.5815L23.3619 11.7892C23.114 11.5413 22.713 11.5413 22.4665 11.7892L20.6742 13.5815C20.4263 13.8294 20.4263 14.2305 20.6742 14.4769L22.4665 16.2692C22.7144 16.5171 23.1155 16.5171 23.3619 16.2692L25.1542 14.4769C25.4007 14.2305 25.4007 13.8294 25.1528 13.5815Z" fill="url(#paint12_linear_455_4513)"/>
<path d="M63.2356 42.703L53.3787 32.8461C52.8844 32.3517 52.0808 32.3517 51.5864 32.8461L45.3141 39.1184C44.8198 39.6128 44.8198 40.4163 45.3141 40.9107L55.171 50.7676C55.6654 51.262 56.4689 51.262 56.9633 50.7676L63.2356 44.4953C63.7314 44.0009 63.7314 43.1988 63.2356 42.703Z" fill="url(#paint13_linear_455_4513)"/>
<path d="M58.3085 39.5676L56.5162 37.7753C56.2683 37.5274 55.8673 37.5274 55.6208 37.7753L53.8285 39.5676C53.5806 39.8155 53.5806 40.2165 53.8285 40.463L55.6208 42.2553C55.8687 42.5032 56.2698 42.5032 56.5162 42.2553L58.3085 40.463C58.5564 40.2165 58.5564 39.8155 58.3085 39.5676Z" fill="url(#paint14_linear_455_4513)"/>
<path d="M61.8925 43.1521L60.1002 41.3598C59.8523 41.1118 59.4513 41.1118 59.2048 41.3598L57.4125 43.1521C57.1646 43.4 57.1646 43.801 57.4125 44.0475L59.2048 45.8398C59.4527 46.0877 59.8538 46.0877 60.1002 45.8398L61.8925 44.0475C62.1404 43.7996 62.1404 43.3985 61.8925 43.1521Z" fill="url(#paint15_linear_455_4513)"/>
<path d="M54.7226 35.9831L52.9303 34.1908C52.6824 33.9429 52.2813 33.9429 52.0349 34.1908L50.2426 35.9831C49.9947 36.231 49.9947 36.6321 50.2426 36.8785L52.0349 38.6708C52.2828 38.9187 52.6838 38.9187 52.9303 38.6708L54.7226 36.8785C54.9705 36.6321 54.9705 36.231 54.7226 35.9831Z" fill="url(#paint16_linear_455_4513)"/>
<path d="M54.7226 43.1521L52.9303 41.3598C52.6824 41.1118 52.2813 41.1118 52.0349 41.3598L50.2426 43.1521C49.9947 43.4 49.9947 43.801 50.2426 44.0475L52.0349 45.8398C52.2828 46.0877 52.6838 46.0877 52.9303 45.8398L54.7226 44.0475C54.9705 43.7996 54.9705 43.3985 54.7226 43.1521Z" fill="url(#paint17_linear_455_4513)"/>
<path d="M58.3085 46.7353L56.5162 44.943C56.2683 44.6951 55.8673 44.6951 55.6208 44.943L53.8285 46.7353C53.5806 46.9832 53.5806 47.3843 53.8285 47.6307L55.6208 49.423C55.8687 49.6709 56.2698 49.6709 56.5162 49.423L58.3085 47.6307C58.5564 47.3843 58.5564 46.9832 58.3085 46.7353Z" fill="url(#paint18_linear_455_4513)"/>
<path d="M51.1386 39.5676L49.3463 37.7753C49.0984 37.5274 48.6973 37.5274 48.4509 37.7753L46.6586 39.5676C46.4107 39.8155 46.4107 40.2165 46.6586 40.463L48.4509 42.2553C48.6988 42.5032 49.0998 42.5032 49.3463 42.2553L51.1386 40.463C51.3865 40.2165 51.3865 39.8155 51.1386 39.5676Z" fill="url(#paint19_linear_455_4513)"/>
<path d="M33.9018 49.213C36.4452 45.5628 36.0966 40.5111 32.8416 37.2561C29.5866 34.0011 24.535 33.6526 20.8848 36.1959L33.9018 49.213Z" fill="url(#paint20_linear_455_4513)"/>
<path d="M28.7303 44.0403L24.4005 44.7622C23.9586 44.8365 23.6596 45.2536 23.734 45.6955C23.8069 46.1359 24.224 46.4378 24.6673 46.362L30.139 45.4505L28.7303 44.0403Z" fill="url(#paint21_linear_455_4513)"/>
<path d="M26.0561 41.3672L24.6474 39.9585L23.7359 45.4302C23.6615 45.872 23.962 46.2891 24.4024 46.3635C24.8472 46.4364 25.2613 46.1375 25.3357 45.697L26.0561 41.3672Z" fill="url(#paint22_linear_455_4513)"/>
<path d="M36.3532 40.9122L29.1841 33.7431C28.1939 32.7529 28.1939 31.1487 29.1841 30.1585L42.6255 16.717C43.6157 15.7268 45.2199 15.7268 46.2101 16.717L53.3793 23.8862C54.3695 24.8764 54.3695 26.4806 53.3793 27.4708L39.9378 40.9122C38.9476 41.901 37.3434 41.901 36.3532 40.9122Z" fill="url(#paint23_linear_455_4513)"/>
<path d="M14.2599 45.3059C14.8418 45.3059 15.3129 45.7784 15.3129 46.3588C15.3129 51.0051 19.0929 54.7851 23.7391 54.7851C24.321 54.7851 24.792 55.2576 24.792 55.838C24.792 56.4199 24.3195 56.8909 23.7391 56.8909C17.932 56.8909 13.207 52.1659 13.207 46.3588C13.207 45.7784 13.6781 45.3059 14.2599 45.3059Z" fill="url(#paint24_linear_455_4513)"/>
<path d="M6.8869 45.3059C7.46878 45.3059 7.93982 45.7784 7.93982 46.3588C7.93982 55.0709 15.0273 62.1569 23.7379 62.1569C24.3198 62.1569 24.7909 62.6295 24.7909 63.2099C24.7909 63.7903 24.3198 64.2642 23.7394 64.2642C13.8665 64.2642 5.83398 56.2317 5.83398 46.3588C5.83398 45.7784 6.30648 45.3059 6.8869 45.3059Z" fill="url(#paint25_linear_455_4513)"/>
<defs>
<linearGradient id="paint0_linear_455_4513" x1="34.2553" y1="21.0488" x2="36.6575" y2="23.4511" gradientUnits="userSpaceOnUse">
<stop stop-color="#484B4F"/>
<stop offset="0.23" stop-color="#656D75"/>
<stop offset="0.367" stop-color="#727D86"/>
</linearGradient>
<linearGradient id="paint1_linear_455_4513" x1="48.8216" y1="35.6169" x2="46.4193" y2="33.2147" gradientUnits="userSpaceOnUse">
<stop stop-color="#484B4F"/>
<stop offset="0.23" stop-color="#656D75"/>
<stop offset="0.367" stop-color="#727D86"/>
</linearGradient>
<linearGradient id="paint2_linear_455_4513" x1="22.4653" y1="9.99523" x2="34.1141" y2="21.644" gradientUnits="userSpaceOnUse">
<stop stop-color="#D63030"/>
<stop offset="1" stop-color="#D22947"/>
</linearGradient>
<linearGradient id="paint3_linear_455_4513" x1="28.7386" y1="12.6835" x2="31.4268" y2="15.3718" gradientUnits="userSpaceOnUse">
<stop stop-color="#42A3F2"/>
<stop offset="1" stop-color="#42A4EB"/>
</linearGradient>
<linearGradient id="paint4_linear_455_4513" x1="28.7383" y1="12.6841" x2="31.4265" y2="15.3723" gradientUnits="userSpaceOnUse">
<stop stop-color="#F24242"/>
<stop offset="1" stop-color="#EB4242"/>
</linearGradient>
<linearGradient id="paint5_linear_455_4513" x1="32.3222" y1="16.2676" x2="35.0104" y2="18.9558" gradientUnits="userSpaceOnUse">
<stop stop-color="#42A3F2"/>
<stop offset="1" stop-color="#42A4EB"/>
</linearGradient>
<linearGradient id="paint6_linear_455_4513" x1="32.3221" y1="16.2686" x2="35.0103" y2="18.9562" gradientUnits="userSpaceOnUse">
<stop stop-color="#F24242"/>
<stop offset="1" stop-color="#EB4242"/>
</linearGradient>
<linearGradient id="paint7_linear_455_4513" x1="25.1524" y1="9.09966" x2="27.8406" y2="11.7879" gradientUnits="userSpaceOnUse">
<stop stop-color="#F24242"/>
<stop offset="1" stop-color="#EB4242"/>
</linearGradient>
<linearGradient id="paint8_linear_455_4513" x1="25.153" y1="16.2677" x2="27.8412" y2="18.9559" gradientUnits="userSpaceOnUse">
<stop stop-color="#42A3F2"/>
<stop offset="1" stop-color="#42A4EB"/>
</linearGradient>
<linearGradient id="paint9_linear_455_4513" x1="25.1524" y1="16.2686" x2="27.8406" y2="18.9568" gradientUnits="userSpaceOnUse">
<stop stop-color="#F24242"/>
<stop offset="1" stop-color="#EB4242"/>
</linearGradient>
<linearGradient id="paint10_linear_455_4513" x1="28.7385" y1="19.8521" x2="31.4267" y2="22.5403" gradientUnits="userSpaceOnUse">
<stop stop-color="#42A3F2"/>
<stop offset="1" stop-color="#42A4EB"/>
</linearGradient>
<linearGradient id="paint11_linear_455_4513" x1="28.7383" y1="19.8519" x2="31.4265" y2="22.5401" gradientUnits="userSpaceOnUse">
<stop stop-color="#F24242"/>
<stop offset="1" stop-color="#EB4242"/>
</linearGradient>
<linearGradient id="paint12_linear_455_4513" x1="21.5701" y1="12.6841" x2="24.2583" y2="15.3716" gradientUnits="userSpaceOnUse">
<stop stop-color="#F24242"/>
<stop offset="1" stop-color="#EB4242"/>
</linearGradient>
<linearGradient id="paint13_linear_455_4513" x1="48.4516" y1="35.9813" x2="60.1004" y2="47.6301" gradientUnits="userSpaceOnUse">
<stop stop-color="#D63030"/>
<stop offset="1" stop-color="#D22947"/>
</linearGradient>
<linearGradient id="paint14_linear_455_4513" x1="54.7246" y1="38.6702" x2="57.4129" y2="41.3584" gradientUnits="userSpaceOnUse">
<stop stop-color="#F24242"/>
<stop offset="1" stop-color="#EB4242"/>
</linearGradient>
<linearGradient id="paint15_linear_455_4513" x1="58.3086" y1="42.2547" x2="60.9968" y2="44.9429" gradientUnits="userSpaceOnUse">
<stop stop-color="#F24242"/>
<stop offset="1" stop-color="#EB4242"/>
</linearGradient>
<linearGradient id="paint16_linear_455_4513" x1="51.1387" y1="35.0857" x2="53.8269" y2="37.7739" gradientUnits="userSpaceOnUse">
<stop stop-color="#F24242"/>
<stop offset="1" stop-color="#EB4242"/>
</linearGradient>
<linearGradient id="paint17_linear_455_4513" x1="51.1387" y1="42.2547" x2="53.8269" y2="44.9429" gradientUnits="userSpaceOnUse">
<stop stop-color="#F24242"/>
<stop offset="1" stop-color="#EB4242"/>
</linearGradient>
<linearGradient id="paint18_linear_455_4513" x1="54.7246" y1="45.8379" x2="57.4129" y2="48.5261" gradientUnits="userSpaceOnUse">
<stop stop-color="#F24242"/>
<stop offset="1" stop-color="#EB4242"/>
</linearGradient>
<linearGradient id="paint19_linear_455_4513" x1="47.5547" y1="38.6702" x2="50.2429" y2="41.3584" gradientUnits="userSpaceOnUse">
<stop stop-color="#F24242"/>
<stop offset="1" stop-color="#EB4242"/>
</linearGradient>
<linearGradient id="paint20_linear_455_4513" x1="32.7444" y1="29.445" x2="27.9971" y2="41.5133" gradientUnits="userSpaceOnUse">
<stop stop-color="#A1AAB3"/>
<stop offset="1" stop-color="#8F979E"/>
</linearGradient>
<linearGradient id="paint21_linear_455_4513" x1="29.09" y1="43.1787" x2="25.0112" y2="47.2575" gradientUnits="userSpaceOnUse">
<stop stop-color="#484B4F"/>
<stop offset="0.23" stop-color="#656D75"/>
<stop offset="0.367" stop-color="#727D86"/>
</linearGradient>
<linearGradient id="paint22_linear_455_4513" x1="26.9167" y1="41.0065" x2="22.8378" y2="45.0853" gradientUnits="userSpaceOnUse">
<stop stop-color="#484B4F"/>
<stop offset="0.23" stop-color="#656D75"/>
<stop offset="0.367" stop-color="#727D86"/>
</linearGradient>
<linearGradient id="paint23_linear_455_4513" x1="45.7997" y1="11.7466" x2="37.5636" y2="42.8608" gradientUnits="userSpaceOnUse">
<stop stop-color="#889097"/>
<stop offset="0.331" stop-color="#848C94"/>
<stop offset="0.669" stop-color="#78828B"/>
<stop offset="1" stop-color="#64717C"/>
</linearGradient>
<linearGradient id="paint24_linear_455_4513" x1="24.792" y1="51.0987" x2="13.2064" y2="51.0987" gradientUnits="userSpaceOnUse">
<stop stop-color="#D63030"/>
<stop offset="1" stop-color="#D22947"/>
</linearGradient>
<linearGradient id="paint25_linear_455_4513" x1="24.7909" y1="54.7856" x2="5.83303" y2="54.7856" gradientUnits="userSpaceOnUse">
<stop stop-color="#D63030"/>
<stop offset="1" stop-color="#D22947"/>
</linearGradient>
</defs>
</svg>
