<svg width="70" height="71" viewBox="0 0 70 71" fill="none" xmlns="http://www.w3.org/2000/svg">
<g clip-path="url(#clip0_454_4328)">
<path d="M1.45898 58.4309H68.5423V55.5142C68.5423 54.7092 67.889 54.0559 67.084 54.0559H2.91732C2.11232 54.0559 1.45898 54.7092 1.45898 55.5142V58.4309Z" fill="#D25A5A"/>
<path d="M4.375 54.0559H65.625V51.1392C65.625 50.3342 64.9717 49.6809 64.1667 49.6809H5.83333C5.02833 49.6809 4.375 50.3342 4.375 51.1392V54.0559Z" fill="url(#paint0_linear_454_4328)"/>
<path d="M63.213 17.6882L35.5047 7.47982C35.1809 7.36024 34.8222 7.36024 34.497 7.47982L6.78863 17.6882C6.12508 17.9332 5.73279 18.6157 5.85675 19.3127C5.98071 20.0069 6.58592 20.5144 7.29175 20.5144H62.7084C63.4143 20.5144 64.0195 20.0069 64.1449 19.3127C64.2688 18.6171 63.8765 17.9332 63.213 17.6882Z" fill="url(#paint1_linear_454_4328)"/>
<path d="M35.0007 17.5977C36.6115 17.5977 37.9173 16.2919 37.9173 14.6811C37.9173 13.0702 36.6115 11.7644 35.0007 11.7644C33.3898 11.7644 32.084 13.0702 32.084 14.6811C32.084 16.2919 33.3898 17.5977 35.0007 17.5977Z" fill="#C35959"/>
<path d="M55.4173 20.5144H14.584V49.6811H55.4173V20.5144Z" fill="url(#paint2_linear_454_4328)"/>
<path d="M45.2083 23.4309H39.375V46.7642H45.2083V23.4309Z" fill="#C35959"/>
<path d="M59.7923 23.4309H53.959V46.7642H59.7923V23.4309Z" fill="#C35959"/>
<path d="M30.6243 23.4309H24.791V46.7642H30.6243V23.4309Z" fill="#C35959"/>
<path d="M16.0423 23.4309H10.209V46.7642H16.0423V23.4309Z" fill="#C35959"/>
<path d="M45.2077 46.7644H39.3743C38.5693 46.7644 37.916 47.4177 37.916 48.2227V49.6811H46.666V48.2227C46.666 47.4177 46.0127 46.7644 45.2077 46.7644Z" fill="#D25A5A"/>
<path d="M59.7917 46.7644H53.9583C53.1533 46.7644 52.5 47.4177 52.5 48.2227V49.6811H61.25V48.2227C61.25 47.4177 60.5967 46.7644 59.7917 46.7644Z" fill="#D25A5A"/>
<path d="M30.6257 46.7644H24.7923C23.9873 46.7644 23.334 47.4177 23.334 48.2227V49.6811H32.084V48.2227C32.084 47.4177 31.4307 46.7644 30.6257 46.7644Z" fill="#D25A5A"/>
<path d="M16.0417 46.7644H10.2083C9.40333 46.7644 8.75 47.4177 8.75 48.2227V49.6811H17.5V48.2227C17.5 47.4177 16.8467 46.7644 16.0417 46.7644Z" fill="#D25A5A"/>
<path d="M46.666 20.5144H37.916V21.9727C37.916 22.7777 38.5693 23.4311 39.3743 23.4311H45.2077C46.0127 23.4311 46.666 22.7777 46.666 21.9727V20.5144Z" fill="#D25A5A"/>
<path d="M61.25 20.5144H52.5V21.9727C52.5 22.7777 53.1533 23.4311 53.9583 23.4311H59.7917C60.5967 23.4311 61.25 22.7777 61.25 21.9727V20.5144Z" fill="#D25A5A"/>
<path d="M32.084 20.5144H23.334V21.9727C23.334 22.7777 23.9873 23.4311 24.7923 23.4311H30.6257C31.4307 23.4311 32.084 22.7777 32.084 21.9727V20.5144Z" fill="#D25A5A"/>
<path d="M17.5 20.5144H8.75V21.9727C8.75 22.7777 9.40333 23.4311 10.2083 23.4311H16.0417C16.8467 23.4311 17.5 22.7777 17.5 21.9727V20.5144Z" fill="#D25A5A"/>
<path opacity="0.05" d="M61.2493 58.431V48.2227H41.2891C39.4298 48.2227 37.916 49.7102 37.916 51.536V58.431H61.2493Z" fill="black"/>
<path opacity="0.07" d="M61.2507 58.4311V48.9519H41.2904C39.8321 48.9519 38.6465 50.1113 38.6465 51.5361V58.4311H61.2507Z" fill="black"/>
<path d="M68.0852 70.0976H41.2883C40.231 70.0976 39.375 69.2663 39.375 68.2411V51.5374C39.375 50.5122 40.231 49.6809 41.2883 49.6809H68.0852C69.144 49.6809 70 50.5122 70 51.5374V68.2426C70 69.2663 69.144 70.0976 68.0852 70.0976Z" fill="url(#paint3_linear_454_4328)"/>
<path d="M70 52.5977H39.375V56.9727H70V52.5977Z" fill="url(#paint4_linear_454_4328)" fill-opacity="0.8"/>
</g>
<defs>
<linearGradient id="paint0_linear_454_4328" x1="4.375" y1="51.8684" x2="65.625" y2="51.8684" gradientUnits="userSpaceOnUse">
<stop stop-color="#EB7B7B"/>
<stop offset="1" stop-color="#C35959"/>
</linearGradient>
<linearGradient id="paint1_linear_454_4328" x1="5.834" y1="13.9522" x2="64.1676" y2="13.9522" gradientUnits="userSpaceOnUse">
<stop stop-color="#EB7B7B"/>
<stop offset="1" stop-color="#C35959"/>
</linearGradient>
<linearGradient id="paint2_linear_454_4328" x1="14.584" y1="35.0977" x2="55.4173" y2="35.0977" gradientUnits="userSpaceOnUse">
<stop stop-color="#A43939"/>
<stop offset="1" stop-color="#912929"/>
</linearGradient>
<linearGradient id="paint3_linear_454_4328" x1="48.5591" y1="48.4366" x2="58.8753" y2="68.2905" gradientUnits="userSpaceOnUse">
<stop stop-color="#F44F4F"/>
<stop offset="0.4429" stop-color="#EE3D3D"/>
<stop offset="1" stop-color="#FC0E1C"/>
</linearGradient>
<linearGradient id="paint4_linear_454_4328" x1="39.375" y1="54.7852" x2="70" y2="54.7852" gradientUnits="userSpaceOnUse">
<stop stop-color="#383232"/>
<stop offset="1" stop-color="#796D6D"/>
</linearGradient>
<clipPath id="clip0_454_4328">
<rect width="70" height="70" fill="white" transform="translate(0 0.0976562)"/>
</clipPath>
</defs>
</svg>
