<svg width="70" height="71" viewBox="0 0 70 71" fill="none" xmlns="http://www.w3.org/2000/svg">
<path d="M16.0417 35.0977V61.3477C16.0417 61.7345 15.888 62.1054 15.6145 62.3789C15.341 62.6524 14.9701 62.8061 14.5833 62.8061C14.1966 62.8061 13.8256 62.6524 13.5521 62.3789C13.2786 62.1054 13.125 61.7345 13.125 61.3477V35.0977C13.125 34.711 13.2786 34.34 13.5521 34.0665C13.8256 33.793 14.1966 33.6394 14.5833 33.6394C14.9701 33.6394 15.341 33.793 15.6145 34.0665C15.888 34.34 16.0417 34.711 16.0417 35.0977Z" fill="#889097"/>
<path d="M51.0399 58.431C50.7031 58.4306 50.3768 58.3137 50.1164 58.1C49.856 57.8864 49.6776 57.5892 49.6115 57.2589L44.0132 29.2643H40.5696L34.9712 57.2589C34.8943 57.6372 34.6706 57.9695 34.3491 58.1831C34.0275 58.3967 33.6345 58.474 33.256 58.3983C32.8775 58.3225 32.5445 58.0998 32.3299 57.7789C32.1154 57.458 32.0369 57.0651 32.1115 56.6864L37.9449 27.5197C38.0111 27.1892 38.1897 26.8919 38.4504 26.6782C38.711 26.4645 39.0377 26.3477 39.3747 26.3477H45.208C45.5451 26.3477 45.8717 26.4645 46.1324 26.6782C46.3931 26.8919 46.5717 27.1892 46.6379 27.5197L52.4712 56.6864C52.547 57.0656 52.4691 57.4594 52.2547 57.7812C52.0402 58.103 51.7068 58.3265 51.3276 58.4025C51.2329 58.4214 51.1365 58.4309 51.0399 58.431Z" fill="#64717C"/>
<path d="M33.5417 58.4309C33.2433 58.4308 32.9521 58.3391 32.7075 58.1683C32.4628 57.9975 32.2764 57.7557 32.1735 57.4757C32.0706 57.1956 32.056 56.8907 32.1318 56.6021C32.2076 56.3135 32.3702 56.0551 32.5975 55.8618L45.976 44.4899L37.2502 35.7641C36.9808 35.4898 36.8307 35.1202 36.8324 34.7357C36.8342 34.3513 36.9877 33.9831 37.2595 33.7113C37.5313 33.4394 37.8995 33.2859 38.284 33.2842C38.6684 33.2825 39.038 33.4326 39.3123 33.702L49.156 43.5457C49.2985 43.6881 49.4098 43.8585 49.4831 44.0461C49.5564 44.2337 49.59 44.4345 49.5819 44.6357C49.5737 44.837 49.5239 45.0343 49.4357 45.2154C49.3474 45.3964 49.2227 45.5572 49.0692 45.6876L34.4858 58.0835C34.2227 58.3084 33.8878 58.4316 33.5417 58.4309Z" fill="#64717C"/>
<path d="M51.0414 58.4309C50.6952 58.4316 50.3603 58.3084 50.0972 58.0834L35.5138 45.6861C35.3604 45.5557 35.2356 45.3949 35.1474 45.2139C35.0591 45.0328 35.0094 44.8355 35.0012 44.6342C34.993 44.433 35.0267 44.2322 35.1 44.0446C35.1732 43.8571 35.2846 43.6867 35.427 43.5443L45.2708 33.702C45.5451 33.4326 45.9146 33.2825 46.2991 33.2842C46.6835 33.2859 47.0517 33.4394 47.3236 33.7113C47.5954 33.9831 47.7489 34.3513 47.7506 34.7357C47.7524 35.1202 47.6022 35.4898 47.3329 35.7641L38.6071 44.4884L51.9856 55.8617C52.2129 56.055 52.3754 56.3134 52.4512 56.602C52.527 56.8906 52.5125 57.1955 52.4096 57.4756C52.3066 57.7557 52.1203 57.9975 51.8756 58.1683C51.631 58.3391 51.3398 58.4308 51.0414 58.4309Z" fill="#64717C"/>
<path d="M64.0783 34.2809L63.072 37.0226C63.0066 37.2021 62.9063 37.3669 62.7769 37.5075C62.6474 37.6481 62.4914 37.7616 62.3179 37.8416C62.1444 37.9216 61.9567 37.9664 61.7658 37.9735C61.5748 37.9806 61.3843 37.9499 61.2053 37.883L22.5449 23.7226L21.8449 23.4601L21.1303 23.1976L18.8262 22.3517L20.8241 16.8684L23.3324 17.7872L24.0616 18.0497L24.7908 18.3267L63.2033 32.4142C63.3835 32.479 63.5492 32.5788 63.6908 32.7078C63.8324 32.8368 63.9471 32.9924 64.0284 33.1659C64.1097 33.3393 64.156 33.5271 64.1645 33.7184C64.1731 33.9098 64.1438 34.1009 64.0783 34.2809Z" fill="#889097"/>
<path d="M14.0139 39.4726C13.7128 39.4722 13.4153 39.4074 13.1412 39.2827C12.8672 39.1581 12.6229 38.9763 12.4247 38.7497C8.90834 34.4372 7.08344 28.9914 7.29139 23.431C7.15763 19.6326 8.29553 15.8983 10.5247 12.8199C12.7539 9.74155 15.9468 7.49534 19.5973 6.43734C20.0326 6.31417 20.4905 6.29325 20.9352 6.3762C21.3799 6.45916 21.7994 6.64374 22.161 6.91555C22.5227 7.18736 22.8166 7.53905 23.0199 7.94318C23.2232 8.3473 23.3304 8.79294 23.3331 9.24531V19.3697C23.3339 20.0737 23.0788 20.754 22.6154 21.284C18.7631 25.8587 16.4813 31.5494 16.1062 37.5182C16.07 38.0485 15.8338 38.5452 15.4454 38.908C15.057 39.2708 14.5454 39.4726 14.0139 39.4726Z" fill="url(#paint0_linear_454_4350)"/>
<path d="M55.4186 58.431C55.3576 58.4311 55.2968 58.4272 55.2363 58.4196C54.8526 58.3716 54.5036 58.1731 54.2662 57.8678C54.0288 57.5626 53.9223 57.1755 53.9702 56.7918L56.8869 33.4585C56.9355 33.0752 57.1341 32.7269 57.4392 32.49C57.7444 32.2531 58.131 32.1469 58.5143 32.1949C58.8977 32.2428 59.2463 32.4408 59.4838 32.7455C59.7212 33.0502 59.828 33.4367 59.7808 33.8201L56.8641 57.1535C56.8199 57.5059 56.6487 57.83 56.3826 58.0652C56.1165 58.3004 55.7737 58.4305 55.4186 58.431Z" fill="#64717C"/>
<path d="M30.6257 55.5144H56.8756C57.6492 55.5144 58.3911 55.8217 58.938 56.3687C59.485 56.9157 59.7923 57.6575 59.7923 58.4311V62.8061H27.709V58.4311C27.709 57.6575 28.0163 56.9157 28.5633 56.3687C29.1102 55.8217 29.8521 55.5144 30.6257 55.5144Z" fill="#889097"/>
<g opacity="0.05">
<path d="M24.0625 18.0499L23.3333 17.7874V19.3769C23.334 20.0792 23.0801 20.7579 22.6188 21.2874C22.0853 21.894 21.5886 22.5319 21.1312 23.1978L21.8458 23.4603L22.5458 23.7228C22.9833 23.1103 23.3917 22.5999 23.7125 22.2353C24.4098 21.4466 24.7938 20.4297 24.7917 19.3769V18.3269L24.0625 18.0499ZM14.0146 39.4728C13.7066 39.4711 13.4029 39.4014 13.125 39.2686V40.8144C13.4156 40.8899 13.7144 40.9291 14.0146 40.9311C14.7381 40.9313 15.4447 40.7127 16.0417 40.304V37.9124C15.9234 38.3597 15.6605 38.7554 15.2938 39.0377C14.9271 39.3199 14.4773 39.4729 14.0146 39.4728Z" fill="black"/>
</g>
<g opacity="0.07">
<path d="M23.3333 17.7874V19.3769C23.334 20.0792 23.0801 20.7579 22.6188 21.2874C22.0853 21.894 21.5886 22.5319 21.1312 23.1978L21.8458 23.4603C22.2583 22.8736 22.7013 22.3089 23.1729 21.7686C23.7433 21.1019 24.0585 20.2543 24.0625 19.3769V18.0499L23.3333 17.7874ZM14.0146 39.4728C13.7066 39.4711 13.4029 39.4014 13.125 39.2686V40.0561C13.4107 40.1564 13.7118 40.2057 14.0146 40.2019C14.3932 40.2039 14.7682 40.1285 15.1168 39.9806C15.4653 39.8327 15.78 39.6152 16.0417 39.3415V37.9124C15.9234 38.3597 15.6605 38.7554 15.2938 39.0377C14.9271 39.3199 14.4773 39.4729 14.0146 39.4728Z" fill="black"/>
</g>
<defs>
<linearGradient id="paint0_linear_454_4350" x1="21.4366" y1="3.09068" x2="7.25028" y2="42.0672" gradientUnits="userSpaceOnUse">
<stop stop-color="#F42A5A"/>
<stop offset="1" stop-color="#D90000"/>
<stop offset="1" stop-color="#D30000"/>
</linearGradient>
</defs>
</svg>
