<svg width="72" height="72" viewBox="0 0 72 72" fill="none" xmlns="http://www.w3.org/2000/svg">
    <path d="M57.1437 21.1244C59.2691 24.1689 60.7073 27.639 61.3587 31.2944H69.3337V40.3844H61.3587C60.7073 44.0398 59.2691 47.51 57.1437 50.5544L62.7853 56.1961L56.357 62.6244L50.7153 56.9828C47.6709 59.1082 44.2007 60.5464 40.5453 61.1978V69.1728H31.4553V61.1978C27.7999 60.5464 24.3298 59.1082 21.2853 56.9828L15.6437 62.6244L9.21533 56.1961L14.857 50.5544C12.7316 47.51 11.2933 44.0398 10.642 40.3844H2.66699V31.2944H10.642C11.2933 27.639 12.7316 24.1689 14.857 21.1244L9.21533 15.4828L15.6437 9.05444L21.2853 14.6961C24.3298 12.5707 27.7999 11.1325 31.4553 10.4811V2.5061H40.5453V10.4811C44.2007 11.1325 47.6709 12.5707 50.7153 14.6961L56.357 9.05444L62.7853 15.4828L57.1437 21.1244Z" stroke="#E9000E" stroke-width="4" stroke-linejoin="round"/>
    <path d="M36.0003 44.1728C38.2105 44.1728 40.3301 43.2948 41.8929 41.732C43.4557 40.1692 44.3337 38.0496 44.3337 35.8394C44.3337 33.6293 43.4557 31.5097 41.8929 29.9469C40.3301 28.3841 38.2105 27.5061 36.0003 27.5061C33.7902 27.5061 31.6706 28.3841 30.1078 29.9469C28.545 31.5097 27.667 33.6293 27.667 35.8394C27.667 38.0496 28.545 40.1692 30.1078 41.732C31.6706 43.2948 33.7902 44.1728 36.0003 44.1728Z" stroke="#E9000E" stroke-width="4" stroke-linejoin="round"/>
</svg>
