<svg width="80" height="81" viewBox="0 0 80 81" fill="none" xmlns="http://www.w3.org/2000/svg">
    <path d="M39.9997 74.1728C32.2775 72.2283 25.9019 67.7972 20.873 60.8794C15.8441 53.9617 13.3308 46.2817 13.333 37.8394V17.5061L39.9997 7.5061L66.6663 17.5061V37.8394C66.6663 46.2839 64.1519 53.965 59.123 60.8828C54.0941 67.8005 47.7197 72.2305 39.9997 74.1728ZM39.9997 67.1728C45.3886 65.5061 49.8886 62.2139 53.4997 57.2961C57.1108 52.3783 59.2219 46.8928 59.833 40.8394H39.9997V14.5894L19.9997 22.0894V39.3394C19.9997 39.7283 20.0552 40.2283 20.1663 40.8394H39.9997V67.1728Z" fill="#E9000E"/>
</svg>
