<svg width="63" height="63" viewBox="0 0 63 63" fill="none" xmlns="http://www.w3.org/2000/svg">
<g clip-path="url(#clip0_7211_68463)">
<path d="M53.884 1.52002H8.9747C4.57367 1.52002 0.994141 5.10052 0.994141 9.50252V54.4099C0.994141 58.8119 4.57367 62.3924 8.9747 62.3924H53.884C58.285 62.3924 61.8665 58.8119 61.8665 54.4099V9.50252C61.8665 5.09955 58.285 1.52002 53.884 1.52002ZM31.318 6.76871C33.1082 6.76871 34.8252 7.47989 36.0911 8.74581C37.357 10.0117 38.0682 11.7287 38.0682 13.519C38.0682 15.3092 37.357 17.0262 36.0911 18.2921C34.8252 19.558 33.1082 20.2692 31.318 20.2692C30.4219 20.2844 29.5317 20.121 28.6995 19.7886C27.8672 19.4562 27.1094 18.9614 26.4704 18.3331C25.8313 17.7047 25.3237 16.9555 24.9773 16.1289C24.6308 15.3024 24.4524 14.4152 24.4524 13.519C24.4524 12.6228 24.6308 11.7355 24.9773 10.909C25.3237 10.0825 25.8313 9.33318 26.4704 8.70486C27.1094 8.07654 27.8672 7.58174 28.6995 7.24932C29.5317 6.91691 30.4219 6.75353 31.318 6.76871ZM48.9143 51.9018C48.9143 53.5351 47.6307 54.8594 45.9974 54.8594C44.3641 54.8594 43.0418 53.5351 43.0418 51.9018V33.0286H40.5685V55.8785H22.1681V33.0286H19.721V51.9018C19.7214 52.29 19.6453 52.6744 19.4971 53.0332C19.3488 53.3919 19.1313 53.718 18.857 53.9926C18.5827 54.2673 18.257 54.4852 17.8984 54.6339C17.5399 54.7827 17.1555 54.8593 16.7673 54.8594C15.1379 54.8594 13.8524 53.5351 13.8524 51.9018V30.9691C13.8524 26.1931 18.1129 22.322 22.8898 22.322H30.4877V28.708L29.0278 29.111V27.5222C29.0278 26.5729 28.1589 25.7107 26.5808 26.7724C24.3614 28.2721 21.9656 36.7883 24.5619 36.4531C25.8184 36.2933 26.5265 35.6849 27.9051 35.6074C29.023 35.5493 29.0278 35.0669 29.0278 34.4333C29.0298 33.7988 29.0278 31.7634 29.0278 31.7634V30.7714L30.4877 30.3665V39.3439C30.4897 39.3439 30.5129 39.9726 29.9181 39.9726H29.3068C29.2952 39.9726 29.2855 39.9668 29.2739 39.9668H27.4769C26.7078 39.9683 25.9708 40.2747 25.4273 40.8188C24.8838 41.3628 24.5782 42.1002 24.5774 42.8692C24.5779 43.6382 24.8835 44.3756 25.4271 44.9195C25.9707 45.4635 26.7079 45.7696 27.4769 45.7706H35.5252C35.657 45.7787 35.7807 45.8367 35.8711 45.9328C35.9615 46.0289 36.0118 46.1559 36.0118 46.2879C36.0118 46.4199 35.9615 46.5469 35.8711 46.643C35.7807 46.7391 35.657 46.7971 35.5252 46.8052H27.1979C26.5858 46.8065 25.9993 47.0505 25.5669 47.4836C25.1345 47.9167 24.8915 48.5037 24.8913 49.1157C24.892 49.7273 25.1353 50.3136 25.5676 50.7462C26 51.1787 26.5863 51.4222 27.1979 51.4232H35.5252C35.6587 51.429 35.7848 51.4861 35.8772 51.5826C35.9695 51.679 36.0211 51.8075 36.0211 51.941C36.0211 52.0746 35.9695 52.203 35.8772 52.2995C35.7848 52.396 35.6587 52.4531 35.5252 52.4588H25.7854C25.548 52.4588 25.3203 52.5531 25.1525 52.721C24.9846 52.8889 24.8903 53.1166 24.8903 53.354C24.8903 53.5914 24.9846 53.819 25.1525 53.9869C25.3203 54.1548 25.548 54.2491 25.7854 54.2491H35.5252C36.1292 54.2367 36.7042 53.9881 37.127 53.5566C37.5497 53.1251 37.7865 52.5451 37.7865 51.941C37.7865 51.337 37.5497 50.757 37.127 50.3255C36.7042 49.894 36.1292 49.6454 35.5252 49.633H27.1979C27.0604 49.633 26.9286 49.5784 26.8314 49.4812C26.7342 49.384 26.6796 49.2522 26.6796 49.1147C26.6796 48.9773 26.7342 48.8454 26.8314 48.7482C26.9286 48.651 27.0604 48.5964 27.1979 48.5964H35.5252C36.1292 48.5841 36.7042 48.3354 37.127 47.904C37.5497 47.4725 37.7865 46.8925 37.7865 46.2884C37.7865 45.6843 37.5497 45.1043 37.127 44.6728C36.7042 44.2413 36.1292 43.9927 35.5252 43.9803H27.4769C27.1819 43.9803 26.899 43.8632 26.6905 43.6546C26.4819 43.446 26.3647 43.1632 26.3647 42.8682C26.3647 42.5733 26.4819 42.2904 26.6905 42.0818C26.899 41.8733 27.1819 41.7561 27.4769 41.7561H28.836C30.0411 44.0171 33.8803 43.0009 34.5855 42.5727C37.642 40.7709 37.0229 38.5602 36.0358 37.792C34.4683 36.5781 32.277 38.0681 32.277 38.0681V30.2735C32.7159 30.383 33.2651 30.5166 33.7389 30.63V31.7644C33.7389 31.7644 33.7379 33.8007 33.7389 34.4352C33.7408 35.0698 33.7408 35.5512 34.8616 35.6094C36.2421 35.6869 36.9503 36.2952 38.2038 36.4551C40.801 36.7903 38.4063 28.274 36.182 26.7744C34.603 25.7126 33.7379 26.5748 33.7379 27.5242V28.986L32.276 28.6276V22.3249H40.2237C44.9996 22.3249 48.9124 26.196 48.9134 30.97L48.9143 51.9018Z" fill="#E9000E"/>
</g>
<defs>
<clipPath id="clip0_7211_68463">
<rect width="62" height="62" fill="white" transform="translate(0.666016 0.879639)"/>
</clipPath>
</defs>
</svg>
