<svg width="63" height="63" viewBox="0 0 63 63" fill="none" xmlns="http://www.w3.org/2000/svg">
<g clip-path="url(#clip0_7211_68483)">
<path d="M59.9928 20.8157C58.8471 19.3975 57.4321 18.22 55.8293 17.351C54.2265 16.482 52.4677 15.9387 50.654 15.7524C49.8769 11.816 47.8956 8.21837 44.9842 5.45737C42.0729 2.69637 38.3753 0.908462 34.4033 0.341024C30.4312 -0.226413 26.381 0.454673 22.813 2.29005C19.245 4.12542 16.3356 7.02435 14.4874 10.5857C13.2959 10.7274 12.1253 11.0092 10.9999 11.4253C7.9799 12.4853 5.36373 14.4572 3.5129 17.0684C1.66207 19.6796 0.667969 22.8012 0.667969 26.0018C0.667969 29.2024 1.66207 32.324 3.5129 34.9351C5.36373 37.5463 7.9799 39.5182 10.9999 40.5782V20.8157H52.3332V41.2241C55.2501 40.6272 57.8714 39.0415 59.7542 36.7351C61.6369 34.4287 62.6657 31.543 62.6665 28.5657C62.6581 25.7576 61.7177 23.0317 59.9928 20.8157ZM47.2182 56.9901C47.2182 59.8396 40.2768 62.1491 31.7182 62.1491C23.1596 62.1491 16.2182 59.8396 16.2182 56.9901V51.8338C16.2182 54.6806 23.157 56.9901 31.7182 56.9901C40.2794 56.9901 47.2182 54.6806 47.2182 51.8338" fill="#E9000E"/>
<path d="M31.7168 43.2496C23.1634 43.2496 16.2168 40.9298 16.2168 38.0933V48.3336C16.2168 51.1727 23.1634 53.4925 31.7168 53.4925C40.2702 53.4925 47.2168 51.1727 47.2168 48.3336V38.0933C47.2168 40.9298 40.2676 43.2496 31.7168 43.2496Z" fill="#E9000E"/>
<path d="M47.2168 31.1413C47.2168 28.2919 40.2754 25.9824 31.7168 25.9824C23.1582 25.9824 16.2168 28.2919 16.2168 31.1413V34.5772C16.2168 37.4292 23.1556 39.7387 31.7168 39.7387C40.278 39.7387 47.2168 37.4292 47.2168 34.5798" fill="#E9000E"/>
</g>
<defs>
<clipPath id="clip0_7211_68483">
<rect width="62" height="62" fill="white" transform="translate(0.666016 0.14917)"/>
</clipPath>
</defs>
</svg>
