<svg width="80" height="81" viewBox="0 0 80 81" fill="none" xmlns="http://www.w3.org/2000/svg">
    <path d="M50 45.8394V62.0894C50 66.8394 52.75 71.3394 57.25 73.3394L62.5 75.8394L67.75 73.3394C72 71.3394 75 66.8394 75 62.0894V45.8394H50ZM70 62.0894C70 65.0894 68.25 67.5894 65.75 68.8394L62.5 70.3394L59.25 68.8394C56.75 67.5894 55 64.8394 55 62.0894V50.8394H70V62.0894ZM40 50.8394C34.5 50.8394 30 46.3394 30 40.8394C30 35.3394 34.5 30.8394 40 30.8394C45.5 30.8394 50 35.3394 50 40.8394H45C45 38.0894 42.75 35.8394 40 35.8394C37.25 35.8394 35 38.0894 35 40.8394C35 43.5894 37.25 45.8394 40 45.8394V50.8394Z" fill="#E9000E"/>
    <path d="M40 63.3394C27.5 63.3394 17.5 53.3394 17.5 40.8394C17.5 28.3394 27.5 18.3394 40 18.3394C52.5 18.3394 62.5 28.3394 62.5 40.8394H57.5C57.5 31.0894 49.75 23.3394 40 23.3394C30.25 23.3394 22.5 31.0894 22.5 40.8394C22.5 50.5894 30.25 58.3394 40 58.3394V63.3394Z" fill="#E9000E"/>
    <path d="M40 75.8394C20.75 75.8394 5 60.0894 5 40.8394C5 21.5894 20.75 5.83936 40 5.83936C59.25 5.83936 75 21.5894 75 40.8394H70C70 24.3394 56.5 10.8394 40 10.8394C23.5 10.8394 10 24.3394 10 40.8394C10 57.3394 23.5 70.8394 40 70.8394V75.8394Z" fill="#E9000E"/>
</svg>
