<svg width="86" height="34" viewBox="0 0 86 34" fill="none" xmlns="http://www.w3.org/2000/svg">
<path d="M80.8733 0.512762C80.6042 0.0304688 79.9951 -0.142363 79.5128 0.126731L71.6533 4.51187C71.171 4.78097 70.9982 5.39009 71.2673 5.87238C71.5364 6.35467 72.1455 6.52751 72.6278 6.25841L79.614 2.36051L83.5119 9.34666C83.781 9.82895 84.3901 10.0018 84.8724 9.73269C85.3547 9.4636 85.5275 8.85448 85.2584 8.37219L80.8733 0.512762ZM34.2238 29.9082L33.8954 30.8528L33.9622 30.876L34.0316 30.8896L34.2238 29.9082ZM44.0691 19.6788L45.0429 19.906L44.0691 19.6788ZM1.63324 26.726C1.20579 26.3763 0.57577 26.4393 0.226043 26.8668C-0.123685 27.2942 -0.0606827 27.9242 0.366762 28.274L1.63324 26.726ZM79.038 0.727035C72.6909 23.0962 52.8096 32.5289 34.4159 28.9269L34.0316 30.8896C53.3651 34.6757 74.3091 24.7203 80.962 1.27297L79.038 0.727035ZM34.5521 28.9637C30.2036 27.4521 27.974 24.7034 27.4182 21.6827C26.8549 18.6206 27.9689 15.0487 30.7947 11.867L29.2993 10.5389C26.172 14.0602 24.7501 18.2335 25.4512 22.0446C26.16 25.897 28.9953 29.1495 33.8954 30.8528L34.5521 28.9637ZM30.7947 11.867C33.4679 8.857 37.0624 8.51889 39.7045 9.96803C42.3269 11.4063 44.1985 14.7229 43.0952 19.4516L45.0429 19.906C46.3263 14.4053 44.1634 10.1325 40.6663 8.21446C37.189 6.30729 32.579 6.84599 29.2993 10.5389L30.7947 11.867ZM43.0952 19.4516C42.5215 21.9106 40.4541 24.1947 37.2558 26.1016C34.0802 27.9949 29.9304 29.4278 25.4851 30.2421C21.0438 31.0557 16.3584 31.2424 12.1288 30.6815C7.88555 30.1187 4.18701 28.8155 1.63324 26.726L0.366762 28.274C3.31299 30.6845 7.41666 32.0741 11.8658 32.6641C16.3287 33.256 21.2259 33.0556 25.8455 32.2094C30.461 31.3638 34.8503 29.8642 38.2799 27.8194C41.6868 25.7882 44.291 23.1288 45.0429 19.906L43.0952 19.4516Z" fill="white"/>
</svg>
