<svg width="297" height="261" viewBox="0 0 297 261" fill="none" xmlns="http://www.w3.org/2000/svg">
<path opacity="0.502" d="M4.35834 248.212C4.35428 245.754 5.08545 243.35 6.45932 241.304C7.83316 239.258 9.78796 237.662 12.0764 236.718C14.3647 235.775 16.8838 235.526 19.3149 236.003C21.7459 236.48 23.9797 237.662 25.7334 239.399C27.4872 241.136 28.6822 243.35 29.1671 245.76C29.6521 248.171 29.4053 250.67 28.4579 252.942C27.5104 255.214 25.905 257.155 23.8448 258.521C21.7845 259.888 19.362 260.617 16.8838 260.617C15.2403 260.618 13.6125 260.299 12.0935 259.676C10.5745 259.053 9.19406 258.14 8.03094 256.988C6.8678 255.836 5.94479 254.468 5.31464 252.962C4.68451 251.457 4.35956 249.843 4.35834 248.212ZM48.9651 202.726C48.9671 200.271 49.7029 197.872 51.0793 195.831C52.4557 193.791 54.411 192.201 56.6981 191.263C58.9851 190.325 61.5012 190.081 63.9282 190.561C66.3553 191.041 68.5844 192.224 70.3336 193.961C72.0829 195.698 73.2738 197.91 73.7559 200.318C74.238 202.726 73.9896 205.221 73.042 207.489C72.0945 209.757 70.4903 211.695 68.4324 213.059C66.3745 214.423 63.9552 215.151 61.4804 215.151C59.8361 215.15 58.208 214.828 56.6891 214.204C55.1702 213.579 53.7902 212.664 52.628 211.51C51.4657 210.356 50.5439 208.987 49.9153 207.479C49.2867 205.972 48.9644 204.357 48.9651 202.726ZM4.37878 202.726C4.38284 200.273 5.11972 197.877 6.49625 195.84C7.87277 193.802 9.82721 192.216 12.1125 191.28C14.3979 190.344 16.9116 190.101 19.336 190.582C21.7603 191.063 23.9866 192.246 25.7334 193.982C27.4803 195.717 28.6693 197.928 29.1501 200.333C29.631 202.739 29.3821 205.232 28.435 207.498C27.4879 209.763 25.8851 211.7 23.8291 213.062C21.7731 214.424 19.3562 215.151 16.8838 215.151C15.2402 215.15 13.613 214.827 12.0949 214.202C10.5769 213.577 9.19785 212.662 8.03656 211.508C6.87524 210.354 5.95441 208.985 5.32666 207.478C4.69888 205.971 4.37744 204.356 4.37878 202.726ZM-40.2177 202.726C-40.2137 200.273 -39.4768 197.877 -38.1002 195.84C-36.7236 193.802 -34.7692 192.215 -32.4837 191.28C-30.1983 190.344 -27.6846 190.101 -25.2602 190.582C-22.8358 191.063 -20.6095 192.246 -18.8627 193.982C-17.1159 195.718 -15.927 197.928 -15.4463 200.334C-14.9656 202.74 -15.2146 205.233 -16.1618 207.499C-17.109 209.764 -18.712 211.7 -20.7681 213.062C-22.8242 214.424 -25.2413 215.151 -27.7137 215.151C-29.3572 215.149 -30.9843 214.827 -32.5022 214.202C-34.02 213.577 -35.3988 212.661 -36.56 211.507C-37.7211 210.354 -38.6417 208.984 -39.2693 207.477C-39.8969 205.971 -40.2192 204.356 -40.2177 202.726ZM93.5709 157.249C93.5749 154.796 94.3118 152.4 95.6883 150.362C97.0648 148.325 99.0192 146.738 101.305 145.803C103.59 144.867 106.104 144.624 108.528 145.105C110.952 145.586 113.179 146.769 114.926 148.505C116.672 150.24 117.861 152.451 118.342 154.856C118.823 157.262 118.574 159.755 117.627 162.021C116.68 164.286 115.077 166.222 113.021 167.584C110.965 168.947 108.548 169.674 106.076 169.674C104.432 169.672 102.805 169.35 101.287 168.725C99.7693 168.1 98.3904 167.184 97.2292 166.03C96.0681 164.876 95.1473 163.507 94.5196 162C93.8919 160.494 93.5695 158.879 93.5709 157.249ZM48.9641 157.249C48.9661 154.794 49.7018 152.394 51.0783 150.354C52.4547 148.314 54.41 146.724 56.6971 145.786C58.9841 144.848 61.5002 144.604 63.9272 145.084C66.3543 145.564 68.5833 146.747 70.3326 148.484C72.0818 150.22 73.2728 152.433 73.7549 154.84C74.237 157.248 73.9885 159.744 73.041 162.012C72.0934 164.28 70.4893 166.218 68.4314 167.582C66.3735 168.946 63.9542 169.674 61.4793 169.674C59.8351 169.673 58.2072 169.351 56.6884 168.726C55.1696 168.102 53.7897 167.186 52.6276 166.032C51.4654 164.879 50.5438 163.509 49.9152 162.002C49.2866 160.495 48.9634 158.88 48.9641 157.249ZM4.37781 157.249C4.38184 154.796 5.11868 152.4 6.49524 150.362C7.87177 148.325 9.82617 146.738 12.1115 145.803C14.3969 144.867 16.9106 144.624 19.335 145.105C21.7593 145.586 23.9856 146.769 25.7325 148.505C27.4792 150.24 28.6682 152.451 29.1491 154.856C29.6299 157.262 29.3811 159.755 28.434 162.021C27.4869 164.286 25.8841 166.222 23.8281 167.584C21.7721 168.947 19.3552 169.674 16.8828 169.674C15.2393 169.672 13.6121 169.35 12.0942 168.725C10.5763 168.1 9.19739 167.184 8.03619 166.03C6.875 164.876 5.95425 163.507 5.32654 162C4.69885 160.494 4.37646 158.879 4.37781 157.249ZM-40.2187 157.249C-40.2147 154.796 -39.4778 152.4 -38.1012 150.362C-36.7247 148.325 -34.7702 146.738 -32.4848 145.803C-30.1994 144.867 -27.6856 144.624 -25.2612 145.105C-22.8368 145.586 -20.6105 146.769 -18.8637 148.505C-17.1169 150.241 -15.9281 152.451 -15.4473 154.857C-14.9666 157.263 -15.2156 159.756 -16.1628 162.021C-17.11 164.287 -18.713 166.223 -20.7691 167.585C-22.8253 168.947 -25.2423 169.674 -27.7147 169.674C-31.0336 169.67 -34.2153 168.36 -36.56 166.03C-38.9047 163.699 -40.2215 160.541 -40.2187 157.249ZM-84.8265 157.249C-84.8225 154.796 -84.0856 152.4 -82.7091 150.362C-81.3326 148.325 -79.3781 146.738 -77.0928 145.803C-74.8074 144.867 -72.2937 144.624 -69.8693 145.105C-67.4449 145.586 -65.2187 146.769 -63.4719 148.505C-61.7251 150.24 -60.5361 152.451 -60.0553 154.856C-59.5744 157.262 -59.8232 159.755 -60.7703 162.021C-61.7174 164.286 -63.3202 166.222 -65.3762 167.584C-67.4322 168.947 -69.8491 169.674 -72.3215 169.674C-75.6405 169.671 -78.8225 168.36 -81.1674 166.03C-83.5124 163.7 -84.8292 160.541 -84.8265 157.249ZM138.178 111.771C138.182 109.319 138.918 106.922 140.295 104.885C141.672 102.848 143.626 101.261 145.912 100.325C148.197 99.3896 150.711 99.1469 153.135 99.628C155.56 100.109 157.786 101.292 159.533 103.028C161.279 104.764 162.468 106.974 162.949 109.38C163.43 111.786 163.181 114.279 162.234 116.544C161.286 118.81 159.683 120.746 157.627 122.108C155.571 123.47 153.154 124.197 150.682 124.196C149.038 124.195 147.411 123.873 145.893 123.248C144.375 122.622 142.996 121.707 141.835 120.553C140.674 119.399 139.754 118.03 139.126 116.523C138.498 115.016 138.176 113.402 138.178 111.771ZM93.5698 111.771C93.5739 109.319 94.3107 106.923 95.6873 104.885C97.0638 102.848 99.0182 101.261 101.304 100.325C103.589 99.3897 106.103 99.1469 108.527 99.6278C110.951 100.109 113.178 101.292 114.924 103.027C116.671 104.763 117.86 106.973 118.341 109.379C118.822 111.785 118.573 114.278 117.626 116.544C116.679 118.809 115.076 120.745 113.02 122.107C110.964 123.469 108.547 124.196 106.075 124.196C102.756 124.193 99.5738 122.883 97.2289 120.553C94.8839 118.223 93.5671 115.064 93.5698 111.771ZM48.9631 111.771C48.9651 109.316 49.7008 106.917 51.0772 104.877C52.4537 102.837 54.409 101.247 56.696 100.309C58.9831 99.3707 61.4991 99.1263 63.9262 99.6065C66.3532 100.087 68.5823 101.27 70.3316 103.007C72.0808 104.743 73.2718 106.955 73.7539 109.363C74.2359 111.771 73.9875 114.267 73.0399 116.535C72.0924 118.803 70.4883 120.741 68.4304 122.105C66.3724 123.469 63.9532 124.196 61.4783 124.196C58.1579 124.195 54.9741 122.885 52.6273 120.555C50.2804 118.225 48.9617 115.065 48.9631 111.771ZM4.37677 111.771C4.3808 109.319 5.11768 106.923 6.4942 104.885C7.87073 102.848 9.82513 101.261 12.1105 100.325C14.3958 99.3897 16.9095 99.1469 19.3339 99.6278C21.7583 100.109 23.9846 101.292 25.7314 103.027C27.4782 104.763 28.6672 106.973 29.148 109.379C29.6289 111.785 29.38 114.278 28.433 116.544C27.4859 118.809 25.8831 120.745 23.8271 122.107C21.7711 123.469 19.3542 124.196 16.8818 124.196C13.5627 124.193 10.3808 122.883 8.03583 120.553C5.69092 118.223 4.37405 115.064 4.37677 111.771ZM-40.2197 111.771C-40.2157 109.319 -39.4788 106.922 -38.1022 104.885C-36.7257 102.848 -34.7712 101.261 -32.4858 100.325C-30.2004 99.3896 -27.6866 99.1469 -25.2622 99.628C-22.8378 100.109 -20.6115 101.292 -18.8647 103.028C-17.118 104.764 -15.9291 106.974 -15.4484 109.38C-14.9676 111.786 -15.2166 114.279 -16.1638 116.544C-17.1111 118.81 -18.714 120.746 -20.7702 122.108C-22.8263 123.47 -25.2433 124.197 -27.7157 124.196C-31.0345 124.193 -34.2159 122.882 -36.5604 120.552C-38.9049 118.222 -40.2225 115.064 -40.2197 111.771ZM-84.8275 111.771C-84.8235 109.319 -84.0867 106.923 -82.7101 104.885C-81.3336 102.848 -79.3792 101.261 -77.0938 100.325C-74.8085 99.3897 -72.2948 99.1469 -69.8704 99.6278C-67.446 100.109 -65.2197 101.292 -63.4729 103.027C-61.7261 104.763 -60.5371 106.973 -60.0563 109.379C-59.5754 111.785 -59.8242 114.278 -60.7713 116.544C-61.7184 118.809 -63.3212 120.745 -65.3772 122.107C-67.4332 123.469 -69.8501 124.196 -72.3225 124.196C-75.6414 124.193 -78.8231 122.882 -81.1678 120.552C-83.5125 118.222 -84.8302 115.064 -84.8275 111.771ZM-129.434 111.771C-129.432 109.316 -128.697 106.917 -127.32 104.877C-125.944 102.837 -123.988 101.247 -121.701 100.309C-119.414 99.3707 -116.898 99.1263 -114.471 99.6065C-112.044 100.087 -109.815 101.27 -108.066 103.007C-106.317 104.743 -105.126 106.955 -104.643 109.363C-104.161 111.771 -104.41 114.267 -105.357 116.535C-106.305 118.803 -107.909 120.741 -109.967 122.105C-112.025 123.469 -114.444 124.196 -116.919 124.196C-120.239 124.195 -123.423 122.884 -125.769 120.554C-128.116 118.224 -129.436 115.065 -129.434 111.771ZM182.762 66.2943C182.764 63.8393 183.5 61.44 184.876 59.3997C186.252 57.3594 188.208 55.7698 190.495 54.8317C192.782 53.8936 195.298 53.6492 197.725 54.1294C200.152 54.6095 202.381 55.7927 204.13 57.5294C205.88 59.266 207.071 61.4781 207.553 63.8861C208.035 66.2941 207.786 68.7898 206.839 71.0577C205.891 73.3257 204.287 75.264 202.229 76.6277C200.171 77.9914 197.752 78.7193 195.277 78.7193C191.957 78.7174 188.773 77.4073 186.427 75.0773C184.08 72.7472 182.76 69.5879 182.762 66.2943ZM138.176 66.2943C138.18 63.8416 138.916 61.4453 140.293 59.408C141.67 57.3707 143.624 55.7839 145.91 54.8482C148.195 53.9124 150.709 53.6697 153.133 54.1508C155.558 54.6318 157.784 55.8149 159.531 57.5507C161.277 59.2864 162.466 61.4968 162.947 63.9026C163.428 66.3084 163.179 68.8015 162.231 71.067C161.284 73.3325 159.681 75.2686 157.625 76.6306C155.569 77.9926 153.152 78.7195 150.68 78.7193C147.361 78.7161 144.179 77.4052 141.835 75.0751C139.49 72.745 138.173 69.5864 138.176 66.2943ZM93.5678 66.2943C93.5718 63.8417 94.3087 61.4454 95.6852 59.4081C97.0617 57.3708 99.0161 55.784 101.301 54.8483C103.587 53.9125 106.101 53.6698 108.525 54.1507C110.949 54.6316 113.176 55.8146 114.922 57.5503C116.669 59.2859 117.858 61.4962 118.339 63.9019C118.82 66.3077 118.571 68.8008 117.624 71.0663C116.677 73.3318 115.074 75.2679 113.018 76.6301C110.962 77.9922 108.545 78.7193 106.073 78.7193C102.754 78.7158 99.5726 77.4048 97.2281 75.0748C94.8837 72.7447 93.5651 69.5864 93.5678 66.2943ZM48.961 66.2943C48.963 63.8393 49.6988 61.44 51.0752 59.3997C52.4516 57.3594 54.4069 55.7698 56.694 54.8317C58.981 53.8936 61.4971 53.6492 63.9241 54.1294C66.3512 54.6095 68.5803 55.7927 70.3295 57.5294C72.0788 59.266 73.2697 61.4781 73.7518 63.8861C74.2339 66.2941 73.9854 68.7898 73.0379 71.0577C72.0903 73.3257 70.4862 75.264 68.4283 76.6277C66.3704 77.9914 63.9511 78.7193 61.4763 78.7193C58.1562 78.7172 54.9729 77.407 52.6265 75.0769C50.2801 72.7468 48.9597 69.5877 48.961 66.2943ZM4.37469 66.2943C4.37875 63.8417 5.11563 61.4454 6.49216 59.4081C7.86868 57.3708 9.82312 55.784 12.1085 54.8483C14.3938 53.9125 16.9075 53.6698 19.3319 54.1507C21.7563 54.6316 23.9825 55.8146 25.7293 57.5503C27.4762 59.2859 28.6652 61.4962 29.146 63.9019C29.6269 66.3077 29.378 68.8008 28.4309 71.0663C27.4839 73.3318 25.881 75.2679 23.825 76.6301C21.769 77.9922 19.3521 78.7193 16.8797 78.7193C13.561 78.7158 10.3796 77.4048 8.0351 75.0748C5.69061 72.7447 4.37198 69.5864 4.37469 66.2943ZM-40.2218 66.2943C-40.2177 63.8416 -39.4809 61.4453 -38.1043 59.408C-36.7277 57.3707 -34.7733 55.7839 -32.4878 54.8482C-30.2024 53.9124 -27.6887 53.6697 -25.2643 54.1508C-22.8398 54.6318 -20.6136 55.8149 -18.8668 57.5507C-17.12 59.2864 -15.9312 61.4968 -15.4504 63.9026C-14.9697 66.3084 -15.2186 68.8015 -16.1659 71.067C-17.1131 73.3325 -18.7161 75.2686 -20.7722 76.6306C-22.8283 77.9926 -25.2454 78.7195 -27.7178 78.7193C-31.0362 78.7153 -34.2171 77.4041 -36.5611 75.0741C-38.9052 72.7441 -40.2245 69.586 -40.2218 66.2943ZM-84.8296 66.2943C-84.8255 63.8417 -84.0887 61.4454 -82.7122 59.4081C-81.3356 57.3708 -79.3812 55.784 -77.0959 54.8483C-74.8105 53.9125 -72.2968 53.6698 -69.8724 54.1507C-67.448 54.6316 -65.2218 55.8146 -63.4749 57.5503C-61.7281 59.2859 -60.5392 61.4962 -60.0583 63.9019C-59.5775 66.3077 -59.8263 68.8008 -60.7734 71.0663C-61.7204 73.3318 -63.3232 75.2679 -65.3792 76.6301C-67.4352 77.9922 -69.8522 78.7193 -72.3245 78.7193C-75.6431 78.7155 -78.8243 77.4044 -81.1685 75.0744C-83.5128 72.7444 -84.8323 69.5862 -84.8296 66.2943ZM-129.436 66.2943C-129.434 63.8393 -128.699 61.44 -127.322 59.3997C-125.946 57.3594 -123.99 55.7698 -121.703 54.8317C-119.416 53.8936 -116.9 53.6492 -114.473 54.1294C-112.046 54.6095 -109.817 55.7927 -108.068 57.5294C-106.319 59.266 -105.128 61.4781 -104.646 63.8861C-104.163 66.2941 -104.412 68.7898 -105.359 71.0577C-106.307 73.3257 -107.911 75.264 -109.969 76.6277C-112.027 77.9914 -114.446 78.7193 -116.921 78.7193C-120.241 78.7169 -123.424 77.4066 -125.77 75.0766C-128.116 72.7465 -129.438 69.5875 -129.436 66.2943ZM-174.023 66.2943C-174.019 63.8419 -173.282 61.4457 -171.905 59.4085C-170.529 57.3713 -168.575 55.7846 -166.29 54.8487C-164.005 53.9128 -161.491 53.6698 -159.067 54.1504C-156.643 54.631 -154.416 55.8136 -152.669 57.5489C-150.922 59.2841 -149.733 61.494 -149.252 63.8995C-148.771 66.3049 -149.019 68.798 -149.965 71.0635C-150.912 73.3291 -152.514 75.2655 -154.569 76.6281C-156.625 77.9908 -159.041 78.7185 -161.513 78.7193C-163.157 78.718 -164.784 78.3955 -166.302 77.7704C-167.82 77.1452 -169.199 76.2296 -170.36 75.0759C-171.521 73.9221 -172.442 72.5528 -173.07 71.046C-173.697 69.5393 -174.024 67.9246 -174.023 66.2943ZM227.367 20.8069C227.371 18.3544 228.107 15.958 229.484 13.9208C230.861 11.8835 232.815 10.2967 235.1 9.36093C237.386 8.42517 239.899 8.18243 242.324 8.66336C244.748 9.14429 246.974 10.3273 248.721 12.063C250.468 13.7986 251.657 16.0089 252.138 18.4146C252.619 20.8203 252.37 23.3135 251.423 25.579C250.476 27.8445 248.873 29.7806 246.817 31.1428C244.761 32.5049 242.344 33.2319 239.872 33.2319C236.553 33.2281 233.372 31.9171 231.028 29.5871C228.683 27.2571 227.364 24.0988 227.367 20.8069ZM182.76 20.8069C182.762 18.3519 183.498 15.9526 184.874 13.9124C186.25 11.8721 188.206 10.2824 190.493 9.34433C192.78 8.40622 195.296 8.16183 197.723 8.642C200.15 9.12219 202.379 10.3054 204.128 12.042C205.878 13.7787 207.069 15.9908 207.551 18.3988C208.033 20.8067 207.784 23.3025 206.837 25.5704C205.889 27.8383 204.285 29.7766 202.227 31.1404C200.169 32.5041 197.75 33.2319 195.275 33.2319C191.955 33.2295 188.772 31.9192 186.426 29.5892C184.08 27.2592 182.758 24.1002 182.76 20.8069ZM138.174 20.8069C138.178 18.3543 138.914 15.9579 140.291 13.9207C141.668 11.8834 143.622 10.2966 145.907 9.36084C148.193 8.42511 150.707 8.1824 153.131 8.66339C155.555 9.14441 157.782 10.3276 159.528 12.0633C161.275 13.799 162.464 16.0095 162.945 18.4153C163.426 20.8211 163.177 23.3142 162.229 25.5797C161.282 27.8452 159.679 29.7812 157.623 31.1432C155.567 32.5053 153.15 33.2321 150.678 33.2319C147.359 33.2281 144.178 31.9171 141.834 29.587C139.49 27.257 138.171 24.0988 138.174 20.8069ZM93.5657 20.8069C93.5698 18.3544 94.3066 15.958 95.6832 13.9208C97.0597 11.8835 99.0141 10.2967 101.299 9.36093C103.585 8.42517 106.099 8.18243 108.523 8.66336C110.947 9.14429 113.174 10.3273 114.92 12.063C116.667 13.7986 117.856 16.0089 118.337 18.4146C118.818 20.8203 118.569 23.3135 117.622 25.579C116.675 27.8445 115.072 29.7806 113.016 31.1428C110.96 32.5049 108.543 33.2319 106.071 33.2319C102.752 33.2279 99.5715 31.9167 97.2274 29.5867C94.8834 27.2567 93.5681 24.0987 93.5709 20.8069H93.5657ZM48.959 20.8069C48.961 18.3519 49.6967 15.9526 51.0732 13.9124C52.4496 11.8721 54.4049 10.2824 56.6919 9.34433C58.979 8.40622 61.4951 8.16183 63.9221 8.642C66.3492 9.12219 68.5782 10.3054 70.3275 12.042C72.0768 13.7787 73.2677 15.9908 73.7498 18.3988C74.2318 20.8067 73.9834 23.3025 73.0359 25.5704C72.0883 27.8383 70.4842 29.7766 68.4263 31.1404C66.3683 32.5041 63.9491 33.2319 61.4742 33.2319C58.1545 33.2292 54.9717 31.9189 52.6258 29.5888C50.2798 27.2589 48.9627 24.1 48.9641 20.8069H48.959ZM4.37268 20.8069C4.37671 18.3544 5.11359 15.958 6.49011 13.9208C7.86664 11.8835 9.82104 10.2967 12.1064 9.36093C14.3918 8.42517 16.9055 8.18243 19.3298 8.66336C21.7542 9.14429 23.9805 10.3273 25.7273 12.063C27.4741 13.7986 28.6631 16.0089 29.144 18.4146C29.6248 20.8203 29.3759 23.3135 28.4289 25.579C27.4818 27.8445 25.879 29.7806 23.823 31.1428C21.767 32.5049 19.3501 33.2319 16.8777 33.2319C13.5593 33.2279 10.3784 31.9167 8.03439 29.5867C5.69034 27.2567 4.37509 24.0987 4.37781 20.8069H4.37268ZM-40.2238 20.8069C-40.2198 18.3543 -39.4829 15.9579 -38.1064 13.9207C-36.7298 11.8834 -34.7753 10.2966 -32.4899 9.36084C-30.2045 8.42511 -27.6907 8.1824 -25.2663 8.66339C-22.8419 9.14441 -20.6156 10.3276 -18.8689 12.0633C-17.1221 13.799 -15.9332 16.0095 -15.4525 18.4153C-14.9717 20.8211 -15.2207 23.3142 -16.1679 25.5797C-17.1151 27.8452 -18.7181 29.7812 -20.7743 31.1432C-22.8304 32.5053 -25.2474 33.2321 -27.7198 33.2319C-31.0378 33.2273 -34.2182 31.916 -36.5618 29.586C-38.9054 27.2561 -40.2204 24.0983 -40.2177 20.8069H-40.2238ZM-84.8316 20.8069C-84.8276 18.3544 -84.0907 15.958 -82.7142 13.9208C-81.3377 11.8835 -79.3833 10.2967 -77.0979 9.36093C-74.8125 8.42517 -72.2989 8.18243 -69.8745 8.66336C-67.4501 9.14429 -65.2238 10.3273 -63.477 12.063C-61.7302 13.7986 -60.5412 16.0089 -60.0604 18.4146C-59.5795 20.8203 -59.8283 23.3135 -60.7754 25.579C-61.7225 27.8445 -63.3253 29.7806 -65.3813 31.1428C-67.4373 32.5049 -69.8542 33.2319 -72.3266 33.2319C-75.6448 33.2276 -78.8254 31.9164 -81.1693 29.5864C-83.5131 27.2564 -84.8282 24.0985 -84.8255 20.8069H-84.8316ZM-129.438 20.8069C-129.436 18.3519 -128.701 15.9526 -127.324 13.9124C-125.948 11.8721 -123.992 10.2824 -121.705 9.34433C-119.418 8.40622 -116.902 8.16183 -114.475 8.642C-112.048 9.12219 -109.819 10.3054 -108.07 12.042C-106.321 13.7787 -105.13 15.9908 -104.648 18.3988C-104.166 20.8067 -104.414 23.3025 -105.362 25.5704C-106.309 27.8383 -107.913 29.7766 -109.971 31.1404C-112.029 32.5041 -114.448 33.2319 -116.923 33.2319C-120.243 33.2289 -123.425 31.9184 -125.771 29.5885C-128.117 27.2585 -129.434 24.0999 -129.432 20.8069H-129.438ZM-174.025 20.8069C-174.021 18.3546 -173.284 15.9586 -171.908 13.9214C-170.531 11.8843 -168.577 10.2975 -166.292 9.36154C-164.007 8.4256 -161.494 8.18246 -159.07 8.6629C-156.646 9.14334 -154.419 10.3258 -152.672 12.0608C-150.925 13.7958 -149.736 16.0056 -149.254 18.4109C-148.773 20.8163 -149.021 23.3092 -149.967 25.5747C-150.913 27.8403 -152.515 29.7769 -154.57 31.1398C-156.625 32.5027 -159.041 33.2307 -161.513 33.2319C-163.157 33.2306 -164.784 32.9082 -166.302 32.2831C-167.82 31.6579 -169.199 30.7423 -170.36 29.5885C-171.521 28.4348 -172.442 27.0654 -173.07 25.5587C-173.697 24.0519 -174.02 22.4373 -174.019 20.8069H-174.025ZM-218.621 20.8069C-218.617 18.3546 -217.88 15.9586 -216.504 13.9214C-215.128 11.8843 -213.174 10.2975 -210.889 9.36154C-208.604 8.4256 -206.091 8.18246 -203.666 8.6629C-201.242 9.14334 -199.016 10.3258 -197.269 12.0608C-195.522 13.7958 -194.332 16.0056 -193.851 18.4109C-193.369 20.8163 -193.617 23.3092 -194.563 25.5747C-195.509 27.8403 -197.111 29.7769 -199.166 31.1398C-201.222 32.5027 -203.638 33.2307 -206.11 33.2319C-207.754 33.2306 -209.381 32.9082 -210.899 32.2831C-212.417 31.6579 -213.795 30.7423 -214.957 29.5885C-216.118 28.4348 -217.039 27.0654 -217.666 25.5587C-218.294 24.0519 -218.616 22.4373 -218.615 20.8069H-218.621ZM227.365 -24.6703C227.369 -27.1228 228.105 -29.5191 229.482 -31.5564C230.858 -33.5937 232.813 -35.1805 235.098 -36.1162C237.384 -37.052 239.897 -37.2948 242.322 -36.8138C244.746 -36.3329 246.972 -35.1499 248.719 -33.4143C250.466 -31.6786 251.655 -29.4682 252.136 -27.0625C252.617 -24.6568 252.368 -22.1637 251.421 -19.8982C250.474 -17.6327 248.871 -15.6966 246.815 -14.3344C244.759 -12.9723 242.342 -12.2452 239.87 -12.2452C236.551 -12.2495 233.371 -13.5609 231.027 -15.8908C228.683 -18.2208 227.368 -21.3787 227.371 -24.6703H227.365ZM182.758 -24.6703C182.76 -27.1252 183.495 -29.5245 184.872 -31.5648C186.248 -33.6051 188.204 -35.1948 190.491 -36.1329C192.778 -37.071 195.294 -37.3154 197.721 -36.8352C200.148 -36.355 202.377 -35.1718 204.126 -33.4352C205.876 -31.6985 207.066 -29.4864 207.549 -27.0784C208.031 -24.6704 207.782 -22.1747 206.835 -19.9068C205.887 -17.6389 204.283 -15.7005 202.225 -14.3368C200.167 -12.9731 197.748 -12.2452 195.273 -12.2452C191.953 -12.2482 188.771 -13.5587 186.425 -15.8887C184.079 -18.2187 182.763 -21.3773 182.764 -24.6703H182.758ZM138.171 -24.6703C138.176 -27.1229 138.912 -29.5192 140.289 -31.5565C141.665 -33.5938 143.62 -35.1806 145.905 -36.1163C148.191 -37.0521 150.705 -37.2948 153.129 -36.8138C155.553 -36.3327 157.78 -35.1496 159.526 -33.4139C161.273 -31.6781 162.462 -29.4677 162.943 -27.0619C163.424 -24.6561 163.175 -22.1629 162.227 -19.8975C161.28 -17.632 159.677 -15.696 157.621 -14.3339C155.565 -12.9719 153.148 -12.2451 150.675 -12.2452C147.357 -12.2495 144.177 -13.5609 141.833 -15.8909C139.49 -18.2209 138.175 -21.3788 138.178 -24.6703H138.171ZM93.5637 -24.6703C93.5677 -27.1228 94.3046 -29.5191 95.6811 -31.5564C97.0576 -33.5937 99.0121 -35.1805 101.297 -36.1162C103.583 -37.052 106.096 -37.2948 108.521 -36.8138C110.945 -36.3329 113.172 -35.1499 114.918 -33.4143C116.665 -31.6786 117.854 -29.4682 118.335 -27.0625C118.816 -24.6568 118.567 -22.1637 117.62 -19.8982C116.673 -17.6327 115.07 -15.6966 113.014 -14.3344C110.958 -12.9723 108.541 -12.2452 106.069 -12.2452C102.751 -12.2498 99.5703 -13.5612 97.2267 -15.8911C94.8831 -18.2211 93.5681 -21.3788 93.5709 -24.6703H93.5637ZM48.9569 -24.6703C48.959 -27.1252 49.6947 -29.5245 51.0711 -31.5648C52.4475 -33.6051 54.4028 -35.1948 56.6899 -36.1329C58.9769 -37.071 61.493 -37.3154 63.9201 -36.8352C66.3471 -36.355 68.5762 -35.1718 70.3254 -33.4352C72.0747 -31.6985 73.2657 -29.4864 73.7477 -27.0784C74.2298 -24.6704 73.9814 -22.1747 73.0338 -19.9068C72.0862 -17.6389 70.4821 -15.7005 68.4242 -14.3368C66.3663 -12.9731 63.9471 -12.2452 61.4722 -12.2452C58.1528 -12.2485 54.9706 -13.5591 52.6251 -15.8891C50.2795 -18.219 48.9627 -21.3775 48.9641 -24.6703H48.9569ZM4.37061 -24.6703C4.37466 -27.1228 5.11151 -29.5191 6.48804 -31.5564C7.86456 -33.5937 9.81903 -35.1805 12.1044 -36.1162C14.3897 -37.052 16.9034 -37.2948 19.3278 -36.8138C21.7522 -36.3329 23.9785 -35.1499 25.7253 -33.4143C27.4721 -31.6786 28.661 -29.4682 29.1419 -27.0625C29.6227 -24.6568 29.3739 -22.1637 28.4268 -19.8982C27.4798 -17.6327 25.877 -15.6966 23.821 -14.3344C21.765 -12.9723 19.3481 -12.2452 16.8756 -12.2452C13.5576 -12.2498 10.3773 -13.5612 8.03369 -15.8911C5.69006 -18.2211 4.37509 -21.3788 4.37781 -24.6703H4.37061ZM-40.2259 -24.6703C-40.2218 -27.1229 -39.485 -29.5192 -38.1084 -31.5565C-36.7318 -33.5938 -34.7773 -35.1806 -32.4919 -36.1163C-30.2065 -37.0521 -27.6928 -37.2948 -25.2684 -36.8138C-22.8439 -36.3327 -20.6177 -35.1496 -18.8709 -33.4139C-17.1241 -31.6781 -15.9352 -29.4677 -15.4545 -27.0619C-14.9738 -24.6561 -15.2227 -22.1629 -16.17 -19.8975C-17.1172 -17.632 -18.7202 -15.696 -20.7763 -14.3339C-22.8324 -12.9719 -25.2495 -12.2451 -27.7219 -12.2452C-31.0396 -12.2501 -34.2197 -13.5616 -36.5629 -15.8916C-38.9061 -18.2215 -40.2207 -21.3791 -40.2177 -24.6703H-40.2259ZM-84.8337 -24.6703C-84.8296 -27.1228 -84.0928 -29.5191 -82.7163 -31.5564C-81.3397 -33.5937 -79.3853 -35.1805 -77.0999 -36.1162C-74.8146 -37.052 -72.3009 -37.2948 -69.8765 -36.8138C-67.4521 -36.3329 -65.2258 -35.1499 -63.479 -33.4143C-61.7322 -31.6786 -60.5433 -29.4682 -60.0624 -27.0625C-59.5816 -24.6568 -59.8304 -22.1637 -60.7775 -19.8982C-61.7245 -17.6327 -63.3273 -15.6966 -65.3833 -14.3344C-67.4393 -12.9723 -69.8562 -12.2452 -72.3286 -12.2452C-75.6465 -12.2501 -78.8266 -13.5616 -81.17 -15.8915C-83.5134 -18.2214 -84.8282 -21.379 -84.8255 -24.6703H-84.8337ZM-129.44 -24.6703C-129.438 -27.1252 -128.703 -29.5245 -127.326 -31.5648C-125.95 -33.6051 -123.995 -35.1948 -121.707 -36.1329C-119.42 -37.071 -116.904 -37.3154 -114.477 -36.8352C-112.05 -36.355 -109.821 -35.1718 -108.072 -33.4352C-106.323 -31.6985 -105.132 -29.4864 -104.65 -27.0784C-104.168 -24.6704 -104.416 -22.1747 -105.364 -19.9068C-106.311 -17.6389 -107.915 -15.7005 -109.973 -14.3368C-112.031 -12.9731 -114.45 -12.2452 -116.925 -12.2452C-120.244 -12.2487 -123.426 -13.5595 -125.772 -15.8894C-128.117 -18.2193 -129.434 -21.3777 -129.432 -24.6703H-129.44ZM-174.027 -24.6703C-174.023 -27.1225 -173.286 -29.5184 -171.91 -31.5555C-170.534 -33.5927 -168.58 -35.1794 -166.295 -36.1154C-164.01 -37.0515 -161.497 -37.2947 -159.073 -36.8144C-156.648 -36.3341 -154.422 -35.1519 -152.675 -33.4171C-150.928 -31.6823 -149.738 -29.4727 -149.256 -27.0675C-148.775 -24.6623 -149.022 -22.1694 -149.968 -19.9038C-150.914 -17.6382 -152.516 -15.7015 -154.57 -14.3384C-156.625 -12.9753 -159.041 -12.2469 -161.513 -12.2452C-163.157 -12.2466 -164.784 -12.569 -166.302 -13.1942C-167.82 -13.8193 -169.199 -14.7349 -170.36 -15.8886C-171.521 -17.0424 -172.442 -18.4118 -173.07 -19.9185C-173.697 -21.4253 -174.02 -23.0399 -174.019 -24.6703H-174.027ZM-218.623 -24.6703C-218.619 -27.1225 -217.883 -29.5184 -216.506 -31.5555C-215.13 -33.5927 -213.176 -35.1794 -210.891 -36.1154C-208.607 -37.0515 -206.093 -37.2947 -203.669 -36.8144C-201.245 -36.3341 -199.019 -35.1519 -197.271 -33.4171C-195.524 -31.6823 -194.335 -29.4727 -193.853 -27.0675C-193.371 -24.6623 -193.619 -22.1694 -194.565 -19.9038C-195.51 -17.6382 -197.112 -15.7015 -199.167 -14.3384C-201.222 -12.9753 -203.638 -12.2469 -206.11 -12.2452C-207.754 -12.2464 -209.381 -12.5688 -210.899 -13.1939C-212.417 -13.819 -213.796 -14.7346 -214.957 -15.8884C-216.118 -17.0422 -217.039 -18.4116 -217.667 -19.9184C-218.294 -21.4252 -218.617 -23.0399 -218.615 -24.6703H-218.623ZM-263.24 -24.6703C-263.238 -27.1252 -262.502 -29.5245 -261.126 -31.5648C-259.75 -33.6051 -257.794 -35.1948 -255.507 -36.1329C-253.22 -37.071 -250.704 -37.3154 -248.277 -36.8352C-245.85 -36.355 -243.621 -35.1718 -241.872 -33.4352C-240.122 -31.6985 -238.932 -29.4864 -238.449 -27.0784C-237.967 -24.6704 -238.216 -22.1747 -239.163 -19.9068C-240.111 -17.6389 -241.715 -15.7005 -243.773 -14.3368C-245.831 -12.9731 -248.25 -12.2452 -250.725 -12.2452C-254.044 -12.2487 -257.226 -13.5595 -259.571 -15.8894C-261.917 -18.2193 -263.233 -21.3777 -263.232 -24.6703H-263.24ZM271.949 -24.6703C271.944 -27.1286 272.676 -29.533 274.049 -31.579C275.423 -33.6251 277.378 -35.221 279.666 -36.1647C281.954 -37.1083 284.474 -37.3575 286.905 -36.8804C289.336 -36.4034 291.57 -35.2217 293.323 -33.4849C295.077 -31.7481 296.272 -29.5342 296.758 -27.1234C297.243 -24.7126 296.996 -22.2133 296.048 -19.9417C295.101 -17.67 293.496 -15.7282 291.435 -14.362C289.375 -12.9958 286.952 -12.2665 284.474 -12.2665C281.157 -12.266 277.974 -13.5722 275.627 -15.8981C273.28 -18.224 271.96 -21.3792 271.957 -24.6703H271.949ZM227.362 -70.1474C227.367 -72.6 228.103 -74.9963 229.48 -77.0336C230.856 -79.0709 232.811 -80.6577 235.096 -81.5934C237.382 -82.5292 239.895 -82.772 242.32 -82.291C244.744 -81.8101 246.97 -80.6271 248.717 -78.8914C250.464 -77.1558 251.653 -74.9455 252.134 -72.5397C252.615 -70.134 252.366 -67.6409 251.419 -65.3754C250.472 -63.1099 248.869 -61.1738 246.813 -59.8116C244.757 -58.4495 242.34 -57.7224 239.867 -57.7224C236.55 -57.7273 233.37 -59.0388 231.026 -61.3687C228.683 -63.6986 227.368 -66.8562 227.371 -70.1474H227.362ZM182.756 -70.1474C182.758 -72.6024 183.493 -75.0017 184.87 -77.042C186.246 -79.0823 188.202 -80.672 190.489 -81.61C192.776 -82.5481 195.292 -82.7926 197.719 -82.3124C200.146 -81.8322 202.375 -80.649 204.124 -78.9124C205.873 -77.1757 207.064 -74.9636 207.547 -72.5556C208.029 -70.1476 207.78 -67.6519 206.833 -65.384C205.885 -63.1161 204.281 -61.1777 202.223 -59.814C200.165 -58.4503 197.746 -57.7224 195.271 -57.7224C191.952 -57.7259 188.77 -59.0367 186.425 -61.3666C184.079 -63.6965 182.763 -66.8549 182.764 -70.1474H182.756ZM138.169 -70.1474C138.173 -72.6 138.91 -74.9964 140.287 -77.0337C141.663 -79.071 143.618 -80.6578 145.903 -81.5935C148.189 -82.5293 150.703 -82.772 153.127 -82.291C155.551 -81.8099 157.778 -80.6268 159.524 -78.8911C161.271 -77.1553 162.46 -74.9449 162.941 -72.5391C163.422 -70.1333 163.173 -67.6402 162.225 -65.3747C161.278 -63.1092 159.675 -61.1731 157.619 -59.8111C155.563 -58.4491 153.146 -57.7222 150.673 -57.7224C147.356 -57.7273 144.176 -59.0388 141.832 -61.3688C139.489 -63.6987 138.175 -66.8563 138.178 -70.1474H138.169ZM93.5616 -70.1474C93.5657 -72.6 94.3026 -74.9963 95.6791 -77.0336C97.0556 -79.0709 99.01 -80.6577 101.295 -81.5934C103.581 -82.5292 106.094 -82.772 108.519 -82.291C110.943 -81.8101 113.169 -80.6271 114.916 -78.8914C116.663 -77.1558 117.852 -74.9455 118.333 -72.5397C118.814 -70.134 118.565 -67.6409 117.618 -65.3754C116.671 -63.1099 115.068 -61.1738 113.012 -59.8116C110.956 -58.4495 108.539 -57.7224 106.067 -57.7224C102.749 -57.7276 99.5691 -59.0392 97.226 -61.3691C94.8828 -63.699 93.5681 -66.8564 93.5709 -70.1474H93.5616ZM48.9549 -70.1474C48.9569 -72.6024 49.6926 -75.0017 51.0691 -77.042C52.4455 -79.0823 54.4008 -80.672 56.6878 -81.61C58.9749 -82.5481 61.491 -82.7926 63.918 -82.3124C66.3451 -81.8322 68.5741 -80.649 70.3234 -78.9124C72.0727 -77.1757 73.2636 -74.9636 73.7457 -72.5556C74.2278 -70.1476 73.9793 -67.6519 73.0318 -65.384C72.0842 -63.1161 70.4801 -61.1777 68.4222 -59.814C66.3643 -58.4503 63.945 -57.7224 61.4701 -57.7224C58.1511 -57.7262 54.9694 -59.0371 52.6243 -61.367C50.2793 -63.6969 48.9627 -66.8551 48.9641 -70.1474H48.9549ZM4.36859 -70.1474C4.37262 -72.6 5.1095 -74.9963 6.48602 -77.0336C7.86255 -79.0709 9.81696 -80.6577 12.1023 -81.5934C14.3877 -82.5292 16.9014 -82.772 19.3257 -82.291C21.7501 -81.8101 23.9764 -80.6271 25.7232 -78.8914C27.47 -77.1558 28.659 -74.9455 29.1399 -72.5397C29.6207 -70.134 29.3719 -67.6409 28.4248 -65.3754C27.4777 -63.1099 25.8749 -61.1738 23.8189 -59.8116C21.7629 -58.4495 19.346 -57.7224 16.8736 -57.7224C13.556 -57.7276 10.3761 -59.0392 8.03293 -61.3691C5.68979 -63.699 4.37509 -66.8564 4.37781 -70.1474H4.36859ZM-40.2279 -70.1474C-40.2239 -72.6 -39.487 -74.9964 -38.1105 -77.0337C-36.7339 -79.071 -34.7794 -80.6578 -32.494 -81.5935C-30.2086 -82.5293 -27.6948 -82.772 -25.2704 -82.291C-22.846 -81.8099 -20.6197 -80.6268 -18.8729 -78.8911C-17.1262 -77.1553 -15.9373 -74.9449 -15.4565 -72.5391C-14.9758 -70.1333 -15.2248 -67.6402 -16.172 -65.3747C-17.1192 -63.1092 -18.7222 -61.1731 -20.7784 -59.8111C-22.8345 -58.4491 -25.2515 -57.7222 -27.7239 -57.7224C-31.0412 -57.7281 -34.2206 -59.04 -36.5633 -61.3698C-38.906 -63.6996 -40.2204 -66.8568 -40.2177 -70.1474H-40.2279ZM-84.8357 -70.1474C-84.8317 -72.6 -84.0948 -74.9963 -82.7183 -77.0336C-81.3418 -79.0709 -79.3873 -80.6577 -77.102 -81.5934C-74.8166 -82.5292 -72.3029 -82.772 -69.8786 -82.291C-67.4542 -81.8101 -65.2279 -80.6271 -63.4811 -78.8914C-61.7343 -77.1558 -60.5453 -74.9455 -60.0645 -72.5397C-59.5836 -70.134 -59.8324 -67.6409 -60.7795 -65.3754C-61.7266 -63.1099 -63.3294 -61.1738 -65.3854 -59.8116C-67.4414 -58.4495 -69.8583 -57.7224 -72.3307 -57.7224C-75.6482 -57.7278 -78.8278 -59.0396 -81.1707 -61.3694C-83.5137 -63.6993 -84.8282 -66.8566 -84.8255 -70.1474H-84.8357ZM-129.442 -70.1474C-129.44 -72.6024 -128.705 -75.0017 -127.328 -77.042C-125.952 -79.0823 -123.997 -80.672 -121.71 -81.61C-119.422 -82.5481 -116.906 -82.7926 -114.479 -82.3124C-112.052 -81.8322 -109.823 -80.649 -108.074 -78.9124C-106.325 -77.1757 -105.134 -74.9636 -104.652 -72.5556C-104.17 -70.1476 -104.418 -67.6519 -105.366 -65.384C-106.313 -63.1161 -107.917 -61.1777 -109.975 -59.814C-112.033 -58.4503 -114.452 -57.7224 -116.927 -57.7224C-120.246 -57.7265 -123.427 -59.0375 -125.772 -61.3673C-128.117 -63.6972 -129.434 -66.8552 -129.432 -70.1474H-129.442ZM-174.029 -70.1474C-174.025 -72.5996 -173.288 -74.9955 -171.912 -77.0325C-170.536 -79.0696 -168.582 -80.6564 -166.297 -81.5925C-164.013 -82.5285 -161.499 -82.7719 -159.075 -82.2918C-156.651 -81.8117 -154.425 -80.6296 -152.678 -78.895C-150.931 -77.1604 -149.741 -74.951 -149.259 -72.5459C-148.777 -70.1409 -149.024 -67.6481 -149.97 -65.3824C-150.915 -63.1168 -152.516 -61.1799 -154.571 -59.8165C-156.626 -58.4532 -159.042 -57.7245 -161.513 -57.7224C-163.157 -57.7238 -164.784 -58.0462 -166.302 -58.6713C-167.82 -59.2965 -169.199 -60.2121 -170.36 -61.3659C-171.521 -62.5196 -172.442 -63.889 -173.07 -65.3957C-173.697 -66.9025 -174.02 -68.5171 -174.019 -70.1474H-174.029ZM-218.625 -70.1474C-218.621 -72.5996 -217.885 -74.9955 -216.509 -77.0325C-215.133 -79.0696 -213.179 -80.6564 -210.894 -81.5925C-208.609 -82.5285 -206.096 -82.7719 -203.672 -82.2918C-201.248 -81.8117 -199.021 -80.6296 -197.274 -78.895C-195.527 -77.1604 -194.337 -74.951 -193.855 -72.5459C-193.373 -70.1409 -193.621 -67.6481 -194.566 -65.3824C-195.512 -63.1168 -197.113 -61.1799 -199.168 -59.8165C-201.222 -58.4532 -203.638 -57.7245 -206.11 -57.7224C-207.754 -57.7238 -209.381 -58.0462 -210.899 -58.6713C-212.417 -59.2965 -213.795 -60.2121 -214.957 -61.3659C-216.118 -62.5196 -217.039 -63.889 -217.666 -65.3957C-218.294 -66.9025 -218.616 -68.5171 -218.615 -70.1474H-218.625ZM182.754 -115.635C182.756 -118.09 183.491 -120.489 184.868 -122.529C186.244 -124.57 188.2 -126.159 190.487 -127.097C192.774 -128.035 195.29 -128.28 197.717 -127.8C200.144 -127.32 202.373 -126.136 204.122 -124.4C205.871 -122.663 207.062 -120.451 207.544 -118.043C208.027 -115.635 207.778 -113.139 206.831 -110.871C205.883 -108.603 204.279 -106.665 202.221 -105.301C200.163 -103.938 197.744 -103.21 195.269 -103.21C191.95 -103.214 188.769 -104.525 186.424 -106.855C184.079 -109.185 182.763 -112.343 182.764 -115.635H182.754ZM138.167 -115.635C138.171 -118.087 138.908 -120.484 140.285 -122.521C141.661 -124.558 143.616 -126.145 145.901 -127.081C148.187 -128.017 150.701 -128.259 153.125 -127.778C155.549 -127.297 157.776 -126.114 159.522 -124.378C161.269 -122.643 162.458 -120.432 162.939 -118.026C163.419 -115.621 163.171 -113.127 162.223 -110.862C161.276 -108.597 159.673 -106.66 157.617 -105.298C155.561 -103.936 153.144 -103.21 150.671 -103.21C147.354 -103.215 144.174 -104.527 141.832 -106.857C139.489 -109.187 138.175 -112.344 138.178 -115.635H138.167ZM93.5596 -115.635C93.5636 -118.087 94.3005 -120.484 95.677 -122.521C97.0535 -124.558 99.008 -126.145 101.293 -127.081C103.579 -128.017 106.092 -128.259 108.517 -127.778C110.941 -127.297 113.167 -126.114 114.914 -124.379C116.661 -122.643 117.85 -120.433 118.331 -118.027C118.812 -115.621 118.563 -113.128 117.616 -110.863C116.669 -108.597 115.066 -106.661 113.01 -105.299C110.954 -103.937 108.537 -103.21 106.065 -103.21C102.747 -103.215 99.568 -104.527 97.2253 -106.857C94.8825 -109.187 93.5681 -112.344 93.5709 -115.635H93.5596ZM48.9528 -115.635C48.9548 -118.09 49.6906 -120.489 51.067 -122.529C52.4434 -124.57 54.3987 -126.159 56.6858 -127.097C58.9728 -128.035 61.4889 -128.28 63.916 -127.8C66.343 -127.32 68.5721 -126.136 70.3214 -124.4C72.0706 -122.663 73.2616 -120.451 73.7437 -118.043C74.2257 -115.635 73.9773 -113.139 73.0297 -110.871C72.0822 -108.603 70.4781 -106.665 68.4201 -105.301C66.3622 -103.938 63.943 -103.21 61.4681 -103.21C58.1494 -103.214 54.9683 -104.525 52.6236 -106.855C50.279 -109.185 48.9627 -112.343 48.9641 -115.635H48.9528ZM4.36652 -115.635C4.37057 -118.087 5.10742 -120.484 6.48395 -122.521C7.86047 -124.558 9.81494 -126.145 12.1003 -127.081C14.3856 -128.017 16.8993 -128.259 19.3237 -127.778C21.7481 -127.297 23.9743 -126.114 25.7212 -124.379C27.468 -122.643 28.657 -120.433 29.1378 -118.027C29.6187 -115.621 29.3698 -113.128 28.4228 -110.863C27.4757 -108.597 25.8729 -106.661 23.8169 -105.299C21.7609 -103.937 19.344 -103.21 16.8716 -103.21C13.5543 -103.215 10.3749 -104.527 8.0322 -106.857C5.68948 -109.187 4.37509 -112.344 4.37781 -115.635H4.36652ZM-40.23 -115.635C-40.2259 -118.087 -39.4891 -120.484 -38.1125 -122.521C-36.7359 -124.558 -34.7814 -126.145 -32.496 -127.081C-30.2106 -128.017 -27.6969 -128.259 -25.2724 -127.778C-22.848 -127.297 -20.6217 -126.114 -18.875 -124.378C-17.1282 -122.643 -15.9393 -120.432 -15.4586 -118.026C-14.9779 -115.621 -15.2268 -113.127 -16.1741 -110.862C-17.1213 -108.597 -18.7243 -106.66 -20.7804 -105.298C-22.8365 -103.936 -25.2535 -103.21 -27.726 -103.21C-31.0429 -103.216 -34.2217 -104.528 -36.564 -106.858C-38.9063 -109.188 -40.2204 -112.344 -40.2177 -115.635H-40.23ZM-84.8378 -115.635C-84.8337 -118.087 -84.0969 -120.484 -82.7204 -122.521C-81.3438 -124.558 -79.3894 -126.145 -77.104 -127.081C-74.8187 -128.017 -72.305 -128.259 -69.8806 -127.778C-67.4562 -127.297 -65.2299 -126.114 -63.4831 -124.379C-61.7363 -122.643 -60.5474 -120.433 -60.0665 -118.027C-59.5856 -115.621 -59.8345 -113.128 -60.7816 -110.863C-61.7286 -108.597 -63.3314 -106.661 -65.3874 -105.299C-67.4434 -103.937 -69.8603 -103.21 -72.3327 -103.21C-75.6499 -103.216 -78.8289 -104.528 -81.1714 -106.857C-83.5139 -109.187 -84.8282 -112.344 -84.8255 -115.635H-84.8378ZM-129.445 -115.635C-129.443 -118.09 -128.707 -120.489 -127.33 -122.529C-125.954 -124.57 -123.999 -126.159 -121.712 -127.097C-119.425 -128.035 -116.908 -128.28 -114.481 -127.8C-112.054 -127.32 -109.825 -126.136 -108.076 -124.4C-106.327 -122.663 -105.136 -120.451 -104.654 -118.043C-104.172 -115.635 -104.42 -113.139 -105.368 -110.871C-106.315 -108.603 -107.919 -106.665 -109.977 -105.301C-112.035 -103.938 -114.454 -103.21 -116.929 -103.21C-120.248 -103.214 -123.429 -104.526 -125.773 -106.855C-128.117 -109.185 -129.434 -112.343 -129.432 -115.635H-129.445ZM-174.031 -115.635C-174.027 -118.087 -173.29 -120.483 -171.914 -122.52C-170.538 -124.557 -168.585 -126.143 -166.3 -127.08C-164.015 -128.016 -161.502 -128.259 -159.078 -127.779C-156.654 -127.299 -154.428 -126.117 -152.681 -124.383C-150.933 -122.649 -149.743 -120.439 -149.261 -118.035C-148.779 -115.63 -149.026 -113.137 -149.971 -110.871C-150.916 -108.605 -152.517 -106.668 -154.572 -105.305C-156.626 -103.941 -159.042 -103.212 -161.513 -103.21C-163.157 -103.211 -164.784 -103.534 -166.302 -104.159C-167.82 -104.784 -169.199 -105.699 -170.36 -106.853C-171.521 -108.007 -172.442 -109.376 -173.07 -110.883C-173.697 -112.39 -174.02 -114.004 -174.019 -115.635H-174.031ZM138.165 -161.112C138.169 -163.565 138.906 -165.961 140.283 -167.998C141.659 -170.036 143.614 -171.622 145.899 -172.558C148.185 -173.494 150.698 -173.736 153.123 -173.255C155.547 -172.774 157.774 -171.591 159.52 -169.856C161.267 -168.12 162.456 -165.909 162.937 -163.504C163.417 -161.098 163.168 -158.605 162.221 -156.339C161.274 -154.074 159.671 -152.138 157.615 -150.776C155.559 -149.414 153.142 -148.687 150.669 -148.687C147.352 -148.693 144.173 -150.005 141.831 -152.335C139.489 -154.665 138.175 -157.822 138.178 -161.112H138.165ZM93.5576 -161.112C93.5616 -163.565 94.2985 -165.961 95.675 -167.998C97.0515 -170.035 99.0059 -171.622 101.291 -172.558C103.577 -173.494 106.09 -173.736 108.515 -173.256C110.939 -172.775 113.165 -171.592 114.912 -169.856C116.659 -168.12 117.848 -165.91 118.329 -163.504C118.81 -161.099 118.561 -158.605 117.614 -156.34C116.667 -154.074 115.064 -152.138 113.008 -150.776C110.952 -149.414 108.535 -148.687 106.063 -148.687C102.746 -148.693 99.5668 -150.005 97.2245 -152.335C94.8823 -154.665 93.5681 -157.822 93.5709 -161.112H93.5576ZM48.9508 -161.112C48.9528 -163.567 49.6885 -165.966 51.065 -168.007C52.4414 -170.047 54.3967 -171.636 56.6837 -172.575C58.9708 -173.513 61.4869 -173.757 63.9139 -173.277C66.341 -172.797 68.57 -171.614 70.3193 -169.877C72.0685 -168.14 73.2595 -165.928 73.7416 -163.52C74.2237 -161.112 73.9752 -158.616 73.0277 -156.349C72.0801 -154.081 70.476 -152.142 68.4181 -150.779C66.3602 -149.415 63.9409 -148.687 61.466 -148.687C58.1477 -148.692 54.9671 -150.003 52.6229 -152.333C50.2787 -154.663 48.9627 -157.82 48.9641 -161.112H48.9508ZM4.3645 -161.112C4.36853 -163.565 5.10538 -165.961 6.48193 -167.998C7.85846 -170.035 9.81287 -171.622 12.0982 -172.558C14.3836 -173.494 16.8973 -173.736 19.3217 -173.256C21.746 -172.775 23.9723 -171.592 25.7191 -169.856C27.4659 -168.12 28.6549 -165.91 29.1358 -163.504C29.6166 -161.099 29.3678 -158.605 28.4207 -156.34C27.4736 -154.074 25.8708 -152.138 23.8148 -150.776C21.7588 -149.414 19.3419 -148.687 16.8695 -148.687C13.5526 -148.693 10.3737 -150.005 8.03149 -152.335C5.68921 -154.665 4.37509 -157.822 4.37781 -161.112H4.3645ZM-40.232 -161.112C-40.228 -163.565 -39.4911 -165.961 -38.1145 -167.998C-36.738 -170.036 -34.7835 -171.622 -32.4981 -172.558C-30.2127 -173.494 -27.6989 -173.736 -25.2745 -173.255C-22.8501 -172.774 -20.6238 -171.591 -18.877 -169.856C-17.1302 -168.12 -15.9414 -165.909 -15.4606 -163.504C-14.9799 -161.098 -15.2289 -158.605 -16.1761 -156.339C-17.1234 -154.074 -18.7263 -152.138 -20.7824 -150.776C-22.8386 -149.414 -25.2556 -148.687 -27.728 -148.687C-31.0446 -148.694 -34.2229 -150.006 -36.5647 -152.336C-38.9066 -154.665 -40.2204 -157.822 -40.2177 -161.112H-40.232ZM-84.8398 -161.112C-84.8358 -163.565 -84.0989 -165.961 -82.7224 -167.998C-81.3459 -170.035 -79.3914 -171.622 -77.1061 -172.558C-74.8207 -173.494 -72.307 -173.736 -69.8826 -173.256C-67.4583 -172.775 -65.232 -171.592 -63.4852 -169.856C-61.7384 -168.12 -60.5494 -165.91 -60.0686 -163.504C-59.5877 -161.099 -59.8365 -158.605 -60.7836 -156.34C-61.7307 -154.074 -63.3335 -152.138 -65.3895 -150.776C-67.4455 -149.414 -69.8624 -148.687 -72.3348 -148.687C-75.6516 -148.693 -78.8301 -150.006 -81.1721 -152.335C-83.5142 -154.665 -84.8282 -157.822 -84.8255 -161.112H-84.8398ZM-129.447 -161.112C-129.445 -163.567 -128.709 -165.966 -127.332 -168.007C-125.956 -170.047 -124.001 -171.636 -121.714 -172.575C-119.427 -173.513 -116.91 -173.757 -114.483 -173.277C-112.056 -172.797 -109.827 -171.614 -108.078 -169.877C-106.329 -168.14 -105.138 -165.928 -104.656 -163.52C-104.174 -161.112 -104.422 -158.616 -105.37 -156.349C-106.317 -154.081 -107.921 -152.142 -109.979 -150.779C-112.037 -149.415 -114.456 -148.687 -116.931 -148.687C-120.249 -148.692 -123.43 -150.004 -125.774 -152.333C-128.118 -154.663 -129.434 -157.82 -129.432 -161.112H-129.447ZM93.5565 -206.589C93.5606 -209.042 94.2974 -211.438 95.674 -213.475C97.0505 -215.513 99.0049 -217.099 101.29 -218.035C103.576 -218.971 106.089 -219.214 108.514 -218.733C110.938 -218.252 113.164 -217.069 114.911 -215.333C116.658 -213.597 117.847 -211.387 118.328 -208.981C118.809 -206.576 118.56 -204.083 117.613 -201.817C116.666 -199.552 115.063 -197.615 113.007 -196.253C110.951 -194.891 108.534 -194.164 106.062 -194.164C102.745 -194.171 99.5662 -195.483 97.2242 -197.813C94.8821 -200.142 93.5681 -203.299 93.5709 -206.589H93.5565ZM48.9498 -206.589C48.9518 -209.044 49.6875 -211.443 51.0639 -213.484C52.4404 -215.524 54.3957 -217.114 56.6827 -218.052C58.9698 -218.99 61.4858 -219.234 63.9129 -218.754C66.3399 -218.274 68.569 -217.091 70.3183 -215.354C72.0676 -213.617 73.2585 -211.405 73.7406 -208.997C74.2226 -206.589 73.9742 -204.094 73.0266 -201.826C72.0791 -199.558 70.4749 -197.619 68.4171 -196.256C66.3591 -194.892 63.9398 -194.164 61.465 -194.164C58.1469 -194.169 54.9665 -195.481 52.6225 -197.81C50.2786 -200.14 48.9627 -203.298 48.9641 -206.589H48.9498ZM4.36346 -206.589C4.36749 -209.042 5.10437 -211.438 6.4809 -213.475C7.85742 -215.513 9.81183 -217.099 12.0972 -218.035C14.3825 -218.971 16.8962 -219.214 19.3206 -218.733C21.745 -218.252 23.9713 -217.069 25.7181 -215.333C27.4649 -213.597 28.6539 -211.387 29.1347 -208.981C29.6156 -206.576 29.3667 -204.083 28.4196 -201.817C27.4726 -199.552 25.8698 -197.615 23.8138 -196.253C21.7578 -194.891 19.3409 -194.164 16.8685 -194.164C13.5517 -194.171 10.3732 -195.483 8.0311 -197.813C5.68906 -200.142 4.37509 -203.299 4.37781 -206.589H4.36346ZM-40.233 -206.589C-40.229 -209.042 -39.4921 -211.438 -38.1156 -213.475C-36.739 -215.513 -34.7845 -217.099 -32.4991 -218.035C-30.2137 -218.971 -27.6999 -219.214 -25.2755 -218.733C-22.8511 -218.252 -20.6248 -217.069 -18.8781 -215.333C-17.1313 -213.597 -15.9424 -211.387 -15.4617 -208.981C-14.9809 -206.575 -15.2299 -204.082 -16.1771 -201.816C-17.1244 -199.551 -18.7273 -197.615 -20.7835 -196.253C-22.8396 -194.891 -25.2566 -194.164 -27.729 -194.164C-31.0455 -194.171 -34.2235 -195.484 -36.5651 -197.813C-38.9067 -200.143 -40.2204 -203.299 -40.2177 -206.589H-40.233ZM-84.8408 -206.589C-84.8368 -209.042 -84.1 -211.438 -82.7234 -213.475C-81.3469 -215.513 -79.3925 -217.099 -77.1071 -218.035C-74.8218 -218.971 -72.3081 -219.214 -69.8837 -218.733C-67.4593 -218.252 -65.233 -217.069 -63.4862 -215.333C-61.7394 -213.597 -60.5504 -211.387 -60.0696 -208.981C-59.5887 -206.576 -59.8376 -204.083 -60.7846 -201.817C-61.7317 -199.552 -63.3345 -197.615 -65.3905 -196.253C-67.4465 -194.891 -69.8634 -194.164 -72.3358 -194.164C-75.6524 -194.171 -78.8307 -195.483 -81.1725 -197.813C-83.5143 -200.143 -84.8282 -203.299 -84.8255 -206.589H-84.8408ZM48.9641 -252.076C48.9661 -254.531 49.7018 -256.931 51.0783 -258.971C52.4547 -261.011 54.41 -262.601 56.6971 -263.539C58.9841 -264.477 61.5002 -264.722 63.9272 -264.241C66.3543 -263.761 68.5833 -262.578 70.3326 -260.841C72.0818 -259.105 73.2728 -256.893 73.7549 -254.485C74.237 -252.077 73.9885 -249.581 73.041 -247.313C72.0934 -245.045 70.4893 -243.107 68.4314 -241.743C66.3735 -240.379 63.9542 -239.651 61.4793 -239.651C59.8351 -239.652 58.2072 -239.974 56.6884 -240.599C55.1696 -241.224 53.7897 -242.139 52.6276 -243.293C51.4654 -244.447 50.5438 -245.816 49.9152 -247.323C49.2866 -248.83 48.9634 -250.445 48.9641 -252.076ZM4.37781 -252.076C4.38184 -254.529 5.11868 -256.925 6.49524 -258.963C7.87177 -261 9.82617 -262.587 12.1115 -263.522C14.3969 -264.458 16.9106 -264.701 19.335 -264.22C21.7593 -263.739 23.9856 -262.556 25.7325 -260.82C27.4792 -259.085 28.6682 -256.874 29.1491 -254.469C29.6299 -252.063 29.3811 -249.57 28.434 -247.304C27.4869 -245.039 25.8841 -243.103 23.8281 -241.741C21.7721 -240.378 19.3552 -239.651 16.8828 -239.651C15.2393 -239.653 13.6121 -239.975 12.0942 -240.6C10.5763 -241.226 9.19739 -242.141 8.03619 -243.295C6.875 -244.449 5.95425 -245.818 5.32654 -247.325C4.69885 -248.831 4.37646 -250.446 4.37781 -252.076ZM-40.2187 -252.076C-40.2147 -254.529 -39.4778 -256.925 -38.1012 -258.963C-36.7247 -261 -34.7702 -262.587 -32.4848 -263.523C-30.1994 -264.458 -27.6856 -264.701 -25.2612 -264.22C-22.8368 -263.739 -20.6105 -262.556 -18.8637 -260.82C-17.1169 -259.084 -15.9281 -256.874 -15.4473 -254.468C-14.9666 -252.062 -15.2156 -249.569 -16.1628 -247.304C-17.11 -245.038 -18.713 -243.102 -20.7691 -241.74C-22.8253 -240.378 -25.2423 -239.651 -27.7147 -239.651C-31.0336 -239.655 -34.2153 -240.965 -36.56 -243.296C-38.9047 -245.626 -40.2215 -248.784 -40.2187 -252.076ZM4.3573 -297.554C4.35306 -300.012 5.08408 -302.416 6.45779 -304.462C7.83154 -306.509 9.78625 -308.104 12.0746 -309.048C14.363 -309.992 16.8821 -310.241 19.3132 -309.764C21.7444 -309.287 23.9782 -308.105 25.7321 -306.368C27.486 -304.632 28.681 -302.418 29.166 -300.007C29.6511 -297.596 29.4043 -295.097 28.4569 -292.825C27.5096 -290.553 25.9041 -288.612 23.8438 -287.245C21.7836 -285.879 19.3611 -285.15 16.8828 -285.15C13.5639 -285.148 10.3799 -286.453 8.03119 -288.779C5.68246 -291.105 4.36029 -294.261 4.3573 -297.554Z" fill="#F5BDBD" fill-opacity="0.8"/>
</svg>
