<svg width="298" height="260" viewBox="0 0 298 260" fill="none" xmlns="http://www.w3.org/2000/svg">
<path opacity="0.502" d="M292.642 12.7878C292.646 15.2462 291.915 17.6504 290.541 19.6964C289.167 21.7423 287.212 23.338 284.924 24.2816C282.635 25.2251 280.116 25.4741 277.685 24.9969C275.254 24.5198 273.02 23.338 271.267 21.6011C269.513 19.8643 268.318 17.6504 267.833 15.2396C267.348 12.8289 267.595 10.3295 268.542 8.05798C269.49 5.78644 271.095 3.84479 273.155 2.47864C275.215 1.11243 277.638 0.383179 280.116 0.383179C281.76 0.381714 283.387 0.701416 284.906 1.32404C286.425 1.94666 287.806 2.86005 288.969 4.01196C290.132 5.16382 291.055 6.53174 291.685 8.03754C292.315 9.54333 292.64 11.1575 292.642 12.7878ZM248.035 58.2742C248.033 60.7292 247.297 63.1285 245.921 65.1688C244.544 67.209 242.589 68.7987 240.302 69.7368C238.015 70.6749 235.499 70.9193 233.072 70.4391C230.645 69.959 228.416 68.7758 226.666 67.0391C224.917 65.3024 223.726 63.0903 223.244 60.6823C222.762 58.2744 223.01 55.7787 223.958 53.5107C224.906 51.2428 226.51 49.3045 228.568 47.9407C230.625 46.577 233.045 45.8492 235.52 45.8492C237.164 45.8497 238.792 46.1715 240.311 46.7963C241.83 47.421 243.21 48.3364 244.372 49.4902C245.534 50.6439 246.456 52.0135 247.085 53.5207C247.713 55.0278 248.036 56.6431 248.035 58.2742ZM292.621 58.2742C292.617 60.7267 291.88 63.1231 290.504 65.1603C289.127 67.1976 287.173 68.7844 284.887 69.7202C282.602 70.6559 280.088 70.8987 277.664 70.4178C275.24 69.9369 273.013 68.7538 271.267 67.0182C269.52 65.2825 268.331 63.0722 267.85 60.6665C267.369 58.2607 267.618 55.7676 268.565 53.5021C269.512 51.2366 271.115 49.3005 273.171 47.9384C275.227 46.5762 277.644 45.8492 280.116 45.8492C281.76 45.8504 283.387 46.1727 284.905 46.7978C286.423 47.4229 287.802 48.3384 288.963 49.4922C290.125 50.646 291.046 52.0154 291.673 53.5222C292.301 55.0291 292.623 56.6437 292.621 58.2742ZM337.218 58.2742C337.214 60.7268 336.477 63.1231 335.1 65.1605C333.724 67.1978 331.769 68.7845 329.484 69.7203C327.198 70.656 324.685 70.8987 322.26 70.4177C319.836 69.9367 317.609 68.7535 315.863 67.0178C314.116 65.2821 312.927 63.0716 312.446 60.6658C311.966 58.2601 312.215 55.7669 313.162 53.5015C314.109 51.236 315.712 49.2999 317.768 47.9379C319.824 46.5758 322.241 45.849 324.714 45.8492C326.357 45.8505 327.984 46.1729 329.502 46.7981C331.02 47.4232 332.399 48.3389 333.56 49.4926C334.721 50.6464 335.642 52.0158 336.269 53.5226C336.897 55.0293 337.219 56.6439 337.218 58.2742ZM203.429 103.751C203.425 106.204 202.688 108.6 201.312 110.638C199.935 112.675 197.981 114.262 195.695 115.197C193.41 116.133 190.896 116.376 188.472 115.895C186.048 115.414 183.821 114.231 182.074 112.495C180.328 110.76 179.139 108.549 178.658 106.144C178.177 103.738 178.426 101.245 179.373 98.9793C180.32 96.7139 181.923 94.7777 183.979 93.4155C186.035 92.0534 188.452 91.3264 190.924 91.3264C192.568 91.3277 194.195 91.6501 195.713 92.2753C197.231 92.9004 198.61 93.816 199.771 94.9698C200.932 96.1235 201.853 97.4929 202.48 98.9996C203.108 100.506 203.43 102.121 203.429 103.751ZM248.036 103.751C248.034 106.206 247.298 108.606 245.922 110.646C244.545 112.686 242.59 114.276 240.303 115.214C238.016 116.152 235.5 116.396 233.073 115.916C230.646 115.436 228.417 114.253 226.667 112.516C224.918 110.78 223.727 108.567 223.245 106.16C222.763 103.752 223.011 101.256 223.959 98.9879C224.907 96.72 226.511 94.7816 228.569 93.4179C230.627 92.0542 233.046 91.3264 235.521 91.3264C237.165 91.327 238.793 91.6489 240.312 92.2737C241.83 92.8985 243.21 93.8139 244.372 94.9677C245.535 96.1214 246.456 97.491 247.085 98.9981C247.713 100.505 248.037 102.12 248.036 103.751ZM292.622 103.751C292.618 106.204 291.881 108.6 290.505 110.638C289.128 112.675 287.174 114.262 284.888 115.197C282.603 116.133 280.089 116.376 277.665 115.895C275.241 115.414 273.014 114.231 271.268 112.495C269.521 110.76 268.332 108.549 267.851 106.144C267.37 103.738 267.619 101.245 268.566 98.9793C269.513 96.7139 271.116 94.7777 273.172 93.4155C275.228 92.0534 277.645 91.3264 280.117 91.3264C281.761 91.3277 283.388 91.6501 284.906 92.2753C286.424 92.9004 287.803 93.816 288.964 94.9698C290.125 96.1235 291.046 97.4929 291.673 98.9996C292.301 100.506 292.624 102.121 292.622 103.751ZM337.219 103.751C337.215 106.204 336.478 108.6 335.101 110.638C333.725 112.675 331.77 114.262 329.485 115.197C327.199 116.133 324.686 116.376 322.261 115.895C319.837 115.414 317.61 114.231 315.864 112.495C314.117 110.759 312.928 108.549 312.447 106.143C311.967 103.737 312.216 101.244 313.163 98.9786C314.11 96.7132 315.713 94.777 317.769 93.415C319.825 92.053 322.242 91.3262 324.715 91.3264C328.034 91.3296 331.215 92.6404 333.56 94.9705C335.905 97.3006 337.221 100.459 337.219 103.751ZM381.827 103.751C381.822 106.204 381.086 108.6 379.709 110.638C378.333 112.675 376.378 114.262 374.093 115.197C371.807 116.133 369.294 116.376 366.869 115.895C364.445 115.414 362.219 114.231 360.472 112.495C358.725 110.76 357.536 108.549 357.055 106.144C356.574 103.738 356.823 101.245 357.77 98.9793C358.717 96.7139 360.32 94.7777 362.376 93.4155C364.432 92.0534 366.849 91.3264 369.321 91.3264C372.641 91.3293 375.823 92.64 378.167 94.9701C380.512 97.3002 381.829 100.459 381.827 103.751ZM158.822 149.229C158.818 151.681 158.082 154.078 156.705 156.115C155.328 158.152 153.374 159.739 151.088 160.675C148.803 161.61 146.289 161.853 143.865 161.372C141.44 160.891 139.214 159.708 137.467 157.972C135.721 156.236 134.532 154.026 134.051 151.62C133.57 149.214 133.819 146.721 134.766 144.456C135.714 142.19 137.317 140.254 139.373 138.892C141.429 137.53 143.846 136.803 146.318 136.804C147.962 136.805 149.589 137.127 151.107 137.752C152.625 138.378 154.004 139.293 155.165 140.447C156.326 141.601 157.246 142.97 157.874 144.477C158.502 145.984 158.824 147.598 158.822 149.229ZM203.43 149.229C203.426 151.681 202.689 154.077 201.313 156.115C199.936 158.152 197.982 159.739 195.696 160.675C193.411 161.61 190.897 161.853 188.473 161.372C186.049 160.891 183.822 159.708 182.076 157.973C180.329 156.237 179.14 154.027 178.659 151.621C178.178 149.215 178.427 146.722 179.374 144.456C180.321 142.191 181.924 140.255 183.98 138.893C186.036 137.531 188.453 136.804 190.925 136.804C194.244 136.807 197.426 138.117 199.771 140.447C202.116 142.777 203.433 145.936 203.43 149.229ZM248.037 149.229C248.035 151.684 247.299 154.083 245.923 156.123C244.546 158.163 242.591 159.753 240.304 160.691C238.017 161.629 235.501 161.874 233.074 161.393C230.647 160.913 228.418 159.73 226.668 157.993C224.919 156.257 223.728 154.045 223.246 151.637C222.764 149.229 223.013 146.733 223.96 144.465C224.908 142.197 226.512 140.259 228.57 138.895C230.628 137.531 233.047 136.804 235.522 136.804C238.842 136.805 242.026 138.115 244.373 140.445C246.72 142.775 248.038 145.935 248.037 149.229ZM292.623 149.229C292.619 151.681 291.882 154.077 290.506 156.115C289.129 158.152 287.175 159.739 284.889 160.675C282.604 161.61 280.09 161.853 277.666 161.372C275.242 160.891 273.015 159.708 271.269 157.973C269.522 156.237 268.333 154.027 267.852 151.621C267.371 149.215 267.62 146.722 268.567 144.456C269.514 142.191 271.117 140.255 273.173 138.893C275.229 137.531 277.646 136.804 280.118 136.804C283.437 136.807 286.619 138.117 288.964 140.447C291.309 142.777 292.626 145.936 292.623 149.229ZM337.22 149.229C337.216 151.681 336.479 154.078 335.102 156.115C333.726 158.152 331.771 159.739 329.486 160.675C327.2 161.61 324.687 161.853 322.262 161.372C319.838 160.891 317.612 159.708 315.865 157.972C314.118 156.236 312.929 154.026 312.448 151.62C311.968 149.214 312.217 146.721 313.164 144.456C314.111 142.19 315.714 140.254 317.77 138.892C319.826 137.53 322.243 136.803 324.716 136.804C328.034 136.807 331.216 138.118 333.56 140.448C335.905 142.778 337.222 145.936 337.22 149.229ZM381.828 149.229C381.823 151.681 381.087 154.077 379.71 156.115C378.334 158.152 376.379 159.739 374.094 160.675C371.808 161.61 369.295 161.853 366.87 161.372C364.446 160.891 362.22 159.708 360.473 157.973C358.726 156.237 357.537 154.027 357.056 151.621C356.575 149.215 356.824 146.722 357.771 144.456C358.718 142.191 360.321 140.255 362.377 138.893C364.433 137.531 366.85 136.804 369.322 136.804C372.641 136.807 375.823 138.118 378.168 140.448C380.513 142.778 381.83 145.936 381.828 149.229ZM426.434 149.229C426.432 151.684 425.697 154.083 424.32 156.123C422.944 158.163 420.988 159.753 418.701 160.691C416.414 161.629 413.898 161.874 411.471 161.393C409.044 160.913 406.815 159.73 405.066 157.993C403.317 156.257 402.126 154.045 401.643 151.637C401.161 149.229 401.41 146.733 402.357 144.465C403.305 142.197 404.909 140.259 406.967 138.895C409.025 137.531 411.444 136.804 413.919 136.804C417.239 136.805 420.423 138.116 422.769 140.446C425.116 142.776 426.436 145.935 426.434 149.229ZM114.238 194.706C114.236 197.161 113.5 199.56 112.124 201.6C110.748 203.641 108.792 205.23 106.505 206.168C104.218 207.106 101.702 207.351 99.275 206.871C96.848 206.39 94.6189 205.207 92.8697 203.471C91.1204 201.734 89.9294 199.522 89.4474 197.114C88.9653 194.706 89.2137 192.21 90.1613 189.942C91.1088 187.674 92.7129 185.736 94.7708 184.372C96.8287 183.009 99.248 182.281 101.723 182.281C105.043 182.283 108.227 183.593 110.573 185.923C112.92 188.253 114.24 191.412 114.238 194.706ZM158.824 194.706C158.82 197.158 158.084 199.555 156.707 201.592C155.33 203.629 153.376 205.216 151.09 206.152C148.805 207.088 146.291 207.33 143.867 206.849C141.442 206.368 139.216 205.185 137.469 203.449C135.723 201.714 134.534 199.503 134.053 197.097C133.572 194.692 133.821 192.198 134.769 189.933C135.716 187.668 137.319 185.731 139.375 184.369C141.431 183.007 143.848 182.28 146.32 182.281C149.639 182.284 152.821 183.595 155.165 185.925C157.51 188.255 158.827 191.414 158.824 194.706ZM203.432 194.706C203.428 197.158 202.691 199.555 201.315 201.592C199.938 203.629 197.984 205.216 195.699 206.152C193.413 207.088 190.899 207.33 188.475 206.849C186.051 206.368 183.824 205.185 182.078 203.45C180.331 201.714 179.142 199.504 178.661 197.098C178.18 194.692 178.429 192.199 179.376 189.934C180.323 187.668 181.926 185.732 183.982 184.37C186.038 183.008 188.455 182.281 190.927 182.281C194.246 182.284 197.427 183.595 199.772 185.925C202.116 188.255 203.435 191.414 203.432 194.706ZM248.039 194.706C248.037 197.161 247.301 199.56 245.925 201.6C244.548 203.641 242.593 205.23 240.306 206.168C238.019 207.106 235.503 207.351 233.076 206.871C230.649 206.39 228.42 205.207 226.67 203.471C224.921 201.734 223.73 199.522 223.248 197.114C222.766 194.706 223.015 192.21 223.962 189.942C224.91 187.674 226.514 185.736 228.572 184.372C230.63 183.009 233.049 182.281 235.524 182.281C238.844 182.283 242.027 183.593 244.373 185.923C246.72 188.253 248.04 191.412 248.039 194.706ZM292.625 194.706C292.621 197.158 291.884 199.555 290.508 201.592C289.131 203.629 287.177 205.216 284.892 206.152C282.606 207.088 280.093 207.33 277.668 206.849C275.244 206.368 273.017 205.185 271.271 203.45C269.524 201.714 268.335 199.504 267.854 197.098C267.373 194.692 267.622 192.199 268.569 189.934C269.516 187.668 271.119 185.732 273.175 184.37C275.231 183.008 277.648 182.281 280.12 182.281C283.439 182.284 286.62 183.595 288.965 185.925C291.309 188.255 292.628 191.414 292.625 194.706ZM337.222 194.706C337.218 197.158 336.481 199.555 335.104 201.592C333.728 203.629 331.773 205.216 329.488 206.152C327.202 207.088 324.689 207.33 322.264 206.849C319.84 206.368 317.614 205.185 315.867 203.449C314.12 201.714 312.931 199.503 312.45 197.097C311.97 194.692 312.219 192.198 313.166 189.933C314.113 187.668 315.716 185.731 317.772 184.369C319.828 183.007 322.245 182.28 324.718 182.281C328.036 182.285 331.217 183.596 333.561 185.926C335.905 188.256 337.225 191.414 337.222 194.706ZM381.83 194.706C381.826 197.158 381.089 199.555 379.712 201.592C378.336 203.629 376.381 205.216 374.096 206.152C371.811 207.088 369.297 207.33 366.872 206.849C364.448 206.368 362.222 205.185 360.475 203.45C358.728 201.714 357.539 199.504 357.058 197.098C356.577 194.692 356.826 192.199 357.773 189.934C358.72 187.668 360.323 185.732 362.379 184.37C364.435 183.008 366.852 182.281 369.325 182.281C372.643 182.284 375.824 183.596 378.169 185.926C380.513 188.256 381.832 191.414 381.83 194.706ZM426.436 194.706C426.434 197.161 425.699 199.56 424.322 201.6C422.946 203.641 420.99 205.23 418.703 206.168C416.416 207.106 413.9 207.351 411.473 206.871C409.046 206.39 406.817 205.207 405.068 203.471C403.319 201.734 402.128 199.522 401.646 197.114C401.163 194.706 401.412 192.21 402.359 189.942C403.307 187.674 404.911 185.736 406.969 184.372C409.027 183.009 411.446 182.281 413.921 182.281C417.241 182.283 420.424 183.593 422.77 185.923C425.116 188.253 426.438 191.412 426.436 194.706ZM471.023 194.706C471.019 197.158 470.282 199.554 468.905 201.591C467.529 203.629 465.575 205.215 463.29 206.151C461.005 207.087 458.491 207.33 456.067 206.85C453.643 206.369 451.416 205.186 449.669 203.451C447.922 201.716 446.733 199.506 446.252 197.101C445.771 194.695 446.019 192.202 446.965 189.936C447.912 187.671 449.514 185.734 451.569 184.372C453.625 183.009 456.041 182.281 458.513 182.281C460.157 182.282 461.784 182.604 463.302 183.23C464.82 183.855 466.199 184.77 467.36 185.924C468.521 187.078 469.442 188.447 470.07 189.954C470.697 191.461 471.024 193.075 471.023 194.706ZM69.6335 240.193C69.6294 242.646 68.8925 245.042 67.516 247.079C66.1395 249.116 64.1851 250.703 61.8997 251.639C59.6144 252.575 57.1007 252.818 54.6763 252.337C52.2519 251.856 50.0256 250.673 48.2788 248.937C46.532 247.201 45.343 244.991 44.8622 242.585C44.3813 240.18 44.6301 237.687 45.5772 235.421C46.5243 233.156 48.1271 231.219 50.1831 229.857C52.2391 228.495 54.656 227.768 57.1284 227.768C60.447 227.772 63.6281 229.083 65.9724 231.413C68.3167 233.743 69.6362 236.901 69.6335 240.193ZM114.24 240.193C114.238 242.648 113.502 245.047 112.126 247.088C110.75 249.128 108.794 250.718 106.507 251.656C104.22 252.594 101.704 252.838 99.277 252.358C96.85 251.878 94.6209 250.695 92.8717 248.958C91.1224 247.221 89.9315 245.009 89.4494 242.601C88.9673 240.193 89.2157 237.698 90.1633 235.43C91.1108 233.162 92.715 231.223 94.7729 229.86C96.8308 228.496 99.2501 227.768 101.725 227.768C105.045 227.771 108.228 229.081 110.574 231.411C112.92 233.741 114.242 236.9 114.24 240.193ZM158.826 240.193C158.822 242.646 158.086 245.042 156.709 247.079C155.332 249.117 153.378 250.703 151.093 251.639C148.807 252.575 146.293 252.818 143.869 252.337C141.445 251.856 139.218 250.672 137.472 248.937C135.725 247.201 134.536 244.991 134.055 242.585C133.574 240.179 133.823 237.686 134.771 235.42C135.718 233.155 137.321 231.219 139.377 229.857C141.433 228.495 143.85 227.768 146.322 227.768C149.641 227.772 152.822 229.083 155.166 231.413C157.51 233.743 158.829 236.901 158.826 240.193ZM203.434 240.193C203.43 242.646 202.693 245.042 201.317 247.079C199.94 249.116 197.986 250.703 195.701 251.639C193.415 252.575 190.901 252.818 188.477 252.337C186.053 251.856 183.826 250.673 182.08 248.937C180.333 247.201 179.144 244.991 178.663 242.585C178.182 240.18 178.431 237.687 179.378 235.421C180.325 233.156 181.928 231.219 183.984 229.857C186.04 228.495 188.457 227.768 190.929 227.768C194.248 227.772 197.428 229.083 199.773 231.413C202.117 233.743 203.432 236.901 203.429 240.193H203.434ZM248.041 240.193C248.039 242.648 247.303 245.047 245.927 247.088C244.55 249.128 242.595 250.718 240.308 251.656C238.021 252.594 235.505 252.838 233.078 252.358C230.651 251.878 228.422 250.695 226.673 248.958C224.923 247.221 223.732 245.009 223.25 242.601C222.768 240.193 223.017 237.698 223.964 235.43C224.912 233.162 226.516 231.223 228.574 229.86C230.632 228.496 233.051 227.768 235.526 227.768C238.845 227.771 242.028 229.081 244.374 231.411C246.72 233.741 248.037 236.9 248.036 240.193H248.041ZM292.627 240.193C292.623 242.646 291.886 245.042 290.51 247.079C289.133 249.116 287.179 250.703 284.894 251.639C282.608 252.575 280.095 252.818 277.67 252.337C275.246 251.856 273.02 250.673 271.273 248.937C269.526 247.201 268.337 244.991 267.856 242.585C267.375 240.18 267.624 237.687 268.571 235.421C269.518 233.156 271.121 231.219 273.177 229.857C275.233 228.495 277.65 227.768 280.122 227.768C283.441 227.772 286.622 229.083 288.966 231.413C291.31 233.743 292.625 236.901 292.622 240.193H292.627ZM337.224 240.193C337.22 242.646 336.483 245.042 335.106 247.079C333.73 249.117 331.775 250.703 329.49 251.639C327.204 252.575 324.691 252.818 322.266 252.337C319.842 251.856 317.616 250.672 315.869 248.937C314.122 247.201 312.933 244.991 312.452 242.585C311.972 240.179 312.221 237.686 313.168 235.42C314.115 233.155 315.718 231.219 317.774 229.857C319.83 228.495 322.247 227.768 324.72 227.768C328.038 227.773 331.218 229.084 333.562 231.414C335.905 233.744 337.22 236.902 337.218 240.193H337.224ZM381.832 240.193C381.828 242.646 381.091 245.042 379.714 247.079C378.338 249.116 376.383 250.703 374.098 251.639C371.813 252.575 369.299 252.818 366.874 252.337C364.45 251.856 362.224 250.673 360.477 248.937C358.73 247.201 357.541 244.991 357.06 242.585C356.58 240.18 356.828 237.687 357.775 235.421C358.722 233.156 360.325 231.219 362.381 229.857C364.437 228.495 366.854 227.768 369.327 227.768C372.645 227.772 375.825 229.084 378.169 231.414C380.513 233.744 381.828 236.901 381.825 240.193H381.832ZM426.438 240.193C426.436 242.648 425.701 245.047 424.324 247.088C422.948 249.128 420.992 250.718 418.705 251.656C416.418 252.594 413.902 252.838 411.475 252.358C409.048 251.878 406.819 250.695 405.07 248.958C403.321 247.221 402.13 245.009 401.648 242.601C401.166 240.193 401.414 237.698 402.362 235.43C403.309 233.162 404.913 231.223 406.971 229.86C409.029 228.496 411.448 227.768 413.923 227.768C417.243 227.771 420.425 229.082 422.771 231.412C425.117 233.742 426.434 236.9 426.432 240.193H426.438ZM471.025 240.193C471.021 242.645 470.284 245.041 468.908 247.079C467.531 249.116 465.577 250.703 463.292 251.638C461.007 252.574 458.494 252.818 456.07 252.337C453.646 251.857 451.419 250.674 449.672 248.939C447.925 247.204 446.736 244.994 446.254 242.589C445.773 240.184 446.021 237.691 446.967 235.425C447.913 233.16 449.515 231.223 451.57 229.86C453.625 228.497 456.041 227.769 458.513 227.768C460.157 227.769 461.784 228.092 463.302 228.717C464.82 229.342 466.199 230.258 467.36 231.411C468.521 232.565 469.442 233.935 470.07 235.441C470.697 236.948 471.02 238.563 471.019 240.193H471.025ZM515.621 240.193C515.617 242.645 514.88 245.041 513.504 247.079C512.128 249.116 510.174 250.703 507.889 251.638C505.604 252.574 503.091 252.818 500.666 252.337C498.242 251.857 496.016 250.674 494.269 248.939C492.522 247.204 491.332 244.994 490.851 242.589C490.369 240.184 490.617 237.691 491.563 235.425C492.509 233.16 494.111 231.223 496.166 229.86C498.222 228.497 500.638 227.769 503.11 227.768C504.754 227.769 506.381 228.092 507.899 228.717C509.417 229.342 510.795 230.258 511.957 231.411C513.118 232.565 514.039 233.935 514.666 235.441C515.294 236.948 515.616 238.563 515.615 240.193H515.621ZM69.6355 285.67C69.6315 288.123 68.8946 290.519 67.5181 292.556C66.1415 294.594 64.1871 296.18 61.9018 297.116C59.6164 298.052 57.1027 298.295 54.6783 297.814C52.2539 297.333 50.0276 296.15 48.2808 294.414C46.534 292.679 45.3451 290.468 44.8643 288.063C44.3834 285.657 44.6322 283.164 45.5793 280.898C46.5264 278.633 48.1292 276.697 50.1852 275.334C52.2412 273.972 54.6581 273.245 57.1304 273.245C60.4486 273.25 63.6293 274.561 65.9731 276.891C68.317 279.221 69.6321 282.379 69.6294 285.67H69.6355ZM114.242 285.67C114.24 288.125 113.505 290.525 112.128 292.565C110.752 294.605 108.796 296.195 106.509 297.133C104.222 298.071 101.706 298.315 99.2791 297.835C96.8521 297.355 94.623 296.172 92.8737 294.435C91.1245 292.698 89.9335 290.486 89.4514 288.078C88.9694 285.67 89.2178 283.175 90.1653 280.907C91.1129 278.639 92.717 276.701 94.7749 275.337C96.8328 273.973 99.2521 273.245 101.727 273.245C105.047 273.248 108.229 274.559 110.575 276.889C112.921 279.219 114.237 282.377 114.236 285.67H114.242ZM158.829 285.67C158.824 288.123 158.088 290.519 156.711 292.557C155.335 294.594 153.38 296.181 151.095 297.116C148.809 298.052 146.295 298.295 143.871 297.814C141.447 297.333 139.22 296.15 137.474 294.414C135.727 292.678 134.538 290.468 134.057 288.062C133.576 285.656 133.825 283.163 134.773 280.897C135.72 278.632 137.323 276.696 139.379 275.334C141.435 273.972 143.852 273.245 146.325 273.245C149.643 273.25 152.823 274.561 155.167 276.891C157.51 279.221 158.825 282.379 158.822 285.67H158.829ZM203.436 285.67C203.432 288.123 202.695 290.519 201.319 292.556C199.942 294.594 197.988 296.18 195.703 297.116C193.417 298.052 190.904 298.295 188.479 297.814C186.055 297.333 183.828 296.15 182.082 294.414C180.335 292.679 179.146 290.468 178.665 288.063C178.184 285.657 178.433 283.164 179.38 280.898C180.327 278.633 181.93 276.697 183.986 275.334C186.042 273.972 188.459 273.245 190.931 273.245C194.249 273.25 197.43 274.561 199.773 276.891C202.117 279.221 203.432 282.379 203.429 285.67H203.436ZM248.043 285.67C248.041 288.125 247.305 290.525 245.929 292.565C244.552 294.605 242.597 296.195 240.31 297.133C238.023 298.071 235.507 298.315 233.08 297.835C230.653 297.355 228.424 296.172 226.675 294.435C224.925 292.698 223.734 290.486 223.252 288.078C222.77 285.67 223.019 283.175 223.966 280.907C224.914 278.639 226.518 276.701 228.576 275.337C230.634 273.973 233.053 273.245 235.528 273.245C238.847 273.248 242.029 274.559 244.375 276.889C246.72 279.219 248.037 282.378 248.036 285.67H248.043ZM292.629 285.67C292.625 288.123 291.888 290.519 290.512 292.556C289.135 294.594 287.181 296.18 284.896 297.116C282.61 298.052 280.097 298.295 277.672 297.814C275.248 297.333 273.022 296.15 271.275 294.414C269.528 292.679 268.339 290.468 267.858 288.063C267.377 285.657 267.626 283.164 268.573 280.898C269.52 278.633 271.123 276.697 273.179 275.334C275.235 273.972 277.652 273.245 280.124 273.245C283.442 273.25 286.623 274.561 288.966 276.891C291.31 279.221 292.625 282.379 292.622 285.67H292.629ZM337.226 285.67C337.222 288.123 336.485 290.519 335.108 292.557C333.732 294.594 331.777 296.181 329.492 297.116C327.207 298.052 324.693 298.295 322.268 297.814C319.844 297.333 317.618 296.15 315.871 294.414C314.124 292.678 312.935 290.468 312.454 288.062C311.974 285.656 312.223 283.163 313.17 280.897C314.117 278.632 315.72 276.696 317.776 275.334C319.832 273.972 322.249 273.245 324.722 273.245C328.04 273.25 331.22 274.562 333.563 276.892C335.906 279.222 337.221 282.379 337.218 285.67H337.226ZM381.834 285.67C381.83 288.123 381.093 290.519 379.716 292.556C378.34 294.594 376.385 296.18 374.1 297.116C371.815 298.052 369.301 298.295 366.877 297.814C364.452 297.333 362.226 296.15 360.479 294.414C358.732 292.679 357.543 290.468 357.062 288.063C356.582 285.657 356.83 283.164 357.777 280.898C358.725 278.633 360.327 276.697 362.383 275.334C364.439 273.972 366.856 273.245 369.329 273.245C372.646 273.25 375.827 274.562 378.17 276.892C380.513 279.221 381.828 282.379 381.825 285.67H381.834ZM426.44 285.67C426.438 288.125 425.703 290.525 424.326 292.565C422.95 294.605 420.995 296.195 418.707 297.133C416.42 298.071 413.904 298.315 411.477 297.835C409.05 297.355 406.821 296.172 405.072 294.435C403.323 292.698 402.132 290.486 401.65 288.078C401.168 285.67 401.416 283.175 402.364 280.907C403.311 278.639 404.915 276.701 406.973 275.337C409.031 273.973 411.45 273.245 413.925 273.245C417.244 273.249 420.426 274.559 422.772 276.889C425.117 279.219 426.434 282.378 426.432 285.67H426.44ZM471.027 285.67C471.023 288.122 470.286 290.518 468.91 292.556C467.534 294.593 465.58 296.179 463.295 297.115C461.01 298.051 458.497 298.295 456.073 297.814C453.648 297.334 451.422 296.152 449.675 294.417C447.928 292.682 446.738 290.473 446.256 288.068C445.775 285.662 446.022 283.169 446.968 280.904C447.914 278.638 449.516 276.702 451.57 275.338C453.625 273.975 456.041 273.247 458.513 273.245C460.157 273.247 461.784 273.569 463.302 274.194C464.82 274.819 466.199 275.735 467.36 276.889C468.521 278.042 469.442 279.412 470.07 280.919C470.697 282.425 471.02 284.04 471.019 285.67H471.027ZM515.623 285.67C515.619 288.122 514.883 290.518 513.506 292.556C512.13 294.593 510.176 296.179 507.891 297.115C505.607 298.051 503.093 298.295 500.669 297.814C498.245 297.334 496.019 296.152 494.271 294.417C492.524 292.682 491.335 290.473 490.853 288.068C490.371 285.662 490.619 283.169 491.565 280.904C492.51 278.638 494.112 276.702 496.167 275.338C498.222 273.975 500.638 273.247 503.11 273.245C504.754 273.246 506.381 273.569 507.899 274.194C509.417 274.819 510.796 275.735 511.957 276.888C513.118 278.042 514.039 279.412 514.667 280.918C515.294 282.425 515.617 284.04 515.615 285.67H515.623ZM560.24 285.67C560.238 288.125 559.502 290.525 558.126 292.565C556.75 294.605 554.794 296.195 552.507 297.133C550.22 298.071 547.704 298.315 545.277 297.835C542.85 297.355 540.621 296.172 538.872 294.435C537.122 292.698 535.932 290.486 535.449 288.078C534.967 285.67 535.216 283.175 536.163 280.907C537.111 278.639 538.715 276.701 540.773 275.337C542.831 273.973 545.25 273.245 547.725 273.245C551.044 273.249 554.226 274.559 556.571 276.889C558.917 279.219 560.233 282.378 560.232 285.67H560.24ZM25.0513 285.67C25.0555 288.129 24.3245 290.533 22.9507 292.579C21.577 294.625 19.6223 296.221 17.3339 297.165C15.0456 298.108 12.5265 298.357 10.0953 297.88C7.66425 297.403 5.43042 296.222 3.67657 294.485C1.92267 292.748 0.727539 290.534 0.242493 288.123C-0.242554 285.713 0.00421143 283.213 0.951599 280.942C1.89899 278.67 3.50446 276.728 5.5647 275.362C7.625 273.996 10.0475 273.267 12.5258 273.267C15.8434 273.266 19.0256 274.572 21.3727 276.898C23.7199 279.224 25.0401 282.379 25.0431 285.67H25.0513ZM69.6375 331.147C69.6335 333.6 68.8966 335.996 67.5201 338.034C66.1436 340.071 64.1891 341.658 61.9038 342.593C59.6185 343.529 57.1048 343.772 54.6804 343.291C52.256 342.81 50.0297 341.627 48.2829 339.891C46.5361 338.156 45.3471 335.945 44.8663 333.54C44.3854 331.134 44.6342 328.641 45.5813 326.375C46.5284 324.11 48.1312 322.174 50.1872 320.812C52.2432 319.449 54.6601 318.722 57.1325 318.722C60.4503 318.727 63.6305 320.039 65.9738 322.369C68.3172 324.699 69.6321 327.856 69.6294 331.147H69.6375ZM114.244 331.147C114.242 333.602 113.507 336.002 112.13 338.042C110.754 340.082 108.798 341.672 106.511 342.61C104.224 343.548 101.708 343.793 99.2811 343.312C96.8541 342.832 94.6251 341.649 92.8758 339.912C91.1265 338.176 89.9356 335.964 89.4535 333.556C88.9714 331.148 89.2198 328.652 90.1674 326.384C91.1149 324.116 92.7191 322.178 94.777 320.814C96.8349 319.45 99.2542 318.722 101.729 318.722C105.048 318.726 108.23 320.037 110.575 322.367C112.921 324.697 114.237 327.855 114.236 331.147H114.244ZM158.831 331.147C158.827 333.6 158.09 335.996 156.713 338.034C155.337 340.071 153.382 341.658 151.097 342.594C148.811 343.529 146.297 343.772 143.873 343.291C141.449 342.81 139.222 341.627 137.476 339.891C135.729 338.155 134.54 335.945 134.059 333.539C133.578 331.133 133.827 328.64 134.775 326.375C135.722 324.109 137.325 322.173 139.381 320.811C141.437 319.449 143.854 318.722 146.327 318.722C149.644 318.727 152.824 320.039 155.168 322.369C157.511 324.699 158.825 327.856 158.822 331.147H158.831ZM203.438 331.147C203.434 333.6 202.697 335.996 201.321 338.034C199.944 340.071 197.99 341.658 195.705 342.593C193.419 343.529 190.906 343.772 188.481 343.291C186.057 342.81 183.831 341.627 182.084 339.891C180.337 338.156 179.148 335.945 178.667 333.54C178.186 331.134 178.435 328.641 179.382 326.375C180.329 324.11 181.932 322.174 183.988 320.812C186.044 319.449 188.461 318.722 190.933 318.722C194.251 318.728 197.431 320.039 199.774 322.369C202.117 324.699 203.432 327.856 203.429 331.147H203.438ZM248.045 331.147C248.043 333.602 247.307 336.002 245.931 338.042C244.555 340.082 242.599 341.672 240.312 342.61C238.025 343.548 235.509 343.793 233.082 343.312C230.655 342.832 228.426 341.649 226.677 339.912C224.927 338.176 223.736 335.964 223.254 333.556C222.772 331.148 223.021 328.652 223.968 326.384C224.916 324.116 226.52 322.178 228.578 320.814C230.636 319.45 233.055 318.722 235.53 318.722C238.849 318.726 242.031 320.037 244.376 322.367C246.721 324.697 248.037 327.855 248.036 331.147H248.045ZM292.631 331.147C292.627 333.6 291.891 335.996 290.514 338.034C289.137 340.071 287.183 341.658 284.898 342.593C282.612 343.529 280.099 343.772 277.674 343.291C275.25 342.81 273.024 341.627 271.277 339.891C269.53 338.156 268.341 335.945 267.86 333.54C267.379 331.134 267.628 328.641 268.575 326.375C269.522 324.11 271.125 322.174 273.181 320.812C275.237 319.449 277.654 318.722 280.126 318.722C283.444 318.728 286.624 320.039 288.967 322.369C291.31 324.699 292.625 327.856 292.622 331.147H292.631ZM337.228 331.147C337.224 333.6 336.487 335.996 335.11 338.034C333.734 340.071 331.779 341.658 329.494 342.594C327.209 343.529 324.695 343.772 322.27 343.291C319.846 342.81 317.62 341.627 315.873 339.891C314.126 338.155 312.937 335.945 312.457 333.539C311.976 331.133 312.225 328.64 313.172 326.375C314.119 324.109 315.722 322.173 317.778 320.811C319.834 319.449 322.251 318.722 324.724 318.722C328.041 318.728 331.221 320.04 333.563 322.37C335.906 324.7 337.22 327.857 337.218 331.147H337.228ZM381.836 331.147C381.832 333.6 381.095 335.996 379.718 338.034C378.342 340.071 376.387 341.658 374.102 342.593C371.817 343.529 369.303 343.772 366.879 343.291C364.454 342.81 362.228 341.627 360.481 339.891C358.734 338.156 357.545 335.945 357.064 333.54C356.584 331.134 356.832 328.641 357.78 326.375C358.727 324.11 360.329 322.174 362.385 320.812C364.441 319.449 366.858 318.722 369.331 318.722C372.648 318.728 375.828 320.04 378.171 322.369C380.514 324.699 381.828 327.857 381.825 331.147H381.836ZM426.442 331.147C426.44 333.602 425.705 336.002 424.328 338.042C422.952 340.082 420.997 341.672 418.71 342.61C416.422 343.548 413.906 343.793 411.479 343.312C409.052 342.832 406.823 341.649 405.074 339.912C403.325 338.176 402.134 335.964 401.652 333.556C401.17 331.148 401.418 328.652 402.366 326.384C403.313 324.116 404.917 322.178 406.975 320.814C409.033 319.45 411.452 318.722 413.927 318.722C417.246 318.726 420.427 320.037 422.772 322.367C425.117 324.697 426.434 327.855 426.432 331.147H426.442ZM471.029 331.147C471.025 333.6 470.288 335.995 468.912 338.033C467.536 340.07 465.582 341.656 463.297 342.592C461.013 343.529 458.499 343.772 456.075 343.292C453.651 342.812 451.425 341.63 449.678 339.895C447.931 338.16 446.741 335.951 446.259 333.546C445.777 331.141 446.024 328.648 446.97 326.382C447.915 324.117 449.516 322.18 451.571 320.817C453.626 319.453 456.042 318.724 458.513 318.722C460.157 318.724 461.784 319.046 463.302 319.671C464.82 320.296 466.199 321.212 467.36 322.366C468.521 323.52 469.442 324.889 470.07 326.396C470.697 327.902 471.02 329.517 471.019 331.147H471.029ZM515.625 331.147C515.621 333.6 514.885 335.995 513.509 338.033C512.133 340.07 510.179 341.656 507.894 342.592C505.609 343.529 503.096 343.772 500.672 343.292C498.248 342.812 496.021 341.63 494.274 339.895C492.527 338.16 491.337 335.951 490.855 333.546C490.373 331.141 490.621 328.648 491.566 326.382C492.512 324.117 494.113 322.18 496.168 320.817C498.222 319.453 500.638 318.724 503.11 318.722C504.754 318.724 506.381 319.046 507.899 319.671C509.417 320.296 510.795 321.212 511.957 322.366C513.118 323.52 514.039 324.889 514.666 326.396C515.294 327.902 515.616 329.517 515.615 331.147H515.625ZM114.246 376.635C114.244 379.09 113.509 381.489 112.132 383.529C110.756 385.57 108.8 387.159 106.513 388.097C104.226 389.035 101.71 389.28 99.2832 388.8C96.8561 388.32 94.6271 387.136 92.8778 385.4C91.1286 383.663 89.9377 381.451 89.4556 379.043C88.9735 376.635 89.2219 374.139 90.1694 371.871C91.117 369.603 92.7211 367.665 94.779 366.301C96.8369 364.938 99.2562 364.21 101.731 364.21C105.05 364.214 108.231 365.525 110.576 367.855C112.921 370.185 114.237 373.343 114.236 376.635H114.246ZM158.833 376.635C158.829 379.087 158.092 381.484 156.715 383.521C155.339 385.558 153.384 387.145 151.099 388.081C148.813 389.017 146.299 389.259 143.875 388.778C141.451 388.297 139.224 387.114 137.478 385.378C135.731 383.643 134.542 381.432 134.061 379.026C133.581 376.621 133.829 374.127 134.777 371.862C135.724 369.597 137.327 367.66 139.383 366.298C141.439 364.936 143.856 364.21 146.329 364.21C149.646 364.215 152.826 365.527 155.168 367.857C157.511 370.187 158.825 373.344 158.822 376.635H158.833ZM203.44 376.635C203.436 379.087 202.7 381.484 201.323 383.521C199.946 385.558 197.992 387.145 195.707 388.081C193.421 389.017 190.908 389.259 188.483 388.778C186.059 388.297 183.833 387.114 182.086 385.379C180.339 383.643 179.15 381.433 178.669 379.027C178.188 376.621 178.437 374.128 179.384 371.863C180.331 369.597 181.934 367.661 183.99 366.299C186.046 364.937 188.463 364.21 190.935 364.21C194.253 364.215 197.432 365.527 199.775 367.857C202.117 370.187 203.432 373.344 203.429 376.635H203.44ZM248.047 376.635C248.045 379.09 247.309 381.489 245.933 383.529C244.557 385.57 242.601 387.159 240.314 388.097C238.027 389.035 235.511 389.28 233.084 388.8C230.657 388.32 228.428 387.136 226.679 385.4C224.929 383.663 223.738 381.451 223.256 379.043C222.774 376.635 223.023 374.139 223.97 371.871C224.918 369.603 226.522 367.665 228.58 366.301C230.638 364.938 233.057 364.21 235.532 364.21C238.851 364.214 242.032 365.525 244.376 367.855C246.721 370.185 248.037 373.343 248.036 376.635H248.047ZM292.633 376.635C292.629 379.087 291.893 381.484 290.516 383.521C289.14 385.558 287.185 387.145 284.9 388.081C282.614 389.017 280.101 389.259 277.676 388.778C275.252 388.297 273.026 387.114 271.279 385.379C269.532 383.643 268.343 381.433 267.862 379.027C267.381 376.621 267.63 374.128 268.577 371.863C269.524 369.597 271.127 367.661 273.183 366.299C275.239 364.937 277.656 364.21 280.128 364.21C283.446 364.215 286.625 365.527 288.968 367.857C291.311 370.187 292.625 373.344 292.622 376.635H292.633ZM337.23 376.635C337.226 379.087 336.489 381.484 335.113 383.521C333.736 385.558 331.781 387.145 329.496 388.081C327.211 389.017 324.697 389.259 322.272 388.778C319.848 388.297 317.622 387.114 315.875 385.378C314.128 383.643 312.939 381.432 312.459 379.026C311.978 376.621 312.227 374.127 313.174 371.862C314.121 369.597 315.724 367.66 317.78 366.298C319.837 364.936 322.254 364.21 324.726 364.21C328.043 364.216 331.222 365.528 333.564 367.858C335.906 370.188 337.22 373.344 337.218 376.635H337.23ZM381.838 376.635C381.834 379.087 381.097 381.484 379.72 383.521C378.344 385.558 376.389 387.145 374.104 388.081C371.819 389.017 369.305 389.259 366.881 388.778C364.456 388.297 362.23 387.114 360.483 385.379C358.736 383.643 357.547 381.433 357.067 379.027C356.586 376.621 356.834 374.128 357.782 371.863C358.729 369.597 360.331 367.661 362.387 366.299C364.443 364.937 366.86 364.21 369.333 364.21C372.65 364.216 375.829 365.528 378.171 367.857C380.514 370.187 381.828 373.344 381.825 376.635H381.838ZM426.445 376.635C426.443 379.09 425.707 381.489 424.33 383.529C422.954 385.57 420.999 387.159 418.712 388.097C416.425 389.035 413.908 389.28 411.481 388.8C409.054 388.32 406.825 387.136 405.076 385.4C403.327 383.663 402.136 381.451 401.654 379.043C401.172 376.635 401.42 374.139 402.368 371.871C403.315 369.603 404.919 367.665 406.977 366.301C409.035 364.938 411.454 364.21 413.929 364.21C417.248 364.214 420.429 365.526 422.773 367.855C425.117 370.185 426.434 373.343 426.432 376.635H426.445ZM471.031 376.635C471.027 379.087 470.29 381.483 468.914 383.52C467.538 385.557 465.585 387.143 463.3 388.08C461.015 389.016 458.502 389.259 456.078 388.779C453.654 388.299 451.428 387.117 449.681 385.383C447.933 383.649 446.743 381.439 446.261 379.035C445.779 376.63 446.026 374.137 446.971 371.871C447.916 369.605 449.517 367.668 451.572 366.305C453.626 364.941 456.042 364.212 458.513 364.21C460.157 364.211 461.784 364.534 463.302 365.159C464.82 365.784 466.199 366.699 467.36 367.853C468.521 369.007 469.442 370.376 470.07 371.883C470.697 373.39 471.02 375.004 471.019 376.635H471.031ZM158.835 422.112C158.831 424.565 158.094 426.961 156.717 428.998C155.341 431.036 153.386 432.622 151.101 433.558C148.815 434.494 146.302 434.736 143.877 434.255C141.453 433.774 139.226 432.591 137.48 430.856C135.733 429.12 134.544 426.909 134.063 424.504C133.583 422.098 133.832 419.605 134.779 417.339C135.726 415.074 137.329 413.138 139.385 411.776C141.441 410.414 143.858 409.687 146.331 409.687C149.648 409.693 152.827 411.005 155.169 413.335C157.511 415.665 158.825 418.822 158.822 422.112H158.835ZM203.442 422.112C203.438 424.565 202.702 426.961 201.325 428.998C199.948 431.035 197.994 432.622 195.709 433.558C193.423 434.494 190.91 434.736 188.485 434.256C186.061 433.775 183.835 432.592 182.088 430.856C180.341 429.12 179.152 426.91 178.671 424.504C178.19 422.099 178.439 419.605 179.386 417.34C180.333 415.074 181.936 413.138 183.992 411.776C186.048 410.414 188.465 409.687 190.937 409.687C194.254 409.693 197.433 411.005 199.775 413.335C202.118 415.665 203.432 418.822 203.429 422.112H203.442ZM248.049 422.112C248.047 424.567 247.311 426.966 245.935 429.007C244.559 431.047 242.603 432.636 240.316 433.575C238.029 434.513 235.513 434.757 233.086 434.277C230.659 433.797 228.43 432.614 226.681 430.877C224.931 429.14 223.74 426.928 223.258 424.52C222.776 422.112 223.025 419.616 223.972 417.349C224.92 415.081 226.524 413.142 228.582 411.779C230.64 410.415 233.059 409.687 235.534 409.687C238.852 409.692 242.033 411.003 244.377 413.333C246.721 415.663 248.037 418.82 248.036 422.112H248.049ZM292.635 422.112C292.631 424.565 291.895 426.961 290.518 428.998C289.142 431.035 287.187 432.622 284.902 433.558C282.616 434.494 280.103 434.736 277.678 434.256C275.254 433.775 273.028 432.592 271.281 430.856C269.534 429.12 268.345 426.91 267.864 424.504C267.383 422.099 267.632 419.605 268.579 417.34C269.526 415.074 271.129 413.138 273.185 411.776C275.241 410.414 277.658 409.687 280.13 409.687C283.447 409.693 286.626 411.005 288.969 413.335C291.311 415.665 292.625 418.822 292.622 422.112H292.635ZM337.232 422.112C337.228 424.565 336.491 426.961 335.115 428.998C333.738 431.036 331.783 432.622 329.498 433.558C327.213 434.494 324.699 434.736 322.274 434.255C319.85 433.774 317.624 432.591 315.877 430.856C314.13 429.12 312.941 426.909 312.461 424.504C311.98 422.098 312.229 419.605 313.176 417.339C314.123 415.074 315.726 413.138 317.782 411.776C319.839 410.414 322.256 409.687 324.728 409.687C328.045 409.694 331.223 411.006 333.565 413.336C335.907 415.665 337.22 418.822 337.218 422.112H337.232ZM381.84 422.112C381.836 424.565 381.099 426.961 379.722 428.998C378.346 431.035 376.391 432.622 374.106 433.558C371.821 434.494 369.307 434.736 366.883 434.256C364.458 433.775 362.232 432.592 360.485 430.856C358.738 429.12 357.549 426.91 357.069 424.504C356.588 422.099 356.837 419.605 357.784 417.34C358.731 415.074 360.333 413.138 362.389 411.776C364.445 410.414 366.862 409.687 369.335 409.687C372.652 409.693 375.83 411.006 378.172 413.335C380.514 415.665 381.828 418.822 381.825 422.112H381.84ZM426.447 422.112C426.445 424.567 425.709 426.966 424.332 429.007C422.956 431.047 421.001 432.636 418.714 433.575C416.427 434.513 413.91 434.757 411.483 434.277C409.056 433.797 406.827 432.614 405.078 430.877C403.329 429.14 402.138 426.928 401.656 424.52C401.174 422.112 401.422 419.616 402.37 417.349C403.317 415.081 404.921 413.142 406.979 411.779C409.037 410.415 411.456 409.687 413.931 409.687C417.249 409.692 420.43 411.004 422.774 413.333C425.118 415.663 426.434 418.82 426.432 422.112H426.447ZM203.443 467.589C203.439 470.042 202.703 472.438 201.326 474.475C199.95 476.513 197.995 478.099 195.71 479.035C193.424 479.971 190.911 480.214 188.486 479.733C186.062 479.252 183.836 478.069 182.089 476.333C180.342 474.597 179.153 472.387 178.672 469.981C178.191 467.576 178.44 465.083 179.387 462.817C180.334 460.552 181.937 458.615 183.993 457.253C186.049 455.891 188.466 455.164 190.938 455.164C194.255 455.171 197.434 456.483 199.776 458.813C202.118 461.142 203.432 464.299 203.429 467.589H203.443ZM248.05 467.589C248.048 470.044 247.312 472.443 245.936 474.484C244.56 476.524 242.604 478.114 240.317 479.052C238.03 479.99 235.514 480.234 233.087 479.754C230.66 479.274 228.431 478.091 226.682 476.354C224.932 474.617 223.742 472.405 223.259 469.997C222.777 467.589 223.026 465.094 223.973 462.826C224.921 460.558 226.525 458.619 228.583 457.256C230.641 455.892 233.06 455.164 235.535 455.164C238.853 455.169 242.034 456.481 244.377 458.81C246.721 461.14 248.037 464.298 248.036 467.589H248.05ZM292.637 467.589C292.633 470.042 291.896 472.438 290.519 474.475C289.143 476.513 287.188 478.099 284.903 479.035C282.617 479.971 280.104 480.214 277.679 479.733C275.255 479.252 273.029 478.069 271.282 476.333C269.535 474.597 268.346 472.387 267.865 469.981C267.384 467.576 267.633 465.083 268.58 462.817C269.527 460.552 271.13 458.615 273.186 457.253C275.242 455.891 277.659 455.164 280.132 455.164C283.448 455.171 286.627 456.483 288.969 458.813C291.311 461.142 292.625 464.299 292.622 467.589H292.637ZM337.233 467.589C337.229 470.042 336.492 472.438 335.116 474.475C333.739 476.513 331.785 478.099 329.499 479.035C327.214 479.971 324.7 480.214 322.276 479.733C319.851 479.252 317.625 478.069 315.878 476.333C314.131 474.597 312.942 472.387 312.462 469.981C311.981 467.575 312.23 465.082 313.177 462.816C314.124 460.551 315.727 458.615 317.783 457.253C319.84 455.891 322.257 455.164 324.729 455.164C328.045 455.171 331.223 456.484 333.565 458.813C335.907 461.143 337.22 464.299 337.218 467.589H337.233ZM381.841 467.589C381.837 470.042 381.1 472.438 379.723 474.475C378.347 476.513 376.392 478.099 374.107 479.035C371.822 479.971 369.308 480.214 366.884 479.733C364.459 479.252 362.233 478.069 360.486 476.333C358.739 474.597 357.55 472.387 357.07 469.981C356.589 467.576 356.838 465.083 357.785 462.817C358.732 460.552 360.335 458.615 362.391 457.253C364.447 455.891 366.863 455.164 369.336 455.164C372.652 455.171 375.831 456.483 378.173 458.813C380.514 461.143 381.828 464.299 381.825 467.589H381.841ZM248.036 513.076C248.034 515.531 247.298 517.931 245.922 519.971C244.545 522.011 242.59 523.601 240.303 524.539C238.016 525.477 235.5 525.722 233.073 525.241C230.646 524.761 228.417 523.578 226.667 521.841C224.918 520.105 223.727 517.893 223.245 515.485C222.763 513.077 223.011 510.581 223.959 508.313C224.907 506.045 226.511 504.107 228.569 502.743C230.627 501.379 233.046 500.651 235.521 500.651C237.165 500.652 238.793 500.974 240.312 501.599C241.83 502.224 243.21 503.139 244.372 504.293C245.535 505.447 246.456 506.816 247.085 508.323C247.713 509.83 248.037 511.445 248.036 513.076ZM292.622 513.076C292.618 515.529 291.881 517.925 290.505 519.963C289.128 522 287.174 523.587 284.888 524.522C282.603 525.458 280.089 525.701 277.665 525.22C275.241 524.739 273.014 523.556 271.268 521.82C269.521 520.085 268.332 517.874 267.851 515.469C267.37 513.063 267.619 510.57 268.566 508.304C269.513 506.039 271.116 504.103 273.172 502.741C275.228 501.378 277.645 500.651 280.117 500.651C281.761 500.653 283.388 500.975 284.906 501.6C286.424 502.226 287.803 503.141 288.964 504.295C290.125 505.449 291.046 506.818 291.673 508.325C292.301 509.831 292.624 511.446 292.622 513.076ZM337.219 513.076C337.215 515.529 336.478 517.925 335.101 519.963C333.725 522 331.77 523.587 329.485 524.523C327.199 525.458 324.686 525.701 322.261 525.22C319.837 524.739 317.61 523.556 315.864 521.82C314.117 520.084 312.928 517.874 312.447 515.468C311.967 513.062 312.216 510.569 313.163 508.304C314.11 506.038 315.713 504.102 317.769 502.74C319.825 501.378 322.242 500.651 324.715 500.651C328.034 500.655 331.215 501.965 333.56 504.296C335.905 506.626 337.221 509.784 337.219 513.076ZM292.643 558.554C292.647 561.012 291.916 563.416 290.542 565.462C289.168 567.509 287.214 569.104 284.925 570.048C282.637 570.992 280.118 571.241 277.687 570.764C275.256 570.287 273.022 569.105 271.268 567.368C269.514 565.632 268.319 563.418 267.834 561.007C267.349 558.596 267.596 556.097 268.543 553.825C269.49 551.553 271.096 549.612 273.156 548.245C275.216 546.879 277.639 546.15 280.117 546.15C283.436 546.148 286.62 547.453 288.969 549.779C291.318 552.105 292.64 555.261 292.643 558.554Z" fill="#F5BDBD" fill-opacity="0.8"/>
</svg>
