<svg width="96" height="65" viewBox="0 0 96 65" fill="none" xmlns="http://www.w3.org/2000/svg">
<rect width="96" height="64" transform="translate(0 0.859985)" fill="white"/>
<g clip-path="url(#clip0_6744_65650)">
<g clip-path="url(#clip1_6744_65650)">
<path d="M33.5237 46.3183H32.4013L31.8402 44.7667H29.472L28.9473 46.3183H27.8418L30.123 40.2296H31.2622L33.5237 46.3183ZM31.6017 43.9334L30.7599 41.5035C30.7235 41.3802 30.6953 41.2546 30.6757 41.1275H30.6477C30.6296 41.2567 30.6015 41.3843 30.5635 41.5091L29.7217 43.939L31.6017 43.9334Z" fill="#465154"/>
<path d="M37.6631 42.3817L35.3146 45.5495H37.6631V46.3183H33.9453V45.948L36.3443 42.738H34.1754V41.9692H37.6631V42.3817Z" fill="#465154"/>
<path d="M42.2337 46.3183H41.2488V45.6309H41.232C41.1113 45.8766 40.922 46.0821 40.6869 46.2226C40.4519 46.363 40.1812 46.4323 39.9076 46.4222C38.8807 46.4222 38.3672 45.8049 38.3672 44.5703V41.9692H39.3464V44.4665C39.3464 45.2484 39.6476 45.6393 40.2499 45.6393C40.3866 45.6428 40.5223 45.6157 40.6471 45.5598C40.7719 45.504 40.8826 45.4209 40.971 45.3166C41.1654 45.0804 41.2654 44.7805 41.2516 44.4749V41.9692H42.2365L42.2337 46.3183Z" fill="#465154"/>
<path d="M45.9151 42.9092C45.7644 42.8064 45.5836 42.757 45.4016 42.7689C45.2568 42.7696 45.1144 42.8061 44.9871 42.8751C44.8599 42.9441 44.7516 43.0435 44.6721 43.1645C44.4653 43.4832 44.3669 43.8601 44.3915 44.2392V46.3211H43.3926V41.9692H44.3774V42.8643H44.3971C44.4743 42.5887 44.628 42.3406 44.8404 42.1488C45.0236 41.9834 45.2614 41.8915 45.5082 41.8906C45.6485 41.8834 45.7884 41.9114 45.9151 41.972V42.9092Z" fill="#465154"/>
<path d="M50.2713 44.4131H47.3083C47.3038 44.5841 47.3344 44.7542 47.3981 44.913C47.4618 45.0717 47.5572 45.2158 47.6787 45.3363C47.949 45.5666 48.2976 45.6842 48.6523 45.6645C49.1122 45.6666 49.5607 45.521 49.9318 45.2493V46.0433C49.4535 46.3129 48.9089 46.4423 48.3605 46.4165C48.0816 46.4317 47.8027 46.3866 47.5427 46.2845C47.2827 46.1823 47.0477 46.0255 46.8537 45.8245C46.466 45.3589 46.2712 44.7625 46.3094 44.1578C46.284 43.5485 46.4997 42.9537 46.9099 42.5023C47.0987 42.2954 47.3295 42.1313 47.587 42.0209C47.8445 41.9106 48.1225 41.8566 48.4026 41.8626C48.6601 41.8462 48.918 41.8882 49.157 41.9853C49.396 42.0825 49.61 42.2324 49.7831 42.4238C50.1324 42.8789 50.3058 43.4448 50.2713 44.0175V44.4131ZM49.3201 43.7173C49.3355 43.4216 49.2472 43.1298 49.0704 42.8923C48.9871 42.7947 48.8827 42.7175 48.765 42.6664C48.6473 42.6153 48.5195 42.5918 48.3914 42.5977C48.256 42.5957 48.1217 42.6223 47.9974 42.676C47.8731 42.7297 47.7616 42.8092 47.6702 42.9092C47.465 43.1332 47.338 43.4177 47.3083 43.7201L49.3201 43.7173Z" fill="#465154"/>
<path d="M53.4336 46.077V45.036C53.5347 45.1265 53.6469 45.2038 53.7675 45.2661C53.8989 45.3347 54.036 45.392 54.1771 45.4373C54.3185 45.4836 54.4629 45.5202 54.6093 45.5467C54.7407 45.5713 54.874 45.5844 55.0077 45.586C55.3378 45.6084 55.6673 45.5343 55.9561 45.3727C56.0571 45.3057 56.1389 45.2135 56.1935 45.1053C56.2481 44.9971 56.2736 44.8765 56.2675 44.7554C56.2708 44.6226 56.2346 44.4918 56.1637 44.3795C56.0881 44.2696 55.993 44.1745 55.8831 44.0989C55.7435 44.0027 55.5961 43.9183 55.4426 43.8463L54.9011 43.5938C54.6934 43.4834 54.5008 43.3712 54.3231 43.2571C54.1533 43.1509 53.9969 43.0246 53.8573 42.8811C53.7274 42.7455 53.6229 42.5878 53.5486 42.4153C53.47 42.2232 53.4318 42.0169 53.4364 41.8093C53.43 41.5473 53.497 41.2887 53.63 41.0629C53.7588 40.8528 53.9334 40.6744 54.1407 40.541C54.3622 40.3993 54.6059 40.2959 54.8618 40.2352C55.1316 40.1682 55.4087 40.1343 55.6867 40.1342C56.1645 40.1043 56.643 40.178 57.0896 40.3502V41.3491C56.6963 41.0862 56.2295 40.9555 55.7569 40.9759C55.6062 40.9758 55.4559 40.9899 55.3079 41.018C55.1685 41.0434 55.034 41.0907 54.9095 41.1583C54.7989 41.2201 54.7031 41.3054 54.6289 41.408C54.5536 41.5165 54.5152 41.6464 54.5195 41.7784C54.5158 41.9016 54.5449 42.0236 54.6036 42.132C54.6664 42.2418 54.7515 42.3374 54.8534 42.4125C54.9785 42.5051 55.1118 42.5859 55.2518 42.6538C55.4089 42.7324 55.5913 42.8166 55.7989 42.9064C56.0066 42.9962 56.2067 43.1121 56.3994 43.2543C56.5798 43.3696 56.7464 43.5052 56.896 43.6583C57.0363 43.8016 57.1511 43.9676 57.2355 44.1494C57.3223 44.3424 57.3654 44.5522 57.3618 44.7639C57.3705 45.0369 57.3055 45.3073 57.1738 45.5467C57.051 45.7579 56.8786 45.936 56.6716 46.0658C56.4467 46.2013 56.1998 46.2962 55.942 46.3464C55.6561 46.4073 55.3645 46.4374 55.0722 46.4362C54.9712 46.4362 54.8459 46.4287 54.6962 46.4137C54.5466 46.3987 54.3867 46.3707 54.2164 46.3295C54.0678 46.3008 53.9207 46.2643 53.7759 46.2201C53.656 46.1878 53.5409 46.1396 53.4336 46.077Z" fill="#465154"/>
<path d="M60.8422 46.4222C60.4336 46.4281 60.0281 46.3517 59.6497 46.1977C59.3041 46.0548 58.9931 45.8396 58.7378 45.5664C58.4792 45.2854 58.2797 44.9552 58.1513 44.5956C58.0087 44.195 57.9384 43.7722 57.9437 43.347C57.9379 42.8967 58.009 42.4488 58.1541 42.0226C58.2815 41.6466 58.485 41.3008 58.7518 41.0069C59.0152 40.7229 59.3381 40.5007 59.6974 40.3559C60.0934 40.1979 60.5168 40.1197 60.9432 40.1258C61.3425 40.1206 61.7388 40.197 62.1076 40.3503C62.4494 40.4941 62.7565 40.7094 63.0083 40.9816C63.2646 41.2633 63.4621 41.5934 63.5891 41.9524C63.7302 42.3524 63.7995 42.7742 63.7939 43.1982C63.8004 43.7403 63.6923 44.2777 63.4769 44.7751C63.2944 45.2043 63.0045 45.5792 62.6351 45.8638L64.4028 47.1377H62.8652L61.7793 46.2959C61.6317 46.336 61.4818 46.3669 61.3304 46.3885C61.1687 46.4115 61.0055 46.4228 60.8422 46.4222ZM60.8899 41.0153C60.6265 41.012 60.3658 41.0676 60.1267 41.178C59.8959 41.2866 59.6918 41.4447 59.529 41.641C59.3548 41.8526 59.2224 42.0954 59.139 42.3565C59.044 42.6558 58.9975 42.9684 59.0015 43.2824C58.9982 43.5943 59.0437 43.9049 59.1362 44.2027C59.2152 44.462 59.3428 44.7039 59.5122 44.9154C59.6695 45.109 59.8679 45.2653 60.093 45.3728C60.328 45.4834 60.5852 45.5391 60.845 45.5355C61.1145 45.5403 61.3821 45.4887 61.6306 45.384C61.8591 45.2844 62.0616 45.1337 62.2226 44.9435C62.3941 44.7365 62.522 44.4969 62.5986 44.2392C62.6906 43.9326 62.735 43.6137 62.7305 43.2936C62.7357 42.9665 62.6931 42.6404 62.6042 42.3256C62.5311 42.0654 62.4071 41.8222 62.2395 41.6101C62.0835 41.4186 61.8845 41.2667 61.6587 41.1668C61.416 41.0625 61.154 41.0109 60.8899 41.0153Z" fill="#465154"/>
<path d="M68.1561 46.3183H64.7891V40.2296H65.7992V45.4654H68.1617L68.1561 46.3183Z" fill="#465154"/>
<path d="M30.6758 56.7562V50.6675H32.4351C34.6798 50.6675 35.8021 51.657 35.8021 53.6361C35.8178 54.0595 35.7414 54.4812 35.5781 54.8721C35.4148 55.2631 35.1686 55.6139 34.8565 55.9004C34.16 56.4916 33.2631 56.7929 32.3509 56.7422L30.6758 56.7562ZM31.6831 51.5233V55.9032H32.4912C32.7928 55.9222 33.0952 55.88 33.3801 55.7792C33.6651 55.6784 33.9268 55.5212 34.1494 55.3168C34.3553 55.0955 34.5139 54.8345 34.6157 54.5499C34.7175 54.2653 34.7603 53.963 34.7415 53.6613C34.7415 52.2378 34.0035 51.5261 32.5277 51.5261L31.6831 51.5233Z" fill="#465154"/>
<path d="M40.0222 56.7562H39.0654V56.0772H39.0485C38.9247 56.3191 38.7348 56.5211 38.5009 56.6596C38.267 56.7981 37.9987 56.8676 37.727 56.86C37.3595 56.8803 36.9987 56.7553 36.7225 56.5121C36.6011 56.3925 36.5062 56.2488 36.4439 56.0903C36.3815 55.9318 36.3531 55.7619 36.3605 55.5918C36.3605 54.7706 36.8338 54.2917 37.7803 54.1551L39.071 53.9728C39.071 53.3536 38.7764 53.044 38.1871 53.044C37.6694 53.0435 37.1697 53.2344 36.7842 53.58V52.7185C37.2666 52.4408 37.8158 52.3001 38.3723 52.3117C39.4704 52.3117 40.0194 52.8523 40.0194 53.9335L40.0222 56.7562ZM39.0654 54.6209L38.1535 54.7472C37.9272 54.7646 37.7081 54.8347 37.5137 54.952C37.4375 55.0156 37.3782 55.097 37.341 55.1891C37.3038 55.2811 37.2899 55.3808 37.3005 55.4795C37.2979 55.5646 37.3142 55.6493 37.3482 55.7274C37.3821 55.8055 37.4329 55.8751 37.4969 55.9313C37.6444 56.0542 37.8326 56.1173 38.0244 56.108C38.1664 56.1141 38.308 56.0892 38.4393 56.0349C38.5706 55.9806 38.6886 55.8983 38.7848 55.7938C38.9778 55.5755 39.0785 55.2908 39.0654 54.9997V54.6209Z" fill="#465154"/>
<path d="M43.4108 56.7112C43.1716 56.8164 42.9114 56.8654 42.6504 56.8543C41.8067 56.8543 41.3849 56.4494 41.3849 55.6394V53.1927H40.6582V52.407H41.3849V51.3997L42.3698 51.1191V52.407H43.4108V53.1927H42.3698V55.3672C42.35 55.5649 42.3996 55.7633 42.5101 55.9284C42.5711 55.9889 42.6447 56.0352 42.7258 56.0638C42.8068 56.0924 42.8932 56.1027 42.9787 56.0939C43.1349 56.0974 43.2875 56.0468 43.4108 55.9508V56.7112Z" fill="#465154"/>
<path d="M47.6394 56.7562H46.6826V56.0772H46.6657C46.5418 56.3191 46.352 56.5211 46.1181 56.6596C45.8842 56.7981 45.6159 56.8676 45.3442 56.86C44.9767 56.8803 44.6159 56.7553 44.3397 56.5121C44.2183 56.3925 44.1234 56.2488 44.0611 56.0903C43.9987 55.9318 43.9703 55.7619 43.9777 55.5918C43.9777 54.7706 44.451 54.2917 45.3975 54.1551L46.6882 53.9728C46.6882 53.3536 46.3936 53.044 45.8043 53.044C45.2866 53.0435 44.7869 53.2344 44.4014 53.58V52.7185C44.8838 52.4408 45.433 52.3001 45.9895 52.3117C47.0875 52.3117 47.6366 52.8523 47.6366 53.9335L47.6394 56.7562ZM46.6882 54.6209L45.7763 54.7472C45.55 54.7646 45.3309 54.8347 45.1365 54.952C45.0603 55.0156 45.001 55.097 44.9638 55.1891C44.9266 55.2811 44.9127 55.3808 44.9233 55.4795C44.9207 55.5646 44.937 55.6493 44.971 55.7274C45.0049 55.8055 45.0557 55.8751 45.1197 55.9313C45.2672 56.0542 45.4554 56.1173 45.6472 56.108C45.7871 56.1117 45.9261 56.0854 46.0549 56.0307C46.1836 55.9759 46.2991 55.8942 46.3936 55.791C46.5924 55.5742 46.6982 55.2881 46.6882 54.9941V54.6209Z" fill="#465154"/>
<path d="M49.7565 56.1276H49.7284V56.7561H48.752V50.3195H49.7284V53.173H49.7452C49.8853 52.9042 50.0984 52.6802 50.3599 52.5269C50.6214 52.3736 50.9209 52.297 51.2239 52.306C51.4731 52.2911 51.7222 52.3364 51.9503 52.438C52.1783 52.5395 52.3786 52.6944 52.5343 52.8896C52.8645 53.3427 53.029 53.8954 53 54.4553C53.0321 55.0807 52.8478 55.698 52.4781 56.2034C52.3091 56.4181 52.0915 56.5896 51.8432 56.7037C51.5949 56.8179 51.323 56.8714 51.05 56.8599C50.7874 56.8713 50.5269 56.8086 50.2982 56.6792C50.0696 56.5497 49.8818 56.3586 49.7565 56.1276ZM49.7284 54.3992V54.9379C49.7207 55.2364 49.8294 55.5262 50.0314 55.746C50.1388 55.8582 50.2693 55.9458 50.4138 56.0026C50.5584 56.0595 50.7135 56.0842 50.8686 56.0751C51.0236 56.066 51.1749 56.0234 51.3118 55.9501C51.4487 55.8768 51.5681 55.7746 51.6616 55.6506C51.8893 55.2962 51.9983 54.8786 51.9731 54.4581C51.9971 54.1011 51.8981 53.7465 51.6925 53.4536C51.5989 53.3354 51.4787 53.241 51.3417 53.1781C51.2046 53.1152 51.0547 53.0856 50.9041 53.0917C50.7447 53.0866 50.5863 53.1175 50.4406 53.1821C50.2948 53.2467 50.1655 53.3434 50.0623 53.4648C49.8393 53.7243 49.7203 54.0572 49.7284 54.3992Z" fill="#465154"/>
<path d="M57.2585 56.7562H56.3017V56.0772H56.2849C56.161 56.3192 55.9711 56.5211 55.7372 56.6596C55.5034 56.7982 55.235 56.8677 54.9633 56.86C54.5958 56.8803 54.235 56.7554 53.9588 56.5121C53.8375 56.3926 53.7425 56.2489 53.6802 56.0903C53.6178 55.9318 53.5895 55.762 53.5969 55.5918C53.5969 54.7706 54.0701 54.2917 55.0166 54.1552L56.3073 53.9728C56.3073 53.3536 56.0127 53.0441 55.4235 53.0441C54.9057 53.0435 54.4061 53.2344 54.0205 53.58V52.7186C54.5057 52.4369 55.059 52.2942 55.6199 52.3061C56.7179 52.3061 57.2669 52.8467 57.2669 53.9279L57.2585 56.7562ZM56.3073 54.621L55.3954 54.7472C55.1691 54.7646 54.95 54.8348 54.7557 54.952C54.6795 55.0156 54.6202 55.0971 54.583 55.1891C54.5458 55.2811 54.5318 55.3809 54.5424 55.4795C54.5399 55.5647 54.5561 55.6493 54.5901 55.7274C54.6241 55.8055 54.6748 55.8751 54.7388 55.9313C54.8863 56.0542 55.0746 56.1173 55.2663 56.1081C55.4062 56.1118 55.5452 56.0854 55.674 56.0307C55.8028 55.976 55.9183 55.8942 56.0127 55.791C56.2115 55.5742 56.3173 55.2881 56.3073 54.9941V54.621Z" fill="#465154"/>
<path d="M58.1699 56.6215V55.718C58.517 55.9912 58.946 56.1395 59.3877 56.1388C59.9825 56.1388 60.2799 55.963 60.2799 55.6113C60.2828 55.5212 60.2562 55.4325 60.2042 55.3588C60.1483 55.2846 60.0788 55.2218 59.9993 55.1736C59.9028 55.1144 59.8003 55.0655 59.6935 55.0277L59.3007 54.8846C59.1352 54.8201 58.9741 54.7451 58.8181 54.6602C58.6853 54.5859 58.5651 54.4912 58.4617 54.3796C58.3686 54.2808 58.2961 54.1644 58.2485 54.0372C58.1974 53.8942 58.1727 53.743 58.1755 53.5911C58.1703 53.3937 58.2219 53.1989 58.3242 53.0299C58.4254 52.8674 58.5615 52.7294 58.7227 52.6259C58.8953 52.5141 59.0848 52.4308 59.2839 52.379C59.4993 52.3239 59.7209 52.2966 59.9432 52.2976C60.3105 52.2919 60.6757 52.3537 61.0207 52.48V53.3414C60.7107 53.1307 60.3432 53.0209 59.9685 53.0271C59.8551 53.0261 59.7419 53.0393 59.6318 53.0664C59.5405 53.0877 59.4533 53.1237 59.3736 53.173C59.3069 53.2141 59.2503 53.2697 59.2081 53.3358C59.1688 53.3989 59.1484 53.4719 59.1492 53.5462C59.1463 53.6297 59.1667 53.7122 59.2081 53.7847C59.253 53.8546 59.3135 53.9132 59.3849 53.9559C59.4735 54.0103 59.5676 54.0554 59.6655 54.0906L60.0414 54.2252C60.2127 54.2943 60.3803 54.372 60.5437 54.4581C60.6825 54.5334 60.81 54.6279 60.9225 54.7387C61.0255 54.8373 61.1076 54.9556 61.1638 55.0866C61.2233 55.2355 61.2519 55.3949 61.248 55.5552C61.2533 55.7584 61.2007 55.9588 61.0964 56.1332C60.9936 56.298 60.8544 56.4372 60.6896 56.5401C60.5079 56.6519 60.3087 56.7325 60.1004 56.7786C59.8704 56.8318 59.635 56.8581 59.3989 56.8571C58.9771 56.8671 58.5581 56.7867 58.1699 56.6215Z" fill="#465154"/>
<path d="M65.8333 54.851H62.8675C62.8617 55.0234 62.8916 55.1952 62.9554 55.3555C63.0191 55.5158 63.1153 55.6612 63.2379 55.7825C63.5083 56.0129 63.8569 56.1305 64.2116 56.1108C64.6715 56.1127 65.1199 55.9671 65.491 55.6956V56.4896C65.0127 56.7592 64.4682 56.8886 63.9197 56.8628C63.6408 56.8781 63.3618 56.8332 63.1018 56.731C62.8418 56.6289 62.6069 56.4719 62.413 56.2708C62.0242 55.8056 61.8284 55.2092 61.8658 54.6041C61.8401 53.9947 62.0559 53.3998 62.4663 52.9486C62.6551 52.7417 62.886 52.5776 63.1434 52.4672C63.4009 52.3569 63.679 52.3029 63.959 52.3089C64.2165 52.2925 64.4744 52.3345 64.7134 52.4316C64.9525 52.5288 65.1665 52.6787 65.3395 52.8701C65.6889 53.3252 65.8622 53.8911 65.8277 54.4638L65.8333 54.851ZM64.8794 54.1523C64.8947 53.8567 64.8064 53.5649 64.6296 53.3274C64.5464 53.2298 64.4419 53.1525 64.3242 53.1015C64.2066 53.0504 64.0788 53.0269 63.9506 53.0328C63.8152 53.0307 63.6809 53.0574 63.5566 53.1111C63.4323 53.1648 63.3208 53.2443 63.2295 53.3442C63.0242 53.5682 62.8972 53.8528 62.8675 54.1551L64.8794 54.1523Z" fill="#465154"/>
<path d="M48.0274 16.0852C42.5166 16.0852 38.0469 14.5279 38.0469 12.474V31.7166C38.0469 33.6808 42.4381 35.2969 47.8871 35.3278H48.0274C53.5381 35.3278 58.0078 33.7705 58.0078 31.7166V12.4712C58.0078 14.4718 53.5381 16.0852 48.0274 16.0852Z" fill="url(#paint0_linear_6744_65650)"/>
<path d="M58.0078 12.4711C58.0078 14.4801 53.5409 16.0823 48.0274 16.0823C42.5138 16.0823 38.0469 14.5278 38.0469 12.4711C38.0469 10.4144 42.5166 8.85999 48.0274 8.85999C53.5381 8.85999 58.0078 10.4172 58.0078 12.4711Z" fill="#E8E8E8"/>
<path d="M55.6872 12.1766C55.6872 13.4532 52.2528 14.4718 48.0272 14.4718C43.8016 14.4718 40.3672 13.4448 40.3672 12.1681C40.3672 10.8915 43.8072 9.88696 48.0272 9.88696C52.2472 9.88696 55.6872 10.9139 55.6872 12.1766Z" fill="#50E6FF"/>
<path d="M48.0266 12.7517C45.972 12.6961 43.923 12.9931 41.9688 13.6299C43.9234 14.258 45.972 14.5428 48.0238 14.4717C50.0798 14.5316 52.13 14.2257 54.0789 13.5682C52.1209 12.9614 50.0754 12.6855 48.0266 12.7517Z" fill="#198AB3"/>
<path d="M54.0984 25.8298V20.538H52.6954V26.9662H56.5254V25.8298H54.0984ZM42.9927 23.2288C42.7034 23.1125 42.4352 22.9494 42.1987 22.7462C42.1355 22.6798 42.0863 22.6013 42.054 22.5155C42.0217 22.4297 42.007 22.3383 42.0107 22.2467C42.0062 22.1556 42.0252 22.0649 42.066 21.9833C42.1068 21.9017 42.168 21.832 42.2436 21.781C42.4349 21.648 42.6647 21.5819 42.8973 21.593C43.4494 21.571 43.9935 21.7306 44.4462 22.0475V20.7091C43.9487 20.5238 43.4194 20.439 42.8889 20.4594C42.2826 20.4304 41.6857 20.6184 41.2054 20.9897C40.9945 21.1525 40.8253 21.3631 40.7117 21.6041C40.598 21.845 40.5432 22.1095 40.5516 22.3758C40.5516 23.1699 41.0511 23.7787 42.1089 24.2586C42.4527 24.4047 42.777 24.5932 43.0741 24.8197C43.1469 24.881 43.2055 24.9574 43.2457 25.0437C43.286 25.13 43.3069 25.224 43.307 25.3192C43.3069 25.4137 43.2842 25.5069 43.2408 25.5908C43.1973 25.6748 43.1344 25.7471 43.0573 25.8018C42.8452 25.9261 42.6013 25.9855 42.3558 25.9729C41.7343 25.9646 41.1366 25.7325 40.6723 25.3192V26.767C41.1865 27.0326 41.7606 27.1611 42.339 27.1402C42.9917 27.1792 43.6388 26.9984 44.1768 26.6267C44.3646 26.4481 44.5086 26.2287 44.5977 25.9853C44.6868 25.742 44.7184 25.4814 44.6903 25.2238C44.6972 24.8255 44.5585 24.4384 44.3003 24.1351C43.9339 23.7434 43.4881 23.4344 42.9927 23.2288ZM51.1298 25.6952C51.4676 25.1535 51.6467 24.5279 51.6467 23.8896C51.6467 23.2512 51.4676 22.6257 51.1298 22.084C50.8885 21.602 50.5134 21.1997 50.0495 20.9252C49.5748 20.6564 49.0378 20.5171 48.4922 20.5211C47.9035 20.508 47.322 20.6534 46.8087 20.942C46.328 21.2105 45.9338 21.6106 45.6723 22.0952C45.3968 22.6462 45.2582 23.2554 45.2683 23.8713C45.2744 24.4077 45.403 24.9355 45.6443 25.4146C45.8819 25.8959 46.2555 26.2969 46.7189 26.5678C47.1894 26.8542 47.7257 27.0146 48.2762 27.0336L49.6146 28.5908H51.4973L49.5837 26.8792C50.2247 26.6833 50.7736 26.263 51.1298 25.6952ZM49.5725 25.3051C49.4305 25.4811 49.2498 25.6218 49.0443 25.7163C48.8389 25.8107 48.6144 25.8563 48.3884 25.8495C48.1606 25.857 47.9343 25.81 47.7284 25.7124C47.5224 25.6148 47.3428 25.4694 47.2044 25.2883C46.879 24.8372 46.723 24.2858 46.7638 23.731C46.7277 23.1751 46.8875 22.6241 47.2156 22.1738C47.3623 21.9933 47.5475 21.8479 47.7578 21.7483C47.968 21.6488 48.1979 21.5976 48.4305 21.5986C48.6577 21.5888 48.8837 21.6364 49.0877 21.7369C49.2917 21.8374 49.4671 21.9877 49.5978 22.1738C49.9006 22.6343 50.0444 23.1812 50.0074 23.731C50.0685 24.2938 49.9175 24.8591 49.5837 25.3164L49.5725 25.3051Z" fill="url(#paint1_radial_6744_65650)"/>
</g>
</g>
<defs>
<linearGradient id="paint0_linear_6744_65650" x1="38.0469" y1="23.8995" x2="58.0078" y2="23.8995" gradientUnits="userSpaceOnUse">
<stop stop-color="#005BA1"/>
<stop offset="0.07" stop-color="#0060A9"/>
<stop offset="0.36" stop-color="#0071C8"/>
<stop offset="0.52" stop-color="#0078D4"/>
<stop offset="0.64" stop-color="#0074CD"/>
<stop offset="0.82" stop-color="#006ABB"/>
<stop offset="1" stop-color="#005BA1"/>
</linearGradient>
<radialGradient id="paint1_radial_6744_65650" cx="0" cy="0" r="1" gradientUnits="userSpaceOnUse" gradientTransform="translate(48.5876 24.5363) scale(11.0074)">
<stop stop-color="#F2F2F2"/>
<stop offset="0.58" stop-color="#EEEEEE"/>
<stop offset="1" stop-color="#E6E6E6"/>
</radialGradient>
<clipPath id="clip0_6744_65650">
<rect width="72" height="48" fill="white" transform="translate(12 8.85999)"/>
</clipPath>
<clipPath id="clip1_6744_65650">
<rect width="40.3147" height="48" fill="white" transform="translate(27.8418 8.85999)"/>
</clipPath>
</defs>
</svg>
