<svg width="96" height="65" viewBox="0 0 96 65" fill="none" xmlns="http://www.w3.org/2000/svg">
<rect width="96" height="64" transform="translate(0 0.859985)" fill="white"/>
<g clip-path="url(#clip0_6744_65638)">
<path fill-rule="evenodd" clip-rule="evenodd" d="M12 48.3042H14.4097V38.8843L18.1339 47.0628C18.572 48.0851 19.1562 48.4503 20.3245 48.4503C21.4929 48.4503 22.0771 48.0851 22.5152 47.0628L26.2394 38.8843V48.3042H28.6491V38.8843C28.6491 37.935 28.284 37.4969 27.4807 37.2778C25.6552 36.6937 24.4868 37.2048 23.9026 38.4462L20.2515 46.5517L16.6734 38.4462C16.1623 37.2048 14.9209 36.7667 13.0953 37.2778C12.3651 37.4969 12 37.935 12 38.8843V48.3042Z" fill="#00678F"/>
<path fill-rule="evenodd" clip-rule="evenodd" d="M30.5469 40.6369H32.9566V45.8214C32.9566 46.1135 33.0296 46.7707 34.344 46.7707C35.0012 46.7707 39.5286 46.7707 39.5286 46.7707V40.5638H41.9384C41.9384 40.5638 41.9384 48.9614 41.9384 49.0344C41.9384 51.1521 39.3826 51.5902 38.1412 51.5902H30.5469V49.9837H38.0682C39.6016 49.8377 39.4556 49.0344 39.4556 48.8154V48.1582H34.4171C32.0803 48.1582 30.5469 47.0628 30.5469 45.8945C30.5469 45.8214 30.5469 40.6369 30.5469 40.6369Z" fill="#00678F"/>
<path fill-rule="evenodd" clip-rule="evenodd" d="M81.8822 34.649C80.4218 34.576 79.2534 34.7951 78.3041 35.1602C78.0121 35.3062 77.5739 35.3062 77.5739 35.5983C77.72 35.7444 77.72 35.9634 77.866 36.1825C78.0851 36.5476 78.4502 37.0588 78.8153 37.2778C79.1804 37.5699 79.6185 37.862 79.9837 38.1541C80.7139 38.5922 81.5171 38.8843 82.1743 39.3225C82.6125 39.6146 82.9776 39.9066 83.4157 40.1987C83.6348 40.3448 83.7808 40.5639 83.9999 40.7099V40.6369C83.8538 40.4908 83.8538 40.1987 83.7078 40.0527C83.4887 39.8336 83.3427 39.6876 83.1236 39.5415C82.6125 38.8113 81.9553 38.2271 81.225 37.716C80.6409 37.2778 79.3265 36.7667 79.1074 36.1095C79.1074 36.1095 79.1074 36.1095 79.0344 36.1095C79.4725 36.0365 79.9106 35.8904 80.2757 35.8174C80.9329 35.6714 81.4441 35.6714 82.1013 35.5253C82.3934 35.4523 82.6855 35.3793 82.9776 35.2332C82.9776 35.1602 82.9776 35.0872 82.9776 35.0872C82.6125 34.7221 82.3934 34.2839 82.0283 33.9918C81.079 33.1886 80.0567 32.3853 79.0344 31.7281C78.4502 31.363 77.72 31.144 77.1358 30.7789C76.9167 30.6328 76.5516 30.6328 76.4056 30.4137C76.0404 29.9756 75.8944 29.4645 75.6753 29.0263C75.1642 28.004 74.653 26.9087 74.1419 25.8133C73.7768 25.0831 73.6307 24.3529 73.1926 23.6957C71.294 20.5557 69.2494 18.7302 66.1094 16.8316C65.4522 16.4665 64.649 16.2474 63.7727 16.1014C63.3346 16.1014 62.8234 16.0284 62.3853 16.0284C62.0932 15.8823 61.8011 15.5172 61.509 15.3711C60.7058 14.7139 58.0039 13.2535 57.2737 15.1521C56.7626 16.3204 58.0039 17.4888 58.4421 18.146C58.7342 18.5841 59.1723 19.0223 59.3914 19.5334C59.4644 19.8255 59.4644 20.1176 59.6104 20.4827C59.9025 21.286 60.1946 22.1622 60.5597 22.8924C60.7788 23.2576 60.9979 23.6957 61.2169 24.0608C61.363 24.2799 61.6551 24.3529 61.6551 24.718C61.363 25.0831 61.363 25.6673 61.2169 26.1054C60.5597 28.1501 60.7788 30.7058 61.7281 32.2393C62.0202 32.6774 62.7504 33.6998 63.6267 33.3346C64.4299 32.9695 64.2839 31.9472 64.5029 31.0709C64.5759 30.8519 64.5029 30.7058 64.649 30.5598V30.6328C64.9411 31.144 65.1601 31.6551 65.3792 32.1663C65.9634 33.0426 66.9127 33.9918 67.7889 34.649C68.2271 35.0142 68.5922 35.5253 69.1033 35.7444V35.6714C69.1033 35.6714 69.1033 35.6714 69.0303 35.6714C68.8843 35.5253 68.7382 35.4523 68.5922 35.3062C68.2271 34.9411 67.8619 34.576 67.6429 34.2109C66.8396 33.1886 66.1824 32.0202 65.5983 30.8519C65.3062 30.2677 65.0141 29.6835 64.795 29.0993C64.649 28.8803 64.649 28.5152 64.5029 28.4421C64.2108 28.8803 63.8457 29.1724 63.6267 29.6835C63.2615 30.4868 63.2615 31.4361 63.1155 32.4584C63.0425 32.4584 63.0425 32.4584 63.0425 32.5314C62.4583 32.3854 62.2392 31.8012 62.0202 31.29C61.436 29.9756 61.363 27.931 61.8741 26.3975C62.0202 26.0324 62.5313 24.791 62.3123 24.4259C62.1662 24.0608 61.8011 23.8417 61.6551 23.6227C61.436 23.2576 61.1439 22.8194 60.9978 22.4543C60.5597 21.432 60.3406 20.2636 59.8295 19.2413C59.6104 18.7302 59.2453 18.292 58.8802 17.8539C58.5151 17.3428 58.15 16.9776 57.8579 16.3935C57.7849 16.1744 57.6388 15.8823 57.7849 15.6632C57.8579 15.5172 57.9309 15.4442 58.077 15.4442C58.296 15.2251 59.0262 15.5172 59.2453 15.5902C59.9025 15.8823 60.4867 16.1014 61.0709 16.5395C61.363 16.7586 61.582 17.0507 61.9471 17.1967C62.0932 17.1967 62.2392 17.1967 62.3123 17.1967C62.8964 17.3428 63.5536 17.2697 64.1378 17.4158C65.0871 17.7079 65.9634 18.219 66.7666 18.6572C69.1763 20.1906 71.148 22.3083 72.4624 24.9371C72.6814 25.3752 72.7544 25.7403 72.9735 26.1785C73.3386 27.0547 73.8498 28.004 74.2149 28.8803C74.58 29.7565 74.9451 30.6328 75.5293 31.363C75.8214 31.7281 76.9167 31.9472 77.4279 32.1663C77.793 32.3123 78.3772 32.4584 78.6693 32.6774C79.3265 33.0426 79.9106 33.4807 80.4948 33.9188C80.9329 33.7728 81.8092 34.2839 81.8822 34.649Z" fill="#00678F"/>
<path fill-rule="evenodd" clip-rule="evenodd" d="M63.2615 18.7302C62.9694 18.7302 62.7503 18.8032 62.5312 18.8032C62.5312 18.8032 62.5312 18.8032 62.5312 18.8763C62.5312 18.8763 62.5313 18.8763 62.6043 18.8763C62.7503 19.1684 63.0424 19.3874 63.1885 19.6065C63.3345 19.8986 63.4805 20.1907 63.6266 20.4828V20.4097C63.8457 20.2637 63.9187 19.9716 63.9187 19.5335C63.8457 19.3874 63.8457 19.3144 63.6996 19.1684C63.6266 18.9493 63.4075 18.8763 63.2615 18.7302Z" fill="#00678F"/>
<path fill-rule="evenodd" clip-rule="evenodd" d="M43.6922 48.3042H50.5563C51.3595 48.3042 52.1628 48.1582 52.7469 47.8661C53.7692 47.3549 54.2804 46.7708 54.2804 45.8945V44.142C54.2804 43.4848 53.6962 42.8276 52.6009 42.3894C52.0167 42.1704 51.2865 42.0243 50.5563 42.0243H47.6354C46.6861 42.0243 46.1749 41.7322 46.1019 41.075C46.1019 41.002 46.1019 40.929 46.1019 40.8559V39.7606C46.1019 39.6876 46.1019 39.6146 46.1019 39.5415C46.2479 39.0304 46.467 38.8843 47.3433 38.8113C47.4163 38.8113 47.4893 38.8113 47.5623 38.8113H54.3534V37.2048H47.6354C46.6861 37.2048 46.1749 37.2779 45.6638 37.4239C44.2763 37.862 43.6191 38.5923 43.6191 39.7606V41.148C43.6191 42.2434 44.8605 43.1196 46.9051 43.3387C47.1242 43.3387 47.3433 43.3387 47.6354 43.3387H50.1181C50.1911 43.3387 50.3372 43.3387 50.4102 43.3387C51.1404 43.4117 51.5056 43.5578 51.7246 43.8499C51.8707 43.9959 51.9437 44.142 51.9437 44.288V45.6754C51.9437 45.8215 51.7976 46.0405 51.5786 46.2596C51.3595 46.4787 50.9944 46.5517 50.5563 46.6247C50.4832 46.6247 50.4102 46.6247 50.3372 46.6247H43.7652V48.3042H43.6922Z" fill="#E38D1A"/>
<path fill-rule="evenodd" clip-rule="evenodd" d="M69.1758 45.5294C69.1758 47.1358 70.4172 48.0851 72.8269 48.2312C73.046 48.2312 73.265 48.3042 73.5571 48.3042H79.764V46.6977H73.4841C72.0967 46.6977 71.5855 46.3326 71.5855 45.5294V37.2778H69.1758V45.5294Z" fill="#E38D1A"/>
<path fill-rule="evenodd" clip-rule="evenodd" d="M55.8125 45.6024V39.9066C55.8125 38.4462 56.8348 37.5699 58.8064 37.2778C59.0255 37.2778 59.2445 37.2778 59.4636 37.2778H63.991C64.2101 37.2778 64.4291 37.2778 64.6482 37.2778C66.6198 37.5699 67.6421 38.4462 67.6421 39.9066V45.6024C67.6421 46.7707 67.204 47.4279 66.2547 47.793L68.5914 49.9107H65.8166L63.918 48.1582L62.0194 48.3042H59.4636C59.0255 48.3042 58.5873 48.2312 58.0762 48.0851C56.6157 47.72 55.8125 46.9168 55.8125 45.6024ZM58.4413 45.4563C58.4413 45.5294 58.5143 45.6024 58.5143 45.6754C58.6604 46.3326 59.2445 46.6977 60.1938 46.6977H62.3845L60.4129 44.8722H63.1147L64.8673 46.4786C65.2324 46.2596 65.3784 46.0405 65.4514 45.6754C65.4514 45.6024 65.4514 45.5294 65.4514 45.4563V40.0527C65.4514 39.9797 65.4514 39.9066 65.4514 39.8336C65.3054 39.1764 64.7212 38.8843 63.7719 38.8843H60.1938C59.0985 38.8843 58.4413 39.3225 58.4413 40.0527V45.4563Z" fill="#E38D1A"/>
<path fill-rule="evenodd" clip-rule="evenodd" d="M80.8608 48.3042H81.2259V46.9898H81.664V46.6978H80.3496V46.9898H80.8608V48.3042ZM83.4896 48.3042H83.8547V46.6978H83.3435L82.9054 47.7931L82.4673 46.6978H81.9561V48.3042H82.2482V47.0629L82.6863 48.3042H82.9054L83.3435 47.0629V48.3042H83.4896Z" fill="#E38D1A"/>
</g>
<defs>
<clipPath id="clip0_6744_65638">
<rect width="72" height="37.4604" fill="white" transform="translate(12 14.1298)"/>
</clipPath>
</defs>
</svg>
