<svg width="96" height="65" viewBox="0 0 96 65" fill="none" xmlns="http://www.w3.org/2000/svg">
<rect width="96" height="64" transform="translate(0 0.859985)" fill="white"/>
<g clip-path="url(#clip0_6744_65676)">
<path d="M41.9606 34.2187H46.5537L44.1344 30.3092L39.6815 37.3742H37.6479L43.065 28.9067C43.2929 28.5561 43.6961 28.3633 44.1169 28.3633C44.5376 28.3633 44.9408 28.5561 45.1687 28.9067L50.6034 37.3918H48.5698L47.6231 35.814H42.9774L41.9606 34.2187ZM62.9978 35.7964V28.4334H61.2798V36.5152C61.2798 36.7431 61.3674 36.9535 61.5252 37.1113C61.7005 37.2866 61.9109 37.3742 62.1563 37.3742H69.9927L71.0095 35.7964H62.9978ZM34.5625 34.4816C36.2279 34.4816 37.5778 33.1317 37.5778 31.4663C37.5778 29.8008 36.2279 28.4509 34.5625 28.4509H27.0416V37.3918H28.7597V30.0287H34.4397C35.2462 30.0287 35.8773 30.6774 35.8773 31.4838C35.8773 32.2902 35.2286 32.9389 34.4397 32.9389H29.6012L34.7378 37.4093H37.2272L33.7911 34.4816H34.5625ZM16.4704 37.3742C13.9985 37.3742 12 35.3757 12 32.9038C12 30.4319 13.9985 28.4334 16.4704 28.4334H21.6596C24.1315 28.4334 26.13 30.4319 26.13 32.9038C26.13 35.3757 24.1315 37.3742 21.6596 37.3742H16.4704ZM21.5544 35.7964C23.1497 35.7964 24.447 34.4991 24.447 32.9038C24.447 31.3085 23.1497 30.0112 21.5544 30.0112H16.5931C14.9803 30.0112 13.683 31.3085 13.683 32.9038C13.683 34.4991 14.9803 35.7964 16.5756 35.7964H21.5544ZM54.1972 37.3742C51.7253 37.3742 49.7268 35.3757 49.7268 32.9038C49.7268 30.4319 51.7253 28.4334 54.1972 28.4334H60.3682L59.3514 30.0112H54.3024C52.7071 30.0112 51.4098 31.3085 51.4098 32.9038C51.4098 34.4991 52.7071 35.7964 54.3024 35.7964H60.4909L59.4741 37.3742H54.1972ZM75.2169 35.7964C73.9021 35.7964 72.7801 34.9024 72.4295 33.6927H79.775L80.7918 32.1149H72.4295C72.7801 30.9053 73.8846 30.0112 75.2169 30.0112H80.2659L81.2827 28.4334H75.1118C72.6399 28.4334 70.6413 30.4319 70.6413 32.9038C70.6413 35.3757 72.6399 37.3742 75.1118 37.3742H80.4237L81.4405 35.7964H75.2169Z" fill="#ED1C24"/>
<path d="M82.1947 29.3801C82.1947 28.9418 82.5454 28.5912 82.9836 28.5912C83.4219 28.5912 83.7725 28.9418 83.7725 29.3801C83.7725 29.8183 83.4219 30.169 82.9836 30.169C82.5454 30.169 82.1947 29.8183 82.1947 29.3801ZM82.9836 30.3969C83.5446 30.3969 83.9829 29.941 83.9829 29.3976C83.9829 28.8366 83.5271 28.3983 82.9836 28.3983C82.4226 28.3983 81.9844 28.8541 81.9844 29.3976C81.9844 29.941 82.4226 30.3969 82.9836 30.3969ZM82.8785 28.784C83.0362 28.784 83.0888 28.784 83.1765 28.8191C83.3693 28.8892 83.3869 29.0645 83.3869 29.1346C83.3869 29.1522 83.3869 29.1872 83.3693 29.2223C83.3518 29.2573 83.3343 29.345 83.2291 29.4151C83.2115 29.4151 83.2115 29.4326 83.1765 29.4326L83.4394 29.906H83.194L82.9661 29.4677H82.8259V29.9235H82.598V28.784H82.8785ZM82.9661 29.3099C83.0362 29.3099 83.1064 29.3099 83.159 29.2398C83.1765 29.2047 83.1765 29.1872 83.1765 29.1346C83.1765 29.082 83.1414 29.0294 83.0888 28.9944C83.0362 28.9768 82.9836 28.9768 82.8785 28.9768H82.8259V29.2924H82.9661V29.3099Z" fill="#ED1C24"/>
</g>
<defs>
<clipPath id="clip0_6744_65676">
<rect width="72" height="9.02849" fill="white" transform="translate(12 28.3457)"/>
</clipPath>
</defs>
</svg>
