<svg width="96" height="65" viewBox="0 0 96 65" fill="none" xmlns="http://www.w3.org/2000/svg">
<rect width="96" height="64" transform="translate(0 0.859985)" fill="white"/>
<g clip-path="url(#clip0_6744_65629)">
<g clip-path="url(#clip1_6744_65629)">
<path d="M58.532 24.1439L51.9579 26.2818L46.2389 28.7939L44.6354 29.2215C44.2079 29.5956 43.7803 30.0232 43.3527 30.3974C42.8717 30.8249 42.3906 31.2525 42.0165 31.5198C41.5889 31.8405 41.001 32.4284 40.7337 32.8025C40.3062 33.3904 39.932 33.9784 39.7717 34.406C39.5044 35.2611 39.6113 36.0629 40.1458 36.8646C40.8406 37.8801 42.1768 38.8422 43.7268 39.537C44.5286 39.9111 45.8648 40.3387 46.8803 40.606C48.5372 41.0335 51.7975 41.5146 53.6147 41.568C53.9889 41.568 54.4699 41.568 54.4699 41.568C54.5234 41.568 54.7906 41.0335 55.1113 40.3387C56.2337 38.0939 56.982 36.0094 57.463 34.1922C57.7302 33.1232 57.944 31.6267 58.0509 29.9163C58.1044 29.4353 58.1044 27.8318 58.0509 27.2974C57.9975 26.3887 57.944 25.6939 57.7837 24.9456C57.7837 24.8387 57.7837 24.7319 57.7837 24.7319C57.7837 24.7319 57.8371 24.6784 58.6923 24.4646L58.532 24.1439ZM57.0354 25.0525C57.0889 25.0525 57.2492 26.5491 57.3027 27.5112C57.3027 27.7249 57.3027 27.8318 57.3027 27.8318C57.2492 27.8318 56.4475 27.3508 55.913 27.0301C55.432 26.7094 54.4699 26.0681 54.3096 25.9612C54.2561 25.9077 54.2561 25.9077 54.6837 25.8008C55.3785 25.5336 56.982 25.0525 57.0354 25.0525ZM53.7216 26.1215C53.7751 26.1215 53.882 26.175 54.1492 26.3353C55.1647 26.9767 56.5544 27.7249 57.1423 27.9922C57.3027 28.0456 57.3561 28.0456 56.9285 28.3129C56.0199 28.9543 54.8975 29.5422 53.5078 30.1301C53.2406 30.237 53.0803 30.3439 53.0803 30.3439C53.0803 30.3439 53.0803 30.237 53.1337 30.0767C53.4544 28.8474 53.6682 27.6181 53.6682 26.6025C53.6682 26.1215 53.6682 26.1215 53.7216 26.1215ZM53.0268 26.3887C53.0803 26.4422 53.0268 27.5112 52.9734 27.8318C52.8665 28.5801 52.7596 29.2215 52.4923 29.9698C52.4389 30.1301 52.3854 30.2905 52.3854 30.2905C52.3854 30.2905 51.6906 29.6491 51.4768 29.3818C51.1027 28.9543 50.782 28.4732 50.5682 28.0456C50.4613 27.8318 50.301 27.4043 50.301 27.3508C50.4079 27.4043 53.0268 26.3887 53.0268 26.3887ZM49.7665 27.6715C49.7665 27.6715 49.8199 27.7784 49.8734 27.8318C50.0337 28.2594 50.4079 28.9008 50.6751 29.3284C50.9958 29.756 51.4768 30.237 51.7975 30.5577C51.9044 30.6646 52.0113 30.7715 52.0648 30.7715C52.1182 30.8249 52.1182 30.7715 51.3165 31.0922C50.3544 31.4663 49.3389 31.787 48.163 32.1611C47.8958 32.268 47.6285 32.3215 47.3079 32.4284C47.2544 32.4284 47.2544 32.4284 47.4148 32.2146C48.0027 31.306 48.8579 29.5422 49.3923 28.2594C49.4992 28.0456 49.5527 27.8318 49.5527 27.7784C49.5527 27.7249 49.6061 27.6715 49.6596 27.6715C49.713 27.6715 49.7665 27.6715 49.7665 27.6715ZM48.8044 28.0991C48.8044 28.0991 48.5906 28.6336 48.3234 29.1146C47.8424 30.0767 47.3079 30.9853 46.613 32.1077C46.5061 32.3215 46.3992 32.4818 46.3458 32.4818C46.3458 32.5353 46.2923 32.4818 46.2389 32.3749C46.0785 32.0542 45.9182 31.6267 45.8648 31.1991C45.8113 30.8249 45.8113 30.1301 45.8648 29.7025C45.9182 29.3818 45.9182 29.3818 46.0786 29.3284C46.7199 29.0077 48.751 28.0456 48.8044 28.0991ZM57.3561 28.4198V28.6336C57.3561 29.756 57.2492 31.2525 57.0889 32.3749C57.0354 32.5887 57.0354 32.7491 57.0354 32.7491C57.0354 32.7491 56.8751 32.6956 56.7147 32.6422C55.9665 32.4284 55.1647 32.0542 54.4165 31.6801C53.9354 31.4129 53.2406 30.9853 53.2406 30.9853C53.2406 30.9853 53.4544 30.8784 53.7216 30.718C54.6837 30.237 55.6458 29.6491 56.4475 29.1146C56.7682 28.9008 57.1958 28.5801 57.3027 28.4732L57.3561 28.4198ZM45.063 29.9163C45.063 29.9163 45.063 29.9698 45.063 30.1301C45.063 30.237 45.0096 30.5042 45.0096 30.6646C44.9561 31.4129 45.063 31.9473 45.4372 32.6422C45.5441 32.856 45.5975 33.0163 45.5975 33.0163C45.5441 33.0698 42.2837 34.0318 41.2682 34.2991C40.9475 34.406 40.6803 34.4594 40.6803 34.4594C40.6268 34.4594 40.6268 34.4594 40.6803 34.406C40.7872 33.6577 41.3751 32.7491 42.1234 31.9474C42.6579 31.4129 43.032 31.0922 43.7803 30.718C44.2079 30.3439 44.9561 29.9163 45.063 29.9163C45.0096 29.9163 45.0096 29.9163 45.063 29.9163ZM52.7596 31.306C52.7596 31.306 52.8665 31.3594 53.0268 31.4663C54.0958 32.1077 55.5923 32.6422 56.8216 32.9629H56.9285L56.7682 33.0698C56.1268 33.4439 53.9354 34.3525 51.7441 35.1542C51.4234 35.2611 51.1027 35.368 51.0492 35.4215C50.9958 35.4215 50.9423 35.4749 50.9423 35.4749C50.9423 35.4749 51.0492 35.3146 51.1561 35.1008C51.7975 33.9249 52.3854 32.5353 52.7061 31.5198C52.7596 31.3594 52.7596 31.306 52.7596 31.306ZM52.0113 31.5198C52.0113 31.5198 51.9578 31.6267 51.9044 31.7336C51.4768 32.8025 50.8889 33.9249 50.1941 35.2077C50.0337 35.5284 49.8734 35.7956 49.8734 35.7956C49.8734 35.7956 49.713 35.6887 49.5527 35.5818C48.4837 34.9404 47.5751 34.1387 46.9337 33.3905L46.8268 33.2836L47.2544 33.1767C48.8579 32.7491 50.2475 32.268 51.5837 31.6801C51.8509 31.6267 51.9579 31.5198 52.0113 31.5198ZM56.8751 33.2301C56.8751 33.337 56.6078 34.3525 56.394 35.1008C56.2337 35.7422 56.0734 36.2232 55.8061 37.0784C55.6992 37.4525 55.5923 37.7732 55.5923 37.7732H55.5389C54.0423 37.506 52.7596 37.1318 51.5303 36.6508C51.2096 36.4904 50.6751 36.2766 50.6751 36.2766C50.6751 36.2766 50.9423 36.1163 51.3165 35.956C53.5613 34.9939 55.913 33.8715 56.7147 33.3905C56.8216 33.2836 56.8751 33.2301 56.8751 33.2301ZM45.5975 33.6577C45.5975 33.6577 44.9561 34.5663 44.101 35.7956C43.7803 36.2232 43.4596 36.7577 43.2992 36.918C43.1389 37.1318 42.9786 37.3991 42.8717 37.5594L42.6579 37.8801L42.4441 37.6663C42.1768 37.4525 41.7493 36.9715 41.5355 36.7042C41.1079 36.1698 40.8406 35.6353 40.7337 35.1008C40.6803 34.887 40.6803 34.7267 40.7337 34.7267C40.7872 34.7267 42.1234 34.406 43.3527 34.0853C44.0475 33.9249 44.8493 33.7646 45.1165 33.6577C45.3303 33.7111 45.5975 33.6577 45.5975 33.6577ZM46.1855 33.8715L46.3458 34.0318C47.0406 34.8336 47.7889 35.4215 48.6975 35.956C48.8579 36.0629 48.9648 36.1163 48.9648 36.1163C48.9113 36.1163 45.9182 37.2387 44.4751 37.7197C43.6734 37.987 43.032 38.2008 43.032 38.2008C43.032 38.2008 42.9786 38.1473 42.9251 38.1473L42.8182 38.0939L42.9786 37.8801C43.4596 37.1853 44.0475 36.4904 45.3303 34.9404L46.1855 33.8715ZM50.1941 36.7042C50.1941 36.7042 50.4079 36.7577 50.6751 36.8646C51.3165 37.1318 51.851 37.2387 52.4923 37.4525C53.3475 37.6663 54.5768 37.8801 55.2716 37.9335C55.3785 37.9335 55.432 37.9335 55.432 37.987C55.3785 37.987 54.6837 38.2542 54.1492 38.4146C53.2941 38.6818 50.6751 39.4301 48.5906 40.0715C48.2165 40.1784 47.8423 40.2853 47.8423 40.2853C47.7889 40.2853 47.6285 40.2318 47.6285 40.2318C47.6285 40.2318 47.7354 40.0715 47.8958 39.9111C48.5906 39.056 49.3389 38.0939 49.9268 37.1853C50.0337 36.918 50.1941 36.7042 50.1941 36.7042ZM49.2854 36.7577C49.2854 36.7577 48.9648 37.3456 48.3234 38.3077C48.0561 38.7353 47.7889 39.1628 47.682 39.3232C47.5751 39.4835 47.4148 39.7508 47.3613 39.8577L47.201 40.1249H47.1475C46.9872 40.0715 45.7044 39.6439 45.3837 39.4835C44.9562 39.3232 44.5286 39.1094 44.2079 38.9491C43.8337 38.7353 43.2992 38.4146 43.3527 38.4146C43.3527 38.4146 44.0475 38.2008 44.8493 37.987C47.0406 37.3991 48.2165 37.0784 49.0182 36.8111C49.1785 36.7577 49.2854 36.7577 49.2854 36.7577ZM55.4854 38.2008C55.4854 38.2542 54.6837 40.4991 54.4165 41.1939C54.363 41.3542 54.3096 41.4077 54.3096 41.4077C54.2027 41.4077 53.0803 41.2473 52.332 41.1404C51.1027 40.9266 49.0182 40.606 48.4837 40.4456H48.3768L49.1251 40.2853C50.7285 39.9111 51.4768 39.7508 52.2251 39.4835C53.1872 39.1628 54.1492 38.7887 55.1647 38.3611C55.3251 38.2542 55.432 38.2008 55.4854 38.2008Z" fill="url(#paint0_linear_6744_65629)"/>
<path d="M51.7975 8.85779C51.6906 8.85779 49.9268 9.49917 48.8044 9.92675C47.2544 10.5681 46.0786 11.1561 45.3303 11.6371C45.0631 11.8509 44.6889 12.1716 44.6355 12.3319C44.6355 12.3854 44.582 12.4388 44.582 12.4923L45.2234 13.1336L46.8268 13.6147L50.5682 14.3095L54.8975 15.0578L54.951 14.6836C54.951 14.6836 54.951 14.6836 54.8975 14.6836L54.3096 14.5767L54.2027 14.3629C53.6148 13.3474 52.9734 12.0647 52.5993 11.2095C52.332 10.5147 52.0113 9.76641 51.851 9.23193C51.851 8.91124 51.851 8.85779 51.7975 8.85779ZM51.6906 9.12503C51.6906 9.12503 51.7441 9.28538 51.7441 9.44572C51.851 10.1405 51.9579 10.8354 52.2251 11.5302C52.3855 12.0647 52.3854 12.0647 52.1717 11.9578C51.6906 11.7974 49.3924 11.4233 47.7355 11.2095C47.4682 11.1561 47.2544 11.1561 47.2544 11.1561C47.2544 11.1561 48.4303 10.5147 48.9648 10.2474C49.713 9.92675 51.5837 9.12503 51.6906 9.12503ZM46.9337 11.3164L47.1475 11.3699C48.2165 11.744 50.8355 12.225 52.2786 12.3319C52.4389 12.3319 52.5993 12.3854 52.5993 12.3854C52.5993 12.3854 52.4389 12.4388 52.2786 12.5457C51.5837 12.9199 50.782 13.3474 50.2475 13.6681C50.0872 13.775 49.9268 13.8285 49.9268 13.8285C49.9268 13.8285 49.8199 13.8285 49.713 13.775L49.4993 13.7216L49.0182 13.2405C48.1631 12.3854 47.4682 11.744 47.201 11.4768L46.9337 11.3164ZM46.72 11.4768L47.4148 12.3319C47.7889 12.813 48.1631 13.294 48.2699 13.4009C48.3768 13.5078 48.4303 13.6147 48.4303 13.6147C48.4303 13.6147 47.4148 13.4543 46.8803 13.294C46.3458 13.1871 46.132 13.1336 45.7579 13.0267L45.4906 12.9199V12.8664C45.4906 12.5457 45.9182 12.0647 46.6131 11.5302L46.72 11.4768ZM52.6527 12.6526C52.6527 12.6526 52.7061 12.7061 52.7596 12.813C52.9199 13.1871 53.4544 14.2026 53.5613 14.3629C53.6148 14.4164 53.6682 14.4164 52.9734 14.3095C51.3165 14.0423 50.7286 13.9354 50.7286 13.9354C50.7286 13.9354 50.782 13.8819 50.8355 13.8819C51.3699 13.6147 51.9044 13.2405 52.332 12.813C52.5458 12.813 52.6527 12.7061 52.6527 12.6526Z" fill="url(#paint1_linear_6744_65629)"/>
<path d="M44.6893 12.2784C44.6893 12.2784 44.5824 12.4388 44.6893 12.706C44.7427 12.8664 44.9565 13.0802 45.1703 13.2405C45.1703 13.2405 47.3617 15.3784 47.6289 15.6991C48.8582 17.0888 49.3927 18.4784 49.4461 20.4026C49.4996 21.6319 49.2324 22.7008 48.6444 23.9836C47.6289 26.2284 45.4375 28.7405 42.0703 31.4663L42.5513 31.306C42.872 31.0922 43.2996 30.8249 44.3151 30.237C46.6669 28.9543 49.2858 27.7784 52.4927 26.5491C57.1427 24.7853 64.7858 22.7543 69.1151 22.1129L69.5427 22.0595L69.4892 21.9526C69.1151 21.3112 68.7944 20.937 68.4737 20.5629C67.5116 19.387 66.3892 18.425 64.9461 17.6233C63.022 16.5543 60.5099 15.6991 57.303 15.0577C56.7151 14.9508 55.3789 14.7371 54.3099 14.5233C52.0651 14.1491 50.5686 13.9353 48.9651 13.6681C48.3772 13.5612 47.522 13.4009 46.9341 13.294C46.6134 13.2405 46.0789 13.0802 45.5979 12.9198C45.3307 12.8129 44.7962 12.706 44.6893 12.2784ZM45.972 13.5078C45.972 13.5078 46.0789 13.5077 46.1858 13.5612C46.3996 13.6146 46.6134 13.7215 46.8806 13.775C47.0944 13.8284 47.3082 13.8819 47.522 13.9353C47.8427 13.9888 48.0565 14.0957 48.0565 14.0957C48.11 14.1491 48.591 15.7526 48.7513 16.3405C48.8048 16.5543 48.8582 16.7681 48.8582 16.7681C48.8582 16.7681 48.8048 16.7146 48.7513 16.5543C48.1634 15.5388 47.2548 14.4698 46.1858 13.6681C46.0789 13.6146 45.972 13.5078 45.972 13.5078ZM48.4306 14.2026C48.4306 14.2026 48.591 14.2026 48.6979 14.256C49.553 14.4698 51.0496 14.7371 52.0117 14.8974C52.172 14.8974 52.2789 14.9508 52.2789 14.9508C52.2789 14.9508 52.2255 15.0043 52.1186 15.0577C51.9582 15.1646 51.3168 15.5388 51.103 15.6991C50.5686 16.0733 50.0341 16.4474 49.7134 16.8215C49.553 16.9819 49.4461 17.0888 49.4461 17.0888C49.4461 17.0888 49.3927 16.9819 49.3927 16.875C49.2324 16.1802 48.8582 15.1646 48.4841 14.4698C48.4306 14.3095 48.4306 14.2026 48.4306 14.2026ZM52.7065 15.0043C52.7599 15.0043 52.7599 15.1646 52.8668 15.5388C53.0272 16.2336 53.1341 17.0353 53.0806 17.7836C53.0806 17.9974 53.0806 18.2112 53.0272 18.2112V18.2646L52.7599 18.1577C52.2255 17.9974 51.3703 17.7302 50.622 17.5164C50.1944 17.4095 49.8737 17.3026 49.8737 17.3026C49.8737 17.2491 50.5151 16.6612 50.7289 16.4474C51.3168 16.0198 52.653 15.0043 52.7065 15.0043ZM53.0272 15.0577C53.0272 15.0577 55.0582 15.3784 56.0203 15.5922C56.7151 15.7526 57.7306 15.9129 57.7841 15.9664C57.8375 15.9664 57.7306 16.0198 57.3565 16.1802C56.0737 16.7681 55.0582 17.3026 54.0961 17.9439C53.8289 18.1043 53.6151 18.2646 53.6151 18.2646C53.6151 18.2646 53.6151 18.1043 53.6151 17.9439C53.6151 16.9819 53.4013 16.0733 53.0806 15.2715C53.0806 15.1646 53.0272 15.0577 53.0272 15.0577ZM58.3185 16.1267C58.3185 16.1267 58.2651 16.5543 58.2117 16.7681C58.0513 17.5164 57.5703 18.5853 56.9823 19.6543C56.8754 19.8146 56.7686 19.975 56.7686 19.975C56.7686 19.975 56.6082 19.9215 56.4479 19.8146C55.8599 19.4939 55.2185 19.1733 54.5237 18.8526C54.3099 18.7457 54.1496 18.6922 54.1496 18.6922C54.0961 18.6388 55.6996 17.6233 56.5548 17.0888C57.1961 16.6612 58.3185 16.0733 58.3185 16.1267ZM58.6927 16.1802C58.7461 16.1802 59.6547 16.4474 60.1358 16.5543C61.3116 16.875 62.6478 17.4095 63.503 17.7836L63.8771 17.9439L63.6099 17.9974C61.472 18.4784 59.6548 19.0664 57.891 19.7612C57.7306 19.8146 57.6237 19.8681 57.6237 19.8681C57.6237 19.8681 57.6772 19.7612 57.7306 19.6008C58.2651 18.4784 58.5858 17.3026 58.6927 16.2871C58.6392 16.2336 58.6927 16.1802 58.6927 16.1802ZM49.7134 18.2112C49.7134 18.2112 50.4082 18.3715 50.7824 18.4784C51.3703 18.6388 52.5462 19.0129 52.5462 19.0664C52.5462 19.0664 52.3858 19.1733 52.2789 19.3336C51.6375 19.8681 50.9961 20.456 50.2479 21.1508C50.0341 21.3646 49.8203 21.525 49.8203 21.525V21.4715C49.9272 20.6164 49.9272 19.5474 49.7668 18.4784C49.7134 18.3715 49.7134 18.2112 49.7134 18.2112ZM64.1978 18.2646C64.1978 18.2646 63.8772 18.7991 63.6634 19.0664C63.3427 19.4939 62.9151 20.0819 61.953 21.3112C61.4185 21.9526 60.8306 22.7008 60.6703 22.9681C60.4565 23.2353 60.2961 23.4491 60.2961 23.4491C60.2961 23.4491 60.2427 23.3422 60.1358 23.2353C59.6013 22.3801 58.9065 21.6853 58.1048 21.0439C57.9444 20.937 57.7841 20.7767 57.7306 20.7233C57.6772 20.6698 57.6237 20.6698 57.6237 20.6163C57.6237 20.6163 58.4789 20.2422 59.1203 19.975C60.2427 19.4939 61.7927 18.9595 62.9151 18.6388C63.5565 18.425 64.1978 18.2112 64.1978 18.2646ZM64.572 18.3181C64.572 18.3181 64.7323 18.3715 64.8392 18.4784C66.0685 19.1732 67.2444 20.0819 68.153 20.9905C68.4202 21.2577 69.0616 21.8991 69.0616 21.9526C69.0616 21.9526 68.8478 21.9526 68.5806 22.006C66.4961 22.1663 63.8237 22.5939 61.2582 23.2353C61.0978 23.2888 60.9375 23.2888 60.9375 23.2888C60.9375 23.2888 61.0979 23.075 61.3651 22.8612C62.8616 21.4181 63.5565 20.5095 64.3582 18.8526C64.4651 18.5853 64.572 18.3715 64.572 18.3181ZM53.5082 19.4939C53.5617 19.4939 54.203 19.8146 54.6841 20.0284C55.1117 20.2422 55.8065 20.6163 55.8599 20.6163C55.8599 20.6163 55.6461 20.7232 55.3254 20.8836C54.4168 21.3646 53.6151 21.7922 52.7599 22.2732C52.5461 22.4336 52.3324 22.5405 52.3324 22.5405C52.3324 22.5405 52.3324 22.5405 52.4392 22.2732C52.8668 21.4715 53.241 20.5095 53.4548 19.5474C53.5082 19.4939 53.5082 19.4939 53.5082 19.4939ZM52.8668 19.6008C52.8668 19.6008 52.7065 20.2422 52.5996 20.5629C52.3858 21.2043 52.0651 22.006 51.7444 22.5939C51.691 22.7543 51.5306 22.9146 51.4772 23.075L51.3703 23.2888L51.103 23.0215C50.7824 22.7008 50.5151 22.5405 50.1944 22.3267C50.0341 22.2732 49.9806 22.2198 49.9806 22.1663C49.9806 22.1129 50.8358 21.3646 51.4772 20.7767C51.9048 20.3491 52.8668 19.5474 52.8668 19.6008ZM56.822 21.2043L57.0892 21.3646C57.6237 21.7388 58.3185 22.2198 58.7996 22.6474C59.0668 22.8612 59.6013 23.3957 59.7617 23.5026L59.8151 23.556L59.3875 23.6629C57.1427 24.3043 55.3789 24.8388 53.2944 25.587C53.0806 25.6939 52.8668 25.7474 52.8668 25.7474C52.8134 25.7474 52.8134 25.7474 53.3479 25.3198C54.6306 24.0905 55.8065 22.8077 56.6616 21.4715L56.822 21.2043ZM55.8065 21.4715C55.8065 21.4715 55.1117 22.4336 54.7375 22.9681C54.2565 23.6094 53.4013 24.6784 52.8134 25.3732C52.5462 25.6405 52.3324 25.9077 52.3324 25.9077C52.3324 25.9077 52.3324 25.8543 52.3324 25.7474C52.3324 25.1594 52.172 24.5181 51.9048 23.9836C51.7979 23.7698 51.7444 23.7163 51.7979 23.6629C51.9048 23.556 53.3479 22.7543 54.2565 22.2732C54.791 21.9526 55.753 21.4715 55.8065 21.4715ZM49.4996 23.0215C49.4996 23.0215 49.6065 23.075 49.7668 23.1284C50.0875 23.2888 50.3548 23.5025 50.622 23.7163C50.622 23.7163 50.5151 23.8232 50.3548 23.9301C49.8737 24.2508 49.1789 24.7853 48.7513 25.1594C48.3237 25.4801 48.3238 25.5336 48.3238 25.4267C48.6444 24.9456 48.8048 24.625 48.9651 24.3043C49.1255 23.9836 49.2858 23.6094 49.3927 23.2888C49.4462 23.1284 49.4996 23.0215 49.4996 23.0215ZM51.2099 24.3043C51.2099 24.3043 51.2634 24.3577 51.4237 24.5181C51.691 24.9456 51.9048 25.4801 51.9582 25.9612V26.0681L51.2634 26.3353C50.0341 26.8163 48.9117 27.2974 48.1634 27.6181C47.9496 27.725 47.5755 27.8853 47.3617 27.9922C47.0944 28.0991 46.9341 28.206 46.9341 28.206C46.9341 28.206 47.0944 28.0991 47.2548 27.9387C48.7513 26.8698 50.0341 25.6939 50.9962 24.5181C51.1031 24.4112 51.1565 24.3043 51.2099 24.3043ZM50.4082 24.5181C50.4082 24.5181 49.8737 25.1594 49.4996 25.587C48.5375 26.5491 47.5755 27.3508 46.3996 28.0456C46.2393 28.1525 46.1324 28.206 46.0789 28.2594C46.0255 28.2594 46.0789 28.206 46.6134 27.6715C46.9341 27.2974 47.2013 27.0301 47.4686 26.656C47.6824 26.3887 47.6824 26.3888 47.9496 26.175C48.7513 25.6405 50.4082 24.4646 50.4082 24.5181Z" fill="url(#paint2_radial_6744_65629)"/>
<path d="M28.9784 45.0244C28.8845 45.0244 28.7905 45.0244 28.6966 45.0244C26.8179 45.1183 25.5968 45.9637 24.8453 47.5606C24.1878 48.9696 24.2817 50.8482 24.8453 52.3512C25.5029 53.7602 26.5361 54.5117 28.3209 54.7935C28.6966 54.8874 28.9784 55.0753 29.6359 55.9207L30.4813 56.9539H32.0782L31.1389 55.8267C30.5753 55.2631 30.1056 54.6995 30.1056 54.6995C30.1056 54.6995 30.2935 54.5116 30.5753 54.5116C31.5146 54.2298 32.2661 53.5723 32.7357 52.4451C33.2054 51.5997 33.2054 51.3179 33.2993 50.2846C33.3933 46.997 31.7025 45.0244 28.9784 45.0244ZM30.3874 53.3845C29.6359 53.7602 28.5087 53.8541 27.7573 53.5723C27.0058 53.2905 26.2543 52.4451 25.8786 51.5997C25.5029 50.5664 25.5968 48.7817 25.9725 47.9363C26.6301 46.6212 27.5694 46.0576 28.8845 46.0576C30.8571 46.0576 31.9843 47.2788 32.0782 49.5332C32.1721 51.4118 31.6085 52.8209 30.3874 53.3845ZM58.1917 47.7484C57.5342 47.7484 56.9706 48.0302 56.6888 48.5938L56.407 49.0635V47.9363H55.2798V54.6056H56.407V52.4451C56.407 50.4725 56.407 50.2846 56.6888 49.721C57.0645 48.9696 57.722 48.5938 58.2856 48.7817L58.6614 48.8756V47.7484H58.1917ZM51.3346 47.6545C51.1467 47.6545 50.8649 47.6545 50.5831 47.7484C48.9862 48.1242 48.1408 49.6271 48.2348 51.224C48.2348 52.539 48.5166 53.1966 49.0802 53.8541C50.3952 54.8874 51.5224 54.9813 53.0254 54.4177C53.3072 54.3238 53.589 54.1359 53.589 54.1359V53.1026L53.0254 53.3845C51.8042 53.9481 50.771 53.948 50.0195 53.2905C49.5498 52.8208 49.362 52.1633 49.268 51.5058H53.9647V50.5664C54.0586 48.7817 52.9314 47.6545 51.3346 47.6545ZM49.4559 50.6604C49.4559 50.6604 49.6438 49.5332 50.3013 49.0635C50.5831 48.8756 50.9588 48.7817 51.3346 48.7817C51.7103 48.7817 51.9921 48.8756 52.3678 49.1574C52.9314 49.6271 53.0254 50.7543 53.0254 50.7543L49.4559 50.6604ZM21.1819 49.4392C19.8669 48.6878 19.3033 48.1242 19.3972 47.4666C19.5851 45.6819 21.8395 45.8698 23.0606 46.6212V45.4001C23.0606 45.4001 22.4031 45.1183 21.3698 45.1183C19.8669 45.1183 18.9275 45.588 18.4578 46.6212C17.8003 48.1242 18.3639 49.2514 20.5244 50.4725C21.7455 51.13 22.2152 51.7876 22.2152 52.4451C22.2152 53.8541 20.5244 54.3238 18.8336 53.4784C18.6457 53.1026 18.3639 53.0087 18.27 53.0087C18.176 53.3844 18.27 54.3238 18.27 54.3238C18.27 54.3238 18.8336 54.5117 19.5851 54.6995C21.5577 55.0753 23.3424 54.1359 23.4363 52.7269C23.6242 51.3179 23.1545 50.5664 21.1819 49.4392ZM68.6183 47.6545C68.4304 47.6545 68.1486 47.6545 67.8668 47.7484C66.27 48.1242 65.4246 49.6271 65.5185 51.224C65.5185 52.539 65.8003 53.1966 66.3639 53.8541C67.679 54.8874 68.8062 54.9813 70.4031 54.4177C70.6849 54.3238 70.9667 54.1359 70.9667 54.1359V53.1026L70.4031 53.3845C69.1819 53.9481 68.1486 53.948 67.3972 53.2905C66.9275 52.8208 66.7396 52.2572 66.5518 51.5058H71.2485V50.5664C71.2485 48.7817 70.2152 47.6545 68.6183 47.6545ZM66.6457 50.5664C66.6457 50.5664 66.8336 49.4392 67.4911 48.9696C67.7729 48.7817 68.1487 48.6878 68.5244 48.6878C68.9001 48.6878 69.1819 48.7817 69.5577 49.0635C70.1213 49.5332 70.2152 50.6604 70.2152 50.6604L66.6457 50.5664ZM45.2289 49.4392C43.9138 48.6878 43.4442 48.1242 43.4442 47.4666C43.632 45.6819 45.8864 45.8698 47.1076 46.6212V45.4001C47.1076 45.4001 46.45 45.1183 45.4168 45.1183C43.9138 45.1183 42.9745 45.588 42.5048 46.6212C41.8473 48.1242 42.4109 49.2514 44.5714 50.4725C45.7925 51.13 46.2622 51.7876 46.2622 52.4451C46.2622 53.8541 44.5714 54.3238 42.8806 53.4784C42.5048 53.2905 42.223 53.1966 42.223 53.1966C42.1291 53.5723 42.223 54.5116 42.223 54.5116C42.223 54.5116 42.7866 54.6995 43.5381 54.8874C45.5107 55.2631 47.2954 54.3238 47.3894 52.9148C47.5772 51.3179 47.1076 50.5664 45.2289 49.4392ZM75.4755 47.7484C74.8179 47.7484 74.2543 48.0302 73.9725 48.5938L73.6907 49.0635V47.9363H72.5635V54.6056H73.6907V52.4451C73.6907 50.4725 73.6907 50.2846 73.9725 49.721C74.3483 48.9696 75.0058 48.5938 75.5694 48.7817L75.9451 48.8756V47.7484H75.4755ZM35.9295 49.4392V45.2122H34.7083V54.6056H39.6868V53.4784H35.9295V49.4392ZM63.1702 50.7543L62.2308 53.2905L61.2915 50.7543L60.3522 47.9363H59.131C59.8825 50.1907 60.7279 52.4451 61.6672 54.6056C62.043 54.6056 62.4187 54.6056 62.7944 54.6056L64.1095 51.3179L65.4246 47.9363H64.2974C64.2034 47.8424 63.7338 49.2514 63.1702 50.7543ZM38.6535 42.5821C38.8414 42.5821 39.0293 42.4882 39.1232 42.3942C39.2171 42.3003 39.3111 42.1124 39.3111 41.9246C39.3111 41.7367 39.2171 41.5488 39.1232 41.4549C39.0293 41.361 38.8414 41.267 38.6535 41.267C38.4657 41.267 38.2778 41.361 38.1839 41.4549C37.996 41.5488 37.996 41.7367 37.996 41.9246C37.996 42.1124 38.0899 42.3003 38.1839 42.3942C38.2778 42.4882 38.4657 42.5821 38.6535 42.5821ZM38.1839 41.5488C38.2778 41.4549 38.4657 41.361 38.6535 41.361C38.8414 41.361 38.9353 41.4549 39.0293 41.5488C39.1232 41.6428 39.2171 41.8306 39.2171 41.9246C39.2171 42.1124 39.1232 42.2064 39.0293 42.3942C38.9353 42.4882 38.7475 42.5821 38.6535 42.5821C38.4657 42.5821 38.3717 42.4882 38.2778 42.3942C38.1839 42.3003 38.0899 42.1124 38.0899 41.9246C37.996 41.7367 38.0899 41.6428 38.1839 41.5488ZM38.4657 42.0185C38.5596 42.0185 38.6535 42.1124 38.6535 42.2064L38.7475 42.3942H38.9353L38.8414 42.2064C38.8414 42.1124 38.7475 42.0185 38.6535 42.0185C38.7475 42.0185 38.7475 42.0185 38.8414 41.9246C38.8414 41.9246 38.9353 41.8306 38.9353 41.7367C38.9353 41.6428 38.9353 41.6428 38.8414 41.5488C38.7475 41.5488 38.7475 41.4549 38.5596 41.4549H38.2778V42.3003H38.3717L38.4657 42.0185ZM38.4657 41.5488H38.5596C38.6535 41.5488 38.6535 41.5488 38.7475 41.5488V41.6428C38.7475 41.7367 38.6535 41.8306 38.5596 41.8306H38.4657V41.5488ZM19.0215 41.9246C19.0215 41.6428 19.0215 41.361 19.0215 41.267C19.0215 41.4549 19.1154 41.5488 19.1154 41.6428L20.2426 44.179H20.4305L21.5577 41.6428C21.5577 41.5488 21.6516 41.4549 21.6516 41.361C21.6516 41.6428 21.6516 41.8306 21.6516 42.0185V44.2729H22.0273V40.7974H21.5577L20.5244 43.1457C20.5244 43.2396 20.4305 43.3336 20.3365 43.5214C20.3365 43.4275 20.2426 43.3336 20.1487 43.1457L19.1154 40.7974H18.6457V44.085H19.0215V41.9246ZM22.8727 41.9246H23.2485V43.9911H22.8727V41.9246ZM23.0606 41.1731C23.1545 41.1731 23.1545 41.1731 23.2485 41.0792C23.2485 41.0792 23.3424 40.9852 23.3424 40.8913C23.3424 40.7974 23.3424 40.7974 23.2485 40.7034C23.1545 40.7034 23.1545 40.6095 23.0606 40.6095C22.9667 40.6095 22.9667 40.6095 22.8727 40.7034C22.8727 40.7034 22.7788 40.7974 22.7788 40.8913C22.7788 40.9852 22.7788 40.9852 22.8727 41.0792C22.8727 41.1731 22.9667 41.1731 23.0606 41.1731ZM25.5968 43.9911V43.6154C25.4089 43.7093 25.2211 43.8032 25.0332 43.8032C24.7514 43.8032 24.5635 43.7093 24.4696 43.5214C24.2817 43.3336 24.2817 43.1457 24.2817 42.8639C24.2817 42.5821 24.3757 42.3942 24.5635 42.2064C24.7514 42.0185 24.9393 41.9246 25.1271 41.9246C25.315 41.9246 25.5029 42.0185 25.6907 42.1124V41.7367C25.4089 41.7367 25.2211 41.7367 25.0332 41.7367C24.6575 41.7367 24.3757 41.8306 24.0939 42.1124C23.906 42.3942 23.7181 42.676 23.7181 43.0518C23.7181 43.4275 23.8121 43.7093 23.9999 43.8972C24.1878 44.085 24.4696 44.2729 24.8453 44.2729C25.2211 44.179 25.4089 44.179 25.5968 43.9911ZM26.5361 42.9578C26.5361 42.676 26.6301 42.4882 26.724 42.3003C26.8179 42.2064 27.0058 42.1124 27.0997 42.1124C27.1937 42.1124 27.2876 42.1124 27.3815 42.2064V41.7367C27.2876 41.7367 27.2876 41.7367 27.1937 41.7367C27.0997 41.7367 26.9119 41.7367 26.8179 41.8306C26.724 41.9246 26.6301 42.0185 26.5361 42.2064V41.7367H26.1604V44.085H26.5361V42.9578ZM28.6966 44.179C29.0723 44.179 29.3541 44.085 29.542 43.8032C29.7299 43.6154 29.8238 43.2396 29.8238 42.8639C29.8238 42.4882 29.7299 42.2064 29.542 41.9246C29.3541 41.7367 29.0723 41.6428 28.6966 41.6428C28.3209 41.6428 28.0391 41.7367 27.8512 41.9246C27.6633 42.1124 27.4755 42.4882 27.4755 42.8639C27.4755 43.2396 27.5694 43.5214 27.7573 43.7093C28.0391 44.085 28.3209 44.179 28.6966 44.179ZM28.133 42.3003C28.3209 42.1124 28.5087 42.1124 28.6966 42.1124C28.9784 42.1124 29.1663 42.2064 29.2602 42.3003C29.3541 42.4882 29.4481 42.676 29.4481 42.9578C29.4481 43.2396 29.3541 43.5214 29.2602 43.6154C29.1663 43.8032 28.9784 43.8972 28.6966 43.8972C28.4148 43.8972 28.2269 43.8032 28.133 43.6154C27.9451 43.4275 27.9451 43.2396 27.9451 42.9578C27.9451 42.676 28.0391 42.3942 28.133 42.3003ZM31.5146 43.9911C31.7025 43.8972 31.7025 43.7093 31.7025 43.5214C31.7025 43.3336 31.6085 43.2396 31.5146 43.0518C31.4207 42.9578 31.2328 42.8639 31.0449 42.77C30.8571 42.676 30.7631 42.5821 30.6692 42.5821C30.5753 42.4882 30.5753 42.4882 30.5753 42.3003C30.5753 42.2064 30.5753 42.1124 30.6692 42.0185C30.7631 41.9246 30.8571 41.9246 30.951 41.9246C31.1389 41.9246 31.3267 42.0185 31.5146 42.1124V41.7367C31.5146 41.7367 31.3267 41.7367 31.1389 41.7367C30.8571 41.7367 30.6692 41.8306 30.5753 41.9246C30.3874 42.0185 30.2935 42.2064 30.2935 42.3942C30.2935 42.5821 30.3874 42.676 30.4813 42.8639C30.5753 42.9578 30.6692 43.0518 30.951 43.1457C31.1389 43.2396 31.2328 43.3336 31.3267 43.3336C31.4207 43.4275 31.4207 43.4275 31.4207 43.5214C31.4207 43.7093 31.2328 43.8972 30.951 43.8972C30.7631 43.8972 30.4813 43.8032 30.2935 43.7093V44.085C30.4813 44.179 30.6692 44.2729 30.8571 44.2729C31.1389 44.179 31.4207 44.085 31.5146 43.9911ZM33.3933 41.7367C33.0175 41.7367 32.7357 41.8306 32.5479 42.0185C32.36 42.2064 32.1721 42.5821 32.1721 42.9578C32.1721 43.3336 32.2661 43.6154 32.4539 43.8032C32.6418 43.9911 32.9236 44.179 33.2993 44.179C33.6751 44.179 33.9569 44.085 34.1447 43.8032C34.3326 43.6154 34.4265 43.2396 34.4265 42.8639C34.4265 42.4882 34.3326 42.2064 34.1447 41.9246C33.9569 41.8306 33.6751 41.7367 33.3933 41.7367ZM34.1447 42.9578C34.1447 43.2396 34.0508 43.5214 33.9569 43.6154C33.8629 43.8032 33.6751 43.8972 33.3933 43.8972C33.1115 43.8972 32.9236 43.8032 32.8297 43.6154C32.6418 43.4275 32.6418 43.2396 32.6418 42.9578C32.6418 42.676 32.7357 42.3942 32.8297 42.3003C33.0175 42.1124 33.2054 42.1124 33.3933 42.1124C33.6751 42.1124 33.8629 42.2064 33.9569 42.3003C34.0508 42.3942 34.1447 42.676 34.1447 42.9578ZM35.0841 44.179H35.4598V42.1124H36.0234V41.7367H35.4598V41.361C35.4598 40.9852 35.5537 40.8913 35.8355 40.8913C35.9295 40.8913 36.0234 40.8913 36.1173 40.9852V40.6095C36.0234 40.6095 35.9295 40.6095 35.8355 40.6095C35.6477 40.6095 35.4598 40.7034 35.3659 40.7974C35.178 40.9852 35.0841 41.1731 35.0841 41.4549V41.7367H34.7083V42.0185H35.0841V44.179ZM36.6809 43.5214C36.6809 43.9911 36.8688 44.179 37.3385 44.179C37.5263 44.179 37.6203 44.179 37.7142 44.085V43.8032C37.6203 43.8972 37.5263 43.8972 37.4324 43.8972C37.3385 43.8972 37.2445 43.8972 37.1506 43.8032C37.0567 43.7093 37.0567 43.6154 37.0567 43.4275V42.1124H37.6203V41.7367H37.0567V41.0792C36.9627 41.0792 36.7749 41.1731 36.6809 41.1731V41.7367H36.3052V42.0185H36.6809V43.5214ZM77.4481 47.8424C77.3541 47.7484 77.1663 47.6545 76.9784 47.6545C76.7905 47.6545 76.6027 47.7484 76.5087 47.8424C76.4148 47.9363 76.3209 48.1242 76.3209 48.312C76.3209 48.4999 76.4148 48.6878 76.5087 48.7817C76.6027 48.8756 76.7905 48.9696 76.9784 48.9696C77.1663 48.9696 77.3541 48.8756 77.4481 48.7817C77.542 48.6878 77.6359 48.4999 77.6359 48.312C77.6359 48.1242 77.6359 48.0302 77.4481 47.8424ZM77.4481 48.7817C77.3541 48.8756 77.1663 48.9696 77.0723 48.9696C76.8845 48.9696 76.7905 48.8756 76.6966 48.7817C76.6027 48.6878 76.5087 48.4999 76.5087 48.312C76.5087 48.1242 76.6027 48.0302 76.6966 47.9363C76.7905 47.8424 76.9784 47.7484 77.1663 47.7484C77.3541 47.7484 77.4481 47.8424 77.542 47.9363C77.6359 48.0302 77.7299 48.2181 77.7299 48.312C77.6359 48.4999 77.542 48.6878 77.4481 48.7817ZM77.0723 48.406C77.1663 48.406 77.1663 48.406 77.2602 48.312C77.2602 48.312 77.3541 48.2181 77.3541 48.1242C77.3541 48.0302 77.3541 48.0302 77.2602 47.9363C77.1663 47.9363 77.1663 47.8424 76.9784 47.8424H76.6966V48.6878H76.7905V48.312H76.8845C76.9784 48.312 76.9784 48.406 77.0723 48.4999L77.1663 48.6878H77.3541L77.2602 48.4999C77.1663 48.406 77.1663 48.406 77.0723 48.406ZM76.9784 48.312H76.8845V48.0302H76.9784C77.0723 48.0302 77.0723 48.0302 77.1663 48.0302V48.1242C77.1663 48.2181 77.0723 48.312 76.9784 48.312ZM55.7494 41.6428H55.8434V40.7974H56.1252V40.7034H55.4676V40.7974H55.7494V41.6428ZM56.407 40.9852C56.407 40.8913 56.407 40.7974 56.407 40.7974C56.407 40.8913 56.407 40.8913 56.407 40.9852L56.7827 41.6428H56.8766L57.1584 40.8913V40.7974C57.1584 40.8913 57.1584 40.8913 57.1584 40.9852V41.6428H57.2524V40.7034H57.1584L56.8766 41.361L56.5948 40.7034H56.407V41.6428H56.5009L56.407 40.9852Z" fill="#231F1F"/>
</g>
</g>
<defs>
<linearGradient id="paint0_linear_6744_65629" x1="45.1046" y1="38.7307" x2="46.4541" y2="37.9332" gradientUnits="userSpaceOnUse">
<stop stop-color="#909CA9"/>
<stop offset="1" stop-color="#EDEDEE"/>
</linearGradient>
<linearGradient id="paint1_linear_6744_65629" x1="45.1579" y1="12.3166" x2="46.2437" y2="12.3166" gradientUnits="userSpaceOnUse">
<stop stop-color="#939FAB"/>
<stop offset="1" stop-color="#DCDEE1"/>
</linearGradient>
<radialGradient id="paint2_radial_6744_65629" cx="0" cy="0" r="1" gradientUnits="userSpaceOnUse" gradientTransform="translate(54.3212 20.4278) rotate(-171.456) scale(1.40021 2.80111)">
<stop stop-color="#EE352C"/>
<stop offset="1" stop-color="#A91D22"/>
</radialGradient>
<clipPath id="clip0_6744_65629">
<rect width="72" height="48" fill="white" transform="translate(12 8.85999)"/>
</clipPath>
<clipPath id="clip1_6744_65629">
<rect width="59.4599" height="48" fill="white" transform="translate(18.2695 8.85999)"/>
</clipPath>
</defs>
</svg>
