<svg width="96" height="65" viewBox="0 0 96 65" fill="none" xmlns="http://www.w3.org/2000/svg">
<rect width="96" height="64" transform="translate(0 0.859985)" fill="white"/>
<g clip-path="url(#clip0_6744_65682)">
<g clip-path="url(#clip1_6744_65682)">
<path d="M22.1186 50.3568H19.2464V46.8729H22.2889C23.3986 46.8729 23.9535 47.4639 23.9535 48.6458C23.9535 49.8278 23.3418 50.3981 22.1186 50.3568ZM24.178 46.7955C23.965 46.5768 23.7076 46.4063 23.4231 46.2955C23.1387 46.1846 22.8338 46.136 22.5289 46.1529L18.418 46.2149V54.5375H19.2464V51.0071H22.2889C22.6184 51.0252 22.9482 50.9778 23.2592 50.8675C23.5701 50.7572 23.8561 50.5862 24.1005 50.3646C24.3285 50.1317 24.5048 49.8536 24.6182 49.5481C24.7316 49.2427 24.7794 48.9168 24.7586 48.5916C24.8055 47.9403 24.5973 47.2962 24.178 46.7955ZM29.5431 52.7723C29.4688 53.0372 29.3336 53.2812 29.1483 53.4846C28.9342 53.7163 28.6705 53.8965 28.3769 54.0118C28.0833 54.1272 27.7673 54.1745 27.4528 54.1504C27.164 54.1644 26.8756 54.1148 26.608 54.0051C26.3405 53.8954 26.1003 53.7283 25.9044 53.5155C25.5062 53.0447 25.2941 52.4443 25.3083 51.8278C25.3032 51.4917 25.3529 51.157 25.4554 50.8368C25.5412 50.5672 25.6837 50.319 25.8735 50.1091C26.0716 49.8998 26.3124 49.7355 26.5795 49.6273C26.8467 49.5191 27.1339 49.4696 27.4218 49.482C28.9083 49.482 29.6515 50.2562 29.6515 51.8046C29.6568 52.1365 29.6151 52.4675 29.5276 52.7878M29.6747 49.691C29.3831 49.3978 29.0313 49.1713 28.6438 49.0269C28.2562 48.8826 27.842 48.8239 27.4296 48.8549C27.028 48.8305 26.626 48.8941 26.2516 49.0412C25.8772 49.1883 25.5394 49.4153 25.2618 49.7065C24.7804 50.3067 24.5476 51.0687 24.6115 51.8355C24.578 52.597 24.8323 53.3432 25.3238 53.9258C25.5754 54.2065 25.8916 54.4218 26.2451 54.5529C26.6432 54.6904 27.0627 54.7559 27.4838 54.7465C27.8947 54.7754 28.3071 54.7173 28.694 54.5759C29.0809 54.4344 29.4335 54.2129 29.7289 53.9258C30.18 53.3223 30.4238 52.589 30.4238 51.8355C30.4238 51.082 30.18 50.3487 29.7289 49.7452L29.6747 49.691ZM35.9225 53.0123C35.9225 54.1375 35.0889 54.7 33.4218 54.7C32.9905 54.7079 32.5596 54.6689 32.1367 54.5839C31.8261 54.5244 31.5341 54.3917 31.2851 54.1968C31.1106 54.053 30.9726 53.87 30.8825 53.6626C30.7725 53.3964 30.7071 53.1139 30.6889 52.8265H31.4631C31.4484 53.0093 31.4772 53.193 31.5472 53.3626C31.6172 53.5322 31.7263 53.6827 31.8657 53.802C32.3238 54.1006 32.8699 54.2344 33.4141 54.1813C34.5805 54.1813 35.1638 53.8278 35.1638 53.1207C35.1729 52.9338 35.1202 52.7491 35.0138 52.5952C34.9075 52.4413 34.7534 52.3267 34.5754 52.2691C34.498 52.2381 34.0283 52.1607 33.1664 52.0368C32.6275 51.988 32.0954 51.8815 31.5793 51.7194C31.3566 51.6145 31.1713 51.4442 31.0482 51.2311C30.925 51.018 30.8699 50.7724 30.8902 50.5271C30.8746 50.2821 30.9235 50.0373 31.0322 49.8172C31.1409 49.5971 31.3055 49.4094 31.5096 49.2729C31.7526 49.146 32.0137 49.0572 32.2838 49.0097C32.6333 48.943 32.9886 48.9119 33.3444 48.9168C34.9496 48.9168 35.7522 49.5233 35.7522 50.7362H34.978C34.978 49.8846 34.4128 49.451 33.2825 49.451C32.8384 49.4236 32.3949 49.5144 31.9973 49.7142C31.8635 49.7933 31.7533 49.9068 31.6784 50.043C31.6035 50.1792 31.5666 50.3331 31.5715 50.4884C31.5758 50.6553 31.6339 50.8163 31.7371 50.9474C31.8404 51.0786 31.9832 51.1728 32.1444 51.2162C32.6527 51.3452 33.1705 51.4332 33.6928 51.4794C34.2029 51.5045 34.7053 51.6144 35.1793 51.8046C35.4183 51.902 35.6211 52.0713 35.7598 52.2891C35.8985 52.5068 35.9662 52.7622 35.9535 53.02L35.9225 53.0123ZM38.9651 54.5607L38.6476 54.6149H38.4541C38.0713 54.6477 37.6882 54.5553 37.3625 54.3516C37.2394 54.2327 37.1454 54.0871 37.0876 53.926C37.0299 53.7649 37.01 53.5926 37.0296 53.4226V49.6446H36.147V49.1181H37.0605V47.291H37.7728V49.1181H39.0115V49.6833H37.7728V53.3839C37.7617 53.4859 37.7726 53.5891 37.8046 53.6866C37.8367 53.784 37.8892 53.8735 37.9586 53.9491C38.1521 54.0716 38.381 54.1261 38.6089 54.1039C38.6577 54.1116 38.7073 54.1116 38.756 54.1039L39.0038 54.0342V54.5994L38.9651 54.5607ZM43.8502 53.2987C43.6641 53.496 43.4404 53.654 43.1922 53.7633C42.9226 53.8641 42.636 53.9115 42.3483 53.9026C42.0464 53.9479 41.7381 53.922 41.448 53.827C41.1579 53.732 40.894 53.5705 40.6774 53.3554C40.4608 53.1403 40.2975 52.8776 40.2005 52.5882C40.1034 52.2987 40.0754 51.9906 40.1186 51.6884C40.1016 51.396 40.1428 51.103 40.2398 50.8266C40.3368 50.5502 40.4877 50.2958 40.6838 50.0781C40.8953 49.8767 41.1462 49.7212 41.4206 49.6213C41.695 49.5214 41.9871 49.4792 42.2786 49.4975C42.5642 49.4811 42.8501 49.5258 43.1171 49.6286C43.3841 49.7314 43.6261 49.8899 43.827 50.0936C44.1944 50.5236 44.3852 51.0769 44.3612 51.642C44.4004 52.2447 44.2032 52.839 43.8115 53.2987M45.1354 49.1181H44.4309V50.0626C44.2327 49.7993 44.0097 49.5557 43.7651 49.3349C43.3 49.0515 42.7607 48.914 42.2167 48.94C41.8402 48.8985 41.4592 48.9419 41.1017 49.0672C40.7443 49.1924 40.4195 49.3963 40.1513 49.6638C39.8831 49.9312 39.6783 50.2554 39.5521 50.6126C39.4258 50.9697 39.3813 51.3505 39.4218 51.7271C39.4171 52.1214 39.4772 52.5137 39.5999 52.8884C39.7063 53.198 39.8749 53.4826 40.0954 53.7246C40.3706 53.9808 40.6951 54.1782 41.0492 54.3046C41.4033 54.4311 41.7795 54.484 42.1547 54.46C42.5923 54.5023 43.0333 54.427 43.4321 54.2419C43.8308 54.0568 44.173 53.7687 44.4231 53.4071V54.3826C44.4636 54.9037 44.2998 55.4201 43.9664 55.8226C43.7489 56.0112 43.4954 56.1537 43.2213 56.2415C42.9472 56.3293 42.6581 56.3606 42.3715 56.3336C41.8456 56.3789 41.3191 56.2541 40.8696 55.9775C40.6152 55.7294 40.454 55.4013 40.4128 55.0484H39.6851C39.7154 55.5596 39.9464 56.0382 40.3276 56.38C40.9443 56.7506 41.6626 56.916 42.3793 56.8523C44.227 56.8523 45.1509 56.0239 45.1509 54.3671V49.1181H45.1354ZM48.9599 49.6678C48.7637 49.6279 48.564 49.6072 48.3638 49.6058C47.2076 49.6058 46.6296 50.38 46.6296 51.9284V54.5375H45.9328V49.1181H46.6373V50.0936C46.7297 49.7501 46.9274 49.4442 47.2025 49.2187C47.5842 48.9961 48.0232 48.8911 48.4644 48.9168H48.9367V49.6446L48.9599 49.6678ZM49.618 51.4407C49.6689 50.9083 49.8794 50.4037 50.2218 49.9929C50.4286 49.8088 50.6711 49.6691 50.9341 49.5826C51.2116 49.4806 51.5056 49.4307 51.8012 49.4355C52.089 49.4246 52.3758 49.4749 52.6427 49.583C52.9096 49.6911 53.1505 49.8545 53.3496 50.0626C53.7107 50.4306 53.9135 50.9252 53.9147 51.4407H49.6257M53.9844 49.7529C53.7384 49.4675 53.4241 49.2491 53.0709 49.1181C52.6599 48.9658 52.2239 48.8923 51.7857 48.9013C51.3994 48.8647 51.0097 48.9134 50.6443 49.0441C50.2789 49.1748 49.9467 49.3842 49.6712 49.6575C49.3957 49.9308 49.1836 50.2613 49.05 50.6256C48.9164 50.99 48.8645 51.3792 48.898 51.7658C48.8633 52.5302 49.1238 53.2786 49.6257 53.8562C49.9133 54.1519 50.2615 54.3818 50.6464 54.5302C51.0313 54.6785 51.4437 54.7417 51.8554 54.7155C52.2123 54.7188 52.5675 54.6665 52.9083 54.5607C53.2163 54.4659 53.5048 54.3164 53.7599 54.1194C54.1618 53.7635 54.4341 53.2842 54.5341 52.7568H53.7599C53.6636 53.1945 53.4104 53.5818 53.0482 53.8457C52.6859 54.1095 52.2396 54.2317 51.7935 54.1891C51.4761 54.2092 51.1582 54.1578 50.8634 54.0385C50.5685 53.9193 50.3043 53.7352 50.0902 53.5C49.7319 53.0662 49.5495 52.5136 49.5793 51.9516H54.6193C54.6677 51.1662 54.4282 50.3901 53.9457 49.7684L53.9844 49.7529Z" fill="#231F20"/>
<path d="M62.1289 52.3232C62.1289 53.949 61.0424 54.7619 58.8695 54.7619C57.8485 54.851 56.8314 54.5525 56.0205 53.9258C55.7514 53.6516 55.5433 53.3237 55.4099 52.9634C55.2765 52.6032 55.2207 52.2188 55.2463 51.8355H56.1211C56.1211 53.3529 57.0243 54.1116 58.8308 54.1116C59.4919 54.1677 60.1531 54.0044 60.7121 53.6471C60.8855 53.4835 61.02 53.2832 61.1057 53.0608C61.1915 52.8384 61.2263 52.5996 61.2076 52.3619C61.2283 52.1163 61.1762 51.8701 61.0578 51.6539C60.9394 51.4377 60.7599 51.2612 60.5418 51.1465C59.9553 50.9267 59.3485 50.7659 58.7302 50.6665C57.9003 50.5623 57.091 50.3326 56.3302 49.9852C56.062 49.7951 55.8491 49.5373 55.713 49.2381C55.577 48.9389 55.5228 48.6089 55.556 48.2819C55.5317 47.9713 55.58 47.6593 55.6968 47.3704C55.8137 47.0816 55.9961 46.8238 56.2295 46.6174C56.9592 46.1597 57.8175 45.9505 58.676 46.0213C60.8024 46.0213 61.8656 46.8755 61.8656 48.5839H60.9985C60.9985 47.3039 60.2089 46.6639 58.6295 46.6639C58.0257 46.6165 57.4216 46.7514 56.8953 47.051C56.7219 47.1955 56.5847 47.3786 56.4946 47.5856C56.4045 47.7926 56.3641 48.0178 56.3766 48.2432C56.3575 48.4834 56.4108 48.7238 56.5294 48.9335C56.6481 49.1432 56.8267 49.3126 57.0424 49.42C57.7184 49.6748 58.4189 49.859 59.1327 49.9697C59.9015 50.0637 60.6466 50.2972 61.3314 50.6587C61.5977 50.8433 61.8098 51.0956 61.9459 51.3896C62.082 51.6836 62.1372 52.0086 62.1056 52.331L62.1289 52.3232ZM69.2282 53.1516C68.9085 53.46 68.5291 53.6997 68.1134 53.8561C67.6722 54.0177 67.205 54.0964 66.7353 54.0884C66.2668 54.108 65.7994 54.0278 65.3642 53.8529C64.9291 53.678 64.5361 53.4126 64.2114 53.0742C63.5984 52.3041 63.2647 51.3488 63.2647 50.3645C63.2647 49.3802 63.5984 48.425 64.2114 47.6548C64.542 47.3242 64.9379 47.066 65.3737 46.8967C65.8096 46.7274 66.2759 46.6508 66.7431 46.6716C67.2111 46.6484 67.6786 46.7287 68.1121 46.9066C68.5457 47.0846 68.9347 47.3559 69.2514 47.7013C69.5719 48.0339 69.8151 48.4331 69.9637 48.8703C70.1273 49.3698 70.2058 49.8932 70.196 50.4187C70.2498 51.4338 69.9022 52.4294 69.2282 53.1903M69.6927 53.74C70.1402 53.3614 70.4862 52.8771 70.6992 52.331C70.927 51.7197 71.0374 51.0709 71.0243 50.4187C71.074 49.2883 70.6921 48.1813 69.956 47.3219C69.5809 46.8953 69.1081 46.5659 68.5779 46.3619C67.9877 46.1343 67.3602 46.0188 66.7276 46.0213C66.1459 45.9889 65.5638 46.0782 65.0186 46.2835C64.4734 46.4888 63.977 46.8055 63.5611 47.2136C63.1698 47.645 62.8677 48.1497 62.6724 48.6985C62.4771 49.2473 62.3923 49.8293 62.4231 50.411C62.3967 50.9918 62.4857 51.5721 62.685 52.1182C62.8844 52.6644 63.19 53.1656 63.5843 53.5929C64.0022 54.0004 64.5001 54.3167 65.0464 54.5219C65.5928 54.7271 66.1758 54.8168 66.7585 54.7852C67.2187 54.7903 67.6781 54.7461 68.1289 54.6536C68.4802 54.5826 68.8159 54.4488 69.1198 54.2587L70.4127 55.3116L70.9547 54.7155L69.7082 53.6936L69.6927 53.74ZM77.5663 54.5374H71.605V46.1916H72.4256V53.8794H77.5818V54.5374H77.5663Z" fill="#326690"/>
<path d="M52.3745 34.2148C52.6377 32.38 52.5603 32.109 54.1706 32.4109H54.5809C55.8753 32.4598 57.168 32.2763 58.3977 31.869C60.4493 31.0948 61.6648 29.7168 59.6441 30.0651C54.999 30.8393 54.7125 29.5464 54.7125 29.5464C59.5822 23.4148 61.6183 15.6109 59.8609 13.7374C55.0532 8.56578 46.7693 11.0277 46.6145 11.0897H46.568C45.5447 10.9162 44.5091 10.8256 43.4712 10.8187C41.7582 10.7352 40.0594 11.1666 38.5938 12.0574C38.5938 12.0574 23.7835 6.88578 24.4725 18.5606C24.6119 21.0458 28.6764 37.3503 33.5074 32.4264C35.2958 30.6303 36.999 29.1284 36.999 29.1284C37.8892 29.6275 38.9084 29.8486 39.9254 29.7632L40.0106 29.7013C39.974 29.9347 39.974 30.1724 40.0106 30.4058C38.7951 31.5593 39.159 31.7684 36.6971 32.2251C34.2351 32.6819 35.6596 33.4484 36.6274 33.6574C37.7964 33.9051 40.4983 34.2613 42.3409 32.109L42.2712 32.3568C42.759 32.6897 42.728 34.7413 42.7977 36.2277C42.7861 37.461 42.9663 38.6885 43.3319 39.8664C43.6803 40.6406 44.1061 42.7464 47.3732 42.189C50.1061 41.6935 52.1964 40.9813 52.39 34.3309" fill="#231F20"/>
<path d="M52.3745 34.2148C52.6377 32.38 52.5603 32.109 54.1706 32.4109H54.5809C55.8753 32.4598 57.168 32.2763 58.3977 31.869C60.4493 31.0948 61.6648 29.7168 59.6441 30.0651C54.999 30.8393 54.7125 29.5464 54.7125 29.5464C59.5822 23.4148 61.6183 15.6109 59.8609 13.7374C55.0532 8.56578 46.7693 11.0277 46.6145 11.0897H46.568C45.5447 10.9162 44.5091 10.8256 43.4712 10.8187C41.7582 10.7352 40.0594 11.1666 38.5938 12.0574C38.5938 12.0574 23.7835 6.88578 24.4725 18.5606C24.6119 21.0458 28.6764 37.3503 33.5074 32.4264C35.2958 30.6303 36.999 29.1284 36.999 29.1284C37.8892 29.6275 38.9084 29.8486 39.9254 29.7632L40.0106 29.7013C39.974 29.9347 39.974 30.1724 40.0106 30.4058C38.7951 31.5593 39.159 31.7684 36.6971 32.2251C34.2351 32.6819 35.6596 33.4484 36.6274 33.6574C37.7964 33.9051 40.4983 34.2613 42.3409 32.109L42.2712 32.3568C42.759 32.6897 42.728 34.7413 42.7977 36.2277C42.7861 37.461 42.9663 38.6885 43.3319 39.8664C43.6803 40.6406 44.1061 42.7464 47.3732 42.189C50.1061 41.6935 52.1964 40.9813 52.39 34.3309" stroke="#231F20" stroke-width="3.18194"/>
<path d="M59.6364 30.0884C54.9912 30.8626 54.7048 29.5697 54.7048 29.5697C59.5745 23.4381 61.6106 15.6342 59.8532 13.7607C55.0609 8.56585 46.7693 11.0278 46.6145 11.0897H46.568C45.5447 10.9163 44.5091 10.8257 43.4712 10.8188C41.7582 10.7352 40.0594 11.1667 38.5938 12.0575C38.5938 12.0575 23.7835 6.88585 24.4725 18.5607C24.6119 21.0458 28.6687 37.3504 33.5074 32.4265C35.2958 30.6304 36.999 29.1284 36.999 29.1284C37.8892 29.6275 38.9084 29.8487 39.9254 29.7633L40.0106 29.7013C39.9748 29.9348 39.9748 30.1724 40.0106 30.4058C38.7951 31.5594 39.159 31.7684 36.6971 32.2252C34.2351 32.682 35.6596 33.4484 36.6274 33.6575C37.7964 33.9052 40.4983 34.2613 42.3409 32.1091L42.2712 32.3568C42.759 32.6897 43.0996 34.5091 43.0454 36.1658C42.9912 37.8226 42.9525 38.9529 43.3319 39.8433C43.7112 40.7336 44.1061 42.7233 47.3732 42.1658C50.1061 41.6704 51.5229 40.3852 51.7241 38.2329C51.8635 36.6846 52.1809 36.9323 52.2041 35.5697L52.4596 34.9271C52.7538 32.86 52.5061 32.1942 54.1938 32.5039H54.6042C55.8986 32.5528 57.1913 32.3692 58.4209 31.962C60.4725 31.1878 61.688 29.8097 59.6674 30.1581L59.6364 30.0884Z" fill="#326690"/>
<path d="M42.5272 31.3116C42.4034 35.1826 42.5272 39.0536 43.0072 39.9826C43.4872 40.9116 44.4008 42.7542 47.6524 42.1658C50.3853 41.6703 51.384 40.7103 51.8098 38.5813C52.1195 37.0329 52.7388 32.682 52.8163 31.7916M38.6021 11.9568C38.6021 11.9568 23.7763 6.83937 24.473 18.522C24.6279 21.0071 28.6692 37.3116 33.5079 32.38C35.273 30.5761 36.8679 29.1284 36.8679 29.1284M46.615 11.0355C46.104 11.1826 54.8601 8.32583 59.8305 13.7142C61.5879 15.6187 59.5517 23.3994 54.6821 29.5232" stroke="white" stroke-width="1.06065" stroke-linecap="round" stroke-linejoin="round"/>
<path d="M54.6737 29.5232C54.6737 29.5232 54.9834 30.8471 59.6053 30.042C61.626 29.6858 60.3795 31.0329 58.3589 31.8458C56.6789 32.5039 52.9395 32.6742 52.8389 31.7607C52.6763 29.4381 54.8208 30.1194 54.6737 29.5232ZM54.6737 29.5232C54.5266 28.9271 53.5744 28.4703 52.9395 27.2007C52.3047 25.931 45.3447 17.2987 54.8905 18.5994C55.2389 18.5374 52.3976 10.9039 43.4634 10.78C34.5292 10.6561 34.8234 20.0703 34.8234 20.0703" stroke="white" stroke-width="1.06065" stroke-linecap="round" stroke-linejoin="bevel"/>
<path d="M40.0265 30.3362C38.7801 31.5129 39.1439 31.722 36.6588 32.1555C34.1736 32.5891 35.6214 33.3787 36.5891 33.5878C37.7581 33.8355 40.4601 34.1916 42.3026 32.0394C42.8601 31.3813 42.3026 30.3207 41.5285 30.0497C41.2786 29.9305 40.9966 29.8963 40.7255 29.9522C40.4543 30.0081 40.2089 30.1511 40.0265 30.3594V30.3362Z" stroke="white" stroke-width="1.06065" stroke-linejoin="round"/>
<path d="M39.9413 30.3129C39.9442 29.4378 40.1822 28.5795 40.6303 27.8277C41.2652 26.38 42.7284 24.9323 41.5594 20.3336C40.6845 16.9116 34.8239 19.6213 34.8239 20.0858C34.9664 21.602 34.9327 23.1296 34.7232 24.6381C34.251 27.5103 36.8755 29.9336 39.9026 29.6858" stroke="white" stroke-width="1.06065" stroke-linecap="round" stroke-linejoin="round"/>
<path d="M38.5469 20.0162C38.6116 20.1875 38.7226 20.3375 38.8675 20.4496C39.0123 20.5616 39.1854 20.6314 39.3675 20.651C39.5468 20.6783 39.7301 20.6517 39.8942 20.5745C40.0582 20.4973 40.1956 20.373 40.2888 20.2175C40.2888 20.0626 39.9482 19.8846 39.4682 19.8304C38.9882 19.7762 38.5469 19.8381 38.5469 20.0162Z" fill="white" stroke="white" stroke-width="0.356129"/>
<path d="M53.1715 19.6987C53.1067 19.87 52.9957 20.02 52.8509 20.1321C52.706 20.2442 52.5329 20.3139 52.3508 20.3335C52.1692 20.3641 51.9825 20.3391 51.8153 20.2618C51.6482 20.1844 51.5083 20.0583 51.4141 19.9C51.4141 19.7374 51.7547 19.5671 52.2347 19.5129C52.7147 19.4587 53.125 19.5129 53.156 19.6987H53.1715Z" fill="white" stroke="white" stroke-width="0.178065"/>
<path d="M54.8911 18.5994C54.9685 19.8458 54.5737 20.6897 54.5272 22.0136C54.4498 23.9413 55.6111 26.14 53.8691 28.3465" stroke="white" stroke-width="1.06065" stroke-linecap="round" stroke-linejoin="round"/>
</g>
</g>
<defs>
<clipPath id="clip0_6744_65682">
<rect width="72" height="48" fill="white" transform="translate(12 8.85999)"/>
</clipPath>
<clipPath id="clip1_6744_65682">
<rect width="59.1639" height="48" fill="white" transform="translate(18.418 8.85999)"/>
</clipPath>
</defs>
</svg>
