<svg width="738" height="90" viewBox="0 0 738 90" fill="none" xmlns="http://www.w3.org/2000/svg">
    <mask id="path-1-inside-1_6967_62868" fill="white">
        <path d="M0 0H145.5V90H0V0Z"/>
    </mask>
    <path d="M0 0H145.5V90H0V0Z" fill="#D9D9D9"/>
    <path d="M145.5 85H0V95H145.5V85Z" fill="#F39200" mask="url(#path-1-inside-1_6967_62868)"/>
    <path d="M55.3758 38.8476C55.3758 39.859 55.4758 40.679 55.6502 41.2803C55.8716 41.9568 56.1382 42.6145 56.4478 43.2481C56.5725 43.4667 56.6222 43.6853 56.6222 43.8768C56.6222 44.1499 56.4728 44.4234 56.1487 44.6968L54.5782 45.8446C54.3538 46.0088 54.1294 46.0907 53.9297 46.0907C53.6806 46.0907 53.4312 45.9539 53.1818 45.7079C52.846 45.3122 52.5455 44.882 52.2845 44.4234C52.0351 43.9591 51.7857 43.4393 51.5116 42.8109C49.5671 45.3252 47.1237 46.5827 44.1821 46.5827C42.0881 46.5827 40.4176 45.9265 39.1959 44.6149C37.9746 43.3026 37.3514 41.5534 37.3514 39.367C37.3514 37.0439 38.0992 35.158 39.62 33.7367C41.1405 32.3154 43.1601 31.6048 45.7279 31.6048C46.5755 31.6048 47.4481 31.6867 48.3704 31.8234C49.293 31.9601 50.2402 32.1787 51.2375 32.4247V30.4295C51.2375 28.3521 50.8384 26.9037 50.0656 26.0564C49.268 25.209 47.9216 24.7989 46.002 24.7989C45.1294 24.7989 44.2321 24.9085 43.3095 25.1545C42.3872 25.4002 41.4896 25.7011 40.617 26.0838C40.2182 26.275 39.9191 26.3843 39.7444 26.4391C39.57 26.4939 39.4453 26.521 39.3456 26.521C38.9965 26.521 38.8221 26.2476 38.8221 25.6736V24.3343C38.8221 23.897 38.8721 23.5691 38.9965 23.3779C39.1212 23.1864 39.3456 22.9952 39.6947 22.804C40.5673 22.312 41.6143 21.9018 42.8357 21.5739C44.0577 21.2186 45.3541 21.0548 46.7252 21.0548C49.692 21.0548 51.861 21.7925 53.2571 23.2686C54.6282 24.7444 55.3264 26.9856 55.3264 29.9923V38.8476H55.3758ZM45.2541 43.0021C46.077 43.0021 46.9246 42.8383 47.8219 42.5101C48.7195 42.1821 49.5174 41.5808 50.1902 40.7609C50.5893 40.2417 50.8884 39.6678 51.0378 39.0117C51.1875 38.3558 51.2872 37.563 51.2872 36.6337V35.4859C50.5312 35.2841 49.7654 35.129 48.9936 35.0213C48.2163 34.913 47.4337 34.8582 46.6502 34.8571C44.9797 34.8571 43.7583 35.2125 42.9357 35.9505C42.1128 36.6886 41.714 37.7271 41.714 39.0936C41.714 40.3781 42.0131 41.3348 42.6363 41.9909C43.2348 42.6742 44.1074 43.0021 45.2541 43.0021ZM65.2731 45.9539C64.8243 45.9539 64.5252 45.872 64.3258 45.6805C64.1264 45.5167 63.9517 45.134 63.8023 44.6149L57.9439 23.4872C57.7939 22.9404 57.7192 22.5851 57.7192 22.3939C57.7192 21.9567 57.9186 21.7103 58.3177 21.7103H60.7608C61.2343 21.7103 61.5587 21.7925 61.7331 21.9837C61.9325 22.1479 62.0821 22.5306 62.2316 23.0497L66.4198 41.1436L70.309 23.0497C70.4337 22.5032 70.5834 22.1479 70.7825 21.9837C70.9822 21.8199 71.3313 21.7106 71.7801 21.7106H73.7744C74.2478 21.7106 74.5722 21.7925 74.7713 21.9837C74.971 22.1479 75.1454 22.5306 75.2451 23.0497L79.1843 41.3622L83.497 23.0497C83.6464 22.5032 83.8211 22.1479 83.9955 21.9837C84.1949 21.8199 84.519 21.7106 84.9678 21.7106H87.2861C87.6852 21.7106 87.9096 21.9292 87.9096 22.3939C87.9096 22.5306 87.8846 22.6673 87.8596 22.8311C87.8346 22.9952 87.7849 23.2138 87.6852 23.5146L81.6768 44.642C81.5274 45.1888 81.353 45.5441 81.1533 45.7079C80.9539 45.872 80.6298 45.9814 80.2063 45.9814H78.0623C77.5885 45.9814 77.2644 45.8995 77.0647 45.7079C76.8653 45.5167 76.6909 45.1614 76.5912 44.6149L72.7268 26.9856L68.8876 44.5872C68.7632 45.134 68.6135 45.4893 68.4141 45.6805C68.2147 45.872 67.8656 45.9539 67.4171 45.9539H65.2731ZM97.3085 46.692C96.0121 46.692 94.7157 46.5279 93.4693 46.2C92.2226 45.872 91.2506 45.5164 90.6024 45.1069C90.2033 44.8606 89.9289 44.5875 89.8295 44.3415C89.7324 44.1002 89.6815 43.8397 89.6798 43.576V42.1821C89.6798 41.6082 89.8792 41.3348 90.2533 41.3348C90.406 41.3354 90.5575 41.3632 90.7021 41.417C90.8515 41.4718 91.0759 41.5808 91.3253 41.6901C92.2058 42.1147 93.1251 42.4354 94.0675 42.6468C95.044 42.864 96.0379 42.9739 97.0344 42.9747C98.6048 42.9747 99.8265 42.6742 100.674 42.0728C101.522 41.4715 101.971 40.5971 101.971 39.4763C101.971 38.7112 101.746 38.0824 101.297 37.563C100.849 37.0439 100.001 36.5792 98.7795 36.1417L95.1645 34.912C93.3446 34.2832 91.9985 33.354 91.1756 32.1239C90.353 30.9212 89.9292 29.5822 89.9292 28.1609C89.9292 27.013 90.1536 26.0016 90.6024 25.1268C91.0509 24.2524 91.6494 23.4872 92.3973 22.8859C93.1452 22.2572 93.9928 21.7925 94.9901 21.4646C95.9871 21.1367 97.0341 21 98.1311 21C98.6795 21 99.253 21.0274 99.8015 21.1093C100.375 21.1912 100.899 21.3005 101.422 21.4098C101.921 21.5465 102.394 21.6832 102.843 21.8474C103.292 22.0111 103.641 22.1753 103.89 22.3391C104.239 22.558 104.488 22.7766 104.638 23.0226C104.788 23.2412 104.862 23.5417 104.862 23.9245V25.209C104.862 25.7829 104.663 26.0838 104.289 26.0838C104.09 26.0838 103.765 25.9742 103.342 25.7555C101.921 25.0449 100.325 24.6896 98.5551 24.6896C97.1341 24.6896 96.0121 24.9356 95.2392 25.455C94.4666 25.9742 94.0675 26.767 94.0675 27.8875C94.0675 28.6529 94.3169 29.3087 94.8154 29.8282C95.3142 30.3473 96.2365 30.8667 97.5579 31.3314L101.098 32.5614C102.893 33.1902 104.189 34.0646 104.962 35.1851C105.735 36.3058 106.109 37.5904 106.109 39.0117C106.109 40.1869 105.884 41.2529 105.461 42.1821C105.012 43.1114 104.414 43.9313 103.641 44.5875C102.868 45.2707 101.946 45.7627 100.874 46.1181C99.7515 46.5008 98.5798 46.692 97.3085 46.692Z" fill="#252F3E"/>
    <path d="M102.018 59.9754C93.8163 66.6172 81.8995 70.143 71.6533 70.143C57.2934 70.143 44.3548 64.3212 34.5821 54.6456C33.8093 53.8805 34.5072 52.842 35.4294 53.443C46 60.167 59.0385 64.2393 72.5259 64.2393C81.6254 64.2393 91.6224 62.1622 100.822 57.8983C102.193 57.2148 103.365 58.8824 102.018 59.9754ZM105.434 55.7116C104.387 54.2358 98.5031 55.001 95.8356 55.3563C95.0377 55.4659 94.913 54.7005 95.6362 54.1265C100.323 50.5185 108.027 51.5574 108.924 52.7597C109.822 53.9898 108.675 62.4353 104.287 66.4805C103.614 67.1092 102.966 66.7813 103.265 65.9614C104.262 63.2552 106.481 57.1603 105.434 55.7116Z" fill="#F39200"/>
    <g clip-path="url(#clip0_6967_62868)">
        <path d="M232.505 31.0491L238.986 24.5676L239.418 21.8385C227.607 11.0988 208.832 12.3166 198.185 24.3795C195.227 27.7299 193.033 31.9069 191.863 36.2202L194.185 35.8931L207.147 33.7552L208.148 32.732C213.914 26.3994 223.664 25.5474 230.321 30.9355L232.505 31.0491Z" fill="#EA4335"/>
        <path d="M248.218 36.0297C246.729 30.5435 243.67 25.6115 239.417 21.8389L230.32 30.9356C232.216 32.4846 233.736 34.444 234.764 36.6659C235.792 38.8877 236.302 41.3141 236.256 43.7619V45.3766C240.727 45.3766 244.352 49.0014 244.352 53.4726C244.352 57.944 240.727 61.4779 236.256 61.4779H220.041L218.449 63.2062V72.9169L220.041 74.4405H236.256C247.886 74.5311 257.388 65.2675 257.478 53.6374C257.505 50.1667 256.674 46.7431 255.059 43.6712C253.443 40.5993 251.093 37.9743 248.218 36.0297Z" fill="#4285F4"/>
        <path d="M203.849 74.4405H220.042V61.4776H203.849C202.703 61.4774 201.571 61.2292 200.529 60.75L198.232 61.4549L191.705 67.9363L191.137 70.1423C194.797 72.9061 199.263 74.4603 203.849 74.4405Z" fill="#34A853"/>
        <path d="M203.851 32.3908C192.221 32.4604 182.849 41.945 182.918 53.5754C182.937 56.7803 183.688 59.9386 185.112 62.8096C186.537 65.6806 188.598 68.1885 191.138 70.1424L200.531 60.7504C196.456 58.909 194.645 54.1137 196.486 50.0389C198.327 45.9642 203.123 44.1531 207.197 45.9939C208.993 46.8051 210.431 48.2433 211.242 50.0389L220.635 40.6463C218.663 38.069 216.123 35.9827 213.211 34.5505C210.299 33.1184 207.096 32.3792 203.851 32.3908Z" fill="#FBBC05"/>
    </g>
    <mask id="path-8-inside-2_6967_62868" fill="white">
        <path d="M148.488 0H293.988V90H148.488V0Z"/>
    </mask>
    <path d="M148.488 0H293.988V90H148.488V0Z" fill="#D9D9D9"/>
    <path d="M293.988 85H148.488V95H293.988V85Z" fill="#F39200" mask="url(#path-8-inside-2_6967_62868)"/>
    <path d="M229.426 34.4118L234.287 29.5507L234.611 27.5039C225.753 19.4491 211.672 20.3624 203.686 29.4096C201.468 31.9224 199.823 35.0551 198.945 38.2901L200.686 38.0448L210.408 36.4414L211.159 35.674C215.484 30.9245 222.796 30.2856 227.789 34.3266L229.426 34.4118Z" fill="#EA4335"/>
    <path d="M241.21 38.1471C240.092 34.0324 237.798 30.3334 234.609 27.5039L227.786 34.3264C229.208 35.4882 230.348 36.9578 231.119 38.6242C231.89 40.2906 232.273 42.1103 232.238 43.9462V45.1572C235.591 45.1572 238.31 47.8758 238.31 51.2292C238.31 54.5828 235.591 57.2332 232.238 57.2332H220.077L218.883 58.5294V65.8125L220.077 66.9551H232.238C240.96 67.0231 248.087 60.0754 248.155 51.3528C248.175 48.7498 247.552 46.1821 246.34 43.8781C245.128 41.5742 243.366 39.6055 241.21 38.1471Z" fill="#4285F4"/>
    <path d="M207.933 66.9554L220.077 66.9551V57.2332H207.933C207.073 57.2331 206.224 57.0469 205.443 56.6875L203.72 57.2161L198.825 62.0772L198.398 63.7317C201.144 65.8046 204.493 66.9702 207.933 66.9554Z" fill="#34A853"/>
    <path d="M207.934 35.4181C199.212 35.4703 192.183 42.5838 192.235 51.3066C192.249 53.7102 192.812 56.0789 193.88 58.2322C194.949 60.3854 196.494 62.2664 198.4 63.7318L205.444 56.6878C202.388 55.3068 201.03 51.7103 202.411 48.6542C203.791 45.5981 207.388 44.2398 210.444 45.6204C211.791 46.2288 212.869 47.3075 213.478 48.6542L220.522 41.6097C219.044 39.6768 217.138 38.112 214.954 37.0379C212.77 35.9638 210.368 35.4094 207.934 35.4181Z" fill="#FBBC05"/>
    <mask id="path-11-inside-3_6967_62868" fill="white">
        <path d="M296.98 0H442.48V90H296.98V0Z"/>
    </mask>
    <path d="M296.98 0H442.48V90H296.98V0Z" fill="#D9D9D9"/>
    <path d="M442.48 85H296.98V95H442.48V85Z" fill="#F39200" mask="url(#path-11-inside-3_6967_62868)"/>
    <path d="M340.055 36.6922L345.672 29.2747L366.685 20.7347V14.5547L385.11 28.0372L347.47 35.3447V55.9072L340.055 53.7672V36.6922ZM400.055 25.5672V62.1947L385.672 74.4447L362.415 66.8022V74.4422L347.47 55.9022L385.112 60.3972V28.0372L400.055 25.5672Z" fill="#A90909"/>
    <mask id="path-14-inside-4_6967_62868" fill="white">
        <path d="M445.469 0H590.969V90H445.469V0Z"/>
    </mask>
    <path d="M445.469 0H590.969V90H445.469V0Z" fill="#D9D9D9"/>
    <path d="M590.969 85H445.469V95H590.969V85Z" fill="#F39200" mask="url(#path-14-inside-4_6967_62868)"/>
    <path d="M535.329 38.8572C535.329 48.851 527.405 56.9604 517.625 56.9604C507.845 56.9604 499.922 48.851 499.922 38.8572C499.922 28.8633 507.846 20.7539 517.625 20.7539C527.405 20.7539 535.329 28.8633 535.329 38.8572Z" fill="#D33833"/>
    <path d="M500.651 43.34C500.651 43.34 499.366 24.4661 516.769 23.9233L515.556 21.896L506.119 25.0655L503.42 28.1636L501.065 32.6751L499.723 37.9291L500.123 41.4413" fill="#EF3D3A"/>
    <path d="M505.508 26.5075C502.41 29.6913 500.482 34.0745 500.482 38.9286C500.482 43.7827 502.41 48.1657 505.508 51.3494C508.62 54.5332 512.889 56.4891 517.629 56.4891C522.369 56.4891 526.637 54.5332 529.75 51.3496C532.848 48.1657 534.775 43.7827 534.775 38.9286C534.775 34.0743 532.848 29.6913 529.75 26.5075C526.638 23.3381 522.369 21.368 517.629 21.368C512.903 21.368 508.62 23.3238 505.508 26.5075ZM504.722 52.1061C501.425 48.7368 499.383 44.0683 499.383 38.9286C499.383 33.7888 501.425 29.1202 504.722 25.7366C508.02 22.3673 512.589 20.2686 517.629 20.2686C522.669 20.2686 527.237 22.3673 530.535 25.7366C533.833 29.106 535.875 33.7745 535.875 38.9286C535.875 44.0681 533.833 48.7368 530.535 52.1061C527.237 55.4897 522.669 57.5742 517.629 57.5742C512.589 57.5742 508.02 55.4897 504.722 52.1061Z" fill="#231F20"/>
    <path d="M525.079 38.9571L522.381 39.3568L518.74 39.7709L516.385 39.8281L514.086 39.7567L512.33 39.2142L510.774 37.5294L509.56 34.0886L509.289 33.3462L507.676 32.8037L506.733 31.2476L506.062 29.0203L506.805 27.0645L508.561 26.4505L509.974 27.1216L510.645 28.6065L511.459 28.4778L511.73 28.1353L511.459 26.579L511.388 24.623L511.788 21.9247L511.773 20.3829L513.001 18.4127L515.157 16.8564L518.926 15.2432L523.109 15.857L526.75 18.484L528.435 21.1823L529.519 23.1383L529.791 27.9924L528.977 32.1755L527.492 35.8876L526.093 37.8721" fill="#F0D6B7"/>
    <path d="M522.797 50.6213L513.16 51.0211V52.6343L513.974 58.3024L513.574 58.7734L506.835 56.4749L506.364 55.6611L505.693 48.0372L504.108 43.4685L503.766 42.3835L509.162 38.6716L510.847 38.0005L512.332 39.8278L513.617 40.9701L515.102 41.4412L515.773 41.6412L516.586 45.1533L517.2 45.8957L518.756 45.3531L517.671 47.4517L523.525 50.2215L522.797 50.6213Z" fill="#335061"/>
    <path d="M506.806 27.0926L508.562 26.4788L509.976 27.1497L510.647 28.6346L511.461 28.5061L511.661 27.6923L511.261 26.136L511.66 22.4241L511.318 20.3968L512.531 18.9834L515.158 16.8989L514.416 15.8853L510.704 17.7126L509.148 18.9263L508.277 20.8107L506.935 22.6382L506.535 24.794L506.806 27.0926Z" fill="#6D6B6D"/>
    <path d="M509.576 20.754C509.576 20.754 510.59 18.2555 514.63 17.042C518.67 15.8285 514.83 16.1711 514.83 16.1711L510.447 17.8558L508.762 19.5404L508.02 20.8824L509.576 20.754ZM507.549 26.6219C507.549 26.6219 506.135 21.8961 511.532 21.2252L511.332 20.4114L507.62 21.2823L506.535 24.794L506.806 27.0926L507.549 26.6219Z" fill="#DCD9D8"/>
    <path d="M509.702 32.8891L510.587 32.0324C510.587 32.0324 510.986 32.0753 511.058 32.5464C511.129 33.0176 511.329 37.2721 514.227 39.5564C514.499 39.7705 512.072 39.2137 512.072 39.2137L509.916 35.8444M522.108 31.6041C522.108 31.6041 522.265 29.5625 522.822 29.7196C523.379 29.8766 523.379 30.4333 523.379 30.4333C523.379 30.4333 522.037 31.29 522.108 31.6041ZM527.705 24.1231C527.705 24.1231 526.591 24.3514 526.491 25.3366C526.391 26.3216 527.705 25.5364 527.905 25.4651M519.553 24.1944C519.553 24.1944 518.068 24.3943 518.068 25.3366C518.068 26.2787 519.753 26.2074 520.224 25.8077M510.387 28.5774C510.387 28.5774 507.831 27.0212 507.56 28.5061C507.289 29.9908 506.689 31.0615 507.96 32.6177L507.089 32.3465L506.275 30.262L506.004 28.2347L507.56 26.6215L509.316 26.75L510.33 27.5638L510.387 28.5774ZM511.6 24.3229C511.6 24.3229 512.742 18.3836 518.539 17.2415C523.307 16.2992 525.82 17.4415 526.762 18.5264C526.762 18.5264 522.508 13.4724 518.468 15.0143C514.427 16.5705 511.458 19.3973 511.529 21.2105C511.643 24.3228 511.6 24.3229 511.6 24.3229ZM527.234 19.1974C527.234 19.1974 525.278 19.1261 525.206 20.882C525.206 20.882 525.206 21.1534 525.335 21.4246C525.335 21.4246 526.891 19.6685 527.833 20.6108" fill="#F7E4CD"/>
    <path d="M518.684 21.6104C518.684 21.6104 518.341 18.9264 516.057 20.4825C514.572 21.4962 514.715 22.9096 514.972 23.1809C515.243 23.4521 515.172 23.9946 515.371 23.6235C515.571 23.2523 515.514 22.0388 516.257 21.696C516.985 21.3534 518.213 20.9824 518.684 21.6104Z" fill="#F7E4CD"/>
    <path d="M512.344 39.8276L506.005 42.6542C506.005 42.6542 508.632 53.105 507.289 56.3459L506.347 56.0033L506.276 52.02L504.52 44.4819L503.777 42.3973L510.388 37.9429L512.344 39.8276ZM512.986 45.6096L513.886 46.7091V50.7493H512.815C512.815 50.7493 512.686 47.9226 512.686 47.58C512.686 47.2373 512.815 46.0237 512.815 46.0237M513.015 51.3633L509.974 51.4918L510.845 52.1058L513 52.4485" fill="#49728B"/>
    <path d="M523.395 50.6925L525.893 50.6211L526.507 56.8172L523.951 57.1599L523.395 50.6925Z" fill="#335061"/>
    <path d="M524.066 50.6925L527.835 50.4925C527.835 50.4925 529.392 46.5807 529.392 46.3808C529.392 46.1808 530.734 40.7129 530.734 40.7129L527.693 37.5434L527.079 37.001L525.466 38.6142V44.8818L524.066 50.6925Z" fill="#335061"/>
    <path d="M525.75 50.2212L523.395 50.6925L523.737 52.577C524.608 52.9767 526.093 51.9059 526.093 51.9059M525.822 38.4143L530.547 41.9264L530.676 40.313L527.107 37.0151L525.822 38.4143Z" fill="#49728B"/>
    <path d="M515.357 63.97L513.958 58.3021L513.259 54.1189L513.145 51.0208L519.469 50.6782H523.395L523.038 57.7595L523.652 63.2276L523.581 64.2412L518.455 64.6411L515.357 63.97Z" fill="white"/>
    <path d="M522.523 50.621C522.523 50.621 522.18 57.6311 523.194 62.628C523.194 62.628 521.166 63.9128 518.211 64.2412L523.879 64.0413L524.55 63.6416L523.736 52.5913L523.522 50.2212" fill="#DCD9D8"/>
    <path d="M526.608 56.2893L529.235 55.5469L534.218 55.2757L534.961 52.9771L533.618 48.9938L532.062 48.7939L529.906 49.465L527.851 50.4787L526.751 50.2787L525.895 50.6214" fill="white"/>
    <path d="M526.566 54.9329C526.566 54.9329 528.323 54.1191 528.594 54.1904L527.851 50.4787L528.722 50.1357C528.722 50.1357 529.336 53.648 529.336 54.0477C529.336 54.0477 533.105 54.2475 533.448 54.2475C533.448 54.2475 534.262 52.6913 534.062 51.078L534.804 53.2339L534.876 54.4474L533.791 56.0606L532.577 56.332L530.55 56.2606L529.879 55.3897L527.523 55.7323L526.781 56.0037" fill="#DCD9D8"/>
    <path d="M523.908 50.15L522.423 46.3809L520.867 44.1536C520.867 44.1536 521.21 43.2114 521.681 43.2114H523.237L524.722 43.7539L524.594 46.2524L523.908 50.15Z" fill="white"/>
    <path d="M524.21 48.8653C524.21 48.8653 522.326 45.2248 522.326 44.6822C522.326 44.6822 522.668 43.8684 523.139 44.0684C523.611 44.2682 524.624 44.8108 524.624 44.8108V43.5258L522.326 43.0547L520.77 43.2545L523.396 49.4793L523.939 49.5507" fill="#DCD9D8"/>
    <path d="M515.958 39.9705L514.088 39.7705L512.332 39.228V39.842L513.189 40.7843L515.887 41.9978" fill="white"/>
    <path d="M512.943 40.1704C512.943 40.1704 515.028 41.0413 515.713 40.8415L515.784 41.6553L513.9 41.2554L512.758 40.4416L512.943 40.1704Z" fill="#DCD9D8"/>
    <path d="M526.609 43.44C525.467 43.4113 524.425 43.2686 523.525 43.0116C523.582 42.6404 523.468 42.2836 523.568 42.0122C523.825 41.8266 524.239 41.8266 524.625 41.7838C524.296 41.6267 523.825 41.5553 523.454 41.6553C523.44 41.3984 523.325 41.2412 523.254 41.0414C523.896 40.8129 525.41 39.3139 526.266 39.7992C526.681 40.042 526.852 41.384 526.88 42.0551C526.909 42.5975 526.823 43.1401 526.609 43.44Z" fill="#D33833"/>
    <path d="M526.609 43.44C525.467 43.4113 524.425 43.2686 523.525 43.0116C523.582 42.6404 523.468 42.2836 523.568 42.0122C523.825 41.8266 524.239 41.8266 524.625 41.7838C524.296 41.6267 523.825 41.5553 523.454 41.6553C523.44 41.3984 523.325 41.2412 523.254 41.0414C523.896 40.8129 525.41 39.3139 526.266 39.7992C526.681 40.042 526.852 41.384 526.88 42.0551C526.909 42.5975 526.823 43.1401 526.609 43.44Z" fill="black"/>
    <path d="M521.141 41.5694C521.141 41.6551 521.141 41.7406 521.126 41.8263C520.769 42.0548 520.198 42.0548 519.798 42.2547C520.37 42.2832 520.826 42.4259 521.226 42.6115C521.212 42.8258 521.212 43.0543 521.198 43.2684C520.541 43.711 519.941 44.382 519.17 44.8102C518.799 45.0102 517.528 45.5242 517.143 45.4242C516.929 45.3671 516.9 45.0958 516.815 44.8389C516.629 44.2964 516.201 43.4111 516.158 42.583C516.115 41.5409 516.001 39.7848 517.129 39.9989C518.042 40.1702 519.099 40.5843 519.798 40.9698C520.241 41.2268 520.484 41.5122 521.141 41.5694Z" fill="#D33833"/>
    <path d="M521.141 41.5694C521.141 41.6551 521.141 41.7406 521.126 41.8263C520.769 42.0548 520.198 42.0548 519.798 42.2547C520.37 42.2832 520.826 42.4259 521.226 42.6115C521.212 42.8258 521.212 43.0543 521.198 43.2684C520.541 43.711 519.941 44.382 519.17 44.8102C518.799 45.0102 517.528 45.5242 517.143 45.4242C516.929 45.3671 516.9 45.0958 516.815 44.8389C516.629 44.2964 516.201 43.4111 516.158 42.583C516.115 41.5409 516.001 39.7848 517.129 39.9989C518.042 40.1702 519.099 40.5843 519.798 40.9698C520.241 41.2268 520.484 41.5122 521.141 41.5694Z" fill="black"/>
    <path d="M521.782 42.8118C521.682 42.2406 521.568 42.0837 521.611 41.5839C523.138 40.5702 523.41 43.3257 521.782 42.8118Z" fill="#D33833"/>
    <path d="M521.782 42.8118C521.682 42.2406 521.568 42.0837 521.611 41.5839C523.138 40.5702 523.41 43.3257 521.782 42.8118Z" fill="black"/>
    <path d="M523.979 43.2685C523.979 43.2685 523.508 42.5975 523.851 42.3976C524.194 42.1978 524.522 42.3976 524.722 42.055C524.922 41.7123 524.722 41.5126 524.793 41.1127C524.865 40.713 525.193 40.6416 525.536 40.5703C525.878 40.4988 526.821 40.3703 526.949 40.6988L526.549 39.4851L525.736 39.2139L523.18 40.6988L523.051 41.4412V42.926M516.898 45.4957C516.812 44.4392 516.727 43.397 516.641 42.3405C516.498 40.7701 517.012 41.0412 518.383 41.0412C518.597 41.0412 519.668 41.2841 519.739 41.4412C520.11 42.1978 519.125 42.0264 520.167 42.5975C521.038 43.0687 522.595 42.312 522.238 41.2412C522.038 40.9985 521.21 41.1698 520.91 41.0127L519.325 40.199C518.654 39.8563 517.112 39.3424 516.398 39.8278C514.585 41.0556 516.513 44.1395 517.155 45.4244" fill="#EF3D3A"/>
    <path d="M518.682 21.6106C516.841 21.1822 515.927 22.3815 515.37 23.6235C514.87 23.5094 515.07 22.8241 515.199 22.4815C515.527 21.5821 516.855 20.3684 517.94 20.5398C518.397 20.5969 519.025 21.0252 518.682 21.6106ZM527.634 23.6949H527.72C528.134 24.5516 528.49 25.4654 529.019 26.2363C528.662 27.0644 526.363 27.7782 526.392 26.3219C526.891 26.1078 527.748 26.279 528.191 25.9936C527.934 25.294 527.577 24.6942 527.634 23.6949ZM519.61 23.7237C520.01 24.4517 520.138 25.2084 520.695 25.751C520.952 25.9936 521.438 26.2934 521.195 26.9786C521.138 27.1357 520.724 27.4927 520.481 27.5641C519.61 27.8211 517.569 27.6212 518.254 26.5218C518.982 26.5504 519.953 26.993 520.495 26.4647C520.081 25.808 519.339 24.4944 519.61 23.7237ZM527.306 31.0618C525.992 31.9042 524.521 32.8323 522.351 32.618C521.895 32.2183 521.709 31.3188 522.166 30.7336C522.394 31.1333 522.251 31.8757 522.908 31.9898C524.136 32.2041 525.564 31.2331 526.449 30.9049C526.991 29.9769 526.406 29.6485 525.906 29.0488C524.893 27.8353 523.551 26.3219 523.593 24.5088C524.008 24.209 524.036 24.9657 524.093 25.0942C524.621 26.3219 525.949 27.9067 526.906 28.9632C527.148 29.2202 527.534 29.4772 527.577 29.6485C527.705 30.1339 527.248 30.7333 527.306 31.0618ZM509.916 30.1767C509.502 29.934 509.402 28.9061 508.917 28.8775C508.217 28.8347 508.346 30.2196 508.346 31.0333C507.875 30.6051 507.789 29.2629 508.132 28.5778C507.732 28.3778 507.56 28.7919 507.332 28.9346C507.632 26.8645 510.373 27.978 509.916 30.1767ZM528.134 31.9327C527.52 33.1035 526.649 34.3884 524.85 34.4313C524.807 34.0601 524.779 33.4747 524.85 33.2462C526.235 33.1035 527.091 32.4039 528.134 31.9327ZM519.51 32.6894C520.652 33.2891 522.765 33.3605 524.336 33.3176C524.422 33.6603 524.422 34.0885 524.422 34.5026C522.409 34.5883 520.039 34.0885 519.51 32.6894ZM519.296 33.8031C520.096 35.8018 522.823 35.5734 525.121 35.5163C525.021 35.7733 524.807 36.0874 524.522 36.1872C523.779 36.4871 521.752 36.7156 520.724 36.173C520.081 35.8304 519.653 35.0451 519.296 34.5883C519.139 34.3742 518.283 33.8173 519.296 33.8031Z" fill="#231F20"/>
    <path d="M527.208 44.8104C526.28 46.4094 525.381 48.0513 524.281 49.4504C524.738 48.0941 524.938 45.8098 525.009 44.0681C525.98 43.6111 526.808 44.1678 527.208 44.8104Z" fill="#81B0C4"/>
    <path d="M532.22 50.5498C531.178 50.7639 530.45 51.7776 529.422 51.7062C529.993 50.9209 530.964 50.5783 532.22 50.5498ZM532.677 52.1773C531.82 52.263 530.821 52.4058 529.964 52.3344C530.378 51.7062 531.949 51.9346 532.677 52.1773ZM532.977 53.5908C532.02 53.6051 530.835 53.5908 529.922 53.5193C530.464 52.934 532.363 53.3052 532.977 53.5908Z" fill="#231F20"/>
    <path d="M525.407 57.4455C525.55 58.6448 526.021 59.8584 525.964 61.1718C525.436 61.343 525.136 61.5002 524.422 61.5002C524.379 60.3865 524.222 58.6734 524.265 57.6026C524.608 57.6311 525.122 57.3599 525.407 57.4455Z" fill="#DCD9D8"/>
    <path d="M523.867 39.7423C523.382 40.0563 522.982 40.4418 522.511 40.7845C521.483 40.8416 520.926 40.7131 520.184 40.1278C520.198 40.0849 520.269 40.0992 520.269 40.042C521.368 40.5275 522.768 39.8423 523.867 39.7423Z" fill="#F0D6B7"/>
    <path d="M518.125 47.209C518.425 45.9097 519.61 45.2246 520.681 44.5107C521.78 45.9099 522.451 47.7087 523.193 49.4505C521.437 48.9223 519.653 48.0799 518.125 47.209Z" fill="#81B0C4"/>
    <path d="M524.268 57.6168C524.225 58.6876 524.368 60.3866 524.425 61.5143C525.139 61.5143 525.438 61.3574 525.967 61.186C526.024 59.8725 525.553 58.6589 525.41 57.4597C525.124 57.3598 524.61 57.631 524.268 57.6168ZM513.246 51.5634C513.717 55.8607 514.388 59.4584 515.63 63.2705C518.386 64.1128 521.698 64.1841 524.139 63.4274C523.697 61.286 523.882 58.6733 523.625 56.3746C523.425 54.6471 523.525 52.9197 523.254 51.1636C520.299 50.5497 516.13 51.0208 513.246 51.5634ZM523.954 51.1922C523.925 53.0339 524.039 54.8613 524.182 56.703C524.896 56.6031 525.367 56.5318 526.024 56.3746C525.81 54.6043 525.838 52.5913 525.396 51.0208C524.896 51.0352 524.453 51.021 523.954 51.1922ZM527.537 50.8923C527.195 50.821 526.809 50.8923 526.495 50.8923C526.652 52.3915 527.009 54.0476 527.137 55.6323C527.637 55.6466 527.908 55.4038 528.323 55.3325C528.351 53.9476 528.208 52.0345 527.537 50.8923ZM532.977 55.8607C534.033 55.6037 534.69 54.3188 534.39 52.991C534.19 52.1059 533.848 50.4212 533.462 49.85C533.191 49.4361 532.434 48.8792 531.82 49.2647C530.835 49.8929 529.108 50.0785 528.394 50.8352C528.751 52.0345 528.865 53.6621 529.008 55.1754C530.236 55.2469 531.735 54.8329 532.763 55.2753C532.049 55.5038 531.135 55.5038 530.521 55.8464C531.035 56.0892 532.206 56.0463 532.977 55.8607ZM523.183 49.4503C522.44 47.7086 521.769 45.9097 520.67 44.5106C519.599 45.2243 518.429 45.9097 518.114 47.2089C519.656 48.0798 521.441 48.9221 523.183 49.4503ZM525.009 44.0681C524.938 45.8098 524.738 48.0941 524.281 49.4504C525.381 48.037 526.28 46.4094 527.208 44.8104C526.808 44.1678 525.98 43.6111 525.009 44.0681ZM522.94 43.34C522.526 43.2969 522.169 43.8253 521.627 43.5968C521.498 43.7395 521.384 43.8824 521.255 44.0251C522.455 45.4812 523.011 47.5374 523.939 49.2362C524.439 47.5945 524.382 45.8097 524.496 44.0251C523.811 44.0536 523.426 43.3828 522.94 43.34ZM521.612 41.5837C521.569 42.0834 521.684 42.2405 521.784 42.8116C523.411 43.3256 523.14 40.57 521.612 41.5837ZM519.799 40.9841C519.099 40.5985 518.043 40.1846 517.129 40.0133C516.002 39.7991 516.116 41.5552 516.158 42.5975C516.201 43.4254 516.63 44.2964 516.815 44.8532C516.901 45.1102 516.929 45.3814 517.144 45.4385C517.529 45.5243 518.814 45.0246 519.171 44.8246C519.942 44.4106 520.542 43.7397 521.198 43.2827C521.213 43.0686 521.213 42.8401 521.227 42.626C520.827 42.426 520.385 42.2976 519.799 42.2692C520.185 42.0692 520.77 42.0692 521.127 41.8408C521.127 41.7551 521.127 41.6694 521.141 41.5837C520.484 41.5123 520.242 41.2269 519.799 40.9841ZM513.089 39.7706C512.504 40.3702 514.731 41.1697 515.43 41.2126C515.43 40.8414 515.645 40.4846 515.602 40.2132C514.759 40.0705 513.66 40.1703 513.089 39.7706ZM520.285 40.0418C520.285 40.0989 520.213 40.0847 520.199 40.1276C520.956 40.7129 521.512 40.8412 522.526 40.7843C522.983 40.4559 523.397 40.0562 523.882 39.742C522.769 39.842 521.37 40.5273 520.285 40.0418ZM526.88 42.0407C526.852 41.3838 526.68 40.0276 526.267 39.7848C525.41 39.2851 523.897 40.7985 523.254 41.027C523.326 41.2269 523.44 41.3838 523.454 41.6408C523.84 41.541 524.296 41.6123 524.625 41.7693C524.239 41.8122 523.825 41.8122 523.568 41.9978C523.483 42.269 523.597 42.626 523.525 42.9972C524.425 43.2542 525.467 43.3827 526.609 43.4254C526.823 43.14 526.909 42.5974 526.88 42.0407ZM512.104 40.3417C511.918 40.2132 510.676 38.5998 510.505 38.6712C508.263 39.5565 506.165 41.0841 504.294 42.5402C506.079 46.3808 506.807 51.0779 506.936 55.6037C508.977 56.5602 510.776 57.9451 513.56 58.0879C513.232 55.8179 512.946 53.7762 512.761 51.6346C512.061 51.3349 511.062 51.649 510.405 51.549C510.405 50.7638 511.404 51.2064 511.49 50.6782C511.547 50.2784 510.933 50.2499 511.133 49.6217C511.647 49.8073 511.918 50.2212 512.461 50.3784C512.96 49.2933 512.461 47.366 512.532 46.4522C512.547 46.281 512.618 45.5099 513.003 45.6384C513.346 45.7526 512.989 47.7086 513.018 48.5651C513.046 49.3647 512.918 50.1214 513.246 50.6211C515.93 50.2499 518.657 50.0214 521.569 49.9358C520.927 49.6646 520.17 49.4076 519.342 48.9364C518.885 48.6794 517.472 48.1512 517.344 47.7228C517.129 47.0375 517.886 46.6807 518.014 46.0952C516.658 46.8377 516.401 45.3815 516.073 44.3677C515.787 43.4397 515.616 42.7402 515.545 42.2119C514.36 41.6123 513.103 41.0555 512.104 40.3417ZM525.695 38.8568C527.566 37.9575 527.908 42.2405 527.166 43.6254C527.28 44.0394 527.666 44.1965 527.823 44.5676C526.78 46.4379 525.624 48.1797 524.553 50.0214C525.339 49.5217 526.481 49.9358 527.409 49.5646C527.751 49.4361 527.994 48.6509 528.251 48.0227C528.965 46.3094 529.707 44.1392 530.036 42.5119C530.107 42.1407 530.321 41.3267 530.264 40.9984C530.178 40.3988 529.379 39.9562 528.965 39.5992C528.208 38.9139 527.737 38.3287 526.937 37.6861C526.638 38.1574 525.952 38.4712 525.695 38.8568ZM507.835 22.2812C506.95 23.2664 507.135 25.0939 507.235 26.4073C508.849 25.3938 510.976 26.493 510.962 28.2063C511.733 28.1919 511.247 27.2497 511.105 26.6358C510.648 24.6513 511.875 22.5097 511.162 20.6966C509.777 20.8107 508.649 21.3674 507.835 22.2812ZM514.203 16.5848C512.19 17.1559 509.605 18.6264 508.777 20.4395C509.42 20.3397 509.862 20.0256 510.491 19.9827C510.733 19.9684 511.047 20.0827 511.319 20.0113C511.861 19.8686 512.332 18.6407 512.746 18.1838C513.146 17.7412 513.631 17.5414 513.96 17.1417C514.174 17.0417 514.488 17.0417 514.502 16.7276C514.417 16.6276 514.317 16.5564 514.203 16.5848ZM524.696 17.1273C522.597 15.9424 519.057 15.0572 516.83 16.1707C515.031 17.0702 512.604 18.5549 511.775 20.4254C512.546 22.2384 511.547 23.8945 511.476 25.7362C511.447 26.7214 511.933 27.5638 511.975 28.6346C511.704 29.0772 510.905 29.12 510.348 29.0915C510.162 28.149 509.834 27.0926 508.863 26.9784C507.492 26.8214 506.479 27.9635 506.422 29.1486C506.35 30.5477 507.492 32.8605 509.12 32.7035C509.748 32.6464 509.905 32.0182 510.59 32.0182C510.962 32.7607 510.019 32.989 509.919 33.5172C509.891 33.6601 509.991 34.1883 510.062 34.4453C510.362 35.6588 511.019 37.2435 511.661 38.1716C512.489 39.3565 514.103 39.5279 515.844 39.6421C516.158 38.971 517.301 39.0282 518.043 39.1995C517.144 38.8427 516.316 37.986 515.63 37.2293C514.845 36.3584 514.046 35.4305 514.003 34.2883C515.502 36.3584 516.73 38.1716 519.442 39.0854C521.498 39.7706 523.897 38.7712 525.481 37.6576C526.138 37.2007 526.524 36.4584 526.995 35.8015C528.736 33.2889 529.55 29.7195 529.379 26.2503C529.308 24.8227 529.308 23.3949 528.822 22.4384C528.323 21.4389 526.624 20.5253 525.624 21.4389C525.438 20.4539 526.452 19.8542 527.637 20.2112C526.795 19.1119 525.91 17.8126 524.696 17.1273ZM528.608 49.4076C530.25 48.5938 533.305 47.2231 534.319 49.4076C534.704 50.2212 535.147 51.5776 535.332 52.42C535.604 53.5907 535.033 56.0749 533.819 56.4602C532.748 56.803 531.506 56.7887 530.221 56.5318C530.064 56.4033 529.907 56.189 529.779 55.9605C528.865 55.932 527.994 56.0036 527.28 56.389C527.352 57.0742 526.895 57.1742 526.452 57.3171C526.138 58.5876 527.095 60.2437 526.866 61.3859C526.709 62.2139 525.695 62.3424 524.953 62.4851C524.925 62.9421 524.982 63.3276 525.039 63.7131C524.868 64.3413 524.111 64.6981 523.383 64.7838C520.998 65.0693 517.386 65.1978 515.102 64.3697C514.459 62.7994 513.96 60.9005 513.432 59.1159C511.204 59.3585 509.391 58.1592 507.692 57.3598C507.107 57.0886 506.293 56.9315 506.065 56.4604C505.851 56.0036 505.936 55.1326 505.879 54.3188C505.751 52.2201 505.622 50.1928 505.08 48.0512C504.837 47.0804 504.394 46.2381 504.094 45.3102C503.809 44.4535 503.324 43.3827 503.195 42.526C503.009 41.2555 504.209 41.184 504.965 40.6271C506.15 39.7706 507.078 39.2994 508.363 38.5284C508.749 38.3001 509.891 37.729 510.019 37.4576C510.276 36.9296 509.577 36.1871 509.391 35.773C509.091 35.1164 508.934 34.5595 508.892 33.9169C507.821 33.7457 506.993 33.1033 506.507 32.3894C505.693 31.1902 505.122 28.9772 505.836 27.3069C505.893 27.1784 506.165 26.907 506.208 26.7071C506.293 26.3074 506.05 25.7791 506.036 25.3509C505.965 23.1664 506.407 21.2818 507.878 20.6251C508.477 18.241 510.619 17.4558 512.632 16.2707C513.389 15.8282 514.217 15.5427 515.073 15.2284C518.143 14.1007 522.869 14.3148 525.424 16.2421C526.509 17.0559 528.237 18.7834 528.851 20.0398C530.492 23.3378 530.364 28.863 529.222 32.8892C529.065 33.4316 528.851 34.2168 528.537 34.8736C528.323 35.3305 527.651 36.2299 527.723 36.6296C527.809 37.0437 529.265 38.143 529.579 38.4428C530.136 38.9853 531.206 39.6992 531.292 40.3846C531.392 41.1126 530.978 42.112 530.764 42.8116C530.078 45.153 529.393 47.3089 528.608 49.4076Z" fill="#231F20"/>
    <path d="M517.683 33.1887C517.769 33.0745 518.254 32.889 518.94 33.2174C518.94 33.2174 518.126 33.3459 518.197 34.7023L517.855 34.6308C517.869 34.6451 517.512 33.4172 517.683 33.1887Z" fill="#F7E4CD"/>
    <path d="M523.594 44.7819C523.594 44.9817 523.423 45.1531 523.223 45.1531C523.023 45.1531 522.852 44.9817 522.852 44.7819C522.852 44.5819 523.023 44.4106 523.223 44.4106C523.437 44.4106 523.594 44.5819 523.594 44.7819ZM523.965 46.5093C523.965 46.7094 523.794 46.8806 523.594 46.8806C523.394 46.8806 523.223 46.7094 523.223 46.5093C523.223 46.3093 523.394 46.1381 523.594 46.1381C523.808 46.1381 523.965 46.2952 523.965 46.5093Z" fill="#1D1919"/>
    <path d="M504.52 68.3529C504.406 68.3673 504.306 68.3816 504.22 68.3958C504.135 68.4102 504.049 68.4243 503.935 68.4529C503.806 68.4814 503.735 68.5386 503.706 68.6242C503.678 68.7099 503.649 68.7955 503.649 68.9098V72.3932C503.649 72.6995 503.581 73.002 503.449 73.2786C503.321 73.5498 503.149 73.7639 502.921 73.9495C502.693 74.1209 502.436 74.2636 502.15 74.3493C501.864 74.435 501.565 74.4921 501.251 74.4921C500.694 74.4921 500.251 74.3636 499.908 74.0924C499.566 73.821 499.395 73.4642 499.395 72.9931C499.395 72.7217 499.466 72.4932 499.623 72.3076C499.78 72.122 499.994 72.0364 500.265 72.0364C500.522 72.0364 500.722 72.1078 500.879 72.2649C501.036 72.4219 501.108 72.6075 501.108 72.8217C501.108 73.0073 501.036 73.1929 500.908 73.3498C500.779 73.5069 500.622 73.664 500.451 73.7925V73.8496C500.48 73.9068 500.537 73.9639 500.622 74.0066C500.708 74.0495 500.808 74.0637 500.894 74.0637C501.251 74.0637 501.536 73.9352 501.736 73.6783C501.936 73.4213 502.036 73.0358 502.036 72.5219V68.9527C502.036 68.8527 502.021 68.7527 501.993 68.6813C501.964 68.6099 501.879 68.5528 501.75 68.4957C501.665 68.4529 501.55 68.4243 501.422 68.3958C501.293 68.3672 501.193 68.3529 501.108 68.3387V67.9961H504.477V68.3529H504.52ZM509.802 73.2643C509.702 73.4355 509.574 73.5927 509.431 73.7496C509.288 73.9068 509.117 74.0209 508.932 74.1353C508.732 74.2494 508.532 74.335 508.332 74.3921C508.132 74.4492 507.889 74.4778 507.632 74.4778C507.19 74.4778 506.819 74.4207 506.49 74.2922C506.176 74.1637 505.905 74.0066 505.705 73.7925C505.491 73.5783 505.348 73.3357 505.234 73.0501C505.13 72.7517 505.077 72.438 505.077 72.122C505.077 71.8223 505.134 71.5224 505.248 71.2512C505.362 70.98 505.519 70.723 505.719 70.5088C505.919 70.2947 506.176 70.1233 506.49 69.9948C506.816 69.8615 507.166 69.7936 507.518 69.7948C507.932 69.7948 508.275 69.8521 508.546 69.9519C508.817 70.0519 509.032 70.1947 509.203 70.366C509.374 70.5373 509.488 70.7373 509.574 70.9656C509.645 71.1941 509.688 71.4368 509.688 71.6937V71.9793H506.676C506.676 72.5932 506.79 73.0501 507.033 73.3642C507.261 73.6783 507.647 73.8354 508.146 73.8354C508.432 73.8354 508.675 73.7639 508.903 73.6069C509.131 73.4525 509.325 73.2534 509.474 73.0216L509.802 73.2643ZM508.103 71.5653C508.103 71.3941 508.089 71.2085 508.075 71.0229C508.061 70.8373 508.032 70.6801 507.975 70.5659C507.918 70.4232 507.861 70.3232 507.761 70.2518C507.675 70.1804 507.561 70.1519 507.433 70.1519C507.204 70.1519 507.018 70.266 506.89 70.4944C506.747 70.723 506.676 71.0941 506.661 71.5938L508.103 71.5653ZM516.099 74.3207H513.415V73.9924C513.472 73.9924 513.543 73.978 513.614 73.9639C513.7 73.9495 513.757 73.9352 513.8 73.921C513.857 73.8924 513.9 73.8354 513.928 73.7783C513.957 73.7211 513.971 73.6211 513.971 73.5069V71.4226C513.971 71.1227 513.914 70.8942 513.8 70.7373C513.686 70.5801 513.529 70.5088 513.3 70.5088C513.186 70.5088 513.072 70.5232 512.972 70.5659C512.872 70.5944 512.772 70.6515 512.672 70.723C512.586 70.78 512.515 70.8371 512.458 70.9086C512.401 70.9656 512.358 71.0227 512.329 71.0799V73.464C512.329 73.564 512.344 73.6496 512.372 73.7211C512.401 73.7925 512.458 73.8496 512.515 73.8781C512.567 73.913 512.625 73.9372 512.686 73.9495L512.901 73.9924V74.3207H510.188V73.9924C510.259 73.9924 510.331 73.978 510.416 73.9639C510.488 73.9495 510.559 73.9352 510.616 73.921C510.716 73.8924 510.773 73.8354 510.816 73.7639C510.845 73.6925 510.873 73.6069 510.873 73.4927V70.8942C510.873 70.8086 510.845 70.7086 510.802 70.623C510.759 70.5374 510.688 70.4659 510.616 70.4089C510.559 70.3803 510.502 70.3374 510.416 70.3232C510.329 70.294 510.237 70.2795 510.145 70.2804V69.9519L512.272 69.8378L512.344 69.9092V70.5517H512.358C512.462 70.466 512.562 70.3755 512.658 70.2804C512.763 70.1894 512.873 70.1036 512.986 70.0233C513.1 69.9519 513.243 69.8948 513.415 69.8377C513.586 69.7807 513.786 69.7663 513.986 69.7663C514.471 69.7663 514.828 69.9092 515.071 70.1804C515.313 70.4517 515.427 70.8229 515.427 71.2797V73.4643C515.427 73.5784 515.442 73.6642 515.47 73.7213C515.499 73.7927 515.57 73.8355 515.656 73.8783C515.699 73.8927 515.756 73.9212 515.827 73.9354C515.899 73.9498 515.97 73.964 516.07 73.9783V74.3209L516.099 74.3207ZM522.238 74.3207H520.139C519.918 73.9252 519.679 73.5394 519.425 73.1643C519.211 72.8502 519.011 72.5504 518.825 72.2934L518.568 72.5219V73.4927C518.568 73.5927 518.583 73.6927 518.611 73.7496C518.64 73.821 518.697 73.8639 518.797 73.9068C518.854 73.9352 518.911 73.9495 518.983 73.9639C519.054 73.9781 519.125 73.9924 519.197 73.9924V74.3207H516.427V73.9924C516.498 73.9924 516.57 73.978 516.655 73.9639C516.727 73.9495 516.798 73.9352 516.855 73.921C516.955 73.8924 517.012 73.8354 517.055 73.7639C517.084 73.6925 517.112 73.6069 517.112 73.4927V68.5243C517.112 68.4243 517.084 68.3243 517.041 68.2245C516.998 68.1246 516.941 68.0388 516.855 67.9817C516.798 67.9532 516.713 67.9104 516.598 67.8961C516.484 67.8676 516.384 67.8532 516.284 67.8532V67.5249L518.497 67.4106L518.568 67.482V72.0791C518.783 71.8794 519.04 71.6509 519.311 71.394C519.582 71.137 519.811 70.9229 519.968 70.7515C520.068 70.6515 520.125 70.5803 520.125 70.523C520.139 70.4659 520.139 70.4374 520.139 70.4232C520.139 70.366 520.096 70.3232 519.996 70.2947C519.896 70.266 519.768 70.2233 519.568 70.1947V69.8806H521.824V70.1947C521.524 70.2804 521.295 70.3518 521.138 70.4232C520.981 70.4945 520.81 70.5944 520.624 70.7086C520.503 70.7909 520.384 70.8766 520.267 70.9656C520.153 71.0514 520.025 71.1656 519.868 71.294C520.153 71.7223 520.424 72.1078 520.667 72.4647C520.91 72.8216 521.167 73.2072 521.438 73.6069C521.524 73.7496 521.638 73.8354 521.781 73.8924C521.924 73.9352 522.052 73.9639 522.195 73.9781V74.3207H522.238ZM522.28 74.3207V73.9924C522.352 73.9924 522.438 73.978 522.509 73.9639C522.58 73.9495 522.652 73.9352 522.695 73.921C522.794 73.8924 522.852 73.8354 522.894 73.7639C522.937 73.6925 522.952 73.6069 522.952 73.4927V70.8942C522.952 70.7944 522.923 70.6944 522.88 70.623C522.843 70.5455 522.783 70.4809 522.709 70.4374C522.652 70.4089 522.58 70.366 522.466 70.3374C522.352 70.3089 522.252 70.2804 522.166 70.2804V69.9519L524.351 69.8378L524.422 69.9092V73.4498C524.422 73.5498 524.451 73.6354 524.493 73.7211C524.536 73.7925 524.608 73.8496 524.679 73.8781C524.742 73.9105 524.81 73.9345 524.879 73.9495C524.95 73.9639 525.022 73.9781 525.107 73.9924V74.3207H522.28ZM524.451 68.2531C524.451 68.4814 524.365 68.667 524.194 68.8242C524.022 68.9811 523.808 69.0668 523.58 69.0668C523.337 69.0668 523.137 68.9811 522.952 68.8242C522.78 68.667 522.695 68.4672 522.695 68.2529C522.695 68.0246 522.78 67.839 522.952 67.6676C523.123 67.5106 523.337 67.425 523.58 67.425C523.822 67.425 524.022 67.5106 524.194 67.6676C524.365 67.8247 524.451 68.0246 524.451 68.2531ZM531.389 74.3207H528.705V73.9924C528.762 73.9924 528.834 73.978 528.905 73.9639C528.991 73.9495 529.048 73.9352 529.091 73.921C529.147 73.8924 529.19 73.8354 529.219 73.7783C529.247 73.7211 529.262 73.6211 529.262 73.5069V71.4226C529.262 71.1227 529.205 70.8942 529.091 70.7373C528.976 70.5801 528.819 70.5088 528.591 70.5088C528.477 70.5088 528.362 70.5232 528.262 70.5659C528.162 70.6088 528.062 70.6515 527.963 70.723C527.877 70.78 527.805 70.8371 527.748 70.9086C527.691 70.9656 527.648 71.0227 527.62 71.0799V73.464C527.62 73.564 527.634 73.6496 527.663 73.7211C527.691 73.7925 527.748 73.8496 527.805 73.8781C527.848 73.9068 527.905 73.9352 527.977 73.9495L528.191 73.9924V74.3207H525.478V73.9924C525.55 73.9924 525.621 73.978 525.707 73.9639C525.778 73.9495 525.85 73.9352 525.907 73.921C526.007 73.8924 526.064 73.8354 526.107 73.7639C526.135 73.6925 526.164 73.6069 526.164 73.4927V70.8942C526.164 70.8086 526.135 70.7086 526.092 70.623C526.049 70.5374 525.978 70.4659 525.907 70.4089C525.85 70.3803 525.793 70.3374 525.707 70.3232C525.619 70.294 525.528 70.2795 525.436 70.2804V69.9519L527.563 69.8378L527.634 69.9092V70.5517H527.648C527.753 70.466 527.853 70.3755 527.948 70.2804C528.053 70.1894 528.163 70.1036 528.277 70.0233C528.391 69.9519 528.534 69.8948 528.705 69.8377C528.876 69.7807 529.076 69.7663 529.276 69.7663C529.761 69.7663 530.118 69.9092 530.361 70.1804C530.604 70.4517 530.718 70.8229 530.718 71.2797V73.4643C530.718 73.5784 530.732 73.6642 530.761 73.7213C530.789 73.7927 530.861 73.8355 530.946 73.8783C530.989 73.8927 531.046 73.9212 531.118 73.9354C531.189 73.9498 531.261 73.964 531.36 73.9783V74.3209L531.389 74.3207ZM533.859 74.4778C533.574 74.4778 533.288 74.435 533.017 74.3493C532.745 74.2636 532.531 74.178 532.374 74.078L532.246 74.3778H531.903L531.846 72.7217H532.174C532.217 72.8502 532.289 73.0072 532.403 73.1786C532.503 73.3498 532.631 73.4927 532.76 73.6354C532.907 73.7689 533.07 73.8839 533.245 73.9781C533.431 74.0637 533.616 74.1209 533.816 74.1209C534.087 74.1209 534.287 74.0637 534.416 73.9639C534.544 73.8639 534.616 73.6925 534.616 73.4784C534.616 73.3642 534.587 73.2643 534.53 73.1786C534.473 73.1072 534.387 73.0358 534.287 72.9787C534.173 72.9216 534.045 72.8645 533.902 72.8217C533.759 72.7789 533.588 72.736 533.388 72.6646C533.188 72.6075 533.017 72.5504 532.874 72.479C532.731 72.4219 532.574 72.322 532.431 72.1935C532.303 72.0793 532.189 71.9365 532.117 71.7794C532.032 71.6224 532.003 71.4226 532.003 71.1941C532.003 70.78 532.174 70.4374 532.531 70.1804C532.888 69.9235 533.345 69.7948 533.916 69.7948C534.187 69.7948 534.43 69.8236 534.659 69.8806C534.887 69.9377 535.073 69.9948 535.23 70.0662L535.33 69.8092H535.672L535.744 71.3226H535.429C535.33 71.0085 535.144 70.7515 534.901 70.523C534.644 70.2947 534.373 70.1804 534.087 70.1804C533.859 70.1804 533.674 70.2233 533.545 70.3232C533.417 70.4232 533.345 70.5517 533.345 70.723C533.345 70.9514 533.445 71.1085 533.631 71.2083C533.816 71.3083 534.087 71.4083 534.43 71.494C534.958 71.6367 535.344 71.8223 535.601 72.0508C535.844 72.2934 535.972 72.5932 535.972 72.9501C535.972 73.4355 535.786 73.821 535.401 74.0781C534.973 74.335 534.473 74.4778 533.859 74.4778Z" fill="#231F20"/>
    <mask id="path-17-inside-5_6967_62868" fill="white">
        <path d="M592.469 0H737.969V90H592.469V0Z"/>
    </mask>
    <path d="M592.469 0H737.969V90H592.469V0Z" fill="#D9D9D9"/>
    <path d="M737.969 85H592.469V95H737.969V85Z" fill="#F39200" mask="url(#path-17-inside-5_6967_62868)"/>
    <path d="M644.875 18.25C641.77 18.25 639.25 20.7695 639.25 23.875V65.125C639.25 68.2305 641.77 70.75 644.875 70.75H686.125C689.23 70.75 691.75 68.2305 691.75 65.125V23.875C691.75 20.7695 689.23 18.25 686.125 18.25H644.875ZM665.498 25.75C666.593 25.75 667.683 25.9895 668.514 26.4692L679.608 32.8723C681.265 33.8307 682.624 36.1804 682.624 38.0954V50.9043C682.624 52.82 681.265 55.1705 679.608 56.1284L668.514 62.5332C667.683 63.0113 666.593 63.25 665.498 63.25C664.407 63.25 663.312 63.0113 662.481 62.5332L651.392 56.1284C649.73 55.1705 648.376 52.82 648.376 50.9043V38.0955C648.376 36.1804 649.73 33.8307 651.392 32.8724L662.481 26.4692C663.312 25.9895 664.407 25.75 665.498 25.75ZM667.463 33.8091C666.211 33.8091 665.199 34.7646 665.199 36.0837C665.199 37.402 666.211 38.3577 667.463 38.3577C668.382 38.3577 669.164 37.8452 669.526 37.0708L668.465 36.7956C668.284 37.0953 667.883 37.3077 667.463 37.3077C666.783 37.3077 666.29 36.8391 666.29 36.0838C666.29 35.3646 666.739 34.8463 667.463 34.8463C667.81 34.8463 668.182 35.0024 668.382 35.2523L669.453 34.9708C669.067 34.2712 668.328 33.8091 667.463 33.8091ZM661.205 33.9797V34.9229H662.471V38.1865H663.478V34.9229H664.759V33.9797H661.205ZM672.995 40.0881C672.675 40.0881 672.354 40.2091 672.112 40.4518L663.4 49.1678C662.911 49.6529 662.119 49.6529 661.635 49.1678L659.537 47.0714C659.048 46.5855 658.257 46.5855 657.773 47.0714L656.423 48.4193C656.042 48.8022 655.939 49.699 656.423 50.1841L661.635 55.3941C662.119 55.8791 662.911 55.8791 663.4 55.3941L675.227 43.5648C675.711 43.0795 675.711 42.2855 675.227 41.7995L673.878 40.4516C673.636 40.2089 673.315 40.0881 672.995 40.0881Z" fill="#A90909"/>
    <defs>
        <clipPath id="clip0_6967_62868">
            <rect width="74.57" height="60" fill="white" transform="translate(182.914 14.5)"/>
        </clipPath>
    </defs>
</svg>
