<svg width="597" height="90" viewBox="0 0 597 90" fill="none" xmlns="http://www.w3.org/2000/svg">
    <rect width="145.5" height="90" fill="#D9D9D9"/>
    <mask id="path-1-inside-1_6967_62857" fill="white">
        <path d="M0 0H145.5V90H0V0Z"/>
    </mask>
    <path d="M0 0H145.5V90H0V0Z" fill="#D9D9D9"/>
    <path d="M145.5 85H0V95H145.5V85Z" fill="#0092E0" mask="url(#path-1-inside-1_6967_62857)"/>
    <path d="M74.5193 39.7269H79.8818V45.2094H82.593C83.8611 45.2036 85.1198 44.9927 86.3205 44.585C86.9511 44.3763 87.5581 44.1023 88.1318 43.7675C87.398 42.7516 86.9628 41.5508 86.8755 40.3006C86.6499 38.4763 87.1184 36.6338 88.188 35.1387L88.7505 34.4863L89.4218 35.0263C91.2018 36.3313 92.4078 38.2745 92.7874 40.4488C94.857 39.8131 97.0939 40.0214 99.0105 41.0281L99.7474 41.4519L99.3593 42.2019C98.5742 43.5237 97.4143 44.5826 96.0267 45.2445C94.6391 45.9065 93.0862 46.1415 91.5649 45.92C86.9149 57.485 76.8068 62.96 64.548 62.96C58.2143 62.96 52.4055 60.5919 49.0962 54.9744L49.0418 54.8825L48.5693 53.9094C47.4795 51.4312 47.0536 48.712 47.3337 46.0194L47.4087 45.2075H51.993V39.7269H57.3574V34.3588H68.0843V29H74.5193V39.7269Z" fill="#0096E6"/>
    <path d="M66.0172 62.047C63.3937 60.9292 61.2904 58.86 60.1297 56.2552C58.7429 56.6262 57.3192 56.8419 55.8847 56.8983C55.2597 56.9333 54.6066 56.9508 53.9253 56.9508C53.1353 56.9508 52.3034 56.9277 51.4297 56.8814C53.1167 58.6379 55.1621 60.0107 57.4268 60.9066C59.6915 61.8024 62.1225 62.2003 64.5547 62.0733C65.0447 62.0733 65.5322 62.0645 66.0172 62.047ZM56.7809 41.0077H57.1559V44.8833H56.7809V41.0077ZM56.4509 41.0077V44.8833H56.0684V41.0077H56.4509ZM55.3709 41.0077H55.7459V44.8833H55.3709V41.0077ZM54.6659 41.0077H55.0409V44.8833H54.6659V41.0077ZM53.9609 41.0077H54.3359V44.8833H53.9609V41.0077ZM53.2709 41.0077H53.6459V44.8833H53.2709V41.0077ZM52.8809 40.6214H57.5347V45.2695H52.8809V40.6214ZM58.2416 35.257H62.8916V39.9052H58.2491L58.2416 35.257ZM62.1359 35.6452H62.5109V39.5189H62.1359V35.6452ZM61.4309 35.6452H61.8059V39.5189H61.4309V35.6452ZM60.7259 35.6452H61.1009V39.5189H60.7259V35.6452ZM60.0209 35.6452H60.3959V39.5189H60.0209V35.6452ZM59.3159 35.6452H59.6909V39.5189H59.3159V35.6452ZM58.6259 35.6452H59.0009V39.5189H58.6259V35.6452ZM58.2378 40.6195H62.8878V45.2695H58.2491V40.6214L58.2378 40.6195ZM62.1322 41.0077H62.5072V44.8833H62.1322V41.0077ZM61.4272 41.0077H61.8022V44.8833H61.4272V41.0077ZM60.7222 41.0077H61.0972V44.8833H60.7222V41.0077ZM60.0172 41.0077H60.3922V44.8833H60.0172V41.0077ZM59.3122 41.0077H59.6872V44.8833H59.3122V41.0077ZM58.6222 41.0077H58.9972V44.8833H58.6222V41.0077ZM63.5984 40.6195H68.2559V45.2695H63.6059V40.6214L63.5984 40.6195ZM67.4909 41.0077H67.8809V44.8833H67.5059L67.4909 41.0077ZM66.7859 41.0077H67.1609V44.8833H66.7859V41.0077ZM66.0809 41.0077H66.4559V44.8833H66.0809V41.0077ZM65.3759 41.0077H65.7509V44.8833H65.3759V41.0077ZM64.6709 41.0077H65.0459V44.8833H64.6709V41.0077ZM63.9809 41.0077H64.3559V44.8833H63.9809V41.0077ZM63.5947 35.257H68.2559V39.9052H63.6059V35.257H63.5947ZM67.4872 35.6452H67.8809V39.5189H67.5059L67.4872 35.6452ZM66.7822 35.6452H67.1572V39.5189H66.7822V35.6452ZM66.0772 35.6452H66.4522V39.5189H66.0772V35.6452ZM65.3722 35.6452H65.7472V39.5189H65.3722V35.6452ZM64.6672 35.6452H65.0422V39.5189H64.6672V35.6452ZM63.9772 35.6452H64.3522V39.5189H63.9772V35.6452ZM68.9534 40.6195H73.6016V45.2695H68.9516V40.6214L68.9534 40.6195ZM72.8459 41.0077H73.2209V44.8833H72.8459V41.0077ZM72.1409 41.0077H72.5159V44.8833H72.1409V41.0077ZM71.4359 41.0077H71.8109V44.8833H71.4359V41.0077ZM70.7309 41.0077H71.1059V44.8833H70.7309V41.0077ZM70.0259 41.0077H70.4009V44.8833H70.0259V41.0077ZM69.6959 41.0077V44.8833H69.3209V41.0077H69.6959ZM68.9497 35.257H73.5978V39.9052H68.9478L68.9497 35.257ZM72.8422 35.6452H73.2172V39.5189H72.8422V35.6452ZM72.1372 35.6452H72.5122V39.5189H72.1372V35.6452ZM71.4322 35.6452H71.8072V39.5189H71.4322V35.6452ZM70.7272 35.6452H71.1022V39.5189H70.7272V35.6452ZM70.0222 35.6452H70.3972V39.5189H70.0222V35.6452ZM69.6922 35.6452V39.5189H69.3172V35.6452H69.6922ZM68.9459 29.8945H73.5941V34.5464H68.9441L68.9459 29.8945ZM72.8384 30.2808H73.2134V34.1545H72.8384V30.2808ZM72.1334 30.2808H72.5084V34.1545H72.1334V30.2808ZM71.4284 30.2808H71.8034V34.1545H71.4284V30.2808ZM70.7234 30.2808H71.0984V34.1545H70.7234V30.2808ZM70.0184 30.2808H70.3934V34.1545H70.0184V30.2808ZM69.6884 30.2808V34.1545H69.3134V30.2808H69.6884ZM74.3047 40.6195H78.9528V45.2695H74.3028V40.6214L74.3047 40.6195ZM78.5628 41.0077V44.8833H78.1878V41.0077H78.5628ZM77.4922 41.0077H77.8784V44.8833H77.4922V41.0077ZM76.7872 41.0077H77.1622V44.8833H76.7872V41.0077ZM76.0822 41.0077H76.4572V44.8833H76.0822V41.0077ZM75.7522 41.0077V44.8833H75.3678V41.0077H75.7522ZM74.6872 41.0077H75.0622V44.8833H74.6984V41.0077H74.6872ZM62.6084 52.8052C62.8621 52.8052 63.1101 52.8804 63.321 53.0213C63.5319 53.1622 63.6962 53.3625 63.7933 53.5969C63.8904 53.8312 63.9158 54.0891 63.8663 54.3379C63.8168 54.5866 63.6947 54.8152 63.5153 54.9945C63.3359 55.1739 63.1074 55.296 62.8586 55.3455C62.6099 55.395 62.352 55.3696 62.1176 55.2725C61.8833 55.1755 61.683 55.0111 61.5421 54.8002C61.4012 54.5893 61.3259 54.3413 61.3259 54.0877C61.3259 53.7475 61.4611 53.4213 61.7016 53.1808C61.9421 52.9403 62.2683 52.8052 62.6084 52.8052ZM62.6084 53.1689C62.7219 53.1688 62.8345 53.1898 62.9403 53.2308C62.8899 53.2596 62.8469 53.2996 62.8146 53.3478C62.7824 53.3961 62.7617 53.4511 62.7543 53.5086C62.7469 53.5662 62.753 53.6247 62.772 53.6795C62.7911 53.7343 62.8226 53.7839 62.864 53.8245C62.9055 53.8651 62.9558 53.8955 63.0111 53.9133C63.0663 53.9311 63.1249 53.9359 63.1822 53.9272C63.2396 53.9186 63.2942 53.8967 63.3417 53.8634C63.3892 53.8301 63.4283 53.7862 63.4559 53.7352C63.5324 53.9169 63.5484 54.1185 63.5014 54.3101C63.4545 54.5016 63.3472 54.673 63.1953 54.7988C63.0435 54.9246 62.8552 54.9983 62.6582 55.0088C62.4613 55.0194 62.2662 54.9663 62.1018 54.8574C61.9374 54.7485 61.8123 54.5896 61.7452 54.4042C61.6781 54.2187 61.6724 54.0166 61.729 53.8277C61.7856 53.6388 61.9015 53.4731 62.0595 53.3551C62.2175 53.2372 62.4094 53.1732 62.6066 53.1727L62.6084 53.1689Z" fill="white"/>
    <mask id="path-4-inside-2_6967_62857" fill="white">
        <path d="M150.5 0H296V90H150.5V0Z"/>
    </mask>
    <path d="M150.5 0H296V90H150.5V0Z" fill="#D9D9D9"/>
    <path d="M211.042 73.5204C209.609 73.5204 208.256 72.8837 207.341 71.7295L193.412 54.4175C192.496 53.2632 192.138 51.791 192.496 50.3579L197.471 28.7478C197.789 27.315 198.744 26.1608 200.058 25.5242L220.196 15.8929C220.832 15.5748 221.549 15.4155 222.265 15.4155C222.982 15.4155 223.698 15.5746 224.335 15.8931L244.472 25.4844C245.786 26.1211 246.741 27.2753 247.059 28.7081L252.034 50.3182C252.352 51.751 252.034 53.2235 251.119 54.3777L237.189 71.6897C236.274 72.804 234.921 73.4806 233.488 73.4806L211.042 73.5204Z" fill="#326DE6"/>
    <path d="M222.223 16.4102C222.781 16.4102 223.338 16.5294 223.855 16.7682L243.993 26.3596C245.028 26.8769 245.823 27.8321 246.062 28.9465L251.037 50.5567C251.316 51.7109 251.037 52.9049 250.281 53.82L236.352 71.1323C235.635 72.0475 234.521 72.5649 233.367 72.5649H211.04C209.886 72.5649 208.772 72.0475 208.055 71.1323L194.126 53.82C193.41 52.9049 193.131 51.7109 193.37 50.5567L198.345 28.9465C198.623 27.7923 199.379 26.8371 200.414 26.3596L220.552 16.7287C221.069 16.5297 221.666 16.4102 222.223 16.4102ZM222.223 14.5396C221.388 14.5396 220.552 14.7386 219.756 15.0967L199.618 24.728C198.026 25.4841 196.912 26.8769 196.514 28.5882L191.539 50.1986C191.141 51.9099 191.539 53.661 192.654 55.054L206.583 72.3661C207.657 73.7191 209.289 74.4752 211 74.4752H233.327C235.038 74.4752 236.67 73.7191 237.744 72.3661L251.674 55.0538C252.788 53.7008 253.186 51.9099 252.788 50.1983L247.813 28.5882C247.416 26.8769 246.301 25.4841 244.709 24.728L224.651 15.0964C223.895 14.7386 223.059 14.5396 222.223 14.5396Z" fill="white"/>
    <path d="M242.403 48.8457C242.363 48.8457 242.363 48.8457 242.403 48.8457H242.363C242.323 48.8457 242.283 48.8457 242.283 48.8059C242.204 48.8059 242.124 48.7662 242.044 48.7662C241.766 48.7264 241.527 48.6866 241.288 48.6866C241.169 48.6866 241.05 48.6867 240.89 48.6467H240.85C240.015 48.5671 239.338 48.4876 238.701 48.2886C238.423 48.1691 238.343 48.01 238.263 47.8507C238.263 47.811 238.224 47.811 238.224 47.7712L237.706 47.6122C237.951 45.74 237.856 43.8391 237.428 42.0004C236.993 40.1463 236.239 38.3821 235.199 36.7869L235.597 36.4288V36.3493C235.597 36.1503 235.637 35.9512 235.796 35.7522C236.274 35.3144 236.871 34.9563 237.587 34.5185C237.706 34.4389 237.826 34.3992 237.945 34.3194C238.184 34.2001 238.383 34.0809 238.622 33.9216C238.662 33.8818 238.741 33.8421 238.821 33.7626C238.861 33.7226 238.9 33.7226 238.9 33.6828C239.457 33.2052 239.577 32.4093 239.179 31.8917C238.98 31.6132 238.622 31.4541 238.263 31.4541C237.945 31.4541 237.667 31.5734 237.388 31.7724L237.309 31.852C237.229 31.8917 237.189 31.9715 237.11 32.0112C236.91 32.2103 236.751 32.3693 236.592 32.5683C236.513 32.6479 236.433 32.7674 236.314 32.8469C235.756 33.444 235.239 33.9216 234.722 34.2797C234.602 34.3592 234.483 34.3992 234.363 34.3992C234.284 34.3992 234.204 34.3992 234.125 34.3592H234.045L233.567 34.6777C233.05 34.1206 232.493 33.643 231.936 33.1654C229.537 31.2903 226.65 30.1437 223.618 29.8621L223.578 29.3447L223.499 29.2652C223.379 29.1457 223.22 29.0264 223.18 28.7479C223.14 28.111 223.22 27.3946 223.3 26.5987V26.5589C223.3 26.4394 223.339 26.2804 223.379 26.1609C223.419 25.9223 223.459 25.6833 223.499 25.4047V25.0467C223.499 24.3303 222.941 23.7334 222.265 23.7334C221.946 23.7334 221.628 23.8924 221.389 24.1312C221.151 24.37 221.031 24.6883 221.031 25.0467V25.365C221.031 25.6435 221.071 25.8823 221.15 26.1211C221.19 26.2406 221.19 26.3599 221.23 26.5192V26.5589C221.31 27.3548 221.429 28.0712 221.35 28.7081C221.31 28.9867 221.15 29.1059 221.031 29.2254L220.952 29.305L220.912 29.8223C220.195 29.9018 219.479 29.9813 218.763 30.1406C215.698 30.8173 212.992 32.3695 210.883 34.598L210.485 34.3194H210.405C210.326 34.3194 210.246 34.3592 210.166 34.3592C210.047 34.3592 209.928 34.3194 209.808 34.2399C209.291 33.8818 208.773 33.3642 208.216 32.7674C208.137 32.6879 208.057 32.5683 207.938 32.4888C207.778 32.2898 207.619 32.1305 207.42 31.9317C207.38 31.8917 207.301 31.8522 207.221 31.7724C207.182 31.7327 207.142 31.7327 207.142 31.6929C206.895 31.4892 206.586 31.3767 206.266 31.3744C205.908 31.3744 205.55 31.5336 205.351 31.8122C204.953 32.3295 205.072 33.1254 205.629 33.603C205.669 33.603 205.669 33.643 205.709 33.643C205.788 33.6828 205.828 33.7623 205.908 33.8021C206.147 33.9611 206.346 34.0806 206.584 34.2001C206.704 34.2399 206.823 34.3194 206.943 34.3992C207.659 34.8368 208.256 35.1951 208.734 35.6329C208.933 35.8317 208.933 36.0307 208.933 36.2298V36.3093L209.33 36.6676C209.251 36.7869 209.171 36.8667 209.131 36.9859C207.142 40.13 206.385 43.8312 206.903 47.4927L206.385 47.6517C206.385 47.6917 206.346 47.6917 206.346 47.7312C206.266 47.8905 206.147 48.0498 205.908 48.1691C205.311 48.3681 204.595 48.4479 203.759 48.5274H203.719C203.6 48.5274 203.44 48.5274 203.321 48.5671C203.082 48.5671 202.843 48.6069 202.565 48.6467C202.485 48.6467 202.406 48.6866 202.326 48.6866C202.286 48.6866 202.247 48.6867 202.207 48.7264C201.49 48.8854 201.052 49.5621 201.172 50.1987C201.291 50.7561 201.809 51.1144 202.445 51.1144C202.565 51.1144 202.644 51.1144 202.764 51.0744C202.804 51.0744 202.843 51.0744 202.843 51.0346C202.923 51.0346 203.003 50.9948 203.082 50.9948C203.361 50.9153 203.56 50.8358 203.799 50.7163C203.918 50.6765 204.037 50.5968 204.157 50.5573H204.197C204.953 50.2785 205.629 50.0397 206.266 49.9601H206.346C206.584 49.9601 206.744 50.0794 206.863 50.1592C206.903 50.1592 206.903 50.1989 206.943 50.1989L207.5 50.1194C208.455 53.0642 210.286 55.691 212.713 57.6014C213.27 58.0389 213.828 58.3973 214.425 58.7556L214.186 59.2727C214.186 59.3127 214.226 59.3127 214.226 59.3522C214.305 59.5115 214.385 59.7105 214.305 59.9891C214.067 60.5862 213.708 61.183 213.27 61.8597V61.8994C213.191 62.0189 213.111 62.0985 213.032 62.2177C212.873 62.4168 212.753 62.6158 212.594 62.8546C212.554 62.8944 212.514 62.9739 212.475 63.0536C212.475 63.0934 212.435 63.1332 212.435 63.1332C212.117 63.8098 212.355 64.5659 212.952 64.8445C213.111 64.924 213.27 64.964 213.43 64.964C213.907 64.964 214.385 64.6454 214.624 64.2076C214.624 64.1679 214.663 64.1281 214.663 64.1281C214.703 64.0486 214.743 63.9691 214.783 63.9291C214.902 63.6505 214.942 63.4515 215.022 63.2127L215.141 62.8546C215.42 62.0587 215.619 61.4218 215.977 60.8647C216.136 60.6259 216.335 60.5862 216.494 60.5064C216.534 60.5064 216.534 60.5064 216.574 60.4667L216.852 59.9493C218.603 60.6259 220.514 60.984 222.424 60.984C223.578 60.984 224.772 60.8647 225.887 60.5862C226.588 60.4294 227.279 60.2299 227.956 59.9891L228.195 60.4269C228.235 60.4269 228.235 60.4269 228.274 60.4667C228.473 60.5064 228.632 60.5862 228.792 60.825C229.11 61.3821 229.349 62.0587 229.627 62.8148V62.8546L229.747 63.2127C229.826 63.4515 229.866 63.6903 229.985 63.9291C230.025 64.0086 230.065 64.0486 230.105 64.1281C230.105 64.1679 230.145 64.2076 230.145 64.2076C230.383 64.6852 230.861 64.964 231.339 64.964C231.498 64.964 231.657 64.924 231.816 64.8445C232.095 64.6854 232.334 64.4464 232.413 64.1281C232.493 63.8098 232.493 63.4515 232.334 63.1332C232.334 63.0934 232.294 63.0934 232.294 63.0536C232.254 62.9741 232.214 62.8946 232.175 62.8546C232.055 62.6158 231.896 62.4168 231.737 62.2177C231.657 62.0985 231.578 62.0189 231.498 61.8997V61.8597C231.06 61.183 230.662 60.5862 230.463 59.9891C230.384 59.7105 230.463 59.5515 230.503 59.3524C230.503 59.3127 230.543 59.3127 230.543 59.2729L230.344 58.7953C232.453 57.5616 234.244 55.8103 235.597 53.6614C236.314 52.5469 236.871 51.3132 237.269 50.0794L237.746 50.1589C237.786 50.1589 237.786 50.1192 237.826 50.1192C237.985 50.0397 238.104 49.9204 238.343 49.9204H238.423C239.06 49.9999 239.736 50.2385 240.492 50.5173H240.532C240.651 50.557 240.771 50.6365 240.89 50.6763C241.129 50.7958 241.328 50.8753 241.607 50.9551C241.686 50.9551 241.766 50.9948 241.845 50.9948C241.885 50.9948 241.925 50.9948 241.965 51.0346C242.084 51.0744 242.164 51.0744 242.283 51.0744C242.88 51.0744 243.397 50.6765 243.557 50.1592C243.557 49.6816 243.119 49.0445 242.403 48.8457ZM223.976 46.8956L222.225 47.7315L220.474 46.8956L220.036 45.0252L221.23 43.5129H223.18L224.374 45.0252L223.976 46.8956ZM234.363 42.7568C234.672 44.0728 234.766 45.43 234.642 46.7761L228.553 45.0252C227.996 44.8662 227.677 44.3088 227.797 43.7517C227.837 43.5924 227.916 43.4332 228.036 43.3139L232.851 38.9758C233.528 40.0903 234.045 41.364 234.363 42.7568ZM230.941 36.5881L225.727 40.2893C225.29 40.5679 224.692 40.4881 224.334 40.0505C224.215 39.931 224.175 39.7717 224.135 39.6127L223.777 33.1254C226.488 33.4375 229.013 34.658 230.941 36.5881ZM219.399 33.3242C219.837 33.2447 220.235 33.1652 220.673 33.0857L220.315 39.4532C220.275 40.0103 219.837 40.4879 219.24 40.4879C219.081 40.4879 218.882 40.4481 218.763 40.3686L213.47 36.5881C215.101 34.9563 217.131 33.8416 219.399 33.3242ZM211.559 38.9756L216.295 43.1941C216.733 43.5524 216.773 44.2288 216.415 44.6667C216.295 44.8257 216.136 44.9452 215.937 44.9852L209.768 46.7761C209.53 44.0698 210.126 41.3238 211.559 38.9756ZM210.484 49.7609L216.813 48.6862C217.33 48.6464 217.808 49.0047 217.927 49.5221C217.967 49.7606 217.967 49.9599 217.887 50.1589L215.459 56.0091C213.231 54.5763 211.44 52.3874 210.484 49.7609ZM225.011 57.6806C224.096 57.8797 223.18 57.9989 222.225 57.9989C220.832 57.9989 219.479 57.7604 218.206 57.3623L221.35 51.6712C221.668 51.3129 222.185 51.1539 222.623 51.3927C222.809 51.5065 222.971 51.6551 223.101 51.8303L226.165 57.3623C225.807 57.4816 225.409 57.5614 225.011 57.6806ZM232.771 52.1488C231.777 53.7406 230.463 55.0141 228.951 56.0091L226.444 49.9994C226.324 49.5221 226.523 49.0047 227.001 48.7657C227.16 48.6862 227.359 48.6464 227.558 48.6464L233.926 49.7211C233.687 50.5965 233.289 51.3927 232.771 52.1488Z" fill="white"/>
    <path d="M296 85H150.5V95H296V85Z" fill="#0092E0" mask="url(#path-4-inside-2_6967_62857)"/>
    <mask id="path-7-inside-3_6967_62857" fill="white">
        <path d="M301 0H446.5V90H301V0Z"/>
    </mask>
    <path d="M301 0H446.5V90H301V0Z" fill="#D9D9D9"/>
    <g clip-path="url(#clip0_6967_62857)">
        <path d="M390.012 14.5H358.137C350.37 14.5 344.074 20.796 344.074 28.5625V60.4375C344.074 68.204 350.37 74.5 358.137 74.5H390.012C397.778 74.5 404.074 68.204 404.074 60.4375V28.5625C404.074 20.796 397.778 14.5 390.012 14.5Z" fill="black"/>
        <path d="M357.044 50.5675C356.772 50.5678 356.508 50.4745 356.296 50.3035C356.085 50.1324 355.938 49.8938 355.882 49.6277C355.825 49.3616 355.862 49.0841 355.985 48.8416C356.108 48.5991 356.311 48.4063 356.56 48.2955L361.767 45.977C362.055 45.849 362.382 45.8404 362.676 45.9531C362.97 46.0658 363.207 46.2907 363.335 46.5782C363.399 46.7206 363.433 46.8742 363.438 47.0301C363.442 47.186 363.415 47.3412 363.359 47.4868C363.303 47.6324 363.219 47.7655 363.112 47.8787C363.005 47.9918 362.876 48.0827 362.734 48.1462L357.526 50.4646C357.375 50.5326 357.21 50.5677 357.044 50.5675ZM354.637 56.8391C354.365 56.8395 354.101 56.7463 353.89 56.5752C353.678 56.4041 353.532 56.1655 353.475 55.8993C353.418 55.6332 353.455 55.3557 353.578 55.1132C353.702 54.8707 353.905 54.6779 354.153 54.5671L359.359 52.2487C359.502 52.1852 359.655 52.1504 359.811 52.1462C359.967 52.1421 360.122 52.1687 360.268 52.2245C360.414 52.2803 360.547 52.3643 360.66 52.4716C360.773 52.5789 360.864 52.7074 360.927 52.8498C360.991 52.9923 361.026 53.1458 361.03 53.3017C361.034 53.4576 361.007 53.6127 360.952 53.7583C360.896 53.9039 360.812 54.0371 360.705 54.1503C360.597 54.2634 360.469 54.3543 360.326 54.4178L355.12 56.7362C354.968 56.8042 354.804 56.8394 354.637 56.8391ZM388.069 36.7534C387.797 36.7538 387.533 36.6606 387.321 36.4894C387.11 36.3181 386.963 36.0794 386.907 35.813C386.85 35.5467 386.887 35.2691 387.011 35.0266C387.135 34.7842 387.338 34.5917 387.587 34.4814L392.795 32.163C393.083 32.0352 393.41 32.0269 393.704 32.1399C393.997 32.2528 394.234 32.4778 394.362 32.7653C394.49 33.0529 394.498 33.3795 394.386 33.6733C394.273 33.9671 394.048 34.204 393.76 34.3321L388.552 36.6505C388.4 36.7188 388.236 36.7538 388.069 36.7534ZM385.663 43.0251C385.391 43.0254 385.127 42.9321 384.915 42.7609C384.704 42.5896 384.557 42.3508 384.501 42.0845C384.444 41.8183 384.481 41.5407 384.605 41.2982C384.728 41.0558 384.932 40.8633 385.181 40.753L390.387 38.4346C390.53 38.371 390.683 38.3362 390.839 38.3321C390.995 38.3281 391.15 38.355 391.295 38.4112C391.441 38.467 391.574 38.551 391.687 38.6583C391.8 38.7657 391.891 38.8943 391.954 39.0367C392.018 39.179 392.052 39.3325 392.056 39.4884C392.06 39.6442 392.033 39.7993 391.978 39.9449C391.922 40.0905 391.838 40.2235 391.73 40.3366C391.623 40.4496 391.494 40.5403 391.352 40.6035L386.145 42.922C385.994 42.9901 385.829 43.0253 385.663 43.0251Z" fill="white"/>
        <path d="M373.865 62.8111C369.614 62.8062 365.499 61.316 362.232 58.5982C362.111 58.4989 362.012 58.3769 361.939 58.2392C361.866 58.1014 361.82 57.9506 361.806 57.7954C361.791 57.6402 361.807 57.4835 361.852 57.3344C361.898 57.1853 361.973 57.0467 362.072 56.9264C362.171 56.8062 362.293 56.7067 362.431 56.6336C362.569 56.5605 362.72 56.5152 362.875 56.5004C363.03 56.4856 363.187 56.5015 363.336 56.5472C363.485 56.5929 363.624 56.6675 363.744 56.7668C366.028 58.6563 368.794 59.8704 371.731 60.2726C373.927 60.5736 376.162 60.4125 378.293 59.7997C380.423 59.187 382.402 58.136 384.103 56.7141C385.804 55.2922 387.189 53.5307 388.17 51.5425C389.151 49.5544 389.705 47.3833 389.799 45.1683C389.801 45.0113 389.836 44.8566 389.9 44.7134C389.965 44.5702 390.057 44.4416 390.173 44.3353C390.289 44.229 390.424 44.1473 390.573 44.0952C390.721 44.043 390.878 44.0215 391.034 44.0318C391.19 44.0384 391.343 44.0756 391.485 44.1413C391.626 44.207 391.753 44.3 391.858 44.4148C391.964 44.5296 392.046 44.6641 392.099 44.8106C392.153 44.9571 392.177 45.1126 392.17 45.2684C391.963 49.9866 389.945 54.4434 386.536 57.711C383.126 60.9787 378.587 62.8055 373.865 62.8111ZM356.808 44.9363L356.753 44.9353C356.438 44.9209 356.142 44.7822 355.93 44.5496C355.718 44.3171 355.606 44.0097 355.62 43.695C355.773 40.2966 356.869 37.0079 358.788 34.1984C360.706 31.3889 363.369 29.1698 366.479 27.7903C369.588 26.4109 373.021 25.9258 376.391 26.3895C379.761 26.8532 382.935 28.2474 385.557 30.4153C385.737 30.5652 385.87 30.7652 385.937 30.9901C386.004 31.215 386.003 31.4548 385.934 31.6791C385.865 31.9034 385.731 32.1023 385.549 32.2505C385.367 32.3988 385.145 32.4898 384.911 32.5121C384.598 32.542 384.286 32.4465 384.043 32.2465C382.337 30.8353 380.355 29.7954 378.225 29.1934C376.094 28.5913 373.861 28.4404 371.669 28.7502C369.477 29.0599 367.373 29.8236 365.493 30.9924C363.612 32.1612 361.997 33.7094 360.748 35.5381C359.079 37.9832 358.125 40.8452 357.993 43.8026C357.979 44.1077 357.848 44.3957 357.628 44.6068C357.407 44.8179 357.113 44.9359 356.808 44.9363Z" fill="#EE0000"/>
    </g>
    <path d="M446.5 85H301V95H446.5V85Z" fill="#0092E0" mask="url(#path-7-inside-3_6967_62857)"/>
    <mask id="path-10-inside-4_6967_62857" fill="white">
        <path d="M451.5 0H597V90H451.5V0Z"/>
    </mask>
    <path d="M451.5 0H597V90H451.5V0Z" fill="#D9D9D9"/>
    <path d="M532.3 51.0299V37.9648L521.033 44.5081L532.3 51.0299Z" fill="white"/>
    <path d="M531.571 36.6901L520.285 30.1639V43.2317L531.571 36.6901ZM518.818 43.2313V30.1635L507.524 36.6896L518.818 43.2313ZM518.088 28.9096L506.805 22.3457V35.4327L518.088 28.9096Z" fill="#00AEDE"/>
    <path d="M531.571 52.2856L520.285 45.7652V58.8307L531.571 52.2856ZM518.818 58.831V45.7648L507.524 52.2856L518.818 58.831Z" fill="white"/>
    <path d="M545.07 44.5078L533.767 37.9655V51.0294L545.07 44.5078ZM505.335 35.4327V22.3457L493.967 28.9096L505.335 35.4327Z" fill="#00AEDE"/>
    <path d="M518.088 60.0866L506.805 53.5464V66.6291L518.088 60.0866Z" fill="white"/>
    <path d="M505.335 66.6294V53.5469L493.967 60.0871L505.335 66.6294Z" fill="#00AEDE"/>
    <path d="M518.088 44.5076L506.805 37.9654V51.0293L518.088 44.5076Z" fill="white"/>
    <path d="M532.3 35.4328V22.3458L521.033 28.9097L532.3 35.4328Z" fill="#00AEDE"/>
    <path d="M520.285 14.5658V27.6291L531.571 21.0889L520.285 14.5658ZM507.523 21.0889L518.818 27.6291V14.566L507.523 21.0889ZM531.571 67.8835L520.285 61.3648V74.4262L531.571 67.8835ZM518.818 74.4266V61.3644L507.524 67.8839L518.818 74.4266Z" fill="white"/>
    <path d="M545.801 58.8309V45.7648L534.527 52.2858L545.801 58.8309ZM505.335 51.0299V37.9444L493.966 44.5081L505.335 51.0299ZM504.607 52.2856L493.223 45.765V58.8305L504.607 52.2856ZM545.801 43.2314V30.1635L534.527 36.6897L545.801 43.2314ZM545.069 28.9097L533.767 22.3458V35.4328L545.069 28.9097ZM545.069 60.0866L533.767 53.5464V66.6291L545.069 60.0866Z" fill="#00AEDE"/>
    <path d="M532.3 66.6293V53.5468L521.033 60.087L532.3 66.6293Z" fill="white"/>
    <path d="M504.607 36.6901L493.223 30.1639V43.2318L504.607 36.6901Z" fill="#00AEDE"/>
    <path d="M597 85H451.5V95H597V85Z" fill="#0092E0" mask="url(#path-10-inside-4_6967_62857)"/>
    <defs>
        <clipPath id="clip0_6967_62857">
            <rect width="60" height="60" fill="white" transform="translate(344.074 14.5)"/>
        </clipPath>
    </defs>
</svg>
