<svg width="422" height="91" viewBox="0 0 422 91" fill="none" xmlns="http://www.w3.org/2000/svg">
    <path d="M0.335938 0.5H163.336V90.5H0.335938V0.5Z" fill="#D9D9D9"/>
    <g clip-path="url(#clip0_6967_62818)">
        <path d="M41.6484 29.7125C41.6484 29.7125 40.7222 28.2125 39.6347 28.8575C39.1097 29.1725 38.2322 30.05 37.1859 31.325L38.1497 33.14C38.741 32.2818 39.3887 31.4637 40.0884 30.6913C39.7922 31.0288 39.1659 31.8088 38.2734 33.1738C39.5259 33.0875 40.7709 32.9338 42.0084 32.7125C42.3797 30.6538 41.6484 29.7125 41.6484 29.7125ZM28.7484 53.075C27.7022 55.9608 26.7343 58.8743 25.8459 61.8125C25.8091 61.9311 25.7431 62.0385 25.654 62.125C25.5649 62.2115 25.4556 62.2742 25.3359 62.3075C26.1984 59.4575 27.0534 56.7725 27.9122 54.3425C27.3759 54.2188 26.6147 54.3688 25.6847 54.755C26.3222 54.2675 26.9559 53.8475 27.5597 53.81C27.3684 53.7688 26.8734 53.5963 26.2097 52.985C26.8434 53.2213 27.3947 53.3375 27.7922 53.255C27.7097 52.1975 27.1397 51.1175 26.3897 50.03C26.3859 50.0225 27.4397 50.6338 27.8259 51.2675L27.8334 51.1813C27.8972 50.3563 28.0134 49.5388 28.1822 48.7288V48.7213C28.3097 48.0688 28.4672 47.4163 28.6584 46.7638L28.9059 45.9275C29.0109 45.6013 29.1309 45.2675 29.2547 44.915C29.6672 43.7863 30.1359 42.68 30.6609 41.6L30.7959 41.33C31.2759 40.3663 31.7859 39.4138 32.3259 38.48C32.6109 37.9813 32.9034 37.4975 33.1922 37.0175C33.2184 36.9913 33.2334 36.9538 33.2559 36.92L33.2484 36.9125L33.2784 36.8638C34.1634 35.4388 35.1084 34.0513 36.1059 32.7088C36.3839 32.3324 36.6702 31.9623 36.9647 31.5988L37.1822 31.3288L38.1422 33.1363C37.7955 33.6334 37.4604 34.1386 37.1372 34.6513C36.4922 35.6863 35.8809 36.7475 35.3109 37.8238L34.4972 39.3763L33.6647 37.73L34.4897 39.38L34.4634 39.4363C34.2984 39.7738 34.1259 40.1113 33.9647 40.4488C33.8659 40.6475 33.7696 40.8475 33.6759 41.0488L32.9034 42.7138C32.1624 44.3815 31.4497 46.0617 30.7659 47.7538L30.0909 49.4675C30.042 49.5967 29.992 49.7254 29.9409 49.8538C29.7759 50.3075 29.5997 50.75 29.4384 51.1925V51.2075L29.3147 51.5375L28.7859 52.9663L28.7484 53.075ZM40.8797 35.7388C40.5088 36.4679 40.0904 37.172 39.6272 37.8463C39.2297 38.405 38.8172 38.7838 37.9134 39.2075L37.9959 39.1925C38.0034 39.185 38.0072 39.185 38.0184 39.185C38.4872 39.0988 39.0684 38.9075 39.4059 38.7088C39.4543 38.6842 39.4996 38.654 39.5409 38.6188C39.522 38.7313 39.4969 38.8427 39.4659 38.9525C39.4434 39.0463 39.4059 39.155 39.3684 39.2713L39.3234 39.395L39.1884 39.74C39.0727 40.0277 38.9451 40.3104 38.8059 40.5875C38.7759 40.6588 38.7384 40.73 38.7009 40.8013L38.6109 40.9475C38.5184 41.1011 38.413 41.2466 38.2959 41.3825L38.1459 41.5475C38.0128 41.6826 37.8713 41.8091 37.7222 41.9263C37.4098 42.1568 37.0697 42.3471 36.7097 42.4925L36.7734 42.485L37.0134 42.4438C37.4972 42.3275 37.9547 42.125 38.3672 41.8438C37.8497 42.875 37.1447 43.7075 36.0122 44.1388L36.2072 44.1125L36.3947 44.0713C36.7254 44.0059 37.0458 43.8962 37.3472 43.745C37.1462 44.3685 36.921 44.984 36.6722 45.59C36.4059 46.2425 36.1284 46.8275 35.8284 47.3525C35.4635 48.0103 35.023 48.6232 34.5159 49.1788C33.4809 50.2963 31.8722 51.2038 30.6647 51.3538L30.7247 51.365C32.0972 51.65 33.5184 51.1888 34.4597 50.15C34.3366 50.389 34.204 50.6229 34.0622 50.8513C33.5072 51.7513 32.8697 52.2988 31.6097 52.865C32.4722 52.9138 32.9222 52.7113 33.2897 52.2463C33.2297 52.3738 33.1646 52.4989 33.0947 52.6213C32.2884 53.9563 30.7172 54.4138 28.9059 54.3313C29.2969 54.6904 29.5312 55.1886 29.5584 55.7188C29.2809 55.2163 28.9884 54.7775 28.6172 54.605L29.0522 53.3525C29.0734 53.2837 29.0985 53.2161 29.1272 53.15V53.1275L29.6222 51.74C29.6586 51.654 29.6911 51.5664 29.7197 51.4775L29.7309 51.44L30.3684 49.7375L30.3947 49.655L31.0247 48.0238C31.2534 47.4275 31.4897 46.8538 31.7147 46.2988C32.1759 45.17 32.6522 44.0488 33.1472 42.935C33.3422 42.5 33.5259 42.08 33.7172 41.675L33.9047 41.27L34.2684 40.5013C34.3734 40.265 34.4897 40.0438 34.5984 39.815L34.6997 39.5975C34.7072 39.59 34.7109 39.575 34.7072 39.5563L34.7297 39.5525C35.0072 38.99 35.2659 38.4613 35.5284 37.9663C36.0909 36.8788 36.6872 35.8063 37.3059 34.7525L37.3547 34.6663C37.6847 34.1113 37.9959 33.6163 38.2772 33.1813C39.5259 33.095 40.7709 32.9413 42.0084 32.7313C41.9672 32.9263 41.9259 33.1325 41.8659 33.35C41.7835 33.6349 41.6896 33.9164 41.5847 34.1938C41.3794 34.7224 41.1453 35.2395 40.8834 35.7425L40.8797 35.7388ZM49.6959 38.2663V55.5013C49.6959 56.5513 49.5422 57.4775 49.2272 58.2463C48.9462 58.9803 48.4966 59.638 47.9147 60.1663C47.3439 60.6861 46.6633 61.0706 45.9234 61.2913C45.1622 61.5275 44.3109 61.6475 43.3959 61.6475C42.564 61.6559 41.7341 61.5627 40.9247 61.37C40.8755 61.3562 40.832 61.3268 40.8009 61.2863C40.7698 61.2457 40.7527 61.1961 40.7522 61.145V57.9875C40.752 57.9522 40.7597 57.9174 40.7747 57.8855C40.7898 57.8536 40.8118 57.8254 40.8391 57.8031C40.8664 57.7808 40.8984 57.7649 40.9327 57.7566C40.967 57.7483 41.0027 57.7477 41.0372 57.755C41.3259 57.8225 41.6447 57.8788 41.9747 57.9238C42.5822 58.0138 43.3847 58.0363 43.9997 57.8863C44.279 57.8177 44.5378 57.6831 44.7544 57.4939C44.971 57.3047 45.1391 57.0663 45.2447 56.7988C45.3849 56.4238 45.4511 56.0252 45.4397 55.625V38.2625C45.4397 38.1313 45.5409 38.0263 45.6722 38.0263H49.4597C49.5947 38.0263 49.6959 38.1313 49.6959 38.2625V38.2663ZM81.9009 43.6663C81.3585 43.1048 80.6937 42.6761 79.9584 42.4138C79.1478 42.1181 78.2899 41.9732 77.4272 41.9863C76.4747 41.9863 75.5897 42.14 74.7947 42.455C74.0147 42.7625 73.3134 43.2425 72.7509 43.8688C72.1592 44.5445 71.7125 45.3346 71.4384 46.19C71.1123 47.2319 70.9565 48.3197 70.9772 49.4113C70.9772 50.6113 71.1422 51.6838 71.4834 52.5913C71.8284 53.4913 72.3159 54.2525 72.9309 54.8525C73.5459 55.4413 74.2959 55.8875 75.1434 56.1838C76.0404 56.4828 76.9805 56.6323 77.9259 56.6263C78.4622 56.6263 78.9272 56.6075 79.3397 56.57C80.1206 56.5108 80.89 56.3468 81.6272 56.0825C81.9834 55.9588 82.3284 55.805 82.6509 55.6325C82.689 55.6134 82.7208 55.5838 82.7427 55.5473C82.7646 55.5108 82.7757 55.4688 82.7747 55.4263V52.5388C82.7735 52.4995 82.7626 52.4612 82.7428 52.4272C82.7231 52.3933 82.6952 52.3648 82.6617 52.3443C82.6282 52.3239 82.5902 52.3121 82.551 52.31C82.5117 52.3079 82.4727 52.3157 82.4372 52.3325C81.4692 52.8418 80.4197 53.1781 79.3359 53.3263C78.9534 53.3638 78.5709 53.3825 78.1847 53.3788C77.7605 53.3883 77.3382 53.3183 76.9397 53.1725C76.5968 53.036 76.2863 52.8291 76.0284 52.565C75.7729 52.2768 75.5756 51.9419 75.4472 51.5788C75.3273 51.2209 75.2542 50.8491 75.2297 50.4725H83.3184C83.3805 50.4725 83.44 50.4481 83.4842 50.4046C83.5284 50.3612 83.5537 50.302 83.5547 50.24V48.4288C83.5709 47.5046 83.4262 46.5846 83.1272 45.71C82.8728 44.9484 82.4541 44.252 81.9009 43.67V43.6663ZM75.3084 47.525C75.3909 46.715 75.6122 46.1113 75.9684 45.7325C76.1563 45.5284 76.3857 45.3669 76.6412 45.2589C76.8967 45.1509 77.1724 45.0988 77.4497 45.1063C77.7681 45.0992 78.0839 45.1659 78.3722 45.3013C78.6347 45.425 78.8597 45.6125 79.0322 45.8413C79.2145 46.0888 79.3481 46.3688 79.4259 46.6663C79.5009 46.9325 79.5497 47.2213 79.5684 47.525H75.3084ZM115.332 42.3238V45.8263C115.332 45.8615 115.324 45.8963 115.308 45.928C115.293 45.9597 115.27 45.9874 115.243 46.0091C115.215 46.0308 115.182 46.0458 115.148 46.0531C115.113 46.0604 115.078 46.0598 115.043 46.0513C114.734 45.9616 114.412 45.9273 114.091 45.95L113.791 45.935C113.337 45.935 112.917 45.995 112.527 46.1113C112.173 46.2166 111.848 46.4027 111.578 46.655C111.3 46.9328 111.091 47.2719 110.967 47.645C110.821 48.0575 110.746 48.575 110.746 49.1863V56.1463C110.746 56.2089 110.721 56.269 110.677 56.3133C110.632 56.3576 110.572 56.3825 110.51 56.3825H106.782C106.72 56.3825 106.659 56.3576 106.615 56.3133C106.571 56.269 106.546 56.2089 106.546 56.1463V42.4775C106.546 42.3463 106.651 42.2413 106.782 42.2413H109.606C109.711 42.2413 109.805 42.3163 109.831 42.4138L110.296 44.1463C110.446 43.895 110.615 43.6588 110.795 43.43C111.249 42.82 111.89 42.375 112.621 42.1625C113.148 42.0033 113.7 41.9472 114.248 41.9975C114.372 41.9975 114.492 41.9975 114.608 42.02C114.714 42.0279 114.819 42.0417 114.923 42.0613C115.007 42.065 115.09 42.0789 115.171 42.1025C115.219 42.1164 115.261 42.1455 115.291 42.1855C115.32 42.2254 115.333 42.274 115.332 42.3238ZM92.9972 52.8013C93.0282 52.8217 93.0537 52.8496 93.0714 52.8823C93.0891 52.915 93.0984 52.9516 93.0984 52.9888V55.7675C93.0994 55.8101 93.0883 55.8521 93.0664 55.8886C93.0445 55.9251 93.0127 55.9546 92.9747 55.9738C92.5413 56.1871 92.0827 56.3446 91.6097 56.4425C90.4697 56.6975 89.2847 56.69 88.1447 56.4125C87.6129 56.2727 87.1227 56.0064 86.7159 55.6363C86.2856 55.2206 85.957 54.7111 85.7559 54.1475C85.5175 53.4117 85.4059 52.6407 85.4259 51.8675V45.5H83.8734C83.8121 45.4991 83.7535 45.4742 83.7101 45.4309C83.6667 45.3875 83.6419 45.3289 83.6409 45.2675V43.6925C83.6402 43.6524 83.6503 43.6128 83.6701 43.5778C83.6899 43.5429 83.7187 43.5138 83.7534 43.4938L85.7372 42.2825L86.7872 39.47C86.8039 39.4259 86.8337 39.3879 86.8726 39.3611C86.9114 39.3343 86.9575 39.32 87.0047 39.32H89.3897C89.5209 39.32 89.6222 39.425 89.6222 39.5563V42.2338H92.7159C92.8434 42.2338 92.9522 42.3388 92.9522 42.4663V45.2675C92.9522 45.3302 92.9273 45.3903 92.883 45.4346C92.8387 45.4789 92.7786 45.5038 92.7159 45.5038H89.6222V51.86C89.6222 52.325 89.7309 52.6625 89.9409 52.865C90.0568 52.9729 90.1933 53.0564 90.3421 53.1105C90.4909 53.1646 90.6491 53.1883 90.8072 53.18C91.1597 53.18 91.4859 53.1388 91.7934 53.0675C92.1272 52.985 92.4572 52.88 92.7834 52.7675C92.8185 52.7543 92.8563 52.7498 92.8935 52.7544C92.9308 52.759 92.9663 52.7725 92.9972 52.7938V52.8013ZM70.1034 38.2663V56.1538C70.1015 56.2145 70.0763 56.2721 70.033 56.3147C69.9897 56.3573 69.9317 56.3816 69.8709 56.3825H66.3347C66.272 56.3825 66.2119 56.3576 66.1676 56.3133C66.1233 56.269 66.0984 56.2089 66.0984 56.1463V46.9588L66.1509 45.185L66.1884 44.2775L66.2184 43.5763L62.4009 56.2138C62.3863 56.2619 62.3565 56.304 62.3159 56.3338C62.2754 56.3635 62.2262 56.3793 62.1759 56.3788H58.6884C58.6383 56.3787 58.5894 56.3627 58.549 56.333C58.5085 56.3034 58.4786 56.2616 58.4634 56.2138L54.9797 43.7638C55.0404 44.863 55.0816 45.9631 55.1034 47.0638C55.1147 47.3413 55.1222 47.5963 55.1222 47.8288V56.1463C55.1222 56.2089 55.0973 56.269 55.053 56.3133C55.0087 56.3576 54.9486 56.3825 54.8859 56.3825H51.4997C51.437 56.3825 51.3769 56.3576 51.3326 56.3133C51.2883 56.269 51.2634 56.2089 51.2634 56.1463V38.2625C51.2634 38.135 51.3647 38.0263 51.4959 38.0263H56.6559C56.7684 38.0263 56.8547 38.1013 56.8847 38.2025L60.5634 51.2263L64.4859 38.1988C64.5011 38.1509 64.531 38.1092 64.5715 38.0795C64.6119 38.0498 64.6608 38.0338 64.7109 38.0338H69.8709C69.9984 38.0338 70.1034 38.135 70.1034 38.2625V38.2663ZM104.36 43.6663C103.818 43.1052 103.155 42.6765 102.421 42.4138C101.609 42.1176 100.75 41.9727 99.8859 41.9863C98.9372 41.9863 98.0484 42.14 97.2572 42.455C96.4772 42.7625 95.7759 43.2425 95.2134 43.8688C94.6217 44.5445 94.175 45.3346 93.9009 46.19C93.5747 47.2325 93.4134 48.32 93.4359 49.4113C93.4359 50.6113 93.6084 51.6838 93.9422 52.5913C94.2909 53.4913 94.7784 54.2525 95.3934 54.8525C96.0084 55.4413 96.7584 55.8875 97.6059 56.1838C98.5029 56.4828 99.443 56.6323 100.388 56.6263C100.925 56.6263 101.386 56.6075 101.798 56.57C102.955 56.483 104.082 56.1642 105.113 55.6325C105.151 55.6134 105.183 55.5838 105.205 55.5473C105.227 55.5108 105.238 55.4688 105.237 55.4263V52.5388C105.236 52.4995 105.225 52.4612 105.205 52.4272C105.186 52.3933 105.158 52.3648 105.124 52.3443C105.091 52.3239 105.053 52.3121 105.013 52.31C104.974 52.3079 104.935 52.3157 104.9 52.3325C103.931 52.8426 102.88 53.1789 101.795 53.3263C101.416 53.3638 101.03 53.3825 100.647 53.3788C100.223 53.3885 99.8006 53.3185 99.4022 53.1725C99.0604 53.0359 98.7513 52.8289 98.4947 52.565C98.2367 52.2773 98.0367 51.9424 97.9059 51.5788C97.7872 51.2208 97.7154 50.8489 97.6922 50.4725H105.781C105.843 50.4725 105.902 50.4481 105.947 50.4046C105.991 50.3612 106.016 50.302 106.017 50.24V48.4288C106.033 47.5046 105.889 46.5846 105.59 45.71C105.334 44.9482 104.914 44.2518 104.36 43.67V43.6663ZM101.491 45.8413C101.674 46.0887 101.809 46.3686 101.888 46.6663C101.963 46.9325 102.012 47.2213 102.031 47.525H97.7672C97.8497 46.715 98.0747 46.1113 98.4309 45.7325C98.6188 45.5284 98.8482 45.3669 99.1037 45.2589C99.3592 45.1509 99.6349 45.0988 99.9122 45.1063C100.231 45.0992 100.546 45.1659 100.835 45.3013C101.093 45.4263 101.318 45.6115 101.491 45.8413ZM48.8109 29.1125H48.2972L45.6234 35.51H46.2947L47.1122 33.5075H49.9959L50.8209 35.51H51.4959L48.8184 29.105H48.8109V29.1125ZM47.2397 33.0125L48.5597 29.8475L49.8384 33.0125H47.2397ZM52.8009 33.1438H54.8822C55.9772 33.1438 56.7159 32.1613 56.7159 31.1188C56.7159 30.125 55.9247 29.1088 54.8297 29.1088H52.1747V35.5138H52.7972L52.8009 33.1438ZM52.8009 29.6713H54.7959C55.4972 29.6713 56.0934 30.3163 56.0934 31.1188C56.0934 31.895 55.6059 32.5888 54.8484 32.5888H52.8009V29.6713ZM57.0347 35.5138L57.8522 33.5113H60.7284L61.5534 35.5138H62.2434L59.5659 29.1088H59.0484L56.3672 35.5138H57.0309H57.0347ZM59.3072 29.8513L60.5897 33.0125H57.9984L59.3184 29.8475H59.3109L59.3072 29.8513ZM62.2247 32.2625C62.2247 30.725 63.3384 29.075 65.2622 29.075C65.7493 29.0537 66.2321 29.1742 66.6521 29.4218C67.0721 29.6694 67.4112 30.0335 67.6284 30.47L67.1222 30.7738C66.9514 30.4214 66.6818 30.1263 66.3462 29.9246C66.0106 29.7228 65.6235 29.6231 65.2322 29.6375C63.7022 29.6375 62.8622 31.0063 62.8622 32.2963C62.8622 33.7063 63.8972 34.9888 65.2584 34.9888C65.6659 34.9947 66.0669 34.8861 66.4156 34.6753C66.7644 34.4644 67.0469 34.1599 67.2309 33.7963L67.7559 34.07C67.3397 35.03 66.2034 35.5588 65.2209 35.5588C63.4659 35.5588 62.2247 33.8825 62.2247 32.2588V32.2625ZM69.2559 35.5138H68.6372V29.1088H69.2559V31.9588H73.0472V29.1088H73.6809V35.5138H73.0472V32.5175H69.2597V35.5138H69.2559ZM79.4184 35.5138H75.1247V29.1088H79.3397V29.6713H75.7434V31.9813H78.8784V32.5138H75.7397V34.9513H79.4222V35.5138H79.4184Z" fill="#111111"/>
    </g>
    <rect width="253" height="90" transform="translate(168.336 0.5)" fill="#D9D9D9"/>
    <mask id="path-3-inside-1_6967_62818" fill="white">
        <path d="M168.336 0.5H421.336V90.5H168.336V0.5Z"/>
    </mask>
    <path d="M168.336 0.5H421.336V90.5H168.336V0.5Z" fill="#D9D9D9"/>
    <path d="M421.336 85.5H168.336V95.5H421.336V85.5Z" fill="#DB0303" mask="url(#path-3-inside-1_6967_62818)"/>
    <path d="M320.046 35.3483C321.091 35.3483 322.107 35.4975 323.093 35.7964C324.049 36.1249 324.557 36.5429 324.557 37.051C324.557 37.3199 324.467 37.5887 324.287 37.8279C324.168 38.0664 323.899 38.246 323.631 38.246C323.242 38.1264 322.854 37.9768 322.466 37.7979C321.719 37.4691 320.912 37.2902 320.076 37.3199C319.209 37.2899 318.313 37.4991 317.566 37.9468C316.909 38.3952 316.551 39.1718 316.611 39.9783C316.581 40.7252 316.88 41.4422 317.447 41.9202C318.074 42.4279 318.791 42.846 319.568 43.0852C320.404 43.3837 321.241 43.7122 322.077 44.1006C322.916 44.5225 323.636 45.1493 324.168 45.9229C324.765 46.8798 325.067 47.9916 325.034 49.1191C325.034 50.8818 324.527 52.226 323.481 53.1222C322.346 54.0779 320.882 54.556 319.389 54.4664C318.044 54.4964 316.701 54.1675 315.535 53.5106C314.46 52.7937 313.922 52.1664 313.922 51.5391C313.922 51.2402 314.041 50.9714 314.221 50.7325C314.37 50.5233 314.579 50.3741 314.848 50.3441C315.082 50.3733 315.296 50.4908 315.446 50.6725C315.684 50.8818 315.924 51.1206 316.192 51.3895C316.546 51.712 316.963 51.9563 317.417 52.1064C318.014 52.3456 318.672 52.4352 319.299 52.4352C320.255 52.4949 321.181 52.196 321.928 51.6287C322.585 51.031 322.943 50.1349 322.884 49.2387C322.914 48.3725 322.615 47.5656 322.017 46.9387C321.42 46.341 320.703 45.8929 319.897 45.5945C319.06 45.2956 318.254 44.9672 317.387 44.6087C316.551 44.2502 315.834 43.7125 315.266 42.9956C314.669 42.1891 314.34 41.2033 314.4 40.1875C314.37 39.381 314.549 38.5745 314.908 37.8275C315.207 37.2006 315.685 36.6925 316.282 36.3341C316.849 36.0052 317.447 35.7664 318.074 35.5872C318.731 35.4379 319.389 35.3483 320.046 35.3483ZM304.751 36.7522C305.767 37.6483 306.275 39.0822 306.275 40.9941V48.731C306.275 50.6725 305.767 52.0768 304.751 52.9729C303.594 53.8592 302.176 54.3395 300.719 54.3395C299.261 54.3395 297.843 53.8592 296.686 52.9729C295.7 52.0768 295.192 50.6729 295.192 48.7306V40.9945C295.192 39.0529 295.7 37.6487 296.686 36.7525C297.849 35.88 299.264 35.4083 300.719 35.4083C302.173 35.4083 303.588 35.8796 304.751 36.7522ZM378.566 35.4079C379.282 35.4079 379.731 35.6468 379.88 36.1549L385.167 53.1818V53.3314C385.167 53.6002 384.988 53.8391 384.749 53.9583C384.467 54.1447 384.13 54.2291 383.793 54.1975C383.465 54.2275 383.136 54.0483 383.016 53.7195L381.882 49.9556H375.13L373.995 53.7195C373.906 54.0483 373.547 54.2572 373.218 54.2272C372.909 54.2256 372.608 54.1322 372.352 53.9587C372.083 53.8395 371.934 53.6002 371.934 53.3014C371.934 53.2418 371.964 53.1522 371.994 53.0922L377.251 36.1549C377.401 35.6472 377.849 35.4079 378.566 35.4079ZM351.919 35.4079C352.607 35.4079 353.174 35.856 353.652 36.7822L357.685 44.5191L361.747 36.7822C362.255 35.886 362.823 35.4079 363.48 35.4079C363.988 35.3183 364.466 35.6772 364.556 36.1849C364.586 36.2718 364.586 36.3663 364.556 36.4533V53.391C364.556 53.6299 364.436 53.8391 364.227 53.9587C363.995 54.0909 363.732 54.1604 363.465 54.1604C363.198 54.1604 362.935 54.0909 362.703 53.9587C362.602 53.9025 362.519 53.82 362.461 53.7201C362.403 53.6202 362.373 53.5065 362.375 53.391V39.9191L358.491 47.2075C358.372 47.5664 358.043 47.8352 357.655 47.8352C357.474 47.8204 357.302 47.7532 357.158 47.6418C357.015 47.5304 356.907 47.3796 356.849 47.2079L352.965 39.7691V53.391C352.965 53.6299 352.846 53.8391 352.636 53.9587C352.427 54.1079 352.159 54.1975 351.919 54.1975C351.651 54.1975 351.382 54.1379 351.173 53.9883C350.934 53.8987 350.784 53.6599 350.814 53.421V36.4833C350.725 35.9756 351.083 35.4975 351.591 35.4079C351.711 35.3779 351.83 35.3779 351.919 35.4079ZM393.681 35.3779C394.009 35.3779 394.338 35.4975 394.607 35.7068C394.906 36.0052 395.174 36.3637 395.324 36.7522L401.746 49.2983V36.1252C401.746 35.886 401.866 35.6768 402.075 35.5872C402.307 35.4551 402.57 35.3856 402.837 35.3856C403.104 35.3856 403.366 35.4551 403.598 35.5872C403.807 35.7064 403.927 35.9156 403.927 36.1249V53.421C403.927 53.6599 403.808 53.8691 403.599 53.9883C403.359 54.1379 403.121 54.1975 402.852 54.1975C402.556 54.1819 402.271 54.0804 402.032 53.9052C401.794 53.7301 401.611 53.4891 401.507 53.2118L394.756 40.2772V53.421C394.756 53.6599 394.637 53.8691 394.457 53.9883C394.225 54.1204 393.963 54.1898 393.696 54.1898C393.429 54.1898 393.166 54.1204 392.934 53.9883C392.834 53.9322 392.75 53.8498 392.692 53.7499C392.634 53.6501 392.604 53.5364 392.606 53.421V36.1249C392.606 35.6172 392.964 35.3779 393.681 35.3779ZM277.329 35.3779H282.198C283.632 35.3183 285.066 35.7964 286.171 36.7222C287.157 37.6183 287.664 39.0222 287.664 40.9345V41.1733C287.664 43.0849 287.157 44.5191 286.141 45.4152C285.006 46.341 283.572 46.8491 282.108 46.7595H278.643V53.421C278.643 53.6599 278.524 53.8691 278.314 53.9883C278.082 54.1205 277.82 54.19 277.553 54.19C277.286 54.19 277.023 54.1205 276.791 53.9883C276.69 53.9321 276.606 53.8497 276.549 53.7499C276.491 53.65 276.461 53.5364 276.462 53.421V36.1249C276.462 35.9156 276.552 35.7364 276.701 35.5872C276.881 35.4379 277.089 35.3483 277.329 35.3779ZM342.689 35.3779C342.928 35.3779 343.137 35.4675 343.257 35.6768C343.406 35.856 343.466 36.0949 343.466 36.3341C343.466 36.5729 343.406 36.8418 343.257 37.051C343.137 37.2599 342.928 37.3495 342.689 37.3495H338.597V53.421C338.597 53.6599 338.477 53.8691 338.268 53.9883C338.036 54.1204 337.773 54.1898 337.506 54.1898C337.239 54.1898 336.977 54.1204 336.745 53.9883C336.644 53.9322 336.56 53.8498 336.502 53.7499C336.444 53.6501 336.415 53.5364 336.416 53.421V37.3495H332.264C332.025 37.3495 331.816 37.2599 331.696 37.051C331.547 36.8418 331.457 36.6029 331.457 36.3341C331.457 36.0949 331.517 35.856 331.666 35.6768C331.786 35.4675 331.995 35.3779 332.234 35.3779H342.689ZM300.748 37.3199C298.508 37.3199 297.403 38.5149 297.403 40.9641L297.373 48.731C297.373 51.1506 298.478 52.3752 300.748 52.3752C301.674 52.4352 302.571 52.1064 303.258 51.4791C303.915 50.7325 304.214 49.7468 304.154 48.731V40.9641C304.244 39.9783 303.915 38.9925 303.258 38.216C302.571 37.5887 301.674 37.2599 300.748 37.3199ZM378.566 38.5445L375.668 48.1637H381.433L378.566 38.5445ZM282.108 37.3499H278.643L278.613 44.9675H282.108C283.034 45.0272 283.96 44.6983 284.617 44.0414C284.946 43.6682 285.194 43.232 285.348 42.7596C285.502 42.2871 285.559 41.7882 285.514 41.2933V40.9945C285.603 40.0087 285.275 39.0229 284.617 38.2464C283.931 37.6191 283.034 37.2902 282.108 37.3502L282.108 37.3499ZM266.515 48.6714C268.606 32.3014 257.046 17.3352 240.705 15.2445C224.366 13.1529 209.34 24.7133 207.248 41.0537C205.157 57.3941 216.718 72.3899 233.058 74.5106C249.428 76.6018 264.394 65.0414 266.515 48.6714Z" fill="#FF6C37"/>
    <path d="M245.665 34.1832L233.059 46.7893L229.504 43.2343C241.901 30.8374 243.126 31.9128 245.665 34.1832H245.665Z" fill="white"/>
    <path d="M233.059 47.0877C233.02 47.0888 232.981 47.0814 232.945 47.0659C232.909 47.0505 232.876 47.0273 232.85 46.9981L229.265 43.4435C229.237 43.4165 229.215 43.3841 229.199 43.3482C229.184 43.3122 229.176 43.2736 229.176 43.2345C229.176 43.1953 229.184 43.1567 229.199 43.1207C229.215 43.0848 229.237 43.0524 229.265 43.0254C241.872 30.4193 243.186 31.6139 245.844 34.0039C245.904 34.0635 245.934 34.1231 245.934 34.2131C245.935 34.2523 245.928 34.2913 245.912 34.3274C245.897 34.3634 245.873 34.3957 245.844 34.422L233.239 46.9981C233.209 47.0581 233.119 47.0877 233.059 47.0877ZM229.922 43.2346L233.059 46.3712L245.217 34.2135C243.007 32.242 241.513 31.6443 229.922 43.2346Z" fill="#FF6C37"/>
    <path d="M236.673 50.4038L233.238 46.9685L245.844 34.3623C249.22 37.7677 244.171 43.2942 236.673 50.4038Z" fill="white"/>
    <path d="M236.673 50.7021C236.633 50.7032 236.594 50.6957 236.558 50.6802C236.522 50.6648 236.49 50.6416 236.464 50.6125L233.028 47.1771C232.969 47.1175 232.969 47.0579 232.969 46.9683C232.969 46.8786 232.998 46.8186 233.058 46.759L245.664 34.1529C245.691 34.1245 245.724 34.1019 245.76 34.0864C245.795 34.071 245.834 34.063 245.873 34.063C245.913 34.063 245.951 34.071 245.987 34.0864C246.023 34.1019 246.056 34.1245 246.083 34.1529C246.464 34.5058 246.765 34.9364 246.966 35.4156C247.167 35.8948 247.263 36.4115 247.248 36.931C247.188 40.2471 243.424 44.459 236.912 50.6125C236.822 50.6725 236.733 50.7021 236.673 50.7021ZM233.656 46.9683C235.567 48.9098 236.374 49.6867 236.673 49.9852C241.691 45.2056 246.56 40.3067 246.59 36.9313C246.62 36.1544 246.321 35.3775 245.813 34.7802L233.656 46.9683Z" fill="#FF6C37"/>
    <path d="M229.563 43.3239L232.103 45.8632C232.163 45.9228 232.163 45.9824 232.103 46.0424C232.073 46.0724 232.073 46.0724 232.043 46.0724L226.785 47.2074C226.517 47.2374 226.278 47.0582 226.218 46.7893C226.205 46.7198 226.21 46.6482 226.23 46.5806C226.251 46.513 226.288 46.4513 226.337 46.4009L229.384 43.3539C229.444 43.2943 229.534 43.2643 229.563 43.3239Z" fill="white"/>
    <path d="M226.696 47.506C226.248 47.506 225.92 47.1475 225.92 46.6994C225.92 46.4902 226.01 46.281 226.159 46.1317L229.206 43.0848C229.288 43.0125 229.395 42.9727 229.505 42.9727C229.614 42.9727 229.721 43.0125 229.803 43.0848L232.343 45.624C232.522 45.7733 232.522 46.0421 232.343 46.2213C232.283 46.281 232.223 46.311 232.133 46.3406L226.876 47.476C226.816 47.476 226.756 47.506 226.696 47.506ZM229.475 43.6521L226.547 46.5798C226.488 46.6394 226.458 46.729 226.517 46.8187C226.547 46.9083 226.637 46.9383 226.726 46.9083L231.655 45.8329L229.475 43.6521Z" fill="#FF6C37"/>
    <path d="M252.327 27.1929C250.415 25.3406 247.338 25.4006 245.486 27.3421C243.634 29.2837 243.693 32.3306 245.635 34.1829C246.402 34.9235 247.392 35.3896 248.451 35.5085C249.51 35.6274 250.579 35.3924 251.49 34.8402L248.085 31.4348L252.326 27.1925L252.327 27.1929Z" fill="white"/>
    <path d="M248.979 35.826C246.142 35.826 243.842 33.526 243.842 30.6875C243.842 27.8498 246.142 25.5498 248.98 25.5498C250.294 25.5498 251.579 26.0575 252.534 26.9837C252.594 27.0433 252.624 27.1029 252.624 27.1929C252.625 27.2321 252.618 27.2711 252.602 27.3071C252.587 27.3432 252.564 27.3755 252.534 27.4017L248.502 31.4348L251.668 34.601C251.697 34.6279 251.719 34.6604 251.735 34.6963C251.75 34.7323 251.758 34.771 251.758 34.8102C251.758 34.8493 251.75 34.8881 251.735 34.924C251.719 34.96 251.697 34.9925 251.668 35.0194L251.608 35.079C250.817 35.564 249.908 35.8224 248.98 35.826H248.979ZM248.979 26.1771C246.47 26.1771 244.439 28.2083 244.469 30.7179C244.469 33.2271 246.5 35.2583 249.009 35.2283C249.697 35.2283 250.384 35.079 251.011 34.7506L247.874 31.6437C247.845 31.6174 247.822 31.5851 247.807 31.5491C247.791 31.513 247.784 31.474 247.785 31.4348C247.785 31.3452 247.814 31.2852 247.874 31.2256L251.877 27.2225C251.071 26.5356 250.055 26.1771 248.98 26.1771H248.979Z" fill="#FF6C37"/>
    <path d="M252.415 27.2827L252.356 27.2227L248.084 31.435L251.459 34.8103C251.788 34.6011 252.117 34.3623 252.386 34.0934C252.838 33.6501 253.198 33.1214 253.445 32.5379C253.692 31.9544 253.82 31.3277 253.823 30.6942C253.826 30.0607 253.703 29.433 253.461 28.8473C253.219 28.2617 252.864 27.7299 252.415 27.2827Z" fill="white"/>
    <path d="M251.489 35.1387C251.45 35.1398 251.411 35.1324 251.375 35.1169C251.339 35.1015 251.307 35.0783 251.28 35.0491L247.875 31.6437C247.846 31.6175 247.823 31.5852 247.807 31.5491C247.792 31.5131 247.784 31.4741 247.785 31.4349C247.785 31.3453 247.815 31.2853 247.875 31.2256L252.117 26.9837C252.144 26.9554 252.176 26.9328 252.212 26.9174C252.248 26.902 252.287 26.894 252.326 26.894C252.365 26.894 252.404 26.902 252.44 26.9174C252.476 26.9328 252.508 26.9554 252.535 26.9837L252.624 27.0433C254.626 29.0449 254.626 32.271 252.654 34.3026C252.356 34.601 252.027 34.8699 251.669 35.0791C251.579 35.1091 251.519 35.1387 251.489 35.1387ZM248.502 31.4349L251.519 34.4518C251.758 34.3026 251.997 34.0933 252.176 33.9141C253.879 32.2114 253.969 29.4333 252.326 27.641L248.502 31.4349Z" fill="#FF6C37"/>
    <path d="M246.173 34.7209C245.828 34.3765 245.361 34.1831 244.874 34.1831C244.387 34.1831 243.919 34.3765 243.574 34.7209L232.312 45.9824L234.194 47.8647L246.114 37.4093C246.89 36.752 246.95 35.587 246.293 34.8105C246.248 34.7882 246.207 34.7578 246.173 34.7209Z" fill="white"/>
    <path d="M234.163 48.1637C234.124 48.1647 234.085 48.1572 234.049 48.1418C234.013 48.1263 233.98 48.1032 233.954 48.074L232.072 46.1917C232.044 46.1648 232.021 46.1324 232.006 46.0964C231.99 46.0605 231.982 46.0218 231.982 45.9827C231.982 45.9436 231.99 45.9049 232.006 45.869C232.021 45.833 232.044 45.8006 232.072 45.7737L243.334 34.5121C243.531 34.3133 243.766 34.1555 244.025 34.0479C244.284 33.9402 244.562 33.8848 244.842 33.8848C245.123 33.8848 245.4 33.9402 245.659 34.0479C245.918 34.1555 246.153 34.3133 246.351 34.5121C246.55 34.7098 246.707 34.9449 246.815 35.2038C246.923 35.4626 246.978 35.7402 246.978 36.0206C246.978 36.3009 246.923 36.5785 246.815 36.8374C246.707 37.0963 246.55 37.3313 246.351 37.529L246.261 37.6186L234.342 48.074C234.312 48.1336 234.252 48.1637 234.163 48.1637ZM232.729 45.9829L234.193 47.4463L245.903 37.1706C246.56 36.6329 246.62 35.6471 246.082 34.9898C245.544 34.3325 244.559 34.2729 243.901 34.8106C243.867 34.8474 243.827 34.8778 243.782 34.9002L232.729 45.9829Z" fill="#FF6C37"/>
    <path d="M223.678 58.7975C223.559 58.8575 223.499 58.9768 223.529 59.0964L224.037 61.2472C224.156 61.546 223.977 61.9045 223.648 61.9941C223.409 62.0837 223.14 61.9941 222.991 61.8149L219.705 58.5587L230.43 47.8345L234.134 47.8941L236.643 50.4037C236.045 50.9114 232.431 54.4064 223.678 58.7975Z" fill="white"/>
    <path d="M223.44 62.2926C223.201 62.2926 222.962 62.203 222.813 62.0237L219.557 58.768C219.527 58.7417 219.504 58.7093 219.489 58.6732C219.473 58.6371 219.466 58.598 219.467 58.5587C219.467 58.4691 219.497 58.4095 219.557 58.3495L230.28 47.6253C230.337 47.571 230.411 47.5392 230.489 47.5356L234.193 47.5956C234.283 47.5956 234.343 47.6253 234.403 47.6853L236.912 50.1945C236.972 50.2594 237.004 50.3451 237.002 50.4333C237.002 50.523 236.972 50.583 236.882 50.6426L236.673 50.8218C233.507 53.5999 229.205 56.378 223.857 59.0368L224.365 61.1576C224.455 61.546 224.276 61.9641 223.917 62.173C223.738 62.263 223.589 62.2926 223.44 62.2926H223.44ZM220.154 58.5587L223.231 61.6056C223.32 61.7549 223.5 61.8149 223.649 61.7249C223.798 61.6356 223.858 61.4564 223.768 61.3068L223.26 59.156C223.201 58.8872 223.32 58.6483 223.559 58.5291C228.847 55.8703 233.118 53.1218 236.255 50.4037L234.045 48.193L230.609 48.1333L220.154 58.5587Z" fill="#FF6C37"/>
    <path d="M217.167 61.1278L219.737 58.5586L223.56 62.3824L217.466 61.9644C217.197 61.9344 217.018 61.6955 217.048 61.4267C217.048 61.3074 217.078 61.1878 217.167 61.1278Z" fill="white"/>
    <path d="M223.56 62.6512L217.436 62.2332C216.988 62.2032 216.689 61.8151 216.719 61.367C216.749 61.1878 216.808 61.0085 216.958 60.8889L219.527 58.3197C219.554 58.2914 219.587 58.2689 219.623 58.2535C219.658 58.2382 219.697 58.2302 219.736 58.2302C219.775 58.2302 219.814 58.2382 219.85 58.2535C219.886 58.2689 219.918 58.2914 219.945 58.3197L223.769 62.1435C223.858 62.2332 223.888 62.3528 223.828 62.472C223.769 62.5916 223.679 62.6512 223.56 62.6512ZM219.736 58.977L217.376 61.337C217.287 61.3966 217.287 61.5462 217.376 61.6059C217.406 61.6359 217.436 61.6655 217.495 61.6655L222.783 62.0239L219.736 58.977ZM229.385 49.2089C229.305 49.2087 229.23 49.1772 229.174 49.1212C229.118 49.0651 229.086 48.9892 229.086 48.9101C229.085 48.8708 229.092 48.8318 229.108 48.7957C229.123 48.7597 229.146 48.7274 229.176 48.7012L232.073 45.8035C232.1 45.7752 232.133 45.7527 232.169 45.7372C232.205 45.7218 232.243 45.7139 232.282 45.7139C232.322 45.7139 232.36 45.7218 232.396 45.7372C232.432 45.7527 232.465 45.7752 232.492 45.8035L234.373 47.6855C234.463 47.7751 234.493 47.8647 234.463 47.9843C234.443 48.0359 234.411 48.0819 234.369 48.1183C234.328 48.1547 234.278 48.1804 234.224 48.1932L229.445 49.2085L229.385 49.2089ZM232.282 46.4309L230.311 48.4024L233.537 47.7151L232.282 46.4309Z" fill="#FF6C37"/>
    <path d="M234.133 47.8944L230.847 48.6117C230.79 48.6255 230.731 48.6279 230.673 48.6188C230.616 48.6097 230.56 48.5893 230.51 48.5588C230.46 48.5282 230.417 48.4881 230.382 48.4408C230.348 48.3934 230.323 48.3398 230.309 48.2829C230.28 48.1336 230.31 47.9844 230.429 47.8648L232.251 46.0425L234.133 47.8944Z" fill="white"/>
    <path d="M230.787 48.9101C230.689 48.9109 230.591 48.8922 230.501 48.855C230.41 48.8178 230.327 48.7628 230.258 48.6933C230.188 48.6238 230.133 48.5412 230.096 48.4502C230.059 48.3593 230.04 48.2618 230.041 48.1635C230.041 47.9543 230.13 47.7751 230.25 47.6255L232.072 45.8035C232.099 45.7752 232.132 45.7526 232.168 45.7372C232.203 45.7218 232.242 45.7139 232.281 45.7139C232.32 45.7139 232.359 45.7218 232.395 45.7372C232.431 45.7526 232.463 45.7752 232.49 45.8035L234.372 47.6855C234.462 47.7751 234.491 47.8647 234.462 47.9843C234.442 48.0359 234.41 48.0819 234.368 48.1183C234.327 48.1546 234.277 48.1803 234.223 48.1931L230.937 48.9101H230.787ZM232.281 46.4308L230.668 48.0439C230.608 48.1035 230.608 48.1631 230.638 48.2231C230.668 48.2828 230.728 48.3128 230.818 48.3128L233.566 47.7151L232.281 46.4308ZM252.445 30.1501C252.385 29.9712 252.176 29.8816 251.997 29.9412C251.818 30.0008 251.728 30.2105 251.788 30.3893C251.788 30.4193 251.818 30.4493 251.818 30.4789C251.997 30.8374 251.937 31.2855 251.698 31.6143C251.579 31.7635 251.608 31.9728 251.728 32.092C251.877 32.2112 252.086 32.1816 252.206 32.0324C252.654 31.4647 252.744 30.7474 252.445 30.1501Z" fill="#FF6C37"/>
    <defs>
        <clipPath id="clip0_6967_62818">
            <rect width="90" height="90" fill="white" transform="translate(25.3359 0.5)"/>
        </clipPath>
    </defs>
</svg>
