<svg width="597" height="90" viewBox="0 0 597 90" fill="none" xmlns="http://www.w3.org/2000/svg">
    <mask id="path-1-inside-1_6967_62844" fill="white">
        <path d="M0 0H145.5V90H0V0Z"/>
    </mask>
    <path d="M0 0H145.5V90H0V0Z" fill="#D9D9D9"/>
    <path d="M145.5 85H0V95H145.5V85Z" fill="#22AE16" mask="url(#path-1-inside-1_6967_62844)"/>
    <path d="M98.866 39.39C98.936 39.515 98.9985 39.6725 99.061 39.855C98.991 39.705 98.9435 39.5325 98.866 39.39C100.346 45.15 93.991 51.8975 86.041 49.9875H86.0435C97.5335 42.4625 91.8735 33.0575 86.5185 28.5375C82.1135 24.8125 84.716 23.6625 86.571 23.6625C87.1635 23.6625 87.6785 23.7775 87.8685 23.965C87.8235 20.3825 75.206 21.19 86.246 32.7C91.916 38.6125 85.226 51.69 77.256 41.745C77.1904 41.655 77.1311 41.5606 77.0785 41.4625C78.366 40.9275 79.421 39.475 79.421 37.08C79.434 36.2327 79.2661 35.3923 78.9285 34.615C79.8485 32.74 80.696 30.4975 80.696 27.69C80.696 20.98 76.341 15 70.246 15C64.151 15 59.796 20.98 59.796 27.69C59.796 30.4975 60.6435 32.74 61.5635 34.6175C61.2245 35.3961 61.0565 36.2384 61.071 37.0875C61.071 39.4825 62.1235 40.9375 63.4135 41.47C63.36 41.5681 63.2998 41.6625 63.2335 41.7525C55.2635 51.6975 48.5735 38.6175 54.2435 32.7075C65.286 21.1975 52.661 20.3925 52.616 23.9725L52.636 23.9625C52.831 23.7775 53.336 23.6625 53.9235 23.6625C55.7785 23.6625 58.381 24.8125 53.976 28.5375C48.6435 33.0375 43.0185 42.3825 54.3235 49.8925C54.3685 49.925 54.3985 49.96 54.446 49.9925C46.506 51.9025 40.161 45.1725 41.6185 39.4125L41.6285 39.3875C41.626 39.3925 41.6235 39.4 41.6185 39.4025L41.621 39.395L41.6135 39.4125C38.6785 43.4375 40.0985 53.86 51.0585 54.8325C51.106 54.84 51.146 54.855 51.1935 54.8625C40.2935 57.3625 43.5735 72.4125 51.246 70.0025L51.2185 70L51.2585 69.9925C45.9235 69.13 45.5235 62.5 48.1885 60.2175C51.1185 57.7025 54.486 59.875 61.4435 57.8875L61.5185 57.8775C61.4435 63.9925 67.3985 67.2775 64.276 70.7775C60.986 74.46 56.496 70.5275 57.131 66.9025L57.146 66.83L57.136 66.85V66.84L57.126 66.87C54.3735 71.495 57.8585 75 61.7735 75C64.021 75 66.411 73.845 67.846 71.0825C70.881 65.24 61.8835 55.0025 70.246 55.0025C78.606 55.0025 69.6085 65.24 72.6435 71.0825C74.0785 73.845 76.4685 75 78.7185 75C82.646 75 86.1435 71.4725 83.3435 66.83L83.356 66.8825L83.341 66.84C84.031 70.4825 79.5085 74.4825 76.2035 70.7775C73.0935 67.2675 79.031 63.9825 78.9685 57.87C85.9835 59.9 89.361 57.69 92.3035 60.22C94.9685 62.4975 94.5685 69.13 89.2335 69.995H89.251C96.926 72.39 100.193 57.36 89.296 54.8525L89.3085 54.85C100.408 53.945 101.831 43.4175 98.8635 39.39H98.866ZM48.271 40.365C47.9285 34.75 52.796 30.1825 54.2985 28.9125C56.3935 27.145 57.211 25.7325 56.7935 24.595C56.6617 24.2531 56.4395 23.9534 56.1507 23.728C55.8618 23.5025 55.5171 23.3598 55.1535 23.315C54.6759 23.2416 54.1883 23.2672 53.721 23.39C54.1435 23.185 54.6335 23.065 55.156 23.065C56.3435 23.065 57.321 23.6225 57.6435 24.4875C57.936 25.27 57.9435 27.005 54.7085 29.82C49.591 34.2775 49.176 39.625 50.496 43.145C51.641 46.2025 54.171 48.18 56.946 48.18C57.3885 48.18 57.8335 48.13 58.2785 48.0375C56.9285 49.1875 55.3785 49.5625 54.7485 49.6775C51.0135 47.065 48.4685 43.63 48.271 40.36V40.365ZM61.291 57.5475C58.4535 58.3025 55.5535 58.345 53.696 58.355C51.386 58.37 49.5585 58.38 47.8635 59.8375C46.321 61.1575 45.681 63.8225 46.341 66.1775C46.5685 66.99 46.816 67.8175 47.406 68.32C47.851 68.7025 48.611 69.245 49.3735 69.625L49.3335 69.615C49.381 69.64 49.416 69.6725 49.4635 69.6975C46.981 69.1675 45.5335 66.7475 45.3585 64.3625C45.1385 61.35 46.8635 57.5425 52.4385 56.725C53.3235 56.595 54.2585 56.5175 55.191 56.44C57.466 56.25 59.816 56.0525 61.4335 55.09C61.3735 56.04 61.3185 57.06 61.291 57.5475ZM61.916 50.8375C60.291 53.3325 57.076 53.72 54.241 54.0625C53.441 54.1575 52.7085 54.27 52.0335 54.4075L51.1435 54.3475C46.641 53.9575 43.291 51.8325 41.706 48.3575C40.9705 46.7508 40.6663 44.9801 40.8235 43.22C40.8235 43.22 40.9185 42.28 41.0935 41.295C40.876 44.0325 41.611 46.64 43.2935 48.7875C44.3796 50.1584 45.761 51.2664 47.3349 52.0291C48.9088 52.7918 50.6345 53.1895 52.3835 53.1925C55.7085 53.1925 58.8535 51.7175 61.246 49.035C62.071 48.11 62.441 48.04 62.536 48.04C62.856 48.505 62.5835 49.81 61.9185 50.8375H61.916ZM77.846 37.08C77.846 40.4475 74.0285 40.4475 74.0285 37.08C74.0285 33.7125 77.846 33.7125 77.846 37.08ZM73.3335 23.35C73.3335 25.2025 70.246 25.2025 70.246 23.35C70.246 21.5 73.3335 21.5 73.3335 23.35ZM72.6885 43.74C72.6885 45.6125 72.5385 47.13 72.356 47.13C72.1735 47.13 72.041 45.6175 72.0435 43.7425C72.0435 41.8675 72.1985 40.3525 72.376 40.3525C72.551 40.3525 72.696 41.8675 72.6885 43.74ZM70.3085 39.705C70.4485 39.705 70.5585 41.53 70.5585 43.7825C70.5585 46.035 70.4485 47.86 70.3085 47.86C70.1685 47.86 70.0585 46.035 70.0585 43.785C70.0585 41.53 70.171 39.705 70.3085 39.705ZM69.826 19.18C69.826 20.4575 67.7035 20.4575 67.7035 19.18C67.7035 17.9025 69.826 17.915 69.826 19.18ZM68.3585 29.73C68.3585 28.845 69.826 28.8525 69.826 29.73C69.826 30.615 68.3585 30.615 68.3585 29.73ZM68.4735 43.785C68.4735 45.705 68.3135 47.26 68.131 47.26C67.9485 47.26 67.801 45.705 67.8035 43.7875C67.806 41.87 67.9635 40.315 68.1485 40.315C68.3335 40.315 68.4785 41.865 68.4735 43.785ZM68.4735 25.0475C68.4735 26.3225 66.351 26.3225 66.351 25.0475C66.351 23.7725 68.4735 23.7725 68.4735 25.0475ZM65.606 21.9625C65.606 22.845 64.1385 22.845 64.1385 21.9625C64.1385 21.08 65.606 21.08 65.606 21.9625ZM65.406 28.2325C65.406 28.87 64.3435 28.87 64.3435 28.2325C64.3435 27.5925 65.406 27.5925 65.406 28.2325ZM62.656 37.0825C62.656 33.715 66.476 33.715 66.476 37.0825C66.476 40.45 62.656 40.45 62.656 37.0825ZM75.9735 59.8025C75.7785 61.6525 75.291 63.2525 74.8585 64.6675C73.991 67.5125 73.3035 69.7575 75.4635 72.1725C76.371 73.19 77.536 73.7275 78.8285 73.7275C80.4285 73.7275 82.0235 72.8775 82.9885 71.505C83.4193 70.8742 83.6974 70.1518 83.801 69.395C83.8435 69.795 83.866 70.17 83.8385 70.4375C83.7894 71.0044 83.6216 71.5547 83.346 72.0525C82.506 73.54 80.6885 74.5025 78.721 74.5025C76.346 74.5025 74.296 73.1725 73.0885 70.855C71.886 68.5375 72.7585 65.32 73.531 62.48C74.286 59.6925 74.941 57.2875 73.791 55.785C73.1335 54.9225 71.9735 54.505 70.2485 54.505C68.521 54.505 67.361 54.9225 66.7035 55.785C65.5535 57.285 66.2085 59.6925 66.9635 62.48C67.736 65.32 68.6085 68.5375 67.406 70.855C66.201 73.1725 64.1485 74.5025 61.776 74.5025C59.806 74.5025 57.9885 73.54 57.1485 72.0525C56.7012 71.248 56.5407 70.3153 56.6935 69.4075C56.8135 70.1475 57.0485 70.8625 57.501 71.5075C58.4685 72.875 60.0635 73.7275 61.6635 73.7275C62.9585 73.7275 64.1235 73.19 65.0335 72.1725C67.1885 69.7575 66.5035 67.5175 65.6335 64.6775C65.201 63.26 64.711 61.6525 64.521 59.8025C64.271 57.3875 64.8185 55.235 66.021 53.9025C67.0185 52.8 68.4385 52.2375 70.246 52.2375C72.0535 52.2375 73.4785 52.7975 74.471 53.9C75.671 55.2325 76.221 57.3825 75.971 59.8L75.9735 59.8025ZM83.546 48.185C86.321 48.185 88.851 46.21 89.9935 43.15C91.3085 39.63 90.8935 34.2825 85.7685 29.825C82.531 27.0075 82.5385 25.275 82.831 24.49C83.156 23.6275 84.131 23.0675 85.316 23.0675C85.7985 23.0675 86.246 23.18 86.646 23.355L86.6735 23.365C86.2358 23.2687 85.7842 23.2534 85.341 23.32C84.9773 23.3648 84.6326 23.5075 84.3438 23.733C84.0549 23.9584 83.8328 24.2581 83.701 24.6C83.286 25.7375 84.101 27.15 86.196 28.92C87.696 30.1875 92.566 34.755 92.2235 40.365C92.0235 43.635 89.481 47.07 85.746 49.6825C84.448 49.448 83.2323 48.8832 82.216 48.0425C82.6585 48.1375 83.106 48.185 83.546 48.185ZM95.1335 64.3575C94.9585 66.7475 93.5085 69.1625 91.021 69.6925C91.0585 69.6725 91.091 69.6475 91.126 69.625C91.8885 69.2425 92.646 68.705 93.0885 68.325C93.676 67.82 93.926 66.9925 94.1535 66.18C94.8135 63.825 94.1735 61.16 92.631 59.84C90.936 58.385 89.1085 58.3725 86.7985 58.3575C84.941 58.3475 82.041 58.305 79.1985 57.55C79.1735 57.06 79.1235 56.045 79.0635 55.0925C80.681 56.0575 83.036 56.255 85.3135 56.4475C86.246 56.525 87.1735 56.6025 88.056 56.73C93.631 57.5475 95.3535 61.35 95.131 64.355L95.1335 64.3575ZM88.4685 54.41C87.791 54.27 87.056 54.16 86.2535 54.06C83.416 53.72 80.201 53.3325 78.5785 50.835C77.9085 49.81 77.6285 48.51 77.8485 48.11C77.8869 48.0958 77.9275 48.0882 77.9685 48.0875C78.1935 48.0875 78.5635 48.27 79.246 49.035C81.6385 51.7175 84.7885 53.1925 88.111 53.1925C91.646 53.1925 95.046 51.5425 97.2035 48.785C98.8835 46.64 99.616 44.035 99.4035 41.3C99.5785 42.2825 99.671 43.225 99.671 43.225C99.8277 44.9843 99.5236 46.754 98.7885 48.36C97.2035 51.835 93.8535 53.96 89.351 54.35L88.4685 54.41ZM64.2435 35.6725C64.3358 35.7302 64.4104 35.8124 64.459 35.9099C64.5075 36.0074 64.5281 36.1165 64.5185 36.225C64.526 36.3067 64.5164 36.3891 64.4903 36.4669C64.4643 36.5447 64.4222 36.6162 64.3669 36.6768C64.3116 36.7374 64.2443 36.7859 64.1692 36.819C64.0942 36.8521 64.013 36.8693 63.931 36.8693C63.8489 36.8693 63.7678 36.8521 63.6927 36.819C63.6176 36.7859 63.5503 36.7374 63.495 36.6768C63.4397 36.6162 63.3977 36.5447 63.3716 36.4669C63.3455 36.3891 63.3359 36.3067 63.3435 36.225C63.3328 36.1154 63.3532 36.0051 63.4023 35.9065C63.4513 35.808 63.527 35.7252 63.6209 35.6676C63.7147 35.61 63.8228 35.5799 63.9329 35.5808C64.043 35.5816 64.1506 35.6134 64.2435 35.6725ZM74.981 36.78C74.888 36.7223 74.813 36.6397 74.7644 36.5417C74.7158 36.4436 74.6956 36.3339 74.706 36.225C74.7007 36.1448 74.712 36.0644 74.7391 35.9887C74.7662 35.913 74.8085 35.8437 74.8635 35.785C74.9184 35.7264 74.9848 35.6796 75.0586 35.6477C75.1323 35.6157 75.2118 35.5992 75.2922 35.5992C75.3726 35.5992 75.4521 35.6157 75.5259 35.6477C75.5996 35.6796 75.666 35.7264 75.721 35.785C75.7759 35.8437 75.8183 35.913 75.8454 35.9887C75.8724 36.0644 75.8837 36.1448 75.8785 36.225C75.8883 36.3341 75.8676 36.4438 75.8186 36.5417C75.7696 36.6397 75.6943 36.7221 75.6012 36.7797C75.508 36.8373 75.4006 36.8679 75.2911 36.8679C75.1816 36.868 75.0742 36.8375 74.981 36.78Z" fill="#111111"/>
    <mask id="path-4-inside-2_6967_62844" fill="white">
        <path d="M150.5 0H296V90H150.5V0Z"/>
    </mask>
    <path d="M150.5 0H296V90H150.5V0Z" fill="#D9D9D9"/>
    <path d="M296 85H150.5V95H296V85Z" fill="#22AE16" mask="url(#path-4-inside-2_6967_62844)"/>
    <path d="M255.065 16.5737L224.074 31.0622L224.916 31.4028L254.238 35.3165L255.065 35.1759V16.5737Z" fill="#C5CF21"/>
    <path d="M255.065 35.1759L224.074 31.0622L224.592 31.8237L239.926 43.4376L240.642 43.519L255.065 35.1759Z" fill="#70B540"/>
    <path d="M240.642 43.519L224.074 31.0622L224.195 32.1645L235.837 67.5174L236.645 68.1508L240.642 43.519Z" fill="#006D69"/>
    <path d="M236.645 68.1508L219.996 74.439L224.074 31.0622L236.645 68.1508Z" fill="#008CA9"/>
    <path d="M219.99 24.9126L220.075 24.7493L220.095 18.7074L219.99 18.5734L195.121 14.5L195.555 14.8841L219.066 24.6274L219.99 24.9126Z" fill="#70B540"/>
    <path d="M184.926 16.5737L215.916 31.0622L215.074 31.4028L185.753 35.3165L184.926 35.1759V16.5737Z" fill="#008CA9"/>
    <path d="M219.992 24.9126V18.5734L244.871 14.5L244.438 14.8841L220.926 24.6274L219.992 24.9126Z" fill="#006D69"/>
    <path d="M219.954 24.9126L195.121 14.5L184.926 16.5737L219.954 24.9126Z" fill="#C5CF21"/>
    <path d="M184.926 35.1759L215.916 31.0622L215.398 31.8237L200.064 43.4376L199.349 43.519L184.926 35.1759Z" fill="#006D69"/>
    <path d="M199.352 43.519L215.919 31.062L215.799 32.1645L204.156 67.5174L203.348 68.1508L199.352 43.519Z" fill="#C5CF21"/>
    <path d="M203.348 68.1508L219.996 74.439L215.919 31.062L203.348 68.1508Z" fill="#70B540"/>
    <path d="M220.035 24.9126L244.869 14.5L255.065 16.5737L220.035 24.9126Z" fill="#008CA9"/>
    <mask id="path-7-inside-3_6967_62844" fill="white">
        <path d="M301 0H446.5V90H301V0Z"/>
    </mask>
    <path d="M301 0H446.5V90H301V0Z" fill="#D9D9D9"/>
    <path d="M446.5 85H301V95H446.5V85Z" fill="#22AE16" mask="url(#path-7-inside-3_6967_62844)"/>
    <path d="M404.074 44.5C404.074 61.0684 390.643 74.5 374.074 74.5C357.506 74.5 344.074 61.0684 344.074 44.5C344.074 27.9316 357.506 14.5 374.074 14.5C390.643 14.5 404.074 27.9316 404.074 44.5Z" fill="#E23237"/>
    <path d="M404.074 44.5C404.074 44.4025 404.067 44.3064 404.066 44.2092C398.071 38.43 392.009 32.5764 391.839 32.3751C387.613 27.374 381.294 24.1982 374.234 24.1982C361.51 24.1982 351.195 34.5131 351.195 47.2368C351.195 48.997 351.399 50.7089 351.773 52.3556C360.124 61.1531 367.89 69.1537 373.703 74.4904C373.827 74.4921 373.95 74.5 374.074 74.5C390.643 74.5 404.074 61.0684 404.074 44.5Z" fill="#B52E31"/>
    <path d="M389.044 46.9035H359.545C359.544 46.8637 359.542 46.8241 359.542 46.784C359.542 38.6362 366.146 32.0312 374.295 32.0312C382.442 32.0312 389.047 38.6362 389.047 46.784C389.047 46.8241 389.044 46.8637 389.044 46.9035ZM392.535 46.2358H397.248C396.994 40.308 394.503 34.9609 390.594 31.0183L387.34 34.273L386.553 33.4863L389.792 30.2472C385.8 26.59 380.515 24.3269 374.703 24.2102V28.4038H373.59V24.2148C367.774 24.3752 362.498 26.6875 358.529 30.3883L361.492 33.3512L360.705 34.138L357.734 31.1664C353.908 35.0945 351.472 40.3809 351.221 46.2358H355.536V47.3486H351.199C351.208 49.0337 351.4 50.7124 351.773 52.3556L396.696 52.356C397.069 50.7128 397.262 49.0337 397.27 47.3486H392.535V46.2358Z" fill="white"/>
    <g clip-path="url(#clip0_6967_62844)">
        <mask id="path-10-inside-4_6967_62844" fill="white">
            <path d="M451.5 0H597V90H451.5V0Z"/>
        </mask>
        <path d="M451.5 0H597V90H451.5V0Z" fill="#D9D9D9"/>
        <path d="M597 85H451.5V95H597V85Z" fill="#22AE16" mask="url(#path-10-inside-4_6967_62844)"/>
        <path d="M493.155 42.4837C498.971 55.844 513.728 58.0844 531.341 46.7601C539.464 54.2788 541.488 63.1921 534.71 72.1645C531.135 73.6682 527.208 74.5 523.086 74.5C506.517 74.5 493.086 61.0684 493.086 44.5C493.086 43.8227 493.111 43.1502 493.155 42.4837ZM520.591 36.6843C523.217 25.7402 530.55 19.4624 542.078 21.2772C548.797 26.7789 553.086 35.1381 553.086 44.5C553.086 56.3113 546.26 66.5263 536.338 71.4196C545.351 58.5796 537.985 45.0327 520.591 36.6843ZM523.086 14.5C529.516 14.5 535.473 16.5238 540.357 19.968C523.962 18.062 516.22 31.7277 517.301 50.5994C506.648 53.8668 497.97 51.4593 493.384 40.2759C495.437 25.7076 507.952 14.5 523.086 14.5Z" fill="#662D91"/>
    </g>
    <defs>
        <clipPath id="clip0_6967_62844">
            <rect width="145.5" height="90" fill="white" transform="translate(451.5)"/>
        </clipPath>
    </defs>
</svg>
