<svg width="889" height="91" viewBox="0 0 889 91" fill="none" xmlns="http://www.w3.org/2000/svg">
    <mask id="path-1-inside-1_6967_62903" fill="white">
        <path d="M594.75 0.5H740.25V90.5H594.75V0.5Z"/>
    </mask>
    <path d="M594.75 0.5H740.25V90.5H594.75V0.5Z" fill="#D9D9D9"/>
    <path d="M740.25 85.5H594.75V95.5H740.25V85.5Z" fill="#373737" mask="url(#path-1-inside-1_6967_62903)"/>
    <path d="M656.685 42.0726C660.411 42.0726 661.245 44.2453 661.245 46.7526V49.2499H654.752V49.8492C654.777 51.2377 655.276 51.787 657.044 51.787C658.25 51.7809 659.449 51.5958 660.6 51.2377L661.055 53.4353C659.684 53.9294 658.237 54.1795 656.78 54.1743C653.128 54.1743 651.86 52.4811 651.86 49.6792V46.6079C651.86 44.1506 652.959 42.0726 656.685 42.0726ZM681.168 42.0677C684.819 42.0677 685.898 43.3562 685.898 46.2682L685.888 53.9345H683.5L683.286 53.1455C682.256 53.8158 681.053 54.1732 679.824 54.1743C677.702 54.1743 676.793 52.7157 676.793 50.7133C676.793 48.3509 677.821 47.4418 680.184 47.4418H682.976V46.2231C682.976 44.9345 682.616 44.4801 680.753 44.4801C679.67 44.4922 678.591 44.6126 677.532 44.8396L677.172 42.6172C678.474 42.2575 679.817 42.0727 681.168 42.0677ZM700.522 42.0677C704.507 42.0677 705.581 44.2653 705.581 46.6526V49.5894C705.586 51.9767 704.507 54.1743 700.522 54.1743C696.526 54.1743 695.462 51.9767 695.462 49.5894V46.6528C695.462 44.2653 696.536 42.0677 700.522 42.0677ZM654.302 38.0321V40.6843H649.857V53.9345H646.86L646.85 40.6843H642.41V38.0321H654.302ZM692.645 37.0782C693.489 37.0753 694.329 37.1879 695.142 37.4128L694.838 39.6553C694.287 39.5369 693.727 39.4734 693.164 39.4655C692.021 39.4655 691.851 39.965 691.851 40.8492V42.3074H694.813L694.648 44.6248H691.856V53.9345H688.944V44.6248H687.081V42.3074H688.944V40.6843C688.944 38.2721 690.068 37.0782 692.645 37.0782ZM723.577 43.3114C725.03 42.5669 726.625 42.1429 728.256 42.0677C730.189 42.0677 730.884 43.4262 730.884 45.504V53.9345H727.972V45.8187C727.972 45.1992 727.707 44.8894 727.043 44.8894C725.974 45.0073 724.941 45.3476 724.011 45.8884V53.9348H721.079V45.8184C721.079 45.1989 720.814 44.8892 720.15 44.8892C719.083 45.016 718.052 45.3558 717.118 45.8882V53.9345H714.207V42.3072H716.429L716.714 43.306C718.165 42.5718 719.754 42.1499 721.379 42.0674C721.828 42.0251 722.28 42.1216 722.673 42.344C723.066 42.5664 723.381 42.9042 723.577 43.3114ZM668.732 42.0677L669.031 44.7448C667.959 45.2288 666.925 45.7949 665.94 46.4379V53.9296H663.028V42.3074H665.485L665.675 43.596C666.622 42.9547 667.65 42.4409 668.732 42.0677ZM675.854 42.0677L676.144 44.7448C675.074 45.2292 674.044 45.7952 673.062 46.4379V53.9296H670.15V42.3074H672.607L672.797 43.596C673.745 42.9547 674.772 42.4409 675.854 42.0677ZM712.788 42.0677L713.078 44.7448C712.009 45.2292 710.979 45.7952 709.996 46.4379V53.9296H707.085V42.3074H709.542L709.732 43.596C710.679 42.9546 711.707 42.4408 712.788 42.0677ZM682.976 49.5394H680.828C679.874 49.5394 679.61 49.8043 679.61 50.6833C679.61 51.5623 679.874 51.8518 680.778 51.8518C681.55 51.8401 682.306 51.634 682.976 51.2526L682.976 49.5394ZM700.522 44.5499C698.969 44.5499 698.374 45.2443 698.374 46.5477V49.6745C698.374 50.9879 698.973 51.6721 700.522 51.6721C702.07 51.6721 702.669 50.9779 702.669 49.6745V46.5574C702.669 45.244 702.075 44.5499 700.522 44.5499ZM656.71 44.455C655.276 44.455 654.777 45.2192 654.777 46.3179V46.9074H658.478V46.3179C658.478 45.2192 658.143 44.455 656.71 44.455Z" fill="black"/>
    <path d="M624.184 50.4686L632.375 45.7437V36.2793L624.184 41.0139V50.4686Z" fill="#4040B2"/>
    <path d="M615.094 36.2793L623.285 41.0139V50.4685L615.094 45.739M606.004 40.4595L614.195 45.1893V35.7298L606.004 31M615.094 56.2373L623.285 60.9671V51.5073L615.094 46.7776" fill="#5C4EE5"/>
    <mask id="path-4-inside-2_6967_62903" fill="white">
        <path d="M743.238 0.5H888.738V90.5H743.238V0.5Z"/>
    </mask>
    <path d="M743.238 0.5H888.738V90.5H743.238V0.5Z" fill="#D9D9D9"/>
    <path d="M888.738 85.5H743.238V95.5H888.738V85.5Z" fill="#373737" mask="url(#path-4-inside-2_6967_62903)"/>
    <g clip-path="url(#clip0_6967_62903)">
        <path d="M794.055 22.8506L813.687 34.0757V75.4561L794.055 64.2333" fill="#1DAEFF"/>
        <path d="M823.406 27.6877L802.066 15.5273V23.9719L816.578 32.2623V57.603L823.407 61.4834C827.634 63.8951 831.094 62.4503 831.094 58.2713V39.6768C831.094 35.4957 827.634 30.1007 823.408 27.6877" fill="#1D94DD"/>
    </g>
    <mask id="path-8-inside-3_6967_62903" fill="white">
        <path d="M0.749023 0.5H146.249V90.5H0.749023V0.5Z"/>
    </mask>
    <path d="M0.749023 0.5H146.249V90.5H0.749023V0.5Z" fill="#D9D9D9"/>
    <path d="M146.249 85.5H0.749023V95.5H146.249V85.5Z" fill="#373737" mask="url(#path-8-inside-3_6967_62903)"/>
    <g clip-path="url(#clip1_6967_62903)">
        <path d="M85.9375 16H54.0625C46.296 16 40 22.296 40 30.0625V61.9375C40 69.704 46.296 76 54.0625 76H85.9375C93.704 76 100 69.704 100 61.9375V30.0625C100 22.296 93.704 16 85.9375 16Z" fill="black"/>
        <path d="M62.5083 54.4083C62.3453 54.4086 62.1841 54.3736 62.0358 54.3056C61.7574 54.1801 61.5402 53.9492 61.4321 53.6636C61.3239 53.378 61.3336 53.0611 61.459 52.7827L65.1844 44.5217L65.1997 44.4893L68.8313 36.4353C68.9345 36.2468 69.0865 36.0895 69.2713 35.9801C69.4562 35.8706 69.6671 35.8129 69.882 35.813C70.0968 35.813 70.3077 35.8707 70.4926 35.9802C70.6774 36.0897 70.8294 36.2469 70.9327 36.4353L78.3064 52.7827C78.4117 53.0158 78.4364 53.2773 78.3767 53.526C78.3169 53.7748 78.1761 53.9965 77.9764 54.1563C77.7766 54.3161 77.5295 54.4049 77.2738 54.4088C77.0181 54.4127 76.7683 54.3315 76.5638 54.1779L66.7004 46.7646L63.559 53.7295C63.4678 53.9318 63.3201 54.1034 63.1337 54.2238C62.9474 54.3442 62.7302 54.4083 62.5083 54.4083ZM67.6723 44.6117L74.3609 49.6397L69.882 39.7116L67.6723 44.6117Z" fill="white"/>
        <path d="M69.8826 66.3906C65.8265 66.3907 61.8616 65.188 58.4891 62.9346C55.1167 60.6811 52.4882 57.4782 50.9362 53.7309C49.7757 50.9293 49.2509 47.9053 49.3997 44.8766C49.5484 41.8479 50.367 38.8899 51.7964 36.2155C53.2258 33.5412 55.2305 31.2171 57.6661 29.4107C60.1017 27.6043 62.9076 26.3605 65.8817 25.7689C68.8558 25.1773 71.924 25.2526 74.8655 25.9893C77.807 26.7261 80.5486 28.106 82.8926 30.0297C85.2367 31.9534 87.125 34.3729 88.4215 37.1141C89.7181 39.8554 90.3906 42.85 90.3906 45.8823C90.3848 51.3196 88.2223 56.5326 84.3775 60.3774C80.5328 64.2221 75.3199 66.3847 69.8826 66.3906ZM69.8826 27.6794C66.2822 27.6794 62.7627 28.7471 59.7691 30.7474C56.7756 32.7477 54.4424 35.5908 53.0647 38.9171C51.6869 42.2435 51.3265 45.9036 52.029 49.4348C52.7315 52.966 54.4653 56.2095 57.0112 58.7553C59.5571 61.3011 62.8008 63.0348 66.332 63.737C69.8632 64.4393 73.5233 64.0787 76.8496 62.7008C80.1759 61.3229 83.0188 58.9896 85.019 55.9959C87.0191 53.0023 88.0866 49.4827 88.0865 45.8823C88.0808 41.0562 86.161 36.4293 82.7483 33.0168C79.3357 29.6042 74.7087 27.6849 69.8826 27.6794Z" fill="#EE0000"/>
    </g>
    <mask id="path-11-inside-4_6967_62903" fill="white">
        <path d="M149.239 0.5H294.739V90.5H149.239V0.5Z"/>
    </mask>
    <path d="M149.239 0.5H294.739V90.5H149.239V0.5Z" fill="#D9D9D9"/>
    <path d="M294.739 85.5H149.239V95.5H294.739V85.5Z" fill="#373737" mask="url(#path-11-inside-4_6967_62903)"/>
    <path d="M195.001 38.597H189.718L186.904 35.7671V30.5H180.002V37.4017H185.284L188.114 40.2318V43.879L185.284 46.7094H180.002V53.6111H186.904V48.344L189.734 45.5138H195.001V38.597ZM182.303 32.8006H184.603V35.1011H182.303V32.8006ZM184.603 51.2953H182.303V48.9948H184.603V51.2953Z" fill="#FFAE1A"/>
    <path d="M202.644 60.4974H199.602V45.4987H202.644V46.4069C203.128 45.8165 204.218 45.2566 205.383 45.2566C208.577 45.2566 210.378 47.9052 210.378 50.9927C210.378 54.0802 208.562 56.6985 205.383 56.6985C204.203 56.6985 203.128 56.1385 202.644 55.5482V60.4974ZM202.644 52.7786C202.835 53.1605 203.129 53.4815 203.493 53.706C203.856 53.9305 204.275 54.0496 204.702 54.0499C206.352 54.0499 207.32 52.7332 207.32 50.9927C207.32 49.2219 206.337 47.9052 204.702 47.9052C204.275 47.9079 203.858 48.028 203.495 48.2522C203.132 48.4764 202.837 48.7962 202.644 49.1765V52.7786ZM218.369 56.4564V55.4574C217.993 55.8587 217.538 56.1775 217.033 56.3938C216.527 56.61 215.982 56.719 215.433 56.7138C212.981 56.7138 211.589 55.0943 211.589 52.6727V45.5138H214.631V52.0522C214.631 53.2024 215.191 53.9894 216.402 53.9894C217.34 53.9894 218.142 53.4294 218.369 52.476V45.5138H221.426V56.4564H218.369ZM226.466 60.4973H223.424V45.4989H226.466V46.407C226.951 45.8166 228.04 45.2568 229.206 45.2568C232.399 45.2568 234.2 47.9054 234.2 50.9929C234.2 54.0804 232.384 56.6987 229.206 56.6987C228.025 56.6987 226.951 56.1386 226.466 55.5484L226.466 60.4973ZM226.466 52.7785C226.658 53.1603 226.952 53.4814 227.315 53.706C227.679 53.9305 228.097 54.0496 228.525 54.0499C230.174 54.0499 231.143 52.7332 231.143 50.9927C231.143 49.2219 230.159 47.9052 228.525 47.9052C228.098 47.9079 227.68 48.028 227.317 48.2522C226.954 48.4764 226.66 48.7962 226.466 49.1765V52.7785ZM238.574 60.4973H235.532V45.4989H238.574V46.407C239.058 45.8166 240.148 45.2568 241.313 45.2568C244.507 45.2568 246.308 47.9054 246.308 50.9929C246.308 54.0804 244.492 56.6987 241.313 56.6987C240.133 56.6987 239.058 56.1386 238.574 55.5484V60.4973ZM238.574 52.7785C238.766 53.1603 239.06 53.4814 239.423 53.706C239.787 53.9305 240.205 54.0496 240.632 54.0499C242.282 54.0499 243.251 52.7332 243.251 50.9927C243.251 49.2219 242.267 47.9052 240.632 47.9052C240.206 47.9079 239.788 48.028 239.425 48.2522C239.062 48.4764 238.768 48.7962 238.574 49.1765V52.7785ZM257.22 52.8695C256.827 55.2002 255.117 56.6985 252.362 56.6985C249.169 56.6985 247.05 54.3678 247.05 50.9927C247.05 47.6781 249.259 45.2566 252.317 45.2566C255.525 45.2566 257.296 47.4814 257.296 50.7052V51.6434H249.986C250.077 53.2931 251.015 54.2619 252.362 54.2619C253.391 54.2619 254.148 53.8228 254.39 52.8845H257.22V52.8695ZM250.061 49.7819H254.299C254.269 48.6317 253.588 47.7236 252.332 47.7236C251.166 47.7236 250.334 48.4349 250.061 49.7819ZM259.279 47.9505H257.614V45.4989H259.278V42.5322H262.29V45.4987H264.697V47.9506H262.29V52.7483C262.29 53.611 262.759 54.0047 263.547 54.0047C264.01 54.0017 264.464 53.8764 264.863 53.6413V56.3354C264.439 56.5624 263.713 56.6834 262.896 56.6834C260.671 56.6834 259.263 55.5786 259.263 53.157V47.9506L259.279 47.9505Z" fill="black"/>
    <mask id="path-14-inside-5_6967_62903" fill="white">
        <path d="M297.731 0.5H443.231V90.5H297.731V0.5Z"/>
    </mask>
    <path d="M297.731 0.5H443.231V90.5H297.731V0.5Z" fill="#D9D9D9"/>
    <path d="M443.231 85.5H297.731V95.5H443.231V85.5Z" fill="#373737" mask="url(#path-14-inside-5_6967_62903)"/>
    <path d="M362.913 52.9631C365.04 55.0766 367.912 56.2704 370.91 56.2875V51.5625C370.044 51.5705 369.186 51.4042 368.386 51.0734C367.586 50.7425 366.861 50.254 366.254 49.6369L362.913 52.9631ZM375.022 34.5L373.272 38.8744C374.655 39.4322 375.826 40.4126 376.617 41.6756H381.71C381.2 40.0567 380.335 38.5722 379.178 37.3307C378.021 36.0892 376.601 35.122 375.022 34.5Z" fill="#3F5364"/>
    <path d="M359.571 44.9999C359.578 46.5666 359.905 48.1153 360.533 49.5505L364.846 47.6249C364.487 46.7968 364.308 45.9021 364.321 44.9999C364.337 43.2617 365.036 41.5996 366.267 40.372C367.498 39.1444 369.162 38.4496 370.9 38.4374V33.7124C367.903 33.7139 365.029 34.9022 362.906 37.0176C360.783 39.1329 359.584 42.0029 359.571 44.9999ZM373.257 51.1255L375.006 55.4999C376.608 54.8797 378.048 53.9037 379.217 52.6457C380.386 51.3877 381.255 49.8806 381.756 48.238H376.669C375.894 49.5615 374.69 50.5803 373.257 51.1255Z" fill="#F18B21"/>
    <path d="M370.893 56.8123C368.698 56.8031 366.55 56.1827 364.688 55.0207C362.826 53.8586 361.325 52.2009 360.352 50.2333C359.38 48.2658 358.975 46.0663 359.183 43.8814C359.391 41.6966 360.203 39.6129 361.529 37.8639C362.855 36.115 364.642 34.77 366.689 33.9797C368.737 33.1895 370.964 32.9853 373.121 33.39C375.278 33.7948 377.279 34.7924 378.901 36.2711C380.523 37.7498 381.701 39.6511 382.302 41.7617H386.87C386.057 37.8252 383.813 34.3303 380.572 31.9533C377.331 29.5764 373.323 28.4867 369.324 28.8951C365.325 29.3034 361.62 31.1809 358.926 34.164C356.233 37.147 354.741 41.0235 354.741 45.0429C354.741 49.0624 356.233 52.9389 358.926 55.9219C361.62 58.905 365.325 60.7825 369.324 61.1908C373.323 61.5992 377.331 60.5095 380.572 58.1325C383.813 55.7556 386.057 52.2607 386.87 48.3242H382.302C381.58 50.7861 380.076 52.9461 378.018 54.4775C375.96 56.0089 373.459 56.8284 370.893 56.8123Z" fill="#3F5364"/>
    <path d="M370.893 28.1999V23.7374C366.602 23.7282 362.409 25.0192 358.867 27.4401C355.324 29.861 352.598 33.2984 351.048 37.2992L355.173 38.8742C356.429 35.7293 358.597 33.032 361.398 31.1297C364.2 29.2274 367.506 28.207 370.893 28.1999ZM370.893 61.7999V66.2624C375.964 66.2661 380.871 64.4623 384.732 61.1748C388.594 57.8872 391.157 53.3312 391.962 48.3242H387.395C386.634 52.1358 384.572 55.5643 381.561 58.0226C378.551 60.481 374.78 61.8163 370.893 61.7999Z" fill="#3F5364"/>
    <path d="M387.483 41.7621H391.963C391.373 38.0805 389.83 34.6172 387.488 31.7162C385.146 28.8151 382.085 26.5772 378.611 25.2246L377.036 29.3365C379.671 30.3787 382.006 32.06 383.83 34.2291C385.653 36.3983 386.909 38.987 387.483 41.7621ZM354.041 45.0002H349.56C349.564 49.2629 350.847 53.4261 353.243 56.9516C355.639 60.4771 359.038 63.2027 363 64.7759L364.663 60.664C361.534 59.4077 358.851 57.2457 356.959 54.455C355.066 51.6643 354.05 48.3721 354.041 45.0002Z" fill="#F18B21"/>
    <path d="M392.487 41.762H396.967C396.46 38.0073 395.172 34.4004 393.187 31.1738L389.407 33.5363C391.042 36.0101 392.095 38.8225 392.487 41.762ZM344.555 45.017C344.521 48.9188 345.314 52.7836 346.882 56.357L351.222 54.572C349.836 51.5727 349.102 48.3134 349.07 45.0095" fill="#3F5364"/>
    <path d="M370.894 66.7876C368.025 66.7915 365.184 66.2293 362.532 65.1331C359.88 64.0369 357.471 62.4283 355.443 60.3995L352.276 63.5495C354.709 66.009 357.61 67.9573 360.808 69.2797C364.005 70.6021 367.434 71.2721 370.894 71.2501C377.306 71.2445 383.496 68.9064 388.31 64.672C393.124 60.4376 396.233 54.5964 397.056 48.2382H392.577C391.762 53.4048 389.131 58.1111 385.156 61.5113C381.182 64.9114 376.125 66.7823 370.894 66.7876ZM370.894 23.2126C375.616 23.1842 380.213 24.7227 383.967 27.587L386.697 24.0001C382.141 20.5766 376.593 18.7333 370.894 18.7501C365.593 18.7491 360.413 20.3421 356.028 23.3222C351.644 26.3024 348.256 30.5321 346.306 35.462L350.523 37.1251C352.129 33.0288 354.931 29.5109 358.565 27.0295C362.198 24.5481 366.494 23.2181 370.894 23.2126Z" fill="#F18B21"/>
    <mask id="path-23-inside-6_6967_62903" fill="white">
        <path d="M446.222 0.5H591.722V90.5H446.222V0.5Z"/>
    </mask>
    <path d="M446.222 0.5H591.722V90.5H446.222V0.5Z" fill="#D9D9D9"/>
    <path d="M591.722 85.5H446.222V95.5H591.722V85.5Z" fill="#373737" mask="url(#path-23-inside-6_6967_62903)"/>
    <g clip-path="url(#clip2_6967_62903)">
        <path d="M503.794 15L490.435 15.0094V28.3687H503.801V14.9981L503.794 15ZM518.646 21.7369C516.068 21.7369 513.754 21.9919 511.673 22.47V31.9256C513.283 30.9956 515.346 30.5081 517.922 30.5081C520.421 30.5081 522.512 30.9281 524.201 31.7775C526.729 33.0581 528.086 35.2144 528.274 38.2519H538.408C538.234 32.88 536.231 28.8 532.433 25.9762C528.623 23.1544 524.023 21.7369 518.642 21.7369H518.646ZM499.046 36.2794C499.012 36.6816 498.992 37.085 498.988 37.4887C498.988 42.4481 500.685 46.0931 504.086 48.4162C506.106 49.8131 509.788 51.1012 515.158 52.2844L520.628 53.4937C523.83 54.1781 526.165 54.9694 527.64 55.8581C529.112 56.775 529.845 58.065 529.845 59.7356C529.845 62.5856 528.343 64.5375 525.336 65.5837C523.753 66.1312 521.693 66.4031 519.143 66.4031C514.905 66.4031 511.907 65.3681 510.158 63.2887C509.203 62.1469 508.568 60.4181 508.245 58.1137H498.167C498.167 63.3694 500.07 67.4981 503.88 70.4962C507.688 73.5037 512.912 74.9981 519.553 74.9981C526.069 74.9981 531.105 73.4756 534.671 70.4287C538.238 67.3819 540.025 63.5531 540.025 58.9331C540.025 54.4406 538.519 51.0037 535.511 48.6206C533.569 47.0981 530.659 45.8681 526.772 44.9587L517.915 42.8681C514.496 42.0675 512.26 41.3756 511.204 40.7775C509.563 39.8906 508.744 38.5425 508.744 36.735C508.744 36.5794 508.795 36.4331 508.802 36.2775L499.046 36.2794ZM542.61 69.6094C539.173 69.7537 539.173 74.8444 542.61 74.9887C546.038 74.8444 546.038 69.7537 542.61 69.6094ZM542.571 70.05H542.61C545.423 70.215 545.423 74.3756 542.61 74.5294C539.777 74.3944 539.747 70.2337 542.571 70.05ZM541.515 70.6931V73.8787H542.072V72.6562H542.687L543.332 73.8787H543.917V73.8487L543.205 72.5306C543.378 72.4599 543.529 72.3456 543.645 72.1987C543.745 72.0371 543.796 71.8504 543.793 71.6606C543.793 71.5158 543.763 71.3726 543.703 71.2406C543.662 71.1237 543.587 71.0218 543.488 70.9481C543.384 70.8591 543.26 70.7956 543.128 70.7625C542.97 70.7142 542.805 70.6907 542.64 70.6931H541.515ZM542.074 71.1431H542.642C542.73 71.1431 542.828 71.1525 542.905 71.1825C543.041 71.22 543.16 71.3175 543.197 71.4544C543.227 71.524 543.242 71.599 543.242 71.6747C543.242 71.7504 543.227 71.8253 543.197 71.895C543.177 71.9614 543.135 72.0193 543.079 72.06C543.032 72.1111 542.971 72.1481 542.905 72.1669C542.82 72.1981 542.732 72.2152 542.642 72.2175H542.074V71.1431Z" fill="#111111"/>
    </g>
    <defs>
        <clipPath id="clip0_6967_62903">
            <rect width="37.2" height="60" fill="white" transform="translate(794 15.5)"/>
        </clipPath>
        <clipPath id="clip1_6967_62903">
            <rect width="60" height="60" fill="white" transform="translate(40 16)"/>
        </clipPath>
        <clipPath id="clip2_6967_62903">
            <rect width="60" height="60" fill="white" transform="translate(487.806 15)"/>
        </clipPath>
    </defs>
</svg>
