<svg width="737" height="90" viewBox="0 0 737 90" fill="none" xmlns="http://www.w3.org/2000/svg">
    <g clip-path="url(#clip0_6967_62884)">
        <mask id="path-1-inside-1_6967_62884" fill="white">
            <path d="M-0.250977 0H145.249V90H-0.250977V0Z"/>
        </mask>
        <path d="M-0.250977 0H145.249V90H-0.250977V0Z" fill="#D9D9D9"/>
        <path d="M145.249 85H-0.250977V95H145.249V85Z" fill="#00BAC6" mask="url(#path-1-inside-1_6967_62884)"/>
        <path d="M18.999 31H132.777V60.7989H18.999V31Z" fill="#D40000"/>
        <path d="M23.8746 35.5376H40.3318V37.7047L27.0578 53.8912H40.6705V56.2614H23.536V54.0943L36.81 37.908H23.8744L23.8746 35.5376ZM51.7774 38.3143L47.9169 48.6085H55.6376L51.7774 38.3143ZM50.1518 35.5378H53.3349L61.3265 56.2616H58.4143L56.518 50.9792H47.0365L45.1402 56.2616H42.1602L50.1518 35.5378ZM67.2185 46.3738V53.9589H71.7563C73.3139 53.9589 74.3974 53.6203 75.1425 53.0109C75.8874 52.4014 76.2261 51.4532 76.2261 50.1665C76.2261 48.8798 75.8874 47.9314 75.1425 47.322C74.3974 46.7125 73.2461 46.3738 71.7563 46.3738H67.2185ZM67.2185 37.8405V44.0712H71.4176C72.7721 44.0712 73.8556 43.8003 74.533 43.3263C75.2101 42.7845 75.5488 42.0396 75.5488 40.9558C75.5488 39.94 75.2101 39.1272 74.533 38.5854C73.8556 38.0436 72.8396 37.8405 71.4174 37.8405H67.2185ZM64.3741 35.5378H71.6208C73.7879 35.5378 75.4134 36.0118 76.6323 36.8923C77.7837 37.7727 78.3932 39.0596 78.3932 40.6849C78.3932 41.9716 78.1223 42.9876 77.5128 43.7325C76.9032 44.4776 76.023 44.9516 74.8716 45.1547C76.2939 45.4258 77.3774 46.0352 78.1223 46.9834C78.8674 47.9314 79.2737 49.0827 79.2737 50.5049C79.2737 52.3336 78.6641 53.7558 77.3774 54.7716C76.0908 55.7876 74.3296 56.2616 71.9594 56.2616H64.3741V35.5378ZM86.6557 46.3738V53.9589H91.1935C92.6832 53.9589 93.8346 53.6203 94.5795 53.0109C95.3246 52.4014 95.663 51.4532 95.663 50.1665C95.663 48.8798 95.3246 47.9314 94.5795 47.322C93.8346 46.7125 92.6832 46.3738 91.1932 46.3738H86.6557ZM86.6557 37.8405V44.0712H90.8546C92.2092 44.0712 93.2928 43.8003 93.9701 43.3263C94.6472 42.7845 94.9857 42.0396 94.9857 40.9558C94.9857 39.94 94.6472 39.1272 93.9701 38.5854C93.2928 38.0436 92.2768 37.8405 90.8546 37.8405H86.6557ZM83.8112 35.5378H91.0579C93.225 35.5378 94.8504 36.0118 96.0695 36.8923C97.2208 37.7727 97.8304 39.0596 97.8304 40.6849C97.8304 41.9716 97.5593 42.9876 96.9499 43.7325C96.3404 44.4776 95.4599 44.9516 94.3086 45.1547C95.7308 45.4258 96.8144 46.0352 97.5595 46.9834C98.3044 47.9314 98.7106 49.0827 98.7106 50.5049C98.7106 52.3336 98.1012 53.7558 96.8144 54.7716C95.5277 55.7876 93.7668 56.2616 91.3966 56.2616H83.8112V35.5378ZM103.181 35.5378H106.025V56.2616H103.181V35.5378ZM111.375 35.5378H114.491L119.435 42.9876L124.446 35.5378H127.426L120.925 45.2223L128.239 56.2614H125.123L119.367 47.5925L113.61 56.2614H110.563L117.877 45.29L111.375 35.5378Z" fill="white"/>
        <mask id="path-4-inside-2_6967_62884" fill="white">
            <path d="M148.239 0H293.739V90H148.239V0Z"/>
        </mask>
        <path d="M148.239 0H293.739V90H148.239V0Z" fill="#D9D9D9"/>
        <path d="M293.739 85H148.239V95H293.739V85Z" fill="#00BAC6" mask="url(#path-4-inside-2_6967_62884)"/>
        <path d="M191.992 51.9623C191.992 54.554 192.356 57.0542 192.973 59.4531H229.446C233.582 59.4531 236.936 56.099 236.936 51.9623C236.936 47.8238 233.582 44.4717 229.446 44.4717H192.973C192.356 46.8688 191.992 49.3706 191.992 51.9623Z" fill="#343741"/>
        <path d="M242.412 36.3465C243.458 35.3821 244.432 34.3465 245.326 33.236C239.833 26.3915 231.412 22 221.955 22C210.117 22 199.93 28.8858 195.07 38.8542H236.02C238.391 38.8542 240.67 37.9533 242.412 36.3465Z" fill="#FEC514"/>
        <path d="M236.02 65.0713H195.07C199.932 75.0377 210.117 81.9255 221.955 81.9255C231.412 81.9255 239.833 77.5321 245.326 70.6894C244.433 69.5805 243.459 68.5401 242.412 67.5769C240.67 65.9684 238.391 65.0713 236.02 65.0713Z" fill="#00BFB3"/>
        <mask id="path-7-inside-3_6967_62884" fill="white">
            <path d="M296.731 0H442.231V90H296.731V0Z"/>
        </mask>
        <path d="M296.731 0H442.231V90H296.731V0Z" fill="#D9D9D9"/>
        <path d="M442.231 85H296.731V95H442.231V85Z" fill="#00BAC6" mask="url(#path-7-inside-3_6967_62884)"/>
        <path d="M369.691 14.6558C353.188 14.6558 339.808 28.0341 339.808 44.5383C339.808 61.0418 353.188 74.4211 369.691 74.4211C386.195 74.4211 399.574 61.0418 399.574 44.5383C399.574 28.0339 386.194 14.6558 369.691 14.6558ZM369.691 70.5842C364.996 70.5842 361.189 67.4476 361.189 63.5793H378.194C378.194 67.4469 374.387 70.5842 369.691 70.5842ZM383.735 61.2597H355.646V56.1662H383.735L383.735 61.2597ZM383.634 53.5449H355.726C355.633 53.4379 355.539 53.3324 355.449 53.2239C352.574 49.7326 351.897 47.9102 351.239 46.0528C351.228 45.9916 354.725 46.7672 357.206 47.3252C357.206 47.3252 358.482 47.6205 360.347 47.9607C358.556 45.8609 357.492 43.1915 357.492 40.4628C357.492 34.4726 362.087 29.2381 360.429 25.0073C362.042 25.1385 363.768 28.4119 363.884 33.5298C365.599 31.1597 366.317 26.8318 366.317 24.1783C366.317 21.4306 368.128 18.239 369.939 18.1299C368.324 20.7905 370.356 23.0712 372.163 28.7291C372.841 30.8544 372.755 34.431 373.278 36.6991C373.451 31.9883 374.261 25.1147 377.25 22.7418C375.931 25.7301 377.445 29.4697 378.48 31.2674C380.15 34.1679 381.163 36.3653 381.163 40.5214C381.163 43.308 380.134 45.9314 378.398 47.9824C380.372 47.6121 381.734 47.2782 381.734 47.2782L388.143 46.0281C388.143 46.0276 387.212 49.8571 383.634 53.5449Z" fill="#DA4E31"/>
        <mask id="path-10-inside-4_6967_62884" fill="white">
            <path d="M445.222 0H590.722V90H445.222V0Z"/>
        </mask>
        <path d="M445.222 0H590.722V90H445.222V0Z" fill="#D9D9D9"/>
        <path d="M590.722 85H445.222V95H590.722V85Z" fill="#00BAC6" mask="url(#path-10-inside-4_6967_62884)"/>
        <g clip-path="url(#clip1_6967_62884)">
            <path d="M532.744 14.5H500.869C493.103 14.5 486.807 20.796 486.807 28.5625V60.4375C486.807 68.204 493.103 74.5 500.869 74.5H532.744C540.511 74.5 546.807 68.204 546.807 60.4375V28.5625C546.807 20.796 540.511 14.5 532.744 14.5Z" fill="#242938"/>
            <path d="M538.539 41.7941C538.456 41.0448 538.372 40.1289 538.039 39.1298C537.79 38.1306 537.373 37.0483 536.791 35.8827C536.208 34.717 535.458 33.5514 534.542 32.3859C534.209 31.9694 533.793 31.4699 533.294 31.0537C533.96 28.3893 532.461 26.1412 532.461 26.1412C529.963 25.9748 528.298 26.8907 527.715 27.3904C527.632 27.3904 527.549 27.307 527.382 27.2237C526.966 27.0573 526.55 26.8907 526.05 26.7241C525.551 26.5577 525.134 26.4745 524.635 26.3078C524.135 26.2246 523.635 26.1414 523.219 26.058H522.97C521.887 22.5611 518.723 21.0625 518.723 21.0625C515.226 23.3106 514.56 26.391 514.56 26.391V26.5574C514.394 26.6409 514.144 26.6409 513.978 26.7241C513.728 26.8073 513.478 26.8905 513.145 26.9739C512.895 27.0571 512.645 27.1403 512.312 27.307C511.813 27.5568 511.23 27.8064 510.73 28.0562C510.231 28.3061 509.731 28.6391 509.232 28.9722C509.148 28.9722 509.148 28.889 509.148 28.889C504.236 27.0571 499.907 29.3052 499.907 29.3052C499.49 34.4673 501.821 37.7976 502.321 38.3805C502.238 38.7135 502.071 39.0466 501.988 39.3796C501.655 40.5452 501.322 41.7941 501.156 43.0431C501.156 43.2095 501.072 43.3759 501.072 43.5426C496.576 45.7905 495.244 50.3697 495.244 50.3697C498.991 54.6993 503.404 54.9489 503.404 54.9489C503.986 55.9483 504.569 56.864 505.319 57.7797C505.651 58.1127 505.985 58.5292 506.234 58.8623C504.902 62.7754 506.401 66.0227 506.401 66.0227C510.564 66.1891 513.311 64.1908 513.894 63.6913C514.311 63.8577 514.727 63.9409 515.143 64.1076C516.392 64.4406 517.724 64.6073 519.056 64.6902H520.638C522.636 67.521 526.05 67.9375 526.05 67.9375C528.548 65.3563 528.631 62.7754 528.631 62.1925V62.0261C529.131 61.693 529.63 61.2768 530.13 60.8605C531.129 59.9446 531.961 58.9455 532.711 57.8631C532.794 57.7797 532.877 57.6967 532.877 57.5301C535.708 57.6967 537.623 55.7816 537.623 55.7816C537.123 52.8674 535.458 51.452 535.125 51.2024H535.042V47.7053C534.959 47.3725 534.959 47.0395 534.876 46.7896C534.542 45.5409 534.126 44.3751 533.46 43.2927C532.794 42.2104 532.045 41.2945 531.129 40.462C530.213 39.6292 529.214 39.0466 528.132 38.5469C527.049 38.0474 525.967 37.7976 524.801 37.6312C524.218 37.5477 523.719 37.5477 523.136 37.5477H522.303C522.054 37.5477 521.721 37.6312 521.471 37.6312C520.389 37.7976 519.306 38.2138 518.39 38.7967C517.474 39.3796 516.642 40.0457 515.976 40.795C515.31 41.5443 514.81 42.4602 514.477 43.3759C514.144 44.2919 513.977 45.2076 513.894 46.1235V47.4557C513.977 47.872 514.061 48.3716 514.144 48.7879C514.394 49.6204 514.81 50.3697 515.226 51.0358C515.726 51.7019 516.309 52.2016 516.892 52.6176C517.474 53.0341 518.14 53.3671 518.807 53.5335C519.473 53.7002 520.056 53.7834 520.721 53.7834H521.804C521.887 53.7834 521.97 53.7834 522.054 53.7002C522.22 53.7002 522.303 53.617 522.47 53.617C522.72 53.5335 522.97 53.4503 523.219 53.2839C523.469 53.2005 523.635 53.0341 523.885 52.8674C523.968 52.8674 523.969 52.7845 524.052 52.701C524.302 52.5346 524.302 52.2016 524.135 52.0349C523.969 51.8685 523.719 51.7851 523.552 51.9517C523.469 51.9517 523.469 52.0349 523.386 52.0349C523.219 52.1181 523.053 52.2016 522.803 52.2845C522.636 52.368 522.387 52.368 522.22 52.4512H520.888C520.389 52.368 519.972 52.2845 519.473 52.0349C518.973 51.8685 518.557 51.5355 518.14 51.2024C517.724 50.8691 517.391 50.3697 517.141 49.9534C516.892 49.5372 516.642 48.9543 516.558 48.3716C516.475 48.1218 516.475 47.7887 516.475 47.5389V47.1227C516.475 46.9563 516.475 46.7896 516.558 46.623C516.808 45.3742 517.391 44.2087 518.39 43.2095C518.64 42.9597 518.89 42.793 519.14 42.5432C519.389 42.3768 519.722 42.2104 519.972 42.0437C520.305 41.8773 520.638 41.7941 520.888 41.7107C521.221 41.6275 521.554 41.5443 521.887 41.5443H522.886C523.219 41.5443 523.635 41.6275 523.968 41.7107C524.718 41.8773 525.384 42.1272 526.05 42.5432C527.382 43.2927 528.464 44.4585 529.214 45.7905C529.547 46.4566 529.797 47.2059 529.963 47.9552C529.963 48.1218 530.046 48.3716 530.046 48.538V49.8702C530.046 50.1201 530.046 50.2865 529.963 50.5363C529.963 50.7027 529.88 50.9526 529.88 51.119C529.88 51.2856 529.797 51.5355 529.713 51.7019C529.63 52.1181 529.464 52.5346 529.297 52.8674C528.964 53.617 528.548 54.3662 528.048 55.1155C527.049 56.4477 525.717 57.6133 524.135 58.2794C523.386 58.6124 522.553 58.8623 521.721 59.0287C521.304 59.1121 520.888 59.1121 520.472 59.1951H519.223C518.307 59.1121 517.391 58.9455 516.558 58.6956C515.726 58.446 514.81 58.1127 514.061 57.6967C512.479 56.864 511.063 55.6984 509.898 54.2828C509.315 53.617 508.815 52.8674 508.482 52.0349C508.066 51.2024 507.733 50.3697 507.483 49.5372C507.233 48.7047 507.067 47.7887 507.067 46.9562V45.3742C507.067 44.958 507.15 44.4585 507.15 44.042C507.233 43.6258 507.317 43.1261 507.4 42.7101C507.483 42.2936 507.566 41.7941 507.733 41.3777C507.983 40.5452 508.316 39.7127 508.649 38.8799C509.398 37.2979 510.314 35.8827 511.48 34.8004C511.729 34.5505 512.062 34.2175 512.395 33.9677C512.729 33.7178 513.062 33.4682 513.395 33.3016C513.728 33.0517 514.061 32.8853 514.394 32.7189L514.893 32.4691C514.977 32.4691 515.06 32.3856 515.143 32.3856C515.226 32.3856 515.31 32.3024 515.393 32.3024C515.726 32.136 516.142 32.0528 516.475 31.8862C516.558 31.8862 516.642 31.803 516.725 31.803C516.808 31.803 516.892 31.7198 516.975 31.7198C517.141 31.6363 517.391 31.6363 517.558 31.5534C517.641 31.5534 517.724 31.4699 517.891 31.4699C517.974 31.4699 518.057 31.4699 518.224 31.3867C518.307 31.3867 518.39 31.3867 518.557 31.3035H518.89C518.973 31.3035 519.056 31.3035 519.223 31.2201C519.306 31.2201 519.473 31.2201 519.556 31.1369H522.47C523.219 31.1369 523.968 31.2201 524.718 31.3867C526.133 31.6363 527.466 32.136 528.715 32.7189C529.9 33.2729 530.994 34.0027 531.961 34.8836L532.294 35.2164C532.378 35.2998 532.544 35.383 532.627 35.5497C532.711 35.7161 532.877 35.7161 532.961 35.8825C533.044 36.0491 533.21 36.1323 533.294 36.2158C533.71 36.632 534.043 37.0483 534.376 37.5477C535.042 38.3805 535.625 39.2962 536.041 40.1289C536.041 40.2121 536.125 40.2121 536.125 40.2953C536.125 40.3787 536.208 40.3788 536.208 40.462C536.291 40.5452 536.291 40.6284 536.374 40.795C536.458 40.8782 536.458 40.9614 536.541 41.128C536.624 41.2113 536.624 41.2945 536.707 41.4611C536.874 41.8773 537.04 42.2104 537.123 42.5432C537.29 43.1261 537.456 43.6258 537.54 44.042C537.623 44.2087 537.79 44.3751 537.956 44.2919C538.123 44.2919 538.289 44.1255 538.289 43.9586C538.622 42.9597 538.622 42.3768 538.539 41.7941Z" fill="url(#paint0_linear_6967_62884)"/>
        </g>
        <mask id="path-13-inside-5_6967_62884" fill="white">
            <path d="M592.22 0H737.72V90H592.22V0Z"/>
        </mask>
        <path d="M592.22 0H737.72V90H592.22V0Z" fill="#D9D9D9"/>
        <path d="M737.72 85H592.22V95H737.72V85Z" fill="#00BAC6" mask="url(#path-13-inside-5_6967_62884)"/>
        <g clip-path="url(#clip2_6967_62884)">
            <path d="M637.696 74.4348H633.806V65.4789H637.696C640.499 65.4789 641.902 66.8905 641.902 69.7127C641.902 72.8589 640.499 74.4348 637.696 74.4348ZM635.469 72.9934H637.445C639.307 72.9934 640.237 71.8998 640.237 69.7113C640.237 67.8482 639.307 66.9168 637.445 66.9168H635.469V72.9932V72.9934ZM643.645 74.4348H641.937L645.746 65.4789H647.534L651.427 74.4348H649.637L648.508 71.992H645.633L646.205 70.5529H648.069L646.6 67.1882L643.645 74.4348ZM650.486 65.4789H657.296V66.9189H654.723V74.4348H653.061V66.9189H650.486L650.486 65.4789ZM658.151 74.4348H656.444L660.254 65.4789H662.042L665.934 74.4348H664.144L663.015 71.992H660.14L660.71 70.5529H662.574L661.105 67.1882L658.152 74.4348H658.151ZM670.927 74.4348H667.037V65.4789H670.927C673.731 65.4789 675.133 66.8905 675.133 69.7127C675.133 72.8589 673.731 74.4348 670.927 74.4348ZM668.699 72.9934H670.676C672.537 72.9934 673.469 71.8998 673.469 69.7113C673.469 67.8482 672.537 66.9168 670.676 66.9168H668.699V72.9932V72.9934ZM676.259 69.9693C676.259 66.9325 677.762 65.4145 680.766 65.4145C683.724 65.4145 685.202 66.9325 685.202 69.9693C685.202 72.988 683.724 74.4993 680.766 74.4993C677.895 74.4986 676.394 72.988 676.259 69.9693ZM680.766 73.0555C682.573 73.0555 683.477 72.0145 683.477 69.9311C683.477 67.8798 682.573 66.853 680.766 66.853C678.912 66.853 677.986 67.8796 677.986 69.9311C677.987 72.0147 678.913 73.0553 680.766 73.0553M692.142 70.8107V72.907C691.758 73.0075 691.414 73.0562 691.113 73.0562C689.078 73.0562 688.063 71.9814 688.063 69.8312C688.063 67.8461 689.141 66.8538 691.295 66.8538C692.195 66.8538 693.031 67.0211 693.805 67.3553V65.8518C693.032 65.56 692.153 65.413 691.169 65.413C687.948 65.413 686.337 66.8845 686.337 69.8305C686.337 72.94 687.921 74.4977 691.088 74.4977C692.177 74.4977 693.083 74.3387 693.806 74.0207V69.3355H691.12L690.558 70.8093H692.142V70.8107ZM678.815 48.2852L674.856 45.6737L671.554 51.19L667.713 50.0673L664.331 55.2288L664.505 56.8532L682.892 53.4648L681.824 41.9755L678.815 48.2852ZM661.667 43.3323L664.618 42.9264C665.095 43.1411 665.427 43.2227 665.999 43.3682C666.891 43.6 667.922 43.8229 669.45 43.0532C669.806 42.877 670.547 42.1998 670.846 41.8134L682.933 39.6213L684.166 54.5448L663.458 58.2768L661.667 43.3323ZM684.119 37.9548L682.926 38.1822L680.634 14.5L641.578 19.0286L646.39 58.075L650.962 57.4113C650.597 56.89 650.028 56.2593 649.058 55.4523C647.712 54.3339 648.187 52.4336 648.982 51.2336C650.033 49.2062 655.447 46.63 655.14 43.39C655.03 42.2118 654.843 40.6787 653.749 39.6273C653.708 40.0637 653.782 40.4828 653.782 40.4828C653.782 40.4828 653.333 39.91 653.109 39.1293C652.887 38.8293 652.713 38.7339 652.476 38.3336C652.308 38.7963 652.33 39.3332 652.33 39.3332C652.33 39.3332 651.963 38.4655 651.903 37.7327C651.686 38.0605 651.631 38.683 651.631 38.683C651.631 38.683 651.154 37.315 651.263 36.5777C651.045 35.9364 650.4 34.6637 650.582 31.7718C651.774 32.6064 654.398 32.4086 655.42 30.9018C655.759 30.4023 655.992 29.0402 655.251 26.3552C654.774 24.6339 653.595 22.0705 653.136 21.0977L653.081 21.1375C653.323 21.9212 653.823 23.563 654.015 24.3602C654.595 26.7752 654.751 27.6168 654.478 28.7305C654.246 29.6987 653.691 30.3318 652.282 31.0398C650.874 31.75 649.004 30.0212 648.886 29.9261C647.517 28.8355 646.458 27.0573 646.341 26.1925C646.218 25.2468 646.886 24.6789 647.223 23.9057C646.74 24.043 646.203 24.2882 646.203 24.2882C646.203 24.2882 646.845 23.6245 647.635 23.0507C647.937 22.8556 648.226 22.6414 648.5 22.4095C648 22.4013 647.595 22.4155 647.595 22.4155C647.595 22.4155 648.428 21.9655 649.291 21.6377C648.66 21.61 648.054 21.6332 648.054 21.6332C648.054 21.6332 649.914 20.8014 651.381 20.1918C652.391 19.7777 653.377 19.9 653.931 20.7018C654.659 21.7518 655.423 22.3218 657.042 22.675C658.037 22.2339 658.338 22.0082 659.588 21.6672C660.687 20.4573 661.551 20.3012 661.551 20.3012C661.551 20.3012 661.122 20.6943 661.008 21.3114C661.631 20.8202 662.314 20.41 662.314 20.41C662.314 20.41 662.049 20.7362 661.803 21.2552L661.86 21.3407C662.587 20.9043 663.442 20.5607 663.442 20.5607C663.442 20.5607 663.198 20.8698 662.911 21.2695C663.46 21.265 664.572 21.2929 665.004 21.3414C667.554 21.3977 668.082 18.6198 669.06 18.2711C670.285 17.8338 670.833 17.5689 672.92 19.6195C674.71 21.3805 676.11 24.5305 675.414 25.2362C674.832 25.8222 673.682 25.0075 672.409 23.4205C671.736 22.5798 671.227 21.5861 670.989 20.323C670.788 19.2573 670.005 18.6393 670.005 18.6393C670.005 18.6393 670.458 19.6518 670.458 20.5436C670.458 21.0311 670.519 22.8527 671.301 23.8757C671.223 24.025 671.187 24.6152 671.102 24.7286C670.193 23.6298 668.241 22.8438 667.922 22.6122C669 23.4948 671.476 25.5227 672.427 27.4675C673.327 29.3057 672.797 30.9911 673.252 31.4268C673.382 31.5513 675.187 33.8013 675.534 34.9314C676.14 36.9011 675.57 38.9718 674.777 40.2557L672.563 40.6007C672.239 40.5107 672.021 40.4657 671.73 40.2977C671.891 40.0141 672.209 39.3077 672.212 39.1614L672.087 38.9425C671.398 39.9189 670.243 40.867 669.284 41.4114C668.028 42.1232 666.582 42.013 665.64 41.722C662.967 40.8977 660.438 39.0911 659.829 38.6163C659.829 38.6163 659.81 38.995 659.925 39.0803C660.598 39.8411 662.142 41.2157 663.636 42.175L660.453 42.5252L661.958 54.238C661.291 54.3332 661.187 54.3805 660.457 54.4841C659.814 52.2107 658.583 50.7264 657.237 49.8618C656.051 49.0989 654.414 48.9273 652.848 49.2377L652.748 49.3548C653.837 49.2414 655.122 49.3989 656.443 50.2352C657.739 51.055 658.784 53.1723 659.169 54.4464C659.661 56.0753 660.002 57.8186 658.676 59.6659C657.733 60.9789 654.981 61.7043 652.756 60.1347C653.35 61.09 654.153 61.8707 655.234 62.0177C656.839 62.2361 658.362 61.957 659.411 60.8809C660.306 59.9605 660.781 58.0361 660.656 56.0095L662.073 55.8039L662.584 59.4414L686.033 56.6177L684.12 37.9548H684.119ZM669.853 28.0764C669.788 28.2257 669.684 28.3239 669.839 28.81L669.848 28.8377L669.872 28.9009L669.937 29.0462C670.215 29.6155 670.521 30.1518 671.032 30.4263C671.168 30.4032 671.305 30.3884 671.443 30.382C671.923 30.3609 672.226 30.4368 672.417 30.5402C672.434 30.4441 672.438 30.3048 672.428 30.0986C672.39 29.3777 672.57 28.1523 671.185 27.5073C670.662 27.265 669.929 27.3393 669.684 27.6423C669.728 27.6482 669.768 27.6573 669.8 27.6677C670.17 27.7961 669.92 27.9236 669.853 28.0764ZM673.737 34.8011C673.555 34.7003 672.706 34.7402 672.109 34.8114C670.972 34.9457 669.744 35.3395 669.476 35.5497C668.987 35.9275 669.208 36.5861 669.57 36.8568C670.583 37.6136 671.471 38.1213 672.408 37.9975C672.983 37.9218 673.491 37.0105 673.851 36.1839C674.097 35.6148 674.097 35.0003 673.737 34.8011ZM663.671 28.968C663.991 28.6635 662.074 28.2637 660.586 29.2785C659.489 30.0271 659.453 31.6321 660.504 32.5417C660.609 32.6317 660.696 32.6955 660.776 32.748C661.12 32.5852 661.474 32.4447 661.836 32.3273C662.515 32.107 663.081 31.9928 663.545 31.9321C663.767 31.6837 664.026 31.2466 663.961 30.4546C663.872 29.3798 663.059 29.5499 663.671 28.968Z" fill="#632CA6"/>
        </g>
    </g>
    <defs>
        <linearGradient id="paint0_linear_6967_62884" x1="517.05" y1="80.605" x2="517.05" y2="26.3788" gradientUnits="userSpaceOnUse">
            <stop stop-color="#FFF100"/>
            <stop offset="1" stop-color="#F05A28"/>
        </linearGradient>
        <clipPath id="clip0_6967_62884">
            <rect width="737" height="90" fill="white"/>
        </clipPath>
        <clipPath id="clip1_6967_62884">
            <rect width="60" height="60" fill="white" transform="translate(486.806 14.5)"/>
        </clipPath>
        <clipPath id="clip2_6967_62884">
            <rect width="60" height="60" fill="white" transform="translate(633.806 14.5)"/>
        </clipPath>
    </defs>
</svg>
