<svg width="725" height="447" viewBox="0 0 725 447" fill="none" xmlns="http://www.w3.org/2000/svg">
<path d="M0 376.61H725" stroke="#CE9999" stroke-width="1.75" stroke-miterlimit="10"/>
<g style="mix-blend-mode:multiply">
<path d="M214.585 251.196C271.935 251.196 318.427 203.931 318.427 145.626C318.427 87.3208 271.935 40.0552 214.585 40.0552C157.234 40.0552 110.742 87.3208 110.742 145.626C110.742 203.931 157.234 251.196 214.585 251.196Z" fill="#F3E1E6"/>
</g>
<g style="mix-blend-mode:multiply">
<path d="M584.518 320.051C642.39 261.216 642.39 165.825 584.518 106.989C526.645 48.154 432.816 48.154 374.943 106.989C317.071 165.825 317.071 261.216 374.943 320.052C432.816 378.887 526.645 378.887 584.518 320.051Z" fill="#F3E1E6"/>
</g>
<g style="mix-blend-mode:multiply">
<path d="M96.3766 69.8976C103.538 62.6172 103.538 50.8132 96.3766 43.5327C89.2153 36.2522 77.6045 36.2522 70.4432 43.5327C63.2819 50.8132 63.2819 62.6172 70.4432 69.8977C77.6045 77.1781 89.2153 77.1781 96.3766 69.8976Z" fill="#F3E1E6"/>
</g>
<g style="mix-blend-mode:multiply">
<path d="M313.897 334.238C324.943 334.238 333.899 325.134 333.899 313.903C333.899 302.672 324.943 293.568 313.897 293.568C302.85 293.568 293.895 302.672 293.895 313.903C293.895 325.134 302.85 334.238 313.897 334.238Z" fill="#F3E1E6"/>
</g>
<g style="mix-blend-mode:multiply">
<path d="M536.93 41.4107C538.738 33.6772 534.037 25.9179 526.43 24.0798C518.823 22.2417 511.191 27.0209 509.383 34.7544C507.575 42.4879 512.276 50.2472 519.883 52.0853C527.49 53.9234 535.122 49.1442 536.93 41.4107Z" fill="#F3E1E6"/>
</g>
<g style="mix-blend-mode:multiply">
<path d="M559.737 31.7028C562.5 31.7028 564.74 29.4257 564.74 26.6166C564.74 23.8076 562.5 21.5304 559.737 21.5304C556.974 21.5304 554.734 23.8076 554.734 26.6166C554.734 29.4257 556.974 31.7028 559.737 31.7028Z" fill="#F3E1E6"/>
</g>
<g style="mix-blend-mode:multiply">
<path d="M703.217 109.373C703.219 110.379 702.927 111.364 702.378 112.201C701.83 113.039 701.049 113.693 700.135 114.079C699.221 114.466 698.215 114.568 697.244 114.373C696.273 114.177 695.38 113.694 694.68 112.983C693.979 112.272 693.502 111.366 693.308 110.379C693.114 109.392 693.212 108.369 693.591 107.439C693.969 106.509 694.61 105.714 695.433 105.155C696.256 104.595 697.224 104.297 698.214 104.297C698.87 104.295 699.521 104.426 700.128 104.68C700.735 104.935 701.286 105.309 701.751 105.78C702.216 106.252 702.584 106.812 702.836 107.428C703.087 108.045 703.217 108.706 703.217 109.373Z" fill="#F3E1E6"/>
</g>
<g style="mix-blend-mode:multiply">
<path d="M245.693 21.5304C245.695 22.5372 245.403 23.5219 244.854 24.3599C244.305 25.1978 243.524 25.8512 242.609 26.2374C241.695 26.6236 240.688 26.7251 239.717 26.5292C238.745 26.3333 237.853 25.8487 237.153 25.1367C236.453 24.4248 235.976 23.5177 235.783 22.5301C235.59 21.5426 235.69 20.5191 236.07 19.5893C236.45 18.6595 237.093 17.8653 237.917 17.3072C238.741 16.749 239.71 16.4521 240.7 16.4541C242.024 16.4541 243.294 16.9889 244.231 17.9409C245.167 18.8929 245.693 20.1841 245.693 21.5304Z" fill="#F3E1E6"/>
</g>
<g style="mix-blend-mode:multiply">
<path d="M358.594 342.482C362.826 342.482 366.258 338.994 366.258 334.69C366.258 330.387 362.826 326.899 358.594 326.899C354.361 326.899 350.93 330.387 350.93 334.69C350.93 338.994 354.361 342.482 358.594 342.482Z" fill="#F3E1E6"/>
</g>
<g style="mix-blend-mode:multiply">
<path d="M40.2285 48.929C40.2304 49.9354 39.9386 50.9197 39.3901 51.7574C38.8415 52.5951 38.0608 53.2486 37.1468 53.635C36.2328 54.0215 35.2266 54.1236 34.2555 53.9285C33.2844 53.7333 32.3921 53.2497 31.6914 52.5388C30.9908 51.8279 30.5133 50.9216 30.3195 49.9347C30.1257 48.9478 30.2242 47.9247 30.6026 46.9947C30.9809 46.0647 31.6222 45.2698 32.4451 44.7105C33.268 44.1512 34.2357 43.8526 35.2256 43.8526C36.5508 43.8526 37.8218 44.3871 38.7598 45.3389C39.6977 46.2906 40.226 47.5817 40.2285 48.929Z" fill="#F3E1E6"/>
</g>
<path opacity="0.18" d="M433.754 444.688C433.754 445.967 437.963 447 443.16 447C448.356 447 452.575 445.967 452.575 444.688C452.575 443.409 448.366 442.376 443.16 442.376C437.954 442.376 433.754 443.409 433.754 444.688Z" fill="#A188A5"/>
<path opacity="0.18" d="M423.77 435.086C423.77 435.972 426.537 436.69 429.953 436.69C433.369 436.69 436.146 435.972 436.146 435.086C436.146 434.201 433.379 433.493 429.953 433.493C426.527 433.493 423.77 434.211 423.77 435.086Z" fill="#A188A5"/>
<path opacity="0.18" d="M497.263 394.761C500.684 394.761 503.457 394.043 503.457 393.157C503.457 392.272 500.684 391.554 497.263 391.554C493.843 391.554 491.07 392.272 491.07 393.157C491.07 394.043 493.843 394.761 497.263 394.761Z" fill="#A188A5"/>
<path opacity="0.18" d="M316.143 401.933C317.854 401.933 319.24 401.576 319.24 401.136C319.24 400.696 317.854 400.339 316.143 400.339C314.433 400.339 313.047 400.696 313.047 401.136C313.047 401.576 314.433 401.933 316.143 401.933Z" fill="#A188A5"/>
<path opacity="0.18" d="M634.077 389.802C635.787 389.802 637.174 389.446 637.174 389.006C637.174 388.565 635.787 388.209 634.077 388.209C632.367 388.209 630.98 388.565 630.98 389.006C630.98 389.446 632.367 389.802 634.077 389.802Z" fill="#A188A5"/>
<path opacity="0.18" d="M301.086 405.75C301.086 406.192 302.47 406.556 304.173 406.556C305.876 406.556 307.269 406.192 307.269 405.75C307.269 405.307 305.886 404.953 304.173 404.953C302.46 404.953 301.086 405.336 301.086 405.75Z" fill="#A188A5"/>
<path opacity="0.18" d="M491.07 444.688C491.07 445.131 492.454 445.485 494.167 445.485C495.88 445.485 497.263 445.131 497.263 444.688C497.263 444.245 495.87 443.891 494.167 443.891C492.464 443.891 491.07 444.245 491.07 444.688Z" fill="#A188A5"/>
<path opacity="0.18" d="M64.207 388.209C64.207 388.642 65.5908 389.006 67.3036 389.006C69.0164 389.006 70.4002 388.642 70.4002 388.209C70.4002 387.776 69.0068 387.402 67.3036 387.402C65.6005 387.402 64.207 387.766 64.207 388.209Z" fill="#A188A5"/>
<path opacity="0.18" d="M323.088 413.138C329.902 413.138 335.426 411.711 335.426 409.95C335.426 408.19 329.902 406.763 323.088 406.763C316.274 406.763 310.75 408.19 310.75 409.95C310.75 411.711 316.274 413.138 323.088 413.138Z" fill="#A188A5"/>
<g style="mix-blend-mode:multiply">
<path d="M673.572 128.891H437.234C425.198 128.891 415.441 138.811 415.441 151.046V330.46C415.441 342.696 425.198 352.615 437.234 352.615H673.572C685.607 352.615 695.364 342.696 695.364 330.46V151.046C695.364 138.811 685.607 128.891 673.572 128.891Z" fill="#F3E1E6"/>
</g>
<path d="M670.275 122.792H428.382C417.88 122.792 409.367 131.447 409.367 142.123V327.184C409.367 337.861 417.88 346.516 428.382 346.516H670.275C680.776 346.516 689.29 337.861 689.29 327.184V142.123C689.29 131.447 680.776 122.792 670.275 122.792Z" fill="#F5F7FF"/>
<path opacity="0.42" d="M659.883 141.356H438.583C431.481 141.356 425.723 147.21 425.723 154.431V253.705C425.723 260.926 431.481 266.779 438.583 266.779H659.883C666.986 266.779 672.744 260.926 672.744 253.705V154.431C672.744 147.21 666.986 141.356 659.883 141.356Z" fill="#FF4A4A"/>
<path d="M438.593 266.779H659.883C661.573 266.779 663.246 266.441 664.807 265.783C666.368 265.126 667.786 264.162 668.981 262.947C670.175 261.731 671.122 260.289 671.768 258.702C672.413 257.114 672.745 255.413 672.744 253.695V248.097H425.723V253.695C425.721 255.414 426.053 257.116 426.7 258.704C427.346 260.292 428.294 261.735 429.489 262.95C430.685 264.165 432.104 265.129 433.666 265.786C435.228 266.443 436.902 266.781 438.593 266.779Z" fill="#FC9090"/>
<path opacity="0.43" d="M501.104 283.858H429.844V290.282H501.104V283.858Z" fill="#FF4A4A"/>
<path opacity="0.28" d="M669.946 300.966H429.844V306.485H669.946V300.966Z" fill="#FF4A4A"/>
<path opacity="0.28" d="M669.946 312.201H429.844V317.72H669.946V312.201Z" fill="#FF4A4A"/>
<path opacity="0.28" d="M669.946 323.436H429.844V328.955H669.946V323.436Z" fill="#FF4A4A"/>
<path d="M640.323 286.406C640.333 287.186 640.114 287.952 639.695 288.606C639.275 289.259 638.674 289.771 637.968 290.077C637.261 290.382 636.481 290.467 635.727 290.321C634.973 290.174 634.279 289.804 633.733 289.255C633.187 288.707 632.813 288.006 632.66 287.241C632.507 286.477 632.581 285.683 632.872 284.961C633.163 284.239 633.66 283.621 634.297 283.187C634.935 282.752 635.685 282.52 636.453 282.52C637.471 282.52 638.448 282.928 639.173 283.655C639.897 284.383 640.311 285.371 640.323 286.406Z" fill="#FF4A4A"/>
<path d="M654.977 286.406C654.977 287.172 654.754 287.922 654.336 288.56C653.918 289.198 653.324 289.696 652.628 289.991C651.932 290.287 651.166 290.367 650.426 290.221C649.686 290.075 649.005 289.709 648.469 289.171C647.932 288.632 647.564 287.944 647.411 287.194C647.259 286.443 647.327 285.664 647.609 284.953C647.891 284.242 648.374 283.632 648.996 283.199C649.618 282.766 650.352 282.53 651.106 282.52C652.124 282.52 653.102 282.928 653.826 283.655C654.551 284.383 654.964 285.371 654.977 286.406Z" fill="#FF4A4A"/>
<path d="M669.636 286.406C669.645 287.186 669.426 287.952 669.007 288.606C668.588 289.259 667.986 289.771 667.28 290.077C666.574 290.382 665.794 290.467 665.04 290.321C664.286 290.174 663.592 289.804 663.046 289.255C662.499 288.707 662.126 288.006 661.973 287.241C661.819 286.477 661.893 285.683 662.184 284.961C662.476 284.239 662.972 283.621 663.61 283.187C664.247 282.752 664.997 282.52 665.765 282.52C666.783 282.52 667.761 282.928 668.485 283.655C669.21 284.383 669.623 285.371 669.636 286.406Z" fill="#FF4A4A"/>
<path d="M541.73 261.083C542.906 261.083 543.859 260.114 543.859 258.919C543.859 257.724 542.906 256.755 541.73 256.755C540.555 256.755 539.602 257.724 539.602 258.919C539.602 260.114 540.555 261.083 541.73 261.083Z" fill="white"/>
<path d="M552.027 258.919C552.025 259.347 551.899 259.764 551.664 260.119C551.429 260.473 551.096 260.749 550.706 260.912C550.317 261.074 549.89 261.115 549.477 261.031C549.065 260.946 548.686 260.739 548.39 260.436C548.093 260.133 547.891 259.747 547.81 259.328C547.728 258.908 547.771 258.474 547.933 258.079C548.094 257.684 548.367 257.346 548.717 257.109C549.067 256.872 549.478 256.745 549.898 256.745C550.179 256.745 550.456 256.801 550.715 256.911C550.974 257.02 551.209 257.18 551.407 257.382C551.605 257.584 551.762 257.824 551.868 258.088C551.974 258.351 552.029 258.634 552.027 258.919Z" fill="white"/>
<path d="M558.074 261.083C559.25 261.083 560.203 260.114 560.203 258.919C560.203 257.724 559.25 256.755 558.074 256.755C556.898 256.755 555.945 257.724 555.945 258.919C555.945 260.114 556.898 261.083 558.074 261.083Z" fill="white"/>
<path d="M651.109 201.22H573.781V248.658H651.109V201.22Z" fill="#FF4A4A"/>
<path d="M652.846 203.384H573.902V188.539L652.846 199.823V203.384Z" fill="#A33E3E"/>
<path d="M652.846 199.823H573.902V203.394H652.846V199.823Z" fill="#C66060"/>
<path d="M463.446 248.658H540.773V201.22H463.446V248.658Z" fill="#FF4A4A"/>
<path d="M461.691 203.384H540.635V188.539L461.691 199.823V203.384Z" fill="#A33E3E"/>
<path d="M461.697 203.384H540.641V199.813H461.697V203.384Z" fill="#C66060"/>
<path d="M593.087 248.609H519.91V182.961L556.498 171.745L593.087 182.961V248.609Z" fill="#FFC5C5"/>
<g style="mix-blend-mode:multiply">
<path d="M651.096 245.412H463.559V248.609H651.096V245.412Z" fill="#FF9F9F"/>
</g>
<path d="M592.962 171.617H519.785V182.813H592.962V171.617Z" fill="#C66060"/>
<path d="M516.242 183.954L556.372 171.617L596.667 183.944L516.242 183.954Z" fill="#FFC5C5"/>
<path d="M516.242 183.954V180.304L530.032 176.202L528.619 180.117L516.242 183.954Z" fill="#C66060"/>
<path d="M596.666 183.944V180.599L590.309 178.219V181.996L596.666 183.944Z" fill="#C66060"/>
<path d="M547.48 171.745L556.673 168.883L565.876 171.745L560.718 172.946L556.374 171.617L549.426 173.752L547.48 171.745Z" fill="#C66060"/>
<path d="M548.024 248.333V223.394C547.985 222.193 548.184 220.996 548.609 219.874C549.034 218.753 549.677 217.73 550.499 216.866C551.321 216.002 552.306 215.315 553.394 214.846C554.483 214.377 555.653 214.135 556.835 214.135C558.017 214.135 559.188 214.377 560.276 214.846C561.365 215.315 562.349 216.002 563.171 216.866C563.993 217.73 564.636 218.753 565.061 219.874C565.486 220.996 565.685 222.193 565.646 223.394V248.333H548.024Z" fill="#A33E3E"/>
<path d="M556.827 217.167C557.631 217.167 558.427 217.328 559.171 217.641C559.914 217.954 560.589 218.413 561.158 218.991C561.727 219.569 562.178 220.256 562.486 221.011C562.794 221.767 562.952 222.577 562.952 223.394V248.333H550.691V223.394C550.691 222.577 550.85 221.767 551.158 221.011C551.466 220.256 551.917 219.569 552.485 218.991C553.054 218.413 553.73 217.954 554.473 217.641C555.216 217.328 556.012 217.167 556.817 217.167H556.827Z" fill="#BC5353"/>
<g style="mix-blend-mode:multiply" opacity="0.6">
<path d="M557.67 218.013C559.083 218.014 560.452 218.515 561.541 219.43C560.738 218.445 559.656 217.735 558.443 217.397C557.23 217.058 555.943 217.107 554.758 217.536C553.573 217.966 552.547 218.755 551.818 219.798C551.089 220.84 550.693 222.086 550.684 223.365V248.304H551.584V224.24C551.581 222.595 552.22 221.015 553.361 219.848C554.502 218.681 556.052 218.021 557.67 218.013Z" fill="#BC5353"/>
</g>
<path d="M539.891 216.163V194.166H526.691V216.163H539.891Z" fill="#FF7373"/>
<path d="M538.548 195.533H528.039V214.806H538.548V195.533Z" fill="white"/>
<path opacity="0.25" d="M538.558 197.432L528.039 203.994V195.533H538.558V197.432Z" fill="#FF9F9F"/>
<path d="M541.101 213.852H525.492V216.754H541.101V213.852Z" fill="#E6EAFF"/>
<path d="M539.641 200.079H527.574V201.21H539.641V200.079Z" fill="#FF7373"/>
<path d="M539.641 212.72H527.574V213.852H539.641V212.72Z" fill="#FF7373"/>
<path d="M533.911 194.746H532.691V213.842H533.911V194.746Z" fill="#FF7373"/>
<path opacity="0.34" d="M541.101 215.524H525.492V216.813H541.101V215.524Z" fill="#FF9F9F"/>
<path d="M586.465 216.173V194.176H573.266V216.173H586.465Z" fill="#FF7373"/>
<path d="M585.134 195.533H574.625V214.806H585.134V195.533Z" fill="white"/>
<path opacity="0.25" d="M585.134 197.432L574.625 203.994V195.533H585.134V197.432Z" fill="#FF9F9F"/>
<path d="M587.679 213.852H572.07V216.754H587.679V213.852Z" fill="#E6EAFF"/>
<path d="M586.227 200.079H574.16V201.21H586.227V200.079Z" fill="#FF7373"/>
<path d="M586.227 212.72H574.16V213.852H586.227V212.72Z" fill="#FF7373"/>
<path d="M580.485 194.746H579.266V213.842H580.485V194.746Z" fill="#FF7373"/>
<path opacity="0.34" d="M587.679 215.524H572.07V216.813H587.679V215.524Z" fill="#FF9F9F"/>
<path d="M560.824 230.074C560.824 230.292 560.76 230.505 560.641 230.686C560.522 230.868 560.353 231.009 560.155 231.092C559.957 231.176 559.739 231.197 559.529 231.155C559.318 231.112 559.125 231.007 558.974 230.853C558.822 230.699 558.719 230.503 558.677 230.289C558.635 230.075 558.657 229.854 558.739 229.653C558.821 229.451 558.96 229.279 559.138 229.158C559.316 229.037 559.526 228.972 559.74 228.972C560.027 228.972 560.303 229.089 560.506 229.295C560.71 229.502 560.824 229.782 560.824 230.074Z" fill="#FF9F9F"/>
<path d="M565.645 245.412H548.023V248.609H565.645V245.412Z" fill="#E6EAFF"/>
<path d="M562.95 242.46H550.699V245.412H562.95V242.46Z" fill="#FFAEAE"/>
<g style="mix-blend-mode:multiply" opacity="0.34">
<path d="M519.785 179.242L547.887 171.617H519.785V179.242Z" fill="#FF9F9F"/>
</g>
<g style="mix-blend-mode:multiply" opacity="0.34">
<path d="M565.875 171.745L592.961 179.202V171.617L565.875 171.745Z" fill="#FF9F9F"/>
</g>
<path opacity="0.34" d="M519.912 183.954L556.5 173.201L593.088 184.2V184.564H519.863L519.912 183.954Z" fill="#FF9F9F"/>
<path d="M479.312 231.422V216.596H470.516V231.422H479.312Z" fill="#FF7373"/>
<path d="M478.223 217.59H471.613V229.435H478.223V217.59Z" fill="white"/>
<path d="M478.863 222.519H470.918V223.099H478.863V222.519Z" fill="#FF7373"/>
<path d="M474.049 217.157H473.449V222.971H474.049V217.157Z" fill="#FF7373"/>
<path d="M476.584 217.157H475.984V222.971H476.584V217.157Z" fill="#FF7373"/>
<path d="M480.328 231.452H469.5V233.252H480.328V231.452Z" fill="#E6EAFF"/>
<path opacity="0.34" d="M480.328 232.485H469.5V233.281H480.328V232.485Z" fill="#FF9F9F"/>
<path d="M495.508 231.422V216.596H486.712V231.422H495.508Z" fill="#FF7373"/>
<path d="M494.41 217.59H487.801V229.435H494.41V217.59Z" fill="white"/>
<path d="M495.05 222.519H487.105V223.099H495.05V222.519Z" fill="#FF7373"/>
<path d="M490.245 217.157H489.645V222.971H490.245V217.157Z" fill="#FF7373"/>
<path d="M492.772 217.157H492.172V222.971H492.772V217.157Z" fill="#FF7373"/>
<path d="M496.524 231.452H485.695V233.252H496.524V231.452Z" fill="#E6EAFF"/>
<path opacity="0.34" d="M496.524 232.485H485.695V233.281H496.524V232.485Z" fill="#FF9F9F"/>
<path d="M511.695 231.422V216.596H502.899V231.422H511.695Z" fill="#FF7373"/>
<path d="M510.598 217.59H503.988V229.435H510.598V217.59Z" fill="white"/>
<path d="M511.238 222.519H503.293V223.099H511.238V222.519Z" fill="#FF7373"/>
<path d="M506.432 217.157H505.832V222.971H506.432V217.157Z" fill="#FF7373"/>
<path d="M508.967 217.157H508.367V222.971H508.967V217.157Z" fill="#FF7373"/>
<path d="M512.711 231.452H501.883V233.252H512.711V231.452Z" fill="#E6EAFF"/>
<path opacity="0.34" d="M512.711 232.485H501.883V233.281H512.711V232.485Z" fill="#FF9F9F"/>
<path d="M609.832 231.422V216.596H601.036V231.422H609.832Z" fill="#FF7373"/>
<path d="M608.746 217.59H602.137V229.435H608.746V217.59Z" fill="white"/>
<path d="M609.382 222.519H601.438V223.099H609.382V222.519Z" fill="#FF7373"/>
<path d="M604.569 217.157H603.969V222.971H604.569V217.157Z" fill="#FF7373"/>
<path d="M607.096 217.157H606.496V222.971H607.096V217.157Z" fill="#FF7373"/>
<path d="M610.852 231.452H600.023V233.252H610.852V231.452Z" fill="#E6EAFF"/>
<path opacity="0.34" d="M610.852 232.485H600.023V233.281H610.852V232.485Z" fill="#FF9F9F"/>
<path d="M626.027 231.422V216.596H617.231V231.422H626.027Z" fill="#FF7373"/>
<path d="M624.933 217.59H618.324V229.435H624.933V217.59Z" fill="white"/>
<path d="M625.57 222.519H617.625V223.099H625.57V222.519Z" fill="#FF7373"/>
<path d="M620.764 217.157H620.164V222.971H620.764V217.157Z" fill="#FF7373"/>
<path d="M623.287 217.157H622.688V222.971H623.287V217.157Z" fill="#FF7373"/>
<path d="M627.043 231.452H616.215V233.252H627.043V231.452Z" fill="#E6EAFF"/>
<path opacity="0.34" d="M627.043 232.485H616.215V233.281H627.043V232.485Z" fill="#FF9F9F"/>
<path d="M642.215 231.422V216.596H633.419V231.422H642.215Z" fill="#FF7373"/>
<path d="M641.121 217.59H634.512V229.435H641.121V217.59Z" fill="white"/>
<path d="M641.757 222.519H633.812V223.099H641.757V222.519Z" fill="#FF7373"/>
<path d="M636.952 217.157H636.352V222.971H636.952V217.157Z" fill="#FF7373"/>
<path d="M639.479 217.157H638.879V222.971H639.479V217.157Z" fill="#FF7373"/>
<path d="M643.231 231.452H632.402V233.252H643.231V231.452Z" fill="#E6EAFF"/>
<path opacity="0.34" d="M643.231 232.485H632.402V233.281H643.231V232.485Z" fill="#FF9F9F"/>
<g style="mix-blend-mode:multiply">
<path d="M204.59 106.904H74.552C61.3353 106.904 50.6211 117.796 50.6211 131.233V328.286C50.6211 341.723 61.3353 352.615 74.552 352.615H204.59C217.806 352.615 228.52 341.723 228.52 328.286V131.233C228.52 117.796 217.806 106.904 204.59 106.904Z" fill="#F3E1E6"/>
</g>
<path d="M200.97 100.204H64.8358C53.3026 100.204 43.9531 109.709 43.9531 121.434V324.685C43.9531 336.41 53.3026 345.916 64.8358 345.916H200.97C212.503 345.916 221.853 336.41 221.853 324.685V121.434C221.853 109.709 212.503 100.204 200.97 100.204Z" fill="#F5F7FF"/>
<path opacity="0.42" d="M189.552 120.598H76.0423C68.2395 120.598 61.9141 127.029 61.9141 134.961V243.975C61.9141 251.908 68.2395 258.339 76.0423 258.339H189.552C197.355 258.339 203.68 251.908 203.68 243.975V134.961C203.68 127.029 197.355 120.598 189.552 120.598Z" fill="#FF4A4A"/>
<path d="M76.0386 258.339H189.558C193.305 258.339 196.898 256.825 199.548 254.132C202.198 251.438 203.686 247.785 203.686 243.975V237.827H61.9297V243.995C61.9348 247.797 63.4229 251.443 66.0677 254.132C68.7126 256.82 72.2982 258.333 76.0386 258.339Z" fill="#FF4A4A"/>
<path opacity="0.43" d="M144.069 275.624H65.8125V282.678H144.069V275.624Z" fill="#FF4A4A"/>
<path opacity="0.28" d="M199.982 294.414H65.8125V300.474H199.982V294.414Z" fill="#FF4A4A"/>
<path opacity="0.28" d="M199.982 306.751H65.8125V312.811H199.982V306.751Z" fill="#FF4A4A"/>
<path opacity="0.28" d="M199.982 319.088H65.8125V325.148H199.982V319.088Z" fill="#FF4A4A"/>
<path d="M163.247 282.687C165.566 282.687 167.446 280.776 167.446 278.418C167.446 276.06 165.566 274.148 163.247 274.148C160.927 274.148 159.047 276.06 159.047 278.418C159.047 280.776 160.927 282.687 163.247 282.687Z" fill="#FF4A4A"/>
<path d="M179.344 282.687C181.664 282.687 183.544 280.776 183.544 278.418C183.544 276.06 181.664 274.148 179.344 274.148C177.025 274.148 175.145 276.06 175.145 278.418C175.145 280.776 177.025 282.687 179.344 282.687Z" fill="#FF4A4A"/>
<path d="M195.442 282.687C197.761 282.687 199.642 280.776 199.642 278.418C199.642 276.06 197.761 274.148 195.442 274.148C193.123 274.148 191.242 276.06 191.242 278.418C191.242 280.776 193.123 282.687 195.442 282.687Z" fill="#FF4A4A"/>
<path d="M109.426 128.685H100.078V146.511H109.426V128.685Z" fill="#9E3E3E"/>
<path d="M173.241 141.13H92.6719V160.038H173.241V141.13Z" fill="#842C2C"/>
<path d="M173.241 245.382H92.6719V159.153L132.492 139.103L173.241 159.153V245.382Z" fill="#FFC5C5"/>
<path opacity="0.32" d="M173.241 238.81H92.6719V245.382H173.241V238.81Z" fill="#FF9F9F"/>
<path d="M149.674 208.667H117.324V244.251H149.674V208.667Z" fill="#BC5353"/>
<path d="M147.234 211.392H120.168V245.382H147.234V211.392Z" fill="#A33E3E"/>
<path d="M147.139 237.305H120.18V241.339H147.139V237.305Z" fill="#FFAEAE"/>
<path d="M144.989 213.576H122.723V218.515H144.989V213.576Z" fill="#842C2C"/>
<path d="M144.989 219.941H122.723V237.315H144.989V219.941Z" fill="#842C2C"/>
<path d="M131.064 227.182C131.064 227.377 131.008 227.567 130.901 227.728C130.795 227.89 130.644 228.016 130.467 228.091C130.29 228.165 130.096 228.185 129.908 228.147C129.72 228.109 129.548 228.015 129.412 227.878C129.277 227.74 129.185 227.565 129.148 227.374C129.11 227.183 129.129 226.985 129.203 226.805C129.276 226.626 129.4 226.472 129.559 226.364C129.718 226.256 129.905 226.198 130.097 226.198C130.353 226.198 130.599 226.302 130.781 226.486C130.962 226.671 131.064 226.921 131.064 227.182Z" fill="#FFAEAE"/>
<path d="M137.51 227.182C137.51 227.377 137.453 227.567 137.347 227.728C137.24 227.89 137.089 228.016 136.912 228.091C136.735 228.165 136.541 228.185 136.353 228.147C136.165 228.109 135.993 228.015 135.858 227.878C135.722 227.74 135.63 227.565 135.593 227.374C135.555 227.183 135.575 226.985 135.648 226.805C135.721 226.626 135.845 226.472 136.004 226.364C136.163 226.256 136.351 226.198 136.542 226.198C136.799 226.198 137.045 226.302 137.226 226.486C137.408 226.671 137.51 226.921 137.51 227.182Z" fill="#FFAEAE"/>
<path d="M89.5117 163.836L89.8214 157.028L132.477 136.024L176.526 156.743L175.965 163.57L132.506 142.182L89.5117 163.836Z" fill="#9E3E3E"/>
<path d="M134.173 212.887H132.789V237.305H134.173V212.887Z" fill="#A33E3E"/>
<path d="M104.133 191.854V178.238C104.133 175.937 105.032 173.73 106.633 172.103C108.233 170.476 110.404 169.561 112.668 169.561C114.931 169.561 117.102 170.476 118.703 172.103C120.304 173.73 121.203 175.937 121.203 178.238V191.854H104.133Z" fill="#FF9F9F"/>
<path d="M119.423 190.073H105.875V178.268C105.875 176.441 106.589 174.69 107.859 173.398C109.129 172.107 110.852 171.381 112.649 171.381C114.445 171.381 116.168 172.107 117.439 173.398C118.709 174.69 119.423 176.441 119.423 178.268V190.073Z" fill="white"/>
<path d="M120.598 181.78V179.911H104.757V181.78H120.598Z" fill="#FF9F9F"/>
<path d="M113.469 170.407H111.621V180.727H113.469V170.407Z" fill="#FF9F9F"/>
<path d="M123.025 191.884H102.316V195.74H123.025V191.884Z" fill="#E6EAFF"/>
<path opacity="0.34" d="M123.025 194.117H102.316V195.828H123.025V194.117Z" fill="#FF9F9F"/>
<path d="M147.681 191.854V178.238C147.642 177.074 147.834 175.913 148.246 174.825C148.658 173.738 149.281 172.746 150.078 171.908C150.874 171.07 151.829 170.404 152.884 169.949C153.94 169.494 155.074 169.259 156.22 169.259C157.367 169.259 158.501 169.494 159.557 169.949C160.612 170.404 161.566 171.07 162.363 171.908C163.16 172.746 163.783 173.738 164.195 174.825C164.607 175.913 164.799 177.074 164.76 178.238V191.854H147.681Z" fill="#FF9F9F"/>
<path d="M162.981 190.073H149.434V178.268C149.434 176.441 150.147 174.69 151.418 173.398C152.688 172.107 154.411 171.381 156.207 171.381C158.004 171.381 159.727 172.107 160.997 173.398C162.268 174.69 162.981 176.441 162.981 178.268V190.073Z" fill="white"/>
<path d="M164.152 181.78V179.911H148.311V181.78H164.152Z" fill="#FF9F9F"/>
<path d="M157.024 170.407H155.176V180.727H157.024V170.407Z" fill="#FF9F9F"/>
<path d="M166.58 191.884H145.871V195.74H166.58V191.884Z" fill="#E6EAFF"/>
<path opacity="0.34" d="M166.58 194.117H145.871V195.828H166.58V194.117Z" fill="#FF9F9F"/>
<path d="M149.671 240.62H116.73V245.382H149.671V240.62Z" fill="#E6EAFF"/>
<g style="mix-blend-mode:multiply">
<path d="M456.227 32.9916H272.618C259.402 32.9916 248.688 43.8841 248.688 57.3207V254.374C248.688 267.81 259.402 278.703 272.618 278.703H456.227C469.444 278.703 480.158 267.81 480.158 254.374V57.3207C480.158 43.8841 469.444 32.9916 456.227 32.9916Z" fill="#F3E1E6"/>
</g>
<path d="M452.607 26.292H262.902C251.369 26.292 242.02 35.7971 242.02 47.5222V250.773C242.02 262.498 251.369 272.003 262.902 272.003H452.607C464.141 272.003 473.49 262.498 473.49 250.773V47.5222C473.49 35.7971 464.141 26.292 452.607 26.292Z" fill="white"/>
<path opacity="0.42" d="M441.185 46.6761H274.105C266.302 46.6761 259.977 53.1068 259.977 61.0394V170.053C259.977 177.986 266.302 184.417 274.105 184.417H441.185C448.988 184.417 455.314 177.986 455.314 170.053V61.0394C455.314 53.1068 448.988 46.6761 441.185 46.6761Z" fill="#EFAFAF"/>
<path d="M274.105 184.426H441.185C443.041 184.426 444.878 184.055 446.592 183.333C448.306 182.611 449.864 181.553 451.176 180.219C452.488 178.886 453.528 177.302 454.238 175.56C454.948 173.817 455.314 171.949 455.314 170.063V163.914H259.977V170.063C259.977 173.872 261.465 177.526 264.115 180.219C266.764 182.913 270.358 184.426 274.105 184.426Z" fill="#FC9090"/>
<path d="M435.808 158.267C435.705 157.331 435.359 156.44 434.806 155.684C434.252 154.929 433.511 154.336 432.659 153.968C431.806 153.599 430.872 153.468 429.953 153.587C429.034 153.707 428.162 154.073 427.428 154.647C427.459 154.373 427.475 154.097 427.476 153.821C427.467 152.552 427.134 151.308 426.509 150.21C426.8 149.298 426.95 148.346 426.954 147.387C426.954 145.005 426.023 142.72 424.366 141.035C422.709 139.351 420.462 138.405 418.119 138.405C415.776 138.405 413.528 139.351 411.872 141.035C410.215 142.72 409.284 145.005 409.284 147.387C408.198 147.388 407.126 147.638 406.147 148.117C405.168 148.595 404.308 149.292 403.629 150.154C402.95 151.016 402.47 152.021 402.224 153.097C401.979 154.173 401.974 155.291 402.21 156.369H402.036C401.137 156.366 400.253 156.601 399.469 157.049C398.686 157.497 398.03 158.144 397.565 158.927C397.277 158.884 396.986 158.861 396.694 158.858C395.308 158.858 393.979 159.417 392.999 160.414C392.019 161.41 391.469 162.761 391.469 164.17H440.995C440.995 163.973 440.995 163.777 440.995 163.58C440.995 162.178 440.45 160.832 439.478 159.837C438.507 158.842 437.187 158.278 435.808 158.267Z" fill="#BC5353"/>
<path d="M280.281 156.802C280.404 155.772 280.791 154.793 281.404 153.964C282.017 153.134 282.834 152.484 283.773 152.078C284.712 151.672 285.74 151.525 286.753 151.651C287.765 151.777 288.728 152.173 289.542 152.798C289.507 152.494 289.491 152.188 289.494 151.883C289.49 150.483 289.843 149.107 290.519 147.888C290.076 146.524 289.929 145.078 290.089 143.65C290.248 142.223 290.711 140.847 291.445 139.619C292.179 138.391 293.166 137.34 294.338 136.537C295.511 135.735 296.841 135.201 298.236 134.972C299.632 134.744 301.059 134.826 302.421 135.213C303.782 135.6 305.044 136.283 306.12 137.215C307.196 138.146 308.061 139.304 308.653 140.609C309.246 141.913 309.554 143.333 309.554 144.77C311.679 144.77 313.717 145.628 315.22 147.156C316.722 148.683 317.566 150.755 317.566 152.916C317.566 153.518 317.501 154.118 317.373 154.706H317.566C318.56 154.709 319.537 154.97 320.403 155.467C321.268 155.963 321.994 156.676 322.511 157.539C322.831 157.487 323.155 157.461 323.479 157.461C325.019 157.461 326.496 158.083 327.584 159.19C328.673 160.297 329.285 161.798 329.285 163.363H274.543C274.543 163.147 274.543 162.931 274.543 162.714C274.54 161.159 275.142 159.665 276.216 158.558C277.291 157.451 278.752 156.82 280.281 156.802Z" fill="#BC5353"/>
<path d="M422.548 95.9247H300.059V163.885H422.548V95.9247Z" fill="#FC9090"/>
<g style="mix-blend-mode:multiply" opacity="0.32">
<path d="M422.542 156.792H299.965V163.806H422.542V156.792Z" fill="#FF9F9F"/>
</g>
<path d="M342.222 54.694H331.297V79.1904H342.222V54.694Z" fill="#9E3E3E"/>
<path d="M429.369 96.2198H293.312L300.628 83.6765H422.053L429.369 96.2198Z" fill="#9E3E3E"/>
<path d="M404.299 71.8808H318.32V163.885H404.299V71.8808Z" fill="#FFC5C5"/>
<path d="M411.606 84.4143H310.996L318.321 71.8808H404.291L411.606 84.4143Z" fill="#BC5353"/>
<path d="M343.77 120.637V97.1151H331.296V120.637H343.77Z" fill="#FF9F9F"/>
<path d="M342.225 98.6891H332.848V117.479H342.225V98.6891Z" fill="white"/>
<path d="M343.131 106.52H331.867V107.435H343.131V106.52Z" fill="#FF9F9F"/>
<path d="M336.309 98.0201H335.457V107.238H336.309V98.0201Z" fill="#FF9F9F"/>
<path d="M339.898 98.0201H339.047V107.238H339.898V98.0201Z" fill="#FF9F9F"/>
<path d="M345.203 120.677H329.855V123.53H345.203V120.677Z" fill="#E6EAFF"/>
<path opacity="0.34" d="M345.203 122.33H329.855V123.599H345.203V122.33Z" fill="#FF9F9F"/>
<path d="M390.133 120.637V97.1151H377.659V120.637H390.133Z" fill="#FF9F9F"/>
<path d="M388.588 98.6891H379.211V117.479H388.588V98.6891Z" fill="white"/>
<path d="M389.49 106.52H378.227V107.435H389.49V106.52Z" fill="#FF9F9F"/>
<path d="M382.672 98.0201H381.82V107.238H382.672V98.0201Z" fill="#FF9F9F"/>
<path d="M386.262 98.0201H385.41V107.238H386.262V98.0201Z" fill="#FF9F9F"/>
<path d="M391.566 120.677H376.219V123.53H391.566V120.677Z" fill="#E6EAFF"/>
<path opacity="0.34" d="M391.566 122.33H376.219V123.599H391.566V122.33Z" fill="#FF9F9F"/>
<path d="M392.184 92.7962H328.539V97.115H392.184V92.7962Z" fill="#E6EAFF"/>
<path d="M354 120.756V102.969C354 101.133 354.717 99.3727 355.994 98.0747C357.271 96.7768 359.002 96.0476 360.808 96.0476C362.613 96.0476 364.345 96.7768 365.621 98.0747C366.898 99.3727 367.615 101.133 367.615 102.969V120.756H354Z" fill="#FF9F9F"/>
<path d="M366.19 119.309H355.41V102.969C355.413 101.516 355.981 100.124 356.992 99.0967C358.002 98.0696 359.371 97.4915 360.8 97.4889C362.23 97.4889 363.601 98.0662 364.611 99.0938C365.622 100.121 366.19 101.515 366.19 102.969V119.309Z" fill="white"/>
<path d="M367.117 105.399V104.307H354.489V105.399H367.117Z" fill="#FF9F9F"/>
<path d="M361.451 96.7215H360.406V104.946H361.451V96.7215Z" fill="#FF9F9F"/>
<path d="M368.39 120.677H353.043V123.53H368.39V120.677Z" fill="#E6EAFF"/>
<path opacity="0.34" d="M368.39 122.33H353.043V123.599H368.39V122.33Z" fill="#FF9F9F"/>
<path d="M355.141 100.834H366.23C366.013 99.7048 365.425 98.684 364.565 97.9374C363.704 97.1907 362.62 96.7622 361.489 96.7215C357.386 96.5543 355.141 100.834 355.141 100.834Z" fill="#FF9F9F"/>
<path opacity="0.32" d="M404.299 156.87H318.32V163.885H404.299V156.87Z" fill="#FF9F9F"/>
<path d="M370.401 132.148H350.844V163.885H370.401V132.148Z" fill="#BC5353"/>
<path d="M368.39 134.361H353.043V163.885H368.39V134.361Z" fill="#A33E3E"/>
<path d="M372.625 160.383H348.801V163.885H372.625V160.383Z" fill="#E6EAFF"/>
<path d="M368.34 156.87H353.051V160.373H368.34V156.87Z" fill="#FFAEAE"/>
<path d="M367.12 136.26H354.492V140.549H367.12V136.26Z" fill="#BC5353"/>
<path d="M367.12 141.779H354.492V155.552H367.12V141.779Z" fill="#BC5353"/>
<path d="M364.924 146.914C365.624 146.914 366.192 146.337 366.192 145.626C366.192 144.914 365.624 144.337 364.924 144.337C364.224 144.337 363.656 144.914 363.656 145.626C363.656 146.337 364.224 146.914 364.924 146.914Z" fill="#E6EAFF"/>
<path d="M313.801 134.253V118.326H305.353V134.253H313.801Z" fill="#D85555"/>
<path d="M312.743 119.388H306.395V132.108H312.743V119.388Z" fill="white"/>
<path d="M313.364 124.691H305.738V125.31H313.364V124.691Z" fill="#D85555"/>
<path d="M308.752 118.936H308.172V125.173H308.752V118.936Z" fill="#D85555"/>
<path d="M311.182 118.936H310.602V125.173H311.182V118.936Z" fill="#D85555"/>
<path d="M314.768 134.283H304.375V136.221H314.768V134.283Z" fill="#E6EAFF"/>
<path opacity="0.34" d="M314.768 135.394H304.375V136.25H314.768V135.394Z" fill="#FF9F9F"/>
<path d="M417.762 134.243V118.316H409.314V134.243H417.762Z" fill="#D85555"/>
<path d="M416.715 119.388H410.367V132.108H416.715V119.388Z" fill="white"/>
<path d="M417.325 124.691H409.699V125.31H417.325V124.691Z" fill="#D85555"/>
<path d="M412.709 118.936H412.129V125.173H412.709V118.936Z" fill="#D85555"/>
<path d="M415.147 118.936H414.566V125.173H415.147V118.936Z" fill="#D85555"/>
<path d="M418.737 134.283H408.344V136.221H418.737V134.283Z" fill="#E6EAFF"/>
<path opacity="0.34" d="M418.737 135.394H408.344V136.25H418.737V135.394Z" fill="#FF9F9F"/>
<path d="M275.229 160.146C276.686 160.147 278.113 160.571 279.342 161.366C279.826 160.155 280.56 159.063 281.495 158.164C282.43 157.265 283.543 156.581 284.76 156.156C285.977 155.732 287.269 155.578 288.55 155.705C289.83 155.831 291.069 156.236 292.183 156.89C292.926 153.763 294.722 151 297.259 149.079C299.797 147.157 302.916 146.199 306.075 146.371C309.234 146.543 312.235 147.833 314.556 150.019C316.878 152.204 318.374 155.147 318.784 158.336C319.146 158.28 319.512 158.254 319.878 158.258C321.54 158.263 323.157 158.812 324.488 159.824C325.819 160.835 326.795 162.256 327.271 163.875H268.668C269.36 162.738 270.326 161.799 271.473 161.147C272.621 160.495 273.914 160.15 275.229 160.146Z" fill="#FF6060"/>
<path d="M438.953 161.288C437.661 161.284 436.396 161.656 435.305 162.36C434.877 161.29 434.228 160.326 433.402 159.533C432.576 158.74 431.592 158.136 430.517 157.763C429.442 157.39 428.3 157.256 427.17 157.37C426.039 157.484 424.946 157.844 423.964 158.425C423.302 155.668 421.714 153.232 419.474 151.54C417.233 149.847 414.482 149.004 411.694 149.156C408.907 149.307 406.259 150.445 404.209 152.371C402.16 154.297 400.836 156.891 400.468 159.704C400.148 159.656 399.824 159.633 399.501 159.635C398.035 159.626 396.606 160.101 395.428 160.988C394.251 161.875 393.387 163.126 392.969 164.554H444.75C444.14 163.55 443.286 162.723 442.271 162.151C441.256 161.579 440.114 161.282 438.953 161.288Z" fill="#FF6060"/>
<path opacity="0.43" d="M342.765 203.187H264.508V210.241H342.765V203.187Z" fill="#FF4A4A"/>
<path opacity="0.28" d="M452.249 221.968H264.508V228.028H452.249V221.968Z" fill="#FF4A4A"/>
<path opacity="0.28" d="M452.249 234.314H264.508V240.375H452.249V234.314Z" fill="#FF4A4A"/>
<path opacity="0.28" d="M452.249 246.651H264.508V252.711H452.249V246.651Z" fill="#FF4A4A"/>
<path d="M415.504 210.251C417.824 210.251 419.704 208.339 419.704 205.981C419.704 203.623 417.824 201.712 415.504 201.712C413.185 201.712 411.305 203.623 411.305 205.981C411.305 208.339 413.185 210.251 415.504 210.251Z" fill="#FF4A4A"/>
<path d="M431.606 210.251C433.925 210.251 435.806 208.339 435.806 205.981C435.806 203.623 433.925 201.712 431.606 201.712C429.287 201.712 427.406 203.623 427.406 205.981C427.406 208.339 429.287 210.251 431.606 210.251Z" fill="#FF4A4A"/>
<path d="M447.704 210.251C450.023 210.251 451.903 208.339 451.903 205.981C451.903 203.623 450.023 201.712 447.704 201.712C445.384 201.712 443.504 203.623 443.504 205.981C443.504 208.339 445.384 210.251 447.704 210.251Z" fill="#FF4A4A"/>
<path d="M353.586 175.789C353.586 176.26 353.449 176.72 353.191 177.111C352.934 177.503 352.568 177.808 352.14 177.988C351.712 178.168 351.242 178.216 350.787 178.124C350.333 178.032 349.916 177.805 349.588 177.472C349.261 177.139 349.038 176.715 348.947 176.253C348.857 175.791 348.903 175.313 349.081 174.878C349.258 174.443 349.558 174.071 349.943 173.809C350.328 173.548 350.781 173.408 351.244 173.408C351.865 173.408 352.461 173.659 352.9 174.105C353.339 174.552 353.586 175.157 353.586 175.789Z" fill="white"/>
<path d="M362.566 175.789C362.566 176.26 362.429 176.72 362.172 177.111C361.914 177.503 361.549 177.808 361.121 177.988C360.693 178.168 360.222 178.216 359.768 178.124C359.313 178.032 358.896 177.805 358.569 177.472C358.241 177.139 358.018 176.715 357.928 176.253C357.837 175.791 357.884 175.313 358.061 174.878C358.238 174.443 358.538 174.071 358.924 173.809C359.309 173.548 359.761 173.408 360.225 173.408C360.846 173.408 361.441 173.659 361.881 174.105C362.32 174.552 362.566 175.157 362.566 175.789Z" fill="white"/>
<path d="M371.59 175.789C371.59 176.26 371.453 176.72 371.195 177.111C370.938 177.503 370.572 177.808 370.144 177.988C369.716 178.168 369.245 178.216 368.791 178.124C368.337 178.032 367.92 177.805 367.592 177.472C367.265 177.139 367.042 176.715 366.951 176.253C366.861 175.791 366.907 175.313 367.084 174.878C367.262 174.443 367.562 174.071 367.947 173.809C368.332 173.548 368.785 173.408 369.248 173.408C369.869 173.408 370.465 173.659 370.904 174.105C371.343 174.552 371.59 175.157 371.59 175.789Z" fill="white"/>
<g opacity="0.74">
<path opacity="0.55" d="M343.32 87.6112C346.103 76.0143 339.112 64.3197 327.705 61.4905C316.297 58.6614 304.794 65.769 302.011 77.3659C299.229 88.9628 306.22 100.657 317.627 103.487C329.034 106.316 340.537 99.2081 343.32 87.6112Z" fill="white"/>
<path opacity="0.55" d="M335.79 85.7358C337.555 78.3605 333.104 70.9274 325.85 69.1336C318.595 67.3397 311.284 71.8645 309.519 79.2398C307.755 86.6151 312.205 94.0482 319.46 95.842C326.714 97.6359 334.026 93.1112 335.79 85.7358Z" fill="white"/>
<path opacity="0.55" d="M328.816 88.7373C332.206 85.291 332.206 79.7036 328.816 76.2574C325.426 72.8112 319.93 72.8112 316.54 76.2574C313.15 79.7036 313.15 85.291 316.54 88.7373C319.93 92.1835 325.426 92.1835 328.816 88.7373Z" fill="white"/>
</g>
<path d="M190.183 424.028C190.183 424.028 178.842 426.311 186.313 430.767C193.783 435.224 192.119 436.67 201.563 436.041C211.008 435.411 235.597 434.398 246.077 437.683C256.557 440.969 255.212 443.675 264.947 444.285C274.682 444.895 298.438 442.848 301.477 439.956C304.515 437.064 266.689 433.837 260.95 434.211C255.212 434.585 224.304 431.899 211.24 424.028C198.176 416.158 190.183 424.028 190.183 424.028Z" fill="#A188A5"/>
<path d="M305.478 101.739C305.426 100.011 305.772 98.2952 306.488 96.7274C307.203 95.1595 308.269 93.7831 309.6 92.7076C314.274 88.5856 315.696 88.5954 314.777 91.3303C313.858 94.0653 305.478 101.739 305.478 101.739Z" fill="#D89273"/>
<path d="M182.583 130.534L154.22 173.9C152.543 176.475 151.766 179.547 152.014 182.625C152.261 185.703 153.519 188.606 155.585 190.87L183.793 221.683L196.005 205.381L176.254 181.77L199.943 149.177L182.583 130.534Z" fill="#992C2C"/>
<path d="M214.448 71.5365C216.819 73.6123 224.512 77.272 225.944 89.4611C227.376 101.65 226.418 111.105 214.941 110.898L218.696 126.924L193.004 119.054L195.568 82.5451L214.448 71.5365Z" fill="#E3A382"/>
<path d="M301.757 105.959C302.231 105.428 320.346 81.3646 322.659 80.3808C324.972 79.397 326.733 81.6105 322.446 88.497L321.479 90.258C321.479 90.258 325.272 91.3697 324.169 94.8031C324.169 94.8031 327.004 96.3378 326.104 98.207C326.104 98.207 330.052 100.175 328.233 103.126C326.414 106.077 325.388 109.619 322.427 109.029C322.427 109.029 318.692 115.492 311.589 116.102L297.954 131.508C297.954 131.508 287.813 119.29 288.277 119.152C288.742 119.014 301.757 105.959 301.757 105.959Z" fill="#E3A382"/>
<path d="M206.282 412.223C206.446 412.803 209.088 420.792 208.808 423.438C208.527 426.085 194.215 419.11 194.215 419.11L206.282 412.223Z" fill="#E3A382"/>
<path d="M192.299 408.003C192.163 409.134 189.957 421.608 188.428 424.294C186.899 426.98 189.695 427.885 194.979 428.151C200.263 428.416 207.878 428.593 210.936 426.055C213.994 423.517 205.953 422.474 204.375 417.201C202.798 411.928 192.299 408.003 192.299 408.003Z" fill="#772222"/>
<path d="M262.875 429.459C263.475 429.892 268.507 431.112 271.39 435.972C274.274 440.832 280.467 442.268 290.512 441.353C300.556 440.438 272.745 420.516 272.745 420.516L257.727 419.965L262.875 429.459Z" fill="#772222"/>
<path d="M224.137 272.23L235.555 315.516L232.807 319.383C231.551 321.148 230.728 323.193 230.404 325.347C230.081 327.501 230.268 329.703 230.949 331.769L256.574 409.37L271.215 409.901L250.255 268.088L224.137 272.23Z" fill="#E3A382"/>
<path d="M214.585 271.541L205.15 407.521L193.025 404.884L182.603 320.642C182.452 317.785 183.113 314.945 184.508 312.46C185.904 309.975 187.974 307.952 190.471 306.633L188.835 261.851L214.585 271.541Z" fill="#E3A382"/>
<path d="M256.574 409.4C256.574 409.4 248.329 409.498 251.368 421.392C254.406 433.286 256.574 441.009 256.574 441.009L265.912 441.353L265.409 426.862C265.409 426.862 270.925 426.035 276.944 434.102C282.963 442.17 287.453 441.51 295.804 441.196C297.906 441.188 299.985 440.753 301.92 439.917C302.288 439.731 302.593 439.439 302.797 439.076C303.002 438.714 303.095 438.298 303.066 437.881C303.037 437.465 302.887 437.066 302.634 436.737C302.382 436.407 302.039 436.161 301.649 436.031C298.446 434.968 293.375 432.43 287.985 426.35C282.811 420.454 277.205 414.965 271.215 409.931L256.574 409.4Z" fill="#992C2C"/>
<path d="M275.65 417.526C280.943 424.54 287.146 432.617 292.982 431.584C293.127 431.561 293.27 431.522 293.407 431.466C291.45 429.934 289.636 428.222 287.988 426.35C282.713 420.363 277.038 414.752 271.005 409.557H260.941C260.941 409.557 270.347 410.511 275.65 417.526Z" fill="#E3A382"/>
<path d="M186.274 409.39C186.196 408.406 187.193 403.418 191.48 401.864C195.767 400.309 207.776 400.742 209.575 409.488C211.375 418.234 203.034 418.519 201.263 432.765C201.263 432.765 196.425 436.021 191.664 433.06C191.664 433.06 190.696 423.802 189.148 420.536C187.599 417.27 186.767 415.627 186.274 409.39Z" fill="#992C2C"/>
<path d="M189.445 279.185C190.355 279.185 213.918 281.035 213.918 281.035L214.586 271.521L188.816 261.851L189.445 279.185Z" fill="#D89273"/>
<path d="M224.137 272.23C224.137 272.23 226.072 279.539 226.179 279.952C226.285 280.366 251.6 277.05 251.6 277.05L250.274 268.088L224.137 272.23Z" fill="#D89273"/>
<path d="M190.451 306.633C194.076 305.772 197.811 305.493 201.521 305.806L190.18 299.225L190.451 306.633Z" fill="#D89273"/>
<path d="M235.553 315.546C235.553 315.546 242.413 310.912 247.774 310.509L233.617 308.207L235.553 315.546Z" fill="#D89273"/>
<path d="M189.764 204.437C183.335 216.359 180.03 229.76 180.164 243.355C180.445 265.914 181.209 274.669 181.209 274.669C181.209 274.669 220.41 278.605 253.786 274.768L242.396 212.179L189.764 204.437Z" fill="#BA272D"/>
<path d="M197.063 119.24L215.004 118.207L269.02 136.427L295.322 109.373L309.179 123.333L279.49 155.139C278.231 156.493 276.649 157.493 274.898 158.043C273.146 158.593 271.285 158.673 269.494 158.277L239.399 151.637L232.509 179.065L249.492 214.589C249.492 214.589 219.494 223.306 184.841 212.228C184.841 212.228 184.647 207.496 197.208 186.138L182.102 139.9C181.176 137.051 181.249 133.964 182.307 131.163C183.365 128.362 185.345 126.019 187.909 124.533L197.063 119.24Z" fill="#BA3636"/>
<path d="M239.437 151.637L231.066 148.656L232.508 179.094L239.437 151.637Z" fill="#992C2C"/>
<path d="M197.205 186.168C197.205 186.168 204.259 190.988 222.529 187.092C222.529 187.092 204.279 188.824 195.918 182.233L197.205 186.168Z" fill="#992C2C"/>
<path d="M218.194 133.722C218.591 135.404 223.923 153.004 213.472 160.107C203.021 167.21 195.211 163.855 193.499 174.864L188.234 158.749L218.194 133.722Z" fill="#992C2C"/>
<path d="M221.603 72.5301C222.203 73.5139 224.622 83.4404 217.993 88.7233C217.993 88.7233 214.432 91.1533 217.268 95.5213C220.103 99.8893 216.939 98.6694 214.868 95.2655C212.797 91.8616 209.691 91.6944 208.955 93.7406C208.22 95.7869 208.374 104.149 215.216 103.451C215.216 103.451 212.681 118.68 217.151 130.279C221.622 141.878 219.174 155.031 208.839 159.202C198.504 163.373 196.211 162.055 192.853 169.286C189.495 176.517 180.873 184.043 170.325 162.242C159.777 140.441 151.455 148.007 158.703 131.843C165.951 115.679 170.741 119.703 172.086 106.982C173.431 94.2621 176.925 70.9954 198.552 67.7096C220.18 64.4237 221.603 72.5301 221.603 72.5301Z" fill="#65343B"/>
<path d="M321.484 90.2875C321.484 90.2875 319.82 90.4056 316.578 94.1145L324.087 85.4965L321.484 90.2875Z" fill="#D89273"/>
<path d="M324.176 94.8327C322.981 95.3139 321.942 96.1248 321.176 97.1741C322.118 95.77 323.18 94.4532 324.35 93.2389C324.447 93.776 324.386 94.3303 324.176 94.8327Z" fill="#D89273"/>
<path d="M326.11 98.2365C326.11 98.2365 323.749 99.4171 323.207 101.375C323.64 99.6148 324.694 98.0778 326.168 97.056C326.278 97.4452 326.257 97.8604 326.11 98.2365Z" fill="#D89273"/>
<path d="M322.441 109.137L326.728 103.824C326.728 103.824 325.451 106.914 326.99 105.467C326.99 105.467 325.383 110.101 322.441 109.137Z" fill="#D89273"/>
<g style="mix-blend-mode:multiply">
<path d="M664.716 105.143C671.753 75.5918 653.894 45.836 624.827 38.6813C595.76 31.5267 566.491 49.6827 559.453 79.2338C552.416 108.785 570.275 138.541 599.342 145.695C628.409 152.85 657.678 134.694 664.716 105.143Z" fill="#F3E1E6"/>
</g>
<path d="M658.78 94.0058C663.881 64.0464 644.127 35.5558 614.658 30.3701C585.189 25.1845 557.165 45.2675 552.064 75.2269C546.963 105.186 566.717 133.677 596.186 138.863C625.655 144.048 653.68 123.965 658.78 94.0058Z" fill="#F5F7FF"/>
<path d="M605.674 128.537C629.563 128.363 648.79 108.534 648.619 84.2481C648.448 59.9618 628.944 40.4147 605.055 40.5885C581.166 40.7623 561.939 60.5911 562.11 84.8775C562.281 109.164 581.786 128.711 605.674 128.537Z" fill="#65343B"/>
<path d="M604.515 51.841C601.071 51.9264 597.747 53.1367 595.033 55.2926C592.319 57.4485 590.36 60.4355 589.446 63.8114C588.532 67.1874 588.711 70.7728 589.958 74.0369C591.204 77.3011 593.451 80.0705 596.367 81.9351C597.064 82.3761 597.64 82.9905 598.04 83.7202C598.439 84.45 598.649 85.2712 598.65 86.1064V93.7997C598.649 94.2047 598.806 94.5936 599.086 94.8818L600.247 96.082V116.328C600.247 116.819 600.353 117.304 600.559 117.748C600.765 118.192 601.065 118.584 601.437 118.896L601.689 119.113C602.411 119.723 603.331 120.038 604.269 119.994C605.207 119.95 606.096 119.552 606.76 118.876L610.282 115.305C610.363 115.222 610.426 115.124 610.469 115.016C610.513 114.908 610.534 114.792 610.534 114.676V113.564C610.532 113.37 610.47 113.182 610.354 113.028C610.239 112.874 610.078 112.761 609.895 112.708C609.505 112.613 609.158 112.388 608.908 112.069C608.659 111.75 608.523 111.355 608.521 110.947C608.424 110.494 608.483 110.02 608.687 109.605C608.891 109.19 609.228 108.858 609.643 108.665C609.824 108.576 609.976 108.436 610.081 108.261C610.186 108.087 610.239 107.885 610.234 107.681V96.0722L611.346 94.872C611.609 94.5824 611.754 94.203 611.753 93.8095V85.7031C611.759 84.9057 611.957 84.1219 612.328 83.4192C612.698 82.7165 613.232 82.1161 613.882 81.6695C616.754 79.6981 618.92 76.8332 620.056 73.5043C621.191 70.1754 621.235 66.562 620.179 63.206C619.124 59.85 617.027 56.9322 614.203 54.8903C611.378 52.8483 607.979 51.7922 604.515 51.8804V51.841ZM612.072 78.0787L610.688 76.6817H599.241L597.808 78.1377C595.654 76.6066 594.035 74.4179 593.186 71.8887C592.337 69.3595 592.302 66.6211 593.086 64.0703C593.871 61.5196 595.433 59.289 597.548 57.7017C599.663 56.1145 602.22 55.253 604.849 55.2421C607.477 55.2312 610.041 56.0715 612.169 57.6412C614.296 59.2109 615.877 61.4285 616.682 63.9727C617.486 66.5169 617.473 69.2554 616.645 71.7916C615.816 74.3278 614.214 76.5298 612.072 78.0787Z" fill="#F0AF46"/>
<path d="M604.902 55.2548C602.269 55.2515 599.703 56.1026 597.579 57.6843C595.455 59.266 593.883 61.4956 593.091 64.0487C592.3 66.6018 592.331 69.345 593.179 71.8791C594.028 74.4131 595.65 76.6057 597.809 78.1377L599.241 76.6817H610.689L612.072 78.0787C614.212 76.5342 615.813 74.3379 616.643 71.8074C617.474 69.2769 617.491 66.5435 616.693 64.0023C615.894 61.4611 614.322 59.2439 612.202 57.6714C610.082 56.0989 607.526 55.2526 604.902 55.2548ZM604.902 67.5817C604.138 67.5816 603.392 67.352 602.756 66.9217C602.121 66.4915 601.625 65.8798 601.331 65.1636C601.036 64.4474 600.957 63.6587 601.102 62.8967C601.248 62.1347 601.612 61.4335 602.148 60.8813C602.685 60.329 603.37 59.9504 604.117 59.7931C604.865 59.6357 605.642 59.7067 606.35 59.997C607.058 60.2873 607.666 60.784 608.097 61.4246C608.528 62.0653 608.763 62.8212 608.773 63.5973C608.77 64.6448 608.363 65.6494 607.639 66.3946C606.915 67.1399 605.932 67.5662 604.902 67.5817Z" fill="#C48A3D"/>
<path d="M606.043 81.3547V119.447C606.305 119.289 606.545 119.097 606.759 118.876L609.178 116.427V112.344C608.978 112.172 608.815 111.958 608.702 111.717C608.588 111.477 608.527 111.214 608.52 110.947C608.458 110.589 608.485 110.221 608.6 109.877C608.715 109.533 608.914 109.225 609.178 108.98V81.4334L606.043 81.3547Z" fill="#C48A3D"/>
<path d="M601.758 81.3547V119.172C602.197 119.522 602.706 119.769 603.25 119.897C603.793 120.024 604.357 120.028 604.903 119.909V81.3547H601.758Z" fill="#C48A3D"/>
<path opacity="0.65" d="M618.199 60.5869C618.207 60.9146 618.301 61.2343 618.471 61.5127C618.641 61.7912 618.881 62.0184 619.167 62.1708C619.167 62.1708 618.548 65.2501 620.764 65.7715C620.466 63.8879 619.875 62.0647 619.012 60.3705L618.199 60.5869Z" fill="#C48A3D"/>
<g style="mix-blend-mode:multiply">
<path d="M52.0907 129.885C65.0935 129.885 75.6345 119.169 75.6345 105.949C75.6345 92.7302 65.0935 82.0139 52.0907 82.0139C39.0878 82.0139 28.5469 92.7302 28.5469 105.949C28.5469 119.169 39.0878 129.885 52.0907 129.885Z" fill="#F3E1E6"/>
</g>
<path d="M72.4039 106.473C74.4873 93.4246 65.7715 81.1297 52.9366 79.0117C40.1017 76.8936 28.0081 85.7544 25.9247 98.8029C23.8413 111.851 32.5571 124.146 45.392 126.264C58.2269 128.382 70.3205 119.522 72.4039 106.473Z" fill="#F5F7FF"/>
<path d="M49.1574 121.759C45.436 121.761 41.7976 120.641 38.7025 118.54C35.6074 116.439 33.1948 113.452 31.7698 109.957C30.3447 106.462 29.9714 102.616 30.6969 98.9054C31.4225 95.1947 33.2143 91.786 35.8458 89.1108C38.4773 86.4355 41.8301 84.6139 45.4801 83.8762C49.1302 83.1386 52.9134 83.5182 56.3512 84.9669C59.789 86.4157 62.7269 88.8685 64.7932 92.015C66.8596 95.1616 67.9615 98.8606 67.9596 102.644C67.9519 107.711 65.9685 112.569 62.4441 116.152C58.9196 119.735 54.1417 121.751 49.1574 121.759Z" fill="#65343B"/>
<path d="M48.7832 88.3987C47.2847 88.433 45.837 88.9576 44.6551 89.8948C43.4732 90.8319 42.6201 92.1316 42.2224 93.6008C41.8247 95.07 41.9036 96.6304 42.4475 98.0504C42.9914 99.4704 43.9712 100.674 45.2415 101.483C45.5413 101.678 45.7874 101.948 45.9567 102.266C46.126 102.584 46.2128 102.941 46.2092 103.303V106.638C46.2081 106.814 46.274 106.983 46.393 107.11L46.9059 107.632V116.486C46.9046 116.698 46.9499 116.908 47.0387 117.101C47.1274 117.293 47.2573 117.463 47.4188 117.598L47.5252 117.696C47.8397 117.962 48.2407 118.098 48.6491 118.078C49.0575 118.058 49.4437 117.883 49.7316 117.588L51.2895 115.994C51.3593 115.919 51.4004 115.821 51.4056 115.719V115.236C51.4047 115.152 51.3769 115.07 51.3263 115.002C51.2757 114.935 51.2052 114.886 51.125 114.863C50.9552 114.821 50.8039 114.723 50.6953 114.584C50.5866 114.445 50.5267 114.273 50.5251 114.095C50.4848 113.9 50.5107 113.696 50.5985 113.518C50.6863 113.339 50.831 113.196 51.0089 113.111C51.0885 113.075 51.1557 113.015 51.2021 112.94C51.2486 112.865 51.2723 112.777 51.2702 112.688V107.642L51.754 107.12C51.8716 106.996 51.9375 106.83 51.9379 106.658V103.136C51.9414 102.782 52.0318 102.435 52.2008 102.126C52.3698 101.816 52.612 101.555 52.9056 101.365C54.1567 100.509 55.1007 99.2626 55.5957 97.8142C56.0908 96.3658 56.1101 94.7932 55.6509 93.3326C55.1916 91.872 54.2786 90.6024 53.0489 89.7145C51.8192 88.8266 50.3394 88.3683 48.8316 88.4085L48.7832 88.3987ZM52.0734 99.8106L51.4734 99.2007H46.4511L45.8318 99.8303C44.9011 99.161 44.204 98.208 43.8414 97.1093C43.4789 96.0105 43.4696 94.8229 43.815 93.7184C44.1604 92.6139 44.8425 91.6498 45.7627 90.9656C46.6828 90.2814 47.7932 89.9127 48.9332 89.9127C50.0732 89.9127 51.1836 90.2814 52.1038 90.9656C53.0239 91.6498 53.706 92.6139 54.0514 93.7184C54.3968 94.8229 54.3876 96.0105 54.025 97.1093C53.6624 98.208 52.9653 99.161 52.0346 99.8303L52.0734 99.8106Z" fill="#F0AF46"/>
<path d="M48.9435 89.8842C47.8012 89.8874 46.6895 90.2602 45.7695 90.9485C44.8495 91.6368 44.1688 92.605 43.826 93.7128C43.4833 94.8206 43.4962 96.0106 43.863 97.1104C44.2299 98.2102 44.9315 99.1628 45.8663 99.8303L46.4856 99.2007H51.4692L52.0691 99.8106C52.999 99.1379 53.6943 98.182 54.0546 97.0811C54.415 95.9802 54.4217 94.7914 54.0737 93.6864C53.7258 92.5814 53.0412 91.6175 52.119 90.934C51.1968 90.2505 50.0848 89.8829 48.9435 89.8842ZM48.9435 95.2458C48.6083 95.2457 48.2806 95.1451 48.0014 94.9565C47.7223 94.768 47.504 94.4998 47.3741 94.1857C47.2441 93.8716 47.2082 93.5255 47.2708 93.1908C47.3335 92.856 47.4919 92.5475 47.7262 92.3039C47.9605 92.0602 48.2604 91.8923 48.5882 91.8211C48.9159 91.7499 49.2571 91.7786 49.5689 91.9037C49.8807 92.0287 50.1493 92.2445 50.341 92.524C50.5327 92.8035 50.639 93.1343 50.6466 93.475C50.6531 93.706 50.6138 93.936 50.531 94.1513C50.4482 94.3665 50.3236 94.5626 50.1647 94.7278C50.0058 94.8931 49.8157 95.0241 49.6059 95.1131C49.3961 95.2021 49.1708 95.2472 48.9435 95.2458Z" fill="#C48A3D"/>
<path d="M49.4492 101.227V117.794C49.5612 117.721 49.665 117.635 49.7589 117.539L50.8137 116.476V114.705C50.7261 114.63 50.655 114.537 50.605 114.431C50.555 114.326 50.5272 114.212 50.5234 114.095C50.4938 113.938 50.505 113.775 50.5559 113.623C50.6067 113.472 50.6956 113.336 50.8137 113.23V101.227H49.4492Z" fill="#C48A3D"/>
<path d="M47.582 101.227V117.666C47.7706 117.822 47.9913 117.932 48.2276 117.988C48.4639 118.044 48.7097 118.045 48.9465 117.991V101.267L47.582 101.227Z" fill="#C48A3D"/>
<path opacity="0.65" d="M54.7344 92.2059C54.738 92.3478 54.7784 92.4861 54.8515 92.607C54.9245 92.728 55.0277 92.8271 55.1505 92.8946C55.1505 92.8946 54.8892 94.2325 55.8472 94.4588C55.7188 93.6383 55.4606 92.8443 55.0827 92.1075L54.7344 92.2059Z" fill="#C48A3D"/>
</svg>
