<svg width="85" height="85" viewBox="0 0 85 85" fill="none" xmlns="http://www.w3.org/2000/svg">
<path d="M56.7204 34.1154C57.1837 34.1154 57.6279 33.925 57.9555 33.5862C58.2831 33.2473 58.4671 32.7877 58.4671 32.3084C58.4671 31.8292 58.2831 31.3696 57.9555 31.0307C57.6279 30.6918 57.1837 30.5015 56.7204 30.5015H23.0865C22.6233 30.5015 22.179 30.6918 21.8514 31.0307C21.5239 31.3696 21.3398 31.8292 21.3398 32.3084C21.3398 32.7877 21.5239 33.2473 21.8514 33.5862C22.179 33.925 22.6233 34.1154 23.0865 34.1154H56.7204Z" fill="#E9000E"/>
<path d="M33.6764 28.7667H46.1127C46.5759 28.7667 47.0202 28.5764 47.3478 28.2375C47.6753 27.8986 47.8594 27.439 47.8594 26.9598C47.8594 26.4805 47.6753 26.0209 47.3478 25.682C47.0202 25.3432 46.5759 25.1528 46.1127 25.1528H33.6764C33.2131 25.1528 32.7688 25.3432 32.4413 25.682C32.1137 26.0209 31.9297 26.4805 31.9297 26.9598C31.9297 27.439 32.1137 27.8986 32.4413 28.2375C32.7688 28.5764 33.2131 28.7667 33.6764 28.7667Z" fill="#E9000E"/>
<path d="M46.1112 75.8928H8.94198C8.47874 75.8928 8.03447 76.0832 7.7069 76.4221C7.37934 76.7609 7.19531 77.2206 7.19531 77.6998C7.19531 78.179 7.37934 78.6387 7.7069 78.9775C8.03447 79.3164 8.47874 79.5068 8.94198 79.5068H46.1112C46.5744 79.5068 47.0187 79.3164 47.3462 78.9775C47.6738 78.6387 47.8578 78.179 47.8578 77.6998C47.8578 77.2206 47.6738 76.7609 47.3462 76.4221C47.0187 76.0832 46.5744 75.8928 46.1112 75.8928Z" fill="#E9000E"/>
<path d="M83.1695 48.7159H79.6342V45.102C79.6233 44.6021 79.4246 44.1263 79.0803 43.7754C78.7359 43.4246 78.273 43.2263 77.7897 43.2227H67.3377V28.0441L69.1682 28.7669C70.5143 29.3039 72.0106 29.2713 73.3336 28.6762C74.6567 28.0811 75.7002 26.9712 76.2387 25.5866C76.7161 24.2794 76.6926 22.833 76.1731 21.5431C75.6536 20.2533 74.6773 19.2175 73.444 18.6478L65.06 14.8892V9.54057C65.06 7.98974 64.4645 6.50244 63.4045 5.40584C62.3445 4.30924 60.9068 3.69318 59.4078 3.69318C57.9087 3.69318 56.4711 4.30924 55.4111 5.40584C54.3511 6.50244 53.7556 7.98974 53.7556 9.54057V9.82968L40.8861 3.90279C40.4303 3.76134 39.9445 3.76134 39.4887 3.90279L6.9727 18.5032C5.6819 19.0769 4.65763 20.1479 4.1167 21.4892C3.57578 22.8306 3.56064 24.3371 4.07457 25.6898C4.5885 27.0424 5.59112 28.1351 6.87014 28.7364C8.14916 29.3377 9.60417 29.4005 10.9271 28.9114L12.9114 28.1886V63.0272H8.95694C8.47364 63.0309 8.01073 63.2291 7.66638 63.58C7.32203 63.9308 7.12333 64.4066 7.11244 64.9065V68.5204H1.74667C1.28343 68.5204 0.839157 68.7108 0.511592 69.0497C0.184028 69.3886 0 69.8482 0 70.3274C0 70.8067 0.184028 71.2663 0.511592 71.6052C0.839157 71.944 1.28343 72.1344 1.74667 72.1344H51.2124V77.6276C51.2233 78.1275 51.422 78.6033 51.7663 78.9542C52.1107 79.305 52.5736 79.5033 53.0569 79.5069H56.6201V83.1209C56.6309 83.6183 56.8276 84.0919 57.169 84.4424C57.5104 84.7928 57.9697 84.9928 58.4506 85.0001H83.1695C83.6504 84.9928 84.1097 84.7928 84.4511 84.4424C84.7925 84.0919 84.9892 83.6183 85 83.1209V50.5952C84.9892 50.0978 84.7925 49.6241 84.4511 49.2736C84.1097 48.9232 83.6504 48.7233 83.1695 48.7159ZM57.2908 9.39602C57.3723 8.88171 57.6278 8.41409 58.0117 8.07667C58.3957 7.73925 58.8831 7.55399 59.3868 7.55399C59.8906 7.55399 60.378 7.73925 60.7619 8.07667C61.1459 8.41409 61.4014 8.88171 61.4828 9.39602V13.1545L58.227 11.7089L57.3886 11.2753V9.39602H57.2908ZM9.78136 25.5866C9.31378 25.7184 8.81555 25.6659 8.38321 25.4394C7.95088 25.2129 7.61519 24.8284 7.44122 24.3604C7.26725 23.8925 7.26739 23.3744 7.44156 22.9065C7.61574 22.4387 7.95159 22.0544 8.38402 21.828L40.0477 7.37219L54.4682 13.8773C54.6079 13.8773 54.6079 14.0219 54.7477 14.0219L56.7319 14.8892L71.8511 21.828C72.2387 21.9951 72.5584 22.296 72.7558 22.6795C72.9532 23.0629 73.016 23.5053 72.9336 23.9313C72.8513 24.3573 72.6288 24.7406 72.3041 25.0161C71.9793 25.2915 71.5723 25.442 71.1524 25.442C70.9064 25.4641 70.6595 25.414 70.4398 25.2975L66.2478 23.5627H66.108L40.6625 14.7447C40.2984 14.5986 39.8947 14.5986 39.5306 14.7447L14.0851 24.141L9.78136 25.5866ZM16.4187 27.1767L40.1734 18.5032L63.7884 26.743V43.3673H53.1827C52.7018 43.3746 52.2424 43.5745 51.901 43.925C51.5597 44.2754 51.3629 44.7491 51.3521 45.2465V63.4609H47.8169V49.1496C47.7839 46.6482 46.801 44.2605 45.0807 42.5024C43.3603 40.7443 41.0406 39.7569 38.6224 39.7533C37.4224 39.7438 36.2325 39.9796 35.1209 40.4472C34.0093 40.9147 32.9979 41.6049 32.1449 42.478C31.2919 43.3511 30.6139 44.3899 30.15 45.5349C29.6862 46.6798 29.4455 47.9082 29.4419 49.1496V63.4609H16.4327L16.4187 27.1767ZM44.2676 63.3163H33.0889V49.005C33.0889 47.4542 33.6844 45.9669 34.7444 44.8703C35.8044 43.7737 37.2421 43.1577 38.7411 43.1577C40.2402 43.1577 41.6779 43.7737 42.7379 44.8703C43.7979 45.9669 44.3934 47.4542 44.3934 49.005V63.3163H44.2676ZM10.7315 68.665V66.7858H51.4499V68.665H10.7315ZM54.8315 75.8929V46.9812H64.8784C65.0347 47.0525 65.2036 47.0893 65.3744 47.0893C65.5452 47.0893 65.7142 47.0525 65.8705 46.9812H76.0431V48.8605H58.4087C57.9278 48.8678 57.4684 49.0678 57.1271 49.4182C56.7857 49.7687 56.589 50.2424 56.5782 50.7397V76.1821H54.8734L54.8315 75.8929ZM81.3809 81.3861H60.2532V52.3299H81.4508L81.3809 81.3861Z" fill="#E9000E"/>
<path d="M76.0868 59.7023H65.481C65.0178 59.7023 64.5735 59.8927 64.246 60.2316C63.9184 60.5705 63.7344 61.0301 63.7344 61.5093C63.7344 61.9886 63.9184 62.4482 64.246 62.7871C64.5735 63.1259 65.0178 63.3163 65.481 63.3163H76.0868C76.5501 63.3163 76.9943 63.1259 77.3219 62.7871C77.6495 62.4482 77.8335 61.9886 77.8335 61.5093C77.8335 61.0301 77.6495 60.5705 77.3219 60.2316C76.9943 59.8927 76.5501 59.7023 76.0868 59.7023Z" fill="#E9000E"/>
<path d="M76.0868 65.0509H65.481C65.0178 65.0509 64.5735 65.2413 64.246 65.5801C63.9184 65.919 63.7344 66.3786 63.7344 66.8579C63.7344 67.3371 63.9184 67.7967 64.246 68.1356C64.5735 68.4745 65.0178 68.6649 65.481 68.6649H76.0868C76.5501 68.6649 76.9943 68.4745 77.3219 68.1356C77.6495 67.7967 77.8335 67.3371 77.8335 66.8579C77.8335 66.3786 77.6495 65.919 77.3219 65.5801C76.9943 65.2413 76.5501 65.0509 76.0868 65.0509Z" fill="#E9000E"/>
<path d="M76.0868 70.5442H65.481C65.0178 70.5442 64.5735 70.7346 64.246 71.0734C63.9184 71.4123 63.7344 71.8719 63.7344 72.3512C63.7344 72.8304 63.9184 73.29 64.246 73.6289C64.5735 73.9678 65.0178 74.1582 65.481 74.1582H76.0868C76.5501 74.1582 76.9943 73.9678 77.3219 73.6289C77.6495 73.29 77.8335 72.8304 77.8335 72.3512C77.8335 71.8719 77.6495 71.4123 77.3219 71.0734C76.9943 70.7346 76.5501 70.5442 76.0868 70.5442Z" fill="#E9000E"/>
<path d="M76.0866 75.8928H72.5514C72.0881 75.8928 71.6438 76.0832 71.3163 76.4221C70.9887 76.7609 70.8047 77.2206 70.8047 77.6998C70.8047 78.179 70.9887 78.6387 71.3163 78.9775C71.6438 79.3164 72.0881 79.5068 72.5514 79.5068H76.0866C76.316 79.5068 76.5431 79.46 76.7551 79.3692C76.967 79.2784 77.1595 79.1453 77.3217 78.9775C77.4839 78.8097 77.6126 78.6105 77.7003 78.3913C77.7881 78.1721 77.8333 77.9371 77.8333 77.6998C77.8333 77.4625 77.7881 77.2275 77.7003 77.0083C77.6126 76.7891 77.4839 76.5899 77.3217 76.4221C77.1595 76.2543 76.967 76.1212 76.7551 76.0304C76.5431 75.9395 76.316 75.8928 76.0866 75.8928Z" fill="#E9000E"/>
<path d="M79.6177 18.0695C81.0256 18.0511 82.3718 17.4683 83.3727 16.4436C84.3735 15.419 84.951 14.0326 84.9834 12.5763C85.0096 11.8324 84.8895 11.0909 84.6302 10.3966C84.3709 9.70229 83.9779 9.06975 83.4751 8.53737C82.9723 8.00498 82.3702 7.58387 81.7053 7.29957C81.0403 7.01527 80.3265 6.87373 79.6071 6.88353C78.8877 6.89334 78.1778 7.05429 77.5203 7.35661C76.8629 7.65893 76.2717 8.09633 75.7826 8.64223C75.2935 9.18813 74.9168 9.83114 74.6753 10.5323C74.4338 11.2334 74.3325 11.978 74.3776 12.7208C74.3794 13.4288 74.5167 14.1294 74.7816 14.7822C75.0464 15.435 75.4336 16.0271 75.9207 16.5243C76.4079 17.0216 76.9853 17.4141 77.6199 17.6793C78.2544 17.9445 78.9334 18.0771 79.6177 18.0695ZM79.6177 10.8416C80.0809 10.8416 80.5252 11.0319 80.8527 11.3708C81.1803 11.7097 81.3643 12.1693 81.3643 12.6485C81.3643 13.1278 81.1803 13.5874 80.8527 13.9263C80.5252 14.2651 80.0809 14.4555 79.6177 14.4555C79.1544 14.4555 78.7101 14.2651 78.3826 13.9263C78.055 13.5874 77.871 13.1278 77.871 12.6485C77.871 12.1693 78.055 11.7097 78.3826 11.3708C78.7101 11.0319 79.1544 10.8416 79.6177 10.8416Z" fill="#E9000E"/>
<path d="M8.08922 12.7207C9.30216 12.7065 10.484 12.3213 11.4858 11.6138C12.4876 10.9063 13.2648 9.90801 13.7195 8.74458C14.1741 7.58116 14.2859 6.30459 14.0409 5.07556C13.7958 3.84653 13.2048 2.71997 12.3422 1.83764C11.4796 0.955316 10.3841 0.356662 9.19338 0.117039C8.00268 -0.122583 6.77005 0.00751859 5.65066 0.490987C4.53127 0.974455 3.57514 1.78967 2.90259 2.83404C2.23005 3.87841 1.87117 5.10526 1.87109 6.36017C1.8931 8.05253 2.55748 9.66807 3.72083 10.8581C4.88419 12.0481 6.4532 12.7171 8.08922 12.7207ZM8.08922 3.61357C11.4847 3.61357 11.4847 9.10677 8.08922 9.10677C4.69369 9.10677 4.69369 3.61357 8.08922 3.61357Z" fill="#E9000E"/>
</svg>
