<svg width="85" height="85" viewBox="0 0 85 85" fill="none" xmlns="http://www.w3.org/2000/svg">
<path d="M83.1641 0H30.1075C29.6263 0.00717313 29.1665 0.202105 28.8249 0.543835C28.4833 0.885566 28.2864 1.34749 28.2756 1.83251V7.18906H22.8916C22.4104 7.19624 21.9506 7.39117 21.609 7.7329C21.2674 8.07463 21.0705 8.53653 21.0597 9.02155V14.3781H15.6757C15.1945 14.3853 14.7347 14.5802 14.3931 14.9219C14.0515 15.2637 13.8546 15.7256 13.8438 16.2106V83.1675C13.8546 83.6525 14.0515 84.1144 14.3931 84.4562C14.7347 84.7979 15.1945 84.9928 15.6757 85H68.7322C69.2135 84.9928 69.6732 84.7979 70.0148 84.4562C70.3565 84.1144 70.5534 83.6525 70.5642 83.1675V77.8109H75.9481C76.4294 77.8038 76.8891 77.6088 77.2307 77.2671C77.5724 76.9254 77.7693 76.4634 77.7801 75.9784V70.6219H83.1641C83.6453 70.6147 84.105 70.4198 84.4467 70.078C84.7883 69.7363 84.9852 69.2744 84.996 68.7894V1.83251C84.9417 1.36305 84.7309 0.926095 84.3981 0.593177C84.0653 0.26026 83.6302 0.0511115 83.1641 0ZM67.18 81.0531H17.6615V17.6202H67.18V81.0531ZM74.242 74.005H70.718V15.9287C70.7071 15.4413 70.5083 14.9773 70.1636 14.6352C69.819 14.293 69.3557 14.0997 68.8721 14.0962H24.7375V10.5721H74.242V74.005ZM81.3181 66.9569H77.7801V8.8806C77.7693 8.39558 77.5724 7.93366 77.2307 7.59193C76.8891 7.2502 76.4294 7.05527 75.9481 7.04809H31.8136V3.52405H81.3181V66.9569Z" fill="#E9000E"/>
<path d="M5.37493 21.1443C4.67342 21.1406 3.97806 21.2762 3.32854 21.5434C2.67902 21.8106 2.08805 22.2041 1.58941 22.7015C1.09077 23.1989 0.694246 23.7904 0.4224 24.4423C0.150555 25.0942 0.0087363 25.7937 0.00507308 26.5009V65.2654C-0.0166916 65.509 0.0318796 65.7537 0.144922 65.9702L3.68288 74.8508C3.8226 75.1668 4.05015 75.4352 4.33804 75.6236C4.62592 75.8119 4.96181 75.9122 5.30503 75.9122C5.64825 75.9122 5.9841 75.8119 6.27198 75.6236C6.55987 75.4352 6.78742 75.1668 6.92714 74.8508L10.4651 65.9702C10.592 65.7589 10.6414 65.5096 10.6049 65.2654V26.5009C10.6051 25.0947 10.0568 23.7449 9.07835 22.7428C8.09987 21.7406 6.76969 21.1665 5.37493 21.1443ZM5.37493 24.6683C5.8586 24.6719 6.32187 24.8652 6.66648 25.2073C7.01109 25.5494 7.20994 26.0134 7.22084 26.5009V30.0249H3.54303V26.5009C3.55383 26.0158 3.75074 25.5539 4.09235 25.2122C4.43397 24.8705 4.89371 24.6755 5.37493 24.6683ZM5.37493 69.2123L3.54303 64.8425V33.5489H7.06699V64.9834L5.37493 69.2123Z" fill="#E9000E"/>
<path d="M23.0509 33.2671H23.3306V46.6584C23.3414 47.1434 23.5383 47.6054 23.8799 47.9471C24.2215 48.2888 24.6812 48.4837 25.1625 48.4909H30.9658C31.4495 48.4874 31.9128 48.2941 32.2574 47.9519C32.602 47.6098 32.8008 47.1459 32.8117 46.6584V41.7248C32.8437 41.4276 32.9834 41.1528 33.2041 40.9531C33.4248 40.7534 33.7108 40.643 34.0074 40.643C34.3039 40.643 34.59 40.7534 34.8107 40.9531C35.0314 41.1528 35.1711 41.4276 35.203 41.7248V46.6584C35.2139 47.1459 35.4127 47.6098 35.7573 47.9519C36.102 48.2941 36.5652 48.4874 37.0489 48.4909H42.7124C43.1937 48.4837 43.6534 48.2888 43.995 47.9471C44.3366 47.6054 44.5335 47.1434 44.5443 46.6584V33.2671H44.9639C45.3401 33.2667 45.7063 33.1449 46.0089 32.9196C46.3115 32.6942 46.5346 32.3772 46.6456 32.0148C46.7566 31.6525 46.7496 31.2638 46.6256 30.9057C46.5017 30.5477 46.2672 30.239 45.9567 30.0249L35.203 21.4262C34.8904 21.1535 34.4907 21.0034 34.0773 21.0034C33.6638 21.0034 33.2642 21.1535 32.9516 21.4262L21.9182 30.1659C21.6387 30.396 21.4375 30.7083 21.3425 31.0592C21.2474 31.4101 21.2634 31.7821 21.388 32.1234C21.5127 32.4647 21.7399 32.7583 22.038 32.9633C22.3361 33.1683 22.6901 33.2745 23.0509 33.2671ZM40.7267 44.9669H38.6011V41.7248C38.5828 40.4497 38.0683 39.2328 37.1686 38.3364C36.2688 37.4399 35.0557 36.9356 33.7906 36.9321C33.161 36.9227 32.5359 37.0399 31.9517 37.2767C31.3676 37.5135 30.8361 37.8653 30.3883 38.3114C29.9404 38.7576 29.5852 39.2892 29.3435 39.8753C29.1017 40.4613 28.9782 41.0901 28.9801 41.7248V44.9669H26.7287V33.408H40.5868L40.7267 44.9669ZM33.7347 25.2322L39.538 29.884H27.9453L33.7347 25.2322Z" fill="#E9000E"/>
<path d="M61.9417 26.5008H51.3418C50.8782 26.5008 50.4335 26.6864 50.1057 27.0169C49.7779 27.3473 49.5938 27.7955 49.5938 28.2628C49.5938 28.7301 49.7779 29.1783 50.1057 29.5088C50.4335 29.8392 50.8782 30.0248 51.3418 30.0248H61.9417C62.4053 30.0248 62.8499 29.8392 63.1777 29.5088C63.5055 29.1783 63.6897 28.7301 63.6897 28.2628C63.6897 27.7955 63.5055 27.3473 63.1777 27.0169C62.8499 26.6864 62.4053 26.5008 61.9417 26.5008Z" fill="#E9000E"/>
<path d="M61.9417 31.7164H51.3418C50.8782 31.7164 50.4335 31.9021 50.1057 32.2325C49.7779 32.563 49.5938 33.0111 49.5938 33.4785C49.5938 33.9458 49.7779 34.3939 50.1057 34.7244C50.4335 35.0548 50.8782 35.2405 51.3418 35.2405H61.9417C62.4053 35.2405 62.8499 35.0548 63.1777 34.7244C63.5055 34.3939 63.6897 33.9458 63.6897 33.4785C63.6897 33.0111 63.5055 32.563 63.1777 32.2325C62.8499 31.9021 62.4053 31.7164 61.9417 31.7164Z" fill="#E9000E"/>
<path d="M61.9417 37.0729H51.3418C50.8782 37.0729 50.4335 37.2586 50.1057 37.589C49.7779 37.9195 49.5938 38.3676 49.5938 38.835C49.5938 39.3023 49.7779 39.7505 50.1057 40.0809C50.4335 40.4113 50.8782 40.597 51.3418 40.597H61.9417C62.4053 40.597 62.8499 40.4113 63.1777 40.0809C63.5055 39.7505 63.6897 39.3023 63.6897 38.835C63.6897 38.3676 63.5055 37.9195 63.1777 37.589C62.8499 37.2586 62.4053 37.0729 61.9417 37.0729Z" fill="#E9000E"/>
<path d="M61.9417 42.2886H51.3418C50.8782 42.2886 50.4335 42.4742 50.1057 42.8047C49.7779 43.1351 49.5938 43.5833 49.5938 44.0506C49.5938 44.5179 49.7779 44.9661 50.1057 45.2965C50.4335 45.627 50.8782 45.8126 51.3418 45.8126H61.9417C62.4053 45.8126 62.8499 45.627 63.1777 45.2965C63.5055 44.9661 63.6897 44.5179 63.6897 44.0506C63.6897 43.5833 63.5055 43.1351 63.1777 42.8047C62.8499 42.4742 62.4053 42.2886 61.9417 42.2886Z" fill="#E9000E"/>
<path d="M61.9423 54.6932H23.0527C22.5891 54.6932 22.1444 54.8789 21.8166 55.2093C21.4888 55.5398 21.3047 55.9879 21.3047 56.4553C21.3047 56.9226 21.4888 57.3708 21.8166 57.7012C22.1444 58.0316 22.5891 58.2173 23.0527 58.2173H61.9423C62.4059 58.2173 62.8505 58.0316 63.1783 57.7012C63.5061 57.3708 63.6903 56.9226 63.6903 56.4553C63.6903 55.9879 63.5061 55.5398 63.1783 55.2093C62.8505 54.8789 62.4059 54.6932 61.9423 54.6932Z" fill="#E9000E"/>
<path d="M61.935 59.9088H42.3574C41.8938 59.9088 41.4492 60.0944 41.1214 60.4248C40.7935 60.7553 40.6094 61.2035 40.6094 61.6708C40.6094 62.1381 40.7935 62.5863 41.1214 62.9167C41.4492 63.2472 41.8938 63.4328 42.3574 63.4328H61.935C62.3986 63.4328 62.8432 63.2472 63.171 62.9167C63.4989 62.5863 63.683 62.1381 63.683 61.6708C63.683 61.2035 63.4989 60.7553 63.171 60.4248C62.8432 60.0944 62.3986 59.9088 61.935 59.9088Z" fill="#E9000E"/>
<path d="M23.0527 68.7894H38.9385C39.4021 68.7894 39.8467 68.6037 40.1745 68.2733C40.5024 67.9428 40.6865 67.4947 40.6865 67.0273C40.6865 66.56 40.5024 66.1119 40.1745 65.7814C39.8467 65.451 39.4021 65.2653 38.9385 65.2653H23.0527C22.5891 65.2653 22.1444 65.451 21.8166 65.7814C21.4888 66.1119 21.3047 66.56 21.3047 67.0273C21.3047 67.4947 21.4888 67.9428 21.8166 68.2733C22.1444 68.6037 22.5891 68.7894 23.0527 68.7894Z" fill="#E9000E"/>
<path d="M61.9332 65.2653H53.0253C52.5617 65.2653 52.1171 65.451 51.7893 65.7814C51.4615 66.1119 51.2773 66.56 51.2773 67.0273C51.2773 67.4947 51.4615 67.9428 51.7893 68.2733C52.1171 68.6037 52.5617 68.7894 53.0253 68.7894H61.9332C62.3968 68.7894 62.8414 68.6037 63.1692 68.2733C63.497 67.9428 63.6812 67.4947 63.6812 67.0273C63.6812 66.56 63.497 66.1119 63.1692 65.7814C62.8414 65.451 62.3968 65.2653 61.9332 65.2653Z" fill="#E9000E"/>
<path d="M23.0493 63.4328H31.8173C32.2809 63.4328 32.7255 63.2472 33.0533 62.9167C33.3811 62.5863 33.5653 62.1381 33.5653 61.6708C33.5653 61.2035 33.3811 60.7553 33.0533 60.4248C32.7255 60.0944 32.2809 59.9088 31.8173 59.9088H22.8955C22.4319 59.9293 21.9954 60.1347 21.682 60.4797C21.3686 60.8247 21.204 61.281 21.2243 61.7483C21.2447 62.2156 21.4485 62.6556 21.7907 62.9715C22.133 63.2874 22.5857 63.4534 23.0493 63.4328Z" fill="#E9000E"/>
<path d="M61.9423 70.481H23.0527C22.5891 70.481 22.1444 70.6666 21.8166 70.997C21.4888 71.3275 21.3047 71.7757 21.3047 72.243C21.3047 72.7103 21.4888 73.1585 21.8166 73.4889C22.1444 73.8194 22.5891 74.005 23.0527 74.005H61.9423C62.4059 74.005 62.8505 73.8194 63.1783 73.4889C63.5061 73.1585 63.6903 72.7103 63.6903 72.243C63.6903 71.7757 63.5061 71.3275 63.1783 70.997C62.8505 70.6666 62.4059 70.481 61.9423 70.481Z" fill="#E9000E"/>
</svg>
