<svg width="85" height="85" viewBox="0 0 85 85" fill="none" xmlns="http://www.w3.org/2000/svg">
<path d="M66.5814 20.6367C67.9147 20.6294 69.1922 20.0967 70.1403 19.1526C71.0884 18.2086 71.6319 16.9283 71.6543 15.5858C71.6912 14.8815 71.5853 14.177 71.3431 13.5152C71.1009 12.8534 70.7273 12.2483 70.2453 11.7366C69.7633 11.2249 69.1829 10.8174 68.5395 10.5389C67.896 10.2604 67.203 10.1168 66.5026 10.1168C65.8022 10.1168 65.1092 10.2604 64.4658 10.5389C63.8223 10.8174 63.2419 11.2249 62.7599 11.7366C62.2779 12.2483 61.9044 12.8534 61.6621 13.5152C61.4199 14.177 61.314 14.8815 61.3509 15.5858C61.4335 16.9354 62.0173 18.2043 62.9865 19.1402C63.9556 20.076 65.239 20.6103 66.5814 20.6367ZM66.5814 13.9984C66.9805 13.9984 67.3632 14.158 67.6454 14.4422C67.9276 14.7264 68.0861 15.1118 68.0861 15.5136C68.0861 15.9155 67.9276 16.3009 67.6454 16.5851C67.3632 16.8693 66.9805 17.0289 66.5814 17.0289C66.1824 17.0289 65.7997 16.8693 65.5175 16.5851C65.2353 16.3009 65.0767 15.9155 65.0767 15.5136C65.0767 15.1118 65.2353 14.7264 65.5175 14.4422C65.7997 14.158 66.1824 13.9984 66.5814 13.9984Z" fill="#E9000E"/>
<path d="M7.13297 10.9678H12.6501C12.652 11.6923 12.796 12.4093 13.0739 13.0775C13.3518 13.7458 13.7581 14.3521 14.2695 14.8617C14.7808 15.3713 15.3872 15.7741 16.0536 16.047C16.7201 16.3198 17.4335 16.4574 18.1529 16.4517H25.404C26.8479 16.4334 28.2285 15.8515 29.2549 14.8286C30.2813 13.8057 30.8735 12.4216 30.9068 10.9678C30.903 10.2439 30.7578 9.52773 30.4792 8.86034C30.2006 8.19295 29.7942 7.58737 29.2832 7.07815C28.7722 6.56892 28.1666 6.16602 27.5011 5.89249C26.8355 5.61895 26.1229 5.48012 25.404 5.48392H23.5124C23.5086 4.75998 23.3634 4.04388 23.0848 3.37649C22.8062 2.7091 22.3998 2.10353 21.8888 1.5943C21.3778 1.08508 20.7723 0.682176 20.1067 0.408641C19.4411 0.135105 18.7285 -0.00372425 18.0096 7.59578e-05H7.13297C5.68873 7.59578e-05 4.30365 0.577856 3.28242 1.60628C2.26119 2.6347 1.6875 4.02951 1.6875 5.48392C1.6875 6.93833 2.26119 8.33318 3.28242 9.36161C4.30365 10.39 5.68873 10.9678 7.13297 10.9678ZM7.13297 3.7522H18.0096C18.299 3.7612 18.5824 3.83746 18.8377 3.97509C19.093 4.11272 19.3132 4.30798 19.4811 4.54555C19.649 4.78311 19.7601 5.05656 19.8056 5.34453C19.8511 5.6325 19.8299 5.92715 19.7435 6.20548C19.4569 6.92704 19.1704 7.50433 19.6003 8.22589C19.7542 8.50941 19.9862 8.74202 20.2685 8.89566C20.5507 9.0493 20.8711 9.11739 21.1909 9.09173H25.2607C25.7358 9.09173 26.1914 9.28179 26.5273 9.62008C26.8632 9.95838 27.052 10.4172 27.052 10.8956C27.052 11.3741 26.8632 11.8329 26.5273 12.1712C26.1914 12.5095 25.7358 12.6995 25.2607 12.6995H18.0096C17.72 12.6898 17.4365 12.6133 17.181 12.4758C16.9254 12.3382 16.7047 12.1434 16.5357 11.9063C16.3668 11.6693 16.2542 11.3963 16.2066 11.1085C16.159 10.8206 16.1777 10.5256 16.2613 10.2463C16.5622 9.52469 16.8489 8.94745 16.419 8.22589C16.2613 7.94241 16.0265 7.71025 15.7421 7.55682C15.4577 7.4034 15.1357 7.33511 14.814 7.36001H7.13297C6.89773 7.36001 6.66479 7.31334 6.44746 7.22269C6.23013 7.13203 6.03268 6.99916 5.86635 6.83165C5.70001 6.66414 5.56807 6.4653 5.47805 6.24644C5.38803 6.02758 5.34169 5.793 5.34169 5.55611C5.34169 5.31921 5.38803 5.08463 5.47805 4.86577C5.56807 4.64691 5.70001 4.44807 5.86635 4.28056C6.03268 4.11305 6.23013 3.98018 6.44746 3.88952C6.66479 3.79887 6.89773 3.7522 7.13297 3.7522Z" fill="#E9000E"/>
<path d="M83.2443 81.3923H68.1689L73.3851 76.3413C73.7211 75.9877 73.9282 75.5299 73.9726 75.0425V69.5587C73.9949 69.3095 73.9524 69.0587 73.8494 68.831C73.7464 68.6033 73.5864 68.4065 73.3851 68.2598L70.3471 65.5179L73.5284 62.1987C73.6844 62.0228 73.804 61.8174 73.8803 61.5944C73.9566 61.3714 73.988 61.1353 73.9726 60.8999V56.2819C73.9615 55.7829 73.7577 55.3079 73.4045 54.9577C73.0514 54.6074 72.5767 54.4095 72.081 54.4059H71.0636L73.5284 49.7879C73.6874 49.5246 73.7853 49.2287 73.815 48.922V37.5213C76.4555 36.3471 78.7844 34.5634 80.6131 32.3143C82.4419 30.0653 83.7191 27.4143 84.3414 24.5758C84.9637 21.7373 84.9137 18.7912 84.1953 15.9758C83.4769 13.1604 82.1103 10.555 80.2062 8.37026C78.271 6.31922 75.9079 4.72624 73.2873 3.70619C70.6667 2.68614 67.854 2.26444 65.0521 2.47151C62.2501 2.67858 59.5286 3.50927 57.084 4.90365C54.6394 6.29804 52.5325 8.22137 50.9153 10.5349C49.3269 13.0098 48.3446 15.829 48.0492 18.7608H7.92461C6.32835 18.7608 4.79748 19.3994 3.66875 20.536C2.54003 21.6727 1.90594 23.2144 1.90594 24.8219C1.90594 26.4294 2.54003 27.9711 3.66875 29.1077C4.79748 30.2444 6.32835 30.883 7.92461 30.883H30.853C31.328 30.883 31.7837 31.073 32.1196 31.4113C32.4556 31.7496 32.6442 32.2085 32.6442 32.6869C32.6442 33.1653 32.4556 33.6241 32.1196 33.9624C31.7837 34.3007 31.328 34.4908 30.853 34.4908H10.7907C9.34642 34.4908 7.96138 35.0686 6.94015 36.097C5.91892 37.1254 5.34519 38.5203 5.34519 39.9747C5.34519 41.4291 5.91892 42.8239 6.94015 43.8523C7.96138 44.8807 9.34642 45.4585 10.7907 45.4585H37.5022C37.8062 45.4527 38.1083 45.5083 38.3907 45.6219C38.6731 45.7355 38.93 45.905 39.1464 46.1201C39.3627 46.3353 39.5341 46.5919 39.6504 46.8749C39.7668 47.1578 39.8257 47.4613 39.8237 47.7675V54.9831L27.3564 48.0561C27.0891 47.9146 26.7915 47.8406 26.4894 47.8406C26.1874 47.8406 25.8898 47.9146 25.6224 48.0561L4.5427 59.1682C4.16654 59.4209 3.89825 59.8066 3.79085 60.2489C3.68345 60.6912 3.74476 61.1581 3.96268 61.5571C4.18059 61.9561 4.53922 62.2582 4.96769 62.4038C5.39616 62.5493 5.86327 62.5277 6.27664 62.3431L9.90219 60.467V81.3923H1.79128C1.3162 81.3923 0.860587 81.5823 0.524657 81.9206C0.188727 82.2589 0 82.7177 0 83.1962C0 83.6746 0.188727 84.1334 0.524657 84.4717C0.860587 84.81 1.3162 85.0001 1.79128 85.0001H83.3589C85.5658 85.0001 85.5658 81.3923 83.2443 81.3923ZM70.3471 48.6334L66.5782 55.4161C66.4327 55.6974 66.3604 56.0113 66.368 56.3284C66.3756 56.6455 66.4629 56.9554 66.6218 57.2293C66.7807 57.5032 67.0059 57.732 67.2765 57.8944C67.547 58.0569 67.8541 58.1475 68.1689 58.158H70.3471V60.1784L66.4349 64.3634C66.2561 64.5335 66.1163 64.7409 66.0253 64.971C65.9342 65.2011 65.8941 65.4484 65.9078 65.6957C65.9214 65.9431 65.9885 66.1844 66.1043 66.403C66.2201 66.6215 66.3818 66.8119 66.5782 66.961L70.3471 70.4245V74.321L64.4 79.9491L62.8094 74.8982V38.8201C65.2893 39.3973 67.8672 39.3973 70.3471 38.8201V48.6334ZM66.5782 5.77266C69.3891 5.78312 72.1409 6.5863 74.5217 8.09118C76.9025 9.59605 78.8172 11.7424 80.0486 14.2871C81.2877 16.9181 81.719 19.8615 81.2876 22.7408C80.8562 25.6201 79.5816 28.3044 77.6268 30.4501C75.3182 32.9235 72.2639 34.561 68.9373 35.1089C65.6108 35.6568 62.1976 35.0845 59.2268 33.4806C56.6634 32.0554 54.5783 29.8953 53.2362 27.2745C51.8941 24.6537 51.3557 21.6904 51.6891 18.7608C52.2366 15.1686 54.035 11.8897 56.7627 9.51021C59.4904 7.13076 62.9696 5.80596 66.5782 5.77266ZM37.5738 41.7064H10.762C10.2869 41.7064 9.83132 41.5163 9.49539 41.178C9.15946 40.8397 8.97073 40.3809 8.97073 39.9025C8.97073 39.4241 9.15946 38.9652 9.49539 38.6269C9.83132 38.2886 10.2869 38.0986 10.762 38.0986H30.8243C32.2686 38.0986 33.6536 37.5209 34.6749 36.4924C35.6961 35.464 36.2698 34.0692 36.2698 32.6147C36.2698 31.1603 35.6961 29.7655 34.6749 28.7371C33.6536 27.7086 32.2686 27.1308 30.8243 27.1308H7.89597C7.24986 27.1308 6.63021 26.8724 6.17335 26.4123C5.71648 25.9522 5.45985 25.3282 5.45985 24.6776C5.45985 24.0269 5.71648 23.4029 6.17335 22.9428C6.63021 22.4827 7.24986 22.2242 7.89597 22.2242H48.1925C48.5605 25.4975 49.7707 28.6173 51.7035 31.275C53.6363 33.9326 56.2247 36.036 59.2125 37.377V74.8982C59.191 75.1016 59.2418 75.3061 59.3558 75.4754L61.233 81.2479H42.9477V60.467L46.5732 62.3431C48.5938 63.4976 50.3421 60.1784 48.3072 59.1682L43.3776 56.5706V47.4789C43.3777 46.7147 43.227 45.9582 42.9345 45.2531C42.642 44.548 42.2133 43.9084 41.6734 43.3714C41.1336 42.8344 40.4932 42.4107 39.7895 42.1249C39.0857 41.8391 38.3326 41.6968 37.5738 41.7064ZM23.3726 81.3923V71.0018C23.3726 70.6191 23.5236 70.252 23.7923 69.9813C24.0611 69.7107 24.4256 69.5587 24.8057 69.5587H28.1446C28.5246 69.5587 28.8891 69.7107 29.1579 69.9813C29.4266 70.252 29.5776 70.6191 29.5776 71.0018V81.3923H23.3726ZM33.0885 81.3923V71.0018C33.0661 69.6593 32.5226 68.379 31.5745 67.435C30.6263 66.4909 29.3489 65.9582 28.0156 65.9509H24.6766C23.3434 65.9582 22.0659 66.4909 21.1178 67.435C20.1697 68.379 19.6262 69.6593 19.6038 71.0018V81.3923H13.3701V58.5909L26.2673 51.6639L39.1645 58.5909V81.3923H33.0885Z" fill="#E9000E"/>
<path d="M45.2662 29.0068H41.6406V32.6146H45.2662V29.0068Z" fill="#E9000E"/>
<path d="M41.6451 25.399H38.0195V29.0068H41.6451V25.399Z" fill="#E9000E"/>
<path d="M48.8951 32.6146H45.2695V36.2224H48.8951V32.6146Z" fill="#E9000E"/>
<path d="M45.2662 36.2224H41.6406V39.8302H45.2662V36.2224Z" fill="#E9000E"/>
<path d="M48.8951 39.8302H45.2695V43.438H48.8951V39.8302Z" fill="#E9000E"/>
<path d="M52.524 43.438H48.8984V47.0459H52.524V43.438Z" fill="#E9000E"/>
<path d="M56.1334 47.0458H52.5078V50.6536H56.1334V47.0458Z" fill="#E9000E"/>
<path d="M52.524 50.6536H48.8984V54.2614H52.524V50.6536Z" fill="#E9000E"/>
<path d="M56.1334 54.2614H52.5078V57.8692H56.1334V54.2614Z" fill="#E9000E"/>
</svg>
