<svg width="85" height="85" viewBox="0 0 85 85" fill="none" xmlns="http://www.w3.org/2000/svg">
<path d="M79.4169 8.97268H66.9318C66.456 8.97268 65.9997 9.15874 65.6633 9.49001C65.3269 9.82128 65.1379 10.2706 65.1379 10.7391C65.1379 11.2076 65.3269 11.6569 65.6633 11.9881C65.9997 12.3194 66.456 12.5055 66.9318 12.5055H79.4169C79.9107 12.5127 80.3825 12.7082 80.7331 13.0507C81.0837 13.3933 81.2858 13.8564 81.2968 14.3426V54.476H77.824V17.8755C77.8128 17.3868 77.6087 16.9217 77.2551 16.5787C76.9014 16.2357 76.426 16.042 75.9297 16.0384H57.9339V11.375L60.6892 12.7882C62.7127 13.9187 64.4634 10.6685 62.4256 9.67925L44.2863 0.211144C44.016 0.0724426 43.7157 0 43.4109 0C43.1061 0 42.8058 0.0724426 42.5355 0.211144L24.3962 9.82053C24.0195 10.068 23.7508 10.4457 23.6433 10.8788C23.5357 11.312 23.5971 11.7691 23.8154 12.1598C24.0336 12.5506 24.3928 12.8464 24.8218 12.9889C25.2509 13.1314 25.7187 13.1102 26.1327 12.9295L28.888 11.5163V16.1797H9.01225C8.51591 16.1832 8.04049 16.3771 7.68684 16.7201C7.33319 17.063 7.12914 17.5281 7.11796 18.0168V54.6173H3.63073V14.4839C3.64191 13.9952 3.84597 13.5302 4.19962 13.1872C4.55326 12.8442 5.02868 12.6504 5.52503 12.6468H19.7466C20.2224 12.6468 20.6786 12.4608 21.015 12.1295C21.3514 11.7982 21.5404 11.3489 21.5404 10.8804C21.5404 10.4119 21.3514 9.96265 21.015 9.63138C20.6786 9.30011 20.2224 9.11396 19.7466 9.11396H5.52503C4.80392 9.10837 4.08878 9.24292 3.42057 9.50994C2.75236 9.77696 2.14422 10.1712 1.63098 10.67C1.11774 11.1689 0.709488 11.7625 0.429617 12.417C0.149746 13.0714 0.00375324 13.7738 0 14.4839V64.5094C0.00375324 65.2195 0.149746 65.9218 0.429617 66.5763C0.709488 67.2307 1.11774 67.8244 1.63098 68.3232C2.14422 68.8221 2.75236 69.2163 3.42057 69.4833C4.08878 69.7503 4.80392 69.8849 5.52503 69.8793H31.3563L27.0511 81.4671H19.1726C18.6968 81.4671 18.2405 81.6532 17.9041 81.9845C17.5677 82.3157 17.3787 82.7651 17.3787 83.2336C17.3787 83.702 17.5677 84.1514 17.9041 84.4827C18.2405 84.8139 18.6968 85 19.1726 85H64.1764C64.6522 85 65.1084 84.8139 65.4449 84.4827C65.7813 84.1514 65.9703 83.702 65.9703 83.2336C65.9703 82.7651 65.7813 82.3157 65.4449 81.9845C65.1084 81.6532 64.6522 81.4671 64.1764 81.4671H56.0683L51.7631 69.8793H79.4886C80.2085 69.883 80.9221 69.7471 81.5887 69.4793C82.2552 69.2114 82.8617 68.8169 83.3734 68.3182C83.8851 67.8196 84.2921 67.2265 84.5711 66.573C84.85 65.9195 84.9956 65.2183 84.9993 64.5094V14.4839C85.0109 13.7582 84.8745 13.0376 84.5983 12.3647C84.322 11.6918 83.9115 11.0804 83.391 10.5665C82.8704 10.0526 82.2505 9.64682 81.5679 9.37306C80.8853 9.09929 80.1539 8.96314 79.4169 8.97268ZM43.4109 4.02666L54.3031 9.67925V28.4741H49.51V21.4084C49.4911 19.8278 48.8402 18.3182 47.6984 17.2071C46.5567 16.096 45.0161 15.473 43.4109 15.4731C42.6197 15.4693 41.8356 15.6205 41.1042 15.9177C40.3728 16.215 39.7087 16.6525 39.1505 17.2048C38.5924 17.7571 38.1513 18.4131 37.8529 19.1348C37.5545 19.8564 37.4047 20.6292 37.4123 21.4084V28.4741H32.6622V9.67925L43.4109 4.02666ZM45.8793 28.4741H41.0861V21.4084C41.0861 18.4407 45.8793 18.4407 45.8793 21.4084V28.4741ZM52.2653 81.4671H30.9258L35.231 69.8793H47.8596L52.2653 81.4671ZM79.4169 66.3464H5.66853C5.17219 66.3429 4.69677 66.1491 4.34312 65.8062C3.98947 65.4632 3.78542 64.998 3.77424 64.5094V58.1502H19.3161C19.7918 58.1502 20.2481 57.9641 20.5845 57.6329C20.9209 57.3016 21.1099 56.8522 21.1099 56.3838C21.1099 55.9153 20.9209 55.4659 20.5845 55.1347C20.2481 54.8034 19.7918 54.6173 19.3161 54.6173H10.8922V19.5713H29.0459V30.1699C29.0569 30.6561 29.259 31.1192 29.6096 31.4618C29.9602 31.8044 30.432 31.9998 30.9258 32.007H56.0683C56.5646 32.0034 57.04 31.8096 57.3937 31.4666C57.7473 31.1236 57.9514 30.6585 57.9626 30.1699V19.5713H74.3654V54.476H31.3563C30.8806 54.476 30.4243 54.6621 30.0879 54.9934C29.7515 55.3247 29.5625 55.774 29.5625 56.2425C29.5625 56.711 29.7515 57.1602 30.0879 57.4915C30.4243 57.8228 30.8806 58.0089 31.3563 58.0089H81.4403V64.5094C81.4311 64.7612 81.3713 65.0087 81.2644 65.2377C81.1575 65.4666 81.0056 65.6724 80.8175 65.8432C80.6293 66.014 80.4087 66.1465 80.1683 66.2328C79.9279 66.3192 79.6725 66.3578 79.4169 66.3464Z" fill="#E9000E"/>
<path d="M16.2587 40.7685H32.6616C33.1373 40.7685 33.5936 40.5824 33.93 40.2511C34.2664 39.9198 34.4554 39.4706 34.4554 39.0021C34.4554 38.5336 34.2664 38.0843 33.93 37.753C33.5936 37.4217 33.1373 37.2357 32.6616 37.2357H16.2587C15.7829 37.2357 15.3267 37.4217 14.9902 37.753C14.6538 38.0843 14.4648 38.5336 14.4648 39.0021C14.4648 39.4706 14.6538 39.9198 14.9902 40.2511C15.3267 40.5824 15.7829 40.7685 16.2587 40.7685Z" fill="#E9000E"/>
<path d="M16.2587 46.1385H32.6616C33.1373 46.1385 33.5936 45.9524 33.93 45.6211C34.2664 45.2899 34.4554 44.8405 34.4554 44.372C34.4554 43.9035 34.2664 43.4542 33.93 43.1229C33.5936 42.7917 33.1373 42.6056 32.6616 42.6056H16.2587C15.7829 42.6056 15.3267 42.7917 14.9902 43.1229C14.6538 43.4542 14.4648 43.9035 14.4648 44.372C14.4648 44.8405 14.6538 45.2899 14.9902 45.6211C15.3267 45.9524 15.7829 46.1385 16.2587 46.1385Z" fill="#E9000E"/>
<path d="M70.7053 49.6714C70.6941 49.1827 70.4901 48.7175 70.1364 48.3746C69.7828 48.0316 69.3074 47.8378 68.811 47.8343H16.2587C15.7829 47.8343 15.3267 48.0204 14.9902 48.3516C14.6538 48.6829 14.4648 49.1322 14.4648 49.6007C14.4648 50.0692 14.6538 50.5185 14.9902 50.8497C15.3267 51.181 15.7829 51.3672 16.2587 51.3672H68.9832C69.4365 51.3564 69.8682 51.1742 70.1888 50.8585C70.5094 50.5428 70.6944 50.1177 70.7053 49.6714Z" fill="#E9000E"/>
<path d="M41.5258 59.7047C41.031 59.7047 40.5564 59.8983 40.2066 60.2428C39.8567 60.5873 39.6602 61.0546 39.6602 61.5418C39.6602 62.029 39.8567 62.4962 40.2066 62.8408C40.5564 63.1853 41.031 63.3789 41.5258 63.3789C42.0205 63.3789 42.4951 63.1853 42.8449 62.8408C43.1948 62.4962 43.3913 62.029 43.3913 61.5418C43.3913 61.0546 43.1948 60.5873 42.8449 60.2428C42.4951 59.8983 42.0205 59.7047 41.5258 59.7047Z" fill="#E9000E"/>
<path d="M65.1893 40.7685H61.5586V44.3014H65.1893V40.7685Z" fill="#E9000E"/>
<path d="M68.8143 37.2357H65.1836V40.7685H68.8143V37.2357Z" fill="#E9000E"/>
<path d="M65.1893 33.7028H61.5586V37.2357H65.1893V33.7028Z" fill="#E9000E"/>
<path d="M68.8143 30.1699H65.1836V33.7027H68.8143V30.1699Z" fill="#E9000E"/>
</svg>
