<svg width="85" height="85" viewBox="0 0 85 85" fill="none" xmlns="http://www.w3.org/2000/svg">
<path d="M48.7519 28.6502C48.7542 28.3476 48.6757 28.0504 48.5251 27.7921C48.3745 27.5338 48.1579 27.3247 47.8998 27.1885L34.8951 17.3947C34.5794 17.179 34.2105 17.0641 33.8335 17.0641C33.4565 17.0641 33.0876 17.179 32.7719 17.3947L19.6415 27.1885C19.3323 27.4097 19.0986 27.7285 18.9744 28.0984C18.8503 28.4683 18.8422 28.87 18.9513 29.245C19.0603 29.6201 19.2809 29.9489 19.5809 30.1837C19.8809 30.4185 20.2447 30.5469 20.6193 30.5504H22.6028V45.8988C22.6137 46.4042 22.8123 46.8854 23.1566 47.2402C23.5008 47.5949 23.9635 47.7954 24.4467 47.7991H30.8023C31.283 47.7916 31.7422 47.5895 32.0835 47.2351C32.4247 46.8807 32.6214 46.4017 32.6322 45.8988V40.3442C32.6681 39.9573 32.8403 39.5983 33.1153 39.3371C33.3903 39.0758 33.7484 38.9311 34.1198 38.9311C34.4913 38.9311 34.8494 39.0758 35.1244 39.3371C35.3994 39.5983 35.5716 39.9573 35.6075 40.3442V45.8988C35.6183 46.4017 35.815 46.8807 36.1562 47.2351C36.4974 47.5895 36.9567 47.7916 37.4374 47.7991H43.5137C43.9968 47.7954 44.4596 47.5949 44.8038 47.2402C45.148 46.8854 45.3466 46.4042 45.3575 45.8988V30.4043H47.1874C47.4014 30.4007 47.6125 30.3519 47.8081 30.261C48.0037 30.1701 48.1798 30.0388 48.3258 29.8751C48.4718 29.7114 48.5848 29.5185 48.658 29.308C48.7312 29.0976 48.7632 28.8739 48.7519 28.6502ZM33.9033 21.0491L41.5441 26.7499H26.1788L33.9033 21.0491ZM41.5441 43.9985H39.0018V40.198C38.9763 38.798 38.4288 37.464 37.4762 36.4808C36.5236 35.4976 35.2413 34.9431 33.9033 34.9357C33.2388 34.9299 32.5797 35.0616 31.964 35.3233C31.3482 35.585 30.788 35.9715 30.3155 36.4605C29.843 36.9496 29.4675 37.5315 29.2106 38.1729C28.9538 38.8143 28.8206 39.5025 28.8188 40.198V43.9985H26.0251V30.5504H41.3905L41.5301 43.9985H41.5441Z" fill="#E9000E"/>
<path d="M74.3104 64.1707L75.0228 63.4398C75.1918 63.2693 75.3262 63.065 75.418 62.839C75.5098 62.6129 75.5571 62.3698 75.5571 62.1242C75.5571 61.8786 75.5098 61.6355 75.418 61.4095C75.3262 61.1835 75.1918 60.9791 75.0228 60.8087L69.659 55.2541C69.3214 54.9024 68.8643 54.7049 68.3879 54.7049C67.9115 54.7049 67.4545 54.9024 67.1168 55.2541L66.4044 55.9849L61.0407 50.4303C64.4846 44.2257 65.8673 37.0019 64.9727 29.8878C64.0781 22.7738 60.9566 16.1703 56.096 11.1094C51.3999 6.31893 45.4072 3.1594 38.9337 2.06085C32.4602 0.962294 25.8205 1.97809 19.9185 4.97001C14.0515 7.95005 9.22949 12.7868 6.13581 18.7948C3.04214 24.8027 1.8337 31.6772 2.6818 38.444C3.45287 43.749 5.44777 48.7774 8.49379 53.0941C11.5398 57.4107 15.5451 60.8855 20.1632 63.2176C24.7813 65.5497 29.8728 66.669 34.9973 66.4785C40.1217 66.288 45.1246 64.7934 49.5728 62.1242L55.0903 67.825L54.3779 68.5559C54.2123 68.7284 54.081 68.9334 53.9913 69.1592C53.9017 69.385 53.8555 69.627 53.8555 69.8715C53.8555 70.116 53.9017 70.358 53.9913 70.5838C54.081 70.8095 54.2123 71.0146 54.3779 71.1871L59.7556 76.7417C60.0933 77.0934 60.5503 77.2908 61.0267 77.2908C61.5031 77.2908 61.9601 77.0934 62.2978 76.7417L62.9962 76.0108L69.3517 82.5887C70.8917 84.1359 72.9438 84.9999 75.0787 84.9999C77.2135 84.9999 79.2656 84.1359 80.8056 82.5887C82.2949 81.0125 83.1302 78.8853 83.1302 76.6686C83.1302 74.452 82.2949 72.3247 80.8056 70.7485L74.3104 64.1707ZM33.8028 62.8551C27.2535 62.9221 20.8956 60.5459 15.8685 56.1526C10.8413 51.7592 7.47366 45.6358 6.36911 38.88C5.26457 32.1241 6.49535 25.1774 9.84081 19.285C13.1863 13.3925 18.4278 8.93952 24.6258 6.72413C30.7339 4.54787 37.3695 4.62252 43.4316 6.93566C49.4936 9.2488 54.6177 13.6614 57.9537 19.4413C60.3587 23.8625 61.6119 28.8673 61.5877 33.9546C61.5636 39.0419 60.263 44.0334 57.8161 48.4294C55.3692 52.8254 51.8619 56.4717 47.6451 59.0034C43.4284 61.5351 38.6503 62.8633 33.7889 62.8551H33.8028ZM52.6039 60.0778C55.0344 58.1917 57.2181 55.9802 59.0991 53.5L64.0438 58.6161L57.5486 65.1939L52.6039 60.0778ZM58.1073 69.7253L58.8197 68.9944L67.7174 59.7854L68.4298 59.0546L71.3911 62.1242L70.6787 62.8551L61.6413 72.0641L60.9429 72.795L58.1073 69.7253ZM78.1796 79.9575C77.2881 80.8029 76.128 81.2711 74.925 81.2711C73.722 81.2711 72.5619 80.8029 71.6704 79.9575L65.3149 73.3797L71.8101 66.6556L78.1796 73.2335C78.9936 74.1458 79.4464 75.3474 79.4464 76.5955C79.4464 77.8436 78.9936 79.0453 78.1796 79.9575C77.2856 80.8346 78.9758 79.0805 78.1377 79.9575H78.1796Z" fill="#E9000E"/>
<path d="M50.3005 51.0148C52.7496 48.4898 54.625 45.4209 55.7879 42.0351C56.9508 38.6492 57.3715 35.0331 57.0187 31.4542C56.666 27.8753 55.5489 24.4252 53.7502 21.359C51.9514 18.2929 49.517 15.6891 46.6269 13.7404C43.9395 11.9499 40.9353 10.7438 37.7932 10.1936C34.6511 9.64343 31.4354 9.76056 28.3375 10.538C25.2395 11.3154 22.3227 12.7372 19.7608 14.7188C17.1988 16.7003 15.0441 19.2012 13.4249 22.0723C10.9476 26.7149 10.0057 32.0841 10.7459 37.3448C11.486 42.6054 13.8667 47.4627 17.5175 51.161C21.9408 55.5747 27.8254 58.0249 33.9371 57.9976C40.0489 57.9704 45.9132 55.4678 50.3005 51.0148C51.4319 49.8454 49.169 52.3304 50.3005 51.0148ZM33.7623 54.5231C30.7589 54.5221 27.7953 53.8033 25.0977 52.4214C22.4001 51.0396 20.0397 49.0313 18.1965 46.5497C16.3533 44.0681 15.076 41.1788 14.4621 38.102C13.8482 35.0253 13.9138 31.8425 14.6541 28.7964C15.5556 25.0297 17.4513 21.6044 20.1248 18.9117C22.7982 16.2191 26.1415 14.3678 29.7727 13.5692C33.4039 12.7707 37.1765 13.0572 40.6595 14.396C44.1424 15.7348 47.1953 18.0718 49.4693 21.1401C51.7433 24.2085 53.1466 27.8843 53.519 31.7477C53.8914 35.6111 53.2179 39.5062 51.5753 42.988C49.9327 46.4698 47.3874 49.3978 44.2301 51.4376C41.0728 53.4774 37.4308 54.5466 33.7204 54.5231H33.7623Z" fill="#E9000E"/>
<path d="M46.0508 74.9876C46.04 74.4847 45.8433 74.0057 45.502 73.6513C45.1608 73.2969 44.7016 73.0948 44.2209 73.0873H8.8945C8.43142 73.0873 7.9873 73.2799 7.65985 73.6225C7.3324 73.9652 7.14844 74.4299 7.14844 74.9145C7.14844 75.3991 7.3324 75.8639 7.65985 76.2065C7.9873 76.5492 8.43142 76.7417 8.8945 76.7417H44.2209C44.4545 76.7689 44.6909 76.7435 44.9143 76.6672C45.1377 76.5909 45.343 76.4654 45.5163 76.2993C45.6896 76.1331 45.8269 75.9302 45.9191 75.704C46.0113 75.4777 46.0562 75.2335 46.0508 74.9876Z" fill="#E9000E"/>
<path d="M56.6556 78.6417H24.8633C24.4002 78.6417 23.9561 78.8342 23.6286 79.1769C23.3012 79.5196 23.1172 79.9843 23.1172 80.4689C23.1172 80.9535 23.3012 81.4182 23.6286 81.7609C23.9561 82.1036 24.4002 82.2961 24.8633 82.2961H56.6556C57.1187 82.2961 57.5628 82.1036 57.8902 81.7609C58.2177 81.4182 58.4017 80.9535 58.4017 80.4689C58.4017 79.9843 58.2177 79.5196 57.8902 79.1769C57.5628 78.8342 57.1187 78.6417 56.6556 78.6417Z" fill="#E9000E"/>
<path d="M79.6933 5.55473H77.8494C77.8458 4.82145 77.7042 4.09606 77.4326 3.42006C77.1611 2.74406 76.7649 2.13067 76.2668 1.61487C75.7688 1.09908 75.1785 0.690979 74.5297 0.413914C73.8809 0.136849 73.1863 -0.00377231 72.4855 7.6938e-05H61.8834C60.476 0.0186183 59.1303 0.608005 58.1298 1.64409C57.1293 2.68018 56.552 4.08214 56.5195 5.55473C56.5232 6.28802 56.6649 7.01336 56.9364 7.68936C57.2079 8.36536 57.604 8.97875 58.1021 9.49455C58.6002 10.0103 59.1905 10.4184 59.8393 10.6955C60.4881 10.9726 61.1827 11.1132 61.8834 11.1093H67.2613C67.265 11.8426 67.4066 12.568 67.6782 13.244C67.9497 13.92 68.3458 14.5334 68.8439 15.0492C69.342 15.565 69.9323 15.9731 70.5811 16.2501C71.2299 16.5272 71.9245 16.6678 72.6252 16.664H79.6933C81.1011 16.664 82.4512 16.0788 83.4466 15.0371C84.4421 13.9954 85.0013 12.5825 85.0013 11.1093C85.0013 9.63616 84.4421 8.22331 83.4466 7.18162C82.4512 6.13992 81.1011 5.55473 79.6933 5.55473ZM79.6933 12.8635H72.6252C72.3431 12.8543 72.0668 12.777 71.818 12.6376C71.5692 12.4982 71.3545 12.3005 71.1909 12.0599C71.0272 11.8192 70.9189 11.5423 70.8746 11.2506C70.8302 10.9589 70.8509 10.6604 70.935 10.3785C71.2144 9.6476 71.4938 9.06291 71.0747 8.33204C70.9247 8.04486 70.6985 7.80921 70.4234 7.65358C70.1482 7.49796 69.836 7.42899 69.5242 7.45498H62.0231C61.56 7.45498 61.1159 7.26247 60.7885 6.91981C60.461 6.57715 60.2771 6.1124 60.2771 5.6278C60.2771 5.1432 60.461 4.67846 60.7885 4.33579C61.1159 3.99313 61.56 3.80062 62.0231 3.80062H72.6252C72.9073 3.80973 73.1836 3.88703 73.4324 4.02643C73.6813 4.16584 73.8959 4.36358 74.0596 4.60421C74.2233 4.84484 74.3315 5.12182 74.3759 5.4135C74.4203 5.70519 74.3996 6.00368 74.3154 6.2856C74.036 7.01648 73.7567 7.60117 74.1757 8.33204C74.3294 8.61918 74.5583 8.85433 74.8355 9.00974C75.1127 9.16514 75.4267 9.23431 75.7402 9.20909H79.6933C80.1564 9.20909 80.6005 9.4016 80.9279 9.74427C81.2554 10.0869 81.4394 10.5517 81.4394 11.0363C81.4394 11.5209 81.2554 11.9856 80.9279 12.3283C80.6005 12.6709 80.1564 12.8635 79.6933 12.8635Z" fill="#E9000E"/>
<path d="M74.3092 47.6529C75.7191 47.6381 77.0684 47.0504 78.0719 46.0139C79.0754 44.9775 79.6545 43.5734 79.6871 42.0983C79.6505 40.6379 79.0655 39.2513 78.0589 38.239C77.0524 37.2267 75.7052 36.6701 74.3092 36.6898C72.9017 36.7084 71.5561 37.2978 70.5556 38.3339C69.555 39.3699 68.9778 40.7719 68.9453 42.2444C69.029 43.6854 69.6267 45.0409 70.6201 46.0426C71.6135 47.0442 72.9301 47.6189 74.3092 47.6529ZM74.3092 40.3442C74.7723 40.3442 75.2164 40.5367 75.5439 40.8794C75.8713 41.222 76.0553 41.6868 76.0553 42.1714C76.0553 42.656 75.8713 43.1207 75.5439 43.4634C75.2164 43.8061 74.7723 43.9986 74.3092 43.9986C73.8461 43.9986 73.402 43.8061 73.0746 43.4634C72.7471 43.1207 72.5632 42.656 72.5632 42.1714C72.5632 41.6868 72.7471 41.222 73.0746 40.8794C73.402 40.5367 73.8461 40.3442 74.3092 40.3442Z" fill="#E9000E"/>
<path d="M10.7278 64.0245C10.6954 62.5519 10.1181 61.15 9.11756 60.1139C8.11704 59.0778 6.77138 58.4884 5.3639 58.4699C4.66317 58.466 3.96858 58.6066 3.31978 58.8837C2.67098 59.1608 2.08067 59.5689 1.58258 60.0847C1.0845 60.6005 0.688365 61.2138 0.416822 61.8899C0.145278 62.5659 0.00365915 63.2912 0 64.0245C0.0324548 65.4971 0.609693 66.899 1.61021 67.9351C2.61072 68.9712 3.95642 69.5606 5.3639 69.5791C6.06464 69.583 6.75923 69.4424 7.40803 69.1653C8.05682 68.8882 8.64709 68.4801 9.14518 67.9643C9.64327 67.4485 10.0394 66.8351 10.3109 66.1591C10.5825 65.4831 10.7241 64.7578 10.7278 64.0245ZM5.5036 65.9248C5.04051 65.9248 4.5964 65.7323 4.26895 65.3896C3.9415 65.0469 3.75753 64.5822 3.75753 64.0976C3.75753 63.613 3.9415 63.1482 4.26895 62.8056C4.5964 62.4629 5.04051 62.2704 5.5036 62.2704C5.96668 62.2704 6.4108 62.4629 6.73825 62.8056C7.0657 63.1482 7.24966 63.613 7.24966 64.0976C7.24966 64.5822 7.0657 65.0469 6.73825 65.3896C6.4108 65.7323 5.96668 65.9248 5.5036 65.9248Z" fill="#E9000E"/>
</svg>
