<svg width="85" height="85" viewBox="0 0 85 85" fill="none" xmlns="http://www.w3.org/2000/svg">
<path d="M66.1314 64.3966L64.425 62.6982L69.8099 57.3201C69.9325 57.2142 70.0329 57.0844 70.105 56.9385C70.177 56.7926 70.2194 56.6336 70.2295 56.4708L70.803 54.2064C71.1353 54.4061 71.5244 54.4868 71.9075 54.4355C72.2907 54.3841 72.6455 54.2037 72.915 53.9233L82.538 44.2992C82.7072 44.1342 82.8418 43.9363 82.9337 43.7174C83.0257 43.4986 83.0731 43.2632 83.0731 43.0254C83.0731 42.7876 83.0257 42.5523 82.9337 42.3334C82.8418 42.1146 82.7072 41.9167 82.538 41.7517L60.6065 19.8145C60.2684 19.4739 59.8108 19.2828 59.3337 19.2828C58.8567 19.2828 58.399 19.4739 58.0609 19.8145L48.4379 29.4385C48.298 29.5801 48.2981 29.7216 48.1582 29.7216C45.9881 28.6386 43.5039 28.3872 41.1648 29.014C39.3186 29.7788 37.601 30.8291 36.0735 32.1276C36.0832 31.9257 36.0356 31.7252 35.9365 31.5497C35.8374 31.3742 35.6908 31.231 35.514 31.1369L25.891 21.5128C25.5529 21.1722 25.0953 20.9811 24.6182 20.9811C24.1412 20.9811 23.6835 21.1722 23.3454 21.5128L1.41392 43.5916C1.24471 43.7566 1.11016 43.9544 1.01823 44.1733C0.926299 44.3921 0.878906 44.6275 0.878906 44.8653C0.878906 45.1031 0.926299 45.3386 1.01823 45.5574C1.11016 45.7763 1.24471 45.9741 1.41392 46.1391L11.0369 55.7632C11.2133 55.9837 11.461 56.1341 11.7363 56.1878L12.7294 59.443C12.8374 59.6968 12.9785 59.9348 13.149 60.1507L15.7086 62.6982L8.35145 69.9162C7.32634 70.9745 6.75214 72.3972 6.75214 73.8791C6.75214 75.3609 7.32634 76.7837 8.35145 77.842C9.42133 78.8652 10.8377 79.4353 12.3098 79.4353C13.7819 79.4353 15.1981 78.8652 16.268 77.842C16.6135 78.6367 17.1324 79.3418 17.7858 79.9045C18.4392 80.4671 19.2101 80.8726 20.0406 81.0905C20.8712 81.3085 21.7397 81.3331 22.581 81.1627C23.4223 80.9922 24.2144 80.6311 24.898 80.1064C25.29 80.939 25.869 81.6674 26.5886 82.2333C27.3083 82.7992 28.1488 83.187 29.0429 83.3658C29.9371 83.5445 30.8601 83.5093 31.7384 83.2628C32.6167 83.0164 33.4258 82.5655 34.1013 81.9463L34.521 81.5218C34.8868 82.3796 35.4532 83.1345 36.1716 83.7214C36.89 84.3083 37.7387 84.7097 38.6445 84.8908C39.5503 85.0719 40.486 85.0273 41.371 84.7609C42.256 84.4945 43.0636 84.0143 43.7243 83.3616L51.3612 75.5775C52.6898 75.9417 54.1032 75.8139 55.3469 75.2171C56.5906 74.6203 57.5828 73.5937 58.1448 72.3223C58.6975 72.8585 59.3507 73.2773 60.0659 73.5539C60.7811 73.8306 61.5438 73.9595 62.309 73.9331C63.0743 73.9068 63.8265 73.7256 64.5214 73.4003C65.2163 73.0751 65.8398 72.6122 66.3551 72.0392C67.31 70.9873 67.8211 69.5995 67.7792 68.1718C67.7374 66.7441 67.1461 65.3895 66.1314 64.3966ZM59.3337 23.6357L78.9154 43.167L71.838 50.2435L52.2564 30.7122L59.3337 23.6357ZM39.3884 34.109C40.0101 33.467 40.7626 32.9697 41.5936 32.652C42.4245 32.3342 43.314 32.2036 44.1999 32.2691C45.0651 32.4389 45.9161 32.6754 46.7455 32.9768C47.5987 33.4014 48.298 33.826 49.1512 33.4014L49.5708 33.1183L67.7538 51.3758L66.7608 55.1971L61.8094 60.2922L41.2207 39.6287C40.873 39.2982 40.4237 39.0983 39.9479 39.0626C38.2957 39.271 36.6778 39.6993 35.1364 40.3364C33.3447 40.8496 31.4871 41.0882 29.6256 41.0441C28.7724 41.0441 25.6672 40.4779 25.8071 39.0626C25.947 38.3549 26.9401 37.9303 27.3597 37.6473C28.0462 37.348 28.7576 37.1112 29.4856 36.9396C30.4299 36.8166 31.3646 36.6274 32.283 36.3735C33.6183 36.324 34.9449 36.1343 36.2413 35.8074C37.4008 35.5031 38.4706 34.9205 39.3604 34.109H39.3884ZM5.28832 44.8653L24.87 25.1926L31.9474 32.2691C31.8075 32.2691 31.8075 32.4107 31.6536 32.5522L31.234 32.9768L31.0942 33.1183L30.9543 33.2599C27.4156 33.6845 19.9186 36.2319 22.7439 41.327L12.1419 52.0834L5.28832 44.8653ZM26.2687 74.0207L23.1636 77.1343C21.5971 78.6912 18.7717 76.8512 19.7647 74.8698C20.1843 73.8791 21.1635 73.313 20.3242 72.1808C20.1909 71.9518 20.0063 71.7577 19.7854 71.614C19.5644 71.4704 19.3133 71.3812 19.0521 71.3537C18.7909 71.3261 18.5269 71.361 18.2814 71.4555C18.036 71.55 17.8159 71.7015 17.6388 71.8977L13.9462 75.5775C11.9601 77.4174 8.99486 74.5868 10.981 72.6053L18.3381 65.3872L26.8282 73.8791C26.7796 73.848 26.7254 73.827 26.6688 73.8173C26.6122 73.8076 26.5541 73.8094 26.4981 73.8226C26.4422 73.8357 26.3894 73.86 26.3428 73.894C26.2962 73.928 26.2568 73.9711 26.2268 74.0207H26.2687ZM31.6397 79.3988C31.2348 79.7737 30.7059 79.9817 30.1571 79.9817C29.6083 79.9817 29.0793 79.7737 28.6745 79.3988C28.4901 79.2133 28.3437 78.9928 28.2439 78.7499C28.144 78.507 28.0926 78.2466 28.0926 77.9835C28.0926 77.7204 28.144 77.46 28.2439 77.2171C28.3437 76.9742 28.4901 76.7536 28.6745 76.5682C28.8143 76.4267 28.9541 76.2851 28.9541 76.1436L30.6606 77.9835C31.0659 78.3941 31.5393 78.7294 32.0593 78.9742L31.6257 79.3988H31.6397ZM41.2627 80.9556C40.9237 81.2716 40.4929 81.4685 40.0344 81.5167C39.5759 81.565 39.1143 81.4622 38.7183 81.2236C38.3222 80.9851 38.0128 80.6235 37.8361 80.1927C37.6595 79.7619 37.6251 79.2849 37.738 78.8326C38.7679 78.2203 39.5619 77.2722 39.9898 76.1436L40.4234 76.5682C41.4178 77.5489 42.7182 78.1493 44.102 78.2666L41.2627 80.9556ZM63.7676 69.9162C63.3604 70.2922 62.8291 70.5006 62.278 70.5006C61.7268 70.5006 61.1955 70.2922 60.7884 69.9162L57.1098 66.2365C56.7717 65.896 56.3141 65.7048 55.837 65.7048C55.36 65.7048 54.9023 65.896 54.5642 66.2365C53.5711 67.2272 54.2845 68.0764 54.8579 69.0671C56.2566 71.0485 53.2914 73.313 51.5989 71.6146L48.4799 68.5009C48.1445 68.1669 47.6925 67.98 47.2219 67.9806C46.7513 67.9811 46.2998 68.1693 45.9652 68.5041C45.6306 68.839 45.4397 69.2937 45.4339 69.7699C45.4281 70.2461 45.6079 70.7054 45.9343 71.0485C46.1203 71.2329 46.2682 71.4532 46.3691 71.6962C46.4701 71.9393 46.522 72.2002 46.522 72.4638C46.522 72.7274 46.4701 72.9883 46.3691 73.2314C46.2682 73.4744 46.1203 73.6946 45.9343 73.8791C45.5294 74.254 45.0005 74.462 44.4517 74.462C43.9028 74.462 43.3739 74.254 42.969 73.8791L39.0107 69.9162C38.7673 69.662 38.4537 69.4883 38.1109 69.4177C37.7682 69.3471 37.4123 69.3831 37.0901 69.5209C36.7679 69.6586 36.4944 69.8918 36.3055 70.1896C36.1165 70.4875 36.021 70.8363 36.0315 71.19C36.0315 72.0392 36.8847 72.6053 37.0246 73.313C37.1167 73.6989 37.0986 74.1033 36.9723 74.4792C36.846 74.855 36.6168 75.1869 36.3113 75.436C36.1714 75.5775 36.0315 75.719 35.8917 75.719C35.7856 75.734 35.6874 75.7837 35.6119 75.8605C35.2187 75.98 34.8011 75.9904 34.4025 75.8909C34.0039 75.7913 33.6391 75.5853 33.346 75.2944L29.3318 71.19L19.4291 61.2829L16.0303 57.8861L14.8973 54.3479L21.681 47.5544L25.5134 43.5916C29.7095 45.8561 35.1224 44.0162 39.3744 42.8839L60.4527 63.9719L63.5717 66.9441C63.7952 67.1155 63.9788 67.3345 64.1096 67.5855C64.2403 67.8366 64.3149 68.1136 64.3283 68.3971C64.3416 68.6805 64.2933 68.9635 64.1867 69.226C64.0802 69.4885 63.918 69.7241 63.7117 69.9162C63.306 70.3408 64.5789 69.2086 63.7257 69.9162H63.7676Z" fill="#E9000E"/>
<path d="M12.5469 47.2711C13.1218 47.2711 13.6733 47.04 14.0798 46.6286C14.4864 46.2172 14.7148 45.6592 14.7148 45.0774C14.7148 44.4956 14.4864 43.9377 14.0798 43.5262C13.6733 43.1148 13.1218 42.8837 12.5469 42.8837C11.9719 42.8837 11.4205 43.1148 11.0139 43.5262C10.6073 43.9377 10.3789 44.4956 10.3789 45.0774C10.3789 45.6592 10.6073 46.2172 11.0139 46.6286C11.4205 47.04 11.9719 47.2711 12.5469 47.2711Z" fill="#E9000E"/>
<path d="M73.7625 43.0254C73.6809 42.5218 73.4252 42.064 73.0409 41.7337C72.6565 41.4033 72.1687 41.2219 71.6644 41.2219C71.1602 41.2219 70.6723 41.4033 70.2879 41.7337C69.9036 42.064 69.6479 42.5218 69.5664 43.0254C69.6479 43.5289 69.9036 43.9867 70.2879 44.317C70.6723 44.6474 71.1602 44.8288 71.6644 44.8288C72.1687 44.8288 72.6565 44.6474 73.0409 44.317C73.4252 43.9867 73.6809 43.5289 73.7625 43.0254Z" fill="#E9000E"/>
<path d="M7.12092 26.7493C8.53056 26.7493 9.88246 26.1827 10.8792 25.1741C11.876 24.1655 12.4359 22.7975 12.4359 21.3711C12.4359 19.9448 11.876 18.5768 10.8792 17.5682C9.88246 16.5596 8.53056 15.993 7.12092 15.993C6.41927 15.9893 5.72376 16.1254 5.07411 16.3936C4.42446 16.6619 3.83337 17.057 3.33463 17.5564C2.83588 18.0559 2.43927 18.6498 2.16737 19.3043C1.89547 19.9589 1.75366 20.6611 1.75 21.3711C1.81888 22.7847 2.40843 24.1208 3.40258 25.1163C4.39673 26.1118 5.72334 26.6944 7.12092 26.7493ZM7.12092 19.6728C7.58462 19.6728 8.02936 19.8592 8.35724 20.191C8.68512 20.5227 8.86929 20.9727 8.86929 21.4419C8.86929 21.9111 8.68512 22.3611 8.35724 22.6929C8.02936 23.0247 7.58462 23.211 7.12092 23.211C6.65723 23.211 6.21257 23.0247 5.88469 22.6929C5.55681 22.3611 5.37256 21.9111 5.37256 21.4419C5.37256 20.9727 5.55681 20.5227 5.88469 20.191C6.21257 19.8592 6.65723 19.6728 7.12092 19.6728Z" fill="#E9000E"/>
<path d="M77.0249 16.1345C78.239 16.1205 79.422 15.7435 80.4248 15.0508C81.4276 14.3581 82.2055 13.3807 82.6606 12.2416C83.1157 11.1025 83.2276 9.85272 82.9823 8.64943C82.737 7.44614 82.1454 6.34318 81.282 5.47933C80.4186 4.61549 79.322 4.02937 78.1302 3.79477C76.9383 3.56017 75.7045 3.68752 74.584 4.16086C73.4635 4.6342 72.5064 5.43237 71.8332 6.45486C71.16 7.47735 70.8009 8.67855 70.8008 9.90717C70.8228 11.5641 71.4878 13.1457 72.6523 14.3108C73.8168 15.4759 75.3873 16.1309 77.0249 16.1345ZM77.0249 7.21806C80.4237 7.21806 80.4237 12.5962 77.0249 12.5962C73.6261 12.5962 73.6261 7.21806 77.0249 7.21806Z" fill="#E9000E"/>
<path d="M70.8031 72.7468C70.3394 72.7468 69.8946 72.9332 69.5667 73.265C69.2389 73.5968 69.0547 74.0467 69.0547 74.5159C69.0547 74.9851 69.2389 75.4351 69.5667 75.7669C69.8946 76.0987 70.3394 76.285 70.8031 76.285H83.2513C83.715 76.285 84.1598 76.0987 84.4877 75.7669C84.8155 75.4351 84.9997 74.9851 84.9997 74.5159C84.9997 74.0467 84.8155 73.5968 84.4877 73.265C84.1598 72.9332 83.715 72.7468 83.2513 72.7468H70.8031Z" fill="#E9000E"/>
<path d="M83.2513 77.9834H70.8031C70.3394 77.9834 69.8946 78.1697 69.5667 78.5015C69.2389 78.8333 69.0547 79.2833 69.0547 79.7525C69.0547 80.2217 69.2389 80.6718 69.5667 81.0035C69.8946 81.3353 70.3394 81.5217 70.8031 81.5217H83.2513C83.715 81.5217 84.1598 81.3353 84.4877 81.0035C84.8155 80.6718 84.9997 80.2217 84.9997 79.7525C84.9997 79.2833 84.8155 78.8333 84.4877 78.5015C84.1598 78.1697 83.715 77.9834 83.2513 77.9834Z" fill="#E9000E"/>
<path d="M1.88742 58.5938H6.95067C7.41437 58.5938 7.85911 58.4075 8.18699 58.0757C8.51487 57.7439 8.69904 57.2939 8.69904 56.8247C8.69904 56.3555 8.51487 55.9055 8.18699 55.5738C7.85911 55.242 7.41437 55.0555 6.95067 55.0555H1.85942C1.39572 55.0593 0.952542 55.2493 0.627284 55.5838C0.302025 55.9182 0.121346 56.3696 0.125056 56.8388C0.128766 57.308 0.316499 57.7566 0.647004 58.0857C0.977509 58.4148 1.42373 58.5976 1.88742 58.5938Z" fill="#E9000E"/>
<path d="M8.68581 62.132C8.67492 61.6426 8.47602 61.1768 8.13134 60.8333C7.78666 60.4898 7.32329 60.2957 6.83953 60.2921H1.74836C1.28467 60.2921 0.839927 60.4785 0.512045 60.8102C0.184163 61.142 0 61.592 0 62.0612C0 62.5304 0.184163 62.9805 0.512045 63.3123C0.839927 63.644 1.28467 63.8304 1.74836 63.8304H6.83953C7.07146 63.8437 7.3037 63.8101 7.52266 63.7316C7.74162 63.6531 7.94298 63.5313 8.11486 63.3732C8.28675 63.215 8.42574 63.0238 8.52378 62.8107C8.62182 62.5976 8.6769 62.3669 8.68581 62.132Z" fill="#E9000E"/>
<path d="M30.1841 12.3132H30.4779V23.0696C30.4887 23.5565 30.6856 24.0203 31.0273 24.3634C31.369 24.7065 31.8288 24.9022 32.3101 24.9094H38.1147C38.5961 24.9022 39.0559 24.7065 39.3976 24.3634C39.7393 24.0203 39.9362 23.5565 39.947 23.0696V19.5313C39.947 19.2085 40.0737 18.8988 40.2993 18.6706C40.5248 18.4423 40.8309 18.3141 41.1499 18.3141C41.4689 18.3141 41.7748 18.4423 42.0004 18.6706C42.226 18.8988 42.3527 19.2085 42.3527 19.5313V23.0696C42.3636 23.5589 42.5625 24.0247 42.9072 24.3682C43.2519 24.7117 43.7153 24.9059 44.199 24.9094H49.7938C50.2775 24.9059 50.7409 24.7117 51.0856 24.3682C51.4303 24.0247 51.6292 23.5589 51.6401 23.0696V12.3132H52.0597C52.4359 12.3128 52.8022 12.1905 53.1049 11.9643C53.4076 11.738 53.6307 11.4198 53.7417 11.056C53.8527 10.6921 53.8457 10.3019 53.7217 9.94238C53.5977 9.58288 53.3633 9.27295 53.0528 9.05799L42.2968 0.424661C41.9841 0.150788 41.5844 0 41.1709 0C40.7573 0 40.3575 0.150788 40.0449 0.424661L28.9953 9.19957C28.7112 9.43345 28.5075 9.75224 28.4136 10.1104C28.3196 10.4686 28.34 10.8476 28.472 11.1933C28.604 11.539 28.8408 11.8335 29.1483 12.0347C29.4559 12.2358 29.8184 12.3333 30.1841 12.3132ZM47.8776 21.3712H45.7515V19.5313C45.7296 18.2522 45.214 17.0325 44.3148 16.1332C43.4156 15.2339 42.2043 14.7264 40.94 14.7192C40.3103 14.7098 39.6851 14.8275 39.1009 15.0653C38.5166 15.3031 37.9849 15.6562 37.537 16.1042C37.0891 16.5522 36.7339 17.0859 36.4921 17.6743C36.2502 18.2627 36.1266 18.894 36.1285 19.5313V21.3712H33.8627V12.3132H47.7377V21.3712H47.8776ZM40.8841 4.246L46.6886 8.91649H35.0795L40.8841 4.246Z" fill="#E9000E"/>
</svg>
