<svg width="87" height="90" viewBox="0 0 87 90" fill="none" xmlns="http://www.w3.org/2000/svg">
<path d="M69.8547 80.9395C69.382 78.9698 68.883 76.8557 68.384 74.5184C65.1538 59.3521 62.2518 59.0895 60.663 58.2228C59.0741 57.3562 42.3977 48.821 42.3977 48.821L35.0312 52.7603V80.9395H69.8547Z" fill="#E8F6EF"/>
<path d="M0.207031 80.9395C0.679747 78.9698 1.17873 76.8557 1.6777 74.5184C4.90793 59.3521 7.86241 59.0895 9.39873 58.2228C10.9351 57.3562 27.664 48.821 27.664 48.821L35.0305 52.7603V80.9395H0.207031Z" fill="#CFE8DD"/>
<path d="M41.793 39.9577L35.0831 39.0254L28.3731 39.9577C28.3731 39.9577 28.8721 46.0111 27.6641 48.8211C27.6641 48.8211 31.2882 53.023 35.0831 52.7604C38.8779 53.0362 42.5021 48.8211 42.5021 48.8211C41.3072 45.9586 41.793 39.9577 41.793 39.9577Z" fill="#F4C297"/>
<path d="M49.5412 25.1064H49.2523C49.3705 24.1215 49.4887 23.1499 49.6068 22.2307C50.224 17.4773 51.629 3.57153 35.0314 3.57153C18.4338 3.57153 19.8257 17.4773 20.456 22.2307C20.5742 23.1499 20.6924 24.1215 20.8105 25.1064H20.5348C18.0005 23.2286 17.7904 28.1134 18.8409 29.781C19.4718 30.7116 19.9423 31.7413 20.2328 32.8274C20.6267 33.9567 21.2701 34.1405 21.8085 33.9829C21.8742 34.6395 21.9398 35.2172 21.9792 35.6768C22.2024 38.303 28.374 43.3847 29.7659 44.9998C31.1578 46.615 33.2587 45.919 33.9547 45.8796H35.0052H36.0556C36.7516 45.8796 38.9313 46.4968 40.2444 44.9998C41.5575 43.5029 47.8079 38.2505 48.0311 35.6768C48.0311 35.2172 48.1362 34.6395 48.2018 33.9829C48.7402 34.1011 49.3836 33.9829 49.7775 32.8274C50.0761 31.7396 50.5555 30.7098 51.1957 29.781C52.2724 28.1134 52.0623 23.2286 49.5412 25.1064Z" fill="#F4C297"/>
<path d="M48.9759 23.5309C48.9759 24.3713 47.4527 31.0156 47.2032 33.1297C46.7174 37.1478 43.8286 39.0255 42.9882 39.9578C42.1478 40.8901 39.364 41.8093 38.1822 42.2295C36.1023 42.6497 33.9593 42.6497 31.8794 42.2295C30.6976 41.8093 27.9401 40.9164 27.0734 39.9578C26.2068 38.9992 23.3442 37.1478 22.8584 33.1297C22.6089 31.0156 21.0988 24.3713 21.0988 23.5309C21.0988 22.9663 20.823 23.1764 20.6523 23.8198L20.8099 25.1329C20.8099 25.1329 21.6766 34.0357 21.8341 34.0095C21.8998 34.666 21.9654 35.2438 22.0048 35.7034C22.0321 35.9572 22.0985 36.2052 22.2018 36.4387C22.5169 36.9245 23.0028 37.7518 23.62 38.671C25.6159 41.1265 28.8724 43.9234 29.7915 45.0264C31.1046 46.5233 33.2844 45.9455 33.9803 45.9061H35.0308H36.0813C36.7772 45.9061 38.957 46.5233 40.2701 45.0264C41.2286 43.9102 44.4457 41.0871 46.4416 38.671C47.0588 37.7255 47.5446 36.9245 47.8598 36.4387C47.9631 36.2052 48.0295 35.9572 48.0568 35.7034C48.0568 35.2438 48.1618 34.666 48.2275 34.0095C48.385 34.0095 49.2517 25.1329 49.2517 25.1329L49.4092 23.8198C49.2385 23.1764 48.9759 22.9663 48.9759 23.5309Z" fill="#8C6139"/>
<path d="M39.4307 37.7386C38.1651 36.6731 36.6528 35.9418 35.0318 35.6113C33.4072 35.9429 31.8909 36.674 30.6198 37.7386C28.7683 39.4193 30.6198 42.4526 30.6198 42.4526L31.0399 41.9273C29.0309 37.8699 34.9792 37.6335 34.9792 37.6335C34.9792 37.6335 40.9801 37.8699 38.9185 41.9273L39.3256 42.4526C39.3256 42.4526 41.2427 39.3931 39.4307 37.7386Z" fill="#8C6139"/>
<path d="M36.3803 42.2294C35.9963 41.9225 35.5194 41.7554 35.0279 41.7554C34.5363 41.7554 34.0594 41.9225 33.6754 42.2294C33.0976 42.794 31.8633 42.3869 31.8633 42.3869L34.345 44.4222L35.0279 43.7526L35.7107 44.4222L38.1924 42.3869C38.1924 42.3869 36.9581 42.794 36.3803 42.2294Z" fill="#8C6139"/>
<path d="M46.8634 0C46.8634 0 47.5331 1.87773 33.3778 1.87773C33.089 1.87773 32.7738 1.87773 32.4193 1.87773C18.9206 2.49489 19.6034 15.3895 19.6034 15.3895C19.6338 18.6668 20.0301 21.9304 20.7852 25.1196L21.0741 23.5439C21.205 22.3604 21.4602 21.1941 21.8357 20.0642L21.9407 19.7622C22.1325 19.2113 22.3561 18.672 22.6104 18.147C26.2871 10.8068 35.0061 13.1967 35.0061 13.1967C35.0061 13.1967 43.7251 10.8068 47.4018 18.1602C47.6572 18.6694 47.8766 19.196 48.0583 19.7359L48.1765 20.0773C48.545 21.2054 48.8044 22.3662 48.9512 23.5439L49.227 25.1196C49.6078 23.0843 50.028 21.0621 50.2512 19.0268C51.1551 12.486 49.9694 5.82683 46.8634 0Z" fill="#8C6139"/>
<g style="mix-blend-mode:multiply">
<path d="M35.0342 1.8645H33.3666C33.0777 1.8645 32.7626 1.8645 32.408 1.8645C18.9225 2.49479 19.6053 15.3894 19.6053 15.3894C19.6357 18.6667 20.032 21.9303 20.7871 25.1195H20.5114C17.9771 23.2418 17.767 28.1265 18.8175 29.7941C19.4563 30.7189 19.9357 31.7442 20.2356 32.8274C20.6295 33.9567 21.273 34.1405 21.8113 33.9829C21.877 34.6395 21.9426 35.2173 21.982 35.6768C22.0078 35.9267 22.0743 36.1707 22.179 36.399C22.5475 37.2044 23.0246 37.9555 23.5971 38.6313L24.3193 39.4848L24.5294 39.7081L25.1729 40.404L25.3304 40.5747L26.1708 41.4282L26.9981 42.2423L27.0769 42.3211L28.39 43.6342C28.4181 45.3917 28.1472 47.1412 27.589 48.8078C27.589 48.8078 31.1737 52.9704 34.9555 52.7471L35.0342 1.8645Z" fill="#E8D6C5"/>
</g>
<path d="M35.0309 52.7472L29.7785 58.7218L24.8281 50.2655L27.6644 48.821C27.6644 48.821 31.8663 52.0513 35.0309 52.7472Z" fill="#BADECF"/>
<path d="M35.0312 52.7472L40.2837 58.7218L45.1815 50.2655L42.3452 48.821C42.3452 48.821 38.1958 52.0513 35.0312 52.7472Z" fill="#CFE8DD"/>
<path d="M32.441 55.7015L34.1218 58.7217L31.8633 73.4809L35.0279 78.5101V52.7471L32.441 55.7015Z" fill="#AD0007"/>
<path d="M37.6181 55.7015L35.9373 58.7217L38.1958 73.4809L35.0312 78.5101V52.7471L37.6181 55.7015Z" fill="#C70A11"/>
<path d="M65.9792 5.4624C54.4896 5.4624 45.1797 12.4087 45.1797 21.0095C45.1797 26.5508 49.119 31.4093 54.9754 34.1405L49.224 44.0676L62.6964 36.2809C63.7851 36.4219 64.8814 36.4964 65.9792 36.5041C77.4688 36.5041 86.7918 29.5578 86.7918 20.9964C86.7918 12.435 77.4688 5.4624 65.9792 5.4624Z" fill="#F0850C"/>
<path d="M86.7931 21.0095C86.7931 29.5709 77.4701 36.5172 65.9805 36.5172V5.4624C77.4701 5.4624 86.7931 12.4087 86.7931 21.0095Z" fill="#FFAE0D"/>
<path d="M35.0329 80.9394V78.5102L20.5888 52.7603H19.9848C15.4152 55.1501 10.2285 57.7763 9.40123 58.2227C7.8649 59.0763 4.91043 59.352 1.6802 74.5183C1.18122 76.8556 0.682241 78.9697 0.222656 80.9394H35.0329Z" fill="#123655"/>
<path d="M69.8547 80.9393C69.382 78.9696 68.883 76.8555 68.384 74.5182C65.1538 59.3519 62.2518 59.0893 60.663 58.2226C59.8357 57.7762 54.649 55.1106 50.0137 52.7339H49.4097L35.0312 78.51V80.9393H69.8547Z" fill="#235982"/>
<path d="M80.3178 59.5229H43.2753C42.3833 59.5229 41.6602 60.2461 41.6602 61.1381V88.3849C41.6602 89.2769 42.3833 90 43.2753 90H80.3178C81.2098 90 81.9329 89.2769 81.9329 88.3849V61.1381C81.9329 60.2461 81.2098 59.5229 80.3178 59.5229Z" fill="#C3DCEB"/>
<path d="M61.8031 59.5229H43.2753C42.8492 59.5229 42.4404 59.6913 42.1378 59.9913C41.8353 60.2914 41.6636 60.6989 41.6602 61.1249V88.3849C41.6636 88.8122 41.8349 89.221 42.137 89.5232C42.4392 89.8253 42.848 89.9966 43.2753 90H61.8031V59.5229Z" fill="#9EC4D9"/>
<path d="M68.1595 51.7493H55.4356C54.6811 51.8571 53.9985 52.2549 53.5326 52.8581C53.0668 53.4612 52.8544 54.2223 52.9407 54.9795V62.5167C52.8547 63.2724 53.0674 64.0319 53.5335 64.6329C53.9996 65.234 54.6822 65.629 55.4356 65.7338H68.1595C68.9129 65.629 69.5955 65.234 70.0616 64.6329C70.5277 64.0319 70.7405 63.2724 70.6544 62.5167V54.9795C70.7407 54.2223 70.5284 53.4612 70.0625 52.8581C69.5966 52.2549 68.914 51.8571 68.1595 51.7493ZM67.503 62.5298H56.1578V54.9664H67.503V62.5298Z" fill="#8C6139"/>
<g style="mix-blend-mode:multiply">
<path d="M52.9416 54.927V62.3854C52.863 63.1354 53.0795 63.8865 53.5452 64.4797C54.0109 65.0728 54.6892 65.4614 55.4365 65.5631H61.805V62.3854H56.1587V54.927H61.805V51.7493H55.4365C54.6892 51.8509 54.0109 52.2395 53.5452 52.8327C53.0795 53.4258 52.863 54.1769 52.9416 54.927Z" fill="#EDE4DC"/>
</g>
<path d="M80.3178 59.5229H43.2753C42.3833 59.5229 41.6602 60.2461 41.6602 61.1381V70.0015C41.6602 70.8935 42.3833 71.6166 43.2753 71.6166H80.3178C81.2098 71.6166 81.9329 70.8935 81.9329 70.0015V61.1381C81.9329 60.2461 81.2098 59.5229 80.3178 59.5229Z" fill="#C70A11"/>
<path d="M61.8031 59.5229H43.2753C42.8492 59.5229 42.4404 59.6913 42.1378 59.9913C41.8353 60.2914 41.6636 60.6989 41.6602 61.1249V70.0015C41.6636 70.4288 41.8349 70.8376 42.137 71.1397C42.4392 71.4419 42.848 71.6132 43.2753 71.6166H61.8031V59.5229Z" fill="#AD0007"/>
<path d="M52.2993 70.1982H47.6641V74.8204H52.2993V70.1982Z" fill="#CFE8DD"/>
<path d="M51.3921 71.1042H48.582V73.9143H51.3921V71.1042Z" fill="#123655"/>
<path d="M75.936 70.1982H71.3008V74.8204H75.936V70.1982Z" fill="#E8F6EF"/>
<path d="M75.0132 71.1042H72.2031V73.9143H75.0132V71.1042Z" fill="#235982"/>
<path d="M55.7914 23.2813C55.7936 23.139 55.7641 22.9981 55.7051 22.8686C55.646 22.7391 55.5589 22.6244 55.45 22.5329C55.1929 22.3269 54.9105 22.1548 54.6096 22.0207C54.2682 21.8632 53.9137 21.6925 53.5066 21.5349C53.1212 21.3709 52.7556 21.1639 52.4167 20.9177C52.0753 20.6789 51.7888 20.3701 51.5764 20.0117C51.3341 19.5938 51.2157 19.1156 51.2349 18.6329C51.2212 18.1823 51.3063 17.7341 51.4844 17.3198C51.6393 16.9694 51.8783 16.6627 52.1804 16.4269C52.4915 16.1827 52.8488 16.004 53.2309 15.9017C53.659 15.7867 54.1006 15.7293 54.544 15.731C55.0943 15.7299 55.6436 15.7782 56.1853 15.8754C56.6422 15.9536 57.0848 16.0997 57.4984 16.3088L56.8813 17.9501C56.5892 17.7876 56.2752 17.6682 55.949 17.5956C55.5206 17.4814 55.0792 17.424 54.6359 17.4249C54.2692 17.401 53.9049 17.4978 53.5985 17.7006C53.4813 17.7803 53.3862 17.8882 53.3219 18.0145C53.2576 18.1408 53.2263 18.2812 53.2309 18.4228C53.2288 18.5594 53.2586 18.6946 53.3178 18.8177C53.3771 18.9408 53.4642 19.0483 53.5723 19.1319C53.8085 19.3604 54.0787 19.5509 54.3733 19.6966C54.7015 19.8673 55.0692 20.0248 55.4631 20.2087C55.8552 20.3674 56.2257 20.5748 56.5661 20.8258C56.9009 21.0668 57.1862 21.37 57.4065 21.7187C57.6368 22.117 57.7505 22.572 57.7348 23.0318C57.7423 23.4833 57.6528 23.9311 57.4722 24.3449C57.3112 24.721 57.0584 25.0506 56.7368 25.3035C56.3935 25.5704 56.0008 25.7668 55.5813 25.8813C55.0924 26.0069 54.5892 26.0687 54.0844 26.0651C53.4529 26.0737 52.8226 26.0076 52.2066 25.8681C51.7948 25.776 51.3942 25.6395 51.0117 25.4611L51.642 23.7934C51.7739 23.8667 51.9098 23.9324 52.0491 23.9904C52.2066 23.9904 52.4036 24.1086 52.6137 24.1742L53.2703 24.3187C53.5108 24.3322 53.7519 24.3322 53.9925 24.3187C54.4478 24.3379 54.9003 24.2384 55.3056 24.0298C55.4397 23.9521 55.5537 23.8438 55.6381 23.7137C55.7225 23.5837 55.7751 23.4355 55.7914 23.2813Z" fill="#123655"/>
<path d="M63.9442 23.7542H60.9372L60.1756 25.9603H58.1797L61.7644 15.915H63.2089L66.7936 25.9603H64.7452L63.9442 23.7542ZM61.318 22.1785H63.5634L62.7755 19.9594L62.4735 18.3837L62.1715 19.9725L61.318 22.1785Z" fill="#123655"/>
<path d="M73.9644 25.9598H67.6484V15.9802H69.605V24.2265H73.9644V25.9598Z" fill="#235982"/>
<path d="M74.9766 15.9802H80.8855V17.7267H76.9462V20.0377H80.5441V21.7841H76.9331V24.2265H80.9643V25.9598H74.9766V15.9802Z" fill="#235982"/>
</svg>
