<svg width="81" height="91" viewBox="0 0 81 91" fill="none" xmlns="http://www.w3.org/2000/svg">
<path d="M66.1001 6.6145H55.8164V24.7047H66.1001V6.6145Z" fill="#C49568"/>
<mask id="mask0_845_22617" style="mask-type:luminance" maskUnits="userSpaceOnUse" x="14" y="6" width="58" height="74">
<path d="M42.7355 6.10571L14.2812 27.5033V79.3369H71.1897V27.5033L42.7355 6.10571Z" fill="white"/>
</mask>
<g mask="url(#mask0_845_22617)">
<path d="M28.3239 69.5754H12.7109V77.8238H28.3239V69.5754Z" fill="#C49568"/>
<path d="M29.0982 78.5735H11.9453V68.8254H29.0982V78.5735ZM13.5655 77.0738H27.6119V70.3787H13.5655V77.0738Z" fill="#AD825A"/>
<path d="M43.9238 69.5754H28.3242V77.8238H43.9238V69.5754Z" fill="#C49568"/>
<path d="M44.717 78.5735H27.5508V68.8254H44.717V78.5735ZM29.1041 77.0738H43.1504V70.3787H29.1041V77.0738Z" fill="#AD825A"/>
<path d="M59.5254 69.5754H43.9258V77.8238H59.5254V69.5754Z" fill="#C49568"/>
<path d="M60.3108 78.5735H43.1445V68.8254H60.3108V78.5735ZM44.7112 77.0738H58.7575V70.3787H44.7112V77.0738Z" fill="#AD825A"/>
<path d="M75.1521 69.5754H59.5391V77.8238H75.1521V69.5754Z" fill="#C49568"/>
<path d="M75.9241 78.5735H58.7578V68.8254H75.9241V78.5735ZM60.3111 77.0738H74.3574V70.3787H60.3111V77.0738Z" fill="#AD825A"/>
<path d="M22.0818 61.3271H6.46875V69.5755H22.0818V61.3271Z" fill="#C49568"/>
<path d="M22.8616 70.3252H5.69531V60.5771H22.8616V70.3252ZM7.26197 68.8255H21.3083V62.1304H7.26197V68.8255Z" fill="#AD825A"/>
<path d="M37.6816 61.3271H22.082V69.5755H37.6816V61.3271Z" fill="#C49568"/>
<path d="M38.4749 70.3252H21.3086V60.5771H38.4749V70.3252ZM22.8619 68.8255H36.9082V62.1304H22.8619V68.8255Z" fill="#AD825A"/>
<path d="M53.2871 61.3271H37.6875V69.5755H53.2871V61.3271Z" fill="#C49568"/>
<path d="M54.0725 70.3252H36.9062V60.5771H54.0725V70.3252ZM38.4729 68.8255H52.5193V62.1304H38.4729V68.8255Z" fill="#AD825A"/>
<path d="M68.9004 61.3271H53.3008V69.5755H68.9004V61.3271Z" fill="#C49568"/>
<path d="M69.6724 70.3252H52.5195V60.5771H69.6724V70.3252ZM54.0728 68.8255H68.1192V62.1304H54.0728V68.8255Z" fill="#AD825A"/>
<path d="M84.4981 61.3271H68.8984V69.5755H84.4981V61.3271Z" fill="#C49568"/>
<path d="M85.2834 70.3252H68.1172V60.5771H85.2834V70.3252ZM69.6704 68.8255H83.7168V62.1304H69.6704V68.8255Z" fill="#AD825A"/>
<path d="M27.8161 53.0786H12.2031V61.327H27.8161V53.0786Z" fill="#C49568"/>
<path d="M28.5882 62.0769H11.4219V52.3289H28.5882V62.0769ZM12.9751 60.5772H27.0215V53.8821H12.9751V60.5772Z" fill="#AD825A"/>
<path d="M43.4004 53.0786H27.8008V61.327H43.4004V53.0786Z" fill="#C49568"/>
<path d="M44.1936 62.0769H27.0273V52.3289H44.1936V62.0769ZM28.594 60.5772H42.6404V53.8821H28.594V60.5772Z" fill="#AD825A"/>
<path d="M59.0137 53.0786H43.4141V61.327H59.0137V53.0786Z" fill="#C49568"/>
<path d="M59.8069 62.0769H42.6406V52.3289H59.8069V62.0769ZM44.1939 60.5772H58.2402V53.8821H44.1939V60.5772Z" fill="#AD825A"/>
<path d="M74.6152 53.0786H59.0156V61.327H74.6152V53.0786Z" fill="#C49568"/>
<path d="M75.4045 62.0769H58.2383V52.3289H75.4045V62.0769ZM59.8049 60.5772H73.8245V53.8821H59.8049V60.5772Z" fill="#AD825A"/>
<path d="M19.9941 44.8303H4.39453V53.0787H19.9941V44.8303Z" fill="#C49568"/>
<path d="M20.7874 53.8286H3.62109V44.1475H20.7874V53.8286ZM5.18775 52.3289H19.2207V45.6338H5.18775V52.3289Z" fill="#AD825A"/>
<path d="M35.5957 44.8303H19.9961V53.0787H35.5957V44.8303Z" fill="#C49568"/>
<path d="M36.3276 53.8286H19.2148V44.1475H36.3276V53.8286ZM20.7279 52.3289H34.7743V45.6338H20.7815L20.7279 52.3289Z" fill="#AD825A"/>
<path d="M51.209 44.8303H35.6094V53.0787H51.209V44.8303Z" fill="#C49568"/>
<path d="M51.9944 53.8286H34.8281V44.1475H51.9944V53.8286ZM36.3278 52.3289H50.3742V45.6338H36.3278V52.3289Z" fill="#AD825A"/>
<path d="M66.8066 44.8303H51.207V53.0787H66.8066V44.8303Z" fill="#C49568"/>
<path d="M67.5999 53.8286H50.4336V44.1475H67.5999V53.8286ZM52.0002 52.3289H66.0466V45.6338H52.0002V52.3289Z" fill="#AD825A"/>
<path d="M82.4199 44.8303H66.8203V53.0787H82.4199V44.8303Z" fill="#C49568"/>
<path d="M83.1998 53.8286H66.0469V44.1475H83.1998V53.8286ZM67.6001 52.3289H81.6465V45.6338H67.6001V52.3289Z" fill="#AD825A"/>
<path d="M25.7168 36.582H10.1172V44.8304H25.7168V36.582Z" fill="#C49568"/>
<path d="M26.5022 45.5801H9.33594V35.832H26.5022V45.5801ZM10.8892 44.1474H24.9489V37.4522H10.8892V44.1474Z" fill="#AD825A"/>
<path d="M41.3301 36.582H25.7305V44.8304H41.3301V36.582Z" fill="#C49568"/>
<path d="M42.1155 45.5801H24.9492V35.832H42.1155V45.5801ZM26.5025 44.1474H40.5488V37.4522H26.5025V44.1474Z" fill="#AD825A"/>
<path d="M56.9278 36.582H41.3281V44.8304H56.9278V36.582Z" fill="#C49568"/>
<path d="M57.7533 45.5801H40.5469V35.832H57.7533V45.5801ZM42.1135 44.1474H56.1599V37.4522H42.1135V44.1474Z" fill="#AD825A"/>
<path d="M72.5371 36.582H56.9375V44.8304H72.5371V36.582Z" fill="#C49568"/>
<path d="M73.313 45.5801H56.1602V35.832H73.313V45.5801ZM57.7536 44.1474H71.7999V37.4522H57.7536V44.1474Z" fill="#AD825A"/>
<path d="M17.9199 28.3335H2.32031V36.5819H17.9199V28.3335Z" fill="#C49568"/>
<path d="M18.7087 37.3316H1.51562V27.5835H18.6819L18.7087 37.3316ZM3.09566 35.8319H17.142V29.1368H3.09566V35.8319Z" fill="#AD825A"/>
<path d="M33.5176 28.3335H17.918V36.5819H33.5176V28.3335Z" fill="#C49568"/>
<path d="M34.3108 37.3316H17.1445V27.5835H34.3108V37.3316ZM18.7112 35.8319H32.7575V29.1368H18.7112V35.8319Z" fill="#AD825A"/>
<path d="M49.1153 28.3335H33.5156V36.5819H49.1153V28.3335Z" fill="#C49568"/>
<path d="M49.9107 37.3316H32.7578V27.5835H49.9107V37.3316ZM34.3111 35.8319H48.3842V29.1368H34.3111V35.8319Z" fill="#AD825A"/>
<path d="M64.7419 28.3335H49.1289V36.5819H64.7419V28.3335Z" fill="#C49568"/>
<path d="M65.5223 37.3316H48.3828V27.5835H65.5223V37.3316ZM49.9093 35.8319H63.9557V29.1368H49.9093V35.8319Z" fill="#AD825A"/>
<path d="M80.334 28.3335H64.7344V36.5819H80.334V28.3335Z" fill="#C49568"/>
<path d="M81.1194 37.3316H63.9531V27.5835H81.1194V37.3316ZM65.5198 35.8319H79.5661V29.1368H65.5198V35.8319Z" fill="#AD825A"/>
<path d="M23.6387 20.0718H8.03906V28.3202H23.6387V20.0718Z" fill="#C49568"/>
<path d="M24.4241 29.0833H7.25781V19.3218H24.4241V29.0833ZM8.82449 27.5835H22.8574V20.8884H8.82449V27.5835Z" fill="#AD825A"/>
<path d="M39.2363 20.0718H23.6367V28.3202H39.2363V20.0718Z" fill="#C49568"/>
<path d="M40.0295 29.0833H22.8633V19.3218H40.0295V29.0833ZM24.4299 27.5835H38.4763V20.8884H24.4299V27.5835Z" fill="#AD825A"/>
<path d="M54.8496 20.0718H39.25V28.3202H54.8496V20.0718Z" fill="#C49568"/>
<path d="M55.6428 29.0833H38.4766V19.3218H55.6428V29.0833ZM40.0298 27.5835H54.0762V20.8884H40.0298V27.5835Z" fill="#AD825A"/>
<path d="M70.4646 20.0718H54.8516V28.3202H70.4646V20.0718Z" fill="#C49568"/>
<path d="M71.2405 29.0833H54.0742V19.3218H71.2405V29.0833ZM55.6409 27.5835H69.6872V20.8884H55.6409V27.5835Z" fill="#AD825A"/>
<path d="M86.0605 20.0718H70.4609V28.3202H86.0605V20.0718Z" fill="#C49568"/>
<path d="M86.8538 29.0833H69.6875V19.3218H86.8538V29.0833ZM71.2408 27.5835H85.2871V20.8884H71.2408V27.5835Z" fill="#AD825A"/>
<path d="M15.8301 11.8235H0.230469V20.0719H15.8301V11.8235Z" fill="#C49568"/>
<path d="M16.6233 20.835H-0.542969V11.0735H16.6233V20.835ZM1.02369 19.3219H15.07V12.6268H1.02369V19.3219Z" fill="#AD825A"/>
<path d="M31.4434 11.8235H15.8438V20.0719H31.4434V11.8235Z" fill="#C49568"/>
<path d="M32.2366 20.835H15.0703V11.0735H32.2366V20.835ZM16.6236 19.3219H30.6699V12.6268H16.6236V19.3219Z" fill="#AD825A"/>
<path d="M47.0449 11.8235H31.4453V20.0719H47.0449V11.8235Z" fill="#C49568"/>
<path d="M47.8342 20.835H30.668V11.0735H47.8342V20.835ZM32.2346 19.3219H46.281V12.6268H32.2346V19.3219Z" fill="#AD825A"/>
<path d="M62.6582 11.8235H47.0586V20.0719H62.6582V11.8235Z" fill="#C49568"/>
<path d="M63.4475 20.835H46.2812V11.0735H63.4475V20.835ZM47.8345 19.3219H61.8809V12.6268H47.8345V19.3219Z" fill="#AD825A"/>
<path d="M78.2559 11.8235H62.6562V20.0719H78.2559V11.8235Z" fill="#C49568"/>
<path d="M79.0491 20.835H61.8828V11.0735H79.0491V20.835ZM63.4495 19.3219H77.4824V12.6268H63.4495V19.3219Z" fill="#AD825A"/>
<path d="M21.5739 3.57495H5.96094V11.8233H21.5739V3.57495Z" fill="#C49568"/>
<path d="M22.3499 12.5864H5.18359V2.82495H22.3499V12.5864ZM6.73684 11.0733H20.7832V4.37822H6.73684V11.0733Z" fill="#AD825A"/>
<path d="M37.1582 3.57495H21.5586V11.8233H37.1582V3.57495Z" fill="#C49568"/>
<path d="M37.9514 12.5864H20.7852V2.82495H37.9514V12.5864ZM22.3518 11.0733H36.3982V4.37822H22.3518V11.0733Z" fill="#AD825A"/>
<path d="M52.7715 3.57495H37.1719V11.8233H52.7715V3.57495Z" fill="#C49568"/>
<path d="M53.5647 12.5864H36.3984V2.82495H53.5647V12.5864ZM37.9517 11.0733H51.998V4.37822H37.9517V11.0733Z" fill="#AD825A"/>
<path d="M68.3769 3.57495H52.7773V11.8233H68.3769V3.57495Z" fill="#C49568"/>
<path d="M69.1624 12.5864H51.9961V2.82495H69.1624V12.5864ZM53.5627 11.0733H67.6091V4.37822H53.5627V11.0733Z" fill="#AD825A"/>
<path d="M83.9746 3.57495H68.375V11.8233H83.9746V3.57495Z" fill="#C49568"/>
<path d="M84.7623 12.5864H67.6094V2.82495H84.7623V12.5864ZM69.1626 11.0733H83.1956V4.37822H69.1626V11.0733Z" fill="#AD825A"/>
</g>
<path d="M8.73604 32.8863L5.84375 29.204L42.7338 0.401611L79.6105 29.204L76.7316 32.8863L42.7338 6.33348L8.73604 32.8863Z" fill="#C70A11"/>
<path d="M67.2062 3.94995H54.7266V7.52514H67.2062V3.94995Z" fill="#AD825A"/>
<path d="M51.395 40.7061H34.0547V76.2169H51.395V40.7061Z" fill="#F3EAE1"/>
<path d="M74.9644 74.9717H10.5039V80.3679H74.9644V74.9717Z" fill="#B1A8A1"/>
<path d="M50.0964 24.7047C50.0964 26.1613 49.6645 27.5852 48.8553 28.7963C48.046 30.0074 46.8959 30.9513 45.5501 31.5087C44.2044 32.0661 42.7236 32.212 41.295 31.9278C39.8664 31.6437 38.5542 30.9423 37.5242 29.9123C36.4943 28.8823 35.7929 27.5701 35.5087 26.1415C35.2245 24.7129 35.3704 23.2321 35.9278 21.8864C36.4852 20.5407 37.4291 19.3905 38.6402 18.5813C39.8514 17.772 41.2752 17.3401 42.7318 17.3401C44.685 17.3401 46.5582 18.116 47.9394 19.4971C49.3205 20.8783 50.0964 22.7515 50.0964 24.7047Z" fill="#F3EAE1"/>
<path d="M48.582 24.7048C48.582 25.8621 48.2388 26.9935 47.5958 27.9557C46.9528 28.918 46.039 29.668 44.9697 30.1109C43.9005 30.5538 42.7239 30.6697 41.5889 30.4439C40.4538 30.2181 39.4111 29.6608 38.5928 28.8425C37.7744 28.0241 37.2171 26.9815 36.9913 25.8464C36.7656 24.7113 36.8814 23.5347 37.3243 22.4655C37.7672 21.3963 38.5172 20.4824 39.4795 19.8394C40.4418 19.1965 41.5731 18.8533 42.7304 18.8533C44.2824 18.8533 45.7707 19.4698 46.8681 20.5671C47.9655 21.6645 48.582 23.1529 48.582 24.7048Z" fill="#C3DCEB"/>
<path d="M47.7403 28.8424L43.6027 24.7048L47.7403 20.5673L46.91 19.7371L42.7725 23.8746L38.6349 19.7371L37.8047 20.5673L41.9423 24.7048L37.8047 28.8424L38.6349 29.6726L42.7725 25.535L46.91 29.6726L47.7403 28.8424Z" fill="#F3EAE1"/>
<path d="M28.649 37.3853H19.9453V69.0799H28.649V37.3853Z" fill="#F3EAE1"/>
<g style="mix-blend-mode:multiply">
<path d="M42.7717 6.1327L42.7316 6.09253L14.2773 27.5035V79.3237H42.7717V6.1327Z" fill="#EDE4DC"/>
</g>
<path d="M49.0896 43.0225H36.3555V52.1144H49.0896V43.0225Z" fill="#C3DCEB"/>
<path d="M49.0896 54.5649H36.3555V63.6569H49.0896V54.5649Z" fill="#C3DCEB"/>
<path d="M27.4792 59.1177H21.1055V67.7544H27.4792V59.1177Z" fill="#9EC4D9"/>
<path d="M27.4792 48.9143H21.1055V57.5644H27.4792V48.9143Z" fill="#9EC4D9"/>
<path d="M27.4792 38.7109H21.1055V47.3476H27.4792V38.7109Z" fill="#9EC4D9"/>
<path d="M65.5083 37.3853H56.8047V69.0799H65.5083V37.3853Z" fill="#F3EAE1"/>
<path d="M64.3581 59.1177H57.9844V67.7544H64.3581V59.1177Z" fill="#C3DCEB"/>
<path d="M64.3581 48.9143H57.9844V57.5644H64.3581V48.9143Z" fill="#C3DCEB"/>
<path d="M64.3581 38.7109H57.9844V47.3476H64.3581V38.7109Z" fill="#C3DCEB"/>
<path d="M51.0609 58.4615C51.0605 58.7292 50.98 58.9905 50.8297 59.2119C50.6794 59.4334 50.4662 59.6047 50.2176 59.7037C49.969 59.8028 49.6964 59.8251 49.435 59.7678C49.1736 59.7105 48.9354 59.5761 48.751 59.3821C48.5667 59.1881 48.4448 58.9433 48.4009 58.6793C48.3571 58.4153 48.3933 58.1442 48.505 57.901C48.6167 57.6578 48.7987 57.4537 49.0275 57.3149C49.2563 57.1762 49.5215 57.1091 49.7888 57.1225C49.9616 57.1223 50.1327 57.1573 50.2916 57.2253C50.4504 57.2934 50.5938 57.3931 50.7128 57.5185C50.8318 57.6438 50.9241 57.792 50.9839 57.9542C51.0438 58.1163 51.07 58.2889 51.0609 58.4615Z" fill="#F7AD3E"/>
<path d="M42.7694 43.0225H36.3555V52.1144H42.7694V43.0225Z" fill="#9EC4D9"/>
<path d="M42.7694 54.5649H36.3555V63.6569H42.7694V54.5649Z" fill="#9EC4D9"/>
<path d="M42.774 0.428392L42.7338 0.401611L5.84375 29.204L8.73604 32.8863L42.7338 6.33348L42.774 6.37365V0.428392Z" fill="#AD0007"/>
<path d="M42.7743 74.9717H10.5039V80.3679H42.7743V74.9717Z" fill="#A69990"/>
<path d="M38.2452 20.9956C37.3633 22.0302 36.8789 23.3452 36.8789 24.7047C36.8789 26.0642 37.3633 27.3792 38.2452 28.4138L41.9543 24.7047L38.2452 20.9956Z" fill="#9EC4D9"/>
<path d="M42.7688 18.8533C41.432 18.8628 40.1399 19.336 39.1133 20.1923L42.809 23.888L42.7688 18.8533Z" fill="#9EC4D9"/>
<path d="M42.7309 30.5565V25.5352L39.0352 29.2442C40.0783 30.0957 41.3843 30.5594 42.7309 30.5565Z" fill="#9EC4D9"/>
<path d="M80.6685 80.3681C80.8199 79.6776 80.8962 78.9727 80.8962 78.2658C80.9704 76.7821 80.6425 75.3059 79.9473 73.9932C79.252 72.6804 78.2151 71.5797 76.946 70.8075C76.946 70.6736 76.946 70.5396 76.946 70.3924C76.946 67.3528 75.0312 64.889 72.6478 64.889C72.1014 64.9055 71.5649 65.0397 71.0751 65.2823C70.5852 65.5249 70.1534 65.8703 69.8091 66.2949C68.4181 65.032 66.6128 64.3222 64.7342 64.2998C61.3197 64.2998 58.3336 66.7368 56.8071 70.3254C56.4422 70.245 56.0695 70.2045 55.6958 70.2049C52.2143 70.2049 49.4023 73.8069 49.4023 78.239C49.4023 78.9459 49.4786 79.6508 49.63 80.3413L80.6685 80.3681Z" fill="#53820E"/>
<path d="M4.80081 80.3681C4.66028 79.6761 4.58852 78.9719 4.58656 78.2658C4.51911 76.7756 4.85708 75.2949 5.56447 73.9815C6.27186 72.6681 7.32219 71.5712 8.60363 70.8075C8.60363 70.6736 8.60363 70.5396 8.60363 70.3924C8.60363 67.3528 10.5184 64.889 12.8885 64.889C13.4376 64.9018 13.9772 65.0343 14.4698 65.2771C14.9624 65.5199 15.3961 65.8673 15.7406 66.2949C17.1376 65.0332 18.9466 64.3239 20.8289 64.2998C24.2434 64.2998 27.216 66.7368 28.7559 70.3254C29.1209 70.245 29.4936 70.2045 29.8673 70.2049C33.3354 70.2049 36.1473 73.8069 36.1473 78.239C36.1454 78.9451 36.0736 79.6493 35.9331 80.3413L4.80081 80.3681Z" fill="#426908"/>
<path d="M54.7987 35.6847C52.3444 33.2277 49.2165 31.5538 45.8107 30.8749C42.4049 30.1959 38.8743 30.5424 35.6655 31.8705C32.4566 33.1986 29.7138 35.4486 27.7841 38.3359C25.8543 41.2232 24.8242 44.6179 24.8242 48.0907C24.8242 51.5635 25.8543 54.9583 27.7841 57.8456C29.7138 60.7328 32.4566 62.9828 35.6655 64.3109C38.8743 65.639 42.4049 65.9855 45.8107 65.3066C49.2165 64.6276 52.3444 62.9538 54.7987 60.4968C56.4444 58.8769 57.7514 56.9458 58.6436 54.8159C59.5357 52.686 59.9952 50.3999 59.9952 48.0907C59.9952 45.7815 59.5357 43.4954 58.6436 41.3655C57.7514 39.2356 56.4444 37.3045 54.7987 35.6847Z" fill="#235982"/>
<path d="M29.9835 35.6847C27.5331 38.1404 25.8653 41.2672 25.1906 44.6701C24.516 48.073 24.8647 51.5995 26.1928 54.8044C27.5209 58.0093 29.7687 60.7488 32.6526 62.677C35.5365 64.6053 38.9271 65.6359 42.3962 65.6386V30.5428C40.0898 30.5348 37.8047 30.9852 35.6738 31.8679C33.5429 32.7506 31.6087 34.048 29.9835 35.6847Z" fill="#1A4362"/>
<path d="M52.7454 58.448C50.6976 60.4989 48.0874 61.8962 45.2452 62.4632C42.403 63.0302 39.4565 62.7414 36.7785 61.6333C34.1005 60.5252 31.8114 58.6476 30.2008 56.2382C28.5902 53.8287 27.7305 50.9956 27.7305 48.0974C27.7305 45.1992 28.5902 42.3661 30.2008 39.9566C31.8114 37.5472 34.1005 35.6696 36.7785 34.5615C39.4565 33.4534 42.403 33.1646 45.2452 33.7316C48.0874 34.2986 50.6976 35.6959 52.7454 37.7468C55.4879 40.4933 57.0283 44.216 57.0283 48.0974C57.0283 51.9788 55.4879 55.7015 52.7454 58.448Z" fill="#F3EAE1"/>
<path d="M29.3225 58.5216L24.0117 63.8342L26.6823 66.5038L31.9931 61.1912L29.3225 58.5216Z" fill="#1A4362"/>
<path d="M9.93997 88.8039C9.43494 89.3103 8.83495 89.7122 8.17435 89.9864C7.51375 90.2606 6.80552 90.4017 6.09028 90.4017C5.37503 90.4017 4.66683 90.2606 4.00623 89.9864C3.34563 89.7122 2.74561 89.3103 2.24059 88.8039L1.6916 88.2549C1.18512 87.7498 0.783258 87.1498 0.509068 86.4892C0.234879 85.8286 0.09375 85.1204 0.09375 84.4052C0.09375 83.6899 0.234879 82.9817 0.509068 82.3211C0.783258 81.6605 1.18512 81.0605 1.6916 80.5555L18.0009 64.2328C19.0243 63.2164 20.4082 62.646 21.8506 62.646C23.293 62.646 24.6768 63.2164 25.7003 64.2328L26.2493 64.7952C26.7635 65.2944 27.1723 65.8918 27.4515 66.5519C27.7307 67.212 27.8745 67.9215 27.8745 68.6382C27.8745 69.3549 27.7307 70.0643 27.4515 70.7244C27.1723 71.3846 26.7635 71.9819 26.2493 72.4812L9.93997 88.8039Z" fill="#F0850C"/>
<g style="mix-blend-mode:multiply">
<path d="M42.3964 33.4354C40.4363 33.3761 38.4843 33.711 36.656 34.4202C34.8278 35.1293 33.1605 36.1984 31.753 37.5639C30.3456 38.9294 29.2267 40.5636 28.4625 42.3696C27.6984 44.1756 27.3047 46.1166 27.3047 48.0776C27.3047 50.0386 27.6984 51.9797 28.4625 53.7857C29.2267 55.5917 30.3456 57.2258 31.753 58.5914C33.1605 59.9569 34.8278 61.0259 36.656 61.7351C38.4843 62.4442 40.4363 62.7791 42.3964 62.7198V33.4354Z" fill="#EDE4DC"/>
</g>
<path d="M49.0377 44.6428C48.926 45.8946 48.4528 47.0869 47.6757 48.0746C46.8986 49.0622 45.8511 49.8026 44.6607 50.2056C43.4704 50.6086 42.1885 50.6569 40.9712 50.3444C39.754 50.032 38.6538 49.3724 37.8047 48.4459C36.9555 47.5194 36.3941 46.3661 36.1887 45.1262C35.9833 43.8864 36.1428 42.6136 36.6478 41.4628C37.1528 40.312 37.9815 39.3328 39.033 38.6446C40.0845 37.9563 41.3135 37.5886 42.5702 37.5862C44.363 37.6661 46.0508 38.454 47.2633 39.777C48.4758 41.1 49.1139 42.8499 49.0377 44.6428Z" fill="#FFAE0D"/>
<path d="M42.3956 37.613C40.6607 37.7988 39.0558 38.6194 37.8896 39.9172C36.7233 41.215 36.0781 42.8981 36.0781 44.6429C36.0781 46.3877 36.7233 48.0708 37.8896 49.3686C39.0558 50.6664 40.6607 51.487 42.3956 51.6728V37.613Z" fill="#F0850C"/>
<path d="M42.397 36.8096C40.4319 36.8131 38.5485 37.5962 37.1602 38.987C35.7719 40.3778 34.9922 42.2626 34.9922 44.2278C34.9922 50.5613 41.1651 58.1268 42.4104 58.1268C43.6557 58.1268 49.8152 50.5613 49.8152 44.2278C49.8152 42.2603 49.0336 40.3735 47.6424 38.9823C46.2513 37.5911 44.3644 36.8096 42.397 36.8096ZM42.397 48.7001C41.5087 48.7027 40.6395 48.4416 39.8998 47.9497C39.1601 47.4578 38.5831 46.7574 38.2419 45.9372C37.9007 45.117 37.8108 44.2139 37.9834 43.3425C38.1561 42.4711 38.5836 41.6706 39.2117 41.0425C39.8399 40.4144 40.6404 39.9869 41.5118 39.8142C42.3832 39.6415 43.2862 39.7315 44.1064 40.0727C44.9266 40.4138 45.627 40.9909 46.1189 41.7306C46.6108 42.4703 46.872 43.3394 46.8693 44.2278C46.8658 45.4128 46.3935 46.5483 45.5555 47.3863C44.7175 48.2242 43.582 48.6966 42.397 48.7001Z" fill="#C70A11"/>
<path d="M42.397 48.7001C41.7882 48.7334 41.179 48.6422 40.6066 48.4322C40.0342 48.2221 39.5107 47.8976 39.0679 47.4784C38.6252 47.0592 38.2725 46.5542 38.0315 45.9941C37.7906 45.4341 37.6663 44.8308 37.6663 44.2211C37.6663 43.6114 37.7906 43.008 38.0315 42.448C38.2725 41.8879 38.6252 41.3829 39.0679 40.9637C39.5107 40.5445 40.0342 40.22 40.6066 40.0099C41.179 39.7999 41.7882 39.7087 42.397 39.742V36.8096C40.4319 36.8131 38.5485 37.5962 37.1602 38.987C35.7719 40.3778 34.9922 42.2626 34.9922 44.2278C34.9922 50.5613 41.1651 58.1134 42.4104 58.1268L42.397 48.7001Z" fill="#AD0007"/>
</svg>
