<svg width="95" height="91" viewBox="0 0 95 91" fill="none" xmlns="http://www.w3.org/2000/svg">
<path d="M89.3268 1.82886H0.527344V90.6283H89.3268V1.82886Z" fill="#9EC4D9"/>
<path d="M84.095 6.76562H5.76172V7.37344H84.095V6.76562Z" fill="#C3DCEB"/>
<path d="M84.095 13.8816H5.76172V14.4894H84.095V13.8816Z" fill="#C3DCEB"/>
<path d="M84.095 21.0122H5.76172V21.62H84.095V21.0122Z" fill="#C3DCEB"/>
<path d="M84.095 28.1282H5.76172V28.736H84.095V28.1282Z" fill="#C3DCEB"/>
<path d="M84.095 35.2437H5.76172V35.8515H84.095V35.2437Z" fill="#C3DCEB"/>
<path d="M84.095 42.3745H5.76172V42.9823H84.095V42.3745Z" fill="#C3DCEB"/>
<path d="M84.095 49.4902H5.76172V50.098H84.095V49.4902Z" fill="#C3DCEB"/>
<path d="M84.095 56.6211H5.76172V57.2289H84.095V56.6211Z" fill="#C3DCEB"/>
<path d="M84.095 63.7366H5.76172V64.3444H84.095V63.7366Z" fill="#C3DCEB"/>
<path d="M84.095 70.8525H5.76172V71.4603H84.095V70.8525Z" fill="#C3DCEB"/>
<path d="M84.095 77.9832H5.76172V78.591H84.095V77.9832Z" fill="#C3DCEB"/>
<path d="M84.095 85.0991H5.76172V85.7069H84.095V85.0991Z" fill="#C3DCEB"/>
<path d="M6.07656 7.06201H5.46875V85.3953H6.07656V7.06201Z" fill="#C3DCEB"/>
<path d="M13.1859 7.06201H12.5781V85.3953H13.1859V7.06201Z" fill="#C3DCEB"/>
<path d="M20.3031 7.06201H19.6953V85.3953H20.3031V7.06201Z" fill="#C3DCEB"/>
<path d="M27.4359 7.06201H26.8281V85.3953H27.4359V7.06201Z" fill="#C3DCEB"/>
<path d="M34.5492 7.06201H33.9414V85.3953H34.5492V7.06201Z" fill="#C3DCEB"/>
<path d="M41.682 7.06201H41.0742V85.3953H41.682V7.06201Z" fill="#C3DCEB"/>
<path d="M48.7953 7.06201H48.1875V85.3953H48.7953V7.06201Z" fill="#C3DCEB"/>
<path d="M55.9125 7.06201H55.3047V85.3953H55.9125V7.06201Z" fill="#C3DCEB"/>
<path d="M63.0453 7.06201H62.4375V85.3953H63.0453V7.06201Z" fill="#C3DCEB"/>
<path d="M70.1547 7.06201H69.5469V85.3953H70.1547V7.06201Z" fill="#C3DCEB"/>
<path d="M77.2719 7.06201H76.6641V85.3953H77.2719V7.06201Z" fill="#C3DCEB"/>
<path d="M84.4086 7.06201H83.8008V85.3953H84.4086V7.06201Z" fill="#C3DCEB"/>
<path d="M42.5708 78.8578H12.625V48.6304H42.5708V78.8578ZM14.404 77.1085H40.8659V50.4242H14.3595L14.404 77.1085Z" fill="#F3EAE1"/>
<path d="M56.0159 50.187H12.6836V13.8074H56.0159V50.187ZM14.4329 48.4377H54.2666V15.5567H14.4329V48.4377Z" fill="#F3EAE1"/>
<path d="M35.128 29.6104H12.6836V13.8074H35.128V29.6104ZM14.3736 27.8759H33.3194V15.5567H14.4329L14.3736 27.8759Z" fill="#F3EAE1"/>
<path d="M77.8563 50.1871H54.2852V27.9502H77.8563V50.1871ZM56.0196 48.4378H76.1218V29.6106H56.0196V48.4378Z" fill="#F3EAE1"/>
<path d="M40.8086 71.4752V48.4377H63.4755L63.4013 49.3717C62.9855 55.0102 60.5817 60.318 56.6179 64.3496C52.6542 68.3812 47.3879 70.8748 41.7573 71.3863L40.8086 71.4752ZM42.5579 50.187V69.548C47.4267 68.8877 51.9377 66.6272 55.3809 63.1222C58.8242 59.6172 61.0042 55.0668 61.5779 50.187H42.5579Z" fill="#F3EAE1"/>
<path d="M24.7805 73.7581H23.0312V82.1933H24.7805V73.7581Z" fill="#F3EAE1"/>
<path d="M29.6907 73.7581H27.9414V82.1933H29.6907V73.7581Z" fill="#F3EAE1"/>
<path d="M46.9134 45.28H45.1641V53.7152H46.9134V45.28Z" fill="#F3EAE1"/>
<path d="M51.8235 45.28H50.0742V53.7152H51.8235V45.28Z" fill="#F3EAE1"/>
<path d="M27.2298 24.5256H25.4805V32.9608H27.2298V24.5256Z" fill="#F3EAE1"/>
<path d="M32.136 24.5256H30.3867V32.9608H32.136V24.5256Z" fill="#F3EAE1"/>
<path d="M45.9079 65.4712H37.4727V67.2205H45.9079V65.4712Z" fill="#F3EAE1"/>
<path d="M45.9079 60.5791H37.4727V62.3284H45.9079V60.5791Z" fill="#F3EAE1"/>
<path d="M59.3532 37.1414H50.918V38.8907H59.3532V37.1414Z" fill="#F3EAE1"/>
<path d="M59.3532 32.2341H50.918V33.9834H59.3532V32.2341Z" fill="#F3EAE1"/>
<path d="M75.793 65.2341H77.6312C77.8523 65.2471 78.0739 65.2169 78.2835 65.1451C78.3533 65.1139 78.4112 65.061 78.4486 64.9942C78.486 64.9274 78.5009 64.8504 78.491 64.7745C78.494 64.6387 78.4464 64.5067 78.3576 64.4039C78.2696 64.3065 78.1569 64.2348 78.0315 64.1964H75.793V63.3069H79.173V63.9888L78.7282 64.0926C78.8735 64.204 78.9989 64.3394 79.0988 64.4929C79.2134 64.6798 79.2701 64.8964 79.2619 65.1155C79.2691 65.2978 79.2227 65.4781 79.1285 65.6343C79.0236 65.7923 78.8659 65.9079 78.6837 65.9605C78.8569 66.0577 79.0043 66.195 79.1137 66.3608C79.2198 66.5397 79.2714 66.7459 79.2619 66.9537C79.2698 67.1153 79.2446 67.2767 79.1878 67.4281C79.1459 67.5556 79.0688 67.6687 78.9654 67.7543C78.8314 67.8474 78.6803 67.9129 78.5207 67.947C78.2839 67.966 78.0459 67.966 77.8091 67.947H75.793V67.0575H77.6905C77.8862 67.0974 78.0878 67.0974 78.2835 67.0575C78.3531 67.0219 78.4102 66.966 78.4473 66.8971C78.4843 66.8283 78.4996 66.7498 78.491 66.6721C78.497 66.5358 78.4491 66.4027 78.3576 66.3015C78.2579 66.204 78.1357 66.1327 78.0018 66.0939H75.793V65.2341Z" fill="#F3EAE1"/>
<path d="M80.6574 69.8297C80.5204 69.8569 80.3793 69.8569 80.2423 69.8297C80.1037 69.783 79.9696 69.7234 79.842 69.6518L79.4566 69.3998L79.1156 69.133L78.9525 68.9106V69.2071V69.9631H78.5078V68.2138H78.7746L79.0118 68.4362L79.2935 68.6734L79.59 68.9106L79.9458 69.0885L80.2571 69.2367H80.5536C80.6502 69.239 80.7446 69.2076 80.8204 69.1478C80.8593 69.1096 80.8888 69.063 80.9068 69.0116C80.9248 68.9602 80.9308 68.9054 80.9242 68.8513C80.945 68.7636 80.945 68.6722 80.9242 68.5845C80.8977 68.501 80.852 68.4248 80.7908 68.3621L81.1614 68.1545C81.2468 68.2629 81.3167 68.3827 81.369 68.5103C81.4267 68.6972 81.4468 68.8937 81.4283 69.0885C81.4437 69.1967 81.4437 69.3065 81.4283 69.4146C81.3877 69.4989 81.338 69.5784 81.28 69.6518C81.219 69.7221 81.143 69.7778 81.0576 69.8149C80.928 69.8557 80.7897 69.8609 80.6574 69.8297Z" fill="#F3EAE1"/>
<path d="M77.5867 51.9956H76.3711V62.3284H77.5867V51.9956Z" fill="#F3EAE1"/>
<path d="M79.5613 51.3137H74.4023V52.5293H79.5613V51.3137Z" fill="#F3EAE1"/>
<path d="M77.5867 69.0439H76.3711V78.5169H77.5867V69.0439Z" fill="#F3EAE1"/>
<path d="M79.5613 77.9832H74.4023V79.1988H79.5613V77.9832Z" fill="#F3EAE1"/>
<g style="mix-blend-mode:multiply">
<path d="M45.2384 1.82886H0.527344V90.6283H45.2384V1.82886Z" fill="#D9EFFC"/>
</g>
<path d="M70.1756 0.628418C56.7445 0.628418 45.8633 10.5164 45.8633 20.5231C45.8633 27.0014 50.4441 33.5687 57.3079 36.8301L50.1773 45.8732L66.3361 39.3355C67.6098 39.4957 68.8919 39.5798 70.1756 39.5875C83.5178 39.5875 94.4732 30.589 94.4732 20.5824C94.4732 10.5757 83.5919 0.628418 70.1756 0.628418Z" fill="#53820E"/>
<path d="M94.4733 20.5231C94.4733 30.5297 83.5921 39.5282 70.1758 39.5282V0.628418C83.5921 0.628418 94.4733 10.5164 94.4733 20.5231Z" fill="#426908"/>
<path d="M68.0798 26.9865V20.686C68.1175 19.9172 68.012 19.1481 67.7685 18.4179C67.6586 18.1881 67.4792 17.9986 67.2558 17.8762C67.0323 17.7539 66.7761 17.7048 66.5233 17.7359C66.0552 17.7164 65.5962 17.8694 65.2335 18.1659C64.8976 18.4689 64.6428 18.8511 64.4923 19.2777V26.9865H61.5273V15.3937H63.8697L64.2254 16.8761H64.3144C64.6848 16.3703 65.1415 15.9337 65.6634 15.5864C66.302 15.1878 67.0461 14.9915 67.7982 15.023C68.4325 15.001 69.0599 15.1605 69.6068 15.4826C70.1263 15.8453 70.5159 16.3648 70.7186 16.9651C71.0426 16.365 71.5115 15.8554 72.0825 15.4826C72.6893 15.1146 73.3893 14.9293 74.0986 14.9489C74.6611 14.941 75.2213 15.021 75.759 15.1861C76.2046 15.3293 76.5937 15.6094 76.8708 15.9866C77.1855 16.4303 77.4028 16.9355 77.5083 17.4691C77.6588 18.2655 77.7284 19.0751 77.7158 19.8855V26.9865H74.7509V20.4785C74.7824 19.7813 74.6921 19.084 74.4841 18.4179C74.3622 18.1847 74.1718 17.9944 73.9386 17.8725C73.7054 17.7506 73.4406 17.703 73.1795 17.7359C72.7085 17.7133 72.2467 17.8725 71.8898 18.1807C71.5551 18.512 71.3146 18.9265 71.193 19.3815V26.9865H68.0798Z" fill="#F3EAE1"/>
<path d="M83.853 10.2791C83.8538 10.7839 83.7685 11.2853 83.601 11.7615C83.4294 12.2414 83.2109 12.7032 82.9487 13.1402C82.6934 13.5997 82.4061 14.0405 82.0889 14.4596C81.8044 14.8667 81.4975 15.2576 81.1697 15.6308L80.4433 16.1941L81.4218 15.9865H84.0606V17.469H78.3086V16.5499C78.5161 16.3275 78.7682 16.0607 79.035 15.7494C79.3019 15.438 79.5835 15.1267 79.8652 14.7857C80.1469 14.4448 80.4137 14.089 80.6805 13.7332C80.9474 13.3774 81.1698 12.992 81.3921 12.6362C81.5863 12.2903 81.75 11.9282 81.8813 11.554C82.0065 11.2428 82.0719 10.9109 82.0741 10.5756C82.0879 10.2412 81.9769 9.91358 81.7628 9.65643C81.6284 9.52548 81.4676 9.42469 81.2913 9.36078C81.1149 9.29687 80.9269 9.27131 80.7399 9.28582C80.43 9.28902 80.1235 9.34933 79.8355 9.46371C79.5577 9.58507 79.2982 9.74475 79.0647 9.9381L78.3531 8.69283C79.1359 8.035 80.1328 7.68691 81.1549 7.7144C81.522 7.71214 81.8871 7.76716 82.2371 7.87748C82.5459 7.98145 82.8326 8.14235 83.0821 8.35186C83.3232 8.57115 83.5151 8.83891 83.6455 9.13757C83.7891 9.50069 83.8597 9.88861 83.853 10.2791Z" fill="#F3EAE1"/>
<path d="M69.5677 15.5271C69.0209 15.2049 68.3934 15.0455 67.7591 15.0675C67.007 15.0359 66.2629 15.2323 65.6244 15.6308C65.1024 15.9782 64.6457 16.4148 64.2753 16.9206H64.1864L63.8306 15.4381H61.4883V26.9865H64.4532V19.2777C64.6037 18.8511 64.8585 18.4689 65.1944 18.1658C65.5572 17.8694 66.0162 17.7164 66.4842 17.7359C66.7371 17.7048 66.9933 17.7538 67.2167 17.8762C67.4402 17.9986 67.6195 18.188 67.7295 18.4179C67.9729 19.1481 68.0784 19.9172 68.0408 20.686V26.9865H70.1311V16.0904C69.9757 15.8727 69.7854 15.6824 69.5677 15.5271Z" fill="#F3EAE1"/>
<g style="mix-blend-mode:multiply">
<path d="M71.0487 19.3814C71.1703 18.9264 71.4108 18.512 71.7455 18.1806C72.1025 17.8724 72.5642 17.7132 73.0352 17.7359C73.2963 17.7029 73.5612 17.7506 73.7944 17.8725C74.0276 17.9944 74.2179 18.1847 74.3398 18.4178C74.5478 19.084 74.6381 19.7813 74.6066 20.4784V26.9865H77.5716V20.0337C77.5841 19.2233 77.5146 18.4137 77.364 17.6173C77.2585 17.0837 77.0413 16.5785 76.7266 16.1348C76.4494 15.7576 76.0603 15.4775 75.6147 15.3343C75.077 15.1692 74.5168 15.0892 73.9544 15.0971C73.245 15.0775 72.545 15.2628 71.9382 15.6308C71.3672 16.0036 70.8983 16.5132 70.5743 17.1133C70.4453 16.7778 70.276 16.4592 70.0703 16.1645V26.9865H71.0487V19.3814Z" fill="#E6CEBA"/>
</g>
<g style="mix-blend-mode:multiply">
<path d="M80.4488 16.2089L81.1752 15.6456C81.503 15.2725 81.8099 14.8815 82.0944 14.4745C82.4116 14.0554 82.6989 13.6145 82.9542 13.1551C83.2164 12.7181 83.4349 12.2563 83.6065 11.7764C83.774 11.3001 83.8593 10.7988 83.8585 10.2939C83.8594 9.9184 83.789 9.54612 83.6509 9.19689C83.5206 8.89823 83.3286 8.63048 83.0876 8.41119C82.838 8.20168 82.5514 8.04078 82.2426 7.9368C81.8925 7.82649 81.5274 7.77147 81.1604 7.77373C80.1382 7.74623 79.1414 8.09433 78.3585 8.75215L79.0701 9.99742C79.3037 9.80407 79.5632 9.64439 79.841 9.52304C80.1289 9.40866 80.4355 9.34835 80.7453 9.34514C80.9324 9.33064 81.1203 9.3562 81.2967 9.42011C81.4731 9.48402 81.6339 9.58481 81.7682 9.71576C81.9824 9.97291 82.0934 10.3005 82.0795 10.6349C82.0774 10.9702 82.012 11.3022 81.8868 11.6133C81.7683 12.0069 81.6145 12.3889 81.4273 12.7548C81.2049 13.1106 80.9677 13.4812 80.7157 13.8518C80.4636 14.2224 80.182 14.5634 79.9003 14.9044C79.6186 15.2453 79.3518 15.5715 79.0701 15.868C78.7885 16.1645 78.5513 16.4461 78.3438 16.6685V17.5876H84.0957V16.1052H81.4273L80.4488 16.2089Z" fill="#E6CEBA"/>
</g>
</svg>
