<svg width="105" height="91" viewBox="0 0 105 91" fill="none" xmlns="http://www.w3.org/2000/svg">
<path d="M92.6714 81.5366C92.2005 79.5744 91.7164 77.4814 91.2194 75.153C88.0014 60.0311 85.0581 59.7564 83.5276 58.9192C81.9971 58.082 65.3971 49.54 65.3971 49.54L58.0586 53.4644V81.5366H92.6714Z" fill="#E8F6EF"/>
<path d="M64.7316 40.7104L58.0471 39.7947L51.3626 40.7104C51.3626 40.7104 51.8466 46.7408 50.6562 49.5402C50.6562 49.5402 54.2666 53.7392 58.0471 53.4645C61.8276 53.7392 65.438 49.5402 65.438 49.5402C64.2345 46.7408 64.7316 40.7104 64.7316 40.7104Z" fill="#F4C297"/>
<path d="M72.4334 25.9155H72.1456C72.2764 24.9344 72.3942 23.9665 72.5119 23.0508C73.1267 18.3154 74.5264 4.4624 57.9918 4.4624C41.4572 4.4624 42.8438 18.3154 43.4586 23.0508C43.5763 23.9665 43.7071 24.9344 43.8249 25.9155H43.5371C41.0255 24.058 40.8162 28.9111 41.8627 30.5725C42.4947 31.5057 42.9717 32.5349 43.2754 33.6203C43.6548 34.7323 44.2958 34.9285 44.8452 34.7584C44.8452 35.4255 44.9629 36.0011 45.0022 36.459C45.2376 39.0098 51.3858 44.1376 52.7724 45.7335C54.159 47.3294 56.252 46.6492 56.9453 46.61H57.9918H59.0252C59.7185 46.61 61.9031 47.2379 63.1981 45.7335C64.4931 44.2292 70.7329 39.0098 70.9683 36.459C70.9683 36.0011 71.0599 35.4255 71.1384 34.7584C71.6747 34.8761 72.3157 34.7584 72.695 33.6203C73.0035 32.5367 73.4803 31.5082 74.1078 30.5725C75.1674 28.9111 74.9581 24.058 72.4334 25.9155Z" fill="#F4C297"/>
<path d="M71.9413 24.3458C71.9413 25.183 70.437 31.8021 70.1753 33.9082C69.7044 37.9241 66.8266 39.7816 65.9894 40.7104C65.1522 41.6392 62.379 42.5548 61.2017 42.9734C59.1252 43.392 56.9861 43.392 54.9096 42.9734C53.7454 42.5548 50.9852 41.6653 50.135 40.7104C49.2847 39.7555 46.4068 37.9241 45.9359 33.9082C45.6743 31.8021 44.1699 25.183 44.1699 24.3458C44.1699 23.7833 43.8953 23.9926 43.7383 24.6336L43.8952 25.9417C43.8952 25.9417 44.7586 34.8239 44.9156 34.7846C44.9156 35.4518 45.0333 36.0273 45.0725 36.4852C45.1093 36.7334 45.1797 36.9754 45.2819 37.2046C45.5827 37.6886 46.0798 38.5127 46.6946 39.4284C48.6699 41.8877 51.9271 44.6609 52.8428 45.7597C54.1509 47.2641 56.3224 46.6754 57.0157 46.6362H58.0622H59.0956C59.7889 46.6362 61.9734 47.2641 63.2685 45.7597C64.2365 44.6609 67.4414 41.8354 69.4297 39.4284L70.8425 37.2046C70.9349 36.973 71.0007 36.7316 71.0387 36.4852C71.0387 36.0273 71.1303 35.4518 71.2088 34.7846C71.3527 34.7846 72.216 25.9417 72.216 25.9417C72.216 25.5101 72.3206 25.0915 72.373 24.6336C72.1506 23.9926 71.9413 23.7833 71.9413 24.3458Z" fill="#8C6139"/>
<path d="M62.3797 38.5256C61.1189 37.4642 59.6123 36.7357 57.9975 36.4065C56.3876 36.7388 54.886 37.4671 53.6283 38.5256C51.7839 40.2131 53.6283 43.2349 53.6283 43.2349L54.0339 42.7116C52.0455 38.6565 57.9582 38.421 57.9582 38.421C57.9582 38.421 63.9232 38.6565 61.8826 42.7116L62.2881 43.2349C62.2881 43.2349 64.2241 40.1869 62.3797 38.5256Z" fill="#8C6139"/>
<path d="M59.3398 42.9866C58.9572 42.6809 58.4821 42.5144 57.9924 42.5144C57.5027 42.5144 57.0276 42.6809 56.6451 42.9866C56.0695 43.536 54.8398 43.1305 54.8398 43.1305L57.3122 45.1711L57.9924 44.4909L58.6596 45.1711L61.145 43.1305C61.145 43.1305 59.9153 43.536 59.3398 42.9866Z" fill="#8C6139"/>
<path d="M69.7797 0.904297C69.7797 0.904297 70.4469 2.7749 56.3453 2.7749H55.3904C41.8907 3.36355 42.6363 16.2093 42.6363 16.2093C42.6718 19.4702 43.071 22.717 43.8267 25.8893L44.1014 24.3196C44.2399 23.1451 44.4985 21.9879 44.8732 20.8662C44.9001 20.7633 44.9351 20.6627 44.9778 20.5653C45.1687 20.0122 45.3915 19.4706 45.6449 18.9432C49.3077 11.6309 57.9936 14.0247 57.9936 14.0247C57.9936 14.0247 66.6664 11.6309 70.3422 18.9563C70.5913 19.4706 70.8097 19.9991 70.9963 20.5391L71.114 20.8662C71.481 21.9892 71.7352 23.1461 71.8727 24.3196L72.1474 25.8893C72.5399 23.8748 72.9454 21.8473 73.1809 19.8197C74.0667 13.3137 72.8764 6.69416 69.7797 0.904297Z" fill="#8C6139"/>
<g style="mix-blend-mode:multiply">
<path d="M57.9931 2.76172H56.3318H55.3769C41.8771 3.35037 42.6228 16.1961 42.6228 16.1961C42.6582 19.457 43.0575 22.7038 43.8131 25.8761H43.5254C41.0138 24.0186 40.8045 28.8718 41.851 30.5331C42.483 31.4663 42.96 32.4956 43.2637 33.581C43.6431 34.6929 44.2841 34.8891 44.8335 34.719C44.8335 35.3862 44.9512 35.9618 44.9904 36.4196C45.0301 36.6657 45.0959 36.9069 45.1867 37.1391C45.5524 37.9381 46.028 38.6822 46.5994 39.3498C46.8218 39.6376 47.0704 39.9123 47.3189 40.2001C47.3818 40.2804 47.4519 40.3548 47.5282 40.4225C47.7244 40.6579 47.9468 40.8803 48.1561 41.1158C48.2095 41.1757 48.2663 41.2324 48.3262 41.2858L49.1503 42.1361L49.9875 42.9471L50.066 43.0256L51.3741 44.3337C51.4061 46.0838 51.1406 47.8265 50.5892 49.4877C50.5892 49.4877 54.1604 53.6475 57.9278 53.4121L57.9931 2.76172Z" fill="#E8D6C5"/>
</g>
<path d="M57.9897 53.4644L52.7572 59.4032L47.8125 50.992L50.638 49.54C50.638 49.54 54.8371 52.758 57.9897 53.4644Z" fill="#BADECF"/>
<path d="M57.9922 53.4644L63.2247 59.4032L68.1824 50.992L65.3961 49.54C65.3961 49.54 61.1448 52.758 57.9922 53.4644Z" fill="#CFE8DD"/>
<path d="M55.4023 56.3947L57.0767 59.4034L54.8398 74.1197L57.9793 79.1167V53.4514L55.4023 56.3947Z" fill="#AD0007"/>
<path d="M60.5536 56.3947L58.8922 59.4034L61.1291 74.1197L57.9766 79.1167V53.4514L60.5536 56.3947Z" fill="#C70A11"/>
<path d="M57.9921 81.537V79.0777L43.6682 53.4255H43.0534C38.4357 55.7932 33.2817 58.4487 32.4576 58.9065C30.914 59.7437 27.9838 60.0184 24.7528 75.1403C24.2557 77.4687 23.7717 79.5617 23.3008 81.5239L57.9921 81.537Z" fill="#123655"/>
<path d="M92.6694 81.5366C92.1985 79.5745 91.7145 77.4815 91.2174 75.153C87.9994 60.0312 85.0561 59.7564 83.5256 58.9193C82.7015 58.4614 77.5345 55.8059 72.9168 53.4382H72.3151L57.9258 79.0905V81.4974L92.6694 81.5366Z" fill="#235982"/>
<path d="M100.271 45.6683C97.5472 43.0542 93.8965 41.6285 90.1216 41.7046C86.3467 41.7806 82.7564 43.3521 80.1395 46.0738C78.1908 48.1044 76.8879 50.6671 76.3954 53.4381C75.9029 56.2091 76.243 59.0638 77.3727 61.6415C78.5024 64.2192 80.371 66.4041 82.7422 67.92C85.1135 69.4359 87.8809 70.2147 90.6947 70.158C93.5086 70.1013 96.2424 69.2117 98.5506 67.6015C100.859 65.9914 102.638 63.733 103.663 61.1119C104.688 58.4908 104.913 55.6247 104.309 52.8758C103.706 50.1269 102.3 47.6187 100.271 45.6683Z" fill="#FFAE0D"/>
<path d="M80.139 46.0735C78.1863 48.1036 76.8799 50.6675 76.3852 53.4405C75.8906 56.2136 76.2299 59.071 77.3603 61.6511C78.4906 64.2311 80.3611 66.4178 82.735 67.9341C85.1089 69.4504 87.8793 70.2282 90.6955 70.169L90.1199 41.7043C88.2493 41.7321 86.403 42.1328 84.6891 42.883C82.9753 43.6332 81.4284 44.7179 80.139 46.0735Z" fill="#F0850C"/>
<path d="M98.979 64.1649C97.3517 65.8591 95.2586 67.0326 92.9644 67.5372C90.6702 68.0418 88.2778 67.8549 86.0899 66.9999C83.9019 66.1449 82.0166 64.6604 80.6723 62.734C79.3281 60.8076 78.5851 58.5259 78.5376 56.1773C78.49 53.8287 79.14 51.5187 80.4052 49.5395C81.6704 47.5603 83.494 46.0006 85.6456 45.0578C87.7971 44.115 90.1799 43.8313 92.4927 44.2426C94.8055 44.6539 96.9444 45.7418 98.6389 47.3687C99.7658 48.4482 100.669 49.7394 101.296 51.1684C101.923 52.5974 102.262 54.136 102.294 55.6963C102.325 57.2565 102.049 58.8076 101.48 60.2608C100.911 61.714 100.061 63.0407 98.979 64.1649Z" fill="#F3EAE1"/>
<path d="M79.973 64.5764L75.75 68.9724L77.9575 71.093L82.1805 66.6969L79.973 64.5764Z" fill="#F0850C"/>
<path d="M64.7442 89.5426C64.3422 89.9618 63.8617 90.2978 63.3299 90.5313C62.7981 90.7648 62.2255 90.8912 61.6448 90.9034C61.0642 90.9155 60.4868 90.8132 59.9457 90.6021C59.4047 90.3911 58.9104 90.0755 58.4914 89.6734L58.0335 89.2286C57.6155 88.827 57.2809 88.3468 57.0487 87.8157C56.8165 87.2845 56.6914 86.7128 56.6805 86.1332C56.6695 85.5536 56.773 84.9776 56.985 84.438C57.197 83.8985 57.5132 83.406 57.9158 82.9889L70.8792 69.476C71.6944 68.6342 72.8097 68.1493 73.9813 68.1273C75.153 68.1052 76.2857 68.5478 77.132 69.3583L77.5899 69.8031C78.0079 70.2047 78.3425 70.6849 78.5747 71.216C78.8069 71.7472 78.932 72.3189 78.9429 72.8985C78.9538 73.4781 78.8504 74.0541 78.6384 74.5937C78.4264 75.1332 78.1101 75.6256 77.7076 76.0428L64.7442 89.5426Z" fill="#AD0007"/>
<g style="mix-blend-mode:multiply">
<path d="M90.1758 44.0591C88.616 44.09 87.0776 44.4278 85.6484 45.0533C84.2191 45.6788 82.9271 46.5797 81.846 47.7045C80.7649 48.8293 79.9159 50.156 79.3476 51.6089C78.7793 53.0618 78.5027 54.6124 78.5336 56.1722C78.5645 57.732 78.9023 59.2705 79.5278 60.6997C80.1533 62.1289 81.0542 63.421 82.179 64.5021C83.3038 65.5832 84.6305 66.4321 86.0834 67.0005C87.5363 67.5688 89.0869 67.8454 90.6467 67.8145L90.1758 44.0591Z" fill="#EDE4DC"/>
</g>
<path d="M95.747 53.0329C95.6707 54.0419 95.3034 55.0071 94.6898 55.8116C94.0761 56.6162 93.2423 57.2256 92.2894 57.566C91.3365 57.9063 90.3054 57.9631 89.3209 57.7294C88.3363 57.4957 87.4407 56.9815 86.7424 56.2492C86.0442 55.5168 85.5732 54.5978 85.3866 53.6032C85.2 52.6087 85.3058 51.5814 85.6912 50.6458C86.0765 49.7102 86.7248 48.9063 87.5577 48.3316C88.3905 47.757 89.3722 47.4361 90.3837 47.408C91.1052 47.4249 91.8164 47.5839 92.4765 47.8758C93.1366 48.1677 93.7327 48.5868 94.2307 49.1092C94.7288 49.6315 95.119 50.2469 95.3792 50.9202C95.6394 51.5934 95.7643 52.3113 95.747 53.0329Z" fill="#235982"/>
<path d="M90.2504 47.4341C88.8546 47.6248 87.5776 48.322 86.6623 49.3929C85.747 50.4639 85.2573 51.8339 85.2864 53.2424C85.3155 54.6509 85.8613 55.9995 86.82 57.0318C87.7787 58.0641 89.0834 58.7079 90.4859 58.8409L90.2504 47.4341Z" fill="#1A4362"/>
<path d="M90.2524 46.78C89.4621 46.7953 88.6826 46.9662 87.9584 47.2828C87.2342 47.5994 86.5795 48.0557 86.0316 48.6254C85.4837 49.1951 85.0535 49.8672 84.7654 50.6032C84.4774 51.3393 84.3371 52.1248 84.3527 52.9151C84.4574 58.056 89.5852 64.0864 90.6055 64.0733C91.6259 64.0603 96.4921 57.8075 96.3874 52.6665C96.3721 51.8769 96.2012 51.098 95.8844 50.3745C95.5676 49.651 95.1112 48.9971 94.5413 48.4503C93.9714 47.9035 93.2992 47.4745 92.5632 47.1879C91.8273 46.9013 91.042 46.7627 90.2524 46.78ZM90.4486 56.4339C89.7296 56.4493 89.0222 56.2511 88.4158 55.8644C87.8094 55.4778 87.3312 54.92 87.0418 54.2616C86.7524 53.6032 86.6647 52.8739 86.7898 52.1657C86.9149 51.4575 87.2472 50.8022 87.7446 50.2828C88.2421 49.7635 88.8823 49.4032 89.5845 49.2477C90.2866 49.0921 91.0191 49.1483 91.6894 49.409C92.3596 49.6698 92.9375 50.1234 93.35 50.7125C93.7625 51.3017 93.991 51.9999 94.0067 52.7189C94.0153 53.1982 93.9295 53.6745 93.754 54.1206C93.5786 54.5667 93.317 54.9739 92.9841 55.3189C92.6513 55.6639 92.2537 55.9399 91.8142 56.1313C91.3746 56.3226 90.9017 56.4254 90.4224 56.4339H90.4486Z" fill="#C70A11"/>
<path d="M90.4197 56.4339C89.4552 56.453 88.5226 56.0882 87.8272 55.4197C87.1317 54.7512 86.7303 53.8338 86.7112 52.8693C86.6921 51.9048 87.0569 50.9723 87.7254 50.2768C88.3939 49.5813 89.3113 49.1799 90.2758 49.1608V46.78C89.4855 46.7953 88.706 46.9662 87.9818 47.2828C87.2576 47.5995 86.6029 48.0557 86.055 48.6254C85.5071 49.1951 85.0769 49.8672 84.7888 50.6032C84.5008 51.3393 84.3606 52.1249 84.3762 52.9151C84.4808 58.056 89.6086 64.0864 90.629 64.0734L90.4197 56.4339Z" fill="#AD0007"/>
<path d="M47.8417 46.8716C47.8417 47.2188 47.7386 47.5582 47.5454 47.8468C47.3522 48.1353 47.0776 48.36 46.7566 48.4922C46.4355 48.6245 46.0824 48.6585 45.742 48.5898C45.4017 48.5211 45.0893 48.3528 44.8447 48.1064C44.6001 47.8599 44.4342 47.5463 44.368 47.2054C44.3019 46.8645 44.3385 46.5117 44.4732 46.1916C44.6078 45.8716 44.8346 45.5988 45.1245 45.4077C45.4145 45.2167 45.7547 45.1161 46.1019 45.1187C46.5645 45.1222 47.007 45.3084 47.3329 45.6367C47.6588 45.9651 47.8417 46.4089 47.8417 46.8716Z" fill="#C3DCEB"/>
<path d="M41.3301 45.8252C41.3301 46.3427 41.1767 46.8485 40.8892 47.2787C40.6017 47.709 40.1931 48.0443 39.7151 48.2423C39.237 48.4404 38.711 48.4921 38.2035 48.3912C37.696 48.2902 37.2298 48.0411 36.8639 47.6752C36.4981 47.3093 36.2489 46.8431 36.1479 46.3356C36.047 45.8281 36.0988 45.3021 36.2968 44.8241C36.4948 44.346 36.8302 43.9374 37.2604 43.6499C37.6906 43.3624 38.1965 43.209 38.7139 43.209C39.4078 43.209 40.0732 43.4846 40.5639 43.9753C41.0545 44.4659 41.3301 45.1314 41.3301 45.8252Z" fill="#C3DCEB"/>
<path d="M34.6964 41.3511C34.6964 42.1273 34.4662 42.886 34.035 43.5314C33.6038 44.1767 32.9909 44.6797 32.2738 44.9767C31.5567 45.2738 30.7677 45.3515 30.0064 45.2001C29.2452 45.0486 28.5459 44.6749 27.9971 44.126C27.4483 43.5772 27.0745 42.878 26.9231 42.1167C26.7716 41.3555 26.8494 40.5664 27.1464 39.8493C27.4434 39.1323 27.9464 38.5193 28.5917 38.0881C29.2371 37.6569 29.9958 37.4268 30.772 37.4268C31.8128 37.4268 32.811 37.8402 33.5469 38.5762C34.2829 39.3121 34.6964 40.3103 34.6964 41.3511Z" fill="#C3DCEB"/>
<path d="M47.4516 20.9316C47.4516 29.3035 36.9867 36.0796 23.9055 36.0796C10.8243 36.0796 0.359375 29.3035 0.359375 20.9316C0.359375 12.5596 10.9028 5.77051 23.9055 5.77051C36.9082 5.77051 47.4516 12.5596 47.4516 20.9316Z" fill="#C3DCEB"/>
<path d="M0.386719 20.9315C0.386719 29.3035 10.9301 36.0795 23.9328 36.0795V5.82275C10.9301 5.82275 0.386719 12.5595 0.386719 20.9315Z" fill="#9EC4D9"/>
<path d="M9.14747 22.6845C9.14905 22.5721 9.12516 22.4606 9.07759 22.3587C9.03001 22.2568 8.95998 22.1669 8.87276 22.0959C8.67118 21.9358 8.45169 21.7997 8.2187 21.6904L7.35535 21.311C7.04991 21.1834 6.76021 21.021 6.49199 20.827C6.22583 20.6412 6.00277 20.4002 5.83793 20.1206C5.6474 19.7917 5.55651 19.4145 5.57631 19.0349C5.57003 18.6988 5.63234 18.365 5.75945 18.0538C5.88182 17.7768 6.07051 17.5342 6.30885 17.3474C6.55446 17.1568 6.83417 17.0147 7.13298 16.9288C7.48404 16.8426 7.84414 16.7987 8.20562 16.798C8.64444 16.795 9.08251 16.8345 9.51374 16.9157C9.8608 16.9767 10.1962 17.0914 10.5079 17.2558L10.0239 18.5639C9.7976 18.4276 9.54996 18.3303 9.29136 18.2761C8.94155 18.1833 8.58057 18.1393 8.2187 18.1454C7.93272 18.1244 7.64777 18.1979 7.40767 18.3546C7.31592 18.4194 7.24164 18.5058 7.19142 18.6063C7.1412 18.7067 7.11662 18.818 7.11988 18.9302C7.12056 19.0372 7.14428 19.1429 7.18942 19.2399C7.23457 19.337 7.30007 19.4232 7.3815 19.4927C7.58308 19.6528 7.80257 19.7889 8.03556 19.8982L8.89892 20.2907C9.20331 20.4204 9.49278 20.5827 9.76229 20.7747C10.0234 20.9702 10.2491 21.2092 10.4294 21.4811C10.612 21.7989 10.7026 22.1612 10.691 22.5275C10.6949 22.8998 10.6237 23.2691 10.4818 23.6133C10.3457 23.9039 10.1442 24.1591 9.89311 24.3589C9.62967 24.5734 9.32109 24.7255 8.9905 24.8037C8.61195 24.9115 8.21987 24.9644 7.82628 24.9607C7.32903 24.968 6.8327 24.9153 6.3481 24.8037C6.02309 24.7357 5.70704 24.6303 5.40625 24.4897L5.90334 23.1816L6.21728 23.3255L6.66205 23.4694L7.18529 23.574C7.37224 23.5943 7.56082 23.5943 7.74777 23.574C8.11165 23.5936 8.47384 23.5121 8.79427 23.3386C8.90344 23.2681 8.99305 23.1712 9.05479 23.0569C9.11654 22.9425 9.14842 22.8145 9.14747 22.6845Z" fill="#123655"/>
<path d="M11.6719 16.9548H16.3157V18.263H13.2024V20.212H16.041V21.5202H13.2024V23.43H16.368V24.8035H11.6719V16.9548Z" fill="#123655"/>
<path d="M21.3659 23.0508H18.9721L18.3703 24.7906H16.8398L19.6654 16.9419H20.7903L23.6028 24.7906H21.9938L21.3659 23.0508ZM19.3645 21.8212H21.0389L20.4502 20.0814L20.2148 18.8517L19.9793 20.1599L19.3645 21.8212Z" fill="#123655"/>
<path d="M24.2852 17.0335L24.8345 16.955L25.4232 16.8895H25.9988H26.522C26.8816 16.887 27.2407 16.9177 27.5947 16.9811C27.9315 17.0412 28.2548 17.1608 28.5496 17.3343C28.8277 17.4987 29.0578 17.7333 29.2167 18.0146C29.3963 18.3426 29.4823 18.7136 29.4653 19.0872C29.4882 19.6445 29.3323 20.1945 29.0205 20.6569C28.7215 21.054 28.305 21.347 27.8301 21.4942L28.3796 21.8342L30.1586 24.8298H28.3926L26.6136 21.7558L25.8156 21.6119V24.8298H24.2852V17.0335ZM26.6267 18.2108H26.1558C26.0383 18.1998 25.9201 18.1998 25.8026 18.2108V20.4869H26.4435C26.8049 20.5128 27.1644 20.416 27.4639 20.2122C27.601 20.0967 27.7075 19.9491 27.7737 19.7824C27.8399 19.6158 27.8638 19.4354 27.8432 19.2572C27.8527 19.1113 27.8295 18.9651 27.7751 18.8293C27.7208 18.6935 27.6368 18.5716 27.5293 18.4724C27.2712 18.2764 26.9495 18.1832 26.6267 18.2108Z" fill="#235982"/>
<path d="M35.9354 24.4633C35.663 24.6463 35.3557 24.771 35.0328 24.8296C34.6584 24.9076 34.2771 24.947 33.8947 24.9473C33.4495 24.945 33.0076 24.8699 32.5866 24.7249C32.1632 24.5851 31.7812 24.3424 31.4747 24.0185C31.1239 23.6449 30.8603 23.1981 30.7029 22.7104C30.5 22.1036 30.4027 21.4665 30.4151 20.8267C30.4026 20.1709 30.5136 19.5186 30.7421 18.9038C30.9124 18.4101 31.1944 17.9624 31.5663 17.5957C31.8936 17.2915 32.2814 17.0597 32.7043 16.9155C33.1038 16.7762 33.5239 16.7054 33.947 16.7062C34.3283 16.704 34.709 16.7347 35.0851 16.7977C35.3473 16.8477 35.6053 16.9176 35.8569 17.007L35.556 18.3151C35.3623 18.2214 35.1546 18.1596 34.9412 18.132C34.66 18.0871 34.3757 18.0652 34.0909 18.0666C33.8059 18.0557 33.5222 18.1102 33.2615 18.2259C33.0007 18.3415 32.7699 18.5152 32.5866 18.7337C32.1686 19.3333 31.9699 20.0586 32.0241 20.7875C32.0217 21.1586 32.0701 21.5283 32.168 21.8863C32.2385 22.1963 32.377 22.4867 32.5735 22.7366C32.7533 22.9712 32.9865 23.1596 33.2537 23.286C33.549 23.421 33.8709 23.488 34.1956 23.4822C34.4818 23.49 34.7678 23.4591 35.0458 23.3906C35.2558 23.3267 35.4577 23.239 35.6476 23.129L35.9354 24.4633Z" fill="#235982"/>
<path d="M41.2898 21.5202H38.425V24.8035H36.8945V16.9548H38.425V20.212H41.2898V17.0202H42.8203V24.8689H41.2898V21.5202Z" fill="#235982"/>
<path d="M26.7818 41.3511C26.7818 42.3919 27.1952 43.3901 27.9312 44.126C28.6671 44.862 29.6653 45.2755 30.7062 45.2755V37.3613C30.1852 37.3613 29.6695 37.4649 29.1891 37.6662C28.7086 37.8675 28.2731 38.1624 27.9078 38.5338C27.5425 38.9052 27.2548 39.3455 27.0615 39.8292C26.8682 40.3129 26.7731 40.8303 26.7818 41.3511Z" fill="#9EC4D9"/>
<path d="M36.0164 45.8252C36.0164 46.5191 36.2921 47.1845 36.7827 47.6751C37.2734 48.1658 37.9388 48.4414 38.6327 48.4414V43.1436C38.2835 43.1434 37.9379 43.2132 37.6161 43.3488C37.2944 43.4843 37.003 43.6829 36.7592 43.9328C36.5154 44.1827 36.324 44.4789 36.1965 44.8039C36.0689 45.1289 36.0077 45.4761 36.0164 45.8252Z" fill="#9EC4D9"/>
<path d="M44.3523 46.8716C44.3558 47.3342 44.542 47.7767 44.8704 48.1026C45.1987 48.4286 45.6426 48.6114 46.1052 48.6114V45.0664C45.8706 45.0663 45.6382 45.1133 45.4221 45.2047C45.2059 45.296 45.0104 45.4298 44.8469 45.5982C44.6834 45.7665 44.5554 45.966 44.4704 46.1847C44.3855 46.4035 44.3453 46.6371 44.3523 46.8716Z" fill="#9EC4D9"/>
</svg>
