<svg width="85" height="91" viewBox="0 0 85 91" fill="none" xmlns="http://www.w3.org/2000/svg">
<path d="M46.6905 25.5201C44.7123 25.5211 42.7764 24.9483 41.1172 23.8711L41.8202 22.7974C43.0786 23.6156 44.5225 24.1042 46.0192 24.2182C47.5158 24.3321 49.0171 24.0677 50.3847 23.4493L50.9088 24.6125C49.5833 25.2117 48.1452 25.5211 46.6905 25.5201Z" fill="#8C6139"/>
<path d="M50.8554 24.5867L50.3568 23.4746C52.5367 22.4931 54.2375 20.6859 55.0849 18.4505C55.9323 16.215 55.857 13.7345 54.8756 11.5546C53.8941 9.37467 52.0869 7.67395 49.8514 6.82652C47.616 5.97909 45.1355 6.05438 42.9556 7.03585L42.457 5.92375C44.9319 4.81006 47.7478 4.72512 50.2853 5.68762C52.8228 6.65011 54.874 8.58119 55.9877 11.0561C57.1014 13.5309 57.1863 16.3468 56.2238 18.8843C55.2613 21.4218 53.3302 23.473 50.8554 24.5867Z" fill="#8C6139"/>
<path d="M84.5257 47.251C85.2166 43.5398 85.1208 39.725 84.2445 36.0532C83.1861 32.3984 81.532 28.9432 79.3487 25.8269C77.4076 23.0738 75.0434 20.6449 72.3437 18.6302L73.8649 15.0894L61.082 16.5977L68.7517 26.8879L70.1706 23.5644C72.29 24.9376 74.205 26.603 75.859 28.5113C78.0866 31.0904 79.8902 34.0072 81.2022 37.1525C82.4709 40.327 83.0588 43.7326 82.9279 47.1487C82.8763 50.7013 82.3694 54.2326 81.4195 57.6562C82.894 54.3343 83.9378 50.8376 84.5257 47.251Z" fill="#C3DCEB"/>
<path d="M33.4053 80.9209L29.7878 68.5983L27.2312 71.2571C25.6018 69.3157 24.1954 67.1975 23.0385 64.9424C21.5354 61.9946 20.443 58.855 19.7916 55.6109C19.1716 52.312 19.1716 48.9265 19.7916 45.6275C20.3893 42.2179 21.5058 38.92 23.1024 35.8486C21.023 38.7117 19.3936 41.8758 18.2705 45.2313C17.0763 48.6843 16.5429 52.3312 16.6982 55.9816C16.9603 59.6522 17.7703 63.2629 19.1013 66.6936C20.2591 69.6609 21.7652 72.4801 23.5881 75.092L20.9293 77.9297L33.4053 80.9209Z" fill="#9EC4D9"/>
<path d="M73.9922 61.7849H41.1404C39.5872 61.7849 38.3281 63.044 38.3281 64.5971V87.5934C38.3281 89.1466 39.5872 90.4057 41.1404 90.4057H73.9922C75.5454 90.4057 76.8045 89.1466 76.8045 87.5934V64.5971C76.8045 63.044 75.5454 61.7849 73.9922 61.7849Z" fill="#AD0007"/>
<g style="mix-blend-mode:multiply">
<path d="M73.9961 61.7852H41.1443C39.5911 61.7852 38.332 63.0442 38.332 64.5974V87.5937C38.332 89.1468 39.5911 90.4059 41.1443 90.4059H73.9961C75.5493 90.4059 76.8084 89.1468 76.8084 87.5937V64.5974C76.8084 63.0442 75.5493 61.7852 73.9961 61.7852Z" fill="#EDE4DC"/>
</g>
<path d="M69.7579 46.2331L55.7773 65.1475L66.17 72.8292L80.1506 53.9148L69.7579 46.2331Z" fill="#53820E"/>
<path d="M63.7374 65.5812L75.0119 50.0884L69.7581 46.2024L58.4453 61.7336L63.7374 65.5812Z" fill="#426908"/>
<path d="M57.5117 64.7633L65.9995 71.0525L78.4244 54.2302L69.9239 47.9539L57.5117 64.7633ZM75.7912 53.7701C75.6221 54.0323 75.5547 54.3473 75.6018 54.6558C75.6489 54.9642 75.8072 55.2448 76.0468 55.4446L76.2002 55.5341L66.5875 68.5342C66.5512 68.4894 66.5081 68.4506 66.4597 68.4192C66.205 68.2307 65.8861 68.1504 65.5724 68.1959C65.2588 68.2414 64.9758 68.4089 64.7852 68.6621C64.7601 68.7159 64.7302 68.7672 64.6957 68.8155L60.0172 65.3513C60.062 65.315 60.1008 65.2719 60.1322 65.2235C60.3207 64.9687 60.401 64.6498 60.3555 64.3362C60.31 64.0226 60.1425 63.7396 59.8893 63.5489L59.7359 63.4594L69.3486 50.4721L69.4765 50.5871C69.6017 50.6811 69.7445 50.7492 69.8964 50.7872C70.0483 50.8253 70.2063 50.8327 70.3611 50.8089C70.5159 50.785 70.6644 50.7305 70.7978 50.6486C70.9313 50.5666 71.047 50.4588 71.1382 50.3315C71.1727 50.2832 71.2027 50.2319 71.2277 50.1781L75.919 53.6422C75.8732 53.6816 75.8305 53.7243 75.7912 53.7701Z" fill="#F3EAE1"/>
<path d="M68.9829 59.5095C68.8085 59.5556 68.6409 59.6243 68.4844 59.7141L69.5453 60.4938C69.6485 60.3629 69.7027 60.2002 69.6987 60.0336C69.666 59.8743 69.5748 59.7329 69.4431 59.6374C69.3832 59.5793 69.3097 59.5371 69.2293 59.5148C69.1489 59.4924 69.0642 59.4906 68.9829 59.5095Z" fill="#F3EAE1"/>
<path d="M66.5371 59.2154C66.5955 59.2576 66.662 59.2874 66.7323 59.3028C66.8027 59.3182 66.8755 59.3189 66.9462 59.3049C67.1154 59.2612 67.2785 59.1968 67.4319 59.1132L66.4477 58.3845C66.391 58.4508 66.3492 58.5285 66.325 58.6123C66.3007 58.696 66.2946 58.784 66.307 58.8703C66.3199 58.9404 66.3469 59.0072 66.3865 59.0666C66.4261 59.1259 66.4773 59.1766 66.5371 59.2154Z" fill="white"/>
<path d="M64.9283 57.1575C64.4783 57.7676 64.2193 58.4974 64.1839 59.2547C64.1485 60.012 64.3384 60.7628 64.7295 61.4123C65.1207 62.0617 65.6955 62.5806 66.3815 62.9035C67.0674 63.2263 67.8337 63.3386 68.5834 63.2261C69.3331 63.1137 70.0327 62.7815 70.5938 62.2716C71.1548 61.7617 71.5521 61.097 71.7355 60.3614C71.9189 59.6258 71.8801 58.8523 71.6241 58.1387C71.3681 57.4251 70.9063 56.8034 70.2971 56.3522C69.8919 56.052 69.4315 55.8347 68.9422 55.7127C68.4529 55.5908 67.9444 55.5665 67.4457 55.6413C66.947 55.7161 66.468 55.8885 66.036 56.1487C65.604 56.4088 65.2276 56.7517 64.9283 57.1575ZM70.5528 59.7141C70.6144 60.0764 70.556 60.4489 70.3866 60.775L70.949 61.1969L70.4888 61.8105L69.9647 61.4269C69.8096 61.6279 69.634 61.8121 69.4407 61.9766C69.3094 62.0933 69.1632 62.1922 69.006 62.2706L68.4819 61.5292C68.6099 61.4775 68.7303 61.4087 68.8399 61.3247C68.9931 61.202 69.1343 61.065 69.2617 60.9156L67.9834 60.0081L67.5232 60.2509C67.3631 60.3171 67.1958 60.3642 67.0247 60.3915C66.8557 60.4228 66.6824 60.4228 66.5134 60.3915C66.3157 60.3459 66.1316 60.2539 65.9765 60.1231C65.667 59.9239 65.447 59.6122 65.3629 59.2539C65.3176 58.9054 65.3848 58.5516 65.5547 58.244L65.005 57.835L65.4652 57.2086L65.9893 57.6049C66.109 57.449 66.2462 57.3075 66.3983 57.183L66.7946 56.9146L67.3059 57.6176L67.0119 57.8094C66.8915 57.9008 66.7802 58.0035 66.6796 58.1162L67.8172 58.9471C67.9625 58.8551 68.1167 58.778 68.2774 58.717C68.4356 58.6428 68.6034 58.5911 68.7759 58.5636C68.9492 58.5316 69.1268 58.5316 69.3 58.5636C69.4936 58.6139 69.6759 58.7006 69.8369 58.8192C70.1722 59.0016 70.4274 59.3024 70.5528 59.6629V59.7141Z" fill="#F3EAE1"/>
<g style="mix-blend-mode:multiply">
<path d="M59.293 62.3473L60.1239 62.9481L69.3531 50.4721L69.4809 50.5871C69.6062 50.6811 69.7489 50.7492 69.9009 50.7872C70.0528 50.8253 70.2108 50.8327 70.3655 50.8089C70.5203 50.785 70.6688 50.7305 70.8023 50.6486C70.9357 50.5666 71.0514 50.4588 71.1427 50.3315C71.1772 50.2832 71.2071 50.2319 71.2321 50.1781L73.6481 51.9677L74.2489 51.1496L69.9283 47.9539L59.293 62.3473Z" fill="#EDE4DC"/>
</g>
<g style="mix-blend-mode:multiply">
<path d="M66.307 58.8703C66.3199 58.9404 66.3469 59.0072 66.3865 59.0666C66.4261 59.1259 66.4773 59.1766 66.5371 59.2154C66.5955 59.2576 66.662 59.2874 66.7323 59.3028C66.8027 59.3182 66.8755 59.3189 66.9462 59.3049C67.1154 59.2612 67.2785 59.1968 67.4319 59.1132L66.4477 58.3845C66.391 58.4508 66.3492 58.5285 66.325 58.6123C66.3007 58.696 66.2946 58.784 66.307 58.8703Z" fill="#EDE4DC"/>
<path d="M67.5895 60.1997C67.4293 60.2659 67.262 60.313 67.0909 60.3403C66.9219 60.3716 66.7486 60.3716 66.5796 60.3403C66.3819 60.2947 66.1979 60.2027 66.0428 60.0719C65.7332 59.8727 65.5132 59.561 65.4292 59.2027C65.3839 58.8542 65.451 58.5004 65.6209 58.1928L65.0713 57.7838L65.5314 57.1574L66.0555 57.5537C66.1752 57.3978 66.3125 57.2563 66.4646 57.1319L66.8609 56.8634L67.3722 57.5665L67.0782 57.7582C66.9578 57.8496 66.8465 57.9523 66.7458 58.065L67.8835 58.8959C68.0288 58.8039 68.1829 58.7268 68.3437 58.6658C68.5018 58.5916 68.6697 58.5399 68.8422 58.5124C68.8422 58.5124 68.8422 58.5124 68.9189 58.5124L70.4017 56.4671L70.2994 56.3777C69.896 56.0629 69.4337 55.832 68.9397 55.6987C68.4456 55.5653 67.9299 55.5322 67.4229 55.6012C66.9159 55.6703 66.4278 55.8401 65.9874 56.1007C65.547 56.3613 65.1632 56.7074 64.8587 57.1186C64.5541 57.5298 64.3349 57.9977 64.214 58.495C64.0931 58.9922 64.073 59.5086 64.1547 60.0137C64.2365 60.5188 64.4185 61.0025 64.6901 61.4362C64.9616 61.8699 65.3173 62.2448 65.736 62.539L65.8638 62.5901L67.679 60.1102L67.5895 60.1997Z" fill="#EDE4DC"/>
</g>
<path d="M53.5824 44.3523L53.4141 67.8721L66.3372 67.9645L66.5055 44.4447L53.5824 44.3523Z" fill="#53820E"/>
<path d="M60.1102 63.5871V44.4256L53.5781 44.3745V63.5871H60.1102Z" fill="#426908"/>
<path d="M54.6016 66.6041L65.1602 66.6808L65.3136 45.7681L54.755 45.6914L54.6016 66.6041ZM62.9232 46.9441C62.9198 47.1007 62.9477 47.2564 63.0053 47.402C63.0628 47.5477 63.1489 47.6803 63.2585 47.7923C63.368 47.9042 63.4988 47.9931 63.6432 48.0538C63.7876 48.1145 63.9426 48.1458 64.0992 48.1457H64.2782L64.1631 64.3032H63.9842C63.827 64.3015 63.671 64.331 63.5253 64.39C63.3796 64.449 63.247 64.5363 63.1353 64.6469C63.0235 64.7574 62.9348 64.889 62.8743 65.0341C62.8137 65.1792 62.7826 65.3348 62.7826 65.492C62.7826 65.492 62.7826 65.6071 62.7826 65.6582H56.9664C56.9733 65.5987 56.9733 65.5387 56.9664 65.4793C56.9681 65.3231 56.939 65.1682 56.8808 65.0233C56.8226 64.8784 56.7365 64.7465 56.6273 64.6349C56.518 64.5233 56.3879 64.4343 56.2443 64.373C56.1007 64.3117 55.9465 64.2793 55.7904 64.2777H55.6114L55.7264 48.1074H55.9054C56.2219 48.1074 56.5256 47.9825 56.7506 47.76C56.9755 47.5374 57.1036 47.235 57.107 46.9185C57.107 46.8546 57.107 46.8035 57.107 46.7396H62.9232C62.9128 46.8074 62.9128 46.8764 62.9232 46.9441Z" fill="#F3EAE1"/>
<path d="M60.75 55.5981C60.6403 55.7412 60.546 55.8955 60.4688 56.0583H61.747C61.7438 55.8724 61.6708 55.6944 61.5425 55.5598C61.4837 55.5069 61.4151 55.4661 61.3405 55.4398C61.2659 55.4134 61.1869 55.4021 61.1079 55.4064C61.0371 55.4068 60.9675 55.4245 60.9052 55.4579C60.8428 55.4913 60.7895 55.5395 60.75 55.5981Z" fill="#F3EAE1"/>
<path d="M58.6413 56.7996C58.7125 56.7997 58.7829 56.7836 58.8471 56.7526C58.9113 56.7216 58.9677 56.6765 59.012 56.6206C59.1287 56.492 59.2237 56.3452 59.2932 56.186H58.0149C58.0059 56.2742 58.0161 56.3633 58.0448 56.4471C58.0734 56.531 58.1199 56.6076 58.1811 56.6718C58.3139 56.7688 58.4774 56.8143 58.6413 56.7996Z" fill="white"/>
<path d="M56.1211 56.0707C56.1211 56.8292 56.346 57.5706 56.7674 58.2012C57.1888 58.8319 57.7877 59.3234 58.4884 59.6136C59.1891 59.9039 59.9602 59.9798 60.7041 59.8319C61.448 59.6839 62.1313 59.3187 62.6676 58.7824C63.2039 58.246 63.5691 57.5627 63.7171 56.8188C63.8651 56.0749 63.7891 55.3039 63.4989 54.6032C63.2086 53.9024 62.7171 53.3035 62.0865 52.8821C61.4558 52.4607 60.7144 52.2358 59.9559 52.2358C58.9389 52.2358 57.9635 52.6399 57.2443 53.3591C56.5251 54.0782 56.1211 55.0536 56.1211 56.0707ZM62.1418 54.7924C62.4113 55.045 62.5833 55.3844 62.6276 55.7511H63.3051V56.5181H62.6659C62.6652 56.7721 62.6352 57.0252 62.5764 57.2723C62.5349 57.4444 62.4749 57.6116 62.3975 57.7708L61.541 57.464C61.6108 57.3474 61.6666 57.223 61.7072 57.0933C61.7519 56.9036 61.786 56.7116 61.8095 56.5181H60.2883C60.2883 56.6715 60.1349 56.8249 60.0582 56.9783C59.97 57.1241 59.8625 57.2575 59.7386 57.3746C59.6194 57.5001 59.4759 57.6001 59.3168 57.6685C59.1244 57.7388 58.9208 57.7735 58.716 57.7708C58.3515 57.7896 57.9939 57.6658 57.7189 57.4257C57.4735 57.1707 57.3167 56.8435 57.2716 56.4925H56.5813V55.7128H57.2204C57.2376 55.5184 57.2718 55.3259 57.3227 55.1376C57.3641 54.9811 57.4153 54.8274 57.4761 54.6774L58.307 54.9586L58.1791 55.2782C58.1395 55.4252 58.1096 55.5746 58.0897 55.7256H59.4702C59.5469 55.5722 59.6236 55.4188 59.7131 55.2654C59.8007 55.1147 59.9035 54.9733 60.0199 54.8435C60.149 54.7241 60.2956 54.625 60.4545 54.5495C60.6347 54.4671 60.8316 54.4277 61.0297 54.4345C61.4329 54.4038 61.8322 54.5323 62.1418 54.7924Z" fill="#F3EAE1"/>
<g style="mix-blend-mode:multiply">
<path d="M54.6289 63.5872H55.6388L55.7538 48.0689H55.9328C56.2492 48.0689 56.5529 47.944 56.7779 47.7215C57.0029 47.4989 57.131 47.1965 57.1343 46.8801C57.1343 46.8161 57.1343 46.765 57.1343 46.7011H60.1383V45.6785H54.7695L54.6289 63.5872Z" fill="#EDE4DC"/>
</g>
<g style="mix-blend-mode:multiply">
<path d="M58.191 56.659C58.3049 56.7467 58.4436 56.796 58.5873 56.7996C58.6586 56.7997 58.7289 56.7836 58.7931 56.7526C58.8573 56.7216 58.9137 56.6765 58.958 56.6206C59.0747 56.492 59.1697 56.3452 59.2392 56.186H57.9609C57.9618 56.277 57.9829 56.3666 58.0227 56.4484C58.0625 56.5302 58.12 56.6021 58.191 56.659Z" fill="#EDE4DC"/>
<path d="M60.0561 56.9784C59.9679 57.1243 59.8604 57.2576 59.7365 57.3747C59.6173 57.5003 59.4737 57.6003 59.3147 57.6687C59.1223 57.7389 58.9187 57.7736 58.7139 57.771C58.3493 57.7897 57.9918 57.6659 57.7168 57.4258C57.4714 57.1708 57.3146 56.8437 57.2694 56.4927H56.5791V55.7129H57.2183C57.2354 55.5185 57.2696 55.3261 57.3205 55.1377C57.3619 54.9812 57.4132 54.8275 57.4739 54.6775L58.3048 54.9587L58.177 55.2783C58.1373 55.4253 58.1074 55.5748 58.0875 55.7257H59.4681C59.5448 55.5723 59.6215 55.4189 59.7109 55.2655C59.7986 55.1148 59.9014 54.9735 60.0177 54.8437H60.0816V52.2871H59.9794C58.9623 52.2871 57.9869 52.6911 57.2677 53.4103C56.5486 54.1295 56.1445 55.1049 56.1445 56.122C56.1445 57.139 56.5486 58.1144 57.2677 58.8336C57.9869 59.5528 58.9623 59.9568 59.9794 59.9568H60.1711V56.8378L60.0561 56.9784Z" fill="#EDE4DC"/>
</g>
<path d="M51.4937 46.462L39.6367 51.6028L48.9929 73.1822L60.8498 68.0414L51.4937 46.462Z" fill="#53820E"/>
<path d="M53.3871 66.5399L45.6407 49.0146L39.6328 51.6096L47.4048 69.1732L53.3871 66.5399Z" fill="#426908"/>
<path d="M49.551 71.538L59.2532 67.3325L50.9316 48.1582L41.2422 52.3638L49.551 71.538ZM49.2442 50.1907C49.3067 50.3346 49.397 50.4647 49.51 50.5736C49.623 50.6824 49.7564 50.7679 49.9026 50.8249C50.0488 50.8819 50.2048 50.9095 50.3616 50.906C50.5185 50.9024 50.6731 50.8678 50.8165 50.8043L50.9699 50.7148L57.3613 65.5557H57.1824C57.0385 65.6181 56.9083 65.7084 56.7995 65.8214C56.6906 65.9344 56.6052 66.0679 56.5482 66.214C56.4911 66.3602 56.4636 66.5162 56.4671 66.673C56.4707 66.8299 56.5052 66.9845 56.5688 67.1279C56.5938 67.1817 56.6238 67.2331 56.6583 67.2814L51.3151 69.595V69.4289C51.1744 69.1507 50.937 68.9335 50.6474 68.8182C50.3579 68.7028 50.0362 68.6972 49.7428 68.8025C49.6862 68.8218 49.634 68.8522 49.5894 68.892L43.198 54.0639H43.3641C43.6423 53.9232 43.8594 53.6858 43.9748 53.3962C44.0901 53.1067 44.0957 52.785 43.9905 52.4916C43.9635 52.4389 43.9336 52.3877 43.901 52.3382L49.2442 50.0245C49.2404 50.0798 49.2404 50.1353 49.2442 50.1907Z" fill="#F3EAE1"/>
<path d="M50.7514 58.9597C50.7098 59.1357 50.6883 59.3158 50.6875 59.4966L51.8891 58.9725C51.8097 58.8071 51.6737 58.6755 51.5056 58.6018C51.4328 58.5709 51.3546 58.5549 51.2755 58.5549C51.1964 58.5549 51.1182 58.5709 51.0454 58.6018C50.9705 58.6323 50.9044 58.681 50.853 58.7435C50.8017 58.806 50.7667 58.8803 50.7514 58.9597Z" fill="#F3EAE1"/>
<path d="M49.2435 60.9286C49.3111 60.8994 49.3713 60.8556 49.42 60.8003C49.4686 60.7451 49.5044 60.6797 49.5248 60.609C49.5666 60.4414 49.5922 60.2701 49.6014 60.0977L48.4766 60.5834C48.5085 60.6659 48.5567 60.7412 48.6181 60.8049C48.6796 60.8685 48.7532 60.9193 48.8345 60.9541C48.9693 60.9961 49.1149 60.987 49.2435 60.9286Z" fill="white"/>
<path d="M46.6879 61.3118C47.0004 61.9989 47.5088 62.5785 48.1492 62.9779C48.7897 63.3774 49.5338 63.5789 50.2883 63.5573C51.0428 63.5357 51.7741 63.292 52.3907 62.8566C53.0073 62.4211 53.4816 61.8135 53.7544 61.1096C54.0271 60.4058 54.0861 59.6372 53.9239 58.9C53.7617 58.1628 53.3855 57.4899 52.8426 56.9656C52.2996 56.4412 51.614 56.0887 50.8716 55.9523C50.1293 55.8159 49.3631 55.9016 48.6692 56.1987C48.1997 56.3997 47.775 56.6926 47.4201 57.06C47.0653 57.4275 46.7874 57.8621 46.6028 58.3384C46.4183 58.8147 46.3307 59.3231 46.3453 59.8337C46.3599 60.3443 46.4764 60.8469 46.6879 61.3118ZM51.6732 57.7071C52.0194 57.8314 52.3126 58.0705 52.5041 58.3845L53.1432 58.1033L53.45 58.8192L52.862 59.0748C52.9531 59.3107 53.0216 59.5547 53.0665 59.8035C53.089 59.9774 53.089 60.1536 53.0665 60.3276L52.1717 60.4043C52.1902 60.2685 52.1902 60.1309 52.1717 59.9952C52.1483 59.7997 52.1055 59.607 52.0439 59.42L50.6378 60.0207C50.6505 60.1952 50.6505 60.3704 50.6378 60.5448C50.6253 60.7118 50.5865 60.8758 50.5228 61.0306C50.4587 61.1965 50.3632 61.3484 50.2415 61.478C50.0976 61.619 49.9285 61.7317 49.743 61.8104C49.4127 61.9726 49.0322 62.0001 48.682 61.8871C48.3562 61.7571 48.0822 61.5235 47.9023 61.2223L47.2631 61.5036L46.9563 60.7877L47.5571 60.5321C47.4861 60.3471 47.4388 60.1538 47.4165 59.9568C47.4044 59.7994 47.4044 59.6413 47.4165 59.4839L48.273 59.3944C48.273 59.4967 48.273 59.6117 48.273 59.7395C48.2867 59.8914 48.3167 60.0414 48.3625 60.1869L49.6407 59.6245C49.6407 59.4583 49.6407 59.2793 49.6407 59.1004C49.6636 58.9256 49.7065 58.7541 49.7686 58.5891C49.8263 58.4231 49.9177 58.2708 50.037 58.1417C50.1739 57.9982 50.3394 57.885 50.5228 57.8093C50.8784 57.6147 51.2966 57.5687 51.686 57.6815L51.6732 57.7071Z" fill="#F3EAE1"/>
<g style="mix-blend-mode:multiply">
<path d="M48.3622 68.7644L49.2954 68.3554L43.1213 54.1153H43.2874C43.5656 53.9746 43.7827 53.7372 43.8981 53.4477C44.0134 53.1581 44.019 52.8364 43.9138 52.543C43.8868 52.4903 43.8569 52.4391 43.8243 52.3896L46.5726 51.188L46.1636 50.2549L41.2422 52.364L48.3622 68.7644Z" fill="#EDE4DC"/>
</g>
<g style="mix-blend-mode:multiply">
<path d="M48.8735 60.9539C49.0053 61.004 49.1508 61.004 49.2826 60.9539C49.3502 60.9247 49.4104 60.8809 49.459 60.8257C49.5076 60.7704 49.5434 60.7051 49.5638 60.6344C49.6056 60.4667 49.6313 60.2955 49.6405 60.123L48.5156 60.6088C48.5858 60.7658 48.7141 60.8895 48.8735 60.9539Z" fill="#EDE4DC"/>
<path d="M50.6501 60.5192C50.6377 60.6862 50.5988 60.8501 50.5351 61.005C50.471 61.1708 50.3755 61.3227 50.2538 61.4523C50.1099 61.5933 49.9408 61.7061 49.7553 61.7847C49.425 61.9469 49.0446 61.9744 48.6943 61.8614C48.3685 61.7314 48.0945 61.4979 47.9146 61.1967L47.2754 61.4779L46.9687 60.7621L47.5694 60.5064C47.4984 60.3214 47.4512 60.1281 47.4288 59.9312C47.4167 59.7738 47.4167 59.6156 47.4288 59.4582L48.2853 59.3688C48.2853 59.471 48.2853 59.5861 48.2853 59.7139C48.299 59.8658 48.329 60.0158 48.3748 60.1613L49.653 59.5989C49.653 59.4327 49.653 59.2537 49.653 59.0748C49.6759 58.9 49.7188 58.7284 49.7809 58.5634L48.7583 56.2498H48.6304C47.6981 56.6701 46.971 57.4436 46.609 58.4001C46.247 59.3567 46.2798 60.4178 46.7002 61.3501C47.1206 62.2824 47.8941 63.0095 48.8506 63.3715C49.8071 63.7335 50.8683 63.7007 51.8006 63.2803C51.8577 63.2491 51.9131 63.215 51.9667 63.178L50.6885 60.3658C50.6692 60.4151 50.6564 60.4667 50.6501 60.5192Z" fill="#EDE4DC"/>
</g>
<path d="M76.3331 62.0918H43.4685C41.9153 62.0918 40.6562 63.3508 40.6562 64.904V87.9003C40.6562 89.4535 41.9153 90.7125 43.4685 90.7125H76.3331C77.8863 90.7125 79.1454 89.4535 79.1454 87.9003V64.904C79.1454 63.3508 77.8863 62.0918 76.3331 62.0918Z" fill="#C70A11"/>
<path d="M79.1454 80.5374H40.6562V84.5256H79.1454V80.5374Z" fill="#235982"/>
<path d="M79.1454 68.6875H40.6562V72.6757H79.1454V68.6875Z" fill="#235982"/>
<path d="M59.9072 62.0916H43.4813C43.1109 62.0899 42.7438 62.1614 42.4011 62.302C42.0585 62.4426 41.7469 62.6494 41.4844 62.9108C41.222 63.1721 41.0137 63.4827 40.8715 63.8247C40.7294 64.1667 40.6562 64.5334 40.6563 64.9038V87.9129C40.6562 88.2833 40.7294 88.65 40.8715 88.9921C41.0137 89.3341 41.222 89.6447 41.4844 89.906C41.7469 90.1673 42.0585 90.3742 42.4011 90.5148C42.7438 90.6554 43.1109 90.7269 43.4813 90.7252H59.9072V62.0916Z" fill="#AD0007"/>
<path d="M59.8944 80.5374H40.6562V84.5256H59.8944V80.5374Z" fill="#123655"/>
<path d="M59.8944 68.6875H40.6562V72.6757H59.8944V68.6875Z" fill="#123655"/>
<path d="M79.1288 80.5374H59.8906V84.5256H79.1288V80.5374Z" fill="#235982"/>
<path d="M79.1288 68.6875H59.8906V72.6757H79.1288V68.6875Z" fill="#235982"/>
<path d="M47.4933 78.1469C47.5703 78.8061 47.388 79.4694 46.9848 79.9966C46.5817 80.5238 45.9893 80.8735 45.333 80.9719H39.0183C38.3596 80.8765 37.7641 80.528 37.3583 80.0005C36.9525 79.473 36.7684 78.808 36.8452 78.1469V75.373C36.772 74.714 36.9577 74.0523 37.3632 73.5276C37.7686 73.0029 38.3621 72.6562 39.0183 72.5608H45.3202C45.9741 72.6592 46.5644 73.0071 46.9672 73.5315C47.37 74.0559 47.554 74.7159 47.4805 75.373L47.4933 78.1469Z" fill="#F0850C"/>
<path d="M45.3089 75.5135C45.5245 75.9095 45.6176 76.3607 45.5763 76.8098C45.535 77.2588 45.3613 77.6854 45.0771 78.0355C44.7929 78.3856 44.4111 78.6433 43.9802 78.7761C43.5492 78.9088 43.0886 78.9105 42.6567 78.7809C42.2248 78.6513 41.8411 78.3963 41.5544 78.0483C41.2677 77.7003 41.0908 77.275 41.0463 76.8263C41.0017 76.3775 41.0915 75.9257 41.3042 75.5282C41.517 75.1306 41.843 74.8051 42.241 74.5932C42.7704 74.3113 43.3898 74.2498 43.9643 74.4221C44.5389 74.5945 45.0221 74.9867 45.3089 75.5135Z" fill="#123655"/>
<path d="M25.1083 15.2554L1.30669 35.3116L0.015625 42.5979L7.16123 41.5241L9.33431 39.6961L10.0118 35.7207H14.0384L15.7129 34.3146L13.885 32.1415L15.4701 30.8121L17.298 32.9852L18.653 31.8347L16.8251 29.6616L20.5576 30.2369L23.536 27.7186L23.1142 23.8966L26.7957 24.9703L30.4643 21.8769L25.1083 15.2554Z" fill="#FFAE0D"/>
<g style="mix-blend-mode:multiply">
<path d="M26.2828 16.6487L3.19704 36.1169L2.66016 39.1209L27.5483 18.1443L26.2828 16.6487Z" fill="#EDE4DC"/>
</g>
<path d="M27.781 18.5661L25.1094 15.2554L1.30777 35.3116L0.144531 41.8692L27.781 18.5661Z" fill="#F0850C"/>
<g style="mix-blend-mode:multiply">
<path d="M26.4782 16.8787L3.39235 36.3469L2.85547 39.3509L27.7437 18.3743L26.4782 16.8787Z" fill="#EDE4DC"/>
</g>
<path d="M44.0313 4.87568C42.528 3.10439 40.5338 1.81802 38.3002 1.17888C36.0667 0.539751 33.6939 0.576491 31.4812 1.28445C29.2685 1.9924 27.315 3.33986 25.8673 5.15683C24.4196 6.97379 23.5424 9.17884 23.3466 11.4938C23.1507 13.8087 23.6448 16.1298 24.7667 18.1642C25.8885 20.1986 27.5878 21.8551 29.6501 22.9248C31.7124 23.9945 34.0453 24.4294 36.3545 24.1746C38.6636 23.9199 40.8457 22.9869 42.6252 21.4934C43.8152 20.499 44.7964 19.2787 45.5119 17.9028C46.2274 16.527 46.6632 15.023 46.7939 13.4778C46.9247 11.9325 46.7478 10.3767 46.2737 8.90018C45.7995 7.42368 45.0373 6.05584 44.0313 4.87568ZM35.5051 12.0596C35.0284 11.4901 34.7311 10.7922 34.6507 10.0538C34.5703 9.31551 34.7106 8.56992 35.0536 7.91121C35.3967 7.25251 35.9272 6.71022 36.5783 6.35282C37.2293 5.99542 37.9717 5.83894 38.7116 5.90313C39.4515 5.96731 40.1558 6.2493 40.7356 6.71347C41.3153 7.17764 41.7446 7.80317 41.9691 8.51111C42.1936 9.21905 42.2034 9.97765 41.9971 10.6911C41.7908 11.4046 41.3777 12.0409 40.81 12.5198C40.0449 13.1608 39.0569 13.4723 38.0625 13.386C37.0681 13.2998 36.1484 12.8228 35.5051 12.0596Z" fill="#FFAE0D"/>
<path d="M35.9614 6.76725C36.3377 6.44789 36.7734 6.20605 37.2434 6.05563C37.7135 5.90521 38.2087 5.84918 38.7004 5.89075C39.1922 5.93233 39.671 6.0707 40.1091 6.2979C40.5472 6.5251 40.9361 6.83664 41.2535 7.21464L44.0274 4.8754C41.9908 2.5815 39.1387 1.17409 36.0791 0.95336C33.0196 0.732633 29.9949 1.71606 27.6502 3.69388C25.3056 5.6717 23.8264 8.48735 23.5283 11.5403C23.2303 14.5932 24.1368 17.6418 26.0547 20.0358L35.5012 12.0593C34.8799 11.2884 34.5808 10.3071 34.6666 9.32072C34.7524 8.33433 35.2163 7.41934 35.9614 6.76725Z" fill="#F0850C"/>
<path d="M49.5282 28.2172L50.3591 27.169L46.5242 24.1267V20.931H46.8438V19.9084H43.2007V20.931H43.5203V21.8258L39.7493 18.8857L29.1523 27.169L29.9832 28.2172L31.5811 26.9389V40.2842H30.4945V41.8309H49.0169V40.2842H47.9687V26.9901L49.5282 28.2172ZM39.7493 24.9704C39.4055 24.9704 39.0694 24.8684 38.7835 24.6774C38.4976 24.4864 38.2748 24.2148 38.1432 23.8972C38.0116 23.5795 37.9772 23.23 38.0443 22.8927C38.1113 22.5555 38.2769 22.2457 38.52 22.0026C38.7632 21.7595 39.0729 21.5939 39.4102 21.5268C39.7474 21.4598 40.0969 21.4942 40.4146 21.6258C40.7323 21.7574 41.0038 21.9802 41.1948 22.2661C41.3858 22.552 41.4878 22.8881 41.4878 23.2319C41.4895 23.4607 41.4457 23.6875 41.3589 23.8992C41.2722 24.1109 41.1442 24.3032 40.9824 24.465C40.8206 24.6267 40.6283 24.7547 40.4166 24.8415C40.2049 24.9283 39.9781 24.9721 39.7493 24.9704Z" fill="#235982"/>
<path d="M29.9832 28.2173L31.5811 26.939V40.2843H30.4945V41.8311H39.7493V24.9705C39.2882 24.9705 38.8461 24.7873 38.52 24.4613C38.194 24.1353 38.0108 23.6931 38.0108 23.232C38.0108 22.771 38.194 22.3288 38.52 22.0027C38.8461 21.6767 39.2882 21.4936 39.7493 21.4936V18.937L29.1523 27.2203L29.9832 28.2173Z" fill="#123655"/>
<path d="M41.242 22.4263C40.8977 22.1696 40.573 21.8876 40.2705 21.5827C39.6891 21.0048 39.194 20.3461 38.8005 19.6269C38.6727 19.3968 38.5449 19.1923 38.4298 18.9494C37.5651 17.0072 37.4128 14.8224 37.9996 12.7791C38.5865 10.7357 39.8749 8.96462 41.6383 7.77722C41.5268 7.57911 41.3985 7.39094 41.2548 7.21477C41.1323 7.07741 40.9998 6.94925 40.8585 6.8313C38.7427 8.29226 37.2548 10.4967 36.6913 13.0054C36.2124 15.1492 36.4365 17.3903 37.3305 19.3968C37.479 19.717 37.6454 20.0286 37.829 20.33C38.1113 20.8261 38.4364 21.2966 38.8005 21.7361C39.19 22.1973 39.6176 22.6249 40.0788 23.0144C40.4073 23.2997 40.7531 23.5643 41.1142 23.8069L41.4977 23.2061C41.4993 22.9481 41.4378 22.6936 41.3187 22.4647L41.242 22.4263Z" fill="#8C6139"/>
</svg>
