<svg width="96" height="65" viewBox="0 0 96 65" fill="none" xmlns="http://www.w3.org/2000/svg">
<rect width="96" height="64" transform="translate(0 0.869873)" fill="white"/>
<g clip-path="url(#clip0_6744_66548)">
<path fill-rule="evenodd" clip-rule="evenodd" d="M82.5592 38.0446C82.5592 38.0446 80.8135 39.399 79.2767 39.2477C77.74 39.0965 78.2226 35.6627 78.2226 35.6627C78.2226 35.6627 78.5539 32.5136 77.6488 32.249C76.7459 31.9866 75.6317 33.0696 75.6317 33.0696C75.6317 33.0696 74.2462 34.6064 73.5834 36.5657L73.4011 36.6257C73.4011 36.6257 73.6123 33.1897 73.3722 32.4069C73.192 32.0155 71.5352 32.0466 71.2639 32.7383C70.9925 33.4321 69.6671 38.2514 69.5759 40.2707C69.5759 40.2707 66.985 42.4702 64.7277 42.8305C62.4682 43.193 61.9255 41.7763 61.9255 41.7763C61.9255 41.7763 68.0703 40.0595 67.859 35.149C67.65 30.2386 62.9041 32.0555 62.3681 32.458C61.8477 32.8495 59.0745 34.5219 58.2649 39.1543C58.2383 39.31 58.1893 39.9994 58.1893 39.9994C58.1893 39.9994 55.8097 41.594 54.4842 42.0165C54.4842 42.0165 58.1893 35.7806 53.6725 32.9495C52.4022 32.1848 51.2948 32.8884 50.6362 33.5344C50.2317 33.9311 56.1122 27.4987 54.7556 21.7431C54.1106 19.0032 52.7407 18.7097 51.4842 19.1544C49.576 19.9061 48.8532 21.0203 48.8532 21.0203C48.8532 21.0203 46.3824 24.6053 45.8087 29.9383C45.2371 35.2691 44.3942 41.7163 44.3942 41.7163C44.3942 41.7163 43.2178 42.8616 42.1347 42.9217C41.0494 42.9795 41.532 39.697 41.532 39.697C41.532 39.697 42.3749 34.6975 42.3171 33.8525C42.2548 33.0096 42.1948 32.5581 41.2007 32.2579C40.2066 31.9554 39.1213 33.2209 39.1213 33.2209C39.1213 33.2209 36.2613 37.5575 36.0211 38.2203L35.8677 38.4938L35.7187 38.3114C35.7187 38.3114 37.7358 32.4069 35.8098 32.3179C33.8817 32.2268 32.6163 34.4262 32.6163 34.4262C32.6163 34.4262 30.4168 38.1024 30.3256 38.5227L30.1766 38.3426C30.1766 38.3426 31.0795 34.0659 30.8994 33.0096C30.717 31.9554 29.7251 32.1667 29.7251 32.1667C29.7251 32.1667 28.4597 32.0155 28.1284 32.8294C27.797 33.6434 26.5916 39.0342 26.4404 40.7511C26.4404 40.7511 23.2779 43.0106 21.1986 43.0395C19.1214 43.0707 19.3327 41.723 19.3327 41.723C19.3327 41.723 26.9541 39.1143 24.8747 33.9636C23.9407 32.6382 22.8576 32.2223 21.3209 32.2512C19.7841 32.2824 17.8782 33.2186 16.6439 35.9897C16.0524 37.3107 15.8389 38.5672 15.7166 39.5146C15.7166 39.5146 14.3844 39.7881 13.6616 39.1855C12.9366 38.5828 12.5652 39.1855 12.5652 39.1855C12.5652 39.1855 11.3243 40.7689 12.5586 41.2493C13.7951 41.7319 15.721 41.9565 15.721 41.9565C15.8989 42.7994 16.4127 44.2338 17.9183 45.3747C20.1778 47.0916 24.5122 45.2168 24.5122 45.2168L26.2892 44.2204C26.2892 44.2204 26.3492 45.8506 27.6458 46.0886C28.9401 46.3265 29.4827 46.0841 31.7423 40.6021C33.0677 37.7999 33.1589 37.9512 33.1589 37.9512C33.3079 37.92 32.2849 43.2819 32.6763 44.7275C33.0677 46.1753 34.7846 46.0241 34.7846 46.0241C34.7846 46.0241 35.7187 46.2042 36.4726 43.5533C37.2243 40.9023 38.672 37.9801 38.672 37.9801C38.85 37.9801 38.2184 43.4621 39.1813 45.2101C40.1465 46.9581 42.6462 45.7972 42.6462 45.7972C42.6462 45.7972 44.3942 44.9165 44.6656 44.6452C44.6656 44.6452 46.7383 46.411 49.6628 46.0908C56.2011 44.8031 58.5274 43.064 58.5274 43.064C58.5274 43.064 59.6505 45.9106 63.1309 46.1753C67.1051 46.4755 69.2757 43.9758 69.2757 43.9758C69.2757 43.9758 69.2445 45.6015 70.63 46.1753C72.0178 46.7468 72.9496 43.5288 72.9496 43.5288L75.2692 37.1372C75.4805 37.1372 75.6005 41.2937 77.8912 41.9565C80.1796 42.6192 83.1619 40.4042 83.1619 40.4042C83.1619 40.4042 83.8847 40.0061 83.7646 38.8007C83.6423 37.5953 82.5592 38.0446 82.5592 38.0446ZM22.2238 35.0289C23.0355 35.8117 22.7353 37.4975 21.1986 38.5516C19.664 39.608 18.9702 39.3967 18.9702 39.3967C19.0614 35.8117 21.4121 34.2439 22.2238 35.0289ZM52.1958 22.6482C52.7073 25.3592 47.7079 33.4321 47.7079 33.4321C47.768 31.6241 49.5449 25.5105 49.5449 25.5105C49.5449 25.5105 51.6821 19.9373 52.1958 22.6482ZM47.2542 43.2219C47.2542 43.2219 46.8628 41.8964 47.977 38.1914C49.0934 34.4863 51.7132 35.9318 51.7132 35.9318C51.7132 35.9318 53.5213 37.3173 52.1046 41.0224C50.6902 44.7275 47.2542 43.2219 47.2542 43.2219ZM62.4971 35.963C63.7314 33.7034 64.6966 34.9377 64.6966 34.9377C64.6966 34.9377 65.7507 36.0831 64.5453 37.7999C63.34 39.5168 61.5942 39.3967 61.5942 39.3967C61.5942 39.3967 61.2628 38.2203 62.4971 35.963Z" fill="#E04E39"/>
<path fill-rule="evenodd" clip-rule="evenodd" d="M74.8259 45.1053V44.6728H75.1002C75.1383 44.6728 75.1763 44.6768 75.2164 44.6808C75.2564 44.6868 75.2945 44.6968 75.3265 44.7108C75.3606 44.7248 75.3866 44.7449 75.4066 44.7709C75.4287 44.7969 75.4387 44.833 75.4387 44.877C75.4387 44.9772 75.4086 45.0413 75.3486 45.0673C75.2885 45.0933 75.2104 45.1053 75.1163 45.1053H74.8259ZM74.4994 44.4184V46.0646H74.8259V45.3617H75.0301L75.4307 46.0646H75.7731L75.3325 45.3457C75.3926 45.3397 75.4487 45.3276 75.5028 45.3096C75.5548 45.2916 75.6009 45.2656 75.639 45.2315C75.679 45.1975 75.709 45.1534 75.7311 45.0993C75.7551 45.0453 75.7651 44.9812 75.7651 44.9051C75.7651 44.7268 75.709 44.6007 75.5989 44.5286C75.4868 44.4545 75.3265 44.4184 75.1203 44.4184H74.4994ZM73.9768 45.2435C73.9768 45.0753 74.0048 44.9211 74.0629 44.7809C74.1209 44.6407 74.199 44.5206 74.2992 44.4184C74.3973 44.3163 74.5155 44.2362 74.6496 44.1781C74.7858 44.12 74.93 44.092 75.0842 44.092C75.2364 44.092 75.3806 44.12 75.5148 44.1781C75.651 44.2362 75.7671 44.3163 75.8673 44.4184C75.9674 44.5206 76.0455 44.6407 76.1056 44.7809C76.1636 44.9211 76.1937 45.0753 76.1937 45.2435C76.1937 45.4118 76.1636 45.566 76.1056 45.7081C76.0455 45.8483 75.9674 45.9725 75.8673 46.0746C75.7671 46.1788 75.651 46.2589 75.5148 46.317C75.3806 46.375 75.2364 46.4031 75.0842 46.4031C74.93 46.4031 74.7858 46.375 74.6496 46.317C74.5155 46.2589 74.3973 46.1788 74.2992 46.0746C74.199 45.9725 74.1209 45.8483 74.0629 45.7081C74.0048 45.566 73.9768 45.4118 73.9768 45.2435ZM73.5742 45.2435C73.5742 45.4698 73.6163 45.6721 73.6984 45.8523C73.7825 46.0346 73.8926 46.1888 74.0308 46.317C74.171 46.4451 74.3312 46.5433 74.5135 46.6113C74.6957 46.6794 74.886 46.7135 75.0842 46.7135C75.2845 46.7135 75.4747 46.6794 75.657 46.6113C75.8392 46.5433 75.9994 46.4451 76.1396 46.317C76.2778 46.1888 76.3879 46.0346 76.4721 45.8523C76.5542 45.6721 76.5942 45.4698 76.5942 45.2435C76.5942 45.0212 76.5542 44.819 76.4721 44.6387C76.3879 44.4565 76.2778 44.3023 76.1396 44.1761C75.9994 44.0479 75.8392 43.9498 75.657 43.8817C75.4747 43.8116 75.2845 43.7776 75.0842 43.7776C74.886 43.7776 74.6957 43.8116 74.5135 43.8817C74.3312 43.9498 74.171 44.0479 74.0308 44.1761C73.8926 44.3023 73.7825 44.4565 73.6984 44.6387C73.6163 44.819 73.5742 45.0212 73.5742 45.2435Z" fill="#E04E39"/>
</g>
<defs>
<clipPath id="clip0_6744_66548">
<rect width="72" height="27.7992" fill="white" transform="translate(12 18.9702)"/>
</clipPath>
</defs>
</svg>
