<svg width="96" height="65" viewBox="0 0 96 65" fill="none" xmlns="http://www.w3.org/2000/svg">
<rect width="96" height="64" transform="translate(0 0.869873)" fill="white"/>
<g clip-path="url(#clip0_6744_66477)">
<g clip-path="url(#clip1_6744_66477)">
<path d="M47.8594 56.9638L33.9572 53.1125L30.8574 18.2632H64.9553L61.8555 53.0186L47.8594 56.9638Z" fill="#264DE4"/>
<path d="M59.1312 50.8582L61.7613 21.0813H47.9531V53.958L59.1312 50.8582Z" fill="#2965F1"/>
<path d="M37.9019 34.044L38.2776 38.3649H47.8588V34.044H37.9019ZM37.1504 25.4021L37.5261 29.723H47.8588V25.4021H37.1504ZM47.8588 45.2221L43.0682 43.907L42.7864 40.5254H38.4655L39.123 47.1947L47.8588 49.6369V45.2221Z" fill="#EBEBEB"/>
<path d="M38.8418 8.86987H44.0081V11.0303H41.0023V13.1908H44.0081V15.3513H38.8418V8.86987ZM45.0414 8.86987H50.2077V10.7485H47.2019V11.1243H50.2077V15.4452H45.0414V13.4726H48.0473V13.0969H45.0414V8.86987ZM51.241 8.86987H56.4074V10.7485H53.4015V11.1243H56.4074V15.4452H51.241V13.4726H54.2469V13.0969H51.241V8.86987Z" fill="black"/>
<path d="M57.8163 34.044L58.5678 25.4021H47.8594V29.723H53.8711L53.4954 34.044H47.8594V38.3649H53.1196L52.65 43.907L47.8594 45.2221V49.7309L56.5952 47.2886L56.6891 46.5371L57.7224 35.2651L57.8163 34.044Z" fill="white"/>
</g>
</g>
<defs>
<clipPath id="clip0_6744_66477">
<rect width="72" height="48" fill="white" transform="translate(12 8.86987)"/>
</clipPath>
<clipPath id="clip1_6744_66477">
<rect width="34.0978" height="48" fill="white" transform="translate(30.9512 8.86987)"/>
</clipPath>
</defs>
</svg>
