<svg width="96" height="65" viewBox="0 0 96 65" fill="none" xmlns="http://www.w3.org/2000/svg">
<rect width="96" height="64" transform="translate(0 0.869873)" fill="white"/>
<g clip-path="url(#clip0_6744_66540)">
<g clip-path="url(#clip1_6744_66540)">
<path d="M36.072 45.6024C35.9337 45.6024 35.7961 45.642 35.6765 45.721C35.5569 45.8001 35.4472 45.9364 35.4472 46.1114C35.4472 46.1344 35.4337 46.1861 35.4787 46.2762L35.467 46.2476L37.8708 54.0465C37.9139 54.1928 38.0171 54.3046 38.133 54.3688C38.2489 54.4329 38.3764 54.4574 38.5 54.4574C38.7626 54.4574 39.0511 54.332 39.1394 54.0494V54.0487L41.541 46.2205V46.192C41.541 46.2315 41.5527 46.2086 41.5527 46.1231C41.5527 45.9452 41.439 45.8143 41.3176 45.732C41.1962 45.6498 41.0532 45.6024 40.9045 45.6024C40.7211 45.6024 40.5102 45.7139 40.4394 45.9261L40.438 45.9283L38.4993 52.3986L36.5532 45.9399C36.5243 45.8245 36.4466 45.7279 36.3562 45.6741C36.2657 45.6203 36.1671 45.6024 36.072 45.6024ZM55.2176 46.0045C54.835 46.0045 54.5123 46.2976 54.5123 46.6644C54.5123 47.0312 54.8299 47.3346 55.2176 47.3346C55.5979 47.3346 55.9002 47.0255 55.9002 46.6644C55.9002 46.3033 55.5927 46.0045 55.2176 46.0045ZM49.5817 48.5013C48.2736 48.5013 47.1962 49.5481 47.1962 50.8062V52.0953C47.1962 52.8 47.477 53.4039 47.9536 53.8209C48.4301 54.2379 49.0953 54.4684 49.8579 54.4684C50.4211 54.4684 50.8802 54.3423 51.2085 54.171C51.3726 54.0854 51.5044 53.9893 51.6017 53.8846C51.6991 53.7799 51.7709 53.6653 51.7709 53.5221C51.7709 53.3905 51.7203 53.2766 51.6384 53.1742C51.5565 53.0718 51.4274 52.9779 51.2612 52.9779C51.1411 52.9779 51.0489 53.0284 50.9689 53.0775C50.889 53.1266 50.8139 53.1808 50.7236 53.2328C50.5428 53.3368 50.3034 53.4379 49.8806 53.4379C49.4098 53.4379 49.0172 53.3036 48.7468 53.0782C48.4763 52.8529 48.3191 52.54 48.3191 52.1297V51.891H50.7324C50.9898 51.891 51.2759 51.8914 51.5234 51.7335C51.7709 51.5755 51.9211 51.2615 51.9211 50.7836C51.9211 49.4601 50.8168 48.5013 49.5817 48.5013ZM58.6515 48.5013C57.9562 48.5013 57.4448 48.7263 57.1163 49.0645C56.7878 49.4028 56.6461 49.8428 56.6461 50.254C56.6461 50.778 56.8578 51.1536 57.161 51.3944C57.4642 51.6352 57.8414 51.7563 58.2003 51.8646C58.5592 51.9729 58.9027 52.0689 59.1334 52.211C59.3641 52.3531 59.4879 52.5068 59.4879 52.8314C59.4879 53.0056 59.4355 53.1443 59.2938 53.2577C59.1521 53.371 58.9004 53.4605 58.4903 53.4605C58.0052 53.4605 57.7341 53.3409 57.5367 53.2188C57.438 53.1578 57.3585 53.0945 57.2767 53.0379C57.1948 52.9814 57.102 52.92 56.972 52.92C56.8155 52.92 56.7001 53.0164 56.63 53.1163C56.5598 53.2162 56.5194 53.3296 56.5194 53.4525C56.5194 53.6044 56.5933 53.738 56.6981 53.8538C56.8029 53.9697 56.9446 54.0728 57.1185 54.1629C57.4662 54.3431 57.945 54.4683 58.5137 54.4683C59.1312 54.4683 59.639 54.3176 59.9984 54.0252C60.3578 53.7328 60.5536 53.2982 60.5536 52.797C60.5536 52.2309 60.3478 51.8238 60.0445 51.5548C59.7413 51.2858 59.3584 51.1471 58.9942 51.0355C58.6301 50.9239 58.2796 50.837 58.045 50.7147C57.8105 50.5924 57.7001 50.4795 57.7001 50.2196C57.7001 50.079 57.7563 49.9021 57.8993 49.7626C58.0423 49.623 58.2755 49.5099 58.6632 49.5099C58.973 49.5099 59.2032 49.581 59.3875 49.6564C59.4797 49.694 59.5598 49.7334 59.6358 49.7662C59.7119 49.799 59.782 49.8314 59.8827 49.8314C60.0646 49.8314 60.1892 49.7114 60.2635 49.6C60.3378 49.4885 60.3807 49.3786 60.3807 49.2528C60.3807 49.0952 60.2827 48.9835 60.1742 48.8998C60.0657 48.816 59.9297 48.7495 59.772 48.6918C59.4568 48.5763 59.0549 48.5013 58.6515 48.5013ZM42.2051 48.5709C41.901 48.5709 41.6382 48.7616 41.6382 49.0455V52.118C41.6382 53.3644 42.6979 54.4684 44.012 54.4684C45.304 54.4684 46.3858 53.3774 46.3858 52.118V49.0345C46.3858 48.8924 46.3076 48.7692 46.2049 48.691C46.1022 48.6129 45.9716 48.5709 45.8299 48.5709C45.6881 48.5709 45.5569 48.6123 45.452 48.6888C45.347 48.7653 45.263 48.8876 45.263 49.0345V52.118C45.263 52.7714 44.6936 53.4034 44.012 53.4034C43.3191 53.4034 42.7611 52.7601 42.7611 52.118V49.0455C42.7611 48.8983 42.6807 48.7849 42.5809 48.7042C42.4811 48.6235 42.3507 48.5709 42.2051 48.5709ZM55.218 48.5709C55.0758 48.5709 54.9441 48.6075 54.8393 48.6866C54.7346 48.7657 54.6628 48.8959 54.6628 49.0345V54.6955C54.6628 55.1203 54.633 55.4766 54.5398 55.6923C54.4465 55.908 54.3364 56.0036 54.0219 56.0036C53.7441 56.0036 53.5121 56.2464 53.5121 56.5368C53.5121 56.6575 53.5511 56.79 53.6498 56.8935C53.7486 56.997 53.9019 57.0576 54.079 57.0576C54.6769 57.0576 55.1343 56.7925 55.4069 56.3618C55.6795 55.9311 55.7856 55.3549 55.7856 54.6955V49.0345C55.7856 48.887 55.7013 48.7586 55.5944 48.6829C55.4875 48.6072 55.3563 48.5709 55.218 48.5709ZM49.5701 49.4981C50.3168 49.4981 50.8211 50.1233 50.8211 50.7601C50.8211 50.8295 50.8136 50.8749 50.8064 50.8956C50.7993 50.9163 50.7999 50.9136 50.7896 50.9205C50.7689 50.9343 50.6536 50.9637 50.4329 50.9637H48.3191V50.7139C48.3191 50.0475 48.8758 49.4981 49.5701 49.4981ZM53.137 53.0123C52.7291 53.0123 52.42 53.3498 52.42 53.7403C52.42 54.1154 52.7245 54.4574 53.137 54.4574C53.5278 54.4574 53.8423 54.1258 53.8423 53.7403C53.8423 53.3402 53.5225 53.0123 53.137 53.0123Z" fill="#35495E"/>
<path d="M35.7754 9.01733L43.1738 9.02013L48.01 17.0477L52.8291 9.02078L60.2211 9.01881L48.047 30.1362L35.7754 9.01733Z" fill="#35495E"/>
<path d="M27.707 9.07383L35.7693 9.0188L48.0402 30.1371L60.215 9.02009L68.2914 9.02854L48.0389 43.7851L27.707 9.07383Z" fill="#41B883"/>
</g>
</g>
<defs>
<clipPath id="clip0_6744_66540">
<rect width="72" height="48" fill="white" transform="translate(12 8.86987)"/>
</clipPath>
<clipPath id="clip1_6744_66540">
<rect width="48" height="48" fill="white" transform="translate(24 8.86987)"/>
</clipPath>
</defs>
</svg>
