<svg width="96" height="65" viewBox="0 0 96 65" fill="none" xmlns="http://www.w3.org/2000/svg">
<rect width="96" height="64" transform="translate(0 0.869873)" fill="white"/>
<g clip-path="url(#clip0_6744_66510)">
<path d="M29.0234 22.655H42.5744V23.7269H30.2656V31.7942H41.8404V32.8661H30.2656V41.7231H42.7155V42.795H29.0234V22.655ZM43.7883 22.655H45.2281L51.6083 31.5121L58.1297 22.655L66.9999 11.4045L52.427 32.4429L59.9365 42.795H58.4403L51.6083 33.3738L44.7482 42.795H43.2802L50.8461 32.4429L43.7883 22.655ZM60.4729 23.7269V22.655H75.9153V23.7269H68.8011V42.795H67.5589V23.7269H60.4729Z" fill="black"/>
<path d="M12.0703 22.655H13.623L35.034 54.5406L26.1859 42.795L13.3689 24.1782L13.3125 42.795H12.0703V22.655Z" fill="black"/>
<path d="M75.7898 41.3996C76.0466 41.3996 76.234 41.2039 76.234 40.951C76.234 40.6981 76.0466 40.5024 75.7898 40.5024C75.536 40.5024 75.3457 40.6981 75.3457 40.951C75.3457 41.2039 75.536 41.3996 75.7898 41.3996ZM77.0104 40.2194C77.0104 40.9661 77.5512 41.4538 78.3398 41.4538C79.1797 41.4538 79.6872 40.951 79.6872 40.0779V37.0041H79.0105V40.0749C79.0105 40.5596 78.7657 40.8185 78.3337 40.8185C77.947 40.8185 77.6841 40.5777 77.6751 40.2194H77.0104ZM80.5725 40.1803C80.6208 40.957 81.2704 41.4538 82.2372 41.4538C83.2704 41.4538 83.917 40.9329 83.917 40.102C83.917 39.4487 83.5484 39.0874 82.6541 38.8797L82.1737 38.7623C81.6057 38.6298 81.3761 38.4522 81.3761 38.1421C81.3761 37.7507 81.7326 37.4948 82.2674 37.4948C82.7749 37.4948 83.1254 37.7447 83.1888 38.1451H83.8475C83.8082 37.4135 83.1617 36.8987 82.2764 36.8987C81.3247 36.8987 80.6903 37.4135 80.6903 38.1872C80.6903 38.8255 81.0498 39.2048 81.8384 39.3885L82.4003 39.524C82.9774 39.6594 83.2311 39.8581 83.2311 40.1893C83.2311 40.5747 82.8323 40.8547 82.2885 40.8547C81.7054 40.8547 81.3006 40.5927 81.2432 40.1803H80.5725Z" fill="black"/>
</g>
<defs>
<clipPath id="clip0_6744_66510">
<rect width="72" height="43.1304" fill="white" transform="translate(12 11.3047)"/>
</clipPath>
</defs>
</svg>
