<svg width="96" height="65" viewBox="0 0 96 65" fill="none" xmlns="http://www.w3.org/2000/svg">
<rect width="96" height="64" transform="translate(0 0.869873)" fill="white"/>
<g clip-path="url(#clip0_6744_66520)">
<path d="M54.7578 24.1902L69.8252 40.1677C69.8252 40.1677 70.3308 40.5385 70.7353 40.1003C71.1398 39.6621 70.8365 39.2576 70.8365 39.2576L54.7578 24.1902Z" fill="#DF4F4F"/>
<path d="M59.5449 25.707L71.0056 38.0778C71.0056 38.0778 71.5112 38.4486 71.9157 38.0104C72.3202 37.5722 72.0168 37.1677 72.0168 37.1677L59.5449 25.707Z" fill="#DF4F4F"/>
<path d="M56.1738 28.9431L67.6682 41.3139C67.6682 41.3139 68.1738 41.6847 68.5783 41.2465C68.9828 40.8083 68.6794 40.4038 68.6794 40.4038L56.1738 28.9431Z" fill="#DF4F4F"/>
<path d="M63.5898 26.988L71.6123 35.6173C71.6123 35.6173 71.9831 35.8532 72.2528 35.5835C72.5224 35.3139 72.3202 34.9768 72.3202 34.9768L63.5898 26.988Z" fill="#DF4F4F"/>
<path d="M57.2852 32.6846L65.3076 41.3138C65.3076 41.3138 65.6784 41.5497 65.9481 41.2801C66.2177 41.0104 66.0155 40.6733 66.0155 40.6733L57.2852 32.6846Z" fill="#DF4F4F"/>
<path d="M67.7012 28.8755L71.3416 32.8193C71.3416 32.8193 71.5102 32.9204 71.645 32.7856C71.7798 32.6508 71.6787 32.5159 71.6787 32.5159L67.7012 28.8755Z" fill="#DF4F4F"/>
<path d="M59.3086 36.6621L62.949 40.6059C62.949 40.6059 63.1176 40.7071 63.2524 40.5722C63.3872 40.4374 63.2861 40.3026 63.2861 40.3026L59.3086 36.6621Z" fill="#DF4F4F"/>
<path d="M74.7988 30.6567V41.2747H77.1921V37.8365H79.0123L81.3382 41.2747H84.0685L81.5067 37.6006C81.5067 37.6006 83.7651 36.7242 83.7651 34.2635C83.7651 30.8253 80.6303 30.6904 80.6303 30.6904H74.7988V30.6567ZM77.1921 32.7129V35.7803H80.2595C80.2595 35.7803 81.4393 35.7803 81.4393 34.2298C81.4393 32.6118 80.0235 32.6792 80.0235 32.6792L77.1921 32.7129ZM77.1921 32.7129V35.7803H80.2595C80.2595 35.7803 81.4393 35.7803 81.4393 34.2298C81.4393 32.6118 80.0235 32.6792 80.0235 32.6792L77.1921 32.7129Z" fill="#26262C"/>
<path d="M48.2031 30.6567V41.2747H56.2593V39.2185H50.5964V36.9938H55.484V34.9376H50.5964V32.7129H56.2593V30.6567H48.2031Z" fill="#26262C"/>
<path d="M36.5742 30.6567V32.7129H39.7428V41.2747H42.136V32.7129H45.3046V30.6567H36.5742Z" fill="#26262C"/>
<path d="M25.6191 30.6567V41.2747H33.6753V39.2185H28.0124V36.9938H32.9V34.9376H28.0124V32.7129H33.6753V30.6567H25.6191Z" fill="#26262C"/>
<path d="M12.0684 30.6568V41.2747H14.4616V34.6006L17.3942 38.8815L20.3268 34.6006V41.241H22.72V30.623H20.3268L17.3942 35.0051L14.4616 30.623L12.0684 30.6568Z" fill="#26262C"/>
<path d="M80.0917 35.7857H77.2266V32.7183H80.0917C80.8333 32.7183 81.4738 33.3587 81.4738 34.1003V34.4037C81.4738 35.1789 80.8333 35.7857 80.0917 35.7857Z" fill="white"/>
</g>
<defs>
<clipPath id="clip0_6744_66520">
<rect width="72" height="17.3596" fill="white" transform="translate(12 24.1902)"/>
</clipPath>
</defs>
</svg>
