<svg width="96" height="65" viewBox="0 0 96 65" fill="none" xmlns="http://www.w3.org/2000/svg">
<rect width="96" height="64" transform="translate(0 0.869873)" fill="white"/>
<g clip-path="url(#clip0_6744_66463)">
<g clip-path="url(#clip1_6744_66463)">
<path d="M34.1522 52.94L31.0645 18.2266H65.0294L61.9416 52.94L48.0001 56.7763L34.1522 52.94Z" fill="#E44D26"/>
<path d="M48.0938 53.8757L59.2283 50.6944L61.9417 21.1272H48.0938V53.8757Z" fill="#F16529"/>
<path d="M48.0942 33.9458H42.4802L42.0123 29.6417H48.0942V25.3376H48.0007H37.334L37.5211 26.4605L38.5504 38.2499H48.0942V33.9458Z" fill="#EBEBEB"/>
<path d="M48.0931 45.0803H47.9995L43.3211 43.7703L43.0404 40.3083H40.7012H38.7363L39.2977 47.0452L47.9995 49.4779H48.0931V45.0803Z" fill="#EBEBEB"/>
<path d="M34.2461 8.86987H36.3981V11.0219H38.3631V8.86987H40.5151V15.326H38.3631V13.174H36.3981V15.326H34.2461V8.86987Z" fill="black"/>
<path d="M43.4163 11.0219H41.5449V8.86987H47.4397V11.0219H45.5683V15.326H43.4163V11.0219Z" fill="black"/>
<path d="M48.375 8.86987H50.6206L52.0241 11.1155L53.4276 8.86987H55.6732V15.326H53.5212V12.1447L52.1177 14.3903H52.0241L50.527 12.1447V15.326H48.4686L48.375 8.86987Z" fill="black"/>
<path d="M56.7012 8.86987H58.8532V13.174H61.9409V15.326H56.7012V8.86987Z" fill="black"/>
<path d="M48 33.9458V38.2499H53.2398L52.7719 43.7704L48 45.0803V49.478L56.7018 47.0452L56.7953 46.3902L57.8246 35.1622L57.9181 33.9458H56.7953H48Z" fill="white"/>
<path d="M48 25.3376V28.0511V29.5482V29.6417H58.2924L58.386 28.7061L58.5731 26.4605L58.6667 25.3376H48Z" fill="white"/>
</g>
</g>
<defs>
<clipPath id="clip0_6744_66463">
<rect width="72" height="48" fill="white" transform="translate(12 8.86987)"/>
</clipPath>
<clipPath id="clip1_6744_66463">
<rect width="33.8713" height="48" fill="white" transform="translate(31.0645 8.86987)"/>
</clipPath>
</defs>
</svg>
