<svg width="96" height="65" viewBox="0 0 96 65" fill="none" xmlns="http://www.w3.org/2000/svg">
<rect width="96" height="64" transform="translate(0 0.869873)" fill="white"/>
<g clip-path="url(#clip0_6744_66491)">
<path d="M33.1777 37.5821V28.7215H34.3168L39.7312 35.8512V28.7215H40.8141V37.5821H39.6747L34.2603 30.3821V37.5821H33.1777ZM49.6309 37.2304C48.8927 37.5033 48.1116 37.6414 47.3246 37.6383C44.1182 37.6383 42.515 36.1007 42.515 33.0256C42.515 30.1147 44.0618 28.6569 47.1555 28.6521C48.0414 28.6521 48.8711 28.7785 49.6306 29.0178V30.0022C48.8819 29.7116 48.0854 29.5637 47.2822 29.5662C44.863 29.5662 43.6534 30.7182 43.6534 32.9974C43.6534 35.4584 44.8486 36.6818 47.2246 36.6818C47.6042 36.6818 48.0262 36.6242 48.4904 36.5272V33.5608H49.6294V37.2293L49.6309 37.2304ZM51.4591 34.1647V28.7215H52.5982V34.1647C52.5982 35.8662 53.442 36.7241 55.1435 36.7241C56.8309 36.7241 57.6888 35.8662 57.6888 34.1647V28.7215H58.8285V34.1647C58.8285 36.4851 57.605 37.6521 55.1441 37.6521C52.6831 37.6521 51.4591 36.484 51.4591 34.1635V34.1647ZM62.006 28.7215V36.6527H66.6465V37.5821H60.8669V28.7215H62.006ZM68.2918 37.5821H67.0966L71.4982 27.5557L75.8997 37.5821H74.6339L73.4949 34.7977H70.5699L70.8792 33.8669H73.1153L71.4558 29.8591L68.2918 37.5821ZM77.1231 37.5821V28.7215H80.906C82.5934 28.7215 83.4372 29.4245 83.4372 30.8449C83.4372 31.9969 82.6075 32.8557 80.9621 33.4044L83.9997 37.5821H82.4949L79.6825 33.6011V32.8557C81.3699 32.5885 82.2279 31.9416 82.2279 30.9011C82.2279 30.0855 81.7639 29.6776 80.8216 29.6776H78.2903V37.5821H77.1231Z" fill="#B52E31"/>
<path d="M12 26.3588L21.0703 23.1245L30.3796 26.3026L28.8748 38.2978L21.07 42.6149L13.3922 38.3542L12 26.3588Z" fill="#E23237"/>
<path d="M30.3796 26.3026L21.0703 23.1245V42.6152L28.8751 38.2981L30.3799 26.3029L30.3796 26.3026Z" fill="#B52E31"/>
<path d="M21.0848 25.4026L15.4316 37.9744L17.541 37.9323L18.68 35.0918H23.7286L24.967 37.9605L26.9764 38.0026L21.0848 25.4026ZM21.0989 29.4386L23.0115 33.4323H19.4253L21.0989 29.4386Z" fill="white"/>
</g>
<defs>
<clipPath id="clip0_6744_66491">
<rect width="72" height="19.4907" fill="white" transform="translate(12 23.1245)"/>
</clipPath>
</defs>
</svg>
