<svg width="96" height="65" viewBox="0 0 96 65" fill="none" xmlns="http://www.w3.org/2000/svg">
<rect width="96" height="64" transform="translate(0 0.869873)" fill="white"/>
<g clip-path="url(#clip0_6744_66486)">
<g clip-path="url(#clip1_6744_66486)">
<path d="M72 8.86987H24V56.8699H72V8.86987Z" fill="#F7DF1E"/>
<path d="M56.244 46.3699C57.2109 47.9486 58.4688 49.109 60.6935 49.109C62.5625 49.109 63.7564 48.1749 63.7564 46.8842C63.7564 45.3376 62.5297 44.7898 60.4726 43.8899L59.345 43.4061C56.0901 42.0195 53.9278 40.2823 53.9278 36.6099C53.9278 33.2271 56.5053 30.6519 60.5335 30.6519C63.4013 30.6519 65.4631 31.65 66.9488 34.2633L63.4364 36.5185C62.6631 35.1319 61.8288 34.5856 60.5335 34.5856C59.2124 34.5856 58.3751 35.4237 58.3751 36.5185C58.3751 37.8717 59.2131 38.4195 61.1484 39.2576L62.276 39.7406C66.1084 41.384 68.2722 43.0595 68.2722 46.8263C68.2722 50.8873 65.0821 53.112 60.7979 53.112C56.609 53.112 53.9027 51.1159 52.5785 48.4995L56.244 46.3699ZM40.3103 46.7608C41.0189 48.0179 41.6634 49.0808 43.2131 49.0808C44.6951 49.0808 45.6299 48.501 45.6299 46.2465V30.9094H50.1404V46.3075C50.1404 50.9779 47.4021 53.1037 43.4051 53.1037C39.7937 53.1037 37.7023 51.2347 36.6387 48.9837L40.3103 46.7608Z" fill="black"/>
</g>
</g>
<defs>
<clipPath id="clip0_6744_66486">
<rect width="72" height="48" fill="white" transform="translate(12 8.86987)"/>
</clipPath>
<clipPath id="clip1_6744_66486">
<rect width="48" height="48" fill="white" transform="translate(24 8.86987)"/>
</clipPath>
</defs>
</svg>
