<svg width="96" height="65" viewBox="0 0 96 65" fill="none" xmlns="http://www.w3.org/2000/svg">
<rect width="96" height="64" transform="translate(0 0.869873)" fill="white"/>
<g clip-path="url(#clip0_6744_66500)">
<g clip-path="url(#clip1_6744_66500)">
<path d="M48.0004 29.2883C49.8744 29.2883 51.3935 27.7691 51.3935 25.8952C51.3935 24.0213 49.8744 22.5022 48.0004 22.5022C46.1265 22.5022 44.6074 24.0213 44.6074 25.8952C44.6074 27.7691 46.1265 29.2883 48.0004 29.2883Z" fill="#00D8FF"/>
<path d="M47.9998 33.833C43.2263 33.833 39.0427 33.2671 35.9045 32.1996C31.5524 30.7088 28.8496 28.295 28.8496 25.8952C28.8496 23.5857 31.3517 21.3323 35.5454 19.8656C38.9565 18.6797 43.3708 18.0276 47.9998 18.0276C52.5346 18.0276 56.8988 18.6677 60.2858 19.8335C64.5837 21.3183 67.1501 23.5857 67.1501 25.9012C67.1501 28.309 64.353 30.7168 59.8484 32.2137C56.6941 33.2551 52.4844 33.833 47.9998 33.833ZM47.9998 19.9779C43.6517 19.9779 39.3457 20.608 36.1875 21.7075C32.4874 23.0018 30.7999 24.7876 30.7999 25.8952C30.7999 27.1352 32.7704 29.0635 36.5346 30.3516C39.4721 31.3549 43.437 31.8806 47.9998 31.8806C52.2818 31.8806 56.2727 31.3388 59.2364 30.3557C63.3337 29.0013 65.1977 27.0951 65.1977 25.8952C65.1977 24.7835 63.4621 22.9897 59.6497 21.6815C56.4634 20.5799 52.3259 19.9779 47.9998 19.9779Z" fill="#00D8FF"/>
<path d="M40.3042 42.9807C39.6398 42.9952 38.9834 42.8332 38.402 42.5112C36.3955 41.3574 35.6932 38.0607 36.5239 33.6966C37.1981 30.1611 38.8415 26.0035 41.151 21.9885C43.4284 18.0457 46.1673 14.5864 48.858 12.2448C52.2892 9.25311 55.5357 8.16758 57.5423 9.32133C59.621 10.5252 60.3193 14.155 59.3682 18.7981C58.696 22.0627 57.0908 25.9975 54.8495 29.8781C52.4577 34.0156 49.8773 37.3625 47.3852 39.5395C44.837 41.7768 42.2927 42.9807 40.3042 42.9807ZM42.8425 22.9576C40.6694 26.7279 39.0662 30.7771 38.4402 34.0537C37.7078 37.9042 38.4121 40.2579 39.3752 40.8117C40.4507 41.4337 43.1073 40.6873 46.1011 38.0688C48.4326 36.0261 50.8726 32.8518 53.158 28.901C55.297 25.1969 56.8239 21.4768 57.454 18.4028C58.3188 14.1892 57.5984 11.6088 56.5631 11.0088C55.6019 10.455 53.1801 11.063 50.1422 13.7076C47.61 15.9148 45.0175 19.1954 42.8445 22.9556L42.8425 22.9576Z" fill="#00D8FF"/>
<path d="M55.6974 42.9808C53.8132 42.9808 51.4415 41.8572 48.9856 39.7423C46.2667 37.4027 43.4877 33.9053 41.1601 29.8943C38.8827 25.9555 37.2534 21.8582 36.5672 18.3508C35.6964 13.8883 36.3665 10.5254 38.3731 9.3696C40.4578 8.16568 43.9512 9.3696 47.4927 12.5198C49.9848 14.727 52.5913 18.0859 54.8346 21.9665C57.2424 26.116 58.8476 30.0207 59.4756 33.2572C60.3685 37.7699 59.6322 41.3194 57.5514 42.5153C56.9852 42.8313 56.3456 42.9919 55.6974 42.9808ZM42.8556 28.9151C45.0427 32.6874 47.7435 36.0945 50.2657 38.2635C53.2314 40.8198 55.6271 41.3856 56.5903 40.8258C57.6638 40.2078 58.346 37.5391 57.5735 33.6365C56.9715 30.6086 55.4526 26.9106 53.1591 22.9457C51.0202 19.2397 48.5441 16.0573 46.2105 13.9806C43.1265 11.2417 40.4318 10.4411 39.3583 11.0591C38.3951 11.6169 37.7109 14.0207 38.4814 17.9776C39.1275 21.2763 40.6886 25.1609 42.8496 28.9151H42.8556Z" fill="#00D8FF"/>
<path d="M39.8853 56.7113L37.6019 53.3243C38.7657 53.2179 39.771 52.3712 39.771 50.8904C39.771 49.3554 38.6593 48.3501 37.1785 48.3501H33.8457V56.7093H34.9031V53.3764H36.5425L38.6614 56.7113H39.8853ZM37.0762 52.5297H34.9031V49.3554H37.0762C38.0795 49.3554 38.7155 49.9894 38.7155 50.9425C38.7155 51.8956 38.0273 52.5297 37.0762 52.5297ZM43.7439 56.8678C44.7498 56.8678 45.5437 56.5501 46.1256 55.9147L45.6501 55.2806C45.1519 55.7619 44.4847 56.0285 43.792 56.023C42.4697 56.023 41.6751 55.0699 41.623 53.9062H46.545V53.6413C46.545 51.8354 45.4875 50.4128 43.6355 50.4128C41.8898 50.4128 40.6719 51.8414 40.6719 53.5871C40.6719 55.5936 41.942 56.8678 43.7399 56.8678H43.7439ZM45.6481 53.3223H41.6772C41.7293 52.3692 42.3654 51.3157 43.6355 51.3157C43.9008 51.3103 44.1644 51.3585 44.4106 51.4575C44.6567 51.5565 44.8803 51.7042 45.0679 51.8918C45.2555 52.0795 45.4033 52.3031 45.5023 52.5492C45.6013 52.7954 45.6495 53.059 45.644 53.3243L45.6481 53.3223ZM52.7913 56.7093V52.5839C52.7913 51.103 51.7338 50.5212 50.4637 50.5212C50.01 50.506 49.5583 50.5876 49.1387 50.7606C48.719 50.9336 48.341 51.194 48.0298 51.5244L48.4532 52.1585C48.6788 51.8877 48.9623 51.671 49.2829 51.5244C49.6034 51.3779 49.9528 51.3052 50.3052 51.3117C51.2041 51.3117 51.8402 51.7873 51.8402 52.5819V53.6935C51.3646 53.1116 50.6764 52.8467 49.8337 52.8467C48.8304 52.8467 47.7168 53.4808 47.7168 54.8532C47.7168 56.1755 48.8284 56.8598 49.8337 56.8598C50.2094 56.8715 50.5832 56.802 50.9295 56.6558C51.2758 56.5097 51.5865 56.2904 51.8402 56.013V56.7012L52.7913 56.7093ZM50.1989 56.2337C49.2999 56.2337 48.718 55.704 48.718 54.9114C48.718 54.1188 49.3521 53.5891 50.1989 53.5891C50.8871 53.5891 51.5211 53.854 51.8382 54.3295V55.4933C51.5211 55.9689 50.8349 56.2337 50.1989 56.2337ZM57.3421 56.8678C57.7705 56.884 58.1964 56.7963 58.5836 56.6121C58.9707 56.428 59.3075 56.1529 59.5653 55.8103L58.9312 55.2285C58.7597 55.4767 58.5303 55.6795 58.2629 55.8193C57.9954 55.9592 57.698 56.0318 57.3962 56.0311C56.1261 56.0311 55.3335 55.0278 55.3335 53.7035C55.3335 52.3792 56.1361 51.3759 57.3962 51.3759C57.6991 51.3691 57.9987 51.4391 58.2672 51.5794C58.5356 51.7198 58.7641 51.9259 58.9312 52.1785L59.5653 51.5967C59.3097 51.2504 58.9738 50.9714 58.5866 50.7837C58.1993 50.596 57.7722 50.5052 57.3421 50.5191C55.5362 50.5191 54.3323 51.8956 54.3323 53.6935C54.3323 55.4913 55.5482 56.8678 57.3421 56.8678ZM62.4206 56.8678C62.8255 56.8951 63.2249 56.7617 63.5322 56.4966L63.2673 55.8083C63.1878 55.8967 63.0897 55.9663 62.9801 56.0121C62.8704 56.0579 62.752 56.0787 62.6333 56.0732C62.2099 56.0732 61.9992 55.7562 61.9992 55.2706V51.5244H63.2172V50.6777H61.9992V49.0383H61.0461V50.6777H60.0428V51.5244H61.0461V55.4933C61.0461 56.3922 61.5217 56.8698 62.4226 56.8698L62.4206 56.8678Z" fill="#00D8FF"/>
</g>
</g>
<defs>
<clipPath id="clip0_6744_66500">
<rect width="72" height="48" fill="white" transform="translate(12 8.86987)"/>
</clipPath>
<clipPath id="clip1_6744_66500">
<rect width="38.3005" height="48" fill="white" transform="translate(28.8496 8.86987)"/>
</clipPath>
</defs>
</svg>
