<svg width="558" height="63" viewBox="0 0 558 63" fill="none" xmlns="http://www.w3.org/2000/svg">
    <rect width="91.8691" height="61.2461" transform="translate(0.623047 0.398926)" fill="white"/>
    <g clip-path="url(#clip0_8130_78966)">
        <path d="M14.0383 21.561L12.1055 22.5202V39.4852L14.0383 40.4462L14.0491 40.4318V21.561H14.0383Z" fill="#8C3123"/>
        <path d="M24.3832 37.9843L14.0391 40.4462V21.561L24.3832 23.9617V37.9825" fill="#E05243"/>
        <path d="M19.7148 34.13L24.1023 34.6878L24.1293 34.6248L24.1545 27.4264L24.1023 27.3706L19.7148 27.9231V34.13Z" fill="#8C3123"/>
        <path d="M24.1016 38.0117L34.1632 40.4573L34.1794 40.4321V21.5704L34.1632 21.5542L24.1016 23.9909V38.0117Z" fill="#8C3123"/>
        <path d="M28.4811 34.1296L24.0918 34.6875V27.3721L28.4811 27.9228V34.1296Z" fill="#E05243"/>
        <path d="M28.4826 24.9231L24.1023 25.7221L19.7148 24.9231L24.0969 23.7749L28.4826 24.9231Z" fill="#5E1F18"/>
        <path d="M28.4826 37.1228L24.1023 36.3184L19.7148 37.1228L24.0969 38.3465L28.4826 37.1228Z" fill="#F2B0A9"/>
        <path d="M19.7148 24.9231L24.1023 23.8433L24.1383 23.8325V16.5513L24.1023 16.5225L19.7148 18.7162V24.9231Z" fill="#8C3123"/>
        <path d="M28.4811 24.9231L24.0918 23.8433V16.5225L28.4811 18.7162V24.9231Z" fill="#E05243"/>
        <path d="M24.1021 45.5214L19.7129 43.3366V37.1226L24.1003 38.2023L24.1651 38.2761L24.1471 45.39L24.1003 45.516" fill="#8C3123"/>
        <path d="M24.1008 45.5211L28.4811 43.3364V37.1223L24.0918 38.2021V45.5157M34.1624 21.561L36.097 22.5274V39.4852L34.1624 40.457V21.561Z" fill="#E05243"/>
        <path d="M64.1566 24.6981V23.7983C64.1556 23.7678 64.1609 23.7374 64.1721 23.709C64.1833 23.6806 64.2002 23.6548 64.2218 23.6332C64.2434 23.6116 64.2692 23.5947 64.2976 23.5835C64.326 23.5723 64.3564 23.567 64.3869 23.568H68.4505C68.4812 23.567 68.5117 23.5723 68.5403 23.5835C68.5689 23.5946 68.5949 23.6115 68.6168 23.6331C68.6387 23.6546 68.6559 23.6803 68.6676 23.7088C68.6792 23.7372 68.6849 23.7676 68.6844 23.7983V24.5668C68.6844 24.6963 68.5728 24.8673 68.3785 25.1373L66.2747 28.1444C67.0779 28.0992 67.8785 28.2707 68.5926 28.6411C68.6575 28.6764 68.7117 28.7284 68.7496 28.7917C68.7876 28.8549 68.808 28.9272 68.8086 29.001V29.9692C68.8086 30.1006 68.6628 30.2554 68.5099 30.1762C67.8463 29.8337 67.1105 29.655 66.3638 29.655C65.6171 29.655 64.8813 29.8337 64.2178 30.1762C64.0774 30.2536 63.9298 30.0988 63.9298 29.9674V29.0478C63.9163 28.8294 63.9683 28.612 64.0792 28.4233L66.5177 24.9249H64.3905C64.36 24.9261 64.3294 24.9211 64.3008 24.9101C64.2723 24.8991 64.2462 24.8824 64.2243 24.861C64.2024 24.8396 64.1851 24.814 64.1735 24.7857C64.1618 24.7574 64.1561 24.727 64.1566 24.6963" fill="#201C1D"/>
        <path d="M49.3327 30.3597H48.0964C48.0403 30.3569 47.9872 30.3341 47.9466 30.2955C47.9059 30.2569 47.8805 30.2049 47.875 30.1491V23.8055C47.8755 23.7748 47.882 23.7446 47.8942 23.7165C47.9064 23.6884 47.9241 23.663 47.9462 23.6417C47.9683 23.6205 47.9943 23.6038 48.0229 23.5927C48.0514 23.5816 48.0819 23.5762 48.1125 23.5769H49.2643C49.3213 23.5785 49.3758 23.601 49.4173 23.6402C49.4588 23.6793 49.4844 23.7324 49.4893 23.7893V24.6207H49.5126C49.8132 23.8199 50.3783 23.4455 51.1323 23.4455C51.8863 23.4455 52.392 23.8199 52.7376 24.6207C52.8522 24.3189 53.0448 24.0529 53.2958 23.8499C53.5468 23.6469 53.8472 23.5141 54.1663 23.465C54.4854 23.416 54.8118 23.4525 55.1121 23.5708C55.4125 23.6891 55.6761 23.8849 55.8761 24.1384C56.2666 24.6783 56.1874 25.4467 56.1874 26.127V30.1311C56.1869 30.1618 56.1804 30.1922 56.1682 30.2204C56.156 30.2486 56.1384 30.2741 56.1164 30.2955C56.0943 30.3169 56.0682 30.3337 56.0397 30.345C56.0111 30.3564 55.9806 30.3619 55.9499 30.3615H54.7153C54.6559 30.3583 54.5999 30.3328 54.5585 30.2901C54.5172 30.2474 54.4935 30.1906 54.4922 30.1311V26.7676C54.5106 26.3708 54.4991 25.9732 54.458 25.5781C54.3662 25.1516 54.0981 25.0382 53.7381 25.0382C53.5775 25.0429 53.4217 25.0947 53.2902 25.1872C53.1587 25.2796 53.0573 25.4087 52.9985 25.5583C52.8707 25.8786 52.8833 26.4131 52.8833 26.773V30.1311C52.8829 30.1618 52.8763 30.1922 52.8641 30.2204C52.852 30.2486 52.8343 30.2741 52.8123 30.2955C52.7902 30.3169 52.7641 30.3337 52.7356 30.345C52.707 30.3564 52.6765 30.3619 52.6458 30.3615H51.4112C51.3517 30.3587 51.2955 30.3334 51.254 30.2905C51.2125 30.2477 51.1889 30.1907 51.1881 30.1311V26.7676C51.1881 26.0604 51.3051 25.0184 50.4269 25.0184C49.5486 25.0184 49.5738 26.0334 49.5738 26.7676V30.1311C49.5734 30.1618 49.5668 30.1922 49.5547 30.2204C49.5425 30.2486 49.5248 30.2741 49.5028 30.2955C49.4807 30.3169 49.4547 30.3337 49.4261 30.345C49.3975 30.3564 49.367 30.3619 49.3363 30.3615" fill="#201C1D"/>
        <path d="M72.1806 23.4438C74.0145 23.4438 75.0078 25.0185 75.0078 27.0215C75.0078 28.9561 73.9101 30.4911 72.1806 30.4911C70.381 30.4911 69.3984 28.9165 69.3984 26.9531C69.3984 24.9897 70.3918 23.4438 72.1806 23.4438ZM72.1914 24.7396C71.2808 24.7396 71.2232 25.9813 71.2232 26.7551C71.2232 27.529 71.2107 29.1846 72.1806 29.1846C73.1506 29.1846 73.183 27.8493 73.183 27.0359C73.2047 26.4692 73.1441 25.9025 73.0031 25.3532C72.9649 25.1708 72.8621 25.0082 72.7137 24.8955C72.5652 24.7827 72.3811 24.7274 72.195 24.7396" fill="#201C1D"/>
        <path d="M77.3857 30.3598H76.1548C76.0954 30.3567 76.0394 30.3312 75.998 30.2884C75.9566 30.2457 75.9329 30.1889 75.9316 30.1295V23.7858C75.9384 23.7273 75.967 23.6735 76.0117 23.6351C76.0564 23.5968 76.1139 23.5767 76.1728 23.5789H77.3191C77.3706 23.5806 77.4202 23.5991 77.4601 23.6316C77.5001 23.6641 77.5283 23.7088 77.5405 23.7588V24.7288H77.5639C77.9094 23.8614 78.3953 23.4475 79.2483 23.4475C79.5328 23.4345 79.8156 23.4966 80.0684 23.6277C80.3211 23.7589 80.5349 23.9543 80.688 24.1943C81.0119 24.7018 81.012 25.5549 81.012 26.1739V30.1601C81.0029 30.2163 80.9739 30.2674 80.9303 30.3041C80.8867 30.3408 80.8314 30.3605 80.7744 30.3598H79.5345C79.4804 30.3571 79.429 30.3356 79.389 30.2992C79.3489 30.2628 79.3228 30.2136 79.3149 30.1601V26.7138C79.3149 26.021 79.3941 25.0042 78.5411 25.0042C78.3849 25.0101 78.2337 25.0611 78.1059 25.1512C77.9782 25.2413 77.8793 25.3665 77.8212 25.5117C77.6687 25.8932 77.6017 26.3036 77.6251 26.7138V30.1331C77.6232 30.1954 77.5968 30.2546 77.5517 30.2977C77.5066 30.3408 77.4463 30.3644 77.3839 30.3634" fill="#201C1D"/>
        <path d="M46.9132 29.197C46.6865 28.8839 46.4471 28.6302 46.4471 28.0507V26.1251C46.4471 25.3099 46.5047 24.5612 45.9073 23.9997C45.4322 23.5444 44.6475 23.3843 44.0447 23.3843C42.8695 23.3843 41.5576 23.8216 41.2804 25.2757C41.2748 25.3045 41.2749 25.3343 41.2809 25.3631C41.287 25.3919 41.2987 25.4192 41.3155 25.4434C41.3323 25.4675 41.3538 25.4881 41.3787 25.5038C41.4036 25.5195 41.4314 25.5301 41.4604 25.5348L42.6607 25.6626C42.7169 25.6539 42.7686 25.627 42.8079 25.586C42.8473 25.545 42.8721 25.4923 42.8785 25.4358C42.9811 24.9355 43.4022 24.6944 43.8737 24.6944C44.0066 24.6885 44.1389 24.7147 44.2595 24.7707C44.3801 24.8268 44.4854 24.9111 44.5665 25.0165C44.7465 25.2703 44.7159 25.6176 44.7159 25.9163V26.0765C43.9961 26.1575 43.0621 26.2097 42.3908 26.5066C41.9902 26.6673 41.6487 26.9475 41.413 27.3091C41.1773 27.6707 41.0588 28.0962 41.0735 28.5276C41.0735 29.8125 41.8833 30.4532 42.9235 30.4532C43.8035 30.4532 44.2822 30.2462 44.9607 29.5534C45.1444 29.8688 45.3833 30.1486 45.6661 30.3794C45.7119 30.4048 45.7643 30.4157 45.8164 30.4105C45.8685 30.4054 45.9177 30.3845 45.9576 30.3506C46.2042 30.131 46.6523 29.7405 46.9042 29.53C46.9271 29.5089 46.9455 29.4835 46.9584 29.4553C46.9712 29.427 46.9783 29.3964 46.9791 29.3654C46.98 29.3344 46.9746 29.3035 46.9632 29.2745C46.9519 29.2456 46.9349 29.2193 46.9132 29.197ZM44.4802 28.6409C44.4012 28.8027 44.2802 28.9401 44.1297 29.0389C43.9793 29.1377 43.8051 29.1942 43.6253 29.2024C43.1502 29.2024 42.8749 28.8425 42.8749 28.3026C42.8749 27.2498 43.8197 27.0573 44.7123 27.0573V27.3254C44.7123 27.8113 44.7231 28.2198 44.4802 28.6409Z" fill="#201C1D"/>
        <path d="M63.118 29.197C62.8912 28.8839 62.6519 28.6302 62.6519 28.0507V26.1251C62.6519 25.3099 62.7095 24.5612 62.112 23.9997C61.6369 23.5444 60.8523 23.3843 60.2494 23.3843C59.0743 23.3843 57.7605 23.8216 57.4852 25.2757C57.4792 25.3046 57.4792 25.3344 57.4851 25.3633C57.4911 25.3922 57.5028 25.4196 57.5196 25.4438C57.5364 25.4681 57.558 25.4886 57.583 25.5043C57.6081 25.5199 57.636 25.5303 57.6652 25.5348L58.8637 25.6626C58.9195 25.6535 58.9708 25.6265 59.0098 25.5855C59.0488 25.5446 59.0733 25.492 59.0797 25.4358C59.1822 24.9355 59.6015 24.6944 60.073 24.6944C60.206 24.688 60.3385 24.714 60.4591 24.7701C60.5798 24.8262 60.6851 24.9108 60.7659 25.0165C60.9459 25.2703 60.9171 25.6176 60.9171 25.9163V26.0765C60.1972 26.1575 59.2632 26.2097 58.592 26.5066C58.1927 26.6669 57.8523 26.9461 57.617 27.3063C57.3817 27.6665 57.2628 28.0903 57.2764 28.5204C57.2764 29.8053 58.0845 30.446 59.1264 30.446C60.0047 30.446 60.4852 30.239 61.1636 29.5462C61.3466 29.8647 61.5863 30.1471 61.8709 30.3794C61.9166 30.4048 61.969 30.4157 62.0211 30.4105C62.0732 30.4054 62.1225 30.3845 62.1624 30.3506C62.4089 30.131 62.857 29.7405 63.109 29.53C63.1316 29.5088 63.1498 29.4834 63.1626 29.4551C63.1753 29.4268 63.1823 29.3963 63.1831 29.3654C63.1839 29.3344 63.1786 29.3036 63.1674 29.2747C63.1563 29.2458 63.1394 29.2194 63.118 29.197ZM60.6867 28.6409C60.6076 28.8025 60.4865 28.9399 60.3361 29.0387C60.1858 29.1374 60.0116 29.194 59.8319 29.2024C59.3568 29.2024 59.0797 28.8425 59.0797 28.3026C59.0797 27.2498 60.0245 27.0573 60.9189 27.0573V27.3254C60.9171 27.8113 60.9297 28.2198 60.6849 28.6409H60.6867Z" fill="#201C1D"/>
        <path d="M45.2859 37.146C45.1498 36.8762 44.9511 36.643 44.7064 36.4657C44.381 36.2505 44.0343 36.0696 43.6716 35.9258C43.2847 35.7847 42.9208 35.587 42.5919 35.3391C42.4986 35.2525 42.4252 35.1466 42.3768 35.0289C42.3283 34.9111 42.3059 34.7843 42.3111 34.6571C42.3087 34.407 42.3962 34.1643 42.5577 33.9732C42.6443 33.8722 42.7529 33.7924 42.8752 33.74C42.9975 33.6876 43.1302 33.6639 43.2631 33.6709C43.4051 33.6636 43.5471 33.6859 43.68 33.7364C43.8129 33.7869 43.9338 33.8645 44.0352 33.9642C44.2438 34.2064 44.3923 34.4943 44.4689 34.8047L45.3273 34.4735C45.0303 33.3344 44.3501 32.7585 43.3081 32.7585C43.0401 32.7472 42.7728 32.7937 42.5243 32.895C42.2759 32.9962 42.0522 33.1497 41.8684 33.3452C41.5792 33.6802 41.3963 34.0939 41.3431 34.5333C41.2899 34.9727 41.3687 35.418 41.5697 35.8124C41.7074 36.0808 41.9088 36.3113 42.1564 36.4837C42.522 36.7038 42.9055 36.8928 43.3027 37.0488C43.8192 37.2683 44.1359 37.4699 44.2691 37.666C44.3982 37.8534 44.4672 38.0756 44.4671 38.3031C44.4746 38.5923 44.3716 38.8736 44.1791 39.0895C44.0703 39.2002 43.9389 39.2861 43.7939 39.3414C43.6488 39.3967 43.4936 39.42 43.3387 39.4099C42.6063 39.4099 42.142 38.9546 41.9584 38.0566L41.0586 38.3373C41.3519 39.66 42.1006 40.3313 43.2883 40.3313C43.983 40.3313 44.5318 40.1153 44.908 39.6906C45.2933 39.2649 45.5013 38.708 45.4892 38.1339C45.5017 37.7931 45.4319 37.4542 45.2859 37.146Z" fill="black"/>
        <path d="M49.2163 36.3992L49.1029 36.365L49.2109 36.3147C49.5268 36.1829 49.7939 35.9563 49.9754 35.6661C50.1569 35.376 50.2438 35.0367 50.2241 34.695C50.2367 34.4372 50.1983 34.1794 50.1113 33.9364C50.0242 33.6934 49.8901 33.4699 49.7166 33.2787C49.5317 33.1007 49.3121 32.9626 49.0716 32.8732C48.831 32.7837 48.5746 32.7447 48.3183 32.7586C47.2961 32.7586 46.6231 33.3381 46.3207 34.4808L47.1594 34.6968C47.3393 33.977 47.6992 33.6062 48.2391 33.6062C48.3771 33.5994 48.5146 33.6262 48.64 33.6842C48.7654 33.7421 48.8748 33.8296 48.959 33.9392C49.1096 34.1774 49.1963 34.4505 49.2105 34.7321C49.2246 35.0136 49.1659 35.294 49.04 35.5462C48.9489 35.7154 48.802 35.8477 48.6242 35.9205C48.4066 35.9851 48.1799 36.0137 47.953 36.0051H47.5787V36.8149H47.953C48.4785 36.8149 48.8528 36.9355 49.0454 37.1749C49.251 37.4341 49.357 37.7584 49.3441 38.0891C49.3441 38.5588 49.2325 38.9061 49.0148 39.1256C48.9133 39.2306 48.7916 39.3139 48.6571 39.3705C48.5225 39.4271 48.3779 39.4558 48.2319 39.455C47.5877 39.455 47.1756 39.0339 47.0028 38.1952L46.1426 38.422C46.2506 39.0843 46.5025 39.5702 46.8786 39.8617C47.2867 40.1729 47.7891 40.3349 48.3021 40.3206C48.5819 40.3307 48.8608 40.2849 49.1226 40.1857C49.3843 40.0865 49.6236 39.9359 49.8264 39.7429C50.2187 39.3596 50.4185 38.8269 50.4185 38.1557C50.4077 37.2181 50.0189 36.6404 49.2163 36.3992Z" fill="black"/>
    </g>
    <rect width="91.8691" height="61.2461" transform="translate(93.4492 0.398926)" fill="white"/>
    <g clip-path="url(#clip1_8130_78966)">
        <path d="M114.507 17.5894H119.765C119.765 26.2519 119.765 34.9149 119.765 43.5785C119.765 43.7949 119.765 44.0113 119.765 44.2277C119.765 44.4441 119.765 44.4501 119.55 44.4501H114.504C114.504 44.3531 114.504 44.2561 114.504 44.1516C114.506 35.299 114.507 26.4449 114.507 17.5894Z" fill="#2D72B7"/>
        <path d="M114.504 44.4545H119.549C119.758 44.4545 119.762 44.4545 119.764 44.2321C119.765 44.0097 119.764 43.7993 119.764 43.5829C119.764 34.9203 119.764 26.2573 119.764 17.5938H119.828C119.958 17.6808 120.096 17.7553 120.24 17.8161C121.32 18.3594 122.402 18.8997 123.486 19.437C123.543 19.458 123.591 19.4973 123.622 19.5487C123.654 19.6001 123.667 19.6606 123.661 19.7206C123.661 20.5698 123.661 21.4191 123.661 22.2683C123.661 22.3444 123.661 22.4175 123.661 22.4952C123.661 28.1667 123.661 33.8382 123.661 39.5098C123.661 39.5859 123.661 39.659 123.661 39.7367C123.661 40.6068 123.661 41.4784 123.661 42.3486C123.667 42.4087 123.654 42.4694 123.622 42.5208C123.59 42.5722 123.541 42.6114 123.485 42.6321C122.337 43.1993 121.194 43.7739 120.052 44.347C119.98 44.3735 119.914 44.4141 119.858 44.4664H114.416L114.504 44.4545Z" fill="#5293CE"/>
        <path d="M114.503 44.4546H114.414C113.21 43.8576 112.009 43.2486 110.801 42.6501C110.737 42.6279 110.683 42.5846 110.647 42.5274C110.611 42.4702 110.595 42.4024 110.603 42.3352C110.603 41.4651 110.603 40.5934 110.603 39.7233C110.603 39.6591 110.603 39.5935 110.603 39.5293C110.603 33.8388 110.603 28.1489 110.603 22.4594C110.603 22.3952 110.603 22.3296 110.603 22.2654C110.603 21.44 110.612 20.6132 110.603 19.7878C110.592 19.7068 110.609 19.6245 110.652 19.5546C110.694 19.4847 110.759 19.4311 110.835 19.4028C111.974 18.8446 113.101 18.2759 114.231 17.7102C114.303 17.6744 114.371 17.6297 114.44 17.5894H114.504C114.504 26.4449 114.504 35.3005 114.504 44.1561C114.506 44.2546 114.504 44.3516 114.503 44.4546Z" fill="#205B97"/>
        <path d="M104.932 39.6591V22.3653L106.705 21.4698C106.768 21.4297 106.839 21.4013 106.912 21.3862C106.912 27.7991 106.912 34.2114 106.912 40.6232C106.488 40.4128 106.067 40.2008 105.642 39.9934C105.411 39.8693 105.174 39.7576 104.932 39.6591Z" fill="#205B97"/>
        <path d="M173.833 30.1818C173.79 30.25 173.728 30.3047 173.655 30.3395C173.582 30.3744 173.501 30.388 173.421 30.3788C173.108 30.3713 172.794 30.3788 172.479 30.3788C172.164 30.3788 172.114 30.3042 172.114 30.0176C172.114 28.7141 172.114 27.4107 172.114 26.1072C172.112 25.8704 172.074 25.6352 172 25.4102C171.971 25.2886 171.904 25.1795 171.808 25.0989C171.713 25.0183 171.594 24.9705 171.469 24.9625C171.334 24.9469 171.197 24.9732 171.077 25.0378C170.957 25.1024 170.86 25.2022 170.799 25.3237C170.616 25.656 170.523 26.0297 170.527 26.4087C170.52 27.6027 170.527 28.7967 170.527 29.9907C170.527 30.2743 170.458 30.343 170.175 30.343C169.818 30.343 169.461 30.343 169.103 30.343C168.897 30.343 168.805 30.2519 168.805 30.0445C168.805 27.955 168.805 25.862 168.805 23.7655C168.805 23.552 168.896 23.467 169.112 23.467C169.447 23.467 169.783 23.467 170.118 23.467C170.343 23.467 170.426 23.5535 170.427 23.7804C170.429 24.0073 170.427 24.2282 170.427 24.4714C170.502 24.3865 170.561 24.289 170.602 24.1834C170.693 23.9909 170.826 23.8205 170.989 23.6838C171.153 23.547 171.344 23.4471 171.549 23.3909C172.631 23.1222 173.587 23.6625 173.736 24.7625C173.777 24.9795 173.798 25.1998 173.799 25.4207C173.799 25.4625 173.799 25.5087 173.83 25.5416L173.833 30.1818Z" fill="#201C1D"/>
        <path d="M173.833 33.4279H172.259C172.047 33.4279 172.047 33.4279 172.047 33.6339C172.047 35.2558 172.047 36.8771 172.047 38.498C172.047 38.7174 172.047 38.7174 171.831 38.7174C171.682 38.7174 171.533 38.7174 171.383 38.7174C171.265 38.7174 171.234 38.6771 171.234 38.5682C171.234 38.1204 171.234 37.6607 171.234 37.2055C171.234 36.0115 171.234 34.8225 171.234 33.6384C171.234 33.425 171.234 33.425 171.028 33.425C170.552 33.425 170.077 33.425 169.601 33.425C169.48 33.425 169.434 33.3906 169.452 33.2757C169.47 33.1056 169.379 32.8847 169.489 32.7772C169.6 32.6698 169.809 32.7489 169.974 32.7474C171.261 32.7474 172.547 32.7474 173.834 32.7474L173.833 33.4279Z" fill="black"/>
        <path d="M123.664 39.7233C123.664 39.6472 123.664 39.574 123.664 39.4964C123.664 33.8249 123.664 28.1533 123.664 22.4818C123.664 22.4057 123.664 22.3325 123.664 22.2549L126.022 21.6893C126.457 21.5863 126.892 21.4848 127.328 21.3833C127.328 27.6887 127.328 33.9945 127.328 40.3009C127.328 40.3979 127.328 40.4949 127.328 40.5994C126.868 40.5128 126.416 40.3904 125.961 40.28L123.664 39.7233Z" fill="#205B97"/>
        <path d="M142.806 24.3055C143.176 23.6608 143.687 23.3145 144.448 23.325C145.209 23.3354 145.666 23.7727 145.985 24.4458C146.06 24.322 146.118 24.216 146.184 24.1145C146.33 23.8974 146.522 23.7151 146.746 23.5803C146.971 23.4455 147.222 23.3616 147.483 23.3344C147.743 23.3072 148.006 23.3374 148.254 23.423C148.501 23.5085 148.727 23.6473 148.915 23.8294C149.184 24.0972 149.344 24.456 149.363 24.8354C149.44 25.7085 149.385 26.5846 149.394 27.4592C149.403 28.3338 149.394 29.1786 149.394 30.0383C149.394 30.2711 149.327 30.3368 149.095 30.3368H147.96C147.773 30.3368 147.675 30.2487 147.673 30.0666C147.673 28.8816 147.666 27.698 147.673 26.513C147.681 26.1758 147.669 25.8384 147.637 25.5025C147.591 25.0667 147.212 24.8667 146.813 24.9712C146.655 25.01 146.513 25.0961 146.405 25.218C146.297 25.3398 146.228 25.4917 146.209 25.6533C146.16 25.9015 146.137 26.1541 146.14 26.407C146.14 27.601 146.14 28.7861 146.14 29.9756C146.14 30.2741 146.073 30.3353 145.779 30.3353H144.766C144.504 30.3353 144.428 30.2607 144.428 30.001C144.428 28.7622 144.428 27.5239 144.428 26.2861C144.446 26.017 144.426 25.7467 144.369 25.4831C144.339 25.342 144.265 25.2139 144.158 25.1178C144.051 25.0216 143.915 24.9624 143.772 24.9488C143.613 24.9329 143.453 24.9703 143.318 25.0552C143.183 25.14 143.08 25.2675 143.025 25.4175C142.95 25.63 142.908 25.8531 142.901 26.0786C142.834 27.413 142.891 28.7473 142.872 30.0816C142.872 30.2681 142.809 30.3323 142.618 30.3338C142.239 30.3338 141.861 30.3338 141.482 30.3338C141.246 30.3338 141.184 30.2726 141.184 30.0353C141.184 28.7537 141.184 27.4722 141.184 26.1906C141.184 25.3797 141.184 24.5682 141.184 23.7563C141.184 23.4996 141.233 23.4578 141.482 23.4578H142.527C142.739 23.4578 142.81 23.5294 142.812 23.7369C142.813 23.9444 142.806 24.1205 142.806 24.3055Z" fill="#201C1D"/>
        <path d="M127.32 40.6009C127.32 40.5039 127.32 40.4069 127.32 40.3024C127.32 33.997 127.32 27.6912 127.32 21.3848C127.391 21.3838 127.46 21.4058 127.517 21.4475C128.068 21.7221 128.616 22.0012 129.17 22.2699C129.224 22.291 129.269 22.3297 129.299 22.3797C129.329 22.4297 129.341 22.4882 129.334 22.546C129.334 24.8166 129.334 27.0872 129.334 29.3578C129.334 32.704 129.334 36.0502 129.334 39.3964C129.343 39.4721 129.326 39.5486 129.285 39.6132C129.245 39.6778 129.183 39.7267 129.111 39.7516C128.565 40.0113 128.029 40.289 127.486 40.5576C127.444 40.5875 127.393 40.6516 127.32 40.6009Z" fill="#5293CE"/>
        <path d="M155.756 26.7875C155.756 27.2204 155.765 27.5771 155.756 27.9338C155.747 28.347 155.897 28.7478 156.174 29.0547C156.207 29.0842 156.233 29.1211 156.249 29.1625C156.266 29.2039 156.272 29.2485 156.268 29.2929C156.264 29.3372 156.249 29.3799 156.226 29.4176C156.202 29.4553 156.17 29.4869 156.132 29.5099C155.887 29.7203 155.645 29.9352 155.411 30.1576C155.138 30.4188 155.044 30.4218 154.771 30.1576C154.614 30.0172 154.476 29.8566 154.362 29.68C154.297 29.5696 154.245 29.5591 154.16 29.6576C153.739 30.1086 153.159 30.3774 152.542 30.4069C152.198 30.4378 151.85 30.3982 151.521 30.2905C151.246 30.1917 151.002 30.02 150.817 29.7937C150.631 29.5674 150.511 29.2949 150.468 29.0054C150.351 28.5104 150.391 27.9911 150.584 27.5204C150.705 27.2339 150.888 26.9781 151.121 26.7716C151.353 26.565 151.629 26.4129 151.927 26.3264C152.453 26.1707 152.99 26.0613 153.535 25.9995C153.659 26.003 153.783 25.993 153.905 25.9696C153.965 25.9488 153.996 25.9279 153.999 25.8622C154.017 25.604 153.991 25.3446 153.923 25.095C153.79 24.6801 153.305 24.5607 153.018 24.61C152.822 24.637 152.639 24.7249 152.495 24.8615C152.35 24.998 152.253 25.1763 152.215 25.3711C152.165 25.5682 152.075 25.6144 151.874 25.5861C151.56 25.5413 151.245 25.504 150.929 25.4786C150.686 25.4592 150.58 25.3443 150.63 25.1115C150.696 24.7542 150.852 24.4198 151.084 24.1408C151.317 23.8618 151.618 23.6476 151.957 23.5189C152.739 23.184 153.617 23.1542 154.42 23.4354C155.287 23.7503 155.675 24.2488 155.723 25.2458C155.754 25.7846 155.747 26.3234 155.756 26.7875ZM154.002 27.4681C154.002 27.3487 154.002 27.2308 154.002 27.1114C154.002 27.0249 153.959 26.986 153.883 27.004C153.693 27.0502 153.497 27.0219 153.306 27.0651C152.997 27.1353 152.693 27.2248 152.489 27.4756C152.35 27.6419 152.26 27.8434 152.23 28.0576C152.199 28.2718 152.228 28.4904 152.314 28.689C152.356 28.8054 152.428 28.9085 152.523 28.9875C152.917 29.3129 153.436 29.0681 153.645 28.7815C153.907 28.3958 154.033 27.9335 154.002 27.4681Z" fill="#201C1D"/>
        <path d="M139.756 26.5338C139.756 26.9816 139.756 27.4293 139.756 27.8771C139.75 28.3071 139.905 28.7237 140.192 29.0442C140.221 29.0722 140.244 29.106 140.26 29.1435C140.275 29.181 140.283 29.2213 140.282 29.2618C140.28 29.3023 140.271 29.3422 140.253 29.3787C140.236 29.4153 140.211 29.4478 140.18 29.4741C139.882 29.7467 139.581 30.0154 139.277 30.28C139.228 30.326 139.163 30.3511 139.096 30.3503C139.028 30.3495 138.964 30.3227 138.916 30.2756C138.701 30.0945 138.515 29.8822 138.364 29.6457C138.317 29.583 138.296 29.5383 138.214 29.6233C137.838 30.053 137.315 30.3274 136.747 30.3935C136.097 30.4636 135.456 30.4159 134.956 29.9084C134.672 29.6032 134.497 29.212 134.459 28.7965C134.407 28.4554 134.429 28.1071 134.525 27.7756C134.618 27.4272 134.801 27.1094 135.055 26.8542C135.31 26.599 135.627 26.4154 135.976 26.3219C136.496 26.1689 137.029 26.0605 137.568 25.998C137.692 26.0007 137.816 25.9912 137.938 25.9697C138.007 25.9473 138.037 25.9204 138.037 25.8488C138.045 25.6012 138.02 25.3535 137.961 25.113C137.847 24.704 137.364 24.5503 137.056 24.6085C136.62 24.6906 136.328 24.9353 136.247 25.3936C136.242 25.4269 136.23 25.4587 136.211 25.4871C136.193 25.5156 136.169 25.54 136.142 25.559C136.114 25.578 136.082 25.5911 136.049 25.5975C136.016 25.604 135.982 25.6037 135.949 25.5965C135.619 25.5518 135.289 25.5085 134.959 25.4741C134.711 25.4488 134.629 25.3413 134.688 25.098C134.929 24.0757 135.613 23.5294 136.607 23.3354C137.156 23.2087 137.728 23.22 138.271 23.3682C138.782 23.5175 139.256 23.7518 139.529 24.2533C139.676 24.5293 139.753 24.8364 139.756 25.1488C139.764 25.6144 139.755 26.0741 139.756 26.5338ZM136.285 28.2368C136.266 28.4213 136.302 28.6073 136.389 28.7711C136.448 28.8904 136.541 28.9894 136.656 29.0551C136.772 29.1209 136.904 29.1504 137.037 29.1398C137.204 29.121 137.363 29.0597 137.499 28.9617C137.635 28.8637 137.744 28.7322 137.814 28.5801C138.019 28.1109 138.095 27.5957 138.034 27.0876C138.034 27.0114 137.979 26.9965 137.922 27.007C137.671 27.0267 137.422 27.0616 137.176 27.1114C136.598 27.2786 136.256 27.6055 136.285 28.2368Z" fill="#201C1D"/>
        <path d="M162.377 26.9535C162.361 26.0938 162.501 25.3341 162.897 24.6357C163.292 23.9372 163.867 23.4804 164.679 23.364C165.3 23.252 165.94 23.3698 166.48 23.6954C166.973 24.0116 167.353 24.4755 167.565 25.0207C167.854 25.7265 167.975 26.4901 167.916 27.2505C167.897 28.0126 167.656 28.7526 167.224 29.3803C166.997 29.7164 166.691 29.9919 166.333 30.1826C165.976 30.3733 165.577 30.4735 165.171 30.4744C164.818 30.4915 164.464 30.4302 164.137 30.295C163.809 30.1598 163.516 29.954 163.277 29.6923C162.857 29.2179 162.58 28.6342 162.477 28.0087C162.399 27.6627 162.365 27.3081 162.377 26.9535ZM165.258 29.143C165.353 29.1309 165.444 29.0978 165.525 29.0462C165.606 28.9945 165.674 28.9257 165.725 28.8445C166.004 28.4639 166.053 28.0177 166.07 27.5729C166.098 27.1705 166.102 26.7668 166.08 26.364C166.058 25.97 165.991 25.5799 165.88 25.2013C165.753 24.8118 165.433 24.6745 165.062 24.67C164.764 24.67 164.582 24.8506 164.447 25.0983C164.274 25.4639 164.189 25.8653 164.2 26.27C164.168 26.8139 164.189 27.3597 164.261 27.8998C164.293 28.1944 164.38 28.4803 164.518 28.743C164.659 28.9953 164.855 29.149 165.258 29.143Z" fill="#201C1D"/>
        <path d="M159.455 24.8595H157.497C157.292 24.8595 157.218 24.8177 157.198 24.6221C157.161 24.2954 157.161 23.9654 157.198 23.6386C157.221 23.4804 157.318 23.4326 157.456 23.4326H161.3C161.583 23.4326 161.652 23.5013 161.652 23.7834C161.652 23.9326 161.641 24.0819 161.652 24.2207C161.668 24.5078 161.577 24.7907 161.397 25.0147C160.968 25.6206 160.555 26.237 160.137 26.849L159.407 27.9281C159.383 27.9624 159.336 27.9937 159.355 28.04C159.374 28.0863 159.44 28.0728 159.485 28.0713C160.193 28.0581 160.893 28.2245 161.519 28.5549C161.603 28.5878 161.675 28.6462 161.725 28.7219C161.774 28.7976 161.799 28.8869 161.795 28.9773C161.795 29.2848 161.795 29.5937 161.795 29.9012C161.795 30.134 161.646 30.231 161.433 30.1295C160.981 29.9004 160.496 29.7452 159.995 29.6698C159.219 29.5585 158.426 29.6579 157.701 29.9579C157.552 30.0206 157.403 30.0952 157.242 30.1534C157.213 30.1648 157.182 30.1695 157.151 30.167C157.12 30.1645 157.09 30.155 157.064 30.1391C157.037 30.1232 157.015 30.1015 156.998 30.0755C156.981 30.0495 156.97 30.02 156.967 29.9892C156.967 29.5579 156.922 29.1251 156.994 28.6967C157.047 28.4873 157.146 28.2922 157.283 28.1251C157.98 27.0913 158.676 26.0584 159.373 25.0266C159.413 24.9778 159.441 24.9207 159.455 24.8595Z" fill="#201C1D"/>
        <path d="M144.689 35.7713C144.689 34.8579 144.689 33.9445 144.689 33.031C144.689 32.8818 144.712 32.8266 144.885 32.8027C145.498 32.7166 146.117 32.6892 146.736 32.7206C147.403 32.7564 148.05 32.8922 148.598 33.3176C149.106 33.6995 149.448 34.2623 149.552 34.8892C149.703 35.6397 149.615 36.4188 149.298 37.1161C149.158 37.4365 148.954 37.7245 148.697 37.9616C148.44 38.1988 148.136 38.3799 147.806 38.4936C147.364 38.6366 146.906 38.7263 146.443 38.7608C145.995 38.8026 145.548 38.7369 145.1 38.7459C144.989 38.7459 144.879 38.7071 144.764 38.716C144.685 38.716 144.68 38.6668 144.682 38.6086C144.682 38.4683 144.682 38.328 144.682 38.1862C144.687 37.3812 144.689 36.5763 144.689 35.7713ZM145.501 35.7534C145.501 36.0668 145.501 36.3802 145.501 36.6937C145.501 37.1146 145.501 37.5369 145.501 37.9578C145.501 38.016 145.474 38.0922 145.58 38.1071C146.092 38.165 146.61 38.1347 147.112 38.0175C147.414 37.9522 147.697 37.8175 147.939 37.624C148.18 37.4306 148.373 37.1836 148.503 36.9026C148.77 36.303 148.838 35.6334 148.697 34.9922C148.639 34.6527 148.488 34.3357 148.262 34.0758C147.836 33.5952 147.273 33.3967 146.646 33.3713C146.326 33.3533 146.006 33.3617 145.688 33.3967C145.539 33.4146 145.497 33.4594 145.498 33.6042C145.504 34.3161 145.5 35.034 145.5 35.7534H145.501Z" fill="black"/>
        <path d="M155.949 35.7278C155.949 34.792 155.949 33.8577 155.949 32.9219C155.949 32.7726 155.991 32.7338 156.131 32.7443C156.288 32.7549 156.445 32.7549 156.601 32.7443C156.727 32.7368 156.769 32.7741 156.767 32.9055C156.767 33.6189 156.767 34.3323 156.767 35.0472C156.767 35.2159 156.816 35.2517 156.975 35.2502C157.791 35.2427 158.607 35.2502 159.424 35.2502C159.557 35.2502 159.598 35.2174 159.597 35.0801C159.597 34.3607 159.597 33.6413 159.597 32.9234C159.597 32.7741 159.64 32.7368 159.78 32.7458C159.952 32.7577 160.127 32.7458 160.3 32.7458C160.383 32.7458 160.421 32.7726 160.413 32.8577C160.413 32.895 160.413 32.9338 160.413 32.9711C160.413 34.8204 160.413 36.6696 160.413 38.5188C160.413 38.686 160.367 38.7367 160.206 38.7218C160.06 38.7095 159.914 38.7095 159.769 38.7218C159.636 38.7322 159.594 38.6889 159.595 38.5516C159.595 37.7457 159.595 36.9397 159.595 36.1353C159.595 35.9293 159.595 35.9278 159.383 35.9278C158.573 35.9278 157.761 35.9278 156.951 35.9278C156.81 35.9278 156.767 35.9591 156.769 36.1054C156.769 36.9158 156.769 37.7278 156.769 38.5382C156.769 38.6875 156.722 38.7337 156.578 38.7233C156.421 38.7128 156.264 38.7128 156.107 38.7233C155.988 38.7233 155.949 38.6919 155.958 38.574C155.958 38.071 155.958 37.5681 155.958 37.0651C155.952 36.6183 155.949 36.1726 155.949 35.7278Z" fill="black"/>
        <path d="M137.022 35.8639C137.523 36.0893 137.729 36.4982 137.84 36.9549C137.957 37.5104 138.107 38.0586 138.287 38.5967C138.323 38.6952 138.304 38.7295 138.195 38.7251C138.005 38.7251 137.816 38.7251 137.628 38.7251C137.608 38.7287 137.588 38.7285 137.569 38.7244C137.55 38.7203 137.531 38.7123 137.515 38.7011C137.499 38.6899 137.485 38.6755 137.474 38.6589C137.464 38.6422 137.456 38.6236 137.453 38.6042C137.288 38.1473 137.159 37.6782 137.067 37.2012C137.017 36.9242 136.893 36.6661 136.707 36.455C136.52 36.2665 136.266 36.1592 136.001 36.1565C135.79 36.1445 135.578 36.1565 135.368 36.1565C135.241 36.1565 135.219 36.1982 135.219 36.3147C135.219 37.0609 135.219 37.7967 135.219 38.537C135.219 38.6863 135.18 38.7385 135.031 38.7251C134.891 38.7137 134.75 38.7137 134.61 38.7251C134.478 38.7355 134.431 38.6967 134.434 38.5564C134.443 38.1833 134.434 37.8102 134.434 37.437C134.434 36.0092 134.434 34.5814 134.434 33.1535C134.434 32.8341 134.434 32.8296 134.732 32.7864C135.255 32.7105 135.784 32.69 136.311 32.7252C136.714 32.7535 137.123 32.8192 137.464 33.0714C137.656 33.2002 137.815 33.3738 137.925 33.5774C138.036 33.7809 138.096 34.0084 138.099 34.2401C138.126 34.6509 137.998 35.0568 137.74 35.3774C137.585 35.5554 137.395 35.6992 137.181 35.7997C137.143 35.8177 137.093 35.8341 137.022 35.8639ZM135.216 34.4639C135.216 34.7774 135.216 35.0908 135.216 35.4042C135.216 35.4983 135.238 35.5445 135.341 35.5371C135.64 35.5191 135.938 35.5475 136.228 35.5087C136.926 35.4191 137.295 35.0236 137.292 34.3266C137.296 34.1589 137.252 33.9937 137.164 33.8508C137.076 33.708 136.948 33.5938 136.796 33.5222C136.326 33.2729 135.828 33.3013 135.323 33.3849C135.229 33.3998 135.213 33.4401 135.214 33.5222C135.216 33.8371 135.213 34.1565 135.213 34.4639H135.216Z" fill="black"/>
        <path d="M139.82 35.7371C139.82 34.7969 139.82 33.8551 139.82 32.9148C139.82 32.779 139.859 32.7432 139.992 32.7432C140.96 32.7481 141.927 32.7481 142.895 32.7432C143.024 32.7432 143.083 32.77 143.069 32.9103C143.059 33.0345 143.059 33.1593 143.069 33.2835C143.077 33.3984 143.033 33.4327 142.92 33.4327C142.223 33.4327 141.524 33.4327 140.83 33.4327C140.681 33.4327 140.626 33.464 140.63 33.6267C140.642 34.1297 140.638 34.6327 140.63 35.1357C140.63 35.258 140.668 35.2849 140.78 35.2849C141.445 35.2849 142.109 35.2849 142.775 35.2849C142.892 35.2849 142.944 35.3103 142.933 35.4342C142.924 35.5529 142.924 35.6722 142.933 35.7909C142.942 35.9073 142.896 35.9401 142.784 35.9401C142.13 35.9401 141.475 35.9401 140.821 35.9401C140.672 35.9401 140.62 35.9745 140.621 36.1342C140.632 36.7177 140.63 37.3013 140.621 37.8864C140.621 38.0237 140.663 38.0565 140.796 38.0565C141.542 38.0565 142.278 38.0565 143.018 38.0565C143.15 38.0565 143.203 38.0879 143.192 38.2267C143.182 38.3563 143.182 38.4865 143.192 38.6162C143.192 38.7192 143.154 38.7431 143.059 38.7431C142.021 38.7431 140.983 38.7431 139.944 38.7431C139.811 38.7431 139.813 38.6759 139.813 38.5819C139.818 37.6217 139.821 36.6734 139.82 35.7371Z" fill="black"/>
        <path d="M152.411 38.7829C151.881 38.7965 151.357 38.6737 150.888 38.4262C150.805 38.3814 150.779 38.3471 150.82 38.2546C150.881 38.1053 150.92 37.9561 150.976 37.8173C151.009 37.7352 151.039 37.7471 151.09 37.777C151.45 37.965 151.842 38.0844 152.246 38.1292C152.652 38.1964 153.291 37.9426 153.461 37.6188C153.534 37.4956 153.579 37.3582 153.594 37.216C153.609 37.0738 153.594 36.93 153.548 36.7943C153.503 36.6587 153.429 36.5343 153.332 36.4296C153.235 36.3249 153.116 36.2423 152.984 36.1874C152.694 36.0382 152.387 35.9576 152.088 35.8233C151.64 35.6143 151.239 35.3472 151.02 34.8725C150.917 34.6041 150.888 34.313 150.936 34.0295C150.983 33.7461 151.106 33.4806 151.291 33.2606C151.691 32.8323 152.194 32.6636 152.76 32.6442C153.206 32.6224 153.651 32.7004 154.063 32.8726C154.148 32.9084 154.181 32.9397 154.139 33.0382C154.078 33.1875 154.034 33.3367 153.99 33.4935C153.967 33.5636 153.946 33.6084 153.857 33.5591C153.564 33.3995 153.236 33.3148 152.903 33.3129C152.482 33.3129 152.081 33.3875 151.84 33.774C151.6 34.1606 151.703 34.6845 152.233 34.9875C152.624 35.2113 153.06 35.3397 153.451 35.5636C153.842 35.7874 154.209 36.071 154.336 36.5501C154.573 37.4456 154.187 38.2978 153.291 38.6217C153.01 38.7287 152.711 38.7833 152.411 38.7829Z" fill="black"/>
        <path d="M165.037 35.7252C165.037 34.7894 165.037 33.8536 165.037 32.9178C165.037 32.7864 165.068 32.7432 165.205 32.7432C166.169 32.7491 167.131 32.7491 168.093 32.7432C168.225 32.7432 168.264 32.785 168.253 32.9088C168.244 33.0275 168.244 33.1468 168.253 33.2655C168.264 33.3924 168.22 33.4312 168.09 33.4297C167.414 33.4297 166.738 33.4297 166.062 33.4297C165.849 33.4297 165.849 33.4297 165.849 33.6357C165.849 34.1655 165.849 34.6954 165.849 35.2252C165.849 35.3476 165.885 35.3745 165.998 35.3745C166.641 35.3745 167.284 35.3745 167.929 35.3745C168.047 35.3745 168.098 35.4013 168.086 35.5237C168.076 35.6424 168.076 35.7617 168.086 35.8804C168.095 35.9983 168.047 36.0297 167.937 36.0297C167.298 36.0297 166.661 36.0297 166.022 36.0297C165.873 36.0297 165.84 36.0655 165.841 36.2088C165.841 36.9879 165.841 37.767 165.841 38.5446C165.841 38.6804 165.816 38.7416 165.665 38.7281C165.503 38.7162 165.341 38.7162 165.179 38.7281C165.055 38.7356 165.029 38.6908 165.029 38.5789C165.038 37.6177 165.037 36.6715 165.037 35.7252Z" fill="black"/>
        <path d="M162.311 35.7235C162.311 34.7877 162.311 33.8519 162.311 32.9176C162.311 32.7848 162.342 32.734 162.481 32.7445C162.643 32.7561 162.805 32.7561 162.967 32.7445C163.102 32.7355 163.131 32.7893 163.127 32.9117C163.119 33.1594 163.127 33.4087 163.127 33.6579C163.127 35.2803 163.127 36.9026 163.127 38.525C163.127 38.6742 163.093 38.7384 162.931 38.7235C162.775 38.711 162.618 38.711 162.461 38.7235C162.334 38.7324 162.312 38.6817 162.312 38.5653C162.314 37.616 162.311 36.6698 162.311 35.7235Z" fill="black"/>
        <path d="M106.911 21.3906C107.346 21.4623 107.768 21.5891 108.195 21.6891C108.999 21.8802 109.802 22.0667 110.602 22.2637C110.602 22.3279 110.602 22.3936 110.602 22.4578C110.602 28.1482 110.602 33.8382 110.602 39.5276C110.602 39.5918 110.602 39.6575 110.602 39.7217L107.001 40.5993C106.969 40.6067 106.94 40.6172 106.908 40.6276C106.91 34.2158 106.911 27.8035 106.911 21.3906Z" fill="#5293CE"/>
    </g>
    <rect width="91.8691" height="61.2461" transform="translate(186.275 0.398926)" fill="white"/>
    <g clip-path="url(#clip2_8130_78966)">
        <path d="M266.584 30.1823C266.541 30.2505 266.479 30.3051 266.406 30.3399C266.334 30.3747 266.252 30.3884 266.172 30.3792C265.859 30.3717 265.546 30.3792 265.231 30.3792C264.916 30.3792 264.866 30.3046 264.866 30.0182C264.866 28.7155 264.866 27.4128 264.866 26.1101C264.864 25.8734 264.826 25.6384 264.752 25.4135C264.723 25.292 264.656 25.1829 264.56 25.1024C264.465 25.0219 264.346 24.9741 264.221 24.966C264.086 24.9505 263.949 24.9768 263.83 25.0413C263.71 25.1059 263.613 25.2056 263.551 25.327C263.369 25.6591 263.276 26.0326 263.28 26.4114C263.272 27.6047 263.28 28.798 263.28 29.9914C263.28 30.2748 263.211 30.3434 262.928 30.3434C262.571 30.3434 262.215 30.3434 261.857 30.3434C261.651 30.3434 261.559 30.2524 261.559 30.0451C261.559 27.9568 261.559 25.865 261.559 23.7697C261.559 23.5564 261.65 23.4714 261.866 23.4714C262.201 23.4714 262.536 23.4714 262.871 23.4714C263.096 23.4714 263.179 23.5579 263.18 23.7846C263.181 24.0114 263.18 24.2321 263.18 24.4753C263.255 24.3908 263.314 24.2939 263.355 24.1889C263.446 23.9966 263.578 23.8262 263.742 23.6896C263.905 23.5529 264.096 23.453 264.302 23.3968C265.386 23.1268 266.333 23.6668 266.493 24.7676C266.534 24.9846 266.555 25.2047 266.556 25.4255C266.556 25.4672 266.556 25.5135 266.587 25.5463L266.584 30.1823Z" fill="#201C1D"/>
        <path d="M235.575 24.3064C235.945 23.662 236.456 23.316 237.216 23.3264C237.977 23.3369 238.433 23.7739 238.753 24.4467C238.827 24.3228 238.885 24.2169 238.951 24.1155C239.097 23.8986 239.289 23.7163 239.514 23.5816C239.738 23.4469 239.989 23.363 240.249 23.3358C240.51 23.3087 240.773 23.3389 241.02 23.4244C241.267 23.5099 241.493 23.6485 241.681 23.8306C241.95 24.0982 242.11 24.4568 242.128 24.836C242.206 25.7086 242.151 26.5842 242.16 27.4583C242.169 28.3324 242.16 29.1766 242.16 30.0358C242.16 30.2685 242.092 30.3342 241.861 30.3342H240.726C240.54 30.3342 240.441 30.2461 240.44 30.0642C240.44 28.8798 240.432 27.6969 240.44 26.5126C240.447 26.1755 240.435 25.8384 240.404 25.5027C240.358 25.0672 239.979 24.8673 239.581 24.9717C239.422 25.0105 239.28 25.0965 239.172 25.2183C239.064 25.3401 238.996 25.4919 238.976 25.6534C238.928 25.9015 238.905 26.1539 238.908 26.4067C238.908 27.6 238.908 28.7843 238.908 29.9732C238.908 30.2715 238.841 30.3327 238.547 30.3327H237.525C237.264 30.3327 237.188 30.2581 237.188 29.9985C237.188 28.7605 237.188 27.5229 237.188 26.2858C237.208 26.0229 237.192 25.7583 237.14 25.4997C237.111 25.3587 237.037 25.2307 236.93 25.1346C236.822 25.0385 236.687 24.9793 236.544 24.9657C236.385 24.9498 236.225 24.9872 236.09 25.072C235.955 25.1569 235.852 25.2843 235.798 25.4341C235.722 25.6465 235.68 25.8695 235.674 26.0949C235.607 27.4284 235.663 28.762 235.644 30.0955C235.644 30.2819 235.581 30.3461 235.39 30.3476C235.012 30.3476 234.634 30.3476 234.255 30.3476C234.02 30.3476 233.957 30.2864 233.957 30.0492C233.957 28.7684 233.957 27.4876 233.957 26.2068C233.957 25.3963 233.957 24.5854 233.957 23.7739C233.957 23.5174 234.006 23.4756 234.255 23.4756H235.3C235.511 23.4756 235.583 23.5472 235.584 23.7545C235.586 23.9619 235.575 24.1245 235.575 24.3064Z" fill="#201C1D"/>
        <path d="M248.517 26.7899C248.517 27.2225 248.526 27.579 248.517 27.9355C248.508 28.3484 248.658 28.749 248.934 29.0557C248.968 29.0852 248.993 29.1221 249.01 29.1635C249.026 29.2048 249.033 29.2494 249.029 29.2937C249.024 29.338 249.01 29.3808 248.986 29.4184C248.963 29.4561 248.931 29.4877 248.892 29.5106C248.648 29.721 248.406 29.9358 248.172 30.158C247.899 30.4191 247.805 30.422 247.532 30.158C247.375 30.0177 247.238 29.8572 247.123 29.6807C247.059 29.5703 247.007 29.5599 246.922 29.6583C246.503 30.1072 245.926 30.3757 245.313 30.4071C244.968 30.438 244.621 30.3984 244.292 30.2908C244.017 30.1921 243.773 30.0205 243.588 29.7943C243.403 29.5681 243.282 29.2958 243.239 29.0065C243.122 28.5117 243.163 27.9928 243.355 27.5223C243.476 27.236 243.66 26.9804 243.892 26.7739C244.124 26.5675 244.4 26.4155 244.698 26.329C245.223 26.1734 245.76 26.0641 246.304 26.0023C246.428 26.0058 246.553 25.9958 246.674 25.9725C246.734 25.9516 246.765 25.9307 246.768 25.8651C246.784 25.6061 246.756 25.3464 246.685 25.0969C246.552 24.6822 246.067 24.5629 245.781 24.6121C245.584 24.6391 245.401 24.727 245.257 24.8635C245.113 24.9999 245.016 25.1781 244.978 25.3728C244.928 25.5697 244.838 25.616 244.637 25.5876C244.324 25.5429 244.009 25.5056 243.693 25.4802C243.449 25.4608 243.344 25.346 243.394 25.1133C243.459 24.7562 243.616 24.4221 243.848 24.1432C244.08 23.8643 244.381 23.6503 244.72 23.5217C245.501 23.187 246.38 23.1572 247.182 23.4382C248.048 23.7529 248.436 24.2511 248.484 25.2475C248.515 25.7875 248.508 26.326 248.517 26.7899ZM246.764 27.4701C246.764 27.3507 246.764 27.2329 246.764 27.1136C246.764 27.0271 246.721 26.9883 246.645 27.0062C246.455 27.0524 246.26 27.0241 246.069 27.0673C245.76 27.1374 245.456 27.2269 245.251 27.4775C245.113 27.6438 245.023 27.8451 244.993 28.0592C244.962 28.2733 244.991 28.4917 245.077 28.6902C245.118 28.8066 245.191 28.9096 245.286 28.9886C245.679 29.3137 246.199 29.0691 246.407 28.7827C246.669 28.3972 246.795 27.9352 246.764 27.4701Z" fill="#201C1D"/>
        <path d="M232.526 26.5368C232.526 26.9843 232.526 27.4318 232.526 27.8793C232.52 28.3097 232.676 28.7268 232.963 29.0472C232.992 29.0752 233.016 29.109 233.031 29.1465C233.046 29.1839 233.054 29.2242 233.053 29.2647C233.052 29.3052 233.042 29.345 233.024 29.3815C233.007 29.4181 232.982 29.4506 232.951 29.4768C232.653 29.7493 232.352 30.0178 232.049 30.2823C231.999 30.3277 231.933 30.3518 231.865 30.3496C231.797 30.3474 231.733 30.319 231.686 30.2704C231.472 30.0909 231.285 29.8802 231.133 29.6454C231.087 29.5827 231.066 29.538 230.984 29.623C230.607 30.0524 230.085 30.3267 229.517 30.3927C228.867 30.4628 228.227 30.4151 227.727 29.9079C227.443 29.6029 227.268 29.212 227.231 28.7967C227.178 28.4558 227.201 28.1077 227.296 27.7764C227.389 27.4287 227.571 27.1115 227.825 26.8565C228.078 26.6015 228.395 26.4177 228.742 26.3235C229.262 26.1706 229.795 26.0623 230.333 25.9998C230.457 26.0025 230.581 25.993 230.703 25.9715C230.772 25.9491 230.802 25.9223 230.802 25.8507C230.81 25.6032 230.785 25.3557 230.726 25.1153C230.612 24.7066 230.129 24.5529 229.822 24.6111C229.386 24.6932 229.094 24.9378 229.013 25.3957C229.008 25.429 228.996 25.4608 228.977 25.4892C228.959 25.5177 228.935 25.5421 228.908 25.5611C228.88 25.58 228.848 25.5931 228.815 25.5996C228.782 25.606 228.748 25.6057 228.715 25.5986C228.385 25.5538 228.056 25.5106 227.726 25.4763C227.478 25.4509 227.396 25.3435 227.454 25.1004C227.696 24.0786 228.379 23.5327 229.373 23.3387C229.921 23.2121 230.493 23.2234 231.036 23.3716C231.546 23.5207 232.02 23.7549 232.293 24.2561C232.44 24.532 232.517 24.8389 232.52 25.1511C232.535 25.618 232.526 26.0774 232.526 26.5368ZM229.058 28.2388C229.039 28.4232 229.075 28.6091 229.162 28.7728C229.221 28.892 229.314 28.9909 229.429 29.0566C229.545 29.1223 229.677 29.1518 229.81 29.1412C229.976 29.1225 230.135 29.0612 230.272 28.9633C230.408 28.8653 230.516 28.734 230.587 28.5819C230.791 28.113 230.867 27.5981 230.806 27.0902C230.806 27.0141 230.751 26.9992 230.694 27.0097C230.444 27.0294 230.195 27.0643 229.948 27.1141C229.371 27.2811 229.03 27.6078 229.058 28.2388Z" fill="#201C1D"/>
        <path d="M255.133 26.9558C255.117 26.0966 255.257 25.3374 255.652 24.6393C256.047 23.9412 256.622 23.4847 257.433 23.3684C258.054 23.2565 258.694 23.3742 259.234 23.6995C259.726 24.0156 260.105 24.4792 260.318 25.0241C260.608 25.7287 260.73 26.4913 260.673 27.2511C260.652 28.0127 260.41 28.7517 259.976 29.3782C259.75 29.7141 259.444 29.9894 259.087 30.18C258.729 30.3706 258.331 30.4707 257.925 30.4716C257.572 30.4887 257.219 30.4275 256.892 30.2924C256.564 30.1573 256.271 29.9516 256.033 29.69C255.612 29.2159 255.335 28.6325 255.233 28.0074C255.155 27.6626 255.121 27.3092 255.133 26.9558ZM258.012 29.144C258.107 29.1318 258.198 29.0988 258.279 29.0472C258.36 28.9956 258.428 28.9268 258.479 28.8457C258.758 28.4653 258.807 28.0193 258.823 27.5748C258.852 27.1727 258.855 26.7692 258.834 26.3666C258.811 25.9754 258.744 25.588 258.634 25.2121C258.507 24.8227 258.186 24.6855 257.817 24.681C257.518 24.681 257.336 24.8615 257.202 25.1091C257.028 25.4745 256.944 25.8757 256.954 26.2801C256.923 26.8237 256.943 27.3692 257.016 27.909C257.049 28.2025 257.137 28.4873 257.275 28.7487C257.414 28.9949 257.609 29.15 258.012 29.144Z" fill="#201C1D"/>
        <path d="M252.216 24.863H250.266C250.062 24.863 249.987 24.8213 249.968 24.6258C249.931 24.2992 249.931 23.9695 249.968 23.6429C249.99 23.4847 250.087 23.437 250.226 23.437H254.07C254.353 23.437 254.422 23.5056 254.422 23.7875C254.422 23.9367 254.411 24.0859 254.422 24.2246C254.438 24.5116 254.347 24.7943 254.167 25.0181C253.739 25.6238 253.326 26.2398 252.908 26.8514L252.173 27.9298C252.149 27.9641 252.101 27.9955 252.12 28.0417C252.14 28.0879 252.205 28.0745 252.25 28.073C252.958 28.0598 253.657 28.2261 254.283 28.5563C254.365 28.5909 254.435 28.6499 254.483 28.7255C254.53 28.801 254.553 28.8893 254.549 28.9785C254.549 29.2857 254.549 29.5945 254.549 29.9018C254.549 30.1345 254.4 30.2314 254.186 30.13C253.735 29.9032 253.251 29.7501 252.751 29.6765C251.975 29.5652 251.183 29.6647 250.459 29.9644C250.309 30.0271 250.16 30.1017 249.999 30.1598C249.97 30.1713 249.939 30.1759 249.909 30.1734C249.878 30.171 249.848 30.1614 249.821 30.1456C249.795 30.1297 249.772 30.1079 249.756 30.0819C249.739 30.056 249.728 30.0265 249.725 29.9958C249.725 29.5647 249.68 29.1321 249.752 28.704C249.805 28.4947 249.904 28.2997 250.041 28.1327C250.737 27.0995 251.433 26.0673 252.129 25.036C252.171 24.986 252.201 24.9267 252.216 24.863Z" fill="#201C1D"/>
        <path d="M213.485 44.7421H213.819L219.268 42.0168L219.359 41.8886V20.1464L219.268 20.0181L213.819 17.2959H213.48V44.7421" fill="#5294CF"/>
        <path d="M206.394 44.7421H206.057L200.612 42.0168L200.502 41.8274L200.445 20.2583L200.612 20.0181L206.057 17.2959H206.4V44.7421" fill="#1F5B98"/>
        <path d="M206.066 17.2959H213.814V44.7421H206.066V17.2959Z" fill="#2D72B8"/>
        <path d="M222.118 30.4043L221.935 30.3641L219.306 30.1239L219.268 30.1433L213.814 29.9255H206.065L200.612 30.1388V25.9801V25.9682L206.065 24.7048H213.813L219.266 25.9682L221.271 27.0332V26.3515L222.118 26.2591L222.03 26.0875L219.345 24.1693L219.263 24.1961L213.813 22.5061H206.065L200.612 24.1961V20.0195L197.76 23.3593V26.277L197.782 26.2606L198.607 26.35V27.0496L197.76 27.5031V30.4073H197.782L198.607 30.4222V31.6409L197.896 31.6513L197.76 31.6334V34.5377L198.607 34.9926V35.6996L197.796 35.7921L197.76 35.7638V38.6814L200.612 42.0227V37.8461L206.065 39.5361H213.813L219.283 37.8416L219.356 37.873L222.003 35.9831L222.12 35.7951L221.272 35.7011V35.0075L221.162 34.9628L219.348 35.9413L219.283 36.0785L213.813 37.3345H206.065L200.612 36.0726V31.896L206.065 32.1137H213.813L219.266 31.8915L219.39 31.9482L221.938 31.7289L222.118 31.6409L221.271 31.629V30.4222L222.118 30.4103" fill="#1A476F"/>
        <path d="M219.266 37.8461V42.0227L222.118 38.6815V35.7832L219.284 37.8417H219.267" fill="#2D72B8"/>
        <path d="M219.267 36.0818H219.284L222.118 34.5574V31.6353L219.266 31.8978V36.0744" fill="#2D72B8"/>
        <path d="M219.282 25.9741H219.266V30.1388L222.118 30.4058V27.4896L219.284 25.9741" fill="#2D72B8"/>
        <path d="M219.284 24.2126L222.118 26.2591V23.3593L219.266 20.0181V24.1947H219.282V24.2051" fill="#2D72B8"/>
        <path d="M227.703 38.398V32.8477H229.305C231.352 32.8477 232.375 33.7496 232.375 35.5535C232.375 36.4107 232.091 37.0988 231.523 37.6179C230.955 38.137 230.192 38.3971 229.234 38.398H227.703ZM228.62 33.6248V37.6164H229.356C230.003 37.6164 230.507 37.4384 230.867 37.0824C231.227 36.7264 231.407 36.2232 231.407 35.5729C231.407 34.2752 230.735 33.6263 229.39 33.6263L228.62 33.6248Z" fill="#201C1D"/>
        <path d="M236.723 34.4351L234.933 39.0338C234.562 39.8562 234.041 40.2674 233.37 40.2674C233.211 40.2706 233.052 40.2535 232.897 40.2167V39.4708C233.022 39.5145 233.153 39.5381 233.285 39.5409C233.444 39.5422 233.601 39.4958 233.734 39.4075C233.867 39.3193 233.97 39.1933 234.031 39.0457L234.298 38.3954L232.729 34.4351H233.723L234.668 37.3154C234.678 37.3512 234.701 37.4467 234.738 37.6018H234.753C234.766 37.5421 234.789 37.4492 234.823 37.3229L235.813 34.4351H236.723Z" fill="#201C1D"/>
        <path d="M240.784 38.3984H239.889V36.161C239.889 35.4201 239.627 35.0497 239.103 35.0497C238.974 35.0468 238.846 35.0729 238.729 35.1261C238.612 35.1793 238.508 35.2582 238.426 35.357C238.244 35.5735 238.148 35.8499 238.159 36.1326V38.394H237.264V34.4352H238.159V35.093H238.174C238.297 34.8614 238.483 34.669 238.71 34.5373C238.938 34.4055 239.197 34.3397 239.459 34.3472C239.645 34.3353 239.832 34.3671 240.003 34.4402C240.175 34.5132 240.327 34.6254 240.447 34.7678C240.674 35.0482 240.787 35.453 240.787 35.982L240.784 38.3984Z" fill="#201C1D"/>
        <path d="M244.816 38.3983H243.945V37.7792H243.93C243.817 37.9993 243.644 38.183 243.431 38.3089C243.218 38.4348 242.974 38.4978 242.727 38.4908C242.391 38.5103 242.062 38.3961 241.811 38.173C241.7 38.0641 241.613 37.933 241.556 37.7883C241.499 37.6437 241.473 37.4886 241.48 37.3332C241.48 36.5844 241.911 36.1484 242.773 36.0251L243.95 35.858C243.95 35.2932 243.681 35.0108 243.144 35.0108C242.674 35.0093 242.219 35.1813 241.867 35.4941V34.708C242.307 34.4544 242.808 34.326 243.316 34.3365C244.317 34.3365 244.818 34.8293 244.818 35.8148L244.816 38.3983ZM243.95 36.4517L243.117 36.568C242.911 36.584 242.711 36.6484 242.534 36.756C242.464 36.8139 242.41 36.8882 242.376 36.9723C242.342 37.0564 242.329 37.1476 242.339 37.2378C242.337 37.3155 242.352 37.3926 242.383 37.4638C242.414 37.535 242.461 37.5984 242.519 37.6495C242.654 37.7619 242.826 37.8194 243.001 37.8106C243.128 37.8135 243.254 37.7894 243.371 37.7398C243.488 37.6901 243.594 37.6161 243.68 37.5227C243.861 37.3251 243.957 37.0642 243.948 36.7963L243.95 36.4517Z" fill="#201C1D"/>
        <path d="M251.706 38.3982H250.811V36.2398C250.811 35.8241 250.752 35.5258 250.635 35.3448C250.569 35.2492 250.48 35.1729 250.375 35.1238C250.27 35.0747 250.153 35.0547 250.038 35.0659C249.917 35.0693 249.799 35.1034 249.694 35.1649C249.59 35.2265 249.503 35.3135 249.442 35.4179C249.273 35.6667 249.187 35.9619 249.195 36.2622V38.4072H248.3V36.1697C248.3 35.4318 248.04 35.0629 247.519 35.0629C247.399 35.0633 247.282 35.094 247.178 35.1522C247.073 35.2104 246.985 35.2941 246.922 35.3955C246.756 35.652 246.674 35.954 246.688 36.2592V38.4042H245.793V34.4349H246.688V35.0614H246.703C246.824 34.8372 247.005 34.6511 247.226 34.5239C247.446 34.3967 247.698 34.3333 247.953 34.3409C248.21 34.3361 248.462 34.4157 248.67 34.5677C248.873 34.7144 249.021 34.9243 249.091 35.1643C249.389 34.6174 249.828 34.3439 250.407 34.3439C251.279 34.3439 251.715 34.8819 251.715 35.9579L251.706 38.3982Z" fill="#201C1D"/>
        <path d="M254.442 38.4905C254.173 38.5035 253.904 38.4609 253.652 38.3654C253.4 38.2699 253.17 38.1237 252.977 37.9356C252.792 37.7397 252.648 37.5083 252.554 37.2553C252.459 37.0024 252.417 36.733 252.43 36.4634C252.43 35.7971 252.62 35.277 253.001 34.9031C253.382 34.5292 253.895 34.3423 254.541 34.3423C255.16 34.3423 255.643 34.5243 255.989 34.8882C256.335 35.2522 256.508 35.7569 256.508 36.4022C256.508 37.0347 256.322 37.5414 255.949 37.9222C255.576 38.3031 255.074 38.4925 254.442 38.4905ZM254.485 35.0598C254.328 35.0529 254.17 35.0826 254.026 35.1465C253.882 35.2104 253.754 35.3068 253.653 35.4282C253.434 35.7195 253.326 36.0789 253.347 36.4425C253.327 36.7966 253.438 37.1458 253.657 37.424C253.76 37.5418 253.888 37.6351 254.031 37.697C254.174 37.759 254.329 37.788 254.485 37.782C254.639 37.7909 254.793 37.7637 254.934 37.7026C255.076 37.6415 255.201 37.5481 255.3 37.43C255.49 37.1953 255.585 36.8612 255.585 36.4276C255.585 35.994 255.49 35.6574 255.3 35.4178C255.203 35.2983 255.079 35.2035 254.938 35.1407C254.797 35.078 254.644 35.0493 254.49 35.0568L254.485 35.0598Z" fill="#201C1D"/>
        <path d="M257.387 38.398V32.8477H258.989C261.035 32.8477 262.059 33.7496 262.059 35.5535C262.059 36.4107 261.775 37.0988 261.207 37.6179C260.639 38.137 259.876 38.3971 258.917 38.398H257.387ZM258.304 33.6248V37.6164H259.039C259.687 37.6164 260.191 37.4384 260.55 37.0824C260.91 36.7264 261.09 36.2232 261.09 35.5729C261.09 34.2752 260.418 33.6263 259.074 33.6263L258.304 33.6248Z" fill="#201C1D"/>
        <path d="M262.902 38.398V32.8477H264.664C265.201 32.8477 265.626 32.965 265.939 33.1997C266.087 33.3023 266.207 33.4396 266.289 33.5996C266.371 33.7596 266.412 33.9373 266.409 34.117C266.415 34.4128 266.321 34.702 266.142 34.9374C265.952 35.1775 265.691 35.351 265.396 35.4327V35.4476C265.743 35.4746 266.068 35.6249 266.312 35.8712C266.428 35.9961 266.518 36.1426 266.577 36.3024C266.636 36.4621 266.662 36.6319 266.655 36.802C266.661 37.025 266.612 37.246 266.515 37.4466C266.417 37.6472 266.273 37.8215 266.094 37.955C265.687 38.2624 265.187 38.4204 264.677 38.4025L262.902 38.398ZM263.82 33.586V35.1657H264.416C264.684 35.1796 264.948 35.0994 265.162 34.9389C265.254 34.8604 265.326 34.7618 265.373 34.6508C265.421 34.5399 265.442 34.4195 265.435 34.299C265.435 33.8247 265.118 33.5875 264.483 33.5875L263.82 33.586ZM263.82 35.904V37.6612H264.606C264.891 37.6793 265.173 37.5946 265.401 37.4225C265.494 37.3416 265.568 37.2404 265.617 37.1267C265.665 37.013 265.687 36.8897 265.681 36.7662C265.681 36.1904 265.283 35.9025 264.488 35.9025L263.82 35.904Z" fill="#201C1D"/>
    </g>
    <rect width="91.8691" height="61.2461" transform="translate(279.102 0.398926)" fill="white"/>
    <g clip-path="url(#clip3_8130_78966)">
        <path d="M331.325 15.781C331.55 15.781 331.724 15.5983 331.724 15.3822V12.3582C331.724 9.96548 327.362 8.09619 321.788 8.09619C316.213 8.09619 311.852 9.96548 311.852 12.3582V33.4769C311.852 35.8696 316.213 37.7389 321.788 37.7389C327.362 37.7389 331.724 35.8696 331.724 33.4769V32.9701C331.724 32.7458 331.541 32.5714 331.325 32.5714C331.101 32.5714 330.927 32.7541 330.927 32.9701V33.4769C330.927 35.1468 327.254 36.933 321.796 36.933C316.338 36.933 312.657 35.1468 312.657 33.4769V28.4755C314.169 29.9876 317.642 31.0261 321.788 31.0261C322.486 31.0261 323.192 30.9928 323.873 30.9347C324.097 30.9181 324.255 30.7187 324.239 30.4944C324.222 30.2701 324.023 30.1122 323.798 30.1288C323.142 30.187 322.469 30.2202 321.788 30.2202C316.33 30.2202 312.657 28.434 312.657 26.7641V21.4886C314.169 23.0006 317.642 24.0391 321.788 24.0391C322.494 24.0391 323.192 24.0059 323.873 23.9477C324.097 23.9311 324.255 23.7317 324.239 23.5074C324.222 23.2831 324.023 23.1252 323.798 23.1419C323.142 23.2 322.461 23.2332 321.78 23.2332C316.321 23.2332 312.649 21.447 312.649 19.7771V14.0696C314.161 15.5816 317.634 16.6201 321.78 16.6201C325.925 16.6201 329.406 15.5816 330.91 14.0696V15.3822C330.918 15.5983 331.101 15.781 331.325 15.781ZM321.788 15.8143C316.33 15.8143 312.657 14.0281 312.657 12.3582C312.657 10.6883 316.33 8.90206 321.788 8.90206C327.246 8.90206 330.918 10.6883 330.918 12.3582C330.918 14.0281 327.246 15.8143 321.788 15.8143Z" fill="url(#paint0_linear_8130_78966)"/>
        <path d="M337.996 21.6962C337.987 21.663 337.979 21.6298 337.963 21.5965C337.963 21.5882 337.954 21.5799 337.946 21.5716C337.929 21.5384 337.904 21.5135 337.879 21.4885L335.852 19.4614L334.506 18.1155L333.161 16.7696C333.086 16.6949 332.986 16.6533 332.878 16.6533H326.282C326.057 16.6533 325.883 16.8361 325.883 17.0521V28.866C325.883 29.0903 326.066 29.2648 326.282 29.2648H327.22V30.2036C327.22 30.4279 327.403 30.6023 327.619 30.6023H328.558V31.5411C328.558 31.7654 328.741 31.9399 328.957 31.9399H337.589C337.813 31.9399 337.987 31.7571 337.987 31.5411V21.771C338.004 21.7461 337.996 21.7212 337.996 21.6962ZM335.969 20.7159L336.625 21.3722H335.969V20.7159ZM326.689 28.4672V17.4592H332.712L333.252 17.9992H327.627C327.403 17.9992 327.229 18.182 327.229 18.398V28.4672H326.689ZM328.035 29.8131V18.8051H334.058L334.598 19.3451H328.973C328.749 19.3451 328.575 19.5279 328.575 19.7439V29.8131H328.035ZM329.372 31.159V20.1427H335.163V21.771C335.163 21.9953 335.346 22.1698 335.562 22.1698H337.19V31.1507H329.372V31.159Z" fill="url(#paint1_linear_8130_78966)"/>
        <path d="M332.43 23.6485C332.621 23.5405 332.696 23.2912 332.587 23.1002C332.479 22.9091 332.23 22.8343 332.039 22.9423C332.006 22.9589 331.167 23.4408 331.167 24.6371C331.167 25.5842 330.693 25.659 330.544 25.6839C330.344 25.7172 330.203 25.8833 330.203 26.0827C330.203 26.2821 330.344 26.4483 330.544 26.4815C330.702 26.5064 331.167 26.5812 331.167 27.5283C331.167 28.7246 331.998 29.2065 332.039 29.2231C332.097 29.2563 332.172 29.273 332.239 29.273C332.38 29.273 332.521 29.1982 332.587 29.0653C332.696 28.8742 332.629 28.6249 332.43 28.5169C332.421 28.5169 331.973 28.2428 331.973 27.5283C331.973 26.7972 331.748 26.3569 331.474 26.0827C331.748 25.8169 331.973 25.3682 331.973 24.6371C331.973 23.931 332.413 23.6568 332.43 23.6485Z" fill="url(#paint2_linear_8130_78966)"/>
        <path d="M336.035 25.6925C335.877 25.6676 335.412 25.5928 335.412 24.6457C335.412 23.4493 334.581 22.9675 334.539 22.9509C334.348 22.8429 334.099 22.9093 333.991 23.1087C333.883 23.2998 333.949 23.549 334.149 23.657C334.157 23.657 334.606 23.9312 334.606 24.6457C334.606 25.3768 334.83 25.8171 335.104 26.0913C334.83 26.3571 334.606 26.8057 334.606 27.5368C334.606 28.2347 334.174 28.5172 334.149 28.5338C333.958 28.6418 333.891 28.8827 333.999 29.0821C334.074 29.215 334.207 29.2898 334.348 29.2898C334.415 29.2898 334.481 29.2732 334.548 29.24C334.581 29.2234 335.42 28.7415 335.42 27.5451C335.42 26.598 335.893 26.5233 336.043 26.4983C336.242 26.4651 336.384 26.299 336.384 26.0996C336.367 25.8919 336.226 25.7174 336.035 25.6925Z" fill="url(#paint3_linear_8130_78966)"/>
        <path d="M315.515 46.0217L315.041 44.709H313.238L312.773 46.0217H311.959L313.729 41.2778H314.568L316.337 46.0217H315.515ZM314.834 44.0444L314.393 42.7566C314.36 42.6736 314.318 42.5323 314.26 42.3496C314.202 42.1668 314.161 42.0255 314.144 41.9425C314.086 42.2083 314.003 42.4991 313.886 42.8148L313.463 44.0444H314.834Z" fill="black"/>
        <path d="M319.885 46.0217H319.121V43.8201C319.121 43.5459 319.071 43.3465 318.963 43.2053C318.863 43.0724 318.697 43.0059 318.481 43.0059C318.19 43.0059 317.974 43.0973 317.833 43.2884C317.7 43.4795 317.625 43.7952 317.625 44.2355V46.0217H316.869V42.4493H317.467L317.575 42.9145H317.617C317.717 42.7484 317.858 42.6154 318.049 42.524C318.24 42.4327 318.448 42.3828 318.672 42.3828C319.22 42.3828 319.586 42.5739 319.76 42.9478H319.81C319.918 42.7733 320.068 42.632 320.259 42.5324C320.45 42.4327 320.666 42.3828 320.915 42.3828C321.339 42.3828 321.655 42.4908 321.846 42.7068C322.037 42.9228 322.136 43.2468 322.136 43.6955V46.0217H321.38V43.8201C321.38 43.5459 321.33 43.3465 321.222 43.2053C321.114 43.0724 320.957 43.0059 320.732 43.0059C320.433 43.0059 320.226 43.0973 320.084 43.2801C319.951 43.4628 319.877 43.7453 319.877 44.1275V46.0217H319.885Z" fill="black"/>
        <path d="M325.434 46.0217L325.284 45.5232H325.259C325.085 45.7392 324.91 45.8888 324.736 45.9635C324.561 46.0383 324.337 46.0798 324.063 46.0798C323.714 46.0798 323.44 45.9885 323.24 45.7974C323.041 45.6063 322.941 45.3404 322.941 44.9915C322.941 44.626 323.074 44.3435 323.348 44.1607C323.623 43.9696 324.038 43.8699 324.595 43.8533L325.209 43.8367V43.6456C325.209 43.4213 325.16 43.2468 325.052 43.1305C324.944 43.0142 324.777 42.9644 324.553 42.9644C324.37 42.9644 324.196 42.9893 324.03 43.0474C323.864 43.0973 323.697 43.1638 323.548 43.2385L323.299 42.6985C323.49 42.5988 323.706 42.524 323.938 42.4659C324.171 42.416 324.387 42.3828 324.595 42.3828C325.052 42.3828 325.392 42.4825 325.625 42.6819C325.857 42.8813 325.974 43.1887 325.974 43.6124V46.0217H325.434ZM324.304 45.5066C324.578 45.5066 324.802 45.4318 324.969 45.274C325.135 45.1161 325.218 44.9001 325.218 44.626V44.3186L324.761 44.3352C324.404 44.3518 324.146 44.4099 323.98 44.5179C323.814 44.626 323.739 44.7838 323.739 45.0081C323.739 45.166 323.789 45.2906 323.88 45.3737C323.972 45.4651 324.113 45.5066 324.304 45.5066Z" fill="black"/>
        <path d="M329.423 46.0216H326.715V45.5564L328.518 43.0308H326.823V42.4492H329.373V42.9809L327.604 45.4401H329.423V46.0216Z" fill="black"/>
        <path d="M333.368 44.2272C333.368 44.8087 333.218 45.2657 332.919 45.5897C332.62 45.9137 332.205 46.0798 331.673 46.0798C331.341 46.0798 331.041 46.0051 330.784 45.8555C330.526 45.706 330.327 45.49 330.194 45.2075C330.053 44.925 329.986 44.601 329.986 44.2272C329.986 43.6456 330.136 43.197 330.435 42.873C330.734 42.549 331.149 42.3828 331.689 42.3828C332.205 42.3828 332.612 42.549 332.919 42.8813C333.21 43.2136 333.368 43.6622 333.368 44.2272ZM330.767 44.2272C330.767 45.0497 331.075 45.4651 331.681 45.4651C332.288 45.4651 332.587 45.0497 332.587 44.2272C332.587 43.413 332.279 43.0059 331.673 43.0059C331.357 43.0059 331.125 43.1139 330.983 43.3216C330.834 43.5293 330.767 43.8367 330.767 44.2272Z" fill="black"/>
        <path d="M337.383 46.0217H336.619V43.8284C336.619 43.5542 336.561 43.3465 336.453 43.2136C336.345 43.0807 336.162 43.0059 335.921 43.0059C335.597 43.0059 335.364 43.0973 335.215 43.2884C335.065 43.4795 334.99 43.7952 334.99 44.2438V46.0217H334.234V42.4493H334.833L334.941 42.9145H334.982C335.09 42.7484 335.24 42.6154 335.439 42.524C335.638 42.4327 335.854 42.3828 336.095 42.3828C336.951 42.3828 337.383 42.8148 337.383 43.6872V46.0217Z" fill="black"/>
        <path d="M308.129 51.5547C308.129 52.3357 307.913 52.9338 307.481 53.3409C307.049 53.7563 306.426 53.9557 305.612 53.9557H304.291V49.2368H305.753C306.501 49.2368 307.091 49.4362 307.506 49.8433C307.922 50.2504 308.129 50.8153 308.129 51.5547ZM307.315 51.5797C307.315 50.4498 306.783 49.8848 305.728 49.8848H305.064V53.3077H305.612C306.75 53.3077 307.315 52.7345 307.315 51.5797Z" fill="black"/>
        <path d="M312.233 52.1696C312.233 52.7511 312.083 53.208 311.784 53.5321C311.485 53.8561 311.07 54.0222 310.538 54.0222C310.206 54.0222 309.907 53.9475 309.649 53.7979C309.392 53.6484 309.192 53.4324 309.059 53.1499C308.918 52.8674 308.852 52.5434 308.852 52.1696C308.852 51.588 309.001 51.1394 309.3 50.8154C309.599 50.4914 310.015 50.3252 310.555 50.3252C311.07 50.3252 311.477 50.4914 311.784 50.8237C312.083 51.156 312.233 51.6046 312.233 52.1696ZM309.633 52.1696C309.633 52.992 309.94 53.4074 310.546 53.4074C311.153 53.4074 311.452 52.992 311.452 52.1696C311.452 51.3554 311.145 50.9483 310.538 50.9483C310.222 50.9483 309.99 51.0563 309.849 51.264C309.699 51.4717 309.633 51.7708 309.633 52.1696Z" fill="black"/>
        <path d="M314.542 54.0222C314.002 54.0222 313.595 53.8644 313.312 53.5487C313.03 53.233 312.889 52.7843 312.889 52.1945C312.889 51.5963 313.038 51.1311 313.329 50.8071C313.62 50.483 314.043 50.3252 314.6 50.3252C314.974 50.3252 315.315 50.3917 315.614 50.5329L315.381 51.1394C315.057 51.0148 314.799 50.9483 314.583 50.9483C313.969 50.9483 313.653 51.3554 313.653 52.1779C313.653 52.5766 313.728 52.8757 313.886 53.0834C314.043 53.2828 314.268 53.3825 314.559 53.3825C314.899 53.3825 315.215 53.2994 315.514 53.1333V53.7979C315.381 53.881 315.232 53.9308 315.082 53.9724C314.949 54.0056 314.758 54.0222 314.542 54.0222Z" fill="black"/>
        <path d="M318.896 53.9557L318.788 53.4905H318.747C318.639 53.6566 318.489 53.7895 318.298 53.8809C318.107 53.9723 317.883 54.0222 317.633 54.0222C317.201 54.0222 316.877 53.9142 316.661 53.6982C316.445 53.4822 316.346 53.1581 316.346 52.7178V50.3833H317.11V52.5849C317.11 52.8591 317.168 53.0668 317.276 53.1997C317.384 53.3326 317.567 53.4074 317.8 53.4074C318.115 53.4074 318.356 53.316 318.506 53.1249C318.655 52.9338 318.73 52.6181 318.73 52.1695V50.3916H319.494V53.964H318.896V53.9557Z" fill="black"/>
        <path d="M323.582 53.9558H322.818V51.7542C322.818 51.48 322.768 51.2806 322.66 51.1394C322.56 51.0065 322.394 50.94 322.178 50.94C321.887 50.94 321.671 51.0314 321.53 51.2225C321.397 51.4135 321.322 51.7292 321.322 52.1696V53.9475H320.566V50.3751H321.165L321.273 50.8403H321.314C321.414 50.6741 321.555 50.5412 321.746 50.4498C321.937 50.3584 322.145 50.3086 322.369 50.3086C322.918 50.3086 323.283 50.4997 323.458 50.8735H323.507C323.615 50.6991 323.765 50.5578 323.956 50.4581C324.147 50.3584 324.363 50.3086 324.612 50.3086C325.036 50.3086 325.352 50.4166 325.543 50.6326C325.734 50.8486 325.834 51.1726 325.834 51.6212V53.9475H325.078V51.7542C325.078 51.48 325.028 51.2806 324.92 51.1394C324.812 51.0065 324.654 50.94 324.43 50.94C324.131 50.94 323.923 51.0314 323.782 51.2142C323.649 51.3969 323.574 51.6794 323.574 52.0616V53.9558H323.582Z" fill="black"/>
        <path d="M328.458 54.0222C327.901 54.0222 327.469 53.8644 327.153 53.5404C326.838 53.2164 326.68 52.7677 326.68 52.2028C326.68 51.6212 326.821 51.1643 327.112 50.8237C327.402 50.4914 327.801 50.3252 328.308 50.3252C328.782 50.3252 329.155 50.4664 329.43 50.7572C329.704 51.0397 329.837 51.4385 329.837 51.9369V52.344H327.461C327.469 52.693 327.569 52.9588 327.743 53.1416C327.918 53.3244 328.167 53.4241 328.491 53.4241C328.699 53.4241 328.898 53.4074 329.081 53.3659C329.263 53.3244 329.455 53.2579 329.671 53.1665V53.7813C329.488 53.8727 329.297 53.9308 329.106 53.9724C328.915 54.0056 328.699 54.0222 328.458 54.0222ZM328.316 50.8984C328.075 50.8984 327.884 50.9732 327.735 51.1311C327.594 51.2806 327.502 51.5049 327.477 51.7957H329.097C329.089 51.5049 329.023 51.2806 328.881 51.1228C328.748 50.9732 328.557 50.8984 328.316 50.8984Z" fill="black"/>
        <path d="M333.851 53.9558H333.095V51.7625C333.095 51.4883 333.037 51.2806 332.929 51.1477C332.821 51.0148 332.638 50.94 332.397 50.94C332.073 50.94 331.841 51.0314 331.691 51.2225C331.542 51.4135 331.467 51.7292 331.467 52.1779V53.9558H330.711V50.3834H331.309L331.417 50.8486H331.459C331.567 50.6824 331.716 50.5495 331.916 50.4581C332.115 50.3667 332.331 50.3169 332.572 50.3169C333.428 50.3169 333.86 50.7489 333.86 51.6212V53.9558H333.851Z" fill="black"/>
        <path d="M336.243 53.4071C336.426 53.4071 336.617 53.3739 336.8 53.3157V53.889C336.717 53.9222 336.609 53.9554 336.476 53.9803C336.343 54.0053 336.21 54.0136 336.06 54.0136C335.338 54.0136 334.98 53.6314 334.98 52.8754V50.9479H334.49V50.6156L335.014 50.3415L335.271 49.5854H335.736V50.383H336.75V50.9563H335.736V52.8671C335.736 53.0499 335.778 53.1828 335.878 53.2742C335.969 53.3656 336.094 53.4071 336.243 53.4071Z" fill="black"/>
        <path d="M341.426 51.5547C341.426 52.3357 341.21 52.9338 340.778 53.3409C340.346 53.7563 339.723 53.9557 338.909 53.9557H337.588V49.2368H339.05C339.798 49.2368 340.388 49.4362 340.803 49.8433C341.218 50.2504 341.426 50.8153 341.426 51.5547ZM340.612 51.5797C340.612 50.4498 340.08 49.8848 339.025 49.8848H338.361V53.3077H338.909C340.047 53.3077 340.612 52.7345 340.612 51.5797Z" fill="black"/>
        <path d="M342.441 49.2368H343.845C344.493 49.2368 344.967 49.3282 345.258 49.5193C345.549 49.7104 345.69 50.0095 345.69 50.4165C345.69 50.6907 345.615 50.9233 345.474 51.1061C345.333 51.2889 345.125 51.4052 344.859 51.455V51.4883C345.191 51.5547 345.432 51.671 345.59 51.8621C345.748 52.0449 345.823 52.2941 345.823 52.6098C345.823 53.0335 345.673 53.3659 345.382 53.6068C345.083 53.8477 344.676 53.964 344.145 53.964H342.441V49.2368ZM343.214 51.1892H343.953C344.277 51.1892 344.51 51.1393 344.66 51.0396C344.809 50.9399 344.884 50.7655 344.884 50.5162C344.884 50.2919 344.801 50.1341 344.643 50.0344C344.485 49.9347 344.228 49.8848 343.879 49.8848H343.214V51.1892ZM343.214 51.8123V53.3077H344.037C344.361 53.3077 344.601 53.2495 344.768 53.1249C344.934 53.0003 345.017 52.8092 345.017 52.5351C345.017 52.2858 344.934 52.1114 344.768 51.9867C344.601 51.8621 344.344 51.8123 344.003 51.8123H343.214Z" fill="black"/>
    </g>
    <rect width="91.8691" height="61.2461" transform="translate(371.928 0.398926)" fill="white"/>
    <g clip-path="url(#clip4_8130_78966)">
        <path d="M435.45 24.6976V23.7979C435.45 23.6719 435.54 23.564 435.666 23.564H435.684H439.751C439.877 23.564 439.985 23.6539 439.985 23.7799C439.985 23.7799 439.985 23.7799 439.985 23.7979V24.5717C439.985 24.6976 439.877 24.8776 439.679 25.1475L437.574 28.1526C438.383 28.0986 439.175 28.2786 439.895 28.6565C440.021 28.7285 440.111 28.8724 440.111 29.0164V29.9881C440.111 30.114 439.967 30.276 439.805 30.204C438.455 29.5022 436.854 29.5022 435.504 30.204C435.36 30.276 435.216 30.132 435.216 29.9881V29.0704C435.198 28.8544 435.252 28.6385 435.36 28.4405L437.79 24.9496H435.666C435.558 24.9316 435.468 24.8416 435.45 24.6976Z" fill="#201C1D"/>
        <path d="M420.641 30.3658H419.4C419.292 30.3658 419.184 30.2758 419.184 30.1499V23.8157C419.184 23.6898 419.292 23.5818 419.418 23.5818H420.569C420.695 23.5818 420.785 23.6718 420.803 23.7977V24.6255H420.821C421.127 23.8157 421.685 23.4558 422.441 23.4558C423.196 23.4558 423.7 23.8337 424.042 24.6255C424.402 23.6898 425.446 23.2039 426.399 23.5638C426.705 23.6898 426.975 23.8877 427.191 24.1396C427.587 24.6795 427.497 25.4533 427.497 26.1191V30.1319C427.497 30.2579 427.389 30.3658 427.263 30.3658H426.022C425.896 30.3658 425.806 30.2579 425.806 30.1319V26.7669C425.824 26.371 425.806 25.9751 425.77 25.5792C425.68 25.1474 425.41 25.0394 425.05 25.0394C424.726 25.0574 424.438 25.2553 424.312 25.5612C424.186 25.8851 424.204 26.425 424.204 26.7849V30.1499C424.204 30.2758 424.096 30.3838 423.97 30.3838H422.729C422.603 30.3838 422.513 30.2758 422.513 30.1499V26.7669C422.513 26.0651 422.621 25.0214 421.757 25.0214C420.893 25.0214 420.911 26.0291 420.911 26.7669V30.1319C420.875 30.2579 420.767 30.3658 420.641 30.3658Z" fill="#201C1D"/>
        <path d="M443.477 23.4561C445.312 23.4561 446.302 25.0396 446.302 27.037C446.302 28.9804 445.204 30.51 443.477 30.51C441.677 30.51 440.688 28.9265 440.688 26.965C440.688 25.0036 441.695 23.4561 443.477 23.4561ZM443.495 24.7517C442.577 24.7517 442.523 25.9933 442.523 26.7671C442.523 27.5409 442.505 29.1964 443.477 29.1964C444.448 29.1964 444.484 27.8648 444.484 27.055C444.502 26.4972 444.448 25.9213 444.304 25.3635C444.232 24.9856 443.873 24.7157 443.495 24.7517Z" fill="#201C1D"/>
        <path d="M448.676 30.3659H447.452C447.326 30.3659 447.236 30.2579 447.236 30.132V23.7978C447.254 23.6719 447.362 23.5819 447.47 23.5819H448.622C448.73 23.5819 448.82 23.6539 448.838 23.7618V24.7335H448.856C449.198 23.8698 449.684 23.4559 450.547 23.4559C451.123 23.4379 451.681 23.7078 451.987 24.2117C452.311 24.7156 452.311 25.5793 452.311 26.1911V30.168C452.293 30.2759 452.185 30.3659 452.077 30.3659H450.835C450.727 30.3659 450.637 30.2759 450.619 30.168V26.713C450.619 26.0292 450.691 25.0035 449.846 25.0035C449.522 25.0215 449.252 25.2194 449.126 25.5073C448.982 25.8852 448.91 26.2991 448.928 26.713V30.132C448.91 30.2759 448.82 30.3659 448.676 30.3659Z" fill="#201C1D"/>
        <path d="M418.211 29.1962C417.977 28.8902 417.744 28.6203 417.744 28.0445V26.1371C417.744 25.3273 417.797 24.5715 417.204 24.0137C416.736 23.5638 415.944 23.4019 415.332 23.4019C414.163 23.4019 412.849 23.8337 412.561 25.2913C412.543 25.4173 412.615 25.5252 412.741 25.5432L413.947 25.6692C414.055 25.6512 414.145 25.5612 414.163 25.4353C414.271 24.9314 414.684 24.6975 415.152 24.6975C415.422 24.6795 415.674 24.8054 415.854 25.0214C416.034 25.2733 415.998 25.6152 415.998 25.9211V26.0831C415.278 26.173 414.342 26.209 413.677 26.5149C412.849 26.8388 412.327 27.6486 412.363 28.5304C412.363 29.808 413.173 30.4558 414.217 30.4558C415.098 30.4558 415.584 30.2399 416.25 29.5561C416.43 29.88 416.664 30.1499 416.952 30.3838C417.042 30.4378 417.168 30.4198 417.24 30.3478C417.492 30.1319 417.941 29.736 418.193 29.5201C418.301 29.4481 418.301 29.3041 418.211 29.1962ZM415.782 28.6383C415.62 28.9622 415.296 29.1782 414.918 29.1962C414.45 29.1962 414.163 28.8363 414.163 28.2964C414.163 27.2527 415.116 27.0548 415.998 27.0548V27.3247C416.016 27.8106 416.034 28.2244 415.782 28.6383Z" fill="#201C1D"/>
        <path d="M434.424 29.1962C434.19 28.8902 433.956 28.6203 433.956 28.0445V26.1371C433.956 25.3273 434.01 24.5715 433.416 24.0137C432.949 23.5638 432.157 23.4019 431.545 23.4019C430.375 23.4019 429.062 23.8337 428.774 25.2913C428.756 25.4173 428.828 25.5252 428.936 25.5432C428.936 25.5432 428.936 25.5432 428.954 25.5432L430.159 25.6692C430.267 25.6512 430.357 25.5612 430.375 25.4353C430.483 24.9314 430.897 24.6975 431.365 24.6975C431.635 24.6795 431.887 24.8054 432.067 25.0214C432.247 25.2733 432.211 25.6152 432.211 25.9211V26.0831C431.491 26.173 430.555 26.209 429.89 26.5149C429.08 26.8388 428.54 27.6486 428.576 28.5304C428.576 29.808 429.386 30.4558 430.429 30.4558C431.311 30.4558 431.779 30.2399 432.463 29.5561C432.643 29.88 432.877 30.1499 433.165 30.3838C433.255 30.4378 433.381 30.4198 433.452 30.3478C433.704 30.1319 434.154 29.736 434.406 29.5201C434.496 29.4481 434.514 29.3041 434.424 29.1962ZM431.977 28.6383C431.815 28.9622 431.491 29.1782 431.113 29.1962C430.645 29.1962 430.357 28.8363 430.357 28.2964C430.357 27.2527 431.311 27.0548 432.193 27.0548V27.3247C432.211 27.8106 432.229 28.2244 431.977 28.6383Z" fill="#201C1D"/>
        <path d="M398.365 43.8614C396.026 43.8614 393.723 43.8794 391.383 43.8794C391.312 43.8794 391.258 43.8614 391.186 43.8254C391.186 43.8075 391.186 43.7715 391.186 43.7175C391.312 43.5915 391.258 43.4116 391.258 43.2496C391.258 35.098 391.258 26.9284 391.258 18.7768C391.258 18.6148 391.312 18.4709 391.186 18.3089C391.186 18.2909 391.186 18.2549 391.186 18.201C391.258 18.183 391.347 18.147 391.437 18.147C393.669 18.147 395.9 18.147 398.132 18.147C398.203 18.147 398.293 18.165 398.329 18.165C398.329 18.3449 398.347 18.5429 398.347 18.7228C398.347 25.039 398.347 31.3731 398.347 37.6892C398.347 39.7946 398.347 41.828 398.365 43.8614Z" fill="#2D72B7"/>
        <path d="M398.366 43.8613C398.366 41.8279 398.366 39.8125 398.366 37.7791C398.366 31.4629 398.366 25.1288 398.366 18.8126C398.366 18.6327 398.366 18.4347 398.348 18.2548C398.456 18.2008 398.51 18.2548 398.582 18.3088C400.147 19.1005 401.731 19.8743 403.296 20.6661C403.404 20.7201 403.53 20.774 403.602 20.9C403.476 21.026 403.53 21.2059 403.53 21.3679C403.53 27.864 403.53 34.3241 403.53 40.8202C403.53 40.9821 403.476 41.1261 403.602 41.288C403.548 41.414 403.44 41.45 403.35 41.486C401.803 42.2597 400.237 43.0335 398.708 43.8253C398.582 43.8073 398.474 43.8793 398.366 43.8613Z" fill="#5294CE"/>
        <path d="M391.186 43.7536C391.186 43.7716 391.186 43.8076 391.186 43.8616C391.078 43.8796 391.024 43.8436 390.952 43.7896C389.404 43.0158 387.839 42.2421 386.309 41.4503C386.237 41.4323 386.183 41.3423 386.111 41.2883C386.111 34.4683 386.111 27.6483 386.111 20.8103C386.453 20.5224 386.849 20.3965 387.245 20.1985C388.433 19.6047 389.638 18.9929 390.808 18.399C390.934 18.3451 391.042 18.2191 391.186 18.2371C391.186 18.2551 391.186 18.2911 391.186 18.3451C391.186 26.8206 391.186 35.2781 391.186 43.7536Z" fill="#205B98"/>
        <path d="M386.075 20.8101C386.075 27.6301 386.075 34.4501 386.075 41.2881C385.23 40.3163 384.384 39.3446 383.538 38.3549C383.43 38.229 383.412 38.067 383.412 37.923C383.412 33.3344 383.412 28.7637 383.412 24.1751C383.412 24.0131 383.412 23.8692 383.538 23.7432C384.384 22.7715 385.23 21.7818 386.075 20.8101Z" fill="#1C4870"/>
        <path d="M403.601 41.2342C403.475 41.1083 403.529 40.9283 403.529 40.7664C403.529 34.2703 403.529 27.8102 403.529 21.3141C403.529 21.1521 403.475 21.0081 403.601 20.8462C404.429 21.7999 405.239 22.7536 406.066 23.6894C406.192 23.8513 406.228 23.9953 406.228 24.1752C406.228 28.7459 406.228 33.3345 406.228 37.9052C406.228 38.1031 406.174 38.2651 406.048 38.427C405.221 39.3628 404.393 40.2805 403.601 41.2342Z" fill="#2D72B7"/>
        <path d="M391.186 43.7534C391.186 35.2959 391.186 26.8204 391.186 18.3809C391.312 18.5068 391.258 18.6868 391.258 18.8487C391.258 27.0003 391.258 35.1699 391.258 43.3216C391.258 43.4475 391.312 43.6275 391.186 43.7534Z" fill="#5294CE"/>
        <path d="M412.365 40.3887V32.6689H415.172C415.766 32.6689 416.198 32.7409 416.468 32.8849C416.738 33.0288 416.972 33.2628 417.152 33.6047C417.332 33.9466 417.422 34.3245 417.422 34.7743C417.422 35.3502 417.278 35.836 416.972 36.1959C416.666 36.5558 416.234 36.7897 415.64 36.8797C415.874 37.0237 416.054 37.1676 416.18 37.3116C416.432 37.5995 416.648 37.9414 416.846 38.3013L417.944 40.4067H416.882L416.036 38.8051C415.712 38.1753 415.46 37.7615 415.298 37.5455C415.136 37.3296 414.974 37.1856 414.813 37.1136C414.651 37.0417 414.435 37.0057 414.165 37.0057H413.193V40.4247H412.365V40.3887ZM413.193 36.0699H414.992C415.388 36.0699 415.676 36.016 415.892 35.926C416.09 35.836 416.252 35.6741 416.378 35.4761C416.504 35.2782 416.558 35.0443 416.558 34.7743C416.558 34.3784 416.45 34.0725 416.216 33.8566C415.982 33.6407 415.658 33.5147 415.208 33.5147H413.211V36.0699H413.193Z" fill="#201C1D"/>
        <path d="M418.719 40.3887V32.6689H420.896C421.436 32.6689 421.85 32.7229 422.12 32.8129C422.48 32.9389 422.804 33.1548 423.073 33.4787C423.343 33.8026 423.559 34.2165 423.703 34.7203C423.847 35.2242 423.937 35.8 423.937 36.4838C423.937 37.3656 423.811 38.1034 423.559 38.6972C423.307 39.309 422.984 39.7409 422.57 39.9928C422.174 40.2447 421.652 40.3707 420.986 40.3707H418.719V40.3887ZM419.565 39.471H420.914C421.454 39.471 421.868 39.381 422.156 39.201C422.444 39.0211 422.66 38.7332 422.804 38.3553C423.001 37.8334 423.109 37.2036 423.109 36.4838C423.109 35.7101 423.001 35.0802 422.786 34.6484C422.57 34.1985 422.3 33.9106 421.976 33.7486C421.76 33.6407 421.4 33.6047 420.914 33.6047H419.582V39.471H419.565Z" fill="#201C1D"/>
        <path d="M424.836 37.9053L425.628 37.8154C425.664 38.2472 425.772 38.5711 425.916 38.8051C426.06 39.039 426.276 39.2369 426.563 39.3809C426.833 39.5249 427.157 39.5968 427.499 39.5968C428.003 39.5968 428.381 39.4709 428.651 39.2369C428.921 38.985 429.065 38.6791 429.065 38.2832C429.065 38.0493 429.011 37.8513 428.921 37.6894C428.813 37.5274 428.669 37.3835 428.471 37.2755C428.273 37.1675 427.841 37.0056 427.157 36.8076C426.563 36.6277 426.132 36.4478 425.88 36.2678C425.628 36.0879 425.43 35.8539 425.286 35.584C425.142 35.3141 425.07 34.9902 425.07 34.6483C425.07 34.0185 425.268 33.5146 425.682 33.1187C426.078 32.7228 426.635 32.5249 427.319 32.5249C427.787 32.5249 428.201 32.6149 428.561 32.7948C428.921 32.9748 429.191 33.2447 429.389 33.5866C429.587 33.9285 429.695 34.3424 429.695 34.8102L428.885 34.8822C428.849 34.3784 428.687 34.0005 428.435 33.7665C428.183 33.5326 427.823 33.4066 427.355 33.4066C426.887 33.4066 426.527 33.5146 426.276 33.7305C426.024 33.9465 425.898 34.2164 425.898 34.5583C425.898 34.8642 425.988 35.1161 426.168 35.2781C426.347 35.458 426.761 35.62 427.391 35.7999C428.021 35.9799 428.453 36.1238 428.705 36.2498C429.083 36.4478 429.389 36.6997 429.587 37.0236C429.784 37.3475 429.874 37.7254 429.874 38.1752C429.874 38.6251 429.766 39.021 429.569 39.3809C429.371 39.7408 429.083 40.0107 428.723 40.2087C428.363 40.4066 427.931 40.4966 427.445 40.4966C426.671 40.4966 426.042 40.2626 425.574 39.7948C425.088 39.3449 424.854 38.6971 424.836 37.9053Z" fill="#201C1D"/>
    </g>
    <rect width="91.8691" height="61.2461" transform="translate(464.754 0.398926)" fill="white"/>
    <g clip-path="url(#clip5_8130_78966)">
        <path d="M503.908 28.6794L503.026 26.4194H500.174L499.292 28.6794H498.451L501.262 21.5273H501.965L504.763 28.6794H503.908ZM502.764 25.6615L501.938 23.4566C501.827 23.181 501.717 22.8365 501.607 22.4231C501.538 22.74 501.428 23.0707 501.304 23.4566L500.463 25.6615H502.764Z" fill="#222222"/>
        <path d="M511.954 28.6796H511.141L509.708 23.9116C509.639 23.7049 509.57 23.4293 509.474 23.1124C509.391 22.7954 509.349 22.6025 509.336 22.5336C509.267 22.9608 509.157 23.4293 508.991 23.9392L507.599 28.6796H506.786L504.898 21.5552H505.78L506.91 25.9511C507.062 26.5712 507.186 27.1224 507.255 27.6323C507.338 27.0398 507.475 26.461 507.641 25.896L508.922 21.569H509.804L511.141 25.9373C511.293 26.4472 511.43 27.0122 511.541 27.6461C511.596 27.1913 511.72 26.6263 511.885 25.9649L513.001 21.5827H513.883L511.954 28.6796Z" fill="#222222"/>
        <path d="M518.998 26.7778C518.998 27.3979 518.778 27.894 518.323 28.2385C517.868 28.5831 517.248 28.7622 516.476 28.7622C515.636 28.7622 514.988 28.652 514.533 28.4315V27.6322C514.823 27.7562 515.14 27.8527 515.484 27.9216C515.829 27.9905 516.173 28.0318 516.504 28.0318C517.055 28.0318 517.468 27.9216 517.744 27.7149C518.02 27.5082 518.157 27.2188 518.157 26.8467C518.157 26.5987 518.102 26.392 518.006 26.2404C517.909 26.0888 517.744 25.9372 517.51 25.7994C517.275 25.6616 516.931 25.51 516.449 25.3447C515.787 25.1104 515.319 24.821 515.029 24.5041C514.74 24.1733 514.602 23.7599 514.602 23.2363C514.602 22.6851 514.809 22.2441 515.222 21.9271C515.636 21.5964 516.173 21.4448 516.862 21.4448C517.565 21.4448 518.226 21.5688 518.819 21.8307L518.557 22.5473C517.965 22.2992 517.4 22.1752 516.848 22.1752C516.407 22.1752 516.063 22.2716 515.815 22.4508C515.567 22.6437 515.443 22.9055 515.443 23.2363C515.443 23.4843 515.484 23.691 515.581 23.8426C515.677 23.9942 515.829 24.1458 516.035 24.2698C516.256 24.4076 516.586 24.5454 517.027 24.7108C517.772 24.9726 518.281 25.262 518.571 25.5652C518.86 25.8959 518.998 26.2955 518.998 26.7778Z" fill="#222222"/>
        <path d="M476.24 24.5871V27.1916L485.418 24.5182V20.0947L476.24 24.5871Z" fill="#1F5B99"/>
        <path d="M476.24 37.458L485.418 41.9504V37.5131L476.24 34.8535V37.458Z" fill="#1F5B99"/>
        <path d="M481.475 28.3628V33.6821L485.416 34.2471V27.7979L481.475 28.3628Z" fill="#1F5B99"/>
        <path d="M494.594 24.5871V27.1916L485.416 24.5182V20.0947L494.594 24.5871Z" fill="#5194D0"/>
        <path d="M494.594 37.458L485.416 41.9504V37.5131L494.594 34.8535V37.458Z" fill="#5194D0"/>
        <path d="M489.357 28.3628V33.6821L485.416 34.2471V27.7979L489.357 28.3628Z" fill="#5194D0"/>
        <path d="M485.416 24.5181L476.238 27.1915L483.28 28.101L485.416 27.7978L487.552 28.101L494.594 27.1915L485.416 24.5181Z" fill="#17496F"/>
        <path d="M487.552 33.9302L485.416 34.2471L483.28 33.9302L476.238 34.8397L485.416 37.5131L494.594 34.8397L487.552 33.9302Z" fill="#99BCE3"/>
        <path d="M502.186 40.5034H498.451V33.8062H502.186V34.4952H499.237V36.6449H502.007V37.3339H499.237V39.8006H502.186V40.5034Z" fill="black"/>
        <path d="M504.32 40.5034H503.562V33.3789H504.32V40.5034Z" fill="black"/>
        <path d="M509.008 40.5034L508.856 39.7868H508.815C508.567 40.1038 508.319 40.3105 508.071 40.4207C507.823 40.531 507.506 40.5861 507.134 40.5861C506.638 40.5861 506.252 40.4621 505.962 40.2002C505.687 39.9384 505.535 39.5801 505.535 39.1116C505.535 38.0918 506.348 37.5682 507.96 37.5131L508.815 37.4855V37.1823C508.815 36.7827 508.732 36.4933 508.567 36.3142C508.401 36.1213 508.126 36.0386 507.754 36.0386C507.34 36.0386 506.858 36.1626 506.334 36.4244L506.1 35.8456C506.348 35.7078 506.624 35.6114 506.913 35.5287C507.203 35.446 507.506 35.4185 507.795 35.4185C508.388 35.4185 508.842 35.5563 509.118 35.8181C509.407 36.0799 509.545 36.5071 509.545 37.0997V40.5172H509.008V40.5034ZM507.299 39.966C507.768 39.966 508.14 39.842 508.415 39.5801C508.691 39.3183 508.815 38.96 508.815 38.4915V38.0367L508.057 38.0643C507.451 38.0918 507.023 38.1745 506.748 38.3399C506.486 38.5053 506.348 38.7671 506.348 39.1116C506.348 39.3872 506.431 39.5939 506.596 39.7317C506.762 39.8971 506.996 39.966 507.299 39.966Z" fill="black"/>
        <path d="M514.366 39.1251C514.366 39.5936 514.187 39.9519 513.842 40.2C513.498 40.448 513.002 40.5858 512.382 40.5858C511.72 40.5858 511.196 40.4756 510.824 40.2689V39.5661C511.059 39.6901 511.32 39.7866 511.596 39.8555C511.872 39.9244 512.133 39.9657 512.395 39.9657C512.795 39.9657 513.098 39.8968 513.305 39.7728C513.511 39.6488 513.622 39.4558 513.622 39.194C513.622 39.0011 513.539 38.8357 513.374 38.6979C513.208 38.5601 512.878 38.3947 512.382 38.2018C511.913 38.0227 511.582 37.8711 511.389 37.7471C511.196 37.623 511.045 37.4715 510.948 37.3061C510.852 37.1407 510.811 36.9478 510.811 36.7135C510.811 36.3001 510.976 35.9832 511.307 35.7489C511.637 35.5146 512.092 35.3906 512.671 35.3906C513.208 35.3906 513.732 35.5009 514.256 35.7214L513.98 36.3415C513.47 36.1348 513.015 36.0245 512.616 36.0245C512.257 36.0245 511.982 36.0796 511.803 36.1899C511.624 36.3001 511.527 36.4517 511.527 36.6584C511.527 36.7962 511.555 36.9065 511.624 37.0029C511.692 37.0994 511.803 37.1821 511.954 37.2785C512.106 37.3612 512.395 37.4852 512.836 37.6506C513.429 37.8711 513.828 38.0916 514.049 38.2983C514.269 38.5188 514.366 38.7944 514.366 39.1251Z" fill="black"/>
        <path d="M517.235 39.9659C517.373 39.9659 517.497 39.9521 517.621 39.9383C517.745 39.9245 517.841 39.897 517.924 39.8832V40.462C517.841 40.5033 517.717 40.5309 517.565 40.5584C517.4 40.586 517.262 40.5998 517.138 40.5998C516.174 40.5998 515.678 40.0899 515.678 39.0701V36.0798H514.961V35.7077L515.678 35.3908L515.994 34.3159H516.435V35.4735H517.896V36.066H516.435V39.015C516.435 39.3182 516.504 39.5525 516.656 39.704C516.78 39.8832 516.973 39.9659 517.235 39.9659Z" fill="black"/>
        <path d="M518.859 34.1232C518.859 33.944 518.901 33.82 518.983 33.7373C519.066 33.6546 519.176 33.6133 519.3 33.6133C519.424 33.6133 519.521 33.6546 519.617 33.7373C519.714 33.82 519.755 33.944 519.755 34.1232C519.755 34.3023 519.714 34.4263 519.617 34.509C519.535 34.5917 519.424 34.633 519.3 34.633C519.176 34.633 519.066 34.5917 518.983 34.509C518.901 34.4263 518.859 34.2885 518.859 34.1232ZM519.672 40.5035H518.914V35.4874H519.672V40.5035Z" fill="black"/>
        <path d="M523.297 40.5859C522.567 40.5859 522.016 40.3654 521.616 39.9107C521.216 39.4697 521.023 38.8358 521.023 38.009C521.023 37.1684 521.23 36.5207 521.63 36.066C522.029 35.6112 522.608 35.377 523.352 35.377C523.587 35.377 523.835 35.4045 524.069 35.4596C524.303 35.5148 524.496 35.5699 524.634 35.6388L524.4 36.2865C524.234 36.2176 524.055 36.1624 523.848 36.1211C523.655 36.0798 523.476 36.0522 523.325 36.0522C522.305 36.0522 521.795 36.6999 521.795 37.9952C521.795 38.6153 521.919 39.0839 522.167 39.4146C522.415 39.7453 522.787 39.9107 523.27 39.9107C523.683 39.9107 524.11 39.8142 524.551 39.6351V40.3103C524.22 40.5032 523.807 40.5859 523.297 40.5859Z" fill="black"/>
        <path d="M528.836 40.5034L528.684 39.7868H528.643C528.395 40.1038 528.147 40.3105 527.899 40.4207C527.651 40.531 527.334 40.5861 526.962 40.5861C526.466 40.5861 526.08 40.4621 525.79 40.2002C525.515 39.9384 525.363 39.5801 525.363 39.1116C525.363 38.0918 526.176 37.5682 527.789 37.5131L528.643 37.4855V37.1823C528.643 36.7827 528.56 36.4933 528.395 36.3142C528.23 36.1213 527.954 36.0386 527.582 36.0386C527.169 36.0386 526.686 36.1626 526.163 36.4244L525.928 35.8456C526.176 35.7078 526.452 35.6114 526.741 35.5287C527.031 35.446 527.334 35.4185 527.623 35.4185C528.216 35.4185 528.671 35.5563 528.946 35.8181C529.236 36.0799 529.373 36.5071 529.373 37.0997V40.5172H528.836V40.5034ZM527.113 39.966C527.582 39.966 527.954 39.842 528.23 39.5801C528.505 39.3183 528.629 38.96 528.629 38.4915V38.0367L527.871 38.0643C527.265 38.0918 526.838 38.1745 526.562 38.3399C526.3 38.5053 526.163 38.7671 526.163 39.1116C526.163 39.3872 526.245 39.5939 526.411 39.7317C526.59 39.8971 526.824 39.966 527.113 39.966Z" fill="black"/>
        <path d="M532.971 40.5859C532.241 40.5859 531.689 40.3654 531.29 39.9107C530.89 39.4697 530.697 38.8358 530.697 38.009C530.697 37.1684 530.904 36.5207 531.304 36.066C531.703 35.6112 532.282 35.377 533.026 35.377C533.26 35.377 533.508 35.4045 533.743 35.4596C533.977 35.5148 534.17 35.5699 534.308 35.6388L534.073 36.2865C533.908 36.2176 533.729 36.1624 533.522 36.1211C533.329 36.0798 533.15 36.0522 532.999 36.0522C531.979 36.0522 531.469 36.6999 531.469 37.9952C531.469 38.6153 531.593 39.0839 531.841 39.4146C532.089 39.7453 532.461 39.9107 532.943 39.9107C533.357 39.9107 533.784 39.8142 534.225 39.6351V40.3103C533.894 40.5032 533.481 40.5859 532.971 40.5859Z" fill="black"/>
        <path d="M538.855 40.5034V37.265C538.855 36.8516 538.759 36.5484 538.579 36.3555C538.386 36.1488 538.097 36.0523 537.711 36.0523C537.188 36.0523 536.802 36.1901 536.554 36.4795C536.306 36.7689 536.195 37.2374 536.195 37.8851V40.5034H535.438V33.3789H536.195V35.5286C536.195 35.7905 536.182 35.9972 536.154 36.1763H536.195C536.347 35.9421 536.554 35.7491 536.829 35.6113C537.105 35.4735 537.422 35.4046 537.78 35.4046C538.386 35.4046 538.855 35.5562 539.158 35.8456C539.461 36.135 539.613 36.6035 539.613 37.2374V40.5034H538.855Z" fill="black"/>
        <path d="M543.292 40.5858C542.548 40.5858 541.969 40.3653 541.542 39.9106C541.115 39.4558 540.895 38.8357 540.895 38.0365C540.895 37.2234 541.087 36.5895 541.487 36.1072C541.887 35.6249 542.424 35.3906 543.086 35.3906C543.72 35.3906 544.216 35.5973 544.574 36.0107C544.946 36.4242 545.125 36.9754 545.125 37.6506V38.1329H541.666C541.68 38.7255 541.832 39.1664 542.107 39.4696C542.383 39.7728 542.782 39.9244 543.306 39.9244C543.844 39.9244 544.381 39.8141 544.905 39.5799V40.2551C544.643 40.3653 544.381 40.448 544.147 40.5031C543.926 40.5583 543.637 40.5858 543.292 40.5858ZM543.086 36.0245C542.686 36.0245 542.355 36.1623 542.121 36.4242C541.887 36.686 541.735 37.0443 541.694 37.5128H544.312C544.312 37.0305 544.202 36.6722 543.995 36.4104C543.788 36.1485 543.485 36.0245 543.086 36.0245Z" fill="black"/>
    </g>
    <defs>
        <linearGradient id="paint0_linear_8130_78966" x1="311.85" y1="22.9162" x2="331.725" y2="22.9162" gradientUnits="userSpaceOnUse">
            <stop stop-color="#D25535"/>
            <stop offset="1" stop-color="#E08B20"/>
        </linearGradient>
        <linearGradient id="paint1_linear_8130_78966" x1="325.86" y1="24.3073" x2="341.173" y2="24.3073" gradientUnits="userSpaceOnUse">
            <stop stop-color="#D25535"/>
            <stop offset="1" stop-color="#E08B20"/>
        </linearGradient>
        <linearGradient id="paint2_linear_8130_78966" x1="325.86" y1="26.0864" x2="341.173" y2="26.0864" gradientUnits="userSpaceOnUse">
            <stop stop-color="#D25535"/>
            <stop offset="1" stop-color="#E08B20"/>
        </linearGradient>
        <linearGradient id="paint3_linear_8130_78966" x1="325.86" y1="26.0866" x2="341.173" y2="26.0866" gradientUnits="userSpaceOnUse">
            <stop stop-color="#D25535"/>
            <stop offset="1" stop-color="#E08B20"/>
        </linearGradient>
        <clipPath id="clip0_8130_78966">
            <rect width="68.9018" height="28.999" fill="white" transform="translate(12.1074 16.5225)"/>
        </clipPath>
        <clipPath id="clip1_8130_78966">
            <rect width="68.9018" height="26.8652" fill="white" transform="translate(104.934 17.5894)"/>
        </clipPath>
        <clipPath id="clip2_8130_78966">
            <rect width="68.9018" height="27.4521" fill="white" transform="translate(197.758 17.2959)"/>
        </clipPath>
        <clipPath id="clip3_8130_78966">
            <rect width="41.5396" height="45.9345" fill="white" transform="translate(304.266 8.05469)"/>
        </clipPath>
        <clipPath id="clip4_8130_78966">
            <rect width="68.9018" height="28.9895" fill="white" transform="translate(383.41 16.5273)"/>
        </clipPath>
        <clipPath id="clip5_8130_78966">
            <rect width="68.9018" height="21.8557" fill="white" transform="translate(476.236 20.0942)"/>
        </clipPath>
    </defs>
</svg>
