<svg width="651" height="63" viewBox="0 0 651 63" fill="none" xmlns="http://www.w3.org/2000/svg">
    <rect width="91.8691" height="61.2461" transform="translate(0.623047 0.0385742)" fill="white"/>
    <g clip-path="url(#clip0_8130_79132)">
        <path d="M24.1295 53.5404H23.1714L22.699 52.1985H20.6297L20.1735 53.5404H19.2207L21.1907 48.2773H22.173L24.1295 53.5404ZM22.4682 51.4899L21.7382 49.3912C21.7074 49.2828 21.6841 49.1725 21.6684 49.061H21.6523C21.6368 49.1728 21.6125 49.2832 21.5798 49.3912L20.8579 51.4899H22.4682Z" fill="#465154"/>
        <path d="M27.7209 50.1397L25.6919 52.8772H27.7128V53.5401H24.4922V53.2208L26.5641 50.4456H24.6854V49.7827H27.7209V50.1397Z" fill="#465154"/>
        <path d="M31.6661 53.5406H30.8153V52.9475H30.8019C30.6966 53.1604 30.5318 53.3382 30.3274 53.4592C30.123 53.5802 29.8878 53.6393 29.6505 53.6292C28.7559 53.6292 28.3086 53.0924 28.3086 52.0189V49.7725H29.1594V51.9196C29.1594 52.5941 29.4197 52.9314 29.9404 52.9314C30.0576 52.9357 30.1743 52.9139 30.282 52.8675C30.3897 52.8211 30.4857 52.7512 30.563 52.663C30.7319 52.4582 30.8189 52.1981 30.8073 51.933V49.7725H31.6581L31.6661 53.5406Z" fill="#465154"/>
        <path d="M34.8512 50.5931C34.7211 50.5046 34.5653 50.4621 34.4083 50.4723C34.2833 50.4728 34.1603 50.5042 34.0502 50.5637C33.9402 50.6231 33.8466 50.7088 33.7776 50.8132C33.5957 51.0874 33.5072 51.4132 33.5253 51.7418V53.54H32.6719V49.7826H33.5227V50.5555H33.5361C33.6032 50.3177 33.7363 50.1037 33.9199 49.9382C34.0782 49.7953 34.2837 49.716 34.4969 49.7155C34.6181 49.7087 34.7391 49.7327 34.8485 49.7853L34.8512 50.5931Z" fill="#465154"/>
        <path d="M38.6213 51.8926H36.0609C36.0556 52.0418 36.0815 52.1905 36.137 52.3291C36.1924 52.4677 36.2762 52.5933 36.3829 52.6977C36.6171 52.8965 36.919 52.9975 37.2257 52.9795C37.6232 52.9811 38.0108 52.855 38.3314 52.6199V53.307C37.918 53.5397 37.4473 53.6514 36.9734 53.629C36.7323 53.6421 36.4913 53.6031 36.2666 53.5146C36.042 53.4262 35.8391 53.2904 35.6717 53.1164C35.3356 52.7142 35.1665 52.1983 35.1993 51.6752C35.177 51.1487 35.3632 50.6348 35.7173 50.2447C35.8807 50.0658 36.0803 49.9239 36.303 49.8286C36.5256 49.7332 36.7661 49.6866 37.0083 49.6918C37.2315 49.6793 37.4546 49.7174 37.661 49.8034C37.8674 49.8894 38.0516 50.021 38.1999 50.1883C38.5017 50.5814 38.6514 51.0704 38.6213 51.5651V51.8926ZM37.8 51.2914C37.8131 51.0353 37.7362 50.7827 37.5826 50.5775C37.5121 50.4903 37.4223 50.4207 37.3203 50.3741C37.2183 50.3276 37.1069 50.3053 36.9948 50.3091C36.878 50.3072 36.7621 50.3302 36.6547 50.3765C36.5474 50.4227 36.4511 50.4912 36.3722 50.5775C36.1951 50.7712 36.085 51.0168 36.0582 51.2779L37.8 51.2914Z" fill="#465154"/>
        <path d="M41.5957 53.5402V48.2798H43.1067C45.0463 48.2798 46.016 49.135 46.016 50.8456C46.0311 51.2105 45.967 51.5744 45.828 51.9121C45.689 52.2499 45.4785 52.5535 45.2109 52.8021C44.6104 53.317 43.8349 53.5813 43.045 53.5402H41.5957ZM42.4653 49.0259V52.8102H43.1631C43.4238 52.826 43.685 52.7892 43.9312 52.7021C44.1774 52.6149 44.4036 52.4792 44.5963 52.3029C44.7744 52.1118 44.9116 51.8863 44.9998 51.6404C45.0879 51.3945 45.125 51.1332 45.1089 50.8724C45.1089 49.6414 44.4719 49.0259 43.198 49.0259H42.4653Z" fill="#465154"/>
        <path d="M49.6786 53.5404H48.852V52.9526H48.8386C48.7317 53.1616 48.5679 53.336 48.366 53.4557C48.1641 53.5754 47.9325 53.6354 47.6979 53.629C47.3806 53.6473 47.0689 53.5392 46.831 53.3284C46.7247 53.224 46.6417 53.0983 46.5875 52.9595C46.5334 52.8207 46.5094 52.672 46.517 52.5232C46.517 51.8075 46.9259 51.3942 47.7435 51.2832L48.86 51.1249C48.86 50.5881 48.606 50.3197 48.0978 50.3197C47.6513 50.3194 47.2203 50.4838 46.8874 50.7814V50.0352C47.304 49.7954 47.7782 49.6738 48.2589 49.6837C49.2072 49.6837 49.6813 50.1507 49.6813 51.0846L49.6786 53.5404ZM48.8574 51.6939L48.0683 51.8039C47.8727 51.8188 47.6833 51.8795 47.5154 51.9811C47.4493 52.0359 47.3978 52.1063 47.3655 52.1859C47.3332 52.2655 47.3211 52.3519 47.3302 52.4373C47.328 52.5113 47.3423 52.5848 47.372 52.6526C47.4017 52.7203 47.4461 52.7807 47.502 52.8292C47.6294 52.9357 47.7923 52.9904 47.9583 52.9821C48.0786 52.986 48.1983 52.964 48.3094 52.9177C48.4205 52.8715 48.5204 52.8019 48.6024 52.7138C48.7789 52.5291 48.8754 52.2821 48.8708 52.0267L48.8574 51.6939Z" fill="#465154"/>
        <path d="M52.6103 53.4999C52.4035 53.5909 52.1785 53.6331 51.9528 53.6234C51.2246 53.6234 50.8604 53.2736 50.8604 52.574V50.4484H50.2324V49.7801H50.8604V48.9105L51.7112 48.6689V49.7801H52.6103V50.4484H51.7112V52.3271C51.6958 52.4954 51.7384 52.664 51.832 52.8048C51.8845 52.8567 51.9478 52.8963 52.0174 52.9209C52.087 52.9455 52.1612 52.9544 52.2346 52.947C52.3695 52.9501 52.5013 52.9065 52.6077 52.8236L52.6103 53.4999Z" fill="#465154"/>
        <path d="M56.2587 53.5404H55.4535V52.9526H55.4401C55.3333 53.1616 55.1694 53.336 54.9676 53.4557C54.7657 53.5754 54.5341 53.6354 54.2995 53.629C53.9821 53.6473 53.6705 53.5392 53.4326 53.3284C53.3262 53.224 53.2432 53.0983 53.1891 52.9595C53.135 52.8207 53.1109 52.672 53.1186 52.5232C53.1186 51.8075 53.5274 51.3942 54.3451 51.2832L55.4616 51.1249C55.4616 50.5881 55.2075 50.3197 54.6994 50.3197C54.2528 50.3194 53.8219 50.4838 53.489 50.7814V50.0352C53.9056 49.7954 54.3798 49.6738 54.8604 49.6837C55.8087 49.6837 56.2829 50.1507 56.2829 51.0846L56.2587 53.5404ZM55.4535 51.6939L54.6645 51.8039C54.4691 51.8179 54.2797 51.8776 54.1116 51.9784C54.0455 52.0332 53.994 52.1036 53.9617 52.1832C53.9294 52.2628 53.9172 52.3492 53.9264 52.4346C53.9242 52.5086 53.9385 52.5821 53.9682 52.6499C53.9979 52.7177 54.0423 52.778 54.0982 52.8265C54.2256 52.9331 54.3885 52.9877 54.5544 52.9795C54.6748 52.9833 54.7945 52.9614 54.9056 52.9151C55.0167 52.8688 55.1166 52.7992 55.1986 52.7111C55.3751 52.5264 55.4716 52.2794 55.467 52.024L55.4535 51.6939Z" fill="#465154"/>
        <path d="M62.3825 53.5402H59.4785V48.2798H60.3508V52.8048H62.3905L62.3825 53.5402Z" fill="#465154"/>
        <path d="M66.0126 53.5404H65.186V52.9526H65.1726C65.0657 53.1616 64.9019 53.336 64.7 53.4557C64.4981 53.5754 64.2665 53.6354 64.0319 53.629C63.7146 53.6473 63.4029 53.5392 63.165 53.3284C63.0586 53.224 62.9756 53.0983 62.9215 52.9595C62.8674 52.8207 62.8433 52.672 62.851 52.5232C62.851 51.8075 63.2598 51.3942 64.0775 51.2832L65.194 51.1249C65.194 50.5881 64.9399 50.3197 64.4318 50.3197C63.9853 50.3194 63.5543 50.4838 63.2214 50.7814V50.0352C63.638 49.7954 64.1122 49.6738 64.5928 49.6837C65.5411 49.6837 66.0153 50.1507 66.0153 51.0846L66.0126 53.5404ZM65.1913 51.6939L64.4023 51.8039C64.2066 51.8187 64.0172 51.8794 63.8494 51.9811C63.7833 52.0359 63.7318 52.1063 63.6995 52.1859C63.6672 52.2655 63.655 52.3519 63.6642 52.4373C63.662 52.5113 63.6763 52.5848 63.706 52.6526C63.7357 52.7203 63.7801 52.7807 63.836 52.8292C63.9634 52.9357 64.1263 52.9904 64.2922 52.9821C64.4125 52.986 64.5323 52.964 64.6434 52.9177C64.7545 52.8715 64.8544 52.8019 64.9364 52.7138C65.1129 52.5291 65.2094 52.2821 65.2048 52.0267L65.1913 51.6939Z" fill="#465154"/>
        <path d="M70.3875 53.5402H69.314L67.854 51.734H67.8405V53.5402H66.9844V47.9766H67.8405V51.5032H67.854L69.2335 49.7828H70.256L68.7047 51.5944L70.3875 53.5402Z" fill="#465154"/>
        <path d="M73.8928 51.8926H71.3323C71.3271 52.0418 71.353 52.1905 71.4085 52.3291C71.4639 52.4677 71.5477 52.5933 71.6544 52.6977C71.8886 52.8965 72.1904 52.9975 72.4971 52.9795C72.8947 52.9811 73.2823 52.855 73.6029 52.6199V53.307C73.1895 53.5399 72.7188 53.6515 72.2449 53.629C72.0038 53.6421 71.7627 53.6031 71.5381 53.5146C71.3135 53.4262 71.1106 53.2904 70.9432 53.1164C70.6071 52.7142 70.438 52.1983 70.4708 51.6752C70.4485 51.1487 70.6346 50.6348 70.9888 50.2447C71.1521 50.0658 71.3518 49.9239 71.5745 49.8286C71.7971 49.7332 72.0376 49.6866 72.2797 49.6918C72.503 49.6793 72.7261 49.7174 72.9325 49.8034C73.1389 49.8894 73.3231 50.021 73.4714 50.1883C73.7732 50.5814 73.9229 51.0704 73.8928 51.5651V51.8926ZM73.0715 51.2914C73.0846 51.0353 73.0077 50.7827 72.8541 50.5775C72.7837 50.4901 72.6939 50.4204 72.5919 50.3738C72.4899 50.3273 72.3784 50.3051 72.2663 50.3091C72.1495 50.3072 72.0335 50.3302 71.9262 50.3765C71.8189 50.4227 71.7226 50.4912 71.6437 50.5775C71.4666 50.7712 71.3565 51.0168 71.3297 51.2779L73.0715 51.2914Z" fill="#465154"/>
        <path d="M65.4459 11.2854H48.1671C47.9825 11.2912 47.8015 11.2334 47.6545 11.1216L42.7108 7.8339C42.5555 7.74218 42.3784 7.69397 42.1981 7.69434H27.6703C27.4267 7.69426 27.1928 7.78934 27.0183 7.9593C26.8438 8.12927 26.7426 8.36067 26.7363 8.60417V39.1494C26.7426 39.3929 26.8438 39.6243 27.0183 39.7942C27.1928 39.9642 27.4267 40.0593 27.6703 40.0592H65.4459C65.6895 40.0593 65.9234 39.9642 66.0979 39.7942C66.2724 39.6243 66.3736 39.3929 66.3799 39.1494V12.2194C66.3799 11.9716 66.2815 11.7341 66.1063 11.5589C65.9311 11.3838 65.6936 11.2854 65.4459 11.2854Z" fill="#005BA1"/>
        <path d="M38.9802 9.46582H30.7246C30.5186 9.46582 30.3516 9.63284 30.3516 9.83888V10.8883C30.3516 11.0943 30.5186 11.2613 30.7246 11.2613H38.9802C39.1863 11.2613 39.3533 11.0943 39.3533 10.8883V9.83888C39.3533 9.63284 39.1863 9.46582 38.9802 9.46582Z" fill="white"/>
        <path d="M31.8894 9.46582H30.6092C30.4669 9.46582 30.3516 9.58118 30.3516 9.72347V11.0037C30.3516 11.146 30.4669 11.2613 30.6092 11.2613H31.8894C32.0317 11.2613 32.1471 11.146 32.1471 11.0037V9.72347C32.1471 9.58118 32.0317 9.46582 31.8894 9.46582Z" fill="#1AC3F2"/>
        <path d="M65.4459 11.24H46.5568C46.4351 11.2348 46.3137 11.2561 46.2011 11.3025C46.0885 11.3488 45.9873 11.4191 45.9046 11.5084L42.7564 14.5492C42.5786 14.7146 42.3469 14.81 42.1042 14.8176H27.6703C27.4235 14.8176 27.1868 14.9153 27.0118 15.0893C26.8368 15.2633 26.7377 15.4995 26.7363 15.7463V39.0638C26.7426 39.3073 26.8438 39.5387 27.0183 39.7086C27.1928 39.8786 27.4267 39.9737 27.6703 39.9736H65.4459C65.6894 39.9737 65.9234 39.8786 66.0979 39.7086C66.2724 39.5387 66.3736 39.3073 66.3799 39.0638V12.225C66.3915 11.9781 66.3049 11.7367 66.1389 11.5535C65.9729 11.3704 65.741 11.2606 65.4942 11.2481L65.4459 11.24Z" fill="url(#paint0_linear_8130_79132)"/>
        <path d="M49.3088 16.1833C49.2473 16.1661 49.1823 16.1661 49.1209 16.1833C49.0609 16.1842 49.002 16.1995 48.9492 16.228C48.8964 16.2565 48.8513 16.2973 48.8176 16.347L41.4504 27.0476C41.4176 27.1043 41.4004 27.1687 41.4004 27.2342C41.4004 27.2996 41.4176 27.364 41.4504 27.4207C41.4847 27.4854 41.5345 27.5407 41.5954 27.5814C41.6563 27.6222 41.7263 27.6472 41.7993 27.6542H46.1606L44.2255 34.1357C44.2075 34.1713 44.1966 34.2101 44.1936 34.2499C44.1906 34.2897 44.1955 34.3297 44.208 34.3676C44.2204 34.4055 44.2402 34.4405 44.2663 34.4707C44.2923 34.501 44.3241 34.5258 44.3597 34.5437H44.3892C44.442 34.5634 44.5001 34.5634 44.5529 34.5437C44.6147 34.5563 44.6789 34.5469 44.7343 34.5169C44.7898 34.487 44.8329 34.4385 44.8562 34.38L52.4569 23.5291V23.2956C52.4508 23.1945 52.4062 23.0995 52.3324 23.0302C52.2586 22.9608 52.161 22.9223 52.0597 22.9225H47.4005L49.2792 16.551C49.3239 16.5015 49.351 16.4386 49.3563 16.3721C49.3617 16.3057 49.3449 16.2393 49.3088 16.1833Z" fill="white"/>
    </g>
    <rect width="91.8691" height="61.2461" transform="translate(93.4492 0.0385742)" fill="white"/>
    <g clip-path="url(#clip1_8130_79132)">
        <path d="M146.218 7.69434H132.591L125.777 19.5608L132.591 31.5037H146.218L152.981 19.5608L146.218 7.69434Z" fill="#0078D7"/>
        <path d="M137.466 21.0151C136.649 21.0151 136.088 21.7552 136.088 23.0822C136.088 24.3837 136.598 25.1492 137.389 25.1492C138.257 25.1492 138.767 24.4092 138.767 23.0822C138.793 21.7552 138.232 21.0151 137.466 21.0151ZM137.415 24.6389C136.905 24.6389 136.598 24.0774 136.598 23.0822C136.598 22.0104 136.981 21.449 137.415 21.449C137.925 21.449 138.232 22.0104 138.232 23.0056C138.232 24.0009 137.849 24.6389 137.415 24.6389Z" fill="white"/>
        <path d="M140.913 19.2031C141.78 19.2031 142.291 18.463 142.291 17.136C142.291 15.8856 141.78 15.1455 140.989 15.1455C140.173 15.1455 139.611 15.8856 139.611 17.2126C139.611 18.4375 140.173 19.2031 140.913 19.2031ZM140.173 17.136C140.173 16.0642 140.556 15.5028 140.989 15.5028C141.5 15.5028 141.806 16.0642 141.806 17.0594C141.806 18.0547 141.5 18.6927 140.989 18.6927C140.479 18.6927 140.173 18.2078 140.173 17.136Z" fill="white"/>
        <path d="M138.105 15.0181H137.594L136.293 15.7071L136.548 16.1919L137.467 15.6305V18.6418H136.421V19.2032H138.972V18.6418H138.105V15.0181Z" fill="white"/>
        <path d="M141.347 24.3327V20.709H140.862L139.535 21.3214L139.714 21.8318L140.735 21.2704V24.3327H139.663V24.8176H142.291V24.3327H141.347Z" fill="white"/>
        <path d="M143.362 12.8745H134.226C133.231 12.8745 132.414 13.6911 132.363 14.6864V25.2513C132.363 26.2466 133.18 27.0632 134.226 27.0632H144.357C145.353 27.0632 146.169 26.2466 146.22 25.2513V15.7071L143.362 12.8745ZM145.353 25.4555C145.353 25.9659 144.919 26.3231 144.485 26.3231H134.099C133.588 26.3231 133.282 25.9403 133.231 25.5065V25.4555V14.6353C133.231 14.125 133.614 13.8187 134.048 13.7677H134.099H143.158V16.3196H145.353V25.4555Z" fill="white"/>
        <path d="M124.556 41.9155H123.51L122.999 40.4609H120.754L120.269 41.9155H119.223L121.366 36.1992H122.438L124.556 41.9155ZM122.77 39.6698L121.979 37.3986C121.953 37.3221 121.928 37.1945 121.902 37.0414H121.877C121.851 37.1945 121.826 37.3221 121.8 37.3986L121.009 39.6698H122.77Z" fill="#606060"/>
        <path d="M128.258 38.2153L126.063 41.2011H128.258V41.9156H124.762V41.5583L127.007 38.5471H124.966V37.8325H128.258V38.2153Z" fill="#606060"/>
        <path d="M132.595 41.9156H131.676V41.2776H131.65C131.37 41.7625 130.961 42.0177 130.4 42.0177C129.43 42.0177 128.945 41.4307 128.945 40.2824V37.8325H129.864V40.1803C129.864 40.9203 130.145 41.2776 130.706 41.2776C130.987 41.2776 131.217 41.1755 131.37 40.9714C131.548 40.7672 131.625 40.512 131.625 40.1803V37.8325H132.544V41.9156H132.595Z" fill="#606060"/>
        <path d="M136.168 38.7003C136.066 38.6237 135.887 38.5727 135.683 38.5727C135.403 38.5727 135.173 38.7003 134.994 38.9555C134.816 39.2107 134.714 39.5424 134.714 39.9763V41.9412H133.795V37.8582H134.714V38.7003H134.739C134.841 38.4196 134.969 38.1899 135.147 38.0368C135.326 37.8837 135.556 37.8071 135.785 37.8071C135.964 37.8071 136.092 37.8326 136.168 37.8837V38.7003Z" fill="#606060"/>
        <path d="M140.226 40.1293H137.444C137.444 40.5121 137.572 40.7928 137.801 40.9969C138.031 41.2011 138.337 41.3032 138.72 41.3032C139.154 41.3032 139.562 41.1756 139.919 40.9204V41.6604C139.537 41.8901 139.052 42.0177 138.439 42.0177C137.827 42.0177 137.368 41.8391 137.036 41.4563C136.704 41.0735 136.525 40.5631 136.525 39.8996C136.525 39.2616 136.704 38.7512 137.087 38.3429C137.47 37.9346 137.929 37.7305 138.49 37.7305C139.052 37.7305 139.486 37.9091 139.792 38.2664C140.098 38.6236 140.251 39.134 140.251 39.772V40.1293H140.226ZM139.333 39.4658C139.333 39.134 139.256 38.8788 139.103 38.7002C138.95 38.5216 138.746 38.4195 138.465 38.4195C138.21 38.4195 137.98 38.5216 137.801 38.7002C137.623 38.9044 137.495 39.1595 137.47 39.4658H139.333Z" fill="#606060"/>
        <path d="M143.439 41.9155V36.1992H145.251C145.813 36.1992 146.247 36.3268 146.553 36.5565C146.885 36.7862 147.038 37.1179 147.038 37.5007C147.038 37.8324 146.936 38.1132 146.757 38.3428C146.578 38.5725 146.323 38.7511 145.991 38.8532V38.8787C146.374 38.9298 146.706 39.0574 146.936 39.3126C147.165 39.5678 147.293 39.874 147.293 40.2823C147.293 40.7672 147.089 41.1755 146.706 41.4817C146.323 41.7879 145.838 41.941 145.251 41.941H143.439V41.9155ZM144.384 36.9393V38.5725H144.996C145.328 38.5725 145.583 38.4959 145.762 38.3428C145.94 38.1897 146.042 37.96 146.042 37.6793C146.042 37.1945 145.711 36.9393 145.073 36.9393H144.384ZM144.384 39.3381V41.1499H145.2C145.558 41.1499 145.838 41.0734 146.017 40.8948C146.221 40.7416 146.298 40.512 146.298 40.2313C146.298 39.6443 145.889 39.3381 145.073 39.3381H144.384Z" fill="#606060"/>
        <path d="M149.208 41.9157H148.289V35.8677H149.208V41.9157Z" fill="#606060"/>
        <path d="M152.219 41.9922C151.581 41.9922 151.097 41.8135 150.714 41.4308C150.331 41.048 150.152 40.5376 150.152 39.9251C150.152 39.2361 150.356 38.7002 150.739 38.3174C151.122 37.9346 151.658 37.7305 152.321 37.7305C152.959 37.7305 153.444 37.9091 153.802 38.2919C154.159 38.6747 154.337 39.1851 154.337 39.8486C154.337 40.5121 154.133 41.0224 153.751 41.4052C153.393 41.8135 152.857 41.9922 152.219 41.9922ZM152.27 38.4705C151.913 38.4705 151.632 38.5981 151.403 38.8533C151.199 39.1085 151.097 39.4658 151.097 39.8996C151.097 40.3334 151.199 40.6652 151.428 40.9204C151.632 41.1756 151.913 41.2776 152.27 41.2776C152.628 41.2776 152.908 41.15 153.113 40.9204C153.317 40.6907 153.393 40.3334 153.393 39.8996C153.393 39.4403 153.291 39.1085 153.113 38.8533C152.908 38.5981 152.628 38.4705 152.27 38.4705Z" fill="#606060"/>
        <path d="M156.225 41.3288L156.2 41.9157H155.281V35.8677H156.2V38.5472H156.225C156.532 38.0113 157.017 37.7306 157.603 37.7306C158.114 37.7306 158.522 37.9092 158.803 38.2665C159.084 38.6237 159.237 39.1341 159.237 39.7466C159.237 40.4356 159.084 40.9715 158.752 41.3798C158.42 41.7881 157.986 41.9923 157.399 41.9923C156.889 41.9923 156.506 41.7626 156.225 41.3288ZM156.2 39.6956V40.2059C156.2 40.5122 156.302 40.7674 156.481 40.9715C156.659 41.1757 156.914 41.2777 157.195 41.2777C157.527 41.2777 157.808 41.1501 158.012 40.8694C158.216 40.5887 158.293 40.2315 158.293 39.7466C158.293 39.3383 158.19 39.0321 158.012 38.8024C157.833 38.5727 157.578 38.4706 157.272 38.4706C156.94 38.4706 156.685 38.5982 156.481 38.8279C156.302 39.0576 156.2 39.3383 156.2 39.6956Z" fill="#606060"/>
        <path d="M125.551 51.4852V50.5155C125.627 50.592 125.755 50.6686 125.857 50.7196C125.985 50.7962 126.112 50.8472 126.24 50.8727C126.367 50.8982 126.521 50.9493 126.648 50.9748C126.776 51.0003 126.903 51.0003 127.031 51.0003C127.439 51.0003 127.72 50.9238 127.924 50.7962C128.128 50.6686 128.205 50.4644 128.205 50.2092C128.205 50.0816 128.179 49.954 128.103 49.852C128.026 49.7499 127.95 49.6733 127.822 49.5712C127.694 49.4947 127.567 49.4181 127.414 49.3416C127.261 49.265 127.082 49.1885 126.903 49.1119C126.699 49.0098 126.521 48.9078 126.367 48.8057C126.189 48.7036 126.061 48.576 125.934 48.4484C125.806 48.3208 125.704 48.1677 125.653 48.0146C125.576 47.8615 125.551 47.6573 125.551 47.4532C125.551 47.1724 125.602 46.9428 125.729 46.7641C125.857 46.56 126.01 46.4069 126.214 46.2793C126.418 46.1517 126.648 46.0496 126.878 45.9986C127.133 45.9475 127.388 45.8965 127.643 45.8965C128.23 45.8965 128.69 45.973 128.945 46.1006V47.0448C128.613 46.8152 128.205 46.6876 127.694 46.6876C127.541 46.6876 127.414 46.7131 127.286 46.7386C127.158 46.7641 127.031 46.8152 126.903 46.8662C126.801 46.9173 126.699 46.9938 126.623 47.0959C126.546 47.198 126.521 47.3 126.521 47.4532C126.521 47.5808 126.546 47.6828 126.597 47.7849C126.648 47.887 126.725 47.9635 126.827 48.0401C126.929 48.1167 127.056 48.1932 127.21 48.2698C127.363 48.3463 127.516 48.4229 127.72 48.4994C127.924 48.6015 128.103 48.7036 128.281 48.8312C128.46 48.9333 128.613 49.0609 128.741 49.214C128.868 49.3416 128.97 49.4947 129.072 49.6733C129.149 49.852 129.2 50.0306 129.2 50.2603C129.2 50.541 129.149 50.7962 129.021 51.0003C128.894 51.2045 128.741 51.3576 128.537 51.4852C128.332 51.6128 128.103 51.6893 127.848 51.7659C127.592 51.8169 127.312 51.8425 127.031 51.8425C126.929 51.8425 126.827 51.8425 126.674 51.8169C126.546 51.7914 126.393 51.7914 126.24 51.7404C126.087 51.7149 125.959 51.6893 125.831 51.6383C125.755 51.5873 125.627 51.5362 125.551 51.4852Z" fill="#606060"/>
        <path d="M132.085 51.6641C131.907 51.7661 131.677 51.7916 131.371 51.7916C130.58 51.7916 130.171 51.4089 130.171 50.6433V48.3466H129.482V47.632H130.171V46.6878L131.09 46.4326V47.632H132.06V48.3466H131.09V50.3881C131.09 50.6178 131.141 50.7964 131.218 50.8985C131.294 51.0006 131.447 51.0516 131.652 51.0516C131.805 51.0516 131.932 51.0005 132.06 50.924V51.6641H132.085Z" fill="#606060"/>
        <path d="M134.637 51.792C133.999 51.792 133.515 51.6133 133.132 51.2306C132.749 50.8478 132.57 50.3374 132.57 49.7249C132.57 49.0359 132.774 48.5 133.157 48.1172C133.54 47.7344 134.076 47.5303 134.739 47.5303C135.377 47.5303 135.862 47.7089 136.22 48.0917C136.577 48.4745 136.755 48.9849 136.755 49.6484C136.755 50.3119 136.551 50.8222 136.169 51.205C135.811 51.6133 135.301 51.792 134.637 51.792ZM134.688 48.2703C134.331 48.2703 134.05 48.3979 133.821 48.6531C133.617 48.9083 133.515 49.2656 133.515 49.6994C133.515 50.1332 133.617 50.465 133.846 50.7202C134.05 50.9754 134.331 51.0774 134.688 51.0774C135.046 51.0774 135.326 50.9498 135.531 50.7202C135.735 50.4905 135.811 50.1332 135.811 49.6994C135.811 49.2401 135.709 48.9083 135.531 48.6531C135.326 48.3979 135.046 48.2703 134.688 48.2703Z" fill="#606060"/>
        <path d="M140.073 48.4996C139.97 48.4231 139.792 48.372 139.588 48.372C139.307 48.372 139.077 48.4996 138.899 48.7548C138.72 49.01 138.618 49.3417 138.618 49.7756V51.7406H137.699V47.6575H138.618V48.4996H138.643C138.746 48.2189 138.873 47.9892 139.052 47.8361C139.23 47.683 139.46 47.6064 139.69 47.6064C139.868 47.6064 139.996 47.632 140.073 47.683V48.4996Z" fill="#606060"/>
        <path d="M143.875 51.7154H142.956V51.0774C142.675 51.5623 142.267 51.8175 141.706 51.8175C141.297 51.8175 140.991 51.7154 140.761 51.4857C140.532 51.2561 140.43 50.9754 140.43 50.6181C140.43 49.8525 140.864 49.3932 141.757 49.2656L142.982 49.0869C142.982 48.5 142.701 48.2193 142.139 48.2193C141.655 48.2193 141.221 48.3979 140.812 48.7297V47.9131C141.246 47.6579 141.731 47.5303 142.293 47.5303C143.313 47.5303 143.849 48.0407 143.849 49.0614V51.7154H143.875ZM142.982 49.6994L142.114 49.827C141.859 49.8525 141.655 49.9291 141.501 50.0312C141.374 50.1332 141.297 50.2863 141.297 50.516C141.297 50.6947 141.348 50.8222 141.476 50.9498C141.604 51.0519 141.757 51.103 141.961 51.103C142.242 51.103 142.471 51.0009 142.65 50.7967C142.828 50.5926 142.931 50.3374 142.931 50.0567V49.6994H142.982Z" fill="#606060"/>
        <path d="M148.698 51.3835C148.698 52.8892 147.932 53.6292 146.427 53.6292C145.891 53.6292 145.431 53.5527 145.023 53.374V52.5319C145.482 52.7871 145.891 52.9147 146.299 52.9147C147.269 52.9147 147.754 52.4298 147.754 51.4856V51.0263H147.728C147.422 51.5367 146.963 51.8174 146.35 51.8174C145.865 51.8174 145.457 51.6387 145.151 51.2815C144.845 50.9242 144.691 50.4393 144.691 49.8269C144.691 49.1379 144.845 48.5764 145.176 48.1681C145.508 47.7598 145.942 47.5557 146.529 47.5557C147.065 47.5557 147.473 47.7853 147.728 48.2192H147.754V47.6577H148.672V51.3835H148.698ZM147.805 49.8269V49.291C147.805 49.0103 147.703 48.7551 147.524 48.5509C147.345 48.3468 147.09 48.2447 146.809 48.2447C146.452 48.2447 146.172 48.3723 145.993 48.6275C145.789 48.8827 145.687 49.2399 145.687 49.7248C145.687 50.1331 145.789 50.4393 145.967 50.6945C146.146 50.9242 146.401 51.0518 146.733 51.0518C147.065 51.0518 147.32 50.9242 147.499 50.6945C147.703 50.4904 147.805 50.1841 147.805 49.8269Z" fill="#606060"/>
        <path d="M153.366 49.9291H150.585C150.585 50.3119 150.712 50.5926 150.942 50.7967C151.172 51.0009 151.478 51.103 151.861 51.103C152.294 51.103 152.703 50.9754 153.06 50.7202V51.4602C152.677 51.6899 152.192 51.8175 151.58 51.8175C150.967 51.8175 150.508 51.6389 150.176 51.2561C149.845 50.8733 149.666 50.3629 149.666 49.6994C149.666 49.0614 149.845 48.551 150.227 48.1427C150.61 47.7344 151.07 47.5303 151.631 47.5303C152.192 47.5303 152.626 47.7089 152.932 48.0662C153.239 48.4234 153.392 48.9338 153.392 49.5718V49.9291H153.366ZM152.473 49.2656C152.473 48.9338 152.397 48.6786 152.243 48.5C152.09 48.3214 151.886 48.2193 151.605 48.2193C151.35 48.2193 151.121 48.3214 150.942 48.5C150.763 48.7042 150.636 48.9593 150.61 49.2656H152.473Z" fill="#606060"/>
    </g>
    <rect width="91.8691" height="61.2461" transform="translate(186.275 0.0385742)" fill="white"/>
    <g clip-path="url(#clip2_8130_79132)">
        <path d="M208.467 53.5471H207.556L207.107 52.2709H205.139L204.705 53.5471H203.799L205.672 48.5317H206.606L208.467 53.5471ZM206.887 51.5946L206.193 49.5986C206.164 49.4998 206.142 49.3992 206.127 49.2974H206.111C206.097 49.4037 206.074 49.5087 206.042 49.6114L205.356 51.5946H206.887Z" fill="#465154"/>
        <path d="M211.883 50.3185L209.953 52.9219H211.875V53.5523H208.812V53.2486L210.783 50.6094H208.996V49.979H211.883V50.3185Z" fill="#465154"/>
        <path d="M215.633 53.5471H214.824V52.9831H214.811C214.712 53.1869 214.555 53.3573 214.36 53.4733C214.165 53.5894 213.94 53.6461 213.714 53.6365C212.863 53.6365 212.438 53.126 212.438 52.1051V49.9688H213.247V52.0106C213.247 52.6521 213.494 52.9729 213.989 52.9729C214.101 52.977 214.212 52.9562 214.314 52.9121C214.417 52.8679 214.508 52.8015 214.581 52.7176C214.742 52.5229 214.825 52.2756 214.814 52.0234V49.9688H215.623L215.633 53.5471Z" fill="#465154"/>
        <path d="M218.662 50.7449C218.539 50.6607 218.39 50.6203 218.241 50.63C218.122 50.6305 218.005 50.6603 217.901 50.7169C217.796 50.7734 217.707 50.8549 217.641 50.9542C217.468 51.215 217.384 51.5247 217.401 51.8373V53.5473H216.59V49.9741H217.399V50.7091H217.412C217.476 50.4829 217.602 50.2794 217.777 50.1221C217.927 49.9862 218.123 49.9107 218.325 49.9102C218.441 49.9038 218.556 49.9266 218.66 49.9766L218.662 50.7449Z" fill="#465154"/>
        <path d="M222.25 51.9799H219.815C219.81 52.1218 219.835 52.2632 219.888 52.3951C219.94 52.5269 220.02 52.6463 220.122 52.7456C220.344 52.9347 220.631 53.0307 220.923 53.0136C221.301 53.0151 221.67 52.8952 221.975 52.6716V53.325C221.581 53.5464 221.134 53.6525 220.683 53.6313C220.454 53.6437 220.225 53.6066 220.011 53.5225C219.797 53.4384 219.604 53.3092 219.445 53.1438C219.126 52.7612 218.965 52.2707 218.996 51.7732C218.975 51.2725 219.152 50.7837 219.489 50.4128C219.644 50.2427 219.834 50.1078 220.046 50.0171C220.257 49.9264 220.486 49.882 220.716 49.887C220.929 49.8751 221.141 49.9114 221.337 49.9931C221.533 50.0749 221.709 50.2 221.85 50.3592C222.137 50.733 222.279 51.198 222.25 51.6685V51.9799ZM221.469 51.4082C221.482 51.1647 221.409 50.9245 221.262 50.7292C221.196 50.6462 221.11 50.5799 221.013 50.5356C220.916 50.4913 220.81 50.4702 220.704 50.474C220.592 50.4723 220.482 50.4941 220.38 50.5381C220.278 50.5821 220.186 50.6473 220.111 50.7292C219.943 50.9135 219.838 51.1471 219.813 51.3954L221.469 51.4082Z" fill="#465154"/>
        <path d="M228.558 53.3378C228.123 53.5469 227.645 53.6493 227.162 53.6364C226.839 53.6512 226.517 53.5977 226.216 53.4794C225.915 53.3611 225.643 53.1806 225.416 52.9498C225.194 52.707 225.021 52.4226 224.908 52.1129C224.796 51.8033 224.746 51.4744 224.76 51.1453C224.745 50.7888 224.803 50.433 224.929 50.0995C225.056 49.7659 225.25 49.4618 225.498 49.2055C225.742 48.9611 226.033 48.7693 226.354 48.642C226.675 48.5147 227.019 48.4546 227.364 48.4653C227.775 48.4526 228.185 48.5229 228.568 48.6721V49.4965C228.231 49.2962 227.845 49.192 227.453 49.1953C227.21 49.1843 226.968 49.224 226.741 49.3118C226.514 49.3997 226.308 49.5339 226.136 49.7058C225.963 49.8916 225.829 50.1101 225.741 50.3486C225.653 50.587 225.614 50.8405 225.626 51.0942C225.614 51.3341 225.649 51.5739 225.73 51.7999C225.811 52.0259 225.936 52.2337 226.098 52.4113C226.258 52.575 226.451 52.7033 226.665 52.7877C226.878 52.8721 227.107 52.9108 227.336 52.9013C227.767 52.9119 228.192 52.7966 228.558 52.5695V53.3378Z" fill="#465154"/>
        <path d="M230.905 53.6367C230.662 53.6468 230.419 53.6067 230.192 53.5189C229.965 53.4311 229.758 53.2974 229.585 53.1262C229.418 52.9494 229.288 52.7408 229.204 52.5128C229.119 52.2847 229.081 52.042 229.093 51.799C229.07 51.5432 229.104 51.2856 229.191 51.0441C229.279 50.8027 229.418 50.5833 229.599 50.4013C229.78 50.2192 229.999 50.0789 230.24 49.9901C230.481 49.9013 230.738 49.8662 230.994 49.8873C231.234 49.8735 231.474 49.9102 231.699 49.9951C231.923 50.0799 232.128 50.211 232.298 50.3799C232.628 50.756 232.795 51.2465 232.765 51.7454C232.777 51.9964 232.737 52.2471 232.65 52.4826C232.562 52.718 232.428 52.9334 232.255 53.116C232.078 53.2909 231.866 53.4274 231.634 53.517C231.402 53.6065 231.154 53.6473 230.905 53.6367ZM230.943 50.5407C230.801 50.5345 230.659 50.5612 230.529 50.6187C230.399 50.6763 230.284 50.7631 230.193 50.8725C229.996 51.1349 229.898 51.4586 229.917 51.7862C229.898 52.1055 229.997 52.4207 230.195 52.6719C230.288 52.7783 230.403 52.8625 230.532 52.9182C230.662 52.9739 230.802 52.9996 230.943 52.9935C231.082 53.0017 231.221 52.9774 231.348 52.9224C231.476 52.8675 231.589 52.7834 231.678 52.677C231.864 52.414 231.954 52.095 231.933 51.7735C231.954 51.4495 231.864 51.1281 231.678 50.8623C231.59 50.7537 231.478 50.6674 231.35 50.6107C231.222 50.5539 231.083 50.5282 230.943 50.5356V50.5407Z" fill="#465154"/>
        <path d="M233.321 53.435V52.6846C233.606 52.9086 233.958 53.0299 234.321 53.0292C234.809 53.0292 235.054 52.8846 235.054 52.5953C235.055 52.5213 235.033 52.4488 234.99 52.3886C234.944 52.3282 234.887 52.277 234.821 52.238C234.741 52.19 234.655 52.1507 234.566 52.1206L234.245 52.0032C234.109 51.9504 233.977 51.889 233.849 51.8194C233.74 51.7611 233.641 51.6861 233.555 51.5973C233.479 51.5165 233.419 51.421 233.379 51.3166C233.337 51.1987 233.318 51.0741 233.321 50.949C233.318 50.7891 233.36 50.6315 233.443 50.4947C233.527 50.361 233.639 50.2476 233.772 50.1629C233.916 50.0708 234.074 50.0027 234.239 49.9613C234.416 49.9153 234.598 49.8922 234.781 49.8924C235.083 49.8878 235.383 49.9388 235.666 50.043V50.7525C235.411 50.5803 235.109 50.4911 234.801 50.4973C234.707 50.4959 234.614 50.5062 234.523 50.5279C234.448 50.5453 234.376 50.5746 234.311 50.6147C234.256 50.6489 234.21 50.6951 234.176 50.75C234.143 50.802 234.126 50.8622 234.127 50.9235C234.125 50.9923 234.141 51.0604 234.176 51.12C234.213 51.1775 234.262 51.2256 234.321 51.2604C234.394 51.3057 234.471 51.3433 234.551 51.3727L234.86 51.4825C235.001 51.5393 235.139 51.6032 235.273 51.6739C235.387 51.7333 235.491 51.8081 235.585 51.896C235.67 51.9769 235.737 52.0741 235.784 52.1818C235.832 52.3043 235.856 52.4354 235.853 52.5672C235.857 52.7341 235.813 52.8988 235.727 53.042C235.643 53.1774 235.529 53.2918 235.393 53.3763C235.244 53.4682 235.081 53.5347 234.911 53.5729C234.722 53.6164 234.528 53.6378 234.334 53.6367C233.986 53.6428 233.64 53.574 233.321 53.435Z" fill="#465154"/>
        <path d="M241.903 53.5472H241.094V51.5947C241.114 51.314 241.06 51.0329 240.935 50.7805C240.877 50.6939 240.796 50.6246 240.702 50.5797C240.608 50.5348 240.503 50.516 240.399 50.5252C240.29 50.5281 240.183 50.5587 240.089 50.614C239.995 50.6694 239.916 50.7477 239.861 50.8417C239.708 51.0672 239.63 51.3352 239.639 51.6074V53.5395H238.824V51.5257C238.824 50.8604 238.59 50.5278 238.12 50.5278C238.012 50.5281 237.906 50.5559 237.812 50.6086C237.718 50.6613 237.638 50.7371 237.581 50.829C237.434 51.0564 237.36 51.3237 237.37 51.5947V53.5268H236.561V49.9535H237.37V50.5176H237.382C237.492 50.3154 237.655 50.1477 237.854 50.0332C238.054 49.9187 238.281 49.862 238.511 49.8693C238.743 49.8645 238.971 49.9362 239.159 50.0735C239.34 50.2057 239.473 50.3941 239.537 50.6095C239.641 50.3839 239.809 50.1938 240.02 50.0623C240.23 49.9308 240.475 49.8637 240.723 49.8693C241.51 49.8693 241.903 50.3542 241.903 51.3241V53.5472Z" fill="#465154"/>
        <path d="M244.428 53.6367C244.185 53.6468 243.942 53.6067 243.715 53.5189C243.488 53.4311 243.282 53.2974 243.109 53.1262C242.942 52.9494 242.812 52.7408 242.727 52.5128C242.643 52.2847 242.605 52.042 242.616 51.799C242.594 51.5432 242.627 51.2856 242.715 51.0441C242.802 50.8027 242.942 50.5833 243.123 50.4013C243.304 50.2192 243.522 50.0789 243.763 49.9901C244.004 49.9013 244.262 49.8662 244.518 49.8873C244.757 49.8735 244.997 49.9102 245.222 49.9951C245.447 50.0799 245.651 50.211 245.822 50.3799C246.151 50.756 246.319 51.2465 246.289 51.7454C246.3 51.9964 246.261 52.2471 246.173 52.4826C246.085 52.718 245.951 52.9334 245.778 53.116C245.601 53.2909 245.39 53.4274 245.158 53.517C244.925 53.6065 244.677 53.6473 244.428 53.6367ZM244.467 50.5407C244.324 50.5345 244.183 50.5612 244.053 50.6187C243.922 50.6763 243.807 50.7631 243.716 50.8725C243.519 51.1349 243.422 51.4586 243.441 51.7862C243.422 52.1055 243.521 52.4207 243.719 52.6719C243.811 52.7783 243.926 52.8625 244.056 52.9182C244.185 52.9739 244.326 52.9996 244.467 52.9935C244.605 53.0017 244.744 52.9774 244.872 52.9224C244.999 52.8675 245.112 52.7834 245.202 52.677C245.388 52.414 245.478 52.095 245.457 51.7735C245.478 51.4495 245.388 51.1281 245.202 50.8623C245.114 50.7537 245.001 50.6674 244.873 50.6107C244.746 50.5539 244.606 50.5282 244.467 50.5356V50.5407Z" fill="#465154"/>
        <path d="M246.846 53.435V52.6846C247.131 52.9086 247.484 53.0299 247.847 53.0292C248.335 53.0292 248.579 52.8846 248.579 52.5953C248.581 52.5213 248.558 52.4488 248.515 52.3886C248.469 52.3281 248.412 52.277 248.347 52.238C248.266 52.19 248.181 52.1507 248.092 52.1206L247.77 52.0032C247.634 51.9504 247.502 51.889 247.374 51.8194C247.266 51.7609 247.167 51.686 247.081 51.5973C247.004 51.5165 246.944 51.421 246.905 51.3166C246.863 51.1987 246.843 51.0741 246.846 50.949C246.843 50.7891 246.885 50.6315 246.969 50.4947C247.052 50.361 247.165 50.2477 247.298 50.1629C247.442 50.0708 247.599 50.0027 247.765 49.9613C247.942 49.9153 248.123 49.8922 248.306 49.8924C248.608 49.8878 248.908 49.9388 249.192 50.043V50.7525C248.936 50.5803 248.634 50.4911 248.326 50.4973C248.233 50.4959 248.139 50.5062 248.048 50.5279C247.973 50.5453 247.902 50.5746 247.836 50.6147C247.782 50.649 247.735 50.6953 247.701 50.75C247.669 50.802 247.652 50.8622 247.653 50.9235C247.65 50.9923 247.667 51.0604 247.701 51.12C247.738 51.1775 247.788 51.2255 247.847 51.2604C247.919 51.3056 247.996 51.3432 248.076 51.3727L248.385 51.4825C248.526 51.5393 248.664 51.6032 248.799 51.6739C248.912 51.7333 249.017 51.808 249.11 51.896C249.195 51.9769 249.263 52.0741 249.309 52.1818C249.358 52.3043 249.381 52.4354 249.378 52.5672C249.382 52.7341 249.339 52.8988 249.253 53.042C249.168 53.1774 249.054 53.2918 248.919 53.3763C248.77 53.4683 248.607 53.5347 248.436 53.5729C248.247 53.6164 248.053 53.6378 247.859 53.6367C247.511 53.6428 247.165 53.574 246.846 53.435Z" fill="#465154"/>
        <path d="M252.207 53.5471V48.5317H253.652C255.496 48.5317 256.418 49.3451 256.418 50.9718C256.433 51.3188 256.372 51.6649 256.24 51.9861C256.107 52.3073 255.907 52.596 255.653 52.8324C255.082 53.3221 254.344 53.5734 253.593 53.5343L252.207 53.5471ZM253.034 49.2489V52.8478H253.698C253.946 52.8628 254.194 52.8278 254.428 52.745C254.662 52.6621 254.877 52.533 255.061 52.3654C255.23 52.1836 255.36 51.9692 255.444 51.7353C255.528 51.5014 255.563 51.2529 255.548 51.005C255.548 49.8343 254.942 49.2489 253.731 49.2489H253.034Z" fill="#465154"/>
        <path d="M257.232 53.5474V48.5321H258.82C259.227 48.51 259.63 48.6211 259.969 48.8485C260.102 48.9411 260.21 49.0649 260.284 49.2091C260.358 49.3533 260.395 49.5135 260.392 49.6755C260.398 49.9422 260.314 50.2031 260.152 50.4157C259.983 50.6311 259.75 50.7874 259.486 50.8623V50.8751C259.798 50.9 260.09 51.0358 260.311 51.258C260.415 51.3706 260.496 51.5028 260.549 51.647C260.602 51.7911 260.626 51.9443 260.619 52.0977C260.623 52.299 260.579 52.4984 260.49 52.6791C260.402 52.8598 260.271 53.0167 260.109 53.1365C259.742 53.4114 259.291 53.5519 258.833 53.5347L257.232 53.5474ZM258.059 49.2084V50.6326H258.598C258.841 50.6479 259.082 50.5754 259.277 50.4284C259.361 50.3585 259.428 50.27 259.472 50.17C259.516 50.0699 259.537 49.9609 259.532 49.8516C259.532 49.4228 259.246 49.2084 258.674 49.2084H258.059ZM258.059 51.2988V52.871H258.769C259.026 52.8876 259.28 52.8116 259.486 52.6566C259.571 52.5838 259.638 52.4927 259.682 52.3901C259.726 52.2874 259.747 52.1761 259.741 52.0645C259.741 51.554 259.382 51.2988 258.664 51.2988H258.059Z" fill="#465154"/>
        <path d="M218.289 17.868C218.239 17.8683 218.19 17.8589 218.144 17.8402C218.098 17.8215 218.056 17.794 218.021 17.7592C217.986 17.7243 217.958 17.6829 217.938 17.6372C217.919 17.5915 217.909 17.5424 217.909 17.4928C217.909 16.342 217.452 15.2384 216.638 14.4247C215.824 13.611 214.721 13.1538 213.57 13.1538C213.469 13.1538 213.373 13.1141 213.302 13.0433C213.23 12.9726 213.19 12.8765 213.189 12.7761C213.189 12.6752 213.23 12.5785 213.301 12.5071C213.372 12.4358 213.469 12.3958 213.57 12.3958C214.721 12.3958 215.824 11.9386 216.638 11.1249C217.452 10.3112 217.909 9.20755 217.909 8.05678C217.913 7.95927 217.954 7.86708 218.025 7.79952C218.095 7.73195 218.189 7.69426 218.286 7.69434C218.336 7.69401 218.385 7.70345 218.431 7.72212C218.477 7.74079 218.519 7.76834 218.554 7.80318C218.59 7.83802 218.618 7.87947 218.637 7.92517C218.656 7.97088 218.666 8.01993 218.667 8.06954C218.667 9.22031 219.124 10.3239 219.938 11.1377C220.751 11.9514 221.855 12.4085 223.006 12.4085C223.055 12.4082 223.105 12.4176 223.151 12.4363C223.196 12.455 223.238 12.4825 223.274 12.5174C223.309 12.5522 223.337 12.5937 223.356 12.6394C223.376 12.6851 223.386 12.7341 223.386 12.7837C223.386 12.8333 223.377 12.8825 223.358 12.9285C223.34 12.9744 223.312 13.0163 223.277 13.0516C223.242 13.0869 223.201 13.115 223.155 13.1343C223.11 13.1536 223.06 13.1637 223.011 13.164C221.86 13.164 220.756 13.6212 219.943 14.4349C219.129 15.2486 218.672 16.3522 218.672 17.503C218.668 17.6016 218.626 17.6948 218.554 17.763C218.483 17.8311 218.388 17.8687 218.289 17.868Z" fill="#50E6FF"/>
        <path d="M245.555 44.1264C245.474 44.1264 245.397 44.0944 245.34 44.0374C245.283 43.9805 245.251 43.9032 245.251 43.8227C245.249 42.9056 244.884 42.0267 244.235 41.3785C243.586 40.7303 242.707 40.3656 241.79 40.3642C241.71 40.3642 241.633 40.3326 241.576 40.2762C241.519 40.2198 241.487 40.1432 241.486 40.0631C241.486 39.9825 241.518 39.9053 241.575 39.8483C241.632 39.7913 241.71 39.7593 241.79 39.7593C242.708 39.7587 243.588 39.3938 244.237 38.7449C244.886 38.096 245.25 37.2161 245.251 36.2984C245.251 36.2178 245.283 36.1406 245.34 36.0836C245.397 36.0266 245.474 35.9946 245.555 35.9946C245.635 35.9946 245.713 36.0266 245.77 36.0836C245.826 36.1406 245.858 36.2178 245.858 36.2984C245.859 37.2161 246.224 38.096 246.873 38.7449C247.522 39.3938 248.402 39.7587 249.319 39.7593C249.4 39.7593 249.477 39.7913 249.534 39.8483C249.591 39.9053 249.623 39.9825 249.623 40.0631C249.623 40.1436 249.591 40.2209 249.534 40.2778C249.477 40.3348 249.4 40.3668 249.319 40.3668C248.402 40.3681 247.522 40.7332 246.874 41.382C246.225 42.0308 245.86 42.9103 245.858 43.8278C245.857 43.9074 245.825 43.9834 245.768 44.0393C245.711 44.0951 245.634 44.1264 245.555 44.1264Z" fill="#50E6FF"/>
        <path d="M244.174 22.7531C244.78 25.2965 244.618 27.9625 243.709 30.4139C242.8 32.8654 241.184 34.9923 239.067 36.5256C236.949 38.059 234.424 38.93 231.811 39.0286C229.199 39.1272 226.615 38.4488 224.388 37.0793C222.161 35.7099 220.39 33.7108 219.298 31.3348C218.207 28.9588 217.845 26.3126 218.257 23.7307C218.67 21.1489 219.839 18.7473 221.616 16.8297C223.393 14.912 225.699 13.5644 228.242 12.9572C229.932 12.5538 231.684 12.4873 233.399 12.7613C235.114 13.0354 236.758 13.6446 238.238 14.5543C239.717 15.464 241.003 16.6563 242.022 18.0631C243.04 19.4699 243.772 21.0636 244.174 22.7531Z" fill="url(#paint1_radial_8130_79132)"/>
        <mask id="mask0_8130_79132" style="mask-type:luminance" maskUnits="userSpaceOnUse" x="218" y="12" width="27" height="28">
            <path d="M244.176 22.7536C244.782 25.297 244.62 27.963 243.711 30.4144C242.802 32.8659 241.186 34.9928 239.069 36.5261C236.951 38.0595 234.426 38.9305 231.813 39.0291C229.201 39.1276 226.617 38.4493 224.39 37.0798C222.163 35.7104 220.391 33.7113 219.3 31.3353C218.209 28.9593 217.847 26.3131 218.259 23.7312C218.672 21.1494 219.841 18.7478 221.618 16.8302C223.395 14.9125 225.701 13.5649 228.244 12.9577C229.934 12.5543 231.686 12.4878 233.401 12.7618C235.116 13.0359 236.76 13.6451 238.24 14.5548C239.719 15.4645 241.005 16.6568 242.024 18.0636C243.042 19.4704 243.774 21.064 244.176 22.7536Z" fill="white"/>
        </mask>
        <g mask="url(#mask0_8130_79132)">
            <path d="M224.218 34.7752C225.137 34.7737 226.02 34.4136 226.678 33.7716C227.335 33.1295 227.717 32.2562 227.741 31.3373C227.765 30.4183 227.429 29.5263 226.806 28.8509C226.182 28.1755 225.32 27.7699 224.402 27.7205H224.228C224.239 27.6205 224.244 27.52 224.244 27.4194C224.235 26.4786 223.855 25.5794 223.185 24.9188C222.515 24.2581 221.611 23.8898 220.67 23.8946H218.029C217.77 25.8491 217.943 27.8366 218.537 29.7167C219.131 31.5969 220.13 33.3237 221.464 34.7752H224.218Z" fill="#F2F2F2"/>
            <path d="M244.339 23.3585C244.342 23.3262 244.336 23.2938 244.324 23.264C243.898 20.9586 242.85 18.8132 241.294 17.0593C241.092 16.9775 240.884 16.9126 240.672 16.8653C240.104 16.7013 239.507 16.6687 238.925 16.77C238.343 16.8713 237.791 17.1039 237.313 17.45C236.834 17.7961 236.44 18.2468 236.162 18.7677C235.883 19.2886 235.727 19.8661 235.705 20.4564C235.561 20.4399 235.417 20.4305 235.273 20.4284C234.391 20.4278 233.536 20.7394 232.861 21.308C232.186 21.8766 231.733 22.6657 231.583 23.5357C231.434 24.4056 231.597 25.3005 232.043 26.0621C232.489 26.8237 233.19 27.4029 234.023 27.6974C234.394 27.8427 234.79 27.9154 235.189 27.9118H239.561C241.322 26.5809 242.925 25.0532 244.339 23.3585Z" fill="#F2F2F2"/>
        </g>
        <path d="M248.96 14.7769C247.605 12.5206 244.437 11.6426 240.009 12.3011C238.492 12.5165 236.994 12.8424 235.524 13.2761C236.69 13.6782 237.798 14.2335 238.817 14.9275C239.327 14.8126 239.858 14.6723 240.348 14.6034C241.135 14.481 241.929 14.4171 242.725 14.4119C243.502 14.3001 244.296 14.3844 245.033 14.6572C245.769 14.93 246.426 15.3826 246.944 15.974C247.768 17.3471 247.074 19.6978 245.035 22.4365C242.202 25.9615 238.732 28.9219 234.805 31.163C230.967 33.5546 226.714 35.2039 222.268 36.0252C218.899 36.5356 216.489 36.0252 215.665 34.6546C214.84 33.284 215.54 30.9384 217.582 28.2125C217.837 27.873 217.895 27.702 218.181 27.3676C218.047 26.1995 218.066 25.0188 218.237 23.8556C217.321 24.7736 216.478 25.7618 215.716 26.8112C213.046 30.3845 212.324 33.5902 213.674 35.8465C214.389 36.8027 215.342 37.5545 216.438 38.0266C217.535 38.4987 218.736 38.6746 219.922 38.5367C220.823 38.532 221.722 38.4603 222.612 38.3223C227.363 37.4557 231.908 35.7023 236.009 33.1538C240.199 30.7569 243.898 27.591 246.913 23.8224C249.588 20.2415 250.313 17.0357 248.96 14.7769Z" fill="#50E6FF"/>
    </g>
    <rect width="91.8691" height="61.2461" transform="translate(279.102 0.0385742)" fill="white"/>
    <g clip-path="url(#clip3_8130_79132)">
        <path d="M311.183 43.5411H310.109L309.572 42.0562H307.306L306.804 43.5411H305.746L307.929 37.7144H309.019L311.183 43.5411ZM309.344 41.2587L308.539 38.9334C308.504 38.8154 308.477 38.6952 308.458 38.5736H308.431C308.414 38.6972 308.387 38.8193 308.351 38.9388L307.545 41.2641L309.344 41.2587Z" fill="#465154"/>
        <path d="M315.146 39.7736L312.898 42.8051H315.146V43.5409H311.588V43.1864L313.884 40.1146H311.808V39.3789H315.146V39.7736Z" fill="#465154"/>
        <path d="M319.518 43.5409H318.576V42.883H318.56C318.444 43.1182 318.263 43.3148 318.038 43.4492C317.813 43.5836 317.554 43.6499 317.292 43.6402C316.31 43.6402 315.818 43.0495 315.818 41.868V39.3789H316.755V41.7687C316.755 42.5169 317.044 42.8911 317.62 42.8911C317.751 42.8944 317.881 42.8684 318 42.815C318.12 42.7616 318.226 42.682 318.31 42.5823C318.496 42.3562 318.592 42.0692 318.579 41.7767V39.3789H319.521L319.518 43.5409Z" fill="#465154"/>
        <path d="M323.041 40.2785C322.897 40.1801 322.724 40.1329 322.55 40.1443C322.411 40.1449 322.275 40.1798 322.153 40.2459C322.031 40.3119 321.928 40.4071 321.851 40.5229C321.654 40.8278 321.559 41.1885 321.583 41.5513V43.5436H320.627V39.379H321.569V40.2355H321.588C321.662 39.9718 321.809 39.7344 322.012 39.5508C322.188 39.3926 322.415 39.3046 322.652 39.3038C322.786 39.2969 322.92 39.3236 323.041 39.3817V40.2785Z" fill="#465154"/>
        <path d="M327.21 41.7175H324.374C324.37 41.8812 324.399 42.0439 324.46 42.1959C324.521 42.3478 324.613 42.4856 324.729 42.6009C324.988 42.8214 325.321 42.9339 325.661 42.9151C326.101 42.9171 326.53 42.7778 326.885 42.5177V43.2776C326.427 43.5356 325.906 43.6594 325.381 43.6347C325.114 43.6492 324.848 43.6061 324.599 43.5084C324.35 43.4106 324.125 43.2605 323.939 43.0682C323.568 42.6226 323.382 42.0519 323.419 41.4732C323.394 40.8901 323.601 40.3209 323.993 39.889C324.174 39.691 324.395 39.5339 324.641 39.4283C324.888 39.3227 325.154 39.271 325.422 39.2767C325.668 39.2611 325.915 39.3012 326.144 39.3942C326.372 39.4872 326.577 39.6306 326.743 39.8138C327.077 40.2493 327.243 40.7909 327.21 41.3389V41.7175ZM326.3 41.0516C326.314 40.7687 326.23 40.4895 326.061 40.2622C325.981 40.1688 325.881 40.0948 325.768 40.046C325.656 39.9971 325.534 39.9746 325.411 39.9802C325.281 39.9783 325.153 40.0038 325.034 40.0552C324.915 40.1066 324.808 40.1826 324.721 40.2783C324.524 40.4926 324.403 40.765 324.374 41.0543L326.3 41.0516Z" fill="#465154"/>
        <path d="M330.236 43.31V42.3138C330.333 42.4004 330.44 42.4744 330.556 42.534C330.682 42.5997 330.813 42.6545 330.948 42.6978C331.083 42.7421 331.221 42.7771 331.361 42.8025C331.487 42.8261 331.615 42.8386 331.743 42.8401C332.059 42.8615 332.374 42.7906 332.65 42.636C332.747 42.5719 332.825 42.4837 332.877 42.3801C332.93 42.2766 332.954 42.1612 332.948 42.0453C332.951 41.9182 332.917 41.793 332.849 41.6855C332.777 41.5804 332.686 41.4894 332.58 41.417C332.447 41.325 332.306 41.2442 332.159 41.1753L331.641 40.9337C331.442 40.8281 331.258 40.7207 331.088 40.6115C330.925 40.5098 330.775 40.389 330.642 40.2517C330.518 40.1219 330.418 39.9709 330.346 39.8059C330.271 39.622 330.235 39.4246 330.239 39.2259C330.233 38.9752 330.297 38.7278 330.424 38.5117C330.548 38.3106 330.715 38.1399 330.913 38.0123C331.125 37.8766 331.358 37.7777 331.603 37.7196C331.861 37.6555 332.126 37.623 332.392 37.6229C332.85 37.5943 333.308 37.6648 333.735 37.8297V38.7856C333.359 38.534 332.912 38.4089 332.46 38.4284C332.315 38.4284 332.172 38.4418 332.03 38.4687C331.897 38.493 331.768 38.5383 331.649 38.603C331.543 38.6621 331.451 38.7437 331.38 38.842C331.308 38.9458 331.271 39.0701 331.275 39.1964C331.272 39.3143 331.3 39.431 331.356 39.5347C331.416 39.6399 331.498 39.7313 331.595 39.8032C331.715 39.8918 331.842 39.9691 331.976 40.0342C332.127 40.1093 332.301 40.1899 332.5 40.2758C332.699 40.3617 332.89 40.4727 333.075 40.6088C333.247 40.7191 333.407 40.8488 333.55 40.9954C333.684 41.1325 333.794 41.2914 333.875 41.4653C333.958 41.6501 333.999 41.8509 333.996 42.0534C334.004 42.3147 333.942 42.5735 333.816 42.8025C333.698 43.0046 333.533 43.1751 333.335 43.2993C333.12 43.4289 332.883 43.5198 332.637 43.5678C332.363 43.6261 332.084 43.6549 331.804 43.6537C331.708 43.6537 331.588 43.6466 331.445 43.6322C331.301 43.6179 331.148 43.5911 330.985 43.5517C330.843 43.5242 330.702 43.4893 330.564 43.447C330.449 43.416 330.339 43.37 330.236 43.31Z" fill="#465154"/>
        <path d="M337.327 43.64C336.936 43.6456 336.548 43.5726 336.186 43.4252C335.855 43.2885 335.557 43.0824 335.313 42.821C335.065 42.5521 334.875 42.2362 334.752 41.892C334.615 41.5086 334.548 41.104 334.553 40.6971C334.547 40.2663 334.616 39.8376 334.754 39.4297C334.876 39.0699 335.071 38.739 335.326 38.4577C335.578 38.186 335.887 37.9733 336.231 37.8348C336.61 37.6836 337.015 37.6088 337.423 37.6146C337.806 37.6096 338.185 37.6827 338.538 37.8294C338.865 37.967 339.159 38.173 339.4 38.4335C339.645 38.7031 339.834 39.019 339.956 39.3626C340.091 39.7454 340.157 40.149 340.152 40.5548C340.158 41.0736 340.054 41.5878 339.848 42.0638C339.674 42.4745 339.396 42.8333 339.043 43.1057L340.734 44.3247H339.263L338.224 43.5192C338.082 43.5575 337.939 43.5871 337.794 43.6078C337.639 43.6298 337.483 43.6406 337.327 43.64ZM337.372 38.4658C337.12 38.4626 336.871 38.5158 336.642 38.6215C336.421 38.7254 336.226 38.8767 336.07 39.0645C335.903 39.267 335.777 39.4994 335.697 39.7493C335.606 40.0357 335.562 40.3348 335.565 40.6353C335.562 40.9338 335.606 41.231 335.694 41.5161C335.77 41.7642 335.892 41.9956 336.054 42.1981C336.205 42.3834 336.394 42.5329 336.61 42.6358C336.835 42.7416 337.081 42.7949 337.329 42.7915C337.587 42.7961 337.844 42.7467 338.081 42.6465C338.3 42.5512 338.494 42.407 338.648 42.2249C338.812 42.0268 338.934 41.7976 339.008 41.551C339.096 41.2576 339.138 40.9524 339.134 40.6461C339.139 40.3331 339.098 40.021 339.013 39.7197C338.943 39.4707 338.824 39.238 338.664 39.035C338.515 38.8517 338.324 38.7064 338.108 38.6108C337.876 38.511 337.625 38.4616 337.372 38.4658Z" fill="#465154"/>
        <path d="M344.326 43.5411H341.104V37.7144H342.07V42.7248H344.331L344.326 43.5411Z" fill="#465154"/>
        <path d="M308.459 53.5294V47.7026H310.143C312.291 47.7026 313.365 48.6496 313.365 50.5435C313.38 50.9487 313.307 51.3523 313.15 51.7264C312.994 52.1005 312.759 52.4362 312.46 52.7104C311.793 53.2761 310.935 53.5645 310.062 53.5159L308.459 53.5294ZM309.423 48.5216V52.7131H310.196C310.485 52.7312 310.774 52.6908 311.047 52.5944C311.32 52.498 311.57 52.3475 311.783 52.1519C311.98 51.9401 312.132 51.6904 312.229 51.418C312.327 51.1457 312.368 50.8564 312.35 50.5677C312.35 49.2054 311.644 48.5243 310.231 48.5243L309.423 48.5216Z" fill="#465154"/>
        <path d="M317.402 53.5293H316.486V52.8795H316.47C316.351 53.111 316.17 53.3043 315.946 53.4368C315.722 53.5694 315.465 53.6359 315.205 53.6286C314.854 53.648 314.508 53.5285 314.244 53.2957C314.128 53.1813 314.037 53.0438 313.977 52.892C313.918 52.7403 313.891 52.5778 313.898 52.4149C313.898 51.6291 314.35 51.1708 315.256 51.0402L316.491 50.8656C316.491 50.2731 316.209 49.9768 315.646 49.9768C315.15 49.9763 314.672 50.159 314.303 50.4897V49.6654C314.765 49.3996 315.29 49.2649 315.823 49.276C316.874 49.276 317.399 49.7934 317.399 50.828L317.402 53.5293ZM316.486 51.4859L315.613 51.6067C315.397 51.6234 315.187 51.6905 315.001 51.8027C314.928 51.8636 314.871 51.9415 314.836 52.0296C314.8 52.1176 314.787 52.2131 314.797 52.3075C314.795 52.389 314.81 52.47 314.843 52.5447C314.875 52.6195 314.924 52.6861 314.985 52.7398C315.126 52.8575 315.306 52.9179 315.49 52.909C315.626 52.9148 315.761 52.891 315.887 52.839C316.013 52.7871 316.125 52.7083 316.218 52.6083C316.402 52.3994 316.499 52.1269 316.486 51.8484V51.4859Z" fill="#465154"/>
        <path d="M320.646 53.4867C320.417 53.5874 320.168 53.6343 319.918 53.6237C319.111 53.6237 318.707 53.2361 318.707 52.461V50.1196H318.012V49.3677H318.707V48.4038L319.65 48.1353V49.3677H320.646V50.1196H319.65V52.2005C319.631 52.3897 319.678 52.5796 319.784 52.7376C319.842 52.7955 319.913 52.8398 319.99 52.8672C320.068 52.8946 320.151 52.9044 320.232 52.896C320.382 52.8993 320.528 52.8509 320.646 52.7591V53.4867Z" fill="#465154"/>
        <path d="M324.693 53.5293H323.777V52.8795H323.761C323.642 53.111 323.461 53.3043 323.237 53.4368C323.013 53.5694 322.756 53.6359 322.496 53.6286C322.145 53.648 321.799 53.5285 321.535 53.2957C321.419 53.1813 321.328 53.0438 321.268 52.892C321.209 52.7403 321.182 52.5778 321.189 52.4149C321.189 51.6291 321.641 51.1708 322.547 51.0402L323.782 50.8656C323.782 50.2731 323.5 49.9768 322.937 49.9768C322.441 49.9763 321.963 50.159 321.594 50.4897V49.6654C322.056 49.3996 322.581 49.2649 323.114 49.276C324.165 49.276 324.69 49.7934 324.69 50.828L324.693 53.5293ZM323.782 51.4859L322.91 51.6067C322.693 51.6234 322.484 51.6905 322.298 51.8027C322.225 51.8636 322.168 51.9415 322.132 52.0296C322.097 52.1176 322.083 52.2131 322.093 52.3075C322.091 52.389 322.107 52.47 322.139 52.5447C322.172 52.6195 322.22 52.6861 322.281 52.7398C322.423 52.8575 322.603 52.9179 322.786 52.909C322.92 52.9126 323.053 52.8873 323.176 52.8349C323.3 52.7826 323.41 52.7044 323.5 52.6056C323.691 52.3982 323.792 52.1243 323.782 51.843V51.4859Z" fill="#465154"/>
        <path d="M326.717 52.9279H326.69V53.5293H325.756V47.3696H326.69V50.1004H326.706C326.84 49.8431 327.044 49.6288 327.295 49.4821C327.545 49.3353 327.831 49.2621 328.121 49.2707C328.36 49.2565 328.598 49.2998 328.817 49.397C329.035 49.4942 329.226 49.6424 329.375 49.8292C329.691 50.2627 329.849 50.7917 329.821 51.3275C329.852 51.926 329.675 52.5167 329.322 53.0003C329.16 53.2058 328.952 53.3699 328.714 53.4792C328.476 53.5884 328.216 53.6396 327.955 53.6287C327.704 53.6395 327.454 53.5796 327.236 53.4557C327.017 53.3318 326.837 53.1489 326.717 52.9279ZM326.69 51.2738V51.7894C326.683 52.075 326.787 52.3523 326.98 52.5627C327.083 52.6701 327.208 52.7539 327.346 52.8083C327.485 52.8626 327.633 52.8863 327.781 52.8776C327.93 52.8689 328.075 52.8281 328.206 52.758C328.337 52.6878 328.451 52.59 328.54 52.4714C328.758 52.1322 328.863 51.7326 328.838 51.3302C328.861 50.9885 328.767 50.6492 328.57 50.3689C328.48 50.2558 328.365 50.1655 328.234 50.1053C328.103 50.0451 327.96 50.0167 327.815 50.0225C327.663 50.0177 327.511 50.0473 327.372 50.1091C327.232 50.171 327.109 50.2634 327.01 50.3797C326.796 50.6279 326.683 50.9465 326.69 51.2738Z" fill="#465154"/>
        <path d="M333.898 53.5293H332.982V52.8795H332.966C332.847 53.111 332.666 53.3043 332.442 53.4369C332.218 53.5694 331.961 53.6359 331.701 53.6287C331.35 53.6481 331.004 53.5285 330.74 53.2957C330.624 53.1813 330.533 53.0438 330.473 52.8921C330.414 52.7404 330.387 52.5778 330.394 52.415C330.394 51.6291 330.847 51.1709 331.752 51.0402L332.988 50.8657C332.988 50.2731 332.706 49.9769 332.142 49.9769C331.646 49.9764 331.168 50.159 330.799 50.4897V49.6654C331.263 49.3958 331.793 49.2593 332.33 49.2707C333.38 49.2707 333.906 49.788 333.906 50.8227L333.898 53.5293ZM332.988 51.4859L332.115 51.6067C331.898 51.6234 331.689 51.6905 331.503 51.8028C331.43 51.8636 331.373 51.9415 331.337 52.0296C331.302 52.1177 331.288 52.2131 331.299 52.3076C331.296 52.389 331.312 52.47 331.344 52.5447C331.377 52.6195 331.425 52.6861 331.487 52.7399C331.628 52.8575 331.808 52.9179 331.991 52.909C332.125 52.9126 332.258 52.8873 332.381 52.835C332.505 52.7826 332.615 52.7044 332.706 52.6056C332.896 52.3982 332.997 52.1244 332.988 51.843V51.4859Z" fill="#465154"/>
        <path d="M334.77 53.4008V52.5362C335.102 52.7977 335.512 52.9396 335.935 52.939C336.504 52.939 336.789 52.7707 336.789 52.4342C336.791 52.3479 336.766 52.2631 336.716 52.1925C336.663 52.1215 336.596 52.0614 336.52 52.0153C336.428 51.9587 336.33 51.9119 336.228 51.8757L335.852 51.7387C335.693 51.677 335.539 51.6052 335.39 51.5239C335.263 51.4529 335.148 51.3622 335.049 51.2554C334.96 51.1609 334.89 51.0495 334.845 50.9278C334.796 50.7909 334.772 50.6463 334.775 50.5009C334.77 50.3119 334.819 50.1255 334.917 49.9639C335.014 49.8083 335.144 49.6762 335.299 49.5772C335.464 49.4703 335.645 49.3905 335.836 49.3409C336.042 49.2882 336.254 49.262 336.467 49.263C336.818 49.2575 337.168 49.3167 337.498 49.4376V50.2619C337.201 50.0603 336.849 49.9553 336.491 49.9612C336.382 49.9602 336.274 49.9729 336.168 49.9988C336.081 50.0192 335.998 50.0536 335.921 50.1008C335.858 50.1401 335.803 50.1933 335.763 50.2565C335.725 50.3169 335.706 50.3868 335.707 50.4579C335.704 50.5378 335.723 50.6168 335.763 50.6862C335.806 50.7531 335.864 50.8091 335.932 50.85C336.017 50.902 336.107 50.9452 336.201 50.9788L336.561 51.1077C336.724 51.1738 336.885 51.2482 337.041 51.3306C337.174 51.4027 337.296 51.493 337.404 51.5991C337.502 51.6934 337.581 51.8067 337.635 51.9321C337.692 52.0745 337.719 52.2271 337.715 52.3805C337.72 52.5749 337.67 52.7667 337.57 52.9336C337.472 53.0913 337.338 53.2245 337.181 53.323C337.007 53.4299 336.816 53.5071 336.617 53.5512C336.397 53.6021 336.172 53.6273 335.946 53.6264C335.542 53.6359 335.141 53.559 334.77 53.4008Z" fill="#465154"/>
        <path d="M342.102 51.7061H339.264C339.258 51.8711 339.287 52.0354 339.348 52.1888C339.409 52.3422 339.501 52.4814 339.618 52.5975C339.877 52.818 340.21 52.9305 340.55 52.9117C340.99 52.9134 341.419 52.7742 341.774 52.5143V53.2742C341.317 53.5322 340.795 53.6559 340.271 53.6313C340.004 53.646 339.737 53.603 339.488 53.5052C339.239 53.4074 339.014 53.2572 338.829 53.0647C338.457 52.6196 338.269 52.0488 338.305 51.4698C338.28 50.8866 338.487 50.3173 338.88 49.8855C339.06 49.6875 339.281 49.5305 339.528 49.4249C339.774 49.3193 340.04 49.2676 340.308 49.2733C340.555 49.2577 340.801 49.2978 341.03 49.3908C341.259 49.4838 341.464 49.6272 341.629 49.8104C341.964 50.2459 342.13 50.7874 342.097 51.3355L342.102 51.7061ZM341.189 51.0375C341.204 50.7545 341.119 50.4753 340.95 50.248C340.87 50.1546 340.77 50.0807 340.658 50.0318C340.545 49.9829 340.423 49.9605 340.3 49.9661C340.171 49.9641 340.042 49.9897 339.923 50.041C339.804 50.0924 339.697 50.1685 339.61 50.2641C339.414 50.4785 339.292 50.7508 339.264 51.0401L341.189 51.0375Z" fill="#465154"/>
        <path d="M325.063 14.6084C319.789 14.6084 315.512 13.1181 315.512 11.1526V29.5672C315.512 31.4468 319.714 32.9934 324.928 33.023H325.063C330.336 33.023 334.614 31.5327 334.614 29.5672V11.1499C334.614 13.0644 330.336 14.6084 325.063 14.6084Z" fill="url(#paint2_linear_8130_79132)"/>
        <path d="M334.614 11.1501C334.614 13.0727 330.339 14.6059 325.063 14.6059C319.786 14.6059 315.512 13.1183 315.512 11.1501C315.512 9.1819 319.789 7.69434 325.063 7.69434C330.336 7.69434 334.614 9.18458 334.614 11.1501Z" fill="#E8E8E8"/>
        <path d="M332.393 10.8683C332.393 12.09 329.107 13.0648 325.063 13.0648C321.019 13.0648 317.732 12.082 317.732 10.8603C317.732 9.63852 321.024 8.67725 325.063 8.67725C329.101 8.67725 332.393 9.66 332.393 10.8683Z" fill="#50E6FF"/>
        <path d="M325.063 11.4184C323.097 11.3652 321.136 11.6494 319.266 12.2588C321.136 12.8599 323.097 13.1324 325.06 13.0644C327.028 13.1217 328.99 12.829 330.855 12.1998C328.981 11.6191 327.023 11.355 325.063 11.4184Z" fill="#198AB3"/>
        <path d="M330.873 23.9342V18.87H329.53V25.0217H333.195V23.9342H330.873ZM320.245 21.4451C319.968 21.3338 319.711 21.1777 319.485 20.9832C319.425 20.9197 319.378 20.8446 319.347 20.7625C319.316 20.6804 319.302 20.5929 319.305 20.5053C319.301 20.4181 319.319 20.3313 319.358 20.2532C319.397 20.1751 319.456 20.1084 319.528 20.0595C319.711 19.9323 319.931 19.8691 320.154 19.8796C320.682 19.8586 321.203 20.0114 321.636 20.3146V19.0338C321.16 18.8565 320.653 18.7753 320.146 18.7948C319.565 18.7671 318.994 18.947 318.535 19.3023C318.333 19.4582 318.171 19.6596 318.062 19.8902C317.953 20.1208 317.901 20.374 317.909 20.6288C317.909 21.3887 318.387 21.9714 319.399 22.4305C319.728 22.5704 320.039 22.7508 320.323 22.9675C320.393 23.0262 320.449 23.0993 320.487 23.1819C320.526 23.2644 320.546 23.3544 320.546 23.4455C320.546 23.536 320.524 23.6251 320.482 23.7055C320.441 23.7858 320.381 23.855 320.307 23.9073C320.104 24.0263 319.871 24.0832 319.636 24.0711C319.041 24.0631 318.469 23.841 318.024 23.4455V24.831C318.517 25.0852 319.066 25.2082 319.619 25.1881C320.244 25.2255 320.863 25.0525 321.378 24.6968C321.558 24.5259 321.696 24.3158 321.781 24.083C321.866 23.8501 321.897 23.6007 321.87 23.3542C321.876 22.9731 321.743 22.6026 321.496 22.3124C321.146 21.9375 320.719 21.6418 320.245 21.4451ZM328.032 23.8053C328.355 23.287 328.527 22.6883 328.527 22.0774C328.527 21.4665 328.355 20.8679 328.032 20.3495C327.801 19.8883 327.442 19.5033 326.998 19.2406C326.544 18.9834 326.03 18.8501 325.508 18.8539C324.945 18.8414 324.388 18.9805 323.897 19.2567C323.437 19.5137 323.06 19.8965 322.809 20.3603C322.546 20.8875 322.413 21.4706 322.423 22.06C322.429 22.5732 322.552 23.0784 322.783 23.5368C323.01 23.9974 323.367 24.3811 323.811 24.6404C324.261 24.9145 324.774 25.068 325.301 25.0861L326.582 26.5764H328.384L326.552 24.9384C327.166 24.751 327.691 24.3487 328.032 23.8053ZM326.542 23.4321C326.406 23.6005 326.233 23.7351 326.036 23.8255C325.84 23.9159 325.625 23.9595 325.409 23.953C325.191 23.9602 324.974 23.9152 324.777 23.8218C324.58 23.7284 324.408 23.5892 324.275 23.416C323.964 22.9842 323.815 22.4566 323.854 21.9257C323.819 21.3937 323.972 20.8664 324.286 20.4355C324.427 20.2627 324.604 20.1236 324.805 20.0283C325.006 19.9331 325.226 19.8841 325.449 19.885C325.666 19.8757 325.883 19.9212 326.078 20.0174C326.273 20.1136 326.441 20.2574 326.566 20.4355C326.856 20.8761 326.993 21.3995 326.958 21.9257C327.016 22.4643 326.872 23.0052 326.552 23.4428L326.542 23.4321Z" fill="url(#paint3_radial_8130_79132)"/>
    </g>
    <rect width="91.8691" height="61.2461" transform="translate(371.928 0.0385742)" fill="white"/>
    <g clip-path="url(#clip4_8130_79132)">
        <path d="M398.325 42.8582H397.357L396.873 41.5197H394.83L394.375 42.8582H393.424L395.392 37.6035H396.374L398.325 42.8582ZM396.665 40.8106L395.939 38.7145C395.908 38.6065 395.884 38.4965 395.868 38.3853H395.844C395.829 38.4967 395.804 38.6068 395.772 38.7145L395.046 40.8106H396.665Z" fill="#465154"/>
        <path d="M401.896 39.4623L399.871 42.195H401.896V42.8582H398.689V42.5484L400.759 39.7794H398.888V39.1162H401.896V39.4623Z" fill="#465154"/>
        <path d="M405.838 42.8581H404.988V42.2651H404.974C404.87 42.4771 404.706 42.6544 404.503 42.7755C404.301 42.8966 404.067 42.9564 403.831 42.9477C402.945 42.9477 402.502 42.4152 402.5 41.3502V39.1089H403.347V41.2631C403.347 41.9375 403.607 42.2748 404.127 42.2748C404.244 42.2778 404.361 42.2544 404.469 42.2062C404.577 42.1581 404.672 42.0864 404.749 41.9964C404.916 41.7926 405.002 41.534 404.991 41.2703V39.1113H405.84L405.838 42.8581Z" fill="#465154"/>
        <path d="M409.014 39.9172C408.884 39.8284 408.728 39.7858 408.571 39.7962C408.448 39.7965 408.326 39.8269 408.218 39.8847C408.109 39.9425 408.016 40.0259 407.946 40.1278C407.768 40.4027 407.683 40.7278 407.704 41.0548V42.8508H406.838V39.0991H407.687V39.8858H407.704C407.771 39.648 407.904 39.4341 408.087 39.2686C408.245 39.1259 408.45 39.0466 408.663 39.0459C408.784 39.0396 408.905 39.0638 409.014 39.1161V39.9172Z" fill="#465154"/>
        <path d="M412.773 41.2149H410.217C410.212 41.3636 410.238 41.5117 410.293 41.65C410.348 41.7883 410.431 41.9137 410.536 42.0185C410.769 42.2195 411.071 42.3227 411.379 42.3065C411.775 42.3083 412.162 42.1827 412.482 41.9483V42.6333C412.07 42.8658 411.6 42.9774 411.127 42.9552C410.886 42.9682 410.646 42.9294 410.421 42.8413C410.197 42.7532 409.994 42.6178 409.827 42.4445C409.493 42.0428 409.325 41.5284 409.358 41.0067C409.336 40.4776 409.525 39.9614 409.883 39.5714C410.046 39.393 410.245 39.2514 410.467 39.1562C410.689 39.061 410.929 39.0144 411.17 39.0196C411.393 39.0055 411.615 39.0417 411.821 39.1255C412.027 39.2093 412.212 39.3386 412.361 39.5037C412.663 39.8963 412.812 40.3844 412.782 40.8785L412.773 41.2149ZM411.952 40.6122C411.966 40.3571 411.89 40.1054 411.737 39.9006C411.665 39.816 411.575 39.7489 411.474 39.7044C411.372 39.6599 411.262 39.6393 411.151 39.644C411.034 39.6423 410.918 39.6653 410.811 39.7116C410.704 39.7579 410.608 39.8265 410.529 39.9127C410.352 40.1059 410.242 40.3514 410.217 40.6122H411.952Z" fill="#465154"/>
        <path d="M415.501 42.6501V41.7521C415.588 41.8301 415.685 41.8968 415.789 41.9506C415.902 42.0098 416.02 42.0592 416.142 42.0982C416.264 42.1382 416.389 42.1697 416.515 42.1926C416.628 42.2138 416.743 42.2252 416.859 42.2265C417.143 42.2458 417.428 42.1819 417.677 42.0425C417.764 41.9847 417.834 41.9052 417.882 41.8119C417.929 41.7185 417.951 41.6145 417.945 41.51C417.948 41.3955 417.917 41.2826 417.856 41.1857C417.791 41.0911 417.709 41.009 417.614 40.9437C417.493 40.8607 417.366 40.7879 417.234 40.7258L416.767 40.508C416.589 40.4128 416.423 40.316 416.268 40.2175C416.12 40.124 415.983 40.0126 415.861 39.8859C415.749 39.769 415.659 39.6329 415.595 39.4842C415.527 39.3184 415.494 39.1404 415.498 38.9613C415.493 38.7354 415.551 38.5123 415.665 38.3175C415.776 38.1361 415.927 37.9822 416.106 37.8673C416.297 37.745 416.507 37.6558 416.728 37.6035C416.961 37.5457 417.2 37.5165 417.44 37.5164C417.852 37.4905 418.265 37.5541 418.65 37.7027V38.5644C418.311 38.3376 417.908 38.2248 417.5 38.2425C417.37 38.2424 417.24 38.2545 417.113 38.2788C416.993 38.3006 416.877 38.3415 416.769 38.3998C416.674 38.453 416.591 38.5265 416.527 38.6152C416.462 38.7088 416.429 38.8209 416.433 38.9347C416.43 39.041 416.455 39.1462 416.505 39.2397C416.559 39.3345 416.633 39.417 416.721 39.4817C416.829 39.5616 416.944 39.6312 417.064 39.6899C417.2 39.7577 417.356 39.8303 417.534 39.9077C417.711 39.9852 417.884 40.0852 418.052 40.2079C418.208 40.3074 418.351 40.4244 418.48 40.5564C418.601 40.68 418.7 40.8232 418.773 40.98C418.848 41.1465 418.885 41.3275 418.882 41.51C418.893 41.7331 418.843 41.955 418.738 42.1522C418.634 42.3494 418.478 42.5147 418.287 42.6307C418.093 42.7476 417.88 42.8295 417.657 42.8727C417.411 42.9253 417.159 42.9513 416.907 42.9502C416.82 42.9502 416.712 42.9437 416.583 42.9308C416.454 42.9179 416.318 42.8969 416.176 42.8679C416.048 42.8432 415.921 42.8116 415.796 42.7735C415.693 42.7456 415.593 42.7041 415.501 42.6501Z" fill="#465154"/>
        <path d="M422.711 39.1064L421.017 43.4631C420.665 44.2392 420.171 44.6273 419.536 44.6273C419.385 44.6302 419.234 44.6139 419.088 44.5789V43.8721C419.206 43.9129 419.329 43.935 419.453 43.9375C419.605 43.94 419.755 43.8965 419.882 43.8127C420.009 43.729 420.107 43.6088 420.165 43.4679L420.407 42.8532L418.916 39.1088H419.858L420.775 41.8221C420.785 41.8559 420.806 41.9463 420.84 42.0931H420.86C420.873 42.0367 420.894 41.9487 420.925 41.8293L421.864 39.0967L422.711 39.1064Z" fill="#465154"/>
        <path d="M426.614 42.858H425.764V40.745C425.764 40.0447 425.516 39.6945 425.021 39.6945C424.899 39.6918 424.778 39.7165 424.667 39.7667C424.556 39.817 424.458 39.8916 424.38 39.985C424.213 40.1894 424.127 40.4477 424.138 40.7111V42.8508H423.283V39.0991H424.138V39.7212H424.152C424.268 39.5019 424.443 39.3193 424.656 39.1936C424.87 39.0679 425.114 39.0042 425.362 39.0096C425.538 38.9985 425.714 39.0286 425.876 39.0975C426.039 39.1664 426.182 39.2722 426.297 39.4065C426.533 39.7415 426.646 40.1474 426.619 40.5562L426.614 42.858Z" fill="#465154"/>
        <path d="M430.478 42.8579H429.653V42.2722H429.638C429.531 42.4809 429.367 42.6551 429.166 42.7746C428.964 42.8941 428.732 42.9541 428.498 42.9475C428.181 42.965 427.87 42.8572 427.632 42.6474C427.527 42.5442 427.445 42.4203 427.391 42.2835C427.337 42.1468 427.313 42.0003 427.319 41.8535C427.319 41.1451 427.728 40.732 428.544 40.6142L429.657 40.4569C429.657 39.9228 429.403 39.6557 428.895 39.6557C428.448 39.6553 428.017 39.8199 427.685 40.118V39.375C428.101 39.1354 428.575 39.014 429.055 39.024C430.002 39.024 430.476 39.4903 430.476 40.423L430.478 42.8579ZM429.657 41.016L428.871 41.1249C428.676 41.1399 428.487 41.2004 428.319 41.3016C428.253 41.3565 428.202 41.4267 428.17 41.5061C428.138 41.5855 428.126 41.6715 428.135 41.7566C428.133 41.8301 428.147 41.9031 428.176 41.9704C428.205 42.0378 428.249 42.0979 428.304 42.1463C428.431 42.2556 428.595 42.3127 428.762 42.3061C428.883 42.3093 429.002 42.2865 429.114 42.2393C429.225 42.1921 429.324 42.1216 429.406 42.0326C429.578 41.8434 429.669 41.5936 429.657 41.3379V41.016Z" fill="#465154"/>
        <path d="M432.304 42.3061H432.289V44.5837H431.439V39.1063H432.289V39.7646H432.304C432.425 39.5329 432.608 39.3399 432.834 39.2077C433.06 39.0754 433.318 39.0093 433.579 39.0167C433.791 39.0064 434.002 39.0464 434.196 39.1335C434.39 39.2205 434.56 39.3522 434.692 39.5178C434.976 39.9081 435.117 40.3841 435.092 40.8659C435.12 41.4039 434.961 41.9349 434.642 42.369C434.495 42.5536 434.308 42.701 434.093 42.799C433.879 42.897 433.645 42.9429 433.41 42.933C433.186 42.9392 432.964 42.8841 432.769 42.7736C432.574 42.6631 432.413 42.5014 432.304 42.3061ZM432.282 40.8248V41.2895C432.275 41.547 432.369 41.797 432.543 41.9866C432.636 42.0834 432.748 42.1589 432.873 42.208C432.998 42.257 433.132 42.2783 433.265 42.2705C433.399 42.2627 433.53 42.2259 433.648 42.1626C433.766 42.0994 433.869 42.0112 433.949 41.9043C434.146 41.5986 434.24 41.2383 434.218 40.8756C434.239 40.5676 434.153 40.2618 433.976 40.0091C433.895 39.9072 433.792 39.8257 433.673 39.7715C433.555 39.7172 433.426 39.6917 433.296 39.6969C433.158 39.6925 433.022 39.7192 432.896 39.7749C432.77 39.8307 432.659 39.914 432.57 40.0188C432.377 40.2426 432.275 40.5297 432.282 40.8248Z" fill="#465154"/>
        <path d="M435.691 42.7417V41.9551C435.994 42.188 436.367 42.3117 436.749 42.306C437.262 42.306 437.519 42.1544 437.519 41.851C437.521 41.7732 437.498 41.6968 437.453 41.6332C437.405 41.5692 437.345 41.5149 437.277 41.4734C437.193 41.4224 437.105 41.3802 437.013 41.3476L436.674 41.2241C436.531 41.1684 436.392 41.1038 436.258 41.0305C436.143 40.9664 436.04 40.8847 435.95 40.7884C435.87 40.7032 435.808 40.6028 435.766 40.4932C435.722 40.3697 435.701 40.2393 435.704 40.1083C435.699 39.938 435.743 39.77 435.832 39.6242C435.919 39.484 436.036 39.3649 436.175 39.2757C436.324 39.1793 436.488 39.1074 436.66 39.0627C436.845 39.0152 437.037 38.9916 437.228 38.9925C437.545 38.9875 437.86 39.0409 438.158 39.1498V39.8929C437.89 39.7111 437.573 39.6165 437.25 39.6218C437.152 39.621 437.055 39.6323 436.96 39.6557C436.881 39.6741 436.806 39.7051 436.737 39.7477C436.679 39.7831 436.631 39.8311 436.594 39.8881C436.56 39.9425 436.543 40.0055 436.543 40.0696C436.541 40.1416 436.558 40.2128 436.594 40.2753C436.633 40.3356 436.685 40.3862 436.747 40.423C436.823 40.4699 436.904 40.5088 436.989 40.5391L437.313 40.6553C437.461 40.7149 437.605 40.7819 437.746 40.8562C437.866 40.9212 437.976 41.0027 438.073 41.0983C438.162 41.1833 438.233 41.2854 438.281 41.3984C438.333 41.5268 438.357 41.6643 438.354 41.8026C438.358 41.9778 438.313 42.1508 438.223 42.3012C438.134 42.4434 438.014 42.5634 437.872 42.6522C437.715 42.7486 437.544 42.8181 437.364 42.8579C437.165 42.9038 436.962 42.9265 436.759 42.9257C436.394 42.9414 436.03 42.8787 435.691 42.7417Z" fill="#465154"/>
        <path d="M442.301 41.2144H439.745C439.74 41.3632 439.766 41.5113 439.821 41.6496C439.876 41.7879 439.959 41.9133 440.064 42.018C440.298 42.2167 440.598 42.3181 440.904 42.3012C441.301 42.3028 441.688 42.1772 442.008 41.943V42.6279C441.595 42.8605 441.126 42.9721 440.653 42.9499C440.412 42.9631 440.171 42.9243 439.947 42.8362C439.723 42.7481 439.52 42.6127 439.353 42.4392C439.017 42.0379 438.849 41.5234 438.881 41.0014C438.859 40.4758 439.045 39.9626 439.399 39.5734C439.562 39.3949 439.761 39.2533 439.983 39.1581C440.205 39.063 440.445 39.0164 440.686 39.0215C440.909 39.0074 441.131 39.0436 441.337 39.1274C441.543 39.2112 441.728 39.3405 441.877 39.5056C442.179 39.8982 442.328 40.3864 442.298 40.8804L442.301 41.2144ZM441.48 40.6117C441.494 40.3567 441.417 40.105 441.265 39.9001C441.193 39.816 441.103 39.7493 441.002 39.7052C440.9 39.6612 440.79 39.6409 440.679 39.646C440.562 39.6442 440.447 39.6672 440.339 39.7136C440.232 39.7599 440.136 39.8284 440.057 39.9147C439.88 40.1079 439.771 40.3533 439.745 40.6142L441.48 40.6117Z" fill="#465154"/>
        <path d="M407.747 51.8621H406.779L406.295 50.5236H404.252L403.797 51.8621H402.846L404.813 46.6074H405.796L407.747 51.8621ZM406.087 49.8096L405.361 47.7135C405.327 47.6073 405.302 47.4989 405.283 47.3892C405.268 47.5007 405.243 47.6107 405.21 47.7184L404.484 49.8145L406.087 49.8096Z" fill="#465154"/>
        <path d="M411.672 51.862H410.823V49.749C410.823 49.0487 410.575 48.6985 410.08 48.6985C409.958 48.6958 409.837 48.7205 409.726 48.7708C409.615 48.821 409.516 48.8956 409.438 48.989C409.272 49.1935 409.186 49.4517 409.196 49.7151V51.8548H408.332V48.1152H409.186V48.7373H409.201C409.317 48.5181 409.491 48.3354 409.705 48.2097C409.919 48.084 410.163 48.0203 410.411 48.0257C410.587 48.0146 410.763 48.0447 410.925 48.1136C411.087 48.1825 411.231 48.2883 411.345 48.4226C411.582 48.7556 411.697 49.1597 411.672 49.5675V51.862Z" fill="#465154"/>
        <path d="M415.538 51.8618H414.725V51.2761H414.701C414.594 51.4848 414.43 51.659 414.228 51.7785C414.026 51.898 413.795 51.958 413.561 51.9514C413.244 51.9689 412.932 51.8611 412.694 51.6513C412.589 51.5481 412.508 51.4242 412.454 51.2874C412.4 51.1507 412.375 51.0042 412.382 50.8574C412.382 50.149 412.79 49.7359 413.607 49.6181L414.72 49.4608C414.72 48.9267 414.466 48.6596 413.958 48.6596C413.511 48.6592 413.08 48.8238 412.747 49.1219V48.3789C413.163 48.1393 413.637 48.0179 414.117 48.0279C415.064 48.0279 415.538 48.4942 415.538 49.4269V51.8618ZM414.725 50.0199L413.938 50.1288C413.743 50.1438 413.554 50.2043 413.386 50.3055C413.321 50.3604 413.269 50.4306 413.237 50.51C413.205 50.5894 413.193 50.6754 413.202 50.7606C413.2 50.834 413.214 50.907 413.243 50.9744C413.273 51.0417 413.317 51.1018 413.372 51.1502C413.499 51.2563 413.661 51.3107 413.827 51.3027C413.947 51.3059 414.067 51.2832 414.178 51.236C414.29 51.1888 414.389 51.1183 414.471 51.0292C414.641 50.8435 414.732 50.5986 414.725 50.3467V50.0199Z" fill="#465154"/>
        <path d="M417.354 51.862H416.5V46.3096H417.354V51.862Z" fill="#465154"/>
        <path d="M421.691 48.1152L419.997 52.472C419.645 53.2481 419.151 53.6362 418.515 53.6362C418.365 53.6391 418.214 53.6228 418.067 53.5878V52.881C418.185 52.9218 418.308 52.9439 418.433 52.9464C418.585 52.9489 418.734 52.9054 418.861 52.8216C418.988 52.7378 419.087 52.6177 419.145 52.4768L419.387 51.862L417.91 48.1152H418.852L419.745 50.8406C419.755 50.8745 419.776 50.9649 419.81 51.1117H419.83C419.841 51.0552 419.863 50.9673 419.895 50.8479L420.834 48.1152H421.691Z" fill="#465154"/>
        <path d="M424.425 51.8229C424.219 51.9137 423.994 51.9559 423.769 51.9464C423.042 51.9464 422.678 51.597 422.678 50.8983V48.7781H422.051V48.1149H422.678V47.2459L423.527 47.0039V48.1149H424.425V48.7805H423.527V50.6563C423.51 50.8268 423.553 50.998 423.648 51.1404C423.701 51.1926 423.764 51.2325 423.834 51.2572C423.904 51.2819 423.979 51.2908 424.052 51.2832C424.187 51.2862 424.319 51.2426 424.425 51.1597V51.8229Z" fill="#465154"/>
        <path d="M425.485 47.3238C425.352 47.3268 425.224 47.2782 425.126 47.1883C425.078 47.1451 425.04 47.092 425.015 47.0327C424.989 46.9733 424.977 46.9091 424.979 46.8446C424.977 46.7793 424.989 46.7144 425.015 46.6543C425.04 46.5942 425.078 46.5402 425.126 46.496C425.223 46.4045 425.352 46.3549 425.485 46.3581C425.62 46.3548 425.751 46.4043 425.85 46.496C425.899 46.5399 425.937 46.5937 425.963 46.6539C425.989 46.7141 426.002 46.7791 426 46.8446C426.001 46.9085 425.987 46.9717 425.962 47.0301C425.936 47.0886 425.898 47.1408 425.85 47.1834C425.751 47.2764 425.62 47.3269 425.485 47.3238ZM425.906 51.8621H425.056V48.1153H425.906V51.8621Z" fill="#465154"/>
        <path d="M429.61 51.6901C429.284 51.8694 428.917 51.9588 428.545 51.9491C428.296 51.9596 428.048 51.9185 427.816 51.8286C427.584 51.7386 427.373 51.6016 427.197 51.4263C427.025 51.2469 426.891 51.0346 426.802 50.8021C426.714 50.5696 426.674 50.3217 426.684 50.0733C426.671 49.8009 426.714 49.5287 426.809 49.273C426.903 49.0173 427.049 48.7832 427.236 48.5847C427.429 48.3948 427.66 48.2468 427.914 48.1502C428.168 48.0536 428.439 48.0104 428.71 48.0232C429.021 48.0167 429.33 48.0779 429.615 48.2023V48.9938C429.377 48.8065 429.083 48.7035 428.78 48.7009C428.615 48.6957 428.451 48.7256 428.299 48.7886C428.146 48.8516 428.009 48.9463 427.896 49.0664C427.661 49.3267 427.537 49.6693 427.553 50.02C427.544 50.1872 427.567 50.3544 427.623 50.5123C427.679 50.6701 427.765 50.8154 427.877 50.9398C427.99 51.0534 428.126 51.1421 428.276 51.2C428.426 51.2579 428.586 51.2839 428.746 51.2762C429.063 51.2715 429.369 51.1559 429.61 50.9495V51.6901Z" fill="#465154"/>
        <path d="M430.215 51.7457V50.9591C430.514 51.1948 430.884 51.3227 431.265 51.3222C431.778 51.3222 432.035 51.1705 432.035 50.8671C432.037 50.7893 432.015 50.7129 431.97 50.6493C431.921 50.5852 431.862 50.531 431.793 50.4895C431.71 50.4385 431.621 50.3963 431.529 50.3637L431.19 50.2402C431.048 50.1845 430.909 50.1199 430.774 50.0466C430.66 49.9824 430.556 49.9008 430.467 49.8046C430.386 49.7194 430.324 49.619 430.283 49.5093C430.239 49.3859 430.217 49.2555 430.22 49.1244C430.215 48.9541 430.26 48.7861 430.348 48.6404C430.435 48.5001 430.553 48.381 430.692 48.2918C430.841 48.1954 431.004 48.1235 431.176 48.0788C431.362 48.0313 431.553 48.0077 431.745 48.0086C432.061 48.0036 432.376 48.0569 432.674 48.166V48.909C432.407 48.7273 432.09 48.6326 431.766 48.6379C431.668 48.6371 431.571 48.6485 431.476 48.6718C431.397 48.6902 431.322 48.7213 431.253 48.7638C431.196 48.7992 431.147 48.8472 431.11 48.9042C431.076 48.9586 431.059 49.0216 431.06 49.0857C431.057 49.1577 431.075 49.2289 431.11 49.2914C431.149 49.3518 431.201 49.4023 431.263 49.4391C431.339 49.486 431.42 49.5249 431.505 49.5553L431.829 49.6714C431.977 49.731 432.122 49.798 432.263 49.8723C432.383 49.9372 432.494 50.0187 432.592 50.1144C432.681 50.1994 432.751 50.3015 432.8 50.4145C432.851 50.5429 432.876 50.6805 432.872 50.8187C432.877 50.994 432.832 51.1669 432.742 51.3173C432.653 51.4595 432.533 51.5795 432.391 51.6683C432.234 51.7648 432.062 51.8343 431.883 51.874C431.684 51.9199 431.481 51.9426 431.277 51.9418C430.913 51.953 430.551 51.8861 430.215 51.7457Z" fill="#465154"/>
        <path d="M417.172 7.69434L406.176 13.9874V26.5493L417.172 32.9102L428.168 26.6171V14.0116L417.172 7.69434ZM426.127 25.3028L417.172 30.4849L408.207 25.3633V15.2315L417.162 10.0494L426.118 15.246L426.127 25.3028Z" fill="#0078D4"/>
        <path d="M422.414 22.3691C422.306 22.1953 422.148 22.0579 421.961 21.9746C421.393 20.7302 420.521 19.6484 419.426 18.8284C418.33 18.0084 417.047 17.4765 415.693 17.2814L424.767 12.0388L422.656 10.8286L412.318 16.7998C412.118 16.9154 411.961 17.0941 411.872 17.3081C411.784 17.522 411.769 17.7592 411.829 17.9828C411.889 18.2064 412.021 18.4039 412.205 18.5445C412.389 18.6851 412.615 18.761 412.846 18.7603C412.889 18.7526 412.931 18.7421 412.972 18.7288L413.146 19.455C414.465 19.1451 415.85 19.2867 417.078 19.8572C418.307 20.4277 419.309 21.3941 419.923 22.6015L409.627 28.546L411.728 29.7562L422.029 23.802C422.167 23.7196 422.283 23.606 422.368 23.4704L422.472 23.4462C422.472 23.4051 422.448 23.3688 422.438 23.3276C422.512 23.1779 422.549 23.0124 422.545 22.8454C422.54 22.6784 422.496 22.5149 422.414 22.3691Z" fill="#50E6FF"/>
        <path d="M421.502 20.3216C420.989 20.3216 420.488 20.4737 420.062 20.7585C419.636 21.0434 419.303 21.4482 419.107 21.9219C418.911 22.3956 418.86 22.9168 418.96 23.4196C419.06 23.9225 419.306 24.3844 419.669 24.7469C420.032 25.1094 420.493 25.3563 420.996 25.4564C421.499 25.5564 422.02 25.505 422.494 25.3088C422.968 25.1126 423.373 24.7804 423.657 24.3541C423.942 23.9278 424.094 23.4266 424.094 22.9139C424.094 22.2264 423.821 21.567 423.335 21.0809C422.849 20.5948 422.19 20.3216 421.502 20.3216ZM412.844 15.0718C412.332 15.0718 411.83 15.2238 411.404 15.5087C410.978 15.7935 410.645 16.1983 410.449 16.672C410.253 17.1457 410.202 17.6669 410.302 18.1698C410.402 18.6726 410.649 19.1345 411.011 19.497C411.374 19.8596 411.836 20.1065 412.338 20.2065C412.841 20.3065 413.363 20.2552 413.836 20.059C414.31 19.8628 414.715 19.5305 415 19.1042C415.284 18.6779 415.436 18.1767 415.436 17.664C415.436 16.9765 415.163 16.3172 414.677 15.831C414.191 15.3449 413.532 15.0718 412.844 15.0718Z" fill="url(#paint4_linear_8130_79132)"/>
    </g>
    <rect width="91.8691" height="61.2461" transform="translate(464.754 0.0385742)" fill="white"/>
    <g clip-path="url(#clip5_8130_79132)">
        <path d="M527.765 34.1339H493.449C490.019 34.1339 487.246 31.3529 487.246 27.9314V22.1166C487.246 18.6867 490.027 15.9141 493.449 15.9141H527.765C531.195 15.9141 533.967 18.6951 533.967 22.1166V27.9314C533.967 31.3614 531.195 34.1339 527.765 34.1339Z" fill="black"/>
        <path d="M496.592 32.0947C500.497 32.0947 503.663 28.9291 503.663 25.0241C503.663 21.1192 500.497 17.9536 496.592 17.9536C492.687 17.9536 489.521 21.1192 489.521 25.0241C489.521 28.9291 492.687 32.0947 496.592 32.0947Z" fill="#0178D4"/>
        <path d="M510.733 30.0891C513.53 30.0891 515.798 27.8215 515.798 25.0243C515.798 22.2271 513.53 19.9595 510.733 19.9595C507.936 19.9595 505.668 22.2271 505.668 25.0243C505.668 27.8215 507.936 30.0891 510.733 30.0891Z" fill="#0178D4"/>
        <path d="M528.151 22.479H525.842V24.7881H528.151V22.479Z" fill="white"/>
        <path d="M525.379 22.479H523.07V24.7881H525.379V22.479Z" fill="white"/>
        <path d="M528.151 25.2598H525.842V27.5689H528.151V25.2598Z" fill="white"/>
        <path d="M525.379 25.2598H523.07V27.5689H525.379V25.2598Z" fill="white"/>
        <path d="M480.799 45.3254L480.353 43.8591H478.094L477.648 45.3254H476.24L478.414 39.1313H480.016L482.207 45.3254H480.799ZM480.033 42.7551C479.62 41.4236 479.384 40.6735 479.333 40.4966C479.282 40.3196 479.24 40.1848 479.224 40.0836C479.131 40.446 478.861 41.3309 478.423 42.7551H480.033Z" fill="#0178D4"/>
        <path d="M486.167 45.3253H482.434V44.5668L484.616 41.592H482.568V40.606H486.091V41.4403L483.967 44.3393H486.167V45.3253Z" fill="#0178D4"/>
        <path d="M490.44 45.3253L490.263 44.7185H490.196C490.061 44.9376 489.858 45.1061 489.606 45.2241C489.353 45.3421 489.066 45.4011 488.738 45.4011C488.181 45.4011 487.768 45.2494 487.482 44.9545C487.204 44.6595 487.061 44.2297 487.061 43.6735V40.606H488.35V43.3617C488.35 43.6988 488.409 43.96 488.535 44.1286C488.653 44.2971 488.847 44.3814 489.117 44.3814C489.479 44.3814 489.74 44.2634 489.901 44.019C490.061 43.7746 490.145 43.3785 490.145 42.8223V40.606H491.434V45.3253H490.44Z" fill="#0178D4"/>
        <path d="M495.411 40.5132C495.588 40.5132 495.731 40.5216 495.849 40.5469L495.748 41.752C495.647 41.7267 495.521 41.7099 495.369 41.7099C494.956 41.7099 494.636 41.8194 494.408 42.0301C494.181 42.2408 494.063 42.5357 494.063 42.915V45.3252H492.773V40.6059H493.751L493.945 41.3981H494.012C494.156 41.1368 494.358 40.9177 494.602 40.7576C494.847 40.5975 495.116 40.5132 495.411 40.5132Z" fill="#0178D4"/>
        <path d="M498.842 45.4095C498.084 45.4095 497.486 45.1988 497.064 44.7774C496.635 44.356 496.424 43.7661 496.424 42.9992C496.424 42.2071 496.618 41.6003 497.014 41.1621C497.41 40.7323 497.958 40.5132 498.657 40.5132C499.323 40.5132 499.845 40.707 500.216 41.0862C500.587 41.4655 500.772 41.988 500.772 42.6622V43.2858H497.73C497.747 43.6481 497.856 43.9347 498.059 44.1454C498.261 44.356 498.548 44.4572 498.91 44.4572C499.196 44.4572 499.466 44.4235 499.719 44.3645C499.972 44.3055 500.233 44.2128 500.511 44.0779V45.0724C500.284 45.1819 500.048 45.2662 499.786 45.3252C499.525 45.3842 499.213 45.4095 498.842 45.4095ZM498.657 41.4318C498.387 41.4318 498.168 41.516 498.017 41.693C497.865 41.87 497.772 42.1144 497.747 42.4262H499.55C499.542 42.1059 499.458 41.8616 499.298 41.693C499.154 41.516 498.935 41.4318 498.657 41.4318Z" fill="#0178D4"/>
        <path d="M509.124 45.3251H507.641L506.023 42.721L505.466 43.1171V45.3251H504.16V39.1562H505.466V41.9794L505.98 41.2547L507.649 39.1562H509.107L506.958 41.8867L509.124 45.3251Z" fill="#0178D4"/>
        <path d="M509.748 39.384C509.748 38.9626 509.984 38.752 510.448 38.752C510.911 38.752 511.147 38.9626 511.147 39.384C511.147 39.5863 511.088 39.738 510.97 39.8475C510.852 39.9571 510.675 40.0161 510.448 40.0161C509.984 40.0161 509.748 39.8054 509.748 39.384ZM511.088 45.3253H509.799V40.606H511.088V45.3253Z" fill="#0178D4"/>
        <path d="M516.793 45.3255H515.512V42.5698C515.512 42.2327 515.453 41.9715 515.327 41.8029C515.209 41.6344 515.015 41.5501 514.745 41.5501C514.383 41.5501 514.122 41.6681 513.962 41.9125C513.801 42.1569 513.717 42.553 513.717 43.1092V45.3255H512.428V40.6062H513.414L513.591 41.213H513.667C513.81 40.9855 514.004 40.8085 514.256 40.6989C514.509 40.581 514.796 40.522 515.116 40.522C515.664 40.522 516.085 40.6737 516.363 40.9686C516.65 41.2636 516.793 41.6934 516.793 42.258V45.3255Z" fill="#0178D4"/>
        <path d="M520.255 45.4095C519.496 45.4095 518.898 45.1988 518.476 44.7774C518.047 44.356 517.836 43.7661 517.836 42.9992C517.836 42.2071 518.03 41.6003 518.426 41.1621C518.822 40.7323 519.37 40.5132 520.069 40.5132C520.735 40.5132 521.257 40.707 521.628 41.0862C521.999 41.4655 522.184 41.988 522.184 42.6622V43.2858H519.134C519.151 43.6481 519.26 43.9347 519.462 44.1454C519.665 44.3476 519.951 44.4572 520.314 44.4572C520.6 44.4572 520.87 44.4235 521.123 44.3645C521.375 44.3055 521.637 44.2128 521.915 44.0779V45.0724C521.687 45.1819 521.451 45.2662 521.19 45.3252C520.937 45.3842 520.625 45.4095 520.255 45.4095ZM520.078 41.4318C519.808 41.4318 519.589 41.516 519.437 41.693C519.285 41.87 519.193 42.1144 519.167 42.4262H520.971C520.962 42.1059 520.878 41.8616 520.718 41.693C520.566 41.516 520.347 41.4318 520.078 41.4318Z" fill="#0178D4"/>
        <path d="M525.145 45.4098C523.678 45.4098 522.945 44.6008 522.945 42.9912C522.945 42.1906 523.148 41.5754 523.544 41.154C523.94 40.7327 524.513 40.522 525.263 40.522C525.811 40.522 526.299 40.6315 526.729 40.8422L526.35 41.8366C526.148 41.7524 525.962 41.6849 525.785 41.6344C525.608 41.5838 525.44 41.5585 525.263 41.5585C524.597 41.5585 524.26 42.0305 524.26 42.9828C524.26 43.9098 524.597 44.3648 525.263 44.3648C525.507 44.3648 525.743 44.3311 525.954 44.2637C526.165 44.1963 526.375 44.0952 526.586 43.9519V45.0559C526.375 45.1907 526.165 45.2834 525.954 45.334C525.743 45.3845 525.474 45.4098 525.145 45.4098Z" fill="#0178D4"/>
        <path d="M529.662 44.3813C529.889 44.3813 530.159 44.3308 530.471 44.2296V45.1903C530.151 45.3336 529.755 45.4095 529.291 45.4095C528.777 45.4095 528.398 45.283 528.17 45.0218C527.934 44.7605 527.816 44.3729 527.816 43.8504V41.575H527.201V41.0272L527.909 40.5975L528.28 39.603H529.106V40.6059H530.429V41.575H529.106V43.8504C529.106 44.0358 529.156 44.1706 529.257 44.2549C529.359 44.3392 529.493 44.3813 529.662 44.3813Z" fill="#0178D4"/>
        <path d="M538.897 42.1817C538.897 43.2014 538.61 43.9767 538.029 44.516C537.447 45.0554 536.613 45.3251 535.526 45.3251H533.781V39.1562H535.72C536.731 39.1562 537.506 39.4259 538.071 39.9568C538.619 40.4793 538.897 41.2294 538.897 42.1817ZM537.54 42.2154C537.54 40.8923 536.958 40.2265 535.787 40.2265H535.087V44.2464H535.652C536.908 44.2464 537.54 43.5637 537.54 42.2154Z" fill="#0178D4"/>
        <path d="M545.141 45.3251H543.658L542.04 42.721L541.484 43.1171V45.3251H540.178V39.1562H541.484V41.9794L541.998 41.2547L543.667 39.1562H545.116L542.967 41.8867L545.141 45.3251Z" fill="#0178D4"/>
    </g>
    <rect width="91.8691" height="61.2461" transform="translate(557.58 0.0385742)" fill="white"/>
    <g clip-path="url(#clip6_8130_79132)">
        <path d="M618.641 16.8552L599.296 7.91763C598.115 7.36642 596.724 7.89138 596.173 9.07256L587.235 28.4044C586.684 29.5856 587.209 30.9768 588.39 31.528L607.735 40.4655C608.916 41.0168 610.307 40.4918 610.858 39.3106L619.796 19.9656C620.334 18.7976 619.822 17.3933 618.641 16.8552Z" fill="#70C9E4"/>
        <path d="M592.865 33.602L607.735 40.4659C608.916 41.0171 610.307 40.4922 610.858 39.311L613.496 33.5889H592.865V33.602Z" fill="#1463B9"/>
        <path d="M610.294 11.3955H593.482C592.183 11.3955 591.133 12.4454 591.133 13.7447V35.0584C591.133 36.3577 592.183 37.4076 593.482 37.4076H614.796C616.095 37.4076 617.145 36.3577 617.145 35.0584V18.5482C617.145 18.2201 617.014 17.9051 616.791 17.6557L611.226 11.7761C610.99 11.5399 610.648 11.3955 610.294 11.3955Z" fill="#1463B9"/>
        <path d="M604.86 19.6374L603.928 23.1153H606.513C606.697 23.1153 606.802 23.3122 606.697 23.4566L602.222 29.9793C602.078 30.1893 601.763 30.0318 601.828 29.7955L602.97 25.8845H600.358C600.175 25.8845 600.07 25.6877 600.175 25.5302L604.479 19.4537C604.597 19.2568 604.925 19.4012 604.86 19.6374Z" fill="#F7F7F7"/>
        <path d="M582.365 53.5377L581.893 51.9891H579.517L579.045 53.5377H577.549L579.846 46.9888H581.539L583.848 53.5377H582.365ZM581.552 50.8341C581.119 49.4299 580.869 48.6293 580.817 48.4456C580.764 48.2618 580.725 48.1174 580.699 48.0125C580.607 48.3931 580.318 49.338 579.859 50.8341H581.552Z" fill="#1463B9"/>
        <path d="M588.035 53.5375H584.098V52.7369L586.408 49.5871H584.229V48.5503H587.943V49.4296L585.699 52.4875H588.022V53.5375H588.035Z" fill="#1463B9"/>
        <path d="M592.549 53.5374L592.365 52.8943H592.299C592.155 53.1306 591.945 53.3012 591.683 53.4324C591.42 53.5637 591.105 53.6162 590.764 53.6162C590.173 53.6162 589.74 53.4587 589.438 53.1437C589.137 52.8287 588.992 52.3825 588.992 51.7919V48.5371H590.357V51.4507C590.357 51.805 590.423 52.0806 590.554 52.2644C590.685 52.4481 590.882 52.54 591.171 52.54C591.551 52.54 591.827 52.4087 591.998 52.1594C592.168 51.91 592.247 51.49 592.247 50.8995V48.5502H593.612V53.5374H592.549Z" fill="#1463B9"/>
        <path d="M597.799 48.4585C597.983 48.4585 598.141 48.4716 598.259 48.4979L598.154 49.7709C598.049 49.7447 597.904 49.7315 597.747 49.7315C597.314 49.7315 596.973 49.8365 596.736 50.0596C596.5 50.2828 596.369 50.5977 596.369 50.9915V53.5244H595.004V48.5372H596.028L596.224 49.3772H596.29C596.448 49.1016 596.658 48.8785 596.92 48.7079C597.209 48.5504 597.497 48.4585 597.799 48.4585Z" fill="#1463B9"/>
        <path d="M601.421 53.6294C600.62 53.6294 599.99 53.4063 599.544 52.9601C599.098 52.5139 598.861 51.8839 598.861 51.0833C598.861 50.2434 599.071 49.6003 599.491 49.1409C599.911 48.6816 600.489 48.4585 601.224 48.4585C601.932 48.4585 602.47 48.6554 602.864 49.0622C603.258 49.4691 603.455 50.0203 603.455 50.729V51.3852H600.239C600.252 51.7658 600.371 52.0676 600.581 52.2907C600.791 52.5139 601.092 52.6189 601.486 52.6189C601.788 52.6189 602.077 52.5926 602.339 52.527C602.602 52.4614 602.89 52.3695 603.179 52.2251V53.2751C602.943 53.3932 602.694 53.485 602.418 53.5375C602.142 53.6032 601.814 53.6294 601.421 53.6294ZM601.237 49.4297C600.948 49.4297 600.725 49.5216 600.554 49.7053C600.397 49.889 600.292 50.1515 600.279 50.4796H602.182C602.182 50.1384 602.09 49.889 601.919 49.7053C601.749 49.5216 601.526 49.4297 601.237 49.4297Z" fill="#1463B9"/>
        <path d="M608.431 51.0438V53.5505H607.053V47.0278H608.956C609.835 47.0278 610.491 47.1853 610.924 47.5134C611.344 47.8415 611.567 48.3271 611.567 48.9833C611.567 49.3639 611.462 49.7052 611.252 50.007C611.042 50.3089 610.741 50.5451 610.36 50.7157C611.344 52.1856 611.974 53.1306 612.276 53.5505H610.741L609.179 51.0438H608.431ZM608.431 49.9151H608.877C609.31 49.9151 609.638 49.8364 609.848 49.692C610.058 49.5477 610.163 49.3114 610.163 49.0096C610.163 48.6946 610.058 48.4846 609.848 48.3534C609.638 48.2221 609.31 48.1565 608.864 48.1565H608.444V49.9151H608.431Z" fill="#1463B9"/>
        <path d="M615.583 53.5374H614.205V48.1696H612.434V47.0146H617.355V48.1696H615.583V53.5374Z" fill="#1463B9"/>
        <path d="M624.284 50.2696C624.284 51.3458 624.022 52.1726 623.484 52.7632C622.946 53.3406 622.185 53.6294 621.187 53.6294C620.19 53.6294 619.415 53.3406 618.89 52.7632C618.352 52.1857 618.09 51.3458 618.09 50.2696C618.09 49.1803 618.352 48.3534 618.89 47.7891C619.429 47.2116 620.203 46.936 621.2 46.936C622.198 46.936 622.972 47.2248 623.497 47.8022C624.009 48.3534 624.284 49.1934 624.284 50.2696ZM619.52 50.2696C619.52 51.0045 619.665 51.5426 619.94 51.9101C620.216 52.2776 620.636 52.4613 621.174 52.4613C622.276 52.4613 622.828 51.7263 622.828 50.2564C622.828 48.7865 622.276 48.0516 621.187 48.0516C620.636 48.0516 620.216 48.2353 619.94 48.6028C619.665 48.9965 619.52 49.5477 619.52 50.2696Z" fill="#1463B9"/>
        <path d="M629.481 51.7263C629.481 52.3169 629.271 52.7762 628.851 53.1175C628.431 53.4587 627.84 53.6293 627.079 53.6293C626.383 53.6293 625.767 53.4981 625.229 53.2356V51.9494C625.675 52.1463 626.042 52.2775 626.344 52.3694C626.646 52.4481 626.922 52.4875 627.184 52.4875C627.486 52.4875 627.722 52.435 627.88 52.3169C628.037 52.1988 628.129 52.0281 628.129 51.805C628.129 51.6738 628.09 51.5688 628.024 51.4638C627.958 51.3588 627.853 51.2669 627.709 51.1751C627.565 51.0832 627.289 50.9388 626.869 50.7289C626.475 50.5451 626.173 50.3614 625.977 50.1908C625.78 50.0202 625.622 49.8233 625.504 49.5871C625.386 49.3639 625.32 49.0883 625.32 48.7865C625.32 48.209 625.517 47.7628 625.911 47.4216C626.305 47.0935 626.843 46.9229 627.538 46.9229C627.88 46.9229 628.195 46.9622 628.51 47.041C628.811 47.1197 629.14 47.2378 629.481 47.3822L629.035 48.4584C628.68 48.314 628.405 48.2221 628.168 48.1565C627.945 48.104 627.722 48.0778 627.499 48.0778C627.237 48.0778 627.04 48.1434 626.895 48.2615C626.751 48.3796 626.685 48.5371 626.685 48.734C626.685 48.8521 626.712 48.9571 626.764 49.049C626.817 49.1408 626.908 49.2327 627.04 49.3114C627.158 49.3902 627.46 49.5477 627.919 49.7708C628.523 50.0595 628.943 50.3483 629.166 50.6501C629.363 50.952 629.481 51.3063 629.481 51.7263Z" fill="#1463B9"/>
    </g>
    <defs>
        <linearGradient id="paint0_linear_8130_79132" x1="47.115" y1="5.12884" x2="46.2052" y2="41.4122" gradientUnits="userSpaceOnUse">
            <stop stop-color="#32D4F5"/>
            <stop offset="0.23" stop-color="#31D0F1"/>
            <stop offset="0.46" stop-color="#2CC3E6"/>
            <stop offset="0.7" stop-color="#25AFD4"/>
            <stop offset="0.94" stop-color="#1C92BA"/>
            <stop offset="1" stop-color="#198AB3"/>
        </linearGradient>
        <radialGradient id="paint1_radial_8130_79132" cx="0" cy="0" r="1" gradientUnits="userSpaceOnUse" gradientTransform="translate(231.18 25.5388) scale(13.3412 13.2129)">
            <stop offset="0.18" stop-color="#5EA0EF"/>
            <stop offset="1" stop-color="#0078D4"/>
        </radialGradient>
        <linearGradient id="paint2_linear_8130_79132" x1="315.512" y1="22.0864" x2="334.614" y2="22.0864" gradientUnits="userSpaceOnUse">
            <stop stop-color="#005BA1"/>
            <stop offset="0.07" stop-color="#0060A9"/>
            <stop offset="0.36" stop-color="#0071C8"/>
            <stop offset="0.52" stop-color="#0078D4"/>
            <stop offset="0.64" stop-color="#0074CD"/>
            <stop offset="0.82" stop-color="#006ABB"/>
            <stop offset="1" stop-color="#005BA1"/>
        </linearGradient>
        <radialGradient id="paint3_radial_8130_79132" cx="0" cy="0" r="1" gradientUnits="userSpaceOnUse" gradientTransform="translate(325.599 22.6963) scale(10.5338)">
            <stop stop-color="#F2F2F2"/>
            <stop offset="0.58" stop-color="#EEEEEE"/>
            <stop offset="1" stop-color="#E6E6E6"/>
        </radialGradient>
        <linearGradient id="paint4_linear_8130_79132" x1="417.174" y1="25.5037" x2="417.174" y2="15.1008" gradientUnits="userSpaceOnUse">
            <stop stop-color="#198AB3"/>
            <stop offset="0.17" stop-color="#32BEDD"/>
            <stop offset="0.5" stop-color="#198AB3"/>
            <stop offset="0.66" stop-color="#32BEDD"/>
            <stop offset="0.97" stop-color="#50E6FF"/>
        </linearGradient>
        <clipPath id="clip0_8130_79132">
            <rect width="54.6732" height="45.9345" fill="white" transform="translate(19.2207 7.69434)"/>
        </clipPath>
        <clipPath id="clip1_8130_79132">
            <rect width="40.8307" height="45.9345" fill="white" transform="translate(118.967 7.69434)"/>
        </clipPath>
        <clipPath id="clip2_8130_79132">
            <rect width="56.8228" height="45.9345" fill="white" transform="translate(203.797 7.69434)"/>
        </clipPath>
        <clipPath id="clip3_8130_79132">
            <rect width="38.58" height="45.9345" fill="white" transform="translate(305.744 7.69434)"/>
        </clipPath>
        <clipPath id="clip4_8130_79132">
            <rect width="48.8753" height="45.9345" fill="white" transform="translate(393.424 7.69434)"/>
        </clipPath>
        <clipPath id="clip5_8130_79132">
            <rect width="68.9018" height="29.4956" fill="white" transform="translate(476.236 15.9141)"/>
        </clipPath>
        <clipPath id="clip6_8130_79132">
            <rect width="51.9323" height="45.9345" fill="white" transform="translate(577.549 7.69434)"/>
        </clipPath>
    </defs>
</svg>
