<svg width="465" height="63" viewBox="0 0 465 63" fill="none" xmlns="http://www.w3.org/2000/svg">
    <rect width="91.8691" height="61.2461" transform="translate(0.623047 0.0585938)" fill="white"/>
    <g clip-path="url(#clip0_8130_79392)">
        <path d="M31.5186 25.0344C31.5186 25.8827 31.6155 26.5613 31.7609 27.0702C31.9548 27.5792 32.1729 28.1123 32.488 28.7182C32.6092 28.9121 32.6576 29.0818 32.6576 29.2514C32.6576 29.4695 32.5122 29.7119 32.2214 29.93L30.7673 30.8994C30.5491 31.0448 30.3552 31.1176 30.1614 31.1176C29.9432 31.1176 29.7009 30.9964 29.4828 30.8025C29.1677 30.4632 28.8769 30.0997 28.6588 29.7361C28.4406 29.3484 28.1983 28.9121 27.9559 28.3789C26.1625 30.4874 23.9328 31.5296 21.2184 31.5296C19.3038 31.5296 17.7527 30.9721 16.6379 29.8815C15.5231 28.7909 14.9414 27.3126 14.9414 25.4707C14.9414 23.5318 15.62 21.9323 17.0257 20.7447C18.4313 19.5572 20.2732 18.9513 22.6483 18.9513C23.4239 18.9513 24.2236 19.024 25.0719 19.1452C25.9201 19.2663 26.7926 19.436 27.7136 19.6541V17.9819C27.7136 16.2369 27.35 15.0251 26.6472 14.3223C25.9201 13.6195 24.6841 13.2802 22.9149 13.2802C22.1151 13.2802 21.2911 13.3771 20.4429 13.571C19.5946 13.7891 18.7706 14.0315 17.9709 14.3465C17.6073 14.5162 17.3407 14.5889 17.1711 14.6373C17.0014 14.6858 16.9045 14.7101 16.8075 14.7101C16.4925 14.7101 16.3228 14.4919 16.3228 14.0072V12.8924C16.3228 12.5289 16.3713 12.2623 16.4925 12.0926C16.6137 11.923 16.8075 11.7775 17.1226 11.6079C17.9224 11.1717 18.8676 10.8324 20.0066 10.5658C21.1215 10.2749 22.309 10.1295 23.5693 10.1295C26.3079 10.1295 28.2952 10.7597 29.5797 11.9957C30.84 13.2317 31.4701 15.1221 31.4701 17.6426V25.0587H31.5186V25.0344ZM22.2121 28.5243C22.9634 28.5243 23.7389 28.3789 24.5629 28.1123C25.387 27.8457 26.114 27.3368 26.7441 26.634C27.1077 26.1977 27.3743 25.713 27.5197 25.1556C27.6651 24.5982 27.7378 23.9438 27.7378 23.1683V22.1989C27.0834 22.0292 26.3564 21.908 25.6293 21.8111C24.9022 21.7141 24.1752 21.6657 23.4723 21.6657C21.9455 21.6657 20.8064 21.9565 20.0551 22.5866C19.3038 23.2167 18.9403 24.065 18.9403 25.2283C18.9403 26.2947 19.2069 27.1187 19.7885 27.6519C20.3702 28.2578 21.17 28.5243 22.2121 28.5243ZM40.6069 30.9964C40.1949 30.9964 39.9283 30.9237 39.7344 30.7783C39.5405 30.6328 39.3951 30.3178 39.2497 29.8815L33.8936 12.1653C33.7482 11.7048 33.6755 11.414 33.6755 11.2444C33.6755 10.8808 33.8694 10.6627 34.2329 10.6627H36.4869C36.9231 10.6627 37.2139 10.7354 37.3836 10.8808C37.5775 11.0262 37.6986 11.3413 37.8441 11.7775L41.6733 26.9733L45.2359 11.8018C45.3571 11.3413 45.4783 11.0505 45.6722 10.9051C45.866 10.7597 46.1811 10.6869 46.5931 10.6869H48.435C48.8713 10.6869 49.1621 10.7597 49.356 10.9051C49.5498 11.0505 49.6953 11.3655 49.7922 11.8018L53.4033 27.1429L57.3779 11.8018C57.5234 11.3413 57.6688 11.0505 57.8384 10.9051C58.0323 10.7597 58.3231 10.6869 58.7351 10.6869H60.8679C61.2314 10.6869 61.4495 10.8808 61.4495 11.2686C61.4495 11.3898 61.4253 11.4867 61.4011 11.6321C61.3768 11.7775 61.3284 11.9472 61.2314 12.2138L55.7057 29.93C55.5603 30.3905 55.4149 30.6813 55.221 30.8267C55.0271 30.9721 54.7363 31.0448 54.3485 31.0448H52.3854C51.9492 31.0448 51.6583 30.9721 51.4645 30.8267C51.2706 30.6571 51.1252 30.3663 51.0282 29.9058L47.4656 15.1221L43.9272 29.8815C43.806 30.342 43.6848 30.6328 43.4909 30.8025C43.2971 30.9721 42.982 31.0206 42.57 31.0206H40.6069V30.9964ZM70.0532 31.6265C68.8656 31.6265 67.6781 31.4811 66.5148 31.2145C65.3757 30.9479 64.479 30.6328 63.8731 30.2935C63.5096 30.0754 63.243 29.8573 63.1703 29.6634C63.0733 29.4453 63.0248 29.2272 63.0248 29.0333V27.87C63.0248 27.3853 63.2187 27.1672 63.558 27.1672C63.7034 27.1672 63.8246 27.1914 63.97 27.2399C64.1154 27.2883 64.3093 27.3853 64.5517 27.458C65.3272 27.7973 66.1755 28.0881 67.0722 28.2578C67.9931 28.4516 68.8899 28.5243 69.8108 28.5243C71.2649 28.5243 72.3798 28.282 73.1553 27.773C73.9309 27.2641 74.3429 26.537 74.3429 25.5918C74.3429 24.9617 74.1247 24.4285 73.7127 23.9923C73.3007 23.556 72.5252 23.1683 71.4104 22.8047L68.0901 21.7384C66.4178 21.2052 65.1818 20.4297 64.4305 19.4118C63.6792 18.3939 63.2914 17.279 63.2914 16.0915C63.2914 15.1221 63.5096 14.2738 63.9216 13.5467C64.3336 12.8197 64.891 12.1653 65.5696 11.6564C66.2482 11.1232 67.048 10.7354 67.9447 10.4688C68.8414 10.2022 69.8108 10.0811 70.8287 10.0811C71.3377 10.0811 71.8708 10.1053 72.3556 10.178C72.8887 10.2507 73.3734 10.3476 73.8339 10.4204C74.2944 10.5415 74.7306 10.6385 75.1426 10.7839C75.5547 10.9293 75.8697 11.0505 76.1121 11.1959C76.4271 11.3898 76.6695 11.5594 76.7907 11.7775C76.9361 11.9714 77.0088 12.2138 77.0088 12.5289V13.5952C77.0088 14.0799 76.8149 14.3223 76.4756 14.3223C76.2817 14.3223 75.9909 14.2253 75.6031 14.0557C74.2944 13.4498 72.8403 13.159 71.1922 13.159C69.8835 13.159 68.8656 13.3771 68.1386 13.7891C67.4357 14.2253 67.0722 14.8797 67.0722 15.8249C67.0722 16.455 67.2903 17.0124 67.7508 17.4487C68.2113 17.8849 69.0595 18.3212 70.2713 18.7089L73.5189 19.7511C75.1669 20.2842 76.3544 21.0113 77.0815 21.9565C77.8086 22.9017 78.1236 23.9681 78.1236 25.1556C78.1236 26.1493 77.9055 27.046 77.5177 27.8215C77.1057 28.5971 76.5483 29.2999 75.8455 29.8331C75.1426 30.4147 74.2944 30.8267 73.3007 31.1176C72.3071 31.4569 71.2407 31.6265 70.0532 31.6265Z" fill="#252F3E"/>
        <path d="M74.3931 42.7507C66.8559 48.3248 55.9014 51.2816 46.4737 51.2816C33.2653 51.2816 21.3899 46.4102 12.3985 38.2913C11.6956 37.6612 12.3258 36.7887 13.174 37.2734C22.8925 42.9203 34.8649 46.3133 47.2735 46.3133C55.6348 46.3133 64.8201 44.5683 73.2783 41.0057C74.5628 40.4483 75.6291 41.8297 74.3931 42.7507ZM77.5438 39.188C76.5743 37.952 71.1698 38.5821 68.722 38.8972C67.9949 38.9941 67.8738 38.3398 68.5281 37.8551C72.8421 34.8256 79.9188 35.6981 80.7429 36.716C81.5669 37.7581 80.5247 44.8349 76.4774 48.2279C75.8473 48.7611 75.2656 48.4703 75.5322 47.7917C76.4532 45.5135 78.4889 40.3998 77.5438 39.188Z" fill="#FF9900"/>
    </g>
    <rect width="91.8691" height="61.2461" transform="translate(93.4492 0.0585938)" fill="white"/>
    <g clip-path="url(#clip1_8130_79392)">
        <path d="M108.563 25.5532H111.787L108.44 35.46C108.406 35.5619 108.34 35.6505 108.253 35.7133C108.166 35.7761 108.061 35.81 107.954 35.8102H105.446C105.31 35.8102 105.18 35.7561 105.084 35.66C104.988 35.5638 104.934 35.4333 104.934 35.2973C104.934 35.2416 104.942 35.1862 104.96 35.1332L108.075 25.902C108.11 25.8002 108.176 25.7119 108.263 25.6494C108.351 25.5869 108.456 25.5532 108.563 25.5532Z" fill="url(#paint0_linear_8130_79392)"/>
        <path d="M113.242 32.1982H108.134C108.103 32.1982 108.072 32.2045 108.043 32.2167C108.014 32.229 107.987 32.2469 107.965 32.2694C107.944 32.2919 107.926 32.3186 107.915 32.3479C107.903 32.3772 107.898 32.4085 107.899 32.44C107.898 32.4726 107.905 32.5049 107.918 32.5349C107.931 32.5649 107.95 32.592 107.973 32.6144L111.255 35.6768C111.35 35.7689 111.475 35.8213 111.607 35.8233H114.5L113.242 32.1982Z" fill="#0078D4"/>
        <path d="M108.563 25.5532C108.454 25.5524 108.348 25.5866 108.26 25.6507C108.172 25.7148 108.107 25.8055 108.075 25.9093L104.964 35.1244C104.941 35.1877 104.931 35.2549 104.934 35.3221C104.937 35.3893 104.954 35.4553 104.983 35.5161C105.011 35.5769 105.052 35.6315 105.102 35.6767C105.151 35.7219 105.21 35.7568 105.273 35.7794C105.329 35.7999 105.388 35.8103 105.447 35.8102H108.019C108.115 35.7931 108.204 35.7509 108.279 35.6878C108.353 35.6247 108.409 35.5431 108.441 35.4512L109.061 33.624L111.276 35.69C111.369 35.7661 111.486 35.8085 111.606 35.8102H114.488L113.224 32.1983H109.54L111.795 25.5532H108.563Z" fill="url(#paint1_linear_8130_79392)"/>
        <path d="M112.675 25.902C112.641 25.8005 112.576 25.7122 112.489 25.6497C112.402 25.5871 112.297 25.5534 112.19 25.5532H108.596C108.703 25.5534 108.807 25.5871 108.894 25.6497C108.981 25.7122 109.046 25.8005 109.081 25.902L112.197 35.1332C112.224 35.2101 112.231 35.2921 112.22 35.3725C112.208 35.4528 112.177 35.5293 112.13 35.5954C112.083 35.6616 112.021 35.7156 111.949 35.7529C111.876 35.7903 111.797 35.8099 111.715 35.8102H115.305C115.441 35.8102 115.572 35.7561 115.668 35.66C115.764 35.5638 115.818 35.4333 115.818 35.2973C115.818 35.2416 115.809 35.1862 115.792 35.1332L112.675 25.902Z" fill="url(#paint2_linear_8130_79392)"/>
        <path d="M123.575 33.7942H122.605V29.9845C122.605 29.6729 122.625 29.2909 122.664 28.8387H122.646C122.606 29.0269 122.553 29.212 122.486 29.3925L120.728 33.7972H120.054L118.296 29.4262C118.229 29.2349 118.177 29.039 118.139 28.8401H118.12C118.142 29.0746 118.154 29.4599 118.154 29.9933V33.803H117.248V27.8979H118.624L120.171 31.8264C120.262 32.0459 120.339 32.271 120.401 32.5004H120.422C120.523 32.1912 120.606 31.9612 120.669 31.8102L122.248 27.8979H123.575V33.7942Z" fill="#36BAED"/>
        <path d="M125.239 28.9614C125.091 28.966 124.948 28.9135 124.838 28.8148C124.784 28.7662 124.741 28.7064 124.712 28.6396C124.684 28.5728 124.67 28.5006 124.672 28.428C124.671 28.355 124.684 28.2825 124.713 28.2153C124.742 28.1482 124.784 28.0878 124.838 28.0382C124.946 27.9352 125.09 27.8788 125.239 27.8815C125.391 27.8786 125.538 27.9348 125.649 28.0382C125.704 28.0872 125.747 28.1474 125.776 28.2147C125.805 28.282 125.82 28.3547 125.818 28.428C125.819 28.4997 125.804 28.5707 125.775 28.6361C125.746 28.7016 125.703 28.7601 125.649 28.8075C125.595 28.859 125.53 28.899 125.46 28.9254C125.389 28.9518 125.314 28.9641 125.239 28.9614ZM125.711 33.7968H124.759V29.587H125.711V33.7968Z" fill="#36BAED"/>
        <path d="M129.807 33.6003C129.441 33.8028 129.029 33.904 128.611 33.8934C128.332 33.905 128.054 33.8589 127.794 33.7581C127.534 33.6572 127.297 33.5038 127.099 33.3073C126.906 33.106 126.755 32.8678 126.656 32.6069C126.557 32.3461 126.512 32.068 126.523 31.7893C126.523 31.0957 126.729 30.5389 127.141 30.1188C127.554 29.6988 128.105 29.4883 128.796 29.4873C129.145 29.4802 129.491 29.5492 129.811 29.6895V30.576C129.543 30.3661 129.214 30.2507 128.873 30.2478C128.689 30.2418 128.505 30.2752 128.335 30.3457C128.164 30.4162 128.011 30.5222 127.884 30.6566C127.62 30.9489 127.481 31.3339 127.499 31.7277C127.48 32.1042 127.611 32.4728 127.862 32.7534C127.99 32.8809 128.142 32.9804 128.31 33.0455C128.478 33.1106 128.658 33.1399 128.838 33.1315C129.194 33.126 129.537 32.9964 129.808 32.7651L129.807 33.6003Z" fill="#36BAED"/>
        <path d="M133.029 30.4942C132.883 30.3953 132.708 30.3478 132.532 30.3594C132.392 30.36 132.254 30.3952 132.131 30.4619C132.008 30.5287 131.903 30.6248 131.826 30.7419C131.622 31.0484 131.522 31.4128 131.542 31.7807V33.794H130.588V29.5872H131.542V30.4532H131.558C131.633 30.187 131.782 29.9473 131.987 29.7616C132.165 29.6016 132.396 29.513 132.635 29.5125C132.771 29.5049 132.906 29.5316 133.029 29.5901V30.4942Z" fill="#36BAED"/>
        <path d="M135.332 33.8924C134.683 33.8924 134.164 33.6971 133.778 33.3063C133.391 32.9156 133.195 32.3944 133.191 31.7429C133.191 31.0366 133.394 30.4847 133.798 30.0871C134.202 29.6895 134.747 29.4907 135.43 29.4907C136.089 29.4907 136.601 29.6861 136.967 30.0768C137.334 30.4676 137.517 31.0048 137.518 31.6886C137.518 32.3597 137.323 32.897 136.932 33.3004C136.542 33.7039 136.008 33.9012 135.332 33.8924ZM135.378 30.2424C135.211 30.2359 135.045 30.2678 134.892 30.3356C134.74 30.4035 134.605 30.5054 134.498 30.6336C134.266 30.9424 134.152 31.3236 134.175 31.7092C134.153 32.0849 134.27 32.4556 134.503 32.751C134.611 32.8763 134.747 32.9756 134.899 33.0416C135.051 33.1075 135.216 33.1384 135.382 33.1319C135.545 33.1413 135.709 33.1122 135.859 33.0471C136.009 32.9819 136.142 32.8825 136.247 32.7568C136.449 32.5077 136.55 32.1531 136.55 31.693C136.55 31.2329 136.449 30.8754 136.247 30.6205C136.142 30.4932 136.009 30.3926 135.858 30.3269C135.706 30.2612 135.542 30.2322 135.378 30.2424Z" fill="#36BAED"/>
        <path d="M138.068 33.662V32.7829C138.405 33.0467 138.82 33.1897 139.248 33.1888C139.822 33.1888 140.111 33.0188 140.111 32.6788C140.114 32.5917 140.087 32.5062 140.036 32.4356C139.982 32.3637 139.914 32.303 139.837 32.2568C139.745 32.1975 139.647 32.1483 139.544 32.1103L139.164 31.9638C139.004 31.9012 138.848 31.8282 138.697 31.7455C138.569 31.6774 138.453 31.5893 138.353 31.4846C138.261 31.3896 138.191 31.2769 138.145 31.1535C138.096 31.0153 138.072 30.8693 138.076 30.7227C138.072 30.5336 138.123 30.3475 138.222 30.1864C138.319 30.0324 138.449 29.9014 138.602 29.8025C138.771 29.6934 138.957 29.6128 139.153 29.5637C139.361 29.51 139.575 29.4829 139.79 29.4831C140.146 29.4794 140.499 29.541 140.832 29.6648V30.4985C140.532 30.2948 140.176 30.1889 139.814 30.1952C139.703 30.1937 139.594 30.206 139.487 30.2318C139.399 30.2525 139.315 30.2871 139.238 30.3344C139.171 30.3738 139.115 30.428 139.074 30.4926C139.034 30.5533 139.014 30.6241 139.015 30.6963C139.012 30.777 139.032 30.8568 139.074 30.9264C139.116 30.9941 139.175 31.0508 139.244 31.0919C139.329 31.1454 139.42 31.1896 139.515 31.2238C139.62 31.2634 139.742 31.3073 139.878 31.3528C140.044 31.4202 140.207 31.496 140.366 31.5799C140.5 31.6494 140.624 31.7372 140.734 31.8407C140.834 31.9359 140.913 32.0506 140.967 32.1777C141.025 32.3219 141.053 32.4765 141.049 32.6319C141.054 32.8282 141.003 33.022 140.902 33.1902C140.803 33.3499 140.668 33.4847 140.508 33.5844C140.333 33.6931 140.141 33.7719 139.94 33.8174C139.716 33.8681 139.488 33.8932 139.26 33.8921C138.851 33.9015 138.444 33.8231 138.068 33.662Z" fill="#36BAED"/>
        <path d="M143.662 33.8919C143.013 33.8919 142.494 33.6966 142.108 33.3058C141.721 32.9151 141.525 32.3939 141.521 31.7424C141.521 31.0361 141.723 30.4842 142.127 30.0866C142.53 29.689 143.075 29.4893 143.762 29.4873C144.42 29.4873 144.933 29.6827 145.299 30.0734C145.665 30.4642 145.849 31.0014 145.85 31.6852C145.85 32.3563 145.652 32.8936 145.255 33.297C144.858 33.7005 144.327 33.8988 143.662 33.8919ZM143.708 30.2419C143.541 30.2354 143.375 30.2673 143.223 30.3351C143.07 30.403 142.935 30.5049 142.829 30.6332C142.596 30.9417 142.481 31.3229 142.503 31.7087C142.482 32.0846 142.599 32.4553 142.833 32.7505C142.941 32.8761 143.077 32.9756 143.229 33.0415C143.381 33.1075 143.546 33.1382 143.712 33.1315C143.875 33.1408 144.039 33.1117 144.189 33.0466C144.339 32.9814 144.472 32.882 144.577 32.7563C144.779 32.5072 144.878 32.1526 144.878 31.6925C144.878 31.2325 144.779 30.872 144.577 30.62C144.472 30.4927 144.339 30.3922 144.188 30.3264C144.037 30.2607 143.872 30.2318 143.708 30.2419Z" fill="#36BAED"/>
        <path d="M148.643 28.3374C148.509 28.2625 148.357 28.2241 148.203 28.226C147.74 28.226 147.509 28.4878 147.509 29.0114V29.5829H148.486V30.3302H147.513V33.7941H146.559V30.3346H145.84V29.5873H146.559V28.9044C146.55 28.7079 146.585 28.5118 146.661 28.3304C146.737 28.149 146.852 27.9867 146.999 27.8553C147.301 27.5949 147.689 27.4579 148.088 27.4714C148.277 27.4641 148.467 27.4904 148.647 27.5491L148.643 28.3374Z" fill="#36BAED"/>
        <path d="M151.12 33.7487C150.89 33.8529 150.64 33.9031 150.387 33.8952C149.57 33.8952 149.161 33.5045 149.162 32.723V30.3346H148.453V29.5873H149.156V28.6129L150.109 28.3418V29.5873H151.117V30.3346H150.109V32.4402C150.092 32.6283 150.14 32.8167 150.245 32.9735C150.304 33.0321 150.375 33.0769 150.453 33.1047C150.531 33.1326 150.614 33.1428 150.696 33.1347C150.849 33.1364 150.998 33.0845 151.117 32.9882L151.12 33.7487Z" fill="#36BAED"/>
        <path d="M158.357 33.7942H157.285L156.754 32.2938H154.437L153.928 33.7928H152.859L155.066 27.8979H156.167L158.357 33.7942ZM156.496 31.4981L155.679 29.1537C155.644 29.032 155.618 28.9082 155.599 28.783H155.583C155.566 28.9085 155.538 29.0325 155.501 29.1537L154.692 31.4981H156.496Z" fill="#36BAED"/>
        <path d="M162.266 29.986L159.993 33.0513H162.257V33.7942H158.658V33.4367L160.979 30.3303H158.879V29.5874H162.266V29.986Z" fill="#36BAED"/>
        <path d="M166.573 33.7942H165.621V33.129H165.605C165.487 33.3678 165.302 33.5672 165.073 33.7028C164.844 33.8383 164.58 33.9042 164.314 33.8924C163.319 33.8924 162.821 33.2955 162.822 32.1018V29.5874H163.776V32.0007C163.776 32.7568 164.069 33.1348 164.655 33.1348C164.787 33.1383 164.919 33.1118 165.039 33.0575C165.16 33.0033 165.266 32.9225 165.351 32.8213C165.541 32.5911 165.637 32.2983 165.621 32.0007V29.5874H166.573V33.7942Z" fill="#36BAED"/>
        <path d="M169.836 30.4942C169.689 30.3954 169.514 30.348 169.337 30.3594C169.197 30.3601 169.06 30.3953 168.936 30.4621C168.813 30.5288 168.708 30.6249 168.631 30.7418C168.427 31.0485 168.328 31.4129 168.348 31.7807V33.794H167.395V29.5872H168.348V30.4531H168.365C168.439 30.1864 168.588 29.9465 168.794 29.7615C168.972 29.6016 169.202 29.5129 169.442 29.5124C169.577 29.5051 169.713 29.5318 169.836 29.5901V30.4942Z" fill="#36BAED"/>
        <path d="M173.835 31.9494H170.967C170.962 32.116 170.991 32.2819 171.053 32.4368C171.114 32.5916 171.208 32.732 171.326 32.8491C171.587 33.0745 171.925 33.1905 172.27 33.1729C172.716 33.1727 173.15 33.0288 173.508 32.7626V33.5319C173.124 33.7722 172.617 33.8923 171.987 33.8923C171.357 33.8923 170.871 33.7014 170.529 33.3194C170.177 32.9384 170.002 32.4012 170.002 31.7076C169.979 31.1175 170.19 30.5422 170.588 30.1061C170.771 29.9062 170.994 29.7476 171.243 29.641C171.493 29.5343 171.762 29.4821 172.033 29.4877C172.608 29.4877 173.053 29.6728 173.369 30.0431C173.684 30.4133 173.842 30.9271 173.841 31.5845L173.835 31.9494ZM172.922 31.2754C172.937 30.9889 172.851 30.7063 172.679 30.4768C172.599 30.3806 172.499 30.3042 172.385 30.2533C172.271 30.2025 172.147 30.1787 172.022 30.1837C171.891 30.1816 171.762 30.2072 171.641 30.259C171.521 30.3108 171.413 30.3875 171.325 30.4841C171.126 30.7007 171.003 30.9757 170.975 31.268L172.922 31.2754Z" fill="#36BAED"/>
    </g>
    <rect width="91.8691" height="61.2461" transform="translate(186.275 0.0585938)" fill="white"/>
    <g clip-path="url(#clip2_8130_79392)">
        <path d="M237.217 15.9637H238.353L241.587 12.7297L241.747 11.3558C239.894 9.71945 237.654 8.58261 235.239 8.05274C232.824 7.52286 230.314 7.61746 227.946 8.32758C225.578 9.0377 223.43 10.3399 221.705 12.1111C219.98 13.8824 218.735 16.0641 218.088 18.4503C218.448 18.3018 218.848 18.2777 219.224 18.3818L225.695 17.3147C225.695 17.3147 226.021 16.7697 226.194 16.8023C227.581 15.2794 229.497 14.3442 231.551 14.1882C233.604 14.0323 235.64 14.6675 237.24 15.9637H237.217Z" fill="#EA4335"/>
        <path d="M246.196 18.4506C245.453 15.7127 243.926 13.2514 241.803 11.3691L237.264 15.9084C238.21 16.6818 238.969 17.6599 239.482 18.769C239.995 19.878 240.25 21.0892 240.227 22.3111V23.1171C241.279 23.147 242.278 23.5859 243.012 24.3406C243.745 25.0953 244.156 26.1063 244.156 27.1587C244.156 28.2112 243.745 29.2222 243.012 29.9768C242.278 30.7315 241.279 31.1705 240.227 31.2004H232.144L231.338 32.0195V36.8655L232.144 37.6715H240.227C242.484 37.6874 244.686 36.977 246.507 35.6451C248.329 34.3132 249.674 32.4306 250.343 30.2755C251.012 28.1204 250.97 25.8072 250.223 23.6778C249.477 21.5483 248.064 19.7156 246.196 18.4506Z" fill="#4285F4"/>
        <path d="M224.044 37.6223H232.128V31.1511H224.044C223.473 31.1481 222.909 31.0235 222.39 30.7856L221.254 31.1381L217.991 34.372L217.707 35.5077C219.531 36.8875 221.757 37.6304 224.044 37.6223Z" fill="#34A853"/>
        <path d="M224.046 16.6329C221.856 16.6464 219.726 17.3433 217.951 18.6264C216.177 19.9095 214.848 21.7147 214.149 23.7899C213.45 25.8651 213.417 28.1067 214.054 30.2016C214.691 32.2965 215.967 34.1403 217.702 35.4753L222.391 30.7892C221.796 30.52 221.275 30.1104 220.872 29.5955C220.47 29.0806 220.198 28.4757 220.081 27.8328C219.964 27.1899 220.004 26.5281 220.199 25.9043C220.393 25.2804 220.737 24.7131 221.199 24.251C221.661 23.7889 222.228 23.4458 222.852 23.2511C223.476 23.0564 224.138 23.016 224.78 23.1333C225.423 23.2506 226.028 23.5221 226.543 23.9245C227.058 24.327 227.468 24.8483 227.737 25.4438L232.423 20.7675C231.441 19.4779 230.174 18.4334 228.72 17.716C227.267 16.9987 225.667 16.6279 224.046 16.6329Z" fill="#FBBC05"/>
        <path d="M204.943 51.1162C204.366 51.1256 203.793 51.0187 203.259 50.8017C202.725 50.5847 202.24 50.2621 201.833 49.8533C201.42 49.4551 201.091 48.9778 200.867 48.45C200.643 47.9221 200.527 47.3544 200.527 46.7808C200.527 46.2073 200.643 45.6396 200.867 45.1117C201.091 44.5838 201.42 44.1066 201.833 43.7084C202.236 43.2919 202.719 42.9615 203.254 42.7372C203.788 42.5128 204.363 42.3992 204.943 42.4031C205.495 42.3969 206.042 42.5004 206.554 42.7077C207.065 42.915 207.53 43.2219 207.922 43.6105L207.083 44.4623C206.509 43.9072 205.738 43.6021 204.939 43.6138C204.525 43.6092 204.115 43.6906 203.734 43.853C203.353 44.0153 203.01 44.255 202.727 44.5569C202.144 45.1501 201.817 45.9488 201.817 46.7808C201.817 47.6129 202.144 48.4116 202.727 49.0048C203.31 49.5858 204.097 49.9162 204.921 49.926C205.744 49.9358 206.539 49.624 207.136 49.057C207.508 48.6534 207.737 48.1386 207.788 47.5918H204.956V46.3876H208.953C208.992 46.6304 209.007 46.8762 208.999 47.1219C209.024 47.6309 208.945 48.1397 208.768 48.6176C208.591 49.0955 208.319 49.5325 207.968 49.9022C207.576 50.3049 207.105 50.621 206.584 50.8301C206.063 51.0392 205.504 51.1367 204.943 51.1162ZM214.233 50.3297C213.696 50.8441 212.981 51.1313 212.238 51.1313C211.494 51.1313 210.779 50.8441 210.242 50.3297C209.719 49.7944 209.427 49.0759 209.427 48.3277C209.427 47.5794 209.719 46.8609 210.242 46.3256C210.78 45.812 211.494 45.5253 212.238 45.5253C212.981 45.5253 213.696 45.812 214.233 46.3256C214.758 46.8601 215.051 47.5789 215.051 48.3277C215.051 49.0764 214.758 49.7953 214.233 50.3297ZM211.123 49.5432C211.4 49.8385 211.783 50.012 212.187 50.0254C212.592 50.0389 212.985 49.8913 213.28 49.615L213.352 49.5432C213.655 49.21 213.822 48.7761 213.822 48.326C213.822 47.876 213.655 47.4421 213.352 47.1088C213.211 46.9617 213.043 46.8438 212.856 46.7619C212.67 46.68 212.469 46.6357 212.265 46.6314C212.062 46.6272 211.859 46.6631 211.669 46.7372C211.48 46.8113 211.306 46.922 211.159 47.0631L211.114 47.1088C210.81 47.4414 210.641 47.8756 210.641 48.326C210.641 48.7765 210.81 49.2107 211.114 49.5432H211.123ZM220.365 50.3297C219.828 50.8441 219.113 51.1313 218.37 51.1313C217.626 51.1313 216.911 50.8441 216.374 50.3297C215.851 49.7944 215.559 49.0759 215.559 48.3277C215.559 47.5794 215.851 46.8609 216.374 46.3256C216.911 45.8112 217.626 45.5241 218.37 45.5241C219.113 45.5241 219.828 45.8112 220.365 46.3256C220.888 46.8609 221.181 47.5794 221.181 48.3277C221.181 49.0759 220.888 49.7944 220.365 50.3297ZM217.255 49.5432C217.532 49.8385 217.914 50.012 218.319 50.0254C218.723 50.0389 219.117 49.8913 219.412 49.615L219.484 49.5432C219.786 49.21 219.954 48.7761 219.954 48.326C219.954 47.876 219.786 47.4421 219.484 47.1088C219.2 46.8127 218.809 46.6416 218.399 46.633C217.988 46.6245 217.591 46.7792 217.294 47.0631L217.249 47.1088C216.945 47.4414 216.776 47.8756 216.776 48.326C216.776 48.7765 216.945 49.2107 217.249 49.5432H217.255ZM224.395 53.6452C223.83 53.6633 223.276 53.4871 222.826 53.146C222.426 52.8453 222.111 52.4462 221.912 51.9875L222.986 51.5404C223.102 51.8146 223.285 52.0556 223.517 52.242C223.766 52.4429 224.079 52.5482 224.399 52.539C224.601 52.5509 224.804 52.5192 224.993 52.446C225.182 52.3728 225.353 52.2599 225.495 52.1147C225.779 51.7726 225.919 51.3341 225.887 50.891V50.4864H225.844C225.665 50.6965 225.44 50.8626 225.187 50.9719C224.933 51.0811 224.658 51.1305 224.382 51.1162C224.029 51.1171 223.679 51.0448 223.355 50.9038C223.031 50.7628 222.74 50.5563 222.499 50.2971C221.983 49.767 221.694 49.0562 221.694 48.3162C221.694 47.5763 221.983 46.8655 222.499 46.3354C222.739 46.0747 223.03 45.8667 223.354 45.7246C223.678 45.5824 224.028 45.5093 224.382 45.5098C224.682 45.509 224.979 45.5748 225.25 45.7023C225.485 45.8044 225.695 45.9571 225.864 46.1494H225.906V45.7023H227.075V50.7246C227.104 51.1214 227.053 51.5201 226.924 51.8965C226.795 52.2729 226.591 52.6192 226.324 52.9143C226.069 53.1582 225.768 53.3487 225.439 53.4742C225.109 53.5998 224.758 53.6579 224.405 53.6452H224.395ZM224.48 50.0262C224.681 50.0307 224.881 49.9909 225.064 49.9097C225.248 49.8285 225.412 49.7078 225.544 49.5563C225.835 49.2227 225.987 48.791 225.972 48.3489C225.99 47.8995 225.837 47.4599 225.544 47.1186C225.412 46.9669 225.248 46.8461 225.065 46.7649C224.881 46.6837 224.681 46.644 224.48 46.6487C224.274 46.6444 224.068 46.6841 223.878 46.7651C223.688 46.8461 223.517 46.9666 223.377 47.1186C223.066 47.4477 222.897 47.8862 222.907 48.3391C222.902 48.5614 222.941 48.7825 223.022 48.9897C223.102 49.1969 223.223 49.3861 223.377 49.5465C223.518 49.7026 223.69 49.8265 223.882 49.9098C224.075 49.9932 224.283 50.034 224.493 50.0295L224.48 50.0262ZM229.14 42.7262V50.9595H227.923V42.7262H229.14ZM232.508 51.1162C232.145 51.1244 231.784 51.0586 231.448 50.9228C231.111 50.7871 230.806 50.5841 230.55 50.3264C230.289 50.0648 230.084 49.7529 229.947 49.4096C229.81 49.0663 229.744 48.6988 229.754 48.3293C229.74 47.9589 229.801 47.5895 229.933 47.2431C230.064 46.8967 230.264 46.5802 230.521 46.3126C230.763 46.0579 231.055 45.8564 231.379 45.721C231.703 45.5856 232.052 45.5192 232.404 45.5261C232.727 45.5222 233.048 45.5844 233.347 45.7088C233.615 45.8169 233.86 45.9766 234.068 46.1788C234.246 46.3507 234.403 46.5423 234.538 46.7498C234.647 46.925 234.739 47.1096 234.815 47.3013L234.942 47.6277L231.167 49.1582C231.281 49.4203 231.471 49.6417 231.714 49.7932C231.956 49.9447 232.239 50.0191 232.524 50.0066C232.802 50.0072 233.075 49.936 233.317 49.7999C233.559 49.6639 233.761 49.4675 233.905 49.23L234.848 49.8663C234.608 50.2108 234.3 50.5028 233.944 50.7246C233.514 50.9941 233.015 51.1304 232.508 51.1162ZM230.935 48.2281L233.441 47.1871C233.364 47.0037 233.226 46.8526 233.05 46.7596C232.851 46.6467 232.626 46.5892 232.397 46.5932C232.014 46.6033 231.651 46.7639 231.385 47.0403C231.228 47.1962 231.108 47.3851 231.033 47.5934C230.958 47.8017 230.93 48.0241 230.951 48.2444L230.935 48.2281Z" fill="#5F6368"/>
        <path d="M241.375 51.116C240.866 51.1251 240.359 51.0336 239.885 50.8467C239.41 50.6598 238.977 50.3813 238.61 50.027C238.244 49.6727 237.95 49.2496 237.747 48.7819C237.544 48.3142 237.435 47.811 237.427 47.3012C237.427 47.2489 237.427 47.1967 237.427 47.1445C237.403 46.1156 237.789 45.1194 238.499 44.3747C239.21 43.6301 240.187 43.1979 241.216 43.1731H241.372C241.901 43.1567 242.427 43.2601 242.911 43.4754C243.395 43.6906 243.824 44.0123 244.166 44.4164L243.487 45.069C243.237 44.7508 242.916 44.4961 242.549 44.3259C242.182 44.1558 241.78 44.0749 241.375 44.09C240.988 44.0817 240.602 44.1517 240.242 44.2958C239.882 44.4399 239.555 44.6552 239.28 44.9287C238.734 45.5295 238.431 46.3126 238.431 47.1249C238.431 47.9372 238.734 48.7203 239.28 49.3212C239.555 49.5949 239.882 49.8103 240.242 49.9544C240.602 50.0985 240.988 50.1684 241.375 50.1598C241.826 50.1649 242.272 50.0684 242.679 49.8774C243.087 49.6865 243.447 49.406 243.732 49.0568L244.41 49.7356C244.053 50.1548 243.607 50.4893 243.105 50.7146C242.566 50.9772 241.975 51.1144 241.375 51.116Z" fill="#5F6368"/>
        <path d="M246.237 50.9626H245.258V43.3525H246.237V50.9626Z" fill="#5F6368"/>
        <path d="M247.846 46.381C248.357 45.8736 249.048 45.5889 249.768 45.5889C250.489 45.5889 251.18 45.8736 251.691 46.381C252.177 46.9257 252.445 47.6302 252.445 48.3602C252.445 49.0902 252.177 49.7947 251.691 50.3394C251.18 50.8467 250.489 51.1315 249.768 51.1315C249.048 51.1315 248.357 50.8467 247.846 50.3394C247.36 49.7947 247.092 49.0902 247.092 48.3602C247.092 47.6302 247.36 46.9257 247.846 46.381ZM248.571 49.7259C248.718 49.8841 248.896 50.0115 249.093 50.1006C249.29 50.1896 249.503 50.2386 249.719 50.2447C249.935 50.2508 250.15 50.2138 250.352 50.1359C250.554 50.0581 250.738 49.9409 250.894 49.7911L250.96 49.7259C251.285 49.3452 251.464 48.8609 251.464 48.3602C251.464 47.8594 251.285 47.3751 250.96 46.9945C250.812 46.8362 250.635 46.7088 250.438 46.6198C250.241 46.5307 250.028 46.4817 249.812 46.4756C249.595 46.4695 249.38 46.5065 249.178 46.5844C248.976 46.6622 248.792 46.7795 248.636 46.9292L248.571 46.9945C248.244 47.3737 248.064 47.8578 248.064 48.3585C248.064 48.8593 248.244 49.3434 248.571 49.7226V49.7259Z" fill="#5F6368"/>
        <path d="M257.831 50.963H256.888V50.2418H256.858C256.691 50.5165 256.453 50.7417 256.17 50.8944C255.872 51.0665 255.534 51.1555 255.191 51.1522C254.916 51.1708 254.64 51.127 254.384 51.0242C254.128 50.9214 253.898 50.7621 253.712 50.5583C253.355 50.107 253.175 49.5406 253.207 48.9658V45.7612H254.186V48.7863C254.186 49.7566 254.614 50.2418 255.471 50.2418C255.66 50.2461 255.847 50.2058 256.017 50.1242C256.187 50.0425 256.336 49.9218 256.45 49.7719C256.703 49.4516 256.838 49.054 256.832 48.646V45.7612H257.811V50.963H257.831Z" fill="#5F6368"/>
        <path d="M261.144 51.1162C260.813 51.1176 260.486 51.0471 260.185 50.9096C259.884 50.7721 259.616 50.5709 259.401 50.3199C258.929 49.7703 258.67 49.0699 258.67 48.3456C258.67 47.6213 258.929 46.921 259.401 46.3713C259.616 46.1203 259.884 45.9191 260.185 45.7817C260.486 45.6442 260.813 45.5737 261.144 45.5751C261.514 45.5695 261.88 45.6571 262.207 45.8296C262.496 45.9742 262.741 46.1941 262.916 46.466H262.958L262.916 45.7448V43.3364H263.895V50.9465H262.951V50.2253H262.909C262.734 50.4972 262.49 50.717 262.201 50.8616C261.875 51.0333 261.512 51.1208 261.144 51.1162ZM261.303 50.2253C261.524 50.2283 261.742 50.1845 261.944 50.0968C262.146 50.009 262.327 49.8793 262.475 49.7162C262.78 49.3244 262.945 48.8421 262.945 48.3456C262.945 47.8492 262.78 47.3669 262.475 46.975C262.191 46.6632 261.794 46.4771 261.372 46.4575C260.951 46.4379 260.539 46.5865 260.227 46.8706C260.191 46.9032 260.155 46.9391 260.122 46.975C259.817 47.3649 259.651 47.8457 259.651 48.3407C259.651 48.8358 259.817 49.3166 260.122 49.7064C260.269 49.8757 260.45 50.0111 260.654 50.1035C260.858 50.1959 261.08 50.243 261.303 50.2416V50.2253Z" fill="#5F6368"/>
    </g>
    <rect width="91.8691" height="61.2461" transform="translate(279.102 0.0585938)" fill="white"/>
    <g clip-path="url(#clip3_8130_79392)">
        <path d="M325.035 32.4921V38.4365C335.086 38.4365 342.922 28.7092 339.626 18.1713C338.194 13.5778 334.519 9.90308 329.925 8.47101C319.387 5.17453 309.66 13.0104 309.66 23.062H315.605C315.605 16.7392 321.846 11.8756 328.493 14.2804C330.952 15.172 332.925 17.1445 333.816 19.6034C336.248 26.2234 331.357 32.4921 325.035 32.4921L325.062 26.5746H319.117V32.4921H325.035ZM319.117 37.0585H314.578V32.4921H319.144L319.117 37.0585ZM314.578 32.4921H310.741V28.6822H314.551V32.4921H314.578Z" fill="#0080FF"/>
        <path d="M299.636 44.4621C298.852 43.9217 297.907 43.6515 296.772 43.6515H294.34V51.4064H296.799C297.934 51.4064 298.879 51.1091 299.663 50.5417C300.095 50.2445 300.419 49.8122 300.663 49.2988C300.906 48.7854 301.014 48.1639 301.014 47.4614C301.014 46.7859 300.906 46.1644 300.663 45.651C300.392 45.1647 300.068 44.7323 299.636 44.4621ZM295.772 44.9755H296.528C297.393 44.9755 298.096 45.1377 298.609 45.4889C299.204 45.8402 299.501 46.5157 299.501 47.5154C299.501 48.5152 299.204 49.2447 298.609 49.623C298.096 49.9743 297.393 50.1364 296.528 50.1364H295.772V44.9755ZM301.987 51.4064H303.365V45.9483H301.987V51.4064ZM302.689 43.5435C302.446 43.5435 302.257 43.6245 302.095 43.7866C301.933 43.9488 301.851 44.1379 301.851 44.3811C301.851 44.6243 301.933 44.8134 302.095 44.9755C302.257 45.1377 302.473 45.2187 302.689 45.2187C302.905 45.2187 303.121 45.1377 303.284 44.9755C303.446 44.8134 303.527 44.5972 303.527 44.3811C303.527 44.1379 303.446 43.9488 303.284 43.7866C303.121 43.6245 302.932 43.5435 302.689 43.5435ZM308.363 46.4076C307.958 46.0293 307.472 45.8132 306.985 45.8132C306.229 45.8132 305.607 46.0834 305.121 46.5967C304.635 47.1101 304.391 47.7586 304.391 48.5692C304.391 49.3528 304.635 50.0013 305.121 50.5417C305.607 51.0551 306.256 51.3253 307.012 51.3253C307.553 51.3253 308.012 51.1902 308.363 50.893V51.0281C308.363 51.4874 308.228 51.8387 308.012 52.0819C307.769 52.3251 307.445 52.4602 307.012 52.4602C306.364 52.4602 305.986 52.217 305.499 51.5685L304.554 52.4602L304.581 52.4872C304.77 52.7844 305.094 53.0546 305.499 53.3248C305.905 53.595 306.418 53.7301 307.039 53.7301C307.85 53.7301 308.526 53.4869 309.012 52.9735C309.498 52.4872 309.741 51.8117 309.741 50.974V46.0023H308.39V46.4076H308.363ZM308.012 49.623C307.769 49.8932 307.472 50.0283 307.066 50.0283C306.661 50.0283 306.364 49.8932 306.121 49.623C305.878 49.3528 305.769 49.0016 305.769 48.5422C305.769 48.1099 305.878 47.7316 306.121 47.4614C306.364 47.1912 306.661 47.0561 307.066 47.0561C307.472 47.0561 307.769 47.1912 308.012 47.4614C308.255 47.7316 308.363 48.1099 308.363 48.5422C308.363 49.0016 308.228 49.3528 308.012 49.623ZM310.903 51.4064H312.281V45.9483H310.903V51.4064ZM311.606 43.5435C311.363 43.5435 311.174 43.6245 311.011 43.7866C310.849 43.9488 310.768 44.1379 310.768 44.3811C310.768 44.6243 310.849 44.8134 311.011 44.9755C311.174 45.1377 311.39 45.2187 311.606 45.2187C311.849 45.2187 312.038 45.1377 312.2 44.9755C312.362 44.8134 312.443 44.5972 312.443 44.3811C312.443 44.1379 312.362 43.9488 312.2 43.7866C312.038 43.6245 311.822 43.5435 311.606 43.5435ZM315.281 44.4621H313.93V45.9483H313.146V47.1912H313.93V49.4609C313.93 50.1634 314.065 50.6768 314.362 50.974C314.632 51.2713 315.145 51.4064 315.848 51.4064C316.064 51.4064 316.307 51.4064 316.524 51.3793H316.578V50.1364L316.118 50.1634C315.794 50.1634 315.578 50.1094 315.47 50.0013C315.362 49.8932 315.308 49.65 315.308 49.2718V47.1912H316.578V45.9483H315.308V44.4621H315.281ZM321.306 46.3536C320.901 46.0023 320.306 45.8132 319.604 45.8132C319.144 45.8132 318.712 45.9212 318.334 46.1104C317.983 46.2995 317.631 46.5968 317.388 46.975L317.415 47.0021L318.307 47.8397C318.658 47.2723 319.063 47.0561 319.604 47.0561C319.901 47.0561 320.117 47.1372 320.306 47.2723C320.496 47.4344 320.577 47.6235 320.577 47.8667V48.1369C320.225 48.0288 319.901 47.9748 319.577 47.9748C318.901 47.9748 318.334 48.1369 317.929 48.4612C317.496 48.7854 317.307 49.2447 317.307 49.8392C317.307 50.3526 317.496 50.7579 317.848 51.0821C318.199 51.3793 318.658 51.5415 319.172 51.5415C319.685 51.5415 320.198 51.3253 320.631 50.974V51.4334H321.982V47.9207C321.928 47.2452 321.711 46.7048 321.306 46.3536ZM318.847 49.3258C319.009 49.2177 319.226 49.1637 319.496 49.1637C319.82 49.1637 320.171 49.2177 320.55 49.3528V49.8932C320.252 50.1634 319.847 50.3256 319.361 50.3256C319.117 50.3256 318.928 50.2715 318.82 50.1634C318.685 50.0554 318.631 49.9203 318.631 49.7581C318.631 49.569 318.685 49.4339 318.847 49.3258ZM323.035 51.4064H324.413V43.6515H323.035V51.4064ZM329.385 51.5415C327.17 51.5415 325.386 49.7581 325.386 47.5425C325.386 45.3268 327.17 43.5435 329.385 43.5435C331.601 43.5435 333.384 45.3268 333.384 47.5425C333.384 49.7311 331.601 51.5415 329.385 51.5415ZM329.385 44.9485C327.953 44.9485 326.791 46.1104 326.791 47.5425C326.791 48.9745 327.953 50.1364 329.385 50.1364C330.817 50.1364 331.979 48.9745 331.979 47.5425C331.979 46.1104 330.817 44.9485 329.385 44.9485ZM338.302 49.4609C338.059 49.7311 337.816 49.9743 337.599 50.1094C337.41 50.2445 337.167 50.2985 336.897 50.2985C336.492 50.2985 336.167 50.1634 335.897 49.8392C335.627 49.542 335.492 49.1367 335.492 48.6773C335.492 48.218 335.627 47.8127 335.897 47.5154C336.167 47.2182 336.492 47.0561 336.897 47.0561C337.329 47.0561 337.816 47.3263 338.221 47.8127L339.14 46.948C338.545 46.1644 337.789 45.8132 336.897 45.8132C336.14 45.8132 335.492 46.0834 334.951 46.6238C334.411 47.1642 334.141 47.8397 334.141 48.6503C334.141 49.4609 334.411 50.1634 334.951 50.7038C335.492 51.2442 336.14 51.5145 336.897 51.5145C337.897 51.5145 338.707 51.0821 339.248 50.2985L338.302 49.4609ZM343.949 46.7048C343.76 46.4346 343.49 46.2185 343.166 46.0563C342.841 45.8942 342.463 45.8132 342.031 45.8132C341.274 45.8132 340.626 46.0834 340.166 46.6508C339.707 47.2182 339.464 47.8937 339.464 48.7043C339.464 49.542 339.707 50.2175 340.22 50.7309C340.707 51.2442 341.382 51.5145 342.22 51.5145C343.139 51.5145 343.922 51.1362 344.49 50.4066L344.517 50.3796L343.625 49.5149C343.544 49.623 343.436 49.7311 343.328 49.8392C343.193 49.9743 343.057 50.0554 342.922 50.1364C342.706 50.2445 342.49 50.2985 342.22 50.2985C341.842 50.2985 341.517 50.1905 341.274 49.9743C341.058 49.7581 340.923 49.4879 340.869 49.1367H344.517V48.6233C344.517 48.272 344.463 47.9207 344.381 47.5965C344.3 47.2723 344.138 46.975 343.949 46.7048ZM340.95 48.0018C341.004 47.7316 341.139 47.5154 341.301 47.3533C341.49 47.1642 341.733 47.0831 342.031 47.0831C342.355 47.0831 342.625 47.1912 342.787 47.3533C342.949 47.5154 343.03 47.7316 343.057 48.0018H340.95ZM349.245 46.3536C348.84 46.0023 348.245 45.8132 347.543 45.8132C347.084 45.8132 346.651 45.9212 346.273 46.1104C345.922 46.2995 345.57 46.5968 345.327 46.975L345.354 47.0021L346.246 47.8397C346.597 47.2723 347.002 47.0561 347.543 47.0561C347.84 47.0561 348.056 47.1372 348.245 47.2723C348.435 47.4344 348.516 47.6235 348.516 47.8667V48.1369C348.164 48.0288 347.84 47.9748 347.516 47.9748C346.84 47.9748 346.273 48.1369 345.868 48.4612C345.435 48.7854 345.246 49.2447 345.246 49.8392C345.246 50.3526 345.435 50.7579 345.787 51.0821C346.138 51.3793 346.597 51.5415 347.111 51.5415C347.624 51.5415 348.137 51.3253 348.57 50.974V51.4334H349.921V47.9207C349.867 47.2452 349.65 46.7048 349.245 46.3536ZM346.786 49.3258C346.948 49.2177 347.165 49.1637 347.435 49.1637C347.759 49.1637 348.11 49.2177 348.489 49.3528V49.8932C348.191 50.1634 347.786 50.3256 347.3 50.3256C347.056 50.3256 346.867 50.2715 346.759 50.1634C346.624 50.0554 346.57 49.9203 346.57 49.7581C346.57 49.569 346.651 49.4339 346.786 49.3258ZM355.163 46.4616C354.784 46.0293 354.244 45.8132 353.568 45.8132C353.028 45.8132 352.569 45.9753 352.244 46.2725V45.9212H350.893V51.3793H352.271V48.3531C352.271 47.9478 352.379 47.5965 352.569 47.3803C352.758 47.1372 353.028 47.0291 353.379 47.0291C353.703 47.0291 353.92 47.1372 354.109 47.3533C354.271 47.5695 354.379 47.8397 354.379 48.218V51.3793H355.757V48.245C355.73 47.4884 355.541 46.894 355.163 46.4616Z" fill="#0080FF"/>
    </g>
    <rect width="91.8691" height="61.2461" transform="translate(371.928 0.0585938)" fill="white"/>
    <g clip-path="url(#clip4_8130_79392)">
        <path d="M390.794 26.9811C390.498 27.5747 390.645 28.069 391.042 28.069C391.438 28.069 392.031 27.6237 392.327 27.0308C392.623 26.4378 392.476 25.9429 392.08 25.9429C391.684 25.8932 391.091 26.3881 390.794 26.9811ZM394.206 24.8551C393.959 25.597 393.564 26.3887 393.118 26.9811C392.229 28.2664 390.992 29.0581 390.349 28.8109C389.657 28.5141 389.855 27.2289 390.695 25.9423C390.882 25.6574 391.097 25.3923 391.338 25.1513L390.497 25.3003C387.579 28.9103 386.337 33.5584 386.542 37.7123C384.811 37.02 383.575 35.3386 383.426 33.2126C383.179 29.4548 386.146 25.5977 390.101 24.6086C391.585 24.2628 393.02 24.3614 394.199 24.8557L394.206 24.8551Z" fill="#C40022"/>
        <path d="M393.125 34.9929L392.235 35.5368C392.185 34.647 391.988 33.7566 391.641 33.0146C390.752 31.086 389.169 30.9376 388.131 32.6688C387.488 33.7566 387.191 35.2891 387.29 36.7668C388.378 37.1126 389.664 37.1623 390.999 36.8165C394.911 35.8274 397.922 31.9709 397.674 28.2125C397.525 24.8993 394.904 22.7732 391.641 22.9707C391.344 23.3165 391.047 23.6133 390.751 23.9598C392.68 23.7126 394.213 24.1088 395.201 24.8993C391.74 29.8442 392.185 32.6129 393.124 34.9867C393.124 34.937 393.124 34.937 393.124 34.9867L393.125 34.9929ZM425.414 29.4046C426.255 29.4046 426.842 29.6033 427.145 29.7504L426.848 31.2406C426.502 31.0419 425.958 30.8451 425.314 30.8451C424.82 30.8451 424.474 31.0438 424.474 31.4387C424.474 31.6859 424.721 31.933 425.265 32.1807C425.957 32.5265 426.798 33.0705 426.798 34.0105C426.798 34.6531 426.6 35.1481 426.205 35.5441C425.661 36.088 424.777 36.3848 423.732 36.3848C422.941 36.3848 422.1 36.1377 421.705 35.841L422.002 34.3508C422.447 34.6476 423.287 34.9444 423.93 34.9444C424.425 34.9444 424.771 34.6972 424.771 34.3508C424.771 34.0043 424.524 33.8069 423.93 33.51C422.991 33.0158 422.502 32.4222 422.502 31.7299C422.502 30.3018 423.682 29.4058 425.421 29.4058L425.414 29.4046ZM414.387 29.4046C414.859 29.4058 415.328 29.4895 415.771 29.6518L415.475 31.2338C415.178 31.0848 414.832 30.9867 414.387 30.9867C412.959 30.9867 412.112 32.2286 412.112 33.4095C412.112 34.3986 412.805 34.7941 413.398 34.7941C413.941 34.7941 414.436 34.6948 415.029 34.3489L414.733 35.9806C414.287 36.1793 413.553 36.3264 412.854 36.3264C411.123 36.3264 410.035 35.2386 410.035 33.6068C410.035 31.233 411.914 29.4032 414.386 29.4032L414.387 29.4046ZM406.377 31.2835C405.833 31.8274 405.437 32.8171 405.437 33.6076C405.437 34.3 405.685 34.7451 406.13 34.7451C406.872 34.7451 407.465 34.0031 407.712 32.8662L407.861 32.1242C407.911 31.8771 407.911 31.679 407.911 31.5804C407.911 31.0861 407.663 30.8384 407.218 30.8384C406.872 30.8881 406.625 31.0371 406.378 31.2836L406.377 31.2835ZM407.069 36.2285L407.119 35.9316C407.169 35.6845 407.366 35.289 407.465 35.1897C407.515 35.14 407.465 35.0407 407.415 35.0407C407.365 34.991 407.266 35.0407 407.266 35.0904V35.1401C407.216 35.2891 407.167 35.6343 406.871 35.882C406.475 36.2278 405.931 36.4756 405.337 36.4756C404.002 36.4756 403.408 35.2959 403.408 34.1515C403.408 32.8165 403.952 31.4816 404.793 30.6409C405.508 29.9088 406.489 29.4983 407.513 29.5034C408.304 29.5034 408.897 29.7505 409.293 30.1958C409.837 30.8881 409.787 31.8772 409.639 32.6185L408.946 36.3763L407.067 36.2273L407.069 36.2285ZM430.062 34.8936C431.1 34.8936 431.892 33.4034 431.892 32.1242C431.892 31.8274 431.842 31.0364 431.101 31.0364C430.359 31.0364 429.716 31.8771 429.519 33.1624C429.37 33.5579 429.173 34.8929 430.062 34.8929L430.062 34.8936ZM431.792 29.4046C433.127 29.4046 433.968 30.3937 433.968 31.9752C433.968 33.607 433.177 35.2884 431.792 36.0299C430.704 36.6234 429.715 36.4751 429.222 36.0796C429.122 35.9802 429.073 35.7337 429.073 35.6343C429.073 35.5846 428.973 35.535 428.924 35.5846C428.874 35.5846 428.824 35.684 428.824 35.7337C428.924 35.8827 428.973 36.0305 428.973 36.1789L428.528 38.4042H426.551L428.227 29.504H429.958L429.858 29.8009C429.759 30.2952 429.611 30.4932 429.512 30.5919C429.463 30.6416 429.512 30.7409 429.562 30.7409C429.612 30.7906 429.711 30.7906 429.711 30.6912C429.761 30.5422 429.86 30.1969 430.156 29.9492C430.651 29.6034 431.194 29.4054 431.788 29.4054L431.792 29.4046ZM417.059 27.1793H419.037L417.999 32.5192L420.619 29.5028H422.745L420.025 32.5688L421.707 36.1789H419.58L417.998 32.6682L417.306 36.2286H415.321L417.051 27.1793H417.059ZM403.756 29.3549C403.855 29.3549 404.003 29.3549 404.102 29.4046L403.706 31.3332C403.657 31.3332 403.508 31.2835 403.41 31.2835C402.075 31.2835 401.531 32.6185 401.333 33.7063L400.838 36.2769H398.866L400.152 29.5089H401.882L401.783 29.9542C401.684 30.3994 401.584 30.6465 401.486 30.7452C401.436 30.7949 401.486 30.8942 401.536 30.8942C401.585 30.8942 401.685 30.8942 401.685 30.8445C401.734 30.6955 401.784 30.3993 402.08 30.1025C402.574 29.6573 403.168 29.3606 403.762 29.3606L403.756 29.3549ZM450.435 31.3823C450.435 31.0365 450.139 30.8384 449.743 30.8384C449.1 30.8384 448.605 31.2339 448.358 31.7282C448.16 32.074 448.111 32.1237 447.963 32.2225C447.913 32.2722 447.913 32.3715 447.963 32.3715C448.013 32.4212 448.062 32.4212 448.112 32.4212C448.261 32.2722 448.261 32.174 448.804 32.174C449.595 32.1243 450.089 32.025 450.338 31.7785C450.388 31.6792 450.437 31.5798 450.437 31.383L450.435 31.3823ZM447.716 33.4593C447.914 33.6083 448.013 33.8548 448.013 33.9535C448.062 34.1025 448.112 34.2007 448.162 34.2993C448.409 34.6452 448.854 34.7936 449.447 34.7936C450.288 34.7936 450.98 34.5949 451.771 34.151L451.474 35.7827C450.535 36.277 449.397 36.3266 449.002 36.3266C447.172 36.3266 446.083 35.2884 446.083 33.5077C446.083 32.4695 446.479 31.4307 447.121 30.6391C447.863 29.7983 448.852 29.3041 449.99 29.3041C451.375 29.3041 452.314 30.0951 452.314 31.3313C452.314 31.8752 452.115 32.3695 451.77 32.7159C451.177 33.3095 450.089 33.6057 448.457 33.6057C448.062 33.6057 447.963 33.407 447.913 33.2599C447.864 33.2102 447.764 33.2102 447.764 33.2599C447.665 33.3096 447.665 33.4089 447.715 33.4586L447.716 33.4593ZM445.046 29.4046C445.54 29.4046 446.084 29.5039 446.43 29.6518L446.134 31.2338C445.837 31.0848 445.491 30.9867 445.046 30.9867C443.618 30.9867 442.771 32.2286 442.771 33.4095C442.771 34.3986 443.464 34.7941 444.057 34.7941C444.6 34.7941 445.095 34.6948 445.688 34.3489L445.392 35.9806C444.946 36.1793 444.212 36.3264 443.513 36.3264C441.782 36.3264 440.694 35.2386 440.694 33.6068C440.694 31.233 442.573 29.4032 445.045 29.4032L445.046 29.4046ZM437.034 31.2835C436.49 31.8274 436.095 32.8171 436.095 33.6076C436.095 34.3 436.342 34.7451 436.787 34.7451C437.529 34.7451 438.122 34.0031 438.369 32.8662L438.518 32.1242C438.568 31.8771 438.568 31.679 438.568 31.5804C438.568 31.0861 438.321 30.8384 437.875 30.8384C437.556 30.8956 437.262 31.0512 437.035 31.2836L437.034 31.2835ZM437.776 36.2285L437.826 35.9316C437.875 35.6845 438.123 35.289 438.172 35.1897C438.221 35.14 438.172 35.0407 438.122 35.0407C438.072 34.991 437.973 35.0407 437.973 35.0904V35.1401C437.923 35.2891 437.874 35.6343 437.577 35.882C437.182 36.2278 436.638 36.4756 436.044 36.4756C434.709 36.4756 434.115 35.2959 434.115 34.1515C434.115 32.8165 434.659 31.4816 435.5 30.6409C436.215 29.9088 437.196 29.4983 438.219 29.5034C439.01 29.5034 439.604 29.7505 440 30.1958C440.543 30.8881 440.494 31.8772 440.345 32.6185L439.653 36.3763L437.776 36.2285Z" fill="black"/>
    </g>
    <defs>
        <linearGradient id="paint0_linear_8130_79392" x1="110.111" y1="26.3203" x2="106.772" y2="36.186" gradientUnits="userSpaceOnUse">
            <stop stop-color="#114A8B"/>
            <stop offset="1" stop-color="#0669BC"/>
        </linearGradient>
        <linearGradient id="paint1_linear_8130_79392" x1="111.153" y1="30.9194" x2="110.381" y2="31.18" gradientUnits="userSpaceOnUse">
            <stop stop-opacity="0.3"/>
            <stop offset="0.07" stop-opacity="0.2"/>
            <stop offset="0.32" stop-opacity="0.1"/>
            <stop offset="0.62" stop-opacity="0.05"/>
            <stop offset="1" stop-opacity="0"/>
        </linearGradient>
        <linearGradient id="paint2_linear_8130_79392" x1="110.753" y1="26.0232" x2="114.419" y2="35.7905" gradientUnits="userSpaceOnUse">
            <stop stop-color="#3CCBF4"/>
            <stop offset="1" stop-color="#2892DF"/>
        </linearGradient>
        <clipPath id="clip0_8130_79392">
            <rect width="68.9018" height="41.2005" fill="white" transform="translate(12.1074 10.0811)"/>
        </clipPath>
        <clipPath id="clip1_8130_79392">
            <rect width="68.9018" height="10.257" fill="white" transform="translate(104.934 25.5532)"/>
        </clipPath>
        <clipPath id="clip2_8130_79392">
            <rect width="63.3607" height="45.9345" fill="white" transform="translate(200.529 7.71436)"/>
        </clipPath>
        <clipPath id="clip3_8130_79392">
            <rect width="61.3902" height="45.9345" fill="white" transform="translate(294.34 7.71436)"/>
        </clipPath>
        <clipPath id="clip4_8130_79392">
            <rect width="68.9018" height="15.4461" fill="white" transform="translate(383.41 22.9585)"/>
        </clipPath>
    </defs>
</svg>
