<svg width="187" height="63" viewBox="0 0 187 63" fill="none" xmlns="http://www.w3.org/2000/svg">
    <rect width="91.8691" height="61.2461" transform="translate(0.416016 0.0385742)" fill="white"/>
    <g clip-path="url(#clip0_8130_79325)">
        <path d="M53.0452 7.69434H39.6541C38.8039 7.69434 38.017 8.15101 37.5885 8.88872L30.8859 20.4883C30.4573 21.226 30.4573 22.1393 30.8859 22.877L37.5814 34.4766C38.01 35.2143 38.7969 35.671 39.647 35.671H53.0452C53.8953 35.671 54.6822 35.2143 55.1108 34.4766L61.8063 22.877C62.2349 22.1393 62.2349 21.226 61.8063 20.4883L55.1178 8.88872C54.6892 8.15101 53.9023 7.69434 53.0452 7.69434Z" fill="#4683ED"/>
        <path d="M51.7234 18.2681L50.3604 20.8957L48.2246 18.7599L46.3487 19.1814L44.8874 19.8067L43.3487 18.2681L40.1941 19.3711L40.0606 22.3781L41.4096 23.7271L39.1895 25.1604L49.7 35.6709H53.0443C53.8944 35.6709 54.6813 35.2142 55.1099 34.4765L59.8031 26.3477L51.7234 18.2681Z" fill="#417BDC"/>
        <path d="M43.3557 18.2681H40.4049C39.7375 18.2681 39.1895 18.8091 39.1895 19.4835V21.2048C39.1895 21.8723 39.7304 22.4203 40.4049 22.4203H41.9646V23.7271H39.5829L39.1895 25.1604H42.1403C42.8077 25.1604 43.3557 24.6194 43.3557 23.9449V22.2587C43.3557 21.5913 42.8148 21.0432 42.1403 21.0432H40.6438V19.6732H42.9763L43.3557 18.2681Z" fill="#FEFFFD"/>
        <path d="M48.5694 23.7693V19.6943C48.5694 18.9074 47.93 18.2681 47.1432 18.2681H45.8012C45.0143 18.2681 44.375 18.9074 44.375 19.6943V23.7271C44.375 24.514 45.0143 25.1533 45.8012 25.1533H48.0003H48.5694H49.2158V23.7693H48.5694ZM47.1853 23.7693H45.7661V19.6521H47.1853V23.7693Z" fill="#FEFFFD"/>
        <path d="M54.4847 23.7693H51.7235V18.2681H50.3535V23.7693V25.1393V25.1604H51.7235V25.1393H54.4847V23.7693Z" fill="#FEFFFD"/>
        <path d="M36.8349 40.8493H38.7459V43.4558C38.4367 43.5542 38.1346 43.6315 37.8466 43.6736C37.5585 43.7158 37.2494 43.7369 36.9121 43.7369C36.1253 43.7369 35.521 43.505 35.0925 43.0413C34.6639 42.5776 34.4531 41.9172 34.4531 41.0741C34.4531 40.238 34.692 39.5846 35.1768 39.1139C35.6545 38.6432 36.322 38.4043 37.158 38.4043C37.699 38.4043 38.2119 38.5097 38.6967 38.7134L38.4016 39.423C37.9801 39.2263 37.5585 39.135 37.137 39.135C36.5819 39.135 36.1463 39.3106 35.8232 39.6549C35.5 40.0062 35.3384 40.4769 35.3384 41.0811C35.3384 41.7134 35.4859 42.1982 35.774 42.5284C36.062 42.8586 36.4836 43.0202 37.0246 43.0202C37.2986 43.0202 37.5936 42.9851 37.9028 42.9148V41.5799H36.8278V40.8493H36.8349Z" fill="#7A7A7A"/>
        <path d="M43.3834 41.6992C43.3834 42.3386 43.2218 42.8444 42.8916 43.2027C42.5614 43.561 42.1047 43.7437 41.5146 43.7437C41.1492 43.7437 40.8261 43.6594 40.545 43.4978C40.264 43.3292 40.0462 43.0973 39.8987 42.7812C39.7441 42.472 39.6738 42.1137 39.6738 41.6992C39.6738 41.0599 39.8354 40.5681 40.1656 40.2097C40.4888 39.8514 40.9525 39.6758 41.5497 39.6758C42.1188 39.6758 42.5684 39.8585 42.8987 40.2238C43.2218 40.5821 43.3834 41.0739 43.3834 41.6992ZM40.531 41.6992C40.531 42.6055 40.8682 43.0622 41.5357 43.0622C42.1961 43.0622 42.5263 42.6126 42.5263 41.6992C42.5263 40.7999 42.1961 40.3573 41.5286 40.3573C41.1773 40.3573 40.9244 40.4767 40.7699 40.7086C40.6083 40.9334 40.531 41.2636 40.531 41.6992Z" fill="#7A7A7A"/>
        <path d="M47.8248 41.6992C47.8248 42.3386 47.6633 42.8444 47.333 43.2027C47.0028 43.561 46.5462 43.7437 45.956 43.7437C45.5906 43.7437 45.2675 43.6594 44.9864 43.4978C44.7054 43.3292 44.4876 43.0973 44.3401 42.7812C44.1855 42.472 44.1152 42.1137 44.1152 41.6992C44.1152 41.0599 44.2768 40.5681 44.607 40.2097C44.9302 39.8514 45.3939 39.6758 45.9911 39.6758C46.5602 39.6758 47.0099 39.8585 47.3401 40.2238C47.6633 40.5821 47.8248 41.0739 47.8248 41.6992ZM44.9724 41.6992C44.9724 42.6055 45.3096 43.0622 45.9771 43.0622C46.6375 43.0622 46.9677 42.6126 46.9677 41.6992C46.9677 40.7999 46.6375 40.3573 45.97 40.3573C45.6188 40.3573 45.3658 40.4767 45.2113 40.7086C45.0497 40.9334 44.9724 41.2636 44.9724 41.6992Z" fill="#7A7A7A"/>
        <path d="M52.1041 39.7388V40.1955L51.4366 40.322C51.4998 40.4063 51.549 40.5046 51.5912 40.6241C51.6333 40.7435 51.6544 40.87 51.6544 41.0105C51.6544 41.418 51.5139 41.7341 51.2329 41.966C50.9518 42.1978 50.5724 42.3173 50.0806 42.3173C49.9542 42.3173 49.8418 42.3103 49.7364 42.2892C49.5537 42.4016 49.4694 42.5281 49.4694 42.6826C49.4694 42.774 49.5115 42.8372 49.5959 42.8864C49.6802 42.9285 49.8347 42.9566 50.0596 42.9566H50.7481C51.1837 42.9566 51.5069 43.048 51.7317 43.2306C51.9565 43.4133 52.0689 43.6803 52.0689 44.0316C52.0689 44.4742 51.8863 44.8185 51.5209 45.0644C51.1556 45.3032 50.6216 45.4297 49.9331 45.4297C49.3991 45.4297 48.9916 45.3384 48.7106 45.1487C48.4296 44.959 48.2891 44.692 48.2891 44.3407C48.2891 44.1018 48.3663 43.8981 48.5209 43.7295C48.6755 43.5679 48.8863 43.4484 49.1603 43.3852C49.0478 43.336 48.9565 43.2587 48.8863 43.1534C48.816 43.048 48.7809 42.9356 48.7809 42.8231C48.7809 42.6756 48.823 42.5491 48.9073 42.4508C48.9916 42.3524 49.1111 42.247 49.2797 42.1487C49.076 42.0644 48.9144 41.9168 48.7879 41.7201C48.6614 41.5234 48.5982 41.2915 48.5982 41.0245C48.5982 40.596 48.7317 40.2658 48.9987 40.0339C49.2656 39.8021 49.6521 39.6826 50.1439 39.6826C50.2563 39.6826 50.3687 39.6896 50.4952 39.7037C50.6146 39.7177 50.7059 39.7318 50.7692 39.7529H52.1041V39.7388ZM49.0197 44.2775C49.0197 44.4601 49.1041 44.5936 49.2656 44.692C49.4272 44.7904 49.6591 44.8395 49.9471 44.8395C50.4038 44.8395 50.7411 44.7763 50.9659 44.6428C51.1907 44.5093 51.2961 44.3407 51.2961 44.1229C51.2961 43.9543 51.2329 43.8278 51.1134 43.7576C50.994 43.6873 50.7621 43.6522 50.4319 43.6522H49.7996C49.5607 43.6522 49.371 43.7084 49.2305 43.8208C49.09 43.9332 49.0197 44.0878 49.0197 44.2775ZM49.3781 41.0105C49.3781 41.2564 49.4413 41.4461 49.5678 41.5796C49.6942 41.7131 49.8769 41.7763 50.1158 41.7763C50.6005 41.7763 50.8394 41.5163 50.8394 41.0035C50.8394 40.7505 50.7762 40.5538 50.6567 40.4133C50.5373 40.2728 50.3546 40.2025 50.1087 40.2025C49.8699 40.2025 49.6872 40.2728 49.5607 40.4063C49.4343 40.5398 49.3781 40.7505 49.3781 41.0105Z" fill="#7A7A7A"/>
        <path d="M53.6642 43.6663H52.8281V38.144H53.6642V43.6663Z" fill="#7A7A7A"/>
        <path d="M56.5723 43.7367C55.9611 43.7367 55.4833 43.561 55.139 43.2027C54.7948 42.8444 54.6191 42.3596 54.6191 41.7343C54.6191 41.095 54.7807 40.5891 55.0969 40.2238C55.4131 39.8585 55.8557 39.6758 56.4107 39.6758C56.9306 39.6758 57.3381 39.8303 57.6402 40.1465C57.9423 40.4627 58.0899 40.8912 58.0899 41.4463V41.8959H55.4833C55.4974 42.2753 55.5957 42.5704 55.7924 42.7741C55.9892 42.9779 56.2632 43.0833 56.6145 43.0833C56.8463 43.0833 57.0641 43.0622 57.2608 43.0201C57.4576 42.9779 57.6754 42.9006 57.9072 42.8023V43.4838C57.7035 43.5821 57.4997 43.6524 57.2889 43.6875C57.0782 43.7156 56.8393 43.7367 56.5723 43.7367ZM56.4177 40.3011C56.1508 40.3011 55.94 40.3854 55.7784 40.554C55.6168 40.7226 55.5255 40.9685 55.4903 41.2917H57.2749C57.2679 40.9685 57.1906 40.7226 57.043 40.554C56.8955 40.3854 56.6847 40.3011 56.4177 40.3011Z" fill="#7A7A7A"/>
        <path d="M31.2512 47.8537C30.7664 47.8537 30.38 48.0294 30.099 48.3736C29.8179 48.7179 29.6774 49.1957 29.6774 49.8069C29.6774 50.4462 29.8109 50.924 30.0779 51.2542C30.3449 51.5774 30.7383 51.746 31.2442 51.746C31.462 51.746 31.6798 51.7249 31.8835 51.6828C32.0873 51.6406 32.3051 51.5844 32.5229 51.5142V52.2448C32.1154 52.3994 31.6517 52.4767 31.1388 52.4767C30.38 52.4767 29.7969 52.2448 29.3894 51.7882C28.9889 51.3104 28.7852 50.65 28.7852 49.7928C28.7852 49.2519 28.8835 48.7811 29.0802 48.3736C29.277 47.9661 29.565 47.657 29.9374 47.4462C30.3098 47.2355 30.7524 47.123 31.2512 47.123C31.7781 47.123 32.2699 47.2355 32.7196 47.4533L32.4175 48.1629C32.2418 48.0786 32.0592 48.0083 31.8624 47.9451C31.6728 47.8889 31.462 47.8537 31.2512 47.8537Z" fill="#7A7A7A"/>
        <path d="M34.3915 52.3924H33.5625V46.8701H34.3986V52.3924H34.3915Z" fill="#7A7A7A"/>
        <path d="M39.0709 50.418C39.0709 51.0573 38.9093 51.5632 38.5791 51.9215C38.2489 52.2798 37.7922 52.4625 37.2021 52.4625C36.8367 52.4625 36.5136 52.3781 36.2325 52.2166C35.9515 52.0479 35.7337 51.8161 35.5862 51.4999C35.4316 51.1908 35.3613 50.8325 35.3613 50.418C35.3613 49.7786 35.5229 49.2868 35.8531 48.9285C36.1763 48.5702 36.64 48.3945 37.2372 48.3945C37.8063 48.3945 38.2559 48.5772 38.5862 48.9425C38.9023 49.3079 39.0709 49.7997 39.0709 50.418ZM36.2114 50.418C36.2114 51.3243 36.5487 51.781 37.2161 51.781C37.8766 51.781 38.2068 51.3313 38.2068 50.418C38.2068 49.5187 37.8766 49.076 37.2091 49.076C36.8578 49.076 36.6049 49.1955 36.4503 49.4273C36.2887 49.6521 36.2114 49.9894 36.2114 50.418Z" fill="#7A7A7A"/>
        <path d="M42.7955 52.3923L42.676 51.8794H42.6339C42.5144 52.062 42.3528 52.2026 42.1421 52.3079C41.9313 52.4133 41.6854 52.4625 41.4114 52.4625C40.9336 52.4625 40.5824 52.3431 40.3435 52.1042C40.1116 51.8653 39.9922 51.507 39.9922 51.0293V48.4648H40.8353V50.8887C40.8353 51.1908 40.8985 51.4157 41.018 51.5632C41.1444 51.7108 41.3341 51.788 41.5941 51.788C41.9454 51.788 42.1983 51.6826 42.3669 51.4719C42.5285 51.2611 42.6128 50.9098 42.6128 50.418V48.4648H43.4489V52.3923H42.7955Z" fill="#7A7A7A"/>
        <path d="M45.9621 52.4625C45.4703 52.4625 45.0909 52.2869 44.8169 51.9286C44.5429 51.5703 44.4023 51.0784 44.4023 50.4321C44.4023 49.7857 44.5429 49.2869 44.8169 48.9286C45.0979 48.5702 45.4773 48.3876 45.9691 48.3876C46.482 48.3876 46.8754 48.5773 47.1494 48.9567H47.1916C47.1494 48.6756 47.1283 48.4508 47.1283 48.2892V46.856H47.9644V52.3782H47.311L47.1635 51.8653H47.1213C46.8754 52.2658 46.482 52.4625 45.9621 52.4625ZM46.1869 51.7881C46.5312 51.7881 46.7771 51.6897 46.9386 51.5C47.0932 51.3103 47.1775 50.9941 47.1775 50.5585V50.4391C47.1775 49.9473 47.1002 49.596 46.9386 49.3852C46.7771 49.1745 46.5241 49.0761 46.1799 49.0761C45.8848 49.0761 45.66 49.1955 45.4984 49.4344C45.3368 49.6733 45.2595 50.0105 45.2595 50.4532C45.2595 50.8888 45.3368 51.219 45.4913 51.4508C45.6529 51.6756 45.8778 51.7881 46.1869 51.7881Z" fill="#7A7A7A"/>
        <path d="M54.1416 50.9803C54.1416 51.444 53.9729 51.8023 53.6427 52.0693C53.3055 52.3293 52.8488 52.4627 52.2586 52.4627C51.6685 52.4627 51.1907 52.3714 50.8184 52.1887V51.3878C51.0572 51.5002 51.3031 51.5845 51.5701 51.6478C51.8371 51.711 52.083 51.7461 52.3148 51.7461C52.6521 51.7461 52.898 51.6829 53.0596 51.5564C53.2212 51.43 53.2985 51.2543 53.2985 51.0435C53.2985 50.8468 53.2282 50.6852 53.0807 50.5517C52.9331 50.4182 52.631 50.2567 52.1743 50.074C51.7036 49.8843 51.3664 49.6665 51.1767 49.4206C50.98 49.1747 50.8886 48.8796 50.8886 48.5353C50.8886 48.0997 51.0432 47.7625 51.3523 47.5096C51.6615 47.2637 52.076 47.1372 52.5889 47.1372C53.0877 47.1372 53.5795 47.2426 54.0713 47.4604L53.8043 48.1559C53.3406 47.9592 52.9331 47.8679 52.5678 47.8679C52.2938 47.8679 52.083 47.9311 51.9425 48.0506C51.802 48.17 51.7317 48.3246 51.7317 48.5213C51.7317 48.6548 51.7598 48.7742 51.816 48.8655C51.8722 48.9639 51.9636 49.0552 52.097 49.1396C52.2305 49.2239 52.4624 49.3363 52.7996 49.4768C53.179 49.6384 53.4601 49.7859 53.6357 49.9194C53.8113 50.0599 53.9448 50.2145 54.0291 50.3831C54.0994 50.5447 54.1416 50.7485 54.1416 50.9803Z" fill="#7A7A7A"/>
        <path d="M59.7544 49.7857C59.7544 50.418 59.635 50.945 59.3961 51.3735C59.1572 51.8021 58.8059 52.1042 58.3493 52.2799L59.5928 53.6148H58.4476L57.471 52.4485H57.3305C56.5507 52.4485 55.9464 52.2166 55.5249 51.7529C55.1034 51.2892 54.8926 50.6288 54.8926 49.7717C54.8926 48.9145 55.1034 48.2541 55.5249 47.7974C55.9464 47.3407 56.5507 47.1089 57.3305 47.1089C58.1034 47.1089 58.7005 47.3407 59.1221 47.8115C59.5436 48.2822 59.7544 48.9426 59.7544 49.7857ZM55.7919 49.7857C55.7919 50.4251 55.9183 50.9098 56.1783 51.24C56.4382 51.5703 56.8176 51.7318 57.3235 51.7318C57.8294 51.7318 58.2087 51.5703 58.4617 51.24C58.7216 50.9169 58.8481 50.4251 58.8481 49.7787C58.8481 49.1393 58.7216 48.6616 58.4687 48.3314C58.2158 48.0012 57.8364 47.8396 57.3305 47.8396C56.8247 47.8396 56.4382 48.0012 56.1783 48.3314C55.9183 48.6686 55.7919 49.1534 55.7919 49.7857Z" fill="#7A7A7A"/>
        <path d="M60.8633 52.3922V47.2002H61.7134V51.6616H63.9125V52.3922H60.8633Z" fill="#7A7A7A"/>
    </g>
    <rect width="91.8691" height="61.2461" transform="translate(93.2422 0.0385742)" fill="white"/>
    <g clip-path="url(#clip1_8130_79325)">
        <path d="M146.064 7.69434H132.339C131.461 7.69434 130.664 8.15645 130.225 8.91895L123.362 20.8069C122.923 21.5579 122.923 22.4937 123.362 23.2562L130.225 35.1442C130.664 35.8951 131.473 36.3688 132.339 36.3688H146.064C146.942 36.3688 147.739 35.9066 148.178 35.1442L155.041 23.2562C155.48 22.5052 155.48 21.5694 155.041 20.8069L148.178 8.91895C147.739 8.15645 146.93 7.69434 146.064 7.69434Z" fill="#4683ED"/>
        <path d="M144.874 18.9702H142.413L142.101 20.4143L140.657 18.9702L138.185 18.9009L138 20.5298L136.429 18.9586L133.979 21.4079L135.655 23.083L133.91 23.1524L133.968 25.6247L144.666 36.3227H146.029C146.907 36.3227 147.704 35.8606 148.143 35.0981L152.845 26.9533L144.874 18.9702Z" fill="#417BDC"/>
        <path d="M136.129 21.4309H133.992C133.818 21.4309 133.68 21.2923 133.68 21.119V18.9701C133.68 18.7968 133.818 18.6582 133.992 18.6582H136.129C136.302 18.6582 136.441 18.7968 136.441 18.9701V21.1074C136.441 21.2807 136.302 21.4309 136.129 21.4309Z" fill="white"/>
        <path d="M140.346 18.6582H138.208C138.035 18.6582 137.896 18.7968 137.896 18.9701V21.1074C137.896 21.2807 138.035 21.4194 138.208 21.4194H140.346C140.519 21.4194 140.658 21.2807 140.658 21.1074V18.9701C140.658 18.7968 140.519 18.6582 140.346 18.6582ZM140.115 20.8764H138.451V19.2127H140.115V20.8764Z" fill="white"/>
        <path d="M144.563 18.6582H142.425C142.252 18.6582 142.113 18.7968 142.113 18.9701V21.1074C142.113 21.2807 142.252 21.4194 142.425 21.4194H144.563C144.736 21.4194 144.874 21.2807 144.874 21.1074V18.9701C144.874 18.7968 144.736 18.6582 144.563 18.6582ZM144.331 20.8764H142.668V19.2127H144.331V20.8764Z" fill="white"/>
        <path d="M136.129 22.875H133.992C133.818 22.875 133.68 23.0136 133.68 23.1869V25.3242C133.68 25.4975 133.818 25.6362 133.992 25.6362H136.129C136.302 25.6362 136.441 25.4975 136.441 25.3242V23.1869C136.441 23.0136 136.302 22.875 136.129 22.875ZM135.898 25.0932H134.234V23.4295H135.898V25.0932Z" fill="white"/>
        <path d="M140.346 25.6479H138.208C138.035 25.6479 137.896 25.5092 137.896 25.3359V23.1986C137.896 23.0254 138.035 22.8867 138.208 22.8867H140.346C140.519 22.8867 140.658 23.0254 140.658 23.1986V25.3359C140.658 25.4977 140.519 25.6479 140.346 25.6479Z" fill="white"/>
        <path d="M144.563 25.6479H142.425C142.252 25.6479 142.113 25.5092 142.113 25.3359V23.1986C142.113 23.0254 142.252 22.8867 142.425 22.8867H144.563C144.736 22.8867 144.874 23.0254 144.874 23.1986V25.3359C144.874 25.4977 144.736 25.6479 144.563 25.6479Z" fill="white"/>
        <path d="M129.486 41.6714H131.45V44.3517C131.127 44.4556 130.815 44.5365 130.526 44.5712C130.226 44.6174 129.914 44.6405 129.567 44.6405C128.759 44.6405 128.135 44.3979 127.696 43.9242C127.257 43.4505 127.037 42.7689 127.037 41.9024C127.037 41.0475 127.28 40.3659 127.776 39.8807C128.273 39.3954 128.955 39.1528 129.821 39.1528C130.376 39.1528 130.907 39.2568 131.404 39.4763L131.092 40.2042C130.653 40.0078 130.226 39.9038 129.787 39.9038C129.221 39.9038 128.77 40.0886 128.435 40.4352C128.1 40.7934 127.938 41.2786 127.938 41.9024C127.938 42.561 128.088 43.0462 128.389 43.3928C128.689 43.7278 129.117 43.9011 129.671 43.9011C129.948 43.9011 130.26 43.8664 130.572 43.7971V42.4223H129.463V41.6714H129.486Z" fill="#7A7A7A"/>
        <path d="M136.222 42.5379C136.222 43.1964 136.049 43.7163 135.714 44.086C135.379 44.4557 134.905 44.6405 134.305 44.6405C133.923 44.6405 133.588 44.5596 133.3 44.3863C133.011 44.213 132.791 43.9704 132.629 43.6469C132.479 43.3235 132.398 42.9538 132.398 42.5379C132.398 41.8793 132.572 41.371 132.907 41.0013C133.242 40.6316 133.715 40.4468 134.328 40.4468C134.917 40.4468 135.379 40.6316 135.714 41.0129C136.049 41.3941 136.222 41.9025 136.222 42.5379ZM133.276 42.5379C133.276 43.4737 133.623 43.9358 134.316 43.9358C134.998 43.9358 135.344 43.4737 135.344 42.5379C135.344 41.6136 134.998 41.1515 134.316 41.1515C133.958 41.1515 133.692 41.267 133.531 41.5097C133.357 41.7523 133.276 42.0989 133.276 42.5379Z" fill="#7A7A7A"/>
        <path d="M140.799 42.5379C140.799 43.1964 140.625 43.7163 140.29 44.086C139.955 44.4557 139.482 44.6405 138.881 44.6405C138.5 44.6405 138.165 44.5596 137.876 44.3863C137.587 44.213 137.367 43.9704 137.206 43.6469C137.055 43.3235 136.975 42.9538 136.975 42.5379C136.975 41.8793 137.148 41.371 137.483 41.0013C137.818 40.6316 138.292 40.4468 138.904 40.4468C139.493 40.4468 139.955 40.6316 140.29 41.0129C140.625 41.3941 140.799 41.9025 140.799 42.5379ZM137.853 42.5379C137.853 43.4737 138.199 43.9358 138.892 43.9358C139.574 43.9358 139.921 43.4737 139.921 42.5379C139.921 41.6136 139.574 41.1515 138.892 41.1515C138.534 41.1515 138.269 41.267 138.107 41.5097C137.934 41.7523 137.853 42.0989 137.853 42.5379Z" fill="#7A7A7A"/>
        <path d="M145.199 40.5278V41.0015L144.506 41.1286C144.564 41.2094 144.622 41.3134 144.668 41.4405C144.714 41.5676 144.725 41.6947 144.725 41.8333C144.725 42.2492 144.587 42.5727 144.298 42.8153C144.009 43.0579 143.616 43.1734 143.108 43.1734C142.981 43.1734 142.865 43.1619 142.761 43.1388C142.577 43.2543 142.484 43.3929 142.484 43.5431C142.484 43.6356 142.53 43.7049 142.611 43.7511C142.692 43.7973 142.854 43.8204 143.085 43.8204H143.79C144.24 43.8204 144.575 43.9128 144.806 44.1092C145.037 44.2941 145.153 44.5713 145.153 44.9295C145.153 45.3916 144.968 45.7382 144.587 45.9924C144.206 46.2465 143.663 46.3621 142.946 46.3621C142.392 46.3621 141.976 46.2696 141.687 46.0732C141.398 45.8768 141.248 45.5996 141.248 45.2414C141.248 44.9873 141.329 44.7793 141.479 44.6176C141.641 44.4443 141.86 44.3287 142.138 44.2594C142.022 44.2132 141.93 44.1323 141.849 44.0284C141.779 43.9244 141.733 43.8089 141.733 43.6818C141.733 43.5316 141.779 43.4045 141.86 43.3005C141.941 43.1965 142.068 43.0926 142.242 42.9886C142.034 42.8962 141.86 42.746 141.733 42.5496C141.606 42.3416 141.537 42.1106 141.537 41.8333C141.537 41.3943 141.676 41.0593 141.953 40.8166C142.23 40.574 142.623 40.4585 143.131 40.4585C143.247 40.4585 143.362 40.47 143.489 40.4816C143.616 40.4932 143.709 40.5163 143.778 40.5278H145.199ZM142.022 45.1952C142.022 45.3801 142.103 45.5187 142.276 45.6227C142.438 45.7266 142.681 45.7729 142.981 45.7729C143.443 45.7729 143.801 45.7035 144.021 45.5765C144.252 45.4378 144.367 45.2645 144.367 45.045C144.367 44.8717 144.31 44.7446 144.182 44.6753C144.055 44.606 143.824 44.5598 143.478 44.5598H142.831C142.588 44.5598 142.392 44.6176 142.242 44.7331C142.091 44.8486 142.022 44.9988 142.022 45.1952ZM142.392 41.8333C142.392 42.0875 142.461 42.2839 142.588 42.4225C142.715 42.5611 142.9 42.6304 143.154 42.6304C143.651 42.6304 143.905 42.3647 143.905 41.8333C143.905 41.5676 143.847 41.3712 143.72 41.221C143.593 41.0824 143.408 41.0015 143.154 41.0015C142.9 41.0015 142.715 41.0708 142.588 41.2094C142.45 41.3596 142.392 41.5676 142.392 41.8333Z" fill="#7A7A7A"/>
        <path d="M146.804 44.5713H145.949V38.8872H146.804V44.5713Z" fill="#7A7A7A"/>
        <path d="M149.797 44.6405C149.173 44.6405 148.677 44.4557 148.319 44.086C147.96 43.7163 147.787 43.2195 147.787 42.5725C147.787 41.914 147.949 41.3941 148.284 41.0129C148.607 40.6316 149.069 40.4468 149.636 40.4468C150.167 40.4468 150.594 40.6085 150.895 40.932C151.207 41.2555 151.357 41.706 151.357 42.2721V42.7343H148.665C148.677 43.1271 148.781 43.4274 148.989 43.6354C149.185 43.8433 149.474 43.9473 149.832 43.9473C150.075 43.9473 150.294 43.9242 150.502 43.878C150.71 43.8318 150.93 43.7625 151.161 43.6585V44.3517C150.953 44.4557 150.745 44.525 150.525 44.5596C150.317 44.6174 150.075 44.6405 149.797 44.6405ZM149.636 41.1053C149.358 41.1053 149.139 41.1862 148.977 41.3595C148.815 41.5328 148.711 41.7869 148.688 42.1104H150.525C150.525 41.7754 150.444 41.5212 150.283 41.3479C150.121 41.1977 149.913 41.1053 149.636 41.1053Z" fill="#7A7A7A"/>
        <path d="M112.851 48.8803C112.354 48.8803 111.949 49.0536 111.672 49.4118C111.383 49.7699 111.245 50.2551 111.245 50.879C111.245 51.5375 111.383 52.0343 111.661 52.3693C111.938 52.7044 112.342 52.8777 112.862 52.8777C113.093 52.8777 113.313 52.8546 113.521 52.8083C113.729 52.7621 113.948 52.7044 114.179 52.635V53.386C113.763 53.5477 113.29 53.6286 112.758 53.6286C111.973 53.6286 111.372 53.386 110.956 52.9123C110.54 52.4386 110.332 51.757 110.332 50.879C110.332 50.3245 110.436 49.8392 110.632 49.4233C110.84 49.0074 111.129 48.6839 111.51 48.4644C111.892 48.2449 112.342 48.1294 112.862 48.1294C113.405 48.1294 113.913 48.2449 114.376 48.476L114.064 49.2038C113.879 49.1229 113.694 49.0421 113.486 48.9843C113.29 48.915 113.07 48.8803 112.851 48.8803Z" fill="#7A7A7A"/>
        <path d="M116.085 53.5478H115.23V47.8638H116.085V53.5478Z" fill="#7A7A7A"/>
        <path d="M120.904 51.5261C120.904 52.1847 120.731 52.7045 120.396 53.0742C120.061 53.4439 119.587 53.6288 118.986 53.6288C118.605 53.6288 118.27 53.5479 117.981 53.3746C117.692 53.2013 117.473 52.9587 117.311 52.6352C117.161 52.3117 117.08 51.942 117.08 51.5261C117.08 50.8676 117.253 50.3593 117.588 49.9896C117.923 49.6199 118.397 49.4351 119.009 49.4351C119.599 49.4351 120.061 49.6199 120.396 50.0012C120.731 50.3824 120.904 50.8792 120.904 51.5261ZM117.958 51.5261C117.958 52.4619 118.305 52.9241 118.998 52.9241C119.679 52.9241 120.026 52.4619 120.026 51.5261C120.026 50.6019 119.679 50.1398 118.998 50.1398C118.64 50.1398 118.374 50.2553 118.212 50.4979C118.039 50.729 117.958 51.0756 117.958 51.5261Z" fill="#7A7A7A"/>
        <path d="M124.74 53.5478L124.624 53.0163H124.578C124.463 53.2012 124.289 53.3514 124.07 53.4553C123.85 53.5593 123.596 53.6171 123.319 53.6171C122.834 53.6171 122.464 53.49 122.221 53.2474C121.979 53.0048 121.863 52.6351 121.863 52.1383V49.4927H122.73V51.9881C122.73 52.3 122.788 52.5311 122.915 52.6813C123.042 52.8315 123.238 52.9124 123.515 52.9124C123.873 52.9124 124.139 52.8084 124.313 52.5889C124.486 52.3694 124.567 52.0112 124.567 51.5029V49.4927H125.433V53.5362H124.74V53.5478Z" fill="#7A7A7A"/>
        <path d="M128.008 53.629C127.5 53.629 127.107 53.4442 126.83 53.086C126.553 52.7163 126.402 52.208 126.402 51.5495C126.402 50.891 126.541 50.3711 126.83 50.0014C127.119 49.6317 127.511 49.4469 128.02 49.4469C128.551 49.4469 128.956 49.6433 129.233 50.0361H129.279C129.233 49.7472 129.221 49.5162 129.221 49.3544V47.8872H130.088V53.5713H129.418L129.267 53.0398H129.233C128.932 53.4211 128.54 53.629 128.008 53.629ZM128.239 52.9243C128.597 52.9243 128.852 52.8203 129.013 52.6239C129.175 52.4275 129.256 52.104 129.267 51.6535V51.5379C129.267 51.0296 129.187 50.6715 129.013 50.452C128.852 50.2325 128.586 50.1285 128.239 50.1285C127.939 50.1285 127.708 50.2556 127.546 50.4982C127.384 50.7408 127.303 51.0874 127.303 51.5495C127.303 52.0001 127.384 52.3351 127.546 52.5777C127.685 52.8088 127.916 52.9243 128.239 52.9243Z" fill="#7A7A7A"/>
        <path d="M137.678 50.8331C137.678 51.7112 137.435 52.3928 136.939 52.8549C136.453 53.317 135.749 53.5596 134.824 53.5596H133.334V48.2222H134.986C135.841 48.2222 136.499 48.4532 136.973 48.9038C137.447 49.3544 137.678 50.0013 137.678 50.8331ZM136.765 50.8562C136.765 49.5739 136.164 48.9385 134.975 48.9385H134.212V52.8202H134.836C136.118 52.8202 136.765 52.1617 136.765 50.8562Z" fill="#7A7A7A"/>
        <path d="M141.272 53.5481L141.099 52.982H141.064C140.868 53.2246 140.671 53.3979 140.475 53.4787C140.278 53.5596 140.024 53.6174 139.712 53.6174C139.32 53.6174 139.008 53.5134 138.788 53.2939C138.569 53.0744 138.453 52.774 138.453 52.3812C138.453 51.9653 138.603 51.6534 138.915 51.4339C139.227 51.2259 139.701 51.1104 140.325 51.0873L141.018 51.0642V50.8447C141.018 50.5905 140.96 50.3941 140.833 50.267C140.718 50.1399 140.521 50.0706 140.267 50.0706C140.059 50.0706 139.863 50.1053 139.666 50.1631C139.481 50.2208 139.296 50.2901 139.123 50.3826L138.846 49.7703C139.065 49.6547 139.308 49.5738 139.562 49.5045C139.828 49.4468 140.071 49.4121 140.302 49.4121C140.81 49.4121 141.203 49.5276 141.468 49.7471C141.734 49.9667 141.861 50.3248 141.861 50.7985V53.525H141.272V53.5481ZM139.99 52.9704C140.302 52.9704 140.556 52.878 140.741 52.7047C140.925 52.5314 141.029 52.2888 141.029 51.9769V51.6303L140.51 51.6534C140.105 51.6649 139.816 51.7343 139.632 51.8613C139.447 51.9769 139.354 52.1617 139.354 52.4159C139.354 52.6007 139.412 52.7394 139.516 52.8318C139.62 52.9127 139.77 52.9704 139.99 52.9704Z" fill="#7A7A7A"/>
        <path d="M144.587 52.9238C144.795 52.9238 145.003 52.8892 145.211 52.8199V53.4668C145.118 53.513 144.991 53.5477 144.841 53.5708C144.691 53.5939 144.541 53.617 144.379 53.617C143.57 53.617 143.154 53.1895 143.154 52.3346V50.1511H142.6V49.7699L143.189 49.4579L143.478 48.603H144.009V49.5042H145.164V50.1511H144.009V52.3115C144.009 52.5195 144.055 52.6697 144.159 52.7736C144.286 52.8776 144.413 52.9238 144.587 52.9238Z" fill="#7A7A7A"/>
        <path d="M148.549 53.5481L148.376 52.982H148.341C148.145 53.2246 147.949 53.3979 147.752 53.4787C147.556 53.5712 147.302 53.6174 146.99 53.6174C146.597 53.6174 146.285 53.5134 146.066 53.2939C145.846 53.0744 145.73 52.774 145.73 52.3812C145.73 51.9653 145.881 51.6534 146.193 51.4339C146.505 51.2259 146.978 51.1104 147.602 51.0873L148.295 51.0642V50.8447C148.295 50.5905 148.237 50.3941 148.11 50.267C147.983 50.1399 147.798 50.0706 147.544 50.0706C147.336 50.0706 147.14 50.1053 146.944 50.1631C146.759 50.2208 146.574 50.2901 146.401 50.3826L146.123 49.7703C146.343 49.6547 146.585 49.5738 146.84 49.5045C147.105 49.4468 147.348 49.4121 147.579 49.4121C148.087 49.4121 148.48 49.5276 148.746 49.7471C149.012 49.9667 149.139 50.3248 149.139 50.7985V53.525H148.549V53.5481ZM147.267 52.9704C147.579 52.9704 147.833 52.878 148.018 52.7047C148.203 52.5314 148.307 52.2888 148.307 51.9769V51.6303L147.787 51.6534C147.383 51.6649 147.094 51.7343 146.909 51.8613C146.724 51.9769 146.632 52.1617 146.632 52.4159C146.632 52.6007 146.689 52.7394 146.793 52.8318C146.897 52.9127 147.059 52.9704 147.267 52.9704Z" fill="#7A7A7A"/>
        <path d="M153.079 52.404C153.079 52.7968 152.94 53.0972 152.651 53.3167C152.362 53.5246 151.946 53.6286 151.415 53.6286C150.872 53.6286 150.445 53.5477 150.121 53.386V52.6351C150.595 52.8546 151.034 52.9585 151.45 52.9585C151.981 52.9585 152.247 52.7968 152.247 52.4849C152.247 52.3809 152.212 52.3 152.154 52.2307C152.097 52.1614 152.004 52.0921 151.866 52.0228C151.727 51.9534 151.542 51.8726 151.311 51.7686C150.849 51.5837 150.525 51.4104 150.364 51.2256C150.202 51.0408 150.121 50.8097 150.121 50.5209C150.121 50.1743 150.26 49.9086 150.537 49.7122C150.814 49.5158 151.196 49.4233 151.681 49.4233C152.154 49.4233 152.605 49.5158 153.032 49.7122L152.755 50.3591C152.316 50.1743 151.958 50.0934 151.658 50.0934C151.207 50.0934 150.976 50.2205 150.976 50.4862C150.976 50.6133 151.034 50.7173 151.149 50.8097C151.265 50.9021 151.531 51.0176 151.923 51.1678C152.258 51.2949 152.501 51.4104 152.651 51.526C152.801 51.63 152.917 51.757 152.986 51.8957C153.044 52.0343 153.079 52.2076 153.079 52.404Z" fill="#7A7A7A"/>
        <path d="M155.516 52.9238C155.724 52.9238 155.932 52.8892 156.14 52.8199V53.4668C156.048 53.513 155.921 53.5477 155.771 53.5708C155.62 53.5939 155.47 53.617 155.308 53.617C154.5 53.617 154.084 53.1895 154.084 52.3346V50.1511H153.529V49.7699L154.118 49.4579L154.407 48.603H154.939V49.5042H156.094V50.1511H154.939V52.3115C154.939 52.5195 154.985 52.6697 155.089 52.7736C155.204 52.8776 155.343 52.9238 155.516 52.9238Z" fill="#7A7A7A"/>
        <path d="M160.529 51.5261C160.529 52.1847 160.356 52.7045 160.021 53.0742C159.686 53.4439 159.212 53.6288 158.611 53.6288C158.23 53.6288 157.895 53.5479 157.606 53.3746C157.317 53.2013 157.098 52.9587 156.936 52.6352C156.786 52.3117 156.705 51.942 156.705 51.5261C156.705 50.8676 156.878 50.3593 157.213 49.9896C157.548 49.6199 158.022 49.4351 158.634 49.4351C159.224 49.4351 159.686 49.6199 160.021 50.0012C160.356 50.3824 160.529 50.8792 160.529 51.5261ZM157.595 51.5261C157.595 52.4619 157.941 52.9241 158.634 52.9241C159.316 52.9241 159.663 52.4619 159.663 51.5261C159.663 50.6019 159.316 50.1398 158.634 50.1398C158.276 50.1398 158.011 50.2553 157.849 50.4979C157.676 50.729 157.595 51.0756 157.595 51.5261Z" fill="#7A7A7A"/>
        <path d="M163.566 49.4351C163.74 49.4351 163.878 49.4466 163.994 49.4697L163.913 50.2669C163.786 50.2322 163.659 50.2207 163.532 50.2207C163.185 50.2207 162.908 50.3362 162.7 50.5557C162.492 50.7752 162.376 51.0756 162.376 51.4337V53.5479H161.521V49.5044H162.192L162.307 50.2207H162.353C162.492 49.978 162.665 49.7932 162.873 49.643C163.081 49.5044 163.324 49.4351 163.566 49.4351Z" fill="#7A7A7A"/>
        <path d="M166.514 53.6288C165.89 53.6288 165.393 53.4439 165.035 53.0742C164.677 52.7045 164.504 52.2078 164.504 51.5608C164.504 50.9023 164.666 50.3824 165.001 50.0012C165.324 49.6199 165.786 49.4351 166.352 49.4351C166.884 49.4351 167.311 49.5968 167.612 49.9203C167.924 50.2438 168.074 50.6943 168.074 51.2604V51.7225H165.382C165.393 52.1153 165.497 52.4157 165.705 52.6237C165.902 52.8316 166.191 52.9356 166.549 52.9356C166.791 52.9356 167.011 52.9125 167.219 52.8663C167.427 52.8201 167.646 52.7508 167.877 52.6468V53.34C167.669 53.4439 167.461 53.5133 167.242 53.5479C167.034 53.6057 166.791 53.6288 166.514 53.6288ZM166.352 50.082C166.075 50.082 165.856 50.1629 165.694 50.3362C165.532 50.5095 165.428 50.7637 165.405 51.0871H167.242C167.242 50.7521 167.161 50.4979 166.999 50.3246C166.838 50.1744 166.63 50.082 166.352 50.082Z" fill="#7A7A7A"/>
    </g>
    <defs>
        <clipPath id="clip0_8130_79325">
            <rect width="35.1289" height="45.9345" fill="white" transform="translate(28.7871 7.69434)"/>
        </clipPath>
        <clipPath id="clip1_8130_79325">
            <rect width="57.7648" height="45.9345" fill="white" transform="translate(110.293 7.69434)"/>
        </clipPath>
    </defs>
</svg>
