<svg width="558" height="63" viewBox="0 0 558 63" fill="none" xmlns="http://www.w3.org/2000/svg">
    <rect width="91.8691" height="61.2461" transform="translate(0.623047 0.110352)" fill="white"/>
    <g clip-path="url(#clip0_8130_79450)">
        <path d="M57.1762 26.8579L53.7168 26.5972V19.1069L57.1762 18.8462V26.8579Z" fill="#205D9A"/>
        <path d="M47.1289 29.0138V16.6904L53.7168 22.8471L47.1289 29.0138Z" fill="#5294D0"/>
        <path d="M47.1289 16.6904L57.1761 18.8463L53.7168 19.107L49.0341 18.4753L47.1289 16.6904Z" fill="#1A4B6E"/>
        <path d="M47.1289 29.0137L57.1761 26.8579L53.7168 26.5972L49.0341 27.2289L47.1289 29.0137Z" fill="#9ABDE3"/>
        <path d="M37.0918 26.8579L40.5411 26.5972V19.1069L37.0918 18.8462V26.8579Z" fill="#5294D0"/>
        <path d="M47.1289 29.0138V16.6904L40.541 22.8471L47.1289 29.0138Z" fill="#225C9A"/>
        <path d="M47.129 16.6904L37.0918 18.8463L40.5411 19.107L45.2238 18.4753L47.129 16.6904Z" fill="#1A4B6E"/>
        <path d="M47.129 29.0137L37.0918 26.8579L40.5411 26.5972L45.2238 27.2289L47.129 29.0137Z" fill="#9ABDE3"/>
        <path d="M37.091 18.8462L47.1283 16.6903V7.76611L34.5742 13.9028V31.7913L47.1283 37.9379V29.0137L37.091 26.8579V18.8462Z" fill="#225C9A"/>
        <path d="M47.1289 7.76611V16.6903L57.1761 18.8462V26.8579L47.1289 29.0137V37.9379L59.693 31.7913V13.9028L47.1289 7.76611Z" fill="#5294D0"/>
        <path d="M38.0942 40.876H38.6757L40.0394 44.927H39.498L38.7961 42.6708C38.6557 42.2196 38.5253 41.7784 38.395 41.3071H38.3749C38.2546 41.7784 38.1242 42.2196 37.9738 42.6708L37.2619 44.927H36.7305L38.0942 40.876ZM37.4424 43.2825H39.3075V43.6936H37.4424V43.2825Z" fill="#2E302D"/>
        <path d="M40.5708 41.9289H40.992L41.0321 42.36H41.0421C41.3028 42.0793 41.6137 41.8486 41.9746 41.8486C42.4359 41.8486 42.6765 42.0692 42.8069 42.4202C43.1177 42.0793 43.4286 41.8486 43.7996 41.8486C44.4112 41.8486 44.7121 42.2597 44.7121 43.0218V44.917H44.2007V43.082C44.2007 42.5205 44.0202 42.2898 43.6392 42.2898C43.4085 42.2898 43.1679 42.4402 42.8871 42.7511V44.917H42.3757V43.082C42.3757 42.5205 42.1952 42.2898 41.8142 42.2898C41.5936 42.2898 41.3429 42.4402 41.0622 42.7511V44.917H40.5508V41.9289H40.5708Z" fill="#2E302D"/>
        <path d="M45.4922 44.1449C45.4922 43.4931 46.0537 43.1622 47.3372 43.0218C47.3372 42.6408 47.2068 42.2698 46.7155 42.2698C46.3646 42.2698 46.0537 42.4302 45.8231 42.5906L45.6225 42.2397C45.8933 42.0592 46.3144 41.8486 46.7957 41.8486C47.5277 41.8486 47.8386 42.3299 47.8386 43.082V44.917H47.4174L47.3773 44.556H47.3572C47.0765 44.7966 46.7356 44.9871 46.3646 44.9871C45.8632 44.9972 45.4922 44.6863 45.4922 44.1449ZM47.3272 44.195V43.3627C46.3244 43.4831 45.9835 43.7337 45.9835 44.1148C45.9835 44.4557 46.2141 44.5961 46.5049 44.5961C46.7957 44.5961 47.0364 44.4457 47.3272 44.195Z" fill="#2E302D"/>
        <path d="M48.4727 44.6561L50.0469 42.3398H48.6431V41.9287H50.6887V42.1994L49.1144 44.5157H50.7388V44.9268H48.4727V44.6561Z" fill="#2E302D"/>
        <path d="M51.1191 43.4332C51.1191 42.4304 51.7709 41.8589 52.5029 41.8589C53.2349 41.8589 53.8866 42.4304 53.8866 43.4332C53.8866 44.4258 53.2349 44.9974 52.5029 44.9974C51.7709 44.9974 51.1191 44.4258 51.1191 43.4332ZM53.3753 43.4332C53.3753 42.7513 53.0243 42.28 52.5129 42.28C52.0015 42.28 51.6506 42.7513 51.6506 43.4332C51.6506 44.115 52.0015 44.5763 52.5129 44.5763C53.0243 44.5763 53.3753 44.115 53.3753 43.4332Z" fill="#2E302D"/>
        <path d="M54.6897 41.9291H55.1109L55.151 42.3602H55.171C55.4518 42.0795 55.7626 41.8589 56.1737 41.8589C56.8055 41.8589 57.0862 42.27 57.0862 43.0321V44.9272H56.5748V43.0922C56.5748 42.5307 56.4044 42.3001 56.0133 42.3001C55.7025 42.3001 55.4919 42.4605 55.1911 42.7613V44.9272H54.6797V41.9291H54.6897Z" fill="#2E302D"/>
        <path d="M31.5156 48.2764H32.7791C33.6013 48.2764 34.1929 48.5772 34.1929 49.4195C34.1929 50.2317 33.6013 50.6127 32.7791 50.6127H32.027V52.3273H31.5156V48.2764ZM32.7089 50.2016C33.3406 50.2016 33.6815 49.9509 33.6815 49.4195C33.6815 48.888 33.3305 48.6975 32.7089 48.6975H32.027V50.2016H32.7089ZM32.6788 50.4723L33.0799 50.2016L34.3232 52.3273H33.7417L32.6788 50.4723Z" fill="#2E302D"/>
        <path d="M34.6953 50.8331C34.6953 49.8604 35.3571 49.2588 36.039 49.2588C36.801 49.2588 37.2322 49.8103 37.2322 50.6626C37.2322 50.7729 37.2222 50.8732 37.2121 50.9534H35.1967C35.2368 51.5851 35.6178 51.9962 36.1894 51.9962C36.4802 51.9962 36.7108 51.906 36.9314 51.7556L37.1119 52.0865C36.8512 52.2569 36.5303 52.3973 36.1192 52.3973C35.327 52.3973 34.6953 51.8157 34.6953 50.8331ZM36.791 50.5824C36.791 49.9807 36.5203 49.6599 36.049 49.6599C35.6278 49.6599 35.2468 50.0008 35.1866 50.5824H36.791Z" fill="#2E302D"/>
        <path d="M37.9727 47.9351H38.474V50.9131H38.4941L39.7775 49.3389H40.3391L39.3364 50.5421L40.4694 52.337H39.9179L39.0355 50.8831L38.474 51.5348V52.3169H37.9727V47.9351Z" fill="#2E302D"/>
        <path d="M40.6914 50.8331C40.6914 49.8303 41.3432 49.2588 42.0752 49.2588C42.8071 49.2588 43.4589 49.8303 43.4589 50.8331C43.4589 51.8258 42.8071 52.3973 42.0752 52.3973C41.3432 52.3973 40.6914 51.8258 40.6914 50.8331ZM42.9475 50.8331C42.9475 50.1512 42.5966 49.6799 42.0852 49.6799C41.5738 49.6799 41.2228 50.1512 41.2228 50.8331C41.2228 51.5149 41.5738 51.9762 42.0852 51.9762C42.5966 51.9762 42.9475 51.5149 42.9475 50.8331Z" fill="#2E302D"/>
        <path d="M44.0293 52.8984C44.0293 52.6377 44.1897 52.397 44.4705 52.2165V52.1965C44.3201 52.0962 44.1998 51.9458 44.1998 51.7052C44.1998 51.4545 44.3702 51.2539 44.5307 51.1537V51.1336C44.3301 50.9732 44.1396 50.6824 44.1396 50.3314C44.1396 49.6797 44.661 49.2686 45.2626 49.2686C45.4231 49.2686 45.5735 49.2986 45.6838 49.3387H46.7266V49.7298H46.115C46.2553 49.8702 46.3556 50.0908 46.3556 50.3515C46.3556 50.9932 45.8743 51.3943 45.2626 51.3943C45.1122 51.3943 44.9518 51.3542 44.8114 51.294C44.7011 51.3843 44.6209 51.4846 44.6209 51.645C44.6209 51.8355 44.7412 51.9659 45.1423 51.9659H45.7239C46.4158 51.9659 46.7667 52.1865 46.7667 52.6778C46.7667 53.2393 46.1751 53.7106 45.2526 53.7106C44.5307 53.7006 44.0293 53.4198 44.0293 52.8984ZM46.2854 52.738C46.2854 52.4572 46.0748 52.367 45.6838 52.367H45.1624C45.0521 52.367 44.9017 52.3569 44.7713 52.3268C44.5607 52.4773 44.4605 52.6577 44.4605 52.8282C44.4605 53.1491 44.7813 53.3496 45.3328 53.3496C45.9144 53.3496 46.2854 53.0588 46.2854 52.738ZM45.9044 50.3214C45.9044 49.8902 45.6236 49.6195 45.2626 49.6195C44.9117 49.6195 44.6209 49.8802 44.6209 50.3214C44.6209 50.7626 44.9117 51.0333 45.2626 51.0333C45.6136 51.0333 45.9044 50.7526 45.9044 50.3214Z" fill="#2E302D"/>
        <path d="M47.3674 49.329H47.7886L47.8287 49.7601H47.8488C48.1295 49.4794 48.4404 49.2588 48.8515 49.2588C49.4832 49.2588 49.7639 49.6699 49.7639 50.432V52.3271H49.2526V50.4921C49.2526 49.9306 49.0821 49.7 48.691 49.7C48.3802 49.7 48.1696 49.8604 47.8688 50.1612V52.3271H47.3574V49.329H47.3674Z" fill="#2E302D"/>
        <path d="M50.6387 48.3861C50.6387 48.1855 50.7891 48.0552 50.9896 48.0552C51.1902 48.0552 51.3406 48.1855 51.3406 48.3861C51.3406 48.5766 51.1902 48.717 50.9896 48.717C50.7891 48.717 50.6387 48.5766 50.6387 48.3861ZM50.7389 49.3286H51.2503V52.3268H50.7389V49.3286Z" fill="#2E302D"/>
        <path d="M52.3435 51.3947V49.7402H51.9023V49.3592L52.3736 49.3291L52.4338 48.4868H52.8549V49.3291H53.6671V49.7402H52.8549V51.4047C52.8549 51.7757 52.9753 51.9863 53.3162 51.9863C53.4265 51.9863 53.5568 51.9462 53.6571 51.9061L53.7574 52.2871C53.5869 52.3473 53.3864 52.3974 53.2059 52.3974C52.5541 52.3974 52.3435 51.9963 52.3435 51.3947Z" fill="#2E302D"/>
        <path d="M54.248 48.3861C54.248 48.1855 54.3985 48.0552 54.599 48.0552C54.7995 48.0552 54.9499 48.1855 54.9499 48.3861C54.9499 48.5766 54.7995 48.717 54.599 48.717C54.3985 48.7069 54.248 48.5766 54.248 48.3861ZM54.3383 49.3286H54.8497V52.3268H54.3383V49.3286Z" fill="#2E302D"/>
        <path d="M55.6309 50.8331C55.6309 49.8303 56.2826 49.2588 57.0146 49.2588C57.7466 49.2588 58.3984 49.8303 58.3984 50.8331C58.3984 51.8258 57.7466 52.3973 57.0146 52.3973C56.2826 52.3973 55.6309 51.8258 55.6309 50.8331ZM57.887 50.8331C57.887 50.1512 57.536 49.6799 57.0246 49.6799C56.5133 49.6799 56.1623 50.1512 56.1623 50.8331C56.1623 51.5149 56.5133 51.9762 57.0246 51.9762C57.536 51.9762 57.887 51.5149 57.887 50.8331Z" fill="#2E302D"/>
        <path d="M59.2014 49.329H59.6226L59.6627 49.7601H59.6827C59.9635 49.4794 60.2743 49.2588 60.6855 49.2588C61.3172 49.2588 61.5979 49.6699 61.5979 50.432V52.3271H61.0865V50.4921C61.0865 49.9306 60.9161 49.7 60.525 49.7C60.2142 49.7 60.0036 49.8604 59.7028 50.1612V52.3271H59.1914V49.329H59.2014Z" fill="#2E302D"/>
    </g>
    <rect width="91.8691" height="61.2461" transform="translate(93.4492 0.110352)" fill="white"/>
    <g clip-path="url(#clip1_8130_79450)">
        <path d="M104.93 17.27H131.526V43.8661H104.93V17.27Z" fill="#009480"/>
        <path d="M121.686 25.5935C120.115 24.8494 118.489 24.5186 116.752 24.932C113.39 25.7037 111.075 27.9362 109.008 30.582C110.579 32.6766 112.37 34.3854 114.658 35.5429C116.89 36.6454 119.15 36.7556 121.465 35.7083C123.835 34.6334 125.682 32.9247 127.253 30.8852C127.336 30.7749 127.391 30.6647 127.473 30.5544C125.875 28.4598 124.056 26.7235 121.686 25.5935Z" fill="white"/>
        <path d="M118.27 26.6685C116.093 26.6685 114.274 28.4048 114.246 30.5821C114.219 32.8145 115.983 34.6335 118.188 34.6335C120.392 34.6335 122.211 32.8696 122.211 30.6648C122.211 28.4599 120.475 26.6685 118.27 26.6685ZM117.747 32.594H116.286V31.1333H117.747V32.594ZM117.747 30.1411H116.286V28.6804H117.747V30.1411ZM120.2 32.594H118.739V31.1333H120.2V32.594ZM120.2 30.1411H118.739V28.6804H120.2V30.1411Z" fill="#414141"/>
        <g clip-path="url(#clip2_8130_79450)">
            <path d="M104.93 44.2095H131.869V17.2705H104.93V44.2095Z" fill="#009480"/>
            <path d="M121.902 35.7911C120.319 36.5319 118.669 36.8686 116.918 36.4646C113.517 35.6901 111.194 33.4339 109.072 30.74C110.655 28.6186 112.473 26.8676 114.797 25.7227C117.053 24.6114 119.343 24.5104 121.666 25.5543C124.091 26.6655 125.943 28.3829 127.525 30.437C127.593 30.538 127.66 30.639 127.727 30.7737C126.145 32.8615 124.293 34.6462 121.902 35.7911Z" fill="white"/>
            <path d="M118.432 34.7135C116.21 34.7135 114.392 32.9625 114.358 30.74C114.324 28.4839 116.109 26.6318 118.365 26.6318C120.588 26.5981 122.44 28.4165 122.44 30.639C122.44 32.8614 120.655 34.6798 118.432 34.7135ZM117.894 28.6859H116.412V30.1675H117.894V28.6859ZM117.894 31.1778H116.412V32.6594H117.894V31.1778ZM120.385 28.6859H118.904V30.1675H120.385V28.6859ZM120.385 31.1778H118.904V32.6594H120.385V31.1778Z" fill="#414141"/>
        </g>
        <path d="M138.003 23.1954C137.341 23.1954 136.845 23.4159 136.459 23.8569C136.074 24.2978 135.881 24.8766 135.881 25.6483C135.881 26.42 136.074 27.0264 136.432 27.4673C136.79 27.8807 137.314 28.1012 138.003 28.1012C138.416 28.1012 138.885 28.0185 139.436 27.8807V28.4871C139.023 28.6524 138.526 28.7076 137.92 28.7076C137.038 28.7076 136.377 28.432 135.881 27.9083C135.412 27.3846 135.164 26.6129 135.164 25.6483C135.164 25.042 135.274 24.4908 135.495 24.0222C135.715 23.5537 136.046 23.1954 136.487 22.9474C136.928 22.6993 137.424 22.5615 138.003 22.5615C138.637 22.5615 139.16 22.6718 139.629 22.8923L139.326 23.4986C138.912 23.3057 138.444 23.1954 138.003 23.1954Z" fill="#414141"/>
        <path d="M144.48 26.3922C144.48 27.1088 144.287 27.6876 143.928 28.101C143.57 28.5144 143.046 28.7074 142.413 28.7074C142.027 28.7074 141.668 28.6247 141.338 28.4317C141.035 28.2388 140.786 27.9632 140.621 27.6325C140.456 27.2742 140.373 26.8608 140.373 26.3922C140.373 25.6757 140.566 25.0969 140.924 24.6835C141.283 24.2701 141.806 24.0771 142.44 24.0771C143.074 24.0771 143.57 24.2976 143.928 24.711C144.287 25.1245 144.48 25.6757 144.48 26.3922ZM141.062 26.3922C141.062 26.971 141.172 27.3844 141.393 27.6876C141.613 27.9908 141.944 28.1286 142.385 28.1286C142.826 28.1286 143.157 27.9908 143.405 27.6876C143.625 27.3844 143.735 26.9435 143.735 26.3922C143.735 25.8135 143.625 25.4001 143.405 25.0969C143.184 24.7937 142.826 24.6559 142.385 24.6559C141.944 24.6559 141.613 24.7937 141.393 25.0969C141.172 25.3725 141.062 25.8135 141.062 26.3922Z" fill="#414141"/>
        <path d="M151.342 28.6247V25.7308C151.342 25.3725 151.259 25.0969 151.122 24.9315C150.984 24.7662 150.736 24.6559 150.405 24.6559C149.992 24.6559 149.661 24.7662 149.468 25.0142C149.275 25.2623 149.165 25.6205 149.165 26.1166V28.5971H148.476V25.7308C148.476 25.3725 148.393 25.0969 148.255 24.9315C148.117 24.7662 147.869 24.6559 147.539 24.6559C147.125 24.6559 146.794 24.7937 146.602 25.0418C146.409 25.2898 146.298 25.7032 146.298 26.282V28.6247H145.609V24.1598H146.161L146.271 24.7662H146.298C146.436 24.5457 146.602 24.3803 146.85 24.2701C147.07 24.1598 147.346 24.0771 147.621 24.0771C148.31 24.0771 148.779 24.3252 148.999 24.8213H149.027C149.165 24.6008 149.358 24.4079 149.606 24.2701C149.854 24.1323 150.157 24.0771 150.46 24.0771C150.956 24.0771 151.342 24.215 151.59 24.463C151.838 24.711 151.976 25.1245 151.976 25.7032V28.6247H151.342Z" fill="#414141"/>
        <path d="M155.477 28.7073C155.174 28.7073 154.926 28.6522 154.678 28.542C154.43 28.4317 154.237 28.2664 154.072 28.0459H154.017C154.044 28.2939 154.072 28.542 154.072 28.79V30.6366H153.383V24.1598H153.934L154.017 24.7662H154.044C154.21 24.5181 154.43 24.3528 154.651 24.2425C154.871 24.1323 155.147 24.0771 155.45 24.0771C156.029 24.0771 156.497 24.2701 156.828 24.6835C157.159 25.0969 157.324 25.6481 157.324 26.3922C157.324 27.1364 157.159 27.6876 156.828 28.101C156.525 28.5144 156.056 28.7073 155.477 28.7073ZM155.395 24.6559C154.926 24.6559 154.595 24.7937 154.403 25.0418C154.21 25.2898 154.099 25.7032 154.099 26.2544V26.3922C154.099 27.0261 154.21 27.4671 154.403 27.7427C154.623 28.0183 154.954 28.1561 155.395 28.1561C155.781 28.1561 156.084 27.9908 156.304 27.6876C156.525 27.3844 156.635 26.9435 156.635 26.3922C156.635 25.841 156.525 25.4001 156.304 25.1245C156.084 24.8488 155.781 24.6559 155.395 24.6559Z" fill="#414141"/>
        <path d="M159.169 24.1602V27.054C159.169 27.4123 159.252 27.6879 159.418 27.8809C159.583 28.0738 159.831 28.1565 160.189 28.1565C160.658 28.1565 160.988 28.0187 161.209 27.7706C161.429 27.5226 161.54 27.1092 161.54 26.5304V24.1602H162.229V28.625H161.678L161.567 28.0187H161.54C161.402 28.2391 161.209 28.4045 160.961 28.5148C160.713 28.625 160.437 28.6801 160.107 28.6801C159.555 28.6801 159.169 28.5423 158.894 28.2943C158.618 28.0462 158.48 27.6328 158.48 27.054V24.1602H159.169Z" fill="#414141"/>
        <path d="M165.069 28.1562C165.179 28.1562 165.317 28.1562 165.427 28.1286C165.537 28.1011 165.62 28.1011 165.702 28.0735V28.5972C165.62 28.6247 165.51 28.6523 165.372 28.6798C165.234 28.7074 165.096 28.7074 164.986 28.7074C164.132 28.7074 163.691 28.2664 163.691 27.3569V24.7111H163.057V24.3804L163.691 24.1048L163.966 23.1401H164.352V24.1599H165.647V24.6835H164.352V27.3018C164.352 27.5774 164.407 27.7703 164.545 27.9081C164.683 28.0735 164.848 28.1562 165.069 28.1562Z" fill="#414141"/>
        <path d="M168.458 28.7074C167.797 28.7074 167.273 28.5144 166.887 28.101C166.502 27.6876 166.309 27.1364 166.309 26.4198C166.309 25.7032 166.474 25.1245 166.832 24.711C167.191 24.2976 167.659 24.0771 168.265 24.0771C168.817 24.0771 169.258 24.2701 169.588 24.6284C169.919 24.9867 170.084 25.4827 170.084 26.0891V26.5301H166.998C166.998 27.0537 167.135 27.4396 167.383 27.7152C167.632 27.9908 167.99 28.1286 168.431 28.1286C168.899 28.1286 169.395 28.0183 169.864 27.8254V28.4317C169.616 28.542 169.395 28.5971 169.175 28.6522C168.954 28.7073 168.761 28.7074 168.458 28.7074ZM168.293 24.6559C167.935 24.6559 167.659 24.7662 167.439 25.0142C167.218 25.2347 167.108 25.5654 167.053 25.9788H169.395C169.395 25.5654 169.313 25.2347 169.12 24.9867C168.927 24.7386 168.651 24.6559 168.293 24.6559Z" fill="#414141"/>
        <path d="M173.307 24.0771C173.5 24.0771 173.693 24.1047 173.831 24.1323L173.748 24.7662C173.555 24.7386 173.39 24.711 173.252 24.711C172.894 24.711 172.591 24.8488 172.315 25.152C172.067 25.4552 171.929 25.8135 171.929 26.2544V28.6522H171.24V24.1598H171.791L171.874 24.9867H171.902C172.067 24.6835 172.26 24.463 172.508 24.3252C172.756 24.1874 173.004 24.0771 173.307 24.0771Z" fill="#414141"/>
        <path d="M138.857 32.6763H139.602L137.452 38.6294H136.763L134.641 32.6763H135.385L136.763 36.5348C136.928 36.9757 137.038 37.4167 137.149 37.8301C137.259 37.3892 137.369 36.9482 137.535 36.5072L138.857 32.6763Z" fill="#414141"/>
        <path d="M140.264 32.9517C140.264 32.7864 140.291 32.6761 140.374 32.621C140.457 32.5383 140.539 32.5107 140.65 32.5107C140.76 32.5107 140.842 32.5383 140.925 32.621C141.008 32.7037 141.035 32.8139 141.035 32.9517C141.035 33.1171 141.008 33.2273 140.925 33.2824C140.842 33.3651 140.76 33.3927 140.65 33.3927C140.539 33.3927 140.429 33.3651 140.374 33.2824C140.291 33.2273 140.264 33.1171 140.264 32.9517ZM141.008 38.6292H140.319V34.1644H141.008V38.6292Z" fill="#414141"/>
        <path d="M145.308 37.4169C145.308 37.8303 145.143 38.161 144.839 38.3815C144.536 38.602 144.095 38.7122 143.544 38.7122C142.965 38.7122 142.497 38.6296 142.166 38.4366V37.8027C142.387 37.913 142.607 37.9957 142.855 38.0508C143.103 38.1059 143.351 38.1335 143.572 38.1335C143.93 38.1335 144.206 38.0783 144.398 37.9681C144.591 37.8578 144.674 37.6925 144.674 37.4444C144.674 37.2791 144.591 37.1137 144.454 37.0035C144.316 36.8932 144.013 36.7279 143.572 36.5625C143.158 36.3971 142.855 36.2593 142.69 36.1491C142.524 36.0388 142.387 35.901 142.304 35.7632C142.221 35.6254 142.166 35.4325 142.166 35.2396C142.166 34.8813 142.304 34.5781 142.607 34.3852C142.91 34.1647 143.296 34.082 143.82 34.082C144.288 34.082 144.757 34.1923 145.225 34.3852L144.977 34.9364C144.536 34.7435 144.123 34.6608 143.765 34.6608C143.434 34.6608 143.213 34.7159 143.048 34.7986C142.883 34.8813 142.8 35.0467 142.8 35.212C142.8 35.3223 142.827 35.4325 142.883 35.5152C142.938 35.5979 143.048 35.6806 143.186 35.7632C143.324 35.8459 143.572 35.9562 143.957 36.094C144.481 36.2869 144.839 36.4798 145.032 36.6727C145.225 36.8657 145.308 37.1137 145.308 37.4169Z" fill="#414141"/>
        <path d="M146.354 32.9517C146.354 32.7864 146.381 32.6761 146.464 32.621C146.546 32.5383 146.629 32.5107 146.739 32.5107C146.85 32.5107 146.932 32.5383 147.015 32.621C147.098 32.7037 147.125 32.8139 147.125 32.9517C147.125 33.1171 147.098 33.2273 147.015 33.2824C146.932 33.3651 146.85 33.3927 146.739 33.3927C146.629 33.3927 146.519 33.3651 146.464 33.2824C146.381 33.2273 146.354 33.1171 146.354 32.9517ZM147.07 38.6292H146.381V34.1644H147.07V38.6292Z" fill="#414141"/>
        <path d="M152.362 36.3971C152.362 37.1137 152.169 37.6925 151.811 38.1059C151.453 38.5193 150.929 38.7122 150.295 38.7122C149.91 38.7122 149.551 38.6296 149.22 38.4366C148.917 38.2437 148.669 37.9681 148.504 37.6374C148.339 37.3066 148.256 36.8657 148.256 36.3971C148.256 35.6806 148.449 35.1018 148.807 34.6884C149.165 34.275 149.689 34.082 150.323 34.082C150.957 34.082 151.453 34.3025 151.811 34.7159C152.169 35.1293 152.362 35.6806 152.362 36.3971ZM148.972 36.3971C148.972 36.9759 149.083 37.3893 149.303 37.6925C149.524 37.9957 149.854 38.1335 150.295 38.1335C150.736 38.1335 151.067 37.9957 151.315 37.6925C151.536 37.3893 151.646 36.9483 151.646 36.3971C151.646 35.8184 151.536 35.4049 151.315 35.1018C151.095 34.7986 150.736 34.6608 150.295 34.6608C149.854 34.6608 149.524 34.7986 149.303 35.1018C149.083 35.4049 148.972 35.8184 148.972 36.3971Z" fill="#414141"/>
        <path d="M156.606 38.6293V35.7354C156.606 35.3771 156.523 35.1015 156.358 34.9086C156.193 34.7157 155.945 34.633 155.586 34.633C155.118 34.633 154.787 34.7708 154.567 35.0188C154.346 35.2669 154.236 35.6803 154.236 36.2591V38.6017H153.547V34.1644H154.098L154.208 34.7708H154.236C154.374 34.5503 154.567 34.3849 154.815 34.2471C155.063 34.1369 155.338 34.0542 155.641 34.0542C156.193 34.0542 156.579 34.192 156.854 34.44C157.13 34.6881 157.268 35.1015 157.268 35.6803V38.6017H156.606V38.6293Z" fill="#414141"/>
    </g>
    <rect width="91.8691" height="61.2461" transform="translate(186.275 0.110352)" fill="white"/>
    <g clip-path="url(#clip3_8130_79450)">
        <path d="M233.313 12.957H197.76V48.5104H233.313V12.957Z" fill="#0063B1"/>
        <path d="M226.562 19.7095H204.514V41.7581H226.562V19.7095Z" fill="white"/>
        <path d="M224.94 21.3628H206.164V40.1385H224.94V21.3628Z" fill="#0063B1"/>
        <path d="M213.194 25.9795H210.266V28.9078H213.194V25.9795Z" fill="white"/>
        <path d="M220.876 25.9795H217.947V28.9078H220.876V25.9795Z" fill="white"/>
        <path d="M219.602 32.7661C218.672 33.9719 217.225 34.7643 215.572 34.7643C213.918 34.7643 212.471 33.9719 211.541 32.7661L210.197 33.4551C211.369 35.1432 213.332 36.2457 215.572 36.2457C217.811 36.2457 219.775 35.1432 220.946 33.4551L219.602 32.7661Z" fill="white"/>
        <path d="M243.167 28.0466L242.168 25.4973H238.929L237.93 28.0466H237L240.169 19.9507H240.962L244.131 28.0466H243.167ZM241.858 24.6705L240.927 22.19C240.79 21.8799 240.686 21.501 240.548 21.0187C240.48 21.3632 240.342 21.7421 240.204 22.19L239.274 24.6705H241.858Z" fill="#414141"/>
        <path d="M248.955 28.0468H244.58V27.4266L247.887 22.7069H244.787V21.9834H248.886V22.7069L245.648 27.3233H248.99V28.0468H248.955Z" fill="#414141"/>
        <path d="M251.229 22.0176V25.945C251.229 26.4273 251.332 26.8063 251.574 27.0474C251.815 27.2886 252.159 27.4264 252.641 27.4264C253.262 27.4264 253.744 27.2541 254.02 26.9096C254.295 26.5651 254.467 26.0139 254.467 25.2215V22.052H255.398V28.0809H254.605L254.467 27.2886H254.433C254.261 27.5986 253.985 27.8053 253.641 27.9776C253.296 28.1498 252.917 28.2187 252.504 28.2187C251.78 28.2187 251.229 28.0465 250.85 27.702C250.471 27.3575 250.299 26.8063 250.299 26.0139V22.0176H251.229Z" fill="#414141"/>
        <path d="M260.047 21.9146C260.323 21.9146 260.564 21.949 260.771 21.9835L260.633 22.8447C260.392 22.7758 260.15 22.7758 259.978 22.7758C259.496 22.7758 259.082 22.9825 258.738 23.3615C258.393 23.7749 258.221 24.2572 258.221 24.8429V28.0813H257.291V22.0179H258.049L258.152 23.1203H258.187C258.393 22.7414 258.669 22.4313 259.014 22.2246C259.324 22.0179 259.668 21.9146 260.047 21.9146Z" fill="#414141"/>
        <path d="M264.457 28.1846C263.561 28.1846 262.872 27.909 262.356 27.3578C261.839 26.8066 261.598 26.0487 261.598 25.084C261.598 24.1194 261.839 23.327 262.321 22.7758C262.803 22.1902 263.458 21.9146 264.25 21.9146C265.008 21.9146 265.594 22.1557 266.042 22.6725C266.49 23.1548 266.696 23.8438 266.696 24.6362V25.2218H262.528C262.562 25.9453 262.735 26.4621 263.079 26.841C263.424 27.22 263.906 27.3922 264.526 27.3922C265.181 27.3922 265.835 27.2544 266.455 26.9788V27.7712C266.145 27.909 265.835 28.0124 265.525 28.0813C265.215 28.1502 264.836 28.1846 264.457 28.1846ZM264.181 22.6725C263.699 22.6725 263.32 22.8447 263.01 23.1548C262.735 23.4648 262.562 23.9127 262.493 24.4639H265.663C265.663 23.8783 265.525 23.4304 265.284 23.1548C265.043 22.8447 264.664 22.6725 264.181 22.6725Z" fill="#414141"/>
        <path d="M239.034 41.5857H238.104V33.5586H242.582V34.3854H239.034V37.3482H242.375V38.175H239.034V41.5857Z" fill="#414141"/>
        <path d="M247.473 41.5859L247.301 40.7246H247.267C246.956 41.1036 246.681 41.3447 246.371 41.4825C246.061 41.6203 245.682 41.6892 245.234 41.6892C244.648 41.6892 244.166 41.5514 243.821 41.2414C243.477 40.9313 243.305 40.4834 243.305 39.9322C243.305 38.7264 244.269 38.0719 246.233 38.003L247.267 37.9685V37.5896C247.267 37.1073 247.163 36.7627 246.956 36.556C246.75 36.3149 246.44 36.2115 245.992 36.2115C245.475 36.2115 244.924 36.3493 244.269 36.6594L243.994 35.9704C244.304 35.7981 244.614 35.6948 244.958 35.5914C245.303 35.4881 245.682 35.4536 246.026 35.4536C246.75 35.4536 247.267 35.6259 247.611 35.9359C247.956 36.246 248.128 36.7627 248.128 37.4862V41.6203H247.473V41.5859ZM245.406 40.9658C245.992 40.9658 246.405 40.7935 246.75 40.4834C247.06 40.1734 247.232 39.7255 247.232 39.1743V38.6231L246.302 38.6575C245.578 38.692 245.062 38.7953 244.717 39.0021C244.407 39.2088 244.235 39.5188 244.235 39.9322C244.235 40.2767 244.338 40.5179 244.545 40.6901C244.786 40.8624 245.062 40.9658 245.406 40.9658Z" fill="#414141"/>
        <path d="M252.467 41.6892C251.606 41.6892 250.917 41.4136 250.434 40.8969C249.952 40.3456 249.711 39.5877 249.711 38.6231C249.711 37.624 249.952 36.8316 250.434 36.2804C250.917 35.7292 251.606 35.4536 252.501 35.4536C252.777 35.4536 253.087 35.4881 253.363 35.557C253.638 35.6259 253.879 35.6948 254.052 35.7637L253.776 36.556C253.569 36.4871 253.363 36.4182 253.122 36.3493C252.88 36.2804 252.674 36.2804 252.501 36.2804C251.261 36.2804 250.676 37.0728 250.676 38.6231C250.676 39.381 250.813 39.9322 251.123 40.3456C251.433 40.7591 251.881 40.9313 252.467 40.9313C252.984 40.9313 253.501 40.828 254.017 40.6212V41.4136C253.569 41.5859 253.053 41.6892 252.467 41.6892Z" fill="#414141"/>
        <path d="M257.981 41.6895C257.085 41.6895 256.396 41.4139 255.879 40.8627C255.362 40.3115 255.121 39.5535 255.121 38.5889C255.121 37.6243 255.362 36.8319 255.845 36.2807C256.327 35.695 256.981 35.4194 257.774 35.4194C258.532 35.4194 259.117 35.6606 259.565 36.1774C260.013 36.6597 260.22 37.3487 260.22 38.1411V38.7267H256.051C256.086 39.4502 256.258 39.967 256.602 40.3459C256.947 40.7249 257.429 40.8971 258.049 40.8971C258.704 40.8971 259.359 40.7593 259.979 40.4837V41.3105C259.669 41.4483 259.359 41.5517 259.048 41.6206C258.738 41.6895 258.359 41.6895 257.981 41.6895ZM257.705 36.2118C257.223 36.2118 256.844 36.3841 256.534 36.6941C256.258 37.0042 256.086 37.452 256.017 38.0033H259.186C259.186 37.4176 259.048 36.9697 258.807 36.6941C258.566 36.3841 258.187 36.2118 257.705 36.2118Z" fill="#414141"/>
    </g>
    <rect width="91.8691" height="61.2461" transform="translate(279.102 0.110352)" fill="white"/>
    <g clip-path="url(#clip4_8130_79450)">
        <path d="M321.474 15.3047H290.588V46.1907H321.474V15.3047Z" fill="#0063B1"/>
        <path d="M306.045 23.9922C300.773 23.9922 296.459 29.1149 296.459 30.7326C296.459 32.3503 300.743 37.473 306.045 37.473C311.348 37.473 315.632 32.3503 315.632 30.7326C315.632 29.1149 311.318 23.9922 306.045 23.9922ZM312.007 33.938C310.928 34.8367 308.712 36.3646 306.045 36.3646C303.379 36.3646 301.162 34.8367 300.084 33.938C298.376 32.5001 297.627 31.0921 297.597 30.7625C297.627 30.4031 298.376 28.9951 300.084 27.5871C301.162 26.6883 303.379 25.1605 306.045 25.1605C308.712 25.1605 310.928 26.6883 312.007 27.5871C313.714 29.025 314.463 30.433 314.493 30.7625C314.463 31.0921 313.714 32.5001 312.007 33.938Z" fill="white"/>
        <path d="M309.251 31.2421V30.2235L308.443 30.0138C308.383 29.8341 308.323 29.6543 308.233 29.5045L308.652 28.7856L307.963 28.0965L307.244 28.5159C307.094 28.4261 306.915 28.3661 306.735 28.3062L306.525 27.5273H305.507L305.297 28.3362C305.117 28.3961 304.938 28.456 304.788 28.5459L304.069 28.1265L303.35 28.8455L303.769 29.5644C303.679 29.7142 303.619 29.894 303.559 30.0737L302.811 30.2235V31.2421L303.619 31.4518C303.679 31.6315 303.739 31.8112 303.829 31.961L303.41 32.68L304.129 33.399L304.848 32.9796C304.997 33.0694 305.177 33.1294 305.357 33.1893L305.567 33.9981H306.585L306.795 33.1893C306.975 33.1294 307.154 33.0694 307.304 32.9796L308.023 33.399L308.742 32.68L308.323 31.961C308.413 31.8112 308.472 31.6315 308.532 31.4518L309.251 31.2421ZM306.046 32.0809C305.297 32.0809 304.698 31.4817 304.698 30.7328C304.698 29.9838 305.297 29.3847 306.046 29.3847C306.795 29.3847 307.394 29.9838 307.394 30.7328C307.394 31.4817 306.795 32.0809 306.046 32.0809Z" fill="white"/>
        <path d="M330.043 22.315L329.174 20.0682H326.358L325.489 22.315H324.65L327.436 15.2451H328.125L330.911 22.315H330.043ZM328.934 19.3493L328.125 17.1624C328.006 16.8928 327.916 16.5333 327.796 16.1438C327.736 16.4434 327.616 16.8029 327.496 17.1624L326.658 19.3493H328.934Z" fill="#414141"/>
        <path d="M335.135 22.315H331.301V21.7757L334.177 17.6716H331.481V17.0425H335.075V17.6716L332.229 21.7158H335.135V22.315Z" fill="#414141"/>
        <path d="M337.113 17.0425V20.4576C337.113 20.877 337.203 21.2065 337.412 21.4162C337.622 21.6259 337.922 21.7458 338.341 21.7458C338.88 21.7458 339.3 21.596 339.539 21.2964C339.809 20.9968 339.929 20.4876 339.929 19.8285V17.0425H340.738V22.315H340.079L339.959 21.596H339.929C339.779 21.8656 339.539 22.0454 339.24 22.1951C338.94 22.3449 338.611 22.4048 338.251 22.4048C337.622 22.4048 337.113 22.2551 336.813 21.9555C336.484 21.6559 336.334 21.1466 336.334 20.4876V17.0425H337.113Z" fill="#414141"/>
        <path d="M344.841 16.9526C345.08 16.9526 345.29 16.9826 345.47 17.0126L345.35 17.7615C345.14 17.7016 344.93 17.7016 344.781 17.7016C344.361 17.7016 344.002 17.8813 343.672 18.2108C343.373 18.5703 343.223 18.9897 343.223 19.499V22.345H342.414V17.0425H343.073L343.163 18.0311H343.193C343.403 17.7016 343.612 17.432 343.912 17.2223C344.212 17.0126 344.511 16.9526 344.841 16.9526Z" fill="#414141"/>
        <path d="M348.707 22.405C347.928 22.405 347.299 22.1654 346.849 21.6861C346.4 21.2067 346.16 20.5477 346.16 19.7089C346.16 18.8701 346.37 18.1811 346.789 17.6718C347.209 17.1625 347.778 16.9229 348.467 16.9229C349.126 16.9229 349.665 17.1326 350.025 17.5819C350.414 18.0313 350.594 18.6005 350.594 19.3194V19.8287H346.939C346.969 20.4578 347.119 20.9072 347.418 21.2367C347.718 21.5662 348.137 21.716 348.677 21.716C349.246 21.716 349.815 21.5962 350.354 21.3565V22.0755C350.085 22.1953 349.815 22.2852 349.545 22.3451C349.366 22.405 349.066 22.405 348.707 22.405ZM348.467 17.6119C348.047 17.6119 347.718 17.7617 347.448 18.0313C347.209 18.3009 347.059 18.6903 346.999 19.1696H349.755C349.755 18.6604 349.635 18.2709 349.426 18.0013C349.216 17.7617 348.886 17.6119 348.467 17.6119Z" fill="#414141"/>
        <path d="M328.636 27.7672C327.857 27.7672 327.258 28.0368 326.808 28.5461C326.359 29.0553 326.149 29.7743 326.149 30.673C326.149 31.6017 326.359 32.3207 326.808 32.8C327.228 33.3093 327.857 33.5489 328.666 33.5489C329.145 33.5489 329.714 33.4591 330.343 33.2793V33.9983C329.864 34.178 329.265 34.2679 328.546 34.2679C327.497 34.2679 326.719 33.9384 326.149 33.3093C325.58 32.6802 325.311 31.7815 325.311 30.6131C325.311 29.8941 325.46 29.265 325.73 28.6958C326 28.1566 326.389 27.7372 326.898 27.4376C327.408 27.1381 328.007 26.9883 328.696 26.9883C329.445 26.9883 330.074 27.1381 330.643 27.4077L330.283 28.0967C329.714 27.887 329.175 27.7672 328.636 27.7672Z" fill="#414141"/>
        <path d="M332.5 28.8755V32.3206C332.5 32.74 332.589 33.0695 332.799 33.2792C333.009 33.4889 333.308 33.6087 333.728 33.6087C334.267 33.6087 334.686 33.459 334.926 33.1594C335.196 32.8598 335.316 32.3505 335.316 31.6915V28.9054H336.124V34.1779H335.465L335.346 33.459H335.316C335.166 33.7286 334.926 33.9083 334.627 34.0581C334.327 34.2079 333.997 34.2678 333.638 34.2678C333.009 34.2678 332.5 34.118 332.2 33.8184C331.87 33.5189 331.721 33.0396 331.721 32.3505V28.8755H332.5Z" fill="#414141"/>
        <path d="M341.216 32.7405C341.216 33.2198 341.036 33.6093 340.677 33.8789C340.317 34.1485 339.808 34.2683 339.119 34.2683C338.43 34.2683 337.861 34.1485 337.471 33.9388V33.1899C337.711 33.3097 338.011 33.4295 338.28 33.4894C338.58 33.5493 338.849 33.6093 339.119 33.6093C339.538 33.6093 339.868 33.5493 340.078 33.3996C340.317 33.2797 340.407 33.07 340.407 32.8004C340.407 32.5907 340.317 32.411 340.138 32.2612C339.958 32.1114 339.598 31.9316 339.089 31.7519C338.61 31.5722 338.25 31.4224 338.041 31.2726C337.831 31.1228 337.681 30.973 337.591 30.7933C337.501 30.6135 337.441 30.4038 337.441 30.1642C337.441 29.7448 337.621 29.3853 337.981 29.1456C338.34 28.906 338.819 28.7861 339.419 28.7861C339.988 28.7861 340.557 28.906 341.096 29.1456L340.827 29.8047C340.287 29.595 339.808 29.4752 339.389 29.4752C338.999 29.4752 338.73 29.5351 338.52 29.6549C338.34 29.7747 338.22 29.9245 338.22 30.1342C338.22 30.284 338.25 30.4038 338.34 30.4937C338.43 30.5836 338.52 30.6734 338.7 30.7633C338.849 30.8532 339.179 30.973 339.628 31.1528C340.257 31.3924 340.677 31.6021 340.886 31.8418C341.096 32.0814 341.216 32.381 341.216 32.7405Z" fill="#414141"/>
        <path d="M344.213 33.609C344.363 33.609 344.483 33.609 344.632 33.579C344.752 33.5491 344.872 33.5491 344.932 33.5191V34.1182C344.842 34.1482 344.722 34.2081 344.543 34.2081C344.363 34.2381 344.213 34.2381 344.093 34.2381C343.075 34.2381 342.565 33.6988 342.565 32.6204V29.5048H341.816V29.1154L342.565 28.7858L342.895 27.6475H343.344V28.8757H344.872V29.5048H343.344V32.6204C343.344 32.9499 343.434 33.1896 343.584 33.3393C343.734 33.5191 343.943 33.609 344.213 33.609Z" fill="#414141"/>
        <path d="M350.564 31.5119C350.564 32.3807 350.354 33.0398 349.905 33.5191C349.486 33.9984 348.886 34.238 348.108 34.238C347.628 34.238 347.209 34.1182 346.849 33.9085C346.49 33.6988 346.19 33.3693 346.011 32.9499C345.801 32.5305 345.711 32.0512 345.711 31.482C345.711 30.6132 345.921 29.9542 346.37 29.4748C346.789 28.9955 347.389 28.7559 348.167 28.7559C348.916 28.7559 349.486 28.9955 349.935 29.5048C350.324 30.0141 350.564 30.6731 350.564 31.5119ZM346.52 31.5119C346.52 32.201 346.67 32.7102 346.939 33.0697C347.209 33.4292 347.598 33.6089 348.137 33.6089C348.647 33.6089 349.066 33.4292 349.336 33.0697C349.605 32.7102 349.755 32.201 349.755 31.5119C349.755 30.8529 349.605 30.3436 349.336 29.9841C349.066 29.6246 348.677 29.4748 348.137 29.4748C347.628 29.4748 347.209 29.6546 346.939 29.9841C346.67 30.3436 346.52 30.8529 346.52 31.5119Z" fill="#414141"/>
        <path d="M358.681 34.1784V30.7334C358.681 30.314 358.591 29.9844 358.411 29.7747C358.231 29.565 357.962 29.4452 357.572 29.4452C357.063 29.4452 356.703 29.595 356.464 29.8646C356.224 30.1342 356.104 30.5836 356.104 31.1827V34.1185H355.295V30.7334C355.295 30.314 355.205 29.9844 355.026 29.7747C354.846 29.565 354.576 29.4452 354.187 29.4452C353.678 29.4452 353.318 29.595 353.078 29.8946C352.839 30.1941 352.719 30.6734 352.719 31.3625V34.1485H351.91V28.876H352.569L352.689 29.595H352.719C352.869 29.3254 353.078 29.1456 353.348 28.9958C353.618 28.846 353.917 28.7861 354.277 28.7861C355.116 28.7861 355.655 29.0857 355.894 29.6849H355.924C356.074 29.4152 356.314 29.1756 356.613 29.0258C356.913 28.876 357.243 28.7861 357.632 28.7861C358.231 28.7861 358.681 28.9359 358.98 29.2355C359.28 29.5351 359.429 30.0443 359.429 30.7034V34.1485H358.681V34.1784Z" fill="#414141"/>
        <path d="M329.653 39.0913H330.522L327.976 46.1313H327.167L324.65 39.0913H325.519L327.137 43.6448C327.317 44.1541 327.466 44.6933 327.586 45.1726C327.706 44.6634 327.856 44.1241 328.036 43.6149L329.653 39.0913Z" fill="#414141"/>
        <path d="M331.301 39.4209C331.301 39.2412 331.361 39.0914 331.451 39.0315C331.54 38.9416 331.66 38.9116 331.78 38.9116C331.9 38.9116 332.02 38.9416 332.11 39.0315C332.2 39.1213 332.259 39.2412 332.259 39.4209C332.259 39.6006 332.2 39.7205 332.11 39.8103C332.02 39.9002 331.9 39.9302 331.78 39.9302C331.63 39.9302 331.54 39.9002 331.451 39.8103C331.361 39.7205 331.301 39.6006 331.301 39.4209ZM332.17 46.1313H331.361V40.8588H332.17V46.1313Z" fill="#414141"/>
        <path d="M337.292 44.6931C337.292 45.1725 337.112 45.5619 336.753 45.8315C336.393 46.1011 335.884 46.221 335.195 46.221C334.506 46.221 333.937 46.1011 333.548 45.8914V45.1425C333.787 45.2623 334.087 45.3822 334.356 45.4421C334.656 45.502 334.926 45.5619 335.195 45.5619C335.615 45.5619 335.944 45.502 336.154 45.3522C336.393 45.2324 336.483 45.0227 336.483 44.753C336.483 44.5433 336.393 44.3636 336.214 44.2138C336.034 44.064 335.675 43.8843 335.165 43.7045C334.686 43.5248 334.326 43.375 334.117 43.2252C333.907 43.0754 333.757 42.9257 333.667 42.7459C333.577 42.5662 333.518 42.3565 333.518 42.1168C333.518 41.6974 333.697 41.3379 334.057 41.0983C334.416 40.8586 334.896 40.7388 335.495 40.7388C336.064 40.7388 336.633 40.8586 337.172 41.0983L336.873 41.7573C336.334 41.5476 335.854 41.4278 335.435 41.4278C335.045 41.4278 334.776 41.4877 334.566 41.6075C334.386 41.7274 334.267 41.8771 334.267 42.0868C334.267 42.2366 334.296 42.3565 334.386 42.4463C334.446 42.5362 334.566 42.6261 334.746 42.716C334.896 42.8058 335.225 42.9257 335.675 43.1054C336.304 43.3451 336.723 43.5548 336.933 43.7944C337.142 44.0341 337.292 44.3336 337.292 44.6931Z" fill="#414141"/>
        <path d="M338.521 39.4209C338.521 39.2412 338.581 39.0914 338.671 39.0315C338.761 38.9416 338.881 38.9116 339.001 38.9116C339.121 38.9116 339.24 38.9416 339.33 39.0315C339.42 39.1213 339.48 39.2412 339.48 39.4209C339.48 39.6006 339.42 39.7205 339.33 39.8103C339.24 39.9002 339.121 39.9302 339.001 39.9302C338.851 39.9302 338.761 39.9002 338.671 39.8103C338.581 39.7205 338.521 39.6006 338.521 39.4209ZM339.39 46.1313H338.581V40.8588H339.39V46.1313Z" fill="#414141"/>
        <path d="M345.65 43.4948C345.65 44.3636 345.44 45.0227 344.991 45.502C344.571 45.9813 343.942 46.221 343.193 46.221C342.714 46.221 342.295 46.1011 341.935 45.8914C341.576 45.6817 341.276 45.3522 341.096 44.9328C340.887 44.5134 340.797 44.0341 340.797 43.4649C340.797 42.5961 341.007 41.9371 341.456 41.4577C341.875 40.9784 342.474 40.7388 343.253 40.7388C344.002 40.7388 344.571 40.9784 345.021 41.4877C345.44 41.967 345.65 42.656 345.65 43.4948ZM341.636 43.4948C341.636 44.1839 341.785 44.6931 342.055 45.0526C342.325 45.4121 342.714 45.5919 343.253 45.5919C343.763 45.5919 344.182 45.4121 344.452 45.0526C344.721 44.6931 344.871 44.1839 344.871 43.4948C344.871 42.8358 344.721 42.3265 344.452 41.967C344.182 41.6075 343.793 41.4577 343.253 41.4577C342.744 41.4577 342.325 41.6375 342.055 41.967C341.756 42.2965 341.636 42.8058 341.636 43.4948Z" fill="#414141"/>
        <path d="M350.653 46.1314V42.7163C350.653 42.2969 350.563 41.9673 350.353 41.7576C350.144 41.5479 349.844 41.4281 349.425 41.4281C348.885 41.4281 348.466 41.5779 348.196 41.8775C347.927 42.177 347.807 42.6564 347.807 43.3454V46.1314H346.998V40.8589H347.657L347.777 41.5779H347.807C347.957 41.3083 348.196 41.1285 348.496 40.9787C348.795 40.829 349.125 40.769 349.485 40.769C350.114 40.769 350.593 40.9188 350.922 41.2184C351.252 41.518 351.402 42.0273 351.402 42.6863V46.1314H350.653Z" fill="#414141"/>
    </g>
    <rect width="91.8691" height="61.2461" transform="translate(371.928 0.110352)" fill="white"/>
    <g clip-path="url(#clip5_8130_79450)">
        <path d="M406.22 31.8704C406.828 31.8704 407.322 31.3768 407.322 30.768C407.322 30.1591 406.828 29.6655 406.22 29.6655C405.611 29.6655 405.117 30.1591 405.117 30.768C405.117 31.3768 405.611 31.8704 406.22 31.8704Z" fill="#0063B1"/>
        <path d="M408.54 28.1494C408.219 25.5771 405.302 22.867 402.936 23.579C401.88 22.3617 399.491 21.5578 397.906 22.867C396.345 21.9253 394.415 22.1091 393.198 23.1655V29.6883H396.643C396.896 29.6883 397.08 29.895 397.08 30.1246V32.4673C397.952 32.674 398.618 33.4549 398.618 34.3965C398.618 35.476 397.723 36.3717 396.643 36.3717C395.564 36.3717 394.668 35.476 394.668 34.3965C394.668 33.4549 395.334 32.674 396.207 32.4673V30.538H392.762C392.509 30.538 392.325 30.3313 392.325 30.1017V23.7168C388.099 23.4641 387.066 27.5753 387.066 27.5753C384.953 28.1265 383.414 30.0328 383.414 32.3065C383.414 35.0167 385.619 37.2215 388.329 37.2215C388.857 37.2215 389.363 37.1296 389.845 36.9918C390.327 37.4971 390.947 37.9335 391.613 38.1632V33.0415H390.029C389.822 33.9142 389.041 34.5803 388.099 34.5803C387.02 34.5803 386.124 33.6846 386.124 32.6051C386.124 31.5256 387.02 30.6299 388.099 30.6299C389.041 30.6299 389.822 31.296 390.029 32.1687H392.05C392.302 32.1687 392.486 32.3754 392.486 32.6051V38.3699C392.968 38.3928 393.451 38.3239 393.887 38.0713C394.714 39.0589 398.779 40.3221 400.594 38.2321C400.938 38.3239 401.26 38.3928 401.558 38.4388V27.2997H399.537C399.33 28.1724 398.549 28.8385 397.608 28.8385C396.528 28.8385 395.633 27.9427 395.633 26.8633C395.633 25.7838 396.528 24.8881 397.608 24.8881C398.549 24.8881 399.33 25.5541 399.537 26.4269H401.995C402.247 26.4269 402.431 26.6336 402.431 26.8633V33.2941H405.761V32.697C404.888 32.4903 404.222 31.7094 404.222 30.7677C404.222 29.6883 405.118 28.7925 406.198 28.7925C407.277 28.7925 408.173 29.6883 408.173 30.7677C408.173 31.7094 407.507 32.4903 406.634 32.697V33.7305C406.634 33.9831 406.427 34.1669 406.198 34.1669H402.431V38.5077C404.98 38.4847 406.129 36.6703 406.129 36.6703C406.519 36.7851 406.933 36.854 407.369 36.854C409.826 36.854 411.802 34.8789 411.802 32.4214C411.802 30.3773 410.424 28.6547 408.54 28.1494Z" fill="#0063B1"/>
        <path d="M396.62 35.4763C397.229 35.4763 397.722 34.9828 397.722 34.3739C397.722 33.7651 397.229 33.2715 396.62 33.2715C396.011 33.2715 395.518 33.7651 395.518 34.3739C395.518 34.9828 396.011 35.4763 396.62 35.4763Z" fill="#0063B1"/>
        <path d="M397.608 27.9656C398.217 27.9656 398.711 27.472 398.711 26.8632C398.711 26.2543 398.217 25.7607 397.608 25.7607C396.999 25.7607 396.506 26.2543 396.506 26.8632C396.506 27.472 396.999 27.9656 397.608 27.9656Z" fill="#0063B1"/>
        <path d="M388.1 33.7073C388.709 33.7073 389.203 33.2137 389.203 32.6049C389.203 31.996 388.709 31.5024 388.1 31.5024C387.492 31.5024 386.998 31.996 386.998 32.6049C386.998 33.2137 387.492 33.7073 388.1 33.7073Z" fill="#0063B1"/>
        <path d="M418.231 23.556L417.565 21.8564H415.429L414.763 23.556H414.143L416.256 18.1816H416.784L418.897 23.556H418.231ZM417.358 21.2822L416.738 19.6286C416.646 19.4219 416.577 19.1692 416.485 18.8477C416.439 19.0774 416.347 19.33 416.256 19.6286L415.635 21.2822H417.358Z" fill="#414141"/>
        <path d="M422.089 23.5559H419.172V23.1425L421.354 20.0189H419.31V19.5366H422.02V20.0189L419.861 23.0736H422.066V23.5559H422.089Z" fill="#414141"/>
        <path d="M423.581 19.5366V22.1319C423.581 22.4535 423.649 22.7061 423.81 22.8669C423.948 23.0276 424.201 23.1195 424.499 23.1195C424.913 23.1195 425.234 23.0047 425.418 22.775C425.602 22.5453 425.717 22.1779 425.717 21.6496V19.5366H426.314V23.5559H425.808L425.717 23.0276H425.694C425.579 23.2344 425.395 23.3722 425.165 23.487C424.936 23.6018 424.683 23.6478 424.407 23.6478C423.925 23.6478 423.558 23.5329 423.305 23.3033C423.052 23.0736 422.938 22.7061 422.938 22.2008V19.5366H423.581Z" fill="#414141"/>
        <path d="M429.439 19.4678C429.623 19.4678 429.784 19.4907 429.922 19.5137L429.83 20.0879C429.669 20.042 429.508 20.042 429.393 20.042C429.072 20.042 428.796 20.1798 428.567 20.4324C428.337 20.685 428.222 21.0295 428.222 21.42V23.5789H427.625V19.5367H428.13L428.199 20.2716H428.222C428.36 20.019 428.544 19.8123 428.75 19.6745C428.957 19.5367 429.187 19.4678 429.439 19.4678Z" fill="#414141"/>
        <path d="M432.379 23.6248C431.782 23.6248 431.322 23.4411 430.978 23.0736C430.633 22.7062 430.473 22.2009 430.473 21.5808C430.473 20.9377 430.633 20.4324 430.955 20.042C431.277 19.6515 431.69 19.4678 432.241 19.4678C432.746 19.4678 433.137 19.6285 433.435 19.9731C433.734 20.2946 433.872 20.731 433.872 21.2822V21.6726H431.116C431.139 22.132 431.254 22.4995 431.483 22.7521C431.713 23.0047 432.034 23.1196 432.425 23.1196C432.861 23.1196 433.275 23.0277 433.711 22.844V23.3952C433.504 23.487 433.298 23.5559 433.091 23.6019C432.861 23.6019 432.632 23.6248 432.379 23.6248ZM432.195 19.9731C431.874 19.9731 431.621 20.0879 431.414 20.2946C431.231 20.5013 431.116 20.7999 431.07 21.1674H433.16C433.16 20.7769 433.068 20.5013 432.907 20.2946C432.769 20.0649 432.517 19.9731 432.195 19.9731Z" fill="#414141"/>
        <path d="M415.497 32.5359H414.877V27.1846H417.863V27.7358H415.497V29.688H417.725V30.2392H415.497V32.5359Z" fill="#414141"/>
        <path d="M422.112 30.5378C422.112 31.1808 421.951 31.7091 421.63 32.0766C421.308 32.444 420.849 32.6278 420.275 32.6278C419.907 32.6278 419.609 32.5359 419.31 32.3751C419.012 32.2144 418.828 31.9617 418.667 31.6402C418.506 31.3186 418.438 30.9512 418.438 30.5378C418.438 29.8947 418.598 29.3664 418.92 29.0219C419.241 28.6544 419.701 28.4707 420.275 28.4707C420.826 28.4707 421.285 28.6544 421.607 29.0219C421.929 29.3894 422.112 29.8947 422.112 30.5378ZM419.058 30.5378C419.058 31.043 419.149 31.4335 419.356 31.7091C419.563 31.9847 419.861 32.1225 420.252 32.1225C420.642 32.1225 420.941 31.9847 421.148 31.7321C421.354 31.4564 421.446 31.066 421.446 30.5607C421.446 30.0554 421.354 29.665 421.148 29.3894C420.941 29.1138 420.642 28.999 420.229 28.999C419.839 28.999 419.54 29.1368 419.333 29.3894C419.149 29.6191 419.058 30.0095 419.058 30.5378Z" fill="#414141"/>
        <path d="M425.006 28.4482C425.19 28.4482 425.35 28.4712 425.488 28.4942L425.396 29.0684C425.235 29.0224 425.075 29.0224 424.96 29.0224C424.638 29.0224 424.363 29.1602 424.133 29.4129C423.903 29.6655 423.789 30.01 423.789 30.4005V32.5594H423.191V28.5401H423.697L423.766 29.2751H423.789C423.926 29.0224 424.11 28.8157 424.317 28.6779C424.524 28.5171 424.753 28.4482 425.006 28.4482Z" fill="#414141"/>
        <path d="M431.345 32.5359V29.9406C431.345 29.6191 431.276 29.3894 431.138 29.2286C431 29.0679 430.794 28.999 430.495 28.999C430.128 28.999 429.829 29.1138 429.668 29.3205C429.484 29.5272 429.393 29.8717 429.393 30.3311V32.5589H428.795V29.9406C428.795 29.6191 428.727 29.3894 428.589 29.2286C428.451 29.0679 428.244 28.999 427.946 28.999C427.555 28.999 427.28 29.1138 427.119 29.3435C426.935 29.5731 426.843 29.9406 426.843 30.4689V32.5818H426.246V28.5396H426.751L426.843 29.0908H426.866C426.981 28.9071 427.142 28.7463 427.349 28.6315C427.555 28.5166 427.785 28.4707 428.061 28.4707C428.681 28.4707 429.094 28.7004 429.301 29.1597H429.324C429.439 28.953 429.622 28.7922 429.852 28.6544C430.082 28.5166 430.334 28.4707 430.633 28.4707C431.092 28.4707 431.437 28.5855 431.643 28.8152C431.873 29.0449 431.988 29.4124 431.988 29.9406V32.5589H431.345V32.5359Z" fill="#414141"/>
        <path d="M415.497 39.3345V41.5623H414.877V36.2109H416.347C417.013 36.2109 417.495 36.3258 417.794 36.5784C418.115 36.8311 418.253 37.1985 418.253 37.7038C418.253 38.4158 417.886 38.8981 417.174 39.1278L418.621 41.5393H417.886L416.599 39.3115H415.497V39.3345ZM415.497 38.8062H416.347C416.783 38.8062 417.105 38.7144 417.311 38.5536C417.518 38.3928 417.61 38.1172 417.61 37.7727C417.61 37.4282 417.495 37.1756 417.289 37.0148C417.082 36.854 416.737 36.7851 416.278 36.7851H415.474V38.8062H415.497Z" fill="#414141"/>
        <path d="M421.102 41.6312C420.504 41.6312 420.045 41.4475 419.701 41.08C419.356 40.7125 419.195 40.2072 419.195 39.5871C419.195 38.944 419.356 38.4387 419.678 38.0483C419.999 37.6579 420.413 37.4741 420.964 37.4741C421.469 37.4741 421.86 37.6349 422.158 37.9794C422.457 38.3009 422.594 38.7373 422.594 39.2885V39.679H419.838C419.861 40.1383 419.976 40.5058 420.206 40.7584C420.436 41.0111 420.757 41.1259 421.148 41.1259C421.584 41.1259 421.997 41.034 422.434 40.8503V41.4015C422.227 41.4934 422.02 41.5623 421.814 41.6082C421.607 41.6312 421.377 41.6312 421.102 41.6312ZM420.941 38.0024C420.619 38.0024 420.367 38.1172 420.16 38.3239C419.976 38.5306 419.861 38.8292 419.815 39.1967H421.905C421.905 38.8062 421.814 38.5306 421.653 38.3239C421.492 38.0942 421.262 38.0024 420.941 38.0024Z" fill="#414141"/>
        <path d="M425.212 41.6312C424.638 41.6312 424.179 41.4475 423.857 41.103C423.536 40.7355 423.375 40.2302 423.375 39.5871C423.375 38.9211 423.536 38.3928 423.857 38.0253C424.179 37.6579 424.638 37.4741 425.235 37.4741C425.419 37.4741 425.626 37.4971 425.81 37.543C425.993 37.589 426.154 37.6349 426.269 37.6808L426.085 38.1861C425.947 38.1402 425.81 38.0942 425.649 38.0483C425.488 38.0024 425.35 38.0024 425.235 38.0024C424.431 38.0024 424.018 38.5306 424.018 39.5641C424.018 40.0465 424.11 40.4369 424.317 40.6895C424.523 40.9422 424.799 41.08 425.189 41.08C425.534 41.08 425.855 41.0111 426.223 40.8733V41.4015C425.947 41.5623 425.626 41.6312 425.212 41.6312Z" fill="#414141"/>
        <path d="M430.634 39.5641C430.634 40.2072 430.473 40.7355 430.151 41.1029C429.83 41.4704 429.371 41.6541 428.796 41.6541C428.429 41.6541 428.13 41.5623 427.832 41.4015C427.556 41.2407 427.349 40.9881 427.189 40.6666C427.028 40.345 426.959 39.9775 426.959 39.5641C426.959 38.921 427.12 38.3928 427.441 38.0483C427.763 37.6808 428.222 37.4971 428.796 37.4971C429.348 37.4971 429.807 37.6808 430.128 38.0483C430.473 38.4158 430.634 38.921 430.634 39.5641ZM427.579 39.5641C427.579 40.0694 427.671 40.4598 427.878 40.7355C428.084 41.0111 428.383 41.1489 428.773 41.1489C429.164 41.1489 429.462 41.0111 429.669 40.7584C429.876 40.4828 429.968 40.0924 429.968 39.5871C429.968 39.0818 429.876 38.6914 429.669 38.4158C429.462 38.1402 429.164 38.0253 428.75 38.0253C428.36 38.0253 428.061 38.1631 427.855 38.4158C427.694 38.6454 427.579 39.0359 427.579 39.5641Z" fill="#414141"/>
        <path d="M434.975 37.566V37.9565L434.24 38.0483C434.309 38.1402 434.378 38.255 434.424 38.3928C434.47 38.5306 434.516 38.6914 434.516 38.8522C434.516 39.2426 434.378 39.5642 434.102 39.7938C433.827 40.0235 433.459 40.1383 433 40.1383C432.885 40.1383 432.77 40.1383 432.655 40.1154C432.403 40.2532 432.265 40.414 432.265 40.6207C432.265 40.7355 432.311 40.8044 432.403 40.8733C432.495 40.9192 432.655 40.9422 432.862 40.9422H433.574C434.011 40.9422 434.332 41.0341 434.585 41.2178C434.814 41.4015 434.929 41.6772 434.929 42.0217C434.929 42.458 434.745 42.8025 434.401 43.0322C434.033 43.2619 433.528 43.3767 432.839 43.3767C432.311 43.3767 431.92 43.2849 431.622 43.0782C431.346 42.8944 431.186 42.6188 431.186 42.2513C431.186 41.9987 431.254 41.792 431.415 41.6082C431.576 41.4245 431.783 41.3097 432.081 41.2408C431.989 41.1948 431.898 41.1259 431.829 41.0341C431.76 40.9422 431.714 40.8274 431.714 40.6896C431.714 40.5518 431.76 40.414 431.829 40.2991C431.898 40.1843 432.035 40.0924 432.196 39.9776C431.989 39.8857 431.829 39.7479 431.691 39.5412C431.553 39.3345 431.484 39.1048 431.484 38.8292C431.484 38.3928 431.622 38.0483 431.875 37.8186C432.127 37.589 432.518 37.4512 433 37.4512C433.207 37.4512 433.39 37.4741 433.574 37.5201H434.975V37.566ZM431.783 42.2513C431.783 42.458 431.875 42.6418 432.058 42.7566C432.242 42.8714 432.495 42.9174 432.839 42.9174C433.344 42.9174 433.735 42.8485 433.965 42.6877C434.217 42.5269 434.332 42.3202 434.332 42.0676C434.332 41.8609 434.263 41.7001 434.125 41.6082C433.988 41.5164 433.735 41.4704 433.367 41.4704H432.632C432.357 41.4704 432.15 41.5393 431.989 41.6772C431.829 41.815 431.783 41.9987 431.783 42.2513ZM432.104 38.8522C432.104 39.1278 432.173 39.3345 432.334 39.4953C432.495 39.656 432.724 39.702 433 39.702C433.597 39.702 433.896 39.4034 433.896 38.8292C433.896 38.2321 433.597 37.9335 433 37.9335C432.724 37.9335 432.495 38.0024 432.334 38.1632C432.196 38.3239 432.104 38.5306 432.104 38.8522Z" fill="#414141"/>
        <path d="M438.557 41.5623V38.967C438.557 38.6454 438.488 38.3928 438.328 38.232C438.19 38.0713 437.937 37.9794 437.639 37.9794C437.225 37.9794 436.904 38.0942 436.72 38.3239C436.536 38.5536 436.421 38.921 436.421 39.4493V41.5623H435.824V37.566H436.329L436.421 38.1172H436.444C436.559 37.9105 436.743 37.7727 436.973 37.6578C437.202 37.543 437.455 37.4971 437.731 37.4971C438.213 37.4971 438.58 37.6119 438.81 37.8416C439.063 38.0713 439.177 38.4387 439.177 38.967V41.5623H438.557Z" fill="#414141"/>
        <path d="M440.35 36.4637C440.35 36.3259 440.373 36.234 440.441 36.1651C440.51 36.0962 440.602 36.0732 440.694 36.0732C440.786 36.0732 440.878 36.0962 440.947 36.1651C441.016 36.234 441.062 36.3259 441.062 36.4637C441.062 36.6015 441.016 36.6934 440.947 36.7623C440.878 36.8312 440.786 36.8541 440.694 36.8541C440.602 36.8541 440.51 36.8312 440.441 36.7623C440.396 36.7163 440.35 36.6015 440.35 36.4637ZM441.016 41.5624H440.419V37.5661H441.016V41.5624Z" fill="#414141"/>
        <path d="M444.874 41.5622H441.957V41.1488L444.139 38.0253H442.095V37.543H444.805V38.0253L442.646 41.0799H444.851V41.5622H444.874Z" fill="#414141"/>
        <path d="M447.49 41.6312C446.893 41.6312 446.434 41.4475 446.089 41.08C445.745 40.7125 445.584 40.2072 445.584 39.5871C445.584 38.944 445.745 38.4387 446.066 38.0483C446.388 37.6579 446.801 37.4741 447.352 37.4741C447.858 37.4741 448.248 37.6349 448.547 37.9794C448.845 38.3009 448.983 38.7373 448.983 39.2885V39.679H446.227C446.25 40.1383 446.365 40.5058 446.595 40.7584C446.824 41.0111 447.146 41.1259 447.536 41.1259C447.973 41.1259 448.386 41.034 448.822 40.8503V41.4015C448.616 41.4934 448.409 41.5623 448.202 41.6082C447.996 41.6312 447.766 41.6312 447.49 41.6312ZM447.329 38.0024C447.008 38.0024 446.755 38.1172 446.549 38.3239C446.365 38.5306 446.25 38.8292 446.204 39.1967H448.294C448.294 38.8062 448.202 38.5306 448.041 38.3239C447.881 38.0942 447.651 38.0024 447.329 38.0024Z" fill="#414141"/>
        <path d="M451.832 37.4971C452.016 37.4971 452.177 37.52 452.314 37.543L452.222 38.1172C452.062 38.0713 451.901 38.0713 451.786 38.0713C451.465 38.0713 451.189 38.2091 450.959 38.4617C450.73 38.7143 450.615 39.0588 450.615 39.4493V41.6082H450.018V37.566H450.523L450.592 38.3009H450.615C450.753 38.0483 450.936 37.8416 451.143 37.7038C451.35 37.566 451.579 37.4971 451.832 37.4971Z" fill="#414141"/>
    </g>
    <rect width="91.8691" height="61.2461" transform="translate(464.754 0.110352)" fill="white"/>
    <g clip-path="url(#clip6_8130_79450)">
        <path d="M517.553 9.25635H503.828C502.822 9.25635 501.899 9.79378 501.389 10.6619L494.526 22.5406C494.03 23.4088 494.03 24.4836 494.526 25.3518L501.389 37.2305C501.885 38.0986 502.822 38.6361 503.828 38.6361H517.553C518.559 38.6361 519.483 38.0986 519.992 37.2305L526.855 25.3518C527.351 24.4836 527.351 23.4088 526.855 22.5406L519.992 10.6619C519.483 9.79378 518.559 9.25635 517.553 9.25635Z" fill="#4486F8"/>
        <path d="M519.98 37.2304L524.279 29.7753L518.409 23.9462L510.692 18.1309L502.975 23.9462L517.554 38.636C518.56 38.636 519.483 38.0986 519.98 37.2304Z" fill="#407BE0"/>
        <path d="M510.69 25.3105C511.444 25.3105 512.055 24.6997 512.055 23.9463C512.055 23.1928 511.444 22.582 510.69 22.582C509.937 22.582 509.326 23.1928 509.326 23.9463C509.326 24.6997 509.937 25.3105 510.69 25.3105Z" fill="white"/>
        <path d="M510.692 18.1309L502.975 23.9462L510.692 29.7615L518.409 23.9462L510.692 18.1309ZM510.692 27.6531L505.772 23.9462L510.692 20.2393L515.611 23.9462L510.692 27.6531Z" fill="white"/>
        <path d="M479.437 46.0503C478.707 46.0503 478.128 46.2984 477.701 46.7807C477.274 47.263 477.067 47.9383 477.067 48.7789C477.067 49.647 477.274 50.3223 477.673 50.8046C478.087 51.2731 478.666 51.5212 479.423 51.5212C479.892 51.5212 480.416 51.4385 481.008 51.2731V51.9483C480.54 52.1275 479.975 52.2102 479.299 52.2102C478.321 52.2102 477.563 51.907 477.026 51.3144C476.502 50.7219 476.24 49.8813 476.24 48.7789C476.24 48.0898 476.364 47.4973 476.626 46.9736C476.888 46.4638 477.26 46.0641 477.742 45.7747C478.225 45.4854 478.803 45.3613 479.451 45.3613C480.154 45.3613 480.76 45.4853 481.284 45.7472L480.953 46.4086C480.443 46.1744 479.947 46.0503 479.437 46.0503Z" fill="#383838"/>
        <path d="M483.117 52.1134H482.359V45.0303H483.117V52.1134Z" fill="#383838"/>
        <path d="M489.028 49.6189C489.028 50.432 488.822 51.0659 488.408 51.5206C487.995 51.9754 487.43 52.2096 486.713 52.2096C486.272 52.2096 485.873 52.0994 485.528 51.8927C485.183 51.686 484.908 51.3828 484.729 50.997C484.536 50.6111 484.453 50.1426 484.453 49.6189C484.453 48.8059 484.66 48.172 485.059 47.7172C485.459 47.2625 486.038 47.042 486.754 47.042C487.457 47.042 488.008 47.2763 488.422 47.7448C488.822 48.1995 489.028 48.8197 489.028 49.6189ZM485.225 49.6189C485.225 50.2528 485.349 50.7489 485.611 51.0796C485.873 51.4104 486.245 51.5757 486.741 51.5757C487.237 51.5757 487.609 51.4104 487.871 51.0796C488.132 50.7489 488.257 50.2666 488.257 49.6189C488.257 48.985 488.132 48.5027 487.871 48.172C487.609 47.8413 487.237 47.6759 486.741 47.6759C486.245 47.6759 485.873 47.8412 485.624 48.1582C485.376 48.4751 485.225 48.9712 485.225 49.6189Z" fill="#383838"/>
        <path d="M491.067 47.1246V50.363C491.067 50.7764 491.163 51.0796 491.342 51.2725C491.521 51.4792 491.811 51.5757 492.21 51.5757C492.734 51.5757 493.12 51.4379 493.354 51.1485C493.602 50.8591 493.712 50.3906 493.712 49.7567V47.1384H494.47V52.1131H493.85L493.74 51.4379H493.699C493.547 51.6859 493.327 51.8788 493.051 52.0029C492.775 52.1269 492.458 52.1958 492.114 52.1958C491.508 52.1958 491.053 52.058 490.75 51.7686C490.447 51.4792 490.295 51.0245 490.295 50.3768V47.1108H491.067V47.1246Z" fill="#383838"/>
        <path d="M499.474 51.4518H499.433C499.089 51.9617 498.565 52.2097 497.862 52.2097C497.214 52.2097 496.705 51.9892 496.332 51.5345C495.974 51.0935 495.781 50.4596 495.781 49.6328C495.781 48.806 495.96 48.1721 496.332 47.7173C496.691 47.2626 497.201 47.0283 497.848 47.0283C498.524 47.0283 499.047 47.2764 499.405 47.7725H499.461L499.433 47.4142L499.419 47.0697V45.0439H500.177V52.1133H499.557L499.474 51.4518ZM497.972 51.5758C498.482 51.5758 498.868 51.438 499.089 51.1486C499.323 50.873 499.433 50.4183 499.433 49.7844V49.6328C499.433 48.93 499.309 48.4201 499.075 48.117C498.84 47.8138 498.468 47.6622 497.945 47.6622C497.504 47.6622 497.159 47.8414 496.925 48.1859C496.691 48.5304 496.567 49.0127 496.567 49.6466C496.567 50.2805 496.677 50.7628 496.911 51.0935C497.146 51.4243 497.518 51.5758 497.972 51.5758Z" fill="#383838"/>
        <path d="M508.141 45.4575H508.968L506.57 52.1134H505.798L503.414 45.4575H504.241L505.771 49.7708C505.95 50.2669 506.087 50.7492 506.184 51.2177C506.294 50.7216 506.432 50.2393 506.611 49.7432L508.141 45.4575Z" fill="#383838"/>
        <path d="M509.713 45.7745C509.713 45.5954 509.754 45.4714 509.837 45.3887C509.92 45.306 510.03 45.2646 510.154 45.2646C510.278 45.2646 510.374 45.306 510.471 45.3887C510.553 45.4714 510.609 45.5954 510.609 45.7607C510.609 45.9261 510.567 46.0639 510.471 46.1466C510.374 46.2293 510.278 46.2706 510.154 46.2706C510.03 46.2706 509.92 46.2293 509.837 46.1466C509.754 46.0777 509.713 45.9399 509.713 45.7745ZM510.526 52.1135H509.768V47.125H510.526V52.1135Z" fill="#383838"/>
        <path d="M515.364 50.7629C515.364 51.2314 515.185 51.5897 514.84 51.8378C514.496 52.0858 514.013 52.2098 513.379 52.2098C512.718 52.2098 512.194 52.0996 511.836 51.8929V51.1901C512.07 51.3141 512.332 51.4106 512.608 51.4795C512.883 51.5484 513.145 51.5897 513.407 51.5897C513.807 51.5897 514.11 51.5208 514.317 51.3968C514.523 51.2728 514.633 51.0799 514.633 50.818C514.633 50.6251 514.551 50.4597 514.385 50.3219C514.22 50.1841 513.889 50.0188 513.393 49.8258C512.925 49.6467 512.594 49.4951 512.401 49.3711C512.208 49.2471 512.057 49.0955 511.96 48.9301C511.864 48.7648 511.822 48.5718 511.822 48.3376C511.822 47.9242 511.988 47.6072 512.318 47.3729C512.649 47.1387 513.104 47.0146 513.683 47.0146C514.22 47.0146 514.744 47.1249 515.254 47.3454L514.978 47.9655C514.482 47.7588 514.027 47.6623 513.614 47.6623C513.255 47.6623 512.98 47.7174 512.801 47.8277C512.622 47.9379 512.525 48.0895 512.525 48.2962C512.525 48.434 512.553 48.5443 512.622 48.6407C512.69 48.7372 512.801 48.8199 512.952 48.9163C513.104 48.999 513.393 49.123 513.82 49.2884C514.413 49.5089 514.813 49.7156 515.019 49.9361C515.226 50.1566 515.364 50.4322 515.364 50.7629Z" fill="#383838"/>
        <path d="M516.521 45.7745C516.521 45.5954 516.563 45.4714 516.646 45.3887C516.728 45.306 516.838 45.2646 516.962 45.2646C517.086 45.2646 517.183 45.306 517.279 45.3887C517.362 45.4714 517.417 45.5954 517.417 45.7607C517.417 45.9261 517.376 46.0639 517.279 46.1466C517.183 46.2293 517.086 46.2706 516.962 46.2706C516.838 46.2706 516.728 46.2293 516.646 46.1466C516.563 46.0639 516.521 45.9399 516.521 45.7745ZM517.348 52.1135H516.59V47.125H517.348V52.1135Z" fill="#383838"/>
        <path d="M523.259 49.6189C523.259 50.432 523.052 51.0659 522.639 51.5206C522.225 51.9754 521.66 52.2096 520.944 52.2096C520.503 52.2096 520.103 52.0994 519.758 51.8927C519.414 51.686 519.138 51.3828 518.959 50.997C518.766 50.6111 518.684 50.1426 518.684 49.6189C518.684 48.8059 518.89 48.172 519.29 47.7172C519.69 47.2625 520.268 47.042 520.985 47.042C521.688 47.042 522.239 47.2763 522.652 47.7448C523.052 48.1995 523.259 48.8197 523.259 49.6189ZM519.455 49.6189C519.455 50.2528 519.579 50.7489 519.841 51.0796C520.103 51.4104 520.475 51.5757 520.971 51.5757C521.467 51.5757 521.839 51.4104 522.101 51.0796C522.363 50.7489 522.487 50.2666 522.487 49.6189C522.487 48.985 522.363 48.5027 522.101 48.172C521.839 47.8413 521.467 47.6759 520.971 47.6759C520.475 47.6759 520.103 47.8412 519.855 48.1582C519.579 48.4889 519.455 48.9712 519.455 49.6189Z" fill="#383838"/>
        <path d="M527.999 52.1132V48.8886C527.999 48.4751 527.903 48.172 527.724 47.9791C527.545 47.7723 527.255 47.6759 526.856 47.6759C526.332 47.6759 525.946 47.8137 525.712 48.1031C525.464 48.3787 525.354 48.8472 525.354 49.4949V52.1132H524.596V47.1247H525.216L525.34 47.8137H525.381C525.533 47.5656 525.753 47.3727 526.029 47.2487C526.304 47.1109 526.621 47.042 526.966 47.042C527.572 47.042 528.013 47.1936 528.33 47.483C528.647 47.7723 528.785 48.2409 528.785 48.8748V52.1132H527.999Z" fill="#383838"/>
        <path d="M537.038 52.1132L536.211 49.991H533.538L532.711 52.1132H531.926L534.558 45.4297H535.206L537.824 52.1132H537.038ZM535.963 49.302L535.192 47.2349C535.095 46.9731 534.985 46.6561 534.889 46.2703C534.82 46.5597 534.723 46.8766 534.599 47.2349L533.814 49.302H535.963Z" fill="#383838"/>
        <path d="M542.979 47.4002C542.979 48.0754 542.744 48.5991 542.289 48.9574C541.835 49.3156 541.173 49.5086 540.319 49.5086H539.533V52.1268H538.762V45.4709H540.484C542.138 45.4571 542.979 46.1048 542.979 47.4002ZM539.52 48.8333H540.222C540.911 48.8333 541.408 48.7231 541.711 48.5026C542.014 48.2821 542.165 47.9238 542.165 47.4415C542.165 47.0005 542.028 46.6698 541.738 46.4631C541.449 46.2426 540.994 46.1462 540.388 46.1462H539.52V48.8333Z" fill="#383838"/>
        <path d="M544.371 52.1134V45.4575H545.143V52.1134H544.371Z" fill="#383838"/>
    </g>
    <defs>
        <clipPath id="clip0_8130_79450">
            <rect width="30.0816" height="45.9345" fill="white" transform="translate(31.5176 7.76611)"/>
        </clipPath>
        <clipPath id="clip1_8130_79450">
            <rect width="68.9018" height="26.9268" fill="white" transform="translate(104.934 17.27)"/>
        </clipPath>
        <clipPath id="clip2_8130_79450">
            <rect width="26.939" height="26.939" fill="white" transform="translate(104.932 17.2705)"/>
        </clipPath>
        <clipPath id="clip3_8130_79450">
            <rect width="68.9018" height="35.5533" fill="white" transform="translate(197.758 12.957)"/>
        </clipPath>
        <clipPath id="clip4_8130_79450">
            <rect width="68.9018" height="30.9759" fill="white" transform="translate(290.584 15.2456)"/>
        </clipPath>
        <clipPath id="clip5_8130_79450">
            <rect width="68.9018" height="25.1951" fill="white" transform="translate(383.41 18.1357)"/>
        </clipPath>
        <clipPath id="clip6_8130_79450">
            <rect width="68.9018" height="42.9534" fill="white" transform="translate(476.236 9.25684)"/>
        </clipPath>
    </defs>
</svg>
