<svg width="465" height="63" viewBox="0 0 465 63" fill="none" xmlns="http://www.w3.org/2000/svg">
    <rect width="91.8691" height="61.2461" transform="translate(0.623047 0.795898)" fill="white"/>
    <g clip-path="url(#clip0_8130_76837)">
        <path d="M42.0173 24.6267C40.3654 23.6725 39.0745 22.2 38.3447 20.4374C37.615 18.6749 37.4872 16.7208 37.9811 14.8782C38.475 13.0356 39.5631 11.4074 41.0766 10.2462C42.5901 9.08498 44.4444 8.45557 46.3521 8.45557C48.2597 8.45557 50.1141 9.08498 51.6276 10.2462C53.1411 11.4074 54.2292 13.0356 54.7231 14.8782C55.217 16.7208 55.0892 18.6749 54.3594 20.4374C53.6297 22.2 52.3388 23.6725 50.6869 24.6267L48.0739 20.1049C48.7312 19.7254 49.2449 19.1396 49.5354 18.4383C49.8259 17.7371 49.8768 16.9596 49.6804 16.2265C49.4839 15.4933 49.0511 14.8455 48.4489 14.3834C47.8467 13.9214 47.1089 13.6709 46.3499 13.6709C45.5909 13.6709 44.8531 13.9214 44.2509 14.3834C43.6488 14.8455 43.2159 15.4933 43.0194 16.2265C42.823 16.9596 42.874 17.7371 43.1644 18.4383C43.4549 19.1396 43.9686 19.7254 44.6259 20.1049L42.0173 24.6267Z" fill="#FF0101"/>
        <path d="M60.5779 26.7227C62.2301 27.6766 63.5214 29.149 64.2515 30.9116C64.9816 32.6741 65.1097 34.6284 64.6159 36.4712C64.1221 38.314 63.0341 39.9423 61.5205 41.1037C60.007 42.2651 58.1525 42.8946 56.2447 42.8946C54.3369 42.8946 52.4824 42.2651 50.9688 41.1037C49.4553 39.9423 48.3672 38.314 47.8734 36.4712C47.3797 34.6284 47.5077 32.6741 48.2378 30.9116C48.9679 29.149 50.2592 27.6766 51.9114 26.7227L54.5207 31.2419C53.8634 31.6215 53.3496 32.2073 53.0592 32.9085C52.7687 33.6097 52.7178 34.3872 52.9142 35.1204C53.1107 35.8535 53.5435 36.5014 54.1457 36.9634C54.7479 37.4255 55.4857 37.6759 56.2447 37.6759C57.0037 37.6759 57.7415 37.4255 58.3437 36.9634C58.9458 36.5014 59.3787 35.8535 59.5751 35.1204C59.7716 34.3872 59.7206 33.6097 59.4302 32.9085C59.1397 32.2073 58.626 31.6215 57.9686 31.2419L60.5779 26.7227Z" fill="#0101FF"/>
        <path d="M45.3116 34.2284C45.3113 36.1363 44.6815 37.9908 43.5197 39.5042C42.358 41.0177 40.7293 42.1054 38.8863 42.5988C37.0433 43.0922 35.089 42.9637 33.3265 42.2331C31.564 41.5025 30.0919 40.2108 29.1384 38.5582C28.1849 36.9057 27.8034 34.9847 28.053 33.0932C28.3027 31.2017 29.1695 29.4454 30.519 28.0968C31.8686 26.7482 33.6255 25.8826 35.5171 25.6343C37.4088 25.386 39.3296 25.7688 40.9815 26.7235L38.3684 31.2427C37.7111 30.8632 36.9469 30.7112 36.1944 30.8103C35.4419 30.9094 34.7431 31.254 34.2064 31.7906C33.6697 32.3273 33.3251 33.0261 33.226 33.7786C33.1269 34.5311 33.2789 35.2953 33.6584 35.9526C34.0378 36.6099 34.6236 37.1237 35.3248 37.4142C36.026 37.7047 36.8035 37.7557 37.5366 37.5593C38.2698 37.3629 38.9176 36.9301 39.3797 36.328C39.8418 35.7258 40.0923 34.9881 40.0924 34.2291L45.3116 34.2284Z" fill="#01FF01"/>
        <path d="M48.2767 47.4099C48.7072 47.1113 49.2634 47.0696 49.7698 47.1281C50.201 47.1735 50.6576 47.3378 50.9121 47.7098C51.1379 48.0209 51.2008 48.4116 51.2039 48.7855C51.2039 49.9265 51.2039 51.0669 51.2039 52.2073C50.8094 52.2073 50.4154 52.2073 50.0218 52.2073C50.0218 51.1279 50.0218 50.0491 50.0218 48.9722C50.01 48.7364 50.0218 48.4639 49.842 48.2822C49.6554 48.0775 49.3561 48.0377 49.0917 48.0396C48.7719 48.0396 48.426 48.0924 48.1796 48.3133C47.9388 48.5186 47.8474 48.8496 47.8461 49.1557C47.8461 50.1735 47.8461 51.1914 47.8461 52.2086C47.4525 52.2086 47.0585 52.2086 46.6641 52.2086C46.6641 50.5288 46.6641 48.849 46.6641 47.1692C47.051 47.1692 47.4382 47.1692 47.8256 47.1692C47.8256 47.4641 47.7945 47.7571 47.7858 48.052C47.9108 47.8131 48.044 47.5617 48.2767 47.4099Z" fill="#050505"/>
        <path d="M53.3431 45.2026C53.9951 44.9836 54.6901 44.9537 55.3719 44.9282C56.0327 44.9282 56.7232 44.9376 57.3404 45.2038C57.6515 45.3345 57.8711 45.6207 57.9769 45.9367C58.1492 46.4089 58.1542 46.9203 58.1579 47.4174C57.7031 47.4174 57.2483 47.4174 56.7942 47.4174C56.7867 47.0678 56.8135 46.6758 56.5969 46.3785C56.378 46.1545 56.037 46.1551 55.7452 46.1209C55.1542 46.1097 54.5389 46.0717 53.9727 46.2758C53.7687 46.338 53.6616 46.5446 53.6218 46.7412C53.5055 47.2687 53.5049 47.8131 53.5055 48.3513C53.5123 49.0705 53.5011 49.8003 53.6548 50.5077C53.6952 50.7665 53.9335 50.9257 54.1724 50.983C54.7249 51.1205 55.3016 51.1006 55.8659 51.067C56.1602 51.0284 56.5186 51.0091 56.7033 50.7391C56.9006 50.4168 56.8676 50.0205 56.857 49.6584C57.3162 49.6584 57.7751 49.6584 58.2338 49.6584C58.2282 50.2302 58.2183 50.8206 58.0105 51.3619C57.9582 51.5044 57.8765 51.6342 57.7707 51.7431C57.6649 51.8519 57.5374 51.9371 57.3964 51.9934C56.8365 52.2186 56.2187 52.2329 55.6227 52.269C54.9315 52.2808 54.2315 52.264 53.5559 52.1029C53.1596 51.9996 52.7266 51.8179 52.543 51.4241C52.3085 50.9033 52.2655 50.3241 52.2052 49.7636C52.1548 49.0232 52.1224 48.2816 52.143 47.54C52.1784 46.9396 52.2332 46.3069 52.5573 45.7837C52.7272 45.4919 53.0295 45.3096 53.3431 45.2026Z" fill="#050505"/>
        <path d="M58.459 44.9925C58.9331 44.9925 59.4071 44.9794 59.8806 44.9993C60.3416 46.462 60.848 47.9097 61.3115 49.3706C61.4926 49.9305 61.6226 50.5091 61.8093 51.0684C62.0189 50.4649 62.1533 49.8378 62.3586 49.2331C62.8134 47.8202 63.2806 46.4116 63.7348 44.9987C64.2027 44.9788 64.6718 44.9987 65.1402 44.99V45.1449C64.37 47.4923 63.6178 49.8459 62.8632 52.1988C62.1589 52.2132 61.4534 52.215 60.7479 52.1988C59.9994 49.7918 59.2118 47.3971 58.459 44.9925Z" fill="#050505"/>
        <path d="M34.4407 46.985C34.3629 46.4792 34.2758 45.9273 33.9218 45.5354C33.584 45.2075 33.1068 45.0912 32.657 45.0115C31.926 44.9129 31.1861 44.8993 30.4521 44.9711C29.8921 45.0296 29.2986 45.1117 28.8345 45.4508C28.5029 45.7127 28.3934 46.1445 28.3032 46.537C28.1364 47.3782 28.1203 48.2417 28.1234 49.0966C28.1507 49.7436 28.1763 50.4031 28.3772 51.0252C28.4774 51.3232 28.6261 51.6306 28.8992 51.8048C29.3235 52.0891 29.8436 52.1781 30.342 52.2279C31.0776 52.2968 31.8186 52.2835 32.5512 52.188C33.0489 52.1096 33.589 52.0014 33.9554 51.6318C34.2914 51.215 34.3654 50.6613 34.4407 50.1486C34.5607 49.0975 34.5607 48.0361 34.4407 46.985ZM32.9631 50.6327C32.8007 50.9817 32.3583 51.0103 32.0249 51.0613C31.3561 51.0993 30.6617 51.1329 30.0128 50.9369C29.7136 50.8579 29.619 50.5368 29.573 50.2675C29.4486 49.4692 29.489 48.6573 29.5045 47.8529C29.5375 47.4018 29.5319 46.934 29.6912 46.5053C29.8778 46.2179 30.2617 46.1942 30.5703 46.1457C31.1924 46.0959 31.8264 46.0835 32.4411 46.2017C32.6794 46.2496 32.9606 46.3653 33.0054 46.6372C33.192 47.4006 33.1485 48.1926 33.1559 48.9759C33.136 49.5283 33.1491 50.102 32.9631 50.6327Z" fill="#050505"/>
        <path d="M39.9094 47.767C39.6524 47.3253 39.1199 47.1623 38.6402 47.1212C38.1263 47.0745 37.5732 47.1212 37.1278 47.4037C36.9237 47.5281 36.785 47.7297 36.6356 47.912C36.6425 47.6631 36.6562 47.4142 36.6699 47.1691C36.268 47.1691 35.8656 47.1691 35.4629 47.1691C35.4629 49.5748 35.4629 51.9804 35.4629 54.386H36.7072V51.4794C36.8758 51.7357 37.0805 51.9858 37.3735 52.1015C37.9179 52.3267 38.5388 52.3118 39.1037 52.1731C39.4726 52.0804 39.8173 51.8452 39.9673 51.4887C40.2298 50.8977 40.2416 50.2338 40.2553 49.598C40.2342 48.9765 40.2161 48.3213 39.9094 47.767ZM38.9836 50.3433C38.9451 50.6768 38.8916 51.1086 38.5245 51.238C38.093 51.3837 37.6249 51.3784 37.1968 51.223C36.8067 51.0588 36.7613 50.5866 36.7227 50.2201C36.6997 49.6602 36.6717 49.0791 36.8304 48.5329C36.9144 48.2218 37.2366 48.0762 37.5328 48.0532C37.8812 48.0264 38.2495 48.019 38.5755 48.1627C38.7821 48.2517 38.8909 48.47 38.9276 48.6816C39.0359 49.2272 39.0222 49.7909 38.9836 50.3433Z" fill="#050505"/>
        <path d="M44.2199 51.2022C43.8983 51.3646 43.5225 51.336 43.1735 51.3335C42.891 51.3179 42.5569 51.2638 42.3995 50.9994C42.2129 50.6647 42.2626 50.2709 42.2228 49.9057H45.6266C45.5781 49.1977 45.6347 48.4386 45.2875 47.7904C44.9765 47.2559 44.3014 47.1626 43.7427 47.1159C43.0714 47.0842 42.3553 47.0954 41.7438 47.4096C41.2461 47.6777 41.1079 48.2843 41.0445 48.8001C40.9721 49.4547 40.9844 50.1159 41.0812 50.7673C41.1534 51.2028 41.284 51.7006 41.694 51.9444C42.2004 52.2232 42.7977 52.2518 43.3632 52.2686C44.004 52.2561 44.7208 52.2064 45.2216 51.7603C45.5551 51.4679 45.6086 51.0025 45.6235 50.5869C45.2253 50.5869 44.8271 50.5869 44.429 50.5869C44.4028 50.8016 44.4028 51.0579 44.2199 51.2022ZM42.4742 48.206C42.8139 47.9994 43.2344 48.0411 43.6158 48.0467C43.8522 48.0722 44.1403 48.0859 44.294 48.2955C44.4507 48.5537 44.4228 48.8698 44.424 49.1597C43.6917 49.1597 42.9601 49.1628 42.2284 49.1597C42.2365 48.8349 42.211 48.4417 42.4742 48.206Z" fill="#050505"/>
    </g>
    <rect width="91.8691" height="61.2461" transform="translate(93.4492 0.795898)" fill="white"/>
    <g clip-path="url(#clip1_8130_76837)">
        <mask id="mask0_8130_76837" style="mask-type:luminance" maskUnits="userSpaceOnUse" x="130" y="16" width="19" height="20">
            <path d="M148.277 23.9969H139.588V27.5949H144.589C144.118 29.8799 142.174 31.1928 139.588 31.1928C136.541 31.1928 134.076 28.7374 134.076 25.6806C134.076 22.6239 136.531 20.1685 139.588 20.1685C140.901 20.1685 142.084 20.6395 143.016 21.4012L145.732 18.6852C144.078 17.2621 141.963 16.3701 139.588 16.3701C134.417 16.3701 130.268 20.5193 130.268 25.6907C130.268 30.8621 134.417 35.0112 139.588 35.0112C144.248 35.0112 148.488 31.6237 148.488 25.6907C148.488 25.1394 148.408 24.5481 148.277 23.9969Z" fill="white"/>
        </mask>
        <g mask="url(#mask0_8130_76837)">
            <path d="M129.426 31.203V20.1787L136.632 25.6909L129.426 31.203Z" fill="#FBBC05"/>
        </g>
        <mask id="mask1_8130_76837" style="mask-type:luminance" maskUnits="userSpaceOnUse" x="130" y="16" width="19" height="20">
            <path d="M148.277 23.9969H139.588V27.5949H144.589C144.118 29.8799 142.174 31.1928 139.588 31.1928C136.541 31.1928 134.076 28.7374 134.076 25.6806C134.076 22.6239 136.531 20.1685 139.588 20.1685C140.901 20.1685 142.084 20.6395 143.016 21.4012L145.732 18.6852C144.078 17.2621 141.963 16.3701 139.588 16.3701C134.417 16.3701 130.268 20.5193 130.268 25.6907C130.268 30.8621 134.417 35.0112 139.588 35.0112C144.248 35.0112 148.488 31.6237 148.488 25.6907C148.488 25.1394 148.408 24.5481 148.277 23.9969Z" fill="white"/>
        </mask>
        <g mask="url(#mask1_8130_76837)">
            <path d="M129.426 20.1788L136.632 25.691L139.598 23.1053L149.771 21.4516V15.5186H129.426V20.1788Z" fill="#EA4335"/>
        </g>
        <mask id="mask2_8130_76837" style="mask-type:luminance" maskUnits="userSpaceOnUse" x="130" y="16" width="19" height="20">
            <path d="M148.277 23.9969H139.588V27.5949H144.589C144.118 29.8799 142.174 31.1928 139.588 31.1928C136.541 31.1928 134.076 28.7374 134.076 25.6806C134.076 22.6239 136.531 20.1685 139.588 20.1685C140.901 20.1685 142.084 20.6395 143.016 21.4012L145.732 18.6852C144.078 17.2621 141.963 16.3701 139.588 16.3701C134.417 16.3701 130.268 20.5193 130.268 25.6907C130.268 30.8621 134.417 35.0112 139.588 35.0112C144.248 35.0112 148.488 31.6237 148.488 25.6907C148.488 25.1394 148.408 24.5481 148.277 23.9969Z" fill="white"/>
        </mask>
        <g mask="url(#mask2_8130_76837)">
            <path d="M129.426 31.2029L142.134 21.4614L145.481 21.8823L149.761 15.5283V35.8631H129.426V31.2029Z" fill="#34A853"/>
        </g>
        <mask id="mask3_8130_76837" style="mask-type:luminance" maskUnits="userSpaceOnUse" x="130" y="16" width="19" height="20">
            <path d="M148.277 23.9969H139.588V27.5949H144.589C144.118 29.8799 142.174 31.1928 139.588 31.1928C136.541 31.1928 134.076 28.7374 134.076 25.6806C134.076 22.6239 136.531 20.1685 139.588 20.1685C140.901 20.1685 142.084 20.6395 143.016 21.4012L145.732 18.6852C144.078 17.2621 141.963 16.3701 139.588 16.3701C134.417 16.3701 130.268 20.5193 130.268 25.6907C130.268 30.8621 134.417 35.0112 139.588 35.0112C144.248 35.0112 148.488 31.6237 148.488 25.6907C148.488 25.1394 148.408 24.5481 148.277 23.9969Z" fill="white"/>
        </mask>
        <g mask="url(#mask3_8130_76837)">
            <path d="M149.758 35.8633L136.62 25.6909L134.926 24.4181L149.758 20.1787V35.8633Z" fill="#4285F4"/>
        </g>
        <path d="M107.272 39.4117H104.93V38.9707H110.139V39.4117H107.796V46.3432H107.272V39.4117Z" fill="#595555"/>
        <path d="M110.828 43.656C110.828 41.9059 111.972 40.8311 113.171 40.8311C114.439 40.8311 115.224 41.7406 115.224 43.3115C115.224 43.4493 115.224 43.5733 115.197 43.7111H111.338C111.352 45.0616 112.151 46.04 113.364 46.04C113.942 46.04 114.397 45.8471 114.811 45.5577L115.017 45.9298C114.59 46.1916 114.108 46.4534 113.322 46.4534C111.931 46.4672 110.828 45.4199 110.828 43.656ZM114.756 43.3115C114.756 41.9335 114.135 41.2582 113.171 41.2582C112.261 41.2582 111.448 42.0299 111.324 43.3115H114.756Z" fill="#595555"/>
        <path d="M116.451 45.7232L116.741 45.3649C117.195 45.7508 117.678 46.0401 118.449 46.0401C119.29 46.0401 119.731 45.544 119.731 44.9791C119.731 44.3038 119.042 44.0144 118.422 43.7802C117.609 43.4908 116.713 43.16 116.713 42.2505C116.713 41.4788 117.319 40.8174 118.449 40.8174C119.028 40.8174 119.593 41.0516 119.979 41.3686L119.717 41.7269C119.359 41.4513 118.973 41.2308 118.436 41.2308C117.595 41.2308 117.223 41.7131 117.223 42.2092C117.223 42.8155 117.857 43.0498 118.491 43.2978C119.317 43.6148 120.241 43.8904 120.241 44.9377C120.241 45.7508 119.593 46.4536 118.436 46.4536C117.623 46.4673 116.933 46.1366 116.451 45.7232Z" fill="#595555"/>
        <path d="M121.424 45.7232L121.713 45.3649C122.168 45.7508 122.65 46.0401 123.422 46.0401C124.263 46.0401 124.704 45.544 124.704 44.9791C124.704 44.3038 124.015 44.0144 123.394 43.7802C122.581 43.4908 121.686 43.16 121.686 42.2505C121.686 41.4788 122.292 40.8174 123.422 40.8174C124.001 40.8174 124.566 41.0516 124.952 41.3686L124.69 41.7269C124.331 41.4513 123.946 41.2308 123.408 41.2308C122.568 41.2308 122.196 41.7131 122.196 42.2092C122.196 42.8155 122.829 43.0498 123.463 43.2978C124.29 43.6148 125.213 43.8904 125.213 44.9377C125.213 45.7508 124.566 46.4536 123.408 46.4536C122.609 46.4673 121.906 46.1366 121.424 45.7232Z" fill="#595555"/>
        <path d="M126.633 43.656C126.633 41.9059 127.777 40.8311 128.975 40.8311C130.243 40.8311 131.029 41.7406 131.029 43.3115C131.029 43.4493 131.029 43.5733 131.001 43.7111H127.143C127.156 45.0616 127.956 46.04 129.168 46.04C129.747 46.04 130.202 45.8471 130.615 45.5577L130.822 45.9298C130.395 46.1916 129.913 46.4534 129.127 46.4534C127.735 46.4672 126.633 45.4199 126.633 43.656ZM130.56 43.3115C130.56 41.9335 129.94 41.2582 128.975 41.2582C128.066 41.2582 127.253 42.0299 127.129 43.3115H130.56Z" fill="#595555"/>
        <path d="M132.932 40.9692H133.345L133.4 41.9752H133.428C133.786 41.3137 134.323 40.8452 134.957 40.8452C135.15 40.8452 135.316 40.8728 135.495 40.9555L135.385 41.3964C135.205 41.3275 135.109 41.3137 134.902 41.3137C134.42 41.3137 133.841 41.6858 133.442 42.6918V46.3436H132.945V40.9692H132.932Z" fill="#595555"/>
        <path d="M136.309 44.9928C136.309 43.7939 137.383 43.2289 139.767 42.9671C139.781 42.1403 139.561 41.2584 138.5 41.2584C137.769 41.2584 137.149 41.6166 136.791 41.8923L136.557 41.5202C136.942 41.2584 137.687 40.8174 138.555 40.8174C139.823 40.8174 140.264 41.7407 140.264 42.8844V46.3157H139.85L139.795 45.6129H139.767C139.216 46.0539 138.569 46.4398 137.866 46.4398C137.011 46.4673 136.309 46.0126 136.309 44.9928ZM139.767 45.172V43.3392C137.563 43.601 136.805 44.1109 136.805 44.9653C136.805 45.737 137.328 46.0264 137.948 46.0264C138.569 46.0401 139.106 45.737 139.767 45.172Z" fill="#595555"/>
        <path d="M142.178 43.656C142.178 41.8646 143.322 40.8311 144.631 40.8311C145.361 40.8311 145.843 41.1618 146.202 41.4925L145.912 41.837C145.568 41.5201 145.168 41.272 144.644 41.272C143.542 41.272 142.701 42.2504 142.701 43.6698C142.701 45.0892 143.473 46.04 144.644 46.04C145.223 46.04 145.719 45.7644 146.078 45.4199L146.326 45.7644C145.871 46.1778 145.292 46.4672 144.617 46.4672C143.225 46.4672 142.178 45.4337 142.178 43.656Z" fill="#595555"/>
        <path d="M148.102 44.8554V41.3965H147.262V41.0106L148.116 40.9693L148.185 39.4121H148.612V40.9693H150.169V41.3965H148.612V44.8829C148.612 45.5719 148.778 46.0267 149.522 46.0267C149.715 46.0267 150.004 45.944 150.197 45.8613L150.321 46.2609C150.004 46.3712 149.673 46.4677 149.439 46.4677C148.405 46.4677 148.102 45.82 148.102 44.8554Z" fill="#595555"/>
        <path d="M154.18 42.6226C154.18 40.2937 155.447 38.833 157.211 38.833C158.989 38.833 160.243 40.2937 160.243 42.6226C160.243 44.9515 158.975 46.4673 157.211 46.4673C155.447 46.4673 154.18 44.9653 154.18 42.6226ZM159.706 42.6226C159.706 40.5831 158.7 39.2878 157.211 39.2878C155.709 39.2878 154.717 40.5693 154.717 42.6226C154.717 44.6621 155.723 45.9988 157.211 45.9988C158.713 45.9988 159.706 44.6759 159.706 42.6226Z" fill="#595555"/>
        <path d="M161.926 42.6364C161.926 40.2937 163.207 38.833 165.081 38.833C165.936 38.833 166.611 39.2602 166.997 39.715L166.694 40.0595C166.294 39.6047 165.757 39.3015 165.081 39.3015C163.469 39.3015 162.463 40.5831 162.463 42.6364C162.463 44.6897 163.455 46.0126 165.04 46.0126C165.798 46.0126 166.363 45.6956 166.9 45.1031L167.204 45.42C166.639 46.0815 165.977 46.4673 165.013 46.4673C163.194 46.4673 161.926 44.979 161.926 42.6364Z" fill="#595555"/>
        <path d="M169.16 38.9707H171.269C172.729 38.9707 173.694 39.5081 173.694 40.9137C173.694 42.2504 172.729 42.9532 171.269 42.9532H169.67V46.3432H169.16V38.9707ZM171.131 42.5123C172.44 42.5123 173.156 42.0024 173.156 40.9C173.156 39.7837 172.426 39.3841 171.131 39.3841H169.67V42.4985H171.131V42.5123ZM171.145 42.8016L171.641 42.6501L173.832 46.3294H173.239L171.145 42.8016Z" fill="#595555"/>
    </g>
    <rect width="91.8691" height="61.2461" transform="translate(186.275 0.795898)" fill="white"/>
    <g clip-path="url(#clip2_8130_76837)">
        <path d="M264.294 39.8416H200.127C198.822 39.8416 197.76 38.7793 197.76 37.4741V25.3632C197.76 24.058 198.822 22.9956 200.127 22.9956H264.279C265.599 22.9956 266.662 24.058 266.662 25.3632V37.4589C266.662 38.7793 265.599 39.8416 264.294 39.8416Z" fill="#002147"/>
        <path d="M207.838 35.2585V34.9247C208.809 34.8336 208.84 34.7577 208.84 33.4981V28.6719C207.869 30.8422 206.305 34.2265 205.896 35.2585H205.592C205.182 34.181 203.847 30.9332 202.951 28.7781C202.754 32.9213 202.739 33.8623 202.739 34.0748C202.754 34.7425 203.042 34.8336 203.847 34.9095V35.2434H201.039V34.9095C201.722 34.8336 202.01 34.697 202.101 34.0596C202.177 33.5436 202.177 33.1186 202.496 28.7933C202.542 28.1711 202.42 27.9738 201.388 27.8827V27.5488H203.452L206.063 33.5436L208.87 27.5488H210.949V27.8827C209.933 28.0041 209.796 28.1104 209.826 28.9299L209.872 33.4829C209.917 34.7425 209.948 34.8032 210.995 34.9095V35.2434H207.838V35.2585Z" fill="#FFFEFF"/>
        <path d="M215.488 35.3953C215.306 35.3953 215.048 35.3042 214.926 35.1676C214.774 35.0158 214.699 34.8489 214.638 34.6364C214.167 34.9551 213.591 35.3953 213.211 35.3953C212.377 35.3953 211.77 34.6971 211.77 33.9383C211.77 33.3616 212.088 32.9822 212.741 32.7545C213.469 32.5117 214.35 32.193 214.608 31.9805V31.7377C214.608 30.903 214.183 30.4173 213.56 30.4173C213.287 30.4173 213.12 30.5539 212.999 30.6905C212.862 30.8575 212.786 31.1155 212.68 31.4645C212.619 31.6466 212.513 31.7377 212.331 31.7377C212.103 31.7377 211.815 31.4949 211.815 31.2217C211.815 31.0548 211.967 30.9182 212.21 30.7512C212.559 30.5084 213.242 30.0683 213.909 29.9165C214.258 29.9165 214.638 30.0227 214.911 30.2352C215.321 30.5843 215.518 30.994 215.518 31.6011C215.518 32.2537 215.518 33.2402 215.518 33.8928C215.518 34.4391 215.715 34.6061 215.928 34.6061C216.065 34.6061 216.231 34.5454 216.353 34.4695L216.474 34.8034L215.488 35.3953ZM214.623 32.4055C214.365 32.5421 213.788 32.7849 213.515 32.9063C213.06 33.1036 212.786 33.3312 212.786 33.7714C212.786 34.3936 213.257 34.682 213.636 34.682C213.94 34.682 214.365 34.4998 214.608 34.257C214.623 33.6955 214.623 32.967 214.623 32.4055Z" fill="#FFFEFF"/>
        <path d="M219.222 35.2434C219.025 35.3496 218.827 35.3951 218.706 35.3951C217.947 35.3951 217.553 34.9398 217.553 33.9837V30.5538H216.733L216.688 30.4172L217.006 30.0681H217.553V29.0665C217.78 28.8237 218.114 28.5201 218.342 28.2925L218.524 28.3228C218.494 28.8237 218.494 29.5066 218.494 30.0681H219.844C219.95 30.1896 219.92 30.4476 219.768 30.5538H218.494V33.5891C218.494 34.5452 218.873 34.7274 219.176 34.7274C219.465 34.7274 219.738 34.6211 219.905 34.5452L220.011 34.8488L219.222 35.2434Z" fill="#FFFEFF"/>
        <path d="M227.751 33.3614C227.584 33.9229 227.281 34.788 227.098 35.1522C226.749 35.2129 225.824 35.4406 224.928 35.4406C222.105 35.4406 220.648 33.4828 220.648 31.4795C220.648 28.945 222.515 27.397 225.201 27.397C226.173 27.397 226.992 27.6246 227.387 27.6702C227.432 28.2013 227.523 28.9298 227.615 29.5217L227.25 29.5976C227.007 28.8084 226.704 28.2772 226.097 28.0344C225.793 27.8978 225.368 27.8371 224.913 27.8371C222.925 27.8371 221.893 29.4306 221.893 31.2367C221.893 33.5283 223.213 34.9853 225.004 34.9853C226.218 34.9853 226.795 34.4237 227.402 33.24L227.751 33.3614Z" fill="#FFFEFF"/>
        <path d="M231.438 29.9165C232.925 29.9165 234.018 31.0396 234.018 32.5724C234.018 34.4847 232.591 35.3953 231.438 35.3953C229.799 35.3953 228.812 34.0749 228.812 32.7545C228.812 30.8271 230.315 29.9165 231.438 29.9165ZM231.301 30.3263C230.573 30.3263 229.936 31.0244 229.936 32.3903C229.936 33.8928 230.603 34.9855 231.575 34.9855C232.303 34.9855 232.925 34.4543 232.925 32.8304C232.91 31.4493 232.333 30.3263 231.301 30.3263Z" fill="#FFFEFF"/>
        <path d="M238.221 35.2587V34.9248C238.904 34.8489 238.98 34.7731 238.98 33.9687V32.0109C238.98 31.1762 238.676 30.6298 237.902 30.6298C237.417 30.6298 236.961 30.9182 236.582 31.2521V34.0294C236.582 34.8489 236.658 34.8641 237.356 34.94V35.2739H234.791V34.94C235.565 34.8641 235.641 34.8034 235.641 34.0294V31.586C235.641 30.812 235.565 30.7816 234.912 30.6754V30.3718C235.489 30.2808 236.066 30.129 236.567 29.9014C236.567 30.1745 236.567 30.554 236.567 30.8423C236.81 30.6754 237.068 30.4933 237.371 30.296C237.705 30.0835 238.008 29.9469 238.358 29.9469C239.298 29.9469 239.89 30.645 239.89 31.7984V34.0446C239.89 34.8489 239.966 34.8793 240.649 34.9552V35.2891H238.221V35.2587Z" fill="#FFFEFF"/>
        <path d="M246.326 30.3871C245.689 30.463 245.598 30.5692 245.294 31.2674C244.899 32.2083 244.232 33.7867 243.609 35.3802H243.26C242.759 34.0143 242.183 32.6029 241.621 31.2218C241.348 30.5389 241.257 30.463 240.635 30.3719V30.0532H243.048V30.3719C242.395 30.4478 242.38 30.5389 242.562 31.0397C242.851 31.8592 243.351 33.1037 243.685 33.9384C244.11 32.8912 244.505 31.9199 244.763 31.1611C244.96 30.5844 244.93 30.4478 244.141 30.3719V30.0532H246.326V30.3871Z" fill="#FFFEFF"/>
        <path d="M254.568 27.8979C253.809 27.9737 253.566 28.0951 253.52 28.6415C253.505 29.0209 253.49 29.5217 253.49 30.6145V35.3647H253.035L247.966 29.1727V32.1321C247.966 33.1945 247.996 33.7257 248.026 34.0747C248.057 34.6818 248.345 34.8487 249.195 34.9246V35.2585H246.311V34.9246C247.04 34.8639 247.328 34.6818 247.374 34.1051C247.404 33.7257 247.435 33.1945 247.435 32.1169V29.112C247.435 28.7781 247.404 28.596 247.192 28.338C246.964 28.0344 246.721 27.9737 246.145 27.913V27.5791H247.92L252.944 33.5284V30.6145C252.944 29.5066 252.913 29.0057 252.883 28.6567C252.853 28.1255 252.579 27.9586 251.623 27.8979V27.564H254.552V27.8979H254.568Z" fill="#FFFEFF"/>
        <path d="M259.422 34.257C258.664 35.1979 257.829 35.4104 257.465 35.4104C256.023 35.4104 255.143 34.2266 255.143 32.8607C255.143 32.0564 255.431 31.3127 255.917 30.7967C256.417 30.2352 257.07 29.9316 257.677 29.9316C258.709 29.9316 259.483 30.8271 259.483 31.768C259.468 32.0108 259.438 32.1171 259.24 32.1626C258.997 32.2081 257.495 32.3144 256.084 32.3599C256.053 33.9534 257.024 34.5909 257.859 34.5909C258.345 34.5909 258.8 34.3936 259.225 33.9838L259.422 34.257ZM257.389 30.3718C256.842 30.3718 256.311 30.8878 256.144 31.8439C256.812 31.8439 257.465 31.8439 258.163 31.8135C258.375 31.8135 258.451 31.7528 258.451 31.5707C258.466 30.9333 258.041 30.3718 257.389 30.3718Z" fill="#FFFEFF"/>
        <path d="M262.611 35.2434C262.413 35.3496 262.216 35.3951 262.095 35.3951C261.336 35.3951 260.941 34.9398 260.941 33.9837V30.5538H260.122L260.076 30.4172L260.395 30.0681H260.941V29.0665C261.169 28.8237 261.503 28.5201 261.73 28.2925L261.913 28.3228C261.882 28.8237 261.882 29.5066 261.882 30.0681H263.233C263.339 30.1896 263.309 30.4476 263.157 30.5538H261.882V33.5891C261.882 34.5452 262.262 34.7274 262.565 34.7274C262.853 34.7274 263.127 34.6211 263.294 34.5452L263.4 34.8488L262.611 35.2434Z" fill="#FFFEFF"/>
    </g>
    <rect width="91.8691" height="61.2461" transform="translate(279.102 0.795898)" fill="white"/>
    <g clip-path="url(#clip3_8130_76837)">
        <path d="M309.082 24.2274C309.151 25.2269 309.228 26.2322 309.28 27.226C309.28 27.415 309.472 27.7301 309.105 27.7816C308.738 27.8332 308.793 27.4952 308.727 27.3062C308.444 26.4063 308.06 25.5416 307.581 24.7286C304.832 20.2837 298.165 20.3467 295.724 24.9692C294.694 26.8522 294.113 28.9483 294.027 31.0933C293.942 33.2383 294.354 35.3739 295.232 37.333C297.205 41.9297 303.635 43.061 307.261 39.5927C307.917 38.9537 308.518 38.2611 309.059 37.522C309.179 37.3588 309.28 37.0581 309.583 37.2586C309.887 37.459 309.658 37.6509 309.557 37.8314C307.647 41.4486 303.663 43.313 299.622 42.8748C293.848 42.239 289.916 36.8834 290.681 30.4766C291.288 25.3873 294.404 21.7959 299.095 20.6847C301.396 20.1272 303.821 20.4329 305.912 21.5439C307.246 22.2226 307.573 22.1167 308.22 20.762C308.306 20.5816 308.335 20.3696 308.609 20.4097C308.884 20.4498 308.836 20.6961 308.847 20.8766C308.933 21.9992 309.008 23.1133 309.082 24.2274Z" fill="#C20000"/>
        <path d="M331.862 34.5809C331.862 36.2133 331.82 37.8458 331.862 39.4754C331.923 41.2883 332.544 41.8439 334.366 41.8611C334.537 41.8611 334.709 41.8611 334.881 41.8611C335.053 41.8611 335.125 41.9699 335.125 42.1475C335.125 42.3251 335.033 42.3995 334.864 42.4053H334.52C332.086 42.4053 329.652 42.4053 327.22 42.4053C326.991 42.4053 326.561 42.6172 326.576 42.1189C326.576 41.7179 326.965 41.8926 327.188 41.8668C328.523 41.7122 329.193 41.1136 329.213 39.7733C329.273 36.3107 329.253 32.8481 329.279 29.3827C329.279 28.9531 329.11 28.8443 328.706 28.8586C328.134 28.8815 327.561 28.8586 326.988 28.8586C326.604 28.8729 326.432 28.7813 326.415 28.346C326.398 27.9106 326.576 27.7732 327.008 27.7732C327.718 27.7932 328.603 27.9994 329.093 27.6586C329.583 27.3178 329.208 26.3841 329.282 25.7082C329.715 22.1912 332.115 19.8399 335.331 19.9001C335.948 19.9013 336.558 20.0244 337.127 20.2622C337.696 20.5001 338.213 20.8481 338.647 21.2862C339.114 21.7502 339.401 22.3144 339.106 23.0046C338.71 23.9125 337.739 24.1187 337.006 23.4113C336.601 22.9691 336.226 22.5003 335.884 22.0079C335.265 21.2232 334.523 20.7965 333.498 21.0456C332.473 21.2948 332.097 22.1254 331.974 23.0905C331.797 24.4853 331.874 25.8915 331.822 27.292C331.805 27.7445 332.011 27.8047 332.395 27.7961C333.197 27.776 333.999 27.7961 334.801 27.7961C335.185 27.7961 335.6 27.6701 335.583 28.346C335.583 28.9674 335.193 28.8529 334.838 28.8557C334.094 28.8557 333.346 28.893 332.607 28.8557C332.034 28.8185 331.811 28.9818 331.828 29.6032C331.871 31.2615 331.842 32.9226 331.842 34.5837L331.862 34.5809Z" fill="#C20000"/>
        <path d="M339.422 34.5265C339.422 32.8654 339.405 31.2071 339.422 29.546C339.422 29.0419 339.319 28.8071 338.763 28.8558C338.208 28.9045 337.675 28.8558 337.134 28.873C336.739 28.893 336.561 28.7756 336.584 28.3488C336.584 27.9679 336.653 27.776 337.097 27.7932C337.836 27.8133 338.786 28.0367 339.256 27.6701C339.726 27.3035 339.371 26.281 339.468 25.5507C339.929 22.1139 342.303 19.8371 345.482 19.9058C346.114 19.9045 346.739 20.033 347.319 20.2833C347.899 20.5336 348.421 20.9003 348.853 21.3607C349.337 21.8734 349.572 22.4777 349.165 23.1564C348.681 23.9555 347.839 24.0758 347.141 23.3999C346.753 22.9801 346.396 22.5331 346.072 22.0624C345.451 21.2547 344.701 20.7879 343.632 21.0629C342.564 21.3378 342.238 22.1483 342.117 23.1135C341.94 24.5082 342.02 25.9145 341.965 27.3149C341.948 27.7789 342.174 27.8161 342.538 27.8076C343.397 27.7904 344.257 27.8219 345.116 27.8076C345.551 27.7932 345.72 27.9078 345.714 28.3804C345.709 28.8529 345.508 28.8959 345.142 28.8873C344.282 28.8701 343.423 28.9016 342.564 28.8873C342.117 28.873 341.968 29.0162 341.971 29.4601C341.997 32.8081 341.971 36.1589 342.026 39.5069C342.057 41.317 342.704 41.864 344.534 41.8841C344.706 41.8841 344.878 41.8841 345.05 41.8841C345.222 41.8841 345.285 42.0043 345.282 42.1705C345.279 42.3366 345.176 42.4168 345.013 42.4196H344.154C341.891 42.4196 339.631 42.4196 337.369 42.4196C337.148 42.4196 336.776 42.5857 336.736 42.2105C336.684 41.7294 337.111 41.9241 337.354 41.8841C338.683 41.7294 339.331 41.128 339.359 39.7819C339.416 38.0377 339.359 36.2907 339.359 34.5465L339.422 34.5265Z" fill="#C20000"/>
        <path d="M325.011 39.7131C324.793 39.905 324.581 40.094 324.369 40.2859C324.043 40.5723 323.719 40.8874 323.224 40.7155C322.668 40.515 322.754 39.9938 322.694 39.5556C322.679 39.4439 322.694 39.3265 322.694 39.2119C322.585 36.3823 322.771 33.5498 322.585 30.7202C322.488 29.2682 321.726 28.3202 320.382 27.8562C319.268 27.4784 318.081 27.3609 316.914 27.5125C315.482 27.6844 314.191 28.1569 313.265 29.3398C312.73 30.0242 312.452 30.7918 312.693 31.6624C312.767 31.9467 312.938 32.1963 313.176 32.3684C313.414 32.5405 313.705 32.6245 313.998 32.6059C314.291 32.5872 314.569 32.4672 314.783 32.2664C314.997 32.0655 315.135 31.7963 315.173 31.5049C315.218 31.1047 315.232 30.7016 315.216 30.2992C315.203 29.953 315.295 29.6111 315.48 29.3182C315.665 29.0254 315.935 28.7953 316.253 28.6581C316.593 28.4735 316.972 28.3697 317.359 28.3548C317.746 28.3399 318.131 28.4142 318.485 28.572C318.839 28.7298 319.152 28.9669 319.399 29.2649C319.647 29.5629 319.823 29.9138 319.913 30.2906C320.022 30.7317 320.03 31.1985 320.116 31.6453C320.277 32.4815 319.967 32.8739 319.134 33.1832C317.08 33.945 314.981 34.6725 313.326 36.2105C312.609 36.8792 312.166 37.7896 312.081 38.7659C311.997 39.7423 312.277 40.7154 312.867 41.4974C314.044 42.9666 316.129 43.1785 317.885 41.99C318.593 41.5117 319.271 40.9933 320.065 40.4177C320.139 40.8587 320.176 41.168 320.245 41.4687C320.297 41.7672 320.436 42.0436 320.645 42.2636C320.853 42.4836 321.121 42.6375 321.416 42.706C322.717 43.0439 325.102 41.2081 325.14 39.842C325.117 39.8134 325.062 39.779 325.011 39.7131ZM319.724 39.6129C318.756 40.2659 317.834 41.0449 316.545 40.8558C315.256 40.6668 314.374 39.0315 314.746 37.5479C314.951 36.7973 315.414 36.1425 316.052 35.6978C317.135 34.873 318.406 34.4348 319.635 33.9078C320.07 33.7217 320.116 33.9279 320.11 34.2801C320.11 35.0505 320.11 35.8238 320.11 36.5942C320.137 37.0225 320.137 37.4519 320.11 37.8802C320.024 38.4673 320.405 39.1546 319.724 39.6157V39.6129Z" fill="#C20000"/>
        <path d="M359.225 36.9405C358.786 36.783 358.804 37.3615 358.672 37.6164C357.203 40.4804 353.958 41.0704 351.575 38.8937C350.143 37.5935 349.622 35.9238 349.51 34.0536C349.476 33.4808 349.605 33.3004 350.195 33.3147C351.627 33.3548 353.059 33.3147 354.49 33.3147C355.922 33.3147 357.354 33.2803 358.786 33.329C359.437 33.3519 359.563 33.1171 359.46 32.5385C359.372 31.8569 359.199 31.1891 358.944 30.5509C357.28 26.885 352.048 26.3323 349.206 29.5199C346.915 32.0975 346.629 37.2527 348.634 40.0479C349.819 41.7033 351.409 42.6713 353.471 42.7229C356.134 42.7888 358.48 40.8355 359.282 37.8942C359.368 37.6049 359.723 37.1209 359.225 36.9405ZM349.542 32.0717C349.751 30.7371 350.321 29.6316 351.546 28.95C352.038 28.6538 352.606 28.5094 353.179 28.5349C353.752 28.5604 354.305 28.7546 354.768 29.0932C355.831 29.792 356.12 30.8688 356.22 32.0459C356.255 32.444 356.026 32.444 355.751 32.4412C354.78 32.4412 353.812 32.4412 352.841 32.4412H350.014C349.768 32.4383 349.476 32.5013 349.542 32.0717Z" fill="#C20000"/>
    </g>
    <rect width="91.8691" height="61.2461" transform="translate(371.928 0.795898)" fill="white"/>
    <g clip-path="url(#clip4_8130_76837)">
        <path d="M411.158 27.3566C411.22 27.3635 411.276 27.3773 411.338 27.4048C411.393 27.4324 411.441 27.4669 411.489 27.5082C411.544 27.5633 411.599 27.6253 411.655 27.6873L416.168 33.3924C416.147 33.2133 416.14 33.0341 416.126 32.8619C416.113 32.6896 416.113 32.5311 416.113 32.3727V27.3428H418.056V36.8375H416.898C416.753 36.8444 416.602 36.8168 416.471 36.7617C416.333 36.6928 416.223 36.5963 416.133 36.4723L411.655 30.8224C411.668 30.9877 411.675 31.1462 411.689 31.3047C411.703 31.4632 411.703 31.6147 411.703 31.7525V36.8375H409.76V27.3359H410.917C410.993 27.3359 411.076 27.3428 411.158 27.3566Z" fill="#4D77CF"/>
        <path d="M421.24 30.0713V34.3639C421.24 34.7015 421.315 34.9564 421.467 35.1425C421.639 35.3354 421.887 35.4318 422.142 35.4181C422.356 35.4181 422.569 35.3698 422.762 35.2803C422.969 35.1838 423.155 35.0529 423.327 34.8944V30.0782H425.346V36.8374H424.092C423.865 36.8581 423.658 36.7134 423.596 36.4998L423.472 36.1071C423.348 36.2311 423.21 36.3482 423.066 36.4516C422.928 36.5549 422.776 36.6376 422.618 36.7134C422.452 36.7892 422.28 36.8443 422.101 36.8857C421.901 36.927 421.701 36.9477 421.501 36.9477C421.164 36.9546 420.833 36.8857 420.523 36.7548C420.247 36.6307 419.999 36.4516 419.8 36.2173C419.6 35.9762 419.448 35.7006 419.359 35.4043C419.255 35.0736 419.207 34.7222 419.207 34.3708V30.0782H421.24V30.0713Z" fill="#4D77CF"/>
        <path d="M426.654 36.8375V30.0782H427.908C428.019 30.0713 428.129 30.1058 428.225 30.1609C428.315 30.2229 428.377 30.3125 428.404 30.4158L428.515 30.781C428.625 30.6639 428.742 30.5536 428.866 30.4571C428.99 30.3607 429.121 30.2711 429.259 30.2022C429.569 30.0437 429.906 29.9679 430.251 29.9679C430.616 29.9542 430.974 30.0644 431.264 30.2849C431.539 30.5054 431.746 30.7948 431.87 31.1255C431.98 30.9257 432.118 30.7465 432.284 30.5881C432.442 30.4434 432.621 30.3262 432.814 30.2298C433.007 30.1402 433.207 30.0713 433.414 30.03C433.62 29.9886 433.834 29.9679 434.047 29.9679C434.399 29.9611 434.75 30.0231 435.074 30.1402C435.363 30.2436 435.618 30.4158 435.825 30.6432C436.032 30.8775 436.19 31.1531 436.287 31.4493C436.397 31.8007 436.452 32.1659 436.445 32.538V36.8375H434.426V32.5449C434.426 31.8421 434.13 31.4976 433.531 31.4976C433.276 31.4907 433.028 31.5871 432.849 31.7663C432.669 31.9454 432.58 32.2073 432.58 32.5449V36.8375H430.561V32.538C430.561 32.1521 430.485 31.8765 430.334 31.7249C430.182 31.5734 429.955 31.4907 429.658 31.4907C429.479 31.4907 429.3 31.532 429.142 31.6147C428.969 31.7043 428.818 31.8145 428.68 31.9454V36.8375H426.654Z" fill="#4D77CF"/>
        <path d="M439.822 33.6607V36.837H437.617V27.3355H440.966C441.551 27.3217 442.13 27.4044 442.688 27.5697C443.122 27.7006 443.529 27.928 443.873 28.2243C444.177 28.493 444.411 28.8306 444.562 29.2096C444.714 29.6023 444.783 30.0157 444.783 30.436C444.79 30.8839 444.714 31.3249 444.556 31.7383C444.404 32.131 444.17 32.4755 443.86 32.758C443.515 33.0612 443.109 33.2817 442.668 33.4195C442.116 33.5917 441.545 33.6744 440.966 33.6607H439.822ZM439.822 32.0001H440.966C441.538 32.0001 441.951 31.8623 442.206 31.5867C442.461 31.3111 442.585 30.9321 442.585 30.4429C442.585 30.2431 442.557 30.0433 442.489 29.8504C442.427 29.6781 442.323 29.5197 442.192 29.3887C442.048 29.2509 441.875 29.1545 441.689 29.0925C441.455 29.0167 441.214 28.9822 440.966 28.9822H439.822V32.0001Z" fill="#4D77CF"/>
        <path d="M448.704 38.5878C448.656 38.7049 448.58 38.8083 448.483 38.8841C448.359 38.9599 448.215 38.9874 448.063 38.9805H446.547L447.849 36.2451L445.148 30.0715H446.94C447.071 30.0647 447.202 30.106 447.305 30.1818C447.388 30.2438 447.45 30.3334 447.491 30.4298L448.6 33.3444C448.704 33.6062 448.786 33.8749 448.855 34.1505C448.897 34.0127 448.945 33.8749 449 33.744C449.055 33.6131 449.103 33.4753 449.152 33.3306L450.158 30.4298C450.199 30.3265 450.268 30.2369 450.364 30.1818C450.461 30.1198 450.571 30.0784 450.688 30.0784H452.321L448.704 38.5878Z" fill="#4D77CF"/>
        <path d="M393.017 24.2421L388.979 22.2095L384.549 24.4212L388.697 26.5021L393.017 24.2421Z" fill="#4DABCF"/>
        <path d="M394.87 25.1792L399.1 27.3152L394.711 29.52L390.557 27.4392L394.87 25.1792Z" fill="#4DABCF"/>
        <path d="M400.519 22.2373L404.867 24.4215L400.981 26.3714L396.736 24.2355L400.519 22.2373Z" fill="#4DABCF"/>
        <path d="M398.653 21.3001L394.739 19.3364L390.867 21.2726L394.898 23.3052L398.653 21.3001Z" fill="#4DABCF"/>
        <path d="M395.596 38.1534V43.5002L400.336 41.1299L400.329 35.79L395.596 38.1534Z" fill="#4DABCF"/>
        <path d="M400.329 33.923L400.322 28.6313L395.596 30.9878V36.2726L400.329 33.923Z" fill="#4DABCF"/>
        <path d="M406.018 32.9307V38.2912L401.974 40.31L401.967 34.977L406.018 32.9307Z" fill="#4DABCF"/>
        <path d="M406.018 31.0565V25.7993L401.967 27.8181V33.1167L406.018 31.0565Z" fill="#4DABCF"/>
        <path d="M393.92 30.988L390.723 29.3826V36.321C390.723 36.321 386.816 28.0114 386.458 27.2604C386.409 27.164 386.216 27.0606 386.168 27.033C385.465 26.6679 383.412 25.6274 383.412 25.6274V37.892L386.251 39.4147V32.9999C386.251 32.9999 390.116 40.4275 390.158 40.5102C390.199 40.5929 390.585 41.3715 390.998 41.6471C391.549 42.0123 393.913 43.4386 393.913 43.4386L393.92 30.988Z" fill="#4D77CF"/>
    </g>
    <defs>
        <clipPath id="clip0_8130_76837">
            <rect width="37.161" height="45.9345" fill="white" transform="translate(27.9766 8.45166)"/>
        </clipPath>
        <clipPath id="clip1_8130_76837">
            <rect width="68.9018" height="30.0963" fill="white" transform="translate(104.934 16.3711)"/>
        </clipPath>
        <clipPath id="clip2_8130_76837">
            <rect width="68.9018" height="16.846" fill="white" transform="translate(197.758 22.9961)"/>
        </clipPath>
        <clipPath id="clip3_8130_76837">
            <rect width="68.9018" height="23.0379" fill="white" transform="translate(290.584 19.8999)"/>
        </clipPath>
        <clipPath id="clip4_8130_76837">
            <rect width="68.9018" height="24.1639" fill="white" transform="translate(383.41 19.3374)"/>
        </clipPath>
    </defs>
</svg>
