<svg width="465" height="63" viewBox="0 0 465 63" fill="none" xmlns="http://www.w3.org/2000/svg">
    <rect width="91.8691" height="61.2461" transform="translate(0.763672 0.618652)" fill="white"/>
    <g clip-path="url(#clip0_8130_78778)">
        <path d="M20.3055 46.7456C20.8926 46.7456 21.4263 46.879 21.7198 47.1459C21.7732 47.5729 21.3729 48.2667 21.1327 48.2667C20.8392 48.1599 20.5723 48.1066 20.2254 48.1066C18.8378 48.1066 18.1173 49.5476 18.1173 50.9886C18.1173 51.8692 18.4108 52.4029 19.1313 52.4029C19.8785 52.4029 20.6257 51.8959 21.0794 51.5223C21.1861 51.6024 21.3195 51.8425 21.3195 52.1094C21.3195 52.4029 21.2395 52.6965 20.9459 52.99C20.4656 53.4703 19.6383 53.8973 18.4108 53.8973C17.0499 53.8973 16.0625 53.1234 16.0625 51.2821C16.1426 48.9071 17.717 46.7456 20.3055 46.7456Z" fill="#373535"/>
        <path d="M24.8411 52.3495C25.5883 52.3495 26.976 51.042 27.3496 48.5068C27.3762 48.3467 27.3762 48.32 27.4029 48.1599C27.2428 48.1066 27.0026 48.0532 26.7892 48.0532C26.2288 48.0532 25.6417 48.2133 25.1347 48.9338C24.601 49.681 24.3608 50.615 24.3608 51.3889C24.3074 51.976 24.5209 52.3495 24.8411 52.3495ZM22.3594 51.629C22.3594 50.7217 22.6529 49.1473 23.8004 47.9998C24.7878 46.9858 25.9886 46.7456 27.0827 46.7456C27.8032 46.7456 28.7639 46.9858 29.4043 47.0925C29.2442 47.7597 28.8973 50.3215 28.7105 51.7892C28.6305 52.4029 28.6038 53.2835 28.6305 53.6304C28.1234 53.8439 27.1894 53.8973 26.9226 53.8973C26.7892 53.8973 26.7625 53.2835 26.7892 52.6698C26.8158 52.483 26.8425 52.1894 26.8425 52.056C26.2555 53.0434 25.0546 53.8973 23.8271 53.8973C22.9198 53.8973 22.3594 53.1501 22.3594 51.629Z" fill="#373535"/>
        <path d="M33.2205 46.7456C33.8342 46.7456 34.448 46.9858 34.7149 47.2526C34.6882 47.6796 34.3679 48.4001 33.8342 48.1866C33.5941 48.1066 33.3806 48.0532 33.0604 48.0532C32.6601 48.0532 32.2865 48.24 32.2865 48.6136C32.2865 48.9071 32.5 49.1206 33.514 49.8411C34.2345 50.3748 34.5281 50.8552 34.5281 51.5223C34.5281 52.6431 33.4873 53.8706 31.6193 53.8706C30.8722 53.8706 30.205 53.5771 30.0182 53.2835C29.7514 52.8299 29.9649 51.9226 30.2584 52.0827C30.6587 52.2695 31.2991 52.483 31.8328 52.483C32.3399 52.483 32.6601 52.2428 32.6601 51.9493C32.6601 51.6824 32.4199 51.4689 31.5126 50.8018C30.7387 50.2147 30.4986 49.681 30.4986 49.0939C30.4986 47.7863 31.6193 46.7456 33.2205 46.7456Z" fill="#373535"/>
        <path d="M38.531 46.7456C39.1448 46.7456 39.7586 46.9858 40.0254 47.2526C39.9987 47.6796 39.6785 48.4001 39.1448 48.1866C38.9046 48.1066 38.6911 48.0532 38.3709 48.0532C37.9706 48.0532 37.597 48.24 37.597 48.6136C37.597 48.9071 37.8105 49.1206 38.8246 49.8411C39.5451 50.3748 39.8386 50.8552 39.8386 51.5223C39.8386 52.6431 38.7979 53.8706 36.9299 53.8706C36.1827 53.8706 35.5423 53.5771 35.3288 53.2835C35.0619 52.8299 35.2754 51.9226 35.5689 52.0827C35.9692 52.2695 36.6097 52.483 37.1434 52.483C37.6504 52.483 37.9706 52.2428 37.9706 51.9493C37.9706 51.6824 37.7305 51.4689 36.8232 50.8018C36.0493 50.2147 35.8091 49.681 35.8091 49.0939C35.8091 47.7863 36.9032 46.7456 38.531 46.7456Z" fill="#373535"/>
        <path d="M43.3353 52.3495C44.0825 52.3495 45.4701 51.042 45.8437 48.5068C45.8704 48.3467 45.8704 48.32 45.8971 48.1599C45.737 48.1066 45.4968 48.0532 45.2833 48.0532C44.7229 48.0532 44.1358 48.2133 43.6288 48.9338C43.0951 49.681 42.8549 50.615 42.8549 51.3889C42.8549 51.976 43.015 52.3495 43.3353 52.3495ZM40.8535 51.629C40.8535 50.7217 41.1471 49.1473 42.2945 47.9998C43.2819 46.9858 44.4827 46.7456 45.5768 46.7456C46.2973 46.7456 47.258 46.9858 47.8985 47.0925C47.7384 47.7597 47.3914 50.3215 47.2047 51.7892C47.1246 52.4029 47.0979 53.2835 47.1246 53.6304C46.6176 53.8439 45.6836 53.8973 45.4167 53.8973C45.2833 53.8973 45.2566 53.2835 45.2833 52.6698C45.31 52.483 45.3367 52.1894 45.3367 52.056C44.7496 53.0434 43.5487 53.8973 42.3212 53.8973C41.4406 53.8973 40.8535 53.1501 40.8535 51.629Z" fill="#373535"/>
        <path d="M51.3658 48.7468C52.0596 47.6261 52.9669 46.7454 54.2745 46.7454C55.3686 46.7454 55.7155 47.7595 55.502 49.2005C55.3953 49.8676 55.2085 50.8283 55.1018 51.7356C54.995 52.4828 54.915 53.1499 54.9416 53.6303C54.5414 53.8171 53.3939 53.8971 53.1003 53.8971C52.9936 53.8971 52.9669 53.0699 53.127 52.1893C53.2605 51.4688 53.5006 50.1078 53.6341 49.3339C53.7141 48.8803 53.6874 48.3466 53.2605 48.3466C52.7001 48.3466 51.3391 49.2539 50.672 52.9631C50.6186 53.2567 50.5119 53.4435 50.3251 53.5502C50.0849 53.6836 49.6045 53.8171 48.6172 53.8171C48.804 52.8831 49.0975 50.9617 49.311 49.5474C49.4978 48.2665 49.5779 47.4126 49.5512 47.0923C49.818 47.0123 51.179 46.7188 51.3391 46.7188C51.4992 46.7188 51.5259 47.1991 51.3925 48.3199C51.3658 48.4266 51.3658 48.5867 51.3391 48.6935H51.3658V48.7468Z" fill="#373535"/>
        <path d="M59.1595 52.3229C59.8266 52.3229 61.2142 51.0687 61.5878 48.8271C61.6145 48.6937 61.6412 48.4802 61.6679 48.3468C61.4811 48.16 61.2142 48.0532 60.7873 48.0532C59.2395 48.0532 58.5457 49.9212 58.5457 51.2555C58.5724 51.9226 58.8125 52.3229 59.1595 52.3229ZM58.1721 53.8973C57.1847 53.8973 56.5977 53.0167 56.5977 51.5223C56.5977 49.0406 58.1454 46.7723 60.7606 46.7723C61.2142 46.7723 61.6412 46.9058 61.8814 47.0392C62.0148 46.3454 62.335 44.1572 62.3617 43.5167C62.7887 43.4366 63.696 43.3032 64.1496 43.3032C64.3098 43.3032 64.3631 43.4633 64.3098 43.8636C63.9362 46.1853 63.2957 50.5883 63.1623 51.549C63.0822 52.3763 63.0555 53.1768 63.0822 53.6572C62.6019 53.8707 61.6145 53.924 61.321 53.924C61.2142 53.924 61.1609 53.2302 61.1876 52.5898C61.2142 52.403 61.2409 52.1094 61.2409 52.056C60.4137 53.2836 59.3463 53.8973 58.1721 53.8973Z" fill="#373535"/>
        <path d="M67.1647 48.9603C67.9652 47.1457 68.9526 46.7454 69.593 46.7454C69.7798 46.7454 70.1001 46.8789 70.2335 47.0123C70.2869 47.5193 69.8866 48.5067 69.5397 48.9336C69.3529 48.8536 69.1394 48.7468 68.8725 48.7468C68.3655 48.7468 67.3248 49.5474 66.6576 53.0432C66.6043 53.3367 66.5242 53.4435 66.3641 53.5235C66.0972 53.6837 65.0832 53.7904 64.5762 53.8171C64.8163 52.5629 65.1899 50.0011 65.35 48.48C65.4034 48.1064 65.4034 47.3859 65.3767 47.119C65.6703 46.9856 66.8177 46.7188 67.0579 46.7188C67.1913 46.7188 67.2981 47.546 67.0846 48.9336H67.138V48.9603H67.1647Z" fill="#373535"/>
        <path d="M72.5566 52.3495C73.3038 52.3495 74.6915 51.042 75.0651 48.5068C75.0917 48.3467 75.0917 48.32 75.1184 48.1599C74.9583 48.1066 74.7181 48.0532 74.5047 48.0532C73.9443 48.0532 73.3572 48.2133 72.8502 48.9338C72.3165 49.681 72.0763 50.615 72.0763 51.3889C72.0763 51.976 72.2364 52.3495 72.5566 52.3495ZM70.1016 51.629C70.1016 50.7217 70.3951 49.1473 71.5426 47.9998C72.5299 46.9858 73.7308 46.7456 74.8249 46.7456C75.5454 46.7456 76.5061 46.9858 77.1465 47.0925C76.9864 47.7597 76.6395 50.3215 76.4527 51.7892C76.3726 52.4029 76.346 53.2835 76.3726 53.6304C75.8656 53.8439 74.9316 53.8973 74.6648 53.8973C74.5313 53.8973 74.5047 53.2835 74.5313 52.6698C74.558 52.483 74.5847 52.1894 74.5847 52.056C73.9976 53.0434 72.7968 53.8973 71.5693 53.8973C70.6886 53.8973 70.1016 53.1501 70.1016 51.629Z" fill="#373535"/>
        <path d="M67.2704 20.7271C67.7774 26.6246 58.4909 32.2285 46.5358 33.2693C34.5807 34.2833 24.4936 30.3339 23.9866 24.4364C23.4796 18.5389 32.7661 12.935 44.7212 11.8942C56.6496 10.9069 66.7634 14.8296 67.2704 20.7271Z" fill="#BBE6FB"/>
        <path d="M45.0169 12.588C40.4537 12.5079 35.1166 14.3492 31.1405 16.0304C30.7402 17.2046 30.5 18.4855 30.5 19.793C30.5 26.7846 36.8244 32.4686 44.6166 32.4686C52.4087 32.4686 58.7599 26.8113 58.7599 19.793C58.7599 17.5781 58.1194 15.4967 56.9986 13.6821C53.8498 13.2017 49.4733 12.668 45.0169 12.588Z" fill="white"/>
        <path d="M44.6434 12.5881C42.1083 12.4279 37.7585 13.7355 34.1293 15.0698C33.5689 16.3507 33.2754 17.7917 33.2754 19.2861C33.2754 25.4237 38.8526 30.3872 44.6968 30.3872C50.5409 30.3872 55.6912 25.4237 56.1181 19.2861C56.2516 17.2847 55.5844 15.4167 54.6237 13.7889C50.8878 13.1484 46.9117 12.7482 44.6434 12.5881Z" fill="white"/>
        <path d="M38.157 18.512C38.4773 17.8182 38.9309 17.4979 39.3846 16.9375C39.3312 16.8041 39.2245 16.3505 39.2245 16.217C39.2245 15.5232 39.7849 14.9895 40.452 14.9895C40.6121 14.9895 40.7722 15.0162 40.9056 15.0696C42.9871 13.4951 45.6823 12.8013 48.4309 13.4417C48.6711 13.4951 48.9113 13.5752 49.1514 13.6285C46.4562 13.2549 43.3874 14.2156 41.3326 15.8968C41.386 16.0569 41.5728 16.4572 41.5728 16.644C41.5728 17.3378 41.1191 17.4979 40.452 17.4979C40.2919 17.4979 40.1585 17.4712 39.9983 17.4179C39.5447 18.0316 38.9576 19.2592 38.6908 20.0064C39.8382 21.0204 40.879 21.394 42.2132 21.9277C42.2132 21.8743 42.2666 21.7943 42.2666 21.7409C42.2666 19.6594 44.1079 17.9783 46.1627 17.9783C48.0307 17.9783 49.5784 19.3125 49.872 21.1005C50.8059 20.5134 51.7132 20.0597 52.3804 19.1791C52.2203 18.9923 52.0602 18.4319 52.0602 18.1651C52.0602 17.5513 52.5672 17.0443 53.1809 17.0443C53.261 17.0443 53.3411 17.0443 53.4478 17.071C53.7947 16.3505 54.0616 15.6033 54.2217 14.8027C50.9661 12.3743 44.6683 12.7212 44.6683 12.7212C44.6683 12.7212 39.6781 12.4544 36.2891 14.1089C36.5559 15.6299 37.1964 17.1777 38.157 18.512Z" fill="#373535"/>
        <path d="M53.7151 17.5782C53.9553 17.7917 54.062 17.9518 54.1688 18.1386C54.4623 18.6723 53.8752 19.1793 53.2348 19.1793C53.1814 19.1793 53.1014 19.1793 53.048 19.1526C52.3542 20.2467 51.1 21.6611 50.0059 22.3816C51.687 22.6484 53.2882 23.3156 54.5157 24.383C55.423 22.7552 56.1168 20.3535 56.1168 18.3254C56.1168 16.8043 55.4497 15.6568 54.4356 14.8296C54.409 15.6568 53.9553 16.8043 53.7151 17.5782Z" fill="#373535"/>
        <path d="M40.0514 28.0123C40.6118 26.4645 41.9995 25.2637 43.3071 24.2229C43.1203 23.9561 42.8267 23.3156 42.72 23.0221C41.1455 22.5417 39.7312 21.6344 38.6371 20.4336C38.6371 20.4603 38.6104 20.5137 38.6104 20.5403C38.3969 21.4476 38.3703 22.4083 38.477 23.2889C39.2242 23.4224 39.8113 24.0895 39.8113 24.8901C39.8113 25.3704 39.3843 26.0375 39.0641 26.3578C39.3843 27.0516 39.6245 27.4252 40.0514 28.0123Z" fill="#373535"/>
        <path d="M39.9455 29.293C39.2783 28.6259 38.8247 27.2916 38.3977 26.4644C38.3176 26.4644 38.2376 26.4911 38.1575 26.4911C37.2502 26.4911 36.2896 25.7439 36.5297 24.8633C36.6365 24.3829 36.9834 24.0627 37.5171 23.7958C37.3837 22.7818 37.357 21.3408 37.5971 20.3001C37.6505 20.0065 37.8106 19.8731 37.8907 19.5795C36.9033 18.1385 36.2629 16.1905 36.2629 14.2691V14.0557C34.5817 14.9096 33.3008 16.2439 33.3008 18.3253C33.3008 22.9686 35.996 27.5585 39.9721 29.3197V29.293" fill="#373535"/>
        <path d="M49.7645 22.8623C49.2575 24.3033 47.8431 25.3974 46.2153 25.3974C45.3347 25.3974 44.5341 25.1039 43.8937 24.5969C42.5861 25.6109 41.3586 27.4255 40.7715 29C41.0383 29.2935 41.2251 29.5337 41.5454 29.8005C42.4527 30.0407 43.7603 29.8005 44.7476 29.8005C48.7504 29.8005 52.3263 28.0126 54.3811 24.8904C52.9934 23.903 51.3656 22.9957 49.7645 22.8623Z" fill="#373535"/>
        <path d="M38.0509 19.046C38.3712 18.3521 38.7448 17.7384 39.1984 17.1246C39.145 16.9912 39.1184 16.8311 39.1184 16.6976C39.1184 16.0038 39.6788 15.4701 40.3459 15.4701C40.506 15.4701 40.6661 15.4968 40.7995 15.5502C42.881 13.9757 45.5762 13.2819 48.3248 13.9224C48.565 13.9757 48.8052 14.0558 49.0453 14.1092C46.3501 13.7356 43.5481 14.5628 41.4934 16.244C41.5467 16.4041 41.6001 16.5642 41.6001 16.7243C41.6001 17.4181 41.0397 17.9519 40.3726 17.9519C40.2125 17.9519 40.079 17.9252 39.9189 17.8718C39.4653 18.4856 39.065 19.1794 38.7981 19.9533C39.7855 20.994 41.013 21.8746 42.3473 22.355V22.1682C42.3473 20.0867 44.0285 18.4055 46.1099 18.4055C47.9779 18.4055 49.5257 19.7398 49.8192 21.5277C50.7532 20.9406 51.5805 20.1934 52.2743 19.2861C52.1142 19.0993 52.0074 18.8592 52.0074 18.5923C52.0074 17.9785 52.5144 17.4715 53.1282 17.4715C53.2083 17.4715 53.2883 17.4715 53.3951 17.4982C53.742 16.7777 54.0088 16.0305 54.1689 15.2299C50.9133 12.8016 44.6156 13.1485 44.6156 13.1485C44.6156 13.1485 39.6254 12.8816 36.2363 14.5361C36.4498 16.1639 37.0903 17.7384 38.0509 19.046Z" fill="#1287B1"/>
        <path d="M53.874 17.765C54.1142 17.9785 54.2476 18.272 54.2476 18.5922C54.2476 19.206 53.7406 19.713 53.1268 19.713C53.0734 19.713 52.9934 19.713 52.94 19.6863C52.2462 20.7804 51.3122 21.7411 50.1914 22.4349C51.7925 22.6751 53.3403 23.3689 54.5945 24.4363C55.5018 22.8085 56.0355 20.8872 56.0355 18.8591C56.0355 17.338 55.3684 16.1905 54.3543 15.3633C54.301 16.1905 54.1409 16.9911 53.874 17.765Z" fill="#1287B1"/>
        <path d="M40.2128 28.3595C40.7732 26.8117 41.7339 25.4241 43.0682 24.3833C42.8814 24.1165 42.7213 23.8496 42.6145 23.5294C41.0401 23.0491 39.6257 22.1418 38.5316 20.9409C38.5316 20.9676 38.505 21.021 38.505 21.0477C38.2915 21.955 38.2648 22.9156 38.3715 23.7963C39.1187 23.9297 39.7058 24.5968 39.7058 25.3974C39.7058 25.8777 39.4923 26.3047 39.1721 26.5982C39.4389 27.212 39.8125 27.8258 40.2128 28.3595Z" fill="#1287B1"/>
        <path d="M39.9467 29.2665C39.2796 28.5994 38.7192 27.8522 38.2922 26.9983C38.2122 26.9983 38.1321 27.0249 38.0521 27.0249C37.1448 27.0249 36.4243 26.3044 36.4243 25.3971C36.4243 24.7567 36.7978 24.1963 37.3316 23.9294C37.1981 22.9154 37.2515 21.8747 37.4917 20.8339C37.545 20.5404 37.6518 20.2468 37.7318 19.9533C36.7445 18.5123 36.1574 16.7244 36.1574 14.8297V14.6162C34.4762 15.4701 33.1953 16.8044 33.1953 18.8859C33.1953 23.5291 35.9706 27.532 39.9467 29.3199C39.9467 29.2932 39.9467 29.2932 39.9467 29.2665Z" fill="#1287B1"/>
        <path d="M49.6578 23.396C49.1507 24.837 47.7364 25.9311 46.1086 25.9311C45.228 25.9311 44.4274 25.6376 43.787 25.1305C42.4794 26.1446 41.4653 27.5589 40.8516 29.1334C41.1184 29.4269 41.412 29.6938 41.7055 29.9606C42.6128 30.2008 43.6002 30.3342 44.5875 30.3342C48.5903 30.3342 52.1395 28.2527 54.1943 25.1305C52.86 24.1432 51.2589 23.5294 49.6578 23.396Z" fill="#1287B1"/>
        <path d="M49.7912 22.4353L53.2603 21.6081L49.7645 21.4213L52.6199 19.2598L49.3909 20.4072L51.5791 17.3651L48.537 19.3932L49.5777 15.844L47.4963 18.7794L47.4429 15.0701L46.0819 18.3791L44.9611 15.0435L45.0145 18.9662L43.0398 15.4437L44.1072 19.1797L40.905 16.8581L43.4134 20.0069L39.4373 18.5659L42.5595 20.8876L38.5566 21.021L42.6662 22.0617L38.5566 22.9423L42.6128 23.2359L39.1971 25.4241L42.7196 24.1699L40.2645 27.2387L43.36 24.7303L42.2659 28.8665L44.6676 25.4775L44.3474 29.4536L45.6817 25.8244L46.8291 29.6137L47.096 25.7977L48.8039 29.0533L47.7898 25.3707L50.912 27.7991L48.8839 24.7036L52.3263 26.0379L49.6845 23.4494L53.2069 23.7162L49.7912 22.4353Z" fill="white"/>
        <path d="M12.752 29.0794C23.5329 18.2985 32.1523 14.9628 39.9711 13.4684C40.9851 13.2816 41.1986 10.9867 41.1986 10.9867C41.1986 10.9867 41.3321 12.6412 42.0526 12.8814C42.7731 13.0948 43.7071 10.2662 43.7071 10.2662C43.7071 10.2662 42.8531 12.8013 43.7071 12.9614C44.561 13.0948 46.1888 10.4797 46.1888 10.4797C46.1888 10.4797 45.5484 12.7213 45.9753 12.8814C46.4023 13.0148 48.5905 9.62574 48.5905 9.62574C48.5905 9.62574 47.3096 11.8673 48.5104 12.1075C49.738 12.321 51.5526 10.5864 51.5526 10.5864C51.5526 10.5864 50.1649 12.1609 50.7787 12.4277C53.4739 13.3617 55.6088 9.8926 55.6088 9.8926C55.6088 9.8926 55.1017 11.4137 53.7942 13.0948C56.6228 13.8154 58.7043 9.57237 58.7043 9.57237L56.5961 13.8154C57.6636 14.3491 62.0133 9.35889 62.0133 9.35889C62.0133 9.35889 59.7717 13.255 58.4641 14.0555C59.1846 14.6426 61.7998 12.2943 61.7998 12.2943C61.7998 12.2943 59.6916 14.9095 60.5189 15.0429C61.6931 15.9502 65.9627 10.1594 65.9627 10.1594C65.9627 10.1594 64.3082 13.5752 61.8532 16.2437C63.9079 17.2845 69.0049 10.6932 69.0049 10.6932C69.0049 10.6932 68.8714 12.8013 65.1622 16.137C67.9108 15.7901 71.4599 10.5597 71.4599 10.5597C71.4599 10.5597 70.179 14.4558 67.0568 17.2311C69.7521 16.9642 74.0751 10.2929 74.0751 10.2929C74.0751 10.2929 72.4206 14.9095 69.0316 17.6047C72.7942 18.4319 78.238 12.828 78.238 12.828C78.238 12.828 76.1032 16.8041 73.3279 18.4586C76.4501 19.6328 80.7198 14.7227 80.7198 14.7227C80.7198 14.7227 76.4501 21.314 69.6453 21.0204C67.4037 20.9137 60.6523 14.2423 46.1888 14.776C27.002 15.4699 22.9725 23.5822 12.752 29.0794Z" fill="#373535" fill-opacity="0.35"/>
        <path d="M13.1797 28.2791C23.9606 17.4982 32.58 14.1625 40.3988 12.6682C41.4129 12.4814 41.6264 10.1864 41.6264 10.1864C41.6264 10.1864 41.7598 11.8409 42.4803 12.0811C43.2008 12.2946 44.1348 9.4659 44.1348 9.4659C44.1348 9.4659 43.2809 12.001 44.1348 12.1611C44.9887 12.2946 46.6165 9.67938 46.6165 9.67938C46.6165 9.67938 45.9761 11.921 46.4031 12.0811C46.83 12.2145 49.0182 8.82545 49.0182 8.82545C49.0182 8.82545 47.7373 11.067 48.9382 11.3072C50.1657 11.5207 51.9803 9.78612 51.9803 9.78612C51.9803 9.78612 50.5927 11.3606 51.2064 11.6274C53.9017 12.5614 56.0365 9.0923 56.0365 9.0923C56.0365 9.0923 55.5295 10.6134 54.2219 12.2946C57.0506 13.0151 59.132 8.77208 59.132 8.77208L57.0772 12.9617C58.1447 13.5488 62.4944 8.55859 62.4944 8.55859C62.4944 8.55859 60.2795 12.4547 58.9452 13.2552C59.6657 13.7623 62.2809 11.4406 62.2809 11.4406C62.2809 11.4406 60.1727 14.0558 61 14.1892C62.1475 15.1499 66.4438 9.35916 66.4438 9.35916C66.4438 9.35916 64.7626 12.7749 62.3076 15.4434C64.3624 16.4575 69.486 9.86618 69.486 9.86618C69.486 9.86618 69.3525 11.9743 65.6433 15.31C68.3919 14.9631 71.941 9.73275 71.941 9.73275C71.941 9.73275 70.6601 13.6288 67.5379 16.4041C70.2332 16.1373 74.5562 9.4659 74.5562 9.4659C74.5562 9.4659 72.9017 14.0825 69.5127 16.7777C73.2753 17.605 78.7191 12.001 78.7191 12.001C78.7191 12.001 76.5843 15.9771 73.809 17.6316C76.9312 18.8058 81.2009 13.8957 81.2009 13.8957C81.2009 13.8957 76.9312 20.487 70.1264 20.1934C67.8848 20.0867 61.1334 13.4153 46.6699 13.9491C27.4564 14.6696 23.4002 22.7552 13.1797 28.2791Z" fill="#373535"/>
        <path d="M12.4844 30.2537C18.1951 33.1091 23.3987 29.8268 29.9633 31.6681C34.9535 33.0557 41.0378 34.8169 49.3103 33.6161C57.5561 32.4419 64.601 28.8394 67.9901 22.4349C69.0308 19.5796 73.3272 23.0754 73.3272 23.0754C73.3272 23.0754 70.205 21.7945 70.285 22.3815C70.3651 22.9953 74.955 25.1301 74.955 25.1301C74.955 25.1301 70.7921 23.8492 71.0589 24.8099C71.2991 25.7706 76.2626 29.6933 76.2626 29.6933C76.2626 29.6933 70.5786 25.4504 70.1249 26.0374C69.6446 26.6245 72.5266 28.9728 72.5266 28.9728C72.5266 28.9728 67.8033 26.0374 66.1221 26.8914C64.9213 27.5051 71.0322 31.508 71.0322 31.508C71.0322 31.508 67.0561 28.4658 66.1221 29.2664C65.1881 30.0669 70.6053 36.5782 70.6053 36.5782C70.6053 36.5782 64.4142 29.9068 63.8005 30.227C63.1867 30.5473 65.4817 33.7495 65.4817 33.7495C65.4817 33.7495 62.4929 30.4405 61.6656 31.0009C60.8384 31.588 66.0154 40.2341 66.0154 40.2341C66.0154 40.2341 60.3847 31.3745 58.0631 32.8689C61.6923 40.8479 60.3581 41.9953 60.3581 41.9953C60.3581 41.9953 59.9044 33.8563 55.3679 34.0698C53.0729 34.1765 56.4353 40.154 56.4353 40.154C56.4353 40.154 53.3398 34.6568 51.2583 34.7903C55.0477 41.9953 53.7134 44.904 53.7134 44.904C53.7134 44.904 54.3271 38.7397 49.2035 35.324C51.1783 37.0852 47.976 44.904 47.976 44.904C47.976 44.904 50.778 33.3759 45.8945 35.5641C45.1207 35.911 45.8412 41.3282 45.8412 41.3282C45.8412 41.3282 44.8805 35.1372 43.3861 35.4574C42.5322 35.6442 37.9423 44.0234 37.9423 44.0234C37.9423 44.0234 41.6782 34.9504 40.5575 35.3507C39.7302 35.6175 38.1558 39.3535 38.1558 39.3535C38.1558 39.3535 38.903 35.6709 38.1558 35.4574C37.4086 35.2439 33.1656 39.3535 33.1656 39.3535C33.1656 39.3535 36.3145 35.6709 35.7808 34.897C34.9535 33.7495 33.9928 33.6962 32.8454 34.1498C31.1909 34.7903 28.9493 37.8324 28.9493 37.8324C28.9493 37.8324 31.1909 34.7369 30.8173 33.6161C30.2035 31.7481 23.7723 37.1919 23.7723 37.1919C23.7723 37.1919 27.5616 33.6161 26.7077 32.8422C25.8538 32.095 21.1038 32.3085 19.6628 32.3085C15.313 32.3352 13.792 31.3212 12.4844 30.2537Z" fill="#373535" fill-opacity="0.35"/>
        <path d="M12.2461 29.6131C17.9568 32.4685 23.1604 29.1861 29.7251 31.0274C34.7152 32.4418 40.7995 34.1763 49.072 32.9755C57.3178 31.8013 64.3628 28.1988 67.7518 21.7943C68.7925 18.9389 73.0889 22.4347 73.0889 22.4347C73.0889 22.4347 69.9667 21.1538 70.0468 21.7409C70.1268 22.3547 74.7167 24.4895 74.7167 24.4895C74.7167 24.4895 70.5538 23.2086 70.8206 24.1693C71.0608 25.13 76.0243 29.0527 76.0243 29.0527C76.0243 29.0527 70.4204 24.783 69.9667 25.3701C69.5131 25.9572 72.3684 28.3055 72.3684 28.3055C72.3684 28.3055 67.6451 25.3701 65.9639 26.2241C64.763 26.8378 70.874 30.8406 70.874 30.8406C70.874 30.8406 66.8979 27.7985 65.9639 28.5991C65.0299 29.3996 70.447 35.9109 70.447 35.9109C70.447 35.9109 64.2827 29.2395 63.6689 29.5597C63.0552 29.9066 65.3501 33.1089 65.3501 33.1089C65.3501 33.1089 62.2813 29.7999 61.454 30.3603C60.6268 30.9474 65.7771 39.5935 65.7771 39.5935C65.7771 39.5935 60.1731 30.7072 57.8515 32.2016C61.5074 40.2072 60.1465 41.3547 60.1465 41.3547C60.1465 41.3547 59.6928 33.2156 55.1563 33.4291C52.8613 33.5359 56.2237 39.5134 56.2237 39.5134C56.2237 39.5134 53.1549 34.0696 51.1001 34.1763C54.8894 41.3814 53.5552 44.2901 53.5552 44.2901C53.5552 44.2901 54.1689 38.1258 49.0453 34.71C51.02 36.4713 47.8178 44.2901 47.8178 44.2901C47.8178 44.2901 50.6198 32.762 45.7363 34.9502C44.9624 35.2971 45.683 40.7143 45.683 40.7143C45.683 40.7143 44.7223 34.5232 43.2279 34.8435C42.374 35.0303 37.7841 43.4095 37.7841 43.4095C37.7841 43.4095 41.52 34.3364 40.3992 34.7367C39.572 35.0036 37.9975 38.7395 37.9975 38.7395C37.9975 38.7395 38.7447 35.0569 37.9975 34.8435C37.2504 34.63 33.0074 38.7395 33.0074 38.7395C33.0074 38.7395 36.1562 35.0569 35.6225 34.2831C34.7953 33.1356 33.8346 33.0822 32.6871 33.5359C31.0326 34.1763 28.7911 37.2185 28.7911 37.2185C28.7911 37.2185 31.0326 34.1229 30.659 33.0022C30.0453 31.1342 23.6141 36.578 23.6141 36.578C23.6141 36.578 27.4034 33.0022 26.5495 32.2283C25.6956 31.4811 20.9455 31.6946 19.5045 31.6946C15.0748 31.6946 13.5537 30.6538 12.2461 29.6131Z" fill="#373535"/>
    </g>
    <rect width="91.8691" height="61.2461" transform="translate(93.5898 0.618652)" fill="white"/>
    <g clip-path="url(#clip1_8130_78778)">
        <path d="M144.441 44.346C144.441 44.265 144.495 44.2109 144.577 44.2109H146.819C146.9 44.2109 146.927 44.238 146.927 44.319V47.8046C146.927 47.8587 146.954 47.8857 147.008 47.8857H147.279C147.333 47.8857 147.387 47.8317 147.387 47.8046V44.319C147.387 44.265 147.414 44.2109 147.495 44.2109H149.737C149.818 44.2109 149.872 44.265 149.872 44.319V54.0463C149.872 54.1004 149.845 54.1814 149.764 54.1814H147.495C147.441 54.1814 147.387 54.1004 147.387 54.0463V50.5607C147.387 50.5067 147.36 50.4526 147.306 50.4526H147.008C146.954 50.4526 146.927 50.5067 146.927 50.5607V54.0463C146.927 54.1004 146.873 54.1814 146.819 54.1814H144.631C144.549 54.1814 144.468 54.1004 144.468 53.9923V44.346H144.441Z" fill="black" stroke="#FCEE21" stroke-width="0.270203"/>
        <path d="M150.602 54.2088C150.521 54.2088 150.439 54.1277 150.439 54.0196V44.3734C150.439 44.3193 150.493 44.2383 150.548 44.2383H152.817C152.898 44.2383 152.979 44.2923 152.979 44.3734V54.0467C152.979 54.1277 152.925 54.2088 152.817 54.2088H150.602Z" fill="black" stroke="#FCEE21" stroke-width="0.270203"/>
        <path d="M156.546 48.5345C156.546 48.5886 156.601 48.6426 156.601 48.6426C156.628 48.6426 156.655 48.6156 156.655 48.5345L157.222 44.4004C157.249 44.3193 157.303 44.2383 157.384 44.2383H159.681C159.762 44.2383 159.816 44.3193 159.789 44.4004L157.952 54.0467C157.952 54.1277 157.87 54.2088 157.789 54.2088H155.195C155.114 54.2088 155.06 54.1277 155.033 54.0467L153.25 44.3734C153.25 44.3193 153.25 44.2383 153.331 44.2383H155.709C155.79 44.2383 155.844 44.2653 155.871 44.3734L156.546 48.5345Z" fill="black" stroke="#FCEE21" stroke-width="0.270203"/>
        <path d="M160.086 44.4004C160.086 44.3193 160.167 44.2383 160.248 44.2383H164.977C165.058 44.2383 165.112 44.2923 165.112 44.3734V46.7782C165.112 46.8593 165.058 46.9133 164.977 46.9133H162.761C162.707 46.9133 162.68 46.9403 162.68 46.9944V47.7509C162.68 47.805 162.734 47.832 162.761 47.832H163.815C163.869 47.832 163.896 47.859 163.896 47.913V50.3449C163.896 50.3989 163.842 50.453 163.788 50.453H162.707C162.653 50.453 162.626 50.48 162.626 50.561V51.3446C162.626 51.3987 162.653 51.4257 162.707 51.4257H165.004C165.085 51.4257 165.139 51.4797 165.139 51.5608V54.0467C165.139 54.1277 165.085 54.1818 165.004 54.1818H160.248C160.167 54.1818 160.113 54.1007 160.113 54.0196V44.4004H160.086Z" fill="black" stroke="#FCEE21" stroke-width="0.270203"/>
        <path d="M141.983 52.0469L149.954 49.3719C149.954 49.3719 142.064 50.3176 141.145 48.9125C141.145 48.9125 139.2 46.2105 140.091 49.507C138.74 45.2648 134.633 53.0466 141.983 52.0469Z" fill="black" stroke="#FFEF00" stroke-width="0.270203"/>
        <path d="M151.415 36.5646C151.415 36.5646 149.01 38.5101 147.145 38.9965C145.308 39.4828 139.769 40.5907 139.255 41.7525C138.715 42.9144 138.445 43.5899 139.985 46.2919C141.525 48.967 141.309 50.8314 142.471 51.2637C143.633 51.723 140.363 52.2634 140.336 52.2634C140.309 52.2634 134.149 47.9132 134.068 46.9945C133.986 46.0758 134.446 36.7808 135.878 36.1053C137.31 35.4298 141.795 31.3227 144.497 31.2416C147.172 31.1606 151.415 36.5646 151.415 36.5646Z" fill="black"/>
        <path d="M138.443 39.4826C138.93 40.8877 139.956 42.59 140.578 43.1844C141.199 43.8059 142.118 44.5354 143.253 44.3733C143.253 44.3733 142.631 44.6165 142.118 44.5354C141.578 44.4274 140.092 44.1031 139.524 43.4816C138.984 42.8602 137.471 41.0228 137.471 41.0228L136.552 43.5897C136.552 43.5897 138.686 45.292 139.956 45.6703C141.389 46.1026 142.469 46.2107 142.902 45.9135C142.902 45.9135 142.523 46.2377 142.01 46.3458C141.524 46.4539 140.902 46.4269 140.254 46.3458C139.605 46.2647 137.444 45.9675 137.444 45.9675L140.227 47.913C140.227 47.913 141.253 48.4804 142.577 48.4534C142.577 48.4534 141.551 48.7776 141.118 48.7506C140.686 48.7506 137.254 48.2642 137.254 48.2642L134.85 43.7518L136.795 38.8071L138.443 39.4826Z" fill="black"/>
        <path d="M136.93 27.5664C136.174 27.5664 130.04 28.1068 128.311 30.5116C127.068 32.2139 125.285 35.6455 127.284 42.4816C129.5 50.0203 139.146 52.7493 140.821 51.9928C142.496 51.2362 140.983 50.1824 140.794 49.7501C140.632 49.3448 138.47 46.4806 138.011 45.2917C137.525 44.1299 138.93 40.0228 139.551 39.8607C140.2 39.6985 141.199 39.6175 141.74 40.2119C142.28 40.8064 143.685 41.4278 143.847 38.996C144.01 36.5642 144.928 33.727 144.928 33.727L136.93 27.5664Z" fill="#FCEE21" stroke="black" stroke-width="0.270203"/>
        <path d="M129.121 29.917C129.121 29.917 126.473 32.4299 126.473 36.5911C126.473 39.6444 127.499 43.2381 128.472 45.1295C129.013 46.5345 133.876 51.074 137.848 51.7224C141.253 52.506 141.307 51.3982 141.307 51.3982C141.01 51.4793 139.469 52.1548 136.524 51.0199C133.552 49.8851 130.634 47.183 129.715 44.5621C128.769 41.9411 128.256 37.7259 128.283 35.5643C128.31 33.3756 130.174 29.2686 130.174 29.2686L129.121 29.917Z" fill="#FCF69F"/>
        <path d="M132.229 28.4313C132.229 29.6202 136.011 38.3208 138.011 39.915C140.01 41.5092 143.064 40.9688 143.712 40.7256C144.361 40.4824 141.199 35.6728 140.902 35.1053C140.605 34.4839 137.714 26.9182 137.957 26.2157C138.2 25.5131 136.038 25.8644 135.255 25.9995C134.498 26.1076 132.229 28.4313 132.229 28.4313Z" fill="black" stroke="black" stroke-width="0.270203"/>
        <path d="M139.847 48.3722C139.847 48.3722 136.389 48.8586 134.038 48.2912C131.687 47.7237 129.391 46.5078 129.391 46.5078C129.391 46.5078 132.336 49.5071 133.39 49.9934C134.443 50.4798 139.766 50.5609 140.577 49.48C141.415 48.3722 139.847 48.3722 139.847 48.3722Z" fill="black"/>
        <path d="M138.578 46.4267C138.578 46.4267 136.011 46.5348 132.525 45.3729C129.04 44.211 127.364 42.806 127.364 42.806L126.473 38.6719C126.473 38.6719 129.958 42.0764 132.525 42.9681C135.065 43.8598 138.037 44.5623 138.037 44.5623" fill="black"/>
        <path d="M126.689 34.0515C126.689 34.0515 128.176 37.5642 131.418 39.6447C134.687 41.7253 138.308 42.3468 138.308 42.3468L138.632 41.4011C138.632 41.4011 138.011 41.347 133.309 38.0776C128.635 34.8081 129.04 30.0795 128.878 30.1066C128.257 30.2146 127.284 32.2952 127.284 32.2952L126.689 34.0515Z" fill="black"/>
        <path d="M153.008 28.0799C152.441 25.2427 149.307 23.8917 147.145 23.4864C144.983 23.0811 138.796 23.6485 137.931 25.4859C137.093 27.3503 137.201 30.7278 137.418 32.0518C137.634 33.3758 139.795 33.9703 140.552 34.3486C141.336 34.6998 142.335 33.619 143.227 34.5917C144.092 35.5645 147.55 37.6991 148.253 37.6721C148.982 37.6721 150.739 35.8887 150.739 35.8887L153.008 28.0799Z" fill="#FCEE21" stroke="black" stroke-width="0.270203"/>
        <path d="M150.927 24.4593L152.224 20.4063L152.683 19.0282C152.683 19.0282 150.657 15.2994 149.225 13.6512C147.793 11.9759 146.658 12.084 146.658 12.084C146.658 12.084 145.118 11.3275 143.01 12.3002C140.902 13.2729 140.092 14.3537 140.092 14.3537L140.983 14.5969L144.361 21.8924L147.549 25.5942L151.278 26.4318" fill="#FCEE21"/>
        <path d="M146.09 12.1113C146.09 12.1113 148.251 14.0298 149.143 15.2727C150.035 16.5157 151.494 17.4343 151.062 20.5687C150.629 23.7031 150.981 24.6758 150.981 24.6758L152.413 18.7583C152.413 18.7583 151.656 16.8129 149.792 14.4621C147.927 12.1113 146.792 11.8682 146.792 11.8682L146.09 12.1113Z" fill="#FCF69F"/>
        <path d="M147.035 14.3813C147.035 14.3813 146.494 13.3275 145.954 13.0573C145.413 12.7601 144.9 12.9492 144.549 12.8682C144.549 12.8682 145.495 13.0303 145.846 13.4896C146.197 13.949 146.927 15.4081 147.278 16.0295C147.629 16.651 147.683 16.1917 148.17 17.5427C148.656 18.9207 149.656 20.2717 149.629 20.7851L149.088 18.0561L147.035 14.3813Z" fill="#FCF69F"/>
        <path d="M150.791 29.7018L151.764 26.9187C151.764 26.9187 151.494 25.6758 151.196 25.3785C150.926 25.0813 152.385 26.5944 152.385 26.5944L150.791 29.7018Z" fill="black"/>
        <path d="M151.305 26.8375C151.305 26.8375 151.44 23.8383 151.683 22.8926C151.953 21.9469 153.061 19.2178 153.061 19.2178C153.061 19.2178 150.359 12.3546 146.982 11.6791C143.604 11.0036 142.226 12.0034 141.253 13.0031C140.308 14.0029 139.578 14.192 139.578 14.192L142.712 22.4873C142.712 22.4873 145.982 23.2979 147.522 23.8653L145.982 22.6764C145.982 22.6764 143.793 20.1905 143.091 19.0287C142.388 17.8668 140.551 15.0026 140.551 15.0026L140.389 14.4622C140.389 14.4622 142.172 12.6249 142.685 12.4897C143.199 12.3546 144.145 11.5711 145.874 12.2466C147.603 12.8951 146.522 12.0844 146.522 12.0844C146.522 12.0844 147.603 12.2195 148.008 12.7059C148.414 13.1653 152.467 17.0021 152.197 19.461C152.034 20.9741 150.629 23.8113 150.738 24.4598C150.792 25.0812 151.305 26.8375 151.305 26.8375Z" fill="black"/>
        <path d="M148.818 16.7046C149.385 18.1637 149.574 20.3254 149.574 20.3254C149.574 20.3254 148.737 16.9748 147.98 16.1372C147.224 15.2996 146.818 13.9756 146.818 13.9756C146.818 13.9756 147.494 14.5971 147.764 14.9213C148.034 15.2455 148.818 16.7046 148.818 16.7046Z" fill="black"/>
        <path d="M146.306 25.1888L138.254 26.2426L131.472 28.2961L125.473 30.4577L120.826 29.8903L119.475 26.3777L115.773 22.5408C115.773 22.5408 114.719 19.9738 114.611 18.1365C114.503 16.2991 116.746 14.0024 116.746 14.0024L119.664 13.8132L121.853 12.4622L124.771 8.81445L127.338 9.0036L128.851 9.08466L136.579 12.7324L141.902 16.0289L144.117 17.6231L146.306 25.1888Z" fill="#FCEE21"/>
        <path d="M127.824 16.6509C127.824 16.6509 130.337 17.4074 131.283 17.6777C132.229 17.9749 137.011 18.8936 137.011 18.8936C137.011 18.8936 140.091 19.0827 141.145 20.758C142.199 22.4332 143.685 26.5944 143.685 26.5944C143.685 26.5944 141.821 23.406 139.119 22.4602C136.444 21.5145 134.039 21.6496 134.039 21.6496C134.039 21.6496 134.66 21.2984 135.633 21.0552C136.606 20.812 136.606 20.812 136.606 20.812L136.525 20.0014C136.525 20.0014 134.417 19.488 133.255 19.0287C132.093 18.5153 127.824 16.6509 127.824 16.6509Z" fill="#FCF69F"/>
        <path d="M123.529 11.6519C123.529 11.6519 123.556 11.3817 125.042 11.6789C126.528 11.9761 128.798 12.8138 128.798 12.8138C128.798 12.8138 130.446 13.3001 132.743 14.0837C135.039 14.8673 137.903 15.8941 137.903 15.8941C137.903 15.8941 140.227 16.8398 141.011 17.6504C141.821 18.461 146.226 24.8918 146.226 24.8918C145.199 19.2176 142.794 16.2994 142.794 16.2994C142.794 16.2994 131.878 10.0577 128.987 9.38218C126.096 8.70667 125.123 9.03091 125.123 9.03091C125.123 9.03091 123.529 10.1658 123.366 10.8143C123.177 11.4357 123.529 11.6519 123.529 11.6519Z" fill="#FCF69F"/>
        <path d="M146.306 25.189C146.306 25.189 145.171 19.4336 144.631 17.3261C142.713 15.4887 141.497 14.8402 141.497 14.8402C141.497 14.8402 137.687 13.0028 137.281 12.5705C136.876 12.1382 133.769 10.8952 133.255 10.4629C132.715 10.0576 129.392 8.97678 128.608 8.81466C127.797 8.62552 125.501 8.19319 124.987 8.30128C124.474 8.40936 123.771 9.40911 123.312 9.76037C122.853 10.1387 120.637 12.8137 119.934 13.0839C119.232 13.3541 117.611 13.4892 117.394 13.3271C117.178 13.1649 116.206 13.192 115.476 14.3538C114.746 15.5157 113.774 17.7043 113.936 19.0824C114.098 20.4874 114.99 21.9465 116.314 23.4056C117.665 24.8918 118.421 25.216 119.394 27.1885C120.34 29.161 120.637 30.2958 120.637 30.2958C120.637 30.2958 123.663 30.7552 125.501 30.4579C127.338 30.1607 130.661 29.0529 131.769 28.4584C132.877 27.864 137.065 26.8372 137.768 26.4319C137.768 26.4319 133.201 27.4317 131.742 27.918C130.283 28.4044 126.879 29.9716 125.311 29.9716C123.15 29.9446 121.015 29.8094 121.015 29.8094C121.015 29.8094 120.205 26.8642 119.367 25.8104C118.529 24.7566 115.827 22.568 115.314 20.9468C114.801 19.3256 114.53 18.0016 115.179 16.5425C115.8 15.0834 116.881 14.2457 116.881 14.2457C116.881 14.2457 118.016 14.1917 118.935 14.2998C119.853 14.4079 121.285 14.6781 122.285 15.0023C123.285 15.3266 126.879 17.0559 126.879 17.0559L122.961 14.8402L120.367 13.8404C120.367 13.8404 121.529 13.1649 122.582 11.868C123.636 10.571 123.717 10.1116 124.42 9.65229C125.122 9.19295 125.528 9.08486 126.338 9.11189C127.149 9.16593 128.77 9.54421 129.77 9.92249C130.77 10.2738 133.147 11.1384 134.12 11.7058C135.147 12.3003 136.066 12.6786 137.092 13.273C138.119 13.8404 140.47 15.0023 141.551 15.7859C142.631 16.5695 143.199 17.0018 143.901 18.0016C144.577 18.9743 146.306 25.189 146.306 25.189Z" fill="black"/>
        <path d="M142.794 24.4052C142.794 24.4052 141.254 20.6494 140.903 19.9739C140.552 19.2984 139.633 18.9741 139.147 18.8661C138.66 18.731 133.607 18.731 133.607 18.731L137.85 19.3524C137.85 19.3524 138.498 19.4065 138.957 19.5686C139.39 19.7037 140.038 20.2171 140.038 20.2171C140.038 20.2171 139.498 20.082 139.147 20.082C138.795 20.082 138.147 20.5413 137.931 20.5954C137.66 20.6494 137.147 20.9736 137.147 20.9736C137.147 20.9736 138.309 20.7034 138.957 20.9196C139.606 21.1628 140.065 20.9466 140.552 21.3789C141.038 21.8383 141.47 22.3787 141.47 22.3787L142.794 24.4052Z" fill="black"/>
        <path d="M141.928 40.104L140.361 37.6452C140.361 37.6452 139.901 35.7267 141.09 34.3757C142.279 33.0247 142.279 33.0247 142.279 33.0247L146.197 27.9989L150.547 27.1343L152.331 27.1613L154.438 32.7545L156.249 32.6194L157.978 32.3222L158.437 33.1058L156.627 39.8068L153.466 42.5359L149.791 42.698L147.575 41.4821L145.819 42.8331L144.117 42.9952L143.171 42.1576L141.928 40.104Z" fill="#FCEE21"/>
        <path d="M145.631 39.3479C145.631 39.3479 150.171 43.5631 153.116 41.6176C156.061 39.6722 156.98 36.754 156.98 36.754C156.98 36.754 157.98 33.7007 157.899 33.0792C157.817 32.4578 158.709 33.3224 158.709 33.3224L156.872 40.0505C156.872 40.0505 154.17 42.7795 152.44 42.9146C150.711 43.0497 147.631 41.5096 147.631 41.5096L145.766 42.9957L144.199 43.0227L145.091 41.6176L145.631 39.3479Z" fill="#C0C43D"/>
        <path d="M143.658 39.1049C143.658 39.1049 144.253 38.6726 144.658 38.5375C145.063 38.4024 145.982 38.1592 145.982 38.1592L144.496 38.0781L143.658 39.1049Z" fill="#C0C43D"/>
        <path d="M154.305 33.4034C154.359 33.2683 155.277 33.7006 155.872 33.5115C156.466 33.3223 156.655 33.1332 156.872 33.0251C157.088 32.89 157.358 32.7549 157.52 32.7549C157.655 32.7549 157.952 32.7819 157.79 32.89C157.628 32.9981 156.574 33.7276 156.574 33.7276L155.386 33.8897L154.305 33.4034Z" fill="#C0C43D"/>
        <path d="M144.631 30.35C144.631 30.35 145.198 29.3502 145.523 29.08C145.847 28.8098 147.333 27.9722 147.333 27.9722L145.496 28.4045C145.496 28.4045 144.793 29.5934 144.712 29.8636C144.658 30.1338 144.631 30.35 144.631 30.35Z" fill="#C0C43D"/>
        <path d="M151.737 26.8374C151.737 26.8374 151.575 26.7833 151.629 27.1886C151.683 27.5939 151.899 28.1073 151.602 28.3235C151.304 28.5126 151.115 28.6207 151.115 28.6207C151.115 28.6207 151.98 28.5937 152.385 28.9449C152.79 29.2692 153.142 29.8096 153.223 30.2419C153.304 30.6742 153.412 31.5389 153.088 31.8902C152.763 32.2414 153.817 33.1601 153.817 33.1601L154.466 32.8088L153.925 30.0528L151.737 26.8374Z" fill="#C0C43D"/>
        <path d="M151.819 31.7277C151.819 31.9709 151.954 32.106 151.954 32.106C151.954 32.106 151.873 32.1871 151.792 32.4573C151.738 32.7275 151.873 32.9977 151.873 32.9977C151.873 32.9977 151.873 33.1057 152.305 33.2408C152.738 33.3759 153.17 33.6732 152.846 33.8893C152.522 34.1055 153.035 34.3757 153.035 34.3757L153.656 33.7272L153.467 32.7815L152.738 31.9439L151.846 31.6196" fill="#C0C43D"/>
        <path d="M148.601 30.8633L148.493 31.0794C148.493 31.0794 148.709 31.2956 148.682 31.809C148.655 32.3224 148.628 32.4034 148.628 32.4034L149.277 32.5385C149.277 32.5385 147.791 32.7277 147.115 32.8628C146.44 32.9979 145.575 33.5383 145.332 33.7004C145.089 33.8625 145.17 33.8085 145.17 33.8085C145.17 33.8085 145.143 33.6194 145.359 33.3762C145.575 33.106 145.764 32.9709 145.764 32.9709L145.953 32.8358C145.953 32.8358 145.683 32.8898 145.575 32.3224C145.467 31.755 145.494 31.7279 145.494 31.7279C145.494 31.7279 145.062 31.6198 144.954 31.5658C144.846 31.5118 146.143 31.2145 146.143 31.2145L148.601 30.8633Z" fill="#C0C43D"/>
        <path d="M154.277 32.7007C154.277 32.7007 154.223 32.2413 154.304 31.6739C154.385 31.1335 153.601 29.5393 153.304 29.0799C153.007 28.6206 152.142 26.7292 152.142 26.7292L152.115 26.54" stroke="black" stroke-width="0.81061"/>
        <path d="M149.629 34.9164C149.845 34.8354 150.277 34.322 150.521 33.9978C150.764 33.6735 151.007 33.5654 151.277 33.5654C151.547 33.5654 152.007 33.5925 152.223 33.6735C152.466 33.7546 152.682 33.7276 152.79 33.9167C152.898 34.1058 152.358 34.1058 152.358 34.1058C152.358 34.1058 151.98 33.9167 151.601 33.9167C151.223 33.9167 150.845 33.9167 150.629 34.1329C150.412 34.349 149.629 34.9164 149.629 34.9164Z" fill="black"/>
        <path d="M153.087 34.2407C153.087 34.2407 152.007 33.8625 151.628 34.3488C151.25 34.8352 151.088 35.1054 150.872 35.4837C150.656 35.862 150.277 36.2943 150.277 36.2943C150.277 36.2943 151.142 35.4296 151.304 35.2135C151.466 35.0243 151.547 34.8622 151.818 34.6731C152.088 34.4839 152.331 34.4839 152.601 34.4839C152.871 34.5109 153.033 34.592 153.033 34.592L153.087 34.2407Z" fill="black"/>
        <path d="M151.467 37.4291C151.467 37.4291 152.439 36.2132 152.602 35.7809C152.764 35.3485 153.223 34.1326 153.277 33.8354C153.331 33.5382 153.574 33.0788 153.79 32.8897C154.034 32.7005 154.088 32.8356 154.466 32.7816C154.844 32.7276 155.439 32.5925 155.628 32.4844C155.817 32.4033 156.465 31.998 156.601 31.917C156.736 31.8359 157.33 31.5657 157.438 31.5927C157.573 31.6468 158.06 31.7008 158.303 31.971C158.546 32.2412 158.816 32.6735 158.897 32.9167C158.978 33.1329 158.222 39.1314 156.114 41.2119C153.899 43.4006 153.304 43.4816 151.305 43.3736C149.305 43.2655 148.305 42.4008 147.792 42.1847C147.279 41.9685 147.468 41.9685 147.468 41.9685C147.468 41.9685 147.225 42.3198 146.819 42.7251C146.441 43.1304 145.36 43.6708 144.793 43.5627C144.198 43.4817 143.225 43.4816 142.658 42.617C142.091 41.7523 141.658 40.4824 141.658 40.4824L141.334 39.6448C141.334 39.6448 141.037 39.3475 140.686 38.6991C140.334 38.0506 140.199 37.3751 140.199 37.3751C140.199 37.3751 140.659 38.1857 141.037 38.618C141.415 39.0503 142.091 39.6988 142.091 39.6988L142.82 41.32C142.82 41.32 143.117 42.4549 144.063 42.7251C144.982 42.9953 145.603 42.8332 145.982 42.59C146.36 42.3738 147.143 41.5362 147.143 41.5362L146.711 41.1039L146.225 41.7794C146.225 41.7794 145.873 42.2928 145.306 42.2117C144.712 42.1577 144.36 41.8875 144.144 41.7253C143.928 41.5632 143.928 41.5632 143.928 41.5632C143.928 41.5632 144.36 42.3468 145.117 42.5089C144.82 42.563 144.036 42.3468 143.82 42.0766C143.82 42.0766 143.469 41.6983 143.685 41.239C143.874 40.7796 144.117 40.4554 144.279 40.2662C144.414 40.0771 144.604 39.942 144.739 39.6988C144.874 39.4556 145.09 38.7261 145.117 38.672C145.144 38.591 145.171 38.618 145.171 38.618C145.171 38.618 145.657 39.4556 146.117 39.8069C146.576 40.1852 147.792 41.266 148.251 41.5362C148.711 41.8064 152.304 44.0221 155.006 41.1309C157.708 38.2397 158.033 34.8892 158.033 34.8892C158.033 34.8892 158.357 33.9165 158.249 33.4031C158.141 32.8897 158.06 32.6465 157.6 32.4844C157.141 32.3223 157.006 32.7005 156.519 32.9167C156.033 33.1058 155.574 33.268 155.06 33.2139C154.547 33.1599 154.169 33.1599 154.034 33.4301C153.899 33.7273 153.385 35.4296 153.169 35.6728C152.953 35.943 152.71 36.2942 152.575 36.4293C152.358 36.5644 151.467 37.4291 151.467 37.4291Z" fill="black"/>
        <path d="M155.897 34.0247C156.815 33.9166 157.221 33.4572 157.329 33.3492C157.464 33.2411 157.734 32.8628 157.734 32.8628C157.734 32.8628 156.734 33.5113 156.248 33.5653C155.762 33.6464 155.248 33.9706 154.303 33.3762C154.249 33.3492 154.789 33.9976 155.221 34.0247C155.681 34.0787 155.897 34.0247 155.897 34.0247Z" fill="black"/>
        <path d="M144.55 38.267C144.928 38.0779 145.955 38.1319 145.955 38.1319C145.955 38.1319 144.712 37.9157 144.469 37.9428C144.226 37.9698 143.686 39.0506 143.686 39.0506L144.55 38.267Z" fill="black"/>
        <path d="M148.359 31.647C148.44 31.9443 148.278 32.2685 148.278 32.2685C148.278 32.2685 148.548 32.2685 148.738 32.3226C148.927 32.3766 149.332 32.5387 149.332 32.5387C149.332 32.5387 147.873 32.4306 147.441 32.5117C146.981 32.5928 146.576 32.7008 146.414 32.7549C146.225 32.8089 145.576 33.1061 145.576 33.1061C145.576 33.1061 146.009 32.7549 146.09 32.7279C146.171 32.7008 146.171 32.6468 146.171 32.6468C146.171 32.6468 146.09 32.4847 145.982 32.1874C145.9 31.8632 146.036 31.4579 146.036 31.4579C146.036 31.4579 145.792 31.5119 145.576 31.5119C145.387 31.539 144.928 31.539 144.928 31.539C144.928 31.539 145.549 31.2958 145.819 31.1337C146.09 30.9715 146.495 30.7824 146.711 30.7284C146.927 30.6743 147.468 30.6473 147.738 30.7013C148.008 30.7824 148.819 30.8635 148.819 30.8635C148.819 30.8635 148.494 30.9715 148.305 30.9715C148.116 30.9715 148.035 31.0256 148.035 31.0256C148.035 31.0256 148.278 31.3768 148.359 31.647Z" fill="black"/>
        <path d="M152.061 32.3764C151.98 32.5925 152.007 32.9168 152.007 32.9168H151.629C151.629 32.9168 151.98 32.9978 152.088 33.0789C152.196 33.1329 152.494 33.268 152.737 33.3491C152.98 33.4302 153.385 33.6463 153.385 33.6463L153.926 32.9168C153.926 32.9168 153.845 32.5925 153.818 32.4844C153.791 32.4034 153.655 32.0521 153.52 31.9711C153.385 31.89 152.953 31.7549 152.818 31.7549C152.683 31.7549 152.521 31.836 152.385 31.8089C152.25 31.7819 151.818 31.6738 151.818 31.6738L152.331 31.944C152.304 31.9981 152.115 32.2413 152.061 32.3764Z" fill="black"/>
        <path d="M152.035 32.9977C152.035 32.9977 152.251 32.9437 152.332 32.9707C152.413 32.9707 152.657 33.0518 152.657 33.0518C152.657 33.0518 152.792 32.8356 152.765 32.7005C152.738 32.5384 152.684 32.4573 152.576 32.4033C152.467 32.3492 152.278 32.3763 152.224 32.4033C152.17 32.4303 152.035 32.6194 152.035 32.6194V32.9977Z" fill="white"/>
        <path d="M151.98 28.6206C151.98 28.6206 152.332 28.6206 152.521 28.7017C152.71 28.7827 152.926 28.9719 152.926 28.9719L153.061 29.2151C153.061 29.2151 152.656 28.8638 152.494 28.8368C152.332 28.7827 151.98 28.6206 151.98 28.6206Z" fill="black"/>
        <path d="M147.603 27.9448C147.603 27.9448 146.469 28.0259 145.955 28.3501C145.442 28.6744 144.982 29.2418 144.982 29.2418C144.982 29.2418 145.172 28.215 145.658 28.0259C146.117 27.8367 147.603 27.9448 147.603 27.9448Z" fill="black"/>
        <path d="M146.333 31.8364C146.522 31.7553 146.9 31.7283 147.008 32.0255C147.116 32.3228 147.008 32.3498 147.008 32.3498C147.008 32.3498 146.819 32.3498 146.657 32.4038C146.468 32.4579 146.306 32.593 146.306 32.593L146.252 32.62L146.062 32.0796C146.062 32.0796 146.144 31.9175 146.333 31.8364Z" fill="white"/>
    </g>
    <rect width="91.8691" height="61.2461" transform="translate(186.416 0.618652)" fill="white"/>
    <g clip-path="url(#clip2_8130_78778)">
        <path d="M214.058 54.2093H212.947V48.4047H214.062L214.058 54.2093ZM212.959 48.4047V44.8094H214.073V48.4085L212.959 48.4047ZM212.959 54.2093H211.833V50.5952H204.677V54.2093H202.486V44.8057H204.677V48.401H212.947V54.2056L212.959 54.2093ZM212.959 44.8094H211.833V48.4085H212.966L212.959 44.8094Z" fill="#BA160C"/>
        <path d="M225.577 49.4398C225.945 49.665 226.245 49.9861 226.445 50.3686C226.644 50.7511 226.736 51.1807 226.71 51.6114C226.719 51.9586 226.657 52.304 226.527 52.626C226.396 52.948 226.201 53.2397 225.953 53.4828C225.705 53.7259 225.409 53.9153 225.085 54.039C224.76 54.1628 224.414 54.2183 224.067 54.2021H220.86V52.0117H224.082C224.399 52.0117 224.558 51.7737 224.558 51.2979C224.558 50.822 224.399 50.5854 224.082 50.5879H220.86V48.4201H223.919C224.237 48.4201 224.395 48.1822 224.395 47.7064C224.395 47.2305 224.237 46.9939 223.919 46.9964H220.86V44.806H223.919C224.289 44.7873 224.657 44.8497 225 44.9886C225.342 45.1276 225.65 45.3398 225.902 45.6104C226.342 46.1012 226.577 46.7417 226.559 47.4005C226.575 47.7948 226.493 48.1869 226.322 48.5424C226.151 48.8979 225.895 49.2061 225.577 49.4398ZM220.86 54.2096H214.973V48.4201H220.86V50.5917H217.163V52.0154H220.86V54.2059V54.2096ZM220.86 47.0001H217.163V48.4919L214.973 48.439V44.8135H220.86V47.0039V47.0001Z" fill="#BA160C"/>
        <path d="M227.737 42.3622V41.3614H229.372V40.7534C229.372 40.5369 229.299 40.4286 229.153 40.4286H227.737V39.4278H229.153C229.319 39.4205 229.485 39.4507 229.638 39.5161C229.791 39.5814 229.927 39.6803 230.037 39.8055C230.262 40.0649 230.383 40.3986 230.377 40.7421V43.7369H229.372V42.3622H227.737ZM241.083 43.7369H237.752C237.383 43.7481 237.024 43.6123 236.755 43.3592C236.622 43.2352 236.516 43.0842 236.445 42.9163C236.374 42.7483 236.339 42.5672 236.344 42.3849V40.7912C236.339 40.6089 236.374 40.4277 236.445 40.2598C236.516 40.0918 236.622 39.9408 236.755 39.8168C237.024 39.5637 237.383 39.4279 237.752 39.4391H241.083V40.4437H237.752C237.485 40.4437 237.352 40.5696 237.352 40.8214V42.4038C237.352 42.6555 237.485 42.7814 237.752 42.7814H241.083V43.7369ZM251.658 43.7369H250.646V42.079H248.07V43.7369H247.05V39.4278H248.055V41.0744H250.63V39.4278H251.643L251.658 43.7369ZM262.232 40.4324H258.644V41.0782H261.998V42.0828H258.644V42.7361H262.225V43.7369H257.625V39.4278H262.217V40.4324H262.232ZM227.737 39.4278V40.4324H226.309C226.171 40.4324 226.102 40.5407 226.102 40.7572V41.3614H227.737V42.366H226.102V43.7369H225.097V40.7534C225.091 40.4099 225.212 40.0763 225.437 39.8168C225.545 39.6926 225.679 39.5941 225.83 39.5288C225.981 39.4634 226.145 39.4328 226.309 39.4391H227.737V39.4278ZM216.43 42.332V41.3274H217.903C218.049 41.3274 218.122 41.1802 218.122 40.8856C218.122 40.591 218.049 40.4399 217.903 40.4324H216.43V39.4278H217.903C218.079 39.4243 218.254 39.4645 218.412 39.5449C218.569 39.6253 218.704 39.7433 218.805 39.8886C219.02 40.1759 219.132 40.5271 219.122 40.8856C219.135 41.2458 219.023 41.5993 218.805 41.8864C218.704 42.0316 218.569 42.1497 218.412 42.2301C218.254 42.3105 218.079 42.3507 217.903 42.3471L216.43 42.332ZM207.774 43.7369H206.762V42.3622H205.13V41.3614H206.765V40.7534C206.765 40.5369 206.692 40.4286 206.546 40.4286H205.13V39.4278H206.546C206.713 39.4205 206.878 39.4507 207.031 39.5161C207.184 39.5814 207.321 39.6803 207.43 39.8055C207.659 40.0673 207.782 40.4055 207.774 40.7534V43.7369ZM216.43 39.4278V40.4324H214.742V41.3274H216.43V42.332H214.742V43.7369H213.737V39.4278H216.43ZM205.13 42.3622H203.491V43.7369H202.487V40.7534C202.48 40.4099 202.601 40.0763 202.826 39.8168C202.934 39.6926 203.069 39.5941 203.22 39.5288C203.371 39.4634 203.534 39.4328 203.699 39.4391H205.13V40.4437H203.699C203.56 40.4437 203.491 40.552 203.491 40.7685V41.3728H205.13V42.3622Z" fill="#666666"/>
        <path d="M239.121 54.2094H236.93V51.2146H233.365V49.0242H236.934V47.7099C236.934 47.2366 236.775 46.9999 236.458 46.9999H233.365V44.8095H236.477C236.839 44.7998 237.199 44.8714 237.529 45.0191C237.86 45.1668 238.154 45.3869 238.388 45.663C238.885 46.2265 239.154 46.9549 239.143 47.7062L239.121 54.2094ZM233.365 51.2146H229.796V54.2094H227.606V47.7099C227.595 46.9587 227.864 46.2302 228.361 45.6668C228.594 45.3894 228.886 45.1682 229.217 45.0197C229.547 44.8713 229.906 44.7994 230.268 44.8095H233.38V46.9999H230.253C229.949 46.9999 229.796 47.2366 229.796 47.7099V49.0242H233.365V51.2146Z" fill="#BA160C"/>
        <path d="M251.28 51.3052C251.299 52.0459 251.045 52.7676 250.567 53.3332C250.33 53.6143 250.034 53.8388 249.699 53.9904C249.365 54.142 249 54.2168 248.633 54.2094H240.529V52.019H248.633C248.938 52.019 249.09 51.7811 249.09 51.3052C249.09 50.8294 248.938 50.5927 248.633 50.5952H242.738C242.371 50.6026 242.006 50.5278 241.672 50.3762C241.337 50.2246 241.041 50.0001 240.804 49.719C240.315 49.1659 240.055 48.4478 240.075 47.7099C240.064 46.9586 240.334 46.2302 240.831 45.6668C241.066 45.3893 241.36 45.1683 241.692 45.0199C242.024 44.8715 242.386 44.7996 242.749 44.8095H250.827V46.9999H242.738C242.433 46.9999 242.281 47.2366 242.281 47.7099C242.281 48.1832 242.433 48.4149 242.738 48.4048H248.633C249 48.3974 249.365 48.4722 249.699 48.6238C250.034 48.7754 250.33 48.9999 250.567 49.281C251.044 49.8456 251.298 50.5658 251.28 51.3052Z" fill="#BA160C"/>
        <path d="M252.191 54.2093V44.8057H262.214V46.9961H254.382V48.4047H261.701V50.5952H254.382V52.0189H262.196V54.2093H252.191Z" fill="#BA160C"/>
        <path d="M250.144 28.0339C250.085 27.9571 250.038 27.8718 250.004 27.7809C249.87 27.5131 249.635 27.3094 249.351 27.2144C249.161 27.1343 248.98 27.0316 248.815 26.9085C248.516 26.6782 248.267 26.6366 247.398 26.663C246.447 26.6933 246.107 26.5573 245.846 26.0475L245.718 25.7944L245.639 26.0739C245.484 26.6215 245.302 26.7612 244.823 26.7121C244.701 26.6875 244.575 26.6917 244.455 26.7245C244.335 26.7573 244.224 26.8177 244.132 26.901C244.011 27.0067 243.984 27.0143 243.867 26.9614C243.75 26.9085 243.731 26.9085 243.618 27.0369C243.531 27.1379 243.407 27.2003 243.274 27.2106C242.995 27.2597 242.897 27.3844 242.799 27.728C242.644 28.3738 242.323 28.2114 242.043 27.3504C241.715 26.3836 241.987 25.6811 243.093 24.6199C243.663 24.0761 243.898 23.7664 243.999 23.4416C244.075 23.1886 244.086 23.1773 244.181 23.2452C244.673 23.6801 245.136 24.1469 245.567 24.6426C246.028 25.1751 246.145 25.2657 246.209 25.1373C246.273 25.0089 245.873 24.5255 245.227 23.8608C243.622 22.2142 241.756 21.2776 239.77 21.1266C238.967 21.0402 238.155 21.1584 237.409 21.4702C236.894 21.618 236.402 21.8339 235.944 22.1123C235.078 22.6474 234.258 23.2538 233.493 23.925C232.526 24.7445 232.526 24.7445 231.269 24.7219C230.759 24.7219 230.136 24.7219 229.924 24.7219C229.417 24.7691 228.925 24.9195 228.478 25.1637C227.928 25.5834 227.454 26.0943 227.077 26.6744C226.66 27.3287 226.117 27.8936 225.479 28.3361C224.992 28.6533 224.807 28.8535 224.75 29.114C224.723 29.2015 224.721 29.2947 224.743 29.3834C224.766 29.472 224.813 29.5527 224.879 29.6163C225.351 29.8437 225.853 30.0015 226.37 30.0846C226.51 30.1091 226.646 30.1471 226.778 30.1979C226.835 30.2432 226.14 30.9532 225.611 31.3762C224.464 32.257 223.215 32.9962 221.891 33.578C221.151 33.8984 220.452 34.3081 219.81 34.7978C219.501 35.0244 219.055 35.3303 218.791 35.4776C217.692 36.1234 216.525 36.1951 216.147 35.64C216.09 35.5506 216.019 35.4715 215.936 35.4058C215.763 35.2721 215.623 35.1004 215.527 34.9038C215.432 34.7073 215.383 34.4914 215.384 34.2729C215.375 33.9828 215.345 33.6937 215.294 33.408C215.094 32.4291 215.073 31.4221 215.233 30.4358C215.513 28.7099 216.427 26.3269 217.711 23.9703C218.56 22.4144 219.437 21.1417 221.54 18.415C222.839 16.7306 222.851 16.7118 222.862 16.1075C222.862 15.9715 222.813 15.1331 222.745 14.2419C222.537 11.4623 222.632 10.352 223.164 9.33232C223.474 8.81115 224.089 8.31264 224.535 8.27488C224.788 8.25599 224.841 8.36551 224.913 9.07173C224.97 10.0458 225.159 11.0076 225.475 11.9306C225.796 12.8861 225.981 13.2335 226.359 13.6036C226.876 14.1097 227.114 14.1588 228.429 13.9813C233.032 13.4035 236.359 13.7585 239.09 15.1143C241.624 16.3681 244.169 18.8153 246.416 22.15L246.843 22.7845L247.304 22.9393C248.33 23.2325 249.225 23.8666 249.842 24.737C250.232 25.4185 250.472 26.1757 250.544 26.9576C250.59 27.694 250.544 28.0302 250.344 28.0906C250.31 28.0959 250.274 28.0912 250.242 28.0772C250.21 28.0632 250.182 28.0403 250.163 28.0113L250.144 28.0339ZM249.744 26.5951C249.689 26.3654 249.616 26.1406 249.525 25.9228C249.21 25.0467 248.563 24.3301 247.723 23.9288C247.025 23.5511 245.869 23.2188 245.608 23.3094C245.51 23.3434 245.51 23.3623 245.608 23.57C245.75 23.8128 245.913 24.0428 246.095 24.2574C246.277 24.4708 246.44 24.6995 246.583 24.9409C246.673 25.1335 246.677 25.1826 246.605 25.3186C246.534 25.4545 246.364 25.5754 246.099 25.5187C245.99 25.4961 245.895 25.4885 245.888 25.5187C245.9 25.5954 245.929 25.6687 245.971 25.734C246.171 26.1117 246.45 26.1834 247.414 26.1494C248.822 26.0928 249.143 26.1796 249.551 26.7121C249.638 26.8254 249.759 26.7575 249.744 26.5988V26.5951ZM218.632 35.1301C218.946 34.9469 219.249 34.7478 219.542 34.5334C220.338 33.9703 221.179 33.4751 222.058 33.053C223.095 32.555 224.091 31.9727 225.033 31.312C225.472 30.9872 225.849 30.636 225.827 30.5567C225.699 30.4986 225.565 30.4579 225.426 30.4358C225.105 30.3484 224.793 30.2321 224.493 30.0884C224.304 29.9876 224.106 29.9054 223.901 29.8429C223.628 30.045 223.402 30.3024 223.236 30.5982C222.397 31.7954 222.061 32.1089 220.411 33.0719C219.87 33.3409 219.386 33.713 218.987 34.1671C218.746 34.5103 218.441 34.8039 218.088 35.0319C217.867 35.1718 217.631 35.2882 217.386 35.3794C216.876 35.5531 216.872 35.7306 217.386 35.6513C217.829 35.5498 218.252 35.3777 218.64 35.1415L218.632 35.1301ZM242.848 26.8217C242.904 26.7207 242.976 26.63 243.063 26.5535L243.24 26.3911H243.735C244.354 26.3722 245.098 26.1457 245.246 25.9342L245.461 25.6283C245.537 25.5225 245.627 25.4508 245.684 25.4508C245.74 25.4508 245.778 25.4508 245.778 25.4508C245.778 25.4508 244.54 24.061 244.441 23.9854L244.324 23.8948L244.147 24.1705C244.049 24.3216 243.69 24.771 243.354 25.1713C242.489 26.1947 242.258 26.6442 242.455 26.9425C242.512 27.0294 242.557 27.0445 242.666 27.0067C242.743 26.9807 242.806 26.9267 242.844 26.8556L242.848 26.8217ZM221.4 30.9759C221.483 30.8974 221.55 30.8038 221.597 30.7002C221.687 30.2923 220.883 30.602 220.777 31.0174C220.751 31.127 220.777 31.1496 220.849 31.1949C220.921 31.2403 221.189 31.1949 221.397 30.9759H221.4ZM222.575 29.3935C222.949 29.1435 223.304 28.8657 223.636 28.5627C223.927 28.2373 224.109 27.8294 224.157 27.3957C224.188 27.1942 224.248 26.9983 224.335 26.8141C224.396 26.719 224.431 26.6097 224.437 26.4969C224.308 26.1192 222.949 26.3874 222.201 26.9387C221.295 27.6072 220.69 28.9743 220.917 29.7674C221.064 30.2546 221.336 30.1866 222.564 29.3671L222.575 29.3935ZM242.047 21.1152C241.814 20.8861 241.541 20.7007 241.243 20.5676C240.573 20.2777 239.849 20.136 239.12 20.1522C238.531 20.1296 238.278 20.0842 238.244 19.9861C238.247 19.9263 238.263 19.8681 238.293 19.8161C238.474 19.4384 239.898 19.344 241.016 19.6122C241.504 19.734 241.981 19.8996 242.44 20.1069C242.791 20.2655 242.84 20.2768 242.817 20.1824C242.585 19.8619 242.291 19.5909 241.953 19.3856C240.776 18.6295 239.38 18.2867 237.987 18.4112C236.977 18.4461 235.997 18.7598 235.155 19.3176C234.353 19.9621 233.693 20.7658 233.217 21.678C232.821 22.4473 232.372 23.188 231.873 23.8948C231.769 24.0028 231.689 24.1315 231.639 24.2725C231.755 24.3089 231.877 24.3217 231.998 24.3102H232.322L232.93 23.7324C233.908 22.7583 235.023 21.9314 236.239 21.2776C237.85 20.5813 239.659 20.4888 241.333 21.0171C241.896 21.1757 242.089 21.2021 242.047 21.1228V21.1152ZM230.257 29.6994C228.708 30.0311 227.102 29.987 225.574 29.571C225.245 29.4766 225.139 29.4237 225.09 29.318C224.969 29.0574 225.162 28.8157 225.777 28.4494C226.321 28.1284 226.642 27.7998 227.318 26.8745C228.232 25.6283 228.64 25.2733 229.437 25.0542C229.815 24.9523 230.06 24.9334 231.408 24.9296C233.429 24.9296 235.589 24.9523 235.767 24.9976C236.171 25.0958 235.861 26.0701 235.151 26.935C234.537 27.6511 233.799 28.2499 232.972 28.7024C232.098 29.1143 231.189 29.4479 230.257 29.6994ZM216.374 25.9795C216.291 25.8096 216.228 25.631 216.185 25.447C215.897 24.2644 216.049 23.0176 216.612 21.9385C216.792 21.5879 217.051 21.2831 217.367 21.0473C217.526 20.9944 217.684 21.1266 217.964 21.5571C218.08 21.7474 218.221 21.9213 218.383 22.0745C218.466 22.1311 218.53 22.1878 218.523 22.1991L218.145 22.7694C217.607 23.6184 217.125 24.5014 216.702 25.413C216.468 25.9379 216.408 26.0324 216.355 25.9682L216.374 25.9795Z" fill="#050505"/>
    </g>
    <rect width="91.8691" height="61.2461" transform="translate(279.242 0.618652)" fill="white"/>
    <g clip-path="url(#clip3_8130_78778)">
        <path d="M296.051 24.886V27.1906H296.124C296.592 26.2866 297.318 25.5422 298.21 25.0524C299.114 24.5885 300.119 24.3553 301.136 24.3736C302.745 24.3736 303.983 24.8125 304.849 25.6905C305.714 26.5684 306.147 27.995 306.147 29.9703V44.5662H301.098V30.9947C301.098 29.9704 300.927 29.2577 300.586 28.8565C300.373 28.6402 300.115 28.4739 299.83 28.3695C299.546 28.2651 299.241 28.2252 298.939 28.2529C297.159 28.2529 296.269 29.3381 296.269 31.5087V44.567H291.223V24.886H296.051Z" fill="#728E9B"/>
        <path d="M314.588 18.1543H309.539V22.4708H314.588V18.1543Z" fill="#728E9B"/>
        <path d="M314.588 24.8853H309.539V44.5659H314.588V24.8853Z" fill="#728E9B"/>
        <path d="M348.898 44.8509C347.6 44.8509 346.315 44.5953 345.116 44.0986C343.917 43.602 342.828 42.874 341.91 41.9563C340.992 41.0386 340.264 39.9491 339.768 38.7501C339.271 37.5511 339.016 36.266 339.016 34.9682C339.016 30.2718 342.697 25.7663 345.215 22.4799C346.576 20.7133 347.774 18.8271 348.796 16.8446C348.805 16.8254 348.82 16.8093 348.838 16.798C348.856 16.7867 348.877 16.7808 348.898 16.7808C348.92 16.7808 348.941 16.7867 348.959 16.798C348.977 16.8093 348.992 16.8254 349.001 16.8446C350.022 18.8273 351.221 20.7136 352.582 22.4803C355.1 25.7666 358.782 30.2695 358.782 34.9686H352.751C352.689 34.9686 352.63 34.993 352.587 35.0366C352.543 35.0801 352.519 35.1392 352.519 35.2007V38.5898H349.13C349.069 38.5898 349.01 38.6142 348.966 38.6578C348.923 38.7013 348.898 38.7604 348.898 38.8219V44.8509H348.898Z" fill="#728E9B"/>
        <path d="M352.761 42.4514V39.2246H349.765C349.735 39.2246 349.705 39.2306 349.677 39.2423C349.648 39.2539 349.623 39.271 349.601 39.2926C349.58 39.3142 349.563 39.3398 349.551 39.3679C349.539 39.3961 349.533 39.4263 349.533 39.4568V42.4518L352.761 42.4514Z" fill="#728E9B"/>
        <path d="M349.534 45.6751C350.637 45.6546 351.729 45.4447 352.761 45.0546V43.4292H349.765C349.735 43.4292 349.705 43.4352 349.677 43.4469C349.648 43.4585 349.623 43.4756 349.601 43.4972C349.58 43.5188 349.563 43.5443 349.551 43.5725C349.539 43.6007 349.533 43.6309 349.533 43.6613L349.534 45.6751Z" fill="#728E9B"/>
        <path d="M356.381 38.8303V35.6035H353.386C353.325 35.6035 353.266 35.628 353.222 35.6715C353.179 35.715 353.154 35.7741 353.154 35.8357V38.8303H356.381H356.381Z" fill="#728E9B"/>
        <path d="M356.768 42.8409L356.772 42.8371C356.897 42.7094 356.967 42.5373 356.966 42.3583V39.8081H353.738V43.0357H356.288C356.468 43.0369 356.64 42.9669 356.768 42.8409Z" fill="#728E9B"/>
        <path d="M353.957 45.7014C354.819 45.3312 355.623 44.8371 356.343 44.2349H353.957V45.7014Z" fill="#728E9B"/>
        <path d="M358.983 38.8303C359.374 37.7983 359.584 36.7068 359.604 35.6035H357.359V38.8303H358.983Z" fill="#728E9B"/>
        <path d="M358.162 42.4137C358.764 41.6939 359.258 40.8899 359.628 40.0273H358.162V42.4137Z" fill="#728E9B"/>
        <path d="M358.162 42.4137C358.764 41.6939 359.258 40.8899 359.628 40.0273H358.162V42.4137Z" fill="#728E9B"/>
        <path d="M292.495 18.6245L293.404 22.0609H292.682L292.523 21.3355H291.607L291.448 22.0609H290.729L291.638 18.6245H292.495ZM292.404 20.7662L292.071 19.2213H292.062L291.73 20.7662H292.404Z" fill="#B9C6CD"/>
        <path d="M295.016 18.6245C295.169 18.6196 295.321 18.6501 295.461 18.7135C295.575 18.7677 295.675 18.8477 295.752 18.9472C295.827 19.0451 295.881 19.1572 295.911 19.2767C295.943 19.4001 295.959 19.5272 295.959 19.6547C295.963 19.8123 295.936 19.9692 295.88 20.1167C295.833 20.2401 295.757 20.3505 295.658 20.439C295.559 20.5254 295.441 20.5894 295.315 20.6268C295.169 20.6699 295.018 20.6908 294.867 20.689H294.496V22.0609H293.803V18.6245H295.016ZM294.804 20.1789C294.865 20.1815 294.926 20.1718 294.984 20.1502C295.041 20.1287 295.094 20.0959 295.138 20.0537C295.185 20.0006 295.22 19.9387 295.242 19.8717C295.264 19.8048 295.272 19.7341 295.266 19.6639C295.276 19.5235 295.237 19.384 295.156 19.2691C295.108 19.2202 295.05 19.1827 294.986 19.1594C294.922 19.136 294.853 19.1275 294.785 19.1343H294.497V20.1786L294.804 20.1789Z" fill="#B9C6CD"/>
        <path d="M297.675 18.6245L298.585 22.0609H297.862L297.703 21.3355H296.787L296.628 22.0609H295.908L296.818 18.6245H297.675ZM297.584 20.7662L297.252 19.2213H297.242L296.91 20.7662H297.584Z" fill="#B9C6CD"/>
        <path d="M300.295 19.2382C300.264 19.1809 300.216 19.1342 300.158 19.1038C300.101 19.0734 300.035 19.0606 299.97 19.0671C299.893 19.0641 299.817 19.0889 299.756 19.137C299.691 19.198 299.645 19.2765 299.624 19.363C299.586 19.4965 299.564 19.6336 299.556 19.7719C299.543 19.9404 299.537 20.1466 299.537 20.3905C299.535 20.6011 299.543 20.8116 299.563 21.0213C299.573 21.1488 299.601 21.2743 299.645 21.3943C299.67 21.4676 299.719 21.5303 299.784 21.5722C299.844 21.6037 299.912 21.6195 299.979 21.6181C300.038 21.6184 300.096 21.6078 300.15 21.5867C300.209 21.5611 300.257 21.5171 300.288 21.4615C300.333 21.3792 300.364 21.2897 300.379 21.1969C300.404 21.0484 300.416 20.8978 300.413 20.7471H301.106C301.107 20.9244 301.092 21.1015 301.063 21.2763C301.038 21.4314 300.983 21.5802 300.901 21.7143C300.821 21.8414 300.705 21.9432 300.569 22.0079C300.394 22.0849 300.204 22.1211 300.013 22.1137C299.799 22.1234 299.586 22.0804 299.393 21.9884C299.24 21.907 299.117 21.781 299.039 21.6272C298.951 21.4509 298.897 21.26 298.88 21.064C298.855 20.8242 298.843 20.5831 298.844 20.342C298.843 20.1017 298.855 19.8616 298.88 19.6226C298.897 19.4259 298.951 19.2342 299.039 19.0572C299.118 18.9024 299.241 18.7744 299.393 18.6891C299.585 18.5922 299.798 18.5466 300.013 18.5566C300.215 18.5468 300.417 18.5881 300.598 18.6769C300.731 18.7474 300.842 18.853 300.919 18.9823C300.989 19.1053 301.034 19.2411 301.051 19.3817C301.068 19.5149 301.077 19.6491 301.078 19.7834H300.384C300.396 19.5973 300.365 19.411 300.295 19.2382Z" fill="#B9C6CD"/>
        <path d="M302.351 18.6245V19.9384H303.16V18.6245H303.853V22.0609H303.16V20.5336H302.351V22.0609H301.658V18.6245H302.351Z" fill="#B9C6CD"/>
        <path d="M306.415 19.1927H305.187V20.0014H306.342V20.5691H305.187V21.4931H306.462V22.0609H304.494V18.6245H306.414L306.415 19.1927Z" fill="#B9C6CD"/>
        <path d="M317.039 28.3238V24.8851H319.6V22.6541C319.579 21.8939 319.704 21.1367 319.965 20.4227C320.18 19.8531 320.54 19.349 321.008 18.9596C321.496 18.5759 322.065 18.307 322.672 18.173C323.392 18.0078 324.128 17.9281 324.867 17.9355C325.769 17.9355 326.671 17.9721 327.574 18.0451V21.63C327.404 21.6016 327.233 21.5888 327.062 21.5919H326.586C326.059 21.5431 325.531 21.6719 325.086 21.9577C324.927 22.1133 324.806 22.3025 324.73 22.5114C324.654 22.7202 324.625 22.9434 324.647 23.1646V24.8828H327.574V28.3219H324.647V44.5654H319.599V28.3238H317.039Z" fill="#B9C6CD"/>
        <path d="M335.622 18.1543H330.574V22.4708H335.622V18.1543Z" fill="#B9C6CD"/>
        <path d="M335.622 24.8853H330.574V44.5659H335.622V24.8853Z" fill="#B9C6CD"/>
        <path d="M346.725 21.5666C346.543 21.8213 346.363 22.0778 346.18 22.3302C345.601 23.129 344.991 23.9045 344.395 24.6899C344.628 24.7222 344.863 24.7581 345.098 24.7976C345.595 23.964 346.103 23.1359 346.58 22.2901C346.714 22.0534 346.845 21.8144 346.977 21.5761C347.081 21.3894 346.839 21.4081 346.725 21.5666Z" fill="#B9C6CD"/>
        <path d="M344.369 26.0436C344.457 25.8909 344.548 25.7381 344.637 25.5827C344.369 25.5308 344.102 25.4827 343.835 25.4399H343.832C342.986 26.5729 342.213 27.759 341.518 28.9909C340.276 31.2436 339.414 33.7618 339.81 36.3601C340.147 38.5203 341.239 40.4912 342.891 41.9228C343.242 42.2265 343.616 42.5029 344.01 42.7495C344.035 42.7649 344.064 42.7706 344.093 42.7655C344.122 42.7604 344.148 42.7448 344.166 42.7217C344.184 42.6987 344.193 42.6698 344.191 42.6406C344.189 42.6114 344.176 42.584 344.155 42.5635C342.876 41.3281 341.953 39.7712 341.482 38.0561C340.743 35.3284 341.358 32.5331 342.411 29.9748C342.981 28.6247 343.635 27.3118 344.369 26.0436Z" fill="#B9C6CD"/>
    </g>
    <rect width="91.8691" height="61.2461" transform="translate(372.068 0.618652)" fill="white"/>
    <g clip-path="url(#clip4_8130_78778)">
        <path d="M388.697 24.3407C388.028 23.5415 387.443 22.7284 387.339 22.5596C387.337 22.5567 387.334 22.5543 387.33 22.5527C387.326 22.5511 387.323 22.5503 387.319 22.5503C387.315 22.5503 387.311 22.5511 387.307 22.5527C387.304 22.5543 387.301 22.5567 387.298 22.5596C387.177 22.7284 386.609 23.5415 385.92 24.3407C380.105 31.7236 386.816 36.7052 386.816 36.7052L386.874 36.7431C386.923 37.5113 387.05 38.6206 387.05 38.6206H387.55C387.55 38.6206 387.674 37.5182 387.722 36.7431L387.78 36.7017C387.78 36.7017 394.485 31.7236 388.697 24.3407ZM387.298 36.5811C387.159 36.4637 387.031 36.3333 386.916 36.1918L387.281 28.151C387.281 28.1464 387.283 28.1421 387.286 28.1388C387.289 28.1356 387.293 28.1338 387.298 28.1338C387.303 28.1338 387.307 28.1356 387.31 28.1388C387.313 28.1421 387.315 28.1464 387.315 28.151L387.684 36.1953C387.568 36.3357 387.438 36.4649 387.298 36.5811Z" fill="#001E2B"/>
        <path d="M399.839 34.9522L397.045 28.1344V28.1172H394.868V28.5754H395.213C395.265 28.5749 395.316 28.585 395.364 28.6052C395.412 28.6253 395.456 28.655 395.492 28.6925C395.528 28.7297 395.557 28.7738 395.577 28.8223C395.597 28.8708 395.606 28.9227 395.605 28.975L395.543 35.8376C395.543 35.9405 395.503 36.0391 395.431 36.1134C395.36 36.1877 395.264 36.232 395.161 36.2373H394.816V36.6886H396.932V36.2373H396.711C396.608 36.2337 396.511 36.1905 396.439 36.1167C396.367 36.0429 396.326 35.9441 396.325 35.8411V29.3712L399.367 36.692C399.388 36.7436 399.423 36.788 399.469 36.8192C399.514 36.8505 399.569 36.8672 399.624 36.8672C399.679 36.8672 399.734 36.8505 399.779 36.8192C399.825 36.788 399.86 36.7436 399.881 36.692L402.843 29.5331L402.888 35.8376C402.887 35.9416 402.846 36.0412 402.774 36.1157C402.701 36.1902 402.603 36.2337 402.499 36.2373H402.275V36.6886H404.752V36.2373H404.408C404.304 36.2338 404.205 36.1908 404.132 36.1172C404.059 36.0435 404.017 35.9448 404.015 35.8411L403.994 28.9785C403.994 28.8739 404.035 28.7734 404.107 28.6982C404.18 28.623 404.279 28.579 404.383 28.5754H404.745V28.1172H402.63L399.839 34.9522Z" fill="#001E2B"/>
        <path d="M419.307 36.1199C419.271 36.0836 419.244 36.0404 419.225 35.993C419.207 35.9457 419.198 35.895 419.2 35.8443V32.4715C419.216 32.1956 419.174 31.9194 419.077 31.6607C418.979 31.402 418.829 31.1666 418.635 30.9695C418.218 30.5942 417.669 30.3997 417.109 30.4286C416.695 30.4134 416.285 30.5049 415.917 30.6944C415.549 30.8838 415.235 31.1648 415.007 31.5104C415.002 31.5173 414.996 31.5228 414.988 31.5264C414.98 31.53 414.971 31.5316 414.963 31.531C414.958 31.531 414.954 31.5301 414.95 31.5284C414.946 31.5266 414.942 31.524 414.939 31.5208C414.937 31.5175 414.934 31.5137 414.933 31.5095C414.932 31.5053 414.931 31.5009 414.932 31.4966L414.697 30.5974H414.312L413.312 31.1727V31.4862H413.571C413.674 31.4809 413.776 31.514 413.857 31.5793C413.894 31.617 413.923 31.6624 413.942 31.7124C413.96 31.7623 413.968 31.8156 413.964 31.8686V35.8374C413.965 35.8887 413.957 35.9398 413.938 35.9877C413.92 36.0356 413.892 36.0794 413.857 36.1164C413.82 36.152 413.777 36.1797 413.73 36.1981C413.683 36.2164 413.632 36.225 413.581 36.2232H413.33V36.6814H415.628V36.237H415.376C415.325 36.2388 415.275 36.2302 415.227 36.2119C415.18 36.1935 415.137 36.1657 415.101 36.1302C415.065 36.0931 415.037 36.0494 415.019 36.0014C415.001 35.9535 414.992 35.9024 414.994 35.8512V33.2088C414.998 32.8671 415.07 32.5296 415.207 32.2166C415.346 31.897 415.567 31.62 415.848 31.4139C416.141 31.2023 416.496 31.0933 416.857 31.1038C417.042 31.0886 417.228 31.1186 417.398 31.1912C417.569 31.2638 417.719 31.3769 417.836 31.5207C418.055 31.8299 418.167 32.2028 418.153 32.5818V35.827C418.156 35.8785 418.148 35.93 418.13 35.9782C418.111 36.0264 418.083 36.0701 418.047 36.1066C418.01 36.143 417.966 36.1713 417.918 36.1897C417.87 36.208 417.818 36.2159 417.767 36.2129H417.519V36.6711H419.813V36.2163H419.562C419.515 36.2205 419.468 36.214 419.423 36.1973C419.379 36.1806 419.339 36.1541 419.307 36.1199Z" fill="#001E2B"/>
        <path d="M440.294 28.6303C439.644 28.2854 438.918 28.1089 438.182 28.117H435.195V28.5717H435.488C435.547 28.5732 435.605 28.5868 435.658 28.6117C435.712 28.6366 435.759 28.6722 435.798 28.7164C435.842 28.7564 435.877 28.8047 435.902 28.8585C435.927 28.9124 435.941 28.9706 435.943 29.0299V35.7685C435.941 35.8272 435.927 35.8849 435.902 35.9381C435.877 35.9914 435.842 36.0391 435.798 36.0786C435.759 36.1228 435.712 36.1584 435.658 36.1833C435.605 36.2082 435.547 36.2218 435.488 36.2233H435.195V36.6815H438.182C438.918 36.6879 439.643 36.5115 440.294 36.1681C440.93 35.827 441.459 35.3152 441.82 34.6902C442.209 33.9928 442.404 33.2042 442.385 32.4061C442.403 31.607 442.208 30.8174 441.82 30.1186C441.459 29.4906 440.931 28.9753 440.294 28.6303ZM441.183 32.3923C441.206 33.0906 441.06 33.7842 440.759 34.4146C440.516 34.9204 440.129 35.3434 439.646 35.6307C439.183 35.8925 438.659 36.028 438.127 36.0234H437.524C437.465 36.0225 437.406 36.0091 437.352 35.9842C437.298 35.9593 437.25 35.9234 437.211 35.8788C437.167 35.8387 437.132 35.7903 437.108 35.7365C437.084 35.6826 437.071 35.6243 437.069 35.5652V29.2125C437.07 29.1533 437.083 29.0948 437.107 29.0408C437.131 28.9868 437.167 28.9385 437.211 28.899C437.25 28.8549 437.299 28.8193 437.353 28.7944C437.406 28.7695 437.465 28.7559 437.524 28.7543H438.127C438.659 28.7498 439.183 28.8852 439.646 29.147C440.131 29.439 440.518 29.8682 440.759 30.3804C441.056 31.0085 441.201 31.6977 441.183 32.3923Z" fill="#001E2B"/>
        <path d="M449.449 32.8505C449.055 32.4631 448.555 32.2027 448.012 32.103C448.88 31.6723 449.325 31.0694 449.325 30.2805C449.331 29.876 449.21 29.4797 448.98 29.1471C448.741 28.8075 448.411 28.5414 448.029 28.3788C447.579 28.1875 447.092 28.0936 446.603 28.1032H443.22V28.558H443.495C443.555 28.5593 443.613 28.5729 443.667 28.5978C443.721 28.6227 443.769 28.6584 443.809 28.7027C443.853 28.7426 443.888 28.7909 443.913 28.8448C443.938 28.8986 443.952 28.9569 443.954 29.0162V35.7685C443.947 35.8887 443.896 36.0023 443.812 36.0884C443.728 36.1745 443.616 36.2273 443.495 36.2371H443.199V36.6953H446.872C447.402 36.7014 447.928 36.6055 448.422 36.4128C448.865 36.2484 449.252 35.9617 449.538 35.5859C449.819 35.2046 449.965 34.7401 449.952 34.2665C449.965 33.7484 449.786 33.2437 449.449 32.8505ZM445.239 35.8926C445.195 35.8526 445.16 35.8043 445.135 35.7504C445.11 35.6966 445.096 35.6383 445.094 35.5791V32.5474H446.841C447.354 32.5126 447.861 32.6822 448.25 33.0194C448.413 33.1767 448.541 33.3666 448.626 33.5767C448.711 33.7868 448.75 34.0125 448.742 34.2389C448.741 34.54 448.668 34.8364 448.529 35.1036C448.381 35.3829 448.156 35.6137 447.881 35.7685C447.566 35.9449 447.209 36.033 446.848 36.0235H445.563C445.503 36.0245 445.443 36.0134 445.387 35.9909C445.332 35.9684 445.281 35.935 445.239 35.8926ZM445.101 31.91V29.2229C445.11 29.1033 445.161 28.9909 445.246 28.9062C445.331 28.8214 445.443 28.77 445.563 28.7612H446.389C446.626 28.7409 446.865 28.7692 447.091 28.8445C447.317 28.9197 447.525 29.0403 447.702 29.1987C447.984 29.5073 448.132 29.9146 448.115 30.3322C448.135 30.75 447.996 31.1597 447.726 31.4794C447.574 31.6283 447.391 31.7432 447.191 31.8162C446.991 31.8893 446.778 31.9189 446.565 31.9031L445.101 31.91Z" fill="#001E2B"/>
        <path d="M410.561 30.8282C410.072 30.5617 409.523 30.4242 408.966 30.4286C408.41 30.4204 407.861 30.5582 407.375 30.8282C406.898 31.0904 406.504 31.4791 406.234 31.9513C405.956 32.4625 405.811 33.0351 405.811 33.617C405.811 34.1989 405.956 34.7715 406.234 35.2827C406.503 35.7557 406.897 36.1446 407.375 36.4058C407.863 36.6719 408.41 36.8094 408.966 36.8054C409.524 36.8141 410.074 36.6763 410.561 36.4058C411.038 36.1446 411.433 35.7557 411.702 35.2827C411.98 34.7715 412.125 34.1989 412.125 33.617C412.125 33.0351 411.98 32.4625 411.702 31.9513C411.432 31.4791 411.037 31.0904 410.561 30.8282ZM411.023 33.6187C411.059 34.279 410.86 34.9307 410.461 35.4584C410.275 35.6718 410.046 35.8428 409.788 35.96C409.531 36.0773 409.251 36.1379 408.968 36.1379C408.685 36.1379 408.405 36.0773 408.147 35.96C407.89 35.8428 407.66 35.6718 407.474 35.4584C407.076 34.9307 406.877 34.279 406.913 33.6187C406.877 32.9574 407.076 32.3046 407.474 31.7756C407.66 31.5622 407.89 31.3912 408.147 31.274C408.405 31.1567 408.685 31.0961 408.968 31.0961C409.251 31.0961 409.531 31.1567 409.788 31.274C410.046 31.3912 410.275 31.5622 410.461 31.7756C410.86 32.3046 411.059 32.9574 411.023 33.6187Z" fill="#001E2B"/>
        <path d="M432.634 30.8282C432.145 30.5621 431.596 30.4246 431.039 30.4285C430.482 30.4209 429.932 30.5586 429.444 30.8282C428.968 31.0912 428.574 31.4797 428.304 31.9513C428.018 32.4597 427.873 33.0354 427.883 33.6187C427.872 34.2009 428.018 34.7754 428.304 35.2827C428.573 35.7549 428.968 36.1435 429.444 36.4058C429.933 36.6718 430.482 36.8093 431.039 36.8054C431.596 36.8131 432.146 36.6753 432.634 36.4058C433.11 36.1435 433.505 35.7549 433.774 35.2827C434.052 34.7715 434.198 34.1988 434.198 33.617C434.198 33.0351 434.052 32.4624 433.774 31.9513C433.502 31.4812 433.108 31.0932 432.634 30.8282ZM433.096 33.6187C433.13 34.2788 432.931 34.93 432.534 35.4584C432.348 35.6713 432.118 35.842 431.86 35.9589C431.602 36.0758 431.322 36.1363 431.039 36.1363C430.756 36.1363 430.476 36.0758 430.218 35.9589C429.96 35.842 429.73 35.6713 429.544 35.4584C429.147 34.93 428.948 34.2788 428.982 33.6187C428.947 32.9574 429.146 32.3049 429.544 31.7756C429.73 31.5626 429.96 31.392 430.218 31.275C430.476 31.1581 430.756 31.0977 431.039 31.0977C431.322 31.0977 431.602 31.1581 431.86 31.275C432.118 31.392 432.348 31.5626 432.534 31.7756C432.93 32.3061 433.128 32.9577 433.096 33.6187Z" fill="#001E2B"/>
        <path d="M423.732 30.4285C423.254 30.4223 422.781 30.5322 422.354 30.7489C421.957 30.9456 421.621 31.247 421.382 31.6205C421.155 31.9798 421.035 32.3973 421.038 32.8228C421.033 33.1966 421.127 33.565 421.31 33.8908C421.488 34.1986 421.731 34.4633 422.023 34.6659L421.124 35.8924C421.07 35.9655 421.037 36.0521 421.029 36.1427C421.022 36.2333 421.039 36.3242 421.08 36.4055C421.12 36.4869 421.183 36.5553 421.26 36.6034C421.337 36.6515 421.426 36.6772 421.517 36.6779H421.792C421.547 36.8261 421.34 37.0289 421.186 37.2704C421.029 37.5227 420.944 37.8136 420.941 38.111C420.939 38.3725 421.003 38.6303 421.127 38.8605C421.251 39.0906 421.431 39.2855 421.651 39.427C422.228 39.7927 422.905 39.9685 423.587 39.93C424.137 39.9322 424.682 39.839 425.2 39.6544C425.666 39.4961 426.084 39.2196 426.412 38.8517C426.718 38.5011 426.883 38.0492 426.874 37.5839C426.88 37.3429 426.826 37.1042 426.717 36.8894C426.607 36.6746 426.446 36.4906 426.247 36.354C425.746 36.0203 425.15 35.8583 424.548 35.8924H422.027C422.027 35.8924 422.027 35.8924 422.027 35.8717L422.678 34.9932C422.832 35.0661 422.994 35.1215 423.16 35.1586C423.328 35.1893 423.499 35.2032 423.67 35.1999C424.161 35.2098 424.646 35.101 425.086 34.883C425.486 34.6856 425.826 34.3846 426.071 34.0114C426.302 33.6519 426.422 33.2326 426.416 32.8056C426.41 32.4731 426.333 32.1457 426.189 31.846C426.045 31.5463 425.838 31.2813 425.582 31.0693L426.929 31.2174V30.5973H424.772C424.436 30.4885 424.085 30.4316 423.732 30.4285ZM424.486 34.3524C424.255 34.4787 423.996 34.5462 423.732 34.5488C423.32 34.5513 422.923 34.3903 422.63 34.1009C422.466 33.9328 422.339 33.7321 422.258 33.5119C422.177 33.2918 422.142 33.057 422.158 32.8228C422.142 32.5886 422.177 32.3538 422.258 32.1337C422.339 31.9135 422.466 31.7129 422.63 31.5447C422.799 31.3773 423.005 31.251 423.231 31.1754C423.457 31.0999 423.697 31.077 423.933 31.1086C424.169 31.1402 424.395 31.2254 424.593 31.3577C424.791 31.49 424.956 31.6659 425.076 31.872C425.235 32.1629 425.315 32.491 425.306 32.8228C425.32 33.1562 425.24 33.4866 425.076 33.7771C424.937 34.0201 424.733 34.2194 424.486 34.3524ZM422.785 36.6606H424.486C424.66 36.642 424.835 36.6582 425.002 36.7085C425.169 36.7588 425.324 36.8421 425.458 36.9535C425.558 37.0579 425.636 37.1811 425.687 37.316C425.738 37.4509 425.763 37.5947 425.758 37.739C425.763 37.9549 425.716 38.169 425.621 38.3631C425.526 38.5573 425.387 38.726 425.213 38.8552C424.789 39.1554 424.276 39.3046 423.756 39.2789C423.302 39.2996 422.854 39.1792 422.471 38.9344C422.312 38.8204 422.185 38.6681 422.1 38.4916C422.016 38.3152 421.978 38.1202 421.989 37.925C421.987 37.6553 422.066 37.3912 422.216 37.1671C422.356 36.9494 422.552 36.7742 422.785 36.6606Z" fill="#001E2B"/>
        <path d="M451.222 36.5816C451.103 36.513 451.003 36.4145 450.933 36.2957C450.863 36.1765 450.826 36.041 450.826 35.903C450.826 35.7648 450.863 35.6292 450.933 35.5102C450.999 35.3892 451.1 35.2908 451.222 35.2277C451.35 35.1578 451.494 35.1211 451.639 35.1211C451.785 35.1211 451.928 35.1578 452.056 35.2277C452.176 35.2941 452.276 35.3917 452.345 35.5102C452.413 35.6264 452.45 35.7581 452.452 35.8926C452.452 36.0307 452.416 36.1664 452.345 36.2854C452.28 36.4076 452.179 36.5073 452.056 36.5713C451.928 36.6397 451.785 36.6752 451.639 36.6747C451.494 36.6809 451.351 36.6488 451.222 36.5816ZM451.987 36.4955C452.086 36.4366 452.169 36.3537 452.228 36.2544C452.285 36.1483 452.314 36.03 452.314 35.9098C452.313 35.7898 452.284 35.6717 452.228 35.5653C452.174 35.4636 452.09 35.3807 451.987 35.3276C451.881 35.2724 451.763 35.2435 451.643 35.2435C451.523 35.2435 451.405 35.2724 451.298 35.3276C451.199 35.3847 451.116 35.4666 451.057 35.5653C451.001 35.6717 450.972 35.7898 450.971 35.9098C450.971 36.03 451.001 36.1483 451.057 36.2544C451.112 36.3563 451.196 36.44 451.298 36.4955C451.404 36.552 451.523 36.5816 451.643 36.5816C451.763 36.5814 451.882 36.5506 451.987 36.4921V36.4955ZM451.298 36.2785V36.2371H451.336C451.346 36.2396 451.357 36.2396 451.367 36.2371C451.369 36.2323 451.371 36.227 451.371 36.2216C451.371 36.2162 451.369 36.2109 451.367 36.2061V35.5998C451.369 35.5949 451.37 35.5896 451.37 35.5843C451.37 35.5789 451.369 35.5737 451.367 35.5688C451.362 35.5661 451.357 35.5646 451.352 35.5646C451.346 35.5646 451.341 35.5661 451.336 35.5688H451.298V35.5137H451.622C451.699 35.5094 451.776 35.5312 451.839 35.5757C451.865 35.596 451.886 35.6222 451.9 35.6522C451.913 35.6821 451.92 35.715 451.918 35.7479C451.919 35.7757 451.914 35.8033 451.904 35.8289C451.893 35.8545 451.877 35.8774 451.856 35.8961C451.816 35.9399 451.761 35.9669 451.701 35.9719L451.777 35.996L451.918 36.2234C451.923 36.2307 451.93 36.2367 451.938 36.2409C451.946 36.2451 451.954 36.2473 451.963 36.2475H452.001V36.3026H451.808L451.608 35.9581H451.557V36.182C451.553 36.1921 451.553 36.2029 451.557 36.213C451.566 36.217 451.578 36.217 451.588 36.213H451.625V36.2681H451.281L451.298 36.2785ZM451.615 35.872C451.636 35.8742 451.658 35.8716 451.678 35.8645C451.699 35.8573 451.717 35.8458 451.732 35.8306C451.76 35.7981 451.775 35.7563 451.774 35.7135C451.776 35.6716 451.764 35.63 451.739 35.5963C451.726 35.5814 451.709 35.5696 451.691 35.5619C451.672 35.5541 451.652 35.5506 451.632 35.5516H451.608C451.598 35.5479 451.587 35.5479 451.577 35.5516C451.574 35.5563 451.573 35.5616 451.573 35.5671C451.573 35.5725 451.574 35.5779 451.577 35.5826V35.8582L451.615 35.872Z" fill="#001E2B"/>
    </g>
    <defs>
        <clipPath id="clip0_8130_78778">
            <rect width="68.9018" height="45.3652" fill="white" transform="translate(12.248 8.55908)"/>
        </clipPath>
        <clipPath id="clip1_8130_78778">
            <rect width="51.2305" height="45.9345" fill="white" transform="translate(113.908 8.27441)"/>
        </clipPath>
        <clipPath id="clip2_8130_78778">
            <rect width="59.7266" height="45.9345" fill="white" transform="translate(202.486 8.27441)"/>
        </clipPath>
        <clipPath id="clip3_8130_78778">
            <rect width="68.9018" height="28.9205" fill="white" transform="translate(290.725 16.7817)"/>
        </clipPath>
        <clipPath id="clip4_8130_78778">
            <rect width="68.9018" height="17.57" fill="white" transform="translate(383.551 22.4565)"/>
        </clipPath>
    </defs>
</svg>
