<svg width="465" height="63" viewBox="0 0 465 63" fill="none" xmlns="http://www.w3.org/2000/svg">
    <rect width="91.8691" height="61.2461" transform="translate(0.623047 0.618652)" fill="white"/>
    <g clip-path="url(#clip0_8130_78706)">
        <path d="M56.6366 22.9004L50.3454 24.9463L44.8725 27.3503L43.3381 27.7595C42.9289 28.1175 42.5197 28.5267 42.1105 28.8847C41.6502 29.2939 41.1898 29.7031 40.8318 29.9589C40.4226 30.2657 39.86 30.8284 39.6043 31.1864C39.1951 31.749 38.837 32.3117 38.6836 32.7209C38.4278 33.5392 38.5301 34.3065 39.0416 35.0737C39.7065 36.0455 40.9853 36.9662 42.4686 37.6311C43.2358 37.9891 44.5145 38.3983 45.4863 38.6541C47.0719 39.0632 50.1919 39.5236 51.931 39.5747C52.289 39.5747 52.7494 39.5747 52.7494 39.5747C52.8005 39.5747 53.0562 39.0632 53.3631 38.3983C54.4372 36.2501 55.1533 34.2553 55.6136 32.5163C55.8694 31.4933 56.074 30.0611 56.1763 28.4244C56.2274 27.9641 56.2274 26.4296 56.1763 25.9181C56.1251 25.0486 56.074 24.3837 55.9205 23.6676C55.9205 23.5653 55.9205 23.463 55.9205 23.463C55.9205 23.463 55.9717 23.4119 56.7901 23.2073L56.6366 22.9004ZM55.2045 23.7699C55.2556 23.7699 55.4091 25.2021 55.4602 26.1227C55.4602 26.3273 55.4602 26.4296 55.4602 26.4296C55.4091 26.4296 54.6418 25.9693 54.1304 25.6624C53.67 25.3555 52.7493 24.7417 52.5959 24.6394C52.5448 24.5883 52.5448 24.5883 52.9539 24.486C53.6189 24.2302 55.1533 23.7699 55.2045 23.7699ZM52.0333 24.7929C52.0844 24.7929 52.1867 24.844 52.4425 24.9975C53.4143 25.6113 54.7441 26.3273 55.3068 26.5831C55.4602 26.6342 55.5114 26.6342 55.1022 26.89C54.2326 27.5037 53.1585 28.0664 51.8287 28.629C51.5729 28.7313 51.4195 28.8336 51.4195 28.8336C51.4195 28.8336 51.4195 28.7313 51.4707 28.5778C51.7775 27.4014 51.9821 26.225 51.9821 25.2532C51.9821 24.7929 51.9821 24.7929 52.0333 24.7929ZM51.3683 25.0486C51.4195 25.0998 51.3683 26.1227 51.3172 26.4296C51.2149 27.1457 51.1126 27.7595 50.8569 28.4755C50.8057 28.629 50.7546 28.7824 50.7546 28.7824C50.7546 28.7824 50.0896 28.1687 49.8851 27.9129C49.527 27.5037 49.2201 27.0434 49.0155 26.6342C48.9132 26.4296 48.7598 26.0204 48.7598 25.9693C48.8621 26.0204 51.3683 25.0486 51.3683 25.0486ZM48.2483 26.2762C48.2483 26.2762 48.2995 26.3785 48.3506 26.4296C48.5041 26.8388 48.8621 27.4526 49.1178 27.8618C49.4247 28.271 49.8851 28.7313 50.1919 29.0382C50.2942 29.1405 50.3965 29.2428 50.4477 29.2428C50.4988 29.2939 50.4988 29.2428 49.7316 29.5497C48.8109 29.9077 47.8391 30.2146 46.7139 30.5726C46.4581 30.6749 46.2024 30.7261 45.8955 30.8284C45.8443 30.8284 45.8443 30.8284 45.9978 30.6238C46.5604 29.7543 47.3788 28.0664 47.8903 26.8388C47.9926 26.6342 48.0437 26.4296 48.0437 26.3785C48.0437 26.3273 48.0949 26.2762 48.146 26.2762C48.1972 26.2762 48.2483 26.2762 48.2483 26.2762ZM47.3276 26.6854C47.3276 26.6854 47.1231 27.1968 46.8673 27.6572C46.407 28.5778 45.8955 29.4474 45.2306 30.5215C45.1283 30.7261 45.026 30.8795 44.9748 30.8795C44.9748 30.9307 44.9237 30.8795 44.8725 30.7772C44.7191 30.4703 44.5656 30.0611 44.5145 29.652C44.4633 29.2939 44.4633 28.629 44.5145 28.2198C44.5656 27.9129 44.5656 27.9129 44.7191 27.8618C45.3329 27.5549 47.2765 26.6342 47.3276 26.6854ZM55.5114 26.9923V27.1968C55.5114 28.271 55.4091 29.7031 55.2556 30.7772C55.2045 30.9818 55.2045 31.1353 55.2045 31.1353C55.2045 31.1353 55.051 31.0841 54.8976 31.033C54.1815 30.8284 53.4143 30.4703 52.6982 30.1123C52.2379 29.8566 51.5729 29.4474 51.5729 29.4474C51.5729 29.4474 51.7775 29.3451 52.0333 29.1916C52.9539 28.7313 53.8746 28.1687 54.6418 27.6572C54.9487 27.4526 55.3579 27.1457 55.4602 27.0434L55.5114 26.9923ZM43.7473 28.4244C43.7473 28.4244 43.7473 28.4755 43.7473 28.629C43.7473 28.7313 43.6961 28.987 43.6961 29.1405C43.645 29.8566 43.7473 30.368 44.1053 31.033C44.2076 31.2376 44.2587 31.391 44.2587 31.391C44.2076 31.4422 41.0876 32.3628 40.1157 32.6186C39.8088 32.7209 39.5531 32.772 39.5531 32.772C39.502 32.772 39.502 32.772 39.5531 32.7209C39.6554 32.0048 40.218 31.1353 40.9341 30.368C41.4456 29.8566 41.8036 29.5497 42.5197 29.1916C42.9289 28.8336 43.645 28.4244 43.7473 28.4244C43.6961 28.4244 43.6961 28.4244 43.7473 28.4244ZM51.1126 29.7543C51.1126 29.7543 51.2149 29.8054 51.3683 29.9077C52.3913 30.5215 53.8235 31.033 54.9999 31.3399H55.1022L54.9487 31.4421C54.3349 31.8002 52.2379 32.6697 50.1408 33.4369C49.8339 33.5392 49.527 33.6415 49.4759 33.6927C49.4247 33.6927 49.3736 33.7438 49.3736 33.7438C49.3736 33.7438 49.4759 33.5904 49.5782 33.3858C50.1919 32.2605 50.7546 30.9307 51.0615 29.9589C51.1126 29.8054 51.1126 29.7543 51.1126 29.7543ZM50.3965 29.9589C50.3965 29.9589 50.3454 30.0611 50.2942 30.1634C49.885 31.1864 49.3224 32.2605 48.6575 33.4881C48.5041 33.795 48.3506 34.0507 48.3506 34.0507C48.3506 34.0507 48.1972 33.9484 48.0437 33.8461C47.0207 33.2323 46.1512 32.4651 45.5375 31.749L45.4351 31.6467L45.8443 31.5444C47.3788 31.1353 48.7086 30.6749 49.9873 30.1123C50.2431 30.0611 50.3454 29.9589 50.3965 29.9589ZM55.051 31.5956C55.051 31.6979 54.7953 32.6697 54.5907 33.3858C54.4372 33.9996 54.2838 34.4599 54.0281 35.2783C53.9258 35.6363 53.8235 35.9432 53.8235 35.9432H53.7723C52.3402 35.6875 51.1126 35.3294 49.9362 34.8691C49.6293 34.7156 49.1178 34.511 49.1178 34.511C49.1178 34.511 49.3736 34.3576 49.7316 34.2042C51.8798 33.2835 54.1304 32.2094 54.8976 31.749C54.9999 31.6467 55.051 31.5956 55.051 31.5956ZM44.2587 32.0048C44.2587 32.0048 43.645 32.8743 42.8266 34.0507C42.5197 34.4599 42.2128 34.9714 42.0594 35.1248C41.9059 35.3294 41.7525 35.5852 41.6502 35.7386L41.4456 36.0455L41.241 35.8409C40.9853 35.6363 40.5761 35.176 40.3715 34.9202C39.9623 34.4087 39.7065 33.8973 39.6043 33.3858C39.5531 33.1812 39.5531 33.0277 39.6043 33.0277C39.6554 33.0277 40.9341 32.7209 42.1105 32.414C42.7754 32.2605 43.5427 32.1071 43.7984 32.0048C44.003 32.0559 44.2587 32.0048 44.2587 32.0048ZM44.8214 32.2094L44.9748 32.3628C45.6397 33.13 46.3558 33.6927 47.2253 34.2042C47.3788 34.3065 47.4811 34.3576 47.4811 34.3576C47.4299 34.3576 44.5656 35.4317 43.1846 35.892C42.4174 36.1478 41.8036 36.3524 41.8036 36.3524C41.8036 36.3524 41.7525 36.3012 41.7013 36.3012L41.599 36.2501L41.7525 36.0455C42.2128 35.3806 42.7754 34.7156 44.003 33.2323L44.8214 32.2094ZM48.6575 34.9202C48.6575 34.9202 48.8621 34.9714 49.1178 35.0737C49.7316 35.3294 50.2431 35.4317 50.8569 35.6363C51.6752 35.8409 52.8517 36.0455 53.5166 36.0966C53.6189 36.0966 53.67 36.0966 53.67 36.1478C53.6189 36.1478 52.9539 36.4035 52.4425 36.557C51.6241 36.8127 49.1178 37.5288 47.1231 38.1426C46.765 38.2449 46.407 38.3472 46.407 38.3472C46.3558 38.3472 46.2024 38.296 46.2024 38.296C46.2024 38.296 46.3047 38.1426 46.4581 37.9891C47.123 37.1708 47.8391 36.2501 48.4018 35.3806C48.5041 35.1248 48.6575 34.9202 48.6575 34.9202ZM47.788 34.9714C47.788 34.9714 47.4811 35.534 46.8673 36.4547C46.6116 36.8639 46.3558 37.273 46.2535 37.4265C46.1512 37.5799 45.9978 37.8357 45.9466 37.938L45.7932 38.1937H45.742C45.5886 38.1426 44.361 37.7334 44.0542 37.5799C43.645 37.4265 43.2358 37.2219 42.9289 37.0685C42.5709 36.8639 42.0594 36.557 42.1105 36.557C42.1105 36.557 42.7754 36.3524 43.5427 36.1478C45.6398 35.5852 46.765 35.2783 47.5322 35.0225C47.6857 34.9714 47.788 34.9714 47.788 34.9714ZM53.7212 36.3524C53.7212 36.4035 52.9539 38.5518 52.6982 39.2167C52.6471 39.3701 52.5959 39.4213 52.5959 39.4213C52.4936 39.4213 51.4195 39.2678 50.7034 39.1655C49.527 38.9609 47.5322 38.6541 47.0207 38.5006H46.9184L47.6345 38.3472C49.169 37.9891 49.885 37.8357 50.6011 37.5799C51.5218 37.273 52.4425 36.915 53.4143 36.5058C53.5677 36.4035 53.67 36.3524 53.7212 36.3524Z" fill="url(#paint0_linear_8130_78706)"/>
        <path d="M50.1921 8.27197C50.0898 8.27197 48.4019 8.88575 47.3278 9.29494C45.8445 9.90872 44.7193 10.4714 44.0032 10.9317C43.7474 11.1363 43.3894 11.4432 43.3382 11.5966C43.3382 11.6478 43.2871 11.6989 43.2871 11.7501L43.9009 12.3638L45.4353 12.8242L49.0157 13.4891L53.1587 14.2052L53.2099 13.8471C53.2099 13.8471 53.2099 13.8471 53.1587 13.8471L52.5961 13.7448L52.4938 13.5402C51.9312 12.5684 51.3174 11.3409 50.9593 10.5225C50.7036 9.85757 50.3967 9.1415 50.2433 8.63002C50.2433 8.32313 50.2433 8.27197 50.1921 8.27197ZM50.0898 8.52771C50.0898 8.52771 50.141 8.68116 50.141 8.83461C50.2433 9.49953 50.3456 10.1645 50.6013 10.8294C50.7547 11.3409 50.7547 11.3409 50.5502 11.2386C50.0898 11.0851 47.8904 10.7271 46.3049 10.5225C46.0491 10.4714 45.8445 10.4713 45.8445 10.4713C45.8445 10.4713 46.9698 9.85757 47.4813 9.60183C48.1973 9.29494 49.9875 8.52771 50.0898 8.52771ZM45.5376 10.6248L45.7422 10.6759C46.7652 11.034 49.2715 11.4943 50.6525 11.5966C50.8059 11.5966 50.9593 11.6478 50.9593 11.6478C50.9593 11.6478 50.8059 11.6989 50.6525 11.8012C49.9875 12.1592 49.2203 12.5684 48.7088 12.8753C48.5554 12.9776 48.4019 13.0288 48.4019 13.0288C48.4019 13.0288 48.2996 13.0288 48.1973 12.9776L47.9927 12.9265L47.5324 12.4661C46.714 11.6478 46.0491 11.034 45.7934 10.7782L45.5376 10.6248ZM45.333 10.7782L45.998 11.5966C46.356 12.0569 46.714 12.5173 46.8163 12.6196C46.9186 12.7219 46.9698 12.8242 46.9698 12.8242C46.9698 12.8242 45.998 12.6707 45.4865 12.5173C44.975 12.415 44.7704 12.3638 44.4124 12.2615L44.1566 12.1592V12.1081C44.1566 11.8012 44.5658 11.3409 45.2307 10.8294L45.333 10.7782ZM51.0105 11.9035C51.0105 11.9035 51.0616 11.9547 51.1128 12.0569C51.2662 12.415 51.7777 13.3868 51.88 13.5402C51.9312 13.5914 51.9823 13.5914 51.3174 13.4891C49.7318 13.2334 49.1692 13.1311 49.1692 13.1311C49.1692 13.1311 49.2203 13.0799 49.2714 13.0799C49.7829 12.8242 50.2944 12.4661 50.7036 12.0569C50.9082 12.0569 51.0105 11.9546 51.0105 11.9035Z" fill="url(#paint1_linear_8130_78706)"/>
        <path d="M43.3891 11.5459C43.3891 11.5459 43.2868 11.6993 43.3891 11.9551C43.4402 12.1085 43.6448 12.3131 43.8494 12.4666C43.8494 12.4666 45.9465 14.5125 46.2022 14.8194C47.3786 16.1492 47.8901 17.4791 47.9413 19.3204C47.9924 20.4968 47.7367 21.5198 47.174 22.7474C46.2022 24.8956 44.1052 27.2996 40.8828 29.9081L41.3431 29.7547C41.65 29.5501 42.0592 29.2943 43.031 28.7317C45.2816 27.5041 47.7878 26.3789 50.8567 25.2025C55.3066 23.5146 62.6208 21.571 66.7638 20.9572L67.173 20.906L67.1219 20.8037C66.7638 20.1899 66.4569 19.8319 66.15 19.4739C65.2294 18.3486 64.1553 17.4279 62.7743 16.6607C60.9329 15.6378 58.529 14.8194 55.4601 14.2056C54.8974 14.1033 53.6187 13.8987 52.5958 13.6941C50.4475 13.3361 49.0154 13.1315 47.4809 12.8757C46.9183 12.7735 46.0999 12.62 45.5373 12.5177C45.2304 12.4666 44.7189 12.3131 44.2586 12.1597C44.0029 12.0574 43.4914 11.9551 43.3891 11.5459ZM44.6166 12.7223C44.6166 12.7223 44.7189 12.7223 44.8212 12.7735C45.0258 12.8246 45.2304 12.9269 45.4862 12.9781C45.6907 13.0292 45.8953 13.0803 46.0999 13.1315C46.4068 13.1826 46.6114 13.2849 46.6114 13.2849C46.6626 13.3361 47.1229 14.8705 47.2763 15.4332C47.3275 15.6378 47.3786 15.8423 47.3786 15.8423C47.3786 15.8423 47.3275 15.7912 47.2763 15.6378C46.7137 14.6659 45.8442 13.643 44.8212 12.8757C44.7189 12.8246 44.6166 12.7223 44.6166 12.7223ZM46.9695 13.3872C46.9695 13.3872 47.1229 13.3872 47.2252 13.4384C48.0436 13.643 49.4757 13.8987 50.3964 14.0522C50.5498 14.0522 50.6521 14.1033 50.6521 14.1033C50.6521 14.1033 50.601 14.1545 50.4987 14.2056C50.3452 14.3079 49.7315 14.6659 49.5269 14.8194C49.0154 15.1774 48.5039 15.5355 48.197 15.8935C48.0436 16.0469 47.9413 16.1492 47.9413 16.1492C47.9413 16.1492 47.8901 16.0469 47.8901 15.9446C47.7367 15.2797 47.3786 14.3079 47.0206 13.643C46.9695 13.4895 46.9695 13.3872 46.9695 13.3872ZM51.0613 14.1545C51.1125 14.1545 51.1125 14.3079 51.2148 14.6659C51.3682 15.3309 51.4705 16.0981 51.4194 16.8142C51.4194 17.0188 51.4194 17.2233 51.3682 17.2233V17.2745L51.1125 17.1722C50.601 17.0188 49.7826 16.763 49.0665 16.5584C48.6573 16.4561 48.3505 16.3538 48.3505 16.3538C48.3505 16.3027 48.9642 15.7401 49.1688 15.5355C49.7315 15.1263 51.0102 14.1545 51.0613 14.1545ZM51.3682 14.2056C51.3682 14.2056 53.3118 14.5125 54.2325 14.7171C54.8974 14.8705 55.8692 15.024 55.9204 15.0751C55.9715 15.0751 55.8693 15.1263 55.5112 15.2797C54.2837 15.8424 53.3118 16.3538 52.3912 16.9676C52.1354 17.1211 51.9308 17.2745 51.9308 17.2745C51.9308 17.2745 51.9308 17.1211 51.9308 16.9676C51.9308 16.0469 51.7262 15.1774 51.4194 14.4102C51.4194 14.3079 51.3682 14.2056 51.3682 14.2056ZM56.4319 15.2286C56.4319 15.2286 56.3807 15.6378 56.3296 15.8423C56.1761 16.5584 55.7158 17.5814 55.1532 18.6044C55.0509 18.7578 54.9486 18.9112 54.9486 18.9112C54.9486 18.9112 54.7951 18.8601 54.6417 18.7578C54.0791 18.4509 53.4653 18.144 52.8003 17.8371C52.5958 17.7348 52.4423 17.6837 52.4423 17.6837C52.3912 17.6325 53.9256 16.6607 54.744 16.1492C55.3578 15.7401 56.4319 15.1774 56.4319 15.2286ZM56.7899 15.2797C56.8411 15.2797 57.7106 15.5355 58.1709 15.6378C59.2962 15.9446 60.5749 16.4561 61.3933 16.8142L61.7513 16.9676L61.4956 17.0188C59.4496 17.4791 57.7106 18.0417 56.0227 18.7067C55.8693 18.7578 55.767 18.8089 55.767 18.8089C55.767 18.8089 55.8181 18.7067 55.8692 18.5532C56.3807 17.4791 56.6876 16.3538 56.7899 15.382C56.7388 15.3309 56.7899 15.2797 56.7899 15.2797ZM48.197 17.2233C48.197 17.2233 48.8619 17.3768 49.22 17.4791C49.7826 17.6325 50.9079 17.9906 50.9079 18.0417C50.9079 18.0417 50.7544 18.144 50.6521 18.2975C50.0384 18.8089 49.4246 19.3716 48.7085 20.0365C48.5039 20.2411 48.2993 20.3945 48.2993 20.3945V20.3434C48.4016 19.525 48.4016 18.5021 48.2482 17.4791C48.197 17.3768 48.197 17.2233 48.197 17.2233ZM62.0582 17.2745C62.0582 17.2745 61.7513 17.786 61.5467 18.0417C61.2398 18.4509 60.8306 19.0135 59.91 20.1899C59.3985 20.8037 58.8358 21.5198 58.6824 21.7755C58.4778 22.0313 58.3244 22.2359 58.3244 22.2359C58.3244 22.2359 58.2732 22.1336 58.1709 22.0313C57.6594 21.2129 56.9945 20.548 56.2273 19.9342C56.0738 19.8319 55.9204 19.6785 55.8692 19.6273C55.8181 19.5762 55.767 19.5762 55.767 19.525C55.767 19.525 56.5853 19.167 57.1991 18.9112C58.2732 18.4509 59.7565 17.9394 60.8306 17.6325C61.4444 17.4279 62.0582 17.2234 62.0582 17.2745ZM62.4162 17.3257C62.4162 17.3257 62.5697 17.3768 62.672 17.4791C63.8484 18.144 64.9736 19.0135 65.8432 19.8831C66.0989 20.1388 66.7127 20.7526 66.7127 20.8037C66.7127 20.8037 66.5081 20.8037 66.2523 20.8549C64.2576 21.0083 61.7001 21.4175 59.245 22.0313C59.0916 22.0824 58.9381 22.0824 58.9381 22.0824C58.9381 22.0824 59.0916 21.8778 59.3473 21.6733C60.7795 20.2923 61.4444 19.4227 62.2116 17.8371C62.3139 17.5814 62.4162 17.3768 62.4162 17.3257ZM51.8285 18.4509C51.8797 18.4509 52.4935 18.7578 52.9538 18.9624C53.363 19.167 54.0279 19.525 54.0791 19.525C54.0791 19.525 53.8745 19.6273 53.5676 19.7808C52.6981 20.2411 51.9308 20.6503 51.1125 21.1106C50.9079 21.2641 50.7033 21.3664 50.7033 21.3664C50.7033 21.3664 50.7033 21.3664 50.8056 21.1106C51.2148 20.3434 51.5728 19.4227 51.7774 18.5021C51.8285 18.4509 51.8285 18.4509 51.8285 18.4509ZM51.2148 18.5532C51.2148 18.5532 51.0613 19.167 50.959 19.4739C50.7544 20.0877 50.4475 20.8549 50.1406 21.4175C50.0895 21.571 49.9361 21.7244 49.8849 21.8778L49.7826 22.0824L49.5269 21.8267C49.22 21.5198 48.9642 21.3664 48.6574 21.1618C48.5039 21.1106 48.4527 21.0595 48.4527 21.0083C48.4527 20.9572 49.2711 20.2411 49.8849 19.6785C50.2941 19.2693 51.2148 18.5021 51.2148 18.5532ZM54.9997 20.0877L55.2555 20.2411C55.767 20.5991 56.4319 21.0595 56.8922 21.4687C57.1479 21.6732 57.6594 22.1847 57.8129 22.287L57.864 22.3382L57.4548 22.4405C55.3066 23.0543 53.6187 23.5657 51.6239 24.2818C51.4194 24.3841 51.2148 24.4353 51.2148 24.4353C51.1636 24.4353 51.1636 24.4353 51.6751 24.0261C52.9027 22.8497 54.0279 21.6221 54.8463 20.3434L54.9997 20.0877ZM54.0279 20.3434C54.0279 20.3434 53.363 21.2641 53.005 21.7755C52.5446 22.3893 51.7262 23.4123 51.1636 24.0772C50.9079 24.333 50.7033 24.5887 50.7033 24.5887C50.7033 24.5887 50.7033 24.5376 50.7033 24.4353C50.7033 23.8726 50.5498 23.2588 50.2941 22.7474C50.1918 22.5428 50.1407 22.4916 50.1918 22.4405C50.2941 22.3382 51.6751 21.571 52.5446 21.1106C53.0561 20.8037 53.9768 20.3434 54.0279 20.3434ZM47.9924 21.8267C47.9924 21.8267 48.0947 21.8778 48.2482 21.929C48.555 22.0824 48.8108 22.287 49.0665 22.4916C49.0665 22.4916 48.9642 22.5939 48.8108 22.6962C48.3505 23.0031 47.6855 23.5146 47.2763 23.8726C46.8672 24.1795 46.8672 24.2307 46.8672 24.1284C47.1741 23.668 47.3275 23.3611 47.4809 23.0543C47.6344 22.7474 47.7878 22.3893 47.8901 22.0824C47.9413 21.929 47.9924 21.8267 47.9924 21.8267ZM49.6292 23.0543C49.6292 23.0543 49.6803 23.1054 49.8338 23.2588C50.0895 23.668 50.2941 24.1795 50.3452 24.6398V24.7421L49.6803 24.9979C48.5039 25.4582 47.4298 25.9186 46.7137 26.2254C46.5091 26.3277 46.1511 26.4812 45.9465 26.5835C45.6907 26.6858 45.5373 26.7881 45.5373 26.7881C45.5373 26.7881 45.6908 26.6858 45.8442 26.5323C47.2763 25.5094 48.5039 24.3841 49.4246 23.2588C49.5269 23.1565 49.578 23.0543 49.6292 23.0543ZM48.8619 23.2588C48.8619 23.2588 48.3505 23.8726 47.9924 24.2818C47.0717 25.2025 46.1511 25.9697 45.0258 26.6346C44.8724 26.7369 44.7701 26.7881 44.7189 26.8392C44.6678 26.8392 44.7189 26.7881 45.2304 26.2766C45.5373 25.9186 45.793 25.6628 46.0488 25.3048C46.2534 25.049 46.2534 25.049 46.5091 24.8444C47.2763 24.333 48.8619 23.2077 48.8619 23.2588Z" fill="url(#paint2_radial_8130_78706)"/>
        <path d="M28.3544 42.8826C28.2645 42.8826 28.1746 42.8826 28.0847 42.8826C26.2869 42.9725 25.1183 43.7815 24.3992 45.3097C23.7699 46.6581 23.8598 48.4559 24.3992 49.8941C25.0284 51.2425 26.0172 51.9617 27.7252 52.2313C28.0847 52.3212 28.3544 52.501 28.9837 53.31L29.7927 54.2988H31.3208L30.4219 53.2201C29.8826 52.6808 29.4331 52.1414 29.4331 52.1414C29.4331 52.1414 29.6129 51.9617 29.8826 51.9617C30.7815 51.692 31.5006 51.0627 31.9501 49.984C32.3995 49.175 32.3995 48.9053 32.4894 47.9165C32.5793 44.7703 30.9613 42.8826 28.3544 42.8826ZM29.7028 50.883C28.9836 51.2425 27.905 51.3324 27.1858 51.0627C26.4667 50.7931 25.7476 49.984 25.388 49.175C25.0284 48.1862 25.1183 46.4783 25.4779 45.6692C26.1071 44.4108 27.006 43.8714 28.2645 43.8714C30.1522 43.8714 31.2309 45.04 31.3208 47.1974C31.4107 48.9952 30.8714 50.3436 29.7028 50.883ZM56.3107 45.4895C55.6814 45.4895 55.1421 45.7591 54.8724 46.2985L54.6027 46.7479V45.6692H53.524V52.0515H54.6027V49.984C54.6027 48.0963 54.6027 47.9165 54.8724 47.3772C55.232 46.6581 55.8612 46.2985 56.4005 46.4783L56.7601 46.5682V45.4895H56.3107ZM49.7486 45.3996C49.5688 45.3996 49.2991 45.3996 49.0294 45.4895C47.5013 45.849 46.6923 47.2873 46.7822 48.8155C46.7822 50.0739 47.0518 50.7032 47.5912 51.3324C48.8497 52.3212 49.9284 52.4111 51.3666 51.8718C51.6363 51.7819 51.906 51.6021 51.906 51.6021V50.6133L51.3666 50.883C50.198 51.4223 49.2092 51.4223 48.4901 50.7931C48.0406 50.3436 47.8609 49.7144 47.771 49.0851H52.2655V48.1862C52.3554 46.4783 51.2767 45.3996 49.7486 45.3996ZM47.9507 48.2761C47.9507 48.2761 48.1305 47.1974 48.7598 46.7479C49.0294 46.5682 49.389 46.4783 49.7486 46.4783C50.1081 46.4783 50.3778 46.5682 50.7374 46.8378C51.2767 47.2873 51.3666 48.366 51.3666 48.366L47.9507 48.2761ZM20.8934 47.1075C19.6349 46.3884 19.0956 45.849 19.1855 45.2198C19.3653 43.5119 21.5227 43.6916 22.6912 44.4108V43.2422C22.6912 43.2422 22.062 42.9725 21.0732 42.9725C19.6349 42.9725 18.736 43.422 18.2866 44.4108C17.6573 45.849 18.1967 46.9277 20.2642 48.0963C21.4328 48.7256 21.8822 49.3548 21.8822 49.984C21.8822 51.3324 20.2642 51.7819 18.6461 50.9728C18.4663 50.6133 18.1967 50.5234 18.1068 50.5234C18.0169 50.883 18.1068 51.7819 18.1068 51.7819C18.1068 51.7819 18.6461 51.9617 19.3653 52.1414C21.253 52.501 22.9609 51.6021 23.0508 50.2537C23.2306 48.9053 22.7811 48.1862 20.8934 47.1075ZM66.2886 45.3996C66.1088 45.3996 65.8391 45.3996 65.5695 45.4895C64.0413 45.849 63.2323 47.2873 63.3222 48.8155C63.3222 50.0739 63.5919 50.7032 64.1312 51.3324C65.3897 52.3212 66.4684 52.4111 67.9965 51.8718C68.2662 51.7819 68.5359 51.6021 68.5359 51.6021V50.6133L67.9965 50.883C66.828 51.4223 65.8391 51.4223 65.12 50.7931C64.6706 50.3436 64.4908 49.8043 64.311 49.0851H68.8056V48.1862C68.8056 46.4783 67.8168 45.3996 66.2886 45.3996ZM64.4009 48.1862C64.4009 48.1862 64.5807 47.1075 65.2099 46.6581C65.4796 46.4783 65.8391 46.3884 66.1987 46.3884C66.5583 46.3884 66.828 46.4783 67.1875 46.7479C67.7269 47.1974 67.8168 48.2761 67.8168 48.2761L64.4009 48.1862ZM43.9056 47.1075C42.6472 46.3884 42.1977 45.849 42.1977 45.2198C42.3775 43.5119 44.5349 43.6916 45.7035 44.4108V43.2422C45.7035 43.2422 45.0742 42.9725 44.0854 42.9725C42.6472 42.9725 41.7482 43.422 41.2988 44.4108C40.6695 45.849 41.2089 46.9277 43.2764 48.0963C44.445 48.7256 44.8944 49.3548 44.8944 49.984C44.8944 51.3324 43.2764 51.7819 41.6583 50.9728C41.2988 50.7931 41.0291 50.7032 41.0291 50.7032C40.9392 51.0627 41.0291 51.9617 41.0291 51.9617C41.0291 51.9617 41.5685 52.1414 42.2876 52.3212C44.1753 52.6808 45.8832 51.7819 45.9731 50.4335C46.1529 48.9053 45.7035 48.1862 43.9056 47.1075ZM72.8507 45.4895C72.2214 45.4895 71.6821 45.7591 71.4124 46.2985L71.1427 46.7479V45.6692H70.064V52.0515H71.1427V49.984C71.1427 48.0963 71.1427 47.9165 71.4124 47.3772C71.772 46.6581 72.4012 46.2985 72.9406 46.4783L73.3001 46.5682V45.4895H72.8507ZM35.0064 47.1075V43.0624H33.8378V52.0515H38.602V50.9728H35.0064V47.1075ZM61.0749 48.366L60.176 50.7931L59.2771 48.366L58.3782 45.6692H57.2096C57.9287 47.8266 58.7377 49.984 59.6366 52.0515C59.9962 52.0515 60.3558 52.0515 60.7153 52.0515L61.9738 48.9053L63.2323 45.6692H62.1536C62.0637 45.5794 61.6143 46.9277 61.0749 48.366ZM37.6132 40.5454C37.793 40.5454 37.9728 40.4555 38.0627 40.3657C38.1526 40.2758 38.2425 40.096 38.2425 39.9162C38.2425 39.7364 38.1526 39.5566 38.0627 39.4667C37.9728 39.3768 37.793 39.287 37.6132 39.287C37.4334 39.287 37.2537 39.3768 37.1638 39.4667C36.984 39.5566 36.984 39.7364 36.984 39.9162C36.984 40.096 37.0739 40.2758 37.1638 40.3657C37.2537 40.4555 37.4334 40.5454 37.6132 40.5454ZM37.1638 39.5566C37.2537 39.4667 37.4334 39.3768 37.6132 39.3768C37.793 39.3768 37.8829 39.4667 37.9728 39.5566C38.0627 39.6465 38.1526 39.8263 38.1526 39.9162C38.1526 40.096 38.0627 40.1859 37.9728 40.3657C37.8829 40.4555 37.7031 40.5454 37.6132 40.5454C37.4334 40.5454 37.3436 40.4555 37.2537 40.3657C37.1638 40.2758 37.0739 40.096 37.0739 39.9162C36.984 39.7364 37.0739 39.6465 37.1638 39.5566ZM37.4334 40.0061C37.5233 40.0061 37.6132 40.096 37.6132 40.1859L37.7031 40.3657H37.8829L37.793 40.1859C37.793 40.096 37.7031 40.0061 37.6132 40.0061C37.7031 40.0061 37.7031 40.0061 37.793 39.9162C37.793 39.9162 37.8829 39.8263 37.8829 39.7364C37.8829 39.6465 37.8829 39.6465 37.793 39.5566C37.7031 39.5566 37.7031 39.4667 37.5233 39.4667H37.2537V40.2758H37.3436L37.4334 40.0061ZM37.4334 39.5566H37.5233C37.6132 39.5566 37.6132 39.5566 37.7031 39.5566V39.6465C37.7031 39.7364 37.6132 39.8263 37.5233 39.8263H37.4334V39.5566ZM18.8259 39.9162C18.8259 39.6465 18.8259 39.3768 18.8259 39.287C18.8259 39.4667 18.9158 39.5566 18.9158 39.6465L19.9945 42.0736H20.1743L21.253 39.6465C21.253 39.5566 21.3429 39.4667 21.3429 39.3768C21.3429 39.6465 21.3429 39.8263 21.3429 40.0061V42.1635H21.7024V38.8375H21.253L20.2642 41.0848C20.2642 41.1747 20.1743 41.2646 20.0844 41.4444C20.0844 41.3545 19.9945 41.2646 19.9046 41.0848L18.9158 38.8375H18.4663V41.9837H18.8259V39.9162ZM22.5115 39.9162H22.871V41.8938H22.5115V39.9162ZM22.6912 39.1971C22.7811 39.1971 22.7811 39.1971 22.871 39.1072C22.871 39.1072 22.9609 39.0173 22.9609 38.9274C22.9609 38.8375 22.9609 38.8375 22.871 38.7476C22.7811 38.7476 22.7811 38.6577 22.6912 38.6577C22.6014 38.6577 22.6014 38.6577 22.5115 38.7476C22.5115 38.7476 22.4216 38.8375 22.4216 38.9274C22.4216 39.0173 22.4216 39.0173 22.5115 39.1072C22.5115 39.1971 22.6014 39.1971 22.6912 39.1971ZM25.1183 41.8938V41.5342C24.9385 41.6241 24.7588 41.714 24.579 41.714C24.3093 41.714 24.1295 41.6241 24.0396 41.4444C23.8598 41.2646 23.8598 41.0848 23.8598 40.8151C23.8598 40.5454 23.9497 40.3657 24.1295 40.1859C24.3093 40.0061 24.4891 39.9162 24.6689 39.9162C24.8486 39.9162 25.0284 40.0061 25.2082 40.096V39.7364C24.9385 39.7364 24.7588 39.7364 24.579 39.7364C24.2194 39.7364 23.9497 39.8263 23.6801 40.096C23.5003 40.3657 23.3205 40.6353 23.3205 40.9949C23.3205 41.3545 23.4104 41.6241 23.5902 41.8039C23.7699 41.9837 24.0396 42.1635 24.3992 42.1635C24.7588 42.0736 24.9385 42.0736 25.1183 41.8938ZM26.0172 40.905C26.0172 40.6353 26.1071 40.4555 26.197 40.2758C26.2869 40.1859 26.4667 40.096 26.5566 40.096C26.6465 40.096 26.7364 40.096 26.8263 40.1859V39.7364C26.7364 39.7364 26.7364 39.7364 26.6465 39.7364C26.5566 39.7364 26.3768 39.7364 26.2869 39.8263C26.197 39.9162 26.1071 40.0061 26.0172 40.1859V39.7364H25.6577V41.9837H26.0172V40.905ZM28.0847 42.0736C28.4443 42.0736 28.714 41.9837 28.8938 41.714C29.0735 41.5342 29.1634 41.1747 29.1634 40.8151C29.1634 40.4555 29.0735 40.1859 28.8938 39.9162C28.714 39.7364 28.4443 39.6465 28.0847 39.6465C27.7252 39.6465 27.4555 39.7364 27.2757 39.9162C27.0959 40.096 26.9161 40.4555 26.9161 40.8151C26.9161 41.1747 27.006 41.4444 27.1858 41.6241C27.4555 41.9837 27.7252 42.0736 28.0847 42.0736ZM27.5454 40.2758C27.7252 40.096 27.905 40.096 28.0847 40.096C28.3544 40.096 28.5342 40.1859 28.6241 40.2758C28.714 40.4555 28.8039 40.6353 28.8039 40.905C28.8039 41.1747 28.714 41.4444 28.6241 41.5342C28.5342 41.714 28.3544 41.8039 28.0847 41.8039C27.8151 41.8039 27.6353 41.714 27.5454 41.5342C27.3656 41.3545 27.3656 41.1747 27.3656 40.905C27.3656 40.6353 27.4555 40.3657 27.5454 40.2758ZM30.7815 41.8938C30.9613 41.8039 30.9613 41.6241 30.9613 41.4444C30.9613 41.2646 30.8714 41.1747 30.7815 40.9949C30.6916 40.905 30.5118 40.8151 30.332 40.7252C30.1522 40.6353 30.0623 40.5454 29.9725 40.5454C29.8826 40.4555 29.8826 40.4555 29.8826 40.2758C29.8826 40.1859 29.8826 40.096 29.9725 40.0061C30.0623 39.9162 30.1522 39.9162 30.2421 39.9162C30.4219 39.9162 30.6017 40.0061 30.7815 40.096V39.7364C30.7815 39.7364 30.6017 39.7364 30.4219 39.7364C30.1522 39.7364 29.9725 39.8263 29.8826 39.9162C29.7028 40.0061 29.6129 40.1859 29.6129 40.3657C29.6129 40.5454 29.7028 40.6353 29.7927 40.8151C29.8826 40.905 29.9725 40.9949 30.2421 41.0848C30.4219 41.1747 30.5118 41.2646 30.6017 41.2646C30.6916 41.3545 30.6916 41.3545 30.6916 41.4444C30.6916 41.6241 30.5118 41.8039 30.2421 41.8039C30.0623 41.8039 29.7927 41.714 29.6129 41.6241V41.9837C29.7927 42.0736 29.9725 42.1635 30.1522 42.1635C30.4219 42.0736 30.6916 41.9837 30.7815 41.8938ZM32.5793 39.7364C32.2197 39.7364 31.9501 39.8263 31.7703 40.0061C31.5905 40.1859 31.4107 40.5454 31.4107 40.905C31.4107 41.2646 31.5006 41.5342 31.6804 41.714C31.8602 41.8938 32.1299 42.0736 32.4894 42.0736C32.849 42.0736 33.1187 41.9837 33.2984 41.714C33.4782 41.5342 33.5681 41.1747 33.5681 40.8151C33.5681 40.4555 33.4782 40.1859 33.2984 39.9162C33.1187 39.8263 32.849 39.7364 32.5793 39.7364ZM33.2984 40.905C33.2984 41.1747 33.2085 41.4444 33.1187 41.5342C33.0288 41.714 32.849 41.8039 32.5793 41.8039C32.3096 41.8039 32.1299 41.714 32.04 41.5342C31.8602 41.3545 31.8602 41.1747 31.8602 40.905C31.8602 40.6353 31.9501 40.3657 32.04 40.2758C32.2197 40.096 32.3995 40.096 32.5793 40.096C32.849 40.096 33.0288 40.1859 33.1187 40.2758C33.2085 40.3657 33.2984 40.6353 33.2984 40.905ZM34.1974 42.0736H34.5569V40.096H35.0963V39.7364H34.5569V39.3768C34.5569 39.0173 34.6468 38.9274 34.9165 38.9274C35.0064 38.9274 35.0963 38.9274 35.1862 39.0173V38.6577C35.0963 38.6577 35.0064 38.6577 34.9165 38.6577C34.7367 38.6577 34.5569 38.7476 34.467 38.8375C34.2872 39.0173 34.1974 39.1971 34.1974 39.4667V39.7364H33.8378V40.0061H34.1974V42.0736ZM35.7255 41.4444C35.7255 41.8938 35.9053 42.0736 36.3547 42.0736C36.5345 42.0736 36.6244 42.0736 36.7143 41.9837V41.714C36.6244 41.8039 36.5345 41.8039 36.4446 41.8039C36.3547 41.8039 36.2649 41.8039 36.175 41.714C36.0851 41.6241 36.0851 41.5342 36.0851 41.3545V40.096H36.6244V39.7364H36.0851V39.1072C35.9952 39.1072 35.8154 39.1971 35.7255 39.1971V39.7364H35.3659V40.0061H35.7255V41.4444ZM74.7384 45.5794C74.6485 45.4895 74.4687 45.3996 74.2889 45.3996C74.1092 45.3996 73.9294 45.4895 73.8395 45.5794C73.7496 45.6693 73.6597 45.849 73.6597 46.0288C73.6597 46.2086 73.7496 46.3884 73.8395 46.4783C73.9294 46.5682 74.1092 46.6581 74.2889 46.6581C74.4687 46.6581 74.6485 46.5682 74.7384 46.4783C74.8283 46.3884 74.9182 46.2086 74.9182 46.0288C74.9182 45.849 74.9182 45.7591 74.7384 45.5794ZM74.7384 46.4783C74.6485 46.5682 74.4687 46.6581 74.3788 46.6581C74.1991 46.6581 74.1092 46.5682 74.0193 46.4783C73.9294 46.3884 73.8395 46.2086 73.8395 46.0288C73.8395 45.849 73.9294 45.7591 74.0193 45.6692C74.1092 45.5794 74.2889 45.4895 74.4687 45.4895C74.6485 45.4895 74.7384 45.5794 74.8283 45.6692C74.9182 45.7591 75.0081 45.9389 75.0081 46.0288C74.9182 46.2086 74.8283 46.3884 74.7384 46.4783ZM74.3788 46.1187C74.4687 46.1187 74.4687 46.1187 74.5586 46.0288C74.5586 46.0288 74.6485 45.9389 74.6485 45.849C74.6485 45.7591 74.6485 45.7591 74.5586 45.6692C74.4687 45.6692 74.4687 45.5794 74.2889 45.5794H74.0193V46.3884H74.1092V46.0288H74.1991C74.2889 46.0288 74.2889 46.1187 74.3788 46.2086L74.4687 46.3884H74.6485L74.5586 46.2086C74.4687 46.1187 74.4687 46.1187 74.3788 46.1187ZM74.2889 46.0288H74.1991V45.7591H74.2889C74.3788 45.7591 74.3788 45.7591 74.4687 45.7591V45.849C74.4687 45.9389 74.3788 46.0288 74.2889 46.0288ZM53.9735 39.6465H54.0634V38.8375H54.333V38.7476H53.7038V38.8375H53.9735V39.6465ZM54.6027 39.0173C54.6027 38.9274 54.6027 38.8375 54.6027 38.8375C54.6027 38.9274 54.6027 38.9274 54.6027 39.0173L54.9623 39.6465H55.0522L55.3218 38.9274V38.8375C55.3218 38.9274 55.3218 38.9274 55.3218 39.0173V39.6465H55.4117V38.7476H55.3218L55.0522 39.3768L54.7825 38.7476H54.6027V39.6465H54.6926L54.6027 39.0173Z" fill="#231F1F"/>
    </g>
    <rect width="91.8691" height="61.2461" transform="translate(93.4492 0.618652)" fill="white"/>
    <g clip-path="url(#clip1_8130_78706)">
        <path fill-rule="evenodd" clip-rule="evenodd" d="M104.932 46.0214H107.238V37.0069L110.802 44.8334C111.221 45.8118 111.78 46.1612 112.898 46.1612C114.016 46.1612 114.575 45.8118 114.994 44.8334L118.558 37.0069V46.0214H120.864V37.0069C120.864 36.0984 120.515 35.6791 119.746 35.4695C117.999 34.9105 116.881 35.3996 116.322 36.5876L112.828 44.3443L109.404 36.5876C108.915 35.3996 107.727 34.9803 105.98 35.4695C105.281 35.6791 104.932 36.0984 104.932 37.0069V46.0214Z" fill="#00678F"/>
        <path fill-rule="evenodd" clip-rule="evenodd" d="M122.68 38.6841H124.986V43.6456C124.986 43.9251 125.056 44.5541 126.313 44.5541C126.942 44.5541 131.275 44.5541 131.275 44.5541V38.6143H133.581C133.581 38.6143 133.581 46.6505 133.581 46.7204C133.581 48.7469 131.135 49.1662 129.947 49.1662H122.68V47.6288H129.877C131.345 47.489 131.205 46.7204 131.205 46.5107V45.8818H126.383C124.147 45.8818 122.68 44.8336 122.68 43.7155C122.68 43.6456 122.68 38.6841 122.68 38.6841Z" fill="#00678F"/>
        <path fill-rule="evenodd" clip-rule="evenodd" d="M171.806 32.9539C170.409 32.884 169.291 33.0936 168.382 33.443C168.103 33.5828 167.683 33.5828 167.683 33.8623C167.823 34.0021 167.823 34.2117 167.963 34.4214C168.173 34.7708 168.522 35.2599 168.871 35.4696C169.221 35.7491 169.64 36.0286 169.989 36.3081C170.688 36.7274 171.457 37.0069 172.086 37.4262C172.505 37.7057 172.855 37.9853 173.274 38.2648C173.484 38.4045 173.623 38.6142 173.833 38.7539V38.6841C173.693 38.5443 173.693 38.2648 173.553 38.125C173.344 37.9154 173.204 37.7756 172.994 37.6359C172.505 36.9371 171.876 36.378 171.177 35.8888C170.618 35.4696 169.361 34.9804 169.151 34.3515C169.151 34.3515 169.151 34.3515 169.081 34.3515C169.5 34.2816 169.92 34.1418 170.269 34.072C170.898 33.9322 171.387 33.9322 172.016 33.7924C172.296 33.7226 172.575 33.6527 172.855 33.5129C172.855 33.443 172.855 33.3732 172.855 33.3732C172.505 33.0238 172.296 32.6045 171.946 32.325C171.038 31.5563 170.059 30.7876 169.081 30.1587C168.522 29.8093 167.823 29.5996 167.264 29.2502C167.055 29.1105 166.705 29.1105 166.565 28.9008C166.216 28.4816 166.076 27.9924 165.867 27.5731C165.377 26.5948 164.888 25.5466 164.399 24.4984C164.05 23.7996 163.91 23.1008 163.491 22.4719C161.674 19.467 159.717 17.72 156.712 15.9031C156.083 15.5537 155.315 15.3441 154.476 15.2043C154.057 15.2043 153.568 15.1345 153.148 15.1345C152.869 14.9947 152.589 14.6453 152.31 14.5055C151.541 13.8766 148.956 12.479 148.257 14.2959C147.768 15.414 148.956 16.5321 149.375 17.161C149.654 17.5803 150.074 17.9995 150.283 18.4887C150.353 18.7682 150.353 19.0477 150.493 19.3971C150.772 20.1658 151.052 21.0044 151.401 21.7032C151.611 22.0526 151.821 22.4719 152.03 22.8213C152.17 23.0309 152.45 23.1008 152.45 23.4502C152.17 23.7996 152.17 24.3586 152.03 24.7779C151.401 26.7346 151.611 29.1804 152.519 30.6478C152.799 31.0671 153.498 32.0454 154.336 31.696C155.105 31.3466 154.965 30.3683 155.175 29.5298C155.245 29.3201 155.175 29.1804 155.315 29.0406V29.1105C155.594 29.5996 155.804 30.0888 156.013 30.578C156.573 31.4165 157.481 32.325 158.32 32.9539C158.739 33.3033 159.088 33.7924 159.577 34.0021V33.9322C159.577 33.9322 159.577 33.9322 159.507 33.9322C159.368 33.7924 159.228 33.7226 159.088 33.5828C158.739 33.2334 158.389 32.884 158.18 32.5346C157.411 31.5563 156.782 30.4382 156.223 29.3201C155.944 28.7611 155.664 28.202 155.454 27.643C155.315 27.4334 155.315 27.084 155.175 27.0141C154.895 27.4334 154.546 27.7129 154.336 28.202C153.987 28.9707 153.987 29.8792 153.847 30.8575C153.777 30.8575 153.777 30.8575 153.777 30.9274C153.218 30.7876 153.009 30.2286 152.799 29.7394C152.24 28.4816 152.17 26.5249 152.659 25.0574C152.799 24.708 153.288 23.5201 153.079 23.1707C152.939 22.8213 152.589 22.6116 152.45 22.402C152.24 22.0526 151.96 21.6333 151.821 21.2839C151.401 20.3056 151.192 19.1875 150.703 18.2092C150.493 17.72 150.144 17.3007 149.794 16.8815C149.445 16.3923 149.095 16.0429 148.816 15.4839C148.746 15.2742 148.606 14.9947 148.746 14.785C148.816 14.6453 148.886 14.5754 149.025 14.5754C149.235 14.3658 149.934 14.6453 150.144 14.7152C150.772 14.9947 151.331 15.2043 151.891 15.6236C152.17 15.8333 152.38 16.1128 152.729 16.2525C152.869 16.2525 153.009 16.2525 153.079 16.2525C153.638 16.3923 154.266 16.3224 154.826 16.4622C155.734 16.7417 156.573 17.2309 157.341 17.6501C159.647 19.1176 161.534 21.1441 162.792 23.6598C163.001 24.0791 163.071 24.4285 163.281 24.8478C163.63 25.6864 164.12 26.5948 164.469 27.4334C164.818 28.2719 165.168 29.1105 165.727 29.8093C166.006 30.1587 167.055 30.3683 167.544 30.578C167.893 30.7177 168.452 30.8575 168.732 31.0671C169.361 31.4165 169.92 31.8358 170.479 32.2551C170.898 32.1153 171.736 32.6045 171.806 32.9539Z" fill="#00678F"/>
        <path fill-rule="evenodd" clip-rule="evenodd" d="M153.988 17.7202C153.708 17.7202 153.499 17.7901 153.289 17.7901C153.289 17.7901 153.289 17.7901 153.289 17.86C153.289 17.86 153.289 17.86 153.359 17.86C153.499 18.1395 153.778 18.3491 153.918 18.5588C154.058 18.8383 154.198 19.1178 154.337 19.3973V19.3275C154.547 19.1877 154.617 18.9082 154.617 18.4889C154.547 18.3491 154.547 18.2793 154.407 18.1395C154.337 17.9299 154.128 17.86 153.988 17.7202Z" fill="#00678F"/>
        <path fill-rule="evenodd" clip-rule="evenodd" d="M135.259 46.0217H141.828C142.597 46.0217 143.365 45.8819 143.924 45.6024C144.903 45.1132 145.392 44.5542 145.392 43.7156V42.0385C145.392 41.4096 144.833 40.7807 143.785 40.3614C143.226 40.1518 142.527 40.012 141.828 40.012H139.033C138.124 40.012 137.635 39.7325 137.565 39.1036C137.565 39.0337 137.565 38.9638 137.565 38.8939V37.8457C137.565 37.7758 137.565 37.7059 137.565 37.6361C137.705 37.1469 137.915 37.0071 138.753 36.9373C138.823 36.9373 138.893 36.9373 138.963 36.9373H145.462V35.3999H139.033C138.124 35.3999 137.635 35.4698 137.146 35.6095C135.818 36.0288 135.189 36.7276 135.189 37.8457V39.1734C135.189 40.2216 136.377 41.0602 138.334 41.2698C138.544 41.2698 138.753 41.2698 139.033 41.2698H141.409C141.479 41.2698 141.618 41.2698 141.688 41.2698C142.387 41.3397 142.737 41.4795 142.946 41.759C143.086 41.8988 143.156 42.0385 143.156 42.1783V43.506C143.156 43.6458 143.016 43.8554 142.806 44.065C142.597 44.2747 142.247 44.3446 141.828 44.4144C141.758 44.4144 141.688 44.4144 141.618 44.4144H135.329V46.0217H135.259Z" fill="#E38D1A"/>
        <path fill-rule="evenodd" clip-rule="evenodd" d="M159.646 43.3657C159.646 44.9031 160.834 45.8115 163.14 45.9513C163.35 45.9513 163.56 46.0211 163.839 46.0211H169.779V44.4838H163.769C162.442 44.4838 161.953 44.1344 161.953 43.3657V35.4692H159.646V43.3657Z" fill="#E38D1A"/>
        <path fill-rule="evenodd" clip-rule="evenodd" d="M146.859 43.4356V37.9849C146.859 36.5873 147.838 35.7488 149.724 35.4692C149.934 35.4692 150.144 35.4692 150.353 35.4692H154.686C154.896 35.4692 155.105 35.4692 155.315 35.4692C157.202 35.7488 158.18 36.5873 158.18 37.9849V43.4356C158.18 44.5537 157.761 45.1826 156.852 45.532L159.088 47.5585H156.433L154.616 45.8814L152.799 46.0211H150.353C149.934 46.0211 149.515 45.9513 149.026 45.8115C147.628 45.4621 146.859 44.6934 146.859 43.4356ZM149.375 43.2958C149.375 43.3657 149.445 43.4356 149.445 43.5055C149.585 44.1344 150.144 44.4838 151.052 44.4838H153.149L151.262 42.7368H153.847L155.525 44.2741C155.874 44.0645 156.014 43.8549 156.084 43.5055C156.084 43.4356 156.084 43.3657 156.084 43.2958V38.1247C156.084 38.0548 156.084 37.9849 156.084 37.915C155.944 37.2861 155.385 37.0066 154.476 37.0066H151.052C150.004 37.0066 149.375 37.4259 149.375 38.1247V43.2958Z" fill="#E38D1A"/>
        <path fill-rule="evenodd" clip-rule="evenodd" d="M170.829 46.0213H171.178V44.7634H171.598V44.4839H170.34V44.7634H170.829V46.0213ZM173.345 46.0213H173.694V44.4839H173.205L172.786 45.5321L172.366 44.4839H171.877V46.0213H172.157V44.8333L172.576 46.0213H172.786L173.205 44.8333V46.0213H173.345Z" fill="#E38D1A"/>
    </g>
    <rect width="91.8691" height="61.2461" transform="translate(186.275 0.618652)" fill="white"/>
    <g clip-path="url(#clip2_8130_78706)">
        <path d="M218.357 44.1212H217.283L216.746 42.6363H214.48L213.978 44.1212H212.92L215.103 38.2944H216.193L218.357 44.1212ZM216.518 41.8388L215.712 39.5135C215.678 39.3955 215.651 39.2753 215.632 39.1537H215.605C215.588 39.2773 215.561 39.3994 215.524 39.5189L214.719 41.8442L216.518 41.8388Z" fill="#465154"/>
        <path d="M222.32 40.3537L220.072 43.3852H222.32V44.1209H218.762V43.7665L221.058 40.6947H218.982V39.959H222.32V40.3537Z" fill="#465154"/>
        <path d="M226.692 44.1209H225.75V43.4631H225.734C225.618 43.6982 225.437 43.8949 225.212 44.0293C224.987 44.1637 224.728 44.23 224.466 44.2203C223.484 44.2203 222.992 43.6296 222.992 42.4481V39.959H223.929V42.3488C223.929 43.097 224.218 43.4711 224.794 43.4711C224.925 43.4745 225.055 43.4485 225.174 43.3951C225.293 43.3416 225.399 43.2621 225.484 43.1623C225.67 42.9363 225.766 42.6493 225.753 42.3568V39.959H226.695L226.692 44.1209Z" fill="#465154"/>
        <path d="M230.215 40.8586C230.071 40.7602 229.898 40.7129 229.723 40.7243C229.585 40.725 229.449 40.7599 229.327 40.826C229.205 40.892 229.101 40.9872 229.025 41.1029C228.827 41.4079 228.733 41.7686 228.757 42.1313V44.1237H227.801V39.9591H228.743V40.8156H228.762C228.836 40.5519 228.983 40.3145 229.186 40.1309C229.362 39.9727 229.589 39.8847 229.825 39.8839C229.96 39.8769 230.093 39.9037 230.215 39.9618V40.8586Z" fill="#465154"/>
        <path d="M234.384 42.2976H231.548C231.544 42.4612 231.573 42.624 231.634 42.7759C231.695 42.9279 231.787 43.0657 231.903 43.181C232.161 43.4015 232.495 43.514 232.834 43.4952C233.275 43.4971 233.704 43.3578 234.059 43.0978V43.8577C233.601 44.1157 233.08 44.2394 232.555 44.2148C232.288 44.2293 232.021 44.1862 231.773 44.0885C231.524 43.9907 231.299 43.8406 231.113 43.6482C230.742 43.2027 230.556 42.6319 230.592 42.0533C230.568 41.4702 230.775 40.9009 231.167 40.469C231.348 40.271 231.569 40.114 231.815 40.0084C232.061 39.9028 232.328 39.8511 232.596 39.8568C232.842 39.8412 233.089 39.8813 233.317 39.9743C233.546 40.0673 233.751 40.2107 233.917 40.3938C234.251 40.8294 234.417 41.3709 234.384 41.919V42.2976ZM233.474 41.6317C233.488 41.3488 233.404 41.0695 233.235 40.8423C233.155 40.7489 233.055 40.6749 232.942 40.626C232.83 40.5772 232.707 40.5547 232.585 40.5603C232.455 40.5583 232.327 40.5839 232.208 40.6353C232.089 40.6867 231.982 40.7627 231.895 40.8584C231.698 41.0727 231.577 41.345 231.548 41.6344L233.474 41.6317Z" fill="#465154"/>
        <path d="M237.41 43.8901V42.8939C237.507 42.9805 237.614 43.0545 237.73 43.1141C237.855 43.1798 237.987 43.2346 238.122 43.2779C238.257 43.3222 238.395 43.3572 238.535 43.3826C238.661 43.4061 238.789 43.4187 238.917 43.4202C239.232 43.4416 239.548 43.3707 239.824 43.2161C239.921 43.152 239.999 43.0638 240.051 42.9602C240.104 42.8566 240.128 42.7413 240.122 42.6254C240.125 42.4983 240.091 42.3731 240.023 42.2656C239.95 42.1605 239.859 42.0695 239.754 41.9971C239.621 41.9051 239.48 41.8243 239.333 41.7554L238.814 41.5138C238.616 41.4081 238.431 41.3007 238.261 41.1915C238.099 41.0899 237.949 40.9691 237.816 40.8317C237.691 40.702 237.591 40.551 237.52 40.386C237.445 40.2021 237.408 40.0047 237.413 39.806C237.407 39.5553 237.471 39.3079 237.598 39.0918C237.721 38.8906 237.888 38.7199 238.087 38.5923C238.299 38.4567 238.532 38.3577 238.777 38.2996C239.035 38.2355 239.3 38.2031 239.566 38.203C240.024 38.1744 240.481 38.2449 240.909 38.4097V39.3656C240.533 39.114 240.086 38.9889 239.633 39.0085C239.489 39.0084 239.345 39.0219 239.204 39.0488C239.07 39.073 238.942 39.1184 238.823 39.1831C238.717 39.2422 238.625 39.3238 238.554 39.422C238.482 39.5259 238.445 39.6501 238.449 39.7765C238.446 39.8944 238.474 40.0111 238.53 40.1148C238.59 40.22 238.671 40.3114 238.769 40.3833C238.889 40.4719 239.016 40.5492 239.15 40.6142C239.3 40.6894 239.475 40.77 239.674 40.8559C239.872 40.9418 240.064 41.0528 240.248 41.1889C240.421 41.2992 240.58 41.4289 240.724 41.5755C240.858 41.7126 240.968 41.8715 241.049 42.0454C241.132 42.2302 241.173 42.4309 241.169 42.6335C241.178 42.8948 241.115 43.1535 240.989 43.3826C240.872 43.5847 240.707 43.7552 240.509 43.8794C240.294 44.009 240.057 44.0999 239.811 44.1479C239.537 44.2062 239.258 44.235 238.978 44.2338C238.882 44.2338 238.762 44.2266 238.618 44.2123C238.475 44.198 238.322 44.1711 238.159 44.1318C238.017 44.1043 237.876 44.0693 237.738 44.027C237.623 43.9961 237.513 43.95 237.41 43.8901Z" fill="#465154"/>
        <path d="M244.501 44.2206C244.11 44.2262 243.722 44.1532 243.359 44.0058C243.029 43.869 242.731 43.663 242.487 43.4016C242.239 43.1327 242.048 42.8167 241.926 42.4726C241.789 42.0892 241.722 41.6846 241.727 41.2777C241.721 40.8468 241.789 40.4182 241.928 40.0103C242.05 39.6505 242.245 39.3196 242.5 39.0383C242.752 38.7666 243.061 38.5539 243.405 38.4153C243.784 38.2641 244.189 38.1893 244.597 38.1951C244.979 38.1902 245.359 38.2633 245.712 38.41C246.039 38.5476 246.333 38.7536 246.574 39.0141C246.819 39.2837 247.008 39.5995 247.129 39.9432C247.264 40.3259 247.331 40.7295 247.325 41.1354C247.332 41.6541 247.228 42.1683 247.022 42.6444C246.847 43.0551 246.57 43.4139 246.216 43.6862L247.908 44.9053H246.437L245.397 44.0997C245.256 44.1381 245.113 44.1677 244.968 44.1884C244.813 44.2104 244.657 44.2211 244.501 44.2206ZM244.546 39.0463C244.294 39.0432 244.045 39.0964 243.816 39.2021C243.595 39.306 243.4 39.4572 243.244 39.6451C243.077 39.8476 242.951 40.08 242.871 40.3298C242.78 40.6163 242.735 40.9154 242.739 41.2159C242.736 41.5144 242.78 41.8116 242.868 42.0966C242.944 42.3447 243.066 42.5762 243.228 42.7787C243.378 42.9639 243.568 43.1134 243.784 43.2163C244.009 43.3222 244.255 43.3754 244.503 43.3721C244.761 43.3766 245.017 43.3272 245.255 43.2271C245.474 43.1318 245.668 42.9876 245.822 42.8055C245.986 42.6074 246.108 42.3781 246.182 42.1315C246.27 41.8381 246.312 41.533 246.308 41.2267C246.313 40.9136 246.272 40.6016 246.187 40.3003C246.117 40.0512 245.998 39.8185 245.838 39.6156C245.689 39.4323 245.498 39.2869 245.282 39.1913C245.05 39.0915 244.799 39.0421 244.546 39.0463Z" fill="#465154"/>
        <path d="M251.5 44.1212H248.277V38.2944H249.244V43.3049H251.505L251.5 44.1212Z" fill="#465154"/>
        <path d="M215.633 54.1094V48.2827H217.316C219.464 48.2827 220.539 49.2297 220.539 51.1236C220.554 51.5287 220.48 51.9323 220.324 52.3065C220.168 52.6806 219.932 53.0163 219.634 53.2905C218.967 53.8562 218.109 54.1446 217.236 54.096L215.633 54.1094ZM216.597 49.1017V53.2932H217.37C217.659 53.3113 217.948 53.2709 218.221 53.1745C218.493 53.078 218.744 52.9275 218.957 52.732C219.154 52.5202 219.306 52.2705 219.403 51.9981C219.501 51.7258 219.542 51.4364 219.524 51.1477C219.524 49.7855 218.817 49.1044 217.405 49.1044L216.597 49.1017Z" fill="#465154"/>
        <path d="M224.576 54.1093H223.66V53.4595H223.644C223.525 53.6911 223.344 53.8843 223.12 54.0169C222.896 54.1495 222.639 54.216 222.379 54.2087C222.027 54.2281 221.682 54.1085 221.418 53.8757C221.302 53.7613 221.211 53.6238 221.151 53.4721C221.092 53.3204 221.064 53.1579 221.071 52.995C221.071 52.2092 221.524 51.7509 222.43 51.6202L223.665 51.4457C223.665 50.8532 223.383 50.5569 222.819 50.5569C222.324 50.5564 221.846 50.7391 221.477 51.0698V50.2454C221.939 49.9796 222.464 49.845 222.997 49.8561C224.047 49.8561 224.573 50.3734 224.573 51.4081L224.576 54.1093ZM223.66 52.066L222.787 52.1868C222.571 52.2034 222.361 52.2706 222.175 52.3828C222.102 52.4437 222.045 52.5216 222.01 52.6096C221.974 52.6977 221.961 52.7932 221.971 52.8876C221.968 52.9691 221.984 53.0501 222.017 53.1248C222.049 53.1995 222.098 53.2662 222.159 53.3199C222.3 53.4376 222.48 53.498 222.664 53.4891C222.8 53.4949 222.935 53.471 223.061 53.4191C223.186 53.3672 223.299 53.2884 223.391 53.1884C223.576 52.9795 223.672 52.707 223.66 52.4285V52.066Z" fill="#465154"/>
        <path d="M227.82 54.0668C227.591 54.1675 227.342 54.2143 227.092 54.2037C226.285 54.2037 225.881 53.8162 225.881 53.0411V50.6996H225.186V49.9478H225.881V48.9838L226.823 48.7153V49.9478H227.82V50.6996H226.823V52.7806C226.805 52.9698 226.852 53.1596 226.958 53.3176C227.016 53.3756 227.087 53.4198 227.164 53.4472C227.242 53.4746 227.324 53.4845 227.406 53.4761C227.556 53.4794 227.702 53.431 227.82 53.3391V54.0668Z" fill="#465154"/>
        <path d="M231.867 54.1093H230.951V53.4595H230.935C230.816 53.6911 230.635 53.8843 230.411 54.0169C230.187 54.1495 229.93 54.216 229.67 54.2087C229.318 54.2281 228.973 54.1085 228.709 53.8757C228.593 53.7613 228.502 53.6238 228.442 53.4721C228.383 53.3204 228.355 53.1579 228.362 52.995C228.362 52.2092 228.815 51.7509 229.721 51.6202L230.956 51.4457C230.956 50.8532 230.674 50.5569 230.11 50.5569C229.615 50.5564 229.137 50.7391 228.768 51.0698V50.2454C229.23 49.9796 229.755 49.845 230.288 49.8561C231.338 49.8561 231.864 50.3734 231.864 51.4081L231.867 54.1093ZM230.956 52.066L230.084 52.1868C229.867 52.2034 229.657 52.2706 229.471 52.3828C229.398 52.4437 229.342 52.5216 229.306 52.6096C229.271 52.6977 229.257 52.7932 229.267 52.8876C229.265 52.9691 229.28 53.0501 229.313 53.1248C229.345 53.1995 229.394 53.2662 229.455 53.3199C229.596 53.4376 229.777 53.498 229.96 53.4891C230.094 53.4926 230.227 53.4674 230.35 53.415C230.473 53.3627 230.584 53.2845 230.674 53.1857C230.865 52.9782 230.966 52.7044 230.956 52.4231V52.066Z" fill="#465154"/>
        <path d="M233.891 53.5079H233.864V54.1094H232.93V47.9497H233.864V50.6805H233.88C234.014 50.4232 234.218 50.2089 234.468 50.0622C234.719 49.9154 235.005 49.8422 235.295 49.8508C235.534 49.8365 235.772 49.8799 235.99 49.9771C236.209 50.0743 236.4 50.2225 236.549 50.4093C236.865 50.8428 237.023 51.3718 236.995 51.9076C237.026 52.506 236.849 53.0968 236.496 53.5804C236.334 53.7859 236.125 53.95 235.888 54.0592C235.65 54.1685 235.39 54.2197 235.129 54.2088C234.878 54.2196 234.628 54.1597 234.409 54.0357C234.191 53.9118 234.011 53.729 233.891 53.5079ZM233.864 51.8539V52.3694C233.857 52.6551 233.961 52.9324 234.154 53.1428C234.257 53.2502 234.382 53.334 234.52 53.3883C234.658 53.4427 234.807 53.4664 234.955 53.4577C235.104 53.449 235.248 53.4082 235.379 53.338C235.51 53.2679 235.625 53.1701 235.714 53.0515C235.932 52.7123 236.036 52.3126 236.012 51.9103C236.035 51.5686 235.94 51.2293 235.744 50.949C235.654 50.8359 235.539 50.7456 235.408 50.6854C235.277 50.6252 235.133 50.5968 234.989 50.6026C234.837 50.5978 234.685 50.6274 234.546 50.6892C234.406 50.751 234.282 50.8435 234.184 50.9597C233.97 51.208 233.856 51.5266 233.864 51.8539Z" fill="#465154"/>
        <path d="M241.072 54.1094H240.156V53.4596H240.14C240.021 53.6911 239.84 53.8844 239.616 54.017C239.392 54.1495 239.135 54.216 238.875 54.2087C238.523 54.2281 238.178 54.1086 237.914 53.8758C237.798 53.7614 237.707 53.6239 237.647 53.4722C237.588 53.3204 237.56 53.1579 237.568 52.9951C237.568 52.2092 238.02 51.7509 238.926 51.6203L240.161 51.4457C240.161 50.8532 239.879 50.557 239.316 50.557C238.82 50.5565 238.342 50.7391 237.973 51.0698V50.2455C238.437 49.9759 238.967 49.8393 239.503 49.8508C240.554 49.8508 241.08 50.3681 241.08 51.4028L241.072 54.1094ZM240.161 52.066L239.289 52.1868C239.072 52.2035 238.862 52.2706 238.676 52.3828C238.604 52.4437 238.547 52.5216 238.511 52.6097C238.476 52.6977 238.462 52.7932 238.472 52.8876C238.47 52.9691 238.486 53.0501 238.518 53.1248C238.551 53.1996 238.599 53.2662 238.66 53.3199C238.801 53.4376 238.982 53.498 239.165 53.4891C239.299 53.4927 239.432 53.4674 239.555 53.4151C239.678 53.3627 239.789 53.2845 239.879 53.1857C240.07 52.9783 240.171 52.7044 240.161 52.4231V52.066Z" fill="#465154"/>
        <path d="M241.943 53.9809V53.1163C242.275 53.3778 242.686 53.5197 243.109 53.5191C243.678 53.5191 243.963 53.3508 243.963 53.0143C243.965 52.928 243.94 52.8431 243.89 52.7726C243.837 52.7016 243.77 52.6414 243.694 52.5954C243.602 52.5388 243.504 52.492 243.401 52.4558L243.025 52.3188C242.867 52.257 242.713 52.1853 242.564 52.104C242.437 52.0329 242.322 51.9423 242.223 51.8355C242.133 51.7409 242.064 51.6296 242.019 51.5079C241.97 51.371 241.946 51.2263 241.949 51.081C241.944 50.892 241.993 50.7056 242.091 50.5439C242.188 50.3884 242.318 50.2563 242.472 50.1573C242.638 50.0503 242.819 49.9706 243.009 49.921C243.216 49.8683 243.428 49.8421 243.64 49.8431C243.992 49.8376 244.341 49.8968 244.671 50.0177V50.842C244.375 50.6404 244.023 50.5353 243.665 50.5413C243.556 50.5403 243.448 50.5529 243.342 50.5789C243.255 50.5992 243.172 50.6337 243.095 50.6809C243.031 50.7202 242.977 50.7734 242.937 50.8366C242.899 50.897 242.88 50.9669 242.88 51.038C242.878 51.1179 242.897 51.1969 242.937 51.2662C242.98 51.3332 243.038 51.3892 243.106 51.43C243.191 51.4821 243.281 51.5253 243.375 51.5589L243.734 51.6878C243.898 51.7539 244.059 51.8283 244.215 51.9107C244.348 51.9827 244.47 52.0731 244.577 52.1792C244.676 52.2735 244.755 52.3868 244.808 52.5121C244.865 52.6546 244.893 52.8072 244.889 52.9606C244.894 53.155 244.844 53.3468 244.744 53.5137C244.645 53.6714 244.512 53.8046 244.355 53.903C244.181 54.01 243.99 54.0872 243.791 54.1313C243.571 54.1822 243.345 54.2074 243.119 54.2065C242.716 54.2159 242.315 54.139 241.943 53.9809Z" fill="#465154"/>
        <path d="M249.276 52.2861H246.438C246.432 52.4511 246.461 52.6155 246.522 52.7689C246.583 52.9223 246.675 53.0615 246.792 53.1776C247.051 53.3981 247.384 53.5105 247.724 53.4918C248.164 53.4935 248.593 53.3543 248.948 53.0944V53.8542C248.49 54.1122 247.969 54.236 247.444 54.2114C247.178 54.2261 246.911 54.1831 246.662 54.0853C246.413 53.9875 246.188 53.8373 246.003 53.6448C245.631 53.1996 245.443 52.6289 245.479 52.0498C245.454 51.4667 245.661 50.8974 246.054 50.4656C246.234 50.2676 246.455 50.1105 246.702 50.005C246.948 49.8994 247.214 49.8477 247.482 49.8534C247.728 49.8377 247.975 49.8779 248.204 49.9709C248.433 50.0639 248.638 50.2073 248.803 50.3904C249.137 50.826 249.303 51.3675 249.27 51.9156L249.276 52.2861ZM248.363 51.6175C248.377 51.3346 248.293 51.0554 248.124 50.8281C248.044 50.7347 247.944 50.6607 247.832 50.6119C247.719 50.563 247.597 50.5405 247.474 50.5462C247.344 50.5442 247.216 50.5697 247.097 50.6211C246.978 50.6725 246.871 50.7485 246.784 50.8442C246.587 51.0586 246.466 51.3309 246.438 51.6202L248.363 51.6175Z" fill="#465154"/>
        <path d="M232.237 15.1889C226.963 15.1889 222.686 13.6987 222.686 11.7332V30.1478C222.686 32.0274 226.888 33.574 232.102 33.6035H232.237C237.51 33.6035 241.788 32.1133 241.788 30.1478V11.7305C241.788 13.645 237.51 15.1889 232.237 15.1889Z" fill="url(#paint3_linear_8130_78706)"/>
        <path d="M241.788 11.7302C241.788 13.6527 237.513 15.1859 232.237 15.1859C226.96 15.1859 222.686 13.6984 222.686 11.7302C222.686 9.76198 226.963 8.27441 232.237 8.27441C237.51 8.27441 241.788 9.76466 241.788 11.7302Z" fill="#E8E8E8"/>
        <path d="M239.567 11.4484C239.567 12.6701 236.28 13.6448 232.237 13.6448C228.193 13.6448 224.906 12.6621 224.906 11.4403C224.906 10.2186 228.198 9.25732 232.237 9.25732C236.275 9.25732 239.567 10.2401 239.567 11.4484Z" fill="#50E6FF"/>
        <path d="M232.237 11.999C230.27 11.9457 228.31 12.23 226.439 12.8394C228.31 13.4404 230.27 13.713 232.234 13.6449C234.201 13.7023 236.163 13.4095 238.028 12.7803C236.155 12.1997 234.197 11.9356 232.237 11.999Z" fill="#198AB3"/>
        <path d="M238.047 24.5143V19.4501H236.704V25.6017H240.369V24.5143H238.047ZM227.419 22.0251C227.142 21.9138 226.885 21.7578 226.659 21.5633C226.599 21.4997 226.551 21.4247 226.521 21.3426C226.49 21.2605 226.476 21.173 226.479 21.0854C226.475 20.9982 226.493 20.9113 226.532 20.8332C226.571 20.7552 226.63 20.6885 226.702 20.6396C226.885 20.5124 227.105 20.4492 227.328 20.4597C227.856 20.4387 228.377 20.5915 228.81 20.8947V19.6139C228.334 19.4366 227.827 19.3554 227.32 19.3749C226.739 19.3472 226.168 19.5271 225.708 19.8824C225.507 20.0382 225.345 20.2397 225.236 20.4703C225.127 20.7009 225.075 20.954 225.083 21.2089C225.083 21.9688 225.561 22.5514 226.573 23.0106C226.902 23.1505 227.212 23.3309 227.497 23.5476C227.566 23.6063 227.623 23.6794 227.661 23.762C227.7 23.8445 227.72 23.9345 227.72 24.0256C227.72 24.116 227.698 24.2052 227.656 24.2855C227.615 24.3659 227.554 24.4351 227.481 24.4874C227.278 24.6063 227.044 24.6633 226.809 24.6512C226.215 24.6432 225.643 24.4211 225.198 24.0256V25.4111C225.69 25.6652 226.24 25.7882 226.793 25.7682C227.418 25.8055 228.037 25.6325 228.552 25.2768C228.732 25.106 228.87 24.8959 228.955 24.6631C229.04 24.4302 229.07 24.1808 229.043 23.9343C229.05 23.5531 228.917 23.1827 228.67 22.8924C228.32 22.5176 227.893 22.2219 227.419 22.0251ZM235.206 24.3854C235.529 23.867 235.7 23.2684 235.7 22.6575C235.7 22.0466 235.529 21.448 235.206 20.9296C234.975 20.4683 234.616 20.0833 234.172 19.8207C233.718 19.5635 233.204 19.4301 232.682 19.434C232.118 19.4215 231.562 19.5606 231.071 19.8368C230.611 20.0937 230.233 20.4766 229.983 20.9404C229.72 21.4676 229.587 22.0506 229.597 22.64C229.602 23.1533 229.725 23.6585 229.956 24.1169C230.184 24.5775 230.541 24.9612 230.985 25.2205C231.435 25.4945 231.948 25.648 232.475 25.6662L233.756 27.1564H235.558L233.726 25.5185C234.34 25.331 234.865 24.9287 235.206 24.3854ZM233.716 24.0121C233.58 24.1805 233.407 24.3152 233.21 24.4056C233.014 24.4959 232.799 24.5396 232.582 24.5331C232.364 24.5403 232.148 24.4953 231.951 24.4019C231.754 24.3085 231.582 24.1693 231.449 23.996C231.138 23.5643 230.989 23.0367 231.028 22.5058C230.993 21.9738 231.146 21.4465 231.46 21.0155C231.6 20.8428 231.778 20.7037 231.979 20.6084C232.18 20.5131 232.4 20.4642 232.623 20.4651C232.84 20.4558 233.056 20.5013 233.252 20.5975C233.447 20.6937 233.615 20.8374 233.74 21.0155C234.03 21.4562 234.167 21.9796 234.132 22.5058C234.19 23.0443 234.046 23.5853 233.726 24.0229L233.716 24.0121Z" fill="url(#paint4_radial_8130_78706)"/>
    </g>
    <rect width="91.8691" height="61.2461" transform="translate(279.102 0.618652)" fill="white"/>
    <g clip-path="url(#clip3_8130_78706)">
        <path d="M319.257 32.5424H323.653L321.338 28.8012L317.076 35.5622H315.13L320.314 27.459C320.532 27.1235 320.918 26.939 321.321 26.939C321.723 26.939 322.109 27.1235 322.327 27.459L327.528 35.579H325.582L324.676 34.0691H320.23L319.257 32.5424ZM339.389 34.0523V27.0061H337.745V34.7401C337.745 34.9582 337.829 35.1595 337.98 35.3105C338.148 35.4783 338.349 35.5622 338.584 35.5622H346.083L347.056 34.0523H339.389ZM312.178 32.794C313.771 32.794 315.063 31.5022 315.063 29.9084C315.063 28.3147 313.771 27.0228 312.178 27.0228H304.98V35.579H306.624V28.5327H312.06C312.832 28.5327 313.436 29.1535 313.436 29.9252C313.436 30.6969 312.815 31.3177 312.06 31.3177H307.43L312.345 35.5957H314.728L311.439 32.794H312.178ZM294.864 35.5622C292.498 35.5622 290.586 33.6496 290.586 31.2841C290.586 28.9186 292.498 27.0061 294.864 27.0061H299.83C302.195 27.0061 304.108 28.9186 304.108 31.2841C304.108 33.6496 302.195 35.5622 299.83 35.5622H294.864ZM299.729 34.0523C301.256 34.0523 302.497 32.8108 302.497 31.2841C302.497 29.7574 301.256 28.516 299.729 28.516H294.981C293.438 28.516 292.196 29.7574 292.196 31.2841C292.196 32.8108 293.438 34.0523 294.965 34.0523H299.729ZM330.967 35.5622C328.602 35.5622 326.689 33.6496 326.689 31.2841C326.689 28.9186 328.602 27.0061 330.967 27.0061H336.873L335.9 28.516H331.068C329.541 28.516 328.3 29.7574 328.3 31.2841C328.3 32.8108 329.541 34.0523 331.068 34.0523H336.99L336.017 35.5622H330.967ZM351.083 34.0523C349.824 34.0523 348.751 33.1967 348.415 32.0391H355.445L356.418 30.5292H348.415C348.751 29.3716 349.808 28.516 351.083 28.516H355.914L356.887 27.0061H350.982C348.616 27.0061 346.704 28.9186 346.704 31.2841C346.704 33.6496 348.616 35.5622 350.982 35.5622H356.065L357.038 34.0523H351.083Z" fill="#ED1C24"/>
        <path d="M357.76 27.9122C357.76 27.4927 358.095 27.1572 358.515 27.1572C358.934 27.1572 359.27 27.4927 359.27 27.9122C359.27 28.3316 358.934 28.6671 358.515 28.6671C358.095 28.6671 357.76 28.3316 357.76 27.9122ZM358.515 28.8852C359.052 28.8852 359.471 28.449 359.471 27.9289C359.471 27.3921 359.035 26.9727 358.515 26.9727C357.978 26.9727 357.559 27.4088 357.559 27.9289C357.559 28.449 357.978 28.8852 358.515 28.8852ZM358.414 27.3417C358.565 27.3417 358.616 27.3417 358.699 27.3753C358.884 27.4424 358.901 27.6102 358.901 27.6773C358.901 27.6941 358.901 27.7276 358.884 27.7612C358.867 27.7947 358.85 27.8786 358.75 27.9457C358.733 27.9457 358.733 27.9625 358.699 27.9625L358.951 28.4155H358.716L358.498 27.996H358.364V28.4322H358.146V27.3417H358.414ZM358.498 27.845C358.565 27.845 358.632 27.845 358.683 27.7779C358.699 27.7444 358.699 27.7276 358.699 27.6773C358.699 27.6269 358.666 27.5766 358.616 27.5431C358.565 27.5263 358.515 27.5263 358.414 27.5263H358.364V27.8283H358.498V27.845Z" fill="#ED1C24"/>
    </g>
    <rect width="91.8691" height="61.2461" transform="translate(371.928 0.618652)" fill="white"/>
    <g clip-path="url(#clip4_8130_78706)">
        <path d="M393.094 47.9856H390.345V44.6516H393.257C394.319 44.6516 394.85 45.2172 394.85 46.3482C394.85 47.4793 394.265 48.0251 393.094 47.9856ZM395.065 44.5775C394.861 44.3683 394.615 44.2051 394.343 44.099C394.07 43.9929 393.779 43.9464 393.487 43.9626L389.553 44.0219V51.9863H390.345V48.6079H393.257C393.572 48.6253 393.888 48.5798 394.186 48.4743C394.483 48.3687 394.757 48.2051 394.991 47.993C395.209 47.7702 395.378 47.504 395.486 47.2117C395.595 46.9194 395.64 46.6075 395.621 46.2964C395.665 45.673 395.466 45.0567 395.065 44.5775ZM400.199 50.2971C400.128 50.5507 399.999 50.7841 399.821 50.9787C399.616 51.2005 399.364 51.373 399.083 51.4834C398.802 51.5937 398.5 51.639 398.199 51.6159C397.922 51.6293 397.646 51.5819 397.39 51.4769C397.134 51.3719 396.904 51.212 396.717 51.0084C396.336 50.5578 396.133 49.9832 396.147 49.3933C396.142 49.0716 396.189 48.7513 396.287 48.4449C396.369 48.1869 396.506 47.9494 396.687 47.7485C396.877 47.5482 397.107 47.391 397.363 47.2875C397.619 47.1839 397.894 47.1365 398.169 47.1484C399.592 47.1484 400.303 47.8893 400.303 49.371C400.308 49.6887 400.268 50.0055 400.184 50.312M400.325 47.3484C400.046 47.0679 399.709 46.8511 399.339 46.7129C398.968 46.5748 398.571 46.5186 398.177 46.5483C397.792 46.525 397.408 46.5858 397.049 46.7266C396.691 46.8674 396.368 47.0846 396.102 47.3632C395.641 47.9376 395.419 48.6669 395.48 49.4007C395.448 50.1294 395.691 50.8435 396.161 51.401C396.402 51.6697 396.705 51.8756 397.043 52.0012C397.424 52.1327 397.825 52.1954 398.228 52.1864C398.622 52.2141 399.016 52.1584 399.387 52.0231C399.757 51.8878 400.094 51.6758 400.377 51.401C400.809 50.8235 401.042 50.1217 401.042 49.4007C401.042 48.6796 400.809 47.9779 400.377 47.4003L400.325 47.3484ZM406.304 50.5268C406.304 51.6036 405.506 52.1419 403.911 52.1419C403.498 52.1494 403.086 52.1122 402.681 52.0308C402.384 51.9738 402.105 51.8468 401.866 51.6604C401.699 51.5227 401.567 51.3476 401.481 51.1491C401.376 50.8944 401.313 50.6241 401.296 50.349H402.037C402.022 50.524 402.05 50.6998 402.117 50.862C402.184 51.0243 402.288 51.1684 402.422 51.2825C402.86 51.5683 403.383 51.6963 403.904 51.6455C405.02 51.6455 405.578 51.3072 405.578 50.6305C405.587 50.4517 405.536 50.275 405.434 50.1277C405.333 49.9804 405.185 49.8707 405.015 49.8156C404.941 49.7859 404.491 49.7118 403.666 49.5933C403.151 49.5465 402.642 49.4447 402.148 49.2895C401.935 49.1892 401.757 49.0261 401.639 48.8222C401.522 48.6183 401.469 48.3833 401.488 48.1486C401.473 47.9141 401.52 47.6799 401.624 47.4692C401.728 47.2586 401.886 47.079 402.081 46.9484C402.314 46.8269 402.563 46.7419 402.822 46.6965C403.156 46.6326 403.496 46.6028 403.837 46.6076C405.373 46.6076 406.141 47.1879 406.141 48.3486H405.4C405.4 47.5337 404.859 47.1188 403.778 47.1188C403.353 47.0925 402.928 47.1794 402.548 47.3707C402.42 47.4463 402.314 47.555 402.243 47.6853C402.171 47.8156 402.136 47.9629 402.14 48.1115C402.144 48.2712 402.2 48.4253 402.299 48.5508C402.398 48.6763 402.534 48.7665 402.689 48.808C403.175 48.9314 403.67 49.0156 404.17 49.0599C404.658 49.0839 405.139 49.189 405.593 49.371C405.822 49.4643 406.016 49.6263 406.148 49.8347C406.281 50.0431 406.346 50.2875 406.334 50.5342L406.304 50.5268ZM409.216 52.0086L408.912 52.0604H408.727C408.36 52.0919 407.994 52.0035 407.682 51.8085C407.564 51.6947 407.474 51.5553 407.419 51.4012C407.364 51.247 407.345 51.0822 407.363 50.9195V47.304H406.519V46.8002H407.393V45.0517H408.075V46.8002H409.26V47.341H408.075V50.8824C408.064 50.98 408.074 51.0788 408.105 51.1721C408.136 51.2654 408.186 51.351 408.253 51.4233C408.438 51.5405 408.657 51.5926 408.875 51.5714C408.922 51.5788 408.969 51.5788 409.016 51.5714L409.253 51.5048V52.0456L409.216 52.0086ZM413.891 50.8009C413.713 50.9897 413.498 51.1409 413.261 51.2455C413.003 51.342 412.729 51.3873 412.453 51.3788C412.164 51.4222 411.869 51.3974 411.592 51.3065C411.314 51.2156 411.062 51.061 410.854 50.8552C410.647 50.6493 410.491 50.3979 410.398 50.1209C410.305 49.8439 410.278 49.5491 410.32 49.2599C410.303 48.98 410.343 48.6997 410.436 48.4352C410.528 48.1707 410.673 47.9272 410.86 47.7189C411.063 47.5262 411.303 47.3774 411.566 47.2818C411.828 47.1861 412.108 47.1458 412.387 47.1632C412.66 47.1475 412.934 47.1903 413.189 47.2887C413.445 47.3871 413.676 47.5388 413.868 47.7337C414.22 48.1452 414.403 48.6747 414.38 49.2154C414.417 49.7922 414.228 50.3609 413.854 50.8009M415.12 46.8002H414.446V47.7041C414.257 47.4521 414.043 47.2189 413.809 47.0076C413.364 46.7364 412.848 46.6048 412.327 46.6298C411.967 46.59 411.602 46.6316 411.26 46.7515C410.918 46.8713 410.608 47.0664 410.351 47.3224C410.094 47.5783 409.898 47.8886 409.777 48.2303C409.657 48.5721 409.614 48.9366 409.653 49.2969C409.648 49.6742 409.706 50.0497 409.823 50.4083C409.925 50.7045 410.086 50.9768 410.297 51.2084C410.561 51.4536 410.871 51.6425 411.21 51.7635C411.549 51.8845 411.909 51.9352 412.268 51.9123C412.687 51.9527 413.109 51.8807 413.49 51.7035C413.872 51.5264 414.199 51.2506 414.439 50.9047V51.8382C414.478 52.3368 414.321 52.831 414.002 53.2162C413.794 53.3966 413.551 53.533 413.289 53.6171C413.026 53.7011 412.75 53.7311 412.476 53.7052C411.972 53.7486 411.468 53.6291 411.038 53.3644C410.795 53.127 410.641 52.813 410.601 52.4753H409.905C409.934 52.9645 410.155 53.4225 410.52 53.7496C411.11 54.1043 411.797 54.2625 412.483 54.2016C414.251 54.2016 415.135 53.4088 415.135 51.8233V46.8002H415.12ZM418.78 47.3262C418.593 47.2881 418.402 47.2682 418.21 47.2669C417.104 47.2669 416.55 48.0078 416.55 49.4896V51.9863H415.884V46.8002H416.558V47.7337C416.646 47.405 416.835 47.1122 417.099 46.8965C417.464 46.6834 417.884 46.5829 418.306 46.6076H418.758V47.304L418.78 47.3262ZM419.41 49.0228C419.459 48.5134 419.66 48.0305 419.988 47.6374C420.186 47.4612 420.418 47.3275 420.67 47.2447C420.935 47.1471 421.217 47.0994 421.499 47.1039C421.775 47.0935 422.049 47.1416 422.305 47.245C422.56 47.3485 422.791 47.5049 422.981 47.7041C423.327 48.0562 423.521 48.5295 423.522 49.0228H419.418M423.589 47.4077C423.353 47.1346 423.053 46.9256 422.715 46.8002C422.321 46.6545 421.904 46.5841 421.485 46.5927C421.115 46.5577 420.742 46.6043 420.392 46.7294C420.043 46.8544 419.725 47.0548 419.461 47.3163C419.197 47.5779 418.994 47.8942 418.867 48.2428C418.739 48.5915 418.689 48.964 418.721 49.334C418.688 50.0655 418.937 50.7817 419.418 51.3344C419.693 51.6174 420.026 51.8374 420.394 51.9794C420.763 52.1213 421.157 52.1818 421.551 52.1567C421.893 52.1598 422.233 52.1098 422.559 52.0086C422.854 51.9178 423.13 51.7748 423.374 51.5863C423.758 51.2457 424.019 50.787 424.115 50.2823H423.374C423.282 50.7012 423.039 51.0718 422.693 51.3243C422.346 51.5768 421.919 51.6937 421.492 51.6529C421.188 51.6722 420.884 51.623 420.602 51.5089C420.32 51.3947 420.067 51.2186 419.862 50.9936C419.519 50.5784 419.345 50.0495 419.373 49.5118H424.196C424.243 48.7602 424.013 48.0174 423.552 47.4225L423.589 47.4077Z" fill="#231F20"/>
        <path d="M431.383 49.8674C431.383 51.4232 430.344 52.2012 428.264 52.2012C427.287 52.2863 426.314 52.0007 425.538 51.401C425.28 51.1386 425.081 50.8248 424.953 50.48C424.826 50.1353 424.772 49.7675 424.797 49.4006H425.634C425.634 50.8528 426.498 51.5788 428.227 51.5788C428.86 51.6325 429.492 51.4763 430.027 51.1343C430.193 50.9778 430.322 50.786 430.404 50.5732C430.486 50.3604 430.519 50.1318 430.502 49.9044C430.521 49.6694 430.472 49.4337 430.358 49.2268C430.245 49.02 430.073 48.8511 429.864 48.7413C429.303 48.531 428.722 48.3771 428.131 48.2819C427.337 48.1822 426.562 47.9624 425.834 47.6299C425.577 47.4481 425.374 47.2014 425.243 46.915C425.113 46.6287 425.061 46.3129 425.093 46C425.07 45.7027 425.116 45.4041 425.228 45.1277C425.34 44.8513 425.514 44.6046 425.738 44.4071C426.436 43.969 427.257 43.7689 428.079 43.8366C430.114 43.8366 431.131 44.6541 431.131 46.2889H430.302C430.302 45.064 429.546 44.4516 428.034 44.4516C427.457 44.4063 426.879 44.5353 426.375 44.822C426.209 44.9603 426.078 45.1355 425.991 45.3336C425.905 45.5317 425.867 45.7472 425.878 45.963C425.86 46.1928 425.911 46.4229 426.025 46.6235C426.138 46.8242 426.309 46.9864 426.516 47.0891C427.163 47.3329 427.833 47.5092 428.516 47.6151C429.252 47.7051 429.965 47.9285 430.62 48.2745C430.875 48.4511 431.078 48.6926 431.208 48.9739C431.338 49.2552 431.391 49.5663 431.361 49.8748L431.383 49.8674ZM438.177 50.6601C437.871 50.9552 437.508 51.1846 437.11 51.3343C436.688 51.489 436.241 51.5643 435.791 51.5566C435.343 51.5754 434.896 51.4986 434.479 51.3312C434.063 51.1639 433.687 50.9099 433.376 50.5861C432.79 49.8491 432.47 48.9349 432.47 47.993C432.47 47.051 432.79 46.1369 433.376 45.3999C433.693 45.0835 434.071 44.8364 434.488 44.6744C434.906 44.5124 435.352 44.439 435.799 44.459C436.247 44.4368 436.694 44.5136 437.109 44.6839C437.524 44.8542 437.896 45.1138 438.199 45.4443C438.506 45.7626 438.739 46.1446 438.881 46.5631C439.037 47.0411 439.113 47.5419 439.103 48.0448C439.155 49.0163 438.822 49.969 438.177 50.6972M438.622 51.2232C439.05 50.8609 439.381 50.3974 439.585 49.8748C439.803 49.2899 439.908 48.669 439.896 48.0448C439.943 46.9631 439.578 45.9037 438.874 45.0813C438.515 44.673 438.062 44.3578 437.555 44.1626C436.99 43.9448 436.389 43.8342 435.784 43.8366C435.227 43.8056 434.67 43.8911 434.149 44.0875C433.627 44.284 433.152 44.5871 432.754 44.9776C432.379 45.3905 432.09 45.8735 431.903 46.3986C431.716 46.9238 431.635 47.4808 431.665 48.0374C431.639 48.5932 431.725 49.1486 431.915 49.6712C432.106 50.1939 432.399 50.6736 432.776 51.0824C433.176 51.4724 433.652 51.7751 434.175 51.9715C434.698 52.1679 435.256 52.2536 435.814 52.2234C436.254 52.2283 436.694 52.186 437.125 52.0974C437.461 52.0295 437.783 51.9015 438.073 51.7196L439.311 52.7272L439.829 52.1567L438.636 51.1788L438.622 51.2232ZM446.156 51.9863H440.452V43.9996H441.237V51.3566H446.171V51.9863H446.156Z" fill="#326690"/>
        <path d="M422.048 32.5383C422.3 30.7824 422.226 30.5231 423.767 30.812H424.159C425.398 30.8588 426.635 30.6832 427.812 30.2934C429.775 29.5525 430.938 28.2338 429.005 28.5672C424.559 29.3081 424.285 28.0708 424.285 28.0708C428.945 22.203 430.894 14.7349 429.212 12.942C424.611 7.99294 416.684 10.3489 416.536 10.4082H416.491C415.512 10.2422 414.521 10.1555 413.528 10.1489C411.888 10.069 410.263 10.4819 408.86 11.3343C408.86 11.3343 394.687 6.38523 395.347 17.5577C395.48 19.9359 399.37 35.5389 403.993 30.8269C405.704 29.108 407.334 27.6707 407.334 27.6707C408.186 28.1483 409.161 28.3599 410.134 28.2782L410.216 28.219C410.181 28.4423 410.181 28.6698 410.216 28.8932C409.053 29.9971 409.401 30.1971 407.045 30.6342C404.689 31.0713 406.052 31.8048 406.978 32.0049C408.097 32.2419 410.683 32.5827 412.446 30.5231L412.379 30.7602C412.846 31.0788 412.816 33.0421 412.883 34.4646C412.872 35.6448 413.045 36.8195 413.394 37.9467C413.728 38.6876 414.135 40.7028 417.262 40.1693C419.877 39.6952 421.877 39.0136 422.063 32.6494" fill="#231F20"/>
        <path d="M422.048 32.5383C422.3 30.7824 422.226 30.5231 423.767 30.812H424.159C425.398 30.8588 426.635 30.6832 427.812 30.2934C429.775 29.5525 430.938 28.2338 429.005 28.5672C424.559 29.3081 424.285 28.0708 424.285 28.0708C428.945 22.203 430.894 14.7349 429.212 12.942C424.611 7.99294 416.684 10.3489 416.536 10.4082H416.491C415.512 10.2422 414.521 10.1555 413.528 10.1489C411.888 10.069 410.263 10.4819 408.86 11.3343C408.86 11.3343 394.687 6.38523 395.347 17.5577C395.48 19.9359 399.37 35.5389 403.993 30.8269C405.704 29.108 407.334 27.6707 407.334 27.6707C408.186 28.1484 409.161 28.3599 410.134 28.2782L410.216 28.219C410.181 28.4423 410.181 28.6698 410.216 28.8932C409.053 29.9971 409.401 30.1971 407.045 30.6342C404.689 31.0713 406.052 31.8048 406.978 32.0049C408.097 32.2419 410.683 32.5827 412.446 30.5231L412.379 30.7602C412.846 31.0788 412.816 33.0421 412.883 34.4646C412.872 35.6448 413.045 36.8195 413.394 37.9467C413.728 38.6876 414.135 40.7028 417.262 40.1693C419.877 39.6952 421.877 39.0136 422.063 32.6494" stroke="#231F20" stroke-width="3.04502"/>
        <path d="M428.997 28.5897C424.552 29.3306 424.278 28.0933 424.278 28.0933C428.938 22.2256 430.887 14.7575 429.205 12.9646C424.619 7.99325 416.684 10.3492 416.536 10.4085H416.491C415.512 10.2425 414.521 10.1558 413.528 10.1492C411.888 10.0693 410.263 10.4822 408.86 11.3346C408.86 11.3346 394.687 6.38554 395.347 17.558C395.48 19.9362 399.362 35.5392 403.993 30.8272C405.704 29.1083 407.334 27.671 407.334 27.671C408.186 28.1487 409.161 28.3603 410.134 28.2785L410.216 28.2193C410.182 28.4427 410.182 28.67 410.216 28.8935C409.053 29.9974 409.401 30.1974 407.045 30.6345C404.689 31.0717 406.052 31.8051 406.978 32.0052C408.097 32.2422 410.683 32.583 412.446 30.5234L412.379 30.7605C412.846 31.0791 413.172 32.8201 413.12 34.4056C413.068 35.9911 413.031 37.0728 413.394 37.9248C413.757 38.7768 414.135 40.6809 417.262 40.1474C419.877 39.6733 421.233 38.4434 421.426 36.3838C421.559 34.902 421.863 35.1391 421.885 33.8351L422.129 33.2202C422.411 31.2421 422.174 30.6049 423.789 30.9013H424.182C425.42 30.948 426.657 30.7724 427.834 30.3826C429.797 29.6418 430.961 28.323 429.027 28.6564L428.997 28.5897Z" fill="#326690"/>
        <path d="M412.624 29.7602C412.506 33.4646 412.624 37.169 413.084 38.0581C413.543 38.9471 414.417 40.7104 417.529 40.1473C420.144 39.6732 421.1 38.7545 421.507 36.7171C421.804 35.2353 422.397 31.0716 422.471 30.2195M408.868 11.2382C408.868 11.2382 394.68 6.34099 395.347 17.5209C395.495 19.8991 399.363 35.502 403.993 30.7826C405.682 29.0564 407.208 27.6709 407.208 27.6709M416.536 10.3566C416.047 10.4973 424.427 7.76348 429.183 12.92C430.865 14.7426 428.916 22.1884 424.256 28.0488" stroke="white" stroke-width="1.01501" stroke-linecap="round" stroke-linejoin="round"/>
        <path d="M424.249 28.0487C424.249 28.0487 424.546 29.3156 428.969 28.5451C430.902 28.2043 429.709 29.4934 427.776 30.2713C426.168 30.9011 422.59 31.0641 422.493 30.1898C422.338 27.9672 424.39 28.6192 424.249 28.0487ZM424.249 28.0487C424.108 27.4782 423.197 27.0411 422.59 25.8261C421.982 24.611 415.322 16.3502 424.457 17.5949C424.79 17.5356 422.071 10.2305 413.521 10.112C404.971 9.99346 405.253 19.0026 405.253 19.0026" stroke="white" stroke-width="1.01501" stroke-linecap="round" stroke-linejoin="bevel"/>
        <path d="M410.231 28.8266C409.038 29.9527 409.386 30.1527 407.008 30.5676C404.629 30.9825 406.015 31.7382 406.941 31.9383C408.06 32.1753 410.645 32.5162 412.409 30.4565C412.942 29.8268 412.409 28.8118 411.668 28.5524C411.429 28.4384 411.159 28.4056 410.899 28.4591C410.64 28.5126 410.405 28.6495 410.231 28.8488V28.8266Z" stroke="white" stroke-width="1.01501" stroke-linejoin="round"/>
        <path d="M410.15 28.8043C410.153 27.9668 410.38 27.1454 410.809 26.4261C411.417 25.0406 412.817 23.6552 411.698 19.2543C410.861 15.9797 405.253 18.5727 405.253 19.0173C405.389 20.4682 405.357 21.9301 405.156 23.3736C404.704 26.1223 407.216 28.4413 410.113 28.2042" stroke="white" stroke-width="1.01501" stroke-linecap="round" stroke-linejoin="round"/>
        <path d="M408.814 18.9504C408.876 19.1143 408.983 19.2579 409.121 19.3651C409.26 19.4724 409.426 19.5391 409.6 19.5579C409.771 19.584 409.947 19.5585 410.104 19.4846C410.261 19.4108 410.392 19.2918 410.481 19.143C410.481 18.9948 410.155 18.8244 409.696 18.7725C409.237 18.7207 408.814 18.78 408.814 18.9504Z" fill="white" stroke="white" stroke-width="0.340805"/>
        <path d="M422.811 18.6466C422.749 18.8106 422.643 18.9541 422.504 19.0614C422.365 19.1686 422.2 19.2354 422.025 19.2542C421.852 19.2834 421.673 19.2595 421.513 19.1855C421.353 19.1114 421.219 18.9907 421.129 18.8393C421.129 18.6837 421.455 18.5207 421.914 18.4688C422.374 18.417 422.766 18.4688 422.796 18.6466H422.811Z" fill="white" stroke="white" stroke-width="0.170402"/>
        <path d="M424.456 17.5947C424.531 18.7875 424.153 19.5951 424.108 20.862C424.034 22.7068 425.145 24.8109 423.479 26.9224" stroke="white" stroke-width="1.01501" stroke-linecap="round" stroke-linejoin="round"/>
    </g>
    <defs>
        <linearGradient id="paint0_linear_8130_78706" x1="43.787" y1="36.8595" x2="45.0785" y2="36.0963" gradientUnits="userSpaceOnUse">
            <stop stop-color="#909CA9"/>
            <stop offset="1" stop-color="#EDEDEE"/>
        </linearGradient>
        <linearGradient id="paint1_linear_8130_78706" x1="43.8382" y1="11.582" x2="44.8773" y2="11.582" gradientUnits="userSpaceOnUse">
            <stop stop-color="#939FAB"/>
            <stop offset="1" stop-color="#DCDEE1"/>
        </linearGradient>
        <radialGradient id="paint2_radial_8130_78706" cx="0" cy="0" r="1" gradientUnits="userSpaceOnUse" gradientTransform="translate(52.6065 19.3446) rotate(-171.456) scale(1.33995 2.68057)">
            <stop stop-color="#EE352C"/>
            <stop offset="1" stop-color="#A91D22"/>
        </radialGradient>
        <linearGradient id="paint3_linear_8130_78706" x1="222.686" y1="22.667" x2="241.788" y2="22.667" gradientUnits="userSpaceOnUse">
            <stop stop-color="#005BA1"/>
            <stop offset="0.07" stop-color="#0060A9"/>
            <stop offset="0.36" stop-color="#0071C8"/>
            <stop offset="0.52" stop-color="#0078D4"/>
            <stop offset="0.64" stop-color="#0074CD"/>
            <stop offset="0.82" stop-color="#006ABB"/>
            <stop offset="1" stop-color="#005BA1"/>
        </linearGradient>
        <radialGradient id="paint4_radial_8130_78706" cx="0" cy="0" r="1" gradientUnits="userSpaceOnUse" gradientTransform="translate(232.773 23.2764) scale(10.5338)">
            <stop stop-color="#F2F2F2"/>
            <stop offset="0.58" stop-color="#EEEEEE"/>
            <stop offset="1" stop-color="#E6E6E6"/>
        </radialGradient>
        <clipPath id="clip0_8130_78706">
            <rect width="56.9013" height="45.9345" fill="white" transform="translate(18.1055 8.27441)"/>
        </clipPath>
        <clipPath id="clip1_8130_78706">
            <rect width="68.9018" height="35.8485" fill="white" transform="translate(104.934 13.3179)"/>
        </clipPath>
        <clipPath id="clip2_8130_78706">
            <rect width="38.58" height="45.9345" fill="white" transform="translate(212.918 8.27441)"/>
        </clipPath>
        <clipPath id="clip3_8130_78706">
            <rect width="68.9018" height="8.63999" fill="white" transform="translate(290.584 26.9219)"/>
        </clipPath>
        <clipPath id="clip4_8130_78706">
            <rect width="56.618" height="45.9345" fill="white" transform="translate(389.553 8.27441)"/>
        </clipPath>
    </defs>
</svg>
