<svg width="65" height="65" viewBox="0 0 65 65" fill="none" xmlns="http://www.w3.org/2000/svg">
<g id="Frame 1930">
<g clip-path="url(#clip0_6967_63739)">
<path id="Vector" d="M65 0H0V65H65V0Z" fill="#6CC2B7"/>
<path id="Vector_2" d="M16.1333 14.0588L22.7923 20.2134L25.8378 19.7747L28.4975 23.5336L35.5434 16.7747L42.8933 21.6317L45.2463 19.7747L64.9979 30.447V64.9978H26.7742L8.75539 49.769L10.3843 44.6929L8.30603 42.8982C8.30603 42.8982 11.3757 14.8166 16.1333 14.0588Z" fill="#45988A"/>
<path id="Vector_3" d="M16.1331 40.2094V14.0588H8.30975V42.8999L13.1572 41.2334L16.1331 40.2094Z" fill="white"/>
<path id="Vector_4" d="M22.4922 38.0226L22.6865 38.1827L25.8376 40.7806V19.7747H18.0143V39.5623L20.47 38.718L22.4922 38.0226Z" fill="white"/>
<path id="Vector_5" d="M29.8033 44.0492L30.3341 43.8458L35.5438 41.8462V16.7747H27.7199V42.3315L29.5095 43.8071L29.8033 44.0492Z" fill="white"/>
<path id="Vector_6" d="M45.2484 38.1209V19.7747H37.425V41.1238L40.479 39.9521L45.2484 38.1209Z" fill="white"/>
<path id="Vector_7" d="M49.1703 34.4565L50.6527 38.211L50.4302 38.2963L45.2485 40.2853L40.4791 42.1165L37.4252 43.2887L36.1726 43.7696L35.544 44.0111L30.3343 46.0107L29.8035 46.2135L29.5097 45.9714L27.7201 44.4964L25.8378 42.945L22.6867 40.3471L22.4924 40.187L20.4702 40.8824L18.0145 41.7272L16.1333 42.3737L13.1575 43.3983L8.30999 45.0648L6.97931 45.5226L8.75766 49.7713L16.1333 47.256L18.0145 46.6146L21.0752 45.5704L21.5038 45.4238L21.7172 45.6007L25.8378 49.0254L28.5194 51.2531L31.9306 49.9724L35.544 48.6159L37.4252 47.9093L41.1144 46.5236L41.3419 46.4376L45.2485 44.9716L51.9367 42.4597L53.7156 46.2135L60.3358 36.2349L49.1703 34.4565Z" fill="white"/>
</g>
</g>
<defs>
<clipPath id="clip0_6967_63739">
<rect width="65" height="65" rx="32.5" fill="white"/>
</clipPath>
</defs>
</svg>
