<svg width="65" height="65" viewBox="0 0 65 65" fill="none" xmlns="http://www.w3.org/2000/svg">
<g id="Frame 1929">
<g clip-path="url(#clip0_6967_63731)">
<path id="Vector" d="M64.9997 0H0V64.9995H64.9997V0Z" fill="#A571AC"/>
<path id="Vector_2" d="M16.1249 49.8291L29.3024 65H65V31.6437L50.9115 15.0427L39.7011 24.1237L27.3583 15.2534L19.576 14.1367L25.5632 20.8518L19.9001 25.3746L28.1341 34.6392L16.1249 49.8291Z" fill="#774880"/>
<path id="Vector_3" d="M16.1248 49.8291C17.0493 50.7548 18.6193 50.6863 19.632 49.6735L31.2271 38.079C32.2382 37.068 32.3084 35.4952 31.3822 34.5718L32.373 33.5809L33.2116 34.4533L38.677 40.1421C38.9537 40.4296 39.1632 40.7749 39.2903 41.1532C38.9103 42.3769 38.9079 43.6868 39.2834 44.9119C39.659 46.1371 40.3951 47.2206 41.3958 48.0211C42.3964 48.8216 43.615 49.3019 44.8927 49.3994C46.1704 49.4969 47.4479 49.207 48.5583 48.5676L43.3907 45.5681C43.235 45.4783 43.0986 45.3587 42.9892 45.216C42.8799 45.0734 42.7998 44.9105 42.7536 44.7368C42.7073 44.5631 42.6958 44.382 42.7198 44.2039C42.7437 44.0258 42.8026 43.8541 42.8931 43.6988L44.7231 40.542C44.8131 40.3866 44.9329 40.2504 45.0756 40.1413C45.2183 40.0322 45.3812 39.9523 45.5548 39.9062C45.7284 39.8601 45.9094 39.8487 46.0875 39.8726C46.2655 39.8965 46.4371 39.9552 46.5924 40.0455L51.76 43.045C51.7639 42.0507 51.5348 41.0693 51.0911 40.1796C50.6474 39.2898 50.0014 38.5163 49.2049 37.9211C48.4085 37.3259 47.4837 36.9256 46.5046 36.7522C45.5256 36.5787 44.5195 36.6371 43.5671 36.9225C43.2286 36.7798 42.9228 36.5695 42.6684 36.3046L36.2869 29.6659L45.6274 20.3272L49.3863 18.8044L50.9113 15.041L48.6763 12.8049L44.9169 14.3316L43.3918 18.0922L34.0952 27.3882L29.4572 22.5605C29.1811 22.2722 28.9712 21.9272 28.8422 21.5494C29.2222 20.3257 29.2246 19.0158 28.8491 17.7906C28.4735 16.5655 27.7374 15.482 26.7367 14.6815C25.7361 13.881 24.5175 13.4007 23.2398 13.3032C21.9621 13.2057 20.6846 13.4956 19.5741 14.135L24.7418 17.1351C25.0554 17.3172 25.2838 17.6164 25.377 17.9669C25.4702 18.3174 25.4205 18.6905 25.2389 19.0044L23.4111 22.1589C23.3209 22.3144 23.201 22.4507 23.0582 22.5599C22.9154 22.669 22.7524 22.749 22.5787 22.7952C22.4049 22.8415 22.2238 22.853 22.0456 22.8292C21.8674 22.8054 21.6956 22.7467 21.5401 22.6565L16.3725 19.6554C16.3693 20.6495 16.5989 21.6305 17.0428 22.52C17.4868 23.4094 18.1328 24.1826 18.9291 24.7777C19.7254 25.3727 20.65 25.7731 21.6288 25.9468C22.6076 26.1205 23.6135 26.0626 24.566 25.7779C24.9043 25.9208 25.21 26.131 25.4647 26.3957L30.1829 31.3044L29.1483 32.339C28.2232 31.4145 26.6527 31.4836 25.6411 32.4957L14.0454 44.088C13.0343 45.0991 12.9652 46.669 13.8898 47.5947L16.1248 49.8291Z" fill="white"/>
</g>
</g>
<defs>
<clipPath id="clip0_6967_63731">
<rect width="65" height="65" rx="32.5" fill="white"/>
</clipPath>
</defs>
</svg>
