<svg width="65" height="65" viewBox="0 0 65 65" fill="none" xmlns="http://www.w3.org/2000/svg">
<g id="Frame 1928">
<g clip-path="url(#clip0_6967_63716)">
<path id="Vector" d="M65 0H0V65H65V0Z" fill="#C33836"/>
<path id="Vector_2" d="M14.4014 48.9134L30.3745 65H65V24.2188L54.7293 12.6584H35.8393L31.2946 15.9635L31.5726 19.0242L18.7726 32.368L14.4014 48.9134Z" fill="#9B2D29"/>
<path id="Vector_3" d="M36.4674 28.3604V26.7349C42.6736 26.7349 47.7283 31.7902 47.7289 37.9964H46.1033C46.1039 32.685 41.7788 28.3604 36.4674 28.3604ZM44.9187 37.9975C44.9187 33.3354 41.1278 29.5456 36.4668 29.5451V31.174C40.2263 31.1768 43.2909 34.2409 43.292 37.9992L44.9187 37.9975ZM36.464 32.4502V34.0791C37.5035 34.081 38.4998 34.4949 39.2348 35.2299C39.9698 35.965 40.3834 36.9614 40.3852 38.0009L42.0142 38.0037C42.0131 36.5317 41.4281 35.1203 40.3876 34.0791C39.3471 33.0379 37.936 32.4521 36.464 32.4502Z" fill="white"/>
<path id="Vector_4" d="M52.7401 11.8816H33.2811C32.4998 11.8838 31.7511 12.1951 31.1986 12.7476C30.6461 13.3 30.3346 14.0486 30.3322 14.83V52.5819C30.3341 53.3632 30.6455 54.112 31.1982 54.6643C31.7508 55.2167 32.4998 55.5276 33.2811 55.5291H52.7401C53.5216 55.527 54.2704 55.2157 54.8229 54.6631C55.3754 54.1105 55.6866 53.3616 55.6885 52.5802V14.83C55.6863 14.0487 55.3749 13.3 54.8225 12.7476C54.2701 12.1952 53.5214 11.8838 52.7401 11.8816ZM37.8034 13.5263H48.2179C48.3982 13.5314 48.5695 13.6066 48.6952 13.736C48.821 13.8654 48.8913 14.0387 48.8913 14.2191C48.8913 14.3995 48.821 14.5728 48.6952 14.7022C48.5695 14.8316 48.3982 14.9068 48.2179 14.912H37.8034C37.7107 14.9146 37.6185 14.8986 37.5321 14.865C37.4458 14.8314 37.367 14.7808 37.3006 14.7162C37.2341 14.6516 37.1813 14.5743 37.1452 14.4889C37.1091 14.4035 37.0905 14.3118 37.0905 14.2191C37.0905 14.1264 37.1091 14.0347 37.1452 13.9493C37.1813 13.8639 37.2341 13.7867 37.3006 13.7221C37.367 13.6575 37.4458 13.6068 37.5321 13.5732C37.6185 13.5396 37.7107 13.5236 37.8034 13.5263ZM40.003 53.4581C39.8668 53.4581 39.7337 53.4177 39.6204 53.3421C39.5072 53.2664 39.4189 53.1588 39.3668 53.033C39.3147 52.9072 39.301 52.7687 39.3276 52.6351C39.3542 52.5015 39.4198 52.3788 39.5161 52.2825C39.6124 52.1862 39.7351 52.1206 39.8687 52.0941C40.0023 52.0675 40.1407 52.0811 40.2666 52.1332C40.3924 52.1854 40.4999 52.2736 40.5756 52.3869C40.6513 52.5001 40.6917 52.6333 40.6917 52.7695C40.6917 52.8599 40.6738 52.9495 40.6392 53.033C40.6046 53.1166 40.5539 53.1925 40.49 53.2564C40.426 53.3204 40.3501 53.3711 40.2666 53.4057C40.183 53.4403 40.0935 53.4581 40.003 53.4581ZM43.0104 54.4922C42.6695 54.4922 42.3363 54.3911 42.0529 54.2017C41.7695 54.0124 41.5486 53.7432 41.4182 53.4283C41.2878 53.1133 41.2537 52.7668 41.3202 52.4325C41.3868 52.0982 41.5509 51.7911 41.792 51.5502C42.0331 51.3092 42.3402 51.1451 42.6745 51.0787C43.0088 51.0122 43.3553 51.0464 43.6702 51.1769C43.9851 51.3075 44.2542 51.5284 44.4435 51.8119C44.6328 52.0954 44.7338 52.4286 44.7337 52.7695C44.7337 52.9958 44.6891 53.2198 44.6025 53.4289C44.5159 53.6379 44.3889 53.8278 44.2289 53.9878C44.0689 54.1478 43.8789 54.2747 43.6698 54.3612C43.4607 54.4478 43.2366 54.4923 43.0104 54.4922ZM46.0183 53.4581C45.8821 53.4581 45.7489 53.4177 45.6357 53.3421C45.5224 53.2664 45.4342 53.1588 45.382 53.033C45.3299 52.9072 45.3163 52.7687 45.3429 52.6351C45.3694 52.5015 45.435 52.3788 45.5313 52.2825C45.6276 52.1862 45.7503 52.1206 45.8839 52.0941C46.0175 52.0675 46.156 52.0811 46.2818 52.1332C46.4076 52.1854 46.5152 52.2736 46.5909 52.3869C46.6665 52.5001 46.7069 52.6333 46.7069 52.7695C46.7069 52.9521 46.6344 53.1273 46.5052 53.2564C46.3761 53.3856 46.2009 53.4581 46.0183 53.4581ZM53.6377 50.0739H32.3841V16.5594H53.6377V50.0739Z" fill="white"/>
<path id="Vector_5" d="M56.5578 31.3462H50.9908C49.5304 31.3462 48.3317 32.5864 48.3317 34.1075C48.3317 35.6286 49.5304 36.8683 50.9908 36.8683H56.5584C58.0188 36.8683 59.218 35.628 59.218 34.1075C59.218 32.587 58.0199 31.3462 56.5578 31.3462Z" fill="white"/>
<path id="Vector_6" d="M30.3351 25.3343C30.3458 25.3698 30.359 25.4045 30.3745 25.4382V24.7417C30.2934 24.9288 30.2795 25.1381 30.3351 25.3343Z" fill="#1D1D1B"/>
<path id="Vector_7" d="M34.4594 17.5143C34.1541 17.3369 33.8081 17.2416 33.455 17.2377C33.1019 17.2337 32.7538 17.3213 32.4446 17.4919L29.854 18.6939L12.739 26.6476C12.5115 26.7746 12.3219 26.96 12.19 27.1848C12.0581 27.4095 11.9885 27.6654 11.9886 27.926V44.9978C11.9886 46.1598 12.4502 47.2742 13.2718 48.0958C14.0935 48.9175 15.2079 49.3791 16.3699 49.3791H29.5957V25.4383C29.5804 25.4045 29.5673 25.3698 29.5563 25.3343C29.5009 25.1382 29.5148 24.9289 29.5957 24.7417C29.6542 24.5963 29.754 24.4712 29.8827 24.3817C30.439 23.9609 31.0291 23.5869 31.647 23.2633C32.7794 22.6573 33.7994 22.2523 34.4987 21.6209C35.0941 21.0851 35.4581 20.388 35.4581 19.2674C35.4584 18.9136 35.3664 18.5659 35.1912 18.2584C35.0161 17.951 34.7639 17.6946 34.4594 17.5143Z" fill="white"/>
<path id="Vector_8" d="M56.5578 25.0901H50.9908C49.5304 25.0901 48.3317 26.3303 48.3317 27.8514C48.3317 29.3725 49.5304 30.6127 50.9908 30.6127H56.5584C58.0188 30.6127 59.218 29.3719 59.218 27.8514C59.218 26.3309 58.0199 25.0901 56.5578 25.0901Z" fill="white"/>
<path id="Vector_9" d="M56.5578 43.8582H50.9908C49.5304 43.8582 48.3317 45.0984 48.3317 46.6195C48.3317 48.1406 49.5304 49.3808 50.9908 49.3808H56.5584C58.0188 49.3808 59.218 48.1406 59.218 46.6195C59.218 45.0984 58.0199 43.8582 56.5578 43.8582Z" fill="white"/>
<path id="Vector_10" d="M56.5578 37.6025H50.9908C49.5304 37.6025 48.3317 38.8428 48.3317 40.3639C48.3317 41.8849 49.5304 43.1246 50.9908 43.1246H56.5584C58.0188 43.1246 59.218 41.8844 59.218 40.3639C59.218 38.8433 58.0199 37.6025 56.5578 37.6025Z" fill="white"/>
</g>
</g>
<defs>
<clipPath id="clip0_6967_63716">
<rect width="65" height="65" rx="32.5" fill="white"/>
</clipPath>
</defs>
</svg>
